<svg width="18" height="18" viewBox="0 0 18 18" fill="none" xmlns="http://www.w3.org/2000/svg">
<path d="M1.80711 16.3235C2.26307 16.3136 2.55643 16.5069 2.75927 16.8307C3.16327 17.4784 3.62595 17.6403 4.24955 17.0835C4.4373 16.9166 4.72899 16.6176 4.94859 16.9265C5.1179 17.1628 4.74407 17.3314 4.57476 17.4867C3.8204 18.1806 3.21859 18.1856 2.58829 17.4123C2.04682 16.7481 1.59924 16.8704 1.06616 17.3809C0.784532 17.6502 0.407354 18.1872 0.0637017 17.832C-0.202838 17.5561 0.439204 17.2834 0.662159 17.0042C0.958873 16.6357 1.34946 16.3598 1.80711 16.3235Z" fill="white"/>
<path d="M16.797 0.375809C15.7845 -0.257009 14.8005 -0.0851732 14.0864 0.850009C12.0697 3.48207 10.0782 6.13395 8.02972 8.74288C6.55621 10.6199 5.26374 12.5497 5.26206 15.0496C5.19166 15.8063 5.45485 16.1021 6.03989 15.8212C7.55867 15.0942 9.11935 14.4597 10.157 12.9793C11.4562 11.1271 12.918 9.38561 14.2959 7.58464C15.4208 6.11413 16.5741 4.66013 17.6168 3.13509C18.3477 2.06277 18.0107 1.1342 16.797 0.375809ZM6.99876 10.9751C7.64584 10.0829 8.28955 9.18569 8.96009 8.31164C10.1168 6.80147 11.2902 5.30286 12.4637 3.80591C12.7 3.50355 12.9565 3.20944 13.2381 2.94839C13.4427 2.75838 13.6405 2.82116 13.7612 3.11857C13.6572 3.28214 13.5667 3.44902 13.4544 3.60103C11.5869 6.09265 9.71613 8.58261 7.84197 11.0726C7.74306 11.2048 7.63745 11.3353 7.5134 11.4427C7.32733 11.6029 7.09264 11.6443 6.90489 11.4774C6.70037 11.2973 6.89483 11.1205 6.99876 10.9751ZM8.52089 13.8715C8.47898 14.1326 7.26698 14.8216 6.90154 14.7241C6.33158 14.5737 5.90075 14.2565 5.96781 13.5758C6.02145 13.3048 6.05665 13.0338 6.13041 12.7711C6.27123 12.2688 6.28799 11.7533 7.04738 12.4225C7.46144 12.786 8.04984 12.9826 8.35661 13.5163C8.42199 13.6336 8.54604 13.7145 8.52089 13.8715ZM8.70864 12.249C8.3432 12.515 7.97775 12.3283 7.72127 12.1036C7.45808 11.8756 7.76989 11.6608 7.91573 11.4823C9.88879 9.06011 11.6875 6.50902 13.5717 4.01905C13.7042 3.84391 13.8383 3.66547 13.9875 3.5052C14.14 3.33997 14.3311 3.33997 14.5206 3.45067C14.7167 3.56633 14.891 3.70182 14.8877 4.03558C14.8089 4.16445 14.7083 4.35942 14.5775 4.53126C12.7336 6.98322 10.8845 9.43022 9.03553 11.8772C8.93495 12.0078 8.8394 12.1532 8.70864 12.249ZM15.5699 5.06659C15.1576 5.6201 14.7519 6.17691 14.3311 6.72546C12.8207 8.69827 11.307 10.6678 9.79156 12.6373C9.62561 12.8521 9.47641 13.0916 9.20652 13.1577C8.88801 13.0702 8.81425 12.8686 8.93663 12.6406C9.10594 12.3283 9.30375 12.0243 9.5267 11.745C11.3355 9.47814 13.0923 7.17157 14.7569 4.79892C14.8039 4.73118 14.8508 4.66344 14.9044 4.599C15.0838 4.38586 15.2716 4.11984 15.5884 4.34785C15.8985 4.57091 15.746 4.83197 15.5699 5.06659ZM16.1785 3.91496C16.046 4.00914 15.9102 3.9414 15.8013 3.85383C15.2246 3.38954 14.6463 2.92691 14.0813 2.4494C13.9254 2.31722 13.8064 2.11895 14.1233 2.02477C14.4753 1.91902 16.2472 3.32015 16.269 3.74312C16.2489 3.78113 16.2338 3.87696 16.1785 3.91496Z" fill="white"/>
</svg>
