<svg width="20" height="25" viewBox="0 0 20 25" fill="none" xmlns="http://www.w3.org/2000/svg">
<path d="M18.8587 18.6305C17.9883 17.8691 17.5155 16.9231 17.2763 15.8557C17.0906 15.029 16.9563 14.1919 16.8995 13.3455C16.7849 11.6215 16.6614 9.89965 16.146 8.22858C15.4842 6.08036 14.3812 4.25267 12.1402 3.25687C11.8737 3.13862 11.7798 2.96851 11.735 2.70607C11.6531 2.22789 11.4937 1.76733 11.2348 1.34412C10.4507 0.064108 8.93272 -0.118454 7.83953 0.932316C7.32625 1.42606 7.09036 2.02458 7.09691 2.71126C7.0991 2.9654 7.08927 3.17596 6.77256 3.28384C4.5032 4.05766 3.32046 5.73184 2.72309 7.8313C2.25021 9.492 2.15738 11.2014 2.22837 12.9171C2.26987 13.9347 2.35614 14.9512 2.29062 15.9709C2.23929 16.7613 1.96408 17.4459 1.30774 17.976C0.99103 18.2311 0.686336 18.507 0.484299 18.8659C-0.0431807 19.8016 0.342328 20.6459 1.41585 20.898C2.04381 21.0453 2.68268 21.0079 3.31609 20.9747C4.44204 20.9167 5.56689 20.8638 6.69612 20.8627C7.12312 20.8617 7.31424 20.9343 7.26182 21.4052C7.19302 22.0172 7.35246 22.6095 7.75108 23.1167C8.39759 23.9403 9.24287 24.4071 10.3415 24.2017C11.3801 24.0078 11.8399 23.2433 12.0943 22.3481C12.2035 21.9633 12.2636 21.565 12.2112 21.1677C12.1588 20.7766 12.3116 20.6449 12.7168 20.6553C13.5348 20.675 14.3539 20.6615 15.1718 20.6615C15.1718 20.6542 15.1718 20.647 15.1718 20.6397C15.5355 20.6397 15.8992 20.6345 16.2628 20.6407C16.644 20.648 17.0262 20.6646 17.4073 20.6822C17.8354 20.703 18.2417 20.6324 18.6119 20.4208C19.336 20.007 19.479 19.173 18.8587 18.6305ZM7.68337 2.56812C7.7893 1.93848 8.1071 1.43229 8.66625 1.08065C9.21885 0.73212 9.82496 0.807842 10.3011 1.25076C10.6648 1.58892 10.8548 2.01109 10.9837 2.4675C11.0634 2.75171 11.0022 2.91353 10.5971 2.84196C9.79438 2.78802 8.94255 2.81395 8.09836 2.95399C7.74343 3.01207 7.62876 2.89382 7.68337 2.56812ZM11.2905 22.6002C11.0099 23.125 10.6801 23.5877 9.9713 23.6012C9.21557 23.6157 8.64331 23.2879 8.24689 22.6998C7.95967 22.2734 7.86247 21.7766 7.78711 21.2797C7.74015 20.9747 7.87339 20.8275 8.19665 20.815C8.70338 20.7953 9.21011 20.7663 9.71684 20.7414C9.71684 20.7237 9.71684 20.7051 9.71684 20.6874C10.169 20.6874 10.6222 20.6905 11.0743 20.6864C11.2971 20.6843 11.4642 20.7279 11.486 20.983C11.533 21.5359 11.5679 22.0836 11.2905 22.6002ZM18.5366 19.5723C18.4295 19.8462 18.1631 19.9426 17.8857 19.9779C17.6345 20.0101 17.379 20.0173 17.1256 20.0173C15.743 20.0204 14.3604 20.0194 12.6895 20.0194C9.61528 20.1377 6.25273 20.2663 2.89127 20.3939C2.43696 20.4115 1.98046 20.4281 1.53162 20.3389C0.985569 20.23 0.786809 19.8929 0.952807 19.3836C1.07075 19.0184 1.34159 18.755 1.63973 18.5309C2.58658 17.8183 2.94478 16.8588 2.97973 15.7562C3.02887 14.2189 2.84212 12.6837 2.93168 11.1454C2.99611 10.0418 3.05181 8.9329 3.38817 7.86657C4.19195 5.31692 5.90981 3.81493 8.7689 3.48093C10.9247 3.22887 12.6382 3.88236 13.9804 5.43932C14.7121 6.28782 15.1445 7.29917 15.4809 8.35098C16.0684 10.1911 16.111 12.0945 16.2683 13.9855C16.3568 15.057 16.5653 16.1026 16.9869 17.1098C17.2741 17.7975 17.6618 18.4064 18.2417 18.9033C18.4481 19.0807 18.6523 19.2767 18.5366 19.5723Z" fill="white"/>
<path d="M4.45405 9.54179C4.66701 7.81263 5.42164 6.29508 7.13077 5.30862C7.25417 5.23705 7.38413 5.1717 7.51955 5.12502C7.71722 5.0576 7.96731 4.91342 8.09945 5.15718C8.22504 5.38849 7.95311 5.47978 7.79367 5.5638C6.13369 6.44445 5.38561 7.88628 5.03395 9.57602C5.0274 9.61025 5.03068 9.64655 5.01866 9.67767C4.93566 9.8872 4.98372 10.2565 4.66264 10.2202C4.41255 10.1922 4.47808 9.85401 4.45405 9.54179Z" fill="white"/>
<path d="M18.8587 18.6305C17.9883 17.8691 17.5155 16.9231 17.2763 15.8557C17.0906 15.029 16.9563 14.1919 16.8995 13.3455C16.7849 11.6215 16.6614 9.89965 16.146 8.22858C15.4842 6.08036 14.3812 4.25267 12.1402 3.25687C11.8737 3.13862 11.7798 2.96851 11.735 2.70607C11.6531 2.22789 11.4937 1.76733 11.2348 1.34412C10.4507 0.064108 8.93272 -0.118454 7.83953 0.932316C7.32625 1.42606 7.09036 2.02458 7.09691 2.71126C7.0991 2.9654 7.08927 3.17596 6.77256 3.28384C4.5032 4.05766 3.32046 5.73184 2.72309 7.8313C2.25021 9.492 2.15738 11.2014 2.22837 12.9171C2.26987 13.9347 2.35614 14.9512 2.29062 15.9709C2.23929 16.7613 1.96408 17.4459 1.30774 17.976C0.99103 18.2311 0.686336 18.507 0.484299 18.8659C-0.0431807 19.8016 0.342328 20.6459 1.41585 20.898C2.04381 21.0453 2.68268 21.0079 3.31609 20.9747C4.44204 20.9167 5.56689 20.8638 6.69612 20.8627C7.12312 20.8617 7.31424 20.9343 7.26182 21.4052C7.19302 22.0172 7.35246 22.6095 7.75108 23.1167C8.39759 23.9403 9.24287 24.4071 10.3415 24.2017C11.3801 24.0078 11.8399 23.2433 12.0943 22.3481C12.2035 21.9633 12.2636 21.565 12.2112 21.1677C12.1588 20.7766 12.3116 20.6449 12.7168 20.6553C13.5348 20.675 14.3539 20.6615 15.1718 20.6615C15.1718 20.6542 15.1718 20.647 15.1718 20.6397C15.5355 20.6397 15.8992 20.6345 16.2628 20.6407C16.644 20.648 17.0262 20.6646 17.4073 20.6822C17.8354 20.703 18.2417 20.6324 18.6119 20.4208C19.336 20.007 19.479 19.173 18.8587 18.6305ZM7.68337 2.56812C7.7893 1.93848 8.1071 1.43229 8.66625 1.08065C9.21885 0.73212 9.82496 0.807842 10.3011 1.25076C10.6648 1.58892 10.8548 2.01109 10.9837 2.4675C11.0634 2.75171 11.0022 2.91353 10.5971 2.84196C9.79438 2.78802 8.94255 2.81395 8.09836 2.95399C7.74343 3.01207 7.62876 2.89382 7.68337 2.56812ZM11.2905 22.6002C11.0099 23.125 10.6801 23.5877 9.9713 23.6012C9.21557 23.6157 8.64331 23.2879 8.24689 22.6998C7.95967 22.2734 7.86247 21.7766 7.78711 21.2797C7.74015 20.9747 7.87339 20.8275 8.19665 20.815C8.70338 20.7953 9.21011 20.7663 9.71684 20.7414C9.71684 20.7237 9.71684 20.7051 9.71684 20.6874C10.169 20.6874 10.6222 20.6905 11.0743 20.6864C11.2971 20.6843 11.4642 20.7279 11.486 20.983C11.533 21.5359 11.5679 22.0836 11.2905 22.6002ZM18.5366 19.5723C18.4295 19.8462 18.1631 19.9426 17.8857 19.9779C17.6345 20.0101 17.379 20.0173 17.1256 20.0173C15.743 20.0204 14.3604 20.0194 12.6895 20.0194C9.61528 20.1377 6.25273 20.2663 2.89127 20.3939C2.43696 20.4115 1.98046 20.4281 1.53162 20.3389C0.985569 20.23 0.786809 19.8929 0.952807 19.3836C1.07075 19.0184 1.34159 18.755 1.63973 18.5309C2.58658 17.8183 2.94478 16.8588 2.97973 15.7562C3.02887 14.2189 2.84212 12.6837 2.93168 11.1454C2.99611 10.0418 3.05181 8.9329 3.38817 7.86657C4.19195 5.31692 5.90981 3.81493 8.7689 3.48093C10.9247 3.22887 12.6382 3.88236 13.9804 5.43932C14.7121 6.28782 15.1445 7.29917 15.4809 8.35098C16.0684 10.1911 16.111 12.0945 16.2683 13.9855C16.3568 15.057 16.5653 16.1026 16.9869 17.1098C17.2741 17.7975 17.6618 18.4064 18.2417 18.9033C18.4481 19.0807 18.6523 19.2767 18.5366 19.5723Z" stroke="white" stroke-width="0.5"/>
<path d="M4.45405 9.54179C4.66701 7.81263 5.42164 6.29508 7.13077 5.30862C7.25417 5.23705 7.38413 5.1717 7.51955 5.12502C7.71722 5.0576 7.96731 4.91342 8.09945 5.15718C8.22504 5.38849 7.95311 5.47978 7.79367 5.5638C6.13369 6.44445 5.38561 7.88628 5.03395 9.57602C5.0274 9.61025 5.03068 9.64655 5.01866 9.67767C4.93566 9.8872 4.98372 10.2565 4.66264 10.2202C4.41255 10.1922 4.47808 9.85401 4.45405 9.54179Z" stroke="white" stroke-width="0.5"/>
</svg>
