<svg width="15" height="20" viewBox="0 0 15 20" fill="none" xmlns="http://www.w3.org/2000/svg">
<path d="M13.8318 2.24922C13.5766 0.795309 12.9151 0.203988 11.4311 0.252777C8.45924 0.350354 5.48931 0.48306 2.52134 0.664555C0.662435 0.779696 0.334625 1.12317 0.293404 2.99276C0.240404 5.36194 0.281626 7.73503 0.281626 9.74318C0.187405 12.6432 0.314994 15.1744 0.515214 17.7016C0.556436 18.2149 0.507365 18.8843 1.0884 19.1633C1.73028 19.4717 2.10323 18.8843 2.50171 18.5427C3.9641 17.284 5.16346 15.7774 6.44133 14.3469C6.89673 13.8375 7.12247 13.9195 7.55825 14.382C9.05008 15.9686 10.5184 17.5904 12.3537 18.816C13.4196 19.5263 13.7513 19.3702 13.8671 18.1036C14.1714 14.7997 13.926 11.4781 14.193 8.17023C14.3481 6.18745 14.1734 4.20662 13.8318 2.24922ZM8.07057 1.18952C10.3711 1.08219 10.379 1.08219 10.4673 3.3655C10.4987 4.17345 10.4968 4.98529 10.4654 5.79324C10.434 6.59923 10.3456 7.40327 10.2612 8.45516C9.07952 7.01686 7.90569 6.9349 6.61407 8.60152C6.73185 6.41578 6.82411 4.6184 6.59248 2.82102C6.39422 1.27344 6.44526 1.26563 8.07057 1.18952ZM13.3234 8.59957C13.078 11.7357 13.3528 14.8933 12.976 18.1836C11.3526 17.0908 10.1179 15.8028 8.85182 14.546C6.96151 12.6686 6.9674 12.6705 5.14972 14.5596C3.98177 15.7754 2.963 17.1357 1.52024 18.25C1.44565 17.9007 1.34358 17.6099 1.32787 17.3152C1.07662 12.3212 0.935283 7.32521 1.04913 2.32338C1.06484 1.61496 1.34358 1.43347 1.97368 1.41785C3.01796 1.38858 4.06029 1.32418 5.10261 1.24612C5.60512 1.20709 5.73271 1.37882 5.7916 1.88818C6.03893 3.99781 5.95256 6.10549 5.86619 8.21511C5.85049 8.62299 5.68364 9.14015 6.10371 9.38995C6.57285 9.66902 7.01844 9.32165 7.3011 8.98598C8.09805 8.03948 8.84005 8.03752 9.62719 8.97427C9.77048 9.14601 9.96481 9.28457 10.1591 9.40166C10.7048 9.73342 11.0268 9.56949 11.0778 8.93719C11.2662 6.64216 11.5214 4.34909 11.0837 2.05016C11.0268 1.75352 10.5655 1.24026 11.2231 1.11341C11.7845 1.00608 12.4715 0.992416 12.7541 1.66375C12.976 2.19457 13.1369 2.77809 13.184 3.34794C13.3332 5.09263 13.4608 6.84122 13.3234 8.59957Z" fill="#FF8C66" stroke="#FF8C66" stroke-width="0.5"/>
</svg>
