<svg width="42" height="53" viewBox="0 0 42 53" fill="none" xmlns="http://www.w3.org/2000/svg">
<path d="M4.0723 31.0532C5.01268 29.2834 6.42509 27.9188 7.86677 26.5914C11.6063 23.1559 15.3715 19.7464 19.1258 16.3257C19.4441 16.177 19.0562 17.2144 19.5246 16.6157C20.1979 15.7569 20.4174 16.3183 20.7101 16.8686C20.6662 17.2478 20.7321 17.5825 21.1163 17.7758C21.1309 18.8503 21.6615 17.9468 21.9433 17.9989C22.5214 18.0881 22.9678 17.6866 23.4801 17.5676C24.1424 17.4151 24.8632 17.2255 24.4387 18.4822C24.1533 19.3262 25.2218 18.9024 25.423 19.6869C25.595 18.6161 24.7242 17.958 25.4267 17.2478C26.422 16.7013 26.9525 15.8052 27.2672 14.7492C27.2965 13.7193 26.7367 14.7083 26.5134 14.5299C25.5987 13.4516 25.6499 12.827 26.711 12.3064C27.2745 12.0313 27.8819 12.009 28.493 12.0871C28.6723 12.1131 28.8443 12.1652 29.0126 12.2284C29.8359 12.8121 30.6811 12.734 31.6105 12.4552C32.9351 12.0573 34.2963 11.7673 35.6941 12.1317C36.1661 12.4477 36.4369 12.8828 36.4369 13.4702C36.21 14.0837 36.049 14.7678 35.1855 14.7307C34.4061 14.8422 34.311 16.1249 33.3157 15.8721C33.1108 15.8052 33.2498 15.4371 32.9571 15.452C33.3047 16.824 32.8839 16.9355 31.713 16.3852C31.241 16.1621 30.7763 16.7756 30.586 17.3408C30.5348 17.5118 30.4177 17.6605 30.3665 17.8241C30.253 18.1811 29.4151 18.4042 30.1506 18.9284C30.2713 19.0139 30.3226 19.3077 30.5384 19.1106C30.8751 18.8057 30.9739 18.4153 30.8056 17.9766C30.7214 17.7535 30.6336 17.5341 30.6555 17.285C31.1093 16.2291 31.7642 16.3294 32.5107 16.9467C33.0376 17.3445 33.7182 17.5639 33.9999 18.2554C34.1097 18.5492 34.139 18.8652 34.2122 19.1701C34.289 19.4638 34.4902 19.6981 34.611 19.9695C34.6366 20.1256 34.622 20.2781 34.5634 20.4231C34.15 20.9697 33.4584 21.2968 33.3047 22.0516C33.0815 22.5127 32.8876 23.0035 32.2838 23.0704C31.5923 22.8919 31.6947 22.4197 31.874 21.9178C32.0643 21.7616 31.5813 21.7021 31.8155 21.7765C31.8923 21.8025 31.8886 21.8806 31.7679 21.9475C31.0946 22.323 30.6921 22.8473 30.6153 23.6653C30.5677 24.1895 30.2091 24.6655 29.6383 24.4981C28.8589 24.2713 29.1846 23.6541 29.2468 23.405C29.137 24.3755 28.2222 24.7324 27.1794 24.9332C25.8329 24.1672 26.7623 23.2675 27.0477 22.4197C27.2343 21.862 28.0393 21.6687 27.9368 20.7837C26.5244 21.215 26.1622 22.3528 25.8804 23.55C25.7633 23.9739 25.5694 24.342 25.1669 24.5576C24.3509 24.896 24.0399 26.0709 22.9422 25.9482C22.4592 25.6954 22.4519 25.2789 22.5616 24.8216C22.88 24.0743 23.8423 23.7211 23.824 22.7023C23.041 22.9365 22.6787 23.5612 22.2762 24.1375C21.9433 24.6729 22.1518 25.3273 21.9469 25.8664C21.6908 26.5394 21.4676 27.4615 20.4101 26.7179C20.6662 25.1005 18.5769 26.0003 18.4305 24.8142C18.361 24.8885 18.2915 24.9778 18.1964 25.0633C18.039 25.212 18.0097 25.3756 18.2037 25.4872C18.6867 25.7623 19.0416 26.0635 18.4415 26.5617C18.028 26.9 17.545 27.4094 17.0181 27.0413C16.2387 26.4985 15.13 26.5022 14.6214 25.5355C14.9361 23.8884 16.4071 23.1819 17.406 22.1111C18.0134 21.4604 18.694 20.8655 19.2758 20.1888C19.4112 20.174 19.6417 20.3301 19.66 20.2669C19.7185 20.055 19.4953 20.1368 19.3819 20.0885C18.0171 21.6501 16.4107 22.9551 14.9617 24.4201C14.3946 24.9927 13.8713 25.5615 13.5164 26.2866C13.1175 26.8257 12.8212 27.4466 12.2503 27.837C11.4234 27.8221 10.827 28.5211 10.0293 28.5955C8.88399 28.272 8.53638 29.6626 7.59233 29.7742C6.86052 29.7816 6.51291 30.1869 6.46534 30.9007C5.70059 32.6222 4.12352 33.5889 2.89407 34.8791C2.71478 34.8866 2.57573 34.8159 2.47328 34.6635C2.16592 33.7674 2.82089 33.2097 3.22339 32.585C3.54905 32.0905 4.03937 31.7039 4.0723 31.0532Z" fill="#874C8D"/>
<path d="M27.1757 24.7621C28.2808 24.1449 29.4993 23.6132 29.1151 21.691C30.0006 22.4457 29.6017 22.9997 29.459 23.5426C29.3749 23.8586 29.4041 24.2044 29.7956 24.2267C29.9457 24.2342 30.2713 23.9032 30.2457 23.7843C29.942 22.2413 30.8238 21.6389 32.1558 21.3601C32.6827 21.7653 31.5557 22.4606 32.2911 22.8994C33.4877 23.1782 33.0156 22.3193 33.0303 21.7876C33.0376 20.8061 33.8755 20.6648 34.4902 20.2967C34.8196 20.4714 34.9879 20.7652 35.083 21.1147C35.072 21.3601 35.1086 21.044 35.083 21.2931C35.0537 21.5646 35.0611 21.836 35.0245 22.1037C35.083 21.8285 35.0611 21.5311 35.2513 21.3006C35.6136 21.018 35.7234 20.5607 35.9722 20.2C36.1551 20.0885 36.3527 20.0624 36.5576 20.1033C36.9748 19.5977 36.2466 18.4488 37.4761 18.3967C37.8639 18.8578 38.3359 19.2779 38.1932 19.9844C37.5273 23.9888 36.2247 27.7887 34.5049 31.4547C34.1134 31.8675 33.795 32.3211 33.7292 32.9122C33.2462 33.6038 33.3596 34.5891 32.6497 35.1654C32.4009 35.5893 32.0423 35.9128 31.6801 36.2177C29.8066 37.783 29.7993 37.7755 30.1067 39.6606C30.0298 40.144 29.7737 40.4972 29.3602 40.7426C28.5333 41.1181 27.7831 40.2332 26.9599 40.605C24.9803 41.9064 23.5496 43.784 21.9615 45.4906C20.5089 46.5391 20.5857 47.8591 21.3139 49.2906C20.3881 50.1606 19.2319 50.6291 18.1305 51.1979C17.8268 51.3058 17.5267 51.4173 17.2523 51.131C17.0803 50.8299 16.8242 50.7183 16.4912 50.7927C15.5838 50.8373 15.452 51.6516 15.0935 52.239C12.5321 53.1909 9.96342 53.2838 7.38377 52.3245C7.20447 51.685 7.59599 51.5028 8.09363 51.4024C9.41822 51.9936 10.7428 52.7149 12.0893 51.4136C11.2587 51.8375 10.4428 51.7631 9.63044 51.4099C9.41822 51.3169 9.16208 51.1682 9.26819 50.8745C9.40358 50.4952 9.76583 50.6365 10.0439 50.5993C13.1541 50.5882 15.9753 49.5583 18.6501 48.0152C15.8948 49.5768 12.9968 50.6216 9.7951 50.5882C9.1511 50.5993 8.41197 51.0381 7.9619 50.1717C7.80456 48.5915 9.17306 48.9671 9.94147 48.5692C10.4757 48.4503 10.9258 48.0822 11.4307 47.952C12.2028 47.7513 13.1212 46.3384 13.8238 48.1305C13.9043 48.335 14.5482 47.8814 14.9507 47.7996C17.0035 46.963 18.2622 45.0445 20.0844 43.8956C21.5993 42.7801 22.9458 41.5085 23.8643 39.8242C23.9484 39.6755 24.0472 39.5379 24.1607 39.4115C24.4607 39.1103 24.8376 38.9579 25.2291 38.8389C25.7889 38.7237 25.8548 38.2589 25.9317 37.8016C27.1574 35.6339 28.5589 33.5741 29.7444 31.3804C30.2421 30.4583 30.6592 29.5288 30.7397 28.4691C30.758 28.1977 30.8019 27.9337 30.8861 27.6734C31.3691 27.0376 31.7386 26.268 32.6607 26.1639C33.0303 26.4762 33.1327 26.9149 33.2132 27.3648C33.2791 29.0826 32.0606 30.2575 31.4386 31.6853C32.1045 30.2798 33.2169 29.09 33.3925 27.4578C33.5096 26.9856 33.4145 26.5357 33.2425 26.0932C33.2315 25.7288 33.334 25.3942 33.5023 25.0819C33.6157 24.8774 33.7182 24.6655 33.784 24.4424C33.5499 24.5353 33.4877 24.8402 33.2352 24.9109C32.1265 25.2789 32.174 26.9372 30.8824 27.1008C30.3189 26.7625 30.0115 26.1341 29.4554 25.7883C28.8296 25.0373 27.8966 25.5541 27.1684 25.2157C27.0623 25.0633 27.066 24.9146 27.1757 24.7621Z" fill="#814685"/>
<path d="M38.5701 2.591C38.0359 3.44989 37.9151 4.12287 38.6762 5.0933C40.0923 6.90774 39.8947 9.26874 40.2094 11.4364C40.4143 12.8381 40.6009 14.225 41.362 15.4631C41.5925 15.8387 42.2804 16.151 41.8743 16.6789C41.4645 17.2144 40.8607 16.8128 40.3631 16.6604C40.085 16.5748 39.8398 16.3852 39.5837 16.2402C39.5727 15.4036 38.8336 15.6342 38.3981 15.4111C38.0761 15.2735 37.8054 15.0727 37.6261 14.7641C37.52 14.5187 37.5053 14.2622 37.5566 14.0019C38.0286 13.169 37.681 12.0313 38.5006 11.3286C38.7238 10.8452 38.3579 10.492 38.2335 10.083C38.3579 8.49909 37.3443 7.56956 36.3198 6.64375C36.1917 6.53593 36.071 6.42438 35.9502 6.31656C34.1317 4.91111 34.1317 4.91111 33.3706 7.30929C33.1986 7.59559 33.0156 7.87073 32.7888 8.11984C32.4741 8.3987 32.1045 8.54371 31.6984 8.61063C31.0397 8.61807 30.6665 9.33939 30.0006 9.32451C29.3895 8.80026 27.7831 9.07912 28.5296 7.45058C28.7967 6.91517 29.3492 6.6958 29.7444 6.29797C30.9556 5.76256 32.0826 5.12676 32.9132 4.01876C33.4877 3.25283 34.2561 2.86614 35.2733 3.15988C35.7234 3.29001 36.2356 3.23052 36.5503 2.73973C36.876 2.30471 37.176 1.80648 37.7139 1.64288C38.5591 1.38262 38.8189 1.7693 38.5701 2.591Z" fill="#6A924B"/>
<path d="M21.3175 49.2905C19.7332 48.1937 19.8393 47.0225 21.6835 45.2118C23.7655 44.0071 24.9217 41.7911 26.8098 40.3708C27.8124 39.4115 28.5113 40.6162 29.3639 40.7389C27.3404 44.2302 24.6473 47.0746 21.3175 49.2905Z" fill="#874C8B"/>
<path d="M8.14486 51.5214C7.77529 51.6739 7.52647 51.949 7.38377 52.3245C3.03678 51.2686 0.512011 48.1528 0.113171 43.3416C0.361989 43.0553 0.274171 42.6649 0.413216 42.3451C0.548602 41.7799 0.391261 40.9731 1.28042 40.9694C1.92442 40.9657 2.15494 41.5457 2.35619 42.0774C3.06605 43.9625 3.41732 46.0335 5.09318 47.4203C5.44079 47.7066 5.37859 48.2123 5.28711 48.6473C5.23223 49.733 6.20554 49.7516 6.80929 50.142C7.36181 50.5027 8.26561 50.4989 8.14486 51.5214Z" fill="#8A508E"/>
<path d="M36.6747 3.20821C36.6272 3.7808 36.3381 3.9853 35.8404 3.69528C34.472 2.90333 33.5608 3.65067 32.8656 4.69918C32.0899 5.86666 30.9848 6.29797 29.7298 6.54336C29.3968 6.63631 29.2797 6.51362 29.3749 6.17899C29.4919 6.01167 29.7774 6.0377 29.8249 5.78487C29.7151 6.00795 29.448 6.06372 29.3309 6.2645C28.7418 6.36861 28.9577 7.4134 28.1747 7.29814C28.1966 7.58815 28.5808 7.39853 28.6321 7.65136C28.4564 8.80769 29.9823 8.27972 30.0811 9.16835C30.1506 9.54388 29.9091 9.66286 29.62 9.74466C28.1564 9.68517 26.6415 10.0867 25.262 9.24643C25.1596 9.09399 25.0571 8.93783 24.9547 8.78539C24.4717 8.53627 24.79 7.6179 23.9265 7.58815C23.6996 7.58072 24.018 7.11967 24.2448 6.93748C26.1366 6.56195 27.7575 5.62499 29.3126 4.50583C30.8275 3.41271 32.529 2.69139 34.4134 2.78806C35.3648 2.8364 35.8697 2.43112 36.2942 1.70609C37.5017 1.92174 36.4662 2.72857 36.6747 3.20821Z" fill="#668A4A"/>
<path d="M25.262 9.24271C26.7769 9.40259 28.321 8.98245 29.8213 9.48067C30.0481 10.3173 29.8542 11.1166 29.62 11.9123C29.4736 12.0982 29.298 12.3659 29.0565 12.1503C28.1783 11.3546 29.0199 12.6894 28.643 12.4886C27.6734 12.6931 26.1256 11.9569 26.2719 13.9833C26.2976 14.3105 26.5464 14.3291 26.7915 14.3477C27.1135 14.3217 27.3477 14.4741 27.538 14.7195C27.3258 15.8758 27.0733 17.0024 25.7048 17.3222C25.5035 17.1623 25.4596 16.9355 25.4377 16.6975C25.1047 15.9948 24.9657 15.2772 25.2072 14.515C25.2254 14.199 25.1267 13.9201 24.9217 13.6784C24.5449 13.5855 24.8412 12.8419 24.2082 12.9645C23.2166 13.1579 23.1617 12.4514 23.1434 11.7413C23.6557 10.7374 24.5229 10.0458 25.262 9.24271Z" fill="#8C5292"/>
<path d="M23.1434 11.7413C23.6484 12.8828 24.296 12.9274 25.2767 11.5517C25.1596 12.537 24.5851 13.1951 25.3462 13.6189C25.1559 14.6749 24.4095 15.3367 23.6923 16.0208C22.4519 16.0766 23.0629 17.5527 22.2689 17.9505C22.1957 17.9914 22.1225 18.0323 22.0494 18.0732C21.7603 18.4488 21.4712 18.8243 21.0248 19.4043C20.9956 18.709 20.9736 18.2034 20.9516 17.7014C20.776 17.4821 20.8236 17.1511 20.5931 16.9578C19.2868 15.7531 20.0332 18.5269 18.8769 17.6271C18.4818 17.2664 19.1806 16.8351 19.1221 16.3257C20.4357 14.7716 21.6322 13.1133 23.1434 11.7413Z" fill="#86498A"/>
<path d="M37.4248 18.4413C36.7516 19.0325 37.1833 19.8393 37.026 20.5309C37.015 20.5755 36.9711 20.6462 36.9382 20.6499C36.6747 20.6685 36.7186 20.4454 36.6784 20.293C36.4369 19.9211 36.199 19.9211 35.9612 20.293C36.1661 20.7912 36.532 21.3452 35.5624 21.4084C35.3575 21.2708 35.0977 21.2485 34.911 21.0738C34.5817 20.9176 34.5012 20.6239 34.4866 20.293C34.4902 20.1703 34.4902 20.0476 34.4902 19.9249C34.6915 19.4266 35.0537 19.0325 35.3062 18.5789C34.8232 18.9284 34.7866 20.0438 33.7694 19.5419C33.7658 19.1738 33.7584 18.8057 33.7548 18.4376C34.0914 17.984 34.2817 17.4412 34.5964 16.9727C34.6915 16.8351 34.8086 16.7198 34.9403 16.6195C36.0307 16.1696 37.4797 17.0805 38.3359 15.7048C38.5262 15.7531 38.6396 15.8721 38.6872 16.0655C38.6104 16.7198 38.8848 17.404 38.5006 18.0249C38.4677 18.1141 38.4055 18.155 38.3103 18.1513C38.0359 18.3186 37.8164 18.6495 37.4248 18.4413Z" fill="#79407E"/>
<path d="M0.120489 40.7575C0.131466 39.4524 0.211966 38.1622 0.801078 36.965C0.844987 37.0022 0.896215 37.0356 0.932805 37.084C0.958419 37.1174 0.969396 37.1658 0.984033 37.2067C1.4963 36.3701 1.32433 35.0464 2.65623 34.7973C3.2856 35.2658 3.45391 35.9797 3.63321 36.6898C3.72103 37.4855 3.35512 38.099 2.85748 38.6605C1.8988 39.2368 1.94637 40.8318 0.574215 40.9917C0.402238 40.9545 0.252216 40.8764 0.120489 40.7575Z" fill="#8A508E"/>
<path d="M30.1067 39.6606C28.5442 38.2663 28.7162 37.4669 30.7177 36.437C31.3983 36.0875 32.0057 35.593 32.6497 35.1654C32.1375 36.8572 31.0983 38.244 30.1067 39.6606Z" fill="#874B8D"/>
<path d="M36.6747 3.20821C35.9612 2.85871 37.0845 2.02957 36.2942 1.69866C36.4039 1.49044 36.4771 1.24133 36.6345 1.08145C37.2382 0.467959 37.7761 -0.509906 38.8226 0.319234C39.8911 1.16325 39.1117 1.88456 38.5701 2.591C38.4604 1.92174 38.2042 1.53506 37.5712 2.14111C37.2382 2.45715 36.9711 2.85127 36.6747 3.20821Z" fill="#749858"/>
<path d="M2.65623 34.7973C1.73414 35.5967 1.4963 36.7754 0.947442 38.1102C0.87426 37.5487 0.837669 37.255 0.801078 36.965C1.48167 34.7601 2.47694 32.7338 4.0723 31.0532C4.84436 31.6927 4.0723 32.0125 3.76494 32.3508C3.12094 33.0498 2.61598 33.7897 2.65623 34.7973Z" fill="#824887"/>
<path d="M15.0935 52.2427C14.7019 50.8931 15.313 50.3837 16.5717 50.4171C16.7693 50.6328 17.1572 50.4804 17.3035 50.8001C17.4865 51.131 17.8195 51.1422 18.1341 51.2017C17.2121 51.8152 16.2168 52.2241 15.0935 52.2427Z" fill="#8B5290"/>
<path d="M24.2448 6.93376C24.1973 7.10852 24.1497 7.27955 24.1021 7.4543C25.6243 7.07877 24.4973 8.45447 24.951 8.78167C24.4241 8.84859 24.0253 8.56602 23.674 8.24626C23.2678 7.87445 22.397 7.65136 22.7922 6.91517C23.1105 6.32027 23.7472 6.93748 24.2448 6.93376Z" fill="#789A5B"/>
<path d="M37.4248 18.4413C37.7176 18.3447 38.0139 18.248 38.3067 18.1513C38.797 18.7946 38.5701 19.3895 38.1786 19.9732C37.8017 19.527 37.2382 19.1775 37.4248 18.4413Z" fill="#A36FAB"/>
<path d="M38.464 15.1211C38.9287 15.2475 39.4629 15.2698 39.8508 15.5226C40.5716 15.9948 40.0008 16.1212 39.5837 16.2439C39.3788 16.1287 39.1739 16.0134 38.969 15.9019C38.8885 15.8684 38.8116 15.8349 38.7311 15.8015C38.5409 15.6118 38.3725 15.4185 38.464 15.1211Z" fill="#638546"/>
<path d="M33.7292 32.9122C33.1583 31.9716 33.8609 31.7299 34.5049 31.4547C34.3732 32.0087 34.3475 32.6222 33.7292 32.9122Z" fill="#9F69A2"/>
<path d="M0.120489 40.7575C0.226603 40.7612 0.332716 40.7649 0.438829 40.7686C0.790101 41.371 0.698624 41.9882 0.486397 42.6054C0.457125 42.8991 0.409557 43.1854 0.113171 43.3416C-0.022215 42.4827 -0.0551468 41.6201 0.120489 40.7575Z" fill="#6B3270"/>
<path d="M38.4969 18.0249C38.5043 17.3296 38.5116 16.6343 38.5189 15.939C38.5591 15.7345 38.6653 15.6751 38.8482 15.7829C38.8482 15.7829 38.9653 15.8981 38.9653 15.8944C38.6872 16.5786 39.1226 17.4226 38.4969 18.0249Z" fill="#8D5992"/>
<path d="M29.7334 25.5058C30.3226 25.8292 30.8019 26.2382 30.8312 26.9893C31.1312 27.1454 30.9812 27.5284 31.1971 27.7292C31.1971 27.9709 31.1971 28.2163 31.2007 28.4579C29.47 32.5627 27.194 36.3143 24.2448 39.6346L24.2521 39.6272C23.7142 40.0696 23.2569 39.761 22.7958 39.471C22.3823 38.4188 21.2114 38.4299 20.5052 37.7904C20.4284 37.4446 20.626 37.2253 20.8455 37.0133C20.6187 37.1026 20.5016 37.3442 20.2893 37.4521C19.832 37.6826 19.4844 37.6008 19.3124 37.0654C20.3296 35.5967 19.6234 33.2692 21.6139 32.2876C22.8836 31.8675 24.2448 31.5849 24.6766 30.0902C23.8752 30.3914 23.03 30.9045 22.042 30.4583C21.9213 30.3282 21.8408 30.1794 21.7896 30.0084C21.6908 28.893 22.5397 28.2758 23.0995 27.5247C23.4947 26.9967 24.0289 26.5766 24.1643 25.8776C24.5119 25.4277 24.2155 24.606 24.9803 24.394C25.2254 24.1449 25.4706 23.8995 25.7158 23.6504C25.7743 23.7025 25.8329 23.7508 25.8914 23.8029C26.1256 24.2007 26.239 24.6655 26.5574 25.0187C26.6415 25.16 26.6964 25.3124 26.733 25.476C26.9159 26.2122 26.1805 26.6732 26.1768 27.3834C26.8464 25.7103 28.7748 26.5691 29.7334 25.5058Z" fill="#83478A"/>
<path d="M12.1698 27.7403C12.4735 27.1938 12.6053 26.5171 13.2676 26.2419C13.4761 26.03 13.7176 26.0189 13.9738 26.1378C14.0104 28.4394 15.9424 27.863 17.1901 28.3204C17.4206 28.6662 17.4462 29.2834 18.1232 29.0566C18.8989 29.7109 18.1854 30.1422 17.8451 30.5178C16.8754 31.5737 15.8326 32.5553 14.5409 33.2134C14.3287 33.3733 14.1055 33.5146 13.8677 33.6261C13.1066 33.9161 12.3455 34.2136 11.5076 33.9793C10.5964 33.4439 11.1416 32.9978 11.5881 32.5404C11.8369 32.3768 12.3894 32.507 12.1808 31.9009C11.6942 30.9714 10.7172 30.5141 10.1427 29.6775C10.2379 28.4096 11.2514 28.127 12.1698 27.7403Z" fill="#834987"/>
<path d="M36.3161 6.17155C37.842 7.10108 38.9946 8.23882 38.5226 10.2764C37.9334 10.8861 39.1885 10.8452 38.8885 11.3546C37.9883 11.9941 38.7384 13.3475 37.7944 13.9684C37.4907 13.9275 37.2382 13.7193 36.9272 13.723C36.7955 13.7565 36.6601 13.7751 36.5247 13.79C36.3893 13.7825 36.2686 13.7305 36.1661 13.6338C35.9868 13.2397 35.8075 12.8456 35.6319 12.4552C35.2989 11.8677 34.7647 11.5145 34.2012 11.1947C34.0731 11.072 34.0219 10.9196 34.0329 10.7448C34.6476 9.14604 35.5221 7.68111 36.3161 6.17155Z" fill="#638546"/>
<path d="M3.38073 36.6452C2.89041 36.1284 2.81357 35.448 2.65623 34.7973C3.87471 33.4328 5.09684 32.0682 6.31532 30.7037C6.46534 30.1088 6.83125 29.7333 7.42768 29.5957C8.00581 29.1123 8.56931 28.6067 9.17306 28.1605C9.54628 27.8853 9.94512 27.8073 9.98172 28.4988C10.3586 29.6589 9.56092 30.0865 8.7669 30.5141C7.60697 30.871 7.02152 31.4101 8.11558 32.533C8.32781 32.7524 8.3827 33.0721 8.38636 33.3844C8.23999 34.2247 7.86311 34.9014 7.06909 35.2807C6.23482 35.0836 5.70425 35.4406 5.31639 36.1879C5.12245 36.5634 4.80411 36.9464 4.29916 36.7084C3.8125 36.4779 4.18207 35.9797 4.06498 35.6116C3.9918 36.0764 3.75396 36.4073 3.38073 36.6452Z" fill="#824887"/>
<path d="M17.3072 28.4765C16.2387 29.0751 15.0276 27.4875 13.7798 29.183C13.9591 27.8816 13.5347 27.0599 13.9957 26.2382C13.886 25.6359 14.1458 25.4016 14.7239 25.4983C15.9167 25.9147 16.9962 27.1492 18.4854 26.0598C17.2487 25.6322 17.2596 25.6433 18.1378 24.725C18.361 24.4944 17.9878 23.933 18.7306 23.8363C19.155 24.0259 18.3903 26.2345 20.1723 24.9034C20.5089 24.6506 21.0029 25.8553 20.5821 26.6175C20.4796 26.7365 20.3735 26.8554 20.2674 26.9744C19.821 27.2979 19.4221 27.6809 19.0636 28.1047C18.9465 28.22 18.8147 28.3204 18.6757 28.4059C18.2293 28.5881 17.7902 28.9264 17.3072 28.4765Z" fill="#8B508E"/>
<path d="M34.8232 16.9318C34.7427 17.6345 34.6147 18.3075 33.7548 18.4376C33.5682 17.6642 32.657 17.8576 32.2948 17.3185C32.8583 16.9727 33.1547 16.4261 33.3925 15.8312C33.9011 15.333 34.3366 14.805 34.6695 14.1358C34.9659 13.5371 35.1635 13.9945 35.2001 14.4072C35.5953 15.6304 36.06 14.0614 36.4771 14.4369C37.3809 14.5001 37.8017 15.1359 38.1274 15.8796C37.9261 16.8611 37.4321 17.2701 36.393 16.9764C35.91 16.8388 35.3611 16.6195 34.8305 16.9206L34.7683 16.8834L34.8232 16.9318Z" fill="#8E5891"/>
<path d="M27.1757 24.7621C27.1757 24.8848 27.1721 25.0075 27.1757 25.1265C26.9306 25.3236 26.6891 25.3496 26.4439 25.1265C25.6719 24.8997 26.2427 23.9888 25.7121 23.6393C25.4962 22.4234 26.572 20.4751 27.5746 20.1256C28.171 19.9174 28.3284 20.3896 28.5735 20.6685C28.965 21.1109 28.6174 21.4642 28.2918 21.7393C27.3367 22.535 26.4915 23.353 27.1757 24.7621Z" fill="#83478A"/>
<path d="M25.7084 16.5786C25.7084 16.824 25.7048 17.0731 25.7048 17.3185C25.1449 18.2554 26.7696 19.1478 25.6389 20.1591C25.0791 19.4118 24.2412 19.1626 23.3081 19.3486C23.2532 18.4339 24.2777 18.5417 24.3582 17.8985C23.4947 17.1363 22.9202 19.3448 22.0494 18.0658L22.053 18.0621C22.4409 17.6866 22.8105 17.2962 23.052 16.8016C23.2532 16.5302 23.524 16.3778 23.8533 16.3369C24.4717 16.415 25.1084 16.3555 25.7084 16.5786Z" fill="#814588"/>
<path d="M14.7239 25.4983C14.4824 25.7437 14.2372 25.9928 13.9957 26.2382C13.7542 26.2382 13.5091 26.2419 13.2676 26.2419C13.9372 24.078 15.8216 22.9737 17.384 21.6798C18.0756 21.1072 18.4122 19.9881 19.5209 19.9472C19.6088 20.0773 19.5831 20.1888 19.4587 20.2818C17.8817 22.0219 16.301 23.7582 14.7239 25.4983Z" fill="#783B7C"/>
<path d="M34.106 10.9716C35.1379 10.9084 35.6575 11.3881 35.6282 12.4514C34.2085 12.4961 32.7815 12.4738 31.413 12.9608C30.5384 13.2732 29.6639 13.552 28.9943 12.5667C29.0638 12.3994 29.1919 12.3139 29.3712 12.3027C31.0471 12.2135 32.4741 11.217 34.106 10.9716Z" fill="#7B4B7C"/>
<path d="M20.2162 26.6212C20.3406 26.6212 20.4613 26.6175 20.5857 26.6175C21.7859 26.6807 21.7274 25.8218 21.5883 25.0596C21.4932 24.5316 21.259 24.0892 22.042 24.0148C22.8141 23.7285 23.0666 23.9702 22.7812 24.7621C22.7958 25.1674 22.7153 25.6099 23.1471 25.8738C23.1837 25.9482 23.2239 26.0226 23.2642 26.0969C23.2459 26.268 23.1873 26.4204 23.0849 26.558C22.5982 27.0302 22.0347 27.3908 21.442 27.7032C20.9041 27.9263 20.4211 27.9225 20.0735 27.3611C19.9856 27.086 20.0259 26.8406 20.2162 26.6212Z" fill="#915895"/>
<path d="M33.3925 15.8349C33.4218 16.6306 33.2462 17.2738 32.2948 17.3222C31.8191 16.3703 31.3251 16.8091 30.8312 17.3036C30.6958 17.4263 30.5714 17.4263 30.4543 17.2776C30.8421 16.1733 31.2666 15.1582 32.6827 16.5823C32.8656 15.7085 31.7423 14.6935 33.0632 14.1543C33.656 14.608 33.2828 15.2772 33.3925 15.8349Z" fill="#8D5394"/>
<path d="M30.4543 17.2776C30.5787 17.285 30.7068 17.2962 30.8312 17.3036C32.5143 18.8243 30.7068 19.3002 30.1103 20.2223C29.2285 19.0214 29.0785 18.0286 30.4543 17.2776Z" fill="#9D6BA1"/>
<path d="M22.7812 24.7621C22.7775 24.2676 22.525 24.0222 22.042 24.0148C22.1116 23.7843 22.1152 23.4943 22.2616 23.3381C22.8141 22.7358 23.3154 22.0293 24.1972 21.8917C24.2887 21.8769 24.5302 22.1297 24.5192 22.2412C24.4278 23.1745 24.0875 23.9888 23.2569 24.5056C23.1032 24.5985 22.9385 24.6766 22.7812 24.7621Z" fill="#9B65A0"/>
<path d="M8.50711 30.3319C9.18769 29.8783 9.87194 29.4247 9.98172 28.4951C10.6989 28.2051 11.0831 26.9224 12.1698 27.7403C11.7271 28.5249 10.6367 28.6476 10.3403 29.5845C10.0878 30.3765 9.56824 30.9454 8.87301 31.3506C8.55467 31.5365 8.14486 31.6518 8.00215 31.1573C7.89604 30.778 7.79358 30.2575 8.50711 30.3319Z" fill="#7B3E7E"/>
<path d="M33.7694 19.5419C34.9403 19.3411 34.8342 17.6605 36.2027 17.4932C36.1222 18.7128 35.266 19.2928 34.4866 19.9249C34.1902 19.9174 33.9121 19.8579 33.7694 19.5419Z" fill="#814685"/>
<path d="M33.023 21.7839C34.3622 21.5311 33.4072 22.4123 33.3633 22.6465C33.2608 23.208 33.1766 24.0408 32.379 23.9144C31.6654 23.8029 32.2363 23.2563 32.2875 22.8994C32.5326 22.5238 32.7778 22.152 33.023 21.7839Z" fill="#733876"/>
<path d="M24.973 24.3829C24.8522 24.8774 24.7315 25.3719 24.6071 25.8664C24.1204 26.268 23.6337 26.268 23.1471 25.8701C24.0582 25.7623 23.7911 24.1598 24.973 24.3829Z" fill="#915895"/>
<path d="M36.3088 14.7046C35.9136 14.8273 35.8587 15.6899 35.2294 15.2438C34.9293 15.0318 34.7574 14.7009 35.2001 14.4072C35.877 14.608 35.6685 13.6636 36.1661 13.6338L36.3125 13.6524C36.6198 14.0019 36.6125 14.3551 36.3088 14.7046Z" fill="#A680AC"/>
<path d="M7.42768 29.5957C7.17154 30.0828 6.81295 30.462 6.31532 30.7037C6.09943 29.6291 6.37386 29.354 7.42768 29.5957Z" fill="#935B9A"/>
<path d="M27.538 14.7195C27.2306 14.7158 26.9562 14.6414 26.7915 14.3477C26.883 13.9796 26.6744 13.2843 27.2965 13.4107C28.1161 13.5818 27.7575 14.2176 27.538 14.7195Z" fill="#9E69A3"/>
<path d="M29.2761 12.5221C29.1773 12.5072 29.0858 12.5221 28.998 12.5667C28.8845 12.5258 28.7638 12.4961 28.643 12.4849C27.7466 11.8566 28.4637 11.4141 28.8296 10.782C28.9687 11.31 29.0748 11.7078 29.1809 12.1094C29.4554 12.1875 29.4883 12.325 29.2761 12.5221Z" fill="#A06DAB"/>
<path d="M19.4587 20.2818C19.488 20.1703 19.5063 20.0587 19.5209 19.9472C19.7807 19.8728 20.0698 19.4601 20.2784 19.7575C20.4943 20.0662 20.2235 20.4826 19.9454 20.6759C19.5063 20.992 19.5246 20.5458 19.4587 20.2818Z" fill="#A16BA5"/>
<path d="M20.5967 16.9578C21.2736 16.9281 21.1236 17.311 20.9553 17.7014C20.6992 17.7832 20.2601 17.9952 20.2125 17.9282C19.8869 17.4598 20.5748 17.3371 20.5967 16.9578Z" fill="#99609E"/>
<path d="M11.4307 33.6856C12.2869 33.5592 13.1432 33.4365 13.9994 33.3101C14.0579 33.3138 14.1311 33.2989 14.1714 33.3287C15.2947 34.1095 15.2947 34.1095 16.5937 33.8418C17.2999 34.1429 18.0829 34.3512 18.2512 35.2881C18.1012 35.9202 18.4927 36.2994 18.8916 36.6787C19.0709 37.1472 18.9026 37.5301 18.6135 37.8871C18.3574 38.1511 18.061 38.3333 17.6841 38.3295C17.4206 38.3853 17.1462 37.4558 16.8535 38.3704C16.7583 38.6642 15.9899 38.7831 16.74 39.2033C16.7693 39.3706 16.7547 39.5379 16.7071 39.7015C16.4034 40.2481 15.9387 40.6236 15.6533 40.8021C16.4473 40.0882 17.5926 40.1142 18.7745 40.4563C18.8989 40.4712 18.9282 40.7723 19.1367 40.5864C19.0379 40.5232 18.9684 40.434 18.9318 40.3113C18.9026 40.1514 18.9026 39.999 18.9428 39.8465C18.9904 39.7276 19.0599 39.6309 19.1624 39.5714C19.3892 39.4375 19.6234 39.4264 19.8649 39.5342C19.6234 39.3557 19.2721 39.5156 19.0489 39.2665C19.0526 38.2291 19.7002 37.8759 20.5857 37.7755C21.4383 38.099 22.9715 37.3963 22.7885 39.2814C23.4618 40.1663 22.9824 40.8764 22.4189 41.5383C21.9542 42.0848 21.5078 42.6574 20.9553 43.1222C20.4686 43.4977 19.6929 43.5461 19.5905 44.364C18.1195 45.6691 16.612 46.9333 15.1008 48.1863C14.647 48.3573 14.1897 48.5209 13.7396 48.6994C13.381 48.8444 12.9675 48.9782 12.8541 48.4949C12.8175 48.335 13.2712 48.0561 13.5347 47.7959C12.1881 47.5096 11.46 48.7737 10.3403 48.9262C9.89756 48.3536 10.3696 48.0301 10.6952 47.7029C11.0831 47.3162 11.3246 46.9481 10.8782 46.4536C10.4391 45.9554 10.3879 45.4014 10.6404 44.8028C10.6952 44.6466 10.7648 44.4942 10.8379 44.3492C11.2587 43.4717 10.2635 43.3118 10.0549 42.7541C9.5536 40.5121 11.3795 41.951 12.0015 41.4825C12.5833 41.3895 13.0188 41.0847 13.3005 40.553C13.4578 40.2369 13.6957 39.9655 13.8274 39.6346C13.5603 39.5342 13.4432 39.8317 13.2237 39.8763C12.8175 40.0287 12.4113 40.118 12.5541 40.7537C12.6711 41.2706 12.2577 41.3338 11.8661 41.3338C11.2368 40.7017 10.3074 41.6796 9.69997 40.9285C9.42188 40.6199 9.00474 40.6496 8.66079 40.486C8.2839 39.2256 9.04133 38.2106 9.4109 37.1286C9.58288 36.6266 9.97074 36.2102 9.77315 35.6227C9.75485 35.2658 9.8939 34.9609 10.0769 34.6709C10.3623 34.102 10.8636 33.8455 11.4307 33.6856Z" fill="#864C8B"/>
<path d="M11.0538 46.3012C11.8735 46.4202 12.3272 46.6544 11.5661 47.5133C11.1563 47.9781 10.3586 48.1082 10.3366 48.9187C9.76583 49.6177 8.41197 48.718 8.1412 50.0304C7.18984 50.7109 6.55681 50.0788 5.91647 49.4765C5.45543 49.008 6.80929 48.4726 5.86525 48.0189C7.28863 46.4759 8.83276 45.3308 11.0538 46.3012Z" fill="#905796"/>
<path d="M5.93111 49.2459C6.63731 49.6029 7.28863 50.1123 8.14486 50.0305C8.65713 50.6514 9.36699 50.3168 9.98537 50.4171C10.0988 50.4915 10.1354 50.5696 10.1025 50.6477C10.0659 50.7257 10.0293 50.7666 9.99269 50.7666C9.93415 50.7741 9.86096 50.7629 9.8134 50.7964C9.72924 50.8559 9.65972 50.9414 9.58288 51.0158C10.6513 51.6107 11.8113 50.9377 12.9309 51.2426C10.9075 53.0458 9.48774 53.1202 8.14851 51.5289C7.74602 50.6142 6.71781 50.7927 6.07382 50.2982C5.57618 49.9189 4.67605 49.9152 4.84802 48.9187C5.02 48.7254 5.23589 48.6808 5.48104 48.7328C5.71523 48.8221 5.82866 49.0303 5.93111 49.2459Z" fill="#7C417E"/>
<path d="M24.2375 39.6309C24.8449 37.7049 26.5574 36.5374 27.4319 34.7527C28.504 32.5627 29.9237 30.5475 31.1934 28.4579C31.1568 30.6033 29.7225 32.1426 28.8296 33.9013C28.0686 35.3997 27.0147 36.7456 26.0927 38.1622C26.261 38.8389 25.6462 38.943 25.3133 39.2516C24.9583 39.378 24.5997 39.5045 24.2375 39.6309Z" fill="#733776"/>
<path d="M26.4403 25.1302C26.6854 25.1302 26.9306 25.1302 27.1721 25.1302C28.0759 24.9109 29.0199 24.3829 29.7334 25.5058C29.5395 26.6509 28.4747 26.8034 27.7831 26.7365C26.3232 26.5952 26.5757 27.309 26.6818 28.2423C26.089 27.7515 25.434 27.2942 26.1439 26.3498C26.422 25.9742 26.4403 25.5615 26.4403 25.1302Z" fill="#874C8D"/>
<path d="M9.98903 50.7629C9.98172 50.6477 9.97806 50.5324 9.98172 50.4171C13.4103 50.1346 16.612 49.1493 19.5319 47.3014C16.8462 49.8148 13.6042 50.8038 9.98903 50.7629Z" fill="#713775"/>
<path d="M20.5528 42.9809C21.2956 41.7428 23.0263 41.1218 22.7885 39.2739C23.2752 39.3892 23.7582 39.5045 24.2448 39.6234C23.5862 41.7539 22.075 43.0813 20.2088 44.0777C20.1796 43.9997 20.1466 43.9216 20.1174 43.8472C20.1101 43.4754 20.3406 43.2337 20.5528 42.9809Z" fill="#733976"/>
<path d="M33.7548 27.3574C33.4511 29.5659 32.035 31.1238 30.769 32.7784C31.3361 30.8747 32.6936 29.3391 33.0083 27.3425C32.7595 26.9633 32.8363 26.6807 33.2571 26.5059C33.7182 26.6138 33.5499 27.0971 33.7548 27.3574Z" fill="#925D97"/>
<path d="M26.8098 40.3745C25.2035 42.0997 24.2521 44.5425 21.6835 45.2155C23.2971 43.494 24.6107 41.449 26.8098 40.3745Z" fill="#773B7B"/>
<path d="M15.1008 48.1788C16.2278 46.4499 17.9914 45.4572 19.5173 44.1856C19.6856 43.8658 19.9234 43.8844 20.1869 44.048L20.2088 44.0777C18.6318 45.6022 17.1974 47.3125 15.1008 48.1788Z" fill="#733976"/>
<path d="M31.1934 27.7255C30.8934 27.5693 30.8348 27.2905 30.8275 26.9856C31.5666 26.6472 31.8338 25.9891 32.0789 25.2604C32.1997 24.896 32.3204 24.1486 33.0266 24.7547C33.4803 25.4016 33.3157 25.885 32.6497 26.2382C32.0387 26.6063 31.552 27.1008 31.1934 27.7255Z" fill="#8B5690"/>
<path d="M32.6534 26.2419C32.9095 25.7809 33.0742 25.2975 33.0303 24.7584C33.3157 24.3792 33.6047 23.9999 33.9487 23.5426C34.4463 24.6469 33.6999 25.4165 33.4108 26.2754C33.4877 26.3609 33.5023 26.439 33.4584 26.4985C33.4181 26.5543 33.3815 26.584 33.3486 26.584C33.2352 26.8368 33.1217 27.0897 33.012 27.3425C32.5802 27.0785 32.679 26.6398 32.6534 26.2419Z" fill="#783D7B"/>
<path d="M26.9964 39.2293C27.1831 38.456 27.2892 37.8722 27.9002 37.6119C27.9515 37.5896 28.182 37.8164 28.2076 37.9503C28.3576 38.7497 27.8124 38.9802 26.9964 39.2293Z" fill="#88528C"/>
<path d="M34.911 21.0738C35.1818 21.0812 35.4306 21.1221 35.5624 21.4084C34.7391 22.0033 35.9392 22.7878 35.1635 23.6876C34.6329 22.7544 34.8927 21.888 34.911 21.0738Z" fill="#A97BAD"/>
<path d="M35.9575 20.293C35.9758 19.8431 35.8514 19.3486 36.2503 18.9693C36.8869 19.3188 36.5869 19.8617 36.6747 20.293C36.4369 20.293 36.199 20.293 35.9575 20.293Z" fill="#86508B"/>
<path d="M17.3035 50.7964C17.0072 50.7741 16.7254 50.722 16.5717 50.4134C16.8681 50.3279 17.1462 49.9375 17.4719 50.2535C17.6658 50.4469 17.4975 50.6588 17.3035 50.7964Z" fill="#9A63A0"/>
<path d="M25.3169 39.2479C25.5767 38.8835 25.8365 38.5192 26.0963 38.1585C26.6964 39.155 25.8658 39.0992 25.3169 39.2479Z" fill="#88528C"/>
<path d="M33.345 26.584C33.3706 26.4799 33.3889 26.3795 33.4072 26.2754C34.45 26.3312 33.9268 26.9038 33.7548 27.3611C33.4401 27.1975 33.3889 26.8926 33.345 26.584Z" fill="#AC7EAD"/>
<path d="M29.2761 12.5221C29.2431 12.3845 29.2139 12.247 29.1809 12.1057C29.3931 11.2282 29.2248 10.2578 29.8213 9.47696C29.9091 9.37285 29.9932 9.26874 30.0811 9.16463C30.5823 8.91552 30.7104 7.91906 31.574 8.40614C32.1814 9.92685 32.1484 7.71457 32.5839 8.22767C33.6926 8.69615 34.289 9.77069 34.1097 10.9716C32.6278 11.9123 31.1458 12.8456 29.2761 12.5221Z" fill="#638546"/>
<path d="M34.106 10.9716C33.5682 10.1388 32.8071 9.43234 32.6424 8.38383C32.5253 8.30575 32.4887 8.22767 32.529 8.15702C32.5692 8.08638 32.6131 8.0492 32.6534 8.0492C32.6644 7.73688 32.7302 7.44686 33.0339 7.28327C34.0914 6.80363 35.3867 7.04159 36.3161 6.17527C36.1588 8.0492 35.1964 9.54016 34.106 10.9716Z" fill="#6F9450"/>
<path d="M36.3161 6.17155C35.6282 6.6735 35.6685 7.74059 34.7281 8.17561C35.0098 6.16783 33.5279 7.8038 33.0303 7.27955C33.2864 6.78504 33.4035 6.31284 33.2023 5.72166C32.8985 4.82931 33.7987 4.57276 34.267 4.26416C34.8818 3.85888 35.0977 4.6434 35.1306 5.01522C35.2074 5.82577 36.2722 5.43908 36.3161 6.17155Z" fill="#638546"/>
<path d="M28.6321 7.65136C28.2771 7.65136 27.9185 7.65136 27.516 7.65136C27.6478 6.89658 28.4052 7.12711 28.676 6.71439C28.482 6.36117 27.699 6.67721 27.8527 6.27566C28.182 5.40934 28.8333 5.95962 29.3639 6.17155C29.4846 6.29425 29.6054 6.42066 29.7261 6.54336C29.7993 7.35763 28.8845 7.16429 28.6321 7.65136Z" fill="#759D55"/>
<path d="M36.3088 14.7046C36.3088 14.3551 36.3125 14.0019 36.3125 13.6524C36.4259 13.6301 36.5393 13.6301 36.6528 13.645C37.3334 13.6524 37.4285 14.3142 37.7834 14.686C38.0103 14.831 38.2408 14.9761 38.4677 15.1173C38.5957 15.3404 38.7238 15.5598 38.8519 15.7829C38.7494 15.8461 38.6396 15.8981 38.5226 15.939C38.3908 15.9205 38.2591 15.8981 38.1274 15.8796C37.337 15.7829 37.2163 14.6154 36.3088 14.7046Z" fill="#7D6278"/>
<path d="M38.8921 11.3546C38.5152 11.0014 37.7176 11.6409 37.5858 10.8675C37.4541 10.0979 38.453 10.8898 38.5262 10.2801C38.9177 10.5403 39.5251 10.73 38.8921 11.3546Z" fill="#7A9C5E"/>
<path d="M37.7798 14.686C37.2602 14.5001 36.9309 14.0986 36.6491 13.645C36.7296 13.3884 36.7369 12.9088 37.0809 13.0649C37.3882 13.2025 37.5602 13.6561 37.7944 13.9684C37.7907 14.2064 37.7834 14.4481 37.7798 14.686Z" fill="#7B9A5C"/>
<path d="M32.6534 8.0492C32.6534 8.16074 32.6497 8.27229 32.6424 8.38383C32.4119 8.7891 32.1777 9.19066 31.874 9.71863C31.4056 9.31336 31.6069 8.82257 31.5703 8.40614C31.9325 8.28716 32.2911 8.16818 32.6534 8.0492Z" fill="#7DA05F"/>
<path d="M25.8694 43.6613C26.0707 43.0255 26.4 42.8247 26.8098 42.5979C26.9562 43.3639 26.5354 43.5126 25.8694 43.6613Z" fill="#A46DAA"/>
<path d="M5.56886 48.9225C5.32736 48.9187 5.08586 48.9187 4.84436 48.915C4.83339 48.4577 5.31639 47.8702 4.74923 47.5579C2.85016 46.5131 2.92335 44.3566 2.03419 42.7504C1.76342 42.2633 2.09273 41.3226 1.23651 41.3152C0.544943 41.3078 1.04258 42.3451 0.482738 42.6054C0.468102 41.9919 0.453466 41.3821 0.43517 40.7686C1.77439 40.6273 1.32799 38.6753 2.64891 38.5192C2.76966 38.5563 2.81723 38.6381 2.79528 38.7608C2.98921 38.7608 2.84651 38.5712 2.93798 38.5043C3.249 38.0953 3.2673 37.2959 3.96253 37.4223C4.6175 37.545 4.25891 38.2031 4.30648 38.5898C4.74557 37.5116 5.29809 37.1249 6.1287 38.3072C6.30434 38.6121 6.4507 38.9319 6.55315 39.2665C6.5934 39.4375 6.60804 39.6123 6.59706 39.787C5.33102 40.196 4.52236 41.0624 3.95887 42.2782C3.83446 42.5459 3.32585 42.2819 3.30755 42.2187C3.42098 42.5756 3.38805 43.3825 3.76859 44.0294C4.11621 44.6243 4.56261 45.5092 5.33834 44.364C5.44445 44.1298 5.60179 43.9439 5.81036 43.8026C6.39216 43.5126 6.67025 43.0181 6.79465 42.3897C6.89345 41.8952 7.16056 41.6387 7.68015 41.9138C7.8192 42.0105 7.93629 42.1332 8.03142 42.2745C8.55833 42.7987 7.89238 44.0963 9.19501 44.1149C9.90853 44.1112 10.5525 44.2822 11.0648 44.8214C10.7391 45.3084 10.7245 45.7992 11.0465 46.2937C9.09256 46.2008 7.44963 46.9965 5.93111 48.1454C5.94941 48.4763 5.85427 48.7477 5.56886 48.9225Z" fill="#7D4482"/>
<path d="M29.2504 6.22732C29.7956 5.55062 30.092 4.99662 31.1056 5.17138C30.608 5.87782 30.0006 6.04142 29.2504 6.22732Z" fill="#759D55"/>
<path d="M25.7084 16.5786C25.0901 17.0061 24.4753 16.9876 23.8606 16.5674C24.1753 15.5672 24.2997 14.4072 25.7048 14.344C25.4047 15.0913 25.3682 15.8349 25.7084 16.5786Z" fill="#874C8D"/>
<path d="M25.7085 14.3477C24.7534 14.7976 24.4863 15.8349 23.8643 16.5711C23.6264 16.6975 23.3886 16.824 23.1508 16.9504C22.7592 16.4001 23.0446 16.0878 23.5276 15.8461C24.1716 15.1359 24.4387 14.1023 25.3462 13.6152C25.6462 13.7677 25.7048 14.0428 25.7085 14.3477Z" fill="#A26FA7"/>
<path d="M23.524 15.8461C23.3996 16.2142 23.2715 16.5823 23.1471 16.9504C23.1142 17.6568 22.7483 18.0323 22.0494 18.0695C21.8445 17.4821 22.6495 17.1846 22.3531 16.3889C22.064 15.6081 22.9129 15.5933 23.524 15.8461Z" fill="#874C8D"/>
<path d="M5.89818 38.534C5.4847 38.0247 5.08586 37.519 4.65775 38.5415C4.44552 39.0509 4.51871 39.8131 3.65882 39.8763C3.20144 39.0397 4.43455 38.4708 3.95887 37.6491C3.31121 37.8053 3.32584 38.4783 3.01482 38.891C2.88675 39.0137 2.76235 39.0025 2.64891 38.8687C2.65257 38.7534 2.65257 38.6344 2.65257 38.5192C2.90139 37.8982 3.36609 37.3628 3.38073 36.6452C3.46489 35.8867 3.87837 35.303 4.26623 34.6412C4.73459 35.2881 4.2333 35.9165 4.43821 36.3998C5.63107 36.6118 4.859 33.0796 6.98127 35.1468C7.113 36.4407 6.56779 37.5078 5.89818 38.534Z" fill="#8F5792"/>
<path d="M20.5857 37.7681C20.1466 38.3147 19.3746 38.5192 19.1258 39.2554C19.0892 39.5045 18.8769 39.7499 19.1221 39.999C19.1221 40.1217 19.1221 40.2481 19.1221 40.3708C19.2172 40.7166 19.1331 40.8802 18.7562 40.7426C17.2743 40.5046 15.9131 40.895 14.4787 41.4267C15.1666 40.8244 15.8509 40.2258 16.5388 39.6234C17.1242 39.0843 17.6658 38.5006 18.3208 38.0395C18.844 37.8648 18.7123 36.8981 19.4917 37.0319C20.2637 37.7532 20.4503 36.7679 20.8858 36.5263C21.2078 36.3478 21.4895 35.7008 21.8811 36.2177C22.2506 36.7047 21.7786 36.9352 21.3432 37.0579C20.9809 37.1658 20.7431 37.4223 20.5857 37.7681Z" fill="#8D5392"/>
<path d="M23.1471 25.8738C23.6337 25.8738 24.1204 25.8701 24.6071 25.8701C24.5632 27.2124 23.2203 27.6623 22.708 28.6959C22.4958 29.1198 22.0384 29.4135 22.0457 29.9638C21.7932 30.2612 21.4456 30.4137 21.1309 30.6182C20.6845 30.9156 20.3662 31.4027 19.8246 31.5663C19.5612 31.5514 19.3965 31.4064 19.3124 31.161C19.2611 30.8338 19.3965 30.555 19.5209 30.2724C19.6856 29.9266 19.638 29.5362 19.7185 29.1718C19.8137 28.8744 19.9637 28.5881 19.8905 28.2609C19.821 28.0452 19.7405 27.8296 19.7332 27.5991C19.8173 27.3685 19.9344 27.1938 20.2088 27.3611C20.5748 27.5953 20.9443 27.5953 21.3139 27.3722C21.7566 26.9149 21.4786 28.8149 22.1335 27.6325C22.4116 27.1269 23.0739 26.9149 23.1361 26.2494C23.1434 26.1192 23.1471 25.9965 23.1471 25.8738Z" fill="#874C8D"/>
<path d="M22.0457 30.3319C23.2861 30.1869 24.5083 30.001 25.5438 28.9524C24.8303 31.6035 24.0399 32.3173 21.6835 32.5627C21.0687 31.9567 22.1043 31.4064 21.7383 30.8078C21.6652 30.5326 21.4822 30.1794 22.0457 30.3319Z" fill="#874C8D"/>
<path d="M22.0567 30.7111C22.5543 30.7446 22.6934 30.9454 22.3275 31.3469C22.0055 31.7001 21.6761 32.0348 21.6835 32.5665C21.3761 33.4253 19.81 33.7079 20.7321 35.21C21.0687 35.7566 19.7405 36.2734 19.4917 37.0356C19.1294 37.4074 18.7672 37.783 18.4013 38.1548C18.2805 38.0767 18.2366 37.9949 18.2732 37.9131C18.3098 37.8276 18.35 37.7867 18.3866 37.7867C18.511 37.4149 18.6391 37.0394 18.7635 36.6675C18.7818 36.1842 19.2502 35.831 19.1294 35.3104C19.0599 35.0836 18.9794 34.8605 18.9611 34.6189C19.0416 33.76 19.6271 33.1614 20.0332 32.4698C20.6077 31.7596 21.1639 31.0383 22.0567 30.7111Z" fill="#9D68A0"/>
<path d="M22.0567 30.7111C21.5627 31.4436 20.9992 32.1091 20.2308 32.5665C20.1796 32.4995 20.1247 32.4326 20.0735 32.3657C19.8576 31.4585 20.9077 31.1201 20.9516 30.3282C21.2188 29.8969 21.6469 29.9749 22.0494 29.9638C22.0494 30.0865 22.0494 30.2092 22.0494 30.3319C21.7896 30.4657 21.8115 30.5921 22.0567 30.7111Z" fill="#8B508E"/>
<path d="M28.5186 29.7184C28.7418 29.2536 28.9687 28.7926 29.298 28.1122C29.6603 29.116 29.2431 29.5139 28.5186 29.7184Z" fill="#8D5294"/>
<path d="M25.7085 23.643C25.9829 23.5946 26.5171 23.2154 26.2646 23.9479C26.1 24.4349 26.2902 24.751 26.4403 25.1302C25.4596 25.0075 25.778 24.2267 25.7085 23.643Z" fill="#874C8D"/>
<path d="M28.7345 31.042C28.5772 31.1238 28.4381 31.254 28.2918 31.2614C27.9771 31.2763 27.9259 31.016 27.9917 30.7855C28.0283 30.6665 28.2149 30.5959 28.3357 30.5066C28.4271 30.6293 28.5223 30.7557 28.7345 31.042Z" fill="#8D5294"/>
<path d="M11.4307 33.6856C11.0758 34.0574 10.7172 34.4292 10.3623 34.801C9.64142 34.3103 9.1694 33.4253 8.17779 33.3547C6.94834 32.3954 6.53486 31.3655 7.91799 30.1906C8.14851 29.9935 8.35708 30.0902 8.50711 30.3356C8.40099 30.5401 8.19608 30.7557 8.21438 30.9454C8.25463 31.332 8.5071 31.2205 8.71201 31.042C9.25722 30.5587 9.79876 30.0716 10.3403 29.5882C10.7208 30.7855 11.6868 29.7927 12.4589 30.1757C12.9858 30.3207 10.2744 31.4101 12.5723 31.2205C12.8138 31.2019 12.5541 31.6109 12.5321 31.8228C12.3894 32.1723 12.1552 32.4289 11.8113 32.5739C11.8076 32.9866 11.0099 33.1205 11.4307 33.6856Z" fill="#905894"/>
<path d="M19.4807 31.0606C19.6051 31.1908 19.7295 31.3172 19.8539 31.4473C20.2601 31.8749 19.7624 32.3731 19.9564 32.8193C19.8539 33.0461 19.5136 33.3287 19.5026 33.3101C18.8989 32.1946 18.0756 33.3882 17.4097 33.0944C17.0364 32.7672 16.7108 32.7226 16.3814 33.1911C15.5582 34.3623 14.9361 33.8046 14.3616 32.9271C15.6277 31.7373 17.4719 31.135 18.0207 29.2127C17.8231 28.5397 18.5476 28.4951 18.7599 28.101L18.7562 28.1047C19.1038 27.93 19.3709 27.5061 19.8503 27.7292C19.9747 27.8519 20.0991 27.9746 20.2235 28.0973C20.2052 28.4988 20.1283 28.8818 19.8612 29.2016C19.9491 29.5808 20.4394 29.9601 19.8612 30.3356C19.4661 30.436 19.0489 30.5178 19.4807 31.0606Z" fill="#8B508E"/>
<path d="M14.3616 32.9271C15.0386 33.1614 15.7009 33.9905 16.268 32.6148C16.5644 31.8898 16.9962 32.0534 17.2962 32.9383C17.223 33.4253 16.9815 33.8009 16.5534 34.0425C15.8655 33.9905 15.5728 34.6932 14.8776 34.9423C14.7861 34.2805 14.5007 33.7228 14.003 33.3064C14.1201 33.1799 14.2409 33.0535 14.3616 32.9271Z" fill="#935C98"/>
<path d="M18.7562 28.101C18.8147 28.681 18.2439 28.826 18.0171 29.2127C17.5487 29.2834 17.2267 30.2278 16.7327 29.6477C16.4071 29.2685 17.1791 28.919 17.3072 28.4802C17.7902 28.3538 18.2732 28.2274 18.7562 28.101Z" fill="#9A659C"/>
<path d="M15.4484 29.116C15.1813 30.3765 14.4312 30.7 13.8457 31.1796C13.9591 30.3096 14.2738 29.6068 15.4484 29.116Z" fill="#A16FA5"/>
<path d="M11.8113 32.5702C11.9393 32.2095 12.1881 31.9641 12.5321 31.8191C12.7516 32.217 12.8358 32.6706 12.4589 32.9569C12.1369 33.206 12.1003 32.5925 11.8113 32.5702Z" fill="#864C8B"/>
<path d="M8.17779 33.351C9.53531 32.8528 10.0695 33.6336 10.3623 34.7973C10.2269 35.0353 10.0878 35.2732 9.95244 35.5112C9.49872 36.9724 8.72665 38.2254 7.58136 39.233C7.16788 39.4301 6.75075 39.6383 6.32995 39.2479C6.18725 39.01 6.04088 38.772 5.89818 38.534C5.92013 37.2922 6.36654 36.1916 6.98493 35.1506C7.38377 34.5519 7.78261 33.9496 8.17779 33.351Z" fill="#B793B7"/>
<path d="M19.8503 27.7292C19.4844 27.8556 19.1221 27.982 18.7562 28.1047C19.005 27.3685 19.499 26.8815 20.2162 26.6212C20.2162 26.8666 20.2162 27.112 20.2125 27.3537C20.0918 27.4801 19.971 27.6028 19.8503 27.7292Z" fill="#9A689F"/>
<path d="M34.8232 16.9318C34.5122 17.0508 34.1207 17.3705 33.9816 16.8016C33.8975 16.4559 34.1097 15.9948 34.5085 16.032C35.0098 16.0766 34.7976 16.586 34.8305 16.9169L34.8232 16.9318Z" fill="#A77DAC"/>
<path d="M23.1434 26.2419C23.3191 26.3126 23.7728 26.2382 23.4947 26.5989C22.847 27.4503 22.1189 28.2349 21.442 29.0231C20.5418 28.4096 21.9286 27.8891 21.3212 27.3611C21.9286 26.9893 22.536 26.6175 23.1434 26.2419Z" fill="#83478A"/>
<path d="M7.44597 38.9133C8.2839 37.7793 9.11817 36.6452 9.95244 35.5112C10.322 35.909 10.7465 36.3218 10.161 36.8497C9.10719 37.7978 9.35967 39.2182 8.88399 40.3708C9.2499 40.843 9.60483 40.0956 9.96708 40.3596C10.0403 40.7166 10.1098 41.1999 10.6038 40.8281C11.1709 40.4042 11.4673 40.7426 11.8113 41.0995C11.7015 41.4676 12.4809 41.3821 12.1808 41.8469C11.6759 41.6907 11.2185 42.0477 10.6257 41.8469C9.8939 41.594 10.2415 42.2522 10.3366 42.6017C10.0037 43.2375 9.52433 43.1185 9.20599 42.6835C8.79983 42.1295 8.26561 42.3302 7.77529 42.241L7.77163 42.2336C7.59599 41.9473 7.39474 41.6758 7.23009 41.3784C7.06909 40.5381 6.79831 39.6829 7.44597 38.9133Z" fill="#8C5492"/>
<path d="M7.77529 42.2373C8.31317 41.594 8.82179 41.0177 9.34504 42.2782C9.50603 42.6686 9.8756 42.914 10.3403 42.5979C10.3586 43.3118 12.7516 43.0553 11.0758 44.4607C10.344 44.7135 9.60849 43.613 8.87667 44.4607C7.9802 45.1709 8.03142 44.1335 7.91433 43.8138C7.7387 43.3378 7.81188 42.769 7.77529 42.2373Z" fill="#884E8D"/>
<path d="M16.5534 34.0425C16.5681 33.5109 16.8096 33.139 17.2962 32.9383C18.0976 32.4326 19.027 32.8379 19.8612 32.5739C19.9783 32.4215 20.0991 32.4252 20.2235 32.5665L20.2345 32.5702C20.1247 33.4477 19.3819 33.9868 19.1075 34.775C19.0379 35.2695 18.7379 35.5335 18.2695 35.6302C18.189 35.6004 18.1085 35.5707 18.028 35.541C18.0061 34.5594 16.8937 34.6932 16.5534 34.0425Z" fill="#814785"/>
<path d="M12.1808 41.8469C12.437 41.4044 10.8928 41.8841 11.8113 41.0995C13.0297 40.486 11.1563 40.434 11.6795 39.9246C12.0674 39.3892 12.7114 39.7313 13.2603 39.616C13.6371 39.906 13.3298 40.4377 13.6445 40.75C13.5823 41.7019 12.6419 41.4453 12.1808 41.8469Z" fill="#9B67A1"/>
<path d="M16.59 39.2962C16.2534 38.7051 15.7814 39.7127 15.5691 39.2591C15.3057 38.6976 15.8289 38.5638 16.2387 38.456C16.934 38.2701 16.8864 37.2885 17.6182 37.136C18.1451 37.4521 17.0584 37.8499 17.6694 38.1511C17.7024 38.9133 17.2852 39.2368 16.59 39.2962Z" fill="#8D5392"/>
<path d="M13.6408 40.75C12.6455 40.6757 13.4176 39.9841 13.2566 39.616C13.553 39.1587 13.842 38.6939 14.5263 38.5898C14.7129 39.5788 13.9408 40.0696 13.6408 40.75Z" fill="#AE81B5"/>
<path d="M19.5136 35.1914C20.0808 36.1061 19.1733 36.2548 18.7708 36.6638C18.0536 36.6118 17.2121 36.6415 18.0244 35.541L18.0536 35.5521C18.6318 35.8124 18.9574 35.0204 19.5136 35.1914Z" fill="#804782"/>
<path d="M8.87667 44.4607C9.34138 43.5238 9.34869 43.5238 11.0758 44.4607C11.0721 44.5834 11.0721 44.7061 11.0721 44.8288C10.3403 44.7061 9.60849 44.5834 8.87667 44.4607Z" fill="#8C5492"/>
<path d="M16.59 39.2962C17.0474 39.01 17.4243 38.6419 17.6694 38.1474C17.9109 38.0247 18.1524 37.9057 18.3939 37.783C18.3939 37.9057 18.3976 38.0284 18.4049 38.1511C17.8451 38.7199 17.6219 39.7313 16.5424 39.6234C16.5681 39.5156 16.5864 39.4078 16.59 39.2962Z" fill="#AC79B1"/>
<path d="M16.3156 37.255C16.1692 36.5188 16.3668 36.1991 16.8096 36.0652C16.8901 36.0392 17.1389 36.2362 17.1352 36.3292C17.1316 36.8163 16.762 36.9947 16.3156 37.255Z" fill="#99639E"/>
<path d="M20.1869 44.048C19.9637 44.0926 19.7405 44.1372 19.5173 44.1856C19.0672 43.0776 20.0405 43.2337 20.5528 42.9846C20.4321 43.3341 20.3076 43.6911 20.1869 44.048Z" fill="#A979AD"/>
<path d="M9.96708 40.3596C9.57922 40.5641 9.48774 41.3152 8.8474 40.9991C8.77788 40.9657 8.86936 40.5902 8.88399 40.3708C9.24258 40.2778 9.59751 39.7796 9.96708 40.3596Z" fill="#A06EA7"/>
<path d="M18.7562 40.7426C18.8769 40.6199 19.0014 40.4935 19.1221 40.3708C19.4002 40.6162 20.1832 40.6385 19.8905 41.0958C19.5649 41.6015 19.0819 41.0958 18.7562 40.7426Z" fill="#83478A"/>
<path d="M19.1221 39.999C18.7416 39.7499 18.7525 39.5007 19.1258 39.2554C19.3892 39.3111 19.6527 39.3632 19.9198 39.4189C19.6527 39.6123 19.3892 39.8056 19.1221 39.999Z" fill="#83478A"/>
<path d="M13.1834 38.3742C13.0151 38.5006 12.8504 38.7014 12.6455 38.7571C12.4296 38.8166 12.3455 38.6084 12.4809 38.4448C12.6309 38.2701 12.8431 38.1511 13.0297 38.0061C13.07 38.1065 13.1102 38.2068 13.1834 38.3742Z" fill="#97659D"/>
<path d="M9.83535 47.0411C9.63776 47.7252 9.49872 48.2904 9.02304 48.1045C8.39733 47.8628 9.0267 47.5988 9.18038 47.3906C9.27185 47.2679 9.46944 47.2307 9.83535 47.0411Z" fill="#A977AF"/>
<path d="M5.56886 48.9225C5.69327 48.6659 5.81402 48.4094 5.93843 48.1528C7.12031 48.5246 5.87622 48.8816 5.93111 49.2459C5.81036 49.1381 5.68961 49.0303 5.56886 48.9225Z" fill="#A572A9"/>
<path d="M7.40572 41.4788C7.70577 41.6424 7.77163 41.9212 7.77163 42.2336C7.49354 42.1704 7.10202 41.7948 7.16422 42.531C7.23375 43.4048 6.88613 43.9997 5.94941 44.0852C5.64936 43.8584 5.46275 43.5461 5.31639 43.1891C5.11879 43.6688 5.4042 44.0368 5.5652 44.4272C5.93843 45.0816 5.49934 45.2936 5.01268 45.4683C4.36502 45.7026 3.96984 45.2973 3.63321 44.8437C2.70014 43.5758 3.13557 42.0923 2.76601 40.46C3.65516 40.9285 3.16485 41.6944 3.68443 42.0439C3.79421 41.9696 4.02107 41.8952 4.03937 41.7874C4.25159 40.5046 4.46748 39.2591 6.25311 39.9804C6.27507 39.8614 6.30068 39.7387 6.32263 39.6197C7.51549 39.7424 6.79465 41.014 7.40572 41.4788Z" fill="#884E8D"/>
<path d="M5.5652 44.431C4.89193 44.4644 4.89559 43.8993 4.71264 43.4754C4.47846 42.9326 4.56627 42.479 5.13343 42.3265C6.08479 42.0662 5.51763 42.9251 5.70425 43.2375C5.85061 43.4828 5.87257 43.8026 5.94941 44.0889C5.82134 44.2004 5.69327 44.3157 5.5652 44.431Z" fill="#A270A7"/>
<path d="M7.40572 41.4788C6.16163 41.3895 7.07275 40.0064 6.32629 39.6197C6.32629 39.497 6.32995 39.3706 6.32995 39.2479C6.70318 39.1364 7.07275 39.0248 7.44597 38.9133C7.22643 39.7685 7.77529 40.6311 7.40572 41.4788Z" fill="#A373AA"/>
<path d="M2.64891 38.8687C2.76966 38.8761 2.89407 38.8835 3.01482 38.891C2.98555 39.2628 2.89773 39.8354 2.52451 39.7052C2.06346 39.5454 2.35253 39.1252 2.64891 38.8687Z" fill="#A274A4"/>
<path d="M20.2198 32.5627C20.0991 32.5627 19.9783 32.5665 19.8576 32.5702C19.4258 32.1984 19.9783 31.8191 19.8539 31.4473C20.0954 30.9454 20.4686 30.581 20.9516 30.3282C21.7164 31.4138 19.9088 31.6332 20.2198 32.5627Z" fill="#955E99"/>
<path d="M19.4807 31.0606C19.2685 31.0829 18.9465 31.2019 18.8696 31.109C18.6464 30.845 18.8257 30.5512 19.016 30.3244C19.2904 29.9972 19.5831 29.934 19.8576 30.3356C19.7332 30.5773 19.6051 30.8189 19.4807 31.0606Z" fill="#A26DA5"/>
<path d="M19.8576 29.2016C19.8503 28.7889 19.7771 28.3575 20.2198 28.0973C20.8711 28.7256 20.2893 28.9376 19.8576 29.2016Z" fill="#9E69A1"/>
<path d="M19.5136 35.1914C19.0599 35.4554 18.7489 36.3032 18.0536 35.5521C18.4049 35.2918 18.7525 35.0316 19.1001 34.775C19.2392 34.9126 19.3746 35.0502 19.5136 35.1914Z" fill="#AF7FB1"/>
<path d="M7.27034 37.9577C7.16788 37.8834 6.98127 37.8202 6.92638 37.6937C6.80563 37.4112 7.0142 37.2327 7.24838 37.1806C7.36547 37.1546 7.59965 37.2736 7.6399 37.3777C7.73138 37.638 7.5594 37.8164 7.27034 37.9577Z" fill="#A0759E"/>
</svg>
