<svg width="51" height="50" viewBox="0 0 51 50" fill="none" xmlns="http://www.w3.org/2000/svg">
<path d="M44.6747 16.3057C44.168 17.4493 43.665 18.5967 43.1583 19.7403C42.8519 20.1466 42.4851 20.4701 42.2544 19.7403C42.0994 19.2475 42.4397 18.7848 42.6931 18.3033C42.2469 18.7697 42.0653 19.6764 41.1955 19.3077C40.4883 19.0067 40.6963 18.4086 40.8514 18.1152C39.3311 19.7742 39.8227 21.4858 41.4186 23.1185C41.4792 23.1825 41.3733 23.3405 41.2712 23.4308C40.8249 24.6045 40.4959 25.8346 39.7244 26.8616C38.2079 27.2303 38.5142 28.5432 38.2987 29.5852C37.5839 31.2706 36.578 32.7641 35.3149 34.092C34.9178 34.0619 34.6531 33.7986 34.3467 33.5954C33.8816 33.287 33.5828 32.3954 32.8529 32.8882C32.1722 33.3509 31.7562 34.0506 32.1533 34.9648C32.2743 35.2469 32.2252 35.5704 32.1647 35.8752C32.4559 36.3755 30.8637 36.5034 31.9151 37.1542C31.7714 37.7034 31.3591 37.726 30.9053 37.6696C30.4099 37.3912 29.8578 37.2972 29.2981 37.2257C27.9745 36.225 28.5153 34.7579 28.4018 33.4751C28.3602 33.0199 29.0031 32.8205 29.4153 32.8543C30.3759 32.9371 30.841 32.2374 31.4499 31.7521C31.9037 31.3797 32.4634 31.1239 32.8265 30.4505C32.3575 30.9019 31.9453 31.1878 31.4007 31.1953C30.8902 31.1276 30.6028 30.8304 30.5196 30.3301C30.6709 28.9758 30.9205 27.6479 31.6466 26.4591C31.8886 26.3914 31.344 26.1619 31.5218 26.3349C31.6087 26.4215 31.5823 26.4403 31.4915 26.4929C30.6141 26.9933 30.0015 26.444 29.6384 25.8309C29.143 24.9919 29.8994 24.5029 30.4591 24.0214C31.0188 23.3367 32.2554 23.4759 32.471 22.3737C32.4407 22.2194 32.4672 22.0727 32.5315 21.9373C32.7281 21.768 32.9588 21.6025 32.6563 21.3166C32.384 20.7899 32.8265 20.5077 33.0609 20.1767C33.5526 19.4845 33.371 19.1723 32.6033 18.7923C30.9999 17.9985 31.0037 17.754 32.3197 16.3997C32.8416 15.8655 33.1857 14.895 34.2484 15.4179C34.3694 15.3953 34.3316 15.6398 34.4942 15.5796C34.3959 15.5533 34.3165 15.4931 34.2446 15.3953C33.3068 14.8611 33.1782 14.0598 33.4429 13.1231C33.5904 12.777 33.8627 12.5626 34.1917 12.4046C35.1069 12.0021 35.2014 10.5989 36.4305 10.5763C37.1717 10.7982 36.9789 11.4453 37.028 11.7237C36.4797 10.7907 37.5991 10.249 38.0075 9.44019C38.0075 9.08657 38.1361 8.78938 38.397 8.55614C39.1193 7.93166 38.934 6.77675 39.8265 6.21623C40.4808 5.80618 41.0102 5.38861 41.4073 6.43066C41.3657 7.00247 40.8892 7.4539 40.9459 8.05204C41.0745 8.84581 41.5548 9.47405 42.1939 9.81262C42.9692 10.2264 43.5137 10.7719 43.7709 11.5619C44.6823 11.2497 44.4554 9.65086 45.4878 10.0609C46.4219 10.4296 46.3728 11.6146 46.4295 12.5513C46.4522 12.9162 46.4522 13.2999 46.1875 13.6122C46.0589 13.7739 45.9341 13.9357 45.8055 14.0974C45.3933 14.3344 44.6294 13.4316 44.4781 14.5037C44.3193 14.8611 44.3382 15.1884 44.6483 15.4668C44.8374 15.7376 44.9546 16.016 44.6747 16.3057Z" fill="#B15D98"/>
<path d="M46.1875 13.6084C45.9795 12.4911 45.7752 11.3701 45.571 10.2753C44.8147 10.1888 45.1172 10.7907 44.9054 11.024C44.5121 11.4603 44.5764 12.446 43.8125 12.3331C43.3663 12.2654 42.6591 11.7651 43.0183 10.9149C43.1318 10.644 42.9238 10.55 42.6023 10.5387C41.672 10.5048 40.7341 9.36871 40.5035 8.07838C41.0443 7.72099 41.0858 7.11156 41.2712 6.57361C40.5413 6.14851 39.0891 6.91218 39.3954 7.60814C39.8719 8.69909 38.9416 8.48466 38.6088 8.827C37.8373 8.69533 37.0999 8.99252 36.3397 9.01133C36.1696 9.01509 36.0069 8.98124 35.8519 8.91728C35.712 8.83076 35.5872 8.72919 35.4699 8.62009C35.0426 8.27024 34.5623 8.50723 34.1085 8.51476C33.8854 8.80443 33.0912 8.15738 33.2538 9.05647C33.3786 9.17686 33.4278 9.31228 33.4126 9.48157C32.6374 10.7794 31.1738 10.8547 29.9788 11.4001C28.9615 11.8629 28.0274 12.5174 26.9458 12.8297C26.3899 12.9877 25.6184 13.4692 25.3121 12.6754C25.0436 11.9795 25.713 11.5995 26.3634 11.419C26.5374 11.3701 26.7038 11.261 26.8248 11.3211C26.2613 11.3889 25.6336 11.3964 25.1646 10.8584C24.3818 9.71481 24.9642 9.17309 25.9815 8.84957C25.452 8.66147 24.499 9.86529 24.2154 8.39438C28.8632 7.11533 33.5412 5.92656 38.0037 4.06065C40.6056 2.97346 43.1847 1.82607 45.7941 0.753929C47.1707 0.18588 48.5813 -0.491265 50.0638 0.52069C50.0259 0.569595 50.0033 0.637309 49.9541 0.667405C49.1826 1.16022 48.101 1.66431 48.3506 2.66498C48.6796 3.97789 49.9314 2.90951 50.7142 3.19541C50.06 7.0288 48.2258 10.3656 46.1875 13.6084Z" fill="#B3619B"/>
<path d="M30.6898 30.2699C30.9394 30.522 31.189 30.7702 31.4348 31.0223C31.8432 31.2894 31.9453 31.6693 31.8432 32.1245C31.0793 32.8468 30.2511 33.4036 29.1166 33.3058C28.9766 33.2945 28.6817 33.5315 28.6892 33.5541C29.1809 34.6676 28.3678 36.1084 29.5552 37.0451C29.6347 38.0533 30.3645 37.1091 30.6746 37.4138C31.0944 37.4063 31.5445 37.489 31.8243 37.0489C31.8281 36.8044 31.8583 36.5561 32.021 36.3755C32.3122 36.052 32.3878 35.8601 31.8243 35.9203C32.0701 34.9836 30.9545 34.1221 31.9567 33.0274C32.921 31.9741 33.4996 31.8951 34.3354 32.9597C34.6455 33.3509 34.9859 33.7158 35.3111 34.0958L35.2922 34.092C35.2468 34.3854 33.9497 33.7798 34.8232 34.7353C30.7087 39.7161 26.3975 44.4975 21.016 48.1954C20.392 48.6243 19.7416 48.993 18.9701 49.0945C18.573 49.3729 18.2705 49.2751 18.0473 48.8613C17.9566 48.4701 18.1116 48.1428 18.3158 47.8305C19.1743 46.7621 19.7491 45.5433 20.1878 44.2567C20.305 43.952 20.4488 43.6548 20.5698 43.3501C20.8534 42.7294 20.7475 42.1011 20.5849 41.4767C20.5433 41.2246 20.5509 40.9726 20.6 40.7205C20.6227 40.6001 20.6341 40.4722 20.687 40.3631C21.5001 38.7342 21.5303 37.2671 19.8285 36.1423C19.5525 34.6601 19.0571 33.2193 18.9966 31.6957C20.1613 30.1157 20.3277 30.1044 21.7421 31.4888C22.0144 31.6618 22.5476 31.6167 22.6006 31.7784C23.1073 33.3735 24.968 33.3171 25.9096 34.5322C25.2024 33.3584 24.2835 32.3879 24.3326 30.996C24.3667 30.0592 24.5179 29.1376 25.6752 29.1301C26.7 29.1225 27.29 29.5777 26.8437 30.8079C26.6811 31.2555 27.2143 31.865 27.0668 32.0832C27.4904 31.0637 28.2543 30.0555 29.9977 30.8492C30.1565 30.9132 30.1074 30.0705 30.6898 30.2699Z" fill="#B05B98"/>
<path d="M21.6135 31.7784C20.8723 31.4248 20.237 30.3113 19.2878 31.4587C17.5254 29.5702 16.425 27.2115 14.8215 25.2101C14.5719 24.7173 14.3904 24.2095 14.5946 23.6527C14.674 23.5022 14.7912 23.3856 14.9425 23.3104C15.7556 22.5843 14.5379 22.479 14.5265 22.005C13.9744 21.0758 13.1499 20.1729 14.171 19.1196C13.7134 19.4469 13.3806 20.1616 12.5638 20.0036C12.2953 19.9435 12.0797 19.8005 11.9133 19.5861C11.8755 18.7434 10.5632 18.4537 10.9679 17.3364C11.0586 17.0844 10.3703 17.4117 10.064 17.2575C9.89384 17.2161 9.75392 17.1258 9.62912 17.0054C9.33792 16.6894 9.12614 16.3283 9.00134 15.9182C9.198 15.5571 9.48541 15.3125 9.89384 15.2185C10.9679 15.2636 11.3536 14.4774 11.7469 13.7024C14.3412 11.9456 17.0036 10.3242 20.1046 9.5869C21.4018 9.31981 22.7254 9.15052 23.8864 8.44704C23.9923 8.38309 24.1057 8.36428 24.2267 8.39438C25.1986 9.39505 26.3597 7.8188 27.3543 8.669C27.2711 9.854 24.291 8.39438 25.3953 10.7117C24.673 11.6334 23.2964 11.5356 22.5817 12.6265C22.2602 13.1193 21.848 12.2917 21.6173 11.8817C21.3942 11.513 21.3942 11.1218 21.5039 10.7192C20.9744 11.0766 20.3845 11.3588 20.0517 11.9456C19.8928 12.1601 19.6924 12.3181 19.4239 12.3782C17.9793 12.2202 17.7448 13.7325 16.7918 14.2592C16.9015 14.436 17.1208 14.3119 17.2607 14.421C18.2402 15.5383 19.2537 15.937 20.3996 14.6392C20.6076 14.4059 20.8912 14.2065 21.1975 14.1576C21.7799 14.0598 22.5212 13.1419 22.9182 14.1764C23.2094 14.9363 22.9901 15.9069 21.9652 16.0988C19.8021 16.5051 19.6395 19.0293 17.8242 19.8419C17.4006 20.03 17.8507 20.8802 18.191 21.3316C18.4633 21.6927 19.0268 21.6401 19.3142 21.9862C19.6054 22.336 19.7907 22.7197 19.3029 23.111C19.2651 23.1411 19.0382 23.0621 19.2499 23.1975L22.0825 22.0238C22.2111 21.0532 22.3094 20.0036 23.7427 20.4664C24.7675 20.7974 25.3461 22.2909 24.915 23.2878C24.0944 25.18 22.9901 26.113 21.2164 26.4516C20.5925 26.5719 20.5244 26.0378 20.2786 25.7218C19.7983 25.0973 19.3029 25.2816 18.8226 25.6766C18.2024 26.1845 18.8907 26.4139 19.0987 26.6999C19.5336 27.3055 19.908 27.9601 20.5811 28.3777C21.9199 29.1978 22.1241 30.3903 21.6135 31.7784Z" fill="#B5629D"/>
<path d="M15.1845 23.4985C15.056 23.4985 14.9312 23.4985 14.8026 23.5022C13.7626 23.5398 13.2861 22.7987 12.802 22.0727C12.594 21.8395 12.3331 21.7454 12.0192 21.7717C11.2591 21.8319 10.6578 22.5542 9.82955 22.2796C9.6745 22.2232 9.54214 22.1291 9.43247 22.0012C9.30767 21.4557 9.74257 21.2037 10.0262 20.8877C10.1888 20.7146 10.1321 21.0344 10.1094 20.7861C10.0943 20.6168 10.0035 20.6244 9.9657 20.8087C9.10723 21.1473 8.15423 21.1811 7.39788 20.8538C6.15367 20.3196 6.78523 21.3241 6.59236 21.6438C6.0856 22.5204 5.0078 22.5354 4.31195 23.1411C3.31357 24.0063 2.49671 24.9807 2.08071 26.2484C2.00508 26.508 1.91053 26.7563 1.7933 27.0008C1.60799 27.3206 1.43781 27.6629 1.01047 27.7269C0.541533 27.5162 0.62095 27.1588 0.757093 26.7901C1.47185 23.2013 3.80142 20.6394 6.32764 18.2205C7.17475 17.4079 8.10885 16.6856 9.00134 15.922C9.41356 16.0649 9.72366 16.3245 9.89006 16.7345C9.84846 16.8624 9.53457 17.0092 9.91275 17.1107C10.4725 16.7872 11.0624 16.6179 11.8982 16.8512C10.0565 17.9685 12.4163 18.4425 12.1553 19.3679C12.0343 19.5146 11.9814 19.6914 12.11 19.8344C12.265 20.0074 12.4049 19.8494 12.5335 19.7478C13.2445 19.8043 13.5584 19.1346 14.3299 18.7885C13.7172 20.0789 14.4547 21.0006 14.8064 22.0087C15.0106 22.4827 15.7026 22.8401 15.1845 23.4985Z" fill="#B4629B"/>
<path d="M41.2712 23.4308C40.2312 22.9003 40.0459 21.6627 39.1987 20.9516C39.021 20.8012 39.0361 20.0826 39.2252 19.9096C40.269 18.9503 40.4656 17.344 41.7703 16.5389C41.8309 16.7383 41.8914 16.8474 41.8951 16.9565C41.9141 17.7315 40.3522 18.4387 41.2976 18.9616C42.1863 19.4582 42.1296 17.9007 42.6553 17.3778C42.8217 17.2123 42.8595 16.9114 43.3436 16.9377C43.7369 17.8443 42.954 18.4801 42.6666 19.2024C42.4095 19.8494 42.4775 20.0262 43.1583 19.7403C42.6515 21.0306 42.2695 22.3849 41.2712 23.4308Z" fill="#B3619B"/>
<path d="M50.7256 3.19165C49.9843 3.14651 49.6629 4.68137 48.7137 3.75594C48.3242 3.37222 47.477 3.13146 47.7834 2.40165C48.1918 1.42355 48.5321 0.204689 50.0713 0.516928C50.8882 1.26555 51.3155 2.10446 50.7256 3.19165Z" fill="#AE5898"/>
<path d="M11.3876 48.7108C8.69124 47.6236 6.6869 45.69 4.93973 43.4517C4.81493 43.1018 5.03049 43.0002 5.31034 42.9476C6.24444 43.2824 6.73985 44.1476 7.47351 44.7232C8.61939 45.5621 9.61021 46.6041 10.8695 47.2926C11.3007 47.5747 11.8944 47.7026 11.9436 48.3647C11.8679 48.6469 11.7507 48.8763 11.3876 48.7108Z" fill="#C2819F"/>
<path d="M4.18716 42.4397C2.7047 40.9086 1.62312 39.1518 1.18065 37.0451C1.31679 36.8119 1.43781 36.5674 1.76304 36.5674C2.7463 37.3085 2.85597 38.5574 3.49887 39.4979C3.80898 40.3368 4.62584 40.9763 4.49348 41.9883C4.44053 42.1764 4.33843 42.3231 4.18716 42.4397Z" fill="#C37DA4"/>
<path d="M38.2949 29.5852C37.5423 28.5883 38.1474 27.6817 38.5142 26.7864C38.9416 25.7481 39.3311 26.5983 39.7206 26.8616C39.4899 27.8961 38.9718 28.7802 38.2949 29.5852Z" fill="#C076AC"/>
<path d="M44.6747 16.3057C44.6634 16.001 44.584 15.7376 44.2852 15.5909C44.0129 15.2147 44.3117 14.8461 44.3004 14.4736C44.0394 13.9996 44.0167 13.4542 44.497 13.2172C45.3214 12.8033 45.2912 13.9018 45.8055 14.0974C45.5899 14.9138 45.3819 15.7339 44.6747 16.3057Z" fill="#B3619B"/>
<path d="M18.191 48.7484C18.4482 48.8613 18.7091 48.9742 18.9663 49.087C17.5519 49.9598 16.0506 50.2532 14.432 49.7642C14.3979 49.4181 14.6248 49.2601 14.8933 49.1322C15.99 48.9704 17.0263 48.2932 18.191 48.7484Z" fill="#B8679D"/>
<path d="M0.764657 35.2808C-0.165658 33.1703 -0.131622 30.9884 0.2579 28.7802C0.473461 28.8103 0.628513 28.9231 0.719276 29.1188C1.18443 30.4618 0.689021 31.9026 1.1504 33.2456C1.22603 33.5503 1.26007 33.855 1.26007 34.1673C1.23738 34.5999 1.15796 35.0099 0.764657 35.2808Z" fill="#C87CA9"/>
<path d="M23.8864 8.44704C22.8426 9.53424 21.5644 9.86152 20.1046 9.5869C21.2581 8.86086 22.5665 8.64266 23.8864 8.44704Z" fill="#B3619B"/>
<path d="M14.8669 49.4068C14.7232 49.5272 14.5794 49.6438 14.4357 49.7642C13.2823 49.8131 12.2688 49.4594 11.3876 48.7146C11.5238 48.5792 11.6561 48.4437 11.7923 48.3083C11.9927 48.1014 12.2385 48.0675 12.5108 48.1089C12.8474 48.1879 13.1651 48.3309 13.4903 48.4512C13.9744 48.7259 14.7685 48.5754 14.8669 49.4068Z" fill="#C683A1"/>
<path d="M11.7431 13.7024C11.7129 15.0643 11.1418 15.5345 9.89006 15.2185C10.5103 14.7144 11.1267 14.2065 11.7431 13.7024Z" fill="#B4629B"/>
<path d="M34.8232 34.7278C34.1463 34.4569 33.4996 34.1522 33.337 33.1628C34.1803 33.2155 34.5169 34.171 35.2922 34.0845C35.2544 34.3854 35.1031 34.6036 34.8232 34.7278Z" fill="#B15D98"/>
<path d="M0.764657 35.2808C0.798693 34.8331 0.832729 34.3892 0.866764 33.9415C1.99373 34.6149 1.94835 35.6005 1.60421 36.6652C1.46428 36.7931 1.32436 36.9172 1.18065 37.0451C0.817602 36.5109 0.681458 35.9203 0.764657 35.2808Z" fill="#CC82A5"/>
<path d="M0.45077 28.7915C0.38648 28.784 0.32219 28.7802 0.2579 28.7802C0.382698 28.1068 0.238991 27.3657 0.757093 26.7901C0.844074 27.0798 0.931054 27.3657 1.01804 27.6554C1.58152 28.0654 1.1504 28.4115 0.949963 28.7727C0.787347 28.8818 0.62095 28.8931 0.45077 28.7915Z" fill="#C37DAE"/>
<path d="M4.18716 42.4397C4.22119 42.2478 4.25523 42.056 4.29305 41.8641C4.89056 41.8115 5.21201 42.1688 5.46161 42.6353C5.48808 42.8121 5.43136 42.9551 5.299 43.0679C5.18176 43.1959 5.06074 43.3238 4.94351 43.4479C4.54264 43.2222 4.27792 42.8949 4.18716 42.4397Z" fill="#D3A2B2"/>
<path d="M21.6135 31.7784C21.9388 29.3031 19.7643 28.2347 18.5087 26.7901C17.5746 25.7142 18.4482 25.2779 18.7696 24.9619C19.3369 24.4013 20.1386 24.5969 20.6227 25.3343C20.7891 25.5863 20.8647 25.9023 20.982 26.192C21.4698 26.034 20.9404 25.1763 21.7837 25.1951C22.3737 25.2064 23.4477 26.1431 23.4439 25.2365C23.4363 23.9311 24.8885 23.3179 24.5179 21.9335C24.291 21.0946 23.7275 20.7146 23.1716 20.6996C22.593 20.6846 22.4115 21.3579 22.5552 21.9975C22.8691 23.4044 22.2905 23.9236 21.0803 23.1035C20.0479 22.4 19.5449 23.9649 18.6486 23.3969C18.7016 22.968 20.305 22.1066 18.452 22.1291C16.7426 22.1479 17.7486 20.7034 17.1548 20.0864C16.6178 19.5296 17.4952 19.3716 17.9717 19.1008C18.573 18.7622 19.2651 18.5215 19.2235 17.4004C19.1856 16.3696 21.1522 15.7151 21.3337 15.7489C22.9901 16.0724 22.2867 14.7106 22.9485 14.0899C21.6476 14.4097 20.8156 14.8235 20.0176 15.5646C18.5427 16.9302 17.7372 15.7527 17.083 14.4887C17.7675 13.6611 17.6692 12.0547 19.3558 12.224C19.4806 12.0999 19.6016 11.972 19.7264 11.8478C20.4828 11.4603 21.2391 12.0133 21.9955 11.8478C22.3888 11.7876 22.3926 12.9162 22.5401 12.3256C22.9712 10.5989 24.3969 11.1293 25.3991 10.7192C26.1365 11.1594 26.9004 11.2534 27.7476 10.8208C27.237 11.7801 25.8642 11.4754 25.4974 12.6529C27.2408 12.7394 28.3905 11.3287 29.9372 11.0954C30.183 11.118 30.1225 11.7086 30.3154 11.4716C30.9318 10.723 31.4688 10.629 32.1079 11.3889C32.5542 11.9193 33.216 12.1525 33.7719 12.5325C33.8816 12.698 33.8702 12.8447 33.7152 12.9764C33.4391 14.0034 34.1085 14.7633 34.4715 15.6097C32.9097 15.2486 32.6828 16.8662 31.8205 17.502C31.2722 17.9083 32.2063 18.2544 32.5882 18.4011C34.4148 19.1008 34.4678 19.2964 33.0458 20.8162C32.8983 20.9705 32.7735 21.0607 32.9588 21.2488C33.2122 21.689 32.6412 21.7191 32.5807 22.005C32.5807 22.1291 32.5807 22.2533 32.5807 22.3774C32.3764 22.5655 32.1495 22.5918 31.8999 22.4827C31.8054 22.3398 31.6541 22.2457 31.5482 22.1066C31.5747 22.2834 31.7903 22.2871 31.8583 22.4414C32.0285 23.4082 30.9432 23.5662 30.6898 24.2546C30.4553 24.7662 29.3359 24.928 30.096 25.8384C30.9885 26.9068 31.5331 25.9287 32.384 25.2026C31.7411 27.1287 31.2117 28.7012 30.686 30.2737C30.1301 30.7439 30.807 32.0455 29.4569 31.9853C28.9615 31.5602 29.7254 31.2781 29.646 30.8869C27.6379 30.5934 27.5925 32.7076 26.337 33.7083C26.2689 32.5534 27.1311 31.5226 25.9777 30.6649C25.6298 30.4053 26.7756 30.458 26.7189 29.8448C26.1214 30.1157 25.5617 28.863 24.9907 29.7771C24.5028 30.5596 24.6276 31.47 25.0171 32.2449C25.592 33.3773 26.2008 34.5058 27.0442 35.5667C25.1571 34.3591 23.1716 33.3773 21.6135 31.7784Z" fill="#B25C99"/>
<path d="M38.2457 9.58314C38.4916 9.76748 39.0929 10.1249 38.518 10.2565C37.3419 10.5236 37.0469 10.9713 37.5877 12.0171C37.8449 12.5137 37.8865 13.0704 37.2209 13.172C36.6158 13.2623 36.733 12.5776 36.5969 12.2202C36.4192 11.7462 37.0394 11.1293 36.3549 10.7192C36.0183 10.6816 35.7347 10.5199 35.4472 10.3656C35.296 10.2941 35.1485 10.2114 35.0048 10.1286C34.7249 9.93676 34.3921 9.79005 34.3732 9.38376C34.7363 8.71038 35.3262 8.68404 35.9729 8.83828L35.9842 8.84205C36.7822 8.96995 37.7995 8.42071 38.2457 9.58314Z" fill="#B3619B"/>
<path d="M35.6023 9.95933C35.9653 10.1023 36.2149 10.3543 36.3586 10.7117C35.8973 11.2233 35.1636 11.5055 35.1749 12.3971C35.1825 12.8786 34.8346 12.9764 34.4678 12.5927C34.2295 12.3406 34.3165 11.8892 33.9232 11.7387C33.4769 11.7086 33.0534 11.8666 32.6147 11.8666C32.0815 11.8704 31.8697 11.4942 32.1079 11.1631C32.679 10.3656 33.2047 9.39128 34.4715 9.58314C34.7816 9.59067 35.0653 9.65462 35.2279 9.95933C35.3527 10.4371 35.4775 9.93676 35.6023 9.95933Z" fill="#B25C99"/>
<path d="M30.6898 24.2508C30.652 23.3743 31.552 23.0621 31.8205 22.3699C32.0739 22.3699 32.3235 22.3699 32.5769 22.3699C33.0307 22.415 33.5753 22.5128 33.5337 23.0433C33.4807 23.7054 32.9399 23.1298 32.6752 23.2427C31.9945 23.5323 31.3478 23.9085 30.6898 24.2508Z" fill="#B7679F"/>
<path d="M31.8432 32.1245C31.7071 31.7559 31.5709 31.391 31.4348 31.0223C31.7109 30.8192 32.2554 30.5521 32.2252 30.4279C31.9831 29.4498 32.6828 29.9276 32.9324 29.9991C33.3446 30.1157 33.2614 30.5032 33.0647 30.7514C32.6903 31.233 32.2554 31.6693 31.8432 32.1245Z" fill="#C588B2"/>
<path d="M39.0097 14.4736C38.658 15.4856 38.2647 16.4637 36.6271 17.1183C37.5272 15.8543 37.7163 14.7069 39.0097 14.4736Z" fill="#B973A4"/>
<path d="M31.8243 35.9165C32.3046 35.6908 32.2895 34.882 33.1441 34.9309C33.1593 35.9391 32.2592 36.3605 31.8281 37.0451C30.6482 36.6727 31.9415 36.2927 31.8243 35.9165Z" fill="#C076AD"/>
<path d="M38.2457 9.58314C37.4932 9.33486 36.7406 9.08657 35.988 8.83452C36.8616 8.41695 37.7352 8.14233 38.6088 8.82324C38.3252 9.00005 38.2571 9.27843 38.2457 9.58314Z" fill="#C077AC"/>
<path d="M30.6746 37.4138C30.1528 37.8727 29.6309 38.3279 29.0523 38.8396C28.7913 38.0119 29.7065 37.6922 29.5552 37.0451C30.0393 36.8345 30.5952 36.4094 30.6746 37.4138Z" fill="#BD71A8"/>
<path d="M41.2749 6.56985C41.6645 7.39747 41.6872 8.04076 40.5072 8.07461C40.4921 7.43885 40.5904 6.85575 41.2749 6.56985Z" fill="#BD71A8"/>
<path d="M32.5769 21.9975C32.1836 21.4896 33.008 21.5837 32.9551 21.2413C33.2916 21.3015 33.9194 21.1397 33.8438 21.6062C33.7341 22.2721 33.0193 21.8846 32.5769 21.9975Z" fill="#B7679F"/>
<path d="M35.3829 16.1063C35.3716 16.3922 35.1976 16.5765 34.9443 16.6179C34.585 16.6781 34.3127 16.49 34.3127 16.1289C34.3127 15.9558 34.256 15.5796 34.6531 15.621C34.9783 15.6549 35.2657 15.764 35.3829 16.1063Z" fill="#B25C99"/>
<path d="M39.0059 14.4699C39.0134 13.8492 39.3576 13.473 39.9891 13.093C40.2123 14.0786 39.7547 14.3796 39.0059 14.4699Z" fill="#BB72A6"/>
<path d="M34.4678 11.4641C35.0728 11.8403 34.5699 12.2165 34.4678 12.5927C34.2144 12.7168 33.9648 12.8447 33.7114 12.9689C33.7114 12.841 33.7114 12.7168 33.7076 12.5889C33.5753 11.9569 33.5828 11.419 34.4678 11.4641Z" fill="#B3619B"/>
<path d="M44.3004 14.4736C44.9092 14.8536 44.4214 15.2223 44.2852 15.5909C43.0826 15.1997 43.7444 14.8385 44.3004 14.4736Z" fill="#C57BAE"/>
<path d="M41.4905 13.5896C41.2938 13.7589 41.1804 13.9244 41.0405 13.9507C40.9346 13.9695 40.7984 13.8078 40.6774 13.725C40.7871 13.6159 40.8816 13.4466 41.0102 13.4128C41.1199 13.3789 41.2749 13.5031 41.4905 13.5896Z" fill="#BB72A6"/>
<path d="M34.4678 11.4641C34.2144 11.8403 33.9648 12.2165 33.7114 12.5927C33.0458 13.0742 32.471 12.3782 32.2819 12.145C30.9621 10.5161 30.4515 11.3437 29.9334 12.7657C29.9334 12.209 29.9334 11.6484 29.9334 11.0917C30.9848 10.3167 32.4785 10.3355 33.337 9.21824C33.9307 8.49595 34.6531 8.15361 35.5947 8.45457C35.7233 8.58247 35.8519 8.71038 35.9767 8.83452C35.4737 9.08657 34.9707 9.33486 34.4678 9.5869C33.511 9.91795 33.0345 10.7907 32.1874 11.3813C33.0496 11.8553 33.7795 10.5086 34.4678 11.4641Z" fill="#B15D98"/>
<path d="M43.3814 9.19567C43.2906 7.879 43.8201 7.2169 45.2269 6.70152C44.4441 7.63823 44.2739 8.54486 43.3814 9.19567Z" fill="#C381B1"/>
<path d="M35.5947 8.44704C34.8422 8.70285 34.0896 8.9549 33.337 9.21071C33.2122 9.20695 33.0874 9.20319 32.9664 9.20319C32.7433 8.22885 33.719 8.45081 34.0971 8.07838C34.498 8.00314 34.8951 7.92038 35.296 7.8489C36.0372 7.72476 35.6477 8.17242 35.5947 8.44704Z" fill="#BC70A8"/>
<path d="M34.0971 8.08214C33.8097 8.54862 33.1177 8.60881 32.9664 9.20695C32.7244 9.18438 32.4332 9.24081 32.2479 9.12795C31.9226 8.92857 32.1798 8.70662 32.3651 8.58624C32.8908 8.25142 33.4505 8.01442 34.0971 8.08214Z" fill="#B15D98"/>
<path d="M33.5639 7.64576C33.9459 7.07771 34.3808 6.9799 35.0577 7.01375C34.6795 7.80376 34.169 7.69466 33.5639 7.64576Z" fill="#C07BB0"/>
<path d="M43.9335 10.3431C44.0394 10.6101 44.1377 10.7493 44.134 10.8885C44.134 10.9826 44.0129 11.118 43.9108 11.1594C43.6423 11.276 43.5705 11.0578 43.5969 10.8772C43.6272 10.7343 43.7633 10.6026 43.9335 10.3431Z" fill="#B15D98"/>
<path d="M0.810038 28.6598C0.881892 28.325 0.949963 27.9902 1.02182 27.6554C1.16552 27.3996 1.30923 27.14 1.44916 26.8842C1.56261 26.6359 2.71605 26.7412 1.71388 26.113C2.43998 23.6978 4.12287 22.2984 6.5016 21.6401C7.60209 20.8915 8.574 21.1586 9.47406 22.005L9.53079 22.0238C11.9057 22.1555 13.7361 23.2539 15.1354 25.1274C16.8183 27.046 18.3007 29.0924 19.284 31.4624C19.5147 33.0876 20.2483 34.6187 20.1954 36.2965C20.4412 36.699 20.7097 37.094 20.687 37.5981C20.4601 38.4897 20.8572 39.5694 19.9042 40.2465C19.6319 40.3518 19.3558 40.3556 19.076 40.2691C18.244 39.6559 17.1246 39.2609 17.2569 37.7035C16.3985 39.1104 15.4493 39.0916 14.4811 38.1248C13.8874 37.5304 13.2634 37.6508 12.594 37.8765C12.1062 37.5567 12.0419 37.0489 11.9776 36.5373C11.9965 35.9203 11.9247 35.2996 11.9738 34.6864C11.2439 33.8249 11.2402 35.0325 10.8317 35.0852C10.1888 35.8601 9.49676 35.7397 8.782 35.198C8.58157 35.0475 8.85386 35.2281 8.66477 35.0664C8.44921 34.8783 8.19583 34.788 7.93867 34.6939C8.17692 34.8444 8.47946 34.8858 8.68746 35.0889C8.50593 35.8451 9.73501 35.5667 9.58374 36.304C8.76309 36.8232 8.50971 37.7147 8.11641 38.516C7.8895 38.911 7.21635 37.7147 7.07643 38.8696C6.98944 39.6032 7.19366 40.7506 5.95702 40.9387C4.76955 41.1155 3.79007 40.7581 3.15095 39.6822C2.63285 38.6778 2.11853 37.6734 1.60421 36.6689C1.35839 35.7623 1.11258 34.8519 0.866764 33.9453C0.847856 33.7384 0.825165 33.5277 0.806256 33.3208C0.537751 31.7634 0.518842 30.2097 0.810038 28.6598Z" fill="#FDF6C5"/>
<path d="M19.7151 40.0584C20.5584 39.3248 19.6092 38.0533 20.532 37.3423C22.0636 38.3129 20.7135 39.6258 20.9442 40.7506C20.9366 41.0327 20.9328 41.3111 20.9253 41.5933C21.0803 42.2065 21.1408 42.8197 20.8837 43.4216C20.7551 43.6849 20.6303 43.9482 20.5017 44.2116C20.3391 44.1025 20.2748 43.9407 20.2786 43.7564C20.2824 43.5833 20.2786 43.4065 20.358 43.241C20.2067 43.3651 20.2824 43.5796 20.1689 43.7188C20.0479 43.8655 19.8853 43.9219 19.6962 43.9106C19.4428 43.809 19.2613 43.6285 19.1478 43.3839C19.076 42.2328 19.4617 41.1569 19.7151 40.0584Z" fill="#F9E292"/>
<path d="M19.7189 43.8128C19.9231 43.5495 20.1273 43.2861 20.4223 42.9024C20.4525 43.4253 20.4752 43.8203 20.5017 44.2116C20.305 45.69 19.7302 46.9841 18.6032 47.9998C17.1624 48.7522 17.1624 48.7522 17.1548 47.5634C17.6578 46.781 18.3045 46.0812 18.6146 45.1784C18.8793 44.6404 19.0419 44.0159 19.7189 43.8128Z" fill="#F9D779"/>
<path d="M17.4612 47.5973C17.3855 49.0155 18.3461 47.5221 18.6032 47.9998C18.4671 48.2481 18.331 48.5001 18.191 48.7484C17.1132 49.1284 16.0165 49.403 14.8631 49.4068C14.3374 49.1735 13.808 48.9441 13.2823 48.7108C14.6664 48.2067 15.7934 47.3151 16.8977 46.3822C18.0625 46.3408 17.5368 47.0706 17.4612 47.5973Z" fill="#F7DD94"/>
<path d="M26.3067 36.3416C25.8416 38.5348 23.0204 36.9925 22.5779 39.0803C22.8691 38.2414 21.3828 36.304 24.0187 36.9962C24.5973 37.1542 25.7962 37.8577 26.3067 36.3416Z" fill="#B5629D"/>
<path d="M20.9442 40.7506C20.7513 39.622 21.1824 38.4182 20.532 37.3423C20.4336 36.9849 20.0328 36.7291 20.1954 36.2927C23.2284 37.316 21.3148 39.1631 20.9442 40.7506Z" fill="#B5629D"/>
<path d="M25.1344 41.0478C25.3008 39.607 26.4202 39.0051 27.116 38.1286C26.8588 39.2835 26.3483 40.2804 25.1344 41.0478Z" fill="#C079AD"/>
<path d="M26.0495 41.5368C26.5903 40.6528 27.1009 39.9531 28.1522 39.7725C27.74 40.8823 27.5509 41.044 26.0495 41.5368Z" fill="#BE71A8"/>
<path d="M23.546 41.0478C23.5006 40.1148 24.1095 39.6183 24.8696 38.6101C24.7713 40.017 24.1284 40.5174 23.546 41.0478Z" fill="#BA6EA4"/>
<path d="M24.0187 45.0016C23.9204 45.1332 23.7956 45.3326 23.6292 45.4869C23.6027 45.5132 23.391 45.3439 23.2662 45.2687C23.3947 45.0806 23.4893 44.8549 23.6557 44.7232C23.7956 44.6103 23.9771 44.6856 24.0187 45.0016Z" fill="#BF74AC"/>
<path d="M20.8837 43.4216C20.8988 42.8121 20.9101 42.2027 20.9253 41.5933C21.3904 42.2102 21.4055 42.8234 20.8837 43.4216Z" fill="#B5629D"/>
<path d="M15.1354 25.1274C13.3995 23.8558 11.5994 22.7009 9.53079 22.0238C10.533 22.178 11.2666 21.3918 12.1856 21.2639C12.3747 21.5047 12.5449 21.7793 12.9268 21.6175C13.4222 22.3737 14.0311 23.0207 14.8026 23.5022C14.916 24.0402 15.0257 24.5857 15.1354 25.1274Z" fill="#BA6FA3"/>
<path d="M19.352 12.2202C17.983 12.367 18.4633 14.3532 17.0792 14.4849C16.614 14.5564 16.4098 15.2862 15.6421 14.9251C16.3834 14.0749 17.2645 13.4165 17.828 12.4761C18.1419 11.9494 18.7129 11.498 19.352 12.2202Z" fill="#BF73AB"/>
<path d="M21.9917 11.8403C21.2354 13.1344 20.479 12.0886 19.7227 11.8403C19.8664 10.3619 21.2997 10.7907 22.2791 9.89914C22.0182 10.7832 21.466 11.2798 21.9917 11.8403Z" fill="#B3619B"/>
<path d="M13.7815 16.6819C13.8647 15.7376 14.3979 15.4367 15.0522 14.9664C14.969 15.8392 14.7837 16.4035 13.7815 16.6819Z" fill="#BF73AB"/>
<path d="M15.1845 23.4985C15.0597 23.0019 14.9312 22.5016 14.8064 22.005C15.1808 22.3172 15.5665 22.6107 15.9182 22.9455C16.1338 23.1524 16.3796 23.4909 16.0279 23.6941C15.8463 23.7957 15.4719 23.5737 15.1845 23.4985Z" fill="#BA6FA3"/>
<path d="M12.5373 19.7403C12.4768 20.2444 12.2272 20.9667 11.7507 20.6582C11.1645 20.2745 11.8036 19.7478 12.1591 19.3641C12.2839 19.4883 12.4087 19.6162 12.5373 19.7403Z" fill="#BA6FA3"/>
<path d="M24.3515 9.66967C24.015 10.2264 23.5271 10.3543 22.9372 10.4559C23.1603 9.69976 23.6822 9.63205 24.3515 9.66967Z" fill="#B3619B"/>
<path d="M9.91275 17.107C9.7993 17.2988 9.68963 17.4982 9.55726 17.6788C9.54592 17.6901 9.29632 17.596 9.28498 17.5321C9.20934 17.0731 9.56105 16.9076 9.89006 16.7345C9.89384 16.8587 9.9014 16.9828 9.91275 17.107Z" fill="#C47CB1"/>
<path d="M9.47406 22.005C8.48324 21.8846 7.49242 21.7605 6.5016 21.6401C6.28982 21.2225 5.35572 20.9216 6.18771 20.3573C6.38436 20.2256 7.07264 18.9766 7.50377 20.425C7.54536 20.5679 9.39087 21.0495 10.2342 20.1015C10.5027 20.346 10.4762 20.598 10.2682 20.8614C10.0035 21.2451 9.73879 21.625 9.47406 22.005Z" fill="#BA6FA3"/>
<path d="M1.71388 26.113C2.43242 26.1769 3.1207 26.271 2.98834 27.3394C2.45511 27.1814 1.95213 27.0309 1.44916 26.8842C1.53614 26.6246 1.62312 26.3688 1.71388 26.113Z" fill="#FCE99A"/>
<path d="M12.9268 21.6175C12.8777 21.9862 12.7945 22.4376 12.318 22.3022C11.6221 22.1066 12.3028 21.61 12.1856 21.2639C12.4919 21.2601 12.7566 21.3429 12.9268 21.6175Z" fill="#CD91BE"/>
<path d="M9.27363 19.4168C9.09589 19.556 8.92571 19.7779 8.71393 19.8306C8.4719 19.8908 8.43786 19.6237 8.54753 19.4958C8.69502 19.3227 8.92193 19.2174 9.11858 19.082C9.16018 19.176 9.20178 19.2701 9.27363 19.4168Z" fill="#C079AE"/>
<path d="M10.2682 20.8651C10.2569 20.6131 10.2455 20.3573 10.2342 20.1052C10.393 19.9058 10.6653 19.7027 10.8128 19.9435C11.1456 20.4889 10.6086 20.6432 10.2682 20.8651Z" fill="#C98BB9"/>
<path d="M5.29521 43.0717C5.30656 42.9701 5.30656 42.8648 5.299 42.7632C5.10612 42.0447 5.67717 41.7889 6.10829 41.4616C6.39949 41.2434 6.95541 41.2585 7.00835 40.8635C7.23526 39.1706 8.5967 39.2496 9.78039 38.975C11.0019 38.6928 12.0003 38.7041 13.0214 39.7161C13.5962 40.2841 14.969 39.5656 15.5816 40.6566C15.8123 41.0666 16.4855 41.2998 16.2661 41.8717C16.0732 42.372 15.4833 42.5676 15.003 42.5074C14.0803 42.3908 14.0765 42.7745 14.2429 43.478C14.345 43.9106 14.0689 44.3169 13.8344 44.6893C12.5146 46.7772 12.5146 46.7772 12.5297 48.376C12.2839 48.3534 12.0381 48.3346 11.7923 48.312C11.4065 48.0901 11.0208 47.8681 10.6313 47.6462C9.8409 46.3371 8.65342 45.5132 7.27308 44.9263C6.61505 44.3019 5.95702 43.6849 5.29521 43.0717Z" fill="#FDF6C5"/>
<path d="M7.27686 44.9188C9.14127 44.915 10.2455 45.8405 10.6351 47.6387C9.36061 46.9201 8.25255 45.9947 7.27686 44.9188Z" fill="#FBE7A7"/>
<path d="M12.5297 48.3685C12.1705 47.6876 12.2348 46.7132 10.862 46.6305C11.8225 45.705 12.8171 45.4003 13.4374 44.6028C14.2164 43.5984 13.9214 42.7971 12.7642 42.0221C14.0613 41.5858 15.0446 42.7407 15.9484 41.7287C15.6383 41.4014 15.245 41.0591 14.9425 40.649C14.5341 40.0923 14.1672 39.8026 13.6491 40.5061C13.0743 41.281 12.6621 40.9801 12.5827 40.2352C12.4465 38.9787 11.4217 39.1593 10.7447 39.1819C9.89762 39.212 9.11858 39.9267 8.16179 39.5468C8.08238 39.5167 7.76092 39.7838 7.77605 39.859C8.25255 41.9356 5.90786 41.6158 5.30278 42.7595C4.9662 42.4623 4.62962 42.1613 4.29683 41.8641C3.91865 41.1343 3.53669 40.4083 3.15852 39.6785C3.86571 39.528 4.16446 40.2841 4.87166 40.4534C6.48647 40.8371 6.54698 40.3255 6.53185 39.1179C6.52429 38.5311 7.05373 38.1624 7.37519 37.7147C7.60587 37.9781 7.84034 38.2376 8.07103 38.501C8.47568 37.7185 8.81604 36.8909 9.51188 36.2965C9.35683 35.8338 8.22608 36.0106 8.72528 35.1153L8.71393 35.1265C9.38708 35.1341 10.1283 35.5253 10.6653 34.7804C11.1494 34.6488 11.6372 34.3779 12.1251 34.7692C12.4087 35.2883 12.4352 35.8037 12.1024 36.3115C11.3612 37.0639 12.2915 37.3273 12.5373 37.7937C13.1764 36.1122 13.8798 37.1505 14.6551 37.6959C15.1051 38.0119 15.385 38.8095 16.2056 38.3768C16.9279 37.9969 16.3002 37.3611 16.5724 36.763C18.3726 37.1768 17.6805 39.3813 18.9739 40.0735C19.7907 40.7845 19.5789 41.6008 19.3067 42.4811C19.231 42.7294 18.5011 43.162 19.3369 43.4291C19.4617 43.557 19.5903 43.6811 19.7151 43.809C19.4579 44.3056 19.2008 44.8022 18.9436 45.3025C18.4179 45.8442 17.7524 46.1602 17.0716 46.4499C16.0922 47.6763 15.1959 49.0419 13.2785 48.7108C13.0327 48.5942 12.7793 48.4813 12.5297 48.3685Z" fill="#FCF7CB"/>
<path d="M0.810038 28.6598C0.810038 30.2135 0.810038 31.7634 0.810038 33.3171C0.015867 31.8612 0.613386 30.2962 0.454552 28.7915C0.568005 28.7463 0.689021 28.705 0.810038 28.6598Z" fill="#D0848F"/>
<path d="M24.6427 24.8377C24.5973 25.6804 25.3915 26.4177 25.0776 27.6403C24.3478 26.5945 24.1019 25.7895 24.6427 24.8377Z" fill="#B5629D"/>
<path d="M31.8205 22.3737C31.3932 22.2533 30.9848 22.8853 30.6255 22.494C30.4251 22.2796 30.6936 21.8808 30.9772 21.7567C31.5634 21.4934 31.76 21.8658 31.8205 22.3737Z" fill="#B7679F"/>
<path d="M20.4677 27.3055C20.4223 27.4071 20.3693 27.693 20.2786 27.708C19.9949 27.7494 19.8475 27.5124 19.7907 27.2566C19.7302 27.0008 19.7794 26.7224 20.0895 26.6999C20.4185 26.681 20.4298 26.982 20.4677 27.3055Z" fill="#B5629D"/>
<path d="M35.6023 9.95933C35.3905 10.3355 35.1863 10.7569 34.6379 10.55C34.5094 10.501 34.4488 10.2791 34.3543 10.1361C34.6455 10.076 34.9329 10.0195 35.2241 9.95933C35.3527 9.95933 35.4775 9.95933 35.6023 9.95933Z" fill="#B15D98"/>
<path d="M19.3407 43.4328C18.902 43.6021 19.144 44.3094 18.4066 44.4222C18.5163 42.9325 19.7718 41.597 18.9776 40.0772C19.2235 40.0735 19.4693 40.0659 19.7151 40.0622C20.305 41.2622 19.5563 42.3156 19.3407 43.4328Z" fill="#FBD681"/>
<path d="M9.5081 36.3003C9.34548 37.2445 9.00891 38.0684 8.06725 38.5085C7.90085 37.3498 7.93489 36.3266 9.5081 36.3003Z" fill="#FDCE5A"/>
<path d="M12.5335 37.79C11.8755 37.8727 11.5427 37.4251 11.225 36.9736C11.0473 36.7216 10.8771 36.4094 11.1343 36.1498C11.4897 35.7849 11.7809 36.225 12.1024 36.3078C12.4428 36.7479 12.6848 37.2106 12.5335 37.79Z" fill="#FDCC5A"/>
<path d="M9.68206 31.5828C10.1926 32.1471 10.4233 32.7565 10.0375 33.4337C9.88628 33.7008 9.57996 33.5917 9.43625 33.3622C9.05051 32.7227 8.95596 32.1095 9.68206 31.5828Z" fill="#FAB427"/>
<path d="M8.72528 35.119C7.95758 35.0927 7.13693 35.2168 6.33898 34.1936C7.51889 34.0055 8.33197 33.8889 8.71015 35.1303C8.71015 35.1265 8.72528 35.119 8.72528 35.119Z" fill="#FDCA47"/>
<path d="M12.1213 34.7692C11.6335 34.8632 11.1494 35.183 10.6615 34.7804C10.9376 34.4569 11.1683 34.0694 11.5049 33.8324C11.8377 33.5992 12.3671 33.3697 12.6318 33.8588C12.8323 34.2312 12.2688 34.4419 12.1213 34.7692Z" fill="#FED469"/>
<path d="M17.0754 46.4499C17.4612 45.6825 18.0473 45.2348 18.9474 45.3025C18.7621 46.2656 18.2099 46.9954 17.4574 47.5935C16.9657 47.3377 17.7334 46.6568 17.0754 46.4499Z" fill="#FCF1B0"/>
</svg>
