<svg width="46" height="56" viewBox="0 0 46 56" fill="none" xmlns="http://www.w3.org/2000/svg">
<path d="M2.11859 38.2346C1.77873 37.7468 0.648316 37.6192 1.41301 36.6285C2.26635 36.5722 1.88216 35.3938 3.09754 35.3826C1.6679 34.8122 0.766529 34.3356 1.01773 32.9996C2.28113 32.3917 3.54084 31.7425 5.0185 32.0502C7.13525 33.0372 8.3026 35.5177 10.859 35.8479C11.2875 35.9042 11.5793 36.362 11.9081 35.5927C12.115 35.1086 12.6321 35.5064 12.9462 35.8404C13.3156 36.2382 13.4818 36.8161 14.0359 37.1163C13.6554 36.4746 13.0348 36.043 12.8575 35.3188C12.9388 34.9698 13.2343 34.7934 13.4375 34.542C13.7626 33.9078 13.4116 33.3899 13.1382 32.8795C12.8279 32.3054 12.9757 31.9939 13.6 31.8776C15.3695 32.0277 16.9912 32.7745 18.7016 33.1685C20.8516 33.8365 23.0681 34.268 25.1627 35.1236C25.9902 35.4764 26.4963 36.1519 26.899 36.9249C27.2093 37.6755 27.7412 38.3547 27.6304 39.2441C26.4372 39.6719 25.2329 40.1447 24.2687 38.8838C24.3648 39.6906 25.7501 40.565 24.0138 41.1955C23.5631 41.2593 23.1198 41.2292 22.6876 41.0829C22.4364 40.9891 22.2111 40.8502 21.9931 40.6964C21.2358 39.5893 20.3677 39.2966 19.0932 39.9758C18.3766 40.3549 17.4309 40.0959 16.6108 40.3211C15.6761 40.3211 14.7858 40.171 14.0396 39.5068C14.2354 39.882 14.675 40.0059 14.8893 40.3586C15.2624 40.899 14.0175 41.4056 14.8597 41.9497C15.5801 42.4151 18.0958 42.4676 18.3655 41.9235C18.6536 41.3456 19.0378 41.1092 19.5993 41.0228C20.1534 41.0454 20.4822 41.4994 20.9255 41.7358C23.0866 42.3513 23.227 42.7641 21.9414 44.6517C21.6311 45.1057 21.3097 45.5448 20.859 45.8675C19.0378 46.6969 18.1106 46.5205 16.825 45.0945C15.0925 43.1731 13.7256 43.1431 11.9376 44.9894C9.8837 45.117 8.37648 44.0663 7.04289 42.644C6.94685 42.4901 6.88405 42.325 6.8508 42.1449C6.79169 41.7058 7.8002 41.0228 6.63284 40.8615C5.86815 40.7564 7.20174 39.4955 5.86815 39.7094C4.90398 39.8633 4.85226 38.6549 4.33508 38.122C4.00261 37.7805 3.39677 37.7242 3.13818 38.4222C2.75768 38.5686 2.43629 38.4072 2.11859 38.2346Z" fill="#80AC3B"/>
<path d="M1.47581 23.6405C1.00295 22.8449 1.10639 21.9518 1.11378 21.0924C1.11747 20.5708 0.844106 19.839 1.44256 19.5913C1.71223 19.4787 2.23311 19.9816 2.69488 20.2368C3.29702 18.8671 3.28225 17.5048 3.07907 16.0338C2.76137 13.7522 3.09385 13.4595 5.18474 13.3731C5.21798 13.452 5.25123 13.5308 5.28817 13.6133C5.11455 14.2175 4.3868 14.165 4.08388 14.6903C5.55046 14.0636 5.47657 15.925 6.43705 16.1314C6.38903 18.1503 5.47288 19.7227 4.12082 20.9911C4.60475 20.7134 5.25862 20.8973 5.86815 20.7622C6.2819 21.0399 6.57743 20.9573 6.73628 20.4582C8.14745 20.7959 9.41824 20.0529 10.7703 19.9103C11.2838 19.9478 11.7345 20.1918 12.211 20.3456C13.2047 21.0849 14.579 20.8109 15.5394 21.6365C15.798 21.8167 16.0455 22.646 16.3263 21.6478C16.7659 21.3326 17.2277 21.659 17.6673 21.539C17.1981 21.6328 16.5923 20.2218 16.2524 21.7153C16.0086 21.8955 15.7796 21.8729 15.5616 21.6666C14.7563 20.6909 13.3784 21.1825 12.4844 20.4244C11.9007 20.0642 10.9439 20.0942 11.0732 19.0059C11.6975 18.8408 12.3181 18.9646 12.4881 17.8764C12.6469 16.8781 13.5889 17.2309 14.2428 17.7187C14.7267 18.3529 15.4397 18.2028 16.0899 18.2854C17.6821 18.488 19.0674 18.9909 19.5402 20.7884C19.8468 22.0005 20.7593 22.9687 20.8886 24.2559C20.8184 24.7437 20.6411 25.1415 20.279 25.528C19.4663 26.4062 19.5107 26.4437 18.4098 26.3912C17.3053 26.0797 16.1675 25.8545 15.1811 25.2016C16.3485 25.9296 17.6747 26.1885 18.9639 26.5788C20.0906 26.9203 21.3836 27.0554 22.0042 28.3388C21.6828 29.4834 20.6374 29.322 19.8801 29.6147C19.6104 29.4458 19.7803 29.975 19.7766 29.7273C21.1028 29.9112 20.8369 30.9657 20.9071 31.84C22.3736 32.0164 22.115 29.8999 23.4339 29.8624C24.6418 31.0032 25.1295 32.5418 25.6614 34.0504C25.824 34.5082 25.8979 35.0486 25.2514 35.285C23.323 34.6996 21.4464 33.9303 19.4552 33.5663C19.2964 33.495 19.1449 33.4012 19.0046 33.2961C17.9665 32.1665 15.9606 32.4142 15.3289 30.658C15.2956 30.5679 14.7969 31.0445 14.4164 30.9169C12.791 29.9449 12.1297 28.4476 12.1445 26.5901C12.9757 25.8846 11.7271 25.8808 11.7677 25.4492C11.6052 25.3367 12.126 24.9501 11.631 24.9952C10.1681 25.1303 8.91952 24.3535 8.01815 23.4979C6.99487 22.5259 6.15999 22.586 5.08869 22.9988C4.92615 23.055 4.75621 23.0926 4.58628 23.1151C4.324 23.4491 3.72924 22.267 3.47804 23.5316C3.23053 24.77 2.18139 23.8281 1.47581 23.6405Z" fill="#82AD3D"/>
<path d="M10.2864 1.43965C10.7962 1.81492 11.3059 2.18643 11.8157 2.5617C12.3736 2.70805 12.9609 2.80937 13.201 3.46234C14.0138 3.90891 14.6713 4.79078 15.7796 4.38925C15.8498 4.36298 15.9421 4.40051 15.9495 4.41927C17.0799 6.69714 18.4652 4.64818 19.7286 4.64818C20.2273 4.83206 20.3012 5.22234 20.2125 5.68767C19.4368 6.38942 20.1165 6.5733 20.6115 6.82098C20.7556 6.93356 20.8443 7.07991 20.8886 7.25629C20.6485 9.50039 20.0352 11.6094 18.794 13.5045C18.1808 14.0862 17.4863 14.5102 16.6514 14.6791C15.4656 14.225 15.5986 12.9416 15.0629 12.0785C15.1109 11.9096 15.2107 11.782 15.3621 11.7032C16.4888 11.3054 15.3437 10.994 15.3141 10.6412C14.9484 9.56418 15.3732 8.43838 15.0851 7.35761C15.1737 7.71787 15.1848 8.08188 15.1774 8.44964C15.17 8.88495 15.2254 9.43659 14.7821 9.60922C14.1357 9.86064 14.0212 9.20017 13.7773 8.80239C13.6591 8.611 13.5594 8.3971 13.371 8.32955C13.866 8.90747 14.2022 9.62047 14.5383 10.3372C14.7083 11.7858 15.7648 12.9904 15.6577 14.5177C13.9251 15.0468 12.8021 13.9586 11.6421 12.9604C11.1323 12.5213 10.6151 12.0897 10.2273 11.5268C9.93172 10.9827 9.77287 10.2997 8.98971 10.2247C8.82717 10.1609 8.68679 10.0633 8.56489 9.93945C7.95535 8.4684 7.9221 6.94107 8.1142 5.39121C8.25827 4.06277 8.40234 2.73807 8.54272 1.40963C10.1349 1.60477 9.13748 2.97074 9.48104 3.6162C9.82459 2.95948 9.00449 1.84118 10.2864 1.43965Z" fill="#7AA63A"/>
<path d="M1.47581 23.6405C1.66051 23.419 1.2283 22.9049 1.82675 22.8824C1.82306 23.9632 2.63946 24.0345 3.15295 23.6292C3.81051 23.1113 2.69118 22.6422 2.78354 21.8692C3.5002 22.1844 3.97305 23.0475 4.84118 22.8036C5.11455 23.3815 5.58001 23.7268 6.19324 23.8994C5.76472 23.4941 5.15888 23.3252 4.84487 22.7999C6.00853 22.2107 6.96162 21.4451 8.17331 23.1263C8.78654 23.9782 10.2457 24.6987 11.6236 24.6612C12.7171 24.6312 12.0928 25.0702 11.8601 25.4192C11.4426 25.6782 10.955 25.5356 10.5154 25.6594C9.82829 25.7645 9.1892 25.5768 8.53533 25.3817C7.84453 25.1753 7.1057 24.9689 6.54788 25.7119C6.52202 25.8733 6.48508 26.0309 6.45183 26.1885C6.34839 27.4231 6.78061 28.305 8.09203 27.7797C9.20397 27.3368 9.56231 27.7609 9.76549 28.6728C9.84676 29.0406 9.8837 29.6222 10.279 29.4383C12.0706 28.5902 12.9572 30.6542 14.446 30.6767C14.9558 30.4778 15.484 29.656 15.9126 30.8193C16.4815 32.3654 18.4578 31.6974 19.2447 32.9358C18.0699 33.6113 17.0023 32.872 15.9421 32.5868C15.074 32.3542 14.2096 32.0389 13.3451 31.765C12.0115 31.3597 11.4168 32.7032 10.4046 33.0597C10.2346 33.0822 10.0758 33.0522 9.92433 32.9696C9.24092 31.9902 8.50209 32.3992 7.73001 32.8533C8.02923 33.1535 8.42081 33.1948 8.73112 33.3824C8.87889 33.465 9.00449 33.5775 9.11162 33.7051C9.73963 35.3413 11.0843 33.9415 11.9931 34.3994C12.4327 34.5119 12.8316 34.6808 12.9646 35.1837C13.6702 35.998 14.3721 36.8086 15.2402 37.8105C13.3082 38.0882 13.0976 36.4596 12.3292 35.679C11.4205 36.0881 12.3699 36.711 12.1704 36.9699C9.29263 35.9905 6.75844 34.5457 4.84487 32.174C4.82271 32.0915 4.80424 32.0089 4.78207 31.9264C5.07761 31.4573 5.56893 31.4798 5.98637 31.416C5.46919 31.1646 4.66386 32.1928 4.27967 31.0632C4.27967 30.8981 4.31292 30.7405 4.37941 30.5904C4.61214 29.7273 3.7514 29.6935 3.39677 29.2845C2.98302 28.8041 1.9856 28.4701 2.29221 27.8172C2.69488 26.9653 3.38938 28.0198 3.98414 27.9635C4.09496 28.0761 4.28336 28.0986 4.33508 28.2825C4.37202 28.0649 4.11343 28.1549 4.05802 28.0123C3.60733 27.7984 3.13818 27.4719 2.69857 27.4757C1.12856 27.4982 1.64943 26.5976 1.88216 25.787C1.31696 25.1603 1.47581 24.3835 1.47581 23.6405Z" fill="#7BA638"/>
<path d="M31.9009 5.96912C33.8033 6.25433 33.7849 7.99557 34.3464 9.29774C33.9437 9.97322 34.6161 10.8664 33.8403 11.5118C33.4561 11.8346 33.9696 12.1273 34.1617 12.4087C34.4757 12.8703 35.1813 13.208 34.6604 13.9511C34.0176 14.2588 33.5189 13.9736 33.083 13.5683C33.3194 14.2588 33.4302 14.908 32.4402 15.1069C32.0893 14.4539 31.6829 15.0168 31.2987 15.0581C30.5008 14.7954 29.81 14.0411 28.8458 14.9493C28.3064 15.4596 27.7449 14.8742 27.4309 14.2775C27.3164 13.0767 26.4815 11.6732 28.3101 11.009C28.6722 10.9189 29.0785 10.9677 29.3777 10.6787C28.9714 9.85689 28.5724 9.05382 29.8358 8.6035C30.135 8.49842 30.1609 8.1194 30.1572 7.80418C30.1535 7.63531 30.1905 7.4777 30.2533 7.32384C30.7224 6.7722 31.0955 6.10047 31.9009 5.96912Z" fill="#82AF40"/>
<path d="M33.6888 46.1265C33.6556 46.3591 33.6223 46.5918 33.5891 46.8245C33.2788 47.9015 32.8207 47.8452 32.2592 47.0046C31.5832 44.419 32.5732 42.1599 33.6186 39.9158C34.0139 39.4505 34.5606 39.1165 34.8118 38.5161C34.5717 38.8951 34.3205 39.2591 33.8957 39.4505C33.7036 39.428 33.5669 39.3266 33.4783 39.154C33.8735 37.0525 34.3501 34.9848 35.6356 33.2173C35.9386 33.1798 36.1454 33.3374 36.3154 33.5663C36.5961 34.1367 36.2636 35.1799 37.1244 35.255C38.1292 35.3413 38.2142 34.0354 38.9234 33.5775C39.6881 33.48 39.8876 32.5718 40.5858 32.3804C41.5057 32.6093 41.5574 31.3372 42.3368 31.3259C42.5178 31.3597 42.6398 31.4685 42.7099 31.6374C42.7949 32.7557 42.4514 33.7276 41.7347 34.572C41.465 34.9097 41.1916 35.2437 40.8259 35.4801C40.294 35.7541 39.8507 36.0693 40.1314 36.7898C39.3557 38.6324 37.6416 39.4355 36.1565 40.49C35.6356 40.8615 34.7897 41.0454 35.414 41.991C35.5174 42.1336 35.5765 42.2912 35.6061 42.4601C35.5285 42.9179 35.2182 43.3082 34.8783 43.4508C33.6076 43.9799 33.6334 45.0307 33.6888 46.1265Z" fill="#80AC3C"/>
<path d="M39.1857 15.3245C41.8751 14.6678 41.9822 14.7616 42.1595 17.8951C42.1854 18.3905 42.2777 18.8971 42.2112 19.3812C42.0339 20.6158 42.7986 20.6271 43.6298 20.597C44.2652 21.8842 43.1089 23.1076 43.5042 24.3872C43.434 24.5561 43.3232 24.6799 43.1643 24.7663C42.2593 24.1321 41.6682 25.8545 40.9515 25.1828C40.3715 24.6387 40.3568 23.5917 39.5293 23.1001C38.916 22.7361 39.1118 22.3045 39.6216 21.963C40.6597 21.6628 39.6733 20.901 39.9467 20.4807C39.8765 20.9123 40.0391 21.4451 39.6992 21.8842C38.4173 22.3495 38.6612 21.2688 38.5688 20.6608C38.3952 19.5313 38.6575 18.3004 37.7302 17.3735C37.6268 17.2346 37.5677 17.0808 37.5566 16.9082C37.612 16.4729 37.8337 16.1389 38.1477 15.8537C38.4432 15.5797 38.8274 15.4746 39.1857 15.3245Z" fill="#7DAC3E"/>
<path d="M19.0267 50.5171C17.9776 49.7516 17.091 50.7535 16.1157 50.7985C15.4249 50.8286 14.6011 51.3014 14.5679 50.003C14.5531 49.4851 14.1172 49.5264 13.7478 49.5377C13.4449 49.5489 13.1419 49.5789 12.839 49.5789C10.0241 49.5789 10.0241 49.5789 9.89848 47.256C9.82459 46.7869 9.36652 46.3779 9.6953 45.845C9.90217 45.5073 10.3455 45.102 10.5523 45.2896C12.1704 46.7682 14.3943 45.9764 16.1379 46.9033C16.5443 47.0571 16.9986 47.1547 17.3865 47.0496C19.5402 46.4717 19.8357 48.7608 21.1065 49.5452C21.5055 49.7928 21.1139 50.3482 20.6485 50.4721C20.1202 50.6184 19.5698 50.5922 19.0267 50.5171Z" fill="#80AC3F"/>
<path d="M11.8601 44.9331C12.3108 43.4245 14.2132 42.8091 15.7907 43.2106C16.9617 43.5071 17.0614 44.5503 17.6894 45.1733C18.6979 46.1715 19.6104 46.1302 20.7186 45.6799C20.8147 45.6724 20.9144 45.6649 21.0105 45.6574C22.4623 45.5411 23.9141 45.421 25.3548 45.7662C25.8018 45.9501 26.1934 46.224 26.6847 46.3516C28.5503 46.8395 28.6315 47.1397 27.4826 48.7421C27.0504 49.2487 26.5369 49.624 25.8794 49.7591C24.5753 49.9617 23.7331 49.6014 23.7294 48.0628C23.7257 47.0346 23.1494 46.6894 22.1926 46.937C21.0844 46.9521 19.9761 46.9483 18.8679 46.9558C17.8187 46.922 16.7659 47.0346 15.7242 46.8095C14.7895 46.6181 13.8254 46.5393 12.9388 46.1302C12.4216 45.8863 11.7308 45.7925 11.8601 44.9331Z" fill="#85B240"/>
<path d="M32.5658 47.1772C33.1162 47.6801 33.2899 47.0534 33.5928 46.8207C33.4635 49.4213 35.1295 51.0237 36.7734 52.6036C37.4347 53.2378 38.2585 53.6919 39.0121 54.2247C39.4997 54.57 40.2275 54.8252 39.6216 55.6245C39.0527 56.375 38.4986 55.8271 38.0516 55.4744C36.5038 54.251 35.015 52.9713 33.988 51.2226C33.2344 49.9354 32.3552 48.7496 31.029 47.9916C31.5462 47.6576 31.0253 47.4437 30.933 47.1735C30.8554 46.7832 30.8776 46.3704 30.6411 46.0252C29.4849 44.0025 27.1945 43.7097 25.4878 42.5314C25.2735 42.3588 25.1147 42.1486 25.0519 41.8747C25.0814 41.5745 25.2588 41.4019 25.5211 41.3043C26.5406 41.1504 27.3644 41.7471 28.288 42.0586C28.4801 41.6495 28.0996 41.2518 28.2621 40.8502C28.3582 40.4937 28.5244 40.1822 28.8273 39.9608C29.0083 39.912 29.1783 39.9383 29.3408 40.0246C30.4786 41.5257 31.0327 43.3307 31.8639 44.9932C32.4734 45.6011 32.1705 46.5055 32.5658 47.1772Z" fill="#BDD369"/>
<path d="M19.9946 5.90908C19.9724 5.50004 20.05 5.05347 19.6178 4.78328C19.4996 4.66319 19.4294 4.51684 19.4072 4.34797C19.4146 3.89765 19.6326 3.55615 19.9613 3.27846C21.2949 1.31206 21.2949 1.31206 22.7948 2.89944C23.2196 3.34976 23.6518 3.79257 24.0766 4.24289C24.8229 5.03471 25.4287 5.65765 26.1934 4.12656C26.8509 2.80937 27.5898 3.32349 28.0663 4.43053C27.6193 6.05919 26.5369 6.97109 24.9337 7.28631C24.7637 7.22627 24.6197 7.12119 24.4941 6.98985C23.4375 8.85493 22.4106 7.65407 21.3651 6.97109C21.2691 6.90729 21.1398 7.02362 21.0733 7.14746C20.9329 7.18874 20.8221 7.15497 20.7297 7.04614C20.6078 7.04239 20.4859 7.03863 20.364 7.03863C20.0168 6.73467 19.9207 6.3519 19.9946 5.90908Z" fill="#82AC45"/>
<path d="M41.4096 34.4294C42.141 33.5663 42.2556 32.4667 42.5178 31.4273C42.6028 31.127 42.8097 30.8944 42.9611 30.6317C43.5227 29.6597 44.4868 29.4158 45.2885 29.8887C46.1566 30.399 45.1813 31.1345 45.0927 31.78C44.8821 32.2941 44.6494 32.797 44.4684 33.3186C44.3132 33.7689 43.1311 34.4106 44.7491 34.5983C45.3882 34.6733 45.0557 35.4614 44.8267 35.8291C44.147 36.9249 43.5337 38.1145 42.2038 38.5874C41.3209 38.8913 40.6264 38.4823 39.9578 37.9757C39.6401 37.1313 40.5082 36.8611 40.7705 36.2982C41.0624 35.6978 41.4872 35.1612 41.4096 34.4294Z" fill="#7BA839"/>
<path d="M35.5027 42.31C35.3771 42.3063 35.2515 42.3063 35.1259 42.3025C35.2773 40.5838 36.7328 40.1785 37.8854 39.4655C38.6427 39.4204 39.3593 38.3397 40.1647 39.3942C40.6966 40.0959 40.9441 40.7902 40.305 41.5557C39.8654 42.0548 38.9825 42.2537 39.3778 43.2782C39.6401 43.9574 38.9788 44.1 38.5503 44.2239C37.564 44.5091 36.5518 44.7192 35.5544 44.9594C35.1591 45.162 34.7084 45.2709 34.4018 44.9144C34.0028 44.4528 34.6198 44.2201 34.7232 43.8749C34.8931 43.2894 36.0014 43.2031 35.5027 42.31Z" fill="#7CA93D"/>
<path d="M22.5731 46.4342C23.8476 46.0477 24.0877 47.1585 24.132 47.864C24.2133 49.1174 24.882 49.5301 25.8831 49.7591C25.0334 50.1531 24.3094 51.1888 23.19 50.0555C22.9758 49.8379 22.0042 50.5096 21.3614 50.5846C20.5967 50.6785 19.7619 51.7442 19.0267 50.5171C19.651 50.3332 20.2717 50.1531 21.04 49.9279C20.3862 49.1361 18.4578 49.4101 19.2262 47.6576C18.9344 47.6238 18.6425 47.605 18.3544 47.56C17.5454 47.4324 16.6514 47.8827 15.9236 47.1922C15.9827 47.1284 16.0419 47.0646 16.101 46.9971C17.6451 46.8582 19.2225 46.3254 20.6632 47.3986C20.7851 46.0289 22.0485 46.9896 22.5731 46.4342Z" fill="#7DA73E"/>
<path d="M39.1857 15.3245C38.9419 15.5647 38.6981 15.8049 38.4543 16.0413C37.8854 14.7579 37.9223 13.2718 37.1687 12.0485C37.0062 11.7858 36.9175 11.4593 36.5112 11.5794C36.3966 11.6131 36.3228 11.722 36.2784 11.8458C36.1491 12.2023 36.3043 12.2999 36.622 12.51C38.4099 13.6921 38.4173 14.4839 36.7476 15.7298C36.6959 15.9963 36.5333 16.1539 36.2932 16.2477C34.653 16 34.1765 15.2345 34.7564 13.7859C34.2836 12.9078 33.4598 12.3674 32.599 11.5156C34.3685 11.5981 33.493 9.86815 34.3427 9.3015C34.7786 10.2247 35.2367 10.9564 36.3597 10.0145C37.2722 9.24896 37.5972 10.0783 37.9925 10.735C38.8385 12.1498 38.6612 13.831 39.1857 15.3245Z" fill="#77A137"/>
<path d="M19.5772 4.30294C19.5919 4.4643 19.603 4.62567 19.6178 4.78703C19.2077 5.03471 18.6241 5.18106 18.4135 5.54507C17.5601 7.04614 16.9912 6.26183 16.3891 5.3762C15.7426 4.42302 14.5716 5.19607 13.8254 4.56187C13.5114 4.29543 12.5952 4.54686 13.0533 3.6237C13.6222 2.95573 13.7663 2.02131 14.4201 1.40963C14.9188 0.756661 15.3769 0.599049 15.9901 1.34208C16.4851 1.93875 17.1353 2.40784 17.7153 2.93696C18.4061 3.29722 19.1117 3.63121 19.5772 4.30294Z" fill="#7AA23C"/>
<path d="M11.8601 44.9331C12.839 46.0702 14.2354 46.149 15.5505 46.4379C15.702 46.5843 15.9163 46.6443 16.0492 46.817C16.0862 46.9671 16.0492 47.0872 15.9236 47.1772L15.9199 47.1885C14.7526 46.8995 13.4855 47.0084 12.4216 46.3366C11.8712 45.9876 11.7529 46.3028 11.5239 46.7119C11.4168 46.9033 11.0474 47.1359 10.7851 46.7231C10.5671 46.3817 11.1249 45.5486 10.3196 45.6649C9.25939 45.8188 10.5302 46.847 9.89109 47.256C8.59813 46.7794 7.102 46.9896 5.94204 46.0589C5.79427 45.77 5.9679 45.5898 6.1563 45.4172C6.89513 44.9631 7.30887 44.374 6.92468 43.4583C6.87296 43.3007 6.83602 43.1431 6.81016 42.978C6.79539 42.719 6.8508 42.4826 7.04659 42.3025C8.43928 43.5934 10.1017 44.359 11.8601 44.9331Z" fill="#79A438"/>
<path d="M24.7859 7.03863C26.1712 6.54703 27.1465 5.52631 28.0626 4.43053C28.1956 4.55437 28.3286 4.67445 28.4616 4.79829C29.4369 5.37245 30.4417 5.92409 30.3641 7.32009C30.3493 7.4777 30.3382 7.63531 30.3235 7.79292C29.2817 7.53774 28.9566 8.59224 28.3582 9.03506C27.442 9.71054 26.7992 9.77809 26.0345 8.98252C25.787 8.89996 25.5506 8.79864 25.329 8.65979C24.8746 8.21322 24.3241 7.80043 24.7859 7.03863Z" fill="#779E3C"/>
<path d="M4.10235 28.0498C3.58886 27.9748 3.07168 27.9035 2.14814 27.7684C3.29333 28.6278 4.18731 29.1944 4.952 29.9037C5.9014 30.7818 4.94462 30.6129 4.47176 30.6767C3.49651 29.7573 2.52125 31.0745 1.546 30.673C1.99668 29.626 0.962319 29.1644 0.633539 28.4476C-0.323246 26.3724 -0.230893 26.0722 1.88586 25.7982C1.60141 27.5845 3.57039 27.0892 4.10235 28.0498Z" fill="#85AF41"/>
<path d="M45.0964 31.7838C45.1739 31.2584 45.2552 30.7293 45.3217 30.2714C43.8145 29.2807 43.5411 31.2321 42.5178 31.4273C42.2186 29.5922 41.0956 27.5733 43.6187 26.3724C43.7997 26.3799 43.9438 26.4587 44.0583 26.5976C44.2726 27.4419 43.4081 29.1006 45.5397 28.5077C45.9165 28.4026 46.0679 29.1531 45.9719 29.5734C45.7946 30.3502 45.7465 31.1983 45.0964 31.7838Z" fill="#82B042"/>
<path d="M8.10681 5.39121C8.37279 6.94107 8.64246 8.49467 8.90844 10.0445C9.02666 10.3522 8.84934 10.5136 8.62399 10.6525C7.97013 10.8964 7.19805 10.6374 6.60329 11.1478C6.48138 11.2454 6.35948 11.343 6.24496 11.4443C5.67236 11.9922 6.42597 13.2456 5.21429 13.4444L5.18104 13.3769C5.20321 12.3862 5.14779 11.3842 5.26601 10.4048C5.35467 9.69553 4.90767 8.16068 6.64762 9.20393C7.17958 9.5229 7.29779 8.83616 7.39753 8.43838C7.64874 7.42516 7.87039 6.40819 8.10681 5.39121Z" fill="#83B048"/>
<path d="M40.3014 41.5557C40.2644 39.4355 40.0982 39.2929 38.0775 39.6681C38.2474 38.5836 38.8939 37.9944 39.9356 37.8068C40.6929 38.0695 41.4502 38.3284 42.2112 38.5911C42.673 40.3098 42.1152 41.3493 40.3014 41.5557Z" fill="#80AE41"/>
<path d="M2.11859 38.2346C2.53233 38.2158 2.94977 38.1971 3.36352 38.1821C4.08388 38.5648 4.71188 39.0001 4.43852 39.9946C4.24273 40.7076 4.74513 41.1091 5.14041 41.5557C5.56523 42.235 5.5209 42.8016 4.7673 43.2069C4.21687 42.963 3.65166 42.7491 3.1197 42.4676C2.47323 42.1261 1.70484 41.6983 1.7344 40.9103C1.77134 39.897 2.92761 40.854 3.31549 40.186C3.24531 39.3529 2.37349 38.9814 2.11859 38.2346Z" fill="#85AE46"/>
<path d="M1.546 30.673C2.52125 30.5829 3.5002 28.5414 4.47176 30.6767C3.96936 31.3372 4.67864 31.6862 4.84118 32.1778C3.55931 32.1778 2.49909 33.2923 1.14703 32.9321C0.755446 32.9396 0.60768 32.7219 0.692646 32.3654C0.75914 32.0802 0.98079 32.0239 1.24307 32.1177C1.34651 31.6336 1.44625 31.1533 1.546 30.673Z" fill="#7CA63B"/>
<path d="M31.0697 47.1772C31.2359 47.3386 31.5167 47.4887 31.5425 47.6688C31.5868 47.9915 31.21 47.8865 31.029 47.9916C29.7656 47.8339 28.5798 48.0666 27.4863 48.7383C27.7708 47.2785 27.7708 47.2785 26.0124 46.7569C25.6725 46.6556 25.5802 46.3854 25.5321 46.0739C27.4051 45.1808 29.2965 45.5561 31.0697 47.1772Z" fill="#80A73E"/>
<path d="M1.24307 32.1177C0.877353 32.3504 0.707422 32.6056 1.14703 32.9358C1.34282 34.1367 1.71593 35.0749 3.26747 34.1892C3.33397 35.7053 2.50647 36.2757 1.40931 36.6322C2.12967 36.1031 1.7344 35.6415 1.36868 35.1199C0.917989 34.4782 0.415584 33.829 0.153299 33.1009C-0.197645 32.099 0.00922728 31.446 1.24307 32.1177Z" fill="#8DB34D"/>
<path d="M35.5027 42.31C35.7502 42.4901 36.8067 41.9122 36.1196 42.9555C35.8167 43.417 35.0741 43.5521 35.196 44.3477C35.2404 44.6292 34.3316 44.1376 34.701 44.813C34.7897 44.9744 35.2551 44.9181 35.547 44.9594C34.919 45.3347 34.11 45.4135 33.6888 46.1265C33.1384 45.1133 32.5621 44.1488 34.2245 43.5334C34.7269 43.3457 35.0815 42.7303 35.5027 42.31Z" fill="#87B643"/>
<path d="M10.2864 1.43965C9.41824 2.3553 9.92433 3.4811 9.93911 4.67445C8.3026 3.95394 9.9465 2.02506 8.53903 1.40963C8.48731 0.869242 8.35432 0.0736751 8.95647 0.00612704C9.7544 -0.0839371 9.95019 0.83922 10.2864 1.43965Z" fill="#84AE47"/>
<path d="M4.77099 43.2031C5.08869 42.6665 5.24384 42.1261 4.84118 41.5557C4.638 40.61 5.04805 40.4412 5.80535 40.8052C6.43705 41.1054 6.60698 41.8334 7.05767 42.3062C7.05767 42.5539 7.05767 42.8054 7.05767 43.053C6.68826 43.8674 6.04917 43.6272 5.43594 43.4883C5.16257 43.5184 4.91876 43.4808 4.77099 43.2031Z" fill="#80AC3B"/>
<path d="M43.2567 24.6724C42.6324 23.2427 43.3971 21.9442 43.6261 20.597C43.748 20.6045 43.8662 20.6083 43.9881 20.6158C44.3908 21.7941 44.0768 23.01 44.1654 24.2034C44.0842 24.7963 43.7812 24.9501 43.2567 24.6724Z" fill="#7BA839"/>
<path d="M5.43594 43.4883C5.97528 43.342 6.51833 43.1994 7.05767 43.053V43.0568C7.58224 44.1563 6.9136 44.9069 6.31515 45.6799C6.19324 45.8075 6.07133 45.9351 5.94943 46.0627C5.08869 45.7399 5.15518 45.1996 5.76102 44.7417C6.7843 43.9687 5.66128 43.8711 5.43594 43.4883Z" fill="#85AE46"/>
<path d="M43.2567 24.6724C43.5596 24.6687 43.833 24.6049 43.9955 24.3047C44.0731 24.3009 44.147 24.3009 44.2245 24.2972C44.2467 25.0702 44.4093 25.8508 44.0583 26.5938L43.9105 26.4925C43.2234 26.0647 42.6065 25.6031 43.2567 24.6724Z" fill="#82B042"/>
<path d="M44.2282 24.2972C44.1507 24.2972 44.0768 24.3009 43.9992 24.3047C43.9955 23.0738 43.9918 21.8429 43.9918 20.6121C44.7898 21.7941 44.4277 23.0513 44.2282 24.2972Z" fill="#82A744"/>
<path d="M11.8638 34.7972C11.5608 34.7559 11.136 34.5607 10.9772 34.6958C9.51428 35.9455 9.16703 34.9247 8.89367 33.6939L8.95647 33.6001L8.88628 33.6864C8.01815 33.6563 7.23868 33.4574 6.49247 32.159C7.81497 33.1685 9.23353 30.1326 10.013 32.9583C10.146 33.0559 10.2901 33.2623 10.3713 32.9133C11.0141 32.0202 11.7345 31.2696 12.9646 31.431C13.1715 31.6337 13.552 31.7462 13.3414 32.1703C13.4781 33.0447 14.8856 33.7389 13.7071 34.8047C13.0976 35.1912 12.4844 34.178 11.8638 34.7972Z" fill="#85B03E"/>
<path d="M25.159 35.1499C25.6134 33.8027 24.6308 32.8683 24.1985 31.7838C23.9473 31.1496 23.5927 30.5566 23.2824 29.945C22.6987 29.6673 22.4364 29.1306 22.2259 28.5602C22.0596 27.9823 21.7161 27.4832 21.5203 26.9165C21.3171 26.4212 21.0844 25.9296 21.2469 25.3704C21.8675 24.5148 22.0781 25.3479 22.4217 25.6594C22.7024 26.1397 22.8908 26.6801 23.227 27.1229C23.8587 27.9598 23.6814 26.8227 23.9621 26.7889C24.3685 26.4287 24.7453 26.3311 25.0556 26.9015C24.7416 29.8286 25.8905 32.3992 26.9913 34.9735C27.1132 35.4501 27.5122 35.8029 27.5713 36.3057C27.5602 36.4596 27.5122 36.6022 27.4235 36.7335C27.1723 36.8799 26.9027 36.9962 26.6219 37.075C26.1269 36.5722 25.8794 35.8291 25.159 35.5477C25.0667 35.4614 25.0371 35.3713 25.0667 35.285C25.0962 35.1949 25.1295 35.1499 25.159 35.1499Z" fill="#B5CE66"/>
<path d="M28.4283 40.8577C28.6685 41.4769 28.9123 42.0961 29.2595 42.9855C27.8631 42.4489 26.7808 41.7396 25.5284 41.552C25.0519 41.2555 24.1173 41.9347 24.0212 40.8202C24.4941 40.7677 24.6271 40.6251 24.3537 40.1259C24.0397 39.5555 23.8698 38.9063 23.7331 38.1595C24.7379 39.5105 26.234 38.76 27.4125 39.2253C28.3286 39.4017 28.421 40.1034 28.4283 40.8577Z" fill="#82B13D"/>
<path d="M7.05767 42.3062C6.30037 42.3138 6.16738 41.567 5.76102 41.1654C5.07022 40.4862 5.10346 41.3306 4.84118 41.5557C4.0728 41.4732 3.59256 40.6476 3.84745 40.3061C4.638 39.2553 3.39307 38.8951 3.36352 38.1783C2.93869 36.7335 4.2575 38.107 4.46438 37.4991C4.51609 37.3415 5.17365 37.4503 5.31403 37.9044C5.77949 39.4355 5.7758 39.4392 7.50097 38.9213C5.63173 40.5237 7.37906 40.8089 8.09573 41.4544C7.72631 41.8147 6.95054 41.5144 7.05767 42.3062Z" fill="#7AA43B"/>
<path d="M19.6178 41.1842C19.6363 41.6758 18.7386 41.2442 18.8568 42.1224C18.9344 42.719 18.0589 43.2482 17.187 42.9367C16.6772 42.7566 16.1342 42.5314 15.6133 42.5502C14.9742 42.5727 14.276 42.5126 13.9879 42.0473C13.4966 41.2442 14.6492 41.0454 14.8191 40.4299C16.4704 40.3323 18.2029 39.6981 19.6178 41.1842Z" fill="#7BA636"/>
<path d="M25.1738 41.9122C25.2957 42.0398 25.4176 42.1674 25.5395 42.2987C25.0778 43.0493 24.0914 43.0305 23.5705 43.6947C23.0903 44.2239 22.4771 44.6667 22.4734 45.496C21.9045 45.6536 21.3614 46.0214 20.7371 45.6949L20.7186 45.6799C20.9846 45.2746 21.2875 44.8918 21.5018 44.464C21.9229 43.6197 23.7663 42.2912 20.896 42.4263C20.8443 42.4301 20.7814 42.1111 20.7223 41.946C20.6078 41.0679 21.1989 40.9215 21.8417 40.8315C22.9241 41.2818 24.217 41.0641 25.1738 41.9122Z" fill="#87B341"/>
<path d="M21.838 41.1767C21.3023 41.1842 20.9255 41.4319 20.7223 41.9422C20.1534 41.9948 20.0057 41.4019 19.6141 41.188C18.0589 40.6363 16.4039 40.7451 14.8117 40.4337C14.1135 40.0697 13.419 39.7056 12.7208 39.3379C12.7614 39.2253 12.8058 39.1127 12.8464 38.9964C14.1209 39.3454 15.3954 39.6944 16.6699 40.0434C18.5132 40.0922 20.3936 39.6381 22.1889 40.4187C22.3256 40.5387 22.4586 40.6588 22.5953 40.7789C22.4364 41.0979 22.0227 40.9065 21.838 41.1767Z" fill="#9BBE50"/>
<path d="M11.8194 39.3379C9.27416 38.8388 6.87666 37.9381 4.60106 36.7073C4.67494 36.5009 4.74883 36.2982 4.82271 36.0918C7.19805 37.0262 9.57339 37.9644 11.9487 38.8988C11.9081 39.0452 11.8638 39.1915 11.8194 39.3379Z" fill="#78A333"/>
<path d="M22.1926 40.4224C20.3418 40.4524 18.4911 40.5162 16.6736 40.0471C18.0736 39.7094 19.4626 39.3191 20.8738 39.0527C21.8712 38.8575 21.2912 40.4112 22.1926 40.4224Z" fill="#7AA333"/>
<path d="M25.159 35.1499C25.159 35.2812 25.159 35.4126 25.159 35.5477C22.9499 34.9172 20.7408 34.2868 18.5317 33.6563C18.4985 32.9583 18.8679 33.0934 19.2705 33.2848C21.3282 33.5888 23.3119 34.1479 25.159 35.1499Z" fill="#A9C75E"/>
<path d="M28.4283 40.8577C28.0885 40.3136 27.7523 39.7694 27.4125 39.2253C27.1502 38.5048 26.8842 37.788 26.6219 37.0713C26.6219 36.4146 26.9655 36.4633 27.3903 36.6885C28.4727 37.5516 29.0231 38.6511 28.8421 40.0734C28.8384 40.4074 28.7497 40.7001 28.4283 40.8577Z" fill="#CEDD82"/>
<path d="M19.2705 33.2811C18.9787 33.3111 18.6906 33.3486 18.5317 33.6526C16.8028 33.1572 15.074 32.6619 13.3488 32.1703C13.2232 31.9226 13.0976 31.6787 12.972 31.431C15.1294 31.6449 16.9912 33.1422 19.2484 32.9358C19.2447 33.0522 19.2558 33.1685 19.2705 33.2811Z" fill="#9ABE54"/>
<path d="M21.838 41.1767C22.0005 40.8652 22.2924 40.8127 22.5953 40.7827C23.0718 40.7977 23.5484 40.8089 24.0212 40.8239C24.5236 41.0679 25.026 41.3118 25.5284 41.5557C25.4102 41.6758 25.292 41.7959 25.1738 41.916C24.0619 41.6683 22.9499 41.4206 21.838 41.1767Z" fill="#A9C85E"/>
<path d="M11.8638 34.7972C11.7899 34.4932 11.4574 34.0091 12.1962 34.2267C12.7134 34.3806 13.2084 34.6095 13.7108 34.8047C13.5483 35.1086 13.2675 35.1724 12.9609 35.1912C12.5989 35.0598 12.2332 34.9285 11.8638 34.7972Z" fill="#92B94B"/>
<path d="M4.21317 34.6095C4.48654 34.9172 4.58998 35.0336 4.69341 35.1499C4.58259 35.2475 4.4459 35.4389 4.36833 35.4163C4.23164 35.3788 4.06541 35.225 4.02847 35.0899C3.99522 34.9773 4.12451 34.8159 4.21317 34.6095Z" fill="#9ABF5D"/>
<path d="M14.0876 17.9289C13.5151 17.7413 12.7947 16.9119 12.7614 18.4505C12.7319 19.7302 11.6828 18.8596 11.1212 19.0434C9.49951 19.9065 9.04882 19.7639 8.33585 18.1616C8.40973 17.7863 8.69788 17.5987 8.97494 17.3998C9.32958 17.1821 9.4404 16.8256 9.48842 16.4316C9.98344 15.6885 11.0104 15.1482 10.194 13.9548C9.97605 13.6321 10.327 13.1367 10.7555 12.9153C12.8686 13.5308 14.7304 14.7091 16.7031 15.6398C17.1169 15.9325 17.3533 16.3603 17.5528 16.8068C17.7966 17.3547 18.2547 17.9702 17.8114 18.5106C17.3828 19.0322 16.8287 18.4805 16.3411 18.3529C15.5986 18.1578 14.7489 18.5556 14.0876 17.9289Z" fill="#7BA63C"/>
<path d="M6.31884 25.7945C6.52941 24.4398 7.57485 24.5148 8.35801 24.8563C9.15595 25.2053 9.97236 25.1866 10.7555 25.423C11.45 25.5205 12.1408 25.6256 12.2332 26.545C12.3846 27.0366 14.0285 27.2505 12.5029 28.0536C13.1493 28.928 13.7995 29.8061 14.446 30.6805C13.1974 30.8193 13.19 30.8231 12.2701 29.7798C12.0522 29.5322 11.8712 29.6748 11.6458 29.7498C10.146 30.2602 9.90217 30.1138 9.39238 28.6428C9.36652 28.5715 9.26308 27.2243 8.59813 28.0724C7.71892 29.1982 7.13525 28.4701 6.46661 27.9898C5.56523 27.3406 5.63912 26.5788 6.31884 25.7982C6.61068 26.0459 6.98748 25.9183 7.30887 26.0347C7.00965 25.8057 6.61807 26.0046 6.31884 25.7945Z" fill="#7EA939"/>
<path d="M5.2106 13.4407C5.7758 12.9641 5.57262 12.3036 5.57632 11.7145C5.58001 11.1215 5.75364 10.9076 6.31884 11.1628C6.47769 11.3692 6.39642 11.6169 6.42597 11.8458C6.49247 11.6019 6.48138 11.3692 6.31884 11.1666C6.74736 9.95446 7.73001 10.4498 8.54272 10.4198C9.42193 11.0653 10.508 11.4968 10.8553 12.6977C10.5523 13.1255 9.93172 13.2981 9.94281 13.9848C9.95019 14.4014 9.92803 14.938 9.35543 14.953C8.6166 14.9718 8.28413 14.4952 8.29152 13.7934C8.29152 13.8197 8.25827 13.7334 8.25827 13.7334C8.25827 13.7334 8.23611 13.8197 8.23611 13.8422C8.18808 14.1987 8.30999 14.5965 7.88886 14.7804C7.6081 14.9117 7.30518 14.9493 7.01334 15.0393C6.60329 15.1594 6.56265 15.5347 6.45552 15.8649C6.41489 15.925 6.37056 15.985 6.32623 16.0413C5.98267 16.2027 5.53199 16.3978 5.32142 16.03C5.00372 15.4709 5.14041 14.2475 4.01369 15.3733C3.98783 15.3996 3.58517 15.1444 3.48173 14.9493C3.28964 14.5853 3.52606 14.4577 3.86223 14.3038C4.34247 14.0937 4.7636 13.7372 5.2106 13.4407Z" fill="#7BA63C"/>
<path d="M10.7518 20.173C9.42932 20.507 8.20286 21.8917 6.73259 20.537C6.41858 20.5558 6.17846 20.7246 5.95312 20.9235C5.22537 21.9142 4.35355 21.0136 3.55561 21.0811C3.5002 21.0849 3.16773 20.7134 3.68122 20.492C5.5874 19.6664 5.55415 17.5987 6.31884 16.0413C7.2904 15.9212 7.40862 16.7093 7.6709 17.3472C8.11789 18.6194 8.71635 19.6814 10.3159 19.5651C10.6151 19.5463 10.8737 19.7677 10.7518 20.173Z" fill="#7BA738"/>
<path d="M22.5546 28.4514C22.7985 28.9505 23.0423 29.4458 23.2824 29.945C23.0829 30.2489 22.695 30.5641 22.7135 30.8531C22.7874 31.9601 21.6496 31.9189 21.2174 32.5643C20.9403 32.9771 20.279 32.1215 20.3234 32.0352C21.1693 30.4628 19.7877 30.0838 19.0156 29.3708C18.9122 29.277 18.9455 29.0293 18.8642 28.5414C20.0611 29.7123 20.9144 28.8079 21.838 28.3988C22.0966 28.2 22.333 28.2075 22.5546 28.4514Z" fill="#89B440"/>
<path d="M14.0876 17.9289C15.2661 17.9176 16.463 17.7525 17.9222 18.8671C17.3274 17.3622 16.9654 16.4428 16.2931 15.6735C15.835 15.4296 15.5284 15.0919 15.5912 14.5215C15.0851 13.133 14.5827 11.7482 14.0766 10.3597C15.0777 10.4048 15.3547 10.994 15.2107 11.9059C15.6872 12.7915 16.1638 13.6771 16.6366 14.5665C17.054 14.7654 17.224 15.1669 17.4309 15.5422C17.985 16.9569 19.0193 18.079 19.7065 19.4112C19.5772 19.7715 19.7249 20.128 19.7434 20.4882C19.6584 20.7246 19.4959 20.871 19.2521 20.9235C18.576 19.0209 17.0171 18.6306 15.3141 18.7395C14.5679 18.7807 14.1209 18.7995 14.0876 17.9289Z" fill="#9CBC55"/>
<path d="M22.5546 28.4514C22.3182 28.4364 22.0781 28.4214 21.8417 28.4026C20.3973 27.1492 18.5132 26.9653 16.8287 26.3049C15.7574 25.8846 14.7674 25.3855 13.8771 24.6086C15.5099 24.9014 16.8989 25.9033 18.5243 26.1435C19.6473 26.4024 20.7667 26.6764 21.8971 26.9128C22.1187 27.4269 22.3367 27.941 22.5546 28.4514Z" fill="#A5C45C"/>
<path d="M10.7518 20.173C9.51428 19.7564 8.18069 19.5425 7.39384 18.2741C7.19436 17.9552 7.13525 17.775 7.43078 17.5424C7.91841 17.3135 8.25458 17.5386 8.53164 17.9289C8.82717 19.6589 10.0906 19.0735 11.1212 19.0472C11.3946 19.7227 12.0596 19.8653 12.5989 20.173C12.6876 20.5107 12.6174 20.6909 12.2295 20.5558C11.6901 20.6008 11.2099 20.4319 10.7518 20.173Z" fill="#719E30"/>
<path d="M21.8971 26.9128C20.5635 27.5995 19.6067 26.5863 18.5243 26.1435C19.9946 26.4475 20.1239 25.1303 20.6706 24.3122C20.7519 24.331 20.8295 24.3497 20.9107 24.3647C21.3614 24.5824 21.2469 25.089 21.439 25.438C21.5942 25.9333 21.7456 26.4212 21.8971 26.9128Z" fill="#7FA636"/>
<path d="M16.2931 21.6703C16.2118 21.1862 15.4286 20.6984 16.0751 20.2518C16.5332 19.9328 16.8915 20.5032 17.2572 20.856C17.6303 21.2162 18.1771 21.3926 18.9898 21.8392C17.8372 21.888 17.0577 22.2144 16.2931 21.6703Z" fill="#7BA738"/>
<path d="M19.2484 20.9198C19.3629 20.7997 19.4774 20.6796 19.5956 20.5595C20.5598 20.7659 20.6669 21.6628 21.0179 22.3645C21.2211 22.8712 21.4649 23.3703 21.3319 23.9444C21.2137 24.2109 21.0622 24.4248 20.7223 24.3009L20.6743 24.3159C20.2089 23.1789 19.3703 22.2032 19.2484 20.9198Z" fill="#B4CD69"/>
<path d="M12.2295 26.545C11.7382 26.1698 11.2431 25.7982 10.7518 25.423C11.1212 24.8188 11.4907 25.3292 11.8601 25.4192C12.0226 25.4943 12.1962 25.5581 12.3477 25.6481C12.7208 25.8733 13.5224 25.2879 13.5077 26.0534C13.5003 26.8828 12.6802 26.4024 12.2295 26.545Z" fill="#739E30"/>
<path d="M12.2295 20.5558C12.3514 20.4282 12.477 20.3006 12.5989 20.173C13.5889 20.6683 14.8893 20.522 15.5542 21.6741C14.4866 21.1712 13.0939 21.6741 12.2295 20.5558Z" fill="#7BA738"/>
<path d="M20.0611 24.421C18.842 24.8526 18.1918 24.4285 17.2646 23.5279C18.4837 23.344 19.193 23.5842 20.0611 24.421Z" fill="#93BD49"/>
<path d="M16.2931 21.6703C16.1047 22.0981 16.9986 22.5184 16.5332 22.691C15.9163 22.9237 15.6059 22.3008 15.5542 21.6703C15.8017 21.6703 16.0455 21.6703 16.2931 21.6703Z" fill="#7BA738"/>
<path d="M5.95312 20.9235C6.01592 20.3869 6.14152 19.9778 6.73259 20.537C6.71781 21.1787 6.37795 21.1412 5.95312 20.9235Z" fill="#94B85A"/>
<path d="M15.5875 14.5215C15.8202 14.9042 16.0566 15.2908 16.2894 15.6735C14.4423 14.7954 12.5989 13.9173 10.7518 13.0392C10.6373 12.9604 10.5967 12.8815 10.6336 12.799C10.6706 12.7164 10.7038 12.6751 10.7407 12.6751C10.098 11.8308 8.86042 11.5869 8.53903 10.4198C8.66093 10.296 8.78284 10.1684 8.90475 10.0445C9.02666 10.0445 9.14487 10.0445 9.26678 10.0445C9.85784 10.1984 10.0352 10.7763 10.3824 11.1816C11.8785 12.6827 13.3636 14.195 15.5875 14.5215Z" fill="#6E9A33"/>
<path d="M15.207 11.9059C14.8597 11.3692 14.7157 10.675 14.0729 10.3597C14.0433 9.30525 13.0459 8.70857 12.8132 7.56026C13.7995 7.86047 13.9916 8.74985 14.5309 9.54917C15.1774 8.41587 14.3758 7.10618 15.5616 5.72895C15.5616 7.73663 15.5616 9.27523 15.5616 10.8101C15.8424 11.1853 15.8682 11.5569 15.5431 11.9209C15.436 11.9134 15.3215 11.9096 15.207 11.9059Z" fill="#6E9C33"/>
<path d="M20.7297 7.04239C20.8516 7.03863 20.9735 7.03863 21.0955 7.03488C22.0855 8.69732 20.8886 10.0558 20.5007 11.5268C19.9872 12.2661 19.9466 13.4294 18.7534 13.5645C18.6721 13.5157 18.5945 13.4632 18.5132 13.4144C19.6104 11.4218 20.0352 9.18516 20.7297 7.04239Z" fill="#6F9B31"/>
<path d="M17.0541 15.6435C16.9137 15.2833 16.777 14.923 16.6366 14.5627C17.1242 13.9511 17.8852 13.7972 18.5095 13.4182C18.8088 14.6866 18.1955 15.3471 17.0541 15.6435Z" fill="#6E9833"/>
<path d="M19.9946 5.90908C20.4194 6.18303 20.3492 6.62584 20.364 7.03488C19.8099 6.91104 19.0452 6.9223 19.0489 6.16426C19.0489 5.52631 19.6104 5.76648 19.9946 5.90908Z" fill="#7AA23C"/>
<path d="M15.5468 11.9171C15.5542 11.5456 15.5579 11.1778 15.5653 10.8063C16.0382 10.8251 16.6514 10.7012 16.5997 11.4593C16.548 12.1723 16.0714 12.1723 15.5468 11.9171Z" fill="#90B84D"/>
<path d="M10.3861 11.1778C9.86153 10.9527 9.52906 10.5361 9.27047 10.0408C10.4194 9.63548 10.1571 10.6525 10.3861 11.1778Z" fill="#94B55B"/>
<path d="M4.84487 22.7999C5.80905 22.8862 6.45183 23.5166 7.40492 24.2672C6.02331 24.2334 4.73035 24.7025 4.84487 22.7999Z" fill="#709C31"/>
<path d="M4.84487 32.1778C4.23534 31.8025 3.7514 31.3935 4.47546 30.6767C4.53456 31.2584 4.80424 31.3935 5.35467 31.1908C5.98637 30.9582 6.63654 30.9769 7.49358 31.3147C6.52941 31.9264 5.48766 31.4423 4.84487 32.1778Z" fill="#85AF41"/>
<path d="M10.3787 32.9133C10.7518 32.9846 11.136 33.0747 11.0474 33.585C11.0252 33.7164 10.8072 33.9153 10.7001 33.904C10.1681 33.8402 10.0647 33.4087 10.0241 32.9546C10.1386 32.9433 10.2568 32.9283 10.3787 32.9133Z" fill="#A1C361"/>
<path d="M7.37906 30.0238C6.73628 29.9562 6.47769 29.641 6.47769 29.1081C6.47769 29.0518 6.6587 28.9317 6.73628 28.943C7.34212 29.0518 7.39384 29.4796 7.37906 30.0238Z" fill="#85AF41"/>
<path d="M4.10235 28.0498C4.69711 28.0649 5.09608 28.3726 5.43224 29.0556C4.67125 29.0105 4.3831 28.5414 4.10235 28.0498Z" fill="#85AF41"/>
<path d="M26.6625 35.4914C26.4778 34.906 26.404 34.2493 26.09 33.7502C24.7601 31.6374 24.3094 29.3783 24.7933 26.924C24.8524 26.1285 24.7674 25.3066 25.2477 24.5936C26.5702 23.0776 27.4051 21.2575 28.1254 19.4149C28.6759 18.0039 28.1217 17.2647 26.6145 16.9494C26.1897 16.8594 25.5875 17.2159 25.4619 16.4391C26.0124 15.4634 26.0382 13.9473 27.7412 14.1687C27.9629 14.5402 28.3692 15.1219 28.6759 14.6453C29.8543 12.8065 30.5747 14.3263 31.4391 14.9155C32.2998 15.5647 31.8824 16.2027 31.5832 17.0132C30.8923 18.8896 29.9466 20.7471 30.3308 22.8749C30.4047 23.9744 29.7656 24.8788 29.544 25.8996C29.1302 27.4194 28.65 28.9242 28.5576 30.5191C28.1845 31.8888 28.2769 33.3411 27.8262 34.6921C27.6452 35.225 27.6119 36.0693 26.6625 35.4914Z" fill="#7BA837"/>
<path d="M29.9577 22.7961C29.2632 21.6816 29.7841 20.4995 30.1868 19.5988C30.6892 18.4693 30.3345 16.9645 31.6053 16.1389C31.7457 16.045 31.5019 15.3395 31.4354 14.9155C31.5795 14.7504 31.7088 14.4727 31.8787 14.4389C32.1964 14.3789 32.141 14.7091 32.1742 14.9155C33.1273 15.7261 33.7516 16.8856 34.9338 17.4673C35.3069 17.6512 35.4288 18.1353 35.3549 18.5969C34.5496 19.7639 34.4646 21.2425 33.7664 22.4584C33.6186 22.5484 33.4598 22.5972 33.2862 22.601C32.1262 21.7416 31.0623 22.6498 29.9577 22.7961Z" fill="#7FA93D"/>
<path d="M27.7412 14.1687C26.5 14.4051 26.5517 15.9625 25.5247 16.4203C25.4546 16.3715 25.3807 16.3227 25.3068 16.2777C25.0556 15.9888 24.8746 15.6398 24.9632 15.2682C25.1849 14.3113 25.8905 13.3581 24.882 12.4425C24.8857 10.9789 24.7009 9.44034 26.271 8.55471C27.0726 8.29578 27.1723 9.72555 27.2019 9.42533C27.3386 8.02184 30.2643 9.11011 29.2891 6.88853C29.6363 7.18874 29.9799 7.49271 30.3271 7.79292C30.9071 8.59975 30.7557 8.82115 29.1598 9.41032C29.5144 9.81937 30.0427 10.1684 30.1572 10.6224C30.3087 11.2304 29.8026 10.7725 29.5883 10.7951C29.2743 11.0803 28.7904 10.8476 28.4838 11.1666C27.1169 11.8796 27.6821 13.0879 27.7412 14.1687Z" fill="#7FAA3B"/>
<path d="M35.1295 18.6719C35.0224 17.0508 32.769 17.4711 32.5806 15.8987C32.5399 15.561 32.3146 15.242 32.1742 14.9155C33.2381 14.8479 32.7173 13.8497 33.0682 13.3281C33.6408 13.4294 34.1137 13.9511 34.7564 13.7859C34.7454 14.8855 35.0039 15.8011 36.2489 16.0488C36.5998 16.2064 36.8104 16.4653 36.8141 16.8669C36.5666 17.73 36.0198 18.4092 35.5063 19.1147C35.2145 19.1147 34.9781 19.0659 35.1295 18.6719Z" fill="#7BA837"/>
<path d="M28.4838 11.1628C28.5724 10.1796 29.1155 10.5962 29.5883 10.7913C29.5033 11.7745 28.964 11.3805 28.4838 11.1628Z" fill="#91B953"/>
<path d="M33.2862 22.4208C33.4081 22.4208 33.53 22.4208 33.6556 22.4208C34.0767 22.4509 34.472 22.3308 34.8636 22.2032C35.0852 22.1657 35.3032 22.1844 35.51 22.2745C36.1122 22.4396 35.9349 21.6178 36.356 21.5727C36.4668 21.5089 36.6774 21.6928 36.7069 21.5202C36.7328 21.3813 36.4816 21.3851 36.3671 21.2913C36.0051 20.9836 35.6911 20.6346 35.2514 20.4207C34.2651 19.9366 34.7823 19.5688 35.3734 19.2273C35.7871 19.0284 35.8536 18.3004 36.5038 18.4543C37.4753 18.5819 37.165 17.4485 37.7228 17.1708C39.7546 17.4298 38.4986 19.1785 38.9789 20.1505C39.2485 20.7021 38.6907 21.6065 39.5699 22.0456C39.5071 22.3158 39.2485 22.6723 39.7066 22.7848C40.9146 23.0776 41.0808 24.0082 41.0956 25.2691C41.7753 24.5073 42.2445 22.8937 43.2641 24.6724C43.1052 25.4192 43.6446 25.9071 43.9216 26.4925C43.0055 27.3969 41.4724 28.0911 42.9944 29.7836C43.1569 29.9637 42.3922 30.763 42.5252 31.4235C41.9563 31.6336 41.779 32.1778 41.5463 32.6581C41.1288 33.5137 40.97 32.5305 40.6745 32.5493C40.076 31.72 41.055 30.9657 40.7853 30.1476C40.8555 29.8436 40.8555 29.5284 40.9478 29.2319C40.6929 29.9187 40.7594 30.6842 40.4417 31.3559C40.0243 32.2378 39.6142 33.0897 38.3878 32.4893C37.1576 31.8851 36.851 33.0747 36.2452 33.6751C36.1233 33.5475 35.9977 33.4237 35.8758 33.2961C35.5839 33.0109 35.5359 32.6581 35.5987 32.2754C35.8905 31.7125 35.9053 31.1045 35.8795 30.4928C35.8536 30.3352 35.9127 30.1588 35.813 30.0087C35.7612 30.2827 35.8684 30.5454 35.8573 30.8156C35.861 30.9919 35.8573 31.1683 35.8462 31.3484C35.2182 32.7407 35.3844 34.4256 34.2873 35.6377C33.2603 35.5514 32.5732 33.9941 31.2396 34.996C30.9293 35.2287 30.5266 34.6958 30.7187 34.1592C30.7852 33.9978 30.8702 33.8477 30.9662 33.7051C32.7911 31.8888 32.3294 29.5547 32.3515 27.3331C32.3663 26.1923 32.7431 25.059 32.4402 23.9031C32.4476 23.2539 32.7394 22.7623 33.2862 22.4208Z" fill="#7BA839"/>
<path d="M36.2341 33.6751C36.6035 31.6749 36.9175 31.4085 38.7387 32.1665C39.5145 32.4893 39.5847 32.0615 39.8026 31.6674C40.4528 30.4891 40.6892 29.1494 41.1658 27.3293C41.8603 28.7366 40.741 29.4871 41.0365 30.3052C40.7557 31.6186 40.3346 32.8533 39.1931 33.6826C38.9567 34.1029 38.7868 34.587 38.4654 34.9285C37.9962 35.4314 37.4716 36.3958 36.755 35.8817C36.2267 35.4952 35.4546 34.6358 36.2341 33.6751Z" fill="#82B13F"/>
<path d="M39.9356 37.8068C39.1746 38.2834 38.5799 38.9288 38.0775 39.6681C36.8252 40.2348 35.909 41.1917 35.1259 42.2987C33.7996 41.218 34.7343 40.6476 35.6467 40.1973C37.3534 39.3567 38.772 38.1858 39.9393 36.681C40.1499 36.1631 40.1868 35.5552 40.6782 35.1799C40.922 34.9285 41.1658 34.6771 41.4096 34.4256C42.3849 36.2157 40.6966 36.8048 39.9356 37.8068Z" fill="#6D9A31"/>
<path d="M32.5658 47.1772C32.0006 46.6744 32.2149 45.6837 31.4391 45.3084C31.2655 43.2632 31.9895 41.4657 32.9204 39.7244C33.1162 39.503 33.3527 39.3529 33.6519 39.3266C33.7775 39.3154 33.9031 39.3004 34.025 39.2891C34.1358 39.3717 34.1765 39.458 34.1506 39.5518C34.121 39.6456 34.0878 39.6944 34.0545 39.6944C33.2234 42.1224 32.1077 44.4866 32.5658 47.1772Z" fill="#ADCB65"/>
<path d="M33.6519 39.3266C33.53 39.443 33.4081 39.563 33.2862 39.6794C32.5621 39.6531 32.7838 39.0865 32.8687 38.7562C33.1532 37.6567 33.2972 36.4934 34.0287 35.5589C35.1074 34.2643 34.8414 32.508 35.5174 31.0745C36.4484 31.1608 35.9755 31.7312 35.8868 32.1703C35.8832 32.5456 35.8758 32.9208 35.8721 33.2923C35.1258 35.3075 34.387 37.3189 33.6519 39.3266Z" fill="#94BA4D"/>
<path d="M39.1968 33.6789C39.81 32.5531 40.427 31.4273 41.0402 30.3015C41.7569 31.1946 40.4971 31.7462 40.6634 32.5456C40.0095 32.7032 40.3679 34.2155 39.1968 33.6789Z" fill="#6F9D30"/>
<path d="M34.0508 39.6944C34.0398 39.5593 34.0324 39.4242 34.0213 39.2891C34.3759 38.5836 34.6382 37.7768 35.8167 37.6755C35.4362 38.6399 34.738 39.1615 34.0508 39.6944Z" fill="#94BA4D"/>
<path d="M40.6782 35.1837C40.608 35.7729 40.4048 36.2982 39.9393 36.6847C38.9567 35.5627 40.0502 35.4914 40.6782 35.1837Z" fill="#7BA839"/>
<path d="M36.6183 15.6735C36.1787 15.3696 36.0383 14.9343 35.9792 14.5027C36.7734 13.7934 36.8473 15.5309 37.4938 14.8404C37.9814 14.3188 37.516 13.7859 37.2722 13.3018C36.8399 12.4425 36.2858 12.9604 35.7021 13.4369C35.7021 12.7877 35.7945 12.3449 35.6837 11.9696C35.4362 11.1328 36.138 10.9789 36.5444 10.7613C37.2426 10.3898 37.3978 11.1478 37.4901 11.5418C37.8374 13.0354 38.7424 14.4126 38.4543 16.045C38.2068 16.2965 37.9593 16.5479 37.7118 16.7956C36.8362 16.9344 36.9064 16.1201 36.6183 15.6735Z" fill="#7AA63D"/>
<path d="M36.6183 15.6735C36.984 16.0488 37.3497 16.4203 37.7118 16.7956C37.7155 16.9194 37.7154 17.047 37.7191 17.1708C37.7339 17.79 37.7635 18.4242 37.3645 18.9496C36.8584 19.6251 36.718 19.156 36.6035 18.6719C36.2008 18.0452 37.0025 17.4223 36.6072 16.7956C36.4853 16.5479 36.3671 16.3002 36.2452 16.0488C36.3708 15.9212 36.4927 15.7974 36.6183 15.6735Z" fill="#89B44A"/>
<path d="M39.5625 22.0456C39.6106 21.2613 39.3704 20.4057 40.1573 19.7977C39.3076 20.3944 42.0339 21.8429 39.5625 22.0456Z" fill="#7BA839"/>
<path d="M20.7408 45.6912C21.3503 45.5598 21.9636 45.4285 22.5731 45.2934C23.6038 44.434 24.8265 44.9294 25.957 44.7905C27.7856 44.7005 29.4258 45.4022 31.0734 46.0589C31.6496 46.4304 31.1731 46.802 31.0734 47.1772C29.2891 46.483 27.5085 45.7812 25.5358 46.0739C23.9436 45.8338 22.285 46.498 20.7408 45.6912Z" fill="#A7C85A"/>
<path d="M15.9273 47.181C15.9236 47.0571 15.9236 46.937 15.9236 46.8132C16.8656 46.3141 17.9443 46.9483 18.8863 46.4417C20.1165 46.4379 21.343 46.4379 22.5731 46.4342C20.9846 47.0421 20.9846 47.0421 21.6865 48.5507C19.8321 46.6931 17.8187 47.2898 15.9273 47.181Z" fill="#719D33"/>
<path d="M18.8863 46.4417C17.9739 47.1735 16.9063 46.6481 15.9236 46.8132C15.798 46.6894 15.6761 46.5655 15.5505 46.4417C16.6625 46.4417 17.7744 46.4417 18.8863 46.4417Z" fill="#80AC3F"/>
<path d="M34.025 35.5627C34.2762 37.03 32.9869 38.2083 33.2862 39.6831C32.6692 41.5595 32.056 43.4358 31.4391 45.3084C30.6966 43.5596 29.9503 41.8109 29.2078 40.0622C29.3408 39.9571 29.4923 39.9233 29.6548 39.9421C30.3308 40.1447 30.1905 39.6456 30.2754 39.2516C30.4454 38.4523 29.7028 38.7337 29.4332 38.4635C29.1192 37.5516 29.1635 36.8574 30.3641 36.8574C30.5451 36.8574 30.7003 36.7523 30.8776 36.7335C30.6411 36.651 30.4047 36.9474 30.2015 36.7898C29.3814 36.1594 29.2484 35.1799 29.4701 34.3356C29.6844 33.5363 30.4232 33.5438 31.066 34.0579C30.9736 34.3881 30.9884 35.0673 31.3578 34.6958C32.9389 33.0897 33.4007 34.4632 34.025 35.5627Z" fill="#81AC3B"/>
<path d="M31.0623 34.0579C28.1033 33.9903 30.848 35.7916 29.9393 36.5909C30.9219 36.3958 30.8259 35.5627 31.3726 35.3638C31.8417 36.5834 31.8233 36.8874 30.8185 36.985C29.6881 37.0938 29.496 37.6304 29.5883 38.5611C30.0131 39.0639 30.0021 39.5593 29.5698 40.0509C29.4479 40.0546 29.3223 40.0584 29.2004 40.0622L29.0194 40.0584L28.8384 40.0772C28.3545 38.9476 27.8705 37.8181 27.3866 36.6923L27.4051 36.6998C27.6637 36.1706 27.5454 35.5064 27.9814 35.0411C29.3223 34.0954 28.5687 32.9321 28.3027 31.8213C28.2141 31.5699 28.203 31.3184 28.3138 31.067C28.432 30.8381 28.565 30.6204 28.746 30.4403C28.783 30.3915 28.8236 30.3465 28.868 30.3015C29.4221 29.7461 28.7497 28.4589 29.8617 28.3238C30.8111 28.2075 30.9847 29.352 31.6127 29.8099C31.8381 30.1176 32.0708 30.7105 31.8381 30.7968C29.9208 31.5173 31.5536 33.0447 31.0586 34.0579H31.0623Z" fill="#7CA737"/>
<path d="M31.0734 46.0627C30.1277 46.6256 29.3851 45.8263 28.5687 45.6236C27.7966 45.4322 27.0393 45.2971 26.2525 45.2784C24.93 45.087 24.4608 44.798 23.3046 43.4321C23.7848 42.5164 24.7453 42.5727 25.5395 42.2987C27.5787 43.2594 30.0168 43.6122 31.0734 46.0627Z" fill="#7CA63B"/>
<path d="M19.9946 11.5456C20.5081 10.0783 21.2358 8.66729 21.0918 7.03863C21.2432 6.84725 21.0955 6.06294 21.3762 6.44947C22.0116 7.32009 23.0312 7.08742 23.5558 7.81169C24.1912 7.28631 23.5595 6.53953 24.2872 6.16802C24.446 6.44571 24.616 6.74217 24.7822 7.03863C24.7268 7.6916 25.3105 8.02183 25.521 8.5397C25.7205 9.28649 25.2218 9.55668 24.6973 9.80435C24.6788 9.87941 24.1431 9.59045 24.5717 9.99199C24.6529 10.067 24.7416 10.1383 24.8081 10.2434C25.2107 11.3805 24.5199 11.5118 23.6851 11.5306C23.6407 11.5306 22.7504 10.8701 23.4449 11.8045C23.8845 12.3937 23.493 13.103 22.8206 13.497C22.1741 13.2456 22.0707 11.9434 20.9034 12.5776C20.6263 12.7277 20.2606 11.9509 19.9946 11.5456Z" fill="#7AA63A"/>
<path d="M6.31515 45.6799C6.37425 44.7492 7.20544 44.0475 7.05767 43.0568C7.97013 44.2727 7.8002 45.1695 6.31515 45.6799Z" fill="#80AC3B"/>
<path d="M24.4387 9.66551C24.9189 9.40657 25.292 9.04256 25.5284 8.53595C25.7759 8.5397 26.0271 8.54346 26.2747 8.54721C25.5247 9.68052 25.1332 10.9189 25.159 12.2886C24.4645 13.4444 24.6677 14.7804 24.4276 16.0263C24.4497 16.4428 24.4571 16.8631 24.35 17.2722C24.3057 17.4298 24.2466 17.5799 24.1764 17.73C23.8661 18.6719 24.3168 19.6926 23.8919 20.6271C23.5225 21.3363 23.0607 21.6628 22.4143 20.9348C22.1003 20.5783 21.7641 20.248 21.4205 19.9291C21.1028 19.535 21.5831 18.8183 20.8886 18.5744C20.6263 17.9401 20.6965 17.2759 21.1989 16.8856C22.3552 15.9813 22.6839 14.8104 22.5731 13.4219C22.9942 13.1067 23.3932 12.5513 23.2233 12.176C22.8022 11.2304 23.0681 11.099 23.951 11.1478C24.9226 11.2003 24.664 10.5887 24.4128 10.0408C24.3241 9.95446 24.2983 9.86815 24.3352 9.78934C24.3722 9.70679 24.4054 9.66551 24.4387 9.66551Z" fill="#77A237"/>
<path d="M27.2536 7.64282C27.1945 7.53024 27.08 7.39889 27.0504 7.24878C27.0172 7.0649 27.1132 6.87352 27.3312 6.96358C27.4605 7.01987 27.5824 7.2 27.6193 7.34635C27.6674 7.5565 27.5196 7.65783 27.2536 7.64282Z" fill="#89AB54"/>
<path d="M8.89367 33.6864C8.85672 33.4312 8.55011 33.0972 9.03404 32.9809C9.15964 32.9508 9.44409 33.0972 9.46257 33.1948C9.54014 33.6226 9.1855 33.6376 8.89736 33.6939L8.89367 33.6864Z" fill="#9CC15D"/>
<path d="M21.4686 19.8015C22.0818 19.7414 22.4401 19.9441 22.6581 20.6083C22.9795 21.5802 23.3304 20.6946 23.6666 20.5408C24.8709 19.6814 23.8845 18.5368 24.0471 17.5424V17.5461C24.4239 17.1934 24.3352 16.5479 24.8302 16.2702C25.0925 16.1839 25.329 16.2102 25.5247 16.4203C26.0641 17.2909 27.0135 15.4671 27.4937 16.7318C27.793 17.5236 29.1118 17.1671 29.1228 17.8051C29.1413 18.9196 28.5392 20.946 28.3877 20.9948C26.5332 21.5915 27.4753 24.3422 25.5174 24.6762C24.5938 25.134 24.7564 26.3236 24.0508 26.9278C24.0249 27.4757 24.0028 28.0236 23.9621 28.8904C23.0349 27.8209 22.4586 26.8978 22.1594 25.7982C21.7789 24.5974 22.8576 23.9857 23.2196 23.0851C21.8454 25.0665 21.8454 25.0665 21.1361 23.8844C20.9883 23.4078 20.8443 22.9312 20.6965 22.4546C20.8036 21.5239 20.4527 20.4582 21.4686 19.8015Z" fill="#7FAA3B"/>
<path d="M28.1217 35.1799C28.0368 35.7616 27.8521 36.2907 27.4088 36.696C27.4383 36.1181 26.8325 35.9455 26.6625 35.4951C27.9555 34.9172 27.4383 33.6151 27.6747 32.6544C27.8595 31.9038 27.9296 31.0933 28.1328 30.3202C28.7867 30.3015 28.7128 30.6467 28.4948 31.067C28.4985 31.3109 28.5059 31.5548 28.5096 31.795C28.8864 32.9846 28.9788 34.1367 28.1217 35.1799Z" fill="#A4C55E"/>
<path d="M21.1398 23.8844C21.6865 24.74 21.9599 24.3347 22.3662 23.7005C22.7689 23.0701 23.1235 21.9067 24.35 23.1263C23.0681 23.5729 22.5805 24.6537 22.1668 25.7945C21.8491 25.8358 21.9562 24.9952 21.4464 25.438C21.2063 25.059 20.9662 24.6799 20.726 24.2972C20.8627 24.1621 20.9994 24.0232 21.1398 23.8844Z" fill="#A5C45C"/>
<path d="M24.0545 26.9278C24.1838 26.2711 24.3168 25.6144 24.4387 24.9539C24.6049 24.0683 25.1036 24.5336 25.5211 24.6724C25.2772 25.423 25.3363 26.2711 24.797 26.924C24.5495 26.5075 24.302 26.8828 24.0545 26.9278Z" fill="#91B748"/>
<path d="M23.3083 43.4321C24.0286 43.7773 24.7601 44.0738 25.7353 43.8936C25.4619 44.8806 24.6308 44.2877 24.3796 44.7943C24.9706 45.1545 25.7575 44.6442 26.2562 45.2821C25.0297 45.2896 23.8033 45.2934 22.5731 45.3009C21.3208 44.0663 23.2639 44.1338 23.3083 43.4321Z" fill="#80AC3B"/>
<path d="M10.7444 12.6751C10.7518 12.7952 10.7555 12.9191 10.7555 13.0392C10.3159 13.936 10.4563 14.7091 11.2912 15.2645C11.5682 15.4484 11.8527 15.5722 11.6606 15.9362C11.4722 16.2965 11.184 16.2027 10.8959 16.0113C9.95758 15.3846 9.97605 16.3753 9.64727 16.7806C9.33327 16.9382 9.32588 17.2534 9.27416 17.5424C9.11531 17.8463 8.83456 17.9101 8.53164 17.9251C8.16592 17.7975 7.7965 17.67 7.43078 17.5386C7.12047 16.9945 6.98748 16.3115 6.32254 16.0413C5.94943 15.4146 5.9051 14.8705 6.69564 14.5402C7.06506 15.0131 7.43078 15.0093 7.8002 14.5402C7.9258 14.1687 8.04771 13.7934 8.17331 13.4219L8.177 13.4182C8.66832 13.7372 8.51686 14.7053 9.53275 14.634C9.27786 13.5983 9.63988 12.874 10.7444 12.6751Z" fill="#80AD3D"/>
<path d="M9.27416 17.5424C9.07837 17.1258 9.00818 16.7731 9.64727 16.7806C10.1977 17.3735 9.76549 17.4748 9.27416 17.5424Z" fill="#98BA53"/>
<path d="M6.31884 25.7945C6.65131 25.6594 6.97271 25.5318 7.33473 25.7607C7.7374 26.0159 8.37279 26.3086 7.94057 26.8115C7.36429 27.4832 7.51575 26.4212 7.19805 26.3311C6.86558 26.2336 6.28559 26.53 6.31515 25.802C6.31515 25.7982 6.31884 25.7945 6.31884 25.7945Z" fill="#8AB349"/>
<path d="M6.31884 11.1666C6.89143 11.7745 6.89143 11.7745 6.06394 12.7052C5.77211 12.1235 6.11566 11.6544 6.31884 11.1666Z" fill="#83B048"/>
<path d="M7.7965 14.544C7.76695 14.908 7.74848 15.3658 7.32734 15.4146C6.74367 15.4821 6.74736 14.9568 6.69195 14.544C7.05767 14.544 7.42709 14.544 7.7965 14.544Z" fill="#709D33"/>
<path d="M8.16961 13.4257C7.7965 13.3656 7.43078 13.2756 7.50836 12.7765C7.52683 12.6601 7.77064 12.465 7.84083 12.4913C8.27674 12.6601 8.12159 13.0842 8.17331 13.4182L8.16961 13.4257Z" fill="#8CB150"/>
<path d="M22.5731 13.4182C23.637 14.7053 23.1826 15.696 22.019 16.6042C21.3725 17.1071 20.9292 17.7638 21.0955 18.6719C21.4316 19.3512 21.1656 19.9028 20.6226 20.2518C20.1756 20.5445 19.8321 20.203 19.6067 19.7865C18.6315 18.488 17.6377 17.1971 17.0541 15.6473C17.5528 14.9155 18.395 14.4126 18.5095 13.4182C19.5698 13.2568 19.4996 12.1685 19.9946 11.5456C20.6669 11.4668 21.0881 13.0954 22.0153 11.8683C22.0633 11.8045 22.5731 12.7952 22.5731 13.4182Z" fill="#7FA93E"/>
<path d="M19.6067 19.7827C20.8923 20.4995 20.8849 19.4375 21.0955 18.6682C22.0781 18.7507 21.3208 19.43 21.4686 19.7977C21.0622 20.6383 21.354 21.6853 20.6965 22.4546C20.3308 21.8204 19.9613 21.19 19.5956 20.5558C19.6141 20.3006 19.1967 20.0341 19.6067 19.7827Z" fill="#6F9933"/>
<path d="M33.2862 22.4208C33.3379 23.0738 32.7542 23.4003 32.5473 23.9219C32.5473 24.0082 32.5436 24.0908 32.5436 24.1771C32.4993 24.6724 32.2407 25.0815 32.0486 25.5168C31.5351 26.6801 30.7594 27.0066 29.6548 26.3086C29.4221 26.211 29.2632 26.0497 29.2189 25.7907C29.0785 24.695 30.1129 23.8994 29.9614 22.7999C30.0686 22.7473 30.2385 22.7211 30.2791 22.6347C31.1583 20.6796 32.237 21.7754 33.2862 22.4208Z" fill="#84AE40"/>
<path d="M29.2152 25.7907C29.3408 25.9183 29.4664 26.0497 29.592 26.1773C29.81 26.4174 29.8691 26.7026 29.8469 27.0141C29.4812 28.2262 29.2115 29.4646 28.868 30.6842C28.746 30.8118 28.6204 30.9394 28.4985 31.067C28.4764 30.7668 28.432 30.4816 28.1328 30.3202C28.1624 28.7291 28.5872 27.2355 29.2152 25.7907Z" fill="#94BC4F"/>
<path d="M36.5961 21.6666C36.2526 21.9142 36.26 22.2857 36.2267 22.6573C36.2008 22.9387 36.26 23.4003 35.8351 23.329C35.3734 23.2502 35.5433 22.7473 35.4805 22.4133C35.233 22.0793 34.9855 21.9367 34.7564 22.4321C34.3833 23.1864 34.0139 23.1789 33.6482 22.4246C33.9659 21.1037 33.8144 19.5913 35.1259 18.6757C35.2478 18.7995 35.3697 18.9271 35.4953 19.0509C35.5913 19.1335 35.6246 19.2161 35.5913 19.2986C35.5618 19.3812 35.5322 19.4225 35.499 19.4225C35.4066 19.6401 35.3142 19.8578 35.2219 20.0754C36.2969 19.7677 36.2193 20.8072 36.6109 21.2988C36.6922 21.3851 36.7143 21.4677 36.6848 21.5465C36.6552 21.6253 36.6257 21.6666 36.5961 21.6666Z" fill="#749F31"/>
<path d="M25.5247 16.4166C25.2772 16.4166 25.0334 16.4166 24.7859 16.4166C24.4645 16.4503 24.2503 16.2627 24.0471 16.045C23.8587 14.7429 24.4571 13.5383 24.4904 12.2624C24.712 12.2699 24.9337 12.2811 25.1516 12.2886C25.159 12.4763 25.0962 12.7464 25.1923 12.8328C25.4139 13.0279 25.957 14.3301 25.739 14.5477C25.1516 15.1444 25.3696 15.7711 25.5247 16.4166Z" fill="#7AA63A"/>
<path d="M35.5027 19.4187C35.499 19.2949 35.499 19.171 35.4953 19.0472C35.2884 18.0039 36.2378 17.5461 36.6072 16.7918C37.7893 17.4185 36.7069 18.0452 36.6035 18.6682C36.0309 18.6081 35.8831 19.1898 35.5027 19.4187Z" fill="#7DAC3E"/>
<path d="M31.066 34.0541C30.582 33.4274 30.9441 32.2941 29.8506 32.0052C29.6179 31.9451 29.7102 31.5886 29.8247 31.3635C29.9688 31.0858 30.0279 30.9957 30.4527 31.1533C31.6681 31.5999 31.742 30.8681 31.4317 29.9262C31.343 28.8529 31.9821 28.0986 32.5473 27.3106C33.0682 29.7873 33.2529 32.189 31.066 34.0541Z" fill="#719D31"/>
<path d="M32.551 27.3068C32.6397 28.3801 31.9415 29.1081 31.4354 29.9224C31.1214 29.8924 30.8776 29.7761 30.6818 29.4909C30.4601 29.1606 30.3789 28.4739 29.8949 28.639C29.2743 28.8492 29.6031 29.3408 29.7619 29.8361C29.9651 30.4703 29.363 30.6054 28.8643 30.6842C28.7978 29.367 29.0748 28.1211 29.5809 26.9165C30.6818 28.1211 31.2655 27.3744 31.6681 26.2973C31.9637 25.5093 32.2259 24.7062 32.5436 23.9219C33.5078 25.0515 32.8096 26.181 32.551 27.3068Z" fill="#84AE40"/>
<path d="M33.8107 25.6406C33.5041 24.7287 33.8144 24.1696 34.6087 23.4303C34.5459 24.4323 34.5385 25.1002 33.8107 25.6406Z" fill="#88B246"/>
<path d="M35.5063 30.6655C34.7971 29.5359 35.8351 29.4571 36.5407 28.8679C36.4003 29.5134 36.3154 29.9074 36.2304 30.2977C36.0346 30.5078 35.9238 30.9019 35.5063 30.6655Z" fill="#8BB34F"/>
<path d="M34.7601 22.4283C34.6161 21.9968 34.1395 21.3513 34.8377 21.22C35.5987 21.0774 35.4472 21.8955 35.4842 22.4096C35.2441 22.4171 35.0002 22.4208 34.7601 22.4283Z" fill="#8DAB4F"/>
<path d="M34.1284 26.4249C34.0767 27.2805 34.1247 27.8322 33.4524 28.2112C33.1458 27.5132 33.3231 27.0404 34.1284 26.4249Z" fill="#88B246"/>
<path d="M36.5961 21.6666C36.6035 21.5427 36.6109 21.4226 36.6109 21.2988C36.8584 21.25 37.1798 20.931 37.3054 21.4114C37.3867 21.7191 37.2463 22.0606 36.9323 22.1394C36.6072 22.2219 36.6404 21.8805 36.5961 21.6666Z" fill="#8BB24E"/>
<path d="M35.5063 30.6655C35.7465 30.5454 35.9903 30.4215 36.2304 30.3015C36.1491 30.9319 36.4779 31.6449 35.8758 32.1778C35.8425 31.78 35.9423 31.3372 35.5063 31.082C35.51 30.9394 35.51 30.8043 35.5063 30.6655Z" fill="#80AC3C"/>
<path d="M29.5772 40.0509C29.5846 39.5555 29.5883 39.0564 29.5957 38.5611C29.8284 38.2308 30.0612 37.9044 30.4269 37.3903C30.8923 38.6399 30.6264 39.7319 30.6855 40.8052C29.991 40.974 29.8395 40.4299 29.5772 40.0509Z" fill="#90BA4B"/>
<path d="M28.1217 35.1799C28.251 34.0541 28.3803 32.9246 28.5096 31.7988C29.592 33.4837 29.459 34.6395 28.1217 35.1799Z" fill="#81AC3B"/>
<path d="M24.4387 9.66551C24.4276 9.78934 24.4202 9.90943 24.4165 10.0333C24.0286 10.0333 23.6666 9.94696 23.5262 9.53791C23.493 9.44034 23.6814 9.1589 23.7959 9.14013C24.1579 9.08009 24.2983 9.39156 24.4387 9.66551Z" fill="#90B257"/>
<path d="M24.0471 17.5424C24.7194 18.413 25.1147 19.3174 24.483 20.3981C24.2503 20.7922 24.0175 20.946 23.6703 20.5408C23.9436 19.5613 23.1642 18.443 24.0471 17.5424Z" fill="#86AD45"/>
<path d="M24.0508 16.0488C24.3574 16.0488 24.6308 16.1163 24.7896 16.4203C24.7859 16.9607 24.5421 17.3397 24.0471 17.5461C24.0471 17.0433 24.0508 16.5479 24.0508 16.0488Z" fill="#86AD45"/>
<path d="M18.8051 18.3004C19.2742 17.1709 19.5698 16.3303 19.9724 15.5422C20.1571 15.1782 20.5302 14.8479 21.029 15.0881C21.2765 15.2082 21.6607 15.272 21.5831 15.6848C21.4205 16.5329 20.9735 15.7598 20.6817 15.8424C20.3086 15.9475 20.4231 16.3378 20.3345 16.6155C20.1313 17.2384 20.0205 17.9401 18.8051 18.3004Z" fill="#8DB348"/>
<path d="M32.5436 23.9219C32.5806 25.3592 31.7457 26.5976 31.6386 28.0048C31.6127 28.335 31.3393 28.3463 31.1066 28.2487C30.4564 27.9785 29.3999 28.1737 29.5809 26.9165C29.5846 26.6689 29.5883 26.4212 29.592 26.1773C29.6437 26.1435 29.6917 26.0947 29.7472 26.0834C31.2765 25.772 31.2765 25.772 32.5436 23.9219Z" fill="#7BA839"/>
</svg>
