<svg width="44" height="55" viewBox="0 0 44 55" fill="none" xmlns="http://www.w3.org/2000/svg">
<path d="M9.73236 45.0271C9.09495 46.2538 8.46126 47.4768 7.82385 48.7035C6.78387 48.4264 7.41755 47.5839 7.2349 47.0297C6.75405 47.2994 6.78014 47.7354 6.81742 48.1751C6.84724 48.9769 6.47076 49.6198 5.66561 49.4277C4.77472 49.2171 4.73372 48.4559 5.04684 47.632C5.5016 46.4311 6.25083 45.3485 6.45957 44.0184C5.34504 45.4853 3.22407 46.0062 2.75813 48.0791C2.66866 48.4707 2.17663 48.8624 1.74051 48.7146C1.09564 48.4929 1.31929 47.8758 1.48703 47.4472C2.53075 44.7574 3.65646 42.0971 5.03193 39.5513C5.19221 39.2557 5.34877 39.0044 5.72525 39.167C6.02345 39.2963 6.17255 39.5587 6.2732 39.869C6.47076 40.4639 5.72525 41.2398 6.6385 41.6721C7.29454 41.4283 7.65611 41.0699 7.22372 40.3605C7.03734 40.2127 6.90688 40.0316 6.81742 39.8136C6.69068 39.4404 6.59749 39.0636 6.51549 38.6793C6.42975 38.0844 6.69068 37.4526 6.31047 36.8873C7.94314 34.1642 9.57207 31.4373 11.2047 28.7142C12.0733 28.7549 12.4796 28.0565 13.035 27.591C13.4748 27.2215 13.9072 26.7855 14.3843 27.5466C14.4775 27.6723 14.4216 27.9605 14.4328 27.9457C14.936 27.3434 15.1858 26.549 15.8604 26.0724C16.5836 25.9874 17.0011 25.7066 16.6059 24.9085C16.5649 23.8813 17.1613 23.1645 17.8174 22.481C19.4985 22.8652 18.835 21.0954 19.5656 20.6077C20.1956 20.6631 20.5907 20.4599 20.5012 19.7468C20.3335 19.4179 19.957 19.1593 20.1471 18.7122C20.449 18.3944 20.8367 18.2651 21.2616 18.2097C22.3762 18.0582 22.7154 18.5681 22.4656 19.5916C22.1898 20.7111 21.5822 21.7272 21.4331 22.8837C21.0119 23.401 20.3596 23.6042 19.8564 24.018C19.3159 24.4614 18.8723 24.9122 19.383 25.6438C19.6476 26.1389 20.2664 26.5453 19.793 27.2252C19.3531 27.7942 19.3643 28.6366 18.6822 29.0578C18.1641 28.8435 17.713 28.5295 17.3104 28.0011C16.8333 28.9544 16.9936 30.1441 15.9648 30.7205C15.1634 30.6799 15.2528 32.1837 14.2091 31.7182C13.9929 31.6406 14.1569 31.3487 13.9519 31.2637C13.9855 31.441 14.0749 31.5888 14.2091 31.7145C14.4701 31.9103 14.8764 31.8031 15.059 32.1394C15.0702 33.0409 14.3769 33.4178 13.7581 33.8464C13.4897 34.0274 13.2251 34.2048 13.4003 34.5965C14.1383 35.365 13.9296 36.2333 13.7096 37.1201C13.5195 37.8923 13.0871 38.0844 12.3789 37.763C11.8608 37.0203 12.0397 36.1335 11.8123 34.9881C11.7266 36.2074 9.49007 36.9612 11.6968 38.0068C11.8049 39.2926 10.9028 40.3494 10.8693 41.6019C10.7835 41.9456 10.6232 42.2559 10.4108 42.5367C10.1088 42.9099 9.80318 43.2942 9.45652 43.623C8.77811 44.2733 9.28878 44.628 9.73236 45.0271Z" fill="#A2BD4E"/>
<path d="M22.0295 32.0766C23.4572 29.1502 25.3806 26.5195 27.058 23.7409C27.468 23.0574 27.9228 22.4034 28.3589 21.7346C28.5788 21.6238 28.3365 21.7642 28.467 21.5942C29.0075 20.8848 30.04 21.742 30.5469 20.8811C31.0651 20.0054 29.1715 20.1347 29.9095 19.2332C30.532 18.2503 31.1545 17.2712 31.777 16.2884C31.874 16.1332 32.0007 16.0075 32.1572 15.9115C32.7686 15.6935 33.3762 15.4607 34.0397 15.7009C34.5503 16.0186 34.8187 16.5101 35.0163 17.0532C35.1616 17.6 35.1952 18.1432 34.9156 18.6642C34.0471 19.1667 34.1179 18.2134 33.7638 17.9326C33.6073 17.8845 33.3836 17.8661 33.3762 18.0434C33.3687 18.254 33.6594 18.3168 33.7936 18.4757C34.0359 18.9893 34.487 19.5657 33.4544 19.7024C33.3575 19.6839 33.2941 19.6137 33.2792 19.5029C33.2121 19.6064 33.2569 19.6655 33.4172 19.6839C34.2819 19.8391 35.3704 19.0632 35.9407 20.3195C35.4077 21.2912 34.8746 22.2667 34.3416 23.2384C33.1301 23.1017 31.8367 23.9146 31.5198 24.9528C31.3782 25.4184 31.5608 25.6364 31.941 25.8211C32.3995 26.0428 32.8841 26.2645 32.4965 26.9148C31.997 27.5356 31.4975 28.1563 30.998 28.777C30.4761 28.6292 29.8574 27.7646 29.5293 28.9766C29.2647 29.3682 29.0746 29.8412 28.549 29.9779C27.6096 30.037 27.9861 31.4004 27.0542 31.4669C25.7943 31.648 26.0814 32.9559 25.4663 33.6099C25.0004 33.8168 24.6202 33.6284 24.2549 33.3624C24.143 33.2331 24.0648 33.0816 24.0237 32.9227C24.0088 32.8118 24.0163 32.6973 24.0461 32.5828C23.856 32.5532 23.9417 32.7195 23.9231 32.7823C23.8001 33.1924 23.5802 33.5139 23.1739 33.6986C22.9987 33.7245 22.8384 33.6912 22.6856 33.6025C22.3799 33.1333 21.8469 32.7564 22.0295 32.0766Z" fill="#A0BA4D"/>
<path d="M34.9939 9.88145C36.7198 6.82209 39.7838 5.61017 42.8068 4.35761C43.8207 3.94009 44.0593 4.69384 43.9885 5.40695C43.6791 8.44784 43.2616 11.4813 41.4798 14.0973C40.3988 15.6824 39.8173 17.7072 37.7299 18.4462C36.3619 18.6309 36.5483 17.8735 36.8539 17.0421C36.9881 16.7022 37.5174 17.3562 37.5808 16.7391C37.8231 14.5037 39.8136 13.5209 40.9654 11.9654C39.7987 11.5146 40.0857 10.7128 40.7269 9.93687C41.2301 9.32722 41.9048 8.8358 41.6587 7.90838C41.8116 7.67561 42.0203 7.46869 42.0613 7.09921C41.9644 7.3911 41.9048 7.62388 41.737 7.80493C41.5805 8.02662 41.6699 8.28526 41.6215 8.51434C41.4053 9.52304 40.697 10.0403 39.7279 9.82602C38.4903 9.5526 39.1203 8.65475 39.2731 7.97859C38.9488 8.80993 38.2518 9.61911 39.7502 10.2694C40.4846 10.5872 40.0186 12.7671 39.0979 13.5357C38.0952 14.3707 36.9583 15.0099 35.6686 15.3351C34.0359 14.6848 35.0014 13.7722 35.4151 12.9149C36.4924 12.5159 35.1803 11.4185 35.9892 10.9419C36.1644 10.8828 36.3433 10.9456 36.5222 10.9345C36.4998 10.8421 36.4178 10.7793 36.2687 10.7424C35.7282 10.6204 35.1915 10.4985 34.9939 9.88145Z" fill="#B8C960"/>
<path d="M7.48838 46.494C8.31216 47.1221 7.04853 48.0643 7.82385 48.7035C7.71948 49.0804 7.61138 49.4572 7.50701 49.8341C6.08682 51.9882 5.00211 52.4058 2.76931 51.652C-0.0226205 50.7135 -0.701033 49.1986 0.722888 46.6011C2.51584 43.3238 4.4467 40.1203 6.3142 36.8873C7.87604 37.1755 6.61613 38.1325 6.76523 38.7569C6.94043 39.1079 6.70559 39.5919 7.13426 39.858C7.24609 39.9836 7.35418 40.1129 7.46601 40.2385C7.63002 41.0071 7.42128 41.6278 6.74659 42.0749C5.69916 42.2116 5.23321 41.7941 5.67306 40.7891C5.91163 40.2496 6.22101 39.8173 5.55751 39.3887C4.48398 40.6782 4.20441 42.3187 3.4589 43.745C2.70221 45.1971 2.21018 46.7895 1.59886 48.334C1.78896 48.3746 1.97534 48.4227 1.97907 48.4116C2.66121 46.3572 4.39079 45.1823 5.87062 43.793C6.19492 43.4863 6.30302 42.6993 6.91806 43.0984C7.33182 43.3644 7.1939 44.0221 7.0038 44.4802C6.5304 45.6146 6.10919 46.7895 5.47178 47.8278C5.05802 48.5003 5.24067 49.0065 5.75134 49.1062C6.16137 49.1875 6.76896 48.722 6.38502 48.0052C6.96279 47.6431 6.60122 46.6196 7.48838 46.494Z" fill="#A7C355"/>
<path d="M11.2383 51.6853C12.3603 49.6013 13.4823 47.5174 14.608 45.4335C15.2454 45.3448 15.8679 45.2931 16.2481 45.9693C16.3897 46.8561 15.7672 47.5729 15.689 48.4079C15.648 48.5631 15.5921 48.7183 15.5287 48.8661C15.3199 49.3427 14.9882 49.8083 15.3609 50.3514C15.551 50.6618 15.7076 50.9832 15.7747 51.3379C16.0543 51.5744 16.2034 51.0756 16.4606 51.2123C17.3477 51.5892 18.138 51.7518 18.2796 50.429C18.3728 50.1038 18.5294 49.8083 18.7754 49.5718C19.875 48.8254 19.9682 47.4472 20.7286 46.4903C21.3176 46.1503 21.3809 44.9791 22.4582 45.404C20.9262 48.5298 19.834 51.8848 17.5751 54.6338C16.7178 54.9922 15.8194 54.8296 14.9546 54.752C14.403 54.704 14.526 54.3308 14.9025 54.0684C15.0553 53.9613 15.2007 53.8172 15.4094 53.8098C15.3013 53.7285 15.2007 53.747 15.1037 53.8652C13.4711 54.9885 12.7181 53.2482 11.5663 52.8085C11.0594 52.5499 11.2942 52.0769 11.2383 51.6853Z" fill="#A4BF51"/>
<path d="M21.2803 22.9022C20.8963 21.8602 21.5449 21.0584 21.8767 20.1606C22.1152 19.5103 22.5812 18.6272 21.2877 18.4166C21.161 17.286 21.2542 16.1073 20.5534 15.1023C21.2915 14.0936 22.0295 13.0886 22.7676 12.0799C22.8496 12.0836 22.9316 12.0873 23.0136 12.091C24.0424 12.1981 24.3555 13.1145 24.9184 13.7463C25.9658 14.1675 26.9051 13.7241 27.8594 13.3953C28.0383 13.3805 28.2098 13.4027 28.3812 13.4581C28.6273 13.5874 28.7987 13.7795 28.877 14.0493C28.7838 14.84 27.9377 14.3153 27.6357 14.7476C27.1474 15.4866 26.6554 16.2255 26.1671 16.9682C25.9621 17.0938 25.731 17.164 25.5036 17.249C23.6547 17.9584 23.3975 19.3255 23.9119 21.0178C23.036 22.2445 22.16 23.4712 21.284 24.6979C20.1508 24.1067 20.9113 23.5044 21.2803 22.9022Z" fill="#9DBA4A"/>
<path d="M14.224 27.6686C13.0126 27.3065 12.9753 28.8325 12.0285 29.0172C11.5589 29.1096 11.2756 29.4199 11.2122 28.7068C12.8933 26.1648 14.567 23.619 16.263 21.088C17.0383 19.9241 17.8547 18.7898 18.6524 17.6407C19.4985 17.5963 19.8825 18.1543 20.1844 18.812C20.4341 19.0558 20.6839 19.296 20.9336 19.5398C20.8814 19.599 20.833 19.6581 20.7808 19.7209C20.4677 19.9278 20.1024 20.0867 19.9645 20.482C19.916 20.5412 19.8638 20.5966 19.8116 20.652C19.2264 21.0141 19.6961 21.5462 19.5917 21.9674C19.3569 22.917 18.8536 23.3936 17.9553 22.4957C17.7913 22.6657 17.6049 22.8061 17.385 22.9022C17.098 23.0352 16.811 23.1682 16.5612 23.3677C15.8791 24.1141 15.4131 24.8937 15.4802 25.9948C15.5212 26.7596 15.2491 27.5577 14.224 27.6686Z" fill="#9DBA4A"/>
<path d="M22.4619 45.4077C21.6269 45.3338 21.7089 46.5124 20.9262 46.5087C20.4118 46.7711 20.5832 47.6431 19.8452 47.7096C19.5246 47.5396 19.3569 47.2477 19.2152 46.9373C19.122 46.6972 19.0736 46.4459 19.0661 46.191C19.0624 45.936 19.1034 45.6922 19.1817 45.452C19.4501 44.8608 19.7035 44.2586 19.9011 43.6378C19.9645 43.4789 20.0465 43.3348 20.1359 43.1907C20.4565 42.7437 20.7025 42.2485 21.0305 41.8052C21.2169 41.5502 21.4517 41.3211 21.7686 41.3064C22.5551 41.2731 22.5812 41.3027 23.0509 40.3937C23.5578 39.4183 24.4934 38.7125 24.7842 37.6078C24.9034 37.0979 25.2277 36.7099 25.5446 36.3109C25.7645 36.0485 25.9472 35.7345 26.3423 35.6901C26.812 35.8416 27.1698 36.067 26.9536 36.6508C25.5595 39.6178 24.1505 42.5848 22.4619 45.4077Z" fill="#9EBB49"/>
<path d="M26.9536 36.6471C26.797 36.2592 26.551 35.9525 26.1484 35.7936C25.7198 35.8675 25.2986 35.8379 24.8885 35.6791C24.404 35.4352 24.0088 35.099 23.7367 34.626C23.5876 34.0274 23.7591 33.5508 24.2921 33.2146C24.6686 33.3328 25.0451 33.451 25.4216 33.5693C25.8428 33.2183 25.7757 32.5162 26.3572 32.2798C27.3562 31.8807 27.5165 30.7612 28.2471 30.1294C29.5107 30.303 29.0858 29.3904 29.1268 28.7807C29.1528 28.7253 29.164 28.6551 29.205 28.6182C29.7381 28.1637 29.7977 27.0183 30.614 27.1439C31.5422 27.288 30.1891 28.3595 30.9943 28.777C30.2525 31.7034 28.4409 34.094 26.9536 36.6471Z" fill="#A4C053"/>
<path d="M28.3402 3.22328C28.7093 2.98681 29.0783 2.74665 29.4473 2.51017C29.8126 2.32543 30.1146 2.54712 30.1518 2.82054C30.2972 3.8625 30.5768 2.9979 30.8041 2.87966C30.9607 2.79468 31.121 2.75773 31.2962 2.77251C31.5608 2.85749 31.7435 3.03115 31.8628 3.27501C31.9 3.44128 31.8889 3.60755 31.8367 3.77013C31.162 4.5091 31.1993 5.31828 31.5907 6.1681C31.5869 6.25308 31.5832 6.33437 31.5795 6.41935C31.5385 6.58931 31.4602 6.73711 31.3596 6.87751C30.1816 7.71256 30.4239 9.49349 29.0895 10.2288C28.713 10.3101 28.3552 10.2805 28.0346 10.044C27.6954 9.55999 28.8397 8.78037 27.7066 8.45522C27.5649 8.00445 27.5686 7.55737 27.7737 7.12138C28.098 6.55606 28.836 6.86274 29.3579 6.32328C28.7987 6.21613 28.4931 6.56345 28.1315 6.67799C27.9712 6.75189 27.8035 6.77775 27.6246 6.75189C27.3785 6.64104 27.1996 6.46738 27.0915 6.21983C27.058 5.03377 28.6086 4.50171 28.3402 3.22328Z" fill="#ABBC56"/>
<path d="M31.367 2.91661C31.2403 2.91661 31.1173 2.91661 30.9905 2.91661C30.5469 2.84271 30.04 2.83163 30.2264 2.14438C31.2775 1.01744 32.7574 0.684906 34.1068 0.115895C34.9604 -0.242507 35.3443 0.282165 35.2437 0.980496C35.061 2.24045 35.3517 3.56691 34.7255 4.76405C34.4012 4.94879 34.1738 5.27024 33.8682 5.45129C33.0929 5.91685 32.6456 5.62495 32.7909 4.75296C32.9214 3.96595 33.0295 3.19003 32.9624 2.39194C32.9624 2.17763 33.1749 1.82293 33.0929 1.80815C32.817 1.75642 32.8207 2.07048 32.7313 2.25892C32.6791 2.4178 32.6008 2.55821 32.4965 2.68753C32.1572 2.93878 31.8031 3.13461 31.367 2.91661Z" fill="#B4C45C"/>
<path d="M22.7676 12.0799C22.6856 10.6167 22.8719 9.23115 23.9045 8.08204C24.2623 8.30004 24.6537 8.17811 25.0376 8.19289C25.7869 8.37024 26.0888 8.89492 26.1559 9.60433C26.1671 9.80385 26.1522 10.0034 26.1149 10.1992C25.4365 12.5676 25.2538 12.6859 22.8682 12.2831C22.8048 12.2314 22.7713 12.1612 22.7676 12.0799Z" fill="#C3C576"/>
<path d="M32.4965 26.9148C32.4331 26.7449 32.407 26.5453 32.2989 26.4086C31.8889 25.8876 30.3829 26.6044 30.7631 25.4147C31.1881 24.0993 32.1759 22.9354 33.4619 22.2814C34.021 21.9969 33.8533 23.0721 34.3379 23.2421C33.9465 24.5723 33.2308 25.7472 32.4965 26.9148Z" fill="#C4C56B"/>
<path d="M20.1807 18.812C19.67 18.4203 19.1593 18.0323 18.6486 17.6407C19.2823 16.7946 19.9197 15.9484 20.5534 15.1023C22.0146 16.0039 22.0146 16.0039 21.2877 18.4166C20.9187 18.5496 20.5497 18.6826 20.1807 18.812Z" fill="#C2C573"/>
<path d="M37.3162 16.9497C36.8055 17.6259 36.6825 18.1986 37.7337 18.4462C37.3572 18.69 36.9807 18.9339 36.6005 19.1778C35.937 19.2332 35.2586 19.3736 34.7255 18.7935C34.7293 18.1875 34.7367 17.5779 34.7404 16.9719C34.9305 16.0778 35.5009 15.5014 36.3209 15.1393C36.7831 14.9767 37.3423 14.6478 37.6852 15.1319C38.1474 15.7785 37.7076 16.3955 37.3162 16.9497Z" fill="#C1CA71"/>
<path d="M33.2643 8.89122C32.9922 9.58586 32.7201 10.2805 32.4443 10.9751C32.1051 11.4296 32.0827 12.1242 31.4043 12.3201C30.5842 12.3385 31.08 10.5465 29.8089 11.182C29.3877 11.0195 28.9926 10.8347 29.0522 10.2805C30.327 9.37525 30.3568 7.70147 31.3558 6.62257L31.3745 6.60779C31.874 6.3861 32.2355 6.61148 32.5561 6.96989C32.5971 7.64605 32.0305 8.01554 31.7509 8.55868C32.1722 8.51804 32.4182 8.07835 32.8282 8.06726C33.5215 8.03771 33.4507 8.44045 33.2643 8.89122Z" fill="#ABBC56"/>
<path d="M25.7831 9.93687C25.7794 9.81494 25.7757 9.69301 25.7794 9.57108C26.0963 8.51065 25.8167 8.03771 24.6462 8.44784C24.2213 8.67692 23.9007 8.69539 23.9007 8.08204C24.389 7.23222 25.0339 6.51542 25.7794 5.8799C26.3199 5.78383 26.7523 6.13854 27.2481 6.22722C27.3748 6.35284 27.5053 6.47477 27.632 6.6004C27.3748 7.83449 27.4643 9.1979 26.2938 10.0884C26.1 10.129 25.9285 10.0773 25.7831 9.93687Z" fill="#9FB752"/>
<path d="M32.4853 6.98097C32.1125 6.85535 31.7435 6.72972 31.3707 6.6004C31.367 6.48216 31.3633 6.36023 31.3633 6.242C31.6168 5.58431 31.7659 4.88967 32.0901 4.26154C32.243 3.91792 32.3809 3.56691 32.4107 3.19003C32.4144 2.96834 32.4592 2.75034 32.4741 2.52865C32.4815 2.4178 32.489 2.30696 32.4965 2.19611C32.735 1.9855 32.9773 1.9855 33.2233 2.18502C33.7377 3.22698 33.3762 4.24676 32.9848 5.4439C33.6967 5.16679 34.2111 4.96357 34.7292 4.76035C34.6137 5.00421 34.5019 5.24808 34.3863 5.49563C34.0359 6.34915 33.9017 7.46869 32.4853 6.98097Z" fill="#A6B84F"/>
<path d="M34.9939 9.88145C35.5195 10.1401 36.0488 10.395 36.5744 10.6537C36.5408 10.8717 36.4178 11.001 36.1979 11.0416C35.9519 11.6328 37.3124 12.5381 35.8326 12.8891C35.4487 12.9778 35.0461 13.1588 34.8113 12.6415C34.2857 11.6513 34.1068 12.6083 33.8384 12.83C33.3053 13.2696 32.8096 13.7463 32.6083 12.5898C32.6493 12.4198 32.735 12.272 32.8618 12.1538C33.5737 11.3963 34.0397 10.4135 34.9939 9.88145Z" fill="#A7BA54"/>
<path d="M32.4853 6.98097C33.3426 6.77036 33.9241 6.20874 34.3826 5.49563C34.39 6.74819 34.0173 7.87883 33.2606 8.88753C33.186 8.51434 33.1078 8.08204 32.6083 8.52912C32.1461 8.94664 31.6615 9.30505 30.8451 9.50826C31.2328 8.46262 31.7323 7.64974 32.4853 6.98097Z" fill="#BBCD6B"/>
<path d="M34.7255 18.7972C35.3592 18.8859 36.0749 18.5718 36.6005 19.1814C36.3806 19.562 36.1606 19.9426 35.9407 20.3232C35.3443 20.035 34.7479 19.7431 34.062 20.0534C33.5215 20.2973 33.2792 20.0682 33.2271 19.5398C34.2223 19.4549 33.4582 18.7935 33.5961 18.4314C33.3612 17.9437 33.5886 17.6074 33.9726 17.3266C34.5801 17.637 34.0993 18.4942 34.7255 18.7972Z" fill="#98B246"/>
<path d="M27.2518 6.23091C26.6591 6.54128 26.0366 6.98467 25.7831 5.88359C26.7486 5.10398 26.9983 3.64819 28.3402 3.22698C29.2908 4.69384 27.6246 5.2296 27.2518 6.23091Z" fill="#C1CA70"/>
<path d="M15.3386 53.9243C15.2193 54.0611 15.0739 54.1793 14.9919 54.3345C14.8726 54.5562 15.0143 54.6301 15.223 54.6301C16.0058 54.6301 16.7923 54.6338 17.5751 54.6375C14.9919 55.4429 13.3183 54.9367 11.5626 52.8122C11.8981 52.694 12.2969 52.4021 12.5317 52.8676C13.2176 54.2125 14.224 54.0463 15.3311 53.5253C15.5436 53.6583 15.5436 53.7913 15.3386 53.9243Z" fill="#AFC665"/>
<path d="M32.8655 12.1575C32.8655 12.2868 32.8655 12.4161 32.8655 12.5455C32.3138 13.6983 33.0742 15.1393 32.0641 16.196C31.9671 16.2366 31.8702 16.2662 31.7696 16.2957C31.4192 15.1725 32.3884 13.7389 30.9458 12.8743C30.8153 12.49 31.0725 12.3127 31.3484 12.1464C31.7137 11.7584 32.079 11.3668 32.4443 10.9788C32.6567 11.3409 31.8628 12.0651 32.8655 12.1575Z" fill="#F5F7E8"/>
<path d="M30.2264 2.14438C30.4799 2.40302 30.7333 2.65797 30.9905 2.91661C30.6737 3.49301 30.4948 4.16178 29.7008 4.59778C29.671 3.85141 30.5283 2.99051 29.4511 2.51387C29.7083 2.38824 29.9692 2.26631 30.2264 2.14438Z" fill="#BDCA6A"/>
<path d="M19.4389 46.1429C19.4389 46.3868 19.4389 46.6307 19.4389 46.8708C18.4324 47.8241 17.7652 48.951 17.6087 50.3403C17.5453 50.5694 17.4633 50.7837 16.9489 51.0941C17.5826 50.7283 17.8248 50.3588 18.2684 50.3588C18.4362 50.3773 18.5815 50.4475 18.6934 50.5731C18.0932 52.6164 18.0932 52.6164 16.4531 51.3047C16.0729 50.7024 16.3599 50.041 16.2854 49.4129C16.796 48.7367 16.7066 47.765 17.6608 46.8893C16.7401 47.6615 16.8035 48.5003 16.4307 49.1284C16.0654 49.9413 16.5016 50.9832 15.6964 51.6705C15.4504 51.301 15.2007 50.9315 14.9546 50.562C14.6005 49.8526 15.1969 49.3316 15.3311 48.722L15.3348 48.7146C15.5063 47.8352 16.3003 47.1295 16.0804 46.1356C15.7672 45.5333 14.9397 45.9878 14.6043 45.4298C15.3572 43.7561 16.1735 42.1192 17.2023 40.5895C17.4111 40.2533 17.672 40.0797 18.1044 40.1683C19.3643 40.4233 20.5646 40.3752 21.0827 40.087C21.9326 40.6671 21.3026 41.2251 21.0604 41.7867C20.7994 42.3889 20.587 43.0171 20.1807 43.5454C19.8675 44.1588 19.7147 44.8497 19.245 45.3818C19.0885 45.6959 19.1407 45.9508 19.4389 46.1429Z" fill="#A0BB4A"/>
<path d="M20.1807 43.5528C20.162 42.3853 21.4331 41.4948 20.9113 40.2201C20.7062 40.0279 20.6727 39.7915 20.7174 39.5328C20.7771 39.3333 20.9411 39.1744 20.9672 38.9564C20.7882 39.0192 20.7062 39.2261 20.4975 39.2594C19.8191 39.1707 19.2488 39.3444 18.6635 39.7176C18.0261 40.124 17.5676 40.0279 17.9367 39.1079C19.301 36.7654 20.6652 34.4228 22.0258 32.0802C22.4395 32.5126 22.9428 32.8968 22.7937 33.6062C23.077 34.3895 22.0742 34.9364 22.406 35.7234C22.6632 36.3367 23.2186 35.982 23.6286 36.0966C23.9417 36.2813 24.1169 36.5584 24.1915 36.9021C24.307 37.9182 23.4162 38.5241 23.2671 39.2889C23.7852 38.8049 23.6808 37.4711 25.019 37.6336C24.5121 39.8025 22.7564 41.2177 21.8916 43.4863C21.3735 42.5294 22.4135 42.1857 21.817 41.5761C20.9634 41.9714 21.1163 43.2351 20.1807 43.5528Z" fill="#A4C053"/>
<path d="M13.4599 33.5841C14.101 33.2294 14.6005 32.7342 14.9621 32.1024C14.7683 31.3893 15.5026 31.1381 15.7076 30.6245C16.7476 29.7192 16.5239 28.3558 16.9526 26.9259C17.6236 27.7536 18.1491 28.4075 18.6785 29.0578C18.5405 29.3276 18.4026 29.601 18.2647 29.8707C16.9302 30.4286 16.7066 31.6479 16.4531 32.8488C15.1969 35.5645 13.609 38.0918 11.9801 40.5969C11.4209 40.8851 11.3464 41.8162 10.489 41.7091C10.4108 40.342 11.0333 39.1781 11.6036 38.0031C11.6185 37.3898 11.9316 37.3898 12.364 37.6447C13.7283 37.1903 13.9035 35.7825 12.7368 34.6704C13.0387 34.3489 13.1021 33.8723 13.4599 33.5841Z" fill="#9CBA48"/>
<path d="M23.9157 21.0178C23.9567 20.131 21.9363 19.7394 23.2111 18.6605C24.0573 17.9437 24.3928 16.1369 26.1708 16.9682C25.4179 18.3205 24.6686 19.6692 23.9157 21.0178Z" fill="#BBC867"/>
<path d="M31.3484 12.1427C31.2142 12.3866 31.08 12.6267 30.9458 12.8706C30.2301 13.2364 29.9505 14.1306 29.1193 14.3596C28.9516 14.2857 28.836 14.1675 28.7577 14.0049C28.6235 13.8793 28.4856 13.7537 28.3514 13.6281C28.3216 12.4605 28.5341 11.4296 29.8611 11.0379C30.45 10.9788 30.8973 9.66714 31.5757 10.783C31.7919 11.1266 30.6439 11.5331 31.3484 12.1427Z" fill="#BDCC66"/>
<path d="M20.915 39.5033C20.915 39.7434 20.9113 39.9799 20.9113 40.2201C20.4043 41.5761 19.4799 41.4246 18.4921 40.8334C18.0709 40.5822 17.713 40.2718 17.2061 40.5969C17.2694 40.0131 17.5192 39.518 17.9404 39.1079C18.0522 39.8986 18.4958 39.6732 18.7045 39.252C19.2823 38.1029 19.9123 38.6941 20.5683 39.1079C20.7696 39.1633 20.8926 39.289 20.915 39.5033Z" fill="#C2CD76"/>
<path d="M21.2803 22.9022C21.53 23.5008 20.6652 24.103 21.2877 24.6979C21.3436 25.2484 20.9821 25.5477 20.5907 25.8248C20.0837 26.2239 19.5731 26.1426 19.0587 25.8359C17.8808 24.8789 18.7045 24.3247 19.4761 23.7372C20.0204 23.3271 20.5385 22.8911 21.2803 22.9022Z" fill="#CECF7F"/>
<path d="M29.9058 19.2332C30.1183 19.9537 31.7845 19.4807 31.2515 20.7776C30.8004 21.8676 29.9655 22.1189 28.8807 21.6016C28.7577 21.5425 28.5341 21.6866 28.3552 21.7346C28.7316 20.8146 29.1603 19.9278 29.9058 19.2332Z" fill="#C6CA77"/>
<path d="M9.73236 45.0271C9.27387 44.931 8.81538 44.835 8.21152 44.7056C8.89366 43.8669 9.16204 42.8841 10.1237 42.4407C10.5114 42.7363 10.6941 43.0947 10.5114 43.5824C10.366 44.1255 10.1424 44.6243 9.73236 45.0271Z" fill="#9CBA48"/>
<path d="M16.4606 32.8488C16.0468 30.9644 16.6134 30.0296 18.2722 29.8707C17.6646 30.8609 17.0644 31.8549 16.4606 32.8488Z" fill="#A2BD4E"/>
<path d="M10.5114 43.5824C10.3809 43.2018 10.2542 42.8212 10.1237 42.4407C10.2468 42.1968 10.3698 41.953 10.4928 41.7091C10.9997 41.347 11.1488 40.5193 11.9838 40.5969C11.7154 41.698 11.1675 42.6661 10.5114 43.5824Z" fill="#A9C25C"/>
<path d="M19.0587 25.8396C19.5693 25.8359 20.08 25.8322 20.5907 25.8285C20.4751 26.3754 20.3223 26.9074 19.7967 27.2252C19.8303 26.6118 19.2711 26.3162 19.0587 25.8396Z" fill="#AFC465"/>
<path d="M28.7615 14.0012C28.8807 14.1195 29 14.2377 29.123 14.3559C28.7093 14.7809 28.1911 14.8289 27.6395 14.7513C28.0122 14.5 28.3887 14.2488 28.7615 14.0012Z" fill="#BBC463"/>
<path d="M17.2098 22.4957C17.4558 22.4957 17.7056 22.4957 17.9516 22.4957C17.8584 23.4786 16.8184 24.0476 16.8221 25.0711C17.0793 25.762 16.6134 25.9948 16.099 26.198C15.5138 27.2806 14.7981 28.2487 13.6947 28.9618C13.4636 28.2856 14.1532 28.1193 14.224 27.6723C14.5707 27.022 15.3908 26.7338 14.9658 25.5514C14.6825 24.7644 15.484 23.5155 16.468 22.8652C16.9675 23.7298 15.9313 24.1252 15.9984 24.6572C16.4345 24.1104 16.6432 23.2015 17.2098 22.4957Z" fill="#94B241"/>
<path d="M12.3677 37.6447C12.0621 37.6558 11.7788 37.7112 11.6073 38.0031C9.66526 37.8886 9.59816 37.7962 10.6717 36.2665C11.078 35.6864 11.3203 34.9438 12.2112 34.5263C12.4087 35.5978 12.5727 36.6028 12.3677 37.6447Z" fill="#C5CD77"/>
<path d="M11.9726 31.0937C11.8272 32.4054 10.9289 32.9338 10.3027 33.6395C10.5971 32.7269 10.7723 31.7366 11.9726 31.0937Z" fill="#B2CA61"/>
<path d="M6.75032 42.0712C6.98889 41.4578 7.23118 40.8482 7.46974 40.2348C7.62257 40.0353 8.0326 39.9171 8.01769 40.0612C7.93941 40.9147 7.89841 41.8606 6.75032 42.0712Z" fill="#8FA939"/>
<path d="M9.41924 35.11C8.9943 36.1557 8.80047 36.9095 7.87977 37.6189C8.2227 36.5806 8.21525 35.7234 9.41924 35.11Z" fill="#B3CC5D"/>
<path d="M4.21187 44.6945C4.22678 43.6083 4.45416 43.0614 5.16985 42.5848C5.2854 43.4568 4.93874 43.9593 4.21187 44.6945Z" fill="#A7C355"/>
<path d="M16.0953 26.198C16.3376 25.8211 16.5798 25.448 16.8184 25.0711C17.1986 25.1413 17.6608 25.2484 17.344 25.7398C17.0942 26.1241 16.8072 26.8594 16.0953 26.198Z" fill="#B4CD66"/>
<path d="M14.2166 31.7255C12.8225 31.0124 14.0265 30.6466 14.3433 30C14.7869 30.7501 14.1458 31.1935 14.2129 31.7329L14.2166 31.7255Z" fill="#B6CE6F"/>
<path d="M7.48838 46.494C6.9777 46.893 7.16781 47.7945 6.38875 47.9978C6.18001 47.244 6.77642 46.7267 7.05971 46.1688C7.27591 45.7402 7.44737 46.2205 7.48838 46.494Z" fill="#B5CF68"/>
<path d="M20.9299 19.5398C21.6307 20.4118 20.6615 20.6594 20.2813 21.0289C19.9235 21.3799 19.8489 20.9328 19.8042 20.6483L19.8079 20.6409C19.9756 20.0682 20.4863 19.8391 20.9299 19.5398Z" fill="#B3C967"/>
<path d="M15.7113 30.6208C15.7486 31.2563 15.1895 31.5962 14.9658 32.0987C14.6564 32.095 14.3806 32.0211 14.2166 31.7218L14.2129 31.7292C14.8913 31.5962 14.9696 30.6725 15.7113 30.6208Z" fill="#B3CB67"/>
<path d="M7.13799 39.8543C6.14646 39.773 6.55649 39.2298 6.76896 38.7532C7.20881 39.0155 7.1268 39.4478 7.13799 39.8543Z" fill="#92AC41"/>
<path d="M13.4599 33.5841C13.4711 34.1124 13.24 34.4819 12.7368 34.6704C12.7032 34.1309 12.7032 33.6099 13.4599 33.5841Z" fill="#8DA93A"/>
<path d="M32.0678 16.1923C32.2057 14.9471 31.7398 13.5726 32.8692 12.5418C33.4172 12.7782 33.4022 12.7671 33.6557 12.4161C33.9763 11.9691 34.0397 11.0379 34.7703 11.2818C35.4226 11.4998 34.9753 12.3422 35.0945 12.8928C34.8821 13.9384 35.4822 15.287 33.98 15.8524C33.3426 15.9632 32.7052 16.0778 32.0678 16.1923Z" fill="#BBC964"/>
<path d="M33.9763 15.8524C34.9082 15.0727 34.6547 13.8534 35.0908 12.8928C35.3368 12.8595 35.5829 12.4789 35.8326 12.8928C35.855 13.628 34.2037 14.3522 35.8214 15.0949C36.2165 14.9582 36.2874 15.1393 36.2016 15.4718C35.7133 15.9743 35.2287 16.4731 34.7404 16.9756C34.487 16.5987 34.2335 16.2255 33.9763 15.8524Z" fill="#95AE46"/>
<path d="M23.5205 36.1594C22.8384 36.8836 22.324 36.8688 22.0444 35.8305C22.0817 35.0214 22.6744 34.5041 23.0732 33.8797C23.6063 33.6801 23.4907 32.7379 24.2847 32.8303C24.2884 32.9559 24.2921 33.0853 24.2959 33.2109C24.1654 33.6986 24.0387 34.1863 23.9082 34.6777C23.9045 35.2061 23.8113 35.7086 23.5205 36.1594Z" fill="#9FB046"/>
<path d="M26.4988 32.4571C26.0403 32.7342 26.223 33.6173 25.4216 33.573C25.1867 32.5052 25.8167 31.7255 26.4243 31.0087C26.7598 30.6134 26.8455 31.0974 26.9089 31.3634C27.1027 31.8475 26.8343 32.1652 26.4988 32.4571Z" fill="#BCD179"/>
<path d="M26.4988 32.4571C26.6368 32.0913 26.7709 31.7292 26.9089 31.3634C27.2555 30.7981 27.5575 30.2033 27.9526 29.6749C28.3738 29.117 28.3104 29.7044 28.3999 29.904C28.4968 30.0296 28.4931 30.1441 28.3701 30.2476C27.632 30.8868 27.8892 32.3574 26.4988 32.4571Z" fill="#95B13F"/>
<path d="M33.9726 17.3229C33.8458 17.6924 33.7191 18.0582 33.5961 18.4277C33.2382 18.4831 32.6344 19.0706 32.612 18.3353C32.5971 17.8106 32.9177 16.8574 33.9726 17.3229Z" fill="#A9C256"/>
<path d="M23.1813 33.9499C23.0359 34.7184 22.5327 35.2726 22.0407 35.8342C21.3399 34.7775 22.5253 34.3452 22.7937 33.6062C22.9167 33.5988 23.036 33.5915 23.159 33.5878C23.2745 33.6617 23.3155 33.7392 23.2857 33.8205C23.2521 33.9055 23.2186 33.9499 23.1813 33.9499Z" fill="#CED17E"/>
<path d="M28.3701 30.2476C28.385 30.1331 28.3962 30.0185 28.3999 29.904C28.6422 29.5308 28.8845 29.1576 29.1305 28.7844C29.6449 29.4162 29.753 30.0592 29.0559 30.6171C28.6422 30.9496 28.4222 30.691 28.3701 30.2476Z" fill="#BCCF74"/>
<path d="M23.1813 33.9499C23.1627 33.8316 23.1552 33.7097 23.159 33.5878C23.5019 32.9116 23.8448 32.2391 24.2549 31.4373C24.7581 32.0507 24.1579 32.4313 24.2809 32.834C23.9157 33.2035 23.5504 33.5767 23.1813 33.9499Z" fill="#A4C053"/>
<path d="M25.8018 29.7636C25.9546 29.0948 26.0627 28.7031 26.7486 28.4777C26.8157 29.1502 26.4839 29.4347 25.8018 29.7636Z" fill="#B7CE74"/>
<path d="M33.2271 19.5398C32.8543 19.5953 32.8394 20.4155 32.2653 19.9906C32.1759 19.9241 32.1461 19.6174 32.2206 19.5103C32.5486 19.03 32.9028 19.1519 33.2271 19.5398Z" fill="#A9C256"/>
<path d="M36.2054 15.4681C36.0786 15.3425 35.9519 15.2168 35.8251 15.0912C36.7086 14.5481 37.5398 13.8978 38.4829 13.495C39.7801 12.9371 39.4893 11.825 39.6421 10.8532C39.6645 10.7128 39.5713 10.5281 39.4819 10.3987C39.165 9.92948 37.9871 11.0601 38.1996 9.86297C38.427 8.58824 38.8631 7.26548 40.3765 6.70016C40.6747 7.36524 39.9553 7.38371 39.836 7.72364C39.6347 8.29265 38.9115 8.9762 39.6533 9.44545C40.3168 9.86667 40.9095 9.2681 41.2934 8.66214C41.4836 8.36285 41.6327 8.03771 41.8004 7.72364L41.7967 7.71995C42.1172 8.58455 42.1284 9.342 41.2487 9.95904C40.8089 10.2694 40.3653 10.7867 40.5778 11.3594C40.8126 11.9912 41.4873 11.1414 41.8749 11.5848C41.86 11.6845 41.8861 11.825 41.8265 11.8952C40.3429 13.617 38.222 14.8584 37.6852 17.2971C37.6777 17.334 37.6032 17.3525 37.5585 17.3783C37.4764 17.2379 37.3944 17.0975 37.3124 16.9571C37.2043 16.2662 38.3077 14.6848 36.2054 15.4681Z" fill="#A2B54E"/>
<path d="M41.8004 7.71995C41.7408 7.11768 41.3121 6.38979 42.4154 6.11268C42.6689 6.84057 42.5049 7.36893 41.8004 7.71995Z" fill="#A2B54E"/>
<path d="M36.1979 11.0416C36.3246 10.9123 36.4476 10.783 36.5744 10.6537C36.8539 10.5983 37.1335 10.5428 37.4131 10.4874C37.3572 10.6389 37.3423 10.8347 37.2379 10.9382C36.936 11.2375 36.6042 11.6106 36.1979 11.0416Z" fill="#CDD987"/>
<path d="M3.99567 49.3058C4.05531 49.5903 3.92485 49.7233 3.73101 49.6974C3.58191 49.6752 3.39181 49.5644 3.32471 49.4351C3.19425 49.1986 3.4179 49.1173 3.58937 49.1284C3.73847 49.1395 3.88012 49.2503 3.99567 49.3058Z" fill="#C0D38A"/>
<path d="M3.62664 50.7098C3.41045 50.7911 3.26134 50.9093 3.14952 50.8761C3.02278 50.8391 2.92959 50.6766 2.82149 50.5657C2.9445 50.4881 3.08242 50.3329 3.18307 50.3514C3.32471 50.381 3.43281 50.5435 3.62664 50.7098Z" fill="#B9D16F"/>
<path d="M17.2173 50.5842C17.4409 49.0434 17.4036 47.3512 19.4389 46.8745C19.7408 47.0334 19.8042 47.3105 19.8116 47.6172C20.2254 48.5742 19.4463 49.1358 19.0698 49.8304C18.7642 49.9893 18.7008 50.2664 18.6934 50.5768C18.5666 50.5731 18.4399 50.5694 18.3132 50.5657C17.9404 50.2184 17.5863 50.8317 17.2173 50.5842Z" fill="#ABC55A"/>
<path d="M12.159 51.8996C12.7144 51.0904 13.1505 50.4585 13.609 49.7935C14.0265 51.9476 14.0116 51.9698 12.159 51.8996Z" fill="#AFC665"/>
<path d="M19.0698 49.8304C19.3159 49.0914 19.5656 48.3525 19.8116 47.6172C20.2962 47.3622 20.1098 46.4385 20.9262 46.5087C20.4453 47.6911 20.3745 49.1025 19.0698 49.8304Z" fill="#91AF3D"/>
<path d="M16.0841 46.1429C16.3599 46.0949 16.9377 45.755 16.6432 46.4385C16.304 47.2329 16.0282 48.1049 15.3386 48.7183C15.1969 47.7502 15.6517 46.9484 16.0841 46.1429Z" fill="#AEC85C"/>
<path d="M16.4531 49.0914C16.4531 49.8304 16.4531 50.5694 16.4531 51.3084C16.1214 51.7259 15.7896 51.8848 15.7001 51.6742C16.1102 50.8613 15.8567 49.8526 16.4531 49.0914Z" fill="#B0CA5F"/>
<path d="M15.3348 48.7257C15.2081 49.339 15.0814 49.9524 14.9584 50.5657C14.2091 49.7787 14.8838 49.2762 15.3348 48.7257Z" fill="#AEC85C"/>
<path d="M15.3386 53.9243C15.3386 53.7913 15.3386 53.6583 15.3386 53.5253C15.6442 53.4662 16.1102 52.9969 16.2183 53.4551C16.3637 54.0758 15.6666 53.8024 15.3386 53.9243Z" fill="#C1D37B"/>
<path d="M28.0309 13.6317C26.976 14.3892 25.8801 14.8067 24.6537 13.9938C24.7171 12.612 26.51 10.517 27.7252 10.4689C28.6384 10.4357 29.1417 10.9012 28.9217 11.836C28.7726 12.49 28.3775 13.059 28.0309 13.6317Z" fill="#BBC463"/>
<path d="M28.0309 13.6317C28.042 13.5135 28.0495 13.3916 28.0681 13.2733C28.1837 12.5011 29.328 11.6365 28.3663 11.0121C27.3413 10.347 26.6628 11.5146 25.9993 12.1353C25.4439 12.6563 24.7022 13.0923 24.6574 13.9938C24.0312 13.4544 23.7815 12.5307 22.8719 12.2831C24.5978 12.4235 25.593 11.6698 25.7906 9.93687C25.9173 9.93687 26.0403 9.93318 26.1634 9.93318C26.7299 10.3913 27.1102 9.61172 27.6246 9.71518C27.7848 9.73735 27.919 9.80755 28.0159 9.93318C28.3887 9.93318 28.7615 9.92948 29.1342 9.92948C29.2609 9.99229 29.3057 10.0625 29.2721 10.1401C29.2386 10.2214 29.2013 10.262 29.164 10.262C29.3989 10.517 29.6337 10.7756 29.8723 11.0306C29.1342 11.7584 28.8994 12.7745 28.3626 13.6207C28.2471 13.628 28.139 13.628 28.0309 13.6317Z" fill="#98B344"/>
<path d="M17.2098 22.4957C17.0085 23.3899 16.6507 24.2028 15.6591 25.2484C16.0282 24.1584 16.2481 23.5118 16.468 22.8652C16.714 22.7396 16.9601 22.6177 17.2098 22.4957Z" fill="#A9C558"/>
<path d="M20.9262 19.5435C20.6839 20.0387 20.3074 20.4008 19.8116 20.6446C19.0959 19.1925 20.2813 19.6359 20.9262 19.5435Z" fill="#A2BD4E"/>
<path d="M25.0227 37.6336C23.7703 38.1325 23.8336 39.7434 22.4284 40.5304C22.9912 39.1633 23.4497 38.0401 23.9119 36.9168C24.2027 36.5215 24.5419 36.1853 25.0302 36.0338C25.4029 36.0227 25.6601 36.1742 25.7757 36.5363C25.5259 36.9021 25.2725 37.2679 25.0227 37.6336Z" fill="#91B041"/>
<path d="M25.7757 36.5363C25.5371 36.4106 25.3023 36.285 25.0637 36.1594C24.8364 35.9266 24.7991 35.6828 25.0265 35.4241C25.4402 35.4278 25.8763 35.3613 26.1447 35.7936C26.1373 36.0966 26.0739 36.3737 25.7757 36.5363Z" fill="#8FAB3B"/>
<path d="M19.0587 45.3929C19.4463 44.7869 19.5842 44.0332 20.1807 43.5528C20.203 44.2733 20.0204 44.9125 19.4463 45.404C19.3159 45.537 19.1854 45.5259 19.0587 45.3929Z" fill="#A4C053"/>
<path d="M19.0587 45.3929C19.1891 45.3966 19.3196 45.4003 19.4501 45.404C19.4463 45.6515 19.4426 45.8991 19.4389 46.1466C19.1966 46.1873 18.8984 46.4829 18.7381 46.0875C18.6225 45.8067 18.794 45.5518 19.0587 45.3929Z" fill="#ABC55A"/>
<path d="M25.0265 35.4241C25.0376 35.668 25.0525 35.9118 25.0637 36.1594C24.8364 36.6471 24.4487 36.8984 23.9082 36.9168C23.7777 36.6656 23.6473 36.4143 23.5168 36.1594C23.2149 35.5571 23.3901 35.0731 23.9045 34.6777C24.4822 34.626 24.6388 35.195 25.0265 35.4241Z" fill="#B5C464"/>
<path d="M27.632 9.92948C27.14 9.87775 26.6591 11.3963 26.1596 9.93687C27.0692 9.00576 26.5771 7.4687 27.6357 6.60409C27.7587 6.60779 27.8855 6.61148 28.0085 6.61518C28.1054 6.69647 28.139 6.77775 28.1091 6.86274C28.0793 6.94772 28.0495 6.98836 28.0159 6.98836C28.0122 7.47608 28.0048 7.9675 28.001 8.45523C27.7625 8.91709 27.8706 9.46393 27.632 9.92948Z" fill="#C4C969"/>
<path d="M29.1603 10.2657C29.1491 10.1549 29.1379 10.044 29.1305 9.93318C30.0102 8.92078 29.6896 7.11399 31.3558 6.61887C31.0464 8.08574 30.6998 9.53043 29.1603 10.2657Z" fill="#C6CF80"/>
<path d="M28.0159 6.98467C28.0122 6.85904 28.0085 6.73711 28.0085 6.61148C28.1054 6.45999 28.18 6.28634 28.303 6.16071C28.7279 5.70993 29.1752 5.25547 29.8499 5.74319C30.1146 5.93532 30.2413 6.22722 30.0437 6.5265C29.6933 7.06595 29.2759 7.47608 28.549 7.08073C28.3999 6.99945 28.1949 7.01423 28.0159 6.98467Z" fill="#B7C55A"/>
<path d="M32.4704 4.40195C32.079 5.00052 32.2169 5.91315 31.3633 6.24569C30.4873 5.24068 30.3531 4.34283 31.7323 3.65558C32.1125 3.77382 32.2504 4.12853 32.4704 4.40195Z" fill="#BDCA74"/>
<path d="M32.4704 4.40195C31.997 4.37239 31.7472 4.12853 31.736 3.65189C31.736 3.52996 31.7398 3.41172 31.7398 3.28979C32.0044 2.86119 32.3138 2.55451 32.8543 2.90922C32.9102 3.45606 32.735 3.94009 32.4704 4.40195Z" fill="#B4C45C"/>
<path d="M27.632 9.92948C27.2593 9.31613 27.222 8.78407 28.001 8.45523C28.754 8.94295 28.3999 9.44176 28.0122 9.94057C27.8855 9.93318 27.7587 9.92948 27.632 9.92948Z" fill="#B7C55A"/>
<path d="M32.8543 2.91291C32.4815 3.03854 32.1125 3.16786 31.7398 3.29349C31.6168 3.16786 31.49 3.04224 31.367 2.91661C31.736 2.78729 32.1051 2.65797 32.4741 2.53234C32.6008 2.65797 32.7276 2.78359 32.8543 2.91291Z" fill="#98AB3F"/>
<path d="M33.2196 2.18872C32.9773 2.19241 32.735 2.19611 32.4927 2.1998C31.859 1.54212 32.571 1.44974 32.9214 1.23914C33.1749 1.08765 33.5625 0.962021 33.6818 1.30195C33.8085 1.64927 33.5402 1.97072 33.2196 2.18872Z" fill="#C4D06F"/>
<path d="M24.65 8.44784C24.9034 7.76059 25.5819 7.70517 25.936 8.03032C26.3796 8.43306 26.2715 9.09444 25.7831 9.57108C25.7384 8.86536 25.3619 8.49218 24.65 8.44784Z" fill="#B0C25F"/>
<path d="M16.4568 49.0951C16.55 47.7354 16.55 47.7354 17.5006 46.627C17.508 47.728 17.0495 48.4375 16.4568 49.0951Z" fill="#B0CA5F"/>
<path d="M17.6869 44.2955C17.8882 44.5394 18.1007 44.6909 18.1566 44.8904C18.2349 45.1675 18.0187 45.3633 17.7578 45.2488C17.5751 45.1675 17.4409 44.9273 17.3589 44.7241C17.3254 44.6539 17.5266 44.495 17.6869 44.2955Z" fill="#BBCF7B"/>
<path d="M17.2173 50.5842C17.5826 50.6802 17.9255 49.4055 18.3132 50.5657C17.9441 50.4438 17.6012 51.6889 17.2173 50.5842Z" fill="#BDD37A"/>
<path d="M20.915 39.5033C20.7994 39.3702 20.6839 39.2372 20.5646 39.1042C20.8702 38.7015 20.8255 38.0179 21.5524 37.8997C21.7425 38.6165 21.3697 39.0783 20.915 39.5033Z" fill="#91B041"/>
</svg>
