<svg width="46" height="45" viewBox="0 0 46 45" fill="none" xmlns="http://www.w3.org/2000/svg">
<path d="M2.67607 25.1741C2.39842 24.7158 2.12076 24.2618 1.8431 23.8035C0.930804 20.9079 0.0273177 18.0123 0.60026 14.914C1.62274 10.9784 3.72941 7.76547 6.97755 5.30622C7.94274 4.96246 8.50246 3.87387 9.64834 3.86065C10.0318 4.02372 10.2081 4.35867 10.3579 4.71125C10.4152 5.27978 11.0146 5.11231 11.2922 5.38996C11.2305 7.39526 12.6188 9.71788 10.045 11.1767C9.82463 11.1767 9.66597 11.0709 9.5602 10.877C9.46765 10.5949 9.56901 10.0661 9.52053 10.0572C8.41872 9.78399 7.36539 11.3662 6.2151 10.141C5.84048 10.8814 5.01192 11.4103 5.13091 12.371C5.46146 12.6046 5.70826 12.4372 5.95507 12.3005C6.4575 12.0273 6.95551 11.6086 7.46676 12.2917C7.91189 12.8911 7.92511 13.5213 7.45794 14.0899C6.79685 14.8964 6.42224 15.8219 6.1534 16.8091C5.74793 18.2327 5.71267 19.6122 6.72634 21.1371C6.35172 20.4275 6.21069 19.9515 6.5192 19.4579C7.69593 18.6514 8.2865 20.0264 9.20762 20.1807C9.67919 20.6126 9.73208 21.2472 10.0582 21.7673C9.15032 20.3658 9.33543 18.7307 8.99607 17.2058C8.8903 16.4345 8.96081 15.628 9.84667 15.487C10.5651 15.3724 10.4681 16.0775 10.4593 16.58C10.4593 16.6196 10.5034 16.5006 10.521 16.4654C10.8603 15.6853 11.4597 15.6721 12.1428 15.9057C12.3324 15.9762 12.5131 16.0731 12.6805 16.1745C12.87 16.2715 13.1918 16.4918 13.2535 16.4081C15.0472 13.9885 16.7572 15.9762 18.4011 16.5888C19.1151 16.8576 19.7365 17.0648 20.4726 16.9325C23.4695 17.3733 26.2284 16.6329 28.886 15.2931C29.5735 14.9449 30.0892 14.178 31.0147 14.3543C31.927 14.6452 32.7203 15.1873 33.6194 15.5222C34.9724 16.0291 35.5982 17.0031 35.0341 18.4795C34.9548 18.6734 34.849 18.8585 34.7256 19.0304C34.0998 19.6695 33.496 19.9515 32.8084 19.0613C32.4999 18.6602 32.1562 18.0696 31.4686 18.5676C31.3496 18.7043 31.2086 18.8056 31.05 18.8894C30.0583 19.0833 29.9217 19.9736 29.5735 20.6919C28.9433 21.926 27.9825 22.706 26.6295 23.0983C24.9459 23.5875 23.3901 24.3191 22.2399 25.7691C21.6449 26.5183 20.7502 26.9238 19.7586 27.0163C18.7229 27.0604 17.6828 27.1397 16.7969 26.439C15.8361 24.1208 16.8189 23.4244 20.2257 23.7462C19.1372 23.2261 17.7312 23.3187 16.2989 23.7109C15.6466 23.8872 14.9987 23.7241 14.4126 23.3671C13.1653 22.305 12.0988 21.1371 12.2222 19.286C12.2883 20.6258 12.7114 21.8026 13.5355 22.8118C12.87 24.9361 10.7678 26.3508 8.66112 26.0247C8.92556 26.4742 9.29576 26.7828 9.52053 27.1794C9.9833 27.6422 10.5871 27.3557 11.116 27.4703C12.0723 27.8008 12.5086 28.409 12.1693 29.4315C9.42357 30.238 7.5549 28.3429 5.47027 27.1926C4.47864 26.6549 3.76026 25.6501 2.67607 25.1741Z" fill="#FDF5E7"/>
<path d="M10.6224 27.7874C10.1905 27.9284 9.76298 28.5102 9.31785 27.8006C9.16359 26.7517 9.94808 26.3506 10.6797 26.0774C12.7026 25.3193 14.7608 24.9403 16.8102 26.0421C17.771 26.6371 18.8419 26.4432 19.882 26.4872C24.5537 26.712 28.6128 28.2986 31.7992 31.8332C31.8962 32.0272 31.9359 32.2299 31.9138 32.4459C30.8164 33.5168 30.1245 32.1858 29.2386 31.9919C28.8508 31.9038 28.4629 31.4983 28.0663 31.9655C27.9737 32.0756 27.9429 32.2343 27.987 32.3709C28.1456 32.9042 28.6172 32.9218 29.0403 32.9439C30.552 33.0188 32.0725 33.2392 33.5533 32.7147C37.7843 32.058 40.7592 29.7574 42.5397 25.8746C42.7821 25.3458 43.095 24.8433 43.6856 24.6054C44.0514 24.6318 44.3334 24.7244 44.1572 25.1871C43.3639 29.3167 39.2607 33.1069 34.7256 33.9796C32.7644 34.3586 30.8473 34.5878 28.8684 34.0457C27.3655 33.6358 26.3607 34.1691 26.0962 35.8747C25.9067 37.0999 25.5057 38.2899 25.2148 39.4975C24.254 43.486 21.9182 44.8611 17.793 44.2485C15.7348 43.9444 13.8221 43.5036 12.0459 42.4018C9.67924 40.9386 9.04019 39.3212 9.94368 36.6988C10.4461 35.2445 10.9441 33.7945 11.5082 32.3621C12.0636 30.9474 11.6405 30.3656 10.1464 29.9469C7.21118 29.1272 4.66815 27.5408 2.67607 25.1741C2.76863 24.6452 2.94496 24.3189 3.43857 24.883C5.71272 27.4701 8.62591 28.8936 11.9622 29.5547C12.2575 28.4044 12.5395 27.2629 10.6224 27.7874Z" fill="#F1DBBF"/>
<path d="M30.0185 1.3706C30.3843 1.3706 30.7149 1.44112 30.9176 1.7937C31.539 3.15995 33.5531 2.5253 34.0996 4.00614C33.8705 4.36313 33.5223 4.54382 33.1212 4.64519C31.8608 4.24854 33.3151 5.68089 32.4954 5.57953C31.0498 5.99822 29.5558 5.91888 28.1763 5.53986C26.6734 5.12558 25.1794 4.87877 23.6456 4.88759C21.8078 4.8964 20.3887 3.62712 18.6346 3.39794C18.2512 3.34946 18.044 3.01891 18.1851 2.57378C18.401 1.87744 18.8021 1.40145 19.591 1.44993C20.8647 1.52926 22.0502 1.25601 23.152 0.616963C24.721 0.423044 26.171 1.11058 27.6915 1.25161C28.4628 1.31772 29.2208 1.82014 30.0185 1.3706Z" fill="#FDF7EA"/>
<path d="M33.9941 4.00643C33.1787 2.97513 31.1955 3.56571 30.9178 1.78958C36.5503 3.86981 40.984 7.36475 43.4873 12.9135C45.2766 16.8712 45.638 21.0008 44.1528 25.1833C43.9985 25.029 43.8487 24.8704 43.6944 24.7161C42.8615 23.1956 43.7385 21.609 43.5225 20.0576C43.3947 19.1321 43.5975 18.1801 43.3991 17.2502C42.196 12.508 39.8689 8.52827 35.6424 5.83985C34.946 5.36827 34.1968 4.93195 33.9941 4.00643Z" fill="#F3DFC7"/>
<path d="M30.0185 1.3706C28.2071 2.50767 26.4353 1.33094 24.6459 1.25161C24.0862 1.22516 23.5309 1.04447 22.9756 0.934284C21.6534 1.7364 20.1329 1.28246 18.7314 1.613C16.2545 2.19035 13.7512 2.68837 11.4374 3.80781C10.9174 4.05902 10.3664 4.29261 9.76265 4.02817C8.88561 4.46449 8.00857 4.8964 7.13152 5.33272C6.95964 5.52223 6.79216 5.51342 6.63791 5.31068C13.7115 -0.27771 21.5698 -1.21205 30.0185 1.3706Z" fill="#F4E3CD"/>
<path d="M6.63791 5.31068C6.80098 5.3195 6.96845 5.32391 7.13152 5.33272C4.48717 8.02555 2.09867 10.8907 0.948375 14.5839C0.789714 14.7382 0.631053 14.7338 0.476799 14.5751C1.21281 10.6086 3.23551 7.50109 6.63791 5.31068Z" fill="#F2DDC1"/>
<path d="M0.476799 14.5751C0.63546 14.5795 0.789714 14.5795 0.948375 14.5839C0.979226 17.4002 0.59573 20.2735 2.16471 22.8738C2.37185 23.2131 2.18687 23.5743 1.8431 23.8035C0.115462 20.9167 -0.528054 17.8673 0.476799 14.5751Z" fill="#F1DABB"/>
<path d="M9.76265 4.02817C13.8438 1.62181 18.3303 0.938691 22.9756 0.934284C22.2925 2.36223 20.9132 2.13273 19.8511 1.91677C18.6655 1.67438 18.7977 2.46768 18.5686 2.85993C23.1389 4.38043 27.8767 5.0327 32.6806 5.32358C32.9053 5.05914 33.086 4.77708 33.1169 4.42009C33.3152 4.08073 33.6415 4.01084 33.9941 4.00643C34.5802 4.45156 35.1663 4.89167 35.7524 5.3368C35.964 5.91856 35.6246 6.40336 35.2632 6.6722C34.514 7.2231 34.0204 7.68146 34.2231 8.78327C34.417 9.84542 33.7075 9.99086 32.8745 9.47521C32.5043 9.24603 32.09 9.02567 31.852 8.6819C31.1248 7.64179 30.3932 7.19666 29.0666 7.87097C27.8723 8.47917 26.5677 7.13937 25.2676 7.74757C24.5051 8.012 24.0468 8.70394 23.3901 9.105C22.6761 9.54132 21.9093 10.0482 21.1204 9.20196C21.235 8.21033 22.5659 7.55805 21.7462 6.23588C21.3407 5.58801 22.2266 5.49105 22.6982 5.57038C24.06 5.80838 25.4615 5.66734 26.7528 6.03315C27.0966 6.07722 26.8189 5.54394 26.8542 5.83482C26.8674 5.94941 26.8189 6.0023 26.7043 5.98467C23.3725 5.52631 19.9877 5.50428 16.7043 4.74623C16.6382 4.852 16.5324 4.92693 16.4002 4.95778C16.4839 5.09881 16.5721 5.08999 16.6867 4.91811C17.9119 4.73301 17.9471 5.49105 17.8898 6.3725C17.8149 7.50957 17.9163 8.18388 19.4853 8.42188C21.0146 8.65546 20.1552 10.101 19.8246 11.075C19.4412 11.8728 18.8594 12.5427 18.3614 13.2654C17.7753 14.1205 18.0882 14.6052 19.0005 14.8521C19.212 15.0328 19.309 15.2752 19.3619 15.5264C19.4104 15.6938 19.5205 15.7511 19.6924 15.6674C19.8996 15.3457 19.9524 14.9755 20.1155 14.6493C20.4593 14.0455 20.9926 13.7458 21.6625 13.6489C22.2178 13.5828 22.7687 13.618 23.2975 13.8031C23.6061 13.9265 23.8617 14.1205 24.0776 14.3717C24.3024 14.7463 24.6021 15.4426 24.1658 15.4911C22.6761 15.6586 21.9004 17.2893 20.3535 17.2143C19.9084 17.7873 19.3398 17.73 18.7713 17.4788C17.9075 17.0998 17.4315 15.3236 15.9991 16.8574C15.7611 17.1086 15.7083 15.6718 15.0428 15.3633C13.8748 14.8961 14.5712 19.462 12.4205 16.3329C11.4465 16.1037 10.4107 15.7732 10.7986 17.5581C9.86866 17.0953 10.5209 16.2007 9.9568 15.7688C9.18994 16.02 9.38826 16.6722 9.33538 17.2187C9.28249 18.2589 9.60863 19.3519 8.89465 20.295C7.87217 20.7181 7.6474 19.1139 6.66899 19.4224C5.32919 18.8891 5.55396 17.8402 5.80076 16.7824C5.88009 15.7555 5.98146 14.7242 6.88054 14.0411C7.45348 13.6092 7.6474 13.1156 7.18023 12.5559C6.58085 11.8375 6.40015 12.8115 6.02553 12.9569C5.50107 13.1597 5.0912 13.7106 4.46977 13.1861C3.77343 12.5999 4.4257 12.1063 4.63725 11.6436C5.14849 10.5197 5.91094 9.57658 6.8585 8.81853C7.83691 9.34299 6.29878 9.82779 7.11853 10.3434C7.89421 9.36503 9.50285 10.0129 10.1375 8.27644C10.6179 9.67353 9.66592 10.2421 9.76729 11.053C9.41471 11.5995 9.06653 12.146 8.85499 12.8732C9.1635 12.1945 9.4103 11.5951 9.76288 11.0442C10.8162 10.5241 10.8955 9.43995 11.2746 8.51002C11.8387 7.11292 9.70118 8.18388 10.1287 6.90578C11.1952 7.02478 11.5434 6.42539 11.1027 5.32358C10.9749 4.83437 10.565 4.89608 10.2036 4.86082C9.84221 4.69775 9.76706 4.38075 9.76265 4.02817Z" fill="#FEF8ED"/>
<path d="M20.3357 17.2277C20.4855 16.452 22.4996 16.8707 21.5653 15.2797C21.4595 15.099 22.385 15.2929 22.839 15.3546C23.3855 15.4295 24.3066 15.8746 23.8615 14.5833C24.2449 13.292 25.3335 12.6618 26.2811 11.961C23.9011 12.5031 22.6319 12.1285 21.5477 10.5375C22.3189 9.15799 23.9452 9.46209 25.1131 8.83626C26.356 8.17076 25.1308 7.93718 25.1881 7.53171C25.2542 6.853 25.5671 6.67671 26.2238 6.92351C26.9025 7.17913 27.8721 7.71682 28.2775 7.45679C31.0497 5.65863 32.0546 8.43079 33.7161 9.55905C33.9497 8.45724 33.6941 7.58901 32.9007 6.3682C34.6328 7.23202 35.0779 6.07291 35.7611 5.3369C40.1286 7.95922 42.6187 11.8773 43.6985 16.7825C44.505 17.8623 43.368 18.1356 42.8655 18.3735C41.8827 18.8407 42.0282 17.7521 41.7241 17.3202C41.4288 17.7609 41.8298 18.0694 41.9004 18.4308C42.7245 19.374 41.2701 19.8412 41.4156 20.4053C41.6403 21.2779 42.4601 21.9478 42.8259 22.8072C42.9669 23.1378 42.5482 23.4375 42.2221 23.627C42.0414 23.6931 41.8563 23.724 41.6668 23.724C41.2128 23.6931 40.8691 23.3714 40.4416 23.2744C39.9171 23.3714 39.6438 23.9752 39.0577 23.9487C38.3173 23.0717 37.8016 22.2784 36.9113 24.0192C36.0563 25.6852 35.0162 24.504 34.1744 23.6755C33.9673 23.3405 33.7822 22.9835 33.5134 22.6882C32.9933 22.0624 32.341 21.4542 33.2666 20.6565C33.9453 20.7358 34.5006 20.6168 34.6284 19.8103C35.0867 19.4181 34.9678 19.158 34.4433 18.9862C34.4433 18.8407 34.4433 18.6909 34.4433 18.5454C36.0255 18.0254 34.6196 16.6812 35.1837 15.8746C35.1484 15.2268 36.7659 15.9936 36.0828 14.8081C35.4217 14.3233 34.8752 13.7503 34.5182 13.0099C34.4609 12.7984 34.3772 12.5956 34.2934 12.3929C34.1127 12.6133 34.386 12.7367 34.408 12.9218C34.5931 13.5917 35.4525 14.1029 34.9722 14.8962C34.646 15.4427 34.0951 15.2488 33.6103 15.0505C32.9272 14.6671 32.1912 14.5921 31.4287 14.7023C31.2348 14.764 31.0673 14.7155 30.9219 14.5789C28.6654 17.3114 25.0647 16.6327 22.2572 17.9769C21.4066 18.3868 21.1114 17.1395 20.3357 17.2277Z" fill="#FDF7EA"/>
<path d="M34.4346 23.3893C35.5055 24.4206 36.4795 25.2359 36.9335 22.8825C37.0481 22.2919 37.8061 21.7234 38.379 21.8556C39.3222 22.0715 38.4452 23.3805 39.2649 23.83C39.6219 25.3329 38.4055 25.9984 37.599 26.8534C37.2243 27.2457 36.6911 27.4881 37.145 28.1359C35.8405 29.1231 35.4923 28.1359 35.1353 27.1707C35.0912 26.8843 35.2984 26.5052 35.2146 26.3598C35.0251 26.0293 34.9149 26.4612 34.8268 26.5537C33.9762 27.4572 32.6672 27.682 31.8519 28.6163C31.68 28.9028 31.6007 29.1848 31.8739 29.4625C32.6981 29.8503 33.5355 29.154 34.3552 29.5066C34.9943 32.0451 34.3552 32.715 31.7814 32.2126C28.4936 28.8851 24.2053 27.6423 19.873 26.4876C20.8338 26.4479 21.5434 25.8882 22.0458 25.1831C22.9008 23.9799 24.007 23.2262 25.4261 22.9398C27.1538 22.5916 28.4539 21.5956 29.5822 20.3086C30.0449 20.7317 30.0449 21.2562 29.9083 21.8071C29.1635 22.7679 29.1415 23.9623 28.8991 25.0729C29.9744 25.6987 30.5914 24.0812 31.6183 24.5264C32.0899 24.9627 32.3323 24.5352 32.654 24.2708C33.1741 23.8388 33.5531 23.0984 34.4346 23.3893Z" fill="#FCF2E1"/>
<path d="M29.5954 22.0669C29.5954 21.4808 29.591 20.899 29.591 20.3128C28.9916 18.5367 30.1771 18.5499 31.4773 18.7218C31.583 18.8232 31.539 18.7703 31.4905 18.713C31.3142 18.4927 31.3186 18.4882 31.464 18.7306C31.539 18.854 31.6359 19.092 31.6712 19.0744C31.94 18.9598 31.6668 19.1802 31.4773 18.7218C31.6447 17.6244 32.5967 17.4746 33.13 18.5279C33.5663 19.3829 33.8043 19.3741 34.4389 18.9907C35.219 18.9686 35.1044 19.3917 34.8797 19.8721C34.5667 20.3569 34.4037 21.0621 33.5619 20.758C32.5218 21.6438 33.6941 21.9744 34.0026 22.5253C33.769 23.7637 33.0551 24.513 31.7946 24.7201C30.7897 24.7686 30.2256 25.7073 29.3089 25.9453C28.4627 26.1657 28.4671 25.7558 28.7095 25.1564C28.8946 24.0943 30.0669 23.3142 29.5954 22.0669Z" fill="#FEF8ED"/>
<path d="M16.8102 26.0421C14.9239 26.0906 13.0331 25.866 11.16 26.4213C10.3182 26.6725 9.71009 27.0382 9.31785 27.8006C8.90356 26.8178 7.94272 26.3067 7.23315 25.3812C10.1375 26.5447 11.7638 24.8744 13.2843 22.9528C13.725 22.5518 14.1702 23.3847 14.6109 22.9528C14.9458 23.0806 15.3689 23.4068 15.6069 23.3054C17.7577 22.3887 19.8511 23.2084 22.1208 23.4553C21.2746 24.7995 20.1199 24.2618 19.1195 24.0723C17.458 23.7594 16.6383 24.2836 16.8102 26.0421Z" fill="#FCF1DF"/>
<path d="M34.862 12.7985C35.3071 13.3935 35.7522 13.9885 36.1974 14.5835C36.1665 15.2005 35.6905 15.5178 35.3159 15.9056C34.8047 16.7122 37.0392 18.4398 34.4345 18.55C35.2278 17.1749 34.7077 16.2714 33.3018 15.9629C32.3146 15.747 31.6138 15.2093 30.9131 14.5879C31.0585 14.5879 31.204 14.5879 31.3494 14.5879C32.0854 14.2573 32.817 14.2573 33.553 14.5879C33.8792 14.676 34.2802 14.9272 34.5138 14.817C34.9325 14.6231 34.646 14.2705 34.4785 13.9664C34.2802 13.6139 34.148 13.2216 33.9893 12.847C34.267 12.5914 34.5579 12.5561 34.862 12.7985Z" fill="#FCF2E1"/>
<path d="M4.41662 20.9386C2.64931 19.471 2.63609 19.2638 3.92301 15.4736C3.86571 17.3114 3.64095 19.1624 4.41662 20.9386Z" fill="#F7E7D1"/>
<path d="M8.87709 20.3084C8.89031 19.2639 8.7008 18.193 9.31781 17.2322C10.1199 19.0656 9.54258 21.2824 11.0014 22.9704C9.53377 22.6178 9.63954 21.1326 8.87709 20.3084Z" fill="#F1DFC9"/>
<path d="M5.78731 16.8001C5.8446 17.7564 6.0253 18.6731 6.65553 19.44C6.50128 20.4316 7.23288 21.0266 7.74853 21.7582C5.34658 20.9296 4.79127 19.4973 5.78731 16.8001Z" fill="#F3DEC3"/>
<path d="M14.6109 22.9528C14.1702 23.6624 13.725 23.0718 13.2843 22.9528C11.9445 20.9828 11.9444 20.983 12.1207 18.6559C12.795 20.41 13.0683 22.0846 14.6109 22.9528Z" fill="#F1DFC9"/>
<path d="M10.1859 4.88324C10.5517 4.38963 11.1334 4.24859 11.5257 4.58795C11.887 4.90528 11.367 5.15649 11.0849 5.34159C10.6795 5.46059 10.5561 6.21864 10.1109 5.98505C9.58206 5.71621 10.1242 5.26226 10.1859 4.88324Z" fill="#F5E4CE"/>
<path d="M10.6224 27.7874C11.0323 27.3467 11.6975 26.792 12.0809 27.2151C12.6759 27.8674 12.6274 28.8061 11.9619 29.5597C12.0148 28.5901 11.7506 27.8623 10.6224 27.7874Z" fill="#FCF1DF"/>
<path d="M18.5729 39.2553C16.096 38.8366 13.6632 37.8582 11.0937 38.9953C10.1594 39.4096 10.2696 38.6471 10.393 38.0213C11.0805 34.5131 13.0109 31.3796 13.4208 27.7744C13.5221 26.8709 14.4653 26.9371 15.2057 26.9062C19.0268 26.7564 22.4865 28.1975 26.0079 29.3522C26.7175 29.5858 27.0392 30.0442 26.7351 30.8771C26.0343 32.7811 25.4085 34.7114 24.7562 36.6286C23.8351 38.0477 22.4821 38.4091 21.1864 37.5806C18.8197 36.0689 18.6963 35.778 19.8377 33.8917C20.1462 33.3849 20.371 32.8516 20.6178 32.3271C21.1467 31.2121 20.4107 31.1019 19.6086 31.0799C19.3221 30.9565 19.4102 31.4853 19.4587 31.1989C19.4719 31.1107 19.5424 31.168 19.6791 31.1724C20.6927 31.2253 20.8117 31.8952 20.393 32.521C19.2428 34.2487 18.8153 36.0336 19.3794 38.0742C19.516 38.5766 19.1105 39.0438 18.5729 39.2553Z" fill="#FEF7EB"/>
<path d="M31.3541 29.5684C30.8958 29.2687 30.909 28.969 31.3629 28.6781C32.6895 28.1184 33.6944 26.8271 35.3118 26.9196C35.9465 27.1312 35.7085 29.0527 37.0791 27.8143C38.225 26.0382 39.7367 24.5044 40.5741 22.5256C40.8782 22.8165 41.1867 23.1073 41.4908 23.3982C41.5834 23.5084 41.601 23.623 41.5481 23.742C41.8169 23.7861 41.7508 23.4731 41.9095 23.3982C42.2048 23.2263 42.5926 22.7019 42.4295 22.7019C40.7592 22.7195 41.9007 20.2426 40.2656 20.3396C40.2524 20.0575 40.1378 19.7314 40.2435 19.5022C40.4287 19.0968 40.6975 19.4537 40.9487 19.5198C42.3458 19.8812 41.6495 19.0659 41.482 18.5547C41.5437 17.9376 41.3233 17.2457 41.9536 16.7785C42.575 16.946 42.0373 18.0434 42.7425 17.9112C43.0069 17.8627 44.1175 17.7481 43.69 16.7785C44.6155 19.4229 44.0999 22.0716 43.69 24.716C41.7464 29.2334 38.9214 32.6931 33.5666 33.0942C32.5617 33.623 32.0461 33.1691 31.786 32.2039C34.2541 31.5516 34.2541 31.5516 33.9588 29.5728C33.0906 29.824 32.2224 30.0444 31.3541 29.5684Z" fill="#FDF5E5"/>
<path d="M15.3555 39.7008C17.3344 39.4319 19.3925 40.1019 21.2656 41.3711C21.7108 41.6708 22.3851 42.0322 22.2044 42.7065C22.0457 43.2971 21.3758 43.1517 20.8822 43.2442C17.8103 43.8128 14.9853 43.1296 12.3542 41.5518C11.9134 41.2874 11.0937 41.0803 11.3317 40.331C11.5388 39.6832 12.2528 39.714 12.8434 39.7096C13.575 39.6964 14.3066 39.7008 15.3555 39.7008Z" fill="#FCF0DF"/>
<path d="M18.5729 39.2553C18.9827 38.5193 19.093 37.7966 18.7757 36.9548C18.3041 35.7076 18.5201 34.4912 19.3575 33.4511C20.186 32.4242 20.5651 31.6088 18.7845 31.2739C18.5862 31.2386 18.454 30.864 18.1234 30.4189C19.4588 30.3704 20.4064 31.2474 21.7109 30.5114C21.0366 32.1906 20.9132 33.5745 19.9216 34.6719C19.2253 35.4431 19.0225 36.2585 20.6179 36.3334C21.5126 36.3775 21.6272 38.3078 23.2314 37.3999C23.6193 37.1796 24.082 36.4965 24.752 36.6287C24.9106 38.0478 24.082 39.2422 23.8441 40.5688C23.7118 40.6349 23.5488 40.6922 23.4518 40.6128C22.8524 40.128 22.491 40.1148 22.0812 40.5952C20.8427 40.3352 19.6879 39.8503 18.5729 39.2553Z" fill="#FEFAF1"/>
<path d="M31.7902 32.2083C32.2926 32.6887 32.7465 33.266 33.5707 33.0986C31.7725 33.9668 29.895 33.5349 28.0572 33.3542C27.1581 33.266 26.9907 32.627 27.3212 31.7411C27.6429 30.8729 28.0572 30.9566 28.8153 31.1329C29.8598 31.3797 30.4239 32.9223 31.7902 32.2083Z" fill="#FCF2E1"/>
<path d="M22.0857 40.5995C22.4206 39.8106 21.786 38.7 22.9847 38.1623C24.1527 38.5986 22.4338 40.2073 23.8486 40.5731C23.8133 40.9785 23.9896 41.5867 23.496 41.6881C22.7247 41.8468 22.4559 41.0975 22.0857 40.5995Z" fill="#FBF3E4"/>
<path d="M33.1169 4.42009C33.7824 5.11203 33.2623 5.23543 32.6806 5.32358C32.3897 4.71097 31.4024 5.07273 31.2217 4.2618C31.9092 3.67123 32.4999 4.23499 33.1169 4.42009Z" fill="#F2E2CB"/>
<path d="M19.4545 11.0578C19.4457 10.3306 20.0847 9.71803 19.8247 8.94235C17.4183 8.92032 17.3742 8.83217 17.5505 5.88372C17.6078 4.92735 16.9732 5.07279 16.3694 5.324C16.2592 5.22704 16.224 5.13008 16.2592 5.03753C16.2945 4.94057 16.3341 4.89209 16.3694 4.89209C16.4619 3.94453 17.2288 3.79028 17.8062 4.06793C21.0367 5.61488 24.6065 5.02431 27.9472 5.80439C28.1279 5.84846 28.291 5.98509 28.4144 6.4787C26.2989 6.26715 24.1879 6.0556 21.5876 5.79558C24.7476 7.77443 21.8873 8.25482 21.213 9.29053C21.4818 10.1808 20.8824 10.6788 20.3447 11.2033C20.023 11.3311 19.7189 11.3046 19.4545 11.0578Z" fill="#FDF7EA"/>
<path d="M19.4545 11.0578C19.7498 11.0578 20.0447 11.0535 20.34 11.0535C20.6794 10.6128 20.9923 10.0883 21.6578 10.6172C23.2091 12.2479 25.3114 11.3091 27.1977 11.7322C25.8579 12.5211 25.0955 13.8253 23.8615 14.5833C23.716 14.4379 23.5661 14.2884 23.4207 14.143C22.8345 13.548 22.2484 13.8345 21.6578 14.143C21.0231 14.143 20.5824 14.4383 20.3356 15.0244C19.8949 15.1126 19.4542 15.1214 19.0134 15.0244C18.489 14.9495 17.8764 15.5798 17.4401 14.8658C17.0743 14.2664 17.4004 13.7155 17.7221 13.2527C18.2466 12.4859 18.8727 11.785 19.4545 11.0578Z" fill="#FDF5E7"/>
<path d="M21.6578 10.6172C21.2171 10.7626 20.7808 10.9081 20.34 11.0535C20.2695 10.2867 20.9704 9.90335 21.2172 9.29515C22.3719 9.28193 23.368 8.95579 23.9189 7.84076C24.2318 7.21493 24.6725 7.28104 25.1794 7.53225C25.6509 7.70413 26.1401 7.84517 26.5853 8.06993C26.8056 8.18452 26.9467 8.46218 27.123 8.66491C26.9202 8.8368 26.6999 9.17175 26.5148 9.15412C24.6902 8.99986 23.3854 10.5158 21.6578 10.6172Z" fill="#FEFCF5"/>
<path d="M9.74959 11.0663C9.5733 11.9698 9.40141 12.8689 9.18987 13.9663C8.00872 12.5472 8.57726 11.7362 9.75399 11.0707L9.74959 11.0663Z" fill="#F1E1CE"/>
<path d="M19.0134 15.0244C19.4542 14.7512 19.8949 14.7512 20.3356 15.0244C20.3224 15.5092 20.415 16.0292 19.895 16.3465C19.7231 15.9587 19.3661 15.941 19.0135 15.9058C19.0135 15.6105 19.0134 15.3197 19.0134 15.0244Z" fill="#FDF7EA"/>
<path d="M16.3648 4.89618C16.3648 5.04162 16.3648 5.18265 16.3648 5.32809C16.1488 5.71152 15.9461 6.13462 15.3952 6.02003C15.3115 6.0024 15.1969 5.78644 15.2145 5.68508C15.3335 5.05043 15.8359 4.94466 16.3648 4.89618Z" fill="#F3E4D3"/>
<path d="M21.6578 14.143C22.244 13.8301 22.8345 12.5961 23.4207 14.143C22.8301 14.143 22.244 14.143 21.6578 14.143Z" fill="#FDF7EA"/>
<path d="M19.0135 15.9058C19.4939 15.681 19.917 15.5664 19.895 16.3465C19.5336 16.4214 19.2031 16.8928 18.8152 16.5314C18.5728 16.3066 18.7711 16.06 19.0135 15.9058Z" fill="#FDF5E7"/>
<path d="M12.7467 15.143C12.8568 15.2268 13.0904 15.3193 13.1169 15.4559C13.1962 15.8614 12.8789 16.073 12.588 16.2537C12.2178 16.4784 12.3147 16.0641 12.2663 15.9584C12.09 15.5573 12.3015 15.3105 12.7467 15.143Z" fill="#FDF5E7"/>
<path d="M40.5783 22.5295C40.3315 24.9006 38.8551 26.4563 37.0834 27.8182C36.0741 27.6992 36.5148 27.2717 36.8939 26.8883C37.8018 25.9627 38.8375 25.1386 39.265 23.834C39.6043 23.3008 39.7277 22.5471 40.5783 22.5295Z" fill="#F3DDC1"/>
<path d="M37.9606 11.4276C36.753 10.6298 36.0038 9.84535 35.638 8.68624C36.6913 9.17104 37.727 9.66906 37.9606 11.4276Z" fill="#F4E2CA"/>
<path d="M35.3159 15.9056C35.3159 15.271 35.6112 14.8303 36.1974 14.5835C36.8717 14.5658 37.8017 14.725 37.5461 15.4566C37.2155 16.4041 36.0784 15.7161 35.3159 15.9056Z" fill="#FDF5E7"/>
<path d="M41.9579 16.7824C41.8697 17.3906 42.1474 18.1002 41.4863 18.5585C40.8208 17.9988 41.1073 17.2275 41.0588 16.54C41.0368 16.2491 40.9266 15.6894 41.5039 15.8921C41.7287 15.9671 41.808 16.4695 41.9579 16.7824Z" fill="#F2E0CA"/>
<path d="M31.79 24.7157C32.6979 24.156 33.4163 23.4111 33.9981 22.5209C34.3595 22.7016 34.4301 23.0323 34.4346 23.3893C33.6809 24.0504 33.0108 24.8611 32.1558 25.3283C31.3141 25.7866 31.7548 25.033 31.79 24.7157Z" fill="#EFDDC6"/>
<path d="M34.862 12.7985C34.5711 12.8117 34.2801 12.8293 33.9893 12.8425C33.5309 12.4635 33.2621 11.9919 33.2841 11.2118C34.3374 11.2779 34.7474 11.8774 34.862 12.7985Z" fill="#F0DDC3"/>
<path d="M38.8905 10.3743C39.8645 10.7356 40.1553 11.3483 40.433 12.4545C39.4237 11.9917 38.9081 11.5642 38.8905 10.3743Z" fill="#F5E4CC"/>
<path d="M33.5574 20.7538C33.9982 20.4585 34.4389 20.1632 34.8752 19.8679C35.2939 20.6039 34.8047 21.0843 34.2934 21.384C33.7249 21.7146 33.6324 21.1725 33.5574 20.7538Z" fill="#FCF2E1"/>
<path d="M41.918 23.4023C41.9313 23.962 41.9974 24.5394 41.3804 24.892C40.7237 24.3102 41.3848 23.8783 41.4994 23.4023C41.636 23.4023 41.777 23.4023 41.918 23.4023Z" fill="#F3DFC8"/>
<path d="M33.5531 14.5837C32.8171 14.5837 32.0855 14.5837 31.3495 14.5837C32.0855 13.9315 32.8215 13.927 33.5531 14.5837Z" fill="#FDF5E7"/>
<path d="M35.316 26.9191C33.9542 27.4039 33.0022 28.8142 31.3671 28.6776C32.5747 26.9235 34.6417 26.4343 36.2989 24.808C36.3209 26.0729 35.4747 26.2844 35.316 26.9191Z" fill="#F2E1CA"/>
<path d="M29.5954 22.0669C31.7241 23.7946 29.0532 24.1431 28.7051 25.1567C28.2115 24.3017 28.7227 22.5297 29.5954 22.0669Z" fill="#F6E5CD"/>
<path d="M31.3541 29.5684C32.2224 29.5728 33.0903 29.577 33.9585 29.5814C33.0903 29.7533 32.2179 31.0668 31.3541 29.5684Z" fill="#F0DDC2"/>
<path d="M32.5614 19.3828C32.4204 19.8676 32.2132 20.1805 31.8078 20.1496C31.2084 20.1056 30.9043 19.7398 31.1026 19.136C31.1908 18.8583 31.2084 18.3956 31.7725 18.6027C32.222 18.7658 32.4556 19.0522 32.5614 19.3828Z" fill="#FDF5E7"/>
<path d="M22.98 31.7675C23.3281 32.6842 24.6944 32.7856 24.734 33.927C24.7517 34.4074 24.8707 35.0333 24.1787 35.1699C23.5926 35.2845 23.4427 34.7997 23.4295 34.3545C23.4031 33.4687 22.4026 33.6494 22.0941 33.0853C21.8164 32.2655 22.4467 32.0496 22.98 31.7675Z" fill="#F8EAD5"/>
<path d="M22.98 31.7675C22.6847 32.2082 22.3895 32.6488 22.0986 33.0895C21.6006 32.7457 21.583 32.3182 21.8915 31.8466C22.2088 31.3442 22.6053 31.6485 22.98 31.7675Z" fill="#FEFAF1"/>
<path d="M37.1848 29.2637C37.6432 28.4704 38.1808 28.2103 38.8904 28.3998C38.9918 28.4263 39.1196 28.8185 39.0535 28.9375C38.6436 29.6339 38.0442 29.6824 37.1848 29.2637Z" fill="#F9E9D3"/>
<path d="M29.6264 32.7193C29.2871 32.8207 29.0843 32.9573 28.9433 32.9089C28.5863 32.7854 28.3395 32.5078 28.507 32.1067C28.5467 32.0142 28.9125 31.9569 29.0359 32.0318C29.243 32.164 29.3796 32.4152 29.6264 32.7193Z" fill="#F4DFC3"/>
</svg>
