<svg width="48" height="56" viewBox="0 0 48 56" fill="none" xmlns="http://www.w3.org/2000/svg">
<path d="M18.6005 21.8002C22.2372 16.9063 25.7444 11.905 29.948 7.46168C32.9117 4.33054 36.4362 2.30845 40.9794 3.04574C42.0854 3.22715 42.2245 2.43129 42.5302 1.84111C43.1033 0.73924 43.7333 -0.177893 45.1767 0.0309888C45.3898 0.731359 44.7131 1.01109 44.4795 1.50148C43.6288 2.1253 43.0618 3.01571 42.3426 3.75783C42.0348 3.95025 41.6595 4.02372 41.4157 4.31693C41.3254 4.52153 41.3458 4.71305 41.4705 4.89647C41.714 5.17052 42.0323 5.3593 42.2605 5.63243C42.9923 6.50312 43.4673 7.37272 42.0365 8.04422C41.4948 8.29887 41.2924 8.79473 41.0525 9.27127C40.6462 9.62472 40.5691 10.8561 39.7018 9.98799C39.2426 9.52864 38.2839 8.73765 39.5518 7.9612C39.8023 7.80573 39.9681 7.5195 40.0785 7.23981C40.0338 7.16172 40.2842 6.86353 39.9653 7.01668C39.6089 7.19182 39.4851 7.64304 39.1841 7.91306C38.6546 8.23306 37.5954 7.59221 37.5651 8.8111C37.5795 9.21409 37.5548 9.60933 37.4298 9.99316C37.3628 10.1408 37.2692 10.2671 37.1454 10.3728C36.719 10.6586 36.2896 10.9487 35.7607 10.9268C35.725 10.8771 35.6934 10.8491 35.6934 10.8491C35.6394 10.8629 35.6242 10.9033 35.6443 10.9709C35.6638 11.0349 35.699 11.0622 35.7631 11.0616C35.9373 12.3852 35.0832 11.9542 34.4213 11.8668C33.5341 11.7048 33.0069 11.2243 32.9982 10.2831C34.4795 8.25751 36.2851 6.59608 38.4618 5.44794C37.626 5.4605 37.626 5.4605 36.7555 5.89643C36.3355 6.33881 35.652 6.58224 35.6706 7.35258C33.0002 9.74559 30.8209 12.6071 28.2225 15.0618C27.1683 15.6671 26.6824 16.7303 26.0727 17.6962C25.9124 17.91 25.7129 18.056 25.4402 18.0917C23.9265 17.1183 25.5608 16.5668 25.8027 15.6128C24.4657 17.4802 24.7738 19.9922 22.8004 21.2791C22.592 21.6409 22.4763 22.0342 22.3533 22.4289C21.9881 23.4509 21.2528 24.1471 20.3429 24.6956C19.1568 24.9573 19.3623 24.0514 19.4304 23.4828C19.5346 22.6822 19.3739 22.1223 18.6005 21.8002Z" fill="#6FA337"/>
<path d="M23.6137 47.1173C20.5504 49.7524 17.7734 52.77 13.8541 54.2531C12.1646 54.8938 10.4459 55.2958 8.63144 55.2234C8.76165 53.8921 9.97686 54.072 10.7087 54.0074C12.934 53.8118 13.1504 51.5629 14.5361 50.5467C14.5729 50.5211 14.1723 50.0922 14.1494 49.7659C14.1251 49.2896 14.3719 48.7893 14.7456 48.7274C16.8609 48.387 17.5019 46.4724 18.7155 45.1802C19.0934 44.7756 19.4984 44.4149 20.0403 44.2429C21.1372 44.0503 22.2519 42.8967 23.3256 44.2861C23.2407 45.3536 21.989 45.0377 21.6105 45.7241C21.5229 45.7403 21.4586 45.7598 21.4593 45.7634C21.4743 45.7832 21.5158 45.783 21.6027 45.7631C23.3086 45.2921 24.0323 43.8017 25.0167 42.5971C24.6425 41.5585 23.6409 42.6912 23.1478 42.0691C22.8891 41.1443 23.6858 40.7785 24.1674 40.3021C26.1439 38.361 27.7726 36.1127 29.7039 34.1312C29.9034 33.9251 29.6688 33.841 29.5225 33.7442C29.2111 33.186 28.8278 32.6675 28.7442 32.0144C28.8055 31.8565 28.9014 31.7223 29.0362 31.6146C29.3791 31.3669 29.7687 31.2081 30.1526 31.0391C30.4197 30.8918 30.6539 30.7093 30.8783 30.4948C31.3782 30.0151 31.797 29.0583 32.5916 29.4741C33.4029 29.8981 34.1697 30.5707 34.2954 31.6742C34.3905 32.4905 34.3313 33.2489 33.9024 33.9484C33.578 34.4782 33.2481 34.979 33.5196 35.6272C33.5392 36.4236 33.0769 37.0241 32.6094 37.5767C30.1189 40.511 27.6464 43.4608 24.9892 46.2495C24.6047 46.659 24.1314 46.916 23.6137 47.1173Z" fill="#679E36"/>
<path d="M33.3861 35.7421C33.0141 35.3042 32.0698 35.0176 33.1246 34.2732C34.1926 33.5188 33.958 32.2966 33.7934 31.3092C33.6924 30.7045 32.9794 30.0369 32.37 29.7444C32.0216 29.5762 31.5684 30.3478 31.2337 30.7819C30.9963 31.0889 30.8162 31.6032 30.2383 31.2974C29.9146 30.8354 30.2256 30.4771 30.4393 30.1031C30.5411 29.9602 30.6536 29.8342 30.7778 29.7097C32.8103 27.8671 34.1425 25.4861 35.7259 23.2988C36.2639 22.5565 36.6544 21.6914 37.4692 21.1794C37.9219 21.0352 38.2236 20.7688 38.1941 20.2446C38.2496 19.6897 38.5065 19.2025 38.7061 18.6921C38.9742 18.184 39.2323 17.6628 39.7859 17.3909C40.2374 17.9719 40.9864 17.5322 41.5112 17.878C41.7224 18.5674 41.0925 19.0789 41.1186 19.7276C41.2033 20.2039 41.5798 20.442 41.9312 20.7073C42.0483 20.8094 42.1419 20.9273 42.2237 21.0623C42.488 21.5504 42.5411 22.1002 42.6621 22.6299C42.4768 23.0549 42.2915 23.48 42.1062 23.9051C41.8557 25.0973 41.4509 26.1904 40.2349 26.7582C40.1573 26.889 40.0797 27.0199 40.002 27.1508C39.5939 28.8155 38.6519 30.1061 37.2279 31.058C36.3187 32.1998 35.2827 33.2487 34.5887 34.5533C34.4752 35.243 34.2578 35.8206 33.3861 35.7421Z" fill="#6EA538"/>
<path d="M40.4871 7.224C40.4707 7.39983 40.5173 7.69166 40.4278 7.73834C39.3079 8.35583 39.3497 9.12937 40.0544 10.0164C40.3117 9.69436 40.5647 9.3694 40.8221 9.04738C41.2453 9.273 41.3405 9.68353 41.4247 10.0961C41.4853 10.2802 41.534 10.4815 41.8061 10.4422C42.1253 10.2702 42.3572 9.99421 42.6434 9.78703C42.7786 9.70181 42.9226 9.6638 43.0813 9.66437C43.3182 9.74055 43.4701 9.90766 43.5733 10.1176C44.3393 10.1969 43.8691 9.45414 44.1672 9.22973C44.5731 8.40682 45.6142 8.40122 46.1385 7.44362C46.7636 8.8976 46.9413 10.1793 46.9767 11.4874C46.783 13.27 46.4169 14.9983 45.3777 16.5173C44.9487 17.074 44.6598 18.4048 43.8272 16.8091C43.5925 15.9925 44.4217 15.7408 44.6939 15.1944C44.8489 14.7074 45.2898 14.2761 44.994 13.7C44.804 13.4499 44.7108 13.0089 44.2454 13.3696C43.399 14.0978 43.5033 15.472 42.3984 16.0078C42.3366 16.0005 42.2397 16.0072 42.2227 15.9766C41.8107 15.1817 41.8234 15.2094 41.5133 15.3083C40.9545 15.491 40.0988 15.0715 40.055 16.2178C40.0402 16.6262 39.4545 16.8064 38.993 16.6593C38.5873 16.5281 38.4909 16.1516 38.4914 15.7683C38.4996 14.7151 38.6776 13.7016 39.3328 12.7573C38.955 13.0002 38.9839 13.4606 38.6622 13.6594C38.4987 13.7348 38.3334 13.7393 38.1633 13.677C37.7437 13.3492 37.4135 12.8321 37.7035 12.4214C38.4222 11.4127 37.7711 10.7937 37.2382 10.1001L37.2581 10.0852C37.5342 9.72209 37.6563 9.34257 37.4004 8.92058C37.2751 8.6321 36.5018 8.59546 36.9179 8.17259C37.5083 7.57082 38.2715 7.106 39.1351 7.83202C39.4921 7.41637 39.8751 7.05973 40.4871 7.224Z" fill="#74AA39"/>
<path d="M7.45947 55.0731C6.59196 55.1591 5.76938 55.0603 5.0613 54.5007C4.44468 54.1082 4.25417 53.1031 3.25376 53.2664C3.132 53.1801 3.0066 53.0945 2.88485 53.0082C2.46714 51.9589 3.58311 51.8079 3.94123 51.2155C4.12232 50.9302 4.28678 50.6367 4.47286 50.358C6.36942 49.0027 8.43594 47.8713 10.0605 46.1496C10.2025 45.9992 10.5302 46.1374 10.7651 46.2027C11.0954 46.3142 11.4175 46.4421 11.7095 46.632C12.8371 48.8603 10.5532 47.846 10.0263 48.3834C11.0497 48.7304 10.9217 49.7684 11.2608 50.5167C11.3264 50.7073 10.3969 51.0491 11.3512 51.1047C11.3442 51.2299 11.3242 51.4064 11.2409 51.4257C9.74598 51.7522 9.32355 53.0552 8.69208 54.1679C8.66349 54.3799 7.85608 53.7936 8.32931 54.5321C8.25817 55.0637 7.9829 55.2688 7.45947 55.0731Z" fill="#689E33"/>
<path d="M18.6005 21.8002C19.4231 21.7976 20.3298 21.7193 19.7451 23.0224C20.4584 23.3256 19.0317 24.4058 20.2895 24.5102C20.4813 25.4812 19.6449 25.877 19.1625 26.4512C17.6623 28.2324 16.3393 30.1347 15.1078 32.1026C14.9306 32.8154 14.574 33.355 13.7873 33.4898C12.9031 33.3236 12.6192 34.214 11.9947 34.5103C11.3518 34.5659 10.5232 35.2269 10.2564 34.0144C9.96202 32.6943 11.0015 32.5988 11.8419 32.3263C13.2957 31.6768 13.497 30.3623 13.6231 29.0091C13.7323 28.7635 13.8967 28.5714 14.1487 28.4645C14.3239 28.4319 14.4837 28.4586 14.6314 28.5626C15.9037 28.3187 16.041 28.0415 15.6416 26.5419C15.7566 25.9008 16.6564 26.0904 16.7937 25.4677C16.9343 25.3101 17.1612 25.2304 17.2292 25.0074C17.0921 25.2244 16.8551 25.3511 16.7223 25.5711C16.48 25.9128 15.9546 25.8489 15.7493 26.2477C15.3323 26.6857 15.7745 27.1558 15.6988 27.6018C15.6006 28.191 15.5405 28.8632 14.6234 28.5603C14.2592 27.9819 14.179 27.347 14.2368 26.6827C15.5898 24.9626 16.9702 23.2675 18.6005 21.8002Z" fill="#6A9E37"/>
<path d="M11.9544 32.4443C11.9721 32.8242 11.8986 33.3224 11.4557 33.1943C10.7932 33.0019 10.62 32.9439 10.6208 33.7814C10.6248 35.1442 11.3604 33.8806 11.6414 34.1327C11.7276 34.2106 11.8359 34.2656 11.9311 34.3305C11.9461 34.6959 11.7687 34.9805 11.5464 35.2472C11.4295 35.3703 11.2991 35.4809 11.1543 35.5754C9.27781 36.6528 8.2661 38.6249 6.60474 39.9252C6.32182 40.0079 6.11505 39.9111 5.96496 39.6722C5.84545 39.3339 6.13444 38.9383 5.8261 38.62C6.04323 38.0613 6.72461 38.0098 7.00213 37.5526C7.2121 37.3821 6.75985 37.346 6.96904 37.4761C6.38087 38.0699 5.75271 38.6111 4.94621 38.9037C3.12065 38.2024 4.92285 37.2741 4.79864 36.4633C6.46987 34.3423 8.29892 32.3797 10.4702 30.7556C11.0716 30.8016 11.6581 30.9105 12.1803 31.2417C12.4233 31.6961 12.2495 32.0815 11.9544 32.4443Z" fill="#71A63B"/>
<path d="M8.37824 54.1248C8.62418 53.5383 9.15871 52.8793 9.04304 52.3786C8.86623 51.6302 9.00167 51.6276 9.63966 51.6067C10.2099 51.5871 10.8856 51.6269 11.2495 50.9846C12.1612 50.2217 13.0371 49.3678 14.3957 49.6488C14.4109 50.401 15.3431 50.0738 15.5828 50.6528C14.6009 51.1395 13.762 51.7047 13.4009 52.8499C13.1397 53.6797 12.4505 54.0143 11.5044 54.2464C10.559 54.4822 9.363 54.2837 8.63576 55.2264C8.21927 55.3827 7.82283 55.3624 7.4638 55.076C7.89934 54.9613 8.15259 54.7189 8.07017 54.2347C8.1224 54.0484 8.22555 54.0142 8.37824 54.1248Z" fill="#70A739"/>
<path d="M5.96674 38.808C6.41773 38.9796 6.08701 39.2927 6.09936 39.5421C5.97926 40.1354 5.83957 40.7247 5.57527 41.2734C5.4412 41.6289 5.40214 42.008 5.31957 42.3764C5.11641 43.1729 4.65271 43.4206 3.8924 43.0473C3.73657 43.0011 3.58534 42.939 3.44006 42.8684C3.22357 42.7396 3.06968 42.5616 3.00394 42.3296C2.97775 42.2293 3.0616 42.071 3.03296 42.0387C2.95865 41.9436 2.9001 42.0146 2.87301 42.1736C2.83415 42.3912 2.71852 42.5817 2.58991 42.7634C2.06131 43.0682 1.50725 44.313 1.02823 42.7305C1.67502 40.2777 2.83993 38.1343 4.79796 36.4596C5.21723 36.9076 4.97434 37.287 4.68901 37.6819C4.4437 38.0279 4.23001 38.4019 4.81668 38.6535C5.15608 39.0375 5.59942 38.6396 5.96674 38.808Z" fill="#6FA13C"/>
<path d="M41.0956 10.4991C41.0058 10.0162 40.9154 9.52961 40.8257 9.0467C40.997 8.6881 40.9243 8.23583 41.393 7.99475C43.1358 7.09249 42.7203 6.23813 41.3167 5.40961C41.1211 5.29194 40.9854 5.06925 40.8212 4.89691C41.3408 4.36089 41.8405 4.73383 42.3192 4.9529C42.9425 5.23902 43.5662 5.44618 44.2629 5.2942C44.4232 5.2832 44.5858 5.26426 44.7434 5.23873C46.7036 6.8879 47.3604 9.00082 46.9796 11.4831C46.7678 10.343 46.5553 9.19923 46.3435 8.05913C46.6204 9.87453 44.6508 8.62153 44.3397 9.52823C43.8871 9.26674 43.9344 8.87106 44.045 8.42981C43.6595 8.95595 44.2793 9.87375 43.337 10.1465C43.1706 10.0234 43 9.89733 42.8336 9.77423C42.6902 9.42902 42.6667 8.89624 42.0653 9.39861C41.6805 9.72553 41.8875 10.5548 41.0956 10.4991Z" fill="#79A842"/>
<path d="M44.0708 16.3319C44.2932 17.8945 44.8831 16.8834 45.377 16.5137C45.327 18.9269 43.7812 20.6866 42.6548 22.6312C41.872 22.2583 42.0911 21.4664 41.897 20.8488C42.089 20.4187 42.3185 20.008 42.6688 19.6988C42.7443 19.6171 42.7999 19.5505 42.8143 19.5065C42.7508 19.5708 42.677 19.6409 42.5876 19.7289C42.2459 20.044 42.0638 20.446 41.9064 20.8584C41.1689 21.0142 40.9433 20.41 40.6031 19.9811C41.3274 19.1442 41.7 18.0607 42.5027 17.2806C43.2275 17.2999 43.2267 16.1168 44.0708 16.3319Z" fill="#699D39"/>
<path d="M4.49426 51.4283C4.21339 52.2129 2.8967 51.9542 2.88485 53.0082C1.89376 52.3885 1.19349 51.5457 0.897328 50.3987C0.429582 49.0395 0.14797 47.6457 0.132786 46.2023C0.0430312 45.8208 -0.139037 45.4302 0.21481 45.079C0.871425 44.7316 1.25796 45.227 1.70309 45.55C1.94533 45.8581 2.02469 46.2039 1.95211 46.5855C1.87119 46.8409 1.71379 47.0505 1.55139 47.2535C1.3203 47.9199 1.01351 48.5854 1.49285 49.2551C1.4792 49.2426 1.54756 49.3464 1.54756 49.3464C1.54756 49.3464 1.57045 49.2257 1.55747 49.2168C1.26413 48.9182 1.22746 48.6396 1.58155 48.371C2.21679 48.0914 2.78341 48.0725 3.17217 48.7628C3.38756 49.7595 3.3404 50.8876 4.49426 51.4283Z" fill="#70A53B"/>
<path d="M11.9544 32.4443C12.0031 32.0559 12.0554 31.6668 12.1041 31.2784C11.476 31.0683 11.3635 30.5032 11.19 29.9758C11.9915 28.6812 13.1789 27.7357 14.2391 26.6748C14.7602 27.224 14.9652 27.8395 14.632 28.5663C14.5079 28.5893 14.3875 28.6117 14.2634 28.6347C14.0822 28.5332 13.9246 28.5587 13.8358 28.7517C13.7817 28.867 13.8355 28.9734 13.9566 29.0561C13.8154 30.4909 14.0307 32.1375 11.9544 32.4443Z" fill="#75A640"/>
<path d="M1.54369 45.6472C0.95554 45.7941 0.700425 45.1728 0.21481 45.079C0.395669 44.2641 0.4157 43.3964 1.0239 42.7275C1.73137 43.8732 1.97107 42.5215 2.45458 42.4617C2.7118 42.444 2.91871 42.1351 3.21439 42.3243C3.38534 42.4315 3.55696 42.5424 3.72425 42.6503C3.97247 43.2953 4.01471 43.8885 3.29414 44.2778C3.02846 44.128 2.8009 43.96 3.03891 43.6153C2.7784 43.7576 2.95133 43.9771 2.95749 44.1525C2.97517 44.6338 3.01474 45.111 2.63209 45.4901C2.29101 45.6661 1.89719 45.5177 1.54369 45.6472Z" fill="#76AA3F"/>
<path d="M41.0469 4.09998C41.246 3.62726 41.6963 3.65254 42.0971 3.57432C42.9568 3.56859 43.2316 2.40569 44.1629 2.54069C44.6901 2.5742 44.8446 2.95868 44.968 3.37899C44.8789 3.99655 44.1757 4.54038 44.7427 5.2351C44.6968 5.29247 44.6494 5.34258 44.5948 5.39405C43.1591 5.65327 41.9889 5.18705 41.0469 4.09998Z" fill="#7DAC46"/>
<path d="M44.9687 3.38262C44.7132 3.18594 44.454 2.98994 44.1985 2.79326C43.7411 2.2622 44.4359 1.79506 44.284 1.28239C44.3327 0.691117 44.9463 0.498239 45.1737 0.0352984C46.2014 0.343943 46.4849 0.914803 45.8589 1.85372C45.535 2.34586 45.2623 2.86981 44.9687 3.38262Z" fill="#75A044"/>
<path d="M11.19 29.9758C12.2961 29.8529 11.54 31.0264 12.1041 31.2784C11.4397 31.4619 10.8575 31.3973 10.4689 30.7483C10.7085 30.4934 10.9474 30.2349 11.19 29.9758Z" fill="#6A9E37"/>
<path d="M3.25376 53.2664C5.01877 51.9957 4.53393 53.9789 5.0613 54.5007C4.27212 54.3581 3.78708 53.7796 3.25376 53.2664Z" fill="#70A53B"/>
<path d="M0.132786 46.2023C0.388849 47.6009 0.641264 49.0002 0.897328 50.3987C0.064613 49.1073 -0.184152 47.7074 0.132786 46.2023Z" fill="#76AA3F"/>
<path d="M38.2837 13.6546C39.2333 13.4819 38.1206 11.4762 39.4721 12.044C40.8402 12.62 38.7395 13.2018 39.1126 13.9701C39.1607 14.0664 39.1083 14.2113 39.0964 14.33C39.0279 14.9775 38.7111 15.6298 38.9928 16.2724C39.1048 16.5296 39.4521 16.4275 39.6285 16.2595C40.2449 15.6754 39.8239 14.9536 39.7593 13.9965C40.9275 16.0369 41.6119 15.0871 42.1975 13.8289C42.7736 14.552 41.5562 15.3154 42.4571 15.8767C42.7028 16.8941 42.2412 17.5395 41.3491 17.9607C40.7134 18.1764 40.1253 18.2218 39.752 17.5136C39.5841 17.7477 39.3595 17.8194 39.0948 17.756C39.3513 17.7346 38.7516 17.7784 38.9603 17.642C38.9736 17.632 38.9298 17.5387 38.9117 17.4819C38.4911 18.6118 37.6257 19.3999 36.8571 20.2827C36.4964 20.699 36.5855 21.4224 36.6255 22.0235C35.0921 24.2767 34.0245 26.8828 31.6753 28.525C30.6723 28.1667 29.8654 28.8838 28.956 29.049C28.5027 29.1294 28.0994 29.4786 27.5998 29.2484C27.1175 28.4815 27.8474 28.0004 28.0362 27.3906C28.2863 26.8671 28.2977 26.2377 28.7626 25.8132C29.8546 24.6187 28.7676 23.6863 28.3068 22.7502C28.0897 22.3135 27.3837 22.1104 27.8667 21.4384C28.0085 21.3482 28.1631 21.2857 28.3289 21.2436C29.445 21.0325 30.3993 20.6411 30.5432 19.3222C31.5465 18.6663 31.6321 17.2981 32.6304 16.6356C33.0311 16.3133 32.8354 16.0116 32.5945 15.7107C32.2013 15.2204 32.2167 14.7142 32.5482 14.2018C33.24 13.292 33.6997 12.23 34.452 11.3615C34.9559 11.4519 35.8749 12.2728 35.4768 10.7805L35.4738 10.7848C36.0617 10.5553 36.649 10.3223 37.2369 10.0929C38.2229 10.5632 38.99 11.1156 38.0902 12.3082C37.71 12.8221 38.2416 13.2042 38.2837 13.6546C38.0245 13.9056 37.7617 14.1573 37.5917 14.4818C37.8372 14.2183 38.0202 13.9026 38.2837 13.6546Z" fill="#6DA434"/>
<path d="M36.4353 5.73805C36.8566 4.61179 38.012 5.09955 38.7763 4.70212C39.2135 4.4744 39.3484 5.05786 39.4575 5.36062C39.7142 6.07169 39.1215 5.68598 38.8695 5.7929C36.4972 6.78207 34.8235 8.62556 33.1577 10.4713C33.0085 10.7657 32.8334 11.0424 32.6323 11.3014C31.5147 12.4594 30.6213 13.8086 29.5 14.9672C28.3117 15.928 28.1808 15.9147 27.937 14.8257C30.4433 12.2002 32.7875 9.41326 35.5615 7.04981C35.7119 6.51852 36.512 6.41495 36.4353 5.73805Z" fill="#5E9232"/>
<path d="M27.9406 14.825C28.6895 16.1733 28.9063 14.5967 29.4012 14.5574C30.7886 14.3635 30.962 14.6468 30.4576 16.2805C29.2934 17.0866 28.5273 18.2468 27.7036 19.3615C27.1726 20.0799 26.7235 20.9146 25.6668 20.9982C25.303 20.8893 25.0662 20.6515 24.9536 20.2893C24.9145 18.9406 26.0684 18.2417 26.5352 17.4826C26.4593 17.6432 26.1624 17.6908 25.7867 17.4977C26.3188 16.4598 26.7364 15.3342 27.9406 14.825Z" fill="#75A940"/>
<path d="M14.9124 31.9248C14.4675 31.6844 14.723 31.3928 14.9123 31.1924C16.9023 29.1211 18.1664 26.4747 20.2852 24.5072C20.9032 23.7689 21.5211 23.0305 22.1391 22.2922C22.2089 22.3431 22.2788 22.3939 22.3523 22.4441C22.7957 23.1844 22.3794 23.7688 21.9987 24.3616C21.4618 24.9873 20.827 25.5334 20.4065 26.2576C19.2747 28.0305 17.8754 29.5826 16.3818 31.0546C15.9197 31.3921 15.5897 31.953 14.9124 31.9248Z" fill="#588C32"/>
<path d="M22.324 21.1535C23.2551 20.0076 24.4638 19.0957 24.4626 17.3417C24.464 16.1095 25.9631 15.6431 26.4869 14.5805C26.6911 15.3952 25.9716 15.8106 25.7334 16.4183C25.5488 16.8883 24.5926 17.2688 25.4974 17.912C25.5497 19.6565 24.1394 20.5608 23.2583 21.7725C22.6439 22.0219 22.5669 21.4652 22.324 21.1535Z" fill="#75A940"/>
<path d="M23.2002 21.6631C23.6199 20.2028 25.0475 19.3516 25.4967 17.9084C25.5919 17.7705 25.6915 17.6356 25.7867 17.4977C26.5993 17.3805 26.7309 16.402 27.7958 16.0576C26.8137 17.5998 25.9807 18.9078 25.1476 20.2157C25.0346 20.9692 24.5676 21.4428 23.9206 21.7809C23.6609 21.8667 23.4126 21.8715 23.2002 21.6631Z" fill="#588F32"/>
<path d="M32.5039 10.9759C32.5982 10.6504 32.8655 10.5444 33.1577 10.4713C33.492 10.9088 33.6358 11.6221 34.4527 11.3651C34.285 12.5757 33.6899 13.539 32.744 14.3007C31.9442 13.2473 32.5254 12.0875 32.5039 10.9759Z" fill="#76AA41"/>
<path d="M34.6515 5.01772C35.6354 4.19636 36.6807 3.604 38.0239 3.84276C36.97 4.42922 36.0648 5.38994 34.6515 5.01772Z" fill="#8FBC5D"/>
<path d="M44.284 1.28239C45.1873 1.83577 44.1186 2.28222 44.1985 2.79326C43.3887 2.7634 43.0868 4.08533 42.0971 3.57432C42.7772 2.76432 43.3655 1.86622 44.284 1.28239Z" fill="#86B652"/>
<path d="M41.0469 4.09998C42.117 4.84022 43.363 5.10455 44.5948 5.39405C43.9367 6.24128 43.1821 5.77672 42.4828 5.50848C41.9305 5.29933 41.4895 4.79529 40.8169 4.89396C40.7688 4.59487 40.7803 4.31103 41.0469 4.09998Z" fill="#5A8B31"/>
<path d="M40.4871 7.224C40.0843 7.53547 39.6816 7.84694 39.1344 7.82839C38.9414 7.09423 39.4566 6.7581 39.9486 6.41879C40.2332 6.22318 40.5969 5.94526 40.8649 6.33119C41.1279 6.71053 40.5379 6.88777 40.4871 7.224Z" fill="#598C31"/>
<path d="M23.2002 21.6631C23.4358 21.6306 23.6714 21.5981 23.907 21.5656C24.2438 21.9763 24.1679 22.3397 23.7331 22.6008C23.128 22.9611 22.5924 22.8014 22.1427 22.2915C22.2044 21.9119 22.2653 21.5288 22.3233 21.1499C22.6163 21.3246 22.9079 21.492 23.2002 21.6631Z" fill="#92BD5E"/>
<path d="M29.0034 10.6685C29.2841 9.84252 29.7731 9.26337 30.9192 9.09175C30.4452 10.0362 29.7235 10.3581 29.0034 10.6685Z" fill="#92BC59"/>
<path d="M36.4353 5.73805C36.9113 5.69846 37.2118 5.85297 36.7789 6.28649C36.4472 6.6148 35.9757 6.80007 35.5658 7.05277C35.1099 6.12328 36.1595 6.18371 36.4353 5.73805Z" fill="#7CB04A"/>
<path d="M37.4034 8.91627C37.6899 8.9344 38.0729 8.88203 38.0771 9.29069C38.0828 9.78919 37.6907 9.97474 37.2611 10.0808C37.1709 9.6769 37.0379 9.26588 37.4034 8.91627Z" fill="#8AB859"/>
<path d="M35.4775 10.7841C35.1459 10.8081 34.7682 11.0511 34.5223 10.6423C34.4833 10.5744 34.6292 10.3031 34.7383 10.2603C35.2125 10.0896 35.3655 10.4255 35.4775 10.7841Z" fill="#86B450"/>
<path d="M31.3203 8.54771C31.5073 8.3552 31.6097 8.17466 31.747 8.14164C31.8551 8.11403 32.008 8.26594 32.1423 8.33864C32.0398 8.47789 31.9627 8.67251 31.8264 8.73163C31.7246 8.77308 31.5483 8.63682 31.3203 8.54771Z" fill="#9DC55F"/>
<path d="M28.8493 31.9498C29.2017 32.4853 29.8457 32.9029 29.5625 33.6954C29.6148 35.3385 28.0926 35.9856 27.29 37.0513C26.091 38.645 24.6108 40.0469 23.1133 41.3957C22.4445 41.4335 21.8596 41.2116 21.6376 40.5655C21.4122 39.9012 22.0948 39.8157 22.4732 39.5764C23.0684 39.2029 23.1579 38.6078 23.2468 38.009C23.268 37.8999 23.2806 37.7849 23.281 37.6646C22.9275 37.6927 22.9279 38.0608 22.7273 38.2408C22.3844 38.7327 21.804 38.9006 21.3492 39.2368C21.0805 39.437 20.8049 39.6196 20.4859 39.7315C18.9659 40.228 18.3842 42.0151 16.7836 42.4026C16.3202 42.4286 15.7289 42.2943 15.8444 41.8184C16.0461 40.9733 16.3441 40.0577 17.2096 39.6152C17.5265 39.4512 17.8797 39.3405 18.2146 39.0904C18.0026 38.9045 17.668 39.0342 17.5071 38.8388C16.8714 38.0591 16.3685 37.1609 15.0504 37.8904C14.6666 38.1006 13.7986 37.9201 14.0327 36.9037C14.2366 36.0094 12.9652 36.4823 12.8433 35.8063C12.809 35.5197 12.9252 35.2915 13.1131 35.0838C13.3188 34.9104 13.5598 34.8055 13.8142 34.7319C14.428 34.7231 14.7451 33.9505 15.4234 34.1062C15.8769 34.2097 16.4561 34.5228 16.7201 33.993C17.03 33.3644 15.9004 33.4015 15.9603 32.7894C15.926 32.2999 16.183 31.9555 16.5323 31.6614C17.707 30.9323 18.1827 29.4279 19.5758 28.9399C20.2886 28.9352 21.0152 29.2697 21.7043 28.9952C22.8005 28.5549 22.8107 29.5446 23.2105 30.03C23.3104 30.1617 23.3796 30.3104 23.4239 30.4674C23.4355 31.1602 22.786 31.5663 22.6704 32.2038C22.7998 33.5508 22.2036 34.3452 20.6599 34.4292C21.7595 35.7349 22.7128 34.2205 23.6364 34.5786C25.2863 34.7003 25.8926 33.7162 26.0853 32.2943C25.9329 31.7179 25.904 31.1561 26.6045 30.9433C27.3014 30.7312 28.0277 30.3934 28.7506 30.6873C29.4852 30.9828 28.707 31.5293 28.8493 31.9498Z" fill="#6BA235"/>
<path d="M23.7087 34.7642C22.4583 35.0454 21.0276 36.6522 20.0805 34.1762C21.365 33.9977 22.4133 33.5024 22.4391 31.9951C22.6271 31.686 22.9096 31.5809 23.2529 31.5998C23.401 31.6248 23.531 31.6946 23.6372 31.7988C23.6973 31.9191 23.707 32.0525 23.6775 32.1782C23.6913 32.679 23.9544 32.3071 24.1134 32.2888C24.3473 32.0237 24.1079 31.7715 24.0935 31.5112C24.4914 30.1977 25.5197 29.4733 26.6162 28.8113C26.9955 28.7596 27.2944 28.9257 27.5654 29.1646C28.555 28.7403 29.6044 28.4139 30.5144 27.8655C31.373 27.3453 31.3924 27.9578 31.601 28.4299C31.9002 29.2683 31.1047 29.5588 30.7629 30.0768L30.7695 30.0718C30.1649 30.5973 29.8032 31.3331 29.2116 31.8675C29.0911 31.8899 28.972 31.9195 28.8536 31.9528C27.5312 31.8867 28.4843 31.3265 28.7067 30.857C27.8915 31.4892 26.2157 30.5573 26.2948 32.4057C25.7647 33.5559 25.2469 34.7113 23.7087 34.7642Z" fill="#70A739"/>
<path d="M23.0206 41.2626C25.0498 38.6094 27.9287 36.6884 29.5625 33.6954C29.9054 33.6918 30.2156 33.1872 30.5433 33.5282C30.7827 33.7805 30.5404 34.0208 30.3068 34.2671C27.9098 36.8309 25.5432 39.4154 23.1649 41.9984C22.8265 43.5712 21.3442 43.7827 20.2347 44.4359C18.9217 45.4161 17.7916 46.5275 17.2771 48.1481C17.2321 48.2917 17.5411 49.0607 16.7724 48.6626C15.615 48.0625 15.0364 48.9513 14.3907 49.6422C13.3059 50.0015 12.447 50.886 11.2446 50.978C11.0725 50.9461 10.9041 50.9135 10.732 50.8816C10.8775 50.7907 11.0266 50.6992 11.1721 50.6083C11.8098 49.4681 13.0929 49.1396 14.0394 48.3815C16.4777 46.426 18.7777 44.3159 21.1457 42.2871C21.7007 41.8196 22.1926 41.2362 23.0206 41.2626Z" fill="#568E32"/>
<path d="M20.2354 44.4395C21.2133 43.6268 22.1876 42.8147 23.1655 42.002C24.0086 41.8453 24.8517 41.6887 25.6911 41.5328C26.1104 42.2249 25.2183 42.3005 25.1927 42.7522C24.5653 43.297 24.1371 44.1015 23.2053 44.2483C22.154 43.3656 21.2457 44.695 20.2354 44.4395Z" fill="#6EA63C"/>
<path d="M27.6403 39.6681C28.5639 37.8926 29.5135 36.1348 31.17 34.8692C30.4978 36.8196 29.3097 38.4114 27.6403 39.6681Z" fill="#6FA73E"/>
<path d="M23.2046 44.2447C23.7078 43.5389 24.384 43.0527 25.1921 42.7486C24.1221 44.0818 23.8412 46.4515 21.2172 45.7408C21.5048 44.7483 22.7171 44.9738 23.2046 44.2447Z" fill="#609633"/>
<path d="M19.5907 46.3548C19.6114 47.32 19.3688 48.1276 18.3293 48.4259C18.8194 47.7714 19.1122 47.0108 19.5907 46.3548Z" fill="#70A739"/>
<path d="M27.6403 39.6681C27.5066 40.1475 27.2648 40.553 26.8434 40.8454C26.3692 39.7766 26.3692 39.7766 27.6403 39.6681Z" fill="#6FA73E"/>
<path d="M29.2072 31.8646C29.5466 31.1104 29.8644 30.3414 30.7652 30.0688C30.5881 30.4774 30.4111 30.8859 30.2347 31.298C29.8963 31.4886 29.5499 31.6769 29.2072 31.8646Z" fill="#5B9232"/>
<path d="M19.9901 47.8544C20.3652 46.9471 20.6362 46.6376 21.2552 46.7179C21.263 47.4301 20.7592 47.4824 19.9901 47.8544Z" fill="#75AD40"/>
<path d="M21.2179 45.7444C20.9237 45.8479 20.7355 46.3186 20.3333 46.0027C20.2843 45.963 20.2851 45.7637 20.3384 45.705C20.6352 45.3719 20.9345 45.459 21.2179 45.7444Z" fill="#7CB348"/>
<path d="M30.7629 30.0768C31.0425 29.529 31.3214 28.9776 31.601 28.4299C33.672 26.5914 34.9351 24.1631 36.4113 21.8868C36.8049 20.6117 37.3845 19.4635 38.6024 18.7639C38.6881 18.7781 38.7775 18.7915 38.8632 18.8057C39.0346 19.4236 38.5335 19.836 38.3804 20.3528C38.3474 20.7646 38.1334 21.056 37.7725 21.247C35.5946 23.8115 34.1304 26.9044 31.7696 29.3376C31.4688 29.6489 31.2248 30.0022 30.7629 30.0768Z" fill="#5B9232"/>
<path d="M41.3535 17.9636C41.7226 17.2677 42.0923 16.5755 42.4614 15.8796C43.105 14.9337 43.037 13.5716 44.2016 12.9307C44.7327 14.7327 43.6469 16.0012 42.7386 17.3306C42.075 18.2502 41.8726 19.5387 40.6061 19.9768C40.4095 19.1419 41.238 18.6837 41.3535 17.9636Z" fill="#5A9032"/>
<path d="M36.8325 27.995C37.1856 26.2579 38.2354 25.6084 39.018 24.7606C38.6189 25.8639 38.0432 26.8498 36.8325 27.995Z" fill="#5C9433"/>
<path d="M40.0998 24.1614C39.7252 23.3032 39.9827 22.7182 40.9809 22.1158C40.5905 23.0223 40.3455 23.5936 40.0998 24.1614Z" fill="#7CB249"/>
<path d="M39.0437 17.664C39.2796 17.6127 39.5198 17.5643 39.7557 17.513C39.5966 18.0384 39.325 18.487 38.8625 18.802C38.3765 18.3402 38.5862 17.9857 39.0437 17.664Z" fill="#5B9232"/>
<path d="M37.7725 21.247C37.9741 20.9504 38.1794 20.653 38.3804 20.3528C38.7229 21.0178 38.496 21.3004 37.7725 21.247Z" fill="#85B655"/>
<path d="M42.7349 17.3313C43.1289 15.8345 43.9967 14.4901 44.198 12.9314C44.985 12.2293 44.9365 13.4515 45.4125 13.4532C45.8752 14.2162 44.6029 14.6028 44.9908 15.3496C45.3438 16.2945 44.066 15.7167 44.0672 16.3326C43.4827 16.4787 43.5944 17.5473 42.7349 17.3313Z" fill="#78AC47"/>
<path d="M43.3376 10.1501C43.959 9.32851 43.2504 8.11544 44.1984 7.20307C44.7494 8.0548 43.9065 8.84245 44.3397 9.52823C44.3469 9.83114 44.4142 10.1529 44.3387 10.4374C44.234 10.8287 44.0966 11.4102 43.565 11.2723C42.9726 11.1119 43.4456 10.5282 43.3376 10.1501Z" fill="#9FC26C"/>
<path d="M41.0956 10.4991C41.2295 10.1023 41.4106 9.71558 41.4821 9.30789C41.6209 8.53085 42.362 8.67865 42.6925 8.72994C43.4776 8.85076 42.7748 9.41705 42.835 9.7815L42.8356 9.78513C42.1061 9.69906 42.3282 10.5292 41.9066 10.739C41.7882 11.0164 41.5774 11.2434 41.2791 11.1824C40.8699 11.0932 41.1065 10.7412 41.0956 10.4991Z" fill="#96C060"/>
<path d="M44.9945 15.3489C44.1421 14.5006 45.4855 14.1308 45.4162 13.4526C46.3874 14.3314 44.957 14.6798 44.9945 15.3489Z" fill="#9EC972"/>
<path d="M41.9096 10.7347C42.0785 10.2826 41.9482 9.54057 42.8393 9.78445C42.7579 10.3217 42.4281 10.6196 41.9096 10.7347Z" fill="#79A842"/>
<path d="M23.0206 41.2626C20.1493 43.7118 17.2486 46.125 14.4209 48.6262C13.4385 49.4961 12.3174 50.0462 11.1771 50.6149C10.0517 50.3695 10.8989 48.6908 9.65355 48.5315C9.77809 47.9825 10.15 47.8909 10.6641 47.8742C11.3137 47.855 12.152 47.8758 11.6017 46.7835C11.214 46.5663 12.6379 45.9186 11.3874 45.9143C10.4645 46.1497 9.61204 45.8085 8.73813 45.6365C8.07181 45.5049 7.86609 45.0886 7.99106 44.4606C8.13323 44.1487 8.38457 43.9368 8.65889 43.7468C9.38585 43.6155 9.29423 43.163 9.08462 42.6648C9.12174 42.4175 9.23968 42.2191 9.41477 42.0438C9.78429 41.716 10.1096 41.3738 9.88989 40.8212C9.06178 39.5138 10.0314 38.8191 10.8606 38.1204C11.252 37.7885 11.9308 37.7638 11.9562 37.0266C11.5091 36.5913 10.7399 37.369 10.364 36.6463C10.2718 35.8859 10.9583 35.6381 11.3347 35.1851L11.3251 35.1944C11.4871 34.9689 11.7176 34.8886 11.9848 34.884C12.4296 34.9816 12.7669 35.212 12.9285 35.6552C13.4164 36.1881 15.4585 35.5345 14.2428 37.3643C14.8323 37.3261 15.4268 37.9857 16.0023 37.3642C16.2508 37.0964 16.4404 36.7757 16.6617 36.4829C16.8214 36.2654 17.0275 36.1558 17.2806 36.3191C17.5128 36.4713 17.518 36.6619 17.4491 36.9414C17.0665 38.4586 17.3901 38.7779 18.9437 38.3202C18.6669 39.8178 17.0483 40.0884 16.4353 41.2391C16.0849 41.8939 15.9573 42.0603 16.7746 42.07C16.9336 43.1899 15.59 43.1315 15.349 43.8261C16.5799 42.8912 17.7337 41.7453 19.0222 40.7547C19.1912 40.7496 19.3463 40.7921 19.5048 40.8528C19.6554 40.9112 19.701 41.177 19.9347 41.0734C19.7745 40.983 19.7272 40.8303 19.6955 40.6596C19.6993 40.4974 19.7444 40.3538 19.833 40.2209C20.246 39.8023 21.0607 39.7975 21.1052 39.0004C21.5467 38.6742 21.9926 38.351 22.4342 38.0248C22.7645 37.6892 23.1233 37.5474 23.5465 37.8745C23.805 39.205 23.4529 40.1343 21.9152 40.251C21.8837 41.0569 22.7475 40.8288 23.0206 41.2626Z" fill="#6EA537"/>
<path d="M8.15042 44.4648C8.84806 45.8828 10.312 45.2878 11.3987 45.6906C11.6614 46.2916 11.1939 46.3973 10.8037 46.5524C10.1486 46.1971 9.99265 46.658 9.64174 47.1063C8.35021 48.7511 6.39817 49.5232 4.68607 50.6113C4.13327 50.1356 3.59237 49.6426 3.01145 49.1984C2.73105 48.2175 2.00386 48.6118 1.38194 48.6785C1.10208 48.107 1.00037 47.4986 1.04533 46.8667C1.29283 46.8169 1.54033 46.7672 1.79149 46.7168C2.05897 46.3478 1.89102 45.7893 2.34365 45.5023C2.5196 44.8236 2.69487 44.1412 2.92793 43.2415C3.08672 43.7303 3.18016 44.0097 3.27062 44.2934C3.73608 44.421 3.8536 43.8545 4.23424 43.8101C5.29967 43.631 5.40276 42.5601 5.99351 41.9395C6.53995 41.2632 7.05504 40.5402 8.03947 40.4738C8.30979 40.5062 8.52993 40.6343 8.71409 40.833C8.80879 40.9769 8.86537 41.1392 8.89275 41.3069C8.9599 41.7903 8.88808 42.3182 9.3267 42.6875C9.55979 43.2714 9.88695 43.8943 8.80116 43.9232C8.48498 43.9895 8.17746 44.0616 8.15042 44.4648Z" fill="#73AA38"/>
<path d="M3.0078 49.199C3.97613 49.1882 4.6348 49.5428 4.68242 50.612C4.4185 50.8376 4.41867 51.123 4.49426 51.4283C2.93122 51.3881 2.66404 50.4987 3.0078 49.199Z" fill="#D0D671"/>
<path d="M10.8 46.5531C10.9994 46.2644 11.1994 45.9793 11.395 45.6913C11.7905 45.4826 12.3227 44.8316 12.6048 45.3539C13.0313 46.146 11.9928 46.3277 11.5974 46.7806C11.2968 46.8289 11.0116 46.818 10.8 46.5531Z" fill="#5C9332"/>
<path d="M8.37824 54.1248C8.26808 54.1416 8.16494 54.1757 8.06517 54.2281C7.72928 54.2492 7.35495 54.4089 7.09541 54.089C7.04177 54.0238 7.12554 53.7228 7.21206 53.6804C7.73685 53.4364 8.09779 53.6924 8.37824 54.1248Z" fill="#97C267"/>
<path d="M6.32611 49.9686C6.5184 50.1094 6.73207 50.1824 6.76163 50.3009C6.83194 50.6183 6.55401 50.7075 6.31476 50.7407C6.112 50.7671 5.74525 50.9066 5.82933 50.4853C5.8663 50.2982 6.13478 50.1581 6.32611 49.9686Z" fill="#73AA38"/>
<path d="M6.10838 53.0441C5.98405 52.9845 5.7901 52.9567 5.71242 52.8434C5.58975 52.6709 5.71538 52.4935 5.90623 52.4844C6.05262 52.4797 6.24804 52.5561 6.33965 52.663C6.51056 52.8717 6.29332 52.9421 6.10838 53.0441Z" fill="#84B24D"/>
<path d="M16.7645 31.915C16.5651 32.2037 16.3658 32.4924 16.1665 32.7811C15.8076 33.9183 14.5316 34.1629 13.928 35.0601C13.6971 35.118 13.4699 35.1753 13.239 35.2332C12.852 34.674 13.2894 34.1833 13.3662 33.662C13.4252 33.512 13.5188 33.3857 13.6433 33.2837C14.3342 33.0802 14.6509 32.5293 14.9131 31.9284C15.3217 31.5671 15.5474 30.973 16.1975 30.916C16.5032 31.017 16.6891 31.2454 16.8403 31.5103C16.8905 31.6587 16.8667 31.7946 16.7645 31.915Z" fill="#92BF5E"/>
<path d="M15.7503 26.4766C16.0982 26.9266 16.8273 27.2945 16.2776 27.9938C15.8837 28.4952 15.4481 29.1584 14.6314 28.5626C15.2848 28.3811 15.5211 27.9053 15.298 27.3344C15.0749 26.7636 15.2538 26.4261 15.6865 26.1129C15.8108 26.1724 15.8658 26.2448 15.8405 26.3322C15.8195 26.4224 15.7868 26.4698 15.7503 26.4766Z" fill="#75A640"/>
<path d="M13.6426 33.2801C13.6396 33.3858 13.6439 33.4902 13.6664 33.5912C13.2553 34.2235 12.9072 34.9305 12.0255 35.0417C11.7932 35.0924 11.5603 35.1394 11.3281 35.1901C11.5274 34.9014 11.7311 34.6156 11.9341 34.3262C12.4513 33.8996 12.3388 32.4405 13.6426 33.2801Z" fill="#5C9032"/>
<path d="M15.7503 26.4766C15.728 26.3568 15.7058 26.237 15.6835 26.1172C15.866 25.6363 16.3122 25.6398 16.711 25.5507C18.0191 27.5313 15.497 25.5809 15.7503 26.4766Z" fill="#74A73F"/>
<path d="M16.6726 25.5878C17.0025 24.7828 17.5034 24.532 18.3276 24.0708C17.8721 25.0532 17.3105 25.3228 16.6726 25.5878Z" fill="#74A73F"/>
<path d="M13.9566 29.0561C13.7516 28.989 13.4518 28.9809 13.3657 28.8428C13.2136 28.5931 13.4803 28.4234 13.6765 28.3005C14.0652 28.0555 14.1835 28.3265 14.2641 28.6384C14.1609 28.774 14.0584 28.9132 13.9566 29.0561Z" fill="#85B454"/>
<path d="M11.3347 35.1851C11.2052 35.7275 10.8701 36.1391 10.4608 36.4968C9.82732 38.0457 8.47804 39.0138 7.41361 40.2144C7.17067 40.3497 6.91682 40.3856 6.64733 40.2967C6.53855 40.2193 6.48316 40.1244 6.48185 40.0157C6.47986 39.9034 6.49164 39.8448 6.51719 39.8401C7.90094 38.0617 9.05094 36.0413 11.3347 35.1851Z" fill="#5C9032"/>
<path d="M5.96674 38.808C5.53994 39.0713 5.07125 39.658 4.821 38.6565C6.05224 38.1911 6.86493 37.1799 7.89407 36.399C7.85066 37.6692 6.62972 38.0275 5.96674 38.808Z" fill="#8ABA54"/>
<path d="M6.51853 39.8474C6.54445 39.9665 6.56603 40.0827 6.58464 40.2032C6.71352 40.7953 6.539 41.2784 5.99405 41.5562C5.65229 41.7286 5.29018 41.7509 5.26698 41.1992C5.48007 40.6188 5.48868 39.9335 6.09638 39.5464C6.23908 39.6439 6.37881 39.7456 6.51853 39.8474Z" fill="#82B44E"/>
<path d="M5.26996 41.1949C6.40934 41.7796 6.09242 40.4599 6.58762 40.1989C6.8358 40.1528 7.08033 40.1073 7.32851 40.0612C7.73917 39.9549 8.15769 39.8095 8.57028 40.0183C8.77475 40.1231 9.02314 40.261 8.82218 40.5613C8.65395 40.8141 8.41973 40.7525 8.19269 40.6482C7.30593 40.8542 6.83841 41.6097 6.2016 42.145C5.88452 42.4706 5.5317 42.6037 5.11034 42.3477C5.04843 41.9535 4.89219 41.5393 5.26996 41.1949Z" fill="#71A63B"/>
<path d="M5.11169 42.355C5.47666 42.2872 5.84163 42.2193 6.20295 42.1522C5.67338 42.9192 5.65968 44.2477 4.18633 43.9993C3.75893 43.6092 3.8279 43.1269 3.92174 42.6361C4.39109 42.8457 4.85005 43.0196 5.11169 42.355Z" fill="#76AA3F"/>
<path d="M3.92471 42.6318C4.01268 43.085 4.10133 43.5418 4.1893 43.995C3.90297 44.1609 3.95432 45.3721 3.26697 44.2941C3.42206 43.7469 3.57349 43.2004 3.7279 42.6496C3.79265 42.6526 3.85969 42.6477 3.92471 42.6318Z" fill="#BDD797"/>
<path d="M3.21439 42.3243C2.97335 42.4292 2.78601 42.8434 2.45458 42.4617C2.7044 41.9571 2.67394 41.3054 3.3183 40.8514C3.6702 41.4245 3.2436 41.8719 3.21439 42.3243Z" fill="#92BE60"/>
<path d="M42.4014 19.6207C42.5588 19.0656 42.9715 18.7673 43.6193 18.4742C43.6527 19.223 43.297 19.6046 42.8003 19.9185C42.6225 19.8764 42.4908 19.7769 42.4014 19.6207Z" fill="#78A84A"/>
<path d="M42.4014 19.6207C42.5331 19.7202 42.6685 19.819 42.8003 19.9185C42.4987 20.2262 42.2015 20.5368 41.9 20.8445L41.9093 20.854C41.781 20.3257 41.9464 19.9156 42.4014 19.6207Z" fill="#93BB6D"/>
<path d="M1.04168 46.8674C1.32884 47.4375 1.43785 48.0446 1.37829 48.6792C1.66437 48.8777 1.9541 49.0755 2.2395 49.2704C2.07857 49.5219 1.89331 49.7442 1.56607 49.7712C0.853102 48.9007 0.651765 47.939 1.04168 46.8674Z" fill="#76AA3F"/>
<path d="M2.33635 45.5037C2.36105 46.0024 2.24547 46.4371 1.78419 46.7181C1.70281 46.3614 1.62508 46.004 1.54369 45.6472C1.75076 45.2782 1.88159 44.4989 2.33635 45.5037Z" fill="#98C164"/>
<path d="M1.56674 49.7748C1.67634 49.4502 1.93292 49.3274 2.24017 49.274C2.26669 49.5997 2.49295 50.0046 2.13172 50.2145C1.75954 50.4264 1.69291 50.0068 1.56674 49.7748Z" fill="#88B852"/>
<path d="M26.768 28.9371C25.9773 29.8841 24.8225 30.4968 24.2632 31.6525C24.0588 31.8933 23.8233 31.9671 23.5383 31.7947C22.8215 30.3953 24.4775 30.4482 24.737 29.7314C24.2748 29.8248 24.0585 30.774 23.2721 30.3416L23.2685 30.3423C22.6865 28.978 23.4651 27.3158 22.3178 26.0791C22.2576 25.9175 22.2382 25.752 22.2516 25.5805C22.9307 24.7444 21.984 25.1156 21.7711 24.9448C21.6107 24.7117 21.6004 24.4732 21.7554 24.2303C21.9902 23.6045 22.4609 23.0287 22.1477 22.2981C22.8553 22.3469 23.8139 22.9952 23.912 21.5721C24.327 21.1232 24.742 20.6742 25.1569 20.2253C25.3262 20.4455 25.4919 20.6664 25.6611 20.8866C25.8013 21.6005 25.0097 22.2171 25.4494 22.958C25.9878 23.4778 26.9179 23.444 27.2601 24.2293C27.3953 24.5911 27.1577 24.9583 27.2682 25.3096C27.2809 25.4387 27.3385 25.4843 27.4382 25.432C27.3878 25.3437 27.355 25.2484 27.3384 25.1388C27.3236 24.7133 27.459 24.3651 27.7905 24.0969C29.3283 24.0216 28.7471 25.1813 28.8715 25.932C28.7167 26.4603 28.5625 26.9923 28.4077 27.5206C27.8427 27.9749 27.4775 28.6513 26.768 28.9371Z" fill="#6FA337"/>
<path d="M32.5039 10.9759C33.3044 12.033 32.5104 13.2059 32.7484 14.3036C32.4651 14.9535 32.6765 15.38 33.252 15.7952C34.3122 16.5635 33.5682 16.7656 32.8257 16.9149C31.9151 16.6671 31.8815 17.4621 31.7027 17.9424C31.4685 18.5718 31.1836 19.1319 30.685 19.5776C31.294 20.9857 30.9807 21.2505 28.419 21.5048C28.4568 20.9156 29.0023 20.6001 29.2011 20.0448C28.9123 20.4816 28.7238 20.9711 28.148 21.0218C27.6507 20.6822 27.1255 22.0419 26.6348 21.0062C27.3131 19.0884 28.844 17.7973 30.1078 16.308C30.3425 15.5394 31.0511 14.5776 29.4055 14.5603C30.4278 13.3562 31.2437 11.9763 32.5039 10.9759Z" fill="#6FA337"/>
<path d="M26.8142 21.0367C27.2983 21.6304 27.4341 20.268 27.9141 20.8399C28.1763 21.0316 28.2208 21.2712 28.0659 21.5554C28.0461 21.7131 27.9988 22.0073 28.0112 22.0126C29.7597 22.3601 29.0582 24.2746 30.0256 25.2142C30.4634 25.64 29.5298 26.0613 28.8628 25.9261C28.0567 25.6514 28.853 24.3691 27.7993 24.2456C27.5534 24.2837 27.3531 24.5876 27.0613 24.3789C26.5866 23.5919 25.5484 23.8562 24.9667 23.2656C25.4322 22.3978 25.5107 21.215 26.8142 21.0367Z" fill="#71A837"/>
<path d="M39.0437 17.664C38.9857 18.0429 38.9241 18.4225 38.8625 18.802C37.6918 19.5529 37.4668 21.0446 36.407 21.8838C36.268 20.8917 35.7002 19.8478 37.2612 19.2873C37.9871 19.0285 38.0739 17.9719 38.5236 17.3437C39.0483 16.6114 39.102 17.1649 39.0437 17.664Z" fill="#73A840"/>
<path d="M30.685 19.5776C31.0773 18.6408 31.4054 17.6633 31.8901 16.7769C32.2507 16.1164 32.4485 16.1849 32.8294 16.9142C31.8095 17.5619 32.1135 19.2596 30.685 19.5776Z" fill="#89B753"/>
<path d="M28.0652 21.5518C28.0134 21.3135 27.9652 21.0745 27.9134 20.8362C29.1556 20.7144 28.6779 18.895 30.0903 18.734C29.899 19.9602 29.1128 20.7073 28.4153 21.5055C28.3008 21.5193 28.1827 21.5337 28.0652 21.5518Z" fill="#89B654"/>
<path d="M38.2837 13.6546C38.0163 14.2677 38.148 15.1598 37.1737 15.2807C37.0592 15.2944 36.8017 15.0869 36.8131 15.0059C36.9251 14.1662 37.6289 13.9303 38.2837 13.6546Z" fill="#74AA39"/>
<path d="M26.768 28.9371C27.0379 28.1545 27.6609 27.7683 28.3984 27.5111C28.1195 28.0625 27.8443 28.6132 27.5647 29.161C27.2611 29.2136 26.9789 29.1984 26.768 28.9371Z" fill="#7CAF46"/>
<path d="M26.8142 21.0367C25.9114 21.5425 25.9889 22.854 24.9703 23.2649C24.3877 22.2425 25.1274 21.5905 25.6562 20.88C27.3003 19.812 27.955 17.9099 29.3009 16.5781C29.5786 16.3049 29.6748 15.9489 30.1078 16.308C29.4094 18.1581 27.473 19.1564 26.8142 21.0367Z" fill="#82B44C"/>
<path d="M16.6738 31.5487C16.3578 31.4534 16.2538 31.1986 16.1968 30.9124C17.5203 29.2767 18.84 27.6417 20.1635 26.006C20.732 26.6479 21.2581 27.3052 20.7698 28.2335C20.6407 28.3514 20.4903 28.4357 20.3284 28.4996C19.279 28.6833 18.7753 29.5694 18.109 30.2304C17.6472 30.6918 17.3383 31.3051 16.6738 31.5487Z" fill="#83B151"/>
<path d="M20.6071 28.2111C20.5395 27.4612 19.9981 26.803 20.1635 26.006C20.4433 25.1953 21.0875 24.7 21.7474 24.228C21.7939 24.4786 21.8441 24.7284 21.8907 24.979C22.1792 25.1094 22.3419 25.3346 22.3985 25.6396C22.4128 25.7572 22.4301 25.8704 22.4517 25.9866C22.6303 26.806 22.3828 27.5056 21.8954 28.1746C21.4497 28.7833 21.0553 28.774 20.6071 28.2111Z" fill="#75AB40"/>
<path d="M20.6071 28.2111C21.9642 28.545 21.7567 27.3064 21.9286 26.7073C22.0413 26.3182 22.0968 26.1089 22.4517 25.9866C24.342 27.1379 23.3344 28.8276 23.2648 30.343C22.3713 29.029 20.7412 29.8878 19.6574 29.1351C19.3793 28.4918 19.8897 28.4346 20.29 28.2926C20.3945 28.2657 20.5026 28.2381 20.6071 28.2111Z" fill="#71A736"/>
<path d="M19.1663 40.8594C17.898 42.0604 16.6031 43.24 15.3721 44.4791C15.013 44.8426 14.7131 44.7931 14.4584 44.5399C14.1355 44.2243 14.5097 44.0233 14.7186 43.8268C15.3734 43.2055 16.2724 42.862 16.7733 42.0627C17.8953 41.5988 18.4834 40.5167 19.3942 39.8104C19.7079 39.568 19.8942 39.0263 20.424 39.48C20.4698 39.9298 20.0477 40.0758 19.844 40.3616L19.847 40.3573C19.6851 40.624 19.4792 40.8163 19.1663 40.8594Z" fill="#5D9532"/>
<path d="M13.9251 35.0644C14.3019 33.9427 15.3569 33.4837 16.1635 32.7854C16.5345 33.2987 17.8147 33.2187 17.3012 34.2756C16.8966 35.1058 16.1741 34.9358 15.4453 34.5491C14.8212 34.218 14.6949 35.6313 13.9251 35.0644Z" fill="#72A839"/>
<path d="M23.7087 34.7642C24.8506 34.2854 25.3347 33.0911 26.2868 32.4034C26.4522 32.4403 26.617 32.4735 26.7824 32.5104C26.3636 33.8127 25.3638 34.6295 24.272 35.3169C24.0023 35.491 23.8114 35.0532 23.7087 34.7642Z" fill="#5E9331"/>
<path d="M20.2863 28.2933C20.074 28.5731 19.8661 28.8559 19.6538 29.1358C18.4793 29.846 18.0801 31.3551 16.7608 31.9157C16.7306 31.7936 16.7003 31.6715 16.6701 31.5494C17.6143 30.4537 18.5572 29.3508 19.5101 28.261C19.7662 27.973 20.0376 28.0315 20.2863 28.2933Z" fill="#9FC770"/>
<path d="M19.559 33.4017C20.5206 32.6633 20.762 31.5442 21.1676 30.3946C21.9369 32.1373 21.4413 33.067 19.559 33.4017Z" fill="#81B44B"/>
<path d="M23.2648 30.343C24.277 30.1211 24.7403 29.1598 25.7739 28.3217C25.6004 30.172 23.4954 30.3039 23.531 31.796C23.166 31.8638 22.8011 31.9316 22.4361 31.9994C22.2569 31.2176 23.2266 31.0112 23.2648 30.343Z" fill="#79AC44"/>
<path d="M12.0255 35.0417C12.6121 34.6022 12.875 33.8021 13.6664 33.5912C13.8871 34.2301 13.3194 34.6698 13.2384 35.2296C13.1359 35.3688 13.0334 35.508 12.9315 35.6509C12.6265 35.4522 12.3238 35.2455 12.0255 35.0417Z" fill="#A9CB79"/>
<path d="M23.5378 37.8686C23.1658 37.9189 22.7975 37.9686 22.4255 38.0189C22.6308 37.7216 22.7974 37.3788 23.06 37.146C23.2901 36.9417 23.6297 36.473 23.9454 36.9327C24.1841 37.2827 23.7654 37.5896 23.5378 37.8686Z" fill="#95BF67"/>
<path d="M19.8374 40.3666C20.0317 40.0713 20.2267 39.7796 20.4211 39.4844C20.6476 39.3221 20.8699 39.1568 21.0965 38.9945C21.4521 40.1567 20.504 40.1338 19.8374 40.3666Z" fill="#7FB24E"/>
<path d="M23.5346 31.7953C23.7749 31.747 24.0194 31.7015 24.2596 31.6531C24.8745 31.9145 25.5617 32.1587 24.4663 32.7454C24.248 32.4441 23.5014 32.9171 23.5978 32.1555C23.5798 32.0386 23.5569 31.9152 23.5346 31.7953Z" fill="#79AC44"/>
<path d="M23.6021 32.1584C23.8918 32.3563 24.1809 32.5505 24.4706 32.7483C24.1261 32.7635 23.7803 32.8127 23.4409 32.7744C23.2367 32.7522 23.0483 32.5919 22.8532 32.4967C23.1038 32.3825 23.3508 32.269 23.6021 32.1584Z" fill="#6BA235"/>
<path d="M8.19336 40.6518C8.29813 40.606 8.45411 40.5921 8.49969 40.5122C8.6348 40.2843 8.4445 40.2558 8.28851 40.2698C7.94004 40.3045 7.5963 40.3646 7.32783 40.0576C8.05255 38.5932 9.33938 37.6142 10.4601 36.4932C10.6507 36.7057 10.8845 36.7449 11.1074 36.5833C11.5937 36.2338 12.0872 36.2886 12.5935 36.5138C12.2244 37.1082 12.6554 38.0461 11.5392 38.3586C10.5129 38.647 9.27317 39.1478 10.4467 40.6276C9.92423 41.2092 9.3177 41.3181 8.62714 40.9543C8.48376 40.8533 8.34038 40.7522 8.19336 40.6518Z" fill="#6B9F35"/>
<path d="M8.63078 40.9537C9.23731 40.8447 9.84383 40.7358 10.4504 40.6269C10.6512 41.4234 10.5502 42.0582 9.58799 42.2445C9.02668 42.1497 8.78419 41.759 8.65758 41.2604C8.64599 41.1574 8.63872 41.0574 8.63078 40.9537Z" fill="#83B24D"/>
<path d="M19.1663 40.8594C19.2715 40.5318 19.5488 40.439 19.844 40.3616C19.8546 41.1297 20.795 40.7859 21.0781 41.4357C20.247 41.7178 19.6695 41.4345 19.1663 40.8594Z" fill="#7FB24E"/>
<path d="M8.65758 41.2604C8.96794 41.5897 9.2783 41.9189 9.58799 42.2445C9.49846 42.3926 9.4119 42.5364 9.32237 42.6845C8.20877 42.6247 8.34267 41.9838 8.65758 41.2604Z" fill="#98C369"/>
<path d="M14.712 41.7996C14.3335 42.5874 13.9049 42.6783 13.3617 42.5388C13.6129 42.0414 13.9853 41.8107 14.712 41.7996Z" fill="#7CB045"/>
<path d="M8.15042 44.4648C7.90743 44.356 7.70502 44.1607 7.87163 43.9194C8.14006 43.5352 8.48592 43.6287 8.79616 43.9166C8.58159 44.103 8.36567 44.2821 8.15042 44.4648Z" fill="#95C15E"/>
<path d="M13.035 44.0118C12.8348 44.1129 12.6653 44.0542 12.6737 43.8348C12.6795 43.6835 12.7888 43.4791 12.9144 43.4032C13.0128 43.3436 13.2952 43.4001 13.3499 43.4913C13.5237 43.7971 13.1893 43.8667 13.035 44.0118Z" fill="#7CB045"/>
<path d="M4.39662 48.017C3.67924 47.7934 3.31917 47.3795 3.43537 46.7043C3.49415 46.3704 3.88086 46.3586 4.17216 46.3008C4.26672 46.8504 4.63906 47.3709 4.39662 48.017Z" fill="#7DB740"/>
<path d="M6.6988 44.7195C6.50618 43.5608 6.84546 43.1109 7.7921 42.4955C7.35913 43.376 7.10404 43.893 6.6988 44.7195Z" fill="#99C562"/>
<path d="M22.3979 25.636C22.0769 25.5341 21.9569 25.2747 21.89 24.9753C22.3247 24.5715 22.7587 24.1641 23.4924 23.4794C23.4103 24.6027 22.9431 25.1365 22.3979 25.636Z" fill="#82B350"/>
<path d="M27.0643 24.3746C27.3021 24.2929 27.4835 23.8873 27.7986 24.2419C27.7376 24.6251 27.6773 25.012 27.6164 25.3951C27.423 25.6752 27.1804 25.6903 26.904 25.5237C26.9577 25.1419 27.0113 24.7601 27.0643 24.3746Z" fill="#85B651"/>
<path d="M26.9083 25.5267C27.1456 25.4826 27.3828 25.4385 27.6207 25.3981C27.9907 25.581 28.2934 25.9906 27.9348 26.2149C27.3413 26.5769 27.2348 25.8003 26.9083 25.5267Z" fill="#71A837"/>
</svg>
