<svg width="43" height="53" viewBox="0 0 43 53" fill="none" xmlns="http://www.w3.org/2000/svg">
<path d="M1.66129 45.1602C1.52026 45.169 1.37923 45.1734 1.23819 45.169C-0.0178729 43.5427 0.726952 41.8151 1.02224 40.1359C1.89047 35.2615 3.34486 30.5017 3.71947 25.5347C3.86932 23.5647 3.95306 21.6255 3.60048 19.6554C3.3713 18.395 3.16857 17.0508 3.72388 15.7727C4.31005 14.9793 5.02402 14.7986 5.88784 15.3319C6.69437 17.0728 7.21442 18.8665 6.80014 20.8145C6.42993 23.7718 6.66352 26.7555 6.07295 29.7172C5.3149 33.5206 4.36293 37.2668 3.433 41.0262C3.16857 42.0883 2.84684 43.1284 2.82921 44.2435C2.8204 44.9442 2.66174 45.6318 1.66129 45.1602Z" fill="#FDF7EB"/>
<path d="M36.4787 24.4551C36.6242 24.1599 36.7696 23.8646 36.9151 23.5693C37.0913 23.4194 37.2853 23.4018 37.488 23.5164C37.9816 24.0717 38.5634 24.5962 38.2813 25.4688C34.6718 29.0387 32.0935 33.3358 29.6122 37.7033C27.4527 41.5024 25.9586 45.6452 23.5567 49.3164C23.0234 50.3566 22.4108 51.8682 21.1107 51.2072C20.0573 50.6695 21.0357 49.3605 21.45 48.4747C24.1473 42.7012 26.7563 36.8924 30.2866 31.5376C32.0406 28.8756 34.6233 26.9937 36.4787 24.4551Z" fill="#FDF7EB"/>
<path d="M16.6594 52.1854C11.1063 51.8019 5.91455 50.5635 2.11109 46.0372C2.34908 45.786 2.64877 45.7023 2.97932 45.7111C3.71092 45.9755 4.11639 46.1386 4.31031 44.9619C4.64085 42.9522 4.82596 40.8014 6.43019 39.2236C6.65056 39.2192 6.85329 39.2809 7.03399 39.4087C7.37335 40.7706 6.80481 42.0222 6.56682 43.3136C6.35527 44.0231 6.19661 44.7459 6.10847 45.4819C6.08202 45.6847 6.03795 45.8874 5.98947 46.0857C5.56637 47.3021 6.39494 47.8134 7.24554 48.3114C8.65145 49.1355 10.2733 49.4132 11.7321 50.1051C12.7766 50.7001 13.2923 50.0831 13.8212 49.2766C14.2927 48.5626 14.5792 47.4299 15.8793 47.95C16.2319 49.1399 15.6722 50.0478 14.7467 51.2422C18.1182 47.8134 19.5902 43.7367 21.4721 39.8891C22.3756 38.0425 22.5167 35.7551 24.4294 34.4506C24.7732 34.5079 25.0023 34.7106 25.1566 35.0103C24.8216 37.8971 23.1557 40.2726 22.0759 42.8684C21.0755 45.2748 19.8767 47.6194 18.3342 49.757C17.9904 50.2329 17.6863 50.7266 17.7128 51.348C17.6907 52.0443 16.99 51.8769 16.6594 52.1854Z" fill="#F5E2C7"/>
<path d="M16.6594 52.1854C16.9503 51.9077 17.2411 51.6302 17.532 51.3525C20.5377 49.8629 21.3134 46.8307 22.5827 44.1202C25.4077 38.0867 28.5545 32.2118 31.6836 26.3326C32.0891 25.5701 32.5078 24.768 33.354 24.3449C33.7198 24.3537 34.0107 24.4286 33.852 24.9046C33.7815 25.9315 32.9617 26.6587 32.3976 28.0955C34.0415 26.6323 35.2623 25.5437 36.4831 24.4551C36.0821 26.3105 34.4294 27.2757 33.3275 28.567C29.0878 33.5252 26.3332 39.2899 23.6492 45.1207C22.7766 47.0202 21.8687 48.9021 20.9035 50.9426C22.5166 51.0616 22.781 49.9598 23.2834 49.1445C23.6845 49.0431 23.9004 49.118 23.7241 49.5896C23.301 51.1322 22.2786 51.8109 20.6964 51.8549C19.3433 51.8902 18.0036 52.0708 16.6594 52.1854Z" fill="#F4E0C4"/>
<path d="M2.98791 46.0419C2.69703 46.0419 2.40174 46.0419 2.11087 46.0419C1.73184 45.8656 1.67014 45.5306 1.66133 45.1648C1.86406 45.0943 2.23868 45.0282 2.23868 44.9577C2.27393 40.7091 4.23957 36.8748 4.83895 32.7496C5.38986 28.9726 6.70763 25.2705 5.72481 21.3701C5.53089 20.59 6.07739 20.8015 6.49608 20.947C6.74289 21.185 6.91036 21.4582 6.90155 21.8196C7.04699 17.9941 6.37268 14.1642 6.94121 10.3431C6.9368 10.0611 6.9324 9.7746 6.92799 9.49254C7.26735 9.00333 7.61993 8.6199 8.14439 9.29862C8.75259 11.5816 8.37798 13.9086 8.44408 16.218C8.47493 17.3022 8.33831 18.3952 8.65563 19.4617C8.90685 23.0536 7.59348 26.3987 6.94121 29.8408C5.96721 34.9576 4.2616 39.9202 3.49915 45.0899C3.44186 45.4557 3.26997 45.7818 2.98791 46.0419Z" fill="#F2DDC2"/>
<path d="M38.1887 8.9419C38.0388 10.2553 37.435 11.7669 39.5681 12.0755C38.1181 12.8996 36.6373 13.7017 37.1926 15.804C35.7206 18.3205 33.4729 20.2201 31.8202 22.5956C31.5866 22.9305 31.2296 23.3536 30.7536 23.0319C30.2732 22.7057 30.2424 22.1108 30.4451 21.6436C31.1899 19.9248 31.4632 18.0032 32.6532 16.4739C33.6404 15.804 35.0066 15.4867 35.0463 13.9221C35.0419 13.6312 35.0198 13.3403 34.9714 13.0495C34.8656 12.644 34.751 12.2429 34.6849 11.8286C34.61 11.1499 34.6012 10.48 34.9978 9.87623C35.9718 9.28126 37.0516 9.02123 38.1887 8.9419Z" fill="#FCF9F4"/>
<path d="M4.29251 15.6096C3.90467 16.3456 3.7989 17.1037 3.94434 17.9323C4.88308 23.3399 3.73279 28.5802 2.73675 33.8512C2.03159 37.5886 0.599236 41.2466 1.23829 45.1646C0.118846 44.5697 -0.185255 43.772 0.101217 42.4586C1.25592 37.214 2.44147 31.9693 3.27884 26.6718C3.83416 23.1504 3.34495 19.5762 2.53402 16.0856C3.00119 15.4862 3.53446 15.1381 4.29251 15.6096Z" fill="#F9EAD6"/>
<path d="M23.7195 49.5848C23.5741 49.4349 23.4242 49.2895 23.2788 49.1396C25.2841 45.2613 27.3026 41.3829 29.2947 37.4957C31.2295 33.7187 33.7548 30.3251 36.2009 26.883C36.6768 26.2131 37.5671 25.8341 38.2679 25.3229C38.7615 25.0408 39.1096 25.0584 39.1361 25.746C37.7698 26.006 37.1705 27.1387 36.3992 28.1082C32.0713 33.5248 28.9642 39.6508 25.9804 45.8562C25.3502 47.174 24.742 48.505 23.7195 49.5848Z" fill="#F8E7D1"/>
<path d="M16.2009 4.62678C14.5306 3.48971 14.7553 2.22924 16.0687 1.03487C17.695 -0.450373 20.2203 -0.300526 21.2737 1.25083C22.1904 2.60385 21.6527 3.95688 19.7487 5.08073C19.4006 5.31872 19.6033 5.84318 19.2375 6.07236C19.0436 6.11202 18.8497 6.0988 18.6646 6.02828C17.8624 5.52586 16.7298 5.6096 16.2009 4.62678Z" fill="#E7C9A2"/>
<path d="M25.443 4.22557C24.3676 3.42346 24.1781 2.38334 25.0023 1.38731C26.0997 0.0519092 27.6378 -0.115566 29.1936 0.417711C29.7709 0.616037 30.2249 1.18457 30.7317 1.58122C31.0623 1.95584 31.0843 2.41419 30.7846 2.74033C30.4585 3.09732 30.1323 2.76678 29.8987 2.49793C29.5021 2.04399 29.0614 1.70904 28.4179 1.76192C28.1623 1.62089 28.2592 2.20265 28.3342 1.91618C28.3474 1.8721 28.3871 1.90736 28.462 1.90295C28.6867 1.89855 29.0437 2.05721 29.0349 2.07484C28.3165 3.56008 30.6215 3.75841 30.3042 5.05414C30.031 5.22161 29.7533 5.38468 29.4801 5.55216C29.2288 5.73726 28.9556 5.86066 28.6383 5.86066C28.127 5.82981 27.6775 5.60504 27.2059 5.44198C26.3994 5.34942 25.7163 5.08058 25.443 4.22557Z" fill="#E5C6A0"/>
<path d="M25.443 4.22557C25.8264 5.01007 26.7518 4.49887 27.2586 4.98367C28.2194 6.5218 27.0559 8.10841 27.382 9.65976C27.3864 10.4927 27.2763 11.3037 26.8796 12.0529C26.4301 12.7933 26.1965 13.6439 25.7734 14.402C25.0198 15.301 24.9625 16.5571 24.2176 17.4606C23.5389 17.7074 22.9528 17.4914 22.4018 17.0992C22.0449 15.6713 23.3141 14.8779 23.702 13.7409C24.0898 13.1283 24.0325 12.4143 24.1471 11.74C24.1824 11.5461 24.2485 11.361 24.3278 11.1803C24.9228 10.3429 25.65 9.54077 25.0682 8.39047C24.9492 7.8616 24.4248 7.47817 24.5217 6.86997C25.2269 6.12956 25.3945 5.19958 25.443 4.22557Z" fill="#FBF4E8"/>
<path d="M36.915 15.6362C36.1437 13.2828 36.8224 12.3751 39.5681 12.0755C40.5421 12.3619 41.547 12.604 41.7982 13.816C41.9569 14.6578 42.4461 15.6142 41.0799 15.9315C40.9168 16.2224 40.6436 15.3409 40.5025 15.9976C39.5285 16.1563 40.573 17.4608 39.5858 17.5975C38.9247 17.7032 38.4399 17.4124 38.0389 16.9232C37.6246 16.5309 37.1486 16.1871 36.915 15.6362Z" fill="#E7C7A0"/>
<path d="M38.1887 8.9419C37.3777 9.87623 36.3023 10.0036 35.1608 9.93748C34.0238 10.1094 33.3891 9.39098 32.7853 8.6109C32.7368 8.29798 32.706 7.98507 32.9396 7.72063C33.7417 7.29754 34.394 8.05558 35.2622 8.07321C35.1432 7.24465 34.3587 6.79511 34.5394 5.96214C33.6007 6.31913 33.5302 7.15651 33.0365 7.65893C32.8735 7.83081 32.6972 7.84844 32.5033 7.71182C31.5557 5.92688 32.6751 5.12036 34.0943 4.662C35.7867 4.1155 37.8052 5.31868 38.1534 6.98903C38.29 7.61486 38.1843 8.28962 38.1887 8.9419Z" fill="#E5C7A2"/>
<path d="M16.2009 4.62678C16.9193 5.42008 18.5013 4.4108 18.8715 5.91808C19.5326 6.7246 19.1095 7.58402 18.9244 8.39495C18.6776 9.4571 18.4396 10.4972 18.7349 11.5814C18.7569 12.529 18.6952 13.4457 17.7388 13.9878C17.3818 13.9789 17.1306 13.7938 16.9323 13.5162C16.875 13.3928 16.8133 13.2561 16.8221 13.1239C16.853 12.4849 16.7296 12.3615 16.1478 12.4937C15.6057 11.4007 15.3104 10.2019 14.7243 9.12215C15.0768 8.13052 15.1341 6.98904 16.1566 6.34558C16.1742 5.77264 16.1877 5.19972 16.2009 4.62678Z" fill="#F8EBD8"/>
<path d="M4.29251 15.6096C3.70635 15.7683 3.1203 15.9272 2.53414 16.0903C1.02245 15.3675 0.713941 14.0586 1.47199 12.8025C2.45921 11.163 4.05023 11.5068 5.5531 12.1679C6.66373 13.1551 7.02512 14.1599 5.63684 15.2177C5.19171 15.3499 4.74205 15.4774 4.29251 15.6096Z" fill="#E8CAA0"/>
<path d="M5.63684 15.2177C6.35081 14.182 6.01146 13.1727 5.5531 12.1679C6.14367 11.8285 6.04657 11.2417 6.07302 10.6996C6.10828 9.96361 6.56219 10.2462 6.94121 10.3431C7.71689 14.5873 7.50097 18.8222 7.06906 23.0576C6.87955 23.062 6.69003 23.0664 6.49611 23.0708C6.49611 22.3612 6.49611 21.6516 6.49611 20.9421C6.64596 18.972 5.78669 17.148 5.63684 15.2177Z" fill="#FDFBF5"/>
<path d="M24.5217 6.86997C24.8435 7.28866 25.5576 7.41178 25.4783 8.13898C25.4563 9.62422 25.2844 11.0213 23.5435 11.5237C22.5475 11.5854 21.5867 11.343 20.6083 11.202C19.7885 10.9244 19.2024 10.4131 18.96 9.55371C18.863 8.52682 19.2244 7.73351 20.1587 7.2399C21.5602 6.51711 22.9968 6.17803 24.5217 6.86997Z" fill="#E6C9A5"/>
<path d="M8.18397 4.11092C9.81025 2.25988 11.2162 2.40532 13.1025 4.62216C13.4462 5.57413 13.6886 6.49525 12.4458 7.01089C10.295 7.11667 8.77454 6.29692 8.18397 4.11092Z" fill="#E4C59D"/>
<path d="M12.2212 6.79953C13.3362 6.40728 13.1115 5.47294 13.1027 4.62675C13.6712 6.00181 15.4694 5.19088 16.1613 6.34999C15.606 7.20499 16.0687 8.55361 14.8391 9.08689C12.0846 10.2548 11.3838 9.91545 11.3927 7.42976C11.5469 7.05515 11.732 6.7246 12.2212 6.79953Z" fill="#FBF8F5"/>
<path d="M28.9644 8.11726C30.0354 8.29796 29.8679 10.0036 31.1637 9.89779C31.3576 11.6122 30.0618 12.1896 28.9027 12.8771C28.0521 13.3619 27.7789 14.2125 27.5277 15.0763C27.4131 15.3584 27.25 15.6096 27.0693 15.8564C26.8225 16.1781 26.6066 16.5351 26.1614 16.6321C25.6766 16.4998 25.5488 16.112 25.4783 15.6801C25.4519 15.3584 25.4959 15.0455 25.6017 14.7414C25.919 14.0759 26.1746 13.3883 26.3862 12.6788C26.9018 11.7885 27.2853 10.8498 27.629 9.88016C27.8847 9.19263 27.8582 8.19218 28.9644 8.11726Z" fill="#FEFBF3"/>
<path d="M39.1361 25.746C38.8452 25.6049 38.5587 25.4639 38.2679 25.3229C37.9505 24.7543 37.629 24.1906 37.3116 23.6221C37.3557 22.4057 38.0697 23.2739 38.4707 23.2783C38.9115 23.2827 39.4271 23.4193 39.4756 22.8155C39.5197 22.2602 39.0525 22.1853 38.5765 22.1677C38.0565 22.1456 36.9855 22.9389 37.3689 21.4272C38.5324 20.6295 39.696 20.6428 40.8154 21.4978C41.6572 22.1412 42.0098 23.0491 41.6351 24.0319C41.2209 25.1161 40.4627 25.9002 39.1361 25.746Z" fill="#E8C8A1"/>
<path d="M5.21811 6.40294C5.68969 5.23943 6.69895 4.84718 7.80517 4.58716C8.93783 5.29672 9.4623 6.38091 9.66062 7.65901C8.77036 8.87541 7.48344 8.75201 6.26704 8.53605C5.10353 8.32891 5.29304 7.25354 5.21811 6.40294Z" fill="#EDD2B1"/>
<path d="M30.3042 5.05414C29.7753 4.58256 29.3963 3.93465 28.6559 3.70988C28.3385 3.61292 27.8361 3.49833 28.0917 3.0488C28.2151 2.82843 28.7264 2.82403 29.0613 2.71825C28.7616 1.59881 27.4923 2.84165 27.1265 1.90291C28.7176 1.27267 28.6691 1.35641 30.3086 2.28193C31.0049 2.67418 30.5818 1.82358 30.7317 1.57677C31.5514 2.85928 31.8776 4.07132 30.3042 5.05414Z" fill="#E9CFAE"/>
<path d="M38.2373 16.5221C38.6912 16.7953 38.8675 17.4697 39.5418 17.4212C39.7005 17.4873 39.7578 17.5666 39.7181 17.6592C39.6785 17.7561 39.6344 17.8046 39.5859 17.8046C37.6026 18.7742 36.7036 20.709 35.5356 22.397C34.9627 23.2255 34.4118 24.0673 33.8477 24.9047C33.7022 24.7548 33.5524 24.6094 33.4069 24.4596C33.3408 22.776 34.522 21.6654 35.3549 20.4357C36.2232 19.1576 37.0517 17.8751 37.6952 16.4692C37.8891 16.337 38.0698 16.3546 38.2373 16.5221Z" fill="#F7E9D4"/>
<path d="M37.3689 21.432C37.457 22.1768 37.792 21.9608 38.2018 21.6744C39.1009 21.0441 39.6827 21.6215 40.1763 22.2782C40.5201 22.7365 40.4672 23.1728 39.9647 23.5695C39.286 24.1116 38.6822 24.4862 38.0035 23.5783C37.8096 23.3183 37.5231 23.3007 37.3116 23.6268C37.1794 23.6003 37.0473 23.5825 36.9151 23.5693C36.9459 22.8289 36.5932 22.0093 37.3689 21.432Z" fill="#EDCFAA"/>
<path d="M5.21811 6.40294C6.20534 8.57572 7.23647 8.77807 9.59435 7.27079C10.0703 6.46427 10.6785 6.38053 11.4101 6.92703C11.344 7.71152 10.6565 8.0641 10.2554 8.61941C10.11 8.74722 9.94252 8.84418 9.76182 8.9147C9.31669 9.05132 8.85393 9.12184 8.39557 9.2188C8.20606 9.24083 8.03418 9.19676 7.87992 9.08217C7.5626 9.2188 7.24531 9.35592 6.92799 9.49254C5.18713 9.10911 4.35429 8.22754 5.21811 6.40294Z" fill="#E4C59D"/>
<path d="M28.9644 8.11726C28.2284 9.72591 27.4966 11.335 26.7606 12.9436C25.9893 12.9877 26.0422 12.6131 26.3375 12.1107C26.743 11.4364 26.8311 10.6959 26.7958 9.92909C27.3996 8.45266 27.5275 6.79112 28.5588 5.49099C28.8629 5.50862 29.1714 5.53065 29.4755 5.55269C29.308 6.40769 29.1363 7.26225 28.9644 8.11726Z" fill="#F5DDC0"/>
<path d="M28.5279 12.538C29.784 12.0355 30.5905 11.0836 31.1678 9.89803C31.7716 9.26338 32.4151 8.65518 32.5077 7.70763C32.6531 7.70763 32.8029 7.71203 32.9484 7.71203L32.944 7.70322C32.944 8.00291 32.9484 8.3026 32.9484 8.6023C32.6002 9.59834 33.0982 10.471 33.3538 11.3789C32.75 11.8372 31.9523 11.8504 31.3309 12.2691C30.4318 12.7187 29.5548 13.4326 28.5279 12.538Z" fill="#F3DDBF"/>
<path d="M11.3219 7.30199C10.7622 6.40291 10.1716 7.07281 9.58983 7.26673C8.19714 6.90093 8.55853 5.37161 7.80049 4.58712C7.9283 4.42846 8.05611 4.2698 8.17951 4.11114C9.25047 5.42009 10.4757 6.49546 12.2166 6.79515C12.0755 6.94941 11.9345 7.10366 11.789 7.25791C11.7141 7.31521 11.6392 7.37691 11.5687 7.4342C11.4894 7.39454 11.4056 7.34606 11.3219 7.30199Z" fill="#DAB78C"/>
<path d="M39.5859 17.8046C39.5683 17.6768 39.5551 17.549 39.5418 17.4212C39.511 16.6587 39.4887 15.9002 40.4407 15.6314L40.4363 15.6358C41.8995 15.7856 41.7585 14.7367 41.7981 13.82C42.6708 16.2308 42.2655 16.9628 39.5859 17.8046Z" fill="#EBD1AF"/>
<path d="M20.1587 7.2399C19.8591 7.98913 19.5638 8.73841 19.2641 9.48764C19.0173 9.60223 18.819 9.54493 18.6735 9.31135C18.44 8.10376 19.0922 7.05043 19.2729 5.91777C19.2994 5.56078 19.3611 5.22583 19.7533 5.08039C19.8415 5.80758 19.4315 6.6317 20.1587 7.2399Z" fill="#F8EBD8"/>
<path d="M5.63218 45.6009C5.59251 44.8296 5.66303 44.0804 6.07731 43.3972C6.57533 43.2077 6.89265 43.4766 7.17912 43.8291C7.58018 44.7414 7.58018 45.6846 7.34219 46.6233C7.15268 47.3726 7.64629 46.6145 7.70799 46.7952C8.13109 46.8657 8.40874 47.28 8.86269 47.2448C10.2686 44.0231 11.0751 40.6339 12.0139 37.2844C13.9222 30.4708 16.4564 23.8643 18.6247 17.1388C18.8495 16.4381 19.0963 15.7594 18.9597 15.0101C18.9906 14.6355 19.1095 14.3094 19.4225 14.0758C21.0487 13.569 22.1902 13.8554 22.3092 15.8255C19.7486 27.3108 16.3065 38.536 12.2298 49.5718C12.1725 49.9156 12.0668 50.2329 11.7979 50.4753C9.93806 50.1668 8.18397 49.4881 6.57533 48.5625C5.73354 48.0777 4.54799 47.3814 5.62777 46.0284C5.78202 46.0724 5.87898 46.1474 5.93187 46.2575C6.06409 45.9314 5.72032 45.8212 5.63218 45.6009Z" fill="#FEF7EA"/>
<path d="M11.7894 50.4799C11.7938 50.189 11.7982 49.8937 11.8026 49.6029C14.6761 43.1462 17.1398 36.5177 20.2116 30.1493C22.4153 25.7332 24.3192 21.1717 26.7696 16.8746C27.0209 16.4295 26.893 16.0416 26.7829 15.623C26.9327 15.4775 27.0826 15.3365 27.2368 15.191C28.0786 14.6401 28.7838 15.0456 29.4845 15.504C29.815 17.5313 28.4268 19.0474 27.8318 20.7883C25.2756 28.2585 22.1861 35.5173 18.8807 42.6879C18.0829 44.4199 17.2588 46.1211 16.0688 47.624C15.9719 47.6813 15.8749 47.7386 15.778 47.7959C14.6938 48.2719 14.4293 49.3825 13.852 50.2551C13.2879 51.1057 12.6224 51.8285 11.7894 50.4799Z" fill="#FDF8EC"/>
<path d="M37.7966 16.5217C38.3872 17.813 37.2589 18.6151 36.7124 19.3643C35.5136 21.0083 34.5308 22.776 33.4069 24.4596C29.1143 32.0312 25.1566 39.7655 21.5427 47.6809C20.7273 49.4659 20.1146 51.4891 17.532 51.3525C16.9238 51.2908 16.8049 51.0569 17.1839 50.5368C20.6215 45.7858 22.6004 40.2944 25.0156 35.0189C24.8833 34.6619 24.8878 34.2785 25.0376 33.9523C28.0213 27.5089 31.8204 21.6076 36.8314 16.5305C37.1267 16.2308 37.4705 16.2528 37.7966 16.5217Z" fill="#FDF7EC"/>
<path d="M10.0131 8.527C10.0924 7.73369 10.436 7.23147 11.3219 7.30199L11.3176 7.30178C12.0801 9.46133 11.1105 11.8192 12.0713 13.9567C11.5997 20.2194 10.4979 26.372 8.67767 32.379C7.9681 34.7325 7.96369 37.3063 6.5093 39.4262C5.63667 41.8722 4.42467 44.2301 4.76844 46.9538C3.81206 47.0948 3.61374 46.1825 2.9835 46.0371C3.06724 40.6514 5.21357 35.6889 6.17876 30.4839C6.85307 26.8523 7.89318 23.2869 8.27661 19.598C8.27661 19.501 8.27661 19.4041 8.27661 19.3027C8.21932 18.2979 8.55427 17.3635 8.77463 16.4072C8.89362 16.0193 9.07432 15.6579 9.25061 15.2965C10.3128 14.0669 10.1585 12.6698 9.81033 11.2419C9.58997 10.3207 9.29028 9.382 10.0131 8.527Z" fill="#FDF9EF"/>
<path d="M24.5616 34.5561C22.6004 37.8968 21.4324 41.6033 19.6916 45.0409C18.4972 47.3988 17.2367 49.7302 14.7466 51.1978C15.086 50.0652 15.4298 48.9281 15.7691 47.7954L15.7603 47.8087C18.9996 42.6654 21.3443 37.0858 23.6978 31.5107C24.6013 29.3687 25.4254 27.1871 26.2584 25.0144C26.8005 23.604 27.607 22.4361 28.8102 21.5326C29.6211 21.0831 30.1279 21.2638 30.2602 22.2246C29.2729 26.7596 26.8489 30.6248 24.5616 34.5561Z" fill="#FDF8ED"/>
<path d="M24.5616 34.5561C26.0601 30.3383 28.6822 26.6059 29.8809 22.2604C30.0925 20.0391 30.3481 17.8355 32.3181 16.3326C32.5517 16.3018 32.7633 16.3635 32.9484 16.5133C32.1727 18.5627 31.397 20.6121 30.6214 22.6614C30.7183 22.6923 30.8153 22.7231 30.9122 22.7584C32.9131 20.3829 34.9141 18.0117 36.915 15.6362C37.3557 15.9315 37.7966 16.2268 38.2373 16.5221L38.0167 16.5221L37.7966 16.5217C35.3858 18.1127 33.8386 20.5239 32.1022 22.7187C29.1449 26.4561 27.3335 30.8942 25.0109 35.0194C24.8611 34.8651 24.7114 34.7103 24.5616 34.5561Z" fill="#F3DDC2"/>
<path d="M6.51361 39.4307C7.07773 35.3936 8.42194 31.5461 9.34747 27.5972C10.2906 23.5734 10.9605 19.5011 11.3792 15.3891C11.4277 14.8911 11.626 14.4107 11.7538 13.9215C12.08 13.6218 12.4149 13.6262 12.7675 13.8774C12.8424 17.747 12.0844 21.5064 11.2558 25.2525C10.6608 27.9454 10.1981 30.669 9.37832 33.309C8.40432 35.2834 8.67316 37.7603 6.91907 39.4218C6.78245 39.4263 6.65023 39.4307 6.51361 39.4307Z" fill="#F3DEC3"/>
<path d="M6.9194 39.4266C7.53201 37.3728 8.14021 35.3235 8.75282 33.2697C9.33898 32.9215 9.96481 32.2428 10.3703 33.4592C9.83259 36.8219 8.48397 39.9731 7.77 43.2918C7.69508 43.6443 7.42183 43.922 6.97229 43.8471C6.67259 43.6972 6.37731 43.5518 6.07761 43.4019C6.35527 42.0754 6.63734 40.7488 6.9194 39.4266Z" fill="#FDF9EF"/>
<path d="M5.63218 45.6009C6.32852 45.9578 6.69011 46.4298 6.17005 47.4743C5.93206 46.8397 5.77781 46.4342 5.62355 46.0288C5.61915 45.8833 5.62336 45.7419 5.63218 45.6009Z" fill="#FDF9EF"/>
<path d="M7.87992 9.08217C8.00774 9.04691 8.13989 9.01634 8.27211 8.99871C9.98653 9.97712 9.57224 11.7136 9.69565 13.212C9.7882 14.3094 9.37392 15.3672 8.94641 16.3853C8.78335 17.4739 8.48806 18.536 8.2677 19.6114L8.27661 19.598C7.36431 17.672 7.99886 15.6272 7.85342 13.644C7.74764 12.1323 7.8667 10.6027 7.87992 9.08217Z" fill="#FCF7EE"/>
<path d="M32.9484 16.5133L32.7588 16.5003L32.5693 16.5047C31.8553 16.2095 31.1413 15.9538 30.3569 16.2359C29.8853 16.3064 29.6781 15.9274 29.3873 15.6806C28.6689 15.5175 27.9505 15.3544 27.2321 15.1958C27.0602 14.0146 27.4525 13.1109 28.5279 12.538C29.5768 12.7627 30.3921 12.2429 31.203 11.6964C31.4719 11.7978 31.3309 12.7145 32.0096 12.0534C32.3313 11.7405 32.7897 11.8595 33.0585 12.2914C33.1555 12.7894 32.728 13.3227 33.1819 13.7899C33.984 14.2879 34.8522 12.9745 35.6279 13.8868C35.575 15.6145 34.6275 16.4384 32.9484 16.5133Z" fill="#E7C79E"/>
<path d="M32.9616 12.538C31.5733 11.5067 31.9699 13.4018 31.2736 13.5605C30.326 12.9831 31.3265 12.3134 31.203 11.6964C31.8641 11.2116 32.6398 11.1894 33.4111 11.1629C33.5962 11.0704 33.7813 11.066 33.9752 11.1409C34.7818 11.5243 34.4909 12.8685 35.5927 12.9963C35.6059 13.2916 35.6147 13.5869 35.6279 13.8822C34.8038 13.6751 34.3807 14.4111 33.7549 14.6535C33.1158 14.9003 32.5781 14.7901 32.9527 13.8734C32.5958 13.4238 32.9748 12.9831 32.9616 12.538Z" fill="#E0BB8D"/>
<path d="M33.8343 11.2595C33.6932 11.233 33.5521 11.1982 33.4111 11.1629C31.3309 10.6561 32.111 9.63318 32.9528 8.60188C33.6888 9.04702 34.4248 9.48774 35.1653 9.93287C35.1697 10.6468 35.1697 11.3608 35.1697 12.0792C34.2662 12.5508 34.7157 10.8187 33.8343 11.2595Z" fill="#FBF4E5"/>
<path d="M33.8343 11.2595C35.346 9.79625 34.3235 12.4582 35.1697 12.0792C35.3107 12.3833 35.4517 12.6922 35.5927 12.9963C33.5037 13.9395 34.676 11.5812 33.8343 11.2595Z" fill="#E7C79E"/>
<path d="M19.2685 5.91794C19.1407 7.1123 19.0129 8.30667 18.8807 9.49662C19.3302 10.356 19.0437 11.048 18.3827 11.6518C17.2235 9.62884 18.9111 7.84404 18.8715 5.91808C19.0037 5.9313 19.1363 5.93116 19.2685 5.91794Z" fill="#F3DCBF"/>
<path d="M17.0867 2.85989C17.2982 2.82463 17.5362 2.83345 17.7213 2.7409C18.334 2.44561 18.876 2.45002 19.1449 3.15077C19.2595 3.45046 19.2903 4.02781 19.1229 4.14681C18.5367 4.56991 18.1004 3.93967 17.5979 3.74134C17.2233 3.58709 17.1264 3.2301 17.0867 2.85989Z" fill="#ECD1AC"/>
<path d="M17.0912 2.85486C16.342 2.86808 15.5928 2.77112 16.3949 1.8456C16.7827 1.40047 17.4703 1.1757 18.1754 1.34318C18.2019 2.16292 17.1882 2.18496 17.0912 2.85486Z" fill="#ECD1AC"/>
<path d="M28.5634 5.49081C28.6516 7.24049 27.7481 8.59352 26.8005 9.92892C26.5273 8.24094 27.1969 6.6408 27.2586 4.98367C27.6905 5.15555 28.1271 5.32334 28.5634 5.49081Z" fill="#FBF0E3"/>
<path d="M20.6346 30.2024C17.9858 36.3549 15.3415 42.5118 12.6707 48.6555C12.5076 49.0258 12.0977 49.2858 11.8024 49.5987C11.5072 48.1619 12.7103 47.2629 13.0717 46.0509C15.8042 36.8794 18.5632 27.7167 21.3574 18.5672C21.6086 17.7431 21.1546 16.7647 21.9391 16.0772C22.2785 16.606 22.23 17.3024 22.6751 17.7828C23.063 18.9066 22.75 19.9599 22.2785 21.0001C22.8602 19.7572 22.9396 18.3028 24.1251 17.3861C24.3234 16.249 24.3102 15.0194 25.4605 14.2922C25.8572 14.1997 26.0687 14.2922 25.9145 14.7462C25.9056 15.0326 25.8968 15.3235 25.888 15.61C25.3636 19.9511 22.7104 23.3756 20.9254 27.1746C19.0436 29.9908 18.2458 33.2831 16.9942 36.2756C17.8316 34.7771 18.0343 32.9173 18.9378 31.3483C19.2904 30.7357 19.3477 29.9071 20.163 29.6162C20.5244 29.6471 20.8065 29.7396 20.6346 30.2024Z" fill="#F2DCBF"/>
<path d="M22.3622 17.8312C21.7319 17.3641 22.0096 16.6809 21.9391 16.0772C22.0713 13.9881 20.4935 14.4244 19.3035 14.2966C18.0475 12.5514 19.4049 11.7316 20.5288 10.8237C21.635 10.6166 22.6707 10.9824 23.7196 11.216C24.0105 10.9736 24.297 10.9736 24.5834 11.2292C24.5702 11.357 24.5614 11.4892 24.557 11.617C24.0722 12.3045 24.6539 13.1904 24.1383 13.8735C23.5565 14.9004 22.9792 15.9273 22.3974 16.9542C22.6442 17.2583 22.609 17.5492 22.3622 17.8312Z" fill="#EED4B0"/>
<path d="M22.3622 17.8312C22.371 17.5404 22.3844 17.2445 22.3932 16.9536C23.0234 16.8875 23.5875 17.0946 24.1252 17.3899C23.6757 18.8311 23.2658 20.2943 21.9833 21.7002C22.1287 20.2017 22.2476 19.0168 22.3622 17.8312Z" fill="#FBF3E4"/>
<path d="M24.579 11.2335C24.2926 11.2291 24.0017 11.2247 23.7152 11.2203C25.3723 10.806 24.4073 8.88821 25.4783 8.13898C26.0556 9.42589 26.0995 10.5548 24.579 11.2335Z" fill="#DBBA92"/>
<path d="M25.9144 14.7547C25.7646 14.6049 25.6103 14.4506 25.4605 14.3008C25.6544 13.5339 25.7469 12.723 26.3419 12.1148C26.3596 12.4541 26.3992 12.7847 26.765 12.9477C26.4786 13.5471 26.1965 14.1509 25.9144 14.7547Z" fill="#FBF3E4"/>
<path d="M24.134 13.8772C24.2574 13.1236 23.9048 12.2774 24.5527 11.6207C24.4822 12.3831 24.8788 13.2381 24.134 13.8772Z" fill="#FBF3E4"/>
<path d="M40.4407 15.6314C40.0352 15.3802 39.4668 15.2002 39.8282 14.5479C39.8943 14.4289 40.2425 14.3496 40.3879 14.4113C41.1636 14.7639 40.5157 15.2178 40.4408 15.6365L40.4407 15.6314Z" fill="#F0D8B8"/>
<path d="M32.9484 7.71203C32.9528 6.67192 32.8384 5.53927 34.3765 5.52605C34.6366 5.52605 35.2183 5.14703 35.0597 6.06814C34.879 7.09503 36.3378 7.67238 36.1527 8.94608C34.8922 8.96811 34.0019 8.10429 32.9442 7.70764C32.9442 7.70323 32.9484 7.71203 32.9484 7.71203Z" fill="#ECD0AB"/>
<path d="M17.109 13.4459C17.2544 13.5913 17.3999 13.7368 17.5453 13.8866C18.1667 14.6138 17.7745 15.3322 17.5321 16.055C17.3778 16.4605 17.0252 16.9364 17.1839 17.2802C18.3078 19.7483 16.2099 21.4539 15.7515 23.5385C15.6193 24.1335 15.1962 24.7681 14.3236 24.4376C14.2839 24.3759 14.2134 24.3186 14.2134 24.2569C14.1826 23.0317 14.3412 21.7536 13.2086 20.8545C12.9177 19.854 13.2042 18.88 13.3584 17.8972C13.5744 16.5442 13.5259 15.2132 13.0367 13.9175C13.2438 13.6222 13.5435 13.4723 13.8785 13.371C14.4338 13.2872 15.0111 13.0228 15.5003 13.5561C15.8353 15.319 15.2006 17.0246 15.1125 18.761C15.3417 16.8218 15.5753 14.8959 17.109 13.4459Z" fill="#F3DEC3"/>
<path d="M13.9796 13.8514C13.6887 13.8647 13.3978 13.8823 13.107 13.8955C12.9703 14.063 12.8293 14.0542 12.6927 13.8955C12.3798 13.9043 12.0668 13.9131 11.7495 13.922C10.6786 12.873 10.7843 11.5464 11.0664 10.2904C11.2912 9.28993 11.3441 8.30712 11.3132 7.30226C11.4719 7.28904 11.6304 7.27554 11.789 7.25791C11.291 10.3915 13.8342 8.44815 14.8346 9.07838C16.3948 9.80117 16.2846 11.185 16.2185 12.5557C16.1215 12.5866 16.029 12.613 15.932 12.6438C15.8615 12.6262 15.7954 12.6042 15.7249 12.5821C14.8831 12.353 14.2088 11.0044 13.3714 11.6654C12.4591 12.4015 14.3057 12.9435 13.9796 13.8514Z" fill="#E6C8A5"/>
<path d="M17.0691 16.0633C17.2277 15.3361 17.3864 14.6089 17.5406 13.8817C18.1048 13.2471 18.2416 12.4451 18.3827 11.6518C18.5501 10.9334 18.7132 10.215 18.8807 9.49662C19.0085 9.4834 19.1361 9.47886 19.2639 9.48327C19.6826 9.9284 20.1056 10.3735 20.5243 10.8231C20.1233 11.9822 18.6865 12.7799 19.2991 14.296C19.2947 14.5913 19.2903 14.8821 19.2859 15.1774C19.2727 16.0501 19.1184 16.8522 18.1973 17.2532C17.3643 17.2929 16.668 17.2004 17.0691 16.0633Z" fill="#FEFEFC"/>
<path d="M17.109 13.4459C16.4479 15.3322 15.7866 17.2225 14.9492 19.598C14.8919 17.196 14.6848 15.3009 15.3635 13.4455C15.3944 12.921 15.8395 12.7667 16.1788 12.5155L16.2273 12.5552C16.9413 12.0792 16.4257 11.1405 17.0206 10.475C18.1092 11.4886 17.0781 12.4983 17.109 13.4459Z" fill="#FEFBF4"/>
<path d="M22.6444 10.4621C22.0318 9.47492 20.5377 10.1845 20.4848 9.13996C20.4407 8.24088 21.1812 7.40791 22.2874 7.29773C23.0102 7.22722 23.4685 7.71201 23.4112 8.3114C23.3495 8.98571 22.9617 9.62476 22.6444 10.4621Z" fill="#ECD2AE"/>
<path d="M20.6346 30.2024C20.4847 30.0481 20.3349 29.8983 20.185 29.7441C19.9382 29.3122 20.1013 28.8979 20.2379 28.4836C21.8862 24.8432 23.9004 21.3835 25.4429 17.6947C25.65 17.2055 25.8528 16.7691 26.3288 16.5091C26.4786 16.2138 26.6284 15.9229 26.7827 15.6277C27.5584 15.707 27.8801 16.1433 27.4614 16.8088C24.773 21.0618 23.1643 25.8657 20.6346 30.2024Z" fill="#F5E0C6"/>
<path d="M26.3289 16.5041C24.425 20.6204 22.5166 24.7368 20.6127 28.8532C19.1936 28.2714 20.4805 27.672 20.5995 27.077C22.3624 23.256 24.1253 19.4349 25.8882 15.6182C25.9146 15.9752 25.9719 16.3145 26.3289 16.5041Z" fill="#FCF6E9"/>
<path d="M8.73056 16.5173C9.26824 13.9699 9.47097 11.4446 8.2722 9.00298C8.62038 8.51818 9.13602 8.59751 9.62963 8.61955C10.0704 10.9598 10.5287 13.3045 9.59878 15.6403C9.44894 15.9356 9.3035 16.2265 9.15365 16.5217C9.01262 16.7201 8.87159 16.7113 8.73056 16.5173Z" fill="#F3D9BD"/>
<path d="M9.59868 15.6359C10.1276 13.3 9.52816 10.9554 9.62953 8.61514C9.76175 8.5931 9.88956 8.56225 10.0174 8.527C10.1099 9.30708 10.1584 10.1004 10.2994 10.8717C10.6079 12.5464 11.1016 14.2344 9.59868 15.6359Z" fill="#FCF7EE"/>
<path d="M8.72642 47.8044C8.14025 47.7911 7.84497 47.4826 7.82293 46.9009C6.73434 45.1027 7.65546 43.3002 8.07415 41.643C9.15833 37.3548 10.3218 33.0709 12.0142 28.9634C12.3668 28.1084 12.5519 27.1211 13.4554 26.5835C14.4823 26.5173 14.6277 27.293 14.8261 28.0158C13.4157 33.6042 11.5294 39.0604 10.0266 44.6267C9.73568 45.7197 9.95604 47.0772 8.72642 47.8044Z" fill="#FDF8EC"/>
<path d="M8.72642 47.8044C10.3439 42.0882 11.9568 36.372 13.5831 30.6602C13.8387 29.7568 14.1604 28.8753 14.4557 27.9806C14.5218 25.5875 15.8352 23.5866 16.5183 21.3874C16.8929 20.1798 17.8933 19.1529 17.4835 17.6941C17.3336 17.1564 18.1446 17.271 18.3914 16.9361C18.6911 16.3499 18.9908 15.7593 19.2904 15.1732C20.0749 16.7906 18.8762 18.0731 18.4398 19.4173C16.2142 26.2882 13.6668 33.0534 11.829 40.0521C11.1414 42.6612 10.3525 45.2438 9.5945 47.8353C9.28599 48.8754 8.97763 48.7651 8.72642 47.8044Z" fill="#F3DBBD"/>
<path d="M13.5697 26.6584C11.3132 32.26 9.0523 37.8572 8.06067 43.8599C7.8976 44.8603 7.89785 45.8872 7.82293 46.9009C7.59375 47.205 7.35992 47.5135 6.96767 48.0335C6.96767 46.4689 6.96767 45.1556 6.96767 43.8378C7.99015 40.312 9.01264 36.7818 10.0351 33.256C10.4494 30.4133 11.4675 27.7822 12.7985 25.2524C13.3934 25.1731 13.5257 25.6403 13.7152 26.0369C13.7813 26.2749 13.7284 26.4821 13.5697 26.6584Z" fill="#F5E1C6"/>
<path d="M29.3916 15.6802C29.6913 15.8036 29.991 15.9226 30.2907 16.046C30.6786 16.8216 30.11 17.4034 29.8897 18.0557C29.4445 19.1266 28.7129 20.1006 28.7834 21.3391C28.8672 21.4889 28.9377 21.6432 29.0038 21.8062C25.7689 25.1602 25.2312 29.801 23.3052 33.7763C21.225 38.0646 19.136 42.344 16.9985 46.6058C16.7561 47.0906 16.1875 47.4168 15.7688 47.8134C17.5405 43.9835 19.2858 40.1404 21.084 36.3237C23.6666 30.8411 25.6058 25.1073 27.7698 19.4616C28.2634 18.1791 28.8496 16.9362 29.3916 15.6802Z" fill="#F5E2C7"/>
<path d="M8.73056 16.5173C8.87159 16.5173 9.01276 16.5177 9.15379 16.5177C9.03479 17.6019 8.87149 18.6682 8.2677 19.6114C8.16633 18.5404 8.43968 17.5266 8.73056 16.5173Z" fill="#F2DDC2"/>
<path d="M29.4493 17.8614C29.7313 17.2532 30.009 16.6494 30.2911 16.0412C31.4281 14.3312 31.9085 15.8737 32.574 16.4996C30.9786 18.0906 30.7759 20.3339 29.8856 22.2598C29.8988 21.515 29.5066 21.5503 29.0041 21.8015C28.8499 21.7971 28.7 21.7927 28.5458 21.7927C28.44 20.3868 29.4801 19.2497 29.4493 17.8614Z" fill="#FBF1E1"/>
<path d="M13.0849 25.3016C12.0712 27.9547 11.3925 30.7401 10.035 33.2611C9.60312 32.7498 9.18032 33.3975 8.75282 33.2697C10.3042 27.3684 11.5996 21.4188 12.2519 15.3368C12.3048 14.8476 12.5428 14.3759 12.6927 13.8955C12.8293 13.8911 12.9703 13.8911 13.107 13.8955C13.843 14.323 14.4291 14.6052 14.1073 15.8172C13.6754 17.4567 13.7283 19.2284 13.5741 20.9428C13.9971 22.4589 14.3145 23.9662 13.0849 25.3016Z" fill="#FDF5E7"/>
<path d="M32.9616 12.538C33.6535 12.9875 33.0938 13.4282 32.9527 13.8734C31.5248 13.415 32.3049 12.9787 32.9616 12.538Z" fill="#F3DAB3"/>
<path d="M20.5995 27.077C20.7846 27.6676 19.8062 28.267 20.6127 28.8532C20.4717 29.1485 20.3261 29.4437 20.1851 29.739C18.788 31.9559 18.2327 34.5606 16.8267 36.7862C17.977 33.5072 18.2328 29.8933 20.5995 27.077Z" fill="#FBEFDB"/>
<path d="M13.5697 26.6584C13.5609 26.5041 13.5566 26.3497 13.5478 26.1955C13.2701 25.3273 13.3715 24.6397 14.416 24.4194C16.007 22.9033 16.1568 20.66 17.0118 18.7869C17.1441 18.496 16.483 17.0284 17.0647 16.0632C17.1264 16.9226 17.7302 16.9711 18.3869 16.9403C17.3821 19.9019 16.3816 22.8636 15.3679 25.8165C15.1123 26.5569 15.0374 27.381 14.4512 27.9804C14.1604 27.5397 13.865 27.0991 13.5697 26.6584Z" fill="#FBF3E2"/>
<path d="M16.1746 12.5201C16.0688 12.9741 15.7603 13.2517 15.3592 13.4501C14.9009 13.5823 14.4379 13.7192 13.9796 13.8514C12.1638 13.2168 12.4416 11.9472 13.1204 10.4664C14.1737 11.0305 15.3019 11.5638 16.1746 12.5201Z" fill="#ECD2B2"/>
<path d="M14.4203 24.4195C13.8958 24.8999 13.6666 25.5213 13.5521 26.1956C13.1774 26.0105 13.1333 25.6542 13.0849 25.3016C13.2479 23.8472 13.411 22.3966 13.5785 20.9422C14.8654 21.8545 14.601 23.1458 14.4203 24.4195Z" fill="#EACEAB"/>
<path d="M29.4493 17.8614C29.987 19.3643 29.1186 20.5454 28.5413 21.7927C27.1706 21.5062 28.2636 20.8143 28.3826 20.4044C28.6427 19.5274 29.0835 18.7076 29.4493 17.8614Z" fill="#FDFAF2"/>
</svg>
