<svg width="36" height="48" viewBox="0 0 36 48" fill="none" xmlns="http://www.w3.org/2000/svg">
<path d="M11.5345 46.967C10.6728 46.6582 9.91826 46.1708 9.23034 45.5718C8.99363 44.8165 8.45365 44.2509 8.02462 43.611C7.63627 42.5878 7.5586 41.5013 7.34409 40.4409C7.23683 37.4643 7.49573 34.5138 7.99873 31.5856C9.25253 30.8899 8.60529 32.326 8.94555 32.4898C9.75553 31.3438 9.308 29.8927 9.88867 28.6686C9.94415 28.3449 9.99593 28.0175 10.0625 27.6938C10.2881 26.8492 10.7689 26.0901 10.9354 25.2269C10.9686 25.0037 10.9649 24.7767 10.9649 24.5535C10.9945 24.1182 11.0426 23.6791 10.6876 23.3294C8.86048 23.0764 8.8124 23.0429 9.99963 21.4169C10.3917 20.8812 9.85908 21.3128 9.87388 21.2272C9.33389 21.2197 8.94925 20.9853 8.76802 20.457C8.8124 18.2209 9.25992 16.1001 10.4804 14.1913C10.9538 13.4509 11.5123 12.837 12.4037 12.6249C13.1064 12.8147 14.3343 12.6361 13.3986 14.0127C13.5761 14.8983 13.1323 15.9066 13.9349 16.6656C14.1568 16.8144 14.3047 17.0116 14.3787 17.2684C14.4157 17.4432 14.4194 17.6181 14.4083 17.793C14.2418 18.4813 14.2011 19.1845 14.1568 19.8915C14.0865 20.431 13.9312 20.9444 13.6575 21.4132C11.7453 21.7444 12.8549 23.214 12.633 24.1628C12.8993 23.6977 12.8993 23.1099 13.3579 22.7676C13.8128 22.7118 13.957 23.028 14.0828 23.374C14.1494 23.6233 14.1679 23.8801 14.1642 24.1405C13.8313 25.0446 14.5081 24.5275 14.7892 24.5795C14.9482 24.6688 15.0629 24.7953 15.1443 24.9516C15.3662 25.573 15.3366 26.2055 15.2552 26.8417C14.9963 28.6053 13.6834 30.0899 13.7647 32.3298C14.682 31.247 14.1864 30.1532 14.6154 29.316C15.2404 28.9142 15.7841 28.4788 15.3551 27.6119C15.3662 27.4333 15.4069 27.2622 15.4771 27.0985C16.9676 25.5841 17.1045 27.3105 17.6667 28.0249C17.7776 28.3561 17.7887 28.6984 17.7295 29.0407C17.5779 29.5206 17.6149 29.9969 17.748 30.4731C17.8812 31.3959 17.356 32.1214 17.0379 32.9102C16.5608 34.2199 15.884 35.4328 15.1443 36.7946C15.7989 36.9509 16.3537 37.0067 16.927 36.8988C17.8849 36.5639 17.6186 35.5705 17.9847 34.9194C18.1992 34.6068 18.484 34.4803 18.8539 34.5994C19.1978 34.8375 19.2385 35.1724 19.1535 35.5482C19.1424 35.5966 19.0684 35.6598 19.1535 35.7119C19.1868 35.5928 19.2533 35.4961 19.3532 35.4217C20.03 34.9678 19.4124 34.3129 19.6084 33.7808C19.6454 33.4013 19.7341 33.0441 20.0263 32.7725C20.3222 32.6497 20.5996 32.6721 20.8548 32.8804C21.147 34.4394 20.6884 36.0282 21.0508 37.5797C20.6884 40.8688 19.5048 43.7598 17.0083 46.0182C15.7323 45.9848 14.6265 45.6573 14.142 44.2993C13.8239 44.2323 13.6094 44.4407 13.3727 44.5895C13.5095 46.3345 13.5095 46.3345 11.5345 46.967Z" fill="#E94D21"/>
<path d="M0.379775 17.1233C0.390871 12.4091 2.76532 8.87073 6.79301 7.63173C7.72874 7.34524 8.70514 7.14804 9.67046 7.59825C9.65936 8.57679 8.77172 8.33867 8.24653 8.6326C8.66446 9.18327 9.35978 9.23164 9.89607 9.55534C10.1217 9.72649 10.2622 9.94973 10.3214 10.2251C10.3399 11.2817 9.87018 11.9626 8.8198 12.1933C8.20954 12.1822 7.86928 11.6129 7.3293 11.4566C6.87808 11.3487 6.46014 11.505 6.03851 11.6166C5.50592 11.7022 5.02512 11.9478 4.52582 12.1412C4.36308 12.171 4.20774 12.1449 4.0598 12.0668C3.97104 11.9291 3.92296 11.7766 3.91556 11.6129C3.95625 11.2929 4.17446 11.0845 4.36678 10.8836C4.58869 10.8278 4.43335 11.0957 4.47034 10.8539C4.49253 10.7088 4.38157 10.6976 4.3261 10.865C3.66776 11.3413 3.3312 12.0482 2.93175 12.7105C2.83559 12.8519 2.72834 12.9784 2.60629 13.0974C2.33999 13.343 2.04041 13.57 1.98493 13.9569C1.95535 14.1802 1.68535 14.4109 1.96644 14.6453C2.04781 14.4071 2.17726 14.2137 2.41026 14.1058C4.02652 14.3178 3.78981 15.8396 4.3076 16.8293C4.08939 18.1837 3.84159 19.5343 3.70844 20.6728C4.0746 19.9882 3.75283 18.9166 4.17446 18.0013C4.64417 17.3949 5.25443 16.7772 5.94975 17.4618C6.5748 18.0795 8.29461 17.5883 7.85079 19.2961C7.75093 19.4375 7.62518 19.5529 7.47724 19.6459C7.24053 19.7426 7.00013 19.7612 6.76342 19.6459C6.40836 19.5119 6.12358 19.2515 5.79811 19.0766C5.321 19.2813 5.90167 19.3259 5.86468 19.4599C6.01632 19.8989 6.17906 20.2859 6.67466 19.7612C7.02232 19.9919 6.96314 20.7695 7.68066 20.5091C7.96914 20.6356 8.3242 20.8067 8.34269 21.097C8.47954 22.9908 8.58679 24.8958 7.59559 26.6408C7.0704 26.6929 6.85589 25.0037 6.04961 26.3915C5.74633 26.9124 5.52072 26.2985 5.29141 26.1236C5.29141 26.8529 5.92756 26.9124 6.37138 27.1803C6.58219 27.3031 6.75602 27.4743 6.93725 27.6417C7.063 27.7607 7.16286 27.8984 7.24793 28.051C7.33669 28.2965 7.34039 28.5458 7.27012 28.7951C6.85219 29.6285 7.12958 30.3206 7.69915 30.9606C8.13187 32.0284 7.66956 33.0069 7.40327 34.0078C7.13327 34.6255 7.33669 35.2356 7.45135 35.8458C7.3219 37.3825 7.74723 38.9489 7.17766 40.4521C6.08659 40.7944 5.0695 41.8771 3.8268 40.8055C3.49763 40.6828 3.30161 40.2921 2.89107 40.333C2.27342 40.3851 1.78521 41.0251 1.09359 40.7274C0.0801954 38.3015 -0.0973337 35.79 0.34279 33.2153C1.62618 31.6266 1.0566 29.6806 1.20455 27.9207C1.34879 26.1943 0.364982 24.453 0.982634 22.6559C-0.326642 21.8299 0.413062 20.5277 0.287313 19.4412C0.250327 19.1324 -0.197194 18.1092 0.982634 18.5111C1.11208 18.5557 1.18975 18.2023 1.16016 18.046C1.03441 17.3577 0.849488 18.1613 0.609084 18.0423C0.120879 17.7855 0.309504 17.4618 0.379775 17.1233Z" fill="#E84A1E"/>
<path d="M12.2927 24.7321C12.2927 23.9247 12.215 23.1434 11.9561 22.362C11.7601 21.7741 12.0819 21.2979 12.5405 20.9109C13.1397 20.4124 12.7994 21.8299 13.3875 21.3165C13.6908 21.0672 13.8572 20.7212 14.0273 20.3789C13.8905 19.3817 14.5895 18.5594 14.5895 17.5921C14.5192 16.993 14.8114 16.554 15.1997 16.1633C15.2885 16.0963 15.3477 16.007 15.3736 15.8917C15.3736 15.8843 15.3218 15.8805 15.2219 15.8843C15.0888 15.9029 14.9778 15.8768 14.8706 15.8024C14.6487 15.6126 14.5784 15.3596 14.5414 15.0843C14.5192 14.9429 14.4933 14.8015 14.4489 14.6676C14.105 14.1467 13.3653 14.4146 13.0102 13.9309C13.9386 13.2016 12.7624 13.1644 12.6367 12.7812C12.5997 11.3822 13.6945 11.1404 14.6672 10.9246C15.4919 10.7422 16.3167 10.5971 17.0934 10.2548C17.7591 10.0614 18.436 10.0502 19.1165 10.1432C19.6639 10.2437 20.1891 10.4297 20.7142 10.6195C21.4133 10.9692 22.1789 11.2185 22.6708 11.8845C22.7151 12.4017 22.8927 12.77 23.5177 12.6175C24.716 13.0826 25.4188 13.983 25.7553 15.1996C25.833 15.3671 25.5667 15.6275 25.7405 15.6685C25.955 15.7205 25.6592 15.7317 25.8034 15.5159C25.8811 15.315 25.8515 15.1141 25.7442 14.9764C24.4313 13.3021 24.3795 11.9589 26.6763 11.1664C26.8094 11.1218 26.6208 10.839 26.606 10.6641C26.6467 10.5971 26.6874 10.5339 26.728 10.4706C28.4331 10.6864 30.2305 9.9088 31.8616 10.9506C31.7099 12.0259 31.3512 13.0602 31.3105 14.1541C30.9887 14.5783 30.397 14.5076 30.0308 14.8536C29.4428 15.1252 28.888 15.475 28.2629 15.6647C27.4308 15.5382 27.2791 16.26 26.9389 16.7475C26.2768 18.5371 26.7243 20.5351 25.8922 22.2876C25.4114 22.8941 24.716 23.4112 25.0933 24.3563C25.1155 24.6093 25.0785 24.8512 24.9306 25.0632C24.3462 25.3311 24.0873 24.8139 23.7174 24.5684C23.588 24.4158 23.4438 24.3117 23.3402 24.587C23.2662 24.7879 23.3513 24.9293 23.5843 24.9591C24.9417 25.4279 24.1982 26.4548 24.2019 27.2882C24.0725 27.3998 23.9209 27.4631 23.7544 27.4891C22.8409 27.2957 21.9976 28.0733 21.0767 27.6826C20.9953 27.5859 21.0064 27.4556 20.9731 27.3477C20.9214 27.1803 20.8474 27.1803 20.8363 27.3143C20.6181 29.5913 19.1757 31.3996 18.4803 33.4944C18.2177 33.8478 18.0994 34.4431 17.5261 34.3315C17.1674 34.2608 17.1082 33.8218 17.0638 33.472C16.853 32.367 18.2436 31.448 17.4374 30.2722C16.9787 29.8927 16.975 29.5206 17.4558 29.156C18.9131 28.8323 18.0476 27.2064 18.8983 26.5478C19.2681 26.5292 19.1239 26.3394 19.0055 26.1571C18.9205 25.7962 18.9353 25.4427 19.0721 25.1116C19.5973 23.8466 18.4766 25.346 18.5654 24.8102C17.8257 24.4568 17.1415 24.0475 16.8604 23.2066C16.8567 22.2876 17.2672 21.4728 17.4965 20.6096C17.5446 20.4979 17.6001 20.3231 17.6889 20.3119C20.4221 19.9733 19.601 17.4507 20.3333 15.9029C20.6662 15.1959 19.8895 15.0545 19.3939 14.8685C19.0277 14.8499 18.6949 14.1988 18.3102 14.8164C19.9523 16.2303 19.7267 17.38 17.6778 18.1204C17.5002 18.1837 17.5187 18.1874 17.4189 18.5557C17.2006 19.352 17.2265 20.271 16.3907 20.777C16.276 21.0523 15.6362 20.2077 15.8174 21.03C15.9505 21.6365 16.0134 22.2467 15.8396 22.8122C15.5067 23.9024 14.9187 24.5609 13.7758 23.5898C13.761 23.281 13.6945 22.9945 13.3912 22.8308C12.6848 23.2736 13.2691 24.453 12.2927 24.7321Z" fill="#E95025"/>
<path d="M26.7058 43.6891C26.4322 44.0463 26.1622 44.4035 25.8885 44.7606C25.2819 44.8499 25.1968 44.3997 25.0859 43.9756C25.1303 43.637 25.1968 43.3021 25.1968 42.837C25.1155 43.25 25.1451 43.5626 25.0267 43.8454C25.0008 44.0202 24.9306 44.1765 24.8196 44.3104C24.6865 44.4295 24.5348 44.5114 24.361 44.556C23.8913 44.5523 23.4955 44.3923 23.2033 44.0128C23.0776 43.7709 23.0406 43.5142 23.0702 43.2426C23.0998 43.0714 23.1516 42.904 23.2181 42.7477C23.6472 41.9627 22.9925 41.6353 22.5635 41.2483C21.5982 40.3739 21.1285 39.4066 21.8904 38.1713C22.2602 37.5722 22.0272 36.9844 21.9274 36.3853C22.2676 33.0851 23.6546 30.1197 24.8307 27.0873C25.3078 26.7785 25.8626 25.8371 26.1511 27.2361C26.0586 28.6686 25.5223 30.0043 25.2264 31.381C25.3041 31.4963 24.8196 31.8498 25.404 31.7605C26.373 31.2917 26.0364 32.9846 26.913 32.6572C27.0387 32.5195 27.2976 32.3893 27.2569 32.2591C27.1904 32.0544 26.9462 32.2814 26.7761 32.2107C25.7886 31.5187 25.5038 30.6182 25.9033 29.476C26.1289 28.8286 26.066 28.1365 26.1511 27.4668C26.2176 27.2101 26.3064 26.9645 26.4285 26.7338C26.6615 26.4399 26.9389 26.2836 27.3198 26.4473C27.4234 26.5031 27.4714 26.6594 27.6305 26.6259C27.464 26.5813 27.342 26.4734 27.2458 26.3283C26.8686 25.5841 27.2162 24.9218 27.4529 24.2484C27.7451 22.9089 28.8103 21.8151 28.3554 20.204C28.078 19.2143 28.8658 19.0617 30.2675 19.9361C30.6965 20.5463 30.9148 21.2384 31.0627 21.9564C31.1552 22.4699 30.9259 22.9796 31.0257 23.4931C31.17 23.8466 31.4695 24.0586 31.7247 24.3228C32.7492 25.3832 32.7344 25.9562 31.4473 26.4994C30.6891 26.8194 30.249 27.7459 29.28 27.6082C29.2393 27.6008 29.047 27.5449 29.1358 27.6045C30.6374 28.5867 29.4538 29.8109 29.4612 30.9196C29.3762 31.4219 29.3244 31.9317 29.047 32.3744C28.7659 32.6051 28.8473 32.9883 28.6809 33.2674C28.9102 33.0553 28.7696 32.7167 28.9398 32.4823C29.3651 32.021 29.4021 31.4331 29.4797 30.8527C29.4834 30.6108 29.5204 30.3764 29.6055 30.1494C29.7719 29.6918 29.9605 29.1039 30.4894 29.1523C31.2476 29.223 31.0146 29.9411 31.0516 30.4471C31.0664 30.6257 31.0664 30.808 31.0812 30.9866C31.1034 31.2582 31.096 31.5261 31.0664 31.7977C30.8038 34.2348 29.3984 36.296 28.814 38.6326C28.6772 39.1721 28.1113 39.8158 27.6268 39.5703C26.6652 39.0791 27.3087 38.1787 27.4308 37.4346C27.5935 37.1369 27.7266 36.8244 27.8376 36.5007C27.6749 36.657 27.6342 36.9025 27.4566 37.0551C26.4396 35.5556 25.3929 36.6346 24.3758 37.0439C23.9578 37.2113 23.8654 37.5276 24.3277 37.8104C24.7382 37.8178 25.0082 37.5053 25.3485 37.3564C26.8575 37.3527 26.5098 38.5545 26.6837 39.4252C26.6504 39.8419 26.4802 40.2363 26.5024 40.6604C26.9906 41.639 26.5986 42.6808 26.7058 43.6891Z" fill="#E8481C"/>
<path d="M30.7557 31.0164C30.0382 30.5662 31.0849 29.9002 30.556 29.3904C29.8977 29.7513 29.7645 30.3838 29.6462 31.0275C29.5278 31.1912 29.4058 31.1987 29.2874 31.0275C29.121 29.9374 30.1122 28.743 28.9878 27.7421C29.5093 27.2696 29.9642 26.5069 30.5597 26.3766C33.0747 25.826 32.0687 25.0558 30.8075 24.1554C30.6263 24.0252 30.5412 23.7535 30.4118 23.5489C30.8852 23.1806 30.9074 22.615 31.0479 22.0978C31.1959 22.0085 31.3475 21.9937 31.5028 22.0681C31.6619 22.2764 31.6952 22.5108 31.6804 22.6113C31.5916 21.923 31.5102 21.0821 31.7358 20.2524C32.2018 19.7129 32.7381 19.1845 31.9651 18.4776C31.6878 17.2274 32.4349 16.234 32.7825 15.1401C34.4062 15.3224 33.685 16.6693 34.0141 17.3837C34.3951 16.4052 33.1931 15.475 33.5851 14.3588C33.7219 14.2174 33.8884 14.169 34.0807 14.2062C35.5749 15.6945 36.3146 18.7827 35.5823 20.5649C35.5083 20.7398 35.2753 20.6877 35.1126 20.5872C34.9609 19.9882 35.0164 19.3854 35.0497 18.8385C34.58 19.977 35.9004 21.4839 34.4358 22.5071C34.0881 22.6076 33.9402 22.3657 33.7885 22.1239C33.611 22.6187 33.4039 23.0987 33.071 23.5191C33.3484 23.3852 33.4409 22.9052 33.8884 23.0913C34.4505 23.5191 34.3026 24.1256 34.0955 24.5833C33.5333 25.8223 33.5074 27.1394 33.3632 28.4454C33.2485 28.6909 33.1339 28.9365 33.0192 29.1783C32.1057 29.5951 31.954 30.9568 30.7557 31.0164Z" fill="#E84D23"/>
<path d="M22.6153 5.3435C22.5265 6.37785 21.7054 7.21501 21.8275 8.30518C20.9103 9.70789 20.3851 8.91165 19.8895 7.97032C19.7378 7.90706 20.0374 7.65778 19.76 7.62801C19.7748 7.74707 19.7896 7.86614 19.8266 7.98148C20.1077 8.80003 20.3 9.60371 19.601 10.3292C19.4198 10.3553 19.2385 10.3665 19.0536 10.3627C18.558 10.3627 18.0661 10.3367 17.5742 10.3665C16.4425 10.4371 16.3574 9.81207 16.5941 8.94886C16.8567 8.5247 16.7864 7.95171 17.1822 7.58336C17.785 5.59279 18.4249 3.62081 19.7119 1.93533C20.1964 1.29909 20.6403 0.640527 21.4946 0.469375C21.9422 0.562392 22.2306 0.860049 22.4747 1.22096C22.6782 1.60047 22.8483 1.9837 22.704 2.43019C22.042 3.38269 22.0753 4.35379 22.6153 5.3435Z" fill="#91B648"/>
<path d="M27.7895 37.3118C27.697 37.9555 27.6009 38.5992 27.5084 39.2428C27.6823 39.3061 27.8524 39.3693 28.0262 39.4326C28.9324 36.8728 29.8385 34.3129 30.7446 31.7531C31.3919 31.2582 31.5361 30.4248 32.028 29.8183C32.2388 29.5578 32.4238 29.3234 32.7011 29.6657C32.8565 29.8592 32.7566 30.1271 32.6531 30.3504C31.0109 34.432 29.6684 38.6438 27.5565 42.5282C27.3198 42.9598 27.1645 43.4286 26.7058 43.6854C25.6814 42.8705 26.8686 41.5088 25.9624 40.6642C26.066 40.2995 26.8723 40.1805 26.336 39.5889C26.0253 38.9377 26.6874 37.7174 25.256 37.7174C24.6975 37.6281 24.7308 38.1824 24.4867 38.4355C23.7433 38.4057 23.3735 38.0187 23.3846 37.2709C23.392 36.6867 23.8543 36.5193 24.2537 36.5267C25.5334 36.5453 26.0623 35.8049 26.2102 34.3055C26.9573 35.2952 26.7502 36.3295 27.3827 36.9546C27.6268 36.9509 27.6749 37.1741 27.7895 37.3118Z" fill="#E95025"/>
<path d="M25.2042 27.2957C24.0318 30.3355 22.7891 33.353 22.2528 36.5974C22.1012 38.1304 21.4946 39.5442 21.1174 41.0176C20.8289 41.5571 20.5478 42.1041 20.3222 42.6733C19.5677 44.3625 18.7762 46.022 17.0823 46.9968C16.8567 47.034 16.7235 46.9335 16.6755 46.714C16.4905 46.435 16.4757 46.1596 16.7161 45.9029C18.9464 43.611 20.0633 40.7646 20.7734 37.7099C20.8696 35.6784 21.6241 33.8106 22.2232 31.9056C22.4008 31.5224 22.5598 31.1317 22.6966 30.7299C22.8002 30.4248 22.8927 30.1122 22.9445 29.7923C22.9777 29.5504 23.0147 29.3048 23.0517 29.063C23.3476 28.5012 22.4747 27.4743 23.7359 27.2882C23.858 27.2882 23.98 27.2882 24.1021 27.2845C24.4239 26.5664 24.1613 25.6548 24.8418 25.0558C24.8418 24.8065 24.8381 24.5535 24.8381 24.3042C24.7086 23.5377 25.1451 23.002 25.5778 22.4625C25.8478 20.4868 26.1215 18.5074 26.3989 16.5317C26.4026 16.4945 26.4839 16.4424 26.5283 16.4386C26.5838 16.4349 26.6393 16.4796 26.6947 16.5019C27.8117 19.8542 27.1201 23.0466 25.7701 26.1534C25.6074 26.5329 25.4483 26.9459 25.2042 27.2957Z" fill="#DE3B16"/>
<path d="M17.0823 46.9968C18.0291 45.4899 19.3088 44.2063 20.0226 42.5394C20.3 42.5245 20.5367 42.6212 20.7512 42.7961C21.269 43.3282 20.8807 44.0314 21.1322 44.7867C21.0915 43.8454 21.0323 43.064 21.5686 42.4017C21.9569 41.9255 22.4488 41.7394 23.0147 41.9441C23.4585 42.1041 23.7322 42.4129 23.3661 42.9115C23.3624 43.038 23.3587 43.1645 23.355 43.2947C23.1959 43.544 22.9149 43.7895 23.3624 44.0351C23.7322 44.1616 24.1058 44.2881 24.4756 44.4109C24.631 44.8127 24.4054 45.062 24.1243 45.289C23.122 45.6945 22.5006 46.4238 22.3009 47.5028C21.3134 47.8191 20.337 48.2544 19.2718 47.8116C18.5432 47.5214 17.9958 46.714 17.0564 47.0303L17.0823 46.9968Z" fill="#E84B1F"/>
<path d="M17.1859 7.58336C17.3153 7.95915 17.2894 8.32006 17.0786 8.66237C16.7827 9.17955 16.3796 9.4772 15.7545 9.32093C15.5067 9.2428 15.2996 9.09769 15.1073 8.93026C14.7744 8.58423 14.4305 8.68097 14.0828 8.9191C13.4466 9.14234 13.1988 9.44744 13.6131 10.1432C14.1531 11.0473 13.5095 11.3264 12.7735 11.4864C11.9857 11.4082 11.0389 11.6538 10.7615 10.5116C10.6654 10.3813 10.5766 10.2511 10.4841 10.1172C10.3029 9.83439 10.1143 9.57766 9.72224 9.78974C8.66446 9.98322 8.19105 8.96002 7.27012 8.61772C8.03571 8.06333 9.0565 8.28286 9.67416 7.60569C11.0685 8.02241 12.4074 8.10426 13.7832 7.39733C14.8891 6.8169 16.0578 7.31547 17.1859 7.58336Z" fill="#EA562D"/>
<path d="M0.379775 17.1233C1.16756 18.4887 1.09359 15.9066 1.83699 17.0526C1.60768 17.7446 1.67796 18.7455 1.01962 19.6198C0.879076 19.2924 0.764422 19.032 0.535113 18.5036C0.535113 19.8282 0.535113 20.8886 0.535113 22.016C0.982634 22.0011 0.634973 21.1863 1.10099 21.2607C1.44865 21.3165 1.58919 21.7072 1.50782 21.9974C0.653466 25.0967 2.33259 28.1737 1.5633 31.2768C1.35988 32.0954 1.567 33.0776 0.350187 33.2116C0.590591 32.326 -0.134319 31.4442 0.335393 30.5587C0.461143 30.4508 0.727436 30.5885 0.757025 30.4173C0.801407 30.1792 0.553606 30.0601 0.39457 29.9188C0.390871 29.796 0.387173 29.6695 0.379776 29.5467C0.453746 29.383 0.564702 29.2416 0.690451 29.1151C0.819899 28.9886 0.89387 28.8286 0.99373 28.6835C0.786613 28.6649 0.634973 28.9774 0.401967 28.7802C0.416761 25.6102 -0.197194 22.4625 0.0654013 19.2813C0.128276 18.5557 0.00252639 17.8004 0.379775 17.1233Z" fill="#EA5830"/>
<path d="M3.812 40.6828C4.72554 39.1647 4.71814 41.639 5.13607 41.0362C5.5799 40.3963 5.67976 39.4996 6.5748 40.5786C6.61178 40.6232 6.67466 40.6493 6.72644 40.6828C6.83369 40.813 6.88547 40.9655 6.88547 41.1367C6.54151 41.5906 6.10878 41.9962 6.057 42.6212C5.73523 42.9226 5.3284 43.0268 4.91786 43.1198C3.88967 43.0045 4.0635 44.2658 3.34969 44.5039C2.12918 43.5291 1.3118 42.3087 1.09729 40.7274C1.74453 40.3479 2.39547 39.9684 3.04271 39.5889C3.33489 39.9237 3.30161 40.4967 3.812 40.6828Z" fill="#E95627"/>
<path d="M22.6153 5.3435C21.5057 4.46913 21.4983 3.05154 22.6042 2.3781C22.8594 2.14369 23.2181 2.01347 23.3143 1.63396C23.3254 1.0312 22.9851 1.247 22.6856 1.36234C22.5339 1.41443 22.3971 1.38095 22.2824 1.27677C21.9052 1.1205 21.6352 0.863769 21.4946 0.473095C23.5288 -0.498009 24.8825 0.0303314 25.3522 2.01719C25.6148 3.12224 25.5075 4.05613 24.1687 4.45053C23.6102 4.61424 23.1294 5.0384 22.6153 5.3435Z" fill="#88AF3E"/>
<path d="M3.34969 44.5002C3.91186 44.0277 2.8097 41.9366 4.86608 42.9152C5.69455 42.5506 6.37138 42.584 6.73383 43.5812C6.88917 44.0053 7.27382 43.9979 7.65107 43.9235C7.8212 43.9458 7.95804 44.024 8.0616 44.1579C8.3242 44.6714 8.77172 45.0583 9.03061 45.5718C6.94095 46.2638 5.01402 46.0889 3.34969 44.5002Z" fill="#E84D1E"/>
<path d="M16.7161 45.9029C16.7013 46.1745 16.6903 46.4424 16.6755 46.714C14.9593 46.7661 13.2987 47.9232 11.5345 46.967C11.8674 46.0145 12.6737 46.0964 13.5576 46.2638C13.1212 45.5494 12.167 45.4006 12.437 44.5448C12.5923 44.05 13.0176 44.2621 13.3542 44.4109C13.7166 44.277 13.8424 43.8937 14.1124 43.6668C14.4194 43.7114 14.7263 43.7784 14.8003 44.1467C14.9815 45.0471 15.0851 46.0369 16.4166 45.2964C16.5164 45.4973 16.6163 45.6983 16.7161 45.9029Z" fill="#E84B1F"/>
<path d="M33.3595 28.4379C32.9933 27.1878 32.6864 25.9823 33.5888 24.7581C33.8329 24.4307 34.0474 23.761 33.7293 23.214C33.4926 22.7899 33.7589 22.6076 34.0881 22.455C35.3456 21.3239 34.5504 19.7575 35.1977 18.4106C35.1977 19.1362 35.1977 19.858 35.1977 20.5835C35.353 20.7026 35.5638 20.7658 35.623 20.9891C35.2864 23.601 34.4616 26.0641 33.3595 28.4379Z" fill="#EB5D34"/>
<path d="M31.1108 14.3402C31.0849 13.1495 30.6781 11.8733 31.8616 10.9506C32.568 11.3152 33.3114 11.6352 33.6739 12.4277C32.6531 12.9263 33.8144 13.6258 33.5148 14.1913C33.4113 14.4369 33.267 14.649 33.0266 14.7792C32.6494 15.0062 32.298 15.2889 31.832 15.315C31.5546 15.3261 31.2957 15.2629 31.0738 15.0843C30.9185 14.8313 30.9074 14.5783 31.1108 14.3402Z" fill="#EB5C33"/>
<path d="M22.0864 8.50238C23.9541 8.39448 25.6259 8.74794 26.728 10.4706C26.728 10.5413 26.7132 10.6083 26.6837 10.6753C26.3693 11.2148 25.8626 11.3041 25.3041 11.2631C24.1872 10.6753 23.1479 9.88648 21.8016 9.87532C21.4909 9.33581 21.5168 8.86329 22.0864 8.50238Z" fill="#EA5C35"/>
<path d="M22.0864 8.50238C21.7905 8.90049 21.8127 9.33954 21.92 9.78602C22.1382 9.98322 22.423 10.1358 22.4378 10.4892C22.1049 11.5571 21.3615 11.0957 20.7031 10.9618C20.1632 11.0101 19.6898 10.8576 19.2829 10.4967C19.172 10.4334 19.135 10.3665 19.1683 10.2958C19.2015 10.2251 19.2385 10.1916 19.2755 10.1916C19.405 10.1879 19.5381 10.1804 19.6676 10.173C20.1558 9.49953 19.5529 8.6326 20.0522 7.95915C20.5515 8.55819 21.1544 8.61772 21.8275 8.30146C21.9422 8.33122 22.0272 8.3982 22.0864 8.50238Z" fill="#89AA41"/>
<path d="M35.623 20.9928C35.4824 20.8588 35.3419 20.7212 35.1977 20.5872C36.1778 18.1316 35.2901 16.1224 33.7145 14.2769C33.4224 13.7039 33.3373 13.1793 34.0659 12.863C36.2443 15.248 36.2887 18.0534 35.623 20.9928Z" fill="#EB5C33"/>
<path d="M22.3046 47.5028C21.8571 46.1336 22.7262 44.9988 24.1058 45.1513C24.7123 45.0509 24.9638 45.3002 24.8492 45.9104C24.1243 46.6396 23.3143 47.2312 22.3046 47.5028Z" fill="#E84C22"/>
<path d="M17.0601 47.0303C17.3264 46.8926 17.5816 46.7177 17.859 46.621C18.325 46.4573 18.717 45.5792 19.2126 46.1522C19.76 46.781 18.6985 46.6991 18.5802 47.0452C18.3916 47.607 19.2903 47.3168 19.2718 47.8116C18.4433 47.8191 17.6778 47.633 17.0601 47.0303Z" fill="#EB663A"/>
<path d="M32.6494 30.3541C32.5162 30.1941 32.7048 29.4388 32.1279 30.1085C31.6582 30.6517 31.8912 31.7977 30.7446 31.7568C30.7483 31.5112 30.752 31.2619 30.7557 31.0164C31.5583 30.462 31.6249 28.996 33.0155 29.1746C33.0673 29.6211 32.9452 30.0155 32.6494 30.3541Z" fill="#EC6A45"/>
<path d="M9.03061 45.5718C8.09859 45.4787 7.75832 44.9169 7.83599 44.0314C7.99133 43.7375 8.36118 43.8826 8.5572 43.6705C8.97884 44.2323 9.71854 44.6825 9.23403 45.5718L9.13417 45.6239L9.03061 45.5718Z" fill="#E1461C"/>
<path d="M34.0659 12.8593C33.7885 13.2909 33.6665 13.7597 33.7145 14.2732L33.7182 14.2695C33.5962 14.4034 33.4778 14.396 33.3632 14.2583C33.415 13.5253 32.7122 13.3132 32.3683 12.8407C32.8195 12.6956 33.2448 12.5579 33.6702 12.424C33.8033 12.5728 33.9328 12.7179 34.0659 12.8593Z" fill="#E84D23"/>
<path d="M0.401967 28.7765C0.890171 28.7244 0.612782 27.9505 1.29701 27.9282C1.23413 28.6537 1.43016 29.4127 0.379776 29.5467C0.117181 29.2825 0.176357 29.0258 0.401967 28.7765Z" fill="#E84A1E"/>
<path d="M24.8492 45.9104C24.7123 45.5494 24.4534 45.3039 24.1058 45.1513C24.2278 44.9058 24.3536 44.6602 24.4756 44.4146V44.4183C25.33 43.9235 25.3485 44.69 25.5741 45.1513C25.489 45.5494 25.2708 45.8322 24.8492 45.9104Z" fill="#EC633B"/>
<path d="M0.39457 29.9188C0.86798 29.9002 1.20085 30.0639 1.17866 30.6034C1.17126 30.7559 1.0788 30.9047 1.02702 31.0573C0.797708 30.8899 0.564702 30.7224 0.335393 30.5587C0.353886 30.3429 0.372378 30.1308 0.39457 29.9188Z" fill="#F18865"/>
<path d="M25.5778 45.1476C25.1968 44.9244 25.0489 44.3477 24.4793 44.4146C24.6014 44.2881 24.7197 44.1616 24.8418 44.0351C24.9675 43.8565 25.0933 43.8565 25.219 44.0351C25.4446 44.277 25.6666 44.5188 25.8922 44.7607C25.7849 44.8909 25.6814 45.0174 25.5778 45.1476Z" fill="#E84C22"/>
<path d="M6.74493 41.0474C6.73753 40.9246 6.73383 40.8055 6.72644 40.6828C7.44395 38.9861 6.93725 37.2039 7.08519 35.4663C6.70055 34.9715 7.19615 34.4803 7.09259 33.9855C6.92246 32.9623 7.96544 32.0916 7.46614 31.0275C6.98903 30.3429 6.95574 29.5839 7.08149 28.7951C7.08519 28.5495 7.08889 28.3002 7.09629 28.0547C7.04451 27.6677 7.0556 27.2882 7.18135 26.9124C7.24423 26.7673 7.33669 26.6483 7.46614 26.5552C7.47724 24.5647 8.84199 22.5704 7.45135 20.5835C7.14067 20.2152 7.16656 19.8468 7.46244 19.4822H7.47724C8.62748 17.9567 8.67186 16.1484 8.76802 14.3513C9.28581 13.637 9.91826 13.0082 10.3584 12.2305C11.1462 11.9887 11.7083 11.185 12.6404 11.2929C12.903 10.9729 14.0458 11.0771 13.2284 10.2437C11.6529 8.63632 12.9252 8.71446 14.0902 8.69213C14.4489 8.3982 14.8188 8.37959 15.1997 8.65493C15.3366 8.78515 15.4734 8.9191 15.6103 9.04932C15.3847 9.65952 14.9519 10.359 16.1946 10.2772C16.5312 10.2548 16.9048 10.2548 17.086 10.6567C16.4351 11.2073 15.6621 11.2706 14.8484 11.3264C13.8831 11.3934 13.1138 11.8994 12.6404 12.7849C10.3029 14.1132 9.79251 16.4684 9.34129 18.8273C9.22664 19.4264 9.25992 20.0514 8.95664 20.6058C9.59279 22.0234 8.92706 23.4857 9.09349 24.9367C9.29321 26.6445 9.08239 28.3858 9.0713 30.116C9.04541 30.5922 8.96034 31.0461 8.5683 31.3773C7.92106 34.4506 7.8175 37.5648 7.8286 40.6902C7.62148 40.8986 7.42176 41.1181 7.12588 41.1999C6.96314 41.2297 6.84109 41.1739 6.74493 41.0474Z" fill="#DF3E17"/>
<path d="M8.5757 30.2722C8.5794 27.0464 8.44255 23.8131 8.95295 20.6058C9.52992 20.8737 10.1032 21.3165 10.6617 20.3305C10.891 21.7518 9.44855 21.8485 9.22664 23.1359C10.0773 22.5146 10.7837 22.1164 11.161 23.2029C11.4753 23.6977 10.6691 24.1963 11.161 24.6912C11.283 24.8177 11.4014 24.9442 11.5234 25.0707C10.5951 25.6399 10.5174 26.6557 10.2363 27.5635C10.2215 27.8166 10.1291 28.0249 9.92936 28.1812C9.12678 28.6537 9.5595 29.4537 9.42636 30.1048C9.19335 30.4397 8.92336 30.5662 8.5757 30.2722Z" fill="#E95127"/>
<path d="M17.4263 33.2227C17.4817 33.4981 17.5372 33.7734 17.589 34.0525C17.7887 33.7846 17.9884 33.5167 18.1882 33.2488C18.4397 33.3827 18.5802 33.6246 18.7466 33.8441C18.8798 34.0078 18.9907 34.1864 19.0499 34.391C19.0573 34.5399 19.0018 34.6589 18.8835 34.752C18.5876 34.752 18.3287 34.8226 18.1808 35.1166C17.6926 35.79 17.785 36.7537 17.0934 37.3267C16.4868 37.9257 15.7175 37.4271 15.0259 37.5574C14.1974 37.7136 14.5747 36.8169 14.8077 36.3705C15.4143 35.191 16.0689 34.0413 16.705 32.8767C16.8974 33.0888 17.16 33.1558 17.4263 33.2227Z" fill="#EA572C"/>
<path d="M22.6301 31.7679C22.0198 33.7511 21.7831 35.8533 20.7734 37.7136C20.1151 36.0988 20.2556 34.4878 20.7734 32.873C21.1359 31.3475 21.502 31.1317 22.6301 31.7679Z" fill="#E7481B"/>
<path d="M14.8669 29.1597C14.8632 29.9597 14.8558 30.7596 14.8521 31.5596C14.8484 32.3595 14.5155 32.9437 13.6612 32.8135C12.7217 32.6684 13.0028 31.9465 13.2062 31.3698C13.7388 29.8815 14.3047 28.4044 14.8595 26.9236C15.0185 26.678 15.2256 26.4027 15.5326 26.5664C15.8211 26.719 15.8174 27.0278 15.5992 27.2957C15.2293 27.8687 15.5104 28.6984 14.8669 29.1597Z" fill="#EB5A32"/>
<path d="M17.8146 20.5984C17.8183 21.5397 17.4189 22.3657 17.0749 23.2029C16.9787 23.3145 16.8715 23.4224 16.7605 23.5191C16.191 24.0177 16.0874 25.2902 14.8558 24.6874L14.6709 24.6837H14.4859C14.1716 24.6912 13.9423 24.5349 13.7536 24.3042C13.7536 24.0661 13.7536 23.8242 13.7573 23.5861C15.9616 24.081 15.7249 22.5927 14.9852 19.7538C15.614 19.7538 15.7989 20.4644 16.3389 20.5909C16.5571 20.5054 16.4535 21.7183 16.927 20.7286C17.0971 20.3863 17.4632 20.2859 17.8146 20.5984Z" fill="#EB5E34"/>
<path d="M14.8558 24.6912C15.6066 24.5535 16.191 24.3414 16.0874 23.3294C16.0319 22.7824 16.4831 23.214 16.7087 23.214C16.8012 24.8102 18.4729 26.0827 17.6408 27.8687C17.5779 27.9282 17.515 27.9877 17.4484 28.0472C16.8234 27.8128 16.816 26.0381 15.5955 27.2994C15.6103 26.6445 15.2589 26.7338 14.8558 26.9273C14.8595 26.1794 14.8595 25.4353 14.8558 24.6912Z" fill="#E95127"/>
<path d="M12.6367 38.0857C13.3838 39.0531 11.9413 39.9609 12.559 40.9916C12.7069 41.2371 12.0597 41.2632 11.8341 41.1999C11.32 41.0623 11.2941 40.6307 11.4273 40.173C11.7712 39.0047 11.9857 37.8364 11.5049 36.6421C11.357 36.2774 11.1388 36.0133 10.7911 35.8496L10.7874 35.8458C10.6099 35.5445 10.4324 35.2431 10.2511 34.9417C11.3866 34.4208 11.4457 36.5528 12.6219 35.8384C12.6811 35.8942 12.7365 35.9463 12.7957 35.9984C13.0324 36.7202 12.4702 37.3751 12.6367 38.0857Z" fill="#EA562A"/>
<path d="M19.2977 26.5478C18.7392 27.024 18.7651 27.7607 18.7133 28.3523C18.6098 29.5281 18.7096 29.5392 17.4521 29.1523C17.4521 28.7802 17.4521 28.4119 17.4521 28.0398H17.4484C18.214 27.0613 17.7332 25.6548 18.5654 24.6986C18.9944 24.3451 19.2866 23.6494 20.1299 24.1219C19.4567 24.8065 19.1941 25.6213 19.2977 26.5478Z" fill="#EB6037"/>
<path d="M22.6301 31.7679C21.502 31.2694 21.269 32.2963 20.7734 32.873C20.5441 32.8767 20.3111 32.8804 20.0818 32.8879C19.6713 32.9028 19.3532 32.7353 19.1239 32.3967C18.8354 31.5819 19.0721 30.9568 19.8081 30.5178C20.1928 30.4211 20.6218 30.8601 20.9842 30.3913C21.7942 29.342 22.4119 29.9188 23.011 30.6443C22.9851 31.0536 23.048 31.4926 22.6301 31.7679Z" fill="#E9542A"/>
<path d="M8.5757 30.2722C8.89007 30.2536 9.16376 30.1792 9.27102 29.8295C9.00842 29.3197 9.26362 28.9663 9.62978 28.6463C9.90347 28.5347 10.1587 28.557 10.3991 28.7356C9.54101 30.0639 10.5618 32.0619 8.8309 33.0888C8.35379 32.5939 8.67186 31.9465 8.5683 31.3773C8.5683 31.0089 8.572 30.6406 8.5757 30.2722Z" fill="#EA562A"/>
<path d="M10.9538 33.5316C11.1795 31.6861 11.394 29.9522 11.6418 27.9393C12.4037 29.3532 11.9266 32.7428 10.9538 33.5316Z" fill="#EB592F"/>
<path d="M13.0102 13.9346C13.5317 13.9197 14.0569 13.8714 14.5747 13.9048C15.1554 13.942 15.2811 14.2323 14.8928 14.6974C14.2899 14.8722 14.375 15.3968 14.3232 15.8508C14.2566 16.2787 14.0976 16.6396 13.6612 16.8107C13.4614 16.8888 13.1952 17.1791 13.0657 16.8591C12.7476 16.0815 13.5243 14.9355 12.2742 14.4555C12.522 14.2806 12.7661 14.1095 13.0102 13.9346Z" fill="#F6B09C"/>
<path d="M12.6219 35.8421C12.5183 34.9454 13.7351 34.7966 13.7129 33.8404C13.7055 33.513 14.3417 33.699 14.4379 34.112C14.6635 35.0868 14.2418 35.7751 13.3838 36.2216C13.0731 36.2291 12.8475 36.0728 12.6478 35.8533L12.6219 35.8421Z" fill="#EA5A30"/>
<path d="M7.08519 41.0623C7.24423 40.7646 7.51792 40.6939 7.8249 40.6902C8.28721 41.6278 7.93955 42.7701 8.5572 43.6668C8.40557 43.9681 8.13188 44.0202 7.83599 44.0277V44.024C7.18875 43.5514 7.01862 42.8222 6.8189 42.1078C6.75972 41.7283 6.84109 41.3748 7.08519 41.0623Z" fill="#D23417"/>
<path d="M17.4263 33.2227C17.012 33.4646 16.6976 33.5018 16.705 32.873C16.7235 31.9428 17.626 31.2619 17.4337 30.2722C17.9884 29.796 18.214 30.0936 18.1105 30.6443C17.944 31.5187 17.6593 32.367 17.4263 33.2227Z" fill="#ED6E46"/>
<path d="M14.841 17.5958C14.6672 17.9009 16.191 18.0609 14.8706 18.5334C13.9977 18.8497 14.8743 20.0775 14.1494 20.6207C13.8239 20.4793 14.0236 20.0663 13.7758 19.884C13.7277 19.0915 13.6797 18.3027 14.1383 17.5921C14.3713 17.4023 14.608 17.4023 14.841 17.5958Z" fill="#EC633A"/>
<path d="M14.8669 29.1597C14.8336 28.4305 15.0074 27.7794 15.5992 27.2957C15.6621 27.5226 15.688 27.7682 15.7952 27.9728C16.006 28.3747 16.5534 28.7319 16.1762 29.223C15.7915 29.7253 15.3181 29.0444 14.8669 29.1597Z" fill="#E95127"/>
<path d="M10.0736 27.7087C10.0588 26.5552 10.0255 25.3869 11.5234 25.0707C11.1388 25.9562 10.7578 26.8455 10.3732 27.731C10.2622 27.85 10.1624 27.8463 10.0736 27.7087Z" fill="#EC6239"/>
<path d="M12.2927 24.7321C13.0102 24.3042 12.0486 22.9089 13.3764 22.8308C13.2469 23.5898 13.1286 24.3489 12.9843 25.1042C12.9363 25.3646 12.903 25.7999 12.4924 25.5395C12.326 25.4316 12.3519 25.0111 12.2927 24.7321Z" fill="#F07F5A"/>
<path d="M18.8835 34.7482C18.8983 34.6217 18.9131 34.4952 18.9316 34.3687C18.8169 34.2087 18.8354 34.0673 18.987 33.9408C19.1646 33.8925 19.3199 33.926 19.4604 34.0487C19.6602 34.5064 20.0411 34.9343 19.6565 35.4738C19.0018 35.8012 19.6528 36.8951 18.6542 37.0923C18.7355 36.2886 18.8095 35.5184 18.8835 34.7482Z" fill="#EF764F"/>
<path d="M16.7938 39.76C16.7272 40.6902 16.1096 41.133 15.1221 41.8176C15.6288 40.7348 15.9875 40.0688 16.7938 39.76Z" fill="#ED6C45"/>
<path d="M18.9611 41.598C18.9611 40.6604 18.7022 39.6224 20.0559 38.8968C19.6195 39.9758 19.2903 40.7869 18.9611 41.598Z" fill="#E7481B"/>
<path d="M17.0971 37.323C17.3412 36.5267 17.282 35.5817 18.1845 35.1129C18.1549 36.017 18.3139 37.0104 17.0971 37.323Z" fill="#EE7247"/>
<path d="M13.6612 16.8107C13.8128 16.461 13.9644 16.1112 14.1161 15.7652C14.2196 15.3745 14.1864 14.8425 14.8558 15.0248C14.8743 15.3075 14.9002 15.5829 15.185 15.7429C15.2626 16.5465 14.8262 16.9967 14.142 17.2832C13.9829 17.1233 13.8239 16.967 13.6612 16.8107Z" fill="#EC633A"/>
<path d="M12.6441 35.857C12.951 35.8533 13.221 35.9277 13.3801 36.2254C12.8993 36.75 13.2321 37.6057 12.6367 38.0857C11.7712 37.3378 12.9067 36.6011 12.6441 35.857Z" fill="#EE714A"/>
<path d="M10.0514 35.8496C8.64597 36.2142 9.00103 35.3324 9.075 34.3092C9.69265 34.845 9.50033 35.6077 10.0514 35.8496Z" fill="#EA562A"/>
<path d="M14.142 17.2795C14.4896 16.7661 14.8373 16.2526 15.185 15.7391H15.2145C15.5622 15.6573 15.6953 15.7838 15.5992 16.1373C15.3477 16.6247 14.8521 16.9856 14.8373 17.5958C14.6043 17.5958 14.3676 17.5958 14.1346 17.5921C14.1383 17.4879 14.142 17.3837 14.142 17.2795Z" fill="#F19377"/>
<path d="M19.2903 32.5047C19.6121 32.5009 19.908 32.5567 20.0744 32.8842C20.0596 33.2488 20.0448 33.6134 20.0263 33.978C19.7785 34.2087 19.5307 34.2087 19.2792 33.9855L19.294 34.0004C18.9057 33.6209 18.8835 33.1855 19.0943 32.7093C19.1609 32.6423 19.2274 32.5753 19.2903 32.5047Z" fill="#ED6E46"/>
<path d="M11.161 24.6912C9.66306 24.1963 11.2238 23.6977 11.161 23.2029C11.8489 23.6977 11.3348 24.1963 11.161 24.6912Z" fill="#EC6239"/>
<path d="M15.3477 38.521C15.6288 39.2428 15.1295 39.44 14.6376 39.8344C14.6191 39.161 14.7226 38.7443 15.3477 38.521Z" fill="#ED704B"/>
<path d="M19.2829 33.9855C19.5307 33.9818 19.7822 33.9818 20.03 33.978C19.834 34.458 20.4923 35.1538 19.6565 35.47C19.5344 34.9752 19.4087 34.4803 19.2829 33.9855Z" fill="#E7481B"/>
<path d="M10.7911 36.2179C10.7393 36.6718 10.8133 37.2002 10.6062 37.5685C10.2844 38.1415 10.1217 37.7434 10.0551 37.349C10.5285 37.1183 9.8147 36.11 10.7911 36.2179Z" fill="#ED6C47"/>
<path d="M13.7758 19.8877C13.9016 20.1333 14.0273 20.3789 14.1494 20.6244C14.1087 21.0932 13.8831 21.3537 13.3875 21.3239C13.5169 20.844 13.6464 20.364 13.7758 19.8877Z" fill="#EE7551"/>
<path d="M9.25622 42.7961C9.40786 42.651 9.51142 42.5506 9.61498 42.4538C9.74813 42.625 9.94415 42.7812 9.99963 42.9747C10.0514 43.1607 10.0477 43.5179 9.67786 43.3542C9.50403 43.2724 9.41156 43.0119 9.25622 42.7961Z" fill="#EE724C"/>
<path d="M10.0736 27.7087C10.1735 27.6975 10.2733 27.7049 10.3732 27.731C10.3806 28.0658 10.3917 28.4007 10.3991 28.7356C10.1772 28.7281 9.95894 28.7244 9.73703 28.717C9.51142 28.5123 9.47814 28.3077 9.74443 28.1068C9.85169 27.9766 9.96264 27.8426 10.0736 27.7087Z" fill="#F49E87"/>
<path d="M9.39307 39.7117C9.45595 39.8047 9.60389 39.9349 9.61498 40.0726C9.62238 40.1805 9.45964 40.3032 9.37088 40.4186C9.25992 40.2958 9.09349 40.1879 9.04541 40.0428C8.99363 39.8679 9.09719 39.7079 9.39307 39.7117Z" fill="#EE724E"/>
<path d="M14.1124 43.663C13.9977 44.0537 14.1568 44.7272 13.3542 44.4072C13.3801 43.9272 13.6279 43.6742 14.1124 43.663Z" fill="#EB6236"/>
<path d="M13.7573 24.3079C14.0569 24.3265 14.3306 24.3935 14.4896 24.6874C14.3602 24.9442 14.2011 25.3014 13.8905 25.1228C13.7388 25.0335 13.7943 24.5907 13.7573 24.3079Z" fill="#E95025"/>
<path d="M10.6949 45.3039C10.5359 44.7718 10.425 44.6007 10.4656 44.4816C10.5063 44.3551 10.6949 44.2807 10.817 44.1839C10.8873 44.3216 11.0167 44.463 11.0093 44.5932C11.0019 44.7569 10.8799 44.9132 10.6949 45.3039Z" fill="#EF7B51"/>
<path d="M10.7911 36.2179C10.547 36.5937 10.2992 36.9732 10.0551 37.349C10.0551 36.8504 10.0514 36.3519 10.0514 35.8533C10.2992 35.8533 10.5433 35.8533 10.7911 35.8496L10.7948 35.8533C10.7911 35.9723 10.7911 36.0951 10.7911 36.2179Z" fill="#EA562A"/>
<path d="M8.93445 14.2732C9.91086 16.1001 8.29831 17.6925 8.43515 19.4599C8.45365 19.7203 7.80641 19.4412 7.46984 19.4859C7.54381 19.3185 7.61778 19.151 7.69175 18.9836C6.64877 18.5818 5.94975 17.06 4.49623 17.9976C4.18925 17.6776 4.37788 17.3502 4.44815 17.0005C4.52212 16.6247 4.24103 16.9261 4.13007 16.8814C3.12778 16.2898 3.71584 14.5671 2.29191 14.2732C1.98863 13.6779 2.26972 13.224 2.64697 12.7886L2.65067 12.7812C3.12038 12.3794 3.18695 11.4417 4.12638 11.665C4.12638 11.7915 4.12638 11.918 4.12638 12.0445C4.46664 12.331 4.44815 12.7291 4.50732 13.1272C4.59239 13.7076 4.72554 13.0342 4.85499 13.1086C5.48373 12.837 6.14207 12.77 6.8078 12.7403C7.44025 12.7589 8.03201 12.9114 8.53871 13.317C8.86048 13.5588 8.75692 13.9718 8.93445 14.2732Z" fill="#E7461A"/>
<path d="M7.46614 26.5552C7.45874 26.6855 7.45135 26.8157 7.44395 26.9459C7.11108 27.2361 7.0593 27.7124 6.75233 28.0212C5.64277 27.3515 4.50732 26.6929 4.99923 25.0409C5.5651 25.2009 5.45415 25.8074 5.76112 26.2092C6.19385 25.9004 5.83509 24.8958 6.46754 25.0111C7.11108 25.1302 7.566 25.7553 7.46614 26.5552Z" fill="#E94E25"/>
<path d="M8.93445 14.2732C8.63487 14.1206 8.572 13.8453 8.5683 13.5439C8.3094 13.0454 8.33159 12.5505 8.5646 12.0519C9.42266 11.7171 9.98483 11.1441 10.0551 10.1767C10.3029 9.95345 10.5507 9.97206 10.7911 10.1879L10.8207 10.2139C11.2793 11.0548 10.6913 11.7096 10.4361 12.424C10.2141 13.2649 10.1513 14.2397 8.93445 14.2732Z" fill="#EA5930"/>
<path d="M4.13377 16.8777C4.3261 16.5986 4.3187 16.1596 4.76622 16.0777C5.13237 16.7884 4.45185 17.3391 4.49993 17.9939C3.84159 19.3333 4.34829 20.9853 3.09079 22.1983C3.44215 20.4272 3.78611 18.6525 4.13377 16.8777Z" fill="#EB6239"/>
<path d="M6.71904 13.1607C6.11618 13.0342 5.52442 13.5439 4.91416 13.2016C4.86238 13.1495 4.8106 13.0937 4.75882 13.0416C4.64787 12.77 4.65157 12.4649 4.51842 12.2008C4.49623 12.1301 4.47774 12.0631 4.45555 11.9924C4.8106 11.3673 5.37648 11.2445 6.03111 11.3264C6.41946 11.8696 6.86328 11.2706 7.27382 11.3859C8.13557 12.078 8.12818 12.1077 6.71904 13.1607Z" fill="#EA5A34"/>
<path d="M6.71904 13.1607C6.67836 12.6658 7.063 12.5059 7.36628 12.238C7.85079 11.8101 7.45505 11.7171 7.08149 11.6613C6.87808 11.2855 7.18135 11.1478 7.40327 10.9766C7.99133 11.1106 8.30201 11.5534 8.5646 12.0482C8.90856 12.5468 8.89377 13.0416 8.5683 13.5402C7.95065 13.4137 7.33669 13.2872 6.71904 13.1607Z" fill="#ED6F4B"/>
<path d="M2.65067 12.7886C2.53231 13.2835 2.41396 13.7783 2.29561 14.2732C2.26602 14.7978 2.23643 15.3224 2.19945 15.9326C0.956745 14.8015 1.17496 13.5886 2.65067 12.7886Z" fill="#EA5830"/>
<path d="M7.08519 28.7951C7.51792 29.4872 7.49203 30.2573 7.46984 31.0275C6.53042 30.4248 5.99783 29.7513 7.08519 28.7951Z" fill="#EB6138"/>
<path d="M4.13007 11.665C3.63817 12.037 3.14627 12.4091 2.65437 12.7812C2.74313 11.6278 3.48283 10.9915 4.43705 10.5302C4.55171 10.5971 4.59979 10.6753 4.5813 10.7646C4.5628 10.8613 4.53691 10.906 4.50363 10.906C4.38157 11.1627 4.25583 11.412 4.13007 11.665Z" fill="#EA5A34"/>
<path d="M7.40327 10.9766C7.29601 11.2036 7.18875 11.4343 7.08149 11.6613C6.63767 11.7878 6.38247 12.517 5.87208 12.2342C5.40606 11.9775 5.92756 11.6315 6.03481 11.3301C6.46384 11.1106 6.87808 10.8241 7.40327 10.9766Z" fill="#F19D88"/>
<path d="M4.91416 13.2016C4.818 13.7821 4.52212 14.1913 3.78611 14.5076C4.12268 13.5997 4.16706 12.8258 4.13377 12.0445C4.24473 12.0408 4.35199 12.0259 4.45924 11.9961L4.50363 12.0408C4.91046 12.3087 4.65157 12.7998 4.86238 13.1309L4.91416 13.2016Z" fill="#EA5A34"/>
<path d="M6.70425 19.8505C6.51192 20.1184 6.3196 20.39 6.11988 20.6691C5.94605 20.2598 5.77962 19.8729 5.61688 19.4896C5.40607 19.0692 5.65757 18.8831 5.99413 18.7418C6.34919 18.8906 6.59699 19.1436 6.73753 19.5045C6.8189 19.5901 6.84479 19.6682 6.8078 19.7426C6.76712 19.817 6.73383 19.8505 6.70425 19.8505Z" fill="#E7461A"/>
<path d="M5.99043 18.7418C5.86468 18.991 5.73893 19.2403 5.61318 19.4896C5.25073 19.3966 4.60718 19.4747 4.84389 18.872C4.98074 18.526 5.53551 18.1539 5.99043 18.7418Z" fill="#EA582F"/>
<path d="M4.50732 10.9097C4.48513 10.7832 4.46294 10.6604 4.44075 10.5339C4.62938 10.2288 4.8069 9.89392 5.22854 9.90508C5.43195 9.91252 5.55401 10.0651 5.48004 10.2734C5.3247 10.7274 4.95854 10.8911 4.50732 10.9097Z" fill="#EE8A6A"/>
<path d="M6.70425 19.8505C6.72274 19.7352 6.73014 19.6198 6.73383 19.5008C6.97794 19.4933 7.21834 19.4859 7.46244 19.4822C7.45874 19.8505 7.45505 20.2189 7.45505 20.5835C6.51932 21.0412 6.75233 20.3007 6.70425 19.8505Z" fill="#EA613C"/>
<path d="M1.21194 37.0067C1.5707 37.4123 1.68535 37.8736 1.09359 38.4689C1.14537 37.8401 1.17866 37.4234 1.21194 37.0067Z" fill="#EB5E31"/>
<path d="M6.75233 28.0212C6.71164 27.4854 6.67096 26.9496 7.44395 26.9459C7.47354 27.3589 7.53271 27.7831 7.09999 28.0547C6.98164 28.0398 6.86698 28.0286 6.75233 28.0212Z" fill="#ED6A48"/>
<path d="M7.09629 33.9855C7.75463 34.4841 6.98533 34.9715 7.08889 35.4663C6.54891 34.9715 6.5785 34.4766 7.09629 33.9855Z" fill="#EB5C31"/>
<path d="M3.812 40.6828C2.8208 40.839 3.0612 40.1209 3.04271 39.5852C3.53461 39.7861 3.75283 40.1767 3.812 40.6828Z" fill="#EF8D67"/>
<path d="M10.7911 10.1841C10.547 10.1804 10.2992 10.1767 10.0551 10.173C9.94045 10.0427 9.8295 9.91624 9.71484 9.78602C9.71854 9.54045 9.74443 9.27256 10.0699 9.32093C10.5322 9.39535 10.8022 9.68556 10.7911 10.1841Z" fill="#EF7953"/>
<path d="M25.2042 27.2957C26.2768 23.7796 27.0165 20.2189 26.6911 16.5093C26.9499 15.8657 26.6984 14.5746 28.1039 15.382C28.5847 15.7764 27.5528 16.5577 28.3776 16.7512C28.9545 16.8851 29.3281 16.3159 29.6018 15.821C29.8015 15.4601 29.8311 14.9727 30.3341 14.8425C30.6189 14.8462 30.826 14.995 30.985 15.2182C31.5102 15.7205 31.9356 16.2861 32.102 17.0191C32.0317 17.5586 32.0391 18.1018 32.0465 18.645C32.065 18.8273 32.0243 18.9948 31.9282 19.1473C31.7654 19.2255 31.6027 19.2292 31.4437 19.1622C31.2957 19.2106 31.2883 18.6004 31.1145 19.0394C30.937 19.4822 30.8482 19.951 30.4783 20.2896C30.3082 20.3789 30.1566 20.3603 30.0123 20.23C29.6869 19.8356 29.2319 19.4301 28.7807 19.7017C28.3184 19.9808 28.6402 20.4682 28.9176 20.8067C29.3355 21.3202 29.3873 21.8858 28.8621 22.2653C28.1298 22.801 28.3554 23.7535 27.808 24.3377C27.5454 24.1107 27.4936 23.8428 27.5528 23.7275C27.6083 24.7433 26.7058 25.7069 26.68 26.9199C26.5579 27.0464 26.4359 27.1692 26.3101 27.2957C26.1881 27.4705 26.066 27.4817 25.9439 27.2957C25.6998 26.0381 25.452 27.5412 25.2042 27.2957Z" fill="#EA5529"/>
<path d="M17.8146 20.5984C17.2783 20.6319 17.1008 20.9593 17.0527 21.4542C17.0083 21.9044 16.7901 22.4401 16.2871 22.2504C15.7323 22.042 16.1133 21.5286 16.2353 21.1379C16.2908 20.963 16.3056 20.777 16.3389 20.5947C16.6718 19.5194 17.2635 18.5074 17.0564 17.2944C17.5668 17.2572 17.5668 18.2097 18.1955 17.7558C18.7392 17.3614 18.9168 16.7996 19.0536 16.2042C19.2126 15.4936 18.6727 15.6685 18.288 15.5531C17.9071 15.4415 17.1969 15.3373 17.822 14.6378C18.3102 14.5188 18.8021 14.4741 19.2903 14.6453C20.4701 14.4629 21.2098 14.5671 20.803 16.1559C20.448 17.5362 19.7341 18.8273 19.7674 20.3268C19.7822 20.9481 19.4678 21.4951 18.865 20.5686C18.558 20.0998 18.1549 20.1668 17.8146 20.5984Z" fill="#E84A1E"/>
<path d="M23.0073 30.6406C22.4636 30.8824 21.3541 29.0221 21.2283 31.1838C21.2024 31.6154 20.3222 31.1391 20.03 30.6294C20.3703 29.6285 19.8969 28.3077 21.1655 27.6677C22.0124 27.4705 22.7484 26.5217 23.7359 27.2882C22.8335 27.7682 24.1095 28.6463 23.3994 29.1635C22.8002 29.3569 23.1035 29.6174 23.3439 29.8741C23.355 30.1866 23.2995 30.4694 23.0073 30.6406Z" fill="#E84D20"/>
<path d="M25.2079 10.932C25.6998 10.8464 26.1918 10.7608 26.6837 10.6753C27.5935 11.2557 27.0572 11.7617 26.4691 11.9031C24.8011 12.3049 24.7382 12.9561 25.8071 14.1802C26.066 14.4778 26.6134 15.2071 25.9218 15.7838C25.6111 15.8694 25.4853 15.7615 25.5593 15.4378C25.1636 14.2769 24.3758 13.4435 23.3624 12.8035C23.0295 12.9672 22.926 12.7663 22.8668 12.491C23.0887 12.0184 23.5547 11.8138 23.9357 11.5161C24.3203 11.2297 24.79 11.1329 25.2079 10.932Z" fill="#D6441B"/>
<path d="M18.5654 24.7023C18.5469 25.9339 18.7429 27.2398 17.4484 28.0435C16.975 27.4147 18.4138 25.9562 16.5423 25.9339C16.5978 25.026 16.6533 24.1182 16.7087 23.2103C16.8308 23.2066 16.9528 23.2029 17.0749 23.2029C17.5298 23.7498 18.3028 23.9656 18.5654 24.7023Z" fill="#E94D21"/>
<path d="M30.3526 14.9243C30.1492 15.542 30.127 16.2266 29.6129 16.7214C29.0618 17.2535 28.189 17.7632 27.7192 17.3688C27.0646 16.8219 27.4012 15.9438 28.1039 15.3745C28.7289 15.0024 29.3059 14.4667 30.1307 14.7085C30.3008 14.6825 30.3674 14.7569 30.3526 14.9243Z" fill="#F3A289"/>
<path d="M21.1618 27.6714C20.7845 28.6574 20.4073 29.6471 20.0263 30.6331C19.1646 31.0126 19.3199 31.794 19.2903 32.5047L19.294 32.5009C18.95 32.9474 19.0906 33.6395 18.5543 33.9892C18.2473 33.8329 18.1955 33.5502 18.1882 33.2488C19.1498 30.8378 20.1114 28.4268 21.1322 25.8744C21.8312 26.6297 20.9953 27.1319 21.1618 27.6714Z" fill="#ED6C44"/>
<path d="M17.0823 10.6567C16.7272 10.6827 16.3685 10.6753 16.0171 10.7385C15.4734 10.8353 14.8225 10.999 14.645 10.3218C14.4711 9.65952 14.915 9.19443 15.6066 9.04932C16.1688 9.19815 16.6089 8.87445 17.0786 8.66237C16.3463 11.3003 18.5284 9.70789 19.2755 10.1953C19.2903 10.2958 19.294 10.3999 19.2829 10.5004C18.5469 10.5525 17.8146 10.6046 17.0823 10.6567Z" fill="#9F9753"/>
<path d="M22.6966 21.8485C21.8608 20.7509 22.7447 19.631 22.3231 18.2581C24.7197 19.5045 22.3675 20.7584 22.6966 21.8485Z" fill="#EC663E"/>
<path d="M24.0762 11.6538C23.8913 12.1673 23.5177 12.398 22.9814 12.3868C22.8261 12.3421 22.693 12.264 22.5894 12.1375C21.9606 11.7468 21.3319 11.3524 20.6994 10.9618C21.2024 10.7348 22.0827 11.3115 22.1937 10.2548C23.355 9.9981 23.7063 10.839 24.0762 11.6538Z" fill="#9F8C37"/>
<path d="M24.8381 25.0595C24.8122 25.8781 24.6495 26.6483 24.0984 27.2882C24.0873 26.7152 23.7433 26.2167 23.9541 25.5544C24.0984 25.0967 23.5769 25.4316 23.3476 25.4316C22.9851 24.866 23.244 24.5423 23.7766 24.3228C24.128 24.5684 24.483 24.8139 24.8381 25.0595Z" fill="#E84D20"/>
<path d="M23.7729 24.3228C23.6287 24.6912 23.4881 25.0595 23.3439 25.4316C22.8224 25.6586 22.4452 25.5655 22.7262 24.9367C22.9629 24.4084 22.9666 23.5601 23.7618 23.5489C24.0577 23.5452 23.8136 24.0512 23.7729 24.3228Z" fill="#EC7250"/>
<path d="M25.5741 22.4662C25.722 23.2401 25.2042 23.7461 24.8344 24.3079C24.1724 23.3257 24.3906 22.7006 25.5741 22.4662Z" fill="#EB5E37"/>
<path d="M23.1368 14.0202C23.4918 14.1802 23.71 14.4406 23.6916 14.8462C23.6805 15.1252 23.4807 15.315 23.2292 15.2406C22.8631 15.1327 22.6597 14.8276 22.6708 14.4257C22.6782 14.1392 22.8668 14.0239 23.1368 14.0202Z" fill="#EF7A51"/>
<path d="M14.8558 15.0211C14.608 15.2666 14.3639 15.5159 14.1161 15.7615C13.528 15.315 13.9866 14.9169 14.2196 14.5708C14.4489 14.2323 14.7078 14.4183 14.8928 14.6974C14.8817 14.8053 14.8669 14.9132 14.8558 15.0211Z" fill="#F5BDAB"/>
<path d="M30.3526 14.9243C30.3045 14.8239 30.2305 14.7532 30.1307 14.7122C30.016 13.4174 30.6596 14.1355 31.1108 14.3402C31.1478 14.5448 31.1885 14.7494 31.2254 14.9578C31.2698 15.3038 31.1293 15.4527 30.7816 15.3708C30.6374 15.2182 30.4931 15.0694 30.3526 14.9243Z" fill="#F19879"/>
<path d="M19.294 14.6453C18.8021 15.0024 18.3139 15.0024 17.8257 14.6378C18.3176 13.6258 18.8058 13.8862 19.294 14.6453Z" fill="#EA5F37"/>
<path d="M22.5894 12.1412C22.7188 12.2231 22.852 12.3087 22.9814 12.3905C23.1109 12.5282 23.2366 12.6658 23.3661 12.8035C22.9925 13.2351 22.4747 13.3467 22.1271 12.9449C21.7942 12.5542 22.4415 12.424 22.5894 12.1412Z" fill="#EA6438"/>
<path d="M18.0106 12.6844C17.9034 12.5691 17.6852 12.4277 17.6149 12.2342C17.5113 11.9664 17.6926 11.7282 17.9736 11.8175C18.1623 11.8771 18.3361 12.1189 18.4212 12.3198C18.5062 12.5207 18.3287 12.6435 18.0106 12.6844Z" fill="#EB7142"/>
<path d="M25.0674 20.0812C24.7308 20.111 24.5681 19.9696 24.6273 19.791C24.6938 19.5901 24.8529 19.3594 25.0341 19.2775C25.2893 19.1659 25.5186 19.3482 25.441 19.631C25.3855 19.8282 25.1599 19.9733 25.0674 20.0812Z" fill="#ED6843"/>
<path d="M20.7808 22.589C20.6625 22.7638 20.5959 22.9796 20.4812 23.0094C20.1669 23.0875 20.0818 22.8234 20.1114 22.589C20.1262 22.4662 20.3037 22.2764 20.411 22.2764C20.5219 22.2764 20.6366 22.4625 20.7808 22.589Z" fill="#EB603A"/>
<path d="M15.6029 16.1373C15.4734 16.0033 15.344 15.8731 15.2182 15.7391C15.4402 15.4229 15.699 14.8536 16.0985 15.2592C16.4905 15.6685 15.9136 15.914 15.6029 16.1373Z" fill="#EC714C"/>
<path d="M24.2796 16.9223C24.4424 16.8554 24.594 16.7326 24.7345 16.7475C24.9971 16.7698 25.1488 16.9819 25.0896 17.2349C25.0674 17.3428 24.8307 17.499 24.7456 17.473C24.6162 17.4246 24.5348 17.2423 24.2796 16.9223Z" fill="#F18E71"/>
<path d="M30.3526 12.037C30.1529 12.1636 30.0086 12.3235 29.9088 12.2975C29.7719 12.2603 29.6684 12.0891 29.55 11.9738C29.6647 11.8845 29.783 11.7133 29.8866 11.7208C30.0234 11.7319 30.1455 11.8882 30.3526 12.037Z" fill="#ED6E45"/>
<path d="M19.294 26.5515C19.5418 26.5106 19.8599 26.1869 19.9819 26.6743C20.0152 26.8008 19.8747 27.0873 19.7785 27.1059C19.3532 27.1915 19.3458 26.838 19.294 26.5515Z" fill="#EB6037"/>
<path d="M15.9358 12.238C15.8803 12.3421 15.8026 12.4835 15.7286 12.6249C15.6029 12.5505 15.3773 12.4798 15.3736 12.398C15.3662 12.2566 15.4623 12.0594 15.577 11.9775C15.7545 11.8473 15.8692 11.9961 15.9358 12.238Z" fill="#EE7446"/>
<path d="M25.563 15.4378C25.6851 15.5531 25.8034 15.6685 25.9255 15.7838C25.8626 16.0666 26.2361 16.6396 25.7109 16.5651C25.3855 16.5205 25.0341 15.9029 25.563 15.4378Z" fill="#F2926E"/>
<path d="M23.3661 42.9152C23.2958 42.2678 22.852 42.0185 22.349 42.2641C21.6648 42.5989 21.1507 43.3691 21.4576 44.0314C22.0161 45.2332 21.0249 45.129 20.5552 45.5383C20.3518 44.623 21.3541 43.7226 20.3999 42.9189C20.1706 42.2269 20.962 41.7357 20.766 41.0511C21.306 39.5814 21.3911 37.9592 22.2528 36.5974C22.778 37.0327 22.8039 37.736 22.4858 38.108C21.184 39.6186 22.2417 40.3739 23.281 41.2446C23.8358 41.7097 24.7641 42.2864 23.3661 42.9152Z" fill="#E84C22"/>
<path d="M25.9513 27.2957C26.0734 27.2957 26.1954 27.2957 26.3175 27.2957C26.4396 28.237 26.6874 29.1746 26.2102 30.1085C25.7257 31.061 26.6652 31.4815 27.0165 32.1177C27.2902 32.3595 27.2643 32.6163 27.0572 32.8842C26.9426 33.1558 26.9019 33.5539 26.7021 33.6655C26.3138 33.8813 26.3138 33.3492 26.1067 33.2041C25.7072 32.9251 26.4691 31.6898 25.2301 32.14C25.0119 32.1065 24.8862 31.98 24.8381 31.7642C24.7715 30.1606 25.5445 28.7728 25.9513 27.2957Z" fill="#E95025"/>
<path d="M26.6874 26.9199C25.9624 25.6399 27.0942 24.6837 27.4123 23.6382C27.538 23.2215 27.6786 24.0661 27.8154 24.334C27.6416 25.067 27.3198 25.7739 27.4234 26.5552L27.4308 26.5478C27.1238 26.5515 26.8538 26.6222 26.6874 26.9199Z" fill="#EB5D33"/>
<path d="M30.0197 20.2263C30.1455 20.2263 30.2675 20.2263 30.3933 20.2263C30.8334 20.0589 30.8556 18.9836 31.673 19.631C31.7802 20.5128 31.9023 21.3983 31.133 22.0867L31.1182 22.0978C31.0072 22.2541 30.8926 22.2578 30.7705 22.109C30.5227 21.4802 30.2712 20.8551 30.0197 20.2263Z" fill="#E84D23"/>
<path d="M28.9065 32.5009C29.2319 33.2562 28.9878 33.8813 28.3443 34.752C28.0225 33.6618 28.3665 33.059 28.9102 32.5047L28.9065 32.5009Z" fill="#EB6036"/>
<path d="M25.2153 44.0351C25.0896 44.0351 24.9638 44.0351 24.8381 44.0351C24.9527 43.2984 24.5237 42.398 25.6888 41.7952C25.5112 42.6398 25.3633 43.3393 25.2153 44.0351Z" fill="#EA5D37"/>
<path d="M27.4271 26.5552C27.7303 26.3766 28.0336 26.1943 28.3665 25.9971C28.6402 26.652 28.4294 27.2064 27.9153 27.3664C27.5343 27.4854 27.4788 26.905 27.4308 26.5478C27.4345 26.5478 27.4271 26.5552 27.4271 26.5552Z" fill="#EB5D33"/>
<path d="M27.7895 37.3118C27.6527 37.1927 27.5195 37.0774 27.3827 36.9583C27.5084 36.5267 27.3383 35.9575 27.9559 35.7193C28.5181 36.3221 27.9559 36.8021 27.7895 37.3118Z" fill="#EE7E58"/>
<path d="M27.0609 32.8804C27.0461 32.6274 27.035 32.3707 27.0202 32.114C27.1497 31.8498 27.231 31.5447 27.4234 31.3401C27.5602 31.1912 27.7451 31.3661 27.771 31.5559C27.8635 32.1735 27.6231 32.6163 27.0609 32.8804Z" fill="#EC6339"/>
<path d="M26.336 39.5963C26.5172 39.4475 26.7021 39.3024 26.8834 39.1535C26.9278 39.2987 27.0461 39.4735 27.0017 39.5889C26.8131 40.0912 26.68 40.679 25.9587 40.6716C26.0882 40.3107 26.2102 39.9535 26.336 39.5963Z" fill="#ED6E48"/>
<path d="M29.2837 31.0238C29.4021 31.0201 29.5241 31.0201 29.6425 31.0238C29.5981 31.6191 29.894 32.3819 28.9065 32.5009L28.9102 32.5047C28.8473 31.9651 29.0211 31.4815 29.2837 31.0238Z" fill="#EB6036"/>
<path d="M30.7705 22.109C30.8852 22.0978 30.9998 22.0941 31.1182 22.0978C31.0479 22.6634 31.4326 23.4522 30.4081 23.5452C30.5301 23.0652 30.6522 22.5852 30.7705 22.109Z" fill="#EC653D"/>
<path d="M23.3624 44.0351C23.1812 44.3253 22.741 44.5337 22.6375 44.2956C22.3786 43.7114 23.0036 43.5551 23.355 43.2947C23.3587 43.5403 23.3624 43.7895 23.3624 44.0351Z" fill="#E84C22"/>
<path d="M24.4867 38.4429C24.5052 37.9927 24.3758 37.4457 24.9158 37.2411C25.1488 37.1518 25.2079 37.509 25.256 37.7248C25.0008 37.9629 24.7456 38.2048 24.4867 38.4429Z" fill="#ED6941"/>
<path d="M24.8418 31.7605C24.9712 31.887 25.1007 32.0098 25.2338 32.1363C25.1007 32.3967 24.8899 32.806 24.6384 32.62C24.2759 32.3558 24.5274 31.9949 24.8418 31.7605Z" fill="#ED6F4A"/>
<path d="M33.3632 14.262C33.4815 14.2657 33.5999 14.2695 33.7182 14.2732C33.6184 15.6722 35.12 17.0154 33.7441 18.6115C33.341 17.3688 34.0807 15.9512 32.9785 15.0211C32.8898 14.9466 32.8602 14.8685 32.8861 14.7866C32.912 14.7085 32.9416 14.6676 32.9711 14.6676C33.1006 14.5336 33.23 14.3997 33.3632 14.262Z" fill="#EB5A33"/>
<path d="M32.9674 14.6676C32.9711 14.7866 32.9748 14.902 32.9785 15.0211C33.2374 16.3605 31.9836 17.3986 32.2388 18.738C32.1168 18.8683 31.9947 18.872 31.869 18.7418C31.8653 18.1167 31.8653 17.4879 31.8616 16.8628C31.8986 16.2489 31.3845 15.6499 31.8172 15.0285C32.1981 14.9057 32.5828 14.7866 32.9674 14.6676Z" fill="#E8481C"/>
<path d="M31.133 22.083C31.3401 21.216 31.6323 20.3603 31.4769 19.445C31.3845 19.3259 31.3919 19.2143 31.4954 19.1064C31.6212 19.1064 31.7432 19.1064 31.869 19.1027C32.1908 19.471 32.1612 19.8394 31.8764 20.2077C32.3942 21.3314 31.5953 22.4141 31.9245 23.6717C31.218 23.2066 31.7543 22.3843 31.133 22.083Z" fill="#E8481C"/>
<path d="M34.0881 22.4587C33.9697 22.7118 33.8477 22.9648 33.7293 23.2178C33.5185 23.4782 33.3077 23.7387 33.0229 24.0921C32.9009 22.8717 33.6369 21.923 33.2448 20.5575C34.3655 21.1677 33.9512 21.9044 34.0881 22.4587Z" fill="#EE704B"/>
<path d="M31.8764 20.2152C31.8727 19.8468 31.8727 19.4785 31.869 19.1101C31.869 18.9873 31.869 18.8645 31.869 18.7418C31.991 18.7418 32.1168 18.738 32.2388 18.738C32.5717 18.6413 32.9674 18.4218 32.9674 19.0655C32.9674 19.791 32.6161 20.1928 31.8764 20.2152Z" fill="#EB5D33"/>
<path d="M18.6542 5.61139C19.098 7.00293 18.9944 7.83265 17.9256 8.40564C17.6815 7.4643 18.1623 6.76481 18.6542 5.61139Z" fill="#95C153"/>
<path d="M22.2824 1.27305C22.3934 1.26561 22.508 1.25444 22.619 1.24328C23.1627 0.874931 23.4807 1.15026 23.7174 1.6414C23.8321 2.6311 23.4511 2.86179 22.6005 2.38182C22.4969 2.00975 22.3897 1.6414 22.2824 1.27305Z" fill="#B1CD70"/>
<path d="M20.0522 7.96287C19.9043 8.69957 20.3444 9.53673 19.6676 10.1767C19.9339 9.13118 19.0906 7.9666 19.9302 6.90991C20.3592 7.29315 19.9339 7.64289 20.0522 7.96287Z" fill="#9CC155"/>
<path d="M20.411 3.86266C20.2223 2.85435 20.4701 2.08044 21.7461 1.52606C21.417 2.5046 20.5478 2.96597 20.7623 3.84033C20.6551 3.99288 20.5367 4.00777 20.411 3.86266Z" fill="#83A73B"/>
<path d="M20.411 3.86266C20.5293 3.85522 20.6477 3.84777 20.766 3.84033C21.0804 4.74819 20.3777 5.2356 19.797 5.7937C20.0004 5.15002 20.2038 4.50634 20.411 3.86266Z" fill="#A3C760"/>
<path d="M20.766 41.0511C21.6759 41.8771 20.5774 42.3087 20.3999 42.9189C20.2741 42.7924 20.1484 42.6696 20.0226 42.5431C20.0966 41.9552 20.3074 41.4381 20.766 41.0511Z" fill="#EA5A31"/>
<path d="M23.3402 29.8741C22.9075 29.8257 22.2047 29.9969 22.349 29.2676C22.4821 28.6053 22.9925 28.743 23.392 29.1597C23.3772 29.4016 23.3587 29.6397 23.3402 29.8741Z" fill="#E6623E"/>
<path d="M10.4398 12.4203C9.69265 11.5273 11.1906 11.0325 10.8244 10.2102C11.1536 11.0399 12.0856 10.8464 12.6404 11.2966C11.9044 11.665 11.4568 12.61 10.4398 12.4203Z" fill="#E84B21"/>
<path d="M15.1961 8.65493C14.8262 8.66609 14.4563 8.68097 14.0865 8.69213C14.1383 8.3089 14.2492 7.97404 14.73 8.01124C15.1295 8.03729 15.1665 8.34611 15.1961 8.65493Z" fill="#EF895E"/>
<path d="M7.11108 42.1599C7.5697 42.6994 7.68066 43.3728 7.83599 44.0314C7.04821 44.5225 6.36028 44.8537 6.20125 43.4435C6.10139 42.5803 5.33209 43.0603 4.86978 42.9189C5.13607 42.4873 5.5725 42.5654 5.97934 42.5468C6.23453 42.0594 6.63767 42.0036 7.11108 42.1599Z" fill="#E1461C"/>
<path d="M7.11108 42.1599C6.73383 42.2901 6.35659 42.4166 5.97564 42.5468C5.54661 41.6911 5.99043 41.2892 6.74493 41.0511C6.85958 41.0585 6.97054 41.0623 7.08519 41.066C7.09259 41.4269 7.09999 41.7952 7.11108 42.1599Z" fill="#E84A1E"/>
<path d="M23.7211 1.6414C23.355 1.50745 22.9888 1.37723 22.6227 1.24328C22.6782 0.726103 22.9112 0.424726 23.4659 0.60332C24.0688 0.800517 23.9024 1.22468 23.7211 1.6414Z" fill="#91B648"/>
<path d="M31.8172 15.0248C31.8727 15.635 32.4386 16.234 31.8616 16.8591C31.5028 16.3605 31.1404 15.8619 30.7816 15.3671C30.9296 15.2294 31.0775 15.0917 31.2254 14.9578C31.4215 14.9801 31.6175 15.0024 31.8172 15.0248Z" fill="#EE7B59"/>
<path d="M24.0762 11.6538C23.3513 11.3227 23.0739 10.3813 22.1973 10.2548C22.1049 10.0986 22.0124 9.94229 21.92 9.78974C23.3513 9.19443 24.2833 10.0576 25.2079 10.932C24.9897 11.4269 24.6199 11.6761 24.0762 11.6538Z" fill="#DD5931"/>
<path d="M9.74073 28.1068C9.73703 28.3114 9.73703 28.5161 9.73333 28.717C9.578 29.089 9.42266 29.4574 9.26732 29.8295C8.96034 29.1262 8.28351 28.3189 9.74073 28.1068Z" fill="#DF3E17"/>
<path d="M18.5543 33.9892C18.6135 33.3976 18.8206 32.8842 19.294 32.5009C19.294 32.9995 19.2977 33.4981 19.2977 33.9967C19.1757 34.1194 19.0536 34.2422 18.9316 34.365C18.8058 34.2422 18.6801 34.1157 18.5543 33.9892Z" fill="#E94D21"/>
<path d="M7.97654 15.8768C7.96544 15.2815 8.25762 15.0211 8.79391 14.902C8.8087 15.4973 8.51282 15.754 7.97654 15.8768Z" fill="#DF3E17"/>
<path d="M4.85868 13.1309C4.41116 12.8742 4.49623 12.4463 4.49993 12.0408C5.55401 12.0966 5.0621 12.6621 4.85868 13.1309Z" fill="#F1896C"/>
<path d="M31.4954 19.1101C31.4806 19.2217 31.4732 19.3333 31.4769 19.4487C31.1182 19.7091 30.9813 20.2859 30.3933 20.2263C30.5782 19.3073 30.7594 18.3883 30.9665 17.3428C31.7691 17.8339 31.3956 18.5446 31.4954 19.1101Z" fill="#EE7752"/>
</svg>
