<svg width="20" height="56" viewBox="0 0 20 56" fill="none" xmlns="http://www.w3.org/2000/svg">
<path d="M19.7599 51.1409C19.6467 52.814 18.643 53.9706 17.1547 54.532C12.046 56.4662 6.95461 56.7048 2.01991 53.9341C1.99381 53.5495 2.28101 53.5158 2.56821 53.4765C2.92504 53.4906 3.25576 53.6169 3.59519 53.7095C3.87079 53.7909 4.14349 53.8751 4.42199 53.9481C7.73789 55.144 11.1118 55.2619 14.5322 54.4759C15.1472 54.4899 15.7274 54.4029 16.1335 53.8836C16.4701 53.659 16.8617 53.5663 17.2388 53.4344C17.9119 53.2379 18.3499 52.814 18.5646 52.1711C18.701 51.8118 18.8083 51.4413 18.9128 51.0707C19.0723 50.6187 19.0433 50.1499 19.0404 49.6839C19.0404 49.3162 19.0317 48.9512 19.0549 48.5835C19.0897 48.2607 19.1593 47.9547 19.4407 47.7385C19.6322 47.6992 19.7628 47.7666 19.8353 47.9406C19.8208 49.0074 19.9513 50.0769 19.7599 51.1409Z" fill="#935623"/>
<path d="M19.7599 51.1409C19.7337 50.0208 19.7042 48.9004 19.6781 47.7803C18.9557 47.3845 19.0282 46.6967 19.0224 46.0539C19.0021 43.8221 19.0224 41.5903 19.0108 39.3614C19.0079 38.8533 19.0515 38.3367 18.8629 37.8455C18.6453 35.9337 18.6859 34.022 18.8426 32.1075C18.8571 31.9531 18.8919 31.8043 18.9412 31.6583C19.0834 31.3607 19.2893 31.1642 19.6636 31.2456C20.1713 33.3595 19.9479 35.5098 19.9682 37.6434C20.0059 41.7391 19.9682 45.8377 19.9624 49.9335C19.9595 50.3461 20.0616 50.7731 19.7599 51.1409Z" fill="#C18830"/>
<path d="M19.664 31.2444C19.487 31.3342 19.3072 31.4241 19.1302 31.5167C19.0112 31.4269 18.9271 31.3146 18.8749 31.1798C18.5036 29.0126 18.1496 26.837 17.0327 24.872C16.9689 24.7512 16.9138 24.6249 16.8674 24.4958C16.731 24.0438 16.5541 23.6059 16.3365 23.182C16.2756 23.0557 16.232 22.9265 16.1914 22.7918C15.7505 20.8295 15.2428 18.8757 15.1964 16.8517C15.1354 16.731 15.0803 16.6102 15.0223 16.4867C14.9759 16.3604 14.9614 16.2285 14.973 16.0937C15.0513 15.9 15.1877 15.7568 15.382 15.6698C15.5909 15.6193 15.7824 15.6333 15.9187 15.8242C15.9767 16.0039 16.0348 16.1835 16.0928 16.3632C16.1972 19.4484 17.2445 22.2921 18.4107 25.119C19.2172 27.0756 19.8351 29.0912 19.664 31.2444Z" fill="#944F1B"/>
<path d="M0.838576 27.5526C1.178 25.565 2.22528 23.8105 2.8403 21.9128C3.46403 19.9898 3.56267 17.9995 3.80055 16.0232C3.97752 15.7874 4.16608 15.5965 4.46779 15.8716C4.54322 15.9923 4.59834 16.1215 4.63315 16.259C4.67667 16.4724 4.68537 16.6885 4.67377 16.9047C4.38656 18.648 4.30824 20.4222 3.82956 22.143C3.52785 23.2294 3.20584 24.2962 2.62853 25.2787C2.17306 26.0086 1.93808 26.8227 1.66538 27.6255C1.51452 27.954 1.43619 28.3358 1.03585 28.4958C0.54557 28.2656 0.699326 27.9091 0.838576 27.5526Z" fill="#8C4D21"/>
<path d="M0.27619 44.432C0.0557098 40.1173 -0.216989 35.8026 0.279091 31.4878C0.537285 31.339 0.766468 31.3643 0.957937 31.6001C1.01886 31.7629 1.03336 31.9314 1.00726 32.1026C0.928927 35.5555 0.998552 39.0084 0.972443 42.4585C0.969542 42.9694 1.01016 43.486 0.865104 43.9885C0.749062 44.2411 0.624316 44.4769 0.27619 44.432Z" fill="#BB7616"/>
<path d="M11.2942 0.0950729C12.5736 -0.0368675 13.734 0.311231 14.8393 0.895137C14.7697 1.12252 14.6131 1.26569 14.381 1.33307C13.7775 1.35552 13.1828 1.26289 12.5939 1.1534C10.2586 0.867065 7.94933 0.962511 5.68361 1.61941C5.15852 1.86925 4.76978 2.19208 5.00766 2.84336C4.94964 3.04549 4.81619 3.17743 4.62182 3.26164C4.31141 3.29533 4.09383 3.15216 3.91977 2.92477C3.66158 2.56264 3.91397 2.15278 3.80083 1.77661C5.0976 0.308423 6.86434 0.117531 8.6949 0.0950729C9.55942 0.314038 10.4268 0.308423 11.2942 0.0950729Z" fill="#9E6533"/>
<path d="M2.62624 53.6823C2.42316 53.7665 2.22299 53.8535 2.01992 53.9377C1.00165 53.2808 0.386623 52.4218 0.54328 51.1782C0.662223 50.263 0.493962 49.3423 0.601301 48.4271C0.636114 48.2895 0.699937 48.166 0.795672 48.0594C1.88647 48.0004 2.34774 49.1458 3.33409 49.2917C4.42199 49.7942 5.62883 50.016 6.69641 50.569C6.76024 50.7122 6.74283 50.8469 6.6471 50.9733C6.32508 51.2091 5.95665 51.2203 5.57661 51.181C4.30014 50.8582 3.05849 50.423 1.83135 49.9711C1.11769 50.7038 1.64568 51.3382 1.94739 52.0232C2.18818 52.5678 2.96856 52.9159 2.62624 53.6823Z" fill="#9C5D21"/>
<path d="M14.5006 1.1893C14.6137 1.09105 14.7268 0.995602 14.84 0.897348C14.9792 0.922613 15.1214 0.950686 15.2606 0.975951C15.9395 1.63004 16.2412 2.39642 16.2006 3.34246C16.1484 4.54115 16.2122 5.74265 16.2064 6.94415C16.2035 7.53648 15.9772 8.02213 15.3912 8.29724C15.2635 8.18495 15.1881 8.0474 15.1591 7.88458C15.3071 6.3434 15.2287 4.7938 15.2577 3.25262C15.2374 2.87084 15.3477 2.4694 15.0982 2.11569C14.8893 1.8097 14.5354 1.59635 14.5006 1.1893Z" fill="#88562E"/>
<path d="M4.29678 15.8453C4.13142 15.9042 3.96896 15.9632 3.8036 16.0221C3.77169 13.6697 3.35974 11.2919 4.31128 9.00684C4.55497 9.1865 4.65071 9.43915 4.70003 9.71707C4.84798 11.3368 4.75224 12.9566 4.73484 14.5764C4.72614 15.0396 4.73484 15.5196 4.29678 15.8453Z" fill="#C78F2F"/>
<path d="M3.79847 1.77388C4.1669 2.08829 4.01315 2.5206 4.06537 2.9052C4.61657 3.70245 4.38158 4.60919 4.4396 5.47382C4.48312 6.15879 4.31196 6.86621 4.66008 7.5203C4.79353 7.69435 4.90377 7.87963 4.9792 8.08456C5.03722 8.31195 4.9734 8.49161 4.75872 8.61232C4.61657 8.64601 4.48022 8.62916 4.35257 8.55618C3.80427 8.34563 3.52287 7.94981 3.48806 7.38555C3.70854 5.88649 3.68533 4.38461 3.49386 2.88554C3.44164 2.47569 3.47355 2.08829 3.79847 1.77388Z" fill="#8C5428"/>
<path d="M0.27619 44.432C0.374826 44.3366 0.473578 44.2435 0.569313 44.148C0.731772 44.061 0.871022 44.0891 0.989965 44.2266C1.30328 44.7207 1.21915 45.2765 1.24816 45.8155C1.23655 46.3517 1.26557 46.8879 1.19884 47.4241C1.15242 47.6599 1.06539 47.8704 0.862319 48.022V48.154C0.691157 48.2298 0.592521 48.5329 0.325624 48.314C0.192176 47.0226 0.154346 45.729 0.27619 44.432Z" fill="#C78522"/>
<path d="M0.850391 31.549C0.658921 31.5294 0.470561 31.5075 0.279091 31.4878C0.154346 30.1347 0.339805 28.8204 0.841688 27.5515C0.879401 27.8631 0.798172 28.2112 1.13469 28.4302C1.41029 29.2022 1.1637 29.991 1.21302 30.7714C1.20432 30.9202 1.17241 31.0606 1.12309 31.2009C1.06797 31.3441 0.975136 31.4592 0.850391 31.549Z" fill="#925025"/>
<path d="M0.325793 48.3179C0.505658 48.2646 0.682622 48.2113 0.862488 48.1579C0.694227 49.1573 1.21352 50.2269 0.543372 51.1757C0.0850054 50.2521 0.299683 49.278 0.325793 48.3179Z" fill="#8C5020"/>
<path d="M3.49593 2.88713C3.92239 4.38901 3.93109 5.88808 3.49013 7.38714C3.36829 5.88527 3.24644 4.3862 3.49593 2.88713Z" fill="#704525"/>
<path d="M11.2942 0.0950729C10.4268 0.521774 9.557 0.535861 8.68959 0.0923169C9.55991 -0.0283946 10.4268 -0.0340602 11.2942 0.0950729Z" fill="#864E1F"/>
<path d="M4.35525 8.55904C4.43358 8.53377 4.51481 8.52816 4.59604 8.53377C4.7672 8.60676 4.95577 8.65729 5.01959 8.86222C5.0341 9.19348 4.91516 9.47139 4.66276 9.69597C4.53222 9.74931 4.42488 9.72124 4.33785 9.61456C4.32914 9.41525 4.32044 9.21313 4.31174 9.01381C4.32624 8.85942 4.34075 8.70782 4.35525 8.55904Z" fill="#C88419"/>
<path d="M4.90646 8.85279C4.80202 8.74612 4.70048 8.63944 4.59604 8.52996C4.70338 8.4289 4.81072 8.32503 4.91806 8.22397C5.34742 7.87868 5.80578 8.13414 6.25545 8.1594C8.09181 8.70401 9.9717 8.37275 11.8342 8.40363C12.8902 8.2745 13.9229 8.01623 14.9673 7.81411C15.1066 7.80288 15.2313 7.83657 15.3444 7.91517C15.3619 8.0415 15.3764 8.16783 15.3938 8.29415C15.2806 8.44574 15.1675 8.60014 15.0543 8.75173C14.8252 9.10825 14.4306 9.21773 14.0651 9.37494C11.8545 9.77357 9.64968 10.2873 7.38396 9.73988C7.07354 9.72023 6.76603 9.68654 6.46722 9.60794C5.91602 9.41424 5.25748 9.42828 4.90646 8.85279Z" fill="#905825"/>
<path d="M14.1782 9.03925C14.4045 8.75852 14.7323 8.76975 15.0514 8.75572C15.5243 8.87923 15.8666 9.24979 15.8579 9.64C15.826 11.7033 16.3482 13.7638 15.9189 15.8272C15.7419 15.8328 15.5678 15.8356 15.3909 15.8412C14.625 15.538 14.7294 14.8783 14.7613 14.2888C14.8252 13.1266 14.8629 11.9672 14.8107 10.805C14.7555 10.6253 14.7062 10.4457 14.6685 10.2632C14.6424 10.0274 14.6772 9.78317 14.5438 9.56701C14.4219 9.39015 14.2479 9.24698 14.1782 9.03925Z" fill="#D79E2F"/>
<path d="M19.4229 47.8155C19.4142 48.1019 19.4055 48.3854 19.3968 48.6718C18.8978 49.5252 18.6918 50.5021 18.3988 51.4116C17.7664 53.3823 16.2056 54.0336 14.4389 54.3059C12.7476 54.5641 11.0243 54.6961 9.30983 54.8224C8.58456 54.8758 8.07978 54.7326 8.07978 53.9101C8.74992 53.3542 9.67246 54.3676 10.3049 53.576C10.7517 52.9556 11.5233 53.2419 11.9469 52.9865C11.358 53.1268 10.5109 53.037 10.0496 53.823C9.10095 53.7837 8.14941 53.8202 7.20946 53.7416C6.49871 53.6827 5.79085 53.4665 5.3905 52.7844C5.22224 52.4756 5.12651 52.1443 5.04238 51.8074C5.01917 51.6727 5.02207 51.5379 5.04818 51.406C5.13231 51.2067 5.25705 51.0691 5.50655 51.1056C6.33915 51.4874 7.16595 51.4874 7.97824 51.0467C8.10009 50.9877 8.22773 50.9456 8.35828 50.9175C10.0119 51.1983 11.6539 51.0383 13.2901 50.7547C13.4815 50.721 13.5686 50.721 13.3771 50.7295C13.3249 50.7323 13.2785 50.5835 13.2524 50.4908C13.3046 50.2999 13.4438 50.1933 13.615 50.1119C15.109 49.7217 16.6814 49.542 17.9521 48.5735C18.3234 48.2984 18.6222 47.9334 19.0545 47.7313C19.1937 47.6864 19.3156 47.7201 19.4229 47.8155Z" fill="#A35A1C"/>
<path d="M8.09504 53.9879C8.59402 54.8806 9.66161 54.5886 10.1519 54.4399C11.6778 53.9738 13.2763 54.0244 14.7907 53.8503C17.3088 53.5612 17.7788 51.8319 18.5098 50.1728C18.7506 49.6226 18.7709 48.9938 19.3975 48.6682C19.3946 49.0303 19.3946 49.3896 19.3917 49.7518C19.1074 50.1897 19.4266 50.7203 19.1626 51.1638C19.0552 51.5372 18.945 51.9133 18.8376 52.2867C18.4431 52.8453 17.9847 53.3366 17.3726 53.6791C17.0216 53.8812 16.6502 54.016 16.2296 53.9907C15.9337 54.5858 15.2142 54.4707 14.7646 54.8076C11.1324 55.72 7.56705 55.4898 4.05677 54.2405C3.72025 53.6707 4.1293 53.6173 4.53835 53.637C5.05183 53.6622 5.56822 53.8981 6.0614 53.5556C6.24997 53.4994 6.43564 53.4938 6.6155 53.578C6.82728 53.7044 6.894 54.0693 7.26244 53.943C7.54964 53.8503 7.83685 53.71 8.09504 53.9879Z" fill="#B36C2B"/>
<path d="M6.07832 53.6956C5.95648 54.4535 5.50391 54.1503 5.03104 54.0661C4.73804 54.0128 4.22503 53.4517 4.05677 54.2405C3.8537 54.1451 3.65014 54.0521 3.44417 53.9566C2.42299 52.845 1.15233 51.854 1.44534 50.1023C1.48305 49.8693 1.54688 49.6587 1.71804 49.4903C2.9771 49.9591 4.23905 50.4279 5.49811 50.8995C5.56774 50.9613 5.58804 51.0231 5.56484 51.0848C5.53873 51.1438 5.51552 51.1747 5.49231 51.1747C5.39367 51.2701 5.29794 51.3655 5.1993 51.461C4.68582 51.708 4.23615 51.0624 3.70816 51.3375C4.19554 52.6793 4.34059 52.713 5.23992 51.7305C5.54453 51.9523 5.48651 52.2779 5.50101 52.5811C5.61996 52.9853 5.90716 53.3138 6.07832 53.6956Z" fill="#A86224"/>
<path d="M19.4229 47.8141L19.2807 47.8057L19.1415 47.8253C18.8195 47.5643 18.7702 47.2021 18.7382 46.8316C18.7034 44.3528 18.7179 41.874 18.7295 39.3952C18.7324 38.8029 18.6106 38.1628 19.1473 37.6828C19.6753 38.9881 19.304 40.344 19.3997 41.6747C19.5476 43.7071 19.0951 45.7676 19.6782 47.7832C19.5912 47.7776 19.5041 47.786 19.4229 47.8141Z" fill="#E4A32C"/>
<path d="M1.72065 49.4877C1.59301 50.939 1.76127 52.2809 3.11316 53.2185C3.35975 53.3897 3.45838 53.6564 3.44678 53.954C3.17118 53.8613 2.89848 53.7715 2.62288 53.6789C1.88311 52.5111 0.85614 51.4612 1.12594 49.9003C1.19846 49.4792 1.25939 49.2743 1.72065 49.4877Z" fill="#B97638"/>
<path d="M14.7667 54.8082C15.0452 54.1822 15.7559 54.2861 16.2317 53.9913C16.1331 54.9177 15.4223 54.8166 14.7667 54.8082Z" fill="#A35A1C"/>
<path d="M17.375 53.6754C17.7812 53.128 18.2541 52.6508 18.8401 52.283C18.6747 53.0691 18.2106 53.5575 17.375 53.6754Z" fill="#A35A1C"/>
<path d="M19.1651 51.1631C19.1767 50.683 18.9765 50.1721 19.3943 49.751C19.3682 50.2283 19.5886 50.7448 19.1651 51.1631Z" fill="#A35A1C"/>
<path d="M19.1474 37.6807C19.1358 40.7687 19.1271 43.8594 19.1155 46.9474C18.9472 47.04 18.808 47.012 18.6919 46.8604C18.0798 44.5191 18.4308 42.133 18.3989 39.7693C18.3815 38.4667 18.4192 37.1529 18.4424 35.8476C18.4395 35.7577 18.4714 35.6539 18.4395 35.5753C18.3148 35.258 19.1619 34.3401 17.8593 34.7162C17.6243 34.7836 17.4706 34.3738 17.4851 34.079C17.5895 33.5344 18.544 33.3126 18.103 32.5547C18.2597 32.0718 18.483 31.676 19.1155 31.7911C19.13 33.7534 19.1387 35.7184 19.1474 37.6807Z" fill="#EEB851"/>
<path d="M19.1215 31.7918C18.8169 32.0501 18.5122 32.3112 18.2076 32.5694C17.8914 33.0579 17.436 33.173 16.8848 33.0382C16.7629 32.9568 16.6933 32.8417 16.6643 32.7014C16.8528 31.8115 17.7899 31.8002 18.3556 31.3511C18.5993 31.2332 18.8401 31.076 19.1273 31.236C19.1302 31.3286 19.1302 31.4213 19.1273 31.5139C19.1273 31.6065 19.1244 31.6992 19.1215 31.7918Z" fill="#A0571D"/>
<path d="M18.5499 31.5242C17.9697 31.8947 17.3895 32.2653 16.8092 32.6359C16.6961 32.7313 16.5743 32.751 16.4379 32.6892C16.0202 31.6926 16.2435 30.5529 17.0877 30.2076C17.4011 30.0813 17.5577 30.2104 17.3256 29.8398C16.9949 29.3205 16.6961 28.7843 17.1516 28.178C17.1574 28.1695 17.2125 28.0629 17.1516 28.0994C16.5249 28.4839 16.4814 27.5912 16.0202 27.6277C15.3094 26.8754 15.2311 25.8451 14.7669 24.9805C14.5058 24.3348 14.3317 23.6639 14.1983 22.9846C14.1722 22.8498 14.207 22.6112 14.1345 22.5915C13.9198 22.5382 14.0416 22.9172 13.7979 22.9032C13.65 22.8891 13.534 22.8274 13.4498 22.7066C13.1539 21.595 13.1075 20.444 12.8319 19.3295C12.8377 19.1807 12.8783 19.0432 12.9595 18.9141C13.27 18.7063 13.5136 18.8719 13.7573 19.0432C14.4217 19.6103 14.0387 20.4665 14.3462 21.0756C14.1693 20.0426 14.0968 18.9421 13.6297 17.8978C13.1597 16.8451 14.2505 16.7525 14.8191 16.3567C14.8858 16.3454 14.9526 16.3342 15.0222 16.323C15.1382 16.3398 15.2543 16.3567 15.3703 16.3707C15.3239 18.6839 15.8171 20.91 16.5307 23.0997L16.522 23.0884C16.7657 23.5404 16.8354 24.0625 17.1139 24.5033L17.1051 24.4892C17.7724 26.2662 18.5992 27.9927 18.7791 29.9128C18.8284 30.4799 18.9009 31.0245 18.5499 31.5242Z" fill="#A3591F"/>
<path d="M15.0485 16.082C15.034 16.1634 15.0253 16.2448 15.0224 16.329L15.063 16.3403C14.5437 16.6238 14.0535 17.014 13.3891 16.7782C12.9308 16.7164 13.4297 15.703 12.5826 16.0231C12.0807 15.8827 11.4831 15.5627 12.0488 15.1135C13.128 14.2573 12.8176 13.0867 13.0874 12.0452C13.3224 11.5567 13.6444 11.0795 14.2652 11.2199C14.9847 11.3827 14.9673 12.0929 14.976 12.6066C14.9963 13.7604 14.8251 14.9226 15.0485 16.082Z" fill="#E4AA2D"/>
<path d="M15.0485 16.082C14.2333 15.7901 14.8832 15.2085 14.8136 14.7789C14.6947 14.0519 14.7846 13.2939 14.7701 12.5472C14.7614 12.1205 14.7034 11.6152 14.2682 11.472C13.7663 11.3092 13.5633 11.8145 13.3283 12.157C13.1542 12.3086 13.218 12.6483 12.9714 12.696C12.6117 12.7662 12.5102 12.4517 12.4202 12.1991C12.2839 11.8257 12.3535 11.4832 12.6523 11.1969C13.4008 10.7814 14.1464 10.3491 15.0689 10.4726C15.417 11.6741 15.1733 12.8869 15.1095 14.094C15.0776 14.706 15.037 15.2955 15.3938 15.8373C15.2778 15.9187 15.1617 16.0006 15.0485 16.082Z" fill="#EFBD4E"/>
<path d="M18.5499 31.5242C18.7297 29.5675 18.1698 27.7484 17.4097 25.9771C17.2008 25.4914 17.0529 25.017 17.0993 24.4948C18.5817 26.5161 18.9183 28.8601 19.13 31.2378C18.9357 31.3333 18.7413 31.4287 18.5499 31.5242Z" fill="#BC773B"/>
<path d="M16.5249 23.1031C15.4922 20.964 14.9236 18.7519 15.3645 16.3742C15.7533 18.6171 16.1391 20.8601 16.5249 23.1031Z" fill="#B06C34"/>
<path d="M17.1078 24.5085C16.6291 24.1464 16.5072 23.6467 16.5159 23.0937C16.9772 23.4614 17.131 23.9499 17.1078 24.5085Z" fill="#B67740"/>
<path d="M13.3364 16.6352C13.9108 16.5369 14.4852 16.4359 15.0597 16.3376C14.961 16.6183 14.7637 16.8148 14.4881 16.9215C13.8499 17.1685 13.702 17.3875 14.0994 18.109C14.6564 19.1112 14.5026 20.3183 14.5868 21.6573C13.7426 20.8573 14.0936 19.8579 13.6091 19.1617C13.4844 18.5244 12.7852 18.8332 12.4661 18.5132C12.0251 17.89 11.3666 17.8704 10.6762 17.8591C9.24304 17.8367 7.80412 17.9602 6.3739 17.7749C6.17082 17.73 5.97935 17.6542 5.79078 17.5672C5.5529 17.4577 5.31211 17.3482 5.06552 17.2556C4.7348 17.1601 4.52593 16.9215 4.33736 16.6632C4.34026 16.4583 4.34606 16.2534 4.34896 16.0456C5.13515 15.8379 5.79369 16.3095 6.51895 16.4302C8.63962 17.0029 10.769 16.7362 12.8984 16.492C13.0637 16.492 13.2059 16.5425 13.3364 16.6352Z" fill="#944F1B"/>
<path d="M6.3334 16.7101C5.61684 16.6484 4.97861 16.3592 4.35488 16.042C4.34038 15.9746 4.31999 15.9098 4.29678 15.8453C4.31128 13.7679 4.32587 11.688 4.33747 9.61062C4.44191 9.61904 4.54635 9.62746 4.65079 9.63588C4.87997 9.54886 4.97861 9.69484 5.06854 9.85485C5.19619 10.3854 5.99107 10.5145 5.91855 11.1686C5.84602 11.2753 5.76189 11.368 5.66326 11.4522C5.35865 12.5723 5.5211 13.7345 5.20199 15.1577C5.71547 13.7064 5.12656 12.4151 5.84022 11.3006C5.98817 11.3034 6.17674 11.3287 6.19995 11.4578C6.47845 13.0944 6.83528 14.7254 6.69603 16.4041C6.6032 16.5361 6.48135 16.6371 6.3334 16.7101Z" fill="#EFBD48"/>
<path d="M4.34361 16.6573C4.62791 16.7499 4.91512 16.8397 5.19942 16.9324C5.82895 17.4658 5.34157 18.2883 5.22553 18.6167C4.42484 20.9243 4.6018 23.5294 3.03233 25.5983C2.68711 25.8061 2.47823 25.6433 2.32158 25.3513C3.60964 22.5862 3.97808 19.6245 4.34361 16.6573Z" fill="#AF682E"/>
<path d="M2.32121 25.3506C2.50978 25.4432 2.69835 25.5359 2.88982 25.6257C3.58897 26.1815 3.82686 26.7177 3.06388 27.47C2.07172 28.447 2.2748 29.8057 2.06882 31.0268C2.0137 31.3469 1.97599 31.7511 1.59305 31.8213C1.1927 31.8943 1.05925 31.4928 0.873587 31.2289C0.873587 31.1419 0.876488 31.0549 0.876488 30.9707C1.07086 29.8422 1.11147 28.694 1.43639 27.5851C1.54663 26.771 1.68008 25.9654 2.32121 25.3506Z" fill="#AF682D"/>
<path d="M1.43416 27.5835C1.46027 28.7457 1.29781 29.877 0.874258 30.969C0.903269 30.1184 0.685689 29.2426 1.13245 28.4313C1.16146 28.1253 1.10054 27.7884 1.43416 27.5835Z" fill="#A65A1E"/>
<path d="M0.870762 31.2269C1.17247 31.2549 1.64824 32.2122 1.73528 31.0584C1.8078 30.0899 1.96736 29.1242 2.06019 28.1557C2.0834 27.9031 2.12692 27.6841 2.36771 27.5831C3.40628 27.1395 3.29314 26.4237 2.8899 25.6264C4.05032 22.8276 4.51187 19.8519 5.19942 16.9324C5.417 17.0391 5.63719 17.1429 5.85477 17.2496C6.4785 19.4954 5.86638 21.6317 5.25716 23.768C4.93224 24.5737 4.65664 25.399 4.38974 26.2272C4.05902 27.1901 3.94588 28.2063 3.65577 29.1832C3.43529 29.9299 3.62966 30.5447 4.2737 31.0163C4.65084 31.4514 4.15476 31.7743 4.12284 32.1504C4.20117 32.3722 4.40134 32.4396 4.60152 32.5098C4.97865 32.681 5.54146 32.6193 5.57047 33.2284C5.48634 33.4249 5.34129 33.5653 5.14401 33.6551C4.0155 33.8123 3.04075 33.3828 2.0718 32.9196C1.65405 32.6726 1.17537 32.5182 0.827247 32.1645C0.743116 32.0382 0.746017 31.9174 0.850455 31.8052C0.847554 31.7209 0.850455 31.6339 0.853356 31.5497C0.856257 31.443 0.86496 31.3363 0.870762 31.2269Z" fill="#A65A1E"/>
<path d="M0.847561 31.8046C0.873671 31.8691 0.882374 31.9337 0.87367 32.0011C1.28272 32.5457 1.33204 33.1689 1.28562 33.8118C1.2334 36.3074 1.27692 38.8058 1.26821 41.3043C1.14057 42.2616 1.57573 43.3002 0.827254 44.1677C0.740222 44.1593 0.656344 44.1536 0.569313 44.148C0.569313 40.4705 0.563258 36.7902 0.580664 33.1128C0.583565 32.672 0.389195 32.1695 0.847561 31.8046Z" fill="#D99929"/>
<path d="M4.62202 3.17407C4.72066 3.08143 4.8164 2.98599 4.91503 2.89335C5.42562 2.68561 5.82016 2.85405 6.13928 3.25267C6.18279 3.44076 6.10736 3.60358 6.01743 3.76079C5.95941 3.93484 6.02033 4.078 6.15378 4.19872C6.30173 4.31101 6.45549 4.31101 6.61505 4.21556C6.72819 4.16503 6.84713 4.14257 6.97188 4.14538C7.34611 4.22679 7.46796 4.5019 7.53758 4.82192C7.60431 5.91394 7.56079 6.99192 7.00669 7.98849C6.78621 8.16254 6.53382 8.19342 6.26402 8.13728C6.14798 8.09798 6.04934 8.0306 5.96521 7.94638C5.82596 7.67408 5.6635 7.76953 5.49234 7.92954C4.90343 7.9913 4.63943 7.60671 4.39284 7.19685C4.39284 5.84937 4.09983 4.49067 4.62202 3.17407Z" fill="#955826"/>
<path d="M5.20185 1.46993C7.66195 0.495816 10.1917 0.389141 12.7678 0.911288C12.5299 1.23693 12.1673 1.3043 11.7959 1.35764C10.3396 1.29869 8.86298 1.01516 7.70546 2.33456C7.27611 2.82583 6.64368 2.48896 6.165 2.13525C5.8952 1.94435 5.58479 1.81803 5.31499 1.62714C5.27728 1.5738 5.23957 1.52046 5.20185 1.46993Z" fill="#B67A47"/>
<path d="M4.62202 3.17407C4.62493 4.57769 4.62809 5.97905 4.63099 7.38267C4.80215 7.57076 4.78184 7.75884 4.62519 7.94412C4.01306 7.68866 4.03917 7.17213 4.04498 6.65279C4.05658 5.40356 4.05948 4.15715 4.06528 2.90793C4.25385 2.99495 4.43636 3.08424 4.62202 3.17407Z" fill="#A96B38"/>
<path d="M6.12747 3.41219C5.72422 3.23814 5.31808 3.06409 4.91483 2.89004C3.87045 2.20227 4.71756 1.86821 5.20203 1.46677L5.24555 1.56783C5.50084 1.76153 5.82866 1.84575 6.06075 2.07594C6.45529 2.5223 7.00359 2.62616 7.55769 2.75249C7.98705 2.84794 8.53244 2.77214 8.75002 3.31675C8.55565 3.73222 8.15821 3.76871 7.76366 3.81924C7.18635 3.79959 6.57133 3.92872 6.12747 3.41219Z" fill="#C18B5D"/>
<path d="M11.8831 1.2037C12.0949 0.869635 12.4516 0.942168 12.7678 0.911288C13.3567 0.930939 13.9545 0.911744 14.4999 1.18966C14.7609 1.39178 15.0249 1.5911 15.286 1.79322C15.3267 2.90208 14.8306 3.26983 13.2031 3.34843C12.3792 2.62135 13.4265 2.49503 13.6731 2.02622C13.2234 1.58548 12.5068 1.69216 12.0107 1.35248C11.9672 1.30195 11.9237 1.25142 11.8831 1.2037Z" fill="#C18755"/>
<path d="M6.65538 50.6089C5.38182 50.5612 4.27651 50.0166 3.16541 49.4944C3.18862 49.4383 3.21183 49.3793 3.23504 49.3232C3.69921 48.4221 4.61884 49.0761 5.25997 48.7674C5.44564 48.714 5.63711 48.7084 5.82278 48.6719C6.06356 48.6242 6.31886 48.5372 6.35367 48.2817C6.41459 47.8466 6.01715 47.9448 5.77346 47.8831C5.49206 47.8129 5.22806 47.7174 5.07721 47.4508C5.01628 47.2346 5.04819 47.0381 5.19035 46.8584C5.6255 46.5384 6.12739 46.4205 6.66408 46.4233C7.59242 46.7658 8.52076 46.1735 9.44909 46.4121C9.72179 46.4963 9.93357 46.6451 10.0119 46.9286C10.009 47.3441 10.0583 47.7455 10.3716 48.0712C10.4964 48.2985 10.6037 48.5259 10.4006 48.7674C9.87555 49.166 9.38237 49.0677 8.89209 48.6523C9.03714 48.9582 9.28083 49.0537 9.57674 49.0846C10.0438 49.1351 10.7198 49.1042 10.7111 49.6741C10.6994 50.404 9.91036 50.0306 9.41718 50.2019C9.29244 50.1934 9.59995 50.3815 9.52162 50.2103C9.49551 50.1513 9.53322 50.1457 9.64056 50.1569C9.91906 50.185 10.3136 50.1148 10.3861 50.418C10.4674 50.7605 10.0815 50.8251 9.80882 50.8896C9.42879 50.9767 9.04585 50.8672 8.66001 50.8924C7.97826 50.8531 7.25009 51.1704 6.65538 50.6089Z" fill="#EDAC33"/>
<path d="M0.859537 48.0257C0.859537 47.8573 0.859537 47.6889 0.859537 47.5176C0.97848 47.3997 1.022 47.2425 1.09452 47.1022C1.17575 46.9 1.25988 46.6979 1.48907 46.6053C1.70955 46.5941 1.872 46.7821 2.09249 46.7709C2.19982 46.7653 2.30716 46.7737 2.4116 46.7934C2.61467 46.886 2.80614 47.0657 3.05273 46.8888C3.2268 46.9534 3.33123 47.0825 3.40376 47.2425C3.514 47.6383 3.72868 47.9949 3.86503 48.3795C3.7925 48.8146 3.59813 49.1795 3.2239 49.4434L3.16007 49.4939C2.14761 49.3704 1.56159 48.6125 0.859537 48.0257Z" fill="#EDAC33"/>
<path d="M5.49525 51.1687C5.49525 51.0761 5.49815 50.9863 5.50105 50.8964C5.88399 50.8964 6.26983 50.8964 6.65277 50.8964C7.14305 50.9441 7.68845 50.7364 8.0975 51.18C7.10244 51.9744 6.08997 51.9688 5.49525 51.1687Z" fill="#B26625"/>
<path d="M8.09705 51.1782C7.61257 51.0996 7.05847 51.3495 6.65232 50.8947C6.65232 50.7993 6.65232 50.7038 6.65232 50.6084C7.4066 50.6168 8.16087 50.6252 8.91514 50.6336C9.04859 50.6954 9.09211 50.7908 9.03119 50.9284C8.75559 51.1221 8.36684 50.9031 8.10865 51.167L8.09705 51.1782Z" fill="#A35A1C"/>
<path d="M13.0348 3.18546C13.9371 2.94965 15.0336 3.00875 15.286 1.79322C15.8285 2.03745 15.5907 2.51453 15.64 2.90755C15.0685 3.99114 15.4021 5.1758 15.2773 6.30992C15.2164 6.85453 15.1758 7.40475 15.0685 7.94655C14.2185 8.61186 13.0783 8.33395 12.1616 8.78591C11.6858 8.41536 11.0911 8.41536 10.5341 8.30587C10.1744 7.07911 10.7923 6.1443 11.5205 5.23475C11.3029 4.69576 10.3543 4.97648 10.3078 4.23818C10.4152 3.82832 10.7575 3.8985 11.0621 3.89008C11.2565 3.8957 11.0418 3.57567 11.0708 3.76095C11.0824 3.83955 10.9838 3.88166 10.8851 3.87605C10.6618 3.86201 10.421 3.87604 10.3717 3.57848C11.1578 2.77561 12.1094 3.07037 13.0348 3.18546Z" fill="#955A2B"/>
<path d="M15.0691 7.94373C14.1988 7.51983 15.2258 6.964 14.9473 6.33798C14.5847 5.52108 15.3186 4.46275 14.9096 3.45775C14.7964 3.17984 15.3592 3.06193 15.6406 2.90473C15.4811 4.57223 15.9917 6.27903 15.3418 7.91846C15.2519 7.92969 15.162 7.93811 15.0691 7.94373Z" fill="#A06636"/>
<path d="M4.62745 7.94011C4.62745 7.75203 4.63035 7.56675 4.63035 7.37867C5.00169 7.22988 5.10903 7.87555 5.50647 7.65097C5.82849 7.49657 5.91552 7.7801 6.06927 7.93731L6.07798 7.94011C6.24624 8.1282 6.24624 8.31629 6.07508 8.50437C5.68924 8.41173 5.3005 8.31909 4.91466 8.22645C4.81892 8.13101 4.72319 8.03556 4.62745 7.94011Z" fill="#9F602B"/>
<path d="M1.44273 46.6771C1.43403 46.9073 1.38471 47.115 1.14973 47.2358C0.813204 46.8147 1.19324 46.2644 0.882829 45.8377C0.865423 45.2819 0.848017 44.7261 0.83061 44.1674C0.845116 43.2242 0.862522 42.2782 0.877027 41.3349C1.0685 41.0851 1.25416 40.7959 1.59359 41.1805C1.92721 43.0221 2.22022 44.8636 1.44273 46.6771Z" fill="#F1B540"/>
<path d="M0.87944 45.8386C1.3233 46.2429 1.07961 46.7678 1.14634 47.2366C1.0506 47.3293 0.954867 47.4247 0.856231 47.5174C0.864934 46.9587 0.873638 46.3973 0.87944 45.8386Z" fill="#EBAC30"/>
<path d="M4.91791 9.90039C4.82798 9.81336 4.73805 9.72353 4.64811 9.63651C4.73514 9.37543 4.81943 9.11387 4.90646 8.85279C5.39383 9.0128 5.87816 9.17331 6.36554 9.33332C6.58892 9.58036 6.67885 9.86389 6.60342 10.1895C6.55991 10.3411 6.47287 10.4675 6.34813 10.5713C5.69829 10.6976 5.1558 10.6022 4.91791 9.90039Z" fill="#ECB64B"/>
<path d="M6.07792 8.5059C6.07792 8.31781 6.07792 8.12972 6.08082 7.94164C6.37093 7.94445 6.66103 7.94445 6.95114 7.94725C7.25865 7.7704 7.58357 7.73952 7.92009 7.84339C8.25661 7.94725 8.38426 7.87707 8.19859 7.5374C7.74603 6.70926 8.48869 6.02991 8.5061 5.25511C8.5119 4.96035 8.7904 4.65155 9.08341 4.9014C9.57949 5.32529 10.4208 4.64874 10.7283 5.42354C10.8734 5.79129 10.5368 5.9878 10.2815 6.20957C9.58819 6.81032 9.75936 7.55143 10.7225 8.21956C11.5203 7.64407 11.8046 8.30939 12.1672 8.78101C10.1307 8.73048 8.07965 9.14314 6.07792 8.5059Z" fill="#A86831"/>
<path d="M14.1782 9.03925C14.419 9.07855 14.6714 9.10059 14.7642 9.37851C14.5611 9.71818 14.5988 10.1084 14.5089 10.4733C13.6618 10.7905 12.8321 11.1667 11.8892 11.1022C11.692 11.0095 11.5411 10.8748 11.5005 10.6558C11.5846 10.3189 11.7355 10.0635 12.0343 10.1252C11.1814 10.3582 10.1921 10.1421 9.20867 10.1926C10.4648 10.2123 10.4648 10.2123 10.5867 10.9253C9.59451 11.2987 8.57044 11.105 7.55797 11.0993C7.40131 11.0769 7.25336 11.0292 7.11411 10.9618C6.69926 10.6979 6.84141 10.3217 6.89943 9.9596C6.95745 9.74625 7.0793 9.5694 7.24466 9.42342C9.58 9.72099 11.8835 9.47156 14.1782 9.03925Z" fill="#EDB840"/>
<path d="M7.24455 9.42016C7.23585 9.58579 7.22715 9.75142 7.21844 9.91704C6.76298 9.52684 6.77458 10.4195 6.38294 10.2006C6.37714 9.91143 6.37134 9.62247 6.36554 9.33332C6.65854 9.3614 6.95155 9.39209 7.24455 9.42016Z" fill="#EBBF67"/>
<path d="M11.8954 11.0082C12.7628 10.7556 13.6331 10.5001 14.5005 10.2475C14.5672 10.1239 14.6601 10.1043 14.7761 10.1829C14.8719 10.2783 14.9676 10.3766 15.0662 10.472C14.2916 10.7556 13.5142 11.0391 12.7396 11.3226C12.5191 11.4883 12.2754 11.5472 12.0056 11.463C11.8838 11.4012 11.8141 11.303 11.7938 11.171C11.8287 11.1177 11.8635 11.0644 11.8954 11.0082Z" fill="#D19A2F"/>
<path d="M14.7791 10.186C14.6834 10.1916 14.5905 10.2113 14.5035 10.2478C13.9523 9.77897 14.4223 9.59369 14.7646 9.37472C14.9793 9.64141 14.9851 9.91091 14.7791 10.186Z" fill="#F7DC7A"/>
<path d="M18.3175 48.6909C16.9685 49.811 15.3323 50.1535 13.6265 50.3051C13.5018 49.6005 14.5781 49.6763 14.4707 48.9127C13.0289 49.2103 11.8424 48.8959 11.5842 47.234C11.4855 46.6108 10.5572 46.4929 10.7226 45.7574C10.885 45.6226 11.0765 45.5553 11.2854 45.5216C12.9941 45.6254 14.4968 45.2352 15.5615 43.8232C15.9358 43.447 15.4194 43.0119 15.6428 42.6273C15.9097 40.7661 15.8893 38.8909 15.9735 37.0184C15.9561 36.7209 15.9938 36.4429 16.2491 36.2352C17.5168 36.4458 17.0092 37.5715 17.366 38.2536C17.4472 38.6354 17.4472 39.02 17.3718 39.4018C16.9395 41.4033 17.5284 43.447 17.1165 45.4486C17.0759 45.5805 17.0121 45.704 16.925 45.8135C16.1156 45.3082 16.4521 46.5266 16.2665 46.4957C16.2984 46.4985 16.4522 45.8135 16.9221 46.1532C17.3544 46.8943 16.8873 47.4052 16.4492 47.9274C16.2984 48.2081 16.2607 48.5057 16.2839 48.8397C16.8873 48.8145 17.3979 48.4046 18.01 48.4748C18.1377 48.5029 18.2421 48.5787 18.3175 48.6909Z" fill="#EBAD34"/>
<path d="M10.7227 45.835C11.6104 46.3852 11.9934 47.2049 12.3357 48.1594C12.6142 48.9398 13.5599 48.6871 14.2649 48.5636C14.4738 48.5271 14.5492 48.1818 14.8451 48.2324C15.4253 49.4675 14.4129 49.8241 13.6267 50.3041C13.5077 50.3911 13.3859 50.4753 13.2669 50.5624C11.8715 50.9413 10.4906 51.4916 9.01979 50.8599C8.99369 50.7813 8.95887 50.7027 8.91826 50.6297C9.32441 50.6017 9.73055 50.5708 10.1396 50.5399C10.1396 50.4838 10.1425 50.4248 10.1425 50.3687C9.75376 50.3378 9.36502 50.3069 8.92986 50.276C9.35922 49.6528 10.0874 50.2115 10.6038 49.6612C9.75376 49.2261 8.30614 49.5237 8.43668 47.9488C9.04881 48.2829 9.53618 49.1391 10.4326 48.6366C10.7633 48.3306 10.4268 48.1734 10.276 47.9713C10.0033 47.7944 9.8495 47.5558 9.84659 47.233C9.83789 47 9.78567 46.7894 9.54779 46.6687C9.40564 46.3627 9.5913 46.155 9.77697 45.9473C10.07 45.7255 10.3688 45.5571 10.7227 45.835Z" fill="#E9A525"/>
<path d="M5.24266 51.7258C5.09181 52.1441 5.50666 52.7701 4.97577 52.9778C4.53481 53.1519 4.10545 52.7111 3.71961 52.4388C3.23514 52.0992 3.11329 51.6276 3.19742 51.083C3.25254 50.7124 3.47302 50.6591 3.81245 50.7657C4.31433 50.9257 4.81621 51.0829 5.20495 51.4535C5.19335 51.5489 5.20495 51.6388 5.24266 51.7258Z" fill="#D09F78"/>
<path d="M9.02033 50.8611C10.436 50.7629 11.8518 50.6618 13.2675 50.5636C13.456 50.5888 13.6446 50.6169 13.8303 50.6422C12.2463 51.4086 12.0026 51.431 8.1094 51.1643C8.32988 50.8303 8.70412 50.9257 9.02033 50.8611Z" fill="#8F4D16"/>
<path d="M6.07832 53.6956C5.55323 53.4822 5.47185 53.0558 5.50376 52.5758C6.81794 53.8587 8.58758 53.3534 10.1454 53.6874C10.2412 53.5583 10.3369 53.5611 10.4297 53.693C9.7538 54.5577 8.84351 53.6735 8.09504 53.9879C7.80784 54.0777 7.52289 54.1647 7.23569 54.2545C6.65258 54.4454 6.92238 53.8138 6.66128 53.6958C6.46691 53.6958 6.27269 53.6956 6.07832 53.6956Z" fill="#975018"/>
<path d="M10.4297 53.693C10.334 53.693 10.2412 53.6902 10.1454 53.6874C10.7054 52.2978 12.2839 53.1847 13.0991 52.3678C12.5479 53.5048 11.2014 53.0221 10.4297 53.693Z" fill="#B26625"/>
<path d="M16.3187 51.6406C15.7443 51.6434 16.31 50.7563 15.6543 50.8321C15.7152 50.3914 16.133 50.3549 16.4347 50.2679C16.9076 50.1359 16.9888 50.5739 17.0033 50.849C17.0236 51.256 16.6813 51.475 16.3187 51.6406Z" fill="#BA722F"/>
<path d="M18.8456 46.9499C18.9356 46.9527 19.0255 46.953 19.1155 46.9474C19.1242 47.2393 19.1299 47.531 19.1386 47.823C18.863 48.1121 18.5903 48.4012 18.3147 48.6904L18.2538 48.6399C17.8825 47.8903 18.3147 47.4047 18.8456 46.9499Z" fill="#EBAD34"/>
<path d="M6.66128 53.6958C6.85275 53.8811 7.04422 54.0692 7.23569 54.2545C7.09644 54.4735 6.80943 54.619 6.67308 54.4449C6.55124 54.2793 6.65548 53.9513 6.66128 53.6958Z" fill="#A35A1C"/>
<path d="M18.8459 46.9493C18.6487 47.5135 18.4543 48.075 18.257 48.6392C17.407 48.8919 16.5599 49.1417 15.4923 49.4589C15.9797 48.8975 15.8579 48.336 15.9478 47.8027C16.8616 47.856 17.143 47.0166 17.7319 46.6152C17.877 46.5843 18.0975 46.6461 18.0801 46.3934C18.0743 46.3261 18.0046 46.3569 17.9611 46.472C17.9495 46.5029 17.8886 46.517 17.848 46.5394C16.9603 47.0616 16.9748 46.3373 16.8181 45.8488C16.8152 44.0831 16.8065 42.3201 16.8123 40.5544C16.8152 40.1473 16.6905 39.701 17.0937 39.3809C17.8712 38.769 18.3006 38.0363 17.9524 37.0369C17.848 36.8572 17.7842 36.6691 17.7755 36.4642C17.7813 36.1891 17.8364 35.9224 17.9437 35.6726C18.0453 35.4368 18.1207 35.1055 18.4891 35.1897C18.7357 35.2459 18.6574 35.5827 18.8314 35.7315C18.8372 39.468 18.843 43.21 18.8459 46.9493Z" fill="#E4A32C"/>
<path d="M18.8344 35.7299C18.6256 35.6962 18.2978 34.9326 18.2397 35.8337C18.2252 36.0808 18.0657 36.3222 17.9728 36.5664C17.8539 36.704 17.8423 36.8892 17.7611 37.0436C17.5609 37.4563 17.7146 38.0543 17.1025 38.2564C16.4527 37.7511 17.2302 36.6534 16.2322 36.2913C15.9247 36.0808 15.7622 35.7664 15.5795 35.4632C15.5534 35.2695 15.6433 35.1263 15.7941 35.0084C16.0959 34.8287 16.4266 34.6912 16.6558 34.4161C16.943 34.1578 16.9488 33.5823 17.5406 33.6609C17.5899 33.6974 17.6392 33.7339 17.6885 33.7704C17.7001 34.0371 17.6914 34.5312 17.909 34.4806C19.3566 34.1494 18.7097 35.1965 18.8344 35.7299Z" fill="#E8A733"/>
<path d="M16.8149 32.9373C17.2791 32.8166 17.7433 32.6931 18.2074 32.5723C18.924 33.3359 18.7383 33.7317 17.6852 33.7738L17.6765 33.7654C17.1486 33.2742 16.3595 34.1725 15.875 33.4482C15.9794 32.9176 16.3247 32.7997 16.8149 32.9373Z" fill="#E8A733"/>
<path d="M16.8152 32.9357C16.4989 33.107 16.1827 33.281 15.8665 33.4523C14.5233 34.505 12.8523 34.1288 11.338 34.3534C9.75109 34.5892 8.10329 34.5892 6.50481 34.1878C6.00873 34.0586 5.49525 33.9548 5.21094 33.4719C5.30958 33.3793 5.40531 33.2866 5.50395 33.1968C6.12768 32.6747 6.86164 32.8627 7.5724 32.8936C7.72906 32.9105 7.88282 32.9441 8.03367 32.9863C9.17669 33.2333 10.3371 33.0592 11.4859 33.0985C12.1532 33.1098 12.8146 33.0901 13.4644 32.9245C14.0272 32.8403 14.5784 32.7055 15.0832 32.4557C15.617 32.1918 16.0783 32.2844 16.5164 32.6325C16.6121 32.6325 16.7107 32.6354 16.8065 32.6354C16.8123 32.7364 16.8123 32.8347 16.8152 32.9357Z" fill="#945318"/>
<path d="M13.6179 33.1997C12.9826 33.5927 12.2689 33.4664 11.5756 33.4776C10.3542 32.9414 9.03716 33.6685 7.81002 33.2025L7.81582 33.2053C7.74909 33.1351 7.67077 33.0705 7.58083 33.0762C6.55966 33.1379 5.79668 33.0369 6.68731 31.9954C6.6641 32.2621 6.35949 32.3042 6.00266 32.2761C5.86631 32.2452 5.74156 32.1863 5.62552 32.1077C5.30931 31.8213 5.0163 31.521 4.92057 31.0914C4.80162 30.4402 5.06852 29.8282 5.10914 29.1909C5.43115 27.9979 5.47757 26.7234 6.19703 25.6426C6.36819 25.4938 6.57127 25.4433 6.79755 25.477C6.9339 25.5191 7.04414 25.6257 7.17178 25.6735C7.38066 25.7521 7.28493 26.3107 7.72008 25.9963C7.79551 25.943 7.89415 25.8391 7.87674 25.7717C7.81002 25.5134 7.38356 25.7072 7.33424 25.3955C7.24431 25.2187 7.19209 25.0306 7.15148 24.8397C7.05284 24.2333 6.54226 23.8038 6.40591 23.2115C6.29277 22.4255 6.50454 21.6928 6.77724 20.9657C7.84193 20.7046 8.07111 21.6366 8.57589 22.1476C8.67453 22.17 8.71514 22.2374 8.69194 22.3357C8.78477 22.1644 8.52368 22.1925 8.52658 22.0633C8.47436 21.9735 8.40763 21.8696 8.44245 21.7967C8.92982 20.7018 10.0786 19.9383 10.096 18.5824C10.0989 18.3213 10.6037 18.1922 10.9548 18.3943C11.4305 18.6694 12.1993 18.8603 11.9498 19.5368C11.7583 20.0506 12.2167 19.8091 12.266 19.9776C12.3966 20.1797 12.4285 20.393 12.356 20.6036C12.3647 20.5867 12.3473 20.6457 12.3589 20.6288C12.4662 20.438 12.4459 20.2555 12.4111 20.0702C11.8889 19.2898 12.2196 19.068 13.0406 19.1663C13.5744 20.3313 13.6875 21.5609 13.6237 22.8157C13.5628 23.6719 13.8152 24.6179 12.6838 25.1036C12.2254 25.3001 12.4865 25.8475 12.4082 26.2321C12.3066 26.7318 12.0862 27.1894 11.5872 27.2876C10.9751 27.4083 10.9664 26.9564 10.9461 26.4791C10.9286 26.0777 10.4761 26.2658 10.4152 26.3977C10.2614 26.7374 10.2034 27.1136 9.85526 27.3382C9.75372 27.4027 9.54485 27.3269 9.52454 27.4392C9.49553 27.6189 9.74792 27.6526 9.83205 27.7985C9.93359 27.9782 9.95389 28.141 9.75372 28.2702C9.20832 28.6295 9.20832 28.6295 9.1445 29.3145C9.19092 28.8878 8.90371 28.2617 9.77403 28.3235C10.2005 28.9439 10.4877 29.598 10.2962 30.3672C9.76533 30.9118 9.57386 31.7483 8.76156 32.0375C8.71515 32.1329 8.63682 32.1554 8.53818 32.102C8.70064 32.2901 8.68613 31.9729 8.80218 32.015C9.46072 31.8157 9.6812 31.1869 10.1164 30.7742C10.5602 30.4907 11.0447 30.2914 11.5176 30.064C12.3879 29.6429 12.9478 28.9214 12.9884 27.9333C13.0029 27.5375 12.6403 27.0041 13.1363 26.7992C13.6121 26.5999 14.3287 26.8216 14.5289 27.2062C14.7667 27.6582 14.877 27.0939 14.9872 27.2624C15.7647 27.9642 15.3208 28.972 15.6806 29.7748C15.7125 29.9096 15.7995 30.1117 15.7328 30.1735C14.79 31.0325 14.8712 32.5512 13.6179 33.1997Z" fill="#A45619"/>
<path d="M9.8438 28.1559C9.74806 28.0605 9.65233 27.9651 9.55369 27.8696C9.39703 27.6787 9.37383 27.4934 9.5682 27.3138C9.74226 27.0443 10.0904 26.7523 10.0585 26.5053C9.93373 25.5508 10.8592 25.9523 11.0042 25.9719C11.7933 26.0814 10.8011 26.8 11.3465 27.0948C11.6308 27.1453 11.8629 26.7804 11.8542 26.7355C11.4858 25.1943 13.7051 24.602 13.2961 23.0552C13.2815 23.0047 13.5049 22.8952 13.6181 22.8138C13.7109 22.8138 13.8037 22.8166 13.8966 22.8166C14.7872 23.5465 14.3259 24.6918 14.793 25.5508C14.97 26.1347 15.2978 26.7214 14.7814 27.2997C14.7756 27.4401 14.7843 27.5833 14.7553 27.718C14.7263 27.8556 14.5638 27.9735 14.5377 27.7742C14.4333 27.0106 13.5978 27.3615 13.2438 26.8899C13.3425 27.8668 13.2119 28.6079 12.739 29.5455C12.0718 30.8677 10.7518 30.1351 10.1368 30.9492C9.98305 30.7639 9.95984 30.5758 10.1339 30.3905C10.3312 29.6943 9.42314 29.1497 9.84089 28.4198C9.73646 28.3581 9.70164 28.2991 9.73646 28.2374C9.77417 28.1868 9.80898 28.1559 9.8438 28.1559Z" fill="#9E5018"/>
<path d="M8.68901 22.2576C7.90283 22.0415 7.47347 21.4239 7.0006 20.8568C6.12158 20.082 6.94548 18.8749 6.23472 18.058C6.10997 17.8839 5.96782 17.7099 6.12738 17.4853C7.88252 17.4853 9.64346 17.5639 11.3928 17.46C12.385 17.4011 12.7244 17.7604 12.7505 18.6138C12.8723 18.6868 13.029 18.7261 13.0377 18.903C13.0377 18.9928 13.0377 19.0826 13.0377 19.1696C12.6141 19.3521 12.1065 19.5037 12.736 20.0315C12.5416 20.1802 12.353 20.1802 12.1703 20.0146C12.0223 19.8799 11.4276 20.3403 11.6945 19.6076C12.0078 18.7457 10.9286 18.7036 10.6298 18.6447C10.1424 18.5436 10.1598 19.0321 10.2179 19.5823C10.2672 20.0455 10.3281 21.101 9.08936 21.101C8.46273 21.0982 8.77024 21.8421 8.68901 22.2576Z" fill="#A85B1B"/>
<path d="M13.6179 33.2007C13.821 32.555 14.7348 32.1115 14.1633 31.2075C14.0733 31.0644 14.6361 30.6826 15.0655 30.6826C15.5268 30.6826 15.4949 30.4384 15.3527 30.1408C16.3333 29.5204 15.7966 28.4171 16.2114 27.6171C16.5944 27.6339 16.9541 28.1645 17.3602 27.6648C16.9309 28.6529 17.6852 29.5204 17.659 30.4608C17.6474 30.8258 17.192 30.1969 16.9483 30.7247C16.6524 31.3647 16.2723 31.9065 16.5189 32.6336C15.4426 32.2939 14.6536 33.3326 13.6179 33.2007Z" fill="#A0571D"/>
<path d="M16.2143 27.617C16.2172 27.7096 16.1969 27.8051 16.223 27.8893C16.5306 28.855 16.3681 29.6494 15.3556 30.1407C14.8828 29.2508 15.3411 28.1841 14.7841 27.3082C14.6826 26.7496 14.5839 26.1937 14.4824 25.6351C14.3635 25.1579 14.0386 24.5459 15.0568 24.7985C15.4398 25.7362 15.8285 26.6766 16.2143 27.617Z" fill="#B87849"/>
<path d="M15.0539 24.7989C14.4331 24.8017 14.494 25.2424 14.4795 25.6355C13.908 24.7708 14.4157 23.6985 13.8964 22.8254C13.9138 22.6457 13.9283 22.4633 13.9602 22.118C14.7638 22.9517 14.6391 23.9848 15.0539 24.7989Z" fill="#AC6A39"/>
<path d="M13.0381 18.9021C12.9424 18.8066 12.8466 18.7084 12.7509 18.6129C12.9946 18.495 13.3282 18.2199 13.4646 18.2929C13.7837 18.4641 13.569 18.86 13.6096 19.1603C13.421 19.0733 13.2296 18.9863 13.0381 18.9021Z" fill="#B06E3A"/>
<path d="M11.8776 11.3096C12.1648 11.3153 12.4549 11.3209 12.7421 11.3265C12.4897 11.7195 12.6928 12.0816 12.8176 12.4494C12.9887 12.3539 13.1599 12.2557 13.331 12.1602C13.244 13.3168 13.7517 14.6278 12.1938 15.3745C11.8863 15.5205 12.481 15.7367 12.7595 15.8097C13.0032 16.0511 12.7421 16.4722 13.0816 16.6799C10.8361 17.3312 8.58783 17.348 6.33661 16.7136L6.40333 16.5929C6.97774 16.2364 6.95743 15.7142 6.90521 15.1359C6.79787 13.9962 6.78917 12.8508 6.93132 11.7111C6.96904 11.5623 7.03866 11.4276 7.1315 11.304C7.24754 11.1974 7.38389 11.1272 7.53764 11.0907C7.76683 11.0598 7.99311 11.0626 8.21939 11.1075C9.23186 11.304 10.2472 11.2675 11.2626 11.1159C11.4918 11.0991 11.7007 11.1581 11.8776 11.3096Z" fill="#EEB330"/>
<path d="M13.0786 16.6776C12.3388 16.6074 12.803 16.1162 12.7566 15.8074C13.8503 15.4958 13.1363 16.3629 13.3364 16.6352C13.2552 16.6745 13.1685 16.6889 13.0786 16.6776Z" fill="#EFC251"/>
<path d="M6.12738 17.4853C6.20571 17.5779 6.28409 17.6734 6.36532 17.766C6.72215 19.6188 6.40013 21.4238 5.90115 23.2036C5.77931 23.6416 5.66036 24.2367 4.9322 24.1749C4.91769 24.1749 4.90609 24.1048 4.90029 24.0655C4.89449 24.0205 4.90029 23.9728 4.90029 23.9279C5.59074 21.7523 5.61975 19.4869 5.85764 17.2523C5.94757 17.3281 6.03745 17.4067 6.12738 17.4853Z" fill="#D8AC87"/>
<path d="M7.24417 11.3548C7.24127 12.7977 7.22677 14.2406 7.23547 15.6836C7.23837 16.245 7.22386 16.7559 6.40287 16.5903C6.19979 14.833 5.99382 13.0728 5.78784 11.3155L5.78494 11.3127C5.78494 11.2032 5.78494 11.0937 5.78204 10.9842C6.39996 10.6249 6.85543 10.8691 7.24417 11.3548Z" fill="#F9D37C"/>
<path d="M5.78862 11.3157C5.78862 12.6183 5.79442 13.9209 5.78282 15.2234C5.77992 15.5378 5.84664 15.9589 5.38537 15.9926C4.9067 16.0291 4.88929 15.6024 4.927 15.2908C5.08656 13.9405 4.71233 12.4779 5.78282 11.3101C5.78282 11.3129 5.78862 11.3157 5.78862 11.3157Z" fill="#ECB12B"/>
<path d="M7.24417 11.3548C6.75679 11.2313 6.26942 11.1078 5.78204 10.9842C5.57607 10.5632 4.52932 10.7656 4.92096 9.90096C5.27199 10.3529 5.77678 10.4736 6.31927 10.5129C6.56876 10.4736 6.78344 10.5382 6.9546 10.7207C7.04744 10.7347 7.14027 10.7487 7.2331 10.7628C7.41007 10.9396 7.41007 11.1165 7.23601 11.2934L7.24417 11.3548Z" fill="#BF892A"/>
<path d="M1.44273 46.6771C1.43983 44.8047 1.43391 42.9327 1.43101 41.0603C1.00166 40.5803 1.16121 39.9963 1.15831 39.4546C1.14671 37.5597 1.07418 35.6704 0.871108 33.7867C0.871108 33.1944 0.870769 32.599 0.87367 32.0011C1.25661 32.2144 1.63989 32.4252 2.02573 32.6386C2.97727 33.346 3.40373 34.2724 3.27028 35.4346C3.34861 36.5547 3.16004 37.6776 3.38922 38.7892C3.45305 38.9071 3.51107 39.0307 3.56909 39.1514C3.8737 39.6735 3.95203 40.0244 3.55748 40.7066C2.93376 41.7846 3.00918 43.1713 2.65526 44.4037C2.33904 45.2262 2.62625 46.1891 2.02863 46.9415C1.63118 47.2699 1.70093 46.6322 1.44273 46.6771Z" fill="#EBAC30"/>
<path d="M4.90095 23.9257C6.1484 22.8393 5.79447 21.3009 6.06427 19.9478C6.20932 19.232 5.94533 18.4544 6.36598 17.7638C7.02162 17.7357 7.00421 18.1737 6.99841 18.6144C6.99261 19.3611 6.99841 20.1079 7.00131 20.8546C7.05643 21.7164 6.53134 22.5137 6.7054 23.3895C6.84465 24.0661 7.33493 24.7595 6.60096 25.3911C5.97434 25.3574 6.4182 24.9054 6.25284 24.7791C6.25864 26.2361 5.21136 27.6285 5.44925 29.2454C5.36512 29.9051 5.28098 30.562 5.19685 31.2217C5.0605 31.32 4.91835 31.3284 4.7704 31.247C3.42721 30.8315 3.30827 29.9079 3.60708 28.7514C3.82466 27.912 4.16698 27.0867 4.06254 26.1912C4.27142 25.4164 4.45418 24.6247 4.90095 23.9257Z" fill="#C89873"/>
<path d="M2.89554 35.1857C3.42353 34.074 1.88887 33.6249 2.02522 32.6395C3.08701 32.9231 4.07047 33.4705 5.21058 33.4733C5.58772 33.5884 5.96776 33.7035 6.34489 33.8158C6.25496 34.4698 5.64864 34.3407 5.23379 34.5063C4.85955 34.5344 4.54624 34.3604 4.22422 34.206C4.50562 34.3941 4.88856 34.4277 5.04812 34.7758C5.06843 34.9078 5.05392 35.0369 5.0017 35.1576C4.90307 35.2531 4.78703 35.312 4.65358 35.3429C4.07047 35.2783 3.46995 35.3597 2.89554 35.1857Z" fill="#EAAD44"/>
<path d="M4.90894 31.2209C5.00177 31.2377 5.09751 31.2377 5.19034 31.2237C5.3673 31.524 5.82857 31.6363 5.78506 32.0799C5.97072 31.9564 6.52192 32.3803 6.35366 31.67C6.30144 31.4511 6.75691 31.5381 6.90196 31.6784C7.41545 32.1781 6.55384 32.3297 6.60025 32.7733C6.89036 33.1438 7.5547 32.7031 7.8187 33.2084C7.04702 33.2028 6.27243 33.2 5.50075 33.1944C5.23096 32.7536 4.62173 33.0765 4.32293 32.7031C4.32873 32.2708 3.9864 32.3971 3.74271 32.3606C3.20892 31.6251 4.33743 31.7542 4.33453 31.2939C4.49989 31.0945 4.69136 31.0693 4.90894 31.2209Z" fill="#B16626"/>
<path d="M4.90911 31.2217C4.71764 31.2469 4.52327 31.2722 4.3318 31.2975C3.33384 31.0785 3.03213 30.3992 3.212 29.5289C3.44408 28.4088 3.7719 27.3056 4.05911 26.1967C4.53488 26.5953 4.27088 27.0277 4.13743 27.4656C3.71968 28.8439 3.27582 30.2335 4.90911 31.2217Z" fill="#D3A483"/>
<path d="M3.74312 32.3637C4.08254 32.0156 4.49449 31.9174 4.76719 32.3469C4.92675 32.5995 4.5235 32.6276 4.32623 32.7034C4.12896 32.5911 3.93749 32.4788 3.74312 32.3637Z" fill="#C5854E"/>
<path d="M3.13978 31.3617C2.98893 31.5554 2.89029 31.8136 2.71913 31.8698C2.51896 31.9371 2.41452 31.7098 2.48995 31.5189C2.56537 31.3252 2.60889 31.0557 2.9077 31.0781C2.98603 31.0865 3.04985 31.2494 3.13978 31.3617Z" fill="#B47135"/>
<path d="M0.867802 33.7896C1.43931 36.187 1.49153 38.6208 1.42771 41.0631C1.24204 41.1558 1.05927 41.2456 0.873604 41.3382C0.873604 38.8201 0.870703 36.3049 0.867802 33.7896Z" fill="#EEB757"/>
<path d="M10.7175 8.22126C9.3656 8.59462 9.92841 7.191 9.3511 6.79237C9.04359 6.57902 9.31919 6.17478 9.82977 6.07653C10.1315 6.01757 10.7755 5.91651 10.4622 5.4084C10.0967 4.81046 10.0503 5.58526 9.82107 5.65263C9.28728 5.80703 9.27277 5.07434 8.66355 5.03785C9.05229 5.85475 8.08334 6.6099 8.35604 7.04502C9.97773 9.62488 7.51473 7.69911 7.18111 8.07809C7.16951 8.09213 7.03026 7.99668 6.94903 7.95457C7.04766 6.92151 7.1492 5.88844 7.24784 4.85537C7.57275 4.78519 7.64818 5.00977 7.74972 5.27085C7.86866 4.77396 7.30876 4.19287 7.99051 3.82792C8.86662 3.67633 9.68182 3.8195 10.4303 4.29393C10.6595 4.8273 11.4689 3.98794 11.6806 4.82449C11.7561 5.12206 12.1477 5.23435 11.701 5.6021C10.8829 6.27303 10.848 7.27522 10.7175 8.22126Z" fill="#9F602B"/>
<path d="M10.4266 4.28898C9.55338 4.20757 8.68016 4.12335 7.80694 4.04194C7.22093 4.40407 6.67553 3.93526 6.10693 3.96614C5.96477 3.90719 5.86033 3.80894 5.79361 3.67419C5.90675 3.58717 6.01699 3.50295 6.13013 3.41592C6.69294 3.43277 7.25284 3.44961 7.81565 3.46645C8.64825 3.88754 9.6288 2.89939 10.4208 3.72191C10.7051 3.72191 10.9865 3.72191 11.5493 3.72191C11.0068 3.99422 10.7167 4.14019 10.4266 4.28898Z" fill="#844B20"/>
<path d="M6.06715 3.76046C6.64736 3.8531 7.22757 3.94574 7.80778 4.04119C7.8774 4.26296 7.94703 4.48473 8.01955 4.7037C8.11529 4.99003 8.1385 5.34094 7.84259 5.43919C7.34651 5.60763 7.6076 4.90582 7.24497 4.84686C7.21886 4.45947 6.98968 4.2798 6.60674 4.24892C6.31083 4.20962 5.97141 4.20681 6.06715 3.76046Z" fill="#A86E3D"/>
<path d="M6.06653 3.76111C6.24639 3.92393 6.42916 4.08956 6.60903 4.25238L6.61483 4.26361C6.46107 4.45731 6.2667 4.47696 6.04912 4.37871C5.80834 4.28045 5.4399 4.37871 5.35287 4.05587C5.26874 3.74427 5.58786 3.74146 5.79093 3.67409C5.87796 3.7162 5.97079 3.74708 6.06653 3.76111Z" fill="#C09C7F"/>
<path d="M6.04899 4.3762C6.23756 4.3369 6.42613 4.30041 6.6147 4.26111C6.58279 4.5306 6.80907 4.9573 6.3478 4.99099C6.01708 5.01626 6.10121 4.61201 6.04899 4.3762Z" fill="#A86E3D"/>
<path d="M6.07253 7.93743C5.88396 7.84198 5.69539 7.74654 5.50682 7.6539C5.55034 7.39002 5.53583 6.9549 5.90427 7.06719C6.2756 7.17948 6.02901 7.63425 6.07253 7.93743Z" fill="#AF7E54"/>
<path d="M8.67488 3.1801C7.58118 3.08184 6.36854 3.26151 5.75642 2.02351C5.6984 1.82139 5.77963 1.72314 5.99431 1.72314C6.90234 2.39126 7.47675 2.22563 8.33546 1.38346C9.25219 0.485142 10.665 0.802361 11.8863 1.20099L11.8805 1.2066C11.9531 1.68103 11.5788 1.68384 11.2858 1.75121C11.4947 1.86631 11.7442 1.88034 11.8776 2.08808C11.457 3.43836 10.4764 3.77242 8.67488 3.1801Z" fill="#A66737"/>
<path d="M5.99141 1.72323C5.91308 1.82429 5.83185 1.92255 5.75352 2.02361C5.4228 2.03764 5.22263 1.91974 5.24294 1.56883C5.52144 1.49865 5.80574 1.38917 5.99141 1.72323Z" fill="#D7B38D"/>
<path d="M8.67431 3.17954C11.059 3.1627 11.059 3.1627 11.5754 2.04261C11.4419 1.80399 10.8443 2.02015 10.9981 1.4952C11.3172 1.47274 11.6653 1.53731 11.8771 1.20605C12.2049 1.23132 12.5762 1.16956 12.8518 1.29869C13.345 1.52889 14.1776 1.28185 14.3256 1.91909C14.5199 2.75565 13.5191 2.44685 13.1709 2.80057C13.0839 2.8904 13.0781 3.05322 13.0346 3.18235C12.2687 3.84767 11.1837 3.05883 10.4178 3.71853C9.55333 3.5894 8.6337 3.99084 7.8127 3.46308C8.11731 3.42097 8.47124 3.51361 8.67431 3.17954Z" fill="#B0723D"/>
<path d="M2.02526 46.9418C1.98465 46.0013 1.97305 45.0637 2.31247 44.157C2.58807 43.9914 2.84626 44.1064 3.10736 44.1935C4.27068 44.7774 5.04816 45.642 5.21352 46.9446C5.20772 47.1327 5.20192 47.3236 5.19612 47.5116C4.70004 47.9215 4.25618 47.6997 3.81812 47.405C3.52511 47.0849 3.71368 46.3354 2.92169 46.4617C2.80275 46.3915 2.77374 46.2624 2.71572 46.1557C2.65479 46.2035 2.71281 46.2568 2.70991 46.3073C2.68671 46.5909 2.52715 46.7902 2.30377 46.953C2.20513 46.9502 2.1152 46.9474 2.02526 46.9418Z" fill="#F3C263"/>
<path d="M3.75165 47.2252C4.23322 47.3206 4.7119 47.416 5.19347 47.5143C5.37914 47.5508 5.59672 47.5424 5.74177 47.635C6.1044 47.8708 6.53956 46.9248 6.77745 47.6687C6.86738 47.955 7.01824 48.3565 6.72233 48.713C6.3568 49.1593 5.95645 49.179 5.47197 48.96C5.39075 48.9235 5.28631 48.9376 5.19057 48.9263C4.58715 49.0442 4.12589 48.8337 3.76906 48.3677C3.22656 48.1459 3.14533 47.708 3.18594 47.2111C3.37741 47.0623 3.56598 47.0651 3.75165 47.2252Z" fill="#EBAC30"/>
<path d="M5.21098 46.9444C4.46251 46.0854 4.1579 44.8474 2.90464 44.4235C2.42887 43.834 2.77119 43.2782 3.0526 42.7757C3.22376 42.4669 3.59509 42.2002 3.92001 42.7167C4.03315 43.2529 3.78656 43.9603 4.64237 44.1512C4.77582 44.2972 4.82514 44.4741 4.84255 44.665C4.87736 45.2573 5.19647 45.5689 5.8115 45.5829C6.15672 45.6026 6.46714 45.7064 6.69922 45.9675C6.77465 46.077 6.82106 46.1977 6.83557 46.3297C6.82106 46.4644 6.76304 46.5767 6.66151 46.6665C6.17413 46.762 5.69255 46.8518 5.21098 46.9444Z" fill="#D49D3B"/>
<path d="M6.65893 46.6697C6.66183 46.5714 6.66474 46.4703 6.66764 46.3721C7.03897 46.0521 7.61048 45.9566 7.79034 45.4232C8.4953 44.3621 8.57363 45.4092 8.87824 45.718C9.10452 45.9847 9.44685 45.9145 9.73405 46.0015C9.78047 46.0436 9.82688 46.0857 9.8704 46.1307C9.76306 46.3103 9.65572 46.49 9.55128 46.6725C8.58523 46.4423 7.62208 47.3378 6.65893 46.6697Z" fill="#D79C37"/>
<path d="M3.76907 48.3707C4.24194 48.5559 4.71771 48.744 5.19058 48.9293C5.16738 49.1623 5.01942 49.5329 4.83665 49.3644C4.22163 48.8002 3.75166 49.3139 3.22657 49.4458C3.40934 49.0865 3.5892 48.7272 3.76907 48.3707Z" fill="#F5BF56"/>
<path d="M8.005 49.2379C7.96729 49.4934 7.81353 49.6506 7.54954 49.6759C7.33776 49.6955 7.15789 49.586 7.14339 49.3811C7.12598 49.1032 7.34646 48.9881 7.59885 48.9656C7.79613 48.9488 7.97889 48.9937 8.005 49.2379Z" fill="#F6C05C"/>
<path d="M10.407 47.8236C10.7116 48.0679 11.199 48.3065 11.1148 48.6854C11.0365 49.0335 10.6739 48.6826 10.436 48.6377C10.3345 48.4581 10.23 48.2756 10.1285 48.0959C10.1807 47.9668 10.2735 47.8798 10.407 47.8236Z" fill="#F2C05C"/>
<path d="M10.4063 47.8229C10.3134 47.9128 10.2206 48.0054 10.1249 48.0952C9.84058 47.865 9.29539 47.7158 9.84659 47.233C10.0352 47.4295 10.2206 47.6264 10.4063 47.8229Z" fill="#F7D480"/>
<path d="M3.75194 47.2245C3.56337 47.2217 3.3748 47.2161 3.18623 47.2133C3.0934 47.1178 3.00057 47.0224 2.91063 46.9269C2.72787 46.7529 2.72497 46.5816 2.91353 46.4132C3.18623 46.2616 3.28487 45.6693 3.76354 46.037C4.24222 46.4076 3.96662 46.8287 3.75194 47.2245Z" fill="#F6D28C"/>
<path d="M2.59088 48.4043C2.56477 48.5868 2.53286 48.8086 2.27466 48.6822C2.12381 48.6093 2.03678 48.4156 1.92073 48.2752C2.06289 48.1797 2.19924 48.0169 2.35009 48.0029C2.6373 47.9776 2.56477 48.2359 2.59088 48.4043Z" fill="#EBAC30"/>
<path d="M2.91346 46.4118C2.91056 46.5831 2.91056 46.7543 2.91056 46.9256C2.72199 47.2709 2.50441 46.9873 2.29844 46.9508C2.35936 46.614 2.40577 46.2743 2.7481 46.0722C2.80032 46.1873 2.85544 46.2996 2.91346 46.4118Z" fill="#EBAC30"/>
<path d="M13.038 5.41977C13.1628 6.23948 14.6481 6.61284 13.8474 7.73013C13.83 7.75539 13.7575 7.7582 13.7169 7.74416C13.6762 7.73294 13.6472 7.68802 13.6124 7.65714C13.4238 7.4466 13.2324 7.4466 13.0409 7.65714C11.0537 7.14341 12.745 6.17772 12.7479 5.41977C12.8465 5.31871 12.9423 5.31871 13.038 5.41977Z" fill="#8A5223"/>
<path d="M13.038 5.41977L12.8927 5.42025L12.7476 5.42305C12.4546 5.25462 12.4024 4.95424 12.4575 4.69598C12.5271 4.36472 11.6017 4.53596 12.1413 4.05312C12.414 3.8117 12.7824 3.82854 13.0928 3.92118C13.4729 4.03628 13.3075 4.37595 13.2611 4.6258C13.2205 4.89529 13.1192 5.15589 13.038 5.41977Z" fill="#A06432"/>
<path d="M14.2072 4.10879C14.1144 4.24073 14.0593 4.40355 13.9693 4.42601C13.7227 4.48776 13.6531 4.28845 13.6792 4.11159C13.6937 4.01896 13.8301 3.8814 13.9171 3.87579C14.0041 3.87017 14.097 4.01334 14.2072 4.10879Z" fill="#A06636"/>
<path d="M13.0442 7.65664C13.0616 7.40679 12.963 7.00536 13.2618 6.97729C13.7578 6.92956 13.5577 7.39276 13.6157 7.65664C13.4242 7.65945 13.2357 7.65664 13.0442 7.65664Z" fill="#A1744C"/>
<path d="M6.95128 10.7199C6.69888 10.762 6.48131 10.7143 6.31595 10.5121C6.33915 10.4083 6.36263 10.3044 6.38294 10.2006C6.63533 10.0349 6.77748 9.56052 7.21844 9.91704C7.13141 10.1837 7.04121 10.4532 6.95128 10.7199Z" fill="#FCE393"/>
<path d="M10.7143 10.7478C9.81209 10.0657 8.64876 10.8208 7.33169 10.0769C9.27249 10.0769 10.8391 10.0769 12.3969 10.0769C12.2432 10.3155 11.6717 10.3043 11.5846 10.7535C11.2916 10.9893 11.0015 10.9921 10.7143 10.7478Z" fill="#EBB124"/>
<path d="M10.7142 10.7487C11.0043 10.7515 11.2944 10.7515 11.5816 10.7543C11.686 10.8413 11.7905 10.9256 11.8949 11.0126L11.8717 11.0378C10.4589 11.6049 8.97937 11.1221 7.54334 11.3017C7.43891 11.2989 7.33737 11.2961 7.23293 11.2961C7.23293 11.1193 7.23003 10.9424 7.23003 10.7655C8.39335 10.7571 9.55377 10.7515 10.7142 10.7487Z" fill="#D19A2F"/>
<path d="M7.54334 11.3017C8.95326 10.715 10.4328 11.1782 11.8717 11.0378C11.8775 11.1277 11.8774 11.2198 11.8745 11.3096C11.686 11.3152 11.4945 11.318 11.3059 11.3237C10.2383 11.523 9.17076 11.5286 8.10317 11.3208C7.9175 11.3124 7.72901 11.3073 7.54334 11.3017Z" fill="#BF892A"/>
<path d="M16.2347 37.1357C16.8729 37.6972 16.1506 38.2446 16.2057 38.8173C16.3072 39.9149 15.9504 41.0322 16.342 42.1298C16.6002 42.8597 15.9678 42.6885 15.5965 42.7671C14.6101 43.1152 13.7804 42.4863 12.8695 42.3544C12.5591 42.1495 12.6432 41.8744 12.7302 41.6021C12.7824 41.4785 12.8579 41.3662 12.9449 41.2596C13.5454 40.7851 14.1604 40.3248 14.5637 39.6622C14.7378 39.418 14.9205 39.1794 15.0453 38.9043C15.1439 38.6853 15.2686 38.4832 15.4166 38.2923C15.7241 37.933 15.7618 37.3884 16.2347 37.1357Z" fill="#EDAB2C"/>
<path d="M12.7448 42.1463C13.7601 42.0733 14.6682 42.4635 15.5965 42.7695C15.8315 43.1064 16.6873 43.2523 15.9562 43.8812C15.7793 44.0693 15.4108 43.6173 15.3122 44.0636C14.5869 44.4988 13.9168 44.9732 12.9449 44.7935C12.4228 44.6953 12.2023 44.4735 12.0427 44.0636C11.976 43.884 11.947 43.7015 11.9557 43.5106C11.9673 43.3871 11.9963 43.2692 12.0369 43.1513C12.2081 42.7779 12.2545 42.3175 12.7448 42.1463Z" fill="#78872D"/>
<path d="M17.1025 38.2564C17.6624 37.9307 16.9225 37.1249 17.6535 36.8638C17.8566 36.9649 18.0597 37.0519 18.2569 36.8526C18.7298 38.245 18.3208 39.1405 17.0965 39.3791C17.0994 39.0058 17.0996 38.6297 17.1025 38.2564Z" fill="#DB9B26"/>
<path d="M15.3614 43.8632C15.5703 43.56 15.7588 43.8548 15.9561 43.8828C14.8595 45.5279 13.2668 46.0641 11.326 45.817C11.1026 45.6205 10.563 45.7553 10.6588 45.2219C10.798 44.9664 11.0243 44.8289 11.3115 44.784C12.91 45.5026 14.1662 44.8092 15.3614 43.8632Z" fill="#81892C"/>
<path d="M16.2347 37.1357C16.0838 37.6242 16.0782 38.1773 15.5995 38.5254C15.3675 38.312 15.3065 38.0145 15.3936 37.759C15.6663 36.9674 15.1267 36.827 14.5494 36.6923C14.4449 36.6024 14.3927 36.4873 14.3985 36.3526C14.6973 35.8978 15.1093 35.589 15.6518 35.4515C16.2407 35.4767 16.2291 35.8894 16.2291 36.2908C16.232 36.5715 16.2347 36.855 16.2347 37.1357Z" fill="#E9B33E"/>
<path d="M16.8209 45.8479C17.082 46.2577 17.3228 46.7041 17.9552 46.4093C18.0365 46.4683 18.0626 46.5244 18.0365 46.5834C18.0104 46.6423 17.9843 46.6732 17.9582 46.6732C17.4563 47.3329 17.1023 48.2368 15.9477 47.8073C16.6875 47.4592 16.9022 46.8641 16.8006 46.1174C16.7194 46.0556 16.6904 45.991 16.7194 45.9293C16.7455 45.8675 16.7745 45.8338 16.8006 45.8338L16.8209 45.8479Z" fill="#D5931E"/>
<path d="M16.8006 45.8298C16.8006 45.9253 16.8006 46.0179 16.8006 46.1133C16.4206 46.6299 15.7882 46.7478 15.089 47.1464C15.3588 46.3127 16.4815 46.1611 16.29 45.2852C16.4612 45.4677 16.6324 45.6473 16.8006 45.8298Z" fill="#F4BE58"/>
<path d="M10.7606 45.291C10.9492 45.4679 11.1348 45.642 11.3234 45.8188C11.1232 45.8244 10.923 45.83 10.7229 45.8385C10.4386 45.9367 10.1543 46.035 9.86996 46.1332L9.84385 46.1136C9.63498 45.8974 9.56245 45.642 9.62047 45.3528C9.6872 45.1423 9.80904 44.9851 10.0411 44.9317C10.3428 44.9373 10.5981 45.0272 10.7606 45.291Z" fill="#D79E36"/>
<path d="M17.8245 40.8642C18.5236 41.5295 17.9608 41.9927 17.8332 42.4755C17.6504 41.9815 17.6098 41.4902 17.8245 40.8642Z" fill="#EFC471"/>
<path d="M17.9614 46.6689C17.9672 46.5819 17.9643 46.492 17.9585 46.405C18.0108 46.1327 17.8744 45.765 18.3357 45.6611C18.591 46.0766 18.2254 46.3713 18.2022 46.7054C18.2022 46.7222 18.1181 46.7503 18.0775 46.7447C18.034 46.7391 17.9992 46.697 17.9614 46.6689Z" fill="#EBAE43"/>
<path d="M18.2569 36.8526C18.1844 37.0014 18.1351 37.2569 18.0307 37.2822C17.7145 37.3551 17.7115 37.066 17.6535 36.8638C17.758 36.7656 17.8655 36.6647 17.9728 36.5664C18.0686 36.6619 18.1641 36.7572 18.2569 36.8526Z" fill="#F0B855"/>
<path d="M15.6518 35.4515C15.3965 35.9006 15.0746 36.2688 14.4914 36.294C13.4558 36.3586 12.336 37.0099 11.4685 35.8898C11.3844 35.4519 11.7935 35.4154 12.072 35.2273C10.8883 34.5676 9.67279 35.2217 8.81988 35.0532C9.27825 35.0561 10.0528 34.9803 10.8303 35.0083C11.5005 35.8224 10.5634 36.0049 10.2327 36.426C10.0325 36.6 9.80334 36.7151 9.53644 36.7516C8.92142 36.8583 8.30639 36.9285 7.68847 36.7376C7.37806 36.6421 7.11986 36.5916 6.78044 36.8583C5.66063 37.7314 5.21967 37.5629 4.89766 36.2379C4.84254 36.0133 4.79902 35.7831 4.77291 35.5529C4.77291 35.4182 4.81352 35.2975 4.89766 35.1908C4.90346 35.0757 4.91216 34.9634 4.91796 34.8483C5.0224 34.6911 5.04851 34.4974 5.18776 34.3571C5.42565 33.8798 6.06678 34.2083 6.34818 33.8181C9.54804 34.3514 12.7044 33.8209 15.8665 33.4559C16.4119 33.8854 17.2503 32.7064 17.6797 33.7647C17.0183 33.6889 17.407 34.6237 16.8094 34.6097C16.4671 34.7192 16.1741 34.896 15.9449 35.1712C15.8462 35.2638 15.7504 35.356 15.6518 35.4515Z" fill="#E9A628"/>
<path d="M15.9444 35.1678C15.9734 34.6092 16.1736 34.292 16.8089 34.6064C16.6523 34.9854 16.3593 35.1678 15.9444 35.1678Z" fill="#ECB752"/>
<path d="M7.8127 33.2056C8.70042 33.1382 9.59684 33.3375 10.4788 33.0512C10.9284 32.9052 11.294 33.1438 11.5783 33.4807C10.325 33.3543 9.02824 33.7895 7.8127 33.2056Z" fill="#B16626"/>
<path d="M5.44624 29.2474C4.81961 28.2761 5.48105 27.3862 5.65802 26.4767C5.78566 25.8085 6.1628 25.1966 6.08157 24.3909C6.49642 24.7446 6.30495 25.0899 6.38908 25.3818C6.47611 25.4268 6.51093 25.4773 6.49352 25.5362C6.47611 25.6008 6.45291 25.6317 6.4268 25.6317C6.10188 26.836 5.77406 28.0431 5.44624 29.2474Z" fill="#CFA37F"/>
<path d="M6.21456 29.2676C6.06081 28.3104 6.12463 27.5917 6.74836 27.2183C7.4098 26.8197 7.59547 27.2969 7.02976 28.0914C6.79768 28.417 6.5743 28.7511 6.21456 29.2676Z" fill="#A75B20"/>
<path d="M7.50854 25.3157C8.00172 25.5936 7.99302 24.6223 8.60224 25.0125C8.33244 25.5683 8.25121 26.3263 7.46503 26.4667C7.1285 26.5256 7.19233 25.8828 6.93994 25.6357C6.96314 25.5796 6.98635 25.5206 7.00956 25.4645C7.14591 25.3241 7.29967 25.2427 7.50854 25.3157Z" fill="#A75B20"/>
<path d="M10.1368 30.3986C10.1368 30.5839 10.1368 30.772 10.1397 30.9573C9.84961 31.5664 9.58561 32.2093 8.68628 32.0802C9.25199 31.5861 9.37093 30.7327 10.1368 30.3986Z" fill="#AC6021"/>
<path d="M6.42969 25.6318C6.41229 25.5475 6.39778 25.4661 6.39198 25.3819C6.84164 24.7699 6.58345 24.0541 6.70529 23.3944C7.02731 23.8407 7.50599 24.2001 7.51759 24.812C7.24489 25.0226 7.15496 25.351 6.96349 25.6149L6.94318 25.6374C6.76912 25.6346 6.59796 25.6318 6.42969 25.6318Z" fill="#A75B20"/>
<path d="M9.8438 28.1559C9.8438 28.2458 9.84671 28.3386 9.84381 28.4284C8.88066 28.5435 9.5247 29.4474 8.9793 29.9668C9.15046 29.1892 8.40487 28.2233 9.8438 28.1559Z" fill="#AC6021"/>
<path d="M12.1703 20.0114C12.3589 20.017 12.5474 20.0227 12.736 20.0283C12.7621 20.4409 12.7534 20.8311 12.1674 20.8452L12.1761 20.8536C12.1761 20.5757 12.1732 20.2922 12.1703 20.0114Z" fill="#B87744"/>
<path d="M12.1674 20.8452C12.1355 21.1006 12.2722 21.4174 11.9241 21.5522C11.869 21.5747 11.6717 21.4259 11.6572 21.3388C11.5876 20.9571 11.8777 20.8897 12.1794 20.8532C12.1765 20.856 12.1674 20.8452 12.1674 20.8452Z" fill="#B56F36"/>
<path d="M9.24033 22.5663C9.17651 22.6365 9.08077 22.8358 8.94152 22.8695C8.65432 22.9425 8.72975 22.673 8.68913 22.5242C8.63401 22.3108 8.72104 22.1986 8.94443 22.1677C9.20262 22.134 9.25484 22.2744 9.24033 22.5663Z" fill="#A85B1B"/>
<path d="M8.74467 23.7838C9.00576 23.7361 9.1131 23.8175 9.04638 23.9775C8.98255 24.1319 8.87231 24.3032 8.73306 24.379C8.58511 24.4576 8.45456 24.3032 8.49808 24.1628C8.5474 24.0084 8.68084 23.8793 8.74467 23.7838Z" fill="#A75B20"/>
<path d="M9.57135 27.3134C9.56555 27.4987 9.55975 27.684 9.55685 27.8693C9.26384 27.7064 8.93312 27.5577 9.10428 27.1422C9.142 27.0524 9.31026 27.0131 9.4176 26.9485C9.46982 27.072 9.51913 27.1927 9.57135 27.3134Z" fill="#AC6021"/>
<path d="M8.68618 32.0824C8.33805 32.4783 7.99863 32.4025 7.57798 32.1302C8.01604 31.6782 8.34676 32.1751 8.68618 32.0824Z" fill="#B16626"/>
<path d="M6.96036 25.613C6.91104 25.1948 6.89653 24.7989 7.51446 24.8102C7.51156 24.9786 7.51144 25.1473 7.50854 25.3157C7.32578 25.4139 7.14312 25.512 6.96036 25.613Z" fill="#BD8050"/>
<path d="M15.8287 31.168C15.9767 31.488 16.026 31.8614 15.7127 31.9203C15.2833 32.0017 15.4719 31.6536 15.5589 31.4627C15.6053 31.3561 15.7243 31.2775 15.8287 31.168Z" fill="#AA662A"/>
<path d="M8.10279 11.3181C9.17038 11.3181 10.238 11.3209 11.3056 11.3209C10.238 11.7673 9.17038 11.7617 8.10279 11.3181Z" fill="#D19A2F"/>
<path d="M10.952 15.2615C10.7867 15.3598 10.6851 15.4692 10.5778 15.4749C10.3776 15.4861 10.2123 15.3682 10.2819 15.1576C10.308 15.079 10.5082 15.0117 10.6213 15.0201C10.7199 15.0285 10.8099 15.152 10.952 15.2615Z" fill="#F4C455"/>
<path d="M3.74893 42.9919C3.70831 42.7617 3.62999 42.4781 3.35729 42.7785C2.94244 43.2389 2.81479 43.8116 2.90182 44.4208C2.70455 44.3309 2.50728 44.2439 2.31001 44.1541C2.54789 43.0452 2.98885 41.9757 2.90472 40.805C2.88441 40.5159 2.63202 40.0667 3.51394 40.1229C4.07675 40.1594 3.14841 39.699 3.18903 39.3593C3.62708 38.9691 3.92009 38.3319 4.70628 38.534C5.07471 39.0758 5.10952 39.6653 4.97317 40.2773C4.86293 40.6759 4.62215 41.0015 4.30883 41.2654C3.96941 41.5489 4.32334 41.5518 4.45388 41.6528C4.56412 41.8156 4.60764 41.9925 4.61924 42.1806C4.61924 42.3883 4.57283 42.582 4.47129 42.7645C4.27692 42.9835 4.07965 43.1912 3.74893 42.9919Z" fill="#EDB547"/>
<path d="M2.89554 35.1857C3.46995 34.7618 4.04461 34.832 4.62192 35.1829C4.91203 35.5956 5.118 36.2974 4.80759 36.4686C3.85604 36.9964 4.12294 37.9396 3.76321 38.6499C3.64136 38.8941 3.57464 39.2001 3.17429 39.1018C2.59989 37.8301 2.95646 36.4939 2.89554 35.1857Z" fill="#F2C884"/>
<path d="M3.1745 39.1007C3.46461 38.2641 3.54294 37.2395 4.10864 36.6444C4.59602 36.1306 4.61923 35.7208 4.62503 35.179C4.71786 35.1762 4.8107 35.179 4.90353 35.1874C4.91513 35.2744 4.92674 35.3615 4.93834 35.4513C4.93834 36.4844 5.70712 37.5932 4.61923 38.5224C4.10284 38.7358 3.86785 39.3983 3.19481 39.3618C3.1803 39.2776 3.1745 39.1905 3.1745 39.1007Z" fill="#F0C170"/>
<path d="M4.50844 28.1867C4.58387 27.4821 4.52875 26.7466 5.07995 26.0336C5.36135 26.9628 4.97841 27.5944 4.50844 28.1867Z" fill="#D2A985"/>
<path d="M5.18741 34.3545C5.18741 34.5651 5.1584 34.7588 4.91761 34.8458C4.51437 34.3349 3.7862 34.478 3.17698 34.0429C4.00958 33.7229 4.56078 34.2956 5.18741 34.3545Z" fill="#F8D48A"/>
<path d="M5.78845 32.0824C5.74784 32.2958 5.74204 32.5625 5.41422 32.5035C5.33879 32.4895 5.23145 32.2733 5.25466 32.1779C5.34459 31.8129 5.59408 32.0515 5.78845 32.0824Z" fill="#A45619"/>
<path d="M10.9981 1.4952C11.1895 1.67767 11.381 1.86014 11.5754 2.04261C11.0764 1.98927 10.5514 2.19737 10.0582 1.91384C10.212 1.38327 10.6499 1.53731 10.9981 1.4952Z" fill="#C28959"/>
<path d="M10.1074 45.0192C10.0145 45.1118 9.9246 45.2044 9.83176 45.2971C9.3879 45.4908 9.03397 45.8052 8.68005 46.1196C8.40735 45.954 8.40445 45.6845 8.37834 45.4178C8.37253 45.3616 8.2913 45.3111 8.24779 45.255C8.19267 45.3673 8.13755 45.4796 8.08533 45.5947C7.55734 45.6845 7.02935 45.7715 6.60579 46.1336C6.32729 46.0298 6.04879 45.9287 5.77029 45.8248C5.42216 45.4936 5.21329 45.095 5.11755 44.6346C5.16687 44.4184 5.31773 44.2921 5.5179 44.2079C5.85442 44.1012 6.19674 44.0984 6.54197 44.1489C6.66962 44.1714 6.79146 44.2107 6.9075 44.264C7.20631 44.4633 7.51092 44.6458 7.89966 44.483C8.29711 44.3988 8.59592 44.1742 8.86571 43.8963C9.21094 43.6661 9.42272 44.0956 9.73023 44.0563C9.84917 44.0844 9.94781 44.1405 10.0261 44.2331C10.1625 44.4296 10.2466 44.643 10.2176 44.8872C10.1799 44.9265 10.1422 44.9743 10.1074 45.0192Z" fill="#E2AE4C"/>
<path d="M5.57941 44.4004C5.45467 44.4846 5.32992 44.5716 5.20518 44.6558C4.9992 44.8523 4.80483 44.8608 4.61916 44.6278C4.62787 44.4902 4.63947 44.3526 4.64817 44.2151C4.65398 44.1561 4.65688 44.0972 4.66268 44.0382C4.7207 43.7435 4.68589 43.4656 4.50892 43.2101C4.40739 43.0557 4.34646 42.8901 4.34066 42.7076C4.34646 42.5139 4.34937 42.323 4.35517 42.1293C4.51473 42.0198 4.68879 41.9946 4.87446 42.0367C5.16166 42.1405 5.36473 42.3595 5.60262 42.5307C5.79699 42.6599 6.01167 42.7497 6.21474 42.862C6.3714 42.9715 6.46713 43.109 6.45843 43.3027C6.40041 43.474 6.29017 43.6143 6.16252 43.7435C5.95945 43.9596 5.75348 44.1646 5.57941 44.4004Z" fill="#E0A944"/>
<path d="M4.3407 42.7084C4.44224 42.8123 4.54378 42.9161 4.64531 43.02C4.85999 43.4018 4.86289 43.778 4.63371 44.1541L4.64821 44.2131C3.2267 44.5808 3.33408 43.893 3.74893 42.9919C3.9462 42.8992 4.14343 42.8039 4.3407 42.7084Z" fill="#F6E6C1"/>
<path d="M6.60025 46.1304C6.69889 44.9401 7.35453 45.1759 8.07979 45.5914C8.01887 46.5515 7.2849 46.3634 6.66408 46.3718C6.65537 46.2876 6.63216 46.209 6.60025 46.1304Z" fill="#F0D7A9"/>
<path d="M4.61916 44.6278C4.81353 44.6362 5.01081 44.6474 5.20518 44.6558C5.66354 44.9225 5.91867 45.2791 5.76491 45.8209C4.77565 45.9669 4.36967 45.5934 4.61916 44.6278Z" fill="#F6E1B3"/>
<path d="M8.68088 46.1165C8.63736 45.2827 8.97679 44.9515 9.8326 45.294C9.8355 45.5663 9.8413 45.8386 9.8442 46.1081C9.45546 46.1474 9.06962 46.4169 8.68088 46.1165Z" fill="#F1D9AB"/>
<path d="M10.7606 45.291C10.543 45.2012 10.3256 45.1089 10.1051 45.0191L10.1487 44.9798C10.5548 44.5756 10.3227 44.3566 9.90206 44.1938L9.82663 44.1404C9.66998 43.986 9.66127 43.8064 9.7251 43.6127C9.89916 43.2983 10.3053 43.099 10.2183 42.661C9.88175 42.2624 9.47561 41.9115 9.37987 41.3725C9.35376 41.2434 9.35376 41.1142 9.37117 40.9851C9.40888 40.8616 9.47851 40.7549 9.57714 40.6679C10.4475 40.1401 10.7869 41.4455 11.576 41.2097C11.7036 41.1844 11.8313 41.1788 11.9618 41.19C12.3564 41.2518 12.748 41.3164 13.0381 41.6195C12.9395 41.7936 12.8408 41.9676 12.7422 42.1417C12.4347 42.4645 12.5855 43.0091 12.1591 43.273C11.9937 43.1916 12.043 42.9418 11.8429 42.8856C11.8806 43.0625 12.0198 43.1719 12.1388 43.2955C12.1649 43.4948 12.191 43.6913 12.2171 43.8906C12.5884 44.7721 11.9183 44.8366 11.3236 44.9602C11.1379 45.0753 10.9492 45.1816 10.7606 45.291Z" fill="#E1B252"/>
<path d="M15.2692 39.0643C15.2373 39.331 15.101 39.5331 14.8689 39.6791C14.7384 39.7408 14.6658 39.8615 14.5643 39.9542C14.1639 40.3107 13.8883 41.035 13.2704 40.8525C12.5365 40.6363 13.0819 39.8924 12.9194 39.4068C12.9658 39.2271 13.0354 39.0531 13.1805 38.9239C12.9948 38.9295 12.9716 39.1092 12.8817 39.2047C12.6554 39.4489 12.4523 39.7128 12.1071 39.8138C11.8866 39.8503 11.6893 39.8082 11.5269 39.6482C11.8576 38.3091 12.9687 37.6494 14.0566 37.001C14.4018 36.7932 14.8747 36.6473 15.2692 36.9589C15.6812 37.2873 15.4868 37.7168 15.3911 38.1182C15.3186 38.4299 15.1445 38.7302 15.2692 39.0643Z" fill="#88A644"/>
<path d="M15.2692 39.0643C15.2083 38.8481 15.1036 38.6322 15.0978 38.4161C15.0862 37.981 15.649 37.4504 15.1065 37.136C14.5321 36.8047 13.9838 37.3128 13.5863 37.6469C12.8611 38.2504 12.2489 38.9803 11.5904 39.6569C11.6832 39.9179 11.5237 40.0162 11.3032 40.078C11.1581 40.0723 11.0334 40.0246 10.9231 39.932C10.7114 39.5165 10.8999 39.1375 11.0276 38.7501C11.3148 38.1129 11.8544 37.675 12.3563 37.209C12.9887 36.7542 13.653 36.3949 14.4885 36.5773C15.9014 36.4257 15.9014 36.4257 15.5967 38.5256C15.4894 38.7052 15.3795 38.8846 15.2692 39.0643Z" fill="#808E33"/>
<path d="M11.2481 39.9763C11.3613 39.8696 11.4772 39.7636 11.5904 39.6569C11.7819 39.6569 11.9734 39.6591 12.1648 39.6591C12.5362 39.8079 12.6377 39.151 13.0381 39.384C13.6821 39.718 13.1048 40.229 13.1599 40.6669C13.9954 40.6669 14.1756 39.7633 14.8689 39.6791C14.4976 40.4511 13.9693 41.0711 13.1164 41.3827C12.7102 41.582 12.3389 41.3659 11.956 41.2985C11.8544 41.2817 11.7529 41.2648 11.6514 41.248C11.1785 40.9252 11.1379 40.4732 11.2481 39.9763Z" fill="#7F9435"/>
<path d="M11.9583 41.3029C12.3645 41.0699 12.73 41.3787 13.1187 41.3871C13.0839 41.4657 13.0578 41.5443 13.0404 41.6285C12.6546 41.592 12.1701 41.87 11.9583 41.3029Z" fill="#848028"/>
<path d="M11.3261 44.9677C11.709 44.6758 12.3385 44.5803 12.2196 43.8981C12.6315 44.7375 13.3771 44.6308 14.053 44.4006C14.4911 44.2519 14.8624 43.9122 15.3614 43.8616C13.9892 45.4562 12.7505 45.7958 11.3261 44.9677Z" fill="#7E9C3C"/>
<path d="M12.6666 43.1218C13.5659 42.5239 14.1461 42.8832 14.97 43.1976C14.1374 43.3492 13.5369 43.3801 12.6666 43.1218Z" fill="#7C993C"/>
<path d="M14.4913 36.5777C13.8212 36.8584 13.1481 37.1419 12.478 37.4226C12.0022 37.65 11.6454 38.0908 11.0797 38.1581C10.9433 38.1525 10.8128 38.1216 10.6938 38.0571C10.5981 37.9644 10.5285 37.8578 10.4763 37.7371C10.3718 37.2514 10.1368 36.791 10.1426 36.2829C10.2036 35.7439 11.013 35.7523 11.0101 35.1684C11.541 35.0281 11.4017 35.539 11.5903 35.7299C11.7469 36.0246 11.9703 36.3419 12.33 36.179C13.093 35.8309 13.7806 36.1482 14.4942 36.2941C14.4913 36.3896 14.4913 36.4822 14.4913 36.5777Z" fill="#EEAF34"/>
<path d="M4.61576 38.5226C5.03351 37.5288 4.88846 36.4817 4.93487 35.4515C5.32071 35.6985 5.17566 36.128 5.2888 36.4649C5.40194 36.8074 5.37293 37.1891 5.95314 37.1442C6.41151 37.1077 6.45792 36.9617 6.43182 36.5435C6.3883 35.8641 6.87568 36.1252 7.2093 36.2571C7.96647 36.5603 8.75556 36.5828 9.55335 36.5379C9.80864 37.3323 9.26034 37.9976 9.18492 38.7415C8.97894 39.1374 8.61921 39.3535 8.21596 39.5191C8.02159 39.5837 7.82142 39.6006 7.61835 39.5781C7.25281 39.5023 6.89018 39.4883 6.54206 39.6511C6.27516 39.7662 6.01987 39.8897 5.82259 40.1059C5.67754 40.2855 5.63693 40.5017 5.59051 40.7178C5.52959 40.8245 5.43966 40.8919 5.31781 40.9256C4.76081 40.9958 4.85364 40.4736 4.63896 40.2322C4.92617 39.6595 4.50262 39.0924 4.61576 38.5226Z" fill="#EAAC36"/>
<path d="M8.91245 38.8767C8.94726 38.0514 9.11262 37.2597 9.55068 36.5383C9.74795 36.4512 9.94523 36.367 10.1396 36.28C10.6009 36.6477 10.7575 37.1334 10.7314 37.692C10.5312 37.9194 10.0381 37.4394 9.97424 37.9868C9.95973 38.1187 9.96263 38.3152 10.0613 38.3574C10.4877 38.5342 10.4239 37.9335 10.7488 37.9194C10.8271 37.9447 10.9084 37.9671 10.9896 37.984C11.3406 38.1637 11.1289 38.537 11.2855 38.7841C11.1956 39.149 11.1085 39.5139 11.0186 39.8817C10.6647 40.1821 10.2295 40.0585 9.82338 40.0978C9.48976 40.0305 9.307 39.789 9.12423 39.5448C8.98788 39.3455 8.85733 39.1378 8.91245 38.8767Z" fill="#9A9533"/>
<path d="M11.5873 35.7291C11.3929 35.541 11.2014 35.3557 11.0071 35.1676C9.82632 35.5775 8.61949 35.0048 7.42425 35.235C9.06335 34.8167 10.6995 34.4125 12.4025 34.7831C12.6113 34.828 12.9334 35.2294 12.8927 35.3866C12.6897 36.1558 11.9673 35.367 11.5873 35.7291Z" fill="#F0B741"/>
<path d="M4.91777 42.2137C4.7292 42.1856 4.54063 42.1603 4.35206 42.1322C4.32595 41.9666 4.30274 41.801 4.27663 41.6382C4.08807 41.102 4.34626 40.9195 4.86265 40.9392C5.24849 41.0908 5.68945 41.2227 5.60822 41.742C5.5589 42.0761 5.31231 42.2782 4.91777 42.2137Z" fill="#F7E4B8"/>
<path d="M4.87098 41.105C4.44743 41.0461 4.35459 41.3324 4.27916 41.6356C4.18343 41.7339 4.0993 41.8939 3.98616 41.9163C3.65544 41.9893 3.75117 41.7002 3.80629 41.6019C4.06158 41.1331 4.35459 40.6839 4.63599 40.2292C4.9319 40.3667 5.00153 40.7878 5.39897 40.7962C5.4831 41.3184 5.17269 41.2033 4.87098 41.105Z" fill="#DA9D30"/>
<path d="M9.02855 43.8713C9.06916 44.7444 8.44544 44.7219 7.82461 44.705C7.30532 44.7808 7.32853 44.4047 7.27631 44.0903C7.5084 43.1779 8.14083 43.2004 8.87189 43.4446C9.02855 43.5485 9.08077 43.6916 9.02855 43.8713Z" fill="#F3D297"/>
<path d="M5.57941 44.4004C5.46917 43.9737 5.52435 43.6346 6.05525 43.5392C6.91106 43.4129 6.96037 43.7834 6.61515 44.3926C6.26992 44.3954 5.92464 44.3976 5.57941 44.4004Z" fill="#F7E3B5"/>
<path d="M9.02835 43.8699C8.98774 43.7913 8.96163 43.7071 8.95003 43.6173C8.69763 42.9744 8.94422 42.8565 9.53314 43.0979C9.7101 43.2243 9.82324 43.3871 9.84065 43.6032C9.83775 43.7829 9.83195 43.9626 9.82905 44.1422C9.24013 44.9339 9.30105 43.9457 9.02835 43.8699Z" fill="#D89C31"/>
<path d="M9.90482 44.1938C10.2413 44.2331 10.7287 43.8401 10.868 44.2163C10.984 44.5307 10.7287 45.0163 10.1514 44.9799C9.98895 44.7412 9.80038 44.511 9.90482 44.1938Z" fill="#F6E0A8"/>
<path d="M7.50825 44.1592C7.55757 44.3726 7.57498 44.6027 7.82447 44.7038C7.30228 45.2035 7.04699 44.9508 6.89903 44.395C6.76849 44.1367 6.78589 43.8729 6.86712 43.6062C7.46474 43.376 7.29067 43.9795 7.50825 44.1592Z" fill="#D6992D"/>
<path d="M6.95741 43.5986C6.94 43.8653 6.9197 44.1292 6.90229 44.3959L6.76014 44.4071L6.61799 44.3959C6.70792 43.9411 6.60928 43.6015 6.05808 43.5425C6.15672 43.4611 6.25536 43.3797 6.35399 43.2983C6.69922 43.127 6.96031 43.1186 6.95741 43.5986Z" fill="#EFC674"/>
<path d="M6.95741 43.5986C6.82686 43.3685 6.60029 43.3119 6.3537 43.2923C6.25216 43.1968 6.15063 43.0986 6.04619 43.0031C5.96206 42.6522 5.75898 42.5792 5.44567 42.7589C5.26871 42.5764 5.09464 42.394 4.91768 42.2115C5.70677 41.8101 5.42826 41.4507 4.87126 41.1026C5.07143 41.0409 5.33833 41.083 5.39635 40.7938L5.48338 40.777C5.81991 40.4935 5.70967 40.2099 5.48628 39.9264C5.7938 39.7495 6.10131 39.5727 6.40882 39.3958C6.82077 39.5362 7.25013 39.6148 7.64467 39.8057C7.91737 39.9713 8.21908 40.1173 8.16106 40.5075C8.14075 40.8528 7.1805 40.6142 7.66498 41.2683C7.82453 41.4479 7.94058 41.6416 7.89706 41.8831C7.86515 41.9841 7.70559 42.0403 7.76941 42.1862C7.84484 42.1497 7.91447 42.102 7.98119 42.0403C8.10013 41.9139 8.23648 41.8157 8.38734 41.7371C8.78768 41.5911 9.15902 41.3609 9.60288 41.3413C9.75373 41.9111 10.3165 42.1413 10.6705 42.5456C10.2904 42.8066 9.9423 43.1126 9.52455 43.3232C9.15902 43.1042 8.96743 43.199 8.95003 43.6173C8.40753 43.6453 7.70262 43.2693 7.50825 44.1592C7.32259 43.9711 7.14018 43.7867 6.95741 43.5986Z" fill="#E6B459"/>
<path d="M5.44567 42.7589C5.55881 42.3855 5.60812 41.7904 6.17963 42.0711C6.61769 42.2844 6.21734 42.6999 6.04618 43.0059C5.84601 42.9245 5.64584 42.8431 5.44567 42.7589Z" fill="#F6DBA3"/>
<path d="M4.63371 44.1541C4.63661 43.7752 4.64241 43.399 4.64531 43.02C5.20522 43.4046 5.4431 43.7864 4.63371 44.1541Z" fill="#EDC472"/>
<path d="M8.08831 40.5353C7.89684 40.3275 7.70247 40.1198 7.511 39.9121C7.34855 39.7156 7.38046 39.5359 7.55742 39.3703C7.75469 39.3731 7.95196 39.3787 8.14924 39.3815C8.54668 39.6566 8.93542 39.5527 9.32126 39.359C9.50403 39.5527 9.68679 39.7464 9.86666 39.9401C10.0523 40.3135 9.79123 40.5353 9.56495 40.7683C9.55915 40.8778 9.55335 40.9844 9.54464 41.0939C9.20812 41.3943 8.73235 41.4954 8.43064 41.8435C8.29429 41.9698 8.15504 42.0933 8.01869 42.2196C7.83302 42.2 7.71408 42.1354 7.80401 41.9249C7.71118 41.7368 7.61834 41.5515 7.52551 41.3634C7.54001 40.976 7.84172 40.7739 8.08831 40.5353Z" fill="#DDAB4D"/>
<path d="M9.56814 40.7657C9.66967 40.4906 9.76831 40.2154 9.86985 39.9375C10.2354 39.5642 10.6241 39.6568 11.0216 39.8842C11.0825 39.946 11.1608 39.9768 11.2507 39.974C11.625 40.3277 11.5844 40.805 11.654 41.2485C11.4712 41.8184 11.1637 42.2591 10.7518 41.4591C10.4675 40.9173 10.1164 40.7516 9.56814 40.7657Z" fill="#ECCA7E"/>
<path d="M9.52455 43.3232C9.58547 42.6185 9.95452 42.3405 10.674 42.5455C10.7465 43.1574 10.4912 43.5252 9.84137 43.6038C9.73694 43.5111 9.63189 43.4158 9.52455 43.3232Z" fill="#F8DFB1"/>
<path d="M8.43709 41.841C8.33845 40.937 8.96508 41.0437 9.55109 41.0914C9.55399 41.1784 9.5714 41.2627 9.60911 41.3413C9.34512 41.7904 8.95928 41.9701 8.43709 41.841Z" fill="#F6E1B8"/>
<path d="M12.142 43.3029C11.7939 43.2889 11.3384 43.4292 11.3239 42.8678C11.3123 42.5337 11.6111 42.354 11.8751 42.4074C12.4089 42.5169 12.1333 42.9632 12.1623 43.2804L12.142 43.3029Z" fill="#F7E3B3"/>
<path d="M13.0405 39.3853C12.8636 39.5874 12.6982 39.798 12.5096 39.986C12.3936 40.1011 12.2195 40.2527 12.0832 40.0366C12.0339 39.958 12.1354 39.7867 12.1673 39.6604C12.6605 39.0175 13.1421 38.3578 14.3837 37.9115C13.7484 38.6077 13.3944 38.9951 13.0405 39.3853Z" fill="#658632"/>
<path d="M11.2856 38.7892C10.9259 38.6123 11.01 38.2811 10.9897 37.9891C11.4829 37.7954 11.9035 37.422 12.475 37.422C12.0805 37.8768 11.683 38.3344 11.2856 38.7892Z" fill="#DEA635"/>
<path d="M10.7521 37.9226C10.6476 38.31 10.6534 38.8293 10.1196 38.8686C9.7483 38.8967 9.55103 38.5626 9.56263 38.1865C9.57424 37.7766 9.42048 37.2432 9.90496 37.0608C10.372 36.8839 10.3778 37.5689 10.7347 37.6952C10.7492 37.771 10.755 37.8468 10.7521 37.9226Z" fill="#819E3E"/>
<path d="M9.32126 39.359C9.23133 39.7184 9.17977 40.1509 8.66049 40.1088C8.24563 40.0751 8.17825 39.7212 8.14924 39.3815C8.29719 39.0615 8.63728 39.0139 8.91288 38.8792C9.04923 39.0364 9.18491 39.1962 9.32126 39.359Z" fill="#F4DBA4"/>
<path d="M7.55773 39.3684C7.54323 39.5481 7.52582 39.7305 7.51132 39.9102C7.03554 39.9579 6.58298 39.9607 6.41182 39.3965C6.78895 39.1691 7.16029 38.835 7.55773 39.3684Z" fill="#F6E4B5"/>
<path d="M5.48962 39.9288C5.9828 39.9008 6.13366 40.1759 6.08724 40.5913C6.03502 41.0489 5.73331 40.8496 5.48672 40.7822C5.23433 40.4959 5.26334 40.2124 5.48962 39.9288Z" fill="#F7E3B4"/>
<path d="M8.089 40.5356C8.16152 40.9763 7.88302 41.1925 7.52909 41.3637C7.24189 41.3104 6.7168 41.4592 6.82124 40.9819C6.96629 40.3138 7.58421 40.4822 8.089 40.5356Z" fill="#F6DEAD"/>
<path d="M7.80756 41.9222C7.88008 42.0204 7.95261 42.1187 8.02224 42.2169C7.90909 42.5678 7.67411 42.7671 7.28537 42.697C7.05618 42.6577 7.00687 42.4471 7.03588 42.2646C7.11711 41.8071 7.46813 41.8632 7.80756 41.9222Z" fill="#FAF0DA"/>
</svg>
