<svg width="44" height="50" viewBox="0 0 44 50" fill="none" xmlns="http://www.w3.org/2000/svg">
<path d="M24.047 1.13034C25.5393 4.00768 28.0003 5.67282 30.8766 7.05325C38.5107 10.7071 42.1007 17.6524 43.6059 25.2836C44.9943 32.3281 42.6976 38.8895 36.9839 43.8245C36.6509 43.6951 36.3827 43.4967 36.2616 43.1429C36.3308 41.1542 37.6284 39.584 38.1171 37.729C39.1595 33.7862 39.2287 29.8304 38.1906 25.9263C37.3299 22.691 35.9156 19.6324 34.4363 17.2986C35.31 18.9293 36.3351 21.1682 37.3602 23.4027C39.2374 27.5052 38.7746 31.7846 38.6491 36.051C38.6361 36.4565 38.5064 36.9137 37.9787 37.0302C37.1483 36.2494 36.8325 35.1752 36.3481 34.196C36.214 32.3971 36.3048 30.6112 36.3567 29.4076C36.1102 31.4394 36.2659 34.058 36.387 36.6808C36.413 36.9051 36.3957 37.1251 36.3481 37.3408C35.3619 39.2432 34.6266 41.2664 33.5886 43.1429C33.1474 43.941 32.8273 44.8943 31.6595 44.9202C31.4216 44.8728 31.2443 44.739 31.1275 44.5277C30.7771 43.6174 31.2919 42.8755 31.586 42.0774C32.8489 38.622 33.4242 35.0631 33.1301 31.3877C32.9701 30.7363 32.9571 30.0676 32.9182 29.4033C32.5894 27.0091 32.0704 24.6451 31.6638 22.2596C31.7287 22.6651 31.8022 23.0663 31.6768 23.4761C31.3048 24.3777 30.7469 25.1499 30.0332 25.8142C28.4026 25.1197 29.938 23.778 29.3628 23.0619C29.1206 24.3647 29.3412 25.8271 29.7521 27.2981C29.9553 28.0229 30.2538 28.8253 29.7348 29.5845C27.2823 29.55 27.2823 29.55 26.6509 26.2369C26.3611 24.5545 26.1188 22.8721 26.3481 21.1595C26.4562 20.8058 27.105 20.8748 27.0185 20.4391C26.4735 17.6049 27.797 14.7794 27.0401 11.9495C27.0142 11.8589 27.4251 11.6993 27.0228 11.6691C26.8368 11.6561 26.5643 11.7683 26.4865 11.9624C26.214 12.6138 26.8282 12.9848 27.0358 13.4809C27.6327 14.9217 27.5678 16.121 25.9502 16.8284C25.669 20.1328 26.2227 23.3812 26.5297 26.6511C26.7201 28.6613 27.2694 30.7277 26.1318 32.6646C24.0254 32.5826 25.656 30.4775 24.5834 29.7872C24.5271 29.5457 24.3368 30.0202 24.5531 29.8304C24.7694 31.2324 25.3922 32.6689 24.1941 33.9458C24.0038 34.0364 23.8092 34.045 23.6102 33.976C23.1906 32.7207 22.0877 32.9493 21.1318 32.8544C20.3879 31.1849 21.3784 29.2437 20.3014 27.626C20.1673 27.4664 20.0548 27.2938 19.9597 27.1083C19.3844 23.0318 19.6007 19.0458 21.1015 15.1503C21.2573 14.7405 20.9242 15.2798 20.7772 15.228C20.5047 15.1331 20.9112 15.3013 20.6344 15.3919C19.2979 18.485 19.0557 21.867 18.0436 25.0377C17.4121 28.0013 16.5514 30.9175 16.24 33.9415C15.9588 34.8215 15.8593 35.7274 15.8464 36.6506C15.8377 37.2157 15.8637 37.9577 15.3187 38.1691C14.4536 38.5055 14.4104 39.0189 14.8083 39.6142C15.3014 40.3475 15.5436 41.5123 16.8801 41.1499C18.2252 42.7158 18.195 44.9892 19.6656 46.4905C20.0159 47.2023 21.0929 47.5862 20.6431 48.656C20.2235 49.0529 19.778 49.3376 19.1768 49.0356C18.4026 48.9062 17.6284 48.6948 16.8498 48.6646C8.79618 48.3541 2.29965 42.5778 0.595494 34.6101C-1.7834 23.4933 3.18632 15.6723 11.56 9.28783C13.7789 7.5968 16.028 5.89714 18.7054 4.93515C19.8645 5.22418 20.8507 4.35278 21.9925 4.53828C20.3706 4.33553 20.3706 4.33553 20.1067 3.26569C20.5436 2.41155 20.9804 1.56172 21.4173 0.70758C22.3126 0.72915 23.2512 0.474632 24.047 1.13034Z" fill="#F9C794"/>
<path d="M31.3394 44.6959C31.4951 44.7002 31.6552 44.7045 31.8109 44.7045C32.9182 44.9116 32.9657 43.9108 33.3507 43.3284C34.1898 42.0601 34.4623 40.4726 35.5825 39.3554C36.0972 39.3554 36.5687 39.4977 36.9752 39.8169C37.3602 40.5374 36.9406 41.137 36.6595 41.7495C36.413 42.2888 35.9458 42.8021 36.5297 43.4018C36.6768 43.5398 36.8282 43.6822 36.9752 43.8202C34.259 46.6932 31.041 48.5266 26.9925 48.6862C26.5946 48.7035 26.201 48.945 25.8074 49.0831C24.0297 49.1478 22.2088 49.6655 20.5479 48.5697C20.5825 47.6466 19.4406 47.6164 19.2503 46.8658C19.4233 46.6458 19.4709 46.3524 19.6483 46.1367C20.297 44.7261 19.6353 43.35 19.5791 41.9566C19.5401 40.9687 18.1171 39.5754 20.2927 39.1224C20.0851 38.622 20.1284 38.1561 20.5047 37.742C22.105 38.2208 21.2486 39.6487 21.6119 40.6064C21.7114 40.8738 21.5211 40.6064 21.7114 40.7789C21.9493 40.9989 21.9969 40.6236 22.118 40.4813C22.8792 39.2346 22.4121 37.8283 22.663 36.5212C22.7624 36.0725 22.9225 35.6627 23.3983 35.4815C24.7218 35.5462 24.3758 36.7282 24.7175 37.4443C24.7823 37.6384 24.8256 37.8369 24.8645 38.0353C25.0202 38.9326 24.951 39.8471 24.9683 40.753C24.9683 40.8091 25.0419 40.8609 25.0808 40.917C25.1327 40.8781 25.1803 40.8393 25.2365 40.7789C25.6906 38.8032 26.0194 36.8318 26.0194 34.8215C26.0194 33.7344 26.1275 32.6861 26.6595 31.7155C27.8143 31.7716 27.2088 32.6905 27.3861 33.1866C27.4337 32.5395 27.637 31.8751 28.3723 31.7759C29.2028 31.6638 29.0297 32.5222 29.259 32.9709C29.4839 33.4109 29.8732 33.7517 30.0029 34.2478C30.4441 36.9223 28.9173 39.3338 28.9865 41.9566C28.5669 43.1041 28.1041 44.2386 27.4597 45.2912C28.0868 44.3681 28.4372 43.3198 28.913 42.3233C29.0514 39.6271 30.1759 37.0863 30.1846 34.3685C31.5254 32.7552 31.8844 32.8371 32.9701 35.0113C33.4242 38.3589 32.1872 41.3311 30.8983 44.299C30.8334 44.45 30.5739 44.5837 30.7685 44.8124C30.9285 44.6657 31.1188 44.6096 31.3394 44.6959Z" fill="#F9C692"/>
<path d="M20.5522 48.5697C22.2953 48.8415 24.1465 48.0089 25.8118 49.0831C25.7988 49.4325 25.855 49.989 25.4744 49.9933C23.541 50.0192 21.6033 49.9674 19.6699 49.8812C19.246 49.8639 19.2374 49.3851 19.1898 49.0356C19.6439 48.8803 20.0981 48.725 20.5522 48.5697Z" fill="#F4B579"/>
<path d="M20.1067 3.26569C20.1932 4.3269 21.054 3.97748 21.56 3.91277C22.0228 3.85669 22.3559 2.94215 22.9657 3.64531C23.0825 3.77904 22.996 4.33553 22.8749 4.38729C22.2261 4.65475 21.7936 5.93597 21.1015 5.30614C20.4311 4.69789 20.4571 5.27163 20.2884 5.49164C19.1855 6.90227 19.0168 5.74616 18.714 4.93947C19.1725 4.37867 19.6396 3.82218 20.1067 3.26569Z" fill="#FBCD9D"/>
<path d="M24.047 1.13034C23.169 1.00524 22.1915 1.50133 21.4216 0.70758C22.477 -0.26735 23.3853 -0.332058 24.047 1.13034Z" fill="#F3B57C"/>
<path d="M16.6552 14.939C15.4311 16.7637 14.6483 18.8344 12.8403 20.5729C14.4147 20.9137 13.8524 19.3089 15.1543 19.6195C14.0903 21.9145 14.2676 24.4122 13.874 26.8323C13.7356 27.6864 13.6578 28.5276 13.6318 29.3817C13.6145 30.0202 13.7486 30.7535 13.0349 31.0943C12.3429 31.4265 12.2953 30.2833 11.5903 30.3826C11.5254 31.2798 11.201 32.1383 11.4043 33.096C11.5644 33.8509 10.9977 33.6093 10.5998 33.4842C9.45362 31.09 10.6993 28.7433 10.7685 26.375C10.8031 25.2361 11.2054 24.1361 11.547 23.0447C12.5289 19.7748 13.4372 16.4661 15.4138 13.606C15.7425 13.1315 15.7772 12.3118 16.6422 12.3377C16.9709 11.8071 17.2434 11.2377 17.6413 10.7589C18.0609 10.2541 18.342 10.4612 18.3939 11.0565C18.5496 12.6871 17.2867 13.6707 16.6552 14.939Z" fill="#FACC9E"/>
<path d="M20.1197 27.0178C20.2668 27.0178 20.4095 27.0177 20.5566 27.0221C21.3048 29.9339 20.9675 32.9062 21.054 35.8482C20.5609 37.1122 19.8861 37.66 18.5799 36.258C18.6751 38.0871 18.8567 39.6789 19.3671 41.3268C19.7304 42.4915 21.3784 44.2602 18.8308 45.1791C16.4822 41.068 15.5349 36.6894 16.3784 32.0002C16.6682 30.3912 16.932 28.7692 17.3818 27.1946C18.7356 26.8625 19.246 27.3456 18.8611 28.7002C19.631 28.4154 18.1733 26.4311 20.1197 27.0178Z" fill="#F9C793"/>
<path d="M10.1759 27.0221C10.124 26.1118 10.0851 24.8177 9.22439 24.7055C8.29445 24.5847 7.55484 25.551 7.43805 26.6942C7.40345 27.0436 7.07473 27.2895 6.43027 27.2248C6.80657 25.6977 7.17421 24.1879 7.56781 22.5874C6.54272 22.9455 7.04013 24.4079 5.85933 24.4251C5.16729 23.6918 5.60847 22.9584 5.88961 22.2509C7.01418 19.3909 8.64913 16.8112 10.4138 14.3135C10.8507 13.6923 11.3438 13.0107 12.304 13.1962C12.9571 13.7138 9.99428 15.2409 12.9009 15.3143C13.1647 15.3229 12.4208 17.3202 11.7547 17.9587C10.7512 18.9207 10.8853 17.1433 10.2019 16.9751C9.18978 18.1528 8.41124 19.4469 7.87058 21.1466C9.13788 20.9352 9.432 19.8266 10.7426 19.3995C9.1076 21.3882 9.54013 23.1396 10.5825 24.8565C11.1145 25.702 11.4432 26.513 10.1759 27.0221Z" fill="#F9C28D"/>
<path d="M27.0271 31.75C26.2486 34.2133 26.7071 36.8059 26.201 39.3036C26.0064 40.2656 26.227 41.3742 24.8861 41.6719C24.3195 40.4036 24.9121 39.131 24.8688 37.8628C25.5003 36.1717 24.1509 34.1529 25.7469 32.6214C26.6206 30.7924 26.2875 28.8425 26.0453 27.0005C25.5609 23.2906 25.2105 19.5936 25.336 15.819C25.4917 15.9096 25.656 15.9527 25.682 16.0347C25.7425 16.2331 25.7382 16.4531 25.7598 16.6645C25.9934 16.8802 26.1491 17.139 26.2443 17.441C26.6119 18.403 26.573 19.4383 26.7979 20.4305C26.8195 20.6419 26.7547 20.8274 26.6033 20.9784C26.7503 22.7039 26.8974 24.4338 27.0444 26.1593C26.919 28.0229 28.2598 29.8908 27.0271 31.75Z" fill="#F7BB81"/>
<path d="M36.5384 43.4018C35.5609 43.6088 35.5263 43.5959 35.6604 43.2378C36.0799 42.1335 36.5254 41.0421 36.9579 39.9464C36.6811 38.7773 37.0834 37.8067 37.8619 36.9569C38.528 32.5567 38.9 28.148 37.118 23.9204C35.9545 21.1639 34.8948 18.3426 33.2858 15.7715C35.163 17.0312 36.028 19.1018 36.8498 20.9827C38.2685 24.2353 39.5834 27.6821 39.4796 31.2712C39.3758 34.8129 38.9995 38.4236 37.1656 41.6288C36.8325 42.2025 36.4865 42.7158 36.5384 43.4018Z" fill="#F5B070"/>
<path d="M20.1197 27.0178C18.7227 27.3887 19.6007 28.5449 19.3801 29.3084C19.272 29.6837 19.5098 30.2445 18.9259 30.2704C18.3118 30.3006 18.3074 29.6708 18.4199 29.3127C18.7054 28.4154 18.4285 27.695 17.9355 26.9919C17.6846 26.6985 17.637 26.3664 17.7322 26.004C18.4242 22.2553 19.3541 18.5626 20.5479 14.939C20.855 14.5119 21.1188 13.7009 21.7287 14.0762C22.3515 14.4644 22.278 15.1245 21.5211 15.5904C20.7469 16.0692 20.842 17.0269 20.7425 17.73C20.336 20.6721 20.1067 23.64 20.2841 26.6209C20.297 26.7546 20.1803 26.8883 20.1197 27.0178Z" fill="#FACC9C"/>
<path d="M32.663 35.2141C32.0055 34.7741 32.0704 32.5265 30.5003 34.3513C30.2192 34.1097 30.0375 33.7862 30.0246 33.4368C29.9251 30.8657 29.7996 28.2946 30.0635 25.7279C29.9121 24.6581 30.7815 24.2051 31.3611 23.571C31.4303 23.6443 31.4995 23.7177 31.5687 23.7953C31.9623 24.2741 31.0323 25.2016 32.131 25.4475C32.81 26.6468 32.7668 28.0272 33.0868 29.317C33.0912 29.5586 33.0912 29.8002 33.0955 30.0418C32.9441 31.763 33.8481 33.5748 32.663 35.2141Z" fill="#FBCD9C"/>
<path d="M17.9614 26.155C17.9528 26.4354 17.9441 26.7115 17.9398 26.9919C16.0626 33.2081 15.9329 39.2993 19.2417 45.1445C19.6958 45.4638 19.9683 45.8477 19.6958 46.4214C19.5488 46.5681 19.4017 46.7148 19.2547 46.8615C17.8663 45.2222 17.477 43.13 16.6768 41.2233C14.8775 39.131 15.7166 36.698 15.7772 34.3642C15.7469 31.0857 16.9104 28.0229 17.5332 24.8651C18.6102 24.9859 18.0998 25.633 17.9614 26.155Z" fill="#F5AD6F"/>
<path d="M30.0635 25.7236C30.8896 28.5621 30.3403 31.474 30.5003 34.347C30.5176 37.2028 29.6699 39.8773 28.7702 42.5433C28.5021 39.6099 29.9986 36.8533 29.6266 33.9113C29.073 32.4791 28.6361 31.0469 29.6223 29.6104C29.2374 27.3068 28.6015 25.0248 29.0081 22.5486C30.2797 23.351 29.0341 24.9342 30.0635 25.7236Z" fill="#F7BE85"/>
<path d="M23.1431 36.4953C22.8316 37.9318 23.9389 39.653 22.278 40.8221C20.5825 40.175 21.6422 38.6134 21.2486 37.522C20.7382 36.1157 20.682 34.5152 21.4216 33.0571C22.1699 32.8199 21.4865 31.3057 22.49 31.5947C23.4242 31.8665 23.5799 32.9622 23.5886 33.9156C23.5799 34.0062 23.5756 34.1011 23.5669 34.1917C23.4977 34.9725 22.5808 35.598 23.1431 36.4953Z" fill="#F9CB9B"/>
<path d="M32.663 35.2141C32.6716 33.3419 32.6803 31.4696 32.6889 29.5974C33.8351 29.8951 33.1041 30.8183 33.2945 31.4351C33.342 31.5904 33.3766 31.8104 33.2252 31.9744C33.4458 31.8104 33.2685 31.4481 33.5496 31.3143C34.5055 33.6438 33.541 35.9345 33.2469 38.1863C32.9571 40.4036 32.0055 42.5304 31.3438 44.6959C30.7555 45.0755 30.7079 46.003 29.5315 46.1842C31.4995 42.6641 32.823 39.1267 32.663 35.2141Z" fill="#F5B375"/>
<path d="M21.4173 33.0571C21.3654 35.6843 21.4995 38.2898 22.2737 40.8221C22.1699 41.3268 22.5462 41.9696 21.8282 42.3276C20.3836 41.0809 21.5384 39.1354 20.5566 37.7894C20.1543 37.371 20.2495 36.9439 20.5349 36.5168C20.5393 33.3505 20.5479 30.1841 20.5522 27.0221C22.1699 28.8425 21.1059 31.0469 21.4173 33.0571Z" fill="#F4B57A"/>
<path d="M26.6033 20.9784C26.5989 20.836 26.5989 20.6936 26.6033 20.5513C26.1534 19.5893 26.7071 18.3469 25.7469 17.5273C25.7512 17.2426 25.7555 16.9535 25.7598 16.6688C27.5029 15.6939 27.2175 14.4515 26.2529 13.097C25.9156 12.6224 25.0808 12.3032 25.6128 11.5008C26.0713 10.8106 26.8239 11.4491 27.4121 11.1816C27.6759 11.0608 28.1301 11.462 28.009 11.5871C26.6465 12.9891 28.5972 14.6672 27.5029 16.2116C26.6725 17.3806 28.0652 18.8991 27.5635 20.3097C27.4943 20.5082 28.5064 20.7023 27.983 21.2199C27.5419 21.6556 27.0574 21.1293 26.6033 20.9784Z" fill="#F9CD9F"/>
<path d="M35.6906 12.7777C40.2278 17.6351 42.105 23.3984 41.573 29.9814C41.3221 23.6961 39.406 18.0363 35.2451 13.2221C35.15 12.8338 35.2754 12.6613 35.6906 12.7777Z" fill="#F4AA67"/>
<path d="M7.59376 16.2374C9.15518 15.4998 9.44497 13.4852 11.0713 12.8122C11.3135 13.1444 11.2919 13.4679 11.041 13.7872C8.31176 17.3288 6.23996 21.2113 4.93805 25.495C4.79965 25.6632 4.62231 25.7754 4.4147 25.8401C4.31522 25.8012 4.21574 25.7624 4.11625 25.7193C4.54446 23.8428 4.97266 21.9705 5.40086 20.094C5.31868 18.3512 6.4692 17.303 7.59376 16.2374Z" fill="#F9C088"/>
<path d="M10.1759 27.0221C10.8637 26.4052 10.5003 25.5856 10.5912 24.8565C10.4441 23.7263 11.3784 22.9153 11.4908 21.8627C12.304 21.8152 12.1353 22.2596 11.9277 22.7298C11.4951 26.3189 10.31 29.8131 10.5998 33.4885C10.6085 33.9156 10.6171 34.3384 10.6301 34.7654C10.7555 35.5333 11.3005 36.3874 10.2019 36.9137C9.4493 33.6136 9.73044 30.3178 10.1759 27.0221Z" fill="#F6AC6C"/>
<path d="M29.6223 29.6104C29.6223 31.0426 29.6266 32.4791 29.6266 33.9113C28.3637 33.8379 28.6967 32.7595 28.4891 31.7846C28.022 32.4963 27.6889 33.0097 27.1396 33.8509C27.0877 32.9234 27.0574 32.3367 27.0271 31.7457C27.0315 29.8821 27.0401 28.0186 27.0444 26.155C27.0964 26.2024 27.1958 26.2542 27.1958 26.3017C27.2348 27.9754 27.797 29.2523 29.6223 29.6104Z" fill="#FBD0A3"/>
<path d="M4.53148 25.7193C5.77715 21.4184 7.8403 17.5316 10.496 13.9338C10.7426 13.6017 10.881 13.1875 11.0713 12.8122L11.0583 12.7993C11.374 12.2644 11.7547 11.8977 12.4164 12.2989C12.6067 12.6267 12.5765 12.933 12.3126 13.2091C12.3126 13.2091 12.3126 13.1919 12.3083 13.1919C9.19411 16.3841 6.97525 20.0854 5.86366 24.4208C5.84636 24.5632 5.84203 24.7012 5.84636 24.8436C5.30138 25.6632 5.87231 26.9358 4.76504 27.5311C3.93459 27.0264 4.09895 26.3879 4.53148 25.7193Z" fill="#FCE3C1"/>
<path d="M7.14826 42.9704C6.41729 41.2103 4.62231 40.1189 4.14653 38.2036C4.32387 37.9879 4.40605 37.6643 4.77369 37.6816C5.30138 37.8541 5.48304 38.2898 5.60414 38.7687C5.63875 38.9024 5.68632 39.0318 5.75553 39.1526C5.81608 39.0189 5.69065 38.911 5.70362 38.7687C5.79445 38.4667 5.99774 38.3028 6.28753 38.2338C8.29013 39.9377 8.38529 42.6598 9.74774 44.7045C9.4666 44.5579 9.18546 44.4112 8.90432 44.2645C7.98736 44.2688 7.59809 43.5786 7.14826 42.9704Z" fill="#F7BA80"/>
<path d="M25.7469 32.6258C25.124 34.3125 25.9761 36.12 25.3187 37.8024C25.0289 38.0526 24.7391 38.0526 24.4493 37.7981C24.432 36.491 23.554 35.2788 24.0168 33.9156C24.8299 32.8932 24.1119 31.7026 24.3844 30.6328C24.4839 30.2402 24.1595 29.4421 24.9727 29.5327C25.6733 29.6104 25.8853 30.1884 25.5566 30.8183C25.1932 31.4869 25.4398 32.0477 25.7469 32.6258Z" fill="#F9D5AB"/>
<path d="M15.7728 34.3685C15.7166 36.7023 16.1188 38.9757 16.6725 41.2276C15.7728 41.7193 15.2451 41.5597 14.6137 40.5977C14.0514 39.7436 14.0341 38.7385 13.7183 37.5651C15.2668 38.3157 15.5047 37.6212 15.3879 36.3702C15.3273 35.7058 15.1197 34.9337 15.7728 34.3685Z" fill="#FBCEA0"/>
<path d="M10.1976 36.9094C10.9069 36.3055 10.483 35.4772 10.6258 34.7611C11.3351 37.5737 11.6682 40.5028 13.2339 43.048C13.8567 44.0661 14.5098 45.0669 15.2495 46.236C13.1777 45.2395 11.4173 41.8833 10.1976 36.9094Z" fill="#F7B779"/>
<path d="M6.28321 38.2294C6.14048 38.3718 5.99774 38.5098 5.85933 38.6522C3.5583 36.0553 3.06954 30.0288 4.94238 27.3801C5.05916 26.4699 5.19324 25.564 5.85068 24.8479C6.08857 26.3017 5.6647 27.7166 5.35328 29.0755C4.87317 31.1634 4.97698 33.1693 5.42681 35.2054C5.87663 36.0164 5.95449 36.9482 6.26591 37.8067C6.27023 37.949 6.27456 38.0871 6.28321 38.2294Z" fill="#F4AB6A"/>
<path d="M16.6552 14.939C16.2875 13.2264 17.9874 12.4369 18.3939 11.0694C19.9078 11.7985 19.8342 9.8702 21.1448 9.47764C20.2451 12.1005 18.3637 13.6578 16.8887 15.4868C16.8109 15.3013 16.733 15.1202 16.6552 14.939Z" fill="#F6BC84"/>
<path d="M11.9277 22.7255C11.8931 22.3804 11.8412 22.0439 11.4908 21.8584C12.3386 18.3987 13.8654 15.2453 15.8247 12.286C16.1318 11.8201 16.4346 11.3412 16.6465 12.3377C14.1552 15.3876 13.2296 19.145 11.9277 22.7255Z" fill="#F7B67A"/>
<path d="M17.9614 26.155C17.9355 25.6848 18.0393 25.1757 17.5289 24.8651C18.2685 21.7419 19.0038 18.6187 19.7477 15.4955C19.8429 15.09 20.1889 14.9907 20.5522 14.9347C20.7642 16.5567 19.9467 17.9544 19.5747 19.4513C19.0211 21.6858 18.4977 23.9247 17.9614 26.155Z" fill="#F7BD86"/>
<path d="M37.8619 36.9569C37.8446 38.0396 37.3991 38.993 36.9579 39.9464C36.4822 39.9464 35.9804 40.0197 35.6777 39.5107C35.1586 38.6608 35.8464 38.0569 36.1232 37.3667C36.1232 37.2157 36.1188 37.069 36.1188 36.918C35.855 35.9862 36.0237 35.1364 36.5816 34.3556C37.7019 34.8819 37.9528 35.8353 37.8619 36.9569Z" fill="#FBCE9E"/>
<path d="M2.79705 33.9242C1.20536 30.2963 1.94065 26.7158 3.01331 23.1439C3.2339 24.4424 2.54619 25.7063 2.83598 27.0091C2.98736 27.1989 3.11712 27.406 3.22525 27.626C3.51937 29.6621 3.48044 31.7069 3.38961 33.756C3.2512 34.0105 3.05224 34.0666 2.79705 33.9242Z" fill="#F5AC6C"/>
<path d="M32.6889 29.1919C32.3905 27.8935 32.0964 26.5907 31.7979 25.2922C31.2875 24.8091 31.8758 24.0541 31.3654 23.571H31.3611C31.3611 22.8678 31.3611 22.1647 31.3611 20.9827C32.9095 23.8428 32.8619 26.6079 33.5064 29.1919C33.2339 29.4292 32.9614 29.4162 32.6889 29.1919Z" fill="#F5B375"/>
<path d="M36.1188 37.371C35.9718 38.0871 35.8247 38.7989 35.6733 39.515C34.951 40.9644 34.2849 42.4441 33.4804 43.8504C33.1647 44.3983 32.8965 45.4724 31.8066 44.7088C33.3507 43.2594 33.8957 41.2448 34.7694 39.4244C35.137 38.6651 35.2495 37.7808 36.1188 37.371Z" fill="#F4B476"/>
<path d="M7.16124 29.4421C7.93546 31.8061 6.66816 34.2046 7.33857 36.5859C6.39134 34.2391 6.22698 31.8622 7.16124 29.4421Z" fill="#FAD8B1"/>
<path d="M12.3126 13.2091C12.3299 12.9201 12.3472 12.6267 12.3688 12.3377C12.4337 11.7985 12.823 11.5138 13.2209 11.2291C13.9822 10.6381 14.4839 9.7451 15.4095 9.34391C16.3784 8.48976 17.3472 7.63562 18.3161 6.77717C18.4372 6.9109 18.5583 7.04031 18.6794 7.17404C16.56 9.18861 14.4363 11.1989 12.3126 13.2091Z" fill="#F5BA83"/>
<path d="M36.5773 34.3556C36.4216 35.2098 36.2702 36.0639 36.1145 36.9223C34.9813 35.1968 36.3913 33.3807 35.9329 31.543C35.7296 30.732 35.9415 29.4551 36.573 28.4197C36.5773 30.3998 36.5773 32.3756 36.5773 34.3556Z" fill="#F4B476"/>
<path d="M35.6906 12.7777C35.5436 12.9244 35.3922 13.0754 35.2451 13.2221C35.1067 13.2134 34.9726 13.2091 34.8342 13.2048C34.1249 13.0452 33.6967 12.6052 33.5453 11.8977C32.8187 11.0436 32.092 10.1894 31.3654 9.33528L31.3697 9.32665C33.1344 10.0729 34.3628 11.4879 35.6906 12.7777Z" fill="#F4B57C"/>
<path d="M7.59376 16.2374C7.05311 17.6308 5.78148 18.6144 5.40518 20.0983C4.12058 19.6066 5.19757 18.9638 5.39221 18.5324C5.84203 17.5402 6.10155 16.2719 7.59376 16.2374Z" fill="#FBD7AC"/>
<path d="M2.79705 33.9242C2.94843 33.9199 3.10414 33.9199 3.25553 33.9156C4.41902 34.9639 4.54013 36.3615 4.57041 37.7937C4.42767 37.9318 4.28494 38.0655 4.14221 38.2036C3.75726 36.7541 2.81435 35.4858 2.79705 33.9242Z" fill="#F2A864"/>
<path d="M2.83165 27.4578C2.83165 27.3068 2.83598 27.1601 2.83598 27.0091C3.77888 27.0911 3.54532 26.0083 4.11625 25.7236C4.4839 26.4526 4.36279 27.255 4.3974 28.0229C4.41902 28.5103 4.21573 29.1057 3.61452 29.1402C2.80138 29.1876 3.11279 28.4715 3.04359 28.0488C3.00899 27.8288 2.93978 27.6433 2.83165 27.4578Z" fill="#F9C088"/>
<path d="M9.74342 44.7002C10.9329 44.9591 11.746 45.714 13.009 46.9003C11.0323 46.6587 10.4355 45.6148 9.74342 44.7002Z" fill="#F7BA80"/>
<path d="M13.2079 11.5353C12.9268 11.8028 12.65 12.0703 12.3688 12.3377C11.932 12.493 11.4951 12.644 11.0583 12.7993C11.2789 11.8632 11.5644 10.9918 12.8057 11.0953C13.0047 11.1816 13.1387 11.3283 13.2079 11.5353Z" fill="#F9C088"/>
<path d="M13.2079 11.5353C13.0739 11.3887 12.9398 11.242 12.8057 11.0953C13.8178 10.7243 14.0341 9.17567 15.4138 9.34391C14.8256 10.2282 14.0644 10.9271 13.2079 11.5353Z" fill="#FCE3C1"/>
<path d="M33.5453 11.8977C34.1076 12.204 34.5488 12.6311 34.8342 13.2048C34.7737 13.537 34.6872 14.0633 34.2633 13.6534C33.8178 13.2221 32.6889 12.9115 33.5453 11.8977Z" fill="#FBD4A9"/>
<path d="M24.0124 33.9156C24.4493 35.1752 24.5098 36.4823 24.445 37.7981C23.6232 37.289 24.4104 36.1286 23.5669 35.6325C23.0782 35.0588 23.2209 34.4893 23.5799 33.9242L23.5886 33.9156C23.727 33.9156 23.8697 33.9156 24.0124 33.9156Z" fill="#F9CB9B"/>
<path d="M11.3005 43.8504C10.1716 43.419 9.79099 42.7935 9.4839 41.6374C10.5652 42.099 11.0194 42.6857 11.3005 43.8504Z" fill="#FBDAAF"/>
<path d="M32.6889 29.1919C32.9614 29.1919 33.2339 29.1919 33.5107 29.1919C33.5237 29.8994 33.5367 30.6069 33.554 31.3143C33.528 31.7198 33.5021 32.1297 33.4675 32.7293C32.6976 31.6638 33.5713 30.4257 32.6976 29.6017C32.6803 29.4637 32.6803 29.3257 32.6889 29.1919Z" fill="#F09F56"/>
<path d="M39.6872 38.9671C39.5704 38.8636 39.3239 38.7471 39.3195 38.6177C39.3022 38.1691 39.5228 37.7894 39.9251 37.5867C39.9986 37.5479 40.31 37.7722 40.3446 37.9145C40.4701 38.4063 40.1803 38.7169 39.6872 38.9671Z" fill="#FAD4AB"/>
<path d="M24.6093 15.9872C24.9337 16.7163 25.0462 17.2684 24.432 17.8336C23.8524 17.2037 23.9043 16.6947 24.6093 15.9872Z" fill="#F9D4AC"/>
<path d="M7.14826 42.9704C7.73217 43.4018 8.31608 43.8331 8.89999 44.2602C7.51158 44.9116 7.42075 43.8159 7.14826 42.9704Z" fill="#FBDDB6"/>
<path d="M6.26591 37.8067C5.66037 37.0431 5.44411 36.1588 5.42681 35.2054C6.24861 35.9 6.33511 36.8274 6.26591 37.8067Z" fill="#F7BA80"/>
<path d="M31.3611 9.33528C30.669 9.3094 30.2019 8.95566 29.8083 8.17486C30.695 8.23094 31.0496 8.75722 31.3697 9.33097C31.3654 9.33097 31.3611 9.33528 31.3611 9.33528Z" fill="#F4B57C"/>
<path d="M21.6292 13.0711C21.5514 12.7001 21.4519 12.506 21.4951 12.3507C21.547 12.1609 21.6768 11.9279 21.8412 11.8503C22.1266 11.7122 22.2131 11.9538 22.1353 12.1652C22.0358 12.424 21.8671 12.6526 21.6292 13.0711Z" fill="#FACC9C"/>
<path d="M20.5393 36.5168C20.5479 36.9396 20.5522 37.3667 20.5609 37.7894C20.4138 38.5702 21.0496 39.7264 19.5618 39.8687C19.8083 41.0205 19.9337 42.2154 20.3403 43.3068C20.7166 44.312 20.2365 45.2653 20.4701 46.2532C20.5912 46.7709 19.9986 46.4862 19.6958 46.4258C19.5445 45.9987 19.3931 45.5716 19.246 45.1489C19.9078 44.0531 19.7564 42.9919 19.1725 41.9135C18.0003 39.7522 17.9571 37.4228 18.0263 35.0933C19.4796 34.7741 18.7486 37.6298 20.5393 36.5168Z" fill="#FBD09F"/>
<path d="M28.7702 42.5433C28.7832 44.3335 28.1777 45.783 26.4951 46.6415C26.9406 45.1014 27.6889 43.7339 28.7702 42.5433Z" fill="#F7BE85"/>
<path d="M24.445 37.8024C24.7348 37.8024 25.0246 37.8024 25.3143 37.8067C25.2105 39.1008 24.6569 40.3475 24.8861 41.6805C23.8784 40.4813 24.7304 39.075 24.445 37.8024Z" fill="#F9CB9B"/>
<path d="M23.5756 33.9242C23.5713 34.4937 23.5669 35.0631 23.5626 35.6325C23.2209 35.8223 23.1517 36.1459 23.1431 36.4953C22.4251 35.4945 22.4683 34.6188 23.5756 33.9242Z" fill="#FBDAB3"/>
<path d="M25.7469 17.5273C27.092 18.2391 26.4562 19.503 26.6033 20.5513C25.9112 19.6583 26.1967 18.4893 25.7469 17.5273Z" fill="#F9C794"/>
<path d="M31.3611 23.571C31.9796 24.0239 31.7417 24.6969 31.7936 25.2922C30.5263 24.9989 31.733 24.0886 31.3611 23.571Z" fill="#F9C794"/>
<path d="M2.83165 27.4578C3.44584 27.7295 3.02629 28.5449 3.63615 28.9072C4.50553 27.9409 3.96487 26.7719 4.11625 25.7236C4.25466 25.7236 4.39307 25.7236 4.52715 25.7193C4.62663 26.2844 4.32387 26.9444 4.93373 27.3844C4.47958 31.2022 3.79618 35.0415 5.85068 38.6522C6.11885 39.2173 6.38269 39.7867 6.75899 40.5891C5.33598 39.9593 5.49169 38.4581 4.56608 37.7937C4.12923 36.4996 3.68805 35.2098 3.2512 33.9156C2.40778 31.8104 2.97439 29.6104 2.83165 27.4578Z" fill="#F9C794"/>
</svg>
