<svg width="31" height="26" viewBox="0 0 31 26" fill="none" xmlns="http://www.w3.org/2000/svg">
<path d="M28.474 1.2289C32.0611 6.02202 31.7914 14.5087 27.8967 19.3911C21.8773 26.9285 11.0451 28.2113 3.51134 22.2434C2.21943 21.2237 1.0269 20.0677 0.880201 18.268C0.70984 17.3939 0.449565 16.5293 0.449565 15.627C0.50162 15.3733 0.60573 15.143 0.766627 14.9363C0.979579 14.7671 1.21146 14.7342 1.467 14.8423C2.2289 16.6421 1.98282 18.8836 3.84733 20.204C8.57013 25.4858 18.4416 25.1475 23.3727 21.3788C29.094 17.0086 30.878 9.68734 27.6459 2.90179C27.3762 2.3426 26.955 1.82569 27.3856 1.16781C27.7595 1.02214 28.1191 1.02684 28.474 1.2289Z" fill="#D2B99F"/>
<path d="M18.0157 2.55406C19.7998 1.59543 21.5034 0.430047 23.6282 0.326666C24.3096 1.03154 25.7104 -0.34531 26.1079 1.16781C24.816 2.44128 22.9657 1.70351 21.4656 2.49297C18.8865 3.84632 16.4304 5.36884 13.9933 6.94305C12.6304 7.82179 11.3669 8.95428 9.63489 9.13754C9.27051 9.07176 8.98184 8.90259 8.8446 8.54075C9.61596 6.44964 12.001 6.28987 13.3166 4.84723C13.5579 4.64047 13.8182 4.44781 14.088 4.27864C14.8073 3.87451 15.5644 3.53618 16.2979 3.16024C16.8563 2.91119 17.3816 2.57755 18.0157 2.55406Z" fill="#D4BEA3"/>
<path d="M26.0227 1.19601C25.4075 0.41595 24.2103 1.2054 23.6329 0.321967C24.5889 0.110506 25.54 -0.270124 26.5007 0.298471C26.6427 0.514631 26.742 0.744889 26.7468 1.00804C26.6947 1.17251 26.5906 1.30409 26.4439 1.39807C26.2546 1.42156 26.1126 1.35578 26.0227 1.19601Z" fill="#CEB68C"/>
<path d="M26.4534 1.20071C26.4676 0.899961 26.4818 0.603915 26.5007 0.30317C27.1585 0.613313 27.8163 0.918757 28.474 1.2289C28.1239 1.243 27.7737 1.26179 27.4235 1.27589C27.0733 1.55314 26.7515 1.51555 26.4534 1.20071Z" fill="#D4BEA3"/>
<path d="M26.4534 1.20071C26.7752 1.2289 27.1017 1.2524 27.4235 1.28059C33.0218 9.75313 28.9615 21.9474 18.2429 24.358C12.7393 25.5986 7.46751 25.0112 3.35044 20.5095C3.53027 20.1664 3.38357 19.673 3.8426 19.4568C4.05082 19.424 4.24484 19.4615 4.4294 19.5602C4.97361 20.063 5.66925 20.1617 6.36963 20.2651C8.00226 20.7397 9.57337 21.4681 11.3101 21.3741C10.6334 20.8901 9.56391 20.9747 9.30837 19.9456C9.43141 19.2877 9.90936 19.048 10.5009 18.9399C12.5831 19.9925 15.2 19.6401 17.0267 21.3741C16.3169 22.1682 16.3169 22.1682 14.1731 22.1682C19.4023 22.2058 24.6409 18.611 25.8571 14.1844C24.9248 15.284 23.6992 16.0312 22.7859 17.1214C22.4499 17.5208 21.9199 18.0236 21.3756 17.643C20.6989 17.1731 21.1296 16.5105 21.3993 15.9654C21.7495 15.2558 22.27 14.6261 22.8852 14.1562C24.0162 13.2916 22.6676 13.2164 22.5114 12.77C22.2653 11.3837 24.0162 10.8198 23.8837 9.48058C24.4374 8.03795 25.8003 6.97594 25.8618 5.30305C25.9186 4.4619 25.9849 3.62076 26.212 2.80311C26.3351 2.3097 26.1742 1.7599 26.5007 1.30879L26.4534 1.20071Z" fill="#FAEDC3"/>
<path d="M8.97711 8.32929C9.1522 8.49376 9.32256 8.65823 9.49766 8.8227C9.60177 9.02946 9.59703 9.23153 9.46926 9.42889C6.81919 11.0407 3.93724 12.3471 2.03014 14.9504C1.81719 15.0632 1.61843 15.0444 1.42914 14.9034C1.27298 14.9034 1.11208 14.9034 0.955918 14.9034C0.520549 14.8752 0.127771 14.8 0 14.2972C0.00946453 14.175 0.0189291 14.0528 0.0236613 13.9307C0.302865 12.2014 2.20524 12.051 3.04285 10.8668C4.05082 10.068 5.25281 9.61686 6.3649 9.00597C6.82866 8.77571 7.30189 8.56895 7.78458 8.36689C8.17736 8.23531 8.57013 8.06614 8.97711 8.32929Z" fill="#D8C2AD"/>
<path d="M1.42914 14.8987C1.58058 14.8987 1.73201 14.8893 1.88344 14.8799C2.29515 14.5134 2.63587 14.6825 2.95293 15.0162C3.31732 15.9372 4.71334 15.6787 4.95941 16.7407C4.96415 16.9569 4.91209 17.1543 4.80798 17.3422C3.8426 17.8215 3.63438 18.6392 3.76688 19.6166C3.75742 19.9738 3.70063 20.3074 3.35044 20.5095C1.45754 19.0621 1.13101 17.0885 1.42914 14.8987Z" fill="#FBF0C8"/>
<path d="M9.40774 9.23153C9.42194 9.09055 9.45507 8.95428 9.49766 8.818C13.0563 7.32368 15.9288 4.70626 19.3218 2.92059C21.4561 1.7975 23.5856 0.984545 26.0275 1.19601C26.1789 1.2336 26.3398 1.27119 26.5007 1.30409C26.6474 1.7599 26.7941 2.22042 26.9455 2.67623C25.5495 3.66775 23.6045 2.96288 22.2795 4.15646C21.1532 3.86042 20.7415 4.77205 20.1595 5.39703C19.8471 5.72127 19.4543 5.89044 19.0237 5.98442C17.5993 6.20528 16.3547 6.6846 15.8058 8.17422C15.0107 9.42889 13.8561 10.1573 12.4033 10.4439C11.6934 10.3499 11.0262 10.4956 10.3684 10.754C9.93303 10.9279 9.40301 11.0689 9.07175 10.6695C8.61746 10.1244 9.23738 9.70614 9.40774 9.23153Z" fill="#FBF3D7"/>
<path d="M12.2755 10.1902C13.4775 9.54637 14.7552 9.01067 15.6023 7.85938C16.3547 6.57652 17.7697 6.21468 18.9243 5.49571C19.3076 5.48632 19.6578 5.40643 19.8566 5.0305C20.5286 4.80024 20.8314 3.85102 21.74 4.07658C23.0272 1.96197 25.1378 2.8689 26.9455 2.67153C26.4108 3.54087 26.4628 4.5042 26.4865 5.45812C25.8287 6.94775 24.5794 8.11313 24.1109 9.71084C25.0384 11.3414 22.8237 11.426 22.7007 12.5397C21.4466 15.1665 18.6593 15.6036 16.4115 16.6985C14.405 17.6759 12.1525 18.1787 10.0466 19.001C9.43614 19.1373 8.90139 18.907 8.36665 18.658C7.44859 18.127 6.39802 18.3713 5.42318 18.1834C5.19603 18.127 4.98781 18.033 4.79852 17.9061C4.67548 17.7887 4.61869 17.6571 4.62816 17.5161C4.63762 17.3704 4.66128 17.2952 4.69441 17.2952C4.70387 17.1214 4.71334 16.9475 4.7228 16.7736C6.47374 16.0923 8.32879 17.0039 10.0797 16.4212C13.8088 16.205 17.003 14.6496 19.9938 12.5538C20.4055 12.2672 20.7226 11.9664 20.6705 11.4213C20.6658 11.1817 21.0255 11.0454 20.8504 10.7587C19.7146 11.4589 18.5599 12.1215 17.4005 12.7841C16.8469 13.0989 17.6797 13.348 17.6182 13.6957C15.9477 15.3028 13.8277 15.7962 11.6272 16.0829C11.083 15.4438 10.4394 15.5942 9.72007 15.7586C8.46602 16.0453 7.22144 15.815 6.72455 14.5369C6.204 13.2023 7.44859 12.5773 8.32406 12.0181C9.54498 11.2522 10.6476 10.1385 12.2755 10.1902Z" fill="#FCF2CE"/>
<path d="M9.91883 18.658C12.8528 16.8488 16.4068 16.534 19.3644 14.7248C20.5002 14.0293 21.6217 13.3292 22.6959 12.5491C23.349 13.4279 23.685 12.1544 24.3617 12.3001C24.409 14.5791 21.5933 15.1759 21.4372 17.5302C23.0603 16.097 24.5368 14.7953 26.018 13.4936C26.2309 13.738 26.3729 14.0011 26.2877 14.3395C25.4785 17.6007 20.5049 21.4399 17.0267 21.4869C15.0107 20.157 12.1714 21.1203 10.3968 19.1279C9.89043 19.3112 9.81472 19.0715 9.91883 18.658Z" fill="#FBF0C8"/>
<path d="M17.022 21.4869C21.3283 20.2745 24.6409 17.9625 26.0085 13.4936C27.556 13.0989 26.8367 14.0152 26.6285 14.5791C24.7497 19.6965 18.2855 23.4276 13.1936 22.2011C14.4097 21.4775 15.9146 22.5207 17.022 21.4869Z" fill="#F1E0B6"/>
<path d="M9.91883 18.658C10.075 18.8131 10.2359 18.9728 10.3921 19.1279C10.075 19.438 9.75793 19.7529 9.44087 20.063C9.00077 20.3638 8.47549 20.4719 8.00699 20.7068C7.3776 20.7021 6.77187 20.4484 6.13302 20.5423C5.26701 20.6833 4.25904 21.1015 4.24011 19.5884C3.92305 18.8366 4.14073 18.2257 4.74173 17.7182C4.88843 17.7229 5.03513 17.7276 5.1771 17.7323C6.21346 18.3854 7.45805 17.5725 8.49915 18.1928C8.97237 18.3431 9.4456 18.4982 9.91883 18.658Z" fill="#F9E8B9"/>
<path d="M6.13302 20.5376C6.76241 19.6683 7.40126 20.3121 8.04012 20.5282C9.43614 20.2933 10.5861 21.0358 11.807 21.4775C9.67275 22.6241 7.94074 21.3459 6.13302 20.5376Z" fill="#F1E0B6"/>
<path d="M11.807 21.4775C10.4441 21.5762 9.24211 21.0592 8.04012 20.5282C8.14423 19.283 8.8446 19.8234 9.4456 20.063C10.4063 20.439 11.3669 20.8149 12.3276 21.1908C12.2992 21.2519 12.2897 21.3506 12.2424 21.3694C12.1051 21.4211 11.9537 21.4446 11.807 21.4775Z" fill="#FBF0C8"/>
<path d="M24.1062 9.71554C23.7891 9.74373 22.9373 10.2183 23.4578 9.3631C24.3049 7.96746 25.4596 6.75508 26.4818 5.46752C26.2451 7.1921 25.1094 8.41858 24.1062 9.71554Z" fill="#E7D8B2"/>
<path d="M4.74173 17.7135C4.80798 18.3995 4.60449 19.0151 4.24011 19.5837C4.08395 19.5931 3.92305 19.6072 3.76688 19.6166C2.59801 18.268 2.38506 17.2905 4.68494 17.2999C4.68967 17.4409 4.7086 17.5772 4.74173 17.7135Z" fill="#D4C1A1"/>
<path d="M12.2755 10.1902C11.0214 10.9749 9.74373 11.7221 8.51808 12.5538C7.86503 12.9955 6.69616 13.3715 7.11733 14.3489C7.60948 15.4908 8.85407 15.6552 9.95195 15.2088C10.7706 14.8752 11.5609 14.0152 11.3243 15.815C10.9457 16.299 10.3589 16.2755 9.83838 16.4118C8.48968 16.4964 7.14099 16.5481 5.79703 16.3695C4.78432 16.0876 3.6817 16.05 2.82989 15.3169C2.51283 15.1712 2.19577 15.0256 1.87871 14.8799C3.35518 11.6422 6.40749 10.4768 9.40301 9.23153C10.075 9.66855 9.18533 9.97869 9.33203 10.4392C10.3305 10.8386 11.206 8.95898 12.2755 10.1902Z" fill="#FDF8E0"/>
<path d="M2.83463 15.3169C3.77162 15.4955 4.7086 15.674 5.64559 15.8526C6.99902 16.3272 8.4045 15.9607 9.78159 16.0876C10.198 16.1393 10.5293 16.2567 10.3968 16.783C8.50388 17.6806 6.60624 17.2248 4.71334 16.7783C4.50038 15.7727 2.46078 17.0744 2.83463 15.3169Z" fill="#E4D1A9"/>
<path d="M18.9243 5.50041C18.0962 6.6752 16.7806 7.17331 15.6023 7.86408C15.8909 5.94213 17.3769 5.67898 18.9243 5.50041Z" fill="#FDFAE8"/>
<path d="M21.7353 4.08128C21.0917 4.36322 20.6753 5.09159 19.8566 5.0352C20.4718 4.69686 20.3629 2.94878 21.7353 4.08128Z" fill="#FDFAE8"/>
<path d="M10.3968 16.783C10.2312 16.6186 10.0655 16.4588 9.8999 16.2943C9.7532 16.1862 9.71061 16.0829 9.7674 15.9889C9.82418 15.8949 9.87624 15.8479 9.92829 15.8479C10.3921 15.8385 10.8605 15.8291 11.3243 15.8197C13.4822 15.3075 15.6543 14.8376 17.4952 13.4983C18.2665 12.3001 19.4827 11.8677 20.803 11.614C21.9861 11.7785 21.3567 12.3189 20.9403 12.5961C17.7223 14.706 14.4287 16.6656 10.3968 16.783Z" fill="#EEDEB4"/>
<path d="M20.803 11.6093C19.9276 12.6243 18.6688 12.9861 17.4952 13.4936C16.9841 13.4091 16.4068 13.6769 15.6685 12.972C17.9968 12.2108 19.549 10.2042 22.0855 10.0633C22.3174 11.3132 21.0444 10.9702 20.803 11.6093Z" fill="#FBF6DF"/>
<path d="M8.49915 18.1834C7.42966 17.7605 6.11882 19.0621 5.1771 17.7229C6.28445 17.892 7.49591 17.2858 8.49915 18.1834Z" fill="#FBF0C8"/>
<path d="M9.92829 15.8432C9.92356 15.9936 9.9141 16.144 9.8999 16.2896C8.48495 16.1299 6.98956 16.7172 5.64559 15.8479C7.07474 15.8479 8.50388 15.8479 9.92829 15.8432Z" fill="#FCF2CE"/>
</svg>
