<svg width="28" height="12" viewBox="0 0 28 12" fill="none" xmlns="http://www.w3.org/2000/svg">
<path d="M27.75 6.31641C27.75 8.53125 27.0938 10.3594 25.9922 11.9414H24.5859C25.3945 10.7695 26.2031 8.41406 26.2031 6.31641C26.2031 4.21875 25.3945 1.86328 24.5859 0.703125H25.9922C27.0938 2.27344 27.75 4.11328 27.75 6.31641Z" fill="#2A2018" fill-opacity="0.5"/>
<path d="M19.043 0.210938C21.3867 0.210938 22.8516 0.984375 22.8633 2.27344C22.8516 3.53906 21.3867 4.30078 19.043 4.28906C16.7227 4.30078 15.2227 3.53906 15.2227 2.27344C15.2227 0.984375 16.7227 0.210938 19.043 0.210938ZM19.043 1.23047C17.4961 1.23047 16.5703 1.59375 16.582 2.27344C16.5703 2.91797 17.4961 3.26953 19.043 3.28125C20.5898 3.26953 21.5156 2.91797 21.5156 2.27344C21.5156 1.59375 20.5898 1.23047 19.043 1.23047ZM22.7109 6.90234V10.4648H15.3633V6.90234H22.7109ZM16.6523 7.93359V9.41016H21.4453V7.93359H16.6523ZM23.8828 5.00391V6.05859H14.2266V5.00391H23.8828Z" fill="#2A2018" fill-opacity="0.5"/>
<path d="M6.25781 6.19922V7.33594H7.65234V6.19922H8.85938V9.5625C10.1016 9.04102 10.6758 7.96875 10.6758 6.96094V6.11719H11.9766V6.96094C11.9766 8.0625 12.5391 9.12891 13.8516 9.57422L13.1836 10.5469C12.252 10.2129 11.6484 9.56836 11.3203 8.76562C10.9629 9.54492 10.3594 10.1895 9.48047 10.5469L8.85938 9.62109V10.4648H5.03906V6.19922H6.25781ZM6.25781 9.46875H7.65234V8.30859H6.25781V9.46875ZM6.79688 0.433594C8.16211 0.433594 9.24023 1.19531 9.51562 2.34375H11.4258V0H12.7266V5.61328H11.4258V3.42188H9.51562C9.25781 4.59961 8.16797 5.37891 6.79688 5.37891C5.16797 5.37891 3.99609 4.35938 3.99609 2.89453C3.99609 1.44141 5.16797 0.433594 6.79688 0.433594ZM6.79688 1.51172C5.88281 1.51172 5.23828 2.05078 5.23828 2.89453C5.23828 3.75 5.88281 4.3125 6.79688 4.3125C7.6875 4.3125 8.32031 3.75 8.33203 2.89453C8.32031 2.05078 7.6875 1.51172 6.79688 1.51172Z" fill="#2A2018" fill-opacity="0.5"/>
<path d="M0 6.31641C0 4.11328 0.65625 2.27344 1.75781 0.703125H3.16406C2.35547 1.86328 1.54688 4.21875 1.54688 6.31641C1.54688 8.41406 2.35547 10.7695 3.16406 11.9414H1.75781C0.65625 10.3594 0 8.53125 0 6.31641Z" fill="#2A2018" fill-opacity="0.5"/>
</svg>
