<svg width="25" height="50" viewBox="0 0 25 50" fill="none" xmlns="http://www.w3.org/2000/svg">
<path d="M0.382037 38.9179C0.54384 32.4781 1.10367 26.061 1.48553 19.6342C1.62144 17.3365 1.97094 15.1716 3.62458 13.4241C3.98378 13.175 4.23943 13.2623 4.39476 13.6668C4.28474 14.7218 3.49836 15.479 3.16505 16.4402C2.70229 18.7054 2.66346 21.0095 2.45959 23.2974C2.25572 25.5885 2.18452 27.8861 2.04537 30.1805C1.58585 31.86 1.95476 33.5849 1.78325 35.2773C1.77031 35.4682 1.73794 35.6592 1.6894 35.8436C1.32373 37.2222 1.56967 38.6299 1.50818 40.0214C1.47906 40.7074 1.62468 41.4453 0.932163 41.9307C0.0778402 41.6135 0.592379 40.7754 0.288188 40.2479C0.259063 39.8013 0.158748 39.3483 0.382037 38.9179Z" fill="#C2CACF"/>
<path d="M23.0772 26.6349C23.7212 28.1655 23.3911 29.8095 23.5982 31.3984C24.0351 34.6927 24.1742 38.0323 24.3199 41.3558C24.4558 44.4624 23.4299 45.9477 20.5466 47.1936C20.1065 47.3846 19.6599 47.5561 19.2133 47.7341C18.8153 47.9023 18.427 47.9865 18.1066 47.582C17.9804 46.7438 18.7053 46.6564 19.1939 46.4493C20.5013 45.8992 21.5724 45.0643 22.4429 43.9576C22.7407 43.5563 22.9186 43.1097 22.9737 42.6114C23.0934 42.0839 23.0643 41.5661 23.0351 41.0257C22.8345 37.0259 22.1064 33.0488 22.3879 29.0231C22.7536 28.2659 22.3782 27.295 23.0772 26.6349Z" fill="#BAC3C7"/>
<path d="M3.30444 13.101C2.72195 12.69 2.42747 12.0201 2.62487 11.4376C3.19442 9.75163 2.77049 8.18861 2.50513 6.52203C2.20742 4.66129 2.90317 2.93323 4.82216 2.0239C5.1037 1.8718 5.23961 2.04008 5.34963 2.2666C5.15547 3.19535 4.23643 3.66782 3.93224 4.52862C3.6507 5.05609 3.72513 5.62888 3.72189 6.19196C3.72189 6.92331 3.97107 7.5414 4.55032 8.00739C5.4629 8.64813 6.45638 9.09147 7.55988 9.27593C7.94173 9.37301 8.33329 9.41832 8.72809 9.45068C9.80894 9.75487 10.9448 9.65455 12.0289 9.93285C12.3881 10.1658 12.9156 10.2888 12.6664 10.9134C11.4335 11.5962 10.0711 11.0752 8.79282 11.3244C8.63101 11.3535 8.46921 11.3503 8.30741 11.3211C7.00003 10.7936 5.63441 10.4118 4.39823 9.64808C4.23642 10.1982 4.66035 10.4247 4.72507 10.7775C4.74773 10.9296 4.7186 11.0752 4.64093 11.2079C3.99048 11.4376 3.71542 11.813 3.9646 12.5476C4.14582 13.0945 3.91606 13.3857 3.30444 13.101Z" fill="#7E7E7D"/>
<path d="M16.6115 0.779883C20.7181 1.67304 22.1128 3.90269 20.964 7.76332C20.7116 8.60794 20.7343 9.46226 21.1032 10.2227C21.5659 11.1838 21.3944 11.9767 20.7893 12.7631C20.553 13.1125 20.2844 13.4362 19.922 13.6659C19.7505 13.8083 19.5725 13.9345 19.3783 14.0478C18.6891 14.4167 17.9965 14.7727 17.181 14.7532C16.7765 14.7144 16.3688 14.6723 16.1876 14.2193C16.2135 14.0607 16.2944 13.9313 16.427 13.8374C17.3202 13.4006 18.3137 13.187 19.1712 12.653C19.9673 12.1579 20.4592 11.5592 19.9511 10.5787C19.8929 10.4396 19.854 10.2939 19.8249 10.1451C19.5596 10.0674 20.223 9.22926 19.3978 9.62406C18.9221 9.85059 18.4431 10.0383 17.9059 10.0059C17.5953 9.93473 17.3299 9.79557 17.1616 9.5108C17.2361 8.81505 17.8801 8.79239 18.3234 8.55292C19.9576 7.663 20.4009 6.78279 20.1129 4.87998C19.9964 4.35251 19.9285 3.80237 19.5143 3.39463C19.1971 3.1228 18.8347 2.90922 18.5208 2.63415C17.7927 2.05813 16.906 1.93192 16.0322 1.75718C15.7831 1.67627 15.5727 1.55007 15.4789 1.28795C15.5436 0.417443 16.0711 0.582483 16.6115 0.779883Z" fill="#7D7E7C"/>
<path d="M0.382037 38.9179C0.391745 39.3742 0.404582 39.8309 0.41429 40.2872C0.760549 41.3033 0.346335 42.5395 1.31716 43.3712C2.86076 45.0636 4.56617 46.5005 6.88643 47.0085C7.23593 47.0862 7.64044 47.2189 7.56925 47.7399C7.18415 48.1379 6.66962 47.9826 6.20686 48.057C1.49191 47.5231 -1.00624 43.6037 0.382037 38.9179Z" fill="#C6CCCE"/>
<path d="M19.8567 13.443C20.1674 13.2165 20.478 12.9899 20.7887 12.7602C20.6851 14.0028 21.7174 14.7536 22.0961 15.7988C22.8857 17.9702 22.6883 20.2193 22.7562 22.449C22.5847 23.4295 23.0054 24.4715 22.4423 25.41C21.5103 25.2741 21.6883 24.5006 21.6463 23.9181C21.5556 22.6884 21.698 21.4458 21.5427 20.2161C21.3097 18.3586 21.232 16.459 20.0897 14.841C19.8049 14.4365 19.7726 13.9381 19.8567 13.443Z" fill="#BCC4CB"/>
<path d="M18.1842 47.3543C18.4204 47.7685 18.8411 47.6844 19.2132 47.7361C16.0225 48.8137 12.7832 49.4092 9.41442 48.7231C9.67977 48.1827 10.1555 47.9141 10.6894 47.7135C12.8511 47.5679 15.0128 47.3996 17.1551 47.0663C17.524 47.0048 17.8962 47.063 18.1842 47.3543Z" fill="#C8CFD1"/>
<path d="M16.6115 0.781182C16.1779 0.823251 15.6569 0.732641 15.6245 1.40574C15.288 1.61285 14.9676 1.46076 14.6472 1.3572C12.1069 1.06272 9.59573 1.15657 7.1525 1.99471C6.5247 2.1468 5.98104 2.68723 5.25939 2.40569C5.11377 2.27948 4.96779 2.1501 4.82216 2.0239C8.54688 -0.338434 12.505 -0.464705 16.6115 0.781182Z" fill="#878887"/>
<path d="M3.30444 13.101C4.15877 12.9521 3.56386 12.5803 3.44413 12.2599C3.2985 11.8619 3.16906 11.3927 3.4603 11.0626C3.82598 10.6484 4.2046 11.2373 4.59941 11.1985C5.37606 11.383 6.14624 11.5771 6.63813 12.2891C6.53457 12.8295 6.97792 12.9751 7.29829 13.2308C7.58953 13.4638 8.12348 13.6094 7.78693 14.1822C6.69637 14.7582 5.74821 13.7712 4.69972 13.9103C4.54439 13.8974 4.40524 13.8359 4.28551 13.7356C4.13017 13.4929 3.89394 13.4217 3.62534 13.4249C3.51855 13.3181 3.41123 13.2078 3.30444 13.101Z" fill="#ABAAA9"/>
<path d="M22.3936 25.4035C22.5781 24.4262 22.0572 23.3615 22.7562 22.449C23.3096 23.8114 22.9276 25.2417 23.0732 26.6332C22.8984 27.3937 23.3677 28.2545 22.7172 28.9405C21.672 27.85 21.7205 26.6558 22.3936 25.4035Z" fill="#B0BBC6"/>
<path d="M10.4333 48.0328C10.2488 48.4955 9.87018 48.667 9.41066 48.722C8.29422 48.7317 7.20043 48.6282 6.20695 48.0586C6.54998 47.5538 7.09039 47.7609 7.55315 47.68C8.61135 46.9875 9.5304 47.4535 10.4333 48.0328Z" fill="#B6BFC2"/>
<path d="M4.28554 13.7342C4.39557 13.731 4.50883 13.7277 4.61886 13.7245C7.65753 14.6759 10.7868 14.6403 13.9193 14.5788C14.9969 14.6112 16.0713 14.4429 17.1489 14.5464C17.7476 14.5464 18.2233 14.6565 17.589 15.3166C17.123 15.802 16.4532 15.9282 15.8221 16.0318C12.3951 16.5852 9.01668 16.4395 6.97472 15.7891C9.2788 16.4751 12.9032 16.7276 16.5632 15.8668C18.9708 15.3004 20.5953 16.7017 20.3947 19.3035C19.8187 20.0316 19.5242 19.3585 19.1585 19.0478C18.6537 18.6207 17.9903 18.8375 18.2104 19.3391C18.8155 20.7273 18.3333 22.2062 18.8187 23.5718C19.1326 24.4585 19.4174 25.329 20.6568 24.7368C21.1778 25.164 21.194 25.7627 21.2231 26.3613C21.207 27.0312 21.2911 27.7075 21.0548 28.358C19.0323 29.3838 18.2751 29.0376 18.068 27.0021C18.1618 26.8273 18.398 26.5134 18.2298 26.4617C16.657 25.973 15.2332 24.5783 13.3918 25.5782C13.1491 25.7627 12.8902 25.8889 12.5731 25.7983C10.5182 24.8048 8.68983 25.1413 7.33392 26.7691C6.8841 27.1315 6.41811 27.4616 6.0589 27.9405C5.63498 28.5068 5.19487 28.4777 4.85508 27.8208C4.84214 27.7755 4.8292 27.7237 4.81302 27.6752C4.79684 27.6234 4.78066 27.5749 4.76448 27.5263C4.0849 28.0376 3.66098 28.8952 2.70634 29.0376C2.55101 28.9534 2.4345 28.8369 2.34713 28.6816C1.92644 26.8435 2.40862 25.0216 2.43451 23.19C2.43775 22.9246 2.68045 22.7402 2.99112 22.7499C3.67716 24.1414 3.19498 25.5814 3.15939 27.1736C3.46681 24.2741 3.20146 21.5396 3.21441 18.8083C3.09467 18.4847 3.09467 18.1741 3.31472 17.8893C3.42475 17.679 3.80013 17.7469 3.80013 17.4298C3.80013 17.4136 3.61244 17.3845 3.51212 17.3424C3.03965 17.0091 2.98464 16.5237 3.00082 16.0091C3.24029 15.1386 3.75483 14.4332 4.28554 13.7342Z" fill="#F4F4F3"/>
<path d="M10.4334 48.0339C9.47225 47.9174 8.51114 47.8009 7.55003 47.6812C4.9903 46.9013 2.56971 45.9078 1.08112 43.4775C0.63454 43.0277 0.362713 42.5423 0.751042 41.9178C1.35942 40.4939 0.89019 38.9924 1.0617 37.5394C1.1329 36.9277 0.844886 36.2546 1.36589 35.7207C1.94839 36.2611 1.78334 36.9795 1.80923 37.6429C1.83836 38.3743 1.76393 39.1186 2.20727 39.769C2.55353 40.536 2.33672 41.3903 2.57619 42.1734C3.25576 43.3255 3.76706 44.6911 5.52101 44.484C6.05172 44.4387 6.58891 44.3707 6.93841 44.9111C6.83485 45.7816 7.57592 45.5066 7.9869 45.6748C8.8121 46.0146 9.88647 45.6845 10.5013 46.6004C9.93825 47.39 9.17453 46.9304 8.33639 47.0566C12.142 46.8722 15.8441 47.267 19.3584 45.7557C20.1675 45.4062 20.8373 44.9241 21.4781 44.3448C22.067 43.8141 22.0897 43.84 22.7596 44.1733C21.7078 45.9143 19.8665 46.5259 18.1837 47.3576C15.6143 47.7265 13.0481 48.1537 10.4334 48.0339Z" fill="#F0EFED"/>
<path d="M2.01614 39.9408C0.957943 39.3389 1.48542 38.3227 1.38834 37.4781C1.32038 36.8989 1.36892 36.3067 1.36568 35.7177C1.36245 35.6141 1.36892 35.5138 1.37863 35.4103C1.83815 33.7016 1.25566 31.9283 1.68929 30.2196C1.58574 25.9965 2.2912 21.822 2.37858 17.6086C2.39152 17.0391 2.56304 16.4501 2.99991 16.0036C3.21349 16.4339 3.42706 16.8676 3.64388 17.298C3.84452 17.5116 3.82834 17.7251 3.64388 17.9387C3.37852 18.0843 3.32351 18.3303 3.32351 18.6021C3.5015 18.8028 3.55651 19.039 3.53062 19.3011C3.32027 19.8642 3.29439 20.4499 3.31381 21.0421C3.24261 21.6343 3.5015 22.2848 2.98049 22.7928C2.3624 24.8154 2.74102 26.8929 2.66659 28.9446C3.385 29.8895 3.14876 30.9833 3.02903 32.0027C2.92548 32.8894 2.80898 33.7793 2.69571 34.666C2.2815 35.9604 2.53714 37.2937 2.45948 38.6075C2.44006 39.0929 2.43359 39.5848 2.01614 39.9408Z" fill="#F7F6F5"/>
<path d="M1.68929 30.2196C1.54043 31.9477 2.0485 33.7146 1.37863 35.4103C1.51131 33.6822 1.05179 31.9185 1.68929 30.2196Z" fill="#F0EFED"/>
<path d="M0.754167 41.9153C0.864193 42.4363 0.974216 42.9541 1.08424 43.4751C0.35289 43.7825 0.443501 43.1676 0.42732 42.8246C0.385251 41.98 0.414376 41.1322 0.417613 40.2875C0.958036 40.7406 0.621488 41.3781 0.754167 41.9153Z" fill="#B3BBC1"/>
<path d="M22.3936 25.4035C22.413 26.5911 22.3419 27.7891 22.7205 28.9412C22.7658 33.0639 23.1671 37.1672 23.5748 41.2641C23.6428 41.9437 23.3289 42.5197 23.3677 43.1604C23.125 43.2252 22.8952 43.1313 22.8855 42.9048C22.8661 42.3773 22.604 42.0634 22.1477 41.8596C21.7108 40.4486 22.2318 38.9503 21.727 37.5459C21.3128 33.7564 21.083 29.954 21.1122 26.142C21.1154 25.7148 21.1477 25.2779 20.9245 24.8799C20.4682 23.8573 20.8533 22.7117 20.4617 21.6794C20.3096 20.8769 20.3873 20.0711 20.4649 19.2653C20.5394 18.4887 20.52 17.6117 19.876 17.1748C18.3227 16.1166 18.821 14.9646 19.5038 13.7349C19.6236 13.6345 19.7401 13.5375 19.8598 13.4371C21.9276 16.3399 22.0894 19.6795 22.1089 23.0645C22.1121 23.8508 21.8564 24.6818 22.3936 25.4035Z" fill="#F2F2F1"/>
<path d="M22.4076 42.2085C22.6471 42.1567 23.0645 41.2895 23.0548 42.3541C23.0516 42.6648 23.058 42.9754 23.3655 43.1664C23.1616 43.4997 22.9609 43.8362 22.7571 44.1696C22.4788 43.8427 22.2781 44.0984 22.1163 44.2893C20.0129 46.7649 17.0325 47.0982 14.1329 47.3312C12.0554 47.4995 9.89369 47.6936 7.63491 46.9752C8.65427 46.4445 9.65099 47.1111 10.4179 46.4445C11.0198 45.8361 11.7285 45.9559 12.4437 46.1565C12.7609 46.2245 12.4955 47.1338 13.2786 46.6419C13.9647 46.2083 14.8513 46.4186 15.6442 46.3054C18.3787 45.9138 20.9028 45.1339 22.2134 42.3574C22.2781 42.3023 22.3429 42.257 22.4076 42.2085Z" fill="#E2E1DF"/>
<path d="M6.84461 1.7291C9.48525 0.599711 12.2068 0.47674 14.9833 1.1013C14.6274 1.46698 14.2584 1.4961 13.9899 1.26311C14.9736 1.48639 14.9995 2.47663 15.2098 3.35037C15.6758 4.1788 16.2292 3.76135 16.7729 3.45393C17.2745 3.16592 17.7793 2.92645 18.323 3.37302C18.3327 3.3795 18.4168 3.32448 18.433 3.28565C18.4492 3.24682 18.4265 3.18857 18.42 3.13032C18.4718 3.00735 18.5592 2.93292 18.6789 2.89085C19.0834 2.78406 19.3714 3.3083 19.7921 3.08501C20.2355 3.51865 20.3002 4.10761 20.4361 4.66745C19.653 4.59302 19.4782 5.26936 19.132 5.73535C18.4945 6.46023 17.7761 7.01684 16.7438 6.9683C16.5917 6.95859 16.4428 6.9327 16.2972 6.8971C14.4914 6.52496 12.6987 6.84533 10.9059 7.02978C10.0321 7.0945 9.19076 6.88739 8.34615 6.71912C7.37209 6.70941 6.55336 5.79037 5.50164 6.23371C4.80912 7.71259 4.05836 6.32755 3.33348 6.28225C3.36584 5.62533 3.09724 4.91986 3.63443 4.34061C3.94833 4.50888 4.11013 4.91016 4.51464 4.92634C4.60849 4.66745 4.30753 4.81955 4.27193 4.69334C3.93215 3.7031 4.67968 3.26947 5.2557 2.74846C5.73141 2.32454 6.45952 2.28894 6.84461 1.7291Z" fill="#A5A5A4"/>
<path d="M3.33314 6.2813C3.66322 6.31689 3.95123 5.41403 4.26836 6.14862C4.92852 7.67281 4.88969 5.91238 5.21977 5.97387C5.98672 6.17127 6.48831 6.71493 6.95107 7.30713C6.96078 7.53042 6.69542 7.68899 6.72778 7.85726C6.78603 8.14851 7.05138 7.99318 7.22937 7.95434C7.68242 7.85403 7.83128 7.39774 8.15489 7.13562C8.29727 7.05795 8.44613 7.01265 8.60147 6.98676C9.33929 7.04501 10.0739 7.10002 10.7437 7.46246C10.9282 7.65339 10.98 7.88639 10.9638 8.14204C10.9703 9.89922 9.64995 9.74065 8.50762 9.83774C8.15165 9.84421 7.77627 9.91217 7.52062 9.55943C6.45272 9.08373 5.36863 8.64686 4.26836 8.25206C3.54672 7.7893 3.30078 7.10326 3.33314 6.2813Z" fill="#9E9E9C"/>
<path d="M6.59287 12.3746C5.96507 11.9216 5.03631 11.9766 4.60268 11.1967C4.60591 11.0802 4.60592 10.9604 4.60916 10.8407C5.35993 10.5398 5.95212 11.1255 6.63493 11.2031C7.16565 11.3649 7.72226 11.3941 8.25944 11.5268C9.27881 11.8051 10.3208 11.6335 11.3531 11.6886C11.7415 11.695 12.1265 11.6335 12.5116 11.6141C12.667 11.6174 12.8191 11.64 12.9679 11.6756C14.6118 12.0316 16.1231 11.2646 17.7088 11.119C18.1295 11.1902 18.5825 11.2193 18.5825 11.818C17.7379 12.7532 16.4952 12.7144 15.4273 13.106C13.0553 13.6205 10.68 13.6755 8.29827 13.1901C7.6543 13.0768 6.99414 12.9959 6.59287 12.3746Z" fill="#828281"/>
<path d="M8.50779 9.8364C8.61782 9.79757 10.7083 8.31221 10.7601 8.23778C11.0999 8.15688 11.4332 8.01773 11.7924 8.14393C12.2131 8.37369 12.7341 8.43194 13.0448 8.85587C13.3587 9.19242 13.8117 9.12446 14.2 9.24096C14.5139 9.36393 14.7793 9.5225 14.6952 9.93024C14.446 10.3412 14.0544 10.4933 13.6014 10.5483C13.0577 10.5645 12.5594 10.3768 12.061 10.1924C10.8572 10.2636 9.67925 10.092 8.50779 9.8364Z" fill="#A9A9A8"/>
<path d="M6.50151 11.505C5.77986 11.5438 5.2265 11.1005 4.60841 10.8448C4.17478 10.5406 3.6926 10.2655 3.66671 9.65716C3.65053 9.27207 3.80587 8.7187 4.24597 9.07791C5.43361 10.0487 7.05812 10.094 8.21016 11.0907C7.72475 11.5794 6.94485 10.8513 6.50151 11.505Z" fill="#A5A5A3"/>
<path d="M6.84461 1.7291C7.19087 2.42485 6.52414 2.26552 6.24908 2.45644C5.45301 3.00981 4.33656 3.33018 4.55985 4.66344C4.78314 4.68933 4.90935 4.81554 4.94171 5.03883C4.21683 5.34949 3.61816 5.42392 3.63434 4.34307C3.98707 3.54053 4.52102 2.88684 5.25561 2.40467C5.78633 2.17814 6.31714 1.95562 6.84461 1.7291Z" fill="#B1B2B0"/>
<path d="M8.45338 11.0878C9.84165 10.5603 11.2882 10.9292 12.7023 10.8289C12.835 10.6994 12.9903 10.6088 13.1683 10.5538C13.6214 10.5279 14.1003 10.4211 14.3851 10.9324C14.2912 11.2884 14.0097 11.489 13.6958 11.4826C12.0745 11.447 10.4565 11.8515 8.83523 11.489C8.66372 11.3952 8.53751 11.2593 8.45338 11.0878Z" fill="#ABACAB"/>
<path d="M8.45338 11.0878C8.56664 11.1104 8.67981 11.1332 8.79308 11.1559C9.13934 11.9196 8.7413 11.9811 8.13939 11.8549C7.60868 11.6672 6.97117 11.9843 6.50517 11.5054C6.76082 10.0718 7.62161 11.1365 8.21382 11.0911C8.29148 11.0976 8.37247 11.0975 8.45338 11.0878Z" fill="#D9D9D7"/>
<path d="M4.27181 8.24992C5.4821 8.36965 6.66003 8.57029 7.52406 9.55729C6.26523 9.55729 5.23616 8.97803 4.27181 8.24992Z" fill="#ACADAA"/>
<path d="M13.0257 10.8194C12.9189 10.8226 12.8091 10.8256 12.7023 10.8289C12.4887 10.6185 12.2749 10.4084 12.0614 10.1948C12.5986 10.1948 13.1325 10.1948 13.6697 10.1916C13.8509 10.8064 13.1681 10.5346 13.0257 10.8194Z" fill="#7C7D7C"/>
<path d="M19.5006 13.7419C19.5944 13.9878 19.8371 14.3923 19.766 14.4603C18.4133 15.7353 19.7465 16.4246 20.3387 17.2919C21.2384 18.6089 20.6267 20.1008 20.7821 21.5052C20.6365 21.612 20.4844 21.6217 20.3258 21.5311C19.9569 21.2658 19.8274 20.8839 19.7983 20.4535C19.7918 20.1105 19.8727 19.7966 20.1349 19.5506C20.4196 18.0038 19.4132 17.0556 18.533 16.033C18.0961 15.525 17.7661 15.9748 17.3939 16.0751C13.5624 17.0945 9.75031 16.8744 5.96088 15.8486C5.65345 15.7644 5.37515 15.5767 5.09037 15.4246C4.76677 15.2499 4.26518 15.0784 4.46581 14.6415C4.67939 14.1691 5.12921 14.4668 5.43663 14.6512C7.90899 16.1495 10.6758 15.9457 13.3812 15.9748C14.7209 15.991 16.0509 15.6835 17.2871 15.1334C17.9408 14.8422 17.4327 14.7515 17.1512 14.6545C17.1091 14.5315 17.1544 14.4506 17.2742 14.4085C18.0185 14.1852 18.7595 13.9619 19.5006 13.7419Z" fill="#D7DCDF"/>
<path d="M14.65 9.87082C14.5141 9.59899 14.265 9.53751 13.9931 9.52133C13.8346 8.99708 14.4073 9.03592 14.5821 8.77056C13.8637 8.48902 13.4139 9.33363 12.7343 9.21066C12.8249 8.45019 11.5564 9.08122 11.7343 8.23337C11.6405 7.94212 11.8088 7.77061 12.0094 7.60881C13.2812 6.693 14.773 6.71889 16.2357 6.60563C16.3619 6.61534 16.4881 6.62504 16.6176 6.63475C17.6046 7.12987 16.6402 7.83857 16.7794 8.43077C19.2258 7.94212 19.7533 7.14929 18.8699 5.34356C19.2485 4.77401 19.7242 4.43423 20.4458 4.66722C20.9798 6.70595 20.3746 8.01008 18.4815 8.90647C18.0576 9.10711 17.6305 9.30775 17.2065 9.50838C16.4364 10.2494 15.6047 10.4986 14.65 9.87082Z" fill="#9E9E9C"/>
<path d="M15.5594 12.697C16.54 12.3863 17.5237 12.0789 18.5043 11.7682C18.8991 11.1534 19.4395 10.723 20.1417 10.5094C21.2905 11.4608 20.5138 12.2213 19.7695 12.7423C18.8311 13.3992 17.747 13.849 16.5788 14.0173C16.417 13.7584 16.2455 13.5028 16.006 13.3021C15.8248 13.1241 15.6177 12.9656 15.5594 12.697Z" fill="#A3A3A1"/>
<path d="M16.2554 13.0849C16.4042 13.3826 16.977 13.5315 16.5822 14.0169C16.4851 14.0428 16.3881 14.0687 16.2877 14.0849C15.4431 14.8745 14.3882 14.6868 13.3818 14.6997C12.2556 14.7127 11.1294 14.7062 10.0033 14.7029C9.42728 14.6868 8.82537 14.7515 8.46293 14.1496C8.36585 13.8033 8.56649 13.6318 8.84479 13.5088C11.3171 13.47 13.7701 13.0299 16.2554 13.0849Z" fill="#AEAFAF"/>
<path d="M14.9872 3.69351C14.2915 3.02365 15.0746 1.54153 13.4469 1.39267C14.065 0.968741 14.5439 1.18879 14.9872 1.10142C15.2008 1.20174 15.4109 1.30543 15.6245 1.40574C15.8381 1.41222 16.0519 1.41856 16.2655 1.42826C17.0001 1.99781 17.9126 2.32142 18.5307 3.05601C18.5793 3.41845 19.1197 3.57054 18.8932 4.19187C18.3042 3.71617 17.7282 2.99776 16.9256 3.70969C16.6991 3.66762 16.5438 3.53171 16.4273 3.34078C16.2914 3.12396 16.2299 2.77771 15.916 2.80683C15.6539 2.83272 15.7639 3.15309 15.7024 3.34078C15.5374 3.61585 15.285 3.70322 14.9872 3.69351Z" fill="#B4B4B2"/>
<path d="M17.87 9.83882C18.3166 9.67054 18.7891 9.54757 19.2065 9.32428C20.3198 8.73208 20.1741 9.46991 20.1127 10.143C19.6467 11.0297 18.9477 11.4601 17.9251 11.2595C17.5108 10.9714 17.294 10.5475 17.1419 10.0815C17.2714 9.67378 17.527 9.622 17.87 9.83882Z" fill="#A4A4A3"/>
<path d="M9.78991 14.3652C11.9581 14.3846 14.1327 14.5076 16.2847 14.0836C16.5274 14.4623 16.9319 14.3425 17.2782 14.404C17.2361 14.4849 17.194 14.5658 17.1552 14.65C16.097 14.7373 15.0809 15.1904 13.9936 15.0189C12.9095 14.6694 11.793 14.9606 10.6992 14.8506C10.3433 14.8182 9.79315 15.0771 9.78991 14.3652Z" fill="#8A8B8B"/>
<path d="M17.87 9.83882C17.6532 9.94884 17.4332 10.0561 17.2164 10.1661C17.1776 10.4185 17.0352 10.5965 16.8119 10.713C16.5206 10.8425 16.2067 10.8942 15.8961 10.9395C15.3621 10.9978 14.8152 11.3085 14.3007 10.8781C13.8768 10.8586 13.4528 10.8425 13.0257 10.823C13.2393 10.6127 13.4528 10.4056 13.6697 10.1953C13.9965 10.0885 14.3233 9.98167 14.6502 9.87488C15.5013 9.75515 16.3524 9.63541 17.2002 9.51244C17.4623 9.53509 17.7212 9.57346 17.87 9.83882Z" fill="#767575"/>
<path d="M18.5267 3.05568C17.4879 2.90682 16.7792 2.30167 16.2614 1.42794C17.1934 1.54443 18.1319 1.64152 18.7791 2.45701C18.6723 2.64146 18.6399 2.85181 18.5429 3.0395L18.5267 3.05568Z" fill="#A5A5A4"/>
<path d="M17.8768 11.1415C18.8088 11.2288 19.4334 10.6237 20.1129 10.1415C20.1226 10.2645 20.1356 10.3875 20.1453 10.5104C19.8023 11.1965 19.168 11.5007 18.5078 11.7693C18.2619 11.3971 17.8671 11.4877 17.5144 11.4457C17.4399 11.3195 17.4464 11.1965 17.5338 11.08C17.6632 11.0088 17.7797 11.0282 17.8768 11.1415Z" fill="#888887"/>
<path d="M18.5402 3.03592C18.4788 2.78351 18.1357 2.41783 18.7765 2.45343C19.1163 2.66377 19.4556 2.87467 19.7921 3.08501C19.3358 4.12055 18.9771 2.6573 18.5402 3.03592Z" fill="#CACBC8"/>
<path d="M9.78991 14.3652C10.518 15.0253 11.3975 14.5689 12.2001 14.6983C12.7987 14.7954 13.4718 14.475 13.9896 15.0219C10.7697 15.2808 7.59513 15.2225 4.62118 13.7242C5.76999 13.0706 6.74729 14.3909 7.87344 14.0123C8.08378 13.8537 8.29089 13.8569 8.48505 14.0414C8.91868 14.1482 9.35628 14.2584 9.78991 14.3652Z" fill="#7C7D7C"/>
<path d="M8.48537 14.0426C8.2815 14.0329 8.07763 14.0232 7.87376 14.0167C7.38511 13.7093 6.87705 13.4277 6.41753 13.0847C5.99684 12.7708 6.03567 12.4893 6.59228 12.3792C7.11652 12.5119 7.644 12.6446 8.16824 12.7773C8.27503 13.1559 9.84452 12.5669 8.78956 13.7157C8.68601 13.8225 8.58569 13.9326 8.48537 14.0426Z" fill="#DADCDB"/>
<path d="M4.93543 27.6476C5.22991 27.7479 5.54058 28.544 5.81888 27.7156C6.06159 26.9939 6.54699 26.7609 7.20068 26.6736C9.02259 24.9876 10.6018 24.7093 12.6988 25.7027C12.9124 25.596 13.1292 25.4892 13.3427 25.3824C14.9381 24.7902 16.2876 25.5053 17.6435 26.1817C17.9768 26.35 18.3295 26.4956 18.2098 26.981C18.2292 27.1849 18.2486 27.392 18.268 27.5958C19.5172 27.2852 19.1062 28.2042 19.0318 29.0391C19.666 28.5052 20.1482 27.858 20.776 28.6184C21.0608 28.8644 21.0802 29.1751 20.9896 29.5084C19.4007 30.861 18.7114 32.9386 17.1322 34.2977C16.2876 35.2492 15.3329 34.9967 14.3718 34.4887C14.032 36.0452 13.5531 36.3171 12.6729 35.3042C12.0127 34.5437 11.1713 34.9158 10.5144 34.5178C9.97076 34.1845 11.0807 33.4887 10.2329 33.2298C10.1164 33.246 10.0031 33.2752 9.91251 33.3399C10.2135 33.6764 9.70217 34.3948 10.4821 34.4887C10.7215 35.1488 10.5403 36.0226 11.8024 35.987C12.4755 35.9676 12.0936 36.9707 12.2813 37.5759C13.3913 35.919 14.2456 36.9966 15.1323 37.8024C15.5271 38.948 15.1517 40.1324 15.2973 41.3071C15.3847 42.0125 14.456 42.32 13.7796 42.5238C12.1519 43.019 12.126 43.1063 13.5272 44.5237C11.7506 44.9185 10.1326 45.4331 8.4401 44.8668C6.68615 44.281 4.78334 44.2195 3.12647 43.3102C2.67666 42.7439 2.35952 42.1258 2.35952 41.3815C2.47602 38.0775 2.46631 34.7702 3.05851 31.5018C3.14265 31.2429 3.31416 31.0682 3.57305 30.9873C3.81899 30.9387 4.05523 30.9678 4.2947 31.0584C4.49533 31.1329 4.2235 31.1879 4.41443 31.1167C4.52769 31.0746 4.3044 31.0261 4.27204 30.9387C3.26886 30.3336 3.06175 29.5504 3.70897 28.5667C4.14584 28.311 4.22997 27.5603 4.93543 27.6476Z" fill="#FBFAF7"/>
<path d="M5.81207 19.8407C5.76353 19.7112 5.66967 19.4653 5.5823 19.2193C5.25546 18.3068 5.71821 17.4622 6.38161 17.1936C7.11943 16.8958 8.03525 17.3424 8.79572 17.7146C9.10639 17.8667 8.87339 18.2615 8.72129 18.4038C7.02235 20.0089 7.73105 22.2386 7.22299 24.1446C7.08707 24.6495 7.23594 25.2287 6.63079 25.5135C6.26835 25.685 6.0936 26.3419 5.59525 26.0733C5.06129 25.7853 5.52405 25.3193 5.55641 24.9278C5.6988 23.2806 5.36873 21.6108 5.81207 19.8407Z" fill="#FBFAF9"/>
<path d="M20.1359 19.5503C20.1391 19.8772 20.1391 20.204 20.1424 20.5276C19.9741 21.67 20.2556 22.7379 20.6893 23.7799C20.7702 24.1326 20.754 24.4627 20.4725 24.7313C19.9158 24.8769 19.9256 25.4756 19.5081 25.948C18.78 24.8866 18.3399 23.8025 18.1975 22.5825C18.0713 21.5017 18.5373 20.3529 17.5956 19.3626C17.1102 18.8513 17.9548 18.7381 18.2007 18.4986C18.4564 18.2527 18.8738 17.8352 19.2492 18.4501C19.4984 18.8546 19.6181 19.3659 20.1359 19.5503Z" fill="#E6EBEC"/>
<path d="M20.773 29.5874C20.773 29.2638 20.7762 28.9434 20.7762 28.6198C20.7859 27.8625 20.7956 27.1053 20.8054 26.3448C21.2034 25.8562 20.6856 25.1863 21.1322 24.7106C21.2293 24.9501 21.3976 25.1863 21.4105 25.429C21.65 29.5097 21.87 33.5904 22.0965 37.6711C22.4137 39.1208 22.1613 40.5868 22.2389 42.0462C22.2519 42.2501 22.1936 42.4313 22.0642 42.5867C21.2228 42.3666 21.3717 41.6514 21.3328 41.0625C21.2746 40.234 21.3781 39.3927 21.0901 38.5836C20.9769 35.9916 20.6727 33.4124 20.5659 30.8203C20.5465 30.3932 20.54 29.9725 20.773 29.5874Z" fill="#CCD1D2"/>
<path d="M3.32696 31.2076C3.10367 34.6637 2.87715 38.1198 2.65386 41.576C2.35291 41.8348 2.69593 42.3008 2.33997 42.5403C1.71217 41.7378 2.15875 40.8025 2.0196 39.9385C2.02283 39.5113 2.02607 39.0809 2.02931 38.6538C2.46941 37.3852 1.92251 36.0358 2.33997 34.764C2.32378 32.8159 2.8545 30.8969 2.67328 28.9391C2.7736 28.9294 2.87391 28.9229 2.97423 28.9229C3.11338 28.8226 3.25578 28.8194 3.39493 28.9229C3.42082 29.6899 3.70882 30.4601 3.32696 31.2076Z" fill="#D4D9DA"/>
<path d="M3.30786 19.2391C3.31433 19.0255 3.31758 18.8151 3.32405 18.6048C3.60235 18.6339 3.96479 18.7342 3.90007 19.0287C3.30463 21.7438 4.0651 24.5753 2.98425 27.271C2.98425 25.7792 2.98425 24.2873 2.98425 22.7955C2.99073 22.1548 2.9972 21.514 3.00367 20.8765C3.37582 20.3782 2.94866 19.7342 3.30786 19.2391Z" fill="#CAD5DA"/>
<path d="M18.2094 26.9832C16.8568 26.4168 15.7824 24.9671 14.0187 25.692C13.7695 25.7955 13.5139 25.6078 13.3424 25.3845C13.5948 24.3166 14.6303 24.747 15.0381 24.8247C16.2678 25.0609 17.4328 25.6305 18.614 26.0965C18.8534 26.1903 19.1252 26.3877 19.0249 26.6984C18.8955 27.0964 18.5104 26.967 18.2094 26.9832Z" fill="#DADCDC"/>
<path d="M12.6987 25.7044C10.6632 24.8792 8.97078 25.9957 7.20065 26.6752C7.94171 24.6689 11.0451 24.122 12.6987 25.7044Z" fill="#E2E4E3"/>
<path d="M21.1284 24.7122C21.0216 25.2591 21.3291 25.8869 20.8016 26.3465C20.8048 25.7866 20.7725 25.23 20.4715 24.7317C20.4683 24.4081 20.465 24.0844 20.4586 23.7608C20.0799 23.0068 19.9505 22.2528 20.4715 21.5021C20.5751 21.5021 20.6786 21.5021 20.7822 21.5021C21.3679 22.5247 21.054 23.6379 21.1284 24.7122Z" fill="#C2CFD5"/>
<path d="M3.32072 28.9405C3.20422 28.9372 3.09096 28.9308 2.97446 28.9275C3.61196 28.0344 4.35626 27.3613 5.33032 26.8047C5.68305 27.316 4.97435 27.3321 4.93876 27.6493C4.61515 27.9729 4.29154 28.2933 3.96793 28.6169C3.78024 28.7819 3.55048 28.8628 3.32072 28.9405Z" fill="#DCDDDC"/>
<path d="M3.64388 17.9387C3.64388 17.7251 3.64388 17.5116 3.64388 17.298C3.96749 17.2624 4.11952 16.4336 4.414 16.9158C4.68259 17.3624 4.26521 17.8611 3.64388 17.9387Z" fill="#DBDFDF"/>
<path d="M20.0543 27.3757C19.9604 27.408 19.7824 27.5181 19.721 27.4728C19.6239 27.3983 19.5494 27.2106 19.5689 27.0909C19.585 26.9906 19.7727 26.8288 19.8536 26.845C20.0866 26.8935 20.1319 27.0941 20.0543 27.3757Z" fill="#DCDDDC"/>
<path d="M20.7725 29.5887C21.287 32.5886 21.4456 35.6143 21.4521 38.653C21.7628 39.9183 21.6527 41.2159 21.5654 42.4748C21.4715 43.8436 20.3324 44.5685 19.1836 45.028C17.3941 45.7432 15.5204 46.1833 13.5723 46.2124C12.3587 46.0409 11.1323 46.1639 9.91874 46.07C8.8476 45.9891 7.66643 46.1412 6.8736 45.1154C6.41084 44.5815 5.78951 44.8727 5.23938 44.8015C4.23943 44.6882 3.49837 44.2643 3.30097 43.1867C3.49837 43.1058 3.83169 42.9052 3.87375 42.9569C5.12611 44.4002 7.10012 43.5653 8.54341 44.4714C9.96405 45.3613 11.4623 44.0216 13.171 44.6429C12.6856 43.8598 11.417 44.4164 11.7115 43.6074C11.9089 43.0605 12.1516 42.0864 13.3522 42.1415C14.2033 42.1771 15.4071 41.9894 14.7826 40.3454C14.4978 39.5882 14.8829 38.5785 14.9638 37.6822C15.0253 37.6336 15.0835 37.5883 15.1418 37.5398C15.3683 37.4653 15.5916 37.488 15.8084 37.5721C16.8731 38.009 17.2873 37.7404 16.7889 36.6175C16.4071 35.7502 16.1126 34.925 16.8989 34.1225C17.983 33.2034 18.3972 31.8022 19.3292 30.757C19.7726 30.2651 20.1965 29.8606 20.7725 29.5887Z" fill="#F4F1ED"/>
<path d="M6.87746 45.1156C9.05534 46.2223 11.3983 45.6075 13.6667 45.7758C13.8318 46.1447 13.6247 46.3615 13.3528 46.5524C13.1134 46.6301 12.8933 46.6107 12.7056 46.4294C11.9452 46.4327 11.1814 46.4392 10.421 46.4424C9.09094 46.3971 7.80945 46.0961 6.54739 45.7078C6.32733 45.6398 5.97784 45.5104 6.26585 45.1868C6.36941 45.0735 6.66712 45.135 6.87746 45.1156Z" fill="#CACFD0"/>
<path d="M3.30428 43.1867C3.75733 43.9569 4.43367 44.4617 5.24269 44.8015C3.97738 44.8792 3.3334 44.3808 2.33993 42.5427C2.36906 42.1964 2.27845 41.8114 2.65383 41.5784C2.81563 42.135 2.87389 42.7336 3.30428 43.1867Z" fill="#CACCCD"/>
<path d="M2.33686 34.7651C2.20418 36.0595 2.67018 37.3993 2.0262 38.6548C2.17506 37.3604 1.68641 36.0174 2.33686 34.7651Z" fill="#F0EFED"/>
<path d="M3.30786 19.2391C3.25932 19.7924 3.49884 20.4 3.00372 20.8724C3.0652 20.3191 2.78038 19.705 3.30786 19.2391Z" fill="#F4F4F3"/>
<path d="M22.1027 42.2189C22.0995 40.7044 22.0995 39.1899 22.0963 37.6754C22.7402 39.1511 22.2652 40.7005 22.4076 42.2085C22.3105 42.3476 22.2095 42.358 22.1027 42.2189Z" fill="#E2E1DF"/>
<path d="M22.1027 42.2189C22.2063 42.2124 22.3065 42.2096 22.4101 42.2096C22.4101 43.6238 21.4846 44.4263 20.4393 45.1253C18.1158 46.6786 15.404 46.7498 12.7698 47.0249C11.8767 47.1187 12.6959 46.643 12.7056 46.4294C12.9192 46.423 13.1323 46.4133 13.3491 46.4068C14.5464 45.9538 15.8215 45.8987 17.0609 45.6722C19.1417 45.2936 20.7435 44.1124 22.08 42.5268C22.0832 42.4232 22.093 42.3192 22.1027 42.2189Z" fill="#ECEDED"/>
<path d="M18.8638 5.34394C19.5337 5.36659 19.8961 5.75492 19.7764 6.37624C19.6405 7.08171 19.6017 7.91985 18.77 8.25316C17.9383 8.58648 17.084 8.85507 16.2459 9.14955C15.6472 8.13019 17.2458 7.57035 16.6115 6.63513C17.605 6.62866 18.3849 6.24356 18.8638 5.34394Z" fill="#8C8C8B"/>
<path d="M16.2288 6.6053C14.8794 7.12631 13.3811 7.16191 12.0899 7.86737C11.6627 7.75087 11.1644 7.77352 10.9379 7.2687C10.8699 7.0357 10.8958 6.81888 11.0738 6.63766C12.7921 6.44997 14.5072 5.98398 16.2288 6.6053Z" fill="#C3C3C1"/>
<path d="M8.49255 7.26014C8.389 7.27632 8.28868 7.30544 8.18836 7.34104C7.7256 7.86204 7.28226 7.74231 6.84862 7.3022C6.05902 7.16305 5.69982 6.49642 5.22088 5.97541C5.29531 5.52884 5.49271 5.35085 5.97165 5.54178C6.69006 5.82979 7.43111 6.06279 8.16247 6.32167C8.55079 6.53849 9.37923 6.59674 8.49255 7.26014Z" fill="#E4E4E3"/>
<path d="M12.0619 5.34354C11.2172 5.84189 10.227 5.6898 9.32413 5.95192C8.40832 6.21728 9.21088 4.91638 8.48276 4.94874C8.63162 4.51834 9.10408 4.46333 9.30472 4.61542C10.0231 5.16232 10.7092 4.70927 11.4049 4.67367C11.6444 4.87754 11.9648 5.00051 12.0619 5.34354Z" fill="#B1B2B0"/>
<path d="M12.3365 1.83334C12.8995 1.17318 13.1164 1.72978 13.3493 2.13429C13.6276 2.61647 13.2749 2.86888 12.9092 2.91742C12.097 3.02421 11.2718 3.03715 10.3689 3.09217C10.6116 2.46437 11.0647 2.48379 11.453 2.3867C11.7281 2.17312 12.1132 2.13429 12.3365 1.83334Z" fill="#BABAB8"/>
<path d="M8.49255 7.26014C8.87764 6.77472 8.38899 6.5935 8.16247 6.32167C9.13329 6.42846 10.1001 6.53488 11.0709 6.63844C11.0742 6.84878 11.0774 7.05913 11.0806 7.26947C11.0418 7.44745 10.9318 7.55101 10.7538 7.58337C9.97066 7.7031 9.23685 7.44783 8.49255 7.26014Z" fill="#CDCDCC"/>
<path d="M14.9872 3.69351C15.1296 3.42492 15.3882 3.38363 15.6503 3.33832C15.9513 3.09562 16.2522 3.09238 16.55 3.34803C16.6729 3.46777 16.7959 3.5875 16.9189 3.71047C16.2717 4.27031 15.6215 4.80672 14.9872 3.69351Z" fill="#CDCFCE"/>
<path d="M7.51445 3.71614C7.19408 2.55439 7.98045 2.4832 8.783 2.43142L8.79595 2.4379C8.79271 2.73885 8.7927 3.0398 8.78947 3.34076C8.5144 3.97503 8.09048 4.11094 7.51445 3.71614Z" fill="#807F7E"/>
<path d="M7.51445 3.71614C7.99016 3.76468 8.41477 3.6315 8.79015 3.34349C9.42118 4.35314 8.38241 4.15898 8.01349 4.3046C7.72872 4.41786 7.03552 4.4572 7.51445 3.71614Z" fill="#C7C8C4"/>
<path d="M12.0609 5.3428C11.637 5.32014 11.4008 5.11627 11.404 4.67617C11.6791 4.55967 11.9606 4.32667 12.2163 4.70205C12.4007 4.96418 12.3166 5.17776 12.0609 5.3428Z" fill="#D7D8D6"/>
<path d="M12.3365 1.83334C12.6277 2.95625 11.7054 2.14076 11.453 2.3867C11.563 1.91424 11.8931 1.78156 12.3365 1.83334Z" fill="#616060"/>
<path d="M4.94535 5.03545C4.81914 4.90924 4.6897 4.78627 4.5635 4.66006C4.78679 4.44648 5.0748 4.17465 5.31751 4.49179C5.48255 4.71184 5.1557 4.906 4.94535 5.03545Z" fill="#DDDFDD"/>
<path d="M8.783 2.43142C8.91244 2.14018 9.08087 1.88492 9.44655 1.91081C9.61482 1.92375 9.74427 2.05643 9.63424 2.22471C9.43037 2.5289 9.08411 2.38975 8.7961 2.44153C8.7961 2.43829 8.783 2.43142 8.783 2.43142Z" fill="#D6D8D7"/>
<path d="M6.84763 7.3007C7.29744 7.20686 7.73108 7.66638 8.18737 7.3363C7.79904 9.17762 6.74408 8.43333 5.71501 8.05147C5.87357 7.33954 6.64052 7.77964 6.84763 7.3007Z" fill="#AAAAA9"/>
<path d="M10.7575 7.58209C10.8675 7.47854 10.9743 7.37175 11.0843 7.2682C11.4209 7.46883 11.7533 7.66997 12.0899 7.86737C11.9702 7.99034 11.8513 8.10957 11.7283 8.23254C11.4047 8.31668 11.0843 8.74708 10.7575 8.23578C10.7607 8.01896 10.7607 7.79891 10.7575 7.58209Z" fill="#A5A5A4"/>
<path d="M14.3003 10.873C14.844 10.7565 15.3876 10.6368 15.9345 10.5203C16.3584 11.3778 15.653 11.8309 15.1384 11.8406C14.3294 11.8535 13.4913 12.2063 12.6823 11.8179L12.6985 11.7856C12.2648 11.5752 11.9833 11.8115 11.7309 12.1189C10.5335 12.0477 9.30382 12.3713 8.13883 11.8535C8.52069 11.7726 8.87018 11.6626 8.79252 11.1546C10.6274 11.0801 12.4849 11.407 14.3003 10.873Z" fill="#B0B1B0"/>
<path d="M8.78954 13.7132C9.32996 12.9074 8.24589 13.1727 8.16822 12.7747C10.6373 13.1469 13.1 13.1727 15.5594 12.697C15.8313 12.752 16.1195 12.784 16.2554 13.0849C13.7766 13.4312 11.3072 13.8459 8.78954 13.7132Z" fill="#B9BAB9"/>
<path d="M12.6796 11.8182C13.7086 11.2454 15.4917 12.5657 15.9318 10.5205C16.2457 10.4882 16.5564 10.459 16.8703 10.4267C16.6632 11.0868 17.4042 10.8441 17.566 11.1548C17.5596 11.2551 17.5434 11.3522 17.511 11.446C16.2295 11.8182 14.9448 12.1353 13.5986 12.2065C13.1682 12.2292 12.877 12.213 12.6796 11.8182Z" fill="#ABACAB"/>
<path d="M11.7276 12.1209C11.7212 11.9267 11.6435 11.6031 11.7179 11.5643C12.0771 11.3733 12.4363 11.4284 12.6984 11.7876C12.3878 11.9396 12.1224 12.2115 11.7276 12.1209Z" fill="#CED0CF"/>
<path d="M12.7307 9.2102C13.4491 8.14553 14.4232 8.16819 15.4976 8.48209C15.3778 9.48527 14.3297 8.95178 13.9931 9.52133C13.5595 9.46308 13.0576 9.68914 12.7307 9.2102Z" fill="#939292"/>
<path d="M20.4717 21.5042C20.4685 22.2582 20.4653 23.009 20.4588 23.763C19.4103 22.7792 19.6886 21.6628 20.1384 20.5334C20.2517 20.8538 20.3617 21.1774 20.4717 21.5042Z" fill="#F4F4F3"/>
<path d="M16.5494 3.34605C16.2485 3.34281 15.9508 3.33958 15.6498 3.33634C15.5689 3.01921 14.9087 2.90271 15.2938 2.44966C15.4815 2.22961 15.8019 2.01279 16.1352 2.22313C16.5462 2.48526 16.9637 2.77327 16.5494 3.34605Z" fill="#858484"/>
<path d="M17.566 11.1548C17.0547 11.1807 16.6017 11.1483 16.8703 10.4267C16.9835 10.3393 17.0999 10.2535 17.2164 10.1661C17.8604 10.2082 17.8929 10.6606 17.8767 11.146C17.7732 11.146 17.6696 11.1483 17.566 11.1548Z" fill="#BDBFBD"/>
<path d="M16.9054 34.119C16.6207 34.9669 16.6854 35.7694 17.2064 36.5137C17.6012 37.08 17.8471 37.7693 17.2161 38.19C16.6724 38.5524 15.9734 38.4003 15.611 37.6787C15.3942 37.3227 15.1774 37.2259 14.9638 37.6822C14.7534 37.7178 14.4978 37.8437 14.3392 37.7693C13.4817 37.3583 13.4946 37.3486 12.6306 38.2062C12.5011 38.3324 12.2455 38.4521 12.0934 38.41C11.8086 38.3324 11.7633 38.0282 11.7374 37.7531C11.6727 37.0962 12.6824 35.8633 10.676 36.3228C9.90905 36.5008 10.3362 35.1351 10.4365 34.4459C11.8021 34.0769 13.0254 34.1223 13.5237 35.7759C14.0286 35.3778 13.9768 35.1384 13.8668 34.873C13.7632 34.6238 13.3004 34.3973 13.7826 34.0899C14.0674 33.9087 14.3328 33.8116 14.6467 34.1061C15.3812 34.7986 16.1482 34.7856 16.9054 34.119Z" fill="#F8F6F3"/>
<path d="M10.4367 34.4416C9.72152 34.1989 9.31055 33.5128 9.47235 32.8268C9.68593 33.0565 9.89628 33.1213 10.1099 32.8268C10.5014 32.9045 11.1001 32.597 11.236 33.1342C11.3784 33.7135 10.5856 33.9206 10.4367 34.4416Z" fill="#F8F6F3"/>
<path d="M16.5822 31.8504C16.8993 31.9184 17.4365 31.7242 17.3847 32.2905C17.3459 32.708 16.9931 33.0607 16.5142 33.0283C16.1582 33.0024 15.7408 32.8503 15.6987 32.4297C15.6405 31.776 16.1841 31.8989 16.5822 31.8504Z" fill="#F4F1ED"/>
<path d="M3.32088 28.9415C3.46003 28.6826 3.6995 28.6211 3.96486 28.6179C3.31764 29.6179 3.7448 30.3136 4.61207 30.8799C4.47615 31.1453 4.14284 31.0191 3.9681 31.2068C3.75451 31.2068 3.54094 31.21 3.32412 31.21C3.01993 30.4528 3.41149 29.6955 3.32088 28.9415Z" fill="#F7F6F5"/>
<path d="M8.99672 33.1701C7.99354 33.2931 7.46605 33.2186 7.05831 32.7462C6.8868 32.5455 6.99683 32.2931 7.21688 32.2575C7.84792 32.1604 8.26537 32.5326 8.99672 33.1701Z" fill="#EEEBE6"/>
<path d="M6.89288 39.6033C6.43983 39.0532 6.45277 38.639 6.87993 38.2668C6.94789 38.2086 7.21972 38.2571 7.28444 38.3445C7.64041 38.8072 7.27797 39.1211 6.89288 39.6033Z" fill="#EFECE8"/>
<path d="M3.96815 31.2021C4.10407 30.9399 4.34677 30.8849 4.61213 30.8752C4.96809 31.0661 5.2917 31.2797 5.38231 31.7263C4.68009 32.0208 4.43091 31.3444 3.96815 31.2021Z" fill="#E7E5E2"/>
<path d="M4.57353 41.7891C4.5347 42.0739 4.41497 42.3198 4.10431 42.3231C3.8616 42.3263 3.74186 42.1063 3.7451 41.8797C3.74833 41.5755 3.94897 41.3878 4.23698 41.3587C4.52499 41.3296 4.55088 41.5723 4.57353 41.7891Z" fill="#F4F1ED"/>
<path d="M12.2389 30.9416C12.1095 31.1487 11.9218 31.2134 11.7082 31.1131C11.5011 31.0128 11.3911 30.8283 11.4817 30.5985C11.5723 30.3752 11.7535 30.2814 11.9768 30.427C12.1548 30.5435 12.3101 30.6891 12.2389 30.9416Z" fill="#E9E7E3"/>
<path d="M15.4038 27.5567C15.3132 27.7735 15.1578 27.9127 14.9216 27.835C14.6886 27.7573 14.6174 27.5405 14.7177 27.3334C14.7695 27.2266 14.954 27.1133 15.0672 27.1231C15.2938 27.1425 15.42 27.314 15.4038 27.5567Z" fill="#EAEBE9"/>
<path d="M18.1093 29.5745C18.064 30.0308 17.9507 30.1732 17.7889 30.0987C17.6174 30.0243 17.4135 29.8755 17.3618 29.7137C17.2873 29.4774 17.4783 29.335 17.721 29.3998C17.9151 29.4548 18.0931 29.568 18.1093 29.5745Z" fill="#E6E4E1"/>
<path d="M15.5204 29.4618C15.4687 29.8404 15.2616 29.9019 15.0512 29.8501C14.9347 29.821 14.7761 29.6657 14.7664 29.5524C14.747 29.3291 14.9153 29.1188 15.1321 29.1447C15.2842 29.1641 15.4169 29.3744 15.5204 29.4618Z" fill="#ECEBE8"/>
<path d="M9.25304 43.2518C9.00063 43.2324 8.92297 43.0415 8.87442 42.8441C8.82265 42.6337 8.87442 42.4169 9.10742 42.3683C9.38896 42.3101 9.42132 42.5625 9.45368 42.7534C9.48281 42.9476 9.4828 43.1515 9.25304 43.2518Z" fill="#DEDDDA"/>
<path d="M9.37214 36.6352C9.34948 36.8973 9.17474 37.0106 8.94821 36.9717C8.822 36.9523 8.64725 36.8196 8.62136 36.7096C8.56635 36.4831 8.69903 36.2825 8.94173 36.2598C9.17473 36.2404 9.30741 36.4184 9.37214 36.6352Z" fill="#E3E1DE"/>
<path d="M10.1063 32.8278C10.1484 33.0446 10.417 33.352 9.99308 33.4264C9.5821 33.4976 9.49149 33.1643 9.46884 32.8278C9.68242 32.8278 9.896 32.8278 10.1063 32.8278Z" fill="#E3E1DC"/>
<path d="M22.0765 42.5264C21.4002 44.3094 19.8825 45.167 18.2289 45.6686C16.6594 46.1443 15.0187 46.4711 13.3424 46.4096C13.4492 46.1993 13.556 45.989 13.6628 45.7786C15.7112 45.743 17.6884 45.2705 19.5136 44.413C20.9698 43.7302 21.6882 42.4519 21.4552 40.7368C21.3614 40.054 21.4455 39.3485 21.4487 38.6528C22.0345 39.3388 21.6461 40.1576 21.7562 40.9051C21.8371 41.452 21.5588 42.0668 22.0765 42.5264Z" fill="#D3D6D8"/>
<path d="M20.7734 40.5968C20.0356 39.8072 19.4531 38.9852 20.3365 37.8234C20.5015 38.8655 20.6375 39.7295 20.7734 40.5968Z" fill="#E9E4E1"/>
<path d="M18.621 40.9145C18.6663 40.6071 18.8411 40.3741 19.1291 40.4032C19.6339 40.4582 19.498 40.9727 19.6275 41.2834C19.7148 41.4873 19.511 41.7462 19.2942 41.6879C18.9285 41.5908 18.6728 41.3125 18.621 40.9145Z" fill="#E6E2DE"/>
<path d="M14.9678 37.6788C14.9484 37.2873 14.9258 36.899 14.9031 36.4847C15.6701 36.6271 15.5859 37.1805 15.6151 37.6756C15.3982 37.6788 15.1814 37.6788 14.9678 37.6788Z" fill="#FBFAF7"/>
<path d="M14.1744 43.0878C14.0029 43.2302 13.8993 43.3726 13.7828 43.3856C13.6987 43.3953 13.5919 43.2367 13.498 43.1526C13.5983 43.062 13.6857 42.9196 13.8022 42.8937C13.8864 42.871 14.0093 42.994 14.1744 43.0878Z" fill="#CDC8C4"/>
</svg>
