<svg width="7" height="9" viewBox="0 0 7 9" fill="none" xmlns="http://www.w3.org/2000/svg">
<path d="M6.54968 0.322714C5.92165 -0.191477 5.42327 -0.102583 4.84239 0.671319C3.4912 2.47012 2.16779 4.29071 0.801452 6.07643C0.212149 6.84598 0.190261 7.76891 0 8.59859C0.00252558 8.94806 0.13133 9.07443 0.399884 8.95765C1.18618 8.61689 1.99184 8.30315 2.53485 7.55365C3.3826 6.38146 4.24803 5.22061 5.10337 4.05278C5.66236 3.29021 6.27608 2.57121 6.77699 1.76245C7.13309 1.19074 7.06659 0.746269 6.54968 0.322714ZM1.69635 8.01903C1.23585 8.3781 0.888164 8.41906 0.602773 8.15586C0.492489 8.05389 0.421773 7.93885 0.444503 7.69134C0.459656 7.60855 0.478177 7.43425 0.526164 7.26953C0.603615 7.00198 0.635605 6.7475 1.00855 7.08826C1.22659 7.28784 1.48252 7.45342 1.70645 7.67217C1.89335 7.85519 1.84115 7.90661 1.69635 8.01903ZM5.91155 2.12587C5.58238 1.86093 5.26163 1.58466 4.94004 1.31101C4.89458 1.27266 4.86259 1.20817 4.90721 1.16024C4.93836 1.12712 5.0175 1.10185 5.05285 1.12015C5.45695 1.32321 5.8139 1.59164 6.09676 1.95767C6.11276 1.97859 6.11444 2.01083 6.12286 2.04134C6.09844 2.18862 5.99995 2.19734 5.91155 2.12587Z" fill="#827D79"/>
</svg>
