<svg width="14" height="21" viewBox="0 0 14 21" fill="none" xmlns="http://www.w3.org/2000/svg">
<path d="M0 5.82609C0 4.16149 0 2.49689 0 0.832298C0 0.273292 0.283349 0 0.862925 0C3.99264 0 7.10947 0 10.2392 0C10.8832 0 11.1665 0.322981 11.0764 0.944099C10.8059 2.75776 10.5483 4.55901 10.2649 6.37267C10.2392 6.54658 10.3293 6.52174 10.4324 6.52174C11.3468 6.52174 12.2484 6.52174 13.1628 6.52174C13.4848 6.52174 13.7424 6.6087 13.897 6.89441C14.0644 7.18012 13.9871 7.45341 13.7939 7.70186C11.3468 11.118 8.88684 14.5466 6.43974 17.9752C6.0276 18.5466 5.62833 19.118 5.21619 19.677C4.85557 20.1615 4.17295 20.1118 3.92824 19.6025C3.86385 19.4534 3.86385 19.2919 3.86385 19.1429C3.86385 16.7329 3.86385 14.3354 3.86385 11.9255C3.86385 11.6398 3.86385 11.6398 3.55474 11.6398C2.66605 11.6398 1.77737 11.6398 0.888684 11.6398C0.283349 11.6398 0 11.3665 0 10.795C0 9.13043 0 7.47826 0 5.82609ZM5.33211 16.9193C5.34499 16.9193 5.37074 16.9317 5.38362 16.9317C7.5345 13.9379 9.67249 10.9565 11.8491 7.92547C11.7332 7.92547 11.6559 7.92547 11.5787 7.92547C10.8445 7.92547 10.1233 7.92547 9.38914 7.92547C8.93836 7.92547 8.6035 7.54037 8.66789 7.10559C8.69365 6.90683 8.73229 6.70807 8.75805 6.50932C9.00276 4.86956 9.23459 3.24224 9.49218 1.61491C9.51794 1.42857 9.45354 1.42857 9.31187 1.42857C6.77461 1.42857 4.23735 1.42857 1.70009 1.42857C1.53266 1.42857 1.48114 1.47826 1.48114 1.63975C1.48114 4.42236 1.48114 7.21739 1.48114 10C1.48114 10.1739 1.53266 10.2236 1.71297 10.2236C2.62741 10.2112 3.52898 10.2236 4.44342 10.2236C5.04876 10.2236 5.33211 10.5093 5.33211 11.0932C5.33211 12.9565 5.33211 14.8199 5.33211 16.6957C5.33211 16.7578 5.33211 16.8447 5.33211 16.9193Z" fill="white"/>
</svg>
