<svg width="60" height="47" viewBox="0 0 60 47" fill="none" xmlns="http://www.w3.org/2000/svg">
<path d="M22.7679 1.9947C24.0566 4.52675 26.1821 5.99208 28.6662 7.20686C35.2593 10.4222 38.3597 16.5341 39.6596 23.2496C40.8587 29.4487 38.8752 35.2227 33.9406 39.5656C33.653 39.4517 33.4214 39.2771 33.3168 38.9658C33.3766 37.2157 34.4972 35.8339 34.9193 34.2016C35.8196 30.7318 35.8793 27.2507 34.9828 23.8152C34.2395 20.968 33.018 18.2765 31.7405 16.2228C32.495 17.6578 33.3803 19.628 34.2656 21.5944C35.8868 25.2046 35.4871 28.9704 35.3788 32.7248C35.3676 33.0817 35.2555 33.4841 34.7998 33.5866C34.0826 32.8995 33.8099 31.9542 33.3915 31.0925C33.2757 29.5095 33.3542 27.9378 33.399 26.8787C33.1861 28.6667 33.3206 30.971 33.4251 33.2791C33.4476 33.4765 33.4326 33.6701 33.3915 33.8599C32.5398 35.534 31.9048 37.3144 31.0083 38.9658C30.6273 39.6681 30.3509 40.507 29.3423 40.5298C29.1368 40.488 28.9837 40.3704 28.8828 40.1843C28.5803 39.3834 29.0248 38.7304 29.2788 38.0281C30.3695 34.9874 30.8664 31.8555 30.6124 28.6212C30.4741 28.0479 30.4629 27.4595 30.4293 26.8749C30.1454 24.768 29.6972 22.6877 29.346 20.5884C29.4021 20.9453 29.4656 21.2983 29.3572 21.6589C29.036 22.4524 28.5541 23.1319 27.9378 23.7165C26.5295 23.1053 27.8556 21.9247 27.3588 21.2945C27.1496 22.441 27.3401 23.7279 27.695 25.0224C27.8705 25.6601 28.1283 26.3662 27.68 27.0344C25.562 27.004 25.562 27.004 25.0166 24.0885C24.7664 22.608 24.5572 21.1275 24.7552 19.6204C24.8485 19.3091 25.4089 19.3698 25.3342 18.9864C24.8635 16.4923 26.0065 14.0058 25.3528 11.5155C25.3304 11.4358 25.6853 11.2954 25.3379 11.2688C25.1773 11.2574 24.9419 11.3561 24.8747 11.5269C24.6394 12.1001 25.1698 12.4266 25.3491 12.8632C25.8646 14.1311 25.8086 15.1864 24.4115 15.809C24.1687 18.7169 24.6468 21.5754 24.9121 24.4529C25.0764 26.222 25.5508 28.0403 24.5684 29.7448C22.7492 29.6727 24.1575 27.8202 23.2311 27.2128C23.1825 27.0002 23.0182 27.4178 23.205 27.2507C23.3917 28.4845 23.9296 29.7486 22.8949 30.8723C22.7305 30.952 22.5625 30.9596 22.3906 30.8989C22.0283 29.7942 21.0757 29.9954 20.2502 29.9119C19.6077 28.4427 20.4631 26.7345 19.533 25.3109C19.4172 25.1704 19.3201 25.0186 19.2379 24.8553C18.7411 21.2679 18.9279 17.7603 20.2241 14.3323C20.3585 13.9717 20.0709 14.4462 19.9439 14.4006C19.7086 14.3171 20.0597 14.4652 19.8206 14.5449C18.6664 17.2668 18.4572 20.243 17.5831 23.0332C17.0377 25.6411 16.2944 28.2074 16.0254 30.8685C15.7826 31.6429 15.6967 32.4401 15.6855 33.2525C15.678 33.7498 15.7004 34.4028 15.2298 34.5888C14.4827 34.8849 14.4453 35.3366 14.789 35.8605C15.2148 36.5058 15.424 37.5308 16.5783 37.2119C17.74 38.5899 17.7138 40.5905 18.9839 41.9116C19.2865 42.538 20.2166 42.8758 19.8281 43.8173C19.4658 44.1665 19.081 44.4171 18.5618 44.1514C17.8931 44.0375 17.2245 43.8515 16.5521 43.8249C9.5967 43.5516 3.98606 38.4685 2.51429 31.4569C0.459792 21.6741 4.75182 14.7916 11.9837 9.17329C13.8999 7.68518 15.8424 6.18948 18.1546 5.34293C19.1557 5.59728 20.0074 4.83045 20.9936 4.99369C19.5928 4.81526 19.5928 4.81526 19.3649 3.87381C19.7422 3.12216 20.1195 2.37432 20.4967 1.62267C21.27 1.64165 22.0806 1.41768 22.7679 1.9947Z" fill="#F9C794"/>
<path d="M29.0659 40.3324C29.2003 40.3362 29.3386 40.34 29.473 40.34C30.4293 40.5222 30.4704 39.6415 30.8029 39.129C31.5275 38.0129 31.7629 36.6159 32.7304 35.6327C33.1749 35.6327 33.582 35.758 33.9332 36.0389C34.2656 36.6729 33.9033 37.2005 33.6605 37.7396C33.4476 38.2141 33.0441 38.6659 33.5484 39.1935C33.6754 39.315 33.8062 39.4403 33.9332 39.5618C31.5873 42.09 28.8081 43.7034 25.3117 43.8439C24.9681 43.8591 24.6282 44.0716 24.2882 44.1931C22.753 44.2501 21.1803 44.7056 19.7459 43.7414C19.7758 42.929 18.7896 42.9024 18.6253 42.2419C18.7747 42.0483 18.8158 41.7901 18.969 41.6003C19.5293 40.359 18.9577 39.148 18.9092 37.9218C18.8756 37.0525 17.6466 35.8263 19.5255 35.4277C19.3462 34.9874 19.3836 34.5774 19.7086 34.2129C21.0907 34.6343 20.3511 35.8909 20.6648 36.7336C20.7508 36.969 20.5864 36.7336 20.7508 36.8855C20.9562 37.0791 20.9973 36.7488 21.1019 36.6235C21.7593 35.5264 21.3559 34.2889 21.5726 33.1386C21.6585 32.7438 21.7967 32.3832 22.2076 32.2237C23.3506 32.2807 23.0518 33.3208 23.3469 33.951C23.4029 34.1218 23.4403 34.2965 23.4739 34.4711C23.6084 35.2607 23.5486 36.0655 23.5636 36.8627C23.5636 36.912 23.6271 36.9576 23.6607 37.0069C23.7055 36.9728 23.7466 36.9386 23.7952 36.8855C24.1874 35.1468 24.4713 33.4119 24.4713 31.6429C24.4713 30.6863 24.5647 29.7638 25.0241 28.9097C26.0215 28.959 25.4985 29.7676 25.6517 30.2042C25.6928 29.6347 25.8683 29.0501 26.5034 28.9628C27.2206 28.8641 27.0711 29.6196 27.2691 30.0144C27.4634 30.4016 27.7996 30.7015 27.9116 31.138C28.2926 33.4917 26.974 35.6137 27.0338 37.9218C26.6714 38.9316 26.2718 39.93 25.7152 40.8563C26.2568 40.0439 26.5594 39.1214 26.9703 38.2445C27.0898 35.8719 28.061 33.6359 28.0685 31.2443C29.2265 29.8245 29.5365 29.8967 30.4741 31.81C30.8664 34.7558 29.798 37.3714 28.6849 39.9831C28.6288 40.116 28.4047 40.2337 28.5728 40.4349C28.711 40.3058 28.8754 40.2565 29.0659 40.3324Z" fill="#F9C692"/>
<path d="M19.7497 43.7414C21.255 43.9805 22.8538 43.2479 24.292 44.1931C24.2808 44.5006 24.3293 44.9903 24.0006 44.9941C22.3309 45.0169 20.6574 44.9713 18.9876 44.8954C18.6216 44.8802 18.6141 44.4589 18.573 44.1514C18.9652 44.0147 19.3574 43.878 19.7497 43.7414Z" fill="#F4B579"/>
<path d="M19.3649 3.87381C19.4396 4.80767 20.183 4.50018 20.62 4.44324C21.0197 4.39389 21.3073 3.5891 21.834 4.20787C21.9349 4.32556 21.8602 4.81526 21.7556 4.86082C21.1953 5.09618 20.8217 6.22365 20.2241 5.66941C19.6451 5.13414 19.6675 5.63904 19.5218 5.83264C18.5693 7.074 18.4236 6.05662 18.1621 5.34673C18.5581 4.85323 18.9615 4.36352 19.3649 3.87381Z" fill="#FBCD9D"/>
<path d="M22.7679 1.9947C22.0096 1.88461 21.1654 2.32117 20.5005 1.62267C21.4119 0.764732 22.1964 0.707789 22.7679 1.9947Z" fill="#F3B57C"/>
<path d="M16.384 14.1463C15.3269 15.7521 14.6508 17.5742 13.0894 19.1041C14.4491 19.404 13.9634 17.9918 15.0878 18.2652C14.1689 20.2847 14.3221 22.4827 13.9821 24.6124C13.8626 25.364 13.7954 26.1043 13.7729 26.8559C13.758 27.4178 13.8738 28.0631 13.2574 28.363C12.6598 28.6553 12.6187 27.6493 12.0098 27.7366C11.9538 28.5263 11.6736 29.2817 11.8492 30.1244C11.9874 30.7888 11.498 30.5762 11.1544 30.4661C10.1645 28.3592 11.2403 26.2941 11.3001 24.21C11.33 23.2078 11.6774 22.2398 11.9725 21.2793C12.8204 18.4018 13.6048 15.4901 15.3119 12.9733C15.5958 12.5557 15.6257 11.8344 16.3728 11.8572C16.6567 11.3903 16.892 10.8892 17.2357 10.4678C17.598 10.0236 17.8408 10.2059 17.8857 10.7297C18.0201 12.1647 16.9294 13.0302 16.384 14.1463Z" fill="#FACC9E"/>
<path d="M19.3761 24.7756C19.5031 24.7756 19.6264 24.7756 19.7534 24.7794C20.3996 27.3418 20.1083 29.9574 20.183 32.5464C19.7571 33.6587 19.1744 34.1408 18.0463 32.9071C18.1285 34.5166 18.2854 35.9174 18.7261 37.3676C19.0399 38.3925 20.4631 39.949 18.263 40.7576C16.2346 37.1398 15.4165 33.2867 16.1449 29.1602C16.3952 27.7442 16.6231 26.3169 17.0116 24.9313C18.1808 24.639 18.6216 25.0641 18.2891 26.2561C18.954 26.0056 17.6952 24.2593 19.3761 24.7756Z" fill="#F9C793"/>
<path d="M10.7883 24.7794C10.7435 23.9784 10.7099 22.8396 9.96651 22.7409C9.16339 22.6346 8.52463 23.4849 8.42377 24.4909C8.39389 24.7984 8.11 25.0148 7.55341 24.9578C7.8784 23.614 8.19591 22.2853 8.53584 20.8769C7.65054 21.192 8.08011 22.4789 7.06033 22.4941C6.46266 21.8488 6.84368 21.2034 7.08648 20.5808C8.0577 18.064 9.4697 15.7938 10.9938 13.5958C11.371 13.0492 11.7969 12.4494 12.6262 12.6126C13.1902 13.0682 10.6314 14.412 13.1416 14.4766C13.3695 14.4842 12.727 16.2418 12.1518 16.8036C11.2851 17.6502 11.4009 16.0861 10.8107 15.9381C9.93663 16.9745 9.26425 18.1133 8.79732 19.609C9.89181 19.423 10.1458 18.4474 11.2777 18.0716C9.86566 19.8216 10.2392 21.3628 11.1394 22.8737C11.5989 23.6178 11.8828 24.3315 10.7883 24.7794Z" fill="#F9C28D"/>
<path d="M25.3416 28.94C24.6692 31.1077 25.0652 33.3892 24.6282 35.5872C24.4601 36.4337 24.6506 37.4093 23.4926 37.6713C23.0032 36.5552 23.515 35.4353 23.4776 34.3192C24.023 32.8311 22.8576 31.0545 24.2359 29.7069C24.9905 28.0973 24.7029 26.3814 24.4937 24.7604C24.0753 21.4957 23.7727 18.2424 23.8811 14.9207C24.0155 15.0004 24.1575 15.0384 24.1799 15.1105C24.2322 15.2851 24.2285 15.4788 24.2471 15.6648C24.4489 15.8546 24.5833 16.0823 24.6655 16.3481C24.983 17.1946 24.9494 18.1057 25.1437 18.9788C25.1623 19.1649 25.1063 19.3281 24.9756 19.461C25.1026 20.9794 25.2296 22.5017 25.3566 24.0202C25.2482 25.6601 26.4062 27.3039 25.3416 28.94Z" fill="#F7BB81"/>
<path d="M33.5559 39.1935C32.7117 39.3758 32.6818 39.3644 32.7976 39.0493C33.1599 38.0775 33.5447 37.117 33.9182 36.1528C33.6792 35.124 34.0266 34.2699 34.6989 33.522C35.2742 29.6499 35.5954 25.7702 34.0564 22.05C33.0516 19.6242 32.1364 17.1415 30.7468 14.879C32.368 15.9874 33.1151 17.8096 33.8248 19.4648C35.0501 22.3271 36.1856 25.3602 36.096 28.5187C36.0063 31.6353 35.6814 34.8127 34.0975 37.6333C33.8099 38.1382 33.5111 38.5899 33.5559 39.1935Z" fill="#F5B070"/>
<path d="M19.3761 24.7756C18.1696 25.1021 18.9279 26.1195 18.7374 26.7914C18.644 27.1217 18.8494 27.6152 18.3451 27.6379C17.8147 27.6645 17.811 27.1103 17.9081 26.7952C18.1546 26.0056 17.9156 25.3716 17.4897 24.7528C17.2731 24.4947 17.232 24.2024 17.3141 23.8835C17.9118 20.5846 18.7149 17.3351 19.7459 14.1463C20.0111 13.7705 20.239 13.0568 20.7657 13.3871C21.3036 13.7287 21.2401 14.3095 20.5864 14.7195C19.9178 15.1409 19.9999 15.9836 19.914 16.6024C19.5629 19.1914 19.3649 21.8032 19.5181 24.4264C19.5293 24.5441 19.4284 24.6617 19.3761 24.7756Z" fill="#FACC9C"/>
<path d="M30.2089 31.9884C29.6411 31.6012 29.6972 29.6234 28.3412 31.2291C28.0984 31.0166 27.9415 30.7318 27.9303 30.4243C27.8444 28.1618 27.7361 25.8993 27.9639 23.6406C27.8332 22.6991 28.584 22.3005 29.0846 21.7425C29.1443 21.807 29.2041 21.8715 29.2639 21.9399C29.6038 22.3612 28.8007 23.1774 29.7495 23.3938C30.3359 24.4491 30.2986 25.6639 30.575 26.799C30.5787 27.0116 30.5787 27.2242 30.5825 27.4367C30.4517 28.9514 31.2324 30.5458 30.2089 31.9884Z" fill="#FBCD9C"/>
<path d="M17.5121 24.0164C17.5047 24.2631 17.4972 24.5061 17.4934 24.7528C15.8723 30.2231 15.7602 35.5834 18.6178 40.7272C19.01 41.0081 19.2454 41.346 19.01 41.8509C18.883 41.9799 18.756 42.109 18.629 42.2381C17.4299 40.7955 17.0938 38.9544 16.4027 37.2765C14.8487 35.4353 15.5734 33.2943 15.6257 31.2405C15.5996 28.3554 16.6044 25.6601 17.1423 22.8813C18.0724 22.9876 17.6317 23.557 17.5121 24.0164Z" fill="#F5AD6F"/>
<path d="M27.9639 23.6368C28.6774 26.1347 28.203 28.6971 28.3412 31.2253C28.3561 33.7384 27.624 36.0921 26.847 38.4381C26.6154 35.8567 27.9079 33.4309 27.5866 30.8419C27.1085 29.5816 26.7312 28.3213 27.5829 27.0571C27.2504 25.03 26.7013 23.0218 27.0525 20.8428C28.1507 21.5489 27.0749 22.9421 27.9639 23.6368Z" fill="#F7BE85"/>
<path d="M21.9872 33.1158C21.7182 34.38 22.6745 35.8946 21.2401 36.9234C19.7758 36.354 20.691 34.9798 20.3511 34.0193C19.9103 32.7818 19.8617 31.3734 20.5005 30.0903C21.1467 29.8815 20.5565 28.549 21.4231 28.8034C22.23 29.0425 22.3645 30.0068 22.3719 30.8457C22.3645 30.9254 22.3607 31.009 22.3533 31.0887C22.2935 31.7758 21.5016 32.3262 21.9872 33.1158Z" fill="#F9CB9B"/>
<path d="M30.2089 31.9884C30.2164 30.3408 30.2239 28.6933 30.2313 27.0457C31.2212 27.3077 30.5899 28.1201 30.7543 28.6629C30.7954 28.7996 30.8253 28.9932 30.6945 29.1374C30.885 28.9932 30.7319 28.6743 30.9747 28.5566C31.8002 30.6066 30.9672 32.6223 30.7132 34.6039C30.4629 36.5552 29.6411 38.4267 29.0696 40.3324C28.5616 40.6665 28.5205 41.4826 27.5045 41.6421C29.2041 38.5444 30.3471 35.4315 30.2089 31.9884Z" fill="#F5B375"/>
<path d="M20.4967 30.0903C20.4519 32.4022 20.5677 34.6951 21.2364 36.9234C21.1467 37.3676 21.4717 37.9332 20.8516 38.2483C19.604 37.1512 20.6013 35.4391 19.7534 34.2547C19.406 33.8865 19.4882 33.5106 19.7347 33.1348C19.7385 30.3484 19.7459 27.562 19.7497 24.7794C21.1467 26.3814 20.2278 28.3213 20.4967 30.0903Z" fill="#F4B57A"/>
<path d="M24.9756 19.461C24.9718 19.3357 24.9718 19.2104 24.9756 19.0851C24.5871 18.2386 25.0652 17.1453 24.2359 16.424C24.2397 16.1735 24.2434 15.9191 24.2471 15.6686C25.7525 14.8106 25.506 13.7173 24.673 12.5253C24.3816 12.1077 23.6607 11.8268 24.1201 11.1207C24.5161 10.5133 25.1661 11.0752 25.6741 10.8398C25.9019 10.7335 26.2942 11.0866 26.1896 11.1967C25.0129 12.4304 26.6976 13.9071 25.7525 15.2662C25.0353 16.2949 26.2381 17.6312 25.8048 18.8725C25.7451 19.0472 26.6192 19.218 26.1672 19.6735C25.7861 20.057 25.3678 19.5938 24.9756 19.461Z" fill="#F9CD9F"/>
<path d="M32.8237 12.2444C36.7422 16.5189 38.3634 21.5906 37.9039 27.3836C37.6873 21.8526 36.0325 16.872 32.439 12.6354C32.3568 12.2938 32.4651 12.1419 32.8237 12.2444Z" fill="#F4AA67"/>
<path d="M8.55825 15.2889C9.90675 14.6398 10.157 12.867 11.5616 12.2748C11.7707 12.5671 11.7521 12.8518 11.5354 13.1327C9.17833 16.2494 7.38905 19.6659 6.26468 23.4356C6.14515 23.5836 5.99199 23.6823 5.81269 23.7393C5.72678 23.7051 5.64086 23.6709 5.55495 23.633C5.92476 21.9816 6.29457 20.3341 6.66438 18.6827C6.5934 17.1491 7.58703 16.2266 8.55825 15.2889Z" fill="#F9C088"/>
<path d="M10.7883 24.7794C11.3823 24.2366 11.0685 23.5153 11.1469 22.8737C11.0199 21.8791 11.8268 21.1654 11.9239 20.2392C12.6262 20.1974 12.4805 20.5884 12.3012 21.0022C11.9276 24.1606 10.9041 27.2355 11.1544 30.4699C11.1619 30.8457 11.1693 31.2177 11.1805 31.5936C11.2889 32.2693 11.7595 33.0209 10.8107 33.4841C10.1608 30.58 10.4036 27.6797 10.7883 24.7794Z" fill="#F6AC6C"/>
<path d="M27.5829 27.0571C27.5829 28.3175 27.5866 29.5816 27.5866 30.8419C26.4959 30.7774 26.7835 29.8283 26.6042 28.9704C26.2008 29.5968 25.9132 30.0485 25.4388 30.7888C25.3939 29.9726 25.3678 29.4563 25.3416 28.9362C25.3454 27.2963 25.3528 25.6563 25.3566 24.0164C25.4014 24.0581 25.4873 24.1037 25.4873 24.1455C25.5209 25.6184 26.0065 26.742 27.5829 27.0571Z" fill="#FBD0A3"/>
<path d="M5.91355 23.633C6.98936 19.8482 8.77117 16.4278 11.0647 13.2618C11.2777 12.9695 11.3972 12.605 11.5616 12.2748L11.5503 12.2634C11.823 11.7927 12.1518 11.47 12.7233 11.823C12.8876 12.1115 12.8615 12.3811 12.6336 12.624C12.6336 12.624 12.6336 12.6088 12.6299 12.6088C9.94037 15.418 8.02408 18.6751 7.06407 22.4903C7.04913 22.6156 7.04539 22.7371 7.04913 22.8623C6.57846 23.5836 7.07154 24.7035 6.11526 25.2274C5.39806 24.7832 5.54001 24.2214 5.91355 23.633Z" fill="#FCE3C1"/>
<path d="M8.1735 38.8139C7.54221 37.2651 5.992 36.3046 5.5811 34.6191C5.73425 34.4293 5.80522 34.1446 6.12274 34.1598C6.57846 34.3116 6.73535 34.6951 6.83994 35.1164C6.86983 35.2341 6.91092 35.348 6.97068 35.4543C7.02298 35.3366 6.91465 35.2417 6.92586 35.1164C7.0043 34.8507 7.17987 34.7064 7.43014 34.6457C9.15966 36.1452 9.24184 38.5406 10.4185 40.34C10.1757 40.2109 9.9329 40.0818 9.69009 39.9528C8.89818 39.9566 8.56199 39.3492 8.1735 38.8139Z" fill="#F7BA80"/>
<path d="M24.2359 29.7107C23.698 31.195 24.4339 32.7856 23.8661 34.2661C23.6159 34.4863 23.3656 34.4863 23.1153 34.2623C23.1004 33.112 22.3421 32.0453 22.7418 30.8457C23.444 29.946 22.8239 28.8983 23.0593 27.9568C23.1452 27.6114 22.865 26.9091 23.5673 26.9888C24.1724 27.0571 24.3555 27.5658 24.0716 28.1201C23.7578 28.7085 23.9707 29.202 24.2359 29.7107Z" fill="#F9D5AB"/>
<path d="M15.622 31.2443C15.5734 33.2981 15.9208 35.2987 16.399 37.2803C15.622 37.713 15.1663 37.5726 14.6209 36.726C14.1353 35.9744 14.1203 35.0899 13.8476 34.0573C15.1849 34.7178 15.3904 34.1066 15.2895 33.0058C15.2372 32.4211 15.0579 31.7416 15.622 31.2443Z" fill="#FBCEA0"/>
<path d="M10.807 33.4803C11.4196 32.9488 11.0535 32.2199 11.1768 31.5898C11.7894 34.0649 12.077 36.6425 13.4293 38.8823C13.9672 39.7782 14.5312 40.6589 15.17 41.6876C13.3807 40.8107 11.8604 37.8573 10.807 33.4803Z" fill="#F7B779"/>
<path d="M7.42641 34.6419C7.30314 34.7672 7.17987 34.8887 7.06033 35.0139C5.07307 32.7286 4.65097 27.4254 6.26842 25.0945C6.36928 24.2935 6.48507 23.4963 7.05286 22.8661C7.25831 24.1455 6.89224 25.3906 6.62329 26.5864C6.20865 28.4238 6.2983 30.189 6.68679 31.9808C7.07528 32.6945 7.14251 33.5144 7.41147 34.2699C7.4152 34.3952 7.41894 34.5166 7.42641 34.6419Z" fill="#F4AB6A"/>
<path d="M16.384 14.1463C16.0665 12.6392 17.5345 11.9445 17.8857 10.7411C19.1931 11.3827 19.1296 9.68577 20.2614 9.34032C19.4844 11.6484 17.8595 13.0188 16.5857 14.6284C16.5185 14.4652 16.4513 14.3057 16.384 14.1463Z" fill="#F6BC84"/>
<path d="M12.3012 20.9984C12.2713 20.6947 12.2265 20.3986 11.9239 20.2354C12.656 17.1908 13.9747 14.4158 15.6668 11.8116C15.932 11.4017 16.1935 10.9803 16.3765 11.8572C14.2249 14.5411 13.4255 17.8476 12.3012 20.9984Z" fill="#F7B67A"/>
<path d="M17.5121 24.0164C17.4897 23.6026 17.5794 23.1546 17.1386 22.8813C17.7773 20.1329 18.4124 17.3844 19.0549 14.636C19.137 14.2792 19.4359 14.1918 19.7497 14.1425C19.9327 15.5699 19.2267 16.7998 18.9054 18.1171C18.4273 20.0835 17.9753 22.0538 17.5121 24.0164Z" fill="#F7BD86"/>
<path d="M34.6989 33.522C34.684 34.4749 34.2992 35.3138 33.9182 36.1528C33.5073 36.1528 33.074 36.2173 32.8125 35.7694C32.3643 35.0215 32.9582 34.4901 33.1973 33.8827C33.1973 33.7498 33.1935 33.6207 33.1935 33.4879C32.9657 32.6679 33.1114 31.92 33.5932 31.2329C34.5607 31.6961 34.7774 32.535 34.6989 33.522Z" fill="#FBCE9E"/>
<path d="M4.41563 30.8533C3.04099 27.6607 3.67602 24.5099 4.60241 21.3666C4.79291 22.5093 4.19898 23.6216 4.44925 24.768C4.57999 24.9351 4.69206 25.1173 4.78544 25.3109C5.03945 27.1027 5.00584 28.9021 4.92739 30.7053C4.80786 30.9292 4.63603 30.9786 4.41563 30.8533Z" fill="#F5AC6C"/>
<path d="M30.2313 26.6889C29.9736 25.5462 29.7196 24.3998 29.4618 23.2571C29.021 22.832 29.5291 22.1676 29.0883 21.7425H29.0846C29.0846 21.1237 29.0846 20.5049 29.0846 19.4648C30.4218 21.9816 30.3808 24.415 30.9373 26.6889C30.702 26.8977 30.4667 26.8863 30.2313 26.6889Z" fill="#F5B375"/>
<path d="M33.1935 33.8865C33.0665 34.5166 32.9395 35.143 32.8088 35.7732C32.185 37.0487 31.6097 38.3508 30.9149 39.5883C30.6422 40.0705 30.4106 41.0157 29.4693 40.3438C30.8029 39.0683 31.2735 37.2954 32.0281 35.6935C32.3456 35.0253 32.4427 34.2471 33.1935 33.8865Z" fill="#F4B476"/>
<path d="M8.1847 26.9091C8.85335 28.9894 7.75886 31.1001 8.33786 33.1956C7.51979 31.1304 7.37785 29.0387 8.1847 26.9091Z" fill="#FAD8B1"/>
<path d="M12.6336 12.624C12.6486 12.3697 12.6635 12.1115 12.6822 11.8572C12.7382 11.3827 13.0744 11.1321 13.4181 10.8816C14.0755 10.3615 14.5088 9.57568 15.3082 9.22264C16.1449 8.47099 16.9817 7.71935 17.8184 6.96391C17.923 7.08159 18.0276 7.19547 18.1322 7.31316C16.3018 9.08597 14.4677 10.855 12.6336 12.624Z" fill="#F5BA83"/>
<path d="M33.5895 31.2329C33.455 31.9846 33.3243 32.7362 33.1898 33.4917C32.2111 31.9732 33.4289 30.375 33.0329 28.7578C32.8574 28.0441 33.0404 26.9205 33.5858 26.0094C33.5895 27.7518 33.5895 29.4905 33.5895 31.2329Z" fill="#F4B476"/>
<path d="M32.8237 12.2444C32.6967 12.3735 32.566 12.5063 32.439 12.6354C32.3195 12.6278 32.2037 12.624 32.0841 12.6202C31.4715 12.4798 31.1017 12.0926 30.971 11.47C30.3434 10.7183 29.7158 9.96669 29.0883 9.21505L29.092 9.20745C30.6161 9.86419 31.677 11.1093 32.8237 12.2444Z" fill="#F4B57C"/>
<path d="M8.55825 15.2889C8.09132 16.5151 6.9931 17.3806 6.66811 18.6865C5.55868 18.2538 6.48881 17.6881 6.65691 17.3085C7.04539 16.4354 7.26952 15.3193 8.55825 15.2889Z" fill="#FBD7AC"/>
<path d="M4.41563 30.8533C4.54638 30.8495 4.68085 30.8495 4.81159 30.8457C5.81643 31.7682 5.92102 32.9982 5.94717 34.2585C5.8239 34.38 5.70063 34.4977 5.57736 34.6191C5.2449 33.3436 4.43058 32.2275 4.41563 30.8533Z" fill="#F2A864"/>
<path d="M4.44552 25.1628C4.44552 25.03 4.44925 24.9009 4.44925 24.768C5.26358 24.8402 5.06187 23.8873 5.55495 23.6368C5.87246 24.2783 5.76787 24.9844 5.79775 25.6601C5.81643 26.0891 5.64086 26.613 5.12163 26.6433C4.41937 26.6851 4.68832 26.0549 4.62856 25.6829C4.59867 25.4893 4.5389 25.3261 4.44552 25.1628Z" fill="#F9C088"/>
<path d="M10.4148 40.3362C11.442 40.564 12.1443 41.2283 13.235 42.2722C11.5279 42.0597 11.0124 41.141 10.4148 40.3362Z" fill="#F7BA80"/>
<path d="M13.4069 11.1511C13.1641 11.3865 12.925 11.6218 12.6822 11.8572C12.3049 11.9939 11.9276 12.1267 11.5503 12.2634C11.7409 11.4396 11.9874 10.6728 13.0595 10.7639C13.2313 10.8398 13.3471 10.9689 13.4069 11.1511Z" fill="#F9C088"/>
<path d="M13.4069 11.1511C13.2911 11.022 13.1753 10.893 13.0595 10.7639C13.9336 10.4374 14.1203 9.07459 15.3119 9.22264C14.8039 10.0009 14.1465 10.6158 13.4069 11.1511Z" fill="#FCE3C1"/>
<path d="M30.971 11.47C31.4566 11.7395 31.8376 12.1153 32.0841 12.6202C32.0318 12.9125 31.9571 13.3757 31.591 13.015C31.2063 12.6354 30.2313 12.3621 30.971 11.47Z" fill="#FBD4A9"/>
<path d="M22.738 30.8457C23.1153 31.9542 23.1676 33.1045 23.1116 34.2623C22.4018 33.8143 23.0817 32.7932 22.3533 32.3566C21.9312 31.8517 22.0544 31.3506 22.3645 30.8533L22.3719 30.8457C22.4915 30.8457 22.6147 30.8457 22.738 30.8457Z" fill="#F9CB9B"/>
<path d="M11.7595 39.5883C10.7846 39.2087 10.4559 38.6583 10.1906 37.6409C11.1245 38.0471 11.5167 38.5634 11.7595 39.5883Z" fill="#FBDAAF"/>
<path d="M30.2313 26.6889C30.4667 26.6889 30.702 26.6889 30.9411 26.6889C30.9523 27.3115 30.9635 27.934 30.9784 28.5566C30.956 28.9135 30.9336 29.2741 30.9037 29.8018C30.2388 28.8641 30.9934 27.7746 30.2388 27.0495C30.2239 26.9281 30.2239 26.8066 30.2313 26.6889Z" fill="#F09F56"/>
<path d="M36.2753 35.2911C36.1744 35.2 35.9615 35.0975 35.9578 34.9836C35.9428 34.5888 36.1333 34.2547 36.4807 34.0763C36.5442 34.0421 36.8132 34.2395 36.8431 34.3648C36.9514 34.7976 36.7011 35.0709 36.2753 35.2911Z" fill="#FAD4AB"/>
<path d="M23.2535 15.0688C23.5337 15.7103 23.6308 16.1962 23.1004 16.6935C22.5998 16.1393 22.6446 15.6913 23.2535 15.0688Z" fill="#F9D4AC"/>
<path d="M8.1735 38.8139C8.67778 39.1935 9.18207 39.5732 9.68636 39.949C8.48728 40.5222 8.40883 39.558 8.1735 38.8139Z" fill="#FBDDB6"/>
<path d="M7.41147 34.2699C6.8885 33.598 6.70173 32.8197 6.68679 31.9808C7.39652 32.592 7.47123 33.4081 7.41147 34.2699Z" fill="#F7BA80"/>
<path d="M29.0846 9.21505C28.4869 9.19227 28.0835 8.88098 27.7435 8.19387C28.5093 8.24322 28.8156 8.70636 29.092 9.21125C29.0883 9.21125 29.0846 9.21505 29.0846 9.21505Z" fill="#F4B57C"/>
<path d="M20.6798 12.5025C20.6125 12.1761 20.5266 12.0052 20.564 11.8686C20.6088 11.7015 20.7209 11.4966 20.8628 11.4282C21.1094 11.3067 21.1841 11.5193 21.1168 11.7053C21.0309 11.9331 20.8852 12.1343 20.6798 12.5025Z" fill="#FACC9C"/>
<path d="M19.7385 33.1348C19.7459 33.5069 19.7497 33.8827 19.7571 34.2547C19.6301 34.9418 20.1792 35.9592 18.8942 36.0845C19.1072 37.098 19.2155 38.1496 19.5666 39.11C19.8916 39.9945 19.477 40.8335 19.6787 41.7028C19.7833 42.1584 19.2715 41.9078 19.01 41.8547C18.8793 41.4788 18.7486 41.103 18.6216 40.731C19.1931 39.7668 19.0623 38.8329 18.5581 37.8839C17.5457 35.982 17.5084 33.932 17.5682 31.8821C18.8233 31.6012 18.192 34.1142 19.7385 33.1348Z" fill="#FBD09F"/>
<path d="M26.847 38.4381C26.8582 40.0135 26.3353 41.289 24.8822 42.0445C25.2669 40.6892 25.9132 39.4858 26.847 38.4381Z" fill="#F7BE85"/>
<path d="M23.1116 34.2661C23.3618 34.2661 23.6121 34.2661 23.8624 34.2699C23.7727 35.4087 23.2946 36.5058 23.4926 37.6789C22.6222 36.6235 23.3581 35.386 23.1116 34.2661Z" fill="#F9CB9B"/>
<path d="M22.3607 30.8533C22.357 31.3544 22.3533 31.8555 22.3495 32.3566C22.0544 32.5236 21.9947 32.8084 21.9872 33.1158C21.3671 32.2351 21.4045 31.4645 22.3607 30.8533Z" fill="#FBDAB3"/>
<path d="M24.2359 16.424C25.3977 17.0504 24.8485 18.1627 24.9756 19.0851C24.3779 18.2993 24.6244 17.2706 24.2359 16.424Z" fill="#F9C794"/>
<path d="M29.0846 21.7425C29.6187 22.1411 29.4133 22.7333 29.4581 23.2571C28.3636 22.999 29.4058 22.198 29.0846 21.7425Z" fill="#F9C794"/>
<path d="M4.44552 25.1628C4.97595 25.402 4.61361 26.1195 5.14031 26.4384C5.89114 25.588 5.42421 24.5592 5.55495 23.6368C5.67448 23.6368 5.79402 23.6368 5.90981 23.633C5.99573 24.1303 5.73425 24.7111 6.26095 25.0983C5.86872 28.4579 5.27852 31.8365 7.05286 35.0139C7.28446 35.5112 7.51232 36.0123 7.83731 36.7184C6.60834 36.1642 6.74282 34.8431 5.94343 34.2585C5.56615 33.1196 5.18514 31.9846 4.80786 30.8457C4.07944 28.9932 4.56879 27.0571 4.44552 25.1628Z" fill="#F9C794"/>
</svg>
