<svg width="60" height="47" viewBox="0 0 60 47" fill="none" xmlns="http://www.w3.org/2000/svg">
<path d="M49.7932 20.5361C50.0954 20.8414 50.3977 21.1468 50.703 21.4521C50.4252 21.9358 50.7671 22.3077 50.9473 22.6946C51.4816 23.8404 51.7503 25.0285 51.619 26.2952C51.732 27.9308 50.8923 29.2247 50.0771 30.5307C49.5306 31.356 48.7703 31.9849 48.0559 32.659C44.6088 35.8455 40.4655 37.4326 35.8246 37.8771C33.9468 37.8257 32.0599 38.0524 30.2005 37.6443C28.0877 37.1092 26.3076 35.9422 24.5551 34.7148C24.3688 34.5546 24.2223 34.3641 24.1032 34.1525C23.0101 32.3507 22.8636 30.3947 23.1811 28.3752C23.2971 27.6254 23.5383 26.918 24.2284 26.4645C25.3764 26.2771 26.4847 25.9536 27.5778 25.5485C27.9991 25.3913 28.506 24.959 28.8785 25.6604C28.9517 26.4222 28.5121 27.0964 28.5029 27.8461C28.222 30.047 29.1594 31.743 31.1775 32.7558C35.4918 34.9143 40.951 32.786 42.8226 30.0198C44.9568 26.7064 43.6836 23.5139 39.8518 22.4105C36.939 21.57 34.2338 21.9267 31.6691 23.4958C31.2356 23.7618 30.8081 24.0309 30.3165 24.1881C29.3303 24.4088 28.3136 24.4511 27.3305 24.7262C26.7137 24.8985 26.0115 25.0013 25.5474 24.3151C25.4832 23.39 26.2282 22.9365 26.7259 22.3379C29.3364 19.6382 32.6339 18.0752 36.2215 17.3224C40.9998 16.3187 45.5797 16.8448 49.4023 20.3093C49.5184 20.4061 49.6527 20.4756 49.7932 20.5361Z" fill="#FEFCF7"/>
<path d="M26.8969 13.8877C27.7304 16.149 27.3641 18.5131 27.5137 20.8319C27.9381 21.5333 27.3244 21.8447 26.9702 22.2558C24.7841 24.7953 22.7659 27.3922 23.2025 31.0533C23.2727 31.6549 23.4773 32.3684 22.888 32.9005C21.6972 33.9314 20.824 35.3372 19.2607 35.9267C19.1569 35.8299 19.102 35.709 19.0928 35.5699C19.0867 35.1406 19.6241 34.6539 18.9493 34.3002C18.6287 34.2276 18.3692 34.3728 18.1158 34.533C18.0211 34.8444 17.3952 34.4846 17.4868 35.0469C17.6242 35.8753 16.9189 36.226 16.4854 36.7308C15.9877 37.018 15.9877 37.018 16.2655 37.1873C15.7831 37.5471 15.2244 37.4534 14.6809 37.4564C14.5832 37.3627 14.4977 37.2599 14.4244 37.1511C14.342 37.015 14.4061 36.7792 14.226 36.7369C14.1344 36.7157 14.1466 36.9515 14.0458 37.0422C12.4459 37.6045 12.0917 37.399 12.3207 36.0567C11.5818 37.1662 11.5818 37.1662 9.48733 37.1692C7.23098 36.8578 5.6952 35.4067 4.19911 33.8921C4.02202 32.0298 4.06782 31.9693 5.95778 32.2384C6.43103 32.3049 6.67529 32.19 6.60507 31.7305C6.52568 31.2135 6.63865 30.748 6.7791 30.2612C6.99283 29.5175 7.11801 28.8131 6.04938 28.532C5.5975 28.4141 5.26469 28.0241 5.65245 27.489C5.97304 27.0446 6.33943 26.3764 6.94398 26.7876C7.9607 27.4799 9.15757 27.9969 9.7896 29.1517C9.75906 29.6959 10.2384 29.971 10.4674 30.4124C10.3483 29.9982 9.79876 29.7292 10.1224 29.2213C11.5605 28.6287 11.7467 28.0422 10.7086 26.9932C10.043 26.322 10.1743 25.8746 10.904 25.4634C11.2918 25.2458 11.7345 25.1641 11.8169 24.5837C11.9208 23.8219 12.6291 23.7312 13.2092 23.6767C13.9634 23.6072 13.8504 24.1907 13.9084 24.7107C14.0031 25.5632 14.5374 25.0039 14.9282 24.9404C14.7328 24.8346 15.0564 24.9253 14.9496 24.8709C13.6825 24.2028 13.0535 23.2868 13.6733 21.8598C13.9542 21.2159 14.2076 20.584 14.3756 19.8917C14.5588 19.142 15.3709 18.7762 16.0396 18.9908C16.7113 19.2055 16.3968 19.7617 15.9571 20.2394C16.5006 20.0731 17.2761 20.318 16.7724 19.2508C16.5006 18.6704 17.1235 18.5041 17.4654 18.7066C18.7631 19.4655 19.3371 18.8487 19.7279 17.6999C19.7706 17.5699 19.9386 17.4913 20.0699 17.4127C20.6988 17.4732 21.0042 16.6871 21.6545 16.8051C21.9965 17.4218 22.3598 16.9018 22.714 16.8202C23.4681 17.6667 23.978 16.6388 24.6131 16.5723C24.955 16.4241 24.9612 16.1007 25.0131 15.8044C25.2115 14.7432 26.1244 14.3835 26.8969 13.8877Z" fill="#EEA15C"/>
<path d="M9.49331 29.3151C8.92235 28.1845 7.68579 27.8005 6.79119 27.0417C6.24466 26.5822 6.21413 27.734 5.64928 27.8096C5.78667 27.9759 5.83553 28.0968 5.90575 28.1119C7.73159 28.4596 7.67663 29.5056 6.93775 30.8086C6.91332 30.8509 6.86141 30.9053 6.87363 30.9416C7.4629 32.9671 6.79119 33.2604 5.07222 32.2748C4.60202 32.0058 4.48905 32.5439 4.4005 32.8492C4.3028 33.1848 4.78826 33.6322 4.20509 33.8922C2.80671 32.4532 1.88768 30.7693 1.5213 28.7982C1.48771 27.8338 1.48771 27.8338 2.31209 27.9608C2.36399 27.9698 2.36399 27.9698 2.40368 27.8519C3.06929 25.9141 3.2647 23.9853 2.48612 22.0081C2.1411 21.1314 2.35178 20.2123 2.87388 19.4263C3.13646 19.0303 3.67383 18.6826 3.89977 19.3568C4.23257 20.3484 5.27678 20.6749 5.69508 21.5395C5.7134 22.5795 6.12864 21.4125 6.29046 21.6393C6.84309 21.3098 7.31024 21.2946 7.23086 22.0928C7.19116 22.5009 7.07514 22.9211 7.08735 23.1448C7.53007 22.3195 7.27666 21.1556 7.59419 20.0975C7.79876 19.5745 8.1682 19.2419 8.7361 19.1452C8.88571 19.1421 9.02616 19.1754 9.1605 19.2389C9.25516 19.3507 9.30706 19.4807 9.30706 19.6289C9.29179 19.8647 9.15135 20.0944 9.32233 20.4451C9.73451 20.17 9.57269 19.6107 9.89328 19.3538C9.99709 19.257 10.1223 19.1905 10.2627 19.1542C10.9375 19.0121 11.2428 19.774 11.8504 19.7921C12.9923 19.8284 13.0381 18.8187 13.4381 18.1475C13.4137 17.9147 13.951 18.1687 13.7495 17.7938C13.719 17.7364 13.6701 17.6275 13.5511 17.6789C13.6243 17.821 13.5877 17.954 13.5144 18.087C13.3496 18.2473 13.1603 18.3138 12.9343 18.2805C12.7939 18.2322 12.6717 18.1566 12.5679 18.0538C12.1527 16.3517 13.1541 14.8825 14.58 15.0911C14.9098 15.2634 15.1479 15.0215 15.4105 14.8946C15.899 14.7253 16.3906 14.5681 16.7967 14.2295C18.3721 13.3467 18.7782 13.4525 19.3247 15.0427C19.6087 15.868 20.2468 16.5785 20.1797 17.5217C20.1583 17.5671 20.1277 17.6094 20.1155 17.6578C19.682 19.5019 18.7721 20.2154 17.1417 18.8519C16.3478 19.5352 18.1431 19.2389 17.389 20.0491C16.8333 20.6447 16.3387 20.6961 15.6731 20.563C15.383 20.0068 16.4455 19.8707 16.0272 19.1633C15.5815 19.3961 14.6869 19.7317 14.7174 19.8647C15.038 21.2856 12.8885 22.3135 14.0976 23.822C14.2533 24.0155 14.4518 24.2181 14.4976 24.4418C14.577 24.8499 15.6639 23.9702 15.1662 24.9678C14.9342 25.4334 14.467 25.8506 13.9755 25.7841C13.4564 25.7145 13.3801 25.0736 13.3648 24.6262C13.3557 24.3753 13.9816 23.9913 13.2702 23.9399C12.8519 23.9097 12.0336 24.3118 12.1283 24.5597C12.5527 25.648 11.7802 25.5664 11.1818 25.6964C10.8673 25.7659 10.565 25.8778 10.5223 26.2224C10.4765 26.5973 10.736 26.6668 11.0779 26.7515C12.3176 27.0508 11.6977 28.1149 11.6703 28.7347C11.6306 29.6023 10.7665 29.4572 10.1009 29.3091C9.89939 29.4935 9.69788 29.4784 9.49331 29.3151Z" fill="#EC9D58"/>
<path d="M20.1765 17.5158C19.4682 16.9686 19.1873 16.0677 19.0621 15.3542C18.7537 13.5826 17.8958 13.9212 16.818 14.4956C16.1585 14.0784 16.4149 13.0959 15.6516 12.6938C15.386 12.5547 15.5875 12.1043 15.8287 11.9259C16.2653 11.6024 16.531 11.0673 17.0897 10.9101C17.163 10.889 17.2882 10.9011 17.3248 10.8527C17.3645 10.7983 17.2729 10.7469 17.1508 10.7922C16.3081 11.1822 15.789 11.932 15.1356 12.5185C14.6227 12.978 14.1555 13.4194 13.4594 12.8208C12.7327 12.195 13.0625 11.6055 13.4747 10.9827C13.9693 10.2299 15.0471 10.1392 15.4226 9.27156C15.5325 9.26249 15.7463 9.3169 15.7463 9.24737C15.7493 9.11435 15.5722 9.25039 15.4867 9.17784C15.3341 9.12342 15.2425 9.01458 15.1753 8.88156C14.2258 10.0334 13.1907 8.93598 12.1954 8.99645C11.1847 8.75459 10.8916 8.15298 11.2763 7.20672C11.603 7.02231 11.9267 6.84092 12.2534 6.6565C13.3922 6.54465 14.3937 5.9521 15.502 5.71327C15.7188 5.6649 15.2272 5.59537 15.2455 5.40188C19.3338 4.16842 23.4588 5.83722 25.3518 9.54364C26.054 10.9162 26.8204 12.2857 26.8998 13.888C26.4448 14.1963 26.7624 15.197 25.7151 15.0549C25.3335 15.0035 25.3945 15.6807 25.3335 16.0556C24.9976 16.0979 24.8236 15.8621 24.6312 15.6565C24.5366 15.5507 24.4572 15.4358 24.3778 15.3179C23.9839 14.7224 23.8862 14.021 23.7122 13.3528C23.5473 12.7301 23.8465 12.3129 24.4266 12.0529C24.5946 11.9773 25.0678 12.4036 24.9243 11.7717C24.8602 11.4906 24.9182 11.0371 24.5549 11.0583C23.6847 11.1096 23.474 10.2329 22.8359 9.9941C22.4848 9.64945 22.5061 9.20504 22.5092 8.74854C22.213 9.17179 22.5306 9.51643 22.613 9.88526C22.8542 10.5987 22.5977 11.1399 21.8802 11.2578C21.0925 11.3878 21.2299 10.6713 21.1597 10.2118C21.1047 9.83991 20.9765 9.53457 20.6315 9.35923C20.5429 9.37737 20.3322 9.17179 20.4177 9.49527C20.5979 10.4778 20.1246 11.3727 20.0178 12.3159C19.8254 14.0149 19.743 15.4872 21.5383 16.3881C21.7184 16.4788 21.7917 16.6874 21.7093 16.9051C21.2452 17.2437 21.0009 18.0902 20.1765 17.5158Z" fill="#EEA463"/>
<path d="M5.57601 21.8356C5.06917 20.835 3.40821 20.7382 3.70437 18.8306C2.70291 20.1608 2.53193 21.0889 2.98075 22.2982C3.57308 23.8944 3.71964 25.6116 2.8861 27.1988C2.57162 27.7973 2.76703 28.3113 2.91358 28.8857C2.2205 28.798 2.40674 27.8608 1.7564 27.9999C1.62511 28.0271 1.59458 28.5199 1.5152 28.795C0.397712 25.1944 1.17934 21.754 2.42506 18.3529C2.72428 18.4043 2.98686 18.1866 3.28608 18.238C3.58835 18.2925 3.89367 18.2834 4.199 18.3197C4.65393 18.3106 4.97452 18.9757 5.50884 18.5676C5.78058 18.3227 6.01568 18.0294 6.4126 17.969C6.78204 17.9871 6.97439 18.235 7.13927 18.5192C7.2156 18.5494 7.15759 18.7852 7.27056 18.6704C7.39269 18.5434 7.46291 18.3529 7.60641 18.2229C7.76824 18.096 7.94532 18.0083 8.15905 18.0446C8.73917 18.5162 8.52544 18.9636 8.10104 19.3838C7.84151 19.6408 7.60947 19.8796 7.96364 20.2273C7.74992 21.5212 7.62168 22.8363 6.90111 24.2209C6.77593 23.3714 6.96829 22.7214 6.97134 22.0714C6.97439 21.1101 6.61411 22.2105 6.42786 22.0412C6.20803 21.6966 5.83553 21.9989 5.57601 21.8356Z" fill="#EDA05C"/>
<path d="M5.53312 18.7041C4.89194 19.3178 4.46754 18.8251 4.02482 18.4169C3.80804 18.3625 3.59126 18.3958 3.37753 18.423C3.06305 18.3353 2.71192 18.8039 2.42187 18.3565C3.53325 14.901 5.57281 12.0622 8.27493 9.65877C8.69017 10.2513 9.23365 9.95807 9.74964 9.87039C10.0275 10.0125 10.1649 10.2634 10.2687 10.5385C10.3023 10.6776 10.3114 10.8227 10.2962 10.9648C9.81071 12.0622 8.89474 12.9057 8.4398 14.0242C8.08563 14.4535 7.72535 14.9131 7.42918 13.9819C7.36506 13.6584 7.68565 13.2171 7.37117 13.0326C6.98646 12.8059 6.66282 13.1929 6.37276 13.4438C6.11018 13.6705 5.95752 13.9759 5.78348 14.2691C4.37899 15.3786 5.55754 16.0588 6.2201 16.8237C6.29032 16.9507 6.32696 17.0867 6.33917 17.2288C6.272 17.8274 5.88729 18.2567 5.53312 18.7041Z" fill="#EA9954"/>
<path d="M26.8786 22.02C27.1045 21.6331 27.5503 21.3579 27.5106 20.8319C27.8129 20.6294 28.1121 20.4268 28.4144 20.2243C28.5884 19.8252 29.0311 19.8343 29.3365 19.6317C33.0706 17.7241 36.936 16.2306 41.2349 16.6357C44.508 16.9441 47.6315 17.7543 49.7901 20.5356C49.4237 20.8682 49.2161 20.4752 49.0482 20.3119C43.4211 14.8551 32.0294 17.3099 27.3793 22.2982C27.248 22.4402 27.0496 22.5189 26.8817 22.6277C26.7076 22.4282 26.7168 22.2256 26.8786 22.02Z" fill="#F3E8D8"/>
<path d="M26.8786 22.02C26.8817 22.2226 26.8815 22.4253 26.8846 22.6308C26.4785 23.1418 26.0724 23.6527 25.6663 24.1606C25.4282 25.0494 25.0465 25.8687 24.4298 26.567C22.7322 29.1004 23.3123 31.6248 24.4573 34.1461C25.6328 36.8489 27.5929 38.7777 30.3531 39.86C31.4706 40.2983 32.6094 40.7185 33.849 40.7518C34.2734 40.7639 34.8016 40.7337 34.8871 41.3685C34.649 41.7283 34.1696 41.3836 33.9132 41.695C29.2417 41.695 24.5824 38.1367 23.2207 33.5385C23.1535 33.3117 23.0009 33.1122 22.8848 32.8976C23.0314 30.9083 22.5948 28.8767 23.4711 26.9419C24.3107 25.0887 25.3001 23.3593 26.8786 22.02Z" fill="#EFE1CD"/>
<path d="M49.7594 30.5184C50.3518 29.1307 51.396 27.9064 51.3288 26.2799C51.7135 26.1015 51.1181 25.2973 51.915 25.382C52.4432 31.6581 49.5946 36.1959 44.4743 39.5607C43.4911 40.2047 42.4408 40.6853 41.2501 40.8093C41.1524 40.6944 41.1066 40.5614 41.1096 40.4133C41.2684 39.9054 41.7508 39.8056 42.1538 39.6212C46.123 37.8224 48.9076 34.9413 50.367 30.8388C50.5594 30.3007 50.8586 29.8049 51.1548 29.2517C50.6907 29.7354 50.7701 30.724 49.7594 30.5184Z" fill="#F0E1CD"/>
<path d="M10.101 10.8646C10.101 10.7649 10.101 10.6651 10.101 10.5653C9.96059 10.3839 10.1071 10.0635 9.80488 9.96069C9.19423 10.3567 8.55888 10.8862 8.27493 9.65877C9.05045 8.57345 10.1133 7.83237 11.2704 7.20657C11.475 7.79307 11.2918 8.61839 12.2383 8.74839C12.3421 8.84816 12.3971 8.97211 12.4093 9.1142C12.3513 9.56465 12.0429 9.85488 11.7376 10.1481C11.2246 10.4625 10.8247 11.0279 10.101 10.8646Z" fill="#EA9F5E"/>
<path d="M9.48733 37.1692C10.7758 36.8457 12.1894 36.7341 12.8367 35.0653C12.6413 36.2443 11.8108 37.7166 14.0488 36.8671C14.3053 36.852 14.5007 36.9699 14.6717 37.1422C14.6747 37.248 14.6778 37.3539 14.6808 37.4597C12.9222 37.8557 11.1849 37.8645 9.48733 37.1692Z" fill="#EA9C56"/>
<path d="M41.2379 40.4799C41.241 40.5918 41.244 40.7006 41.2471 40.8124C38.9022 41.925 36.4748 42.339 33.9132 41.695C34.136 41.3383 34.4994 41.405 34.8353 41.3899C36.9451 40.9092 39.0121 40.1322 41.2379 40.4799Z" fill="#F0E2CC"/>
<path d="M51.9121 25.3853C51.7167 25.6846 51.5213 25.9839 51.3259 26.2832C51.4144 24.959 51.1488 23.7195 50.5106 22.5375C50.3366 22.214 49.6741 21.6396 50.6999 21.4521C51.2495 22.7188 52.0617 23.907 51.9121 25.3853Z" fill="#F5EADA"/>
<path d="M15.2396 5.40211C15.6212 5.44745 16.0029 5.4928 16.3845 5.53513C15.032 6.13674 13.7588 6.86835 12.2474 6.65673C13.1878 6.10651 14.1343 5.56234 15.2396 5.40211Z" fill="#ED9D58"/>
<path d="M16.2655 37.1873C15.2793 37.0634 16.247 36.7642 16.2073 36.5556C17.2576 36.3682 17.9995 35.1528 19.2575 35.6547C19.2575 35.7454 19.2575 35.8331 19.2575 35.9238C18.3659 36.5889 17.3769 37.0332 16.2655 37.1873Z" fill="#EA9C56"/>
<path d="M28.1332 27.7979C28.1302 27.0391 28.4172 26.3588 28.7347 25.6907C28.9454 24.817 29.5072 24.2456 30.3193 23.8889C33.3298 21.7122 36.5693 20.9292 40.2241 22.0931C44.2299 23.3689 45.4848 26.8274 43.1063 30.2678C42.7124 30.286 42.34 30.2708 42.2178 29.8022C40.9507 30.3676 40.4378 31.9306 38.9539 32.1966C37.4487 32.8133 35.9892 32.4506 34.5267 32.0152C34.2336 31.9275 33.9405 31.8762 33.8458 31.5285C34.0168 31.0841 34.4656 31.0538 34.8229 30.8846C35.1587 30.7727 35.2351 30.4946 35.2656 30.1862C36.1113 29.3337 37.3021 29.0374 38.2639 28.3632C38.6638 28.0821 39.186 27.9762 39.5126 27.6014C38.8989 28.0579 38.2639 28.5386 37.4029 28.2997C37.012 28.1909 36.6273 28.0095 36.551 27.547C36.4869 27.1509 36.722 26.8516 37.0365 26.6854C37.87 26.244 38.6089 25.6091 39.589 25.464C39.7264 25.3854 39.7722 25.2524 39.7935 25.1073C39.7386 25.2282 39.76 25.3914 39.5951 25.4549C38.6822 25.727 37.7448 25.47 36.8014 25.6544C35.9404 25.8237 35.977 24.5752 35.345 24.2154C35.1129 24.0824 35.6808 23.3598 34.8717 23.6259C34.3954 23.7831 33.8977 23.8738 33.4581 24.1247C32.5024 24.6961 31.5895 25.3038 31.3055 26.5584C31.904 26.7095 32.2093 26.0203 32.7253 26.1835C33.3817 26.5584 33.5863 27.0088 32.9848 27.6135C32.7009 27.9007 32.2978 28.1667 32.2459 28.5446C32.191 28.9376 31.333 29.9322 32.8657 29.5664C33.5802 29.3971 34.0962 29.9111 34.0229 30.7546C33.9374 30.8725 33.8245 30.9541 33.6901 31.0055C32.5787 31.3622 31.4551 31.1808 30.3316 31.0992C29.44 30.942 29.2812 29.8506 28.4324 29.633C27.9867 29.0797 28.4904 28.3723 28.1332 27.7979Z" fill="#FCBF40"/>
<path d="M41.2379 40.4799C39.1098 40.8336 37.0458 41.6106 34.8353 41.3899C33.5285 40.8971 32.1149 40.9002 30.7776 40.4618C27.6999 39.4551 25.758 37.2572 24.1306 34.6754C23.9627 34.4094 23.5017 33.8048 24.4573 34.1494C24.555 34.2461 24.6497 34.3429 24.7474 34.4366C26.1427 35.9633 27.7884 37.0275 29.9288 37.1726C31.953 37.6291 34.0079 37.4114 36.0505 37.4689C35.678 38.3153 34.8597 37.88 34.2644 38.0251C33.5529 38.1974 32.8049 37.9828 32.1027 37.8528C35.5131 38.3002 38.7557 37.5747 41.9127 36.3654C43.7599 35.658 45.4881 34.7178 47.0147 33.442C47.3994 33.1215 47.8665 32.8736 47.949 32.3143C48.5505 31.7157 49.155 31.1171 49.7565 30.5155C50.5015 30.2586 50.6664 29.4937 51.332 28.6865C50.7122 31.6009 49.613 33.8834 47.8696 35.9059C46.0529 38.0191 43.7416 39.3704 41.2379 40.4799Z" fill="#FBF1DF"/>
<path d="M42.4623 29.6027C42.3249 30.159 43.0057 29.9383 43.1034 30.2708C40.5387 34.0679 33.4613 35.2349 29.9226 32.4203C28.4418 31.2413 27.6632 29.7448 28.1304 27.7979C28.7471 28.2634 28.0784 29.1492 28.7288 29.6057C29.4952 30.5671 30.3714 31.4075 31.4034 32.0847C33.5438 32.8829 35.6871 33.4331 37.9129 32.378C38.2824 32.2026 38.7037 32.2873 39.0945 32.1966C40.0899 31.8822 40.5754 30.9631 41.3204 30.3524C41.6745 30.0592 41.8272 29.4727 42.4623 29.6027Z" fill="#FBBC3A"/>
<path d="M47.952 32.3173C48.5199 32.8735 47.9184 33.1305 47.6192 33.3573C44.053 36.0297 40.1693 37.8527 35.5956 38.1309C34.2857 38.2095 33.04 38.3939 31.7363 37.8799C33.1927 37.4899 34.6887 38.1611 36.0535 37.4718C40.5754 37.0123 44.5629 35.3435 47.952 32.3173Z" fill="#F0E2CD"/>
<path d="M30.3163 23.8884C29.7881 24.49 29.2599 25.0886 28.7317 25.6902C27.6172 25.6509 26.7257 26.3493 25.6937 26.6032C25.2296 26.7181 24.8481 26.8391 24.4298 26.567C24.445 25.5633 25.0587 24.862 25.6663 24.1606C26.1213 24.6564 26.7593 24.5747 27.2234 24.3812C28.234 23.967 29.2721 23.9579 30.3163 23.8884Z" fill="#FDFBF1"/>
<path d="M29.9318 37.1754C28.3258 37.6621 25.5535 36.1959 24.7505 34.4394C26.3931 35.5036 28.0113 36.6191 29.9318 37.1754Z" fill="#EFE1CD"/>
<path d="M22.9305 9.96104C23.7152 10.6624 25.7486 10.0306 25.254 12.1075C25.1472 12.561 25.2082 12.5035 24.6464 12.3796C24.0663 12.2526 23.8495 12.7 23.9686 13.1626C24.1671 13.9184 24.4785 14.647 24.7411 15.3877C24.5915 16.0558 24.3045 16.3551 23.8831 15.5842C23.5839 15.0339 23.3396 14.4384 23.248 13.8035C23.2389 13.6584 23.2297 13.5103 23.2206 13.3651C23.2114 13.22 23.1595 13.0779 23.1656 12.9298C23.0618 13.0659 23.2236 13.1747 23.2022 13.3107C23.2847 14.2358 22.9091 15.1488 23.4618 16.086C23.932 16.8841 22.8939 16.609 22.616 16.9083C22.674 17.4978 22.0695 17.3134 21.8374 17.5643C21.7916 17.3467 21.7458 17.126 21.7 16.9083C20.6223 16.2493 19.575 15.6779 19.4254 14.1391C19.3643 13.5193 19.517 13.084 19.7215 12.6517C20.1429 11.7629 18.9247 10.5203 20.3627 9.88849C20.1979 9.71012 20.036 9.53175 19.8712 9.35338C19.9902 9.08734 20.1368 8.87572 20.4818 9.04804C22.2405 8.93618 21.1566 10.4145 21.6481 11.0826C22.2221 10.9164 22.6496 10.6806 22.3137 9.95802C22.5214 9.77058 22.7259 9.78268 22.9305 9.96104Z" fill="#EA9E5B"/>
<path d="M22.6192 16.911C22.5795 16.6842 22.2315 16.2852 22.8849 16.4363C23.0894 16.4847 23.5657 16.5422 23.2329 16.2338C22.1948 15.2815 22.952 14.2597 22.9368 13.2741C23.2818 13.1048 23.3673 13.4222 23.5352 13.5825C23.7398 14.2294 23.8863 14.9036 24.1672 15.5203C24.4084 16.0524 24.5336 15.3752 24.7443 15.3903L24.7687 15.4145C25.0618 16.007 25.0405 16.5996 24.784 17.1952C23.3276 16.1884 24.4298 17.954 23.9047 17.9751C23.1505 18.0205 23.2452 17.0319 22.6192 16.911Z" fill="#EEA463"/>
<path d="M19.2605 35.6581C18.1888 35.782 17.3797 36.7645 16.2103 36.559C16.5279 35.9241 17.5751 35.7034 17.1904 34.6302C17.0561 34.2553 17.9538 34.6725 18.0453 34.1434C18.4728 34.4216 18.6804 34.0528 18.9461 33.8472C20.262 34.2402 19.8223 34.9385 19.2605 35.6581Z" fill="#EEA768"/>
<path d="M24.7563 19.6317C24.3258 20.705 22.9488 21.5726 24.2831 23.0993C23.2664 22.9572 22.8542 22.4131 23.0038 21.8507C23.2541 20.9196 23.5045 19.8464 24.7563 19.6317Z" fill="#EFA867"/>
<path d="M23.416 23.9733C23.4069 24.5749 22.9245 24.6686 22.4848 24.7049C22.0818 24.7382 21.978 24.3784 22.039 24.0731C22.1337 23.6014 22.1795 22.9273 22.7626 22.9212C23.1657 22.9182 23.4405 23.4533 23.416 23.9733Z" fill="#EFA867"/>
<path d="M24.7563 19.6317C24.9853 19.2569 25.5228 18.885 25.4984 19.5259C25.4617 20.4964 26.0632 21.5152 25.3793 22.6096C24.6801 21.624 25.4861 20.4571 24.7563 19.6317Z" fill="#EEA969"/>
<path d="M9.49331 29.3151C9.69482 29.3121 9.89625 29.3089 10.0947 29.3059C10.4916 29.9136 10.8916 30.5182 11.2885 31.1259C11.1786 31.2135 11.0687 31.2982 10.9588 31.3859C10.3787 30.7752 9.74978 30.21 9.49331 29.3151Z" fill="#F1B077"/>
<path d="M17.6423 31.3194C17.3492 32.4682 16.7111 32.8854 16.0455 33.2875C16.4057 32.6194 16.7172 31.918 17.6423 31.3194Z" fill="#F6CDA5"/>
<path d="M9.60026 35.7211C9.05373 35.5549 8.266 35.9237 7.92098 34.9865C8.67513 34.9653 9.15754 35.313 9.60026 35.7211Z" fill="#F1B177"/>
<path d="M24.781 17.1953C24.7748 16.6027 24.7718 16.0072 24.7657 15.4146C24.955 15.6293 25.1443 15.8409 25.3305 16.0555C25.2634 16.4909 25.1382 16.899 24.781 17.1953Z" fill="#F7D2A7"/>
<path d="M19.3401 24.7289C18.8241 24.3238 18.9493 23.9398 19.0501 23.4833C19.45 23.8189 19.6607 24.1363 19.3401 24.7289Z" fill="#F0AF73"/>
<path d="M14.6715 37.1393C14.418 37.1514 14.1982 37.0849 14.0486 36.8642C13.9387 36.716 13.8288 36.5649 13.7189 36.4167C13.8288 36.3744 13.9509 36.2777 14.0486 36.2988C14.4913 36.3956 14.6654 36.713 14.6715 37.1393Z" fill="#F2B47D"/>
<path d="M18.943 33.8442C18.943 34.2493 18.714 34.4882 18.3324 34.5365C18.0759 34.5698 18.0637 34.3279 18.0423 34.1405C18.3415 34.0438 18.6407 33.944 18.943 33.8442Z" fill="#F1BE8B"/>
<path d="M21.6757 23.1963C21.5963 23.2628 21.4925 23.3444 21.3918 23.4291C21.3338 23.3202 21.2422 23.2144 21.23 23.0996C21.2238 23.0361 21.3338 22.9212 21.4162 22.894C21.633 22.8244 21.6574 22.9847 21.6757 23.1963Z" fill="#EFA867"/>
<path d="M26.2648 16.8929C26.1793 16.7085 26.0724 16.5815 26.0999 16.4969C26.1335 16.3881 26.277 16.3125 26.3717 16.2218C26.4297 16.3246 26.5426 16.4334 26.5335 16.5271C26.5213 16.6329 26.393 16.7236 26.2648 16.8929Z" fill="#EEA463"/>
<path d="M12.2382 9.05374C12.2382 8.95398 12.2382 8.85119 12.2382 8.75142C12.6718 8.81189 13.1389 8.22841 13.5603 8.89956C13.9602 9.5314 14.3633 9.28048 14.6808 8.7484C15.4655 7.43634 15.2579 9.05072 15.5968 9.05374C15.664 9.12327 15.6884 9.18978 15.6609 9.25629C15.6365 9.3228 15.6121 9.35606 15.5876 9.35606C15.1083 9.63117 15.8502 11.0218 14.3877 10.5321C13.9816 10.396 13.5511 11.4209 13.2916 11.9983C13.1572 12.2976 13.6 12.4609 13.7862 12.6816C14.0488 12.996 14.4243 12.8902 14.5404 12.6241C14.864 11.8653 15.8594 11.7897 16.125 10.9583C16.3265 10.3295 16.9188 10.4565 17.4318 10.5744C17.618 10.7618 17.6058 10.9583 17.4562 11.1609C16.7723 11.17 16.4517 11.7202 16.0303 12.1132C15.8594 12.2734 15.6121 12.5455 15.9693 12.6785C16.8975 13.0232 16.525 13.8999 16.8181 14.4985C16.5158 15.1968 15.8899 15.0971 15.3067 15.1031C15.0472 14.9157 15.0411 14.6557 15.0991 14.3776C14.9098 14.8069 15.1052 15.3541 14.6747 15.7078C14.174 15.1999 13.6213 14.6527 13.3923 15.8619C13.2488 16.6268 12.1008 17.1589 12.8519 18.1233C12.7512 18.211 12.6687 18.3168 12.6046 18.4317C12.7603 18.3863 12.7023 18.1717 12.855 18.1233C13.0595 18.1233 13.2611 18.1233 13.4656 18.1233C13.4931 19.1905 13.5694 20.2063 11.9329 20.1307C11.1543 20.0944 10.8612 19.254 10.1132 19.3326C9.76204 17.697 8.55601 16.4968 7.02634 16.261C6.74544 16.4182 6.71491 16.7659 6.48897 16.9654C6.36073 17.0319 6.24776 17.0138 6.14701 16.914C5.49667 16.7961 5.14249 16.3033 4.84327 15.8075C4.37002 15.0155 4.541 14.429 5.5272 14.2173C5.82336 14.042 6.04625 13.785 6.2844 13.5432C6.93169 12.8871 7.36525 13.1411 7.66141 13.8878C7.86598 14.9217 8.06139 13.7094 8.2629 13.8848C8.87966 14.7585 9.45061 14.7645 10.1223 13.8969C10.7635 13.0715 11.4077 12.2432 12.1283 11.4783C12.5222 11.0611 12.7298 10.5623 12.571 9.97581C12.4428 9.67047 12.4031 9.34094 12.2382 9.05374Z" fill="#EDA05C"/>
<path d="M6.7453 15.7076C8.65663 15.5232 9.24285 17.2434 10.3329 18.2138C10.6229 18.4738 10.2687 18.9666 10.1069 19.3294L10.1008 19.3354C9.8077 19.4745 9.57871 19.804 9.18179 19.6317C9.18179 19.532 9.18179 19.4292 9.18179 19.3294C8.92226 18.9878 9.45963 18.9092 9.42605 18.6341C9.17263 18.8215 9.06882 19.1087 8.87341 19.3264C8.4887 19.5501 7.97271 19.6408 7.95744 20.2273C7.33152 20.1577 7.34374 19.8796 7.67959 19.4594C7.99408 19.0694 8.60473 18.7278 7.9727 18.1292C7.59716 17.6425 7.28878 17.1043 6.84911 16.666C6.66592 16.3637 6.97124 16.0069 6.7453 15.7076Z" fill="#EEAA6F"/>
<path d="M9.18505 19.6322C9.49037 19.5324 9.7957 19.4357 10.1041 19.3359C10.0705 19.5717 9.99721 19.8105 10.0064 20.0464C10.0216 20.5361 9.89035 20.9412 9.38351 21.0833C9.10567 21.1619 8.95606 20.917 8.81866 20.6963C8.49502 20.1824 8.69958 19.865 9.18505 19.6322Z" fill="#EDA05C"/>
<path d="M13.4595 18.1205C13.3526 17.8575 13.2458 17.5975 13.1145 17.274C13.6091 17.3738 14.0854 17.4735 14.5648 17.5703C14.409 18.1719 13.9114 18.0963 13.4595 18.1205Z" fill="#EDA05C"/>
<path d="M14.6748 15.7049C14.6839 15.454 14.6778 15.2031 14.7053 14.9552C14.7328 14.7043 14.8274 14.3808 15.1053 14.4412C15.3892 14.5017 15.258 14.8675 15.3068 15.1003C15.2824 15.4903 15.0809 15.7049 14.6748 15.7049Z" fill="#EEB178"/>
<path d="M8.87661 19.3264C8.88271 19.278 8.87661 19.2267 8.89493 19.1843C9.01706 18.8427 8.99568 18.3892 9.49642 18.3318C9.60939 18.3197 9.82922 18.4376 9.85059 18.5283C9.97272 19.0513 9.28574 18.9546 9.18498 19.3294C9.08117 19.3264 8.97736 19.3264 8.87661 19.3264Z" fill="#EDA05C"/>
<path d="M11.0198 22.3529C11.0626 22.0445 11.1175 21.7271 11.5511 21.9085C11.6519 21.9508 11.774 22.1654 11.7435 22.2501C11.5786 22.6854 11.2794 22.4345 11.0198 22.3529Z" fill="#EDA96E"/>
<path d="M5.57601 21.8356C5.87523 21.8326 6.32698 21.231 6.42469 22.0443C6.13463 21.9899 5.72867 22.4282 5.57601 21.8356Z" fill="#F5D6BC"/>
<path d="M11.0168 22.3496C10.971 22.6217 11.1389 22.9664 10.7572 23.1145C10.7053 23.1357 10.5496 23.054 10.5374 22.9996C10.458 22.6187 10.7633 22.5008 11.0168 22.3496Z" fill="#EDA96E"/>
<path d="M22.9305 9.96104C22.7229 9.96104 22.5183 9.95807 22.3107 9.95807C22.1397 9.64669 22.0878 9.3232 22.0847 8.9574C22.0817 8.63392 21.3581 8.22881 21.9473 8.01114C22.4328 7.83278 22.8236 8.32556 22.8236 8.93624C22.8297 9.27786 22.8969 9.61942 22.9305 9.96104Z" fill="#F2B479"/>
<path d="M15.5908 9.35341C15.5938 9.25364 15.5968 9.15351 15.5968 9.05374C15.9479 8.92677 16.2838 8.60063 16.7907 9.03295C16.406 9.35341 16.1861 9.87642 15.5908 9.35341Z" fill="#F2B37A"/>
<path d="M14.7296 11.6508C14.6594 11.7083 14.525 11.8231 14.3876 11.938C14.3143 11.8413 14.1617 11.6871 14.183 11.6538C14.2869 11.5087 14.4212 11.3425 14.58 11.285C14.7418 11.2306 14.8059 11.3878 14.7296 11.6508Z" fill="#EDA05C"/>
<path d="M17.6486 12.171C17.5754 12.2557 17.4746 12.431 17.325 12.5368C17.1998 12.6245 17.0075 12.555 17.041 12.3796C17.0777 12.2013 17.1876 12.0017 17.3311 11.8869C17.4441 11.7931 17.6059 11.8869 17.6486 12.171Z" fill="#F4C799"/>
<path d="M17.4561 11.1581C17.4469 10.9616 17.4408 10.7651 17.4316 10.5716C17.6362 10.5262 17.9202 10.2814 18.0026 10.6562C18.085 11.0311 17.7706 11.1248 17.4561 11.1581Z" fill="#F2C397"/>
<path d="M20.4818 9.05058C20.2773 9.15337 20.0758 9.25314 19.8712 9.35593C19.6972 9.23198 19.5689 9.04756 19.7491 8.89036C20.0269 8.64548 20.2864 8.77245 20.4818 9.05058Z" fill="#F2BC85"/>
<path d="M7.04162 16.6025C8.00339 16.7204 8.02171 17.4037 7.97591 18.1262C7.87821 18.229 7.78051 18.3348 7.6828 18.4376C7.20039 17.9418 7.32863 18.7823 7.04773 18.7218C6.84316 18.5162 6.63859 18.3106 6.43403 18.1081C6.11344 17.8813 6.38212 17.4762 6.15618 17.2223C6.15008 17.1195 6.14702 17.0137 6.14092 16.9109C6.23557 16.9079 6.33022 16.9079 6.42487 16.9079C6.60196 16.7507 6.69355 16.4272 7.04162 16.6025Z" fill="#EFB684"/>
<path d="M6.15611 17.2256C6.95606 17.3042 6.30267 17.8302 6.43396 18.1114C6.14084 18.3169 6.0369 18.8069 5.53312 18.7041C5.74074 18.2114 5.94849 17.7184 6.15611 17.2256Z" fill="#F3C599"/>
<path d="M7.04764 18.7252C7.07818 18.441 7.08428 18.0994 7.42319 18.0329C7.65219 17.9875 7.64303 18.2717 7.68272 18.441C7.51784 18.6405 7.45983 19.0728 7.04764 18.7252Z" fill="#F2CDAB"/>
<path d="M3.37779 18.4197C3.49992 18.2837 3.60373 18.063 3.74723 18.0327C4.00371 17.9783 3.97596 18.2507 4.02482 18.4169C3.81414 18.7283 3.59763 18.7402 3.37779 18.4197Z" fill="#EEB078"/>
<path d="M12.8457 9.66155C13.38 10.4446 12.9831 11.0734 12.4854 11.6689C11.6915 12.6212 10.8488 13.5373 10.1008 14.5228C9.74663 14.9914 9.35276 15.1607 8.81844 15.073C8.06734 14.9491 8.33603 14.3324 8.2597 13.8819C8.4948 12.6485 9.45046 11.8473 10.1008 10.8618C10.6107 10.5594 11.1175 10.2571 11.6274 9.9548C12.0152 9.78248 12.3175 9.27156 12.8457 9.66155Z" fill="#F0AE73"/>
<path d="M7.65846 13.8848C6.78828 12.9809 6.30892 14.5802 5.52424 14.2143C5.51203 13.5795 5.97917 13.2318 6.40968 12.9114C6.79134 12.6242 7.27069 12.1797 7.74395 12.5395C8.25078 12.9204 7.84165 13.4404 7.65846 13.8848Z" fill="#F0AB6C"/>
<path d="M9.80488 9.96069C10.0186 9.89418 10.3849 9.72228 10.4215 9.7767C10.6841 10.1516 10.1224 10.257 10.101 10.5653C9.84151 10.4414 9.79877 10.2116 9.80488 9.96069Z" fill="#F1BB84"/>
<path d="M12.8457 9.66155C12.4396 9.76132 12.0336 9.8583 11.6275 9.95807C11.8321 9.65575 12.0337 9.35606 12.2382 9.05374C12.5313 9.16862 12.7358 9.3683 12.8457 9.66155Z" fill="#EEA463"/>
<path d="M39.7114 25.3823C39.0549 26.0444 38.2214 26.4344 37.397 26.8334C37.0825 26.9846 36.6612 27.1478 36.8352 27.5802C36.9665 27.9067 37.3695 28.0427 37.7298 28.0639C38.6397 28.1183 39.2167 27.5348 39.7999 26.9665C39.9342 26.8334 40.1174 26.7488 40.4441 26.5341C40.3464 27.4502 39.7816 27.8946 39.2564 28.1153C38.0077 28.6353 37.2047 29.9534 35.7116 30.0229C35.6139 30.0289 35.5315 30.3403 35.4399 30.5126C35.2017 30.8271 34.814 30.8512 34.4873 30.9903C34.2583 31.0115 34.0537 30.9691 33.9194 30.7605C33.1469 29.6782 33.1469 29.6782 31.9439 30.2254C31.2966 29.0797 31.6844 28.1122 32.6523 27.4471C33.3728 26.9513 32.869 26.652 32.6828 26.256C32.4874 25.5486 32.9393 25.1677 33.4278 24.8049C34.0781 24.5479 34.6155 23.9433 35.4216 24.1609C35.9864 24.2244 36.2795 24.6114 36.4444 25.0891C36.5055 25.2614 36.5329 25.609 36.6978 25.4428C37.7054 24.43 38.713 25.6242 39.7022 25.3823H39.7114Z" fill="#FBBB3A"/>
<path d="M39.1037 32.323C36.4595 33.62 33.8124 33.6472 31.1652 32.3261C31.2629 31.5824 30.1454 31.5612 30.2493 30.8175C31.3728 30.8175 32.4934 30.8205 33.617 30.8205C33.7757 30.9898 34.1024 31.0745 33.9131 31.4131C35.3573 31.5159 36.6763 33.0093 38.264 31.7879C38.3984 31.6852 38.8136 31.9361 39.0975 32.0237C39.1769 32.0903 39.2014 32.1568 39.1769 32.2233C39.1556 32.2898 39.1311 32.323 39.1037 32.323Z" fill="#FCC348"/>
<path d="M33.6017 25.0645C33.1223 25.3306 32.9239 25.8082 32.6827 26.2526C32.5239 26.3705 32.3712 26.4975 32.2064 26.6094C31.8216 26.8694 31.5346 27.6554 31.0522 27.2866C30.524 26.8815 30.8843 26.1801 31.1835 25.6631C31.672 24.8196 32.3926 24.2271 33.3025 23.8583C33.5131 24.3541 33.5131 24.3541 32.6582 24.9769C33.1742 24.738 33.1742 24.738 33.6017 25.0645Z" fill="#FCD990"/>
<path d="M33.6017 25.0645C32.6735 24.3964 32.6277 25.8298 31.9407 25.7451C31.8003 24.6961 33.3727 24.8529 33.3025 23.8583C33.7269 23.4532 34.2856 23.3719 34.826 23.2661C35.7084 23.0968 35.5497 23.644 35.4245 24.1549C34.8169 24.4603 34.2093 24.7622 33.6017 25.0645Z" fill="#FDD179"/>
<path d="M39.1037 32.323C39.1037 32.2233 39.1038 32.1239 39.1007 32.0241C40.0655 31.1081 41.0365 30.1921 41.9982 29.273C42.8012 28.5021 42.2913 29.5179 42.4623 29.6056C41.7601 30.2979 40.9968 30.9448 40.3739 31.7006C40.0075 32.142 39.6532 32.3623 39.1037 32.323Z" fill="#FDCF65"/>
<path d="M30.2492 30.815C30.6003 31.3017 31.4216 31.3048 31.5224 32.0666C31.5712 32.4415 31.2965 32.2596 31.1652 32.3261C30.176 31.5733 29.1074 30.8936 28.7288 29.6057C29.7486 29.379 29.4981 30.7153 30.2492 30.815Z" fill="#FDCD61"/>
<path d="M39.1006 29.9015C38.264 30.5152 37.3908 31.0291 36.1298 31.0412C36.9053 30.1191 38.0136 30.1524 38.7922 29.6022C39.0823 29.5145 39.1952 29.6022 39.1006 29.9015Z" fill="#FED678"/>
<path d="M40.5143 29.663C40.8746 29.1914 41.2318 28.7228 41.8364 27.9307C41.644 29.0221 41.296 29.5179 40.5143 29.663Z" fill="#FECF61"/>
<path d="M33.9163 31.4133C33.8185 31.2168 33.7178 31.0173 33.6201 30.8208C33.7208 30.8026 33.8216 30.7815 33.9193 30.7633C34.1239 30.7724 34.3254 30.7784 34.53 30.7875C34.8566 30.6666 35.1864 30.5456 35.1253 31.117C34.7498 31.3256 34.3559 31.4617 33.9163 31.4133Z" fill="#FEDE8A"/>
<path d="M35.1222 31.1138C35.0123 30.8477 34.7711 30.8145 34.5268 30.7873C34.7589 30.4578 35.11 30.5243 35.4367 30.5152C35.9008 31.0049 35.5161 31.0624 35.1222 31.1138Z" fill="#FCC348"/>
<path d="M39.1006 29.9015C38.9968 29.8017 38.896 29.7019 38.7922 29.6022C39.0029 29.3543 39.2135 29.1069 39.534 28.732C39.6959 29.3638 39.3967 29.6324 39.1006 29.9015Z" fill="#FED773"/>
<path d="M39.705 25.3792C39.6012 25.1978 39.4974 25.0194 39.3905 24.838C39.644 24.7322 39.8974 24.7836 40.0317 24.9952C40.2607 25.358 39.9218 25.3368 39.7081 25.3852C39.7111 25.3822 39.705 25.3792 39.705 25.3792Z" fill="#FED067"/>
<path d="M21.5293 13.4767C22.0239 13.6762 22.0422 14.0179 21.9781 14.3746C21.9506 14.5288 21.8041 14.6497 21.6636 14.5227C21.3827 14.2658 21.3278 13.9362 21.5293 13.4767Z" fill="#F2BF8D"/>
<path d="M23.5322 13.5826C23.3337 13.4798 23.1322 13.377 22.9337 13.2742C22.9795 13.0565 23.0253 12.8359 23.0711 12.6182C23.4223 12.8449 23.4986 13.2047 23.5322 13.5826Z" fill="#F1B479"/>
<path d="M12.8488 18.1201C12.8213 18.4859 12.9282 18.882 12.5404 19.1752C12.6107 18.8155 11.8565 18.2925 12.8488 18.1201Z" fill="#EC9D58"/>
<path d="M7.04162 16.6025C6.83706 16.7053 6.63232 16.8085 6.42775 16.9083C6.3789 16.4669 6.52241 16.0769 6.74835 15.7081C7.12389 15.9167 7.04162 16.273 7.04162 16.6025Z" fill="#F3C599"/>
</svg>
