<svg width="60" height="47" viewBox="0 0 60 47" fill="none" xmlns="http://www.w3.org/2000/svg">
<path d="M7.66359 43.6524C7.11534 43.7649 6.62191 43.4967 6.11117 43.4419C5.16183 43.338 4.35965 42.8823 3.47956 42.6169C3.43339 42.6025 3.39876 42.5419 3.35836 42.5044C3.47379 42.2246 3.68155 42.2015 3.9297 42.2967C4.03935 42.34 4.13169 42.4121 4.23845 42.4612C4.3683 42.5188 4.49238 42.6256 4.64532 42.539C4.70303 42.5073 4.72611 42.4381 4.67994 42.3919C4.57318 42.2794 4.49815 42.1237 4.31059 42.115C3.87199 42.0977 3.49399 41.916 3.16503 41.6391C2.86494 41.3881 2.5937 41.0881 2.68603 40.6728C2.78126 40.2372 3.07558 39.9343 3.52861 39.8161C3.77965 39.8507 4.01627 39.7815 4.25577 39.7209C4.14035 39.7411 4.02492 39.7988 3.90373 39.744C3.68155 39.5911 3.47956 39.4123 3.2718 39.245C3.56035 38.9594 3.95856 38.9334 4.31636 38.8411C6.29585 38.3306 8.08488 37.4306 9.8162 36.3605C11.0801 35.5788 12.2545 34.6788 13.4462 33.8019C15.8787 32.0165 18.2016 30.0954 20.3946 28.0157C21.9066 26.5821 23.3234 25.0562 24.7431 23.539C26.007 22.189 27.1092 20.6978 28.1221 19.1459C28.4164 18.6959 28.7165 18.2517 29.0281 17.8133C29.5648 17.0518 29.9024 16.1749 30.4565 15.4249C31.0278 14.6519 31.5587 13.8442 32.2599 13.1808C33.065 12.4164 33.922 11.7184 34.9723 11.303C35.108 11.2482 35.2984 11.2251 35.3071 11.0117C35.3359 10.9972 35.3734 10.9799 35.3879 10.9972C35.8899 11.5078 36.5652 11.5222 37.2057 11.6434C37.7136 11.7386 37.754 11.8395 37.477 12.2722C37.376 12.4279 37.3125 12.6212 37.1134 12.6933C36.8508 12.4741 36.6431 12.5693 36.4526 12.8029C36.2882 13.002 36.1006 13.1548 35.8178 13.0279C35.4831 12.8779 35.4456 12.6212 35.5552 12.3097C35.7082 12.1828 35.8813 12.252 36.014 12.2491C35.9044 12.2087 35.7486 12.2462 35.6014 12.2203C35.1657 12.0616 34.7588 12.2289 34.4356 12.702C34.9089 12.6789 35.0156 13.1 35.2522 13.3654C35.2465 13.3914 35.1772 13.4462 35.2522 13.4462C35.3936 13.4462 35.5321 13.4029 35.6649 13.3423C36.0746 13.2616 36.3314 13.3942 36.4497 13.7375C36.493 13.8615 36.4613 13.9308 36.3314 13.9538C35.9275 13.8442 35.5581 13.974 35.2984 14.3C35.209 14.4154 35.1772 14.5307 35.232 14.6634C35.3013 14.8278 35.2984 14.9749 35.1368 15.0874C35.0733 15.1336 35.0012 15.1711 34.9348 15.2172C34.6722 15.5345 34.4327 15.872 34.1384 16.1605C34.0028 16.3076 33.9249 16.5441 33.6479 16.4633C33.5123 16.1662 33.8008 16.0393 33.8816 15.8518C33.7344 15.973 33.6883 16.2124 33.4834 16.322C32.7793 16.1893 32.762 16.2124 32.9929 16.945C33.0246 17.0431 33.0419 17.1441 33.0159 17.245C32.9467 17.4412 32.8111 17.5739 32.6177 17.6489C32.0002 17.5594 31.7348 18.0181 31.4318 18.4161C31.2558 18.6469 31.4635 18.6988 31.6049 18.794C31.9541 19.0248 31.9483 19.1315 31.5905 19.368C31.4578 19.4459 31.3308 19.5324 31.25 19.6738C31.1259 19.9939 30.9412 20.2766 30.6671 20.4756C30.2718 20.7612 30.0698 21.1823 29.8476 21.5862C29.7005 21.866 29.5937 22.1544 29.2676 22.1198C29.4725 21.9987 29.4898 22.2842 29.6168 22.4082C29.8649 22.189 30.0034 21.9121 30.1852 21.6756C30.292 21.5343 30.3988 21.3987 30.5402 21.2977C30.6267 21.2343 30.7277 21.1073 30.8374 21.2198C30.9355 21.3208 30.8345 21.4362 30.7797 21.5371C30.7306 21.6266 30.6642 21.7044 30.6036 21.7881C30.2862 22.2208 30.2862 22.2208 30.7537 22.5352C30.9239 22.5207 31.0971 22.5467 31.2615 22.5063C31.4606 22.4573 31.6511 22.3909 31.628 22.1256C31.8271 21.791 32.2282 21.6439 32.5254 21.7996C32.1416 22.665 31.654 23.4409 30.7739 23.9053C30.9008 24.1216 31.0999 24.1187 31.224 23.8938C31.4895 23.4034 32.0002 23.1207 32.2599 22.6332C32.4764 22.2236 32.8053 22.0073 33.3449 22.0246C33.1025 21.8285 32.8572 21.8746 32.687 21.7419C32.7649 21.4016 32.9352 21.1045 33.1083 20.8074C33.5959 20.8593 33.9739 20.8391 34.3231 20.3285C34.6751 19.8122 35.0156 19.2036 35.6678 18.9411C35.8697 18.8603 35.8495 18.6902 35.8034 18.5344C35.7312 18.2748 35.7774 18.0354 35.9217 17.8248C36.2593 17.3316 36.4526 16.7604 36.8595 16.3018C37.1509 15.973 36.7066 16.1201 36.62 16.0278C36.6027 16.0047 36.5796 15.973 36.5882 15.9499C36.7671 15.5691 36.6344 15.2807 36.317 15.0471C36.3863 14.8048 36.4036 14.5336 36.6604 14.3894C36.7037 14.3779 36.747 14.3779 36.7902 14.3836C36.9893 14.4586 37.1971 14.5221 37.2923 14.7442C37.301 14.7846 37.301 14.8221 37.2981 14.8624C37.2433 15.1682 37.4251 14.9144 37.4885 14.9403C37.7078 14.8509 37.8723 14.9663 38.0368 15.0874C38.2186 15.2201 38.3975 15.3817 38.6572 15.2894C38.9428 15.4942 38.6831 15.7797 38.7639 16.0134C38.5879 16.0999 38.5216 16.3047 38.3484 16.3912C38.1493 16.3451 38.158 16.1057 37.9762 16.0076C37.7569 16.2557 37.5232 16.4662 37.6444 16.8729C37.7251 17.1412 37.4856 17.3344 37.2923 17.4844C37.1048 17.6315 36.9893 17.796 36.9778 18.0296C36.972 18.1306 36.8479 18.2834 37.0182 18.3238C37.1711 18.3584 37.2952 18.2459 37.3212 18.0758C37.3414 17.946 37.3385 17.8133 37.402 17.6921C37.451 17.6027 37.4856 17.5046 37.5434 17.421C37.728 17.1412 38.005 17.0027 38.3253 17.0114C38.6197 17.02 38.585 17.3229 38.6601 17.5133C38.7841 17.8219 38.7235 18.1075 38.4523 18.2921C38.1724 18.4825 37.956 18.7998 37.6876 18.918C37.3039 19.0853 36.8999 19.443 36.4065 19.1719C36.2881 19.1084 36.0977 19.342 36.1698 19.5093C36.3257 19.8699 36.2131 19.9709 35.8553 19.9132C35.7024 19.8872 35.61 19.9853 35.5293 20.0949C35.2869 20.4237 34.9983 20.7179 34.8136 21.09C34.7069 21.3035 34.5857 21.4968 34.3577 21.6035C34.2654 21.6467 34.1788 21.7246 34.1528 21.8256C33.922 22.7486 33.1516 23.3169 32.6783 24.0812C32.2484 24.7735 31.6193 25.3043 31.1086 25.9331C30.9586 26.1177 30.8345 26.2994 30.7479 26.5215C30.5084 27.1215 30.2227 27.6955 29.6601 28.0734C29.5216 28.1657 29.4004 28.2984 29.4061 28.4628C29.4177 28.7599 29.2763 29.0397 29.2763 29.305C29.2734 30.0089 28.7107 30.2685 28.3385 30.6838C28.0499 30.6492 27.9605 30.9261 27.7902 31.0646C27.6315 31.1973 27.4786 31.3155 27.3083 31.3703C27.4844 31.3415 27.6373 31.2232 27.7787 31.0819C27.8393 31.0184 27.8999 30.9434 27.9893 31.0444C28.0874 31.3011 28.0066 31.5607 27.7902 31.6501C27.0948 31.9357 26.6245 32.5645 25.9233 32.827C25.7473 32.8933 25.5741 32.9741 25.3779 32.9193C25.326 32.9049 25.2769 32.8183 25.2452 32.8414C25.1615 32.902 25.2163 32.9972 25.2279 33.0808C25.3404 33.3462 25.2971 33.5943 25.1413 33.8279C25.0749 33.926 25.0115 34.0414 24.8758 34.0183C24.7114 33.9923 24.7691 33.8366 24.7402 33.7327C24.7287 33.6895 24.7258 33.6462 24.671 33.5914C24.4545 33.6721 24.1977 33.7904 24.1487 33.3866C24.1371 33.3 24.0563 33.2712 23.9813 33.3231C23.889 33.3837 23.8832 33.4818 23.9698 33.5395C24.1775 33.6808 24.1833 33.8366 24.0159 34.0327C24.2439 34.0529 24.518 33.8625 24.6277 34.1221C24.746 34.4019 24.4719 34.5952 24.342 34.8057C24.3507 34.8721 24.3997 34.8606 24.4372 34.8634C24.6335 34.8721 24.9105 34.7106 24.9595 35.0596C25.0028 35.3567 24.9162 35.6278 24.6017 35.7288C24.3824 35.798 24.1054 35.9307 24.0073 35.5442C23.9842 35.4576 23.915 35.3942 23.837 35.3509C23.5283 35.1836 23.4475 34.9182 23.4533 34.5808C23.459 34.1481 23.2974 34.0616 22.9108 34.2577C22.6511 34.3904 22.3625 34.4942 22.3654 34.8663C22.3654 34.9182 22.3221 34.9788 22.276 35.0134C21.8027 35.3798 21.5286 35.948 21.0034 36.2566C20.813 36.3691 20.7149 36.5307 20.6514 36.7355C20.5706 37.0008 20.4321 37.1681 20.106 37.047C19.8925 36.9662 19.6819 36.9893 19.5491 37.2431C19.4568 37.4191 19.2663 37.4277 19.0846 37.4162C18.3978 37.3672 17.7832 37.5777 17.2407 37.9816C16.9464 38.1979 16.6261 38.3681 16.326 38.5758C15.948 38.8383 15.4545 38.769 15.0448 38.9911C14.7764 39.1382 14.4994 39.2565 14.2542 39.4469C13.9137 39.7122 13.527 39.8853 13.0798 39.8132C12.8085 39.7699 12.6873 40.018 12.468 40.0901C11.9024 40.2805 11.2907 40.3007 10.754 40.5805C10.6761 40.6209 10.5636 40.6266 10.5203 40.693C10.1423 41.2756 9.62287 41.0189 9.15541 40.9035C8.83512 40.8257 8.56388 40.7997 8.28687 41.0045C8.10796 41.1372 7.90309 41.1054 7.69822 41.0535C7.34041 40.9612 6.98837 40.9353 6.62768 41.0795C6.15157 41.2699 5.64948 41.0218 5.15606 41.1141C4.99158 41.1458 4.81556 41.1083 4.65109 41.1949C4.48661 41.2814 4.33945 41.2324 4.22691 41.0881C4.20383 41.0247 4.21537 40.9353 4.1288 40.9266C4.10861 40.9237 4.15477 40.9641 4.16632 40.9843C4.18074 41.0074 4.19517 41.0305 4.19806 41.0622C4.21826 41.4516 4.42601 41.6102 4.80979 41.6535C5.3869 41.717 5.96978 41.766 6.53534 41.9131C6.70848 41.9593 6.88161 41.9362 7.05474 41.9016C7.27116 41.8583 7.49046 41.8727 7.70687 41.9016C7.93483 41.9304 8.16856 42.0054 8.20319 42.2535C8.2407 42.5073 8.0012 42.5737 7.81075 42.6458C7.70976 42.6746 7.61165 42.6746 7.48757 42.5621C7.66071 42.7611 7.94349 42.5794 8.04448 42.8102C8.03871 42.8563 8.01851 42.8909 7.97811 42.914C7.72996 43.0121 7.47892 43.09 7.20768 43.0092C7.17016 42.9919 7.14131 42.9631 7.12111 42.9284C7.11534 42.6861 6.8239 42.7813 6.75176 42.6169C6.59594 42.3804 6.44301 42.3314 6.29296 42.6198C6.23236 42.6775 6.15734 42.715 6.07654 42.7352C5.78799 42.7554 5.56003 42.5448 5.28302 42.5333C5.40133 42.8448 5.62063 42.9544 5.97266 42.8477C6.15734 42.7929 6.33047 42.7265 6.5238 42.7842C6.57863 42.7986 6.65365 42.8044 6.68251 42.8448C6.93355 43.214 7.34041 43.3698 7.69533 43.6005C7.6809 43.6149 7.67225 43.6351 7.66359 43.6524Z" fill="#64A531"/>
<path d="M42.4142 20.4814C42.2035 21.0324 41.9958 21.5833 41.6524 22.0708C41.5052 22.1342 41.3754 22.2092 41.4388 22.4082C41.3782 22.6707 41.1965 22.8553 41.0233 23.0428C40.5703 22.8121 40.5761 22.8121 40.7348 22.3419C40.8444 22.0131 40.9772 21.6958 41.1734 21.4073C41.208 21.3583 41.335 21.2833 41.1763 21.2198C41.0262 21.2314 40.9974 21.3612 40.9512 21.4621C40.7809 21.8198 40.5414 22.1313 40.3366 22.4659C40.0855 22.8784 39.8749 23.3255 39.6642 23.764C39.52 24.188 39.2054 24.5024 38.9486 24.8543C38.5879 25.3475 38.1926 25.809 37.8261 26.2792C37.9445 26.2648 38.0714 26.2013 38.1234 26.0831C38.4552 25.3447 39.1362 24.8803 39.5748 24.2255C39.7046 24.0322 39.8806 23.8793 39.9874 23.6601C40.2269 23.164 40.2846 23.1611 40.6828 23.5592C40.3019 24.2976 39.7739 24.9437 39.2574 25.5812C38.2013 26.885 37.073 28.1253 35.9967 29.4118C35.0185 30.5829 34.0432 31.7655 32.9467 32.8241C31.4953 34.2231 30.0756 35.6624 28.4539 36.8739C28.1654 37.0903 27.8249 37.2085 27.5277 37.4249C27.2708 37.6123 27.0948 37.8777 26.8034 38.0421C25.8858 38.5613 25.0951 39.2709 24.192 39.8219C22.7694 40.6872 21.2949 41.4343 19.7338 42.0198C19.0528 42.2737 18.3834 42.5621 17.688 42.7727C16.2192 43.2169 14.7476 43.6467 13.2096 43.8226C12.2083 43.938 11.2099 43.9178 10.2115 43.9784C10.0038 43.8746 9.6171 44.114 9.59113 43.6496C9.58825 43.6207 9.42954 43.6265 9.34586 43.6034C8.97363 43.5082 8.56965 43.5226 8.24358 43.2746C8.18587 43.1275 8.00986 43.0438 8.01851 42.8592L8.0214 42.8534C8.10796 42.7611 8.2003 42.6775 8.32438 42.6371C8.5408 42.6198 8.78607 42.6458 8.76587 42.3054C8.75721 42.141 8.87552 42.0833 9.01691 42.0573C9.08905 42.0458 9.16119 42.0343 9.23333 42.0429C9.83352 42.1035 10.3991 42.1092 10.829 41.5525C10.9733 41.3679 11.2445 41.3449 11.5129 41.3593C11.9082 41.3824 12.2862 41.2439 12.6296 41.0362C12.7912 40.9382 12.947 40.8228 13.1519 40.8314C13.3596 40.8401 13.5357 40.918 13.5761 41.1343C13.6136 41.3391 13.4376 41.4227 13.2904 41.4631C12.8431 41.5872 12.3757 41.6391 11.9515 41.8496C11.8649 41.8929 11.7495 41.8785 11.6803 42.0112C12.1073 42.0573 12.5286 42.0429 12.9441 42.0746C13.175 42.0919 13.4058 41.9823 13.5847 41.8266C13.9685 41.492 14.4417 41.4112 14.9178 41.3506C15.0679 41.3304 15.2699 41.3131 15.316 41.5208C15.3564 41.6996 15.2439 41.815 15.0737 41.8843C14.7678 42.0083 14.7678 42.1987 14.9756 42.4208C14.8774 42.7035 14.5975 42.5765 14.4129 42.6573C14.0435 42.8159 13.6482 42.9227 13.4202 42.9284C14.182 42.7698 15.1083 42.5188 16.0461 42.3429C16.4385 42.2592 16.8079 42.0977 17.2003 42.0227C17.258 42.0112 17.2118 41.9881 17.2032 41.9939C17.0935 42.0689 16.9608 42.0516 16.8367 42.0775C16.4703 42.0631 16.1298 42.1669 15.7893 42.2939C15.619 42.3573 15.4372 42.4237 15.2439 42.3573C15.0967 42.0544 15.2699 41.8698 15.4892 41.7054C15.9335 41.3737 16.4616 41.192 16.9695 41.0074C17.7861 40.7132 18.5854 40.3526 19.4395 40.1565C19.7223 40.0901 19.956 39.8911 20.2186 39.7671C21.266 39.2825 22.2471 38.6796 23.2571 38.1287C23.8515 37.8027 24.4055 37.4883 24.8037 36.9345C24.8874 36.8191 25.0115 36.7297 25.1327 36.6489C25.4299 36.447 25.8194 36.4643 26.1051 36.2393C26.1368 36.2163 26.1714 36.1961 26.2061 36.1759C26.4311 35.7519 26.9275 35.6913 27.2506 35.4028C27.822 34.8346 28.5289 34.4683 29.2215 34.0817C29.9775 33.5712 30.7248 33.052 31.4635 32.4924C30.8605 32.6626 30.5084 33.176 30.0063 33.4731C29.6745 33.6693 29.3513 33.8452 28.9646 33.8798C28.8463 33.8827 28.7511 33.8337 28.6876 33.7327C28.604 33.5164 28.728 33.3693 28.8637 33.2308C29.1003 32.9914 29.36 32.7722 29.6485 32.6049C29.9313 32.4405 30.217 32.3078 30.266 31.9299C30.2805 31.8261 30.3786 31.7453 30.4824 31.7338C31.0076 31.6674 31.175 31.2376 31.351 30.8482C31.628 30.2396 31.6367 30.2108 32.2946 30.2137C32.3696 30.2137 32.4417 30.1992 32.5052 30.1617C32.7216 30.029 32.8284 30.1271 32.8832 30.3348C32.9265 30.505 33.0535 30.6002 33.1862 30.6925C33.3016 31.03 32.9236 31.0386 32.863 31.2059C32.9813 31.0213 33.342 30.9723 33.3189 30.6175C33.3132 30.4848 33.3709 30.3636 33.4084 30.1935C33.2035 30.28 33.0044 30.3175 32.8486 30.1444C32.7793 30.0694 32.7043 30.0435 32.6177 30.0954C32.2946 30.2944 32.2167 30.1127 32.2051 29.8329C32.2744 29.4983 32.6293 29.4233 32.7995 29.1781C33.0621 28.8176 33.4661 28.6243 33.7893 28.3359C33.8758 28.258 33.9941 28.1887 34.0951 28.3099C34.1759 28.4051 34.1182 28.5147 34.049 28.5868C33.7922 28.8493 33.6017 29.1608 33.3824 29.4608C33.5151 29.2993 33.6854 29.2127 33.8816 29.2906C34.1153 29.3829 34.2683 29.3281 34.3866 29.106C34.4847 28.9185 34.6838 28.8291 34.8627 28.6647C34.6867 28.7339 34.6059 28.8637 34.4847 28.9445C34.3837 29.0108 34.2798 29.0858 34.173 28.9762C34.0778 28.8753 34.1153 28.7541 34.1846 28.6531C34.3462 28.4253 34.5482 28.232 34.7617 28.0561C35.2551 27.6522 35.6216 27.1042 36.2102 26.8042C36.4295 26.6917 36.4901 26.4033 36.6402 26.2042C36.7181 26.1004 36.7729 25.9562 36.8941 25.9129C37.0846 25.8437 37.1538 25.7773 37.024 25.5841C36.9547 25.4831 36.9922 25.3504 37.0644 25.2523C37.3327 24.8918 37.5174 24.462 37.9473 24.2428C38.0685 24.1822 38.1753 24.0986 38.2272 23.9745C38.5129 23.3053 39.0554 22.8121 39.4305 22.2035C39.6815 21.7967 40.1548 21.5689 40.3279 21.0872C40.3914 20.9083 40.4751 20.741 40.4808 20.5449C40.4866 20.2391 40.5818 19.968 40.8242 19.7718C40.9627 19.6593 41.0002 19.5122 41.0262 19.3507C41.0637 19.1344 41.1272 18.9151 41.2599 18.7421C41.4417 18.5027 41.5514 18.3123 41.2859 18.0383C41.1272 17.8767 41.3292 17.6546 41.3523 17.4556C41.3725 17.2825 41.5168 17.0864 41.2542 16.9681C41.1791 16.8614 41.1647 16.7345 41.1474 16.6104C41.2599 16.2124 41.4013 15.823 41.511 15.422C41.7476 15.1336 41.9582 15.2432 42.1545 15.4682C42.2612 15.5893 42.3218 15.7364 42.3622 15.8922C42.4748 16.1749 42.3853 16.5037 42.5555 16.772C42.7316 17.2162 42.4286 17.6114 42.4199 18.0065C42.4978 17.6719 42.5151 17.2825 42.9076 17.0777C43.0172 17.0229 43.023 16.8816 43.098 16.7951C43.1788 16.7518 43.2596 16.7143 43.2856 16.8556C43.2019 17.4181 43.124 17.9835 43.0317 18.5459C42.9335 19.1286 42.7546 19.6911 42.5209 20.2334C42.417 20.1757 42.3766 20.0487 42.2699 20.0026C42.1602 19.9536 42.0823 19.7718 41.9496 19.867C41.8515 19.9363 41.7966 20.0834 41.8053 20.2132C41.8168 20.4093 41.9842 20.3574 42.1025 20.3747C42.2122 20.392 42.3305 20.3805 42.4142 20.4814Z" fill="#61A432"/>
<path d="M43.2827 16.8585C43.2423 16.8008 43.1817 16.8095 43.124 16.8181C42.7489 16.8441 42.5959 16.6249 42.5469 16.2932C42.8672 16.048 42.8239 15.7884 42.5988 15.497C42.4401 15.2894 42.3593 15.0326 42.2353 14.8048C42.1141 14.5827 41.964 14.375 41.661 14.6317C41.4533 14.8076 41.3667 14.6403 41.3754 14.4557C41.3869 14.1846 41.5139 13.951 41.7418 13.7952C41.8861 13.6942 41.9756 13.5731 41.9582 13.3971C41.9178 12.9356 41.9207 12.4712 41.9063 12.0097C41.9034 11.9376 41.8919 11.8655 41.8601 11.7962C41.8053 11.678 41.7505 11.5165 41.5889 11.5886C41.4302 11.6607 41.5831 11.7876 41.5947 11.8914C41.586 12.2087 41.4417 12.477 41.2369 12.6991C41.0464 12.9068 40.8444 12.8664 40.7636 12.6068C40.7377 12.526 40.7665 12.5174 40.6742 12.5376C40.3596 12.6097 40.2875 12.4424 40.3395 12.1712C40.5068 11.8366 40.8819 11.6982 41.0753 11.3867C40.6713 11.8914 40.0249 12.0732 39.5834 12.526C39.4998 12.4626 39.4103 12.5491 39.3237 12.5231C39.1939 12.4481 39.0785 12.3616 39.0583 12.1943C39.3901 11.7789 39.921 11.6463 40.3106 11.2915C39.6989 11.4761 39.064 11.4011 38.4465 11.4991C37.8608 11.3376 37.2606 11.2713 36.6546 11.228C36.5334 11.2194 36.4267 11.1963 36.3487 11.0924C36.3257 11.0405 36.3228 10.9857 36.3228 10.928C36.3228 10.8848 36.4959 10.7203 36.2535 10.8242C36.167 10.8617 36.0602 10.8271 35.9852 10.7463C35.9419 10.6251 35.9909 10.5155 36.1064 10.5271C36.4324 10.5588 36.5854 10.3107 36.7527 10.1896C36.7066 10.23 36.6229 10.2098 36.5421 10.1319C37.3529 9.98191 38.1551 9.72808 38.9804 9.72519C40.1605 9.71942 41.0551 9.16272 41.889 8.41275C42.7691 7.62241 43.4068 6.65899 43.9839 5.64654C44.0416 5.54558 44.0676 5.49943 43.9752 5.39559C43.199 4.53313 43.6636 3.63028 44.5062 3.19184C44.965 2.98993 44.8582 3.43414 44.9852 3.61009C44.8842 3.84951 44.636 3.94181 44.4773 4.12642C44.3244 4.30525 44.2349 4.48121 44.3504 4.70908C44.4687 4.91099 44.6245 4.98311 44.8409 4.85907C44.8928 4.83311 44.8236 4.836 44.8755 4.836C45.216 4.83888 45.392 4.59659 45.5882 4.37736C45.7902 4.3514 45.9345 4.42063 45.9865 4.62543C46.0297 4.80138 45.9085 4.88215 45.7758 4.9658C45.0313 5.43885 44.5466 6.13401 44.0964 6.87532C43.7819 7.39453 43.4443 7.91374 42.9826 8.32622C42.6363 8.51371 42.5065 8.90311 42.2064 9.14541C41.6841 9.56654 41.1012 9.88672 40.4982 10.2242C40.6424 10.455 41.1763 10.4088 40.8271 10.9396C41.2022 10.7694 41.4504 11.0376 41.7274 10.9251C41.915 10.7751 41.9698 10.5473 42.065 10.3425C42.1949 9.91268 42.4401 9.52616 42.6306 9.13099C42.795 8.78485 43.1327 8.42718 43.4847 8.18488C43.678 8.05219 43.8079 7.90508 43.9089 7.71182C44.0272 7.18108 44.3705 6.77725 44.6735 6.35035C44.7832 6.19747 44.9159 6.11094 45.1179 6.14844C45.2304 6.16863 45.3459 6.14844 45.4584 6.09651C45.871 5.90614 45.8739 5.90902 45.8739 6.359C45.8739 6.4715 45.9287 6.59265 45.8335 6.6936C45.6258 7.2705 45.2737 7.76374 44.9679 8.28584C44.5495 8.9983 44.0618 9.68481 43.7588 10.4463C43.3173 11.5655 43.2077 12.7366 43.5453 13.9394C43.7646 14.724 43.8338 15.5432 43.7242 16.3653C43.7011 16.6364 43.6492 16.896 43.2827 16.8585Z" fill="#5B8531"/>
<path d="M39.5459 12.5029C39.8172 12.1568 40.149 11.8799 40.5645 11.7299C40.7665 11.6549 40.8502 11.4991 40.9252 11.329C40.9656 11.2338 41.0175 11.1761 41.1157 11.2049C41.182 11.2251 41.2772 11.2597 41.2946 11.3117C41.3263 11.404 41.2282 11.4616 41.1647 11.5136C40.9137 11.7299 40.6569 11.9405 40.4 12.151C39.8864 12.5347 40.1375 12.8722 40.4606 13.2068C40.4837 13.2904 40.4837 13.3712 40.4433 13.4519C40.4174 13.4837 40.3856 13.5096 40.351 13.5298C40.1981 13.5644 40.0538 13.6279 39.9008 13.6712C39.8403 13.6654 39.7854 13.6365 39.7364 13.6019C39.5834 13.5067 39.5575 13.3741 39.6498 13.2096C39.5055 13.3394 39.5806 13.5702 39.3786 13.6452C38.6947 13.925 37.9762 13.8904 37.2779 13.7837C36.7672 13.7058 36.6979 13.2183 37.0672 12.6818C37.1365 12.5722 37.2058 12.4626 37.275 12.353C37.6184 11.7991 37.6184 11.7991 36.9518 11.7126C36.3372 11.6318 35.7053 11.5914 35.2984 11.0174C35.0791 10.6915 35.3532 10.5386 35.5494 10.403C35.8409 10.1982 36.19 10.1463 36.5421 10.1348C36.6286 10.1348 36.7152 10.1348 36.8826 10.1348C36.6286 10.4146 36.5305 10.7809 36.089 10.6078C36.0833 10.605 36.0371 10.6973 36.0111 10.7463C36.0746 10.9021 36.2651 10.8905 36.3574 11.0088C36.7354 11.2194 37.1769 11.1617 37.578 11.2222C37.8867 11.2684 38.1782 11.3088 38.4552 11.453C38.6226 11.6174 38.5446 11.7818 38.4292 11.9174C38.1984 12.1972 38.0483 12.5289 37.7857 12.8433C38.1637 12.5952 38.5793 12.5145 38.8794 12.226C38.9342 12.1741 39.0121 12.1741 39.0756 12.2347C39.191 12.2895 39.2747 12.376 39.3382 12.4828C39.1968 12.8924 38.8678 12.9529 38.5475 12.9385C38.9688 13.0741 39.2025 12.6558 39.5459 12.5029Z" fill="#4F782E"/>
<path d="M45.8451 6.69937C45.8018 6.49169 45.669 6.29266 45.9057 6.03594C44.7139 6.43977 44.7255 6.44842 44.2147 7.20992C44.0935 7.39165 44.157 7.61087 44.0099 7.76374C43.8627 7.63394 43.7588 7.68298 43.6867 7.84451C43.577 8.08969 43.3664 8.24545 43.1673 8.4041C43.0519 8.4964 42.8874 8.58005 42.9509 8.28872C43.6232 7.4551 44.2032 6.55803 44.7688 5.6523C44.8899 5.45904 45.1121 5.27155 45.3257 5.20521C45.5709 5.13021 45.646 4.89369 45.8595 4.77831C46.0932 4.65139 45.7989 4.47832 45.594 4.42929C45.4671 4.33987 45.4267 4.22449 45.5305 4.10045C45.6344 3.97642 45.7729 3.96777 45.9085 4.037C45.6546 3.78316 45.2651 3.81201 44.9679 3.63028C44.8986 3.51779 44.5841 3.55529 44.7774 3.26684C44.8293 3.18607 44.6072 3.22934 44.5177 3.19473C45.1439 2.8832 45.7296 2.94666 46.2 3.37645C46.2259 3.42837 46.2433 3.48606 46.2375 3.54087C46.2202 3.78893 46.376 3.63028 46.4626 3.63894C47.0137 4.1841 47.1926 5.60615 46.7684 6.23497C46.552 6.55226 46.2461 6.72822 45.8451 6.69937Z" fill="#638F33"/>
<path d="M3.54593 39.868C3.15926 40.0872 2.77549 40.3238 2.76394 40.8285C2.75529 41.192 3.30354 41.7747 3.76523 41.867C3.9701 41.9073 4.13169 42.1814 4.41447 41.9881C4.46353 41.9535 4.79536 42.2275 4.89636 42.415C4.96273 42.5361 4.7492 42.7352 4.6078 42.7208C4.41736 42.7034 4.2096 42.6054 4.05667 42.4813C3.79985 42.2737 3.58632 42.314 3.35836 42.5044C3.15926 42.4294 2.94573 42.3775 2.8332 42.1698C2.76106 41.89 3.05827 41.9794 3.15638 41.8583C3.01499 41.6477 2.78414 41.5785 2.58504 41.4631C2.31957 41.3102 2.25032 41.1141 2.41768 40.8458C2.44942 40.7968 2.41479 40.8603 2.44076 40.8083C2.68603 40.3353 2.68603 40.3353 2.233 40.044C2.21281 39.7584 2.48982 39.7151 2.63987 39.5853C2.81588 39.4324 3.05827 39.3575 3.2718 39.2478C3.59209 39.2363 3.73349 39.4786 3.89796 39.6863C3.84025 39.868 3.6902 39.8622 3.54593 39.868Z" fill="#54A034"/>
<path d="M41.1993 21.1852C41.2773 21.1593 41.2946 21.0035 41.3956 21.0612C41.4908 21.1131 41.4446 21.2141 41.3927 21.2833C41.1157 21.641 40.9368 22.0448 40.8011 22.4746C40.7434 22.6621 40.5818 22.8438 40.9512 22.8553C40.9772 22.8553 41.0002 22.9794 41.0262 23.0428C40.98 23.2592 40.8358 23.412 40.6828 23.5563C40.5039 23.5678 40.4202 23.3947 40.2673 23.3313C39.8778 24.1476 39.292 24.7879 38.6831 25.411C38.5822 25.5148 38.4869 25.6331 38.4292 25.7629C38.2734 26.1177 38.1032 26.4436 37.5924 26.4523C38.2474 25.5148 39.0323 24.7043 39.6181 23.7466C39.8431 23.2938 40.1634 22.8986 40.3885 22.4429C40.5472 22.1198 40.778 21.8314 40.9252 21.4968C40.9772 21.3756 41.0291 21.2227 41.1993 21.1852Z" fill="#54A034"/>
<path d="M2.23589 40.044C2.88225 40.1507 2.94862 40.2747 2.55618 40.843C2.36285 41.1228 2.35997 41.2468 2.68892 41.391C2.89091 41.4804 3.12752 41.567 3.26314 41.7689C3.31508 41.8468 3.39876 41.9391 3.31797 42.0458C3.23717 42.1554 3.1708 42.0573 3.09578 42.0198C2.94285 41.9477 2.88802 42.0602 2.8332 42.1669C1.9935 41.6362 1.77709 40.8603 2.23589 40.044Z" fill="#64A531"/>
<path d="M8.28398 43.2025C8.61005 43.3957 8.98805 43.3871 9.33432 43.4909C9.47571 43.5342 9.79312 43.3986 9.73541 43.8111C9.70944 43.9928 10.0817 43.814 10.2115 43.9755C9.82198 43.9784 9.42666 44.0563 9.04577 43.9178C8.86686 43.7765 8.78029 43.7621 8.46 43.8197C8.1801 43.8399 7.90886 43.8082 7.66648 43.6496L7.67802 43.6265C7.73284 43.439 7.81364 43.2688 7.97523 43.1448C8.08488 43.1044 8.19165 43.1188 8.28398 43.2025Z" fill="#64A531"/>
<path d="M42.4142 20.4814C42.3997 20.4814 42.3853 20.4814 42.3709 20.4814C41.4764 20.4872 41.4735 20.4785 41.9351 19.6478C42.1198 19.8641 42.5123 19.8382 42.518 20.2362C42.518 20.3314 42.4949 20.418 42.4142 20.4814Z" fill="#54A034"/>
<path d="M46.4597 3.63894C46.3067 3.7197 46.5347 3.88989 46.3616 3.98219C46.1278 3.8322 46.0644 3.63317 46.1942 3.37645C46.2952 3.45433 46.477 3.44568 46.4597 3.63894Z" fill="#97B573"/>
<path d="M8.45711 43.8226C8.7197 43.4419 8.93034 43.7938 9.16119 43.8746C9.12367 43.889 9.08328 43.9034 9.04576 43.9207C8.84378 43.9236 8.63313 43.9726 8.45711 43.8226Z" fill="#61A432"/>
<path d="M41.4417 22.4082C41.2744 22.3852 41.257 22.2871 41.3292 22.1631C41.4042 22.0304 41.511 21.9842 41.6524 22.0708C41.612 22.2006 41.5658 22.3304 41.4417 22.4082Z" fill="#54A034"/>
<path d="M14.9611 42.4179C14.8168 42.4063 14.612 42.4208 14.6408 42.2217C14.6697 42.0169 14.7822 41.7718 15.0188 41.766C15.192 41.7602 15.2266 41.6968 15.2324 41.5785C15.241 41.3766 15.0679 41.4429 14.9842 41.4574C14.5225 41.5381 14.0695 41.59 13.6713 41.9304C13.4404 42.1294 13.0999 42.2967 12.6989 42.1929C12.367 42.1092 12.0034 42.1612 11.6543 42.1525C11.5475 42.1496 11.4292 42.1352 11.4033 42.0227C11.3715 41.8698 11.5273 41.8785 11.611 41.8583C12.0987 41.7285 12.5344 41.4227 13.0711 41.4372C13.2298 41.4429 13.4174 41.3593 13.5068 41.192C13.5443 41.1199 13.4635 41.0564 13.4087 41.0131C13.2356 40.8833 13.0538 40.8862 12.8864 41.0189C12.4969 41.3276 12.0121 41.5035 11.5591 41.4977C11.1926 41.492 10.9502 41.5814 10.6905 41.7775C10.5953 41.8496 10.5058 41.9073 10.4712 42.0343C10.4193 42.2391 10.2606 42.2765 10.0932 42.2131C9.8364 42.115 9.57093 42.1496 9.31123 42.1612C9.11502 42.1698 8.76875 41.9708 8.89283 42.5188C8.95343 42.79 8.54368 42.7986 8.2811 42.6804C8.07622 42.8131 7.91175 42.7236 7.75881 42.5852C7.86269 42.4496 8.2003 42.4958 8.11662 42.2419C8.05602 42.0487 7.83384 41.9881 7.60299 42.0141C6.53246 42.141 5.50232 41.7862 4.44621 41.74C4.20094 41.7285 4.05955 41.3622 4.15766 41.0247C4.17786 40.993 4.20383 40.9843 4.24134 40.9958C4.33656 41.1141 4.47218 41.2468 4.60203 41.1141C4.78094 40.9324 4.98004 41.0535 5.14451 41.0074C5.71008 40.8487 6.29873 41.2439 6.8643 40.8776C7.08071 40.7391 7.42121 40.8574 7.69533 40.941C7.80787 40.9756 7.95503 41.0651 8.02717 41.0016C8.61293 40.468 9.22755 40.866 9.82775 40.9295C10.0355 40.9526 10.1163 40.9122 10.2837 40.7362C10.5722 40.4334 11.0224 40.3007 11.4581 40.2199C11.9428 40.1276 12.4478 40.0872 12.8143 39.6921C12.8662 39.6372 12.9355 39.594 13.0105 39.6257C13.5241 39.8449 13.8935 39.5738 14.2744 39.2853C14.7332 38.9421 15.2554 38.7027 15.8239 38.6536C16.274 38.6161 16.5511 38.296 16.8656 38.0854C17.5812 37.6095 18.2795 37.197 19.1798 37.321C19.3385 37.3441 19.4741 37.2951 19.5087 37.1104C19.5607 36.8249 19.7251 36.8162 19.9531 36.9172C20.3109 37.0787 20.5446 37.0066 20.5793 36.5682C20.5879 36.4528 20.6399 36.3259 20.7524 36.2797C21.3411 36.0403 21.5777 35.423 22.0653 35.074C22.2096 34.9702 22.3423 34.8461 22.3019 34.6009C22.2702 34.399 23.1243 33.9231 23.3148 34.0212C23.5081 34.1192 23.6206 34.2721 23.5658 34.5202C23.4879 34.8721 23.5716 35.1548 23.9467 35.2961C24.0217 35.325 24.1343 35.4028 24.1343 35.4605C24.1371 35.9884 24.5209 35.648 24.619 35.6163C24.8672 35.5355 24.9278 35.2471 24.8441 35.0279C24.7662 34.8231 24.544 34.9932 24.3882 34.9932C24.293 34.9932 24.1804 35.0942 24.1112 34.9817C24.0333 34.8519 24.14 34.774 24.241 34.7019C24.3103 34.6529 24.3853 34.5923 24.4199 34.5202C24.4747 34.3961 24.6479 34.2663 24.5267 34.1365C24.4257 34.0269 24.2526 34.076 24.1256 34.1712C24.0246 34.2462 23.9092 34.3125 23.8168 34.1971C23.6985 34.0529 23.8688 34.001 23.9467 33.9346C24.0563 33.8394 24.192 33.7183 23.9352 33.6895C23.7014 33.6606 23.7072 33.5337 23.7447 33.3895C23.788 33.2222 23.915 33.1183 24.1025 33.1299C24.3362 33.1443 24.2785 33.3029 24.2583 33.45C24.2526 33.502 24.2785 33.5568 24.293 33.6145C24.8412 33.3837 24.8528 33.3924 24.8787 34.0039C25.199 33.6923 25.2192 33.3433 25.1125 32.9683C25.1586 32.8876 25.2308 32.8587 25.3173 32.8616C26.0474 32.8183 26.5466 32.3453 27.0717 31.9241C27.1727 31.8434 27.2506 31.7367 27.3949 31.7194C27.8075 31.6703 27.9547 31.4049 27.9345 31.0184C27.9316 30.7675 28.1336 30.7357 28.3039 30.6694C28.5318 30.4098 28.6963 30.0954 28.9993 29.9021C29.0454 29.8704 29.1205 29.8041 29.1118 29.7781C28.9675 29.3743 29.3831 29.0541 29.2676 28.6531C29.1868 28.3734 29.3427 28.1282 29.5389 28.007C30.1621 27.6205 30.442 27.0234 30.6671 26.3802C30.696 26.2994 30.7162 26.1927 30.7768 26.1465C31.3337 25.7225 31.5963 25.0447 32.1705 24.6091C32.5716 24.3034 32.788 23.7611 33.0967 23.3313C33.4545 22.8323 33.9509 22.414 34.0259 21.7477C34.7069 21.2573 35.0185 20.4641 35.561 19.8613C35.6678 19.7401 35.8034 19.717 35.9477 19.8411C36.0025 19.8872 36.089 19.893 36.141 19.8209C36.1612 19.792 36.1698 19.7141 36.1554 19.7026C35.6822 19.3565 36.1958 19.2296 36.3083 19.0161C36.3401 18.9584 36.4122 18.9209 36.4786 18.8603C36.4959 19.3334 36.4728 19.1978 36.9114 19.1142C37.4856 19.0046 37.7857 18.5748 38.233 18.3296C38.6399 18.1046 38.7524 17.4412 38.4206 17.1297C38.3109 17.0258 37.7598 17.2018 37.6617 17.4181C37.5636 17.6316 37.3789 17.8075 37.4279 18.096C37.4683 18.3469 37.1105 18.5604 36.871 18.4681C36.8364 18.4536 36.7787 18.4075 36.7816 18.4017C36.9374 18.119 36.7498 17.7267 37.0874 17.4902C37.3673 17.2941 37.7684 17.1181 37.4366 16.6451C37.3904 16.5787 37.8983 15.8086 37.982 15.7913C38.083 15.7711 38.0945 15.8461 38.1234 15.9153C38.1926 16.0739 38.2388 16.247 38.3773 16.3653C38.6831 16.5383 38.8476 16.7893 38.8303 17.147C39.1708 17.1066 39.5228 16.6595 39.8287 17.1989C39.9095 17.1152 39.9586 17.0229 40.022 16.945C40.2615 16.6479 40.5184 16.446 40.9108 16.6999C40.9829 16.746 41.081 16.7258 41.1618 16.7633C41.2138 16.8008 41.2138 16.8499 41.1993 16.9047C41.1878 16.9508 41.1676 16.9941 41.1676 17.0431C41.2109 17.0172 41.2426 16.9681 41.3032 16.9768C41.5023 16.8527 41.6553 16.922 41.5571 17.1354C41.4763 17.3143 41.4908 17.5075 41.4013 17.669C41.2859 17.8767 41.2599 18.0238 41.511 18.1652C41.661 18.2488 41.7707 18.4306 41.5139 18.5661C41.358 18.6498 41.3176 18.8142 41.2513 18.9584C41.0724 19.3334 41.1214 19.8093 40.7001 20.0747C40.5934 20.141 40.5732 20.3257 40.5703 20.4785C40.5616 21.067 40.2384 21.4794 39.8431 21.8919C39.3035 22.4573 38.8534 23.1063 38.4465 23.7755C38.2965 24.0207 38.1868 24.2543 37.8839 24.3985C37.4972 24.5803 37.35 25.036 37.0961 25.3677C37.0095 25.4802 37.0817 25.5956 37.2288 25.6764C37.402 25.7716 37.3067 25.9706 37.1913 25.9619C36.721 25.9244 36.7066 26.3485 36.5277 26.585C36.3949 26.7609 36.2737 26.9196 36.0746 27.035C35.3475 27.4561 34.8742 28.1599 34.251 28.6993C34.1846 28.757 34.1384 28.8551 34.2192 28.9301C34.3116 29.0108 34.375 28.9099 34.4356 28.8579C34.5655 28.7426 34.6867 28.6128 34.8223 28.5032C34.8973 28.4426 35.0012 28.457 35.056 28.5349C35.131 28.6416 35.0272 28.6791 34.9579 28.7281C34.7126 28.9041 34.4616 29.0656 34.3433 29.3714C34.2942 29.4925 34.1413 29.5646 34.0115 29.4637C33.746 29.256 33.57 29.331 33.4084 29.5964C33.3449 29.7031 33.2179 29.7175 33.0708 29.6368C33.4574 29.2474 33.6681 28.7397 34.0519 28.3474C33.6277 28.633 33.1775 28.8608 32.8544 29.2531C32.6408 29.1954 32.4331 29.1349 32.2974 28.9387C32.2311 28.8435 32.1359 28.7829 32.0493 28.8954C31.9541 29.0166 32.1012 29.0281 32.1618 29.0685C32.3148 29.1724 32.3148 29.305 32.2397 29.4493C32.1676 29.5877 32.0493 29.7031 31.8906 29.6339C31.5847 29.5012 31.4924 29.68 31.3654 29.905C31.0999 30.3752 30.7681 30.7992 30.2978 31.0905C30.142 31.1857 30.0352 31.3213 29.9313 31.4597C29.4119 32.1664 28.8435 32.8299 28.1452 33.3606C27.7614 33.6548 28.0961 33.8942 28.1423 34.1596C28.0095 34.3096 27.8883 34.4683 27.7643 34.624C27.3632 34.2721 27.3689 34.2779 26.9736 34.7106C26.8149 34.8836 26.688 35.0769 26.5552 35.2701C26.4081 35.4807 26.2551 35.723 25.9175 35.5528C25.7126 35.449 25.6723 35.6192 25.6232 35.7605C25.3895 36.4557 25.352 36.4499 24.6104 36.4874C24.2468 36.5047 23.7793 36.4528 23.6379 36.9749C23.4302 37.2374 23.2051 37.4624 22.8848 37.6095C22.4982 37.7854 22.224 38.1258 21.921 38.4229C21.7191 38.6911 21.5863 39.0315 21.1477 39.0229C21.0063 39.02 20.9861 39.2421 20.8967 39.3546C20.7178 39.5767 20.5648 39.6171 20.4379 39.2911C20.4465 39.5046 20.4379 39.7036 20.3138 39.8738C19.2173 40.4161 18.0169 40.6872 16.8944 41.1458C16.4154 41.342 15.896 41.5093 15.469 41.8323C15.3045 41.9564 15.3218 42.1756 15.2237 42.3342C15.1602 42.441 15.0852 42.5015 14.9611 42.4179Z" fill="#54A034"/>
<path d="M33.1198 20.8333C33.1025 21.191 32.9352 21.4708 32.6812 21.7102C32.6408 21.7765 32.5802 21.8025 32.5052 21.7967C32.1503 21.7102 31.9425 21.9525 31.7146 22.1486C31.3019 22.3765 31.3019 22.3765 31.1548 21.7967C31.1519 21.6035 31.2327 21.465 31.4174 21.3958C31.6713 21.4275 31.8444 21.3121 31.9166 21.0756C31.9454 20.9804 31.8358 21.0612 31.8011 21.0295C31.6597 20.9487 31.6799 20.8102 31.6799 20.6833C31.6828 20.4295 31.6107 20.2391 31.3308 20.1612C31.0971 20.0978 31.1259 19.9218 31.2009 19.743C31.2904 19.5843 31.4058 19.443 31.5443 19.3219C31.8502 19.0536 31.8444 18.9815 31.3972 18.8228C31.1057 18.719 31.1634 18.5834 31.2904 18.4104C31.4 18.2604 31.5241 18.119 31.6395 17.9719C31.8877 17.6546 32.182 17.4614 32.6033 17.5883C32.8053 17.5566 32.9409 17.4556 32.9438 17.2335C32.9611 17.0633 32.8948 16.9104 32.8024 16.7835C32.6091 16.5239 32.7216 16.3018 32.9005 16.1259C33.0794 15.947 33.2006 16.1835 33.3449 16.2441C33.3853 16.2614 33.4286 16.2614 33.4719 16.2701C33.619 16.4951 33.316 16.6364 33.3651 16.8268C33.4343 16.6912 33.3968 16.4691 33.6421 16.4431C33.8845 16.4489 33.9422 16.221 34.0807 16.0941C34.4731 15.872 34.7155 15.5259 34.8944 15.1249C34.9493 15.099 35.0041 15.0701 35.0589 15.0442C35.0676 15.0557 35.0849 15.0759 35.0849 15.0759C35.5033 14.7442 35.9332 14.8451 36.3661 15.0355C36.8768 15.2692 36.9259 15.4422 36.6315 16.0076C36.6546 16.3076 36.4988 16.5153 36.3026 16.7287C36.0429 17.0114 35.7082 17.2248 35.8611 17.7585C35.9563 18.0902 35.5956 18.4161 35.2753 18.6065C34.9348 18.8113 34.6867 19.143 34.2856 19.2728C34.1096 19.3305 33.9797 19.5382 33.8932 19.7286C33.7027 20.1468 33.3507 20.4468 33.1198 20.8333Z" fill="#6BAC30"/>
<path d="M39.7941 13.5385C39.8229 13.5702 39.8518 13.6048 39.8778 13.6365C40.022 13.7808 39.9759 13.9856 40.0365 14.1558C40.0509 14.2452 40.048 14.3346 40.0047 14.4154C39.8605 14.5509 39.6498 14.5884 39.5402 14.7846C39.468 14.9144 39.2949 14.9807 39.1564 14.9259C38.7639 14.773 38.6774 14.9894 38.6485 15.3038C38.6197 15.4942 38.5158 15.5057 38.3744 15.4163C38.2186 15.3182 38.057 15.2259 37.9156 15.1105C37.78 15.0009 37.653 14.9403 37.4885 15.0326C37.4279 14.9403 37.275 14.9721 37.2433 14.8451C37.2462 14.8163 37.2462 14.7903 37.249 14.7615C37.2894 14.6634 37.376 14.6202 37.4741 14.6028C37.2692 14.6086 37.1076 14.5567 37.0211 14.3606C37.0297 14.2163 37.1019 14.0202 36.8162 14.1356C36.7239 14.1731 36.62 14.1731 36.5219 14.1529C36.4065 14.1038 36.2593 14.0836 36.2795 13.9048C36.3718 13.7231 36.167 13.3971 35.939 13.3885C35.8438 13.3856 35.7428 13.4346 35.6476 13.4606C35.5119 13.4058 35.3475 13.4692 35.2263 13.3625C35.0964 13.0596 34.88 13.1548 34.678 13.2702C34.5713 13.0596 34.9262 12.9991 34.7906 12.8375C34.5972 12.6097 34.4501 13.002 34.2538 12.9154C34.2971 12.3126 34.8367 12.2289 35.2234 11.9953C35.3821 11.9001 35.4773 12.076 35.5899 12.1597C35.6129 12.2203 35.587 12.278 35.5754 12.3356C35.587 12.451 35.5899 12.5664 35.6158 12.6789C35.6966 12.9991 36.0371 13.0943 36.2651 12.8606C36.3863 12.7366 36.4815 12.5722 36.6258 12.4885C36.8249 12.3731 37.0586 12.3155 37.0701 12.6847C37.0701 12.6991 37.0701 12.7135 37.0672 12.7279C36.8739 13.674 36.9374 13.7635 37.9358 13.7202C38.435 13.6971 38.9515 13.7606 39.4334 13.55C39.5546 13.4779 39.6729 13.4981 39.7941 13.5385Z" fill="#6AAD30"/>
<path d="M27.7527 26.2648C28.2058 26.1898 28.5347 26.4523 28.8406 26.709C29.1118 26.934 28.9041 27.2571 28.8637 27.5167C28.8319 27.7099 28.6963 27.9782 28.3904 27.9349C27.8508 27.8599 27.4065 28.0128 27.0487 28.4368C26.8149 28.7137 26.3965 28.7599 26.2003 29.0945C25.476 29.0166 25.098 29.5762 24.6248 29.9569C24.5931 29.9829 24.5555 30.006 24.518 30.029C24.3738 30.2108 24.3507 30.5252 24.0102 30.4848C23.863 30.4069 23.7649 30.3463 23.9582 30.179C24.4344 29.7694 24.4257 29.7579 24.0506 29.2762C24.0246 29.2416 24.0102 29.2012 23.99 29.1608C23.9669 29.0801 23.9958 29.0512 24.0765 29.0743C24.5325 29.2589 24.9537 28.9849 25.3924 28.9474C25.6521 28.9243 25.7155 28.532 25.8598 28.3041C25.9723 28.1253 26.0503 28.0214 26.2984 28.0907C26.5466 28.1599 26.8178 28.1368 27.0573 27.9839C27.216 27.883 27.3516 27.7792 27.2737 27.5686C27.2247 27.4388 27.268 27.3465 27.3516 27.2513C27.392 27.2051 27.5046 27.133 27.4093 27.084C26.8063 26.7552 27.4353 26.6081 27.5046 26.3802C27.5421 26.2504 27.6142 26.1898 27.7527 26.2648Z" fill="#54A034"/>
<path d="M33.1198 20.8333C33.1371 20.6285 33.3478 20.4901 33.3045 20.2651C33.2987 20.2391 33.3132 20.1901 33.3276 20.1843C33.873 20.0343 33.7835 19.2642 34.2712 19.143C34.6953 19.0392 34.8454 18.6094 35.2494 18.52C35.4744 18.4709 35.5235 18.194 35.6793 18.0411C35.8524 17.8738 35.8293 17.6892 35.6764 17.5046C35.561 17.3662 35.688 17.2796 35.7659 17.1729C36.0515 16.7806 36.4642 16.4835 36.6315 16.0047C36.7931 15.9268 36.9778 15.8345 37.1019 16.022C37.2519 16.2441 36.998 16.2932 36.897 16.4172C36.4613 16.945 36.1756 17.5681 35.8697 18.1738C35.838 18.2344 35.8842 18.3411 35.9044 18.4219C35.9909 18.768 35.9996 19.0623 35.5235 19.0853C35.4715 19.0882 35.3965 19.1228 35.3763 19.1661C35.0878 19.7401 34.4356 20.0459 34.2365 20.6862C34.2337 20.7006 34.225 20.7122 34.2163 20.7237C34.0634 20.966 33.3622 21.0324 33.1198 20.8333Z" fill="#54A034"/>
<path d="M17.3619 34.7163C17.2118 35.4548 16.7617 35.9653 16.3202 36.4787C16.2827 36.522 16.2683 36.5941 16.2019 36.5768C15.8326 36.4759 15.6248 36.6316 15.5094 36.9749C15.4805 37.0614 15.3132 37.1047 15.2987 37.0412C15.1775 36.4586 14.7534 36.9114 14.5023 36.796C14.3523 36.7268 14.0955 36.9922 14.0493 36.7528C14.0031 36.5191 13.9541 36.1759 14.2455 36.0201C15.0246 35.5961 15.7402 35.0394 16.6636 34.9182C16.8915 34.8894 17.0935 34.6961 17.3619 34.7163Z" fill="#8DBE52"/>
<path d="M12.0438 38.27C11.0339 39.4469 9.90566 40.1824 8.28975 39.6776C8.36189 39.3978 8.61293 39.3257 8.64179 39.1065C8.64467 39.0805 8.67353 39.0604 8.69084 39.0373C9.02845 39.4065 9.06019 38.8815 9.24775 38.8152C9.51034 38.7257 9.79312 38.6219 10.0384 38.4604C10.275 38.3046 10.5664 38.2902 10.8088 38.1229C11.0887 37.9296 11.3427 37.9902 12.0438 38.27Z" fill="#8ABE51"/>
<path d="M31.276 19.7776C31.2413 19.8786 31.1346 20.0545 31.2904 20.0632C31.905 20.1007 31.7781 20.516 31.7636 20.8881C31.7607 20.9256 31.7925 20.966 31.8098 21.0064C31.8329 21.266 31.6367 21.3496 31.4578 21.4477C31.3019 21.5141 31.2587 21.6641 31.1981 21.7996C31.1605 22.1256 30.9124 22.3304 30.7508 22.5871C30.6931 22.5207 30.5488 22.9332 30.5373 22.5381C30.5286 22.2727 30.2718 22.5092 30.1535 22.4082C30.1506 22.1515 30.3353 21.9842 30.4594 21.7996C30.5777 21.6237 30.7277 21.4679 30.846 21.191C30.3901 21.491 30.1593 21.8804 29.914 22.2496C29.8245 22.3823 29.7668 22.5582 29.585 22.564C29.3715 22.5727 29.4898 22.3563 29.4235 22.2727C29.2186 22.0102 29.1609 22.4602 28.9473 22.3563C29.106 22.215 29.1118 21.9352 29.4379 21.99C29.5591 22.0102 29.6254 21.8487 29.6601 21.7564C29.8823 21.1622 30.2458 20.6747 30.7393 20.2824C30.9672 20.1036 31.0538 19.8411 31.1779 19.5988C31.2615 19.6305 31.224 19.7286 31.276 19.7776Z" fill="#8EC056"/>
<path d="M41.1849 16.8008C41.0868 16.8181 40.9771 16.8758 40.8935 16.8499C40.2933 16.6826 40.2644 16.6912 39.9557 17.3114C39.921 17.3806 39.8922 17.4498 39.8143 17.4585C39.7479 17.4671 39.7162 17.4123 39.7075 17.3489C39.6873 17.2133 39.6902 16.9537 39.5373 17.0229C39.3295 17.1181 39.0323 17.0373 38.9082 17.3056C38.8851 17.3575 38.8707 17.4181 38.7322 17.421C38.8505 16.9912 38.6052 16.6797 38.3888 16.3566C38.4119 16.146 38.4321 15.9326 38.7409 16.0047C39.0669 16.0768 38.8534 16.3335 38.9111 16.498C39.0496 16.0826 39.1881 16.0451 39.4853 16.3681C39.5575 16.446 39.595 16.5614 39.7046 16.4316C39.8489 16.2643 39.6267 16.3191 39.5863 16.2672C39.4507 16.0884 39.3988 15.9095 39.4767 15.6961C39.6296 15.6615 39.6036 15.549 39.5834 15.4393C39.6036 15.3269 39.6181 15.2115 39.5834 15.099C39.5373 14.9432 39.4998 14.7644 39.6527 14.6663C39.8316 14.5509 39.9759 14.6836 40.1028 14.8076C40.2673 14.998 40.2904 15.2576 40.4058 15.4711C40.5963 15.8201 40.8242 15.872 41.1359 15.6413C41.2599 15.549 41.3638 15.4134 41.5514 15.474C41.5802 15.9009 41.3754 16.2557 41.2022 16.622C41.2455 16.6854 41.2455 16.746 41.1849 16.8008Z" fill="#6AAD30"/>
<path d="M25.6521 26.2475C25.9031 25.9677 26.1109 25.6591 26.2869 25.3216C26.5293 24.8572 26.9765 24.5514 27.3891 24.3062C27.5796 24.1937 27.7556 24.1101 27.8912 23.9255C27.9865 23.7928 28.1711 23.7553 28.2837 23.8447C28.4308 23.9601 28.5001 24.1707 28.4049 24.3437C28.2433 24.6408 28.125 24.9639 27.8104 25.1773C27.6344 25.2985 27.5421 25.5466 27.4122 25.7369C27.2045 26.0773 27.0689 26.5071 26.535 26.4379C26.2465 26.3513 25.9666 26.784 25.6751 26.4523C25.5857 26.3946 25.6809 26.3167 25.6521 26.2475Z" fill="#8BBE52"/>
<path d="M24.0794 29.0801C24.0506 29.1089 24.0217 29.1377 23.9929 29.1666C23.7534 29.5502 23.2859 29.5935 22.9598 29.8531C22.7954 29.9858 22.5645 30.0377 22.4664 30.2771C22.804 30.3954 22.9685 30.0435 23.2571 30.0262C22.9916 30.3204 22.8242 30.6521 22.3539 30.7819C21.8951 30.9088 21.3814 30.9059 20.9486 31.203C21.3237 30.7646 21.4276 30.1675 21.8489 29.7752C22.2413 29.4089 22.6597 29.0714 23.0781 28.7339C23.3321 28.5291 23.6957 28.5897 23.9034 28.3128C23.9438 28.258 24.0477 28.2868 24.091 28.3589C24.1429 28.4397 24.0967 28.4945 24.0217 28.5291C23.9957 28.5407 23.9611 28.5407 23.9409 28.558C23.8053 28.6531 23.5167 28.6705 23.6379 28.9214C23.788 29.23 23.964 28.9272 24.1169 28.8666C24.1718 28.9647 24.0939 29.0137 24.0794 29.0801Z" fill="#8ABE52"/>
<path d="M39.5257 15.6615C39.5604 15.898 39.4103 16.2355 39.8778 16.2297C39.9788 16.2297 40.0163 16.4143 39.8662 16.4662C39.771 16.498 39.7219 16.521 39.696 16.622C39.6325 16.87 39.5055 16.7777 39.4622 16.6278C39.4103 16.4518 39.3872 16.2672 39.1766 16.247C38.9169 16.221 39.0525 16.5412 38.8649 16.6191C38.738 16.4403 38.9255 16.1749 38.7351 16.0076C38.4956 15.7999 38.8159 15.523 38.6485 15.3067C38.5418 15.1307 38.5216 14.9519 38.6572 14.7846C38.8072 14.6 38.9428 14.773 39.0785 14.8221C39.2718 14.8942 39.442 14.848 39.5084 14.6663C39.595 14.4269 39.7652 14.4269 39.9557 14.4298C40.1144 14.5509 40.1807 14.6894 40.0451 14.8711C39.921 14.8221 39.8229 14.6202 39.6758 14.7384C39.5402 14.848 39.6325 14.9923 39.7191 15.1192C39.8258 15.2749 39.7191 15.3845 39.6152 15.4855C39.5373 15.5172 39.5719 15.6095 39.5257 15.6615Z" fill="#54A034"/>
<path d="M36.2795 13.9048C36.3689 13.9625 36.4555 14.0202 36.545 14.0808C36.6286 14.1846 36.7873 14.2509 36.721 14.4327C36.4671 14.5567 36.5825 14.8971 36.3661 15.0413C36.2622 15.0586 36.1929 15.2663 36.0746 15.1336C35.7226 14.7269 35.4513 14.9548 35.1772 15.223C35.1397 15.2605 35.0762 15.324 35.0387 15.2547C35.0127 15.2028 35.0503 15.1192 35.0589 15.0499C35.1945 14.9749 35.2494 14.8971 35.1455 14.7384C34.8598 14.3057 35.2926 14.1644 35.5119 14.0029C35.7139 13.85 35.9765 13.5067 36.2795 13.9048Z" fill="#93C158"/>
<path d="M32.5052 21.7967C32.5427 21.7275 32.6091 21.7102 32.6812 21.7102C32.8976 21.7419 33.1112 21.7737 33.3276 21.8025C33.4199 21.8169 33.5065 21.8487 33.518 21.9496C33.5296 22.0592 33.4142 22.1169 33.3478 22.1111C32.6351 22.065 32.4994 22.6996 32.1041 23.0573C31.7492 23.3803 31.5674 23.813 31.2038 24.0957C31.1144 24.1649 31.0163 24.2659 30.8951 24.1649C30.7652 24.0553 30.6411 23.9341 30.5315 23.8015C30.5026 23.7668 30.5719 23.6803 30.6325 23.6947C31.2615 23.8476 31.3539 23.2217 31.7059 22.9678C32.1157 22.6765 32.0983 22.0938 32.5052 21.7967Z" fill="#54A034"/>
<path d="M28.3327 29.481C28.2721 29.6944 28.148 29.8156 28.0009 29.9137C27.9432 29.9512 27.8277 29.9252 27.796 29.9685C27.4584 30.4473 26.8178 30.5915 26.5235 31.1136C26.3532 31.4165 25.9233 31.4857 25.6549 31.2463C25.5539 31.1569 25.6261 31.0646 25.6924 31.0357C25.9897 30.8944 26.1599 30.5281 26.5523 30.5598C26.7168 30.5742 26.7861 30.4675 26.8005 30.3204C26.8178 30.1531 26.8842 30.0146 27.0371 29.9281C27.3372 29.7579 27.7123 29.7291 27.9287 29.3829C27.9836 29.2906 28.2548 29.282 28.3327 29.481Z" fill="#54A034"/>
<path d="M24.7922 32.2443C24.8499 32.1059 24.8643 32.0222 24.671 31.9588C24.3911 31.8665 24.3766 31.6097 24.4834 31.3848C24.5873 31.1684 24.7546 31.1136 24.9249 31.3559C24.9509 31.3934 25.0432 31.4136 25.0894 31.3992C25.6203 31.2088 25.3404 31.8463 25.6261 31.9415C25.6809 31.9616 25.1788 32.5703 24.9941 32.5587C24.7835 32.5472 24.7835 32.3972 24.7922 32.2443Z" fill="#54A034"/>
<path d="M29.8707 24.6928C29.5562 24.7101 29.1926 24.6235 29.3831 25.2004C29.4552 25.4196 29.1032 25.6129 28.8983 25.76C28.78 25.8465 28.6617 25.7254 28.6386 25.5668C28.6155 25.5293 28.6242 25.5004 28.6646 25.4831C28.8435 25.3793 28.9445 25.2639 28.9704 25.0187C29.005 24.7072 29.3196 24.5399 29.5822 24.4158C29.7726 24.3322 29.8419 24.5283 29.8707 24.6928Z" fill="#54A034"/>
<path d="M30.7508 22.5871C30.7508 22.2409 31.0307 22.0535 31.1981 21.7996C31.4837 21.8429 31.2904 22.039 31.3135 22.1717C31.452 22.2554 31.579 22.1083 31.7146 22.1486C31.8646 22.6102 31.4202 22.5352 31.224 22.6217C31.1375 22.6621 30.8951 22.7342 30.7508 22.5871Z" fill="#54A034"/>
<path d="M6.52957 42.8506C6.2843 42.8044 6.09097 42.9515 5.87456 43.0092C5.53118 43.0957 5.22242 42.8448 5.11277 42.4381C5.48501 42.3429 5.76202 42.6285 6.09674 42.6746C6.25256 42.614 6.40261 42.5708 6.53535 42.7236C6.55554 42.7669 6.55554 42.8102 6.52957 42.8506Z" fill="#54A034"/>
<path d="M17.0358 37.0297C16.7588 37.2604 16.5568 37.572 16.1673 37.5835C16.0172 37.5893 15.8008 37.6354 15.7835 37.4133C15.7662 37.1941 15.9653 37.0441 16.1529 37.0787C16.4529 37.1335 16.7328 37.1566 17.0358 37.0297Z" fill="#54A034"/>
<path d="M8.28398 43.2025C8.16856 43.2025 8.05025 43.2054 7.93483 43.2054C7.75016 43.5486 7.46449 43.488 7.18748 43.3698C6.96818 43.2746 6.96529 43.1419 7.14419 42.94C7.44429 42.9977 7.7213 42.8361 8.01851 42.8592C8.11374 42.9688 8.3013 43.0063 8.28398 43.2025Z" fill="#54A034"/>
<path d="M29.8736 24.6928C30.0554 24.7072 30.0294 24.5053 30.1362 24.4389C30.2949 24.3351 30.4536 24.3149 30.6267 24.4158C30.7595 24.4937 30.7623 24.5947 30.696 24.7101C30.6036 24.8687 30.5488 25.0793 30.2833 24.9899C30.1131 24.9322 29.8823 24.9697 29.8736 24.6928Z" fill="#54A034"/>
<path d="M26.535 26.4408C26.9794 26.3946 27.0862 25.9302 27.4122 25.7398C27.493 25.8725 27.5161 26.0196 27.5017 26.1725C27.493 26.2331 27.4613 26.2677 27.4007 26.2706C27.268 26.3802 27.1468 26.5129 26.9996 26.5994C26.8034 26.709 26.6072 26.7292 26.535 26.4408Z" fill="#54A034"/>
<path d="M29.8419 25.3966C29.989 25.411 30.2083 25.362 30.1852 25.6043C30.165 25.8292 29.989 25.9735 29.7697 25.985C29.5591 25.9937 29.5446 25.7946 29.5273 25.6389C29.5042 25.4023 29.6601 25.3821 29.8419 25.3966Z" fill="#54A034"/>
<path d="M7.5626 39.7757C7.84827 39.7584 8.16568 39.6574 8.27821 40.0728C8.29841 40.1507 8.38498 40.2141 8.30995 40.3007C8.24936 40.3699 8.1801 40.3238 8.11085 40.318C7.79344 40.3036 7.66648 40.0411 7.48757 39.8478C7.48757 39.8017 7.51354 39.7786 7.5626 39.7757Z" fill="#54A034"/>
<path d="M32.586 14.949C32.3811 15.2288 32.1561 15.497 31.98 15.7941C31.8156 16.0682 31.7146 16.3855 31.3366 16.6278C31.6713 15.9239 32.0522 15.373 32.4908 14.8653C32.5485 14.8596 32.56 14.9115 32.586 14.949Z" fill="#93C163"/>
<path d="M7.14419 42.94C6.96529 43.3005 7.23076 43.3294 7.47026 43.3784C7.66071 43.4159 7.78767 43.289 7.93483 43.2054C7.96369 43.4159 7.79921 43.5111 7.67513 43.6294C7.43563 43.4448 6.99992 43.5457 6.89604 43.2544C6.81524 43.0294 6.67385 42.9659 6.53246 42.8506C6.53246 42.8217 6.53246 42.79 6.53246 42.7611C6.75753 42.6977 6.96818 42.7063 7.14708 42.8823C7.14419 42.9025 7.14419 42.9198 7.14419 42.94Z" fill="#61A432"/>
<path d="M32.586 14.949C32.5543 14.9201 32.5225 14.8913 32.4908 14.8624C32.8976 14.3404 33.3997 13.9394 34.0086 13.6654C33.5613 14.124 32.9755 14.4269 32.586 14.949Z" fill="#CBDFB4"/>
<path d="M23.1965 26.3254C23.5658 25.9302 23.9352 25.535 24.3045 25.1399C24.3305 25.1658 24.3593 25.1918 24.3853 25.2177C24.0967 25.6879 23.6841 26.0513 23.1965 26.3254Z" fill="#C5DCAC"/>
<path d="M28.3096 30.6607C28.1856 30.7761 28.0644 30.8944 27.9403 31.0098C27.7441 31.3559 27.3314 31.3732 27.0169 31.5751C27.0804 31.4972 27.1294 31.3819 27.2102 31.3473C27.5767 31.2001 27.8191 30.9146 28.0759 30.6406C28.1452 30.5684 28.2548 30.4185 28.3096 30.6607Z" fill="#BFDA9D"/>
<path d="M33.6421 16.446C33.443 16.5874 33.518 16.8845 33.3074 17.0431C33.1487 16.7316 33.4603 16.5326 33.4719 16.273C33.619 16.0826 33.7662 15.8922 33.9624 15.6384C33.997 16.0249 33.6219 16.1576 33.6421 16.446Z" fill="#99C564"/>
<path d="M22.1 31.9847C22.4058 31.7482 22.7088 31.5088 23.0176 31.2751C23.0695 31.2348 23.1474 31.1915 23.2138 31.2607C23.2657 31.3126 23.2455 31.3703 23.1907 31.4049C22.8502 31.6328 22.5097 31.8578 22.1692 32.0857C22.1461 32.0511 22.123 32.0193 22.1 31.9847Z" fill="#A2CA72"/>
<path d="M25.8771 30.3694C25.7184 30.5223 25.7732 30.8425 25.4818 30.8886C25.3779 30.9059 25.251 30.7819 25.2798 30.7069C25.3577 30.5021 25.5309 30.3579 25.7213 30.2512C25.7906 30.2137 25.854 30.28 25.8771 30.3694Z" fill="#54A034"/>
<path d="M7.5626 39.7757C7.53663 39.8017 7.51354 39.8276 7.48757 39.8507C7.02877 39.8824 6.6248 40.1593 6.15157 40.1363C6.60748 39.9661 7.01723 39.6257 7.5626 39.7757Z" fill="#9BC66F"/>
<path d="M5.85724 40.168C5.47924 40.4189 5.07526 40.5718 4.56741 40.4564C4.99158 40.2199 5.44173 40.269 5.85724 40.168Z" fill="#BAD69B"/>
<path d="M34.8916 15.1278C34.8223 15.6413 34.4529 16.0797 34.0778 16.097C34.3491 15.7739 34.6203 15.4509 34.8916 15.1278Z" fill="#A4CB73"/>
<path d="M7.14419 42.8852C6.94509 42.8217 6.71713 42.8881 6.52957 42.764C6.39684 42.6688 6.24391 42.6775 6.09386 42.6746C6.12271 42.591 6.20062 42.5996 6.26699 42.5823C6.44012 42.4525 6.61614 42.4554 6.79216 42.5765C6.92489 42.6198 7.06628 42.6487 7.18748 42.7121C7.35484 42.8015 7.25962 42.8506 7.14419 42.8852Z" fill="#AACC83"/>
<path d="M36.7181 14.4298C36.6604 14.3115 36.5998 14.1961 36.5421 14.0779C36.6258 14.0663 36.7123 14.0634 36.7902 14.0375C36.9143 13.9971 37.0644 13.9336 37.1509 14.026C37.249 14.1327 37.0846 14.2452 37.0644 14.3663C36.9864 14.4442 36.8883 14.4211 36.7931 14.4269C36.77 14.4298 36.7441 14.4298 36.7181 14.4298Z" fill="#54A034"/>
<path d="M19.2663 33.4673C19.1509 33.7991 18.8104 33.7962 18.6806 34.0183C18.6748 34.0269 18.5478 33.9866 18.5017 33.9433C18.4526 33.8971 18.4988 33.8394 18.5478 33.8019C18.7498 33.652 18.9634 33.5279 19.2663 33.4673Z" fill="#C5DDA7"/>
<path d="M36.796 14.4298C36.8681 14.3346 36.9663 14.349 37.0672 14.3663C37.2115 14.548 37.4857 14.4471 37.6444 14.6259C37.5318 14.7528 37.3702 14.6952 37.2519 14.7644C37.1625 14.5653 36.9114 14.5884 36.796 14.4298Z" fill="#B4D282"/>
<path d="M14.9496 34.5029C14.7764 34.8605 14.4706 35.0423 14.1791 35.2442C14.1474 35.2038 14.1185 35.1663 14.0868 35.1259C14.3754 34.9211 14.661 34.7106 14.9496 34.5029Z" fill="#CADFAE"/>
<path d="M3.54593 39.868C3.66135 39.8074 3.77965 39.7469 3.89508 39.6892C4.07686 39.6661 4.25865 39.643 4.44044 39.6199C4.15189 39.744 3.92393 40.0959 3.54593 39.868Z" fill="#AACE8A"/>
<path d="M6.79216 42.5765C6.61614 42.5794 6.44301 42.5794 6.26699 42.5823C6.26699 42.4323 6.27276 42.2679 6.46032 42.2564C6.66231 42.2448 6.76042 42.3862 6.79216 42.5765Z" fill="#54A034"/>
<path d="M19.7915 29.6166C20.0483 29.3714 20.308 29.1233 20.5648 28.8781C20.5966 28.9128 20.6312 28.9474 20.663 28.982C20.4004 29.2214 20.1407 29.4608 19.8781 29.7031C19.8492 29.6743 19.8204 29.6454 19.7915 29.6166Z" fill="#B6D48D"/>
<path d="M28.2029 21.2718C28.1452 21.6871 27.7643 21.8689 27.5478 22.1688C27.6864 21.8112 27.8826 21.4939 28.2058 21.2746L28.2029 21.2718Z" fill="#9BC568"/>
<path d="M35.2263 13.3596C35.3907 13.2904 35.535 13.3077 35.6476 13.4577C35.4109 13.5962 35.1657 13.5731 34.906 13.5212C34.9579 13.3135 35.1282 13.4173 35.2263 13.3596Z" fill="#9EC76B"/>
<path d="M21.6642 32.4376C21.8027 32.1434 22.0826 32.3136 22.276 32.1924C22.1548 32.5414 21.8691 32.3597 21.6642 32.4376Z" fill="#A2CA72"/>
<path d="M30.0698 19.0046C30.1708 18.7132 30.419 18.52 30.644 18.3065C30.4882 18.5632 30.3295 18.8228 30.1737 19.0796C30.1362 19.0536 30.1044 19.0276 30.0698 19.0046Z" fill="#9BC56A"/>
<path d="M28.2058 21.2746C28.2058 20.8997 28.5347 20.7497 28.7223 20.5074C28.5664 20.7727 28.5203 21.1189 28.2 21.2718C28.2029 21.2718 28.2058 21.2746 28.2058 21.2746Z" fill="#96C162"/>
<path d="M7.75881 42.5823C7.93195 42.614 8.10796 42.6458 8.2811 42.6775C8.28687 42.8765 8.14836 42.8563 8.01851 42.8534C7.87712 42.689 7.61165 42.8419 7.48757 42.6371C7.5626 42.5535 7.66936 42.6111 7.75881 42.5823Z" fill="#9BC769"/>
<path d="M28.6674 25.4831C28.6588 25.512 28.6501 25.5408 28.6415 25.5668C28.4049 25.6562 28.3269 25.9908 28.0095 25.9533C28.2433 25.8177 28.3183 25.4658 28.6674 25.4831Z" fill="#A9CD78"/>
<path d="M27.3747 28.8003C27.3112 28.8954 27.3603 29.0858 27.2016 29.1031C27.0775 29.1175 27.066 28.9849 27.0717 28.8839C27.0775 28.7541 27.141 28.6647 27.2737 28.656C27.3574 28.6503 27.4007 28.7051 27.3747 28.8003Z" fill="#54A034"/>
<path d="M30.2141 23.9053C30.1218 23.7293 30.0871 23.5995 30.2285 23.4928C30.2862 23.4495 30.4016 23.4495 30.4218 23.5101C30.4796 23.6918 30.3151 23.7611 30.2141 23.9053Z" fill="#54A034"/>
<path d="M19.8492 33.8077C19.7857 34.0904 19.5549 34.1365 19.3616 34.2433C19.3356 34.2087 19.3067 34.1712 19.2808 34.1365C19.4712 34.0269 19.6588 33.9173 19.8492 33.8077Z" fill="#9DC76B"/>
<path d="M25.6521 26.2475C25.7877 26.3023 25.678 26.3831 25.6722 26.4552C25.5078 26.6081 25.3462 26.7609 25.1817 26.9138C25.2712 26.6513 25.427 26.4263 25.6521 26.2475Z" fill="#C1DAA7"/>
<path d="M32.9438 17.2364C33.1256 17.1729 33.1833 17.2421 33.0621 17.3835C32.9207 17.545 32.7389 17.669 32.5716 17.8104C32.4648 17.721 32.5975 17.6662 32.6033 17.5941C32.7476 17.5017 32.863 17.3864 32.9438 17.2364Z" fill="#9FC96F"/>
<path d="M24.0102 30.4906C24.2814 30.4531 24.2843 30.1156 24.518 30.0348C24.4949 30.3463 24.4228 30.6059 24.0102 30.4906Z" fill="#A5CC7C"/>
<path d="M19.1423 30.2973C19.3067 30.1098 19.4539 29.9454 19.6357 29.7406C19.5838 30.0089 19.5838 30.0089 19.1423 30.2973Z" fill="#A6CC7A"/>
<path d="M37.2433 14.848C37.3616 14.8624 37.5261 14.8192 37.4885 15.0355C37.3414 14.9836 37.2952 15.3038 37.1394 15.1451C37.0153 15.0182 37.1798 14.9374 37.2433 14.848Z" fill="#B6D38F"/>
<path d="M35.5783 12.3328C35.4889 12.2664 35.5697 12.2145 35.5927 12.1568C35.7745 12.1597 35.9707 12.1049 36.1468 12.3068C35.9361 12.3183 35.7572 12.3241 35.5783 12.3328Z" fill="#A1C970"/>
<path d="M37.5722 15.6211C37.402 15.7768 37.2663 15.7826 37.1307 15.6528C37.1105 15.6326 37.1048 15.5518 37.1192 15.5403C37.2865 15.4336 37.3991 15.5749 37.5722 15.6211Z" fill="#6BAC30"/>
<path d="M4.24423 40.993C4.21537 41.0016 4.1894 41.0103 4.16055 41.0218C4.01627 41.0103 3.86911 41.0045 3.83448 40.7593C4.0105 40.8141 4.22114 40.7074 4.24423 40.993Z" fill="#C2D9A0"/>
<path d="M28.2808 23.2447C28.2952 23.5476 28.1596 23.6197 28.0038 23.7524C27.9634 23.487 28.1221 23.4178 28.2808 23.2447Z" fill="#B4D48D"/>
<path d="M25.3231 32.853C25.2538 32.8876 25.1846 32.9222 25.1182 32.9597C25.0403 32.8501 25.1355 32.7808 25.1846 32.7058C25.2192 32.651 25.2856 32.576 25.3491 32.6308C25.427 32.6943 25.3087 32.7722 25.3231 32.853Z" fill="#C2DBA2"/>
<path d="M18.0977 34.875C17.965 35.0942 17.8409 35.1807 17.6245 35.1C17.7168 34.9211 17.8697 34.8952 18.0977 34.875Z" fill="#ADCF7C"/>
<path d="M19.0759 32.8299C18.9201 33.0924 18.6979 33.0808 18.5334 33.1645C18.6604 33.0116 18.7989 32.8818 19.0759 32.8299Z" fill="#A2C977"/>
<path d="M21.4622 32.501C21.3641 32.7232 21.2833 32.8472 21.064 32.8356C21.1189 32.651 21.2256 32.5587 21.4622 32.501Z" fill="#A2CA72"/>
<path d="M12.5661 37.3383C12.4651 37.5316 12.3584 37.6123 12.1564 37.5633C12.2227 37.3787 12.3411 37.3268 12.5661 37.3383Z" fill="#B8D595"/>
<path d="M27.4007 26.2706C27.4353 26.2388 27.4699 26.2042 27.5017 26.1725C27.6142 26.1667 27.6979 26.0167 27.8075 26.0888C27.8739 26.1321 27.77 26.2042 27.7527 26.2677C27.669 26.3081 27.5882 26.3456 27.5046 26.3859C27.4699 26.3456 27.4353 26.3081 27.4007 26.2706Z" fill="#A7CC7A"/>
<path d="M31.276 19.7776C31.1923 19.7459 31.1779 19.6766 31.1779 19.6017C31.2962 19.5065 31.3625 19.342 31.5414 19.3276C31.4837 19.4949 31.4145 19.6565 31.276 19.7776Z" fill="#CEE2B1"/>
<path d="M23.5543 36.972C23.5745 36.623 23.7793 36.5162 24.1054 36.4268C24.4401 36.3374 24.7691 36.4557 25.0865 36.3576C25.3635 36.2711 25.4703 36.0749 25.5078 35.7778C25.5366 35.5384 25.5626 35.0971 26.0301 35.4865C26.2263 35.6509 26.3705 35.3826 26.4196 35.273C26.5812 34.9009 26.9188 34.6788 27.1237 34.3471C27.1929 34.2346 27.2882 34.0702 27.4584 34.1192C27.6056 34.1625 27.6748 34.2981 27.6864 34.4596C27.6892 34.5086 27.7383 34.5548 27.7672 34.6038C27.8624 34.4365 28.0701 34.3933 28.1798 34.2404C28.2548 34.1337 28.1221 34.2029 28.1192 34.1654C27.6892 33.6231 27.6892 33.5712 28.1913 33.1818C28.881 32.6482 29.4206 31.9732 29.9428 31.2896C30.2141 30.9348 30.6585 30.7877 30.9066 30.3954C31.0509 30.1675 31.2673 29.9742 31.3481 29.706C31.4347 29.4204 31.5963 29.3483 31.8329 29.5098C32.0493 29.6569 32.1214 29.5185 32.1849 29.3627C32.2772 29.1406 32.1676 29.1089 31.9743 29.1522C31.8964 29.1695 31.8213 29.1349 31.8213 29.0426C31.8184 28.8724 31.9598 28.7974 32.0637 28.7022C32.133 28.6387 32.2715 28.6157 32.2859 28.7051C32.3407 29.0426 32.7159 29.0224 32.8544 29.256C32.6957 29.507 32.3638 29.5848 32.2397 29.8704C32.2369 30.1098 32.0608 30.0348 31.9685 29.9858C31.6597 29.8156 31.4924 29.9829 31.3827 30.2281C31.2673 30.4906 31.0769 30.6694 30.8806 30.8655C30.6238 31.1251 30.4016 31.4655 30.2689 31.7799C30.0438 32.3164 29.6197 32.5876 29.2099 32.8962C29.0195 33.0404 28.8665 33.2077 28.7165 33.3837C28.6126 33.5077 28.6184 33.6173 28.728 33.7298C28.8175 33.7587 28.9041 33.7904 28.9935 33.8193C29.1349 33.8019 29.2821 33.7933 29.3629 33.9346C29.4263 34.0414 29.3398 34.1135 29.2561 34.1712C28.5895 34.5779 27.8681 34.9009 27.3257 35.4865C27.242 35.5557 27.141 35.5557 27.04 35.5586C26.6937 35.573 26.4254 35.6942 26.3388 36.0691C26.3186 36.1557 26.2465 36.2134 26.1859 36.2768C25.8713 36.4384 25.4414 36.3489 25.2192 36.7153C24.9739 36.9345 24.7142 37.1249 24.5296 37.4191C24.3882 37.6441 24.1833 37.8316 23.889 37.9354C23.0955 38.2152 22.4433 38.7719 21.696 39.1498C21.2314 39.3834 20.7582 39.6055 20.308 39.8709C20.3167 39.7296 20.3571 39.5796 20.3253 39.4469C20.2965 39.3257 20.1695 39.2161 20.3484 39.1238C20.4061 39.095 20.4985 39.0834 20.5562 39.1065C20.738 39.1873 20.5042 39.343 20.6081 39.4526C20.7466 39.4613 20.7957 39.343 20.8361 39.2478C20.9342 39.0084 21.015 38.7863 21.3641 38.8873C21.468 38.9161 21.595 38.8036 21.6354 38.6536C21.67 38.5325 21.7133 38.3969 21.8806 38.3883C21.9586 38.2585 22.0913 38.1892 22.2125 38.1171C22.6713 37.846 23.1589 37.621 23.485 37.171C23.5485 37.0845 23.6524 37.0066 23.7736 36.9893C23.889 36.9691 23.9986 36.9403 24.0563 36.8162C23.99 36.8768 23.915 36.9143 23.8428 36.9518C23.7505 36.9633 23.6581 37.0239 23.5543 36.972Z" fill="#509734"/>
<path d="M40.048 14.8682C40.0192 14.7211 39.9874 14.574 39.9586 14.4269C39.9586 14.3432 39.9557 14.2567 39.9557 14.1731C39.8951 14.0173 39.8951 13.8731 40.0913 13.8356C40.3164 13.7923 40.2731 13.6077 40.3135 13.4664C40.3452 13.4635 40.3798 13.4635 40.4116 13.4606C40.4635 13.4144 40.5241 13.4 40.5934 13.4144C40.7434 13.4779 40.7694 13.6048 40.729 13.7404C40.6049 14.1759 40.8358 14.5423 40.9194 14.9807C41.0781 14.8105 41.0695 14.6432 41.1185 14.4961C41.1791 14.3057 41.1474 14.1529 40.9252 14.0865C40.8127 14.0519 40.6944 14.0029 40.7203 13.85C40.7492 13.6942 40.7752 13.5414 40.9714 13.4808C41.4273 13.3423 41.5745 12.976 41.6062 12.5433C41.6206 12.327 41.5975 12.1078 41.6581 11.8943C41.6668 11.8684 41.687 11.8424 41.6697 11.8107C41.6524 11.877 41.6177 11.9087 41.5456 11.8828C41.3436 11.7703 41.3032 11.6145 41.485 11.4703C41.6524 11.3376 41.7764 11.4213 41.9063 11.5886C42.0737 11.8078 42.0708 12.076 42.0419 12.2808C41.9957 12.6068 42.0737 12.9097 42.0708 13.2212C42.0679 13.5039 42.1227 13.7663 41.7447 13.925C41.5571 14.0058 41.3782 14.3144 41.4792 14.5942C41.7332 14.7038 41.6206 14.0923 41.9986 14.4067C42.1804 14.5567 42.3247 14.675 42.4084 14.8999C42.4921 15.1278 42.6334 15.3384 42.7662 15.5461C42.9653 15.8576 43.0605 16.1316 42.5902 16.2758C42.5527 16.296 42.5151 16.296 42.4805 16.2701C42.4026 16.1547 42.342 16.0307 42.2526 15.9268C42.0679 15.3384 41.9236 15.2432 41.5456 15.474C41.459 15.5259 41.3609 15.5634 41.283 15.6297C40.7665 16.0682 40.4693 15.9932 40.2356 15.3557C40.175 15.1913 40.1086 15.0326 40.048 14.8682Z" fill="#507B2F"/>
<path d="M28.7309 33.7298C28.4972 33.6664 28.4799 33.5741 28.6097 33.3549C28.8954 32.8818 29.4206 32.703 29.787 32.3309C29.888 32.227 30.015 32.1578 30.0554 32.002C30.1189 31.7482 30.4103 31.5232 30.4334 31.3905C30.5228 30.8569 31.0798 30.7242 31.2327 30.2656C31.3914 29.7983 31.5732 29.7579 32.0551 29.9367C32.133 29.9656 32.1965 29.9339 32.2426 29.8675C32.2542 29.8877 32.6841 29.9829 32.7101 29.9656C32.762 29.9339 32.8168 29.9021 32.8486 29.9771C33.0419 30.4011 33.293 30.0781 33.5671 30.006C33.4978 30.2454 33.4401 30.4473 33.3824 30.6521C33.3564 30.7357 33.3074 30.779 33.215 30.7502C33.0794 30.753 32.8861 30.7386 32.8746 30.6146C32.8082 29.8848 32.2542 30.3435 31.957 30.2656C31.6944 30.1992 31.5328 30.5771 31.4722 30.8425C31.3972 31.1857 31.0999 31.379 30.9759 31.6876C30.9297 31.8001 30.7825 31.7972 30.6642 31.7972C30.4507 31.7972 30.3122 31.8376 30.3295 32.1203C30.3439 32.3799 30.1131 32.4953 29.8967 32.5905C29.4783 32.7751 29.1551 33.0895 28.8348 33.4039C28.7425 33.4991 28.728 33.6087 28.7309 33.7298Z" fill="#54A034"/>
<path d="M14.9611 42.4179C15.0477 42.389 15.1314 42.3573 15.2179 42.3285C15.7835 42.2564 16.2827 41.8612 16.8887 41.9823C16.7473 42.34 16.3289 42.2131 16.1067 42.4294C15.1169 42.6631 14.133 42.9256 13.123 43.0525C13.1144 43.015 13.1028 42.9775 13.0942 42.94C13.7146 42.764 14.3378 42.591 14.9611 42.4179Z" fill="#90BF58"/>
<path d="M29.259 34.1683C29.4465 33.8452 29.1003 33.9231 28.9964 33.8193C29.6716 33.6202 30.2285 33.2452 30.7393 32.7606C30.9614 32.5501 31.2904 32.4491 31.5732 32.2962C31.5386 32.6424 30.1564 33.7616 29.259 34.1683Z" fill="#54A034"/>
<path d="M24.5267 38.5844C23.3407 39.4786 22.0538 40.1997 20.6485 40.7103C21.9499 40.0238 23.2628 39.3575 24.5267 38.5844Z" fill="#9EC874"/>
<path d="M41.1993 21.1852C40.7117 22.065 40.2875 22.9823 39.6152 23.7466C39.5171 23.6832 39.5402 23.6226 39.595 23.5332C40.048 22.7717 40.4982 22.0073 40.9454 21.2429C41.0666 21.0352 41.0608 21.0324 41.1993 21.1852Z" fill="#96C365"/>
<path d="M42.544 16.2816C42.5584 16.2787 42.5729 16.2787 42.5873 16.2787C42.6796 16.5441 42.8528 16.7287 43.124 16.8181C43.1096 17.0027 43.199 17.222 42.8528 17.2335C42.7027 17.2393 42.6479 17.4873 42.5931 17.6575C42.5267 17.871 42.5498 18.1161 42.368 18.3238C42.2208 17.77 42.5815 17.3027 42.5065 16.7922C42.4113 16.6162 42.3564 16.4403 42.544 16.2816Z" fill="#54A034"/>
<path d="M26.1859 36.2739C26.2551 35.524 26.7082 35.3682 27.3257 35.4836C26.9505 35.7519 26.5062 35.922 26.1859 36.2739Z" fill="#54A034"/>
<path d="M41.938 16.0422C42.1141 16.1951 42.1631 16.3653 42.2266 16.5239C42.2641 16.6162 42.2554 16.7258 42.1746 16.8066C42.1141 16.8672 42.0448 16.8729 41.9813 16.8239C41.889 16.7518 41.7966 16.671 41.8226 16.5383C41.8544 16.3855 41.8948 16.2326 41.938 16.0422Z" fill="#54A034"/>
<path d="M16.1067 42.4265C16.0865 42.3948 15.9047 42.3746 16.0692 42.34C16.3722 42.2737 16.6261 42.1208 16.8887 41.9795C17.1195 42.0025 17.3244 41.8612 17.5639 41.8785C17.1051 42.141 16.6203 42.3227 16.1067 42.4265Z" fill="#ACCF8E"/>
<path d="M29.738 34.6933C29.484 35.0509 29.1551 35.3192 28.7886 35.5471C29.0108 35.1577 29.3946 34.9471 29.738 34.6933Z" fill="#BBD7A5"/>
<path d="M25.2221 36.7124C25.3808 36.2047 25.805 36.2884 26.1888 36.2739C25.9319 36.5653 25.528 36.5307 25.2221 36.7124Z" fill="#54A034"/>
<path d="M33.2179 30.7502C33.2728 30.7184 33.3276 30.6867 33.3853 30.6521C33.4747 30.7242 33.4603 30.8107 33.3853 30.8713C33.1573 31.0588 32.9178 31.2376 32.6553 31.3876C32.7851 31.1223 33.0823 31.0069 33.2179 30.7502Z" fill="#9BC66B"/>
<path d="M42.544 16.2816C42.5325 16.4518 42.5209 16.6249 42.5094 16.7951C42.3074 16.7922 42.3276 16.6393 42.3362 16.5181C42.3536 16.3133 42.293 16.123 42.2497 15.9268C42.4142 15.9932 42.4805 16.1345 42.544 16.2816Z" fill="#99C46E"/>
<path d="M11.0252 41.8381C11.1695 41.8093 11.2099 41.9189 11.2243 42.0112C11.2532 42.1756 11.1147 42.1468 11.0252 42.1468C10.9214 42.1468 10.7655 42.1871 10.7684 42.0112C10.7713 41.8554 10.9416 41.8987 11.0252 41.8381Z" fill="#54A034"/>
<path d="M31.5789 31.3011C31.7607 31.0905 31.9425 30.88 32.1561 30.6348C32.0868 30.9752 31.9454 31.1569 31.5789 31.3011Z" fill="#98C567"/>
<path d="M42.1487 19.0046C42.1949 18.8661 42.2439 18.7248 42.2901 18.5863C42.3276 18.6007 42.368 18.6152 42.4055 18.6296C42.4228 18.9123 42.2728 19.1344 42.0794 19.3449C41.9554 19.1978 42.0823 19.1084 42.1487 19.0046Z" fill="#54A034"/>
<path d="M9.73252 43.1332C9.90854 43.0092 10.0846 43.0092 10.3385 43.1246C10.0874 43.2486 9.90854 43.1996 9.73252 43.1332Z" fill="#9AC777"/>
<path d="M41.1849 16.8008C41.1878 16.7402 41.1907 16.6826 41.1936 16.622C41.3176 16.7114 41.2657 16.8585 41.309 16.9739C41.2455 17.0806 41.1849 17.1873 41.0897 17.3489C41.032 17.1123 41.1157 16.9595 41.1849 16.8008Z" fill="#98C374"/>
<path d="M42.1487 19.0046C42.1256 19.1171 42.1025 19.2296 42.0794 19.342C42.0419 19.3853 42.0131 19.4459 41.9669 19.4632C41.8948 19.4892 41.8659 19.4228 41.8832 19.368C41.938 19.2238 41.9005 19.0074 42.1487 19.0046Z" fill="#A8CD8B"/>
<path d="M35.6678 28.4253C35.6822 28.6762 35.5466 28.8205 35.3157 28.9012C35.4311 28.7426 35.5494 28.5839 35.6678 28.4253Z" fill="#A1CB80"/>
<path d="M41.3696 19.9478C41.4619 19.8093 41.5514 19.6709 41.6812 19.4747C41.7534 19.8007 41.586 19.8988 41.3696 19.9478Z" fill="#AFD189"/>
<path d="M42.948 8.2916C42.9797 8.50794 43.0547 8.36949 43.1384 8.32333C43.4962 8.12719 43.5539 7.6599 43.9377 7.46087C43.9608 7.56472 43.9839 7.66567 44.007 7.76663C43.8569 7.96566 43.8598 8.30891 43.4703 8.28584C43.401 8.28295 43.3173 8.4791 43.2481 8.58871C43.2048 8.66082 43.199 8.78773 43.1413 8.81658C42.4863 9.14829 42.5642 9.93576 42.1458 10.4117C41.9496 10.5732 41.8572 10.7924 41.8053 11.0347C41.4937 11.2597 41.2109 10.8444 40.8848 10.9972C40.804 11.0347 40.7579 10.853 40.856 10.6857C40.9339 10.5473 40.8127 10.5069 40.7261 10.4982C40.5414 10.4809 40.3452 10.4607 40.3452 10.2357C40.3423 10.0021 40.5905 10.0915 40.7146 10.0108C41.4013 9.56943 42.192 9.25791 42.6335 8.49929C42.6998 8.38102 42.7979 8.28872 42.948 8.2916Z" fill="#76A138"/>
<path d="M41.5456 11.8886C41.586 11.8309 41.6264 11.7732 41.7072 11.6578C41.7014 12.2722 41.863 12.852 41.4273 13.3423C41.3176 13.4664 41.2455 13.6567 41.0175 13.599C40.7954 13.5442 40.8329 13.7462 40.804 13.8442C40.7607 14.0029 40.9079 13.9913 41.0002 13.9885C41.3321 13.974 41.335 14.2192 41.2599 14.398C41.1503 14.6548 41.2599 15.1192 40.9743 15.1451C40.6165 15.174 40.8098 14.7067 40.6799 14.4846C40.5559 14.2711 40.5212 14.0202 40.6367 13.7692C40.6857 13.6625 40.6857 13.5385 40.5645 13.4577C40.4404 13.2616 40.5616 13.1433 40.7001 13.0279C40.5905 13.0885 40.5155 13.2125 40.3683 13.201C40.3019 13.1116 40.2731 12.9933 40.1548 12.9414C39.7508 12.7654 39.8172 12.5693 40.1317 12.3587C40.2269 12.2953 40.3106 12.2203 40.4 12.151C40.4549 12.5751 40.4924 12.5837 40.9368 12.2808C41.0464 12.3385 40.9945 12.4135 40.9685 12.4972C40.9425 12.5779 40.7203 12.5751 40.8617 12.7135C40.9656 12.8145 41.081 12.7452 41.1647 12.6529C41.3638 12.4337 41.4158 12.1395 41.5456 11.8886Z" fill="#608F32"/>
<path d="M39.0842 12.2347C38.7322 12.601 38.1811 12.6414 37.829 12.9991C37.7771 13.0539 37.7194 13.1231 37.6501 13.0712C37.5607 13.0048 37.604 12.9183 37.6588 12.8433C37.8867 12.526 38.1032 12.1972 38.3455 11.8914C38.461 11.7501 38.4927 11.6145 38.461 11.4501C38.7351 11.2972 39.0496 11.2972 39.3382 11.3001C39.6209 11.303 39.8778 11.2943 40.1259 11.1588C40.2529 11.0896 40.3972 11.0463 40.4866 11.1617C40.6136 11.3203 40.4202 11.4011 40.3337 11.4559C39.9239 11.7299 39.5026 11.978 39.0842 12.2347Z" fill="#6C9B35"/>
<path d="M44.965 3.63317C45.4901 3.59567 45.8855 3.80624 46.2317 4.30525C45.9634 4.26199 45.8479 3.96488 45.6171 4.11488C45.4757 4.20718 45.5998 4.32544 45.594 4.43217C45.5248 4.84177 45.1496 4.83311 44.8726 4.95715C44.6072 5.12156 44.5033 4.73216 44.2724 4.78408C44.0214 4.3716 44.31 4.13795 44.5754 3.90431C44.6908 3.80047 44.8322 3.72259 44.965 3.63317Z" fill="#7AA438"/>
<path d="M39.5459 12.5029C39.09 13.0308 39.0554 13.0452 38.2272 12.9933C38.686 12.826 39.1102 12.8347 39.3468 12.4828C39.4132 12.4914 39.4882 12.4135 39.5459 12.5029Z" fill="#8EAA71"/>
<path d="M42.8989 10.9511C42.9335 11.2713 42.9047 11.5799 42.6767 11.9116C42.544 11.4934 42.7085 11.2194 42.8989 10.9511Z" fill="#8FAC6E"/>
<path d="M43.2048 15.3817C43.0288 15.3903 43.0374 15.2547 43.0172 15.1422C42.9653 14.8451 42.9133 14.5509 42.847 14.15C43.1846 14.5134 43.0547 14.9086 43.1961 15.2201C43.2625 15.272 43.2654 15.324 43.2048 15.3817Z" fill="#89A764"/>
<path d="M43.8627 8.93484C43.7934 9.25791 43.6116 9.52039 43.3866 9.75404C43.4154 9.41078 43.6549 9.18002 43.8627 8.93484Z" fill="#9EB780"/>
<path d="M44.2696 4.78408C44.3965 4.75235 44.5725 4.4264 44.6274 4.84754C44.6447 4.98022 44.7745 4.94849 44.8697 4.95715C44.6043 5.12733 44.4109 5.04368 44.2696 4.78408Z" fill="#A8C176"/>
<path d="M36.3632 11.0088C36.2304 10.9453 35.8928 11.1501 36.0169 10.7463C36.089 10.7463 36.1641 10.7578 36.2333 10.7492C36.5392 10.7059 36.4584 10.853 36.3632 11.0088Z" fill="#94AF70"/>
<path d="M43.2048 15.3817C43.2019 15.3269 43.199 15.2749 43.1961 15.2201C43.3318 15.4653 43.4789 15.7076 43.1788 16.0451C43.1875 15.7711 43.1153 15.5778 43.2048 15.3817Z" fill="#507B2F"/>
<path d="M41.8082 11.0319C41.7014 10.703 41.8572 10.5184 42.1487 10.4088C42.0506 10.6251 41.9986 10.8674 41.8082 11.0319Z" fill="#B0CA98"/>
<path d="M40.3827 9.90114C40.5068 9.58385 40.6713 9.52328 40.9137 9.60404C40.7636 9.68769 40.6136 9.77134 40.3827 9.90114Z" fill="#8DAD6B"/>
<path d="M42.9451 10.6771C43.0259 10.4809 43.1067 10.2848 43.1875 10.0915C43.2163 10.1031 43.2481 10.1146 43.2769 10.129C43.1961 10.3252 43.1124 10.5184 43.0317 10.7146C43.0028 10.7001 42.9739 10.6886 42.9451 10.6771Z" fill="#8FAC6E"/>
<path d="M44.789 7.33396C44.737 7.5676 44.6706 7.70894 44.4687 7.82143C44.4831 7.59644 44.5812 7.47241 44.789 7.33396Z" fill="#8DAB76"/>
<path d="M38.6485 10.4088C38.8851 10.4088 39.1217 10.4088 39.4767 10.4088C39.1275 10.5502 38.888 10.478 38.6485 10.4088Z" fill="#C2D7AA"/>
<path d="M40.3164 13.4664C40.5587 13.7231 40.4376 13.9048 40.1577 13.9308C39.9441 13.9481 39.973 14.0577 39.9557 14.1759C39.8143 14.0144 39.8951 13.8212 39.8778 13.6394C39.9874 13.4866 40.1375 13.4404 40.3164 13.4664Z" fill="#608F32"/>
<path d="M39.7941 13.5385C39.6758 13.5414 39.5546 13.5442 39.4363 13.5471C39.4536 13.3106 39.4074 13.0308 39.7941 13.0423C39.921 13.2039 39.4998 13.3798 39.7941 13.5385Z" fill="#608F32"/>
<path d="M40.3683 13.201C40.4289 13.0654 40.5645 13.0481 40.7174 12.9789C40.703 13.1693 40.527 13.2846 40.5645 13.4577C40.5126 13.4577 40.4635 13.4577 40.4116 13.4606C40.4 13.3741 40.3827 13.2875 40.3683 13.201Z" fill="#A0BF7E"/>
<path d="M3.03518 39.8709C3.15061 39.6949 3.29488 39.6286 3.36991 39.5046C3.44205 39.7497 3.3122 39.8276 3.03518 39.8709Z" fill="#64A531"/>
<path d="M23.8168 37.0614C23.7072 37.0643 23.6091 37.1162 23.5571 37.2028C23.1676 37.8373 22.478 38.0421 21.8806 38.3825C22.0798 37.996 22.4289 37.745 22.7809 37.5431C23.0666 37.3787 23.3003 37.1681 23.5543 36.9749C23.6408 36.9431 23.7303 36.9143 23.8168 36.8826C24.0477 36.946 23.8515 37.0008 23.8168 37.0614Z" fill="#7DB347"/>
<path d="M23.384 35.3913C23.1503 35.7057 22.8906 35.9538 22.5761 36.1355C22.4462 36.2105 22.2731 36.2451 22.1865 36.1009C22.0884 35.9393 22.1721 35.7605 22.2731 35.6134C22.3596 35.4865 22.452 35.4721 22.5991 35.573C22.8935 35.7692 23.0579 35.374 23.384 35.3913Z" fill="#64A531"/>
<path d="M16.5972 39.4411C16.1875 39.5103 15.8758 39.5334 15.6161 39.744C15.518 39.8219 15.3738 39.8132 15.3045 39.6372C15.2266 39.4353 15.368 39.4036 15.4921 39.3892C15.821 39.3546 16.1557 39.2103 16.5972 39.4411Z" fill="#64A531"/>
<path d="M37.7857 23.6947C37.7482 23.8909 37.6588 24.0466 37.6761 24.2428C37.6905 24.4043 37.5549 24.4562 37.4308 24.4966C37.3414 24.5255 37.2519 24.4966 37.2086 24.413C37.1365 24.2659 37.2346 24.1707 37.3327 24.0841C37.4828 23.9543 37.6357 23.8245 37.7857 23.6947Z" fill="#61A432"/>
<path d="M28.1163 34.1683C28.2 34.1221 28.2808 34.076 28.451 33.9808C28.2779 34.3558 28.0788 34.5433 27.7672 34.6067C27.7585 34.3587 27.8624 34.2029 28.1163 34.1683Z" fill="#61A432"/>
<path d="M21.5344 36.2163C21.3584 36.3663 21.2458 36.4672 21.0496 36.4124C21.1593 36.2566 21.2833 36.1874 21.5344 36.2163Z" fill="#64A531"/>
<path d="M32.863 19.6766C33.316 19.1372 33.7691 18.5979 34.2192 18.0585C34.251 18.0844 34.2798 18.1104 34.3116 18.1334C33.8932 18.7046 33.5296 19.319 32.9496 19.7574C32.9207 19.7315 32.8919 19.7055 32.863 19.6766Z" fill="#C7DEAB"/>
<path d="M33.4372 18.5575C33.5613 18.0065 33.896 17.7527 34.2019 17.4787C34.1096 17.8998 33.7864 18.1594 33.4372 18.5575Z" fill="#C0D9A0"/>
<path d="M32.6639 20.0372C32.8803 20.3401 32.8197 20.5074 32.4648 20.591C32.3869 20.6083 32.3176 20.6199 32.2859 20.5391C32.2686 20.4958 32.2801 20.4237 32.309 20.3862C32.3956 20.2737 32.4965 20.1728 32.5947 20.0661C32.6062 20.0286 32.6293 20.0199 32.6639 20.0372Z" fill="#54A034"/>
<path d="M31.4578 21.4506C31.5761 21.3035 31.6915 21.1564 31.8098 21.0093C31.9021 20.9689 31.9194 20.7872 32.1359 20.8939C31.8964 21.0872 32.0579 21.6727 31.4578 21.4506Z" fill="#54A034"/>
<path d="M32.6639 20.0372C32.6379 20.0372 32.6149 20.0487 32.5947 20.0661C32.4446 20.0747 32.2801 20.0112 32.1647 20.1843C32.1099 20.2651 32.0089 20.3574 31.9252 20.2305C31.8473 20.1151 31.9858 20.0689 32.0464 19.9939C32.2167 19.7891 32.4764 19.8872 32.687 19.818C32.8053 19.7776 32.6783 19.9564 32.6639 20.0372Z" fill="#C7DEAB"/>
<path d="M39.5257 15.6615C39.5257 15.5663 39.3439 15.5403 39.4276 15.422C39.4392 15.4047 39.5488 15.4595 39.6152 15.4797C39.6296 15.5057 39.6469 15.5288 39.6585 15.5547C39.7162 15.6586 39.9441 15.7451 39.8258 15.8489C39.6585 16.0047 39.6354 15.722 39.5257 15.6615Z" fill="#97C56D"/>
<path d="M23.8168 37.0614C23.8284 37.0008 23.9121 36.9431 23.8197 36.8826C23.9554 36.7816 24.0592 36.6316 24.3132 36.6403C24.1631 36.8393 24.1112 37.0787 23.8168 37.0614Z" fill="#54A034"/>
</svg>
