<svg width="18" height="12" viewBox="0 0 18 12" fill="none" xmlns="http://www.w3.org/2000/svg">
<path fill-rule="evenodd" clip-rule="evenodd" d="M17.7184 1.05683C17.7185 0.472694 17.2779 -0.000916975 16.7343 -0.00101103L15.7501 -0.00118134C15.2065 -0.0012754 14.7657 0.472184 14.7656 1.05632L14.764 10.2228C14.7639 10.8069 15.2045 11.2805 15.7481 11.2806L16.7324 11.2808C17.276 11.2809 17.7167 10.8074 17.7168 10.2233L17.7184 1.05683ZM10.8584 2.25434L11.8427 2.25451C12.3863 2.2546 12.8269 2.73958 12.8268 3.33773L12.8256 10.1971C12.8255 10.7952 12.3847 11.2801 11.8411 11.28L10.8569 11.2798C10.3133 11.2797 9.8727 10.7947 9.8728 10.1966L9.87399 3.33722C9.87409 2.73906 10.3148 2.25424 10.8584 2.25434ZM6.8609 4.69803L5.87665 4.69786C5.33306 4.69776 4.8923 5.18876 4.8922 5.79453L4.89144 10.1819C4.89134 10.7877 5.33192 11.2788 5.87551 11.2789L6.85977 11.2791C7.40336 11.2792 7.84411 10.7882 7.84421 10.1824L7.84497 5.79504C7.84508 5.18927 7.40449 4.69812 6.8609 4.69803ZM1.96926 6.95356L0.985007 6.95339C0.441416 6.95329 0.000665571 7.43727 0.000562251 8.03439L0.000188098 10.1967C8.47788e-05 10.7939 0.440668 11.278 0.984258 11.2781L1.96852 11.2783C2.51211 11.2783 2.95286 10.7944 2.95296 10.1972L2.95333 8.0349C2.95344 7.43778 2.51285 6.95365 1.96926 6.95356Z" fill="white"/>
</svg>
