<svg width="31" height="31" viewBox="0 0 31 31" fill="none" xmlns="http://www.w3.org/2000/svg">
<path d="M14.8948 0.00201831C6.66771 0.173644 -0.444082 7.36688 0.0216611 16.0445C0.514981 25.2551 5.08969 30.4611 16.2737 30.988C23.8113 31.3433 31.0518 23.7316 30.9997 16.2101C31.015 6.56596 21.4091 -0.133476 14.8948 0.00201831ZM24.3751 26.2969C21.7523 27.9289 19.1815 29.6783 14.9162 29.5699C12.6151 29.4223 9.60311 28.4588 6.75657 26.9202C6.24792 26.6462 5.9599 26.3481 6.06408 25.7519C6.47467 23.4365 7.48888 21.5968 9.98919 20.9223C10.4304 20.8019 10.8839 20.7206 11.3159 20.573C12.1218 20.296 13.0441 20.1274 13.1452 19.0435C13.2371 18.0498 13.2739 17.1977 12.3026 16.3878C10.363 14.7679 9.7226 12.5759 10.4396 10.149C11.0555 8.06844 12.4987 6.72855 14.7048 6.32207C16.865 5.92161 18.7617 6.98147 19.5522 9.0169C20.5634 11.6274 20.3029 13.994 18.1519 16.0265C16.5678 17.5259 17.0489 19.5614 19.0957 20.2358C19.9107 20.5038 20.7626 20.6844 21.5623 20.9855C23.6214 21.7594 24.3016 23.5118 24.7459 25.4237C24.847 25.8272 24.7244 26.0801 24.3751 26.2969ZM26.0389 24.8185C25.3771 22.6807 24.5927 20.7206 22.359 19.8715C21.4673 19.5312 20.5266 19.3114 19.6013 19.0585C18.4216 18.7333 18.1213 17.827 19.0375 17.0171C21.5378 14.813 21.7063 12.0399 20.9556 9.15239C20.4255 7.11697 19.1294 5.56631 16.8374 5.20198C14.3647 4.80755 12.1524 5.3164 10.5438 7.33677C8.07106 10.4471 8.46326 14.5752 11.4753 17.1586C11.9441 17.5621 12.2566 17.9294 12.1371 18.5376C12.0176 19.1579 11.4385 19.2362 10.9758 19.3416C8.84014 19.8354 6.87299 20.5309 5.78523 22.6326C5.36545 23.4395 5.19693 24.3067 4.94567 25.3334C3.23897 23.6322 2.46069 21.5877 1.95817 19.477C0.628355 13.8796 1.86932 8.70376 6.19583 4.92798C11.4171 0.369358 18.06 -0.287035 23.9584 4.97014C27.5066 8.13167 29.6883 12.0098 29.5412 16.8153C29.4493 19.8233 28.3769 22.5603 26.0389 24.8185Z" fill="#B0A090"/>
</svg>
