<svg width="19" height="28" viewBox="0 0 19 28" fill="none" xmlns="http://www.w3.org/2000/svg">
<path d="M18.9556 17.5782C18.5999 12.9835 18.7214 8.37827 18.8631 3.78099C18.9498 0.89772 18.1603 0.05267 14.9816 0.0128091C10.9845 -0.0376813 6.99314 0.05267 3.01046 0.435334C0.641676 0.663869 0.11528 0.94821 0.0516496 3.14056C-0.0466881 6.4995 0.025619 9.86375 0.025619 13.2253C0.0950339 13.2253 0.164449 13.2253 0.230971 13.2253C0.230971 16.4541 0.135526 19.6881 0.277248 22.9115C0.335094 24.2402 -0.0785033 25.9782 2.08782 26.499C2.16302 26.5176 2.22665 26.6133 2.27582 26.685C3.37199 28.3273 4.28306 28.4256 5.5441 27.0119C5.72342 26.8099 5.93456 26.7966 6.17462 26.786C8.47977 26.6957 10.7849 26.5973 13.093 26.5149C13.3909 26.5043 13.8305 26.3582 13.8883 26.8365C14.0387 28.0908 15.0713 27.8941 15.965 27.9154C16.9542 27.9393 17.3504 27.4503 17.2897 26.5787C17.2665 26.2306 17.6165 26.1775 17.8508 26.0552C18.2615 25.8426 18.5305 25.545 18.5478 25.1172C18.6519 22.6033 19.1494 20.1106 18.9556 17.5782ZM2.90634 5.1522C3.79427 5.08311 3.49058 6.09557 3.53396 6.61111C3.5947 7.30203 4.231 8.50848 3.10012 8.5882C2.11963 8.6573 2.66628 7.38706 2.40308 6.77055C2.55058 6.17529 2.15145 5.208 2.90634 5.1522ZM3.1811 16.672C2.26136 16.6986 2.64892 15.6356 2.55926 15.035C2.49563 14.6019 2.51298 14.1528 2.55058 13.717C2.58818 13.3184 2.39729 12.7178 3.12904 12.7178C3.73353 12.7204 3.64676 13.2413 3.69015 13.6186C3.73931 14.0571 3.7827 14.4929 3.83187 14.9713C3.64965 15.5559 4.18762 16.6428 3.1811 16.672ZM16.7662 11.1313C13.4082 11.5406 10.0503 11.1207 6.69234 11.1366C5.15653 11.1446 3.61784 11.1074 2.08203 11.0675C1.6829 11.0569 1.10444 11.1659 1.13626 10.552C1.16229 10.0285 1.70025 10.1587 2.03865 10.1561C4.58386 10.1375 7.12907 10.1454 10.6634 10.1454C12.0286 10.2278 14.38 10.1693 16.7315 10.0338C17.1306 10.0099 17.7727 9.69633 17.8537 10.4324C17.9404 11.2137 17.2521 11.0729 16.7662 11.1313Z" fill="#FF8C66"/>
</svg>
