<svg width="19" height="31" viewBox="0 0 19 31" fill="none" xmlns="http://www.w3.org/2000/svg">
<path d="M18.9556 19.4615C18.5999 14.3746 18.7214 9.27594 18.8631 4.18609C18.9498 0.993904 18.1603 0.0583132 14.9816 0.0141815C10.9845 -0.0417185 6.99314 0.0583132 3.01046 0.481977C0.641676 0.734998 0.11528 1.0498 0.0516496 3.47704C-0.0466881 7.19587 0.025619 10.9206 0.025619 14.6424C0.0950339 14.6424 0.164449 14.6424 0.230971 14.6424C0.230971 18.217 0.135526 21.7976 0.277248 25.3663C0.335094 26.8374 -0.0785033 28.7615 2.08782 29.3382C2.16302 29.3588 2.22665 29.4647 2.27582 29.5441C3.37199 31.3624 4.28306 31.4712 5.5441 29.906C5.72342 29.6824 5.93456 29.6677 6.17462 29.6559C8.47977 29.5559 10.7849 29.447 13.093 29.3558C13.3909 29.3441 13.8305 29.1823 13.8883 29.7118C14.0387 31.1005 15.0713 30.8828 15.965 30.9063C16.9542 30.9328 17.3504 30.3915 17.2897 29.4264C17.2665 29.041 17.6165 28.9822 17.8508 28.8469C18.2615 28.6115 18.5305 28.282 18.5478 27.8083C18.6519 25.0251 19.1494 22.2654 18.9556 19.4615ZM2.90634 5.70422C3.79427 5.62773 3.49058 6.74867 3.53396 7.31944C3.5947 8.08439 4.231 9.42011 3.10012 9.50837C2.11963 9.58486 2.66628 8.17853 2.40308 7.49597C2.55058 6.83693 2.15145 5.76601 2.90634 5.70422ZM3.1811 18.4583C2.26136 18.4877 2.64892 17.3108 2.55926 16.6459C2.49563 16.1664 2.51298 15.6691 2.55058 15.1866C2.58818 14.7453 2.39729 14.0804 3.12904 14.0804C3.73353 14.0833 3.64676 14.66 3.69015 15.0778C3.73931 15.5632 3.7827 16.0457 3.83187 16.5753C3.64965 17.2226 4.18762 18.4259 3.1811 18.4583ZM16.7662 12.324C13.4082 12.7771 10.0503 12.3122 6.69234 12.3299C5.15653 12.3387 3.61784 12.2975 2.08203 12.2534C1.6829 12.2416 1.10444 12.3622 1.13626 11.6826C1.16229 11.103 1.70025 11.2472 2.03865 11.2442C4.58386 11.2236 7.12907 11.2324 10.6634 11.2324C12.0286 11.3237 14.38 11.2589 16.7315 11.1089C17.1306 11.0824 17.7727 10.7352 17.8537 11.5502C17.9404 12.4152 17.2521 12.2592 16.7662 12.324Z" fill="#FF8C66"/>
</svg>
