<svg width="20" height="19" viewBox="0 0 20 19" fill="none" xmlns="http://www.w3.org/2000/svg">
<path d="M9.85938 0.250977C10.2637 0.242925 10.5658 0.412157 10.7891 0.650391C11.0043 0.880086 11.1485 1.17494 11.2578 1.43066V1.43164C11.7703 2.63798 12.296 3.86157 12.7051 5.12012V5.12109C12.8259 5.49397 12.9517 5.7167 13.1182 5.85156C13.2788 5.98165 13.5152 6.05992 13.9277 6.05176L14.457 6.04883C15.6913 6.05918 16.9271 6.17792 18.1396 6.26758H18.1387C18.635 6.30378 19.3591 6.38977 19.6572 7.08691L19.707 7.22656C19.8011 7.54545 19.7349 7.82383 19.5938 8.05957C19.445 8.30785 19.2076 8.51611 19.0332 8.67871C18.3289 9.33398 17.619 9.98843 16.8945 10.6279L16.165 11.2617C15.8859 11.4996 15.7345 11.7336 15.6719 11.9756C15.6089 12.2192 15.6281 12.501 15.7402 12.8467H15.7393C16.1624 14.138 16.5187 15.4568 16.7295 16.8125C16.8096 17.3332 16.8503 18.0014 16.2734 18.46H16.2725C15.9496 18.7146 15.615 18.7467 15.3086 18.6689C15.0216 18.596 14.7589 18.4268 14.5557 18.2939C13.3837 17.5305 12.2286 16.7393 11.0996 15.9111C10.8096 15.698 10.5701 15.6319 10.3516 15.6475C10.1254 15.6636 9.8832 15.7705 9.59473 15.9756C9.29181 16.1902 8.99336 16.414 8.69336 16.6416C8.39431 16.8685 8.09237 17.0994 7.78516 17.3223C7.17047 17.7682 6.52511 18.1909 5.80859 18.5137C5.21652 18.7791 4.69506 18.8199 4.30762 18.6426C3.90365 18.4577 3.70953 18.066 3.73438 17.6309V17.626C3.88097 15.7348 4.42436 14.4015 4.81641 13.0977C4.93248 12.7104 4.93916 12.4264 4.8584 12.1982C4.77846 11.9724 4.5976 11.7588 4.24902 11.543C3.01739 10.7808 1.84594 9.90811 0.827148 8.86035V8.86133C0.382845 8.40478 0.150508 7.89415 0.291016 7.42969C0.433502 6.95882 0.91347 6.67992 1.5498 6.58105C2.94164 6.3637 4.35732 6.28177 5.75684 6.2334C6.12354 6.22009 6.3608 6.14778 6.53125 6.02148C6.70113 5.89546 6.83882 5.69137 6.95508 5.34473C7.39897 4.02041 7.95981 2.73246 8.48145 1.4541C8.69309 0.934242 9.05123 0.26548 9.8584 0.250977L9.85938 0.25V0.250977Z" fill="#F5F5F5" stroke="#DDDDDD" stroke-width="0.5"/>
</svg>
