<svg width="19" height="18" viewBox="0 0 19 18" fill="none" xmlns="http://www.w3.org/2000/svg">
<path d="M3.48309 17.1452C3.62699 15.289 4.15607 13.9944 4.55454 12.6692C4.80248 11.842 4.63423 11.2978 3.87935 10.8305C2.65959 10.0757 1.50623 9.2156 0.505627 8.18655C-0.337804 7.31987 -0.114217 6.51462 1.08784 6.32812C2.46478 6.11309 3.86828 6.03191 5.26515 5.98364C6.05102 5.95512 6.44064 5.66988 6.69079 4.92387C7.13132 3.60959 7.68697 2.33479 8.21162 1.04903C8.42414 0.526828 8.72742 0.0112068 9.36276 0.000236091C10.007 -0.0129287 10.3124 0.526828 10.5272 1.02928C11.0408 2.23825 11.561 3.45161 11.9661 4.69788C12.2163 5.47021 12.5439 5.81908 13.4316 5.80153C14.8262 5.7752 16.2253 5.91343 17.62 6.01655C18.1313 6.05385 18.6936 6.14162 18.9261 6.68576C19.1784 7.27379 18.7335 7.64899 18.3616 7.99566C17.4229 8.86893 16.4777 9.7378 15.5014 10.5716C14.886 11.096 14.7576 11.673 15.0011 12.4234C15.4217 13.707 15.7737 15.0125 15.9818 16.3509C16.0615 16.8687 16.0748 17.3997 15.6165 17.7639C15.1074 18.1655 14.6071 17.8561 14.1909 17.584C13.0221 16.8227 11.8709 16.035 10.7463 15.21C10.0955 14.7317 9.55978 14.837 8.94879 15.2714C7.72238 16.1403 6.59338 17.1606 5.20538 17.7859C4.08966 18.2861 3.44325 17.8429 3.48309 17.1452Z" fill="#FFC700"/>
</svg>
