<svg width="26" height="12" viewBox="0 0 26 12" fill="none" xmlns="http://www.w3.org/2000/svg">
<path d="M18.9398 11.3981L18.9397 11.9987L4.12723 11.9961L4.12733 11.3955L18.9398 11.3981ZM22.4688 7.87038L22.4694 4.13112C22.4695 3.39886 22.4691 2.8857 22.4365 2.4856C22.4044 2.09248 22.3443 1.8611 22.254 1.68381C22.0643 1.31136 21.7613 1.00828 21.3889 0.81843C21.2117 0.728078 20.9803 0.667861 20.5872 0.635674C20.1871 0.602938 19.6739 0.602313 18.9417 0.602186L4.1292 0.599623C3.39695 0.599497 2.88378 0.599931 2.48369 0.632542C2.09057 0.664593 1.85918 0.72473 1.6819 0.81502C1.30946 1.00476 1.00638 1.30773 0.816515 1.6801C0.726163 1.85735 0.665946 2.08872 0.633759 2.48183C0.60101 2.88191 0.600398 3.39508 0.600271 4.12733L0.599624 7.86659C0.599497 8.59896 0.59992 9.11296 0.632542 9.51308C0.664586 9.90584 0.724817 10.1367 0.815021 10.3139C1.00472 10.6864 1.30776 10.9894 1.68011 11.1793C1.85736 11.2696 2.08872 11.3298 2.48183 11.362C2.88192 11.3948 3.39506 11.3954 4.12733 11.3955L4.12723 11.9961L3.1702 11.9911C2.4017 11.9788 1.90945 11.9331 1.51399 11.7632L1.40853 11.7144C0.983815 11.4979 0.628191 11.1682 0.380372 10.764L0.280794 10.5863C-0.000313848 10.0343 -0.000235552 9.31142 1.44659e-05 7.86649L0.000661473 4.12723C0.000895803 2.77296 0.000925466 2.05331 0.232559 1.51399L0.282382 1.40853C0.498936 0.983698 0.828446 0.6282 1.23276 0.380372L1.41051 0.280794C1.96239 -0.000127017 2.68473 -0.000235951 4.12931 1.40047e-05L18.9418 0.00257702C20.3867 0.00282704 21.1096 0.00299892 21.6615 0.284298C22.1468 0.531744 22.541 0.927014 22.7882 1.41242C23.0692 1.96432 23.0693 2.68658 23.069 4.13122L23.0684 7.87048C23.0681 9.31541 23.068 10.0383 22.7867 10.5902C22.5392 11.0755 22.1449 11.4706 21.6595 11.7179L21.554 11.7667C21.1584 11.9367 20.6658 11.982 19.8968 11.994L18.9397 11.9987L18.9398 11.3981C19.672 11.3982 20.1853 11.3978 20.5853 11.3652C20.9785 11.3331 21.2099 11.273 21.3871 11.1827C21.7596 10.9929 22.0627 10.69 22.2525 10.3176C22.3428 10.1404 22.4031 9.90965 22.4353 9.51685C22.468 9.11674 22.4686 8.60274 22.4688 7.87038Z" fill="white"/>
<path d="M23.9921 4.41509L23.9914 8.1757C24.734 7.85733 25.217 7.11648 25.2172 6.29561C25.2173 5.47473 24.7346 4.73372 23.9921 4.41509Z" fill="white"/>
<path d="M1.8458 4.24503C1.84594 3.40495 1.84602 2.98491 2.00956 2.66407C2.15342 2.38186 2.38293 2.15243 2.6652 2.00866C2.98609 1.84523 3.40613 1.8453 4.24621 1.84545L18.8238 1.84797C19.6639 1.84811 20.0839 1.84819 20.4047 2.01173C20.687 2.15559 20.9164 2.3851 21.0601 2.66737C21.2236 2.98827 21.2235 3.40831 21.2234 4.24838L21.2228 7.75306C21.2226 8.59313 21.2225 9.01318 21.059 9.33401C20.9151 9.61623 20.6856 9.84566 20.4034 9.98942C20.0825 10.1529 19.6624 10.1528 18.8223 10.1526L4.24478 10.1501C3.4047 10.15 2.98466 10.1499 2.66382 9.98635C2.3816 9.8425 2.15217 9.61298 2.00841 9.33072C1.84497 9.00982 1.84505 8.58978 1.84519 7.7497L1.8458 4.24503Z" fill="white"/>
</svg>
