<svg width="35" height="30" viewBox="0 0 35 30" fill="none" xmlns="http://www.w3.org/2000/svg">
<path d="M26.1403 25.5821C22.3104 25.5821 18.4805 25.5821 14.4886 25.5821C14.8007 26.5183 15.323 27.2307 14.9178 28.1551C14.2905 29.5887 12.9608 30.2805 11.5651 29.73C10.1605 29.1736 9.6322 27.9225 10.2835 26.4829C10.5536 25.8883 10.8838 25.5144 9.86331 25.3319C8.93886 25.1641 8.26953 24.5371 8.13447 23.5391C7.9964 22.5146 8.38059 21.6197 9.27802 21.1722C10.3015 20.663 10.1575 20.0742 9.90233 19.1999C8.39559 13.9922 6.89186 8.78451 5.5322 3.53857C5.18102 2.17556 4.58974 1.56913 3.19706 1.49848C2.31462 1.45726 1.4352 1.2247 0.555766 1.04512C0.258621 0.986245 -0.0355223 0.791951 0.00349671 0.44752C0.0425158 0.111921 0.342662 -0.00288885 0.666821 5.49976e-05C2.32063 0.0177181 3.96543 0.176686 5.5382 0.671253C6.33659 0.921481 6.3516 1.82819 6.5707 2.51705C7.53417 5.55805 7.53417 5.61987 10.7998 5.48739C18.2464 5.18418 25.684 5.56393 33.1277 5.58454C34.7064 5.58749 35.2167 6.0585 34.9195 7.5422C34.1362 11.4222 32.8755 15.1844 31.78 18.985C31.5999 19.6091 31.0687 19.7003 30.4804 19.7504C24.6605 20.242 18.8437 20.7395 13.0269 21.2635C11.9913 21.3577 10.9348 21.4342 10.0254 22.0613C9.56917 22.3763 9.35606 22.7708 9.39808 23.3006C9.4431 23.9012 9.88132 24.1485 10.3976 24.2221C11.1359 24.328 11.8833 24.4016 12.6277 24.4222C18.3274 24.5842 24.0182 24.1956 29.715 24.1838C29.814 24.1838 29.9161 24.172 30.0151 24.1867C30.7895 24.3104 32.1072 23.8629 32.1462 24.8697C32.1882 25.9383 30.8045 25.1229 30.0842 25.6351C30.2042 26.2857 30.9156 26.8745 30.7235 27.684C30.5344 28.47 30.1832 29.1354 29.4389 29.5799C28.2893 30.2658 27.2388 30.0774 26.2753 29.2649C25.2578 28.4112 25.2428 27.4426 26.1403 25.5821ZM17.2889 6.5884C17.2889 6.59428 17.2889 6.60017 17.2889 6.60606C17.0398 6.60606 16.7907 6.60606 16.5446 6.60606C13.7082 6.62078 13.7382 6.61195 14.3625 9.33207C14.5276 10.0445 14.8007 10.3035 15.5451 10.2535C16.6826 10.1799 17.8382 10.1004 18.9698 10.2093C20.2694 10.3359 20.6866 9.97088 20.5996 8.64026C20.4615 6.5619 20.5605 6.55601 18.4835 6.58251C18.0843 6.59428 17.6881 6.5884 17.2889 6.5884ZM27.9832 6.89161C26.5575 6.79152 25.3209 6.65022 24.0782 6.62961C20.8247 6.57073 21.446 5.80533 21.512 9.34973C21.524 10.0386 21.7761 10.33 22.4845 10.277C22.9287 10.2447 23.3789 10.2918 23.8291 10.2859C24.9667 10.2741 26.3684 10.6421 27.1728 10.1269C28.0132 9.58524 27.599 8.05443 27.9832 6.89161ZM14.8908 11.222C15.5061 15.1844 15.5031 15.1491 19.429 14.9018C20.4015 14.84 20.6626 14.5574 20.6236 13.6124C20.5215 11.2426 20.5725 11.2397 18.1774 11.225C17.0848 11.2191 15.9923 11.222 14.8908 11.222ZM10.8778 10.2829C11.4091 10.2829 11.8173 10.2299 12.2045 10.2918C13.423 10.489 13.5581 9.9856 13.387 8.91698C13.0088 6.55601 13.0719 6.55601 10.7157 6.48831C9.97136 6.4677 9.23 6.35878 8.48564 6.29695C8.18849 6.2734 7.7893 6.23808 7.88234 6.67082C8.12546 7.81304 8.24852 9.03768 8.78879 10.0386C9.17297 10.7569 10.2565 10.1092 10.8778 10.2829ZM11.361 11.2044C11.361 11.1955 11.361 11.1896 11.361 11.1808C11.0609 11.1808 10.7517 11.2309 10.4666 11.172C9.06192 10.8805 8.80379 11.4075 9.35906 12.5909C9.50313 12.8971 9.59918 13.2415 9.6292 13.5771C9.76426 15.0579 10.4456 15.5348 12.0334 15.3729C14.5966 15.1108 14.5306 15.2551 14.1404 12.7646C13.9393 11.4752 13.384 10.9865 12.1084 11.1985C11.8683 11.2397 11.6132 11.2044 11.361 11.2044ZM24.2673 11.3957C21.539 11.2956 21.566 11.2956 21.7401 13.792C21.7851 14.4603 21.9442 14.7635 22.6826 14.7164C23.673 14.6546 24.6725 14.631 25.666 14.6722C26.4944 14.7075 26.7556 14.3837 26.8546 13.5889C27.1217 11.4428 27.1668 11.4458 25.0147 11.3957C24.7626 11.3928 24.5135 11.3957 24.2673 11.3957ZM18.5075 15.9763C15.467 16.1235 15.7882 15.5819 16.4095 18.6847C16.5656 19.4619 16.8417 19.8887 17.7692 19.6856C18.5405 19.5148 19.3449 19.5001 20.1373 19.4206C20.4195 19.3912 20.8277 19.4766 20.8217 19.0703C20.8097 18.1018 20.9147 17.0656 20.5935 16.1912C20.3834 15.6172 19.426 16.0588 18.8077 15.9763C18.7056 15.9646 18.6066 15.9734 18.5075 15.9763ZM31.4498 6.84451C28.8026 6.85334 28.8026 6.85334 28.6285 9.40272C28.6195 9.54697 28.5985 9.6971 28.5594 9.83546C28.4364 10.2564 28.6855 10.3389 29.0247 10.3389C30.1712 10.3389 31.3178 10.3418 32.4613 10.333C32.7075 10.33 32.9896 10.3124 33.0526 10.0121C33.2627 9.01707 33.764 7.94257 33.5359 7.05058C33.3858 6.47064 32.0952 6.98582 31.4498 6.84451ZM15.5751 19.6385C15.386 18.7671 15.2179 17.9104 15.0108 17.0656C14.9148 16.6652 14.9208 16.1147 14.2545 16.1912C13.0359 16.3325 11.4151 15.6672 10.7007 16.4827C10.1034 17.1657 11.259 18.511 11.4331 19.6149C11.4391 19.662 11.4751 19.7033 11.4871 19.7504C11.5862 20.1389 11.8113 20.3686 12.2405 20.2331C13.33 19.8887 14.5426 20.1743 15.5751 19.6385ZM26.4464 15.9116C25.615 15.9116 24.9277 15.9057 24.2403 15.9116C21.7341 15.9381 21.7731 15.9381 21.8902 18.3726C21.9232 19.0291 22.0973 19.1557 22.7276 19.1557C25.579 19.1616 25.8521 18.9702 26.4074 16.3002C26.4254 16.2089 26.4284 16.1118 26.4464 15.9116ZM30.3213 11.5252C29.673 11.8991 28.2323 10.6774 28.0702 12.5615C27.9021 14.5103 27.8391 14.5044 29.9041 14.4661C30.3513 14.4573 30.7985 14.472 31.2457 14.472C31.5459 14.472 31.756 14.4249 31.9301 14.0864C32.9806 12.0434 32.7045 11.5458 30.3213 11.5252ZM31.2397 15.7143C30.4684 15.7143 29.676 15.6849 28.8866 15.7202C27.668 15.7791 27.0137 16.6417 27.2418 18.2107C27.4129 19.3942 28.3313 18.4374 28.8896 18.5493C30.2523 18.823 30.9276 18.1754 31.0176 16.8654C31.0416 16.4827 31.4438 16.1795 31.2397 15.7143ZM12.4656 28.8263C13.288 28.6526 13.8883 28.2051 13.8493 27.369C13.8072 26.427 13.0329 26.0708 12.1954 26.0384C11.4181 26.009 11.0249 26.6066 11.0189 27.2719C11.0129 28.1521 11.5771 28.6732 12.4656 28.8263ZM28.0882 28.8204C28.8596 28.6261 29.5109 28.2198 29.4659 27.3779C29.4209 26.5359 28.7545 26.1326 27.9291 26.1415C27.1037 26.1473 26.6295 26.7067 26.6295 27.4368C26.6325 28.2669 27.2598 28.6849 28.0882 28.8204Z" fill="white"/>
</svg>
