<svg width="23" height="58" viewBox="0 0 23 58" fill="none" xmlns="http://www.w3.org/2000/svg">
<path d="M6.08412 57.2167L5.98057 57.1617L5.86407 57.1779C5.67961 57.0938 5.60518 56.9546 5.63755 56.754C5.81877 56.2783 6.20709 56.0776 6.66985 55.9676C8.45293 56.1974 10.2457 56.1165 12.0353 56.1326C13.5562 56.2459 15.0221 55.8964 16.501 55.6311C18.5851 55.2589 20.0639 54.0583 21.148 52.3011C21.682 52.4759 21.5687 52.9645 21.6561 53.3561C21.6399 54.5567 20.7759 55.1359 19.8989 55.6472C17.3812 57.1132 14.6047 57.5597 11.7408 57.5759C10.4075 57.5824 9.07102 57.55 7.73776 57.5339C7.23616 57.1649 6.58248 57.6018 6.08412 57.2167Z" fill="#E2BC3A"/>
<path d="M21.8947 28.1434C22.0532 34.3825 22.0953 40.6249 21.9464 46.8641C21.6552 47.0744 21.3866 47.0485 21.1407 46.7864C20.7232 46.0939 20.8591 45.3237 20.8429 44.5794C20.7459 40.0068 21.0339 35.4278 20.6617 30.8617C20.5873 30.7064 20.542 30.5348 20.5258 30.3633C20.5614 29.8585 21.1665 29.6643 21.1892 29.1498C21.3445 28.7582 21.1924 28.1499 21.8947 28.1434Z" fill="#D2B16A"/>
<path d="M0.598726 26.8182C0.569601 24.9931 -0.0711408 23.2423 0.00652483 21.3913C0.0647741 20.0386 0.41427 18.7507 0.608434 17.4304C1.15857 16.6861 1.7087 15.9385 2.25883 15.1942C2.54684 14.8803 2.77984 15.0389 2.99989 15.2848C3.11315 15.4725 3.17464 15.6796 3.22965 15.89C3.29437 16.0874 3.3688 16.2816 3.48206 16.4595C3.77978 16.9805 4.56291 17.2783 4.2296 18.0873C4.11957 18.1844 3.99336 18.2458 3.84774 18.2685C3.23289 18.2879 2.9287 17.686 2.39798 17.5436C1.5922 18.0258 1.46276 18.9028 1.41098 19.6503C1.28477 21.524 1.15209 23.4171 1.54042 25.2908C1.60838 25.8992 1.71517 26.5172 1.09061 26.9315C0.909388 26.9735 0.744349 26.9379 0.598726 26.8182Z" fill="#D9B43E"/>
<path d="M6.6635 8.46004C6.09071 8.01994 6.0001 7.4245 6.05512 6.74492C6.1878 5.01686 5.60854 3.2435 6.40785 1.56074C7.26217 1.65782 7.09713 2.36652 7.11978 2.87458C7.16509 3.78716 7.53076 4.38907 8.42716 4.63177C8.7184 4.6609 9.01612 4.64795 9.30089 4.72238C9.66981 4.8583 9.95782 5.10424 10.1973 5.41166C10.3526 5.68997 10.5209 5.96827 10.2102 6.25304C9.92869 6.42455 9.61803 6.44721 9.29766 6.41161C9.08408 6.38572 8.87373 6.27246 8.6731 6.28217C8.21034 6.30482 7.57283 5.54434 7.32366 6.3566C7.11331 7.04912 7.46604 7.70604 8.26859 7.99081C9.04524 8.26911 9.84132 8.29177 10.6471 8.29824C11.1293 8.30147 11.6114 8.32736 12.0774 8.48593C12.4431 8.74158 13.2327 8.73834 12.7247 9.53118C11.1713 10.0263 9.59861 9.78683 8.02588 9.66062C7.36249 9.49882 7.14567 8.82895 6.6635 8.46004Z" fill="#8F632D"/>
<path d="M21.8949 28.1447C21.4936 28.4845 21.6845 28.9667 21.6004 29.3809C20.6069 29.2029 21.0664 28.2904 20.7784 27.7564C20.7202 27.6205 20.6716 27.4813 20.6166 27.3422C20.4775 26.9992 20.2574 26.6853 20.2218 26.3002C20.3998 25.4782 20.8561 24.7372 20.9402 23.8861C21.5227 21.6564 21.115 19.5174 20.3577 17.4107C20.2283 16.867 19.9759 16.3654 19.8238 15.8315C19.8367 15.5241 19.7688 15.1584 20.2768 15.2231C22.5 17.4301 22.5389 20.2455 22.2444 23.0382C22.0664 24.7436 21.8496 26.4296 21.8949 28.1447Z" fill="#DCAF34"/>
<path d="M12.8831 9.31055C12.5595 9.11639 12.2359 8.91899 11.9123 8.72482C12.1906 8.31708 12.6404 8.31384 13.0579 8.2653C13.5433 8.21029 13.9899 8.03231 14.4429 7.88021C15.2487 7.61162 15.5917 6.95793 15.3134 6.24923C15.0189 5.5017 14.4106 6.34308 13.9413 6.21687C12.7181 6.3366 11.4787 6.98382 10.2943 6.09066C10.1875 5.88032 10.0775 5.67321 9.97067 5.46287C10.0742 5.32695 10.2101 5.22987 10.3687 5.16838C11.0095 4.98069 11.6696 5.05189 12.3201 5.03571C12.6987 5.03571 13.0741 5.02276 13.4365 4.89979C13.5789 4.85448 13.7213 4.81889 13.8669 4.78976C14.6436 4.67003 15.2487 4.35937 15.362 3.48239C15.459 2.84489 15.3846 2.24621 14.9445 1.73168C14.8151 1.54075 14.7212 1.34335 14.7277 1.10712C14.9024 0.760856 15.1419 0.679954 15.459 0.925896C15.9283 1.07152 16.1645 1.4469 16.2228 1.8773C16.5043 3.84483 16.4784 5.82531 16.3393 7.79931C16.3231 8.01936 16.0286 8.22 15.8668 8.43034C15.459 8.80896 15.0222 9.14875 14.4818 9.32673C13.9478 9.51119 13.4106 9.8348 12.8831 9.31055Z" fill="#8E6029"/>
<path d="M6.41038 56.2568C6.19033 56.4801 5.97351 56.7002 5.75346 56.9235C3.36524 57.2924 1.84752 56.0271 0.637229 54.1922C0.540147 54.0078 0.446301 53.8201 0.349219 53.6356C0.0385561 51.8137 -0.103831 49.9918 0.320094 48.1667C0.753728 47.8528 1.10646 47.9013 1.35887 48.3997C1.41712 49.72 1.15824 51.0532 1.5045 52.3671C1.65335 52.9366 1.77633 53.5094 2.25203 53.9139C2.64036 54.3702 3.11606 54.7068 3.66619 54.9462C4.19691 55.1986 4.75675 55.3766 5.32953 55.5158C5.77611 55.6355 6.24857 55.7229 6.41038 56.2568Z" fill="#DAB43C"/>
<path d="M15.4618 0.930154C15.2224 0.965751 14.9667 0.972223 14.8373 1.23758C14.2095 1.54824 13.572 1.28612 12.9409 1.27965C12.7856 1.26023 12.6303 1.22787 12.4782 1.18904C11.5818 0.943098 10.6854 0.952806 9.78576 1.16315C9.2421 1.31201 8.66608 1.34761 8.14831 1.60326C7.67908 1.83302 7.8959 2.04983 8.15155 2.27312C8.31012 2.41227 8.42985 2.57084 8.43956 2.78766C7.68555 3.48018 9.29065 2.89768 8.802 3.44782C8.75022 3.98824 8.8473 4.53514 8.73081 5.07232C7.27457 4.95583 6.51086 4.26978 6.72444 2.71646C6.77946 2.31196 6.82152 1.85891 6.40731 1.55795C7.25839 0.328245 8.52693 0.205274 9.86019 0.240871C10.8181 0.0402344 11.7759 0.0596509 12.7306 0.244107C13.7208 0.156733 14.6107 0.467396 15.4618 0.930154Z" fill="#AA783A"/>
<path d="M20.2768 15.2231C20.0277 15.3687 20.0512 15.5983 20.0868 15.8313C19.6628 16.6792 19.2972 16.2197 18.9282 15.7828C18.6305 14.8379 17.8021 14.4075 17.0837 13.8703C16.54 13.4625 15.854 13.1907 15.6728 12.4238C15.6695 12.0937 15.8313 11.8574 16.0967 11.6827C17.472 12.8833 19.2542 13.6083 20.2768 15.2231Z" fill="#CABE96"/>
<path d="M21.2966 46.8744C21.5134 46.8712 21.7302 46.8712 21.9438 46.8679C21.9438 47.2983 21.9405 47.7287 21.9405 48.1624C21.8111 48.4407 21.3257 47.732 21.3322 48.3856C21.1186 48.706 20.837 48.9487 20.5167 49.1526C18.9375 49.8063 17.4521 50.8839 15.5881 50.2496C15.4587 50.1396 15.3875 49.9972 15.381 49.8257C15.7046 49.0717 16.4586 49.0814 17.0897 48.8905C18.0864 48.5895 19.1413 48.4374 19.9795 47.7449C20.4099 47.4342 20.7302 46.965 21.2966 46.8744Z" fill="#CFAB46"/>
<path d="M6.66302 8.45891C7.07723 8.65307 7.65649 8.6466 7.7115 9.29381C7.81829 9.42326 7.9089 9.56241 7.9801 9.7145C7.99304 11.8115 7.11607 13.08 5.23915 13.6722C4.97055 13.6075 4.7958 13.4425 4.71814 13.1771C6.63713 12.1286 6.96721 10.4232 6.66302 8.45891Z" fill="#C5B892"/>
<path d="M21.261 48.2042C21.4228 47.1752 21.7205 48.2237 21.9438 48.1589C21.9503 49.8967 22.4228 51.6604 21.6591 53.3561C21.2319 53.1295 21.3193 52.7056 21.2675 52.3367C20.5556 50.9614 20.7012 49.5828 21.261 48.2042Z" fill="#E1AD23"/>
<path d="M4.71781 13.1781C4.85049 13.2914 4.97993 13.4047 5.11261 13.5179C5.13526 14.3011 4.60454 14.7153 4.05118 15.1165C3.66932 15.301 3.35866 15.712 2.85059 15.5081C2.72762 15.2654 2.50477 15.2072 2.25883 15.1942C2.82514 14.2105 3.70815 13.6182 4.71781 13.1781Z" fill="#CEBD8A"/>
<path d="M16.0928 11.685C16.0863 11.9471 16.0021 12.1639 15.7497 12.2804C14.9148 12.1736 14.8728 11.4876 14.7757 10.8824C14.6754 10.2643 14.7012 9.63007 14.5103 9.02493C14.863 8.59777 15.4132 8.62366 15.8662 8.42626C15.8824 9.51681 15.6073 10.6268 16.0928 11.685Z" fill="#BDAA82"/>
<path d="M12.7311 0.245791C11.7733 0.245791 10.8186 0.242555 9.86074 0.242555C10.8186 -0.0583993 11.7733 -0.103704 12.7311 0.245791Z" fill="#A87D48"/>
<path d="M1.24306 48.4442C1.00683 48.1141 0.654097 48.1724 0.324018 48.1627C0.311074 48.0559 0.301366 47.9491 0.288421 47.8423C0.498766 47.5705 0.408156 47.0236 0.98094 47.0786C2.08444 47.4507 2.87728 48.4636 4.10375 48.5898C6.86088 49.415 9.74745 49.3341 12.5531 49.8195C12.7246 49.8875 12.8606 49.9975 12.9641 50.1496C12.9932 50.3405 12.9285 50.4926 12.7732 50.6059C10.5532 51.2919 8.33329 50.9813 6.11011 50.6027C5.53085 50.5056 4.97101 50.2952 4.37558 50.3082C4.12964 50.3049 3.89988 50.2402 3.68629 50.1237C3.12322 49.7257 2.44364 49.6157 1.80937 49.3859C1.4081 49.195 1.23983 48.8714 1.24306 48.4442Z" fill="#CCAD47"/>
<path d="M0.268296 39.7526C0.164742 35.5263 0.129145 31.3032 0.53689 27.0898C1.16469 27.6011 0.954343 28.3325 1.03524 28.9862C0.976995 29.5363 1.51418 29.792 1.65981 30.245C1.66628 30.4262 1.63068 30.5945 1.55625 30.7563C1.17763 32.9957 1.43652 35.2512 1.35238 37.497C1.32649 38.2381 1.47859 39.0051 1.04495 39.6911C0.805484 39.9306 0.546598 39.9629 0.268296 39.7526Z" fill="#CDAF5F"/>
<path d="M0.268296 39.7526C0.475404 39.7526 0.683047 39.7499 0.890156 39.7499C1.30437 40.0962 1.37233 40.5848 1.34321 41.0637C1.217 43.1057 1.81244 45.1994 0.925753 47.1896C0.712172 47.4064 0.498591 47.6233 0.288247 47.8433C0.281775 45.1477 0.274768 42.4515 0.268296 39.7526Z" fill="#CFB572"/>
<path d="M0.644114 29.3623C0.608517 28.6051 0.572486 27.8471 0.53689 27.0898C0.517473 26.9895 0.537323 26.8996 0.595573 26.8187C0.699127 26.8187 0.802681 26.8155 0.906235 26.809C1.51462 27.5727 1.40783 28.3947 1.11011 29.2329C1.00008 29.427 0.841514 29.4723 0.644114 29.3623Z" fill="#CEA322"/>
<path d="M21.261 48.2042C21.2643 49.5828 21.2643 50.9581 21.2675 52.3367C20.8339 54.4143 19.2288 55.2979 17.4522 55.8222C15.7662 56.3205 14.0188 56.6765 12.2292 56.5729C11.404 56.2202 10.5335 56.5114 9.69213 56.4047C9.30704 56.3561 8.79897 56.615 8.61128 56.0131C9.11611 55.3303 9.86688 55.518 10.54 55.5018C12.3101 55.4597 14.0835 55.5827 15.831 55.1491C17.3681 54.7672 18.792 54.2074 19.8566 52.9744C20.3776 52.1428 20.1641 51.269 19.9958 50.3953C19.9052 49.7416 20.1964 49.2368 20.6333 48.7902C20.8436 48.596 21.0539 48.3984 21.261 48.2042Z" fill="#F7E287"/>
<path d="M8.68204 55.9264C9.74671 56.7904 11.1645 55.7154 12.2292 56.5729C10.2779 56.6603 8.3326 56.6905 6.41038 56.2568C5.99616 56.1242 5.58512 55.9944 5.17091 55.8617C5.49128 54.852 6.35531 55.318 6.99928 55.1853C7.6465 55.2339 8.284 55.3116 8.68204 55.9264Z" fill="#F8E9A9"/>
<path d="M21.2967 46.8756C21.0961 47.3028 20.8113 47.6555 20.3777 47.8691C20.2256 47.9985 20.0767 47.9953 19.9343 47.8594C19.8825 47.7655 19.8016 47.6522 19.8275 47.5649C20.5362 45.264 20.177 42.9049 20.2061 40.5653C20.2353 38.2126 20.0929 35.86 20.3032 33.5074C20.2968 33.2938 19.9893 33.5948 20.2029 33.5656C20.2417 33.5592 20.2417 33.6109 20.2482 33.7177C20.2709 33.996 20.1932 34.2484 20.0735 34.4911C19.313 35.4037 18.8308 36.3875 19.2483 37.6107C19.2968 37.7596 19.3292 37.9117 19.3583 38.067C19.4068 39.1058 19.5654 40.1219 19.9537 41.096C20.1964 42.0733 20.0087 43.0959 20.3 44.0699C20.4618 44.6071 20.4003 45.1669 19.8793 45.4711C19.258 45.8336 18.7887 45.4906 18.4231 44.9663C18.0089 42.9179 18.4619 40.8338 18.148 38.7822C17.9571 38.0541 17.9182 37.3001 17.805 36.5558C17.5526 34.8665 17.4684 34.7921 15.7404 34.9539C15.4718 34.9798 15.2064 35.0024 14.9346 35.0057C14.2744 34.9863 13.6013 35.0963 12.9832 34.763C12.3716 33.5074 13.4201 33.5948 14.0641 33.5527C14.9022 33.4977 15.763 33.6627 16.7824 32.9314C14.5204 33.9151 12.3813 32.9475 10.4818 33.7113C10.6953 33.8472 11.0934 33.7695 11.4137 33.9507C11.7827 34.1611 12.3037 34.3358 11.6532 34.8309C9.9381 35.0963 8.22945 35.2322 6.53375 34.7274C5.83152 33.8504 6.81205 33.7598 7.25863 33.4297C6.72791 32.9864 6.06452 33.0932 5.62118 32.6951C5.41731 32.4104 5.18431 32.1288 5.57911 31.8149C6.85412 31.4848 8.11942 32.0609 9.3912 31.8602C11.417 31.7696 13.4589 32.09 15.4653 31.6143C17.2969 31.6499 18.8891 30.6435 20.6592 30.4072C21.6656 30.5075 21.2385 31.2874 21.2417 31.7696C21.2838 36.8049 21.287 41.8403 21.2967 46.8756Z" fill="#F9EBBD"/>
<path d="M20.6585 30.406C19.212 31.4901 17.5098 31.7716 15.7785 31.9625C15.5876 31.7392 15.1054 31.9399 15.0763 31.4804C15.2769 31.0435 15.6879 31.0047 16.0827 30.9335C17.6036 30.859 18.9369 29.9788 20.4611 29.9044C20.5258 29.9529 20.5873 30.0015 20.652 30.05C20.6553 30.1698 20.6585 30.2895 20.6585 30.406Z" fill="#CEAE54"/>
<path d="M21.0505 27.4577C21.5844 27.9981 20.9564 28.8729 21.6004 29.3809C21.6036 30.054 21.1184 30.0336 20.6557 30.0498L20.6071 30.0045C20.5133 29.8783 20.4583 29.7391 20.4324 29.5838C20.4259 29.4285 20.4453 29.2764 20.4744 29.1243C20.6686 28.5742 20.4194 27.8655 21.0505 27.4577Z" fill="#CEAE54"/>
<path d="M2.54995 17.0898C2.98034 17.4263 3.4075 17.7629 3.8379 18.0962C4.04825 18.4975 3.81849 18.8631 3.757 19.2418C3.72464 19.3712 3.68581 19.4974 3.64374 19.6236C3.52077 20.012 3.48517 20.4165 3.44957 20.8177C3.61785 21.7918 3.29424 22.9406 4.3136 23.6396C5.05466 23.2027 4.35567 21.9665 5.49477 21.9277C5.96076 22.9406 6.3944 23.9632 6.65328 25.0505C6.66299 25.2156 6.64357 25.3806 6.59827 25.5392C6.29731 26.2835 5.78602 26.5229 5.03525 26.1961C4.16474 25.4809 3.09037 25.578 2.06777 25.4615C0.6439 23.2869 0.893078 18.9473 2.54995 17.0898Z" fill="#F7D558"/>
<path d="M2.55029 17.0913C1.35618 19.9002 0.890182 22.7156 2.50822 25.5407C3.30753 25.5051 4.11654 25.4177 4.76699 26.0488C4.87055 26.1782 4.90615 26.3206 4.87378 26.4824C4.6149 26.8125 4.23304 26.9096 3.85442 27.0099C3.45962 27.0843 3.11013 26.9646 2.77358 26.7769C2.35289 26.5148 1.82217 26.4242 1.52445 25.9743C1.35941 25.7478 1.48238 25.408 1.22673 25.2171C0.708962 22.4826 0.492146 19.7708 1.84482 17.1852C1.99045 16.9004 2.18461 16.0979 2.55029 17.0913Z" fill="#F7DF83"/>
<path d="M3.15855 20.6627C3.19091 20.2032 3.03882 19.7048 3.46598 19.3359C3.57277 19.4556 3.63749 19.6045 3.74428 19.7275C3.6569 19.5915 3.5663 19.4556 3.46921 19.3262C3.44009 18.8699 3.60513 18.4751 3.83489 18.0965C3.93521 18.09 4.03876 18.0771 4.13908 18.0641C4.3203 17.8894 4.53712 17.8667 4.77335 17.9217C5.29759 18.1903 5.91568 18.3198 6.23282 18.8958C6.3299 19.2679 6.20693 19.6174 6.10985 19.9702C6.07425 20.1093 6.02247 20.242 5.96422 20.3747C5.84125 20.6336 5.69886 20.886 5.46263 21.064C5.17786 21.1643 4.89308 21.1028 4.60831 21.0737C4.38826 21.0607 4.17144 21.0445 3.95139 21.0251C3.65367 20.9863 3.35919 20.928 3.15855 20.6627Z" fill="#F9EAB1"/>
<path d="M3.1591 16.4597C3.06202 16.34 2.9617 16.2235 2.86462 16.1038C3.21088 15.4209 3.9034 15.2041 4.51178 14.8708C4.96483 14.6411 5.4373 14.4793 5.95507 14.489C7.15565 14.9647 7.1783 15.1394 6.16865 16.0164C5.15576 16.1038 4.24966 16.916 3.1591 16.4597Z" fill="#EFCC4E"/>
<path d="M3.1591 16.4597C4.1364 16.2688 4.99998 15.5984 6.06465 15.7925C6.2491 16.43 5.6116 16.5498 5.36565 16.9187C5.20061 17.1064 5.0291 17.2941 4.99674 17.5594C4.98703 17.6856 4.95791 17.8054 4.91908 17.9251C4.88024 17.9736 4.83817 18.0222 4.79611 18.0675C4.57929 18.0675 4.36247 18.0643 4.14566 18.0643C4.29775 17.2326 3.14292 17.2073 3.1591 16.4597Z" fill="#F5DA74"/>
<path d="M1.22379 25.2135C1.49238 25.3332 1.54092 25.5727 1.57005 25.8283C1.7545 26.1293 1.88394 26.4496 1.86776 26.8121C1.60888 27.6308 1.79981 28.5401 1.36941 29.3233C1.23673 29.4689 1.0814 29.4916 0.909888 29.3945C0.909888 28.5337 0.909888 27.6729 0.909888 26.8121C1.44708 26.3623 1.15907 25.7539 1.22379 25.2135Z" fill="#E5C03B"/>
<path d="M4.48581 15.1683C3.94538 15.479 3.40505 15.7931 2.86462 16.1038C2.86139 15.9031 2.85806 15.7055 2.85483 15.5049C3.18491 15.2945 3.51499 15.0842 3.84506 14.8738C4.03599 15.0195 4.34666 14.9062 4.48581 15.1683Z" fill="#ECE5BD"/>
<path d="M14.5111 9.02922C15.3104 9.14248 15.0904 9.7897 15.1163 10.2589C15.1583 10.9968 15.1292 11.7346 15.7505 12.2847C16.2974 13.1358 17.3071 13.4012 17.9964 14.0581C18.4397 14.482 19.3199 14.6567 19.0934 15.5823C17.3136 15.6017 15.6502 14.6794 13.8412 14.948C12.7766 14.7862 11.7087 14.6211 10.6375 14.5047C8.615 13.9836 8.58264 13.9416 8.87388 12.3688C9.03245 12.1844 9.25574 12.2653 9.45314 12.2329C10.1036 12.1261 10.1877 12.0711 10.2039 11.8187C10.2524 11.1294 10.5566 10.2913 9.3334 10.3657C9.10688 10.3431 8.89006 10.301 8.67324 10.233C8.3011 10.1262 7.96778 9.94826 7.69595 9.66349C7.69919 9.54052 7.70242 9.41755 7.70566 9.29458C9.43049 9.33665 11.1521 9.56317 12.8769 9.31399C13.4853 9.55346 13.9642 9.09071 14.5111 9.02922Z" fill="#E9E8DE"/>
<path d="M14.1842 5.78897C14.634 5.64658 15.0871 5.50095 15.5369 5.35857C16.0903 7.60764 15.812 8.10923 13.6567 8.57846C13.0904 8.70143 12.495 8.67878 11.9093 8.72408C11.1617 8.71437 10.4045 8.79527 9.67314 8.67878C7.64089 8.35517 6.45649 8.58493 6.99367 5.16764C7.69267 5.7469 8.58258 5.69836 9.32041 6.09963C9.71521 6.15141 9.81876 7.29374 10.4724 6.41029C10.4886 6.38764 10.6051 6.42971 10.6148 6.4556C11.3624 8.66583 13.1584 7.17077 14.4205 7.55262C14.6276 7.61087 14.401 7.2452 14.3946 7.46201C14.3913 7.5688 14.3525 7.57204 14.2522 7.5235C13.1357 6.98631 13.7797 6.3844 14.1842 5.78897Z" fill="#B2803D"/>
<path d="M14.1837 5.79019C14.1222 6.25295 14.064 6.71571 14.0025 7.19141C14.7306 7.33056 14.3488 6.26913 15.161 6.41152C14.8503 8.39847 13.0899 7.76096 11.9929 8.14605C10.7632 8.57969 10.6338 7.59916 10.5464 6.68335C10.1192 6.98754 10.2681 7.58298 9.79885 7.75125C9.64028 7.19789 9.48495 6.64775 9.32961 6.09762C9.65322 6.09439 9.97683 6.09115 10.3004 6.08791C11.6175 6.32415 12.8828 5.81285 14.1837 5.79019Z" fill="#A37335"/>
<path d="M8.72734 5.07531C8.41021 4.5543 8.02835 4.03653 8.67557 3.4864C8.79207 3.39902 8.91827 3.37637 9.05742 3.41844C9.24512 3.51876 9.3875 3.66762 9.48782 3.85531C9.59461 4.12714 9.60432 4.39573 9.46841 4.66433C9.41663 4.71287 9.36809 4.75817 9.31631 4.80671C9.12215 4.89409 8.92474 4.9847 8.72734 5.07531Z" fill="#CEA472"/>
<path d="M10.2937 5.43967C10.1869 5.44615 10.0775 5.45639 9.97067 5.46287C9.66325 5.33342 9.43935 5.11607 9.31638 4.80217L9.29696 4.7957C9.58821 4.57241 9.4976 3.80222 10.1092 4.08376C10.7597 4.38148 10.5331 4.94456 10.2937 5.43967Z" fill="#A37335"/>
<path d="M21.2742 24.2005C21.2094 25.071 20.7952 25.7959 20.3163 26.4917C20.2645 26.5532 20.2127 26.6147 20.161 26.6794C19.3875 27.1292 18.5429 27.3654 17.6659 27.5046C16.1353 27.6017 16.4459 26.6761 16.7081 25.7765C17.0737 25.4756 17.488 25.4885 17.9281 25.5565C19.3616 25.7733 20.1124 25.2296 20.0121 23.8057C19.9118 22.3786 20.0186 20.9256 19.4361 19.5212C18.9248 18.2947 19.2872 17.9808 20.7046 18.1297C21.5686 19.7768 21.2515 21.5502 21.245 23.288C21.245 23.5922 21.0412 23.8996 21.2742 24.2005Z" fill="#F7DA70"/>
<path d="M20.6562 29.3583C20.64 29.4651 20.6173 29.5686 20.5947 29.6754C20.1125 29.7951 20.1934 29.2482 19.9831 29.1479C19.6756 29.0023 19.1029 28.0606 18.9734 29.3324C18.9216 29.8566 18.4945 30.1511 17.9767 30.2482C17.556 30.3259 17.09 30.4229 16.7761 30.0411C16.4169 29.6042 16.6823 29.1868 17.0415 28.9473C17.4395 28.6819 17.3327 28.3324 17.3683 27.9894C18.1126 27.0089 19.5786 27.4425 20.3293 26.4782L20.3164 26.4879C20.6432 26.6011 20.8859 26.7921 20.941 27.161C20.5753 27.86 21.0413 28.6658 20.6562 29.3583Z" fill="#F7DA70"/>
<path d="M13.854 14.5069C15.6921 14.4065 17.4363 14.7755 19.0932 15.5748C19.3424 15.9825 19.6208 16.2714 20.0868 15.8313C20.3812 16.21 20.6303 16.6038 20.6271 17.1054C20.3715 17.264 20.1546 17.1054 19.9314 17.018C19.6984 16.9274 19.4395 16.9307 19.2 16.8433C18.8376 16.6653 18.4784 16.4873 18.0868 16.3838C16.6856 15.6524 15.0222 15.9696 13.6178 15.2576C13.333 14.8919 13.5984 14.701 13.854 14.5069Z" fill="#EBCA4D"/>
<path d="M20.0178 16.8003C20.2184 16.9038 20.4223 17.0074 20.6229 17.1109C21.6843 19.3988 21.9173 21.7612 21.2734 24.2012C20.6391 22.9359 21.0954 21.5897 20.9886 20.2855C20.9239 19.4894 21.0339 18.6675 20.322 18.0753C20.0081 17.9264 19.6942 17.7743 19.568 17.4119C19.5518 17.085 19.7298 16.9038 20.0178 16.8003Z" fill="#F8E78E"/>
<path d="M20.6562 29.3583C20.7662 28.6269 20.3515 27.8272 20.9437 27.1638C20.9696 27.2642 21.0051 27.3639 21.0505 27.4577C20.8336 28.0758 21.3422 28.8405 20.6562 29.3583Z" fill="#FEEE9E"/>
<path d="M9.63339 0.912514C10.6139 0.423867 11.5912 0.452992 12.5717 0.91575C12.6462 1.207 12.7627 1.03872 12.8727 0.941638C13.549 0.909278 14.2189 0.902805 14.8402 1.23936C14.96 1.35586 15.0829 1.47235 15.2027 1.58562C15.3192 2.3558 14.9017 2.87034 14.248 3.05156C12.6688 3.4949 11.067 4.00943 9.41981 3.31368C9.4101 2.32991 8.31631 2.68588 7.95063 2.13575C8.2257 1.23936 9.03795 1.26525 9.73694 1.10021C9.8405 1.07755 9.95052 1.10344 10.0573 1.07755C9.89551 1.07108 9.74665 1.03872 9.63339 0.912514Z" fill="#BF8B49"/>
<path d="M9.28095 2.94278C11.4168 3.20166 13.6108 3.70002 15.203 1.58686C16.0379 2.04638 15.7434 2.83598 15.7757 3.5285C14.6043 3.41524 13.5623 4.02039 12.4264 4.12718C12.0187 4.14336 11.6336 4.01715 11.2323 3.97508C10.4621 3.88771 9.67899 3.89418 8.96381 3.53821C8.86673 3.53498 8.77289 3.51556 8.67904 3.4832C8.44604 3.3214 8.21628 3.15959 7.98328 2.99455C8.12244 2.93954 8.26159 2.88453 8.40074 2.82951C8.72758 2.59975 9.0253 2.59328 9.28095 2.94278Z" fill="#956328"/>
<path d="M12.559 3.83823C13.643 3.86735 14.5784 2.31821 15.7757 3.5285C15.6495 4.68378 14.9439 5.14236 13.8469 5.12618C13.7401 5.08411 13.6074 4.68931 13.5395 5.14883C13.2903 5.51451 12.9149 5.44655 12.5557 5.43361C12.2936 4.89966 12.1027 4.36894 12.559 3.83823Z" fill="#A47131"/>
<path d="M12.559 3.83823C12.4425 4.36894 12.9279 4.90289 12.5557 5.43361C11.8017 5.43685 11.0477 5.43994 10.297 5.43994C9.92158 5.29108 10.6626 3.41739 9.30349 4.79596C9.30996 4.47882 9.31644 4.15845 9.32291 3.84132C10.0348 3.42063 10.8795 3.9384 11.5946 3.52418C11.9118 3.62774 12.2353 3.73467 12.559 3.83823Z" fill="#AE7836"/>
<path d="M13.5395 5.14883C13.1835 4.88995 13.1579 4.52996 13.3003 4.16428C13.3294 4.08985 13.5495 4.09309 13.6822 4.05749C13.7372 4.41346 13.7919 4.77021 13.8469 5.12618C13.7434 5.13589 13.643 5.14236 13.5395 5.14883Z" fill="#B57F3A"/>
<path d="M1.854 49.1492C2.57565 49.1686 3.26493 49.2754 3.79565 49.8352C3.43644 50.3142 3.91538 50.6895 3.96069 51.1199C3.96716 51.2656 3.94451 51.4015 3.89273 51.5374C3.35554 52.9127 4.06748 53.1975 5.2357 53.081C6.04472 52.7703 6.94758 51.6183 7.64657 52.4273C8.41352 53.3205 8.94747 52.7412 9.55262 52.6247C11.2613 52.2914 12.6366 53.1166 14.0605 53.7962C14.3096 53.9159 14.5135 54.1489 14.4973 54.424C14.4747 54.8188 14.1187 54.8997 13.8016 54.9676C13.3777 55.0582 12.834 55.2006 12.5363 54.9903C11.2548 54.0906 10.0607 55.0874 8.82774 55.0841C7.4071 55.0809 6.10944 54.4175 4.69851 54.5178C4.00276 54.2719 4.2131 55.4627 3.54 55.2492C3.01252 55.0582 2.4818 54.8705 2.18732 54.3334C1.35889 53.1263 1.1356 51.7801 1.23592 50.3465C1.27151 49.8449 1.30387 49.3725 1.854 49.1492Z" fill="#F6D660"/>
<path d="M1.854 49.1492C1.43008 50.7381 1.20691 52.3078 2.24569 53.7737C2.37837 53.9614 2.40102 54.1685 2.1842 54.3335C0.333169 52.6152 0.883301 50.515 1.23927 48.4439C1.44638 48.6801 1.65013 48.9129 1.854 49.1492Z" fill="#FAE99F"/>
<path d="M3.54051 55.2502C3.97738 55.0528 3.85441 54.2956 4.48868 54.2956C5.4595 54.2535 6.33971 54.48 7.07106 55.1531C7.15843 55.2987 7.15843 55.4444 7.0743 55.59C6.44326 55.7065 5.74427 55.3667 5.16825 55.8618C4.62783 55.6579 4.08417 55.4541 3.54051 55.2502Z" fill="#F6E293"/>
<path d="M9.63379 0.914241C9.94445 0.930422 10.2583 0.943366 10.569 0.959546C9.67909 1.32846 8.72445 1.48703 8.0287 2.2022C8.14519 2.27015 8.18403 2.34458 8.14843 2.41901C8.11283 2.49344 8.07724 2.53228 8.0384 2.53228C7.60801 2.48697 7.15496 2.40931 7.17761 1.85917C7.19379 1.4223 7.61124 1.31551 7.96721 1.23785C8.51734 1.11164 9.07718 1.0178 9.63379 0.914241Z" fill="#CC9C5B"/>
<path d="M8.03871 2.52861C8.03547 2.41859 8.03223 2.30856 8.029 2.19853C8.49823 2.23413 9.01276 2.15646 9.42374 2.33121C10.1292 2.62569 9.65957 2.8101 9.28095 2.94278C8.98647 2.90718 8.69239 2.8684 8.40114 2.8328C8.27817 2.72925 8.15844 2.62893 8.03871 2.52861Z" fill="#DCB17A"/>
<path d="M12.8703 0.94013C12.8508 1.20225 12.8152 1.48055 12.4755 1.46437C12.359 1.46114 12.1648 1.30257 12.1551 1.19902C12.126 0.920713 12.3913 0.953074 12.5725 0.914241C12.6729 0.923949 12.7732 0.933658 12.8703 0.94013Z" fill="#CE9B59"/>
<path d="M19.9991 47.8423C20.1253 47.852 20.2515 47.8594 20.3777 47.8691C19.0282 49.2444 17.0834 49.0785 15.4686 49.7645C14.6596 50.4474 13.7503 50.2338 12.8442 50.059C9.78608 49.9361 6.70858 49.9749 3.78965 48.8261C3.69904 47.399 4.32036 46.8262 5.82513 47.2566C7.29107 47.674 8.67935 47.4411 10.1032 47.1983C10.7796 47.0819 11.4527 47.0236 12.1096 47.2954C12.5303 47.865 13.2584 47.5802 13.6694 47.7129C13.4331 47.5122 12.9218 47.8132 12.5465 47.5737C12.4655 46.8197 13.0869 46.81 13.5043 46.8294C15.0932 46.9071 16.4265 46.2567 17.7274 45.4832C18.0866 45.5318 18.4685 45.3861 18.8147 45.5997C19.148 46.3764 18.6529 47.5964 19.9991 47.8423Z" fill="#F9EAB3"/>
<path d="M20.6368 48.79C20.53 49.3401 20.42 49.8903 20.3132 50.4404C18.3198 51.0229 16.5205 52.1944 14.4041 52.3982C13.3977 52.4953 12.3751 52.6442 11.3946 52.2267C11.058 51.2591 11.2328 50.599 12.4204 50.599C12.9608 50.599 13.4171 50.2915 13.9349 50.2301C14.3717 50.0974 14.8248 50.1136 15.2746 50.1168C15.349 50.12 15.4235 50.1233 15.4947 50.1265C17.3651 50.2915 18.9508 49.3434 20.6368 48.79Z" fill="#F5D86B"/>
<path d="M12.8442 50.059C13.6855 49.6578 14.5949 49.8616 15.4686 49.7645C15.4751 49.8875 15.4814 50.0111 15.4911 50.1309L15.4846 50.1212C14.6206 50.2247 13.7566 50.6486 12.8958 50.1212L12.8442 50.059Z" fill="#CCAD47"/>
<path d="M7.6983 9.66266C8.0575 9.67237 8.44259 9.60765 8.67883 9.9895C9.35193 11.7596 8.79209 13.0282 6.6757 14.5232C6.38769 14.6753 6.03496 14.6171 5.75989 14.8048C5.33273 14.9245 4.9088 15.0442 4.48164 15.164C4.26806 15.0669 4.05448 14.9666 3.8409 14.8695C4.26483 14.4164 4.68552 13.9666 5.10944 13.5136C6.84721 12.8178 7.64328 11.4878 7.6983 9.66266Z" fill="#E6E3D7"/>
<path d="M9.97395 47.5067C8.72806 47.908 7.46923 48.2769 6.17804 47.7267C5.60849 47.484 5.02276 47.429 4.45968 47.6005C4.05517 47.7235 3.7348 47.9047 4.2105 48.4904C4.68944 49.0794 3.87702 48.6255 3.78965 48.8261C2.55994 48.7646 1.74124 47.976 0.925753 47.1896C0.912808 44.7108 0.9031 42.2287 0.890156 39.7499C0.912808 37.0931 0.912949 34.4362 0.974435 31.7826C0.984143 31.3004 0.556982 30.5335 1.54075 30.4138C2.48244 30.5011 3.36913 30.6953 3.89984 31.6014C3.76393 31.9088 3.49857 32.0544 3.20732 32.1677C2.49862 32.2098 2.01645 32.5399 1.81581 33.2421C1.45985 34.996 1.72197 36.7629 1.65401 38.5233C1.62488 39.2741 1.64754 40.0217 1.42748 40.753C1.39512 40.8533 1.39836 40.9633 1.38542 41.0701C1.46308 40.9925 1.366 40.8889 1.42748 40.7983C1.54722 40.3744 1.78345 40.0152 1.94202 39.6236C2.48568 38.2774 3.04552 38.5978 3.64419 39.5718C3.65714 40.3744 3.6539 41.1737 3.39502 41.9471C2.92902 42.4519 3.05846 43.3095 2.37242 43.6849C2.18149 43.8176 1.96144 43.2933 1.94849 43.5781C1.91613 44.2997 1.88377 45.044 2.10059 45.756C2.15236 45.921 2.18472 46.0958 2.24945 46.2478C3.21703 45.6298 2.90637 44.4518 3.4209 43.6428C3.55682 43.5651 3.69597 43.5619 3.83512 43.6331C4.24287 44.0085 4.15873 44.5813 4.3982 45.0214C4.67003 45.5877 4.9904 46.1055 5.63438 46.319C6.05506 46.4841 6.50811 46.5197 6.94175 46.6297C7.9514 46.9209 9.14228 46.5941 9.97395 47.5067Z" fill="#FBEDC2"/>
<path d="M14.1804 50.4634C13.996 50.554 13.7921 50.7514 13.6271 50.719C12.4524 50.4957 11.7081 50.9908 11.2647 52.0458C10.1936 52.8483 9.0092 52.4374 7.85716 52.3597C7.26496 52.3209 6.71806 52.049 6.12586 52.0393C5.59838 51.9002 5.3395 51.4439 5.00295 51.0782C4.72788 50.7222 4.29425 50.499 4.11626 50.0556C5.24565 49.664 6.26178 50.2724 7.32968 50.4213C9.18071 50.6769 11.0317 50.4925 12.8828 50.4342C13.3196 50.198 13.7533 50.1656 14.1804 50.4634Z" fill="#F5D55E"/>
<path d="M4.11367 50.0603C4.56348 50.125 4.92916 50.316 5.1395 50.7431C4.89356 51.6136 4.35961 51.3839 3.80624 51.0926C3.25611 50.6784 2.6542 50.2642 3.7933 49.837C3.90332 49.9115 4.00688 49.9859 4.11367 50.0603Z" fill="#F9EAAF"/>
<path d="M14.1804 50.4634C13.7468 50.4537 13.3164 50.4439 12.8828 50.4342C12.8828 50.3274 12.8864 50.2246 12.8961 50.1178C13.7602 50.1178 14.6242 50.1178 15.485 50.1178C15.1387 50.5676 14.6205 50.376 14.1804 50.4634Z" fill="#CFAB46"/>
<path d="M3.92828 31.6101C3.14839 31.1765 2.19051 31.102 1.54006 30.4128C1.54653 30.2898 1.55301 30.1668 1.55948 30.0438C1.64685 30.0082 1.73423 29.9726 1.8216 29.937C3.53995 30.0212 5.10297 30.7914 6.8278 30.9629C8.64647 31.1441 10.4522 31.1603 12.2644 31.2056C12.9472 31.2218 13.6753 31.1085 14.2287 31.6813C14.0831 32.4256 13.4876 32.0923 13.0799 32.1343C11.834 32.2638 10.5622 31.9337 9.32281 32.3156C8.00573 32.4968 6.73719 32.0599 5.43953 32.0049C4.85056 32.212 4.33926 32.1052 3.92828 31.6101Z" fill="#D1AE41"/>
<path d="M0.909888 29.3945C1.0005 29.4009 1.08743 29.4077 1.17804 29.4142C1.38839 29.4044 1.53078 29.5145 1.64404 29.6763C1.68934 29.8025 1.66993 29.919 1.58902 30.0225L1.55666 30.0452C1.08743 30.0387 0.585843 30.0743 0.640856 29.3624C0.731466 29.385 0.819278 29.3977 0.909888 29.3945Z" fill="#D1AE41"/>
<path d="M5.75059 51.7133C7.5822 51.9236 9.41371 52.1623 11.2647 52.0458C13.6788 52.1494 16.0251 51.9754 18.19 50.7165C18.8114 50.3573 19.5557 50.1341 20.3129 50.4415C20.7983 51.299 20.7692 52.1598 20.3258 53.0206C19.656 53.1468 19.8372 52.4123 19.4942 52.2084C19.3259 51.7812 19.0282 51.6615 18.6075 51.8427C18.2871 51.888 17.957 51.8751 17.6561 52.0304C17.5331 52.0951 17.4037 52.1501 17.2775 52.2051C16.449 52.5935 15.5462 52.7132 14.8019 52.8912C15.8762 53.4802 17.0736 53.8458 18.2677 52.9268C18.5654 52.7909 18.8599 52.6614 19.1867 52.6323C19.41 52.6129 19.6495 52.6323 19.7498 52.8362C19.8857 53.108 19.7531 53.3442 19.533 53.5384C18.9214 54.0756 18.2515 54.5837 17.4846 54.794C15.5915 55.3118 13.7275 56.0075 11.6726 55.6645C10.1516 55.4088 8.56273 55.8037 7.05149 55.2891C6.19716 54.9558 5.34608 54.6257 4.49175 54.2924C4.95775 53.7617 5.46258 54.0594 5.96417 54.218C7.25536 54.629 8.58862 54.616 9.92835 54.6646C11.0901 54.7066 10.5529 54.205 10.2908 53.6258C11.4978 54.5642 12.7729 54.8911 14.433 54.4866C13.4557 53.6743 12.3004 53.4413 11.3652 53.1112C10.1905 52.697 8.74071 52.8362 7.62427 53.8555C7.43011 53.2407 8.19705 53.3151 8.05143 52.7294C7.47865 53.1339 6.34926 51.5547 6.14215 53.4543C6.10332 53.8135 5.52082 53.2342 5.15838 53.3313C4.89303 52.9721 5.04836 52.5999 5.11632 52.2278C5.23605 51.943 5.3299 51.6291 5.75059 51.7133Z" fill="#EFCA41"/>
<path d="M17.7274 51.7041C17.9637 51.3902 18.1869 51.4031 18.4005 51.7267C18.7371 52.1895 19.2775 51.8109 19.6723 52.0374C19.8891 52.3642 20.1092 52.6911 20.326 53.0179C19.6011 54.3382 18.2808 54.8269 16.9961 55.2799C14.294 56.2281 11.4689 55.8818 8.68584 55.9271C8.15189 55.8171 7.61471 55.7038 7.08075 55.5938C7.06781 55.4935 7.0581 55.3932 7.05163 55.2929C8.92855 55.3414 10.8217 55.5 12.6727 55.4967C15.1224 55.4903 17.6433 54.9531 19.6529 53.047C18.9733 52.7914 18.5947 53.4224 18.0672 53.3512C18.0122 53.3027 17.9604 53.2541 17.9054 53.2024C17.6465 52.7267 17.6627 52.2186 17.7274 51.7041Z" fill="#F5D760"/>
<path d="M19.9991 47.8423C17.3358 48.3601 18.8274 46.5027 18.698 45.5708C18.63 45.4996 18.6074 45.4284 18.6333 45.3572C18.6591 45.2892 18.6818 45.2536 18.7077 45.2536C19.7044 45.2277 20.6073 45.2989 19.8371 43.7521C19.4682 43.0078 19.7109 41.9593 19.6753 41.0467C19.2093 40.0177 19.5685 38.8236 19.0281 37.8107C18.8727 36.6586 19.3031 35.6231 19.6753 34.5746C20.0507 34.005 20.0215 33.5293 19.4811 33.031C19.2449 32.8142 19.3743 32.3967 19.7173 32.2382C20.0507 32.0828 20.1736 32.3967 20.3095 32.6135C20.6396 33.1378 20.6493 33.7203 20.6493 34.3157C20.6429 37.9013 20.6008 41.4868 20.6785 45.0724C20.6979 46.0982 20.1771 46.9103 19.9991 47.8423Z" fill="#F4E0A9"/>
<path d="M3.92828 31.6101C4.46547 31.6198 4.97995 31.7081 5.44271 32.0058C5.5495 32.2161 5.65629 32.4232 5.76308 32.6336C5.86016 33.1999 6.14493 33.7565 5.83427 34.339C5.48478 34.7241 4.92494 34.8762 4.6887 35.3875C4.41364 37.6139 4.54308 39.8597 4.26801 42.0797C4.20976 42.5554 4.26478 43.0473 4.00266 43.4809C3.93793 43.5391 3.87321 43.5974 3.81173 43.6589C3.71141 43.6492 3.61109 43.6427 3.50754 43.6362C3.05125 43.167 2.93475 42.6298 3.17746 42.0182C3.22276 41.1444 3.01242 40.2416 3.49459 39.4229C2.93799 38.2935 2.7147 37.0476 2.23253 35.8761C1.66621 34.504 2.43316 33.1934 3.17422 31.9928C3.33603 31.6919 3.63703 31.6619 3.92828 31.6101Z" fill="#F9EDC4"/>
<path d="M4.49175 34.8856C4.75064 34.3354 5.32666 34.4358 5.77 34.261C5.98682 34.0636 6.19393 34.0507 6.38485 34.2934C8.21 34.795 10.0675 34.6526 11.925 34.5943C12.2421 34.2934 12.5625 34.316 12.8829 34.5879C13.6369 34.6073 14.3941 34.6267 15.1481 34.6429C15.1514 34.8306 15.0769 34.9762 14.9216 35.083C12.912 35.6364 10.9121 35.303 8.89928 35.028C9.52384 35.1056 10.2843 34.9212 10.4688 35.8305C10.4591 36.3095 10.0804 36.4939 9.75684 36.714C9.64681 36.8143 9.52061 36.8984 9.3944 36.9793C9.14199 37.112 8.86045 37.1864 8.59509 37.29C8.21647 37.4712 7.99318 37.8887 7.56278 37.9987C6.24894 37.9081 6.0386 36.7787 5.57584 35.8888C5.59202 35.3645 5.1778 35.2869 4.80889 35.1574C4.67621 35.0959 4.57266 35.0053 4.49175 34.8856Z" fill="#94A842"/>
<path d="M12.88 34.5903C12.5596 34.5935 12.2425 34.5935 11.9221 34.5967C11.139 33.9819 10.0646 34.2602 9.00963 33.6C10.3591 33.2441 11.5143 33.0305 12.7182 32.9399C13.8411 32.8525 15.0028 33.4123 16.1096 32.6745C16.5141 32.4059 16.9089 32.7133 17.0189 33.2279C17.1742 33.9528 16.5626 33.5321 16.3361 33.6647C15.65 34.0628 14.8702 33.901 14.1226 33.9301C13.6048 33.9528 12.9835 33.7877 12.88 34.5903Z" fill="#F9E8B3"/>
<path d="M15.1481 34.8986C15.1513 34.8144 15.1513 34.7303 15.1481 34.6461C17.9926 34.206 18.0444 34.2449 18.258 37.0182C18.2936 37.4939 18.3227 37.9696 18.3551 38.4485C18.5913 39.3579 18.6107 40.2769 18.4521 41.2024C18.1835 42.4418 18.7078 43.7492 18.1059 44.9563C17.9085 45.0372 17.7402 45.0016 17.5946 44.843C16.9538 43.0826 17.4425 41.2607 17.2839 39.4744C17.2677 38.9695 17.1998 38.4679 17.1642 37.9664C17.1415 37.4939 17.2839 37.0408 17.3195 36.5716C17.3875 35.7335 17.0865 35.2642 16.1901 35.2998C15.8827 35.2739 15.5785 35.2319 15.3067 35.0733C15.2517 35.0151 15.1999 34.9568 15.1481 34.8986Z" fill="#808F3B"/>
<path d="M6.3816 34.2967C6.17773 34.287 5.97062 34.274 5.76675 34.2643C5.84442 33.7207 5.06452 33.1803 5.76028 32.6334C6.07741 32.6495 6.43015 32.5848 6.70521 32.7013C7.21975 32.9149 8.14526 32.8372 8.13879 33.4683C8.13232 34.3096 7.18739 33.7174 6.73757 33.9957C6.61137 34.0766 6.50134 34.1964 6.3816 34.2967Z" fill="#F8E7B0"/>
<path d="M18.3448 40.955C18.3869 40.1169 17.9986 39.2787 18.3546 38.4438C19.1118 39.7447 18.5681 41.1589 18.6943 42.5148C18.7785 43.4209 18.7105 44.3367 18.7105 45.2493C18.7073 45.3561 18.7073 45.4596 18.7041 45.5664C18.4646 45.6376 18.2089 45.8997 18.0148 45.5017C17.95 45.314 17.9889 45.149 18.1313 45.0098C18.4225 43.6733 18.018 42.2948 18.3448 40.955Z" fill="#FEF8CE"/>
<path d="M9.32635 32.3168C10.2292 31.6632 11.2583 32.1291 12.2194 31.99C12.8763 31.8929 13.5947 32.223 14.1837 31.6858C14.4911 31.3881 14.8115 31.3946 15.1383 31.6534C15.394 31.6729 15.6367 31.7149 15.7823 31.9641C13.6562 32.5822 11.488 32.3686 9.32635 32.3168Z" fill="#C3A243"/>
<path d="M19.6752 34.5757C19.7011 35.7019 19.5328 36.7892 19.028 37.8118C18.3873 36.5627 18.5361 35.4689 19.6752 34.5757Z" fill="#F8E6B3"/>
<path d="M19.0315 37.8104C20.0476 38.7294 19.5654 39.9462 19.6787 41.0465C18.8826 40.0854 19.0444 38.9301 19.0315 37.8104Z" fill="#F8E6B3"/>
<path d="M15.1381 31.6523C14.821 31.662 14.5006 31.675 14.1834 31.6847C10.1804 31.6685 6.158 31.8173 2.31678 30.3514C2.0676 30.2576 1.83137 30.1314 1.58867 30.0213C1.57249 29.9275 1.56278 29.8336 1.5563 29.7398C1.65662 28.9114 1.25859 27.9567 2.15821 27.3257C3.01901 27.1412 3.82155 27.2189 4.5076 27.8337C4.51731 27.8855 4.53349 27.9373 4.53349 27.9891C4.5076 28.523 3.67917 29.0279 4.37816 29.565C5.0189 30.0569 5.15805 28.9534 5.71465 29.0343C6.03503 29.2058 6.02208 29.7042 6.50749 29.811C6.34892 29.2932 5.71142 29.2706 5.60139 28.7949C5.59816 28.5133 5.71789 28.3062 5.96707 28.1768C8.44913 28.0085 10.9183 28.468 13.3971 28.2868C13.9958 28.4001 15.0119 28.1832 15.0345 28.8758C15.0604 29.6783 14.0184 29.3741 13.4553 29.51C12.0962 29.8336 10.5979 29.3871 9.41348 30.1993C11.0056 29.743 12.7628 29.6459 14.4812 29.51C15.2902 29.4453 15.7594 30.5359 16.1154 31.3352C15.7627 31.3675 15.384 31.3028 15.1381 31.6523Z" fill="#F7D353"/>
<path d="M16.1125 31.3351C15.7727 30.6976 14.4589 30.9209 14.721 29.7527C13.7211 29.8724 12.6693 29.7818 11.7859 30.4096C11.6726 30.4905 11.6144 30.649 11.5303 30.772C10.4203 29.2511 9.31354 31.1021 8.00941 30.8011C9.98988 28.6589 12.6111 29.5456 14.899 28.9889C14.5495 28.5974 14.1676 28.8207 13.8473 28.743C14.6304 27.8498 16.0413 27.5942 17.4167 28.099C17.5785 28.4032 18.2322 28.6621 17.4781 29.0504C17.1351 29.2284 16.517 29.5132 17.0898 29.9209C17.4426 30.1701 18.1157 30.0083 18.5493 29.62C18.5881 29.5876 18.5978 29.5261 18.627 29.4808C18.9053 29.0407 18.4037 28.0117 19.2062 28.154C19.7078 28.2414 20.4877 28.8369 20.5945 29.6718C20.5977 29.7818 20.6039 29.8945 20.6071 30.0045C19.1509 30.5935 17.6982 31.1862 16.1125 31.3351Z" fill="#F4D04B"/>
<path d="M5.40789 20.9644C5.52439 20.7541 5.64089 20.5405 5.75739 20.3301C6.369 20.3722 7.19097 19.8738 7.40131 20.9612C7.34306 21.0291 7.27834 21.0938 7.20067 21.1456C7.29776 21.0971 7.35924 21.0065 7.43691 20.9256C8.3689 20.9159 7.35601 20.1457 7.822 19.958C8.809 19.246 9.95457 19.5502 11.0095 19.5794C11.6826 19.5988 12.2554 19.5276 12.8347 19.2493C12.9868 19.2299 13.1324 19.2525 13.2683 19.3205C13.7408 19.8836 14.1097 20.534 14.7504 20.9515C15.4235 21.3916 15.3426 21.8737 14.7666 22.3462C14.265 22.453 13.854 22.0485 13.3589 22.1035C12.3849 21.7896 11.9933 22.7701 11.2814 23.0387C11.1422 23.0905 10.9998 23.1229 10.8542 23.1423C9.78953 23.4659 8.86401 24.0548 7.95144 24.6697C7.48868 24.9804 7.0777 25.4658 6.41107 25.2037C6.0454 24.126 5.20726 23.1908 5.42084 21.9352C5.15548 21.6148 5.14901 21.2912 5.40789 20.9644Z" fill="#F5D14F"/>
<path d="M4.8158 26.4489C4.80609 26.3583 4.79315 26.2709 4.78344 26.1803C4.79638 25.9797 4.98408 25.9441 5.10381 25.847C5.67336 26.2742 6.04551 25.9117 6.40795 25.5169C6.75097 25.504 7.06487 25.3001 7.4176 25.3486C8.00657 25.4425 8.33988 25.2807 8.16513 24.6044C8.93532 23.7921 9.89643 23.2905 10.9384 22.9281L10.9449 22.9313C11.3753 23.3682 10.9514 23.8212 10.9643 24.271C11.0517 24.1998 11.0938 24.0963 11.1617 24.0186C11.5533 23.5753 11.3721 22.6077 12.2393 22.6368C13.181 22.6692 13.3817 23.7533 13.2684 24.1772C13.0063 25.1739 15.1162 25.3584 13.9448 26.381C13.3137 26.9343 12.5403 27.3356 11.9157 27.9213C11.6925 28.0119 11.4627 28.0216 11.2297 27.9634C10.2006 27.41 9.18773 27.3874 8.18779 28.0378C7.36582 28.0767 6.52768 28.287 5.74132 27.8469C5.38535 27.4133 5.06174 26.9537 4.8158 26.4489Z" fill="#F5D14F"/>
<path d="M5.4078 20.9628C5.41428 21.2864 5.42075 21.61 5.42399 21.9336C5.05507 22.2637 5.14245 22.707 5.12303 23.1245C5.10038 23.5937 5.19422 24.1374 4.47905 24.1859C3.90303 24.2248 3.57295 23.8688 3.42086 23.3866C3.14256 22.5032 2.89985 21.6035 3.1555 20.6619C3.48558 20.6683 3.81889 20.6748 4.14897 20.678C4.31401 21.1278 3.90627 21.6165 4.34637 22.1957C4.46287 21.6197 4.36255 21.0567 4.76706 20.691C4.98388 20.7816 5.19746 20.8722 5.4078 20.9628Z" fill="#FAE696"/>
<path d="M7.38457 25.5192C7.05773 25.6131 6.73089 26.0305 6.40404 25.516C6.41051 25.4124 6.41375 25.3056 6.41375 25.2021C7.65964 24.4384 8.90876 23.6844 10.1449 22.9077C10.4394 22.7232 10.6789 22.5712 10.9345 22.9304C10.132 23.6585 9.02526 23.9724 8.33274 24.8493C8.21948 25.3542 7.83762 25.4836 7.38457 25.5192Z" fill="#EAC238"/>
<path d="M5.10381 25.847C4.99702 25.957 4.89023 26.0703 4.78344 26.1803C4.06503 25.8276 3.19044 26.0222 2.50763 25.5368C3.50111 24.5627 4.28185 25.3907 5.10381 25.847Z" fill="#EDC43B"/>
<path d="M5.75417 27.4256C6.55348 28.1052 7.49841 27.6554 8.37215 27.7622C9.3365 27.102 10.2944 27.7072 11.2555 27.7751C11.4755 27.7751 11.6956 27.7751 11.9124 27.7751C13.2716 27.0438 14.7602 27.1927 16.2132 27.1829C16.7212 27.1797 17.2325 27.4289 17.7373 27.1344C18.6273 27.0244 19.4007 26.4354 20.3294 26.4807C20.3812 27.1506 20.0867 27.403 19.4039 27.4904C18.7243 27.5777 18.0771 27.8884 17.4137 28.102C16.2164 28.28 14.9867 28.2735 13.8443 28.746C11.1293 28.8366 8.42069 28.6748 5.71858 28.458C5.15874 28.801 4.73481 28.7039 4.4824 28.0696C3.72839 27.8625 2.97115 27.6554 2.21715 27.4483C2.08447 27.3253 2.01004 27.1732 1.98739 26.992C2.05858 26.4516 2.28834 26.1733 2.85789 26.4775C3.16855 26.5972 3.47921 26.7137 3.78988 26.8334C4.52447 26.7655 5.22669 26.814 5.75417 27.4256Z" fill="#E3BD3B"/>
<path d="M5.75404 27.4272C5.09388 27.2492 4.369 27.2848 3.78975 26.8317C4.02922 26.4305 4.44667 26.5081 4.81235 26.4499C5.36895 26.5437 5.80906 26.7508 5.75404 27.4272Z" fill="#FCF4C9"/>
<path d="M2.8574 26.4756C2.42701 26.495 2.20695 26.7248 2.18106 27.1487C1.85422 27.2814 1.70213 27.0775 1.56945 26.8316C1.56945 26.495 1.56945 26.1617 1.56945 25.8251C1.99984 26.0452 2.43024 26.262 2.8574 26.4756Z" fill="#F7D353"/>
<path d="M12.873 19.3838C12.5946 19.9048 12.1125 20.3287 11.585 20.1054C10.3812 19.5942 9.20648 20.1637 8.02855 20.0148C7.28749 20.4452 6.5432 19.9954 5.7989 20.0181C5.89275 19.6912 5.98983 19.3676 6.08368 19.0408C6.2293 18.9016 6.39757 18.8045 6.5885 18.7463C8.18389 18.9534 9.78574 18.9081 11.3908 18.9275C11.9215 18.9372 12.4749 18.9146 12.873 19.3838Z" fill="#F7DA66"/>
<path d="M5.79852 20.0219C6.53958 19.4103 7.28388 19.886 8.02818 20.0187C7.80489 20.7015 8.6851 21.0381 8.63979 21.7597C7.90844 21.8827 7.88255 21.0445 7.38743 20.983L7.3842 20.9798C7.05088 20.6077 6.72404 20.3358 6.18362 20.6886C5.79852 20.941 5.80176 20.5656 5.75645 20.3261C5.75645 20.2258 5.7694 20.1222 5.79852 20.0219Z" fill="#F1CA3E"/>
<path d="M4.76942 20.6922C4.76942 21.43 4.76942 22.1679 4.76942 22.9283C3.41998 22.2261 3.29378 21.731 4.15133 20.6793C4.35844 20.6857 4.56555 20.689 4.76942 20.6922Z" fill="#F9DC79"/>
<path d="M6.39718 19.0521C6.29363 19.0488 6.18684 19.0488 6.08328 19.0456C5.75967 18.5796 4.95066 18.7544 4.79209 18.0683L4.78562 18.078C5.42312 17.6055 5.96355 17.845 6.47161 18.311C6.60429 18.5731 6.60105 18.8223 6.39718 19.0521Z" fill="#E9CD76"/>
<path d="M3.47191 19.3253C3.85053 19.5616 4.23239 19.801 4.75987 20.1311C3.7308 20.1699 3.7308 20.1699 3.46867 19.335C3.46867 19.3383 3.47191 19.3253 3.47191 19.3253Z" fill="#F9F0D0"/>
<path d="M6.43363 18.4263C5.8835 18.3098 5.33661 18.1933 4.78647 18.08C4.78 17.9797 4.77029 17.8761 4.76058 17.7758C4.99358 17.3842 5.43369 17.5946 5.74435 17.436C5.80907 17.3648 5.89968 17.3131 5.96117 17.2354C5.87703 17.3033 5.79613 17.3713 5.70875 17.449C5.18775 17.491 5.14568 17.1157 5.08743 16.7532C5.41104 16.4328 5.73788 16.1125 6.06148 15.7921C6.21034 15.5365 6.68281 15.462 6.56955 15.0899C6.45629 14.7177 6.03883 14.8925 5.76053 14.8083C5.98058 14.7048 6.20064 14.6012 6.42069 14.4977C6.70546 14.3132 7.01289 14.1967 7.3462 14.1385C7.76689 14.1029 8.17787 14.1288 8.56297 14.3294C8.70859 14.42 8.79273 14.5527 8.82185 14.721C8.66652 16.2096 7.75395 17.3001 6.8705 18.4068C6.72812 18.4942 6.58249 18.5039 6.43363 18.4263Z" fill="#F9EAB1"/>
<path d="M5.75414 17.4406C5.51467 17.8225 5.1134 17.7319 4.76067 17.7739C4.24613 17.2303 4.75096 17.0199 5.09075 16.7546C5.3108 16.9811 5.53085 17.2108 5.7509 17.4374L5.75414 17.4406Z" fill="#FAF0CB"/>
<path d="M1.56917 26.8352C1.77304 26.9419 1.97691 27.0455 2.18078 27.1523C2.19049 27.2526 2.20344 27.3497 2.21314 27.45C1.62094 28.1069 2.18402 29.0972 1.55298 29.7444C1.42678 29.6344 1.30057 29.5243 1.17436 29.4143C1.28763 28.5503 1.03521 27.6312 1.56917 26.8352Z" fill="#F7DE81"/>
<path d="M7.38472 14.4938C7.06435 14.497 6.74074 14.497 6.42037 14.5003C7.82159 13.3223 8.87978 11.9729 8.67914 9.99241C8.88949 9.99241 9.09983 9.98917 9.31018 9.98917C10.1127 10.7399 10.0124 11.4939 9.31665 12.2479C8.12578 14.0116 10.0707 13.6686 10.6531 14.2381C10.5852 14.2931 10.5172 14.3514 10.4493 14.4096C9.44609 14.9857 8.39437 13.9566 7.38472 14.4938Z" fill="#F4F4EC"/>
<path d="M9.31976 12.2458C9.35212 11.4918 9.72427 10.7378 9.31329 9.987C10.8569 10.1488 10.8957 10.1941 10.5236 11.4303C10.2841 12.2328 11.5462 11.6342 11.3585 12.5047C10.708 12.1843 9.97992 12.8218 9.31976 12.2458Z" fill="#E3E2D7"/>
<path d="M15.1647 13.7276C13.9739 12.8474 14.5628 11.2132 13.3008 10.5692C13.1066 10.4721 13.3784 10.0935 13.6276 9.9608C13.8574 9.84106 14.3201 9.67602 14.3137 9.89931C14.2683 11.1905 15.3654 12.2584 15.1647 13.7276Z" fill="#DED8C3"/>
<path d="M13.8533 14.5078C13.7433 14.7246 13.6333 14.9414 13.5265 15.1582C13.4683 15.2165 13.41 15.2747 13.3518 15.3362C12.7013 15.6598 12.0606 15.443 11.4166 15.3103C10.8794 15.1906 10.2354 15.3232 9.9021 14.6987C9.94417 14.2197 10.4458 14.456 10.6464 14.223L10.6561 14.2392C11.7208 14.3265 12.7887 14.4171 13.8533 14.5078Z" fill="#E2BD33"/>
<path d="M8.16794 5.97522C8.3265 7.00429 9.51738 6.60625 9.29409 7.57384C9.23908 7.80684 9.0708 7.98805 8.84751 7.90068C8.21971 7.66121 7.95759 7.17904 8.16794 5.97522Z" fill="#D4AD77"/>
<path d="M11.5883 3.52418C10.8991 4.12609 10.0706 3.71187 9.31662 3.84132C9.19689 3.741 9.08039 3.63744 8.96065 3.53713C9.83763 3.53389 10.7146 3.53065 11.5883 3.52418Z" fill="#A47131"/>
<path d="M17.7365 27.1356C15.837 27.7181 13.8824 27.8184 11.9116 27.7763C12.0637 26.5434 13.4067 26.5855 14.1801 25.6664C12.1349 25.9188 13.1996 24.304 12.7724 23.563C12.6333 23.3203 12.5394 23.1552 12.3032 23.0064C11.8437 22.7183 11.9925 23.1164 11.8857 23.3105C11.5298 23.9513 11.3874 25.3201 10.6625 24.9998C9.71109 24.5791 11.0638 23.6924 10.9376 22.9352C11.3777 22.5501 11.8598 22.2038 12.2417 21.7669C12.8112 21.1197 13.1381 21.589 13.5135 21.9579C13.8306 22.0938 14.1704 22.152 14.4875 22.2815C14.7238 21.9417 15.3839 21.6958 14.5037 21.2362C13.8177 20.877 13.1769 20.3204 13.1996 19.382C13.4358 19.1101 13.7271 19.0972 14.041 19.2072C14.316 19.6603 14.7658 19.7056 15.2415 19.835C16.7269 20.2395 16.9728 21.0906 16.0473 22.343C15.9114 22.5112 16.29 22.5954 16.1056 22.4854C16.0311 22.44 16.0247 22.3915 16.0797 22.3268C16.345 22.0064 16.5683 21.4984 17.0505 21.6278C17.7333 21.8123 17.743 22.508 17.8886 23.0711C17.9178 23.207 17.9275 23.3461 17.9275 23.4821C17.9081 23.7571 18.0084 23.9675 18.2802 24.0775C18.4064 24.1519 18.4905 24.2555 18.5456 24.3882C18.5941 24.6147 18.5585 24.825 18.4355 25.0224C18.1249 25.4269 17.6848 25.5143 17.2123 25.5111C16.7204 25.4658 16.3094 25.7376 15.8823 25.8735C16.167 25.9771 16.4583 25.6017 16.7625 25.8444C16.9113 26.4139 16.4777 27.4074 17.7365 27.1356Z" fill="#F8D558"/>
<path d="M18.3813 24.8635C18.3781 24.6466 18.3748 24.4266 18.3748 24.2065C17.8474 24.0965 18.679 23.0642 17.7211 23.2487C17.6823 23.2131 17.6402 23.1775 17.6014 23.1419C17.2131 22.8086 17.6726 21.8507 16.9186 21.9316C16.3232 21.9963 16.252 22.7277 16.5562 23.692C15.9089 22.9251 15.7115 22.5432 15.951 22.0157C16.3749 21.0805 15.9542 20.4495 14.854 20.2585C14.3815 20.1744 13.8411 20.0805 14.1776 19.3621C14.6469 18.236 15.6986 18.7052 16.5076 18.5111C17.637 19.6146 17.9574 18.4787 18.446 17.8056C18.7761 17.4658 19.0835 17.0483 19.6401 17.427C19.9702 17.537 20.1935 17.7603 20.3294 18.0774C19.2227 18.236 19.4492 18.9835 19.8149 19.5466C20.7663 21.0158 20.3488 22.6662 20.42 24.2033C20.4945 25.7954 19.5107 26.2614 17.9024 25.8828C17.5464 25.7987 17.1548 25.8602 16.7827 25.8537C16.197 26.1708 15.5853 26.9248 15.0384 25.6757C15.7407 25.5139 16.4202 25.3586 17.0998 25.2C19.0706 25.4039 19.7307 24.802 19.857 23.0804C19.9055 23.7341 19.7631 24.7178 18.3813 24.8635Z" fill="#F5D14F"/>
<path d="M19.6363 17.4233C19.1897 17.4363 18.8855 17.6563 18.7043 18.0576C18.1088 18.42 17.6105 19.0705 16.7691 18.7242C15.9439 19.0899 14.9634 18.8375 14.1738 19.3553C13.8534 19.365 13.5298 19.3715 13.2094 19.3812C13.0962 19.3812 12.9862 19.3838 12.873 19.3838C10.7145 19.2835 8.53655 19.5786 6.39751 19.0511C6.40722 18.844 6.42016 18.6336 6.42987 18.4265C6.51077 18.3844 6.59491 18.3521 6.68229 18.3294C7.49778 17.7437 8.34886 18.2582 9.18053 18.2647C11.4846 18.2874 13.779 18.2809 16.0475 17.8149C16.4487 17.7372 16.8533 17.6725 17.2351 17.5172C17.9535 17.3101 18.5587 16.7632 19.358 16.7826C19.578 16.7373 19.8046 16.3975 20.0181 16.7955C19.8919 17.0059 19.7625 17.2162 19.6363 17.4233Z" fill="#DFB835"/>
<path d="M17.4357 17.7834C17.1768 18.1199 16.8046 18.0779 16.4454 18.0811C16.3257 17.7866 16.3904 17.4468 16.2286 17.1621C15.9762 16.5084 15.4067 16.6249 14.8889 16.6119C14.2579 16.3045 13.2158 16.3789 13.5427 15.1751L13.5265 15.1525C15.1737 15.3304 16.8532 15.3434 18.3774 16.133C18.8951 17.1621 17.4292 17.052 17.4357 17.7834Z" fill="#F8E28F"/>
<path d="M17.4357 17.7834C17.2221 17.3303 16.9373 16.8483 17.7917 16.7739C18.1865 16.7415 18.345 16.4988 18.3774 16.1364C18.8434 16.1428 19.1735 16.3522 19.358 16.7826C18.837 17.3489 18.1411 17.5763 17.4357 17.7834Z" fill="#F8DF7B"/>
<path d="M5.42053 52.3699C5.33316 52.6902 5.24579 53.0106 5.15841 53.3277C4.3494 53.9911 3.73131 53.4216 3.34945 52.8618C3.01937 52.3796 2.88669 51.6385 3.8025 51.3796C4.63093 51.2405 5.20372 51.5188 5.42053 52.3699Z" fill="#FAE6A4"/>
<path d="M5.42053 52.3699C5.03868 51.7841 4.36881 51.6709 3.8025 51.3796C3.81221 51.2825 3.81575 51.1848 3.80604 51.0877C4.25909 51.0068 4.78981 51.2204 5.13931 50.7382C5.54705 50.9356 5.76387 51.2495 5.74769 51.709C5.6409 51.9323 5.53056 52.153 5.42053 52.3699Z" fill="#F7DF8D"/>
<path d="M18.1127 45.2376C18.048 45.3153 18.0124 45.4059 18.0124 45.5062C17.0804 46.6809 15.7828 47.0595 14.3686 47.1987C13.7408 47.2602 13.0839 47.1469 12.4981 47.4867C12.4172 47.6356 12.3266 47.6485 12.2296 47.5029C11.4788 47.5061 10.728 47.5061 9.97725 47.5093C8.90611 47.2181 7.74436 47.4123 6.71205 46.9074C6.84797 45.914 7.59874 46.2343 8.1068 46.3541C8.932 46.545 9.24913 46.1793 9.41094 45.4803C9.73454 45.0532 10.1876 44.393 10.6536 44.9982C11.5759 46.202 12.2425 45.3865 12.8865 44.8461C13.3913 44.4221 13.799 44.3606 14.3168 44.7037C15.443 45.5839 14.5563 45.8978 13.8767 46.2667C14.5466 46.1211 15.2132 45.9657 15.8798 45.8072C16.6371 45.8201 16.951 44.8849 17.7276 44.9367C17.8312 44.9367 17.9315 44.9334 18.0351 44.9334C18.1451 44.9755 18.1936 45.037 18.1839 45.1147C18.1613 45.1923 18.1419 45.2376 18.1127 45.2376Z" fill="#8C9841"/>
<path d="M12.2258 47.499C12.3132 47.4537 12.4038 47.4472 12.4944 47.4828C12.9442 47.5217 13.394 47.5605 13.8438 47.6026C13.2743 47.8356 12.708 48.0265 12.2258 47.499Z" fill="#FBEDC2"/>
<path d="M3.17173 31.9934C3.45974 32.4529 3.38208 32.7991 3.0617 33.2781C2.32388 34.3816 2.09088 35.4916 3.18791 36.6468C3.90308 37.4008 3.37237 38.4882 3.4921 39.4201C2.99375 39.3166 2.23327 38.527 2.31417 39.9282C2.32712 40.1774 1.82553 40.4525 1.5634 40.7178C1.26892 38.1322 1.38542 35.5466 1.56017 32.9609C1.84494 32.2199 2.0747 31.3785 3.17173 31.9934Z" fill="#F9E8B5"/>
<path d="M9.65317 45.6029C9.95089 46.8261 9.34574 47.072 8.31667 46.8067C7.76007 46.6643 7.20994 46.2889 6.70511 46.9038C6.24559 46.9038 5.77636 46.9361 5.40421 46.5834C5.3945 46.3342 5.45275 46.0915 5.47217 45.8488C5.44628 45.4961 5.17768 45.3084 4.95763 45.0851C4.79906 44.9265 4.66962 44.7518 4.57901 44.5447C4.524 44.3958 4.49164 44.2469 4.47869 44.0884C4.49811 43.4994 4.6405 42.9946 5.33949 42.8975C5.73429 43.7259 6.47211 43.3667 7.09667 43.3991C7.22935 43.4412 7.34909 43.5091 7.45264 43.5997C7.63386 44.1078 8.2293 44.0366 8.53673 44.3764C8.7406 44.9395 9.28749 45.1886 9.65317 45.6029Z" fill="#97AA43"/>
<path d="M3.17442 42.0137C3.47861 42.5153 3.52715 43.0655 3.50126 43.6318C3.76015 44.8906 3.06116 45.8711 2.55957 46.9131C2.47219 47.0976 2.42365 47.3986 2.18418 47.2206C2.00943 47.0911 1.98355 46.7675 1.8897 46.5281C2.22301 45.6349 1.59522 44.6932 2.02885 43.8033C2.09034 43.7418 2.15182 43.6836 2.21007 43.6221C2.86376 43.2855 2.09681 42.0979 3.17442 42.0137Z" fill="#FAE7B2"/>
<path d="M1.55695 32.9606C1.55695 35.5462 1.56018 38.1318 1.56018 40.7174C1.5796 40.9278 1.58284 41.164 1.87408 41.164C2.22358 41.164 2.59896 41.1511 2.30448 41.6494C2.14268 41.9245 1.85467 41.8274 1.60549 41.6785C1.28512 41.4844 1.23658 41.1802 1.23981 40.8533C1.24629 38.4036 1.24305 35.9507 1.26894 33.501C1.26894 33.3165 1.45663 33.1386 1.55695 32.9606Z" fill="#F9EDC4"/>
<path d="M5.76336 45.8978C5.76336 46.189 5.69217 46.4414 5.4074 46.5838C4.65339 46.4414 4.44628 45.7619 4.08708 45.2344C4.01589 45.0985 4.02236 44.9658 4.09355 44.8331C4.28448 44.6066 4.47541 44.3898 4.80549 44.6066C4.90904 44.7134 5.0126 44.8202 5.11615 44.927C4.86697 45.5612 5.76984 45.4253 5.76336 45.8978Z" fill="#8F9C45"/>
<path d="M1.8732 45.9038C1.26158 45.1498 1.50429 44.2469 1.62726 43.467C1.71787 42.8975 2.02853 43.4476 2.20975 43.6256L2.20328 43.6353C1.76317 44.344 2.30683 45.1951 1.8732 45.9038Z" fill="#FAE7B2"/>
<path d="M1.8732 45.9038C2.01559 45.153 1.57225 44.3181 2.20328 43.6353C2.06736 44.5964 2.53044 45.622 1.8897 46.5281C1.88646 46.3209 1.87967 46.1109 1.8732 45.9038Z" fill="#F1DB99"/>
<path d="M4.16854 44.9209C4.13295 45.0212 4.10382 45.1247 4.08764 45.2315C3.63459 44.7688 3.90318 44.1798 3.80934 43.6555L3.88377 43.5941C4.70249 43.8821 4.37565 44.416 4.16854 44.9209Z" fill="#F9EDC4"/>
<path d="M18.0641 53.35C17.2389 53.9487 16.4655 54.4859 15.5011 53.473C15.0805 53.0297 14.2553 53.5992 13.608 53.0167C14.7763 52.143 16.2843 52.4375 17.4234 51.7417C17.8764 52.1753 17.7049 52.8517 18.0479 53.3274L18.0641 53.35Z" fill="#F5D760"/>
<path d="M19.6687 52.0358C19.1833 52.1782 18.4261 53.4435 18.3969 51.7252C18.7044 51.5569 18.7982 51.0359 19.2577 51.1362C19.7593 51.243 19.6461 51.6831 19.6687 52.0358Z" fill="#E5BD30"/>
<path d="M18.0478 53.3238C17.5494 52.9096 17.3876 52.3627 17.4232 51.7381C17.5235 51.7284 17.6238 51.7187 17.7241 51.7025C18.284 52.1556 17.9895 52.7737 18.0478 53.3238Z" fill="#F6DF85"/>
<path d="M4.16854 44.9209C4.0747 44.4775 3.97761 44.0374 3.88377 43.5941C3.94202 41.2414 3.99338 38.8857 4.0581 36.5331C4.07428 35.9538 3.9869 35.3389 4.49497 34.8827C4.59852 34.8891 4.70207 34.8956 4.80563 34.8956C5.19396 35.491 4.9739 36.1609 5.05481 36.7984C4.93184 39.2934 4.87682 41.7884 4.79268 44.2834C4.79592 44.3902 4.79916 44.497 4.80563 44.6038C4.59205 44.7138 4.37889 44.8173 4.16854 44.9209Z" fill="#7A8C39"/>
<path d="M9.65357 45.604C8.62774 45.7626 8.23618 45.2739 8.32679 44.2967C8.21352 43.8242 7.84138 43.6915 7.42716 43.6138L7.28477 43.6559C7.01618 43.3129 6.47575 43.452 6.22658 43.0702C5.52758 41.8502 6.8835 41.7919 7.2783 41.1933C7.46275 40.7111 6.82201 40.5266 6.87703 40.0962C6.88997 39.9474 6.94175 39.8115 7.03236 39.695C7.88344 39.5914 7.5113 38.8859 7.65368 38.4329C7.77342 38.3455 7.9061 38.297 8.05172 38.2937C8.21676 38.2581 8.59538 38.6109 8.48535 38.0737C8.40445 37.6789 8.24588 37.297 8.36562 36.8861C8.68599 36.8731 9.00312 36.8634 9.32349 36.8505C9.86715 37.4718 9.80567 38.3132 10.1034 39.0219C10.1584 39.5299 9.82832 39.8891 9.61798 40.2904C9.23936 41.1868 9.32673 42.012 10.1357 42.6009C10.8089 43.0896 11.5661 42.9958 12.2521 42.5556C13.1097 42.0055 13.2909 41.2353 12.9188 40.313C12.7214 39.9085 12.3622 39.5655 12.469 39.0542C13.032 38.3714 13.6469 37.7663 14.5918 37.6627C16.0739 38.0284 16.1484 39.2872 16.3652 40.4554C16.1548 41.1091 16.0157 41.766 16.3069 42.4391C16.3749 42.6463 16.3781 42.8566 16.3199 43.0702C16.006 43.7142 14.9284 43.6947 14.9543 44.6397C14.7601 44.9018 14.5206 45.0571 14.1776 44.9956C13.8249 44.8533 13.3556 44.3581 13.2327 45.1574C13.0838 46.1218 12.1356 45.5555 11.6243 46.0959C10.8865 46.8726 10.825 45.7043 10.482 45.261C10.0743 44.7335 9.95776 45.5231 9.65357 45.604Z" fill="#F5C523"/>
<path d="M8.03794 38.4422C7.92791 38.4616 7.81465 38.4842 7.70462 38.5036C7.35836 38.6978 6.93444 38.8014 6.81794 39.2641C6.71438 39.756 6.49109 40.1864 6.1772 40.5715C6.11247 40.6945 6.04452 40.8174 5.98303 40.9404C5.67884 41.5909 5.86977 42.3772 5.4329 42.9888C4.84394 43.2348 4.76303 43.7331 4.78892 44.2833C4.0964 42.4355 4.53004 40.5262 4.53004 38.6493C4.53004 37.9632 4.25497 37.1574 4.79863 36.5102C5.04134 36.4293 5.18049 36.5264 5.2355 36.7659C5.32287 36.6623 5.20961 36.5782 5.20314 36.4843C5.17725 36.0475 4.52356 35.2384 5.75974 35.5588C6.35194 36.3614 6.39401 37.6461 7.72727 37.8014C7.9991 37.9341 8.17709 38.1121 8.03794 38.4422Z" fill="#91A343"/>
<path d="M10.0283 39.1306C9.21278 38.5481 9.31957 37.6808 9.32281 36.8459C9.32281 36.7423 9.32604 36.642 9.32928 36.5385C10.0736 36.6517 10.6011 36.3346 10.9894 35.7197C11.2191 35.6356 11.4457 35.6453 11.6722 35.7359C12.3841 36.1631 12.643 36.8427 12.7466 37.6193C12.7304 38.2503 12.6171 38.8458 12.1188 39.2988C11.3939 39.5901 10.6852 39.6775 10.0283 39.1306Z" fill="#F3CB27"/>
<path d="M11.5529 35.8914C11.3749 35.8978 11.1969 35.9011 11.0157 35.9075C10.773 36.0079 10.6435 36.4059 10.2779 36.1891C10.1193 34.7134 8.85398 35.4642 8.12586 34.8979C10.4655 34.8979 12.8052 34.8979 15.1449 34.8979C14.5398 36.2959 13.31 35.283 12.4266 35.6098C12.3845 35.7587 12.3101 35.8784 12.2001 35.9787C11.9671 36.0726 11.7535 36.037 11.5529 35.8914Z" fill="#808F3B"/>
<path d="M8.03818 38.4407C7.93462 38.2271 7.83107 38.0135 7.72752 37.8032C7.93139 37.4893 7.91197 37.0233 8.36502 36.8809C8.70481 37.5864 9.20316 38.2498 8.92163 39.1235C8.32295 39.2918 8.4168 38.554 8.03818 38.4407Z" fill="#FADA30"/>
<path d="M5.76067 35.5623C4.71542 35.873 5.91277 36.7306 5.31086 37.148C5.15877 36.9603 4.97661 36.7367 4.79863 36.5102C4.37147 35.973 4.74131 35.4361 4.8028 34.8957C5.23967 34.954 5.88688 34.7016 5.76067 35.5623Z" fill="#B0BD66"/>
<path d="M10.2779 36.1891C10.5238 36.0952 10.7697 36.0014 11.0157 35.9075C10.7633 36.9399 10.294 37.403 9.32961 36.5422C9.53996 36.1377 9.92512 36.2085 10.2779 36.1891Z" fill="#9C9B2C"/>
<path d="M12.2355 35.8651C12.2323 35.7583 12.2291 35.6515 12.2291 35.5479C13.3229 35.2729 14.449 35.4929 15.5493 35.3376C15.6561 35.3667 15.724 35.4703 15.8082 35.5059C16.6916 35.8813 17.1252 36.4994 17.41 37.8132C17.6365 38.2274 17.7725 38.661 17.6948 39.14C17.4165 39.9587 17.6786 40.813 17.5459 41.635C17.4586 42.1819 17.5136 42.8194 16.8955 43.1527C16.6139 43.2304 16.3615 43.198 16.1447 42.9844C16.1188 42.7838 16.0929 42.5832 16.067 42.3793C16.3551 41.8065 16.656 41.2337 16.0217 40.6836C15.902 39.496 15.6399 38.3892 14.4102 37.8261C13.9183 37.5414 13.6206 36.9751 13.0122 36.8521C12.5462 36.6903 12.2485 36.3893 12.2355 35.8651Z" fill="#94A73D"/>
<path d="M16.7633 42.9913C17.8668 41.9008 17.012 40.3309 17.6948 39.14C17.7013 41.0687 17.7115 43.001 17.7179 44.9297C17.307 45.509 16.8151 45.9847 16.1226 46.2145C15.8216 45.2016 17.0804 44.4314 16.553 43.3861C16.5886 43.234 16.6597 43.1046 16.7633 42.9913Z" fill="#9BAE49"/>
<path d="M17.413 37.8116C16.9082 37.2356 16.4745 36.6434 17.1735 35.8602C16.261 35.6402 15.9794 36.3295 15.5555 36.7081C15.0474 36.0868 15.782 35.9217 15.795 35.5463C15.7691 35.268 15.9244 35.0803 16.1218 34.9153C17.8499 35.0221 18.1088 35.6014 17.413 37.8116Z" fill="#99AB49"/>
<path d="M16.1188 34.9141C16.1091 35.1762 16.0476 35.4124 15.792 35.5451C14.6043 35.5451 13.4167 35.5451 12.2291 35.5451C13.051 34.6552 14.31 35.7328 15.1449 34.8979C15.4717 34.9044 15.7952 34.9108 16.1188 34.9141Z" fill="#94A842"/>
<path d="M18.1127 45.2376C18.0868 45.1341 18.0603 45.03 18.028 44.9265C18.3386 43.6191 17.905 42.2535 18.3483 40.9558C18.2933 42.3829 18.7049 43.8364 18.1127 45.2376Z" fill="#F9EBBD"/>
<path d="M4.48244 28.0672C4.89666 28.1967 5.30764 28.3261 5.72185 28.4555C5.73156 28.6562 5.74127 28.86 5.75098 29.0607L5.75421 29.0574C5.2235 29.3131 5.75745 30.5331 4.68631 30.271C4.2365 30.1609 3.6896 29.9894 3.59576 29.4684C3.47602 28.7986 3.67019 28.2064 4.48244 28.0672Z" fill="#FBECAF"/>
<path d="M5.74666 29.0634C6.28708 29.154 7.01196 28.8531 7.22231 29.6524C7.32263 30.031 6.86958 30.2317 6.62363 30.2964C5.32273 30.6362 5.93759 29.5521 5.74666 29.0634Z" fill="#F6CD3D"/>
<path d="M7.38743 20.983C7.29682 21.6173 6.91222 21.8505 6.17439 21.7988C6.41386 21.1677 6.8729 21.0348 7.38743 20.983Z" fill="#F9DF71"/>
<path d="M14.4972 22.2807C14.0733 22.4684 13.6041 22.7952 13.5232 21.9571C14.0733 21.3811 14.2545 21.9215 14.4972 22.2807Z" fill="#F9E082"/>
<path d="M9.85048 21.1084C9.72104 21.1893 9.56571 21.3122 9.38449 21.3899C9.18709 21.474 9.04794 21.3381 9.12884 21.1666C9.20974 21.0016 9.38772 20.8495 9.56247 20.7718C9.73075 20.6974 9.85048 20.8268 9.85048 21.1084Z" fill="#F9E17D"/>
<path d="M11.2555 27.7751C10.2911 28.5291 9.33327 27.4612 8.37215 27.7622C9.3365 26.6037 10.2976 26.8852 11.2555 27.7751Z" fill="#FBE180"/>
<path d="M7.38457 25.5192C7.70171 25.2959 8.01894 25.0732 8.33608 24.8499C8.57231 24.9179 9.00918 24.9923 8.80531 25.2771C8.47523 25.7366 7.97354 26.1211 7.38457 25.5192Z" fill="#F7D96C"/>
<path d="M13.5432 15.1786C13.6921 16.1041 14.5949 16.062 15.1645 16.4439C15.7017 16.4568 16.2032 16.5345 16.4298 17.1234C16.6466 17.4406 16.6331 17.7607 16.4454 18.0811C13.2126 18.9904 9.95763 18.913 6.6892 18.3272C7.33641 17.1461 7.98363 15.9682 8.63084 14.7902C9.62108 14.7384 10.6016 15.2918 11.5983 14.8485C12.197 15.2368 12.8798 15.1494 13.5432 15.1786Z" fill="#F8D967"/>
<path d="M11.5951 14.8516C10.5984 15.2043 9.60166 15.5182 8.62761 14.7933C8.6535 14.706 8.67291 14.6154 8.68909 14.5247C9.11302 14.2723 9.54341 14.2982 9.97381 14.5053C10.4172 15.0652 11.0482 14.7513 11.5951 14.8516Z" fill="#EBCA4D"/>
<path d="M9.97029 14.5035C9.54313 14.51 9.11274 14.5165 8.68557 14.523C8.25194 14.5133 7.81835 14.5035 7.38472 14.4938C8.42997 13.9016 9.55608 14.2738 10.6466 14.2188C10.4201 14.3126 10.1968 14.4065 9.97029 14.5035Z" fill="#E9E8DE"/>
<path d="M5.7509 17.4374C5.80915 17.2432 5.83191 17.023 5.93547 16.8579C6.11022 16.5764 6.39499 16.4243 6.72831 16.5473C6.82862 16.5829 6.95483 16.8514 6.91923 16.8935C6.76714 17.0844 6.58268 17.2721 6.36587 17.3789C6.19435 17.4631 5.96136 17.4275 5.75425 17.4436C5.75425 17.4404 5.7509 17.4374 5.7509 17.4374Z" fill="#F7DE8E"/>
<path d="M18.3813 24.8635C19.1871 24.2227 19.9699 23.5689 19.8146 22.3554C19.9602 23.2874 20.2838 24.2096 19.4036 24.9895C18.6722 25.6368 17.9182 25.7532 17.093 25.1966C17.5623 25.2419 17.9833 25.0932 18.3813 24.8635Z" fill="#E9C133"/>
<path d="M17.7173 23.2479C17.7982 22.9016 17.7885 22.4162 18.3127 22.5198C18.6655 22.5877 18.7205 22.9696 18.6396 23.3029C18.5684 23.6103 18.4616 23.9048 18.3678 24.209C18.2642 24.2155 18.1607 24.2187 18.0571 24.2219C17.7626 24.1054 17.562 23.9404 17.7173 23.5877C17.7205 23.4712 17.7205 23.3579 17.7173 23.2479Z" fill="#F6DF81"/>
<path d="M17.7238 23.5809C17.8371 23.7945 17.9503 24.0048 18.0636 24.2152C17.9374 24.3996 17.7432 24.5355 17.575 24.3511C17.3128 24.0728 17.4423 23.7945 17.7238 23.5809Z" fill="#F5D14F"/>
<path d="M16.7698 18.7272C17.4138 18.504 18.061 18.2807 18.705 18.0606C18.3102 18.6787 17.9154 19.2968 17.5173 19.9246C16.9251 19.6625 16.8378 19.1997 16.7698 18.7272Z" fill="#F8DB6A"/>
<path d="M18.3158 21.243C17.9922 20.7123 17.9437 20.2851 18.4259 19.6605C18.811 20.2948 18.8919 20.722 18.3158 21.243Z" fill="#F9EAA3"/>
<path d="M16.4265 17.122C16.0058 16.8955 15.5819 16.669 15.1612 16.4424C16.0834 16.0671 16.2808 16.1738 16.4265 17.122Z" fill="#FAE9AB"/>
<path d="M16.7629 43.3133C17.6075 44.5138 16.6787 45.3229 16.1221 46.216C15.1481 46.2516 14.2161 46.8341 13.2226 46.4523C13.1191 45.6724 14.964 46.2189 14.1776 44.9956C14.3912 44.8662 14.6044 44.7371 14.818 44.6077C15.2905 43.9087 15.8956 43.4103 16.7629 43.3133Z" fill="#93A545"/>
<path d="M5.43327 42.9914C5.24234 42.1953 5.32648 41.4349 5.74393 40.7229C6.21963 40.7682 6.57236 41.0012 6.82154 41.4057C6.95098 41.9979 5.20351 42.1047 6.41056 42.9785C6.68239 43.2276 7.22281 43.1306 7.2843 43.6548C6.97364 43.713 6.62414 43.7033 6.35555 43.8457C5.16467 44.4865 5.25852 43.7972 5.43327 42.9914Z" fill="#8E9A38"/>
<path d="M7.4236 43.6141C7.80545 43.517 8.05463 42.8634 8.47856 43.187C8.91219 43.517 8.46561 43.9313 8.32323 44.3002C7.99638 44.4587 7.65983 44.7726 7.30063 44.462C6.96408 44.1675 7.31034 43.8892 7.4236 43.6141Z" fill="#F2D336"/>
<path d="M5.76336 45.8978C5.40416 45.6713 4.72466 45.6587 5.11298 44.9306C5.35569 45.2348 6.30055 45.0661 5.76336 45.8978Z" fill="#A4B851"/>
<path d="M13.2032 40.0758C13.8407 41.189 13.5689 42.1242 12.5948 42.8685C11.6855 43.561 10.7049 43.6258 9.79561 42.8976C8.83126 42.1242 8.63063 41.1631 9.33932 40.0887C9.63704 39.7942 9.77296 40.613 9.9833 40.2311C10.5011 39.2829 11.1612 38.9917 11.9994 39.7522C12.9249 40.5936 12.5786 41.4543 11.857 42.2439C11.7858 42.3216 11.6822 42.3605 11.4881 42.4996C12.2744 42.1372 12.501 41.5903 12.5722 40.9204C12.6142 40.5353 12.543 40.0175 13.2032 40.0758Z" fill="#8D6B36"/>
<path d="M13.2033 40.0768C12.8376 40.3325 12.8894 40.724 12.8797 41.0962C12.8505 42.355 12.1548 42.7725 10.8086 42.601C11.6176 42.1511 12.1386 41.6399 12.2195 40.8082C12.2713 40.2613 11.8377 40.1027 11.5238 39.8309C11.129 39.4911 10.9574 39.3746 10.6824 40.0348C10.4623 40.5655 9.83129 41.1318 9.33941 40.0898C9.56917 39.7726 9.79893 39.4523 10.0287 39.1351C10.7665 39.1222 11.5011 39.1125 12.2389 39.0995C12.349 38.9927 12.4266 39.0186 12.4784 39.1578C12.7211 39.462 12.9638 39.7694 13.2033 40.0768Z" fill="#9F773C"/>
<path d="M12.4789 39.1529C12.3948 39.1562 12.3139 39.1367 12.2394 39.0947C12.1877 38.5186 12.2815 37.9685 12.5501 37.4507C12.398 36.8327 12.9093 36.7485 13.2782 36.5479C14.0646 36.6094 14.249 37.2113 14.4173 37.8261C13.8057 38.318 13.2394 38.8746 12.4789 39.1529Z" fill="#F8D230"/>
<path d="M6.44649 39.0659C6.58888 38.2569 7.03869 38.1339 7.70856 38.5028C7.84771 38.985 8.52081 39.3862 8.10012 39.9267C7.82506 40.2794 7.41407 39.8814 7.07752 39.7519C6.67949 39.6969 6.60829 39.3409 6.44649 39.0659Z" fill="#F4D22B"/>
<path d="M16.7629 43.3133C16.1772 43.8375 15.5882 44.3545 14.8181 44.6037C14.0058 43.0342 15.7242 43.539 16.1448 42.9824C16.3487 42.9856 16.5558 42.9889 16.7597 42.9921C16.7629 43.0989 16.7661 43.2065 16.7629 43.3133Z" fill="#969933"/>
<path d="M6.70777 41.3812C6.21589 41.4103 5.96995 41.0834 5.74666 40.7242C5.76931 40.6304 5.78226 40.5333 5.79196 40.4395C6.19971 40.2647 6.56215 39.9184 7.06374 40.1029C7.09934 40.6142 8.17695 40.6045 7.69801 41.3714C7.36793 41.5818 7.03785 41.6142 6.70777 41.3812Z" fill="#F4D22B"/>
<path d="M16.0277 40.6846C16.293 40.6943 16.7105 40.4192 16.7364 40.9241C16.7687 41.4936 16.9985 42.2185 16.073 42.3771C15.6426 41.8269 15.5034 41.2639 16.0277 40.6846Z" fill="#9A9B2F"/>
<path d="M6.70777 41.3812C7.03785 41.3779 7.36793 41.3747 7.69801 41.3714C7.4909 42.0834 5.88612 41.6823 6.4136 42.9799C4.92177 42.1547 6.49096 41.8925 6.70777 41.3812Z" fill="#D8BA28"/>
<path d="M7.06415 40.1019C6.64022 40.2152 6.2163 40.3252 5.79237 40.4385C6.10951 40.0275 6.54681 39.6743 6.44649 39.0659C6.65683 39.2924 6.86718 39.5222 7.07752 39.7519C7.07105 39.8684 7.06738 39.9854 7.06415 40.1019Z" fill="#B6A82E"/>
<path d="M13.278 36.5526C13.0353 36.8536 12.7926 37.1545 12.5499 37.4555C12.2166 36.9345 11.8833 36.4135 11.5532 35.8924C11.7797 35.8827 12.0095 35.873 12.2392 35.8666C12.5822 36.0996 12.7602 36.5817 13.278 36.5526Z" fill="#9C9B2C"/>
<path d="M8.16178 18.0015C10.1876 16.3867 12.7667 16.5097 15.0643 17.817C12.7861 18.0371 10.5629 17.6002 8.16178 18.0015Z" fill="#F8D455"/>
</svg>
