<svg width="42" height="58" viewBox="0 0 42 58" fill="none" xmlns="http://www.w3.org/2000/svg">
<path d="M5.82915 56.5001C5.3148 56.7488 4.80044 56.9975 4.28609 57.2501C3.64891 56.856 3.09618 57.3113 2.51657 57.4338C1.97151 57.5524 1.46868 57.4835 1.2614 56.9325C1.02342 56.3011 1.49938 56.0103 2.00606 55.884C2.60869 55.7386 2.98486 55.3789 3.26507 54.8891C3.34567 54.7973 3.40709 54.7169 3.43396 54.6634C3.37254 54.7361 3.27274 54.7743 3.11921 54.7782C2.0099 54.0396 1.08099 53.1672 0.69715 51.847C1.10019 49.4134 1.98303 47.1481 3.11537 44.967C4.40125 44.0103 5.13439 45.2463 6.07097 45.7208C4.48953 44.9134 3.54911 43.8228 4.25922 41.944C4.72368 39.5945 5.67177 37.4325 6.86169 35.3662C6.94997 35.37 7.03826 35.3777 7.12654 35.3815C8.09767 35.6609 8.97667 36.032 8.98435 37.2603C8.77707 37.7157 8.62737 38.1787 8.77323 38.6876C8.91909 39.3994 8.3203 40.5052 9.90173 40.4057C10.3508 40.3751 10.228 41.1137 9.98234 41.5231C9.68294 42.0167 9.11101 42.2387 8.86535 42.7897C9.71365 42.4912 10.4238 42.032 10.5428 41.0065C10.6617 39.9887 10.7846 39.0933 12.1434 40.0269C12.8688 40.5244 13.4062 39.6672 14.0549 39.6022C13.8592 38.7757 13.0838 38.7986 12.5157 38.5499C11.8171 38.2476 11.1262 37.9644 11.0993 37.0461C12.3353 36.7514 12.3737 35.6762 12.6194 34.7348C12.8189 34.1303 13.0262 33.5295 13.7363 33.3305C13.9129 33.3076 14.0895 33.3267 14.2584 33.3764C14.6883 33.6558 15.1566 33.893 15.4943 34.2833C15.4982 34.3331 15.5212 34.3981 15.5174 34.4593C15.5135 34.5206 15.4867 34.578 15.4675 34.6392C16.2697 33.9083 17.3521 34.7119 18.1889 34.1456C18.6342 33.9236 19.0372 34.0843 19.4748 34.203C20.9027 34.5894 20.6878 36.1774 21.5706 36.9619C22.488 37.7731 23.4322 38.5882 22.4534 40.0078C22.1464 40.4517 22.7413 40.9338 22.7068 41.458C22.6684 42.0091 22.4765 42.4491 22.0274 42.7514C21.4631 43.1264 21.0793 42.8662 20.7952 42.3458C20.4843 41.5078 20.7837 40.6889 20.8797 39.8739C20.8605 39.7476 20.7799 39.6634 20.6494 39.629C20.7991 39.6443 20.8682 39.7285 20.8605 39.893C20.5304 40.6927 20.3193 41.4887 20.7799 42.3037C21.275 43.1838 20.3116 43.8267 20.3922 44.6417C17.3099 48.1162 13.863 51.1851 10.0706 53.8636C9.29526 53.9363 8.52373 54.2157 7.75221 53.8445C7.42594 53.6417 7.16492 53.4044 7.29159 52.9682C7.55645 52.5396 7.95564 52.356 8.44313 52.3215C8.59282 52.2182 8.98435 52.4019 8.89606 52.2794C8.36636 51.5601 7.54493 51.1774 6.8233 50.6761C6.17077 50.2208 5.3455 49.8879 5.33783 48.8891C5.44146 48.5486 6.07865 48.342 5.78692 47.9708C5.39924 47.4733 5.01924 47.9249 4.68913 48.2157C4.17478 48.3458 3.64123 48.4606 4.0673 49.1914C4.02892 49.5435 3.89457 49.8611 3.73336 50.1672C3.54143 50.7144 2.90042 50.8904 2.66243 51.4146C3.23436 52.1723 3.92528 51.5907 4.55095 51.6098C4.72751 51.6213 4.89257 51.6672 5.04994 51.7437C5.83682 52.731 6.80411 53.5001 7.94029 54.0626C8.04777 55.7463 6.60835 55.643 5.62955 56.1136C5.3148 56.259 5.85985 56.3088 5.82915 56.5001Z" fill="#F3923A"/>
<path d="M6.86169 35.37C8.88455 30.4147 11.2183 25.6124 13.9398 20.9938C15.4253 18.4721 16.642 15.7783 19.0142 13.8841C19.874 13.1954 20.7453 12.5755 21.8853 12.476C23.1674 12.1928 24.4456 12.2732 25.9004 12.4607C25.1327 13.7158 23.9735 13.2949 23.0292 13.4747C22.6607 13.7693 21.6973 13.5015 22.0658 14.5002C22.0581 15.0206 21.6128 15.4224 21.7011 15.9543C21.2443 16.5206 22.2884 16.6966 22.0427 17.217C21.6512 17.8599 21.4132 18.7706 20.3231 18.2272C20.1696 18.0971 20.089 17.8637 19.8318 17.879C19.7051 17.9517 19.5746 18.0053 19.4403 18.055C19.2291 18.1469 19.0449 18.277 18.8491 18.3879C18.6956 18.4071 18.5421 18.3918 18.4 18.3459C18.2312 18.3344 18.0815 18.3573 18.0392 18.564C18.2196 18.4989 18.3924 18.4147 18.5996 18.4607C19.4786 18.9237 18.9835 19.49 18.7033 20.0104C18.4192 20.5346 17.8511 20.9747 18.3002 21.6711C18.3732 21.9045 18.3847 22.1379 18.3156 22.3675C18.5382 22.9071 19.1716 22.8879 19.4863 23.4964C19.7358 22.578 18.899 22.6201 18.7992 22.1609C18.6419 21.6367 18.9835 21.3229 19.2944 20.9976C19.6936 20.6456 19.9776 20.1558 20.5074 19.9492C21.5399 19.8688 22.1886 20.4964 22.8066 21.1813C22.9141 21.3879 23.01 21.8318 23.1482 21.7668C24.7719 21.0168 25.4167 22.0576 26.004 23.2515C26.1422 23.8293 25.9234 24.3267 25.6624 24.8165C24.1424 26.8752 24.1424 26.8752 21.8393 24.7706C21.8124 25.9951 21.2136 26.6877 20.0314 26.8407C19.3098 26.7795 18.8875 26.2591 18.4998 25.8726C18.8338 26.768 20.2617 26.6762 20.5189 27.8012C20.0544 28.6048 19.4479 28.4593 18.7378 28.1341C17.8281 27.717 17.1641 27.0014 16.5538 26.4887C17.237 27.7132 19.0526 27.8548 19.8126 29.2553C19.2675 30.1239 19.6245 32.1252 17.5364 31.0614C17.3867 31.6239 17.4519 32.2667 16.8877 32.6647C15.836 33.3764 14.9992 33.2081 14.5347 31.9951C14.3198 31.4287 13.8323 31.1417 13.5214 30.7247C13.5406 30.7438 13.5022 30.7247 13.5022 30.7247C13.5022 30.7247 13.6097 30.8433 13.625 30.8548C14.0933 31.4211 14.884 31.9874 13.4984 32.393C13.1529 32.4963 13.2143 32.9019 13.1452 33.1928C13.0684 33.5333 12.9648 33.8547 12.6078 34.0078C12.4505 33.9581 12.2931 33.893 12.1472 33.8165C12.2432 33.8968 12.3699 33.9236 12.4735 34.0116C12.627 34.2336 12.6462 34.4708 12.6002 34.7157C11.9284 35.4848 11.6175 36.6519 10.3316 36.7361C9.18011 36.4721 8.44313 35.129 7.05361 35.4848C6.98452 35.4504 6.9231 35.4121 6.86169 35.37Z" fill="#F3923A"/>
<path d="M20.0275 26.6532C20.9948 26.1367 21.8777 25.5665 21.3057 24.2425C22.8104 24.2349 23.7086 27.5104 25.3975 24.7438C26.1998 24.2004 26.3878 25.115 26.8676 25.3446C27.3551 25.578 27.9578 26.064 28.1305 25.0117C28.5259 24.6367 28.9442 24.365 29.5047 24.6405C29.5546 24.6902 29.6275 24.7285 29.6735 24.7974C29.5891 24.7017 29.5085 24.606 29.4241 24.4951C29.1784 23.7872 29.4356 23.2285 29.9154 22.7349C30.1764 22.5933 30.4489 22.578 30.7214 22.6966C31.7194 24.3037 31.5314 26.0563 31.3701 27.8088C31.2703 28.9109 30.8903 29.5882 29.6313 29.0333C29.1784 29.0295 29.1784 29.0295 29.0556 30.0895C29.0057 30.3497 28.8675 30.5601 28.664 30.7285C28.4107 30.9313 28.1612 31.1379 28.0844 31.4708C28.046 31.7808 28.2149 31.9874 28.4337 32.1787C28.545 32.2859 28.6257 32.416 28.6794 32.5614C28.7293 32.8063 28.6871 33.0397 28.5681 33.2578C28.3147 33.5869 28.0269 33.8892 27.762 34.2106C27.0519 34.666 27.0634 35.8369 25.9579 35.9402C25.4935 35.9823 25.5703 36.518 25.5933 36.8739C25.624 37.3675 25.9387 37.444 26.384 37.3598C26.741 37.291 27.1747 37.2259 26.9943 37.8573C25.0751 40.3866 22.8872 42.6557 20.3922 44.6302C19.851 43.7463 20.611 43.0958 20.7952 42.342C21.4286 42.6902 22.1041 42.8203 22.25 41.921C22.4266 40.842 21.5245 39.6672 22.5187 38.6341C20.5457 37.7042 20.9219 34.3866 18.1045 34.3139C15.9895 34.0996 15.9895 34.0996 16.5729 32.4007C17.2485 31.9147 17.095 31.2336 16.8224 30.453C17.9049 30.7591 19.3059 31.9989 19.0257 29.6226C19.018 29.5537 19.4287 29.4351 19.6475 29.3395C20.0084 29.1405 20.2617 29.3509 20.5189 29.5537C20.6839 29.6532 20.7837 30.0856 21.0639 29.6532C21.2175 29.3586 20.9872 29.0716 21.0678 28.7846C21.3019 27.7859 20.2732 27.4071 20.0275 26.6532Z" fill="#F28F38"/>
<path d="M28.4644 33.1736C28.4683 32.9134 28.4683 32.657 28.4721 32.3968C28.5604 32.3165 28.641 32.2285 28.7178 32.1366C28.6372 32.2246 28.5566 32.3127 28.4721 32.393C28.0768 32.2744 27.1555 32.657 27.7236 31.6162C28.0192 31.2642 28.0998 30.7706 28.4836 30.4798C28.6065 30.3535 28.7293 30.231 28.856 30.1048C28.9135 29.5767 29.0594 29.1099 29.6544 28.9568C30.8481 28.7119 30.5257 27.6826 30.8788 27.0091C31.7194 25.3981 30.0075 24.1851 30.7752 22.8305C31.6926 22.842 32.7098 22.2948 33.4544 23.2744C33.9764 22.9377 33.4045 22.6813 33.393 22.3905C33.0475 21.7668 32.9861 21.0703 32.8518 20.393C32.6215 19.226 33.0667 18.5908 34.2989 18.5869C35.6884 20.7451 35.5886 22.9645 34.4639 25.1647C34.2144 25.6545 34.3756 26.1558 34.1492 26.6035C34.0187 26.8101 33.5389 26.2094 33.5926 26.8369C33.631 27.3037 33.7615 27.7744 33.4813 28.2145C32.798 29.8637 31.873 31.3675 30.8328 32.8101C29.8156 32.5537 30.2224 32.0869 30.5986 31.6583C29.7081 32.0448 30.1418 33.9121 28.5259 33.6519C28.4222 33.5563 28.38 33.453 28.3953 33.3458C28.4107 33.231 28.4337 33.1736 28.4644 33.1736Z" fill="#F28C35"/>
<path d="M28.5412 13.0385C29.5277 10.6813 28.2226 8.6265 27.5624 6.52956C27.2361 5.49258 27.6315 4.43263 27.1786 3.44921C27.121 3.32677 27.3206 2.94411 27.3513 2.95177C29.474 3.32294 28.522 1.51682 28.9711 0.709426C29.1937 0.307641 29.5469 -0.0635315 30.0228 0.00917236C30.7675 0.123968 30.6946 0.820395 30.8059 1.35993C30.921 1.80381 31.3586 1.93391 31.6427 2.21325C31.7501 2.6686 31.5697 3.06274 31.374 3.45304C30.6101 4.56273 30.0267 5.67625 31.2703 6.84716C30.8443 7.91094 30.3606 8.9594 30.3453 10.138C30.0766 10.9989 30.0382 11.8676 30.2915 12.74C30.3645 12.9926 30.4067 13.2528 30.4412 13.513C30.4336 14.129 30.9518 14.6227 30.8558 15.2617C30.4681 15.8701 29.9115 16.1686 29.1899 16.1456C28.8867 16.0653 28.6871 15.8701 28.5604 15.5908C28.3608 14.7413 28.2226 13.8918 28.5412 13.0385Z" fill="#93B748"/>
<path d="M29.2436 15.9428C29.758 15.7017 30.2723 15.4645 30.7867 15.2234C31.1283 14.8561 31.4738 14.8599 31.8192 15.2196C32.1263 15.564 32.4372 15.9084 32.7443 16.2528C32.5639 17.1099 32.9439 17.5002 33.7922 17.5002C33.9611 17.8637 34.1261 18.2272 34.295 18.5908C32.2299 19.689 33.654 21.1698 33.8613 22.5168C34.0916 22.9645 34.1722 23.3854 33.6579 23.703C33.1128 23.1826 32.7213 22.5168 32.1225 22.0461C31.7271 21.5372 31.2819 21.8433 30.8443 21.9772C29.1592 21.7553 27.5586 21.3535 26.3994 19.9798C26.7333 18.7553 28.2226 18.8892 28.8099 17.9517C29.1899 17.8293 29.5661 17.8943 29.9192 17.9938C28.6103 17.4543 26.9751 17.416 26.3648 15.7477C26.4493 14.9096 26.9175 15.1316 27.4319 15.342C28.0192 15.5755 28.4222 16.3982 29.2436 15.9428Z" fill="#F3943E"/>
<path d="M30.0075 13.6507C29.9921 13.3523 29.9729 13.0538 29.9576 12.7591C29.6889 12.2081 30.1188 11.6839 30.0152 11.1405C30.1956 9.36502 31.4124 7.89563 31.5275 6.10099C31.6887 5.37395 31.9344 4.6737 32.2607 4.00023C32.7481 3.20432 33.297 2.47728 34.2643 2.20942L34.2413 2.21707C34.9053 1.76172 35.3851 1.94922 35.7306 2.63034C35.4849 3.62906 35.2355 4.62396 34.9898 5.62268C34.794 6.19283 34.9783 6.85099 34.6021 7.3867C33.8267 8.84843 33.1896 10.3829 32.2952 11.7834C31.9459 12.2426 31.7118 12.7668 31.4776 13.2872C31.0976 13.8459 30.5871 13.8918 30.0075 13.6507Z" fill="#89AC42"/>
<path d="M28.5412 13.0385C28.879 13.8497 28.7792 14.7107 28.8291 15.5563C28.2111 16.0653 27.8426 15.4147 27.3666 15.2464C26.9252 15.0895 26.3878 14.7719 26.3379 15.6482C26.384 15.9007 26.4685 16.1533 26.3802 16.4096C26.1422 16.8535 25.8159 16.8114 25.4321 16.6124C25.3323 16.5589 25.244 16.2795 25.0981 16.4938C24.5185 17.3395 24.5262 17.3471 23.7163 16.888C23.3555 16.7464 22.987 16.7311 22.6108 16.8382C22.0734 16.7655 21.9045 16.2566 21.5629 15.9543C19.97 15.0206 22.25 15.0474 21.9429 14.4352C22.0773 14.0449 22.4918 13.7464 22.3268 13.2604C23.2211 12.4492 24.411 13.1954 25.3707 12.476C24.2076 12.476 23.0446 12.476 21.8815 12.476C24.2038 11.4849 26.3802 12.1852 28.5412 13.0385Z" fill="#F3943E"/>
<path d="M28.499 33.5333C29.6774 33.3879 29.4279 31.9147 30.4873 31.5167C31.0132 31.7846 30.0152 32.6264 30.8251 32.8063C29.6582 34.5741 28.4913 36.342 26.9905 37.8573C25.1634 38.0984 24.6644 37.5129 25.1442 35.6838C25.1902 35.5155 25.2593 35.3547 25.3169 35.1902C26.6719 35.8178 26.6719 33.9925 27.6353 33.916C27.9693 33.8854 28.1957 33.6213 28.499 33.5333Z" fill="#F39441"/>
<path d="M0.69715 51.847C1.72201 52.6736 2.34 53.921 3.5376 54.5715L3.53376 54.56C3.41477 55.4057 3.837 56.6876 2.13657 56.2361C1.77959 56.1404 1.42645 56.3662 1.46868 56.6991C1.52625 57.1468 1.91777 57.231 2.34768 57.0856C3.01173 56.8598 3.6873 56.6455 4.28609 57.2463C3.17678 57.671 2.02909 58.5052 0.881395 57.583C-0.266299 56.6608 -0.062862 55.3024 0.221183 54.0396C0.382397 53.3126 0.186637 52.5014 0.69715 51.847Z" fill="#F39036"/>
<path d="M41.1351 8.28976C41.5957 8.73747 41.8184 9.29614 41.3232 9.77828C39.9414 11.129 38.7131 12.7438 36.5213 12.8395C34.8094 12.3688 35.9648 11.5576 36.2795 10.8459C36.3332 10.6928 36.4139 10.5551 36.5098 10.4288C36.9013 10.1074 37.0126 9.66731 37.0126 9.18517C37.1009 8.8293 37.266 8.55762 37.6921 8.5691C38.2947 8.89053 38.8513 8.79869 39.4194 8.439C39.9491 8.10226 40.5287 7.93007 41.1351 8.28976Z" fill="#92B74E"/>
<path d="M37.6268 8.66093C37.3389 8.86374 37.3005 9.16604 37.2929 9.48364C37.1163 9.97343 36.6403 10.1495 36.2757 10.4479C35.8841 10.8612 35.4888 11.2706 35.0243 11.6035C34.5023 11.8561 34.0762 12.4033 33.3853 12.1392C33.2855 11.9862 33.2318 11.8178 33.2164 11.638C33.2548 11.0908 33.393 10.5742 33.7576 10.1418C35.7306 9.65583 35.673 7.79997 36.2987 6.40329C36.3831 5.87523 36.4561 5.33952 36.5559 4.81528C36.7171 3.97345 37.4464 3.70559 37.8801 4.24513C38.809 5.39691 39.0509 4.27574 39.5422 3.9237C39.807 4.07676 39.8953 4.32931 39.9222 4.61248C39.8953 5.51554 39.2121 6.02446 38.6747 6.60992C38.1949 7.13033 37.7343 7.6316 38.168 8.39691C38.0682 8.64946 37.9684 8.89818 37.6268 8.66093Z" fill="#93B542"/>
<path d="M33.4122 11.6227C33.4429 11.8102 33.4698 11.9938 33.5005 12.1813C33.7692 12.2579 33.9573 12.4109 33.9726 12.7132C33.9534 13.4211 33.0514 13.6813 33.1013 14.4237C32.6752 14.6877 32.2453 14.9556 31.8192 15.2196C31.4738 15.2196 31.1322 15.2234 30.7867 15.2234C30.4067 14.7566 29.8348 14.3892 30.0075 13.6507C30.3837 13.5474 30.7598 13.4441 31.136 13.3408C31.4507 12.9696 31.7962 12.6329 32.1263 12.277C32.5025 11.9594 32.8403 11.5614 33.4122 11.6227Z" fill="#93B44E"/>
<path d="M33.1013 14.4237C32.6829 14.3663 32.3489 14.2591 32.7673 13.7732C33.1281 13.3599 33.489 12.9466 33.8498 12.5334C34.0724 11.7719 34.9783 11.7757 35.3583 11.1903C35.6961 10.9033 36.0185 10.5474 36.4983 10.953C36.8937 11.5767 35.1702 12.2234 36.5175 12.8395C35.5041 13.6354 34.3526 14.1367 33.1013 14.4237Z" fill="#85AB43"/>
<path d="M7.74453 53.8215C8.52373 53.481 9.2991 53.2973 10.0629 53.856C8.88071 55.1034 7.42978 55.9261 5.82531 56.5001C5.25338 56.5154 4.716 56.4389 4.15559 55.907C5.57965 55.4708 7.49887 55.9644 7.74453 53.8215Z" fill="#F28B31"/>
<path d="M4.25922 41.944C4.10569 44.1902 5.82915 45.2195 7.63321 46.5052C6.53542 46.7654 6.16693 46.1914 5.68329 45.9274C4.94247 45.5218 4.30912 44.4772 3.29961 45.4874C3.2382 45.3152 3.17678 45.143 3.11537 44.9708C3.49154 43.9606 3.31881 42.7438 4.25922 41.944Z" fill="#F1872B"/>
<path d="M39.6305 4.91094C39.5998 4.58186 39.5691 4.24896 39.5383 3.91988C39.8838 3.30381 40.4749 3.08569 41.1236 2.99003C41.5382 2.92881 42.137 3.27702 41.9719 3.46835C41.1121 4.45942 42.3788 6.35354 40.498 6.84716C39.404 6.84716 40.2293 6.04742 39.999 5.6839C39.9107 5.40839 39.8147 5.14054 39.6305 4.91094Z" fill="#8EB83F"/>
<path d="M36.291 6.39946C36.6518 8.61502 35.5233 10.3523 33.8267 10.1954C33.5657 9.33823 34.1377 8.68772 34.3872 7.95686C34.487 7.81145 34.6059 7.68135 34.7441 7.57038C35.1587 7.23364 35.6423 7.03849 36.1413 6.87395C36.1951 6.71706 36.2411 6.56018 36.291 6.39946Z" fill="#A1C354"/>
<path d="M39.9606 7.49002C39.6957 7.60482 39.427 7.71961 39.1622 7.83823C38.8129 7.66221 38.1565 7.63925 38.4636 7.03466C38.8397 6.29615 39.2773 5.50023 40.3444 5.59972C41.0085 5.94028 39.6689 6.52574 40.498 6.84334C40.3175 7.06145 40.1371 7.27573 39.9606 7.49002Z" fill="#A2C157"/>
<path d="M33.4736 28.2145C33.6118 27.2578 32.6176 26.3509 33.3277 25.3331C34.1684 25.4211 33.6156 26.3624 34.1453 26.6073C33.9189 27.143 33.6962 27.6787 33.4736 28.2145Z" fill="#F6A75D"/>
<path d="M33.7922 17.5002C33.4045 17.7834 33.1435 18.5295 32.4948 17.7987C31.9229 17.1558 32.3221 16.7158 32.7443 16.2566C33.2471 16.5397 33.6271 16.93 33.7922 17.5002Z" fill="#F5A259"/>
<path d="M34.9975 7.90711C35.0819 7.42497 34.748 6.84334 35.3314 6.47599C35.6039 6.60992 35.8765 6.74002 36.1452 6.87395C35.7613 7.21834 35.3775 7.56272 34.9975 7.90711Z" fill="#89AC42"/>
<path d="M31.113 1.42498C31.2204 1.68136 31.3318 1.93774 31.4392 2.19029C31.1398 2.20177 30.8404 2.21325 30.541 2.22473C30.6293 1.93391 30.7176 1.64692 30.8059 1.35611C30.9095 1.36759 31.0132 1.38672 31.113 1.42498Z" fill="#AAC764"/>
<path d="M14.6537 40.0461C14.0549 39.9887 13.5291 40.1991 13.0224 40.4785C12.581 40.7234 12.082 41.393 11.8555 40.2833C11.8056 40.0308 11.5676 39.8356 11.2836 39.9313C10.9343 40.0461 10.7347 40.4249 10.8767 40.6889C11.7634 42.3381 9.78658 42.4797 9.40274 43.4708C9.20314 43.9912 8.70414 43.7119 8.38171 43.2718C8.03625 42.7935 7.81362 42.4453 8.54293 42.1277C9.16859 41.856 9.78274 41.5269 9.93628 40.7425C9.10718 40.2374 8.92677 41.458 8.12837 41.2093C8.25504 40.333 8.38171 39.4262 8.51222 38.5231C8.63889 38.3892 8.78859 38.2973 8.96899 38.2514C9.61769 38.592 9.98234 38.4007 10.0668 37.6736C11.2874 38.6723 13.0493 38.3203 14.266 39.3458C14.504 39.5448 14.8034 39.6558 14.6537 40.0461Z" fill="#F28C33"/>
<path d="M14.6537 40.0461C13.3947 38.7336 11.2452 39.1889 10.0438 37.754C9.62537 38.1404 9.29142 37.9376 8.98051 37.6009C8.95364 37.5244 8.92677 37.444 8.89606 37.3637C8.68111 36.342 7.64089 36.1315 7.04209 35.4848C8.72333 34.1762 9.32981 36.143 10.4353 36.5869C10.8575 36.4032 11.0533 36.6405 11.1838 36.9925C11.9092 38.4963 13.744 38.1481 14.7996 39.1468C15.36 39.6711 15.5097 39.8739 14.6537 40.0461Z" fill="#F08325"/>
<path d="M16.5729 32.3968C16.3542 33.6137 17.0182 34.1303 18.1045 34.3101C18.2542 34.754 18.7378 35.1672 18.1736 35.7183C17.5594 35.4581 17.5364 34.1494 16.5384 34.6162C15.8782 34.9262 15.3293 35.481 14.5155 35.37C14.3543 34.4976 15.3139 34.8037 15.4176 34.2986C15.1182 33.9121 14.5616 33.9275 14.2622 33.541C14.124 33.5333 13.9897 33.5295 13.8515 33.5218C13.6173 32.9785 13.0915 33.3458 12.7422 33.1698C12.7844 32.7489 12.581 31.9874 12.9226 31.9721C15.3255 31.865 12.9878 31.1915 13.0838 30.8356C12.8842 30.5792 12.9149 30.3305 13.1222 30.0971C13.8285 30.5946 14.4925 31.1035 14.8764 31.9377C15.218 32.6877 15.7707 33.1124 16.5729 32.3968Z" fill="#F49A45"/>
<path d="M8.52373 52.6697C8.13605 52.7998 7.74837 52.9261 7.36069 53.0562C6.29744 53.2629 5.74086 52.4593 5.05762 51.9083C4.92711 51.9083 4.79661 51.9044 4.66994 51.9044C4.56246 51.7973 4.45882 51.6863 4.35135 51.5792C4.10569 51.2845 3.95215 50.9363 3.74487 50.6187C3.6182 50.4236 3.5376 50.2131 3.5184 49.9797C3.53376 49.6659 3.61053 49.3828 3.9176 49.2221C4.18245 48.9848 4.52791 48.9427 4.77741 49.134C5.90592 50.0141 7.11119 50.7833 8.3203 51.5486C8.7003 51.7935 8.87687 52.2182 8.52373 52.6697Z" fill="#F49A44"/>
<path d="M19.2637 43.5014C18.5689 44.1787 17.7014 43.7578 16.9146 43.8688C16.5729 43.9185 16.1853 43.5282 15.8897 43.9759C15.6671 44.3088 15.8897 45.2386 15.0376 44.7029C14.7151 44.5001 14.4695 43.995 14.4042 43.5932C14.2737 42.8012 15.0261 43.0307 15.4329 42.8471C15.717 42.7208 15.9665 42.5218 16.2313 42.3534C16.8685 42.7552 17.2025 42.0014 17.7245 41.9631C18.5306 41.0103 18.8914 41.6723 19.2445 42.3764C18.9336 42.7552 18.853 43.1302 19.2637 43.5014Z" fill="#F28C33"/>
<path d="M8.52373 52.6697C7.47968 50.8636 5.50672 50.2973 3.91376 49.2182C3.54911 48.7437 3.18446 48.2693 2.64324 47.5613C3.50689 47.7029 4.0174 48.2272 4.65842 48.0932C5.09217 48.1621 5.3455 48.4185 5.4453 48.8394C6.24754 50.4044 8.29343 50.4963 9.17243 51.9695C9.31829 52.2144 9.76739 52.4478 9.42193 52.7386C9.26071 52.8802 8.83081 52.7042 8.52373 52.6697Z" fill="#F08223"/>
<path d="M11.1876 36.9963C10.9381 36.8624 10.6886 36.7246 10.4391 36.5907C11.3872 36.2501 11.226 34.8075 12.3699 34.6621C12.7614 34.4823 12.8919 34.819 13.0915 35.0218C12.3315 35.6532 12.8765 36.2999 13.6097 37.4325C12.4351 36.8318 11.8094 36.7667 11.1876 36.9963Z" fill="#F49A45"/>
<path d="M3.51457 49.9797C3.64891 50.106 3.77942 50.2323 3.91376 50.3585C3.87154 50.9325 4.21316 51.2539 4.66226 51.5103C4.6661 51.6404 4.66994 51.7743 4.66994 51.9044C4.25922 51.9083 4.02508 52.3445 3.72952 52.4019C2.8889 52.5703 2.04444 52.0728 1.76424 51.4529C1.39958 50.634 2.47435 50.9134 2.85052 50.6149C3.0885 50.4274 3.29577 50.194 3.51457 49.9797Z" fill="#F6A655"/>
<path d="M5.44914 48.8432C5.18813 48.5945 4.92327 48.3458 4.66226 48.0971C4.47034 47.592 4.33599 46.9759 5.11903 47.0715C5.69096 47.1404 6.56229 47.5039 6.68128 47.9134C6.9231 48.7514 5.99804 48.6825 5.44914 48.8432Z" fill="#F6A354"/>
<path d="M12.4044 41.5193C13.5214 41.768 13.6903 40.0154 14.7612 40.907C14.9186 41.041 14.5961 42.1162 14.22 42.4415C13.4024 43.1532 13.0915 42.2157 12.4044 41.5193Z" fill="#F28C33"/>
<path d="M5.05762 51.9083C5.9942 51.9504 6.61603 52.6238 7.36069 53.0562C7.48735 53.3126 7.61786 53.5652 7.74453 53.8215C6.12855 54.1927 5.50672 53.171 5.05762 51.9083Z" fill="#F28B31"/>
<path d="M20.7914 42.342C19.1524 41.4504 19.9738 40.5512 20.7876 39.6558L20.7837 39.6596C21.5092 40.5512 21.1944 41.4466 20.7914 42.342Z" fill="#F28F38"/>
<path d="M13.0915 35.0218C12.8497 34.9032 12.6117 34.7808 12.3699 34.6621C12.3699 34.4211 12.3699 34.1762 12.3699 33.9351V33.9466C12.6846 33.782 12.7345 33.4874 12.7422 33.1736C13.1375 32.9708 13.2412 32.2017 13.8553 32.4772C14.481 32.7565 13.9436 33.1698 13.8515 33.5257C13.2489 33.8471 13.1068 34.4019 13.0915 35.0218Z" fill="#FAC07B"/>
<path d="M17.7245 41.9593C17.3138 42.43 17.1756 43.9338 16.2275 42.3496C16.7534 42.3152 16.9798 41.1519 17.7245 41.9593Z" fill="#F7B06E"/>
<path d="M20.7876 39.6558C20.3615 39.6443 19.851 39.7705 19.7166 39.1698C19.6591 38.9134 19.8049 38.6264 20.112 38.6723C20.6455 38.7527 20.7607 39.1927 20.7876 39.6558Z" fill="#F7A960"/>
<path d="M8.87687 38.504C8.75404 38.504 8.63505 38.5116 8.51222 38.5154C7.89039 37.8802 8.0708 37.5129 8.8999 37.3637C9.16859 37.754 9.23384 38.1328 8.87687 38.504Z" fill="#F6A75C"/>
<path d="M14.2622 33.5448C14.8265 33.5257 15.3792 33.5218 15.4176 34.3025C14.861 34.3101 14.3083 34.3139 14.2622 33.5448Z" fill="#F7AA5E"/>
<path d="M19.2637 43.5014C18.0699 43.1455 18.5958 42.7591 19.2445 42.3764C19.2483 42.7476 19.256 43.1264 19.2637 43.5014Z" fill="#ED6F12"/>
<path d="M14.7267 47.2858C14.6499 47.194 14.5424 47.0639 14.4349 46.9338C14.5731 46.8611 14.7113 46.7463 14.8572 46.731C14.9378 46.7233 15.0875 46.8649 15.1182 46.9644C15.2065 47.2323 15.0107 47.2744 14.7267 47.2858Z" fill="#F6A454"/>
<path d="M3.5376 54.5715C3.45699 54.2616 3.00405 53.9975 3.41093 53.634C3.46467 53.5843 3.6681 53.6072 3.718 53.6685C4.02508 54.0282 3.8677 54.319 3.53376 54.5639C3.53376 54.5601 3.5376 54.5715 3.5376 54.5715Z" fill="#F9B96F"/>
<path d="M23.8621 16.7119C24.5454 16.1915 24.1615 17.6686 24.9254 17.0142C25.1327 16.5971 24.1731 16.1724 24.5799 15.4913C25.363 15.2426 25.2363 16.9147 26.1844 16.3101C27.1901 16.7923 28.3646 17.0372 28.8598 18.2272C28.3953 19.1992 27.5893 19.6622 26.5452 19.7693C26.0002 20.064 25.4397 19.8267 24.8832 19.8344C23.3555 19.5015 22.1732 18.8012 21.9429 17.0908C21.6013 16.7808 20.2886 16.7885 21.5629 15.9466C22.1656 15.8701 22.3153 16.4594 22.6953 16.7081C23.3401 16.7119 23.4629 17.4122 23.9735 17.6686C23.5973 17.3624 23.5359 17.0563 23.8621 16.7119Z" fill="#F28C35"/>
<path d="M21.9429 17.0984C22.8066 18.0627 23.3977 19.3943 24.9945 19.3905C25.1365 19.5053 25.1749 19.6507 25.1096 19.8229C24.8908 20.1367 24.5415 20.4466 25.0521 20.8063C25.8313 21.4147 26.8254 21.916 26.2765 23.1941C26.1192 23.328 25.9541 23.3318 25.7814 23.2208C24.9407 22.5091 24.3074 21.0703 22.9064 22.6239C22.5839 22.9798 22.3306 22.643 22.7106 21.3038C22.4765 20.4658 21.6167 20.3395 21.0524 19.8765C20.3807 19.3293 19.5132 18.9504 19.59 17.8714L19.6591 17.8484C19.9086 17.6341 20.1581 17.6341 20.4037 17.8561C21.4132 18.5946 21.2674 17.0181 21.9429 17.0984Z" fill="#F49948"/>
<path d="M20.4075 29.7145C20.1542 29.5882 19.897 29.4619 19.6437 29.3356C18.1582 28.0423 16.3311 27.1316 14.8533 25.2566C16.1737 25.2948 16.5 26.1749 17.1027 26.615C18.0891 27.3344 18.9259 28.4708 20.4114 27.805C21.3403 27.7553 21.1369 28.4402 21.1714 28.9683C21.2059 29.217 21.6051 29.4657 21.1752 29.7183C20.9219 29.9785 20.6647 29.7298 20.4075 29.7145Z" fill="#F1872C"/>
<path d="M19.5938 17.8675C20.4229 19.0232 21.5015 19.8956 22.7797 20.4925C23.6357 20.8905 23.5013 21.0895 22.7145 21.2999C21.8738 21.0627 21.3326 20.2247 20.4075 20.1558C19.1255 20.1252 19.2867 18.9581 18.8837 18.2311C18.8568 17.6073 19.1639 17.615 19.5938 17.8675Z" fill="#F18528"/>
<path d="M21.1714 28.9683C20.9181 28.5818 20.6647 28.1915 20.4114 27.805C19.4172 26.9594 18.0431 26.5384 17.3829 25.0346C18.7071 25.0308 19.1178 26.2782 20.0275 26.6532C20.5073 27.0244 20.991 27.3956 21.467 27.7706C22.2308 28.379 21.6205 28.6545 21.1714 28.9683Z" fill="#F5A153"/>
<path d="M18.8837 18.2311C19.3904 18.8739 19.9009 19.5129 20.4075 20.1558C20.1465 20.5346 19.8894 20.9135 19.6283 21.2885C18.9336 20.726 18.6572 21.7706 18.0853 21.6902C17.0911 21.4453 17.3445 21.0703 17.8051 20.4084C18.1467 19.9186 19.2483 19.5703 18.4883 18.6214C18.4039 18.5334 18.377 18.4453 18.4077 18.3612C18.4384 18.277 18.4691 18.2349 18.496 18.2349C18.6265 18.2349 18.7532 18.2349 18.8837 18.2311Z" fill="#F59C47"/>
<path d="M18.876 22.0652C19.4556 22.2719 20.0314 22.4785 20.611 22.689C19.9162 22.7578 19.7473 25.4976 18.5958 23.0869C18.377 22.6277 18.0853 23.9096 17.4558 23.6341C17.2332 22.9836 17.6439 22.7043 18.1122 22.4517C18.3156 22.2183 18.5421 22.0346 18.876 22.0652Z" fill="#F5A04D"/>
<path d="M25.7852 23.217C25.9119 23.2132 26.0385 23.2132 26.1691 23.2132C27.0481 23.4964 27.1517 24.5486 27.9079 24.9504C27.9693 25.0078 28.0269 25.0652 28.0883 25.1226C28.1804 25.5129 28.6564 25.8267 28.3263 26.3012C27.7697 25.777 26.8676 26.3395 26.3648 25.6928C26.0846 25.3293 26.0769 24.7055 25.4014 24.74C25.528 24.2349 25.6547 23.7259 25.7852 23.217Z" fill="#F28C35"/>
<path d="M18.876 22.0652C18.711 22.3675 18.4269 22.4402 18.1122 22.4479C18.1045 22.1953 18.093 21.9428 18.0853 21.6902C18.3041 21.3841 18.519 21.078 18.7417 20.7757C18.9182 20.5346 19.0986 20.1367 19.4326 20.4198C19.613 20.5729 19.5708 20.99 19.6283 21.2885C19.3788 21.5487 19.1255 21.805 18.876 22.0652Z" fill="#F8AF65"/>
<path d="M22.3268 13.2604C22.6262 13.3216 23.0215 13.3408 22.9409 13.7693C22.845 14.2783 22.3959 14.3931 21.9391 14.4352C21.5821 14.3624 20.9718 14.2783 21.1215 13.9339C21.2674 13.5971 21.9045 13.4747 22.3268 13.2604Z" fill="#F6A657"/>
<path d="M18.496 18.2349C18.4922 18.365 18.4922 18.4951 18.4883 18.6214C18.2004 18.9237 17.9126 19.226 17.4942 19.6737C17.3176 18.7362 17.6016 18.1507 18.139 17.6456C18.258 17.8408 18.377 18.0359 18.496 18.2349Z" fill="#F6A254"/>
<path d="M12.3699 33.9351C12.0666 33.9695 11.7442 34.0882 11.4678 34.0155C11.0993 33.9198 10.6848 33.6366 10.9112 33.2004C11.2797 32.4963 11.629 33.0933 11.9284 33.3382C12.1165 33.4912 12.224 33.74 12.3699 33.9466V33.9351Z" fill="#F49A45"/>
<path d="M13.1222 30.0971C13.1107 30.3458 13.0953 30.5907 13.0838 30.8356C12.5886 30.7974 12.2278 30.5754 12.4466 30.0512C12.6155 29.6341 12.9072 29.8675 13.1222 30.0971Z" fill="#F7B069"/>
<path d="M15.8475 23.9134C15.6939 23.7336 15.5212 23.6226 15.5059 23.4964C15.4905 23.3471 15.575 23.0869 15.6824 23.0448C15.9665 22.9339 16.1354 23.1443 16.1277 23.4083C16.1238 23.5499 15.978 23.6877 15.8475 23.9134Z" fill="#F7A95B"/>
<path d="M12.4044 26.967C12.2355 27.0933 12.1088 27.1851 11.9822 27.277C11.8977 27.1507 11.725 26.9976 11.7519 26.902C11.7902 26.7642 11.9745 26.6685 12.0935 26.5537C12.1856 26.6724 12.2739 26.7948 12.4044 26.967Z" fill="#F8B16F"/>
<path d="M20.4075 17.8522C20.158 17.8484 19.9086 17.8446 19.6629 17.8446C19.7051 17.5346 19.3827 17.0142 19.9623 17.0027C20.4229 16.9989 20.4075 17.4849 20.4075 17.8522Z" fill="#F9C595"/>
<path d="M24.9983 19.7885C24.9983 19.6545 24.9945 19.5206 24.9945 19.3905C25.5587 19.3254 26.0654 19.5015 26.5452 19.777C27.9117 20.8216 29.4855 21.3688 31.1552 21.6864C31.539 21.6061 31.9229 21.4453 32.3067 21.6826C32.8556 22.2374 33.5619 22.7004 33.4851 23.6303C33.5849 23.7527 33.5734 23.8675 33.4659 23.9785C33.0591 22.4517 31.4699 23.68 30.7713 22.8305C30.5142 22.8305 30.2608 22.8267 30.0037 22.8267C29.497 22.7884 29.0709 22.5053 28.6065 22.3446C27.4933 21.7247 26.3994 21.0665 25.2862 20.4504C25.0674 20.2821 24.8947 20.0946 24.9983 19.7885Z" fill="#F08123"/>
<path d="M28.8521 22.0652C29.4049 22.0652 29.7849 22.3216 30.0037 22.8267C29.877 23.4657 29.7465 24.1048 29.6198 24.7438C29.1093 24.8701 28.5949 25.0002 28.0844 25.1264C27.1325 23.6341 27.24 23.2017 28.8521 22.0652Z" fill="#F28C35"/>
<path d="M26.0731 26.5155C26.8216 27.0053 27.1747 27.5831 26.6143 28.4938C25.9387 27.9083 26.1575 27.1545 26.0731 26.5155Z" fill="#F59C4E"/>
<path d="M29.6505 28.9568C29.3857 29.3395 29.117 29.7221 28.8521 30.1048C28.2073 29.481 28.9327 28.9491 28.9941 28.3752C29.0133 28.1877 29.3012 27.8815 29.5354 28.2183C29.6659 28.4058 29.6198 28.7081 29.6505 28.9568Z" fill="#F6A357"/>
<path d="M21.1023 31.7349C21.1369 32.0142 21.0409 32.2285 20.753 32.3012C20.4882 32.3701 20.2003 32.3203 20.208 32.0065C20.2118 31.8114 20.396 31.5588 20.5726 31.444C20.8298 31.2872 21.0371 31.4326 21.1023 31.7349Z" fill="#F3923A"/>
<path d="M20.4075 29.7145C20.6647 29.2935 20.9219 29.6838 21.1752 29.7183C21.229 30.0474 21.7357 30.5142 21.2328 30.6634C20.5918 30.8548 20.4766 30.2234 20.4075 29.7145Z" fill="#F3923A"/>
<path d="M29.6198 24.7438C30.5564 24.9122 30.4758 25.3714 29.9576 26.0869C29.474 25.6622 29.6774 25.1647 29.6198 24.7438Z" fill="#F28C35"/>
<path d="M28.499 33.5333C28.3877 34.0537 28.261 34.532 27.6392 33.916C27.7313 33.4683 27.9501 33.1583 28.4606 33.1736C28.4644 33.2961 28.476 33.4147 28.499 33.5333Z" fill="#F8B06F"/>
<path d="M24.2844 34.291C24.5032 34.1417 24.6337 33.9887 24.768 33.981C24.8755 33.9734 24.9983 34.1417 25.1135 34.2336C24.9906 34.3484 24.8793 34.5206 24.7373 34.555C24.6375 34.5818 24.4917 34.4211 24.2844 34.291Z" fill="#F6A555"/>
<path d="M28.4836 30.4798C28.4644 31.0155 28.2265 31.4058 27.7198 31.6162C27.6699 31.0346 27.7121 30.5142 28.4836 30.4798Z" fill="#F6A357"/>
<path d="M28.4683 32.393C28.5028 31.7769 28.783 31.3369 29.543 31.0461C29.4202 31.7923 29.2475 32.3127 28.4683 32.393Z" fill="#F28F38"/>
<path d="M33.4659 23.9785C33.4851 23.8637 33.4928 23.7451 33.4851 23.6303C33.8498 23.3395 33.7999 22.9071 33.8613 22.5129C34.3872 22.9645 34.3065 23.5384 34.0801 24.0589C33.9688 24.3229 33.654 24.1775 33.4659 23.9785Z" fill="#FCDAA3"/>
<path d="M32.6407 28.268C32.4487 29.1022 32.1071 29.4581 31.6619 29.8484C31.4584 29.0448 31.9229 28.7349 32.6407 28.268Z" fill="#F59C4F"/>
<path d="M31.4584 5.48492C31.0938 5.84844 31.1744 6.32293 31.136 6.76681C29.5354 6.20814 29.5392 4.96069 31.1513 3.32294C31.1629 3.74003 31.1513 4.17243 31.7617 4.14181C32.3873 4.75406 31.9344 5.1214 31.4584 5.48492Z" fill="#AAC764"/>
<path d="M26.1652 15.5602C25.6317 14.9096 26.146 14.9173 26.6066 14.791C27.5394 14.5385 28.0652 15.3841 28.8329 15.5525C28.9711 15.6826 29.1093 15.8089 29.2475 15.939C29.117 16.9683 28.5604 16.4441 28.0345 16.3178C27.4626 16.18 27.3782 15.1239 26.5452 15.5678C26.4109 15.7476 26.2842 15.7438 26.1652 15.5602Z" fill="#F28C35"/>
<path d="M26.1652 15.5602C26.2919 15.5602 26.4185 15.564 26.5414 15.5716C27.2169 17.1214 29.1707 16.842 30.1994 17.9479C29.735 18.3841 29.2782 18.1813 28.8598 18.2311C27.9693 17.592 27.0749 16.953 26.1844 16.314C26.1767 16.0653 26.1729 15.8127 26.1652 15.5602Z" fill="#F08123"/>
<path d="M32.3067 21.6826C31.9229 21.7859 31.539 22.2872 31.1552 21.6864C31.539 20.4772 31.9229 21.0856 32.3067 21.6826Z" fill="#F28C35"/>
<path d="M23.8621 16.7119C23.7931 17.4505 24.5492 17.7948 24.9676 18.74C23.8007 18.1201 23.2288 17.439 22.6991 16.7119C23.0829 15.254 23.4745 16.6048 23.8621 16.7119Z" fill="#F6A55A"/>
<path d="M40.3406 5.59972C39.9299 6.33824 38.1143 6.33824 39.1583 7.83823C38.8244 8.0066 38.4905 8.17497 38.1565 8.33951C37.3197 8.21323 36.7862 8.00277 37.6537 7.13033C38.3523 6.43007 38.9703 5.65329 39.6266 4.91095C40.1448 4.85355 40.3444 5.12523 40.3406 5.59972Z" fill="#7EA330"/>
<path d="M34.9169 11.351C35.0781 11.3625 35.2393 11.3701 35.4043 11.3816C35.0666 12.0091 34.4025 12.1928 33.8536 12.5372C33.7346 12.4186 33.6156 12.3 33.5005 12.1852C33.9956 11.9479 34.2874 11.3625 34.9169 11.351Z" fill="#B2CE7D"/>
<path d="M8.87687 38.504C8.88455 38.1251 8.89222 37.7463 8.8999 37.3675C9.28374 37.4976 9.66375 37.6239 10.0476 37.754C10.2203 38.8751 9.51021 38.6302 8.87687 38.504Z" fill="#F3923A"/>
<path d="M4.66226 51.5103C4.05579 51.3572 3.22284 51.3496 3.91376 50.3585C4.16326 50.745 4.41276 51.1277 4.66226 51.5103Z" fill="#F9B875"/>
<path d="M28.8521 22.0652C28.1766 22.9798 27.4473 23.8828 28.0844 25.1264C26.2612 25.6698 26.9175 23.7374 26.1652 23.217C26.3802 21.9619 25.2632 21.5869 24.6183 20.8981C24.4494 20.2285 25.0943 20.3892 25.3668 20.1673C26.6796 20.5346 27.7236 21.3765 28.8521 22.0652Z" fill="#F3923A"/>
<path d="M25.3707 20.1673C25.1212 20.4122 24.8717 20.6532 24.6222 20.8981C24.3189 20.8599 23.9351 20.8484 24.0195 20.4198C24.1155 19.9224 24.5339 19.7846 24.9983 19.7885C25.1212 19.9147 25.244 20.041 25.3707 20.1673Z" fill="#F9B672"/>
</svg>
