<svg width="36" height="55" viewBox="0 0 36 55" fill="none" xmlns="http://www.w3.org/2000/svg">
<path d="M19.8061 24.1097C17.3115 28.6799 15.3707 33.4706 13.5445 38.3372C11.9244 42.6548 10.8365 47.0809 9.69961 51.5124C8.9974 54.2507 6.98925 55.4502 4.11299 54.8476C3.92891 54.8078 3.75357 54.7178 3.5678 54.6868C0.123433 54.1143 -0.0300334 53.8005 0.00331469 50.3035C0.0530533 44.9253 1.92509 39.9837 3.51605 34.9651C4.13457 33.0111 4.84039 31.0826 5.50562 29.1446C6.05364 29.5493 6.44198 29.4139 6.91449 28.9274C7.84586 27.9726 8.80201 27.0089 10.1797 26.6614C10.85 26.0284 11.5934 25.4807 12.2587 24.8449C12.4694 24.67 12.6964 24.5299 12.9627 24.4534C13.9148 24.5213 14.7357 24.1262 15.508 23.672C16.5742 23.0466 17.5986 22.7149 18.6306 23.6895C18.966 24.0064 19.4855 23.7783 19.8061 24.1097Z" fill="#F8F7DA"/>
<path d="M17.4684 2.16491C17.1071 4.1569 17.2648 6.21132 16.7417 8.18216C16.7418 8.37288 16.6901 8.63201 16.5168 8.63687C15.9187 8.65047 15.7203 8.91944 15.7985 9.47614C15.8448 9.80534 15.8819 10.1392 16.262 10.2383C16.7358 10.3631 17.0615 10.1125 17.3032 9.7381C17.4039 9.58348 17.4933 9.42582 17.6642 9.33244C17.6889 9.24261 17.743 9.18189 17.829 9.15164C18.0282 9.17067 18.1309 9.27885 18.1371 9.47616C17.9452 10.9667 16.7593 11.9076 16.0019 13.0646C14.6429 15.1445 13.1305 17.1304 11.7987 19.2317C11.632 19.3985 11.426 19.6116 11.2002 19.5585C10.5638 19.4024 10.2211 19.55 10.2502 20.251C10.2555 20.3864 10.2065 20.5307 10.162 20.6613C10.0318 21.0647 9.89799 21.6308 9.41939 21.5551C8.87072 21.4698 9.23501 20.8559 9.10667 20.4978C9.20391 16.3671 9.54647 12.2549 10.1571 8.16736C10.1478 7.70342 10.3672 7.3394 10.7627 7.13358C12.761 6.09024 14.0399 4.44124 14.9183 2.4396C15.5148 2.40571 16.1093 2.3869 16.5232 2.94728C16.5959 2.48323 16.4659 1.88504 17.1074 1.70794C17.4281 1.62253 17.4497 1.93168 17.4684 2.16491Z" fill="#71994F"/>
<path d="M9.11056 20.4967C9.22541 20.786 9.34166 21.0729 9.47145 21.3995C9.95997 20.8442 9.88207 20.1713 10.023 19.5638C10.0917 19.2688 9.89012 18.8316 10.3121 18.7179C10.7716 18.5958 10.7143 19.1136 10.9189 19.3198C11.0022 19.4044 11.178 19.4009 11.3134 19.4398C11.2582 20.4692 11.2582 20.4692 10.0486 21.8397C10.3922 21.4244 10.9426 20.9161 11.4934 20.4014C13.2261 19.1959 15.0508 19.9698 16.8097 20.252C17.8495 20.4199 18.6809 20.5734 19.5245 19.7157C20.6613 18.5605 21.7776 19.5426 22.8761 19.9657C22.5943 21.0418 21.5985 21.3635 20.791 21.8855C20.2828 22.1456 19.7287 22.1511 19.1772 22.1807C18.1808 22.4341 17.1884 22.6574 16.1537 22.7411C15.0327 22.8323 14.5449 24.0924 13.4546 24.2974C13.339 24.3566 13.2143 24.3914 13.0844 24.4007C12.3525 24.4248 11.7644 24.8026 11.1731 25.1689C10.0994 25.929 8.87644 26.1192 7.48095 26.1855C7.88296 25.0883 8.31834 24.129 8.57052 23.1109C8.74394 22.2434 8.92795 21.3688 9.11056 20.4967Z" fill="#7AA157"/>
<path d="M20.5572 21.6729C21.3736 21.1816 22.155 20.642 22.8152 19.9516C23.4864 18.3272 24.6248 17.0824 26.0908 16.1276C26.4529 15.8937 26.9023 15.7143 27.0511 15.3244C27.5783 13.9309 28.7095 13.2314 29.9831 12.6393C30.768 12.2729 31.3391 11.8729 30.6581 10.8231C30.0391 9.87206 31.2291 9.2598 31.4566 8.44146C31.5774 8.26879 31.7432 8.14992 31.9342 8.06755C32.6112 7.98423 33.1078 8.61274 33.8166 8.50811C34.4285 8.41808 34.6306 8.20611 34.1848 7.72513C33.5462 7.03468 32.8793 6.37075 32.3368 5.59746C32.2084 5.15849 32.0138 4.65088 32.8279 4.98545C33.1237 5.10606 33.445 5.22782 33.6166 5.53864C33.8656 5.75315 34.1337 5.94578 34.3613 6.1808C36.5749 8.44484 36.5651 9.12769 34.2147 11.1859C31.0678 13.9434 27.8976 16.6784 24.7385 19.4228C23.7062 20.2316 22.8015 21.1913 21.6915 21.9057L21.6929 21.9032C21.2714 22.0333 20.85 22.1635 20.5572 21.6729Z" fill="#7EA060"/>
<path d="M32.0531 8.29769C31.9251 8.321 31.797 8.34432 31.669 8.36763C29.9594 8.32256 28.5342 7.42255 26.9981 6.86869C26.5035 6.61286 26.0574 6.27711 25.4219 6.35092C23.416 6.58559 22.3494 5.6663 22.0976 3.54073C23.9508 0.559739 25.2896 0.3621 28.8507 1.93253C28.9352 1.9338 28.995 1.9731 29.0326 2.04552C29.5096 2.76661 30.4803 2.84802 30.9954 3.57713C31.2697 3.96707 31.7906 4.15335 31.1871 4.64539C30.7488 5.00212 30.3316 5.48357 29.7426 4.88502C29.38 4.51765 29.0353 4.12456 28.6187 3.81791C28.2468 3.54232 27.8336 3.32803 27.4075 3.14221C28.2421 3.50422 28.7836 3.85688 28.4287 5.01557C28.003 6.40349 29.358 6.15984 30.1365 6.37788C30.3279 6.34099 30.5114 6.28354 30.6885 6.19675C31.1839 5.93605 31.4513 5.05888 32.253 5.63539C32.8981 6.57494 32.5158 7.44064 32.0531 8.29769Z" fill="#80A95A"/>
<path d="M15.0418 2.45903C14.6596 4.6269 13.2408 6.00187 11.4356 7.10944C10.9685 7.39541 10.3706 7.57069 10.1571 8.16736C10.0081 7.72999 10.093 7.30816 10.2354 6.88891C10.3598 5.28036 10.9123 3.75541 11.1815 2.17482C11.2556 1.73735 11.4896 1.30705 11.9013 1.02617L11.8949 1.02589C12.3468 0.957735 12.424 1.28453 12.5508 1.59333C13.1071 2.95581 13.1232 2.96789 14.3328 2.15317C14.7999 1.83815 15.0087 1.89803 15.0418 2.45903Z" fill="#7EA15F"/>
<path d="M15.0418 2.45903C14.8937 2.36145 14.7511 1.92437 14.5703 2.31285C14.2856 2.92528 13.7719 3.41503 13.2234 3.21362C12.6347 2.99651 12.0879 2.42764 12.2242 1.58501C12.2499 1.41818 12.0119 1.21301 11.8938 1.02205C13.3793 0.0908626 14.9372 -0.383652 16.6456 0.381278C17.4068 0.722316 17.8088 1.29227 17.4673 2.16107C16.951 1.62514 16.9047 2.07144 16.8383 2.45494C16.7479 2.96746 16.9453 3.58003 16.1138 4.01133C16.7028 2.72294 15.3792 3.00967 15.0418 2.45903Z" fill="#92B270"/>
<path d="M32.1579 5.75111C31.2763 5.35037 31.4042 6.60648 30.7503 6.57969C30.6712 6.48773 30.6262 6.295 30.5294 6.30961C30.3332 6.33744 30.4115 6.55819 30.3503 6.68932C29.3415 7.01669 28.6444 6.34256 27.8696 5.93272C27.5918 5.78638 27.4131 5.54598 27.7027 5.27226C29.1387 3.91322 27.7069 3.65579 26.8767 3.1702C26.7319 3.08414 26.5634 3.03996 26.4628 2.85863C27.8735 2.8524 29.0112 3.39724 29.8598 4.53916C30.2027 4.99911 30.2119 4.99447 30.5017 4.7435C30.0105 4.19227 32.0317 4.62516 30.8979 3.66243C30.2811 3.13589 29.3449 2.91837 29.0352 2.04689C30.7761 2.93958 32.2583 4.16168 33.6166 5.53864C33.2242 5.45537 32.9705 5.03478 32.5145 5.11033C32.545 5.2822 32.5755 5.45408 32.606 5.62595C32.4842 5.76574 32.3347 5.80955 32.1579 5.75111Z" fill="#95B877"/>
<path d="M20.5572 21.6729C20.9371 21.7493 21.3169 21.8257 21.6943 21.9007C21.3406 22.8663 20.5338 23.4565 19.8036 24.1084C19.3478 24.1776 18.9098 24.6669 18.4454 24.0336C17.682 22.9902 16.8114 23.3515 15.8526 23.8453C14.991 24.2892 14.1931 25.159 13.0333 24.6182C12.9773 24.526 12.9769 24.4515 13.0257 24.3943C13.0798 24.3336 13.1155 24.3112 13.138 24.3236C14.7828 23.7999 16.0398 22.2649 17.9993 22.5346C18.5165 22.6058 18.6804 21.9172 19.1732 21.8521C19.6324 21.7654 20.1337 22.0152 20.5572 21.6729Z" fill="#CBDCAE"/>
<path d="M8.55883 23.1142C8.6249 24.1263 8.05401 24.9659 7.70819 26.0681C8.84084 25.3081 10.1863 25.6311 11.1891 24.8513C11.6192 24.9779 12.0956 24.4903 12.4985 24.9542C11.9829 25.8468 10.9804 26.2325 10.3326 26.9878C9.41753 26.7851 8.65173 26.9036 7.90061 27.5924C7.19492 28.2415 6.81352 27.9769 6.7289 26.9222C7.34018 25.6525 7.95145 24.3828 8.55883 23.1142Z" fill="#ACC487"/>
<path d="M6.7314 26.9236C6.94353 27.6606 7.26478 28.0893 7.87551 27.2199C8.62071 26.1596 9.43861 26.2733 10.3365 26.9867C8.86666 27.3578 7.88062 28.3859 6.92261 29.4456C6.63487 29.7623 6.31585 30.1459 5.88285 30.0823C5.37087 30.0075 5.75709 29.4186 5.50951 29.1435C5.91162 28.405 6.32151 27.6643 6.7314 26.9236Z" fill="#C0D497"/>
<path d="M28.8532 1.9339C28.5295 1.86256 28.1958 1.81476 27.8811 1.71603C24.6718 0.717098 24.0082 0.956367 22.1619 3.7861C21.1794 5.90181 20.1003 7.94499 18.0546 9.29185C17.9785 9.24675 17.9038 9.1992 17.8304 9.14918C19.2893 6.79465 20.9432 4.57643 22.6493 2.39338C24.2096 0.398305 26.8068 0.214141 28.8532 1.9339Z" fill="#8DAD70"/>
<path d="M17.6642 9.33244C17.5151 9.61878 17.3735 9.90924 17.2182 10.189C16.975 10.6239 16.6611 10.9521 16.0988 10.7463C15.5932 10.562 15.3871 10.1385 15.3978 9.65648C15.4105 9.15942 15.527 8.66449 15.6001 8.13604C15.9902 8.10174 16.3595 8.85084 16.7403 8.18462C16.784 8.68042 16.8292 9.17376 16.8718 9.69477C17.2615 9.83475 17.3341 9.28986 17.6642 9.33244Z" fill="#8DAD70"/>
<path d="M11.9013 1.02617C11.2647 2.42737 11.0346 3.93898 10.6652 5.41277C10.541 5.90988 10.38 6.39651 10.2343 6.88508C10.1099 5.19464 10.6923 3.60536 10.9841 1.97905C11.0601 1.55556 11.3437 1.10727 11.9013 1.02617Z" fill="#92B270"/>
<path d="M21.6929 21.9032C22.5853 20.9303 23.5497 20.0389 24.7399 19.4203C23.9043 20.4665 22.996 21.4211 21.6929 21.9032Z" fill="#CBDCAE"/>
<path d="M12.5024 24.9531C12.0615 24.9788 11.5991 25.2448 11.193 24.8502C11.7708 24.4151 12.3144 23.861 13.1433 24.32C13.108 24.417 13.0739 24.5177 13.0386 24.6147C12.8839 24.7719 12.7692 24.9802 12.5024 24.9531Z" fill="#92B36D"/>
<path d="M18.0546 9.29185C18.9958 8.01293 19.9796 6.75739 20.8635 5.44054C21.2587 4.85327 21.6457 4.27448 22.1594 3.78473C22.3834 4.84812 23.5115 5.21319 23.9843 6.0806C24.2279 6.52473 24.5965 6.37202 24.8238 6.19655C25.604 5.60128 26.2433 5.97221 26.8998 6.38813C27.2632 7.43125 26.7294 8.07798 25.9082 8.61836C21.2616 11.6724 16.9622 15.1209 13.3546 19.357C12.8923 19.9009 12.1694 20.1173 11.6424 20.59C11.0098 21.2374 10.3773 21.8847 9.53489 22.7462C9.58884 21.1345 11.2827 20.7153 11.3109 19.4384C13.2022 15.8289 15.9578 12.7722 18.0546 9.29185Z" fill="#77A750"/>
<path d="M11.6424 20.59C14.1568 17.6462 16.9074 14.9454 19.9721 12.553C21.9208 11.03 23.6809 9.26116 25.9642 8.18387C26.7388 7.81822 26.6576 7.02393 26.9009 6.39197C28.4924 7.05062 30.08 7.71035 31.6715 8.369C31.6823 8.80144 31.6358 9.25403 31.3108 9.54385C30.6328 10.15 30.5904 10.5952 31.3742 11.1974C31.9277 11.6214 31.6156 12.1606 31.0704 12.4165C30.3052 12.7712 29.748 13.4826 28.8633 13.6198C28.4036 13.6901 28.0859 13.9903 27.9484 14.4123C27.5906 15.5242 26.975 16.2228 25.749 16.644C24.8944 16.9366 24.66 18.2068 23.8273 18.8022C23.4228 19.0935 23.1498 19.5637 22.8177 19.953C22.631 19.9699 22.3918 20.0678 22.2621 19.99C20.8426 19.1319 19.7606 19.4901 18.8791 20.8083C18.7993 20.926 18.3973 20.9408 18.2061 20.8615C16.875 20.3105 15.3652 20.7405 14.0348 20.038C13.2011 19.599 12.4925 20.589 11.6424 20.59Z" fill="#709C4C"/>
<path d="M19.1732 21.8521C18.7819 22.6353 18.2654 23.101 17.276 22.7863C16.8084 22.6391 16.3589 22.9056 15.9722 23.2003C15.136 23.8423 14.1549 24.1267 13.1369 24.3197C14.3294 23.6508 15.0104 22.177 16.7445 22.3293C17.5375 22.4002 18.3639 22.0243 19.1732 21.8521Z" fill="#92B36D"/>
<path d="M32.1579 5.75111C32.306 5.70975 32.4565 5.66977 32.6046 5.62841C33.2928 6.32992 33.9704 7.03854 34.6733 7.72555C34.9396 7.98504 35.0881 8.26704 34.9394 8.59886C34.7661 8.99146 34.3714 8.84873 34.0584 8.85112C33.3391 8.85297 32.6326 8.7973 32.0531 8.29769C32.0359 7.44818 32.4655 6.6149 32.1579 5.75111Z" fill="#A1BA89"/>
<path d="M24.7077 4.79824C23.6066 4.68067 23.2388 4.03899 23.2995 2.88985C24.1029 3.42854 23.8796 4.4883 24.7077 4.79824Z" fill="#77A750"/>
<path d="M30.3489 6.69179C29.8857 6.42095 30.0151 6.14636 30.3239 5.84445C30.4474 5.72495 30.5186 5.48943 30.724 5.70577C30.9807 5.9762 30.8908 6.28539 30.7503 6.57969C30.6164 6.61916 30.4814 6.65479 30.3489 6.69179Z" fill="#B6D498"/>
</svg>
