<svg width="19" height="18" viewBox="0 0 19 18" fill="none" xmlns="http://www.w3.org/2000/svg">
<path d="M9.90223 0.00085564C10.7313 -0.0136325 11.8092 0.155767 12.852 0.516856C13.8949 0.877945 14.8314 1.41958 15.6827 2.09383C16.4593 2.70902 17.1389 3.40445 17.6539 4.24031C18.3628 5.39044 18.7843 6.62862 18.9362 7.95373C19.1242 9.59646 18.9023 11.1812 18.1993 12.6969C17.5418 14.1145 16.6111 15.326 15.288 16.2499C14.0735 17.0969 12.7376 17.673 11.2487 17.8881C9.3522 18.1623 7.51646 17.9327 5.75661 17.1972C4.52111 16.6812 3.44675 15.9434 2.50319 15.0284C1.19527 13.7557 0.41987 12.2288 0.12559 10.4758C-0.195549 8.56112 0.0998986 6.72893 1.00376 4.99704C1.87609 3.32533 3.17933 2.03365 4.90297 1.1365C6.37437 0.370861 7.94737 0.00085564 9.90223 0.00085564ZM9.73991 16.9185C10.4242 16.9319 11.098 16.855 11.7543 16.6812C14.167 16.0426 15.9466 14.6684 17.0303 12.5008C17.6586 11.2425 17.9377 9.91966 17.8373 8.52323C17.7532 7.3508 17.4472 6.24079 16.8902 5.19207C16.3764 4.22582 15.6325 3.45015 14.7532 2.77589C13.2678 1.6369 11.5757 1.07409 9.67451 1.06518C8.13421 1.05849 6.6885 1.40175 5.34205 2.12058C3.75388 2.9687 2.59894 4.19573 1.87259 5.78162C1.27702 7.08333 1.02828 8.4441 1.1906 9.86616C1.28986 10.7332 1.51408 11.5646 1.90295 12.3548C2.35838 13.2798 3.03569 14.041 3.82628 14.7186C5.50905 16.1629 7.48259 16.8896 9.73991 16.9185Z" fill="#FF8C66"/>
<path d="M6.25292 10.1526C6.25292 9.2298 6.26226 8.30702 6.24825 7.38535C6.24124 6.93176 6.22956 6.47817 6.23307 6.02458C6.2354 5.78831 6.24358 5.55093 6.27861 5.31689C6.39189 4.56462 6.74222 4.22025 7.53631 4.13555C8.7905 4.00181 10.0412 4.01964 11.272 4.33058C12.6488 4.6783 13.4277 5.55873 13.6695 6.8883C13.84 7.83002 13.6601 8.71714 13.0529 9.49839C12.6617 10.0021 12.1303 10.3153 11.4997 10.478C11.0186 10.6017 10.5282 10.6552 10.033 10.692C9.60911 10.7243 9.18287 10.6875 8.76014 10.741C8.54994 10.7678 8.49505 10.8146 8.48805 11.0196C8.47403 11.3763 8.47987 11.734 8.49622 12.0907C8.51607 12.5242 8.54527 12.9599 8.48338 13.3924C8.43316 13.7434 8.21012 13.9507 7.85044 14.0298C7.5585 14.0945 7.26655 14.0889 6.97811 14.0209C6.63011 13.9384 6.39772 13.739 6.31715 13.3946C6.27978 13.2341 6.25876 13.0714 6.25876 12.9064C6.25993 11.9892 6.25993 11.0709 6.25993 10.1537C6.25759 10.1526 6.25526 10.1526 6.25292 10.1526ZM8.42616 7.47228C8.42616 7.713 8.42265 7.88129 8.42732 8.05069C8.43199 8.22455 8.44367 8.39729 8.45068 8.57115C8.46119 8.81076 8.52775 8.891 8.77532 8.89992C9.36855 8.92221 9.96061 8.90549 10.5422 8.78401C11.2148 8.64359 11.6177 8.22009 11.6621 7.63276C11.717 6.89164 11.4238 6.41242 10.7313 6.18395C10.0902 5.9722 9.41993 5.96105 8.7508 6.00563C8.51257 6.02235 8.46119 6.09479 8.45185 6.3266C8.43666 6.73227 8.41565 7.13794 8.42616 7.47228Z" fill="#FF8C66"/>
</svg>
