<svg width="60" height="49" viewBox="0 0 60 49" fill="none" xmlns="http://www.w3.org/2000/svg">
<path d="M25.849 21.6455C23.4227 25.2703 21.4402 29.1216 19.5471 33.045C17.8677 36.5259 16.6226 40.138 15.3365 43.7509C14.542 45.9834 12.7793 46.8312 10.4328 46.1079C10.2827 46.0606 10.1438 45.972 9.99164 45.9319C7.17028 45.1903 7.06672 44.9166 7.3631 41.9994C7.81762 37.5128 9.75456 33.5303 11.4636 29.462C12.1282 27.8779 12.8635 26.3218 13.5658 24.7547C13.9906 25.1345 14.3241 25.0512 14.7545 24.6811C15.6027 23.9553 16.4721 23.2238 17.6449 23.0392C18.2512 22.5619 18.9116 22.1616 19.5139 21.6817C19.7026 21.5517 19.9022 21.4521 20.1297 21.4087C20.9165 21.5383 21.6297 21.2712 22.3071 20.9511C23.2421 20.5106 24.1198 20.312 24.9034 21.2047C25.1581 21.495 25.6078 21.3443 25.849 21.6455Z" fill="#F8F7DA"/>
<path d="M25.5901 3.14456C25.1365 4.78005 25.1099 6.50738 24.5233 8.11283C24.5088 8.27208 24.4458 8.48446 24.3013 8.47526C23.8027 8.44083 23.617 8.65022 23.6392 9.121C23.6525 9.3994 23.6578 9.68097 23.9663 9.79283C24.3508 9.93329 24.6411 9.74897 24.8709 9.45488C24.9665 9.3335 25.053 9.2087 25.2024 9.14383C25.2298 9.07072 25.2795 9.02416 25.3534 9.00549C25.5176 9.03662 25.5947 9.1348 25.5848 9.30001C25.3106 10.5298 24.2518 11.2246 23.5328 12.1327C22.2425 13.7652 20.8318 15.3074 19.5625 16.9599C19.411 17.0864 19.2233 17.2485 19.0395 17.187C18.5221 17.0079 18.2256 17.1049 18.196 17.6924C18.19 17.8058 18.1382 17.9226 18.0911 18.0282C17.9518 18.3551 17.797 18.8175 17.4047 18.7176C16.9548 18.6045 17.305 18.1198 17.2257 17.8109C17.6239 14.3696 18.2248 10.9625 19.0468 7.59649C19.0747 7.20842 19.2852 6.92129 19.63 6.77971C21.3725 6.06157 22.5631 4.78268 23.4476 3.17872C23.9464 3.19608 24.4424 3.22588 24.7437 3.72543C24.8398 3.34355 24.7776 2.83416 25.3249 2.7354C25.5982 2.68864 25.5924 2.9484 25.5901 3.14456Z" fill="#71994F"/>
<path d="M17.2291 17.8103C17.3024 18.0607 17.377 18.3091 17.4599 18.5917C17.909 18.1655 17.8959 17.5977 18.0597 17.1013C18.1396 16.8603 18.0055 16.4798 18.3652 16.4172C18.7569 16.3504 18.6695 16.7783 18.8238 16.9661C18.8866 17.0431 19.0331 17.0537 19.1428 17.0965C19.0177 17.9518 19.0177 17.9518 17.9062 19.0034C18.224 18.683 18.7209 18.3007 19.2186 17.9132C20.7527 17.0393 22.2112 17.8251 23.6527 18.1954C24.5048 18.4151 25.1847 18.6069 25.9523 17.9554C26.9867 17.0779 27.8399 17.9833 28.7212 18.4206C28.4041 19.2975 27.5511 19.4898 26.8392 19.8639C26.3965 20.0422 25.9351 20.0043 25.4741 19.9868C24.6257 20.1221 23.7829 20.2326 22.9157 20.2233C21.9762 20.2136 21.4736 21.2284 20.5509 21.316C20.4502 21.3567 20.3438 21.3762 20.235 21.374C19.6242 21.3381 19.106 21.6085 18.586 21.869C17.6344 22.4216 16.6024 22.4868 15.4364 22.4353C15.8551 21.55 16.291 20.7823 16.579 19.9517C16.7899 19.2406 17.0101 18.5245 17.2291 17.8103Z" fill="#7AA157"/>
<path d="M26.6611 19.6685C27.3779 19.3208 28.0694 18.93 28.6716 18.4042C29.3548 17.0993 30.3975 16.1471 31.6904 15.4622C32.0096 15.2946 32.3972 15.1792 32.5509 14.8651C33.0966 13.742 34.0913 13.2446 35.1963 12.8477C35.8774 12.6018 36.3832 12.3115 35.8973 11.3829C35.4555 10.5415 36.4924 10.1214 36.7446 9.45562C36.8583 9.3207 37.0054 9.23414 37.1706 9.17998C37.7402 9.16224 38.1051 9.725 38.7027 9.69189C39.2186 9.66356 39.4031 9.50206 39.0692 9.06636C38.5909 8.44101 38.0872 7.83564 37.6953 7.14849C37.6221 6.77215 37.4993 6.33345 38.1509 6.6751C38.3876 6.79844 38.6456 6.92469 38.7644 7.19733C38.9551 7.39549 39.1633 7.57684 39.3346 7.79048C41.0021 9.85019 40.9416 10.4196 38.8282 11.9581C35.9985 14.0195 33.1511 16.0604 30.3123 18.1099C29.3913 18.7061 28.565 19.4382 27.5867 19.9496L27.5881 19.9477C27.2275 20.0241 26.8669 20.1005 26.6611 19.6685Z" fill="#7EA060"/>
<path d="M37.2518 9.38123C37.1435 9.3909 37.0352 9.40056 36.927 9.41023C35.5082 9.24175 34.3917 8.38123 33.1564 7.80123C32.7646 7.54977 32.4193 7.23531 31.885 7.24829C30.1982 7.29069 29.3816 6.44152 29.3354 4.64757C31.1061 2.30055 32.2349 2.23801 35.0767 3.82175C35.147 3.82928 35.1937 3.86667 35.2194 3.93002C35.5608 4.56857 36.3621 4.71084 36.7346 5.35901C36.9328 5.70558 37.3519 5.90098 36.812 6.26559C36.4199 6.52988 36.0359 6.89992 35.5919 6.3551C35.3185 6.02062 35.062 5.66604 34.7389 5.37813C34.4507 5.11957 34.1234 4.90902 33.7832 4.72127C34.4497 5.0874 34.8731 5.42328 34.4889 6.36353C34.0281 7.48974 35.174 7.39003 35.8049 7.63165C35.967 7.61551 36.124 7.58158 36.278 7.52268C36.7102 7.34293 37 6.63104 37.6226 7.17374C38.0871 8.00756 37.7026 8.70109 37.2518 9.38123Z" fill="#80A95A"/>
<path d="M23.5488 3.20439C23.0643 4.98512 21.7784 6.02451 20.1916 6.81107C19.7811 7.01408 19.2703 7.11465 19.0468 7.59649C18.9564 7.21992 19.0595 6.87422 19.2102 6.53509C19.4372 5.20159 20.014 3.97069 20.3593 2.67163C20.4545 2.31205 20.6823 1.9707 21.0463 1.7677L21.041 1.76697C21.4222 1.74466 21.4614 2.02342 21.5431 2.29095C21.9012 3.47108 21.9137 3.4824 22.9825 2.89475C23.3953 2.6675 23.5644 2.73347 23.5488 3.20439Z" fill="#7EA15F"/>
<path d="M23.5488 3.20439C23.4331 3.11159 23.3481 2.73574 23.1678 3.04626C22.8839 3.53579 22.419 3.90537 21.9782 3.69523C21.5051 3.4689 21.0939 2.95209 21.2721 2.259C21.3062 2.12168 21.124 1.93216 21.0404 1.76368C22.3477 1.09992 23.6802 0.822989 25.0426 1.5924C25.6497 1.93541 25.9403 2.44203 25.5895 3.14127C25.2011 2.6543 25.1284 3.02338 25.0436 3.33848C24.9291 3.75948 25.0462 4.28603 24.3213 4.58248C24.9103 3.55187 23.7872 3.68995 23.5488 3.20439Z" fill="#92B270"/>
<path d="M37.5346 7.26308C36.8321 6.86101 36.8419 7.91955 36.3 7.84713C36.2413 7.7643 36.2187 7.59995 36.137 7.60473C35.9717 7.61295 36.0198 7.80325 35.9588 7.90805C35.0945 8.10416 34.5663 7.48796 33.9533 7.08648C33.7334 6.94303 33.6033 6.72864 33.8652 6.52227C35.1642 5.4975 33.9928 5.17297 33.3395 4.70401C33.2257 4.62107 33.0889 4.57129 33.0191 4.41219C34.1931 4.51497 35.0978 5.05695 35.716 6.07531C35.9659 6.48557 35.9739 6.4824 36.2343 6.29504C35.868 5.79722 37.5161 6.31334 36.6469 5.42277C36.1743 4.93594 35.4122 4.68267 35.2214 3.93135C36.6011 4.80993 37.7402 5.94372 38.7644 7.19733C38.4444 7.09778 38.2657 6.72721 37.8805 6.75537C37.8927 6.90121 37.9049 7.04704 37.917 7.19288C37.8049 7.30026 37.6772 7.32541 37.5346 7.26308Z" fill="#95B877"/>
<path d="M26.6611 19.6685C26.9712 19.7614 27.2813 19.8542 27.5894 19.9457C27.2211 20.7248 26.5046 21.1559 25.8471 21.6442C25.4626 21.6671 25.0606 22.0422 24.7229 21.4778C24.168 20.5483 23.416 20.7833 22.5805 21.1222C21.8296 21.4268 21.099 22.092 20.1758 21.5517C20.1363 21.4704 20.1416 21.4082 20.1866 21.3642C20.2363 21.3176 20.2677 21.3016 20.2854 21.3137C21.694 21.0024 22.8575 19.817 24.4669 20.1921C24.8918 20.2912 25.081 19.7288 25.4959 19.7122C25.8846 19.6749 26.2824 19.9218 26.6611 19.6685Z" fill="#CBDCAE"/>
<path d="M16.569 19.9535C16.5462 20.8036 16.0068 21.4608 15.6344 22.3547C16.6351 21.8068 17.7295 22.1794 18.6236 21.6051C18.9717 21.7438 19.4055 21.3731 19.7051 21.7913C19.2075 22.497 18.3439 22.7424 17.747 23.3234C17.0013 23.0841 16.3552 23.1244 15.6774 23.642C15.0405 24.13 14.7436 23.8798 14.7542 22.9928C15.3602 21.9795 15.9663 20.9662 16.569 19.9535Z" fill="#ACC487"/>
<path d="M14.7561 22.9941C14.876 23.6257 15.1103 24.0082 15.6852 23.3291C16.3865 22.5008 17.0582 22.6584 17.7503 23.3228C16.4991 23.5201 15.5998 24.303 14.7215 25.1144C14.4578 25.3568 14.1629 25.6527 13.8076 25.5664C13.3874 25.4648 13.754 25.0027 13.5691 24.7541C13.9604 24.1682 14.3583 23.5812 14.7561 22.9941Z" fill="#C0D497"/>
<path d="M35.0787 3.82309C34.8149 3.73875 34.541 3.6733 34.2868 3.56678C31.6938 2.48712 31.1233 2.63609 29.37 4.85736C28.3902 6.5486 27.3356 8.17188 25.5303 9.13981C25.4704 9.09634 25.4119 9.05091 25.3547 9.00354C26.7492 7.14937 28.2955 5.42394 29.8825 3.73187C31.3337 2.18557 33.5085 2.2306 35.0787 3.82309Z" fill="#8DAD70"/>
<path d="M25.2024 9.14383C25.0563 9.37148 24.9162 9.60315 24.7656 9.82483C24.5298 10.1694 24.2435 10.4193 23.7915 10.2045C23.385 10.0119 23.2461 9.64249 23.2921 9.24089C23.3408 8.82687 23.4757 8.42255 23.5772 7.98694C23.9043 7.98816 24.154 8.64187 24.5219 8.11478C24.5202 8.53208 24.5199 8.94743 24.5153 9.38569C24.8288 9.53239 24.9311 9.08301 25.2024 9.14383Z" fill="#8DAD70"/>
<path d="M21.0463 1.7677C20.4091 2.88885 20.1016 4.13331 19.6811 5.33553C19.5395 5.74106 19.3683 6.13503 19.2095 6.5318C19.2358 5.1109 19.8425 3.82856 20.2102 2.49307C20.3059 2.14531 20.5762 1.79273 21.0463 1.7677Z" fill="#92B270"/>
<path d="M27.5881 19.9477C28.4053 19.2037 29.276 18.5333 30.3136 18.1079C29.5381 18.9175 28.7092 19.6449 27.5881 19.9477Z" fill="#CBDCAE"/>
<path d="M19.7084 21.7907C19.3396 21.7784 18.9345 21.9651 18.627 21.6045C19.1411 21.2855 19.6359 20.8645 20.2901 21.3111C20.2534 21.3894 20.2172 21.4709 20.1804 21.5491C20.0396 21.6686 19.9282 21.8337 19.7084 21.7907Z" fill="#92B36D"/>
<path d="M25.5303 9.13981C26.4115 8.14407 27.3263 7.1711 28.1628 6.1393C28.5366 5.67922 28.9031 5.22561 29.368 4.85602C29.4727 5.76101 30.3831 6.15215 30.7098 6.91256C30.8783 7.30202 31.1967 7.20272 31.3993 7.07362C32.094 6.63634 32.5974 6.99497 33.1115 7.39247C33.3337 8.2912 32.84 8.79031 32.1153 9.17863C28.0152 11.3728 24.1737 13.923 20.8472 17.1836C20.4208 17.6023 19.8028 17.7277 19.3281 18.082C18.7522 18.5741 18.1762 19.0662 17.4092 19.721C17.5779 18.3794 19.0192 18.1591 19.1408 17.0952C20.9914 14.2263 23.5186 11.8851 25.5303 9.13981Z" fill="#77A750"/>
<path d="M19.3281 18.082C21.6459 15.8167 24.1416 13.7723 26.8749 12.0094C28.613 10.887 30.2131 9.54484 32.1953 8.82015C32.8678 8.57416 32.8612 7.90478 33.1122 7.39576C34.3855 8.0675 35.6556 8.73984 36.9289 9.41157C36.9047 9.77344 36.8312 10.1478 36.5386 10.3649C35.928 10.8191 35.8585 11.1875 36.4643 11.7503C36.8922 12.1466 36.5911 12.5729 36.1179 12.7449C35.4541 12.9825 34.9359 13.5337 34.1895 13.5806C33.8016 13.6041 33.5142 13.8304 33.3675 14.1723C32.9844 15.0732 32.4186 15.6093 31.3664 15.8672C30.6329 16.046 30.3404 17.0886 29.6019 17.522C29.2431 17.7343 28.9798 18.106 28.6736 18.4056C28.517 18.4054 28.3105 18.4688 28.2086 18.3939C27.0937 17.5688 26.166 17.7851 25.3314 18.8182C25.256 18.9103 24.9205 18.8919 24.7675 18.8111C23.7025 18.2492 22.4135 18.4926 21.3607 17.8042C20.7009 17.3739 20.0354 18.1462 19.3281 18.082Z" fill="#709C4C"/>
<path d="M25.4959 19.7122C25.1102 20.3362 24.6448 20.6854 23.8459 20.347C23.4683 20.1882 23.0738 20.3764 22.7295 20.5928C21.9846 21.0648 21.1465 21.2271 20.2848 21.3104C21.3283 20.8432 22.008 19.6648 23.4389 19.9247C24.0931 20.0446 24.8095 19.794 25.4959 19.7122Z" fill="#92B36D"/>
<path d="M37.5346 7.26308C37.661 7.23988 37.7893 7.21802 37.9157 7.19483C38.4343 7.8332 38.9435 8.4767 39.4755 9.1041C39.6771 9.34113 39.779 9.58794 39.6298 9.8536C39.4555 10.1681 39.1381 10.0187 38.8775 9.99679C38.279 9.94327 37.6955 9.84272 37.2518 9.38123C37.3028 8.67065 37.7241 8.00781 37.5346 7.26308Z" fill="#A1BA89"/>
<path d="M31.4101 5.89726C30.5031 5.71483 30.2464 5.15093 30.3853 4.19614C31.0122 4.7074 30.745 5.57511 31.4101 5.89726Z" fill="#77A750"/>
<path d="M35.9575 7.91C35.593 7.64842 35.7217 7.42906 36.0018 7.20064C36.1137 7.11031 36.191 6.91912 36.3452 7.11547C36.5381 7.36091 36.4395 7.61217 36.3 7.84713C36.1856 7.86983 36.0705 7.88925 35.9575 7.91Z" fill="#B6D498"/>
</svg>
