<svg width="60" height="47" viewBox="0 0 60 47" fill="none" xmlns="http://www.w3.org/2000/svg">
<path d="M8.92598 18.2314C9.30184 18.8921 9.6777 19.5528 10.0607 20.2283C10.5547 19.9796 10.6084 19.5082 10.6908 19.0554C10.8268 18.0792 11.6573 17.5707 12.1011 16.7986C12.2193 16.6613 12.3374 16.5276 12.4555 16.3903C12.8421 15.9263 12.545 15.3547 12.6739 14.8499C12.8171 14.4935 12.9459 14.1186 13.4184 14.1335C14.7787 16.2344 14.7286 18.1497 13.2574 20.4139C12.588 21.6611 11.4067 22.7487 12.0904 24.4227C12.2443 24.7494 12.3875 25.076 12.4734 25.4286C12.5951 26.364 12.903 27.2474 13.1786 28.142C13.4721 29.6898 13.8158 31.2339 13.6368 32.8337C13.6189 33.1158 13.5581 33.3868 13.4399 33.6429C12.8851 34.3445 12.3589 33.6244 11.8183 33.6021C10.7158 32.6296 10.1001 31.3342 9.57748 29.9756C9.51662 28.9215 9.26247 27.8413 9.89607 26.8651C10.05 26.7389 10.2147 26.7241 10.3865 26.8243C10.9055 27.5147 10.6943 28.3424 10.8125 29.2518C11.2277 27.6446 11.0881 26.2081 10.5619 24.7902C9.50231 22.0434 11.7181 20.3657 12.4949 18.391C11.9973 19.3004 11.3924 20.3323 10.7767 21.3604C10.118 22.4592 9.66697 22.4183 9.07991 21.2194C8.70762 20.4548 8.31386 19.679 8.37471 18.7733C8.4642 18.4875 8.64318 18.3019 8.92598 18.2314Z" fill="#E9D8B7"/>
<path d="M21.4261 40.9218C21.5049 41.0146 21.5729 41.1112 21.6588 41.1928C22.3175 41.8053 23.957 41.8053 23.241 43.3048C22.5788 44.6894 21.3188 44.9603 19.9406 44.2811C19.3249 43.7614 18.8631 43.9284 18.5123 44.6188C17.825 45.0977 17.2093 45.1422 16.7332 44.3145C15.8347 43.7169 15.8347 42.7518 15.7774 41.809C15.9099 41.2151 15.9385 40.5766 16.4433 40.1461C16.9587 40.0087 17.0948 40.7028 17.5565 40.688C17.7033 40.74 17.825 40.8253 17.9181 40.9404C17.8393 41.809 18.838 41.4601 19.0492 42.002C19.443 42.5848 20.0587 42.8037 20.5634 42.9931C20.141 42.7072 19.4466 42.6293 19.1244 41.9871C18.9311 41.3487 19.2318 41.0035 19.7795 40.8105C20.32 41.0369 20.8892 40.714 21.4261 40.9218Z" fill="#EBDCBF"/>
<path d="M36.4356 35.02C35.0575 34.9606 33.8977 34.0995 32.5625 33.8842C29.577 33.4054 28.0163 35.8218 26.1012 37.4216C24.6371 38.6428 23.5059 40.3279 21.4405 40.5729C21.4082 40.495 21.3724 40.4133 21.3366 40.3354C23.1587 38.3458 25.1848 36.5901 27.1965 34.8159C27.6905 34.3816 28.274 34.0549 28.7501 33.5872C29.4231 33.0453 29.8849 32.1433 30.9158 32.1953C32.1222 32.7632 33.4824 32.7372 34.6995 33.2458C35.3975 33.539 36.228 33.6466 36.6003 34.4892C36.6182 34.6934 36.5645 34.8715 36.4356 35.02Z" fill="#E9D7B9"/>
<path d="M40.8172 16.8654C40.359 17.4853 39.6896 17.7154 39.013 17.953C38.2899 18.2054 38.0179 18.5246 38.025 19.5231C38.0465 21.9024 38.4188 23.569 41.2467 23.3871C42.3421 23.3166 43.0258 24.4747 43.9959 24.8867C43.6272 25.4769 43.0867 25.5697 42.471 25.4509C41.0856 24.4004 39.5249 24.1889 37.8818 24.4561C37.2912 24.5526 36.7113 24.7345 36.1457 24.3893C35.9273 24.1852 35.8701 23.9328 35.9273 23.6469C37.4415 23.3871 36.024 22.6151 36.1708 22.1177C36.1887 21.9469 36.2459 21.7873 36.3318 21.6388C37.4773 20.7703 37.2912 19.8943 36.3426 19.0146C36.2817 18.8475 36.2638 18.6768 36.296 18.5023C37.4988 17.5038 38.7875 16.6724 40.3088 16.2975C40.5773 16.3866 40.7527 16.5722 40.8172 16.8654Z" fill="#EBD9B7"/>
<path d="M35.3725 5.29561C35.3975 5.23993 35.4154 5.18054 35.4477 5.12857C36.518 3.22811 38.0966 2.52286 39.5499 3.32833C40.7491 3.99275 41.0283 5.03949 40.5737 6.31265C39.9974 7.93101 38.383 8.55089 36.407 7.94586C35.9989 7.61922 35.2902 7.47817 35.6839 6.66527C36.8545 5.65565 38.1968 5.64081 39.5893 5.94147C39.6788 6.04169 39.7075 6.14933 39.6752 6.2644C39.6394 6.38317 39.5678 6.47597 39.4569 6.53536C39.5822 6.52422 39.6287 6.41287 39.711 6.3275C39.6036 5.07661 39.2886 4.06327 37.7458 4.44931C37.2088 4.65346 36.9296 5.136 36.6182 5.58142C36.3497 5.92662 36.0848 6.28296 35.5801 6.19016C35.1971 5.96745 35.0897 5.68164 35.3725 5.29561Z" fill="#F4C947"/>
<path d="M36.8187 29.7752C36.0132 29.8197 36.2674 27.9527 35.0539 28.7247C34.7854 28.6691 34.6208 28.4946 34.5277 28.2348C34.678 27.188 34.2234 27.3476 33.6471 27.7634C33.1996 28.0009 32.5589 27.8896 32.3369 28.5429C32.1508 28.9363 31.8752 29.1999 31.4349 29.237C30.2822 29.0922 29.5233 30.0387 28.5353 30.3505C27.934 30.5398 27.4614 31.1077 26.7563 31.0038C26.5128 30.8665 26.3518 30.666 26.3231 30.3691C28.2526 27.8376 31.1914 27.0544 33.8118 25.7256C34.3917 25.4323 35.036 25.2505 35.7054 25.4509C36.7256 25.8035 36.858 26.7129 36.9798 27.6297C37.0263 28.1049 37.0657 28.5874 37.2697 29.0291C37.3413 29.4226 37.0549 29.5822 36.8187 29.7752Z" fill="#EAD9BD"/>
<path d="M13.1321 14.2374C13.1428 14.501 13.1392 14.7571 12.8636 14.8981C12.5808 14.887 12.3016 14.7497 12.0188 14.8833C11.2993 15.5366 10.5511 16.1193 9.53452 16.1156C8.82933 16.1119 8.06328 16.2418 7.66952 15.3992C7.2507 14.5084 7.49054 13.6881 8.08834 13.0162C9.36628 11.5835 10.8697 11.5649 12.4663 12.3964C12.7526 12.5411 12.9853 12.7378 13.1034 13.0571C13.2287 13.4468 13.2216 13.8403 13.1321 14.2374Z" fill="#F2CB59"/>
<path d="M26.0367 15.6665C27.0068 13.7252 28.4888 12.4446 30.565 11.9769C31.1449 11.847 31.757 11.8396 32.0541 11.1974C32.1723 10.945 32.047 10.6666 31.8143 10.5961C31.2416 10.4217 30.6473 10.3994 30.0961 10.6926C29.7309 10.8856 29.4159 11.2457 29.0365 11.3348C28.1559 11.5426 28.3814 10.9821 28.5819 10.4922C29.9815 10.0542 31.3669 9.5568 32.8667 9.73125C33.1424 10.2695 32.9634 10.8597 33.0529 11.4239C32.6555 12.645 32.5267 14.0333 31.1914 14.6828C30.923 14.6309 30.7404 14.4639 30.6187 14.2226C30.5614 13.9962 30.6366 13.6324 30.4719 13.547C29.6271 13.0979 27.9017 14.5084 27.9483 15.5811C27.8445 15.9337 27.5581 16.0748 27.2646 16.201C27.1071 16.2455 26.9496 16.253 26.7885 16.2307C26.4735 16.1379 26.1907 15.9894 26.0367 15.6665Z" fill="#EDDFC5"/>
<path d="M28.9577 4.91329C29.305 5.16569 29.6558 5.14342 30.0066 4.92442C30.25 5.11373 30.5543 5.13228 30.8299 5.23622C31.2308 5.3884 31.6425 5.59626 31.5816 6.11221C31.5208 6.62444 31.059 6.8286 30.6545 6.76549C28.5747 6.44999 27.1071 7.77883 25.5034 8.75504C25.0344 9.10767 24.5727 9.48627 24.1789 9.91313C23.1873 10.9859 22.7399 10.5813 22.5072 9.35265C23.3413 7.12554 25.3673 6.51309 27.2037 5.66679C27.7729 5.40325 28.453 5.37727 28.9577 4.91329Z" fill="#FBF8EF"/>
<path d="M42.4853 25.2245C42.99 25.1131 43.4911 24.9981 43.9959 24.8867C45.5172 25.7701 45.8931 27.1324 45.4349 28.7804C45.1772 29.6972 44.6796 30.525 43.6487 30.5473C42.539 30.5695 42.0306 29.7269 41.6834 28.747C41.4006 27.949 41.5044 27.188 41.8123 26.4308C42.1846 26.1376 41.823 25.6625 42.0664 25.3358C42.1846 25.2282 42.3242 25.1874 42.4853 25.2245Z" fill="#F7CD51"/>
<path d="M13.1643 33.8768C13.1714 33.6281 13.1822 33.3794 13.1894 33.1307C13.4542 32.5034 13.7514 31.9281 14.342 32.8523C14.8288 33.6132 14.7143 34.5041 14.7465 35.3578C14.7322 36.9613 14.7393 38.5648 14.7358 40.1721C14.7322 41.2114 14.4422 42.1393 13.7299 42.8594C12.9567 43.6389 12.1262 43.9581 11.3888 42.7703C11.131 42.3286 10.6943 42.4363 10.3077 42.3917C10.569 41.0332 11.8971 41.6828 12.5629 41.0926C12.6703 40.8031 12.7133 40.4876 12.928 40.2537C13.7012 38.7616 12.9209 37.3102 12.8171 35.8403C12.7276 35.1425 12.6202 34.4447 13.1643 33.8768Z" fill="#FAF3E1"/>
<path d="M2.47543 21.1489C1.58768 18.3873 3.19495 16.2715 6.03004 16.4682C6.58846 16.7503 6.7925 17.2886 6.95359 17.8565C7.01444 18.1052 7.01444 18.3539 6.96074 18.6026C6.89631 18.8438 6.79608 19.074 6.69227 19.2967C6.3164 20.0093 6.11595 20.8705 5.26757 21.2083L5.29263 21.1971C4.34402 21.7168 3.3954 22.2624 2.47543 21.1489Z" fill="#F4CB56"/>
<path d="M10.2862 26.828C9.62401 27.897 10.118 29.0848 9.95334 30.2058C9.16223 30.3654 8.82575 29.6304 8.28164 29.3001C7.6552 28.8547 6.99654 28.4575 6.31283 28.1271C5.74008 27.8525 5.12796 27.511 4.56237 28.1791C4.43351 28.2905 4.29032 28.3647 4.13282 28.4129C3.56723 28.2719 3.0625 28.0343 2.75107 27.4813C3.23074 27.2808 3.72831 26.8688 4.18651 26.9134C6.58846 27.1509 6.54551 25.5771 6.39874 23.8771C6.54193 23.6544 6.61352 23.3389 6.97148 23.3945C7.52275 23.7323 7.49769 24.3114 7.54423 24.8607C7.6015 25.6773 7.38314 26.557 8.03106 27.2437C8.2888 27.485 8.51432 27.923 8.89376 27.7559C9.3627 27.5481 9.0978 27.0024 9.18013 26.6053C9.19803 26.2155 9.26962 25.8369 9.45219 25.488C9.70634 25.1985 9.97482 24.6603 10.3757 25.0946C10.8626 25.6254 10.8232 26.2823 10.2862 26.828Z" fill="#E6D1AC"/>
<path d="M35.8378 6.74322C35.6052 7.35939 36.2567 7.52271 36.4034 7.94215C35.3438 8.39128 35.0611 9.09653 35.7269 10.121C35.9202 10.4773 35.7054 10.7483 35.5622 11.0378C35.2257 11.6651 35.7484 11.9064 36.0777 12.2033C36.6612 12.7304 36.9762 13.3169 36.6111 14.1186C36.5001 14.256 36.3605 14.3302 36.1887 14.3414C35.8128 14.308 35.6768 13.9368 35.394 13.7178C35.6553 14.0407 35.7233 14.3822 35.6768 14.7534C35.5837 15.1246 35.4333 15.4326 34.9895 15.4029C33.9406 14.7794 34.3845 13.3689 33.6041 12.6005C33.1567 10.3326 34.3845 8.59172 35.3188 6.75436C35.4942 6.66899 35.666 6.66156 35.8378 6.74322Z" fill="#EBDAB2"/>
<path d="M11.3816 42.7666C13.3469 43.2566 14.2239 42.4623 14.2489 40.1312C14.2668 38.5388 14.2561 36.9465 14.2561 35.3541C14.6105 34.4818 14.4029 33.6132 14.299 32.7298C14.2274 32.1211 14.0234 31.3527 15.0007 31.2377C15.8383 32.5999 15.5376 34.0846 15.3157 35.5063C15.108 36.85 15.0544 38.1714 15.219 39.5076C15.3658 39.9716 15.4087 40.4579 15.4589 40.9404C16.1748 42.8891 14.4494 42.852 13.5366 43.4793C11.7324 44.5186 11.4532 44.4258 11.3816 42.7666Z" fill="#EDDCBF"/>
<path d="M12.86 13.1499C12.7276 12.8975 12.5951 12.6488 12.4627 12.3964C12.903 12.2998 13.4507 12.8195 13.7872 12.2627C14.9541 10.3326 16.003 11.0972 17.0518 12.3667C17.0482 13.38 17.0482 13.38 15.2656 14.4045C14.972 14.5789 14.6749 14.7348 14.3205 14.7125C13.6404 14.3933 13.3361 13.6844 12.86 13.1499Z" fill="#EECF7D"/>
<path d="M22.8294 9.37863C23.0012 9.76466 22.8795 10.6258 23.7028 9.90571C24.2254 9.44915 24.7946 9.04828 25.3459 8.62141C25.6895 8.51377 25.7897 8.66224 25.7038 8.99631C24.8662 9.86488 24.025 10.7372 23.1873 11.6057C22.7112 12.1922 23.488 12.6116 23.3806 13.1461C23.3234 13.6398 23.2303 14.1224 23.1086 14.6049C22.9511 15.1023 22.901 15.6368 22.6575 16.1119C22.4929 16.3532 22.2817 16.5165 21.9953 16.561C21.7948 16.5388 21.6552 16.4311 21.5693 16.2418C21.3331 15.2656 21.5657 14.2857 21.7555 13.3651C22.2316 11.0749 21.8378 9.04085 20.5241 7.16637C20.4668 6.85458 20.5098 6.57248 20.7639 6.3609C21.5765 6.49453 21.8163 7.21463 22.1635 7.82708C22.7721 8.16857 22.5609 8.88867 22.8294 9.37863Z" fill="#E8D2A8"/>
<path d="M25.7003 9.00002C25.5821 8.87382 25.464 8.75133 25.3423 8.62513C27.0211 7.07729 28.9148 6.08252 31.2917 6.32379C31.127 5.39954 29.9064 5.87836 30.003 4.92442C31.0089 4.43446 31.8716 4.71285 32.0434 5.81526C32.1938 6.78405 31.3525 7.66005 30.5113 7.40393C28.5568 6.81004 27.372 7.96813 26.0618 9.00373C25.9472 9.00373 25.822 9.00002 25.7003 9.00002Z" fill="#EDE0C7"/>
<path d="M9.23025 38.357C8.29596 35.6993 7.00012 33.1455 7.05382 30.2021C7.10035 29.9274 7.26144 29.7529 7.50485 29.649C7.66952 29.623 7.8306 29.649 7.98452 29.7158C8.70762 30.3765 9.64907 30.8628 9.70276 32.0543C9.58105 32.2918 9.40207 32.4551 9.14434 32.5034C8.01674 32.4663 8.72193 33.2606 8.78995 33.5613C9.09422 34.8901 9.89606 36.0779 9.82447 37.5218C9.72424 37.8781 9.56316 38.1825 9.23025 38.357Z" fill="#E9D9BE"/>
<path d="M2.75107 27.4887C3.42762 27.4107 3.82497 27.871 4.22947 28.3164C4.65903 29.0551 4.40129 29.8086 4.28316 30.5584C4.1006 30.937 3.96458 31.3564 3.72116 31.6868C3.2737 32.2955 2.70095 32.7484 1.90627 32.4514C1.12233 32.1582 0.914705 31.4975 0.961241 30.6846C1.03283 29.2964 1.69507 28.2756 2.75107 27.4887Z" fill="#EFC857"/>
<path d="M20.7603 6.36833C20.7603 6.643 20.7567 6.91768 20.7567 7.18864C20.9214 7.52642 21.061 7.87162 20.9536 8.26137C20.8355 8.53233 20.6816 8.74391 20.3451 8.63997C19.3678 8.85155 18.5338 9.49741 17.5028 9.58278C16.8764 9.63475 16.3287 9.67929 15.9314 9.07426C16.0101 8.81443 16.1461 8.59914 16.3681 8.44696C16.7905 8.2094 17.2773 8.22425 17.7176 8.06835C18.2725 7.87533 18.9669 7.71944 19.0886 7.07729C19.2211 6.40173 18.2796 6.50195 18.0577 5.99714C17.9646 5.72618 17.9932 5.47749 18.1937 5.26591C19.3034 4.99866 20.005 5.74845 20.7603 6.36833Z" fill="#F5CD55"/>
<path d="M47.5505 15.3176C48.202 16.7949 48.0946 18.1905 47.0243 19.408C46.4515 20.0576 45.7105 20.2469 44.9373 19.7644C43.5592 18.9032 43.4196 17.541 43.6129 16.0637C43.8813 15.8521 43.6701 15.3473 44.089 15.2322C44.3646 15.2916 44.5185 15.4846 44.6187 15.7407C44.9839 16.6687 44.3503 18.3984 45.775 18.391C46.9813 18.3873 46.5768 16.7429 46.8632 15.815C46.9348 15.5811 46.8847 15.8892 46.9276 15.6442C47.0672 15.3918 47.2355 15.1988 47.5505 15.3176Z" fill="#F0C045"/>
<path d="M13.1822 41.3302C13.0927 42.0725 12.6954 41.8832 12.1906 41.7756C11.4962 41.6271 10.8662 41.9612 10.3006 42.388C9.2911 42.6998 8.37113 43.3345 7.23638 43.1972C6.63142 43.123 5.9656 43.1415 5.74366 42.4511C5.51099 41.7273 5.51815 40.9701 6.39874 40.6138C6.635 40.8365 6.86768 41.0592 6.98223 41.3784C7.49054 42.2767 8.22437 41.9018 8.8687 41.6754C9.70992 41.3821 10.4867 40.907 11.353 40.662C11.6036 40.5952 11.8577 40.5804 12.1119 40.6249C12.5379 40.7474 12.8421 41.0666 13.1822 41.3302Z" fill="#E6D3B0"/>
<path d="M36.4356 35.02C36.4392 34.8827 36.4428 34.7453 36.45 34.608C36.4822 34.3185 37.1802 34.6711 36.8759 34.3185C36.16 33.4945 35.1255 33.1827 34.1017 32.8931C33.5898 32.7484 32.8596 32.8709 32.8059 31.9874C33.0207 31.6682 33.3249 31.4975 33.6757 31.3973C35.2472 31.2748 36.4571 32.0209 37.5203 33.1158C37.6491 33.2383 37.7709 33.372 37.9069 33.4833C38.5584 34.0178 39.4712 34.6229 38.7016 35.5285C37.8854 36.4973 37.012 36.0816 36.4356 35.02Z" fill="#E6D4B5"/>
<path d="M11.4031 40.933C10.1073 41.5863 8.89734 42.4845 7.35093 42.4251C6.54193 42.3954 6.20902 42.1356 6.78534 41.345C6.72807 41.0258 8.02033 41.2522 7.07172 40.5766C7.67668 40.4467 8.27806 40.3131 8.88302 40.1832C9.36628 40.7697 9.81731 39.9493 10.2934 40.1424C10.7802 40.2277 11.4174 40.0978 11.4031 40.933Z" fill="#F9F3E5"/>
<path d="M20.3415 8.63997C20.4704 8.51006 20.6028 8.37643 20.7317 8.24652C20.9071 8.26508 21.1004 8.27621 21.1935 8.45809C22.2924 10.5553 21.5192 16.2418 19.894 18.0755C19.6184 18.1943 19.3392 18.2054 19.0564 18.0903C18.5553 16.7244 19.9764 15.8261 19.8547 14.5529C19.8905 14.204 19.9513 13.8588 20.0372 13.521C20.1983 12.6339 20.5813 11.7319 19.8833 10.8968C19.8153 10.7372 19.8404 10.5961 19.9656 10.4736C20.3021 9.90942 20.4203 9.29697 20.3415 8.63997Z" fill="#E8D1A6"/>
<path d="M22.8294 9.37863C22.6038 8.86268 22.3819 8.35045 22.1564 7.8345C22.8401 8.04979 23.2339 7.57096 23.6992 7.18122C25.2313 5.89321 26.9281 4.97639 28.9577 4.91329C28.8504 5.93775 27.9304 5.71876 27.3576 6.0157C25.6716 6.8917 23.6921 7.31856 22.8294 9.37863Z" fill="#EBDBBC"/>
<path d="M36.8187 29.7752C36.944 29.5488 37.0692 29.3223 37.1945 29.0959C37.1587 28.3424 37.8353 27.7745 37.7028 26.9542C37.3485 27.2548 37.3306 27.8525 36.8079 27.9415C36.1886 27.3291 36.6468 26.1561 35.7269 25.6959C35.802 25.3878 35.9918 25.1799 36.2638 25.05C36.6325 24.9015 37.0156 24.8607 37.4057 24.857C38.0322 24.9646 38.8627 24.69 38.9951 25.7478C39.0703 27.5592 38.9772 29.2667 36.8187 29.7752Z" fill="#E5CC9B"/>
<path d="M19.9728 10.4773C19.9764 10.6147 19.9835 10.7557 19.9871 10.8931C20.4918 11.7394 19.7974 12.2553 19.4394 12.8121C18.924 13.6176 18.2259 14.2931 17.8178 15.1839C17.3167 15.9894 16.658 16.6724 16.1354 17.4667C15.9278 17.7822 15.6736 18.2239 15.1761 17.8194C14.8611 17.296 14.8825 16.7503 15.0866 16.1936C16.164 15.1765 16.6258 13.6213 17.8644 12.7416C18.702 12.1217 18.9884 10.9487 19.9728 10.4773Z" fill="#EBDDC1"/>
<path d="M13.5437 43.483C13.9912 43.1675 13.848 42.169 14.9792 42.5402C15.5269 42.7221 15.0722 41.7422 14.9899 41.2856C15.3515 40.9218 15.2691 40.4133 15.4016 39.9753C15.5125 39.6153 15.6557 39.0993 16.1998 39.5819C16.2929 40.2834 16.3001 40.9775 16.0567 41.6531C16.2822 42.5365 16.5113 43.4236 16.7368 44.307C16.5041 44.5372 16.275 44.7673 16.0423 44.9974C15.7452 44.8156 15.7882 44.2588 15.3049 44.2848C15.0866 44.0361 14.8682 43.7911 14.6499 43.5424C14.1738 43.7354 14.1988 44.3033 13.9053 44.63C13.4471 44.359 13.5652 43.8987 13.5437 43.483Z" fill="#F9F0DD"/>
<path d="M38.587 15.3102C39.7325 14.5566 40.8458 13.7438 42.1416 13.2649C43.0401 12.9346 43.8778 12.9606 44.6868 13.5025C44.8622 14.0073 44.6545 14.3599 44.2644 14.6383C44.0961 14.6903 43.9315 14.6754 43.7704 14.6123C43.0186 14.1224 42.3421 14.4676 41.6405 14.7794C40.7491 15.1765 39.9688 15.8743 38.9271 15.8818C38.6694 15.7853 38.4761 15.6442 38.587 15.3102Z" fill="#ECD6AB"/>
<path d="M35.3689 10.8634C35.4906 10.6184 35.6123 10.3697 35.734 10.1247C37.7028 10.4476 37.9463 10.8634 37.8997 13.8514C37.6706 14.0444 37.4236 14.0667 37.1552 13.9553C36.7829 12.7861 35.8486 11.9658 35.3689 10.8634Z" fill="#F3D474"/>
<path d="M34.6422 29.7529C34.2019 30.1352 33.7688 30.525 33.3178 30.8925C32.6842 31.4047 33.1638 31.5272 33.5648 31.6868C33.3178 31.8093 33.0743 31.9318 32.8274 32.0543C32.294 32.4811 31.8071 32.4588 31.3704 31.9021C32.0398 30.2874 33.0887 29.0402 34.6494 28.2942C34.7854 28.4389 34.9214 28.58 35.0575 28.7247C34.9179 29.0662 34.7783 29.4114 34.6422 29.7529Z" fill="#E5CFA9"/>
<path d="M44.0138 14.6383C44.2393 14.2597 44.4648 13.8811 44.6868 13.5062C46.1795 13.1981 47.1245 13.818 47.5469 15.3213C47.418 15.4512 47.2856 15.5811 47.1567 15.711C46.4301 15.9857 46.2546 14.5232 45.4277 15.1283C45.3382 15.2508 45.2416 15.3658 45.1414 15.4772C44.9051 15.6776 44.6689 15.8892 44.3324 15.7036C44.2214 15.5774 44.1104 15.4549 43.9995 15.3287C43.756 15.0912 43.7883 14.861 44.0138 14.6383Z" fill="#F4C951"/>
<path d="M18.1937 5.27333C18.1866 5.5146 18.1794 5.75959 18.1758 6.00085C17.9217 6.43514 17.4205 6.41287 17.059 6.64672C16.8871 6.77292 16.744 6.92139 16.6401 7.11441C16.3824 7.59323 16.7153 8.17228 16.4039 8.63997C16.2464 8.78473 16.0853 8.93321 15.9278 9.07797C14.793 7.49301 15.1331 6.17531 16.8657 5.64081C17.3024 5.50718 17.6747 5.08403 18.1937 5.27333Z" fill="#F1C341"/>
<path d="M38.9951 25.7516C38.4975 25.0686 37.7709 25.436 37.148 25.3173C38.2863 24.0627 40.921 24.0812 42.1882 25.3507C42.1667 25.7516 42.2132 26.1747 41.8087 26.4345C41.1465 24.9906 39.9437 25.9334 38.9951 25.7516Z" fill="#EBD9B7"/>
<path d="M4.28316 30.5584C4.26526 29.8123 4.24737 29.0625 4.22947 28.3164C4.23305 28.1939 4.23663 28.0715 4.24021 27.9527C5.67565 27.8784 6.97507 28.0603 7.4619 29.7826C7.32587 29.9237 7.18984 30.061 7.05382 30.2021C6.91063 30.0944 6.75671 30.0016 6.62784 29.8791C5.48951 28.7953 4.64113 28.7619 4.28316 30.5584Z" fill="#E8D1A6"/>
<path d="M44.0138 14.6383C44.0102 14.8684 44.0066 15.0949 43.9995 15.325C43.8706 15.57 43.7381 15.815 43.6093 16.0637C43.5305 15.5217 43.348 15.2693 42.7967 15.6442C42.1524 16.0822 41.4758 16.4608 40.8136 16.8691C40.6704 16.7281 40.5272 16.5833 40.3876 16.4385C41.2181 15.1171 42.181 14.0518 43.9171 14.5121L44.0138 14.6383Z" fill="#EED6A2"/>
<path d="M37.2053 13.7623C37.4344 13.792 37.667 13.8217 37.8961 13.8514C38.1002 14.3525 37.105 15.4623 38.587 15.3102C38.7123 15.4438 38.834 15.5737 38.9593 15.7073C39.0488 16.1899 38.723 16.2381 38.3973 16.2864C37.9355 16.2233 37.4737 16.2047 37.0048 16.2196C36.8437 16.1899 36.7113 16.1119 36.5967 15.9931C36.2889 15.4364 35.8128 14.9278 36.0956 14.1966C36.2101 14.1966 36.3283 14.2003 36.4428 14.2003C36.9977 14.616 36.9905 13.985 37.2053 13.7623Z" fill="#F1E4CD"/>
<path d="M35.3725 5.29561C35.4011 5.59255 35.4262 5.88579 35.7448 6.02313C35.8307 6.12335 35.8629 6.22357 35.8378 6.3275C35.8128 6.43143 35.7877 6.48339 35.7591 6.48339C34.6064 6.76549 34.9322 8.43211 33.7974 8.73277C33.3715 8.53975 33.3536 8.23167 33.5683 7.85678C33.7509 6.69126 34.4633 5.92291 35.3725 5.29561Z" fill="#EBD69E"/>
<path d="M33.5648 7.86049C33.5934 8.16486 33.6364 8.46181 33.9299 8.62884C34.1805 9.76466 33.844 10.6407 32.8488 11.2234C32.2081 10.7223 32.72 10.2286 32.8596 9.73497C33.0207 9.07797 33.1137 8.3987 33.5648 7.86049Z" fill="#E7D6B3"/>
<path d="M9.23025 38.357C9.25531 38.0563 9.2911 37.7594 9.58463 37.5923C10.4867 38.112 11.1167 38.8321 11.1919 39.9568C10.3614 40.8922 10.2147 39.9939 9.93186 39.452C9.69918 39.0882 9.46293 38.7207 9.23025 38.357Z" fill="#E5D1AC"/>
<path d="M9.93186 39.452C10.3364 39.4557 10.408 40.6026 11.0451 39.8009C11.8362 39.7155 12.187 40.0941 12.1226 40.907C11.8828 40.9144 11.6429 40.9218 11.4031 40.933C11.0165 40.3799 10.433 40.5989 9.9247 40.5284C9.75288 40.2723 9.3448 40.4801 9.21235 40.1424C9.45219 39.9122 9.69202 39.6821 9.93186 39.452Z" fill="#F1E6CC"/>
<path d="M8.92598 18.2314C8.79711 18.3724 8.66824 18.5098 8.53937 18.6508C7.78406 18.5506 7.24712 18.0421 6.68511 17.5818C6.55624 17.1624 6.8283 16.9768 7.11109 16.7986C8.01675 16.8654 8.44988 17.5744 8.92598 18.2314Z" fill="#ECD7A2"/>
<path d="M21.4261 40.9218C20.9429 40.8068 20.5133 42.4251 19.9907 40.9701C20.3558 40.4245 20.7854 40.1201 21.4154 40.5544L21.4369 40.5766C21.444 40.6917 21.4405 40.8068 21.4261 40.9218Z" fill="#E9D7B9"/>
<path d="M15.3013 44.2848C15.3515 44.0732 15.3944 43.7094 15.6235 43.7985C16.1497 44.0027 16.0244 44.5446 16.0388 44.9974C15.5555 45.0308 15.3586 44.7339 15.3013 44.2848Z" fill="#EBD8B7"/>
<path d="M12.0188 14.8833C12.3052 14.5047 12.588 14.5084 12.8636 14.8981C12.7491 15.4029 13.0104 16.0191 12.4591 16.394C12.434 15.8521 12.6094 15.247 12.0188 14.8833Z" fill="#FBF9F2"/>
<path d="M7.11109 16.7949C7.00012 17.051 6.88915 17.3071 6.78176 17.5632C6.86767 17.6969 6.85336 17.8156 6.72449 17.9159C6.49181 17.4333 6.26271 16.9508 6.03004 16.4682C6.39158 16.5796 6.74955 16.6872 7.11109 16.7949Z" fill="#F5D062"/>
<path d="M7.07172 40.5729C7.22206 40.7474 7.52633 40.9627 7.49411 41.0926C7.4082 41.4526 7.03233 41.2745 6.78176 41.345C6.49897 41.1891 6.39158 40.933 6.39516 40.6175C6.62068 40.6026 6.8462 40.5878 7.07172 40.5729Z" fill="#DDCAA0"/>
<path d="M13.9017 44.6337C13.9805 44.1474 13.6404 43.3494 14.6463 43.5461C14.589 44.0472 14.3814 44.4407 13.9017 44.6337Z" fill="#EDE0C8"/>
<path d="M9.21235 40.1424C9.48798 40.1943 9.78151 40.2166 9.9247 40.5284C9.6598 40.1498 8.81501 41.6345 8.8866 40.1795C8.99399 40.1721 9.10496 40.1609 9.21235 40.1424Z" fill="#DFCDA5"/>
<path d="M9.61327 32.0097C9.00831 31.2785 8.39976 30.551 7.7948 29.8197C7.5657 29.0922 7.68025 28.7136 8.51073 29.0588C8.99399 29.4411 9.47366 29.8234 9.95692 30.2058C10.6728 31.3082 11.3852 32.4106 12.1011 33.513C13.0426 34.4521 12.8063 35.7921 13.175 36.9279C13.1858 37.6629 13.2788 38.4164 13.1464 39.1327C12.9674 40.1015 12.4734 39.9753 11.9544 39.348C11.1203 36.9242 10.6335 34.3742 9.61327 32.0097Z" fill="#FDFAF0"/>
<path d="M6.72449 17.9159C6.74239 17.7971 6.76028 17.682 6.78176 17.5632C7.54781 17.6152 8.13488 17.9753 8.54296 18.6471C8.96178 19.7124 9.38059 20.7777 9.87101 22.0249C10.9234 20.3434 11.872 18.8216 12.8242 17.296C12.8851 20.0093 9.70992 21.6351 11.0022 24.6232C10.5118 25.2579 11.6966 26.4271 10.3614 26.7909L10.2862 26.8243C10.2576 26.312 10.501 25.7738 10.1431 25.295C9.96766 25.4398 9.79583 25.5845 9.62043 25.733C9.1157 25.2393 9.33764 24.6974 9.58463 24.2074C9.87816 23.6247 9.76004 23.2832 9.1515 23.1199C8.93314 22.8675 8.85081 22.552 8.76489 22.2402C8.51432 21.5498 8.13845 20.915 7.91293 20.2135C7.76975 19.5379 7.50127 18.9478 6.88557 18.5914C6.83188 18.3687 6.77818 18.1423 6.72449 17.9159Z" fill="#F8F2E1"/>
<path d="M12.86 13.1499C13.7012 13.213 13.8659 14.0147 14.2776 14.5455C15.8168 17.0065 15.0794 19.3375 13.9053 21.6425C13.0712 21.7502 13.2287 20.8259 12.8063 20.503C14.1344 18.4838 14.3993 16.4014 13.1321 14.2374C12.7848 13.9442 12.8851 13.5285 12.86 13.1499Z" fill="#FBF6E7"/>
<path d="M12.8063 20.503C14.1308 20.117 13.3075 21.2417 13.5402 21.624C13.669 21.7762 13.7156 21.9506 13.6798 22.1474C13.5079 22.7969 13.2896 23.4391 12.9746 24.0293C12.7204 24.5081 12.434 25.0537 11.7468 24.6046C10.748 22.8637 11.9114 21.7205 12.8063 20.503Z" fill="#FEFDFA"/>
<path d="M14.9362 31.2562C14.0735 32.5108 15.1689 34.1143 14.2597 35.3578C14.1952 34.5932 14.3778 33.81 14.0413 33.0602C13.6547 32.1953 13.4721 33.1196 13.1894 33.1307C13.397 31.3713 12.835 29.6713 12.8278 27.9267C12.9066 27.9081 12.9817 27.8933 13.0605 27.8747C13.6225 28.1977 13.5581 28.8472 13.7836 29.3446C13.9232 29.6898 13.9912 30.0758 14.3492 30.2763C14.6212 30.3617 14.9398 30.3394 15.1152 30.6401C15.1725 30.8813 15.1438 31.0966 14.9362 31.2562Z" fill="#F7EBD2"/>
<path d="M10.3614 26.7983C11.0451 26.223 10.3041 25.1985 11.0022 24.6269C11.6465 26.145 11.5892 27.73 11.3995 29.3261C11.3494 29.7492 11.353 30.3245 10.8053 30.2614C10.3077 30.2058 10.3113 29.6378 10.3149 29.2036C10.322 28.4018 10.3435 27.6001 10.3614 26.7983Z" fill="#FBF9F0"/>
<path d="M11.7503 24.6046C13.1321 24.2965 12.613 22.6188 13.5223 21.9692C13.8516 22.1474 13.9948 22.4554 14.0699 22.8118C13.9948 23.7472 13.7442 24.6566 13.6869 25.5994C13.0748 26.1116 12.6309 25.5251 12.1262 25.347C11.9973 25.0983 11.872 24.8533 11.7503 24.6046Z" fill="#F1E4CB"/>
<path d="M12.8529 36.8203C12.6023 35.7178 12.3517 34.6154 12.1011 33.5167C12.7347 32.7521 12.7956 33.8025 13.1643 33.8768C13.1822 34.6117 13.1965 35.3429 13.2144 36.0779C13.3576 36.4602 13.5366 36.8648 12.8529 36.8203Z" fill="#E0CAA7"/>
<path d="M12.1226 25.3433C12.7419 24.8422 13.082 25.5177 13.5402 25.7033C13.78 25.9965 13.7406 26.2601 13.4614 26.4976C12.9495 26.8317 13.3648 27.6112 12.8206 27.9341L12.8278 27.9304C12.2193 27.1769 12.094 26.2823 12.1226 25.3433Z" fill="#FAF2DF"/>
<path d="M23.1981 13.0756C23.0119 12.5894 22.5681 12.1031 23.1838 11.6094C23.2482 11.9918 23.3269 12.3704 23.8424 12.1699C24.34 11.9769 24.8197 11.7356 25.3244 11.5649C26.1477 11.2828 27.1751 10.7038 27.687 11.795C28.2561 13.0051 26.7885 12.7564 26.3267 13.2464C25.5642 14.0518 24.5906 14.6494 23.6205 15.3992C24.2111 15.6702 24.6156 15.8558 25.0201 16.0451C23.5023 16.858 23.3019 16.858 22.4929 16.0562C22.543 15.5477 22.3354 14.9761 22.8186 14.5678C23.8675 14.1929 24.4008 13.0162 25.5284 12.7713C24.7516 12.9568 24.0679 13.6621 23.1981 13.0756Z" fill="#EADABA"/>
<path d="M22.4929 16.0525C23.3377 16.5685 24.1753 15.7964 25.0201 16.0414C25.1311 16.0525 25.2421 16.0674 25.353 16.0859C25.8291 16.2678 25.9902 16.6316 25.9186 17.1327C25.8255 17.4816 25.668 17.7859 25.3781 18.0012C25.217 18.0421 25.0595 18.0272 24.9127 17.9418C24.3507 17.3257 23.7816 16.3086 23.2589 17.979C22.9511 18.6434 22.7757 19.6864 21.8163 18.5357C21.6123 17.7897 21.6087 17.0807 22.1313 16.4534C22.2495 16.3198 22.3712 16.1861 22.4929 16.0525Z" fill="#F0DA9F"/>
<path d="M25.668 17.2366C25.5606 16.8543 25.4568 16.4682 25.3494 16.0859C25.5785 15.9449 25.8076 15.8075 26.0332 15.6665C26.3374 15.6888 26.6238 15.7444 26.7849 16.0599C26.7097 16.6204 26.4699 17.1327 26.316 17.6709C26.2336 17.8231 26.1191 17.9344 25.9616 18.0012C25.5213 17.8936 25.4819 17.6115 25.668 17.2366Z" fill="#EAD9B6"/>
<path d="M21.4154 40.5507C20.9393 40.688 20.4668 40.829 19.9907 40.9664C19.4895 41.1297 19.2569 41.4898 19.2783 42.0317C19.1566 42.1987 19.0314 42.1913 18.9025 42.0391C18.4514 41.7867 17.4026 42.1467 17.8715 40.9515C18.1329 40.3725 18.6447 40.1127 19.1602 39.8528C19.6828 39.6598 20.1983 39.4445 20.6708 39.1364C21.8557 38.4015 22.7256 37.2991 23.6527 36.2858C24.9306 34.8938 26.4054 33.8137 28.0235 32.9154C28.1917 32.8968 28.3564 32.9154 28.5139 32.9711C28.8325 33.1789 28.9291 33.4945 28.9184 33.8619C26.4198 36.0965 23.9176 38.3236 21.4154 40.5507Z" fill="#FBF7EA"/>
<path d="M19.2748 40.1943C18.8058 40.4467 18.3405 40.6991 17.8715 40.9515C17.7319 40.9404 17.5923 40.9293 17.4527 40.9218C17.4384 39.4854 19.1531 39.2107 19.3356 37.9041C19.622 37.1952 19.9155 36.4936 20.3487 35.8626C20.7066 35.3504 21.0682 34.8419 21.7555 34.7936C22.0383 34.8419 22.2244 35.0089 22.3175 35.2873C22.339 35.4654 22.3246 35.6436 22.2709 35.8144C21.0037 37.0801 20.8892 39.1884 19.2748 40.1943Z" fill="#E5D2B2"/>
<path d="M19.6435 37.9598C19.6435 39.5262 18.0111 39.7972 17.4563 40.9218C16.5721 41.3339 16.812 40.6138 16.7654 40.1832C16.701 38.665 18.1937 38.4498 18.838 37.5255C19.239 37.4104 19.4895 37.5849 19.6435 37.9598Z" fill="#F8F2E2"/>
<path d="M18.8989 37.5849C18.7092 38.91 17.152 39.0288 16.769 40.1832C16.1855 40.4913 16.6366 41.3413 16.0567 41.6531C16.0459 40.9144 16.0352 40.1758 16.0244 39.4408C15.6271 38.8729 15.917 38.4201 16.2571 37.9821C16.5149 37.8039 16.7261 37.893 16.9086 38.112C16.9945 38.2716 17.0339 38.4423 17.0303 38.6279C17.1628 38.5797 17.1377 38.4312 17.1986 38.3384C17.4635 37.9301 17.7785 37.5886 18.2295 37.3956C18.4837 37.3436 18.7128 37.3845 18.8989 37.5849Z" fill="#E3CDA9"/>
<path d="M18.9061 42.0391C19.0314 42.0354 19.1566 42.0354 19.2819 42.0317C20.1518 42.4845 21.1684 42.6256 21.8378 43.535C20.5957 43.6835 19.6148 43.1972 18.9061 42.0391Z" fill="#FCF9EF"/>
<path d="M16.837 41.7125C17.2809 42.6219 17.5744 43.2269 17.961 44.0212C16.8549 43.3642 16.8549 43.3642 16.837 41.7125Z" fill="#FBF5E3"/>
<path d="M28.9219 33.8656C28.6356 33.7023 28.5783 33.4239 28.5711 33.1196C28.3671 32.7818 28.5246 32.4774 28.6499 32.173C29.0007 31.4826 29.7059 31.1783 30.1963 30.64C30.8943 29.7084 32.0935 29.2964 32.5768 28.142C32.7772 27.7151 33.3249 27.871 33.5683 27.5147C33.912 26.8614 34.5062 26.7018 35.147 26.5013C35.3868 27.3217 34.8141 27.7374 34.6458 28.2867C33.5827 29.4114 32.7235 30.744 31.4349 31.6385C31.3132 32.006 31.0554 32.2287 30.7261 32.3809C30.1211 32.8783 29.5233 33.372 28.9219 33.8656Z" fill="#F9F6EC"/>
<path d="M30.7225 32.3846C30.9588 32.1359 31.195 31.8909 31.4313 31.6422C31.7857 32.1842 32.3441 31.9726 32.8238 32.0506C34.3559 32.6185 36.0848 32.7038 37.2983 34.0661C37.5776 34.3779 38.4474 34.2888 38.1252 34.9718C37.8031 35.6622 37.3341 34.9347 36.9296 34.8344C36.7614 34.7936 36.6075 34.6822 36.4464 34.6043C35.147 33.7506 33.7151 33.2532 32.1902 33.1789C31.5208 33.1493 31.127 32.8226 30.7225 32.3846Z" fill="#F9F4E8"/>
<path d="M38.2255 16.0525C38.5226 16.0562 38.7911 15.9931 38.9593 15.7073C40.001 15.1654 41.0176 14.5566 42.0951 14.1038C42.7108 13.844 43.552 13.2538 43.9136 14.5121C42.4495 14.5901 41.5546 15.789 40.384 16.4385C39.0703 17.1735 37.7565 17.9084 36.4428 18.6434C35.4835 19.5751 34.4203 20.3063 33.0958 20.5513C32.2188 20.4993 31.5637 20.1801 31.5387 19.1296C31.6067 18.6991 31.8787 18.4467 32.2474 18.2908C33.9657 17.9233 35.4333 16.9062 37.0513 16.2752C37.4236 16.0896 37.7565 15.6739 38.2255 16.0525Z" fill="#F8F2E5"/>
<path d="M33.2247 20.1393C34.3917 19.8572 35.215 18.7807 36.4428 18.6397C36.4428 18.7659 36.4428 18.8921 36.4464 19.0183C35.6911 20.1578 35.6911 20.1578 36.4786 21.5794C36.4643 21.7316 36.4535 21.8838 36.4392 22.0323C34.6959 22.281 32.8739 21.5386 31.1807 22.4703C30.4433 22.5965 29.7238 22.9417 28.9542 22.6633C28.6785 22.5334 28.4852 22.3441 28.4816 22.0063C29.7954 20.6589 31.5279 20.4436 33.2247 20.1393Z" fill="#E6D0AA"/>
<path d="M42.1882 25.3507C40.5129 24.6974 38.834 24.7531 37.148 25.3173C36.7972 25.3247 36.4464 25.3321 36.092 25.3395C35.2293 25.5326 36.1708 24.5712 35.6231 24.5526C35.598 24.3967 35.6338 24.2594 35.7233 24.1369C35.8701 24.0627 35.9918 24.0961 36.092 24.2297C37.7888 24.1555 39.4784 23.402 41.1823 24.1963C41.6977 24.4376 42.4029 24.4004 42.4817 25.2282C42.3994 25.2987 42.2991 25.3395 42.1882 25.3507Z" fill="#F9F3E1"/>
<path d="M31.0948 22.0323C32.8775 21.2862 34.6601 21.2268 36.4428 22.0323C36.3748 22.667 37.0299 22.8452 37.2697 23.4168C36.8366 23.4539 36.4571 23.4873 36.0777 23.517C35.3152 23.7694 34.7425 23.183 34.0695 23.0308C33.3464 22.7487 32.5947 22.9268 31.8573 22.8749C31.3812 22.8489 30.676 22.9565 31.0948 22.0323Z" fill="#FBF9F3"/>
<path d="M36.4786 21.5794C36.1099 20.5958 35.1183 21.0598 34.3702 20.6292C34.8606 19.7532 35.8522 19.6382 36.45 19.0183C38.2827 18.803 37.3234 20.2617 37.4702 20.967C37.6384 21.7947 37.2482 22.1399 36.4786 21.5794Z" fill="#FBF7EF"/>
<path d="M34.2914 22.693C34.8857 22.9677 35.4799 23.2423 36.0777 23.517C36.0813 23.7546 36.0884 23.9884 36.0956 24.226C35.9918 24.2445 35.8844 24.2557 35.777 24.2594C35.4154 24.5229 35.079 24.4004 34.746 24.1889C34.4203 23.9328 34.0444 23.762 33.7151 23.517C33.4538 23.324 33.0099 23.1199 33.3249 22.7116C33.5504 22.4257 33.9621 22.5334 34.2914 22.693Z" fill="#E5CEA3"/>
<path d="M35.7126 6.41287C35.7233 6.28295 35.734 6.15675 35.7412 6.02684C35.9667 5.78186 36.1922 5.54059 36.4177 5.29561C36.858 5.00979 37.3699 4.80193 37.5203 4.20061C38.229 3.54733 38.9486 3.68095 39.5535 4.30083C40.1585 4.92071 40.2766 5.66679 39.6681 6.40545L39.6717 6.40916C38.3472 5.94518 37.1015 6.4537 35.8378 6.74322C35.777 6.75065 35.7161 6.76549 35.6553 6.78034C35.5443 6.63558 35.5622 6.51309 35.7126 6.41287Z" fill="#FCDF6E"/>
<path d="M37.5239 4.20061C37.7673 5.11744 37.6313 5.25106 36.4213 5.29561C36.6862 4.81678 36.7757 4.15236 37.5239 4.20061Z" fill="#FCF7D9"/>
<path d="M39.6681 6.40916C39.4461 6.88056 39.1347 7.18122 38.5083 7.081C38.7875 6.52422 39.2349 6.47597 39.6681 6.40916Z" fill="#FCDF6E"/>
<path d="M35.7305 24.5935C36.5788 24.4598 35.7161 25.2245 36.0956 25.3395C35.9739 25.4583 35.8486 25.5808 35.7269 25.6996C32.2403 26.5125 29.2119 28.2719 26.4233 30.5287C26.0081 31.865 24.7874 32.3252 23.8388 33.0787C22.969 33.4907 22.6432 34.5635 21.7447 34.9458C21.3939 35.3281 21.0431 35.7067 20.6887 36.089C20.3773 36.2301 20.2377 36.0222 20.1196 35.7772C20.0516 35.5174 20.0695 35.2613 20.1625 35.0126C20.4095 34.467 20.8641 34.0846 21.197 33.6058C22.3819 31.7722 24.1467 30.4841 25.4461 28.7544C25.9222 28.2236 26.5021 27.8339 27.0927 27.4553C29.0472 26.4048 30.9695 25.2727 33.1245 24.7085C33.98 24.4858 34.8463 24.2223 35.7305 24.5935Z" fill="#FCFAF2"/>
<path d="M23.5775 32.7706C24.5261 32.0246 25.4747 31.2748 26.4233 30.5287C26.5451 30.6512 26.6632 30.7774 26.7849 30.8999C27.0605 31.156 27.329 30.9036 27.601 30.8925C28.0986 30.8368 28.6141 30.8739 29.0508 30.5473C29.3229 30.3728 29.6057 30.2652 29.9314 30.3542C30.1712 30.4582 30.318 30.6363 30.3645 30.9036C29.8777 31.375 29.3945 31.8501 28.9076 32.3215C27.0999 31.9132 25.6573 33.3794 23.9283 33.3682C23.6742 33.2569 23.4773 33.1084 23.5775 32.7706Z" fill="#E3CEAB"/>
<path d="M27.5116 31.2414C27.2073 31.2674 26.9173 31.2674 26.7849 30.9036C27.9411 30.2466 29.0938 29.5859 30.2536 28.9363C30.6796 28.6988 31.1163 28.5466 31.4778 29.0588C31.442 30.035 30.6617 30.2206 30.0066 30.5435C29.7166 30.5658 29.4338 30.6066 29.2692 30.9036C28.743 31.3267 28.0485 30.8516 27.5116 31.2414Z" fill="#FAF8F1"/>
<path d="M36.8079 27.9415C37.3055 27.3476 36.8473 26.2675 37.7601 25.9C37.8568 25.8629 38.1324 26.0262 38.161 26.1413C38.3937 27.0952 38.1539 27.9601 37.5955 28.7359C37.4916 28.8806 37.3306 28.9771 37.1945 29.0959C36.2996 28.9883 36.5466 28.4686 36.8079 27.9415Z" fill="#F8F0DC"/>
<path d="M30.0102 30.5435C30.2643 29.7975 31.1485 29.7232 31.4778 29.0588C31.7069 28.8212 31.936 28.5837 32.1651 28.3498C32.3871 28.1197 32.6197 28.0826 32.8667 28.309C32.2188 29.3669 31.3132 30.1612 30.361 30.9073C30.2464 30.7848 30.1283 30.6623 30.0102 30.5435Z" fill="#DFC9A6"/>
<path d="M32.8667 28.3053C32.6341 28.3202 32.4014 28.3313 32.1651 28.3461C31.9217 26.7797 33.1925 27.9638 33.5648 27.5184C33.3357 27.7819 33.103 28.0418 32.8667 28.3053Z" fill="#FAF6E8"/>
<path d="M9.58105 13.0014C10.2326 12.5894 10.884 12.5634 11.5427 12.9791C10.9771 13.5693 11.2026 14.6643 10.2182 15.0355C9.64191 15.2508 9.19087 15.9709 8.56085 15.1617C7.9881 14.4267 8.37829 13.9442 8.94029 13.4951C9.42355 13.7141 9.65981 13.5804 9.58105 13.0014Z" fill="#FBE078"/>
<path d="M9.58105 13.0014C9.7672 13.1053 10.1252 13.2501 10.1108 13.3132C10.0214 13.7363 9.72066 14.0407 9.31258 14.0964C8.89018 14.1558 8.95461 13.766 8.93672 13.4913C9.15149 13.328 9.36627 13.1647 9.58105 13.0014Z" fill="#FCF5D2"/>
<path d="M35.7126 6.41287C35.6947 6.53536 35.6732 6.66156 35.6553 6.78405C34.9286 8.59914 33.7402 10.262 33.9549 12.3852C34.2521 13.1647 34.1268 13.818 33.4108 14.2857C33.214 14.089 32.9491 14.0036 32.9061 14.1186C32.4407 15.3213 31.6998 16.3086 30.7511 17.1438C30.2106 17.4556 29.6164 17.7191 29.2155 17.0324C28.8862 16.4645 29.3264 15.9931 29.6773 15.5922C30.0674 15.1431 30.4612 14.6717 31.102 14.6086C32.0327 13.6769 32.2653 12.3555 32.8488 11.2308C33.2068 10.366 33.5683 9.50112 33.9299 8.63626C34.4131 7.79367 34.3594 6.49453 35.7126 6.41287Z" fill="#F8F2E4"/>
<path d="M27.9161 15.6442C27.9053 15.273 26.3339 15.492 27.5867 14.6049C28.3528 14.063 28.8718 13.1684 29.8813 12.9531C30.3395 12.8566 30.8764 12.5226 31.2022 12.9531C31.5816 13.4579 30.8263 13.7586 30.7511 14.2189C29.7811 16.2678 29.2012 16.5573 27.9161 15.6442Z" fill="#FDFCF9"/>
<path d="M27.9161 15.6442C29.4661 16.4608 29.9672 15.0429 30.7476 14.2189C30.8657 14.3451 30.9874 14.475 31.1055 14.6012C30.7547 15.0169 30.3968 15.4289 30.0495 15.8484C29.7918 16.1602 29.2191 16.446 29.4732 16.8765C29.8204 17.4667 30.3037 16.9656 30.7118 16.78C30.9301 16.9582 31.0125 17.2032 31.0339 17.4742C31.0304 17.6486 30.9981 17.8156 30.9409 17.979C30.4003 18.6842 29.5699 18.0012 28.9649 18.417C28.5353 18.3242 28.2024 18.1089 28.0628 17.6486C28.1237 16.8877 27.5402 16.5239 27.1429 16.0451C27.3111 15.7259 27.6189 15.6962 27.9161 15.6442Z" fill="#EAD9B6"/>
<path d="M27.1464 16.0488C27.9912 16.175 29.0687 16.1416 28.0986 17.5261C27.4364 18.1571 26.7706 18.5729 26.094 17.5447C25.9616 16.8654 26.1513 16.3495 26.7849 16.0599C26.9066 16.0562 27.0247 16.0525 27.1464 16.0488Z" fill="#FCF8F0"/>
<path d="M44.2572 26.4902C44.5579 26.6424 44.6689 26.9096 44.676 27.24C44.6975 28.1717 44.8407 29.237 43.7668 29.6044C43.0831 29.8383 42.6571 29.1553 42.5891 28.528C42.4638 27.3848 42.2526 26.1227 43.6272 25.54C43.8312 25.4546 43.9422 25.8332 43.9637 26.0856C43.8527 26.2378 43.8241 26.39 43.9672 26.5348C44.0603 26.6238 44.1641 26.6016 44.2572 26.4902Z" fill="#FDDF6D"/>
<path d="M44.2572 26.4902C44.2429 26.7278 44.2894 26.9913 44.2035 27.1917C44.0961 27.4367 43.8885 27.2697 43.7918 27.1361C43.4983 26.7352 43.4768 26.3566 43.9672 26.0819C44.0603 26.2192 44.1605 26.3566 44.2572 26.4902Z" fill="#FDF8CF"/>
<path d="M12.1226 40.907C11.8541 40.443 11.5141 40.0533 11.0451 39.8009C10.5583 39.0659 10.0715 38.3273 9.58463 37.5923C9.24099 35.51 7.94873 33.6838 8.02032 31.4715C8.82933 31.3304 8.79353 32.1545 9.19445 32.444C10.5368 33.7914 10.3722 35.8144 11.2384 37.3882C11.5177 37.893 11.6573 38.5166 11.8398 39.0956C12.0761 39.6487 12.6381 39.9642 12.8278 40.5507C12.9459 40.8105 13.0641 41.0703 13.1822 41.3302C12.8278 41.1891 12.477 41.048 12.1226 40.907Z" fill="#FDFAF2"/>
<path d="M12.8242 40.5507C12.4519 40.1906 12.0832 39.8306 11.7109 39.4668C11.7611 39.2255 11.9043 39.0771 12.1369 39.0288C12.3875 38.9991 12.5844 39.9271 12.7884 39.181C12.9889 38.446 12.8457 37.6072 12.8493 36.8166C12.9674 36.5679 13.0891 36.3192 13.2072 36.0742C13.8802 37.2026 13.4077 38.5351 13.823 39.7378C14.0771 40.4616 13.3827 40.5581 12.8242 40.5507Z" fill="#EAD8B9"/>
<path d="M5.60048 17.2329C6.05151 18.5357 5.13512 20.6292 3.95025 20.7703C3.00522 20.8816 2.71169 20.2914 3.12693 19.3895C3.97531 18.6953 4.61607 17.7525 5.60048 17.2329Z" fill="#FCDE6D"/>
<path d="M5.60048 17.2329C4.98478 18.2091 4.34402 19.1519 3.12693 19.3895C3.56365 18.1868 4.18293 17.218 5.60048 17.2329Z" fill="#FCEFB0"/>
<path d="M6.88557 18.5951C8.0597 18.4281 7.9022 19.4934 8.20647 20.1318C8.35323 20.5253 8.54653 21.108 8.06328 21.1897C7.35093 21.3122 7.85566 20.3954 7.47264 20.1355C7.37599 19.5305 7.17195 19.0406 6.44885 19.1111C6.59204 18.9403 6.73881 18.7659 6.88557 18.5951Z" fill="#E4CD98"/>
<path d="M7.80554 27.5815C6.68869 26.9653 7.25428 25.8778 7.12541 24.9869C7.60866 24.148 6.87125 23.1607 7.43326 22.3144C7.68025 21.9432 7.93083 21.5238 8.37829 21.6166C8.87586 21.7168 8.84364 22.2476 8.86512 22.6744C8.86512 22.886 8.84722 23.0976 8.81501 23.3055C8.58233 24.2074 8.73625 25.1354 8.63602 26.0448C8.57159 26.6535 8.77205 27.4739 7.80554 27.5815Z" fill="#FBF7EB"/>
<path d="M7.80554 27.5815C8.48925 26.802 8.05254 25.8518 8.16709 24.9832C8.24942 24.3448 7.97379 23.6432 8.49284 23.0865C8.96535 24.4932 8.56085 25.8926 8.70762 27.1027C8.75773 26.5496 8.65034 25.7553 8.72909 24.9869C8.78637 24.445 8.37829 23.7286 9.1694 23.3982C10.0464 24.4339 8.96178 25.7219 9.57748 26.7872C9.52736 27.3588 9.88891 28.1717 9.32332 28.4352C8.72194 28.721 8.16351 28.168 7.80554 27.5815Z" fill="#F5E9D1"/>
<path d="M8.51073 29.0588C8.0239 29.0625 7.82702 29.3558 7.7948 29.8197C7.68383 29.8049 7.57287 29.7937 7.4619 29.7826C6.68869 28.606 5.33558 28.5206 4.24021 27.949C4.57669 27.1249 5.14586 27.188 5.82958 27.4442C6.82114 27.819 7.71247 28.3461 8.51073 29.0588Z" fill="#FAF4E4"/>
<path d="M8.54295 22.745C8.5179 22.5074 8.57875 22.1919 8.45346 22.0471C8.13129 21.6722 8.02032 22.0954 7.85208 22.2921C7.19342 23.0679 7.76258 24.2037 7.11825 24.9832C7.02875 24.4635 7.27217 23.8548 6.72449 23.4613C6.66363 22.2773 7.67668 21.3493 7.46906 20.1281C7.6552 20.4028 7.84134 20.6738 8.02748 20.9484C8.08476 20.6738 8.14561 20.3991 8.20288 20.1244C8.54295 20.7554 8.88302 21.3864 9.22309 22.0174C8.93671 22.1993 9.21235 22.9528 8.54295 22.745Z" fill="#F1E2C2"/>
<path d="M9.58105 26.7872C8.87944 25.7478 9.41997 24.5712 9.23741 23.4725C9.1336 23.3351 9.15865 23.2238 9.29468 23.1273C9.51304 22.9603 9.82089 22.6002 9.93544 22.6596C10.3543 22.8675 10.3793 23.3389 10.2755 23.7583C10.1108 24.4339 9.41997 24.9275 9.62401 25.7367C9.60969 26.0856 9.59537 26.4382 9.58105 26.7872Z" fill="#FCFAF4"/>
<path d="M30.7046 17.9753C30.7118 17.8379 30.7189 17.7006 30.7297 17.5595C31.6103 16.472 31.9933 14.9835 33.2641 14.2114C33.6972 13.6844 33.7831 13.0125 33.9585 12.3778C34.9751 13.0868 34.3917 14.4342 35.0396 15.2879C35.9309 16.2641 35.4047 16.9731 34.5492 17.4482C33.5218 18.0198 32.4014 18.3613 31.2022 18.2722C31.0053 18.2314 30.8406 18.1274 30.7046 17.9753Z" fill="#FBFAF7"/>
<path d="M31.0053 17.9975C31.979 17.7859 32.9705 17.63 33.9227 17.3442C34.8821 17.0584 35.4119 16.4126 35.036 15.2953C35.326 15.1431 35.3689 14.861 35.3904 14.5678C36.3748 14.527 35.9238 15.9412 36.7757 16.0377L36.8151 16.0637C36.9618 16.1676 37.1587 16.2196 37.1766 16.4534C35.7197 17.463 34.1984 18.3205 32.4443 18.6285C32.047 18.2165 31.1807 18.9515 31.0053 17.9975Z" fill="#F1E4CD"/>
<path d="M37.2053 13.7623C37.1659 14.0407 37.1265 14.3228 37.0871 14.6012C36.8724 14.4676 36.6576 14.3339 36.4392 14.2003C36.6504 13.1758 36.0526 12.645 35.3224 12.1625C34.6673 11.7319 34.1948 11.2568 35.3618 10.8671C36.8473 11.242 36.8795 12.6005 37.2053 13.7623Z" fill="#F9F5E4"/>
<path d="M36.7757 16.034C34.968 16.9062 36.2209 14.6791 35.3904 14.5641C35.3009 14.1855 35.2114 13.8031 35.1147 13.3837C35.7269 13.3651 35.8522 13.8551 36.0956 14.1966C36.2996 14.8165 36.7972 15.325 36.7757 16.034Z" fill="#FAF6EA"/>
<path d="M14.9362 31.2562C14.947 31.0149 14.9577 30.7737 14.9684 30.5324C14.8432 30.3876 14.7823 30.2169 14.7895 30.0202C14.9112 29.1887 14.8324 28.3461 14.9326 27.5147C14.9863 27.2289 15.0901 26.9727 15.3013 26.7723C16.1318 26.7649 15.7381 27.4738 15.8884 27.8599C15.9493 27.4404 15.6092 26.828 16.3824 26.7538C17.3811 28.0603 16.1712 29.4671 16.5506 30.7997C16.7475 30.0462 16.7404 29.2073 17.399 28.6468C18.0577 28.5243 18.0541 29.0143 18.1078 29.4597C18.0398 29.9608 17.9431 30.4656 18.0398 30.9778C18.0434 31.1523 18.0183 31.323 17.9718 31.4938C17.2558 33.4462 15.9707 35.1425 15.6164 37.2545C15.3264 38.0155 15.5483 38.884 15.151 39.619C15.0866 39.6784 15.0186 39.7378 14.9505 39.7972C14.2883 38.717 14.478 37.4735 14.6856 36.4008C15.0221 34.6748 14.9326 32.9711 14.9362 31.2562Z" fill="#E1C9A1"/>
<path d="M15.3013 37.1692C15.5591 34.9346 16.7117 33.1084 17.8322 31.2748C18.7951 30.859 18.77 31.5606 18.7342 32.173C18.6984 32.7706 18.4335 33.3163 18.276 33.8879C17.6854 35.2576 17.4742 36.8128 16.4361 37.9635C16.3001 38.4535 16.164 38.9471 16.0244 39.4408C15.3157 39.838 16.1676 41.1742 14.9899 41.2856C14.9792 40.7882 14.9649 40.2945 14.9541 39.7972L14.9863 39.8157C15.4266 38.9731 14.9112 38.0155 15.3013 37.1692Z" fill="#FBF9EF"/>
<path d="M13.8874 22.7227C13.5903 22.5631 13.5509 22.2698 13.5223 21.9692C13.533 21.8541 13.5402 21.7391 13.5437 21.624C14.6176 19.3561 15.2656 17.0399 14.2811 14.5455C14.5102 14.4304 14.7393 14.3154 14.9684 14.2003C15.0937 14.8128 15.219 15.4289 15.3443 16.0414C15.3515 16.6798 15.3622 17.3183 15.3694 17.9567C15.917 18.7028 15.4338 19.408 15.2906 20.1281C14.8288 20.9967 14.9684 22.2179 13.8874 22.7227Z" fill="#E3D2B1"/>
<path d="M17.4885 28.6913C17.0411 29.7975 17.3203 31.1597 16.2535 32.2436C15.6164 30.3208 16.4647 28.5763 16.411 26.8206C16.1211 26.3083 16.3609 25.8072 16.4289 25.2987C16.5328 24.8756 16.701 24.4747 16.8549 24.0701C17.2952 22.5668 18.3262 21.3011 18.4944 19.6901C18.6161 18.9143 18.9419 18.2833 19.6542 17.9233C21.6194 14.8907 21.4548 11.602 20.7317 8.25023C20.7388 7.89761 20.746 7.54498 20.7532 7.19236C22.4284 8.41726 22.4929 10.288 22.4177 12.0994C22.3569 13.5359 21.9703 14.9612 21.7304 16.3903C21.7412 17.4296 21.419 18.3761 20.9966 19.3004C20.0372 21.6797 19.1316 24.0738 18.5159 26.5793C18.3333 27.3439 18.0648 28.1086 17.4885 28.6913Z" fill="#F9F4E5"/>
<path d="M23.1981 13.0756C24.3006 12.7378 25.3996 12.4038 27.0211 11.9064C25.5678 13.3317 24.1359 13.8662 23.1623 15.0132C23.0012 15.2025 22.8759 14.7756 22.8186 14.5604C22.9224 14.0593 22.722 13.4728 23.1981 13.0756Z" fill="#F7F2E4"/>
<path d="M20.6887 19.0257C21.1756 18.2054 20.9787 17.0918 21.734 16.3866C21.8664 16.4089 21.9953 16.4311 22.1278 16.4534C22.1242 17.1809 22.1242 17.9084 22.1206 18.636C21.6445 19.3264 22.7971 19.5379 22.543 20.1689C22.4141 20.2952 22.2638 20.3768 22.092 20.4288C21.8199 20.4733 21.555 20.4399 21.3009 20.3397C20.8212 20.039 20.3057 19.7569 20.6887 19.0257Z" fill="#F0C45C"/>
<path d="M12.1405 39.0288C11.9973 39.1736 11.8577 39.322 11.7145 39.4668C10.5655 37.2434 9.78867 34.879 9.19445 32.444C9.33406 32.2992 9.47367 32.1545 9.61685 32.0097C11.4604 33.9621 11.5606 36.5901 12.1405 39.0288Z" fill="#E5D0AB"/>
<path d="M2.79402 28.6505C3.67104 28.7953 3.86077 28.9623 3.72116 29.6713C3.56723 30.4545 3.26296 31.182 2.58283 31.6608C2.35373 31.8204 2.09599 31.8538 1.97786 31.6163C1.60916 30.8813 1.52325 30.1241 2.05304 29.4077C2.55061 29.4189 2.67948 29.0402 2.79402 28.6505Z" fill="#F8DB78"/>
<path d="M2.79402 28.6505C3.11619 29.2704 2.75465 29.6824 2.31077 29.9274C2.11747 30.035 2.08883 29.6193 2.04945 29.404C2.30003 29.1553 2.54703 28.9029 2.79402 28.6505Z" fill="#FCF9D6"/>
<path d="M16.7654 6.40545C17.1305 5.87836 17.6926 6.08623 18.1758 6.00085C18.8631 6.08623 19.7509 6.0454 19.8761 6.91397C19.9835 7.66376 19.0815 7.84193 18.5982 8.22054C17.9539 8.72535 17.1699 8.66596 16.4075 8.63997C16.1318 8.02381 15.7273 7.40393 16.4003 6.78405C16.6652 6.80261 16.9229 6.82117 16.7654 6.40545Z" fill="#FCDE70"/>
<path d="M44.3359 15.6999C44.5865 15.57 44.8371 15.4401 45.0841 15.3102C45.213 15.2062 45.4707 15.3881 45.4922 15.2099C45.5065 15.0949 45.2309 15.054 45.0769 14.9984C45.1127 14.1595 45.5494 14.0221 46.115 14.4713C46.5267 14.7979 46.8167 15.2879 47.1603 15.7036C47.1496 16.3161 47.2426 16.9545 47.103 17.5335C46.9205 18.2945 46.6019 19.2818 45.7284 19.2076C44.8765 19.1371 44.361 18.3242 44.3324 17.3517C44.3109 16.8023 44.3324 16.253 44.3359 15.6999Z" fill="#FCDD6A"/>
<path d="M17.4849 14.9538C18.0076 13.3948 19.6435 12.5708 19.9871 10.8968C20.5097 10.6332 20.7818 10.778 20.6995 11.3979C20.61 12.0957 20.9214 12.8715 20.3558 13.4839C19.5611 14.2671 19.0707 15.3955 17.9252 15.7853C17.5386 15.6442 17.6782 15.2062 17.4849 14.9538Z" fill="#F7F2E3"/>
<path d="M19.6578 17.9233C19.4108 18.5394 18.9204 19.0517 18.9096 19.7718C18.7056 20.0873 18.4944 20.3991 18.1006 20.4882C17.6424 20.6032 17.1807 20.6069 16.7153 20.5364C16.3251 20.4548 15.9994 20.2803 15.8383 19.872C15.6522 18.7956 16.3359 18.2462 17.0482 17.7117C17.3095 17.5781 17.5887 17.515 17.8787 17.5001C18.2689 17.5001 18.6412 17.5669 18.9204 17.8899C19.1638 17.901 19.4108 17.9121 19.6578 17.9233Z" fill="#F4CE5A"/>
<path d="M17.8322 17.8825C17.5995 17.8899 17.3632 17.901 17.1305 17.9084C16.5471 16.884 16.9301 16.201 17.8501 15.7036C18.6984 14.9798 19.128 13.7475 20.3558 13.4839C20.3451 13.8588 20.3343 14.2337 20.3236 14.6049C19.3571 15.5885 18.8416 16.9396 17.8322 17.8825Z" fill="#EEDAB9"/>
<path d="M17.8322 17.8825C18.2725 16.472 18.9061 15.2211 20.3236 14.6049C20.116 15.8187 19.8081 16.9879 18.924 17.8899C18.5553 17.8899 18.1937 17.8862 17.8322 17.8825Z" fill="#FCF8ED"/>
<path d="M17.8501 15.7036C17.5565 16.42 17.016 17.0473 17.1305 17.9084C16.7797 18.5246 15.9958 18.8698 16.0423 19.7421C15.8025 20.0613 15.6772 20.4956 15.2369 20.6144C14.9756 20.5513 14.7751 20.451 14.9577 20.1207C15.0937 19.4006 15.2333 18.6768 15.3694 17.9567C16.0746 16.9545 16.7833 15.956 17.4885 14.9538C17.782 15.1134 17.8286 15.4029 17.8501 15.7036Z" fill="#FDFBF7"/>
<path d="M45.0734 14.9984C45.979 14.9835 45.979 14.9835 45.8931 16.1527C45.3633 16.1379 45.4313 15.5069 45.0805 15.3102C45.0805 15.2062 45.0769 15.1023 45.0734 14.9984Z" fill="#FAF3CA"/>
<path d="M16.7654 6.40545C17.0446 6.45741 17.5279 6.44628 17.5637 6.57248C17.6603 6.90283 17.2916 7.04017 17.0446 7.18864C16.5972 7.45218 16.4039 7.27773 16.4039 6.78405C16.522 6.65785 16.6437 6.53165 16.7654 6.40545Z" fill="#FCF0C3"/>
<path d="M37.1766 16.4534C37.0549 16.3235 36.9368 16.1936 36.8151 16.0637C37.284 15.8447 37.753 15.3992 38.2291 16.0525C37.8747 16.1861 37.5239 16.3198 37.1766 16.4534Z" fill="#E7D0AA"/>
<path d="M9.2911 23.1273C9.26247 23.2424 9.24457 23.3574 9.23383 23.4725C8.4642 24.7419 9.19445 26.2155 8.49284 27.5295C8.49284 26.0485 8.49284 24.5675 8.49284 23.0902C8.51431 22.9751 8.52864 22.8637 8.54296 22.7487C8.77205 22.5074 8.99757 22.2661 9.22667 22.0249C9.24815 22.3923 9.26963 22.7598 9.2911 23.1273Z" fill="#E3CEA8"/>
<path d="M14.9828 30.1872C14.9935 30.3023 14.9863 30.4173 14.9684 30.5324C14.7393 30.6586 14.5138 30.7848 14.2847 30.911C14.0771 30.6697 13.9876 30.3765 13.9339 30.0684C13.7478 28.5132 13.6046 26.9616 14.2919 25.4806C14.4888 25.102 14.7859 24.8496 15.1832 24.7234C15.5841 24.664 15.9349 24.7197 16.1461 25.1354C16.1748 25.8369 15.8848 26.3863 15.3944 26.8465C15.3694 27.0878 15.3407 27.3291 15.3157 27.5704C14.8754 28.3981 15.4159 29.3595 14.9828 30.1872Z" fill="#FBF7E9"/>
<path d="M14.6248 25.3878C14.206 26.9542 14.2632 28.5614 14.2382 30.1612C13.6726 30.2763 13.7263 29.8272 13.737 29.5079C13.7549 28.9957 13.5974 29.404 13.5079 29.4448C12.971 29.0922 13.4077 28.2608 12.8171 27.9304C13.0211 27.4516 12.3302 26.7166 13.2216 26.4382C14.1773 26.364 13.5545 25.0908 14.3277 24.8756C14.5926 24.9498 14.8074 25.0463 14.6248 25.3878Z" fill="#EBD7B2"/>
<path d="M13.5115 29.4485C13.5402 29.2073 13.5652 28.9697 13.601 28.6802C14.1952 29.044 13.6368 29.8717 14.2418 30.1649C14.2561 30.4136 14.274 30.6623 14.2883 30.911C13.5938 30.6697 13.5366 30.0684 13.5115 29.4485Z" fill="#DCC49A"/>
<path d="M14.2668 24.9572C14.1344 25.5326 14.1022 26.1636 13.8408 26.6647C13.5258 27.2734 13.3791 26.6907 13.2216 26.442C13.49 26.2712 13.5366 25.9965 13.5366 25.7033C13.1321 24.6454 13.4542 23.6766 13.8838 22.7227C14.2382 21.8541 14.5962 20.9856 14.9505 20.117C15.0722 20.2469 15.1904 20.3768 15.3121 20.5067C15.5233 20.7035 15.577 20.9596 15.5555 21.2417C15.3944 22.0212 15.1116 22.7635 14.9649 23.5467C14.8217 24.0627 14.6856 24.586 14.2668 24.9572Z" fill="#FBF6E7"/>
<path d="M22.0955 20.1727C22.2208 20.1504 22.3497 20.1244 22.475 20.1021C22.8294 19.5899 23.3341 19.5751 23.7028 19.5973C22.0991 18.9181 23.6276 18.1942 23.8675 17.4667C24.3364 17.2143 24.6729 17.3628 24.902 17.8342C25.0452 17.8565 25.1884 17.8825 25.3351 17.9047C25.6322 18.1349 25.6931 18.4615 25.6931 18.8141C25.6466 19.3115 25.5248 19.8015 25.5177 20.3063C25.4354 20.6626 25.2456 20.9373 24.9306 21.1155C24.6085 21.2677 24.2648 21.3085 23.9176 21.3122C23.3806 21.3011 22.8687 21.1971 22.4141 20.8742C22.2029 20.6923 22.0418 20.4845 22.0955 20.1727Z" fill="#F4DD8F"/>
<path d="M23.9033 17.5781C24.544 18.4095 23.1515 18.3836 23.3556 19.0628C23.7314 19.627 24.05 18.829 24.3829 18.9552C24.8411 19.1296 24.6335 19.5788 24.6085 19.9017C24.5655 20.4548 24.2362 20.2506 24.0071 20.0539C23.4701 19.5936 22.9905 20.2358 22.4786 20.0984C22.4249 19.5936 20.5778 19.5602 22.1206 18.636C22.7971 18.6397 22.7971 18.6397 22.8473 17.5669C23.2017 17.2477 23.5525 17.2255 23.9033 17.5781Z" fill="#F7D459"/>
<path d="M23.9033 17.5781C23.5489 17.5744 23.1981 17.5744 22.8437 17.5707C22.9045 16.7912 23.4307 16.5054 24.0536 16.5796C24.6872 16.6538 25.1526 17.0324 24.902 17.8379C24.5691 17.7488 24.2362 17.6635 23.9033 17.5781Z" fill="#FDFAEB"/>
<path d="M25.353 19.0405C25.3494 18.6619 25.3423 18.2833 25.3387 17.9047C25.3673 17.6375 25.3924 17.3702 25.6716 17.2366C25.7969 17.4667 25.9258 17.6969 26.0511 17.927C26.4556 18.4058 26.1835 18.751 25.8399 19.0814C25.668 19.163 25.507 19.1482 25.353 19.0405Z" fill="#EDCA72"/>
<path d="M25.711 19.0257C25.9186 18.6916 26.1441 18.3613 26.0511 17.927C26.0654 17.8008 26.0797 17.6746 26.094 17.5484C26.7706 18.1386 27.4328 17.4519 28.1022 17.5298C28.3778 17.7748 28.657 18.0198 28.9363 18.2648C29.3801 19.4674 28.6177 19.7903 27.7407 20.039C27.2825 19.9982 26.8314 20.143 26.3875 20.1615C25.6716 20.1838 25.2957 19.8126 25.711 19.0257Z" fill="#F9F5EB"/>
<path d="M28.1881 33.1196C25.8005 34.6451 23.8496 36.7015 21.8879 38.743C21.5514 39.0919 21.2149 39.4445 20.6959 39.4779C20.184 38.5166 21.036 38.1268 21.4476 37.5552C21.5693 37.4401 21.7018 37.3399 21.8378 37.2434C22.679 36.7126 23.3162 35.948 23.982 35.2205C24.2433 34.905 24.4867 34.5709 24.7982 34.3036C25.2528 33.9436 25.6501 33.513 26.1334 33.1901C27.6404 32.4069 27.6404 32.4069 28.1881 33.1196Z" fill="#E1CBA9"/>
<path d="M21.7769 37.5812C21.4977 38.2642 20.6494 38.5945 20.6923 39.4742C20.32 39.9234 19.8225 40.1127 19.2748 40.1943C20.4847 38.884 20.3952 36.6866 22.117 35.7253C22.7685 35.1871 23.3162 34.0401 24.2684 35.3467C23.5704 36.2561 22.994 37.3102 21.7662 37.5849C21.6266 37.3845 21.8092 37.6591 21.6767 37.455C21.6481 37.4142 21.6803 37.455 21.7769 37.5812Z" fill="#F0E2C7"/>
<path d="M28.1881 33.1196C27.3397 32.4217 26.8386 33.6726 26.0869 33.5241C25.3065 33.8508 24.4832 34.4336 23.9534 33.1641C25.0488 32.7595 26.1763 32.4217 27.2323 31.9243C27.9662 31.5791 28.4387 31.8056 28.9112 32.3289C28.7967 32.5962 28.6857 32.8634 28.5747 33.127C28.4423 33.1196 28.3134 33.1196 28.1881 33.1196Z" fill="#F7F0DC"/>
<path d="M23.9498 33.1604C24.5798 33.8062 25.3781 33.3571 26.0833 33.5204C25.8184 33.9956 25.4747 34.3779 24.9843 34.608C23.9462 34.4855 23.1014 35.124 22.1564 35.3726C22.0204 35.2316 21.8808 35.0905 21.7412 34.9495C22.1958 34.0809 22.6826 33.2458 23.5739 32.7744C23.7028 32.9006 23.8281 33.0305 23.9498 33.1604Z" fill="#F0E2C7"/>
<path d="M20.3093 35.6919C20.4382 35.8255 20.5634 35.9554 20.6923 36.089C20.3415 36.7126 19.9943 37.3362 19.647 37.9635C19.4001 37.8373 19.1495 37.7148 18.9025 37.5886C18.6662 37.596 18.43 37.6072 18.1937 37.6146C18.0792 37.4698 18.0183 37.3065 18.0147 37.1209C18.4335 36.0519 19.2927 35.7327 20.3093 35.6919Z" fill="#F7F0DC"/>
<path d="M22.16 35.3726C23.0441 34.8827 23.7851 33.8248 24.9879 34.608C24.7481 34.853 24.5118 35.1017 24.272 35.3467C23.4057 34.5709 22.8723 35.7995 22.1206 35.7253C22.1278 35.6065 22.1421 35.4914 22.16 35.3726Z" fill="#F8F0DD"/>
<path d="M20.3093 35.6919C19.7437 36.412 18.6376 36.3192 18.1865 37.21C17.7677 37.6554 17.621 38.4757 16.7654 38.331C16.6545 38.2085 16.5471 38.0897 16.4361 37.9672C16.6509 36.5122 17.3775 35.2427 17.8393 33.8768C18.455 33.6838 18.5123 33.1121 18.702 32.5962C20.184 28.5503 23.3269 26.0559 26.5522 23.6469C26.6882 23.5467 26.8959 23.5801 27.0748 23.6061C28.1845 24.4821 27.0176 24.883 26.7205 25.4657C26.4305 25.7701 26.1334 26.0633 25.8506 26.3751C25.6573 26.5979 25.4497 26.8057 25.2743 27.0433C24.8125 27.6669 24.5548 28.4055 24.2075 29.0922C23.7565 29.9831 22.9117 28.4464 22.4965 29.4189C22.4034 29.5525 22.2996 29.6824 22.2029 29.8123C21.129 31.2339 20.2735 32.7669 19.7902 34.5189C19.6435 35.0497 19.826 35.0052 20.1733 34.9087C20.2413 34.9421 20.3021 34.9792 20.3666 35.0126C20.3415 35.2316 20.3236 35.4617 20.3093 35.6919Z" fill="#E5CFAA"/>
<path d="M16.7654 38.331C17.2379 37.9561 17.7105 37.5849 18.1865 37.21C18.1901 37.3436 18.1901 37.4773 18.1937 37.6146C17.7319 37.8893 17.7319 39.1439 16.7654 38.331Z" fill="#EBDCBF"/>
<path d="M27.1393 23.8288C23.6455 26.39 20.0623 28.8843 18.9204 33.5576C18.6805 34.5375 18.3906 34.4632 17.8393 33.8768C18.0004 33.294 18.1293 32.6964 18.3369 32.1322C18.5445 31.5717 18.3691 31.3305 17.8357 31.2748C17.8536 31.1634 17.8644 31.0558 17.8715 30.9444C17.8715 30.6846 17.9467 30.4507 18.072 30.228C18.4944 29.404 19.171 28.7915 19.733 28.0789C20.6136 26.5199 22.1313 25.6179 23.284 24.3336C24.0142 23.6507 24.6944 22.9009 25.5785 22.4146C26.2658 22.1325 26.8601 21.7019 27.4328 21.2268C28.8611 20.4288 30.2178 19.4785 31.7785 18.9552C31.8322 19.9203 32.4121 20.1912 33.2318 20.1393C31.689 20.7666 30.1462 21.3939 28.6034 22.0212C28.5318 22.1474 28.3671 22.2773 28.5246 22.422C28.6535 22.5445 28.8146 22.4888 28.9506 22.3812C29.6665 22.2624 30.386 22.1474 31.102 22.0286C31.3633 23.0568 32.0434 22.1882 32.5123 22.3367C33.0851 22.5223 33.776 22.1474 34.3022 22.6893C34.0766 22.719 33.8476 22.745 33.4323 22.8006C34.0409 23.2015 34.5169 23.5133 34.9895 23.8251C34.1554 25.0352 32.7772 24.7976 31.6353 25.1911C30.923 24.9646 30.7333 24.252 30.3502 23.7212C29.8025 23.0308 29.2656 23.9736 28.7251 23.7435C28.1917 23.7286 27.6583 23.6395 27.1393 23.8288Z" fill="#F9F2E2"/>
<path d="M31.7714 18.9552C30.7583 20.5513 28.8468 20.6107 27.5008 21.6351C27.0176 21.9321 26.6489 21.7353 26.6202 21.2268C26.5844 20.5958 26.5737 19.846 27.4972 19.7941C28.4852 19.7978 28.743 19.0665 28.9327 18.2648C29.4124 17.437 30.0209 17.463 30.7046 17.9753C30.8048 17.979 30.9051 17.9827 31.0053 17.9938C31.3346 18.5691 32.1222 18.0272 32.4443 18.6248C32.2188 18.7362 31.9969 18.8475 31.7714 18.9552Z" fill="#F2CD61"/>
<path d="M28.9434 22.3849C28.6141 22.7598 28.1702 22.9603 27.8516 22.5445C27.7371 22.3923 28.3027 22.1585 28.5962 22.0249C28.7107 22.1436 28.8289 22.2624 28.9434 22.3849Z" fill="#EBDABD"/>
<path d="M31.4277 24.9535C32.6305 24.6417 33.8726 24.4561 34.9823 23.8288C35.1505 24.1592 35.4584 24.2223 35.777 24.2668C35.7519 24.3745 35.7376 24.4858 35.7305 24.5972C32.6269 25.05 29.8706 26.4531 27.1464 27.9453C26.2587 27.3142 26.4806 26.7797 27.2789 26.2935C28.8002 26.3083 29.8527 24.7642 31.4277 24.9535Z" fill="#EAD9B7"/>
<path d="M22.1313 29.4226C22.2459 28.6542 22.7614 28.3424 23.4272 28.283C23.4916 28.2756 23.599 28.7915 23.7135 29.1516C24.3543 28.0529 24.5333 26.7055 25.711 26.0782C26.2479 26.8762 25.5606 27.5926 25.5678 28.3573C25.575 28.58 25.5535 28.8064 25.6752 29.0105C24.2612 30.6363 22.8508 32.2621 21.4369 33.8879C20.7746 33.1121 21.351 32.4143 21.5693 31.7016C21.7984 30.9518 22.0597 30.2132 22.1313 29.4226Z" fill="#F2E5CA"/>
<path d="M25.6752 29.0105C25.5642 28.8955 25.4533 28.7804 25.3459 28.6654C25.643 27.6001 25.847 26.4939 26.631 25.655C26.8493 25.4732 27.2467 25.7924 27.3863 25.2171C27.5509 24.5378 27.7908 23.7843 28.5819 23.517C29.0616 23.3129 29.5341 23.0753 30.0281 22.9194C30.7368 22.693 30.4397 23.1458 30.3323 23.4539C29.2942 24.3522 29.0401 26.0411 27.5187 26.4531C26.7384 26.7723 26.7885 27.318 27.15 27.9415C26.656 28.2979 26.1656 28.6542 25.6752 29.0105Z" fill="#E4D1AC"/>
<path d="M22.1313 29.4226C22.9189 30.1724 22.2316 30.911 22.0776 31.6274C21.9094 32.392 21.3152 33.0305 21.4369 33.8879C21.1756 34.3593 20.857 34.775 20.363 35.0015L20.3487 34.9829C19.6542 33.9139 20.3451 33.0045 20.7388 32.1211C21.1469 31.1931 21.6875 30.3245 22.1421 29.4151L22.1313 29.4226Z" fill="#E1CBA6"/>
<path d="M27.5116 31.2414C28.0163 30.6735 28.6785 30.989 29.2727 30.9036C28.7788 31.5383 28.1022 31.1486 27.5116 31.2414Z" fill="#F9F6EC"/>
<path d="M33.2605 14.2152C32.3405 15.2693 32.072 16.8543 30.7261 17.5632C30.7225 17.3034 30.7189 17.0436 30.7153 16.7837C31.3597 15.8409 31.9825 14.8833 32.6555 13.9628C33.0421 13.4357 33.1889 13.792 33.2605 14.2152Z" fill="#EAD7B4"/>
<path d="M20.6887 19.0257C20.6243 19.6233 21.1362 19.7941 21.4369 20.1207C21.4333 21.6166 20.2914 22.7821 20.3236 24.2891C20.32 24.5489 20.2699 24.8013 20.1768 25.0426C19.4144 26.3529 18.8309 27.7411 18.5445 29.2555C18.4622 29.5116 18.3369 29.7344 18.0863 29.8494C18.004 29.8272 17.9217 29.8049 17.8393 29.7826C17.8214 29.3854 17.9038 28.9512 17.4921 28.6876C18.2975 25.3767 19.2032 22.0991 20.6887 19.0257Z" fill="#EBD7B5"/>
<path d="M15.3944 26.8465C15.355 26.2267 15.6235 25.7441 16.0244 25.3173C16.1283 25.1985 16.2571 25.1317 16.411 25.1168C16.565 25.1428 16.6867 25.2208 16.7797 25.3507C16.837 25.8889 16.6473 26.3603 16.411 26.8206C15.9707 27.0544 16.1247 27.5555 15.9135 28.0084C15.7237 27.5815 15.5591 27.214 15.3944 26.8465Z" fill="#E5C89B"/>
<path d="M15.3013 37.1692C15.219 38.0526 15.6414 39.0028 14.9863 39.812C15.0436 38.9249 14.7286 37.9895 15.3013 37.1692Z" fill="#F9F0DD"/>
<path d="M14.9828 30.1872C15.0973 29.3149 14.657 28.3684 15.3157 27.5704C15.2298 28.4464 15.577 29.3817 14.9828 30.1872Z" fill="#F9F4E5"/>
<path d="M18.1794 30.5176C18.0756 30.6586 17.9718 30.7997 17.868 30.9444C17.3453 30.5732 17.3704 30.1872 17.8393 29.7863L17.8357 29.7975C18.0684 29.9756 18.43 30.087 18.1794 30.5176Z" fill="#D1B27C"/>
<path d="M18.1543 20.1875C18.4049 20.0502 18.6555 19.9091 18.9096 19.7718C18.7665 21.4495 17.689 22.745 17.1914 24.278C16.905 24.2186 16.726 24.0256 16.6043 23.762C16.6616 22.3589 17.0088 21.0858 18.1543 20.1875Z" fill="#E9D1A1"/>
<path d="M16.7189 23.762C16.8764 23.9328 17.0303 24.1035 17.1878 24.2742C17.0518 24.6306 16.9158 24.9906 16.7833 25.347C16.658 25.3395 16.5292 25.3321 16.4039 25.3247C16.1712 25.0797 16.1282 24.7791 16.1569 24.4561C16.2142 24.2186 16.3323 24.0218 16.5149 23.8622C16.5793 23.8288 16.6509 23.7954 16.7189 23.762Z" fill="#DEBA77"/>
<path d="M20.0301 24.1406C19.9442 22.5928 20.6923 21.3567 21.4369 20.1244C21.6588 20.143 21.8772 20.1578 22.0991 20.1764C22.2316 20.2914 22.3604 20.4028 22.4929 20.5179C22.5716 22.3998 21.4011 24.1221 20.0301 24.1406Z" fill="#FBF8EF"/>
<path d="M18.1543 20.1875C17.6747 21.379 17.1986 22.5742 16.7189 23.7657L16.7654 23.8437C16.4755 23.9996 16.2679 23.84 16.071 23.6432C15.5949 23.0642 15.2369 22.4406 15.4087 21.6351C15.6235 20.9039 15.9779 20.3174 16.7762 20.1764C17.2379 20.1764 17.6961 20.1801 18.1543 20.1875Z" fill="#FAF2DC"/>
<path d="M16.7762 20.1727C16.3072 20.5735 15.9099 21.0301 15.67 21.6166C15.3443 21.7019 15.1796 21.6203 15.3013 21.238C15.3049 20.9967 15.3121 20.7517 15.3157 20.5104C15.3407 20.0353 15.577 19.7755 16.0388 19.7421C16.2857 19.8831 16.5327 20.0279 16.7762 20.1727Z" fill="#E8CD97"/>
<path d="M18.387 18.9886C18.4013 19.3152 18.1543 19.3746 17.9431 19.3672C17.757 19.3598 17.5708 19.2299 17.3883 19.1556C17.5422 19.0146 17.6747 18.8216 17.8536 18.7399C18.0648 18.6471 18.2832 18.7288 18.387 18.9886Z" fill="#FCEE7F"/>
<path d="M14.2668 24.9572C14.2346 24.4339 14.3026 23.9402 14.6498 23.5245C15.1832 23.3092 15.2512 23.8103 15.466 24.0886C15.5233 24.2371 15.5483 24.3893 15.5483 24.5489C15.5161 24.7048 15.4374 24.8347 15.3121 24.9312C15.083 25.0834 14.8503 25.2356 14.6212 25.3878C14.5067 25.243 14.385 25.102 14.2668 24.9572Z" fill="#EAC977"/>
<path d="M15.3157 24.9312C15.3228 24.805 15.33 24.6825 15.3371 24.5563C15.6593 24.3076 15.9457 23.9068 16.4218 24.2668C16.4146 24.6194 16.411 24.9721 16.4039 25.3284C16.2786 25.3247 16.1533 25.3247 16.028 25.321C15.8991 24.9721 15.5949 24.9721 15.3157 24.9312Z" fill="#F7E19B"/>
<path d="M15.3622 24.2668C15.1259 24.0181 14.8861 23.7694 14.6498 23.5207C14.5997 22.6782 14.8217 21.9172 15.3013 21.2342C15.4231 21.3604 15.5483 21.4867 15.67 21.6129C15.5054 22.4035 16.1247 22.8972 16.3538 23.5356C16.0316 23.7917 15.9421 24.3893 15.3622 24.2668Z" fill="#F1DDAA"/>
<path d="M23.9391 20.9002C24.272 20.9225 24.6085 20.9484 24.9414 20.9707C25.5714 21.5832 25.3101 22.1696 24.8447 22.6856C24.3758 23.2127 23.8925 23.7286 23.4021 24.2371C22.2709 25.2727 21.4763 26.7278 19.9155 27.2214C19.8046 27.073 19.7365 26.9059 19.7043 26.7241C20.3415 24.8087 21.6194 23.2646 22.5394 21.5126C22.8616 20.9076 23.5274 21.2342 23.9391 20.9002Z" fill="#FBF7EB"/>
<path d="M23.9391 20.9002C23.148 21.3419 22.5394 21.9543 22.1134 22.7932C21.4261 24.148 20.678 25.4657 19.9549 26.7983C19.8475 27.0024 19.7473 27.2437 19.4716 27.1955C19.0922 27.1286 19.0707 26.8317 19.1817 26.5348C19.3893 25.9891 19.6435 25.462 19.98 24.9795C19.9979 24.6974 20.0122 24.4153 20.0301 24.1332C21.5013 23.3983 21.8306 21.8319 22.4929 20.5067C22.9725 20.6441 23.4558 20.774 23.9391 20.9002Z" fill="#EDDABB"/>
<path d="M27.4972 19.7941C27.218 20.4102 26.1656 21.0227 27.5008 21.6351C26.9603 22.1028 26.4699 22.6559 25.7074 22.7375C25.5929 22.6299 25.5356 22.5 25.5392 22.3404C25.5821 21.9692 25.5821 21.6017 25.4712 21.2417C25.3029 20.8965 25.6072 20.4993 25.353 20.1689C24.7767 19.7941 25.2349 19.4154 25.353 19.0405C25.4712 19.0368 25.5929 19.0331 25.711 19.0294C25.8434 19.512 25.7504 20.3583 26.6202 19.5751C26.9496 19.2781 27.2717 19.4303 27.4972 19.7941Z" fill="#F7E9C6"/>
<path d="M25.7217 22.3812C25.7146 22.5 25.711 22.6188 25.711 22.7375C24.9879 23.35 24.2648 23.9624 23.5453 24.5749C23.2267 24.6417 23.0585 24.5526 23.1694 24.1777C23.3556 22.8637 25.3602 22.6373 24.9449 20.967C25.081 20.6997 25.2206 20.4325 25.3566 20.1652C25.8148 20.3842 25.6967 20.8297 25.7432 21.212C25.7003 21.6017 25.7074 21.9915 25.7217 22.3812Z" fill="#ECCD8F"/>
<path d="M21.7769 37.5812C21.4727 37.5515 21.104 37.5404 21.4082 37.0801C21.5156 36.9168 21.9166 36.746 21.9345 36.772C22.1635 37.0838 21.8163 37.3065 21.7698 37.5886L21.7769 37.5812Z" fill="#E1CBA9"/>
<path d="M22.1385 29.4151C21.9989 31.4307 20.32 32.9154 20.3487 34.9866C19.9764 35.2724 19.6041 35.5545 18.9812 36.0296C19.5611 33.3794 20.3666 31.1597 22.1385 29.4151Z" fill="#F2E5CA"/>
<path d="M28.5783 23.5207C27.8803 24.1629 28.2525 25.7478 26.7849 25.7107C26.5808 25.6699 26.4591 25.5437 26.4198 25.3321C26.477 24.7382 27.5259 24.6529 27.1357 23.8288C27.5724 23.4948 27.9375 22.8081 28.5783 23.5207Z" fill="#F1E4CC"/>
<path d="M26.4233 25.3321C26.5451 25.4583 26.6668 25.5845 26.7885 25.7107C26.3088 26.6944 25.8255 27.6817 25.3459 28.6654C24.8053 27.7003 25.736 26.9616 25.711 26.0782C25.9472 25.8295 26.1835 25.5808 26.4233 25.3321Z" fill="#F9F2DF"/>
<path d="M27.5151 26.4531C28.6714 25.6736 28.6714 23.7249 30.3287 23.4539C31.2451 23.517 31.0518 24.4598 31.4277 24.9535C30.0782 25.3284 29.1224 26.802 27.5151 26.4531Z" fill="#FCFBF5"/>
<path d="M23.1659 24.1814C23.2911 24.3151 23.4164 24.445 23.5417 24.5786C22.4893 25.9594 20.9393 26.828 19.98 28.3053C19.6542 28.309 19.3714 28.2236 19.1853 27.9156C19.1781 27.3402 19.6148 27.3476 19.9835 27.2697C21.0431 26.2378 22.1063 25.2096 23.1659 24.1814Z" fill="#E9D3AB"/>
<path d="M19.2819 27.9453C19.5719 27.949 19.8368 28.0009 19.98 28.3053C19.3786 29.044 18.7772 29.7826 18.1758 30.5176C18.0613 30.2763 17.9467 30.0387 17.8322 29.7975C17.9539 29.6787 18.072 29.5562 18.1937 29.4374C18.5266 28.9178 18.4228 28.0529 19.2819 27.9453Z" fill="#E0C595"/>
<path d="M19.2819 27.9453C18.9204 28.4426 18.5588 28.94 18.1973 29.4374C18.3297 27.7559 18.7486 26.197 19.98 24.9906C19.7974 25.488 19.5898 25.978 19.443 26.4865C19.2247 27.2214 19.6685 26.9059 19.9585 26.8057C19.9692 26.9579 19.98 27.1138 19.9871 27.266C19.7509 27.4924 19.5146 27.7188 19.2819 27.9453Z" fill="#F7ECD4"/>
<path d="M15.3622 24.2668C15.6844 24.007 15.7309 23.35 16.3538 23.5356C16.4898 23.6358 16.6258 23.736 16.7618 23.8362C16.6473 23.9773 16.5328 24.1183 16.4182 24.2631C16.0567 24.3596 15.6951 24.4561 15.3371 24.5526C15.3443 24.4598 15.355 24.3633 15.3622 24.2668Z" fill="#EAB341"/>
<path d="M25.7217 22.3812C25.2349 21.984 25.2492 21.5943 25.7396 21.212C26.1155 21.6091 26.2157 22.0026 25.7217 22.3812Z" fill="#E8C16D"/>
</svg>
