<svg width="60" height="47" viewBox="0 0 60 47" fill="none" xmlns="http://www.w3.org/2000/svg">
<path d="M12.3179 40.5922C11.9513 40.5157 11.5848 40.4359 11.2183 40.3594C11.2749 40.0899 11.3916 39.8138 11.1183 39.5876C10.7918 39.3748 10.4619 39.5211 10.1354 39.5743C9.58558 39.6841 9.12576 39.4479 8.66593 39.2018C8.18278 38.6696 7.15984 39.3315 6.85662 38.3935C6.50342 38.2538 7.89289 37.4754 6.59339 37.6816C6.33349 37.1428 6.31683 36.5407 6.14356 35.9785C6.2935 35.4363 6.92993 35.1669 6.95325 34.5515C7.42307 34.0626 8.06283 33.9894 8.65927 33.8497C8.71591 33.5004 8.19611 33.5303 8.2261 33.2044C9.6389 32.1898 10.4986 32.3129 11.3249 33.7133C11.5948 34.1723 12.3145 33.9761 12.4412 34.5748C12.4612 35.2068 11.8947 35.26 11.5282 35.5128C11.3882 35.5827 11.245 35.6359 11.095 35.6792C10.4852 36.1648 9.90213 36.3045 9.5356 35.4397C9.42898 35.1902 9.49562 34.8908 9.08577 35.0505C8.71258 35.1968 8.81921 35.4829 8.91917 35.7324C9.14242 36.2945 9.57559 36.5806 10.1787 36.6305C10.7052 36.6704 10.9817 36.4609 10.9384 35.9087C11.2383 35.6559 11.6148 35.5794 11.9713 35.4596C12.4578 35.3765 12.9443 35.2966 13.4375 35.3232C14.2605 35.3698 14.637 35.7191 14.3504 36.6072C14.1805 37.1295 13.4774 37.7049 14.0872 38.2172C14.747 38.7727 15.2168 37.7914 15.8465 37.7349C16.373 37.7714 16.8995 37.7781 17.4259 37.7249C17.9791 37.7082 18.1723 38.3935 18.7221 38.3901C19.1553 39.1619 19.1986 39.8837 18.4655 40.509C18.059 40.702 17.6459 40.7153 17.226 40.549C16.9694 40.2995 16.7295 40.0101 16.2764 40.1332C16.5962 40.1764 16.9794 40.0966 17.0128 40.5689C16.1031 41.4271 15.1635 40.7286 14.2405 40.6188C13.8206 40.4924 13.764 39.9735 13.3775 39.8138C13.0809 40.1498 12.8343 40.5523 12.3179 40.5922Z" fill="#DA5551"/>
<path d="M31.0141 40.6621C30.3577 40.9714 29.6979 41.2641 28.9482 41.2541C27.862 40.9614 26.7257 41.7864 25.6561 41.1144C25.2396 40.3128 25.3196 39.7007 26.2059 39.2184C27.1989 38.6762 28.0019 38.786 28.7516 39.4546C28.4951 38.766 29.1048 38.3436 29.6413 37.8812C29.9112 37.6251 30.351 37.4322 29.9545 36.9465C29.7013 36.564 30.6076 36.544 30.2144 36.1149C30.5676 35.4596 31.2007 35.2733 31.8604 35.1303C32.5002 35.1736 32.9367 34.8077 33.3532 34.3952C35.0659 33.1644 35.1725 33.221 35.4524 35.4829C35.6657 34.8276 35.8323 34.169 36.2554 33.6268C36.5387 33.3041 36.3687 32.7719 36.7719 32.4992C37.0085 32.426 37.2351 32.4592 37.4483 32.5856C38.0947 33.1578 38.0648 33.8962 37.9615 34.6513C36.7453 36.2014 35.659 37.8712 33.9763 38.9955C32.8267 39.1519 31.6472 39.2217 30.8342 40.2463C30.5709 40.5756 31.0241 40.4957 31.0141 40.6621Z" fill="#DA524F"/>
<path d="M37.5783 3.03425C40.8504 2.24257 44.1424 1.53406 47.5045 2.38893C49.9602 3.01096 51.7129 4.48122 52.376 7.03254C52.1994 7.23544 51.9728 7.27869 51.7196 7.2421C51.3264 7.129 51.0198 6.8762 50.7199 6.61674C50.3867 6.33733 50.4434 5.95479 50.46 5.59555C50.4534 5.38599 50.4634 5.67538 50.4567 5.45584C50.44 5.49576 50.45 5.54233 50.4434 5.59555C49.757 7.09906 48.9406 6.1444 48.1509 5.73525C47.7577 5.50574 47.4179 5.20636 47.078 4.90699C46.7548 4.58433 46.4049 4.28829 46.065 3.98559C46.185 4.28829 46.6482 4.57435 46.125 4.92362C45.4619 5.23297 44.8255 4.88703 44.1791 4.85377C43.6626 4.81385 43.1428 4.84379 42.6297 4.7573C42.2765 4.66417 41.9399 4.54774 41.8833 4.11199C42.0965 3.68622 42.4964 3.52655 42.9062 3.37686C43.3794 3.2305 43.8692 3.14735 44.3757 3.0276C43.9925 3.04423 43.646 3.16065 43.2828 3.14735C41.73 3.08747 40.2339 3.63299 38.6778 3.5831C38.2547 3.51657 37.8415 3.42011 37.5783 3.03425Z" fill="#E35F5A"/>
<path d="M37.9581 34.6546C37.3583 34.1091 37.8148 33.2077 37.2817 32.6422C37.0885 32.3827 37.0285 31.9603 36.5487 32.0601C36.2921 31.8805 36.1488 31.6443 36.1788 31.3216C36.3754 30.8293 36.6586 30.4135 37.1551 30.1807C37.6416 30.0909 37.9615 29.6585 38.4413 29.5553C38.8345 29.6418 38.8211 29.3657 38.8278 29.1096C39.101 28.105 40.3106 27.7658 40.5138 26.7146C40.777 26.2356 41.1602 26.0161 41.7134 26.1425C42.4298 27.0705 42.6064 28.2248 43.0262 29.2792C43.0429 29.5986 43.0229 29.9146 42.9396 30.2273C42.7563 30.8194 42.1365 31.1487 42.0099 31.7773C40.6604 32.7353 39.3076 33.6967 37.9581 34.6546Z" fill="#D54B47"/>
<path d="M18.3889 40.3361C18.8254 39.6309 18.7654 38.9323 18.3656 38.2371C17.9291 37.7648 17.3026 37.369 17.6558 36.564C17.7991 36.4742 17.9591 36.4243 18.129 36.4143C19.3319 36.6405 20.6114 36.4043 21.7443 37.023C22.3741 37.3989 21.7743 38.1806 22.2708 38.6064C22.7272 39.3149 22.7106 40.1864 23.0838 40.9248C23.1271 41.2907 22.9205 41.507 22.634 41.6699C20.5847 42.3685 18.6155 41.6167 16.6196 41.3539C17.0727 40.7818 17.8158 40.7086 18.3889 40.3361Z" fill="#F6BEB1"/>
<path d="M6.97324 38.3536C7.31978 39.1286 8.37271 37.981 8.64261 38.9656C8.39937 39.3415 7.99286 39.2883 7.62966 39.3481C4.76742 38.2438 2.19506 36.7868 0.915547 33.7798C1.13213 32.8318 1.85852 32.6322 2.6049 32.8817C3.33463 33.1278 3.99104 32.9349 4.68411 32.9083C5.15727 33.1445 5.28055 33.6068 5.4205 34.0559C5.58377 34.7079 6.33349 35.1303 6.14689 35.9187C6.63337 36.4675 5.89699 37.186 6.40013 37.7349C6.59339 37.9378 6.88328 38.0542 6.97324 38.3536Z" fill="#D8514D"/>
<path d="M52.9491 15.0324C53.2156 18.3987 52.4359 21.4989 50.6 24.3363C49.5337 23.6876 48.6007 22.7263 47.1713 22.9093C47.018 22.9292 46.8914 22.5999 46.8114 22.3903C46.7148 22.0677 46.7881 21.7816 47.008 21.5255C47.6111 20.9733 48.2542 20.4611 48.6874 19.7492C49.0106 19.3168 49.3305 18.8711 49.9502 18.8578C50.6666 19.034 50.2868 19.7525 50.5367 20.2615C50.6899 19.8923 50.7533 19.6295 50.8765 19.3866C51.3764 18.3521 51.8095 17.3143 51.8895 16.1368C51.9261 15.5647 51.8762 14.7031 52.9491 15.0324Z" fill="#D44A49"/>
<path d="M14.6437 11.0574C17.0228 10.013 19.4718 9.15475 21.9475 8.37306C22.1475 8.20674 22.3741 8.21339 22.6073 8.28325C22.6839 8.37306 22.7606 8.53605 22.7039 8.57597C21.1812 9.64706 21.0845 11.7626 19.5784 12.8404C19.3685 12.9435 19.1453 12.9734 18.9154 12.9335C18.7721 12.8903 18.6488 12.8138 18.5422 12.7073C18.3689 12.3847 18.109 12.1751 17.7292 12.1418C17.276 12.082 16.8528 12.235 16.4163 12.3148C15.5633 12.2682 14.7036 12.2217 14.6437 11.0574Z" fill="#DD534E"/>
<path d="M4.65413 17.3609C4.97734 17.0183 5.30388 16.679 5.62709 16.3364C6.49676 16.373 6.80997 15.5647 7.40308 15.1788C8.01618 15.1256 8.68259 13.8349 9.23572 15.252C9.16574 15.9172 9.31902 16.5858 9.21239 17.2544C9.13575 17.5405 9.00247 17.8066 8.86919 18.0694C8.62262 18.5185 8.41936 18.9875 8.15613 19.4266C7.94287 19.7392 7.67298 19.9987 7.37976 20.2315C6.46677 21.1064 5.91698 20.5908 5.46382 19.7259C5.34719 19.4465 5.33387 19.1571 5.40384 18.8677C5.62709 18.3887 5.42383 18.1559 4.94068 18.086C4.72077 17.8964 4.64413 17.647 4.65413 17.3609Z" fill="#E15752"/>
<path d="M0.615662 32.6688C-0.214023 29.9212 -0.104065 27.1404 0.352428 24.3529C0.635654 24.2797 0.782265 24.4527 0.912215 24.6589C1.98847 25.7167 0.718956 27.2202 1.61528 28.3246C1.75856 28.5009 1.80854 28.5308 2.1684 28.2447C2.58491 28.2481 2.84815 28.5341 3.1547 28.7437C3.48457 29.2294 4.75075 29.1628 4.06768 30.2572C3.86776 30.4535 3.82444 30.6697 3.99771 30.9125C4.27094 31.295 4.82073 31.4879 4.78074 32.0767C3.42126 32.5324 2.51494 32.1399 1.48866 30.663C1.21543 31.0688 1.45867 31.5212 1.34205 31.9337C1.21543 32.2929 1.22543 32.7886 0.615662 32.6688Z" fill="#D44E49"/>
<path d="M27.2022 6.32735C27.6287 5.97808 28.1352 6.04461 28.6317 6.05126C29.0515 5.89492 29.458 5.67538 29.9312 5.7286C30.6709 5.67871 31.3606 5.80511 31.9504 6.28078C31.6339 7.32858 31.0441 8.23003 30.9141 9.41754C30.8008 10.4421 29.8046 10.0662 29.2114 9.40423C28.9449 8.81214 28.5917 9.1481 28.2518 9.3244C27.5354 9.69695 26.859 9.71026 26.2426 9.12149C25.9327 8.719 25.7728 8.26994 25.8361 7.75768C26.1426 7.129 26.7424 6.93607 27.3388 6.68659C27.6854 6.54356 27.1522 6.49034 27.2022 6.32735Z" fill="#E6655E"/>
<path d="M14.6437 11.0574C15.0935 11.8092 15.8066 12.0354 16.6296 12.0354C17.0994 12.0454 17.5759 12.072 17.9591 11.7194C18.3456 11.9456 19.0453 11.9622 18.6255 12.7206C18.4622 12.8703 18.6655 12.6607 18.5155 12.8237C18.4789 12.8603 18.5222 12.8304 18.6255 12.7206C18.8587 12.7173 19.092 12.714 19.3219 12.7106C19.5351 13.183 19.5118 13.6653 19.3552 14.1476C19.0653 14.6299 18.1923 13.9647 18.0757 14.7963C17.6725 14.6699 17.2593 14.5867 16.8328 14.5801C15.42 14.2275 13.9073 14.4038 12.5578 13.7418C12.4112 13.5489 12.3479 13.3293 12.3412 13.0932C12.2379 12.1751 13.3475 12.3048 13.5741 11.6728C13.9273 11.4632 14.2871 11.2603 14.6437 11.0574Z" fill="#DE5E5B"/>
<path d="M1.33539 29.9911C2.17174 31.0954 3.06806 32.1067 4.64413 31.9936C5.56045 31.631 6.20354 31.8405 6.47677 32.8484C6.52341 33.1711 6.72001 33.6168 6.53008 33.8031C5.65041 34.6713 6.87328 34.3586 6.97324 34.6546C8.40603 35.9253 6.35348 35.453 6.30683 35.9819C6.19687 36.1415 6.08691 36.1349 5.97362 35.9852C6.01361 35.2068 5.19059 34.944 4.97734 34.3154C5.32387 33.7599 5.17726 33.3274 4.64413 32.9915C4.22762 33.6833 3.32463 33.7831 2.95477 33.4771C2.03512 32.722 1.52865 33.2908 0.912215 33.7765C0.582341 33.4705 0.539024 33.0846 0.61233 32.6688C1.03883 32.4193 0.958864 31.9836 1.00551 31.5977C1.37204 31.1154 0.908883 30.4634 1.33539 29.9911Z" fill="#DB5A54"/>
<path d="M52.9491 15.0324C52.0194 15.1888 52.336 15.9272 52.2927 16.4728C52.1927 17.6935 51.8662 18.8079 50.9532 19.6893C50.8999 19.6361 50.8432 19.5862 50.7866 19.533C50.5633 19.1239 50.59 18.6648 50.53 18.2257C50.4934 17.943 50.4434 17.6569 50.51 17.3742C50.7533 17.0216 50.8399 16.6457 50.6766 16.2266C50.64 16.0802 50.6233 15.9339 50.6166 15.7842C50.62 14.8961 51.2297 14.151 51.2064 13.2595C51.2731 12.7306 51.3963 12.2316 51.8895 11.9223C52.1594 11.8225 52.4093 11.8491 52.6325 12.0387C52.8891 13.02 53.0357 14.0146 52.9491 15.0324Z" fill="#D4534F"/>
<path d="M13.5707 11.6662C14.2005 12.7605 12.4345 12.2583 12.6344 13.0666C11.7814 14.4104 10.7285 15.4383 8.98914 15.4017C8.44935 14.2574 7.85624 15.6777 7.29979 15.3684C7.18316 15.5114 7.0732 15.5015 6.96658 15.3584C8.83587 13.5389 11.105 12.4279 13.5707 11.6662Z" fill="#DF554F"/>
<path d="M46.998 22.3172C47.108 22.4369 47.2579 22.6764 47.3212 22.6531C49.0039 22.0843 49.7936 23.2219 50.6033 24.3329C50.4434 24.9051 50.1402 25.3841 49.6637 25.75C48.2042 26.6015 47.5278 26.3354 47.0047 24.6822C46.8714 24.2664 46.8447 23.8207 46.7248 23.4016C46.6581 23.0822 46.6515 22.7696 46.8148 22.4735C46.8747 22.4203 46.9347 22.3704 46.998 22.3172Z" fill="#D95A57"/>
<path d="M46.9747 23.3483C47.4145 23.6643 47.1146 24.2498 47.3479 24.5492C47.8144 25.1446 47.811 26.9841 49.3105 25.4805C49.3238 25.4672 49.5404 25.6568 49.6637 25.75C48.8706 26.9475 48.011 28.0751 46.6315 28.6639C46.4815 28.5408 46.3749 28.3878 46.3083 28.2048C46.1217 27.5562 46.2083 26.8876 46.1517 26.229C46.2883 25.2344 45.7751 24.0469 46.9747 23.3483Z" fill="#D6524D"/>
<path d="M33.5831 4.01553C33.883 3.71615 34.2662 3.72946 34.6494 3.73944C36.2854 4.36479 38.1181 4.06875 39.7241 4.83048C39.9474 5.01343 40.114 5.20969 39.904 5.50906C37.9181 6.23754 35.9322 6.88285 34.0596 5.2363C33.8364 4.85377 33.8097 4.39473 33.5831 4.01553Z" fill="#FACDC0"/>
<path d="M52.6359 12.0354C52.416 12.042 52.196 12.0487 51.9761 12.0553C51.6562 10.8778 50.0835 9.96306 51.2164 8.47618C51.6329 8.08367 51.1898 7.42505 51.6529 7.04917C51.8928 7.04251 52.1327 7.03586 52.3726 7.02921C53.0624 8.66911 53.0024 10.3423 52.6359 12.0354Z" fill="#DD6258"/>
<path d="M39.6208 5.02009C38.3446 4.83048 37.0651 4.64088 35.789 4.45128C35.3058 4.3781 34.7993 4.33818 34.6494 3.73611C35.6257 3.50327 36.602 3.26709 37.5783 3.03425C37.9448 3.09745 38.368 2.99101 38.6212 3.38684C38.318 3.99889 38.9278 3.77603 39.121 3.90243C39.5442 4.17852 40.014 4.39473 39.6208 5.02009Z" fill="#DC5651"/>
<path d="M0.64565 24.6789C0.54902 24.5724 0.449058 24.4627 0.352428 24.3562C0.542356 23.0556 1.14213 21.9346 1.90184 20.8835C2.13842 21.1529 2.37499 20.8902 2.61157 20.8769C2.94144 20.9168 3.29131 20.7771 3.60452 20.99C3.88109 21.898 3.3313 22.2107 2.6049 22.3837C2.49161 22.3937 2.33834 22.3538 2.26503 22.4802C2.21839 22.5633 2.29169 22.6432 2.40831 22.6797C2.47495 22.7995 2.51161 22.9159 2.5216 23.049C2.50494 23.4082 2.36166 23.7176 2.15508 24.0003C2.06178 24.1034 1.95182 24.1833 1.8352 24.2531C1.53198 24.3895 1.27541 24.6024 0.995517 24.782C0.852238 24.8252 0.735616 24.7887 0.64565 24.6789Z" fill="#DC534F"/>
<path d="M18.3889 40.3361C18.1323 41.2541 17.4493 41.4304 16.6196 41.3539C15.1868 41.1011 13.754 40.845 12.3212 40.5922C12.6011 40.2795 12.8977 40.04 13.0243 39.5511C13.1942 38.8924 13.2442 39.5012 13.3175 39.6508C13.5507 39.8371 13.7307 40.0766 13.9473 40.2828C14.9535 40.4791 15.9598 41.0645 16.9728 40.3061C17.4426 40.3161 17.9157 40.3261 18.3889 40.3361Z" fill="#D9504A"/>
<path d="M31.0141 40.6621C30.7942 40.529 30.1211 40.7386 30.3677 40.3693C30.8975 39.5743 31.6805 38.9457 32.3736 38.2637C32.4202 38.2172 32.5602 38.2637 32.6601 38.2637C32.4436 39.6675 33.7631 38.3469 33.973 38.9989C33.12 39.7906 32.107 40.2962 31.0141 40.6621Z" fill="#D9524A"/>
<path d="M22.634 41.6699C22.7206 41.4438 22.8106 41.2176 22.8972 40.9914C23.0671 40.692 23.3503 40.5922 23.6669 40.549C24.2533 40.6621 24.7931 40.9714 25.4129 40.9381C25.4862 40.9481 25.5628 40.9614 25.6361 40.9714C26.7157 41.3706 27.9019 40.5024 28.9515 41.2508C28.1852 41.3972 27.4188 41.5402 26.6491 41.6866C26.1026 41.9494 25.4795 41.64 24.9331 41.9128C24.1634 41.8429 23.3503 42.2121 22.634 41.6699Z" fill="#D44944"/>
<path d="M33.5831 4.01553C34.0663 4.05212 34.2329 4.2517 33.9397 4.6941C33.6398 5.12653 33.1033 5.14316 32.7035 5.40595C31.7738 6.04128 30.6409 5.70199 29.648 6.04128C29.3081 6.05126 28.9749 6.40718 28.6317 6.05126C30.1478 5.04337 31.8171 4.41469 33.5831 4.01553Z" fill="#F3AFA2"/>
<path d="M7.62966 39.3481C7.85291 38.919 8.26609 38.9889 8.64261 38.9656C9.17907 39.0854 9.7122 39.2051 10.2487 39.3249C10.5885 39.3614 10.9251 39.1818 11.2683 39.2916C11.5948 39.3415 11.9247 39.4213 11.9047 39.8371C11.8847 40.2496 11.5115 40.2729 11.215 40.3594C10.0054 40.0799 8.75257 39.9436 7.62966 39.3481Z" fill="#D84940"/>
<path d="M27.2022 6.32735C27.5921 6.43379 28.1119 6.52693 27.4288 6.96933C26.9723 7.26538 26.4558 7.47162 25.9627 7.71444C25.7728 7.95061 25.5428 8.12358 25.243 8.19344C24.6865 8.12691 23.9235 8.79551 23.6402 7.7477C24.7565 7.08576 25.9594 6.65333 27.2022 6.32735Z" fill="#DB544C"/>
<path d="M2.65155 21.0166C2.37832 21.1064 2.07844 21.3359 1.90184 20.8802C2.59491 19.533 3.60119 18.4287 4.65413 17.3609C4.91736 17.4939 4.974 17.7334 4.974 17.9995C4.97067 18.2424 4.86738 18.442 4.73409 18.6349C4.06102 19.4465 3.60786 20.4511 2.65155 21.0166Z" fill="#D64F47"/>
<path d="M46.5915 28.3179C46.6048 28.4344 46.6182 28.5508 46.6315 28.6639C45.9717 29.8148 44.7422 30.1408 43.6726 30.6963C43.3627 30.4834 43.3461 30.184 43.416 29.858C43.476 29.7117 43.576 29.6019 43.7126 29.5221C44.7489 29.3158 45.2953 27.9287 46.5915 28.3179Z" fill="#F3A397"/>
<path d="M23.6469 7.7477C24.0967 8.403 24.8131 7.59136 25.2996 8.04708C25.3196 8.11693 25.3363 8.18678 25.3562 8.25664C25.0497 8.77555 24.3233 9.04166 24.4299 9.81005C23.5869 10.3489 23.5003 10.3024 23.0938 9.10153C22.9971 8.86536 22.8705 8.64249 22.7306 8.42628C22.4707 8.40965 22.2074 8.39302 21.9475 8.37639C22.454 7.99385 23.0305 7.81756 23.6469 7.7477Z" fill="#E25D57"/>
<path d="M43.6659 29.7217C43.6693 30.0476 43.6693 30.3736 43.6726 30.6996C43.3061 31.3482 42.643 31.5378 42.0132 31.7773C41.4068 30.9524 42.2865 30.7628 42.6297 30.3437C42.8796 30.0377 42.8229 29.6185 43.0362 29.2959C43.1661 29.0996 43.3461 28.9267 43.556 29.0364C43.8392 29.1828 43.8226 29.4622 43.6659 29.7217Z" fill="#D6403A"/>
<path d="M6.96325 15.3617C7.0732 15.3651 7.18649 15.3684 7.29645 15.3717C6.77998 15.7642 6.73667 16.9684 5.62376 16.3397C5.94697 15.8441 6.48676 15.6445 6.96325 15.3617Z" fill="#D44842"/>
<path d="M24.9297 41.9161C25.4662 41.5768 26.0527 41.6034 26.6458 41.6899C26.1226 42.119 25.5262 42.0059 24.9297 41.9161Z" fill="#F6BEB1"/>
<path d="M0.64565 24.6789C0.738948 24.6756 0.832246 24.6722 0.925544 24.6689C1.60862 24.9383 1.23876 24.0668 1.63194 24.0203C1.7519 24.0169 1.86852 24.0136 1.98847 24.0103C2.22505 23.7309 2.51827 23.4714 2.32168 23.0423C2.31502 22.9126 2.30835 22.7829 2.30169 22.6565C2.10509 22.4436 2.12842 22.234 2.30502 22.0211C2.97476 22.0211 3.55121 21.9313 3.31464 21.0199C3.51789 20.4444 4.24428 20.2981 4.32758 19.4798C4.37756 18.9908 5.22391 19.3367 5.65708 19.6893C6.13356 20.1683 6.6367 20.5043 7.30645 20.022C7.55635 20.0819 7.71629 20.2349 7.76961 20.491C7.70963 21.1762 7.41974 21.6785 6.69668 21.8382C5.64042 22.0178 5.76704 23.0423 5.42383 23.7043C5.15727 24.2198 4.97067 24.8053 4.85072 25.3941C4.79407 25.6901 4.67079 25.9662 4.55083 26.239C3.60119 28.4111 5.56045 28.767 6.68002 29.6451C6.85329 29.7815 6.9899 29.9445 7.04988 30.1574C7.01989 30.683 7.77294 30.7695 7.71296 31.3083C7.64965 31.3782 7.54636 31.5312 7.54969 31.5345C7.83625 31.7175 7.9562 31.4347 8.13613 31.3083C8.45268 31.009 8.81921 30.5932 9.23238 30.7329C10.2753 31.0855 11.205 30.5998 12.1813 30.5C12.4778 30.6131 12.6577 30.8692 12.871 31.0821C13.1809 31.3948 13.5974 31.621 13.7307 32.09C13.7407 32.2464 13.694 32.3827 13.5974 32.4958C13.1642 32.7653 13.3508 32.8917 13.7173 32.9748C14.0339 33.4405 14.3771 33.8829 14.717 34.332C14.7403 34.791 14.4004 34.9906 14.0872 35.2101C13.3408 35.5195 12.7111 35.443 12.3012 34.658C12.0746 34.2455 11.7114 34.5515 11.4282 34.4817C10.6052 34.2754 10.0354 33.9195 11.3049 32.9183C10.0721 33.1644 9.12909 32.6222 8.31606 33.3607C8.39603 33.527 8.35938 33.6634 8.21944 33.7798C7.28646 34.0459 6.68669 33.3574 5.97029 32.9948C6.16022 31.8173 5.08063 32.3295 4.63747 31.9969C4.30093 31.6842 3.96439 31.3715 3.62785 31.0588C3.82777 30.7096 3.4146 30.3304 3.68116 29.9844C3.81778 29.9179 4.26094 30.0244 3.9344 29.6817C3.68449 29.409 3.29464 29.2759 2.96477 29.083C2.92145 28.6605 2.70153 28.4011 2.26503 28.3445C1.68859 28.8036 2.45163 29.0963 2.37832 29.735C0.405741 28.4011 1.2121 26.2888 0.64565 24.6789Z" fill="#E05B56"/>
<path d="M12.3079 34.6546C12.851 34.8542 13.3275 35.3964 13.9872 34.9773C14.2405 34.7744 14.5537 34.821 14.8436 34.7677C15.3434 34.8709 15.8499 34.9108 16.363 34.8742C16.8495 35.0205 17.3693 35.0837 17.7591 35.4563C18.0124 35.902 17.7725 36.2846 17.5959 36.6737C17.7625 37.2392 18.3789 37.5885 18.3656 38.2438C17.8824 38.6596 17.7225 37.7814 17.2927 37.9777C16.8495 37.8313 16.403 37.6384 15.9665 37.991C14.8536 38.9556 14.8536 38.9556 13.1975 38.4567C13.2375 38.3003 13.2642 38.1373 13.3208 37.9877C14.1438 35.8222 14.1438 35.8222 11.9613 35.6659C11.5848 35.8155 11.4149 35.6126 11.3183 35.29C11.6481 35.0738 11.978 34.8642 12.3079 34.6546Z" fill="#D54544"/>
<path d="M10.9817 35.9586C10.9551 36.2347 11.7114 36.3777 11.175 36.6804C10.6952 36.9498 10.2353 37.4954 9.52894 37.0363C8.68593 36.4875 8.42936 35.6625 8.27608 34.7578C9.06911 34.6846 9.05912 34.6946 9.89546 35.5661C10.3553 36.0451 10.6618 35.5428 11.0084 35.3399C11.175 35.5528 11.1716 35.759 10.9817 35.9586Z" fill="#DE5E59"/>
<path d="M5.97696 32.9915C6.84996 32.8551 7.46639 33.5836 8.26942 33.67C8.56597 33.6767 8.83587 33.7299 8.96249 34.0492C8.29941 34.2488 7.63632 34.4517 6.97658 34.6513C6.57006 34.5682 5.17726 35.433 6.25352 33.8863C6.36348 33.7299 6.07692 33.2975 5.97696 32.9915Z" fill="#D44543"/>
<path d="M5.97696 35.9852C6.08691 35.9819 6.2002 35.9819 6.31016 35.9819C7.05654 36.3777 6.80331 37.0097 6.68669 37.6051C6.65003 37.8047 6.52341 37.9112 6.32682 37.9411C5.63042 37.4122 5.66374 37.4288 6.07692 36.7436C6.18354 36.574 6.02027 36.2413 5.97696 35.9852Z" fill="#E6867F"/>
<path d="M6.33015 37.9411C6.45011 37.828 6.57006 37.7182 6.69002 37.6051C7.13985 37.4222 7.58634 37.1162 8.16612 37.6883C7.80626 37.991 7.16317 37.8579 6.97658 38.3536C6.70335 38.307 6.44011 38.2405 6.33015 37.9411Z" fill="#EC8C85"/>
<path d="M15.9632 37.9843C16.3963 36.8933 16.8395 37.2825 17.2893 37.971C16.8528 38.297 16.4097 38.2937 15.9632 37.9843Z" fill="#BB3231"/>
<path d="M12.0646 37.3656C12.3112 37.3324 12.4945 37.4255 12.5644 37.6683C12.6278 37.8979 12.5878 38.154 12.3179 38.1507C12.1479 38.1507 11.928 37.9843 11.8247 37.828C11.6748 37.6051 11.7947 37.4222 12.0646 37.3656Z" fill="#BC3933"/>
<path d="M16.9694 40.3061C16.5496 40.3061 16.1298 40.3061 16.1331 40.3061C16.1298 40.3028 16.5963 39.235 16.9694 40.3061Z" fill="#EA716C"/>
<path d="M8.96582 34.0492C8.73591 33.9228 8.50266 33.7964 8.27275 33.67C8.29941 33.5669 8.31607 33.4605 8.32273 33.354C8.72258 33.4106 9.12243 33.4605 9.36567 33.843C9.22905 33.9129 9.09577 33.9827 8.96582 34.0492Z" fill="#EF9D99"/>
<path d="M11.2683 39.2916C10.9351 39.4546 10.6052 39.7839 10.252 39.3249C10.5785 38.919 10.9117 38.7993 11.2683 39.2916Z" fill="#EB8077"/>
<path d="M13.9439 40.2828C13.5341 40.2729 13.3142 40.07 13.3142 39.6508C14.1072 39.2816 13.9906 39.8205 13.9439 40.2828Z" fill="#ED8077"/>
<path d="M10.9817 35.9586C10.9917 35.7523 10.9984 35.5461 11.0084 35.3399C11.1117 35.3299 11.215 35.3099 11.3183 35.2833C11.5315 35.4097 11.7481 35.5328 11.9613 35.6592C11.7348 36.0883 11.3449 35.9785 10.9817 35.9586Z" fill="#E9908B"/>
<path d="M29.9712 37.9877C29.5047 38.613 28.705 39.0554 28.9316 40.0533C28.9915 40.3228 28.7749 40.6354 28.4484 40.5656C27.862 40.4425 28.3051 40.1731 28.3518 39.8937C28.4751 39.1752 27.5088 39.7007 27.3955 39.1685C26.9523 39.6775 25.7994 39.2217 25.7928 40.3461C25.7928 40.5556 25.6928 40.7652 25.6361 40.9714C24.5232 41.3539 24.6932 40.4092 24.4733 39.8637C24.36 39.4213 24.6832 39.0787 24.7798 38.623C24.5732 38.949 24.3366 39.1353 24.0134 39.2084C23.1138 39.1452 22.534 38.633 22.1308 37.8679C22.6373 36.5573 23.3404 35.4397 24.8631 35.1436C26.2892 34.974 27.0689 35.7024 27.4421 36.9931C27.8753 36.9798 28.2818 37.0796 28.6717 37.2592C28.9982 37.4122 29.3314 37.5453 29.6579 37.6949C29.7879 37.7648 29.8912 37.8646 29.9712 37.9877Z" fill="#E0615C"/>
<path d="M32.037 35.3798C31.4173 35.616 30.7509 35.7723 30.3077 36.3278C30.1944 36.4243 30.0645 36.4575 29.9178 36.4276C29.488 36.1648 28.9316 36.3245 28.5117 36.0151C28.3185 35.26 27.9319 34.5981 27.5121 33.9528C27.5587 33.5037 27.9053 33.3075 28.2285 33.0879C28.9649 32.6721 29.6513 32.12 30.5776 32.1865C31.1074 32.8019 32.3969 32.0235 32.5902 33.2676C32.5335 33.8364 32.2969 34.3952 32.4569 34.984C32.4202 35.2235 32.3069 35.3831 32.037 35.3798Z" fill="#E46560"/>
<path d="M36.2954 31.3283C36.4154 31.5611 36.5353 31.794 36.6553 32.0235C36.8319 32.2464 36.8219 32.4592 36.6253 32.6622C36.7786 32.9582 36.9185 33.2509 36.6186 33.5436C35.669 34.0792 35.9922 35.3133 35.2791 35.9752C34.6527 35.3997 35.1958 34.5881 34.8526 33.9328C34.2262 33.9162 33.9796 34.7711 33.2999 34.6546C33.2766 34.5815 33.2499 34.5116 33.2266 34.4384C33.6897 33.2975 34.7427 32.5723 35.3058 31.5013C35.4024 31.3782 35.5224 31.2784 35.6557 31.1986C35.8889 31.1221 36.1088 31.1453 36.2954 31.3283Z" fill="#D03F3D"/>
<path d="M29.9212 36.2846C30.0511 36.2979 30.1777 36.3112 30.3077 36.3245C30.6342 36.7602 29.9178 36.6837 29.9778 36.9898C29.9345 37.0496 29.8912 37.1128 29.8512 37.176C29.5313 37.5586 29.0182 37.4355 28.6317 37.6417C28.1952 37.522 27.7587 37.4022 27.3222 37.2858C26.9423 36.4642 27.5821 36.3245 28.1119 36.1149C28.6916 36.411 29.3414 35.9885 29.9212 36.2846Z" fill="#D9413D"/>
<path d="M35.2758 35.9752C35.699 35.1536 35.2991 33.8763 36.6153 33.5436C36.4154 34.3686 35.8556 35.0605 35.8756 35.9918C35.8889 36.4675 35.4724 36.707 35.2758 35.9752Z" fill="#DF6E6C"/>
<path d="M29.9712 37.9877C29.8545 37.9843 29.7412 37.981 29.6246 37.9777C29.2514 37.4787 29.6146 37.2359 29.9712 36.9931H29.9778C30.2244 37.033 30.6776 37.0496 30.6842 37.1195C30.7409 37.6085 30.311 37.7714 29.9712 37.9877Z" fill="#E7706A"/>
<path d="M32.037 35.3798C32.1337 35.2733 32.2303 35.1669 32.3236 35.0605C32.3769 34.7245 32.5835 34.5382 32.91 34.4684C33.0667 34.475 33.1966 34.5382 33.2999 34.6546L33.2966 34.6513C33.1333 35.3432 32.8101 35.7457 32.037 35.3798Z" fill="#D03F3D"/>
<path d="M36.6253 32.6622C36.6353 32.4493 36.6453 32.2364 36.6553 32.0235C37.5216 31.5611 37.2284 32.2796 37.2817 32.6389C37.0618 32.6489 36.8452 32.6555 36.6253 32.6622Z" fill="#E67068"/>
<path d="M48.2775 5.38931C48.9473 5.51239 49.6137 6.86289 50.2901 5.39264C50.4001 5.2363 50.5133 5.22965 50.6233 5.39264C50.6366 5.75854 50.5567 6.15438 50.9598 6.38722C51.1631 6.65666 51.2364 6.94938 51.1131 7.27536C51.0265 7.40841 50.9032 7.48825 50.7466 7.51486C50.2268 7.46164 49.6203 7.16892 49.4338 7.99385C49.4671 8.11028 49.5437 8.17348 49.677 8.1635C49.9902 7.96392 50.2968 7.75436 50.67 8.00716C50.9199 8.70237 50.9965 9.35101 50.1735 9.74352C49.3171 10.0196 48.6141 10.3822 49.2072 11.4666C49.3038 11.7826 49.3371 12.1019 49.2905 12.4312C49.2205 12.7772 49.0772 13.0699 48.7074 13.183C47.1913 12.9302 47.3612 11.4666 46.7981 10.5285C46.7548 10.3722 46.7448 10.2125 46.7614 10.0529C47.2712 9.28448 47.7644 8.55601 46.5815 7.87411C46.1084 7.60134 45.7018 7.03919 46.0017 6.47038C46.2883 5.92818 46.7814 6.41051 47.1846 6.48701C47.6311 6.57017 47.7344 6.21758 47.8877 5.92818C47.9743 5.72195 48.1076 5.54233 48.2775 5.38931Z" fill="#DD5450"/>
<path d="M48.2409 5.96477C47.9543 7.44833 47.2013 7.34521 46.2316 6.25749C46.1783 7.16559 46.5382 7.55477 47.0047 7.84084C48.1642 8.54936 48.1642 9.1348 46.9714 9.98634C45.1221 9.85329 45.0654 8.35643 44.7389 7.0658C44.9155 6.76643 44.9021 6.4471 44.8222 6.12444C44.7722 5.66207 44.3257 5.75189 44.0658 5.58889C43.9392 5.51239 43.8459 5.40262 43.7826 5.26956C43.7492 5.12653 43.7526 4.9835 43.7859 4.84046C43.8725 4.62425 44.0958 4.5544 44.2491 4.41136C44.9321 4.51448 45.6185 4.62092 46.3016 4.72404C46.7315 4.64753 46.8114 5.3494 47.2912 5.16312C47.7444 5.26624 47.991 5.61883 48.2409 5.96477Z" fill="#E5645C"/>
<path d="M43.9592 4.75398C43.9592 4.85377 43.9592 4.95023 43.9592 5.05002C43.5127 5.59222 42.6497 5.23963 42.2332 5.84835C42.0899 5.91155 41.9399 5.94149 41.7867 5.94814C41.1769 5.81841 40.4938 5.9049 40.034 5.34607C39.8974 5.23963 39.7608 5.12986 39.6208 5.02341C39.6808 4.08871 38.8678 4.3149 38.388 4.09536C38.1447 3.98559 37.8015 3.87249 37.8948 3.56979C37.9315 3.44672 38.368 3.44672 38.6212 3.39017C40.8004 2.79808 43.0129 2.60847 45.5119 2.7881C44.5323 3.25046 43.8459 3.78933 42.9162 3.71283C42.5397 3.71948 42.0666 3.50327 41.9666 4.12862C42.2032 4.22176 42.4398 4.3149 42.6763 4.40804C43.0395 4.76728 43.616 4.33486 43.9592 4.75398Z" fill="#E46660"/>
<path d="M47.2912 5.37933C46.5582 5.76187 46.2116 5.56561 46.2983 4.72071C46.1917 4.12197 45.4086 4.23174 45.0454 3.54651C46.0884 3.67956 46.7748 4.01885 47.3146 4.67082C47.2579 4.90366 47.4978 5.14982 47.2912 5.37933Z" fill="#EE867D"/>
<path d="M50.9832 7.38513C50.9732 7.05249 50.9665 6.71986 50.9565 6.38722C51.303 6.49034 51.5196 6.72651 51.6529 7.05249C51.5663 7.59802 52.2893 8.14354 51.6529 8.68906C51.0365 8.45622 50.8965 7.97722 50.9832 7.38513Z" fill="#ED9E99"/>
<path d="M41.9666 4.12862C41.68 4.09203 41.3802 4.4912 41.0103 3.98891C41.67 3.78933 42.1432 3.05421 42.9162 3.71283C42.5997 3.85253 42.2831 3.98891 41.9666 4.12862Z" fill="#F1978F"/>
<path d="M47.2912 5.37933C47.2279 5.13984 46.9047 4.89036 47.3179 4.66749C47.6378 4.90699 47.9576 5.14649 48.2775 5.38931C48.2642 5.58224 48.2542 5.77184 48.2409 5.96477C47.9243 5.76852 47.6078 5.57559 47.2912 5.37933Z" fill="#F5B5A7"/>
<path d="M50.6233 5.39264L50.4567 5.38931H50.2901C50.1435 5.11988 49.9935 4.85044 49.8469 4.58101C49.9369 4.5544 50.0402 4.48454 50.1102 4.51115C50.51 4.66749 50.61 5.00678 50.6233 5.39264Z" fill="#ED716C"/>
<path d="M43.9592 4.75398C43.516 4.6941 43.0095 4.8704 42.6763 4.40804C43.1995 4.40804 43.7259 4.40804 44.2491 4.40471C44.1524 4.52446 44.0558 4.63756 43.9592 4.75398Z" fill="#F39C95"/>
<path d="M36.2954 31.3283C36.0588 31.3316 35.8223 31.3349 35.5857 31.3349C35.1892 31.6543 34.8893 31.448 34.6061 31.1553C34.4694 30.6031 34.2795 30.0643 34.1596 29.5054C34.4628 28.6572 34.9826 28.0385 35.9189 27.8722C36.7719 28.1084 37.1951 28.8934 37.8482 29.389C37.8782 29.8314 37.7315 30.1674 37.2817 30.3171C36.9585 30.6597 36.6253 30.9923 36.2954 31.3283Z" fill="#E25F59"/>
<path d="M41.6234 26.3421C41.1536 26.3487 40.827 26.5816 40.6004 26.9741C40.5038 27.0838 40.3805 27.1404 40.2373 27.1504C40.024 27.1105 39.8707 26.9874 39.7508 26.8144C39.5575 26.5017 39.291 26.7978 39.061 26.7346C38.5479 26.392 38.5212 25.8464 38.4646 25.3109C38.5612 24.7521 38.9011 24.476 39.4609 24.4494C40.4438 24.5891 41.4901 24.4061 42.3864 25.0082C42.5164 25.098 42.6197 25.2078 42.6997 25.3442C42.7296 25.597 42.603 25.7799 42.4231 25.9396C42.1998 26.1558 41.8833 26.1891 41.6234 26.3421Z" fill="#E3655E"/>
<path d="M43.6659 29.7217C43.5393 29.6086 43.7393 29.0065 43.2761 29.4223C43.0029 29.6651 42.8396 30.031 42.6297 30.3437C42.633 30.0011 42.6363 29.6585 42.6397 29.3158C43.0062 28.1782 42.8496 26.9508 43.2295 25.8099C44.4023 25.0481 44.479 25.098 44.7322 26.7479C44.6156 27.7491 44.6689 28.8002 43.8892 29.6086C43.8092 29.6352 43.7326 29.6751 43.6659 29.7217Z" fill="#D9564F"/>
<path d="M43.2994 26.0726C43.7326 27.2868 43.2228 28.3113 42.6363 29.3158C42.2998 28.3246 41.9599 27.3333 41.6234 26.3421C41.83 26.1192 42.0366 25.8963 42.2398 25.6735C42.4164 26.0327 42.663 26.0893 42.9762 25.8365C43.1228 25.8631 43.2295 25.9429 43.2994 26.0726Z" fill="#DD605A"/>
<path d="M40.2972 27.0073C40.4005 27.0007 40.5005 26.9874 40.6004 26.9774C41.2402 27.5462 40.5138 27.6327 40.2739 27.8888C39.8341 28.3578 39.3909 28.8235 38.9511 29.2926C38.9244 29.5187 38.8011 29.6451 38.5712 29.6585C38.0181 29.6451 38.1747 30.9857 37.2884 30.3271C37.405 29.9977 37.5216 29.6718 37.6382 29.3424C37.8815 29.0497 37.8981 28.6439 38.1314 28.3479C38.3147 28.1117 38.5579 27.9487 38.7911 27.7691C39.211 27.35 39.7374 27.147 40.2972 27.0073Z" fill="#D0403E"/>
<path d="M40.6138 31.3482C40.2506 32.0368 39.6308 32.4626 39.061 33.0114C38.6412 31.7773 38.6412 31.7773 40.3006 30.3337C40.6338 30.5998 40.6504 30.9657 40.6138 31.3482Z" fill="#DF6862"/>
<path d="M40.6138 31.3482C40.2139 31.1021 40.2972 30.7029 40.2972 30.3337C40.5571 29.9977 40.8137 29.6618 41.2269 29.1262C41.2769 30.0842 41.5434 30.8559 40.6138 31.3482Z" fill="#C53634"/>
<path d="M38.5712 29.6518C38.6978 29.5287 38.8245 29.409 38.9511 29.2859C39.2843 29.5187 39.3243 29.8414 39.0011 30.041C38.6179 30.2805 38.6545 29.858 38.5712 29.6518Z" fill="#E77A72"/>
<path d="M24.9564 35.3C23.6702 35.8222 22.9971 36.9299 22.3307 38.0442C22.0908 38.1773 22.2374 38.5232 21.9909 38.6496C20.9546 38.2205 21.8109 37.7648 21.9709 37.3191C20.728 36.554 19.3485 36.6039 17.9691 36.6471C17.8424 36.6538 17.7192 36.6604 17.5925 36.6671C17.2993 36.3178 17.6725 36.0284 17.6825 35.7091C18.0424 34.5881 18.8021 33.9029 19.9416 33.6235C20.9579 33.6002 21.9975 33.4206 23.1371 34.006C22.2308 35.2301 20.7313 34.475 19.7917 35.2933C20.9146 35.5328 21.8376 35.1237 22.6706 34.6513C23.6602 34.0892 24.4999 34.2322 25.3729 34.801C25.3796 35.0937 25.2163 35.2368 24.9564 35.3Z" fill="#FAD5CB"/>
<path d="M21.9909 38.6496C22.0508 38.4168 22.0209 38.1373 22.3307 38.0442C23.1104 37.9777 23.2837 38.9955 24.0268 38.9889C24.3933 39.591 23.8502 40.0034 23.7069 40.4991C23.6936 40.5656 23.6802 40.6321 23.6669 40.6953C23.4103 40.7951 23.1538 40.8916 22.8972 40.9914C22.0142 40.4359 22.464 39.3681 21.9909 38.6496Z" fill="#DA524F"/>
<path d="M17.9724 36.6505C19.4618 35.9586 20.768 36.3378 21.9742 37.3224C20.6714 36.8999 19.2452 37.2259 17.9724 36.6505Z" fill="#F09E92"/>
<path d="M4.64746 32.9915C5.81702 33.1678 5.37052 33.7499 4.98067 34.3154C4.87071 33.8763 4.75742 33.4339 4.64746 32.9915Z" fill="#F4BBB3"/>
<path d="M47.2612 21.6852C47.008 21.8282 46.9647 22.0577 46.9947 22.3205L46.918 22.377C46.7481 22.4635 46.5782 22.4635 46.4082 22.377C45.0321 21.2361 44.9288 19.8523 45.6119 18.3089C46.0084 17.7933 46.1683 17.0549 46.9347 16.8819C47.4945 16.975 47.6244 17.4141 47.5178 17.8332C47.2812 18.7613 47.7711 19.3467 48.3508 19.9222C48.4441 20.787 47.5411 21.0432 47.2612 21.6852Z" fill="#E05F59"/>
<path d="M50.9532 16.0303C50.9598 16.1567 50.9665 16.2798 50.9732 16.4062C51.1064 16.7821 50.8899 17.0416 50.6733 17.2977C50.7632 17.5339 50.8532 17.7734 50.9432 18.0095C50.7832 18.1825 50.6433 18.3721 50.4734 18.5384C50.3267 18.728 50.1402 18.8744 49.9602 19.0241C49.5037 19.2336 49.1805 19.5762 48.9539 20.0187C48.6474 20.1384 48.5274 19.9588 48.4441 19.7093C48.4275 19.37 48.5807 19.0873 48.744 18.8112C49.1239 18.2025 49.3938 17.5339 49.7603 16.9185C50.0269 16.4761 50.2068 15.854 50.9532 16.0303Z" fill="#CA3B3B"/>
<path d="M49.9602 19.0241C49.9636 18.7513 50.0269 18.5052 50.2901 18.3621C51.2164 18.4519 50.48 19.3733 50.9565 19.6893C50.8665 20.1318 51.2097 20.8769 50.52 20.9201C49.8269 20.9633 50.1668 20.1717 50.0035 19.7725C49.9169 19.5563 50.2634 19.2636 49.9602 19.0241Z" fill="#DB5A58"/>
<path d="M48.6207 19.686C48.7307 19.7958 48.8406 19.9089 48.9506 20.0187C48.5174 20.7072 47.9743 21.2793 47.2612 21.6852C47.2846 20.9367 48.0343 20.6307 48.2809 20.0187C48.1942 19.7026 48.3342 19.6162 48.6207 19.686Z" fill="#CD3C3C"/>
<path d="M50.4967 22.2141C50.42 22.0211 50.3168 21.8847 50.3434 21.785C50.3767 21.6685 50.5267 21.5887 50.6233 21.4922C50.6933 21.602 50.8366 21.7251 50.8199 21.8182C50.7966 21.938 50.65 22.0378 50.4967 22.2141Z" fill="#DB5A58"/>
<path d="M22.7339 8.42295C22.8939 8.50279 23.0538 8.57929 23.2137 8.65913C22.8472 9.90319 21.7376 10.7913 21.5444 12.1185C21.0845 13.7052 21.531 15.6079 19.9283 16.8021C19.3952 17.2678 18.9853 17.8898 18.2656 18.126C17.9924 18.096 17.8524 17.9297 17.8058 17.6736C18.1856 16.4129 19.6151 15.5813 19.3052 14.0379C18.9887 13.5921 19.0486 13.153 19.3185 12.714C19.8783 11.7859 20.9246 11.2171 20.9113 9.84664C20.9046 9.05496 22.3107 9.17471 22.7339 8.42295Z" fill="#F9D0C7"/>
<path d="M17.9591 11.7161C17.6259 12.2815 17.2493 12.6641 16.6296 12.0321C16.9828 11.5564 17.4992 11.7526 17.9591 11.7161Z" fill="#EA706B"/>
<path d="M17.206 11.3768C17.0427 11.2736 16.8362 11.2204 16.8128 11.1206C16.7462 10.8545 16.9628 10.7514 17.1794 10.778C17.2927 10.7913 17.4559 10.941 17.4692 11.0408C17.4759 11.1339 17.3126 11.247 17.206 11.3768Z" fill="#DE5E5B"/>
<path d="M8.98581 15.4017C10.4086 14.946 11.4482 13.8915 12.6311 13.0666C12.6444 13.2794 12.6544 13.4923 12.6677 13.7052C12.6011 14.5934 11.9114 15.1023 11.4282 15.7343C11.3083 15.8208 11.1783 15.8873 11.0384 15.9372C10.5319 16.0902 10.3486 16.5493 10.0754 16.9285C9.80217 17.3143 9.52227 17.7567 8.94249 17.3476C9.04246 16.7023 8.33939 16.0403 8.98581 15.4017Z" fill="#F7BBB4"/>
<path d="M5.65708 19.6893C5.49714 20.0918 4.12099 18.6548 4.69744 20.4344C5.12395 21.7484 3.61452 20.3679 3.31464 21.0199C3.09139 21.0398 2.86814 21.3758 2.64822 21.0166C3.13137 19.9954 3.8411 19.1405 4.61414 18.3322C4.99066 18.3721 5.39718 18.3322 5.65708 18.7047C5.65708 19.034 5.65708 19.36 5.65708 19.6893Z" fill="#E7746E"/>
<path d="M8.94916 17.3509C9.79217 17.3143 9.7955 16.5226 10.142 16.0403C10.3553 15.741 10.4719 15.0956 11.0084 15.7543C11.3882 16.3796 10.8484 16.7256 10.5819 17.1547C10.2153 17.627 9.88547 18.1426 9.29903 18.3921C9.15575 18.4519 9.00914 18.4785 8.85586 18.4785C8.62262 18.3954 8.43935 18.2856 8.61928 17.9962C8.72591 17.7833 8.8392 17.5671 8.94916 17.3509Z" fill="#F9CDC2"/>
<path d="M5.66041 18.7047C5.28389 18.6582 4.84738 18.7846 4.61747 18.3322C4.73743 18.2224 4.85405 18.1093 4.974 17.9995C5.68373 17.7634 5.9503 17.9663 5.66041 18.7047Z" fill="#E98E85"/>
<path d="M8.61595 17.9995C8.74257 18.126 8.86586 18.2524 8.99248 18.3788C9.12243 18.9609 8.7559 19.2403 8.3194 19.4731C8.15946 19.4931 8.01285 19.4565 7.8829 19.3567C8.0395 18.8578 8.22277 18.3721 8.61595 17.9995Z" fill="#F3ABA2"/>
<path d="M7.8829 19.3567C8.01618 19.3501 8.14946 19.3467 8.28275 19.3401C8.50266 19.9555 8.12281 20.1683 7.63299 20.308C7.52303 20.2116 7.41641 20.1151 7.30645 20.0187C7.49971 19.7991 7.68964 19.5796 7.8829 19.3567Z" fill="#EF8A83"/>
<path d="M3.68783 29.9778C3.78779 30.3404 4.87737 30.7528 3.63451 31.0522C3.36128 30.6796 2.99476 30.3038 3.68783 29.9778Z" fill="#F4A9A4"/>
<path d="M2.26837 28.3412C2.46496 28.0951 2.70487 28.0252 2.92145 28.278C3.12138 28.5142 3.33463 28.7936 2.9681 29.0797C2.73152 28.8335 2.50161 28.5874 2.26837 28.3412Z" fill="#F2A49B"/>
<path d="M1.33539 29.9911C1.21543 30.5233 1.56197 31.1553 1.00551 31.5977C1.18878 31.0755 0.495707 30.3769 1.33539 29.9911Z" fill="#F1938B"/>
<path d="M29.2948 9.06494C29.558 9.5639 29.9912 9.88323 30.511 9.64373C31.0707 9.38427 30.4843 9.00839 30.4576 8.67908C30.3677 7.53814 31.3773 7.13233 31.9671 6.4471C32.0904 5.91155 32.5169 5.76852 32.98 5.67205C33.5865 5.63879 34.2095 5.5523 34.6727 6.0945C34.736 6.34731 34.5694 6.46373 34.3995 6.61674C33.2499 7.64459 33.2899 8.13356 34.4694 9.05164C34.9459 9.42086 35.6323 9.47741 35.9456 10.0629C36.2254 10.4587 36.4687 10.1859 36.7153 10.0096C36.8252 9.92647 36.9452 9.86327 37.0651 9.81005C37.6282 9.39758 37.3384 8.42961 38.1314 8.16683C38.408 7.99053 38.6978 7.86413 39.0377 7.92733C40.3072 8.48948 39.9307 9.27118 39.3309 10.0828C39.151 10.329 38.9811 10.5818 38.8578 10.8612C38.5679 11.8724 38.4213 12.9934 37.1051 13.2595C36.5253 13.4591 36.0189 13.3061 35.5457 12.9601C35.0659 12.4645 34.5627 12.7539 34.0396 12.8903C33.3299 13.0765 32.6235 13.5156 31.8571 13.0499C31.6672 12.7639 31.6572 12.4612 31.7771 12.1485C32.147 11.7526 32.5868 11.44 32.99 11.0807C33.2133 10.8811 33.6831 10.7015 33.3299 10.3622C33.0033 10.0462 32.5568 10.2325 32.4302 10.6649C32.2503 11.277 31.8305 11.5364 31.2773 11.6828C30.8975 11.756 30.5243 11.746 30.1644 11.603C29.9112 11.4333 29.6646 11.1206 29.388 11.5763C28.3085 12.9302 29.9412 13.2029 30.341 13.968C29.7246 14.6299 28.9882 14.4836 28.2451 14.2873C27.7987 14.0778 27.672 13.6686 27.5921 13.2329C27.5521 13.02 27.5354 12.6275 27.4421 12.6308C25.6761 12.6607 26.5291 11.1206 26.066 10.3822C25.956 9.98634 25.9294 9.59051 26.126 9.2113C26.1826 9.15475 26.2426 9.09821 26.2992 9.04166C26.9756 9.28116 27.6487 9.26785 28.3185 9.02835C28.6517 8.81546 28.9782 8.74894 29.2948 9.06494Z" fill="#E25D57"/>
<path d="M32.9667 6.03795C32.6335 6.17433 32.3003 6.31072 31.9704 6.4471C31.1974 6.31072 30.4243 6.17433 29.6513 6.04128C30.5476 5.41925 31.6972 5.56561 32.6301 5.05335C32.7301 5.02009 32.8367 4.98017 32.9334 5.00346C33.3232 5.09327 33.9297 5.01011 33.9496 5.52237C33.973 6.11779 33.2233 5.70864 32.9667 6.03795Z" fill="#FDECE6"/>
<path d="M25.2996 8.04708C25.4429 7.78097 25.6928 7.72442 25.966 7.71444C26.1959 8.12691 26.3492 8.56266 26.3026 9.04498C25.1963 9.48739 25.5229 8.49613 25.3063 8.05373L25.2996 8.04708Z" fill="#E25D57"/>
<path d="M29.2948 9.06494C28.9715 9.05496 28.645 9.04498 28.3218 9.03168C28.5117 8.59593 28.8249 8.28657 29.3081 8.46287C29.6579 8.59593 29.5347 8.86869 29.2948 9.06494Z" fill="#EE7E74"/>
<path d="M28.1718 7.84749C27.9853 8.30986 27.6754 8.4163 27.0956 8.36308C27.3522 7.76433 27.672 7.68118 28.1718 7.84749Z" fill="#F4B8AF"/>
<path d="M7.63299 20.308C7.84958 19.9854 8.06616 19.6627 8.28275 19.3401C8.51932 19.0174 8.7559 18.6981 8.99248 18.3754L8.99914 18.3854C9.58558 17.9363 9.82882 18.4885 10.162 18.7779C11.0417 19.6261 11.7914 18.901 12.5711 18.5783C13.2842 18.5018 13.8306 17.9264 14.0406 17.4607C14.6437 16.1235 16.5596 16.6524 16.9828 15.2121C17.2293 14.8994 17.4526 14.5401 17.9491 14.6898C18.1157 13.8882 18.8454 14.2374 19.3019 14.0312C19.9983 14.8561 19.7417 15.6245 19.1386 16.3497C18.7621 16.8054 18.3489 17.2345 17.9524 17.6736C17.8224 18.5151 17.3893 19.1471 16.6329 19.5496C15.9498 19.7592 15.2734 19.7326 14.547 19.4964C15.0502 19.849 15.7532 19.5164 16.1331 20.0586C16.3497 20.4378 16.3663 20.8436 16.293 21.2627C15.9498 22.2972 15.2301 22.9226 14.1905 23.202C13.7007 23.1055 13.2575 23.0856 13.2642 23.7874C12.6811 24.0635 12.118 23.9571 11.5648 23.6976C11.2316 23.2619 11.8614 22.8194 11.5582 22.397C11.2883 22.3005 11.4282 22.5101 11.4182 22.6099C11.5415 23.8939 10.4153 23.7708 9.71887 24.13C9.47563 24.1101 9.24904 24.0402 9.02246 23.9604C8.28941 23.8174 7.47972 24.0602 6.8133 23.5945C6.0336 23.049 5.50713 22.4402 6.59672 21.6685C7.25647 21.4523 7.38642 20.8336 7.63299 20.308Z" fill="#E15752"/>
<path d="M17.2993 15.3385C16.7795 16.6158 15.8865 17.2578 14.4404 16.7256C14.507 17.5305 15.1235 17.2179 15.54 17.7933C14.0072 16.9917 13.8606 19.1205 12.6144 18.7047C11.9913 19.1571 11.4282 19.044 10.9051 18.5318C10.222 17.4707 11.2183 16.6324 11.2949 15.6711C11.5082 14.8462 12.108 14.2907 12.6677 13.7052C14.1205 13.8117 15.62 13.6021 16.9694 14.3705C17.2427 14.6399 17.0228 15.0724 17.2993 15.3385Z" fill="#DE4F4C"/>
<path d="M17.2993 15.3385C16.393 15.2852 16.8128 14.7863 16.9694 14.3705C17.3926 14.1909 17.8958 13.7584 17.9524 14.6931C17.7358 14.906 17.5192 15.1222 17.2993 15.3385Z" fill="#EA847C"/>
<path d="M18.6221 12.7173C18.4789 13.5722 18.0124 13.3892 17.4326 13.1464C17.7358 12.5011 18.2323 12.7805 18.6221 12.7173Z" fill="#ED867E"/>
<path d="M50.9532 16.0303C49.8436 16.7355 49.8836 18.2025 48.9606 19.0307C47.1313 18.7912 48.6041 17.8831 48.5974 17.2678C48.7374 17.0016 48.904 16.7522 49.0506 16.4927C49.7703 15.6212 48.8007 15.0956 48.6141 14.4104C48.5474 13.9713 48.3975 13.5356 48.5208 13.0799C48.8373 12.9468 48.9373 12.6807 48.9573 12.368C49.1605 12.1851 49.3105 11.9522 49.5271 11.7892C49.9902 11.4466 50.5033 11.277 51.0531 11.5331C51.6596 11.8125 51.4763 12.3215 51.3697 12.8038C51.3164 13.0366 51.4297 13.2196 51.6063 13.3693C51.7495 14.3439 50.8299 15.059 50.9532 16.0303Z" fill="#E05E5A"/>
<path d="M51.6063 13.3659C51.2997 13.4624 50.9365 13.662 50.9932 13.0599C51.0331 12.6242 51.5996 12.1252 50.9099 11.7892C50.3967 11.5364 49.9869 11.9023 49.5737 12.1851C49.4071 12.3015 49.1672 12.3115 48.9573 12.3713C48.9539 12.0387 48.9506 11.7094 48.9473 11.3768C49.2838 10.7115 49.727 10.1028 49.9502 9.38095C50.9832 9.34436 50.1635 8.38304 50.6133 8.05373C50.4167 7.81756 50.4367 7.58471 50.62 7.35519C50.7399 7.36517 50.8599 7.37515 50.9798 7.38513C51.2031 7.82088 51.4263 8.25331 51.6496 8.68906C51.2731 9.04166 50.3801 9.25122 51.4297 9.92314C52.1994 10.4188 51.6229 11.3801 51.9728 12.0553C51.7129 12.4545 51.5896 12.8903 51.6063 13.3659Z" fill="#E36863"/>
<path d="M50.9532 19.6893C50.4234 19.4 50.8266 18.6449 50.2868 18.3621C50.4234 18.0927 50.6766 18.0395 50.9398 18.0095C50.9465 18.5684 50.9498 19.1305 50.9532 19.6893Z" fill="#D44A49"/>
<path d="M50.6733 17.2977C50.7732 17.0016 50.8732 16.7023 50.9732 16.4062C51.463 16.8985 51.5463 17.2578 50.6733 17.2977Z" fill="#E8928E"/>
<path d="M46.6681 22.3338C46.7548 22.3338 46.8381 22.3504 46.918 22.3737C46.9347 22.6997 46.9547 23.0224 46.9714 23.3483C46.4749 24.303 46.7148 25.3475 46.6015 26.3487C46.1517 28.6705 45.1154 26.8111 44.319 26.668C44.1924 26.3221 44.4923 25.8265 44.0991 25.6236C43.7593 25.4473 43.5993 25.9662 43.2994 26.0726C43.1795 26.056 43.0629 26.0394 42.9429 26.0194C42.8429 25.7932 42.8596 25.5071 42.613 25.3508H42.5331C42.4664 24.6456 42.9429 24.3596 43.4794 24.1134C43.7059 24.0535 43.9392 24.0436 44.1691 24.0602C45.2354 24.0668 45.6219 23.2352 46.0884 22.5034C46.245 22.3271 46.4149 22.1775 46.6681 22.3338Z" fill="#F7BDB3"/>
<path d="M49.5071 24.283C49.8269 24.1666 49.9069 24.3263 49.8369 24.4793C49.757 24.6523 49.6004 24.8219 49.4304 24.9184C49.2771 25.0082 49.0939 24.9018 49.1805 24.7022C49.2572 24.5192 49.4271 24.3795 49.5071 24.283Z" fill="#ED8C85"/>
<path d="M48.2709 23.2585C48.5707 23.1421 48.6107 23.345 48.5941 23.488C48.5774 23.6278 48.4974 23.8207 48.3875 23.8772C48.2009 23.9737 48.0676 23.814 48.0876 23.6344C48.1043 23.4947 48.2175 23.3616 48.2709 23.2585Z" fill="#EB988F"/>
<path d="M44.3224 26.6681C44.6322 26.3787 45.1387 25.8997 45.3453 26.4618C46.0117 28.2581 46.1683 26.0194 46.6048 26.3487C46.6015 27.0073 46.5948 27.6626 46.5915 28.3213C45.5319 28.421 45.0488 29.7217 43.8892 29.6119C44.0325 28.6306 44.1791 27.6493 44.3224 26.6681Z" fill="#F7C7BC"/>
<path d="M32.9667 6.03795C33.2066 5.86498 33.4432 5.69201 33.6931 5.50906C33.3232 5.3494 32.9767 5.20304 32.6301 5.05335C32.9734 4.59431 33.4898 4.76728 33.9397 4.6941C35.1792 6.25749 36.8652 5.68203 38.4346 5.60885C38.9711 5.58557 39.5009 5.43588 40.034 5.34274C40.6871 5.41925 41.3602 5.38266 41.9599 5.7153C41.9166 6.63337 41.2235 6.98929 40.5405 7.35852C39.9973 7.4949 39.4376 7.50488 38.9544 7.24542C37.6216 6.53358 36.1288 6.62672 34.716 6.32735C34.1762 5.96477 33.5465 6.15438 32.9667 6.03795Z" fill="#FBDAD1"/>
<path d="M1.63194 24.0203C1.58529 24.4361 1.56863 24.8652 1.1188 25.088C1.05549 24.9483 0.992185 24.8086 0.928876 24.6689C1.01218 24.2897 1.19211 24.0103 1.63194 24.0203Z" fill="#F0867F"/>
<path d="M2.30835 22.0211C2.30835 22.234 2.30502 22.4436 2.30502 22.6565C2.04512 22.8228 1.78522 22.9924 1.40203 23.2386C1.44535 22.5267 1.84853 22.254 2.30835 22.0211Z" fill="#EE7A76"/>
<path d="M2.32168 23.0423C2.90479 23.6045 2.64822 23.8772 1.98847 24.0103C2.09843 23.6876 2.21172 23.365 2.32168 23.0423Z" fill="#EF8E86"/>
<path d="M24.5532 39.6043C25.1996 39.8338 24.6932 40.9747 25.6328 40.9747C24.8664 41.6533 24.2533 41.2808 23.6669 40.6953L23.6102 40.5989C23.6169 39.9768 23.9501 39.6608 24.5532 39.6043Z" fill="#DA524F"/>
<path d="M26.2992 10.3722C27.0523 10.8645 26.7224 11.5032 26.5291 12.072C28.7183 11.4599 27.6987 13.2096 27.9553 14.0013C27.9053 14.0445 27.8553 14.0911 27.802 14.1376C27.6654 14.1576 27.5321 14.1509 27.3955 14.1277C27.1222 14.0877 26.839 14.1776 26.5691 14.0778C26.2392 13.7518 25.9394 13.9048 25.6428 14.1343C24.9531 14.2774 24.2667 14.7297 23.5569 14.1875C23.1737 13.8483 22.6473 13.7551 22.2441 13.4491C22.3007 12.704 20.778 12.9934 21.2611 11.9655C21.4544 10.5951 22.1875 9.54394 23.2104 8.66245C24.0601 8.51277 22.7606 10.5818 24.3033 9.72024C24.4133 9.63708 24.5366 9.61712 24.6698 9.66036C24.9098 9.8666 25.0997 10.1427 25.4462 10.2059C25.7294 10.2724 26.036 10.2159 26.2992 10.3722Z" fill="#DE514E"/>
<path d="M26.2992 10.3722C25.966 10.5851 25.6361 10.5751 25.3029 10.3689C25.1063 10.1227 24.9331 9.85329 24.6332 9.71026H24.4699L24.3066 9.71358C23.3137 8.36641 24.9964 8.61921 25.3063 8.0504C25.7461 8.2766 25.5762 9.10819 26.3026 9.04166C26.2992 9.48739 26.2992 9.9298 26.2992 10.3722Z" fill="#E6655E"/>
<path d="M7.64965 31.3117C7.36976 31.1719 7.06987 31.0588 6.80997 30.8859C6.40013 30.6164 6.42678 30.4102 6.93992 30.3437C7.01989 30.3304 7.09986 30.3171 7.17983 30.3038C8.13613 30.1641 9.10243 30.2971 10.0587 30.214C11.2016 30.2173 11.145 28.6406 12.2279 28.5674C12.7044 28.5308 12.801 29.5088 13.4441 29.0131C13.9506 27.5994 15.3101 26.9209 16.493 27.7192C17.4692 28.3778 17.0128 29.3691 16.4796 30.2006C16.1831 30.5399 15.8465 30.8227 15.4134 30.969C14.3904 31.1121 13.3575 31.3383 12.4012 30.7129C11.3916 30.8759 10.5019 31.8572 9.32568 31.0422C8.92917 30.7661 8.65927 31.458 8.30607 31.6642C7.92621 31.8439 7.76627 31.6177 7.64965 31.3117Z" fill="#DD524B"/>
<path d="M9.32901 23.6777C9.43231 23.7874 9.53893 23.8972 9.64223 24.007C9.77551 24.6456 9.16574 24.6024 8.87252 24.8552C8.74923 24.9383 8.61928 25.0115 8.49266 25.0914C7.54303 25.5171 6.41346 25.7267 6.11024 26.9475C6.08025 27.0739 6.36014 26.841 6.51675 26.8976C6.68002 26.9541 6.79664 27.0506 6.87661 27.1969C7.06654 28.0086 7.53969 28.9233 6.17022 29.1861C4.6308 28.614 3.99104 27.5362 4.32092 25.9096C4.42755 25.7433 4.53417 25.577 4.6408 25.4074C5.06397 24.1833 6.06692 23.7508 7.21315 23.7774C7.93288 23.7974 8.62595 23.6544 9.32901 23.6777Z" fill="#E15A55"/>
<path d="M9.32901 23.6777C8.74257 24.1899 8.00285 24.0103 7.32644 24.1034C6.28351 24.2498 5.3372 24.5591 4.64413 25.4074C4.54083 23.9172 5.46382 22.7263 5.89032 21.3958C6.10024 20.7405 6.41679 21.3991 6.60338 21.6719C5.80369 23.202 7.0099 23.3018 7.9662 23.5346C8.40603 23.6444 8.92583 23.0989 9.32901 23.6777Z" fill="#F8C6BF"/>
<path d="M13.644 32.3362C13.5041 31.8106 12.9176 31.7441 12.6311 31.3682C13.4075 30.7162 14.3204 31.0788 15.1768 31.0322C16.9228 31.764 16.9728 31.9403 16.2197 34.7411C15.8032 35.3366 15.53 34.9673 15.2568 34.5981C15.0602 34.2056 15.1168 33.71 14.7636 33.3806C14.4504 32.9715 13.9239 32.7852 13.644 32.3362Z" fill="#E46E65"/>
<path d="M4.32425 25.9096C4.44754 27.2868 4.97733 28.4011 6.31683 28.9965C6.56007 29.1994 7.04655 29.0963 7.0732 29.5819C7.02322 29.8181 6.80331 29.878 6.64004 29.9977C6.16688 29.725 5.71372 29.409 5.21724 29.1894C3.54788 28.4543 3.55788 27.2901 4.32425 25.9096Z" fill="#F3A9A1"/>
<path d="M15.2368 31.3615C14.3704 31.3649 13.5008 31.3682 12.6344 31.3682C12.3812 31.2119 12.2712 31.0023 12.3978 30.7096C13.4708 30.6863 14.5437 30.6663 15.6133 30.6431C16.0598 30.4036 16.3397 30.52 16.4263 31.0322C16.1797 31.6809 15.7066 31.5112 15.2368 31.3615Z" fill="#FAD2D0"/>
<path d="M13.644 32.3362C14.2738 32.426 14.8636 32.569 14.9969 33.3308C15.2967 33.8231 15.0902 34.1158 14.617 34.3087C13.7407 34.2788 13.6174 33.6833 13.624 32.9881C13.4308 32.7619 13.4474 32.5424 13.6507 32.3295L13.644 32.3362Z" fill="#D04D47"/>
<path d="M14.617 34.3087C14.7436 33.9827 14.8702 33.6567 14.9969 33.3308C15.8865 33.4172 15.4467 33.9262 15.3201 34.3386C15.4967 34.7145 15.5766 35.0372 14.9702 34.9973C14.6437 34.9906 14.3171 34.984 13.9906 34.9773C14.1972 34.7544 14.4071 34.5316 14.617 34.3087Z" fill="#E7776F"/>
<path d="M13.6507 32.3295C13.6407 32.5491 13.634 32.7686 13.624 32.9881C13.3208 33.2044 12.9243 33.8197 12.6777 33.1245C12.4245 32.4027 13.1775 32.4293 13.6507 32.3295Z" fill="#E46E65"/>
<path d="M7.64965 31.3117C7.86624 31.4281 8.08615 31.5445 8.30274 31.6642C7.77294 32.2929 7.31645 31.9004 6.95325 31.4946C6.89661 31.4247 7.40308 31.3615 7.64965 31.3117Z" fill="#ED726F"/>
<path d="M3.03474 24.5558C3.1547 24.6423 3.3313 24.7521 3.47124 24.8984C3.49457 24.9217 3.34462 25.108 3.27465 25.2178C3.10805 25.1047 2.90812 25.0215 2.78817 24.8718C2.68821 24.7521 2.75485 24.5891 3.03474 24.5558Z" fill="#E86A64"/>
<path d="M6.6367 30.0011C6.75999 29.8647 6.88661 29.7283 7.0099 29.5919C7.16317 29.532 7.31645 29.5287 7.47305 29.5786C7.76294 29.7982 8.28941 29.9079 7.89623 30.4535C7.57968 30.4934 7.26313 30.5433 6.96991 30.3603L6.93659 30.3437C6.83996 30.2306 6.74 30.1142 6.6367 30.0011Z" fill="#FCE8E5"/>
<path d="M19.9583 33.9827C18.922 34.1923 18.4189 35.1037 17.6858 35.7091C17.236 35.4729 16.6162 35.5694 16.3297 35.0139C16.2764 34.9573 16.2231 34.8975 16.1697 34.8409C16.1331 34.4185 16.253 34.0759 16.6729 33.8962C17.3959 34.332 17.4126 33.6867 17.5492 33.2975C17.7925 32.599 17.8458 31.764 18.8687 31.7241C19.002 31.7341 19.1353 31.7707 19.2552 31.8206C19.4885 32.0202 19.6351 31.9603 19.7084 31.6576C20.3648 30.9757 19.2652 30.4701 19.5285 29.8314C21.3578 28.5075 23.367 27.5562 25.5495 26.9674C25.8794 26.9441 26.2026 26.9807 26.4991 27.1404C27.009 27.626 26.3192 28.0219 26.3325 28.5275C26.3625 29.5653 26.989 28.8568 27.2389 29.0564C27.672 29.1795 28.0952 29.1229 28.5184 28.9865C29.1915 28.9133 29.8412 28.91 30.3177 29.5054C30.5543 30.0942 30.1611 30.4268 29.8046 30.7794C28.9016 31.3749 27.9886 31.947 26.9223 32.2231C26.769 32.2297 26.6158 32.2197 26.4658 32.1998C24.9297 32.2264 23.407 32.1865 21.9142 32.7719C21.3178 33.0048 21.4511 33.4039 21.2745 33.7465C20.8546 33.9295 20.3548 33.6534 19.9583 33.9827Z" fill="#E05F59"/>
<path d="M14.9702 34.9973C15.2334 34.8542 15.2967 34.6081 15.3201 34.3386C15.5666 34.5382 15.8132 34.7345 16.0598 34.9341C16.1164 34.9274 16.1731 34.9208 16.2297 34.9141C16.2297 34.9141 16.3264 35.0172 16.3297 35.0172C15.8699 35.4164 15.4167 35.453 14.9702 34.9973Z" fill="#E05F59"/>
<path d="M24.9564 35.3C25.0664 35.1869 25.1763 35.0704 25.2863 34.9573C25.6395 34.2788 26.3192 34.0692 26.9623 33.8031C27.2022 33.7599 27.4255 33.7898 27.6087 33.9727C28.3118 34.4351 28.5684 35.1336 28.6283 35.9286C28.6517 36.1582 28.4517 36.2014 28.3218 36.3078C27.9186 36.5607 27.3255 36.6239 27.3255 37.2858C27.0556 37.2991 26.4858 37.6417 26.5791 37.4155C27.3188 35.6559 25.8561 35.7158 24.9564 35.3Z" fill="#DE504E"/>
<path d="M24.5532 39.6043C24.24 39.9369 23.9235 40.2662 23.6102 40.5989C22.7939 39.8138 24.1967 39.6043 24.0301 38.9889C24.6898 38.7793 24.31 37.8114 25.1097 37.5818C25.3429 38.4068 25.0963 39.0388 24.5532 39.6043Z" fill="#F6D5D1"/>
<path d="M29.9712 36.9931C29.8545 37.3224 29.7412 37.6484 29.6246 37.9777C29.2948 37.8646 28.9615 37.7548 28.6317 37.6417C28.9782 37.2193 29.4347 37.023 29.9712 36.9931Z" fill="#DA524F"/>
<path d="M34.2095 29.6252C34.746 29.9578 34.9359 30.3969 34.6261 30.989C34.716 31.5545 35.2591 31.4181 35.589 31.611C35.0992 32.8318 34.0363 33.6235 33.2966 34.658C33.1799 34.6546 33.0667 34.6513 32.95 34.648C32.2336 34.3919 32.6068 33.6368 32.2869 33.201C32.2536 32.9782 32.107 32.6622 31.9271 32.8085C31.154 33.4172 30.9241 32.8052 30.6209 32.3096C30.5343 32.1665 30.5343 32.0235 30.6242 31.8805C31.5172 31.1586 32.6301 30.7262 33.3632 29.7948C33.6131 29.5686 33.8763 29.4156 34.2095 29.6252Z" fill="#E55956"/>
<path d="M27.6054 33.9727C27.4155 33.9927 27.2289 34.016 27.0389 34.0359C26.7957 34.1557 26.5158 33.9894 26.6058 33.833C26.9456 33.2276 26.5125 32.6555 26.6191 32.0767C27.6087 31.5944 28.5983 31.1121 29.5846 30.6297C30.2677 30.5033 30.4443 30.9158 30.4876 31.4713C30.0811 32.4293 28.615 32.2297 28.3818 33.3806C28.1219 33.5802 27.8653 33.7765 27.6054 33.9727Z" fill="#FACFC5"/>
<path d="M28.3818 33.3806C28.1419 31.8306 29.4247 31.9669 30.3044 31.6543C30.6109 31.5977 30.7475 31.7042 30.6542 32.0235C30.6409 32.1166 30.6309 32.2098 30.6242 32.3029C29.8745 32.6655 29.1281 33.0214 28.3818 33.3806Z" fill="#FBD9D1"/>
<path d="M28.3185 36.3078C28.4217 36.1814 28.5217 36.055 28.625 35.9286C28.9715 36.3577 29.8679 34.7944 29.9212 36.2846C29.3881 36.3511 28.8616 36.8767 28.3185 36.3078Z" fill="#F6CBC8"/>
<path d="M32.2903 33.201C32.7701 33.5636 32.6535 34.2023 32.9534 34.648C32.7434 34.7844 32.5335 34.9241 32.3236 35.0605C31.5372 34.4551 32.237 33.8231 32.2903 33.201Z" fill="#F5B2A7"/>
<path d="M35.5924 31.6077C35.2092 31.4979 34.3028 32.1965 34.6294 30.9857C34.9493 31.1021 35.2691 31.2185 35.589 31.3349C35.599 31.4281 35.599 31.5179 35.5924 31.6077Z" fill="#F0A39A"/>
<path d="M44.2657 24.3363C44.0525 24.3396 43.8359 24.3396 43.6226 24.3429C42.6463 23.8905 41.6301 24.4327 40.6404 24.2298C39.6375 23.8739 39.5975 23.1022 39.7741 22.2373C39.9907 21.4423 40.6071 20.9367 41.1736 20.4278C42.6996 19.0573 43.626 17.321 44.339 15.4449C44.489 15.0391 44.5789 14.6233 44.5123 14.1875C44.4623 13.9015 44.3957 13.6221 44.3957 13.3293C44.4856 12.6774 44.6089 12.0287 44.439 11.3668C44.429 11.2071 44.449 11.0541 44.489 10.8978C45.0021 10.2791 45.2487 8.74561 46.4149 10.3256C45.8085 11.3535 45.7818 12.2583 47.0513 13.0499C47.1446 12.1185 46.3783 11.5331 46.4982 10.7581C46.5915 10.5219 46.7548 10.3656 47.0014 10.299C47.6778 11.1339 47.6778 12.3348 48.5208 13.0799C48.8473 13.4491 49.0339 13.8649 48.9539 14.3705C48.5408 15.4582 48.2176 16.6125 46.8881 16.9717C46.5882 17.4574 46.2883 17.9463 45.9884 18.432C44.8955 18.7513 44.9988 19.859 44.529 20.5941C43.9725 21.4656 43.9159 22.2307 44.6556 23.0091C44.8022 23.1621 44.7822 23.4215 44.7889 23.6444C44.7722 23.9937 44.5856 24.2165 44.2657 24.3363Z" fill="#F9CCC2"/>
<path d="M47.0047 10.3023C46.8781 10.4387 46.7514 10.5718 46.6248 10.7082C46.4416 10.6716 46.3283 10.5618 46.2916 10.3755C45.1987 9.23791 45.202 10.7614 44.6889 11.0341C43.9558 10.9144 43.6026 10.4055 43.3827 9.76015C43.3627 9.60714 43.3661 9.4508 43.3927 9.29446C44.2457 8.5926 43.7792 7.33856 44.5223 6.5868C44.6822 6.57682 44.8122 6.62672 44.9155 6.75312C45.2387 8.06038 45.6585 9.31109 46.978 9.98634C46.9914 10.0895 47.0013 10.1959 47.0047 10.3023Z" fill="#FAD5CC"/>
<path d="M49.9536 9.37762C50.52 10.4953 49.747 10.941 48.9506 11.3734C47.5345 9.83001 49.2438 9.85662 49.9536 9.37762Z" fill="#E05E5A"/>
<path d="M50.6266 7.35187C50.6233 7.58471 50.62 7.81756 50.62 8.0504C50.1002 7.99053 49.9702 8.49946 49.6437 8.719C49.3071 8.61588 49.2272 8.25331 48.9739 8.06371C49.2572 7.21216 49.4371 6.11779 50.6266 7.35187Z" fill="#E05E5A"/>
<path d="M48.9706 8.06703C49.4238 8.0504 49.6203 8.29655 49.6403 8.72233C48.6607 9.27783 49.0306 8.45289 48.9706 8.06703Z" fill="#E97771"/>
<path d="M43.9525 5.37933C44.3224 5.38599 44.6922 5.38599 45.0588 5.40595C45.2853 5.41925 45.5086 5.5523 45.4419 5.77517C45.402 5.90823 45.1254 5.97143 44.9521 6.06789C44.549 6.29741 44.0825 6.22423 43.656 6.35063C43.1761 6.34065 42.6397 6.42381 42.553 5.72528C42.9462 5.31613 43.446 5.32279 43.9525 5.37933Z" fill="#F29992"/>
<path d="M43.9525 5.37933C43.556 5.68203 43.0862 5.73525 42.6097 5.7785C42.4664 5.83172 42.3664 5.78848 42.3098 5.64212C42.4464 4.30492 43.4694 5.41592 43.9558 5.05002C43.9592 5.15979 43.9592 5.26956 43.9525 5.37933Z" fill="#DB4946"/>
<path d="M43.9692 6.04793C44.309 5.52902 44.6289 5.97808 44.9555 6.06789C45.0288 6.30074 45.3286 6.55021 44.9121 6.75312C44.8188 6.73982 44.7222 6.72651 44.6289 6.71986C44.3457 6.55354 44.0125 6.44377 43.9692 6.04793Z" fill="#DC4F4A"/>
<path d="M43.9692 6.04793C44.1891 6.2708 44.409 6.49367 44.6256 6.71986C44.509 7.7344 44.5523 8.80881 43.5593 9.48739C43.2428 9.54727 42.9662 9.42086 42.6963 9.28448C41.9033 8.62919 40.967 8.11693 40.5438 7.10239C41.017 6.64335 41.4901 6.18431 41.9599 5.72195C42.0766 5.69534 42.1932 5.67205 42.3131 5.64544C42.4064 5.70532 42.5064 5.74856 42.613 5.7785C42.9962 6.20095 43.5093 5.99804 43.9692 6.04793Z" fill="#F9CBC3"/>
<path d="M39.9274 22.3338C40.1573 22.896 39.8907 23.6677 40.6271 24.0203C40.4872 24.5126 40.1973 24.7953 39.6441 24.7122C39.151 24.6722 38.8611 24.9716 38.5945 25.3209C37.9148 26.4053 36.9552 27.2069 35.9189 27.9254C35.3491 28.4909 34.7793 29.0564 34.2095 29.6219C33.993 29.7316 33.773 29.8447 33.5565 29.9545C32.7768 29.7982 32.4302 29.1861 32.5035 28.5408C32.6102 27.6028 32.1703 27.2568 31.4006 27.024C30.9441 26.8843 30.3044 26.8078 30.311 26.2024C30.321 25.6069 30.9774 25.5837 31.4106 25.3874C34.3162 24.9117 37.1151 24.17 39.4509 22.2407C39.6275 22.2007 39.7841 22.234 39.9274 22.3338Z" fill="#FAD0C6"/>
<path d="M35.9189 27.9287C36.4987 26.7412 37.5383 26.0227 38.5945 25.3242C39.1677 25.587 38.7312 26.3986 39.3209 26.6514C39.5275 26.4718 39.7374 26.4751 39.9507 26.6448C40.064 26.7645 40.1773 26.8876 40.2939 27.0073C39.8607 27.3466 39.4309 27.6859 38.9977 28.0252C38.9244 28.0186 38.8511 28.0152 38.7778 28.0086C38.4713 28.0485 38.1447 27.8689 37.8715 28.0884C38.0881 28.0984 38.218 28.2082 38.3246 28.3612C38.3047 28.8335 38.2913 29.3092 37.6382 29.3391C36.9818 28.9699 36.2888 28.6439 35.9189 27.9287Z" fill="#E35350"/>
<path d="M36.1655 29.5653C35.9789 29.7117 35.8689 29.8614 35.7456 29.8747C35.6557 29.8846 35.5424 29.7183 35.4391 29.6318C35.5457 29.5387 35.639 29.3923 35.7623 29.3657C35.8589 29.3424 35.9855 29.4688 36.1655 29.5653Z" fill="#EE8A7F"/>
<path d="M39.6441 24.7155C39.9707 24.486 40.2972 24.2531 40.6271 24.0236C41.6134 24.2298 42.7696 22.866 43.6226 24.3429C43.1995 24.6157 42.7696 24.8818 42.5331 25.3541C41.6334 24.8519 40.5805 25.0581 39.6441 24.7155Z" fill="#E0564F"/>
<path d="M39.954 26.6414C39.7441 26.6448 39.5342 26.6481 39.3243 26.6481C39.3209 26.352 39.1877 25.8864 39.5475 25.8464C40.1306 25.7832 39.904 26.3254 39.954 26.6414Z" fill="#EF978C"/>
<path d="M42.613 25.3541C43.2661 25.3109 43.1328 25.6502 42.9429 26.0227C42.5331 26.2589 42.2798 26.1824 42.2432 25.6768C42.3664 25.567 42.4897 25.4606 42.613 25.3541Z" fill="#E5857B"/>
<path d="M38.3246 28.3612C37.8715 28.2581 37.2984 28.5341 36.9952 27.9487C37.6349 27.6726 38.268 27.8256 38.9011 27.972L38.9977 28.0219C38.7745 28.135 38.5512 28.2481 38.3246 28.3612Z" fill="#E25F59"/>
<path d="M26.6191 32.0767C27.8986 32.4859 26.7557 33.4139 27.0356 34.0359C26.4525 34.342 25.8661 34.6513 25.2829 34.9573C24.0034 34.4617 22.8172 34.8642 21.741 35.4896C20.7147 36.0883 19.815 35.7956 18.8021 35.5128C19.805 34.1124 21.3311 34.5748 22.5906 33.9827C21.711 33.9827 20.8313 33.9827 19.9516 33.9827C20.3115 33.5137 20.828 33.6767 21.2978 33.6468C23.0505 33.0081 24.8664 32.559 26.6258 31.9437L26.6191 32.0767Z" fill="#F9C5BC"/>
<path d="M44.6489 23.691C44.0591 22.6432 43.8059 21.4689 43.8825 21.2394C44.2391 20.1816 44.5389 19.1172 45.3153 18.249C45.7618 17.7501 45.8984 17.8765 45.9851 18.4353C45.3853 19.8789 45.4986 21.1995 46.6648 22.3338C46.5382 22.4502 46.4116 22.57 46.285 22.6864C45.8485 23.1953 45.5386 23.9138 44.6489 23.691Z" fill="#FBD7CD"/>
<path d="M46.8881 16.975C47.5778 16.1069 48.2675 15.242 48.9539 14.3738C49.557 15.0724 50.2235 15.7609 49.3371 16.7023C48.8606 16.7122 48.6774 16.8952 48.9473 17.3509C48.9606 17.9097 47.6944 18.4785 48.9573 19.0307C48.844 19.2503 48.7307 19.4665 48.6174 19.686C48.5041 19.7958 48.3908 19.9056 48.2775 20.0187C47.1679 19.7293 46.5948 19.1505 47.148 17.9497C47.3312 17.5638 47.2779 17.2179 46.8881 16.975Z" fill="#E66963"/>
<path d="M18.2756 18.0095C18.7388 17.5771 19.1986 17.1414 19.6617 16.7089C20.5381 16.8154 21.2711 16.3996 22.0275 16.0636C22.2574 16.0137 22.4907 16.0104 22.7239 16.047C23.8002 16.3131 23.3637 17.2944 23.6003 17.9497C23.8402 18.6183 23.8235 19.3434 23.8735 20.0519C23.8368 20.95 23.2137 21.1862 22.474 21.2594C21.9176 21.3159 21.4111 21.4091 21.2112 22.0244C20.7313 22.8195 21.671 22.3205 21.7476 22.6066C22.3374 23.345 23.9601 23.2386 23.5636 24.7953C22.8839 25.6402 22.6539 26.7279 22.0542 27.6161C21.511 28.1849 20.7747 28.1283 20.0849 28.2248C18.1157 28.5075 17.7825 26.9142 17.1494 25.6668C17.2027 25.0914 17.7158 25.1113 18.079 24.955C17.6025 24.9849 17.196 25.2444 16.7529 25.4107C16.423 25.4772 16.0864 25.5703 15.8165 25.2577C15.5367 24.7753 15.54 24.2631 15.6499 23.7375C15.7799 23.3084 16.0298 22.9858 16.4796 22.856C17.136 22.8061 17.316 23.2452 17.3993 23.8041C18.4322 23.0357 17.5526 22.0178 17.7891 21.1662C18.3522 19.8224 19.6984 20.165 20.7247 19.8224C20.9313 19.7492 20.5581 19.5463 20.7047 19.7126C20.758 19.7725 20.7213 19.8124 20.6047 19.8457C20.1216 19.9821 19.6318 20.0419 19.1286 20.0253C17.5559 19.553 17.4326 19.2669 18.2756 18.0095Z" fill="#E15853"/>
<path d="M23.6336 20.022C23.0605 18.8644 23.5703 17.4108 22.624 16.3563C22.4074 16.0769 22.1941 16.1268 21.9775 16.3597C21.2511 16.7921 20.5947 17.6736 19.6584 16.7122C20.4115 15.5946 21.3511 14.5568 20.8613 13.0034C20.7747 12.7273 21.1179 12.3181 21.2611 11.9689C21.3111 12.1152 21.3611 12.2616 21.4111 12.4079C22.8139 11.7327 22.3741 12.7273 22.3007 13.3859C22.624 13.8616 23.2104 13.7917 23.6436 14.0379C24.3 14.4902 24.9597 13.6586 25.6161 14.0445C25.956 13.9913 26.2959 13.7751 26.6358 14.0412C26.999 13.7219 27.3755 13.2295 27.6454 14.1177C27.7087 14.3472 27.6254 14.5235 27.4388 14.6599C27.662 14.6566 27.782 14.4503 27.9786 14.3871C28.1818 14.3206 28.3751 14.2308 28.595 14.2108C29.2281 14.2241 29.8579 14.1875 30.4876 14.2142C30.7575 14.3672 30.7309 14.5634 30.5709 14.7763C30.0578 15.1356 29.2948 15.0857 28.9615 15.7476C28.8782 15.8707 28.7849 15.9838 28.6916 16.0969C28.2018 16.7189 27.4954 16.812 26.779 16.8553C26.2826 16.8852 25.7428 16.8253 25.7094 17.5438C25.6661 18.4586 26.5958 17.5172 26.7424 18.0761C26.849 18.3089 26.839 18.5318 26.7124 18.7546C25.7794 19.4033 24.7731 19.8723 23.6336 20.022Z" fill="#E2605B"/>
<path d="M18.2756 18.0095C17.7125 19.1205 17.9591 19.7426 19.3019 19.6993C19.4318 20.0785 19.1453 20.1783 18.8954 20.2349C17.8624 20.4577 16.8861 20.8203 15.9732 21.3525C15.9632 20.9168 15.9532 20.4843 15.9398 20.0486C15.9898 19.6328 16.453 19.5862 16.6329 19.2902C17.0761 18.7546 17.5159 18.2158 17.9591 17.6802C18.0624 17.7867 18.169 17.8998 18.2756 18.0095Z" fill="#F7B8AE"/>
<path d="M11.2949 15.6711C11.9347 16.6624 10.7118 17.4341 10.9784 18.3821C10.8884 18.9842 10.5585 18.8844 10.1854 18.6515C9.87881 18.0827 10.0721 17.5571 10.3186 17.0349C10.5485 16.6091 10.7785 16.1834 11.0084 15.7576C11.1017 15.7177 11.195 15.6911 11.2949 15.6711Z" fill="#E45F58"/>
<path d="M10.3153 17.0316C10.3253 17.5738 10.3353 18.116 10.3453 18.6548C10.4053 18.9775 10.2787 19.1106 9.95211 19.044C9.6289 18.8311 9.55559 18.259 8.99914 18.3887C9.43897 17.9364 9.8788 17.484 10.3153 17.0316Z" fill="#F19F93"/>
<path d="M40.5405 7.09906C41.4701 7.608 42.1798 8.37971 42.9396 9.08823C43.0329 10.0629 41.8733 10.9377 42.713 11.9689C42.613 12.1851 42.4264 12.3081 42.2298 12.4212C41.9066 12.5909 41.6334 12.877 41.2302 12.8636C40.5205 12.4545 40.0906 11.5265 39.0344 11.7327C38.8978 11.7593 38.8511 11.3734 38.8611 11.1506C38.9844 10.808 38.8611 10.4487 38.9378 10.0994C39.231 9.45413 40.2306 8.81879 38.9644 8.15019C38.6745 7.86413 38.6745 7.86413 38.0081 8.26994C37.1884 8.57929 37.5083 9.57055 36.9518 10.0396L36.9685 10.0296C36.5487 10.2425 36.2254 10.798 35.6357 10.3988C35.2991 9.65038 34.4028 9.68365 33.8563 9.10486C33.3066 8.51942 33.04 8.18346 33.2632 7.37848C33.4932 6.55687 33.9163 6.25084 34.7127 6.32735C36.0755 5.86831 37.4017 6.07787 38.6545 6.66664C39.2743 6.96268 39.924 6.90946 40.5405 7.09906Z" fill="#E05450"/>
<path d="M30.3144 14.7198C30.4243 14.62 30.5343 14.5235 30.6409 14.4237C30.7342 13.9048 31.1374 13.6819 31.5706 13.5921C32.8967 13.316 34.1129 12.5809 35.519 12.6375C36.0655 12.9734 36.6619 13.0932 37.295 13.0399C37.7782 13.4591 37.8848 13.8882 37.345 14.3339C37.1651 14.59 37.5016 14.5302 37.5516 14.6499C37.8215 15.4981 37.1451 15.6145 36.622 15.8507C36.2088 15.8873 35.8556 15.7276 35.5157 15.5181C34.3495 14.6732 33.2499 15.415 32.1303 15.6345C32.3703 15.6145 32.6002 15.4881 32.8567 15.5613C33.2399 16.1368 33.4932 16.7389 33.2732 17.4474C33.0533 17.7068 32.7068 18.0062 32.4502 17.8964C31.1907 17.3642 29.7079 17.3542 28.675 16.3197C28.5384 16.1834 28.5284 15.9172 28.635 15.701C29.1548 15.3052 29.7979 15.1156 30.3144 14.7198Z" fill="#DB4947"/>
<path d="M36.9485 14.304C37.525 14.0079 37.4083 13.5223 37.295 13.0399C37.2584 12.9368 37.2184 12.8337 37.1818 12.7273C38.5579 12.6774 37.9548 11.2969 38.5379 10.7148C38.8245 10.6882 39.0577 10.798 39.2643 10.9843C39.261 11.1838 39.2543 11.3834 39.251 11.583C40.6871 10.5884 40.6238 12.3148 41.2935 12.7073C41.78 13.652 41.4068 14.2541 40.5405 14.7131C39.7674 15.1222 38.9611 15.4881 38.2847 16.0703C37.7815 16.4561 37.2551 16.4628 36.7053 16.18C36.612 16.1002 36.5653 16.0104 36.5687 15.9106C36.572 15.8042 36.5853 15.7509 36.6086 15.7509C36.5886 15.2586 37.7415 15.4516 37.2384 14.6765C37.1118 14.5767 36.9252 14.5235 36.9485 14.304Z" fill="#DE5853"/>
<path d="M29.9478 11.3601C30.3977 11.3701 30.8475 11.3768 31.2973 11.3867C31.4773 11.6495 31.7405 11.8291 31.9704 12.042C31.9671 12.3647 31.9637 12.6907 31.9637 13.0133C31.6205 13.7152 31.1074 14.0245 30.3277 13.7119C30.1644 13.7085 29.9945 13.7318 29.8412 13.6919C29.3714 13.5655 28.2951 13.7485 28.5317 13.3526C28.9282 12.7007 28.1585 11.6163 29.3114 11.3635C29.5213 11.1805 29.7346 11.1672 29.9478 11.3601Z" fill="#DE514E"/>
<path d="M30.3277 13.7152C30.8742 13.4824 31.4173 13.2495 31.9637 13.0167C32.9134 12.8271 33.8797 12.6973 34.7493 12.2084C35.1725 11.9722 35.6257 11.8491 35.5224 12.6375C33.8963 13.2329 32.2703 13.8283 30.6476 14.4237C29.8779 14.4171 29.1115 14.4104 28.3418 14.4038C27.9886 14.5435 27.9286 14.3771 27.9986 14.0744L27.9553 14.0013C28.735 13.8183 29.588 14.2507 30.3277 13.7152Z" fill="#F8CFC9"/>
<path d="M31.9704 12.042C31.224 12.358 30.9375 12.2017 31.2973 11.3867C31.4773 11.1073 32.177 11.3601 31.9238 10.5485C31.7571 10.0163 32.4835 9.74019 33.08 9.71358C33.5865 9.6903 33.9796 9.86327 34.0729 10.3722C34.1762 10.9543 33.8897 11.3136 33.2766 11.3701C32.7501 11.42 32.6601 12.3148 31.9704 12.042Z" fill="#DD504D"/>
<path d="M36.9552 10.0429C37.0385 9.24789 36.9852 8.38969 37.9648 8.0504C38.3047 7.93065 38.3813 8.07369 38.2913 8.37971C38.1447 8.74894 37.4117 8.8454 37.6849 9.36764C38.3513 10.6283 37.2184 9.84331 36.9552 10.0429Z" fill="#EE9286"/>
<path d="M35.639 10.4021C36.0822 10.2791 36.5287 10.156 36.9718 10.0329C36.7719 10.4487 36.6553 10.9709 36.1088 11.0375C35.6857 11.0907 35.6357 10.7348 35.639 10.4021Z" fill="#EFA9A0"/>
<path d="M38.2947 8.37639C38.1847 8.26662 38.0747 8.15685 37.9681 8.04708C38.2214 7.60134 38.7078 7.64459 39.1077 7.52151C39.3209 7.45498 39.5942 7.5581 39.5009 7.83086C39.4509 7.98055 39.1543 8.04708 38.9677 8.15019C38.7445 8.2267 38.5179 8.30321 38.2947 8.37639Z" fill="#F4BCB4"/>
<path d="M29.9478 11.3601C29.7379 11.3635 29.5247 11.3635 29.3147 11.3668C29.3314 11.0109 29.4414 10.6716 29.8612 10.7481C30.3044 10.8312 30.0111 11.1373 29.9478 11.3601Z" fill="#ED847C"/>
<path d="M39.2643 10.9843C38.9611 11.0541 38.7045 11.0109 38.5379 10.7148C38.5979 10.462 38.6445 10.1992 38.9411 10.1028C39.0477 10.3955 39.1577 10.6882 39.2643 10.9843Z" fill="#EDA39D"/>
<path d="M7.30978 29.6851C7.21315 29.6485 7.11319 29.6152 7.01323 29.5919C6.77998 29.3923 6.55007 29.1961 6.31683 28.9965C7.32644 28.4809 6.36347 27.636 6.6467 27.0007C6.72334 26.9275 6.79997 26.8543 6.87328 26.7778C6.79664 26.851 6.72334 26.9275 6.65003 27.004C6.30017 27.1537 5.96363 27.3865 5.60043 27.4331C5.30388 27.473 5.16393 26.9075 5.23724 26.8976C6.45344 26.7113 6.29017 24.5625 7.94621 25.0115C8.1328 25.0614 8.40603 24.7953 8.64261 24.6789C8.72258 24.7753 8.75257 24.8485 8.73257 24.8984C8.77256 24.8452 8.74257 24.7687 8.64594 24.6756C8.97915 24.4527 9.31569 24.2332 9.64889 24.0103C9.99876 23.7774 10.1953 23.3683 10.7185 23.3217C11.5049 23.2519 11.1317 22.7529 10.9751 22.3671C11.095 22.061 11.2649 21.8448 11.6381 22.0178C13.3242 22.5633 11.3149 23.1255 11.6481 23.6776C12.0513 24.4494 12.2079 25.2044 11.5082 25.9096C11.3716 26.046 11.2216 26.1225 11.2683 26.4219C11.4915 27.819 11.3116 28.0219 9.69554 28.4676C9.34234 28.288 9.20906 27.7657 8.69925 27.8223C8.27941 27.982 7.72962 28.0951 8.45934 28.6073C8.97581 29.2659 8.59263 29.5786 8.00285 29.8115C7.75628 29.8281 7.51637 29.8481 7.30978 29.6851Z" fill="#E2625C"/>
<path d="M9.64889 28.3379C10.3986 28.3346 10.7618 27.6061 11.1783 27.2369C11.8181 26.6647 10.7685 26.6082 10.1654 26.2656C11.7914 25.8731 11.6481 24.7454 11.6448 23.6777C12.1979 23.3118 12.7544 23.7874 13.3075 23.681C13.9906 23.6211 14.657 24.1566 15.3501 23.7342C15.5433 23.6344 15.7399 23.5579 15.9632 23.6344C15.9665 24.1966 15.9698 24.7587 15.9732 25.3209C15.7133 26.066 15.0102 26.2057 14.4004 26.4751C14.2705 26.4984 14.1405 26.4951 14.0172 26.4651C13.5774 26.1824 13.8473 26.7113 13.6907 26.7612C13.3975 27.0872 13.0343 27.33 12.7311 27.646C11.8581 28.3213 11.1716 29.3558 9.84548 29.1728C9.49895 28.9599 9.39565 28.6905 9.64889 28.3379Z" fill="#DD5651"/>
<path d="M15.9598 23.6344C15.8432 23.7176 15.7266 23.8041 15.6133 23.8872C14.1039 23.8806 14.0705 23.8639 14.0472 23.0589C14.8569 22.6797 15.5433 22.1575 15.9732 21.3525C16.4097 20.5808 16.8695 19.9488 17.9657 20.1151C18.3489 20.175 18.9653 20.175 19.3052 19.6993C19.8517 19.6993 20.4015 19.6993 21.1179 19.6993C20.1449 20.6207 18.5922 20.1384 17.9824 21.3625C17.6492 22.0145 17.3593 22.703 16.5929 22.9791C16.3797 23.1987 16.1697 23.4149 15.9598 23.6344Z" fill="#F9CCC3"/>
<path d="M14.0439 23.0589C14.3304 23.7774 15.3201 23.172 15.61 23.8872C14.747 24.8485 14.0272 24.2465 13.3042 23.6776C13.0909 23.3583 12.5545 23.0822 13.0543 22.6398C13.614 22.1475 13.6674 23.0257 14.0439 23.0589Z" fill="#E2625C"/>
<path d="M9.95544 19.044C10.0854 18.9143 10.2153 18.7846 10.3486 18.6548C10.6119 18.6848 10.8418 18.6316 10.9784 18.3788C11.4849 18.6781 12.0446 18.7214 12.6144 18.7047C11.7381 19.7725 10.7318 19.8989 9.95544 19.044Z" fill="#EA857E"/>
<path d="M16.6296 19.2869C16.5396 19.6694 16.2764 19.8923 15.9365 20.0453C15.1035 19.9787 14.2705 19.9122 13.2075 19.8291C14.3904 18.7846 15.5833 19.5264 16.6296 19.2869Z" fill="#F9CEC9"/>
<path d="M11.6348 22.0145C11.4149 22.1309 11.1916 22.2473 10.9717 22.3637C10.7851 22.2274 10.6418 22.0211 10.8351 21.8482C11.1317 21.582 11.4182 21.7051 11.6348 22.0145Z" fill="#EE766F"/>
<path d="M13.9406 14.7098C13.7507 14.8395 13.6407 14.9726 13.5174 14.9825C13.4241 14.9892 13.3175 14.8395 13.2175 14.7597C13.3242 14.6599 13.4208 14.5069 13.5441 14.4769C13.634 14.457 13.764 14.6 13.9406 14.7098Z" fill="#DE5E5B"/>
<path d="M48.9506 17.3509C48.6707 17.331 48.3575 17.2844 48.4175 16.9251C48.4708 16.6058 48.6974 16.3031 49.0306 16.2466C49.2905 16.2033 49.2971 16.5027 49.3371 16.7023C49.2105 16.9185 49.0806 17.1347 48.9506 17.3509Z" fill="#F1ABA0"/>
<path d="M44.6489 23.691C45.1954 23.355 45.7418 23.019 46.2883 22.6831C45.9417 23.6344 45.4986 24.4693 44.2657 24.3329C44.3923 24.1234 44.5223 23.9072 44.6489 23.691Z" fill="#F1998D"/>
<path d="M26.1193 11.4899C25.9727 11.7161 25.906 11.8857 25.8661 11.879C25.1763 11.7859 24.8098 12.9468 24.0168 12.358C23.9168 12.2815 23.8468 11.9589 23.8901 11.9256C24.5199 11.4799 25.2096 11.2504 26.1193 11.4899Z" fill="#E25D57"/>
<path d="M23.6469 14.0312C22.8805 14.467 22.4074 14.3006 22.3041 13.3792C22.8405 13.4125 23.5169 13.1597 23.6469 14.0312Z" fill="#E7716B"/>
<path d="M26.6391 14.0345C26.2992 14.1343 25.9627 14.5734 25.6195 14.0379C25.6561 13.6387 25.7728 13.1963 26.2026 13.1797C26.7757 13.1597 26.5924 13.6952 26.6391 14.0345Z" fill="#C33838"/>
<path d="M27.9952 14.0744C28.1085 14.1842 28.2252 14.294 28.3384 14.4038C27.792 14.8262 27.2422 15.252 26.6957 15.6744C26.6324 15.6179 26.5691 15.5613 26.5058 15.5048C26.8857 15.0391 27.2689 14.5767 27.6487 14.111C27.762 14.1011 27.8786 14.0877 27.9952 14.0744Z" fill="#F3B1AC"/>
<path d="M24.6332 9.71358C24.8698 9.64373 25.103 9.40756 25.3529 9.65371C25.6062 9.89986 25.3696 10.136 25.3029 10.3722C24.3966 10.8445 24.7398 10.0529 24.6332 9.71358Z" fill="#E25D57"/>
<path d="M17.296 25.6402C17.3393 26.0527 18.0024 25.8464 17.9757 26.5816C17.9357 27.6593 19.2986 27.5063 19.975 28.0052C20.0982 29.083 19.1553 29.2194 18.5322 29.6385C18.249 29.7782 17.9624 29.9013 17.6625 30.0044C17.2127 30.1208 16.7662 30.3636 16.3097 30.0277C16.5529 29.3591 17.0861 28.2647 16.3363 28.1183C15.45 27.9454 13.784 27.3599 13.6307 29.3424C12.6278 28.7803 12.6278 28.7803 13.4874 27.157C13.7307 26.7346 14.2072 26.6481 14.577 26.4053C15.4034 26.3421 15.9198 25.6435 16.6562 25.3941C16.9061 25.3874 17.1161 25.4706 17.296 25.6402Z" fill="#E15B54"/>
<path d="M9.99876 29.0231C11.045 28.7204 11.7814 27.9321 12.6311 27.3233C12.9376 27.187 13.0209 27.3865 13.0876 27.6194C12.9643 28.0684 12.821 28.4976 12.2879 28.624C11.4082 29.0564 11.5348 30.4401 10.3919 30.6264C9.6189 30.2539 8.73257 30.7561 7.96953 30.3104C7.74961 30.1009 7.5297 29.8913 7.30978 29.6851C7.53303 29.6584 7.75961 29.6318 7.98286 29.6052C8.65927 29.4289 9.2657 29.0098 9.99876 29.0231Z" fill="#F8CBC5"/>
<path d="M12.2879 28.624C12.5045 28.2847 12.7244 27.942 12.941 27.6028C13.1009 27.3666 13.2908 27.1969 13.6041 27.3067C14.0739 27.8123 13.4641 27.9554 13.2742 28.1982C12.801 28.7936 13.1376 29.0797 13.6307 29.3458C13.8106 29.7849 13.8106 30.204 13.2142 29.8547C12.7944 29.6019 12.3245 29.2327 12.2879 28.624Z" fill="#D63F3B"/>
<path d="M16.3097 30.0277C16.7629 29.9212 17.2127 29.8148 17.6658 29.7083C18.4089 30.174 17.9624 30.6198 17.5992 30.989C17.2127 31.3815 16.7395 31.7141 16.3097 30.9956C16.0798 30.8792 15.8465 30.7628 15.6166 30.6464C15.8465 30.4401 16.0764 30.2339 16.3097 30.0277Z" fill="#F6AFA9"/>
<path d="M7.96953 30.3137C8.77256 30.4535 9.63223 30.1508 10.3919 30.6297C9.25238 30.5532 8.06949 30.9956 6.97324 30.3636C7.30645 30.3437 7.63632 30.3271 7.96953 30.3137Z" fill="#E05B56"/>
<path d="M15.5167 29.1296C15.3867 29.2094 15.2234 29.3358 15.0435 29.4123C14.8436 29.4955 14.7003 29.3591 14.7836 29.1861C14.8636 29.0165 15.0468 28.8634 15.2234 28.7836C15.3934 28.7104 15.5133 28.8468 15.5167 29.1296Z" fill="#E15B54"/>
<path d="M16.3064 30.9956C17.4193 31.2618 17.8058 30.7595 17.6658 29.7083C17.8791 29.5919 18.0957 29.4755 18.3089 29.3591C18.5522 29.5454 18.7388 29.7682 18.7721 30.0876C18.7621 30.4002 18.6221 30.663 18.4622 30.9225C17.6792 31.8405 17.306 32.9981 16.6596 33.996C16.5163 34.3021 16.373 34.6081 16.2297 34.9108C16.1731 34.9208 16.1164 34.9274 16.0598 34.9307C15.8832 34.322 15.9598 33.7366 16.1931 33.1578C16.5896 32.1832 16.2397 31.5944 15.2368 31.3615C15.6133 31.295 16.0465 31.4015 16.3064 30.9956Z" fill="#F8CBC5"/>
<path d="M31.2973 25.6735C31.0408 25.8431 30.7842 26.0128 30.401 26.2656C30.9941 26.4851 31.5106 26.678 32.0304 26.871C32.7734 27.147 33.2499 27.4996 32.9067 28.451C32.6968 29.0331 33.3532 29.4456 33.5565 29.9611C32.8834 31.0655 31.8305 31.6343 30.6542 32.0268C30.5376 31.9037 30.421 31.7807 30.3044 31.6576C30.2977 31.152 30.0378 30.826 29.588 30.6331C29.8246 30.3104 30.0611 29.9878 30.2977 29.6651C30.6442 28.5608 30.461 27.9354 29.0748 28.0618C28.2185 28.1416 27.3188 28.0518 26.6291 27.3832C26.2992 27.3666 25.966 27.35 25.6361 27.3333C26.0527 26.7678 25.3896 26.8543 25.2196 26.6414C25.193 26.4785 25.2396 26.3354 25.3429 26.209C25.7628 25.9196 26.2726 25.8731 26.7357 25.7001C27.3388 25.557 27.9353 25.3874 28.545 25.271C29.4847 25.2477 30.4643 24.9683 31.2973 25.6735Z" fill="#F8C3B8"/>
<path d="M25.233 26.6248C25.4829 26.6614 25.7328 26.698 25.9827 26.7346C25.8661 26.9342 25.7494 27.1337 25.6328 27.3333C23.497 27.9188 21.6143 29.0797 19.6251 29.9944C19.3385 30.2705 19.0353 30.2838 18.7188 30.0443C18.4189 29.9113 18.3223 29.6618 18.3089 29.3591C18.9154 28.9699 19.6218 28.7071 19.975 28.0052C20.5847 27.6194 21.4277 27.9321 21.9742 27.3433C22.4074 26.7446 23.1004 26.6947 23.7269 26.5017C23.8701 26.4518 24.0134 26.4186 24.1634 26.3886C24.5466 26.3321 24.9198 26.3387 25.233 26.6248Z" fill="#FAD7CF"/>
<path d="M26.6258 27.3832C27.7653 27.4564 28.9049 27.5196 30.0411 27.6127C30.4576 27.646 30.9808 27.4497 31.2473 27.9055C31.5306 28.3911 31.0541 28.7005 30.8242 29.0464C30.6742 29.2726 30.471 29.4589 30.2944 29.6651C29.6713 29.2626 28.9682 29.3325 28.2785 29.3358C28.1752 29.1063 28.2818 28.9466 28.4484 28.8036C28.2951 28.7869 28.2118 28.91 28.1252 28.9932C27.882 29.2293 27.5288 29.1495 27.2689 29.3291C26.7024 29.4156 26.136 29.4988 25.5695 29.5853C26.4225 29.0497 25.5995 27.7558 26.6258 27.3832Z" fill="#DD4E4B"/>
<path d="M26.6324 31.9437C25.0464 33.1012 23.3204 33.833 21.3045 33.6468C20.9313 33.2809 20.5414 32.6522 21.2045 32.4992C22.9738 32.09 24.7598 31.4979 26.6324 31.9437Z" fill="#DA4B47"/>
<path d="M16.6596 33.996C16.6429 32.6023 17.4093 31.5778 18.2656 30.5998C18.7021 30.9624 19.8284 30.969 18.9853 31.9936C17.3493 32.3229 18.3023 34.1757 17.146 34.7677C17.0427 34.6014 16.8528 34.2987 16.6596 33.996Z" fill="#E86A65"/>
<path d="M18.9887 31.9936C19.4618 31.162 18.019 31.3183 18.2689 30.5998C18.4189 30.4135 18.5688 30.2273 18.7188 30.041C19.022 30.0244 19.3219 30.0077 19.6251 29.9911C20.2082 30.5699 20.4581 31.2085 19.975 31.9736C19.7684 32.1898 19.5518 32.1931 19.3252 32.0069C19.2119 32.0002 19.0986 31.9969 18.9887 31.9936Z" fill="#E25450"/>
<path d="M27.2722 29.3258C27.9053 28.8335 28.4784 28.2414 29.388 28.0718C29.3847 28.8701 28.5384 28.8468 28.2818 29.3325C27.9419 29.542 27.6054 29.532 27.2722 29.3258Z" fill="#EA7771"/>
<path d="M25.9893 31.3283C26.5125 30.5998 26.9456 30.5067 27.6554 30.3869C27.2189 31.1087 26.7191 31.1121 25.9893 31.3283Z" fill="#E97F75"/>
<path d="M19.3219 32.0035C19.5385 31.9936 19.755 31.9836 19.9716 31.9703C19.8983 32.2863 20.1416 32.8385 19.5751 32.8019C19.2186 32.7819 19.3319 32.3062 19.3219 32.0035Z" fill="#ED837A"/>
<path d="M39.9274 22.3338C39.8307 22.3405 39.7308 22.3438 39.6342 22.3504C38.9244 22.5167 38.6612 22.0145 38.388 21.5255C38.2214 21.1596 38.3213 20.6739 37.8848 20.4311C35.8389 20.3313 35.8389 20.3313 35.7056 17.9829C35.7156 16.8852 35.8189 15.864 37.3417 16.6258C38.228 17.0715 38.358 16.0004 38.9577 15.9039C39.6075 15.8873 40.3172 16.2732 40.7504 15.3085C40.977 14.7996 41.71 14.9626 42.2098 15.059C42.8096 15.1755 42.7763 15.6944 42.6697 16.1601C43.6026 16.2133 43.7359 15.0457 44.5789 15.0291C44.6189 15.0291 44.6622 15.0923 44.6956 15.1322C44.7555 15.2121 44.7455 15.3085 44.6689 15.415C44.1658 17.6336 42.9362 19.3833 41.2302 20.8536C40.7371 21.2827 40.3572 21.8382 39.9274 22.3338Z" fill="#DE524F"/>
<path d="M44.6656 15.4183C43.9025 15.3185 44.0758 16.2798 43.4894 16.4362C43.1228 16.5326 42.7796 16.7987 42.4064 16.5459C42.0699 16.3197 41.79 16.1202 42.4164 15.7709C42.7263 15.5979 42.2265 15.4083 42.0332 15.2719C41.7434 15.731 40.9736 14.906 40.9037 15.578C40.6904 17.6835 39.6741 16.1235 38.9844 16.047C38.6045 16.2266 38.4379 15.9705 38.2813 15.701C38.6145 15.0358 39.4109 14.6033 39.8874 14.5335C41.1236 14.3539 41.1869 13.5855 41.2935 12.7073C41.5101 12.4811 41.7234 12.2583 41.9399 12.0321C42.2265 12.378 42.7929 12.4711 42.8463 13.0799C42.9196 12.6574 42.5064 12.3913 42.6164 12.0121C41.4101 10.8911 42.2765 9.99965 42.9396 9.08823C43.1461 9.22128 43.3527 9.35101 43.556 9.48406C43.5627 9.57055 43.5627 9.65704 43.556 9.74352C43.7626 10.3789 43.0395 11.6495 44.6422 11.3335C45.2354 12.0154 44.9488 12.6774 44.6023 13.3393C44.2357 13.8216 44.6389 13.8749 44.9588 13.9747C44.9488 14.4736 45.0288 14.9925 44.6656 15.4183Z" fill="#E1605A"/>
<path d="M46.2916 10.3755C46.4016 10.4853 46.5149 10.5951 46.6248 10.7082C46.9414 11.3468 47.2712 11.9788 47.5745 12.6208C47.6811 12.847 47.9043 13.1797 47.5445 13.3094C47.2146 13.4291 46.8714 13.7318 46.4682 13.499C45.4519 12.9135 45.3586 11.2337 46.2916 10.3755Z" fill="#F7BDB3"/>
<path d="M44.6489 11.3335C44.6356 12.062 44.0358 11.9689 43.7492 11.7726C43.4627 11.5797 42.9096 11.3435 43.1228 10.768C43.2528 10.4188 43.416 10.0828 43.5627 9.74019C43.9358 10.1726 44.3124 10.6017 44.6889 11.0341C44.6656 11.1339 44.6522 11.2337 44.6489 11.3335Z" fill="#DA514D"/>
<path d="M44.9621 13.9747C44.4157 13.8216 44.3757 14.7796 43.7093 14.5002C43.6493 13.8316 44.2357 13.662 44.6056 13.3393C44.7255 13.5522 44.8455 13.7618 44.9621 13.9747Z" fill="#F5C7C1"/>
<path d="M35.9655 18.0262C36.0089 18.0594 36.0922 18.1027 36.0888 18.1293C35.719 20.0253 36.8852 20.1451 38.2713 20.012C38.5146 20.2648 38.4813 20.5143 38.2547 20.7505C38.1414 20.8436 37.9215 20.8602 37.9981 21.0931C38.1914 21.2195 38.4379 21.1895 38.6179 21.3259C38.8345 21.7883 39.1777 22.1276 39.6375 22.3538C37.4217 24.8685 34.3862 25.3342 31.3007 25.6735C30.301 25.6768 29.3047 25.6834 28.3051 25.6868C27.742 25.4839 27.0923 25.3708 27.0856 24.5658C27.0723 24.2598 27.2622 23.9271 26.9756 23.6544C26.6358 23.4947 26.3625 23.7974 26.046 23.7874C25.8261 23.7375 25.6661 23.6045 25.5495 23.4149C25.4296 23.0789 25.5495 22.733 25.4895 22.3937C25.3996 22.0444 24.9864 21.9313 24.8864 21.5887C25.053 20.9933 25.5828 20.7804 26.0626 20.5675C26.4092 20.4145 26.7957 20.3812 26.9923 20.8735C27.0489 21.0132 26.4258 21.266 27.0523 21.2461C27.1156 21.2428 27.1222 20.8536 27.1722 20.6407C27.3422 20.3546 27.5921 20.1916 27.9086 20.1184C28.4717 20.012 28.8049 20.4145 29.1848 20.7238C29.3281 17.7667 29.3281 17.7667 27.7687 17.9862C27.4121 18.1426 27.0556 18.3588 26.6724 18.0494C26.2093 18.1958 25.6595 18.6249 25.3029 18.2224C25.123 18.0228 25.123 17.2944 25.203 16.9651C25.3363 16.4195 25.9827 16.3863 26.5891 16.4628C27.3622 16.5626 28.1119 16.373 28.635 15.701C28.9016 15.9871 28.8349 16.8387 29.608 16.2665C29.7912 16.1301 30.1478 16.057 30.1544 16.2765C30.1877 17.5738 31.7971 16.6291 32.0071 17.617C32.4236 17.5272 32.8434 17.4374 33.2599 17.3476C33.3132 17.4008 33.3665 17.4507 33.4199 17.5039C33.3732 17.9397 33.4932 17.963 34.2895 17.6669C34.8793 17.637 35.5357 17.3077 35.9655 18.0262Z" fill="#DF5B55"/>
<path d="M38.9011 27.972C38.2647 27.9653 37.6316 27.9554 36.9952 27.9487C37.6449 26.9741 38.268 27.8589 38.9011 27.972Z" fill="#F2948C"/>
<path d="M27.3388 20.6107C27.1922 20.96 27.5721 21.4756 27.0323 21.6785C26.839 21.7517 26.4525 21.7417 26.3825 21.6286C26.1993 21.3292 26.5758 21.0897 26.9157 20.4611C26.026 21.0066 25.4962 21.3326 24.9631 21.6619C24.5932 22.1708 23.9868 22.3405 23.6502 22.6764C24.29 22.3172 25.023 21.5854 25.9693 22.3371C25.8561 22.6598 25.7428 22.9824 25.6295 23.3051C25.2829 23.8207 24.7765 23.6244 24.4466 23.6677C24.8464 23.8506 25.4096 23.5346 25.9494 23.671C26.3792 23.4581 26.6624 22.5434 27.3188 23.3783C27.4321 23.7941 27.2089 24.1134 27.0189 24.4427C26.6491 24.7221 26.1859 24.7421 25.7728 24.9018C25.0697 25.2444 24.3666 25.0514 23.6602 24.9151C23.5203 24.8718 23.4037 24.792 23.307 24.6822C23.5436 23.3616 21.7643 23.7409 21.6477 22.7197C21.6843 22.3305 22.0375 22.234 22.2641 22.0477C22.1741 22.0976 22.1075 22.1442 22.0275 22.1874C21.6477 22.3371 21.2978 22.3405 20.9979 22.0344C21.2078 20.8935 21.2112 20.8369 22.3174 20.8802C23.0271 20.9068 23.497 20.7704 23.6402 20.022C24.4699 19.1704 25.5762 18.9409 26.6658 18.6748C26.9223 18.4353 27.2255 18.3854 27.5587 18.4486C28.0885 18.728 29.1815 18.7014 28.2951 19.7692C27.9619 20.0353 27.5354 20.1983 27.3388 20.6107Z" fill="#DD4F4C"/>
<path d="M16.5896 22.9824C16.9761 22.3804 17.296 21.7151 17.9791 21.3658C18.7821 23.8107 18.7821 23.8107 16.6129 24.2731C16.2997 23.8506 17.8025 23.3583 16.5896 22.9824Z" fill="#E76760"/>
<path d="M23.3037 24.6822C23.4103 24.6855 23.5203 24.6855 23.6269 24.6855C24.1201 25.281 23.8868 26.0061 23.9734 26.6714C23.307 26.8942 22.6406 27.1171 21.9742 27.34C22.5906 26.5417 22.1308 25.2078 23.3037 24.6822Z" fill="#E96F65"/>
<path d="M16.6629 25.6435C16.1931 26.1325 16.1864 26.1658 16.413 26.9275C15.7866 26.8044 15.2568 26.0992 14.6103 26.6514C14.4871 26.5516 14.2971 26.5184 14.2938 26.3088C14.8536 25.9795 15.4134 25.6502 15.9732 25.3209C16.1997 25.2211 16.423 25.118 16.6496 25.0182C16.8362 25.2244 16.8395 25.4306 16.6629 25.6435Z" fill="#E9746E"/>
<path d="M16.6629 25.6435C16.6562 25.434 16.6529 25.2277 16.6462 25.0182C17.4093 24.792 18.1723 24.5691 18.992 24.3263C18.962 25.5903 17.7425 25.0914 17.2927 25.6402C17.0827 25.6402 16.8728 25.6435 16.6629 25.6435Z" fill="#EE8C87"/>
<path d="M22.2841 16.812C22.2208 17.6869 21.8676 17.8698 21.1878 17.7833C21.2545 17.1547 21.7843 17.128 22.2841 16.812Z" fill="#E2605B"/>
<path d="M20.9946 22.0311C21.4277 22.0311 21.8609 22.0311 22.2941 22.0311L22.2874 22.0178C22.0742 22.2506 21.8576 22.4835 21.6443 22.7197C21.2578 22.6498 20.5114 22.9192 20.9946 22.0311Z" fill="#EE8883"/>
<path d="M20.4081 27.2568C20.2882 27.1604 20.1016 27.0838 20.0849 26.9841C20.0316 26.6015 20.3548 26.4385 20.6147 26.2755C20.798 26.1591 20.9079 26.3155 20.9279 26.4784C20.9713 26.851 20.7147 27.0439 20.4081 27.2568Z" fill="#EA8981"/>
<path d="M20.0283 23.9837C20.0616 23.3084 20.4015 23.0456 21.2378 23.0423C20.698 23.4614 20.3648 23.7209 20.0283 23.9837Z" fill="#DD4F4C"/>
<path d="M21.9809 16.3563C21.9975 16.0004 22.1108 15.6611 22.5273 15.7376C22.9738 15.8175 22.6739 16.1301 22.6273 16.353C22.4107 16.3563 22.1941 16.3563 21.9809 16.3563Z" fill="#EB7972"/>
<path d="M30.3144 14.7198C30.0878 15.6212 29.3681 15.6711 28.6317 15.701C28.8949 14.8595 29.478 14.5701 30.3144 14.7198Z" fill="#DF5B55"/>
<path d="M27.6154 18.6216C27.2988 18.6382 26.979 18.6582 26.6624 18.6748C26.6657 18.4652 26.6691 18.2557 26.6724 18.0461C26.999 17.9097 27.3255 17.77 27.6487 17.6337C28.3884 17.9862 28.2418 18.3122 27.6154 18.6216Z" fill="#EC9B95"/>
<path d="M24.4266 15.9106C24.3433 15.8175 24.1367 15.6844 24.0901 15.5081C24.0234 15.2553 24.2333 15.089 24.4633 15.1921C24.6265 15.2653 24.7698 15.4782 24.8265 15.6611C24.8764 15.8175 24.7332 15.9472 24.4266 15.9106Z" fill="#EB7972"/>
<path d="M42.6164 12.0121C43.2161 12.6375 43.5527 13.2961 42.7896 14.4038C42.6897 13.3493 42.2831 12.704 41.9399 12.0287C42.1665 12.0254 42.3931 12.0188 42.6164 12.0121Z" fill="#E97D77"/>
<path d="M35.9655 18.0262C35.3991 17.6636 34.8226 18.1625 34.2562 18.0029C34.0063 17.7135 33.5964 17.6669 33.3399 17.3875L33.2566 17.3476C33.1066 16.8087 32.5368 16.3397 32.9734 15.701C33.1066 15.6145 33.2499 15.5946 33.4032 15.6345C34.3628 16.5759 35.5824 15.3584 36.5753 16.0137C37.1518 15.9505 37.7982 16.2632 38.2813 15.6977C38.5146 15.8141 38.7512 15.9272 38.9844 16.0437C38.6679 16.5326 38.2147 16.9351 38.1614 17.8565C37.5383 17.1314 37.0018 16.5459 36.3554 16.7056C35.9989 16.7987 35.9189 17.5206 35.9655 18.0262Z" fill="#E66660"/>
<path d="M33.3899 15.7376C33.2499 15.7243 33.1133 15.711 32.9734 15.6977C32.3169 15.7775 31.4406 17.158 31.0574 15.242C31.9138 15.2819 32.7035 15.1222 33.5032 14.8528C34.1596 14.6333 35.1459 14.1942 35.639 15.3052C34.9259 15.6312 34.1796 15.8008 33.3899 15.7376Z" fill="#DF5B55"/>
<path d="M33.3899 15.7376C34.0863 15.3152 34.7827 14.8894 35.6423 15.3052C35.9655 15.4516 36.2888 15.5979 36.612 15.7476C36.6086 15.8374 36.5953 15.9272 36.5753 16.0137C35.8789 16.1567 35.1492 16.2133 34.4961 16.4661C33.6831 16.7821 33.5431 16.3064 33.3899 15.7376Z" fill="#F0A49F"/>
<path d="M35.4857 13.8216C35.729 13.815 35.8589 13.9214 35.7989 14.0911C35.759 14.2008 35.5957 14.304 35.4724 14.3339C35.3158 14.3705 35.1425 14.2873 35.2125 14.0911C35.2558 13.968 35.4124 13.8915 35.4857 13.8216Z" fill="#E26863"/>
<path d="M36.9485 14.304C37.0485 14.427 37.1451 14.5501 37.2451 14.6732C36.9752 14.763 36.6586 15.1821 36.442 14.753C36.2921 14.4603 36.7053 14.3838 36.9485 14.304Z" fill="#EB837E"/>
<path d="M9.99876 29.0231C9.39566 29.4522 8.71924 29.6285 7.98286 29.6086C8.21943 29.3458 8.68592 29.1628 8.29607 28.6905C8.63261 28.298 8.38271 27.7491 8.64927 27.3366C9.39565 27.2635 9.71553 27.6094 9.64556 28.3412C9.6389 28.6306 9.72886 28.8701 9.99876 29.0231Z" fill="#E8746C"/>
<path d="M8.64927 27.3333C8.70925 27.8323 9.24904 28.4543 8.29607 28.6872C8.04617 28.6273 7.79626 28.5641 7.54969 28.5042C7.77627 27.982 7.93288 27.3965 8.64927 27.3333Z" fill="#EC877D"/>
<path d="M6.6467 27.0007C6.67336 26.6048 6.75999 26.239 7.22315 26.1458C7.41308 26.1092 7.54636 26.2356 7.50637 26.4252C7.41308 26.8843 7.03988 26.9674 6.6467 27.0007Z" fill="#ED7970"/>
<path d="M8.63928 24.6722C9.52894 25.2311 8.59596 25.3774 8.496 25.8664C8.18612 25.2843 8.52599 25.0049 8.63928 24.6722Z" fill="#F09991"/>
<path d="M9.56892 26.2123C9.52894 26.1092 9.39899 25.9329 9.4423 25.8697C9.54893 25.7067 9.71553 25.5271 9.89213 25.4805C10.0787 25.434 10.1187 25.6336 10.0521 25.7932C9.9721 25.9895 9.90546 26.2057 9.56892 26.2123Z" fill="#EC7F76"/>
<path d="M14.2905 26.3088C14.3971 26.4219 14.5037 26.5383 14.607 26.6514C14.2705 26.8676 13.9373 27.0872 13.6007 27.3034C13.3808 27.4032 13.1576 27.503 12.9376 27.5994C12.8343 27.5063 12.7311 27.4132 12.6278 27.32C12.8244 26.9209 13.1742 26.7279 13.5807 26.6082C13.7273 26.5383 13.774 26.3288 13.9706 26.3354C14.0805 26.3321 14.1838 26.3221 14.2905 26.3088Z" fill="#F1A29D"/>
<path d="M13.9739 26.3354C13.844 26.4286 13.714 26.5184 13.5841 26.6082C13.4941 26.2356 13.0276 25.7034 13.5774 25.5338C14.0805 25.3807 13.9173 26.0161 13.9739 26.3354Z" fill="#E9746E"/>
<path d="M23.9701 26.6747C23.1271 26.1392 23.7069 25.3541 23.6269 24.6889C24.2933 24.2831 24.9664 25.1379 25.6328 24.6789C25.7861 25.4872 25.9827 25.7433 26.6857 26.036C26.2992 26.382 25.8127 26.3354 25.3496 26.3687C24.9431 26.7213 24.35 26.2157 23.9701 26.6747Z" fill="#E15853"/>
<path d="M26.6824 26.036C25.4695 26.2489 25.4995 25.5038 25.6295 24.6789C25.9893 24.1932 26.5291 24.3995 26.9956 24.3196C27.1089 24.2332 27.2055 24.2465 27.2855 24.3662C27.2455 25.0947 27.9753 25.2344 28.2985 25.6868C27.762 25.8032 27.2222 25.9196 26.6824 26.036Z" fill="#D0423E"/>
<path d="M23.9701 26.6747C24.2233 25.6502 24.9164 26.6015 25.3463 26.3687C25.3063 26.4552 25.2696 26.5383 25.233 26.6248C24.8131 26.6414 24.39 26.6581 23.9701 26.6747Z" fill="#E96F65"/>
<path d="M38.6145 21.3259C38.2913 21.4257 37.9814 21.8681 37.6382 21.3558C37.4083 20.9733 37.6749 20.8236 37.9581 20.6806C38.2147 20.5276 38.268 20.2814 38.268 20.0087C38.8411 20.328 38.6312 20.8536 38.6145 21.3259Z" fill="#EDA19B"/>
<path d="M31.9637 24.3429C31.9637 24.2365 31.9671 24.13 31.9671 24.0236C31.8105 23.4149 32.2103 23.1953 32.6735 23.019C32.8234 22.4835 32.147 21.4922 33.4065 21.5754C34.2295 21.6319 34.8493 22.2872 35.2092 22.8727C35.5757 23.4747 34.876 23.844 34.2862 24.0169C33.5631 24.4893 32.8301 24.8951 31.9637 24.3429Z" fill="#DC4F4C"/>
<path d="M27.6154 18.6216C27.7887 18.2956 28.1885 17.9796 27.6487 17.6303C29.0282 17.1314 29.8812 17.6902 29.7279 19.0839C29.6413 19.8756 29.3447 20.644 29.9812 21.4789C28.9382 21.4922 28.7849 20.348 27.9686 20.3546C27.6754 20.1118 28.5117 19.8424 27.9486 19.6095C29.0382 18.8744 27.4221 19.0507 27.6154 18.6216Z" fill="#E1635D"/>
<path d="M25.9627 22.3371C24.8098 21.9612 23.9801 23.1488 22.7739 22.8161C23.5036 22.4336 24.23 22.0477 24.9597 21.6652C25.4296 21.6852 25.9394 21.6486 25.9627 22.3371Z" fill="#EA746F"/>
<path d="M31.9637 24.3429C32.7668 24.4427 33.5231 24.1999 34.2862 24.0203C33.7631 25.088 32.7168 24.8685 31.8238 25.0015C31.6205 25.0315 31.5539 24.8884 31.6605 24.7155C31.7472 24.5791 31.8638 24.466 31.9637 24.3429Z" fill="#E96B63"/>
<path d="M33.3399 17.3875C33.793 17.3775 34.2662 17.3276 34.2562 18.0029C33.4865 17.9829 33.4099 18.8012 32.8034 19.197C32.6968 18.4453 33.2832 17.9796 33.3399 17.3875Z" fill="#F19994"/>
<path d="M32.6768 23.019C32.4402 23.355 32.207 23.6876 31.9704 24.0236C31.6239 24.0768 31.3406 24.4926 30.7742 24.1167C31.6339 23.9903 31.5206 22.58 32.6768 23.019Z" fill="#F09A93"/>
<path d="M25.946 23.671C25.3796 23.9238 24.8198 24.2431 24.1634 23.8207C24.5199 23.1621 25.1497 23.4614 25.6261 23.3051C25.7328 23.4248 25.8394 23.5479 25.946 23.671Z" fill="#E98480"/>
<path d="M27.9486 19.6062C29.0648 19.8257 27.9653 20.1018 27.9686 20.3513C27.7587 20.4378 27.5487 20.5243 27.3388 20.6107C27.3055 20.1351 27.6154 19.8623 27.9486 19.6062Z" fill="#F0A29C"/>
<path d="M27.2855 24.3662C27.1889 24.3496 27.0923 24.3329 26.9956 24.3196C27.1023 24.007 27.2055 23.691 27.3122 23.3783C27.772 23.7209 27.7054 24.0469 27.2855 24.3662Z" fill="#E57873"/>
<path d="M36.602 22.4835C36.4387 22.6066 36.3221 22.6964 36.2055 22.7862C36.1388 22.6698 36.0022 22.54 36.0222 22.4436C36.0488 22.3271 36.2088 22.244 36.3121 22.1475C36.3954 22.2473 36.482 22.3471 36.602 22.4835Z" fill="#E87F75"/>
<path d="M28.6217 22.2773C28.8816 22.2373 28.9582 22.3804 28.9182 22.5367C28.8882 22.6631 28.7849 22.8261 28.675 22.866C28.5084 22.9259 28.3651 22.7962 28.4084 22.6132C28.4384 22.4768 28.5584 22.3671 28.6217 22.2773Z" fill="#E5766F"/>
<path d="M37.9581 20.6806C37.8515 20.9068 37.7449 21.1297 37.6382 21.3558C37.3417 21.143 37.1951 20.8635 37.4516 20.5575C37.6216 20.3579 37.8248 20.491 37.9581 20.6806Z" fill="#DE524F"/>
<path d="M22.2941 22.0311C22.4773 21.6885 22.6673 21.3292 23.1471 21.4956C23.2504 21.5321 23.3837 21.8249 23.357 21.8515C23.0505 22.1509 22.6506 21.9912 22.2874 22.0211C22.2874 22.0178 22.2941 22.0311 22.2941 22.0311Z" fill="#E86F69"/>
</svg>
