<svg width="53" height="54" viewBox="0 0 53 54" fill="none" xmlns="http://www.w3.org/2000/svg">
<path d="M50.1861 33.6237C53.1159 37.5662 52.8956 44.5469 49.7145 48.5629C44.8017 54.7628 35.9503 55.8181 29.7967 50.913C28.7415 50.0743 27.7675 49.1234 27.6477 47.643C27.5085 46.9241 27.2959 46.2128 27.2959 45.4707C27.3384 45.262 27.4235 45.0726 27.5549 44.9025C27.7288 44.7634 27.9182 44.7363 28.127 44.8252C28.7493 46.3056 28.5483 48.1493 30.0712 49.2355C33.9287 53.5801 41.9917 53.3018 46.0193 50.2018C50.6924 46.6071 52.1496 40.585 49.5096 35.0036C49.2893 34.5436 48.9453 34.1184 49.2971 33.5773C49.6024 33.4574 49.9 33.4613 50.1861 33.6237Z" fill="#D2B99F"/>
<path d="M0.261795 26.3271C1.70354 18.5695 6.76705 14.279 13.9681 12.0565C15.0658 11.7164 16.1944 11.4612 17.3231 11.2332C22.3518 10.2166 25.1735 6.9698 26.4954 2.20005C26.5959 1.83671 26.5534 1.427 26.8974 1.15643C27.4385 1.62799 27.3883 2.25416 27.3651 2.88034C27.3496 3.08133 27.3071 3.2746 27.253 3.46786C26.4567 6.35908 25.0884 8.87538 22.5606 10.6418C22.0387 11.009 21.5479 11.4149 20.883 11.4767C20.5429 11.5501 20.1486 10.9201 19.8549 11.5656C18.1464 12.6943 16.0321 12.6208 14.2386 13.4828C10.0912 14.7699 6.42304 16.7103 4.01111 20.5446C3.10664 21.9825 2.49206 23.5093 2.04369 25.1288C1.56053 26.273 1.5412 27.4789 1.53347 28.6926C1.5296 29.5005 1.69968 30.3702 0.992332 31.0234C-0.155654 30.5402 0.304313 29.5314 0.308178 28.7313C0.312044 27.9312 0.640592 27.1272 0.261795 26.3271Z" fill="#CBB1CA"/>
<path d="M32.7147 10.8609C33.221 13.381 34.4965 15.5185 36.1084 17.455C38.7561 20.6361 41.052 23.9796 41.6202 28.2198C42.0184 28.8189 41.5584 29.5649 41.9488 30.164C41.9527 30.8095 41.9565 31.455 41.9565 32.1005C41.4888 32.2629 41.2105 32.0078 40.9747 31.656C40.6578 30.9409 40.766 30.1331 40.4993 29.4026C39.993 25.2899 37.7704 21.9928 35.4358 18.7499C34.5738 17.5555 33.5766 16.4539 32.9234 15.1127C31.7445 12.9056 30.7936 10.6637 31.8836 8.11651C32.6296 8.02375 32.4557 8.59194 32.5098 8.9978C32.5948 9.6201 32.3243 10.2772 32.7147 10.8609Z" fill="#C7A9CA"/>
<path d="M20.0176 47.6127C18.8889 48.1963 17.996 48.0726 16.7476 47.4503C15.5029 46.8319 13.8834 46.7546 12.5189 46.1555C11.2859 45.6143 11.2666 45.336 12.202 44.4547C13.8602 44.3465 15.6305 43.6392 16.9717 45.3322C16.9795 45.3438 17.4704 45.0229 17.8028 45.0616C17.9728 45.1157 18.1004 45.2162 18.1816 45.3747C18.3362 46.055 18.7304 46.5497 19.3605 46.8551C19.6697 47.0329 19.9287 47.2493 20.0176 47.6127Z" fill="#CFB3CE"/>
<path d="M18.0232 45.2633C17.5246 45.2014 17.2038 45.9706 16.4655 45.2246C15.3562 44.0998 13.5588 45.2246 12.206 44.4554C12.7703 43.7288 12.1055 43.6747 11.6803 43.4389C9.79018 42.3991 7.65268 41.8039 5.99834 40.3312C5.88239 40.1727 5.86692 40.0065 5.9481 39.8287C6.16069 39.6316 6.41193 39.5736 6.69409 39.6007C7.45169 39.7591 8.00056 40.3389 8.70403 40.6056C9.17173 40.7834 9.6317 40.3467 10.1033 40.5824C11.4213 42.0203 13.0873 42.8127 14.958 43.2224C15.2209 43.2727 15.4799 43.3461 15.7311 43.4389C16.4616 43.7752 17.169 44.1539 17.915 44.4593C18.1005 44.7067 18.9354 44.8652 18.0232 45.2633Z" fill="#BF9FC3"/>
<path d="M6.04826 39.8347C6.0328 40.0009 6.01347 40.1633 5.99801 40.3295C2.14433 38.0181 -0.572953 32.3438 0.10347 28.0418C0.192371 27.4736 0.211698 26.8977 0.261946 26.3256C1.23986 27.7558 0.0377604 29.5261 0.984752 30.9601C1.56068 31.3427 1.6032 32.0037 1.83898 32.5642C1.93561 32.8077 2.02838 33.055 2.1366 33.2947C2.93285 35.2041 4.05764 36.8971 5.46074 38.4123C5.76996 38.8414 6.2995 39.1776 6.04826 39.8347Z" fill="#C3A9C6"/>
<path d="M18.0232 45.2633C18.3402 44.6603 17.7562 44.9615 17.5977 44.8416C17.5861 44.3121 17.9572 44.2387 18.3553 44.1961C18.9351 44.2116 19.3835 44.6445 19.9478 44.7141C21.7799 45.0001 23.5889 45.1625 25.2548 44.0415C25.6723 43.7594 26.2018 43.6859 26.7198 43.8637C26.8898 43.9488 27.0019 44.0802 27.056 44.2618C26.9749 44.9846 26.3719 45.1199 25.8578 45.3364C26.0202 45.5954 26.225 45.3287 26.399 45.3828C26.6657 45.3905 26.8898 45.4794 27.0599 45.692C27.1604 45.9664 27.1488 46.2177 26.9208 46.4264C24.4895 47.1221 22.1587 46.3066 19.7893 45.9471C19.4917 46.5655 20.7518 46.9559 20.0212 47.6169C19.7507 47.4739 19.4762 47.3347 19.2057 47.1917C18.622 46.8168 18.3901 46.179 18.0345 45.6302C18.0306 45.5065 18.0271 45.3831 18.0232 45.2633Z" fill="#C3A4C3"/>
<path d="M41.6479 34.7138C43.1051 33.9253 44.4966 32.9667 46.2321 32.8816C46.7887 33.4614 47.9328 32.3289 48.2575 33.5735C47.2023 34.621 45.6909 34.0142 44.4656 34.6635C42.3591 35.7767 40.353 37.0291 38.3624 38.3239C37.2492 39.0467 36.2172 39.9783 34.8025 40.129C34.5048 40.0749 34.2691 39.9358 34.157 39.6381C34.787 37.9181 36.7351 37.7867 37.8097 36.6C38.0068 36.43 38.2194 36.2715 38.4397 36.1323C39.0272 35.7999 39.6457 35.5216 40.2448 35.2124C40.697 35.0114 41.1261 34.7331 41.6479 34.7138Z" fill="#D4BEA3"/>
<path d="M29.6192 0.425626C30.5971 0.638216 31.3818 1.13297 31.9036 2.00652C31.8263 2.76025 32.3365 3.30525 32.6148 3.9237C33.0477 4.88615 33.125 5.74424 32.2051 6.46705C30.6164 6.91928 29.3216 6.64485 28.6026 4.98278C28.5988 4.47257 28.7688 4.02033 29.0897 3.62221C29.8782 3.19316 30.0212 3.86185 30.3034 4.34115C30.3381 3.79614 29.5264 3.47146 29.913 2.85302C30.056 2.7216 30.2222 2.65975 30.4077 2.7216C30.5817 2.77571 30.6937 2.94192 30.86 3.01922C30.7556 2.86848 30.6396 2.72546 30.543 2.56312C29.9709 1.2412 28.2509 2.14567 27.5745 1.02474C28.0654 0.143461 28.9119 0.526123 29.6192 0.425626Z" fill="#E5D1D8"/>
<path d="M32.3089 6.19231C32.7689 5.19121 32.6607 4.26741 32.0693 3.32814C31.849 2.9764 31.304 2.52417 31.9031 2.01009C33.2289 3.84223 33.5845 5.78646 32.8887 7.99739C32.6104 8.88254 32.7573 9.90684 32.7109 10.8654C31.8451 10.1349 32.7805 8.91733 31.9804 8.16747C31.5861 7.83119 31.7291 7.39055 31.7369 6.9731C31.7639 6.5943 32.0886 6.43196 32.3089 6.19231Z" fill="#D2B6D5"/>
<path d="M41.6479 34.7138C41.3966 35.2085 40.8978 35.3511 40.4494 35.5636C39.7498 34.091 40.546 32.9198 41.2302 31.7293C41.4737 31.8568 41.7172 31.9805 41.9607 32.1081C42.1965 33.0164 41.5822 33.8248 41.6479 34.7138Z" fill="#CDB2C9"/>
<path d="M29.6192 0.425626C29.1631 1.16389 28.1462 0.482856 27.6785 1.1902C27.7596 1.63471 27.7712 2.07921 27.6669 2.52759C27.5316 2.85613 27.4504 3.26199 26.9325 3.10351C26.9209 2.45414 26.9093 1.80478 26.8977 1.15928C27.1605 0.911901 27.4234 0.660658 27.6862 0.413281C28.3317 0.146577 28.9776 0.128 29.6192 0.425626Z" fill="#BEA4BA"/>
<path d="M48.183 33.5964C47.6805 32.9547 46.7026 33.6041 46.2311 32.8774C47.0118 32.7035 47.7888 32.3904 48.5734 32.8581C48.6894 33.0359 48.7705 33.2253 48.7744 33.4418C48.7319 33.5771 48.6469 33.6853 48.527 33.7626C48.3724 33.7819 48.2603 33.7317 48.183 33.5964Z" fill="#CEB68C"/>
<path d="M26.9167 46.4209C26.9167 46.189 26.9206 45.9532 26.9206 45.7213C26.9979 45.3154 27.2337 45.126 27.655 45.2072C27.6512 46.0189 27.6512 46.8306 27.6473 47.6462C27.4038 47.2365 27.1603 46.8267 26.9167 46.4209Z" fill="#D8C2AD"/>
<path d="M48.5357 33.6008C48.5473 33.3535 48.5589 33.1099 48.5744 32.8626C49.1117 33.1177 49.6488 33.3685 50.1861 33.6237C49.9 33.6353 49.6141 33.6511 49.3281 33.6627C49.0421 33.8946 48.7792 33.8598 48.5357 33.6008Z" fill="#D4BEA3"/>
<path d="M41.9492 30.1678C41.3617 29.5996 41.6825 28.8807 41.6207 28.2236C42.1812 28.7956 41.9492 29.4991 41.9492 30.1678Z" fill="#CDB2C9"/>
<path d="M29.6183 0.424584C28.9728 0.420718 28.3317 0.417146 27.6862 0.413281C28.3356 -0.123992 28.9767 -0.155207 29.6183 0.424584Z" fill="#E5D1D8"/>
<path d="M48.5358 33.6018C48.7987 33.625 49.0654 33.6444 49.3282 33.6675C53.9047 40.6405 50.5844 50.6709 41.8334 52.6538C37.3381 53.6742 33.0322 53.191 29.6694 49.4881C29.8163 49.2059 29.6965 48.8001 30.0714 48.6223C30.2415 48.5952 30.4 48.6262 30.5507 48.7073C30.9952 49.1209 31.5634 49.2021 32.1355 49.2871C33.469 49.6775 34.7523 50.2766 36.1708 50.1993C35.6181 49.8012 34.7445 49.8708 34.5358 49.0243C34.6363 48.4831 35.0267 48.286 35.5099 48.1971C37.2106 49.0629 39.3481 48.773 40.8401 50.1993C40.2603 50.8526 40.2603 50.8526 38.5093 50.8526C42.7804 50.8796 47.0632 47.9227 48.0527 44.2777C47.2912 45.1822 46.2901 45.7968 45.5441 46.6935C45.2697 47.0221 44.8368 47.4357 44.3923 47.1226C43.8395 46.736 44.1913 46.191 44.4116 45.7427C44.6976 45.159 45.1228 44.6411 45.6253 44.2545C46.5491 43.5433 45.4475 43.4815 45.3199 43.1143C45.1189 41.974 46.5491 41.5102 46.4408 40.4086C46.8931 39.222 48.0063 38.3484 48.0565 36.9724C48.1029 36.2805 48.157 35.5886 48.3426 34.916C48.4431 34.5102 48.3116 34.0579 48.5783 33.6869L48.5358 33.6018Z" fill="#FAEDC3"/>
<path d="M34.2612 39.4635C34.4042 39.5988 34.5434 39.734 34.6864 39.8693C34.7714 40.0394 34.7675 40.2056 34.6632 40.368C32.4986 41.6937 30.1447 42.7683 28.587 44.9096C28.413 45.0024 28.2507 44.9869 28.0961 44.871C27.9685 44.871 27.8371 44.871 27.7096 44.871C27.3578 44.8517 27.0331 44.786 26.9326 44.3762C26.9404 44.2757 26.9481 44.1752 26.952 44.0747C27.18 42.6523 28.7339 42.5286 29.418 41.5546C30.2413 40.8975 31.2231 40.5264 32.1314 40.0239C32.5102 39.8345 32.8968 39.6645 33.291 39.4983C33.608 39.39 33.9288 39.247 34.2612 39.4635Z" fill="#D8C2AD"/>
<path d="M28.096 44.872C28.2197 44.872 28.3434 44.8643 28.4671 44.8565C28.8033 44.555 29.0816 44.6942 29.3406 44.9686C29.6382 45.7262 30.7785 45.5136 30.9795 46.3872C30.9834 46.565 30.9408 46.7273 30.8558 46.8819C30.0673 47.2762 29.8972 47.9488 30.0054 48.7527C29.9977 49.0465 29.9513 49.3209 29.6653 49.4871C28.1192 48.2928 27.8525 46.6693 28.096 44.872Z" fill="#FBF0C8"/>
<path d="M26.9285 44.3774C27.2532 44.4393 27.5624 44.5243 27.7054 44.8722C27.6745 44.9804 27.6552 45.0925 27.6552 45.2085C27.4117 45.3785 27.1643 45.5525 26.9208 45.7226C26.6734 45.7071 26.4221 45.6878 26.1748 45.6723C25.7187 45.7457 25.1234 46.2328 24.9997 45.2896C25.6452 44.9843 26.2869 44.6789 26.9285 44.3774Z" fill="#F5E9EE"/>
<path d="M20.7668 11.2747C23.9711 9.58554 25.7684 6.78709 26.9241 3.48228C28.6133 4.38289 28.9302 5.21392 28.42 7.36301C27.2527 10.2117 26.1665 13.0991 24.5083 15.7197C24.1721 16.2531 23.944 16.8909 23.2908 17.1615C21.8181 15.9053 20.8982 16.8832 19.9009 17.9268C18.3007 19.6005 16.8822 21.4287 15.2974 23.114C14.8838 23.5546 14.4586 24.4166 13.7938 23.8793C13.0826 23.3034 13.7088 22.5961 14.1571 22.0472C16.2019 19.5618 18.4515 17.2697 20.7552 15.0278C21.2577 14.5408 21.8645 14.1311 22.0616 13.3967C23.2135 12.1173 24.4426 10.8959 25.3239 9.39228C25.521 9.17196 25.5984 8.85114 25.8882 8.70426C25.5752 8.82409 25.5326 9.16809 25.3278 9.38068C23.3835 12.0516 21.4316 14.7148 18.1345 15.8898C16.6348 15.511 16.4995 15.2057 17.4001 14.2123C17.8987 13.6634 18.6641 13.3774 18.9694 12.6352C19.3521 11.9008 20.0594 11.5878 20.7668 11.2747Z" fill="#F3E7E9"/>
<path d="M5.27095 38.6794C3.54317 37.2377 2.4493 35.3823 1.74968 33.2719C2.00866 33.067 2.22511 33.384 2.47249 33.3299C1.17762 29.3757 2.34494 25.7617 3.98381 22.2095C4.03793 22.0935 4.07658 21.9698 4.12683 21.85C4.24278 21.5872 4.39353 21.3437 4.55587 21.1079C6.43439 17.5325 9.77785 15.7545 13.1909 14.0692C13.6972 13.6672 14.2848 13.4237 14.8298 13.2884C14.6056 13.4237 14.3389 13.4198 14.0992 13.1415C15.912 12.0941 18.0495 12.0593 19.9435 11.2669C19.7 12.5038 18.5443 12.7434 17.6862 13.2652C15.1892 14.7804 12.4642 15.9168 10.1953 17.8147C6.81706 20.3773 4.61772 23.6783 3.86785 27.8914C3.13345 30.829 3.65526 33.612 4.79938 36.3525C5.10088 37.0676 5.83141 37.7633 5.27095 38.6794Z" fill="#F8EDF0"/>
<path d="M4.88809 21.2976C4.76054 21.4252 4.63685 21.5528 4.5093 21.6803C3.93337 22.751 3.33039 23.8101 2.95546 24.9735C2.78925 25.4876 2.61918 25.9476 1.99687 26.0249C1.42868 25.677 1.56783 25.2093 1.77269 24.7261C3.38837 18.2132 7.94166 14.8233 14.099 13.1458C14.3889 13.1728 14.6827 13.1999 15.2702 13.254C14.4701 13.7178 13.9251 14.0309 13.384 14.344C10.8909 15.3103 8.59103 16.5897 6.64679 18.4683C5.81576 19.2684 5.05044 20.0878 4.88809 21.2976Z" fill="#F9F4F1"/>
<path d="M9.91717 17.4483C12.217 15.477 15.0077 14.3174 17.5897 12.8139C18.4014 12.3423 19.4178 12.1752 19.9435 11.2669C20.2218 10.8069 20.4926 11.2214 20.7631 11.2755C20.2336 11.778 19.7079 12.2843 19.1784 12.7868C18.2352 13.9773 16.8205 14.503 15.5643 15.2026C13.8482 16.1573 12.2402 17.3324 10.3733 18.0088C10.0641 17.9508 9.83987 17.8194 9.91717 17.4483Z" fill="#CEBBCF"/>
<path d="M1.77269 24.7261C1.81907 25.1591 1.71488 25.6424 2.18258 25.9323C2.29853 28.0621 2.02024 30.1841 2.08594 32.3177C2.09754 32.6501 1.85403 32.8936 1.45591 32.8589C1.29743 32.2288 1.13895 31.5949 0.980477 30.9649C1.16601 28.8738 0.489415 26.6742 1.77269 24.7261Z" fill="#F8EDF0"/>
<path d="M28.0571 7.37592C28.7026 5.77957 27.9643 4.5852 26.9246 3.47973C26.9207 3.35218 26.9246 3.22462 26.9361 3.10093C27.2531 2.93859 27.2995 2.6371 27.3381 2.32788C28.2001 2.32015 27.9991 3.15118 28.3276 3.56863C28.5055 3.93197 28.7992 4.24505 28.8301 4.6741C29.4911 6.3323 30.8981 6.27819 32.3166 6.19315C32.1929 6.45599 32.0692 6.71883 31.9455 6.9778C31.2846 7.63876 30.5811 7.29475 29.8815 7.0783C29.3249 6.83479 28.9577 7.24064 28.5402 7.47642C28.3586 7.51894 28.1962 7.48802 28.0571 7.37592Z" fill="#CCB6C8"/>
<path d="M33.4373 15.1323C35.5671 18.3984 38.238 21.309 39.7841 24.9578C40.3909 26.3918 40.8779 27.8258 40.8084 29.4029C40.1745 29.8358 40.8006 30.5393 40.4566 31.0456C40.2092 31.4051 40.1861 32.1008 39.4671 31.5983C39.0458 30.748 38.8719 29.8358 38.7752 28.9081C38.5626 27.0257 37.5267 25.4255 36.9817 23.6552C36.8928 23.4117 36.6532 23.7557 36.8851 23.6436C37.0784 24.0495 37.2368 24.463 37.2948 24.9153C37.7896 27.4896 38.0292 30.0716 37.6543 32.6845C37.5383 33.4885 37.2871 34.1765 36.4329 34.4393C35.7526 34.648 35.5361 34.1803 35.3777 33.6585C35.7449 27.8606 34.1446 22.484 31.8603 17.2543C31.6515 16.7789 31.5046 16.288 31.582 15.7585C31.6438 15.457 31.7791 15.198 32.0574 15.0395C33.6885 16.5315 34.392 18.6922 35.6328 20.0412C34.9061 18.7038 33.5532 17.3587 32.9 15.5691C32.958 15.2792 33.0778 15.0588 33.4373 15.1323Z" fill="#F6EBEA"/>
<path d="M32.328 15.1085C32.1889 15.2515 32.0536 15.3906 31.9144 15.5336C30.0398 14.2542 30.8592 12.4607 30.9829 10.8373C30.9095 11.1118 31.0525 11.5215 30.6389 11.707C29.5527 11.22 30.0977 10.2421 29.9509 9.46902C29.8697 9.04771 30.5925 8.55682 29.831 8.20894C29.6069 8.0582 29.4522 7.85721 29.3595 7.60983C29.2783 7.2233 29.3015 6.86383 29.6262 6.58553C30.3876 6.75174 31.1143 7.14986 31.9337 6.97979C32.3783 7.35858 31.8139 7.77603 31.9801 8.16643C31.6593 10.6595 32.1811 12.9748 33.4373 15.1355C33.3214 15.2592 33.2093 15.379 33.0933 15.5027C32.645 15.7501 32.6179 15.1703 32.328 15.1085Z" fill="#F0E1E7"/>
<path d="M39.6762 31.7255C40.2251 31.0375 40.1207 30.2567 40.1439 29.4373C40.1787 28.2004 40.5807 29.5765 40.8087 29.4064C41.5238 30.0751 41.0601 30.9601 41.2302 31.7293C41.3461 33.086 40.461 34.2379 40.4494 35.5636C39.8116 35.8497 39.2665 36.36 38.5127 36.3561C38.1146 34.6168 39.1582 33.2369 39.6762 31.7255Z" fill="#F0E1E3"/>
<path d="M18.0302 45.6251C18.6873 45.942 18.8845 46.6069 19.2014 47.1867C18.3549 47.0089 17.9491 46.5025 18.0302 45.6251Z" fill="#E2CDE3"/>
<path d="M18.3939 44.4613C18.0731 44.4729 17.7871 44.5502 17.5977 44.8401C16.9483 44.4729 16.2989 44.1057 15.6534 43.7385C14.4359 42.7142 14.4629 41.2801 14.4204 39.8848C14.374 38.2884 14.5596 36.723 15.2514 35.258C16.1598 35.289 17.1918 35.0648 17.5088 36.3133C17.3658 36.5104 17.617 36.2282 17.5667 36.4795C17.532 36.6689 17.5938 36.6843 17.6402 36.4988C18.3359 33.623 18.7457 30.6468 20.543 28.1537C20.8174 28.1846 21.003 28.3508 21.1228 28.5789C21.4629 29.2282 21.9964 29.6225 22.4602 29.549C22.9588 31.0178 21.7799 32.046 21.4398 33.2945C20.7401 35.8456 20.0057 38.4121 18.6142 40.7081C18.4287 40.882 18.7147 40.6849 18.5253 40.855C18.3707 40.9941 18.2122 41.1023 18.0035 41.1294C18.247 41.1217 18.4171 40.9786 18.5679 40.8047C20.0057 38.5744 20.6319 36.0272 21.4475 33.5535C21.5828 33.1399 21.5325 32.6451 22.0273 32.4209C22.8738 33.2094 23.527 31.6363 24.358 32.2277C24.2034 34.9604 22.9472 37.2061 21.2619 39.2625C21.1112 39.4712 21.2929 39.1929 21.1576 39.4093C21.0184 39.6258 20.8213 39.8036 20.7401 40.0548C20.8484 39.8384 20.9952 39.6451 21.1344 39.4403C21.5828 38.8837 21.9229 38.2072 22.7037 38.0217C23.9483 38.1493 23.7319 38.9107 23.3878 39.6761C23.1018 40.31 22.5336 40.8086 22.4988 41.5584C21.6369 43.2398 20.4116 44.411 18.3939 44.4613Z" fill="#F5EAEA"/>
<path d="M8.75356 41.0063C7.94572 40.8865 7.41231 40.3106 6.81319 39.8468C4.21186 36.8744 3.1837 33.4072 3.55477 29.5033C3.69005 29.3409 3.86785 29.2791 4.07658 29.3177C4.50562 29.6192 4.18481 30.1101 4.30076 30.3614C4.6641 29.1941 4.753 27.8142 6.04787 27.014C6.39961 27.2266 6.6006 27.5552 6.74748 27.9185C7.36979 30.2725 7.58625 32.6457 7.11468 35.0654C7.03351 35.4829 7.39298 34.9301 7.49734 35.135C8.42887 36.6734 8.51005 38.5132 9.2947 40.1096C9.44158 40.4188 9.52661 41.0682 8.75356 41.0063Z" fill="#F2E5E9"/>
<path d="M14.8995 43.6818C12.9746 43.0865 10.9105 42.7116 9.89394 40.6282C7.98836 38.5912 7.72938 36.0633 7.73711 33.4543C7.83761 33.2649 7.99995 33.1644 8.21641 33.1528C8.98946 33.6166 9.31415 34.4399 9.8205 35.1202C10.6863 36.9369 11.0419 38.9623 12.2595 41.0534C12.2092 40.9336 12.2402 40.6939 12.2363 40.6862C11.5289 39.9054 11.6836 39.1014 12.217 38.3013C12.387 38.2124 12.5532 38.2163 12.7195 38.3129C13.1408 38.854 13.0403 39.5189 13.1485 40.1373C13.1601 40.3924 13.5389 40.0793 13.2954 40.1644C13.1253 39.6116 13.133 39.055 13.276 38.4984C13.5505 38.1119 13.7592 37.5437 14.3815 38.081C14.5013 39.9518 14.799 41.811 14.8995 43.6818Z" fill="#F5E7EB"/>
<path d="M14.8999 43.68C14.0882 41.8285 14.1385 39.865 14.1617 37.9091C13.5625 36.5602 14.2699 35.3233 14.5018 34.0477C14.6951 32.9887 15.0313 31.9605 15.2285 30.9014C15.3058 30.5767 15.4411 30.283 15.7116 30.0704C16.4306 29.8616 16.7205 30.2752 16.8789 30.8782C16.8171 32.4011 16.6432 33.8931 15.6884 35.1687C14.7144 38.0212 14.6487 40.8738 15.6498 43.7341C15.3985 43.7187 15.1473 43.6993 14.8999 43.68Z" fill="#CEB8CD"/>
<path d="M3.75202 29.4578C3.55876 33.2806 4.79565 36.6781 6.81718 39.8477C6.56208 39.8438 6.30697 39.8399 6.05186 39.8361C5.79289 39.4495 5.53391 39.0669 5.27494 38.6804C4.40139 36.5854 3.45053 34.5484 3.12198 32.2292C2.89007 30.5865 3.23408 29.079 3.38869 27.5097C4.62557 27.9465 4.11149 28.7157 3.75202 29.4578Z" fill="#CAB3CC"/>
<path d="M7.99991 33.3039C8.07335 35.8898 8.56038 38.3674 9.89003 40.6286C9.48418 40.6788 9.43007 41.7882 8.75364 41.0035C9.21747 40.7059 9.03194 40.3425 8.81162 40.0217C7.80278 38.5568 7.79892 36.7633 7.22686 35.1592C6.80554 33.9301 7.03746 32.7743 7.61725 31.6573C8.62995 32.0051 8.34006 32.6507 7.99991 33.3039Z" fill="#C3A9C6"/>
<path d="M1.4563 32.8544C2.13273 31.9306 1.77326 30.8754 1.7578 29.8936C1.7346 28.5407 1.97039 27.242 2.17911 25.9278C2.88646 24.4745 3.11837 22.7583 4.50601 21.676C3.90689 23.4038 3.18795 25.1007 2.73571 26.8632C2.13273 29.221 2.46128 31.6136 2.90965 34.1067C2.47287 33.7898 2.10954 33.527 1.7462 33.2641C1.65343 33.1327 1.5568 32.9935 1.4563 32.8544Z" fill="#EBE1E2"/>
<path d="M29.6384 41.7903C29.0277 42.888 27.7522 43.2011 26.9482 44.0747C26.6313 44.1172 26.2447 44.0592 26.0128 44.2216C24.0377 45.6131 21.8692 45.6247 19.6235 45.2227C19.2138 44.8709 19.353 44.5037 19.7163 44.2911C22.1785 42.8687 23.7555 40.6307 25.2784 38.3386C25.4601 38.0681 25.6881 37.8516 26.036 37.8129C26.6854 38.1376 26.8709 38.7638 27.0719 39.3822C27.0912 39.6219 27.0448 39.8461 26.9173 40.0625C26.8516 40.1785 26.6197 40.3138 26.7588 40.4143C26.867 40.4916 27.0642 40.2983 27.2149 40.2017C27.9532 39.6335 28.5214 38.8179 29.5186 38.644C29.9477 38.5512 30.3767 38.4159 30.8251 38.4894C31.7218 39.1387 31.0068 39.6953 30.7091 40.2597C30.427 40.8163 29.6887 41.0598 29.6384 41.7903Z" fill="#EBDBDE"/>
<path d="M26.1213 37.8842C24.4206 40.3734 22.9479 43.0714 20.0412 44.4474C19.7127 44.602 19.6083 44.8842 19.6238 45.2244C19.214 44.9692 18.8043 44.718 18.3907 44.4629C19.9369 43.7556 21.3786 42.9129 22.2947 41.3977C23.5934 39.3144 25.0042 37.3276 25.785 34.9195C26.9678 31.2707 27.6558 27.5948 27.5553 23.7605C27.5283 22.7439 27.4007 21.7003 27.8181 20.7147C27.9302 20.5137 28.1042 20.4093 28.3361 20.4093C28.8811 20.676 28.9893 21.221 29.1826 21.7158C29.2522 21.9206 29.2947 22.1294 29.3217 22.3419C29.4106 23.5054 29.3488 24.6727 29.3874 25.84C29.3952 26.4662 29.3565 27.0924 29.229 27.7069C29.0009 28.3756 28.97 29.0752 28.9275 29.771C28.8115 30.5441 28.5912 31.2978 28.4211 32.0592C28.1506 32.9792 27.9302 33.9107 27.7099 34.8422C27.2577 35.8975 26.9601 37.0338 26.1213 37.8842Z" fill="#CCB4CA"/>
<path d="M25.0034 45.2862C25.2933 45.7268 25.7648 45.6109 26.1784 45.6688C25.7803 46.0554 25.301 46.1172 24.8565 45.835C24.613 45.6804 24.7521 45.4176 25.0034 45.2862Z" fill="#EBDBDE"/>
<path d="M35.7957 33.6472C35.846 33.9796 35.9349 34.3198 36.3678 34.1072C36.994 33.8018 37.1292 33.2762 37.2143 32.5727C37.5274 29.9482 37.0403 27.37 36.963 24.7687C38.6676 25.7582 38.4976 27.6483 39.0696 29.179C39.7499 31.8228 38.8222 34.2695 38.1342 36.7472C37.1447 38.0846 35.4556 38.4208 34.2612 39.4606C33.9945 39.5843 33.7278 39.708 33.4611 39.8317C33.0823 39.3485 33.2678 38.8537 33.4843 38.3938C34.1298 37.0139 34.8835 35.6804 35.1038 34.1342C35.1502 33.825 35.4015 33.5815 35.7957 33.6472Z" fill="#EDDDE0"/>
<path d="M34.613 40.2073C34.6246 40.0913 34.6516 39.9792 34.6864 39.8671C37.5931 38.638 39.9393 36.485 42.7107 35.0162C44.454 34.0924 46.1933 33.4237 48.1878 33.5977C48.3192 33.6286 48.4469 33.656 48.5783 33.6869C48.6982 34.0618 48.8179 34.4403 48.9416 34.8152C47.8013 35.6308 46.2127 35.051 45.1304 36.0328C44.2105 35.7893 43.8742 36.5392 43.3988 37.0532C43.1436 37.3199 42.8228 37.4591 42.4711 37.5364C41.3076 37.7181 40.2911 38.1123 39.8427 39.3376C39.1933 40.3696 38.2502 40.9688 37.0636 41.2045C36.4838 41.1272 35.9388 41.2471 35.4015 41.4596C35.0459 41.6027 34.613 41.7186 34.3424 41.3901C33.9675 40.9417 34.4738 40.5977 34.613 40.2073Z" fill="#FBF3D7"/>
<path d="M38.138 36.7505C37.6973 36.4645 37.8829 36.1166 38.022 35.7533C38.8608 33.581 39.0193 31.3198 38.8917 29.0238C38.741 28.618 38.9265 28.5561 39.2705 28.6489C39.4058 29.6732 39.5409 30.7012 39.6762 31.7255C39.9042 33.4224 38.907 34.8139 38.5127 36.3561C38.3852 36.4876 38.2617 36.6191 38.138 36.7505Z" fill="#D9C5D2"/>
<path d="M28.0691 3.88828C27.443 3.54814 27.8875 2.70164 27.3309 2.33057C27.3463 1.92086 27.2533 1.47623 27.6785 1.1902C28.7955 1.35641 30.2221 0.711025 30.7787 2.3615C30.3844 2.60887 30.0288 2.34217 29.6616 2.27646C29.3872 2.19142 29.1089 2.10252 28.8229 2.23394C28.3745 2.69777 28.6412 3.48629 28.0691 3.88828Z" fill="#F1E1E5"/>
<path d="M28.0691 3.88828C28.3358 3.12682 27.4544 1.98355 28.8343 1.59702C29.3406 2.05699 29.2942 2.66384 29.271 3.26296C29.2594 3.34799 29.244 3.43303 29.2324 3.5142C29.2208 3.94711 29.3058 4.41094 28.8227 4.67378C28.5714 4.41481 28.3204 4.15112 28.0691 3.88828Z" fill="#D7C1C7"/>
<path d="M30.0054 2.74124C29.9049 3.61479 31.4858 4.49607 30.5272 5.04494C29.4952 5.63246 30.3649 3.49487 29.2324 3.5142L29.2362 3.51816C28.8845 2.91131 29.1009 2.62528 29.758 2.59049C29.8431 2.64074 29.9242 2.69099 30.0054 2.74124Z" fill="#D7C1C7"/>
<path d="M29.6266 1.97831C30.0092 2.10587 30.3922 2.23394 30.7787 2.3615C30.9642 2.87944 31.621 3.16882 31.478 3.98439C30.9524 3.53988 30.4808 3.13789 30.0092 2.73977L30.0131 2.74364C29.7889 2.53491 29.414 2.40349 29.6266 1.97831Z" fill="#D7C1C7"/>
<path d="M36.9545 40.9993C37.9363 40.4698 38.9799 40.0292 39.6718 39.0822C40.2864 38.0269 41.4421 37.7293 42.3852 37.1379C42.6983 37.1302 42.9843 37.0645 43.1467 36.7553C43.6955 36.5659 43.9429 35.7851 44.685 35.9706C45.7364 34.2312 47.4603 34.9772 48.9368 34.8149C48.5001 35.53 48.5426 36.3224 48.5619 37.107C48.0246 38.3323 47.0042 39.2909 46.6215 40.6051C47.3791 41.9463 45.5702 42.0159 45.4697 42.932C44.4454 45.0927 42.1687 45.4521 40.3327 46.3527C38.6939 47.1567 36.854 47.5703 35.1339 48.2467C34.6353 48.3588 34.1986 48.1694 33.7618 47.9646C33.0119 47.5278 32.1538 47.7288 31.3576 47.5742C31.172 47.5278 31.002 47.4505 30.8474 47.3461C30.7469 47.2495 30.7005 47.1413 30.7082 47.0253C30.7159 46.9055 30.7353 46.8436 30.7623 46.8436C30.7701 46.7006 30.7778 46.5576 30.7855 46.4146C32.2157 45.8541 33.7309 46.604 35.161 46.1247C38.2068 45.9469 40.8159 44.6675 43.2588 42.9436C43.595 42.7078 43.854 42.4604 43.8115 42.012C43.8076 41.8149 44.1014 41.7028 43.9584 41.467C43.0307 42.043 42.0876 42.588 41.1406 43.133C40.6883 43.3919 41.3686 43.5968 41.3184 43.8828C39.9539 45.2048 38.2223 45.6106 36.4249 45.8464C35.9804 45.3207 35.4548 45.4444 34.8672 45.5797C33.8429 45.8155 32.8264 45.6261 32.4205 44.5747C31.9953 43.477 33.0119 42.9629 33.727 42.5029C34.7242 41.869 35.6287 40.953 36.9545 40.9993Z" fill="#FCF2CE"/>
<path d="M35.0304 47.9603C37.4269 46.4722 40.3297 46.2132 42.7455 44.7251C43.6732 44.153 44.5892 43.5771 45.4667 42.9355C46.0001 43.6583 46.2745 42.6108 46.8272 42.7306C46.8659 44.6053 44.5661 45.0962 44.4385 47.0327C45.7643 45.8538 46.9703 44.7831 48.1801 43.7124C48.354 43.9134 48.47 44.1298 48.4004 44.4081C47.7394 47.0906 43.677 50.2486 40.8361 50.2872C39.1895 49.1934 36.8703 49.9857 35.4208 48.3469C35.0111 48.4976 34.9454 48.3043 35.0304 47.9603Z" fill="#FBF0C8"/>
<path d="M40.8361 50.2872C44.3535 49.29 47.0583 47.3886 48.1754 43.7127C49.4393 43.3881 48.8518 44.1418 48.6817 44.6056C47.1472 48.8149 41.8673 51.8839 37.7082 50.8751C38.6977 50.2837 39.9316 51.1376 40.8361 50.2872Z" fill="#F1E0B6"/>
<path d="M35.0301 47.9593C35.1576 48.0869 35.289 48.2183 35.4166 48.3458C35.1576 48.6009 34.8987 48.8599 34.6397 49.115C34.2802 49.3624 33.8512 49.4513 33.4685 49.6446C32.9544 49.6407 32.4597 49.432 31.9379 49.5093C31.2305 49.6252 30.4072 49.9692 30.3917 48.7246C30.1328 48.1062 30.3106 47.6037 30.8015 47.1863C30.9213 47.1901 31.0411 47.194 31.1571 47.1978C32.0036 47.7351 33.0201 47.0664 33.8705 47.5766C34.257 47.7003 34.6435 47.8279 35.0301 47.9593Z" fill="#F9E8B9"/>
<path d="M31.9381 49.5114C32.4522 48.7963 32.974 49.3258 33.4958 49.5036C34.6361 49.3104 35.5753 49.9211 36.5726 50.2844C34.8293 51.2276 33.4185 50.1723 31.9381 49.5114Z" fill="#F1E0B6"/>
<path d="M36.5718 50.2795C35.4586 50.3607 34.4768 49.9355 33.495 49.4987C33.58 48.4744 34.1521 48.919 34.643 49.1161C35.4276 49.4253 36.2123 49.7345 36.9969 50.0437C36.9738 50.094 36.966 50.1752 36.9274 50.1906C36.8153 50.2332 36.6916 50.2525 36.5718 50.2795Z" fill="#FBF0C8"/>
<path d="M46.6176 40.6081C46.3586 40.6313 45.6629 41.0217 46.0881 40.3182C46.7799 39.1702 47.7231 38.173 48.558 37.1139C48.3686 38.5286 47.437 39.5374 46.6176 40.6081Z" fill="#E7D8B2"/>
<path d="M30.8011 47.1833C30.8552 47.7476 30.689 48.254 30.3914 48.7217C30.2638 48.7294 30.1324 48.741 30.0048 48.7487C29.0501 47.6394 28.8762 46.8354 30.7547 46.8432C30.7624 46.9591 30.7779 47.0712 30.8011 47.1833Z" fill="#D4C1A1"/>
<path d="M29.6384 41.7903C28.877 41.0946 29.739 40.8313 30.0096 40.4216C30.369 39.8844 31.1923 39.5597 30.7788 38.6784C30.8792 37.0975 31.5286 35.7137 32.3326 34.3918C33.4497 32.8805 33.3105 31.0522 33.5927 29.3322C33.7473 28.3813 33.6777 27.2526 35.0576 27.0903C35.9543 31.8485 35.4055 36.3012 32.3326 40.2322C31.6021 41.0401 30.4965 41.1989 29.6384 41.7903Z" fill="#F3E6E5"/>
<path d="M32.3396 40.2381C34.2684 36.6279 35.4318 32.8361 35.0376 28.6848C34.9835 28.1282 35.1497 27.5175 34.6704 27.0575C33.6499 25.2872 33.534 23.2 32.6527 21.3833C31.841 18.8554 30.608 16.4628 30.1944 13.8074C30.0823 13.0768 29.7576 12.3115 30.407 11.6544C31.0563 11.1674 30.5191 10.3131 31.0834 9.60194C31.3346 11.6853 30.8322 13.7378 31.9183 15.5351C32.8537 18.237 33.7582 20.9504 34.7361 23.6367C35.9227 26.8952 35.9305 30.2618 35.799 33.6517C35.4937 35.8935 34.1795 37.7489 33.4644 39.8361C33.0856 39.9675 32.7107 40.1028 32.3396 40.2381Z" fill="#CBB1CA"/>
<path d="M36.9545 40.9993C35.9302 41.6448 34.8872 42.2594 33.8861 42.9436C33.3526 43.3069 32.3979 43.6161 32.7419 44.4201C33.1439 45.3594 34.1605 45.4946 35.0572 45.1274C35.7259 44.853 36.3714 44.1457 36.1782 45.6261C35.8689 46.0242 35.3896 46.0049 34.9645 46.117C33.8629 46.1865 32.7613 46.229 31.6635 46.0822C30.8364 45.8503 29.9358 45.8193 29.24 45.2163C28.981 45.0965 28.7221 44.9767 28.4631 44.8569C29.669 42.1937 32.1622 41.2351 34.6089 40.2108C35.1577 40.5703 34.4311 40.8254 34.5509 41.2042C35.3703 41.5289 36.0848 39.9828 36.9545 40.9993Z" fill="#FDF8E0"/>
<path d="M29.2479 45.212C30.0133 45.3589 30.7786 45.5058 31.5439 45.6527C32.6494 46.0431 33.7974 45.7416 34.9222 45.8459C35.2623 45.8885 35.5329 45.9851 35.4246 46.418C33.8785 47.1563 32.3286 46.7813 30.7824 46.4141C30.6046 45.587 28.9387 46.6576 29.2479 45.212Z" fill="#E4D1A9"/>
<path d="M15.7495 30.2035C15.734 30.4508 15.7147 30.6982 15.6992 30.9495C15.5949 31.6259 15.0576 29.9252 14.9416 31.1118C14.7947 32.6231 14.1376 34.0339 13.8903 35.5414C13.813 36.013 13.7704 36.7396 13.1559 36.6855C12.5645 36.6353 12.5915 35.9511 12.607 35.437C12.6186 35.1201 12.6147 34.8031 12.6186 34.4862C12.9587 30.3503 14.7831 26.7518 16.4684 23.7021C14.0951 27.4668 12.5181 32.0665 12.3364 37.1068C12.3171 37.6789 12.2862 38.4983 11.7219 38.6066C10.9449 38.7534 10.8251 37.876 10.5855 37.3078C9.85106 35.5607 10.1641 33.7788 10.5584 32.0472C10.9681 30.246 11.3044 28.4061 11.9499 27.347C11.2464 29.1482 10.3613 31.564 10.253 34.1847C10.2337 34.6717 10.0095 35.0428 9.51478 35.2013C8.96978 34.6408 8.23151 34.1924 8.33587 33.2416C7.58215 30.8219 8.58712 28.6805 9.51865 26.5856C12.1625 20.6794 16.5882 16.4895 22.2895 13.5673C22.9157 14.1587 22.2238 14.2708 21.9416 14.5298C19.1973 17.0615 16.6771 19.802 14.215 22.6005C13.9598 22.8904 13.6854 23.1764 13.9714 23.818C15.1117 22.5966 16.3177 21.5143 17.2608 20.2388C18.1498 19.0328 19.2128 18.0278 20.2332 16.9649C21.184 15.9754 22.1581 14.897 23.0432 17.0306C23.3756 17.6645 23.0046 18.1709 22.6722 18.6154C20.7782 21.1587 19.5838 24.0963 17.9604 26.7943C17.1564 27.8843 17.1178 29.4768 15.7495 30.2035Z" fill="#FAF3F0"/>
<path d="M7.61754 31.7491C7.48999 32.8893 7.35857 34.0257 7.23102 35.1621C7.20782 35.5332 7.18463 35.9004 7.16144 36.2714C6.86381 33.4614 6.84835 30.6436 6.4309 27.8529C6.48502 25.7231 7.87265 24.1731 8.55294 22.7159C7.52478 23.7673 7.28513 25.7193 6.04438 27.0837C5.47232 28.3631 4.89639 29.6386 4.30887 30.9567C3.9378 30.4581 4.21224 29.8899 4.10014 29.3835C3.48557 25.8932 5.19015 23.1682 7.18077 20.6287C8.03113 19.5425 8.96266 18.4139 10.3078 17.8186C13.1294 15.8976 16.1675 14.3631 19.1863 12.7899C19.4375 14.0616 18.104 13.9263 17.5938 14.5332C16.8362 15.4376 17.2034 15.5381 18.077 15.5149C18.2664 16.3537 17.5552 16.6088 17.0913 16.9992C12.8241 20.5823 9.54631 24.8148 8.2785 30.3808C8.16641 30.8678 7.97701 31.3587 7.61754 31.7491Z" fill="#F9F0F0"/>
<path d="M7.61727 31.7503C8.48696 25.6277 11.9 21.0241 16.4185 17.097C16.9983 16.5907 17.6399 16.1655 18.0728 15.5123C20.4036 14.5112 22.2435 12.8955 23.7741 10.9126C24.2418 10.3057 24.6747 9.68343 25.355 9.29691L25.3898 9.32783C25.0806 11.2682 23.403 12.2113 22.2937 13.568C17.9105 16.6796 13.6007 19.88 10.9685 24.7464C9.53831 27.3941 8.33621 30.1385 8.34781 33.2423C8.23185 33.2616 8.11975 33.2809 8.0038 33.3041C7.89557 32.7823 8.17 32.1639 7.61727 31.7503Z" fill="#D2BBD3"/>
<path d="M17.6286 26.6922C19.109 23.2907 21.1151 20.1792 23.0477 17.029C25.3166 14.1223 26.3989 10.601 28.0571 7.37739C28.1847 7.37739 28.3122 7.37739 28.4398 7.37352C28.7567 9.42598 27.5508 11.0571 26.8318 12.7888C25.8462 15.1582 24.389 17.2995 23.1057 19.5221C21.834 21.4547 20.6087 23.4105 19.5071 25.4475C19.1438 26.1162 18.7921 26.8274 18.0461 27.1908C17.7291 27.1714 17.4779 27.098 17.6286 26.6922Z" fill="#D1B8D3"/>
<path d="M25.3514 9.29507C25.4828 8.63024 25.6606 7.99634 26.4027 7.55569C26.6308 8.54907 25.9853 8.924 25.3823 9.32212C25.3861 9.32599 25.3514 9.29507 25.3514 9.29507Z" fill="#D2BBD3"/>
<path d="M10.3038 17.8194C7.96533 20.3202 5.49542 22.7244 4.57935 26.2109C4.30105 27.2623 4.02662 28.2943 4.09619 29.3882C3.98023 29.4036 3.86411 29.4269 3.75202 29.4578C3.61287 28.8123 3.98796 28.0701 3.38498 27.5135C4.3513 23.3738 6.45787 19.9724 9.92116 17.4522C10.0448 17.572 10.1724 17.6957 10.3038 17.8194Z" fill="#D2BAD5"/>
<path d="M4.88908 21.298C4.21652 20.6989 4.8195 20.1886 5.1094 19.8098C7.22757 17.0346 9.97578 15.1754 13.3849 14.3405C12.063 15.5503 10.2695 15.9368 8.84325 17.0384C7.26235 18.2599 5.96749 19.6552 4.88908 21.298Z" fill="#EBE1E2"/>
<path d="M22.7039 19.3812C24.8839 15.5082 27.1876 11.6932 28.4399 7.37571C28.8497 7.1322 28.6177 5.9185 29.6304 6.5872C29.6266 6.98145 29.6266 7.37571 29.6227 7.76997C30.1832 9.49002 28.9115 10.9472 28.9424 12.5938C28.467 14.8164 28.3665 17.0853 28.0495 19.3271C26.7083 19.9378 26.171 21.1052 25.8966 22.458C25.3632 24.0737 25.3477 25.8942 24.0065 27.1852C23.5697 27.1118 23.3919 26.7678 23.2141 26.4238C22.6884 25.0632 23.6547 24.0157 24.0181 22.6783C23.5001 23.0339 23.3648 23.6794 22.7773 23.7335C22.4951 23.691 22.2903 23.5326 22.1357 23.3006C21.7182 21.9053 23.3378 20.8075 22.7039 19.3812Z" fill="#F5EBEC"/>
<path d="M32.3279 15.1096C32.8497 14.7154 32.7492 15.5503 33.097 15.5C34.0402 17.5409 35.8066 19.1218 36.3245 21.4062C34.9678 19.3189 33.1164 17.5563 32.3279 15.1096Z" fill="#E7DADE"/>
<path d="M39.2663 28.6499C39.1387 28.7736 39.0151 28.9012 38.8875 29.0248C38.1067 27.672 38.1961 25.9205 36.963 24.7687C36.6886 24.015 36.4137 23.2617 36.1354 22.5119C36.2862 22.45 36.4369 22.3882 36.5838 22.3263C37.813 24.2744 38.702 26.3849 39.2663 28.6499Z" fill="#E1D1DB"/>
<path d="M30.4031 11.6494C30.4959 15.0856 32.2159 18.0696 33.0817 21.2932C31.4699 21.7841 32.1232 20.1646 31.4699 19.5191C31.8603 20.0331 31.7444 20.4544 31.7482 20.8564C31.6361 21.1193 31.4467 21.2971 31.1878 21.4053C30.1673 20.7559 30.1673 20.7559 28.8338 21.7029C28.4164 21.4014 28.5091 20.9415 28.4743 20.524C27.7245 19.3413 28.0028 18.0193 28.1767 16.8095C28.3197 15.8045 28.4318 14.7996 28.5053 13.7907C29.0696 11.9277 29.0735 9.91385 30.032 8.15902C30.1751 8.03146 30.2987 7.82274 30.4611 7.78795C30.9288 7.68745 30.7626 8.08171 30.6969 8.22859C30.1982 9.33792 30.4495 10.5052 30.4031 11.6494Z" fill="#F5EBEC"/>
<path d="M30.0359 8.1604C29.6455 9.96549 29.2513 11.7706 28.8609 13.5795C28.4318 13.2935 28.8493 12.7214 28.4705 12.4199C28.5633 10.8004 29.259 9.32771 29.6223 7.77388C29.7615 7.90143 29.8968 8.02898 30.0359 8.1604Z" fill="#D5C0D6"/>
<path d="M25.3711 22.0666C25.6571 21.3825 25.9818 20.7138 26.2137 20.0141C26.5732 18.928 27.1105 19.0749 27.7676 19.7204C28.3551 19.7938 28.3435 20.1069 28.0807 20.5166C28.2546 25.9744 27.9415 31.3549 25.7847 36.4879C24.9807 38.4012 24.0031 40.1493 22.2947 41.3977C21.4984 40.5165 22.7041 40.3339 22.8509 39.785C22.9862 39.2748 24.0298 38.61 22.6538 38.293C22.1436 37.2146 23.0481 36.4995 23.3998 35.6878C24.7874 32.499 24.9962 29.0164 26.0127 25.7154C25.8465 26.044 25.8543 26.5928 25.2513 26.2836C24.8145 25.5415 24.9614 24.7916 25.2629 24.0727C25.5412 23.404 25.7692 22.7585 25.3711 22.0666Z" fill="#F7EEEB"/>
<path d="M15.6878 35.1699C15.9623 33.7745 16.2328 32.3753 16.5073 30.9799C16.832 30.1721 16.4338 29.0859 17.4388 28.5371C18.3549 28.7381 19.271 28.9352 19.4449 30.0948C18.7375 32.1936 18.5134 34.4587 17.2456 36.3604C17.0098 35.5951 16.1169 35.6878 15.6878 35.1699Z" fill="#FAF0EE"/>
<path d="M22.6688 23.6118C23.1403 22.8852 23.6119 22.1624 24.2188 21.227C25.2547 23.291 22.9857 24.6013 23.4302 26.3098C23.4766 27.5042 23.3297 28.6212 22.2668 29.3981C21.9421 29.8504 21.6174 30.3026 21.0879 31.0332C21.1265 29.9122 21.0106 29.0619 20.7246 28.2463C20.5622 26.3639 21.2734 24.8449 22.6688 23.6118Z" fill="#FCF8F5"/>
<path d="M25.3705 22.0658C26.3716 23.4843 24.9067 24.9068 25.3782 26.3253C25.8343 28.4242 25.1502 30.295 24.2032 32.1078C23.7741 32.2894 23.6118 32.7185 23.3296 33.0393C22.3633 34.137 22.3131 33.2983 22.2744 32.4982C22.2512 30.5423 22.6725 28.7102 23.8244 27.0906C24.5665 25.4866 25.2468 23.8631 25.3705 22.0658Z" fill="#FBF5F1"/>
<path d="M23.8282 27.0958C23.3103 28.897 22.7923 30.6982 22.2783 32.5033C21.2037 34.7916 21.0762 37.4277 19.6267 39.6C19.2672 40.1411 19.0082 40.6977 18.413 41.0069C19.6383 37.5166 20.8713 34.0262 22.085 30.5282C22.2087 30.1764 22.2126 29.7822 22.2705 29.4034C22.6571 28.3752 23.0436 27.3432 23.434 26.315C23.7471 26.4812 23.8166 26.775 23.8282 27.0958Z" fill="#EFE1E3"/>
<path d="M22.6688 23.6118C22.0233 25.1579 21.3781 26.7042 20.7326 28.2465C19.2793 31.3426 18.5333 34.6783 17.5863 38.0643C17.022 37.4613 17.3499 36.8783 17.2456 36.3604C17.8911 34.1688 18.5372 31.9803 19.1827 29.7887C19.5885 27.3033 20.2804 24.9533 22.2749 23.2139C22.4063 23.3492 22.5374 23.4804 22.6688 23.6118Z" fill="#E4D2DB"/>
<path d="M24.2036 32.1134C24.277 30.1189 25.4559 28.3525 25.3786 26.3309C25.8038 26.0758 25.7187 25.5617 26.0357 24.6882C26.3526 27.5021 25.6646 29.6899 25.0771 31.8312C24.4703 34.0422 23.4771 36.1439 22.6538 38.293C22.1436 38.6795 21.6293 39.0709 21.1191 39.4574C22.2632 37.0571 23.5928 34.7379 24.2036 32.1134Z" fill="#E6D7DF"/>
<path d="M18.4129 41.0027C18.2004 41.4897 17.8332 41.8144 17.3539 42.0927C17.3693 40.8752 17.3693 40.8752 18.4129 41.0027Z" fill="#EFE1E3"/>
<path d="M21.1191 39.4574C21.0765 40.331 20.4504 40.7245 19.542 41.4009C19.9054 40.28 20.5006 39.8594 21.1191 39.4574Z" fill="#E6D7DF"/>
<path d="M6.04022 27.0868C6.8558 24.8681 7.89169 22.777 9.63879 21.0956C8.68793 23.4109 7.11477 25.4247 6.42675 27.8521C6.11366 27.6898 6.05568 27.3999 6.04022 27.0868Z" fill="#E1D1DF"/>
<path d="M9.52264 35.2044C9.91304 33.4032 10.3112 31.602 10.69 29.7969C10.9644 28.4788 11.4553 27.2651 12.4332 26.2177C11.6447 30.2298 9.31006 34.1299 11.6176 38.2928C12.0157 32.29 13.8208 26.8129 17.4271 21.962C15.7728 26.0553 13.2256 29.8356 12.9975 34.4314C12.2245 35.6567 13.5889 37.0945 12.6149 38.3005C11.8148 39.0813 12.495 40.1442 12.0699 41.1569C10.458 39.4214 10.1991 37.2182 9.52264 35.2044Z" fill="#EBDCE1"/>
<path d="M12.6152 38.2975C12.7853 37.0142 12.2248 35.6536 12.9979 34.4283C12.9979 35.0545 12.9979 35.6768 12.9979 36.303C13.5274 34.0534 14.2734 31.9159 14.9382 29.7127C15.5644 29.9871 15.147 30.7447 15.6958 30.9496C15.1817 33.2688 14.6715 35.5918 14.1575 37.911C13.9023 38.1699 13.6472 38.425 13.396 38.684C13.0558 38.7188 12.8278 38.5255 12.6152 38.2975Z" fill="#F5ECE9"/>
<path d="M12.6157 38.2959C12.9365 38.3036 13.2264 38.3732 13.3964 38.6824C13.7868 39.5676 13.6516 40.4952 13.7752 41.8404C12.6195 40.5919 12.6118 39.4439 12.6157 38.2959Z" fill="#EBDCE1"/>
<path d="M17.6323 28.6307C17.2574 29.4153 16.8825 30.2 16.5076 30.9846C16.465 30.5169 16.2718 30.2 15.7461 30.2077C16.5501 29.1332 16.666 27.6876 17.6246 26.6942C17.756 26.8256 17.8875 26.9609 18.0227 27.0923C18.2856 27.703 18.1078 28.2055 17.6323 28.6307Z" fill="#DDC9DA"/>
<path d="M31.5556 20.9043C31.5595 20.5217 31.5517 20.1352 31.5672 19.7525C31.5711 19.6327 31.629 19.5128 31.6909 19.2848C32.1779 19.996 31.9228 21.1749 33.0824 21.2947C33.9482 23.123 34.5744 25.017 34.6671 27.0579C33.7588 29.4466 34.0564 32.0982 33.0321 34.4599C33.0128 34.5024 32.92 34.5333 32.8698 34.5256C32.8118 34.5217 32.7616 34.4637 32.7113 34.4289C32.031 33.2036 32.6301 31.9397 32.6495 30.7067C32.6727 29.149 32.7654 27.5951 32.6495 26.4897C32.8041 27.2743 32.7036 28.5189 32.6959 29.7597C32.6881 30.1346 32.576 30.4941 32.4098 30.8226C32.0465 31.5338 31.3314 32.2141 32.2939 32.9911C32.1238 33.652 32.2668 34.4173 31.6406 34.9237C30.7748 35.3102 30.0056 35.4957 30.052 34.1042C30.3187 33.1573 30.311 32.1561 30.6318 31.2208C31.0454 28.5885 30.8251 25.9524 30.6782 24.3792C30.8676 25.5427 30.9024 27.7652 30.7825 29.9955C30.2994 32.6238 30.0868 35.3257 28.5755 37.6642C28.1232 38.3638 27.7908 39.1484 26.9173 39.4422C26.3993 39.0518 26.2215 38.4875 26.1288 37.8806C26.1326 36.7094 26.9211 35.8398 27.3115 34.8193C28.3629 34.1352 27.6362 32.9524 28.073 32.0943C27.9493 31.2749 28.3126 30.5443 28.502 29.7829C28.904 29.1799 28.4363 28.43 28.8383 27.827C28.846 27.1931 28.8538 26.5592 28.8615 25.9253C29.1785 24.6382 29.1746 23.3511 28.8654 22.0639C28.8499 21.9441 28.8422 21.8243 28.8422 21.7006C28.7881 20.5758 30.682 20.1815 29.4452 18.6702C31.4242 19.0877 29.7814 20.9391 31.1652 21.287C31.9189 22.091 31.9846 23.0766 31.9421 24.0004C32.2707 22.9877 31.3933 22.0021 31.5556 20.9043Z" fill="#F8F0ED"/>
<path d="M32.3281 30.1836C32.3281 28.5332 32.3281 26.8788 32.3281 25.2284C33.449 28.2665 33.2287 31.3471 32.7069 34.4354C31.8875 35.7728 31.7831 37.431 30.782 38.6872C30.3916 38.8148 29.9973 38.9462 29.6069 39.0738C29.8311 37.4619 30.5965 36.0975 31.5473 34.822C31.6787 34.3079 31.8102 33.7938 31.9454 33.2836C32.4131 32.2863 31.7097 31.1538 32.3281 30.1836Z" fill="#E0CCD9"/>
<path d="M30.7978 31.3402C30.6625 32.3683 30.5233 33.3965 30.388 34.4285C30.3107 36.968 28.8265 38.804 27.2997 40.6207C26.8745 40.8333 26.4493 41.0459 25.9816 41.2817C25.7574 40.3153 26.7856 40.1143 26.9093 39.4456C28.7685 36.6279 30.1638 33.6323 30.4035 30.1999C31.3698 30.2888 30.8905 30.8841 30.7978 31.3402Z" fill="#E5D5DA"/>
<path d="M27.2997 40.6207C28.3085 38.545 29.615 36.6201 30.388 34.4285C30.4344 35.5765 31.3422 34.1497 31.547 34.8184C31.2455 36.3954 30.5575 37.7908 29.6067 39.0702C28.5128 39.1011 28.181 40.2689 27.2997 40.6207Z" fill="#F3E8E7"/>
<path d="M28.0839 20.5166C27.9795 20.2499 27.8751 19.9871 27.7708 19.7204C27.593 17.2466 27.9679 14.8231 28.4742 12.415C28.9265 12.6933 28.8067 13.1649 28.8646 13.5746C28.7371 15.8899 28.6095 18.209 28.482 20.5243C28.3467 20.5243 28.2153 20.5205 28.0839 20.5166Z" fill="#C0A1C3"/>
<path d="M28.0644 32.0979C28.076 32.9521 28.4355 33.7715 28.2113 34.6644C27.9833 35.5843 27.5967 34.761 27.2991 34.8229C27.3803 33.8643 27.5697 32.9366 28.0644 32.0979Z" fill="#F5EBEC"/>
<path d="M28.8567 22.07C29.4442 23.3572 29.4481 24.6443 28.8528 25.9314C28.8567 24.6404 28.8567 23.3572 28.8567 22.07Z" fill="#F5EBEC"/>
<path d="M28.8307 27.8296C28.7689 28.4905 29.0935 29.2172 28.4944 29.7854C28.5253 29.1167 28.2934 28.4055 28.8307 27.8296Z" fill="#F5EBEC"/>
<path d="M42.3852 37.1379C41.7088 38.1043 40.6342 38.514 39.6718 39.0822C39.9076 37.5013 41.1213 37.2848 42.3852 37.1379Z" fill="#FDFAE8"/>
<path d="M44.685 35.9706C44.1594 36.2025 43.8198 36.8019 43.1511 36.7555C43.6497 36.4772 43.5602 35.0391 44.685 35.9706Z" fill="#FDFAE8"/>
<path d="M29.6264 1.97984C29.754 2.23494 29.8815 2.49005 30.0091 2.74516C29.5066 2.75676 29.2478 3.01567 29.2362 3.51816C28.5868 2.98475 28.9461 2.24267 28.8379 1.59717C29.1626 1.59331 29.4525 1.66288 29.6264 1.97984Z" fill="#E5D1D8"/>
<path d="M35.4246 46.418C35.2894 46.2827 35.1542 46.1511 35.019 46.0158C34.8991 45.9269 34.8644 45.8418 34.9107 45.7645C34.9571 45.6872 34.9996 45.6486 35.0422 45.6486C35.421 45.6409 35.8036 45.6331 36.1824 45.6254C37.945 45.2041 39.7191 44.8176 41.2227 43.7159C41.8528 42.7303 42.8461 42.3747 43.9245 42.166C44.8909 42.3013 44.3768 42.7458 44.0366 42.9738C41.4044 44.7093 38.714 46.3252 35.4246 46.418Z" fill="#EEDEB4"/>
<path d="M43.9239 42.1625C43.2089 42.9974 42.1807 43.295 41.2221 43.7124C40.8047 43.6428 40.3331 43.8632 39.7301 43.2834C41.6318 42.6572 42.8996 41.0067 44.9714 40.8908C45.157 41.9228 44.1172 41.6368 43.9239 42.1625Z" fill="#FBF6DF"/>
<path d="M33.8741 47.5706C33.0006 47.2227 31.9299 48.2934 31.1607 47.1918C32.0613 47.331 33.0547 46.8323 33.8741 47.5706Z" fill="#FBF0C8"/>
<path d="M35.0411 45.6484C35.0372 45.7721 35.0295 45.8958 35.0179 46.0156C33.8622 45.8842 32.6416 46.3677 31.5439 45.6527C32.7074 45.6527 33.8738 45.6484 35.0411 45.6484Z" fill="#FCF2CE"/>
<path d="M18.753 20.1455C19.3598 18.5955 20.187 17.7181 21.2886 17.0455C20.5696 18.0041 20.2102 19.2217 18.753 20.1455Z" fill="#ECE1E3"/>
<path d="M14.8879 16.8482C14.8802 17.3507 14.5517 17.8571 14.1961 17.8918C13.0713 18.0001 12.2325 18.5412 11.4401 19.2563C11.3628 19.3259 11.0459 19.2524 10.9492 19.1481C10.8603 19.0553 10.8449 18.7267 10.926 18.6649C12.0083 17.7991 13.1138 16.9526 14.4048 16.4153C14.6522 16.3109 14.8493 16.5583 14.8879 16.8482Z" fill="#EFE3E6"/>
<path d="M17.6323 28.6307C17.5782 28.0702 17.7599 27.5716 18.0227 27.0923C19.5534 24.5064 20.8986 21.8076 22.6998 19.3841C23.5154 19.7977 23.5077 20.389 23.1366 21.1312C22.8003 21.8037 22.5568 22.5265 22.2708 23.2261C21.2387 25.4178 20.2106 27.6094 19.1785 29.801C18.9312 29.055 17.6555 29.6743 17.6323 28.6307Z" fill="#FCF7F5"/>
<path d="M31.5553 20.9029C31.9534 21.9194 32.5139 22.9128 31.8529 24.1265C31.6249 23.1834 31.393 22.2402 31.1649 21.2933C31.2925 21.1618 31.4239 21.0343 31.5553 20.9029Z" fill="#E9DEE0"/>
<path d="M30.7978 31.3402C30.7591 30.9266 30.8519 30.4666 30.4035 30.1999C30.4035 27.7841 30.4034 25.3713 30.4034 22.9555C31.1339 25.7307 31.6095 28.5108 30.7978 31.3402Z" fill="#F3E8E7"/>
<path d="M32.3281 30.1836C32.1735 31.2118 32.6879 32.3205 31.9419 33.2752C31.08 32.1195 31.5512 31.1345 32.3281 30.1836Z" fill="#F3E8E7"/>
</svg>
