<svg width="48" height="65" viewBox="0 0 48 65" fill="none" xmlns="http://www.w3.org/2000/svg">
<path d="M0.916781 49.7412C0.878532 48.9838 0.95078 48.2523 1.35452 47.5901C2.88022 48.3086 2.36599 45.9585 3.5092 46.1056C3.53895 45.7074 3.17771 45.8546 3.00772 45.7464C2.53598 45.4521 2.23424 45.1275 2.61673 44.5518C4.97116 38.5445 8.22656 33.0219 11.5075 27.5122C14.5759 22.3531 17.5253 17.0989 21.7412 12.7838C23.7853 10.689 26.0378 8.8409 29.0042 8.23064C29.3399 8.60285 29.5609 9.04432 29.7309 9.51608C30.2749 11.1348 31.5839 12.087 32.7781 13.1343C33.1648 13.4719 33.866 13.5628 33.6748 14.3462C33.1946 14.779 32.5868 14.831 31.9919 14.9262C30.8146 14.8915 29.9562 14.1168 28.9744 13.6018C28.2137 13.2036 27.572 12.3423 26.5393 12.8011C25.3876 13.2902 25.4598 14.502 25.0518 15.4282C24.9583 15.6013 24.8436 15.7615 24.7161 15.9086C23.6324 17.22 22.5656 18.5228 20.5639 17.7524C20.1857 17.6052 19.7905 17.9601 19.5652 18.341C19.6077 19.1893 20.6872 19.4187 20.6829 20.2843C20.7679 21.2278 19.442 22.0069 20.5427 23.1625C20.9889 23.6299 20.173 24.1666 19.578 24.0627C18.609 23.8939 18.235 24.6427 17.6783 25.1318C16.8921 25.4564 16.0038 24.6773 15.2516 25.3698C14.9286 25.5213 14.5886 25.6382 14.3549 25.9714C14.4186 26.4302 14.7629 25.9974 14.9031 26.1229C16.1866 27.2612 17.98 26.4085 19.357 27.3651C20.156 27.919 20.9337 27.0361 21.6902 26.7505C22.4509 26.4648 23.1734 25.9065 23.3391 27.2915C23.4624 28.3216 24.3931 29.6286 22.5019 30.0138C22.2979 30.0571 22.0769 30.0138 21.8644 30.0138C21.5924 30.0138 21.2737 29.9576 21.2014 30.3471C21.1759 30.4856 21.2567 30.6198 21.3672 30.7193C21.7922 31.1132 21.8304 30.6414 22.0896 30.464C23.4836 29.5161 24.8011 28.2956 26.569 30.0831C27.6145 31.1435 28.609 33.6105 28.099 35.2508C28.8002 35.5191 29.4589 35.5062 30.0582 34.9911C30.7296 34.6881 31.2014 35.1556 31.7241 35.4412C32.0429 35.6144 32.3531 35.7918 32.3488 35.1729C32.3148 34.5929 32.2936 34.0216 32.5231 33.4763C32.6251 33.2945 32.7738 33.169 32.9651 33.0954C33.4751 32.9526 33.6833 33.42 33.9893 33.6408C35.0815 31.5546 32.9863 31.1002 32.1958 29.9273C31.3714 30.7626 30.7806 31.7883 29.7862 32.364C28.7407 32.9699 27.7547 32.4635 27.9927 31.3339C28.4432 29.2131 26.9473 28.9837 25.668 28.486C25.1198 28.2739 24.2188 28.5639 24.1891 27.6507C24.1636 26.7981 25.0136 26.2917 25.617 26.3263C27.1682 26.4215 28.3752 25.491 29.7734 25.1967C30.7466 25.214 31.4181 25.9541 32.3828 26.3263C32.0853 24.9673 31.3756 24.3311 30.0879 23.9935C28.7492 23.6386 27.4062 23.0976 26.416 21.9939C26.0505 21.626 25.5873 21.4745 25.1071 21.3274C24.4823 21.137 23.4241 21.3577 23.4624 20.3969C23.4964 19.5053 24.3633 18.6916 25.1751 18.7479C26.8963 18.8604 27.776 18.2112 28.1712 16.5492C28.3582 15.7615 28.9872 15.623 29.6799 16.0385C30.5256 16.5449 31.4564 16.8608 32.2341 17.536C34.3123 19.3365 34.1805 20.3752 31.6136 21.5914C34.3038 20.4661 34.3038 20.4661 35.6722 21.8814C35.7402 21.9463 35.7147 21.89 35.5872 21.7169C34.9073 20.8037 33.2881 19.8082 34.4823 18.7262C36.0122 17.3369 36.4925 19.7044 37.4954 20.1718C37.2914 19.687 36.4882 19.0854 37.2829 18.4752C37.9714 17.9472 38.6174 18.4882 39.1614 18.9686C40.1941 19.8775 40.8316 20.9335 40.1431 22.4224C40.9846 21.1067 41.0483 19.6654 41.2268 18.2501C41.8388 18.1506 42.336 17.8909 42.5783 17.2633C43.679 19.6221 42.6378 21.8554 41.7411 23.8074C38.9701 29.8407 35.4895 35.4802 31.7794 40.9725C27.5082 47.2958 23.1904 53.5759 17.657 58.8431C14.2954 62.0416 10.598 64.6211 5.62564 64.0325C5.05616 64.0974 4.43143 64.0801 4.33368 64.8851C2.22149 65.3829 0.738286 64.2186 1.18877 62.2537C1.46076 61.0634 0.967779 60.1502 0.661788 59.1461C-0.298683 55.9866 -0.213686 52.8487 0.916781 49.7412C1.17177 49.9489 1.38002 50.2086 1.60951 50.451C1.63501 50.1827 1.63076 49.8494 1.54576 49.659C1.43102 49.3906 1.18877 50.0658 0.916781 49.7412Z" fill="#FDF3E2"/>
<path d="M42.1448 12.9785C41.5243 13.7013 41.9706 14.4111 42.1745 15.1209C41.7921 16.1553 41.2566 15.4239 40.9123 15.1556C39.9774 14.4371 39.0254 13.7792 37.8864 13.4546C37.6952 13.4027 37.5082 13.3334 37.3254 13.2642C36.1227 12.7968 34.9115 12.3466 33.8788 11.5286C32.6718 10.5245 31.7836 9.45981 33.2371 7.95797C33.6196 7.77186 34.0275 7.71993 34.4483 7.74157C34.9668 7.78052 35.4342 7.97095 35.855 8.27392C36.5052 8.85388 37.3339 9.13521 38.0522 9.60697C38.6769 10.0311 39.3059 10.4553 39.8456 10.9963C40.4661 11.8273 41.4223 12.2644 42.1448 12.9785Z" fill="#C9D776"/>
<path d="M34.5078 8.18303C34.087 8.1787 33.6706 8.17437 33.2498 8.17004C33.0968 8.16139 32.9693 8.09647 32.8631 7.98394C32.8376 7.91469 32.8121 7.84111 32.7866 7.77186C32.7781 6.00601 32.7526 4.23583 32.7696 2.46997C32.7781 1.626 32.7313 0.738742 33.8788 0.49637C34.9413 0.27131 35.4215 0.669493 35.583 1.7342C35.6637 2.27521 36.1992 2.18432 36.6115 2.14969C36.739 2.49594 36.5647 2.75562 36.365 3.00665C35.6042 3.86361 35.9187 5.01055 35.5915 5.99302C35.3323 6.78939 35.2005 7.62038 34.5078 8.18303Z" fill="#95BB48"/>
<path d="M36.195 2.62145C36.3352 2.46132 36.4755 2.30551 36.6157 2.14537C37.4189 -0.451478 38.1414 -0.633257 40.0284 1.28841C40.1601 2.39639 39.8244 3.36588 39.1869 4.24881C38.5027 4.96294 38.1754 5.90213 37.6697 6.72447C37.2447 7.42129 36.841 8.25661 35.7615 7.7935C34.9285 5.9887 35.7317 4.32239 36.195 2.62145Z" fill="#84AD3C"/>
<path d="M39.5609 11.2819C39.0084 10.8318 38.4517 10.3774 37.8992 9.92724C37.7207 9.55936 37.9799 9.40788 38.2264 9.24774C40.0921 8.00558 41.5796 6.17913 43.7895 5.45201C44.104 5.53425 44.3547 5.7117 44.5715 5.94974C45.2387 6.70716 44.818 7.31742 44.3165 7.91902C44.3675 8.03155 44.3505 8.13109 44.2612 8.21765C43.475 9.55936 42.1873 10.1913 40.8401 10.7366C40.4193 10.94 40.0326 11.2127 39.5609 11.2819Z" fill="#99BF41"/>
<path d="M44.2612 6.0363C44.121 5.88915 43.9765 5.742 43.8363 5.59051C43.509 5.41306 43.1563 5.37411 42.795 5.38277C42.0258 5.48231 41.8388 6.4518 41.0823 6.57299C40.6318 6.39121 40.5468 6.00601 40.5426 5.5732C40.7126 4.65565 41.0993 3.90256 42.0386 3.58661C42.3828 3.54333 42.6845 3.6299 42.9353 3.88092C43.4283 4.10166 43.8745 4.47387 44.4695 4.03673C45.4597 3.30962 46.3904 3.23171 47.1087 4.46954C47.9204 5.87184 46.8197 6.33061 45.9697 6.92356C45.2005 7.03176 44.9285 6.14018 44.2612 6.0363Z" fill="#92B74F"/>
<path d="M39.5609 11.2819C39.7394 10.8491 40.0241 10.5288 40.4788 10.3947C40.7083 10.5202 40.9506 10.6241 41.1418 10.8102C42.7865 11.0309 43.9297 9.70651 45.396 9.39056C45.9909 9.29102 46.7262 8.94044 46.9472 9.85367C47.1129 10.5375 46.4584 10.7929 45.9909 11.0828C45.5192 11.3728 44.9667 11.5503 44.699 12.1086C43.849 12.3986 42.9948 12.6886 42.1448 12.9785C40.8401 13.1127 40.2026 12.1908 39.5609 11.2819Z" fill="#8AB241"/>
<path d="M42.1448 3.8766C41.3968 4.2012 41.2098 4.95861 40.8698 5.59917C40.7083 5.75498 40.5213 5.82856 40.3004 5.83289C39.3866 5.48664 38.8894 4.88937 39.1316 3.84197C39.4844 3.01531 39.4249 2.03716 40.0284 1.29706C40.1644 1.20617 40.3004 1.11528 40.4406 1.02872C41.0271 1.08499 40.3131 2.52191 41.4436 2.00254C41.8388 2.12805 42.1788 2.32282 42.3828 2.71234C42.5273 3.14082 42.472 3.53468 42.1448 3.8766Z" fill="#ABCB5A"/>
<path d="M44.699 12.1086C44.0147 10.4985 45.6382 10.9963 46.1482 10.4812C46.3777 10.2518 46.8579 10.1047 46.4797 9.73248C46.3522 9.60697 45.8634 9.85799 45.5404 9.9359C45.3365 9.48578 44.7457 9.78442 44.5162 9.38191C44.4355 9.10491 44.4525 8.85388 44.6905 8.65912C45.3067 8.52495 45.9144 8.33018 46.5392 8.26959C47.4954 8.17437 47.5761 9.00969 47.8609 9.65025C48.2009 10.4163 47.8864 10.8837 47.2574 11.2213C46.4499 11.6498 45.6424 12.0913 44.699 12.1086Z" fill="#95BB54"/>
<path d="M42.5825 17.272C42.7653 18.4968 42.0343 18.328 41.2948 18.1549C41.2056 18.1766 41.1163 18.2025 41.0271 18.2242C40.4916 18.4492 39.9476 18.5704 39.3654 18.4536C37.9119 17.4278 37.9119 17.4278 39.8541 15.4888C40.8911 14.8915 41.6306 15.9476 42.5528 15.9952C42.5613 16.4194 42.574 16.8478 42.5825 17.272Z" fill="#F9EFD4"/>
<path d="M2.61673 44.5475C2.74423 45.6339 3.58995 45.3612 4.24868 45.4261C4.60992 45.4607 5.00941 45.5127 4.97541 45.9844C4.94566 46.3696 4.59717 46.7159 4.25293 46.6336C2.65498 46.2571 2.77398 47.6031 2.45523 48.5553C2.09825 48.1138 1.99625 47.5166 1.35452 47.5858C1.77525 46.573 2.19599 45.5603 2.61673 44.5475Z" fill="#FEF8ED"/>
<path d="M42.5528 15.9952C41.5796 16.6228 40.8911 15.4628 40.0029 15.5754C38.8511 15.0993 37.3042 14.9694 37.8822 13.0088C39.6671 12.9742 40.5553 14.818 42.1788 15.1209C42.5145 15.3157 42.5613 15.6446 42.5528 15.9952Z" fill="#F4EDCD"/>
<path d="M41.2736 2.13671C39.8839 2.63444 40.6701 1.42691 40.4364 1.0244C41.0908 0.0462505 41.8686 0.0462505 42.7738 0.665165C43.6578 1.2711 43.7045 1.98523 43.2073 2.87248C43.0415 3.16679 43.0203 3.54333 42.931 3.88525C42.6675 3.88092 42.404 3.88092 42.1405 3.8766C42.1405 3.44379 42.1405 3.01098 42.1405 2.57817C42.0131 2.10209 41.6858 2.03284 41.2736 2.13671Z" fill="#9DBD5D"/>
<path d="M44.6905 8.65479C44.6777 8.93179 44.665 9.20446 44.6522 9.48145C43.577 10.4553 42.4593 11.3122 40.8826 10.8188C40.7466 10.676 40.6106 10.5332 40.4788 10.3903C41.9493 10.0484 42.8928 8.75001 44.2612 8.21765C44.4015 8.36481 44.546 8.51196 44.6905 8.65479Z" fill="#75A234"/>
<path d="M29.3612 9.52906C28.8937 9.1958 28.9574 8.71106 29.0084 8.23497C30.2707 8.08348 31.5286 7.92767 32.7908 7.77619L32.9141 7.74589C32.8758 8.78463 31.8686 8.6721 31.3416 9.13088C30.8486 9.32997 30.3132 9.40355 29.8414 9.67189C29.6544 9.70651 29.4929 9.66323 29.3612 9.52906Z" fill="#E0E4AC"/>
<path d="M44.2612 6.0363C45.3237 5.34381 45.396 6.63791 45.9739 6.91923C45.6254 7.6074 45.0177 7.84544 44.3165 7.91902C44.5247 7.28712 44.7287 6.65089 44.2612 6.0363Z" fill="#87AD43"/>
<path d="M4.33368 64.8981C4.15518 64.7986 3.5602 64.8202 3.93844 64.5346C4.36768 64.2099 4.78841 63.1193 5.62989 64.0412C5.1964 64.3311 4.76292 64.6168 4.33368 64.8981Z" fill="#F7E6CB"/>
<path d="M37.8822 13.0088C37.7632 14.5713 39.6841 14.3852 40.0029 15.5754C40.0156 16.1207 39.7861 16.5276 39.3144 16.7786C37.7929 17.5836 39.0381 17.7957 39.5949 18.1592C40.0199 18.5401 40.7636 18.7046 40.4831 19.7606C40.8571 19.1331 40.1049 18.0727 41.2948 18.1549C42.1575 19.9467 41.2396 21.4702 40.5808 23.0283C40.4066 23.4395 40.1346 23.8247 39.6246 23.4828C39.2294 23.2188 39.1699 22.8162 39.3186 22.3445C40.0156 20.1285 39.5991 19.3538 37.4147 18.7565C36.9812 19.9857 39.0551 20.3492 38.3794 21.8987C37.4487 20.8989 36.6072 20.0333 35.8167 19.1244C35.5022 18.7652 35.1963 18.4665 34.7755 18.8128C34.4015 19.1201 34.41 19.6351 34.6778 19.9857C35.3068 20.808 36.0377 21.5525 36.2842 22.8855C34.4015 19.4663 32.1576 22.4224 30.1517 22.3142C29.8839 21.5611 30.5001 21.4096 30.7849 21.388C32.1661 21.2798 33.3816 20.3969 33.2456 19.2716C33.1478 18.4449 31.7156 17.5836 30.7084 17.1465C30.0837 16.8781 29.5822 16.3588 28.8427 16.1943C28.5325 16.9907 28.2435 17.774 27.9247 18.5444C27.6017 19.3235 27.334 19.9078 26.2503 19.2326C24.9923 18.4536 24.5248 19.8861 23.4411 20.4704C24.8096 20.9206 26.0888 20.5094 26.8495 21.6087C26.4415 22.3315 27.317 22.5695 27.3935 23.0976C27.6145 24.1753 28.0905 22.8206 28.388 23.1971C29.2889 23.6948 30.3642 24.0757 29.8244 25.4997C28.4092 27.1313 25.9825 26.0623 24.3761 27.5771C24.8988 28.3302 25.6553 27.3954 26.093 27.919C26.9728 28.9751 30.0837 28.5509 28.3115 31.3945C28.2265 31.5287 28.4135 31.9615 28.592 32.1173C28.9999 32.4765 29.3867 32.2255 29.6884 31.8922C30.6744 30.8059 31.6434 29.7065 32.8588 28.3389C33.0161 29.5031 32.8631 30.3687 34.0785 30.8578C35.447 31.4118 35.1368 33.2685 33.6026 34.7617C33.0586 34.4285 34.019 33.195 32.7993 33.2815C32.6081 33.0911 32.6421 32.8011 32.5146 32.5847C32.6123 32.8184 32.5953 33.0954 32.7993 33.2815C32.7951 34.013 32.7951 34.7401 32.7908 35.4715C31.7199 36.0602 31.2906 34.9522 30.5766 34.5973C29.7947 34.2077 30.3769 34.8959 30.2452 35.0171C30.0072 37.4538 28.235 35.2378 27.436 35.9779C27.198 35.675 27.1555 35.1686 27.4105 35.0171C28.6515 34.2597 28.116 33.5585 27.4232 32.8401C27.0025 32.4029 25.9655 32.1432 27.2532 31.3902C27.6697 31.1478 27.028 30.7842 26.7603 30.7712C26.0335 30.7366 25.6255 30.3384 25.2388 29.7801C25.0263 29.4728 24.5376 28.9058 24.3038 29.5334C23.9426 30.4943 22.5019 29.7974 22.4849 30.9097C22.4806 31.2993 23.2541 31.9398 22.2809 31.8792C21.4862 31.8273 20.6914 31.23 20.2495 30.4899C19.9392 29.9619 20.4577 29.4945 20.8912 29.3084C22.2171 28.7284 22.8164 28.0402 22.8886 26.3826C22.1364 27.7632 20.7127 27.3045 19.9817 28.2913C19.8967 28.4038 19.476 28.4384 19.4122 28.3519C18.592 27.2828 17.9078 26.4172 17.0025 28.3778C16.7986 28.815 16.3353 28.0013 16.1271 27.5598C15.8721 27.0188 15.7318 26.1835 14.8266 26.5644C14.3294 26.7721 13.7429 27.8282 13.4412 26.7029C13.2839 26.1099 13.7726 24.95 14.9669 25.0365C15.1071 25.0452 15.2474 25.0625 15.3876 25.0798C16.0931 24.6081 16.7943 25.7334 17.4998 25.0842C18.031 23.9502 18.0438 21.8554 20.5682 24.0757C18.7917 22.3531 19.0807 21.2711 20.4917 20.3189C20.6362 20.1718 21.1207 20.1891 20.6957 19.7866C20.088 19.211 19.2295 18.9426 18.779 18.1809C19.5822 17.3715 20.3642 16.5579 21.6179 17.4278C22.3361 17.9299 22.7356 17.298 23.2159 16.8998C23.7301 16.4713 23.8491 15.5711 24.8138 15.6619C24.6311 15.5234 24.9201 15.359 24.7288 15.5754C24.7246 15.5797 24.8096 15.6576 24.8138 15.6619C25.0348 14.4068 24.4313 12.7059 26.4415 12.5371C28.0565 12.4159 29.0467 13.7057 30.3217 14.3462C31.3841 14.8786 32.3403 15.6187 33.2966 16.1467C33.0161 15.6013 31.8346 15.7788 31.9494 14.7054C32.3956 14.0649 33.0713 14.3376 33.6578 14.264C33.9255 13.4503 33.1733 13.6061 32.8376 13.3897C32.2511 13.0132 31.6094 12.6929 31.7751 11.8013C32.4466 10.6717 33.2753 11.0742 34.0998 11.5633C35.1793 12.2081 36.2927 12.7578 37.5507 12.9353C37.6654 12.9136 37.7759 12.9396 37.8822 13.0088Z" fill="#FDF4E5"/>
<path d="M18.1203 33.4849C16.0761 35.6793 15.1369 36.3501 14.3719 36.177C14.1679 36.8046 14.8521 36.77 15.0264 37.1032C15.4088 37.826 16.5606 38.103 15.5448 39.4966C14.5376 40.886 14.0106 41.2625 12.6337 40.1588C11.4565 39.2196 11.3162 38.1333 12.0004 37.0253C12.9057 35.5581 14.1551 34.3419 14.8266 32.6713C15.1794 31.7927 15.9486 31.0309 16.7178 32.5847C16.9261 33.0132 17.6273 33.1863 18.1203 33.4849Z" fill="#FDF6E7"/>
<path d="M29.8202 25.5126C29.7139 24.4133 28.9107 23.8853 28.1202 23.3486C27.8355 23.604 27.555 23.6083 27.2702 23.3486C26.9643 22.8162 25.8465 22.4873 26.8453 21.6217C27.4912 22.9504 29.0977 23.4611 30.0029 23.4655C32.0429 23.4741 32.2596 25.0582 33.1393 26.1013C33.3603 26.3653 33.6791 26.6596 33.3561 27.0188C33.0713 27.3391 32.6931 27.1963 32.3828 27.0188C31.5201 26.5297 30.6744 26.0147 29.8202 25.5126Z" fill="#FEF9ED"/>
<path d="M31.9451 14.6968C32.7016 15.2897 33.4581 15.887 34.2145 16.4799C31.2906 15.8091 29.0807 13.7316 26.433 12.5241C26.5265 11.5589 26.9303 11.7537 27.5465 12.1346C28.9914 13.0305 30.4789 13.8485 31.9451 14.6968Z" fill="#F3E0C8"/>
<path d="M30.2452 35.0387C29.6459 34.7314 29.2974 34.2597 29.2762 33.4763C30.7296 33.6927 31.4054 35.2551 32.7908 35.4888C32.8758 35.8178 33.0968 36.19 33.0076 36.4627C32.9141 36.757 32.5443 36.6098 32.3063 36.4454C31.6179 35.9779 30.9294 35.5105 30.2452 35.0387Z" fill="#F1DEC6"/>
<path d="M31.9409 12.0999C32.2171 12.8314 32.9311 12.9958 33.5048 13.3378C33.9468 13.6018 34.1125 13.8658 33.6536 14.2553C31.8304 13.0478 29.8414 11.9961 29.3612 9.52473C29.5057 9.50742 29.6502 9.49444 29.7947 9.47712C30.8656 10.0528 31.4096 11.0742 31.9409 12.0999Z" fill="#F1DFC0"/>
<path d="M38.6387 27.5685C36.5902 27.6723 35.5022 26.2787 34.4525 24.7899C35.8507 25.7161 37.2447 26.6423 38.6387 27.5685Z" fill="#F1DEC3"/>
<path d="M9.08079 44.4653C7.85257 43.7814 6.62861 43.0976 5.4004 42.4138C7.0026 42.3965 8.32856 42.8899 9.34003 43.9762C9.25503 44.1363 9.16578 44.3008 9.08079 44.4653Z" fill="#F1DBBD"/>
<path d="M31.2056 39.9424C29.7224 39.0811 28.6855 38.5185 27.7462 37.2634C29.3569 37.5793 30.3897 38.1549 31.2056 39.9424Z" fill="#F4DFC3"/>
<path d="M19.6247 48.4255C21.0612 49.0747 21.9239 49.7412 22.2086 51.4767C21.0484 50.5505 20.1305 49.936 19.6247 48.4255Z" fill="#F4E0C3"/>
<path d="M18.779 18.1722C19.9392 18.7479 21.0484 19.3927 21.9664 20.3622C21.3629 21.0807 20.9507 20.4315 20.4917 20.3103C20.173 19.3884 18.6812 19.4403 18.779 18.1722Z" fill="#EEDDC5"/>
<path d="M15.1199 31.3123C14.1169 30.8751 13.0077 30.5981 12.3022 29.1482C13.6324 29.7325 14.5291 30.3081 15.1199 31.3123Z" fill="#F6E3CA"/>
<path d="M0.916781 49.7412C1.24827 50.4164 1.44376 47.2915 1.83475 49.7066C1.93675 50.3385 2.74423 50.6674 2.45098 51.7927C1.69026 51.1738 0.984779 50.7713 0.916781 49.7412Z" fill="#FAE9D2"/>
<path d="M14.0191 53.8702C14.9414 54.4025 16.1271 54.6146 16.6073 55.9953C15.1751 55.7832 14.6651 54.7098 14.0191 53.8702Z" fill="#F5E2C7"/>
<path d="M17.4998 25.0798C18.048 25.7377 17.708 25.9974 17.0705 25.8459C16.4841 25.7074 15.9486 25.3395 15.3876 25.0755C16.0931 23.6732 16.7943 24.976 17.4998 25.0798Z" fill="#F5E4CD"/>
<path d="M3.22871 51.4724C4.25293 51.9225 4.82241 52.4159 5.11566 53.5412C3.90019 53.3248 3.5347 52.6323 3.22871 51.4724Z" fill="#F3E2C9"/>
<path d="M5.60014 57.5361C4.64392 57.298 3.82369 56.8955 3.33496 55.3114C4.44418 56.1641 5.52789 56.2593 5.60014 57.5361Z" fill="#F7E8D1"/>
<path d="M5.60014 57.5361C6.07188 57.6313 6.90485 57.3413 6.60311 58.3238C6.47136 58.7609 5.98263 59.3365 5.49389 59.0379C4.82666 58.6267 5.4429 58.0424 5.60014 57.5361Z" fill="#F7E8D1"/>
<path d="M23.2329 48.9275C22.5316 48.5943 21.7454 48.3779 21.1589 47.153C22.4594 47.469 22.9524 48.0706 23.2329 48.9275Z" fill="#F0D9BE"/>
<path d="M15.5023 52.9786C16.2376 53.3638 16.7646 53.762 17.028 54.9046C16.2801 54.2121 15.3196 54.2207 15.5023 52.9786Z" fill="#F6E3C9"/>
<path d="M9.49302 61.9507C8.6898 61.9896 8.23081 61.9334 7.91207 61.5265C7.87807 61.4833 8.06932 61.1327 8.20106 61.0937C8.77055 60.9336 9.05529 61.3101 9.49302 61.9507Z" fill="#F3E3CA"/>
<path d="M4.44843 58.4147C4.32093 58.4536 4.12118 58.5878 3.98094 58.5445C3.7132 58.4536 3.51345 58.2026 3.6452 57.9039C3.6962 57.7871 3.98519 57.6832 4.12118 57.7265C4.38043 57.8044 4.60567 57.9905 4.44843 58.4147Z" fill="#F7E8D1"/>
<path d="M39.1316 3.83764C39.5226 4.48253 39.6799 5.31784 40.4873 5.63379C40.9166 7.61172 39.3399 8.39943 38.2774 9.49444C38.1499 9.63726 38.0224 9.78009 37.8992 9.92724C37.2149 9.44683 36.1312 9.64159 35.7785 8.60718C35.5532 8.12244 35.9145 7.96663 36.229 7.78052C37.7589 6.89759 37.3892 4.56043 39.1316 3.83764Z" fill="#A7C74D"/>
<path d="M31.9409 12.0999C30.8911 11.507 30.2749 10.5505 29.7947 9.47712C29.9349 8.36481 30.5469 8.85388 31.0866 9.07894C32.3361 9.43817 32.8376 10.8578 34.0658 11.243C35.226 11.8056 36.382 12.3639 37.5422 12.9266C36.28 13.1949 35.3195 12.3986 34.2315 12.009C33.5133 11.7537 32.6421 10.7885 31.9409 12.0999Z" fill="#FAF1D9"/>
<path d="M36.229 7.78052C36.0802 8.05752 35.9315 8.33018 35.7785 8.60718C35.3535 8.46435 34.9285 8.32586 34.5078 8.18303C34.7755 6.64656 35.447 5.18367 35.3535 3.57363C35.3153 2.99367 35.5447 2.59981 36.195 2.62145C36.5307 4.3397 34.9668 6.07093 36.229 7.78052Z" fill="#759D37"/>
<path d="M34.0658 11.243C32.7101 11.0396 31.7921 10.2086 31.0866 9.07894C31.1249 7.83246 32.5231 8.49898 32.9056 7.74157C33.0203 7.88439 33.1351 8.02722 33.2456 8.17005C32.3446 9.5204 33.3476 10.3427 34.0658 11.243Z" fill="#D4DE91"/>
<path d="M38.2774 9.49444C38.8341 8.1008 40.2536 7.21787 40.4873 5.63379C40.6148 5.62514 40.7423 5.61215 40.8698 5.59917C40.8783 5.9584 40.9336 6.29599 41.3161 6.4518C41.7878 5.80259 42.3615 5.25292 42.9778 4.74654C43.39 4.89802 43.6748 5.17935 43.8363 5.59484C41.9238 6.81103 40.4023 8.5942 38.2774 9.49444Z" fill="#7EA739"/>
<path d="M42.9778 4.74654C42.71 5.6035 42.149 6.16615 41.3161 6.4518C41.3756 5.38277 41.9876 4.87205 42.9778 4.74654Z" fill="#A6C773"/>
<path d="M40.8826 10.8188C42.302 10.8535 43.3858 9.89262 44.6522 9.48145C45.09 9.33863 45.5702 9.10924 45.5404 9.93157C44.2187 10.4942 42.88 11.0222 41.5753 11.6238C40.3386 12.1995 40.5511 11.5849 40.8826 10.8188Z" fill="#A0C554"/>
<path d="M41.2736 2.13671C41.3671 1.75151 41.4181 1.24513 41.9876 1.50481C42.4805 1.7342 42.6803 2.12805 42.1448 2.57385C41.7878 2.57385 41.4648 2.49161 41.2736 2.13671Z" fill="#B3D074"/>
<path d="M41.2948 18.1549C40.6488 18.5704 41.0101 19.3062 40.7338 19.9727C40.3301 19.3278 39.9604 18.7435 39.5949 18.1549C40.1601 18.3151 40.7296 17.3759 41.2948 18.1549Z" fill="#FDF3E2"/>
<path d="M20.3855 26.1142C20.3642 26.4172 20.275 26.6726 19.935 26.7115C19.5057 26.7635 19.2805 26.5341 19.289 26.1142C19.2932 25.781 19.5397 25.6035 19.833 25.6035C20.1305 25.6035 20.3472 25.781 20.3855 26.1142Z" fill="#FDF3E2"/>
<path d="M26.3905 15.3893C25.9358 16.0558 25.5745 16.4453 24.9286 16.1424C24.8351 16.0991 24.7288 15.8178 24.7628 15.7875C25.1453 15.4196 25.6043 15.2681 26.3905 15.3893Z" fill="#FDF3E2"/>
<path d="M32.7228 33.2426C32.3488 32.654 32.1576 32.1562 32.8163 31.7407C33.4198 32.2991 32.6293 32.7925 32.7228 33.2426Z" fill="#FDF3E2"/>
<path d="M27.2745 23.3486C27.5592 23.3486 27.8397 23.3486 28.1245 23.3486C28.0565 23.7771 27.9885 24.2315 27.3935 24.0195C27.164 23.9372 26.977 23.7338 26.7688 23.5866C26.9345 23.5087 27.1045 23.4265 27.2745 23.3486Z" fill="#FDF3E2"/>
</svg>
