<svg width="43" height="48" viewBox="0 0 43 48" fill="none" xmlns="http://www.w3.org/2000/svg">
<path d="M0.412277 16.4318C0.394003 16.0321 0.317251 15.6102 0.748523 15.3549C0.880098 15.2328 1.02995 15.2106 1.19441 15.2809C1.57817 15.5362 1.44294 16.1875 2.06427 16.4096C1.67685 15.7731 1.62569 15.2883 2.37493 15.0663C3.79301 15.1255 4.42896 16.5391 5.62775 16.9832C5.97496 17.4717 6.43912 17.8639 6.78268 18.3561C7.00562 18.6818 6.19425 19.3257 7.18106 19.4737C7.62329 19.5403 7.57212 20.1694 7.5904 20.5913C7.61598 20.6875 7.63426 20.7948 7.64888 20.9022C7.72928 20.7171 7.61964 20.5395 7.62695 20.3545C7.78411 19.9733 8.09842 19.94 8.44198 19.9696C8.77822 20.051 9.07427 20.2138 9.31914 20.4618C9.61153 20.9614 10.0574 21.3943 10.0026 22.0494C9.67366 22.4379 9.23508 22.6785 8.81112 22.9412C7.99974 23.1188 7.22491 22.9412 6.94715 24.3215C6.69862 25.5502 5.33901 25.0987 4.38875 24.6435C3.78205 24.4289 3.01453 24.6361 2.59422 23.9367C2.43706 22.7562 2.85372 21.5572 2.48092 20.3878C2.49189 20.2434 2.74407 20.2582 2.70752 20.0695C2.68194 20.1694 2.62346 20.2471 2.51381 20.3101C1.98752 21.0169 1.58548 20.3397 1.13594 20.199L1.15056 20.2064C-0.322347 19.1962 0.45979 17.7307 0.412277 16.4318Z" fill="#5D985B"/>
<path d="M41.734 28.7142C41.6243 28.8363 41.5147 28.9584 41.4051 29.0806C41.1748 29.3544 40.082 28.6661 40.6229 29.7985C40.2684 29.9539 39.9175 30.1093 39.563 30.2685C39.0367 30.0094 38.642 29.6172 38.3825 29.0917C37.7612 28.4256 37.3628 28.5218 36.7999 29.4728C36.873 30.1723 36.9023 30.8495 35.9922 31.0197C35.4148 30.6644 35.1224 29.9243 34.3695 29.8096C33.8688 29.5579 33.3242 29.78 32.8125 29.6616C32.2387 28.9399 30.9303 29.7356 30.5794 28.5662C31.0143 28.0888 30.1701 28.0111 30.2834 27.6262C30.6964 26.8824 31.1313 26.1534 31.7416 25.5502C32.4287 25.5539 32.776 26.009 33.0501 26.5197C32.9185 25.5983 32.6371 24.5917 33.8943 24.1254C34.7678 24.6435 35.6048 23.9108 36.4929 24.0514C37.4213 24.1994 38.0097 24.4178 37.4578 25.9683C38.2984 23.9589 38.949 24.6102 39.5959 25.5317C40.2099 26.2829 40.1661 25.3355 40.4292 25.1912C40.8495 24.6435 41.321 24.1476 41.6828 25.1949C42.0849 26.3458 42.5636 27.53 41.734 28.7142Z" fill="#5A9357"/>
<path d="M41.3539 17.949C40.8788 19.2776 42.75 19.6735 42.4979 20.9133C41.6719 21.1871 41.3137 20.4322 40.7581 20.1065C40.1076 19.581 39.881 18.345 38.6383 18.8335C38.3935 18.8372 38.1632 18.7632 37.9256 18.7114C36.5222 18.8557 36.3577 20.3101 35.5244 21.0465C34.7715 21.3092 34.3877 22.2714 33.4448 22.1752C32.7906 21.9605 33.7043 20.6801 32.5347 20.8096C32.3776 20.7541 32.2497 20.6653 32.1473 20.5358C32.1948 19.7698 32.871 19.4663 33.2767 18.963C33.7116 18.5819 34.417 18.5078 34.5668 17.7973C34.3256 17.1645 33.2876 17.7566 33.2109 16.8907C33.3242 15.8397 35.1333 15.947 34.7532 14.563C34.5486 13.7821 33.8432 13.1049 34.2744 12.1983C34.3768 12.0909 34.4755 11.9725 34.5924 11.8726C34.5339 11.9281 34.4608 11.9984 34.3585 12.0983C33.7335 12.7089 33.2292 12.609 32.8235 11.8652C32.7577 11.7135 32.7175 11.5543 32.7029 11.3915C32.6992 11.0696 32.7796 10.755 32.8088 10.4368C32.8125 10.0334 32.7248 9.63372 32.776 9.23035C32.9112 8.56793 32.7942 7.84631 33.2072 7.24681C33.3534 7.14319 33.5106 7.10988 33.686 7.15059C34.1867 7.57246 34.2269 8.19787 34.4024 8.73446C34.6034 8.3533 34.3914 7.49475 35.0895 7.58356C36.153 7.71679 37.1691 8.13496 37.4249 9.42278C37.4651 9.66702 36.8621 9.58191 37.1325 9.74104C37.8672 10.1666 38.2802 10.5737 37.6369 11.3693C37.5565 11.4988 37.308 11.1954 37.2787 11.4988C37.9293 11.5136 38.2217 11.9096 38.3533 12.4906C38.3679 12.7534 38.3094 12.9939 38.1486 13.2048C37.8599 13.3751 37.604 13.2307 37.3116 13.1826C36.7159 13.0864 35.8606 12.9606 36.3943 14.093C36.6538 14.6444 35.9666 16.1209 37.6479 15.3808C37.9512 15.2476 38.2911 16.0321 38.6566 16.3504C38.7918 16.4392 38.9271 16.528 39.0623 16.6131C39.6836 17.3162 40.9884 16.813 41.3539 17.949Z" fill="#5A9456"/>
<path d="M40.9957 19.8142C41.4964 20.1805 41.9971 20.5469 42.4979 20.917C43.4627 23.6406 42.9437 26.2126 41.734 28.7179C41.321 27.9815 41.427 28.0518 41.734 27.5707C42.3188 26.6418 40.9299 25.9609 41.3027 25.0062C41.0615 25.132 40.8166 25.2578 40.5754 25.3799C40.294 25.6538 40.0308 25.9794 39.5703 25.7352C38.7772 25.1801 38.6895 25.2134 38.1559 26.0942C38.0791 26.2237 37.8562 26.3458 37.7137 26.331C37.4213 26.3014 37.3262 26.009 37.3701 25.7759C37.7868 23.4593 35.9557 24.9655 35.2832 24.5103C34.5376 26.0275 34.4243 24.5029 34.0442 24.2475C33.8651 23.7738 34.2562 23.5296 34.4426 23.204C34.5303 23.0781 34.629 22.9597 34.7276 22.845C35.0566 22.5341 35.2978 22.1678 35.4294 21.7274C35.7473 21.2685 36.3504 21.1427 36.6355 20.6468C37.0083 20.1953 37.3482 19.6883 38.0243 19.6883C38.2765 19.7624 38.4739 19.9178 38.642 20.1176C39.0586 20.5691 39.2414 21.3166 40.0455 21.2648C40.2318 20.6838 40.1185 19.9141 40.9957 19.8142Z" fill="#619D5E"/>
<path d="M29.3367 2.36937C30.1006 2.39527 30.181 3.03548 30.382 3.56467C30.9595 4.39732 30.0714 4.13457 29.8119 4.34551C30.2468 4.72667 30.8133 5.04863 30.4771 5.79246C29.5268 5.85907 28.5802 6.28094 27.6226 5.96639C26.9538 5.74435 27.4655 6.18102 27.4764 6.22913C27.6372 6.80273 27.4545 7.23941 26.888 7.35413C26.2776 7.47995 25.9962 6.97296 25.9195 6.49188C25.6746 4.96351 24.7207 5.06343 23.6388 5.39279C22.4547 6.0256 21.424 7.55396 19.8634 6.08481C19.7501 6.38086 19.9621 6.6436 19.9584 6.92855C19.6185 7.85741 19.1507 7.94623 18.5513 7.14689C18.2918 6.6288 17.9373 6.74352 17.5316 6.95816C16.9541 7.26531 16.585 7.84631 15.9892 8.12386C15.8211 8.15346 15.6603 8.13126 15.5031 8.06095C15.3789 7.94253 15.3058 7.7982 15.2875 7.62427C15.3606 7.11728 15.6164 6.69171 15.8759 6.26614C16.1683 5.87757 16.4863 5.51121 16.8627 5.20406C17.2648 4.95981 17.7143 4.83769 18.1493 4.70447C18.2406 4.68597 18.3722 4.66376 18.3978 4.58235C18.449 4.41582 18.2626 4.39362 18.1712 4.3048C17.9336 4.06426 17.7947 3.79781 17.8788 3.45365C17.9884 3.21311 18.1566 3.02438 18.3722 2.87636C19.3334 2.42858 20.28 1.9512 20.7954 3.48326C21.0402 4.20858 21.6981 4.16418 22.3121 4.06056C22.9737 3.94954 23.5365 3.59058 24.1286 3.30193C24.4429 3.17241 24.7718 3.1206 25.1081 3.10209C25.342 3.08729 25.5759 3.08729 25.8025 3.08359C26.0145 3.03918 26.1314 2.93186 26.0474 2.68392C25.6051 1.3813 27.1658 1.71806 27.407 0.970527C27.5495 2.16583 28.8872 1.66255 29.366 2.38047C29.2344 2.60991 29.0736 2.81344 28.8543 3.01698C29.1979 2.90596 29.1577 2.5581 29.3367 2.36937Z" fill="#579053"/>
<path d="M26.7601 34.9942C24.8851 36.282 23.9276 38.3137 22.7178 40.1381C22.1806 39.5978 22.239 38.8688 22.1075 38.2137C22.1075 38.1693 22.0855 38.099 22.1148 38.0546C22.2171 37.8918 22.1148 37.7771 22.0417 37.8807C21.5044 38.6319 21.2376 39.5904 20.3677 40.09C19.6258 40.3157 18.8583 40.6636 18.3832 39.6496C18.226 38.9243 18.3722 38.2655 18.8144 37.6771C19.0995 37.2072 19.6551 37.8659 19.9401 37.3922C20.6601 36.0304 20.916 34.502 21.53 33.1069C21.6031 32.9477 21.6981 32.8034 21.8041 32.6628C22.0453 32.3963 22.3377 32.2224 22.6886 32.1595C23.8764 31.9597 23.7923 32.067 25.2579 33.229C25.7294 33.6027 26.7089 33.3807 27.1694 34.1245C27.301 34.5501 27.1073 34.8092 26.7601 34.9942Z" fill="#C8DA81"/>
<path d="M19.8341 47.6097C16.4205 48.3979 13.1823 48.0463 10.2036 46.0591C9.54209 45.6187 8.93173 45.1302 8.7636 44.2791C8.84036 43.9312 8.89883 43.5723 9.23874 43.365C9.87102 43.1578 10.5472 43.0209 11.1831 43.0912C12.6524 43.2503 13.9608 43.0283 15.0463 41.9403C15.4958 42.3585 15.6384 43.0172 16.1574 43.3835C16.5704 44.0829 16.4753 44.6158 15.6749 44.923C15.0646 45.0377 14.5054 44.7454 13.9973 44.7232C16.066 45.1191 18.226 45.541 19.7537 47.3617C19.7793 47.4468 19.8086 47.5282 19.8341 47.6097Z" fill="#CDDD86"/>
<path d="M26.0218 3.52397C25.7696 3.52397 25.5211 3.52027 25.2689 3.52027C24.8924 3.06509 24.5306 3.08729 24.1871 3.55727C23.6279 4.45283 22.6922 4.56755 21.8041 4.60825C20.7807 4.65636 20.28 4.21969 20.1375 2.99848C20.068 2.39527 18.9935 3.18721 18.3576 3.17241C18.0835 3.1095 17.9153 2.94667 17.8715 2.66542C17.8386 2.03631 19.7318 1.9549 18.3503 0.944623C20.7844 -0.0693518 23.3136 -0.165568 25.8756 0.182291C26.4384 0.260005 27.1073 0.285909 27.4033 0.970527C27.4728 1.80317 25.8025 1.63664 26.3946 2.76904C26.4165 3.09469 26.2374 3.32043 26.0218 3.52397Z" fill="#67A060"/>
<path d="M38.4337 29.0584C38.949 29.3285 39.5557 29.5098 39.5667 30.2648C39.4132 32.611 37.1545 32.9551 35.8826 34.2393C33.5289 34.9276 31.3323 34.539 29.2636 33.2586C29.1028 32.1484 30.0092 31.9819 30.6854 31.6081C31.5772 31.3639 32.4763 30.9198 33.3425 31.6599C33.4009 31.819 33.2986 31.9486 33.2438 32.0855C33.3388 32.0559 33.3388 31.9264 33.4411 31.893C33.5581 31.8301 33.7226 31.8671 33.792 31.8116C33.9309 31.7006 33.7408 31.7524 33.7116 31.7302C33.3644 31.4823 32.9697 31.3195 32.6188 31.0863C32.5165 30.9605 32.4653 30.8125 32.4726 30.6496C32.7906 30.3129 32.6663 29.7911 32.955 29.4358C33.4484 29.4173 33.9419 29.0695 34.4316 29.4395C34.7203 30.1278 35.2539 30.5645 35.8789 30.9124C36.6684 30.5867 36.6135 30.0427 36.2554 29.421C36.4527 29.1472 36.6464 28.8622 37.0485 28.9066C37.4907 28.8363 37.7904 29.4395 38.2765 29.1657C38.324 29.1287 38.3788 29.0954 38.4337 29.0584Z" fill="#5F995D"/>
<path d="M18.3466 0.944623C18.8437 0.937221 19.4431 0.944623 19.4906 1.56263C19.571 2.61731 18.3028 2.14363 17.9702 2.79124C17.8094 3.10579 17.4658 3.33153 17.495 3.746C17.4841 3.98655 17.4183 4.20488 17.2538 4.38622C16.4936 4.8673 15.865 5.42239 16.1281 6.46967C15.8979 6.85084 15.6676 7.232 15.4337 7.61317C15.2473 7.2246 14.9878 7.09138 14.6041 7.37263C14.2715 7.29862 13.9791 7.15059 13.7269 6.92115C13.2189 6.39936 13.3285 5.78876 13.471 5.16705C13.5661 4.55274 13.8292 4.03835 14.0229 3.91253C13.9754 3.94584 13.5697 3.90143 13.1567 3.81632C12.1516 3.60168 11.1319 3.51286 10.1086 3.41665C9.72848 3.37964 9.19488 3.51286 9.21681 2.82825C11.3001 2.46188 13.08 0.611565 15.4776 1.65885C16.4826 2.09182 17.5718 1.92529 18.3466 0.944623Z" fill="#61975A"/>
<path d="M22.3596 37.9436C22.7909 38.6208 22.7361 39.3831 22.7215 40.1381C22.2427 42.0106 21.7018 43.872 21.307 45.763C21.1133 46.6956 20.8063 47.3839 19.8341 47.6097L19.7355 47.4875C19.2713 46.8658 18.4928 46.5143 18.2589 45.7001C18.438 45.4115 18.7231 45.2338 18.9716 45.0229C19.5929 44.4049 19.7866 43.6167 19.8634 42.7914C19.571 42.5583 19.3261 42.9469 19.0483 42.8543C18.8839 42.7877 18.7413 42.6878 18.6171 42.562C18.5074 42.4177 18.4197 42.2585 18.3539 42.0883C18.3905 41.3112 17.305 40.3564 18.6975 39.7902C19.1872 40.1455 19.6806 39.9715 20.174 39.7976C20.8867 40.5303 20.8209 39.5386 21.0731 39.3461C21.5775 38.9613 21.3984 37.9251 22.3596 37.9436Z" fill="#C4D87B"/>
<path d="M11.0077 30.9568C10.7482 29.8429 10.4923 28.729 10.2329 27.6151C10.7043 26.7344 11.1429 25.6871 12.0786 27.1599C11.7715 25.9905 10.5508 24.921 11.3037 23.4371C11.9653 23.0633 12.5975 22.6341 13.281 22.2973C14.3811 22.7895 13.9718 24.0477 14.5273 24.8174C14.5894 24.9877 14.6296 25.1653 14.6552 25.3466C14.6808 25.6168 14.6589 25.8832 14.6077 26.146C14.5456 27.4671 14.4396 28.7882 14.2495 30.0982C14.2057 30.4054 14.1837 30.7607 13.884 30.8717C13.5441 31.0012 13.3504 30.7125 13.2298 30.4165C13.1714 30.2722 13.0873 30.1241 13.1896 29.965C12.9448 31.7746 11.8556 30.3092 11.1977 30.5164C11.1758 30.5201 11.1575 30.8384 11.0077 30.9568Z" fill="#C9DB85"/>
<path d="M1.12132 15.3697C0.997053 15.366 0.872788 15.3586 0.748523 15.3549C0.755833 14.8664 0.766798 14.3779 0.774107 13.8932C1.11766 13.6304 1.25655 13.2085 1.56355 12.9125C3.18265 11.3323 3.89169 11.3989 5.20744 13.2936C5.34632 13.4935 5.48521 13.6859 5.73739 13.7377C6.20156 13.697 6.39161 13.1567 6.84846 13.1049C7.38573 13.3899 7.61233 14.2336 8.43101 14.0079C8.58817 14.0338 8.73437 14.093 8.8696 14.1855C9.01214 14.6111 9.41051 14.97 9.2095 15.4881C8.9829 15.7287 8.70878 15.8619 8.39447 15.91C8.31406 16.0099 8.07284 15.7102 8.12401 15.9655C8.15325 16.1135 8.43467 16.2357 8.53701 16.4355C8.58817 16.5946 8.58086 16.75 8.52239 16.9055C7.82796 17.035 7.77314 17.4976 7.93395 18.0712C7.60867 18.6078 7.25781 18.3894 6.90329 18.1082C6.89232 17.2903 5.88358 17.8898 5.73374 17.2644C5.0649 15.8619 4.07078 14.9811 2.42975 15.1292C1.94366 14.9515 1.57086 15.3771 1.12132 15.3697Z" fill="#609D5B"/>
<path d="M11.0077 30.9568C11.1319 28.5107 12.2028 30.9383 12.7986 30.583C12.7986 30.15 12.7986 29.6912 12.7986 29.1879C13.4564 29.4654 13.1348 30.287 13.7232 30.509C13.906 29.0732 14.096 27.5929 14.2861 26.109C15.346 26.9638 15.6347 28.1517 15.6895 29.4432C15.5141 30.1982 15.5616 30.9938 15.3094 31.7376C14.8197 33.3067 13.2773 33.5472 12.1334 34.2726C11.5705 34.6278 11.2635 34.2652 11.2124 33.6286C11.1612 32.9736 11.4097 32.2853 11.0333 31.6599C11.026 31.4194 11.015 31.1899 11.0077 30.9568Z" fill="#C2D675"/>
<path d="M5.91282 14.2706C5.03931 14.9441 5.07586 13.9376 4.88947 13.623C3.75646 11.695 3.79667 11.7024 2.07889 13.0346C1.67685 13.3492 1.41005 13.9265 0.777762 13.8932C1.23096 11.6136 3.06204 9.38207 5.11241 8.60864C5.64236 8.60864 6.17963 8.29409 6.69862 8.64565C6.78999 8.77887 6.84115 8.92319 6.85212 9.08602C6.81192 9.49679 6.58166 9.75954 6.22714 9.90757C6.1248 9.87796 6.01881 9.87426 5.92379 9.89646C6.04074 9.90016 6.13942 9.94827 6.22714 10.0445C6.83019 10.4997 6.83019 11.04 6.46105 11.6284C6.17597 12.0835 5.80683 12.498 5.858 13.0901C5.92379 13.4787 5.94572 13.8746 5.91282 14.2706Z" fill="#5F9659"/>
<path d="M38.0645 12.4018C37.8599 11.6432 37.0046 11.8208 36.5953 11.3508C36.8255 11.0733 37.0777 11.0955 37.3372 11.3027C38.4008 9.95567 36.4893 10.2295 36.3869 9.49309C36.6793 9.10453 37.0265 9.56341 37.3372 9.45239C37.1435 8.13126 37.1435 8.13126 38.017 7.92032C38.0389 7.91662 38.0865 7.98323 38.0609 7.93513C37.9037 7.65018 36.9937 7.86851 37.5126 7.16909C37.7319 6.87304 38.1851 7.06548 38.5287 7.1802C38.737 7.33562 38.9453 7.49475 39.15 7.65018C39.6105 8.17567 39.0733 8.91579 39.5301 9.44129C39.8079 9.67443 40.0857 9.90757 40.3634 10.1407C40.5644 10.6514 40.7545 11.1658 40.9665 11.6728C40.9738 12.0909 41.0542 12.4795 41.3831 12.7719C40.4548 12.7163 40.4329 13.5231 40.1587 14.093C40.0674 14.2373 39.9468 14.3446 39.7969 14.4186C38.7589 14.6481 39.1902 13.5157 38.7114 13.2233C38.441 13.0013 38.3496 12.6238 38.0645 12.4018Z" fill="#629C5D"/>
<path d="M30.4003 5.75175C30.3382 4.99682 29.5743 4.75258 29.2673 4.14197C29.4025 3.53507 30.4222 4.53794 30.382 3.56097C31.0253 4.06426 31.727 3.93104 32.4324 3.75341C33.3607 3.52027 34.2452 3.46846 34.7532 4.48983C35.0127 5.01162 35.3417 4.95981 35.7802 4.83769C36.5368 4.62676 37.0302 5.00792 37.3884 5.64073C37.6186 6.44747 37.2934 7.23941 36.5295 6.82493C35.5573 6.29944 34.7678 6.76202 33.9017 6.74352C33.4887 6.86564 33.0793 6.89155 32.67 6.73242C32.0779 6.40676 31.8513 5.87757 31.844 5.10784C31.8622 4.98202 31.4492 5.19665 31.6941 5.18925C31.7672 5.18925 31.7745 5.24106 31.7855 5.33728C31.822 5.66664 31.7087 5.92938 31.4748 6.14772C31.2263 6.27724 30.9887 6.22173 30.7512 6.10331C30.605 6.0219 30.4917 5.89978 30.4003 5.75175Z" fill="#679C5F"/>
<path d="M11.0333 31.6525C11.7862 32.2927 11.0552 33.3178 11.7021 34.1208C12.5171 32.8515 14.4505 33.2364 15.0536 31.6451C15.4849 31.5008 15.642 31.8523 15.854 32.104C16.9322 33.6657 16.4242 34.7388 14.3775 35.2347C13.2883 35.2569 13.7415 36.6558 12.9228 36.9111C12.561 36.9703 12.3746 36.7816 12.254 36.4559C12.2028 36.3116 12.349 36.1155 12.1334 36.023C12.1005 36.2043 12.053 36.3782 11.9506 36.5448C11.6144 36.9444 11.3037 37.3774 10.6861 37.1998C11.2928 35.3827 10.8249 33.4954 11.0333 31.6525Z" fill="#CCDC86"/>
<path d="M9.22046 2.82085C10.5399 3.1428 11.9799 2.79124 13.2262 3.53507C13.1969 3.60538 13.1677 3.67939 13.1385 3.75341C12.9703 4.01615 12.762 4.24929 12.5427 4.46763C12.2613 4.71927 11.9945 4.98942 11.6509 5.15965C11.3878 5.25216 11.1027 5.27067 10.8615 5.42609C10.7518 5.51121 10.6312 5.57782 10.5033 5.63333C10.3754 5.68884 10.2438 5.72955 10.1122 5.77025C9.74676 5.86277 9.52381 6.13292 9.3228 6.42897C9.03041 6.83234 8.70878 7.1802 8.14228 7.00997C7.78045 6.81383 7.51365 6.51778 7.30167 6.16992C7.56481 5.51121 6.37699 5.68514 6.64745 5.01532C7.80969 4.65266 8.56259 3.79781 9.22046 2.82085Z" fill="#679E61"/>
<path d="M10.6897 37.2035C11.0442 36.9555 11.4024 36.7113 11.7569 36.4633C12.7766 37.4403 12.9996 40.4193 11.8812 41.0114C10.708 41.6331 10.1817 42.7766 9.2095 43.5056C9.19122 43.8424 9.08523 44.1274 8.75995 44.2791C8.33233 43.8202 8.37254 43.2984 8.57721 42.7618C9.28259 40.9078 9.98798 39.0575 10.6897 37.2035Z" fill="#C1D673"/>
<path d="M34.0552 6.49558C34.4682 6.26614 35.9191 6.21803 36.164 6.38826C37.0996 7.04327 37.2568 6.35865 37.3884 5.64443C37.8525 6.09221 37.6442 7.05437 38.5323 7.1802C38.2436 7.2283 37.9549 7.27271 37.6479 7.32082C37.805 7.7908 38.5177 7.54656 38.5397 8.11646C37.5711 8.17197 37.5711 8.17197 37.3409 9.45239C36.8073 8.56053 35.8351 8.30889 34.9981 7.67608C34.6545 8.47912 35.3051 9.44499 34.2087 9.97418C34.0259 9.05272 33.8505 8.14976 33.6714 7.24681C33.7335 6.96186 34.0003 6.78423 34.0552 6.49558Z" fill="#73A86C"/>
<path d="M11.3988 23.5259C11.2745 25.0358 12.2613 26.2237 12.5975 27.752C11.7752 26.9823 11.0077 26.7418 10.2329 27.6151C9.90026 27.2191 9.90392 26.5197 9.20584 26.4568C8.54431 25.7352 8.37985 24.9507 8.88787 24.0699C9.4032 23.3964 10.072 23.0744 10.9236 23.2077C11.1173 23.2595 11.2745 23.3668 11.3988 23.5259Z" fill="#BAD371"/>
<path d="M41.3539 17.949C40.4292 17.7529 39.4972 17.5716 38.8028 16.8352C38.5579 16.4059 38.7991 16.0321 38.9198 15.6399C39.1135 15.0848 39.362 14.5667 39.8993 14.2595C40.9592 12.3981 41.427 14.2521 42.136 14.6222C42.0629 15.7805 41.9423 16.9203 41.3539 17.949Z" fill="#629C5D"/>
<path d="M9.14736 24.2216C8.62472 24.9803 9.34107 25.7093 9.20584 26.4568C7.817 25.2578 5.43769 26.7677 4.3851 24.6509C4.92236 24.6398 5.45962 24.6509 5.99323 24.6065C6.21983 24.588 6.51953 24.7989 6.64379 24.3141C7.11161 22.4786 7.1372 22.486 8.82208 22.7636C9.07427 23.0855 8.52604 23.4186 8.84401 23.7331C9.01213 23.8553 9.07792 24.0366 9.14736 24.2216Z" fill="#6AA364"/>
<path d="M2.62346 20.1805C3.47504 21.4424 3.33616 22.6933 2.59057 23.9404C1.35157 22.993 1.47584 21.5054 1.13228 20.2027C1.62934 20.1398 2.13371 20.5617 2.62346 20.1805Z" fill="#6EA76B"/>
<path d="M7.3638 6.11441C7.83893 6.13292 8.09477 6.36976 8.10573 6.86194C8.1971 6.93225 8.24096 7.00997 8.24096 7.10248C8.24096 7.2024 8.23 7.25051 8.20807 7.25051C7.79507 7.39853 7.75487 7.7797 7.6708 8.13866C7.53192 8.22377 7.38207 8.27929 7.22126 8.30889C6.58166 8.3385 5.94572 8.00544 5.30612 8.29409C5.24399 7.49845 5.18551 6.70651 5.82511 6.07741C6.34044 5.96639 6.84481 6.24764 7.3638 6.11441Z" fill="#649A60"/>
<path d="M42.1324 14.6259C41.3648 14.6407 40.8605 13.0013 39.8956 14.2632C40.1332 13.5009 39.6361 11.9836 41.3868 12.7756C42.4503 13.0531 41.8802 14.0116 42.1324 14.6259Z" fill="#65975E"/>
<path d="M7.3638 6.11441C6.81557 7.47625 6.31486 6.91005 5.82145 6.07371C5.90186 5.56672 6.12115 5.17075 6.64745 5.02272C6.3441 5.74805 8.54797 4.79328 7.3638 6.11441Z" fill="#76A970"/>
<path d="M0.412277 16.4318C0.796036 17.6641 0.185677 19.0962 1.15056 20.2101C-0.662248 19.2665 0.141819 17.7973 0.412277 16.4318Z" fill="#6EA76B"/>
<path d="M5.30612 8.29039C5.79221 6.80643 6.7242 8.31999 7.37842 7.97583C7.50999 8.62344 7.0641 8.66045 6.62917 8.71226C6.12846 8.61604 5.56927 9.42278 5.11607 8.61234C5.1782 8.50132 5.24033 8.394 5.30612 8.29039Z" fill="#609D5B"/>
<path d="M40.6229 29.7985C40.506 29.1546 39.4314 29.1398 39.6361 28.1443C40.4146 28.1332 40.7399 28.9843 41.4051 29.0806C41.2698 29.458 41.0871 29.7837 40.6229 29.7985Z" fill="#67A060"/>
<path d="M40.9738 11.6728C40.2574 11.3693 40.0564 10.8586 40.3707 10.1407C41.0761 10.4442 41.4087 10.903 40.9738 11.6728Z" fill="#65975E"/>
<path d="M39.5338 9.44129C38.9124 8.9528 39.2706 8.24968 39.1537 7.65018C39.9212 8.10906 39.4314 8.83808 39.5338 9.44129Z" fill="#749D6B"/>
<path d="M9.14736 24.2216C9.03406 24.1032 8.92442 23.9848 8.81112 23.8664C8.9098 23.1003 9.49823 22.6415 9.90757 22.0716C9.55305 21.6053 9.05234 21.2093 9.1766 20.5136C9.07061 20.3952 9.03406 20.2545 9.07061 20.0991C9.16929 19.8031 9.30818 19.5329 9.55671 19.3368C9.7029 19.285 9.85275 19.2702 10.0063 19.2961C10.4412 19.433 10.8432 19.6624 11.2964 19.7365C11.6144 19.7957 11.9287 19.8623 12.2174 20.014C13.1275 20.7023 13.4199 21.4017 12.2686 22.1493C11.7533 22.4823 11.64 23.2151 11.026 23.4593C10.3462 23.5703 9.62249 23.5814 9.14736 24.2216Z" fill="#599752"/>
<path d="M2.26163 15.0033C4.17312 14.5482 5.55465 15.0403 5.90917 17.2052C5.79952 17.3903 5.68257 17.3977 5.55465 17.2237C4.1256 17.2089 3.61027 15.5436 2.26894 15.3697C2.18122 15.2883 2.15198 15.2069 2.17757 15.1255C2.20315 15.044 2.23239 15.0033 2.26163 15.0033Z" fill="#559250"/>
<path d="M7.00928 17.9639C7.25415 17.9972 7.50634 18.3783 7.74756 17.9565C8.94635 18.3857 8.60279 19.3183 8.46391 20.1879C8.16786 20.1916 7.89741 20.2508 7.74025 20.5506C7.88279 20.9466 7.69273 21.0021 7.37111 20.9207C7.37842 20.1287 7.26512 19.4256 6.23079 19.5181C5.86166 19.5514 5.31708 19.9918 5.26592 19.2924C5.21109 18.5708 5.78856 18.9223 6.16135 18.9482C6.57801 18.9778 6.58532 18.6226 6.64379 18.3339C6.55608 17.9935 6.67669 17.8713 7.00928 17.9639Z" fill="#68A463"/>
<path d="M8.46391 20.1879C7.91202 19.5477 8.39081 18.5671 7.74756 17.9565C7.59771 17.3236 7.42228 16.676 8.47122 16.8426C8.9829 17.5087 10.3315 17.8269 9.39224 19.0999C9.08523 19.4145 9.44341 19.8512 9.20584 20.1805C9.19122 20.2916 9.18391 20.4026 9.18026 20.5136C8.88056 20.5395 8.62838 20.4655 8.46391 20.1879Z" fill="#7FB578"/>
<path d="M9.90757 22.0716C10.1122 23.0263 9.37396 23.389 8.81112 23.8664C8.50777 23.9478 8.08746 24.4252 7.91933 23.933C7.69273 23.2632 8.62107 23.2484 8.82208 22.7636C8.86594 22.0197 9.35204 21.9864 9.90757 22.0716Z" fill="#84B477"/>
<path d="M2.26163 15.0033C2.25432 15.1255 2.25432 15.2513 2.26894 15.3734C1.20903 16.1209 3.486 15.6436 2.60519 16.306C2.34204 16.5021 2.34569 17.1201 1.86325 16.9166C1.21634 16.6427 1.16152 15.9914 1.12497 15.3697C1.38812 14.8849 1.65127 14.3927 2.26163 15.0033Z" fill="#95C28E"/>
<path d="M7.00928 17.9639C6.88867 18.086 6.76806 18.2081 6.64379 18.3302C5.94572 18.3006 5.58023 17.9342 5.55099 17.2274C5.6716 17.2237 5.78856 17.2163 5.90917 17.2089C6.7973 16.6797 6.9508 17.2459 7.00928 17.9639Z" fill="#6BA768"/>
<path d="M4.44723 21.9531C4.43626 21.9309 4.30104 21.7237 4.24256 21.498C4.16581 21.2167 4.33027 20.9984 4.60439 21.0872C4.79079 21.1501 4.96256 21.3832 5.05028 21.5794C5.13434 21.7755 4.96256 21.8939 4.44723 21.9531Z" fill="#6EA76B"/>
<path d="M2.62346 20.1842C2.82813 19.7735 3.05108 19.396 3.55179 19.8438C3.71626 19.9918 3.98306 20.236 3.76377 20.4174C3.35078 20.7652 3.00356 20.2953 2.62346 20.1842Z" fill="#6EA76B"/>
<path d="M7.37111 20.9207C7.49537 20.7985 7.61598 20.6727 7.74025 20.5506C8.05822 20.7874 8.19345 21.0872 7.93761 21.4387C7.79141 21.6386 7.50634 21.7348 7.34552 21.5424C7.2505 21.4276 7.35649 21.1353 7.37111 20.9207Z" fill="#6AA364"/>
<path d="M32.5896 30.8902C33.4887 31.016 34.0296 31.9227 35.031 31.8708C34.406 32.4629 33.8578 31.8301 33.3169 32.0226L33.3205 32.0263C32.4616 31.1196 31.5808 32.0189 30.711 31.9967C30.5246 31.8042 30.4844 31.5563 30.4734 31.3046C30.4551 30.7014 30.2687 30.1537 30.0239 29.6024C29.7022 28.8844 29.8046 28.333 30.7548 28.3256C31.1715 29.3322 32.6444 28.1961 32.9514 29.4358C32.8344 29.8096 33.5581 30.4609 32.5896 30.5497C32.3922 30.7311 32.2533 30.4905 32.0852 30.4794C32.1729 30.7162 32.4361 30.7348 32.5896 30.8902Z" fill="#6EA769"/>
<path d="M34.7642 23.1743C34.8336 23.7442 34.2489 23.8627 34.0442 24.2475C32.776 24.9321 33.6239 26.2422 33.2036 27.2043C32.6042 26.7307 32.3885 25.8129 31.4748 25.7648C31.3615 25.8795 31.23 25.9461 31.0728 25.9757C30.5246 25.9646 29.969 26.0571 29.4427 25.8203C28.1087 24.6287 29.7022 24.5843 30.1116 24.0699C31.3433 24.3882 32.4909 24.5621 33.3571 23.2225C33.6348 22.7895 34.2744 22.6637 34.7642 23.1743Z" fill="#4D884A"/>
<path d="M29.6766 25.7167C30.1627 25.713 30.6561 25.3725 31.1313 25.7463C31.3286 26.5382 30.6196 26.9601 30.3967 27.5818C30.5136 28.1554 31.208 27.5337 31.314 28.0407C31.325 28.0925 30.9485 28.2294 30.7548 28.3256C30.3418 28.5773 29.874 28.8289 30.3601 29.3951C30.8535 29.9687 30.9376 30.5941 30.7292 31.2935C30.1956 31.4379 29.9581 31.0567 29.6986 30.7088C29.3989 30.1797 29.2271 29.5987 29.0297 29.0288C28.9786 28.8585 28.9493 28.6846 28.9347 28.507C28.9895 27.6114 29.154 26.7381 29.4793 25.898C29.5451 25.8388 29.6109 25.7796 29.6766 25.7167Z" fill="#5C9956"/>
<path d="M36.9754 29.0621C36.7342 29.1842 36.4929 29.3026 36.2481 29.4247C36.4564 28.7882 38.3569 27.6891 38.748 28.0444C39.2158 28.47 38.4337 28.6772 38.43 29.0584V29.0547C37.9476 29.3507 37.4615 29.3248 36.9754 29.0621Z" fill="#6BA266"/>
<path d="M35.8716 30.9161C34.9287 30.8902 33.8615 30.9827 34.4243 29.4432C35.2795 29.5579 35.9813 29.8318 35.8716 30.9161Z" fill="#6DA668"/>
<path d="M30.3967 27.5818C30.2395 26.8047 30.7768 26.3125 31.1313 25.7463C31.2446 25.7426 31.3615 25.7463 31.4748 25.7611C31.9682 26.8861 30.9376 27.0859 30.3967 27.5818Z" fill="#68A265"/>
<path d="M39.5667 25.7352C39.9029 25.6168 40.2355 25.4983 40.5718 25.3799C40.5791 25.9979 40.3342 26.4346 39.7129 26.5974C39.6617 26.3088 39.6142 26.0238 39.5667 25.7352Z" fill="#89B884"/>
<path d="M32.9624 11.6691C33.3461 12.2205 33.8688 12.2057 34.4316 12.0354L34.4279 12.0317C34.2635 13.0124 35.0895 13.7044 35.1553 14.6185C35.042 15.7361 34.2452 16.0395 33.3278 16.1949C33.1414 15.9951 33.1085 15.7435 33.1012 15.4844C33.1378 15.3216 33.2072 15.1662 33.2584 15.0033C33.3096 14.8368 33.284 14.6666 33.273 14.4964C33.0537 14.5852 33.2145 14.8146 33.1159 14.9515C32.8856 15.2957 32.977 15.6436 33.083 15.9951C33.061 16.3171 32.9514 16.6686 33.3278 16.8796C33.368 16.924 33.4009 16.9869 33.4484 17.0128C34.0332 17.3162 35.2284 16.3245 35.232 17.653C35.2357 18.6411 34.3366 19.111 33.3205 19.0777C33.2438 19.0518 33.1634 19.0259 33.0866 19.0037C32.542 18.6115 32.0267 18.6633 31.4858 19.0518C30.9376 19.4441 30.3089 19.544 29.6438 19.3886C29.3002 19.2813 29.0188 19.0925 28.8507 18.7595C28.7739 18.2377 29.1796 17.9935 29.461 17.6789C30.1664 16.9906 30.4588 16.021 31.1751 15.1551C29.7899 15.1477 29.4829 14.1004 29.0407 13.1826C28.8799 12.7237 28.529 12.3278 28.5108 11.8356C28.4888 11.3175 28.9128 10.5848 29.2417 10.8475C30.2212 11.6284 31.1788 10.4368 32.0669 11.0104C32.2058 11.1029 32.3228 11.2176 32.4105 11.3619C32.5603 11.5173 32.3593 12.3093 32.9624 11.6691Z" fill="#609A5C"/>
<path d="M30.4003 5.75175C30.5246 5.75545 30.6488 5.75915 30.7731 5.75915C30.7841 6.82123 29.6438 6.82493 29.2783 7.45034C29.8301 7.15799 30.3126 7.43924 30.7804 7.8093C31.1715 8.31259 30.8681 9.10453 31.4748 9.519C32.0888 9.88166 32.8746 9.92607 33.3278 10.5737C33.1999 10.8179 33.0757 11.0659 32.9477 11.3101C32.7029 11.521 32.4653 11.5173 32.2241 11.3027C31.5772 10.5626 30.1993 10.9141 29.874 9.69293C29.6511 9.40798 29.271 9.30066 29.059 8.99351C29.2563 9.31546 29.6766 9.45609 29.7753 9.85946C29.567 10.6403 29.0224 10.5182 28.4998 10.2998C28.0064 10.0926 27.5751 9.74104 27.0269 9.65592C26.2557 9.64852 26.5664 8.60864 25.9195 8.47542C25.4626 8.3385 25.0606 8.01284 24.5489 8.12756C24.3881 8.14606 24.2309 8.12756 24.0738 8.07945C23.6461 7.85001 23.2185 7.61317 22.9737 7.15799C23.0504 6.42157 23.1381 5.68514 23.4561 5.00422C24.8742 4.38251 25.9743 4.44173 26.2959 6.30685C26.3507 6.6214 26.3507 7.15429 26.8661 7.06178C27.3704 6.96926 27.3375 6.58439 27.0561 6.24394C26.6175 5.71104 26.8734 5.20776 27.3229 5.03753C28.2293 4.70077 27.4106 5.56672 27.7213 5.75545C27.9589 5.89607 28.2257 6.00709 28.3609 5.81466C29.0334 4.8673 29.7315 5.92938 30.4003 5.75175Z" fill="#629E5E"/>
<path d="M28.9347 18.7003C29.1796 18.8261 29.4208 18.9482 29.6657 19.074C29.9361 19.2813 30.2358 19.4626 30.2724 19.8549C30.3053 20.5506 30.1774 21.1797 29.5378 21.5831C30.6854 21.5054 30.4003 20.4914 30.6525 19.8327C30.7768 19.7106 30.9266 19.6402 31.0984 19.6217C31.6978 19.655 31.928 20.1472 32.235 20.5506C32.352 20.5543 32.469 20.558 32.5859 20.5617C32.6956 21.4758 33.6495 22.4934 32.1546 23.2225C32.7248 22.9301 32.9952 22.4601 33.3205 22.042C34.2087 21.9901 34.417 20.5617 35.5134 20.9281C35.5427 21.0058 35.5683 21.0835 35.5975 21.1612C35.4513 21.6275 35.0127 21.9642 35.0273 22.4971C34.9981 22.7229 34.9652 22.9486 34.7971 23.1188C34.7971 23.1188 34.7679 23.1743 34.7642 23.1743C34.2525 23.0929 33.6787 23.1336 33.4558 23.6073C32.5896 25.4724 31.3506 24.984 30.0385 24.2586C28.8835 25.4354 28.0904 24.8507 27.407 23.7109C27.2681 23.4741 27.1914 23.2151 27.1767 22.9412C27.2096 22.4268 27.2681 21.9124 27.3741 21.4054C27.7469 20.854 28.5217 20.4137 27.3156 19.7735C26.0657 19.111 26.6285 18.5041 27.6446 18.1378C28.0831 18.2895 28.529 18.4486 28.9347 18.7003Z" fill="#67A162"/>
<path d="M38.4885 16.8204C37.6844 15.4881 36.7926 15.218 35.6669 16.7907C36.0982 15.3919 36.5587 14.1855 35.327 13.1567C36.6318 12.9162 37.7575 12.9199 38.0718 13.1493C38.4519 13.0309 38.5799 13.3084 38.7187 13.5712C38.7955 13.9635 38.8467 14.3631 38.8978 14.7591C38.8796 15.4733 38.8211 16.1727 38.4885 16.8204Z" fill="#629C5D"/>
<path d="M31.1276 6.15882C31.7489 5.71104 31.3323 5.05973 31.431 4.40842C32.3301 4.871 32.1364 5.88127 32.5969 6.49928C32.8454 6.73982 33.2657 6.80643 33.3132 7.24311C33.1999 7.97583 33.6093 8.79737 32.9697 9.44499C32.5347 9.23035 32.3228 8.80107 32.0267 8.44581C31.928 8.31999 31.8367 8.18677 31.7453 8.05725C31.5004 7.69458 31.0947 7.55026 30.7768 7.29492C29.98 6.66211 30.3893 6.34755 31.1276 6.15882Z" fill="#4C8648"/>
<path d="M40.9957 19.8142C40.7289 20.1657 40.2794 20.4359 40.6448 21.0095C40.9153 21.4313 40.696 21.6571 40.2355 21.683C39.4424 21.6312 39.1902 20.9873 39.0294 20.3878C38.8905 19.8697 38.6493 20.1472 38.419 20.1657C38.2911 20.0325 38.1595 19.8993 38.0316 19.7661C37.7466 19.2221 37.9476 18.8964 38.4885 18.7262C40.2063 16.998 40.1916 19.3738 40.9957 19.8142Z" fill="#73A86E"/>
<path d="M33.3205 22.0346C33.2072 22.3787 33.1451 22.7525 32.9733 23.0633C32.7284 23.5111 32.6919 24.2031 31.9573 24.1735C31.6649 24.1624 31.5699 23.933 31.6466 23.648C31.8001 23.0707 31.6137 22.2418 32.6261 22.2825C32.6809 22.2862 32.7431 22.0975 32.7979 22.0012C32.5165 21.435 31.9975 22.2122 31.6722 21.7607C31.6576 21.1279 32.5055 21.1242 32.5896 20.5543C34.9433 19.9733 33.1341 21.5128 33.3205 22.0346Z" fill="#609A5C"/>
<path d="M32.2643 8.29779C32.7248 8.53833 32.9112 8.9565 32.9733 9.44869C33.0903 9.82615 33.2109 10.1999 33.3278 10.5774C32.5969 10.2998 31.7526 10.3553 31.102 9.82985C30.9083 8.86769 31.5991 8.59014 32.2643 8.29779Z" fill="#87BA81"/>
<path d="M35.5134 20.9244C35.9447 19.6365 36.2919 18.2636 38.0536 18.2858C37.8489 19.2517 37.2495 19.9881 36.6684 20.7356C36.3321 21.0798 35.9739 21.3055 35.5134 20.9244Z" fill="#67A162"/>
<path d="M33.3096 16.0506C34.1538 15.8767 34.6582 15.2513 35.1553 14.6148C35.8972 16.4873 33.7628 15.9766 33.3315 16.8759C33.0683 16.9462 32.6115 17.1349 32.5713 17.0683C32.3008 16.6242 32.6627 16.3578 32.9587 16.095C33.0537 15.9359 33.1707 15.9174 33.3096 16.0506Z" fill="#7BB17A"/>
<path d="M32.235 20.5432C31.6576 20.6172 31.5077 20.0362 31.124 19.8068C31.5589 18.6485 32.3374 18.5486 33.3205 19.074C33.3973 19.8956 32.5932 20.051 32.235 20.5432Z" fill="#609A5C"/>
<path d="M36.5953 20.5432C37.0704 19.7846 37.2203 18.8076 38.0536 18.2858C38.1961 18.4338 38.3423 18.5819 38.4848 18.7299C38.335 19.0777 38.1815 19.4219 38.028 19.7698C37.6698 20.1435 37.3116 20.521 36.9534 20.8948C36.6318 20.991 36.4856 20.9022 36.5953 20.5432Z" fill="#3F7A3E"/>
<path d="M38.4885 16.8204C38.4739 16.0987 38.4592 15.3808 38.4483 14.6592C39.7129 14.2817 39.3072 15.1144 39.2048 15.7287C39.0696 16.0987 38.9344 16.4688 38.7991 16.8389C38.6968 16.8352 38.5908 16.8315 38.4885 16.8204Z" fill="#8AB988"/>
<path d="M32.2241 11.3027C32.4653 11.3064 32.7065 11.3064 32.9477 11.3101C32.9514 11.4285 32.955 11.5469 32.9624 11.6691C32.9295 12.2575 33.0135 12.9199 32.1364 13.0161C31.7782 12.4166 32.4068 11.8763 32.2241 11.3027Z" fill="#70A86A"/>
<path d="M33.3169 7.24311C33.0172 7.05437 32.6809 6.90265 32.6005 6.49928C33.0866 6.49928 33.5727 6.49558 34.0552 6.49558C34.6143 7.10248 34.1173 7.16169 33.675 7.24681L33.496 7.2357L33.3169 7.24311Z" fill="#86B680"/>
<path d="M34.4316 12.0354C34.5339 11.7653 34.5851 11.4507 34.7569 11.2398C34.9981 10.9511 35.444 10.7846 35.656 11.1584C35.9118 11.6062 35.3819 11.7135 35.1041 11.8615C34.9067 11.9688 34.6545 11.9762 34.4279 12.028C34.4243 12.028 34.4316 12.0354 34.4316 12.0354Z" fill="#75AC70"/>
<path d="M38.441 13.5083C38.3167 13.3899 38.1961 13.2714 38.0718 13.153C38.0682 12.9014 38.0645 12.6534 38.0645 12.4018C38.547 12.4129 38.8028 12.6608 38.832 13.1493C38.9015 13.4898 38.7845 13.623 38.441 13.5083Z" fill="#7AB173"/>
<path d="M37.3409 11.3027C37.0923 11.3175 36.8438 11.3323 36.5989 11.3508C36.4162 11.1917 36.2152 10.9289 36.4454 10.7846C36.9754 10.4479 37.1179 10.9882 37.3409 11.3027Z" fill="#87B87C"/>
<path d="M38.419 20.1694C38.7005 19.7106 39.0038 19.2776 39.9395 19.1185C38.9563 20.2953 39.5922 20.991 40.2392 21.6867C39.0038 21.9457 38.6968 21.0761 38.419 20.1694Z" fill="#588F55"/>
<path d="M36.5953 20.5432C36.7159 20.6616 36.8365 20.7763 36.9571 20.8948C36.7999 21.6978 35.8826 21.5017 35.5098 22.0197C35.3636 22.3158 35.2028 22.5896 34.8007 22.4231C34.4279 21.6201 35.4696 21.5165 35.5207 20.9281C35.8753 20.7985 36.2371 20.6727 36.5953 20.5432Z" fill="#538B4C"/>
<path d="M39.7275 23.3853C39.6507 23.4556 39.5045 23.6776 39.3145 23.7331C39.0404 23.8109 38.8576 23.5814 38.9673 23.3261C39.0477 23.1447 39.2743 22.9856 39.4716 22.9227C39.6434 22.8672 39.7969 23.0189 39.7275 23.3853Z" fill="#75AC73"/>
<path d="M34.7971 22.4231C35.0347 22.2899 35.2722 22.1567 35.5061 22.0197C35.9337 22.8302 35.1114 22.8043 34.7934 23.1188C34.7934 22.8857 34.7971 22.6563 34.7971 22.4231Z" fill="#81B27C"/>
<path d="M18.7048 6.86194C19.063 7.59837 19.4248 7.61687 19.7903 6.86564C21.106 7.05437 21.3655 7.7982 20.7771 8.90469C20.3495 9.71143 19.7172 10.396 19.3407 11.2398C18.9826 11.7949 18.4745 12.1835 17.9117 12.4943C17.4292 12.7645 17.3671 13.0605 17.7874 13.438C18.2187 13.9302 18.7779 14.3779 18.3685 15.1551C18.0652 15.5769 18.0104 16.1468 17.612 16.4947C17.495 16.4318 17.4329 16.4799 17.4548 16.6279C17.4621 16.6723 17.517 16.6908 17.5974 16.6982C18.0542 17.4088 17.5791 18.345 18.1785 19.0111C18.1748 19.1851 18.12 19.3442 18.0213 19.4848C17.3525 19.6587 16.9322 19.2443 16.5265 18.8631C16.7677 19.3812 17.5535 19.3849 17.7216 20.0288C17.6778 20.5136 17.3525 20.8133 17.0309 21.1168C16.7421 21.3388 16.4278 21.4869 16.055 21.4647C15.1486 21.3795 14.3811 21.0317 13.8292 20.2693C13.5734 19.0851 14.6114 17.6752 13.2116 16.6908C12.8863 16.1135 12.4915 15.4511 12.9484 14.8701C13.5368 14.1226 14.096 15.0107 14.6771 15.1033C14.9257 15.1958 15.1742 15.5251 15.4337 15.1699C15.547 15.0144 15.3606 14.8479 15.2327 14.7184C13.9096 14.3927 12.5793 13.9931 12.5244 16.1579C12.5171 16.4725 12.1151 16.7204 11.8373 16.9462C10.6459 17.9083 9.76869 17.7492 9.28259 16.206C9.2899 16.0395 9.32645 15.8767 9.38858 15.7213C10.1707 14.8553 8.95366 14.7628 8.83305 14.2484V14.2521C9.01579 13.0235 9.88564 13.116 10.6641 13.4084C11.5303 13.7303 12.148 13.6637 12.5902 12.8052C12.7876 12.5313 13.0361 12.3352 13.3687 12.276C13.9498 12.3648 14.0558 11.9429 14.1472 11.5136C14.308 11.0326 14.8672 10.7291 14.7393 10.1222C14.71 9.88166 14.7064 9.64482 14.7393 9.40798C14.7722 9.24885 14.8343 9.10083 14.9184 8.9602C15.1413 8.70856 15.4008 8.54573 15.748 8.60864C17.1149 8.67155 17.4037 6.89895 18.7048 6.86194Z" fill="#5F9B5B"/>
<path d="M15.7809 8.71226C15.536 8.83438 15.2948 8.9602 15.0499 9.08232C14.9915 9.23775 14.6845 9.16744 14.7466 9.43018C14.8489 9.33767 14.9476 9.34877 15.0499 9.45979C15.0499 9.70403 15.0499 9.94827 15.0499 10.1925C14.5967 11.7283 13.376 11.6173 12.1809 11.5692C11.523 11.4988 9.8893 12.609 10.8944 10.4923C11.1393 10.2443 11.4353 10.1 11.7642 10.0149C11.9908 9.90016 12.2905 10.1222 12.4842 9.85206C12.2723 9.74474 12.0383 9.82615 11.8154 9.77804C11.0442 9.61151 10.3973 9.24885 9.92219 8.60124C9.83813 8.44951 9.80524 8.28669 9.8162 8.11646C10.4704 7.32452 10.1927 6.23653 10.6568 5.38539L10.6678 5.37429C11.1575 5.21886 11.6144 5.40759 12.0786 5.50011C12.4331 5.67034 12.7766 5.73695 13.0836 5.40019C13.3614 5.20406 13.6428 5.08934 13.9352 5.37058C13.6209 5.87387 13.6136 6.37346 13.9498 6.86564C14.2532 7.32822 14.1837 8.22007 15.145 7.93143C15.2254 7.93883 15.3094 7.94993 15.3898 7.95733C15.5178 7.96473 15.6493 7.97213 15.7773 7.98323C16.0039 8.22748 15.971 8.46802 15.7809 8.71226Z" fill="#679E61"/>
<path d="M19.0666 11.3101C18.9095 10.3997 19.5673 9.88906 20.0498 9.30436C20.8063 8.3866 20.9196 7.56876 19.7903 6.86934C19.0776 6.19213 19.6697 5.71474 20.0205 5.15595C20.6199 5.39649 19.8012 6.49928 20.5797 6.31055C21.2157 6.15882 22.1184 6.34755 22.4912 5.62593C22.7361 5.15595 23.0285 5.04863 23.4524 5.01162C23.7741 5.82206 23.5109 6.53628 23.087 7.2246C23.3611 7.53546 23.4195 7.88332 23.2624 8.26818C22.9006 8.80107 22.3194 8.69746 21.8297 8.80478C22.0855 8.9343 22.4547 8.70486 22.7178 8.9713C23.0541 10.063 21.6908 10.422 21.7127 11.3804C21.0256 11.5543 20.3312 11.6802 19.666 11.9799C19.1397 12.2131 18.6902 12.0687 19.0666 11.3101Z" fill="#66A263"/>
<path d="M15.7809 8.71226C15.7809 8.46802 15.7809 8.22748 15.7809 7.98323C16.3036 7.232 17.0089 6.67691 17.7984 6.26244C18.3832 5.95899 18.533 6.09591 18.7048 6.86194C18.1017 7.96473 16.9395 8.48652 16.0952 9.34877C15.7115 9.73734 15.9308 8.9269 15.7809 8.71226Z" fill="#66A364"/>
<path d="M16.1281 6.46597C15.3094 6.43637 15.4081 5.92938 15.7444 5.51121C16.1427 5.01532 15.9527 3.7164 17.2209 4.2863C17.5316 4.81919 16.903 5.02272 16.8335 5.42239C16.9322 6.00339 16.3584 6.11441 16.1281 6.46597Z" fill="#78AD71"/>
<path d="M16.8372 5.42239C16.4022 4.84509 17.3233 4.74518 17.2246 4.2863C17.2429 4.05686 17.2611 3.82372 17.2831 3.59428C17.495 3.31673 17.7253 3.35374 17.9629 3.55357C18.0981 3.79781 18.2297 4.03835 18.3612 4.2826C18.5659 4.53424 18.5513 4.77478 18.3357 5.01162C17.8349 5.14855 17.3342 5.28547 16.8372 5.42239Z" fill="#467C46"/>
<path d="M29.3367 2.36937C29.2052 3.7201 29.1686 3.7386 27.5276 3.10579C28.2074 2.83565 28.7849 2.60621 29.3587 2.38047C29.3623 2.38047 29.3367 2.36937 29.3367 2.36937Z" fill="#70A569"/>
<path d="M24.1871 3.55727C24.2309 3.16871 24.0409 2.5729 24.6476 2.5729C25.1337 2.5692 25.2616 3.06509 25.2689 3.52397C24.9071 3.53137 24.5452 3.54617 24.1871 3.55727Z" fill="#7CB073"/>
<path d="M18.3357 5.01162C18.343 4.76738 18.3503 4.52684 18.3576 4.2826C18.7011 4.20858 19.2019 3.63129 19.3371 4.36771C19.476 5.10414 18.7889 4.97092 18.3357 5.01162Z" fill="#689F66"/>
<path d="M17.9592 3.55357C17.7326 3.56467 17.506 3.57948 17.2794 3.59428C16.8408 2.73573 17.5937 2.92816 17.9702 2.78754C18.0981 2.91706 18.2224 3.04288 18.3503 3.17241C18.2224 3.30193 18.0908 3.42775 17.9592 3.55357Z" fill="#75AC6D"/>
<path d="M26.0218 3.52397C26.0145 3.20571 26.0949 2.93186 26.3909 2.76904C26.6358 2.85415 27.0634 2.82825 26.9172 3.23902C26.7784 3.62758 26.3434 3.48696 26.0218 3.52397Z" fill="#7CB073"/>
<path d="M14.6845 7.232C15.0975 7.02107 15.441 6.95816 15.4374 7.60947C15.4081 7.72419 15.3935 7.84261 15.3972 7.96103L15.4154 7.95733C14.5931 8.31259 14.4432 7.97583 14.6845 7.232Z" fill="#7FB578"/>
<path d="M9.21315 43.5056C9.1766 42.1956 10.3352 41.5221 10.9492 40.6636C12.031 39.1463 12.4294 38.5061 11.7606 36.4596C11.8812 35.8231 11.9945 35.1829 12.667 34.8499C13.1604 35.4938 11.9908 36.2487 12.8461 36.826C13.4601 36.7187 13.5076 36.2228 13.6063 35.738C13.6867 35.3605 13.6282 34.8018 14.3117 34.9831C16.1793 34.28 16.5338 33.4473 15.4191 32.3889C16.0696 30.9383 16.1062 29.2582 17.0272 27.9075C17.6339 27.3857 18.131 27.2895 18.1602 28.3145C18.1821 29.0325 17.8825 29.6986 17.6303 30.4276C18.0396 29.8873 18.0871 28.9621 18.9277 29.088C19.6551 29.199 19.0374 30.0945 19.4796 30.4609C19.5856 30.6903 19.3919 30.9309 19.4321 31.09C19.4833 31.2824 19.1982 31.2639 19.3627 31.1344C19.772 30.8088 19.5308 30.4313 19.3261 30.0834C19.5089 29.3433 19.6441 28.5847 20.09 27.9445C20.7186 28.1591 21.4423 28.1739 21.8991 28.7808C22.6411 30.1723 22.0599 31.4786 21.6543 32.796C21.413 34.5797 20.2544 36.0933 20.1704 37.9214C19.3152 39.3942 19.5271 37.4403 19.0886 37.5772C18.7596 37.1591 19.1361 36.6595 18.8802 36.06C18.5988 38.68 17.7107 41.004 17.2063 43.4205C17.4877 42.7063 16.998 40.9892 18.7158 42.3844C19.1141 43.0283 18.8108 43.7314 18.8802 44.4049C18.6682 45.1117 18.1273 45.4226 17.4695 45.5928C16.7677 45.3042 15.7626 45.6668 15.4191 44.6121C16.1903 44.4641 16.3876 44.1163 15.7955 43.4982C15.0207 42.4399 15.5689 41.4074 15.8942 40.2269C15.6128 40.9337 15.5397 41.5776 15.0499 42.0143C14.5492 43.3872 13.7196 44.0422 12.2065 43.5131C11.2233 43.1689 10.2109 44.0644 9.21315 43.5056Z" fill="#C5D879"/>
<path d="M29.3075 29.051C29.5305 29.5468 29.757 30.0464 29.98 30.5423C28.9603 31.127 28.942 32.2483 28.6021 33.1957C28.2476 33.7138 27.7761 34.0801 27.1913 34.2985C26.3763 33.9654 25.5503 32.9292 24.622 34.6574C25.6051 32.067 23.9385 32.5 22.7324 32.4296C22.9225 30.9087 24.5452 30.7125 25.236 29.6542C25.5576 29.4765 25.8975 29.4543 26.2484 29.5172C26.9355 29.7023 27.5861 29.9354 27.7432 30.757C28.1964 30.113 28.646 29.4839 29.3075 29.051Z" fill="#BFD472"/>
<path d="M18.7048 42.3844C17.7655 41.9144 17.4621 42.129 17.7947 43.1874C17.9811 43.7721 17.7545 44.453 17.1515 44.416C16.4059 44.3716 16.8225 43.6648 16.8701 43.2392C17.1588 40.6599 18.5367 38.2989 18.3759 35.6196C18.3539 35.2828 18.5769 35.046 18.946 35.0645C19.3078 35.083 19.4833 35.3754 19.5381 35.664C19.6733 36.3597 19.3334 36.9629 19.0776 37.5772C18.946 38.3137 18.5769 39.0094 18.7048 39.7939C17.8898 40.6562 19.063 41.5184 18.7048 42.3844Z" fill="#BED46B"/>
<path d="M21.2705 32.7738C21.6104 31.4305 22.0344 30.0908 21.6214 28.6809C21.0183 27.4708 21.6798 26.664 22.4839 25.9054C22.6886 25.5687 23.372 26.1386 23.4232 25.2467C23.4597 24.6213 24.0336 25.0543 24.3406 25.3318C24.6037 25.861 24.4758 26.3754 24.2675 26.8824C23.7156 27.5744 23.9056 28.407 23.8508 29.1953C22.9188 30.2019 22.7873 31.6303 22.0161 32.722C22.0088 32.8589 21.9978 32.9995 21.9905 33.1365C21.5848 33.3511 21.4679 32.981 21.2705 32.7738Z" fill="#B4D06E"/>
<path d="M21.2705 32.7738C21.5117 32.8922 21.7529 33.0143 21.9905 33.1328C21.3034 34.6981 21.0402 36.43 20.1594 37.9214C19.37 37.1183 20.185 36.4263 20.3824 35.7454C20.6674 34.7536 21.2339 33.847 21.2705 32.7738Z" fill="#A3C253"/>
<path d="M22.3596 37.9436C21.837 38.7466 21.4313 39.6792 20.7552 40.3194C19.889 41.1446 20.3166 40.0493 20.1777 39.7976C21.117 39.3165 21.0768 38.0731 21.8955 37.5069C22.5972 37.0258 22.5607 37.407 22.3596 37.9436Z" fill="#B4CE63"/>
<path d="M15.4118 44.6084C16.0477 45.1487 16.881 45.0895 17.6083 45.3412C18.0213 45.1228 18.1968 45.3856 18.3393 45.7112C18.9022 46.2256 19.5527 46.666 19.7355 47.4875C17.4548 46.0887 15.1194 44.8601 12.148 44.9193C12.8643 44.4049 12.9374 44.4012 15.4118 44.6084Z" fill="#B7CE66"/>
<path d="M15.0426 42.0069C15.1377 40.8708 15.5324 39.842 16.2232 38.8836C16.5484 40.4674 15.4264 41.9218 15.7882 43.4908C14.7758 43.3909 15.123 42.5879 15.0426 42.0069Z" fill="#D8E5A5"/>
<path d="M28.6021 33.1957C28.4413 31.9819 27.8638 30.546 29.98 30.5423C30.2285 30.794 30.4807 31.0456 30.7292 31.2972C30.7219 31.5304 30.7183 31.7672 30.711 32.0004C30.2139 32.3112 29.5816 32.4518 29.3404 33.0958C29.0955 33.1291 28.847 33.1624 28.6021 33.1957Z" fill="#C6DA8A"/>
<path d="M33.3169 32.0226C33.1707 32.8774 32.6882 32.8626 32.045 32.5296C32.257 31.7339 32.8929 32.1521 33.3242 32.0263C33.3205 32.0263 33.3169 32.0226 33.3169 32.0226Z" fill="#72AB6E"/>
<path d="M32.5896 30.8902C32.1437 30.8717 31.5772 31.016 31.5699 30.2907C31.5662 30.0982 31.7563 29.7504 31.8805 29.7393C32.4214 29.6838 32.151 30.4498 32.5896 30.5497C32.5896 30.6644 32.5896 30.7792 32.5896 30.8902Z" fill="#60975C"/>
<path d="M36.9754 29.0621C37.4615 29.0584 37.9476 29.0584 38.4337 29.0547C38.2692 29.9206 38.2692 29.9206 36.9754 29.0621Z" fill="#5A9357"/>
<path d="M12.1261 5.75175C11.5961 5.80356 11.121 5.64073 10.6714 5.37428C10.6459 4.71927 11.0004 4.82659 11.3914 5.00422C11.9287 5.33728 12.1407 4.61935 12.5756 4.62676C13.0654 4.43062 12.8461 3.79411 13.2298 3.53137L13.2262 3.53507C15.5762 3.29823 13.4235 4.871 13.9425 5.36688C13.6465 5.38539 13.3724 5.4483 13.2225 5.74805C12.857 6.0626 12.4915 6.0182 12.1261 5.75175Z" fill="#74A96E"/>
<path d="M14.6845 7.232C14.6771 7.73159 14.944 7.94993 15.4154 7.95363C14.9951 8.43471 14.2897 8.74186 13.8694 8.48282C13.2152 8.08315 14.0412 7.43184 13.9571 6.86564C14.2568 6.86934 14.5273 6.93595 14.6845 7.232Z" fill="#568F54"/>
<path d="M16.4461 3.1206C16.2707 3.26862 16.1647 3.43145 16.0404 3.44625C15.8979 3.46106 15.6457 3.38334 15.6091 3.27972C15.5068 3.00588 15.7078 2.84675 15.96 2.85415C16.0989 2.86155 16.2305 2.99478 16.4461 3.1206Z" fill="#52874D"/>
<path d="M18.3393 45.7112C18.0944 45.5891 17.8532 45.4633 17.6083 45.3412C17.8788 44.8786 18.5549 44.8157 18.6975 44.2236C18.5659 43.6648 18.7706 43.1985 19.0739 42.7544C19.5308 42.9061 19.3809 41.2594 20.1631 42.3807C19.8853 43.3983 19.6477 44.4308 19.0703 45.3375C18.9131 45.6372 18.639 45.7038 18.3393 45.7112Z" fill="#CCDD87"/>
<path d="M19.0739 45.3375C19.1836 44.2569 19.3956 43.2133 20.1667 42.3807C20.408 43.5982 20.2398 44.6565 19.0739 45.3375Z" fill="#B5CF61"/>
<path d="M19.0739 42.7544C19.1178 43.2873 18.9533 43.7684 18.6975 44.2236C17.9117 43.6056 18.7998 42.995 18.7011 42.3807C18.8254 42.5065 18.9497 42.6323 19.0739 42.7544Z" fill="#BED46B"/>
<path d="M14.2642 25.0543C13.387 24.4067 13.884 23.2003 13.2371 22.4601C12.6889 21.5128 13.1275 21.1057 14.0412 20.9614C14.3482 20.9799 14.6077 21.1205 14.8526 21.2944C15.4995 22.2122 17.3342 22.0012 17.1296 23.7368C16.5302 24.9655 15.536 25.3207 14.2642 25.0543Z" fill="#6BA850"/>
<path d="M14.3372 21.2796C13.4893 21.213 13.1238 21.6053 13.2335 22.4601C12.9448 23.3853 12.2394 23.5777 11.3951 23.5259C11.2708 23.5074 11.1502 23.4852 11.026 23.463C11.3037 22.9116 11.1612 22.1567 11.9506 21.8569C13.0142 21.4536 12.6304 20.8096 12.1114 20.199C12.7766 18.9112 12.9484 18.926 13.9645 20.3878C14.2459 20.6172 14.4944 20.8615 14.3372 21.2796Z" fill="#69A45C"/>
<path d="M14.2642 25.0543C15.1048 24.5917 16.1866 24.6842 16.8774 23.8849C17.2429 24.3141 17.1734 24.9025 17.4146 25.3799C17.4402 25.5428 17.4439 25.7019 17.4219 25.8647C17.3123 26.3532 17.2757 26.8676 16.9578 27.2895C16.8152 27.3931 16.6581 27.4634 16.4826 27.4967C15.1048 27.4967 14.9257 26.2348 14.3299 25.4095C14.3117 25.2874 14.2897 25.169 14.2642 25.0543Z" fill="#659957"/>
<path d="M13.9571 20.5506C13.3541 20.3767 12.9996 18.8779 12.1151 20.1953C11.7533 20.1916 11.3951 20.1842 11.0333 20.1805C10.8944 19.5773 10.2877 19.7032 9.92585 19.4515C9.82351 19.4367 9.72118 19.4219 9.61884 19.4071C9.30452 19.4478 9.05599 19.3146 8.84767 19.0888C9.14005 18.6559 9.94047 18.2229 8.77457 17.8306C8.37985 17.6974 8.4968 17.1978 8.46756 16.8426C8.46391 16.7278 8.4566 16.6094 8.45294 16.4947C8.50046 16.4244 8.54797 16.3541 8.59548 16.2801C8.88056 16.0654 9.1766 15.9174 9.53478 16.0987C9.89295 17.4939 10.8834 16.9943 11.7533 16.8574C11.8227 16.8944 11.8958 16.9314 11.9689 16.9684C12.3709 17.2015 12.7693 17.4495 13.1823 16.9906C13.2847 16.7945 13.4126 16.6242 13.5843 16.4873C14.9111 17.5938 14.8014 18.8483 13.9498 20.1805C14.0449 20.2619 14.0778 20.3471 14.0449 20.4322C14.0193 20.5099 13.9864 20.5506 13.9571 20.5506Z" fill="#6FAA69"/>
<path d="M11.0369 10.5589C10.4558 12.1613 11.83 10.9326 12.0968 11.3101C12.6597 11.6469 12.8461 12.1761 12.8497 12.8015C12.8643 14.3853 11.8666 14.6629 10.8469 13.9857C9.91123 13.364 9.44341 13.7044 8.84036 14.2669C7.58309 14.9663 6.99831 14.3076 6.6511 13.1604C6.62552 13.079 6.59993 12.9939 6.57435 12.9125C6.70958 12.4277 7.02755 12.1946 7.5173 12.1983C7.68542 12.2316 7.83893 12.3019 7.97416 12.4092C8.82208 12.8829 9.46899 13.1086 9.54574 11.6765C9.58229 10.9807 9.81986 10.285 9.72849 9.56341C9.83448 9.15264 10.0611 8.91579 10.4704 9.17114C10.9711 9.47829 11.4938 9.82245 11.0369 10.5589Z" fill="#6DA969"/>
<path d="M8.8367 14.2595C9.18391 14.7776 10.1451 13.8857 10.2694 14.896C10.3315 15.403 10.0976 15.7028 9.58229 15.7509C9.35934 15.7102 9.23143 15.5732 9.19122 15.3475C8.95 15.0255 8.43467 14.7961 8.8367 14.2595Z" fill="#67A567"/>
<path d="M8.4566 16.4947C8.01436 16.095 7.27608 16.269 6.88136 15.6362C7.46248 15.0959 7.95588 15.5362 8.4566 15.7324C8.66492 15.9766 8.69051 16.2246 8.47487 16.4799L8.4566 16.4947Z" fill="#6FAA69"/>
<path d="M8.47487 16.4799C8.46756 16.232 8.46025 15.9803 8.4566 15.7324C8.61376 15.4326 8.89883 15.3808 9.19488 15.3475C9.32645 15.4807 9.45437 15.6139 9.58595 15.7509C9.57133 15.8656 9.55671 15.984 9.54574 16.0987C9.18391 16.2246 8.82939 16.3504 8.47487 16.4799Z" fill="#7EB87F"/>
<path d="M5.91282 14.2706C5.48886 13.9968 5.55099 13.5638 5.54734 13.153C5.90917 12.8348 6.27465 12.8459 6.64014 13.1493L6.64745 13.1567C6.64014 13.6896 6.39526 14.0597 5.91282 14.2706Z" fill="#6DA969"/>
<path d="M15.3606 29.458C15.7773 29.9613 16.0477 29.7393 16.2268 29.2545C16.4351 28.7031 16.6142 28.1443 16.8079 27.5855C17.1661 27.4449 17.3013 27.5818 17.2502 27.9519C16.6325 29.4284 16.7239 31.2047 15.4154 32.3889C15.4008 32.0892 15.3387 31.8116 15.0536 31.6451C15.1559 30.9161 14.7722 30.1167 15.3606 29.458Z" fill="#AFCA62"/>
<path d="M6.64014 13.1493C6.27465 13.1493 5.91282 13.153 5.54734 13.153C4.95525 12.6867 5.37922 12.1539 5.67526 11.9503C6.64014 11.2879 6.24542 10.5737 5.91282 9.82245C6.15404 9.57821 6.39892 9.33767 6.64014 9.09342C7.39669 8.40141 8.24462 8.06835 9.26066 8.41251C9.50919 8.55683 9.77234 8.73076 9.55671 9.06382C9.22046 9.58191 9.4032 9.78174 9.94412 9.80765C10.92 10.5996 9.67732 11.3175 9.86737 12.0835C10.0026 12.6386 9.68463 12.683 8.85498 13.2196C7.52827 14.0782 8.1167 12.6423 7.73659 12.4092C7.82065 12.3278 7.90472 12.2427 7.98512 12.1576C7.90106 12.239 7.82065 12.3241 7.73659 12.4092C7.2176 12.4203 6.84481 12.6571 6.64014 13.1493Z" fill="#609D5B"/>
<path d="M9.5494 8.73076C8.54797 8.59384 7.5904 8.78257 6.64379 9.08972C6.63648 8.9602 6.63283 8.83438 6.62552 8.70486C6.87405 8.46062 7.12623 8.21637 7.37476 7.96843C7.49537 7.96843 7.61598 7.96473 7.73659 7.95733C7.87548 7.82041 8.03629 7.71679 8.21903 7.65018C8.93538 7.50585 9.57133 7.57986 9.94047 8.33479V8.3385C10.0282 8.69376 9.90026 8.83068 9.5494 8.73076Z" fill="#4B8346"/>
<path d="M5.91282 9.82245C5.61313 9.87426 5.34267 10.2887 5.01008 9.91867C4.96987 9.87056 4.99911 9.67443 5.06124 9.63002C5.40845 9.35987 5.68257 9.5079 5.91282 9.82245Z" fill="#609D5B"/>
<path d="M38.441 13.5083C38.5725 13.3899 38.7005 13.2677 38.832 13.1493C39.1317 13.0605 39.6069 12.7756 39.3657 13.4713C39.161 14.0671 39.4095 14.2151 39.8956 14.2632C39.6653 14.7517 39.4314 15.2402 39.2012 15.7287C39.1646 15.218 39.2085 14.6444 38.4446 14.6592C38.4446 14.2743 38.4446 13.8895 38.441 13.5083Z" fill="#65975E"/>
<path d="M31.1276 6.15882C31.1532 6.46227 29.9325 6.76942 31.0801 7.02477C31.7087 7.16539 31.9573 7.52435 32.2095 7.99434C31.7234 8.31259 31.2373 8.3829 30.7621 7.97583C30.1993 7.85741 29.3367 7.82041 29.26 7.30972C29.1138 6.34755 30.3601 6.39936 30.7768 5.76285C30.8901 5.89607 31.0107 6.0256 31.1276 6.15882Z" fill="#589055"/>
<path d="M14.3117 34.9831C14.0266 35.6788 13.8109 36.4189 13.4345 37.0628C13.1129 37.6105 12.9192 37.2479 12.8461 36.8297C13.1165 36.356 13.1823 35.8416 13.2518 35.305C13.3468 34.5205 13.7671 34.4465 14.3117 34.9831Z" fill="#ABC55A"/>
<path d="M9.94047 8.3385C9.37031 7.99434 8.74533 7.93143 8.10208 7.95733C7.89741 7.71679 8.28482 7.47625 8.10573 7.232C8.10573 7.10618 8.10573 6.98406 8.10573 6.85824C8.67223 6.92485 8.81843 6.35125 9.19488 6.12551C9.4763 5.75175 9.96605 5.69994 10.2877 5.38169C10.4119 5.38169 10.5362 5.38539 10.6605 5.38539C10.8249 6.47337 11.1539 7.59837 9.94047 8.3385Z" fill="#5D9357"/>
<path d="M12.8497 5.01532C12.3636 4.8821 11.8739 5.68514 11.3914 5.00792C11.7752 4.77848 11.9324 4.20858 12.4989 4.25669C13.1494 4.25669 13.0946 4.58975 12.8497 5.01532Z" fill="#7CAF75"/>
<path d="M12.8497 5.01532C12.8607 4.70077 12.7876 4.42692 12.4989 4.25669C12.5025 3.76821 12.7657 3.54617 13.2298 3.53507C13.2335 4.06426 13.7342 4.71927 12.8497 5.01532Z" fill="#61975A"/>
<path d="M10.2877 5.38539C10.0903 5.88127 9.73945 6.15142 9.19488 6.12921C9.22046 5.36688 9.75772 5.37799 10.2877 5.38539Z" fill="#7BAF72"/>
<path d="M8.10573 7.232C9.34838 7.47995 7.89375 7.71309 8.10208 7.95733L7.91933 7.96473L7.73659 7.96103C7.54289 7.55396 7.47344 7.2135 8.10573 7.232Z" fill="#679E61"/>
<path d="M9.92219 19.4515C10.2913 19.6957 11.3951 18.7928 11.0296 20.1805C10.6641 19.94 10.295 19.6957 9.92219 19.4515Z" fill="#69A45C"/>
<path d="M8.84767 19.0888C9.15833 19.0592 9.43975 19.1073 9.61518 19.4071C9.56402 19.7106 9.50919 20.014 9.20219 20.1768C9.08523 19.8142 8.96828 19.4515 8.84767 19.0888Z" fill="#46833D"/>
<path d="M27.4728 23.5148C28.2768 23.9441 28.8324 25.2467 30.0385 24.2586C30.3528 24.8544 28.5765 24.921 29.6766 25.7204L29.6364 25.7648C29.0736 26.1238 29.5707 27.2339 28.5802 27.2858C28.1489 26.9601 28.1709 26.3828 27.8712 25.9831C27.5166 25.2208 25.7733 24.8396 27.2206 23.5814C27.3083 23.5555 27.3924 23.5333 27.4728 23.5148Z" fill="#5C9956"/>
<path d="M29.3075 29.051C29.0809 30.3092 27.9991 30.8125 27.0305 31.6525C27.9369 30.4535 26.8441 30.2426 26.3544 29.7541C26.5846 28.5366 27.5605 28.1554 28.5254 27.7594C29.1357 27.7964 29.0517 28.37 29.2563 28.7216C29.2819 28.8289 29.3002 28.9399 29.3075 29.051Z" fill="#C8DA83"/>
<path d="M29.2563 28.7179C29.0224 28.4552 28.7885 28.1924 28.5546 27.9297C28.3499 27.6891 28.3865 27.4671 28.5985 27.2562C29.1869 26.9305 28.5692 25.7463 29.6364 25.7611C29.8521 26.7936 29.3075 27.7224 29.2563 28.7179Z" fill="#7FB36D"/>
<path d="M30.0531 9.44129C30.3309 10.5922 31.9134 10.1888 32.2204 11.3064C31.7745 11.3471 31.3177 10.8993 30.8754 11.373C30.4222 11.8652 29.9032 13.0272 29.5305 11.3064C29.5158 11.2435 29.1503 11.1621 29.1101 11.2176C28.9749 11.3989 28.7739 11.732 28.8433 11.8319C29.1284 12.2353 29.3769 12.6238 29.2892 13.1493C29.1101 13.3492 28.8872 13.3899 28.635 13.3492C28.2476 13.2196 27.9735 12.9199 27.6592 12.6756C27.4106 12.4832 27.1511 12.2982 26.9721 12.0317C26.1643 11.188 26.0766 12.6164 25.5065 12.5128C25.3274 12.4684 25.1848 12.3685 25.0715 12.2205C24.611 10.0297 24.6987 9.90757 27.0927 9.45609C27.6299 8.80848 27.9187 9.43388 28.2513 9.70773C28.6935 10.0704 29.1065 10.4627 29.6401 9.85576C29.6913 9.61891 29.8228 9.48199 30.0531 9.44129Z" fill="#70A86A"/>
<path d="M28.5692 13.1493C28.8104 13.1456 29.0553 13.1456 29.2965 13.1419C30.075 13.5046 29.9471 16.0321 31.8294 14.0153C31.431 15.6584 30.7439 16.9129 29.6657 17.9601C29.5268 18.0971 29.3769 18.1119 29.2161 18.0009C29.4464 16.3245 28.317 14.8331 28.5692 13.1493Z" fill="#4D8849"/>
<path d="M33.3205 19.074C32.5201 19.111 31.7599 19.2665 31.124 19.8068C31.0034 19.8105 30.8864 19.8142 30.7658 19.8142C30.5209 20.0251 30.2797 20.0399 30.0421 19.7994C29.9142 19.5551 29.7899 19.3109 29.662 19.0703C30.3272 19.0851 30.9522 19.0851 31.4931 18.5375C32.3666 17.6456 32.955 18.0416 33.3205 19.074Z" fill="#558F53"/>
<path d="M32.9075 15.0144C32.5274 14.2965 32.6444 13.7488 33.5654 13.3344C33.6824 14.1004 33.9382 14.7628 33.3205 15.3734C32.9697 15.5066 32.8783 15.3327 32.9075 15.0144Z" fill="#8ABB86"/>
<path d="M29.3112 17.9639C29.4281 17.9639 29.5487 17.9601 29.6657 17.9601C29.4208 18.2081 29.1796 18.4523 28.9347 18.7003C28.4705 18.8853 27.9187 19.3331 27.8602 18.3265C27.9296 17.8935 28.1964 17.6308 28.5838 17.4717C28.9676 17.4236 29.1138 17.7307 29.3112 17.9639Z" fill="#528A4F"/>
<path d="M32.9075 15.0144C33.0464 15.1329 33.1853 15.2513 33.3242 15.3734C33.3205 15.5991 33.3132 15.8286 33.3096 16.0543C33.1926 16.0913 33.0757 16.1061 32.955 16.0987C32.9002 15.7361 31.6137 15.4326 32.9075 15.0144Z" fill="#5A9456"/>
<path d="M27.1036 9.45239C27.005 9.65592 26.8917 10.0445 26.8149 10.0371C24.7828 9.83725 25.3128 11.3027 25.2908 12.4055C25.2068 12.4277 25.119 12.4536 25.035 12.4758C24.5745 12.2131 24.5416 11.7764 24.5708 11.3138C24.7938 10.7809 24.5708 10.2591 24.5562 10.0186C24.8669 10.5515 24.3588 11.336 24.4356 12.1427C24.5197 12.6867 25.1044 12.683 25.3822 13.0198C25.4809 13.1604 25.5467 13.3122 25.5942 13.475C25.7769 14.5778 25.0679 15.0959 24.2711 15.5584C24.103 15.625 23.9312 15.6658 23.7485 15.6806C23.1601 15.6732 22.7544 15.3771 22.4839 14.8664C22.3852 14.6111 22.3523 14.3446 22.356 14.0708C22.2061 14.1855 22.2646 14.3779 22.1842 14.5297C22.0965 14.6703 21.9759 14.7628 21.8187 14.8146C21.6981 14.8331 21.5702 14.7702 21.4752 14.7924C21.2376 14.8516 21.011 13.8339 20.7807 14.785C20.2252 14.8738 19.9803 14.6 19.9511 14.0671C20.1631 13.0975 20.8319 12.5128 21.6506 12.0835C22.2281 11.7801 21.8443 11.5469 21.6396 11.2879C21.3217 10.2036 22.2573 9.75584 22.7324 9.07492C22.7873 8.66045 23.2295 8.54203 23.383 8.20157C23.595 7.96473 23.8289 7.8056 24.1615 7.95363C24.2894 7.96103 24.4173 7.96473 24.5489 7.97213C25.0569 7.97213 25.4882 8.29409 25.9926 8.32369C26.2959 8.15716 26.6029 7.99063 26.9392 7.8056C27.1658 8.3755 25.9414 9.06012 27.1036 9.45239Z" fill="#5D985B"/>
<path d="M30.7621 7.97213C31.2446 7.97953 31.727 7.98693 32.2095 7.99063C32.2277 8.09055 32.246 8.19417 32.2606 8.29409C32.4397 9.24515 31.3104 9.17854 31.0984 9.82615C30.3893 9.32286 30.6452 8.63455 30.7621 7.97213Z" fill="#70A86A"/>
<path d="M30.0531 9.44129C29.9179 9.57821 29.7863 9.71513 29.6511 9.85206C29.1175 9.46349 28.5838 9.07862 27.7067 8.43841C28.8909 8.55683 29.4866 8.9602 30.0531 9.44129Z" fill="#81B77C"/>
<path d="M25.9816 8.32739C25.3822 8.70856 24.9327 8.45691 24.5416 7.97583C25.2945 6.93595 25.5174 8.13126 25.9816 8.32739Z" fill="#77AF73"/>
<path d="M24.1505 7.95733C23.9129 8.09055 23.6754 8.22748 23.4378 8.3607C23.3099 8.50502 23.1966 8.50502 23.0943 8.33109C23.0906 7.96103 23.087 7.59467 23.087 7.2246C23.595 7.23941 23.9824 7.43924 24.1505 7.95733Z" fill="#77AF73"/>
<path d="M23.8435 26.8528C23.9641 26.3606 24.0884 25.8647 24.209 25.3725C24.0811 24.7767 23.8435 24.3363 23.2039 24.0773C22.5533 23.8146 21.954 23.352 22.3012 22.4416C22.3669 22.1641 23.7156 22.5378 22.6703 21.683C22.4876 21.535 22.5278 21.2426 22.6045 21.0058C22.7069 20.8726 22.8384 20.7911 23.0029 20.7689C23.383 20.6394 24.1542 21.1057 23.9605 20.1102C23.8947 19.866 23.8874 19.6254 23.9385 19.3812C23.997 19.2147 24.0811 19.0629 24.198 18.9297C24.622 18.5671 25.0788 18.345 25.6417 18.5671C26.5335 19.47 26.0291 20.8911 26.8259 21.831C27.1183 22.0938 27.2279 22.486 27.4801 22.7747C27.4801 23.0226 27.4801 23.2706 27.4801 23.5148V23.5111C26.8697 23.8294 26.3763 24.2438 26.2594 24.9766C26.1351 25.6612 26.9172 25.9979 26.8843 26.6492C26.8588 26.8195 26.7857 26.9601 26.6614 27.0748C25.7148 27.0822 24.6403 28.7438 23.8435 26.8528Z" fill="#609A59"/>
<path d="M26.7381 22.0309C25.3785 21.7459 26.0072 20.5247 25.7075 19.7439C25.5869 19.4293 25.6527 19.0407 25.6307 18.6855C25.5503 18.593 25.5174 18.493 25.5247 18.3894C25.532 18.2821 25.5467 18.2266 25.5686 18.2266C25.7513 17.9305 26.0255 17.7566 26.3325 17.6271C26.8588 17.4569 27.3046 17.1423 27.7323 16.7945C27.8821 16.7278 28.0356 16.713 28.1964 16.7537C28.4888 16.961 28.5948 17.2496 28.5765 17.6012C28.339 17.8454 28.1014 18.086 27.8638 18.3302C27.3814 18.3487 27.0854 18.6041 27.0196 19.0777C26.9721 19.4256 27.2718 19.3997 27.491 19.4478C28.0502 19.5736 28.7739 19.5736 28.7885 20.3619C28.8031 21.1723 27.8931 21.1982 27.4801 21.6645C27.3302 21.9938 27.1475 22.2455 26.7381 22.0309Z" fill="#559153"/>
<path d="M30.0421 19.8031C30.2833 19.8068 30.5246 19.8105 30.7658 19.8179C31.7928 22.2122 29.5012 21.7718 28.54 22.4934C28.8945 21.498 30.1152 21.0206 30.0421 19.8031Z" fill="#609A5C"/>
<path d="M26.7381 22.0309C26.983 21.9087 27.2316 21.7866 27.4764 21.6608C28.0649 22.0309 27.5934 22.4009 27.4764 22.771C27.005 22.7525 26.7455 22.5156 26.7381 22.0309Z" fill="#80B47C"/>
<path d="M23.1016 20.9392C22.9737 20.9318 22.8494 20.9281 22.7215 20.9207C22.6045 21.0391 22.4729 21.1427 22.3341 21.2278C21.212 21.5091 21.932 22.7895 21.2376 23.3039C19.8524 23.896 19.0337 22.7858 18.036 22.2159C17.7436 21.8828 17.8642 21.5424 18.0213 21.2056C18.6902 20.817 19.3554 20.4285 18.8364 19.4663C18.8071 19.2258 18.8254 18.9815 18.7011 18.7558C17.3525 16.3282 17.3525 16.3282 19.6879 16.0395C19.6368 16.058 19.4613 15.4881 18.9168 15.7916C18.3612 16.1024 17.8715 15.7842 17.9775 15.0033C18.7304 14.2891 17.305 14.1263 17.612 13.5231C18.8619 12.1131 19.6148 12.2242 20.1704 13.9006C20.1813 14.3779 20.4189 14.6222 20.894 14.6296C21.4167 14.9367 21.9978 15.2106 21.7054 16.0247C22.2244 15.6547 21.4605 14.9922 21.9942 14.637L21.9978 14.6333C22.239 14.4149 22.4802 14.4149 22.7215 14.6296C22.9298 15.1255 23.3062 15.3734 23.8325 15.3845C24.0226 15.7953 23.6242 16.0802 23.6206 16.4503C23.6096 16.7611 23.6315 17.072 23.584 17.3829C23.6754 18.7262 22.1623 18.6929 21.7493 19.5884C22.155 19.94 22.7946 19.507 23.1381 20.0251C23.2916 20.2434 23.3282 20.4803 23.2551 20.7356C23.2039 20.8059 23.1527 20.8726 23.1016 20.9392Z" fill="#619F5E"/>
<path d="M20.1667 13.8969C19.5125 12.387 18.5476 13.0457 17.6083 13.5194C17.0418 13.4713 16.1427 13.5527 17.0784 12.6571C17.6522 12.1094 18.4014 11.7505 19.0703 11.3064C19.1141 11.8541 19.3773 11.9503 19.7208 11.5506C20.302 10.8697 20.9269 10.8401 21.636 11.2879C21.9393 11.3804 22.4181 11.1103 22.5058 11.6284C22.557 11.9355 22.6374 12.3648 22.0746 12.4129C21.1316 12.4943 20.8173 13.4232 20.1667 13.8969Z" fill="#6EA969"/>
<path d="M17.9738 15.0033C18.1968 15.3401 18.3101 15.7768 18.9204 15.5473C19.1543 15.4585 19.1141 14.1892 19.4358 15.2439C19.6514 15.9507 21.0366 14.7628 20.3824 16.058C20.0754 16.6612 19.7464 16.8537 19.1068 16.5576C18.7998 16.417 18.2918 16.3763 18.1712 16.7796C18.0871 17.0609 18.3393 17.4458 18.449 17.7825C18.6317 18.345 20.0205 18.4523 19.063 19.4478C18.5732 19.7106 18.2845 19.3627 17.9738 19.0814C16.7202 18.5078 17.8094 17.2533 17.2429 16.4836C17.8349 16.1653 17.3781 15.3179 17.9738 15.0033Z" fill="#599355"/>
<path d="M18.3357 21.2796C18.2077 21.5017 18.0835 21.7237 17.9555 21.9494C18.0506 23.1595 18.5549 24.4585 17.2355 25.3577C16.3547 25.0543 16.8774 24.403 16.8774 23.8849C17.1149 22.1678 15.039 22.7821 14.6881 21.6571C15.0901 21.2463 15.5909 21.2056 16.1172 21.2796C16.3657 21.1612 16.6179 21.0428 16.8664 20.9207C17.4 20.8652 17.9263 20.8207 18.3357 21.2796Z" fill="#5E9A4A"/>
<path d="M13.588 16.4836C13.588 16.7315 13.588 16.9758 13.5843 17.2237C13.0909 17.5494 12.5975 16.4762 12.1078 17.2274C11.9726 17.1201 11.8593 16.9906 11.7569 16.8537V16.8574C12.3125 15.6584 12.2759 13.9561 14.3117 14.0782C14.8526 14.1115 14.8672 13.9006 15.3972 14.6222C15.3277 15.044 15.0828 15.292 14.6735 15.3734C14.1947 15.2032 13.7159 15.0292 13.1969 14.8442C12.9667 15.514 13.1531 16.0284 13.588 16.4836Z" fill="#6BA865"/>
<path d="M18.3357 21.2796C17.8276 21.2389 17.2575 21.461 16.8664 20.9244C17.0126 20.5765 17.2502 20.3175 17.6047 20.1805C17.8861 20.014 17.7691 19.6439 17.9738 19.4404C17.9738 19.322 17.9738 19.1999 17.9702 19.0814C18.332 19.2036 18.6975 19.3257 19.0593 19.4478C19.2823 20.0547 19.5052 20.6616 19.7281 21.2722C19.2165 21.6016 18.7852 20.5136 18.3357 21.2796Z" fill="#70AC6B"/>
<path d="M12.8461 12.7978C12.3929 12.4055 12.1955 11.88 12.0932 11.3064C13.1348 11.0881 14.3738 11.41 15.0463 10.1925C15.8138 11.2065 14.4871 11.1399 14.308 11.6617C14.1582 12.0095 13.99 12.3389 13.5624 12.3907C13.3249 12.5276 13.0873 12.6608 12.8461 12.7978Z" fill="#4E8A4A"/>
<path d="M17.1259 11.447C17.9117 10.4368 17.5974 9.519 18.2552 8.9306C18.4599 8.74927 18.6719 8.41621 19.0118 8.60124C19.3554 8.78997 19.2347 9.09713 19.0959 9.37837C18.7486 10.0667 18.5184 10.8438 17.1259 11.447Z" fill="#6EA969"/>
<path d="M17.9775 19.4404C18.0579 19.7069 18.1383 19.9733 18.2224 20.2397C18.0177 20.2212 17.813 20.199 17.6083 20.1805C17.1076 19.7624 16.6215 19.3294 16.1025 18.9371C15.8832 18.7706 15.229 18.9186 15.6822 18.3339C15.949 17.9898 16.2962 18.012 16.5411 18.4227C16.8701 18.9815 17.4512 19.1666 17.9775 19.4404Z" fill="#599355"/>
<path d="M14.6771 15.3697C14.9184 15.1181 15.1596 14.8701 15.4008 14.6185C15.7224 14.6777 16.2305 14.5223 16.2816 14.9515C16.3438 15.4622 15.8284 15.7768 15.4556 15.9766C14.9695 16.2431 14.7356 15.8508 14.6771 15.3697Z" fill="#51914D"/>
<path d="M16.1172 21.2833C15.6859 21.5868 15.2108 21.7163 14.6881 21.6608C14.5712 21.535 14.4542 21.4091 14.3372 21.2796C14.2093 21.0354 14.0814 20.7948 13.9535 20.5506C13.9535 20.4248 13.9535 20.299 13.9535 20.1731C14.6735 20.5432 15.3972 20.9133 16.1172 21.2833Z" fill="#83B770"/>
<path d="M15.0499 9.45979C14.5967 9.5486 14.3775 10.2147 13.8219 9.99268C13.7232 9.95197 13.6246 9.65592 13.6684 9.5375C13.9352 8.83808 14.5675 9.17114 15.0499 9.08232C15.0499 9.20815 15.0499 9.33397 15.0499 9.45979Z" fill="#568F54"/>
<path d="M13.5661 12.3907C13.8146 12.1465 14.0631 11.9059 14.3117 11.6617C14.6808 12.2649 14.2897 12.646 13.8548 12.8755C13.6392 12.9902 13.6026 12.5979 13.5661 12.3907Z" fill="#6EA869"/>
<path d="M15.2619 17.4384C15.1779 17.3014 15.0353 17.1201 14.9476 16.9166C14.8489 16.6871 15.0097 16.5391 15.1961 16.6316C15.3825 16.7241 15.5543 16.924 15.642 17.1201C15.7224 17.3014 15.5909 17.4569 15.2619 17.4384Z" fill="#7AB375"/>
<path d="M16.9176 16.713C16.7531 16.5576 16.5813 16.4688 16.5631 16.3578C16.5302 16.1135 16.6106 15.8471 16.9285 15.9211C17.0455 15.947 17.1478 16.1616 17.21 16.3097C17.3415 16.6242 16.9797 16.4651 16.9176 16.713Z" fill="#599355"/>
<path d="M9.5494 8.73076C9.68097 8.60124 9.81255 8.46802 9.94047 8.3385C10.5545 8.71226 11.1721 9.08232 11.7862 9.45609C11.9726 9.70773 11.9908 9.94827 11.7642 10.1851C11.6071 10.4812 11.3403 10.5515 11.0369 10.5552C10.9638 9.98158 10.7738 9.48569 10.1415 9.35617C10.1086 9.34877 10.0136 9.64852 9.94777 9.80395C9.27163 10.5441 8.95366 9.47459 8.33599 9.59671C8.4968 8.79367 9.38493 9.31176 9.5494 8.73076Z" fill="#5D9357"/>
<path d="M11.7642 10.1888C11.7715 9.94457 11.7789 9.70033 11.7862 9.45979C12.2357 9.67443 12.8278 8.91949 13.175 9.64852C13.2554 9.81875 13.1823 10.1703 13.0471 10.3109C12.6012 10.7846 12.1845 10.3368 11.7642 10.1888Z" fill="#8DBA84"/>
<path d="M12.1261 5.75175C12.4915 5.75175 12.857 5.75175 13.2225 5.75175C12.857 6.92485 12.4915 6.32165 12.1261 5.75175Z" fill="#7CAF75"/>
<path d="M23.0979 8.32739C23.2112 8.3385 23.3282 8.3459 23.4415 8.357C23.3099 8.70856 23.0687 8.9417 22.7251 9.07492C22.3341 9.05272 21.943 9.03421 21.4788 9.00831C21.9357 8.357 22.5205 8.357 23.0979 8.32739Z" fill="#518D4F"/>
<path d="M21.636 7.12469C21.7127 7.27641 21.8443 7.42814 21.8443 7.57986C21.8443 7.7908 21.636 7.89442 21.4825 7.7686C21.3728 7.67608 21.3509 7.45404 21.3326 7.28751C21.329 7.24681 21.5007 7.1913 21.636 7.12469Z" fill="#5F9B5B"/>
<path d="M17.2355 25.3577C17.9994 24.3363 17.2538 22.9856 17.9555 21.9494C19.253 21.7755 19.8524 23.6258 21.2632 23.1188C21.5263 22.8413 21.6323 22.3861 22.1038 22.3417C22.1769 22.375 22.25 22.4046 22.3194 22.4379C22.5095 23.1929 22.864 23.8183 23.7192 23.8368C25.437 23.8664 24.6476 24.6657 24.2053 25.3688C23.9787 25.3651 23.5292 24.9877 23.573 25.4539C23.6571 26.3199 23.1089 26.046 22.7142 26.0979C22.25 25.6279 22.1111 26.1238 21.9868 26.3939C21.614 27.2117 20.9562 27.6632 20.1594 27.9593C20.3385 28.84 19.8817 29.5172 19.4467 30.1982C19.5491 30.2833 19.5783 30.3647 19.5308 30.435C19.4906 30.5016 19.4504 30.5349 19.4102 30.5349C19.2201 30.1278 19.0301 29.7245 18.7852 29.2064C18.1785 29.9724 18.1602 31.1603 16.8774 31.4009C17.2026 30.324 17.5133 29.3211 17.8057 28.3108C18.014 27.5892 17.5645 27.8705 17.2538 27.9519C17.1076 27.8298 16.9614 27.7076 16.8116 27.5855C16.7092 27.493 16.6069 27.4042 16.5046 27.3117C16.6179 27.2673 16.7312 27.2228 16.8445 27.1821C17.8349 26.9342 16.7787 26.1201 17.2355 25.7241C17.2392 25.6057 17.2392 25.4798 17.2355 25.3577Z" fill="#BDD473"/>
<path d="M20.1631 27.963C20.9489 27.0563 21.7347 26.1497 22.5205 25.243C22.5862 25.528 22.652 25.8129 22.7178 26.0979C22.0599 26.8306 21.6287 27.6632 21.6177 28.6809C21.1206 28.47 20.5066 28.4959 20.1631 27.963Z" fill="#CFDE8D"/>
<path d="M15.3094 36.0193C15.9892 37.3367 15.0828 38.0139 14.414 38.7984C14.3701 37.7475 15.229 37.0258 15.3094 36.0193Z" fill="#CCDC86"/>
<path d="M19.4102 30.5386C19.4285 30.4276 19.4431 30.3166 19.4467 30.2019C20.2983 31.0456 19.1361 31.5304 19.1763 32.2261C18.6463 31.5489 19.2859 31.0937 19.4102 30.5386Z" fill="#D7E4A2"/>
<path d="M23.8435 26.8528C24.812 27.9075 25.7769 26.7899 26.7418 26.8417C26.8295 26.9416 26.8916 26.9971 26.9355 27.0082C26.8843 26.9971 26.8186 26.9416 26.7418 26.838C27.1402 25.9572 24.8486 26.1867 26.0035 24.9951C26.8076 24.9951 27.4764 25.4021 28.1818 25.713C28.7483 26.1053 28.5071 26.727 28.6021 27.2525C28.5875 27.4782 28.5729 27.7039 28.5583 27.926C27.8236 28.5329 27.089 29.1398 26.3544 29.7467C26.0145 29.7726 25.6746 29.7985 25.3347 29.8281C24.823 29.5357 24.315 29.2434 23.8033 28.9473C22.6557 28.2294 23.5657 27.5485 23.8435 26.8528Z" fill="#599350"/>
<path d="M17.2319 25.7278C16.9212 26.4753 18.2406 25.7759 17.9665 26.6048C17.7472 27.2673 17.316 27.1895 16.8408 27.1821C16.9358 26.6863 16.7568 26.1164 17.2319 25.7278Z" fill="#AFCA62"/>
<path d="M11.7569 16.85C12.3271 17.1608 13.1129 16.4059 13.5843 17.2237C12.8936 17.5087 12.0603 18.53 11.7569 16.85Z" fill="#5F9B5B"/>
<path d="M7.74025 12.4129C7.77314 11.9725 7.86086 11.558 8.37619 11.4581C8.58452 11.4174 8.73071 11.5617 8.68685 11.7727C8.58452 12.2908 8.17152 12.3759 7.74025 12.4129Z" fill="#6DA969"/>
<path d="M28.1818 25.7167C27.3595 25.7833 26.581 25.6982 26.0035 24.9988C25.9048 23.9034 26.486 23.5037 27.4764 23.5111C26.1022 24.773 27.9881 24.9692 28.1818 25.7167Z" fill="#6EA764"/>
<path d="M28.5729 17.5975C28.2805 17.4347 28.2147 17.1571 28.2074 16.8537C27.5276 15.8212 27.5349 14.5408 27.0086 13.4491C26.9721 12.9717 27.3229 12.7571 27.6226 12.5091C27.6921 12.4758 27.7652 12.4462 27.8383 12.4166C28.0831 12.6608 28.3244 12.9088 28.5692 13.153C29.0882 14.7147 30.1481 16.1912 29.3075 17.9676C29.0626 17.8417 28.8178 17.7196 28.5729 17.5975Z" fill="#609A5C"/>
<path d="M25.6636 12.3981C25.6636 11.7727 26.062 11.4026 26.5115 11.0844C26.7784 10.8919 27.1109 10.8771 27.301 11.1769C27.4984 11.4914 27.1731 11.7283 27.0671 11.9984C26.7126 12.5461 26.2849 12.82 25.6636 12.3981Z" fill="#97C491"/>
<path d="M25.6636 12.3981C26.1314 12.2649 26.5956 12.1316 27.0634 11.9984C27.3704 12.0465 27.6774 12.0909 27.8383 12.4129L27.8419 12.4092C27.5678 12.7682 27.0196 12.7756 26.8112 13.2233C26.4531 13.3825 26.0693 13.3233 25.6929 13.3492C25.5357 13.3381 25.4041 13.2751 25.2945 13.1641L25.2799 13.1493C25.0788 12.9051 25.0569 12.6608 25.2762 12.4129L25.2908 12.4018C25.4151 12.4018 25.5394 12.4018 25.6636 12.3981Z" fill="#609A5C"/>
<path d="M25.2945 13.1641C25.4078 13.1604 25.5174 13.1604 25.6307 13.1604C27.2571 13.5305 27.6884 14.6259 27.407 16.1542C26.8624 17.072 25.7075 16.3282 25.0825 17.0276C24.4575 16.5095 24.2419 17.801 23.6352 17.368C23.573 17.3162 23.5109 17.2644 23.4451 17.2126C23.3245 16.9684 23.2076 16.7241 23.087 16.4799C23.383 16.0358 24.1286 16.0395 24.1761 15.3512C24.6293 14.6666 25.6015 14.2484 25.2945 13.1641Z" fill="#6EA668"/>
<path d="M24.1871 12.4166C23.5146 11.4433 24.812 10.1629 23.7119 9.25625C23.9641 9.10823 24.2053 8.86399 24.4685 8.83438C24.8778 8.78997 25.1044 9.04902 25.0533 9.5116C24.9875 10.1074 24.9582 10.7069 24.9144 11.3027C24.5964 11.621 24.8011 12.2945 24.1871 12.4166Z" fill="#6FA96A"/>
<path d="M21.9942 14.6333C22.0746 15.0478 22.2281 15.4659 22.2171 15.8767C22.2098 16.1838 21.8772 16.4614 21.5738 16.4207C20.7296 16.3097 21.6506 15.9581 21.5117 15.725C21.2961 15.366 21.0987 14.9959 20.8904 14.6296C21.2632 13.586 21.6214 15.0033 21.9942 14.6333Z" fill="#6CA96A"/>
<path d="M24.1798 15.3549C24.6256 15.4289 24.9107 15.6362 24.4027 15.9766C24.0226 16.232 23.5292 16.3208 23.0906 16.4836C22.9883 15.873 23.5913 15.7546 23.8362 15.3845C23.9495 15.3808 24.0628 15.3734 24.1798 15.3549Z" fill="#93C390"/>
<path d="M24.1871 12.4166C24.4283 12.0465 24.6732 11.6765 24.9144 11.3027C24.9253 11.7098 24.8559 12.1427 25.2726 12.4129C25.2726 12.6571 25.2762 12.9051 25.2762 13.1493C24.9911 12.7904 24.1505 13.2751 24.1871 12.4166Z" fill="#549150"/>
<path d="M22.7215 14.6296C22.4802 14.6296 22.239 14.6296 21.9978 14.6333C21.9357 14.0819 21.8699 13.5268 21.7493 12.4795C22.451 13.4047 22.6118 14.0042 22.7215 14.6296Z" fill="#72AB70"/>
<path d="M21.2632 19.8105C20.8685 19.1999 21.4679 18.6707 21.72 18.6929C22.8677 18.7965 22.9846 17.8269 23.4488 17.2163L23.4817 17.2385C24.1724 17.5827 24.0409 18.2784 24.1724 18.8668C24.1871 18.9408 24.198 19.0185 24.2126 19.0925C24.198 19.2184 24.1834 19.3442 24.1688 19.4663C24.0189 19.6587 23.9385 19.9252 23.6425 19.9585C22.8713 19.5144 22.049 19.9548 21.2632 19.8105Z" fill="#6EA668"/>
<path d="M25.66 18.3524C25.6527 18.4634 25.6417 18.5745 25.6271 18.6855C25.1519 18.8224 24.6805 18.9593 24.2053 19.0962L24.1798 19.0703C24.0738 18.2895 23.9824 17.5161 24.8267 17.0535C25.342 17.1275 25.9122 16.75 26.38 17.2348C26.6322 17.9305 25.5649 17.7566 25.66 18.3524Z" fill="#6EA668"/>
<path d="M22.3596 20.9244C22.4802 20.9244 22.6009 20.9244 22.7215 20.9244C22.7982 21.7866 23.8837 22.0901 23.8874 23.0041C23.1454 23.3631 22.981 22.2122 22.3194 22.4379H22.3377C21.8845 21.9272 21.9942 21.4239 22.3596 20.9244Z" fill="#69A762"/>
<path d="M24.2163 20.1916C24.8011 20.2434 24.7682 20.5876 24.4904 20.9244C24.0591 21.4499 23.5694 21.4276 23.0979 20.9429L23.087 20.9207C23.3647 20.5173 23.6571 20.1398 24.2163 20.1916Z" fill="#559153"/>
<path d="M24.2163 20.1916C23.8399 20.4322 23.4634 20.6764 23.087 20.917C23.0979 20.6801 23.1125 20.447 23.1235 20.2101C23.2551 19.8882 23.6279 20.0029 23.8252 19.8031C23.9385 19.692 24.0482 19.5773 24.1615 19.4663C24.1834 19.7106 24.2017 19.9511 24.2163 20.1916Z" fill="#86B77F"/>
<path d="M27.1109 16.4836C27.3924 15.0218 26.6979 14.0079 25.6307 13.1604C25.9926 12.5683 26.3836 13.0457 26.7637 13.1308C26.888 13.0198 27.0013 13.0383 27.1 13.1641C28.0904 14.204 28.1562 15.5251 28.2037 16.8537C28.0831 16.8537 27.9589 16.8537 27.8383 16.8537C27.4143 17.0979 27.1073 17.1053 27.1109 16.4836Z" fill="#549150"/>
<path d="M27.1109 16.4836C27.2681 16.7796 27.5386 16.8426 27.8383 16.85C27.725 17.7307 27.0415 17.838 26.369 17.9527C26.2484 17.8787 26.2082 17.8047 26.2447 17.727C26.2813 17.6493 26.3178 17.6086 26.358 17.6086C25.9926 17.0276 25.4114 17.2792 24.9071 17.22C24.8194 17.1312 24.7938 17.0498 24.834 16.9721C24.8705 16.8981 24.9071 16.8611 24.94 16.8611C25.6417 16.6242 26.274 15.947 27.1109 16.4836Z" fill="#609A5C"/>
<path d="M26.358 17.6123C26.369 17.727 26.3727 17.8417 26.369 17.9565C26.1351 18.0897 25.8975 18.2192 25.6636 18.3524C25.0971 17.3421 25.9633 17.7011 26.358 17.6123Z" fill="#81B87A"/>
<path d="M22.3596 20.9244C22.3523 21.4276 22.345 21.9346 22.3377 22.4416C21.9795 22.6674 21.6214 22.8968 21.2595 23.1225C21.5994 22.3713 20.0827 20.6727 22.3596 20.9244Z" fill="#609A59"/>
<path d="M23.8289 19.8068C23.6827 20.1028 23.4122 20.1731 23.1272 20.2101C22.7434 19.9881 22.4145 19.9659 22.0197 20.2768C21.4861 20.6949 21.3253 20.2879 21.2632 19.8105C22.1184 19.3072 22.9737 19.322 23.8289 19.8068Z" fill="#609A59"/>
<path d="M26.7418 26.8417C27.1402 26.764 27.5422 26.6863 28.0502 26.5863C27.619 27.2302 27.3302 28.148 26.7418 26.8417Z" fill="#5C9956"/>
<path d="M27.1 13.1641C26.9867 13.153 26.8734 13.1419 26.7637 13.1308C26.7747 12.3537 27.3375 12.424 27.8419 12.4092C27.8273 12.894 27.5788 13.1456 27.1 13.1641Z" fill="#6EAA69"/>
<path d="M24.9363 16.8611C24.9217 16.9795 24.9107 17.1016 24.9071 17.2237C24.3406 17.7085 24.6732 18.556 24.1834 19.0703C22.7873 18.9186 24.3442 17.6012 23.478 17.2422C24.0518 17.4421 24.3004 16.3948 24.9363 16.8611Z" fill="#8CBD84"/>
</svg>
