<svg width="44" height="44" viewBox="0 0 44 44" fill="none" xmlns="http://www.w3.org/2000/svg">
<path d="M24.4819 2.11544C25.2516 2.89012 26.0876 3.10344 27.2293 2.96871C29.7631 2.67306 34.6354 5.79051 35.5525 8.08088C35.534 8.16695 35.5156 8.25303 35.4972 8.34285C35.221 8.93041 34.7165 9.28594 34.223 9.65644C33.2912 10.5509 32.3815 10.6557 31.3688 9.71632C30.0982 8.53745 28.5514 7.83013 26.9199 7.30619C25.9145 7.033 24.8907 6.80096 24.1173 6.00383C23.8816 5.01957 24.6955 4.5817 25.2037 4.86987C26.5443 5.63707 27.6233 4.60416 28.8239 4.62661C29.1922 4.74637 29.4684 5.0757 29.8993 5.10564C29.6931 4.90729 29.4353 4.8287 29.2327 4.66404C28.7245 4.27482 28.1389 4.10641 27.5092 4.09519C27.1188 4.1139 26.7431 4.2374 26.3528 4.26734C26.187 4.27108 26.025 4.25611 25.8629 4.22617C24.9422 3.97917 24.2278 4.29354 23.6901 5.06822C22.762 6.2134 21.8192 7.33987 20.3792 7.86007C19.4953 6.37807 18.6704 8.02848 17.8123 7.91247C17.304 7.94989 16.8953 8.21186 16.4717 8.47009C15.459 9.09133 15.4774 9.07262 15.2417 7.93866C15.1901 7.68418 14.8807 8.01351 14.6708 7.90872C14.4462 7.79645 14.2473 7.67295 14.1074 7.45589C14.0226 7.28748 14.0411 7.1303 14.1626 6.98434L14.1663 6.98809C14.6524 6.28077 15.1606 5.48363 16.1366 5.67075C17.6871 5.97014 17.1567 5.07196 16.9689 4.33096C17.0868 3.4702 17.6576 3.17081 18.4273 3.11841C18.5857 3.17455 18.7183 3.27185 18.8251 3.39909C19.569 3.938 20.1067 3.27934 20.637 2.98743C21.8523 2.32127 23.1008 1.95077 24.4819 2.11544Z" fill="#F3C170"/>
<path d="M43.6436 12.6429C42.0269 16.7184 39.4378 19.9032 35.5009 21.8643C34.9227 21.3366 34.6833 20.6367 34.7054 19.892C34.7643 18.0395 34.2487 16.2768 33.9946 14.4767C33.9873 14.3569 33.9836 14.2297 34.0057 14.1062C34.5323 11.0748 35.1363 10.8054 37.8763 12.3622C38.6976 13.2492 38.5576 14.5628 39.2132 15.4048C39.0327 14.9108 38.7197 14.3382 38.646 13.6908C39.1358 11.4902 39.703 11 41.688 11.0711C42.2773 11.3929 42.9071 11.4977 43.5737 11.4229C43.9162 11.8121 43.8572 12.2237 43.6436 12.6429Z" fill="#F2BF6E"/>
<path d="M31.0741 25.689C30.96 26.7968 31.8438 27.3095 32.4405 27.9607C35.1363 30.9022 33.8252 35.6027 30.0061 36.6019C30.5401 36.0219 29.7594 35.1574 30.426 34.6072C31.2472 34.2667 31.2693 33.5369 31.273 32.8183C30.9489 32.6499 31.0557 33.0541 30.9047 33.1103C30.7869 33.2338 30.6469 33.2974 30.4775 33.2936C29.5826 32.7922 28.3599 33.2001 27.6344 32.2308C27.5681 30.8236 28.7171 30.2922 29.5274 29.5175C29.6268 29.3603 29.8956 29.4053 29.9361 29.1695C29.8514 29.3267 29.682 29.3828 29.5531 29.4988C28.7355 29.9554 28.2826 30.8498 27.4576 31.2877C27.0009 31.385 26.489 31.6619 26.1833 31.0632C25.955 30.6215 26.1244 30.1874 26.5001 29.9292C27.3582 29.3416 28.2899 28.8327 27.7485 27.5902C27.325 27.7511 26.7321 28.3349 25.9108 28.2039C25.1153 27.9644 24.3493 28.2264 23.5685 28.3125C22.8577 28.3911 22.2243 28.2376 21.9297 27.4629C21.7161 26.8978 21.7419 26.3514 22.239 25.951C22.8025 25.4944 23.4139 24.8245 24.1652 25.1651C25.0932 25.588 24.8207 26.2167 24.1578 26.6882C24.5371 26.5348 24.968 26.3664 25.3879 26.1755C25.8629 25.9959 26.268 25.6815 26.7247 25.4607C28.0395 24.9518 29.3211 25.5206 30.6212 25.5805C30.7795 25.5543 30.9342 25.5917 31.0741 25.689Z" fill="#F2C274"/>
<path d="M31.0741 25.689C30.96 25.689 30.8421 25.689 30.728 25.6928C29.5605 25.5019 28.393 25.2961 27.2182 25.1651C26.6253 24.5251 27.2956 24.1846 27.5718 23.7916C27.9106 23.3088 28.2862 22.9982 28.1831 22.216C28.0211 20.996 28.8018 20.7677 29.8183 21.2655C30.4296 21.737 30.4812 22.4967 30.7832 23.2415C30.4296 22.0214 30.0798 20.9174 29.0081 20.2625C27.406 19.3231 25.6972 18.5709 24.2167 17.4332C23.819 17.1263 22.7141 16.8606 23.8374 16.0523C24.8833 15.809 25.7119 16.6136 26.6989 16.6548C27.8774 17.7176 27.4429 15.7341 28.1279 15.8689C30.3818 16.434 31.1294 18.3464 31.7776 20.2587C31.9801 20.8538 32.1679 21.5349 32.1679 21.8381C32.2305 20.7789 31.2141 19.5477 31.4056 18.0881C32.5473 17.3322 33.5748 17.6353 34.547 18.4437C34.8196 19.615 35.0626 20.7902 34.8601 22.0102C33.3317 22.9533 32.6651 24.8133 31.0741 25.689Z" fill="#F0BD6A"/>
<path d="M3.05887 23.3313C3.64444 22.6053 4.45098 22.2572 5.32381 22.3246C6.50968 22.4144 7.43407 21.9428 8.31058 21.2467C9.53328 21.1232 10.7192 21.1494 11.7098 22.0476C11.8719 22.8672 11.9971 23.6793 11.2568 24.3118C10.4798 24.484 9.70638 24.3754 8.87774 24.2444C9.97154 24.7646 10.8701 25.5655 12.1481 25.5431C12.6453 25.5356 12.9362 26.052 12.9031 26.6171C12.8184 27.1411 13.1498 27.0475 13.4555 26.9914C13.9711 26.8978 14.4572 26.46 15.0133 26.8604C15.1938 27.2384 14.9802 27.5752 14.9286 27.9345C14.7518 29.1695 14.2436 29.6148 13.1093 28.8364C12.7558 28.5931 12.358 28.4247 11.7872 28.3911C11.7025 28.8214 12.1812 29.0647 12.1776 29.4427C12.1739 30.1013 11.9345 30.397 11.2826 30.0939C10.837 29.888 10.3509 29.6448 10.071 29.278C9.32705 28.3012 8.85564 28.6979 8.38424 29.4913C8.04542 29.6822 7.73975 29.6747 7.48563 29.3416C6.87796 27.6987 6.35869 26.0071 5.19491 24.6374C5.13599 24.2744 5.3901 23.9825 5.43061 23.6606C5.5411 22.8073 5.08075 23.6082 4.91502 23.5147C4.27789 23.582 3.54501 24.6673 3.05887 23.3313Z" fill="#EFC073"/>
<path d="M24.423 36.9949C22.8209 36.703 21.6792 35.5503 20.3497 34.7494C20.6296 32.9194 21.2741 31.2765 22.6847 30.0265C23.1634 29.7832 23.6974 30.3034 24.1652 29.9067C24.3824 29.5961 24.5003 29.2256 24.7691 28.9487C24.8944 28.8439 25.0343 28.7578 25.1816 28.6867C25.7009 28.5295 26.2901 28.1964 26.6989 28.7616C27.1041 29.3192 26.559 29.6261 26.2054 29.9629C25.0269 31.0819 26.4559 31.3139 26.8536 31.8977C26.7358 33.7315 25.5573 35.105 24.8428 36.6805C24.7249 36.8153 24.5813 36.9201 24.423 36.9949Z" fill="#F2C06E"/>
<path d="M27.7927 32.0549C28.603 32.9044 30.1056 31.8715 30.7464 33.1776C31.1699 33.6829 31.1699 34.1806 30.7316 34.6746C29.9803 35.1162 30.9231 36.2165 30.0061 36.5945C28.1794 37.2419 26.3233 37.4403 24.423 36.9874L24.515 36.8789C25.3216 35.7 25.8777 34.3827 26.5553 33.1327C26.8242 32.6425 26.9089 31.8528 27.7927 32.0549Z" fill="#F4C26E"/>
<path d="M18.5894 3.62364C18.5894 3.50014 18.5894 3.3729 18.5894 3.2494C17.5213 2.96123 16.9873 4.00537 16.1145 4.20746C16.468 4.12138 16.7995 4.05776 17.0904 4.35341C17.8233 4.71269 18.048 5.3227 17.7092 6.03002C17.2672 6.94318 16.759 6.20218 16.2287 6.04874C15.3485 5.79425 14.8623 6.66998 14.17 6.98809C14.7113 5.5248 14.413 3.85193 15.2601 2.46723C16.1734 2.4298 16.2544 0.876695 17.3961 1.25468C17.8528 2.07802 18.3868 1.70003 19.0239 1.28088C18.4457 1.55782 17.9743 1.89464 17.4882 1.37818C17.2635 0.697058 18.0848 0.637179 18.1916 0.154406C19.7973 -0.197383 21.2999 0.0421328 22.681 0.973998C21.9002 2.78534 20.4823 3.58622 18.5894 3.62364Z" fill="#F0C177"/>
<path d="M18.5783 35.7973C17.9485 37.5413 16.6227 38.8212 15.6615 40.3444C15.0502 39.9739 14.9949 39.2815 14.7408 38.7089C14.6856 38.5817 14.645 38.4432 14.6082 38.316C14.5456 38.1925 14.553 37.9941 14.3246 38.0353C14.251 38.1513 14.1884 38.2524 14.1221 38.3684C13.7207 38.9747 13.275 38.9185 13.1351 38.2711C12.8883 37.1334 12.1481 36.2127 11.8977 35.0863C11.9087 34.4014 11.3747 33.6567 12.1149 33.0579C12.8773 32.8857 13.1903 33.4433 13.5328 33.9598C13.8311 34.4051 13.9453 35.0189 14.5898 35.1349C15.9672 34.8767 15.5842 33.3423 16.3465 32.6387C17.8491 32.2907 17.8859 32.358 17.4145 34.334C17.3519 34.4351 17.2083 34.5436 17.2562 34.6671C17.3446 34.8954 17.1494 34.6783 17.3888 34.6147C17.7865 35.0114 18.6188 34.9478 18.5783 35.7973Z" fill="#F4C780"/>
<path d="M12.9951 18.8516C14.1921 17.5343 15.9561 16.6211 15.9893 14.4804C16.0482 14.4468 16.1071 14.4131 16.1661 14.3794C16.4239 14.4505 16.678 14.4093 16.9358 14.3607C17.1604 14.4318 17.3077 14.5927 17.4366 14.7798C17.6208 15.1241 17.967 15.3898 17.9301 15.8427C17.6613 16.404 17.0021 16.3591 16.5933 16.7259C17.5177 17.029 18.3794 17.2423 19.3959 17.0253C20.3608 16.8195 21.3625 17.2498 22.0217 18.0582C22.3863 18.5035 23.0971 19.3044 21.6572 19.3231C21.7087 19.6263 22.158 19.892 21.7455 20.2438C21.4546 20.4646 21.1231 20.5769 20.7733 20.6405C20.6002 20.6629 20.4271 20.6554 20.254 20.6292C18.8692 20.2475 17.5508 19.66 16.2066 19.1585C15.4663 18.8815 15.2343 19.3157 14.855 19.6749C14.0889 19.7311 13.2051 20.0754 12.9951 18.8516Z" fill="#F1BF6E"/>
<path d="M37.6959 12.6055C37.1508 11.6399 35.9465 12.7477 35.3168 11.8083C35.14 11.5464 34.8932 12.0703 34.8233 12.336C34.6686 12.9198 34.547 13.5149 34.4145 14.1062C32.2932 12.8188 32.2269 11.3854 34.2082 9.54417C34.6649 9.26723 34.9595 8.762 35.4935 8.59359C35.9944 8.55616 36.5174 8.87427 36.9961 8.49629C37.3386 8.22309 37.6848 7.94615 38.0273 7.67295C39.2426 8.15947 39.3237 8.54119 38.403 9.44312C38.0641 9.79491 38.4214 10.1916 38.3404 10.5546C38.2041 11.0898 38.2777 11.6437 38.2262 12.1901C38.1231 12.4258 37.9537 12.5755 37.6959 12.6055Z" fill="#F0BC67"/>
<path d="M22.9977 30.1799C21.5835 31.385 21.4067 33.3311 20.3461 34.7494C20.1435 34.742 19.9373 34.7307 19.7347 34.7232C18.9098 34.7494 19.2118 34.0833 19.1491 33.6828C18.9098 32.0998 18.8913 30.4831 18.3205 28.9636C17.3593 26.314 15.4332 24.5962 13.043 23.3313C12.5164 23.0543 11.8424 23.0094 11.5883 22.3283C10.6344 21.5274 9.30495 21.9054 8.3069 21.243L8.31058 21.2318C11.4189 19.9781 13.6691 21.8979 16.0372 23.3912C16.4938 23.8403 16.9247 24.3193 17.3814 24.7721C19.1197 26.6433 20.1214 28.8776 20.5339 31.7742C21.2005 30.7525 21.624 29.8805 22.3863 29.3267C22.7767 29.0422 23.2997 28.5969 23.6606 29.1208C24.0547 29.6934 23.436 29.9554 22.9977 30.1799Z" fill="#E0A856"/>
<path d="M18.5857 28.6904C19.7089 30.5542 19.348 32.7136 19.7347 34.7232C19.348 35.0825 18.9613 35.4381 18.5783 35.7973C18.0848 35.4268 17.595 35.0563 17.1015 34.6858C17.1383 34.2554 17.0904 33.7951 17.2267 33.3984C17.6981 32.0287 16.6448 33.013 16.376 32.8071C16.2434 32.9381 16.1034 32.9419 15.9524 32.8371C15.7757 32.4029 15.9745 32.025 16.1145 31.6357C16.2692 31.254 16.387 30.8573 16.5159 30.4644C16.921 29.5288 17.1199 28.3424 18.5857 28.6904Z" fill="#F1C073"/>
<path d="M34.4329 9.6265C32.5252 11.1122 33.1807 12.6092 34.4108 14.1062C35.0516 16.651 35.1031 19.282 35.5009 21.8643C35.2836 21.9092 35.07 21.9578 34.8527 22.0027C34.4881 20.8875 34.3776 19.7386 34.385 18.5709C33.6374 16.943 33.387 15.1578 32.7682 13.47C31.7002 10.5584 29.7851 8.90047 26.9641 8.09585C25.9034 7.66547 24.8133 7.87504 23.7306 7.94615C23.5317 7.93492 23.3512 7.86381 23.1929 7.74031C22.6405 6.37433 23.7674 6.34813 24.3972 6.50531C25.2774 6.72612 26.1944 6.66998 27.0488 6.9806C28.7687 7.29496 30.3007 8.07713 31.5198 9.29717C32.4994 10.2777 33.2249 10.0906 34.0425 9.2298C34.1935 9.34582 34.4108 9.39073 34.4329 9.6265Z" fill="#DEA654"/>
<path d="M12.3249 35.0526C12.509 36.2502 13.8938 37.0211 13.5586 38.4732C13.7501 38.2037 13.9416 37.9305 14.1295 37.6611C14.5014 37.7958 14.4462 38.3684 14.8918 38.4283C15.4295 38.9485 15.4774 39.6745 15.6652 40.3444C14.2584 42.253 12.7263 43.9708 10.1189 43.9933C10.0194 43.8286 10.0047 43.6564 10.0968 43.4805C13.0798 41.2538 13.426 38.9035 11.2716 35.6514C10.7265 34.8318 10.0084 34.1282 9.64377 33.1851C10.082 32.1634 10.6676 32.7173 11.139 33.0953C11.7467 33.5893 12.0155 34.3453 12.3249 35.0526Z" fill="#EEBC6E"/>
<path d="M16.0151 23.8215C13.6544 22.3246 11.2937 20.8276 8.31427 21.2318C9.73584 20.154 11.4815 19.7386 12.9951 18.8516C13.6175 19.6787 14.5051 19.2034 15.2711 19.3344C15.7241 19.166 15.9819 19.4167 16.1845 19.7797C16.2876 20.7677 15.7978 21.389 14.9802 21.8119C13.6986 21.752 12.8405 20.4833 11.4815 20.6367C12.9509 20.517 13.8643 21.8343 15.2122 22.0252C15.6983 22.2422 16.1587 22.4967 16.4496 22.9758C16.5638 23.3949 16.387 23.6606 16.0151 23.8215Z" fill="#F1C278"/>
<path d="M15.9893 14.4804C14.7739 13.4064 14.1221 12.0628 14.1147 10.4124C14.1405 10.3301 14.1663 10.2515 14.1921 10.1692C14.8844 9.39447 15.6762 8.80691 16.7553 8.75826C17.2046 9.11753 17.6245 9.51423 18.1216 9.81362C18.7072 10.4947 18.1842 10.9064 17.7681 11.3518C16.7737 12.1302 16.8326 13.4962 16.1145 14.428L15.9893 14.4804Z" fill="#F3C579"/>
<path d="M43.6436 12.6429C43.5957 12.2275 43.7062 11.7522 43.2422 11.4865C41.3345 10.8989 40.4101 9.45809 40.2444 6.8309C40.2517 6.73734 40.2591 6.64752 40.2665 6.55396C43.1243 6.61759 44.7669 9.57785 43.6436 12.6429Z" fill="#F5C47A"/>
<path d="M10.1262 43.6714C10.1262 43.7799 10.1225 43.8847 10.1189 43.9933C5.30171 44.1691 0.908102 40.887 0.178903 36.5608C0.521406 35.9246 0.348313 35.2921 0.156806 34.6634C0.131026 34.233 0.164171 33.8176 0.466163 33.4733C0.764472 33.5257 0.978076 33.7016 1.12907 33.9598C1.29112 34.3004 1.37582 34.6709 1.35004 35.0376C1.12539 38.3197 2.91524 40.3257 5.50059 41.8301C6.94794 42.6834 8.79672 42.5112 10.1262 43.6714Z" fill="#F7CF74"/>
<path d="M1.28743 30.0939C0.399872 29.278 -0.0457497 28.3424 0.506674 27.1336C0.550868 27.171 0.598745 27.2122 0.642939 27.2496C0.480894 27.4367 0.528771 27.6388 0.602428 27.4105C0.97071 26.2242 1.90247 25.719 2.94839 25.3297C3.40506 25.1913 3.85068 25.1015 4.10848 25.6703C4.2963 26.2429 4.14899 26.7706 3.90224 27.2833C3.28721 28.4622 2.08661 29.0834 1.28743 30.0939Z" fill="#F0C174"/>
<path d="M18.5894 3.62364C20.2945 3.28682 21.4656 2.10047 22.6773 0.973998C23.2813 1.35573 23.8816 1.73371 24.4856 2.11544C22.6515 2.60196 20.8948 3.28308 19.2265 4.2112C18.6741 4.51434 18.2432 4.43949 18.5894 3.62364Z" fill="#DCA65B"/>
<path d="M3.05887 23.3313C3.78439 23.8739 4.35891 23.2751 4.98867 23.0731C5.42325 23.8403 5.37169 23.9787 4.2116 25.1314C3.65181 25.1688 3.11043 25.2848 2.60957 25.5618C2.12712 25.7227 1.67045 25.7452 1.29112 25.326C1.75147 24.5438 2.1529 23.7093 3.05887 23.3313Z" fill="#F0C174"/>
<path d="M1.28743 30.0939C1.19168 28.4734 3.11412 28.4397 3.49345 27.1972C3.65549 27.0438 3.81017 27.0475 3.95748 27.2159C4.20792 28.436 3.54869 29.3566 2.97785 30.3072C2.68691 30.5542 2.39228 30.7974 1.97981 30.5804C1.75147 30.4195 1.51945 30.2548 1.28743 30.0939Z" fill="#CE9549"/>
<path d="M38.1083 9.22606C39.331 8.64224 38.4251 8.17444 38.0273 7.67669C38.5503 6.84213 39.4894 6.86084 40.2702 6.55771L40.3549 6.69618C40.4101 7.05545 40.2444 7.32865 40.0345 7.58687C39.7877 7.91247 39.8503 8.25303 39.9534 8.6123C40.2665 9.7238 39.8098 10.2103 38.7123 10.1579C38.3219 9.96706 37.8837 9.81736 38.1083 9.22606Z" fill="#F5C87C"/>
<path d="M1.29112 25.326C1.78093 25.3148 2.27075 25.3035 2.76425 25.2961C3.12516 25.21 3.2246 25.3597 3.1178 25.6965C2.14553 26.2616 0.804983 26.4263 0.624525 27.9831C0.584014 27.6987 0.547185 27.418 0.506674 27.1336C0.723961 26.5124 0.760789 25.8088 1.29112 25.326Z" fill="#DBA75D"/>
<path d="M1.98349 30.5841C2.2376 30.4494 2.49172 30.3109 2.74583 30.1762C2.86737 30.2997 2.93734 30.4494 2.96312 30.6215C2.93366 31.2353 2.60589 31.7368 2.34809 32.2645C1.92825 32.8745 1.54891 33.5257 0.893371 33.9186C0.749741 33.7727 0.609793 33.623 0.466163 33.477C0.70923 32.3693 1.54891 31.5871 1.98349 30.5841Z" fill="#EBB669"/>
<path d="M17.4882 1.37818C16.527 1.50168 16.0151 2.16409 15.6578 2.99117C15.5363 3.26811 15.4405 3.48517 15.2969 3.02111C15.2453 2.84896 15.2711 2.65435 15.2601 2.46723C15.923 1.28836 16.9137 0.536134 18.1879 0.154406C18.3205 0.783134 17.7276 0.981483 17.4845 1.38567L17.4882 1.37818Z" fill="#E8B265"/>
<path d="M14.1663 6.98434C14.181 7.1303 14.1994 7.27625 14.2142 7.41847C14.704 8.35782 14.7629 9.30465 14.2399 10.2552C14.1994 10.3076 14.1589 10.36 14.1147 10.4087C13.5034 9.25974 13.5881 8.1183 14.1663 6.98434Z" fill="#F3C579"/>
<path d="M0.156806 34.6634C0.73501 35.2884 0.701864 35.9208 0.178903 36.5608C0.0794664 35.9283 -0.156235 35.2996 0.156806 34.6634Z" fill="#EDB155"/>
<path d="M36.9924 8.50003C36.6057 9.03894 36.0349 8.81065 35.5304 8.8593C35.2983 8.69089 35.3241 8.47757 35.4162 8.24928C35.4604 8.19315 35.5046 8.13701 35.5525 8.08088C35.9502 8.515 36.4732 8.51126 36.9924 8.50003Z" fill="#F3C170"/>
<path d="M17.4808 11.0973C17.5287 10.6968 18.6004 10.6482 17.8491 9.97829C18.0517 8.77323 18.6925 8.03597 19.941 7.94615C20.4602 8.44389 20.0956 8.81813 19.9189 9.03894C20.7585 7.63927 22.2022 6.53899 23.5685 5.36013C23.8668 5.39381 23.9957 5.61836 24.1062 5.85787C25.0895 6.23211 26.0729 6.60261 27.0525 6.97686C26.1612 6.92446 25.2626 6.78225 24.3824 6.8571C24.0105 6.88704 22.9425 6.54648 23.3844 7.7216C23.8853 8.06216 24.8133 7.70289 24.9349 8.64598C25.0306 9.39447 24.7323 10.0569 24.0399 10.3114C22.913 10.7268 22.2685 11.3854 22.3606 12.6728C22.3753 12.8824 22.0844 13.0621 21.8708 13.193C20.9206 13.7282 19.7016 13.0097 18.8251 13.8779C18.5599 14.2896 18.1364 14.4991 17.7534 14.7649C17.5508 14.8846 17.3482 15.0006 17.1125 14.8509C16.9873 14.7237 16.8658 14.6002 16.7406 14.4729C15.9966 13.1257 17.2746 12.2312 17.4808 11.0973Z" fill="#F0BD6A"/>
<path d="M24.1062 5.86161C23.97 5.72314 23.8337 5.58467 23.6937 5.4462C23.6054 5.28154 23.6054 5.11687 23.6974 4.95595C24.2646 4.25237 24.8944 3.68726 25.8924 3.96046C26.0434 3.97543 26.1981 3.9904 26.3491 4.00537C26.791 4.19249 27.1004 3.98666 27.3729 3.65732C28.1279 3.57125 28.7797 3.76585 29.2696 4.39084C29.3285 4.70146 29.218 4.83245 28.905 4.74637C28.1647 5.54351 26.942 5.33393 26.1686 6.08242C26.1171 6.13107 25.7672 6.01505 25.7414 5.92149C25.2516 4.16255 24.6697 5.31148 24.1062 5.86161Z" fill="#F4C97F"/>
<path d="M20.0846 8.1183C18.9724 8.28297 18.5562 9.31588 17.8491 9.97829C17.1383 9.94835 16.7774 9.56288 16.7443 8.84807C16.5122 7.8975 17.5361 7.90498 17.8417 7.36607C19.1455 7.94241 18.7809 6.68869 19.0939 6.16475C20.0956 6.20592 19.8562 7.30619 20.3976 7.72909C20.5413 8.06216 20.4197 8.17818 20.0846 8.1183Z" fill="#EEBA66"/>
<path d="M17.8417 7.36607C17.8896 8.17818 16.9137 8.20438 16.7443 8.84807C15.9083 9.31588 15.0723 9.78742 14.2399 10.2552C14.2326 9.30839 14.2215 8.36156 14.2142 7.41847C14.3872 7.47834 14.5567 7.54571 14.7334 7.5981C15.4479 7.80768 15.3779 5.94021 16.1366 6.90201C16.6338 7.53448 15.2601 7.8975 15.1091 8.86304C16.1513 8.39898 16.759 7.36607 17.8417 7.36607Z" fill="#E0A959"/>
<path d="M20.0846 8.1183C20.1877 7.98732 20.2945 7.86007 20.3976 7.72909C21.2999 6.64004 22.6773 6.04499 23.3733 4.74637C23.7122 4.65281 23.8447 4.76508 23.7416 5.12061C23.7269 5.22914 23.7085 5.34142 23.6938 5.44995C22.309 6.59887 20.9243 7.7478 19.5432 8.89673C19.4069 8.87801 19.9888 8.51874 20.0846 8.1183Z" fill="#D79B41"/>
<path d="M17.0868 4.35341C16.4202 4.52931 15.7536 4.7052 15.087 4.8811C16.1255 3.97917 16.921 2.54582 18.5857 3.24565C18.0406 3.54879 17.3961 3.7172 17.0868 4.35341Z" fill="#DCA554"/>
<path d="M28.9086 4.74637C29.0302 4.62661 29.1517 4.5106 29.2732 4.39084C30.0945 4.43949 30.5291 4.98214 30.9931 5.82045C30.0724 5.65578 29.2106 5.8167 28.9086 4.74637Z" fill="#D79C4D"/>
<path d="M23.7453 5.12061C23.6238 4.99711 23.4986 4.86987 23.377 4.74637C24.0473 3.91555 24.747 3.197 25.8998 3.9642C25.0343 4.06899 24.4487 4.7052 23.7453 5.12061Z" fill="#E2AB58"/>
<path d="M21.2668 5.15804C21.392 5.97014 21.0789 6.20592 20.7696 6.35187C20.4013 6.52777 20.184 6.2134 20.173 5.91027C20.1546 5.43498 20.4897 5.11313 20.9095 5.0046C21.0826 4.96343 21.3257 5.18798 21.2668 5.15804Z" fill="#F5CD8B"/>
<path d="M35.4199 8.24928C35.4567 8.45138 35.4972 8.65721 35.534 8.8593C35.1694 9.11379 34.8012 9.36827 34.4366 9.6265C34.3077 9.49551 34.1788 9.36079 34.0499 9.2298C34.5065 8.90421 34.9632 8.57488 35.4199 8.24928Z" fill="#D2923F"/>
<path d="M32.6136 7.85633C32.8861 7.88253 33.1218 8.05094 33.0813 8.29794C33.0518 8.47009 32.7867 8.62727 32.5915 8.72832C32.5509 8.75077 32.3042 8.52623 32.2747 8.3915C32.2232 8.14075 32.3005 7.90124 32.6136 7.85633Z" fill="#FADEA2"/>
<path d="M27.3766 3.65732C27.4723 3.85941 27.6896 4.13635 27.4392 4.27482C27.0488 4.49563 26.6363 4.42078 26.3528 4.00537C26.6953 3.88935 27.0341 3.77334 27.3766 3.65732Z" fill="#F9E7BD"/>
<path d="M38.8044 10.0344C39.8172 9.83233 39.9718 9.12127 39.4562 8.43266C38.8191 7.57939 39.2021 7.4484 39.9387 7.36607C40.5022 8.76574 41.6402 9.89596 41.8059 11.479C39.8908 10.9588 39.4121 12.3922 38.8523 13.7207C38.2483 13.4176 38.0605 12.8899 38.0862 12.2499C37.9242 11.7335 37.4307 11.2095 38.1231 10.7118C38.5134 10.6557 38.6239 10.3076 38.8044 10.0344Z" fill="#F7CE86"/>
<path d="M41.8096 11.479C41.2314 10.0868 40.0529 8.97906 39.9424 7.36607C40.0786 7.14153 40.2149 6.91698 40.3549 6.69243C40.8631 8.57488 41.4523 10.4049 43.2459 11.4865C42.7561 12.9311 42.2883 11.4565 41.8096 11.479Z" fill="#DDA95F"/>
<path d="M38.0862 12.2499C38.3404 12.7402 38.5982 13.2305 38.8523 13.7207C39.1948 14.6039 39.5373 15.4871 39.8798 16.3704C38.6129 15.4048 38.3514 13.8929 37.6959 12.6055C37.8284 12.4857 37.9573 12.366 38.0862 12.2499Z" fill="#D39C4C"/>
<path d="M41.7691 14.6226C41.0362 14.5441 40.922 14.1212 40.6974 13.586C41.4229 13.7132 41.6291 14.0613 41.7691 14.6226Z" fill="#CD9346"/>
<path d="M16.3833 23.0805C16.0151 22.8335 15.6431 22.5828 15.2748 22.3358C15.0759 22.1262 14.6819 22.0139 14.8992 21.5873C15.3816 21.0334 15.923 20.517 16.0077 19.7198C16.4202 19.2969 16.9063 19.3344 17.3409 19.6001C18.2947 20.1876 19.3775 20.24 20.4271 20.4571C20.5523 20.4571 20.6775 20.4571 20.7991 20.4571C20.8359 20.5095 20.8727 20.5656 20.9095 20.6218C20.9095 20.7602 20.8764 20.8875 20.8175 21.0072C21.6166 22.7587 22.4968 22.1936 23.3918 21.1045C24.0326 21.4938 24.6881 22.246 25.2295 20.9773C25.34 20.7153 25.502 20.371 25.8814 20.4983C26.2644 20.6292 26.3933 20.996 26.4338 21.374C26.4853 21.8792 26.3491 22.3732 26.0839 22.7774C25.3805 23.8515 25.2037 24.9705 25.6199 26.1868C25.6088 26.2728 25.5978 26.3589 25.5867 26.445C24.8428 27.1748 23.7011 26.4824 22.8909 27.1635C22.9719 27.0325 23.0345 26.8866 23.134 26.7706C23.4949 26.3514 24.5187 26.6845 24.364 25.7077C24.3051 25.3372 23.7674 25.2512 23.6532 25.4907C23.3218 26.1905 21.9113 25.7863 22.1875 27.0625C22.3643 27.8783 22.8651 28.0205 23.5428 27.912C24.3493 27.781 25.1558 27.1448 25.9513 27.9345C25.7267 28.4547 25.189 28.6605 24.8502 29.0609C24.596 29.3865 24.1946 29.6597 24.4782 30.1724C23.9921 31.4636 23.4949 30.1126 23.0014 30.1799C23.1745 29.8731 23.3476 29.5699 23.6532 29.0235C21.8892 29.7907 21.4067 31.3363 20.3718 33.0878C19.9152 29.7795 18.9576 27.1635 17.1125 24.9592C16.8179 24.5401 16.7811 24.1322 17.1531 23.7355C17.2525 23.6644 17.3703 23.6269 17.4771 23.5745C17.7128 23.4585 18.2726 23.5745 18.0774 23.1367C17.9596 22.8672 17.6429 23.4623 17.3188 23.3986C16.9542 23.4436 16.6338 23.365 16.3833 23.0805Z" fill="#F0BF6E"/>
<path d="M24.8465 29.0647C24.8796 28.3536 25.2442 27.9756 25.9476 27.9382C26.2275 27.8372 26.5443 27.7848 26.7873 27.6201C27.2514 27.302 27.6823 26.9876 28.242 27.3956C27.5497 27.9869 28.8718 28.8327 28.0027 29.3978C27.6454 29.6335 27.2845 29.8618 26.9162 30.0789C26.5885 30.2698 26.1981 30.5055 26.4411 30.9135C26.6768 31.3027 27.104 30.8536 27.4429 30.9359C27.778 31.7143 27.4723 32.0512 26.6916 32.0549C24.666 31.0893 24.6439 30.745 26.5332 29.0048C25.944 28.5931 25.4026 29.263 24.8465 29.0647Z" fill="#F4C77B"/>
<path d="M26.6879 32.0586C27.1777 31.8528 27.4134 31.4673 27.4392 30.9396C28.2531 30.5654 28.5956 29.4838 29.6194 29.4277L29.6415 29.4539C29.0817 30.3633 28.1095 30.9733 27.7854 32.0549C26.4669 33.1514 26.2054 34.9104 25.2626 36.2502C25.0417 36.5608 24.9422 36.8864 24.5077 36.8864C24.9349 35.1349 26.0103 33.6866 26.6879 32.0586Z" fill="#E1A957"/>
<path d="M27.0599 24.9592C28.3304 24.9518 29.6378 24.7646 30.728 25.6928C30.6543 26.0707 30.5217 26.5685 30.0614 26.213C29.0007 25.3934 27.8185 25.7938 26.6879 25.7077C26.3564 25.8462 26.2791 25.6404 26.2386 25.3747C26.419 25.0491 26.7063 24.9368 27.0599 24.9592Z" fill="#E0A854"/>
<path d="M30.7316 34.6783C30.7353 34.1806 30.739 33.6791 30.7464 33.1814C30.75 33.0691 30.7537 32.9568 30.7464 32.8445C30.9305 32.6013 31.0336 32.2308 31.4645 32.373C31.8512 34.0833 31.7039 34.5474 30.7316 34.6783Z" fill="#DCA759"/>
<path d="M29.6231 29.4277C29.903 29.0011 29.9435 28.3911 30.6175 28.1515C30.809 29.0385 30.3523 29.3379 29.6452 29.4539L29.6231 29.4277Z" fill="#E1A957"/>
<path d="M26.3307 25.3297C26.4485 25.457 26.5664 25.5842 26.6842 25.7077C26.4743 26.198 26.106 26.445 25.5794 26.445C25.27 25.6853 25.4947 25.2961 26.3307 25.3297Z" fill="#F0BF6E"/>
<path d="M31.4608 32.373C31.2214 32.5302 30.9821 32.6874 30.7427 32.8408C30.7611 32.3393 30.8568 31.8042 31.4535 31.8191C31.7886 31.8303 31.5013 32.1784 31.4608 32.373Z" fill="#F9D68E"/>
<path d="M26.3307 25.3297C25.8261 25.5281 25.5867 25.9061 25.583 26.4487C24.9938 26.1119 25.4026 25.2474 24.747 24.8956C24.121 24.5588 24.3382 24.3006 24.8244 23.8403C25.6309 23.0693 26.3086 22.1075 25.8077 20.7752C25.5683 21.5237 25.3915 22.347 24.4929 22.4518C23.6496 22.5491 23.7269 21.6509 23.3733 21.2131C23.0824 20.9436 23.064 20.6255 23.2113 20.2775C23.3107 20.0903 23.5538 20.0155 23.598 19.7797C23.6017 19.7647 23.5243 19.7423 23.5096 19.7685C23.436 19.9107 23.4286 20.0903 23.2739 20.1914C21.8634 20.8388 21.8634 20.8388 21.5282 20.0941C21.5467 19.9856 21.6166 19.8471 21.5761 19.7722C21.2778 19.2558 19.871 19.6188 20.3755 18.6607C20.8764 17.7102 21.3478 19.3194 22.007 19.0312C21.2557 17.4893 20.2245 17.0964 18.7183 17.8486C18.4273 17.9946 18.0995 18.2191 17.9412 17.8898C17.455 16.8718 16.5527 17.4145 15.7794 17.2087C15.8456 15.824 17.2672 16.2543 17.8491 15.6069C19.3848 13.9528 20.7438 15.7641 21.926 15.7491C20.7659 14.8547 18.9834 15.1878 17.4771 14.4954C17.8454 14.2409 18.2137 13.9864 18.582 13.7319C19.4217 13.0808 20.3866 13.4513 21.2962 13.3839C23.2408 13.5448 25.1595 13.8143 26.8794 14.8659C27.4171 15.1092 27.9695 15.3375 28.15 15.9999C27.848 16.6211 27.7927 17.5829 26.6842 17.1001C25.8629 16.6099 24.9975 16.202 24.1136 15.8464C23.9516 15.7791 23.819 15.3449 23.6017 15.7042C23.5612 15.7716 23.8447 16.0785 23.749 16.3404C24.4819 17.6316 25.9108 18.1518 27.0414 18.7094C27.848 19.1061 28.4372 19.7797 29.2475 20.0941C29.8109 20.4758 30.0798 20.9361 29.6342 21.5873C29.2696 21.4937 28.9013 21.0409 28.5477 21.6098C28.2936 22.0139 28.4078 22.1898 28.835 22.4144C29.4942 22.7587 28.9897 23.0731 28.7024 23.3575C28.1537 23.8964 27.6049 24.4316 27.0525 24.9705C26.8978 25.2474 26.629 25.3148 26.3307 25.3297Z" fill="#F2C376"/>
<path d="M21.9002 12.9722C22.9093 12.0591 21.1894 11.1048 21.8708 10.3488C22.3827 9.77994 23.4249 10.6669 24.1394 9.81736C24.445 9.45061 24.6145 9.0801 24.6034 8.74703C24.5776 7.94241 23.8042 8.23057 23.3512 8.03971C23.3144 8.02474 23.2813 7.93118 23.2886 7.87878C23.296 7.82265 23.3512 7.77774 23.3844 7.72534C23.5022 7.72534 23.6164 7.72909 23.7343 7.73283C24.8465 7.35859 25.9587 7.62804 27.0709 7.72534C31.8954 8.25677 34.2819 14.1848 34.3887 18.5709C33.4422 18.1592 32.4773 17.9459 31.4535 18.2229C30.3965 18.1181 30.1755 17.2124 29.7962 16.4527C29.8993 15.3487 30.7353 15.446 31.4719 15.3898C32.0096 14.5029 31.7591 13.7095 31.1957 12.9573C30.8495 12.6466 30.577 12.2911 30.3744 11.8645C30.2713 11.6474 30.0466 11.6661 30.2639 11.7859C30.4812 11.9056 30.0393 12.0067 30.2823 11.958C30.5217 11.9094 30.2381 12.3622 30.3228 12.1377C30.1019 13.9153 29.8809 14.08 28.382 13.5673C27.8811 13.3951 27.4134 13.1032 26.8499 13.2005C26.6879 13.2043 26.5295 13.1818 26.3748 13.1369C26.1023 12.9685 25.8519 12.9348 25.6641 13.2716C24.7323 13.7544 23.7785 13.0882 22.8393 13.3427C22.4784 13.3352 22.1396 13.2791 21.9002 12.9722Z" fill="#F2C16F"/>
<path d="M30.0098 16.3329C30.4922 16.9617 30.739 17.7775 31.4535 18.2266C31.7886 19.4017 32.1311 20.5769 32.4589 21.7557C32.6762 22.5267 32.5104 23.1741 31.6523 23.9039C32.1237 20.3186 30.8127 17.8224 28.1537 15.9924C27.7817 15.7379 27.406 15.4834 27.0341 15.2289C26.5553 14.7274 25.0306 15.0193 25.5867 13.8629C26.0323 12.9348 27.0083 13.7507 27.6491 14.1137C28.5956 14.6526 29.6121 15.1653 30.0098 16.3329Z" fill="#DBA04D"/>
<path d="M23.7527 16.3329C23.4212 16.0635 23.0787 15.8053 22.762 15.5208C22.5226 15.3075 22.3311 15.053 22.6294 14.7387C22.8209 14.5366 23.1155 14.4542 23.2813 14.6601C24.2057 15.7828 25.8445 15.8576 26.6842 17.0889C25.6088 17.2461 24.8317 16.1945 23.7527 16.3329Z" fill="#F8D79D"/>
<path d="M29.6415 21.5798C29.682 21.0372 29.52 20.5469 29.2548 20.0866C30.6175 20.8276 31.3135 22.9383 30.6432 24.9068C30.1387 23.6868 30.6838 22.3358 29.6415 21.5798Z" fill="#E2A955"/>
<path d="M12.3249 35.0526C11.4152 34.4912 11.36 32.736 9.75057 33.1589C8.81513 33.4808 8.23324 32.8445 7.59612 32.3468C6.87796 31.6245 6.20032 30.891 5.03655 30.9097C4.40679 30.9172 3.83595 30.629 4.14531 29.7608C6.22242 28.7541 7.99754 29.8843 9.78371 30.5467C9.28653 30.2436 8.54997 30.165 8.27376 29.4389C8.13381 28.6156 8.73779 28.2039 9.22392 27.7548C9.45226 27.5453 9.99732 27.5527 9.93839 27.9008C9.69533 29.3978 11.4962 28.93 11.6214 30.0265C12.137 28.8327 10.4982 28.9038 10.7228 27.8035C11.986 27.695 13.1572 28.0879 14.5493 29.4314C14.0889 28.1141 14.7077 27.5415 14.8955 26.823C14.5751 26.6171 14.3541 25.7826 13.8569 26.6284C13.5255 27.1972 13.1425 27.201 12.6821 26.808C12.6269 26.2803 12.4648 25.7077 11.8535 25.8387C10.8407 26.052 10.1004 25.7976 9.49645 24.9667C8.87406 24.1135 8.36951 25.4532 7.75079 25.1089C8.8004 23.728 9.26812 23.6082 11.2127 24.207C13.1903 23.5558 16.1697 24.8021 17.131 26.6508C17.4293 27.2234 17.2672 27.7212 17.072 28.2451C16.7921 28.9936 16.4791 29.7421 16.7406 30.5729C16.7295 30.9846 16.8069 31.4262 16.376 31.6956C15.8125 31.9202 15.8125 32.3356 16.004 32.8146C16.1255 32.8146 16.2508 32.8146 16.3723 32.8146C16.2287 34.1132 16.1918 35.483 14.5198 35.8011C13.8974 35.1836 13.8054 34.2517 13.2677 33.5855C13.032 33.2936 12.8994 32.7023 12.3322 33.1851C11.6546 33.7989 12.59 34.4276 12.3249 35.0526Z" fill="#F2C377"/>
<path d="M16.7443 30.5617C15.4479 29.8281 16.295 28.8327 16.6817 28.2114C17.5103 26.8829 16.4496 26.2803 15.7941 25.8499C15.157 25.427 14.715 23.7579 13.4518 25.0416C13.2087 25.2886 12.6968 25.2923 12.6858 25.0116C12.6195 23.2939 12.0266 24.5438 11.5367 24.7347C10.756 25.0378 11.1869 24.4652 11.2163 24.1958C11.592 23.6232 11.0838 22.871 11.5883 22.3283C14.8439 23.3986 17.4145 25.2474 18.5857 28.6904C17.4735 28.8065 17.212 29.787 16.7443 30.5617Z" fill="#F4C780"/>
<path d="M2.7532 30.5579C2.74952 30.4307 2.74952 30.3034 2.74583 30.1762C3.12148 29.1807 3.49345 28.189 3.8691 27.1935C4.30367 26.2841 4.1674 25.0416 5.36064 24.5775C5.86519 24.9854 6.13403 25.6965 6.85587 25.8163C7.57034 25.9323 7.60348 26.1269 6.96267 26.4525C6.79326 26.5386 6.57966 26.7631 6.75275 26.8192C8.02332 27.2384 7.36778 28.2937 7.52614 29.0759C6.97004 29.6261 6.26293 29.3641 5.61844 29.4389C5.0476 29.5026 4.36259 29.2481 4.04219 30.0153C3.89119 30.8835 3.43084 30.9883 2.7532 30.5579Z" fill="#F2C377"/>
<path d="M3.85805 29.8057C4.85241 28.3948 6.30344 29.3416 7.51878 29.0759C7.69187 29.3641 7.96808 29.4315 8.27376 29.4352C9.25339 30.004 10.3987 30.3259 11.0322 31.5235C8.91457 30.2473 6.66804 29.5999 4.22633 29.8319C4.09375 29.9928 3.96853 29.9928 3.85805 29.8057Z" fill="#DAA356"/>
<path d="M5.36064 24.5775C4.86346 25.4495 4.36628 26.3215 3.8691 27.1935C3.74388 27.1935 3.61866 27.1972 3.49345 27.1972C3.61866 26.7032 3.74388 26.2092 3.8691 25.7152C4.06428 25.4982 3.93907 25.1239 4.22633 24.948C4.36259 24.2744 5.17282 23.8814 4.98499 23.0731C5.28698 22.6689 5.86887 22.493 6.05669 22.8448C6.45444 23.5708 5.53373 23.96 5.36064 24.5775Z" fill="#DAA357"/>
<path d="M12.6895 26.8043C12.962 26.7818 13.5144 26.7481 13.4518 26.6471C12.8184 25.6666 13.6581 25.5655 14.1405 25.6104C14.6856 25.6591 15.2601 26.0184 14.9028 26.8192C14.181 27.1111 13.5439 27.7661 12.6858 27.4966C12.137 27.3282 11.894 27.0288 12.6895 26.8043Z" fill="#F4CB87"/>
<path d="M24.4745 30.1725C23.8447 29.54 24.0841 29.2106 24.8465 29.061C24.7249 29.4315 24.5997 29.802 24.4745 30.1725Z" fill="#F5D08D"/>
<path d="M17.4845 1.38567C18.3316 1.53162 18.7882 0.947801 19.2559 0.341527C19.3701 1.3707 18.1585 2.6768 17.4145 2.32127C16.9358 2.09299 17.4366 1.70003 17.4882 1.38192C17.4882 1.37818 17.4845 1.38567 17.4845 1.38567Z" fill="#DCA75C"/>
<path d="M12.3359 33.1776C12.2623 32.8969 12.045 32.5264 12.1481 32.3505C12.347 32.01 12.6711 32.2383 12.8736 32.4591C13.7243 33.4134 14.3394 34.495 14.5235 35.7936C13.1572 35.4717 13.4739 33.6941 12.3359 33.1776Z" fill="#E2AB5B"/>
<path d="M14.8918 38.4283C14.785 38.6154 14.6266 38.9821 14.5788 38.9672C13.8606 38.7501 14.2878 38.1027 14.1295 37.6611C14.1589 37.5525 14.1736 37.4403 14.1736 37.328C15.1754 37.1783 14.3983 38.2337 14.8955 38.4283H14.8918Z" fill="#CB8F42"/>
<path d="M17.1052 34.6858C17.0647 35.0189 17.2341 35.4455 16.7848 35.6027C16.7111 35.6289 16.468 35.4343 16.4496 35.3146C16.3686 34.8168 16.7295 34.7307 17.1052 34.6858Z" fill="#F8D9A3"/>
<path d="M14.8955 38.4283C14.6561 38.0615 14.413 37.6947 14.1736 37.328C15.4442 36.9986 14.6966 38.0353 14.8955 38.4283Z" fill="#EEBC6E"/>
<path d="M23.377 20.0866C23.377 20.4608 23.377 20.8313 23.377 21.2056C22.7657 21.7595 22.8541 22.5229 22.8872 23.451C21.5982 22.9645 20.9537 21.9129 20.1656 21.1532C19.7752 20.7752 20.5891 20.9923 20.799 20.8351C21.1637 20.7116 20.8248 20.5843 20.799 20.4608C20.9537 20.154 21.2299 20.0941 21.5319 20.0903C21.7124 20.3261 21.9665 20.9286 22.2022 20.371C22.541 19.5514 23.0087 20.2251 23.377 20.0866Z" fill="#F3C881"/>
<path d="M20.4234 20.4571C18.7514 21.4488 17.5287 19.6562 16.0077 19.7198C15.7609 19.5926 15.5179 19.4654 15.2748 19.3344C14.4351 18.4961 15.1275 18.4811 15.6983 18.6233C17.3409 19.035 18.9613 19.5439 20.4234 20.4571Z" fill="#E1AC59"/>
<path d="M17.4845 14.4879C19.3112 14.4168 21.0863 14.5029 22.7031 16.3442C20.8727 15.8165 19.4585 14.8884 17.8565 15.5994C17.3814 15.5844 17.1273 15.3449 17.1236 14.8509C17.2378 14.7312 17.3593 14.6077 17.4845 14.4879Z" fill="#E3AF5D"/>
<path d="M17.4808 11.0973C17.8786 12.366 16.5012 13.2342 16.7443 14.4692C16.5049 14.8696 16.3171 14.5328 16.1108 14.4243C16.085 13.1144 16.4054 11.9468 17.4808 11.0973Z" fill="#DDA552"/>
<path d="M38.8044 10.0344C38.9038 10.4274 39.0033 10.8203 39.1506 11.3854C38.705 11.0935 38.414 10.9027 38.1231 10.7118C38.1194 10.2028 37.6406 9.91092 37.5338 9.49551C37.346 8.77697 37.8653 9.21483 38.112 9.22606C38.3404 9.49551 38.5724 9.76497 38.8044 10.0344Z" fill="#D8A252"/>
<path d="M17.4698 23.8178C17.0315 24.0947 17.1273 24.5476 17.1125 24.963C16.5969 24.7347 16.2581 24.323 16.0151 23.8215C16.1366 23.5745 16.2618 23.3275 16.3833 23.0805C16.7516 23.0805 17.1162 23.0768 17.4845 23.0768C17.7092 23.3275 17.6944 23.5745 17.4698 23.8178Z" fill="#F6D092"/>
<path d="M16.0077 32.8071C15.1017 32.3917 15.47 31.7854 15.8935 31.3363C16.2839 30.9209 16.3281 31.3962 16.3797 31.6844C16.2581 32.0586 16.1329 32.4329 16.0077 32.8071Z" fill="#F4C780"/>
<path d="M27.0709 7.72534C25.9587 8.03971 24.8465 7.60184 23.7343 7.73283C24.8428 7.14527 25.955 7.15275 27.0709 7.72534Z" fill="#F0BD6A"/>
<path d="M7.90179 32.0474C8.39529 32.6275 9.11712 32.8183 9.75057 33.1589C11.371 34.7158 12.7999 36.441 13.032 38.7838C13.3487 41.9836 13.0062 42.4476 10.1225 43.6714C8.46158 43.3645 6.80063 43.0614 5.32013 42.1669C4.49886 41.4447 3.85436 40.554 3.0957 39.7718C2.09766 38.7426 1.20273 37.7135 2.74215 36.3999C2.91524 36.2502 3.08465 35.9395 3.02941 35.7374C2.57274 34.102 3.8249 33.0092 4.24843 31.6582C4.45098 31.3625 4.69405 31.1717 5.0697 31.3363C5.54846 31.647 6.07511 31.5497 6.59807 31.5048C7.04369 31.6582 7.50773 31.763 7.90179 32.0474Z" fill="#FEEC7E"/>
<path d="M14.8992 21.5873C15.0244 21.8381 15.1496 22.0851 15.2748 22.3358C13.9195 21.7632 12.5642 21.1906 11.1795 20.6068C12.7079 19.9406 13.6691 21.2655 14.8992 21.5873Z" fill="#E6B261"/>
<path d="M4.59829 31.6956C4.27052 32.3431 4.53569 33.099 3.7402 33.7465C2.96312 34.3789 4.13794 36.0032 3.08834 36.8302C1.78462 37.8594 2.41806 38.578 3.30931 39.3451C4.21528 40.1236 4.62407 41.3848 5.75839 41.9424C5.72892 41.9911 5.71051 42.0696 5.67 42.0846C5.55951 42.1258 5.4343 42.1407 5.31645 42.1669C1.81039 40.539 0.495626 37.6985 0.889688 33.9149C0.933882 33.0915 1.70728 32.736 2.024 32.0848C2.82317 31.5347 3.60393 30.891 4.59829 31.6956Z" fill="#FEEE8A"/>
<path d="M4.22633 24.948C4.22265 25.2586 4.15267 25.5393 3.8691 25.7152C3.62971 25.2811 3.36823 25.6628 3.1178 25.6965C2.99995 25.5618 2.8821 25.4308 2.76425 25.2961C3.16199 24.7796 3.72546 25.0004 4.22633 24.948Z" fill="#EFC073"/>
<path d="M4.59829 31.6956C3.69232 31.501 2.90419 32.0961 2.02768 32.0848C2.27075 31.5759 2.51013 31.0669 2.7532 30.5579C3.29457 30.5692 3.8249 30.5691 3.85805 29.8057C3.98326 29.8132 4.1048 29.8244 4.23001 29.8319C4.27789 30.251 4.48413 30.6253 4.91133 30.528C6.34027 30.2024 7.10262 31.1417 7.90179 32.0474C7.40461 31.9389 6.91111 31.8303 6.41393 31.7256C5.9278 31.7368 5.44534 31.7892 4.95921 31.6956C4.83768 31.4374 4.71615 31.4336 4.59829 31.6956Z" fill="#F4C76C"/>
<path d="M21.9002 12.9722C22.2648 12.976 22.6331 12.9797 22.9977 12.9797C23.4765 13.339 23.6938 13.7207 22.8946 13.8742C22.4563 13.9602 21.9628 14.0201 21.5319 13.7357C20.5486 13.7319 19.569 13.7282 18.5857 13.7245C18.3573 12.729 19.1528 13.0284 19.5653 12.9909C20.3387 12.9236 21.1231 12.9722 21.9002 12.9722Z" fill="#E4AC56"/>
<path d="M19.3222 22.3321C19.6353 22.6165 20.0883 22.841 20.2245 23.1966C20.4823 23.8627 20.8027 24.6711 20.637 25.2923C20.4897 25.8499 19.9004 25.5505 19.941 24.9892C19.9741 24.5251 19.8268 24.1509 19.7163 23.7467C19.5837 23.2714 19.4511 22.7999 19.3222 22.3321Z" fill="#F4C97F"/>
<path d="M17.4698 23.8178C17.4735 23.5708 17.4771 23.3238 17.4808 23.0768C17.8196 22.7362 18.1327 22.4106 18.5452 23.0356C18.7072 23.2789 19.0313 23.481 18.8619 23.7841C18.4457 24.5139 17.9375 23.6606 17.4698 23.8178Z" fill="#F1C278"/>
<path d="M19.3222 22.3283C19.0387 22.2797 18.6925 22.2684 18.7698 21.8455C18.7882 21.7482 19.0718 21.606 19.1933 21.636C19.6721 21.7595 19.3627 22.0813 19.3222 22.3283Z" fill="#F4C97F"/>
<path d="M20.7954 20.4571C21.1084 20.7191 21.4251 20.981 21.8487 21.3366C21.16 21.5686 20.9869 21.1831 20.7954 20.8351C20.7954 20.7078 20.7954 20.5843 20.7954 20.4571Z" fill="#F1BF6E"/>
<path d="M21.5319 13.7394C21.9555 13.3614 23.134 14.4879 22.9977 12.9835C23.8558 12.4707 24.7249 13.3951 25.583 12.9685C25.8261 12.7439 26.0692 12.7589 26.3122 12.9722C26.4411 12.9722 26.5664 12.9722 26.6953 12.9722C28.3341 13.7619 30.6175 13.3427 31.4756 15.5994C31.1809 16.2431 30.1534 15.3749 30.0098 16.3329C28.6987 15.4048 27.5165 14.2521 25.7451 13.7956C25.8298 14.7461 26.7984 14.6488 27.0341 15.2289C25.2 14.7312 23.447 13.9266 21.5319 13.7394Z" fill="#F0BD6A"/>
<path d="M22.8983 17.3209C23.6017 17.7438 24.3051 18.1705 25.259 18.7431C23.7195 19.2184 23.3181 18.2116 22.8983 17.3209Z" fill="#F5CB83"/>
<path d="M23.3733 20.0829C23.2039 19.7722 23.0308 19.4616 22.7031 18.8703C23.4581 19.3381 24.434 19.0687 24.364 20.0005C24.3125 20.7191 23.7269 20.1465 23.3733 20.0829Z" fill="#F5CB83"/>
<path d="M31.4756 15.5994C30.2676 14.0014 28.1316 14.1474 26.6953 12.9722C27.2661 12.2537 27.8369 12.7776 28.3046 13.0621C29.8183 13.9827 30.1019 13.2379 29.9914 11.8607C30.7427 11.5838 30.5843 13.1369 31.4571 12.613C32.9487 13.3502 31.4645 15.0643 32.6762 15.8726C32.0169 16.303 31.8549 15.6069 31.4756 15.5994Z" fill="#F6CF8B"/>
<path d="M31.4571 12.613C30.0982 14.1137 30.577 11.9169 29.9914 11.8607C29.6894 11.6661 29.2622 11.4678 29.59 11.0337C29.8625 10.6706 30.2492 10.7642 30.5033 11.1235C30.8495 11.6025 30.75 12.3734 31.4571 12.613Z" fill="#F9DBA3"/>
<path d="M26.3122 12.9722C26.0692 12.9722 25.8261 12.9685 25.583 12.9685C25.5389 12.7177 25.2332 12.3622 25.7119 12.2799C26.1723 12.2013 26.2828 12.583 26.3122 12.9722Z" fill="#F6CF8B"/>
<path d="M15.4442 28.2638C15.5547 28.3424 15.8972 28.3761 15.702 28.7092C15.6284 28.8289 15.4074 28.9374 15.2674 28.9225C14.9839 28.8925 14.8992 28.6455 14.9655 28.3873C15.017 28.1815 15.1938 28.1553 15.4442 28.2638Z" fill="#F4C780"/>
<path d="M11.2495 40.3219C10.6602 39.4724 11.1279 38.8474 11.209 38.2224C11.7062 38.8549 11.7062 39.4836 11.2495 40.3219Z" fill="#FDEF95"/>
<path d="M4.96289 31.6919C5.45271 31.3625 5.93884 31.3176 6.41761 31.7218C5.92043 32.2008 5.43798 32.2009 4.96289 31.6919Z" fill="#FEEE8A"/>
</svg>
