<svg width="46" height="48" viewBox="0 0 46 48" fill="none" xmlns="http://www.w3.org/2000/svg">
<path d="M16.4213 13.4187C16.8429 14.5135 17.4282 14.4924 18.2852 13.8117C19.184 13.0959 19.5359 11.903 20.5567 11.3205C20.8981 11.317 21.2151 11.3837 21.4764 11.6258C21.8771 12.0574 21.9293 12.5065 21.5426 12.9767C20.5462 13.8819 20.3302 15.2012 19.7867 16.3485C19.2084 17.2047 19.2851 18.1345 19.4767 19.0783C19.1074 19.8537 19.1074 19.8538 18.3305 19.7064C18.2782 19.6959 18.2469 19.6923 18.2155 19.8783C18.1633 20.2187 18.1319 20.5625 17.8637 20.8186C16.0102 19.8502 15.944 17.8748 17.3062 16.6327C16.3726 18.2046 14.2126 19.6362 14 22.2748C14.1638 21.3239 14.2683 20.345 15.2124 19.6362C16.383 21.152 16.1879 22.573 15.2159 23.9976C14.8849 24.4221 14.4564 24.7063 13.9617 24.8993C13.7039 24.987 13.4391 25.0151 13.1674 24.9905C12.7911 24.9309 12.4915 24.7625 12.3452 24.3835C12.1954 23.8467 12.394 23.3379 12.488 22.8221C12.8225 21.3274 13.3102 19.8853 13.9408 18.4889C14.014 18.338 14.1045 18.1976 14.2021 18.0643C15.742 16.6678 15.1462 14.9731 14.8536 13.3205C14.8292 12.8959 14.8118 12.4749 14.8745 12.0539C15.2647 11.0644 15.0243 9.66792 16.5607 9.42231C16.93 9.58371 17.0937 9.87494 17.0937 10.2714C17.038 11.1556 16.2785 11.8328 16.3726 12.7626C15.8569 13.5486 16.4039 14.2924 16.3133 14.7591C16.2053 14.5135 16.0729 13.9696 16.4213 13.4187Z" fill="#F6F2E3"/>
<path d="M32.0221 39.1061C32.3113 39.4394 32.7189 39.3552 33.0847 39.4219C32.8374 40.5763 31.7399 39.9728 31.1337 40.3868C29.7297 40.7728 28.3571 41.2464 27.0262 41.8464C25.8417 42.2745 24.8523 43.2429 23.4762 43.1306C23.1278 43.0569 22.8177 42.9061 22.5495 42.6745C21.9746 41.8499 22.2359 41.4254 23.1835 41.3377C23.4971 41.7412 23.7967 41.8499 24.3123 41.5552C25.354 40.9552 26.3086 40.278 27.0367 39.3096C27.5558 38.3061 28.4407 37.636 29.3604 36.7272C28.4268 37.6114 27.5662 38.2851 27.0193 39.257C25.9915 40.3131 25.0788 41.5412 23.4065 41.5798C23.0964 40.7061 23.7967 40.3552 24.2879 39.9412C24.8558 39.4605 25.4829 39.057 25.8173 38.3553C27.3015 36.3448 28.9772 34.65 31.7225 34.7167C31.9106 34.9202 31.9629 35.1623 31.9246 35.4325C31.0815 37.0395 29.2977 37.8886 28.7682 39.5798C29.7297 39.3973 30.761 38.45 32.0221 39.1061Z" fill="#E0CEAA"/>
<path d="M23.6643 10.2153C23.6748 6.93112 24.7687 4.11011 27.2004 1.86452C28.0505 2.08206 28.1132 2.14522 27.4025 2.82942C25.9532 4.22589 25.3122 6.00131 24.821 7.87497C24.7373 8.19075 24.7687 8.50654 24.7652 8.56618C25.1554 6.09604 26.0333 3.64695 28.4407 2.02943C29.3256 2.14171 30.2976 1.84347 31.0466 2.58381C30.8411 2.68205 30.6181 2.89258 30.437 2.861C28.4024 2.4996 27.5175 3.77327 26.8486 5.37325C26.4932 6.41534 26.6709 7.53462 26.3678 8.58724C26.1797 9.23635 26.4479 9.72056 27.1482 9.88196C27.737 10.1767 28.4755 9.80476 29.019 10.31C28.8622 11.3521 28.3327 11.9381 27.2179 11.8188C26.211 11.2539 25.03 11.2819 23.9744 10.8749C23.7375 10.717 23.5528 10.5346 23.6643 10.2153Z" fill="#E5D7BB"/>
<path d="M15.0069 47.1025C14.7595 47.0885 14.5157 47.0744 14.2683 47.0604C13.3625 46.8288 12.6135 46.4885 13.1953 45.3376C12.4637 45.0394 12.0003 45.478 11.4916 45.706C11.0701 45.899 10.666 46.1236 10.2479 46.3236C9.61035 46.6323 8.77074 47.0323 8.47113 46.1411C8.12274 45.106 9.29681 45.5446 9.71835 45.2148C10.4744 44.9411 10.983 44.2534 11.84 43.9096C10.1713 43.3973 8.931 42.3201 7.71861 41.2043C7.61061 41.0815 7.52003 40.9482 7.43642 40.8078C7.24132 40.3657 6.94867 39.9272 7.30054 39.4289C7.43293 39.2956 7.5688 39.1623 7.70119 39.0254C8.23422 38.8991 8.40842 39.3307 8.60003 39.657C9.31074 40.8605 10.3873 41.5938 11.6205 42.1412C11.9724 42.3201 12.3243 42.4955 12.6762 42.6745C13.4635 43.0885 14.1289 43.6815 14.8501 44.1938C15.3936 44.7832 15.7629 45.4324 15.5991 46.278C15.5051 46.6288 15.2333 46.8499 15.0069 47.1025Z" fill="#F4EDD8"/>
<path d="M35.5617 10.9662C35.3876 11.4644 34.8092 11.7451 34.8267 12.3486C34.6768 13.1065 34.75 13.9275 34.1786 14.5626C33.3704 15.0959 32.4019 15.1345 31.5239 15.4468C30.6112 15.6222 29.8552 16.138 29.0748 16.5977C28.6637 16.7415 28.1272 17.0117 27.9216 16.4748C27.7091 15.917 28.3118 15.6363 28.6672 15.3064C29.019 15.0082 29.4092 14.7626 29.998 14.3029C29.2594 14.4047 28.7473 14.3275 28.2979 14.0328C27.9146 13.7661 27.6568 13.4223 27.6359 12.9345C27.8206 11.9205 28.5592 11.9661 29.2281 12.2188C30.963 12.8749 32.4681 12.6538 33.8581 11.3697C34.2867 10.9802 34.858 10.496 35.5617 10.9662Z" fill="#E6D7B7"/>
<path d="M35.5617 10.9662C35.1332 10.9767 34.7883 11.1872 34.4957 11.4714C32.8408 13.0574 31.0083 13.5872 28.8588 12.524C28.3397 12.2679 27.9669 12.4468 27.8972 13.0749C27.3015 13.3521 26.8451 13.117 26.4444 12.6714C26.3364 12.1977 26.7127 12.0118 26.9844 11.7626C27.0541 11.7346 27.1203 11.7065 27.19 11.6784C28.0819 11.6012 28.4999 10.9276 28.9319 10.2714C29.0608 10.1872 29.1863 10.1907 29.3047 10.289C29.4092 10.6398 29.5137 10.9942 29.6183 11.3451C29.8029 12.4995 30.5868 12.4293 31.3985 12.1872C33.0812 11.6854 34.3703 10.6118 35.2308 9.11705C35.9798 7.81532 36.7567 6.53814 37.6242 5.3136C37.8959 4.94167 38.2966 5.00483 38.6763 4.99781C39.1606 5.49956 39.3069 6.0785 39.0596 6.74516C38.8296 6.75568 38.5997 6.7627 38.3697 6.77323C37.3559 7.35217 36.9867 8.38724 36.5686 9.38372C36.4188 9.96266 35.9868 10.317 35.5513 10.6644C35.5652 10.7662 35.5687 10.8644 35.5617 10.9662Z" fill="#F5EFDF"/>
<path d="M11.5474 42.5131C9.7079 41.9763 8.59655 40.6254 7.70467 39.0289C5.9697 37.05 4.6075 36.7307 3.1826 37.9693C2.56944 38.0921 2.64609 37.664 2.64609 37.2956C3.45086 35.8851 4.70505 36.05 5.98015 36.3658C6.59331 36.5167 7.09151 36.9763 7.72209 37.1061C8.85435 37.9272 8.70106 39.5307 9.69745 40.3201C9.49539 39.2605 8.27603 38.3061 8.99719 36.9412C9.78454 36.6781 10.0424 37.229 10.2967 37.7904C10.5615 39.3061 11.1015 40.671 12.3835 41.6289C12.8922 42.671 11.948 42.3306 11.5474 42.5131Z" fill="#DED0B1"/>
<path d="M5.92093 27.8326C5.34957 27.1975 5.70841 26.4045 5.56905 25.6993C5.62479 24.6467 5.63873 23.5765 6.65254 22.8993C6.8337 22.6993 7.0497 22.6818 7.2866 22.766C7.41202 22.8607 7.49912 22.9835 7.54789 23.1344C7.57228 23.2818 7.5688 23.4326 7.54441 23.5835C7.49564 23.9274 7.13332 24.194 7.29706 24.5905C7.29358 24.8537 7.29008 25.1133 7.2866 25.3765C6.60028 27.1589 7.69421 28.3484 8.6697 29.5834C8.72892 30.401 8.49899 31.1869 8.40841 31.9869C8.37009 32.3308 8.21331 32.7132 7.81267 32.7308C7.44338 32.7483 7.0706 32.4255 7.10195 32.1062C7.31447 29.9659 5.95925 28.0607 6.12647 26.0537C5.91396 26.5238 6.38428 27.2572 5.92093 27.8326Z" fill="#F3EACF"/>
<path d="M9.78106 45.3587C9.5546 45.8569 8.89267 45.5025 8.55822 46.0569C10.6799 47.0604 11.9411 43.7376 14.216 45.0394C12.6971 45.8604 13.5367 46.4534 14.2683 47.0639C13.6482 47.2078 12.819 47.7972 12.6448 46.6429C12.4811 45.5622 12.0142 45.7867 11.3732 46.1236C10.76 46.4429 10.1573 46.8358 9.49886 47.0007C8.76028 47.1867 7.89629 47.1341 7.743 46.1446C7.60016 45.2183 8.27254 44.9762 9.06687 44.9938C9.2968 45.0008 9.52674 44.9657 9.75668 44.9481C9.85074 45.0359 9.88558 45.1236 9.86119 45.2183C9.8368 45.3131 9.80893 45.3587 9.78106 45.3587Z" fill="#DED0B2"/>
<path d="M37.6242 5.31711C36.3421 8.18724 34.9172 10.9591 31.9281 12.4223C30.5972 13.0749 29.7158 12.6117 29.6183 11.3451C29.9527 11.9521 30.3917 12.0574 31.0675 11.8504C32.9244 11.2784 34.426 10.3205 35.2308 8.46092C35.7743 7.21533 36.4641 6.08552 37.6242 5.31711Z" fill="#E5D8BB"/>
<path d="M15.0069 47.1025C15.0138 46.8218 15.0626 46.5622 15.3309 46.4043C15.8744 45.9867 16.0555 45.085 16.9613 45.1587C17.132 45.1622 17.2505 45.3692 17.4491 45.2885C17.3829 45.2148 17.3271 45.1306 17.2818 45.0323C17.0902 44.099 17.8706 44.2113 18.3584 44.0078C18.6371 43.8955 18.9123 43.7727 19.2259 43.8499C19.4349 43.9622 19.5812 44.1271 19.6439 44.3622C19.7066 44.7587 19.1178 45.0394 19.4488 45.4674C19.63 45.3692 19.6544 45.1692 19.7589 45.0288C19.8739 44.9201 20.0097 44.8815 20.163 44.892C20.3059 44.9587 20.4173 45.0604 20.5044 45.1902C20.6438 45.4709 20.8006 45.7516 20.5776 46.0639C19.9993 46.3586 20.4661 47.1692 19.8948 47.4674C19.5707 47.1657 19.2537 46.8569 18.7904 46.8007C18.0309 46.5341 17.7661 47.4499 17.139 47.499C16.8708 47.6218 16.5746 46.7727 16.3203 47.52C16.0451 46.8604 15.5051 47.0499 15.0069 47.1025Z" fill="#ECE0C4"/>
<path d="M28.2561 2.19434C26.3573 4.27151 25.138 6.6434 25.0962 9.53459C25.0927 9.82231 25.0439 10.1697 24.6363 10.103C24.2844 10.0434 24.2566 9.76266 24.2914 9.43284C24.5527 7.01884 25.0788 4.72764 26.9391 2.97328C27.5001 2.44346 27.4722 2.41188 27.2004 1.86803C27.5523 1.63295 27.9042 1.39435 28.2561 1.15927C28.5382 1.50312 28.5417 1.84698 28.2561 2.19434Z" fill="#FAF5E8"/>
<path d="M41.8362 19.0467C41.9477 19.3976 42.0557 19.7485 42.1672 20.0959C41.9825 20.6011 41.4565 20.5695 41.0907 20.7906C40.7005 21.152 40.4705 21.8958 39.7598 21.566C38.8575 21.1485 39.2268 20.3169 39.2651 19.6081C39.3383 19.131 39.3452 18.6222 39.7877 18.2924C40.7876 17.952 40.5472 16.8608 41.021 16.1906C41.4077 15.6433 41.5227 14.8398 42.4772 15.0714C42.5957 15.1907 42.6514 15.3345 42.6549 15.4994C42.2508 16.6573 41.4286 17.7064 41.8362 19.0467Z" fill="#F5EFDD"/>
<path d="M10.4395 23.5625C10.5266 21.9309 11.4011 20.552 11.8644 19.0397C12.6239 17.9766 13.1221 16.9169 11.8644 15.8538C11.8365 15.4819 12.0734 15.3661 12.3731 15.3064C13.6865 15.5626 13.8781 16.6854 13.6064 17.5731C12.8887 19.9134 12.1815 22.2818 10.8297 24.373C10.2444 24.3309 10.2549 23.9905 10.4395 23.5625Z" fill="#E0D2B2"/>
<path d="M39.0596 6.74867C38.7321 6.21183 38.6101 5.62587 38.6763 5.00132C38.7286 4.97325 38.7808 4.94869 38.8296 4.92062C40.1396 4.1066 40.9966 4.85395 41.77 5.80833C42.108 6.22587 42.432 6.78375 41.9024 7.19076C40.8572 7.99075 39.9584 7.22936 39.0596 6.74867Z" fill="#D2CD92"/>
<path d="M42.101 23.2046C41.6167 23.8326 41.0697 24.4256 40.8746 25.3344C42.5469 25.78 44.5397 25.7309 45.2992 27.8186C45.0414 28.1028 44.7278 28.1203 44.3864 28.0291C44.2366 27.9659 44.1007 27.8747 43.9823 27.7589C42.7769 26.2256 41.0697 26.5273 39.4497 26.5098C39.3174 26.408 39.2303 26.2747 39.1954 26.1063C39.1745 25.5624 39.5403 25.2046 39.8156 24.8046C40.4636 24.1239 40.4426 23.0151 41.2892 22.4607C41.7735 22.4713 41.8327 22.9555 42.101 23.2046Z" fill="#E6D9BA"/>
<path d="M42.4877 15.531C42.5016 15.4222 42.4947 15.3135 42.4703 15.2082C42.31 14.9801 41.9477 14.8433 42.1323 14.4573C43.4005 13.6503 44.4387 14.124 45.2469 15.1591C45.7207 15.7661 45.874 16.5661 45.2191 17.2117C44.5258 17.8924 43.9649 17.3415 43.4318 16.9064C43.2123 16.7275 43.0451 16.4854 42.8535 16.2713C42.5853 16.0959 42.3414 15.9099 42.4877 15.531Z" fill="#CFC988"/>
<path d="M2.8168 37.2816C2.82725 37.5693 2.88647 37.8325 3.1826 37.9693C3.58673 38.8816 3.99087 39.8254 3.06067 40.6394C2.62519 41.0219 2.0817 40.8956 1.66363 40.4921C0.750857 39.6184 0.98428 38.6184 1.41628 37.6289C1.61835 37.1728 1.78906 36.6325 2.44054 36.6044C2.69486 36.7588 2.82028 36.9833 2.8168 37.2816Z" fill="#CEC589"/>
<path d="M12.171 15.5345C12.07 15.6433 11.9689 15.7521 11.8679 15.8573C11.3767 16.1556 10.9098 16.524 10.3838 16.7415C9.75319 17.0047 8.9519 17.338 8.52687 16.5345C8.06351 15.6608 8.70802 15.1591 9.44661 14.8187C9.73577 15.0503 9.59641 15.5626 10.0249 15.6924C10.2514 15.6538 10.5022 15.6082 10.5858 15.3907C10.6729 15.1661 10.4151 15.1977 10.2862 15.138C10.0667 15.0924 9.87164 15.0117 9.73577 14.8257C10.4082 13.5907 11.2826 13.6293 12.2755 14.4152C12.4079 14.6363 12.502 14.8679 12.4602 15.1345C12.4044 15.2959 12.3104 15.4292 12.171 15.5345Z" fill="#CCC580"/>
<path d="M7.01138 35.5202C6.83719 34.5693 6.09861 34.1448 5.39138 33.636C3.96996 32.6185 2.4266 31.6922 1.77163 29.9098C1.62879 29.5448 1.86221 29.4922 2.13047 29.4641C3.69125 31.5203 6.25887 32.415 7.81965 34.4746C7.79874 35.022 7.7639 35.5518 7.01138 35.5202Z" fill="#E2D4B7"/>
<path d="M42.1323 14.4573C42.2473 14.7065 42.3588 14.9556 42.4737 15.2082C40.9408 15.5696 41.237 17.0362 40.7597 18.0432C40.6517 18.2713 40.8085 19.4818 40.0734 18.338C39.4393 17.4187 38.9411 16.3661 37.7287 16.0468C37.5963 15.952 37.5092 15.8222 37.4639 15.6643C37.4465 15.3135 37.5685 15.0433 37.9168 14.9135C37.9726 14.924 38.0353 14.9205 38.0875 14.9415C39.6727 15.6538 40.8781 15.5099 42.1323 14.4573Z" fill="#E6DCC2"/>
<path d="M44.2436 27.8642C44.5954 27.8466 44.9508 27.8326 45.3027 27.815C45.5361 28.1659 45.766 28.5133 45.9994 28.8642C45.9994 29.0361 46.0029 29.208 45.9925 29.3764C45.9507 30.3062 45.9263 31.4676 44.7313 31.4185C43.4214 31.3659 43.2785 30.2676 43.5189 29.1519C43.7523 29.1589 43.9649 29.2361 44.1565 29.3659C44.3237 29.4922 44.4665 29.6536 44.6512 29.7343C44.9612 29.3308 44.6094 29.1273 44.4108 28.8817C44.2958 28.7764 44.2052 28.6536 44.1286 28.5168C44.0519 28.2817 44.0729 28.0607 44.2436 27.8642Z" fill="#D0CB8B"/>
<path d="M9.78106 45.3587C9.77409 45.2218 9.76712 45.085 9.76015 44.9446C10.551 44.4639 11.091 44.0148 9.8368 43.3762C9.28983 43.099 8.85434 42.6043 8.3666 42.2113C7.96247 41.8219 7.17164 41.6219 7.68725 40.7868C8.44325 41.4043 9.15396 42.0885 9.96222 42.6219C10.76 43.1482 11.6484 43.5482 12.8817 43.7762C11.7007 44.3797 10.7391 44.871 9.78106 45.3587Z" fill="#DACCAD"/>
<path d="M27.9112 42.2043C26.319 43.699 24.2635 44.2569 22.3056 45.0183C22.4275 45.3376 22.2324 45.4394 21.9781 45.506C21.7133 45.485 21.5426 45.3411 21.4451 45.106C21.5705 44.5832 20.7204 44.5201 20.912 43.9587C22.316 43.1517 24.058 43.5868 25.448 42.664C26.0368 42.2745 26.6152 41.6815 27.4583 41.9026C27.6429 41.9517 27.7927 42.0534 27.9112 42.2043Z" fill="#DECEAE"/>
<path d="M4.59357 18.731C6.14738 19.0818 6.30764 19.4748 5.35306 20.559C4.84093 21.145 4.18596 21.5099 3.51357 21.8537C2.97357 22.2046 2.6217 21.9309 2.31512 21.4923C2.13047 21.1064 2.19318 20.7415 2.41615 20.3941C2.53809 20.1555 2.66351 19.9169 2.78544 19.6748C3.36377 19.5099 3.40209 20.2818 3.87241 20.2958C4.14067 20.2502 4.33925 20.1099 4.46119 19.8678C4.57964 19.4994 4.14764 19.0608 4.59357 18.731Z" fill="#D3C994"/>
<path d="M2.41614 20.3976C2.4475 20.759 2.47885 21.1204 2.5102 21.4818C2.49627 21.566 2.48234 21.6502 2.4684 21.7379C1.72285 23.3134 1.70543 25.0782 1.19679 26.7168C1.05395 26.8572 0.900659 26.8747 0.729949 26.7694C0.332787 24.387 0.520915 22.1625 2.41614 20.3976Z" fill="#E3D9BD"/>
<path d="M7.01138 35.5202C7.23784 35.1728 7.46429 34.8255 7.68725 34.4781C8.26209 34.2746 8.62092 34.5062 8.83344 35.0465C8.80905 35.3062 8.66622 35.4851 8.45719 35.6184C7.66286 35.3448 7.99383 36.2009 7.6768 36.4114C7.40506 36.6255 7.11241 36.7658 6.75705 36.7307C5.52028 35.8184 4.09189 36.5412 2.78195 36.257C3.94905 34.6114 5.54467 35.436 7.01138 35.5202Z" fill="#E7DBC3"/>
<path d="M28.2561 2.19434C28.2561 1.85049 28.2561 1.50312 28.2561 1.15927C29.3813 -0.0301895 30.6774 -0.338957 32.1719 0.394366C32.0953 0.643486 31.942 0.825939 31.7051 0.931201C31.0989 1.11365 30.3359 0.780326 29.8586 1.46804C30.1966 1.87154 30.6286 1.58031 30.9909 1.68558C31.3219 1.76628 31.611 1.90663 31.7748 2.22943C31.5309 2.34873 31.2905 2.46451 31.0466 2.58381C30.1199 2.44697 29.1235 2.79433 28.2561 2.19434Z" fill="#D5C88C"/>
<path d="M30.6774 7.46094C31.409 7.35217 32.1824 7.35217 32.374 8.22584C32.5935 9.22582 31.8932 9.68898 31.0397 9.94511C30.7923 10.117 30.4962 10.1311 30.2279 10.082C29.782 10.0013 29.0922 10.3977 28.9459 9.71003C28.8239 9.14863 29.3395 8.82934 29.8517 8.65741C30.1826 8.46092 30.7645 9.01179 30.9177 8.28899C30.8063 8.01531 30.4962 7.8083 30.6774 7.46094Z" fill="#D6CB96"/>
<path d="M15.0173 13.4152C15.3587 15.145 16.4771 16.9871 14.3031 18.3485C13.7736 17.7906 13.8119 17.0819 13.798 16.3871C13.8711 16.1099 14.0453 15.931 14.3205 15.8573C14.8466 16.124 15.0208 15.917 14.9407 15.3836C14.8605 14.8433 14.7735 14.3029 14.6898 13.7626C14.7595 13.6117 14.871 13.4959 15.0173 13.4152Z" fill="#E2D3B6"/>
<path d="M36.8996 36.5904C36.9309 35.8079 36.9623 35.022 37.6277 34.4606C38.0492 34.3553 38.0318 33.7658 38.4778 33.6851C38.962 33.8009 39.1536 34.1693 39.2616 34.6079C39.1641 35.8781 38.7983 36.9167 37.2723 36.9588C37.1469 36.836 37.025 36.7132 36.8996 36.5904Z" fill="#E1D8AE"/>
<path d="M17.0902 10.2679C16.8046 10.1205 16.7802 9.84336 16.7453 9.56968C16.7697 9.49249 16.7976 9.4188 16.822 9.34161C16.923 9.21179 17.0484 9.12056 17.2017 9.06091C17.3794 8.96618 17.7313 9.11004 17.7348 8.87846C17.7382 8.71004 17.3585 8.79074 17.1634 8.69601C16.93 8.58373 16.7802 8.4118 16.7418 8.15215C17.679 7.42585 18.55 7.48901 19.3164 8.40478C19.9366 9.14863 19.3513 9.54863 18.8391 9.95213C18.2957 10.2995 17.6198 9.85739 17.0902 10.2679Z" fill="#D2CA8B"/>
<path d="M41.4147 22.5309C40.913 23.3274 40.8294 24.3484 40.0943 25.0151C39.833 24.9554 39.6657 24.794 39.5996 24.5309C39.603 23.6888 40.2232 23.0467 40.3381 22.2397C40.6273 21.559 40.791 20.8362 41.0593 20.152C41.4356 20.2643 41.8083 20.3415 42.1672 20.1029C42.2647 20.359 42.3623 20.6187 42.4633 20.8748C42.0034 21.3555 42.1811 22.2432 41.4147 22.5309Z" fill="#F4EFD6"/>
<path d="M2.5102 21.4818C2.84466 21.6046 3.17912 21.7309 3.51357 21.8537C3.39163 22.1941 3.26621 22.5309 3.14428 22.8713C2.49976 23.973 2.47886 25.201 2.4475 26.4256C2.19666 26.7484 1.94931 27.0922 1.55563 26.58C1.15847 24.7625 1.87963 23.1484 2.45795 21.5099L2.5102 21.4818Z" fill="#DED1B6"/>
<path d="M2.78195 36.257C4.20685 35.9623 5.6457 35.5062 6.95912 36.6009C7.26919 36.629 7.4817 36.8044 7.63499 37.064C7.65241 37.1342 7.66983 37.2044 7.68377 37.2746C7.31796 37.8009 7.03228 37.4114 6.71176 37.2009C5.39834 36.3412 4.09538 36.2641 2.8168 37.2816C2.53809 37.1412 2.47538 36.8816 2.44054 36.6044C2.55551 36.4886 2.66698 36.3728 2.78195 36.257Z" fill="#F7F0DB"/>
<path d="M7.34583 22.9169C7.11589 22.9098 6.88248 22.9063 6.65254 22.8993C6.56196 22.0537 7.44337 21.8116 7.70118 21.1836C8.46763 20.8327 9.16092 20.9274 9.71834 21.58C10.1747 22.1169 9.85073 22.5309 9.43615 22.9063C9.19228 23.0432 9.02505 22.9028 8.85434 22.759C8.28298 22.1344 7.85447 22.9274 7.34583 22.9169Z" fill="#DED497"/>
<path d="M43.599 35.1588C44.1286 35.9062 44.1669 36.6886 43.4179 37.243C42.6898 37.7798 42.195 37.2114 41.8049 36.6079C41.5087 35.9658 41.7247 35.2746 41.6307 34.615C41.8014 34.2044 42.0836 34.0009 42.5399 34.0886L42.5086 34.1623C42.7107 34.3307 42.7629 34.5553 42.749 34.8044C42.7455 35.029 42.5852 35.3588 42.749 35.4606C42.9789 35.6009 42.9963 35.1904 43.1845 35.1027C43.3378 35.0255 43.4736 35.05 43.599 35.1588Z" fill="#CFC891"/>
<path d="M0.729949 26.7694C0.837949 26.773 0.942467 26.78 1.05047 26.7835C1.33615 26.8186 1.53125 26.973 1.66363 27.2221C1.81692 28.0291 2.48583 28.8922 1.41628 29.5694C-0.287335 28.8396 -0.37444 28.4782 0.729949 26.7694Z" fill="#D8CE8C"/>
<path d="M27.9112 42.2043C27.7892 42.2008 27.6638 42.1973 27.5419 42.1938C27.4234 42.0149 27.4339 41.8464 27.5732 41.6815C29.2908 40.7096 31.0676 39.9622 33.1091 40.3307C33.3042 40.5868 33.3251 40.8464 33.13 41.1096C31.3045 41.057 29.6252 41.7096 27.9112 42.2043Z" fill="#DCCCA9"/>
<path d="M30.3255 8.87495C29.7611 8.90653 29.357 9.13811 29.1897 9.84687C29.8343 9.88196 30.437 9.91003 31.0397 9.9416C30.5415 10.4539 29.883 10.1732 29.3047 10.289C29.1793 10.2819 29.0573 10.2749 28.9319 10.2714C28.3466 10.3416 27.7544 10.7626 27.1761 10.2504C27.4095 9.90301 27.6464 9.55564 27.8798 9.21179C28.925 9.11355 29.3779 7.48199 30.7017 8.09952C30.8515 8.49601 30.6669 8.72408 30.3255 8.87495Z" fill="#EEE6CA"/>
<path d="M37.2689 36.9588C38.2757 36.4255 39.171 35.8149 39.0282 34.4606C38.8227 33.8465 38.5021 33.2641 38.5649 32.5834C38.861 31.9974 39.2895 32.0887 39.7528 32.3483H39.7598C39.8609 32.4571 39.9131 32.5834 39.9305 32.7308C39.9061 33.229 39.8818 33.7272 39.9689 34.2255C39.9758 34.4536 39.9236 34.6571 39.7354 34.8044C39.2163 35.3307 39.5508 36.2641 38.8227 36.6991C38.3245 37.0009 37.9203 37.6886 37.2689 36.9588Z" fill="#D0C68F"/>
<path d="M39.7076 34.1764C39.5647 33.6886 39.2512 33.2009 39.7354 32.7238C40.1465 32.3624 40.4984 32.7132 40.8746 32.8115C41.2823 33.0816 41.8048 33.1062 42.1811 33.436C42.2961 33.5448 42.411 33.6536 42.526 33.7623C42.5295 33.8676 42.533 33.9729 42.5399 34.0781C42.303 34.2079 42.0627 34.3378 41.8258 34.4641C41.1011 34.5097 40.3695 34.5869 39.7076 34.1764Z" fill="#FBF9EF"/>
<path d="M33.8442 34.1097C34.3563 34.7272 34.5793 35.436 34.5375 36.236C34.4225 36.3658 34.3041 36.4921 34.1891 36.6219C33.7153 36.1623 32.8095 37.8605 32.5552 36.2886C32.6144 35.9027 32.691 35.5202 32.7084 35.1272C32.7328 34.7939 32.7816 34.4676 32.9593 34.1729C33.0743 34.043 33.2171 33.9588 33.3878 33.9272C33.562 33.9308 33.7153 33.9939 33.8442 34.1097Z" fill="#D5D484"/>
<path d="M42.4877 15.531C42.6096 15.7766 42.7281 16.0222 42.85 16.2678C42.1254 17.0503 42.3274 18.1801 41.8362 19.0503C41.5889 19.0046 41.129 19.7274 41.2091 19.1766C41.3903 17.9134 41.345 16.4819 42.4877 15.531Z" fill="#E7DBC1"/>
<path d="M21.9677 45.3552C22.0791 45.2429 22.1941 45.1306 22.3056 45.0183C22.4624 45.092 22.6261 45.1516 22.7724 45.2394C23.3299 45.5727 24.3576 45.7341 23.9709 46.6078C23.5528 47.5481 22.661 47.2183 21.9259 46.7902C21.9468 46.5867 22.0548 46.4358 22.1941 46.306C22.5007 45.899 21.6402 45.7657 21.9677 45.3552Z" fill="#E6D9BC"/>
<path d="M33.13 41.1096C33.1335 40.9201 33.137 40.7271 33.1405 40.5377C33.2624 40.1482 33.5481 39.9728 33.9313 39.9201C34.3598 39.9658 34.8127 39.8008 35.2168 40.078C35.3457 40.1903 35.4781 40.3026 35.607 40.4184C35.5234 40.5517 35.4119 40.657 35.283 40.7412C34.4922 41.2008 35.3527 41.6429 35.297 42.092C35.182 42.492 34.7639 42.3622 34.5201 42.5412C33.7362 42.3798 33.6561 41.5236 33.13 41.1096Z" fill="#D6C994"/>
<path d="M6.98699 41.8675C6.2066 41.6675 5.33912 41.5061 5.26944 40.485C5.22415 39.857 5.52376 39.3587 6.29718 39.443C6.40867 39.5552 6.49576 39.6886 6.55847 39.8359C6.6386 40.3798 7.06364 40.7482 7.26919 41.2219C7.38764 41.4921 7.65241 41.9096 6.98699 41.8675Z" fill="#DCD1AA"/>
<path d="M30.6843 8.18724C29.667 8.00128 29.2106 8.81881 28.6079 9.36968C28.2804 9.66792 27.9773 9.95915 27.8798 9.21179C28.1306 8.87144 28.3815 8.5311 28.6323 8.19075C29.3152 7.94865 29.9945 7.70304 30.6774 7.46094C30.9108 7.689 31.1477 7.92058 31.3811 8.14865C31.1616 8.35215 30.9282 8.38373 30.6843 8.18724Z" fill="#DED2AA"/>
<path d="M34.5201 42.5341C34.6734 42.2499 34.9451 42.1973 35.2273 42.1657C35.6837 41.5692 34.9068 41.0394 35.1402 40.457C35.2935 40.4429 35.4468 40.4289 35.6036 40.4149C36.3247 40.8991 36.9518 41.5342 36.478 42.4254C35.9868 43.3447 35.2029 42.9201 34.5201 42.5341Z" fill="#C6BE86"/>
<path d="M16.4213 13.4187C16.4631 13.8117 16.3691 14.4363 16.5746 14.5591C17.8009 15.2959 16.7662 15.6047 16.3308 16.0468C16.3412 14.945 15.3866 13.8503 16.3726 12.7626C16.3865 12.9802 16.4039 13.1977 16.4213 13.4187Z" fill="#E2D3B6"/>
<path d="M35.2308 14.1837C35.5722 14.0433 35.9136 13.9065 36.255 13.7661C36.9832 13.8924 37.5441 14.2644 37.9169 14.91C37.8123 15.11 37.7078 15.31 37.6033 15.5135C37.2758 15.6994 37.0145 15.5099 36.7393 15.3731C36.3491 15.131 35.9171 14.9696 35.506 14.7591C35.3074 14.6187 35.1402 14.4608 35.2308 14.1837Z" fill="#D2C880"/>
<path d="M36.269 9.23986C36.8717 8.33461 36.8578 6.89603 38.3663 6.77323C37.6799 7.90304 37.0076 9.03635 36.6348 10.317C36.1958 10.0714 36.4536 9.5802 36.269 9.23986Z" fill="#E6D8BE"/>
<path d="M4.59357 18.731C4.30093 19.2888 5.62828 19.4538 4.92802 20.1134C4.39847 20.0923 3.86892 20.0678 3.88982 20.8397C2.61472 21.3274 3.5275 19.7064 2.78544 19.6783C3.18957 18.9801 3.98041 19.0257 4.59357 18.731Z" fill="#EDE8C8"/>
<path d="M6.98699 41.8675C7.40506 40.9377 5.54467 40.7587 6.2937 39.7237C7.16119 39.5552 7.25874 40.4008 7.69422 40.8008L7.68726 40.7903C7.61409 41.4114 8.17499 41.7201 8.36661 42.2148C7.89628 42.1412 7.36325 42.3306 6.98699 41.8675Z" fill="#F3ECD5"/>
<path d="M16.7453 9.56968C15.2194 9.70652 15.6932 11.2854 15.0034 12.0258C14.8815 12.1942 14.763 12.1942 14.648 12.0223C14.6655 10.5732 15.4737 9.51003 16.3621 8.48899C16.8011 8.71004 16.8568 9.11354 16.8533 9.54512L16.7453 9.56968Z" fill="#E6DCC4"/>
<path d="M23.6643 10.2153C23.8002 10.3556 23.9361 10.4995 24.0719 10.6398C24.2287 11.0012 24.0301 11.2679 23.8385 11.5381C23.3856 12.0153 22.9083 12.4468 22.2115 12.4995C21.3371 11.8819 21.8353 11.3697 22.3335 10.8539C22.4624 10.6784 22.5355 10.4749 22.647 10.289C22.9884 10.2679 23.3264 10.2398 23.6643 10.2153Z" fill="#EEE7C7"/>
<path d="M39.7076 34.1764C40.4357 34.1097 41.1568 34.0886 41.8223 34.4711C41.8153 35.1834 41.8083 35.8921 41.8049 36.6044C41.4739 35.5834 41.2091 34.4781 39.725 34.8114C39.7215 34.5974 39.7145 34.3869 39.7076 34.1764Z" fill="#E1D7B2"/>
<path d="M41.4147 22.5309C41.8397 22.0257 41.3694 20.952 42.4598 20.8748C42.648 21.6993 42.4772 22.4678 42.101 23.2046C41.6167 23.2432 41.4669 22.9379 41.4147 22.5309Z" fill="#C7C27D"/>
<path d="M22.6505 10.2925C22.7655 10.51 22.877 10.7276 22.9919 10.9451C22.2777 10.9381 21.8631 11.5872 21.2256 11.7556C20.9295 11.724 20.6926 11.6012 20.5567 11.3205C20.9782 10.4083 21.6471 10.0048 22.6505 10.2925Z" fill="#C9C384"/>
<path d="M32.7642 36.243C32.8478 36.9869 33.1823 36.7167 33.4854 36.4044C33.886 35.9939 34.1159 36.0255 34.1926 36.6219C34.0706 36.7588 33.9487 36.8956 33.8233 37.036C33.1126 37.3798 32.4402 37.5833 32.0709 36.5869C31.8305 36.25 31.8793 35.9798 32.259 35.7904C32.5412 35.8044 32.698 35.9728 32.7642 36.243Z" fill="#B7B861"/>
<path d="M35.2168 40.078C34.7674 40.0851 34.3145 40.0886 33.8651 40.0956C32.9105 40.285 31.9559 40.471 31.0083 40.0605C31.5657 39.3973 32.5377 40.1096 33.0882 39.4184C33.8094 39.5973 34.5828 39.6114 35.2168 40.078Z" fill="#EADEC4"/>
<path d="M31.7225 0.801378C31.8723 0.664538 32.0221 0.527698 32.1719 0.390858C33.1648 1.24699 32.8896 1.82943 31.7783 2.22592C31.5274 2.11364 31.2801 2.00136 31.0292 1.88557C31.1442 1.45049 31.6006 1.23295 31.7225 0.801378Z" fill="#CDCA8B"/>
<path d="M1.41975 29.5694C2.00156 28.7484 1.24557 27.9484 1.38492 27.1344C1.50686 26.9975 1.65666 26.9694 1.82737 27.0256C2.56944 27.5168 2.5764 28.2957 2.61821 29.0641C2.54853 29.3378 2.37782 29.5027 2.10608 29.5694C1.99459 29.6817 1.88312 29.794 1.77163 29.9098C1.65318 29.7975 1.53472 29.6852 1.41975 29.5694Z" fill="#EFE7C9"/>
<path d="M14.3205 15.8573C14.216 15.9836 14.108 16.1064 14.0035 16.2327C13.2475 16.2012 13.0977 15.131 12.279 15.2117C12.279 14.945 12.279 14.6819 12.279 14.4152C13.258 14.4608 13.8154 15.1205 14.3205 15.8573Z" fill="#E0D2B2"/>
<path d="M22.3091 46.4323C22.1802 46.5516 22.0548 46.6709 21.9259 46.7902C21.4764 46.5481 21.027 46.306 20.5741 46.0639C20.4591 45.8148 20.3442 45.5657 20.2327 45.313C21.3162 44.9516 21.7726 45.7622 22.3091 46.4323Z" fill="#DECEAE"/>
<path d="M9.75319 16.2152C8.48854 16.0082 9.66958 15.2573 9.45009 14.8187C9.54764 14.8012 9.64519 14.8047 9.73925 14.8257C9.97964 14.8328 10.22 14.8398 10.4639 14.8433C10.7182 15.5591 10.1051 15.8187 9.75319 16.2152Z" fill="#F0EEBD"/>
<path d="M7.69422 40.8008C7.22738 40.4429 6.76054 40.0815 6.2937 39.7237C6.29719 39.6289 6.29718 39.5377 6.30067 39.4465C6.63512 39.443 6.96957 39.4359 7.30403 39.4324C7.43293 39.8886 7.56532 40.3447 7.69422 40.8008Z" fill="#DACAA7"/>
<path d="M36.269 9.23986C36.6836 9.4995 36.5895 9.93459 36.6348 10.3205C36.3456 10.6714 35.9345 10.6293 35.5478 10.6679C35.7882 10.1907 36.0286 9.71705 36.269 9.23986Z" fill="#DBC8A3"/>
<path d="M43.599 35.1588C43.4632 35.1658 43.3273 35.1728 43.188 35.1763C42.8047 35.3167 42.6096 35.1237 42.4981 34.7834C42.5016 34.5764 42.5051 34.3658 42.5051 34.1588C43.2402 34.0816 43.4911 34.5413 43.599 35.1588Z" fill="#E1D7B2"/>
<path d="M16.3203 47.52C16.4074 47.3376 16.4945 47.1551 16.5816 46.9727C16.7662 47.1481 16.9509 47.32 17.139 47.4955C17.0345 47.6639 16.9578 47.9376 16.815 47.9797C16.4771 48.0849 16.4109 47.7586 16.3203 47.52Z" fill="#D3C4A6"/>
<path d="M16.8533 9.54512C16.6896 9.19425 16.5258 8.84337 16.3621 8.48899C16.4875 8.37671 16.6129 8.26794 16.7384 8.15566C16.8742 8.30303 17.0066 8.4504 17.1425 8.59776C17.2993 8.8118 17.3028 9.0153 17.1042 9.20477C17.0206 9.32056 16.9369 9.43284 16.8533 9.54512Z" fill="#CDBC8A"/>
<path d="M18.7904 46.7972C19.5289 46.3972 19.7624 46.8499 19.8948 47.4639C19.3408 47.5551 19.0447 47.2113 18.7904 46.7972Z" fill="#D7C7A8"/>
<path d="M14.648 12.0223C14.7665 12.0223 14.8849 12.0258 15.0034 12.0258C15.0069 12.4889 15.0138 12.9521 15.0173 13.4152C14.9093 13.531 14.8013 13.6468 14.6898 13.7626C14.6759 13.1802 14.662 12.6012 14.648 12.0223Z" fill="#DAC7A8"/>
<path d="M17.0902 10.2679C17.5919 9.71003 18.2538 10.0644 18.8322 9.95564C18.3305 10.5065 17.6825 10.2188 17.0902 10.2679Z" fill="#F6F2E3"/>
<path d="M15.0069 23.9555C15.3762 22.6993 16.1775 21.4713 15.0591 20.0573C14.7038 20.7976 14.0767 21.4502 14.4495 22.4537C14.6097 22.8888 14.6097 23.4046 14.108 23.4221C13.3485 23.4502 13.6447 22.752 13.6725 22.3695C13.8363 19.8467 15.6131 18.2432 17.0554 16.4433C17.4909 15.8994 17.8811 15.317 18.6266 14.9345C17.2923 16.8257 15.843 18.5625 17.7766 20.7941C17.9264 20.6783 18.0692 20.6853 18.2051 20.8222C18.219 21.4186 17.8079 21.752 17.4247 22.1063C17.0867 22.3063 16.6443 22.359 16.5711 21.9449C16.4004 20.9695 16.0486 19.9801 16.3307 18.9731C15.9127 19.5169 16.3621 20.1134 16.3551 20.6853C16.3377 21.9099 16.7906 23.2958 15.2612 24.0186C15.1741 23.9976 15.0905 23.9765 15.0069 23.9555Z" fill="#E1D2B1"/>
<path d="M12.2755 15.2117C13.3172 14.7486 13.4844 15.7906 14 16.2327C14.3624 16.8994 14.3206 17.6257 14.3031 18.3485L14.3136 18.3345C13.4879 19.7415 12.5542 21.1134 12.9061 22.8888C12.7911 23.366 12.6762 23.8432 12.5612 24.3204C11.9202 24.4642 11.5335 25.3695 10.7043 24.9449C10.5963 24.7063 10.6102 24.4782 10.7914 24.2783C11.4046 22.3414 12.0421 20.4222 12.934 18.5836C13.4705 17.4748 13.7562 16.2152 12.1745 15.538C12.2058 15.4257 12.2407 15.317 12.2755 15.2117Z" fill="#F6F0E0"/>
<path d="M18.118 20.7906C18.003 20.7941 17.888 20.7941 17.7731 20.7941C17.9124 20.1941 18.0518 19.5906 18.219 18.8748C18.4176 19.2888 18.543 19.8046 18.6928 19.8116C19.1213 19.8327 19.1178 19.3766 19.1806 19.0467C19.2711 18.9345 19.3896 18.8573 19.5255 18.8081C20.0132 18.6573 20.379 18.352 20.6438 17.9169C20.8737 17.538 20.8877 17.0748 21.0967 16.6889C21.1942 16.5626 21.3197 16.4994 21.4834 16.5099C21.7133 17.3696 22.2429 17.5415 23.0059 17.1766C23.2428 17.2854 23.3995 17.4608 23.4657 17.7134C23.41 18.2011 23.0268 18.3976 22.6749 18.6257C21.6785 19.0994 20.8145 19.7976 19.8634 20.3415C19.3373 20.6397 18.8252 21.1274 18.118 20.7906Z" fill="#E6DAA9"/>
<path d="M13.2475 24.6677C13.467 24.6502 13.6865 24.6326 13.906 24.6151C14.3414 24.8958 14.439 25.3379 14.4738 25.8116C13.9652 26.8186 13.8363 28.3168 12.07 27.7098C11.6414 26.9168 11.6972 26.0958 11.9376 25.2642C12.1187 24.8923 12.4009 24.8432 12.7389 25.0186C12.8469 24.966 13.0176 25.5484 13.0873 24.9765C13.1012 24.8502 13.1535 24.7484 13.2475 24.6677Z" fill="#ECDFC5"/>
<path d="M12.9061 22.8853C12.5263 22.8572 12.1118 22.6537 12.2894 22.2888C12.9444 20.9625 12.7423 19.1801 14.3101 18.331C13.8467 19.8502 13.3764 21.3695 12.9061 22.8853Z" fill="#E2D3B6"/>
<path d="M19.5115 19.0292C19.4 19.0327 19.292 19.0362 19.1806 19.0432C18.6893 18.0292 18.7311 17.0783 19.508 16.2117C19.8181 15.9696 20.163 15.8292 20.5671 15.8749C20.9504 15.9591 21.3231 16.0643 21.3301 16.5696L21.2047 16.6047C21.0479 16.7626 20.8702 16.8889 20.6682 16.9766C20.3546 17.1064 20.2849 17.338 20.3999 17.6433C20.4348 17.7906 20.4417 17.9345 20.4243 18.0854C20.2675 18.545 19.8495 18.7485 19.5115 19.0292Z" fill="#D7CA96"/>
<path d="M20.595 16.2117C20.2327 16.2117 19.8704 16.2117 19.508 16.2117C19.9505 14.9766 20.0515 13.5626 21.2918 12.7451C21.5391 12.9065 21.9433 12.7907 22.0548 13.1907C21.4834 14.1556 20.8006 15.0678 20.595 16.2117Z" fill="#E4D8B8"/>
<path d="M13.2475 24.6677C13.244 24.7695 13.244 24.8677 13.2406 24.9695C13.2231 25.1905 13.1012 25.3063 12.8852 25.3344C12.6622 25.2221 12.4427 25.1098 12.2198 25.001C11.7495 25.2502 11.9271 25.8256 11.6414 26.1659C11.4812 26.3694 11.2861 26.5063 11.0213 26.5379C10.8402 26.5063 10.7078 26.4116 10.6102 26.2537C10.4395 25.801 10.436 25.3765 10.8193 25.0186C11.4429 24.8958 11.638 23.6958 12.5577 24.3168C12.7006 24.6116 12.9793 24.6326 13.2475 24.6677Z" fill="#DCCCA5"/>
<path d="M21.9642 13.0784C21.6924 13.0644 21.4346 13.0223 21.2918 12.7451C21.7726 12.3802 21.4137 12.0714 21.2221 11.7556C21.5844 10.9837 22.0861 10.5205 22.9884 10.9451C22.8804 11.4714 21.3266 11.296 22.3126 12.3521C22.4206 12.4749 22.4763 12.6153 22.4763 12.7802C22.3892 13.0293 22.2638 13.2012 21.9642 13.0784Z" fill="#E1D8A2"/>
<path d="M14.2927 25.6993C13.8746 25.4431 13.9826 24.9975 13.9095 24.6151C14.2753 24.394 14.6411 24.1765 15.0069 23.9555C15.4493 24.8151 15.0522 25.3344 14.2927 25.6993Z" fill="#E1D2B1"/>
<path d="M39.394 26.0817C39.394 26.194 39.394 26.3063 39.394 26.4186C39.6901 26.7028 40.1256 26.4256 40.4287 26.6817C40.6517 27.0677 40.4148 27.2396 40.1082 27.38C38.6171 27.394 37.7845 28.5905 36.7706 29.3799C35.9241 30.0396 37.7008 30.2501 37.2619 30.9939C37.1539 31.3238 37.1957 31.7308 36.7881 31.9027C35.7812 32.1974 34.8406 31.7694 33.8721 31.6255C33.6108 31.5097 33.4157 31.3413 33.3878 31.0325C33.6456 30.608 34.0776 30.5133 34.5131 30.429C35.0566 30.5764 35.729 30.3975 36.0878 31.0361C36.0983 31.0115 36.1087 30.9869 36.1261 30.9448C35.9624 30.4641 35.4363 30.7133 35.1541 30.4817C34.7465 30.1448 33.8268 30.4536 33.8651 29.6747C33.893 29.1063 34.6594 29.1694 35.0879 28.9308C36.3526 28.4747 37.4187 27.7308 38.314 26.7168C38.5892 26.4045 38.7913 25.8677 39.394 26.0817Z" fill="#E5D8BC"/>
<path d="M36.9274 31.7027C37.0389 31.4676 37.1504 31.229 37.2654 30.9939C37.4012 31.2115 37.5371 31.429 37.673 31.6466C37.5789 32.0255 37.9726 32.436 37.5998 32.7939C36.2829 33.043 35.0217 33.443 33.8477 34.1097C33.7188 34.1097 33.5899 34.1132 33.461 34.1132C33.2206 33.815 32.7363 33.7483 32.6771 33.2781C32.9349 32.5413 33.5655 32.5027 34.1961 32.4641C35.1576 32.4045 36.0704 32.1659 36.9274 31.7027Z" fill="#DED0AA"/>
<path d="M40.1082 27.38C40.2162 27.18 40.3242 26.98 40.4322 26.78C41.9303 25.98 43.08 26.5379 44.0624 27.7308C43.9579 28.1343 44.4178 28.7905 43.5642 28.8571C43.073 26.794 41.5087 27.2852 40.1082 27.38Z" fill="#E6D9BA"/>
<path d="M37.5963 32.7939C37.5859 32.408 37.0912 31.9904 37.6695 31.6466C37.7914 31.7518 37.9134 31.8571 38.0353 31.9624C38.2269 32.2325 38.5405 32.4255 38.5474 32.808C38.6694 33.1588 38.6415 33.4816 38.3802 33.7623C38.2339 34.1097 38.6345 35.057 37.6277 34.4606C37.6172 33.9062 37.6068 33.3518 37.5963 32.7939Z" fill="#CBBC8B"/>
<path d="M38.7147 31.6606C38.5858 31.2992 37.8402 31.0782 38.3732 30.5975C38.6241 30.3729 39.2233 30.215 39.4567 30.3624C40.1012 30.7694 39.495 31.2185 39.3278 31.6466C39.1292 31.8711 38.9272 31.8781 38.7147 31.6606Z" fill="#D0C08F"/>
<path d="M38.7147 31.6606C38.9202 31.6571 39.1258 31.6501 39.3313 31.6466C39.4707 31.8817 39.61 32.1202 39.7494 32.3553C39.3801 32.4009 38.962 32.2992 38.7112 32.7027C38.6101 32.829 38.4952 32.8395 38.3697 32.7413C38.2583 32.4816 38.1468 32.222 38.0353 31.9624C38.314 31.9799 38.5683 31.9413 38.7147 31.6606Z" fill="#E1D7B2"/>
<path d="M43.5677 28.8571C43.9753 28.608 43.9161 28.201 43.9196 27.815C44.0067 27.6572 44.1216 27.6361 44.261 27.7484C44.261 27.7484 44.2436 27.8642 44.2436 27.8677C44.2505 28.0852 44.2575 28.2992 44.268 28.5168C44.6338 29.022 44.3655 29.3238 43.9335 29.5729C43.7976 29.4361 43.6618 29.2957 43.5224 29.1589C43.5189 29.0536 43.5363 28.9519 43.5677 28.8571Z" fill="#C3BD76"/>
<path d="M42.1811 33.4395C41.655 33.5343 41.2196 33.3062 40.8015 33.0325C40.7423 32.7237 40.7876 32.5343 41.1603 32.6992C41.6655 32.7167 42.0139 32.9518 42.1811 33.4395Z" fill="#DACBAB"/>
<path d="M41.1568 32.6992C41.0384 32.8115 40.9165 32.9237 40.798 33.0325C40.4427 32.9308 40.0908 32.8255 39.7354 32.7238C39.7424 32.6009 39.7494 32.4781 39.7528 32.3518C40.2441 32.3799 40.7667 32.2676 41.1568 32.6992Z" fill="#E1D7B2"/>
<path d="M8.3248 29.2501C7.23783 28.5589 6.37035 26.3098 6.82674 25.2993C6.84415 25.2642 7.12983 25.3484 7.29009 25.38C7.40157 27.1624 7.40506 27.1624 8.31435 28.4256C8.83344 27.4993 9.32467 26.6186 9.8159 25.7344C10.1364 25.6502 10.2444 25.8467 10.3106 26.1063C10.1782 27.0887 9.73925 27.9624 9.32816 28.8501C9.1888 29.0641 9.01112 29.2326 8.78119 29.3413C8.61744 29.387 8.46415 29.3519 8.3248 29.2501Z" fill="#DBCDAC"/>
<path d="M10.1329 26.0642C10.0284 25.9554 9.9239 25.8431 9.8159 25.7344C10.2583 25.0782 9.90648 24.1905 10.4395 23.5625C10.4813 23.8362 10.5057 24.1204 10.7914 24.2712C10.8018 24.5204 10.8123 24.7695 10.8227 25.0186C10.8297 25.4817 10.8332 25.9449 10.8402 26.408C10.9377 26.7063 10.7775 26.808 10.5196 26.8361C10.1817 26.6852 10.335 26.2852 10.1329 26.0642Z" fill="#E9DEC3"/>
<path d="M9.02506 22.5063C9.16442 22.6397 9.30029 22.7765 9.43964 22.9098C9.20622 23.373 8.87874 23.7484 8.40493 23.973C8.01822 23.9309 7.59667 23.9905 7.33189 23.5941C7.33538 23.4748 7.33886 23.359 7.34234 23.2397C7.83705 22.8467 8.31783 22.4151 9.02506 22.5063Z" fill="#E2DBB0"/>
<path d="M7.32841 23.5941C7.72209 23.6151 8.15409 23.5344 8.40144 23.973C8.03564 24.18 7.66634 24.387 7.30054 24.594C6.83021 24.2467 6.95912 23.9169 7.32841 23.5941Z" fill="#D4CD98"/>
<path d="M31.7016 34.7869C29.3709 35.3904 27.4269 36.5588 26.1135 38.65C25.793 38.7412 25.6606 38.5342 25.5595 38.2851C25.5003 38.0324 25.5108 37.7798 25.563 37.5272C25.7477 36.0325 26.6953 35.1483 27.9808 34.5869C28.7264 34.2606 29.4441 33.9132 30.0433 33.3553C30.2001 33.3167 30.3568 33.3308 30.5067 33.3904C30.9839 33.8922 32.2451 33.0185 32.2381 34.3799C32.1406 34.629 31.9629 34.7658 31.7016 34.7869Z" fill="#F9F6EA"/>
<path d="M25.779 38.3096C25.8905 38.4254 26.002 38.5377 26.11 38.6535C25.5804 39.9833 23.943 40.2324 23.3647 41.5096L23.3786 41.4956C22.7271 41.5552 22.2673 41.7447 22.6575 42.5376C22.5564 42.9657 22.5111 43.4183 22.1488 43.7341C21.4242 43.6534 20.7065 44.0885 19.9784 43.7622C19.4662 42.692 20.6542 42.5798 20.9643 41.9692C22.1244 40.1517 23.511 38.6395 25.779 38.3096Z" fill="#F1E9D4"/>
<path d="M19.8843 43.6008C20.6926 43.492 21.5531 43.8534 22.316 43.3271C22.5355 42.9096 22.8909 42.8043 23.3264 42.871C24.6677 42.8499 25.6432 41.878 26.8451 41.4921C27.0402 41.7026 27.4199 41.5587 27.5663 41.864C27.5523 41.9727 27.5419 42.085 27.5419 42.1938C27.0646 42.1763 26.6256 42.264 26.2493 42.5903C24.7095 43.9341 22.6888 43.7271 20.9016 44.2745C20.4626 44.7201 20.0097 44.6745 19.5464 44.3096C19.4279 44.1973 19.313 44.085 19.1945 43.9762C19.313 43.6429 19.4941 43.4254 19.8843 43.6008Z" fill="#F4EBD2"/>
<path d="M27.5663 41.864C27.2771 41.8394 26.9984 41.7833 26.8451 41.4921C28.1655 40.8149 29.5381 40.3026 31.0048 40.0605C31.9559 40.071 32.907 40.0851 33.8616 40.0956C33.6212 40.2429 33.3808 40.3903 33.137 40.5377C31.1512 40.4184 29.3465 41.0885 27.5663 41.864Z" fill="#F9F4E4"/>
<path d="M27.2039 39.3973C26.6604 41.0289 25.1937 41.5131 23.835 42.0956C23.1766 42.3798 23.1975 41.9552 23.3821 41.4956L23.3682 41.5096C24.8279 41.1201 25.7093 39.8886 26.8764 39.0675C27.183 38.9728 27.3468 39.0289 27.2039 39.3973Z" fill="#FBF8ED"/>
<path d="M27.2039 39.3973C27.0924 39.2886 26.9844 39.1763 26.873 39.0675C27.5697 37.6851 28.8239 36.8886 30.1339 36.1307C29.1549 37.2184 28.1794 38.3061 27.2039 39.3973Z" fill="#F5ECD0"/>
<path d="M31.7016 34.7869C31.8166 34.6781 31.9315 34.5658 32.0465 34.4571C32.6248 34.1448 32.8757 34.3869 32.9279 34.9763C32.8408 35.3272 32.7537 35.6816 32.4088 35.8851C32.1127 36.029 32.1092 36.3167 32.0674 36.5869C31.719 36.3377 31.7295 35.9483 31.6877 35.5834C31.6912 35.3167 31.6947 35.0535 31.7016 34.7869Z" fill="#D3C995"/>
<path d="M23.3264 42.871C22.9884 43.0219 22.654 43.1762 22.316 43.3271C21.905 42.8359 22.438 42.7552 22.6575 42.5376C22.9188 42.5657 23.194 42.5727 23.3264 42.871Z" fill="#C4AD81"/>
<path d="M2.1026 29.5729C2.2315 29.4466 2.35691 29.3203 2.48582 29.194C2.72272 29.0677 2.95266 29.1659 3.18259 29.2115C3.40904 29.4361 3.6355 29.6571 3.86195 29.8817C4.95589 31.7273 7.06713 32.201 8.60351 33.4465C9.18881 33.9869 9.84029 34.45 10.3873 35.0325C11.1224 36.1167 12.279 36.9447 12.4253 38.3938C12.3173 38.871 12.0386 39.1587 11.5474 39.2184C10.2827 38.1132 9.24454 36.843 8.69409 35.222C8.50944 34.7693 8.06003 34.6746 7.68725 34.4746C5.8199 32.8501 3.28363 31.9974 2.1026 29.5729Z" fill="#F9F4E4"/>
<path d="M8.39448 33.7694C7.20996 32.9764 5.97667 32.2501 4.86879 31.3624C4.44028 31.022 3.55537 30.8045 3.86544 29.8852C4.64582 30.4711 5.42621 31.0606 6.30763 31.7238C7.04272 30.2361 6.30415 29.0536 5.92441 27.8396C5.92441 27.1519 5.92441 26.4607 5.92441 25.773C6.4226 28.0291 7.67331 30.0676 7.38763 32.4852C7.55137 32.4781 7.71512 32.4711 7.87886 32.4641C8.02867 31.3939 8.17848 30.3238 8.32828 29.2571C8.46764 29.2466 8.60699 29.2361 8.74634 29.222C9.24802 29.6957 9.17835 30.3273 9.2097 30.9308C9.17835 31.7273 9.29331 32.5378 9.05641 33.3202C8.92054 33.5939 8.78119 33.8641 8.39448 33.7694Z" fill="#DECDAC"/>
<path d="M3.18608 29.2115C2.94569 29.5589 2.71924 29.2466 2.4893 29.194C2.23846 28.4957 1.98415 27.794 1.73331 27.0958C1.64273 26.9659 1.66711 26.8607 1.79253 26.773C2.01201 26.6572 2.22802 26.5414 2.4475 26.4256C2.79589 27.3273 3.88285 28.0291 3.18608 29.2115Z" fill="#D8CA8D"/>
<path d="M23.6852 11.3661C23.8141 11.124 23.943 10.8819 24.0719 10.6398C25.1833 10.7732 26.4131 10.5311 27.1935 11.6784L27.2004 11.6714C26.2041 12.0118 25.2042 12.324 25.354 13.738C25.3819 14.0117 25.0927 14.2293 24.7478 14.1977C24.4761 13.7837 24.605 13.331 24.6189 12.9205C24.4029 13.6994 24.7339 14.4082 25.037 15.1275C25.0962 15.3064 25.131 15.4889 25.1484 15.6749C25.1798 16.0924 25.1484 16.5029 24.9359 16.8643C24.7164 17.2327 24.4133 17.5275 23.95 17.4047C23.4657 17.2748 23.3542 16.8222 23.4344 16.4222C23.7619 14.7486 23.3961 13.0398 23.6852 11.3661Z" fill="#F6EFDD"/>
<path d="M18.4908 44.3025C18.3862 44.899 17.3864 44.1096 17.456 44.9797C17.4177 45.2008 17.2888 45.3306 17.0693 45.3692C16.2785 45.3552 16.2018 46.5551 15.3309 46.4043C15.4389 45.5937 14.9581 44.9727 14.6585 44.2955C14.5366 44.1868 14.4947 44.0534 14.5296 43.892C14.6062 43.6745 14.7107 43.471 14.8118 43.2604C15.0278 42.871 14.9511 42.2991 15.4981 42.1131C15.6688 42.2113 15.8012 42.2043 15.8047 42.0956C15.9022 39.9272 16.2227 37.836 17.8044 36.1798C18.4071 36.7728 18.5639 36.0886 18.8635 35.8009C19.3826 35.7974 19.5429 36.1693 19.6753 36.5728C19.6161 37.5272 18.9332 38.2044 18.5813 39.0289C18.3166 39.6535 17.9368 40.2394 18.1215 40.9657C18.3026 41.8324 18.1215 42.7306 18.3618 43.5903C18.4489 43.8254 18.4873 44.0604 18.4908 44.3025Z" fill="#E1D1AE"/>
<path d="M8.69409 35.2255C9.63474 36.4956 10.5789 37.7658 11.5195 39.0395C12.7006 39.9552 13.2406 41.2114 13.4182 42.6605C13.2162 43.0534 12.927 43.1622 12.5368 42.9236C12.2058 42.7868 11.8749 42.6499 11.5474 42.5131C11.5265 42.0499 12.394 42.471 12.2093 41.8429C11.1363 40.7657 10.5858 39.4044 10.1225 37.9939C9.90648 37.5096 9.55112 37.1588 9.07383 36.9377C8.47112 36.6605 8.17151 36.229 8.37009 35.5413C8.47809 35.436 8.58609 35.3307 8.69409 35.2255Z" fill="#D5C39F"/>
<path d="M12.5403 42.9236C12.8399 42.8955 13.1256 42.8394 13.2789 42.5271C14.2056 42.5517 14.7526 42.9517 14.6515 43.9692C14.6515 44.078 14.655 44.1868 14.655 44.2955C13.7213 44.2008 13.2684 43.3447 12.5403 42.9236Z" fill="#DED0B0"/>
<path d="M27.1656 15.8363C27.4513 15.4082 27.9077 15.0749 27.8937 14.4854C28.9528 14.1275 28.8971 14.8924 28.9494 15.5485C28.8379 15.9696 28.047 15.8117 28.1933 16.4503C28.4477 16.3836 28.702 16.3205 28.9563 16.2538C29.2106 16.3591 29.3988 16.5134 29.3883 16.8257C29.235 17.3801 28.8065 17.6573 28.3188 17.8327C27.7161 18.0468 27.0228 18.2117 26.5838 17.6538C26.1727 17.131 26.8103 16.752 27.0437 16.331C27.1238 16.1731 27.1586 16.0082 27.1656 15.8363Z" fill="#F2EAD5"/>
<path d="M28.9494 15.5485C28.4686 15.324 28.6672 14.4152 27.8937 14.4854C28.1237 14.2538 28.3536 14.0187 28.5835 13.7872C29.2838 14.4152 30.1339 13.4714 31.0432 14.103C30.2872 14.6222 29.6183 15.0854 28.9494 15.5485Z" fill="#F8F5EA"/>
<path d="M29.3012 16.6117C29.1862 16.4924 29.0713 16.3731 28.9563 16.2538C29.6775 15.717 30.3777 15.1275 31.3567 15.1591C31.7225 14.9556 32.0117 14.9731 32.1545 15.4292C31.8828 16.0503 31.2487 16.1871 30.7435 16.4994C30.2767 16.6784 29.8133 17.0047 29.3012 16.6117Z" fill="#FCF9F1"/>
<path d="M32.0639 15.524C31.9141 15.2328 31.6389 15.1907 31.3602 15.1591C32.2451 14.6994 33.1823 14.4784 34.1752 14.4819L34.1647 14.4714C34.5932 15.3135 33.9174 15.4187 33.4017 15.6363C32.9454 15.717 32.4785 15.9099 32.0639 15.524Z" fill="#F5EED9"/>
<path d="M26.4828 12.4047C25.3017 12.6117 25.7372 13.6924 25.5526 14.3556C25.3296 15.1661 25.4655 16.0749 25.4446 16.938C24.3681 16.6854 25.2878 15.6678 24.7896 15.1942L24.7095 15.1591C24.5631 14.8117 24.49 14.4679 24.7757 14.1486C24.8767 13.9486 25.1031 13.7135 25.0579 13.5556C24.4656 11.4047 25.8348 11.5486 27.197 11.6714C27.19 12.1451 26.9357 12.3731 26.4828 12.4047Z" fill="#E6D7B6"/>
<path d="M8.37009 35.5413C8.60351 36.0079 8.84041 36.4711 9.07383 36.9377C8.82996 38.5447 10.2549 39.657 10.3455 41.285C8.58261 40.457 8.37706 38.6991 7.68377 37.2711L7.69422 37.2886C7.43641 36.9553 7.39809 36.6114 7.64893 36.257C7.73951 35.8676 7.46777 35.1062 8.37009 35.5413Z" fill="#FBF8EF"/>
<path d="M10.1225 37.9939C10.8193 39.278 11.5125 40.5587 12.2093 41.8429C10.7043 41.0043 10.1504 39.6465 10.1225 37.9939Z" fill="#F5EAD0"/>
<path d="M9.02506 22.5063C8.54777 22.9484 8.07396 23.3905 7.34234 23.2397C7.34583 23.1309 7.34932 23.0256 7.34932 22.9169C7.82661 22.4607 8.08441 21.0678 9.02506 22.5063Z" fill="#F8F7E1"/>
<path d="M18.4908 44.3025C18.3688 44.1762 18.2469 44.0464 18.1249 43.9201C18.0692 42.2885 18.0344 40.664 19.3164 39.3903C20.0411 39.1482 20.0898 39.6394 20.0411 40.1272C19.9818 40.7517 19.7345 41.3236 19.4 41.8675C19.7833 41.4921 19.8007 40.7622 20.5009 40.7131C20.9016 40.8605 20.6542 41.7271 21.3789 41.5201C21.452 41.7657 21.459 41.9973 21.2744 42.2008C20.811 42.6675 20.3477 43.1341 19.8843 43.6008C19.6544 43.7271 19.4244 43.8499 19.1945 43.9762C18.9611 44.085 18.7242 44.1938 18.4908 44.3025Z" fill="#D7C5A1"/>
<path d="M19.5464 44.3096C19.9993 44.299 20.4487 44.285 20.9016 44.2745C21.3301 44.3411 22.0164 44.1552 21.6228 45.0218C21.1803 45.3938 20.717 45.1867 20.2571 45.0639C20.1386 45.0499 20.0202 45.0394 19.9017 45.0253C19.4628 45.2604 19.8599 45.7902 19.5394 46.0674C18.2678 45.478 18.6789 44.892 19.5464 44.3096Z" fill="#CEBB94"/>
<path d="M20.2571 45.0674C20.7135 45.0534 21.1664 45.0394 21.6228 45.0253C21.7377 45.1376 21.8527 45.2464 21.9677 45.3587C22.1802 45.5201 22.3997 45.6815 22.6087 45.8499C22.7724 45.9832 22.9257 46.1271 23.086 46.2639C22.8282 46.3201 22.5704 46.3797 22.3126 46.4358C21.6193 46.0639 20.9295 45.692 20.2362 45.3201C20.2397 45.2323 20.2466 45.1481 20.2571 45.0674Z" fill="#FAF3E1"/>
<path d="M17.0693 45.3692C17.1982 45.2394 17.3271 45.1095 17.456 44.9797C17.9124 45.278 18.4664 45.7657 17.9229 46.1727C17.4282 46.5411 17.3689 45.6534 17.0693 45.3692Z" fill="#D5C198"/>
<path d="M19.5359 46.0709C19.6927 45.7341 18.9193 45.0709 19.8982 45.0288C19.7206 45.3552 20.2466 45.9306 19.5359 46.0709Z" fill="#DECEAE"/>
<path d="M38.7356 21.4397C38.8192 20.7344 38.9794 20.0748 39.7319 19.7766C39.8051 20.2888 39.0247 21.0011 39.8608 21.2818C40.6517 21.545 40.3207 20.1836 41.0628 20.1485C41.3519 20.9941 40.7597 21.7204 40.7353 22.5204C40.5611 22.7309 40.3277 22.7906 40.0664 22.7976C39.3243 22.6432 38.9202 22.152 38.7356 21.4397Z" fill="#D8CC9A"/>
<path d="M41.2196 6.45042C40.7353 5.94868 39.8539 6.60832 39.5334 5.80833C39.4358 5.56623 39.6797 5.40132 39.9445 5.38728C40.6621 5.34868 41.0872 5.68903 41.2196 6.45042Z" fill="#F3F0D0"/>
<path d="M39.394 26.0817C38.2408 27.4536 37.1086 28.8536 35.2099 29.222C34.851 29.4782 34.5863 29.408 34.4156 28.994C34.4608 28.6185 34.7152 28.4045 34.9974 28.208C36.8891 27.4501 37.9796 25.601 39.7424 24.6642C39.8608 24.7835 39.9793 24.8993 40.0943 25.0186C39.8609 25.3695 39.6274 25.7238 39.394 26.0817Z" fill="#FAF7ED"/>
<path d="M44.2575 27.7484C44.146 27.7764 44.0311 27.801 43.9161 27.815C42.9894 26.6642 41.7317 26.6466 40.4322 26.78C40.0943 26.6326 39.4741 27.3133 39.3905 26.4186C41.6411 25.6256 43.2855 26.0747 44.2575 27.7484Z" fill="#F8F2E5"/>
<path d="M43.3099 14.7065C44.2366 14.9029 44.916 15.2538 44.8951 16.2538C44.8916 16.5064 44.6338 16.8854 44.3133 16.6854C43.6339 16.2608 43.0382 15.724 43.3099 14.7065Z" fill="#E9E49E"/>
<path d="M2.07472 37.4254C2.54504 38.4395 3.03975 39.0605 2.6182 39.85C2.48582 40.0956 2.13743 40.0815 2.02595 39.9131C1.59047 39.2394 1.69846 38.5307 2.07472 37.4254Z" fill="#EEE9B5"/>
<path d="M9.75319 16.2152C9.76364 15.6398 10.2584 15.3205 10.4604 14.8468C10.767 14.731 11.0945 14.4784 11.3453 14.917C11.5126 15.2117 11.4046 15.4819 11.1502 15.6608C10.7322 15.9591 10.2967 16.2327 9.75319 16.2152Z" fill="#E0DA94"/>
<path d="M37.6834 15.917C36.7463 17.5064 35.7882 16.6187 34.8301 15.9415C34.3633 15.538 34.1124 15.0889 34.5166 14.4924C34.7535 14.3872 34.9939 14.2819 35.2308 14.1766C35.3492 14.2854 35.4677 14.3942 35.5861 14.5065C35.823 15.2328 36.1923 15.6713 36.9971 15.1731C37.1992 15.2854 37.4012 15.3977 37.5998 15.5099C37.6312 15.6468 37.6556 15.7836 37.6834 15.917Z" fill="#D6CB90"/>
<path d="M44.6442 28.5343C45.5605 29.187 45.5117 29.8676 44.6965 30.5694C44.2784 29.9027 44.2889 29.222 44.6442 28.5343Z" fill="#F8F6D8"/>
<path d="M44.6442 28.5343C44.6616 29.2115 44.679 29.8887 44.6965 30.5694C44.1425 30.4676 44.3551 29.7694 43.9265 29.5694C44.038 29.2185 44.1495 28.8677 44.261 28.5133C44.3934 28.5203 44.5188 28.5273 44.6442 28.5343Z" fill="#DDD79C"/>
<path d="M3.88982 20.8397C3.52401 20.5625 3.35331 20.2011 3.77486 19.8923C4.16854 19.6081 4.61098 19.6643 4.92453 20.1134C4.58311 20.3555 4.23472 20.5976 3.88982 20.8397Z" fill="#F8F8EF"/>
<path d="M1.79253 26.773C1.77162 26.8817 1.75073 26.987 1.73331 27.0958C1.61834 27.1098 1.49989 27.1203 1.38492 27.1344C1.27344 27.0186 1.16195 26.8993 1.05047 26.7835C1.16544 24.9309 1.05743 23.0151 2.45795 21.5099C2.47189 23.2958 1.44414 24.9484 1.79253 26.773Z" fill="#F8F1E1"/>
<path d="M7.64893 36.257C7.66286 36.6009 7.68028 36.9447 7.69422 37.2886C7.45035 37.057 7.203 36.829 6.95912 36.5974C7.10545 36.3132 7.3528 36.236 7.64893 36.257Z" fill="#D6C5A5"/>
<path d="M31.7225 0.801378C32.2695 1.66803 31.5518 1.71716 31.0292 1.88908C30.7017 1.98733 30.3777 2.12768 30.0398 2.17329C29.6113 2.22943 29.1793 2.09259 29.0748 1.63645C28.9633 1.14874 29.357 0.941727 29.7611 0.79787C30.423 0.562785 31.0745 0.30314 31.7225 0.801378Z" fill="#F1E7BC"/>
<path d="M30.6843 8.18724C30.9177 8.17321 31.1477 8.16268 31.3811 8.14865C31.733 8.4504 31.6737 8.74864 31.3463 9.00828C30.977 9.29951 30.6112 9.3381 30.3255 8.87495C30.4474 8.64688 30.5659 8.41531 30.6843 8.18724Z" fill="#F6F3DE"/>
<path d="M38.3697 32.7413C38.4847 32.7308 38.5962 32.7167 38.7112 32.7027C39.2442 33.2115 38.9794 33.8676 39.0282 34.4641C38.8122 34.229 38.5962 33.9974 38.3802 33.7623C38.3767 33.422 38.3732 33.0816 38.3697 32.7413Z" fill="#F2ECD0"/>
<path d="M17.1007 9.20828C17.1146 9.00478 17.1251 8.80127 17.139 8.59776C17.6059 8.51355 18.0413 8.0083 18.55 8.47847C18.7346 8.64689 18.8182 8.86794 18.6197 9.06793C18.1633 9.53108 17.6477 9.58722 17.1007 9.20828Z" fill="#F7F2D9"/>
<path d="M39.7424 24.6607C38.4743 26.2396 37.1016 27.6852 35.182 28.4747C34.9277 28.3835 34.75 28.2326 34.7814 27.9273C34.8998 27.4501 36.0077 27.2852 35.081 26.4291C34.6455 26.0256 35.2273 25.1449 35.7987 25.1589C37.7845 25.2046 38.8784 23.9239 39.9967 22.6116C40.2441 22.58 40.4879 22.552 40.7353 22.5204C40.4043 23.2327 40.0734 23.9449 39.7424 24.6607Z" fill="#E4D5B5"/>
<path d="M42.4981 34.7834C42.7281 34.9132 42.958 35.0465 43.188 35.1763C43.1392 35.6044 43.4074 36.1097 42.9371 36.429C42.85 36.4886 42.5748 36.4114 42.4981 36.3132C42.1045 35.8149 42.0174 35.2921 42.4981 34.7834Z" fill="#F2EFD2"/>
<path d="M32.7537 35.1448C32.7433 34.6816 32.475 34.4851 32.0465 34.4606C31.9002 33.1273 30.6321 34.7448 30.3394 33.7974C31.0815 32.9623 31.8061 32.1097 32.7084 31.436C32.9523 31.3799 33.1892 31.3975 33.4052 31.5343C33.9383 32.4676 32.799 32.629 32.6283 33.2395C32.583 33.6571 33.029 33.7904 33.1405 34.1202C33.1405 34.4641 33.137 34.8079 33.137 35.1553C33.0046 35.2992 32.8792 35.2886 32.7537 35.1448Z" fill="#DED0AA"/>
<path d="M33.137 34.1167C32.6283 34.1132 32.4123 33.843 32.4367 33.3448C32.5552 33.243 32.6597 33.2536 32.7398 33.3904C33.1753 33.4325 33.4679 33.622 33.4575 34.1132L33.2972 34.1167H33.137Z" fill="#CCBE87"/>
<path d="M32.7537 35.1448C32.8792 35.1483 33.0081 35.1483 33.1335 35.1518C33.1718 35.5693 33.1683 35.9763 32.7642 36.243C32.6457 36.1237 32.5273 36.0044 32.4088 35.8886C32.5238 35.6395 32.6388 35.3904 32.7537 35.1448Z" fill="#F0EFCB"/>
<path d="M34.5166 14.4959C34.6211 14.9766 34.7256 15.4608 34.8301 15.9415C34.2762 15.7977 33.8756 15.9099 33.7919 16.5626C33.4122 16.745 33.2659 16.4363 33.0812 16.2152C33.0011 16.0854 32.9488 15.945 32.914 15.7977C32.914 15.5696 32.9488 15.3521 33.1265 15.1836C33.6352 15.1801 34.1473 15.1871 34.1682 14.4679C34.2797 14.4784 34.3981 14.4889 34.5166 14.4959Z" fill="#E0D1AF"/>
<path d="M35.1437 40.4605C36.046 41.6885 36.046 41.6885 35.2308 42.1692C34.9312 41.7271 34.1508 41.6499 34.2309 40.9342C34.2867 40.3833 34.7605 40.471 35.1437 40.4605Z" fill="#F2EBCA"/>
<path d="M37.0006 15.1766C36.8577 15.6608 36.802 16.2538 36.0321 15.9345C35.3144 15.6363 35.0566 15.2012 35.5861 14.51C36.1505 14.538 36.6313 14.738 37.0006 15.1766Z" fill="#EDE6B8"/>
<path d="M24.7896 15.1942C25.4062 15.6222 24.8035 16.517 25.4446 16.938L25.4515 16.9485C25.9811 17.2152 26.6883 17.4573 25.6118 17.9801C24.8384 18.1169 24.065 18.2573 23.3961 17.6643C23.2637 17.5275 23.1313 17.3906 22.9989 17.2538C22.7341 16.2292 22.9118 15.1977 23.0372 14.1872C23.1208 13.4959 22.8909 13.0959 22.3404 12.7907C22.33 12.6468 22.323 12.503 22.3126 12.3556C22.7689 12.0258 23.2288 11.696 23.6852 11.3697C24.4099 12.8047 23.95 14.3275 23.9988 15.8117C24.0127 16.2608 23.3542 16.9485 24.1207 17.0854C24.7861 17.2047 24.6851 16.3871 24.7408 15.8924C24.7687 15.6608 24.7757 15.4257 24.7896 15.1942Z" fill="#DECEA8"/>
<path d="M14.2927 25.6993C14.5575 25.1309 14.972 24.6221 15.0034 23.9555C16.2889 23.0783 16.1879 21.8116 15.8918 20.5379C15.7315 19.8537 15.5782 19.2222 16.0555 18.4608C16.7593 19.3555 16.7488 20.2573 16.7662 21.152C16.7767 21.6116 16.6548 22.1835 17.4526 21.8537C17.6059 21.7485 17.7487 21.7625 17.8741 21.9028C17.9159 22.0713 17.9055 22.2327 17.8428 22.3941C16.3447 24.0783 15.2821 26.0431 14.2857 28.0501C13.9652 28.6957 13.791 29.4957 12.9549 29.7448C12.3313 29.7168 12.0456 29.3273 11.9132 28.7659C11.8784 28.4992 11.9132 28.2431 12.0316 28.001C12.0909 27.9379 12.1501 27.8747 12.2128 27.8115C13.4775 27.6782 13.6412 26.4466 14.2927 25.6993Z" fill="#FAF6E8"/>
<path d="M17.8358 21.8713C17.7104 21.8642 17.5815 21.8572 17.456 21.8502C17.3411 21.2818 17.9298 21.1625 18.1215 20.7906C19.7554 20.1906 20.9713 18.8187 22.6505 18.3064C23.511 18.3485 22.9431 18.8046 22.8804 19.1134C22.5216 19.566 22.0025 19.7801 21.5217 20.0608C21.1838 20.2537 20.8946 20.5134 20.5985 20.766C19.6962 21.18 19.0482 22.2397 17.8358 21.8713Z" fill="#FCF9EF"/>
<path d="M22.64 18.9871C22.7167 18.7625 23.0616 18.538 22.6505 18.3064C22.8978 18.0924 23.1487 17.8783 23.3961 17.6608C24.1939 17.6608 24.9952 17.6573 25.793 17.6538C26.8451 17.7275 27.7648 17.9696 27.8415 19.2853C27.8624 19.552 27.8171 19.8011 27.6743 20.0292C26.5281 20.2608 26.2145 18.8889 25.2181 18.7345C24.6781 18.6503 24.4586 18.3766 24.4761 19.2362C24.4865 19.8081 23.8176 20.2748 23.2044 20.5344C22.8177 20.5029 22.6958 20.1976 22.5669 19.9029C22.4484 19.5906 22.6714 19.2994 22.64 18.9871Z" fill="#F5ECD0"/>
<path d="M19.5115 19.0292C19.4941 18.5029 20.0202 18.359 20.2292 17.9906C20.4626 17.7766 20.696 17.8047 20.9225 18.0011C20.7239 18.7239 20.3233 19.166 19.5115 19.0292Z" fill="#F1EBBE"/>
<path d="M20.9225 18.0047C20.6926 18.0011 20.4591 17.9976 20.2292 17.9941C20.2397 17.8959 20.2466 17.7941 20.2501 17.6924C20.1735 17.2783 20.2501 16.9064 20.5428 16.5906C20.7657 16.5941 20.9852 16.5977 21.2082 16.6047C21.2883 17.1064 21.3963 17.6152 20.9225 18.0047Z" fill="#D1C477"/>
<path d="M11.4951 26.0466C11.6136 25.6116 11.3209 24.8818 12.2233 25.001C12.2198 25.9414 12.2163 26.8782 12.2128 27.8186L12.2163 27.8115C11.4568 27.8782 11.4986 27.2361 11.3174 26.787C11.3174 26.5273 11.3453 26.2712 11.4951 26.0466Z" fill="#FBF8EB"/>
<path d="M12.8887 25.3344C13.0071 25.2116 13.1256 25.0923 13.244 24.9695C13.6064 25.2151 13.6168 25.5063 13.3102 25.787C13.2092 25.8817 13.0246 25.8888 12.8782 25.9379C12.8817 25.7379 12.8852 25.5344 12.8887 25.3344Z" fill="#FCF9ED"/>
<path d="M20.5428 16.5906C20.5741 16.9906 20.5985 17.3906 20.2501 17.6924C19.9888 17.6187 19.6056 17.6433 19.6544 17.2362C19.7171 16.7485 20.1177 16.6257 20.5428 16.5906Z" fill="#F1ECCD"/>
<path d="M10.5196 26.7835C10.6276 26.6572 10.7322 26.5309 10.8402 26.408C10.9516 26.408 11.0596 26.408 11.1711 26.408C11.523 26.8817 11.3 27.3975 11.2931 27.8993C11.084 29.9589 12.171 31.6746 12.7772 33.5202C12.8434 33.6922 12.8852 33.8641 12.92 34.043C12.9932 34.6992 13.0838 35.3553 12.603 35.9167C11.4359 35.8255 11.5718 34.6851 11.1014 34.029C10.4116 32.3167 9.99357 30.5448 9.99009 28.6922C9.99357 28.0186 9.90648 27.2958 10.5196 26.7835Z" fill="#DDCDA6"/>
<path d="M10.8367 27.8186C10.9482 27.3484 11.0596 26.8782 11.1711 26.408C11.2791 26.2887 11.3871 26.1659 11.4951 26.0466C11.5091 26.2817 11.5195 26.5168 11.5334 26.7519C11.7007 27.3729 11.9864 28.0712 10.8367 27.8186Z" fill="#E9DEC3"/>
<path d="M34.5061 28.8536C34.649 29.1554 34.9207 29.208 35.2099 29.2185C34.9974 29.6536 34.4748 29.4466 34.1299 29.7484C34.9033 30.1659 35.9241 30.001 36.5721 30.9483C35.7534 31.1729 35.1088 30.8325 34.4504 30.6641C34.1368 30.8466 33.7954 30.7764 33.4575 30.7694C32.5273 30.6747 31.6041 30.7799 30.6774 30.8255C30.1443 30.7378 29.5939 30.6957 29.1654 30.3027C28.6254 29.208 28.9389 28.2852 29.7193 27.4501C29.8691 27.3379 30.0363 27.2712 30.221 27.2501C30.3986 27.2501 30.5659 27.3028 30.7122 27.4045C30.862 29.4606 30.9108 29.4957 33.0499 28.9133C33.5306 28.7835 34.001 28.4466 34.5061 28.8536Z" fill="#F4EAD5"/>
<path d="M32.7398 33.3904C32.6353 33.3939 32.5343 33.3799 32.4367 33.3448C32.4437 32.5869 33.2136 32.2957 33.4436 31.6781C33.4784 31.4641 33.6805 31.4325 33.8198 31.3343C34.8894 31.1624 35.8753 31.7167 36.9274 31.7027C36.3561 32.8395 35.2134 32.8466 34.2344 32.8606C33.5968 32.8676 33.1753 33.0325 32.7398 33.3904Z" fill="#FAF6EA"/>
<path d="M33.4784 30.594C33.8024 30.6185 34.1264 30.6396 34.4504 30.6641C34.2135 31.0641 33.8024 30.9448 33.4505 31.0045C33.1056 31.2817 32.7328 31.3273 32.3322 31.1518C32.1162 30.3554 32.165 30.3308 33.4784 30.594Z" fill="#D8C59C"/>
<path d="M32.4437 31.008C32.7816 31.008 33.1161 31.008 33.454 31.0045C33.5759 31.1132 33.6979 31.222 33.8198 31.3308C33.6944 31.4466 33.569 31.5589 33.4436 31.6746C33.2066 31.6571 32.9663 31.636 32.7294 31.6185C32.5865 31.5729 32.4646 31.4992 32.3566 31.3904C32.2939 31.2431 32.3252 31.1168 32.4437 31.008Z" fill="#F4EBD4"/>
<path d="M10.5196 26.7835C10.227 29.3168 10.7531 31.7378 11.5334 34.1237C11.6658 34.3237 11.7634 34.5588 11.5509 34.7237C11.1572 35.029 10.9307 34.6641 10.7496 34.415C10.1051 33.5343 9.91693 32.4255 9.34906 31.5027C8.95886 30.6501 8.70802 29.7799 9.06337 28.8466C9.41873 27.9168 9.77757 26.9905 10.1329 26.0607C10.436 26.208 10.4709 26.5028 10.5196 26.7835Z" fill="#FAF7EF"/>
<path d="M9.06338 28.8501C8.9937 29.7624 9.14351 30.6115 9.75668 31.3308C9.66261 31.4466 9.54416 31.5097 9.39784 31.5132C9.07732 31.4782 8.93099 31.229 8.76725 31.001C8.76028 30.4045 8.75332 29.8115 8.74287 29.215C8.85087 29.0957 8.95538 28.9729 9.06338 28.8501Z" fill="#F3EACF"/>
<path d="M32.4437 31.008C32.4332 31.1132 32.4263 31.215 32.4193 31.3203C31.7016 31.9939 31.3114 33.0044 30.322 33.408C29.9841 34.015 29.6113 34.5202 28.8483 34.7027C27.2841 35.0781 26.2354 36.057 25.8313 37.6675C25.5665 37.6184 25.3853 37.4605 25.2773 37.2184C25.2077 36.0956 25.8766 35.1413 25.9567 34.0606C25.3261 34.2957 24.8663 34.7939 24.4412 35.3342C24.3297 35.4641 24.1973 35.5658 24.0475 35.6465C23.8733 35.6746 23.7096 35.6465 23.5563 35.5658C23.3438 35.3904 23.2184 35.1763 23.2463 34.8886C24.3158 32.6852 28.2561 30.415 30.6739 30.608C31.6075 30.2396 32.5412 29.9764 33.4819 30.5975C33.1579 30.794 32.5482 30.2641 32.4437 31.008Z" fill="#E5D6B6"/>
<path d="M25.4585 37.2886C25.5839 37.4149 25.7094 37.5412 25.8348 37.6675C25.8174 37.8816 25.7999 38.0956 25.7825 38.3096C24.1068 39.4044 22.2359 40.264 21.2779 42.2008C21.2709 41.9517 21.2639 41.7026 21.2535 41.4535C21.142 41.3342 21.0653 41.1973 21.0305 41.0359C21.0061 40.6886 21.1559 40.4149 21.3998 40.1868C22.006 39.7166 22.5111 39.1166 23.1835 38.7237C24.0475 38.4184 24.5632 37.5482 25.4585 37.2886Z" fill="#D9C6A0"/>
<path d="M30.322 33.408C30.9805 32.6711 31.1895 31.4746 32.4193 31.3203C32.5238 31.422 32.6248 31.5203 32.7294 31.622C32.0221 32.4466 31.6215 33.615 30.3359 33.7974C30.3324 33.6676 30.329 33.5378 30.322 33.408Z" fill="#FCFAF3"/>
<path d="M9.43267 31.3203C9.54067 31.3238 9.64868 31.3273 9.75668 31.3308C10.2723 32.3974 10.7914 33.4641 11.307 34.5272C11.3523 34.5027 11.4289 34.4921 11.4429 34.4536C11.4847 34.3483 11.5056 34.2325 11.5334 34.1237C11.8714 34.7132 12.2058 35.3062 12.5438 35.8956C13.0385 36.3518 13.0037 36.8886 12.7842 37.457C12.3069 38.0324 12.1745 37.4711 11.9167 37.2079C11.2791 36.5553 10.9969 35.5799 10.0876 35.1834C9.52325 34.7097 8.95887 34.2395 8.39448 33.7658C8.51642 33.643 8.63835 33.5202 8.76028 33.3974C9.21667 33.2676 9.50235 33.5202 9.79151 33.8816C9.62428 33.008 8.72196 32.2676 9.43267 31.3203Z" fill="#E8DABF"/>
<path d="M14.6515 43.9692C14.324 43.3622 13.8363 42.9096 13.2789 42.5271C12.6936 41.3622 12.1083 40.2008 11.523 39.0359C11.854 38.9061 12.0839 38.671 12.2163 38.3412C12.3522 38.2289 12.4985 38.2114 12.6587 38.2921C12.9758 38.5728 13.1395 38.9517 13.3346 39.3131C13.8398 40.7587 15.1636 41.8745 15.0417 43.5727C14.9093 43.7061 14.7804 43.8394 14.6515 43.9692Z" fill="#F4ECD4"/>
<path d="M12.5264 38.3798C12.4218 38.3658 12.3173 38.3517 12.2128 38.3412C11.5056 37.2886 10.7949 36.236 10.0876 35.1834C11.5648 35.3202 11.6275 36.9097 12.5473 37.6219C12.7493 37.8816 12.7493 38.1342 12.5264 38.3798Z" fill="#DCCBA9"/>
<path d="M9.43267 31.3203C9.36648 32.4746 10.2688 33.3483 10.3559 34.7132C9.74274 34.2114 9.25151 33.8044 8.7568 33.4009C8.76028 32.6009 8.76029 31.801 8.76377 31.0045C8.98674 31.1062 9.2097 31.215 9.43267 31.3203Z" fill="#FAF7EF"/>
<path d="M24.7757 14.1521C24.7548 14.4889 24.7339 14.8257 24.7095 15.1626C24.0998 14.3872 24.5631 13.5416 24.3471 12.4749C24.9499 13.1451 24.6642 13.6819 24.7757 14.1521Z" fill="#FFFDF7"/>
<path d="M30.6704 30.608C27.8833 31.5659 25.0648 32.4746 23.3368 35.1623C22.3857 36.8605 20.9399 38.1096 19.5429 39.4044C18.6092 40.7657 18.5674 42.4078 18.1215 43.9236C17.4282 42.9447 17.9507 41.8289 17.7835 40.7903C18.5778 38.1307 20.0376 35.8956 22.0304 33.9974C22.532 33.5167 22.9919 32.9904 23.511 32.5273C24.267 32.015 25.1241 31.6606 25.8069 31.0325C26.8973 30.5308 27.9216 29.7448 29.2385 30.2501C29.7297 30.3273 30.2906 30.1027 30.6704 30.608Z" fill="#F3ECD8"/>
<path d="M15.0382 43.5762C14.338 42.1763 13.6342 40.7798 12.934 39.3798C13.1151 39.1587 13.2963 38.9342 13.5471 38.7868C13.7736 38.6465 14.0105 38.5412 14.2857 38.5798C14.1289 37.1553 14.4355 35.7728 14.6097 34.3764C14.7769 33.6395 14.8745 32.8852 15.1044 32.1588C15.2542 31.8396 15.5051 31.608 15.7385 31.3589C15.8569 31.2361 15.9893 31.1273 16.1322 31.0361C16.5467 30.8396 17.0171 30.5554 17.3794 31.001C17.7243 31.429 17.4317 31.9027 17.146 32.2536C16.3935 33.1799 16.0451 34.2571 15.8395 35.4009C16.1914 34.1132 16.3168 32.6957 17.8323 32.1132C18.111 32.0992 18.3618 32.1694 18.5604 32.3799C18.6615 33.2465 18.2016 33.9553 17.8358 34.65C16.7523 36.7167 15.9545 38.857 15.7698 41.2043C15.742 41.5482 15.6444 41.8885 15.3866 42.1482C15.2891 42.6289 15.519 43.1903 15.0382 43.5762Z" fill="#DECCA6"/>
<path d="M15.3866 42.1447C15.1218 38.464 16.8916 35.443 18.5082 32.3694C18.5883 31.9062 18.8705 31.622 19.3025 31.4746C19.9052 31.4185 20.264 31.6957 20.3825 32.2887C20.3477 32.8852 20.1421 33.4115 19.7693 33.8746C19.3617 34.2325 19.0342 34.6395 18.9437 35.2009C18.6336 35.5097 18.4907 35.9518 18.1354 36.2255C16.4736 38.2535 16.3133 40.7517 15.951 43.3236C15.735 42.8745 15.5608 42.5096 15.3866 42.1447Z" fill="#F7F3E2"/>
<path d="M23.7479 32.7343C21.4311 35.1728 19.0621 37.5728 17.787 40.7903C17.4909 39.0219 18.9437 37.9693 19.4906 36.5483C19.3234 36.1693 19.2502 35.7763 19.2955 35.3623C19.616 34.5693 20.6229 34.643 21.034 33.9588C21.5531 33.4957 21.6611 32.7939 22.006 32.2325C22.0931 32.1097 22.2046 32.0115 22.3335 31.9378C22.8003 31.9097 22.9397 32.5167 23.403 32.5027C23.5459 32.5448 23.6573 32.622 23.7479 32.7343Z" fill="#D5C094"/>
<path d="M17.1773 41.3517C17.1146 42.3833 17.0484 43.4113 16.9857 44.4429C16.0869 43.3166 16.8638 42.3552 17.1773 41.3517Z" fill="#F1E4C5"/>
<path d="M19.5464 35.1869C19.5289 35.6395 19.5115 36.0956 19.4941 36.5483C19.2816 36.3237 19.0691 36.0956 18.8566 35.8711C18.6545 35.6395 18.6266 35.4009 18.8357 35.1553C18.1981 34.2465 18.9646 34.0641 19.5359 33.7799C19.9714 34.2465 19.8181 34.7167 19.5464 35.1869Z" fill="#EADEBD"/>
<path d="M18.8357 35.1553C18.8426 35.3939 18.8496 35.6325 18.8566 35.8711C18.8113 36.1377 18.8566 36.5553 18.7068 36.643C18.4106 36.8149 18.2713 36.4605 18.1389 36.229C18.1459 35.7237 18.0971 35.1799 18.8357 35.1553Z" fill="#CFBB95"/>
<path d="M27.5454 19.4011C27.3781 18.3941 26.6361 17.9731 25.793 17.6573C26.1901 17.1731 25.3923 17.2678 25.4515 16.945C26.2633 16.952 26.535 16.1134 27.1656 15.8328C28.0854 16.6257 26.5455 16.8748 26.8172 17.5555C27.8345 17.7836 28.6741 17.4854 29.3012 16.6047C29.7611 16.4713 30.2175 16.3415 30.6774 16.2082C30.7714 16.345 30.8063 16.4959 30.7749 16.6608C30.646 17.152 30.0084 17.4152 30.1966 18.152C31.2417 18.0854 30.9735 16.6047 31.9107 16.5029C32.2765 16.6433 32.3705 16.9591 32.4158 17.3029C32.4263 18.4117 31.6842 19.3906 31.8688 20.5555C32.5134 20.6362 33.1962 20.4783 33.8268 20.7695C33.9278 20.766 34.0288 20.759 34.1299 20.745C34.2553 20.8643 34.3215 21.0151 34.3215 21.1906C34.2553 21.4643 34.0707 21.6116 33.8024 21.6643C32.4297 21.6923 31.4647 22.6081 30.4091 23.2923C29.1166 24.1274 27.737 24.6432 26.2145 24.7905C25.9637 24.6958 25.793 24.5239 25.7024 24.2712C26.11 23.4011 26.2528 22.3835 27.082 21.745C27.3293 21.773 27.514 21.9064 27.6534 22.0993C27.6777 22.1414 27.7056 22.1906 27.7335 22.2432C27.8275 22.4186 27.8728 22.4116 27.9146 22.2256C28.1272 21.2397 28.0226 20.2958 27.5454 19.4011Z" fill="#E6D7B6"/>
<path d="M30.6669 16.5555C30.6704 16.4398 30.6739 16.3275 30.6739 16.2117C31.0292 15.7661 31.5274 15.6047 32.0605 15.5205C32.4123 15.4082 32.7677 15.2959 33.1196 15.1836C33.1161 15.4187 33.1091 15.6573 33.1056 15.8924C32.9105 16.4678 32.9593 17.2222 32.0814 17.2924C32.0674 17.0117 32.0186 16.7485 31.7539 16.5906C31.3915 16.6398 31.0223 16.8573 30.6669 16.5555Z" fill="#E8DCC5"/>
<path d="M19.5464 39.4044C20.487 37.6991 21.8597 36.3833 23.3403 35.1623C23.4692 35.2956 23.5981 35.4255 23.7305 35.5588C24.0963 36.7623 23.2602 37.843 23.3821 39.0219C22.7794 39.4851 22.1767 39.9482 21.574 40.4149C21.2012 39.9903 21.2465 39.4956 21.344 38.9026C21.0793 39.3026 21.2918 39.6991 21.1455 40.0324C21.027 40.3447 20.8737 40.6324 20.5671 40.8008C19.839 41.3728 19.8808 42.478 18.9994 43.0745C18.5988 41.7026 20.1491 40.6991 19.5464 39.4044Z" fill="#E0D1B0"/>
<path d="M20.5671 40.7973C20.6786 40.5552 20.7936 40.3096 20.9051 40.0675C21.3022 40.3236 20.9434 40.8184 21.2291 41.1096C21.2465 41.2219 21.2535 41.3377 21.25 41.4499C20.3686 41.9306 20.6542 41.1657 20.5671 40.7973Z" fill="#F1E9D4"/>
<path d="M32.0814 17.2959C32.5621 16.9345 32.3775 16.0749 33.1056 15.8959C33.4819 16.5836 33.4714 17.2608 33.1265 17.9766C32.8095 18.6362 32.597 19.3415 32.7642 20.0959C33.1161 20.3239 33.4679 20.5485 33.8198 20.7765C33.0324 20.7765 32.2381 20.7274 31.5588 21.3379C30.97 19.8011 31.8444 18.5906 32.0814 17.2959Z" fill="#F6EEDD"/>
<path d="M35.5165 20.4643C35.6419 20.5765 35.7568 20.7099 35.8962 20.7941C36.9274 21.4292 37.4605 22.4678 36.7149 23.3941C35.8823 24.4256 34.9799 23.5625 34.2588 22.8572C34.1368 22.7379 34.001 22.6327 33.8721 22.5204C33.5237 22.1976 33.5306 21.8607 33.8268 21.5099C33.9417 21.3906 34.0532 21.2713 34.1682 21.152C34.4574 21.0397 34.6141 21.2116 34.757 21.4221C35.0008 21.7414 34.9555 22.3169 35.5513 22.366C35.6523 21.8327 35.1472 21.5835 35.0426 21.159C34.9834 20.9029 35.0148 20.6748 35.2203 20.4923C35.3179 20.4678 35.4154 20.4572 35.5165 20.4643Z" fill="#CCC47B"/>
<path d="M32.7677 20.0959C31.8584 19.6327 32.2521 18.752 32.5273 18.3415C33.0603 17.552 33.1335 16.7626 33.1091 15.8959C33.3356 16.1205 33.562 16.3415 33.7884 16.5661C33.4993 17.7555 33.7432 19.1029 32.7677 20.0959Z" fill="#EADDC8"/>
<path d="M35.2203 20.4958C35.2203 20.7064 35.2168 20.9134 35.2168 21.1239C35.0949 21.4537 34.9033 21.6572 34.5236 21.5064C34.4051 21.3871 34.2866 21.2713 34.1682 21.152C34.1543 21.0186 34.1403 20.8853 34.1264 20.752C34.4225 20.3625 34.8301 20.4678 35.2203 20.4958Z" fill="#D5CA92"/>
<path d="M32.7886 25.3765C33.7257 25.4712 33.9975 25.8923 33.4679 26.7379C33.0777 27.3589 32.7189 27.9975 32.2799 28.7343C33.2694 28.9764 33.9174 27.9379 34.8127 28.1168C34.9346 28.2361 35.0566 28.3519 35.182 28.4712C34.9556 28.5975 34.7326 28.7238 34.5061 28.8501C33.4714 29.1589 32.4506 29.4782 31.3776 29.6887C30.1861 29.9203 29.8761 29.7905 30.3011 28.6115C30.437 28.2326 30.531 27.8396 30.6425 27.4536C30.8028 26.4431 30.1234 25.1063 31.7225 24.6607V24.6572C32.0639 24.9133 31.9977 25.794 32.7886 25.3765Z" fill="#DCCB9F"/>
<path d="M12.9165 29.601C13.8676 27.9028 14.8466 26.2151 15.7629 24.4958C16.2611 23.5625 16.9056 22.7835 17.7557 22.1695C18.0901 22.0151 18.219 22.2256 18.3131 22.4923C18.2399 23.5309 17.4874 24.1765 16.9335 24.9414C14.8501 27.5168 13.7805 30.5413 13.0489 33.7237C12.9096 33.8536 12.7563 33.8781 12.5856 33.7939L12.5473 33.7483C12.3382 32.7939 12.0038 31.8571 12.2128 30.8536C12.3347 30.3729 12.5263 29.9308 12.9165 29.601Z" fill="#DDCDA6"/>
<path d="M12.5751 30.6185C12.5682 31.6641 12.5577 32.7062 12.5507 33.7518C11.5892 31.8887 10.6973 30.0045 10.8367 27.8221C11.5404 27.7764 11.5195 27.2536 11.5334 26.7554C11.7599 27.1098 11.9898 27.4607 12.2163 27.815C12.2128 28.0501 12.2128 28.2887 12.2093 28.5238C11.3244 29.394 13.0002 29.822 12.5751 30.6185Z" fill="#F3EAD3"/>
<path d="M18.1493 22.5625C18.0169 22.4327 17.888 22.3028 17.7557 22.1695C17.78 22.0678 17.8079 21.9695 17.8323 21.8678C18.7416 21.3836 19.6544 20.8993 20.5637 20.4187C21.1803 20.4257 21.0166 20.8467 20.804 21.0572C20.0585 21.7906 19.3339 22.6011 18.1493 22.5625Z" fill="#E6D9B1"/>
<path d="M12.5751 30.6185C12.2337 30.1203 11.8087 29.6571 11.5787 29.1133C11.3802 28.6431 11.5021 28.18 12.2128 28.5203C12.2163 29.0326 12.4671 29.3834 12.9165 29.601C12.9026 29.9729 12.9653 30.3729 12.5751 30.6185Z" fill="#E0D1AD"/>
<path d="M18.1493 22.5625C18.8635 21.745 20.278 21.7274 20.5637 20.4222C20.7204 20.1029 20.9538 19.8713 21.3022 19.7731C21.5148 19.8643 21.6994 19.9801 21.7656 20.2222C21.8144 20.5906 21.8074 20.959 21.7691 21.3274C21.6959 21.6292 21.4451 21.7765 21.2291 21.9555C21.1315 22.0502 21.0305 22.1414 20.9329 22.2362C20.696 22.4888 20.5358 22.8046 20.3128 23.0712C20.1038 23.2923 19.8355 23.4221 19.5603 23.5379C18.5291 24.0747 18.651 25.1484 18.3897 26.0466C18.2155 26.6466 18.2643 27.2922 18.0169 27.8747C17.787 28.2326 17.5327 28.3168 17.24 27.9414C17.031 27.5729 16.9474 27.1624 16.8255 26.7659C16.7175 26.373 16.6861 25.973 16.6722 25.5695C16.6478 25.2572 16.7314 24.9484 16.714 24.6326C17.1982 23.9414 17.672 23.2502 18.1493 22.5625Z" fill="#F2EACD"/>
<path d="M21.6471 20.138C21.5322 20.0152 21.4172 19.8923 21.3022 19.7731C21.7482 19.5134 22.1941 19.2502 22.6366 18.9906C23.0651 19.2257 22.7271 19.4783 22.6505 19.7239C22.4624 20.2187 22.1558 20.4187 21.6471 20.138Z" fill="#E5D6AD"/>
<path d="M27.5244 22.1941C27.4095 22.0678 27.2945 21.9449 27.1795 21.8186C26.9705 21.6502 26.7162 21.345 26.5176 21.7414C26.117 22.5344 25.57 23.3063 25.7825 24.2853C25.9044 24.3975 26.0229 24.5098 26.1448 24.6221C25.9671 24.9975 25.3819 25.4361 26.3051 25.6361C26.643 25.9449 26.7893 26.2993 26.5664 26.7414C25.4899 27.3168 24.9847 28.3554 24.4586 29.3799C23.504 29.9519 23.4518 29.2606 23.3717 28.601C23.6817 26.2396 24.0928 23.8888 23.9778 21.4257C23.5807 21.8888 23.5006 22.566 22.8212 22.6677C22.5355 22.6467 22.3509 22.4783 22.2115 22.2432C22.1349 21.4818 22.2185 20.8011 23.0442 20.4713C23.0895 19.7345 25.0056 19.545 23.6573 18.352C23.5877 18.2889 24.1416 17.9766 24.5004 18.0678C25.7442 18.3871 26.8312 18.9485 27.5558 20.0748C28.2839 20.7941 28.5766 21.5064 27.5244 22.1941Z" fill="#E3D2AC"/>
<path d="M27.5244 22.1941C27.9808 21.4958 27.9704 20.7871 27.5593 20.0748C27.5558 19.8502 27.5523 19.6257 27.5454 19.4011C28.8518 20.8923 28.8448 22.2011 27.5105 23.4748C27.0646 23.0397 27.6464 22.6186 27.5244 22.1941Z" fill="#FBF8EE"/>
<path d="M23.0477 20.4713C22.8177 21.0572 22.5843 21.6432 22.3544 22.2256C21.7865 22.3134 21.5148 22.0993 21.6158 21.4993C21.3197 21.0362 21.25 20.5801 21.6471 20.1344C21.9816 19.9976 22.3195 19.8573 22.654 19.7204C22.971 19.8748 23.0128 20.1695 23.0477 20.4713Z" fill="#FDFBF5"/>
<path d="M12.5856 33.7974C12.6866 33.7904 12.7911 33.7834 12.8956 33.7834C13.6447 35.3693 13.7945 37.043 13.6307 38.7623C13.6203 38.857 13.6098 38.9517 13.5994 39.0465C13.46 39.3272 13.2092 39.3833 12.9305 39.3798C12.7946 39.0465 12.6587 38.7131 12.5229 38.3798C12.5298 38.1272 12.5368 37.8746 12.5438 37.6219C12.5403 37.0465 12.5403 36.4711 12.5368 35.8991C12.5577 35.1974 12.5716 34.4957 12.5856 33.7974Z" fill="#D1BA95"/>
<path d="M33.13 22.5555C32.5412 22.8958 32.0813 23.366 31.7016 23.9274C30.4823 24.801 31.1059 26.4151 30.3046 27.4536C30.2001 27.4536 30.0955 27.4607 29.991 27.4712C29.6844 27.3063 29.5486 27.0256 29.4719 26.7028C29.4301 26.1835 29.7785 25.4677 28.8204 25.4081C28.5452 25.1765 28.3989 24.8993 28.5139 24.5274C29.6148 23.5449 30.9352 22.9028 32.1824 22.152C32.5447 21.9379 33.0812 21.7906 33.13 22.5555Z" fill="#E5D8B7"/>
<path d="M29.6392 26.7624C29.9318 26.9098 29.9771 27.1835 29.9945 27.4712C29.4789 28.3238 29.1758 29.2361 29.2455 30.2501C28.0958 30.608 26.9496 30.9624 25.7999 31.3203C25.671 31.4606 25.5317 31.4676 25.3819 31.3589C25.2948 31.2115 25.253 31.0536 25.253 30.8852C25.3888 30.2536 25.7964 29.8852 26.3887 29.6922C26.5455 29.6606 26.7022 29.6431 26.8625 29.6396C28.3118 29.4501 28.4442 28.0957 29.0399 27.1484C29.1897 26.9379 29.3813 26.7975 29.6392 26.7624Z" fill="#D8C69B"/>
<path d="M30.3046 27.4536C30.754 26.2712 29.9736 24.594 31.7016 23.9274C31.7086 24.173 31.7155 24.4186 31.719 24.6607C30.6704 25.3239 31.4647 26.7063 30.639 27.4536L30.4718 27.4572L30.3046 27.4536Z" fill="#F6EFDC"/>
<path d="M23.3821 39.0219C22.4554 37.7623 23.4901 36.6991 23.7305 35.5588C23.8455 35.5413 23.957 35.5307 24.0719 35.5307C24.4726 35.9342 24.4517 36.3834 24.2287 36.8605C24.8001 35.5553 24.8001 35.5553 24.0615 35.5413C24.2531 34.036 25.6188 33.8992 26.7023 33.2465C26.2703 34.6535 25.8626 35.9728 25.4585 37.2886C24.9568 38.0991 24.274 38.6886 23.3821 39.0219Z" fill="#F4EDDA"/>
<path d="M28.8274 33.8851C28.9041 33.0255 28.9598 32.1834 29.8168 31.8185C30.0363 31.7238 30.3011 31.8466 30.2767 32.1413C30.2035 33.0536 29.4127 33.3939 28.8274 33.8851Z" fill="#FAF8EF"/>
<path d="M28.2073 32.2115C28.1899 32.9904 28.3641 33.8851 27.3294 34.443C27.1586 33.443 27.6708 32.836 28.2073 32.2115Z" fill="#F9F5E9"/>
<path d="M21.2291 41.1096C20.8389 40.85 20.9539 40.4324 20.9051 40.0675C20.8563 39.7833 20.7274 39.4816 20.7762 39.2149C20.8772 38.6675 20.919 37.7307 21.5182 37.8254C22.5042 37.9868 21.5879 38.7166 21.6262 39.1973C21.6576 39.5973 21.5949 40.0079 21.574 40.4114C21.459 40.6465 21.344 40.878 21.2291 41.1096Z" fill="#F9F4E5"/>
<path d="M25.462 31.3238C25.5735 31.3238 25.6849 31.3238 25.7964 31.3203C25.4167 32.2395 24.4447 32.2852 23.7444 32.7343C23.6086 32.7273 23.4692 32.7202 23.3333 32.7132C23.2114 32.5799 23.1243 32.4255 23.0721 32.2536C22.9815 31.6746 23.1313 31.201 23.6608 30.8957C24.0789 31.815 24.929 30.8992 25.462 31.3238Z" fill="#D9C495"/>
<path d="M17.7835 32.3624C16.6722 33.2395 16.4457 34.6009 15.8535 35.843C15.303 33.9834 16.3969 32.6395 17.2818 31.2641C16.7976 30.8817 16.4562 31.4536 16.0729 31.2782C15.7246 30.1168 16.4213 29.994 17.2853 30.0396C17.8532 30.2536 18.226 30.6501 18.3862 31.2396C18.4803 31.7729 18.2329 32.1238 17.7835 32.3624Z" fill="#F5EED8"/>
<path d="M17.4212 30.3062C16.6791 30.2185 16.1287 30.401 16.0729 31.2782C16.059 31.415 16.0451 31.5518 16.0346 31.6887C15.0696 31.6571 14.7038 30.8536 14.1916 30.2396C14.2021 29.2641 14.7351 28.5168 15.2647 27.7729C15.9301 27.6501 15.9754 28.1729 16.0555 28.5975C16.1426 29.0536 16.1809 29.5062 16.7767 29.5624C17.0902 29.6361 17.3898 29.7308 17.5118 30.0817C17.4804 30.1554 17.4491 30.2326 17.4212 30.3062Z" fill="#DECDA2"/>
<path d="M14.2892 38.6921C14.0593 38.8114 13.8293 38.9272 13.5994 39.0465L13.5924 38.9693C13.5785 36.9798 13.4078 34.9939 13.46 33.0044C13.4775 32.3764 13.5123 31.7378 13.9931 31.2431C14.4076 31.0325 14.7874 31.0115 15.08 31.4501C15.1219 31.8711 14.972 32.2606 14.8954 32.6606C14.4634 34.65 14.6829 36.7026 14.2892 38.6921Z" fill="#DFD0B0"/>
<path d="M17.7835 32.3624C17.9089 32.008 18.0344 31.6536 18.1563 31.2992C18.5569 30.3799 18.6406 29.187 20.0202 29.1027C20.8145 29.4255 21.0549 29.9975 20.7762 30.801C19.9331 30.5694 19.5986 31.2185 19.184 31.7308C18.9576 31.9413 18.7311 32.1553 18.5047 32.3659C18.2678 32.3694 18.0239 32.3659 17.7835 32.3624Z" fill="#EADBBA"/>
<path d="M14.2892 38.6921C14.5156 36.5869 13.8885 34.4325 14.6411 32.3588C15.3936 32.9553 14.5784 33.8079 14.9825 34.4606C14.8153 36.1202 14.4007 37.7553 14.8954 39.478C14.7351 39.471 14.5749 39.4675 14.4146 39.4605C14.3763 39.2044 14.331 38.9482 14.2892 38.6921Z" fill="#F4EAD2"/>
<path d="M14.986 34.4606C14.3658 33.843 14.7769 33.0571 14.6446 32.3588C14.662 32.0711 14.7282 31.808 15.0104 31.6571C15.3169 31.5799 15.4528 31.6852 15.3762 32.0115C15.4633 32.8606 15.2298 33.6606 14.986 34.4606Z" fill="#FAF6E7"/>
<path d="M15.3727 32.0115C15.2507 31.8922 15.1288 31.7764 15.0069 31.6571C14.8536 31.3729 14.5888 31.3238 14.3031 31.3203C14.0209 30.9589 14.007 30.615 14.3624 30.2922C15.1776 30.4431 15.4807 31.2185 16.0346 31.6852C15.8883 31.9518 15.6444 32.0115 15.3727 32.0115Z" fill="#CBB685"/>
<path d="M19.5464 35.1869C19.5429 34.7167 19.5394 34.25 19.5359 33.7799C19.7624 33.3062 19.9923 32.8325 20.2188 32.3588C20.4382 32.4641 20.6159 32.6115 20.7204 32.836C20.7204 32.9904 20.7971 33.1623 20.6299 33.2851C20.7448 33.3448 20.7866 33.2887 20.7483 33.1167C20.696 32.8887 20.7762 33.1799 20.7518 32.9448C20.7274 32.7027 20.5846 32.5308 20.4591 32.3448C20.3755 32.0431 20.2536 31.7483 20.3999 31.4325C20.7448 31.1869 21.1246 31.0115 21.5426 30.9097C21.6924 31.0045 21.8004 31.1273 21.8806 31.2852C22.1419 32.3448 21.689 33.2501 21.2744 34.1623C21.0096 35.0325 20.163 34.9132 19.5464 35.1869Z" fill="#DFCEA8"/>
<path d="M20.5846 31.3062C20.5811 31.6641 20.5776 32.0185 20.5776 32.3764C20.6751 32.4571 20.7065 32.5343 20.6717 32.608C20.6368 32.6816 20.602 32.7167 20.5671 32.7167C20.4522 32.5974 20.3337 32.4781 20.2188 32.3588C20.0167 31.9097 19.7031 31.6536 19.1875 31.7343C19.1492 31.0466 19.724 30.6922 19.9853 30.1062C20.2013 30.4571 20.3686 30.7273 20.5358 31.001C20.6299 31.0536 20.6682 31.1168 20.6508 31.1904C20.6333 31.2676 20.6124 31.3062 20.5846 31.3062Z" fill="#D5C39A"/>
<path d="M25.462 31.3238C24.8558 31.4045 24.1172 32.1729 23.7444 31.001C23.194 31.0325 23.1243 31.2641 23.3438 32.3448C23.3438 32.4676 23.3403 32.5904 23.3403 32.7132C22.4868 33.2536 22.7759 32.0852 22.323 32.0255C22.006 31.2501 22.3579 30.422 22.1349 29.6396C22.1419 29.1273 22.2917 28.6887 22.7794 28.4361C23.072 28.6782 23.4065 28.3659 23.7096 28.5063C23.741 28.9519 23.5668 29.608 24.4203 29.215C24.9986 28.7238 25.2739 27.8852 26.1309 27.7168C26.3713 27.8045 26.535 27.9694 26.6186 28.2115C26.6744 29.3203 25.3958 29.8536 25.4446 30.9589C25.4515 31.0782 25.455 31.201 25.462 31.3238Z" fill="#EADBBA"/>
<path d="M21.2778 34.1623C21.344 33.0922 21.7969 32.0641 21.6262 30.9659C21.6994 30.9343 21.7726 30.9027 21.8457 30.8711C22.0025 30.9203 22.114 31.022 22.1837 31.1729C22.33 31.5448 21.992 31.9518 22.2708 32.3167C21.999 32.9659 22.0408 33.7834 21.2778 34.1623Z" fill="#EDDEB9"/>
<path d="M22.2708 32.3167C21.8004 31.9518 22.0373 31.4185 21.9572 30.9624C21.5879 30.3624 21.8387 29.9448 22.3544 29.608C22.9954 30.422 22.6435 31.222 22.323 32.0255C22.3126 32.1238 22.2951 32.222 22.2708 32.3167Z" fill="#FAF3E0"/>
<path d="M33.13 22.5555C32.799 22.0221 32.4332 22.3485 32.1057 22.5414C30.9282 23.2327 29.7611 23.9484 28.5905 24.6537C28.1063 25.194 27.3328 25.1133 26.7824 25.5133C26.5768 25.6256 26.3643 25.6923 26.1274 25.6852C25.7546 25.78 25.3784 25.8712 24.8453 26.0045C24.915 25.0642 25.4481 24.773 26.1413 24.6256C28.2804 24.0607 30.1931 23.0291 32.0152 21.7871C32.5308 21.4362 33.1021 20.7555 33.8268 21.5134C33.8407 21.8502 33.8547 22.187 33.8721 22.5239C33.6247 22.5309 33.3774 22.5449 33.13 22.5555Z" fill="#F7F3E1"/>
<path d="M30.6669 16.5555C31.0327 16.4748 31.409 16.0327 31.7539 16.5941C31.5448 17.1205 31.3497 17.6538 31.1198 18.1696C30.9804 18.4889 31.0292 19.0924 30.4196 18.8678C30.0677 18.738 29.7158 18.4853 29.4824 18.1941C29.2072 17.8538 29.5242 17.5626 29.7715 17.331C30.0607 17.0643 30.3673 16.8152 30.6669 16.5555Z" fill="#F8F6EF"/>
<path d="M25.7825 24.2888C24.6154 22.6467 26.4096 21.8432 26.643 20.5379C27.3816 20.8923 27.082 21.4221 27.1795 21.8221C26.6674 22.6186 26.7789 23.7695 25.7825 24.2888Z" fill="#FAF5EB"/>
<path d="M29.6357 22.552C29.0225 23.0537 28.9284 22.5625 28.9598 22.1379C29.0643 20.7871 28.8413 19.5239 27.9112 18.2397C28.9946 18.1941 29.249 18.8853 29.6357 19.3871C30.3986 20.4432 30.2245 21.4958 29.6357 22.552Z" fill="#F3EAD5"/>
<path d="M29.6357 22.552C29.6357 21.4958 29.6357 20.4397 29.6357 19.3836C31.1442 19.9415 31.1442 21.2257 29.6357 22.552Z" fill="#F8F4EA"/>
<path d="M32.7886 25.3765C32.5935 25.6923 32.3984 26.0045 32.0221 26.608C31.8897 25.7484 31.8026 25.201 31.719 24.6572C32.0744 24.8993 32.4332 25.1379 32.7886 25.3765Z" fill="#F6EFDC"/>
<path d="M34.5236 21.5064C34.7535 21.38 34.9869 21.2502 35.2168 21.1239C35.2656 21.152 35.3179 21.1765 35.3632 21.2081C35.8788 21.5976 36.3526 22.0116 36.1993 22.759C36.1227 23.1309 35.8614 23.173 35.5548 23.0572C34.8406 22.7941 34.4051 22.3379 34.5236 21.5064Z" fill="#E2DFA4"/>
<path d="M14.3624 30.2957C14.3415 30.6361 14.324 30.9799 14.3031 31.3203C13.582 32.3132 14 33.443 13.9617 34.5062C13.9095 36.0044 14.0453 37.5097 13.5924 38.9693C12.9375 37.2956 13.0524 35.5202 12.8956 33.7834C13.0315 30.2466 14.5784 27.3133 16.7209 24.6291C17.0345 24.8046 17.0902 25.0993 17.0798 25.4256C16.7488 25.7344 16.7802 26.2221 16.5328 26.573C16.2018 27.0501 15.9057 27.5589 15.3831 27.8642C15.0417 28.6747 14.7003 29.4852 14.3624 30.2957Z" fill="#F7F2E2"/>
<path d="M19.5673 23.2677C19.7902 23.1449 20.0132 23.0221 20.2362 22.8993C20.602 23.1765 20.71 23.594 20.8459 24.0011C20.9364 24.3449 20.9573 24.6923 20.9016 25.0432C20.5846 26.3028 20.0968 27.4326 18.7555 27.9168C18.4524 27.8536 18.2887 27.6466 18.1981 27.3624C18.1772 25.8361 18.2295 24.3344 19.5673 23.2677Z" fill="#F9F6EB"/>
<path d="M20.5497 24.0256C20.1491 23.7344 20.2606 23.2958 20.2362 22.8993C20.2675 22.4116 20.4591 22.0292 20.9364 21.8397C21.0305 21.9555 21.0862 22.0923 21.1524 22.2221C21.1037 22.0818 21.0305 21.9555 20.9225 21.8537C21.0723 21.5695 21.3371 21.5134 21.6228 21.5028C21.8353 21.7765 21.9642 22.1414 22.3613 22.2256C22.4554 22.3204 22.553 22.4151 22.647 22.5063C23.1104 22.7379 23.3508 23.1098 23.3403 23.6362C23.309 24.0361 23.1382 24.3519 22.7829 24.5519C21.9189 24.8853 21.0444 25.2572 20.5497 24.0256Z" fill="#D8C78B"/>
<path d="M18.4803 27.4536C18.5883 27.5659 18.6998 27.6747 18.8078 27.787C19.0795 27.8361 19.2607 27.9975 19.3687 28.2466C19.4384 28.5098 19.414 28.7624 19.2955 29.008C18.9018 29.5238 18.4524 29.9238 17.7417 29.8185C17.4003 29.6817 17.0798 29.5168 16.8882 29.1764C16.7035 28.7168 16.6966 28.2677 16.9753 27.8396C17.132 27.6887 17.2923 27.6887 17.4491 27.8396C17.5606 28.0256 17.672 28.0221 17.78 27.8361C17.9717 27.6326 18.0692 27.2572 18.4803 27.4536Z" fill="#EFE5C7"/>
<path d="M18.4803 27.4536C18.2469 27.5835 18.0169 27.7098 17.7835 27.8396C17.9438 26.7028 18.0169 25.5449 18.2991 24.4432C18.4385 23.9028 18.5813 23.0291 19.5673 23.2677C18.752 24.5449 18.3723 25.9344 18.4803 27.4536Z" fill="#DED0A6"/>
<path d="M16.3586 26.401C16.4631 25.973 16.5816 25.5554 17.0798 25.4221C17.0972 25.8607 17.1146 26.3028 17.132 26.7414C17.2679 27.0922 17.0658 27.1554 16.7871 27.1589C16.4597 27.0115 16.2332 26.808 16.3586 26.401Z" fill="#CAB986"/>
<path d="M16.7732 27.1063C16.8917 26.987 17.0101 26.8642 17.132 26.7449C17.4804 27.0396 17.4456 27.4466 17.4526 27.8431C17.3306 27.8396 17.2087 27.8326 17.0867 27.8256C16.6164 27.9168 16.592 27.6221 16.6234 27.2782C16.6687 27.2221 16.7209 27.1624 16.7732 27.1063Z" fill="#DED0A6"/>
<path d="M19.191 28.8571C19.191 28.6291 19.191 28.3975 19.1875 28.1694C19.5359 26.9729 20.602 26.7379 21.567 26.3835C22.9048 25.8923 23.4379 24.994 23.0372 23.587C22.9048 23.2291 22.7724 22.8713 22.64 22.5099C23.5563 22.2783 23.1835 21.3134 23.5946 20.7976C23.7688 20.5801 23.9326 20.2537 24.2496 20.3836C24.4064 20.4467 24.5701 20.7695 24.5492 20.9555C24.2635 23.4712 24.483 26.0466 23.7061 28.5063C23.4727 28.5484 23.2393 28.8992 23.0024 28.5098C22.6191 28.0642 22.215 28.2992 21.8109 28.4782C20.9643 28.8045 20.1073 29.0501 19.191 28.8571Z" fill="#F8F2E1"/>
<path d="M26.1274 25.6817C26.2528 25.573 26.3748 25.4642 26.5002 25.3554C27.1238 25.1203 27.1238 25.8186 27.4722 26.001C27.5941 26.0958 27.7091 26.1905 27.8275 26.2852C28.1515 26.5344 28.4442 26.801 28.4477 27.2572C28.0819 28.2361 28.0296 29.4045 26.8869 29.9238C26.7371 29.9168 26.5873 29.9062 26.4375 29.8992C26.0124 29.2922 26.5908 28.8361 26.6674 28.3028C26.751 27.8572 26.8068 27.4115 26.5211 27.008C26.4967 26.9344 26.4758 26.8642 26.4549 26.7905C26.3469 26.4221 26.2354 26.0537 26.1274 25.6817Z" fill="#D9C495"/>
<path d="M26.117 27.78C25.5909 28.3063 25.3853 29.2185 24.4168 29.215C24.5597 27.9519 24.8523 26.8116 26.4549 26.794L26.4584 26.787C26.6674 27.2291 26.5072 27.5414 26.117 27.78Z" fill="#F7F2E3"/>
<path d="M25.4376 21.6327C25.2739 21.5274 25.2007 21.5029 25.2007 21.4748C25.1589 20.7099 24.8419 19.8853 25.57 19.2748C25.6606 19.1976 26.1204 19.3415 26.1588 19.4608C26.4444 20.373 25.7302 20.9064 25.4376 21.6327Z" fill="#FCF8EE"/>
<path d="M27.2492 26.3589C26.7301 26.2291 26.9392 25.5484 26.5002 25.3554C27.0541 24.6923 27.7997 24.6046 28.5905 24.6502C28.709 24.8923 28.8274 25.1309 28.9459 25.373C29.1479 25.573 29.1828 25.8221 29.1514 26.0923C28.9598 26.5344 28.9981 27.1905 28.2317 27.0993C27.9983 26.8747 27.7683 26.6501 27.5349 26.4221C27.6081 26.3133 27.5941 26.1975 27.4757 26.1765C27.3886 26.1659 27.305 26.2712 27.2492 26.3589Z" fill="#E3D2AC"/>
<path d="M28.9354 26.0572C28.9389 25.8291 28.9424 25.601 28.9459 25.373C29.2315 25.2151 29.7193 24.8747 29.7646 24.9274C30.3081 25.5519 29.8482 26.1554 29.6357 26.7624C29.5242 26.8852 29.4127 27.0045 29.3012 27.1273C28.479 27.0151 28.7786 26.5098 28.9354 26.0572Z" fill="#F9F5E8"/>
<path d="M28.9354 26.0572C28.9528 26.4502 28.8797 26.8782 29.3047 27.1273C28.8518 28.3729 28.8309 29.9905 26.8869 29.9273C27.3363 28.9834 27.7857 28.0431 28.2317 27.0993C28.4686 26.7519 28.702 26.4045 28.9354 26.0572Z" fill="#F5EDD5"/>
<path d="M26.8904 28.1694C26.7406 28.7484 26.5908 29.3238 26.441 29.9027C26.11 30.2536 25.7755 30.608 25.4446 30.9589C24.9499 29.7027 26.103 29.0782 26.5002 28.1659C26.4793 28.0291 26.3992 27.8571 26.6152 27.8186C26.8904 27.7694 26.9287 27.9449 26.8904 28.1694Z" fill="#F5EAD3"/>
<path d="M24.058 35.5413C24.5771 35.3097 24.8941 34.7167 25.7686 34.7097C25.0648 35.8325 24.7757 37.0711 23.4692 38.1763C23.7549 37.0605 24.2217 36.3448 24.0684 35.5342C24.0684 35.5272 24.058 35.5413 24.058 35.5413Z" fill="#DDCDAC"/>
<path d="M23.3403 32.3448C22.6609 31.4782 23.0895 30.7624 23.5842 29.994C24.0301 30.3413 23.6051 30.6992 23.7444 31.001C23.4483 31.401 23.3577 31.8606 23.3403 32.3448Z" fill="#F3ECD8"/>
<path d="M19.191 28.8571C20.1142 28.6185 21.0375 28.3799 21.9607 28.1414C22.4554 28.408 22.5216 28.7343 22.0931 29.1308C21.8248 29.3694 21.5078 29.4922 21.1594 29.5378C20.7309 29.5098 20.3093 29.4361 19.9191 29.2431C18.8984 29.5554 19.1074 30.9308 18.1563 31.3027C17.9089 30.9694 17.6651 30.6396 17.4177 30.3097L17.4526 30.2466C17.6616 30.0747 17.6128 29.7764 17.78 29.5834C18.3828 29.601 18.7137 29.0817 19.191 28.8571Z" fill="#DFCEA6"/>
<path d="M16.3586 26.401C16.498 26.6361 16.6338 26.8677 16.7732 27.1028L16.6408 27.1519C16.2541 27.9764 16.4631 28.7484 16.8568 29.4992C16.8986 29.6606 16.8603 29.7975 16.7418 29.9133C16.2088 29.9975 15.6166 30.2361 15.6862 29.2536C15.7211 28.787 15.8709 28.2326 15.3796 27.8571C15.5956 27.2993 15.7768 26.7168 16.3586 26.401Z" fill="#E8DEC3"/>
<path d="M16.7418 29.9168C16.7314 29.7905 16.7175 29.6641 16.707 29.5378C16.6826 29.2571 16.7941 29.1273 17.0833 29.194C17.3167 29.3238 17.5501 29.4536 17.7835 29.5834C17.9612 29.9484 18.1006 30.2957 17.456 30.2466C17.2853 29.9834 17.024 29.9238 16.7418 29.9168Z" fill="#CFBB88"/>
<path d="M19.9191 29.2396C20.3616 29.2396 20.804 29.2396 21.25 29.2396C21.7865 29.8045 21.6855 30.3904 21.3057 30.9869C21.2779 31.5799 20.9782 31.5553 20.5846 31.3062C20.5741 31.2045 20.5567 31.1027 20.5323 31.001C20.7065 30.2817 20.4766 29.7027 19.9191 29.2396Z" fill="#F9F3E3"/>
<path d="M21.3092 30.9869C21.2918 30.4045 21.2709 29.822 21.2535 29.2396C21.4904 29.1168 21.7308 28.994 21.9677 28.8712C22.3195 29.6501 21.783 30.2782 21.6228 30.9729L21.6262 30.9694C21.5182 30.9694 21.4137 30.9764 21.3092 30.9869Z" fill="#EADBBA"/>
<path d="M20.5671 32.7167C20.5741 32.6045 20.5776 32.4887 20.5811 32.3764C21.2395 33.043 20.8633 33.6185 20.4243 34.229C20.0306 33.6465 20.6821 33.222 20.5671 32.7167Z" fill="#EDDEB9"/>
<path d="M21.6193 30.9729C21.4973 30.2326 21.8457 29.5694 21.9642 28.8712C22.3578 28.6256 21.9886 28.3835 21.9607 28.1414C22.1488 27.8536 22.3265 27.4642 22.7341 27.6045C23.1522 27.7484 22.9815 28.187 23.0059 28.5133C22.6226 28.7799 22.4972 29.201 22.3544 29.6115C22.222 30.0641 22.0896 30.5133 21.9572 30.9659C21.8457 30.9694 21.7308 30.9729 21.6193 30.9729Z" fill="#DFCEA8"/>
<path d="M26.8904 28.1694C26.765 27.9659 26.6361 27.9028 26.5002 28.1624C26.3748 28.0361 26.2459 27.9063 26.1204 27.78C26.2354 27.4466 26.3504 27.1168 26.4619 26.7835C27.2701 27.0361 27.6986 27.408 26.8904 28.1694Z" fill="#E3D2AC"/>
<path d="M23.0372 23.5835C23.95 24.5554 23.5807 26.0747 22.2185 26.6045C21.1455 27.0221 20.0167 27.2922 19.184 28.1694C19.0586 28.0431 18.9297 27.9168 18.8043 27.7905C19.5568 26.9694 20.278 26.1309 20.5811 25.0186C21.5949 25.7624 21.9642 24.559 22.654 24.3204C22.9397 24.1554 22.9989 23.8783 23.0372 23.5835Z" fill="#E4D6B2"/>
<path d="M22.654 24.3204C22.6296 25.5449 20.9678 25.4046 21.1385 26.9835C20.4452 26.0782 21.3162 25.4186 20.5846 25.0186C20.5741 24.6888 20.5637 24.3554 20.5497 24.0256C21.1455 24.8853 21.9502 24.2467 22.654 24.3204Z" fill="#F5EDD3"/>
<path d="M20.919 21.8537C21.5461 22.1941 21.7517 22.6748 21.4729 23.3905C20.7483 22.9941 20.9748 22.3765 20.9329 21.8397L20.919 21.8537Z" fill="#F2EACD"/>
<path d="M17.0798 29.194C16.9544 29.3098 16.8289 29.4255 16.707 29.5378C15.5782 28.7729 15.7489 27.9764 16.6408 27.1554C16.7871 27.38 16.9369 27.601 17.0833 27.8256C17.0833 28.2817 17.0833 28.7378 17.0798 29.194Z" fill="#FBF9F3"/>
<path d="M27.2492 26.3589C27.1935 25.9449 27.1342 25.5063 27.7021 25.4186C27.9355 25.3835 28.1585 25.5203 28.1864 25.7975C28.2352 26.2712 27.8937 26.3624 27.5384 26.4256C27.4408 26.401 27.3433 26.38 27.2492 26.3589Z" fill="#F5EFDB"/>
</svg>
