<svg width="44" height="55" viewBox="0 0 44 55" fill="none" xmlns="http://www.w3.org/2000/svg">
<path d="M2.51265 52.3909C0.123436 49.6295 1.63809 46.8902 2.55731 44.151C2.75082 44.5318 3.13042 44.5503 3.48768 44.6131C3.77796 44.9976 4.08313 45.3709 4.22827 45.8404C4.14267 47.2784 3.08204 48.5094 3.38348 49.9289C3.63654 49.4446 4.03475 48.9271 4.41434 48.3911C5.65361 46.6426 6.7775 44.8275 7.7637 42.9274C8.04282 42.3914 8.26611 41.8 8.87644 41.519C10.659 42.0329 9.6319 43.3008 9.63563 44.2952C8.94342 46.6056 7.58507 48.5759 6.31604 50.5906C7.62973 48.7792 8.61965 46.783 9.64679 44.809C9.9594 43.9662 10.4916 43.3119 11.314 42.909C11.4629 42.8276 11.6229 42.7648 11.7829 42.713C13.0966 42.3471 12.758 43.4413 12.9813 44.0475C13.0743 44.2804 13.1525 44.5133 13.1562 44.7684C12.7133 46.0992 11.3326 46.7017 10.7 47.8846C10.5623 48.088 10.406 48.2765 10.246 48.4613C9.83659 48.8717 9.69145 49.4298 9.4235 49.9178C8.72758 50.6534 8.06887 51.4334 7.5553 51.792C9.11461 50.232 11.1354 48.5907 13.1338 46.9235C13.6884 46.5243 14.0977 45.8959 14.8718 45.8552C15.3965 45.9624 15.6124 46.2951 15.59 46.8052C13.7739 48.2026 12.5793 50.1285 11.1652 51.877C10.0152 53.2965 9.02158 55.1744 6.59887 54.3796C5.20702 53.7623 3.77796 53.2411 2.51265 52.3909Z" fill="#B4CF5A"/>
<path d="M37.5619 26.8286C36.8213 29.2794 36.1886 31.7784 34.4842 33.8115C33.6506 33.8041 33.1258 33.4123 32.9584 32.5768C32.4559 32.7395 32.6792 33.5491 32.0466 33.586C31.4214 32.9946 30.2826 33.2792 29.8658 32.3255C29.7913 31.6157 30.2677 31.3643 30.8669 31.1684C30.0481 31.283 29.4936 32.1 28.6042 31.8819C27.8041 31.6933 26.9518 31.5861 26.6318 30.6435C26.5127 29.9633 26.8513 29.4236 27.1751 28.8802C27.7631 28.1187 28.6005 27.7305 29.4601 27.3609C30.0742 27.0984 30.7701 26.9247 31.0827 26.2223C31.1609 26.0671 31.2651 25.9303 31.3879 25.8083C32.6383 25.1873 33.7027 24.0413 35.3141 24.459C35.9616 25.0098 35.8909 25.7196 35.7607 26.4404C35.649 27.1908 35.0052 27.8636 35.4034 28.6991C35.1168 29.1242 34.5958 29.3829 34.5065 29.9966C34.6628 29.6269 34.8303 29.3201 35.1243 29.0983C35.9021 28.7619 35.515 27.8562 35.9728 27.3831C36.4008 26.9543 36.598 25.7713 37.5619 26.8286Z" fill="#6B9854"/>
<path d="M18.3923 3.83915C19.4828 2.36788 20.9751 1.37718 22.5828 0.597191C25.2362 -0.692937 27.618 0.135111 29.3448 2.81148C29.1847 3.08134 29.2629 3.49536 28.8684 3.61365C28.6563 3.52124 28.9466 3.40664 28.753 3.5619C28.7382 3.57668 28.7382 3.62844 28.7605 3.72085C28.7828 3.82066 28.8051 3.86872 28.8237 3.87981C27.7743 4.82615 27.0895 4.80767 26.6206 3.72825C26.3601 3.12569 26.0587 2.50096 26.081 1.8023C26.0066 1.65073 25.8949 1.52875 25.7647 1.41785C25.8168 1.5805 26.0177 1.62486 26.0736 1.7986C25.9917 2.75233 25.921 3.70237 25.1841 4.42691C24.611 4.767 23.6732 4.30492 23.3717 5.24387C23.3047 6.40831 23.5578 7.60603 23.0219 8.71871C22.8135 9.22146 22.4525 9.60591 22.058 9.96448C21.6933 10.2196 21.3026 10.4044 20.8411 10.2898C20.655 9.55785 20.0633 9.9497 19.6428 9.86098C19.0808 8.64478 19.3674 7.0848 18.1132 6.14955C18.0462 5.28823 18.8352 4.95553 19.1888 4.35668C19.4604 3.89829 18.8761 4.31232 18.7831 4.13488C18.6008 4.09052 18.4742 3.99071 18.3923 3.83915Z" fill="#709957"/>
<path d="M33.1184 10.5781C34.1865 10.1271 35.2322 9.6133 36.397 9.43586C36.8101 9.22885 37.2158 9.1771 37.6065 9.49131C37.8187 10.4783 38.6597 9.46544 39.0393 9.93121C40.2376 10.8886 41.6927 11.262 43.1255 11.6834C43.1479 12.0346 43.1702 12.3821 43.1925 12.7333C43.1702 12.8146 43.1479 12.8922 43.1292 12.9736C42.8241 14.0825 42.9432 15.2876 42.3328 16.3264C42.2286 16.5519 42.0798 16.7441 41.9011 16.9105C41.7821 17.014 41.6555 17.1064 41.5253 17.1951C41.1941 17.4058 40.9596 17.709 40.7475 18.0343C40.6507 18.1673 40.5391 18.2856 40.4163 18.3965C39.3221 19.0619 39.3147 19.073 38.5406 18.3078C38.4476 18.2154 38.4885 18.086 38.4327 18.1821C38.3732 18.2856 38.3359 18.4261 38.2392 18.4815C37.1897 19.0878 36.7059 18.6183 36.5273 17.5796C36.7878 16.563 37.3497 15.7017 37.9489 14.8662C38.0196 14.7849 38.1313 14.711 38.1648 14.6112C38.2131 14.4707 38.1461 14.4374 38.0233 14.5151C37.7033 14.7221 37.2307 14.8071 37.3497 15.3616C37.1786 16.1564 36.7171 16.8218 36.3449 17.5241C36.2482 17.6646 36.1365 17.7829 36.01 17.8975C35.4443 18.0527 35.2471 19.2098 34.3614 18.4963C34.3316 17.1877 33.7845 15.8348 34.6777 14.5964C35.3066 13.9975 36.1328 13.7055 36.8325 13.2138C37.1674 12.9588 37.506 12.7074 37.8596 12.4856C38.0978 12.3082 38.5146 12.2083 38.4625 11.8683C38.3992 11.4616 37.9936 11.5282 37.7144 11.628C36.6836 11.9976 35.8239 12.7776 34.6889 12.9144C34.5177 12.8774 34.339 12.8294 34.1604 12.8368C33.5389 12.8737 32.8095 13.4061 32.3331 12.7222C31.8531 12.0346 32.7648 11.5836 32.8579 10.9626C32.8988 10.8073 32.9844 10.6779 33.1184 10.5781Z" fill="#709A56"/>
<path d="M36.8138 17.5722C36.8324 18.171 37.2307 18.5555 37.7405 18.4557C38.5927 18.2893 37.6065 17.4576 38.2169 17.0325C39.27 17.2617 38.7081 18.208 38.8904 18.8327C39.445 18.5407 39.9809 18.2597 40.5205 17.9751C40.7996 18.0638 40.5465 18.6886 40.9782 18.5296C42.5189 17.9603 42.6789 18.7366 42.4445 19.9454C41.5588 22.2595 40.1595 24.215 38.2615 25.812C37.9191 26.1003 37.6475 26.3887 37.5619 26.8286C36.4231 26.5402 36.3338 27.505 36.1216 28.1409C35.9467 28.6658 35.8983 29.1796 35.3103 29.4125C35.0908 29.1685 35.1057 28.9283 35.3178 28.688C34.2646 27.945 35.3922 27.2056 35.3215 26.4663C35.9095 25.5606 36.2742 24.5145 37.0557 23.7271C37.1934 23.6051 37.3721 23.5533 37.5135 23.4535C37.7703 23.2724 38.0308 23.8047 38.1015 23.5312C38.1722 23.2613 37.8968 23.1024 37.4912 23.1356C36.3524 23.2243 35.288 23.509 34.2758 24.0228C33.7101 23.9304 33.2524 23.679 32.9732 23.1652C32.9397 22.9878 32.9658 22.814 33.0514 22.6551C34.153 21.8122 35.6974 21.705 36.5012 20.681C35.6118 21.0951 34.8935 22.4185 33.431 21.7235C33.498 19.8308 35.1801 18.9584 36.0733 17.587L36.0658 17.5944C36.3114 17.3726 36.5608 17.3578 36.8138 17.5722Z" fill="#689651"/>
<path d="M30.1747 4.90378C30.4166 5.80576 30.6547 6.70774 30.8966 7.60972C31.0083 7.77237 31.012 7.93503 30.9115 8.10137C30.7106 8.42668 30.4017 8.59303 30.037 8.66696C28.6786 8.28621 28.6265 8.38602 28.8684 10.7888C30.8334 10.2639 29.7579 11.8793 30.104 12.5004C30.1002 12.7628 30.0519 13.0142 29.9551 13.2545C29.7653 13.4135 30.0035 13.2323 29.8807 13.4208C29.4713 14.0456 29.0768 13.931 28.6488 13.4689C28.6265 14.0899 28.6154 14.7184 27.7855 14.8441C27.2644 14.8404 26.7881 14.2563 26.2261 14.7147C25.8465 14.589 25.7423 14.2785 25.6977 13.931C25.6233 13.0031 26.4457 12.4856 26.7248 11.7204C26.7434 11.6723 26.736 11.5873 26.7025 11.554C26.669 11.5171 26.5946 11.5208 26.5276 11.5171C25.493 12.2564 24.2909 12.5891 24.1458 14.345C24.0081 15.9974 21.9576 16.4817 20.7183 15.4466C20.5918 14.8662 20.8262 14.4485 21.31 14.1417C22.3037 12.3192 24.1384 11.0809 24.8417 9.0662C24.3728 7.95721 25.1953 7.04783 25.72 6.47116C26.695 5.39913 26.8216 6.87779 27.283 7.32878C27.417 7.45077 27.5473 7.58015 27.7333 7.39901C27.7706 7.20679 27.7706 7.02196 27.7408 6.84082C27.3984 4.71895 27.3984 4.72264 29.475 5.08861C29.7132 5.14036 29.9439 4.9888 30.1747 4.90378Z" fill="#6C9954"/>
<path d="M1.85394 28.6695C0.770979 27.2611 0.558853 25.5791 0.324398 23.9008C0.800751 23.2983 0.35417 22.607 0.480701 22.3224C0.443486 22.6181 0.726321 23.2946 0.324398 23.9045C-0.434791 21.7531 0.324398 19.6534 0.718878 17.598C0.986827 16.2081 1.0687 14.6481 2.13305 13.4837C2.31169 13.3617 2.50148 13.3469 2.69872 13.443C2.95923 13.6242 3.11925 13.8644 3.1453 14.1824C2.7471 15.7978 3.13042 17.4206 3.0746 19.0434C3.04482 19.8086 3.21601 20.6256 2.60569 21.2762C1.91721 21.5276 2.04746 20.8955 1.85766 20.67C1.77951 21.2245 2.14794 21.7198 2.34518 22.2632C2.46427 22.973 2.56103 23.6864 2.93318 24.3296C3.33882 25.3499 3.66632 26.3887 3.90077 27.4607C3.90822 27.7047 3.84495 27.945 3.871 28.1889C4.00125 29.468 3.6626 29.8783 2.54242 28.9209C2.35634 28.7582 2.08095 28.7619 1.85394 28.6695Z" fill="#679752"/>
<path d="M21.537 45.297C20.3424 45.7886 19.2036 46.4614 17.8527 46.4614C17.5327 46.3062 17.3466 46.0215 17.1531 45.7406C16.9186 45.3635 16.766 44.9717 16.9782 44.5318C17.5885 43.7814 18.8873 43.7333 19.0511 42.5282C19.5572 41.6632 19.8214 40.6503 20.6439 39.9812C21.8831 38.7761 23.6248 39.5561 25.0018 38.8981C25.1878 38.9129 25.333 38.9979 25.4335 39.1532C25.5935 39.7668 25.3627 40.1919 24.7934 40.4507C24.4956 40.6207 24.4733 40.8943 24.5105 41.19C24.3021 41.7149 24.1793 42.2768 23.8109 42.7278C23.5206 43.1566 23.0442 43.4745 22.9996 44.0512C22.6312 44.602 22.0655 44.9236 21.537 45.297Z" fill="#689551"/>
<path d="M3.32766 44.5725C2.85131 44.8275 2.57964 44.7129 2.55731 44.151C2.55358 43.2269 2.89596 42.3914 3.22346 41.5523C3.72214 41.3342 3.94915 41.7149 3.97892 42.0366C4.0608 42.8979 4.69345 42.6613 5.18097 42.7167C5.91411 41.9515 6.1188 41.0089 6.1188 39.9997C6.31231 39.1938 6.85193 38.5469 7.1571 37.7891C7.48459 37.2938 7.78603 36.5877 8.50056 36.8686C9.04391 37.0794 9.00669 37.7743 9.01785 38.314C9.04018 39.2715 9.11461 40.24 8.65687 41.1383C7.72277 43.3156 6.62864 45.4042 5.28145 47.3708C5.04328 47.7146 4.53715 48.0695 4.81999 48.6388C4.29525 49.404 3.77052 50.1692 3.16763 51.0527C2.52381 48.9899 3.22346 47.3228 4.10546 45.6851C3.89333 45.2822 3.94543 44.6981 3.32766 44.5725Z" fill="#A7C648"/>
<path d="M7.7451 4.13118C9.68401 2.64513 10.6888 2.69688 12.2295 4.37146C12.3635 5.62462 13.2827 6.50812 13.7665 7.59863L13.7442 7.62451C14.0196 7.93872 13.8409 8.33796 13.9414 8.67805C14.2205 9.64657 14.5443 9.11425 14.8495 8.68175C14.9611 8.24554 15.1211 7.83891 15.4933 7.55427C15.7873 7.36944 15.9659 7.53209 16.1259 7.75389C16.1855 7.90915 16.2078 8.0718 16.1929 8.24185C16.152 8.75568 15.5231 9.11425 15.8096 9.71681C15.7836 10.2232 15.4672 10.434 15.0058 10.4968C14.8346 10.5042 14.6671 10.4857 14.5034 10.4524C14.1089 10.3415 13.7181 10.2122 13.3609 10.0014C12.9887 9.7242 12.7282 9.33975 12.3895 9.03663C12.01 8.87767 11.8648 9.19928 11.6601 9.3952C10.9903 10.1197 10.4767 9.96818 10.3613 9.03663C10.2757 8.34905 10.3167 7.61342 10.6925 6.96651C10.7967 6.69295 10.927 6.4194 10.6777 6.16064C9.82914 6.58945 10.3278 7.3029 10.2608 7.90176C10.1752 8.65957 10.7707 9.65027 9.57236 10.0606C9.16299 10.0828 8.80573 10.2491 8.47824 10.4894C7.35434 10.2343 6.95614 9.49131 7.70044 8.5154C8.51545 7.44707 8.50801 6.68186 7.45482 5.89078C6.45001 5.13667 7.40272 4.67828 7.7451 4.13118Z" fill="#669150"/>
<path d="M30.1747 4.90378C30.0519 5.62832 30.1635 6.77798 29.0098 5.46197C28.7791 5.19581 28.1837 4.90748 27.979 5.02577C27.4691 5.3178 28.0236 5.73922 28.046 6.11258C28.0981 6.85561 28.6674 7.66517 27.871 8.34535C27.4989 7.87588 27.5547 7.25115 27.3389 6.72622C27.257 6.49703 26.9667 6.8667 27.1826 6.7484C27.2607 6.70774 27.283 6.7521 27.3277 6.85191C27.5212 7.26963 27.4989 7.64669 27.1528 7.97939C26.5462 7.62081 26.8439 6.68187 25.9172 6.29741C26.2373 7.4175 24.6929 7.92394 25.2771 9.08838C25.4483 9.67615 25.0762 9.84249 24.611 9.9423C23.7104 9.49871 23.5318 8.66327 23.4164 7.79086C23.3978 7.07741 23.4834 6.38613 23.8444 5.75401C24.116 5.19581 24.4398 4.67828 24.9273 4.27905C25.2883 3.41403 25.6493 2.54902 26.0103 1.684H26.014C26.1294 2.37158 27.2756 2.53793 26.896 3.52493C26.7658 3.86502 27.1937 4.15706 27.5882 4.23099C28.1464 4.3345 28.5707 4.20881 28.6265 3.54711L28.6302 3.54342C28.8684 3.29944 29.1066 3.05546 29.3448 2.81518C29.836 3.42512 30.0816 4.13488 30.1747 4.90378Z" fill="#67904F"/>
<path d="M2.60196 13.528C2.44566 13.5133 2.28936 13.4985 2.13305 13.4837C2.75082 10.519 4.39946 8.0792 6.16345 5.69856C6.4835 5.52482 6.68074 5.69856 6.85193 5.93884C6.78867 7.42859 7.49576 8.85919 7.20176 10.3674C7.19059 10.9552 7.17943 11.3877 6.45001 11.7574C5.61639 12.1825 4.9428 13.0253 5.40799 14.1787C5.42287 14.3524 5.40054 14.5224 5.34472 14.6888C4.10173 15.7867 4.06452 15.7756 3.25695 14.0825C3.23834 13.6648 2.91829 13.5983 2.60196 13.528Z" fill="#6B9557"/>
<path d="M5.21447 43.445C4.90558 43.3304 3.40209 41.8998 3.21974 41.5523C3.30905 40.9682 3.61422 40.3989 3.34627 39.789C3.37604 39.2715 3.6812 38.85 3.83006 38.3732C4.16872 37.0461 4.74928 35.7744 4.74183 34.366C4.74928 34.1886 4.77905 34.0111 4.81254 33.8374C4.90558 33.4012 5.06188 32.9761 5.06561 32.5214C5.11026 31.9706 5.08421 31.4087 5.42659 30.9281C5.57173 30.8099 5.7392 30.7692 5.92155 30.8025C6.24905 31.2387 6.04436 31.6823 6.0853 31.9558C6.40535 31.3348 5.8769 30.6287 5.73176 29.8894C5.71687 29.6972 5.75036 29.516 5.82852 29.3386C6.02204 29.0946 6.26393 28.9541 6.58398 28.9541C6.77006 29.0576 6.90031 29.2055 6.98219 29.3977C7.2613 30.2997 7.16826 31.2313 7.18315 32.1517C6.92264 34.7542 6.56538 37.3455 6.14112 39.9295C6.15973 41.1863 5.65733 42.3064 5.21447 43.445Z" fill="#ABC856"/>
<path d="M6.68074 6.13846C6.50583 5.99059 6.33464 5.84273 6.15973 5.69856C6.54677 5.03686 7.04545 4.48606 7.74137 4.13118C7.49576 4.75961 7.03801 5.3215 8.03537 5.85012C9.33046 6.5303 9.13322 7.5284 8.28099 8.50431C7.51808 9.38041 7.58135 9.84249 8.50801 10.19C8.69036 10.3674 8.85783 10.5855 8.82434 10.8295C8.51173 12.9329 8.52289 15.0806 7.89768 17.136C7.42505 17.465 7.15338 17.136 7.14221 16.7663C7.11244 15.8384 6.41279 15.3505 5.94016 14.7184C5.80991 14.3894 5.52707 14.308 5.2033 14.2969C4.42178 13.2989 4.90558 11.8756 6.37186 11.432C7.17198 11.1918 6.73285 10.9034 6.6733 10.567C7.83069 9.09208 6.63609 7.61342 6.68074 6.13846Z" fill="#6F9B58"/>
<path d="M28.7009 37.5821C27.8041 37.9333 26.9072 38.2845 26.014 38.6356C25.8726 38.9092 25.7163 39.1569 25.3404 39.0645L25.1916 38.9868C24.8231 38.7724 24.3914 38.6837 24.0528 38.4101C23.5876 37.7669 23.2266 37.0904 23.4648 36.255C24.4249 35.4972 25.4856 35.0684 26.736 35.2273C27.0337 35.5452 27.0225 35.8484 26.3676 36.4398C27.4803 35.5489 28.366 35.2126 29.3522 35.1423C29.5271 35.1534 29.6871 35.2089 29.8286 35.3161C30.3049 36.4879 28.7419 36.6616 28.7009 37.5821Z" fill="#6E9F55"/>
<path d="M5.95505 29.4014C5.95505 29.5382 5.95877 29.6713 5.95877 29.8081C6.15601 30.1666 6.21183 30.5215 5.91039 30.8579C5.80619 30.8801 5.70199 30.9023 5.59406 30.9208C4.30642 31.442 5.31867 32.1 5.48614 32.7062C5.38566 33.087 5.28518 33.4677 5.18842 33.8485C4.35108 34.0555 4.165 33.3568 3.86356 32.8726C3.51001 32.3033 3.24206 31.6823 2.7285 31.2239C2.08467 30.7581 2.52009 29.9744 2.18515 29.4125C2.07351 29.1648 1.96559 28.9172 1.85394 28.6658C2.84386 27.3535 2.88108 29.2055 3.51373 29.1648C3.74819 28.6547 2.93318 28.0152 3.68492 27.5716C4.04219 27.6307 4.25804 27.8858 4.47761 28.1335C4.81626 28.8063 5.37821 28.8913 6.04064 28.7139C6.1709 28.9652 6.11879 29.1907 5.95505 29.4014Z" fill="#709F54"/>
<path d="M28.7009 37.5821C28.34 37.5008 27.8599 37.4453 28.3772 36.9574C28.8982 36.462 29.6015 36.1293 29.7467 35.3271C29.9811 34.4215 30.9487 34.4917 31.507 34.0111C32.3331 34.0481 33.5091 32.7876 33.8552 34.6285C32.5006 36.2328 30.785 37.2198 28.7009 37.5821Z" fill="#699755"/>
<path d="M37.5619 9.84989C37.2939 9.38041 36.8101 9.49871 36.3933 9.43586C39.2552 8.37123 41.916 9.25842 43.1181 11.6834C42.3775 12.859 42.0351 10.9034 41.2685 11.4727C40.487 12.0531 39.8022 12.0827 39.8543 10.7482C39.8618 10.567 39.3147 10.3637 39.0244 10.1678C38.5927 9.80923 37.9973 10.1974 37.5619 9.84989Z" fill="#7CA463"/>
<path d="M2.51265 52.3909C4.0608 52.6644 5.54568 53.0747 6.58771 54.3759C5.21075 55.8139 4.165 54.3759 3.02994 53.9397C2.33402 53.6699 1.92093 53.1598 2.51265 52.3909Z" fill="#D19D67"/>
<path d="M42.4482 19.9454C42.277 17.9751 41.1234 18.8956 40.2525 19.317C39.7799 18.6405 40.7438 18.4742 40.5205 17.9788L40.5354 17.9603C40.9038 17.6757 41.008 17.2247 41.2573 16.8624C41.3876 16.8587 41.5216 16.855 41.6518 16.8513C42.411 17.3356 42.5264 16.0972 43.1739 16.2894C43.3451 16.3153 43.4828 16.3966 43.5796 16.5445C43.2818 17.6979 43.1479 18.9178 42.4482 19.9454Z" fill="#6D9954"/>
<path d="M2.18515 29.4162C3.30161 29.468 2.12189 30.7063 2.95923 30.9023C3.53606 31.7414 3.21974 32.636 3.12298 33.5195C2.73594 34.0629 2.76943 35.0092 1.75718 34.9723C1.23245 34.2292 1.58227 33.3716 1.43341 32.5768C1.41852 32.4881 1.40736 32.3957 1.39247 32.307C1.66042 31.3422 1.92093 30.3773 2.18515 29.4162Z" fill="#66934E"/>
<path d="M4.09801 38.6985C4.05708 39.2049 3.82262 39.5783 3.34627 39.7853C2.5052 38.6504 1.71624 37.486 1.47435 36.0517C1.36642 35.9556 1.32921 35.8595 1.3627 35.7597C1.39619 35.6598 1.42969 35.6118 1.46318 35.6118C1.63809 35.5637 1.80928 35.5674 1.97675 35.6377C2.46055 35.9038 2.63918 36.5212 3.22718 36.6838C4.34363 36.9906 4.37713 37.7817 4.09801 38.6985Z" fill="#6A9651"/>
<path d="M33.859 34.6248C33.3566 33.1387 32.2959 34.7098 31.6112 34.2219C31.4214 33.8152 31.6484 33.623 31.987 33.4862C32.3294 32.7802 32.4225 31.8634 33.6766 31.7488C32.8467 32.9132 33.9148 33.2422 34.4879 33.8152C34.2758 34.0851 34.0674 34.3549 33.859 34.6248Z" fill="#72A15D"/>
<path d="M15.9994 7.99417C15.8319 7.84631 15.6608 7.70214 15.4933 7.55427C16.2376 6.14585 17.2089 4.91117 18.3923 3.83915C18.5896 3.86502 18.7868 3.8909 18.9841 3.91678C18.8687 4.95184 17.1494 7.2992 15.9994 7.99417Z" fill="#6C9357"/>
<path d="M13.7665 7.59863C13.0706 6.60793 11.3959 6.07931 12.2295 4.37146C13.2232 5.22169 13.5581 6.37874 13.7665 7.59863Z" fill="#81A56E"/>
<path d="M15.5789 46.8015C15.3556 46.5428 15.1323 46.2803 14.909 46.0215C14.3471 45.0715 15.1137 44.7536 15.7129 44.3543C15.9771 44.2656 16.2413 44.2582 16.5093 44.3285C16.6693 44.395 16.7921 44.5059 16.8703 44.6575C17.0861 45.2268 16.4199 45.382 16.3306 45.8034C16.4758 46.0585 16.7512 46.2138 16.8479 46.4947C16.4237 46.5982 15.9994 46.698 15.5789 46.8015Z" fill="#689551"/>
<path d="M43.1888 12.7333C44.4764 13.8829 43.9294 15.2211 43.5833 16.5408L43.4754 16.4447C42.9804 15.8791 43.0027 15.1731 42.932 14.4892C42.8092 13.8977 42.6603 13.3062 43.1404 12.7887L43.1888 12.7333Z" fill="#6D9954"/>
<path d="M16.8479 46.4947C16.3269 46.3838 15.6533 46.5058 15.6087 45.6814C16.2264 45.5151 16.8442 45.2526 17.4657 45.674C17.7857 45.8441 17.8378 46.1472 17.8527 46.4651C17.5252 46.7609 17.1866 46.6056 16.8479 46.4947Z" fill="#678F4C"/>
<path d="M1.53389 35.6229C1.51528 35.7671 1.49295 35.9112 1.47435 36.0517C0.867739 34.8133 0.916118 33.5639 1.39992 32.3033C1.45574 32.3661 1.51156 32.4327 1.55994 32.5029C1.66042 33.5454 1.7609 34.5841 1.53389 35.6229Z" fill="#6D9C4E"/>
<path d="M14.8457 8.68175C14.8197 8.98857 14.7974 9.31018 14.4141 9.37672C14.0493 9.43956 13.8261 9.23255 13.7926 8.89246C13.7479 8.47474 13.7591 8.04962 13.7442 7.62451C14.3545 7.72801 13.6139 9.21776 14.8457 8.68175Z" fill="#6E9B55"/>
<path d="M27.5324 29.0466C27.2719 29.5308 27.0114 30.0151 26.7546 30.4956C26.7881 30.9836 26.5313 31.3791 26.3415 31.7969C26.1815 32.1517 26.282 32.5916 25.9768 32.9022C24.5552 33.5786 23.8332 34.9057 22.9549 36.0887C22.8135 36.2994 22.6535 36.4916 22.4897 36.6838C21.7566 37.5969 21.057 38.5395 20.361 39.4822C20.2084 39.6855 20.0447 39.8814 19.8958 40.0884C18.9692 41.2529 18.6082 43.0346 16.6358 43.0642C17.06 41.9293 15.6868 42.3101 15.4747 41.7112C15.1918 40.3731 16.8442 39.9627 16.8368 38.9868C16.7437 39.9997 15.0355 40.4877 15.4003 41.9478C15.4003 42.4395 15.1137 42.7204 14.6857 42.8979C13.8372 43.0864 13.4911 44.0623 12.6091 44.1954C11.5485 44.3543 13.4799 42.5837 11.8834 43.0864C11.3326 42.0772 12.1886 41.5301 12.6724 40.9202C13.4167 39.9812 14.3992 39.2345 14.9016 38.1033C15.43 37.279 16.1669 36.7467 17.127 36.5249C17.6443 36.5175 17.9904 36.7541 18.1504 37.242C18.2733 37.4675 18.1504 38.0516 18.7236 37.6154C19.2967 37.1829 19.8028 36.6875 20.268 36.1515C21.284 34.7394 22.6312 33.5934 23.5169 32.0815C24.6519 30.8616 25.586 29.4754 26.7211 28.2555C27.4021 28.1076 27.283 28.7619 27.5324 29.0466Z" fill="#ADC956"/>
<path d="M9.2858 44.2028C9.11461 43.3489 10.112 42.3397 8.93598 41.6188C8.80201 41.4931 8.72386 41.3416 8.70153 41.1604C8.91365 40.4914 8.9397 39.7557 9.39001 39.1643C10.6442 37.2346 11.5894 35.1534 12.3747 32.9983C12.9999 31.7488 13.4911 30.4476 14.027 29.1611C14.2801 28.5512 14.4922 27.8895 15.2514 27.6899C15.8133 27.6492 16.1557 27.8969 16.2636 28.4514C16.286 29.5382 15.6943 30.4365 15.3519 31.405C15.2774 32.0667 15.8208 31.6601 16.0552 31.7932C16.2264 31.8449 16.3567 31.941 16.4497 32.0889C16.4534 32.6951 16.0776 33.0426 15.6124 33.331C13.64 34.0592 13.7442 36.1034 12.9031 37.5488C12.6873 38.0294 12.4082 38.4767 12.1104 38.9092C11.1801 40.6244 11.2247 42.7574 9.79193 44.2582C9.60958 44.3433 9.44211 44.3211 9.2858 44.2028Z" fill="#ACC954"/>
<path d="M14.5034 42.7241C14.8755 42.5615 15.1286 42.3064 15.1993 41.8924C15.1732 41.6077 15.2812 41.4895 15.5714 41.5967C16.2301 41.9109 17.1977 41.9922 16.74 43.1418C17.2312 44.0364 16.4237 44.2028 15.9436 44.554C15.4003 44.9051 14.842 45.2489 14.9053 46.0252C14.3954 46.4023 13.8819 46.783 13.372 47.1601C13.0929 47.0899 12.918 46.9198 12.8733 46.6315C12.8994 46.3875 12.9813 46.1657 13.1413 45.9772C12.17 46.5428 11.8313 47.9992 10.3911 47.9031C10.7223 46.3838 12.2928 45.8441 13.0185 44.639C13.2529 43.7962 13.8149 43.2121 14.5034 42.7241Z" fill="#A7C54B"/>
<path d="M15.203 38.2216C15.1249 39.4674 14.0121 40.0145 13.3385 40.8314C12.7543 41.5375 12.0955 42.1585 11.8871 43.0901C11.7532 43.0901 11.6192 43.0901 11.4852 43.0901C10.7558 43.0568 10.834 42.5689 10.9568 42.1068C11.1056 41.5412 11.381 41.0163 11.5671 40.4581C12.5756 39.3861 13.346 37.9296 15.203 38.2216Z" fill="#A4C14E"/>
<path d="M12.9962 46.7793C13.1227 46.905 13.2492 47.0307 13.372 47.1527C11.0721 49.1415 8.77223 51.134 6.46862 53.1228C6.33836 52.9934 6.20811 52.864 6.08158 52.7309C7.14221 51.7291 8.20656 50.7311 9.2672 49.7293C9.5612 49.3448 9.86264 48.9641 10.2646 48.6831C11.2396 48.1397 11.6266 46.7683 12.9962 46.7793Z" fill="#9FBE43"/>
<path d="M9.2858 44.2028C9.40861 44.1991 9.5277 44.1954 9.65051 44.1917C9.95195 44.3433 9.81426 44.7055 10.0041 44.9088C8.89132 47.3597 7.3134 49.5223 5.68338 51.6774C6.77006 49.1267 8.45218 46.8644 9.2858 44.2028Z" fill="#9EC042"/>
<path d="M8.91365 41.2455C8.92109 41.3712 8.92854 41.4968 8.93598 41.6225C7.70788 44.0475 6.39047 46.4171 4.81999 48.6425C4.11662 47.9142 4.84976 47.3412 5.17353 46.9272C6.517 45.1972 7.35062 43.2306 8.16563 41.2381C8.41497 41.2418 8.66431 40.9867 8.91365 41.2455Z" fill="#90B33C"/>
<path d="M10.0003 44.9088C9.69889 44.761 9.66168 44.48 9.64679 44.1917C10.1939 42.6169 11.1317 41.1715 11.2024 39.4341C11.2173 39.0608 11.5485 38.8168 11.8946 38.6615C12.5942 39.2789 11.7271 39.8555 11.8499 40.4581C12.0546 41.3786 10.6107 42.0735 11.4815 43.0827C10.834 43.5707 10.3241 44.1658 10.0003 44.9088Z" fill="#86AC3F"/>
<path d="M12.9962 46.7793C12.129 47.5261 11.2656 48.2728 10.3985 49.0195C9.71378 49.038 9.79565 48.6831 10.0264 48.2617C10.1492 48.1397 10.272 48.0177 10.3948 47.8994C11.5522 46.8533 12.7096 45.8071 13.9712 44.6686C14.295 45.7997 13.2194 46.0918 12.9962 46.7793Z" fill="#B6D05B"/>
<path d="M14.5034 42.7241C14.1498 43.4709 13.7702 44.1954 13.0185 44.6316C12.8845 44.4874 12.7468 44.3433 12.6091 44.1991C13.1971 43.6483 13.4316 42.6539 14.5034 42.7241Z" fill="#CDDD8C"/>
<path d="M3.32766 44.5725C3.3872 44.3248 3.34999 43.8886 3.78168 44.3063C4.17616 44.6907 4.80882 45.0419 4.10546 45.6888C3.35371 45.6519 3.30905 45.1343 3.32766 44.5725Z" fill="#ABC856"/>
<path d="M10.0264 48.2617C10.0338 48.5722 10.0971 48.8532 10.3985 49.0195C10.0227 49.2561 9.64679 49.4964 9.27092 49.733C9.25231 49.1082 9.35279 48.5389 10.0264 48.2617Z" fill="#A7C54B"/>
<path d="M27.5324 29.0466C27.3091 28.7989 27.0821 28.5549 26.8588 28.3072C26.1926 27.2278 26.6467 26.1706 26.9221 25.1096C27.097 24.8509 27.35 24.7621 27.6515 24.788C28.2655 24.9396 28.1353 25.5532 28.3809 25.9672C28.9466 25.3869 29.1661 24.581 29.769 24.0524C30.0928 23.7751 30.424 23.5053 30.7775 23.2613C31.2018 23.0321 31.6074 22.9101 31.8456 23.5016C31.9275 24.6475 31.0902 25.3351 30.4984 26.1447C30.3421 26.3147 30.2082 26.5217 29.8434 26.4959C30.3645 26.5809 30.7701 25.934 31.2241 26.4515C31.3618 27.5235 30.3272 27.3794 29.8174 27.6529C29.0247 28.0743 28.1799 28.3922 27.5324 29.0466Z" fill="#ADC962"/>
<path d="M34.2051 23.8639C35.1652 22.3482 36.9106 23.0247 38.3322 22.3926C38.4885 23.2243 38.5481 23.9858 38.202 24.6845C37.3274 24.9137 38.4104 23.18 37.1786 23.8823C36.6985 24.4479 36.2593 25.1207 35.3401 24.6328C33.7622 24.5329 32.7239 25.9192 31.2427 26.0929C31.213 26.0116 31.1795 25.9266 31.1497 25.8453C31.2688 25.1762 31.7563 24.7917 32.2513 24.4073C32.8616 24.0783 33.4496 23.6716 34.2051 23.8639Z" fill="#598645"/>
<path d="M31.987 33.4862C31.8605 33.7302 31.7377 33.9779 31.6112 34.2219C31.0939 34.7616 30.4203 35.0462 29.7467 35.3271C29.6239 35.3271 29.4973 35.3271 29.3745 35.3271C29.4787 34.4769 28.9838 34.4067 28.3325 34.5435C28.1613 34.4991 28.0125 34.4178 27.8748 34.3069C27.8673 33.1313 29.155 33.0833 29.6239 32.3181C29.7876 32.2331 29.9514 32.2405 30.1077 32.3366C30.7106 32.758 31.8791 32.2663 31.987 33.4862Z" fill="#608E4D"/>
<path d="M30.1114 32.3366C29.9923 32.355 29.8769 32.3735 29.7579 32.3957C28.526 32.6804 27.35 33.5454 26.0177 32.7321C25.9098 32.3698 25.4632 32.0408 25.9024 31.6194C26.803 31.6231 27.6999 31.4198 28.6005 31.6083C29.6983 31.5307 30.5766 30.662 31.7489 30.71C31.4474 31.5492 30.1486 31.3126 30.1114 32.3366Z" fill="#93B55A"/>
<path d="M28.6005 31.6083C27.7036 31.7192 26.8067 32.5029 25.9024 31.6194C26.1852 31.2461 26.468 30.8727 26.7546 30.4956C27.1156 31.283 28.0832 31.076 28.6005 31.6083Z" fill="#557C41"/>
<path d="M35.3215 28.688C35.3178 28.9283 35.3178 29.1722 35.3141 29.4125C34.6033 29.7341 34.9159 30.9799 33.8738 30.9873C33.7994 30.9873 33.6357 30.7766 33.658 30.7433C34.1083 29.9781 34.2646 28.9689 35.3215 28.688Z" fill="#83AF6E"/>
<path d="M35.3401 24.6328C35.9542 24.3814 36.5645 24.13 37.1786 23.8823C36.8771 24.9655 36.0993 25.7159 35.3252 26.4663C35.5039 25.8563 35.489 25.2464 35.3401 24.6328Z" fill="#78A45F"/>
<path d="M35.6527 31.0316C35.4741 31.1684 35.3476 31.2682 35.221 31.368C35.1503 31.2424 35.0015 31.0982 35.0238 30.991C35.0498 30.8653 35.2248 30.7729 35.3364 30.662C35.4294 30.7766 35.5262 30.8875 35.6527 31.0316Z" fill="#7CA866"/>
<path d="M31.2204 26.4515C30.7627 26.3184 30.398 27.0725 29.929 26.5809C29.8844 26.5328 30.063 26.2704 30.1374 26.1077C30.4947 25.8194 30.8594 25.7639 31.2278 26.0855L31.239 26.0929C31.2353 26.2112 31.2278 26.3295 31.2204 26.4515Z" fill="#577D3C"/>
<path d="M15.9771 28.6769C15.9585 28.1741 15.6794 27.9413 15.1918 27.9191C14.6634 26.7879 15.6049 25.8305 15.5603 24.7548C15.59 24.5773 15.6384 24.4036 15.698 24.2335C16.2153 23.1245 16.8107 22.0525 17.2201 20.8918C17.6741 20.1635 18.1393 19.439 18.1728 18.5407C18.8315 16.6665 19.8884 14.9623 20.4838 13.0586C21.0235 12.0087 21.0904 10.7519 21.9166 9.82401C21.8831 9.24364 22.4414 9.08838 22.713 8.72611C22.8991 8.60412 23.0628 8.63369 23.1968 8.81113C23.569 9.67615 23.1187 10.4672 22.9847 11.2879C22.46 12.2527 22.3223 13.4098 21.5184 14.2378C21.3063 14.6296 21.0979 15.0178 20.8858 15.4096C21.1314 17.4021 19.8363 18.9732 19.4344 20.718C19.2669 20.9842 19.6242 20.8955 19.4083 20.7698C19.3674 20.7476 19.4046 20.6958 19.4493 20.5923C19.5795 20.2892 19.8102 20.1081 20.1042 19.9898C20.4987 19.9269 20.8113 20.0194 20.9639 20.4223C21.0011 21.1431 20.4727 21.5424 20 21.9009C18.9245 22.7142 18.2137 23.7493 17.7783 24.9987C17.6294 25.3203 17.4843 25.6382 17.3652 25.9709C16.8442 26.8434 17.3392 28.2296 15.9771 28.6769Z" fill="#A1C259"/>
<path d="M21.9166 9.82771C21.8087 11.0217 21.4663 12.1381 20.8151 13.151C20.1787 13.4208 19.8772 14.4337 18.9171 13.9975C18.411 13.5354 18.3737 12.9625 18.5226 12.3451C18.6119 11.7684 18.8501 11.1474 18.0574 10.8295C18.0239 10.5892 18.0202 10.3489 17.9346 10.1087C18.0649 10.9441 18.2509 11.8017 17.1642 12.1714C16.6991 12.1085 16.3492 11.8867 16.1669 11.4431C16.0441 10.763 16.3195 9.97557 15.6087 9.45435C15.2514 8.92203 15.657 8.64848 15.9845 8.34535C16.9335 7.80934 16.9707 6.36765 18.2174 6.12737C20.1191 6.80385 19.5944 8.43777 19.6986 9.82401C20.0038 10.1308 20.5173 9.81292 20.7964 10.1863C21.1723 10.068 21.5445 9.9497 21.9166 9.82771Z" fill="#6E9B55"/>
<path d="M18.2174 6.13106C17.421 6.81864 17.2089 8.08659 15.9845 8.34905C15.9883 8.23076 15.992 8.11246 15.9994 7.99417C16.6581 6.39353 18.3775 5.55809 18.9803 3.91678C19.4232 3.80588 19.6204 3.15527 20.3387 3.40664C20.041 4.64132 18.6901 5.07382 18.2174 6.13106Z" fill="#7CA662"/>
<path d="M23.0219 8.74089C22.9177 8.7335 22.8172 8.7298 22.713 8.7298C22.8098 7.47664 22.9065 6.22348 23.0033 4.97032C23.7067 4.83724 24.2426 4.94075 24.2463 5.82055C24.0714 6.51552 23.6471 7.15134 23.7439 7.90915C23.528 8.20858 23.8034 8.92942 23.0219 8.74089Z" fill="#B7CE99"/>
<path d="M24.2426 5.82055C23.8295 5.5359 23.4164 5.25496 22.9996 4.97032C23.2266 3.59517 24.157 4.15336 24.9273 4.27905C24.8306 4.84833 24.6184 5.36956 24.2426 5.82055Z" fill="#9DBC81"/>
<path d="M20.8002 10.19C20.4392 10.0532 19.7693 10.8443 19.7023 9.82771C20.1936 9.617 20.2159 8.61151 20.8672 8.90355C21.4365 9.15862 20.6922 9.73529 20.8002 10.19Z" fill="#85AB6F"/>
<path d="M26.014 1.684C25.493 1.61746 24.8901 1.89102 24.4845 1.32543C25.7349 0.826383 25.7349 0.826383 26.014 1.684Z" fill="#93B677"/>
<path d="M21.1649 3.21072C21.3323 1.82817 22.1436 1.83187 22.9289 1.77642C22.4339 2.17935 21.9352 2.58598 21.1649 3.21072Z" fill="#83AA6B"/>
<path d="M28.6265 3.54711C28.2767 3.59886 27.8897 4.15336 27.5957 3.49906C27.5398 3.37707 27.6068 3.08503 27.7073 3.03328C28.2506 2.73755 28.4107 3.21072 28.6302 3.54342L28.6265 3.54711Z" fill="#67904F"/>
<path d="M30.7701 7.99417C30.811 8.47104 30.8892 8.94791 30.8892 9.42477C30.8929 11.798 30.8855 11.798 33.0067 10.8813C33.7436 11.6649 32.4001 11.8978 32.549 12.4819C33.137 13.4061 34.0562 11.5245 34.5809 12.7776C34.7893 13.3765 35.2136 13.9384 34.9531 14.6296C34.1306 15.8976 35.154 17.343 34.5698 18.6331C34.5251 19.1248 34.2274 19.402 33.7808 19.5573C32.095 19.195 32.5788 17.587 32.0391 16.5778C32.0094 16.3523 31.9461 16.3671 31.3916 16.7182C30.8073 16.8513 30.3421 16.6739 29.9811 16.2081C29.5532 15.2692 29.8025 14.2563 30.3012 13.5835C31.0343 12.5891 30.1747 12.6926 29.7616 12.4301C29.6983 12.2564 29.542 12.0568 29.5867 11.9163C30.0407 10.5227 29.2443 11.055 28.6377 11.2953C28.0794 9.79444 28.8312 8.93312 30.1151 8.34166C30.331 8.23076 30.5505 8.11246 30.7701 7.99417Z" fill="#67904F"/>
<path d="M34.9531 14.6333C34.741 14.0345 34.1269 13.5133 34.5809 12.7813C35.4667 12.2823 36.3449 11.7721 37.2418 11.2879C37.774 10.9995 38.3545 10.6853 38.9091 11.1992C39.1584 11.4321 39.404 11.7611 39.2998 12.1603C39.1026 12.8959 38.3136 12.4043 37.9377 12.785C37.3758 12.6482 37.0297 13.3617 36.4491 13.1547C36.304 13.0364 36.1179 13.1066 35.9579 13.0512C35.9579 13.0512 35.9914 13.1362 36.0435 13.1288C36.1551 13.1066 36.2631 13.0771 36.3896 13.114C36.6315 13.3062 36.9999 13.2471 37.1897 13.5207C36.4417 13.8903 35.6974 14.2637 34.9531 14.6333Z" fill="#7CA661"/>
<path d="M33.7957 19.4057C34.0525 19.1506 34.313 18.8956 34.5698 18.6405C35.1131 18.3448 35.262 17.4945 36.077 17.587C35.6527 19.2209 34.179 20.1931 33.4905 21.6607C33.7027 22.2891 32.9546 22.3963 32.8355 22.8473C32.5676 23.2946 32.2513 23.6605 31.6521 23.5718C31.4288 23.1245 31.1385 23.4314 30.8669 23.4979C30.6585 23.2872 30.6324 23.0432 30.7217 22.777C31.9126 21.8011 32.7611 20.5221 33.7957 19.4057Z" fill="#A3C05D"/>
<path d="M40.5428 15.0067C40.0664 15.3912 40.5167 13.4541 39.6608 14.6666C39.4598 14.9513 39.1547 14.5557 39.1882 14.382C39.3668 13.443 39.7241 12.6409 40.941 12.8331C41.2238 13.2027 41.209 13.565 40.9038 13.9162C41.0303 14.0308 41.1531 14.1491 41.2797 14.2637C41.3839 14.8514 41.1457 15.1065 40.5428 15.0067Z" fill="#67914F"/>
<path d="M43.1479 14.6333C43.7507 15.1509 43.4456 15.8274 43.4716 16.4447C42.6789 16.6 42.437 17.3467 41.9607 17.842C41.529 17.6017 41.7002 17.1914 41.6518 16.8513C41.7821 16.7219 41.916 16.5963 42.0463 16.4669C42.4705 15.8865 42.5561 15.1102 43.1479 14.6333Z" fill="#689651"/>
<path d="M43.1479 14.6333C43.0027 15.3764 42.7869 16.075 42.0463 16.4632C42.6268 15.3024 41.849 13.7425 43.1404 12.7887C43.1404 13.4024 43.1441 14.0197 43.1479 14.6333Z" fill="#87B06E"/>
<path d="M36.8138 17.5722C36.5645 17.5796 36.3189 17.587 36.0695 17.5944C36.1142 16.685 36.9739 16.1859 37.212 15.3727C37.3051 14.9291 37.5693 14.6555 38.0271 14.6001C38.3471 14.5594 38.4067 14.7405 38.3285 15.0104C37.6512 15.7645 37.1525 16.6184 36.8138 17.5722Z" fill="#A3C05D"/>
<path d="M38.3285 15.0067C37.7591 14.5298 37.6214 15.3616 37.212 15.3727C36.8548 15.2987 36.3635 15.2322 36.6761 14.7332C37.0818 14.0825 37.9638 14.2969 38.5369 13.8977C38.8049 14.3265 38.682 14.6888 38.3285 15.0067Z" fill="#7CA661"/>
<path d="M36.4305 13.1436C36.959 13.1288 37.2232 12.0309 37.9377 12.785C37.6884 13.029 37.4391 13.2767 37.1897 13.5207C36.8771 13.5133 36.598 13.443 36.4305 13.1436Z" fill="#94BB78"/>
<path d="M40.5428 15.0067C40.7884 14.759 41.0303 14.5114 41.2759 14.26C41.9049 14.8256 41.4136 15.2876 41.0154 15.5427C40.6917 15.7497 40.5912 15.2987 40.5428 15.0067Z" fill="#7CA463"/>
<path d="M40.9001 13.9125C40.9112 13.5502 40.9261 13.188 40.9373 12.8294C41.2499 12.8479 41.5662 12.8885 41.5997 13.2804C41.6406 13.7683 41.2759 13.857 40.9001 13.9125Z" fill="#93B97C"/>
<path d="M37.5619 9.84989C38.0382 10.0162 38.6299 9.64657 39.0281 10.1641C38.5667 9.93491 37.9526 10.4155 37.5619 9.84989Z" fill="white"/>
<path d="M41.2573 16.8587C41.2834 17.3947 41.3243 17.9455 40.5354 17.9566C40.5093 17.4169 40.7773 17.0731 41.2573 16.8587Z" fill="#8DB779"/>
<path d="M32.6569 22.7549C32.6644 22.1856 33.1742 21.9971 33.4943 21.6607C35.2061 21.9231 36.0881 20.1672 37.9489 19.8715C36.3375 21.2836 34.8824 22.2928 33.0961 22.7807C32.9435 22.8953 32.7946 22.8806 32.6569 22.7549Z" fill="#537F3F"/>
<path d="M32.6569 22.7549C32.802 22.7623 32.9509 22.7733 33.0961 22.7807C33.0923 22.8953 33.0886 23.0062 33.0886 23.1208C33.0551 23.7197 32.4894 24.0635 32.3555 24.618C31.9796 25.1059 31.6074 25.5976 31.2316 26.0855C30.8669 26.0929 30.5022 26.1003 30.1412 26.104C30.6473 25.2575 31.1497 24.411 31.6558 23.5681C31.9908 23.2983 32.322 23.0284 32.6569 22.7549Z" fill="#6A9545"/>
<path d="M32.3555 24.618C31.6074 23.6384 32.7313 23.5644 33.0886 23.1245C33.4608 23.3722 33.8329 23.6199 34.2051 23.8676C33.5873 24.1152 32.9732 24.3666 32.3555 24.618Z" fill="#73A158"/>
<path d="M40.7624 19.8049C40.8554 21.1764 40.4609 21.9268 39.1733 22.3815C39.739 21.461 40.1818 20.7402 40.7624 19.8049Z" fill="#6F9D5C"/>
<path d="M39.6534 19.8937C39.6236 20.7661 39.0542 21.0655 38.3024 21.7013C38.5853 20.7365 38.6523 20.0822 39.6534 19.8937Z" fill="#74A25F"/>
<path d="M26.0252 13.8644C26.0326 14.1713 26.081 14.4596 26.3638 14.6555C26.7509 14.6186 27.1342 14.637 27.5212 14.6333C28.7791 14.5077 27.8673 13.1843 28.593 12.737C29.1103 12.4523 28.9168 14.2933 29.7392 13.1436C30.357 13.7905 29.9923 14.4633 29.8769 15.1804C29.6946 16.3079 29.0284 17.3504 29.2741 18.5481C29.3857 19.3133 29.0433 19.9565 28.7195 20.6071C28.4702 21.047 28.2581 21.5202 27.7706 21.7679C26.7397 22.2004 26.8104 23.6605 25.6716 23.9932C25.0911 23.8232 24.5477 23.5829 24.0714 23.2022C23.5913 21.4463 25.0129 20.4519 25.7349 19.1876C25.9917 18.7366 26.576 18.4926 26.669 17.7977C26.5462 18.3596 26.2671 18.6775 25.8354 18.8697C24.6259 19.073 24.1719 18.781 24.5291 17.4206C24.7859 16.441 25.8465 15.6906 25.3888 14.515C25.4409 14.1454 25.519 13.7979 26.0252 13.8644Z" fill="#5D8B48"/>
<path d="M20.0894 20.2153C19.8363 20.5517 19.6465 20.9583 18.8761 21.0803C19.5758 19.1026 20.2308 17.2543 20.8858 15.4096C21.5296 16.0344 22.2441 16.0676 22.7875 15.3801C23.2303 14.8219 24.5105 14.6001 23.7029 13.4098C23.275 12.7813 23.9151 12.578 24.3133 12.3414C25.1134 11.8683 25.9284 11.4136 26.736 10.9515C27.2644 11.6982 26.6802 12.1973 26.2782 12.6704C25.7572 13.2841 25.3665 13.931 25.199 14.7147C23.8667 15.8976 22.8023 17.2986 21.8943 18.8179C21.4663 19.5314 20.8634 19.9713 20.0894 20.2153Z" fill="#5E8B47"/>
<path d="M29.0061 18.6996C28.3176 18.1045 28.7679 17.4835 28.9503 16.8587C29.3075 15.6388 29.9328 14.4744 29.7355 13.1399C29.743 12.9033 29.7541 12.6667 29.7616 12.4338C30.4054 12.3747 31.0455 12.3155 31.9312 12.2342C30.3607 13.2249 30.3682 14.7184 30.1263 16.112C30.3272 17.221 30.0481 18.123 29.0061 18.6996Z" fill="#4B7A38"/>
<path d="M21.5221 14.2415C21.898 13.2545 22.2776 12.2712 22.6535 11.2842C23.2713 10.7814 23.6806 10.0125 24.544 9.82771C24.7896 9.58003 25.0352 9.33605 25.2809 9.08838C25.3702 9.23255 25.5711 9.46544 25.5339 9.5061C24.2091 11.0957 22.8619 12.6667 21.5221 14.2415Z" fill="#5D8D41"/>
<path d="M30.1151 8.34905C29.4452 9.24734 28.5074 10.0125 28.6377 11.3027C28.1353 10.6964 28.1613 10.7001 28.2023 10.1789C28.2841 9.21776 28.8759 8.34535 28.6712 7.27333C29.1252 7.7391 29.1959 8.63369 30.1151 8.34905Z" fill="#7BA562"/>
<path d="M24.9013 14.6407C24.9683 13.1436 26.6988 12.4634 26.736 10.9515C27.7408 10.4192 27.4654 11.0809 27.3538 11.5984C27.1565 12.4967 26.0698 12.8811 26.0252 13.8644C25.7349 14.0382 25.6679 14.3191 25.6456 14.6259C25.4 14.8588 25.1543 14.8588 24.9013 14.6407Z" fill="#80A869"/>
<path d="M27.1565 7.97569C27.1565 7.49513 27.1565 7.01456 27.1565 6.39353C28.0348 6.93693 27.8859 7.66148 27.871 8.34166C27.6329 8.21967 27.3947 8.09768 27.1565 7.97569Z" fill="#8CB072"/>
<path d="M27.5175 14.6333C27.1416 15.1065 26.7546 15.1065 26.3601 14.6555C26.7285 13.5613 27.1267 14.3154 27.5175 14.6333Z" fill="#7EA763"/>
<path d="M3.28672 13.8607C3.9231 14.1121 3.93054 15.8976 5.19214 14.6296C5.41543 14.8145 5.50475 15.0585 5.5308 15.3357C5.56057 15.9974 5.16609 16.478 4.81626 16.977C4.52599 17.3799 4.48133 17.8864 4.27292 18.3226C4.14639 18.5333 3.97148 18.6923 3.75563 18.8032C3.06343 19.2283 3.49513 19.7939 3.66632 20.2264C4.26548 21.7161 4.09057 23.0506 3.04855 24.2742C2.8848 24.374 2.7285 24.3629 2.57964 24.2409C2.0884 23.7049 1.88743 23.1134 2.21865 22.4185C2.21865 22.0451 1.95814 21.6681 2.22981 21.2947C2.94806 19.9158 2.70245 18.4039 2.47915 17.0325C2.28564 15.8458 2.51637 14.9069 2.95923 13.9088C3.04855 13.7794 3.16019 13.7572 3.28672 13.8607Z" fill="#608C4B"/>
<path d="M2.57964 24.2409C2.70617 24.2372 2.8327 24.2298 2.96295 24.2261C4.55948 25.1947 5.11771 27.2167 4.08313 28.274C3.95287 28.0411 3.8189 27.8082 3.68865 27.5716C3.06715 26.5439 2.86619 25.3795 2.57964 24.2409Z" fill="#4E7B3C"/>
<path d="M2.22981 21.291C2.33029 21.6681 2.77315 22.0451 2.21865 22.4148C1.35526 21.6089 1.31804 20.7328 1.96559 19.683C2.39728 20.2485 2.12561 20.7993 2.22981 21.291Z" fill="#78A461"/>
<path d="M0.324398 23.9045C0.324398 23.18 0.324398 22.4554 0.324398 21.7309C0.651891 22.4702 1.02032 23.2206 0.324398 23.9045Z" fill="#54833D"/>
<path d="M3.28672 13.8607C3.17508 13.8755 3.06343 13.8903 2.95179 13.9051C2.83642 13.7794 2.71733 13.65 2.60196 13.5243C2.92574 13.3913 3.0225 12.7481 3.40209 12.9477C3.85611 13.1917 3.3872 13.5539 3.28672 13.8607Z" fill="#93B679"/>
<path d="M15.9436 44.5503C16.1855 44.066 16.7251 43.7481 16.74 43.1382C18.0723 42.3175 18.8054 40.9756 19.7098 39.7853C20.0819 39.8851 20.5062 39.8297 20.8113 40.1402C20.4838 41.0939 19.453 41.6484 19.3227 42.713C18.6491 43.6113 17.689 44.1104 16.7028 44.5725C16.4534 44.5651 16.2004 44.5577 15.9436 44.5503Z" fill="#6D9A4D"/>
<path d="M20.8151 40.1402C20.4652 39.9664 19.8028 40.7538 19.7135 39.7853C19.84 39.6596 19.9628 39.5339 20.0894 39.4082C21.3547 38.6948 22.6758 38.1957 24.1644 38.2808C24.6333 38.3399 25.2511 38.1773 25.1916 38.9905C23.9672 40.2511 22.1362 39.2419 20.8151 40.1402Z" fill="#568341"/>
<path d="M16.7065 44.5761C17.5625 43.9329 18.0872 42.8239 19.3264 42.7167C19.3823 44.2767 17.9941 44.1436 17.101 44.5946C16.9707 44.7499 16.8405 44.7536 16.7177 44.5872L16.7065 44.5761Z" fill="#84B16A"/>
<path d="M16.7177 44.5835C16.8442 44.5872 16.9745 44.5872 17.101 44.5909C17.2238 44.9495 17.3466 45.3118 17.4657 45.6704C16.8479 45.5632 16.2301 46.0844 15.6087 45.6777C15.5863 44.9199 16.8107 45.4116 16.7177 44.5835Z" fill="#6D9A4D"/>
<path d="M5.94016 40.1106C5.65361 37.364 6.57654 34.7209 6.65841 32.0076C7.16826 31.7599 7.54786 31.9965 7.89768 32.3366C7.77115 33.4788 8.74246 34.4363 8.45963 35.6081C8.31449 36.085 8.17679 36.5692 7.7451 36.8871C7.4176 36.9241 7.03057 36.9093 7.2613 37.4416C7.3655 37.7152 7.18687 38.0294 7.39155 38.2845C7.02312 38.887 6.65469 39.4896 6.28626 40.0921C6.18578 40.2326 6.06669 40.2326 5.94016 40.1106Z" fill="#69984F"/>
<path d="M7.39527 38.2771C7.105 38.1144 7.05662 37.8372 7.04545 37.5451C6.83333 37.1311 7.09383 36.95 7.42133 36.8095C7.66694 36.4398 7.90884 36.0702 8.15446 35.7005C8.42613 35.4713 8.72013 35.4639 9.02902 35.6081C10.1976 36.7171 9.69517 38.1107 9.68028 39.4193C9.4235 40.0293 9.16672 40.6355 8.90993 41.2455C8.66059 41.2824 8.40753 41.6558 8.16191 41.2381C8.86899 39.8925 8.53778 38.4989 8.4894 37.0609C7.68927 37.2235 7.74882 37.9148 7.39527 38.2771Z" fill="#57853D"/>
<path d="M5.94016 40.1106C6.05925 40.1069 6.17462 40.0995 6.28998 40.0847C6.78495 41.4747 6.23044 42.5319 5.21075 43.445C5.13631 42.2621 5.52707 41.1826 5.94016 40.1106Z" fill="#C6DA89"/>
<path d="M9.29697 9.82031C10.5251 9.45435 10.0041 8.60042 9.79193 7.89806C9.54259 7.07371 9.66168 6.33438 10.0971 5.62832C10.5213 4.94444 10.8526 5.2143 11.1354 5.7577C10.8451 6.13476 11.221 6.51182 11.1391 6.88518C10.9568 7.58015 10.6144 8.27881 10.633 8.96639C10.6553 9.89794 11.1354 9.41368 11.4741 9.07729C11.9504 9.24733 12.0918 8.37862 12.6203 8.71132C12.8473 9.09947 13.4316 9.25103 13.372 9.82771C13.5767 10.8923 12.7059 11.4394 12.2258 12.1714C11.4629 13.3395 10.5511 14.4115 9.88869 15.6499C8.55639 16.8587 8.54894 15.5094 8.20656 14.7923C8.45218 13.1103 8.52289 11.3914 9.29697 9.82031Z" fill="#6A9851"/>
<path d="M9.29697 9.82031C9.05507 11.5614 8.81689 13.3026 8.575 15.0437C8.66059 15.21 8.66431 15.3838 8.60105 15.5575C8.51173 16.2007 8.6978 16.8365 8.64198 17.4798C8.64198 20.0489 7.97955 22.5368 7.7637 25.0801C7.49203 25.8563 7.64462 26.6696 7.54786 27.457C7.47343 28.0706 7.67067 28.8876 6.69191 29.0429L6.63236 29.0392C5.91783 28.1778 6.35325 27.0652 5.97738 26.1299C5.71315 25.1355 5.90667 24.167 6.12252 23.1948C6.17834 21.5017 6.4835 19.8493 6.92636 18.2154C7.00824 17.8383 7.10127 17.4687 7.4511 17.2358C7.80464 14.8847 8.15819 12.53 8.51173 10.1789C8.61593 9.7316 8.70897 9.25103 9.29697 9.82031Z" fill="#9DBB5C"/>
<path d="M15.6087 9.45804C16.9298 9.64657 16.8442 10.3933 16.3492 11.3027C15.791 12.042 15.4263 12.8627 15.2737 13.7757C14.6411 15.454 14.3098 17.2506 13.212 18.7366C12.4751 19.3613 11.7829 20.023 11.2024 20.8104C10.8153 21.3354 10.339 21.9786 9.59097 21.7642C8.81689 21.5424 9.24487 20.7291 9.07368 20.1931C9.13694 19.4316 9.44211 18.8327 10.1827 18.5148C11.2061 18.2819 11.8871 17.794 12.1551 16.6591C12.4305 15.4873 13.3497 14.552 13.6846 13.3691C13.7367 13.2027 13.8 13.0438 13.8633 12.8811C14.2429 12.0013 14.1573 10.9515 14.8681 10.1937C15.3482 10.1826 15.5938 9.93491 15.6087 9.45804Z" fill="#5D8C4A"/>
<path d="M9.6654 15.3764C10.5586 13.3026 12.2519 11.75 13.3757 9.82771C13.7814 9.82401 14.2094 9.75377 14.4736 10.1826C14.3471 10.9367 13.6325 11.3064 13.3125 11.9385C12.8808 12.615 12.2519 13.1251 11.7606 13.7535C11.1577 14.3931 11.1205 15.454 10.1901 15.8495C9.89241 15.8237 9.77332 15.6056 9.6654 15.3764Z" fill="#4B7D3A"/>
<path d="M13.0296 11.6908C13.3609 11.0476 13.867 10.567 14.4699 10.1826C14.6001 10.1863 14.7341 10.19 14.8644 10.1974C14.8718 11.2472 14.6448 12.2416 14.12 13.1584C13.5544 12.8183 13.2567 12.2823 13.0296 11.6908Z" fill="#6E9B55"/>
<path d="M10.9233 4.30492C10.5362 4.46018 10.3129 4.56369 10.0785 4.64132C9.50909 4.82985 9.51282 6.02386 8.56011 5.50633C8.45963 5.45088 8.37403 5.11449 8.42986 5.06274C9.01413 4.53042 9.34907 3.44361 10.9233 4.30492Z" fill="#6F9B58"/>
<path d="M12.624 8.71132C12.1737 8.61891 12.1439 9.8351 11.4778 9.07729C12.1737 7.92763 12.1737 7.92763 12.624 8.71132Z" fill="#7FA96A"/>
<path d="M11.1428 6.88518C10.6553 6.51182 10.6442 6.13476 11.1391 5.7577C11.2768 6.13476 11.7085 6.50812 11.1428 6.88518Z" fill="#7DA769"/>
<path d="M24.544 9.82771C24.0602 10.5005 23.6248 11.2361 22.6535 11.2842C22.7763 10.4377 22.9028 9.58743 23.0256 8.74089C23.2675 8.46365 23.5057 8.19009 23.7476 7.91285C24.0081 8.54867 24.2761 9.18819 24.544 9.82771Z" fill="#6C9954"/>
<path d="M27.1751 5.29932C27.0077 5.42131 26.8848 5.51373 26.7583 5.60614C26.6764 5.48415 26.509 5.33629 26.5387 5.24387C26.576 5.11079 26.7546 5.01838 26.8737 4.90748C26.963 5.02207 27.0523 5.13667 27.1751 5.29932Z" fill="#8FAE76"/>
<path d="M5.19214 15.369C5.19214 15.1213 5.19214 14.8773 5.19214 14.6296C5.2033 14.5187 5.20702 14.4042 5.20702 14.2933C5.635 14.0271 5.929 14.0419 5.95505 14.637C6.69563 15.9198 6.8817 17.3393 6.97102 18.7847C6.78495 19.3133 6.98963 20.2079 5.91039 19.8974C5.0135 18.4926 5.3075 16.8957 5.19214 15.369Z" fill="#96BA70"/>
<path d="M6.68074 6.13846C6.79611 6.0978 6.98219 5.99429 7.0194 6.03126C7.71905 6.7484 7.47715 9.81662 6.67702 10.5633C7.399 9.08838 5.87318 7.61342 6.68074 6.13846Z" fill="#81AA68"/>
<path d="M4.89442 9.23255C5.09166 9.98297 4.78277 10.4783 4.02358 10.9515C3.91194 10.068 4.36968 9.63918 4.89442 9.23255Z" fill="#B2CF9E"/>
<path d="M4.09801 38.6985C3.9566 38.0072 4.31758 36.9278 2.83642 37.2938C2.64662 37.3418 2.17771 36.2587 1.83905 35.7005C1.60832 35.4491 1.63065 35.2052 1.86138 34.9649C2.37123 34.5841 2.17771 33.6895 2.94434 33.4936C3.88589 33.135 4.41062 34.0259 5.16609 34.2219C5.26285 35.8188 4.68973 37.2605 4.09801 38.6985Z" fill="#6D9C4E"/>
<path d="M6.69191 29.0466C7.53669 27.7897 6.5356 26.2149 7.39527 24.9618C7.94234 25.3647 8.14702 25.9931 8.45218 26.5587C8.51545 27.7786 9.41234 28.8321 9.18532 30.1149C8.68292 30.8431 9.01041 32.0778 7.7972 32.3735C7.4176 32.2515 7.03801 32.1296 6.65841 32.0076C6.6733 31.0169 6.68074 30.0336 6.69191 29.0466Z" fill="#6B924A"/>
<path d="M5.16237 34.2182C4.98745 34.3845 4.80882 34.5472 4.63391 34.7135C4.32875 33.9557 3.30161 34.1738 2.94062 33.4899C2.35262 32.6212 3.16019 31.7636 2.95923 30.9023C4.18361 31.527 3.96404 33.2275 5.18842 33.8522C5.19958 33.9742 5.19214 34.0962 5.16237 34.2182Z" fill="#5A8747"/>
<path d="M5.48614 32.7099C4.70834 32.6138 4.58181 31.9854 4.48133 31.4013C4.42551 31.0908 4.26176 30.6139 4.69345 30.4624C5.05072 30.3367 5.37077 30.6139 5.59406 30.9244C5.56057 31.5159 5.52335 32.1148 5.48614 32.7099Z" fill="#5C8A49"/>
<path d="M6.30115 26.0818C7.03429 26.9986 6.54677 28.0522 6.63236 29.0429C6.40535 29.1611 6.17834 29.2831 5.95505 29.4014C5.93644 29.1611 5.91411 28.9246 5.89178 28.6843C5.78758 28.5623 5.74292 28.4218 5.75409 28.2629C5.87317 27.7416 5.89923 27.2056 5.95133 26.6733C5.9811 26.5181 6.04064 26.3739 6.1188 26.2371C6.18206 26.1854 6.24161 26.1336 6.30115 26.0818Z" fill="#B9D060"/>
<path d="M5.91039 30.8579C5.92528 30.5067 5.94388 30.1592 5.95877 29.8081C6.60259 30.6176 6.20439 31.5048 6.2751 32.5325C5.73548 31.9188 6.02948 31.357 5.91039 30.8579Z" fill="#B9D060"/>
<path d="M6.68074 18.696C6.12624 17.3984 6.13368 16.0011 5.95505 14.637C6.21555 14.5964 6.50583 13.9975 6.58026 14.3191C6.80355 15.3209 7.86419 16.075 7.45482 17.2432C7.43249 17.6054 7.40644 17.9677 7.38411 18.3263C7.2092 18.5592 7.10127 18.9214 6.68074 18.696Z" fill="#5E8A49"/>
<path d="M24.1644 38.2771C22.8954 38.9757 21.5407 39.3639 20.0894 39.4045C20.6104 38.2586 21.3696 37.2864 22.3111 36.4509C22.6833 36.4953 23.0591 36.1478 23.4313 36.4583C24.2537 36.8354 23.8741 37.6893 24.1644 38.2771Z" fill="#6C9750"/>
<path d="M28.2655 34.2219C28.8647 34.122 29.4601 34.0185 30.2082 33.8929C30.2603 34.5952 29.1922 34.6618 29.3745 35.3271C28.4293 35.7079 27.484 36.085 26.3117 36.5581C26.5164 36.0184 26.6429 35.6783 26.7695 35.3419C26.6988 34.2182 27.9194 34.7985 28.2655 34.2219Z" fill="#699755"/>
<path d="M28.2655 34.2219C28.2692 35.2569 27.0746 34.7135 26.7695 35.3419C25.6567 35.7153 24.544 36.0887 23.4313 36.4583C23.0591 36.5212 22.6833 37.0128 22.3148 36.4509C22.4265 36.3178 22.5418 36.1848 22.6535 36.0517C24.2277 34.9649 25.8614 34.0407 27.8822 34.2034C28.0087 34.2108 28.1353 34.2145 28.2655 34.2219Z" fill="#578640"/>
<path d="M6.68074 18.696C6.9152 18.574 7.14965 18.452 7.38411 18.3263C6.94125 19.8974 6.61748 21.4906 6.64353 23.1319C6.40163 23.6384 5.96249 23.8269 5.43776 23.8713C4.71206 24.1337 5.02839 24.6217 5.19214 25.0505C5.44892 25.7233 5.91411 26.3036 6.10391 27.0097C6.07786 27.4422 6.21555 27.8932 5.96249 28.2998C5.94016 28.4255 5.91783 28.5512 5.89178 28.6769C4.89442 30.248 4.60414 28.7582 4.07941 28.2666C4.63391 26.6622 3.66632 25.4756 2.95923 24.2187C3.88589 22.57 3.51373 20.9324 2.989 19.2652C2.92946 19.0767 2.44194 17.635 3.69237 18.6923C4.29897 19.5351 4.20966 20.633 4.68973 21.5239C4.83115 21.7346 4.9949 21.3501 4.81254 21.5165C4.74556 21.5756 4.68229 21.5535 4.6488 21.4352C4.38457 20.4112 3.80029 19.4501 4.05708 18.33C4.12034 17.8162 3.89705 17.2321 4.42923 16.8365C5.79502 17.3836 5.60895 18.7218 5.95877 19.7865C6.7254 19.7643 6.66958 19.2061 6.68074 18.696Z" fill="#67964E"/>
<path d="M1.85766 34.9612C1.85022 35.2052 1.84278 35.4528 1.83533 35.6968C1.72741 35.6931 1.62693 35.6709 1.53017 35.6229C1.53761 34.5841 1.54505 33.5417 1.55622 32.5029C2.15166 33.2644 1.69019 34.1516 1.85766 34.9612Z" fill="#52853A"/>
<path d="M27.1751 25.0209C27.0709 26.1151 26.963 27.2093 26.8588 28.3072C26.2261 29.9485 24.9013 31.0686 23.7885 32.3513C23.2452 31.3754 23.8779 30.4919 24.0267 29.5752C24.1495 28.8063 24.4659 28.0632 24.3133 27.2611C24.5924 25.2575 26.3043 24.0783 27.1751 22.4111C27.2979 22.1782 27.5957 22.3815 27.752 22.5885C28.1167 23.5275 28.0608 24.374 27.1751 25.0209Z" fill="#699553"/>
<path d="M27.8785 34.2034C26.1368 34.8207 24.3952 35.4343 22.6498 36.0517C23.528 34.6987 23.9746 32.9206 26.014 32.7321C27.2905 32.9613 28.4442 31.8264 29.7541 32.3957C29.7132 33.5971 28.3958 33.4899 27.8785 34.2034Z" fill="#6E9B50"/>
<path d="M24.5328 27.1982C25.3888 28.3553 24.3617 29.3497 24.2351 30.418C24.157 31.0686 23.9411 31.7044 23.7885 32.3477C22.9661 33.9483 21.645 35.1423 20.4392 36.4324C19.4567 36.5027 19.4493 36.4953 19.546 35.1423C19.6353 34.9131 19.7507 34.6876 19.9554 34.5546C21.6189 33.4936 22.5381 32.0334 22.4488 30.0225C22.62 29.7822 22.821 29.6306 23.1298 29.7896C23.3531 30.2775 23.0815 30.832 23.2899 31.2461C23.2005 30.2443 23.1261 29.1685 23.3866 28.0965C23.4871 27.7158 23.662 27.3868 23.9969 27.1539C24.183 27.0578 24.3617 27.0725 24.5328 27.1982Z" fill="#5E874A"/>
<path d="M11.8536 40.4618C11.2582 39.8481 12.1365 39.2678 11.8983 38.6652C12.1328 38.2808 12.3672 37.9 12.598 37.5156C13.7628 37.534 14.7453 37.0868 15.5826 36.3105C16.0925 35.8373 16.5614 35.3198 17.3392 35.8151C17.4843 35.926 17.5699 36.0702 17.6071 36.2439C17.5885 36.5655 17.3131 36.6358 17.0935 36.7651C16.4646 37.2494 15.8319 37.7374 15.203 38.2216C13.7814 38.521 12.9887 39.7446 11.8536 40.4618Z" fill="#638D44"/>
<path d="M17.0935 36.7651C17.2387 36.6358 17.3875 36.5064 17.5327 36.3807C18.236 35.9962 18.7161 35.146 19.6986 35.3308C20.0782 35.6118 19.4753 36.5396 20.4355 36.4361C20.0559 37.0461 19.6204 37.6006 18.9022 37.852C18.5449 37.7595 18.1132 37.9333 17.8341 37.5562C17.8192 37.0794 17.6108 36.7799 17.0935 36.7651Z" fill="#689252"/>
<path d="M15.5752 41.5967C15.4524 41.6965 15.3258 41.7963 15.203 41.8924C15.0653 40.1513 16.5614 39.2308 17.2089 37.6523C17.8825 39.667 15.7947 40.2178 15.5752 41.5967Z" fill="#D8E399"/>
<path d="M17.8378 37.5562C18.2249 37.5488 18.6305 37.4749 18.9059 37.852C18.5114 38.0811 18.5784 38.8722 17.9569 38.7096C17.8267 38.6726 17.8751 37.9592 17.8378 37.5562Z" fill="#4D7B41"/>
<path d="M9.25603 20.1561C9.88125 20.4593 9.45327 21.0988 9.57236 21.5904C11.1875 21.0322 11.2582 18.8993 12.9962 18.696C13.3832 18.6775 13.6995 18.8032 13.9042 19.1506C13.9972 20.4075 13.0222 21.1986 12.5533 22.2115C12.2444 22.7438 11.7978 23.1726 11.448 23.7308C12.4342 23.2317 13.052 23.7382 13.5321 24.4664C13.7256 24.7584 13.4092 25.5495 14.2466 25.0542C14.321 25.398 14.295 25.7381 14.2875 26.0005C14.5406 25.6124 13.9228 24.8509 14.7229 24.5366C15.0728 25.3721 15.5863 24.0043 15.9548 24.6254C16.1297 25.8231 15.43 26.8212 15.1881 27.9228C14.0121 29.5123 13.9303 31.6268 12.6463 33.1646C12.3188 32.928 12.237 32.5768 12.1849 32.2146C12.129 31.2165 12.129 30.2073 11.7494 29.2647C10.9047 29.6824 10.6851 29.0761 10.7298 28.5142C10.7744 27.9893 10.5846 27.7268 10.2199 27.4718C9.94079 27.0725 10.2348 26.4848 9.76588 26.1373C9.12206 26.2593 9.37884 27.1797 8.72758 27.2833C8.24378 27.1243 8.40008 26.6622 8.27355 26.3332C7.70788 24.4701 7.55158 22.6218 8.4894 20.8178C8.66803 20.4851 8.77968 20.1229 9.25603 20.1561Z" fill="#689751"/>
<path d="M17.4843 24.9802C17.5848 22.7475 19.5907 21.9342 20.8337 20.5517C21.016 20.0711 21.3026 19.7014 21.8534 19.6201C22.4265 19.6386 22.914 19.2283 23.4983 19.2985C24.0007 19.4501 24.4398 19.683 24.6482 20.2042C24.1793 21.3206 23.5764 22.3926 23.5913 23.6568C23.301 24.3259 23.0294 25.0135 23.0591 25.7491C23.1187 27.1761 22.4711 27.8858 21.0272 27.8599C20.6736 28.0632 20.3908 28.3775 20.0112 28.5438C19.7656 28.6362 19.5162 28.6658 19.2557 28.6436C18.7384 28.1778 18.37 27.9745 17.6778 28.6214C16.8293 29.4162 16.4199 30.4291 15.8022 31.3348C15.5379 31.5898 15.27 31.8227 14.8644 31.6268C15.2365 30.6435 15.6087 29.6602 15.9808 28.6769C16.3455 27.6825 16.7102 26.6881 17.0712 25.6937C17.4582 25.9044 17.4285 26.3332 17.5885 26.6511C17.5848 26.7768 17.7299 26.8951 17.7634 26.8434C17.8862 26.6548 17.7039 26.4589 17.7113 26.2519C18.7012 24.2853 20.6848 23.2576 21.9203 21.827C21.1239 22.6218 20.0559 23.4498 19.1143 24.411C18.6826 24.8472 18.1839 25.239 17.4843 24.9802Z" fill="#608E4A"/>
<path d="M17.4731 36.0739C15.9585 35.7523 15.3965 37.2864 14.2652 37.7706C13.4613 38.1144 13.0855 38.1033 12.598 37.5156C12.7096 36.1293 13.6325 35.0462 14.0158 33.7561C14.2503 32.9724 14.9946 33.1683 15.5714 33.0648C17.4434 32.6582 18.1058 33.9631 18.7533 35.2865C18.504 35.8373 18.0462 36.0517 17.4731 36.0739Z" fill="#6D9A50"/>
<path d="M18.5784 35.2976C17.6629 34.4363 17.0042 33.2385 15.5714 33.0648C15.8208 32.7136 16.0738 32.3661 16.3232 32.015C16.446 31.7932 16.6321 31.5492 16.8628 31.5566C18.4854 31.5972 19.7023 30.9207 20.6625 29.6491C20.8783 29.3645 21.3398 29.4347 21.7082 29.5604C21.9687 29.6898 22.1362 29.8931 22.233 30.1592C22.3037 30.6065 22.3372 31.0538 22.1697 31.4937C21.1835 32.4733 19.8102 33.1461 19.5683 34.7246C19.319 35.0536 19.1664 35.5489 18.5784 35.2976Z" fill="#679351"/>
<path d="M21.5631 29.7859C21.2319 29.8968 20.6066 29.5271 20.7109 30.3367C20.7853 30.9207 20.3052 31.4715 19.9442 31.3791C19.0771 31.1573 18.7533 31.1795 18.891 32.1887C18.9208 32.4068 18.2956 32.7839 18.0537 32.3033C17.5699 31.3496 16.9112 32.0187 16.3269 32.015L16.1483 32.0224L15.9696 32.015C15.7389 31.1056 16.5651 30.9318 17.0414 30.5511C18.0351 29.7637 19.2409 29.2647 20.0931 28.285C20.2271 27.9413 20.4652 27.701 20.8151 27.5679C21.7008 28.0965 22.0171 28.8137 21.5631 29.7859Z" fill="#75A05D"/>
<path d="M12.6054 31.9669C12.6203 32.3624 12.6352 32.758 12.6501 33.1572C12.0881 35.4454 11.0498 37.5082 9.68028 39.4156C8.86155 38.2919 9.69145 36.8243 8.90249 35.6931C8.6978 35.4824 8.66803 35.2347 8.75363 34.9649C8.9397 34.7061 9.25603 34.3882 9.49793 34.5841C10.9456 35.767 11.0275 34.5767 11.2843 33.6267C11.4406 33.0426 11.3959 32.392 11.8536 31.9078C12.1179 31.7784 12.3709 31.7858 12.6054 31.9669Z" fill="#67944B"/>
<path d="M20.0931 28.2887C20.7481 29.1279 19.7507 29.1501 19.4567 29.4162C18.3812 30.3921 16.8926 30.8283 15.9696 32.0187C15.5677 32.1702 15.203 32.6286 14.7341 32.2441C14.6559 32.1813 14.8123 31.8412 14.8606 31.6268C15.1174 31.4937 15.3705 31.357 15.6273 31.2239C16.5651 29.882 17.916 29.0539 19.3339 28.3072C19.587 28.2998 19.84 28.2924 20.0931 28.2887Z" fill="#56823F"/>
<path d="M29.0061 18.6996C29.3783 17.8383 29.7541 16.9733 30.1263 16.112C30.584 16.356 31.0567 16.5371 31.5888 16.4706C32.1285 17.1951 31.6335 17.9381 31.6261 18.6701C31.533 19.1395 31.3655 19.5905 31.2986 20.0674C30.7999 21.4278 30.651 22.8916 30.0816 24.2335C29.4639 25.1614 28.8461 26.0855 28.1539 27.1206C27.6924 26.2962 27.9641 25.6309 27.871 24.9987C27.283 23.4535 28.0273 22.0303 28.2767 20.5591C28.5223 19.9417 28.7642 19.3207 29.0061 18.6996Z" fill="#709C56"/>
<path d="M28.2804 20.5628C28.7233 20.633 29.4006 20.2966 29.5457 20.8992C29.6983 21.5313 29.0582 21.3021 28.6935 21.4204C27.938 21.6681 27.8524 22.3963 27.9045 23.058C27.9566 23.7123 28.0794 24.3555 27.8748 25.0024C27.6403 25.0098 27.4059 25.0172 27.1714 25.0209C27.5957 24.1744 27.5398 23.2724 27.484 22.3704C27.2905 22.1153 27.2905 21.8862 27.5733 21.6939C27.8115 21.3132 28.046 20.9398 28.2804 20.5628Z" fill="#80AA64"/>
<path d="M30.0816 24.2335C29.9663 22.6846 30.398 21.2355 30.9115 19.8012C31.1236 19.7014 31.2911 19.7495 31.4176 19.9417C31.801 20.9805 31.4846 21.8899 30.878 22.7438C30.8743 22.9951 30.8706 23.2465 30.8669 23.4942C30.718 23.8565 30.4724 24.1189 30.0816 24.2335Z" fill="#9BBF77"/>
<path d="M24.5328 20.1746C24.1607 19.9306 23.7923 19.683 23.4201 19.439C23.3159 19.2061 23.2229 19.0582 22.9512 19.317C22.6758 19.5758 22.46 20.0194 21.9427 19.8123C21.5742 20.06 21.2021 20.304 20.8337 20.5517C20.6662 20.2633 20.3982 20.2005 20.0931 20.219C21.057 19.4427 21.6859 18.4002 22.3148 17.3763C22.9884 16.2747 23.7811 15.3098 24.905 14.6444C25.1543 14.6407 25.4 14.637 25.6493 14.6333C25.9656 14.9882 26.282 15.3431 26.7211 15.8311C24.6966 15.613 25.3627 17.4502 24.7264 18.3078C24.4398 18.6923 25.4818 18.245 25.6716 18.7144C25.6605 19.4833 25.4335 20.0896 24.5328 20.1746Z" fill="#6C9954"/>
<path d="M17.4955 20.9176C17.3875 22.2078 16.7698 23.265 15.9808 24.2483C15.1137 23.8934 15.2291 23.106 15.1509 22.4C15.0876 21.8307 15.3556 21.1579 14.6485 20.7809C14.4959 20.6921 14.3768 20.5738 14.2801 20.426C14.0717 19.9048 14.0791 19.4168 14.5108 18.9991C14.7341 18.8549 15.3481 18.9695 14.9239 18.3817C14.8495 18.1525 14.7974 17.927 14.7527 17.6942C14.5034 16.7441 14.682 15.9863 15.7054 15.6166C15.884 15.6056 16.0441 15.6536 16.1892 15.7608C16.9112 16.7367 15.6235 18.1488 16.9075 19.0028C17.3094 19.5795 17.5438 20.2079 17.4955 20.9176Z" fill="#65954B"/>
<path d="M18.9506 13.894C19.6391 13.8866 20.0038 13.4245 20.3759 12.9403C20.789 12.4043 20.7406 12.9292 20.8151 13.1547C20.4317 15.1472 19.2595 16.8181 18.571 18.6886C18.2026 19.2726 17.8602 19.2504 17.5401 18.6479C17.4061 18.2819 17.3764 17.8975 17.3615 17.513C17.3392 17.1249 17.3466 16.7367 17.3429 16.3449C17.3317 15.7497 17.3131 15.1546 17.328 14.5594C17.4061 13.6981 17.1308 12.7628 17.8378 12.0309C18.3886 11.9052 18.4221 12.2897 18.4668 12.6667C18.5226 13.114 18.2956 13.6722 18.9506 13.894Z" fill="#629149"/>
<path d="M17.4843 24.9802C19.4269 23.9304 20.8597 22.2854 22.8619 20.4482C21.6077 23.2576 19.1739 24.4221 17.8602 26.4811C17.9458 26.8138 17.8118 26.9284 17.488 26.8618C17.0191 26.592 17.1308 26.1151 17.0749 25.6974C17.101 25.3943 17.194 25.1318 17.4843 24.9802Z" fill="#538240"/>
<path d="M14.8532 20.5443C15.6384 20.219 15.5938 20.7328 15.6161 21.2503C15.657 22.2558 15.3891 23.3057 15.9808 24.2483C15.9734 24.3703 15.9659 24.496 15.9585 24.618C15.5938 24.2446 15.2105 25.6678 14.8569 24.6032C14.1126 23.2539 14.5629 21.8972 14.8532 20.5443Z" fill="#76A65A"/>
<path d="M17.8416 18.696C18.0872 19.0989 18.3291 18.7366 18.571 18.6886C18.597 19.6164 18.3254 20.4001 17.4955 20.9213C16.9447 20.426 16.8963 19.7199 16.7139 19.073C16.8442 18.2228 17.3317 18.4261 17.8416 18.696Z" fill="#77A658"/>
<path d="M18.1839 12.0161C17.5215 12.8146 17.9793 13.7609 17.8341 14.6259C17.5773 14.3968 17.2052 14.589 17.0266 15.0141C16.8368 15.4688 16.6097 15.9013 15.9771 15.7349C15.7612 15.5279 15.631 15.2766 15.5863 14.9845C15.5789 13.7498 16.0701 12.7628 17.101 12.0531C17.3503 11.5097 18.3589 11.1955 17.3987 10.3046C16.9633 9.90164 17.7783 9.68354 18.2137 9.34345C18.2137 9.96079 18.2137 10.4487 18.2137 10.9367C18.4258 11.1141 18.4928 11.347 18.4631 11.6132C18.4184 11.7795 18.3216 11.9126 18.1839 12.0161Z" fill="#7DA866"/>
<path d="M17.1047 12.0531C16.9335 13.1177 15.8022 13.8053 15.9548 14.9956C15.5566 15.6093 15.2291 15.576 14.9686 14.8958C14.7974 14.4522 15.3519 13.9569 14.8718 13.5317C15.2291 12.7 14.9574 11.4579 16.3492 11.3064C16.5986 11.554 16.8516 11.8017 17.1047 12.0531Z" fill="#67934F"/>
<path d="M18.1839 12.0161C18.1951 11.9052 18.2063 11.7943 18.2212 11.6834C18.9506 11.4542 18.6863 12.1899 18.9431 12.4191C18.5561 12.9107 18.9506 13.3987 18.9506 13.8903C18.705 13.8681 18.3402 14.8441 18.2249 13.8238C18.1542 13.2286 18.1951 12.6224 18.1839 12.0161Z" fill="#517F3D"/>
<path d="M18.9431 12.4191C18.7012 12.1751 18.4631 11.9274 18.2212 11.6834C18.2174 11.4357 18.2174 11.1844 18.2137 10.933C18.4668 11.0624 18.705 9.93121 18.9357 10.9034C19.0548 11.3914 19.3227 11.92 18.9431 12.4191Z" fill="#629149"/>
<path d="M30.8818 22.7438C31.0008 21.7679 31.1199 20.7883 31.239 19.8123C31.2241 19.3613 31.4325 18.9436 31.4586 18.4963C31.8642 17.8679 31.2725 16.8144 32.3406 16.4706C33.0737 17.3282 32.4485 18.8512 33.7994 19.4057C33.2561 20.8918 32.5341 22.2189 30.8818 22.7438Z" fill="#709C56"/>
<path d="M32.3369 16.4706C31.6782 17.0805 32.1954 18.0675 31.6074 18.6996C31.4884 18.8697 31.3655 18.8734 31.239 18.7033C31.3544 17.9603 31.4735 17.2173 31.5888 16.4743C31.6372 16.1416 31.6558 15.6721 32.054 15.6795C32.5676 15.6906 32.2624 16.1896 32.3369 16.4706Z" fill="#82AB6C"/>
<path d="M36.4342 13.1473C36.0212 13.3247 35.6081 13.4985 35.1987 13.6759C35.5039 13.1953 35.742 12.4967 36.4342 13.1473Z" fill="#67904F"/>
<path d="M21.5631 29.7859C21.3137 29.0466 21.0644 28.3072 20.8188 27.5679C20.882 27.4015 20.9416 27.2389 21.0049 27.0725C23.115 28.0928 22.5083 26.2926 22.6386 25.4349C22.7502 24.7104 22.687 23.9822 23.4313 23.5422C23.5355 23.18 23.7402 22.9804 24.1458 23.1171C24.7859 23.106 25.3813 23.1874 25.6642 23.8786C25.8651 25.4017 24.4882 26.104 23.9076 27.2204C23.0331 28.0004 22.8098 29.1131 22.4116 30.1334C22.2702 30.259 22.1176 30.2812 21.9501 30.1851C21.8199 30.0557 21.6896 29.919 21.5631 29.7859Z" fill="#63924F"/>
<path d="M24.1421 23.1171C23.9039 23.2576 23.6657 23.4018 23.4276 23.5422C22.9512 22.1449 23.595 21.1099 24.5366 20.1709C24.9162 19.683 25.292 19.1987 25.6716 18.7107C26.5387 18.33 26.4643 17.221 27.3649 16.6258C27.6552 17.4576 27.0114 17.879 26.7397 18.3633C25.8503 19.9417 24.4733 21.2466 24.1421 23.1171Z" fill="#457134"/>
<path d="M23.7476 27.1834C24.09 25.9155 25.4483 25.2242 25.6605 23.8786C26.2782 23.1319 26.3638 21.9231 27.577 21.6902C27.5473 21.9157 27.5175 22.1412 27.4877 22.3704C26.5015 23.9785 25.519 25.5902 24.5328 27.1982L24.3505 27.1945L24.1681 27.1982C24.023 27.3535 23.8816 27.3498 23.7476 27.1834Z" fill="#467436"/>
<path d="M5.96621 19.7939C5.45637 18.8105 4.94652 17.8272 4.43667 16.8439C4.6674 16.3412 5.22563 16.0048 5.19214 15.369C5.80247 16.7811 5.88434 18.2893 5.96621 19.7939Z" fill="#6F9B58"/>
<path d="M4.0608 18.3374C4.27665 19.4464 4.79766 20.5036 4.76416 21.9712C3.93054 20.8178 3.88589 19.7347 3.69609 18.6996C3.81518 18.5777 3.93799 18.4594 4.0608 18.3374Z" fill="#52813E"/>
<path d="M8.92109 34.9501C8.91365 35.1978 8.90993 35.4454 8.90249 35.6968C8.65315 35.6968 8.4038 35.6968 8.15446 35.7005C8.41869 34.5509 6.97847 33.5823 7.7972 32.3735C8.41497 31.7451 8.09864 30.6731 8.87644 30.1223C9.21882 30.296 9.36396 30.6028 9.44211 30.954C9.46816 31.3976 9.29697 31.8006 9.18532 32.2146C8.81317 33.0981 9.54631 34.0888 8.92109 34.9501Z" fill="#4E7737"/>
<path d="M7.42133 36.8095C7.29479 37.0535 7.17198 37.3012 7.04545 37.5451C6.54305 37.1422 6.54305 36.6801 7.06778 36.3696C7.36178 36.1959 7.37667 36.5951 7.42133 36.8095Z" fill="#73A762"/>
<path d="M9.25603 20.1561C7.75626 22.1153 8.50429 24.3296 8.53778 26.4626C8.40753 26.6437 8.27727 26.6363 8.1433 26.4663C7.44738 26.1817 7.43993 25.5643 7.39527 24.9618C7.66695 22.3852 7.93862 19.8086 8.21029 17.2284C8.57127 16.6554 8.12097 15.942 8.53034 15.3764C8.54522 15.2655 8.56011 15.1546 8.57127 15.0437C8.9918 14.9734 8.83922 16.7552 9.66168 15.3764C9.78821 15.5057 9.91474 15.6314 10.0375 15.7608C10.3911 15.9457 10.2199 17.2727 11.1428 16.2451C11.3215 16.0455 11.7011 15.9346 11.9392 16.271C12.1439 16.5593 12.01 16.855 11.8536 17.1175C11.4778 17.7459 11.0275 18.3115 10.365 18.6738C9.75844 18.988 9.59097 19.6349 9.25603 20.1561Z" fill="#467336"/>
<path d="M5.17353 23.509C5.70943 23.5533 6.19322 23.4092 6.64725 23.1356C6.40535 24.1041 6.20811 25.0764 6.30115 26.0818L6.29371 26.0744C4.86092 25.6789 4.6153 24.7658 5.17353 23.509Z" fill="#6F9C52"/>
<path d="M8.53406 15.3764C8.50056 16.0048 8.73874 16.685 8.21401 17.2284C8.21401 16.5926 7.94234 15.9124 8.53406 15.3764Z" fill="#6A9851"/>
<path d="M10.3725 18.6738C10.8451 17.9381 11.314 17.2025 11.7867 16.4669C11.7308 16.4151 11.675 16.3671 11.6229 16.3153C11.0535 16.7959 10.4841 17.2801 9.82542 17.8383C9.9073 17.0472 9.97801 16.4003 10.045 15.7571C10.5362 15.0141 11.0312 14.2711 11.5224 13.528C12.3895 14.3302 13.2381 12.8479 14.1052 13.5096C13.774 15.0991 12.3598 16.2192 12.2742 17.9788C12.2407 18.6072 11.1466 18.7699 10.3725 18.6738Z" fill="#6A9855"/>
<path d="M14.8718 13.528C15.6794 13.5613 15.27 14.0973 15.2439 14.4522C15.203 15.0141 15.3444 15.3024 15.9585 14.9919C15.9659 15.2396 15.9771 15.4873 15.9845 15.7349C15.2179 16.1564 14.6522 16.6591 15.2216 17.6165C14.6746 18.0416 14.9053 19.232 13.7665 19.0693C13.4539 19.0619 13.1711 18.9954 13.0036 18.696C13.6214 16.9733 14.2466 15.2507 14.8718 13.528Z" fill="#6D9D53"/>
<path d="M14.1014 13.5133C13.2381 13.2323 12.3933 15.3431 11.5187 13.5317C12.0211 12.9181 12.5272 12.3045 13.0296 11.6908C13.6176 12.0161 14.0903 12.4227 14.12 13.1584C14.1163 13.2767 14.1089 13.395 14.1014 13.5133Z" fill="#73A35C"/>
<path d="M8.14702 26.4663C8.27727 26.4663 8.41125 26.4626 8.5415 26.4626C8.66431 26.7029 8.79084 26.9469 8.91365 27.1871C9.32674 27.42 9.50165 27.8304 9.71378 28.2185C10.1492 29.2055 10.8451 30.2369 9.2672 30.8912C8.95831 30.7248 8.90993 30.4291 8.87644 30.1223C8.92482 28.8469 7.86791 27.7897 8.14702 26.4663Z" fill="#416B35"/>
<path d="M5.17353 23.509C5.19958 24.5145 5.24052 25.5126 6.29371 26.0744C6.29371 26.2038 6.29371 26.3332 6.29743 26.4626C6.15601 26.592 6.12624 26.8286 5.8955 26.8692C4.98001 26.0818 4.50366 25.0727 4.44783 23.8897C4.42551 23.4166 4.58181 22.9767 5.17353 23.509Z" fill="#90B56B"/>
<path d="M5.8955 26.8692C6.02948 26.7325 6.16345 26.5994 6.29743 26.4626C6.21928 27.0836 6.52816 27.7749 5.96249 28.3072C5.94016 27.8304 5.91783 27.3498 5.8955 26.8692Z" fill="#9DBB5C"/>
<path d="M21.9464 30.1888C22.058 30.1666 22.1697 30.1518 22.2813 30.1445C22.419 29.9744 22.5493 29.9781 22.6721 30.1629C23.4573 32.8948 21.2989 33.952 19.6986 35.3271C18.9617 35.6525 18.5561 36.6432 17.5327 36.377C17.4992 36.2772 17.4806 36.1737 17.4731 36.0702C17.8416 35.8114 18.21 35.5563 18.5784 35.2976C18.8352 35.0684 19.092 34.8392 19.3451 34.6063C19.9517 33.3975 21.217 32.7506 21.9278 31.6305C21.9352 31.1499 21.9427 30.6694 21.9464 30.1888Z" fill="#476D38"/>
<path d="M22.6721 30.1629C22.5418 30.1555 22.4116 30.1518 22.2813 30.1445C22.2553 28.9061 22.3744 27.7379 23.7476 27.1871C23.8853 27.1908 24.0267 27.1982 24.1644 27.2019C24.0416 27.4422 23.9151 27.6825 23.7923 27.9228C23.4052 28.4884 23.5392 29.2647 23.0219 29.7711C22.9065 29.9005 22.7912 30.0336 22.6721 30.1629Z" fill="#4D7B39"/>
<path d="M23.0219 29.7711C23.0405 29.0576 23.2005 28.3996 23.7923 27.9228C23.6397 29.0392 23.4871 30.1555 23.3234 31.3422C22.8396 30.8209 23.1522 30.2591 23.0219 29.7711Z" fill="#709B59"/>
<path d="M14.1089 24.9729C13.6549 25.1983 13.8633 25.7418 13.4427 26.2334C13.4092 25.7048 13.5134 25.2501 13.3311 24.9839C12.9217 24.3851 12.5719 23.143 11.5745 24.4738C11.3364 24.7917 11.0796 25.1059 10.7074 24.8287C10.2683 24.5034 10.6888 24.1966 10.8786 23.923C11.3252 23.2798 11.7867 22.6477 12.2444 22.0118C12.784 22.0377 12.9217 21.5609 13.2083 21.2614C13.5581 20.8992 13.9451 20.5295 14.4215 21.1283C15.0653 22.4739 14.4848 23.716 14.1089 24.9729Z" fill="#71A059"/>
<path d="M9.2672 30.8912C10.2869 30.0373 9.71378 29.1648 9.30441 28.2887C9.50537 27.8045 9.86264 27.5531 10.3985 27.5716C11.5224 26.9395 11.4666 27.5716 11.1317 28.2998C10.9382 28.7212 11.0051 28.9726 11.3624 29.1205C11.4554 29.1575 11.6973 28.8321 11.8723 28.6732C12.1104 29.4975 12.2853 30.3256 12.0658 31.1869C11.1093 31.856 10.1827 32.6434 8.8876 31.9891C9.01413 31.6231 9.14066 31.2571 9.2672 30.8912Z" fill="#64904D"/>
<path d="M14.0977 20.8992C13.5023 21.1505 13.3869 21.8011 12.9924 22.2189C12.6128 22.6218 12.3226 22.7216 12.2444 22.0192C12.7505 21.0359 13.2567 20.0526 13.7628 19.0693C14.6038 18.9362 14.1796 17.5537 15.2179 17.6165C15.2216 17.8531 15.2253 18.0897 15.2328 18.3263C15.0244 18.5222 15.1658 18.9104 14.8383 19.0471C14.3136 19.4353 14.5183 20.0157 14.4513 20.5221C14.3917 20.6995 14.2726 20.8252 14.0977 20.8992Z" fill="#91BA76"/>
<path d="M10.4023 27.5716C10.0375 27.8119 9.67284 28.0522 9.30813 28.2887C9.17788 27.9228 9.04763 27.5531 8.91365 27.1871C8.91737 26.8212 8.91737 26.4552 8.93226 26.0929C8.95459 25.5495 9.28208 25.3351 9.78077 25.3869C10.3204 25.446 10.7223 25.6789 10.6144 26.3258C10.5474 26.7398 10.473 27.1539 10.4023 27.5716Z" fill="#6E9F57"/>
<path d="M14.0977 20.8992C14.2168 20.7735 14.3322 20.6478 14.4513 20.5221C14.5852 20.5295 14.7192 20.5369 14.8569 20.548C15.3854 21.9009 14.8197 23.2576 14.8606 24.6106C14.1982 25.0837 14.7229 25.8859 14.3396 26.4811C13.9265 26.0042 14.2205 25.4608 14.1163 24.9765C13.8893 23.6162 14.7713 22.2558 14.0977 20.8992Z" fill="#5A8943"/>
<path d="M11.8685 31.2756C11.8723 30.4069 11.8723 29.5419 11.876 28.6732C12.6724 29.6491 12.5235 30.8357 12.6091 31.9706C12.3747 31.9743 12.1365 31.9817 11.902 31.9854C11.6936 31.7562 11.6601 31.5196 11.8685 31.2756Z" fill="#51793C"/>
<path d="M19.3339 28.3072C18.3551 29.601 16.9261 30.3293 15.6273 31.2239C15.9399 29.8598 16.5874 28.7804 17.8565 28.0226C18.571 27.5938 19.0027 27.3424 19.3339 28.3072Z" fill="#699851"/>
<path d="M22.1957 23.5238C21.8124 24.4775 21.9129 25.7307 20.6178 26.1336C21.2319 25.3055 21.1984 24.1263 22.1957 23.5238Z" fill="#6A9955"/>
<path d="M21.9427 19.8123C22.7391 19.5831 22.8358 18.4815 23.7923 18.3374C24.0825 18.866 23.4871 19.073 23.4238 19.4353C22.9028 19.4612 22.6646 20.5812 21.9427 19.8123Z" fill="#558242"/>
<path d="M17.4843 26.8581C17.6071 26.7325 17.7336 26.6031 17.8565 26.4774C18.7608 26.5994 18.2286 26.9653 17.9681 27.2352C17.782 27.4274 17.5699 27.8414 17.2871 27.6233C17.0005 27.3979 17.4061 27.1169 17.4843 26.8581Z" fill="#75A05E"/>
<path d="M14.9648 34.9686C14.9648 35.926 14.2912 36.1959 13.599 36.8686C13.7665 35.8484 13.7107 35.0795 14.9648 34.9686Z" fill="#79A65B"/>
<path d="M21.9278 31.6305C21.805 33.2533 20.4392 33.8152 19.3451 34.6063C19.4158 32.9391 20.402 32.0556 21.9278 31.6305Z" fill="#618A4C"/>
<path d="M11.8685 31.2756C11.8797 31.5122 11.8909 31.7488 11.902 31.9854C12.0174 32.9798 11.6639 33.9076 11.4666 34.854C11.3699 35.3198 11.2396 35.8595 10.6814 35.9888C10.1194 36.1182 9.96312 35.5933 9.79937 35.231C9.58725 34.7616 9.30069 34.7837 8.92482 34.9538C8.99925 33.9668 8.06515 32.9909 8.89132 31.9928C9.98917 32.1924 10.726 30.9023 11.8685 31.2756Z" fill="#6D9F53"/>
<path d="M29.2145 22.6698C29.088 22.8658 29.0098 23.1319 28.8982 23.143C28.4963 23.1911 28.6674 22.8399 28.6414 22.6514C28.6191 22.4813 28.6786 22.2484 28.9168 22.3039C29.0359 22.3371 29.114 22.5442 29.2145 22.6698Z" fill="#83AE68"/>
<path d="M31.239 18.7033C31.3618 18.6996 31.4846 18.6996 31.6074 18.6996C31.6186 19.1137 31.6782 19.5462 31.239 19.8123C31.1311 19.8086 31.0194 19.8049 30.9115 19.8012C30.8036 19.3724 31.0604 19.0471 31.239 18.7033Z" fill="#9CC284"/>
<path d="M15.9808 15.7349C16.4683 15.5168 16.7065 15.1398 16.7326 14.6075C16.7474 14.2563 16.7958 13.7757 17.2275 13.8312C17.462 13.8607 17.6332 14.345 17.8341 14.6223C17.8304 15.2433 17.823 15.8643 17.8192 16.4854C17.4396 16.8513 16.5539 17.2136 17.8192 17.5796C17.8267 17.9492 17.8341 18.3226 17.8416 18.6923C17.4248 18.6996 16.9856 18.6331 16.7139 19.0693C15.5528 18.8845 15.7612 17.9825 15.8394 17.2543C15.8915 16.7515 16.3455 16.2894 15.9808 15.7349Z" fill="#6D9D53"/>
<path d="M14.8346 19.0434C14.9648 18.8032 15.0988 18.5629 15.2291 18.3226C15.3444 18.6996 15.7389 19.0065 15.5045 19.4649C15.2812 19.3244 15.0579 19.1839 14.8346 19.0434Z" fill="#6D9D53"/>
<path d="M17.8192 17.5833C17.3727 17.6905 17.168 18.3817 16.3865 18.038C16.9075 17.5093 16.0999 16.027 17.8192 16.4928C17.8192 16.855 17.8192 17.2173 17.8192 17.5833Z" fill="#77A658"/>
</svg>
