<svg width="52" height="47" viewBox="0 0 52 47" fill="none" xmlns="http://www.w3.org/2000/svg">
<path d="M50.8012 29.8149C50.4281 31.2406 50.2863 32.7781 49.6482 34.0772C46.7225 40.0483 42.4088 44.4632 35.6022 45.8778C34.4417 45.7587 33.8073 45.3492 35.0052 44.3813C36.3784 43.272 37.1621 41.6936 38.3674 40.454C39.3264 39.4675 39.3376 37.5392 38.3898 36.6235C37.2852 35.5551 37.274 34.4272 38.0726 33.3104C38.6958 32.443 39.0279 31.4565 39.5391 30.5482C41.4721 30.9652 41.8602 31.6278 41.6214 34.0921C41.4423 34.349 41.2034 34.5463 40.9646 34.7399C41.1698 34.6021 41.3452 34.4234 41.5169 34.241C42.3602 32.2495 43.3678 30.3286 43.9163 28.2142C44.0507 27.6967 44.4425 27.0713 45.0732 27.2351C45.7113 27.4027 45.6963 28.1211 45.5583 28.6534C45.4202 29.1858 45.45 29.0853 45.9165 28.9587C46.7934 28.7204 46.4352 30.1722 47.2935 30.0978C47.4801 30.1722 47.5883 30.3063 47.5995 30.5073C47.7002 30.377 47.5957 30.2541 47.5622 30.1425C47.4539 29.7777 47.4651 29.4203 47.5734 29.0629C47.9055 28.3668 48.0398 27.5851 48.4279 26.9113C49.1518 26.5465 49.2302 27.183 49.372 27.5739C49.6892 28.4264 50.0922 29.2155 50.8012 29.8149Z" fill="#AECE6E"/>
<path d="M0.397837 29.1783C-0.65822 25.4855 0.558298 22.1166 2.05842 18.8668C3.06224 16.6965 4.42802 14.69 5.63334 12.6091C6.64462 13.7296 5.31988 14.9394 5.76395 16.0786C6.36848 17.4336 5.90202 19.1013 7.02152 20.3037C7.41334 21.171 8.18579 21.8709 8.1746 22.9132C7.87606 23.9406 8.40596 24.7894 8.78659 25.6716C8.83137 25.8354 8.84256 26.003 8.82763 26.1742C8.68583 26.6172 8.64851 27.1979 8.04026 27.2277C7.49917 27.2537 7.15959 26.8331 7.00659 26.3678C6.79389 25.7238 6.48789 25.1617 5.95053 24.741C5.7229 24.4693 5.62588 24.1379 5.49154 23.8178C5.40571 23.0323 5.25645 22.2469 5.32362 21.5098C4.81984 22.4479 4.26756 23.4493 5.49154 24.3762C5.59229 24.6405 5.59976 24.9122 5.55498 25.1877C4.69297 27.6372 5.59603 30.068 5.64454 32.51C5.46542 33.0424 5.71544 33.8092 4.95418 34.0288C4.4728 34.1666 4.19293 33.7794 4.01381 33.3699C3.60332 30.8795 1.61809 29.1336 0.938926 26.7735C0.920268 27.1718 0.935195 27.5404 0.924 27.9164C0.882952 28.3929 0.841904 28.8693 0.397837 29.1783Z" fill="#BED572"/>
<path d="M26.5642 0.00816926C28.2919 -0.0662824 29.9003 0.372982 31.434 1.12867C31.475 1.83968 31.016 1.78384 30.5458 1.70567C29.1353 0.607505 28.7696 2.47996 28.1091 2.5023C28.6128 2.24172 29.098 1.14356 30.2697 1.50837C31.0198 2.89317 30.1727 4.33381 30.4152 5.73722C29.5308 6.75349 28.4225 7.50545 27.3889 8.35048C27.2284 8.41004 27.0605 8.43237 26.8888 8.42493C26.1126 7.87398 25.4297 7.23742 25.0939 6.31422C25.1014 6.13182 25.1163 5.95313 25.2096 5.78934C25.0006 5.75584 25.1088 5.93452 25.0827 6.00153C24.2282 8.47332 23.2057 10.8483 21.3884 12.8027C20.657 12.7729 20.3025 12.3113 20.0972 11.6785C20.2166 11.0233 20.5525 10.4537 20.8585 9.88418C21.3287 9.00565 20.795 8.74135 20.1233 8.51055C19.6905 6.7386 21.0712 3.74936 22.9631 3.16864C23.8998 2.882 23.9557 2.26033 24.3737 1.75034C24.5416 1.53815 24.7469 1.39297 25.0193 1.36319C25.385 1.3818 25.9149 2.24916 26.0641 1.14728C26.1201 0.73035 26.2432 0.320866 26.5642 0.00816926Z" fill="#B9D36D"/>
<path d="M17.5 1.82851C18.0597 1.3818 18.765 1.32224 19.4181 1.13239C19.8285 0.935092 20.239 0.875531 20.6308 1.17706C20.9294 1.43392 20.142 2.02581 20.9256 2.13004C21.0077 2.01464 20.9928 2.59536 21.0973 2.1561C21.1346 2.00347 21.0637 1.81734 21.101 1.63866C21.2764 1.09516 21.5339 0.641008 22.1869 0.603782C22.9183 0.708015 23.702 0.350647 24.3923 0.84575C24.4968 1.14356 24.3737 1.38925 24.2095 1.62377C22.325 3.11653 20.9144 5.00015 19.7464 7.08108C19.5151 8.74135 19.2576 10.3942 18.6829 11.98C18.4142 12.6166 18.2426 13.3238 17.5261 13.6552C16.4253 13.8599 16.1006 13.2568 16.1193 12.3039C16.1081 11.3807 16.1678 10.7143 17.25 10.1224C18.2986 9.55287 17.8806 8.01172 17.9552 6.8056C17.3507 7.72136 16.541 8.47332 16.1417 9.51937C15.5745 10.3905 16.3581 11.3993 15.8618 12.2741C14.7759 12.5347 14.6751 11.7678 14.552 11.0233C13.6713 12.3746 13.4176 11.2131 13.0108 10.6436C12.7608 10.4835 13.3691 9.64966 12.4884 9.99586C11.6077 10.7255 11.1972 11.7082 10.9248 12.7766C10.7606 13.4132 10.6524 14.1019 9.84637 14.288C9.5665 14.221 9.37246 14.0497 9.23438 13.8041C9.04034 13.2457 9.25677 12.7357 9.4135 12.2145C10.1598 10.5021 11.2495 9.00937 12.3876 7.5464C12.7421 7.05502 12.9884 6.40729 13.7982 6.59342C14.705 7.65807 14.6602 6.01642 15.2162 6.08715C15.8954 5.13789 16.7686 4.42687 17.9627 4.05462C17.1268 4.2333 16.485 4.33381 16.6604 3.20214C16.7499 2.62887 17.3619 2.37201 17.5 1.82851Z" fill="#BAD36C"/>
<path d="M51.2117 17.1172C51.6931 17.8393 52.1185 18.569 51.6035 19.4549C51.3013 19.4177 50.8199 19.2316 50.7303 19.4847C50.3012 20.6983 49.1817 20.3744 48.3869 20.4824C47.5099 20.6015 46.5621 20.192 45.8195 21.0035C45.7486 21.0817 45.5209 21.1078 45.4724 21.0408C44.2932 19.44 42.8416 21.2343 41.5803 20.7281C40.4571 20.3707 39.7854 21.3274 38.9122 21.6773C38.0688 22.0161 37.3598 22.6899 36.3709 22.6564C35.1283 22.232 34.4006 21.3944 34.2924 20.0617C34.2775 19.8942 34.326 19.749 34.4305 19.6187C35.0163 19.2018 35.744 19.1162 36.3747 18.8072C36.8523 18.5727 36.4941 18.3791 36.3187 18.1781C35.606 16.7039 36.8075 16.5327 37.6957 16.1456C38.0576 16.0599 38.4122 16.0562 38.7555 16.2275C39.1324 16.5104 38.9719 16.8566 38.8488 17.1804C38.4532 18.2153 39.2406 17.4224 39.4309 17.5527C40.1175 17.4782 40.6101 17.8133 41.0355 18.2935C42.252 18.9971 43.4014 18.1595 44.5843 18.1334C45.312 18.1185 46.0135 17.8207 46.7524 17.8207C46.98 17.7463 47.3047 17.9622 47.4129 17.5862C47.2599 17.4373 47.0994 17.3107 46.9912 17.1395C47.0024 16.7077 46.827 16.2498 47.1965 15.8775C47.4278 15.777 47.6629 15.7733 47.9017 15.8329C49.0287 16.2051 49.8497 17.3591 51.2117 17.1172Z" fill="#C2D87B"/>
<path d="M32.9042 46.2091C29.8517 47.2328 26.7507 47.1398 23.6311 46.6223C23.5677 46.5628 23.5079 46.4995 23.4445 46.4437C22.3885 45.5167 21.1346 44.8132 20.3734 43.5438C19.5449 42.159 19.6345 41.7793 21.2391 41.4033C22.1347 41.1948 23.0378 40.9231 23.9781 40.9491C25.8328 41.1501 25.5193 42.494 25.4372 43.715C25.2842 43.8267 25.1163 43.8974 24.9297 43.9235C24.9931 44.0203 25.0902 43.9607 25.1611 43.9532C26.4559 43.7895 27.7583 43.8825 29.0569 43.823C29.348 43.8081 29.654 43.9086 29.9227 43.715C29.7473 43.648 29.4749 43.7187 29.4749 43.3986C30.1316 42.4866 30.9563 42.7583 31.7885 43.0561C32.4229 43.5661 33.3296 43.6889 33.7924 44.4446C33.9566 45.0365 33.658 45.4609 33.2662 45.848C33.1431 45.9597 33.0199 46.0826 32.9042 46.2091Z" fill="#C6D980"/>
<path d="M32.9266 45.8071C33.1692 45.4348 33.4117 45.0626 33.6506 44.6903C34.0013 43.7373 34.9119 43.38 35.6545 42.8588C36.5239 42.2446 36.8747 41.5112 36.4157 40.4912C36.3821 40.2195 36.4344 39.9664 36.6023 39.7467C38.5913 38.5555 38.6062 38.5481 37.4195 36.5193C36.7068 35.302 36.9493 34.174 37.5651 33.0089C38.5129 31.2146 37.9494 29.6548 36.0426 28.6237C34.9417 28.3072 33.8148 28.4971 32.699 28.4524C32.5124 28.4636 32.3258 28.4599 32.1392 28.4487C31.5832 28.4077 31.031 28.3631 30.6541 27.8494C30.9339 27.0825 31.6168 27.183 32.2027 27.1197C32.7512 27.0602 33.311 27.116 33.8633 27.0341C33.8633 27.0341 37.886 27.0341 37.8823 27.0267C39.4831 25.385 41.2893 24.1566 43.6962 24.1156C44.0731 24.1044 44.45 24.1119 44.8269 24.1193C46.2412 24.0449 47.2898 25.009 48.5361 25.4073C49.1593 25.6903 49.637 26.1221 49.9318 26.7475C50.1519 27.6893 50.9468 28.4412 50.8647 29.491C50.8871 29.6064 50.8647 29.7181 50.8012 29.8149C49.6855 30.2206 49.7862 29.0629 49.3235 28.646C48.8123 28.1844 49.1705 27.3096 48.5772 26.8443C47.0882 27.0713 46.0732 25.4632 44.5545 25.8168C42.8752 25.4781 41.543 26.3454 40.2257 27.1421C39.3227 27.6856 39.0913 28.5641 39.457 29.5692C39.5764 29.8893 39.6697 30.2132 39.6175 30.5594C39.7145 31.531 39.3973 32.3462 38.7704 33.0982C37.8076 34.2522 37.371 35.3355 38.9495 36.482C40.0056 37.2489 39.7667 39.9961 38.7219 40.8561C37.2553 42.0622 36.5277 43.9011 34.9604 45.0663C34.2924 45.5614 35.6545 45.3716 35.606 45.8778L35.5686 45.8629C34.6805 46.0379 33.7998 46.1459 32.9266 45.8071Z" fill="#A4C758"/>
<path d="M41.4982 20.5121C42.3267 20.5382 43.0543 20.1734 43.8007 19.9016C44.3529 19.7006 45.0508 19.0157 45.0284 20.3595C45.0284 20.4786 45.2784 20.5978 45.4165 20.7169C46.23 19.6038 47.3793 19.9054 48.4764 19.9947C48.4354 19.5592 48.566 19.3098 48.9167 19.7602C49.7713 20.8546 49.775 20.0617 50.1183 19.3693C50.5064 18.5876 51.1632 18.4238 51.6035 19.4549C52.2081 21.011 51.9394 22.634 51.9469 24.2347C51.8125 24.3725 51.5625 24.4804 51.4729 24.3725C50.2191 22.7718 48.3831 23.0174 46.6815 22.8276C45.1739 22.6377 44.0432 23.7955 42.6326 23.963C41.5169 24.0337 40.375 24.1677 39.7817 22.876C39.707 22.3027 39.8936 21.7853 40.1287 21.279C40.4496 20.7839 40.8937 20.501 41.4982 20.5121Z" fill="#BBD46F"/>
<path d="M30.2995 5.62182C29.4002 5.02249 30.1391 4.21841 30.0719 3.51856C30.0085 2.86711 30.21 2.19332 30.2958 1.52698C30.7175 1.51954 31.1653 1.58654 31.4302 1.13239C34.173 0.570279 36.8262 0.611227 39.2331 2.29756C39.2779 3.18725 38.4831 3.18353 37.9718 3.48506C37.0538 3.79776 36.1993 4.31892 35.1955 4.35614C34.0797 4.20724 33.1916 4.87731 32.2027 5.19C31.5832 5.38358 31.0459 5.94569 30.2995 5.62182Z" fill="#BDD576"/>
<path d="M12.7608 7.85537C11.5741 9.229 10.5852 10.7367 9.76055 12.3523C9.43962 12.6538 9.09631 12.933 8.88734 13.335C8.63732 14.1093 8.99556 15.5611 8.15967 15.5425C7.02525 15.5202 7.59619 14.0944 7.3499 13.2978C7.29766 13.1265 7.26034 12.9479 7.2081 12.7729C6.97674 12.0023 7.12227 11.2206 7.12973 10.4388C8.96197 8.06011 10.3651 5.3054 13.0407 3.66374C13.2944 3.5074 13.5818 3.39944 13.8542 3.26915C14.5072 4.28914 13.7497 4.87731 13.0966 5.37241C12.216 6.03875 11.5443 6.85028 10.8763 7.82559C11.5816 7.51289 12.2122 6.81677 12.7608 7.85537Z" fill="#BFD676"/>
<path d="M43.0095 4.0844C44.1999 4.56089 44.3567 5.767 44.8828 6.71626C44.9687 7.72136 44.4089 8.32442 43.6103 8.78974C43.4088 8.83441 43.2073 8.83441 43.0058 8.80091C40.8452 8.57011 38.6622 8.9647 36.5053 8.55894C36.0948 8.39515 35.8224 8.10106 35.7067 7.67297C35.6545 7.11086 35.9418 6.74977 36.4083 6.49291C37.274 6.28817 38.0017 5.75956 38.8226 5.44314C38.9943 5.40591 39.1659 5.39847 39.3413 5.41336C40.3638 5.57343 41.39 5.69627 42.5953 5.8824C41.8639 5.51759 41.0766 5.84518 40.6586 5.17884C41.1325 4.14768 42.1363 4.25564 43.0095 4.0844Z" fill="#BDD572"/>
<path d="M46.7039 22.3809C47.3009 22.768 47.9092 22.2841 48.5175 22.4069C49.8534 22.6712 51.1707 22.9393 51.9506 24.2347C52.1446 26.0997 51.3274 27.76 50.8684 29.4947C50.3422 28.6721 49.5884 27.9461 49.6967 26.8443C49.3981 26.3008 49.3459 25.7684 49.9467 25.4111C50.5251 25.0686 50.8087 25.5972 51.1334 25.9471C49.9877 24.406 49.831 24.3948 48.5809 25.7275C47.1666 25.9024 46.3083 24.2682 44.8493 24.5921C44.282 22.8685 45.5508 22.675 46.7039 22.3809Z" fill="#C1D77C"/>
<path d="M4.17427 33.1764C5.15942 34.8441 4.89821 32.8637 5.29003 32.7967C6.37594 33.1503 6.98047 33.9991 7.51036 34.926C7.59992 35.9571 8.87241 36.4076 8.79032 37.5243C8.39849 37.9152 7.87233 37.7589 7.40588 37.8631C5.48781 37.2117 4.12949 35.8008 2.73012 34.5016C2.67788 34.9297 3.37943 35.6854 2.25993 35.8194C0.938926 33.8986 0.416495 31.7506 0.461275 29.4463C1.7375 30.0494 2.16291 31.5868 3.46152 32.1638C3.80483 32.4244 4.11083 32.7185 4.17427 33.1764Z" fill="#C7DA86"/>
<path d="M7.51783 37.6435C7.89472 37.4127 8.27162 37.3941 8.65598 37.6323C8.77166 37.7365 8.83883 37.8668 8.86495 38.0195C8.86495 38.1758 8.84629 38.3284 8.81644 38.4811C9.55157 40.2158 11.8801 40.0594 12.6265 41.3623C13.4885 42.87 14.6229 43.2757 16.0446 43.5438C16.6529 43.6592 17.2462 43.7857 17.7463 44.1803C17.9553 44.3813 18.1008 44.6084 18.0784 44.91C17.3545 45.9002 16.5148 45.044 15.7722 44.9658C15.1565 44.9025 14.4699 44.7462 13.8878 44.4111C12.0816 43.7857 10.4994 42.6466 8.64852 42.1143C8.1746 41.7309 7.70068 41.3437 7.22303 40.9603C6.83867 40.1264 5.91322 39.8472 5.36839 39.1735C5.05494 38.7863 4.56982 38.3917 4.84223 37.8854C5.18928 37.2377 5.70051 37.7998 6.14085 37.9003C6.3237 37.9413 6.49908 37.9971 6.68567 37.9897C6.9842 37.9189 7.28646 37.8668 7.51783 37.6435Z" fill="#CCDD8F"/>
<path d="M48.2898 10.7999C48.4018 10.9228 48.5137 11.0493 48.6294 11.1722C48.7675 11.9763 48.8048 12.8101 49.3048 13.5137C49.7265 14.4481 49.8609 15.308 48.7152 15.844C48.5399 15.9036 48.357 15.9222 48.1704 15.9148C47.2487 15.5648 46.2262 15.5872 45.3232 15.1665C44.8791 14.8799 44.5283 14.5151 44.3604 13.9976C44.3641 13.6403 44.6142 13.4132 44.8119 13.1601C45.0172 12.8548 44.95 12.5831 44.7037 12.3411C44.5731 12.2443 44.4462 12.1438 44.3119 12.0507C43.6812 11.6226 43.3155 11.1871 44.3753 10.8707C44.853 10.7292 45.3418 10.8148 45.9165 11.0456C45.8941 10.5431 45.215 10.0666 45.7262 9.66827C46.2001 9.29973 46.7711 9.47842 47.2636 9.77995C47.6928 10.0368 47.8943 10.517 48.2898 10.7999Z" fill="#BCD46E"/>
<path d="M48.2898 10.7999C47.495 10.4872 46.9352 9.55659 45.9016 9.89162C46.6964 11.1834 46.6964 11.1834 44.0395 11.2764C44.3343 11.5221 44.588 11.738 44.8455 11.9502C43.4238 13.443 41.9274 12.8436 40.4272 12.1066C40.7332 11.336 40.7332 11.336 42.5356 10.1857C42.2184 9.81345 41.3639 9.63477 41.793 8.91259C42.252 8.49193 42.8267 8.63711 43.3603 8.59989C43.476 8.59617 43.588 8.59617 43.7036 8.58872C44.8679 8.77485 46.1777 8.24624 47.1666 9.29229C47.6517 9.71666 48.1368 10.1373 48.2898 10.7999Z" fill="#C5DA85"/>
<path d="M17.5 1.82851C18.2165 2.71076 16.3693 2.94901 17.0261 3.83871C17.7164 3.8871 17.847 3.00113 18.4665 2.91923C18.4739 4.39337 18.3321 4.83264 17.0485 4.93687C15.9663 5.02621 16.3842 6.45568 15.3767 6.36634C14.8244 6.18393 14.6639 5.72233 14.5594 5.21978C14.5333 4.4641 14.1228 3.70469 14.5893 2.95645C15.4662 2.32734 16.4253 1.93647 17.5 1.82851Z" fill="#B4D062"/>
<path d="M14.593 2.95645C14.746 3.71958 15.1341 4.43804 14.9998 5.24956C14.6117 5.74467 14.5221 6.46313 13.8616 6.75349C13.1302 6.75721 13.0332 7.39377 12.7608 7.85537C12.0406 7.32677 11.6898 7.86282 11.2532 8.32442C10.9323 8.66317 10.3987 8.75624 10.0777 8.41004C9.64113 7.93355 10.2083 7.65063 10.492 7.3826C11.3614 6.55247 11.9174 5.4208 13.0817 4.86242C13.6788 4.57578 13.8579 3.93549 13.8579 3.2766C14.1042 3.16492 14.3505 3.06069 14.593 2.95645Z" fill="#C6DA83"/>
<path d="M39.2555 5.62182C39.1249 5.62555 38.9943 5.62555 38.8637 5.62927C38.0315 6.00897 37.1882 6.36262 36.2851 6.54502C36.0202 6.66042 35.7478 6.67531 35.4716 6.58597C34.5835 5.19373 35.841 4.86242 36.6359 4.59439C37.9681 4.14768 39.2966 3.69353 40.6138 3.20214C40.778 3.13142 40.9497 3.07185 41.1213 3.01602C41.9124 3.08302 42.5207 3.47762 43.0133 4.08067C42.5319 4.99643 41.3676 4.59439 40.7519 5.24956C40.3265 5.68511 39.8078 5.72606 39.2555 5.62182Z" fill="#B9D36D"/>
<path d="M6.79762 38.3694C6.07368 38.831 5.74529 37.9711 4.9915 37.8631C5.52139 39.0357 6.39087 39.7058 7.32751 40.3275C7.71933 40.5843 7.90965 40.8598 7.22303 40.964C5.62215 40.0855 4.15561 39.0655 3.37569 37.3233C3.23389 36.925 3.00253 36.5379 3.09582 36.0949C3.21523 35.5365 3.53615 35.06 4.06978 35.5849C4.99896 36.4895 6.36101 36.9846 6.79762 38.3694Z" fill="#BED47E"/>
<path d="M5.2751 16.0562C4.85716 14.8538 5.92441 13.8041 5.63334 12.6128C5.80127 11.8832 6.28265 11.3658 6.81628 10.8856C7.51783 11.6673 6.80881 12.7841 7.46185 13.5807C7.52529 14.463 7.59619 15.3452 7.7268 16.2237C6.83493 17.3033 6.08114 16.2759 5.2751 16.0562Z" fill="#B4CF64"/>
<path d="M6.79762 38.3694C5.7938 37.4722 4.79372 36.5714 3.68542 35.5812C3.24135 36.1395 3.53615 36.7873 3.37569 37.3233C2.89804 36.899 2.39054 36.5006 2.26366 35.8194C3.19657 34.9669 1.57331 34.3267 2.19276 33.3216C3.83096 34.9595 5.46542 36.5788 7.52156 37.6435C7.53275 38.1349 7.28273 38.3657 6.79762 38.3694Z" fill="#D8E5A9"/>
<path d="M21.7018 46.5814C20.7838 46.4697 19.8808 46.2985 19.0449 45.8815C19.0486 45.8034 19.0524 45.7215 19.0524 45.6433C18.724 44.6605 17.194 44.158 17.8881 42.762C18.2239 42.4382 18.6158 42.2744 19.0897 42.3265C20.3025 43.0784 20.8659 44.4297 21.8884 45.3567C22.0414 45.6991 22.0638 46.0453 21.8959 46.3915C21.8287 46.4548 21.7653 46.5181 21.7018 46.5814Z" fill="#C6D980"/>
<path d="M3.42421 32.4281C1.86064 32.0038 1.21507 30.6674 0.461275 29.4426C0.397837 29.3644 0.375447 29.2751 0.394106 29.1783C0.412764 28.6423 0.435154 28.1025 0.457544 27.5664C0.666516 27.4138 0.972511 27.3021 1.11058 27.5106C2.12932 29.0294 3.48018 30.4068 3.42421 32.4281Z" fill="#BCD36C"/>
<path d="M47.1666 9.29601C46.0994 8.64456 44.6701 9.75017 43.7036 8.59244C44.0955 7.96705 44.4873 7.34166 44.8791 6.71626C45.9016 7.3491 46.786 8.10106 47.1666 9.29601Z" fill="#D9E6AF"/>
<path d="M24.3252 1.13611C23.6647 0.492105 22.84 0.901589 22.0974 0.786189C21.9668 0.708015 21.9257 0.637286 21.9742 0.570279C22.0227 0.506995 22.0675 0.473492 22.116 0.473492C23.6012 0.320866 25.0827 0.164518 26.5679 0.0118918C26.6985 1.14356 26.4559 2.13004 25.5454 2.86711C24.6274 2.62514 25.5827 1.85085 25.0752 1.52698C24.8924 1.2664 24.5789 1.25523 24.3252 1.13611Z" fill="#BED676"/>
<path d="M8.64852 42.1143C10.2792 41.7346 11.3726 43.0152 12.7421 43.4544C13.1228 43.5773 13.4176 43.9644 13.8803 43.9644C13.7236 44.8541 13.134 44.4446 12.6563 44.3702C11.1786 43.8676 9.7904 43.2087 8.64852 42.1143Z" fill="#C3D886"/>
<path d="M12.6526 44.3702C13.0854 44.3032 13.578 44.4223 13.8766 43.9644C15.2237 44.3404 16.4663 45.2822 17.9851 44.7052C18.7799 44.6047 19.0486 45.0961 19.1718 45.7513L19.0449 45.8815C16.8395 45.6991 14.6751 45.3269 12.6526 44.3702Z" fill="#C7DA86"/>
<path d="M48.5772 15.6728C49.5996 15.0772 49.1406 14.2284 48.9653 13.4281C49.0996 13.1154 49.2862 12.9181 49.6593 13.0893C50.2415 13.9976 50.7938 14.9171 50.8162 16.0413C49.2377 16.663 49.2377 16.663 48.5772 15.6728Z" fill="#D1E19E"/>
<path d="M48.5772 15.6728C49.0921 15.9297 49.5511 16.7188 50.1631 15.7026C50.3609 15.3713 50.5288 16.0339 50.8162 16.0451C50.9468 16.4024 51.0774 16.7635 51.2117 17.1209C51.1296 18.018 50.5325 17.6011 50.1407 17.4931C49.2377 17.2474 48.5175 16.6667 47.8271 16.0599C47.842 15.8329 48.0547 15.7919 48.1928 15.6802C48.3197 15.6765 48.4503 15.6728 48.5772 15.6728Z" fill="#B9D26A"/>
<path d="M41.1176 3.01974C41.1213 3.13886 41.1213 3.26171 41.1139 3.38083C39.9906 3.40316 38.7443 4.60556 37.7927 3.02346C38.3562 2.94901 38.8637 2.75543 39.2331 2.29383C39.9944 2.20449 40.6101 2.4688 41.1176 3.01974Z" fill="#CEDD95"/>
<path d="M7.1372 13.4169C6.07368 12.6947 7.10361 11.7045 6.81254 10.8856C6.91703 10.7367 7.02525 10.5877 7.12973 10.4388C7.89845 11.0829 7.43573 11.9539 7.55887 12.7171C7.70441 13.1228 7.49544 13.3164 7.1372 13.4169Z" fill="#9DBE48"/>
<path d="M22.1123 0.469769C22.1048 0.574002 22.1011 0.678234 22.0936 0.782466C21.8436 1.15472 21.5936 1.53071 21.3473 1.90296C21.2055 2.00347 21.1981 2.24544 20.9704 2.26405C20.5226 2.10771 19.9591 2.90062 19.6979 2.28267C19.5188 1.86202 20.2651 1.76895 20.5823 1.50837C20.81 1.24407 20.6719 0.994654 20.545 0.745241C21.004 0.294808 21.5638 0.406485 22.1123 0.469769Z" fill="#D3E2A0"/>
<path d="M49.6593 13.0893C49.428 13.201 49.1966 13.3127 48.9653 13.4281C48.1816 12.7766 48.0212 12.0321 48.6294 11.1759C49.4243 11.5705 49.3384 12.4379 49.6593 13.0893Z" fill="#DEE8B2"/>
<path d="M32.9266 45.8071C33.8073 45.8257 34.688 45.8443 35.5686 45.8629C34.7514 46.5181 33.8185 46.2724 32.908 46.2054C32.9117 46.0751 32.9192 45.9411 32.9266 45.8071Z" fill="#AECE6E"/>
<path d="M20.545 0.745241C20.7428 0.827137 21.1048 0.741518 21.0674 1.05794C21.0488 1.22545 20.7503 1.35947 20.5823 1.51209C20.2987 1.06911 19.8323 1.19195 19.4218 1.13611C19.7203 0.782466 20.1383 0.782466 20.545 0.745241Z" fill="#BED676"/>
<path d="M23.6274 46.6223C22.9781 46.9723 22.3325 47.0318 21.7018 46.5814L21.7466 46.533C21.963 46.3543 22.2056 46.2277 22.4892 46.1905C22.8698 46.1607 23.2281 46.2203 23.5266 46.4883L23.6274 46.6223Z" fill="#C6D980"/>
<path d="M44.4761 25.3478C46.1553 24.9979 47.2562 26.2189 48.5772 26.8443C48.6145 27.6781 48.5548 28.4785 47.842 29.0666C47.1591 29.1448 47.5622 29.9563 47.0957 30.1797C47.0323 30.4663 46.9576 30.9242 46.5957 30.5036C46.3158 30.176 46.2635 29.6548 46.1068 29.2118C45.3679 29.4054 45.6739 30.5333 44.644 30.3733C44.7373 29.4277 45.7001 28.5529 44.8791 27.2426C43.5357 29.6027 43.685 32.5621 41.4908 34.2857C41.2706 32.8413 41.3527 31.2481 39.6175 30.5668C39.3189 30.4068 39.2592 30.1239 39.2518 29.8223C38.9607 29.4426 39.0801 29.0666 39.4309 28.8917C39.9235 28.6497 40.0802 28.4673 40.013 27.827C39.9384 27.09 40.6997 26.9373 41.3602 26.9262C42.3602 26.9075 43.2521 27.0341 43.4051 28.3258C43.2073 27.1123 43.1402 25.9695 44.4761 25.3478Z" fill="#B4D174"/>
<path d="M43.2558 40.0073C44.6589 38.1758 44.0358 35.6593 45.3941 33.4258C45.7523 36.3592 45.0246 38.5555 43.2558 40.0073Z" fill="#B4D27A"/>
<path d="M36.7478 44.6643C37.2516 44.2324 37.7628 43.8118 38.2554 43.3651C38.5241 43.1194 38.8002 42.7285 39.1249 43.1864C39.3675 43.5289 39.1473 43.9272 38.8152 44.1282C38.2517 44.467 37.6472 44.735 37.0576 45.0328C36.9531 44.91 36.8523 44.7871 36.7478 44.6643Z" fill="#B9D584"/>
<path d="M47.0957 30.1797C47.036 29.7702 46.924 29.357 46.939 28.9475C46.9427 28.7763 47.1927 28.5008 47.3606 28.471C47.7637 28.4077 47.7861 28.7763 47.8458 29.0666C47.8458 29.8633 47.8458 30.6636 47.8458 31.5012C47.2151 31.2369 47.6592 30.4254 47.0957 30.1797Z" fill="#A3C557"/>
<path d="M39.8265 43.2534C40.7556 42.6503 41.6848 42.0436 42.9051 41.2544C42.1811 42.7248 41.0654 43.0449 39.8265 43.2534Z" fill="#B9D584"/>
<path d="M41.4908 34.282C41.4646 35.1047 40.8564 35.5067 40.1436 36.3331C40.2593 35.0749 40.2295 34.2113 41.4908 34.282Z" fill="#BAD583"/>
<path d="M43.0581 35.1047C43.2633 34.0847 43.2111 33.3029 44.2559 32.7743C44.1141 33.7013 44.0656 34.4383 43.0581 35.1047Z" fill="#B7D47F"/>
<path d="M48.5137 34.0959C48.2413 33.9172 48.2749 33.731 48.398 33.5896C48.51 33.4556 48.6705 33.3104 48.8309 33.2843C49.0623 33.2471 49.1406 33.4407 49.0138 33.6156C48.8757 33.8018 48.6742 33.9469 48.5137 34.0959Z" fill="#C9DEA1"/>
<path d="M6.02517 24.5958C6.78269 24.7336 7.42827 24.9532 7.27154 25.9508C7.1969 26.4311 7.52529 26.8145 7.92084 26.9038C8.48805 27.0341 8.18206 26.1742 8.65598 26.0923C9.35753 26.2151 9.63367 26.7921 9.95459 27.3133C10.8651 28.7949 11.9771 30.1015 13.2161 31.3188C14.3841 32.4654 15.9924 33.4481 14.9811 35.194C14.9289 35.0339 15.0222 34.591 15.358 34.1964C15.5558 34.1442 15.7312 34.1852 15.8879 34.3192C16.0708 34.5612 16.1603 34.8366 16.2014 35.1307C16.235 36.0055 16.3432 36.8878 16.026 37.7365C15.1267 38.2242 14.287 37.878 13.4847 37.4908C12.9772 37.2489 12.4921 36.9883 11.9212 36.9399C10.4808 36.5825 9.37246 35.8157 8.77912 34.4123C8.73808 33.504 9.1187 33.1652 10.0068 33.5077C10.5479 33.7161 10.9397 34.3304 11.7868 34.0437C11.4846 32.9791 10.5666 32.51 9.82025 31.8995C9.20453 31.4007 8.92093 30.5408 8.05518 30.3137C7.39468 29.9824 7.28646 29.0964 6.55506 28.8321C5.99904 28.4375 5.81246 27.8047 5.52512 27.2351C5.45795 26.7438 5.45422 26.2486 5.346 25.761C5.49527 25.3329 5.16689 24.6219 6.02517 24.5958Z" fill="#C0D674"/>
<path d="M9.02914 34.2931C9.76801 35.3764 10.6338 36.2885 12.0145 36.5193C12.1413 36.7091 12.1189 36.8766 11.9436 37.0255C10.0367 37.1111 8.29028 36.8059 7.16332 35.0302C6.54013 34.2857 5.91695 33.5412 5.29376 32.7967C5.09598 30.1834 3.96529 27.5664 5.29376 24.9532C5.65946 25.2547 5.31242 25.7908 5.67812 26.0923C6.26399 26.4683 5.77888 26.8331 5.66693 27.1979C5.70797 27.7526 5.9468 28.2588 6.05875 28.7986C6.29011 30.3509 7.7977 31.2555 8.08504 32.7781C8.08877 32.953 8.03652 33.1094 7.9395 33.2508C7.73799 33.4035 7.46185 33.2732 7.29766 33.3737C7.17451 33.4481 7.40961 33.6603 7.5029 33.7161C7.84621 33.9097 7.87233 33.3588 8.1746 33.3923C8.68583 33.4779 8.753 33.9842 9.02914 34.2931Z" fill="#A4C54E"/>
<path d="M7.1372 13.4169C7.279 13.1824 7.4208 12.9479 7.56261 12.7171C8.29028 13.4616 7.6447 14.4927 8.0813 15.3638C8.6 14.489 7.86114 13.4281 8.65971 12.6947C9.52172 13.6328 8.72688 14.7384 8.8239 15.5202C8.75673 15.4159 8.82763 15.1219 9.06273 14.8464C9.87623 14.9953 9.78667 15.6467 9.83518 16.22C9.50679 17.2884 9.46575 18.2935 9.7195 19.4549C10.0553 20.9961 9.01422 22.5112 9.07019 24.1268C9.08139 24.4134 8.6 24.4469 8.27908 24.3576C7.94697 24.0077 7.52902 23.6875 7.90219 23.1254C7.94323 22.0756 6.87971 21.4949 6.78269 20.501C6.82374 20.4265 6.86479 20.3521 6.90583 20.2776C7.45066 20.3111 7.58126 20.1622 7.51783 19.6448C7.41707 18.8147 7.48051 17.9696 7.279 17.1469C7.26034 16.8752 7.31632 16.6258 7.51783 16.4248C7.25661 15.4383 7.08122 14.4443 7.1372 13.4169Z" fill="#CBDC8B"/>
<path d="M15.3767 34.2783C15.3767 35.0414 15.3767 35.8082 15.3767 36.657C14.5557 36.3964 14.5184 35.8492 14.6527 35.5104C15.3767 33.7087 14.149 32.7706 13.0593 31.7953C11.2345 30.1611 9.90608 28.1621 8.65598 26.0923C8.65598 25.9695 8.65598 25.8429 8.65971 25.72C8.74181 25.694 8.8239 25.6642 8.906 25.6344C9.64113 25.7722 10.1151 26.2896 10.4061 26.8889C11.2569 28.6683 12.813 29.7925 14.3057 31.2481C14.5259 30.6562 14.4662 30.1239 14.5221 29.6176C14.5259 29.2453 14.5259 28.8693 14.5669 28.4971C14.7124 28.0467 14.6863 27.4399 15.4476 27.5702C16.0782 28.337 15.7349 29.3458 16.0932 30.1797C16.2947 31.0992 16.2163 32 15.9364 32.8935C15.8767 33.4072 15.7461 33.8911 15.3767 34.2783Z" fill="#B1CD5C"/>
<path d="M3.42421 32.4281C2.59205 30.712 2.34949 28.6385 0.457544 27.5664C0.547103 26.9336 0.241108 26.2524 0.916537 25.2771C1.69645 28.1546 3.48018 30.2318 4.43548 32.7371C4.4728 32.8339 4.26756 33.0275 4.17427 33.1727C3.92425 32.927 3.67423 32.6776 3.42421 32.4281Z" fill="#ACC851"/>
<path d="M7.52156 16.4248C7.53648 16.6704 7.55141 16.9161 7.56634 17.1618C7.22676 18.26 7.51409 19.4996 6.79015 20.5084V20.5047C5.15196 19.4065 6.08114 17.4373 5.2751 16.0562C5.37959 15.7659 5.64827 15.133 5.81992 15.5835C6.18563 16.5439 7.00659 16.0823 7.52156 16.4248Z" fill="#A4C544"/>
<path d="M5.31242 24.2347C3.82349 24.3576 4.12949 23.2743 4.34219 22.5558C4.5549 21.8411 5.11464 21.2306 5.69305 20.6387C5.26764 21.7592 6.24906 22.8276 5.68185 23.8885C5.77514 24.2385 5.64827 24.3464 5.31242 24.2347Z" fill="#C0D674"/>
<path d="M7.90592 23.1254C8.03652 23.4902 8.16713 23.8588 8.29774 24.2236C8.88361 24.6107 9.17095 25.0686 8.65971 25.72C7.83875 25.0202 7.32751 24.231 7.90592 23.1254Z" fill="#B1CD5C"/>
<path d="M5.31242 24.2347C5.43556 24.1193 5.55871 24.0039 5.68185 23.8885C5.98785 24.03 6.03636 24.298 6.02517 24.5958C5.49527 24.9979 5.73036 25.5786 5.67439 26.0923C5.23032 25.8206 5.31988 25.3664 5.29003 24.9532C5.29749 24.7149 5.30496 24.473 5.31242 24.2347Z" fill="#A3C54E"/>
<path d="M3.42421 26.7847C3.28613 26.58 3.13687 26.4571 3.12567 26.3194C3.10702 26.0737 3.22643 25.8354 3.52123 25.9136C3.62571 25.9434 3.7302 26.1891 3.72274 26.3343C3.72274 26.4608 3.56974 26.5837 3.42421 26.7847Z" fill="#D0DF90"/>
<path d="M20.2241 11.5742C20.5973 11.9465 20.9704 12.3187 21.3399 12.691C22.2952 13.0186 22.2131 12.0805 22.3623 11.7008C23.0825 9.88046 24.4371 8.37653 24.9596 6.46313C25.0043 6.30306 25.2506 6.277 25.4372 6.35145C25.9372 6.97684 26.4373 7.59851 26.9411 8.22391C27.0642 8.46588 27.053 8.73018 26.8814 8.91259C24.967 10.9712 23.549 13.4355 21.5227 15.401C20.6346 15.4308 19.3807 16.2907 19.321 14.4369C18.877 14.4518 18.3807 14.5932 18.2314 13.953C18.1791 13.7854 18.168 13.6142 18.1903 13.4392C18.3993 12.9702 18.6307 12.5086 18.709 11.9912C18.7501 11.1685 18.8882 10.3793 19.3845 9.69061C20.3883 9.65338 20.2092 10.4798 20.3808 11.0493C20.4032 11.2504 20.351 11.4253 20.2241 11.5742Z" fill="#B5D061"/>
<path d="M21.3436 15.2968C23.0825 12.8399 24.9409 10.4761 26.9448 8.22763C27.0679 8.22391 27.1911 8.22391 27.318 8.22763C27.3702 8.29836 27.4224 8.37281 27.4747 8.44354C27.1724 9.91396 26.6351 11.2578 25.3738 12.1885C24.0416 13.1675 23.4333 14.7273 22.3437 15.9036C21.9108 16.3354 21.6309 16.9087 21.1421 17.2847C20.7241 17.6048 20.2763 17.8431 19.9853 17.1246C19.9256 16.1344 20.3323 15.4904 21.3436 15.2968Z" fill="#A7C84C"/>
<path d="M25.4409 6.35889C24.1461 8.9647 22.8549 11.5705 21.5115 14.2768C20.7391 13.5323 21.2167 13.1265 21.3436 12.6947C22.8213 10.1187 24.1759 7.48311 25.6238 4.80285C25.5641 5.32029 25.5006 5.83773 25.4409 6.35889Z" fill="#A3C54A"/>
<path d="M19.4815 6.74604C20.9033 4.95176 21.657 2.5842 23.9445 1.52698C24.258 1.53443 24.5155 1.64983 24.7021 1.90669C24.2991 2.68843 23.9781 3.22076 22.9445 3.71214C21.2578 4.51994 19.9965 6.34028 20.2204 8.59989C20.1457 8.63339 20.0711 8.67062 19.9965 8.70412C19.8323 8.66317 19.7054 8.57011 19.6196 8.42493C19.4069 7.87771 19.5151 7.30443 19.4815 6.74604Z" fill="#BED676"/>
<path d="M30.2995 5.62182C31.5347 5.07088 32.7699 4.52738 34.0013 3.97272C34.4193 3.78287 34.8148 3.64885 35.132 4.13279C34.2887 5.52131 32.6505 5.66649 31.4004 6.39612C30.2809 7.04757 29.1427 7.6618 28.0829 8.41004C27.7956 8.48077 27.5344 8.43982 27.3105 8.23135C28.0307 7.04013 29.1054 6.26583 30.2995 5.62182Z" fill="#A7C84C"/>
<path d="M20.2241 11.5742C20.2241 11.4514 20.2204 11.3285 20.2204 11.2057C20.0562 10.3383 19.6755 9.46725 20.2241 8.59989C20.5599 8.49193 20.6532 7.85165 21.0824 8.07128C21.5339 8.30208 21.8623 8.89397 21.6197 9.29973C21.1607 10.0591 21.1272 11.0903 20.2241 11.5742Z" fill="#BED676"/>
<path d="M30.2995 1.52698C28.9114 1.80245 28.0979 3.00485 26.6127 3.94666C27.3478 2.5023 28.3479 1.91413 29.1726 1.16217C29.7659 0.626118 30.0309 1.06911 30.2995 1.52698Z" fill="#A3C54A"/>
<path d="M21.4891 6.98429C21.6832 5.87868 22.0004 5.39847 22.7056 5.02993C22.9258 6.02386 22.3064 6.29933 21.4891 6.98429Z" fill="#BED676"/>
<path d="M24.7058 1.90669C24.3923 1.89924 24.1125 1.82479 23.9445 1.52698C24.0714 1.39669 24.1946 1.2664 24.3214 1.13611C24.7245 0.97604 25.0976 0.868086 25.0715 1.52698C24.9521 1.65355 24.8289 1.78012 24.7058 1.90669Z" fill="#D4E2A2"/>
<path d="M9.4247 16.4061C9.36499 15.8924 9.55531 15.3154 9.04034 14.9208C8.87241 14.463 8.52164 13.953 9.37619 13.8003C9.51053 13.9269 9.64487 14.0572 9.7792 14.1838C10.0852 14.3811 10.2792 14.7198 10.7606 14.932C10.8912 13.0409 11.2383 11.2429 12.3876 9.71294C12.7309 9.49331 13.078 9.27368 13.4997 9.00193C13.7683 9.64221 13.2571 10.007 13.134 10.4575C13.1899 11.2541 12.9138 11.9949 12.7571 12.758C12.4996 13.536 12.6563 14.3364 12.6115 15.1219C12.5667 15.9185 13.3579 17.2251 11.5853 17.3368C11.186 17.3628 11.6264 17.7612 11.6637 17.9808C11.7719 18.6434 11.8764 19.2539 10.9024 19.2576C10.0927 19.0306 9.88369 18.3121 9.58143 17.6644C9.41724 17.2623 9.77174 16.7933 9.4247 16.4061Z" fill="#B6D061"/>
<path d="M15.7498 9.35557C15.9588 8.0415 17.3283 7.37888 17.5709 6.01642C17.6716 5.44686 18.2389 5.81912 18.4739 6.26211C18.7874 6.86144 18.2314 10.491 17.6828 10.852C17.2127 11.1647 16.1193 10.7478 16.4887 11.9577C15.2349 11.3732 16.0521 10.2043 15.7498 9.35557Z" fill="#C0D676"/>
<path d="M15.7498 9.35557C16.5895 10.0554 15.6491 11.2578 16.4887 11.9577C16.4775 12.7431 16.4141 13.5695 17.6119 13.4392C17.862 13.2345 18.112 13.201 18.362 13.4392C18.362 13.5621 18.3583 13.6887 18.3583 13.8115C18.6046 14.1912 18.6568 14.5672 18.3471 14.9394C17.7052 15.1256 18.0523 16.1828 17.2276 16.2163C16.4066 16.0711 16.4887 15.1479 15.9476 14.7608C15.7125 14.489 15.5259 14.1912 15.4289 13.8413C15.3431 13.4802 15.3319 13.1191 15.4327 12.7617C15.5073 12.5942 15.608 12.4416 15.7387 12.315C15.7984 11.3248 14.955 10.3346 15.7498 9.35557Z" fill="#D0DF90"/>
<path d="M12.3876 9.71294C12.1451 11.3285 11.0629 12.7655 11.3166 14.4816C11.4025 15.0437 11.604 15.684 10.895 15.8515C10.2904 15.9929 10.1785 15.2968 9.96206 14.8873C9.85011 14.6789 9.83891 14.4183 9.7792 14.18C10.8465 13.0968 10.4472 11.3546 11.548 10.2825C11.7943 10.0405 11.7159 9.33696 12.3876 9.71294Z" fill="#C5D87B"/>
<path d="M15.7387 12.3113C15.7387 12.4416 15.7387 12.5719 15.7387 12.7022C15.6043 12.8287 15.4662 12.9516 15.3244 13.0744C13.6788 14.4965 13.6788 14.4965 12.3914 12.6985C12.4175 11.8795 12.5966 11.1126 13.1377 10.4649C13.9885 11.0977 15.1267 11.336 15.7387 12.3113Z" fill="#C6D97C"/>
<path d="M19.4815 6.74604C20.1196 7.25976 19.7576 7.98194 19.8696 8.60361C20.0412 9.07638 19.7875 9.40769 19.5002 9.73155C19.2427 10.5729 19.0412 11.4216 19.0934 12.3076C18.9441 12.5719 18.7202 12.8362 18.4254 12.6985C18.1381 12.5644 18.1456 12.2331 18.3172 11.9539C18.7053 10.2192 19.0934 8.48077 19.4815 6.74604Z" fill="#D0E09C"/>
<path d="M13.8616 6.75349C13.9064 6.00153 14.3953 5.58087 14.9998 5.24956C15.1267 5.62182 15.2535 5.99408 15.3804 6.36634C14.5893 6.6902 14.7759 7.91493 13.8355 8.13084C13.384 7.61713 13.9848 7.2002 13.8616 6.75349Z" fill="#CFE09A"/>
<path d="M9.37246 13.8003C8.96197 14.0833 9.0478 14.5151 9.03661 14.9208C9.01795 15.2745 8.99929 15.6281 8.98436 15.9818C8.87615 15.9855 8.76793 15.9892 8.65971 15.9929C8.65971 14.8948 8.65971 13.7966 8.65971 12.6985C9.02541 12.5831 9.39485 12.4677 9.76055 12.3523C9.63367 12.8325 9.50306 13.3164 9.37246 13.8003Z" fill="#DFE8AC"/>
<path d="M18.3172 11.9539C18.3471 12.5719 18.668 12.5533 19.0934 12.3076C19.1158 12.8548 18.8583 13.2233 18.362 13.4355C18.112 13.4355 17.862 13.4355 17.6119 13.4355C17.847 12.9404 18.0821 12.449 18.3172 11.9539Z" fill="#C0D676"/>
<path d="M20.9704 2.26778C21.0973 2.14865 21.2204 2.02581 21.3473 1.90669C21.3436 2.08165 21.3697 2.26405 21.3249 2.42785C21.2428 2.72565 21.2913 3.17236 20.7465 3.07185C20.8212 2.80383 20.8958 2.5358 20.9704 2.26778Z" fill="#BED676"/>
<path d="M37.7554 16.421C37.2852 16.9757 35.7515 16.8864 36.6359 18.2637C36.2403 19.2241 35.2626 19.2316 34.4865 19.5666C33.5909 19.6746 32.5982 19.5778 32.1952 20.6908C31.74 21.0631 31.1914 21.2455 30.7809 21.4093C31.8146 21.2529 32.643 20.3968 33.6692 19.9389C33.9491 19.8868 34.1991 19.9352 34.4044 20.1436C34.8969 20.9961 35.4306 21.8151 36.2776 22.3734C36.468 22.5856 36.5575 22.835 36.5351 23.118C36.1433 24.0747 35.6433 24.4246 34.8522 23.453C33.8894 22.2729 32.6729 22.299 31.378 22.768C30.5832 23.1031 29.7659 23.2743 28.9039 23.0845C28.0829 22.7308 27.3441 23.1217 26.5828 23.3339C26.2209 23.4344 25.8178 23.4604 25.5529 23.1477C25.1835 22.7085 25.5193 22.325 25.7843 22.0124C27.2471 20.2702 29.1427 19.1646 31.2549 18.4052C32.5796 17.9287 33.9864 17.6234 35.0611 16.6183C35.6619 16.2907 36.2888 16.0674 36.9829 16.0599C37.2852 16.0823 37.5539 16.1791 37.7554 16.421Z" fill="#BBD36C"/>
<path d="M40.7482 18.6546C40.472 17.9696 39.8936 17.8766 39.2555 17.9026C39.0689 17.5155 39.2816 17.2288 39.4981 16.9459C40.3302 15.0362 41.9572 15.2149 43.5917 15.3936C44.4313 15.442 45.2709 15.1702 46.0994 15.3378C46.5024 15.4197 47.1479 15.267 47.092 16.0413C47.3196 16.4173 47.3308 16.7896 47.092 17.1656C46.3382 17.8766 45.3157 17.5788 44.45 17.8617C43.5581 18.2079 42.4274 17.3442 41.6773 18.4089C41.3975 18.6136 41.1213 18.8221 40.7482 18.6546Z" fill="#B9D26A"/>
<path d="M43.3752 15.6802C41.849 15.4718 40.6213 16.019 39.6287 17.1581C38.9719 17.3182 39.2145 16.5774 38.8823 16.4136C38.5092 16.4136 38.1323 16.4173 37.7591 16.4173C37.5128 16.4136 37.2628 16.4099 37.0165 16.4061C36.871 15.7659 37.3971 15.9855 37.5501 15.8478C37.0762 15.7435 36.3821 16.3056 35.8373 15.6616C36.9605 14.2582 38.7219 14.2061 40.222 13.5956C40.4123 13.5584 40.6026 13.5509 40.7967 13.5695C42.0393 13.8711 43.6029 13.4876 44.2298 15.1367C44.1178 15.5946 43.838 15.777 43.3752 15.6802Z" fill="#C5D97D"/>
<path d="M44.0992 17.5266C45.0396 16.9608 46.0882 17.24 47.0882 17.1581C47.3457 17.2735 47.5995 17.3889 47.857 17.5043C47.7264 17.8766 46.8867 17.5453 47.0957 18.26C45.2336 18.5317 43.3641 18.7812 41.5057 19.0864C41.0691 19.1571 40.7892 19.172 40.7444 18.6546C40.9907 18.5243 41.237 18.3977 41.487 18.2674C42.1737 17.3777 43.2969 18.0069 44.0992 17.5266Z" fill="#D1E096"/>
<path d="M36.2814 23.1031C36.2814 22.8574 36.2776 22.6154 36.2776 22.3697C37.8412 22.0124 39.054 20.9551 40.472 20.3037C40.8303 20.1399 41.3452 19.5406 41.502 20.5084C41.1288 20.7578 40.7594 21.0073 40.3862 21.2567C40.0205 21.5917 39.7257 22.0049 39.2779 22.2469C38.707 22.5633 38.1435 22.8872 37.6061 23.2594C37.1322 23.5796 36.6396 23.8178 36.2814 23.1031Z" fill="#CEDE92"/>
<path d="M43.3752 15.6802C43.6141 15.5499 43.8566 15.4197 44.0955 15.2931C44.3977 14.9432 44.7858 14.8613 45.2261 14.932C46.2971 14.8538 47.2524 15.2447 48.1928 15.6765C48.0697 15.8031 47.9503 15.9297 47.8271 16.0562C47.5808 16.0488 47.3345 16.0413 47.0882 16.0339C46.2673 15.4122 45.3754 15.643 44.5059 15.8626C44.0768 15.9706 43.6924 16.1269 43.3752 15.6802Z" fill="#ACC850"/>
<path d="M34.4081 19.3954C35.1507 19.0157 35.8933 18.6397 36.6359 18.26C36.9232 18.1967 37.3561 17.9882 37.4718 18.1036C37.8487 18.4722 37.4867 18.77 37.1695 18.9301C36.3 19.373 35.397 19.7416 34.4006 19.7788C34.3185 19.6932 34.2924 19.6076 34.3223 19.5219C34.3484 19.44 34.3782 19.3954 34.4081 19.3954Z" fill="#D2E199"/>
<path d="M34.4081 19.3954C34.4044 19.5219 34.4044 19.6485 34.4006 19.7751C34.4044 19.8942 34.4044 20.017 34.4044 20.1362C34.1618 20.1362 33.9192 20.1324 33.6767 20.1324C33.1878 20.326 32.8072 20.9775 32.1579 20.4861C32.3594 19.0045 33.2774 18.9859 34.4081 19.3954Z" fill="#C2D77A"/>
<path d="M38.8786 16.4136C39.5615 16.2275 39.2891 16.998 39.6249 17.1581C39.5018 17.4038 39.3749 17.6532 39.2518 17.8989C38.9309 18.0515 38.3524 18.3754 38.3263 18.3344C37.774 17.5118 38.5987 17.039 38.8786 16.4136Z" fill="#BBD36C"/>
<path d="M47.0957 18.26C46.9576 18.0739 46.6628 17.7761 46.7001 17.7202C46.9987 17.3219 47.4726 17.6271 47.857 17.5006C48.107 17.5899 48.5697 17.6011 48.3682 17.9845C48.107 18.4908 47.5323 18.1967 47.0957 18.26Z" fill="#DCE7B1"/>
<path d="M31.7922 43.5847C31.0459 43.0114 30.2958 43.0487 29.5383 43.5624C28.18 44.184 26.8179 44.1654 25.4521 43.5847C24.8178 42.9258 25.6089 41.3102 23.9445 41.3437C23.2952 40.7109 22.3175 41.8053 21.713 40.9193C22.0899 40.0669 23.0191 39.7021 23.4856 38.924C24.3289 38.3805 25.3103 38.1609 26.2059 37.7291C26.4746 37.6397 26.747 37.5988 27.0306 37.5951C28.3031 37.744 28.7546 38.9873 29.6838 39.6053C30.1652 39.9217 29.945 40.3423 29.445 40.5434C28.9188 40.7556 28.3666 40.5731 27.8292 40.6029C27.4859 40.588 27.1351 40.5918 26.9075 40.2679C27.2918 40.8412 28.1091 40.4205 28.5046 40.9603C28.5531 41.139 28.527 41.3028 28.4188 41.4554C28.1874 41.5373 27.9449 41.5447 27.7023 41.5187C27.8031 41.5485 27.9188 41.5447 28.0456 41.5596C28.9897 41.6862 29.8256 41.2953 30.6914 41.0347C31.5571 40.7779 32.4117 40.4056 33.3446 40.7481C33.8894 41.2544 35.2664 41.1278 35.0499 42.0101C34.8447 42.8514 33.8409 43.4693 32.8184 43.6368C32.4826 43.6927 32.1206 43.8862 31.7922 43.5847Z" fill="#BDD571"/>
<path d="M31.7922 43.5847C33.061 43.5773 33.77 42.5349 34.7962 41.8686C34.2663 41.6452 33.5088 41.7085 33.2886 40.9864C34.3484 40.3461 35.4306 39.8994 36.6434 40.6029C38.0539 41.6192 36.9046 42.3414 36.2627 42.9295C35.494 43.6294 34.5312 44.1133 33.6506 44.694C33.2289 43.9905 32.2773 44.1766 31.7922 43.5847Z" fill="#C3D882"/>
<path d="M21.7168 40.9826C22.4258 41.2916 23.34 40.3498 23.9408 41.3437C22.6758 41.5969 21.407 41.85 19.989 42.1366C20.9144 43.6257 21.7503 44.9658 23.2803 45.6731C23.7132 45.8741 23.8699 46.09 23.5266 46.4921C23.1982 46.4995 22.8736 46.5069 22.5452 46.5144C22.0601 46.3394 22.0563 45.7736 21.7168 45.4832C20.5338 44.7462 19.8621 43.5735 19.0971 42.4754C18.3172 42.1031 18.2053 41.3586 18.0672 40.629C18.0821 40.2456 18.1642 39.8994 18.5934 39.7653C18.9852 39.81 19.2054 40.0929 19.4255 40.3721C19.9368 41.1688 20.7726 40.8151 21.4705 40.9454C21.5526 40.9566 21.6347 40.9677 21.7168 40.9826Z" fill="#A9C854"/>
<path d="M25.4521 43.5847C26.8142 43.5773 28.1762 43.5698 29.5383 43.5661C29.7211 43.581 29.9227 43.5549 30.0831 43.6219C30.5645 43.8267 30.2324 43.9235 30.0085 43.9868C27.7023 44.6643 25.3962 44.2138 23.0788 44.0724C23.8065 43.3986 24.6573 43.6741 25.4521 43.5847Z" fill="#CFDF90"/>
<path d="M36.2814 28.3147C37.9382 28.7093 39.2257 31.3709 38.3002 32.7073C37.2143 34.2783 36.9493 35.5886 38.4644 37.1298C39.554 38.2354 38.6547 39.5048 36.6471 39.8733C36.5015 39.9887 36.3486 39.9961 36.1918 39.8956C36.0239 39.7244 36.0314 39.4713 35.9008 39.2814C35.8075 39.5308 35.7515 39.8026 35.5239 39.9813C35.2776 40.1004 35.0313 40.0967 34.785 39.9738C34.3111 39.2591 34.7439 38.0753 33.5125 37.7254C33.0423 37.5914 33.214 36.9325 33.505 36.8394C35.0499 36.3331 33.8409 35.8194 33.5535 35.3057C33.8558 34.4569 34.6954 34.7994 35.1768 34.5612C34.1879 34.4309 33.3632 35.3206 32.3072 35.2759C31.4862 35.0526 30.8891 34.3639 30.0346 34.2038C29.7211 34.0884 29.4338 33.9283 29.1726 33.7273C28.2173 33.4853 27.2545 33.7422 26.3067 33.7608C25.7208 33.772 24.4595 33.8688 25.1611 35.1977C24.355 36.2066 23.1012 36.1917 22.019 36.5267C21.2391 36.7687 21.0376 36.2661 21.2913 35.57C21.3324 35.4546 21.3921 35.3392 21.4779 35.2536C22.9892 33.8315 24.3662 32.2606 26.0492 31.021C26.2992 30.8386 26.6127 30.779 26.9299 30.8498C27.1202 31.0955 27.2806 31.3449 27.0045 31.6389C27.303 31.5906 27.1948 31.2965 27.3068 31.1327C28.1538 29.8782 29.542 29.759 30.8369 29.4687C31.3407 29.357 31.878 29.4985 32.3743 29.398C31.4526 29.3719 30.4078 29.6846 29.8406 28.5418C30.4078 27.518 31.5011 28.5827 32.1654 27.9536C32.2885 27.9499 32.4154 27.9499 32.5385 27.9536C33.7476 28.4748 35.0686 27.8307 36.2814 28.3147Z" fill="#BED572"/>
<path d="M32.1654 27.9573C31.5944 28.7353 30.5011 27.9201 29.9264 28.6869C29.3592 29.0778 28.6912 29.0704 28.0494 29.1709C27.7993 29.0592 27.6314 28.8768 27.5493 28.6162C27.471 27.894 27.9859 27.358 28.2173 26.5874C25.8887 27.9275 23.2691 28.5194 21.4369 30.5333C21.0749 30.9317 20.5002 31.1364 19.8994 31.0545C19.0188 30.4626 19.4218 29.9005 19.9965 29.4352C20.4778 29.0518 21.0152 28.7428 21.3436 28.1956C21.7988 27.8642 22.3661 27.8419 22.8661 27.6335C23.2094 27.4883 23.146 27.3356 22.9109 27.1421C22.3399 26.3789 22.6646 25.6716 23.0266 24.9644C23.2505 24.674 23.549 24.4693 23.8513 24.2682C25.2879 23.5609 26.7955 23.0398 28.3292 22.5894C28.7248 23.0547 29.0681 23.5647 29.6167 23.896C31.0981 24.782 31.0907 24.7931 30.266 26.1556C30.0645 26.297 30.5085 26.4795 30.3145 26.3268C30.2436 26.271 30.2884 26.2338 30.3555 26.1481C30.7548 25.6307 31.3034 25.6233 31.8706 25.6791C32.2624 25.6046 32.5236 25.3441 32.7512 25.0351C33.046 24.6554 33.2699 24.1975 33.7998 24.0709C34.2999 24.0486 34.7813 24.1938 35.2664 24.2682C37.386 24.5884 38.1136 25.4446 38.1285 27.5739C36.8934 28.1397 36.3859 27.451 36.0538 26.1854C34.7775 28.2328 32.7923 27.384 31.0496 27.6223C31.3183 28.1881 31.8071 27.8419 32.1654 27.9573Z" fill="#BDD46D"/>
<path d="M38.1323 27.5813C37.8188 24.8974 35.5388 24.8303 33.658 24.2347C32.5609 24.0337 31.2847 24.0449 31.419 22.3734C33.0199 21.6364 34.4156 21.7667 35.3634 23.4046C35.5164 23.6689 35.5574 23.8401 35.8187 23.6615C36.009 23.5312 36.1284 23.2966 36.2776 23.1105C37.5987 23.6131 38.0465 21.8002 39.2518 22.0012C39.3078 23.0696 38.2144 23.1887 37.8636 23.8141C38.6062 23.7024 38.7816 22.1426 39.9944 22.7457C40.6437 23.7731 41.6139 23.6912 42.6177 23.5014C42.9349 23.922 43.8902 23.7061 43.7298 24.607C41.349 24.6256 39.554 25.7535 38.1323 27.5813Z" fill="#C0D675"/>
<path d="M44.4761 25.3478C43.5469 26.2822 43.7298 27.4845 43.7372 28.6795C42.9872 28.5939 43.1028 27.8382 42.6998 27.5404C41.9498 26.9932 40.6176 27.5069 40.4907 28.4822C40.3862 29.2826 39.11 28.8768 39.2555 29.8186C38.192 28.6311 38.7629 27.4771 39.7555 26.8778C41.1624 26.029 42.5879 24.8638 44.4761 25.3478Z" fill="#AECE6E"/>
<path d="M36.2665 39.8584C36.3933 39.8659 36.5239 39.8696 36.6508 39.877C36.6508 40.119 36.6471 40.361 36.6471 40.6029C35.5276 40.7295 34.4118 40.8598 33.2923 40.9864C32.6094 40.9193 31.9676 41.0794 31.3332 41.3251C29.9077 41.8723 28.471 42.293 26.9485 41.5559C27.4038 41.1539 27.9561 41.4442 28.4449 41.3474C30.46 40.4429 32.4378 39.3633 34.785 39.8659C35.035 39.8659 35.2813 39.8659 35.5313 39.8621C35.7701 39.6425 36.0164 39.6425 36.2665 39.8584Z" fill="#B2CF61"/>
<path d="M48.5809 25.7275C48.4316 25.0946 48.551 24.8527 49.2563 24.4618C50.2527 23.9071 50.5549 24.5921 51.0736 24.9495C51.9207 25.5339 51.5102 26.1965 51.111 26.8852C50.5437 26.6135 51.0401 25.5116 50.2042 25.6233C49.581 25.7089 49.7414 26.3752 49.6967 26.8443C49.3272 26.4683 48.9541 26.0997 48.5809 25.7275Z" fill="#BBD46F"/>
<path d="M43.7335 24.5958C43.4499 24.1379 42.7707 24.0784 42.6215 23.4902C44.0731 23.453 45.1366 21.9975 46.7039 22.3772C45.7635 22.8425 44.8679 23.3525 44.8493 24.5884C44.4761 24.5921 44.1029 24.5958 43.7335 24.5958Z" fill="#CADC87"/>
<path d="M36.2814 28.3147C35.035 28.1621 33.7215 28.7093 32.5348 27.9536C33.7812 28.1137 35.0947 27.5813 36.2814 28.3147Z" fill="#BDD46D"/>
<path d="M39.9981 22.7383C38.7293 22.8388 38.3039 24.4693 36.8934 24.4841C37.7218 23.6093 38.4905 22.8015 39.2555 21.9937C39.4682 21.5024 39.8414 21.2529 40.3825 21.2604C40.4235 21.7964 40.2593 22.2804 39.9981 22.7383Z" fill="#C8DB87"/>
<path d="M28.0531 8.20902C29.2435 6.24722 31.6056 6.13926 33.2849 4.94059C33.8222 4.55716 34.5163 4.39709 35.1395 4.13279C36.0239 3.76425 36.912 3.39572 37.7964 3.02718C38.8376 3.75309 40.013 3.23565 41.1176 3.38455C39.8451 4.0844 38.5054 4.59811 37.0762 4.88475C36.2478 5.05227 35.5015 5.31657 35.5462 6.38123C35.7142 6.90984 35.3373 7.1518 35.0052 7.41611C34.4044 7.98566 33.3334 7.88888 32.9938 8.83441C32.7998 9.18433 32.5012 9.21784 32.1579 9.12477C31.6915 8.82324 31.1541 8.65201 30.6914 8.35792C30.9377 8.41748 30.363 8.27975 30.5869 8.19413C30.6727 8.16062 30.5272 7.90377 30.4637 7.9596C29.7398 8.58127 29.1278 9.37419 28.0643 9.45608C27.4448 9.04288 27.4933 8.62967 28.0531 8.20902Z" fill="#C0D676"/>
<path d="M31.74 4.35614C31.4676 4.40082 31.2586 4.38593 31.3481 4.14396C31.4004 4.0025 31.6056 3.86849 31.7661 3.83498C31.9116 3.80148 32.0833 3.90944 32.2475 3.95411C32.0572 4.10301 31.8706 4.25564 31.74 4.35614Z" fill="#B9D36D"/>
<path d="M43.3603 8.59989C42.9648 9.14339 42.3789 8.91259 41.8639 8.96842C41.6363 9.3928 41.2594 9.53798 40.8004 9.52309C39.2779 9.47097 37.7591 9.48214 36.2366 9.51937C35.7254 9.53053 35.2664 9.41886 35.0014 8.91631C34.9902 7.90004 35.5052 7.84048 36.2627 8.22391C38.6249 8.44354 41.0318 7.78092 43.3603 8.59989Z" fill="#B1CE5D"/>
<path d="M39.2555 5.62182C39.722 5.36869 40.2071 5.19745 40.7482 5.25329C41.6662 5.38358 42.6886 4.90336 43.6999 5.84146C42.058 6.60086 40.6549 6.12437 39.2555 5.62182Z" fill="#CBDD90"/>
<path d="M36.2665 8.22391C35.7366 8.24252 35.1619 8.19413 35.1246 8.96842C34.8708 9.61988 34.3894 9.72039 33.7849 9.51937C33.5386 9.17317 33.4789 8.64828 32.9154 8.60733C33.1655 7.65063 34.1058 7.5464 34.7775 7.11086C35.0686 7.44217 35.5425 7.19275 35.8597 7.44961C35.994 7.71019 36.1284 7.96705 36.2665 8.22391Z" fill="#CADC8F"/>
<path d="M36.2553 6.344C37.0613 5.88613 37.9457 5.69255 38.86 5.62927C38.2256 6.20627 37.6136 6.82049 36.6471 6.74232C36.5015 6.62692 36.2777 6.58225 36.2553 6.344Z" fill="#CBDD90"/>
<path d="M36.2553 6.344C36.3859 6.47802 36.5165 6.60831 36.6508 6.74232C36.3859 6.97684 36.1247 7.21509 35.8597 7.44961C35.3821 7.70275 34.8596 8.10478 34.7775 7.11086C35.035 6.86517 35.2888 6.6232 35.5462 6.37751C35.7813 6.36634 36.0202 6.35517 36.2553 6.344Z" fill="#DEE9BA"/>
<path d="M7.15959 35.0302C8.54776 36.2401 10.324 36.4448 12.0107 36.8803C12.369 36.7165 12.4436 36.9362 12.4697 37.2117C12.5929 37.3792 11.6562 37.4052 12.4212 37.7068C13.4474 38.1088 14.5371 38.3954 15.4327 39.0953C15.5073 39.676 15.0893 39.851 14.6639 40.0222C12.8354 39.9142 11.3166 38.6374 9.45455 38.6374C9.04407 38.6113 8.85749 38.2986 8.65598 38.0046C8.65971 37.8817 8.65598 37.7589 8.65598 37.6323C8.37984 36.6384 7.11481 36.2103 7.15959 35.0302Z" fill="#BAD26C"/>
<path d="M9.39858 38.3805C11.3913 38.0008 12.9063 39.2963 14.6341 39.8547C16.9067 40.4987 17.1082 42.5126 17.6082 44.3292C15.5931 44.0426 13.675 43.4768 11.8876 42.2967C12.2384 42.1552 12.5406 42.0361 12.9213 41.8835C11.3241 40.8263 9.38365 40.4317 8.2343 38.857C7.73053 38.1646 8.09623 38.1609 8.66344 38.3731C9.91728 39.4154 11.4025 40.0185 12.7906 40.5322C11.8092 39.7393 9.96952 40.0594 9.39858 38.3805Z" fill="#C7DA86"/>
<path d="M17.6082 44.333C16.4663 42.9407 16.3768 40.8523 14.6341 39.8584C14.8729 39.6053 15.1155 39.3521 15.3543 39.099C14.4774 38.3098 13.0444 38.4103 12.3839 37.2675C12.2608 37.1372 12.1339 37.0106 12.0107 36.8803C12.0145 36.7612 12.0145 36.6384 12.0107 36.5193C13.3653 36.7352 14.4848 37.543 15.7387 38.012C16.1641 38.2391 16.3283 38.656 16.4999 39.0655C16.7984 40.4019 17.8843 41.4331 17.9851 42.8439C17.7724 44.1915 19.1419 44.5935 19.5972 45.5428C19.6121 45.5763 19.5636 45.6768 19.5225 45.6917C19.4106 45.7289 19.2874 45.7364 19.168 45.755C18.7725 45.4051 18.3769 45.0589 17.9814 44.7089C17.8582 44.5786 17.7351 44.4558 17.6082 44.333Z" fill="#B1CD5C"/>
<path d="M9.39858 38.3805C10.6226 39.4266 12.2309 39.7914 13.4773 40.8114C11.6749 40.4019 9.74935 40.2418 8.65971 38.3731C8.65971 38.2503 8.65971 38.1274 8.65598 38.0008C8.906 38.1274 9.15229 38.254 9.39858 38.3805Z" fill="#D4E29C"/>
<path d="M40.3713 11.9428C41.8639 12.2257 43.3529 12.7171 44.8455 11.9539C44.8903 12.4677 45.4202 12.8622 45.2112 13.4355C44.9687 13.5658 44.7261 13.6998 44.4835 13.8301C44.2746 14.0311 44.0208 14.0833 43.741 14.0646C43.1513 13.8971 42.5543 13.7594 41.9311 13.8041C41.6699 13.8003 41.4124 13.7892 41.1624 13.7073C40.528 13.2233 39.8302 13.6514 39.1697 13.5844C38.8749 13.4988 38.7256 13.2978 38.6995 13C38.942 12.1475 39.4607 11.738 40.3713 11.9428Z" fill="#D8E4A7"/>
<path d="M43.7633 13.7929C44.0022 13.8041 44.241 13.8152 44.4798 13.8264C44.7186 14.1987 45.2821 14.355 45.2224 14.9283C44.9425 15.3564 44.5059 15.2819 44.0917 15.2894C43.4126 13.8115 41.7445 14.5672 40.7407 13.8152C40.6437 13.7296 40.6026 13.6328 40.6176 13.5323C40.6325 13.4281 40.6549 13.376 40.681 13.3722C40.8452 13.2866 40.9982 13.2978 41.1363 13.4206C41.3825 13.4318 41.6251 13.4467 41.8714 13.4579C42.4535 13.8636 43.1849 13.402 43.7633 13.7929Z" fill="#B9D26A"/>
<path d="M45.2112 13.4355C44.7895 13.0149 44.3343 12.6017 44.8455 11.9539C45.4724 12.3225 45.9426 12.7282 45.2112 13.4355Z" fill="#C5DA85"/>
<path d="M40.3713 11.9428C39.8265 12.2406 39.1659 12.3858 38.901 13.0521C38.0465 13.8525 37.0277 13.1452 36.1023 13.3611C37.5315 13.4839 38.9906 13.309 40.3713 13.8115C38.8749 14.4295 37.3822 15.0437 35.8858 15.6616C35.8373 16.3764 34.9678 16.4992 34.8186 17.1432C32.3631 18.219 29.7286 18.8928 27.4448 20.3632C27.2284 20.501 26.9672 20.4191 26.7321 20.3484C26.5679 20.2627 26.4597 20.125 26.4112 19.9463C26.7246 18.3344 28.1949 17.1991 28.277 15.4867C28.6688 14.9022 29.3816 14.7645 29.9152 14.7794C31.434 14.8203 32.4378 13.9641 33.6058 13.0484C31.5123 14.1614 29.3256 14.7124 27.3515 15.7659C26.7694 15.3713 26.9037 14.6491 26.4671 13.8934C26.3029 16.0041 24.5789 16.287 23.3027 17.0725C22.9295 17.0464 22.6198 16.8789 22.3474 16.6332C22.1048 16.354 21.9108 16.0637 22.0862 15.6728C23.2691 13.1414 25.8701 11.6561 26.9933 9.08382C27.1164 8.80463 27.206 8.51427 27.3105 8.23135C27.5568 8.22391 27.8031 8.22018 28.0494 8.21274C27.8404 8.59244 27.8217 8.97215 28.0606 9.35185C28.2882 9.79856 27.8702 9.97724 27.7471 10.2006C28.639 9.51937 29.3181 8.3877 30.6652 8.22763C31.2511 8.3058 32.046 7.97822 32.1654 8.97959C32.546 9.55659 33.2737 8.73762 33.6468 9.35185C34.1879 9.41141 34.673 9.25879 35.1283 8.97587C37.3748 8.97587 39.6212 8.97587 41.8677 8.97959C41.9684 9.19178 42.0356 9.55659 42.1811 9.5901C43.6738 9.94002 43.1812 10.4612 42.308 10.9749C41.6811 11.3323 41.0168 11.6189 40.3713 11.9428Z" fill="#BCD46E"/>
<path d="M17.9851 42.8402C17.0522 41.7532 16.4701 40.495 16.1118 39.1213C16.4066 38.8161 16.9029 38.4029 17.1492 38.764C17.5895 39.4117 17.5746 38.4513 17.8097 38.6672C18.8061 39.0878 17.8545 40.052 18.3545 40.6141C18.6008 41.2358 18.8471 41.8537 19.0934 42.4754C18.724 42.5945 18.3545 42.7174 17.9851 42.8402Z" fill="#C6D97E"/>
<path d="M21.7168 45.4795C22.2205 45.6433 22.4034 46.0602 22.5452 46.5107C22.2802 46.5181 22.0153 46.5256 21.7466 46.5293C21.7354 46.1831 21.7279 45.8294 21.7168 45.4795Z" fill="#C6D97E"/>
<path d="M9.02914 34.2931C8.77912 34.0437 8.52537 33.798 8.27535 33.5486C8.14474 33.4332 8.08877 33.2918 8.10743 33.1205C8.15967 32.5882 8.46566 32.2159 8.88361 31.9181C9.16348 31.7357 9.46948 31.6427 9.80906 31.6687C11.1599 31.6948 11.507 33.1019 12.5033 33.6529C12.8727 33.8576 12.3391 34.2448 12.1301 34.5202C11.5555 35.2796 11.0741 34.6356 10.5367 34.4532C10.0553 34.282 9.67472 32.8674 9.02914 34.2931Z" fill="#CADB85"/>
<path d="M17.6119 38.7454C17.3246 39.7169 16.526 38.6597 16.1118 39.1213C15.9887 38.7491 15.8618 38.3805 15.7387 38.0083C15.7424 37.0144 15.7461 36.0167 15.7498 35.0228C16.5783 35.9348 16.22 34.4234 16.6753 34.5723C17.6455 35.8194 17.8097 37.2414 17.6119 38.7454Z" fill="#C9DB85"/>
<path d="M7.90219 32.8041C7.20063 31.4119 5.65573 30.4775 5.67439 28.6981C5.85351 28.6125 6.02517 28.6348 6.16324 28.7688C6.37594 28.9773 6.45804 29.2639 6.57372 29.532C6.51774 29.2267 6.52147 28.9364 6.78269 28.7093C7.92084 28.5604 7.55141 29.934 8.28281 30.1909C8.42462 30.3249 8.52164 30.4887 8.57015 30.6785C8.57761 31.4565 8.47313 32.2011 7.90219 32.8041Z" fill="#B5D066"/>
<path d="M16.5111 34.6356C16.4924 35.0228 16.4738 35.4062 16.4439 35.9385C16.1454 35.5439 15.9476 35.2834 15.7498 35.0228C15.7461 34.7771 15.7424 34.5314 15.7387 34.2857C15.4513 33.8018 15.4849 33.3625 15.9215 32.9791C16.276 32.7929 16.6454 32.7743 17.0261 32.8823C17.959 33.4295 17.8396 33.9246 16.9477 34.3825C16.7947 34.4532 16.6492 34.5351 16.5111 34.6356Z" fill="#D0DF91"/>
<path d="M6.77896 28.7056C6.73418 28.981 6.73791 29.4761 6.63716 29.4985C6.04009 29.625 6.11473 28.8433 5.67439 28.6944C5.43556 28.1993 4.9915 27.7042 5.6632 27.1979C6.43192 27.4064 6.26772 28.3035 6.77896 28.7056Z" fill="#CADC88"/>
<path d="M8.29774 30.5408C8.30147 30.4217 8.29401 30.3063 8.28281 30.1871C9.29036 30.1685 9.55157 30.913 9.80906 31.665C9.62994 31.9628 9.3426 32.041 9.02168 32.0596C7.8686 31.9851 8.81271 30.9168 8.29774 30.5408Z" fill="#DAE6AA"/>
<path d="M16.1305 33.154C15.6827 33.4221 15.761 33.8725 15.7387 34.2857C15.6192 34.282 15.4961 34.2783 15.3767 34.2783C15.3804 33.7906 15.3841 33.3029 15.3879 32.8116C15.8245 32.5175 16.1155 32.5361 16.1305 33.154Z" fill="#C9DB85"/>
<path d="M8.28654 33.1652C8.28281 33.2918 8.27908 33.4221 8.27535 33.5486C7.64843 33.8464 8.36118 34.4234 7.99548 34.993C7.35363 34.1256 6.80508 33.3886 6.23041 32.6143C7.09988 32.1936 7.26407 33.3104 7.91338 33.1615C8.04026 32.9902 8.1634 32.9828 8.28654 33.1652Z" fill="#B5D066"/>
<path d="M8.28654 33.1652H8.09996C8.09996 33.1652 7.91338 33.1652 7.91711 33.1652C7.90965 33.0461 7.90592 32.9232 7.90219 32.8041C7.79397 32.0075 8.14847 31.2927 8.29774 30.5408C8.5403 31.0471 8.77912 31.5533 9.02168 32.0596C8.77539 32.4281 8.5291 32.7967 8.28654 33.1652Z" fill="#C0D674"/>
<path d="M9.4247 16.4061C9.83145 16.6891 9.77174 17.1172 9.78294 17.5266C10.4546 19.6969 11.2196 21.8262 12.3317 23.8178C12.6414 24.6368 13.3355 25.3701 12.9287 26.3566C12.2981 26.9485 12.007 26.0141 11.3801 26.0402C11.5928 27.2872 12.1936 28.1732 13.3765 28.6237C14.0258 28.8731 14.5445 29.2826 14.9886 29.8037C14.9028 30.511 14.8132 31.2183 14.6901 32.2346C13.1116 30.5184 11.2084 29.4501 10.2681 27.4436C9.92101 26.6991 9.38365 26.1295 8.66344 25.7238C8.72315 25.1803 8.5291 24.7001 8.30147 24.2273C8.71568 24.1752 9.04034 24.0263 8.85376 23.5312C8.62986 22.9318 8.55896 22.3288 8.81644 21.7443C9.30155 20.6387 9.67472 19.5071 8.98436 18.3903C8.43954 17.508 9.36126 17.0799 9.4247 16.4061Z" fill="#C2D778"/>
<path d="M6.79015 20.5047C6.93942 19.3656 6.30131 18.0404 7.56634 17.1581C8.28281 18.3233 7.72307 19.6001 7.9507 20.8844C7.49917 20.7653 7.30885 20.058 6.79015 20.5047Z" fill="#C0D674"/>
<path d="M16.1305 33.154C15.9663 32.86 15.6939 32.8004 15.3879 32.8116C15.8693 31.9851 15.7387 31.0731 15.7461 30.1797C15.6267 29.2639 15.0184 27.8494 16.2573 27.7228C17.2724 27.6186 16.7014 29.1113 16.8544 29.8856C16.9253 30.243 16.8656 30.6227 16.8619 30.9019C17.0261 29.9117 16.5633 28.7614 17.2089 27.7302C17.3321 27.6037 17.4776 27.5106 17.6418 27.4473C18.877 27.868 19.3285 26.7959 20.0263 26.1965C21.2055 26.096 22.1123 25.2771 23.2131 24.9792C23.3438 25.72 22.6049 26.4608 23.2094 27.2016C22.937 27.9387 22.3064 27.9313 21.6794 27.9387C21.422 27.9424 21.0189 27.827 21.3436 28.3296C21.7242 29.0443 21.3622 29.2863 20.7055 29.4799C20.0226 29.6809 19.4106 30.0308 19.8547 30.9354C20.0972 31.531 19.6121 31.8288 19.3285 32.2085C18.9815 32.5547 18.612 32.8748 18.1717 33.1019C17.8694 33.2397 17.5672 33.3513 17.2425 33.1727C16.8693 33.1689 16.4999 33.1615 16.1305 33.154Z" fill="#BAD267"/>
<path d="M17.6082 27.5813C16.7425 29.0704 17.7836 30.9279 16.5074 32.6403C16.5074 30.8907 16.5074 29.4054 16.5074 27.6111C15.4364 28.4971 15.8618 29.4128 15.7461 30.1871C15.0296 29.4054 15.5297 28.445 15.3729 27.5851C15.2498 27.4399 15.1901 27.2761 15.1901 27.0862C15.2909 26.3752 15.2647 25.6493 15.3916 24.9383C16.0932 23.5758 15.9849 22.2096 15.4812 20.8062C15.317 20.3484 15.2834 19.7267 15.8096 19.4847C16.332 19.2428 16.7051 19.8309 16.7163 20.1585C16.7537 21.1003 18.3321 20.3781 18.0747 21.5061C17.5336 22.6675 17.2164 23.896 16.9962 24.8117C17.1044 24.0672 17.5933 23.0807 17.806 22.0198C18.209 21.454 18.2314 20.8323 18.056 20.1846C18.0523 20.017 18.0747 19.8533 18.1157 19.6895C18.209 19.44 18.3695 19.2465 18.5747 19.079C18.7837 18.9077 19.0076 18.7663 19.2539 18.662C20.3137 19.0306 20.3137 19.0306 19.795 20.9514C19.2874 22.4665 18.862 24.0077 18.4105 25.5376C18.0672 26.1854 17.9776 26.9373 17.6082 27.5813Z" fill="#A9C846"/>
<path d="M14.9811 29.8037C13.4511 29.1336 11.6712 28.8247 11.0741 26.874C10.9099 26.338 10.5629 25.8801 11.201 25.4483C12.1115 24.8378 11.8764 25.9918 12.2943 26.1556C12.4585 26.2189 12.5966 26.3566 12.7459 26.4608C12.9959 26.4795 13.1974 26.6023 13.3728 26.7661C13.7646 27.2351 14.1117 27.7488 14.6117 28.1211C14.7572 28.2998 14.8319 28.5269 14.9923 28.7018C14.9886 29.0666 14.9849 29.4352 14.9811 29.8037Z" fill="#CCDD8A"/>
<path d="M14.9923 28.7018C14.8692 28.5753 14.746 28.445 14.6229 28.3184C13.9698 27.7451 13.5818 26.9932 13.1787 26.2486C13.0332 25.3962 12.5481 24.6852 12.2122 23.9109C12.1861 23.7359 12.2197 23.5721 12.3093 23.4195C13.0631 22.5372 13.6937 22.5521 14.287 23.6168C14.914 24.7447 15.4438 25.8876 15.3804 27.2165C15.3804 27.3394 15.3767 27.4622 15.3729 27.5813C14.9363 27.8494 15.0259 28.2961 14.9923 28.7018Z" fill="#C2D778"/>
<path d="M19.1195 19.0231C18.9777 19.1348 18.8397 19.2428 18.6978 19.3544C18.0523 18.7774 17.9888 17.9808 17.8732 17.2028C17.8806 16.4471 17.6045 15.6728 17.9963 14.9357C18.4142 14.6565 18.3359 14.2135 18.3583 13.8078C19.1382 13.9306 19.7241 14.1503 19.8957 15.1219C20.0114 15.7845 20.4405 15.2186 20.6682 15.0325C21.0898 14.69 21.3063 14.731 21.3399 15.2968C20.8174 15.8254 20.2428 16.3242 20.2054 17.1469C20.1719 17.9622 19.5337 18.4275 19.1195 19.0231Z" fill="#C0D676"/>
<path d="M19.4964 9.73155C19.6196 9.35557 19.7427 8.97959 19.8659 8.60361C19.9853 8.59989 20.1047 8.59989 20.2241 8.59989C20.2241 9.46725 20.2241 10.3383 20.2204 11.2057C19.6196 10.8893 20.086 10.0554 19.4964 9.73155Z" fill="#B9D36D"/>
<path d="M19.1195 19.0231C19.1755 18.219 19.7502 17.7165 20.2092 17.1469C21.4817 17.4745 21.1682 15.7882 22.0899 15.6728C22.2093 15.911 22.3325 16.1493 22.4519 16.3875C22.6049 17.3219 22.0302 17.8505 21.3025 18.286C21.9518 17.9436 22.4743 17.4596 23.1385 17.1842C24.605 16.8864 25.5902 15.2782 27.3105 15.6691C29.4151 14.0051 32.1878 13.644 34.4044 12.1587C33.3931 13.8227 32.4341 15.4978 29.9525 15.174C29.5308 15.1181 28.8144 15.133 28.4337 15.6691C28.3516 16.1605 28.0307 16.4657 27.6165 16.6965C25.1947 17.6681 23.2281 19.4549 20.8212 20.46C20.3846 20.6424 20.045 21.1115 19.4815 20.8881C19.5785 20.4303 19.6643 19.9724 19.7763 19.5182C19.9442 18.8072 19.6084 18.8184 19.1195 19.0231Z" fill="#B0CD57"/>
<path d="M17.9888 21.6289C17.1231 21.2194 16.1753 20.8993 15.929 19.6969C15.8991 21.5024 17.2313 23.3041 15.7461 24.9755C15.3804 25.2547 15.0968 25.184 14.8841 24.7857C15.1602 23.5796 14.1639 22.6787 14.0781 21.5508C14.0706 21.4651 13.8616 21.7704 13.6676 21.7108C12.7571 21.0035 13.2534 19.8421 12.7944 19.1273C12.869 19.4587 12.981 19.9165 13.0593 20.3819C13.1452 20.8807 13.1787 21.4763 12.5929 21.6289C12.1376 21.748 11.8018 21.3348 11.6749 20.8881C11.3838 19.8756 11.186 21.7332 10.9136 20.9067C10.4994 20.2814 10.3613 19.656 10.8912 19.0231C12.1078 18.1446 10.6785 17.5415 10.6188 16.5774C12.1003 17.5304 12.3167 16.73 12.2421 15.5388C12.1787 14.5858 11.7085 13.6068 12.3914 12.691C13.4213 12.49 13.4623 13.3722 13.8654 14.3289C14.1639 13.1117 14.8356 12.7245 15.7387 12.6985C15.7387 13.067 15.7424 13.4392 15.7424 13.8078C15.9476 15.4904 15.6528 17.3033 17.0746 18.6509C17.2089 18.7588 17.3209 18.8817 17.4179 19.0231C17.5224 19.5666 17.6866 20.0617 18.3545 20.1324C18.6829 20.7392 18.5337 21.2306 17.9851 21.6215L17.9888 21.6289Z" fill="#BED56D"/>
<path d="M10.895 19.0231C10.9808 19.6522 10.6524 20.3632 11.2644 20.8919C11.9846 21.6029 12.6078 22.3623 12.4026 23.479C12.3988 23.6056 12.3951 23.7322 12.3914 23.8587C12.2608 24.0449 12.1301 24.0374 11.9958 23.8625C10.7047 21.9453 9.77547 19.9016 9.7792 17.5304C10.1524 18.0255 10.5218 18.5243 10.895 19.0231Z" fill="#CBDC8B"/>
<path d="M17.2238 19.0306C15.5968 18.394 14.9326 16.0599 15.7424 13.8115C15.8693 14.0646 15.9999 14.3178 16.1267 14.5672C16.3096 14.7608 16.4327 14.9804 16.4663 15.2447C16.4887 15.8291 16.5372 16.4061 16.7984 16.9422C17.0559 17.4634 17.3134 17.9882 17.3955 18.5727C17.3955 18.7476 17.3395 18.9003 17.2238 19.0306Z" fill="#C6D97C"/>
<path d="M16.1305 15.2856C16.1305 15.0437 16.1305 14.8054 16.1267 14.5635C17.1903 14.5523 16.6007 15.7435 17.2164 16.0562C17.6045 16.354 17.7799 16.7784 17.9142 17.2288C17.5895 17.6532 18.8994 18.863 17.235 18.6471C16.985 18.152 16.735 17.6532 16.485 17.1581C16.0633 16.5923 16.5671 15.8515 16.1305 15.2856Z" fill="#E6EDC1"/>
<path d="M17.6007 17.1693C17.1753 16.9012 17.2612 16.4583 17.2164 16.0599C17.8694 15.9557 17.2425 14.9729 17.9963 14.9394C18.1157 15.6802 18.2351 16.421 18.3583 17.1656C18.1082 17.3815 17.8545 17.3815 17.6007 17.1693Z" fill="#D1E091"/>
<path d="M26.5716 20.1511C27.9486 20.1473 28.8255 19.0157 30.0533 18.6285C31.6653 18.1223 33.2065 17.4001 34.7775 16.771C34.9081 16.6369 35.0313 16.6332 35.1507 16.7858C34.5723 18.2302 33.1132 18.2377 31.9489 18.6397C29.4562 19.5033 27.2508 20.7206 25.6163 22.943C26.7918 23.3972 27.6874 21.6364 28.7957 22.7345C28.68 22.8537 28.5569 22.8648 28.4337 22.7457C26.9411 23.3674 25.4521 23.989 23.9595 24.6107C23.59 24.875 23.3027 24.808 23.1012 24.3985C23.0975 24.1193 23.2243 23.8885 23.3885 23.6763C24.7245 22.7457 25.064 20.9216 26.5716 20.1511Z" fill="#AACA4C"/>
<path d="M28.4337 22.742C28.5531 22.7345 28.6763 22.7308 28.7957 22.7308C29.7062 22.8685 30.557 22.5856 31.419 22.3697C31.6206 23.6428 33.0834 23.4083 33.658 24.231C33.4117 24.6033 33.1655 24.9755 32.9229 25.3515C32.4452 25.3999 32.199 25.6679 32.1766 26.1407C31.0944 25.9583 30.2958 26.3901 29.7137 27.3691C29.8144 26.3789 29.6726 25.3776 30.6876 24.8043C29.751 24.3129 28.1949 24.4953 28.4337 22.742Z" fill="#C6D97D"/>
<path d="M35.1507 16.7858C35.0275 16.7784 34.9044 16.7747 34.7775 16.771C35.0201 16.2721 35.3895 15.9036 35.8896 15.6616C36.9419 15.7919 37.9867 15.4978 39.3077 15.2856C38.5913 16.462 37.4867 15.6505 37.0091 16.4099C36.3896 16.5364 35.7701 16.6593 35.1507 16.7858Z" fill="#D2E097"/>
<path d="M32.1542 20.4898C32.6617 20.3707 33.1655 20.2553 33.673 20.1362C32.8333 21.3162 31.5459 21.3981 29.7958 21.7034C30.8854 21.1413 31.5198 20.8137 32.1542 20.4898Z" fill="#D2E199"/>
<path d="M44.0992 17.5266C43.3043 18.0329 42.4125 18.2079 41.487 18.2674C41.8527 16.2461 43.3006 18.0292 44.0992 17.5266Z" fill="#C2D87B"/>
<path d="M40.375 13.8115C38.9047 13.9083 37.4121 13.5807 35.9605 14.0833C35.5686 14.2173 35.0164 14.3141 34.8895 13.7333C34.7402 13.0633 35.3932 12.8213 35.8037 12.8139C36.8337 12.7952 37.8673 12.959 38.901 13.0521C39.0018 13.1601 39.0988 13.268 39.1995 13.3722C39.7182 13.2308 40.2332 13.1265 40.7258 13.4504C40.737 13.5733 40.7407 13.6924 40.7482 13.8152C40.6213 13.8115 40.4981 13.8115 40.375 13.8115Z" fill="#AECC53"/>
<path d="M34.7775 39.8659C32.6654 40.361 30.5533 40.8523 28.4375 41.3474C28.43 41.2358 28.4263 41.1278 28.4225 41.0161C28.6502 40.7481 28.9338 40.7853 29.2174 40.8523C28.8032 40.4391 27.8143 41.3661 27.6725 40.2493C28.2733 40.2493 28.8741 40.2493 29.4749 40.2493C28.4113 39.7058 28.3106 38.1051 26.9261 37.9971C26.9187 37.0814 27.7284 37.2414 28.2285 37.0516C28.9711 36.7761 29.7137 36.523 30.3593 36.0465C30.5085 35.9497 30.669 35.8715 30.8369 35.8008C31.7549 35.5328 32.6542 35.0972 33.6543 35.3988C34.5798 35.4509 34.938 36.1768 35.4679 36.7538C34.9268 37.4425 34.7253 36.5453 34.3932 36.6682C34.1245 36.7687 33.7551 36.9064 33.6692 37.126C33.3707 37.8631 34.0424 37.4127 34.2551 37.5281C35.3485 38.1088 35.0574 38.9836 34.7775 39.8659Z" fill="#C5D97F"/>
<path d="M19.0971 40.6141C18.974 40.3647 18.8508 40.119 18.7277 39.8696C18.2202 39.3372 18.0896 38.7826 18.6008 38.1758C18.8695 37.9041 19.1942 37.7365 19.5599 37.6435C20.1868 37.5318 20.81 37.5095 21.4257 37.703C21.5749 37.7663 21.7018 37.8631 21.81 37.9822C21.9257 38.3917 22.2466 38.5034 22.6347 38.5108C23.0415 38.6076 23.4109 38.7528 23.6124 39.1548C23.3661 40.1599 22.5862 40.6141 21.7205 40.9864C20.7988 41.1725 19.8621 41.5075 19.0971 40.6141Z" fill="#CBDC88"/>
<path d="M23.6087 39.1511C23.2206 39.0134 22.8362 38.8794 22.4482 38.7416C22.2466 38.5257 21.8548 38.6783 21.7056 38.3582C21.7093 38.2391 21.713 38.1237 21.713 38.0046C23.0863 37.1819 24.5864 37.4238 26.0641 37.4871C26.2768 37.6249 26.3216 37.8073 26.1947 38.0269C25.4895 38.7528 24.5006 38.8384 23.6087 39.1511Z" fill="#D2E095"/>
<path d="M26.1985 38.0232C26.191 37.8854 26.1835 37.7477 26.1723 37.6062C27.2209 36.2252 29.1315 35.6147 30.6503 36.1693C29.7883 37.5467 28.0718 37.1856 26.9261 37.9897C26.6836 38.0046 26.441 38.0157 26.1985 38.0232Z" fill="#DAE6AB"/>
<path d="M27.6725 40.2456C28.18 40.8821 28.986 40.387 29.5868 40.7444C29.2659 41.1836 28.7957 40.897 28.4225 41.0161C28.1165 41.0012 27.8105 40.9975 27.5083 40.9715C27.1948 40.9454 26.8067 40.8263 26.8739 40.495C26.9448 40.145 27.3851 40.2902 27.6725 40.2456Z" fill="#DBE7B5"/>
<path d="M18.7314 38.3731C18.3695 38.8719 18.7277 39.367 18.7277 39.8659C18.4254 40.0259 18.3695 40.3051 18.3545 40.6104C17.653 40.1674 18.321 39.1846 17.6119 38.7416C16.8955 37.4648 17.1455 35.9311 16.5111 34.6319C16.5111 34.5202 16.5074 34.4048 16.4999 34.2931C17.3171 33.8129 17.5709 34.4867 17.8396 34.993C18.209 35.6854 18.3881 36.4522 18.5113 37.2265C18.5411 37.6174 18.5001 38.0232 18.7314 38.3731Z" fill="#B8D163"/>
<path d="M19.0971 40.6141C19.9144 41.1315 20.8324 40.9417 21.7168 40.9826C20.7614 41.4517 19.8099 41.876 19.0971 40.6141Z" fill="#BDD571"/>
<path d="M30.6541 36.173C28.9935 36.1358 27.6165 36.9771 26.1761 37.61C24.7282 38.1795 23.2131 37.9673 21.7205 38.0046C20.9779 38.0046 20.2316 38.0083 19.489 38.0083C19.377 37.3941 19.8733 37.2749 20.2577 37.1782C22.8885 36.5155 25.3178 35.3466 27.777 34.2522C28.4636 33.9469 29.1726 33.7906 29.9264 33.906C30.9526 33.7124 31.572 34.3378 32.1691 35.0153C32.0758 35.9199 30.9003 35.3764 30.6876 36.1172L30.6541 36.173Z" fill="#C2D778"/>
<path d="M29.9189 33.906C26.441 35.2722 22.9631 36.6384 19.4852 38.0046C19.2352 38.1274 18.9852 38.2503 18.7352 38.3731C18.0784 38.3954 18.168 38.0418 18.3657 37.636C19.3322 36.2773 20.7092 35.3131 21.8212 34.0884C23.0191 32.7706 24.2804 31.5124 25.4484 30.1611C26.0343 29.4836 26.6276 28.7018 27.6911 28.6944C27.8217 28.8247 27.9523 28.955 28.0829 29.0853C28.2471 30.0494 27.8217 30.6376 26.9075 30.9056C24.814 32.3574 23.2206 34.3192 21.5638 36.3071C22.7392 35.879 23.911 35.4546 25.0864 35.0265C26.2358 33.9432 27.6799 33.6491 29.1838 33.5226C29.4786 33.5412 29.7622 33.6007 29.9189 33.906Z" fill="#ADCC53"/>
<path d="M26.9 30.9056C27.2918 30.2988 27.6837 29.692 28.0755 29.0853C28.5196 28.1658 29.2547 28.579 29.9227 28.6832C30.8668 28.9066 31.781 29.3012 32.7811 28.8098C33.1878 28.6088 33.7289 28.7242 33.7551 29.2788C33.7737 29.6883 33.2923 29.8074 32.9154 29.7925C31.6131 29.7404 30.363 29.9042 29.1315 30.3695C28.2434 30.7046 27.3739 30.98 27.2433 32.1713C26.7769 31.732 27.0194 31.2816 26.9 30.9056Z" fill="#D2E19C"/>
<path d="M29.1763 33.5226C27.7508 33.8613 26.5567 34.8292 25.079 35.0265C24.7916 34.9037 23.9595 35.2275 24.37 34.5239C24.8476 33.705 25.6014 32.8786 26.7545 33.2099C27.5232 33.4295 28.1352 33.3216 28.8367 32.9902C29.5308 32.6627 29.2621 33.2099 29.1763 33.5226Z" fill="#C6DA81"/>
<path d="M30.6802 36.1172C30.6988 35.8752 29.6428 35.503 30.7473 35.4136C31.2586 35.3727 31.7176 35.2536 32.1616 35.0153C33.2102 34.9818 34.1058 34.0698 35.2589 34.4011C35.0387 35.3504 33.9752 34.7436 33.6543 35.395C32.6318 35.5142 31.7512 36.2066 30.6802 36.1172Z" fill="#B3CF5F"/>
<path d="M37.0277 31.0619C36.6881 31.7953 36.1172 32 35.2738 31.9963C35.6209 30.9503 36.453 31.263 37.0277 31.0619Z" fill="#CADC87"/>
<path d="M36.2665 39.8584C36.0202 39.8584 35.7701 39.8621 35.5239 39.8621C35.5985 39.207 35.2776 38.3657 36.3411 38.1349C36.7143 38.7454 36.0948 39.2889 36.2665 39.8584Z" fill="#C8DB84"/>
<path d="M32.9602 32.9195C33.1841 32.2308 33.4976 31.9144 34.0088 31.8027C34.1021 31.8846 34.2588 31.9628 34.2551 32.0261C34.1917 32.7036 33.6842 32.8227 32.9602 32.9195Z" fill="#C9DB89"/>
<path d="M27.6874 28.6981C25.1909 30.7418 23.3363 33.4109 20.9704 35.5812C20.1532 36.3331 19.4554 37.2303 18.362 37.636C17.4627 36.6793 18.1754 34.8255 16.5036 34.2969C16.5708 33.8055 17.8097 34.081 17.2425 33.1727C17.4925 33.0498 17.7463 32.927 17.9963 32.8041C18.5075 33.2732 19.0449 32.3537 19.5561 32.8376C20.2465 33.6119 20.6159 33.5189 20.5973 32.3872C20.2726 32.5659 20.03 32.9493 19.5934 32.8786C19.2725 32.6887 19.0859 32.4244 19.1009 32.0373C19.3546 31.6687 19.6046 31.3002 19.8584 30.9354C21.5227 29.8186 23.0713 28.4226 24.8849 27.6744C26.232 27.1197 27.4038 25.9434 29.1166 25.9806C28.5979 26.9634 28.1427 27.8307 27.6874 28.6981Z" fill="#C9DB85"/>
<path d="M23.2206 24.2682C23.3923 24.5474 23.6684 24.5958 23.9595 24.607C23.7953 24.9011 23.5154 24.9644 23.2094 24.9755C22.4108 25.8689 21.6011 26.7326 20.2204 26.4683C19.4479 26.7847 19.0001 27.7675 17.9739 27.5739C17.8508 27.5739 17.7276 27.5776 17.6045 27.5776C17.4701 26.9038 17.4627 26.2561 17.9814 25.7163C18.9777 26.0849 19.4628 25.1617 20.142 24.8006C20.8547 24.4209 21.4966 24.0374 22.3287 24.2682C22.6273 24.2124 22.9258 24.0263 23.2206 24.2682Z" fill="#B3CF57"/>
<path d="M21.3436 28.3296C21.0824 28.1807 20.8249 28.0318 20.2987 27.7302C21.4108 27.4436 22.4258 27.7898 23.2094 27.2016C23.493 27.1346 23.9184 26.9187 24.0378 27.0267C24.3662 27.3282 24.0117 27.518 23.7542 27.6707C23.0116 28.1137 22.2355 28.4375 21.3436 28.3296Z" fill="#CCDD8D"/>
<path d="M32.1766 26.1407C31.8631 25.9397 31.7736 25.6679 32.0161 25.3738C32.2885 25.05 32.6057 24.9271 32.9192 25.3478C32.6729 25.6158 32.4266 25.8801 32.1766 26.1407Z" fill="#D6E4AA"/>
<path d="M30.6652 8.22019C29.3107 9.15828 28.0456 10.2118 26.594 11.6934C26.8067 10.3979 27.7807 10.0852 28.0606 9.34441C29.0271 8.6185 29.9898 7.89632 31.3556 6.86889C30.9936 7.58362 30.8294 7.90377 30.6652 8.22019Z" fill="#C9DB86"/>
<path d="M33.6431 9.34441C33.2513 9.41886 32.8595 9.50448 32.4639 9.57148C31.7325 9.69433 32.1281 9.2439 32.1616 8.97587C32.4676 8.96842 32.7475 8.90142 32.9117 8.60733C33.3147 8.51799 33.7215 8.42865 34.2588 8.3058C34.0051 8.74135 33.826 9.04288 33.6431 9.34441Z" fill="#AECB5E"/>
<path d="M12.3839 37.2675C13.3131 37.9785 14.7871 37.8073 15.3543 39.099C14.0407 39.0059 12.9101 38.4401 11.8465 37.7254C11.5629 37.5281 11.5928 37.4834 12.3839 37.2675Z" fill="#D0E097"/>
<path d="M43.7633 13.7929C43.1252 13.7259 42.4199 14.0497 41.8751 13.4616C42.517 13.5137 43.2185 13.2047 43.7633 13.7929Z" fill="#BCD46E"/>
<path d="M40.7258 13.4541C40.2183 13.4281 39.707 13.402 39.1995 13.376C39.86 12.9665 40.5093 12.9144 41.1437 13.4281C41.0019 13.4355 40.8638 13.443 40.7258 13.4541Z" fill="#BCD46E"/>
<path d="M22.4855 24.6479C20.8473 24.7075 19.6345 25.6456 18.3359 26.4981C17.9142 26.7735 18.1008 26.003 17.9851 25.72C18.362 24.0709 18.668 22.3958 19.474 20.877C22.1795 19.3321 24.6237 17.3107 27.6799 16.4099C28.0083 17.7612 26.706 18.5801 26.5679 19.7788C26.5679 19.9016 26.5679 20.0282 26.5716 20.1511C25.6201 21.4242 25.1014 23.0435 23.5938 23.8699C22.9669 23.7657 22.5265 23.9258 22.4855 24.6479Z" fill="#BFD571"/>
<path d="M27.3068 15.6616C25.9335 16.2721 24.564 16.8826 23.1908 17.4969C22.9818 17.2586 22.9781 17.0241 23.202 16.7896C24.2207 16.6407 24.411 15.0586 25.7805 15.3638C26.1089 15.4383 25.8962 14.7496 25.7656 14.4369C25.4596 13.7035 25.9372 13.3015 26.4746 13.2159C27.109 13.1154 27.2321 13.6105 27.1687 14.2061C27.1239 14.6826 27.2545 15.1777 27.3068 15.6616Z" fill="#C6D981"/>
<path d="M26.5679 19.7788C26.2246 18.4201 27.3665 17.5527 27.6799 16.4099C27.93 16.1605 28.18 15.911 28.43 15.6616C28.7285 17.4485 27.4448 18.5243 26.5679 19.7788Z" fill="#CEDF94"/>
<path d="M23.2057 16.7933C23.2019 17.0278 23.1982 17.2623 23.1945 17.5006C22.3064 18.0925 21.4182 18.6844 20.1681 19.5219C20.6831 17.9026 22.1086 17.5415 22.4519 16.3875C22.7019 16.5215 22.9519 16.6556 23.2057 16.7933Z" fill="#D3E094"/>
<path d="M31.2884 11.7045C30.5384 12.289 29.6838 12.6724 28.5569 12.5868C29.389 12.1289 30.2212 11.6747 31.0533 11.2169C31.1317 11.3807 31.2101 11.5445 31.2884 11.7045Z" fill="#C5D97E"/>
<path d="M33.6058 10.6734C33.1617 11.3844 32.6803 11.1722 32.1318 11.1424C32.5087 10.6622 32.9304 10.6138 33.6058 10.6734Z" fill="#C5D97E"/>
<path d="M11.9958 23.8587C12.1264 23.8587 12.2608 23.8588 12.3914 23.855C12.925 24.5251 13.2273 25.3106 13.481 26.1146C13.2944 26.3231 13.4325 26.6916 13.1265 26.8443C12.9996 26.714 12.8727 26.5874 12.7459 26.4571C12.8727 25.4855 12.0928 24.7708 11.9958 23.8587Z" fill="#DDE7AD"/>
<path d="M17.9776 27.5776C18.7128 27.183 19.3024 26.4906 20.2241 26.472C19.8547 27.116 19.3397 27.6186 18.6829 27.9685C18.2426 28.203 18.0038 28.0802 17.9776 27.5776Z" fill="#CFDD84"/>
<path d="M19.0971 32.0373C19.3994 32.2011 19.4703 32.4803 19.4815 32.7929C18.9852 32.6999 18.5038 34.2931 17.9926 32.8078C18.362 32.551 18.7277 32.2941 19.0971 32.0373Z" fill="#D0DF91"/>
<path d="M12.4026 23.479C12.0219 22.6154 11.4099 21.856 11.2644 20.8919C11.2756 20.7094 11.2495 20.5159 11.298 20.3409C11.4174 19.9165 11.5592 20.0915 11.7309 20.3297C11.9697 20.6648 11.9958 21.1636 12.5518 21.3535C13.2198 20.2255 12.2458 19.1795 12.3167 17.9212C13.5482 18.9933 13.0369 20.594 13.8616 21.6326C14.3691 22.5707 15.149 23.4046 15.0035 24.5921C15.1565 24.9011 15.4327 24.9644 15.7424 24.9718C15.623 25.7163 16.0372 26.5502 15.3767 27.2091C14.9923 26.2673 14.5856 25.3329 14.2273 24.3799C13.8952 23.4902 13.3429 23.1142 12.4026 23.479Z" fill="#B6D061"/>
<path d="M17.9814 21.6215C17.959 23.252 17.1977 24.6777 16.7387 26.1854C16.8208 24.5698 16.8805 22.9504 17.9888 21.6252C17.9888 21.6289 17.9814 21.6215 17.9814 21.6215Z" fill="#BED56D"/>
<path d="M17.6007 17.1693C17.8508 17.1655 18.1045 17.1655 18.3545 17.1618C18.4702 17.8915 18.5822 18.6248 18.6978 19.3544C18.5784 19.4847 18.459 19.6187 18.3396 19.749C17.4254 20.3521 17.5746 19.3098 17.2313 19.0343L17.2238 19.0306C17.2276 18.904 17.2313 18.7774 17.235 18.6509C18.3396 18.3977 17.3134 17.6234 17.6007 17.1693Z" fill="#DEE7A4"/>
<path d="M17.2313 19.0343C17.6231 19.239 17.7724 19.8197 18.3396 19.749C18.3433 19.8756 18.3471 20.0059 18.3508 20.1324C17.1865 20.5717 17.1828 19.8272 17.2313 19.0343Z" fill="#C6D97C"/>
<path d="M13.1265 26.8443C13.1414 26.5539 13.1825 26.271 13.481 26.1146C13.7534 26.9038 14.5333 27.4324 14.6229 28.3147C13.6079 28.3482 13.4997 27.4622 13.1265 26.8443Z" fill="#E9EFC7"/>
<path d="M15.0035 24.5958C14.5893 23.6242 13.8355 22.7792 13.8616 21.6364C13.9064 21.3274 13.9698 20.944 14.3318 20.9551C15.0371 20.9738 14.4699 21.3051 14.4176 21.4949C14.2572 22.0868 14.8542 22.3213 15.0184 22.7643C15.2498 23.386 15.6901 23.9853 15.0035 24.5958Z" fill="#CDDD87"/>
<path d="M16.1305 15.2856C16.7014 15.8254 16.4103 16.5253 16.4887 17.1581C15.8767 16.6295 16.1902 15.9222 16.1305 15.2856Z" fill="#D0DF90"/>
<path d="M22.4855 24.6479C21.8399 24.164 22.3138 23.8178 22.6571 23.5051C23.1721 23.0361 23.3736 23.5014 23.5938 23.8699C23.4706 24.0039 23.3438 24.1379 23.2206 24.272C22.9743 24.3948 22.7318 24.5214 22.4855 24.6479Z" fill="#CDDD8C"/>
<path d="M21.7093 38.3545C22.0116 38.3768 22.2989 38.4289 22.4519 38.7379C22.1459 38.8086 21.8772 39.2256 21.5414 38.898C21.3436 38.7081 21.5152 38.4959 21.7093 38.3545Z" fill="#E0E9B3"/>
<path d="M19.4778 32.7929C19.933 32.4132 20.392 32.0373 21.0077 31.5235C20.7913 32.6031 21.504 33.8427 20.4331 34.3267C19.877 34.5798 19.6308 33.4444 19.4778 32.7929Z" fill="#D1E097"/>
<path d="M24.0714 29.9005C23.9856 30.0085 23.8774 30.2765 23.6908 30.3509C23.4109 30.4663 23.2542 30.2318 23.2617 29.9601C23.2729 29.692 23.4482 29.5245 23.7206 29.491C23.9259 29.4687 24.0677 29.5543 24.0714 29.9005Z" fill="#DAE6AC"/>
</svg>
