<svg width="42" height="39" viewBox="0 0 42 39" fill="none" xmlns="http://www.w3.org/2000/svg">
<path d="M36.6745 4.99128C42.9817 10.2414 43.5079 21.4746 39.1973 27.8428C38.548 26.0704 37.7642 24.3689 36.4991 22.9928C36.4655 23.2434 35.9579 23.5612 36.5476 24.0025C37.656 24.8289 37.3836 26.6911 38.9212 27.2445C39.0816 27.3006 39.0107 27.697 38.8615 27.9176L38.8689 27.884C38.283 28.4374 38.1412 29.2563 37.6896 29.8883C37.2903 30.4492 36.8872 31.0139 36.1184 30.3931C35.6444 29.3087 35.5548 30.7147 35.2227 30.5464C34.7039 30.8942 34.174 31.2121 33.491 31.1672C34.0919 31.4551 35.0025 30.6399 35.3309 31.6757C35.5959 32.5059 35.1294 33.0668 34.5024 33.5754C33.7821 34.1625 33.0991 34.7869 32.2146 35.1272C31.6548 35.0637 31.2182 34.8019 30.9121 34.3382C30.8039 34.1812 31.0278 33.6838 30.4979 33.9344C30.1135 34.1138 29.7216 34.1662 29.3633 33.8558C29.0573 33.1229 28.6505 32.7303 27.8145 33.2351C26.9114 33.7773 25.9634 34.2485 25.0416 34.7608C24.5004 35.0637 23.978 35.4376 23.3062 35.1721C23.0225 34.8468 23.0225 34.3606 22.6867 34.0578C24.9744 32.4797 27.3443 31.0363 29.7104 29.5854C30.2553 29.6602 30.9308 30.6362 31.2667 29.2526C31.3525 28.9048 32.1736 29.3349 32.6326 29.1255C33.2447 28.6019 33.8232 28.0485 34.3494 27.439C33.9986 27.8129 33.6328 28.142 33.0581 28.0223C32.0467 27.3418 32.8789 26.3396 32.6214 25.5244C32.9387 23.4976 34.1964 21.8224 34.7077 19.8704C35.0846 19.3058 34.9017 18.4532 35.622 18.0643C37.0962 16.9611 36.417 15.327 36.5662 13.9247C36.6633 13.031 36.4356 12.0999 36.5588 11.18C36.5924 11.008 36.6521 10.8435 36.7267 10.6901C37.3015 9.76651 37.9882 8.94758 36.8648 7.82201C35.9131 6.85351 35.9691 5.75412 36.6745 4.99128Z" fill="#F0CA92"/>
<path d="M29.8672 29.7313C27.6876 31.5187 25.329 33.0219 22.7762 34.2223C21.5932 35.6283 19.8092 35.6283 18.2567 36.1668C13.4796 37.0156 8.84066 37.068 4.77644 33.8035C3.44409 32.7303 2.36179 31.4813 1.76839 29.8547C0.756995 27.3418 0.286754 24.7279 0.372592 22.0206C0.36886 22.0243 0.193453 22.0318 0.193453 22.0318L0.066562 21.9084C-0.0454001 20.4612 0.290486 19.0889 0.727139 17.7315C1.11901 18.2587 0.939867 18.8234 0.857762 19.3918C1.15633 18.8608 0.701014 18.169 1.20484 17.6866C1.71987 17.5108 2.22743 17.5408 2.7238 17.7614C3.10074 18.2699 3.17165 18.8608 3.16418 19.4666C3.08954 19.8517 2.74619 20.1733 2.88801 20.6108C3.05595 21.3774 3.13433 22.1515 3.04476 22.933C3.02983 23.1125 2.99997 23.2882 2.96638 23.464C3.11193 25.3861 3.90686 27.1511 4.33232 29.0021C4.47414 29.6153 5.03395 30.0229 5.60496 30.3034C6.53798 30.7671 7.17616 31.4215 7.50832 32.4648C7.90765 33.7137 9.06086 33.9643 10.1991 34.1176C14.5619 34.7084 18.8874 35.015 22.7352 32.1357C22.974 32.132 22.6829 31.8403 22.8024 32.0572C22.8247 32.102 22.7912 32.1282 22.724 32.1768C22.0261 32.6779 21.3879 32.9247 21.0184 31.8291C21.0147 31.6496 21.0483 31.4738 21.1117 31.3055C21.4327 30.8606 21.9253 30.6474 22.3769 30.3819C22.4963 30.3557 22.6493 30.3183 22.7314 30.3857C24.172 31.6309 25.3364 31.0662 26.3963 29.8285C28.3631 28.5496 29.6432 26.6425 31.0054 24.8102C31.8601 23.6584 31.9385 22.2936 32.043 20.9361C32.502 20.192 33.0767 19.5152 33.8717 19.1824C34.5285 18.9056 35.4541 18.6252 35.107 20.0163C34.3606 21.886 33.6142 23.7557 32.8677 25.6254C32.5244 27.4801 31.3115 28.6917 29.8672 29.7313Z" fill="#FAE2B4"/>
<path d="M1.90647 29.7313C5.73185 35.8265 10.7851 36.8174 17.57 35.7816C17.8126 35.7442 18.0589 35.7405 18.3052 35.7181C19.1039 36.6006 20.175 36.7127 21.2685 36.7501C22.2388 36.7801 22.9964 36.1817 23.8473 35.8639C24.0115 35.8115 24.1832 35.7891 24.3549 35.7816C25.7358 36.5594 26.1799 35.0337 27.0905 34.6598C27.6466 34.4691 28.128 34.0129 28.7849 34.155C28.9827 34.3307 29.0834 34.5588 29.1543 34.8056C29.1581 35.546 29.9306 36.021 29.8522 36.7913C26.3404 38.8255 22.4329 39.0798 18.5515 38.9826C15.174 38.8966 11.7853 38.3543 8.71751 36.7838C5.60123 35.1871 2.34686 33.6689 1.42504 29.7649C1.57432 29.5966 1.7348 29.5892 1.90647 29.7313Z" fill="#EEC992"/>
<path d="M1.48475 17.7576C0.854029 18.2475 1.37652 19.0664 0.854029 19.7956C0.805512 18.9916 0.768192 18.3597 0.727139 17.7277C1.21977 13.4349 3.50753 10.0507 6.50812 7.21997C10.3111 3.62639 14.7635 1.1322 20.0891 0.537632C20.9886 0.35814 21.8843 0.231 22.7688 0.597463C22.6232 1.58467 21.7723 1.34161 21.1752 1.46875C15.5621 2.68032 10.3745 4.63977 6.45214 9.15699C4.76151 11.1015 3.29107 13.1133 2.48868 15.5925C2.24609 16.3404 2.11547 17.1743 1.48475 17.7576Z" fill="#EFC990"/>
<path d="M36.9618 10.6677C36.9618 10.7948 36.9618 10.922 36.9581 11.0491C36.57 11.9915 36.8163 12.9675 36.8051 13.9285C36.7976 14.3735 36.8499 14.8035 36.2378 14.8484C35.2637 13.6817 35.928 12.2233 35.5474 10.9519C35.204 8.5325 34.5397 6.26268 32.8454 4.38175C31.9646 3.40576 31.0801 2.48961 29.7627 2.12688C29.2775 1.99226 28.8371 1.76416 28.699 1.20699C28.964 0.522675 29.4305 0.747039 29.8896 0.941489C31.6847 1.07985 33.0133 2.1381 34.3456 3.19262C36.0102 5.40635 37.3126 7.74723 36.9618 10.6677Z" fill="#EDC790"/>
<path d="M32.1064 34.9702C32.8864 34.3756 33.6851 33.7997 34.4464 33.179C34.8905 32.8163 35.2787 32.3301 35.0174 31.7318C34.7674 31.1634 34.2561 31.657 33.8679 31.6234C33.3231 31.5785 32.8901 31.485 32.7259 30.7035C33.6179 30.8531 34.4688 30.7932 35.1182 30.1239C35.4877 30.4679 35.8497 29.8135 36.2192 30.1127C36.7864 30.7334 37.0141 30.1762 37.3089 29.806C37.8277 29.1629 38.0292 28.2617 38.8764 27.884C37.753 31.8889 34.7338 34.1512 31.3675 36.092C31.1697 36.2491 30.9495 36.3313 30.7442 36.1331C30.4531 35.8564 30.6322 35.5834 30.8226 35.3628C31.1547 34.9664 31.6026 34.8617 32.1064 34.9702Z" fill="#EEC589"/>
<path d="M38.8615 27.9176C37.7306 26.994 36.6409 26.1003 36.5513 24.4213C36.5252 23.9202 35.6481 24.6569 35.204 24.1483C35.3496 23.4827 36.5513 23.1162 35.9131 22.144C35.8646 22.0729 36.0811 21.7027 36.1296 21.7102C36.3498 21.7513 36.6969 21.8373 36.7379 21.9832C37.3462 24.0249 39.522 25.4122 39.1936 27.8428C39.0928 27.8989 38.9809 27.9214 38.8615 27.9176Z" fill="#EEC589"/>
<path d="M36.9618 10.6677C36.6147 8.88775 36.193 7.1377 35.5026 5.44748C35.1779 4.65099 33.7784 4.41915 34.3494 3.19262C35.4615 3.35715 35.9616 4.3107 36.6745 4.99128C36.0736 7.13396 37.5776 8.15482 39.1339 9.36265C37.3574 8.43528 37.8911 10.578 36.9618 10.6677Z" fill="#F2D19F"/>
<path d="M29.8896 0.941489C29.479 0.975144 29.0274 0.87418 28.7475 1.31543C28.6729 1.38648 28.5983 1.46127 28.5236 1.53606C26.6613 1.73051 24.8251 1.5398 23.0001 1.16211C22.9255 1.08733 22.8546 1.01254 22.7837 0.93401C21.9701 0.227261 20.9774 0.747039 20.0891 0.537632C23.392 -0.142941 26.6725 -0.34487 29.8896 0.941489Z" fill="#F0CE9C"/>
<path d="M1.90647 29.7313C1.74599 29.7425 1.58925 29.7537 1.42877 29.7649C0.607713 28.5234 0.398717 27.1249 0.372592 25.6815C0.115079 24.4101 0.0964186 23.1387 0.383788 21.8673C0.409913 21.6317 0.436037 21.3924 0.45843 21.1568C0.443501 24.1034 1.27949 26.9005 1.90647 29.7313Z" fill="#F0C98E"/>
<path d="M32.1064 34.9702C31.9273 35.3927 30.5651 35.0263 31.3637 36.0957C30.9607 36.5519 30.4718 36.8174 29.8485 36.7913C29.2924 36.2939 28.7662 35.7816 28.7587 34.9552C29.3932 34.3868 30.0164 33.7848 30.9831 34.2185C31.3525 34.4691 31.7295 34.7196 32.1064 34.9702Z" fill="#F3D19D"/>
<path d="M0.380056 21.8635C0.376324 23.1349 0.372592 24.4063 0.36886 25.6777C-0.246932 24.4624 0.103883 23.1686 0.06283 21.9047C0.17106 21.8934 0.275558 21.8822 0.380056 21.8635Z" fill="#EFC990"/>
<path d="M35.8497 10.664C36.6334 11.9765 36.0176 13.4162 36.2266 14.7811C36.9208 15.9964 36.5065 17.0845 35.8385 18.1391C35.1406 18.5878 35.7974 19.5675 35.0995 20.0162C34.842 18.872 34.2673 19.2721 33.7037 19.7395C33.1551 20.1957 32.6289 20.6781 32.0952 21.1456C31.5055 21.1642 31.5354 20.7641 31.569 20.3603C33.1402 18.5467 33.7411 16.3778 33.8642 14.0369C33.9277 13.1357 33.7373 12.2495 33.6739 11.3558C34.0769 10.1405 34.8308 9.97966 35.8497 10.664Z" fill="#FADDA9"/>
<path d="M28.7699 34.2335C28.2362 34.4167 27.9078 35.03 27.2547 34.9702C26.0903 34.9253 25.2618 36.0135 24.0787 35.905C23.4405 36.006 22.7538 36.3463 22.3172 35.5236C22.403 35.0524 22.668 34.8468 23.1494 34.9627C24.9632 34.7234 26.3142 33.4931 27.8369 32.6742C29.4566 31.8029 29.6432 32.461 29.494 33.8446C29.3633 34.1812 29.1693 34.4018 28.7699 34.2335Z" fill="#F0CF9C"/>
<path d="M29.8672 29.7313C30.8636 28.3626 31.8638 26.9977 32.8603 25.6291C33.8232 26.2349 32.2482 27.2782 33.2447 27.8802C33.6851 28.6169 32.5393 29.0245 32.8566 29.735C32.196 30.5277 32.0392 29.1516 31.2965 29.5405C31.0166 29.907 32.2296 30.7185 31.248 31.04C30.106 31.414 30.5725 29.9182 29.8672 29.7313Z" fill="#EBC486"/>
<path d="M23.1494 34.9664C22.9031 35.0936 22.6568 35.2207 22.4105 35.3479C22.1455 35.7031 21.7462 35.9836 21.7984 36.5033C21.8022 36.8548 21.5297 37.0156 21.3021 37.2026C20.4101 37.3746 19.6226 36.896 18.7717 36.7987C18.1074 36.724 18.0178 36.2677 18.3015 35.7143C19.7906 35.217 21.2834 34.7159 22.7725 34.2185C23.4219 34.2073 23.3584 34.5514 23.1494 34.9664Z" fill="#ECC387"/>
<path d="M35.8347 18.1428C35.9654 17.0247 36.0923 15.9029 36.2229 14.7848C37.1671 13.6779 36.0027 12.156 36.9581 11.0529C36.9544 13.4872 37.3388 15.9403 36.57 18.3298C36.4692 18.6401 36.4692 19.1524 35.9318 18.8496C35.8086 18.7785 35.8646 18.3859 35.8347 18.1428Z" fill="#ECC182"/>
<path d="M38.4435 17.7876C38.1188 17.1406 38.0367 16.3853 37.2903 15.8131C38.4995 15.3569 38.9286 15.6075 39.0742 16.7106C39.3205 18.5691 39.0928 20.4276 39.216 22.2823C39.3168 22.3609 39.3504 22.4394 39.3168 22.5179C39.2832 22.5964 39.2496 22.6338 39.216 22.6338C38.4621 21.7925 38.9772 20.7716 38.8316 19.8442C38.7196 19.1524 39.104 18.3709 38.4435 17.7838V17.7876Z" fill="#F6D59E"/>
<path d="M32.8528 29.7313C32.1213 28.931 33.1551 28.5047 33.241 27.8765C33.9762 27.5811 34.2673 26.6724 35.2973 26.4667C34.8271 27.9289 33.5321 28.6094 32.8528 29.7313Z" fill="#DAAD6C"/>
<path d="M28.7699 34.2335C29.0125 34.1064 29.2551 33.9755 29.4977 33.8483C30.259 33.7923 30.8412 33.3173 31.4943 32.9172C31.7929 33.6053 31.0465 33.7661 30.9793 34.2148C30.2366 34.4616 29.4977 34.7047 28.755 34.9515C28.7625 34.7122 28.7662 34.4728 28.7699 34.2335Z" fill="#DBAF71"/>
<path d="M38.4435 17.7838C38.3502 18.7486 38.8092 19.833 37.6 20.9997C37.8426 19.6236 37.2305 18.5018 38.4472 17.7876C38.4435 17.7876 38.4435 17.7838 38.4435 17.7838Z" fill="#DCAD6E"/>
<path d="M39.216 22.6338C39.216 22.5179 39.216 22.402 39.216 22.2823C39.9251 21.7513 39.2608 20.8053 40.0259 20.02C40.3058 21.2091 40.7723 22.1776 39.216 22.6338Z" fill="#D8A969"/>
<path d="M36.2154 30.1127C35.8459 29.9893 35.4914 31.2681 35.1145 30.1239C35.3533 29.9332 35.5922 29.7387 35.8347 29.5518C36.0102 29.4171 36.2154 29.0769 36.3983 29.3087C36.5028 29.4396 36.2863 29.8322 36.2154 30.1127Z" fill="#DDAD6B"/>
<path d="M39.4772 12.4963C39.3541 12.7431 39.1787 12.8814 38.9137 12.7057C38.7084 12.5673 38.5181 12.3729 38.6301 12.1036C38.7346 11.8456 38.9734 11.7634 39.2235 11.8868C39.4623 12.0064 39.5519 12.227 39.4772 12.4963Z" fill="#CC9B60"/>
<path d="M21.2722 31.6084C21.5484 33.1117 22.6269 31.6608 23.1718 32.102C18.9359 35.8041 13.9835 35.2544 9.03846 34.3606C8.11291 34.1924 6.78056 33.8558 6.96343 32.218C7.02688 31.672 6.47453 31.2569 5.93338 31.0064C5.48553 30.797 5.00783 30.6063 4.61969 30.3071C3.64562 29.5592 2.29834 24.7616 2.62303 23.3705C3.63069 23.6809 4.63462 23.995 5.38477 24.8064C5.86994 25.7787 5.59376 27.0426 6.53798 27.8428C7.73597 28.9048 8.76229 27.4801 9.88938 27.6035C10.759 27.5848 11.0127 26.721 11.6099 26.3246C12.6511 25.6366 13.5431 25.4758 14.0618 26.9192C14.1402 27.7082 13.6438 28.3215 13.4236 29.0245C13.1214 29.9968 12.9124 31.0213 13.7707 31.7917C14.5881 32.5283 15.4987 32.2105 16.3421 31.7057C16.5549 31.5785 16.7937 31.5112 17.0475 31.5075C18.2903 32.0347 19.5331 32.7527 20.7908 31.5337C20.9699 31.4701 21.1266 31.4888 21.2722 31.6084Z" fill="#FDF0D1"/>
<path d="M1.48475 17.7576C1.7236 15.3495 2.73499 13.2329 4.09347 11.3071C7.59415 6.34494 12.3078 3.10661 18.2306 1.71181C19.7271 1.3603 21.1976 0.791912 22.7837 0.930271L22.7725 0.963926C22.5224 1.98105 21.8395 1.55849 21.2423 1.42761C22.1268 1.8726 21.8768 2.38864 21.3356 2.92338C21.2498 3.00565 21.149 3.0767 21.052 3.14774C18.7605 3.99285 16.1891 3.75353 13.9835 4.95762C13.7185 5.10346 13.4087 5.16703 13.1325 5.29417C12.2369 5.68307 11.5166 6.33747 10.7366 6.89838C9.12057 8.1997 7.68372 9.67676 6.3663 11.2698C5.92218 11.898 5.49673 12.5374 5.10486 13.1993C4.23155 14.7025 3.78744 16.4376 2.61184 17.7726C2.23116 18.0306 1.85422 17.982 1.48475 17.7576Z" fill="#FBE2B4"/>
<path d="M5.23548 24.8775C4.42189 24.2829 3.11567 24.5447 2.6305 23.3817C2.6305 23.2583 2.6305 23.1349 2.63423 23.0115C2.76858 21.4111 3.5038 20.652 5.20563 21.0222C5.88113 21.168 6.54171 20.8726 7.10525 20.4425C7.51951 20.1733 7.85913 19.7395 8.4376 19.8368C8.59062 19.8891 8.72497 19.9751 8.84066 20.0836C9.13177 20.3528 9.36315 20.192 9.57961 19.9639C9.71024 19.8517 9.85206 19.7732 10.0088 19.7096C11.1508 19.6124 12.1921 19.2198 13.1699 18.6401C14.7971 18.8832 15.5547 19.833 14.7821 21.2465C13.9611 22.7498 14.5657 23.6435 15.4054 24.6643C15.4912 24.8326 15.5397 25.0121 15.5584 25.1991C15.3755 26.1564 14.8082 26.6836 13.8304 26.7472C13.099 25.9245 12.4645 26.0704 11.6882 26.7846C11.2404 27.1959 11.0538 28.1981 10.0722 27.8129C10.0125 26.635 10.9829 25.9582 11.4307 25.0271C11.8263 24.2081 12.1361 23.3668 11.483 22.5777C10.8746 21.8448 10.0387 22.0168 9.23253 22.2337C7.85913 22.6077 6.74324 23.3406 5.94458 24.5335C5.74304 24.7242 5.51539 24.8551 5.23548 24.8775Z" fill="#FDF4DC"/>
<path d="M31.7407 20.3977C31.7481 20.7006 31.8004 20.981 32.0915 21.153C32.9275 22.4394 32.2781 23.651 31.6138 24.6157C30.1919 26.6836 28.9267 28.9535 26.512 30.1202C25.4484 30.6773 25.4484 30.6773 24.7542 29.4583C24.7468 29.4471 24.7132 29.4059 24.6572 29.3386C23.5712 28.0934 23.5712 28.0934 25.0453 27.5886C25.8365 27.166 26.7434 26.908 27.1987 26.0255C28.3519 24.7765 28.2698 23.3481 27.8033 21.8635C27.863 21.3886 28.4005 21.3063 28.5647 20.8726C29.2439 19.0926 30.3225 18.9468 31.7407 20.3977Z" fill="#FDF1D3"/>
<path d="M25.3961 27.884C25.0229 28.4785 24.2541 28.0448 23.3846 28.7478C25.0901 28.4187 24.6721 31.1522 26.5195 30.1164C24.743 32.1843 24.6012 32.1955 22.4105 30.4866C22.0261 30.7185 21.4812 30.7072 21.2946 31.2308C21.2871 31.3579 21.2834 31.485 21.2759 31.6122H20.9177C20.578 31.7094 20.4064 31.5037 20.2608 31.2457C19.3539 29.1741 18.8949 26.9267 17.7864 24.9336C17.7529 24.7429 17.779 24.5596 17.8611 24.3839C19.3017 23.2172 19.2979 24.6643 19.6935 25.3973C19.9212 26.0105 20.1936 26.6051 20.4959 27.1884C20.5034 27.1997 20.6154 27.1772 20.6527 27.1398C20.6937 27.1024 20.7049 27.0351 20.7348 26.9716C21.1602 26.4293 21.7462 26.5976 22.2948 26.5901C23.2838 27.1211 24.4519 27.2333 25.3961 27.884Z" fill="#FDF0CD"/>
<path d="M2.6081 17.7726C3.02236 15.9926 3.94045 14.4445 4.85854 12.8964C5.54151 13.1432 6.11252 13.5022 6.25061 14.2949C6.08266 15.6935 6.01549 17.0845 6.57903 18.427C6.14238 20.9773 6.14238 20.9773 3.98524 20.5061C3.54859 20.3378 3.13433 20.1434 2.98131 19.6498C2.64916 19.0664 2.58944 18.427 2.6081 17.7726Z" fill="#FDF1D4"/>
<path d="M4.11213 20.02C4.94065 20.2705 6.12372 21.239 5.7729 19.1524C5.74304 18.9767 6.15357 18.7299 6.36257 18.513C7.60535 18.0643 8.90411 18.4233 10.1656 18.24C10.4007 18.2999 10.6433 18.3485 10.8709 18.4307C11.3486 18.6028 11.8599 18.8383 11.692 19.4366C11.5464 19.9452 10.9941 19.7994 10.5835 19.8181C10.285 19.833 9.97148 19.7844 9.72143 20.0125H9.7177C9.4378 20.4164 9.35569 21.4073 8.60181 20.3865C8.60181 20.2631 8.60181 20.1397 8.60181 20.0162C7.48966 19.1487 7.83674 20.4837 7.48592 20.7604C6.70592 21.512 5.74304 21.5345 4.73538 21.527C3.98151 21.5195 2.29834 20.6968 3.40677 22.7909C3.50753 22.9779 2.91787 22.9629 2.63796 23.0078C2.59691 22.1215 2.77605 21.2016 2.26102 20.3827C2.77231 19.7283 3.55978 20.4762 4.11213 20.02Z" fill="#FDF0D1"/>
<path d="M21.2909 31.2308C21.1789 30.9166 20.9438 30.5951 21.317 30.2996C21.7462 29.9556 22.0597 30.3333 22.4067 30.4866C22.3806 31.2532 21.8432 31.2532 21.2909 31.2308Z" fill="#EDC381"/>
<path d="M4.11213 20.02C3.58964 20.6407 2.88054 20.3004 2.25356 20.3827C2.26849 19.9153 2.49987 19.6573 2.97758 19.646C3.35825 19.7732 3.73519 19.8966 4.11213 20.02Z" fill="#FBE2B4"/>
<path d="M24.2653 35.7218C25.2842 35.561 25.9783 34.0951 27.2547 34.9739C27.0196 35.1534 26.6389 35.288 26.568 35.5199C26.1052 37.0156 25.2693 36.8174 24.2803 36.092C24.1534 36.0135 24.1086 35.9349 24.1459 35.8527C24.187 35.7629 24.228 35.7218 24.2653 35.7218Z" fill="#F4D8AC"/>
<path d="M24.2653 35.7218C24.2691 35.8452 24.2728 35.9686 24.2803 36.092C24.1459 36.0957 24.0115 36.0995 23.8772 36.1032C23.1532 36.3201 22.459 36.7202 21.6603 36.4697C21.4401 36.4435 21.0893 36.4136 21.1864 36.1518C21.3767 35.6283 21.832 35.3591 22.4105 35.3479C22.933 35.9686 23.6421 35.632 24.2653 35.7218Z" fill="#F0CA92"/>
<path d="M21.6603 36.4697C22.347 36.0209 23.1158 36.0808 23.8809 36.1032C23.1569 36.7875 22.3209 37.2101 21.3021 37.2063C21.4215 36.9595 21.5409 36.7127 21.6603 36.4697Z" fill="#E0B578"/>
<path d="M35.8497 10.664C35.2115 10.7425 34.4987 10.4583 33.9687 11.0566C33.3119 11.3258 32.6028 11.1389 31.931 11.2885C31.1809 11.1538 30.886 10.6677 31.4794 10.1704C32.349 9.44118 32.9499 8.712 32.6699 7.50416C32.3378 6.05701 31.5914 4.92023 30.3523 4.07886C29.591 3.55908 28.6916 3.26367 28.0198 2.60553C27.669 1.84643 28.4415 1.73798 28.7438 1.3603V1.31917C33.1962 2.91964 35.6967 6.21407 35.8497 10.664Z" fill="#FBE3B6"/>
<path d="M28.7513 1.35656C28.8035 1.92122 28.2288 2.05584 28.0123 2.43726C26.1873 2.09697 24.7953 3.39829 23.1532 3.72361C22.6269 4.29574 23.4144 4.65847 23.3808 5.15207C23.3584 5.46992 23.2614 5.7616 23.1046 6.02709C22.8322 6.48704 22.6568 7.17883 21.9664 7.03674C21.205 6.87594 21.4177 6.16545 21.4812 5.65315C21.6081 4.63603 21.4887 3.6937 20.9214 2.82615C21.4028 2.07079 21.5708 1.00132 22.7762 0.967665C24.7878 0.7433 26.7583 1.18081 28.7513 1.35656Z" fill="#FCE6BE"/>
<path d="M31.7407 20.3977C31.2592 19.762 30.3449 20.5809 29.8224 19.8143C29.7253 19.6685 28.6206 20.106 28.9491 20.551C30.1807 22.2188 28.2325 21.4335 27.9899 21.9196C27.1689 22.0542 26.5158 21.5943 25.8141 21.3101C25.7059 21.2054 25.6462 21.0745 25.6313 20.9324C24.9184 20.6333 24.1235 21.0109 23.4069 20.6744C22.7986 20.3902 22.3769 19.9639 22.3545 19.2758C22.3284 18.5691 23.0076 18.7748 23.4107 18.5616C22.7277 18.1166 22.0746 18.4345 21.4252 18.5354C21.0669 18.5915 20.6191 18.7411 20.4549 18.2961C20.272 17.7913 20.6713 17.4772 21.0707 17.294C22.2687 16.7368 23.6533 17.0733 24.8625 16.5461C25.5977 16.8303 25.9448 17.6417 26.7024 17.8997C29.6395 18.8159 30.998 17.9371 31.9534 14.4969C32.1922 14.0444 32.8342 15.2036 33.0469 14.194C33.1103 13.8911 33.8866 14.0257 34.3456 14.0444C34.0172 16.3741 34.1329 18.9019 31.7407 20.3977Z" fill="#FDEECB"/>
<path d="M34.3456 14.0332C33.9314 14.6539 32.349 14.0033 32.9088 15.6561C32.2818 15.2896 32.6289 14.5978 32.1064 14.4109C31.6921 14.366 31.401 14.0631 31.039 13.906C30.1359 13.5508 29.326 13.8425 28.5385 14.265C28.0161 14.523 27.5384 14.8521 27.0644 15.1887C26.318 15.5925 25.8888 16.5648 24.8401 16.4227C23.9742 15.7309 23.9108 14.6951 23.6831 13.7303C24.0601 12.4963 25.4484 12.7206 26.1911 11.9952C26.7695 11.4306 27.4749 11.0155 28.0534 10.4433C28.4788 10.0133 28.7737 9.40379 29.4902 9.35891C30.4792 9.73286 30.9121 10.9856 32.1101 11.0304C32.7371 10.3424 33.3529 10.7612 33.9724 11.0491C34.2673 12.0251 34.4688 13.0086 34.3456 14.0332Z" fill="#FDF4DB"/>
<path d="M5.60869 24.4998C6.29912 22.6151 7.96736 22.0767 9.65799 21.6205C10.5388 21.3849 11.4718 21.5232 12.0353 22.2636C12.6436 23.0601 12.5242 24.0548 12.0391 24.8887C11.4494 25.9021 10.7291 26.8369 10.0685 27.8055C8.8332 27.9962 7.75836 29.5518 6.34391 28.2467C7.23587 27.5549 7.72104 26.7135 7.36276 25.5468C7.10525 24.7092 7.41501 24.1259 8.1465 23.7557C7.24707 23.7631 6.91865 25.8049 5.60869 24.4998Z" fill="#EEC88F"/>
<path d="M13.823 26.7472C14.3268 26.2648 14.8306 25.7787 15.3345 25.2963C16.9617 24.096 17.8163 24.4886 18.7045 26.8444C18.9135 28.5683 17.4618 29.7948 17.3386 31.4215C17.2938 31.5 17.249 31.5748 17.2005 31.6496C17.0363 31.7318 16.8348 31.7805 16.7191 31.9076C15.7711 32.9584 14.6366 32.9883 13.5356 32.3264C12.3675 31.6234 12.5503 30.3931 12.8004 29.3124C13.0131 28.4262 13.4759 27.5998 13.823 26.7472Z" fill="#ECC285"/>
<path d="M5.60869 24.4998C7.09032 24.9485 7.61655 22.9891 9.48631 23.277C6.69472 23.9165 8.16143 25.8759 7.81435 27.2258C7.53444 28.3177 7.06047 28.2467 6.34391 28.2542C4.99663 27.4502 5.2728 26.1152 5.23548 24.8812C5.35864 24.7503 5.48553 24.6232 5.60869 24.4998Z" fill="#ECC383"/>
<path d="M20.5407 31.2345C20.6639 31.3579 20.787 31.485 20.9139 31.6084C20.0667 33.1491 18.5814 33.164 17.208 31.6496L17.1557 31.571C17.5028 30.8232 17.7678 30.0267 18.4508 29.4882C18.6597 29.3461 18.8874 29.2489 19.1412 29.2302C20.1712 29.4994 20.2235 30.4604 20.5407 31.2345Z" fill="#FDF4DC"/>
<path d="M10.3783 31.156C10.3671 32.304 10.2514 33.0481 9.32583 33.3323C9.18775 33.3734 8.79961 33.1042 8.78842 32.9509C8.68765 31.9039 9.63933 31.844 10.3783 31.156Z" fill="#F6DBAB"/>
<path d="M23.8884 13.6293C24.2765 14.5156 24.6647 15.4056 25.0528 16.2918C25.1424 16.4264 25.1274 16.5423 25.008 16.6508C24.5154 17.3201 23.8399 17.451 23.0487 17.4136C22.2127 17.3762 21.3058 17.2453 20.5967 18.2438C21.373 18.0643 21.9925 17.8511 22.6307 17.7988C23.2614 17.7464 23.9294 17.9222 24.1646 18.5915C24.3026 18.9804 24.4258 19.7545 23.5264 19.2198C23.2539 19.059 23.0449 18.8608 22.5747 19.1038C23.336 21.2615 25.2469 19.9602 26.471 20.4837C26.4187 20.5547 26.3702 20.6893 26.2881 20.7118C26.1127 20.7641 25.9224 20.7567 25.7358 20.7754C25.2618 21.254 24.5937 21.2016 24.0227 21.4148C23.5376 21.5606 23.0412 21.684 22.6232 21.9944C21.7051 22.746 21.7163 23.7706 21.8059 24.8139C21.8619 25.4683 22.1791 26.0965 22.0298 26.7734C21.8059 27.3754 21.1789 26.65 20.9139 27.1137C20.022 27.1585 20.1115 26.4032 19.9137 25.8871C19.9137 25.7712 19.9473 25.6553 19.9809 25.5431C20.0369 25.3561 19.9958 25.3075 19.8689 25.4085C19.7383 25.5319 19.5965 25.6142 19.4174 25.6179C18.809 25.3898 19.3763 23.6061 17.932 24.4961C17.0773 23.2471 17.4095 21.9308 17.7043 20.6183C17.7752 20.4388 17.8685 20.2705 17.9805 20.1097C18.197 19.8218 18.4918 19.6012 18.7307 19.3282C19.951 17.4585 18.3089 17.0771 17.2229 16.404C16.984 15.6299 17.8648 14.5081 16.5026 14.0743C16.1891 13.835 16.1481 13.5134 16.219 13.1544C16.5884 12.328 17.4431 11.9391 17.9395 11.2211C18.5963 10.2713 18.9471 9.22429 18.9434 8.07629C18.9434 6.24772 18.0178 5.60454 16.2936 6.2178C15.8868 6.36364 15.5099 6.59549 15.0919 6.71141C14.9202 6.7488 14.7485 6.75254 14.5731 6.7301C13.7148 6.43469 13.293 5.65689 12.7146 5.05111C14.812 4.04894 16.9206 3.08043 19.3278 3.1814C19.8988 3.20384 20.4213 3.07296 20.9214 2.8112C21.8208 2.73267 22.1045 3.20384 22.0447 4.03025C21.9813 4.91649 21.9477 5.80647 21.8731 7.18631C22.4217 6.08319 23.0225 5.52601 23.1606 4.68464C22.8957 4.35931 22.8583 3.95172 22.78 3.56282C22.8247 3.17018 22.9964 2.72145 23.4144 2.88599C24.2392 3.21131 24.7617 2.91216 25.329 2.36247C26.2135 1.50614 27.1241 2.06331 28.0123 2.42604C30.3561 3.1627 32.3229 4.36305 33.0208 6.9096C33.3865 8.24457 33.6627 9.60198 31.8825 10.3386C31.1211 10.6528 31.5914 10.9332 32.1101 11.0267C30.5427 12.515 31.2518 10.477 30.8263 10.1928C30.1807 10.1741 30.3113 11.1351 29.688 11.1389C29.1767 10.6378 30.2628 9.94226 29.4454 9.51597C29.2066 9.27665 29.2066 8.97001 29.173 8.65964C28.9453 6.46087 27.404 5.63446 25.4111 6.63662C23.5376 7.57895 22.4329 9.8413 22.6755 12.2495C22.8621 12.9114 23.5264 13.132 23.8884 13.6293Z" fill="#FDF1D3"/>
<path d="M12.7108 5.06233C13.8939 4.86414 13.879 6.16171 14.5769 6.56557C14.8157 7.13396 14.3641 7.54904 14.2559 8.0389C13.446 9.64685 14.644 11.0155 14.7821 12.5112C14.4574 13.4311 13.823 13.117 13.2818 12.8291C12.5429 12.4365 11.8524 12.586 11.1359 12.8328C9.19521 12.257 7.56803 13.0161 6.00429 14.0369C5.7841 13.491 4.84362 13.6742 4.85854 12.8927C5.23548 12.2757 5.61615 11.6587 5.99309 11.0454C6.93731 10.4994 7.91511 11.0753 8.87799 10.9743C9.62813 10.8958 10.229 10.7874 10.8112 10.1517C11.5837 9.30282 11.4568 8.83913 10.5425 8.36797C10.3522 8.15482 10.2215 7.91176 10.1618 7.63504C10.1133 7.23493 10.229 6.88342 10.4678 6.56931C11.218 6.06823 11.8189 5.35026 12.7108 5.06233Z" fill="#FDF4DD"/>
<path d="M10.4716 6.56557C10.4716 6.93577 10.4678 7.30971 10.4678 7.67992C10.382 7.88558 10.1618 8.181 10.2738 8.28944C10.4343 8.4465 10.6283 8.14734 10.8149 8.06508C11.2217 8.41284 11.5912 8.80922 12.2219 8.76061C12.3227 8.75313 12.5317 9.14951 12.5578 9.37387C12.6101 9.82634 12.3152 9.83756 11.9644 9.74781C11.8002 9.70668 11.4755 9.6992 11.4531 9.76277C10.2626 12.9039 7.91511 11.0566 5.99683 11.0417C7.33291 9.40005 8.81081 7.88932 10.4716 6.56557Z" fill="#FEF1D2"/>
<path d="M11.162 12.5673C11.7368 11.6624 12.4832 12.0102 13.2333 12.2644C13.67 12.4103 13.9984 13.2666 14.5918 12.4925C15.3569 12.3804 15.9055 12.7917 16.4317 13.2591C16.4429 13.5732 16.5063 13.8649 16.8124 14.0332C17.1595 14.5118 17.1893 14.9793 16.6332 15.2896C16.1294 15.5701 15.6517 15.3756 15.3046 14.9568C14.8306 14.3847 14.4649 13.6966 13.4983 13.6929C13.7633 14.1603 14.2858 14.265 14.5806 14.6165C14.9165 15.0167 15.271 15.3831 14.5321 15.7982C14.4313 15.8543 14.8456 15.873 15.0098 15.858C15.842 15.7683 16.6295 15.7571 17.0214 16.7106C16.9915 17.3127 16.7041 17.7614 16.2003 18.0755C15.271 18.7748 14.0245 18.255 13.0803 18.8982C12.2779 20.2294 10.9605 20.005 9.72143 20.02C10.1096 19.3992 10.8784 19.8517 11.371 19.4254C11.3524 18.5541 10.2775 19.1487 10.0946 18.5242C10.0424 18.4046 9.99761 18.24 10.0722 18.1839C12.1697 16.6433 12.0204 14.6764 11.162 12.5673Z" fill="#FDF1D4"/>
<path d="M13.0803 18.8944C13.7707 17.7128 15.1255 18.2999 16.0585 17.7726C16.5437 18.2587 16.1443 18.8234 16.2003 19.3432C16.1966 19.8218 16.5399 19.8891 16.9094 19.9265C17.4095 19.9564 17.9021 19.9976 18.2903 20.3678C17.6372 21.699 18.044 23.1237 17.932 24.5035C17.932 24.6269 17.932 24.7503 17.932 24.8738C17.0624 24.5709 16.1891 24.6157 15.3195 24.8775C14.0208 23.9613 12.666 23.2097 14.3679 21.3138C15.2337 20.3453 14.4948 19.2235 13.0803 18.8944Z" fill="#FCEECC"/>
<path d="M15.3195 24.8775C16.1891 24.0885 17.0587 24.0847 17.932 24.8738C18.4284 25.0719 18.7045 25.4982 18.8314 25.9657C19.3129 27.7494 20.3354 29.361 20.5407 31.2345C20.0443 30.61 19.548 29.9893 19.0516 29.3648C18.5105 28.9348 18.7232 28.2991 18.6187 27.7531C18.5403 27.525 18.4731 27.2932 18.3164 27.0987C17.8462 25.0682 17.3311 24.7541 15.3382 25.2926C15.3307 25.1542 15.3233 25.0158 15.3195 24.8775Z" fill="#FDF1D3"/>
<path d="M7.48219 20.7641C7.69119 20.2967 6.99329 19.661 7.63894 19.3469C8.1353 19.1038 8.5533 19.3992 8.60181 20.02C8.01961 19.9564 7.87033 20.5398 7.48219 20.7641Z" fill="#FDF1D4"/>
<path d="M8.60181 20.3902C9.15416 20.809 9.38182 20.2444 9.7177 20.0162C9.67665 20.4164 9.82967 20.9361 9.25119 21.0521C8.76602 21.153 8.65406 20.7754 8.60181 20.3902Z" fill="#FDF1D4"/>
<path d="M22.0298 26.7809C20.8393 24.3241 20.94 22.9741 22.4179 21.527C22.8434 21.7326 23.2614 21.5307 23.6645 21.4522C25.4447 21.1044 26.9935 22.3721 26.9636 24.1296C26.9487 24.9074 27.6018 25.5394 27.5906 26.3433C27.1875 27.3268 26.1239 27.3605 25.3961 27.884C24.0899 28.0784 23.0263 27.5325 22.0298 26.7809Z" fill="#EECA92"/>
<path d="M27.5869 26.3433C27.3891 25.9731 27.2808 25.4496 26.9711 25.2552C25.7992 24.5185 25.4185 23.894 27.4525 23.1798C26.3329 23.2471 25.4521 23.7407 25.6126 22.2823C25.6723 21.7401 24.7729 21.4559 24.1123 21.6317C23.5189 21.7887 22.9479 22.1365 22.4179 21.527C22.8583 21.2465 23.3286 21.067 23.8623 21.1156C24.5154 20.8726 25.1685 20.8838 25.8216 21.1044C26.6837 21.0072 27.3592 21.4111 27.9937 21.9196C29.3409 23.5276 28.5423 24.9411 27.5869 26.3433Z" fill="#EFC380"/>
<path d="M19.4174 25.6254C19.5442 25.4982 19.6711 25.3748 19.798 25.2477C20.0033 25.2926 20.1302 25.416 20.1675 25.6254C20.2272 26.2199 20.4288 26.7397 20.9102 27.1211C20.9512 27.4166 21.1266 27.8653 21.0035 27.9737C20.593 28.3327 20.369 27.8802 20.231 27.596C19.9249 26.9566 19.6861 26.2872 19.4174 25.6254Z" fill="#FEF8E3"/>
<path d="M11.162 12.5673C13.14 15.2223 12.9497 16.2843 10.0946 18.5205C8.85186 18.9468 7.60908 19.029 6.3663 18.5167C5.14964 17.1145 5.5639 15.5776 6.00802 14.0407C7.66133 11.9653 8.50105 11.726 11.162 12.5673Z" fill="#EEC88C"/>
<path d="M22.7762 3.57404C23.3883 3.78345 23.4816 4.1686 23.1569 4.69586C22.933 4.70334 22.556 4.78561 22.515 4.6996C22.3022 4.28453 22.3508 3.86945 22.7762 3.57404Z" fill="#F6D89D"/>
<path d="M25.008 16.6508C25.0304 16.5311 25.0453 16.4115 25.0528 16.2918C25.6649 15.7907 26.2769 15.2934 26.889 14.7923C27.4712 14.9381 27.822 15.5925 28.7065 15.5103C27.3853 15.1438 28.3407 14.523 28.3258 14.007C29.2626 13.2703 30.2404 12.8814 31.3525 13.663C31.2742 13.8873 30.83 13.9659 30.9047 14.022C32.3079 15.0391 31.054 15.9216 30.6957 16.7368C30.3411 17.5482 29.688 17.8175 28.714 17.2042C28.4975 17.0659 27.4339 18.1914 26.4934 18.169C25.6425 18.0194 25.1125 17.5445 25.008 16.6508Z" fill="#F0CE97"/>
<path d="M26.4971 18.169C26.5605 17.3463 28.4191 18.0306 27.7884 16.6246C28.0758 16.5872 28.3631 16.5311 28.6542 16.5162C30.3001 16.4301 30.3001 16.4339 31.1473 14.6614C30.7106 14.4707 30.274 14.28 29.8448 14.0781C29.8112 14.0631 29.8186 13.9659 29.8 13.8761C30.2665 13.4536 30.8375 13.7527 31.3525 13.663C31.6026 13.9135 31.8526 14.1603 32.1064 14.4109C32.2333 15.9216 32.2632 17.4921 30.5651 18.1316C29.2738 18.6214 27.8593 19.4217 26.4971 18.169Z" fill="#F0CA8E"/>
<path d="M25.8216 21.1007C25.1685 21.1044 24.5154 21.1082 23.8623 21.1119C24.4109 20.5697 25.105 20.8464 25.7358 20.7791C25.7582 20.8875 25.788 20.996 25.8216 21.1007Z" fill="#EECA92"/>
<path d="M22.3657 12.5561C21.5596 10.0021 23.5376 6.36364 26.0194 5.82143C28.6916 5.24182 30.0127 6.67027 29.4454 9.52719C29.0797 9.90113 28.7177 10.2751 28.3557 10.649C27.557 10.1891 26.8367 9.54962 25.844 9.53467C25.3887 9.14577 24.9968 9.86374 24.5527 9.62441C22.9964 9.88617 23.4219 11.094 23.3883 12.0812C23.4107 12.257 23.3995 12.429 23.3584 12.601C22.989 13.2928 22.6829 12.8403 22.3657 12.5561Z" fill="#EEC68A"/>
<path d="M25.7656 9.17568C27.7399 9.42622 27.7399 9.42622 28.3519 10.649C27.195 12.1373 25.5902 12.9562 23.8884 13.6293C23.1905 13.5433 22.5374 13.3937 22.362 12.5561C22.6269 12.5524 22.9031 12.96 23.1569 12.5337C23.6906 12.0812 24.1235 11.5614 24.3101 10.8734C24.3698 10.7163 24.4519 10.5667 24.5378 10.4209C24.9222 9.97966 25.2245 9.45988 25.7656 9.17568Z" fill="#F0CC92"/>
<path d="M28.3295 14.007C28.6057 14.6091 28.4415 15.6037 29.7141 15.3644C28.4676 16.1385 27.4973 16.2432 26.889 14.7923C27.3704 14.5343 27.7063 14.007 28.3295 14.007Z" fill="#F0CA8E"/>
<path d="M17.0773 26.4144C17.249 28.0186 16.7713 29.1965 16.5063 30.4081C16.4093 30.8456 16.2488 31.3467 15.689 31.1223C15.1927 30.9204 14.9949 30.4268 15.2673 29.892C15.8084 28.8188 16.3757 27.7568 17.0773 26.4144Z" fill="#EDC891"/>
<path d="M18.3164 27.0987C18.4358 27.2296 18.559 27.3642 18.6784 27.4951C18.9471 28.243 18.9919 28.9871 18.6486 29.7275C18.0066 30.2249 18.0626 31.2906 17.1557 31.571C16.5735 30.6998 17.2677 30.0603 17.57 29.3573C17.8835 28.6244 18.3798 27.955 18.3164 27.0987Z" fill="#EDC891"/>
<path d="M18.6486 29.7275C18.6597 28.9834 18.6709 28.2392 18.6784 27.4951C19.3017 28.0186 18.962 28.7328 19.0479 29.3648C18.9173 29.4844 18.7829 29.6041 18.6486 29.7275Z" fill="#FDF0CD"/>
<path d="M16.4317 13.2629C15.6218 13.4835 15.1591 12.8665 14.5918 12.4963C13.7334 10.9968 13.0131 9.47857 13.879 7.72479C14.8082 8.4465 15.0695 7.14892 15.7487 7.10779C15.4651 6.94699 14.7859 7.36581 14.9426 6.55809C15.4054 6.0084 16.0548 5.75038 16.7004 5.56341C18.1634 5.13711 19.3054 5.93735 19.4286 7.47051C19.6376 10.0133 18.4955 11.883 16.4317 13.2629Z" fill="#EFC98F"/>
<path d="M15.6927 19.6423C15.8159 19.0178 15.9353 18.3933 16.0585 17.7726C16.3123 17.4024 16.5661 17.0322 16.8198 16.6657C16.887 16.49 17.0102 16.3703 17.1818 16.2955C19.798 16.6994 20.175 17.3762 19.0516 19.6498C18.712 19.5974 18.503 19.8068 18.3052 20.0275C18.2977 20.1397 18.294 20.2556 18.2903 20.3678C17.6745 20.3752 17.055 20.3827 16.4392 20.3902C16.3795 19.9527 16.0585 19.7732 15.6927 19.6423Z" fill="#F4D8A7"/>
<path d="M17.1818 16.2955C17.0624 16.4189 16.9393 16.5423 16.8198 16.6657C16.1854 16.5236 15.7151 15.9365 14.8642 16.3666C14.2671 16.6695 13.67 16.0113 13.2669 15.4317C13.7633 14.998 14.241 15.858 14.6776 15.3158C14.4985 14.6913 13.8603 14.6651 13.4162 14.3996C12.9534 14.1229 12.7071 13.7452 12.5242 13.0647C13.7819 13.3339 15.1777 12.9488 15.5435 14.7138C15.5994 14.9867 15.9764 15.155 16.316 15.0802C16.9169 14.9493 16.7639 14.4408 16.8124 14.0332C17.8536 14.6352 18.6448 15.2784 17.1818 16.2955Z" fill="#FCEDCA"/>
<path d="M14.9426 6.55435C15.4838 7.23493 15.9092 6.49452 16.3869 6.42347C16.7601 6.36738 17.0139 6.51696 17.0512 6.84603C17.0736 7.04048 16.8049 7.44807 16.7713 7.43685C15.4016 6.98812 15.2636 8.43528 14.4798 8.99619C14.2596 8.52502 14.0693 8.12117 13.8827 7.72105C14.1141 7.33589 14.3492 6.95073 14.5806 6.56557C14.7 6.56183 14.8194 6.55809 14.9426 6.55435Z" fill="#F2D29D"/>
<path d="M20.1675 25.6254C20.0443 25.4982 19.9212 25.3748 19.798 25.2477C19.8615 24.9635 19.9249 24.6793 19.9884 24.3951C20.0929 24.44 20.2347 24.4587 20.2981 24.5372C20.6191 24.9336 20.5967 25.3075 20.1675 25.6254Z" fill="#FDF0CD"/>
<path d="M20.1563 22.7348C20.1041 22.8171 20.0257 23.0676 19.9287 23.0751C19.6264 23.0975 19.5256 22.832 19.4883 22.5852C19.4509 22.3347 19.4883 22.043 19.8316 22.0841C20.1265 22.1178 20.1451 22.4057 20.1563 22.7348Z" fill="#FDF0CD"/>
<path d="M18.3052 20.0275C18.3127 19.6722 18.3089 19.2609 18.7307 19.1674C19.0255 19.1038 19.0218 19.4329 19.0553 19.6498C18.8053 19.7732 18.5553 19.9003 18.3052 20.0275Z" fill="#E3BC83"/>
<path d="M10.8149 8.06882C10.703 8.95506 10.0163 9.10089 9.19894 9.44118C9.23253 8.37919 9.90804 8.07629 10.4678 7.68366C10.5835 7.8108 10.6992 7.93794 10.8149 8.06882Z" fill="#FAE1AA"/>
<path d="M16.6706 22.0879C16.8758 22.7348 16.8795 23.1985 16.3757 23.4976C16.2936 23.5463 15.9689 23.4042 15.9577 23.3182C15.8682 22.8021 16.0697 22.3983 16.6706 22.0879Z" fill="#FDF4DC"/>
<path d="M15.6927 19.6423C16.066 19.5114 16.4578 19.0814 16.831 19.5526C17.1893 20.005 16.4951 20.0723 16.4392 20.3902C15.9615 20.3715 15.6965 20.1359 15.6927 19.6423Z" fill="#EBCB92"/>
<path d="M23.1569 12.1672C22.2761 10.9183 23.1233 9.81886 23.7354 8.96628C24.381 8.06508 24.5042 9.05976 24.646 9.55336C24.9781 9.9273 24.9035 10.3012 24.646 10.6752C24.1384 11.1538 24.2952 12.3093 23.1569 12.1672Z" fill="#F0CC92"/>
<path d="M23.1569 12.1672C23.6533 11.6699 24.1496 11.1688 24.646 10.6714C24.5937 11.6474 24.5004 12.5935 23.1569 12.5374C23.1569 12.4103 23.1569 12.2869 23.1569 12.1672Z" fill="#F4D4A0"/>
<path d="M24.646 10.6714C24.646 10.2975 24.646 9.92357 24.646 9.54962C25.064 9.5571 25.2021 8.73443 25.7619 9.17568C25.4596 9.72164 25.3252 10.4022 24.646 10.6714Z" fill="#F4D4A0"/>
</svg>
