<svg width="40" height="53" viewBox="0 0 40 53" fill="none" xmlns="http://www.w3.org/2000/svg">
<path d="M4.92719 48.691C4.43402 49.8023 3.94833 50.9173 3.44769 52.0249C3.21232 52.5485 3.11518 53.317 2.21478 52.8612C1.36668 50.2091 3.21979 48.4235 4.05294 46.8752C3.61582 47.9714 2.30445 49.1618 1.64689 50.7591C1.46756 51.1961 1.14999 51.8139 0.413978 51.6369C-0.336979 51.1208 0.107617 50.5821 0.395297 50.0622C0.981865 49.0112 1.53107 47.9451 1.82996 46.766C3.45143 44.1026 5.19992 41.5183 6.75414 38.8135C7.04182 38.4105 7.30708 37.9885 7.58729 37.5817C7.8675 37.1824 8.11408 36.7567 8.42044 36.3762C8.81273 35.9656 9.06305 35.3892 9.70193 35.2649C10.5538 35.2837 10.5239 36.4026 11.2823 36.542C11.3757 37.6834 10.7181 38.6026 10.3894 39.6197C10.1727 39.9399 9.86258 40.1961 9.70193 40.554C9.57116 41.0475 10.0942 41.2094 10.2063 41.5749C9.95972 42.9574 8.07672 42.5807 7.76289 43.8916C6.82139 45.4927 6.2535 47.3197 4.92719 48.691Z" fill="#BED471"/>
<path d="M7.17259 38.8701C5.64078 41.3262 4.11645 43.7862 2.5585 46.2235C2.41279 46.4495 2.40906 47.0636 1.82996 46.7584C1.88974 45.6509 1.93831 44.5471 2.24093 43.4659C2.3829 42.9499 2.56224 42.3999 2.16247 41.8725C1.19482 40.5916 1.70293 39.4916 2.61454 38.4519C4.26963 38.2334 3.24968 36.8735 3.60087 36.1012C3.69428 35.9355 3.79889 35.7433 3.96327 35.6868C4.59094 35.4721 5.07663 35.28 4.24348 34.6433C4.0903 34.5266 4.18744 34.1687 4.28084 33.9125C4.16129 33.9314 4.20986 34.0331 4.19118 34.0896C4.01184 34.5642 4.27337 35.4646 3.51868 35.3855C2.8686 35.3177 2.97321 34.504 3.04419 33.9577C3.14133 33.2156 3.30572 32.481 3.24221 31.7238C3.16748 30.8348 3.72416 30.5183 4.4527 30.345C6.66074 30.4581 6.99325 30.8913 6.30955 32.7409C5.70803 33.1063 5.91352 33.4077 6.39174 33.6752C7.01567 33.2909 6.95589 32.044 8.08793 32.3153C8.66703 32.692 8.62593 33.2533 8.53626 33.8296C8.4466 34.2064 8.30089 34.5642 8.17386 34.9334C7.96837 36.2745 7.54993 37.5666 7.17259 38.8701Z" fill="#608F56"/>
<path d="M38.9033 16.2259C39.8485 17.0056 40.4127 17.8419 39.3068 18.9307C38.8996 19.0248 38.5334 19.1868 38.2644 19.5259C37.7675 19.9289 37.3939 20.5543 36.628 20.5053C36.2282 20.5882 36.2282 19.4015 35.6118 20.1851C35.5221 20.6673 35.5445 21.1796 35.2008 21.5827C34.8795 21.7786 34.5806 21.7372 34.3042 21.5074C34.1472 21.3454 33.9903 21.0553 33.7886 21.4885C33.5121 22.7053 32.0961 22.7467 31.5768 23.7111C30.8072 24.7735 29.6714 24.6944 28.5655 24.7094C27.9528 24.4043 27.7286 24.0087 28.3712 23.5152C28.7523 23.2252 29.111 22.9125 29.4771 22.6262C29.5742 22.5471 29.7498 22.6262 29.8134 22.5358C29.8657 22.4604 29.7498 22.3738 29.6153 22.3776C29.2754 21.8991 29.2978 21.4019 29.5145 20.8858C29.7349 20.5731 30.0263 20.3961 30.7287 20.2642C29.6153 20.4036 28.7934 20.6598 28.0537 20.1324C27.964 18.5615 29.2268 18.7649 30.1421 18.5087C30.5568 18.3505 30.8371 17.9964 31.1733 17.7327C31.2443 17.6762 31.5058 17.7176 31.3638 17.5029C31.3452 17.4765 31.1359 17.5368 31.0052 17.4991C30.6764 17.3108 30.5008 17.032 30.4971 16.6553C30.6801 15.7211 31.4535 15.4762 32.1895 15.1899C32.4996 15.0693 32.8172 14.9752 33.1385 14.8998C34.0165 14.7228 34.1024 13.6077 34.9281 13.3628C35.3914 13.2724 35.7874 13.3478 36.0489 13.7885C35.8696 14.7303 35.9144 15.77 34.9841 16.4029C34.6628 16.6478 34.2145 16.5875 33.8969 16.8512C34.1136 16.7306 34.3415 16.7457 34.5769 16.7834C35.3353 17.0735 36.2581 16.4104 36.9792 17.3522C37.1884 17.6235 37.9207 17.0169 38.0178 16.3803C38.2644 16.0262 38.5596 15.9622 38.9033 16.2259Z" fill="#5E8E55"/>
<path d="M4.81137 29.0303C5.17003 28.2995 4.91972 27.6327 4.72917 26.8906C4.1837 24.7961 4.02679 22.6676 4.8562 20.5882C4.94213 20.3735 5.16256 20.2115 5.32322 20.0269C6.45152 20.1889 6.77656 18.7724 7.81146 18.7461C8.23737 18.9985 8.23737 19.6163 8.72307 19.8122C9.10789 19.9289 9.44787 19.8122 9.78038 19.6163C11.2748 18.5878 11.1814 19.9967 11.5102 20.7577C11.7418 21.53 11.5364 22.306 11.5177 23.0783C11.5214 23.5228 11.3682 23.9221 11.1553 24.3063C10.9386 24.6718 10.8265 25.1125 10.4454 25.3687C9.63094 25.2632 9.76918 24.5851 9.71313 24.0652C9.63841 23.3269 9.06305 22.7844 8.58483 22.6902C7.71058 22.517 7.75168 23.2515 7.87497 23.9183C7.94222 24.2724 7.63586 24.57 7.3295 24.5474C6.61591 24.4947 6.54866 23.9522 6.57481 23.2704C6.45525 24.0426 6.97457 24.9091 5.95462 25.3498C6.87743 25.9639 7.94969 25.2707 8.6745 26.0317C8.71559 26.6194 8.22616 26.7211 7.86376 26.9358C7.10907 27.418 6.78029 28.0659 6.99325 28.9851C7.12028 29.5276 7.26972 30.2207 6.70184 30.507C6.04055 30.8385 5.79396 30.0964 5.46145 29.6933C5.26344 29.4485 5.00565 29.2714 4.81137 29.0303Z" fill="#619256"/>
<path d="M38.1299 24.9091C38.4848 26.6721 37.8236 27.7231 36.0153 27.9642C35.4922 28.1789 35.5184 28.8005 35.1522 29.1433C34.6404 29.618 34.2967 29.5653 34.0688 28.8909C34.0202 28.582 34.0127 28.2807 34.2892 28.0584C34.0053 28.145 33.8334 28.4389 33.527 28.4879C32.0886 27.7344 30.8632 28.8985 29.5107 28.9474C29.167 29.0115 28.8308 29.0152 28.5132 28.842C28.1994 28.567 28.3339 28.2995 28.5244 28.0433C28.558 27.806 28.827 28.0622 28.6178 27.9265C28.375 27.7683 28.4273 28.1601 28.2442 28.145C27.7099 28.4163 27.1308 28.5105 26.5555 28.6159C26.279 28.6348 26.01 28.5971 25.7485 28.5029C24.68 28.0094 24.9041 27.4368 25.6401 26.8265C26.9029 25.5947 28.8382 26.1259 30.1683 25.0673C30.9491 24.7885 31.7673 24.7885 32.5781 24.7358C32.7537 24.7546 32.9069 24.8337 33.0264 24.9618C33.2057 25.1992 33.1086 25.5081 33.2132 25.768C33.3141 25.4365 33.3029 25.056 33.6055 24.8036C34.4088 24.6981 35.2083 24.7283 36.0116 24.8224C36.7027 25.1954 37.45 24.3063 38.1299 24.9091Z" fill="#5E8B53"/>
<path d="M24.3063 40.004C22.797 40.4786 22.6064 42.3358 20.8841 42.9348C19.3485 43.4697 18.1231 43.6392 16.6698 43.191C16.2663 43.0666 15.8067 43.1194 15.3733 43.0892C14.8802 42.9122 14.7195 43.4396 14.3721 43.5752C13.9088 43.7146 13.5389 43.6242 13.3073 43.1608C13.2064 42.4865 13.6136 42.155 14.1554 41.944C15.194 41.5409 14.6448 41.0927 14.2002 40.6406C13.9349 40.2639 13.113 40.1999 13.5389 39.4389C14.0134 39.0923 14.6 39.1413 15.123 38.9718C16.0907 38.3954 17.0882 38.1279 18.1605 38.6629C18.2987 38.7872 18.3846 38.9454 18.4108 39.13C18.0857 39.6084 17.5926 39.5896 16.8678 39.5707C17.544 39.6197 17.9811 39.6009 18.3958 39.405C18.818 39.1639 19.2402 39.1827 19.6698 39.3899C20.1219 39.6951 19.7857 40.0303 19.696 40.3581C20.1443 40.1358 20.2116 39.5707 20.6412 39.3372C21.4071 38.9529 22.1693 38.4971 23.0734 38.7646C23.6936 38.9416 24.4707 39.017 24.3063 40.004Z" fill="#64955A"/>
<path d="M35.8808 13.9882C35.6155 13.5361 35.1672 13.6265 34.7562 13.6077C34.3751 13.4872 34.2033 13.2009 34.1584 12.8204C34.1622 11.9012 34.9729 11.3813 35.2457 10.594C35.3988 10.2625 35.5109 9.92345 35.4399 9.54674C35.6081 9.06078 36.3291 9.37345 36.4375 8.82345C35.7426 7.8892 36.2282 7.29776 37.0016 6.7892C39.2134 6.80804 40.0167 8.23954 38.8585 10.2211C38.2345 11.2909 37.9095 12.0406 39.5048 12.5303C40.4837 12.8317 39.7514 13.5098 39.5048 14.0183C39.1686 14.7152 38.0216 15.1861 38.907 16.2183C38.6418 16.3426 38.3765 16.467 38.115 16.5913C37.3154 17.1978 36.8671 16.6892 36.4524 16.0639C36.0078 15.4461 36.4674 14.5721 35.8808 13.9882Z" fill="#699760"/>
<path d="M24.3063 40.004C23.2378 38.2485 21.8293 39.6046 20.5702 39.5933C20.1966 39.1639 20.5628 38.4971 20.0995 38.0978C20.3386 37.4084 20.0958 36.3536 21.3474 36.429C22.0647 36.7416 22.8679 36.6701 23.5965 36.9413C23.6301 36.9526 23.7497 36.979 23.7646 36.9488C23.8879 36.6701 23.5442 36.8019 23.4919 36.6512C23.3387 36.444 23.3051 36.2142 23.3387 35.9694C23.4097 35.7245 23.5591 35.5361 23.7646 35.393C24.1868 35.2235 24.6687 35.2122 25.0498 34.9183C25.203 34.8656 25.3562 34.8468 25.5168 34.8581C25.6775 34.8995 25.812 34.9899 25.9166 35.118C25.8905 35.7471 26.1781 36.1615 26.761 36.3724C27.0636 36.606 27.1719 36.9074 27.0935 37.2803C27.0412 37.5553 26.6227 37.8077 26.9403 38.0903C27.2653 38.3803 27.6352 38.1882 27.9603 37.9735C29.6564 37.4498 28.8532 38.5838 28.7859 39.2355C28.629 39.7704 28.2405 39.9927 27.7211 40.0303C27.4148 39.582 26.944 39.8382 26.5555 39.7516C26.9291 39.906 27.4148 39.5858 27.7174 40.0303C26.5742 40.6933 25.4421 40.2149 24.3063 40.004Z" fill="#608C57"/>
<path d="M13.4642 42.9762C13.722 43.4283 14.1628 43.3492 14.5701 43.368C14.6821 43.4471 14.727 43.5338 14.6971 43.6242C14.6672 43.7183 14.6373 43.7673 14.6037 43.7673L14.6074 43.7635C14.0507 44.193 13.2624 43.5903 12.7431 44.1855C10.692 46.668 7.51257 47.154 4.92719 48.691C5.61463 46.9543 6.37306 45.2553 7.47147 43.7296C9.37688 42.7464 11.2898 41.8084 13.4642 42.9762Z" fill="#5F8D53"/>
<path d="M27.6539 1.93337C27.7884 2.04639 27.9229 2.15563 28.0574 2.26865C28.2741 2.91283 27.3998 2.84879 27.3886 3.34228C27.3998 4.58166 28.3339 3.68132 28.756 3.94502C29.0886 4.09194 29.3389 4.27653 29.0699 4.66831C28.9765 4.74742 28.913 4.81899 28.8943 4.87927C28.9802 4.8529 29.0736 4.80016 29.1894 4.71728C29.4734 4.52139 29.8993 4.37824 29.9703 4.73988C30.1944 5.85495 30.4223 4.55153 30.6166 4.76625C30.8595 4.64947 31.1098 4.61557 31.3713 4.64947C31.5394 4.68714 31.6889 4.76249 31.8271 4.86796C32.3315 5.62516 31.2891 6.42002 31.8832 7.17721C31.9616 7.6255 31.801 7.98715 31.4797 8.28852C31.0724 8.52208 30.7362 8.1868 30.3588 8.1529C30.0076 8.00598 29.5892 8.18304 29.2529 7.93817C28.6029 6.52173 27.0038 6.83064 25.9726 6.11112C25.5617 5.81728 25.0312 5.63646 24.9564 5.02242C24.9751 3.42892 24.8406 3.37242 23.1444 4.24639C22.7334 4.30666 22.4719 4.10701 22.2963 3.75666C22.188 3.16522 22.4271 2.68303 22.7745 2.23851C23.0585 1.77515 23.4321 1.40974 23.929 1.18748C24.0672 1.05563 24.254 1.05563 24.4222 1.00289C25.3226 0.73166 24.6575 2.4344 25.7485 2.02755C26.3276 1.80529 27.0001 1.45872 27.6539 1.93337Z" fill="#67965D"/>
<path d="M35.892 25.3009C35.1747 24.9769 34.2743 25.7115 33.6354 24.9053C33.4038 25.1276 33.1684 25.1313 32.9218 24.9317L32.8508 24.9015C32.5482 24.1557 32.9816 23.519 33.1572 22.8447C33.5196 21.9557 34.5918 22.1365 35.1261 21.5111C35.1298 20.8858 35.1336 20.2604 35.1336 19.6351C35.8808 19.3752 35.9144 20.5844 36.6355 20.381C37.1286 20.008 37.6218 19.6313 38.115 19.2584C38.4363 19.2471 38.6791 19.3865 38.8697 19.6389C38.8771 19.8913 38.8809 20.1437 38.8883 20.3961C38.2719 20.6447 37.7974 21.093 37.3229 21.545C37.1697 21.6618 36.9941 21.7108 36.8036 21.6844C36.7999 21.7183 36.8335 21.7748 36.8596 21.7635C37.0801 21.6618 37.3229 21.5978 37.4873 21.3981C37.8422 21.3491 38.2084 21.2889 38.0926 21.8615C37.6255 22.5584 36.7662 23.195 37.775 24.1029C37.4985 25.056 36.6504 25.1087 35.892 25.3009Z" fill="#63925A"/>
<path d="M9.69072 8.69537C10.2623 8.29982 10.7817 7.81763 11.286 7.38441C12.7805 6.09982 14.4655 4.77379 16.6623 5.02995C17.4469 5.12036 18.1194 5.21077 18.6536 4.51385C18.7171 4.5666 18.7769 4.61934 18.8404 4.66831C18.96 5.41043 20.4507 5.46317 19.8006 6.60084C18.9226 7.23749 19.3896 8.44674 18.7283 9.17756C17.8055 9.4827 17.6187 8.77824 17.3647 8.16797C17.2974 7.9005 17.2974 7.63304 17.4207 7.38064C18.0148 6.35598 17.0583 6.62345 16.7146 6.38235C17.0172 6.64228 17.9027 6.36728 17.4543 7.3279C17.1629 7.58406 16.8043 7.64434 16.4381 7.68954C14.8914 7.68201 13.4455 8.00975 12.0669 8.77071C11.3271 9.17756 10.4604 9.42619 9.69072 8.69537Z" fill="#65925B"/>
<path d="M4.81137 29.0303C6.04055 28.5067 5.70803 30.1266 6.66074 30.281C6.60096 28.9173 5.99571 27.3728 7.5051 26.4122C8.34572 27.1279 8.98086 27.9981 9.43666 29.0039C9.52259 29.1471 9.59731 29.2978 9.67204 29.4485C9.84763 29.9118 10.3072 30.2772 10.1465 30.8574C8.62966 31.6033 8.70812 30.1605 8.24858 29.4522C7.96464 29.2714 7.93101 28.8457 7.5051 28.695C7.90486 28.8947 7.99826 29.2827 8.27473 29.4974C8.93602 30.379 7.64707 31.1135 8.0954 31.98C8.07299 32.157 7.99826 32.3115 7.87497 32.4433C7.19127 32.7183 7.11654 33.2947 7.09786 33.9351C7.08292 34.4248 6.94842 34.8505 6.36185 34.3231C6.01066 33.8748 6.10406 33.3135 5.99198 32.805C7.00446 31.0194 5.76407 30.7783 4.48259 30.5635C4.1314 30.7029 4.01932 30.4769 3.94086 30.2019C3.90723 29.7837 4.3182 29.6255 4.4527 29.3053C4.57599 29.2149 4.69181 29.1245 4.81137 29.0303Z" fill="#57864C"/>
<path d="M4.11645 30.1868C4.23975 30.3111 4.36304 30.4392 4.48633 30.5635C2.97321 31.7992 4.12393 33.6262 3.58966 35.0916C3.80636 34.3533 4.02679 33.6149 4.2659 32.7974C4.89356 33.3625 3.75779 35.1142 5.6221 34.8279C5.8388 34.794 5.84253 35.7584 5.26344 35.6868C4.60215 35.604 4.2248 35.943 3.76152 36.2142C3.38418 36.3159 3.71296 37.1183 3.05167 36.9413C2.67058 36.0485 2.34181 35.1255 1.89721 34.2666C0.843629 32.2324 2.29697 31.0759 3.3655 29.7724C3.57098 29.9985 3.63076 30.4807 4.11645 30.1868Z" fill="#6B9B62"/>
<path d="M8.28968 13.2385C7.68443 11.9313 7.55367 10.6656 8.62219 9.51283C9.44787 9.00427 10.3931 9.44879 11.3122 9.14365C12.0295 8.90633 13.0345 9.41112 12.8029 10.658C12.2462 11.0837 11.7717 11.4981 12.3284 12.293C12.646 12.7488 12.8328 13.3063 12.1565 13.6906C11.3234 13.8036 10.2922 14.4478 10.2586 12.8317C9.29095 13.1632 9.73555 14.0372 9.25733 14.4252C8.08419 14.7341 8.62593 13.6228 8.28968 13.2385Z" fill="#66945C"/>
<path d="M33.6466 31.7012C32.7537 32.4283 31.7636 33.0574 32.6229 34.5153C32.9181 35.0125 32.6528 35.7358 32.182 36.2293C31.6515 36.4704 31.1135 36.0673 30.5681 36.267C29.2642 36.7416 28.4721 36.1125 27.9416 34.9673C27.9266 34.779 28.0014 34.6358 28.1508 34.5266C28.8308 34.2101 29.4771 34.6057 30.1347 34.6132C30.2094 34.5303 30.5755 34.6961 30.3775 34.4361C30.1272 34.1046 29.6789 34.1009 29.2679 34.1498C29.096 34.1536 28.9354 34.1159 28.7785 34.0444C28.6589 33.9201 28.5879 33.7694 28.5618 33.5961C28.5655 33.4228 28.6141 33.2646 28.7 33.1177C28.8196 33.0046 28.9578 32.918 29.1072 32.8502C29.2193 32.8012 29.3389 32.7748 29.4547 32.7409C29.7312 32.6581 30.3962 32.805 29.7909 32.1796C30.0151 31.4752 30.5531 31.332 31.1995 31.3735C31.7449 31.4601 32.1634 31.3509 32.3614 30.7444C32.5034 30.3074 32.7948 29.9909 33.2991 29.9759C33.471 30.006 33.6167 30.0851 33.7325 30.217C33.8633 30.718 33.796 31.2115 33.6466 31.7012Z" fill="#629158"/>
<path d="M31.39 4.94331C31.1434 4.94331 30.8968 4.94331 30.6502 4.93954C30.0562 4.64947 29.6751 4.14844 29.3688 3.57961C29.3426 3.03337 28.6402 2.57002 29.1745 1.95974C29.4173 1.69228 29.6564 1.42104 29.8993 1.15358C30.8146 -0.0368344 31.9728 1.18371 32.9741 0.837139C34.0426 0.550837 35.0103 -0.662177 36.232 0.483029C36.6654 1.3005 36.019 1.27036 35.5632 1.30426C33.796 1.43611 32.8508 2.46831 32.4398 4.11831C32.3091 4.23132 32.1559 4.29536 31.9878 4.31043C31.0164 3.77173 31.9504 5.08269 31.39 4.94331Z" fill="#67915F"/>
<path d="M28.0126 34.6885C28.771 35.7358 29.6266 36.4666 30.994 35.668C31.6291 35.2988 31.7748 36.0673 32.1858 36.2293C32.0102 37.1108 31.3078 37.4159 30.583 37.4951C29.4808 37.6118 29.0512 38.305 28.7897 39.2317C28.6701 38.8475 28.9914 38.3766 28.5879 38.079C28.5281 38.0375 28.233 38.3314 28.0424 38.4707C27.4409 38.3201 27.0636 37.9433 26.9179 37.3331C26.9104 37.0242 26.8432 36.7454 26.5443 36.5834C27.4036 36.1125 26.0137 35.344 26.7684 34.8581C27.157 34.6433 27.5605 34.4701 28.0126 34.6885Z" fill="#68965E"/>
<path d="M32.1447 4.20118C32.1671 4.14468 32.1858 4.0844 32.2119 4.0279C32.5444 3.30837 31.715 2.27618 33.2244 1.77139C34.1248 1.47002 34.8758 0.675153 35.9891 0.908715C36.0377 0.920016 36.1461 0.633714 36.2282 0.486796C37.6554 1.55666 36.3441 2.96557 36.6803 4.17105C36.4263 4.61933 36.0153 4.77755 35.5371 4.80016C35.3577 4.77755 35.1971 4.70221 35.0588 4.5892C34.8011 4.11077 35.0364 3.30084 34.4349 3.12755C33.9231 2.98063 33.7699 3.75666 33.3776 4.03166C33.0003 4.3255 32.6117 4.55153 32.1447 4.20118Z" fill="#6F9C68"/>
<path d="M36.9979 6.79297C36.5271 7.55769 36.3852 8.31865 36.9979 9.08338C36.0153 8.98544 35.1971 9.68612 34.2332 9.67482C33.8782 9.54297 33.7998 9.08715 33.4224 8.97413C33.1422 8.83098 32.9069 8.64639 32.7724 8.34879C32.6976 7.83646 33.0488 7.45221 33.1572 6.99262C33.2356 6.67995 33.3029 6.35975 33.4448 6.06591C33.5756 5.85119 33.7549 5.6892 33.9903 5.59502C34.2444 5.56865 34.4461 5.68166 34.6367 5.82482C35.567 6.16762 35.3652 5.03372 35.8883 4.8416C36.288 4.79639 36.5495 4.97344 36.6878 5.34639C36.4113 5.90769 36.0041 6.5029 36.9979 6.79297Z" fill="#66945E"/>
<path d="M12.717 10.594C11.9436 9.61455 11.9847 9.79537 10.9124 10.0327C10.2212 10.1871 9.39183 9.70872 8.62219 9.51283C8.80526 9.00804 9.15646 8.72927 9.69072 8.69913C10.4155 8.71797 11.1702 8.83475 11.8166 8.39776C13.2251 7.44845 14.8054 7.21865 16.4456 7.20735C16.1542 8.78578 14.4468 8.1529 13.6921 9.00427C13.2961 9.5505 13.9237 10.1005 13.6809 10.6467C13.3297 11.2419 13.0158 11.08 12.717 10.594Z" fill="#608C56"/>
<path d="M0.413978 51.6331C2.16995 49.8663 2.89475 47.3649 4.77027 45.6283C4.13514 48.1146 2.16621 50.1451 2.21478 52.8612C1.50866 52.6088 0.925824 52.1718 0.413978 51.6331Z" fill="#C9DB85"/>
<path d="M8.28968 13.2385C8.74548 13.5135 8.53626 14.4289 9.35073 14.3611C9.3993 14.4327 9.44787 14.5005 9.50018 14.5721C9.32832 15.8228 8.12155 16.7231 8.33078 18.0981C8.3644 18.2601 8.37561 18.4259 8.37187 18.5916C8.28221 18.8327 8.16639 19.0324 7.85629 18.8817C7.0194 19.2772 6.69436 20.833 5.32322 20.0269C5.77902 19.4957 6.76161 19.4693 6.76535 18.5012C6.54492 17.2128 7.88618 16.0827 7.13522 14.7454C7.63586 14.331 8.57736 14.2632 8.28968 13.2385Z" fill="#72A06A"/>
<path d="M22.7708 2.23474C22.8754 2.80735 22.7073 3.31968 22.4271 3.8094C22.3262 4.12207 22.0722 4.44228 21.7994 4.3481C20.716 3.96762 19.7632 4.64194 18.7396 4.65324L18.6574 4.51385C19.2215 2.27618 21.4034 3.00324 22.7708 2.23474Z" fill="#6E9A63"/>
<path d="M7.13522 14.7416C7.5462 14.8282 8.30462 14.5909 8.03562 15.4197C7.69564 16.4745 7.19874 17.4728 6.76535 18.4974C6.32449 17.1902 5.4764 15.8416 7.13522 14.7416Z" fill="#6B9865"/>
<path d="M34.3714 28.6724C34.4499 28.8759 34.3677 29.4409 34.8048 28.9248C35.1522 28.5142 35.4175 28.0433 36.0153 27.968C36.1909 29.5879 36.4898 31.2831 34.0053 31.2379C33.882 31.0947 33.7774 30.8385 33.8894 30.7594C34.9131 30.0512 33.471 30.4807 33.6354 30.1831C33.2693 29.3731 33.4 28.8118 34.3714 28.6724Z" fill="#6A995E"/>
<path d="M27.6539 1.93337C26.9552 1.77515 26.5854 2.3892 26.0511 2.61899C25.8083 2.01625 23.6899 3.33851 24.7846 1.36454C24.5006 1.30426 24.2129 1.24399 23.929 1.18371C25.4496 0.0196727 26.4808 1.32687 27.6539 1.93337Z" fill="#7AA56D"/>
<path d="M3.0554 36.9413C3.54109 36.9488 3.07035 36.0033 3.76152 36.2142C3.84746 36.9338 4.16129 37.5817 3.8624 38.3992C3.39165 39.6913 3.03298 38.7156 2.61454 38.4557C2.92837 37.9961 3.4178 37.5968 3.0554 36.9413Z" fill="#79A46F"/>
<path d="M29.1708 1.95974C28.9279 2.54365 29.9591 2.81111 29.5332 3.44022C29.4099 3.56831 29.2604 3.63611 29.0848 3.65495C28.3189 3.67379 27.5194 3.82824 26.9478 3.09742C26.7871 2.10289 27.9789 2.9392 28.0574 2.26865C28.4273 2.16693 28.8009 2.06522 29.1708 1.95974Z" fill="#7AA56D"/>
<path d="M33.6354 30.1831C34.1697 30.2584 34.603 29.6406 35.2046 29.9495C35.212 30.767 33.9231 30.3752 34.0053 31.2341C33.8857 31.3885 33.7662 31.543 33.6466 31.6974C33.2805 31.1964 33.2954 30.6916 33.6354 30.1831Z" fill="#72A366"/>
<path d="M38.0963 21.8615C37.9356 21.5752 37.6629 21.5224 37.3715 21.5187L37.3678 21.5149C37.5508 20.6937 37.7713 19.9176 38.8921 20.3923C38.9519 21.0628 38.6119 21.5074 38.0963 21.8615Z" fill="#73A16A"/>
<path d="M35.892 25.3009C36.5197 24.9015 37.1511 24.5022 37.7787 24.1029C38.0851 24.2875 38.186 24.5625 38.1262 24.9091C37.3341 24.7546 36.7849 26.0166 35.892 25.3009Z" fill="#82AB77"/>
<path d="M36.6878 5.34262C36.4151 5.21831 36.1423 5.09023 35.8696 4.96591C35.7351 5.08269 35.5931 5.09023 35.4474 4.99228C35.354 4.83783 35.3764 4.69844 35.5034 4.5779C35.8957 4.44228 36.2918 4.30666 36.6841 4.16728C37.11 4.55906 37.2631 4.95084 36.6878 5.34262Z" fill="#5D8751"/>
<path d="M14.6037 43.7635C14.5925 43.6317 14.5813 43.4999 14.5701 43.3642C14.5551 43.1457 14.458 42.7841 14.5439 42.7314C14.925 42.4978 15.1903 42.7314 15.3733 43.0855C15.1753 43.3831 14.9922 43.692 14.6037 43.7635Z" fill="#6F9E66"/>
<path d="M4.11645 30.1868C3.67186 30.4053 3.35429 30.3902 3.3655 29.7724C3.62329 29.3656 4.05668 29.3807 4.45644 29.3053C4.34436 29.6029 4.22854 29.8968 4.11645 30.1868Z" fill="#608F56"/>
<path d="M38.8734 19.6351C38.5596 19.6313 38.2794 19.5673 38.1187 19.2546C38.3616 18.5728 38.78 18.5539 39.3068 18.9269C39.1648 19.1642 39.0191 19.4015 38.8734 19.6351Z" fill="#73A16A"/>
<path d="M12.7431 44.1855C13.2288 43.4245 13.9648 43.7975 14.6074 43.7635C14.0694 44.2834 13.3446 43.9557 12.7431 44.1855Z" fill="#6F9E66"/>
<path d="M10.0344 41.507C9.17887 41.4844 8.54373 41.33 9.31711 40.3129C9.67951 40.1735 10.2474 40.2262 10.0158 39.5444C10.3968 38.5574 10.7742 37.5704 11.1553 36.5834C11.0992 36.2707 11.2748 36.1163 11.5289 36.0108C12.0744 35.9957 12.5937 35.9581 12.2425 35.1632C12.8365 33.8711 14.1441 34.4437 15.0819 34.0481C15.5116 33.9125 15.9375 33.7505 16.397 33.7618C16.8528 33.8259 17.2899 33.9351 17.6262 34.293C17.7233 34.8844 17.2787 35.0728 16.8902 35.3064C16.6511 35.4081 16.4008 35.4646 16.143 35.4909C15.6872 35.6115 15.1043 35.2649 14.783 35.8601C15.5116 36.0522 16.2999 35.8488 16.9836 36.2745C17.4543 36.5683 17.9886 36.8433 17.9737 37.4725C17.9624 38.079 17.346 38.1279 16.9388 38.3577C16.3111 38.5235 15.6162 38.5649 15.336 39.3221C14.4804 39.8457 13.3259 38.3577 12.6123 39.7403C12.5414 40.1772 12.8141 40.3844 13.1503 40.5502C13.6286 40.78 14.4318 40.8026 14.2936 41.5296C14.1591 42.2379 13.4007 42.1211 12.9112 41.9666C11.966 41.654 10.905 42.1927 10.0344 41.507Z" fill="#64955A"/>
<path d="M15.4107 34.3156C14.5028 35.0728 12.9897 34.1197 12.2836 35.4457C12.2313 35.8677 11.9249 36.0485 11.5849 36.1954C11.4429 36.3235 11.301 36.4516 11.1553 36.5796C10.1278 36.9074 10.4193 35.4985 9.68324 35.442C9.2237 34.6584 9.80654 34.1159 10.1241 33.5132C10.5052 32.9594 10.8825 32.4057 11.3084 31.8896C11.7082 31.3659 12.0594 30.8084 12.4069 30.2471C12.9224 29.5992 13.169 28.68 14.1329 28.4728C15.9748 28.6611 15.9337 29.7235 15.3098 31.057C15.052 31.5807 14.7046 32.0478 14.4094 32.5488C13.651 33.4906 14.5439 33.4868 15.0595 33.6978C15.2986 33.8372 15.4593 34.018 15.4107 34.3156Z" fill="#BED477"/>
<path d="M10.0344 41.507C11.3682 41.1228 12.7132 41.5146 14.1554 41.6389C13.7892 40.8591 12.9486 41.3225 12.6983 40.7046C13.1391 39.6046 13.9162 40.2714 14.5775 40.343C15.1342 40.7687 15.1791 41.4505 15.4518 42.0721C14.8017 42.4225 13.7967 41.993 13.4642 42.9762C11.357 42.3584 9.4927 43.6807 7.46774 43.7296C7.48268 42.0005 9.48897 42.607 10.0344 41.507Z" fill="#6F9E66"/>
<path d="M10.4902 33.5735C10.2212 34.195 9.95598 34.8204 9.68698 35.442C9.32832 35.8224 8.96965 36.2067 8.61472 36.5872C8.37935 35.7283 7.93475 34.8995 8.22243 33.9615C8.1776 33.4379 8.41297 32.854 7.87871 32.4433C7.87497 32.319 7.87497 32.1947 7.87871 32.0742C9.8028 31.4639 9.80654 31.4639 10.4902 33.5735Z" fill="#679A57"/>
<path d="M8.22243 33.9615C8.39055 34.8317 9.04811 35.6266 8.61472 36.5872C8.3644 36.9639 8.11035 37.3368 7.86003 37.7135C7.47147 36.7228 7.65081 35.732 7.84135 34.7375C7.8675 34.4324 7.90486 34.1272 8.22243 33.9615Z" fill="#538045"/>
<path d="M7.83761 34.7413C7.84508 35.732 7.84882 36.7228 7.85629 37.7173C7.62839 38.1016 7.40049 38.4858 7.17259 38.8701C6.97457 37.4235 7.43411 36.0861 7.83761 34.7413Z" fill="#82AC70"/>
<path d="M10.0158 39.5406C10.3632 39.68 11.1553 39.5105 10.9647 39.9776C10.7406 40.5276 9.95598 40.5916 9.31711 40.3091C9.55248 40.0567 9.78412 39.8005 10.0158 39.5406Z" fill="#56844D"/>
<path d="M3.97075 42.7502C5.15135 41.5711 1.68799 42.3509 3.31319 41.0173C3.58593 40.7913 3.9035 40.7423 4.14634 41.0022C4.65072 41.5372 4.61709 42.1136 3.97075 42.7502Z" fill="#729F66"/>
<path d="M5.99571 32.805C6.81766 33.1365 6.42536 33.7731 6.36559 34.3231C5.79023 34.131 5.56606 33.6074 5.42035 33.1177C5.19992 32.3831 5.73792 32.8012 5.99571 32.805Z" fill="#8BAF79"/>
<path d="M5.34937 38.0639C5.18871 38.143 5.04301 38.2711 4.88983 38.2786C4.55731 38.2937 4.51995 38.0224 4.59094 37.7927C4.6283 37.6721 4.81884 37.5968 4.94213 37.5026C5.0318 37.6307 5.12894 37.7625 5.34937 38.0639Z" fill="#77A66A"/>
<path d="M30.6502 16.6139C30.7735 16.8587 30.8931 17.1036 31.0164 17.3522C30.7399 18.1546 30.0338 18.1433 29.3837 18.2488C28.2031 18.456 26.9739 18.4033 25.8456 18.9043C25.5916 18.9533 25.3338 18.9759 25.076 18.9947C24.4072 19.0173 23.9178 19.33 23.5292 20.0344C24.3138 20.0194 24.9938 19.7481 25.6924 19.7104C26.2529 19.6803 27.015 19.492 26.9029 20.5317C26.1893 21.2964 25.1582 21.157 24.2877 21.4735C23.3611 21.4772 22.2029 22.3399 21.5715 21.3077C20.9214 20.2491 21.9825 19.3827 22.5466 18.5351C22.9912 17.8721 23.4321 17.2015 23.8954 16.5498C24.411 15.8943 24.7771 15.0618 25.7335 14.9074C27.0075 15.2389 27.9677 14.4026 29.04 13.9957C29.8956 13.6717 30.7661 13.1481 31.4983 14.218C31.2966 15.1598 30.5755 15.4536 29.7909 15.6193C30.3065 15.7248 30.8221 15.8567 30.6502 16.6139Z" fill="#5C894C"/>
<path d="M30.2804 25.2745C29.7685 26.2125 28.7971 26.3255 27.9378 26.3632C27.0897 26.4009 26.4322 26.7022 25.7896 27.1656C24.4745 26.9961 24.5716 25.7755 24.1494 24.9392C24.0971 24.0991 24.2204 23.1461 24.9153 22.7694C25.6588 22.3663 25.2105 21.7334 25.5318 21.3152C26.8469 20.8745 28.1396 19.8046 29.5294 21.1457C29.6452 21.5187 29.7648 21.8916 29.8806 22.2608C29.974 22.355 30.0002 22.4454 29.9628 22.5283C29.9254 22.6111 29.8881 22.6526 29.8545 22.6526C29.9703 23.7488 28.1994 23.357 28.4048 24.5211C27.8967 25.1163 27.2392 25.1502 26.5443 25.0447C27.3699 25.1878 28.162 24.8375 28.9727 24.83C29.4323 24.83 30.0973 24.3892 30.2804 25.2745Z" fill="#63965B"/>
<path d="M25.8008 18.4937C26.7946 17.6574 28.0835 18.2187 29.1558 17.7666C29.4659 18.1998 30.7324 17.6611 30.2729 18.8817C29.4323 19.0625 28.5618 19.1755 28.035 19.9967C27.7809 20.5204 27.4447 20.7765 26.8955 20.3584C25.4533 19.5108 24.1457 20.9122 22.6176 20.592C23.2453 19.62 23.5218 18.358 25.0722 18.5539C25.3412 18.8591 25.5766 18.7423 25.8008 18.4937Z" fill="#69985C"/>
<path d="M30.2804 25.2745C28.9167 25.2745 27.5568 25.2745 26.1931 25.2745C26.1856 25.2067 26.1781 25.1389 26.1707 25.0711C26.9141 24.8902 27.6614 24.7057 28.4048 24.5248C29.3015 23.8694 30.6988 24.5625 31.4012 23.3872C31.913 22.7279 32.5071 22.4755 33.2618 23.0029C33.3813 23.0293 33.5009 23.0519 33.6167 23.0783C32.8994 23.4889 33.3216 24.3817 32.8545 24.8978C32.0588 25.4553 31.1546 25.2519 30.2804 25.2745Z" fill="#4F7D4A"/>
<path d="M26.8955 20.3584C27.2765 20.2378 27.6539 20.1173 28.035 19.9967C29.2193 20.1098 30.4522 19.7896 31.9915 20.3283C30.9678 20.8067 30.0562 20.4639 29.5257 21.1495C28.0798 20.5091 26.7871 21.3981 25.4197 21.5563C25.2927 21.6618 25.147 21.6995 24.9826 21.6694C24.6762 21.5639 24.396 21.4207 24.2615 21.093C25.1432 20.8444 26.0212 20.5995 26.8955 20.3584Z" fill="#95B679"/>
<path d="M36.6093 15.8416C37.0278 16.256 37.3902 16.7947 38.1112 16.5988C38.4998 17.0094 38.3989 17.8457 38.0403 17.5368C37.3827 16.968 36.912 19.1265 36.4487 17.4502C36.1946 16.5385 34.9767 17.9625 34.4088 17.0735C34.4573 16.9115 34.547 16.7759 34.674 16.6666C35.3092 16.369 35.7276 15.5515 36.6093 15.8416Z" fill="#507C48"/>
<path d="M30.6502 16.6139C29.0848 15.2577 30.6054 14.93 31.39 14.3611C32.0774 13.4758 32.3763 14.1313 32.7014 14.6926C32.7724 14.9714 32.7014 15.22 32.5444 15.4498C31.8944 15.8077 31.1173 15.9546 30.6502 16.6139Z" fill="#6E9D62"/>
<path d="M33.2618 23.0029C32.6117 22.9878 31.9766 23.0444 31.4012 23.3872C31.5917 22.1026 33.4785 22.4831 33.5906 21.1194C33.8521 21.1495 34.1173 20.8896 34.3789 21.1307C34.5433 21.432 34.8235 21.4961 35.1336 21.5036C35.0476 22.694 33.7736 22.3625 33.2618 23.0029Z" fill="#6A9A61"/>
<path d="M30.2766 18.8817C30.0375 18.5502 30.0487 18.019 29.2866 18.3543C28.771 18.5803 29.1595 17.9926 29.1595 17.7666C29.8096 17.7628 30.4522 17.7327 31.0164 17.3522C31.5805 17.2204 32.0065 16.5875 32.9405 16.9341C31.9616 17.6461 31.1173 18.2639 30.2766 18.8817Z" fill="#81A75C"/>
<path d="M36.6093 15.8416C35.9854 16.1957 35.3577 16.5498 34.7338 16.9039C34.5283 16.6704 34.5358 16.4368 34.7487 16.2108C35.4997 15.6646 34.9767 14.4591 35.8808 13.9882C37.0726 14.2255 36.4711 15.1824 36.6093 15.8416Z" fill="#80AA79"/>
<path d="M34.3826 12.8543C34.5059 13.1067 34.6292 13.3591 34.7562 13.6115C34.2033 14.056 34.5694 15.4461 33.2468 15.107C33.2244 15.0241 33.202 14.9413 33.1758 14.8622C32.3128 13.8789 32.1297 13.0389 33.6615 12.5755C33.9455 12.5567 34.1883 12.6358 34.3826 12.8543Z" fill="#4D7E43"/>
<path d="M36.6392 20.381C35.4848 21.4697 35.6604 19.8423 35.1373 19.6351C36.4972 18.1283 36.3067 19.7933 36.6392 20.381Z" fill="#6A9A61"/>
<path d="M34.3976 18.1358C34.7151 18.0567 35.1522 17.5632 35.3204 18.0454C35.5445 18.6858 34.8422 18.9156 34.4237 19.232C34.0875 18.8741 34.0688 18.5087 34.3976 18.1358Z" fill="#89B780"/>
<path d="M34.3976 18.1358C34.405 18.5012 34.4162 18.8666 34.4237 19.232C34.0501 19.0135 33.3851 19.0211 33.4859 18.407C33.5495 18.0115 34.0613 18.1584 34.3976 18.1358Z" fill="#6A9A61"/>
<path d="M34.3751 21.1344C34.1136 21.1985 33.8446 21.5639 33.5906 21.1231C33.7176 20.7878 33.4934 20.1512 34.1024 20.2303C34.4723 20.2793 34.349 20.8029 34.3751 21.1344Z" fill="#82AE7B"/>
<path d="M29.8545 22.6563C29.8619 22.5245 29.8731 22.3926 29.8806 22.2646C30.1533 22.193 30.441 21.9481 30.7026 22.2194C30.7885 22.306 30.8109 22.5885 30.7399 22.6789C30.4597 23.0293 30.1421 23.018 29.8545 22.6563Z" fill="#87AD7F"/>
<path d="M34.7487 16.2108C34.745 16.4406 34.7375 16.6741 34.7338 16.9039C34.6292 16.968 34.5171 17.0245 34.405 17.0735C34.1883 17.0132 33.8409 17.0019 33.8932 16.7231C33.9716 16.305 34.3826 16.2485 34.7487 16.2108Z" fill="#92B886"/>
<path d="M32.5444 15.4498C32.5258 15.2087 32.5108 14.9639 32.4921 14.7228C32.4809 14.3385 32.6864 14.1389 33.0339 14.2594C33.4598 14.4101 33.5084 14.7341 33.2394 15.0957L33.2468 15.0995C33.0115 15.2163 32.7798 15.333 32.5444 15.4498Z" fill="#82AE78"/>
<path d="M8.61098 26.0392C7.52751 26.0392 6.44405 26.0392 5.18498 26.0392C6.2012 24.8149 6.94468 23.6207 5.61089 22.1817C7.22489 22.2005 6.22362 24.1067 7.3706 24.3289C8.00947 23.6396 6.23482 22.1628 7.99826 22.1327C9.14151 22.1139 10.4491 22.6865 10.1316 24.4457C10.0867 24.7019 10.3072 25.007 10.4006 25.2896C10.7966 25.5796 10.7891 25.9526 10.6247 26.3594C10.3371 26.7098 9.95598 26.7512 9.54501 26.6947C9.14151 26.6118 8.84636 26.367 8.61098 26.0392Z" fill="#59874E"/>
<path d="M14.1591 28.6385C13.6809 29.2827 13.2027 29.9269 12.7207 30.5711C11.3757 30.5033 11.5961 29.4522 11.499 28.6009C11.5625 27.5348 11.7755 26.6985 13.2213 27.7796C11.9398 26.3142 11.7792 24.5926 11.2263 23.0293C11.23 22.2759 11.23 21.5187 11.2337 20.7652C11.3869 20.6748 11.5401 20.6673 11.697 20.7615C11.9772 21.1005 12.0744 21.5111 12.1715 21.9255C12.1603 22.9652 13.0196 23.4813 13.5314 24.2009C13.1989 25.8961 15.0969 25.5118 15.5863 26.4385C15.6349 27.5197 14.9437 28.1074 14.1591 28.6385Z" fill="#56844A"/>
<path d="M11.2225 23.0293C12.0706 23.8241 12.2238 24.9618 12.6609 25.9639C12.8029 26.2916 12.4442 26.9509 13.2101 26.8944C13.6248 26.8642 14.0395 26.9697 13.9387 27.4255C13.8565 27.8098 13.5538 28.2618 13.2213 28.4426C12.6945 28.7289 12.5077 28.2129 12.3546 27.8022C12.2537 27.531 12.1491 27.3012 11.9922 27.7608C11.9361 27.9303 11.9585 28.1262 11.9436 28.3108C10.748 28.0283 11.3346 26.8567 10.905 26.1899C10.7331 25.5457 10.4828 24.9091 10.8153 24.2423C10.9535 23.8392 11.088 23.4324 11.2225 23.0293Z" fill="#6A9758"/>
<path d="M11.5588 20.769C11.4504 20.769 11.3421 20.7652 11.23 20.7652C10.7854 20.4375 10.8639 19.1152 9.78786 19.9967C9.04811 18.893 10.3968 18.1584 10.281 17.1601C11.7157 15.5591 11.4392 17.5556 11.9324 17.955C12.3359 18.6556 12.235 19.3752 12.022 20.1022C11.9324 20.3697 11.8091 20.6146 11.5588 20.769Z" fill="#57864E"/>
<path d="M10.4753 17.3711C11.0395 18.456 9.51512 18.9872 9.78786 19.993C9.48897 20.4601 9.02943 20.4036 8.57736 20.3584C7.65454 19.8913 8.36067 19.1567 8.28594 18.5502L8.21869 18.4861C8.21122 18.4221 8.1776 18.3392 8.20375 18.3015C8.7679 17.582 9.10789 18.0793 9.45534 18.5389C9.45908 17.857 9.57116 17.2618 10.4753 17.3711Z" fill="#81AB77"/>
<path d="M8.61098 26.0392C8.92108 26.043 9.19382 26.1146 9.36568 26.4046C9.72808 27.418 9.87752 28.4276 9.35073 29.4334C8.74175 28.42 7.83761 27.595 7.5051 26.4122C7.9086 26.4009 8.34198 26.4724 8.61098 26.0392Z" fill="#70A061"/>
<path d="M10.819 24.2461C10.8003 24.8789 10.9311 25.4817 11.2076 26.0505C11.3122 26.1372 11.357 26.2313 11.3383 26.3368C11.3197 26.4423 11.2935 26.4988 11.2636 26.4988C11.0021 26.6269 10.763 26.6156 10.5575 26.3896C10.5052 26.0242 10.4529 25.6587 10.4006 25.2933C10.4902 24.9241 10.2922 24.4382 10.819 24.2461Z" fill="#C6D988"/>
<path d="M8.28221 18.5539C8.84636 19.0813 7.98332 19.8423 8.57736 20.3622C7.38554 20.3396 8.03936 19.4015 7.86003 18.8817C7.99826 18.7724 8.14023 18.6632 8.28221 18.5539Z" fill="#A4C89B"/>
<path d="M24.2951 24.9053C24.792 25.6587 25.2927 26.4122 25.7896 27.1656C25.2665 27.5461 25.2665 27.919 25.8045 28.2882C25.7335 28.3598 25.6625 28.4313 25.5916 28.5067C24.3437 28.8909 23.066 29.132 21.7621 29.2074C19.9202 29.4748 18.1306 30.1379 16.2289 29.9872C15.5153 28.0622 16.8939 27.0639 17.9923 25.9413C18.1717 25.9074 18.3435 25.945 18.5004 26.0392C19.1281 26.3142 19.5279 27.3879 20.4656 26.6156C21.0784 26.1522 21.7845 26.1447 22.5018 26.1824C22.8082 26.1711 23.0734 26.0618 23.2714 25.8132C23.5143 25.5081 23.7609 25.2105 24.0784 24.9882C24.1494 24.9618 24.2242 24.9355 24.2951 24.9053Z" fill="#5E9152"/>
<path d="M28.7822 33.2156C28.7785 33.3324 28.7785 33.4529 28.7747 33.5697C28.3152 34.1348 27.6726 34.4022 27.0262 34.6659C26.6937 34.7074 26.3575 34.9673 26.025 34.6546C25.7634 34.2516 25.7597 33.8221 25.9017 33.3776C26.025 33.0611 26.2753 32.8238 26.4397 32.5337C26.5555 32.3153 26.6862 32.1081 26.8656 31.9385C27.0711 31.6937 27.9789 32.0139 27.4484 31.1851C27.6352 30.4543 28.0948 29.9759 28.7673 29.6858C29.0176 29.667 29.2417 29.7762 29.4771 29.8289C29.8358 29.9118 30.3103 30.006 30.3925 29.5389C30.4709 29.1019 29.8918 29.0868 29.6378 28.8457C29.5855 28.7817 29.5369 28.7139 29.4883 28.6461C30.3028 28.0848 31.3713 28.2618 32.1933 27.6139C32.9143 27.045 32.989 28.3711 33.6204 28.2844C33.8521 29.8139 32.4996 30.0587 31.6702 30.7293C31.3713 30.8875 31.0724 31.042 30.781 31.2115C29.8619 31.6221 29.2903 32.3868 28.7822 33.2156Z" fill="#68965E"/>
<path d="M27.639 31.3283C28.1097 32.2813 27.355 32.0214 26.9141 32.0704C26.5443 32.3115 26.1071 32.2399 25.7036 32.3228C25.0274 32.3605 24.3923 32.1457 23.7497 31.9875C23.5965 31.9272 23.4545 31.8406 23.3275 31.7351C22.9352 31.155 22.6475 30.6012 23.7011 30.4694C23.6862 30.4656 23.8244 30.4618 23.8244 30.4618C23.8244 30.4618 23.7571 30.3413 23.7422 30.3375C23.533 30.2433 23.3312 30.2132 23.1183 30.2283C22.3337 30.2622 21.5753 30.4317 20.8094 30.5447C20.3162 30.5108 19.823 30.4807 19.7259 29.8365C20.2863 28.9361 21.3212 29.2601 22.0946 28.906C23.3275 28.8043 24.5753 28.793 25.7522 28.3221L25.8045 28.292C26.0474 28.292 26.2902 28.2957 26.5331 28.2957C26.7498 28.4313 27.0001 28.5293 27.1084 28.7892C27.4932 29.5916 27.4036 30.492 27.639 31.3283Z" fill="#5B8B4F"/>
<path d="M31.3863 30.5183C32.1596 29.8026 33.3739 29.5351 33.6279 28.2882C33.7662 28.032 33.9305 27.6704 34.2369 27.8474C34.3901 27.9341 34.334 28.3861 34.3751 28.6687C33.9044 29.0605 33.7026 29.5841 33.6354 30.1793C33.1161 30.2358 32.7611 30.3375 32.72 31.0457C32.6752 31.8293 32.1933 32.2173 31.3937 31.6824C31.2742 31.592 31.2219 31.4714 31.2331 31.3207C31.2816 31.0533 31.4161 30.8009 31.3863 30.5183Z" fill="#72A366"/>
<path d="M27.639 31.3283C26.6339 30.6653 26.9216 29.6444 26.9254 28.7026C27.3924 28.2505 27.8781 28.2618 28.375 28.6461C28.7486 28.6461 29.1222 28.6498 29.4921 28.6498L29.5332 28.6913C29.705 29.3581 28.7859 29.3053 28.7785 29.8516C28.4011 30.3413 28.02 30.8348 27.639 31.3283Z" fill="#659060"/>
<path d="M32.9255 24.9317C33.1646 24.9241 33.4 24.9166 33.6391 24.9053C33.6877 25.7567 33.6728 26.5666 32.4809 26.6457C32.6341 26.0581 32.7798 25.493 32.9255 24.9317Z" fill="#94B78B"/>
<path d="M28.375 28.6461C27.893 28.6649 27.4073 28.6837 26.9254 28.7026C26.7946 28.567 26.6638 28.4313 26.5331 28.2957C27.1159 27.9379 27.766 27.8889 28.4235 27.8926C28.558 27.806 28.6701 27.8248 28.7486 27.9718C28.6253 28.194 28.502 28.42 28.375 28.6461Z" fill="#4F7739"/>
<path d="M28.7486 27.9718C28.6402 27.9416 28.5319 27.9152 28.4235 27.8926C28.36 27.644 28.02 27.32 28.5431 27.2183C28.8494 27.1581 29.1969 27.2786 29.2529 27.6252C29.3053 27.9303 28.9615 27.9115 28.7486 27.9718Z" fill="#7FA572"/>
<path d="M20.1892 38.079C22.2253 38.0903 20.3125 39.1225 20.5702 39.5896C20.503 40.5351 19.9276 40.7762 18.9675 40.6896C19.285 40.279 19.5428 39.9437 19.8006 39.6122C19.767 39.307 19.3112 39.3146 19.3299 38.9718C19.3971 38.6704 19.6362 38.5046 19.8342 38.3012C19.9388 38.2033 20.0584 38.1317 20.1892 38.079Z" fill="#77A66E"/>
<path d="M19.5802 42.5656C18.4183 43.3492 17.488 42.5016 16.1205 42.2228C17.5926 41.4995 18.5602 42.2492 19.5802 42.5656Z" fill="#76A56E"/>
<path d="M12.3658 39.6272C12.8552 38.8814 13.3708 38.1882 14.4318 38.5574C13.8191 40.0341 15.1828 38.7909 15.3322 39.2204C15.4294 39.292 15.4667 39.3635 15.4368 39.4389C15.407 39.518 15.3808 39.5557 15.3472 39.5557C14.7158 39.5745 14.0844 39.5896 13.4492 39.6084C13.0943 39.9098 12.7319 39.9362 12.3658 39.6272Z" fill="#72A465"/>
<path d="M15.3472 39.5594C15.3397 39.4464 15.3322 39.3334 15.3285 39.2204C15.4182 38.2861 16.1691 38.2372 16.8379 38.0752C17.2563 37.7889 17.7271 37.917 18.1791 37.9019C18.4706 38.0526 18.5341 38.305 18.4855 38.6101C18.4369 38.6892 18.3846 38.7683 18.3361 38.8475C17.2974 38.904 16.1504 38.5009 15.3472 39.5594Z" fill="#7EAC74"/>
<path d="M12.3658 39.6272C12.7282 39.6235 13.0906 39.6159 13.4492 39.6122C13.8266 39.8533 14.2002 40.0944 14.5775 40.3392C13.9461 40.4334 13.2363 40.117 12.6983 40.7046C11.7045 40.6218 12.1416 40.0944 12.3658 39.6272Z" fill="#4F8146"/>
<path d="M18.3211 39.5707C17.7233 40.1998 17.0508 39.9738 16.2887 39.8156C16.8454 38.8964 17.6598 39.356 18.3099 39.2129C18.4033 39.2882 18.4369 39.3673 18.407 39.4502C18.3809 39.5293 18.351 39.5707 18.3211 39.5707Z" fill="#7BA971"/>
<path d="M18.3211 39.5707C18.3248 39.4502 18.3211 39.3334 18.3099 39.2129C18.3248 39.0923 18.3323 38.9718 18.3361 38.8475L18.3211 38.8588C18.691 38.5461 19.0534 38.5235 19.4083 38.8814C19.3971 39.2053 20.2116 39.0735 19.8043 39.6159C19.3112 39.6009 18.8143 39.5858 18.3211 39.5707Z" fill="#92BC8B"/>
<path d="M34.3826 12.8543C34.1286 12.8505 33.8745 12.8467 33.6204 12.843C32.6902 12.7978 31.6403 13.9618 30.8483 12.5604C30.8258 12.3608 30.8669 12.1762 30.9716 12.0029C32.3427 11.08 33.7886 10.4094 35.4997 10.5865C35.8285 11.694 34.3863 11.9125 34.3826 12.8543Z" fill="#5B8951"/>
<path d="M34.0202 9.47893C35.0215 9.42619 35.8957 8.4053 36.9979 9.07961C37.3864 9.65598 36.9381 9.69742 36.5981 9.60701C36.1685 9.494 35.7986 9.39982 35.4773 9.79537C34.9729 10.8502 33.8932 10.7937 33.0003 11.0988C32.6565 11.0197 32.3091 10.9556 32.0812 10.6392C32.0065 9.91215 32.6341 9.87824 33.0526 9.63715C33.3627 9.50907 33.6802 9.43372 34.0202 9.47893Z" fill="#56884E"/>
<path d="M32.8732 10.9443C33.74 10.5601 34.6105 10.1796 35.4773 9.79537C35.9294 10.044 35.5632 10.319 35.496 10.5827C34.0053 11.0875 32.5108 11.5961 31.0201 12.1009C30.9192 11.9351 30.9043 11.7618 30.9716 11.581C31.4685 10.9519 32.0625 10.6279 32.8732 10.9443Z" fill="#7BA46F"/>
<path d="M36.1012 12.9522C36.2021 12.0745 36.3889 11.6036 37.2034 11.4152C37.2818 12.2817 36.7476 12.4889 36.1012 12.9522Z" fill="#76A56C"/>
<path d="M37.2258 14.3272C36.8933 13.5512 37.1772 13.1858 37.6106 12.7187C37.7451 13.3553 37.9282 13.8601 37.2258 14.3272Z" fill="#88B47E"/>
<path d="M20.1892 38.079C20.1892 38.207 20.1854 38.3389 20.1854 38.467C19.5167 38.6214 18.9973 38.3502 18.5415 37.8906C17.9176 36.8998 17.0135 36.2745 15.9524 35.8451C15.8441 35.5776 15.8665 35.3252 16.0608 35.1029C16.3186 35.0954 16.5764 35.0841 16.8341 35.0766C17.6561 34.6622 18.6349 34.6697 19.4046 34.1084C19.767 33.954 20.1443 33.9125 20.5329 33.969C21.0821 34.1122 21.6014 34.3005 21.777 34.9259C21.65 35.1933 21.4819 35.4608 22.0311 35.4156C22.5765 35.3704 23.1369 35.3591 23.5367 35.8526C23.5404 36.0974 23.5442 36.3385 23.5479 36.5834C22.8044 36.9564 22.0609 36.9187 21.3175 36.5947C20.4208 36.6889 21.0148 37.9283 20.1892 38.079Z" fill="#6A9863"/>
<path d="M25.416 35.0766C25.2889 35.0803 25.1582 35.0841 25.0311 35.0879C24.68 35.3779 24.3997 35.28 24.1681 34.9372C24.2354 33.7844 23.2229 34.1913 22.6849 33.9125C22.173 33.7618 21.65 33.6337 21.1904 33.3437C20.7608 32.6882 19.9239 31.9423 21.5192 31.705C22.0348 32.1495 22.4607 31.9197 22.8717 31.5242C23.1257 31.4639 23.3536 31.5091 23.5479 31.6937L23.5517 31.6974C24.0187 32.1307 24.4745 32.5752 24.9079 33.0423C25.4533 33.6187 25.741 34.2704 25.416 35.0766Z" fill="#5D8F4A"/>
<path d="M23.5367 35.8488C22.5317 35.7396 21.4819 36.0221 20.3237 35.4985C20.7683 34.9296 21.2689 35.118 21.6799 35.0502C22.5392 34.5454 23.3798 34.1649 23.9402 35.4382C23.802 35.5776 23.6712 35.7132 23.5367 35.8488Z" fill="#51804B"/>
<path d="M23.9365 35.442C23.2752 34.779 22.4234 35.2235 21.6761 35.054C21.295 34.8016 20.914 34.5492 20.5329 34.3005C20.5254 33.7279 20.9364 33.7279 21.3324 33.7016C22.3299 33.9954 23.447 33.9427 24.2765 34.73C24.4446 35.0201 24.7248 35.0803 25.0274 35.0916C24.9564 36.1087 24.4072 35.6529 23.9365 35.442Z" fill="#71A060"/>
<path d="M21.3137 36.5909C22.0572 36.5872 22.8007 36.5834 23.5442 36.5796C23.9439 36.6889 24.6725 36.0409 24.7098 36.8961C24.7435 37.6608 23.8431 37.4272 23.6189 37.2879C22.8941 36.8358 21.777 37.7776 21.3137 36.5909Z" fill="#527F4B"/>
<path d="M26.1632 34.6998C26.406 34.5718 26.6489 34.4399 26.8917 34.3118C27.142 34.5529 27.1308 34.8053 26.9179 35.0653C26.7311 35.555 27.2579 36.2293 26.5368 36.5796C25.3226 36.5683 25.7036 35.7471 25.7858 35.0766C25.6812 34.7187 25.8269 34.6132 26.1632 34.6998Z" fill="#74A16A"/>
<path d="M26.9104 37.3293C27.4185 37.5742 27.7884 37.9622 28.035 38.467C27.2018 39.2581 26.5293 38.5875 26.1258 38.0413C25.8531 37.6721 26.6302 37.5779 26.9104 37.3293Z" fill="#82AA7A"/>
<path d="M26.1632 34.6998C26.0362 34.8279 25.9129 34.9522 25.7858 35.0803C25.6625 35.0803 25.5393 35.0766 25.416 35.0766C25.1656 34.4512 25.2105 33.7053 24.6725 33.193C25.1694 32.7598 25.6663 32.756 26.1632 33.1968C26.1632 33.6978 26.1632 34.1988 26.1632 34.6998Z" fill="#5C9050"/>
<path d="M27.7174 40.0303C27.086 39.9814 26.4509 39.9324 25.8195 39.8834C26.4583 39.8495 27.2056 38.9153 27.7174 40.0303Z" fill="#538143"/>
<path d="M10.5425 43.9255C10.6845 44.6187 10.4529 45.0444 9.69819 45.3231C9.62347 44.5132 10.1615 44.2533 10.5425 43.9255Z" fill="#709D62"/>
<path d="M8.57362 44.5622C8.30462 45.3947 7.85629 45.4324 7.32203 45.5906C7.50136 44.7957 8.01321 44.8749 8.57362 44.5622Z" fill="#72A668"/>
<path d="M18.7358 4.65324C19.7969 3.62481 21.1979 4.10324 22.4271 3.8094C22.6811 3.93372 22.9352 4.05803 23.193 4.17858C23.2528 4.23509 23.3125 4.28783 23.3723 4.34433C23.5853 4.69844 23.716 5.08646 23.787 5.49331C23.8244 6.02447 23.4246 6.59331 23.9365 7.08304C24.4072 8.4392 22.6102 8.51831 22.5616 9.58441C22.4869 9.81797 22.4084 10.0478 22.3299 10.2776C22.1618 10.7409 22.1282 11.2306 22.0946 11.7166C22.0722 11.9728 22.0086 12.2139 21.9003 12.4474C21.7172 12.8241 21.0522 13.0012 21.4295 13.6115C21.4557 13.7697 21.4333 13.9204 21.3623 14.0635C21.026 14.38 20.6001 14.5796 20.2714 14.9074C20.1182 15.0731 19.9799 15.2426 20.0584 15.4913C20.361 16.1241 21.3249 16.806 19.9463 17.3259C19.285 17.2317 18.7396 17.4539 18.2838 17.9361C18.0446 18.0416 17.7981 18.0567 17.5477 17.9926C17.4319 17.9474 17.2451 17.8419 17.2675 17.793C17.7943 16.5046 16.6922 15.7851 16.255 14.8396C15.9823 14.5118 16.199 13.8111 15.4817 13.8375C14.5178 15.0091 14.1965 13.9015 13.722 13.3553C13.2587 13.1669 13.4604 13.6341 13.3297 13.7735C12.9822 14.3988 12.5713 14.7303 11.9324 14.1087C11.8539 13.9354 11.8726 13.7735 11.9959 13.6265C12.6983 13.0577 12.0557 12.6885 11.8166 12.2289C11.3122 11.2532 11.3645 10.5526 12.717 10.6015C12.9673 10.6317 13.2176 11.0235 13.4642 10.6015C13.5912 10.4734 13.7407 10.4358 13.9162 10.4772C14.1554 10.5714 14.3646 10.7108 14.5663 10.8652C16.1579 12.1988 16.9275 12.3043 18.0222 11.3324C18.1941 11.1289 18.3884 10.9556 18.6237 10.8313C18.8815 10.7296 19.1393 10.7296 19.3934 10.8426C19.5316 10.9556 19.6101 11.1063 19.6287 11.2834C19.569 11.7919 19.8529 12.406 19.1954 12.7488C19.7707 12.4474 19.5578 11.8711 19.6661 11.4115C20.2975 9.59571 21.6799 8.09263 21.8218 6.08098C21.8667 5.76831 21.8106 5.53851 21.4146 5.57995C20.9065 5.82858 20.6151 6.38235 20.0509 6.54057C19.9687 6.51797 19.8903 6.49536 19.8081 6.47276C20.1107 5.4594 17.869 5.99434 18.7358 4.65324Z" fill="#5C8D54"/>
<path d="M26.1557 5.69673C26.4583 5.89639 26.8282 6.33338 27.0524 6.26557C28.6626 5.77208 28.9989 7.04536 29.578 8.00222C29.7573 8.81215 29.2642 9.31318 28.7598 9.81044C28.6888 9.85564 28.6141 9.89708 28.5393 9.94229C28.3787 9.99502 28.2143 9.99502 28.0499 9.94605C27.9304 9.82927 27.8482 9.68989 27.8183 9.52413C27.7959 9.19639 27.9266 8.90256 28.0387 8.61249C28.0948 8.40907 28.1209 8.20564 27.9939 8.01352C26.3575 7.8779 26.817 9.29434 26.4658 10.1005C26.3612 10.4659 26.2454 10.8313 26.279 11.2193C26.2977 11.6224 26.6302 11.9125 26.6713 12.308C26.406 13.1707 26.0698 13.9656 25.0573 14.1652C24.1083 13.7245 24.6538 12.7375 24.2951 12.0782C23.8804 10.0402 24.7397 8.23954 25.3525 6.38988C25.5355 6.05461 25.8195 5.84365 26.1557 5.69673Z" fill="#58864E"/>
<path d="M30.3289 7.96831C30.8856 7.49742 31.0575 8.15667 31.3937 8.33372C31.4161 8.4166 31.4386 8.49948 31.4647 8.58235C30.9641 9.37722 31.2816 10.4395 30.6278 11.1817C30.5307 11.3286 30.441 11.4981 30.2916 11.5772C29.8956 11.7806 29.7237 12.0519 29.9217 12.4926C29.1707 13.1669 28.3376 13.4457 27.3625 13.0351C26.6414 11.6526 27.8407 11.0197 28.4609 10.157C29.2118 9.5392 29.3987 8.43167 30.3289 7.96831Z" fill="#649150"/>
<path d="M32.1447 4.20118C32.5146 4.06557 32.8807 3.92618 33.2506 3.79057C33.7138 3.63988 33.7811 3.97139 33.8521 4.29536C33.8446 4.45358 33.8035 4.60427 33.7363 4.74742C33.5457 5.07516 33.3253 5.38783 33.1161 5.70803C32.8695 5.94536 33.0376 6.27687 32.9255 6.54434C32.6042 6.88338 32.2418 7.14708 31.7636 7.20358C29.8918 6.44262 32.1783 5.7118 31.7785 4.95838C31.7785 4.64194 31.8869 4.38201 32.1447 4.20118Z" fill="#588753"/>
<path d="M31.7673 7.19982C31.9691 6.71009 32.339 6.46523 32.8583 6.43132C33.3066 6.47653 33.3664 6.92858 33.6204 7.17345C33.3776 7.56146 33.1348 7.94571 32.8956 8.33372C33.3514 9.16626 32.8508 9.73886 32.1858 9.80667C31.0874 9.91968 31.8607 8.73304 31.3975 8.33372C31.517 7.95701 31.644 7.57653 31.7673 7.19982Z" fill="#6C9963"/>
<path d="M26.1557 5.69673C26.025 5.93406 25.8979 6.17139 25.7672 6.41249C24.949 6.44639 24.1905 6.65358 23.5591 7.21489C22.1842 6.58954 23.8543 5.9529 23.5517 5.32002C23.6002 4.29536 24.2615 4.62687 24.8219 4.73612C24.8967 4.80392 24.9714 4.86797 25.0424 4.93577C25.416 5.18817 25.7858 5.44434 26.1557 5.69673Z" fill="#7BA674"/>
<path d="M26.9478 3.10118C27.6539 3.44776 28.4833 2.98817 29.1745 3.44399C29.3501 3.87721 29.0437 4.01283 28.7448 4.15598C28.2517 4.37824 27.7622 4.60427 27.2392 4.8416C26.6601 4.33303 27.0262 3.67379 26.9478 3.10118Z" fill="#95BA8D"/>
<path d="M28.7411 4.15598C28.8831 3.91865 29.0288 3.68132 29.1708 3.44399C29.2903 3.44022 29.4099 3.44022 29.5332 3.44399C29.9591 3.89981 30.4485 4.31043 30.6465 4.93954C30.3626 5.48201 30.1758 6.12242 29.4211 6.19399C29.4958 5.93783 29.2866 4.99228 29.1409 4.94331C28.7971 5.05632 28.6963 4.90564 28.7598 4.58166C29.0587 4.42344 28.9877 4.28406 28.7411 4.15598Z" fill="#6F9C68"/>
<path d="M23.1893 4.17858C23.5442 3.15769 24.2017 2.75461 25.1432 3.40632C25.8269 3.88098 26.0137 4.48749 25.0424 4.93577L25.0498 4.94331C24.6351 4.18235 23.7048 4.69468 23.1893 4.17858Z" fill="#8AB183"/>
<path d="M32.1484 4.19742C32.1447 4.50632 32.0662 4.78132 31.7823 4.95461C31.6515 4.95084 31.5208 4.94707 31.39 4.94331C31.3825 4.88303 31.3638 4.82276 31.3638 4.75872C31.3863 4.19365 30.1197 3.8207 30.9454 3.25187C31.8084 2.66043 31.6179 4.02413 32.1484 4.19742Z" fill="#6F9C68"/>
<path d="M30.3289 7.96831C29.8096 8.7142 29.294 9.46386 28.7747 10.2098C28.6029 10.1382 28.4796 10.0139 28.4086 9.84057C28.7971 9.22653 29.1857 8.61249 29.578 7.99845C29.8208 7.9005 30.0599 7.54639 30.3289 7.96831Z" fill="#99B86F"/>
<path d="M28.7635 4.58166C28.8905 4.70221 29.0176 4.82276 29.1446 4.94331C28.898 5.39913 28.4235 5.9755 28.0537 5.55735C27.6539 5.10906 28.4123 4.8529 28.7635 4.58166Z" fill="#8BB281"/>
<path d="M37.3715 21.5187C36.9007 21.8841 36.4263 22.2495 35.7313 22.7844C35.9966 21.6128 36.643 21.5074 37.3715 21.5187Z" fill="#73A16A"/>
<path d="M14.2077 10.9782C14.0769 10.8539 13.9461 10.7296 13.8154 10.6053C13.4081 9.82174 14.0097 9.54297 14.4879 9.20016C14.0769 8.94776 13.2251 9.90461 13.1167 8.72174C14.0694 7.8666 15.5713 8.23954 16.4493 7.20735C16.8229 7.20735 17.1965 7.20358 17.5702 7.20358L17.5776 7.21112C17.5702 7.45598 17.5664 7.69708 17.5589 7.94194C17.275 8.37139 16.61 8.46557 16.5651 9.10975C15.8777 9.85564 15.6984 11.257 14.2077 10.9782Z" fill="#7CA773"/>
<path d="M19.4307 10.9707C19.1879 10.9669 18.945 10.9669 18.6985 10.9632C18.3547 10.6806 18.2912 10.2926 18.3062 9.87824C18.3398 9.56934 18.493 9.31318 18.6835 9.07961C19.0758 8.21317 17.7756 6.61214 19.8081 6.45769V6.45393C20.8916 8.06249 20.3722 9.53544 19.4307 10.9707Z" fill="#518148"/>
<path d="M18.6873 9.07961C18.691 9.33201 18.691 9.58818 18.6947 9.84057C18.1418 10.1043 17.6262 9.99879 17.1256 9.68989C16.7781 9.44879 16.6212 9.07585 16.4643 8.70667C16.326 7.71591 17.1218 8.08886 17.5589 7.93817C18.0596 8.19057 17.8578 9.15119 18.6873 9.07961Z" fill="#598450"/>
<path d="M17.5664 7.19982C17.2787 6.75906 16.8267 6.85701 16.4045 6.82687C16.0832 6.80427 15.5639 6.96626 15.6349 6.37105C15.6946 5.87002 16.0496 5.67413 16.5801 5.78338C17.4431 5.95667 17.8952 6.57447 17.5739 7.20358C17.5776 7.20735 17.5664 7.19982 17.5664 7.19982Z" fill="#7CA972"/>
<path d="M10.5538 26.3896C10.7779 26.3745 10.9984 26.3632 11.2225 26.3481C11.3122 28.2505 12.3882 30.0926 11.5737 32.0553C11.2113 32.5601 10.8489 33.0687 10.4865 33.5735C10.2922 33.3512 9.44787 34.1197 9.80654 32.8502C10.1129 31.769 8.54747 32.3755 7.87497 32.0704C6.74667 31.0156 8.60725 30.3676 8.2299 29.4183L8.22617 29.4221C8.88372 29.7423 8.85383 31.219 10.098 30.5635C9.96345 30.1077 9.67951 29.7461 9.34326 29.4221L9.35073 29.4296C9.29843 28.42 8.82394 27.4067 9.36568 26.4009C9.7617 26.4009 10.1577 26.3933 10.5538 26.3896Z" fill="#619253"/>
<path d="M8.23364 29.4183C7.36686 29.3015 7.21742 28.6724 7.15017 27.6892C7.75542 28.292 8.22617 28.695 8.2299 29.4221C8.22617 29.4259 8.23364 29.4183 8.23364 29.4183Z" fill="#6E9D5F"/>
<path d="M9.34326 29.4259C9.99334 29.5389 10.4454 29.7837 10.098 30.5673C9.60479 30.3488 9.33205 29.9834 9.34326 29.4259Z" fill="#77A467"/>
<path d="M11.9922 13.619C11.9809 13.7433 11.9772 13.8676 11.9809 13.9919C12.1453 14.7604 11.8315 15.4348 11.57 16.1204C11.0469 16.4896 10.5276 16.806 10.027 16.0865C10.083 15.8265 10.3072 15.6533 10.3782 15.3971C10.2623 15.608 10.1465 15.819 9.93356 15.9509C9.07426 15.6646 9.81775 14.7868 9.35073 14.3611L9.347 14.3574C8.9435 13.7169 8.89493 13.0916 9.3993 12.47C9.73181 12.0594 10.4118 11.9765 10.5015 12.2666C10.7555 13.0841 11.1179 13.5889 11.9922 13.619Z" fill="#72A06A"/>
<path d="M31.4087 31.3283C31.4012 31.4488 31.3975 31.5656 31.3937 31.6861C30.7549 31.656 30.1907 31.7803 29.8657 32.4132C29.7984 32.8351 29.4136 32.9594 29.1483 33.193C29.025 33.193 28.9055 33.2005 28.7822 33.2156C28.4945 31.72 29.8657 31.5656 30.6166 30.9101C30.9342 30.944 31.2443 30.9968 31.4087 31.3283Z" fill="#81AB78"/>
<path d="M29.1558 33.9426C30.0824 33.1892 30.725 33.7957 31.0425 34.5454C31.375 35.329 30.5643 34.956 30.2467 35.0766C29.8694 34.7111 29.2156 34.6132 29.1558 33.9426Z" fill="#57834F"/>
<path d="M26.9179 35.0653C26.9104 34.8129 26.8992 34.5642 26.8917 34.3118C27.5194 34.067 28.1471 33.8183 28.7747 33.5735C28.7859 33.6978 28.7934 33.8221 28.8046 33.9426C28.9914 34.6659 28.2293 34.3759 28.0238 34.681L28.0126 34.6848C27.6464 34.8129 27.284 34.9409 26.9179 35.0653Z" fill="#85AC7D"/>
<path d="M28.0238 34.681C28.2853 34.4361 28.5431 34.1875 28.8046 33.9426C28.9204 33.9464 29.04 33.9426 29.1558 33.9426C29.6415 34.1988 30.0338 34.5529 30.2467 35.0766C29.507 34.9447 28.7635 34.8129 28.0238 34.681Z" fill="#68965E"/>
<path d="M29.1483 33.193C29.3874 32.9331 29.6266 32.6731 29.8657 32.4132C30.0188 32.481 30.1758 32.545 30.3289 32.6129C30.0786 33.0988 29.6041 33.1327 29.1483 33.193Z" fill="#57834F"/>
<path d="M33.6354 4.57036C33.6317 4.25016 33.5569 3.96009 33.2543 3.79057C33.5793 3.2255 33.9007 2.6642 34.3266 1.92584C34.8534 2.82995 35.963 3.34228 35.1373 4.56283C34.6404 6.02071 34.136 5.30872 33.6354 4.57036Z" fill="#66945E"/>
<path d="M33.6354 4.57036C34.136 4.51762 34.6404 5.47071 35.1336 4.56283C35.2569 4.57036 35.3801 4.57413 35.5034 4.58166C35.5034 4.70598 35.5034 4.83029 35.5034 4.95461C35.5595 5.76454 35.2457 6.19399 34.3863 6.06214C34.2631 5.9416 34.1398 5.81728 34.0165 5.69673C33.6018 5.4142 33.4486 5.04879 33.6354 4.57036Z" fill="#588753"/>
<path d="M31.3937 8.33372C32.4884 8.29605 31.6665 9.25667 32.0139 9.61831C32.5706 9.34708 32.8658 8.9327 32.8919 8.33372C33.1422 8.4618 33.3888 8.58612 33.6391 8.7142C33.8745 9.21146 33.4112 9.47893 33.273 9.85187C32.8919 10.093 32.5071 10.3341 32.126 10.5752C31.5843 11.0611 31.05 11.5546 30.2766 10.9933C31.065 10.2851 29.9591 8.76694 31.3937 8.33372Z" fill="#67965D"/>
<path d="M34.3863 6.05461C34.8982 5.82858 35.2569 5.44434 35.5034 4.94707C35.6267 4.94707 35.7463 4.95084 35.8658 4.96214C35.9256 5.77208 35.6529 6.42379 34.8459 6.66112C34.4499 6.78543 34.4387 6.34468 34.3863 6.05461Z" fill="#6C9963"/>
<path d="M33.6354 4.5666C33.7624 4.93954 33.8894 5.31625 34.0165 5.6892C33.9007 5.82105 33.7886 5.94913 33.6728 6.08098C33.3402 6.09982 33.075 5.9755 32.8882 5.69297C32.8844 5.14673 33.146 4.78132 33.6354 4.5666Z" fill="#6C9963"/>
<path d="M32.8882 5.69297C33.202 5.71557 33.4972 5.77961 33.6728 6.08098C33.6541 6.44639 33.6354 6.8118 33.6167 7.17345C33.3627 6.92482 33.1086 6.67995 32.8545 6.43132C32.8545 6.18646 32.4585 5.92276 32.8882 5.69297Z" fill="#85AD7A"/>
<path d="M33.273 9.85187C32.8022 9.27927 33.6354 9.13235 33.6391 8.7142C34.3191 8.68783 34.1771 9.07961 34.0202 9.47893C33.8521 9.769 33.5756 9.83681 33.273 9.85187Z" fill="#6C9963"/>
<path d="M13.113 8.71797C13.8714 9.47516 14.6672 8.11523 15.4817 8.73304C15.1267 9.58818 13.8901 9.58064 13.8116 10.6015C13.6958 10.5978 13.58 10.594 13.4604 10.5902C13.7593 9.88955 12.2574 9.5279 13.113 8.71797Z" fill="#66945C"/>
<path d="M9.35447 14.3649C9.95972 14.6851 9.4927 15.5478 10.098 15.868C10.5911 16.5649 11.0768 16.0639 11.5662 15.8604C12.844 15.8717 12.7207 16.7231 12.5862 17.582C12.3807 18.0039 12.0108 18.132 11.5812 18.1433C10.8601 18.3995 11.8203 16.2033 10.4716 17.3711C10.1615 17.7063 8.64461 18.456 8.21122 18.4899C7.06424 17.7063 8.11035 16.9529 8.31583 16.2522C8.51385 15.5779 8.99954 14.9902 9.35447 14.3649Z" fill="#63905B"/>
<path d="M21.3436 33.9803C21.0223 33.9577 20.7384 34.0218 20.5329 34.2968C20.1593 34.3156 19.7894 34.3382 19.4195 34.357C18.8068 34.7714 18.1941 34.7978 17.5814 34.3533C17.1779 34.2892 16.7071 34.4324 16.4493 33.9502C16.6473 33.5735 16.9799 33.3814 17.3609 33.2457C18.2053 33.0122 19.0721 33.0913 19.9314 33.08C20.3984 33.0536 20.8542 33.1553 21.3137 33.2194C21.7957 33.3399 22.2776 33.4605 22.7633 33.581C22.513 34.519 21.8816 34.082 21.3436 33.9803Z" fill="#94BA6B"/>
<path d="M16.0645 35.7885C17.4132 35.7697 18.0148 36.7944 18.6835 37.7135C18.8105 38.079 18.6574 38.1656 18.3286 38.079C17.8317 38.079 17.3348 38.079 16.8379 38.079C16.8977 37.5968 17.9176 37.8642 17.6113 37.3218C17.1293 36.4591 16.1691 36.2519 15.2388 36.3574C14.9362 36.3913 14.6709 36.8848 14.2899 36.5608C13.6622 36.0296 14.1292 35.9091 14.5962 35.8036C15.0819 35.4043 15.5713 35.4382 16.0645 35.7885Z" fill="#53824A"/>
<path d="M17.5814 34.3533C18.1941 34.3533 18.8068 34.3533 19.4195 34.357C18.8554 35.6906 17.6972 34.8468 16.8341 35.0728C17.0807 34.8355 17.331 34.5944 17.5814 34.3533Z" fill="#517B44"/>
<path d="M11.5849 36.1992C11.8166 35.9505 12.0519 35.6981 12.2836 35.4495C12.6497 35.5361 13.4119 35.3516 13.24 35.8865C12.9972 36.6286 12.2462 36.6135 11.5849 36.1992Z" fill="#77A261"/>
<path d="M17.2488 33.6187C16.9836 33.7279 16.7146 33.8409 16.4493 33.9502C16.1019 34.0707 15.7544 34.195 15.4107 34.3156C15.2612 34.1687 15.1118 34.0218 14.9661 33.8748C14.8652 33.5961 14.9773 33.3776 15.1641 33.1817C15.3061 33.0837 15.4667 33.031 15.6423 33.0197C16.2177 33.1063 16.8454 33.0611 17.2488 33.6187Z" fill="#649555"/>
<path d="M16.0645 35.7885C15.5751 35.7923 15.0856 35.7961 14.5962 35.8036C14.5178 34.3646 15.605 35.4081 16.0608 35.1029C16.0608 35.3327 16.0608 35.5588 16.0645 35.7885Z" fill="#75A26A"/>
<path d="M21.3137 33.2194C21.0074 33.6149 20.5852 33.5546 20.1667 33.5245C19.3822 32.8803 18.5527 32.4245 17.5814 33.1365C16.8267 33.6865 16.057 32.3944 15.3285 33.193C14.2973 33.9238 14.8017 32.2701 14.1479 32.417C14.4244 31.9423 14.7008 31.4639 14.9736 30.9892C15.4891 30.33 16.2737 30.1944 16.9873 29.9194C17.9288 29.7875 18.8591 29.2375 19.8193 29.8516C20.107 30.2509 20.5291 30.1642 20.9289 30.1755C21.9377 31.0985 22.6886 30.1303 23.5292 29.8139C23.7833 29.9382 24.0411 30.0625 24.2951 30.1868C24.5193 30.62 24.1158 30.7255 23.9141 30.9365C23.7086 30.9177 23.4993 30.8988 23.2939 30.88C23.3761 31.1474 23.462 31.4149 23.5442 31.6861C23.2901 31.6861 23.0398 31.6899 22.7858 31.6899C22.4869 32.0516 22.0871 32.1005 21.6612 32.0704C21.4445 32.0591 21.0896 31.9611 21.041 32.0478C20.7907 32.4885 21.1979 32.8276 21.3137 33.2194Z" fill="#649555"/>
<path d="M16.8752 30.2019C16.2438 30.4656 15.6087 30.7293 14.9773 30.9892C15.3472 29.9796 15.463 29.0567 14.1591 28.6348C14.5589 27.9002 14.9549 27.1618 15.3546 26.4272C14.9624 24.4457 15.4368 22.4077 14.9922 20.43C14.8428 19.669 14.7494 18.9118 15.1828 18.2036C15.3472 18.0378 15.5415 17.9851 15.7656 18.0454C16.7071 18.6557 16.5315 19.6389 16.5764 20.5467C16.6137 21.2851 16.5353 22.0272 16.7109 22.7543C16.8864 23.3759 16.9163 24.0238 17.0097 24.6491C16.8043 24.5022 17.2563 24.7885 17.0247 24.845C16.9275 24.8676 17.0247 25.1012 17.1218 25.0183C17.6411 24.5889 18.138 24.0652 18.7807 24.845C18.9002 25.3461 18.7246 25.7115 18.2763 25.9488C17.3385 27.0714 16.5166 28.2618 16.1093 29.6933C16.2252 30.0813 16.6996 29.9081 16.8752 30.2019Z" fill="#B5CD6B"/>
<path d="M11.5774 32.0553C11.4616 30.1529 11.3421 28.2505 11.2263 26.3481C11.2038 26.2502 11.1964 26.1485 11.2076 26.0505C12.0034 26.6231 11.2225 27.7194 11.9473 28.3146C12.037 29.1245 11.6933 30.0889 12.7244 30.5711C12.3396 31.0646 11.9585 31.5581 11.5774 32.0553Z" fill="#95B764"/>
<path d="M14.1516 32.4207C15.1791 31.6937 14.5589 33.5245 15.3322 33.1968C15.2089 33.4228 15.0894 33.6526 14.9661 33.8786C14.443 33.905 13.7743 34.2177 13.453 33.6865C13.0682 33.0536 13.8191 32.7974 14.1516 32.4207Z" fill="#59884D"/>
<path d="M18.7171 24.9128C17.869 24.393 17.5552 25.1992 17.0807 25.5909C16.8304 25.7981 16.539 26.0015 16.3746 25.606C16.3186 25.4741 16.6698 25.169 16.8341 24.9468C16.5838 23.9937 17.3348 23.4512 17.7868 22.856C19.1468 21.0591 20.3797 19.2094 21.097 17.0509C21.2315 16.9303 21.3885 16.8625 21.564 16.8512C22.7185 17.3409 22.9539 15.8228 23.8655 15.7776C24.2242 15.9509 24.2877 16.2899 24.3362 16.6365C23.6413 17.6536 22.924 18.6556 22.2702 19.6991C21.99 20.1437 21.4333 20.6447 21.7994 21.1872C22.1357 21.6882 22.6998 21.1457 23.1706 21.157C23.5367 21.1683 23.9066 21.1156 24.2727 21.0892C24.5305 21.2135 24.7846 21.3378 25.0424 21.4622C24.9041 21.7108 24.6762 21.8389 24.4222 21.9293C23.3761 22.2495 22.3113 22.5283 21.2838 22.905C20.7795 23.1687 20.4059 23.5831 20.021 23.9937C19.5914 24.3101 19.4419 25.0296 18.7171 24.9128Z" fill="#BBD275"/>
<path d="M30.979 12.4324C31.7188 13.4834 32.8134 12.2252 33.6204 12.843C33.131 13.2385 32.1223 13.5173 33.4336 14.218C33.7811 14.4026 33.5906 14.8584 33.2394 15.0957C33.1833 14.5834 33.0787 14.1652 32.4921 14.719C32.1634 14.4779 31.928 13.9467 31.39 14.3574C29.7723 13.2159 28.7673 14.9601 27.4596 15.2539C26.8058 15.4009 26.2753 15.7813 25.7522 15.0919C25.8083 13.7245 26.8618 13.5098 27.8668 13.231C28.9466 13.1255 29.8507 12.3457 30.979 12.4324Z" fill="#67945A"/>
<path d="M27.9789 13.5625C27.0673 13.8187 26.2379 14.2029 25.756 15.0919C25.2815 15.6043 24.807 16.1204 24.3325 16.6327C23.9925 16.4745 23.929 16.1693 23.9178 15.8378C23.7123 14.8396 24.2391 14.331 25.0984 14.0409C25.6028 13.3967 26.1034 12.7488 26.6078 12.1046C26.7273 10.9782 27.5007 10.3604 28.36 9.80667L28.4086 9.83681C28.5319 9.96112 28.6552 10.0817 28.7747 10.206C28.3675 11.1176 27.4223 11.7241 27.3102 12.8091C27.3812 13.2009 28.2629 12.8543 27.9789 13.5625Z" fill="#BCD085"/>
<path d="M25.8008 18.4937C25.7634 18.8779 25.6588 19.2697 25.1955 19.2094C24.68 19.1416 24.9975 18.7988 25.0722 18.5502C25.3151 18.5351 25.5579 18.5163 25.8008 18.4937Z" fill="#7EAC71"/>
<path d="M24.3138 21.5639C24.5567 21.53 24.7958 21.4961 25.0386 21.4622C25.1656 21.4923 25.2964 21.5224 25.4234 21.5488C26.4471 22.2194 26.421 22.1741 25.3412 22.8108C24.5903 23.2515 24.7323 24.2461 24.2989 24.9053C23.8617 25.2557 23.462 25.2707 23.122 24.7697C23.0846 24.2837 23.3648 23.9033 23.5367 23.4889C23.8617 22.8748 23.7422 22.0762 24.3138 21.5639Z" fill="#578C52"/>
<path d="M27.157 22.0498C27.3251 22.2646 27.497 22.3926 27.5082 22.532C27.5157 22.6413 27.3289 22.7694 27.2242 22.8861C27.1196 22.7618 26.9515 22.6526 26.9254 22.5132C26.9029 22.4039 27.0449 22.257 27.157 22.0498Z" fill="#B0CD9C"/>
<path d="M9.52633 25.3611C9.04437 24.7245 8.56615 24.0878 8.08419 23.4512C9.23491 23.5002 9.40677 24.3892 9.52633 25.3611Z" fill="#76A164"/>
<path d="M16.4232 23.0519C15.6012 21.4961 16.5315 19.6803 15.7096 18.1245C15.5825 17.955 15.4518 17.857 15.3248 18.1245C15.336 18.8704 15.3472 19.6163 15.3546 20.3622C15.321 20.4413 15.2911 20.5204 15.2612 20.5995C15.0969 21.9142 13.905 22.7581 13.6996 24.0539C13.6211 24.0878 13.5389 24.118 13.4567 24.1519C12.2836 23.8618 11.6111 23.2327 11.9511 21.9104C12.3957 20.9724 12.5115 19.9101 12.8888 19.07C12.56 19.3526 12.4741 20.2152 11.6223 20.0269C11.6148 19.3978 12.1341 18.7611 11.5774 18.1433C11.7418 17.8269 12.0295 17.7515 12.3508 17.744C12.5488 16.4519 12.9598 15.3594 14.5327 15.3406C15.3808 15.8077 14.9885 14.8207 15.3061 14.67C15.8403 14.5156 15.9973 15.4046 16.5726 15.1409C16.9014 15.8341 17.0396 16.5461 16.9163 17.3221C16.8416 17.7704 17.0247 18.0717 17.5477 17.7591C17.7906 17.7515 18.0334 17.7478 18.2763 17.7402C18.5976 18.4522 18.7769 19.1529 18.1044 19.782C17.3497 19.895 16.9014 20.2567 16.9014 21.1005C16.9014 21.7033 16.9537 22.3324 16.6212 22.8899C16.5577 22.9464 16.4904 22.9991 16.4232 23.0519Z" fill="#649359"/>
<path d="M15.3584 20.3659C15.9151 22.3889 15.8702 24.4081 15.3546 26.431C14.1404 26.1673 12.3359 26.4009 13.4642 24.1557C14.5589 23.1574 15.2612 21.9632 15.2911 20.4337L15.3584 20.3659Z" fill="#649359"/>
<path d="M11.626 20.0269C12.3172 19.6615 12.6759 19.0173 13.0009 18.3467C13.113 18.1207 13.2475 17.906 13.5314 18.117C13.6211 18.181 13.7145 18.407 13.707 18.4108C12.4853 19.2546 13.6398 21.3115 11.9548 21.9104C11.5177 21.6354 11.6036 21.1759 11.555 20.7652C11.5812 20.5204 11.6036 20.2755 11.626 20.0269Z" fill="#70A36A"/>
<path d="M18.7171 24.9128C19.0758 24.5286 19.4382 24.1481 19.7969 23.7639C20.2303 23.5378 20.5927 23.7413 20.9513 23.9635C21.0821 24.0652 21.2016 24.1858 21.3063 24.3101C22.2552 25.331 21.2652 25.7341 20.6935 26.2765C19.9351 26.9132 19.1281 26.6344 18.3211 26.4122C18.3062 26.2577 18.2875 26.1033 18.2725 25.945C18.422 25.606 18.5677 25.2594 18.7171 24.9128Z" fill="#5C8856"/>
<path d="M20.559 26.0392C20.5889 25.5043 21.9377 25.3122 20.9439 24.5173C21.579 24.005 22.259 23.9824 22.9763 24.3214C23.0473 24.3968 23.122 24.4683 23.193 24.5437C23.4583 24.9844 23.8954 24.894 24.2951 24.9053C24.3587 25.4892 23.7833 25.6437 23.5517 26.0279C23.2453 26.3632 22.8605 26.2841 22.4831 26.2351C21.9152 26.1899 21.3474 26.3331 20.7795 26.2238C20.7085 26.1635 20.6338 26.0995 20.559 26.0392Z" fill="#65945C"/>
<path d="M16.8752 30.2019C16.5315 30.168 16.2027 30.1153 16.1056 29.6971C17.9699 29.3656 19.8305 29.0303 21.6948 28.6988C21.8405 28.8382 22.0834 28.8683 22.1431 29.1057C21.3698 29.3543 20.5964 29.6029 19.823 29.8516C18.8031 29.6444 17.8653 30.1567 16.8752 30.2019Z" fill="#B2CC75"/>
<path d="M22.1431 29.1057C21.9937 28.97 21.8443 28.8344 21.6948 28.6988C23.0622 28.7402 24.3661 28.0659 25.7522 28.3183C24.7248 29.3995 23.3648 28.9324 22.1431 29.1057Z" fill="#B7CC7B"/>
<path d="M18.3248 26.4159C19.0235 26.0166 19.9052 26.6985 20.5628 26.0392L20.559 26.0355C20.7795 26.2878 20.7832 26.5402 20.559 26.7889C19.9725 27.6176 19.9725 27.6176 18.3248 26.4159Z" fill="#6A9965"/>
<path d="M20.559 26.7926C20.559 26.5402 20.559 26.2878 20.559 26.0392C21.1867 26.0392 21.8144 26.0392 22.442 26.043C22.5653 26.1259 22.6064 26.205 22.5616 26.2841C22.5205 26.3632 22.4794 26.4046 22.4383 26.4046C21.8106 26.5289 21.1867 26.6608 20.559 26.7926Z" fill="#5C8856"/>
<path d="M22.4383 26.4009C22.4383 26.2803 22.4383 26.1598 22.442 26.0392C22.8119 26.0355 23.1855 26.0355 23.5554 26.0317C23.4583 27.0074 22.9352 26.6608 22.4383 26.4009Z" fill="#77A66F"/>
<path d="M28.7785 29.8516C27.3064 28.3259 29.8507 29.456 29.5332 28.6913C30.1347 28.6875 30.796 28.5255 31.1135 29.294C31.3041 29.7536 31.0126 29.9608 30.6951 30.1793C29.9441 30.6916 29.3277 30.5033 28.7785 29.8516Z" fill="#97BD93"/>
<path d="M26.1632 33.193C25.6663 33.193 25.1694 33.193 24.6725 33.1892C24.071 32.8615 23.5853 32.4471 23.5517 31.6861C24.34 31.5468 25.0424 31.9423 25.7933 32.0591C26.406 31.9498 26.3799 32.8012 26.9141 32.8125C26.7498 33.1214 26.4695 33.1855 26.1632 33.193Z" fill="#649555"/>
<path d="M26.9104 32.8163C26.2678 32.9745 25.9726 32.6016 25.7896 32.0629C26.1669 31.4676 26.5405 31.9611 26.9141 32.0704C26.9141 32.3153 26.9104 32.5676 26.9104 32.8163Z" fill="#5C9050"/>
<path d="M31.4087 31.3283C31.0836 31.3094 30.7773 31.2529 30.6204 30.9101C30.8744 30.7783 31.1322 30.6502 31.39 30.5183C31.5955 30.5786 31.9355 30.5334 31.8794 30.8498C31.8458 31.0307 31.5731 31.17 31.4087 31.3283Z" fill="#93BB8C"/>
<path d="M23.533 29.8139C22.1842 31.3885 21.6649 31.4639 20.9326 30.1755C21.7434 29.6632 22.6513 29.8289 23.533 29.8139Z" fill="#6BA061"/>
<path d="M23.9178 30.9365C24.0448 30.6879 24.1718 30.4392 24.2989 30.1868C24.5604 30.2509 24.9901 30.217 24.8369 30.6464C24.6986 31.0457 24.2503 30.9063 23.9178 30.9365Z" fill="#77A36F"/>
<path d="M18.3286 38.079C18.4481 37.9584 18.564 37.8341 18.6835 37.7135C19.1842 37.9659 19.6848 38.2146 20.1854 38.467C20.0248 38.7947 19.7184 38.8399 19.4083 38.8776C19.0459 38.8701 18.6835 38.8625 18.3211 38.855C18.3248 38.5988 18.3249 38.3389 18.3286 38.079Z" fill="#64955A"/>
<path d="M27.9789 13.5625C27.7548 13.3139 27.5343 13.0615 27.3139 12.8128C28.2853 12.9711 29.1297 12.6471 29.918 12.1159C30.2131 11.7806 30.5083 11.4491 31.0014 11.8032C31.0052 11.9012 31.0164 12.0029 31.0239 12.1009C31.0089 12.2139 30.9977 12.3231 30.979 12.4324C29.9777 12.8091 28.9802 13.1858 27.9789 13.5625Z" fill="#96B780"/>
<path d="M30.9977 11.8032C30.6353 11.9087 30.2766 12.0104 29.9142 12.1159C29.04 11.419 30.5681 11.5019 30.2729 10.9933C30.8894 10.8539 31.5058 10.7145 32.1223 10.5752C32.4174 10.5978 32.7088 10.643 32.8695 10.9443C32.2456 11.2306 31.6216 11.5169 30.9977 11.8032Z" fill="#4D7C45"/>
<path d="M20.0659 37.1635C19.7819 37.2088 19.5914 37.2954 19.4644 37.2389C19.3597 37.1937 19.3336 36.9752 19.2701 36.832C19.3784 36.7944 19.5167 36.7002 19.5877 36.7379C19.7371 36.8132 19.8492 36.9601 20.0659 37.1635Z" fill="#5E8857"/>
<path d="M21.3436 33.9803C21.8256 33.8824 22.4009 34.1122 22.7633 33.5848C23.4172 33.7618 24.5716 33.2683 24.2765 34.7262C23.2453 34.6885 22.2515 34.5153 21.3436 33.9803Z" fill="#5C9050"/>
<path d="M21.6649 32.0704C21.9339 31.6296 22.3785 31.7087 22.7895 31.6899C22.7895 32.0779 22.7372 32.4885 22.3225 32.594C21.9862 32.6807 21.8181 32.3341 21.6649 32.0704Z" fill="#77A869"/>
<path d="M25.0947 14.0447C24.7024 14.6437 24.3101 15.2426 23.9141 15.8416C23.4844 16.3502 23.0846 16.8889 22.6176 17.3598C22.1058 17.8759 21.7733 17.7063 21.6873 16.9981C21.2502 15.2615 21.9003 13.5286 21.7172 11.7919C21.7172 11.2419 21.5304 10.6543 22.0236 10.2022C22.3262 10.3303 22.4906 10.6091 22.6998 10.8351C23.1668 11.2758 23.8617 11.3173 24.3213 11.7693C24.4408 11.8786 24.5567 11.9878 24.6725 12.1009C25.2591 12.6509 24.6949 13.4532 25.0947 14.0447Z" fill="#709B5A"/>
<path d="M21.3137 16.9981C21.0111 20.332 18.3996 22.3399 16.8304 24.9505C16.1205 24.4457 16.5465 23.6885 16.4232 23.0557L16.4942 22.9765C16.5988 22.8899 16.7183 22.8673 16.8454 22.905C17.4431 22.7241 16.9201 22.4454 16.8977 22.2118C16.6698 21.6882 16.7146 21.2512 17.2713 20.9687C17.5739 20.7728 18.3286 21.6694 18.2576 20.4978C18.2202 19.8687 18.6349 19.2885 18.5527 18.5652C18.4743 17.8796 18.8927 17.2693 19.7782 17.356C20.178 17.7026 20.0509 18.1019 19.9388 18.4409C20.1593 18.1283 20.1667 17.7628 19.8454 17.4087C19.7296 17.3259 19.6848 17.2392 19.7147 17.1488C19.7446 17.0546 19.7782 17.0056 19.8118 17.0056C20.4432 16.4896 20.4432 16.4896 19.4382 15.4988C19.569 15.1296 19.9575 15.0279 20.1817 14.7529C20.2116 13.9844 20.7496 13.9769 21.3025 13.9882C21.9152 14.9865 21.7994 15.9923 21.3137 16.9981Z" fill="#63955A"/>
<path d="M24.6687 12.1008C24.5417 12.0971 24.4147 12.0933 24.2839 12.0895C23.7982 11.4567 23.5031 10.5639 22.4458 10.7145C21.9377 10.4245 22.7895 9.71249 22.0722 9.48646C22.0684 8.39776 23.6712 8.37516 23.5554 7.21112C23.9813 6.07721 24.5156 5.24468 25.7634 6.40872C25.2217 8.27345 24.5455 10.108 24.6687 12.1008Z" fill="#65955A"/>
<path d="M19.4307 10.9707C19.6063 9.46763 20.107 7.99468 19.8081 6.45393C20.3125 5.95666 20.8168 5.4594 21.3212 4.96214C21.6948 5.31249 22.0609 5.67413 22.4047 6.05461C21.7994 7.94948 21.2726 9.88201 19.8118 11.3512C19.5877 11.3286 19.5802 11.0875 19.4457 10.9745L19.4307 10.9707Z" fill="#6B9A62"/>
<path d="M16.4605 8.70667C16.7109 8.95907 16.9574 9.2077 17.2078 9.46009C17.4581 10.2135 17.0172 10.6166 16.3148 10.9782C16.7744 10.918 17.0396 10.7899 17.2451 10.53C17.5029 10.206 17.8242 10.0289 18.1866 10.3604C18.4818 10.6317 18.5976 10.9745 18.3435 11.355C17.2152 13.1782 16.2588 13.0916 14.2114 10.9782C15.2874 10.5526 15.7432 9.49776 16.4605 8.70667Z" fill="#6A9B62"/>
<path d="M14.5887 15.4837C13.8864 16.1882 12.3695 16.1919 12.6572 17.7553C12.6609 17.7741 12.56 17.8344 12.5115 17.8344C12.4592 17.8306 12.4069 17.7779 12.3546 17.7478C12.3284 17.017 12.4629 16.2221 11.5662 15.8604C11.1216 15.107 11.7605 14.5985 11.9809 13.9919C12.4891 14.282 12.8776 14.2067 13.0906 13.6152C13.2288 13.4834 13.3895 13.4495 13.5688 13.5022C14.1965 14.0108 14.8166 14.5269 14.5887 15.4837Z" fill="#58864F"/>
<path d="M19.8156 17.3711C18.2539 17.8985 19.0235 19.345 18.7545 20.3433C18.4631 21.4245 18.082 21.6467 17.1592 21.1834C16.6137 21.1646 16.6025 20.7615 16.6735 20.3961C16.8192 19.6615 17.4469 19.7255 17.9886 19.6615C18.4481 19.0776 18.011 18.3543 18.2838 17.7402C18.3622 16.5875 19.1094 16.8399 19.8156 16.9981C19.8156 17.1224 19.8156 17.2505 19.8156 17.3748V17.3711Z" fill="#77A771"/>
<path d="M17.5515 17.7591C17.5216 18.0981 17.686 18.5577 17.2414 18.6858C16.8715 18.795 16.6959 18.3693 16.666 18.1207C16.5465 17.1187 16.5054 16.1053 16.4381 15.0995C16.3372 14.9714 16.3484 14.8584 16.4755 14.7567C17.2563 15.0015 17.1069 16.6892 18.4706 15.8567C18.4145 16.7646 17.006 16.7382 17.5515 17.7591Z" fill="#7AA870"/>
<path d="M21.3137 16.9981C21.31 15.9923 21.3063 14.9902 21.3025 13.9844C21.3063 13.8563 21.31 13.732 21.3175 13.6039C21.026 13.118 21.5416 12.8618 21.6313 12.4851C21.6612 12.2553 21.6873 12.0217 21.7172 11.7919C22.2889 13.5324 22.2851 15.2652 21.6911 16.9981C21.564 16.9981 21.437 16.9981 21.3137 16.9981Z" fill="#ADC36D"/>
<path d="M18.3398 11.355C17.8803 10.4772 17.686 10.3981 17.5029 10.8577C17.1779 11.6789 16.6175 11.2645 16.001 11.3512C16.4344 10.6693 16.8192 10.0666 17.204 9.46386C17.6972 9.59194 18.1941 9.72003 18.6873 9.84811C18.691 10.2211 18.6947 10.5978 18.6947 10.9707C18.5826 11.0913 18.4631 11.2231 18.3398 11.355Z" fill="#65925B"/>
<path d="M14.5887 15.4837C14.2077 14.8622 13.8266 14.2406 13.4455 13.619C13.2438 13.1895 13.1466 12.8166 13.8378 12.8467C14.3496 12.9334 14.3945 14.9262 15.3434 13.2197C15.7544 13.7094 15.7731 14.2029 15.3733 14.7077C15.2874 15.1485 15.5377 15.9282 14.5887 15.4837Z" fill="#75A369"/>
<path d="M15.3733 14.7077C15.3621 14.2104 15.3546 13.7169 15.3434 13.2197C16.3634 13.0276 16.3821 13.0539 16.4717 14.7604C16.4643 14.8735 16.4493 14.9902 16.4344 15.1032C15.8702 15.5515 15.6834 14.9639 15.3733 14.7077Z" fill="#497B44"/>
<path d="M19.4494 10.9669C19.5727 11.0913 19.6923 11.2193 19.8156 11.3437C19.8156 12.1159 19.8156 12.8882 19.8156 13.6378C19.2589 13.1632 19.2514 13.1067 19.4494 10.9669Z" fill="#63955A"/>
<path d="M23.1855 4.17858C23.9552 4.06933 24.9265 3.45906 25.0498 4.94707C24.5342 5.00358 23.9439 4.76625 23.5517 5.32379C23.1071 5.04502 23.1855 4.59673 23.1855 4.17858Z" fill="#67965D"/>
<path d="M22.4047 6.05084C21.6799 6.05461 21.3399 5.6666 21.3212 4.95838C22.1506 4.8529 22.5168 5.21077 22.4047 6.05084Z" fill="#82AC7C"/>
<path d="M21.6313 12.4851C21.5267 12.858 21.4221 13.231 21.3175 13.6039C20.9289 13.5738 20.5291 13.4645 20.6076 12.9937C20.701 12.4437 21.3586 12.8091 21.6313 12.4851Z" fill="#63955A"/>
<path d="M20.1854 14.7491C20.1854 15.2502 19.9276 15.4875 19.4419 15.495C18.9152 14.4591 19.7632 14.8207 20.1854 14.7491Z" fill="#80AA75"/>
<path d="M22.0722 9.49023C23.6899 9.32071 22.102 10.3303 22.4794 10.6166C22.5691 10.7522 22.5429 10.869 22.4234 10.9669C22.1058 10.8087 22.0572 10.5111 22.0236 10.2022C22.0385 9.96489 22.0572 9.72756 22.0722 9.49023Z" fill="#8CB067"/>
<path d="M13.8378 12.8467C13.5277 13.0125 13.4642 13.3063 13.4455 13.619L13.2662 13.6115H13.0868C13.1616 13.2611 12.7356 12.8693 13.0794 12.5906C13.3409 12.3758 13.651 12.5604 13.8378 12.8467Z" fill="#66945C"/>
<path d="M28.3899 8.6916C28.2666 8.95153 28.1471 9.21146 28.0238 9.46763C26.9739 8.62379 27.0113 10.5714 26.152 10.2098C26.2006 9.65222 26.0997 9.02687 26.3238 8.55598C26.8544 7.44468 27.568 6.54057 28.7448 7.99091C28.5095 8.1642 28.1209 8.26215 28.3899 8.6916Z" fill="#6B985D"/>
<path d="M26.152 10.2098C26.7273 9.84057 26.8768 8.37139 28.0238 9.47139C28.0312 9.59571 28.035 9.71626 28.0387 9.84057C27.7398 10.4282 27.2354 10.8577 26.8992 11.4265C26.5742 11.9765 26.137 11.8974 25.812 11.3437C25.8157 10.9293 25.7186 10.4885 26.152 10.2098Z" fill="#74A567"/>
<path d="M25.8083 11.3399C27.2504 11.8937 26.9963 9.89331 28.035 9.83681C28.1433 9.82927 28.2479 9.81797 28.3563 9.81044C27.7697 10.5752 27.1869 11.3399 26.604 12.1084C26.1109 12.0933 25.8045 11.8786 25.8083 11.3399Z" fill="#6B985D"/>
<path d="M28.3899 8.6916C28.1246 8.64263 27.7249 8.65393 27.8594 8.24708C27.9939 7.83646 28.4198 7.99091 28.7448 7.99091C28.6253 8.22447 28.5057 8.45804 28.3899 8.6916Z" fill="#84B076"/>
<path d="M10.1017 15.868C10.1615 15.3217 10.2997 14.8207 10.9535 14.3913C10.9311 15.156 10.677 15.5967 10.1017 15.868Z" fill="#66945C"/>
<path d="M15.3322 33.193C15.3098 32.5413 15.4368 31.9122 16.1841 32.5752C16.7333 33.0649 17.3348 33.0122 17.6523 32.6995C19.102 31.268 19.5615 32.5563 20.1705 33.5245C19.1991 33.5546 18.224 33.5885 17.2526 33.6187C16.5876 33.5885 15.9188 33.5735 15.3322 33.193Z" fill="#598649"/>
<path d="M19.2477 30.8762C18.3473 31.3735 17.7682 31.4752 16.7034 31.3509C17.6337 30.8687 18.1343 30.443 19.2477 30.8762Z" fill="#6CA35E"/>
<path d="M15.3248 18.1245C15.2538 17.8118 14.8129 17.3221 15.265 17.2241C15.9001 17.0923 15.6535 17.7628 15.7096 18.1245C15.5825 18.1283 15.4555 18.1283 15.3248 18.1245Z" fill="#B9CE6E"/>
<path d="M24.3138 21.5639C24.2802 22.3173 24.3923 23.0933 23.9178 23.7676C23.193 23.9447 22.4607 23.7074 21.7247 23.8543C20.6001 24.0765 20.6935 23.3533 20.8915 22.6111C22.0311 22.2608 23.1743 21.9142 24.3138 21.5639Z" fill="#71A063"/>
<path d="M20.8915 22.6111C21.1942 22.9276 20.9663 23.8392 21.9227 23.4324C22.5989 23.1461 23.335 23.1649 23.9178 23.7676C23.6749 24.0276 23.4321 24.2837 23.193 24.5437L23.1743 24.5286C22.4943 24.0426 21.6425 24.619 20.9588 24.1594C20.574 24.0276 20.1854 23.8957 19.8006 23.7639C20.0173 23.2402 20.4133 22.8861 20.8915 22.6111Z" fill="#65945C"/>
<path d="M15.2874 20.43C15.59 22.1252 15.1193 23.4361 13.4604 24.1519C13.5501 23.9221 13.778 23.5491 13.7108 23.4813C12.3844 22.2005 13.1055 22.0913 14.3795 22.2231C14.6485 22.2495 14.9325 21.9707 14.7232 21.7635C13.7444 20.7803 15.0707 20.8557 15.2874 20.43Z" fill="#57834F"/>
<path d="M17.9886 19.6615C17.7047 20.1625 16.1504 19.9628 17.1592 21.1834C16.95 21.5526 16.9911 21.9142 17.2003 22.2683C17.1928 22.5848 17.0957 22.8485 16.7968 23.0029C16.6959 23.0067 16.595 22.9991 16.4979 22.9765C16.483 22.1817 16.4008 21.3793 16.4717 20.5882C16.5539 19.6803 16.9238 19.0324 17.9886 19.6615Z" fill="#54814D"/>
<path d="M14.5327 19.6954C14.3011 19.8122 14.1591 19.9402 14.0171 19.9402C13.7481 19.944 13.5688 19.7632 13.6958 19.492C13.7444 19.3865 13.9984 19.3187 14.1442 19.3413C14.2674 19.3601 14.3646 19.5372 14.5327 19.6954Z" fill="#78A770"/>
<path d="M20.9588 24.1594C21.7023 24.2611 22.5242 23.8694 23.1743 24.5286C22.4308 24.5248 21.6873 24.5211 20.9476 24.5135C20.9401 24.3968 20.9439 24.2762 20.9588 24.1594Z" fill="#7CAA74"/>
<path d="M22.4234 10.9669C22.4346 10.8502 22.4532 10.7296 22.4794 10.6166C23.8319 10.1758 24.1793 10.982 24.2839 12.0933C23.7011 11.6563 22.6475 12.0067 22.4234 10.9669Z" fill="#5A8755"/>
<path d="M19.8118 17.3748C21.2016 18.2789 19.6175 18.9043 19.7483 19.6916C19.1617 18.8591 19.9874 18.1659 19.8156 17.3711L19.8118 17.3748Z" fill="#77A771"/>
<path d="M16.7968 23.0029C16.9313 22.7581 17.0658 22.5132 17.2003 22.2683C17.4207 22.3173 17.7943 22.2796 17.6598 22.6337C17.5365 22.9539 17.2339 23.2063 17.0097 23.4889C16.9388 23.3269 16.8678 23.1649 16.7968 23.0029Z" fill="#6EA06C"/>
</svg>
