<svg width="51" height="45" viewBox="0 0 51 45" fill="none" xmlns="http://www.w3.org/2000/svg">
<path d="M8.64927 16.3193C9.05713 17.0272 9.46498 17.7351 9.8806 18.4589C10.4166 18.1925 10.4749 17.6874 10.5642 17.2022C10.7118 16.1563 11.613 15.6114 12.0947 14.7842C12.2228 14.6371 12.351 14.4939 12.4792 14.3467C12.8987 13.8496 12.5763 13.2372 12.7161 12.6963C12.8715 12.3145 13.0114 11.9128 13.5241 11.9287C15.0001 14.1797 14.9457 16.2318 13.3493 18.6578C12.6229 19.994 11.3411 21.1593 12.083 22.9529C12.25 23.3029 12.4054 23.6529 12.4986 24.0307C12.6307 25.0329 12.9647 25.9794 13.2638 26.9378C13.5823 28.5962 13.9552 30.2507 13.761 31.9647C13.7416 32.267 13.6756 32.5573 13.5474 32.8317C12.9453 33.5834 12.3743 32.8118 11.7878 32.788C10.5914 31.746 9.92333 30.358 9.35622 28.9025C9.29019 27.773 9.0144 26.6157 9.70192 25.5698C9.86895 25.4345 10.0476 25.4186 10.2341 25.526C10.7973 26.2657 10.5681 27.1526 10.6963 28.1269C11.1469 26.4049 10.9954 24.8658 10.4244 23.3466C9.27465 20.4037 11.679 18.6061 12.5219 16.4903C11.982 17.4647 11.3256 18.5703 10.6575 19.6719C9.94275 20.8491 9.45333 20.8053 8.8163 19.5208C8.41233 18.7015 7.98506 17.8703 8.05109 16.9C8.1482 16.5937 8.34241 16.3949 8.64927 16.3193Z" fill="#E9D8B7"/>
<path d="M22.2133 40.6305C22.2987 40.73 22.3725 40.8334 22.4658 40.9209C23.1805 41.5771 24.9595 41.5771 24.1826 43.1838C23.464 44.6672 22.0968 44.9575 20.6013 44.2297C19.9332 43.6729 19.4321 43.8519 19.0515 44.5916C18.3057 45.1046 17.6376 45.1524 17.121 44.2655C16.146 43.6252 16.146 42.5912 16.0838 41.581C16.2276 40.9447 16.2586 40.2607 16.8063 39.7994C17.3657 39.6522 17.5133 40.3959 18.0143 40.38C18.1736 40.4357 18.3057 40.5271 18.4067 40.6504C18.3212 41.581 19.4049 41.2072 19.6341 41.7878C20.0614 42.4122 20.7295 42.6469 21.2772 42.8497C20.8188 42.5435 20.0653 42.46 19.7157 41.7719C19.5059 41.0879 19.8322 40.718 20.4265 40.5112C21.013 40.7538 21.6306 40.4078 22.2133 40.6305Z" fill="#EBDCBF"/>
<path d="M38.5002 34.3072C37.0047 34.2435 35.7462 33.3209 34.2974 33.0902C31.0578 32.5772 29.3643 35.1662 27.2862 36.8803C25.6975 38.1887 24.4701 39.9942 22.2288 40.2567C22.1939 40.1732 22.155 40.0857 22.1162 40.0022C24.0933 37.8705 26.2918 35.9894 28.4748 34.0884C29.0108 33.6231 29.644 33.2732 30.1606 32.7721C30.8908 32.1914 31.3919 31.225 32.5106 31.2807C33.8196 31.8892 35.2956 31.8613 36.6163 32.4062C37.3737 32.7203 38.2749 32.8357 38.6789 33.7385C38.6983 33.9572 38.64 34.1481 38.5002 34.3072Z" fill="#E9D7B9"/>
<path d="M43.2546 14.8558C42.7574 15.52 42.031 15.7665 41.2969 16.021C40.5123 16.2915 40.2171 16.6335 40.2248 17.7033C40.2481 20.2525 40.6521 22.0382 43.7207 21.8433C44.9093 21.7678 45.6512 23.0086 46.7038 23.45C46.3038 24.0824 45.7172 24.1818 45.0491 24.0545C43.5459 22.929 41.8523 22.7024 40.0695 22.9887C39.4285 23.0921 38.7993 23.287 38.1856 22.9171C37.9486 22.6984 37.8865 22.4279 37.9486 22.1217C39.5917 21.8433 38.0535 21.0161 38.2128 20.4832C38.2322 20.3003 38.2943 20.1293 38.3876 19.9702C39.6305 19.0396 39.4285 18.101 38.3992 17.1585C38.3332 16.9795 38.3137 16.7966 38.3487 16.6096C39.6538 15.5398 41.0522 14.649 42.703 14.2473C42.9943 14.3428 43.1847 14.5416 43.2546 14.8558Z" fill="#EBD9B7"/>
<path d="M37.3465 2.45958C37.3737 2.39992 37.3932 2.33629 37.4281 2.28061C38.5895 0.244404 40.3025 -0.51122 41.8795 0.351783C43.1808 1.06366 43.4837 2.18517 42.9904 3.54927C42.3651 5.28323 40.6133 5.94738 38.4691 5.29914C38.0263 4.94916 37.2572 4.79804 37.6845 3.92708C38.9547 2.84534 40.4113 2.82944 41.9223 3.15157C42.0194 3.25895 42.0504 3.37428 42.0155 3.49757C41.9766 3.62483 41.899 3.72425 41.7785 3.78789C41.9145 3.77595 41.965 3.65665 42.0543 3.56518C41.9378 2.22494 41.596 1.13922 39.9218 1.55283C39.3392 1.77156 39.0362 2.28857 38.6983 2.7658C38.407 3.13566 38.1195 3.51745 37.5718 3.41803C37.1562 3.17941 37.0397 2.87318 37.3465 2.45958Z" fill="#F4C947"/>
<path d="M38.9158 28.6877C38.0418 28.7354 38.3176 26.735 37.0008 27.5622C36.7095 27.5026 36.5308 27.3156 36.4299 27.0373C36.593 25.9158 36.0997 26.0868 35.4743 26.5322C34.9888 26.7867 34.2935 26.6674 34.0527 27.3673C33.8507 27.7889 33.5516 28.0713 33.0738 28.111C31.8231 27.9559 30.9996 28.9701 29.9275 29.3041C29.275 29.507 28.7622 30.1154 27.997 30.0041C27.7329 29.8569 27.5581 29.6422 27.527 29.324C29.6207 26.6117 32.8097 25.7726 35.653 24.3488C36.2822 24.0346 36.9814 23.8398 37.7078 24.0545C38.8148 24.4323 38.9585 25.4067 39.0906 26.389C39.1411 26.8981 39.1838 27.4151 39.4052 27.8883C39.4829 28.3099 39.1722 28.4809 38.9158 28.6877Z" fill="#EAD9BD"/>
<path d="M13.2133 12.0401C13.225 12.3225 13.2211 12.5969 12.922 12.748C12.6152 12.7361 12.3122 12.5889 12.0053 12.7321C11.2246 13.432 10.4127 14.0564 9.3096 14.0524C8.5444 14.0485 7.71316 14.1877 7.28588 13.2849C6.83142 12.3304 7.09167 11.4515 7.74035 10.7317C9.12704 9.19657 10.7585 9.17668 12.4909 10.0675C12.8016 10.2226 13.0541 10.4334 13.1823 10.7754C13.3182 11.193 13.3104 11.6146 13.2133 12.0401Z" fill="#F2CB59"/>
<path d="M27.2163 13.5712C28.2689 11.4913 29.877 10.1192 32.1299 9.61813C32.7592 9.47893 33.4234 9.47098 33.7458 8.78296C33.874 8.51253 33.738 8.21426 33.4855 8.13869C32.8641 7.95178 32.2193 7.92791 31.6211 8.24209C31.2249 8.4489 30.8831 8.83466 30.4713 8.93011C29.5158 9.15282 29.7605 8.5523 29.978 8.02734C31.4968 7.55806 33 7.02514 34.6275 7.21206C34.9266 7.78872 34.7324 8.42106 34.8295 9.02556C34.3984 10.334 34.2585 11.8214 32.8097 12.5173C32.5183 12.4617 32.3203 12.2827 32.1882 12.0242C32.126 11.7816 32.2076 11.3919 32.0289 11.3004C31.1122 10.8192 29.24 12.3304 29.2905 13.4798C29.1778 13.8576 28.8671 14.0087 28.5486 14.1439C28.3777 14.1916 28.2068 14.1996 28.032 14.1757C27.6902 14.0763 27.3833 13.9172 27.2163 13.5712Z" fill="#EDDFC5"/>
<path d="M30.3859 2.04995C30.7626 2.32038 31.1433 2.29652 31.524 2.06188C31.7881 2.26471 32.1183 2.28459 32.4174 2.39595C32.8524 2.559 33.2991 2.78171 33.2331 3.33451C33.167 3.88333 32.666 4.10207 32.227 4.03446C29.9702 3.69642 28.3777 5.12017 26.6375 6.16612C26.1287 6.54393 25.6276 6.94958 25.2003 7.40693C24.1244 8.55627 23.6388 8.12278 23.3863 6.80641C24.2914 4.42022 26.4899 3.76402 28.4826 2.85727C29.1002 2.57491 29.8382 2.54707 30.3859 2.04995Z" fill="#FBF8EF"/>
<path d="M45.0647 23.8119C45.6124 23.6926 46.1562 23.5693 46.7038 23.45C48.3547 24.3966 48.7625 25.8561 48.2653 27.6219C47.9857 28.6042 47.4458 29.491 46.3271 29.5149C45.1229 29.5388 44.5714 28.636 44.1946 27.5861C43.8877 26.731 44.0004 25.9158 44.3344 25.1045C44.7384 24.7903 44.3461 24.2812 44.6102 23.9312C44.7384 23.8159 44.8899 23.7722 45.0647 23.8119Z" fill="#F7CD51"/>
<path d="M13.2483 33.0823C13.2561 32.8158 13.2677 32.5493 13.2755 32.2829C13.5629 31.6108 13.8853 30.9943 14.5262 31.9846C15.0545 32.7999 14.9302 33.7544 14.9652 34.6691C14.9496 36.3871 14.9574 38.1052 14.9535 39.8272C14.9496 40.9408 14.635 41.935 13.862 42.7065C13.023 43.5417 12.1218 43.8837 11.3217 42.6111C11.042 42.1378 10.5681 42.2532 10.1486 42.2054C10.4322 40.7499 11.8733 41.4458 12.5957 40.8135C12.7123 40.5033 12.7589 40.1652 12.9919 39.9147C13.8309 38.316 12.9842 36.761 12.8715 35.1861C12.7744 34.4384 12.6579 33.6907 13.2483 33.0823Z" fill="#FAF3E1"/>
<path d="M1.64975 19.4452C0.686438 16.4864 2.4305 14.2195 5.50687 14.4303C6.11282 14.7325 6.33423 15.3092 6.50902 15.9176C6.57505 16.1841 6.57505 16.4506 6.51679 16.717C6.44687 16.9755 6.33811 17.2221 6.22546 17.4607C5.81761 18.2243 5.60009 19.1469 4.67951 19.5089L4.7067 19.4969C3.67736 20.0537 2.64801 20.6383 1.64975 19.4452Z" fill="#F4CB56"/>
<path d="M10.1253 25.53C9.40671 26.6754 9.94275 27.948 9.76407 29.149C8.90564 29.32 8.54051 28.5326 7.9501 28.1787C7.27034 27.7014 6.55563 27.2759 5.81373 26.9219C5.19224 26.6276 4.52802 26.2618 3.9143 26.9776C3.77446 27.0969 3.61909 27.1765 3.44818 27.2282C2.83446 27.077 2.28677 26.8225 1.94884 26.2299C2.46934 26.0152 3.00925 25.5737 3.50645 25.6215C6.11282 25.876 6.06621 24.1897 5.90695 22.3683C6.06232 22.1297 6.14001 21.7916 6.52844 21.8513C7.12662 22.2132 7.09943 22.8336 7.14993 23.4222C7.21208 24.2971 6.97514 25.2397 7.6782 25.9754C7.95787 26.2339 8.20258 26.7032 8.61432 26.5242C9.12316 26.3015 8.83572 25.7169 8.92506 25.2914C8.94448 24.8738 9.02217 24.4681 9.22027 24.0943C9.49605 23.7841 9.78738 23.2074 10.2224 23.6727C10.7507 24.2414 10.708 24.9454 10.1253 25.53Z" fill="#E6D1AC"/>
<path d="M37.8515 4.0106C37.599 4.67077 38.306 4.84576 38.4652 5.29516C37.3155 5.77637 37.0086 6.532 37.7311 7.62964C37.9408 8.01143 37.7078 8.30175 37.5524 8.61195C37.1873 9.28406 37.7544 9.54256 38.1118 9.86072C38.7449 10.4255 39.0867 11.0538 38.6905 11.9128C38.5701 12.06 38.4186 12.1395 38.2322 12.1515C37.8243 12.1157 37.6767 11.718 37.3699 11.4833C37.6534 11.8293 37.7272 12.1952 37.6767 12.5929C37.5757 12.9906 37.4126 13.3207 36.9309 13.2889C35.7928 12.6207 36.2745 11.1095 35.4277 10.2863C34.9422 7.85633 36.2745 5.99113 37.2883 4.02253C37.4786 3.93106 37.6651 3.9231 37.8515 4.0106Z" fill="#EBDAB2"/>
<path d="M11.3139 42.6071C13.4464 43.1321 14.398 42.281 14.4252 39.7835C14.4447 38.0773 14.433 36.3712 14.433 34.6651C14.8176 33.7305 14.5923 32.7999 14.4796 31.8534C14.4019 31.2011 14.1805 30.3779 15.2409 30.2546C16.1499 31.7142 15.8236 33.305 15.5828 34.8281C15.3575 36.2678 15.2992 37.6836 15.4779 39.1153C15.6371 39.6124 15.6838 40.1334 15.7381 40.6504C16.515 42.7383 14.6428 42.6986 13.6523 43.3707C11.6946 44.4842 11.3916 44.3848 11.3139 42.6071Z" fill="#EDDCBF"/>
<path d="M12.9181 10.8748C12.7744 10.6044 12.6307 10.338 12.487 10.0675C12.9647 9.96412 13.559 10.5209 13.9242 9.92435C15.1904 7.85633 16.3286 8.67558 17.4667 10.0357C17.4628 11.1214 17.4628 11.1214 15.5284 12.2191C15.2099 12.406 14.8875 12.573 14.5029 12.5492C13.7649 12.2071 13.4347 11.4475 12.9181 10.8748Z" fill="#EECF7D"/>
<path d="M23.7359 6.83425C23.9224 7.24785 23.7903 8.17051 24.6837 7.39898C25.2508 6.90981 25.8684 6.4803 26.4666 6.02294C26.8395 5.90761 26.9482 6.06669 26.855 6.42462C25.9461 7.35523 25.0333 8.28982 24.1244 9.22043C23.6077 9.84879 24.4506 10.2982 24.3341 10.8709C24.272 11.3998 24.171 11.9168 24.0389 12.4338C23.868 12.9667 23.8136 13.5394 23.5495 14.0485C23.3708 14.307 23.1416 14.482 22.8309 14.5297C22.6134 14.5058 22.4619 14.3905 22.3687 14.1877C22.1123 13.1417 22.3648 12.0918 22.5706 11.1055C23.0872 8.65172 22.66 6.47234 21.2344 4.46397C21.1723 4.12991 21.2189 3.82766 21.4947 3.60097C22.3764 3.74414 22.6367 4.51567 23.0134 5.17187C23.6738 5.53775 23.4446 6.30929 23.7359 6.83425Z" fill="#E8D2A8"/>
<path d="M26.8511 6.4286C26.723 6.29338 26.5948 6.16214 26.4627 6.02692C28.2845 4.36852 30.3393 3.3027 32.9184 3.5612C32.7398 2.57093 31.4152 3.08396 31.5201 2.06188C32.6116 1.53692 33.5477 1.83519 33.7341 3.01635C33.8973 4.05434 32.9845 4.99291 32.0717 4.7185C29.9508 4.08218 28.6651 5.323 27.2435 6.43257C27.1192 6.43257 26.9832 6.4286 26.8511 6.4286Z" fill="#EDE0C7"/>
<path d="M8.97944 37.8825C7.96564 35.0349 6.55952 32.2988 6.61778 29.1451C6.66828 28.8508 6.84307 28.6638 7.1072 28.5525C7.28588 28.5246 7.46067 28.5525 7.6277 28.6241C8.41233 29.332 9.4339 29.853 9.49217 31.1296C9.3601 31.3841 9.16589 31.5591 8.88622 31.6108C7.66266 31.571 8.42787 32.4221 8.50167 32.7442C8.83183 34.168 9.70192 35.4406 9.62423 36.9876C9.51547 37.3694 9.34068 37.6955 8.97944 37.8825Z" fill="#E9D9BE"/>
<path d="M1.94884 26.2379C2.68298 26.1544 3.11414 26.6475 3.55306 27.1248C4.01918 27.9162 3.73951 28.7235 3.61133 29.5268C3.41323 29.9325 3.26562 30.3819 3.00149 30.7358C2.51595 31.3881 1.89446 31.8733 1.03214 31.5551C0.181481 31.2409 -0.043809 30.533 0.00668704 29.6621C0.0843732 28.1747 0.80297 27.081 1.94884 26.2379Z" fill="#EFC857"/>
<path d="M21.4908 3.60892C21.4908 3.90322 21.4869 4.19751 21.4869 4.48783C21.6656 4.84974 21.8171 5.2196 21.7006 5.63718C21.5724 5.9275 21.4053 6.15418 21.0402 6.04283C19.9798 6.26952 19.0748 6.96151 17.9561 7.05298C17.2763 7.10866 16.682 7.15638 16.2509 6.50813C16.3363 6.22975 16.4839 5.99908 16.7247 5.83603C17.1831 5.5815 17.7114 5.59741 18.1891 5.43038C18.7912 5.22357 19.5448 5.05654 19.6768 4.36852C19.8205 3.64472 18.799 3.75209 18.5581 3.21123C18.4572 2.92091 18.4882 2.65445 18.7057 2.42776C19.9099 2.14142 20.6712 2.94477 21.4908 3.60892Z" fill="#F5CD55"/>
<path d="M50.561 13.1974C51.2679 14.7802 51.1514 16.2756 49.99 17.58C49.3685 18.276 48.5644 18.4788 47.7254 17.9618C46.23 17.0392 46.0785 15.5796 46.2882 13.9968C46.5796 13.7701 46.3504 13.2292 46.8048 13.1059C47.1039 13.1696 47.271 13.3764 47.3797 13.6508C47.7759 14.645 47.0884 16.4983 48.6343 16.4903C49.9434 16.4864 49.5044 14.7246 49.8152 13.7303C49.8929 13.4798 49.8385 13.8099 49.8851 13.5474C50.0366 13.2769 50.2192 13.0701 50.561 13.1974Z" fill="#F0C045"/>
<path d="M13.2677 41.068C13.1706 41.8634 12.7395 41.6606 12.1918 41.5453C11.4382 41.3862 10.7546 41.7441 10.1408 42.2015C9.04547 42.5355 8.04721 43.2156 6.81588 43.0684C6.15943 42.9889 5.43695 43.0088 5.19613 42.2691C4.94365 41.4935 4.95141 40.6823 5.90695 40.3005C6.16332 40.5391 6.4158 40.7777 6.5401 41.1197C7.09167 42.0821 7.88795 41.6805 8.58713 41.4379C9.49994 41.1237 10.3428 40.6146 11.2828 40.3522C11.5547 40.2806 11.8305 40.2647 12.1063 40.3124C12.5685 40.4436 12.8987 40.7857 13.2677 41.068Z" fill="#E6D3B0"/>
<path d="M38.5002 34.3072C38.5041 34.16 38.508 34.0129 38.5157 33.8657C38.5507 33.5555 39.3081 33.9333 38.978 33.5555C38.2011 32.6726 37.0785 32.3386 35.9676 32.0284C35.4122 31.8733 34.6198 32.0045 34.5615 31.058C34.7946 30.716 35.1247 30.533 35.5054 30.4256C37.2106 30.2944 38.5235 31.0938 39.6771 32.267C39.817 32.3982 39.949 32.5414 40.0966 32.6607C40.8036 33.2334 41.7941 33.8816 40.959 34.852C40.0733 35.89 39.1256 35.4446 38.5002 34.3072Z" fill="#E6D4B5"/>
<path d="M11.3372 40.6425C9.93109 41.3424 8.6182 42.3049 6.94018 42.2412C6.06233 42.2094 5.70108 41.931 6.32646 41.0839C6.26431 40.7419 7.66655 40.9845 6.6372 40.2607C7.29365 40.1215 7.94622 39.9783 8.60266 39.8391C9.12704 40.4675 9.61647 39.5886 10.1331 39.7954C10.6613 39.8869 11.3528 39.7477 11.3372 40.6425Z" fill="#F9F3E5"/>
<path d="M21.0363 6.04283C21.1762 5.90363 21.3199 5.76046 21.4597 5.62127C21.6501 5.64115 21.8598 5.65308 21.9608 5.84796C23.1533 8.09494 22.3143 14.1877 20.5508 16.1523C20.2517 16.2796 19.9487 16.2915 19.6419 16.1682C19.0981 14.7047 20.6401 13.7422 20.5081 12.3781C20.5469 12.0043 20.6129 11.6345 20.7062 11.2725C20.881 10.3221 21.2966 9.35565 20.5391 8.46083C20.4653 8.28982 20.4925 8.13869 20.6285 8.00745C20.9936 7.40295 21.1218 6.74675 21.0363 6.04283Z" fill="#E8D1A6"/>
<path d="M23.7359 6.83425C23.4912 6.28145 23.2504 5.73262 23.0057 5.17983C23.7476 5.41049 24.1749 4.89746 24.6798 4.47988C26.3423 3.09987 28.1835 2.11756 30.3859 2.04995C30.2693 3.14759 29.2711 2.91295 28.6496 3.23111C26.8201 4.16968 24.672 4.62703 23.7359 6.83425Z" fill="#EBDBBC"/>
<path d="M38.9158 28.6877C39.0518 28.4451 39.1877 28.2025 39.3237 27.9599C39.2848 27.1526 40.019 26.5441 39.8752 25.6652C39.4907 25.9873 39.4713 26.6276 38.9042 26.7231C38.2322 26.0669 38.7294 24.8102 37.7311 24.317C37.8127 23.9869 38.0185 23.7642 38.3137 23.625C38.7138 23.4659 39.1295 23.4222 39.5528 23.4182C40.2326 23.5335 41.1338 23.2393 41.2775 24.3727C41.359 26.3135 41.258 28.1429 38.9158 28.6877Z" fill="#E5CC9B"/>
<path d="M20.6363 8.01143C20.6401 8.15858 20.6479 8.3097 20.6518 8.45685C21.1995 9.3636 20.4459 9.9164 20.0575 10.5129C19.4981 11.3759 18.7407 12.0998 18.2979 13.0542C17.7541 13.9172 17.0394 14.649 16.4723 15.5001C16.247 15.8381 15.9712 16.3114 15.4313 15.8779C15.0895 15.3171 15.1128 14.7325 15.3342 14.136C16.5033 13.0463 17.0044 11.3799 18.3484 10.4374C19.2573 9.77323 19.5681 8.51651 20.6363 8.01143Z" fill="#EBDDC1"/>
<path d="M13.66 43.3747C14.1456 43.0366 13.9902 41.9668 15.2176 42.3645C15.8119 42.5594 15.3186 41.5095 15.2293 41.0203C15.6216 40.6305 15.5323 40.0857 15.676 39.6164C15.7964 39.2307 15.9518 38.6779 16.5422 39.1949C16.6432 39.9465 16.6509 40.6902 16.3868 41.414C16.6315 42.3605 16.8801 43.311 17.1248 44.2575C16.8724 44.5041 16.6238 44.7507 16.3713 44.9973C16.0489 44.8024 16.0955 44.2058 15.5711 44.2337C15.3342 43.9672 15.0972 43.7047 14.8603 43.4383C14.3437 43.6451 14.3709 44.2536 14.0523 44.6035C13.5552 44.3132 13.6833 43.8201 13.66 43.3747Z" fill="#F9F0DD"/>
<path d="M40.8347 13.1894C42.0776 12.3821 43.2857 11.5112 44.6918 10.9981C45.6667 10.6442 46.5757 10.672 47.4535 11.2527C47.6439 11.7935 47.4186 12.1713 46.9952 12.4696C46.8126 12.5253 46.6339 12.5094 46.4591 12.4418C45.6434 11.9168 44.9093 12.2867 44.148 12.6207C43.1808 13.0463 42.334 13.7939 41.2037 13.8019C40.924 13.6985 40.7142 13.5474 40.8347 13.1894Z" fill="#ECD6AB"/>
<path d="M37.3427 8.42504C37.4747 8.16255 37.6068 7.8961 37.7389 7.63362C39.8752 7.97961 40.1394 8.42503 40.0889 11.6265C39.8403 11.8333 39.5723 11.8572 39.2809 11.7379C38.877 10.4851 37.8632 9.6062 37.3427 8.42504Z" fill="#F3D474"/>
<path d="M36.5541 28.6638C36.0764 29.0735 35.6064 29.491 35.117 29.8848C34.4294 30.4336 34.9499 30.5648 35.385 30.7358C35.117 30.8671 34.8528 30.9983 34.5848 31.1296C34.006 31.5869 33.4778 31.5631 33.0039 30.9665C33.7303 29.2365 34.8684 27.9003 36.5619 27.1009C36.7095 27.256 36.8571 27.4071 37.0047 27.5622C36.8532 27.9281 36.7018 28.298 36.5541 28.6638Z" fill="#E5CFA9"/>
<path d="M46.7233 12.4696C46.968 12.064 47.2127 11.6583 47.4535 11.2566C49.0733 10.9265 50.0987 11.5907 50.5571 13.2014C50.4173 13.3406 50.2735 13.4798 50.1337 13.619C49.3452 13.9133 49.1548 12.3463 48.2576 12.9946C48.1605 13.1258 48.0556 13.2491 47.9468 13.3684C47.6905 13.5832 47.4341 13.8099 47.069 13.611C46.9486 13.4758 46.8281 13.3445 46.7077 13.2093C46.4436 12.9548 46.4786 12.7082 46.7233 12.4696Z" fill="#F4C951"/>
<path d="M18.7058 2.43572C18.698 2.69422 18.6902 2.9567 18.6863 3.2152C18.4105 3.68051 17.8667 3.65665 17.4744 3.9072C17.288 4.04241 17.1326 4.20149 17.02 4.40829C16.7403 4.92132 17.1015 5.54173 16.7636 6.04283C16.5927 6.19793 16.4179 6.35701 16.247 6.51211C15.0157 4.81394 15.3847 3.40212 17.2647 2.82944C17.7386 2.68626 18.1425 2.23289 18.7058 2.43572Z" fill="#F1C341"/>
<path d="M41.2775 24.3767C40.7376 23.6449 39.949 24.0386 39.2732 23.9114C40.5084 22.5671 43.3672 22.587 44.7423 23.9472C44.719 24.3767 44.7695 24.83 44.3305 25.1084C43.6119 23.5614 42.3068 24.5715 41.2775 24.3767Z" fill="#EBD9B7"/>
<path d="M3.61133 29.5268C3.5919 28.7275 3.57248 27.9241 3.55306 27.1248C3.55695 26.9935 3.56083 26.8623 3.56471 26.735C5.12232 26.6555 6.53233 26.8503 7.06059 28.6957C6.91299 28.8468 6.76538 28.9939 6.61778 29.1451C6.46241 29.0297 6.29538 28.9303 6.15555 28.7991C4.92034 27.6378 3.99976 27.602 3.61133 29.5268Z" fill="#E8D1A6"/>
<path d="M46.7233 12.4696C46.7194 12.7162 46.7155 12.9588 46.7077 13.2054C46.5679 13.4678 46.4242 13.7303 46.2843 13.9968C46.1989 13.4161 46.0008 13.1457 45.4026 13.5474C44.7034 14.0167 43.9693 14.4223 43.2507 14.8598C43.0953 14.7086 42.94 14.5535 42.7885 14.3984C43.6896 12.9826 44.7345 11.8413 46.6184 12.3344L46.7233 12.4696Z" fill="#EED6A2"/>
<path d="M39.3353 11.531C39.5839 11.5629 39.8364 11.5947 40.085 11.6265C40.3064 12.1634 39.2266 13.3525 40.8347 13.1894C40.9706 13.3326 41.1027 13.4718 41.2386 13.615C41.3357 14.132 40.9823 14.1837 40.6288 14.2354C40.1277 14.1678 39.6266 14.1479 39.1178 14.1638C38.943 14.132 38.7993 14.0485 38.675 13.9212C38.3409 13.3247 37.8243 12.7798 38.1312 11.9964C38.2555 11.9964 38.3837 12.0003 38.508 12.0003C39.11 12.4458 39.1023 11.7697 39.3353 11.531Z" fill="#F1E4CD"/>
<path d="M37.3465 2.45958C37.3776 2.77774 37.4048 3.09192 37.7505 3.23906C37.8437 3.34644 37.8787 3.45382 37.8515 3.56518C37.8243 3.67653 37.7971 3.73221 37.7661 3.73221C36.5153 4.03446 36.8688 5.82012 35.6374 6.14225C35.1752 5.93545 35.1558 5.60536 35.3889 5.20369C35.587 3.95492 36.3599 3.13169 37.3465 2.45958Z" fill="#EBD69E"/>
<path d="M35.385 5.20767C35.416 5.53378 35.4627 5.85193 35.7812 6.0309C36.0531 7.24785 35.688 8.18642 34.6081 8.8108C33.9128 8.27391 34.4683 7.74497 34.6198 7.21604C34.7946 6.51211 34.8956 5.78433 35.385 5.20767Z" fill="#E7D6B3"/>
<path d="M8.97944 37.8825C9.00663 37.5603 9.04547 37.2422 9.36398 37.0632C10.3428 37.62 11.0265 38.3915 11.108 39.5965C10.2069 40.5987 10.0476 39.6363 9.74076 39.0557C9.48828 38.6659 9.23192 38.2722 8.97944 37.8825Z" fill="#E5D1AC"/>
<path d="M9.74076 39.0557C10.1797 39.0596 10.2574 40.2885 10.9488 39.4295C11.8072 39.338 12.1879 39.7437 12.118 40.6146C11.8577 40.6226 11.5975 40.6305 11.3372 40.6425C10.9177 40.0499 10.2846 40.2845 9.73299 40.209C9.54655 39.9346 9.10374 40.1573 8.96002 39.7954C9.22027 39.5488 9.48051 39.3022 9.74076 39.0557Z" fill="#F1E6CC"/>
<path d="M8.64927 16.3193C8.50944 16.4704 8.3696 16.6176 8.22976 16.7687C7.41018 16.6613 6.82753 16.1165 6.2177 15.6234C6.07786 15.174 6.37307 14.9751 6.67993 14.7842C7.66266 14.8558 8.13266 15.6154 8.64927 16.3193Z" fill="#ECD7A2"/>
<path d="M22.2133 40.6305C21.6889 40.5073 21.2228 42.2412 20.6557 40.6823C21.0519 40.0976 21.518 39.7715 22.2016 40.2368L22.2249 40.2607C22.2327 40.384 22.2288 40.5073 22.2133 40.6305Z" fill="#E9D7B9"/>
<path d="M15.5672 44.2337C15.6216 44.007 15.6682 43.6173 15.9168 43.7127C16.4878 43.9314 16.3519 44.5121 16.3674 44.9973C15.843 45.0331 15.6294 44.7149 15.5672 44.2337Z" fill="#EBD8B7"/>
<path d="M12.0053 12.7321C12.3161 12.3264 12.6229 12.3304 12.922 12.748C12.7977 13.2889 13.0813 13.949 12.4831 14.3507C12.4559 13.7701 12.6462 13.1218 12.0053 12.7321Z" fill="#FBF9F2"/>
<path d="M6.67993 14.7802C6.55952 15.0546 6.4391 15.3291 6.32257 15.6035C6.41579 15.7466 6.40026 15.8739 6.26043 15.9813C6.00795 15.4643 5.75935 14.9473 5.50687 14.4303C5.89918 14.5496 6.28762 14.6649 6.67993 14.7802Z" fill="#F5D062"/>
<path d="M6.6372 40.2567C6.80034 40.4436 7.13051 40.6743 7.09555 40.8135C7.00232 41.1993 6.59447 41.0084 6.32257 41.0839C6.01571 40.9169 5.89918 40.6425 5.90307 40.3044C6.14778 40.2885 6.39249 40.2726 6.6372 40.2567Z" fill="#DDCAA0"/>
<path d="M14.0485 44.6075C14.1339 44.0865 13.7649 43.2315 14.8564 43.4423C14.7942 43.9792 14.569 44.4007 14.0485 44.6075Z" fill="#EDE0C8"/>
<path d="M8.96002 39.7954C9.25911 39.8511 9.57762 39.8749 9.73299 40.209C9.44555 39.8033 8.52886 41.3941 8.60655 39.8352C8.72308 39.8272 8.84349 39.8153 8.96002 39.7954Z" fill="#DFCDA5"/>
<path d="M9.39506 31.0818C8.73861 30.2984 8.07828 29.5189 7.42183 28.7354C7.17323 27.9559 7.29753 27.5503 8.19869 27.9201C8.72307 28.3298 9.24357 28.7394 9.76795 29.149C10.5448 30.3302 11.3178 31.5114 12.0947 32.6925C13.1162 33.6987 12.8599 35.1344 13.2599 36.3513C13.2716 37.1388 13.3726 37.9461 13.2289 38.7136C13.0347 39.7516 12.4986 39.6164 11.9354 38.9443C11.0304 36.3474 10.5021 33.6152 9.39506 31.0818Z" fill="#FDFAF0"/>
<path d="M6.26043 15.9813C6.27985 15.854 6.29926 15.7307 6.32257 15.6035C7.15381 15.6591 7.79084 16.0449 8.23365 16.7647C8.68812 17.9061 9.14258 19.0475 9.67473 20.3838C10.8167 18.5822 11.8461 16.9517 12.8793 15.3171C12.9453 18.2243 9.49994 19.9662 10.9022 23.1677C10.37 23.8477 11.6557 25.1005 10.2069 25.4902L10.1253 25.526C10.0942 24.9772 10.3584 24.4005 9.96994 23.8875C9.7796 24.0426 9.59316 24.1977 9.40283 24.3568C8.85514 23.8278 9.09597 23.2472 9.36398 22.7222C9.6825 22.0979 9.55432 21.732 8.89399 21.557C8.65704 21.2866 8.5677 20.9485 8.47448 20.6145C8.20258 19.8747 7.79472 19.1947 7.55001 18.443C7.39464 17.7192 7.10332 17.0869 6.43522 16.7051C6.37695 16.4665 6.31869 16.2239 6.26043 15.9813Z" fill="#F8F2E1"/>
<path d="M12.9181 10.8748C13.8309 10.9425 14.0096 11.8015 14.4563 12.3702C16.1266 15.0069 15.3264 17.5045 14.0523 19.9742C13.1473 20.0895 13.3182 19.0992 12.8599 18.7532C14.3009 16.5898 14.5884 14.3587 13.2133 12.0401C12.8366 11.7259 12.9453 11.2805 12.9181 10.8748Z" fill="#FBF6E7"/>
<path d="M12.8599 18.7532C14.2971 18.3396 13.4037 19.5446 13.6561 19.9543C13.796 20.1173 13.8465 20.3042 13.8076 20.515C13.6212 21.211 13.3842 21.899 13.0424 22.5314C12.7666 23.0444 12.4559 23.629 11.7101 23.1478C10.6264 21.2826 11.8888 20.0577 12.8599 18.7532Z" fill="#FEFDFA"/>
<path d="M15.171 30.2745C14.2349 31.6187 15.4235 33.3368 14.4369 34.6691C14.367 33.8498 14.5651 33.0107 14.1999 32.2073C13.7804 31.2807 13.5823 32.271 13.2755 32.2829C13.5008 30.3978 12.8909 28.5763 12.8832 26.7072C12.9686 26.6873 13.0502 26.6714 13.1357 26.6515C13.7455 26.9975 13.6756 27.6935 13.9203 28.2264C14.0718 28.5962 14.1456 29.0098 14.534 29.2246C14.8292 29.3161 15.1749 29.2922 15.3652 29.6143C15.4274 29.8728 15.3963 30.1035 15.171 30.2745Z" fill="#F7EBD2"/>
<path d="M10.2069 25.4982C10.9488 24.8817 10.1447 23.7841 10.9022 23.1716C11.6013 24.7982 11.5392 26.4964 11.3333 28.2065C11.2789 28.6599 11.2828 29.2763 10.6885 29.2087C10.1486 29.149 10.1525 28.5406 10.1564 28.0752C10.1642 27.2162 10.1875 26.3572 10.2069 25.4982Z" fill="#FBF9F0"/>
<path d="M11.714 23.1478C13.2133 22.8177 12.6501 21.0201 13.6367 20.3241C13.9941 20.515 14.1495 20.8451 14.231 21.2269C14.1495 22.2291 13.8776 23.2035 13.8154 24.2136C13.1512 24.7624 12.6695 24.1341 12.1218 23.9432C11.982 23.6767 11.8461 23.4142 11.714 23.1478Z" fill="#F1E4CB"/>
<path d="M12.9104 36.236C12.6385 35.0548 12.3666 33.8737 12.0947 32.6965C12.7822 31.8772 12.8482 33.0027 13.2483 33.0823C13.2677 33.8697 13.2833 34.6532 13.3027 35.4406C13.458 35.8502 13.6523 36.2837 12.9104 36.236Z" fill="#E0CAA7"/>
<path d="M12.118 23.9392C12.79 23.4023 13.159 24.1261 13.6561 24.325C13.9164 24.6391 13.8737 24.9215 13.5707 25.176C13.0152 25.534 13.4658 26.3691 12.8754 26.7151L12.8832 26.7111C12.2228 25.9038 12.0869 24.9454 12.118 23.9392Z" fill="#FAF2DF"/>
<path d="M24.136 10.7953C23.934 10.2743 23.4524 9.75334 24.1205 9.22441C24.1904 9.63403 24.2758 10.0397 24.8352 9.82493C25.3751 9.61812 25.8956 9.35962 26.4433 9.17668C27.3367 8.87443 28.4515 8.25402 29.0069 9.42325C29.6245 10.7197 28.032 10.4533 27.5309 10.9782C26.7035 11.8413 25.647 12.4815 24.5944 13.2849C25.2353 13.5752 25.6742 13.7741 26.1131 13.9769C24.4662 14.8478 24.2487 14.8478 23.3708 13.9888C23.4252 13.444 23.1999 12.8315 23.7243 12.3941C24.8624 11.9924 25.4411 10.7317 26.6647 10.4692C25.8218 10.668 25.0799 11.4237 24.136 10.7953Z" fill="#EADABA"/>
<path d="M23.3708 13.9848C24.2875 14.5376 25.1964 13.7104 26.1131 13.9729C26.2335 13.9848 26.354 14.0007 26.4744 14.0206C26.991 14.2155 27.1658 14.6052 27.0881 15.1421C26.9871 15.516 26.8162 15.8421 26.5016 16.0727C26.3268 16.1165 26.1559 16.1006 25.9966 16.0091C25.3868 15.3489 24.7692 14.2593 24.202 16.0489C23.868 16.7608 23.6777 17.8783 22.6367 16.6454C22.4153 15.8461 22.4114 15.0865 22.9785 14.4144C23.1067 14.2712 23.2387 14.128 23.3708 13.9848Z" fill="#F0DA9F"/>
<path d="M26.8162 15.2535C26.6997 14.8439 26.587 14.4303 26.4705 14.0206C26.7191 13.8695 26.9677 13.7224 27.2124 13.5712C27.5425 13.5951 27.8533 13.6548 28.0281 13.9928C27.9465 14.5933 27.6863 15.1421 27.5192 15.7188C27.4299 15.8819 27.3056 16.0012 27.1347 16.0727C26.6569 15.9574 26.6142 15.6552 26.8162 15.2535Z" fill="#EAD9B6"/>
<path d="M22.2016 40.2328C21.685 40.38 21.1723 40.5311 20.6557 40.6783C20.1119 40.8533 19.8594 41.239 19.8827 41.8197C19.7506 41.9986 19.6147 41.9907 19.4748 41.8276C18.9854 41.5572 17.8473 41.9429 18.3562 40.6624C18.6397 40.042 19.1952 39.7636 19.7545 39.4852C20.3216 39.2784 20.881 39.0477 21.3937 38.7176C22.6794 37.9302 23.6233 36.749 24.6293 35.6633C26.016 34.1719 27.6164 33.0146 29.3721 32.0522C29.5546 32.0323 29.7333 32.0522 29.9042 32.1119C30.2499 32.3346 30.3548 32.6726 30.3431 33.0663C27.6319 35.4605 24.9168 37.8467 22.2016 40.2328Z" fill="#FBF7EA"/>
<path d="M19.8788 39.8511C19.37 40.1215 18.865 40.3919 18.3562 40.6624C18.2047 40.6504 18.0532 40.6385 17.9017 40.6305C17.8862 39.0915 19.7467 38.7972 19.9448 37.3973C20.2556 36.6377 20.5741 35.886 21.0441 35.2099C21.4325 34.6611 21.8248 34.1163 22.5706 34.0646C22.8775 34.1163 23.0795 34.2952 23.1805 34.5935C23.2038 34.7844 23.1882 34.9753 23.13 35.1582C21.7549 36.5144 21.6306 38.7733 19.8788 39.8511Z" fill="#E5D2B2"/>
<path d="M20.2789 37.4569C20.2789 39.1352 18.5077 39.4255 17.9056 40.6305C16.9462 41.072 17.2064 40.3005 17.1559 39.8391C17.086 38.2126 18.7057 37.9819 19.4049 36.9916C19.84 36.8683 20.1119 37.0553 20.2789 37.4569Z" fill="#F8F2E2"/>
<path d="M19.471 37.0552C19.2651 38.475 17.5754 38.6023 17.1598 39.8391C16.5267 40.1692 17.0161 41.0799 16.3868 41.414C16.3752 40.6226 16.3635 39.8312 16.3519 39.0437C15.9207 38.4353 16.2353 37.9501 16.6043 37.4808C16.884 37.2899 17.1132 37.3853 17.3113 37.62C17.4045 37.791 17.4472 37.9739 17.4433 38.1728C17.5871 38.1211 17.5599 37.962 17.6259 37.8626C17.9134 37.4251 18.2552 37.0592 18.7446 36.8524C19.0204 36.7967 19.269 36.8405 19.471 37.0552Z" fill="#E3CDA9"/>
<path d="M19.4787 41.8276C19.6147 41.8236 19.7506 41.8236 19.8866 41.8197C20.8305 42.3049 21.9336 42.456 22.66 43.4303C21.3121 43.5894 20.2478 43.0684 19.4787 41.8276Z" fill="#FCF9EF"/>
<path d="M17.2336 41.4776C17.7153 42.452 18.0338 43.1003 18.4533 43.9513C17.253 43.2474 17.253 43.2474 17.2336 41.4776Z" fill="#FBF5E3"/>
<path d="M30.347 33.0703C30.0363 32.8953 29.9741 32.5971 29.9664 32.271C29.745 31.909 29.9159 31.5829 30.0518 31.2568C30.4325 30.5171 31.1977 30.191 31.7298 29.6143C32.4873 28.6161 33.7885 28.1747 34.3129 26.9378C34.5304 26.4805 35.1247 26.6475 35.3889 26.2657C35.7617 25.5658 36.4065 25.3948 37.1018 25.18C37.3621 26.0589 36.7406 26.5043 36.558 27.0929C35.4044 28.298 34.4722 29.7257 33.0738 30.6841C32.9417 31.0779 32.6621 31.3165 32.3047 31.4795C31.6483 32.0125 30.9996 32.5414 30.347 33.0703Z" fill="#F9F6EC"/>
<path d="M32.3008 31.4835C32.5572 31.2171 32.8136 30.9546 33.0699 30.6881C33.4545 31.2688 34.0604 31.0421 34.5809 31.1256C36.2434 31.7341 38.1195 31.8255 39.4363 33.2851C39.7393 33.6191 40.6832 33.5237 40.3336 34.2555C39.984 34.9952 39.4751 34.2157 39.0362 34.1083C38.8537 34.0646 38.6866 33.9453 38.5118 33.8617C37.1018 32.947 35.5481 32.4141 33.8934 32.3346C33.167 32.3028 32.7398 31.9528 32.3008 31.4835Z" fill="#F9F4E8"/>
<path d="M40.4423 13.9848C40.7647 13.9888 41.0561 13.9212 41.2386 13.615C42.369 13.0343 43.4721 12.3821 44.6413 11.8969C45.3094 11.6185 46.2222 10.9862 46.6145 12.3344C45.0258 12.4179 44.0547 13.7025 42.7846 14.3984C41.359 15.1859 39.9335 15.9733 38.508 16.7608C37.467 17.759 36.3133 18.5424 34.8761 18.8049C33.9245 18.7493 33.2136 18.4072 33.1865 17.2817C33.2603 16.8204 33.5555 16.55 33.9555 16.383C35.82 15.9892 37.4126 14.8995 39.1683 14.2235C39.5723 14.0246 39.9335 13.5792 40.4423 13.9848Z" fill="#F8F2E5"/>
<path d="M35.016 18.3635C36.2822 18.0612 37.1756 16.9079 38.508 16.7568C38.508 16.892 38.508 17.0272 38.5118 17.1624C37.6922 18.3834 37.6922 18.3834 38.5468 19.9065C38.5313 20.0696 38.5196 20.2327 38.5041 20.3917C36.6124 20.6582 34.6353 19.8628 32.798 20.861C31.9979 20.9962 31.2171 21.3661 30.382 21.0678C30.0829 20.9286 29.8731 20.7258 29.8693 20.3639C31.2948 18.9203 33.1748 18.6896 35.016 18.3635Z" fill="#E6D0AA"/>
<path d="M44.7423 23.9472C42.9244 23.2472 41.1027 23.3069 39.2732 23.9114C38.8925 23.9193 38.5118 23.9273 38.1273 23.9352C37.1912 24.142 38.2128 23.112 37.6185 23.0921C37.5913 22.9251 37.6301 22.7779 37.7272 22.6467C37.8865 22.5671 38.0185 22.6029 38.1273 22.7461C39.9685 22.6666 41.8019 21.8592 43.6508 22.7103C44.2101 22.9688 44.9753 22.929 45.0608 23.8159C44.9715 23.8915 44.8627 23.9352 44.7423 23.9472Z" fill="#F9F3E1"/>
<path d="M32.7048 20.3917C34.6392 19.5924 36.5736 19.5287 38.508 20.3917C38.4342 21.0718 39.145 21.2627 39.4052 21.8752C38.9352 21.9149 38.5235 21.9507 38.1118 21.9825C37.2844 22.253 36.6629 21.6246 35.9327 21.4615C35.148 21.1593 34.3323 21.3502 33.5322 21.2945C33.0155 21.2667 32.2503 21.382 32.7048 20.3917Z" fill="#FBF9F3"/>
<path d="M38.5468 19.9065C38.1467 18.8527 37.0708 19.3498 36.2589 18.8884C36.7911 17.9499 37.867 17.8266 38.5157 17.1624C40.5045 16.9318 39.4635 18.4947 39.6228 19.2504C39.8053 20.1372 39.3819 20.5071 38.5468 19.9065Z" fill="#FBF7EF"/>
<path d="M36.1735 21.0996C36.8183 21.3939 37.4631 21.6882 38.1118 21.9825C38.1156 22.2371 38.1234 22.4876 38.1312 22.7421C38.0185 22.762 37.902 22.7739 37.7855 22.7779C37.3932 23.0603 37.028 22.9291 36.6668 22.7024C36.3133 22.428 35.9055 22.245 35.5481 21.9825C35.2646 21.7757 34.7829 21.557 35.1247 21.1195C35.3694 20.8133 35.8161 20.9286 36.1735 21.0996Z" fill="#E5CEA3"/>
<path d="M37.7156 3.65665C37.7272 3.51745 37.7389 3.38223 37.7466 3.24304C37.9913 2.98056 38.2361 2.72206 38.4808 2.45958C38.9585 2.15335 39.514 1.93064 39.6771 1.28637C40.4462 0.586423 41.227 0.729595 41.8834 1.39375C42.5399 2.0579 42.668 2.85727 42.0077 3.64869L42.0116 3.65267C40.5744 3.15555 39.2227 3.70039 37.8515 4.0106C37.7855 4.01855 37.7194 4.03446 37.6534 4.05037C37.533 3.89526 37.5524 3.76402 37.7156 3.65665Z" fill="#FCDF6E"/>
<path d="M39.681 1.28637C39.9451 2.26868 39.7976 2.41185 38.4847 2.45958C38.7721 1.94655 38.8692 1.23467 39.681 1.28637Z" fill="#FCF7D9"/>
<path d="M42.0077 3.65267C41.7669 4.15774 41.429 4.47988 40.7492 4.3725C41.0522 3.77595 41.5377 3.72426 42.0077 3.65267Z" fill="#FCDF6E"/>
<path d="M37.735 23.1359C38.6556 22.9927 37.7194 23.8119 38.1312 23.9352C37.9991 24.0625 37.8632 24.1937 37.7311 24.321C33.9478 25.1919 30.6617 27.077 27.6358 29.495C27.1852 30.9267 25.8606 31.4199 24.8313 32.2272C23.8874 32.6686 23.5339 33.818 22.559 34.2276C22.1783 34.6372 21.7977 35.0429 21.4131 35.4525C21.0752 35.6037 20.9237 35.3809 20.7955 35.1185C20.7217 34.8401 20.7411 34.5657 20.8421 34.2992C21.1101 33.7146 21.6034 33.305 21.9647 32.7919C23.2504 30.8273 25.1654 29.4473 26.5754 27.594C27.092 27.0253 27.7212 26.6077 28.3621 26.2021C30.483 25.0766 32.5689 23.8636 34.9072 23.2591C35.8356 23.0205 36.7756 22.7382 37.735 23.1359Z" fill="#FCFAF2"/>
<path d="M24.5478 31.8971C25.5771 31.0977 26.6064 30.2944 27.6358 29.495C27.7678 29.6263 27.896 29.7615 28.0281 29.8927C28.3272 30.1671 28.6185 29.8967 28.9137 29.8848C29.4536 29.8251 30.013 29.8649 30.4869 29.5149C30.7821 29.328 31.0889 29.2127 31.4424 29.3081C31.7026 29.4195 31.8619 29.6104 31.9124 29.8967C31.3841 30.4018 30.8598 30.9108 30.3315 31.4159C28.3699 30.9784 26.8045 32.5493 24.9284 32.5374C24.6526 32.4181 24.439 32.259 24.5478 31.8971Z" fill="#E3CEAB"/>
<path d="M28.8166 30.2586C28.4864 30.2864 28.1718 30.2864 28.0281 29.8967C29.2827 29.1928 30.5335 28.4849 31.792 27.7889C32.2542 27.5344 32.7281 27.3713 33.1204 27.9201C33.0816 28.9661 32.2348 29.1649 31.524 29.5109C31.2093 29.5348 30.9025 29.5785 30.7238 29.8967C30.1528 30.3501 29.3993 29.841 28.8166 30.2586Z" fill="#FAF8F1"/>
<path d="M38.9042 26.7231C39.4441 26.0868 38.9469 24.9295 39.9374 24.5357C40.0423 24.496 40.3414 24.671 40.3724 24.7942C40.6249 25.8163 40.3647 26.743 39.7587 27.5742C39.6461 27.7293 39.4713 27.8327 39.3237 27.9599C38.3526 27.8446 38.6206 27.2878 38.9042 26.7231Z" fill="#F8F0DC"/>
<path d="M31.5279 29.5109C31.8036 28.7116 32.7631 28.632 33.1204 27.9201C33.369 27.6656 33.6176 27.4111 33.8662 27.1605C34.107 26.914 34.3595 26.8742 34.6275 27.1168C33.9245 28.2502 32.9417 29.1013 31.9085 29.9007C31.7842 29.7694 31.656 29.6382 31.5279 29.5109Z" fill="#DFC9A6"/>
<path d="M34.6275 27.1128C34.3751 27.1287 34.1226 27.1407 33.8662 27.1566C33.6021 25.4783 34.981 26.7469 35.385 26.2697C35.1364 26.5521 34.8839 26.8305 34.6275 27.1128Z" fill="#FAF6E8"/>
<path d="M9.3601 10.7158C10.067 10.2743 10.774 10.2465 11.4887 10.6919C10.875 11.3242 11.1197 12.4975 10.0515 12.8951C9.42613 13.1258 8.93671 13.8973 8.25307 13.0304C7.63158 12.2429 8.05497 11.7259 8.66481 11.2447C9.18919 11.4793 9.44556 11.3362 9.3601 10.7158Z" fill="#FBE078"/>
<path d="M9.3601 10.7158C9.56209 10.8271 9.95052 10.9822 9.93498 11.0498C9.83787 11.5032 9.51159 11.8293 9.06878 11.889C8.61043 11.9526 8.68035 11.535 8.66093 11.2407C8.89398 11.0657 9.12704 10.8908 9.3601 10.7158Z" fill="#FCF5D2"/>
<path d="M37.7156 3.65665C37.6961 3.78789 37.6728 3.9231 37.6534 4.05434C36.8649 5.99908 35.5753 7.78077 35.8084 10.0556C36.1308 10.8908 35.9948 11.5907 35.2179 12.0918C35.0043 11.881 34.7169 11.7896 34.6703 11.9128C34.1653 13.2014 33.3612 14.2593 32.3319 15.1541C31.7454 15.4881 31.1006 15.7705 30.6655 15.0348C30.3082 14.4263 30.7859 13.9212 31.1666 13.4917C31.59 13.0105 32.0173 12.5054 32.7126 12.4378C33.7225 11.4396 33.975 10.0238 34.6081 8.81875C34.9965 7.89212 35.3889 6.96549 35.7812 6.03885C36.3056 5.13608 36.2473 3.74414 37.7156 3.65665Z" fill="#F8F2E4"/>
<path d="M29.2555 13.5474C29.2439 13.1497 27.5387 13.3843 28.8982 12.4338C29.7294 11.8532 30.2926 10.8947 31.388 10.6641C31.8852 10.5607 32.4679 10.2027 32.8213 10.6641C33.2331 11.2049 32.4135 11.5271 32.3319 12.0202C31.2793 14.2155 30.65 14.5257 29.2555 13.5474Z" fill="#FDFCF9"/>
<path d="M29.2555 13.5474C30.9374 14.4223 31.4812 12.9031 32.328 12.0202C32.4562 12.1554 32.5883 12.2946 32.7165 12.4298C32.3358 12.8753 31.9474 13.3167 31.5706 13.7661C31.2909 14.1002 30.6694 14.4064 30.9452 14.8677C31.322 15.5001 31.8464 14.9632 32.2892 14.7643C32.5261 14.9552 32.6155 15.2177 32.6388 15.508C32.6349 15.6949 32.5999 15.8739 32.5378 16.0489C31.9512 16.8045 31.0501 16.0728 30.3936 16.5182C29.9275 16.4187 29.5663 16.1881 29.4148 15.6949C29.4808 14.8797 28.8477 14.4899 28.4165 13.9769C28.5991 13.6349 28.9331 13.6031 29.2555 13.5474Z" fill="#EAD9B6"/>
<path d="M28.4204 13.9809C29.3371 14.1161 30.5063 14.0803 29.4536 15.5637C28.735 16.2398 28.0126 16.6852 27.2784 15.5836C27.1347 14.8558 27.3406 14.303 28.0281 13.9928C28.1602 13.9888 28.2883 13.9848 28.4204 13.9809Z" fill="#FCF8F0"/>
<path d="M46.9874 25.1681C47.3137 25.3311 47.4341 25.6175 47.4419 25.9714C47.4652 26.9696 47.6205 28.111 46.4553 28.5048C45.7133 28.7553 45.2511 28.0235 45.1773 27.3514C45.0414 26.1265 44.8122 24.7744 46.3038 24.15C46.5252 24.0585 46.6456 24.4642 46.6689 24.7346C46.5485 24.8976 46.5174 25.0607 46.6728 25.2158C46.7738 25.3113 46.8864 25.2874 46.9874 25.1681Z" fill="#FDDF6D"/>
<path d="M46.9874 25.1681C46.9719 25.4226 47.0224 25.705 46.9291 25.9197C46.8126 26.1822 46.5873 26.0032 46.4824 25.8601C46.1639 25.4306 46.1406 25.0249 46.6728 24.7306C46.7738 24.8778 46.8825 25.0249 46.9874 25.1681Z" fill="#FDF8CF"/>
<path d="M12.118 40.6146C11.8266 40.1175 11.4576 39.6999 10.9488 39.4295C10.4205 38.6421 9.89225 37.8506 9.36398 37.0632C8.99109 34.8321 7.58886 32.8755 7.66654 30.5052C8.5444 30.3541 8.50555 31.2369 8.9406 31.5471C10.3972 32.9908 10.2185 35.1582 11.1585 36.8445C11.4615 37.3853 11.613 38.0535 11.8111 38.6739C12.0675 39.2664 12.6773 39.6045 12.8832 40.2328C13.0113 40.5112 13.1395 40.7896 13.2677 41.068C12.8832 40.9169 12.5025 40.7658 12.118 40.6146Z" fill="#FDFAF2"/>
<path d="M12.8793 40.2328C12.4753 39.8471 12.0752 39.4613 11.6713 39.0716C11.7256 38.8131 11.881 38.654 12.1335 38.6023C12.4054 38.5705 12.619 39.5647 12.8404 38.7654C13.058 37.9779 12.9026 37.0791 12.9065 36.232C13.0347 35.9656 13.1667 35.6991 13.2949 35.4366C14.0252 36.6456 13.5124 38.0734 13.963 39.3619C14.2388 40.1374 13.4852 40.2408 12.8793 40.2328Z" fill="#EAD8B9"/>
<path d="M5.04075 15.2495C5.53017 16.6454 4.53579 18.8884 3.25008 19.0396C2.22463 19.1589 1.90611 18.5265 2.35669 17.5601C3.27727 16.8164 3.97257 15.8063 5.04075 15.2495Z" fill="#FCDE6D"/>
<path d="M5.04075 15.2495C4.37265 16.2955 3.67736 17.3056 2.35669 17.5601C2.83058 16.2716 3.50257 15.2336 5.04075 15.2495Z" fill="#FCEFB0"/>
<path d="M6.43522 16.7091C7.70927 16.5301 7.53836 17.6715 7.86853 18.3555C8.02779 18.7771 8.23753 19.4015 7.71315 19.489C6.94018 19.6202 7.48787 18.6379 7.07224 18.3595C6.96737 17.7113 6.74596 17.1863 5.96133 17.2619C6.1167 17.0789 6.27596 16.892 6.43522 16.7091Z" fill="#E4CD98"/>
<path d="M7.43348 26.3373C6.22158 25.6771 6.8353 24.5119 6.69546 23.5574C7.21985 22.6586 6.41968 21.6007 7.02951 20.694C7.29753 20.2963 7.56943 19.8469 8.05497 19.9463C8.59489 20.0537 8.55993 20.6224 8.58324 21.0798C8.58324 21.3064 8.56382 21.5331 8.52886 21.7558C8.27638 22.7222 8.4434 23.7165 8.33464 24.6908C8.26472 25.3431 8.48224 26.222 7.43348 26.3373Z" fill="#FBF7EB"/>
<path d="M7.43348 26.3373C8.17538 25.5022 7.7015 24.484 7.8258 23.5534C7.91514 22.8694 7.61604 22.1177 8.17927 21.5212C8.692 23.0285 8.25307 24.5278 8.41233 25.8243C8.46671 25.2317 8.35018 24.3806 8.43563 23.5574C8.49778 22.9768 8.05498 22.2092 8.91341 21.8553C9.86506 22.9648 8.68812 24.3449 9.35622 25.4862C9.30184 26.0987 9.69415 26.9696 9.08043 27.252C8.42787 27.5582 7.82191 26.9657 7.43348 26.3373Z" fill="#F5E9D1"/>
<path d="M8.19869 27.9201C7.67042 27.9241 7.45679 28.2383 7.42183 28.7354C7.30141 28.7195 7.18101 28.7076 7.06059 28.6957C6.22158 27.435 4.75331 27.3435 3.56471 26.731C3.92984 25.8481 4.54745 25.9158 5.28935 26.1902C6.3653 26.5918 7.33249 27.1566 8.19869 27.9201Z" fill="#FAF4E4"/>
<path d="M8.23365 21.1553C8.20646 20.9008 8.2725 20.5627 8.13654 20.4076C7.78696 20.006 7.66654 20.4594 7.48398 20.6701C6.76926 21.5013 7.38687 22.7183 6.68769 23.5534C6.59059 22.9967 6.85472 22.3444 6.26042 21.9229C6.19439 20.6542 7.29365 19.66 7.06836 18.3516C7.27034 18.6459 7.47233 18.9362 7.67431 19.2305C7.73646 18.9362 7.80249 18.6419 7.86464 18.3476C8.23365 19.0237 8.60266 19.6997 8.97167 20.3758C8.66092 20.5707 8.96002 21.378 8.23365 21.1553Z" fill="#F1E2C2"/>
<path d="M9.3601 25.4862C8.59878 24.3727 9.18531 23.112 8.98721 21.9348C8.87456 21.7877 8.90175 21.6684 9.04936 21.5649C9.2863 21.386 9.62035 21.0002 9.74465 21.0639C10.1991 21.2866 10.2263 21.7916 10.1137 22.241C9.93498 22.9648 9.18531 23.4938 9.40671 24.3608C9.39118 24.7346 9.37564 25.1124 9.3601 25.4862Z" fill="#FCFAF4"/>
<path d="M32.2814 16.0449C32.2892 15.8978 32.2969 15.7506 32.3086 15.5995C33.2641 14.4342 33.6798 12.8395 35.0587 12.0123C35.5287 11.4475 35.6219 10.7277 35.8122 10.0476C36.9154 10.8072 36.2822 12.2509 36.9853 13.1656C37.9525 14.2115 37.3815 14.9711 36.4532 15.4802C35.3384 16.0926 34.1226 16.4585 32.8213 16.3631C32.6077 16.3193 32.429 16.208 32.2814 16.0449Z" fill="#FBFAF7"/>
<path d="M32.6077 16.0688C33.6642 15.8421 34.7402 15.6751 35.7734 15.3688C36.8144 15.0626 37.3893 14.3706 36.9814 13.1735C37.2961 13.0105 37.3427 12.7082 37.366 12.3941C38.4342 12.3503 37.9447 13.8655 38.8692 13.9689L38.9119 13.9968C39.0712 14.1081 39.2848 14.1638 39.3042 14.4144C37.7233 15.4961 36.0725 16.4148 34.1692 16.7449C33.738 16.3034 32.798 17.0909 32.6077 16.0688Z" fill="#F1E4CD"/>
<path d="M39.3353 11.531C39.2926 11.8293 39.2499 12.1316 39.2071 12.4298C38.9741 12.2867 38.741 12.1435 38.5041 12.0003C38.7332 10.9027 38.0846 10.334 37.2922 9.81697C36.5813 9.35565 36.0686 8.84659 37.3349 8.42901C38.9469 8.83069 38.9818 10.2863 39.3353 11.531Z" fill="#F9F5E4"/>
<path d="M38.8692 13.965C36.9076 14.8995 38.2671 12.5134 37.366 12.3901C37.2689 11.9844 37.1718 11.5748 37.0669 11.1254C37.7311 11.1055 37.867 11.6305 38.1312 11.9964C38.3526 12.6605 38.8925 13.2054 38.8692 13.965Z" fill="#FAF6EA"/>
<path d="M15.171 30.2745C15.1827 30.016 15.1943 29.7575 15.206 29.499C15.07 29.3439 15.004 29.161 15.0118 28.9502C15.1438 28.0593 15.0584 27.1566 15.1671 26.2657C15.2254 25.9595 15.3381 25.6851 15.5672 25.4703C16.4684 25.4624 16.0411 26.222 16.2043 26.6356C16.2703 26.1862 15.9013 25.53 16.7403 25.4504C17.824 26.8503 16.5111 28.3576 16.9229 29.7853C17.1365 28.978 17.1287 28.0792 17.8434 27.4787C18.5581 27.3475 18.5543 27.8724 18.6125 28.3497C18.5387 28.8865 18.4339 29.4274 18.5387 29.9762C18.5426 30.1632 18.5154 30.3461 18.4649 30.529C17.6881 32.6209 16.2936 34.4384 15.909 36.7013C15.5944 37.5166 15.8352 38.4472 15.4041 39.2346C15.3342 39.2983 15.2604 39.3619 15.1866 39.4255C14.468 38.2682 14.6738 36.9359 14.8991 35.7866C15.2643 33.9373 15.1671 32.1119 15.171 30.2745Z" fill="#E1C9A1"/>
<path d="M15.5672 36.6098C15.8469 34.2157 17.0976 32.259 18.3134 30.2944C19.3583 29.849 19.3311 30.6006 19.2923 31.2568C19.2534 31.8971 18.966 32.4817 18.7951 33.0942C18.1542 34.5617 17.925 36.228 16.7986 37.4609C16.6509 37.9859 16.5033 38.5148 16.3519 39.0437C15.5828 39.4693 16.5072 40.901 15.2293 41.0203C15.2176 40.4874 15.2021 39.9584 15.1904 39.4255L15.2254 39.4454C15.7032 38.5426 15.1438 37.5166 15.5672 36.6098Z" fill="#FBF9EF"/>
<path d="M14.0329 21.1315C13.7105 20.9604 13.6678 20.6463 13.6367 20.3241C13.6484 20.2008 13.6561 20.0776 13.66 19.9543C14.8253 17.5243 15.5284 15.0427 14.4602 12.3702C14.7088 12.2469 14.9574 12.1236 15.206 12.0003C15.3419 12.6565 15.4779 13.3167 15.6138 13.9729C15.6216 14.6569 15.6333 15.341 15.641 16.025C16.2353 16.8244 15.7109 17.58 15.5556 18.3516C15.0545 19.2822 15.206 20.5906 14.0329 21.1315Z" fill="#E3D2B1"/>
<path d="M17.9405 27.5264C17.455 28.7116 17.758 30.1711 16.6005 31.3324C15.909 29.2723 16.8296 27.4031 16.7714 25.522C16.4567 24.9732 16.717 24.4363 16.7908 23.8915C16.9034 23.4381 17.086 23.0086 17.253 22.5751C17.7308 20.9644 18.8495 19.6083 19.032 17.8823C19.1641 17.0511 19.5176 16.375 20.2905 15.9892C22.423 12.74 22.2444 9.21645 21.4597 5.62525C21.4675 5.24743 21.4753 4.86962 21.483 4.49181C23.3009 5.80421 23.3708 7.8086 23.2892 9.74937C23.2232 11.2885 22.8037 12.8156 22.5434 14.3467C22.5551 15.4603 22.2055 16.4744 21.7472 17.4647C20.7062 20.0139 19.7234 22.5791 19.0553 25.2635C18.8572 26.0828 18.5659 26.902 17.9405 27.5264Z" fill="#F9F4E5"/>
<path d="M24.136 10.7953C25.3324 10.4334 26.5249 10.0755 28.2845 9.54256C26.7074 11.0697 25.1537 11.6424 24.0972 12.8713C23.9224 13.0741 23.7864 12.6168 23.7243 12.3861C23.8369 11.8492 23.6194 11.2208 24.136 10.7953Z" fill="#F7F2E4"/>
<path d="M21.4131 17.1704C21.9414 16.2915 21.7277 15.0984 22.5473 14.3428C22.691 14.3666 22.8309 14.3905 22.9746 14.4144C22.9707 15.1938 22.9707 15.9733 22.9668 16.7528C22.4502 17.4925 23.701 17.7192 23.4252 18.3953C23.2853 18.5305 23.1222 18.618 22.9358 18.6737C22.6406 18.7214 22.3531 18.6856 22.0773 18.5782C21.5568 18.2561 20.9975 17.9539 21.4131 17.1704Z" fill="#F0C45C"/>
<path d="M12.1374 38.6023C11.982 38.7574 11.8305 38.9165 11.6751 39.0716C10.4283 36.6894 9.58539 34.156 8.9406 31.5471C9.09208 31.392 9.24358 31.2369 9.39895 31.0818C11.3994 33.1737 11.5081 35.9894 12.1374 38.6023Z" fill="#E5D0AB"/>
<path d="M1.99545 27.4827C2.94711 27.6378 3.15298 27.8167 3.00149 28.5763C2.83447 29.4155 2.5043 30.195 1.76628 30.708C1.51768 30.879 1.23801 30.9148 1.10983 30.6603C0.709747 29.8728 0.616526 29.0615 1.1914 28.294C1.73132 28.3059 1.87115 27.9003 1.99545 27.4827Z" fill="#F8DB78"/>
<path d="M1.99545 27.4827C2.34504 28.1468 1.95273 28.5883 1.47107 28.8508C1.26132 28.9661 1.23024 28.5207 1.18751 28.29C1.45941 28.0236 1.72744 27.7531 1.99545 27.4827Z" fill="#FCF9D6"/>
<path d="M17.1559 3.64869C17.5521 3.08396 18.1619 3.30667 18.6863 3.2152C19.4321 3.30667 20.3954 3.26293 20.5314 4.19354C20.6479 4.99688 19.6691 5.18778 19.1447 5.59343C18.4455 6.1343 17.5948 6.07067 16.7675 6.04283C16.4684 5.38265 16.0295 4.7185 16.7597 4.05434C17.0471 4.07423 17.3268 4.09411 17.1559 3.64869Z" fill="#FCDE70"/>
<path d="M47.0729 13.607C47.3448 13.4678 47.6167 13.3286 47.8847 13.1894C48.0245 13.0781 48.3042 13.273 48.3275 13.0821C48.343 12.9588 48.0439 12.915 47.8769 12.8554C47.9158 11.9566 48.3896 11.8094 49.0034 12.2906C49.4501 12.6406 49.7647 13.1656 50.1376 13.611C50.1259 14.2672 50.2269 14.9512 50.0754 15.5717C49.8773 16.3869 49.5316 17.4448 48.5839 17.3653C47.6594 17.2897 47.1 16.4187 47.069 15.3768C47.0457 14.7882 47.069 14.1996 47.0729 13.607Z" fill="#FCDD6A"/>
<path d="M17.9367 12.8077C18.5038 11.1373 20.2789 10.2544 20.6518 8.46083C21.2189 8.17846 21.5141 8.33356 21.4248 8.99772C21.3277 9.74539 21.6656 10.5766 21.0519 11.2328C20.1896 12.0719 19.6574 13.2809 18.4144 13.6985C17.9949 13.5474 18.1464 13.0781 17.9367 12.8077Z" fill="#F7F2E3"/>
<path d="M20.2944 15.9892C20.0264 16.6494 19.4943 17.1982 19.4826 17.9698C19.2612 18.3078 19.032 18.6419 18.6048 18.7373C18.1076 18.8606 17.6065 18.8646 17.1015 18.789C16.6781 18.7015 16.3247 18.5146 16.1499 18.0771C15.9479 16.9238 16.6898 16.3352 17.4628 15.7625C17.7463 15.6194 18.0493 15.5518 18.3639 15.5359C18.7873 15.5359 19.1913 15.6074 19.4943 15.9534C19.7584 15.9654 20.0264 15.9773 20.2944 15.9892Z" fill="#F4CE5A"/>
<path d="M18.3134 15.9455C18.061 15.9534 17.8046 15.9654 17.5521 15.9733C16.919 14.8757 17.3346 14.1439 18.3329 13.611C19.2534 12.8355 19.7196 11.5151 21.0519 11.2328C21.0402 11.6344 21.0286 12.0361 21.0169 12.4338C19.9681 13.4877 19.4088 14.9353 18.3134 15.9455Z" fill="#EEDAB9"/>
<path d="M18.3134 15.9455C18.7912 14.4342 19.4787 13.094 21.0169 12.4338C20.7916 13.7343 20.4576 14.987 19.4982 15.9534C19.0981 15.9534 18.7057 15.9495 18.3134 15.9455Z" fill="#FCF8ED"/>
<path d="M18.3329 13.611C18.0143 14.3786 17.4278 15.0507 17.5521 15.9733C17.1714 16.6335 16.3208 17.0034 16.3713 17.938C16.111 18.28 15.9751 18.7453 15.4973 18.8725C15.2138 18.8049 14.9962 18.6975 15.1943 18.3436C15.3419 17.5721 15.4934 16.7966 15.641 16.025C16.4062 14.9512 17.1753 13.8814 17.9405 12.8077C18.2591 12.9787 18.3095 13.2889 18.3329 13.611Z" fill="#FDFBF7"/>
<path d="M47.873 12.8554C48.8558 12.8395 48.8558 12.8395 48.7625 14.0922C48.1877 14.0763 48.2615 13.4002 47.8808 13.1894C47.8808 13.0781 47.8769 12.9667 47.873 12.8554Z" fill="#FAF3CA"/>
<path d="M17.1559 3.64869C17.4589 3.70437 17.9833 3.69244 18.0221 3.82766C18.127 4.18161 17.7269 4.32875 17.4589 4.48783C16.9734 4.7702 16.7636 4.58328 16.7636 4.05434C16.8918 3.91913 17.0238 3.78391 17.1559 3.64869Z" fill="#FCF0C3"/>
<path d="M39.3042 14.4144C39.1722 14.2752 39.044 14.136 38.9119 13.9968C39.4208 13.7621 39.9296 13.2849 40.4462 13.9848C40.0617 14.128 39.681 14.2712 39.3042 14.4144Z" fill="#E7D0AA"/>
<path d="M9.04547 21.5649C9.0144 21.6882 8.99498 21.8115 8.98332 21.9348C8.1482 23.2949 8.94059 24.8738 8.17927 26.2816C8.17927 24.6948 8.17927 23.108 8.17927 21.5252C8.20257 21.4019 8.21812 21.2826 8.23365 21.1593C8.48225 20.9008 8.72696 20.6423 8.97555 20.3838C8.99886 20.7775 9.02217 21.1712 9.04547 21.5649Z" fill="#E3CEA8"/>
<path d="M15.2215 29.1291C15.2332 29.2524 15.2254 29.3757 15.206 29.499C14.9574 29.6342 14.7127 29.7694 14.4641 29.9047C14.2388 29.6462 14.1417 29.332 14.0834 29.0019C13.8814 27.3355 13.7261 25.6732 14.4719 24.0863C14.6855 23.6807 15.0079 23.4103 15.439 23.275C15.8741 23.2114 16.2547 23.2711 16.4839 23.7165C16.515 24.4681 16.2004 25.0567 15.6682 25.5499C15.641 25.8084 15.61 26.0669 15.5828 26.3254C15.105 27.2122 15.6915 28.2423 15.2215 29.1291Z" fill="#FBF7E9"/>
<path d="M14.8331 23.9869C14.3786 25.6652 14.4408 27.3872 14.4136 29.1013C13.7999 29.2246 13.8581 28.7434 13.8698 28.4014C13.8892 27.8525 13.7183 28.29 13.6212 28.3337C13.0385 27.9559 13.5124 27.0651 12.8715 26.7111C13.0929 26.1981 12.3432 25.4107 13.3104 25.1124C14.3476 25.0329 13.6717 23.6688 14.5107 23.4381C14.7981 23.5176 15.0312 23.621 14.8331 23.9869Z" fill="#EBD7B2"/>
<path d="M13.6251 28.3377C13.6561 28.0792 13.6833 27.8247 13.7222 27.5145C14.367 27.9042 13.761 28.7911 14.4175 29.1053C14.433 29.3717 14.4524 29.6382 14.468 29.9047C13.7144 29.6462 13.6523 29.0019 13.6251 28.3377Z" fill="#DCC49A"/>
<path d="M14.4447 23.5256C14.3009 24.142 14.266 24.8181 13.9824 25.355C13.6406 26.0072 13.4814 25.3828 13.3104 25.1164C13.6018 24.9334 13.6523 24.6391 13.6523 24.325C13.2133 23.1915 13.5629 22.1535 14.029 21.1315C14.4136 20.2008 14.802 19.2702 15.1866 18.3396C15.3186 18.4788 15.4468 18.618 15.5789 18.7572C15.8081 18.968 15.8663 19.2424 15.843 19.5446C15.6682 20.3798 15.3614 21.1752 15.2021 22.0143C15.0467 22.5671 14.8991 23.1279 14.4447 23.5256Z" fill="#FBF6E7"/>
<path d="M22.9396 18.3993C23.0756 18.3754 23.2154 18.3476 23.3514 18.3237C23.7359 17.7749 24.2836 17.759 24.6837 17.7828C22.9435 17.0551 24.6021 16.2796 24.8624 15.5001C25.3712 15.2296 25.7363 15.3887 25.9849 15.8938C26.1403 15.9176 26.2957 15.9455 26.4549 15.9693C26.7773 16.2159 26.8434 16.5659 26.8434 16.9437C26.7929 17.4766 26.6608 18.0016 26.653 18.5424C26.5637 18.9242 26.3578 19.2185 26.016 19.4094C25.6664 19.5725 25.2935 19.6162 24.9168 19.6202C24.3341 19.6083 23.7787 19.4969 23.2854 19.1509C23.0562 18.9561 22.8814 18.7333 22.9396 18.3993Z" fill="#F4DD8F"/>
<path d="M24.9012 15.6194C25.5965 16.5102 24.0855 16.4824 24.3069 17.2102C24.7148 17.8147 25.0605 16.9596 25.4217 17.0948C25.9189 17.2817 25.6936 17.763 25.6664 18.109C25.6198 18.7015 25.2625 18.4828 25.0139 18.272C24.4312 17.7789 23.9107 18.4669 23.3553 18.3197C23.297 17.7789 21.2927 17.7431 22.9668 16.7528C23.701 16.7568 23.701 16.7568 23.7554 15.6074C24.1399 15.2654 24.5206 15.2416 24.9012 15.6194Z" fill="#F7D459"/>
<path d="M24.9012 15.6194C24.5167 15.6154 24.136 15.6154 23.7515 15.6114C23.8175 14.7763 24.3885 14.47 25.0644 14.5496C25.7519 14.6291 26.2568 15.0348 25.9849 15.8978C25.6237 15.8023 25.2625 15.7108 24.9012 15.6194Z" fill="#FDFAEB"/>
<path d="M26.4744 17.1863C26.4705 16.7807 26.4627 16.375 26.4588 15.9693C26.4899 15.683 26.5171 15.3967 26.8201 15.2535C26.956 15.5001 27.0959 15.7466 27.2318 15.9932C27.6707 16.5062 27.3755 16.8761 27.0026 17.23C26.8162 17.3175 26.6414 17.3016 26.4744 17.1863Z" fill="#EDCA72"/>
<path d="M26.8628 17.1704C27.0881 16.8125 27.3328 16.4585 27.2318 15.9932C27.2473 15.858 27.2629 15.7228 27.2784 15.5876C28.0126 16.2199 28.7312 15.4842 29.4575 15.5677C29.7566 15.8302 30.0596 16.0926 30.3626 16.3551C30.8442 17.6437 30.0169 17.9896 29.0652 18.2561C28.568 18.2124 28.0786 18.3675 27.5969 18.3873C26.8201 18.4112 26.4122 18.0135 26.8628 17.1704Z" fill="#F9F5EB"/>
<path d="M29.5507 32.271C26.9599 33.9055 24.843 36.1087 22.7144 38.2961C22.3492 38.6699 21.9841 39.0477 21.4209 39.0835C20.8654 38.0535 21.7899 37.6359 22.2366 37.0234C22.3686 36.9002 22.5124 36.7928 22.66 36.6894C23.5728 36.1207 24.2642 35.3014 24.9867 34.5219C25.2702 34.1839 25.5344 33.826 25.8723 33.5396C26.3656 33.1538 26.7968 32.6925 27.3211 32.3465C28.9564 31.5074 28.9564 31.5074 29.5507 32.271Z" fill="#E1CBA9"/>
<path d="M22.5939 37.0513C22.291 37.783 21.3704 38.137 21.417 39.0795C21.013 39.5607 20.4731 39.7636 19.8788 39.8511C21.1917 38.4472 21.0946 36.0928 22.963 35.0628C23.6699 34.4861 24.2642 33.2572 25.2974 34.6571C24.54 35.6315 23.9146 36.761 22.5823 37.0553C22.4308 36.8405 22.6289 37.1348 22.4852 36.9161C22.4541 36.8723 22.4891 36.9161 22.5939 37.0513Z" fill="#F0E2C7"/>
<path d="M29.5507 32.271C28.6302 31.5233 28.0864 32.8635 27.2707 32.7044C26.4239 33.0544 25.5305 33.6788 24.9556 32.3187C26.1442 31.8852 27.3678 31.5233 28.5136 30.9904C29.3099 30.6205 29.8226 30.8631 30.3354 31.4239C30.2111 31.7102 30.0907 31.9965 29.9702 32.2789C29.8265 32.271 29.6867 32.271 29.5507 32.271Z" fill="#F7F0DC"/>
<path d="M24.9517 32.3147C25.6354 33.0067 26.5016 32.5255 27.2668 32.7005C26.9793 33.2095 26.6064 33.6191 26.0743 33.8657C24.9478 33.7345 24.0311 34.4185 23.0057 34.685C22.8581 34.5339 22.7066 34.3827 22.5551 34.2316C23.0484 33.301 23.5767 32.4062 24.5439 31.9011C24.6837 32.0363 24.8197 32.1755 24.9517 32.3147Z" fill="#F0E2C7"/>
<path d="M21.0014 35.027C21.1412 35.1702 21.2772 35.3094 21.417 35.4525C21.0363 36.1207 20.6596 36.7888 20.2828 37.4609C20.0148 37.3257 19.7429 37.1944 19.4748 37.0592C19.2185 37.0672 18.9621 37.0791 18.7057 37.0871C18.5815 36.932 18.5154 36.757 18.5115 36.5581C18.966 35.4128 19.8982 35.0707 21.0014 35.027Z" fill="#F7F0DC"/>
<path d="M23.0096 34.685C23.969 34.16 24.773 33.0266 26.0782 33.8657C25.8179 34.1282 25.5616 34.3947 25.3013 34.6571C24.3613 33.826 23.7825 35.1423 22.9668 35.0628C22.9746 34.9355 22.9901 34.8122 23.0096 34.685Z" fill="#F8F0DD"/>
<path d="M21.0014 35.027C20.3877 35.7985 19.1874 35.6991 18.698 36.6536C18.2435 37.1308 18.0843 38.0097 17.1559 37.8546C17.0355 37.7234 16.919 37.5961 16.7986 37.4649C17.0316 35.9059 17.8201 34.5458 18.3212 33.0823C18.9893 32.8755 19.0515 32.263 19.2573 31.7102C20.8654 27.3753 24.2759 24.7028 27.7756 22.1217C27.9232 22.0143 28.1485 22.0501 28.3427 22.078C29.5469 23.0165 28.2806 23.4461 27.9582 24.0704C27.6435 24.3965 27.3211 24.7107 27.0143 25.0448C26.8045 25.2834 26.5792 25.5061 26.3889 25.7606C25.8878 26.4288 25.6082 27.2202 25.2314 27.9559C24.742 28.9104 23.8253 27.2639 23.3747 28.3059C23.2737 28.4491 23.161 28.5883 23.0562 28.7275C21.8909 30.2507 20.9625 31.8931 20.4382 33.7703C20.2789 34.339 20.477 34.2913 20.8538 34.1879C20.9276 34.2236 20.9936 34.2634 21.0635 34.2992C21.0363 34.5338 21.0169 34.7804 21.0014 35.027Z" fill="#E5CFAA"/>
<path d="M17.1559 37.8546C17.6686 37.4529 18.1814 37.0552 18.698 36.6536C18.7019 36.7967 18.7019 36.9399 18.7057 37.0871C18.2047 37.3814 18.2047 38.7256 17.1559 37.8546Z" fill="#EBDCBF"/>
<path d="M28.4126 22.3166C24.6216 25.0607 20.7334 27.7332 19.4943 32.7402C19.234 33.7902 18.9194 33.7106 18.3212 33.0823C18.496 32.4579 18.6358 31.8176 18.8611 31.2131C19.0864 30.6126 18.8961 30.3541 18.3173 30.2944C18.3367 30.1751 18.3484 30.0598 18.3562 29.9404C18.3562 29.6621 18.4377 29.4115 18.5737 29.1729C19.032 28.29 19.7662 27.6338 20.376 26.8702C21.3315 25.1999 22.9785 24.2335 24.2292 22.8575C25.0216 22.1257 25.7597 21.3224 26.7191 20.8014C27.4649 20.4991 28.1097 20.0378 28.7311 19.5287C30.281 18.6737 31.7531 17.6556 33.4467 17.0948C33.505 18.1288 34.1342 18.4192 35.0237 18.3635C33.3496 19.0356 31.6755 19.7077 30.0013 20.3798C29.9236 20.515 29.745 20.6542 29.9159 20.8093C30.0557 20.9406 30.2305 20.8809 30.3781 20.7656C31.155 20.6383 31.9357 20.515 32.7126 20.3878C32.9961 21.4894 33.7341 20.5588 34.243 20.7179C34.8645 20.9167 35.6141 20.515 36.1851 21.0957C35.9404 21.1275 35.6918 21.1553 35.2413 21.215C35.9016 21.6445 36.4182 21.9786 36.9309 22.3126C36.0259 23.6091 34.5304 23.3546 33.2913 23.7761C32.5184 23.5335 32.3125 22.77 31.8969 22.2013C31.3026 21.4615 30.7199 22.4717 30.1334 22.2251C29.5546 22.2092 28.9759 22.1138 28.4126 22.3166Z" fill="#F9F2E2"/>
<path d="M33.4389 17.0948C32.3397 18.8049 30.2654 18.8686 28.8049 19.9662C28.2806 20.2844 27.8805 20.0736 27.8494 19.5287C27.8106 18.8527 27.7989 18.0493 28.8011 17.9936C29.8731 17.9976 30.1528 17.2141 30.3587 16.3551C30.8792 15.4682 31.5395 15.4961 32.2814 16.0449C32.3902 16.0489 32.4989 16.0529 32.6077 16.0648C32.965 16.6812 33.8196 16.1006 34.1692 16.7409C33.9245 16.8602 33.6836 16.9795 33.4389 17.0948Z" fill="#F2CD61"/>
<path d="M30.3703 20.7696C30.013 21.1712 29.5313 21.386 29.1856 20.9406C29.0613 20.7775 29.675 20.527 29.9935 20.3838C30.1178 20.5111 30.246 20.6383 30.3703 20.7696Z" fill="#EBDABD"/>
<path d="M33.066 23.5216C34.3712 23.1876 35.719 22.9887 36.9232 22.3166C37.1057 22.6705 37.4398 22.7382 37.7855 22.7859C37.7583 22.9012 37.7427 23.0205 37.735 23.1398C34.3673 23.625 31.3764 25.1283 28.4204 26.7271C27.4571 26.051 27.6979 25.4783 28.5641 24.9573C30.215 24.9732 31.3569 23.3188 33.066 23.5216Z" fill="#EAD9B7"/>
<path d="M22.9785 28.3099C23.1028 27.4867 23.6621 27.1526 24.3846 27.089C24.4545 27.081 24.5711 27.6338 24.6954 28.0196C25.3906 26.8424 25.5849 25.3987 26.8628 24.7266C27.4454 25.5817 26.6997 26.3492 26.7074 27.1685C26.7152 27.4071 26.6919 27.6497 26.824 27.8684C25.2896 29.6104 23.7592 31.3523 22.2249 33.0942C21.5063 32.263 22.1317 31.5153 22.3687 30.7517C22.6173 29.9484 22.9008 29.157 22.9785 28.3099Z" fill="#F2E5CA"/>
<path d="M26.824 27.8684C26.7035 27.7452 26.5831 27.6219 26.4666 27.4986C26.789 26.3572 27.0104 25.1721 27.8611 24.2733C28.098 24.0784 28.5292 24.4204 28.6807 23.804C28.8593 23.0762 29.1196 22.2689 29.978 21.9825C30.4985 21.7638 31.0112 21.5093 31.5473 21.3422C32.3164 21.0996 31.994 21.5848 31.8774 21.9149C30.751 22.8773 30.4752 24.6869 28.8244 25.1283C27.9776 25.4703 28.032 26.0549 28.4243 26.7231C27.8883 27.1049 27.3561 27.4867 26.824 27.8684Z" fill="#E4D1AC"/>
<path d="M22.9785 28.3099C23.833 29.1132 23.0872 29.9047 22.9202 30.6722C22.7377 31.4915 22.0929 32.1755 22.2249 33.0942C21.9414 33.5993 21.5957 34.0447 21.0596 34.2873L21.0441 34.2674C20.2905 33.122 21.0402 32.1477 21.4675 31.2011C21.9103 30.2069 22.4968 29.2763 22.9901 28.3019L22.9785 28.3099Z" fill="#E1CBA6"/>
<path d="M28.8166 30.2586C29.3643 29.6501 30.0829 29.9882 30.7277 29.8967C30.1916 30.5768 29.4575 30.1592 28.8166 30.2586Z" fill="#F9F6EC"/>
<path d="M35.0548 12.0162C34.0565 13.1457 33.7652 14.8439 32.3047 15.6035C32.3008 15.3251 32.2969 15.0467 32.2931 14.7683C32.9922 13.7582 33.6681 12.7321 34.3984 11.7458C34.8179 11.1811 34.9771 11.5629 35.0548 12.0162Z" fill="#EAD7B4"/>
<path d="M21.4131 17.1704C21.3432 17.8107 21.8986 17.9936 22.2249 18.3436C22.221 19.9463 20.982 21.1951 21.0169 22.8097C21.013 23.0881 20.9587 23.3586 20.8577 23.6171C20.0303 25.0209 19.3972 26.5083 19.0864 28.1309C18.9971 28.4053 18.8611 28.644 18.5892 28.7672C18.4999 28.7434 18.4105 28.7195 18.3212 28.6957C18.3018 28.2701 18.3911 27.8048 17.9444 27.5224C18.8184 23.975 19.8011 20.4633 21.4131 17.1704Z" fill="#EBD7B5"/>
<path d="M15.6682 25.5499C15.6255 24.8857 15.9168 24.3687 16.3519 23.9114C16.4645 23.7841 16.6043 23.7125 16.7714 23.6966C16.9384 23.7244 17.0705 23.808 17.1714 23.9472C17.2336 24.5238 17.0277 25.0289 16.7714 25.522C16.2936 25.7726 16.4606 26.3095 16.2314 26.7947C16.0256 26.3373 15.8469 25.9436 15.6682 25.5499Z" fill="#E5C89B"/>
<path d="M15.5672 36.6098C15.4779 37.5563 15.9362 38.5745 15.2254 39.4414C15.2876 38.4909 14.9457 37.4887 15.5672 36.6098Z" fill="#F9F0DD"/>
<path d="M15.2215 29.1291C15.3458 28.1946 14.8681 27.1804 15.5828 26.3254C15.4895 27.2639 15.8663 28.2661 15.2215 29.1291Z" fill="#F9F4E5"/>
<path d="M18.6902 29.4831C18.5776 29.6342 18.4649 29.7853 18.3523 29.9405C17.7852 29.5428 17.8124 29.1291 18.3212 28.6996L18.3173 28.7116C18.5698 28.9025 18.9621 29.0218 18.6902 29.4831Z" fill="#D1B27C"/>
<path d="M18.663 18.4152C18.9349 18.268 19.2068 18.1169 19.4826 17.9698C19.3272 19.7674 18.1581 21.1553 17.6181 22.7978C17.3074 22.7342 17.1132 22.5274 16.9811 22.245C17.0433 20.7417 17.42 19.3776 18.663 18.4152Z" fill="#E9D1A1"/>
<path d="M17.1054 22.245C17.2763 22.4279 17.4433 22.6109 17.6143 22.7938C17.4667 23.1756 17.3191 23.5614 17.1753 23.9432C17.0394 23.9352 16.8995 23.9273 16.7636 23.9193C16.5111 23.6568 16.4645 23.3347 16.4956 22.9887C16.5577 22.7342 16.6859 22.5234 16.884 22.3524C16.9539 22.3166 17.0316 22.2808 17.1054 22.245Z" fill="#DEBA77"/>
<path d="M20.6984 22.6507C20.6052 20.9923 21.417 19.6679 22.2249 18.3476C22.4658 18.3675 22.7027 18.3834 22.9435 18.4033C23.0872 18.5265 23.2271 18.6458 23.3708 18.7691C23.4563 20.7855 22.1861 22.6308 20.6984 22.6507Z" fill="#FBF8EF"/>
<path d="M18.663 18.4152C18.1425 19.6918 17.6259 20.9724 17.1054 22.249L17.1559 22.3325C16.8413 22.4995 16.616 22.3285 16.4024 22.1177C15.8857 21.4973 15.4973 20.8292 15.6838 19.9662C15.9168 19.1827 16.3014 18.5544 17.1676 18.4033C17.6686 18.4033 18.1658 18.4072 18.663 18.4152Z" fill="#FAF2DC"/>
<path d="M17.1676 18.3993C16.6587 18.8288 16.2276 19.318 15.9673 19.9463C15.6138 20.0378 15.4352 19.9503 15.5672 19.5407C15.5711 19.2822 15.5789 19.0197 15.5828 18.7612C15.61 18.2521 15.8663 17.9737 16.3674 17.938C16.6354 18.0891 16.9034 18.2442 17.1676 18.3993Z" fill="#E8CD97"/>
<path d="M18.9155 17.1306C18.931 17.4806 18.663 17.5442 18.4338 17.5363C18.2319 17.5283 18.0299 17.3891 17.8318 17.3096C17.9988 17.1585 18.1425 16.9517 18.3367 16.8642C18.5659 16.7647 18.8029 16.8522 18.9155 17.1306Z" fill="#FCEE7F"/>
<path d="M14.4447 23.5256C14.4097 22.9648 14.4835 22.4359 14.8603 21.9905C15.439 21.7598 15.5128 22.2967 15.7459 22.595C15.8081 22.7541 15.8352 22.9171 15.8352 23.0881C15.8003 23.2552 15.7148 23.3944 15.5789 23.4978C15.3303 23.6608 15.0778 23.8239 14.8292 23.9869C14.7049 23.8318 14.5728 23.6807 14.4447 23.5256Z" fill="#EAC977"/>
<path d="M15.5828 23.4978C15.5905 23.3625 15.5983 23.2313 15.6061 23.0961C15.9557 22.8296 16.2664 22.4001 16.783 22.7859C16.7752 23.1637 16.7714 23.5415 16.7636 23.9233C16.6276 23.9193 16.4917 23.9193 16.3557 23.9153C16.2159 23.5415 15.8857 23.5415 15.5828 23.4978Z" fill="#F7E19B"/>
<path d="M15.6333 22.7859C15.3769 22.5194 15.1166 22.253 14.8603 21.9865C14.8059 21.0837 15.0467 20.2685 15.5672 19.5367C15.6993 19.6719 15.8352 19.8071 15.9673 19.9423C15.7886 20.7894 16.4606 21.3184 16.7092 22.0024C16.3596 22.2768 16.2625 22.9171 15.6333 22.7859Z" fill="#F1DDAA"/>
<path d="M24.9401 19.1788C25.3013 19.2026 25.6664 19.2305 26.0277 19.2543C26.7113 19.9105 26.4278 20.5389 25.9228 21.0917C25.4139 21.6564 24.8896 22.2092 24.3574 22.7541C23.13 23.8636 22.2677 25.4226 20.5741 25.9515C20.4537 25.7925 20.3799 25.6135 20.3449 25.4186C21.0363 23.3665 22.423 21.7121 23.4213 19.835C23.7709 19.1867 24.4934 19.5367 24.9401 19.1788Z" fill="#FBF7EB"/>
<path d="M24.9401 19.1788C24.0816 19.652 23.4213 20.3082 22.9591 21.207C22.2133 22.6586 21.4015 24.0704 20.6168 25.4982C20.5003 25.7169 20.3915 25.9754 20.0924 25.9237C19.6807 25.8521 19.6574 25.534 19.7778 25.2158C20.0031 24.6312 20.2789 24.0665 20.644 23.5495C20.6634 23.2472 20.679 22.945 20.6984 22.6427C22.2949 21.8553 22.6522 20.177 23.3708 18.7572C23.8913 18.9044 24.4157 19.0435 24.9401 19.1788Z" fill="#EDDABB"/>
<path d="M28.8011 17.9936C28.4981 18.6538 27.3561 19.31 28.8049 19.9662C28.2184 20.4673 27.6863 21.0599 26.8589 21.1474C26.7346 21.032 26.6725 20.8928 26.6763 20.7218C26.723 20.3241 26.723 19.9304 26.6025 19.5446C26.42 19.1748 26.7501 18.7493 26.4744 18.3953C25.849 17.9936 26.3462 17.588 26.4744 17.1863C26.6025 17.1823 26.7346 17.1783 26.8628 17.1744C27.0065 17.6914 26.9055 18.5981 27.8494 17.759C28.2068 17.4408 28.5564 17.6039 28.8011 17.9936Z" fill="#F7E9C6"/>
<path d="M26.8745 20.7656C26.8667 20.8928 26.8628 21.0201 26.8628 21.1474C26.0782 21.8036 25.2935 22.4598 24.5128 23.116C24.1671 23.1875 23.9845 23.0921 24.1049 22.6904C24.3069 21.2826 26.4821 21.04 26.0316 19.2504C26.1792 18.964 26.3306 18.6777 26.4782 18.3913C26.9754 18.626 26.8473 19.1032 26.8978 19.5128C26.8511 19.9304 26.8589 20.348 26.8745 20.7656Z" fill="#ECCD8F"/>
<path d="M22.5939 37.0513C22.2638 37.0195 21.8637 37.0075 22.1939 36.5144C22.3104 36.3394 22.7454 36.1565 22.7648 36.1843C23.0134 36.5184 22.6367 36.757 22.5862 37.0592L22.5939 37.0513Z" fill="#E1CBA9"/>
<path d="M22.9863 28.3019C22.8348 30.4614 21.013 32.0522 21.0441 34.2714C20.6401 34.5776 20.2362 34.8798 19.5603 35.3889C20.1896 32.5493 21.0635 30.1711 22.9863 28.3019Z" fill="#F2E5CA"/>
<path d="M29.9741 21.9865C29.2167 22.6745 29.6207 24.3727 28.0281 24.3329C27.8067 24.2892 27.6746 24.154 27.6319 23.9273C27.694 23.291 28.8321 23.1995 28.4088 22.3166C28.8826 21.9587 29.2788 21.2229 29.9741 21.9865Z" fill="#F1E4CC"/>
<path d="M27.6358 23.9273C27.7678 24.0625 27.8999 24.1977 28.032 24.3329C27.5115 25.3868 26.9871 26.4447 26.4666 27.4986C25.8801 26.4646 26.89 25.6732 26.8628 24.7266C27.1192 24.4602 27.3755 24.1937 27.6358 23.9273Z" fill="#F9F2DF"/>
<path d="M28.8205 25.1283C30.0751 24.2931 30.0751 22.2052 31.8736 21.9149C32.8679 21.9825 32.6582 22.9927 33.066 23.5216C31.6017 23.9233 30.5645 25.5021 28.8205 25.1283Z" fill="#FCFBF5"/>
<path d="M24.1011 22.6944C24.237 22.8376 24.373 22.9768 24.5089 23.1199C23.3669 24.5994 21.685 25.53 20.644 27.1128C20.2905 27.1168 19.9837 27.0253 19.7817 26.6952C19.7739 26.0788 20.2478 26.0868 20.6479 26.0032C21.7977 24.8976 22.9513 23.796 24.1011 22.6944Z" fill="#E9D3AB"/>
<path d="M19.8866 26.7271C20.2012 26.731 20.4886 26.7867 20.644 27.1128C19.9915 27.9042 19.3389 28.6957 18.6863 29.4831C18.562 29.2246 18.4377 28.9701 18.3134 28.7116C18.4455 28.5843 18.5737 28.4531 18.7057 28.3258C19.067 27.769 18.9543 26.8424 19.8866 26.7271Z" fill="#E0C595"/>
<path d="M19.8866 26.7271C19.4943 27.26 19.1019 27.7929 18.7096 28.3258C18.8533 26.5242 19.3078 24.8539 20.644 23.5614C20.4459 24.0943 20.2206 24.6193 20.0614 25.1641C19.8244 25.9515 20.3061 25.6135 20.6207 25.5061C20.6324 25.6692 20.644 25.8362 20.6518 25.9993C20.3954 26.2419 20.1391 26.4845 19.8866 26.7271Z" fill="#F7ECD4"/>
<path d="M15.6333 22.7859C15.9828 22.5075 16.0333 21.8036 16.7092 22.0024C16.8568 22.1098 17.0044 22.2172 17.152 22.3245C17.0277 22.4757 16.9034 22.6268 16.7791 22.7819C16.3868 22.8853 15.9945 22.9887 15.6061 23.0921C15.6138 22.9927 15.6255 22.8893 15.6333 22.7859Z" fill="#EAB341"/>
<path d="M26.8745 20.7656C26.3462 20.34 26.3617 19.9225 26.8939 19.5128C27.3017 19.9384 27.4105 20.3599 26.8745 20.7656Z" fill="#E8C16D"/>
</svg>
