<svg width="45" height="44" viewBox="0 0 45 44" fill="none" xmlns="http://www.w3.org/2000/svg">
<path d="M8.28455 39.8758C3.54421 36.8477 0.913102 32.5346 0.32962 26.9655C0.702904 25.3919 1.01458 23.8363 0.608677 22.1977C0.463712 21.613 0.438344 20.9092 0.728273 20.2884C1.80826 15.2498 4.82714 11.5901 9.00575 8.75679C9.9154 8.39586 10.9048 8.33811 11.7528 7.68845C12.4088 7.18676 13.2133 7.47911 13.728 8.21901C14.1049 9.05275 14.3296 9.91536 14.1629 10.8393C13.7388 12.2361 12.3581 12.7089 11.4484 13.6401C10.6475 14.0732 9.85741 14.5244 9.22319 15.1957C8.70495 15.766 7.37852 16.0475 7.80254 16.9065C8.25556 17.8196 9.23769 16.8487 9.99513 16.7766C10.6982 16.6033 11.3071 16.2424 11.8797 15.8165C12.7676 15.2498 13.5866 14.5894 14.4129 13.9397C14.6304 13.7701 14.8659 13.6437 15.1341 13.586C15.7756 13.5138 16.2648 13.7412 16.5801 14.3078C17.0694 15.5494 16.4279 16.7549 16.4605 17.9821C16.4642 18.2491 16.4642 18.5126 16.475 18.7797C16.7686 19.8697 16.5838 21.1185 17.6058 22.1363C18.2871 21.2123 17.9646 20.2559 18.0552 19.3752C18.0588 18.9421 18.0841 18.5126 18.1566 18.0831C18.182 17.9099 18.2255 17.7402 18.2726 17.5706C18.5335 16.7116 18.3451 15.8201 18.4864 14.9503C18.5082 14.7662 18.5517 14.5857 18.6096 14.4089C19.5084 12.1242 19.7404 11.9582 21.8532 12.0701C22.4512 12.2469 23.0021 12.5285 23.5131 12.8858C23.6399 12.9977 23.7305 13.1348 23.7958 13.2864C23.8356 13.438 23.8501 13.5932 23.8537 13.7484C23.7776 14.3042 24.1292 14.5063 24.5931 14.6074C25.4266 15.0694 26.1659 15.3004 27.0285 14.4919C27.5757 13.9758 28.4745 14.149 29.2319 14.1093C29.9314 14.1021 30.6308 14.0913 31.3303 14.1165C32.8488 14.5316 33.0844 14.9322 32.3813 16.1377C31.9319 16.9101 31.3484 17.6031 30.9316 18.408C30.5547 19.1406 29.8988 19.1226 29.2174 18.9674C28.8296 18.9638 28.7862 19.2561 28.7427 19.5413C29.1449 20.9669 28.5071 22.4431 28.9819 23.8579C29.1123 23.9446 29.1993 24.0564 29.2609 24.1972C29.3443 24.5112 29.3153 24.8108 29.1449 25.0887C28.6122 25.6193 27.7678 25.8286 27.5177 26.6479C28.5288 28.9001 26.8944 30.1092 25.6078 31.459C24.9047 31.8164 25.3686 33.5488 23.8501 32.9461C23.5348 32.679 23.4732 32.1015 22.8897 32.1592C22.1142 32.4768 22.1613 33.4983 21.4292 33.8484C20.795 34.0577 20.2332 33.5055 19.6027 33.686C19.291 33.7112 18.9793 33.7004 18.6749 33.6282C18.385 33.5596 18.0986 33.473 17.7978 33.4802C17.5115 33.4838 17.218 33.5344 16.9752 33.3467C16.9353 33.3178 16.8918 33.2817 16.8447 33.2456C16.62 33.7762 16.2105 34.083 15.6524 34.2021C16.8157 35.8768 17.642 36.2305 19.4541 35.8082C20.8059 35.4401 22.0815 34.7687 23.5638 34.9167C24.3321 34.9925 23.745 34.7146 23.7051 34.4258C23.5747 33.39 24.6402 33.4911 25.2309 33.1301C25.394 33.1229 25.5498 33.1518 25.6984 33.2167C25.9014 34.1046 26.474 33.9242 27.0647 33.6787C27.3691 33.6102 27.6736 33.5344 27.9852 33.4874C28.6086 33.473 28.8188 33.7834 28.6919 34.3609C28.6738 34.5594 28.7137 34.7074 28.9819 34.6604C29.2972 34.415 30.2213 34.8193 29.9676 34.3392C28.9746 32.4768 30.533 32.2711 31.5006 31.6431C31.7036 31.5132 31.9065 31.3832 32.095 31.2389C32.7292 30.7408 32.4791 30.0406 32.5154 29.4054C32.5081 28.5716 32.4501 27.7451 32.3595 26.9186C32.2689 26.1245 32.4465 25.4821 33.4323 25.4424C33.9578 25.4785 34.3093 25.7636 34.5304 26.2256C34.708 26.6551 34.5847 27.0918 34.5485 27.5249C34.5449 27.691 34.5268 27.857 34.5123 28.0194C34.4905 28.3442 34.4434 28.6655 34.36 28.9831C34.2803 29.2899 34.2006 29.6003 34.1752 29.9215C34.36 30.1489 33.5446 31.0765 34.6971 30.6289C35.1211 30.4629 35.5161 30.6 35.7553 31.0331C35.8133 31.2028 35.8314 31.3796 35.8532 31.5601C35.8822 31.7803 35.864 32.1845 36.1141 32.1051C36.491 31.986 36.2301 31.6251 36.154 31.3616C35.498 29.6328 37.1615 29.3945 37.9443 28.5825C39.6512 28.0555 39.4084 26.5143 39.7708 25.0093C39.4519 25.8069 39.5679 26.5324 38.9156 26.9005C37.9117 26.9366 37.3028 26.3447 36.7701 25.6156C35.7952 27.1027 35.6466 27.146 34.8529 26.1426C34.8457 25.8863 34.9 25.6445 35.0124 25.4135C35.4255 24.8902 35.469 24.2333 35.6502 23.6233C36.1902 22.49 35.6394 21.4903 35.2661 20.4652C35.074 20.0141 34.7478 19.6243 34.6427 19.1334C34.8312 18.0037 34.8312 17.9893 35.922 17.881C36.2917 17.8449 36.0489 17.5562 36.1685 17.4082C36.5852 16.9029 36.9803 16.1558 37.7123 16.4553C38.5531 16.7982 38.8394 17.6392 38.7778 18.5595C38.7452 19.054 38.2306 19.3644 38.2994 19.895C39.6657 19.8011 40.2637 21.2881 41.5503 21.2881C41.5901 20.7684 41.7279 20.1043 42.594 20.1729C43.2717 20.227 43.703 20.6457 43.6486 21.3784C43.5979 22.0677 44.0328 22.6524 44.0654 23.2985C44.1161 24.3921 44.1415 25.529 42.4998 25.5182C42.054 25.5146 41.4379 25.5868 41.351 26.1823C41.2712 26.7237 41.8547 26.7562 42.1954 26.9619C42.7607 27.3012 43.0507 27.0305 43.337 26.5432C43.5399 26.2003 43.6233 25.4965 44.3046 25.8936C44.4967 26.0054 44.3843 26.3375 44.2611 26.5541C43.134 31.4121 40.0644 34.9745 36.3533 38.0423C33.4794 40.4172 30.0727 41.7996 26.4885 42.756C25.3215 43.7377 23.8465 43.8063 22.4621 43.9146C20.2659 44.0806 18.0407 44.0951 15.9677 43.1025C13.9672 42.5575 11.9666 42.0089 10.1655 40.937C9.98788 40.7781 9.74869 40.6338 9.78856 40.3667C9.85379 39.9408 10.5351 40.0094 10.5061 39.9661C10.064 39.2839 9.62185 39.8181 9.15434 39.9877C8.8789 40.0996 8.5636 40.013 8.28455 39.8758Z" fill="#E95216"/>
<path d="M44.2647 26.5613C44.2394 26.4458 44.2502 26.2509 44.185 26.222C43.6523 25.991 43.8987 26.5144 43.79 26.6768C43.4638 27.1568 42.855 28.106 42.7716 27.9653C42.2787 27.1135 41.0357 27.5033 40.7638 26.8247C40.1043 25.1898 41.8873 24.9479 42.5469 24.9479C44.3916 24.9515 43.616 23.8146 43.5653 23.0783C43.5327 22.5766 43.018 22.1074 43.1884 21.548C43.4167 20.8117 43.0543 20.4616 42.4382 20.4833C41.6518 20.5121 41.9707 21.1221 42.0323 21.5697C42.083 21.9378 42.0432 22.2843 41.6046 22.7102C41.3365 21.6418 40.492 21.3639 39.6657 20.9236C39.0062 20.5735 38.7815 20.624 38.227 20.9777C37.9298 21.169 37.7196 20.6529 37.7884 20.2378C37.8464 19.8986 37.7087 19.368 37.8936 19.2309C38.9699 18.426 38.3756 17.7366 37.8537 16.9967C37.6326 16.6827 37.5311 16.7405 37.1905 16.8993C36.1612 17.3757 36.4294 18.2094 36.6179 19.0612C35.7662 18.8772 35.8785 18.0145 35.3349 17.7511C35.1573 18.2816 34.987 18.7869 34.8203 19.2886C35.0957 19.6171 35.1755 20.0754 35.527 20.3497C36.0489 21.3892 36.8353 22.3962 35.9112 23.6017C34.9 22.8401 35.0522 24.1142 34.6137 24.3452C34.2368 24.7602 34.1752 25.363 33.7621 25.7528C33.1351 25.7817 32.4538 25.8178 32.7836 26.7273C33.1423 27.7126 32.9249 28.716 33.0082 29.7085C32.6531 30.2716 32.914 31.0765 32.2798 31.5276C31.7181 31.9174 31.1998 32.531 30.5873 32.6393C29.7538 32.7836 29.9567 33.4658 30.1198 33.5705C30.6381 33.8953 30.9715 34.1046 30.6127 34.7832C30.1633 35.6386 29.6306 34.8337 29.1594 34.9311C28.9927 34.9672 28.8369 35.0755 28.6774 35.1477C28.3585 35.0142 28.5071 34.628 28.2933 34.4367C28.4274 34.0866 28.6339 33.704 27.9671 33.704C27.6953 33.2889 28.1302 33.0291 28.1846 32.6862C28.2752 32.3938 28.3549 32.0943 28.5288 31.8344C28.7427 31.589 29.0109 31.4121 29.2682 31.2244C29.5907 30.9176 30.109 30.8166 30.2394 30.2572C29.8988 30.7336 29.4312 30.7047 28.9637 30.683C28.8006 30.6686 28.6412 30.6289 28.4854 30.5712C28.2353 30.5315 28.0396 30.1814 27.7424 30.4557C27.6917 30.5892 27.6264 30.7119 27.5612 30.8346C26.9922 31.5276 26.4087 32.1592 25.4556 31.3832C25.4302 31.3074 25.4049 31.2353 25.3831 31.1595C26.0499 30.2896 26.6842 29.3945 27.3981 28.5608C27.9526 27.9147 27.7605 27.9147 27.0357 27.6729C25.8724 27.2867 27.351 26.933 27.1952 26.4927C27.5177 25.6553 28.5143 25.6445 29.0145 25.0201C29.0145 24.6628 29.0145 24.3091 29.0109 23.9518C29.8625 23.8579 29.3515 24.67 29.6596 24.9191C29.7429 24.9732 29.7828 25.0634 29.7647 25.1681C29.906 24.9949 29.6088 25.0093 29.6342 24.8685C29.395 24.5726 29.8589 23.8182 29.0072 23.9482C28.7789 24.107 28.5615 24.3705 28.3223 24.3921C28.1048 24.4102 27.9417 24.0853 28.0541 23.8471C28.7644 22.342 28.2679 20.7865 28.2824 19.2525C28.6484 18.9782 28.7354 18.5162 29 18.177C29.79 19.0143 30.4641 18.9782 30.754 17.8088C30.9461 17.0364 31.6347 16.6827 31.95 16.0691C32.2254 15.5278 33.117 14.6038 31.5006 14.5388C31.5296 13.7628 32.2834 13.8458 32.6893 13.5318C32.7872 13.456 32.8234 13.355 32.7836 13.2251C32.7546 13.1312 32.7183 13.0843 32.6712 13.0879C32.5589 13.0121 32.4574 12.9327 32.345 12.8605C32.1131 12.6945 31.8413 12.5682 31.8087 12.2361C31.9283 11.9474 32.6313 11.7453 31.9428 11.3302C31.7833 10.6697 31.7398 10.02 32.0334 9.3848C32.1348 9.1502 32.4066 9.17546 32.5697 9.0347C32.3958 9.05275 32.2472 9.11771 32.1095 9.23321C31.642 9.27291 31.6347 7.92305 30.7033 8.96252C30.1017 9.63384 29.1631 8.45 28.315 8.32368C27.2532 9.31622 26.8509 8.28398 26.3036 7.68123C26.1116 7.51159 25.9666 7.30947 25.9014 7.06044C25.8869 6.8908 25.9086 6.72477 25.9702 6.56597C26.3435 5.76471 27.6663 5.76832 27.6228 4.62419C27.5431 4.33905 27.3474 4.06114 27.554 3.75796C29.4276 3.51253 31.265 3.55223 32.9901 4.45094C32.8814 5.11504 32.2653 5.98849 33.8164 5.69974C35.353 5.41461 36.2917 6.71395 37.4478 7.41414C37.7196 7.60904 37.995 7.80033 38.1472 8.11434C37.7268 9.13937 37.7087 9.93702 39.0931 10.1969C39.9593 10.3593 40.4703 11.3194 41.4234 11.3699C42.2316 11.7236 42.4382 12.6692 43.1521 13.1168C44.8446 15.914 45.1454 18.9818 44.9461 22.1508C44.8518 22.2735 44.5474 22.1327 44.6018 22.4106C44.609 22.4467 44.8192 22.4611 44.928 22.5117C44.8953 23.8976 44.8047 25.2655 44.2647 26.5613Z" fill="#EA5519"/>
<path d="M13.7932 10.9657C13.6591 10.002 13.525 9.03831 13.3909 8.07103C13.188 7.6704 12.9886 7.26616 13.0684 6.79335C13.1372 6.50822 13.2967 6.23031 13.2496 5.92352C13.0901 4.86962 13.467 4.59531 14.4455 5.05369C15.0363 5.32799 15.6741 5.57703 16.0329 4.69998C16.5439 5.01399 16.5439 5.85133 17.2941 5.92352C18.4248 7.03517 19.7585 6.58762 21.0559 6.40716C21.8242 8.0999 21.2516 9.28013 19.6389 10.0561C18.6241 10.5001 17.9646 9.29096 17.0042 9.49669C16.1489 9.84678 15.1305 11.1606 14.6521 9.0347C14.3151 9.70963 15.0218 10.7924 13.7932 10.9657Z" fill="#94BC4B"/>
<path d="M41.3183 11.6983C40.0499 11.6153 39.1149 10.7635 38.0639 10.2185C36.9187 9.63023 36.944 8.81093 38.0748 8.11434C37.9298 7.79312 37.6435 7.72815 37.3282 7.72454C36.7882 7.36 36.2011 7.046 35.7155 6.62011C35.1211 6.10037 34.3999 6.1509 33.7149 5.9957C33.2547 5.89104 32.9901 7.08931 32.3632 6.08594C31.7543 5.10783 32.7364 4.96706 33.0046 4.45455C36.7338 5.3713 39.4483 7.68484 41.6554 10.6914C41.9634 11.1714 40.8436 11.1678 41.3183 11.6983Z" fill="#EA5B21"/>
<path d="M16.0293 4.70359C15.8191 5.04647 16.3554 5.77554 15.8952 5.72862C15.1269 5.64561 14.0795 6.3061 13.496 5.14753C13.467 5.66365 13.438 6.18339 13.4054 6.69951C13.13 6.71756 12.9886 6.60206 13.0285 6.31332C12.6625 4.54117 12.6335 2.77624 13.0611 1.0041C13.1807 0.509628 13.2496 0.0223783 13.8584 0.000722705C14.3876 -0.0209329 14.4854 0.448271 14.6267 0.84529C15.0906 2.1338 15.5618 3.41869 16.0293 4.70359Z" fill="#94B648"/>
<path d="M20.9436 6.58762C19.6027 7.046 18.1639 8.04216 17.2905 5.93074C20.6899 5.07173 23.9697 3.65329 27.5721 3.76879C27.6953 3.99256 27.8149 4.21273 27.9381 4.4365C27.3075 5.12587 26.3834 5.00316 25.6078 5.28107C24.0132 5.57342 22.6469 6.68507 20.9436 6.58762Z" fill="#E65425"/>
<path d="M0.728273 20.2884C1.01458 21.1438 0.104925 22.4431 1.67779 22.8221C0.565188 23.9879 2.08007 26.0054 0.325996 26.9655C-0.268358 24.6989 -0.000174107 22.4792 0.728273 20.2884Z" fill="#EA591F"/>
<path d="M13.0321 6.31332C13.159 6.44325 13.2822 6.56958 13.409 6.69951C13.4018 7.15789 13.3982 7.61626 13.3909 8.07103C12.0174 7.31669 11.2962 9.17546 9.99875 8.9192C9.6907 8.85785 9.33192 8.88672 9.00937 8.75679C10.0749 7.49716 11.7166 7.17232 13.0321 6.31332Z" fill="#EA6129"/>
<path d="M8.28455 39.8758C9.24131 39.9985 9.46963 39.3164 9.59648 38.692C10.3865 39.2911 11.1693 39.8903 12.0174 40.5327C11.0787 41.1824 10.7997 40.3523 10.3322 40.3342C9.74869 40.3162 10.1908 40.724 10.1691 40.9406C9.4044 40.8215 8.93689 40.1898 8.28455 39.8758Z" fill="#EB6325"/>
<path d="M41.3183 11.6983C40.9885 11.2147 41.3799 10.9729 41.659 10.695C42.4781 11.3121 42.8477 12.2036 43.1739 13.124C42.0685 13.2828 42.1374 11.9149 41.3183 11.6983Z" fill="#EF7A4A"/>
<path d="M44.9497 22.5189C44.6706 22.5153 44.5764 23.3093 44.185 22.7246C43.9676 22.3998 43.6523 21.927 44.1415 21.6418C44.5329 21.4145 44.638 22.0569 44.9678 22.158C44.9606 22.2807 44.9569 22.3998 44.9497 22.5189Z" fill="#E95216"/>
<path d="M38.2088 28.9434C37.5493 29.6183 36.0597 29.7194 36.6106 31.2317C36.2917 31.5132 35.9547 31.5168 35.6031 31.3038C34.6318 29.9865 34.4108 31.9968 33.5772 31.6936C33.628 31.0656 33.6787 30.4051 33.7294 29.741C33.9433 29.5425 34.5557 29.5353 34.0882 29.0083C34.0919 28.651 34.0955 28.2901 34.0955 27.9328C34.3745 27.8101 34.2586 27.6946 34.0919 27.5755C34.2115 27.2218 34.3347 26.8717 34.4543 26.518C34.3963 25.8647 34.7333 25.9008 35.1718 26.1137C35.2153 26.5649 35.3494 26.7778 35.8024 26.4097C36.3497 25.9657 36.3678 25.215 36.8752 24.5906C36.7411 26.0488 38.198 26.0271 38.6981 26.8464C39.1076 27.6729 38.1472 28.189 38.2088 28.9434Z" fill="#EA5C20"/>
<path d="M13.7932 10.9657C14.4963 10.2546 14.0288 9.35953 14.1629 8.56189C14.2136 8.26593 14.2027 7.905 14.5905 7.89418C14.9203 7.88696 15.0834 8.14682 15.1522 8.48248C15.3733 9.60496 15.3987 9.59775 16.3192 9.18268C16.5185 9.09245 16.7976 9.16463 17.0368 9.16463C17.4934 9.66632 17.3593 10.3665 17.6493 10.926C17.6638 11.0956 17.6529 11.258 17.613 11.424C17.2542 12.8425 16.109 13.3911 14.8949 13.8639C14.7645 13.9794 14.634 14.0949 14.5035 14.2104C13.4018 13.9974 12.224 14.5388 11.1657 13.8711C11.0969 13.7051 11.115 13.5499 11.2237 13.4055C11.9377 12.4491 13.2278 12.0881 13.7932 10.9657Z" fill="#8EB240"/>
<path d="M21.3966 33.7473C21.8061 32.9605 21.8351 31.921 22.868 31.5457C23.1072 32.0257 23.147 32.7042 23.948 32.6248C24.3068 32.9966 24.5749 32.9027 24.6329 32.4263C24.7018 31.8741 24.8431 31.4085 25.3904 31.1631L25.4012 31.1919C25.8687 31.9138 25.673 32.6284 25.3831 33.3467C24.8866 33.6535 24.3901 33.9566 23.8936 34.2634C24.0277 34.6352 24.7996 34.1985 24.6329 34.7182C24.5133 35.0936 24.0821 35.6494 23.5348 35.4689C22.0562 34.9817 20.9037 35.9778 19.5918 36.2269C18.9974 35.8732 17.642 36.8801 17.7833 35.2199C17.7616 34.6641 18.2364 34.3248 18.385 33.8448C18.4067 33.6535 18.3632 33.4297 18.6024 33.3322C18.9394 33.3395 19.2765 33.3431 19.6135 33.3503C20.1499 33.7437 20.4543 35.173 21.3966 33.7473Z" fill="#EB5D22"/>
<path d="M33.3525 13.8314C32.7401 14.0696 32.1312 14.3078 31.5187 14.546C30.7069 14.546 29.8915 14.5497 29.0797 14.5497C28.199 14.1562 27.3003 14.593 26.4196 14.4811C25.4121 14.3548 24.3684 14.279 23.5964 13.4741C23.5711 13.3766 23.5421 13.2792 23.5058 13.1854C23.6979 12.8533 24.0313 12.7775 24.3647 12.7017C25.0207 12.3227 25.5027 13.3369 26.1695 12.9219C27.2966 13.5499 27.8693 12.1748 28.826 12.1892C29.0072 12.1748 29.1884 12.182 29.3696 12.2145C30.4859 12.2939 31.6093 12.3083 32.664 12.7522L32.6603 12.7486C32.9031 13.1023 33.5845 13.1745 33.3525 13.8314Z" fill="#97AC40"/>
<path d="M14.8913 13.8639C15.6596 12.9471 16.9099 12.5068 17.4209 11.3374C17.9573 11.6442 17.6021 12.348 18.037 12.7161C18.0697 12.9399 18.2871 12.644 18.0515 12.6837C17.9609 12.6981 17.9029 12.5321 17.9138 12.4021C17.9283 12.2253 18.0008 12.0701 18.1095 11.9329C19.3743 11.341 20.8421 11.5034 22.1105 10.7671C22.7484 10.3954 23.6327 10.6553 24.0494 11.5107C23.832 12.6801 23.0021 12.6476 22.1105 12.4852C20.2405 12.0304 19.3381 12.9904 18.9141 14.6543C18.1276 14.925 17.3013 14.8781 16.8411 14.1996C16.3591 13.4813 16.4895 14.4378 16.2866 14.3187C15.9423 13.7989 15.4603 13.7015 14.8913 13.8639Z" fill="#8CA938"/>
<path d="M16.2938 14.3114C16.3881 14.0119 16.4026 13.4669 16.8954 13.9036C17.4934 14.4305 18.2617 14.362 18.9213 14.6471C18.9612 14.7482 18.9503 14.842 18.8815 14.9286C18.3777 15.8562 18.9757 16.9101 18.5335 17.8449L18.5372 17.8485C17.9537 17.9857 17.3267 17.9532 16.8085 18.3285C16.5584 18.3935 16.3265 18.3755 16.1416 18.1697C16.1887 16.8885 16.2431 15.5999 16.2938 14.3114Z" fill="#90B443"/>
<path d="M18.1421 35.1297C18.3052 35.404 17.7833 36.3785 18.7945 35.7829C19.3635 35.4473 19.5338 35.7144 19.599 36.2269C17.8232 36.8224 17.276 36.5734 16.2032 34.8662C16.0438 34.6135 15.4784 34.646 15.145 34.4692C14.8369 34.3031 14.5869 34.0324 14.3078 33.8051C14.5434 33.1012 15.1994 33.2348 15.4965 33.4153C16.2177 33.852 16.3627 33.6968 16.3627 32.9352C16.3627 32.5526 16.4316 31.9355 17.0332 32.1989C17.5659 32.4299 16.9571 32.946 17.0694 33.3286C17.2941 34.0072 17.7689 34.5377 18.1421 35.1297Z" fill="#EB6127"/>
<path d="M10.1727 17.1014C9.16521 17.5309 7.76268 18.4729 7.1502 17.3757C6.40001 16.0331 8.1722 15.5999 9.03112 14.9106C9.44426 14.6688 9.85741 14.6038 10.2706 14.9142C10.6475 15.2823 10.9736 15.6793 11.0244 16.2316C10.9157 16.6936 10.4808 16.8343 10.1727 17.1014Z" fill="#96AE45"/>
<path d="M16.6961 18.1878C17.2071 17.5309 17.7507 17.0473 18.5335 17.8521C18.5118 18.3358 18.4864 18.8194 18.4647 19.303C18.2436 19.6856 18.3451 20.1079 18.3233 20.5121C18.2907 21.151 18.3668 22.0822 17.6239 22.1002C16.9317 22.1183 16.62 21.2412 16.533 20.5266C16.4823 20.1187 16.4895 19.7073 16.3808 19.3067C16.3337 18.888 16.4062 18.509 16.6961 18.1878Z" fill="#88AC3B"/>
<path d="M11.2563 13.8603C12.3218 14.1165 13.525 13.0843 14.4963 14.2104C13.8294 15.0152 13.014 15.6252 12.0754 16.08C11.8072 16.2027 11.5354 16.2568 11.2491 16.1413C11.057 15.9212 10.9157 15.6757 10.8069 15.405C10.7127 14.8203 10.1473 14.0985 11.2563 13.8603Z" fill="#89AA3B"/>
<path d="M38.2088 28.9434C37.2992 27.9978 38.651 27.5719 38.6945 26.8428C39.2598 26.1895 39.0533 25.363 39.2091 24.6159C39.249 24.421 39.47 24.2405 39.6512 24.1142C39.6984 24.0817 39.9484 24.2622 40.039 24.3885C40.7856 25.4532 39.5715 28.4597 38.2088 28.9434Z" fill="#FDEEE4"/>
<path d="M23.5928 13.4777C25.4194 13.835 27.2495 14.1959 29.0761 14.5533C27.9961 14.6327 26.8038 14.3836 26.3145 15.849C26.1406 16.3687 25.5208 16.5672 25.4411 15.7371C25.3614 14.8961 24.6257 15.2535 24.2886 14.9322C23.9987 14.6038 23.6254 14.3295 23.5783 13.8458C23.5856 13.7231 23.5892 13.6004 23.5928 13.4777Z" fill="#EA5519"/>
<path d="M25.3867 33.3503C24.7815 32.6284 25.5172 31.9138 25.4049 31.1956C26.4377 31.8452 26.9524 31.0368 27.5431 30.4376C28.1483 30.7227 28.6122 31.0945 28.4962 31.8561C28.5288 32.5815 28.1737 32.9677 27.4525 32.9533C26.8436 32.9424 26.3036 33.1518 25.7564 33.3647C25.6332 33.3647 25.51 33.3575 25.3867 33.3503Z" fill="#EF7946"/>
<path d="M25.7528 33.3683C25.8506 32.7295 25.9992 32.1773 26.8762 32.4552C27.4307 32.6284 28.065 32.9063 28.2933 32.0004C28.3948 31.7658 28.518 31.755 28.6629 31.9679C28.6557 32.3144 28.6484 32.6609 28.6376 33.0074C28.007 33.1373 27.5721 33.5344 27.2314 34.0505C27.0031 34.1082 26.7748 34.1768 26.5428 34.2201C26.184 34.2851 25.8216 34.877 25.4955 34.3464C25.3722 34.1443 25.6549 33.7004 25.7528 33.3683Z" fill="#EB5D22"/>
<path d="M16.6852 19.2561C16.6381 20.2342 16.6889 21.1799 17.5985 21.8404C18.5734 21.234 17.758 20.0032 18.4647 19.2994C18.4647 19.9491 18.5009 20.5988 18.4502 21.2448C18.3994 21.8656 18.49 22.7499 17.642 22.7896C16.8954 22.8257 16.6562 22.0064 16.4968 21.3892C16.2938 20.5952 16.2141 19.7686 16.08 18.9566C16.3808 18.8555 16.5439 19.036 16.6852 19.2561Z" fill="#97AD4A"/>
<path d="M4.37413 19.9852C3.54421 20.4688 3.50072 21.6707 2.44248 22.1327C2.31563 20.6276 2.81214 19.5954 4.04071 18.9241C4.42487 19.1948 4.12407 19.6748 4.37413 19.9852Z" fill="#EA591F"/>
<path d="M21.3966 33.7473C21.248 34.1263 21.161 34.545 20.9291 34.8662C20.6609 35.2415 20.1245 35.2451 19.7839 35.108C19.0228 34.8048 19.9288 34.5016 19.86 34.1804C19.7984 33.8989 19.6969 33.6246 19.6135 33.3503C20.4072 32.596 20.7769 33.7329 21.3966 33.7473Z" fill="#F0814F"/>
<path d="M35.5995 31.3002C35.9257 31.1306 36.2591 31.0837 36.607 31.228C36.8281 31.7658 37.2448 32.3289 36.5091 32.7945C36.1793 33.0002 35.8169 32.9785 35.5053 32.7295C34.8674 32.217 35.4763 31.7694 35.5995 31.3002Z" fill="#FBE4D6"/>
<path d="M34.4615 24.3271C34.2404 23.3996 34.9363 23.0134 35.5705 22.8365C36.067 22.6958 35.7988 23.331 35.9148 23.6017C35.6865 24.2116 36.3714 25.1825 35.1863 25.4135C35.1283 25.363 35.074 25.3161 35.016 25.2692C34.8602 25.0237 34.7551 24.7458 34.5775 24.5148C34.534 24.4535 34.4978 24.3921 34.4615 24.3271Z" fill="#EF7C46"/>
<path d="M18.1421 35.1297C17.3811 34.7687 16.5149 34.4728 17.0658 33.3322C17.3158 33.2276 17.5659 33.1229 17.8196 33.0182C18.182 33.2276 18.2074 33.9422 18.8633 33.7148C19.6316 34.6965 17.7217 34.3248 18.1421 35.1297Z" fill="#F18858"/>
<path d="M11.2563 13.8603C10.5967 14.3439 11.0896 14.824 11.2599 15.3076C10.9012 15.6108 10.5424 15.5602 10.1836 15.3112C9.90815 14.8637 9.44426 14.9683 9.03474 14.9178C9.57473 14.1418 10.3829 13.7592 11.2165 13.4091C11.231 13.5571 11.2454 13.7087 11.2563 13.8603Z" fill="#9AA945"/>
<path d="M22.1105 12.4815C22.752 12.2975 23.4297 12.1892 23.9335 11.6875C24.8721 11.8174 24.7888 12.4671 24.68 13.1312C24.2886 13.1493 23.8972 13.1709 23.5022 13.189C22.9658 13.0987 22.5092 12.8461 22.1105 12.4815Z" fill="#9EB357"/>
<path d="M23.948 32.6284C23.1941 32.5346 22.9767 33.3611 22.415 33.6715C21.7844 32.6898 23.263 32.3469 22.868 31.5493C23.5566 31.5781 23.9407 31.9174 23.948 32.6284Z" fill="#EE743B"/>
<path d="M35.1682 26.1137C34.8674 26.1354 34.5956 26.2148 34.4506 26.518C34.2223 26.2653 33.9904 26.0091 33.7621 25.7564C33.7657 25.1717 33.4758 24.4426 34.4579 24.3307L34.4434 24.3199C34.842 24.5798 34.7877 25.1356 35.1718 25.4027L35.1827 25.4135C35.1791 25.6445 35.1755 25.8791 35.1682 26.1137Z" fill="#EF7C46"/>
<path d="M32.2834 32.235C33.0445 32.0834 32.9938 32.4408 32.9974 32.7151C33.001 33.0543 33.059 33.4622 32.6386 33.6065C32.2798 33.7293 32.0877 33.5704 32.1928 33.1662C32.2762 32.8269 31.8848 32.3072 32.2834 32.235Z" fill="#EA5519"/>
<path d="M29.0217 25.0309C29.1304 26.3952 27.4778 25.6048 27.2024 26.4999C27.3148 25.4063 28.1846 25.2403 29.0217 25.0309Z" fill="#EE733B"/>
<path d="M1.23565 21.8259C0.985585 21.169 1.6343 20.772 1.49658 19.9527C2.1308 20.8586 2.1308 20.8586 1.23565 21.8259Z" fill="#EA591F"/>
<path d="M10.7308 32.3036C10.9555 31.7406 11.3832 31.5204 11.8833 31.4193C11.9449 31.4085 12.166 31.7369 12.1334 31.7875C11.8253 32.235 11.4375 32.5562 10.7308 32.3036Z" fill="#EE723E"/>
<path d="M39.9448 31.8777C40.2963 31.3435 40.6443 30.8058 40.9958 30.2716C41.119 31.1053 40.7783 31.6467 39.9448 31.8777Z" fill="#ED6A2F"/>
<path d="M34.0882 29.0047C34.3927 29.1744 35.0233 28.5428 35.0015 29.1599C34.9834 29.7194 34.4253 30.1236 33.7294 29.7374C33.7294 29.4378 33.8019 29.1708 34.0882 29.0047Z" fill="#ED6C33"/>
<path d="M13.8802 40.9767C14.9565 41.1391 15.4784 41.1427 15.9169 41.749C15.1849 41.9006 14.7029 41.7202 13.8802 40.9767Z" fill="#F1844F"/>
<path d="M18.5299 17.8449C18.6423 16.874 18.1603 15.8309 18.8778 14.9286C18.8271 15.9103 18.9974 16.9173 18.5299 17.8449Z" fill="#8CA938"/>
<path d="M31.863 38.6776C32.403 38.8761 32.6386 39.1937 32.4429 39.6376C32.3994 39.7387 32.0805 39.8433 31.9862 39.7856C31.5042 39.4932 31.9138 39.071 31.863 38.6776Z" fill="#EC6629"/>
<path d="M20.9907 21.4794C20.9943 21.7249 20.9834 21.9956 20.65 21.9559C20.5377 21.9414 20.3963 21.7321 20.3601 21.5877C20.3057 21.3712 20.284 21.0571 20.5594 21.003C20.8421 20.9525 20.9255 21.2484 20.9907 21.4794Z" fill="#EB6326"/>
<path d="M32.2834 31.5312C32.4646 30.8996 32.5009 30.2102 33.0119 29.7122C32.8415 30.3438 33.4758 31.3002 32.2834 31.5312Z" fill="#EE7641"/>
<path d="M7.52711 37.5948C7.49812 37.8799 7.30604 38.0135 7.05597 37.9737C6.91826 37.9521 6.72618 37.8041 6.69719 37.6814C6.6392 37.4324 6.78416 37.205 7.05235 37.1797C7.31329 37.1544 7.45825 37.353 7.52711 37.5948Z" fill="#ED6C31"/>
<path d="M27.2314 34.0505C27.2749 33.1337 27.8584 32.9388 28.6376 33.0074C28.4165 33.242 28.1954 33.4766 27.9707 33.7112C27.7931 33.9675 27.5322 34.0541 27.2314 34.0505Z" fill="#EF7946"/>
<path d="M11.2744 16.0222C11.5426 16.0403 11.8108 16.0583 12.079 16.08C11.5752 16.6611 10.9193 16.9642 10.1763 17.105C10.4228 16.8596 10.6692 16.6141 10.9157 16.3687C10.9881 16.2027 11.1041 16.0872 11.2744 16.0222Z" fill="#9AA945"/>
<path d="M28.0722 14.99C28.3331 14.9972 28.5542 15.0983 28.5325 15.3798C28.5143 15.6216 28.3295 15.8273 28.0686 15.7876C27.9345 15.766 27.7642 15.5927 27.7207 15.452C27.6373 15.1885 27.7859 15.0189 28.0722 14.99Z" fill="#EA5519"/>
<path d="M23.5819 13.8458C24.0531 14.0588 24.314 14.4017 24.2923 14.9322C23.7595 14.7626 22.897 14.8023 23.5819 13.8458Z" fill="#ED6B33"/>
<path d="M18.8597 33.7148C17.8993 34.397 17.8921 33.6571 17.816 33.0182C18.1603 32.9244 18.3958 33.094 18.606 33.3322C18.6894 33.4622 18.7764 33.5885 18.8597 33.7148Z" fill="#F9C4A4"/>
<path d="M4.75466 13.9469C4.8199 14.0444 4.97936 14.1743 4.97936 14.3006C4.97573 14.5497 4.80178 14.759 4.53722 14.7301C4.414 14.7157 4.21829 14.5136 4.21829 14.3908C4.21467 14.1382 4.414 13.9938 4.75466 13.9469Z" fill="#EE7C44"/>
<path d="M22.2048 42.4059C22.3787 42.2616 22.4838 42.0991 22.607 42.0847C22.7484 42.0703 22.9984 42.1461 23.0347 42.2471C23.1362 42.5142 22.9332 42.673 22.6831 42.6658C22.5491 42.6622 22.415 42.525 22.2048 42.4059Z" fill="#EF7841"/>
<path d="M8.29542 11.7777C8.07073 11.8752 7.92576 11.9871 7.78442 11.9835C7.51624 11.9799 7.3604 11.7958 7.50174 11.5467C7.5561 11.4493 7.80254 11.3915 7.94388 11.4204C8.05623 11.4457 8.14321 11.6189 8.29542 11.7777Z" fill="#ED6E31"/>
<path d="M6.92188 23.71C6.80953 23.8868 6.74792 24.107 6.6392 24.1358C6.34927 24.2116 6.2333 23.977 6.26592 23.7424C6.28041 23.6197 6.4435 23.4429 6.55585 23.4284C6.65732 23.414 6.78054 23.5945 6.92188 23.71Z" fill="#EC6329"/>
<path d="M4.37413 19.9852C3.93199 19.7362 4.01534 19.3211 4.04071 18.9277C4.99385 19.0143 4.60607 19.5232 4.37413 19.9852Z" fill="#EF7943"/>
<path d="M35.527 20.3497C34.7949 20.3209 34.8058 19.8083 34.8203 19.2886C35.3023 19.4799 35.5379 19.8336 35.527 20.3497Z" fill="#EC6832"/>
<path d="M26.2746 41.435C26.0065 41.7238 25.7419 41.9259 25.3396 41.8934C25.394 41.2149 25.7854 41.269 26.2746 41.435Z" fill="#EF7B41"/>
<path d="M29.0145 18.1914C29.0326 18.722 29.0507 19.2525 28.2969 19.267C28.2824 18.74 28.5433 18.3935 29.0145 18.1914Z" fill="#ED6D37"/>
<path d="M28.2969 34.4403C28.5941 34.5883 28.6557 34.859 28.6811 35.1513C28.5433 35.3354 28.3404 35.5086 28.1556 35.3209C27.8403 35.0069 28.2317 34.7362 28.2969 34.4403Z" fill="#ED6B32"/>
<path d="M7.31329 20.6132C6.99436 20.7937 6.85302 20.9308 6.70081 20.9453C6.57397 20.9561 6.43263 20.8262 6.29853 20.7612C6.39638 20.6421 6.47612 20.4616 6.60296 20.4219C6.71893 20.3822 6.88926 20.4905 7.31329 20.6132Z" fill="#F08450"/>
<path d="M19.8273 16.5889C19.7476 16.3832 19.6316 16.2352 19.6606 16.1305C19.6969 16.0078 19.8563 15.9176 19.9651 15.8165C20.0412 15.9356 20.1934 16.0655 20.1753 16.1666C20.1535 16.2929 19.9941 16.4012 19.8273 16.5889Z" fill="#E96829"/>
<path d="M16.6852 19.2561C16.4823 19.1551 16.2793 19.054 16.0764 18.9529C16.0981 18.6931 16.1199 18.4332 16.138 18.1733C16.3228 18.177 16.5113 18.1806 16.6961 18.1878C16.6925 18.5451 16.6889 18.9024 16.6852 19.2561Z" fill="#9BC76B"/>
<path d="M6.55222 31.9932C6.48699 31.8921 6.35652 31.773 6.3239 31.6323C6.27679 31.4374 6.42538 31.2894 6.61021 31.3544C6.7298 31.3977 6.84215 31.5745 6.87477 31.7117C6.91463 31.8813 6.83853 32.0365 6.55222 31.9932Z" fill="#ED6F39"/>
<path d="M34.0919 27.5719C34.4108 27.6188 34.8022 27.4528 34.9943 27.857C35.0233 27.922 34.9182 28.1313 34.9 28.1277C34.6282 28.0772 34.3637 28.0014 34.0955 27.9292C34.0919 27.8101 34.0919 27.691 34.0919 27.5719Z" fill="#ED6C33"/>
<path d="M24.68 13.1312C24.43 12.6512 24.1835 12.1675 23.9335 11.6875C23.0274 10.8502 22.2483 10.7058 21.2516 11.7236C20.4434 12.5501 19.1895 11.6334 18.1892 12.0701C17.8413 11.8355 17.8123 11.4854 17.8377 11.1172C17.9609 10.0561 19.1569 10.5073 19.5918 9.88649C19.9723 9.12854 20.7008 8.6846 21.2951 8.19374C21.0016 7.46106 20.4724 8.27676 20.2043 7.88335C20.1463 7.26616 21.2408 7.33474 20.9363 6.58762C22.3932 5.94157 23.832 5.24859 25.3976 4.88044C25.8687 5.38213 25.9267 6.04262 26.1007 6.65981C26.0862 6.75004 26.0789 6.84027 26.0789 6.9305C25.9956 7.15789 25.9195 7.38166 25.7455 7.56212C23.7196 9.6591 23.7196 9.6591 25.8941 11.507C25.7781 12.0737 26.2964 12.5609 26.1152 13.1384C25.6368 13.5896 25.162 12.6945 24.68 13.1312Z" fill="#90B33F"/>
<path d="M25.7854 11.6767C24.9663 10.944 23.1688 10.8935 23.2775 9.70602C23.4007 8.36699 24.8504 7.58017 26.0826 6.9305C26.2058 7.07487 26.3326 7.21924 26.4559 7.36361C26.8618 8.10712 26.9306 9.1502 28.1048 9.21517C29 9.53278 30.0147 9.6194 30.6308 10.4856C30.9244 10.7311 31.2578 10.9187 31.5948 11.0992C31.8703 11.2436 32.0587 11.489 32.2798 11.6983C32.6567 11.6045 33.3453 11.2977 32.519 12.034C32.3487 12.1856 32.1203 12.2686 31.9174 12.3841C30.9534 12.7378 29.9857 12.6981 29.0145 12.4094C28.8913 12.4094 28.7717 12.4094 28.6484 12.4094C27.5068 12.8894 26.4993 12.8605 25.7854 11.6767Z" fill="#E6521B"/>
<path d="M32.2798 11.6911C31.9826 11.6875 31.7108 11.6262 31.5514 11.341C31.3013 10.8971 31.3122 9.71324 30.4714 10.9693C29.9894 9.85039 28.7499 10.0597 27.9272 9.53278C28.065 9.05636 27.8403 8.49331 28.2824 8.09268C28.5905 8.10351 28.9891 6.73921 29.221 8.19014C29.3515 9.00583 30.272 8.76762 30.6924 8.70626C31.6999 8.55828 30.4532 7.88696 30.8447 7.47911C31.7543 7.68123 31.6057 8.78205 32.2834 9.16463C32.2798 10.0092 32.2798 10.8502 32.2798 11.6911Z" fill="#EB5C21"/>
<path d="M26.1043 6.6562C24.9845 6.41077 25.5317 5.51206 25.4012 4.87683C26.1985 4.46177 27.0575 4.38597 27.9345 4.42929C28.1773 4.73968 28.9746 4.94541 28.1121 5.45071C27.4416 5.84772 26.7748 6.25557 26.1043 6.6562Z" fill="#90B956"/>
<path d="M39.6947 14.4305C39.4338 14.9394 39.0533 15.4014 38.4517 15.221C38.1037 15.1163 37.2448 15.4123 37.455 14.6182C37.6 14.066 38.2378 13.6906 38.8322 13.6293C39.2598 13.5896 39.557 13.9866 39.6947 14.4305Z" fill="#E95216"/>
<path d="M30.8048 21.6563C31.4499 22.5803 31.8667 23.1938 32.2979 23.8002C32.519 24.1106 32.4356 24.3596 32.1457 24.5401C31.95 24.6592 31.6673 24.8433 31.5042 24.7819C31.073 24.6159 31.5405 24.1503 31.4644 24.107C30.6743 23.6197 30.5438 22.9448 30.8048 21.6563Z" fill="#EC6B30"/>
<path d="M34.8348 15.2859C35.3277 15.0838 35.8097 14.7915 36.3714 15.0189C36.6831 16.4878 35.5777 16.4842 34.7333 16.4517C33.7548 16.412 34.3347 15.7479 34.4615 15.304C34.5811 15.1668 34.7043 15.1668 34.8348 15.2859Z" fill="#F18D5B"/>
<path d="M39.5135 15.7912C40.3543 16.708 40.5065 17.0148 40.695 18.2022C39.2236 17.7366 39.2236 17.7366 39.5135 15.7912Z" fill="#E95216"/>
<path d="M28.2824 8.09268C27.9852 8.5294 29.0435 9.29457 27.9272 9.53278C26.9995 9.10328 25.9231 8.77122 26.4559 7.36C26.5682 7.38166 26.7349 7.36 26.7856 7.42858C27.1662 7.93388 27.5105 8.47888 28.2824 8.09268Z" fill="#E96D32"/>
<path d="M28.6448 30.4701C29.2972 30.2716 30.2757 30.4376 29.8879 29.048C30.812 30.2824 30.591 31.0476 29.3841 31.542C28.7753 31.4338 28.2389 31.2714 28.6448 30.4701Z" fill="#EF7946"/>
<path d="M28.6448 30.4701C28.5723 31.044 29.2138 31.1342 29.3841 31.542C29.1449 31.6828 28.9021 31.8272 28.6629 31.9679C28.5397 31.9788 28.4165 31.9896 28.2933 32.0004C28.0432 31.4807 27.7931 30.961 27.5395 30.4412L27.5431 30.434C27.92 30.1994 28.2897 30.2066 28.6448 30.4701Z" fill="#F5AA87"/>
<path d="M29.0181 12.4058C29.9857 12.3985 30.9534 12.3877 31.921 12.3805C32.1675 12.5068 32.4139 12.6331 32.6603 12.7595C31.4463 12.644 30.1706 13.142 29.0181 12.4058Z" fill="#9EA342"/>
<path d="M32.2798 9.16824C32.9213 8.64129 32.9213 8.64129 33.2837 9.91897C32.606 10.1103 32.7219 9.25848 32.2798 9.16824Z" fill="#EB5C21"/>
<path d="M34.8348 15.2859C34.7116 15.2932 34.5884 15.2968 34.4651 15.304C33.8055 14.6146 34.476 14.3548 34.7913 13.8928C35.353 14.4522 34.6935 14.8564 34.8348 15.2859Z" fill="#EF793D"/>
<path d="M28.6484 30.4701C28.2824 30.4593 27.9127 30.4448 27.5467 30.434C27.4778 30.1669 27.4126 29.8998 27.3438 29.6327C28.0613 29.4703 28.2498 30.1344 28.6484 30.4701Z" fill="#EF7946"/>
<path d="M29.7502 25.0382C29.5074 24.6808 29.2645 24.3199 29.0181 23.9626C29.0833 23.5981 29.2138 23.1541 29.5581 23.728C29.7683 24.0781 29.6886 24.6014 29.7393 25.049L29.7502 25.0382Z" fill="#EF7945"/>
<path d="M29.7393 25.049C30.1959 25.2655 30.5837 25.5254 30.3953 26.157C29.5327 26.1462 29.8299 25.4821 29.7538 25.0382C29.7502 25.0382 29.7393 25.049 29.7393 25.049Z" fill="#EF7B48"/>
<path d="M41.3111 20.0141C41.119 20.0863 40.9197 20.2162 40.8617 20.1693C40.7494 20.079 40.6624 19.8914 40.6624 19.7398C40.6624 19.5593 40.8146 19.4149 41.003 19.5413C41.1263 19.6279 41.1806 19.8083 41.3111 20.0141Z" fill="#F0834E"/>
<path d="M37.3282 7.72815C37.5058 7.42136 37.7486 7.34918 38.0349 7.55851C38.2487 7.71371 38.3248 7.91222 38.0711 8.11434C37.8247 7.98802 37.5746 7.85808 37.3282 7.72815Z" fill="#EF7941"/>
<path d="M31.7978 20.9236C31.8014 21.1835 31.6854 21.3206 31.5042 21.2593C31.3846 21.2196 31.2759 21.0427 31.2397 20.9092C31.1962 20.7395 31.2904 20.5591 31.5042 20.6349C31.6347 20.6782 31.7217 20.8406 31.7978 20.9236Z" fill="#ED6B33"/>
<path d="M33.3525 13.8314C33.1206 13.4705 32.8886 13.1132 32.6567 12.7522C33.1895 12.9183 34.0955 12.8461 33.3525 13.8314Z" fill="#9EA342"/>
<path d="M19.5954 9.88649C19.9252 10.2077 19.9832 10.4965 19.4323 10.5831C18.9829 10.6553 18.4719 10.4965 18.1494 10.9729C17.9066 11.1822 17.6638 11.1822 17.4246 10.9657C16.4098 10.5578 17.0295 9.79265 17.0332 9.16463C18.037 8.88672 18.6531 9.96589 19.5954 9.88649Z" fill="#B9D488"/>
<path d="M17.4282 10.9657C17.671 10.9693 17.9102 10.9693 18.153 10.9729C18.1675 11.3374 18.1784 11.7019 18.1929 12.0701C18.124 12.3444 18.1965 12.8966 17.9356 12.8316C17.1201 12.6295 17.5442 11.8608 17.4209 11.3374C17.4209 11.2111 17.4246 11.0884 17.4282 10.9657Z" fill="#9BC05A"/>
<path d="M25.7854 11.6767C26.7277 11.969 27.6156 12.4671 28.6484 12.4058C27.862 12.8497 27.3075 14.0804 26.1188 13.1384C25.9159 12.6728 25.2744 12.3047 25.7854 11.6767Z" fill="#9ABA53"/>
<path d="M11.2744 16.0222C11.1548 16.1377 11.0352 16.2532 10.9157 16.3651C10.6728 16.0114 10.43 15.6613 10.1872 15.3076C10.546 15.3076 10.9048 15.304 11.2636 15.304C11.2636 15.5458 11.2708 15.784 11.2744 16.0222Z" fill="#9CBC53"/>
<path d="M35.1755 25.4027C34.4035 25.3919 34.4615 24.8324 34.447 24.3199C35.7916 23.9446 34.8819 25.0743 35.1755 25.4027Z" fill="#EA5519"/>
<path d="M30.4714 10.9693C30.4714 10.7347 30.4532 10.5001 30.475 10.2691C30.5112 9.90092 30.3192 9.3451 30.9389 9.33788C31.3194 9.33427 31.5006 9.72768 31.5477 10.0922C31.6021 10.5037 32.1312 10.926 31.5477 11.341C31.1926 11.2147 30.8338 11.092 30.4714 10.9693Z" fill="#EE7234"/>
</svg>
