<svg width="35" height="47" viewBox="0 0 35 47" fill="none" xmlns="http://www.w3.org/2000/svg">
<path d="M31.7677 28.6333C31.1682 30.0041 30.5688 31.3785 29.973 32.7492C29.3292 32.8893 29.9471 33.5341 29.5586 33.7773C29.1885 34.5216 28.8185 35.2659 28.4485 36.0103C28.1857 36.1282 27.8194 36.0877 27.6973 36.4303C27.2791 37.6132 26.5724 37.6905 25.6584 36.9646C24.2522 35.8445 24.2855 37.5395 23.6676 37.9669C22.143 37.5653 21.3882 38.9692 20.2299 39.4261C20.056 39.4519 19.8895 39.4298 19.7267 39.3597C18.1318 38.0406 19.4603 36.6662 19.8007 35.4207C20.0079 34.6653 20.0486 34.061 19.8303 33.372C19.8488 33.0735 20.0301 32.9003 20.2928 32.7935C20.6592 32.6755 20.9848 32.8008 21.2956 32.9814C21.662 33.2541 22.0875 33.4309 22.4465 33.7183C22.217 33.1988 21.6028 33.3351 21.2808 32.9703C20.5889 32.5392 20.6962 31.8907 20.9626 31.338C22.1467 28.8618 23.0866 26.2972 23.9007 23.681C23.9932 23.3862 24.1967 23.1467 24.4669 22.9772C25.2032 22.7303 25.8323 23.1062 26.4836 23.3346C26.898 23.482 27.2828 23.611 27.4494 23.0214C27.7343 22.5608 28.4929 21.9344 28.5151 22.6566C28.5595 24.1158 29.492 22.8519 29.751 23.2683C30.2875 23.5741 30.1358 24.0716 30.0877 24.5322C30.0433 24.9964 30.2579 25.1807 30.702 25.1586C30.8685 25.1623 31.0165 25.2102 31.1571 25.2875C31.7381 25.7187 31.986 26.2861 31.8676 27.001C31.6641 27.5316 32.134 28.1101 31.7677 28.6333Z" fill="#639F35"/>
<path d="M6.9789 6.88203C8.11862 6.72727 9.26203 6.54672 10.3388 7.16945C10.4277 7.25788 10.4684 7.35737 10.461 7.46055C10.4536 7.57109 10.4388 7.62268 10.4128 7.62268C10.1131 7.87693 9.80229 7.93957 9.44705 7.64847C9.67647 8.04643 10.2056 7.95799 10.4128 8.3191C10.3721 9.64931 11.0974 10.8542 11.0456 12.1881C10.7681 13.8721 9.9059 15.3091 9.11772 16.7794C9.06221 17.0815 8.33694 16.4809 8.52566 17.2768C8.65517 17.8185 8.48865 18.5518 7.54506 18.1354C7.35264 17.848 7.17502 17.5311 6.73098 17.6269C5.67637 16.9562 4.35904 16.6651 3.63377 15.5155C3.40064 15.217 3.37844 14.6606 2.76788 14.8264C2.60506 14.7785 2.47925 14.6864 2.38304 14.5501C2.23873 14.1963 2.30533 13.8537 2.46445 13.4483C1.78358 13.6289 1.85389 14.7454 1.11751 14.5538C0.588359 14.4137 0.69937 13.7836 0.765977 13.3083C0.969498 12.914 0.725273 12.4129 1.08791 12.0592C1.60596 11.5322 1.42834 10.6147 2.14252 10.1947C2.54216 9.99936 3.24893 11.0569 3.46725 9.77828C3.55236 9.27715 4.51816 9.28083 5.11022 9.26241C6.72358 9.21082 7.31564 8.42596 6.9789 6.88203Z" fill="#649C36"/>
<path d="M15.8228 46.7662C14.635 46.6372 13.7543 45.9297 12.8736 45.2186C12.5036 44.4742 11.6414 43.7741 12.6775 42.9156C12.9291 42.8898 13.214 43.1588 13.4398 42.8382C13.5989 42.595 13.7469 42.3444 13.9948 42.1823C14.4389 42.1897 14.8829 42.2486 15.3195 42.1233C15.7451 42.4881 15.9079 41.4969 16.3482 41.9244C16.4371 42.0644 16.4963 42.2155 16.5185 42.3776C16.6369 42.4918 16.5185 42.8492 16.5814 42.7497C16.9255 42.197 17.3066 41.6554 17.3992 40.9589C17.599 39.4887 18.376 38.7849 19.9265 39.3082C21.6398 39.2492 20.9108 40.83 21.4585 41.5559C21.7064 41.7254 21.9839 41.7806 22.2799 41.7585C22.9386 41.7254 23.3234 41.0437 23.9969 41.0511C24.2448 41.1542 24.4151 41.3348 24.4928 41.5927C24.267 43.203 23.2309 44.3747 22.0468 45.2554C20.9182 46.0955 19.5269 45.8339 18.402 44.9459C17.8876 44.5406 18.0134 45.1117 17.8358 45.2112C17.5176 45.5539 17.055 45.7197 16.7738 46.1029C16.5111 46.4087 16.2187 46.6593 15.8228 46.7662Z" fill="#6AA53C"/>
<path d="M11.5008 45.2665C8.05201 47.2784 2.63837 45.5133 1.37654 41.2464C1.23222 40.7231 1.38394 40.1815 1.82798 40.0046C2.86039 39.5919 3.34884 38.9323 3.32293 37.8232C3.31183 37.381 3.58196 36.9683 4.09631 36.9941C4.9474 37.0346 5.72448 36.5151 6.58666 36.7251C7.40074 38.3722 7.53026 40.1667 7.72638 41.9465C6.90119 43.9068 6.10932 41.7807 5.27673 41.858C5.15092 41.8691 4.9215 41.6111 4.73278 41.9207C4.53666 42.2486 4.47745 42.595 4.54406 42.9635C4.67357 43.4904 4.86969 43.951 5.50615 44.0173C5.9502 43.8662 6.55336 44.5663 6.86419 43.7446C7.18982 43.1551 7.75228 43.2509 8.28513 43.2509C8.84389 43.5014 9.13992 43.9584 9.31384 44.5148C9.34714 44.7285 9.04001 45.167 9.63577 45.0343C10.0465 44.9422 10.4499 44.8206 10.8791 44.8759C11.1455 44.9201 11.3675 45.0233 11.5008 45.2665Z" fill="#69A339"/>
<path d="M8.82169 16.842C9.18062 15.147 10.4277 13.791 10.6756 12.0518C12.189 11.3333 12.5961 9.80039 13.3028 8.49229C13.9763 8.62862 14.7386 8.9013 15.042 7.99116C15.1271 7.74059 14.1317 7.94694 14.3574 7.25051C15.2566 7.16945 16.1817 6.86361 16.9958 7.54898C17.4769 8.21224 17.1771 8.71337 16.6665 9.17397C16.6776 9.384 15.8598 9.35084 16.5111 9.74143C17.3769 9.73774 18.2317 9.70458 19.0865 9.73406C19.3715 9.74143 19.649 9.78196 19.9228 9.86303C20.3928 10.0362 20.7406 10.3199 20.8442 10.8321C20.7998 11.4806 20.3446 11.5986 19.8192 11.5728C19.3863 11.5507 19.0717 11.488 18.8645 12.0813C18.5389 13.0061 17.6804 12.7482 17.2659 12.2913C16.0707 10.9795 14.8681 11.5212 13.6211 12.0628C12.9143 12.7961 11.4342 13.0246 11.9929 14.5759C11.8486 15.147 11.5563 15.6555 11.2861 16.1714C10.5905 16.9083 11.0123 18.0654 10.3092 18.7986C10.4017 19.1561 10.609 19.4619 10.7459 19.7972C10.9198 20.1989 10.9642 20.6115 10.8532 21.0353C10.535 22.2439 10.1353 22.3287 9.04741 21.4222C8.56636 20.9174 8.81059 20.1067 8.26663 19.6277C8.21483 19.4619 8.19263 19.2887 8.20003 19.1155C8.44055 18.3638 8.45165 17.5532 8.82169 16.842Z" fill="#5E9834"/>
<path d="M32.9407 12.3834C33.2923 12.5529 33.481 12.8477 33.5994 13.2051C33.5883 14.5059 34.1951 15.7366 34.1026 17.0189C34.0434 17.8443 34.6688 19.5614 32.5559 18.7176C32.3191 18.6218 32.0119 19.3403 31.505 19.2334C30.3172 18.7986 30.48 19.9372 30.0914 20.4347C29.5438 20.8695 29.3477 20.3684 29.0775 20.0588C28.9887 19.9041 28.9258 19.7419 28.8851 19.5724C28.8222 19.2224 28.8592 18.8797 28.9332 18.537C29.0997 17.6342 29.3181 16.7388 29.4217 15.8213C29.3995 15.1949 29.3699 14.5722 28.5521 14.4469C27.8157 14.5169 27.3125 15.1839 26.5613 15.217C25.9433 15.1433 25.4586 14.7638 24.9146 14.5169C24.2929 14.0821 23.9895 13.4446 23.7823 12.7482C23.749 12.365 23.8378 12.0444 24.2485 11.9007C24.3077 11.9007 24.3892 11.8786 24.4299 11.9081C26.3393 13.3488 26.3393 13.3488 28.0081 11.9339C28.319 11.9744 28.5854 12.1292 28.837 12.2987C30.1876 13.1941 31.5494 13.382 32.9407 12.3834Z" fill="#66A039"/>
<path d="M16.215 9.08922C16.6813 8.67653 17.0883 8.23804 16.9958 7.5453C17.9949 6.44723 17.9801 4.8812 18.7794 3.69101C19.142 3.15303 19.3566 2.50451 19.9376 2.12498C20.637 1.98495 21.2845 1.64227 22.0098 1.61647C22.6241 1.59437 23.0311 1.92968 23.2938 2.41976C23.5862 2.96511 23.3456 3.31885 22.7758 3.48098C22.0394 3.39254 21.4252 3.75365 20.7998 4.04475C20.6074 4.0079 20.3668 3.84209 20.2706 4.16635C20.1818 4.4685 20.4298 4.52009 20.6444 4.58641C20.7739 4.68222 20.859 4.80013 20.9145 4.94752C21.3808 5.8982 19.7674 6.72727 20.7591 7.70374C20.97 7.82166 21.1402 7.97642 21.2734 8.17908C21.5288 8.66547 21.773 9.15923 22.143 9.57561C22.6685 10.1947 23.5159 10.53 23.7638 11.3922C23.7564 11.5728 23.6787 11.7202 23.5455 11.8381C22.909 12.1513 22.3391 11.8676 21.7656 11.6317C21.366 11.4585 20.9626 11.289 20.6851 10.9316C20.4298 10.6884 20.1781 10.4452 19.9228 10.202C19.7489 10.0288 19.6268 9.83355 19.5676 9.59035C19.5232 9.4098 19.5639 9.19977 19.4159 9.045C19.3937 9.22556 19.4936 9.38769 19.4862 9.56456C19.4788 9.81513 19.3566 10.0178 19.1827 10.1947C18.0726 10.1947 16.9588 10.191 15.8487 10.191C15.6267 9.71195 16.2631 9.51297 16.215 9.08922Z" fill="#86B044"/>
<path d="M8.45905 19.7898C8.9364 19.5724 9.32494 19.5651 9.12142 20.2394C9.00671 20.6189 9.04371 20.9248 9.19173 21.2527C9.19913 21.9123 9.35824 22.5608 9.29164 23.2241C9.16952 24.2595 8.84019 25.2728 8.9549 26.334C8.966 26.6214 8.966 26.9088 8.9512 27.1963C8.9438 28.1469 8.62557 29.0571 8.57746 30.0041C8.15192 31.7433 8.29253 33.512 8.28513 35.2733C8.21113 35.7155 7.9373 36.1466 8.23333 36.6072C8.68477 37.9374 7.84479 39.3118 8.37394 40.6384C8.54046 41.2979 8.75878 41.9354 9.24353 42.4439C9.70978 43.1698 10.2648 43.7704 11.1344 44.0578C11.6266 44.22 12.2445 44.4521 11.7931 45.2112L11.6599 45.2959L11.5045 45.2665C11.2269 45.2333 10.9457 45.2038 10.6682 45.1707C10.1982 44.8796 9.41745 45.2444 9.16582 44.4816C8.81799 44.1021 8.46645 43.7225 8.11862 43.343C7.64497 43.1293 7.55246 42.6503 7.35634 42.2412C7.18982 40.362 6.75318 38.538 6.27213 36.7214C6.20182 36.6588 6.13152 36.5962 6.06121 36.5372C5.9132 36.2903 5.85029 36.0176 5.82809 35.7302C5.80588 35.2512 5.87989 34.7869 6.07231 34.3447C6.62367 32.5576 6.80499 30.7189 6.86419 28.8618C6.86419 28.5928 6.89009 28.3275 6.9271 28.0622C6.90119 26.4483 7.30454 24.8896 7.56726 23.3125C7.62647 22.8851 7.68567 22.4613 7.79298 22.0412C7.9225 21.6212 7.9854 21.1901 8.02241 20.7516C8.06681 20.3868 8.14082 20.033 8.45905 19.7898Z" fill="#568E32"/>
<path d="M6.22403 34.5216C6.22033 35.0191 6.21663 35.5165 6.20923 36.014C5.9317 36.2645 5.9576 36.504 6.23513 36.7362L6.26103 36.7251C6.17962 36.8136 6.11672 36.9462 6.01681 36.9794C4.80308 37.4142 3.31553 37.3884 3.42284 39.4298C3.47835 40.4357 1.45055 39.9161 1.37284 41.25C0.79558 40.3178 0.640164 39.2381 0.329333 38.2175C-0.0111011 37.8416 0.192419 37.3773 0.129513 36.9573C0.118412 36.6035 0.259026 36.3051 0.484749 36.0434C0.603161 35.9366 0.743775 35.8813 0.899191 35.8703C1.62816 35.3323 2.27943 34.8348 3.32663 35.3802C4.34424 35.9108 4.44045 34.9306 4.64027 34.2637C5.28413 33.6815 5.81329 33.7736 6.22403 34.5216Z" fill="#6FA93D"/>
<path d="M31.3792 19.0492C31.6197 19.0308 31.8121 19.005 31.9453 18.7249C32.5596 17.4058 32.5707 17.4132 33.4995 18.7581C33.8732 17.4721 33.9657 16.1087 33.333 15.0733C32.7705 14.1558 33.2589 13.7836 33.6031 13.2088C35.7974 16.3188 34.9833 19.5577 34.0175 22.804C33.8621 22.7082 33.8177 22.5608 33.8288 22.3876C31.7196 22.7745 31.6826 22.7782 31.5087 20.9469C31.4569 20.3794 31.3089 19.9078 30.9647 19.4766C30.9314 19.1671 31.0202 18.9792 31.3792 19.0492Z" fill="#6EA940"/>
<path d="M15.8228 46.7662C15.9597 46.3756 16.215 46.0992 16.5999 45.9445C16.8885 45.576 17.3769 45.506 17.7063 45.2075C17.4584 44.7801 17.488 44.419 17.9135 44.0984C18.3168 43.7925 18.6018 44.1426 18.6166 44.3489C18.6869 45.3733 19.427 44.9348 19.9561 45.108C21.995 45.786 22.4465 44.0615 23.342 43.0224C23.7305 42.5692 24.0302 42.0386 24.3707 41.5411C24.3892 41.1727 24.4558 40.83 24.8221 40.631C25.3365 40.5057 25.7102 40.6642 25.8952 41.18C24.2115 45.4028 19.9191 47.7832 15.8228 46.7662Z" fill="#639C36"/>
<path d="M25.8915 41.1763C25.5178 41.0474 25.1477 40.9221 24.774 40.7931C24.6482 40.6826 24.5964 40.5389 24.6001 40.3731C24.6593 40.0525 24.7999 39.7651 24.9405 39.474C25.0996 39.1055 25.3179 38.7628 25.4697 38.3096C25.2143 38.656 24.9368 38.8476 24.5631 38.8549C23.9821 38.7591 23.4715 38.597 23.6232 37.8342C23.7934 37.4952 23.7009 37.1231 23.749 36.7841C23.86 35.9661 24.193 35.2402 25.1218 36.1982C25.5881 36.6809 26.4688 36.4267 26.6945 37.0752C27.7639 37.3994 26.6427 34.5916 28.4485 36.0029C27.7047 37.7863 27.1311 39.6435 25.8915 41.1763Z" fill="#6AA93B"/>
<path d="M11.7931 45.2112C11.7487 44.8206 11.5933 44.5074 11.1529 44.489C9.9096 44.4263 9.30644 43.5862 8.81429 42.606C8.69958 42.3223 8.85499 42.1454 9.05481 41.9833C9.53216 41.6738 9.9688 41.3053 10.4795 41.04C11.708 40.4283 12.7108 41.2095 13.7802 41.5817C13.98 41.7622 14.1354 41.9612 14.017 42.2523C14.0059 42.5508 13.9467 42.8308 13.6544 42.9929C13.3953 43.2177 13.1363 43.2177 12.881 42.9893C11.7857 43.7336 13.5619 44.4779 12.881 45.2222C12.511 45.2186 12.152 45.2149 11.7931 45.2112Z" fill="#669E36"/>
<path d="M6.9789 6.88203C7.99281 8.17171 7.72268 8.93815 6.29063 9.46139C5.36554 9.7967 4.07041 9.1924 3.49315 10.6663C3.28593 11.1969 2.44965 10.8321 2.14252 10.1947C3.22302 8.32647 4.65507 6.95942 6.9789 6.88203Z" fill="#6CA53D"/>
<path d="M13.3139 8.69495C13.5434 10.6774 12.4962 11.6649 10.6756 12.0518C10.2944 11.0422 10.7163 9.6751 9.31384 9.23293C9.47295 8.59914 10.4128 9.18503 10.3018 8.38543C10.3129 8.13855 10.0613 7.89167 10.3055 7.64479C10.3166 7.48634 10.3277 7.32789 10.3388 7.16945C11.0641 7.17313 11.5785 7.65216 12.1631 7.9801C12.5517 8.38911 13.0105 7.57846 13.3953 8.05011C13.4916 8.27857 13.4768 8.49597 13.3139 8.69495Z" fill="#6BA63A"/>
<path d="M31.0239 19.414C31.8454 19.5061 32.0859 19.823 31.912 20.7368C31.6419 22.1481 32.3598 22.5018 33.7104 22.0523C34.1988 21.8902 33.8399 22.5645 34.0175 22.7966C33.8177 23.9463 33.3996 25.0186 32.8482 26.0392C32.6632 26.0982 32.4634 26.0724 32.3635 25.9176C31.9046 25.2028 31.6345 25.0701 31.0276 25.306C30.3431 24.8159 30.2357 24.1268 30.3468 23.3604C30.4134 22.8593 31.0572 22.3987 30.443 21.8533C29.8879 21.2269 30.5318 20.5931 30.4245 19.963C30.4911 19.6425 30.5318 19.2813 31.0239 19.414Z" fill="#649F38"/>
<path d="M22.5242 3.22304C22.8202 3.16777 23.2457 3.05723 23.0422 2.71823C22.7906 2.30185 22.4687 1.85967 21.7471 2.04391C21.1809 2.18393 20.5704 2.8693 19.9413 2.13234C21.7212 -0.11169 22.3391 -0.343832 24.7111 0.337854C23.6047 1.248 24.7185 2.0218 24.9368 2.8214C25.3253 2.61505 24.9627 1.67912 25.799 1.76018C26.0395 2.73665 26.3726 3.73523 25.1366 4.33216C24.0931 4.35796 22.8387 4.88488 22.5242 3.22304Z" fill="#82AC3F"/>
<path d="M22.5242 3.22304C23.3531 3.68364 24.1338 4.26215 25.1329 4.32848C23.0052 4.6859 22.4021 6.36985 21.8359 8.08696C21.3919 7.70006 21.4844 8.75759 21.044 8.38174C20.9145 8.25278 20.785 8.12381 20.6555 7.99484C19.9968 7.41633 20.2521 6.80097 20.5704 6.16719C20.8072 5.69185 21.229 5.21651 20.6666 4.68222L20.6481 4.67116C20.4372 4.42428 20.4705 4.18109 20.6703 3.94526C21.192 3.46255 21.4992 2.4345 22.5242 3.22304Z" fill="#86B040"/>
<path d="M32.9407 12.3834C31.4643 14.2737 30.2616 14.1927 28.071 12.0555C28.4966 11.6501 28.9369 11.7865 29.4106 12.0223C28.8814 11.5838 28.1043 11.8676 27.6344 11.3591C27.5715 11.1822 27.5937 11.0164 27.6899 10.8579C28.2819 10.6074 28.9591 10.9758 29.5327 10.5963C30.9018 10.7511 32.023 11.3775 32.9407 12.3834Z" fill="#70AA45"/>
<path d="M23.6306 11.3185C23.0126 10.8248 22.3947 10.331 21.7767 9.83723C22.069 9.37295 22.391 8.93446 22.8942 8.67284C24.1856 8.58072 25.2069 8.98973 25.7953 10.2094C25.54 11.4806 24.7259 11.6723 23.6306 11.3185Z" fill="#74A842"/>
<path d="M25.7953 1.7565C25.392 2.06602 25.4919 2.51556 25.4512 2.92826C25.4253 3.18251 25.3253 3.48098 25.0589 3.43676C24.7666 3.38886 24.0783 3.23041 24.4003 2.89878C25.2661 1.99232 20.7739 1.53541 24.2522 0.606843C24.4188 0.562626 24.5594 0.429973 24.7111 0.334169C25.3105 0.625267 25.6991 1.0785 25.7953 1.7565Z" fill="#95BD50"/>
<path d="M23.6306 11.3185C24.4114 11.0643 25.3402 11.0937 25.7953 10.2094C26.2578 11.2411 27.1052 10.1983 27.6936 10.5595C27.8231 10.6405 27.8675 10.729 27.8305 10.8174C27.7935 10.9095 27.7528 10.9574 27.7121 10.9574C27.7084 11.0753 27.7084 11.1932 27.7047 11.3075C26.7315 12.1881 25.4845 11.8381 24.3633 12.0444C24.0635 12.2029 24.0006 12.4755 24.0006 12.7814C24.1597 13.1388 23.9266 13.2457 23.6491 13.3194C23.1125 13.2751 22.8905 12.9103 22.7573 12.4571C22.6944 11.8196 23.3753 11.9707 23.6158 11.6538C23.6269 11.5433 23.6306 11.4327 23.6306 11.3185Z" fill="#568C37"/>
<path d="M31.0239 25.3133C31.8565 25.0554 31.7492 23.9647 32.567 23.5889C33.3515 24.3479 31.5272 25.4091 32.8445 26.0429C32.7483 26.2972 32.6484 26.5514 32.5522 26.8057C32.171 27.2589 31.7899 27.4468 31.4088 26.8094C31.875 26.1572 30.9203 25.8697 31.0239 25.3133Z" fill="#69A53B"/>
<path d="M13.3139 8.69495C13.3065 8.47018 13.2991 8.24172 13.2954 8.01695C13.4916 7.80323 13.2029 7.70374 13.1807 7.54161C13.5101 7.17682 13.9171 7.13997 14.3611 7.2542C14.7238 7.82166 15.3935 7.46792 16.0078 7.82903C14.9384 8.0538 15.1752 9.1924 14.4574 9.6751C13.8727 9.5793 14.0096 8.63231 13.3139 8.69495Z" fill="#8BBD5A"/>
<path d="M22.8979 8.67284C22.6241 9.15186 22.539 9.81881 21.7804 9.83723C21.5695 9.3361 21.0181 9.00079 21.044 8.37806C21.477 8.7318 21.1143 6.95573 21.8359 8.08328C22.0468 8.53282 22.5353 8.4886 22.8979 8.67284Z" fill="#6A9730"/>
<path d="M31.4051 26.8057C31.7862 27.0231 32.1673 26.9825 32.5485 26.802C32.4523 27.48 32.2154 28.099 31.7677 28.6296C31.6456 28.0253 31.5272 27.4137 31.4051 26.8057Z" fill="#84B35B"/>
<path d="M29.5586 33.7773C29.7436 33.2098 28.6372 33.0477 29.0886 32.4876C29.3736 32.1302 29.6622 32.6829 29.973 32.7492C29.9619 33.1435 29.8657 33.5046 29.5586 33.7773Z" fill="#ABD08E"/>
<path d="M13.177 7.53793C13.3472 7.62636 13.5175 7.7148 13.6877 7.80323C13.5545 7.87324 13.425 7.94325 13.2917 8.01326C12.9106 8.07591 12.5184 8.60283 12.1594 7.97642C12.4999 7.83271 12.8366 7.68532 13.177 7.53793Z" fill="#5E9834"/>
<path d="M27.7121 10.9611C27.7047 10.8284 27.701 10.6958 27.6936 10.5631C28.3116 10.3863 28.9221 10.3826 29.5327 10.5963C29.022 11.1822 28.3227 10.8469 27.7121 10.9611Z" fill="#5E9834"/>
<path d="M23.6195 13.1609C23.7453 13.0356 23.8711 12.9103 24.0006 12.7851C24.3707 13.2788 24.7444 13.7689 25.1144 14.2627C25.6066 14.7343 25.9803 15.2686 26.0284 15.9761C26.0062 16.5067 25.8064 17.0447 26.0839 17.5679C26.1838 17.6932 26.28 17.8148 26.3874 17.9327C27.0053 19.2777 28.1931 18.0248 28.9961 18.5002C29.0553 18.5591 29.1182 18.6218 29.1774 18.6844C29.1774 19.0566 29.1737 19.4287 29.1737 19.8009L29.17 19.7972C29.4254 20.0367 29.6807 20.2726 29.9397 20.5121C30.1284 20.3094 30.2394 19.963 30.6317 20.1473C31.2718 20.6337 30.0655 21.1495 30.6576 21.6359C30.8648 21.8496 30.9166 22.1039 30.8611 22.3876C30.4578 22.6713 30.7575 23.5631 29.9212 23.4783C29.5364 22.9882 28.2856 24.8012 28.3819 22.8924C28.4004 22.5571 28.1968 22.5497 27.6936 23.4673C27.4383 23.692 27.1644 23.692 26.8721 23.5483C26.3504 23.2941 26.0432 22.8998 26.0136 22.3139C25.6399 22.7598 25.2143 23.0325 24.6186 22.7119C24.119 21.8496 24.478 21.0721 24.8554 20.2947C25.2291 19.823 25.651 19.9557 26.1024 20.221C25.9137 19.7272 25.3698 19.8451 25.07 19.5688C24.7925 19.3256 24.6186 19.016 24.4817 18.6844C24.4188 18.5149 24.3744 18.3417 24.3448 18.1612C24.2744 17.6342 24.2855 17.0999 24.2781 16.5693C24.2818 15.895 24.3114 15.217 24.0043 14.5869C23.8489 14.1116 23.3753 13.7284 23.6195 13.1609Z" fill="#5E9834"/>
<path d="M23.6232 37.8416C23.8378 38.3354 24.2226 38.5749 24.7592 38.5786C24.9923 38.9028 25.0182 39.2934 25.1181 39.6656C25.1033 39.9788 25.0404 40.2625 24.737 40.4283C24.4854 40.6752 24.4151 41.1137 23.9673 41.1506C23.4678 41.7143 22.9608 42.2597 22.1208 42.256C22.0135 41.8765 21.6176 42.0681 21.403 41.8986C20.8849 41.7733 20.1596 41.8064 20.7073 40.9184C21.2771 39.9935 20.4816 39.7061 19.9265 39.3118C21.0551 38.5712 21.884 37.0752 23.6232 37.8416Z" fill="#639C36"/>
<path d="M24.737 18.6807C25.0367 18.8429 25.0996 19.1192 25.107 19.425C25.3216 19.6682 25.3216 19.9114 25.107 20.1546C24.9849 21.0169 24.8628 21.8791 24.7407 22.7377C24.848 22.8187 24.885 22.8998 24.848 22.9846C24.811 23.0656 24.7777 23.1062 24.7407 23.1062C24.3151 23.353 24.2966 23.8321 24.1893 24.2153C23.4937 26.6767 22.5168 29.0239 21.4326 31.3343C21.1772 31.8759 20.9626 32.4692 21.403 33.0477C21.0329 33.0477 20.6629 33.0477 20.2891 33.0514C19.5787 32.0639 20.4187 31.3122 20.674 30.472C21.1365 29.525 21.3622 28.4896 21.8026 27.5353C22.1837 25.9029 23.3827 24.4511 22.8461 22.6161C22.7758 22.3766 23.0866 22.2255 23.3123 22.1223C24.2263 21.3411 23.7379 20.2136 24.008 19.2777C24.1412 18.9423 24.2411 18.5665 24.737 18.6807Z" fill="#5A9233"/>
<path d="M19.9265 39.3118C18.587 39.5292 17.6545 39.8867 17.7026 41.6664C17.7211 42.3113 17.0328 43.7152 15.7303 43.9952C15.4528 43.214 16.3741 42.9008 16.2298 42.2597C16.5 40.8042 17.2326 39.5256 17.7951 38.1843C18.2798 37.1931 18.6684 36.1724 18.809 35.0707C18.957 34.4737 19.2678 33.9726 19.7082 33.5452C19.7822 33.5046 19.8599 33.4641 19.9376 33.4272C20.6185 34.0168 20.8664 34.4111 20.2632 35.4576C19.6601 36.493 18.7831 37.9337 19.9265 39.3118Z" fill="#5D9834"/>
<path d="M21.044 30.472C20.9811 31.3859 20.1485 32.0749 20.2891 33.0477C20.1707 33.173 20.0523 33.2983 19.9339 33.4236L19.9265 33.4199C19.7711 33.7331 19.2419 32.7713 19.1642 33.6778C19.1235 34.131 18.7054 34.6432 18.0319 34.5879C17.7248 34.3669 17.5472 34.0573 17.3955 33.722C17.2511 32.9666 16.5296 32.167 17.5583 31.4964C18.1688 32.5945 18.376 30.9658 18.8756 31.3011C19.4233 31.618 19.6453 31.5148 19.9857 30.929C20.2077 30.5494 20.3335 29.9525 21.0181 30.1588C21.0477 30.1662 21.0699 30.2473 21.0736 30.2915C21.0773 30.3541 21.0551 30.4131 21.044 30.472Z" fill="#6FAA41"/>
<path d="M24.6112 28.6997C24.6075 29.9635 23.4863 30.9253 24.5002 32.0012C24.8554 32.3771 24.3596 32.624 24.1301 32.8782C23.9562 33.0698 23.749 33.302 23.6454 32.8671C23.5344 32.3992 22.4465 32.2739 22.9386 31.8759C23.9451 31.0616 23.3716 29.5877 24.6112 28.6997Z" fill="#6AA73D"/>
<path d="M29.207 26.6178C28.9961 28.0917 29.1108 29.7167 27.3013 31.1169C27.8971 29.2303 28.7519 28.0032 29.207 26.6178Z" fill="#77AF4D"/>
<path d="M24.7407 23.1062C24.7407 22.9846 24.7407 22.8593 24.7407 22.7377C26.1283 21.3411 26.6168 23.5925 27.6899 23.4599C27.5419 24.1932 27.5271 24.2337 27.12 24.0826C26.3171 23.7805 25.5326 23.4341 24.7407 23.1062Z" fill="#6BA33E"/>
<path d="M29.9175 23.4709C30.1469 23.0951 30.3801 22.7229 30.6095 22.3471C30.887 22.5866 30.8648 22.8482 30.6539 23.1172C30.5244 23.891 30.9055 24.5801 31.0239 25.3133C30.5762 25.4681 30.2135 25.8734 29.677 25.7518C29.2662 24.9375 29.8472 24.23 29.9175 23.4709Z" fill="#69A53B"/>
<path d="M21.403 33.044C21.9839 32.9998 22.6537 32.6092 23.0792 33.2835C23.4419 33.8584 23.0126 34.3005 22.539 34.8348C22.1393 34.2084 21.7693 33.6262 21.403 33.044Z" fill="#6DA83F"/>
<path d="M25.2661 24.3C25.8249 25.2065 25.5622 25.7334 25.1366 26.3819C24.4447 25.6339 24.8887 25.0738 25.2661 24.3Z" fill="#6FAC45"/>
<path d="M26.8647 34.2379C26.7907 33.4493 27.2051 32.9261 27.8749 32.1007C27.9378 33.2946 27.2421 33.6852 26.8647 34.2379Z" fill="#76AE52"/>
<path d="M0.636464 15.9687C0.658666 15.7697 0.677168 15.5708 0.69937 15.3718C1.89459 15.7182 1.33583 16.6983 1.45425 17.4353C1.48755 17.6306 1.12121 17.8332 1.46905 18.0138C1.53195 17.7116 2.24243 18.3528 2.05001 17.5716C1.79468 16.5472 2.06111 15.556 2.54216 14.6238C2.66057 14.6275 2.78268 14.6275 2.90109 14.6275C3.17862 14.8375 3.38954 15.1212 3.63747 15.3607C3.9927 15.4492 4.55146 15.1323 4.56626 15.884C4.56996 16.1272 4.78828 16.6688 5.0066 16.4514C6.12042 15.3276 6.10931 16.2488 6.26103 17.041C6.35354 17.52 6.70508 17.2694 6.9715 17.2068C7.33044 17.3395 6.9419 18.2238 7.71528 17.9364C8.42205 18.0433 8.28513 17.509 8.22223 17.1736C8.06681 16.3556 8.52936 16.772 8.82539 16.8383C8.79949 17.7116 8.9734 18.6107 8.45905 19.4177C8.07791 20.641 7.24903 20.5157 6.29433 20.1767C5.68377 19.9593 5.27303 19.2445 4.49595 19.4582C4.02971 19.6719 3.90389 20.2762 3.37474 20.4163C2.47555 20.2357 1.32473 21.0316 0.769677 20.431C0.0925093 19.694 0.584659 18.4449 0.521753 17.4205C0.484749 16.9378 0.444045 16.4404 0.636464 15.9687Z" fill="#67A234"/>
<path d="M2.54216 14.6201C2.73458 15.9908 2.0315 17.3653 2.76418 18.736C-0.0185019 18.7028 1.69477 16.2819 0.69937 15.3681C0.79928 14.7085 0.902891 14.0489 1.0028 13.3894C1.04721 13.6842 1.09161 13.9753 1.13971 14.2921C1.62816 13.7468 1.89459 12.5419 2.47185 12.7298C3.38954 13.0319 2.50885 13.9605 2.54216 14.6201Z" fill="#71A842"/>
<path d="M7.01961 9.86303C7.58206 9.94409 8.54046 9.80776 7.47845 10.7437C6.73838 11.3996 6.15002 12.1697 5.84659 13.1277C5.65787 13.3599 5.71338 13.7947 5.41735 13.8758C5.0066 13.99 4.9474 13.6178 4.9548 13.3194C4.9844 12.3834 4.68467 11.3738 5.54686 10.6147L5.52836 10.6295C5.90579 10.1394 6.51636 10.1025 7.01961 9.86303Z" fill="#BCD7A0"/>
<path d="M5.54686 10.6147C5.18052 11.4327 4.9474 12.306 5.12502 13.172C5.32484 14.1337 5.59496 13.102 5.84659 13.1277C5.81329 13.5331 5.9835 14.0895 5.36924 14.1521C4.73278 14.2184 4.62177 13.581 4.78458 13.2678C5.22863 12.4203 3.46355 10.95 5.54686 10.6147Z" fill="#6CA53D"/>
<path d="M10.3055 7.64479C10.3573 7.89167 10.6867 8.14223 10.3018 8.38543C9.66907 8.21961 9.01411 8.09433 8.62187 7.45686C9.27313 6.92257 9.73938 7.71111 10.3055 7.64479Z" fill="#9CC670"/>
<path d="M7.71158 17.9364C6.79758 18.3675 7.01221 17.6564 6.9678 17.2068C7.9632 16.6983 7.60797 17.5495 7.71158 17.9364Z" fill="#78B047"/>
<path d="M3.63377 15.3607C3.15272 15.3497 2.91219 15.1028 2.89739 14.6275C3.81138 14.2074 3.63377 14.8743 3.63377 15.3607Z" fill="#78AF47"/>
<path d="M8.57376 11.4143C8.42205 11.5101 8.18892 11.6575 7.9558 11.8049C7.904 11.6723 7.76708 11.4733 7.81519 11.4143C7.9521 11.2448 8.14082 11.0901 8.34064 11.0127C8.48125 10.9611 8.69588 11.0274 8.57376 11.4143Z" fill="#ACCF8F"/>
<path d="M7.01961 9.86303C6.52376 10.1173 6.02421 10.3715 5.52836 10.6258C5.76148 9.85934 6.35724 9.7967 7.01961 9.86303Z" fill="#6CA53D"/>
<path d="M18.0726 34.5216C18.8386 34.4 18.4871 32.4176 19.9265 33.4162C19.9746 34.061 19.3826 34.3816 19.1753 34.8938C18.7794 35.7671 18.8719 36.8099 17.6249 37.3257C16.7923 37.6684 17.9653 37.8748 18.0837 38.2175C17.6619 39.6545 17.1808 41.0621 16.2261 42.256C16.2261 42.1307 16.2224 42.0091 16.2224 41.8838C15.993 41.6922 15.7821 41.4859 15.7192 41.1948C15.2973 42.2376 14.4352 41.9317 13.6581 41.8765C12.6627 41.7696 11.7746 40.7784 10.6756 41.5153C10.3573 41.1432 9.85039 41.5264 9.51366 41.2279C9.26943 40.8226 9.41745 40.1483 8.70698 40.0562C8.15192 38.9618 9.11032 38.6191 9.68017 38.0811C10.2574 36.7288 10.3018 35.2512 10.6978 33.8547C10.7829 33.6004 10.9272 33.3867 11.1344 33.2172C11.782 32.6018 12.5073 33.652 13.1622 33.1177C13.325 33.1361 13.4805 33.184 13.6248 33.2614C13.7395 33.6815 13.9504 33.9357 14.4352 33.7331C14.6017 33.9026 14.6831 34.1126 14.7201 34.3411C14.5795 34.9675 15.0457 34.7832 15.3602 34.8053C15.9819 34.9933 16.5851 35.745 17.2363 34.8569C17.4584 34.6248 17.7322 34.4921 18.0726 34.5216Z" fill="#6CA83A"/>
<path d="M13.6581 41.8838C14.7349 41.5854 15.7229 41.1911 15.6785 39.6877C16.5296 40.2662 15.9856 40.7563 15.9375 41.2095C15.9449 41.6296 15.7488 41.9575 15.4528 42.2376C14.9754 42.6171 14.4981 43.0114 14.0096 42.256C13.8912 42.1307 13.7765 42.0054 13.6581 41.8838Z" fill="#8BBE64"/>
<path d="M21.403 41.8986C21.7804 41.8617 21.9062 41.18 22.3799 41.5043C22.4391 41.5448 22.2133 41.9944 22.1208 42.256C21.8248 42.2412 21.5399 42.2155 21.403 41.8986Z" fill="#83B664"/>
<path d="M23.9636 41.1506C24.2189 40.911 24.478 40.6678 24.7333 40.4283C24.7481 40.5499 24.7592 40.6752 24.774 40.7968C24.6371 41.0437 24.5002 41.2943 24.367 41.5411C24.2337 41.4085 24.0968 41.2795 23.9636 41.1506Z" fill="#80B35A"/>
<path d="M17.7063 45.2075C17.5028 45.7013 17.1364 45.9481 16.5999 45.9445C16.6258 45.1891 17.166 45.1964 17.7063 45.2075Z" fill="#79B152"/>
<path d="M12.8736 42.9856C13.1326 42.9856 13.3879 42.9893 13.647 42.9893C13.6026 43.3283 13.5989 43.811 13.1881 43.7999C12.6886 43.7925 12.9661 43.273 12.8736 42.9856Z" fill="#81B655"/>
<path d="M15.4565 42.2339C15.6193 41.8912 15.7784 41.5485 15.9412 41.2058C16.0374 41.4343 16.1299 41.6591 16.2261 41.8838C15.8894 41.8322 15.9708 42.6871 15.4565 42.2339Z" fill="#5D9834"/>
<path d="M7.35264 42.2412C7.82999 42.455 8.05941 42.8382 8.11492 43.343C7.73748 43.472 7.36374 43.6046 6.9863 43.7336C6.62367 44.2531 5.85029 43.9473 5.49135 44.4742C4.29613 44.6585 4.38864 43.5973 4.02971 42.9745C4.38124 42.6908 4.39604 42.2928 4.38864 41.8912C4.38864 41.309 4.87339 41.0879 5.23233 40.7673C5.70597 41.6001 6.28323 42.2744 7.35264 42.2412Z" fill="#71AE3E"/>
<path d="M5.49135 44.4742C5.61717 43.4793 6.39794 43.8036 6.9863 43.7336C7.19722 44.0763 7.41185 44.419 7.77448 45.0048C6.87899 44.7211 6.22403 44.3268 5.49135 44.4742Z" fill="#80B94F"/>
<path d="M9.16212 44.4816C9.66167 44.7137 10.1649 44.9422 10.6645 45.1743C9.9281 45.3144 9.24353 45.786 8.42945 45.4875C8.22223 44.828 9.07331 44.9238 9.16212 44.4816Z" fill="#5A8F35"/>
<path d="M4.38864 41.8912C4.9659 42.4808 4.87339 42.8529 4.02971 42.9745C4.02971 42.5729 3.9557 42.1491 4.38864 41.8912Z" fill="#84BC57"/>
<path d="M20.6851 10.9316C21.0847 10.9537 21.5177 10.8874 21.7767 11.3111C21.8988 11.4438 21.9654 11.6022 21.9765 11.7828C20.8664 13.5589 18.1466 14.6754 16.1521 14.1779C15.475 13.5699 14.8385 12.903 13.9208 12.634C13.5915 12.3945 13.0771 12.2802 13.2732 11.687C14.2316 11.3296 15.1197 10.7769 16.252 11.068C16.7664 11.2006 17.3584 10.9574 17.3658 11.8196C17.3695 12.3724 17.9394 12.2729 18.2132 12.2618C18.9348 12.2287 18.4094 11.7681 18.3797 11.5064C18.2835 10.6995 18.8386 10.9537 19.2049 11.0164C19.7119 11.1011 20.2225 11.5728 20.6851 10.9316Z" fill="#6BA63E"/>
<path d="M8.83279 23.1062C8.9105 22.4797 8.58486 21.7796 9.19173 21.2527C9.74678 21.0316 9.79119 22.0744 10.0613 21.7759C10.5424 21.249 10.7866 20.5121 10.3166 19.7751C10.7163 19.2408 10.1945 19.0087 9.954 18.6844C10.6497 17.9585 9.84299 16.6136 11.0345 16.094C11.4601 16.4183 11.2195 16.8862 11.3342 17.4537C11.3823 16.5399 11.782 15.9945 12.4666 15.7403C13.0734 15.5155 13.288 16.1308 13.6211 16.4514C13.8431 16.6651 14.1132 16.8125 14.3389 17.0189C14.8977 17.7448 14.1761 18.3712 14.1798 19.0529C13.8764 19.8967 13.5434 20.7147 12.437 20.7295C12.2963 20.7663 12.152 20.8032 12.0151 20.8511C11.5822 21.1569 11.8116 21.7096 11.5526 22.0781C10.7015 22.5497 10.2833 24.2005 8.83279 23.1062Z" fill="#6AA23A"/>
<path d="M4.35904 19.0971C4.88079 18.4412 5.20642 18.7913 5.63937 19.2592C6.49045 20.1804 7.46365 20.302 8.45535 19.4177C8.45535 19.543 8.45535 19.6646 8.45535 19.7898C8.44795 20.1657 8.43685 20.5415 8.42945 20.9174C8.08902 21.2122 8.07421 21.6101 8.08902 22.0155C8.08531 22.5018 8.07791 22.9882 8.07421 23.4746C7.62277 23.6552 7.46365 23.9647 7.47475 24.4658C7.48955 25.1659 7.06401 25.2581 6.49785 24.9928C6.13892 24.5137 5.86879 23.9868 5.69117 23.412C5.68377 23.1762 5.62087 22.9145 5.68747 22.7082C5.75408 22.5018 5.67637 22.5092 5.66897 22.6824C5.64307 23.2462 5.63937 23.9131 4.9178 23.8099C4.14812 23.7031 4.07041 22.9293 4.0038 22.266C4.27763 21.2232 3.65597 20.0846 4.35904 19.0971Z" fill="#609A33"/>
<path d="M13.2732 11.6907C13.5175 11.9376 13.7654 12.1808 14.0096 12.4276C14.1798 12.9951 14.1576 13.5404 13.832 14.0563C13.5286 14.4506 13.3213 14.9112 13.0253 15.3128C12.2075 15.814 11.9152 15.3681 11.7857 14.6311C10.9235 13.8794 10.942 13.2788 12.0188 12.7187C12.4888 12.4755 12.8588 12.0371 13.2732 11.6907Z" fill="#6AA23A"/>
<path d="M11.7857 14.6275C12.1816 14.6827 12.2556 15.7587 12.9106 14.9738C13.9356 15.1175 13.8283 16.2267 14.4315 16.7315C14.4907 16.8973 14.4685 17.0557 14.3685 17.1994C14.0059 17.1847 13.6581 17.2142 13.3435 16.9268C13.0401 16.6467 13.0993 15.7661 12.4518 16.1382C12.1039 16.3372 11.4268 16.7646 11.9966 17.5569C12.2371 17.8922 11.6599 18.2201 11.0382 18.6144C11.0382 17.6195 11.0382 16.8568 11.0382 16.094C11.1048 15.5155 11.312 15.0033 11.7857 14.6275Z" fill="#73AB42"/>
<path d="M16.215 9.08922C16.9921 9.75248 15.919 9.80776 15.8524 10.191C15.6563 10.1099 15.2862 10.0288 15.2862 9.94409C15.2862 9.36558 15.8635 9.33979 16.215 9.08922Z" fill="#92BE51"/>
<path d="M19.1864 10.1983C19.1864 9.71932 19.1864 9.23661 19.1864 8.6102C19.908 9.05606 19.9265 9.62352 19.9228 10.202C19.6786 10.202 19.4344 10.202 19.1864 10.1983Z" fill="#9DC059"/>
<path d="M9.9577 18.6844C10.3943 18.7102 10.8088 18.8244 10.8976 19.3071C10.9716 19.7125 10.609 19.7346 10.3166 19.7788C10.1982 19.414 10.0761 19.0492 9.9577 18.6844Z" fill="#75AA4C"/>
<path d="M25.836 16.1014C25.5955 15.4897 25.355 14.8743 25.1144 14.2627C25.762 14.2037 26.0765 14.808 26.5946 15.0033C27.0201 15.2023 27.5382 15.1728 27.9008 15.5192C28.5151 16.1235 29.2551 15.217 29.8805 15.6776C29.8435 16.7241 29.64 17.7337 29.1774 18.6807C28.1561 18.0285 26.9942 18.0211 25.8471 17.9475C25.8101 17.3284 25.4697 16.7167 25.836 16.1014Z" fill="#73AD44"/>
<path d="M24.3633 12.0481C25.3772 11.3517 26.5835 11.5286 27.7047 11.3111C28.3264 11.4475 28.9517 11.5801 29.7362 11.7533C29.0886 12.2213 28.5558 11.9744 28.071 12.0555C26.8351 14.4211 26.2097 14.4285 24.3633 12.0481Z" fill="#5E9834"/>
<path d="M29.8805 15.6776C29.1552 15.4823 28.4596 17.2584 27.7121 15.7108C27.5567 14.9591 28.1598 14.5132 28.4411 13.9421C29.8842 13.7321 29.7917 14.7785 29.8805 15.6776Z" fill="#C3DBAA"/>
<path d="M28.4448 13.9421C28.5558 14.6754 28.3041 15.2612 27.7158 15.7108C27.3088 15.5302 26.8018 15.4971 26.5983 15.0033C27.1718 14.5796 27.7121 14.0932 28.4448 13.9421Z" fill="#BBD499"/>
<path d="M30.628 20.1399C30.3986 20.2615 30.1654 20.3831 29.936 20.5047C29.8361 19.764 29.9286 19.0787 30.591 18.6107C31.1275 18.2312 31.3274 18.5296 31.3792 19.0492C31.2607 19.1708 31.1423 19.2924 31.0239 19.4177C30.8907 19.6572 30.7612 19.9004 30.628 20.1399Z" fill="#80B859"/>
<path d="M32.1192 16.1493C32.2191 15.8213 32.2006 15.4676 32.5485 15.5892C32.6965 15.6408 32.8075 15.9614 32.826 16.1714C32.8445 16.3925 32.7853 16.7352 32.4449 16.6246C32.2821 16.573 32.2006 16.2746 32.1192 16.1493Z" fill="#85B265"/>
<path d="M20.6666 4.68222C21.6472 4.79645 21.2697 5.37127 21.007 5.81345C20.5963 6.50619 20.3891 7.2063 20.6592 7.99484C19.9043 8.09801 19.6897 7.83639 19.9191 7.08101C20.1633 6.27773 20.7813 5.58868 20.6666 4.68222Z" fill="#99BE5B"/>
<path d="M18.9866 7.16576C19.0828 7.89535 18.9718 8.51439 18.2798 8.82392C18.2317 8.84603 18.0134 8.59915 17.9505 8.44438C17.5546 7.47529 18.7868 7.72585 18.9866 7.16576Z" fill="#93BB4C"/>
<path d="M20.6703 3.94526C20.6629 4.18846 20.6555 4.42797 20.6481 4.67116C20.352 4.85172 20.056 5.03227 19.723 5.23862C19.8895 3.64679 19.9413 3.58047 20.6703 3.94526Z" fill="#A6CB71"/>
<path d="M21.7767 11.6796C21.7767 11.558 21.7767 11.4327 21.7767 11.3111C22.4058 11.3369 22.9497 11.8307 23.6158 11.6575C23.3753 11.9081 23.1347 12.1586 22.8942 12.4129C22.576 12.6082 22.3354 12.4387 22.0986 12.2508C21.9358 12.0923 21.9247 11.8491 21.7767 11.6796Z" fill="#5E9834"/>
<path d="M6.60146 24.9449C7.18982 24.9228 7.24163 24.6353 7.18612 24.0937C7.13062 23.5815 7.36744 23.0914 8.07791 23.4746C7.57466 24.9043 7.55246 26.4151 7.33784 27.8927C6.05381 28.4491 6.9715 29.2155 7.14542 29.9083C7.17132 30.4426 6.916 30.7042 6.37944 30.6968C5.02511 29.9267 4.79938 30.9068 4.56626 31.8612C4.06301 32.5982 4.58476 33.5194 4.02971 34.3411C3.74108 34.7722 4.54776 34.26 4.75498 34.5216C5.43585 36.2314 4.13332 36.2166 3.28593 35.8703C2.31273 35.4723 1.66887 35.0928 1.28773 36.4045C1.23592 36.3824 1.15452 36.3714 1.13971 36.3345C1.09531 36.224 1.07681 36.1024 1.05091 35.9845C0.162816 34.3742 0.836284 32.5576 0.377438 30.8884C0.247925 29.643 0.899191 28.3754 0.270127 27.1447C0.162816 25.5492 0.107311 23.9537 0.307131 22.3618C0.758576 21.9639 1.09161 21.4812 1.40984 20.9727C1.74658 20.4384 2.08701 19.952 2.74938 20.7663C2.91219 20.969 3.37844 20.1141 3.9261 20.3647C4.73648 20.8769 3.73738 21.7981 4.38124 22.3508C4.44045 22.8408 4.54776 23.3051 5.0103 23.5962C6.03161 23.0546 4.9733 22.2808 5.23233 21.647C5.80218 22.4576 5.80218 22.4576 5.86879 23.4673C6.26473 23.8836 6.12412 24.569 6.60146 24.9449Z" fill="#66A037"/>
<path d="M8.83279 23.1062C10.0502 23.5594 10.4314 22.0818 11.4156 21.997C11.6155 21.7317 11.8042 21.4517 12.1853 21.4333C13.462 21.4627 14.6868 21.658 15.7155 22.5055C15.9116 22.9624 15.8857 23.412 15.6859 23.8578C14.8755 24.6317 14.165 25.7371 12.8107 24.7348C12.5961 24.4364 12.5776 24.1047 12.6109 23.9868C12.5295 24.7385 12.1076 25.7481 12.9698 26.6214C13.4398 26.9531 13.8616 27.1299 14.3537 26.5956C14.783 26.1314 15.3306 25.9471 15.9227 26.3893C15.9893 26.5588 16.0004 26.732 15.956 26.9052C15.5527 27.6421 15.5453 28.4307 15.7895 29.1897C16.4334 31.2016 15.5786 33.0182 15.1123 34.8901C14.7053 35.0817 14.3537 35.1701 14.3722 34.5179C14.9014 33.8252 14.1095 33.2762 14.165 32.635C14.1095 31.9681 14.387 31.0542 13.1807 31.2016C12.8736 31.2385 12.3481 31.01 12.3777 31.7507C12.4073 32.4471 11.7487 32.8635 11.4119 33.4162C11.2861 33.5452 11.1566 33.6778 11.0308 33.8105C10.6941 34.0684 10.6201 34.5843 10.1427 34.7022C9.13622 34.0647 9.13622 34.0647 10.2389 32.5834C10.683 31.9091 10.7533 31.15 10.7274 30.3799C10.6423 30.2031 10.5202 30.0851 10.2981 30.1036C10.1649 30.1625 10.0391 30.2215 9.917 30.2952C9.24723 30.741 8.64407 30.6231 8.08531 30.1036C8.20743 29.1234 8.33324 28.1433 8.45535 27.1631C9.60617 26.8794 10.757 26.5956 10.2944 24.9817C10.0835 24.8417 9.9059 24.9891 9.72088 25.0517C9.22133 25.4349 9.917 26.9199 8.45535 26.4151C8.28513 25.2765 8.72178 24.2079 8.83279 23.1062Z" fill="#6BA83B"/>
<path d="M8.08902 30.0999C8.72178 30.0741 9.43965 30.461 9.9355 29.7351C10.7496 30.5752 10.7681 31.6106 10.6719 32.6792C9.67277 34.0242 9.67277 34.0242 10.2685 34.5327C10.7866 35.9255 9.9466 37.2115 9.9392 38.5638C9.22133 38.7997 8.64407 39.135 8.81799 40.0414C8.76618 40.4725 8.72178 40.911 8.09641 40.7894C7.39704 39.9419 7.65237 38.9655 7.85589 38.0774C8.00021 37.451 8.06681 36.9315 7.70788 36.3935C7.87439 36.1577 8.35914 36.0766 8.08161 35.6234C7.45255 33.781 7.78558 31.9423 8.08902 30.0999Z" fill="#66A136"/>
<path d="M6.24253 30.472C6.72358 30.4573 6.9641 30.2104 6.9752 29.7314C6.71248 29.2413 6.52006 28.7697 7.33414 28.6223C7.20833 30.3652 7.07881 32.1081 6.953 33.851C6.9197 34.2968 6.61997 34.459 6.22773 34.5179C5.73558 34.3263 5.24713 33.8436 4.75868 34.5216C4.24433 34.4921 4.66247 35.7265 3.84469 35.2217C3.41544 34.9564 3.03801 34.3963 3.43765 33.9947C4.10001 33.3241 4.17402 32.8819 3.60786 32.0602C3.36734 31.7138 4.07411 31.8723 4.37754 31.946C5.12872 31.6254 5.18052 30.4131 6.24253 30.472Z" fill="#619C34"/>
<path d="M10.3351 24.5838C11.7598 25.1586 10.905 26.2198 10.5276 26.732C10.176 27.2036 9.38414 28.2243 8.46275 27.1594C8.46275 26.9089 8.46275 26.662 8.46275 26.4114C9.70608 26.2456 8.88089 25.1144 9.33234 24.5801C9.34714 24.5616 9.45815 24.5874 9.47295 24.6169C9.52106 24.7238 9.55066 24.8417 9.58397 24.9559C10.0909 25.3465 10.0724 24.6869 10.3351 24.5838Z" fill="#649E35"/>
<path d="M8.09641 40.7894C8.33694 40.5389 8.57746 40.2883 8.81799 40.0414C10.2944 39.5956 9.58767 40.5978 9.56176 41.1506C9.58397 41.5669 9.54696 41.9649 9.18803 42.256C9.06221 42.3739 8.9364 42.4918 8.81429 42.606C8.25553 42.1233 8.05201 41.5043 8.09641 40.7894Z" fill="#72AE45"/>
<path d="M7.33414 28.626C6.9123 28.8986 6.99 29.3298 6.9752 29.7351C6.49785 29.3998 5.79108 29.1492 6.05011 28.3938C6.23513 27.8485 6.69027 27.5058 7.33784 27.889C7.33414 28.1359 7.33414 28.3828 7.33414 28.626Z" fill="#6EA83E"/>
<path d="M8.09272 22.0155C7.53026 21.4443 7.58576 21.0574 8.43315 20.9174C8.45165 21.3227 8.53306 21.7502 8.09272 22.0155Z" fill="#72A649"/>
<path d="M6.23883 36.7325C5.89099 36.6588 5.28413 36.9094 5.33224 36.2903C5.36184 35.896 5.88359 36.0287 6.21293 36.0103C6.22033 36.2535 6.23143 36.493 6.23883 36.7325Z" fill="#7FB855"/>
<path d="M8.08531 35.6197C8.28883 36.0361 8.36654 36.3861 7.71158 36.3898C7.17502 35.815 7.57836 35.6934 8.08531 35.6197Z" fill="#7CAA51"/>
<path d="M0.266427 27.1484C1.12491 28.3054 0.484749 29.6319 0.69567 30.8663C0.976898 32.5724 0.973198 34.2784 0.69937 35.9845C0.673468 36.2829 0.621663 36.5704 0.314532 36.7288C-0.207221 33.5341 0.151715 30.3394 0.266427 27.1484Z" fill="#639933"/>
<path d="M0.69937 35.9845C0.69937 34.2784 0.69567 32.5724 0.69567 30.8663C1.50235 32.5281 0.825183 34.2895 1.05091 35.9882L0.873288 35.9919L0.69937 35.9845Z" fill="#86BA56"/>
<path d="M2.12031 38.3575C2.12031 38.5528 2.05001 38.7518 1.83538 38.6854C1.63556 38.6265 1.47645 38.4422 1.29883 38.3133C1.41724 38.1954 1.52085 38.0074 1.66147 37.9706C1.9427 37.8969 2.08331 38.0922 2.12031 38.3575Z" fill="#87BD57"/>
<path d="M25.1181 39.6619C24.0931 39.5956 24.5816 39.0355 24.7592 38.5749C25.0589 38.3022 25.3587 38.0295 25.8286 37.6058C25.6362 38.4312 25.9766 39.2124 25.1181 39.6619Z" fill="#7FB857"/>
<path d="M9.18803 42.256C9.21393 41.8543 9.12882 41.4159 9.56176 41.1506C9.9688 41.1727 10.4091 41.0916 10.6756 41.5227C10.1797 41.7659 9.68388 42.0091 9.18803 42.256Z" fill="#66A136"/>
<path d="M30.6539 23.1135C30.6391 22.8593 30.6243 22.6013 30.6095 22.3434C30.6243 22.1039 30.6391 21.8644 30.6539 21.6249C31.8676 22.126 31.4014 22.6198 30.6539 23.1135Z" fill="#7BAF54"/>
<path d="M3.9927 20.5305C2.44965 20.5194 1.62816 21.9418 0.303431 22.3655C0.20352 22.1076 0.0999101 21.8496 0 21.5917C0.610561 19.7641 -0.125813 17.7816 0.636464 15.9687C0.636464 17.3726 0.636464 18.7728 0.636464 20.6963C1.73918 19.145 2.70127 20.232 3.65227 20.151C3.9964 20.0736 4.14812 20.1657 3.9927 20.5305Z" fill="#71A842"/>
<path d="M22.1467 12.0481C22.3947 12.1697 22.6463 12.2913 22.8942 12.4129C23.1347 12.6635 23.379 12.914 23.6195 13.1609C23.8674 13.5294 24.1153 13.8942 24.3633 14.2627C24.2226 14.4027 24.0524 14.4727 23.8489 14.4653C22.7721 14.0158 21.662 13.5883 22.1467 12.0481Z" fill="#6BA63E"/>
<path d="M23.9858 14.2627C24.1116 14.2627 24.2374 14.2627 24.3633 14.2627C24.8221 14.9775 24.7888 15.7624 24.6741 16.5546C24.3225 16.6651 24.0265 16.5178 23.7379 16.3704C23.6195 17.2252 24.1301 18.0506 23.675 18.9387C23.3827 19.5098 24.1227 19.2592 24.3596 19.4324C24.2929 20.4605 24.6482 21.5954 23.6121 22.3802C23.1902 21.9049 22.9978 21.2932 22.6463 20.7737C21.81 19.0934 22.4687 17.2768 22.1763 15.5302C21.9654 14.2774 23.205 14.4543 23.9858 14.2627Z" fill="#6EA740"/>
<path d="M24.3559 19.4287C23.9118 19.5688 24.1412 20.2799 23.3308 20.3647C23.3308 18.8023 23.3086 17.2621 23.3568 15.7218C23.3642 15.5155 23.6972 15.3755 23.7268 15.8103C23.7342 15.9282 23.6861 16.0498 23.6639 16.1714C24.4188 16.6541 24.2226 17.6084 24.7 18.2275C24.7111 18.3786 24.7259 18.526 24.737 18.677C24.4336 18.8392 24.3707 19.1229 24.3559 19.4287Z" fill="#649E37"/>
<path d="M25.8434 17.9475C27.1163 17.4574 28.2671 17.52 29.1737 18.6807C28.9369 18.6844 28.5965 18.5849 28.4744 18.7065C27.1126 20.0699 26.5724 18.7028 25.8434 17.9475Z" fill="#66A039"/>
<path d="M25.107 20.151C25.107 19.9078 25.107 19.6646 25.107 19.4214C25.1662 19.4214 25.2254 19.4287 25.2846 19.4214C25.947 19.3256 26.7315 19.9262 26.7352 20.1252C26.7574 20.8547 26.3096 20.9911 25.7398 20.4199C25.5955 20.2689 25.3216 20.2394 25.107 20.151Z" fill="#66A039"/>
<path d="M24.7 18.2312C23.7971 17.8222 24.0006 16.8641 23.6639 16.1751C24.1116 16.0019 24.404 16.2488 24.6704 16.5546C24.6815 17.111 24.6889 17.6711 24.7 18.2312Z" fill="#C9DDAC"/>
<path d="M25.836 16.1014C25.7287 16.7167 26.2504 17.3284 25.8434 17.9438C25.292 17.3321 25.3031 16.7167 25.836 16.1014Z" fill="#66A039"/>
<path d="M29.1663 19.7898C29.1293 20.1215 29.2922 20.5342 28.8518 20.7037C28.7815 20.7295 28.5373 20.5379 28.5188 20.4236C28.43 19.9299 28.7889 19.8414 29.17 19.7935L29.1663 19.7898Z" fill="#76AA52"/>
<path d="M23.6121 39.1276C23.5603 39.2234 23.4789 39.3708 23.3975 39.5145C23.2716 39.4408 23.0385 39.3671 23.0385 39.2934C23.0422 39.1423 23.131 38.9507 23.2494 38.8586C23.4382 38.726 23.5566 38.8697 23.6121 39.1276Z" fill="#85B664"/>
<path d="M15.1123 34.8901C15.3565 33.6152 14.5499 32.1965 15.7488 31.0026C15.9523 30.8 15.3824 29.912 15.3047 29.3224C15.19 28.4454 14.5203 27.4247 15.7747 26.7909C16.0522 26.7873 16.2557 26.9273 16.4223 27.1299C16.5962 27.8632 17.673 27.8374 17.7285 28.6554C17.8543 28.8544 17.6915 28.5891 17.8247 28.7991C17.7692 28.6997 17.7137 28.6002 17.6508 28.4933C17.6323 27.8079 18.1466 27.2589 18.0948 26.5735C17.9986 25.2396 18.661 25.0112 19.7674 25.4386C20.2225 25.5676 20.378 25.2249 20.5667 24.9264C20.6777 24.8122 20.8072 24.7348 20.9589 24.6832C21.2956 24.6206 21.6065 24.6611 21.8729 24.8896C22.3354 25.7297 21.8581 26.662 22.143 27.5205C21.8692 28.5375 21.6509 29.5766 21.044 30.472C20.3965 30.2915 20.4076 30.9216 20.3409 31.1832C20.0412 32.3292 19.3752 31.7175 18.7979 31.5738C18.4353 31.2385 18.0874 31.8686 17.7285 31.5885C16.8478 32.3071 17.9912 33.0477 17.7026 33.7736C17.6989 34.19 17.4251 34.5143 17.3362 34.9048C18.0541 36.5925 16.3519 35.3028 16.1484 35.8592C15.8006 35.5386 15.4565 35.2144 15.1123 34.8901Z" fill="#66A137"/>
<path d="M19.945 26.0429C19.5121 25.8661 19.0828 25.6892 18.4797 25.446C18.6462 26.7025 18.5759 27.7895 17.7137 28.6407L17.7174 28.637C17.1364 28.228 15.9967 28.3791 16.2261 27.1594C16.0596 26.7099 16.2372 26.3451 16.5185 26.0134C17.5509 25.925 17.3362 25.0038 17.5435 24.4069C17.7729 23.7473 17.5139 22.9588 18.006 22.3434C18.1688 22.2587 18.3353 22.2586 18.5056 22.325C18.7794 22.7045 18.5981 23.1172 18.6055 23.5188C18.6943 22.9551 18.661 22.2992 19.5047 22.2734C19.8155 22.2144 19.6601 23.0398 20.167 22.6087C20.8294 21.8017 22.0024 21.7759 22.65 20.9616C22.7314 20.9395 22.8128 20.9174 22.8942 20.8953C23.9007 21.0206 23.564 21.7944 23.6158 22.3802C23.4974 22.4024 23.379 22.4245 23.2605 22.4466C23.9673 24.3737 22.7314 25.8808 22.1467 27.5279C20.9108 26.8278 21.9913 25.7997 21.7767 24.9522C21.4548 23.6847 21.0625 24.8785 20.7036 24.9228L20.6703 24.9485C20.3817 25.2802 20.3002 25.7518 19.945 26.0429Z" fill="#659C38"/>
<path d="M18.0837 38.2211C17.5694 38.1659 16.7405 38.7849 16.6776 37.7569C16.6406 37.171 16.796 36.6219 17.8506 36.7509C18.8571 36.8762 18.4871 35.3728 19.179 34.8975C19.2012 36.1319 18.9163 37.2631 18.0837 38.2211Z" fill="#6FAA41"/>
<path d="M17.3325 34.9048C16.6665 34.2747 17.2918 34.0573 17.6989 33.7736C17.9949 33.9357 18.0689 34.2121 18.0726 34.5216C17.9135 34.8164 17.636 34.8901 17.3325 34.9048Z" fill="#7DB455"/>
<path d="M17.7248 31.5885C18.08 31.478 18.4316 30.94 18.7942 31.5738C18.4353 31.4485 18.0985 32.7308 17.7248 31.5885Z" fill="#89C060"/>
<path d="M3.9927 20.5305C3.87799 20.4052 3.76698 20.2762 3.65227 20.151C3.68557 19.6646 3.54496 19.0639 4.35534 19.0971C4.29243 20.1841 4.84749 21.2638 4.37384 22.3545C3.90389 22.5829 3.53386 22.6603 3.69667 21.916C3.80028 21.4517 3.89649 20.9911 3.9927 20.5305Z" fill="#8CB961"/>
<path d="M11.4193 33.4162C11.4453 32.4729 12.4629 31.7396 12.0077 30.6821C11.9818 30.6231 12.2149 30.4573 12.3259 30.3431C12.7737 31.3343 14.1021 29.912 14.5425 31.1832C14.7571 31.7986 14.5647 32.2186 14.3945 32.7161C14.6054 33.0772 14.6424 33.4346 14.3574 33.781C13.9615 33.98 13.6174 34.0684 13.6359 33.4272C13.5915 33.2246 13.7321 32.9961 13.5508 32.8119C13.5952 33.0772 13.4213 33.2393 13.2695 33.4125C12.6516 33.4162 12.0336 33.4162 11.4193 33.4162Z" fill="#66A137"/>
<path d="M9.9392 38.5638C9.52476 37.1784 10.2315 35.8813 10.2685 34.5327C10.3018 34.0573 10.5202 33.781 11.0345 33.8105C10.8717 35.4391 10.7015 37.0678 9.9392 38.5638Z" fill="#87BA5D"/>
<path d="M15.3528 37.5689C15.8043 38.1696 15.5268 38.4828 15.3232 38.5786C14.6794 38.8807 15.7414 40.5315 14.4611 39.9456C13.4916 39.4998 14.9199 38.866 14.9495 38.2101C14.9606 38.0259 15.1678 37.8527 15.3528 37.5689Z" fill="#7CB44A"/>
<path d="M13.2695 33.4162C13.3028 32.7382 13.1289 32.027 13.6433 31.0837C14.054 32.0897 14.2279 32.7566 13.6359 33.4309C13.5138 33.4236 13.3916 33.4199 13.2695 33.4162Z" fill="#7FB259"/>
<path d="M14.3574 33.7847C14.3685 33.4309 14.3833 33.0735 14.3945 32.7198C14.9273 33.3277 14.9273 33.9284 14.3759 34.5216C14.3685 34.2747 14.3648 34.0279 14.3574 33.7847Z" fill="#84BA5A"/>
<path d="M23.9858 14.2627C22.2244 14.7012 22.7018 15.8471 22.7647 17.1773C22.8239 18.397 22.7906 19.6535 22.8868 20.8953C21.9691 20.8916 22.069 20.0773 21.8063 19.554C21.7101 18.4559 21.44 17.3874 21.229 16.3151C21.0699 16.5472 21.1291 16.8641 21.0107 17.1257C20.9256 17.4795 20.8923 17.8406 20.8479 18.2017C20.7887 18.6586 21.007 19.2961 20.4594 19.4987C19.8007 19.7419 19.7822 19.0381 19.5084 18.677C19.3011 18.4007 19.1272 18.4707 18.7868 18.8392C18.2465 19.425 18.0319 20.5268 16.8996 20.4531C16.5444 19.1929 17.351 18.1133 17.3473 17.1552C17.0661 18.3859 16.7035 19.8525 16.2372 21.2932C16.0818 21.7244 15.9079 22.1407 15.4676 22.3692C14.3019 22.3913 13.2621 21.8386 12.1446 21.6359C11.8338 21.2638 11.856 20.899 12.1557 20.5342L12.1483 20.5379C13.6359 21.1311 13.6914 19.9409 13.9985 19.0676C13.2843 18.2864 14.387 17.8627 14.3648 17.2142C14.3537 17.0631 14.3389 16.912 14.3278 16.7609C14.1946 16.3298 14.387 15.9613 14.5536 15.5855C14.9828 14.8854 15.3232 14.0968 16.2631 13.9126C18.4205 13.9679 20.315 13.3709 21.773 11.6944C21.8951 11.816 22.0172 11.9376 22.143 12.0628C22.2022 13.2457 23.1569 13.7026 23.9858 14.2627Z" fill="#649E37"/>
<path d="M16.2668 13.8979C15.7747 14.5317 15.2825 15.1618 14.7904 15.7955C14.1058 15.3349 14.6165 14.1484 13.6174 13.8794C13.7506 13.3967 13.8801 12.9103 14.0133 12.4276C15.1678 12.3024 15.6785 13.1535 16.2668 13.8979Z" fill="#A6C57D"/>
<path d="M14.0022 19.0529C13.9578 19.7456 14.2723 20.5637 13.5508 21.0464C12.9439 21.4517 12.6479 20.6373 12.152 20.5268C13.1363 20.49 13.4731 19.6535 14.0022 19.0529Z" fill="#78AD4D"/>
<path d="M12.1594 20.5231C12.1557 20.8916 12.152 21.2601 12.1483 21.6249C11.9041 21.7502 11.6636 21.8717 11.4193 21.997C11.93 21.6359 10.0909 20.1031 12.1594 20.5231Z" fill="#78AD4D"/>
<path d="M6.60146 24.9449C5.60977 24.8233 5.928 24.0531 5.86509 23.4709C6.53486 23.751 6.64957 24.3074 6.60146 24.9449Z" fill="#77AC49"/>
<path d="M13.6137 13.8794C15.6711 13.5073 14.3537 15.1802 14.7867 15.7919C14.635 16.1124 14.4833 16.4293 14.3315 16.7462C13.1659 16.7057 13.5582 15.4234 12.9069 14.9738C12.8958 14.4543 13.103 14.0674 13.6137 13.8794Z" fill="#BAD398"/>
<path d="M6.24253 30.472C5.69117 30.94 5.34334 31.548 4.9807 32.167C4.68097 32.6829 4.44045 32.4102 4.37384 31.946C4.37754 31.7028 4.37014 31.4559 4.38864 31.2127C4.42935 30.6821 4.17402 29.9599 4.74758 29.7056C5.38774 29.4292 5.79848 30.0962 6.24253 30.472Z" fill="#6EA83E"/>
<path d="M4.61806 24.0126C4.72538 25.2102 4.55146 25.8329 3.9409 26.2861C3.90019 26.3193 3.55236 26.1056 3.55236 26.0024C3.54126 25.2839 4.12592 24.9264 4.61806 24.0126Z" fill="#77AE45"/>
<path d="M16.9625 20.5194C17.3325 19.6535 18.2872 19.1819 18.4945 18.1796C18.6536 17.4021 19.0569 18.2901 19.4677 18.1427C20.3743 17.8259 19.5639 19.0529 20.315 19.2482C20.3669 18.5518 20.3002 17.8259 20.6666 17.2031C20.933 16.8936 21.2882 16.4146 21.514 17.1331C21.7212 17.7853 21.8211 18.5039 21.773 19.2113C22.5649 21.0242 21.1106 21.6433 20.0264 22.4613C19.8562 22.5166 19.7008 22.4908 19.5639 22.3729C19.0273 22.5608 18.8127 23.0251 18.5019 23.4967C18.4797 23.1172 18.4612 22.7414 18.439 22.3618C18.4131 22.2144 18.5204 22.0302 18.3242 21.9233C18.3168 22.1113 18.1984 22.2365 18.0726 22.3545C18.0467 23.6626 18.2317 24.9854 17.3769 26.1793C16.8959 26.8499 16.907 26.0429 16.6739 26.0466C16.3334 26.0724 16.1262 26.4188 15.7747 26.4077C15.4824 26.4556 15.0124 26.4077 14.9273 26.5699C14.3167 27.69 13.4398 27.4616 12.5147 27.1484C12.437 26.2603 11.7783 25.2802 12.9143 24.5801C14.0725 25.3354 14.6017 23.9573 15.4972 23.8284C16.3112 23.4341 15.7377 22.4761 16.2557 21.9602C16.5074 21.5622 16.5555 21.0832 16.7812 20.6705C16.8441 20.6226 16.9033 20.571 16.9625 20.5194Z" fill="#66A137"/>
<path d="M12.918 24.5801C12.3222 25.3649 12.5813 26.2824 12.5184 27.1484C11.4971 25.7592 12.0854 24.4364 12.6516 23.003C13.103 23.5483 12.7922 24.101 12.918 24.5801Z" fill="#84B95B"/>
<path d="M16.5777 22.0118C16.4223 22.3987 16.289 22.734 16.4186 23.213C16.6517 24.0568 16.1558 24.1268 15.5046 23.8321C15.4935 23.342 15.4824 22.8519 15.4713 22.3618C15.6008 21.997 15.7303 21.6286 15.8598 21.2638C15.9708 21.1311 16.104 21.1053 16.2631 21.1716C16.5259 21.389 16.5777 21.6912 16.5777 22.0118Z" fill="#7AB04E"/>
<path d="M10.6756 32.6792C10.3129 31.7285 9.9059 30.7852 9.9392 29.7351C10.0502 29.7351 10.1649 29.7351 10.2759 29.7351C10.5461 29.8383 10.7459 30.0925 11.0604 30.0962C11.4119 31.0321 11.1455 31.8723 10.6756 32.6792Z" fill="#66A137"/>
<path d="M10.3351 24.5838C10.213 25.0075 10.5609 25.7039 9.9318 25.8034C9.46925 25.8771 9.63947 25.2765 9.58397 24.9559C9.9059 24.9817 9.80969 24.16 10.3351 24.5838Z" fill="#81B456"/>
<path d="M11.0567 30.0999C10.9161 30.3541 10.7644 30.7337 10.4388 30.5642C10.2796 30.4794 10.3203 30.0262 10.2722 29.7388C10.8717 29.1381 10.9605 29.6245 11.0567 30.0999Z" fill="#89B962"/>
<path d="M15.7784 26.4114C16.03 26.1756 16.1114 25.5197 16.6776 26.0503C16.5259 26.4188 16.3741 26.7873 16.2224 27.1557C16.0744 27.0341 15.9264 26.9125 15.7784 26.7909C15.7784 26.6657 15.7784 26.5404 15.7784 26.4114Z" fill="#90BD6D"/>
<path d="M20.6999 24.9191C20.859 24.4179 21.0181 23.9205 21.2179 23.2941C21.7619 23.7768 22.3725 24.1268 21.773 24.9485C21.4178 24.9375 21.0588 24.9264 20.6999 24.9191Z" fill="#5A9233"/>
<path d="M19.9672 29.1639C20.2558 29.2782 20.3039 29.4956 20.2373 29.7351C20.1374 30.1036 19.9228 30.3799 19.501 30.3173C19.4233 30.3062 19.3011 30.0041 19.3455 29.8935C19.4714 29.5914 19.5232 29.1824 19.9672 29.1639Z" fill="#7EB355"/>
<path d="M17.71 28.6407C18.5093 29.0423 18.5315 29.6061 18.2502 30.4905C17.4473 29.8272 17.8247 29.1824 17.7137 28.637C17.7137 28.6333 17.71 28.6407 17.71 28.6407Z" fill="#80B55B"/>
<path d="M19.945 26.0429C19.9302 25.5086 19.908 24.9707 20.6703 24.9449C21.0699 25.7297 20.6666 25.9913 19.945 26.0429Z" fill="#7DAE54"/>
<path d="M19.9228 22.3876C20.2854 21.9307 20.2299 21.249 21.1217 21.0721C21.958 20.9063 21.551 20.0257 21.4067 19.4177C21.6509 19.2003 21.8951 19.2003 22.143 19.414C22.391 19.9078 22.6389 20.3978 22.8868 20.8916C22.4724 22.1628 21.2697 22.3139 20.2521 22.734C19.9561 22.7966 19.7896 22.7303 19.9228 22.3876Z" fill="#6EA740"/>
<path d="M18.08 22.3581C18.1244 21.8054 17.9505 21.2048 18.439 20.5157C18.9052 21.2748 18.9866 21.8128 18.4464 22.3618C18.3205 22.3581 18.2021 22.3581 18.08 22.3581Z" fill="#76B14A"/>
<path d="M19.9228 22.3876C20.0338 22.5055 20.1448 22.6198 20.2521 22.7377C20.241 23.1835 20.4113 23.681 19.8969 24.1084C19.3307 23.5557 19.6157 22.9293 19.5639 22.3766C19.686 22.3729 19.8044 22.3802 19.9228 22.3876Z" fill="#84B362"/>
<path d="M16.2298 21.2564C16.104 21.2564 15.9819 21.2601 15.8561 21.2601C16.426 19.3477 16.9958 17.4353 17.5694 15.5229C17.7026 15.5523 17.8321 15.5818 17.9653 15.6113C17.6323 17.2473 17.2955 18.8834 16.9625 20.5157V20.5194C16.7183 20.77 16.6591 21.1937 16.2298 21.2564Z" fill="#6DA542"/>
<path d="M22.143 19.414C21.8988 19.414 21.6509 19.4177 21.4067 19.4177C21.3808 18.7249 21.3882 18.0285 21.3141 17.3395C21.2549 16.8052 20.9034 17.1921 20.674 17.2068C20.6222 16.5251 20.8997 15.9356 21.2586 15.1912C21.773 16.6504 22.2096 17.9732 22.143 19.414Z" fill="#76A94C"/>
<path d="M19.9191 13.9642C19.6268 14.5317 19.8414 15.1286 19.7341 15.696C19.5269 15.5929 19.1753 15.5339 19.1346 15.3828C18.9644 14.7785 19.0754 14.2332 19.9191 13.9642Z" fill="#6BA63E"/>
<path d="M16.2298 21.2564C16.4741 21.0095 16.7183 20.7663 16.9625 20.5194C16.9181 21.0353 17.1364 21.6249 16.5777 22.0081C16.2853 21.8386 16.2372 21.5585 16.2298 21.2564Z" fill="#649E37"/>
</svg>
