<svg width="23" height="56" viewBox="0 0 23 56" fill="none" xmlns="http://www.w3.org/2000/svg">
<path d="M22.001 28.1419C22.4149 28.8398 22.3673 29.6164 22.3911 30.3828C22.5777 30.9952 22.1231 31.2689 21.7702 31.6007C21.5836 31.7787 21.3868 31.9429 21.1799 32.0968C19.0661 33.4961 16.5486 33.4482 14.2176 34.088C12.5755 34.2933 10.93 34.2248 9.2844 34.1667C7.5642 33.9512 5.9322 33.3456 4.23575 33.0343C3.59111 32.8427 2.96003 32.6066 2.32556 32.3808C2.0202 32.2576 1.74198 32.0866 1.51805 31.8402C1.31108 31.5871 1.18895 31.2928 1.12788 30.9712C1.1143 30.8104 1.13804 30.6565 1.19572 30.5094C1.30768 30.3041 1.46037 30.1296 1.62662 29.9654C2.36627 29.2572 2.57664 28.2856 2.88879 27.3618C3.03468 26.9102 3.2145 26.4757 3.39093 26.0344C3.91343 24.7377 4.37147 23.4137 5.12129 22.2231C5.48094 21.6449 5.90846 21.118 6.1765 20.4783C6.31561 20.143 6.43775 19.6161 6.9365 19.7324C7.39454 19.8385 7.3674 20.3346 7.40473 20.728C7.25205 22.3189 6.74309 23.8037 6.11541 25.2543C5.63701 26.3183 5.29435 27.4268 5.0331 28.5627C4.9381 29.004 4.76165 29.4385 4.91433 29.9004C5.02969 30.2459 5.27059 30.482 5.63702 30.5333C6.08828 30.5949 6.20702 30.2528 6.28845 29.9141C6.43774 29.3085 6.5599 28.6961 6.64472 28.0734C6.91955 26.7494 7.56419 25.528 7.68294 24.163C7.88652 23.2529 8.16134 22.3634 8.29366 21.4362C8.32759 21.183 8.37848 20.9333 8.44295 20.6835C8.6567 20.1122 8.60579 19.4929 8.72454 18.9045C8.7958 18.6376 8.92134 18.405 9.15545 18.2476C10.6483 18.0355 12.165 18.405 13.6477 18.0423C14.5705 17.9192 15.4561 17.642 16.3518 17.406C16.518 17.4026 16.6741 17.4402 16.8268 17.5052C17.8888 18.819 17.5223 20.7451 18.7166 22.0076C18.798 22.1444 18.8557 22.295 18.893 22.4489C19.0593 23.1674 19.3952 23.8174 19.6904 24.4811C20.5386 26.3799 21.3732 28.2821 21.0034 30.4546C20.9661 30.6702 21.1018 30.7523 21.0407 30.5333C21.2307 30.4957 21.2579 30.3178 21.3393 30.1809C21.665 29.5309 21.3258 28.6687 22.001 28.1419Z" fill="#4A342A"/>
<path d="M5.20287 54.958C1.5148 54.332 0.473167 51.6873 0.289951 48.3927C-0.21559 47.8521 0.00156501 47.4108 0.469784 47.0002C0.846395 46.8394 1.16872 46.9934 1.49105 47.1713C3.55053 48.55 5.8509 49.2274 8.287 49.5011C10.6043 49.6962 12.9149 49.7885 15.2119 49.3472C16.8676 49.3403 18.3809 48.7279 19.9212 48.2284C20.2232 48.1121 20.5184 47.9787 20.8034 47.8247C21.0952 47.6879 21.3836 47.5237 21.7093 47.7392C21.8552 47.9445 21.8959 48.1703 21.862 48.4166C21.7737 48.8648 21.1393 49.248 21.7059 49.7783C22.0893 51.2152 21.3496 52.115 20.2334 52.7753C19.6667 53.1106 19.0255 53.3193 18.391 53.5211C17.9059 53.6443 17.4139 53.7435 16.9457 53.9282C14.5096 54.9136 12.0022 55.0538 9.44059 54.5954C7.58807 54.3422 5.76607 53.9727 4.05945 53.3295C4.88392 53.8838 6.24109 53.6066 6.71948 54.8793C6.2343 55.2317 5.71859 55.0778 5.20287 54.958Z" fill="#48332A"/>
<path d="M18.2455 53.1961C19.4127 52.5529 20.9225 52.3956 21.428 50.815C21.557 50.4044 21.6859 50.0794 21.2856 49.7817C21.3059 48.9949 21.8522 48.8204 22.4188 48.9983C23.0532 49.1967 22.6596 49.703 22.568 50.117C22.3543 51.1023 22.049 52.0534 21.6656 52.984C20.6986 54.1746 19.3957 54.7391 17.9401 55.0128C17.041 54.6228 16.2267 55.2078 15.3581 55.242C13.3699 55.5705 11.3885 55.8716 9.38666 55.3481C9.10845 54.9684 9.11865 54.5954 9.41043 54.2294C11.9585 54.5715 14.4692 54.4791 16.9087 53.5622C17.4244 53.7025 17.8621 53.5588 18.2455 53.1961Z" fill="#574236"/>
<path d="M1.61736 30.2623C1.5054 30.3786 1.39341 30.495 1.28145 30.6113C0.986266 29.9202 1.03717 29.2257 1.24753 28.5243C1.34592 26.7282 2.30273 25.2433 3.10345 23.7414C4.30453 21.4902 5.16631 19.1398 5.73632 16.6663C5.86864 16.3994 6.08918 16.4028 6.33007 16.4747C6.46239 16.5636 6.57097 16.68 6.6524 16.8168C6.79829 17.1076 6.88312 17.4053 6.76437 17.7269C6.28597 18.5822 6.14008 19.5709 5.72615 20.4536C5.57347 20.7957 5.44792 21.1481 5.38007 21.5176C5.33257 21.7468 5.28167 21.9726 5.16971 22.1779C4.53185 23.259 4.24006 24.4975 3.6497 25.5992C3.56148 26.1397 3.30362 26.6187 3.11362 27.1182C3.0288 27.3269 2.93041 27.5253 2.78112 27.6964C2.35022 28.0453 2.34344 28.5722 2.23147 29.0546C2.06183 29.4789 1.9329 29.9202 1.61736 30.2623Z" fill="#40322B"/>
<path d="M21.659 31.2682C21.9032 30.9706 22.1509 30.6729 22.3952 30.3787C22.9007 32.1954 22.9177 34.0668 22.9245 35.928C22.9415 39.6092 23.1247 43.2905 22.8499 46.9718C22.5445 47.2489 22.2832 47.1976 22.0661 46.8589C21.5538 44.0226 21.9473 41.1591 21.8218 38.3092C21.7743 36.5301 21.9677 34.7476 21.7031 32.972C21.5097 32.4075 21.6013 31.8362 21.659 31.2682Z" fill="#AF2F1F"/>
<path d="M6.06459 9.43396C5.75584 9.14658 5.18582 9.06105 5.31475 8.4418C5.08743 6.2522 5.06368 4.0626 5.33171 1.87642C5.33171 1.65062 5.44369 1.52403 5.66084 1.47956C6.04084 1.74984 6.10531 2.17065 6.17656 2.58804C6.21388 2.92333 6.15619 3.25519 6.14602 3.58705C6.11209 4.61 6.06798 5.63296 6.18673 6.65249C6.28852 7.52833 6.51923 8.33916 7.47263 8.67103C7.94424 8.88999 8.4464 9.00631 8.94515 9.13632C10.3837 9.42712 11.8359 9.215 13.2779 9.27317C14.0922 9.22869 14.8793 8.83525 15.714 9.09868C15.9854 9.19448 16.1992 9.35186 16.267 9.65293C16.1313 10.0395 15.8124 10.214 15.4697 10.3645C15.2118 10.4603 14.9438 10.5117 14.6723 10.5356C13.7834 10.5938 12.8775 10.4774 12.0089 10.7956C11.1878 10.9598 10.3566 10.9017 9.52874 10.9154C8.90105 10.9017 8.26997 10.9119 7.69657 10.5903C7.12996 10.2414 6.5871 9.85478 6.06459 9.43396Z" fill="#B73C29"/>
<path d="M8.28084 0.471128C11.1648 -0.305495 14.025 -0.0557445 16.8581 0.737985C17.5909 0.94326 18.1779 1.36065 18.2797 2.21597C18.239 2.41782 18.2118 2.61967 18.1338 2.81468C18.0761 2.94469 18.0015 3.06444 17.9167 3.18076C17.6792 3.46814 17.4179 3.71789 17.0684 3.86159C16.5493 4.01896 16.0268 4.14897 15.4738 4.11818C15.0734 4.03607 14.6798 3.94028 14.4254 3.57762C14.5916 2.69152 15.4263 2.97206 15.9386 2.68468C16.227 2.4315 17.1024 2.52046 16.4645 1.74383C15.7689 1.3675 15.0225 1.28881 14.2523 1.32644C12.7493 1.45303 11.2734 0.922733 9.76693 1.14511C9.24103 0.994579 8.64048 0.998001 8.28084 0.471128Z" fill="#C74434"/>
<path d="M15.5825 10.0877C15.7793 9.96107 15.9727 9.83106 16.1695 9.70447C16.5664 9.30076 16.9906 9.01338 17.5504 9.42393C16.8345 11.9659 17.6522 14.4326 17.8931 16.9301C17.6488 17.156 17.3841 17.1423 17.1127 16.9917C16.0948 15.589 16.3256 13.9023 16.105 12.3251C15.9931 11.5588 16.0745 10.7651 15.5825 10.0877Z" fill="#B8AA99"/>
<path d="M6.06491 9.43487C6.63831 9.54093 7.20153 9.6812 7.65618 10.0815C7.39492 10.5468 7.52046 11.06 7.48653 11.5526C7.25921 13.2838 7.64259 15.1586 6.32954 16.6366C6.13276 16.6469 5.93597 16.6571 5.73579 16.6674C5.919 14.2622 6.50598 11.8742 6.06491 9.43487Z" fill="#B9B0A4"/>
<path d="M22.001 28.1419C21.7838 28.9527 22.3135 29.8894 21.5942 30.6182C21.2719 30.2795 21.0005 29.8757 21.0039 29.4207C21.014 27.2277 20.0912 25.3665 19.0563 23.5293C18.8663 23.1906 18.639 22.8382 18.8324 22.4106C18.9851 22.2737 19.1446 22.2669 19.3108 22.3901C20.7799 24.0357 21.4954 26.0378 22.001 28.1419Z" fill="#45342C"/>
<path d="M9.39001 55.2291C11.5615 55.4617 13.699 55.0135 15.8535 54.9075C16.1147 54.709 16.4099 54.6988 16.5287 55.0101C16.6169 55.2393 16.3861 55.3933 16.1317 55.407C15.9111 55.4207 15.6872 55.4275 15.5176 55.5986C15.3547 55.6054 15.1952 55.6122 15.0324 55.6191C12.7795 55.8586 10.5232 55.8346 8.26696 55.6328C7.18124 55.7012 6.21088 55.2496 5.20319 54.9554C5.69855 54.839 6.28211 55.0785 6.68926 54.5961C7.71052 54.2848 8.61643 54.4661 9.39001 55.2291Z" fill="#463A35"/>
<path d="M17.5501 9.42694C17.0887 9.51931 16.6306 9.61168 16.1692 9.70748C16.0606 9.60826 15.9554 9.51247 15.8503 9.41325C16.9835 8.52715 16.9733 7.02522 17.713 5.927C17.8419 5.93042 17.964 5.98516 17.9606 6.08438C17.9538 6.31018 18.0658 6.40597 18.0013 6.19728C17.6281 4.99642 17.8996 3.78187 17.8928 2.57417C18.0217 2.45443 18.154 2.33811 18.2829 2.21836C18.4831 4.66456 19.0498 7.15181 17.5501 9.42694Z" fill="#C04030"/>
<path d="M19.3144 22.3872C19.1787 22.3975 19.043 22.4077 18.9073 22.4146C18.792 22.5754 18.68 22.5822 18.5714 22.4112C18.5714 22.2983 18.5714 22.1854 18.5714 22.0759C17.5909 20.7519 17.6248 19.0344 16.8614 17.6248H16.7019L16.5424 17.6214C16.0606 17.4401 15.4771 17.334 15.7892 16.5745C16.3558 16.1776 16.763 16.5266 17.1769 16.8687C17.4178 16.8893 17.6587 16.9098 17.8996 16.9303C18.0387 18.8394 19.0939 20.5021 19.3144 22.3872Z" fill="#4F3F39"/>
<path d="M21.6656 52.984C21.5468 51.6976 22.385 50.6442 22.5241 49.3407C21.9643 49.067 21.6248 49.4294 21.2856 49.7817C20.5527 49.3438 20.5529 49.3441 21.6216 48.4135C21.9847 48.0064 22.1611 47.3632 22.8804 47.4043C22.8498 49.351 23.1652 51.3692 21.6656 52.984Z" fill="#51443C"/>
<path d="M8.28019 0.471743C8.76877 0.59833 9.35237 0.358842 9.74594 0.851502C9.44737 1.26547 8.95538 1.27574 8.53806 1.43654C8.12752 1.5597 7.71697 1.6726 7.30643 1.79919C7.05536 1.87446 6.80429 1.94972 6.58714 2.10368C6.44464 2.23711 6.31233 2.37738 6.16982 2.50739C6.11214 2.53818 6.05446 2.56555 5.99339 2.59634C5.61338 2.30895 5.69821 1.87788 5.65749 1.48443C6.38357 0.752285 7.28268 0.482007 8.28019 0.471743Z" fill="#C54231"/>
<path d="M5.33247 1.87723C5.32569 4.06683 5.3223 6.25301 5.31551 8.44261C4.96265 6.25301 4.70479 4.06341 5.33247 1.87723Z" fill="#BA4E3E"/>
<path d="M8.26731 55.6346C10.5236 55.6311 12.7765 55.6243 15.0327 55.6209C12.7799 56.1922 10.5236 56.0519 8.26731 55.6346Z" fill="#4A3B34"/>
<path d="M15.5181 55.6021C15.2772 55.1949 16.675 55.6021 15.8539 54.911C16.5631 54.6441 17.2959 53.9086 17.9372 55.017C17.1975 55.4857 16.3765 55.6294 15.5181 55.6021Z" fill="#4A3B34"/>
<path d="M22.8767 47.4061C22.5679 47.8782 22.1506 48.2204 21.6179 48.4154C21.6179 48.1827 21.6213 47.9501 21.6213 47.7174C21.5094 47.1666 21.7706 46.9682 22.2829 46.9955C22.4729 46.9887 22.6599 46.9786 22.8499 46.9718C22.86 47.1155 22.8665 47.2624 22.8767 47.4061Z" fill="#574236"/>
<path d="M1.24716 28.5288C1.25733 29.2233 1.2709 29.9178 1.28108 30.6157L1.24036 30.6602C1.09108 30.7423 0.951978 30.7184 0.826441 30.6055C0.850191 30.1573 0.870552 29.7091 0.894303 29.2609C1.01305 29.0146 1.1284 28.7717 1.24716 28.5288Z" fill="#4A342A"/>
<path d="M9.0578 33.7195C10.8492 33.7024 12.6407 33.6853 14.4355 33.6682C15.5382 32.9326 15.8029 34.3592 16.5697 34.5029C16.8649 34.6398 17.1397 34.804 17.2924 35.1085C16.3865 35.5396 16.875 36.5146 16.5052 37.1578C16.3525 37.4452 16.1218 37.63 15.8029 37.6881C15.4772 37.7223 15.1752 37.7839 15.2498 38.2389C15.3211 39.3235 14.0657 39.498 13.8282 40.3738C12.8273 41.0273 13.0071 40.0077 12.7086 39.5117C12.1623 40.5551 13.4346 42.1734 11.65 42.7071C11.0766 42.8782 10.6694 42.7276 10.3742 42.2281C9.74656 42.2384 9.77369 43.2853 9.02726 43.104C8.55904 43.0526 8.08744 42.9979 7.70065 42.6832C7.61582 42.5292 7.56154 42.3308 7.65993 42.2076C8.39958 41.2633 9.30209 40.3533 7.99583 39.1832C7.97547 38.8719 7.99243 38.5605 8.0535 38.2526C7.93475 37.1339 7.03902 36.7952 6.20777 36.3915C5.90919 35.9843 5.77687 35.5293 5.80401 35.0264C6.14669 33.8974 7.01527 34.2053 7.79903 34.2771C8.14511 34.2806 8.49796 34.2908 8.76939 34.0103C8.86779 33.9145 8.9628 33.8153 9.0578 33.7195Z" fill="#CF4935"/>
<path d="M8.03626 49.8213C5.55945 49.6092 3.21156 49.0447 1.24708 47.3854C1.24369 47.2896 1.24368 47.1972 1.24029 47.1015C1.26065 43.9881 0.70083 40.8474 1.7187 37.7888C1.89852 37.2448 1.4744 36.8172 1.39637 36.3348C1.1419 34.7952 0.616009 33.1667 2.27174 32.0103C2.84853 32.2122 3.42532 32.4174 4.00211 32.6193C4.243 32.9033 4.37532 33.2591 4.59586 33.5567C4.76551 33.6902 4.92836 33.8304 5.05729 34.0015C5.17265 34.4189 4.84693 34.6515 4.67729 34.9492C4.43979 35.3221 4.33801 35.7429 4.24301 36.1671C4.21247 36.3245 4.17515 36.475 4.13443 36.629C4.02925 37.8093 4.11069 38.9931 4.09372 40.1734C4.09372 40.6011 4.09032 41.0287 4.08693 41.453C4.16497 43.0575 3.66282 44.7682 4.92159 46.1572C5.03695 46.2667 5.14551 46.3864 5.25408 46.5062C5.52212 46.8004 5.85462 47.0399 6.0548 47.3957C6.1023 47.5565 6.07856 47.7002 5.97338 47.8336C5.60694 48.0731 5.24392 48.0218 4.88427 47.8165C5.56624 48.2134 6.2923 48.3639 7.07267 48.2031C7.23892 48.1928 7.40178 48.2134 7.56464 48.2476C8.35858 48.5829 9.10841 48.9284 8.03626 49.8213Z" fill="#CB4935"/>
<path d="M16.5077 34.7288C16.1243 34.4962 14.9606 35.1462 15.5204 33.8427C15.1574 33.7845 14.7943 33.7264 14.4313 33.6682C16.7215 33.0387 19.144 32.8608 21.268 31.6497C22.2825 32.5597 21.6276 33.7777 21.7803 34.8383C21.8651 35.4199 21.8516 36.0631 21.9432 36.6755C21.8516 37.7053 22.2757 38.8138 21.4817 39.7307C20.5555 40.0933 20.4707 39.327 20.2976 38.7796C20.0974 38.133 20.2026 37.4727 20.3417 37.1579C20.2467 37.4898 19.8362 37.9345 19.144 37.8387C18.479 37.7464 18.8081 37.1647 18.781 36.7713C18.781 36.8603 18.7369 36.956 18.7063 37.0758C18.5129 37.7703 19.1576 39.0977 18.1363 39.0533C17.1388 39.0088 17.339 37.6437 17.3763 36.7816C17.4001 36.2273 17.6851 35.6868 17.4646 35.112C17.5426 33.9761 18.574 34.2533 19.066 33.8906C18.1805 33.788 17.5528 34.958 16.5077 34.7288Z" fill="#C34534"/>
<path d="M0.829616 30.6048C0.968724 30.6219 1.10443 30.6425 1.24354 30.6596C1.38604 30.9778 1.52854 31.2959 1.66765 31.6175C1.66765 32.4763 1.42337 33.3042 1.35551 34.1561C1.06372 35.747 1.56248 37.3379 1.3623 38.9287C1.14176 41.7342 1.30462 44.5396 1.35891 47.345L1.25033 47.3861C1.00944 47.2766 0.765143 47.1705 0.524247 47.061C0.0153138 45.9834 0.293544 44.8338 0.283365 43.7287C0.246044 39.3461 0.00175046 34.9498 0.829616 30.6048Z" fill="#A53624"/>
<path d="M8.6949 21.3673C8.67115 22.3286 8.39972 23.2318 8.06383 24.1214C7.40561 25.1067 7.6431 26.4376 6.82542 27.3613C6.65577 27.3818 6.49292 27.351 6.34363 27.2723C6.00434 26.376 6.8797 25.6541 6.76095 24.7201C6.6897 25.3188 6.75757 26.0338 6.13327 26.1365C5.67523 26.2118 5.84148 25.5275 5.72612 25.182C6.31648 23.7485 6.75077 22.2671 7.05953 20.748C7.11381 20.6283 7.20881 20.5564 7.33435 20.5325C7.85346 19.968 7.44631 19.0477 8.09096 18.531C8.57614 18.3531 8.85437 18.5961 9.04098 19.0134C8.99348 19.6087 9.18007 20.2383 8.78989 20.7857C8.64739 20.7241 8.59989 20.6043 8.58293 20.4606C8.55239 20.7685 8.5049 21.0833 8.6949 21.3673Z" fill="#92857F"/>
<path d="M1.35603 47.3465C0.585842 44.5445 1.07102 41.6774 0.948877 38.8447C1.37638 37.264 0.833524 35.6218 1.25085 34.0412C1.37978 33.2338 0.935301 32.3237 1.66477 31.6224C1.86835 31.7524 2.06854 31.8858 2.27211 32.0158C1.48836 33.5896 1.1287 35.16 2.1805 36.7816C2.31282 36.9869 2.33998 37.3633 2.25515 37.6027C1.21014 40.5108 1.61049 43.4907 1.75639 46.4604C1.76996 46.7991 1.63085 47.1138 1.35603 47.3465Z" fill="#D15B4A"/>
<path d="M16.549 25.1315C15.8161 24.0264 15.6804 23.2943 15.8195 20.2596C16.5863 23.089 18.2794 25.5797 18.5915 28.5733C17.4684 28.6246 17.2208 27.8616 17.1631 26.9687C17.1156 26.2947 17.0884 25.631 16.549 25.1315Z" fill="#6D5D55"/>
<path d="M13.7121 30.7939C15.3882 31.3995 16.7962 32.1487 18.6555 31.2045C17.3866 32.5969 13.3524 33.2572 11.3913 32.443C12.4228 32.4977 12.8876 31.5466 13.7358 32.2069C13.9428 32.3677 14.2787 32.0906 14.3601 31.7929C14.4891 31.3208 13.8648 31.4166 13.7121 30.7939Z" fill="#553E33"/>
<path d="M15.8809 16.6495C15.813 17.1695 16.3728 17.2619 16.5391 17.6245C15.701 18.0967 14.8358 18.4627 13.8383 18.3293C11.9417 18.5962 11.6872 18.2814 12.2708 16.386C13.2039 15.996 14.1709 16.15 15.1344 16.1944C15.4364 16.256 15.7044 16.3758 15.8809 16.6495Z" fill="#885F48"/>
<path d="M7.3103 20.6456C7.22209 20.673 7.13726 20.7038 7.05583 20.7448C7.03548 20.5259 7.01852 20.3103 6.95405 19.5919C6.45869 20.8817 6.1669 21.8396 5.34582 22.4212C5.14904 22.3802 5.0269 22.2673 4.98957 22.0654C5.00315 21.8328 5.01672 21.5967 5.03029 21.3641C5.26779 21.0835 5.53921 20.8133 5.35599 20.3924C5.99725 19.5645 5.50529 18.196 6.66566 17.6178C6.7912 17.5015 6.94047 17.4399 7.11351 17.4331C7.47655 17.4912 7.73103 17.6931 7.89389 18.0181C7.94478 18.1823 7.95496 18.35 7.9346 18.521C7.73781 19.2292 7.89388 20.0503 7.3103 20.6456Z" fill="#594238"/>
<path d="M18.5674 22.4156C18.6793 22.419 18.7913 22.419 18.9067 22.419C19.0492 23.8252 20.335 24.636 20.6608 26.0148C21.0204 27.5441 21.4004 29.0597 21.6006 30.6163C21.1459 30.7942 20.8949 31.3998 20.2332 31.2356C20.8881 29.7097 20.7761 28.2044 20.1891 26.6785C19.6395 25.2587 18.7302 23.9791 18.5674 22.4156Z" fill="#624C41"/>
<path d="M4.31041 34.7035C4.53434 34.4983 4.75826 34.2964 4.9788 34.0911C4.81255 33.4069 4.56148 33.838 4.32737 34.0398C3.80147 33.6635 4.02201 33.1126 4.00165 32.6166C5.73881 32.7329 7.36062 33.3898 9.05707 33.7148C9.06385 33.8277 9.06723 33.9406 9.06384 34.0569C8.80598 34.3956 8.28009 34.3203 8.06295 34.7172C7.39794 34.9464 6.50899 33.8893 6.01363 35.0833C5.3622 35.3467 4.79899 35.1962 4.31041 34.7035Z" fill="#CC5C47"/>
<path d="M6.3904 27.214C6.4888 27.2105 6.58379 27.2071 6.68219 27.2071C7.06559 27.45 6.7161 27.9222 6.98754 28.1993C6.92307 28.6475 6.86541 29.0956 6.79076 29.5404C6.66183 30.317 6.91629 31.4084 5.44377 30.9979C4.20198 30.6523 4.22913 29.8449 4.52092 28.8767C4.55145 28.7706 4.61931 28.6714 4.66681 28.5688C6.05111 29.1641 5.70504 27.5219 6.3904 27.214Z" fill="#8E7F77"/>
<path d="M6.39129 27.2153C6.23861 27.9166 6.08592 28.618 5.92984 29.3262C5.31912 29.3536 5.1427 28.7104 4.6677 28.5701C4.73216 27.3487 5.24788 26.271 5.72288 25.1796C6.64575 26.7466 6.37432 24.4475 7.02237 24.8752C6.81879 25.6244 6.60504 26.4216 6.39129 27.2153Z" fill="#A89E96"/>
<path d="M11.5248 22.9751C11.0905 24.956 11.9794 27.125 10.5204 28.9588C11.3449 27.0327 10.1642 24.8225 11.5248 22.9751Z" fill="#573F34"/>
<path d="M16.5491 25.1305C17.6416 24.9047 17.4652 25.9139 17.4041 26.3005C17.2243 27.433 17.6654 28.1001 18.5916 28.5757C19.1583 29.3352 18.4695 29.6089 18.0183 29.7731C17.4991 29.9647 17.4041 29.3694 17.3295 29.041C17.0309 27.7443 16.8036 26.434 16.5491 25.1305Z" fill="#6E5D55"/>
<path d="M12.1379 16.6193C12.4263 17.4678 12.3686 18.6721 13.8377 18.3265C12.277 18.9115 10.7061 18.7371 9.13516 18.3744C9.0673 18.3231 9.00284 18.2683 8.93499 18.217C8.77213 17.8886 8.77212 17.567 8.99266 17.2625C9.13855 17.177 9.29461 17.153 9.46086 17.1804C9.95283 17.2078 10.6077 18.0665 10.8045 16.7356C10.8893 16.1335 11.6357 16.1609 12.1379 16.6193Z" fill="#765543"/>
<path d="M21.6286 36.4391C20.8958 35.3101 21.5371 34.0784 21.4149 32.8981C21.3742 32.4875 21.4997 32.053 21.269 31.6493C21.3979 31.5227 21.5269 31.3961 21.6558 31.2696C22.1003 31.6527 21.9069 32.1899 21.9815 32.662C22.2665 33.8595 22.0799 35.074 22.0969 36.2783C22.0019 36.5041 21.8424 36.5588 21.6286 36.4391Z" fill="#C85B48"/>
<path d="M16.8579 17.628C17.9301 18.9144 18.1167 20.5497 18.5679 22.079C18.0183 22.0722 17.7434 21.6753 17.6858 21.2408C17.5195 20.0058 16.7833 18.911 16.8579 17.628Z" fill="#6C5448"/>
<path d="M4.99005 22.0647C5.1088 22.1845 5.22755 22.3042 5.3463 22.4205C4.77969 23.6761 4.21647 24.9283 3.64985 26.1839C3.39539 26.0368 3.54806 25.6844 3.32413 25.5236C4.1961 24.5246 4.0604 23.0329 4.99005 22.0647Z" fill="#5E4E44"/>
<path d="M1.61736 30.2623C1.56647 29.7731 1.72553 29.3387 1.94607 28.9179C2.26161 28.5073 1.98679 27.8094 2.60769 27.546C2.71287 27.4228 2.81465 27.2996 2.91983 27.1765C3.14376 27.1628 3.13697 27.4023 3.25912 27.4981C2.79429 28.4697 2.92702 29.8039 1.61736 30.2623Z" fill="#625147"/>
<path d="M6.98456 28.1994C6.62491 27.9497 6.71312 27.5596 6.67919 27.2073C7.50366 26.3451 6.86919 24.8158 8.0601 24.1213C8.05331 25.5753 7.41206 26.8583 6.98456 28.1994Z" fill="#A2978F"/>
<path d="M7.7715 18.3976C7.76133 18.2368 7.75116 18.0795 7.74438 17.9187C7.85634 17.8194 7.98865 17.7544 8.13455 17.7202C8.56205 17.6723 8.83688 17.8947 9.02688 18.2505L9.13545 18.3703C9.10492 18.5824 9.071 18.7945 9.03707 19.0066C8.71814 18.8732 8.39581 18.7398 8.07687 18.6063C7.93777 18.5961 7.83597 18.5276 7.7715 18.3976Z" fill="#765543"/>
<path d="M3.25938 27.5028C3.14741 27.3967 3.03206 27.2872 2.92009 27.1812C3.05581 26.6304 3.19152 26.0795 3.32385 25.5287C3.62581 25.6519 3.62243 25.929 3.64957 26.189C3.52064 26.6269 3.3917 27.0649 3.25938 27.5028Z" fill="#7D6D61"/>
<path d="M13.6996 30.2736C14.4494 29.8801 14.748 29.9178 15.0093 30.1573C15.05 30.1949 15.0228 30.3967 14.9686 30.4344C14.6055 30.6875 14.4189 30.277 13.6996 30.2736Z" fill="#614C40"/>
<path d="M8.6949 21.3673C8.26061 20.9464 8.32508 20.4779 8.5999 19.821C8.68133 20.2418 8.73563 20.5121 8.78653 20.7858C8.75599 20.9774 8.72544 21.1723 8.6949 21.3673Z" fill="#A89B93"/>
<path d="M10.1699 32.6489C10.0953 32.5668 9.99345 32.4539 9.89506 32.3444C10.0138 32.2691 10.1258 32.1596 10.2547 32.1357C10.326 32.1254 10.4583 32.2486 10.4956 32.3375C10.5974 32.5839 10.4108 32.6147 10.1699 32.6489Z" fill="#624F43"/>
<path d="M9.63795 27.7523C9.58366 27.6496 9.48186 27.5299 9.45811 27.3965C9.42758 27.2288 9.51919 27.0543 9.71598 27.1364C9.83473 27.1843 9.9467 27.352 9.97724 27.482C10.018 27.6702 9.87884 27.7625 9.63795 27.7523Z" fill="#624F45"/>
<path d="M20.281 48.4639C18.7881 49.2508 17.1968 49.6647 15.5208 49.764C15.4868 49.0113 14.8761 49.4526 14.5572 49.2952C13.424 48.8984 13.709 48.2244 14.2145 47.5094C14.3095 47.3862 14.4249 47.2836 14.5538 47.198C14.6895 47.1296 14.832 47.0749 14.9779 47.0338C15.9109 46.9756 16.481 46.134 17.3394 45.915C17.9331 46.3153 18.554 46.6643 19.2156 46.9277C19.3208 47.4443 19.8128 47.4136 20.1622 47.588C20.4439 47.8481 20.5321 48.132 20.281 48.4639Z" fill="#C0412F"/>
<path d="M14.5026 49.0966C14.9641 49.0932 15.4866 48.6861 15.87 49.165C16.0973 49.4524 15.5615 49.5108 15.5208 49.764C13.0304 50.2942 10.5368 50.3551 8.03626 49.8213C8.75216 48.9044 7.74739 48.8092 7.37417 48.4124C7.41149 47.4544 8.15455 47.8102 8.61598 47.7897C10.6856 47.7007 12.589 48.4295 14.5026 49.0966Z" fill="#CC4B36"/>
<path d="M21.6286 36.4391C21.7372 36.4391 21.8491 36.4392 21.9577 36.4392C22.3581 36.9559 21.9034 37.6333 22.28 38.1533C22.2834 41.1024 22.2834 44.0515 22.2868 46.9972C22.0663 47.2367 21.8458 47.4762 21.6252 47.7191C21.4183 47.8491 21.2113 47.9791 21.0043 48.1091C20.2171 48.1912 20.6243 47.6541 20.6074 47.3325C20.7159 47.0349 20.8822 46.7646 21.0213 46.4806C21.5234 45.0471 21.4623 43.5794 21.252 42.1117C21.157 41.4343 21.0552 40.7637 21.235 40.0897C21.2486 40.0145 21.2656 39.9392 21.2825 39.8639C21.6931 38.752 21.6286 37.592 21.6286 36.4391Z" fill="#C84E3E"/>
<path d="M9.39026 55.2281C8.49115 55.0159 7.59203 54.8072 6.69291 54.5951C5.42058 54.3864 4.2636 53.904 3.27966 52.8742C5.32218 53.3258 7.36812 53.7775 9.41064 54.2256C9.40386 54.5643 9.39705 54.8962 9.39026 55.2281Z" fill="#674D3F"/>
<path d="M6.42094 51.625C6.35648 52.4734 6.64148 53.0687 5.80683 52.9319C4.74146 52.7574 4.02895 52.2442 3.99502 51.0673C3.98484 50.7115 3.82199 50.0717 4.43271 50.2359C5.34879 50.4788 6.57702 50.5575 6.42094 51.625Z" fill="#8D7E75"/>
<path d="M2.4656 52.2411C1.40702 51.4919 1.14915 50.4929 1.52236 48.8917C2.0788 50.202 1.96684 51.3174 2.4656 52.2411Z" fill="#625147"/>
<path d="M18.9344 50.2816C19.0769 51.958 19.0769 51.958 17.1871 52.5944C18.0862 51.8691 18.5612 51.284 18.9344 50.2816Z" fill="#5A473B"/>
<path d="M18.2455 53.1961C18.0114 54.1096 17.516 54.0515 16.9087 53.5622C17.3125 53.2885 17.7535 53.1517 18.2455 53.1961Z" fill="#735C4C"/>
<path d="M20.939 47.3974C20.8847 47.6403 20.5725 47.9072 21 48.109C20.7591 48.2288 20.5183 48.3451 20.2807 48.4648C20.2604 48.1638 20.2129 47.8764 19.9109 47.719C20.0602 46.98 20.4742 47.1066 20.939 47.3974Z" fill="#C34534"/>
<path d="M6.32928 16.6397C6.76018 14.8298 7.03161 12.9995 7.07232 11.1349C7.55751 11.3641 7.64234 10.5225 8.12413 10.7346C8.4261 10.9091 8.55163 11.1794 8.5686 11.5181C8.69414 12.8968 7.83914 14.4296 9.1963 15.6201C9.32862 15.7159 9.43038 15.8391 9.50502 15.9828C9.5152 16.1539 9.45752 16.2976 9.33198 16.4139C8.76537 16.7697 8.05288 16.5918 7.48287 16.9373C7.10626 17.0639 6.71946 17.341 6.37339 16.8792C6.37339 16.7936 6.35642 16.7149 6.32928 16.6397Z" fill="#E2DED3"/>
<path d="M6.38051 16.8753C6.69944 16.7624 7.01837 16.6495 7.33391 16.5366C7.65963 16.4339 8.06337 16.3484 8.06677 16.824C8.07016 17.3543 7.58499 17.4877 7.14731 17.5972C6.98784 17.604 6.82499 17.6143 6.66552 17.6211C6.57052 17.3679 6.47551 17.1216 6.38051 16.8753Z" fill="#624332"/>
<path d="M5.35588 20.3902C5.85802 20.9239 5.78679 21.2592 5.03017 21.3619C5.13874 21.0403 5.2473 20.7152 5.35588 20.3902Z" fill="#6A544A"/>
<path d="M2.60769 27.546C2.38715 28.0044 2.16661 28.4595 1.94607 28.9179C2.01053 28.3842 1.71196 27.6726 2.60769 27.546Z" fill="#4A342A"/>
<path d="M22.2766 38.1525C21.7473 37.6633 22.0391 37.0132 21.9542 36.4385C21.9644 35.1794 21.9713 33.921 21.9815 32.662C22.6228 34.4616 22.1544 36.3221 22.2766 38.1525Z" fill="#C34534"/>
<path d="M15.8809 16.6495C15.6535 16.6289 15.4261 16.6124 15.1988 16.5919C13.8552 16.0103 12.4438 16.3114 11.0629 16.284C10.5064 16.2737 9.94657 16.4277 9.47496 15.9932C9.44442 15.9385 9.41052 15.8871 9.3698 15.8392C8.62676 14.6384 8.90495 13.3623 9.09156 12.093C9.41049 11.2856 10.0925 11.3232 10.788 11.3369C11.9111 11.3574 13.0341 11.4258 14.1572 11.2069C15.1445 11.0153 15.8807 11.1829 15.5482 12.5138C15.4091 13.0715 15.7043 13.636 15.6636 14.0841C15.4532 11.549 15.4532 11.549 14.9986 11.1145C14.8391 11.0905 14.6932 11.0324 14.5541 10.9469C14.4354 10.8271 14.3811 10.6868 14.3879 10.5192C14.5032 10.2763 14.7272 10.201 14.9647 10.1394C15.1716 10.1189 15.3752 10.1018 15.5822 10.0813C16.444 9.99917 16.5627 10.4884 16.5423 11.2171C16.4881 13.1262 16.807 14.9976 17.1701 16.8622C16.6645 17.2385 16.3593 16.4339 15.8809 16.6495Z" fill="#ECE7DC"/>
<path d="M13.4989 9.71857C11.8974 9.6433 10.2722 10.071 8.69793 9.46197C8.73864 9.10616 8.42989 9.01037 8.22971 8.83246C7.9956 8.62035 7.83273 8.36375 7.73434 8.0661C7.63934 7.32027 7.13041 6.78313 6.78433 6.16389C6.62487 5.49332 6.73684 4.94592 7.44935 4.66538C7.85989 4.53537 8.29077 4.48406 8.68774 4.31299C9.01346 4.17614 9.33917 4.03587 9.68186 3.94692C11.4088 3.76901 13.146 3.81007 14.8764 3.78954C15.0698 3.7998 15.2089 3.89218 15.2937 4.07008C15.2292 4.90829 14.5167 5.16146 13.9637 5.55491C13.2614 6.13994 12.1824 6.30416 11.8804 7.53581C11.8465 7.61108 12.2401 7.61792 12.0264 7.53581C11.9449 7.50502 11.9415 7.46396 11.9551 7.39896C12.2232 6.19468 12.9424 6.63602 13.621 6.93025C15.0698 7.60766 13.7499 8.39454 13.7092 9.13353C13.7126 9.34907 13.6617 9.55435 13.4989 9.71857Z" fill="#CF4835"/>
<path d="M7.75133 4.94262C6.83525 5.06236 7.07615 5.78082 7.03544 6.35217C7.58509 6.78325 7.57831 7.55303 8.04314 8.03885C8.16189 8.26123 8.28064 8.48703 8.40278 8.70941C8.16867 9.12339 7.70723 8.87363 7.39508 9.05838C5.71221 8.93522 5.85472 7.53593 5.71222 6.45481C5.57651 5.41133 5.68507 4.33706 5.68507 3.27305C6.45187 2.75302 7.09991 3.05409 7.72081 3.56385C7.94474 4.01546 7.92437 4.47733 7.75133 4.94262Z" fill="#D4513E"/>
<path d="M13.4989 9.71857C13.4955 9.50987 13.4923 9.29778 13.4889 9.08908C13.6924 8.51089 14.1946 8.4151 14.6968 8.31588C14.8528 8.28851 15.0157 8.2714 15.1752 8.2543C16.9734 7.84375 16.2643 6.32129 16.4916 5.21623C16.573 4.60724 16.7732 4.053 17.1973 3.59798C17.4179 3.37902 17.6384 3.15663 17.8589 2.93767C18.1744 3.95379 18.1575 4.9699 17.8725 5.98601C17.7707 6.23234 17.54 6.50262 17.5841 6.72158C17.8691 8.20298 17.1057 8.95907 15.8537 9.4141C15.0361 9.29094 14.2792 9.59882 13.4989 9.71857Z" fill="#D45341"/>
<path d="M7.72126 3.90652C7.10036 3.50281 6.4349 3.25594 5.68507 3.27305C5.79025 3.04725 5.89249 2.82198 5.99766 2.59276L6.05196 2.5517C8.5627 3.34543 11.2295 2.83567 13.7572 3.48228C13.9981 4.28285 13.3738 4.06732 13.0074 4.10495C11.8131 4.22811 10.5917 3.89967 9.41093 4.30338C9.2854 4.55313 9.06483 4.61814 8.81376 4.6284C8.32179 4.58392 7.93501 4.37523 7.72126 3.90652Z" fill="#C54231"/>
<path d="M8.06674 10.8005C7.7037 10.821 7.76138 12.1143 7.07262 11.1324C7.03191 10.65 6.91996 10.1231 7.65961 10.0821C8.13461 10.7595 8.84372 10.1471 9.39677 10.4071C10.34 10.8313 11.3171 10.6089 12.2807 10.5337C13.0407 10.4755 13.8041 10.2771 14.4997 10.7834L14.503 10.7868C14.5404 11.0434 14.4318 11.259 14.1943 11.2863C12.1213 11.5053 10.0414 11.8166 8.06674 10.8005Z" fill="#ECE7DC"/>
<path d="M14.4963 10.7855C12.8033 10.5734 11.0423 11.2508 9.39339 10.4092C10.3061 10.4092 11.2187 10.4058 12.1314 10.4058C12.922 10.2244 13.7092 10.18 14.4963 10.4263C14.4963 10.546 14.4963 10.6658 14.4963 10.7855Z" fill="#EFE2D8"/>
<path d="M7.39508 9.05838C7.63259 8.6581 8.04314 8.75389 8.40278 8.70941C8.70136 8.771 9.12582 8.6276 9.231 9.02446C9.33279 9.40764 8.93242 9.37685 8.69831 9.45896C8.26402 9.32553 7.82937 9.19181 7.39508 9.05838Z" fill="#DB644F"/>
<path d="M14.4963 10.4263C13.7092 10.4195 12.9186 10.4126 12.1314 10.4058C13.0306 9.8139 14.0148 10.1903 14.9615 10.1458C14.8088 10.2416 14.6524 10.3339 14.4963 10.4263Z" fill="#C04030"/>
<path d="M6.31575 1.83916C6.54986 1.73653 6.78057 1.63389 7.01468 1.53125C7.70683 1.8939 8.27006 1.38756 8.88756 1.24387C10.584 1.30887 12.3042 0.771735 13.9769 1.57573C14.4146 1.78785 14.2449 1.07965 14.4892 0.898321C15.3646 0.816211 16.1653 1.02833 16.8948 1.52441C16.6742 2.35235 16.1993 2.89633 15.3035 2.97502C12.7589 3.54295 10.221 3.584 7.68309 2.9237C7.0588 2.75606 6.49557 2.55078 6.31575 1.83916Z" fill="#DA5A49"/>
<path d="M6.31603 1.84019C8.2839 3.15737 10.5198 3.26685 12.7354 3.06842C13.6515 2.98631 14.6693 3.13684 15.5345 2.59971C15.7109 2.83919 16.0977 2.65103 16.2436 2.9521C15.7652 3.48239 14.9441 3.02736 14.4725 3.5816C14.2791 3.79714 14.0586 3.81083 13.8143 3.67056C11.8906 3.43107 9.92945 3.9511 8.02943 3.39686C7.34746 3.19842 6.71018 2.83909 6.05196 2.5517C6.02482 2.27116 6.06495 2.01467 6.31603 1.84019Z" fill="#E17563"/>
<path d="M14.4896 0.894868C14.7475 1.39779 15.0936 1.88703 14.3403 2.30784C13.4921 2.7834 13.7432 1.96572 13.482 1.68518C13.2682 1.45595 12.7694 1.432 12.3962 1.43543C11.1748 1.44569 9.95334 1.50727 8.7319 1.54833C8.59279 1.43543 8.38243 1.39437 8.3485 1.17199C8.74886 0.771703 9.27478 0.932502 9.74639 0.84697C11.3343 0.258515 12.9052 1.08304 14.4896 0.894868Z" fill="#E06959"/>
<path d="M17.1938 3.59839C17.0853 4.16974 16.9767 4.74451 16.8681 5.31586C16.366 5.57587 16.0538 5.98642 15.8401 6.5133C15.7078 6.83489 15.572 7.29334 15.0394 6.9649C14.5406 6.04801 14.8256 5.16874 15.1717 4.29633C15.1717 4.18342 15.1751 4.07052 15.1751 3.9542C15.2633 3.81735 15.3617 3.80367 15.4737 3.92683C16.0199 3.65997 16.5933 3.56076 17.1938 3.59839Z" fill="#CD4A38"/>
<path d="M15.4768 3.92698C15.3784 3.93383 15.28 3.94409 15.1783 3.95435C13.2782 4.4128 11.3375 4.26569 9.41369 4.30674C9.96334 3.57117 10.7403 4.08094 11.3986 3.95778C12.1925 3.80724 13.0577 4.22121 13.8143 3.67381C14.0348 3.64302 14.252 3.61565 14.4725 3.58486C14.822 3.64644 15.2427 3.50959 15.4768 3.92698Z" fill="#B53120"/>
<path d="M16.2433 2.9511C15.9685 2.91347 15.6903 2.87925 15.5342 2.59871C16.4469 2.83136 16.1347 1.49023 16.8913 1.52102C18.1128 2.66029 16.8269 2.64319 16.2433 2.9511Z" fill="#E4816F"/>
<path d="M17.869 5.98365C17.8656 4.96754 17.8622 3.95143 17.8589 2.93532C17.869 2.81216 17.8792 2.69241 17.8928 2.56925C18.5409 3.72221 18.0522 4.97439 18.1947 6.17182C18.1981 6.20946 18.1439 6.25051 18.1167 6.29157C18.0319 6.18893 17.9505 6.08629 17.869 5.98365Z" fill="#B42C1C"/>
<path d="M8.34897 1.17546C8.4779 1.30205 8.60343 1.42521 8.73236 1.5518C8.15897 1.69207 7.57539 2.63975 7.01556 1.53127C7.46003 1.41153 7.9045 1.2952 8.34897 1.17546Z" fill="#E17563"/>
<path d="M14.5026 49.0966C13.4915 48.8845 12.4876 48.5937 11.463 48.4739C10.1092 48.3166 8.7449 47.7965 7.37417 48.4124C7.23845 48.4192 7.10649 48.4295 6.97078 48.4363C6.61113 48.4842 6.36346 48.3439 6.24132 47.995C6.67561 46.972 7.74776 47.3039 8.48401 46.9241C9.03027 46.9788 8.56544 46.647 8.6333 46.5135C9.03366 45.9011 9.31526 45.2477 9.51545 44.5361C9.80045 43.52 10.3128 43.5542 10.8624 44.365C10.8421 44.4711 10.8658 44.5703 10.9269 44.6524C10.9235 44.5429 10.9167 44.4369 10.8964 44.3205C10.8828 42.7433 10.988 42.8357 12.3214 43.0889C13.5394 43.3215 14.2825 44.1016 15.1951 44.7071C15.2393 43.0547 14.0619 41.7717 13.8244 40.1979C13.4681 39.5753 13.8244 39.3016 14.3469 39.086C14.7676 38.9115 15.1782 38.7097 14.8457 38.1281C15.0051 37.8202 15.1477 37.4951 15.5616 37.4678C15.833 37.4575 16.0705 37.3857 16.2028 37.1188C16.7084 36.4927 17.1359 36.3182 17.4107 37.3035C17.6754 38.2547 17.5294 39.0586 16.6778 39.6403C16.2198 39.9448 15.5582 40.0713 15.6634 40.8685C15.6939 41.0909 15.7618 41.2346 15.7414 41.0088C15.7414 40.9951 15.8262 40.9745 15.8771 40.9438C16.8339 40.2458 17.4887 40.6393 17.8993 41.5733C18.1469 42.1309 18.1334 42.7707 18.1843 43.366C18.8968 42.911 18.6491 41.9633 19.1954 41.433C19.5347 41.1046 19.8909 40.8582 20.3625 41.0772C20.807 41.2859 20.6136 41.6006 20.427 41.8914C20.3456 42.0215 20.2574 42.1446 20.1759 42.2712C19.8774 43.2873 20.0402 44.4129 19.3888 45.3503C19.2191 45.5932 19.3684 45.8977 19.7688 45.884C19.9248 45.8738 20.0707 45.8977 20.2132 45.9559C20.4982 46.2091 20.505 46.5033 20.349 46.8249C20.0368 47.126 19.7179 47.4099 19.2734 47.0438C18.3539 47.1739 17.5872 46.9925 17.2139 46.0106C16.4471 46.5033 15.7075 47.0541 14.8457 47.3791C14.7337 47.3791 14.6217 47.3791 14.5098 47.3791C14.2519 47.1499 14.3096 46.8283 14.2655 46.5512C14.1705 46.6162 14.1399 46.688 14.1705 46.7975C14.201 47.0473 14.3367 47.2218 14.5098 47.3757C14.5607 47.9573 13.6137 48.5287 14.5026 49.0966Z" fill="#C8422E"/>
<path d="M8.70154 47.0472C8.101 47.817 6.9983 47.338 6.35704 48.0052C6.06864 48.1762 5.99062 48.0394 6.00419 47.7623C5.9974 47.6254 5.99062 47.4886 5.98383 47.3517C5.97026 47.273 5.96006 47.1943 5.94649 47.1122C5.87524 46.4382 5.9024 45.7608 5.93972 45.0868C5.98722 44.1973 5.94989 43.2257 7.30365 43.277C7.51062 43.2838 7.46992 42.7638 7.72099 42.5962C8.18921 42.6406 8.71849 42.4354 9.07135 42.9349C9.93315 43.1436 9.93992 42.1959 10.4353 41.9119C10.8764 42.5072 11.3751 42.6304 11.9859 42.1377C12.4676 41.7511 12.566 41.3303 12.203 40.8171C11.8196 40.2766 11.4667 39.76 12.3659 39.3357C13.533 38.7849 12.963 39.8865 13.2209 40.2047C13.4007 40.4271 13.6212 40.2526 13.8248 40.2013C14.6289 41.2756 15.3516 42.3635 15.4059 43.8039C15.4228 44.2692 15.908 44.8508 15.3312 45.1039C15.0632 45.2203 14.4932 44.8884 14.0114 44.8268C13.3023 44.7379 13.7196 44.0297 13.6857 43.561C13.0207 43.5439 13.2955 44.3068 12.7459 44.536C12.5559 43.8894 12.1487 43.1607 11.4565 43.2599C10.6864 43.3694 11.2903 44.1905 11.1003 44.6558C10.985 44.7652 10.873 44.7584 10.7712 44.6352C10.4455 44.2076 10.1266 43.3625 9.8687 44.6866C9.71601 45.4632 9.50225 46.2501 8.73546 46.6983C8.82028 46.7804 8.84404 46.859 8.80672 46.9343C8.766 47.013 8.73208 47.0472 8.70154 47.0472Z" fill="#CE4430"/>
<path d="M17.5533 43.9654C17.8484 42.5455 17.465 41.8168 17.0409 41.2763C16.2368 40.243 16.1995 41.3242 15.8568 41.5705C15.3106 40.7768 15.5718 40.1165 16.1927 39.5177C17.102 39.0867 17.3259 38.3237 17.1902 37.4C17.0681 36.5823 16.5897 36.9929 16.1927 37.1229C16.4404 36.4078 16.1825 35.4259 17.2207 35.1249C17.3123 34.9846 17.4209 34.9709 17.5465 35.0735C17.9672 35.2583 18.1877 35.5457 17.9468 36.0075C17.4379 36.9826 17.8925 37.9063 17.9841 39.3159C18.6254 37.8379 18.1368 36.3976 19.3685 35.6586C20.0538 36.4523 18.8425 36.7773 18.9715 37.4787C20.2574 37.6224 20.2336 36.6199 20.349 35.3951C20.9224 37.116 20.0301 38.7172 21.2753 39.8599C21.3363 40.4107 21.2549 40.9752 20.6136 40.9923C19.952 41.0094 19.9317 40.3594 19.8435 39.8701C19.762 39.4185 19.7824 38.9703 19.9249 38.529C19.4567 39.9522 19.192 41.4371 18.7408 42.8637C18.5474 43.4932 18.3845 44.0748 17.5533 43.9654Z" fill="#C3402E"/>
<path d="M4.31041 34.7035C4.91095 34.683 5.48773 34.7617 6.01363 35.0833C6.28167 35.4938 6.38382 35.9488 6.38382 36.4312C7.07936 37.2899 6.8181 38.265 6.71631 39.2195C6.47542 41.327 6.3465 43.4482 6.17686 45.5625C6.12936 46.1647 6.36006 46.801 5.99023 47.3689L5.98686 47.3518C5.52542 47.3484 5.17934 47.1568 4.97916 46.7257C5.6272 46.1715 5.50506 45.4051 5.51524 44.6798C5.4881 45.4017 5.61023 46.1647 4.97916 46.7257C2.98414 45.4017 3.79165 43.3627 3.68647 41.5597C3.9104 41.3715 4.14112 41.3886 4.37523 41.5323C4.52452 41.9668 4.54146 42.4013 4.50414 42.5415C4.53129 42.3705 4.51433 41.8915 4.42951 41.4125C4.36844 41.0601 4.44308 40.5812 4.78916 40.5949C5.3422 40.6188 5.1522 41.1457 5.15899 41.5083C5.27095 40.0235 5.24719 38.5353 5.22683 37.0436C5.22004 36.5133 5.17934 35.9625 4.3854 36.202C4.22593 36.2259 4.08343 36.1814 3.96129 36.0788C3.89682 35.5759 4.0797 35.1346 4.31041 34.7035Z" fill="#DD8271"/>
<path d="M5.99 47.3726C6.01375 45.1693 6.02733 42.9626 6.06126 40.7593C6.06805 40.2085 5.91537 39.6201 6.31573 39.1274C6.74663 39.3498 6.63805 39.969 7.07913 40.1743C7.71699 40.1025 7.60502 39.035 8.38878 39.1787C8.57878 39.2711 8.05627 40.0819 8.74503 39.5893C9.03342 39.384 9.21667 39.0966 9.539 39.3703C9.85454 39.6406 9.62039 39.9519 9.50843 40.2735C9.16575 41.2623 8.2395 41.772 7.72039 42.6102C7.44217 42.8668 8.34129 43.8316 7.06217 43.5648C6.40734 43.4279 6.40056 44.249 6.34627 44.8238C6.26145 45.6688 6.69912 46.6063 5.99 47.3726Z" fill="#D34F3A"/>
<path d="M7.04523 40.8864C5.92218 40.6709 6.54646 39.7198 6.31575 39.1245C6.3395 38.2281 6.36346 37.3276 6.38382 36.4312C6.68579 36.2636 6.96379 35.5356 7.30986 36.3772C7.49986 36.8425 7.3845 37.1709 8.30398 37.0307C9.52881 36.8459 8.40237 37.7354 8.3888 38.1528C7.79843 38.9945 7.7272 40.0927 7.04523 40.8864Z" fill="#CC4230"/>
<path d="M17.5502 35.0728C17.4382 35.0796 17.3296 35.0967 17.2244 35.1241C16.936 35.0831 16.6544 35.0317 16.5085 34.7238C17.6214 34.2243 18.6664 33.5469 20.1321 33.369C19.4875 34.522 17.9878 34.0019 17.5502 35.0728Z" fill="#D16753"/>
<path d="M9.75985 36.4665C10.0109 37.0892 11.0492 36.9592 10.754 37.8966C10.6658 38.1806 10.1229 38.4132 9.91255 38.2251C9.4613 37.8248 9.18645 37.2637 9.75985 36.4665Z" fill="#CC4230"/>
<path d="M7.04523 40.8864C7.34041 39.9011 7.37802 38.7827 8.3925 38.1566C8.3925 38.4953 8.3891 38.834 8.3891 39.1727C7.90731 39.7201 7.87988 40.623 7.04523 40.8864Z" fill="#D96451"/>
<path d="M10.4354 41.9165C10.1912 42.5426 10.1708 43.4698 9.07152 42.9395C9.62795 42.7103 9.72636 42.1184 10.0453 41.7044C10.4321 41.2083 10.3608 41.7386 10.4354 41.9165Z" fill="#D95F48"/>
<path d="M8.06305 34.7217C7.7034 33.4353 8.73482 34.2872 9.06393 34.0614C9.04358 34.7628 8.54144 34.7251 8.06305 34.7217Z" fill="#DB7761"/>
<path d="M15.5548 37.4753C15.3173 37.6943 15.0764 37.9166 14.8389 38.1356C14.7337 37.8482 14.5268 37.5471 14.8966 37.3042C15.1646 37.1229 15.3852 37.229 15.5548 37.4753Z" fill="#D56C57"/>
<path d="M4.30024 41.5462C4.09667 41.5497 3.89004 41.5562 3.68647 41.5597C3.68647 41.108 3.68274 40.6567 3.68274 40.2085C4.05935 38.8571 3.56738 37.4442 3.96435 36.0894V36.0825C4.0831 36.0894 4.20525 36.0928 4.32739 36.0996C5.34187 37.9163 4.81596 39.7296 4.30024 41.5462Z" fill="#E29689"/>
<path d="M6.00409 47.7663C6.12284 47.8484 6.23819 47.9271 6.35695 48.0092C6.56052 48.1529 6.76409 48.2966 6.96766 48.4403C5.61051 49.2135 4.93194 48.1221 4.138 47.301C4.76229 47.455 5.38319 47.6089 6.00409 47.7663Z" fill="#D97260"/>
<path d="M3.96132 36.0864C3.86632 37.4583 4.29381 38.8679 3.6797 40.2056C3.76452 38.8337 3.32345 37.4241 3.96132 36.0864Z" fill="#DB7E6F"/>
<path d="M4.32814 34.0435C4.36207 33.7493 4.1076 33.2943 4.64028 33.2669C4.966 33.2498 5.34601 33.4174 5.43423 33.7698C5.50548 34.0504 5.1688 34.0295 4.9788 34.0911C4.76505 34.074 4.54529 34.0606 4.32814 34.0435Z" fill="#E6947F"/>
<path d="M1.25023 34.0357C1.14844 35.6368 1.59291 37.2722 0.948259 38.8391C1.06701 37.238 0.612368 35.6026 1.25023 34.0357Z" fill="#CB4935"/>
<path d="M7.7715 18.3976C7.87329 18.4695 7.97489 18.5417 8.08007 18.6135C7.81543 19.2875 8.58561 20.3584 7.31327 20.6458C7.46256 19.8965 7.61882 19.1469 7.7715 18.3976Z" fill="#A79890"/>
<path d="M9.47102 15.9971C10.8451 15.9766 12.2227 15.9082 13.5968 15.9526C14.1634 15.9698 14.8284 15.9663 15.1948 16.5924C14.1736 16.6027 13.1557 16.6095 12.1344 16.6198C12.0394 16.9174 10.7875 15.9971 11.5237 17.2288C11.6628 17.458 11.3337 17.8959 10.9673 17.9164C10.3566 17.9507 9.5762 18.2688 9.3862 17.2459C9.11137 16.9072 9.13852 16.5582 9.34888 16.2058C9.41674 16.1511 9.45745 16.0827 9.47102 15.9971Z" fill="#684F3B"/>
<path d="M9.34948 16.205C9.36305 16.5505 9.37322 16.8995 9.3868 17.245C9.29519 17.2792 9.2002 17.2998 9.1018 17.31C8.78287 17.5358 8.5318 17.8677 8.10429 17.9053C7.98554 17.9088 7.86313 17.9118 7.74438 17.9187C7.5442 17.8092 7.34768 17.7001 7.15089 17.594C7.1475 17.2279 8.63697 17.1321 7.3375 16.5368C7.94482 16.051 8.67429 16.2939 9.34948 16.205Z" fill="#A48C7C"/>
<path d="M8.10105 17.9085C8.42677 17.6964 8.5557 17.149 9.09856 17.3132C9.07481 17.628 9.04766 17.9427 9.02391 18.2541C8.71855 18.1378 8.4098 18.0249 8.10105 17.9085Z" fill="#B9A89B"/>
<path d="M19.2636 47.0517C19.5961 46.9354 19.932 46.819 20.2645 46.7027C20.6038 46.4666 20.9465 45.8953 21.2891 46.7027C21.1738 46.9353 21.0585 47.168 20.9431 47.4006C20.5699 47.4006 20.1729 47.3391 19.915 47.7222C19.4977 47.6949 18.8429 47.907 19.2636 47.0517Z" fill="#D05746"/>
<path d="M14.8353 47.3908C15.5818 46.857 16.1789 46.0599 17.2036 46.0223C16.6912 46.9631 15.8803 47.3805 14.8353 47.3908Z" fill="#C94C3A"/>
<path d="M21.2856 46.7022C20.9429 46.3121 20.6036 46.8116 20.2609 46.7022C20.2541 46.4011 20.1761 46.1342 19.8843 45.9871H19.8877C19.769 46.3121 19.6061 46.6748 19.2125 46.555C18.7918 46.425 18.5848 45.9255 18.8155 45.6176C19.64 44.5126 19.3618 43.0962 19.9386 41.9363C20.288 42.3982 20.0608 42.9148 20.0574 43.0756C20.0302 42.9182 20.3661 42.388 19.942 41.9363C20.0607 41.755 20.3152 41.5361 20.2745 41.4026C20.193 41.1324 19.8911 41.2487 19.7418 41.365C19.1107 41.8542 19.0904 42.6309 18.9072 43.3254C18.707 44.0849 18.4254 44.6562 17.5534 43.9686C18.7782 43.3699 18.7884 42.1279 18.8563 41.0708C18.9275 39.9657 19.2804 39.0351 19.7689 38.0806C20.2541 38.539 20.2541 39.1001 20.2745 39.6681C20.288 40.0307 20.0879 40.5918 20.5798 40.6807C21.0141 40.7594 21.0854 40.1813 21.2856 39.8665C21.6961 42.1416 22.2526 44.4202 21.2856 46.7022Z" fill="#C34534"/>
<path d="M8.06674 10.8005C10.211 11.129 12.3559 11.4984 14.5002 10.7868C15.3314 10.7115 15.9285 10.8586 15.8675 11.9329C15.7996 13.1817 16.5766 14.4201 15.9354 15.8639C14.9684 14.7281 15.0702 13.5204 15.2907 12.34C15.3993 11.7481 15.3043 11.3308 14.7105 11.5258C12.953 12.104 11.165 11.5805 9.40744 11.8097C8.91886 12.1519 8.61348 11.9329 8.38955 11.4676C8.28437 11.2486 8.17531 11.0263 8.06674 10.8005Z" fill="#D9D4C7"/>
<path d="M8.39249 11.47C8.73178 11.5829 9.07109 11.6992 9.41038 11.8121C9.3968 13.1567 9.38323 14.4978 9.36966 15.8423C8.46037 16.0476 7.93445 15.7671 8.05999 14.7441C8.19231 13.6562 7.72748 12.5032 8.39249 11.47Z" fill="#F7F6EE"/>
<path d="M15.1751 4.29247C15.4771 5.19911 15.0089 6.10916 15.1819 7.01579C15.2973 7.13211 15.3719 7.26896 15.3923 7.43318C15.3821 7.94295 15.2091 8.37745 14.8325 8.72641C14.3405 8.68536 13.9028 8.84274 13.4888 9.08565C13.0885 8.82563 12.6271 8.63062 13.499 8.31244C14.1335 8.0798 14.483 7.64872 13.4753 7.35791C12.946 6.56761 13.1903 5.91073 13.8214 5.31885C14.2726 4.98015 14.7239 4.6346 15.1751 4.29247Z" fill="#C63E2E"/>
<path d="M13.8214 5.32173C13.706 6.00256 13.5906 6.67997 13.4753 7.3608C12.3522 6.79287 12.3522 6.79287 11.8874 8.39744C11.409 6.6526 12.359 5.82466 13.8214 5.32173Z" fill="#BE3424"/>
<path d="M9.75276 6.33567C9.18614 5.66511 8.27347 6.2433 7.64578 5.72669C8.87062 5.73695 10.0921 5.49062 11.3305 5.8567C11.0522 6.61279 10.584 6.55463 10.0683 6.36646C9.95296 6.49989 9.84776 6.48279 9.75276 6.33567Z" fill="#C33523"/>
<path d="M9.75276 6.33567C9.85794 6.33909 9.96337 6.34908 10.0686 6.36276C9.77676 7.02991 8.96247 7.33782 9.00997 8.62763C8.38907 6.49277 8.38881 6.49305 9.75276 6.33567Z" fill="#D4513E"/>
<path d="M8.04259 8.03767C7.0858 7.85292 7.28258 6.96682 7.03489 6.35099C8.00526 6.5289 8.00188 7.29868 8.04259 8.03767Z" fill="#DD6653"/>
<path d="M7.72039 3.9065C8.16825 4.01598 8.6195 4.12888 8.81289 4.62839C8.54146 5.01841 8.15128 4.99788 7.75092 4.94656C7.57109 4.60444 7.11306 4.26915 7.72039 3.9065Z" fill="#DF8371"/>
<path d="M15.1787 7.37093C15.1787 7.25461 15.1787 7.13486 15.1787 7.01854C15.9353 6.64904 15.0396 4.60314 16.8683 5.31818C16.7632 6.68668 17.4655 8.45888 15.182 8.73258C14.8767 8.27756 15.5112 7.82253 15.1787 7.37093Z" fill="#C7402F"/>
<path d="M15.1788 7.37245C15.7997 7.82406 15.3416 8.27908 15.1822 8.73069C15.0634 8.73069 14.9481 8.73069 14.8293 8.73069C14.792 8.23461 14.9447 7.79326 15.1788 7.37245Z" fill="#CD4A38"/>
<path d="M16.1931 39.5212C16.0811 40.2054 15.7282 40.8486 15.8572 41.5739C14.8732 42.0768 15.3244 41.0607 15.2668 40.876C15.0326 40.1267 15.3414 39.5964 16.1931 39.5212Z" fill="#CB4F3C"/>
<path d="M14.5 47.3903C14.0691 47.38 13.8349 47.1645 13.8214 46.7231C13.9774 46.3297 14.2964 46.0457 14.4932 45.6831C15.2396 46.2476 14.4117 46.8189 14.5 47.3903Z" fill="#C0412F"/>
<path d="M10.7678 44.6421C10.8764 44.649 10.9884 44.6558 11.097 44.6626C11.0562 45.0732 10.9782 45.4666 10.4828 45.5453C10.4048 45.559 10.2419 45.4632 10.2283 45.3948C10.1435 44.9637 10.4795 44.8166 10.7678 44.6421Z" fill="#CF5544"/>
<path d="M8.70131 47.0486C8.71149 46.9357 8.72165 46.8194 8.73183 46.7065C9.02023 46.7339 9.312 46.7818 9.37307 47.1205C9.39004 47.2265 9.24076 47.3599 9.16951 47.4831C9.01344 47.3394 8.85738 47.1923 8.70131 47.0486Z" fill="#D26554"/>
<path d="M11.1849 47.3904C11.0933 47.4519 10.9813 47.5717 10.849 47.6025C10.6691 47.6435 10.53 47.5067 10.5911 47.3356C10.6318 47.2261 10.7947 47.1201 10.9236 47.0893C11.0797 47.0482 11.2256 47.1235 11.1849 47.3904Z" fill="#D15746"/>
<path d="M14.4899 45.6831C14.5034 46.186 14.2693 46.5247 13.8181 46.7231C13.4822 46.0081 14.1777 45.9705 14.4899 45.6831Z" fill="#CB5B4A"/>
<path d="M4.30024 41.5462C4.30703 39.7296 4.31396 37.913 4.32414 36.0997C4.5379 35.8089 4.53451 35.2376 5.07398 35.3505C5.61684 35.4634 5.68809 35.9321 5.6813 36.4213C5.65416 38.3783 5.86111 40.3523 5.18253 42.2614C4.74485 41.8919 5.28094 41.2316 4.66004 40.8142C4.66004 41.6798 4.66004 42.4598 4.66004 43.2399C4.54129 43.2433 4.42254 43.2501 4.30379 43.2536C4.30039 42.6822 4.30024 42.1142 4.30024 41.5462Z" fill="#DB7E6F"/>
<path d="M4.97916 46.7257C5.15219 45.9217 5.32502 45.1181 5.49467 44.3107C5.45395 45.1455 6.25828 46.1783 4.97916 46.7257Z" fill="#D77A6B"/>
<path d="M19.9419 41.9325C21.0412 42.5141 19.8198 43.2839 19.9385 43.9408C19.9385 43.2736 19.9385 42.6031 19.9419 41.9325Z" fill="#CE5B4C"/>
<path d="M19.8908 45.9841C19.5515 45.9875 19.2156 45.9807 19.2665 45.4949C19.2767 45.4094 19.3751 45.2554 19.4226 45.2622C19.8704 45.2999 19.8165 45.686 19.8877 45.9871L19.8908 45.9841Z" fill="#DB9383"/>
</svg>
