<svg width="53" height="57" viewBox="0 0 53 57" fill="none" xmlns="http://www.w3.org/2000/svg">
<path d="M48.3736 13.1087C48.0019 14.2166 47.5738 15.2955 46.8442 16.2285C45.741 16.4633 45.7771 17.7747 44.9375 18.2565C42.9139 19.491 42.6292 22.2678 40.4245 23.3406C40.6619 23.5926 41.1591 23.0077 41.2962 23.612C40.5511 25.2246 39.5987 26.6805 38.2432 27.8493C36.2792 29.4032 34.9656 31.6644 32.7133 32.8957C30.772 31.9742 31.5007 30.7122 32.2717 29.4429C34.351 27.2118 36.9342 25.4281 38.4707 22.699C39.3555 21.1264 41.3153 20.3946 41.7328 18.4702C41.7789 18.1664 41.8412 17.8603 41.8714 17.5524C41.893 17.1667 41.791 16.7998 41.6497 16.4435C41.5793 16.2622 41.5349 16.0759 41.5102 15.8843C41.5247 15.1079 41.776 14.3641 41.7746 13.5836C41.8411 13.2616 41.9902 13.0184 42.3451 12.9577C43.735 13.1872 45.1233 13.9068 46.518 12.9595C47.1534 12.7275 47.788 12.6244 48.3736 13.1087Z" fill="#E9E6DF"/>
<path d="M10.7868 48.3779C10.3099 49.8669 11.1695 51.5598 10.0945 52.9604C9.63947 52.5059 9.26712 51.7272 8.49155 52.5609C7.8582 52.5834 7.66063 51.9661 7.22425 51.6965C7.03164 50.8182 7.03666 49.751 5.63035 50.043C4.90633 48.577 3.36353 49.2903 2.26894 48.7968C1.20274 48.3146 0.519069 47.9118 2.00334 47.0921C3.83475 47.098 5.55697 46.1755 7.41861 46.4476C7.77872 47.0418 8.18665 47.4162 8.91739 46.9218C9.46054 46.5524 9.92912 46.0176 10.6669 46.0299C11.5465 47.137 10.2708 47.4589 9.9284 48.1008C10.2728 48.0556 10.6286 47.9208 10.7868 48.3779Z" fill="#7F8183"/>
<path d="M10.8139 46.1117C10.2966 46.5374 9.79379 46.9929 9.25259 47.3851C8.05246 48.2562 7.5085 47.7775 7.4122 46.4466C9.92698 46.0555 10.2215 43.6792 11.3136 42.0312C12.0077 40.9833 12.568 39.8473 13.1844 38.7467C13.9871 38.5789 14.6849 39.0179 15.44 39.1248C16.2455 39.4247 16.4296 39.9381 15.9661 40.67C15.7218 40.9433 15.3699 41.2944 15.0617 41.1546C13.4775 40.4208 15.1392 41.8426 14.6327 41.7884C14.4118 43.1402 13.2105 43.8597 12.6002 44.9671C12.1355 45.5473 11.6557 46.1105 10.8139 46.1117Z" fill="#5F7685"/>
<path d="M41.75 4.36531C43.283 3.25161 44.9901 2.48306 46.7413 1.79116C47.433 1.53325 46.2379 3.00452 47.3406 2.43426C47.7556 2.22212 48.2833 2.30008 48.4663 2.83278C48.6626 3.41459 48.144 3.63383 47.7485 3.7858C46.8721 4.11719 46.1034 4.5417 45.7883 5.50118C45.2968 6.50236 44.387 7.19952 43.8887 8.20677C43.5322 8.92851 42.8782 9.26269 42.0375 8.95756C41.3613 8.13277 41.7921 7.58289 42.5055 7.11014C42.7663 6.94417 42.1398 6.84454 42.388 7.0197C42.4316 7.04795 42.3864 7.10668 42.2713 7.20343C42.051 7.39424 41.8337 7.58845 41.5168 7.60293C40.6269 6.45012 40.7003 5.37067 41.75 4.36531Z" fill="#5C7586"/>
<path d="M45.5544 5.18492C45.9919 3.93885 45.9919 3.93885 48.1054 2.99637C48.0535 2.13886 45.625 3.98599 46.7413 1.79116C47.3896 1.55984 48.0407 1.33192 48.689 1.1006C48.9552 1.3574 49.3361 1.40778 49.6339 1.61797C50.1633 2.01207 50.8886 2.01727 51.3883 2.48065C51.646 2.83049 51.5586 3.23837 51.5756 3.62631C51.4676 4.11367 51.3502 4.59727 50.8946 4.90066C50.124 5.0703 49.7507 5.86204 49.0302 6.11511C48.8436 6.16591 48.653 6.17135 48.4646 6.13821C48.1017 6.05336 47.7515 5.91441 47.3835 5.86474C47.0136 5.84723 46.6531 5.94956 46.2845 5.96759C45.8267 5.90645 45.7262 5.51382 45.5544 5.18492Z" fill="#71828F"/>
<path d="M33.967 8.53101C35.2027 8.63577 36.1456 7.98239 37.0941 7.34222C37.3193 7.40967 37.4267 7.56404 37.4364 7.79356C37.4019 8.00768 37.3325 8.21019 37.2407 8.40821C36.9876 8.8971 36.7159 9.37205 36.3695 9.79766C35.1423 11.151 33.7034 12.2539 32.2255 13.3062C32.0588 13.4613 31.8769 13.5994 31.6828 13.724C30.8603 14.1294 30.2573 14.876 29.3843 15.2043C29.0223 15.2776 28.6899 15.2815 28.5231 14.8626C28.5573 14.6549 28.5881 14.4502 28.6224 14.2425C28.844 13.281 29.4892 12.6432 30.2584 12.0962C31.2112 11.6111 31.8592 10.867 32.1562 9.82585C32.2218 9.63281 32.328 9.46462 32.4778 9.32467C32.9762 9.06238 33.6788 9.18563 33.967 8.53101Z" fill="#5C707C"/>
<path d="M50.7765 4.88429C50.9912 4.44807 51.2093 4.00881 51.4271 3.57599C51.4664 3.27827 51.6264 3.18405 51.9073 3.29333C51.9178 5.17725 51.1879 6.80682 50.2014 8.35428C50.1297 8.42443 50.058 8.49459 49.9894 8.56814C48.9545 9.713 47.5466 10.379 46.4062 11.3922C45.5702 11.6936 44.8477 11.466 44.1807 10.9384C43.2343 9.06653 44.3385 8.35447 45.896 7.89679C46.1119 7.89923 46.3287 7.94363 46.5309 8.01946C47.2768 8.51923 47.8368 7.9637 48.4434 7.67199C49.8099 7.22619 49.9898 5.8012 50.7765 4.88429Z" fill="#B7BBBA"/>
<path d="M32.3777 32.7863C34.4286 31.1792 36.1802 29.2716 37.9383 27.3642C38.1401 27.4465 38.2479 27.5945 38.2648 27.8115C38.1673 28.3994 38.1947 29.004 38.0586 29.5897C37.4933 29.6064 36.933 29.3621 36.4465 29.9863C33.8761 33.267 30.5056 35.5773 26.9756 37.6819C26.6977 37.5761 26.5834 37.3729 26.6355 37.0759C26.946 36.1388 27.7036 35.6266 28.4884 35.1449C29.9425 34.6331 30.6748 32.9037 32.3777 32.7863Z" fill="#BDBBB7"/>
<path d="M28.5231 14.8557C28.7546 14.8686 28.9857 14.8881 29.2172 14.901C29.6115 14.8844 30.0401 14.7763 30.217 15.3022C30.0723 15.9261 29.279 16.2138 29.3472 16.9529C29.0042 17.3755 28.5817 17.6066 28.0363 17.5566C28.3974 17.8446 29.7346 16.8876 29.1648 18.4229C28.6485 19.0615 27.8746 19.289 27.1927 19.6603C25.9225 19.9406 25.0098 21.4954 23.4402 20.7302C24.9091 18.5745 26.5069 16.5357 28.5231 14.8557Z" fill="#4E6778"/>
<path d="M15.3057 39.5081C14.4324 39.7268 13.8113 39.2437 13.1939 38.7512C13.8457 36.6174 15.2296 34.7697 15.5971 32.5296C15.6426 32.1775 15.8454 31.9534 16.1779 31.8334C16.3976 31.8264 16.6045 31.8734 16.7951 31.9841C16.9648 32.1194 17.1007 32.285 17.2063 32.4715C17.3278 32.7783 17.3233 33.0876 17.2221 33.398C17.0001 33.9628 16.6748 34.4734 16.3809 34.9987C16.1973 35.3399 16.0292 35.6917 15.8771 36.0476C15.743 36.369 15.5267 36.66 15.4024 36.9788C15.1211 37.6821 15.6767 37.0328 15.7656 37.1733C16.1728 37.1574 16.5308 37.271 16.8243 37.5584C17.7727 39.3369 16.2427 39.1898 15.3057 39.5081Z" fill="#64798A"/>
<path d="M49.4699 10.2965C49.2384 10.6866 49.0035 11.0798 48.7721 11.4699C48.478 12.6305 47.4093 12.7673 46.5361 13.1569C44.7453 14.153 43.2784 13.8579 42.1753 12.0771C42.5697 10.2772 42.8825 10.1625 44.7411 11.1213C45.9387 11.7915 46.9119 11.4591 47.7422 10.4544C48.1459 9.98358 48.4158 9.25376 49.2713 9.69839C49.423 9.86815 49.4893 10.0654 49.4699 10.2965Z" fill="#CFCFCC"/>
<path d="M19.3783 26.6337C19.8254 25.5623 20.471 24.631 21.3094 23.8266C21.9007 23.9211 22.1749 22.8271 22.8972 23.4029C23.6251 23.247 21.8903 24.3945 23.174 23.9312C23.6511 23.7612 24.1239 23.6684 24.6327 23.7389C25.2136 23.9037 25.6307 24.1721 25.346 24.8786C25.1338 25.2698 24.8029 25.535 24.4143 25.7357C23.5933 26.1154 22.6457 26.1622 21.8716 26.6832C21.5246 26.8895 21.1433 26.9616 20.7446 26.9392C20.2873 26.8717 19.798 26.912 19.3783 26.6337Z" fill="#617B8D"/>
<path d="M22.6019 41.0355C20.1384 42.3518 17.9558 44.1804 15.2666 45.0939C14.8472 44.8091 14.9673 44.4515 15.1232 44.0861C17.4107 42.1698 19.9068 40.6167 22.7874 39.7398C23.3194 40.2598 22.8534 40.6336 22.6019 41.0355Z" fill="#B1B0AC"/>
<path d="M1.99984 47.0947C1.75651 48.271 2.46836 48.7463 4.70654 48.5719C6.19652 48.4555 6.15461 49.0304 5.62381 50.0423C4.20846 50.208 3.00736 49.486 1.74807 49.0542C1.07735 48.8231 -0.0498755 48.5664 0.00171064 47.934C0.0863456 46.9422 1.21074 47.1343 1.99984 47.0947Z" fill="#7D7F81"/>
<path d="M37.0121 7.94058C37.1275 7.83741 37.2399 7.73084 37.3553 7.62767C37.7006 6.81823 38.3747 6.35617 39.1251 5.97256C39.9234 5.30785 40.6682 4.56273 41.7534 4.36236C41.2215 5.39353 41.6313 6.48073 41.5526 7.54053C41.5233 7.77431 41.4195 7.95875 41.2247 8.09618C40.8848 8.23514 40.5726 8.16603 40.2846 7.95317C39.7829 7.5832 40.0091 7.05732 40.0209 6.3872C39.9152 7.123 39.5792 7.47825 39.1527 7.78005C38.453 8.00848 37.7914 8.76471 37.0121 7.94058Z" fill="#5F6E7C"/>
<path d="M22.8595 23.4969C22.3437 23.6099 21.8282 23.7164 21.3123 23.8294C21.7273 23.2141 22.1454 22.6022 22.5604 21.987C23.2382 20.6544 24.2686 21.7184 25.1233 21.6018C25.6742 21.6101 26.1945 21.707 26.6642 22.0139C27.1948 22.5597 27.7864 23.3378 27.2666 23.9246C26.4575 24.837 25.5602 23.471 24.6335 23.6641C24.0408 23.5954 23.404 24.024 22.8595 23.4969Z" fill="#577083"/>
<path d="M38.1151 27.6647C38.0498 27.5642 37.9909 27.4642 37.932 27.3641C39.105 26.1142 40.3492 24.9165 41.0463 23.298C41.1318 22.6353 41.4789 22.1968 42.1364 22.0305C42.4177 22.0173 42.578 22.1488 42.6272 22.4224C41.4987 24.3167 40.3732 26.2143 39.2413 28.1116C38.764 28.2267 38.411 28.0231 38.1151 27.6647Z" fill="#A9A7A4"/>
<path d="M22.6019 41.0355C22.4694 40.5798 22.7067 40.2581 22.9917 39.9484C23.5635 38.1487 24.9469 37.5168 26.6826 37.3884C26.7771 37.4872 26.8749 37.583 26.9727 37.6788C26.9358 38.5668 26.345 39.2109 25.9526 39.9403C25.6182 40.0376 25.39 40.2538 25.2623 40.5756C24.3733 40.7289 23.4909 40.8821 22.6019 41.0355Z" fill="#ADACAB"/>
<path d="M19.3783 26.6337C19.8328 26.3496 20.2868 26.133 20.7073 26.6855C21.2185 27.6333 20.4325 27.9633 19.8915 28.4102C19.5632 28.6853 19.4001 29.0631 19.2212 29.4368C18.5246 30.5297 18.3428 32.103 16.6139 32.2253C16.5543 32.1381 16.4882 32.0506 16.4218 31.9694C16.1454 30.8607 16.7186 30.0124 17.2793 29.157C17.7019 28.8099 17.8787 28.1877 18.4924 28.0544C18.7895 27.5873 19.0839 27.1106 19.3783 26.6337Z" fill="#4E6371"/>
<path d="M42.6272 22.4224C42.5119 22.2934 42.3994 22.1674 42.2841 22.0384C42.5779 20.365 43.3175 18.965 44.798 18.0386C45.559 17.5234 45.4191 15.9938 46.8442 16.2285C45.3143 18.2067 44.384 20.5957 42.6272 22.4224Z" fill="#B5B3B0"/>
<path d="M15.3146 44.3486C15.2975 44.5959 15.2837 44.8465 15.2666 45.0939C13.7733 46.1904 12.2768 47.2844 10.7868 48.3779C10.2751 48.475 9.76618 48.5749 9.26085 48.6723C10.3676 46.993 11.8738 45.7262 13.5104 44.6054C14.0372 44.2383 14.6253 43.8165 15.3146 44.3486Z" fill="#B7B6B5"/>
<path d="M8.34145 52.4194C8.91943 52.0616 9.26157 51.481 9.656 50.6582C9.83945 51.6424 9.96378 52.3008 10.0885 52.9528C10.1263 53.6579 10.1642 54.3631 10.1986 55.0713C10.0038 55.7279 9.4728 56.1109 9.23619 55.3269C8.98319 54.4903 8.24222 54.0167 8.0585 53.2098C8.00204 52.8938 7.98684 52.5898 8.34145 52.4194Z" fill="#9A9D9D"/>
<path d="M25.2567 22.1001C24.3176 23.0311 23.5008 20.9755 22.5604 21.987C22.65 21.4244 22.9788 21.0275 23.4438 20.7279C24.6359 20.2304 25.828 19.7328 27.0201 19.2353C27.1887 19.506 27.1922 19.79 27.0727 20.08C26.6729 20.5961 26.0111 20.8396 25.6689 21.4202C25.5148 21.6373 25.2827 21.8081 25.2567 22.1001Z" fill="#6E8794"/>
<path d="M51.1817 2.60495C50.4725 2.54261 49.7069 2.62223 49.2933 1.83151C49.2043 1.23314 49.8188 1.087 50.0412 0.686681C50.7758 0.756895 51.8389 -1.12166 52.22 1.05395C52.0023 1.6577 51.9525 2.37405 51.1817 2.60495Z" fill="#61707D"/>
<path d="M32.4574 9.62298C32.8116 10.9554 32.0639 11.6358 30.9796 12.1104C30.0491 11.9098 29.8914 13.8037 28.7141 12.9443C28.8025 12.6333 28.8905 12.3286 28.9789 12.0175C29.0575 11.7091 29.2323 11.4674 29.4692 11.2678C29.9823 10.9741 30.7624 10.9791 30.7884 10.1131C31.2457 9.60664 31.7897 9.39527 32.4574 9.62298Z" fill="#868889"/>
<path d="M32.4574 9.62298C31.8932 9.90738 31.3256 10.1951 30.7614 10.4795C30.4917 10.861 30.3461 11.3882 29.7365 11.3895C29.486 11.6012 29.2324 11.8095 28.9819 12.0212C28.8009 10.534 28.5232 8.98664 30.8431 9.08125C31.2838 9.56067 32.1832 8.64686 32.4676 9.61415L32.4574 9.62298Z" fill="#9B9C9A"/>
<path d="M17.634 29.4442C17.2286 30.2889 16.8233 31.1337 16.418 31.9785C16.1432 32.163 15.8684 32.3481 15.5971 32.5296C15.4491 31.6603 15.3011 30.7904 15.1497 29.924C16.0307 30.0283 16.5811 28.437 17.634 29.4442Z" fill="#AEB2B3"/>
<path d="M8.33354 53.0808C8.73218 53.7933 9.74165 54.1369 9.52425 55.2534C9.4836 55.4607 9.98363 55.2276 10.2048 55.0787C10.4397 55.6627 10.4872 56.4264 9.95842 56.6548C9.2083 56.9771 8.95818 56.0892 8.81769 55.604C8.54437 54.6696 7.56449 54.0857 7.62773 53.0154C7.87536 52.8551 8.09745 53.0353 8.33354 53.0808Z" fill="#7D7F83"/>
<path d="M38.1151 27.6647C38.5954 27.5529 38.9187 27.8258 39.2413 28.1116C39.2686 28.9483 39.0646 29.5947 38.0489 29.5926C37.335 28.9237 37.2935 28.2829 38.1151 27.6647Z" fill="#A2A2A2"/>
<path d="M32.4614 9.61363C32.0364 9.08349 31.1295 10.0162 30.8369 9.08073C31.8532 8.72815 32.8858 8.48973 33.967 8.53101C34.3397 10.1095 33.16 9.52058 32.4614 9.61363Z" fill="#868889"/>
<path d="M17.634 29.4442C16.7384 29.2553 16.0832 30.2989 15.1497 29.924C16.0538 28.9266 17.192 28.355 18.4886 28.0633C18.2047 28.5247 17.9209 28.9862 17.634 29.4442Z" fill="#838689"/>
<path d="M46.4533 13.0785C47.2251 12.5413 48.0002 12.0071 48.7721 11.4699C48.6382 12.0171 48.5075 12.5615 48.3736 13.1087C47.7872 13.1565 47.2042 13.2012 46.6178 13.249C46.5663 13.1912 46.5082 13.1332 46.4533 13.0785Z" fill="#A5A5A4"/>
<path d="M51.1817 2.60495C51.4024 2.00459 51.6792 1.43963 52.22 1.05395C52.4498 1.84403 52.2374 2.57632 51.9073 3.28663C51.7472 3.38086 51.5871 3.47508 51.4301 3.57269C51.3483 3.24884 51.2635 2.9288 51.1817 2.60495Z" fill="#86939C"/>
<path d="M28.7141 12.9443C29.6643 13.1943 30.0099 11.8044 30.9796 12.1104C30.195 12.8178 29.4101 13.5321 28.6255 14.2395C28.4057 13.7886 28.4267 13.3539 28.7141 12.9443Z" fill="#BABCBB"/>
<path d="M25.2623 40.5756C25.1042 40.2894 24.7299 40.0008 25.0769 39.6784C25.4307 39.35 25.6825 39.7542 25.9526 39.9403C25.9676 40.4216 25.7792 40.6755 25.2623 40.5756Z" fill="#BCBCBC"/>
<path d="M8.33354 53.0808C8.09601 53.061 7.86183 53.0378 7.62429 53.018C7.4911 52.5752 7.35744 52.1393 7.22425 51.6965C7.79171 51.6413 8.04898 52.0583 8.34796 52.4201C8.33873 52.6421 8.33634 52.8584 8.33354 53.0808Z" fill="#696D70"/>
<path d="M50.0412 0.686681C50.0832 1.25985 49.64 1.51484 49.2899 1.83383C48.9994 1.66597 48.4622 1.69417 48.689 1.1006C49.1386 0.961345 49.5886 0.822544 50.0412 0.686681Z" fill="#546672"/>
<path d="M49.4699 10.2965C49.355 10.161 49.2434 10.0227 49.1284 9.88724C49.024 9.04614 49.3788 8.52748 50.2178 8.34555L50.2016 8.34787C50.5273 9.21105 50.0414 9.76737 49.4699 10.2965Z" fill="#C1BFBB"/>
<path d="M39.1218 5.97568C38.533 6.52637 37.9442 7.07706 37.352 7.63079L37.0971 7.3456C37.6729 6.73936 38.2726 6.16671 39.1218 5.97568Z" fill="#5C7586"/>
<path d="M32.3777 32.7863C31.1698 33.7377 30.3129 35.1635 28.6849 35.5559C28.9732 34.6691 29.8077 34.3386 30.2741 33.8423C29.2009 34.5206 28.3736 35.8158 26.9305 36.4766C26.5672 35.421 27.2229 34.9999 27.8412 34.4412C26.2235 34.5923 24.7877 35.9856 23.1342 34.9351C22.609 33.7189 23.9295 33.4608 24.2882 32.7004C26.008 31.0167 27.6515 29.2546 29.3618 27.5671C29.6448 27.4669 29.2654 27.5617 29.5487 27.455C30.3136 27.1561 31.2771 26.7103 31.7893 27.4678C32.4207 28.3997 31.0341 28.5703 30.6007 29.1103C31.2586 29.6277 31.8749 29.0464 32.4195 29.3413C32.4723 29.4346 32.5255 29.5214 32.5783 29.6147C31.7416 30.6191 32.1093 31.707 32.3777 32.7863Z" fill="#E4DFD6"/>
<path d="M42.3499 17.3021C42.3157 17.5098 42.2879 17.7179 42.2537 17.9256C41.6789 19.3188 40.7514 20.4471 39.6473 21.4462C39.0271 21.9822 38.4133 22.5186 38.0982 23.3071C37.8542 23.6901 37.5522 24.015 37.1948 24.2917C36.6464 24.9285 36.0865 24.4456 35.5815 24.2496C34.7108 23.9041 33.7658 24.309 32.9142 23.9097C33.4783 21.7871 35.3434 20.8469 36.8461 19.5831C37.9892 19.1538 39.2058 18.9092 40.256 18.2393C40.6134 17.9626 40.9677 17.6826 41.355 17.4463C41.6673 17.2832 41.9919 17.1885 42.3499 17.3021Z" fill="#E2DFD7"/>
<path d="M40.5838 18.7768C39.5601 19.4353 38.4033 19.7058 37.2431 19.9794C36.8111 19.6327 36.7561 19.1749 36.8651 18.6682C37.2859 17.3761 38.3233 16.4732 38.9964 15.3403C39.826 14.3484 40.6932 13.4328 42.1741 13.7093C42.7119 14.5844 41.8014 15.1783 41.7491 15.9397C41.701 17.027 40.4805 17.6294 40.5838 18.7768Z" fill="#7E8181"/>
<path d="M39.1764 21.2743C40.3596 20.3022 40.9048 18.7461 42.2567 17.9287C42.5304 18.7406 42.2746 19.6227 41.7395 20.0216C39.3461 21.8127 38.4861 24.9571 35.9527 26.5436C34.619 27.3815 34.5072 29.4907 32.5755 29.6049C32.4721 27.1934 34.7909 26.501 35.8999 24.954C36.1376 24.6255 36.7146 24.574 36.7607 24.038C37.0972 23.7312 37.4333 23.4308 37.7698 23.1239C37.9365 22.2787 39.0279 22.1399 39.1764 21.2743Z" fill="#F3F0EB"/>
<path d="M44.798 18.0386C43.9622 19.372 43.1199 20.705 42.2841 22.0384C41.8704 22.457 41.4569 22.876 41.0463 23.298C40.8043 23.4715 40.5688 23.6455 40.3269 23.819C41.9517 21.9881 42.1329 19.0405 44.798 18.0386Z" fill="#F2F1EE"/>
<path d="M46.4533 13.0785C46.5147 13.1335 46.5696 13.1878 46.6208 13.252C45.1029 14.9019 43.6393 13.7427 42.1656 13.1666C41.9636 13.1456 41.7838 13.0743 41.6197 12.9522C41.393 12.7396 41.2493 12.4832 41.1986 12.1804C41.22 11.972 41.3163 11.8065 41.4752 11.6767C41.6663 11.6036 41.8606 11.5887 42.0615 11.629C42.1422 11.6851 42.2294 11.7416 42.3101 11.7977C43.3586 13.2851 44.709 13.8191 46.4533 13.0785Z" fill="#949997"/>
<path d="M41.8565 12.8141C41.9597 12.9295 42.0624 13.0512 42.1656 13.1666C42.1684 13.3474 42.1713 13.5286 42.1741 13.7093C41.0147 14.1409 40.157 14.9988 39.249 15.7799C39.0645 16.0791 38.9303 16.5167 38.452 16.248C37.9956 15.9902 38.2209 15.5384 38.4082 15.3038C39.3205 14.1586 40.1808 12.9072 41.8565 12.8141Z" fill="#D0D6D6"/>
<path d="M40.5838 18.7768C39.5757 17.2594 40.9255 16.7061 41.7456 15.9426C41.8494 16.0452 41.9432 16.1569 42.0233 16.2807C42.0589 16.8535 41.6688 17.3121 41.6154 17.8606C41.2729 18.1606 40.9267 18.4703 40.5838 18.7768Z" fill="#BABAB3"/>
<path d="M41.6189 17.8573C41.4179 17.243 41.5095 16.7031 42.0267 16.2774C42.1366 16.619 42.2401 16.9606 42.3499 17.3021C42.1073 17.4885 41.8615 17.671 41.6189 17.8573Z" fill="#9E9C99"/>
<path d="M23.22 34.8951C24.0506 34.1161 24.8618 34.7163 25.7105 35.167C25.5297 33.9056 25.734 33.6558 26.5023 34.044C27.7474 34.6717 28.0672 33.1095 29.1497 33.0702C29.2653 34.5182 27.6493 34.7533 27.0541 36.2808C28.6056 34.894 29.8143 33.8137 31.0195 32.7364C31.1409 32.8722 31.2623 33.008 31.3806 33.1405C30.481 33.9446 29.5813 34.7488 28.6816 35.5529C28.0151 36.167 27.3492 36.7743 26.6826 37.3884C25.4545 38.2418 24.2229 39.0983 22.9917 39.9484C20.433 41.4109 17.8736 42.8801 15.3179 44.346C13.0596 45.4545 11.0348 46.8857 9.2578 48.6694C8.84095 47.2464 10.7381 47.2303 10.8171 46.1092C11.3065 45.6045 11.796 45.0999 12.2855 44.5952C12.4346 44.236 12.7137 43.9743 13.0069 43.7488C15.2681 42.0149 17.4231 40.2169 19.1604 37.8763C20.1362 36.5765 21.3379 35.1605 23.22 34.8951Z" fill="#E7E4DE"/>
<path d="M23.22 34.8951C20.5078 36.7941 18.8186 39.7208 16.3055 41.8083C15.054 42.8475 13.6272 43.6769 12.279 44.601C13.0113 43.5617 13.7401 42.5255 14.4724 41.4862C14.9064 41.2816 15.4431 41.1988 15.5542 40.5987C15.8407 40.1472 16.2841 39.6593 15.2993 39.5073C15.2309 38.5425 17.5402 39.3428 16.6112 37.7363C16.6205 37.3982 16.8128 37.1897 17.0857 37.0373C17.2671 36.9668 17.4602 36.9164 17.6491 36.8818C18.3765 36.7936 18.3886 36.1171 18.6566 35.6516C18.8679 35.3345 19.177 35.1132 19.4462 34.8542C19.7872 34.4089 19.879 33.8078 20.3477 33.4438C21.4217 33.2106 21.7387 32.5608 21.4024 31.5422C21.9763 30.7972 22.7314 31.1911 23.4299 31.2141C25.4055 31.2378 24.5295 32.4238 24.2972 33.346C24.2625 34.0794 22.9762 33.9527 23.22 34.8951Z" fill="#BCC2C3"/>
<path d="M15.5603 40.5994C15.5396 41.3142 15.2024 41.6339 14.4786 41.4869C14.2215 41.3564 13.9767 41.1782 13.7031 41.1112C13.3784 41.035 12.8582 41.2251 12.9625 40.6311C13.0291 40.2479 13.3721 40.1123 13.8204 40.1697C14.426 40.2391 14.7956 41.2402 15.5603 40.5994Z" fill="#829DA7"/>
<path d="M44.8913 11.3779C43.9598 11.0806 42.926 10.1357 42.3108 11.7911L42.1244 11.6645C41.2576 11.3644 41.2846 10.5952 41.1855 9.88979C41.194 9.68065 41.2407 9.4801 41.3192 9.28778C41.4958 9.01389 41.7317 8.83363 42.0758 8.8497C44.0216 8.36865 44.0414 6.06073 45.5614 5.17849C46.1385 5.06574 45.9864 5.59254 46.1497 5.84356C46.2229 6.03471 46.2635 6.23048 46.2682 6.43391C46.1923 7.03917 46.5857 7.61591 46.3548 8.22536C45.0267 8.6185 43.5834 8.93746 44.5576 10.8883C44.8655 10.9185 44.979 11.0796 44.8913 11.3779Z" fill="#6A808D"/>
<path d="M42.0689 8.85636C41.8638 9.06415 41.6556 9.26855 41.4539 9.4733C40.3331 9.10087 40.9307 8.4507 41.1897 7.85894C41.3085 7.75273 41.4303 7.64992 41.5492 7.54371C41.8785 7.24936 42.2078 6.95501 42.9853 6.2601C42.4758 7.46667 41.7766 8.03052 42.0689 8.85636Z" fill="#4A6272"/>
<path d="M50.7765 4.88429C50.7518 6.35991 50.3818 7.60679 48.6863 7.9374C48.6185 7.59498 48.976 7.25707 48.702 6.90954C48.5631 6.56959 48.5043 6.23735 48.8386 5.96908C49.593 5.80176 49.4742 4.06954 50.7765 4.88429Z" fill="#86939C"/>
<path d="M48.8354 5.96585C48.8651 6.29968 48.8947 6.63351 48.9213 6.96394C48.4884 7.95551 47.9013 8.70624 46.6569 8.46876C46.555 8.38888 46.4531 8.30899 46.3507 8.23553C45.9269 7.57 45.2717 6.94634 45.9716 6.08261C46.2286 6.15829 46.4162 6.32038 46.579 6.523C46.6886 6.6388 46.805 6.74852 46.9353 6.83968C47.3275 6.97776 47.5037 6.7103 47.68 6.44284C47.856 6.12055 48.02 5.78468 48.413 5.67772C48.5528 5.77263 48.6956 5.87094 48.8354 5.96585Z" fill="#636A6E"/>
<path d="M48.4103 5.67391C48.3139 5.95552 48.2144 6.23374 48.118 6.51535C47.7103 7.45996 47.1468 7.56058 46.4334 6.824L46.4441 6.8633C46.3337 6.0154 46.5737 5.41613 47.5423 5.33822C47.8262 5.45089 48.1165 5.56392 48.4103 5.67391Z" fill="#595C57"/>
<path d="M47.5357 5.33808C46.7532 5.54896 46.7147 6.29176 46.4376 6.86315C46.2781 6.60266 46.125 6.34253 45.9688 6.07901C46.0526 6.02244 46.1118 5.94513 46.1429 5.85013C46.5763 5.59709 46.8528 4.92247 47.5357 5.33808Z" fill="#C5C4B7"/>
<path d="M41.629 11.7534C41.5166 11.86 41.4073 11.97 41.2983 12.0735C40.3449 14.0066 38.5255 15.0526 36.9408 16.3408C35.884 15.1722 35.6221 17.1408 34.7974 16.8946C34.1597 16.8234 34.2571 16.3515 34.265 15.9231C33.9276 14.1176 35.0745 13.6788 36.4973 13.4941C36.9309 13.2959 37.3163 13.037 37.5841 12.6328C37.8689 11.5781 37.3945 11.3547 36.5284 11.7319C35.7613 12.0694 35.1936 12.7051 34.6674 13.3464C34.1515 13.9786 33.6154 14.4516 32.7654 13.9105C32.4011 13.7353 31.9788 13.6181 31.8901 13.1294C33.3632 11.8188 34.8332 10.5049 36.3029 9.19735C37.5928 8.22158 38.8729 7.0163 39.8589 9.56121C40.0394 10.0228 40.7095 9.05745 41.1402 9.60081C41.2999 10.3192 41.6164 11.0013 41.629 11.7534Z" fill="#698494"/>
<path d="M32.8564 13.4932C33.2499 13.4346 33.6491 14.1955 34.0819 13.32C34.4241 12.6233 35.1802 12.1368 35.7269 11.5322C36.4251 10.7554 37.4284 10.5182 38.1163 11.076C38.7394 11.5818 38.5969 12.5703 37.8643 13.2129C37.3389 13.0351 37.1397 13.5979 36.7372 13.7011C36.5547 13.9069 36.3086 14.3285 36.2041 14.2936C34.3314 13.7017 34.871 14.9477 34.9711 15.866C33.8066 16.2167 32.6525 16.0939 31.5021 15.7908C31.0564 15.6884 30.5108 15.8706 30.208 15.3473C29.8778 15.1966 29.5507 15.0493 29.2206 14.8985C29.9754 14.3765 30.4356 13.4155 31.5061 13.3626C31.9014 13.9621 32.404 13.4517 32.8564 13.4932Z" fill="#5A768A"/>
<path d="M41.0667 9.76464C40.1983 9.43538 40.2846 11.0011 39.3836 10.5055C39.3241 8.51886 38.7172 8.24296 36.2996 9.20064C36.536 8.78176 36.7757 8.35947 37.0121 7.94058C37.6737 7.75839 38.3319 7.5796 38.9905 7.39402C39.4916 7.54466 39.9598 7.82245 40.5031 7.79487C40.7308 7.81732 40.9619 7.83649 41.1897 7.85894C41.334 8.38947 40.9024 9.0137 41.4505 9.47657L41.4474 9.47317C41.4502 9.65392 41.396 9.75731 41.2815 9.78636C41.1738 9.80934 41.1 9.80198 41.0667 9.76464Z" fill="#5C7586"/>
<path d="M32.8564 13.4932C32.4624 13.9064 32.0682 14.4418 31.4311 14.1868C30.8696 13.9618 31.4004 13.6401 31.506 13.3686C31.6564 13.3319 31.7866 13.2521 31.8899 13.1354C32.209 13.2533 32.5309 13.375 32.8564 13.4932Z" fill="#BBCBCF"/>
<path d="M50.2178 8.34555C49.857 8.85743 49.4928 9.37205 49.1319 9.88393C48.3037 9.70204 48.379 10.5447 48.0059 10.8721C47.4976 10.85 47.0271 11.5331 46.4852 10.961C47.4437 9.68284 48.7066 8.84129 50.2178 8.34555Z" fill="#DDDDD9"/>
<path d="M46.4845 10.9679C46.9893 10.9382 47.4974 10.9054 48.0052 10.879C47.1234 11.997 46.0808 12.1288 44.8906 11.3848C44.7771 11.2237 44.6636 11.0625 44.5501 10.9014C45.2037 10.6897 45.8204 11.4821 46.4845 10.9679Z" fill="#767878"/>
<path d="M46.6569 8.46876C47.6575 8.33783 48.3312 7.71127 48.9213 6.96394C49.7007 7.50105 48.7341 7.6014 48.6832 7.93394C47.948 7.87658 47.7915 10.032 46.6569 8.46876Z" fill="#C5CBCD"/>
<path d="M29.0374 18.1641C28.4261 17.2753 27.7809 18.4871 27.1435 18.1224C27.6169 17.1557 28.8758 17.3069 29.456 16.5074C29.5459 16.4577 29.6354 16.4143 29.7252 16.3645C30.5408 16.1974 31.3522 16.2784 32.1607 16.4108C33.8537 17.1023 31.8945 18.2244 32.4738 19.0502C31.7395 20.586 30.9104 20.246 30.3738 19.0034C30.1028 18.3722 29.9216 18.3266 29.4155 18.553C29.1953 18.5116 29.0705 18.3788 29.0374 18.1641Z" fill="#768C98"/>
<path d="M30.2048 15.3506C30.6184 15.3351 31.0321 15.3196 31.4491 15.3011C31.8573 15.4981 31.7957 15.7913 31.6166 16.1102C30.9574 16.6505 30.1371 16.3272 29.4138 16.5156L29.4497 16.5079C28.7449 15.9653 28.7449 15.9653 30.2048 15.3506Z" fill="#A1B1B7"/>
<path d="M29.0374 18.1641C29.1322 18.2565 29.2236 18.3586 29.3116 18.457C29.0219 19.7114 28.117 19.9767 26.9956 19.9041C27.0048 19.6821 27.0109 19.4573 27.0201 19.2353C27.6915 18.8795 28.3626 18.523 29.0374 18.1641Z" fill="#8DA1AA"/>
<path d="M21.5782 31.6228C23.1183 33.3732 21.4583 33.4156 20.4217 33.7864C19.1989 33.5662 18.4428 31.9823 16.9406 32.6043C16.8313 32.4821 16.7285 32.3603 16.6193 32.238C17.8426 31.4133 18.1834 29.9361 19.0847 28.874C19.8243 28.8542 20.3498 29.203 20.7013 29.8354C20.6822 30.1762 20.5043 30.4145 20.2303 30.5862C20.0804 30.6713 19.8002 30.6653 19.7833 30.8514C19.7631 31.0953 20.0341 31.0364 20.2066 31.0654C20.5901 31.0708 20.9663 31.0338 21.3341 31.1447C21.5152 31.2516 21.5965 31.411 21.5782 31.6228Z" fill="#677D8E"/>
<path d="M16.9375 32.6013C18.8827 30.6916 19.392 32.9969 20.4186 33.7833C20.2574 34.2999 20.0962 34.8165 19.935 35.3331C19.0661 34.5524 18.0195 35.2741 17.087 34.9961C16.4442 34.4957 16.964 33.854 16.8766 33.2848C16.899 33.057 16.918 32.8324 16.9375 32.6013Z" fill="#7E919E"/>
<path d="M15.4619 35.8561C15.5948 35.4991 15.7243 35.1452 15.8572 34.7882C16.2173 34.8084 16.5691 34.8604 16.8989 35.0175C17.3206 35.2024 17.8098 35.2782 18.0784 35.7222C18.1288 35.9153 18.1055 36.101 18.0243 36.2835C17.8136 36.649 17.4809 36.8303 17.0803 36.9014C16.8534 36.3469 16.4487 36.3177 15.9633 36.5195C15.6533 36.4118 15.5289 36.1565 15.4619 35.8561Z" fill="#778D9B"/>
<path d="M15.4619 35.8561C15.6545 36.0442 15.8472 36.2328 16.0398 36.421C16.1237 36.8223 15.9494 37.1125 15.646 37.347C15.3203 37.5771 15.3564 38.3144 14.8121 38.1291C14.4703 38.0131 14.5631 37.5088 14.7301 37.1763C14.9584 36.728 15.2147 36.2969 15.4619 35.8561Z" fill="#A1B4BE"/>
<path d="M15.6427 37.3497C15.7761 37.0411 15.903 36.7322 16.0364 36.4236C16.6018 35.8878 16.8624 36.1862 17.0127 36.7848C17.2434 36.8106 17.3489 36.9423 17.3329 37.1703C17.0967 37.357 16.8571 37.5468 16.6209 37.7335C16.2927 37.6054 15.9709 37.4777 15.6427 37.3497Z" fill="#5A748A"/>
<path d="M16.8469 35.1988C16.3887 35.3763 16.1021 35.1373 15.8572 34.7882C16.1981 34.2881 16.5424 33.7853 16.8803 33.2819C17.5475 33.7482 16.9992 34.3237 17.0245 34.8508C17.0819 34.9766 17.0735 35.0696 17.0022 35.1333C16.9241 35.2031 16.8712 35.226 16.8469 35.1988Z" fill="#BFCBCC"/>
<path d="M19.5066 27.9046C20.1816 27.7715 20.6519 27.4367 20.7035 26.6882C21.0433 26.6105 21.3834 26.5264 21.7231 26.4487C21.8969 26.3971 22.0784 26.3815 22.2608 26.4079C22.8123 26.4646 23.3371 26.594 23.7854 26.9384C24.1258 27.251 24.583 27.3798 24.9265 27.6957C25.0094 27.8842 25.0183 28.0717 24.9526 28.2648C24.6762 28.8233 24.3036 29.3152 23.9832 29.8519C23.8536 30.0349 23.7025 30.2006 23.5331 30.3459C21.8608 31.297 21.5564 30.0544 21.2023 28.893C21.1927 28.5474 21.3462 28.2819 21.6058 28.0803C21.7385 27.9007 22.0984 28.1531 22.1546 27.8402C22.2068 27.5432 22.251 27.9617 21.9685 27.8233C21.2747 27.8328 20.9546 28.5953 20.285 28.6319C19.8254 28.6029 19.4549 28.4822 19.5066 27.9046Z" fill="#708694"/>
<path d="M24.5478 23.3497C25.5118 22.6653 26.0569 23.6988 26.8984 24.0459C27.2559 23.25 26.4949 22.7881 26.544 22.2007C26.6098 21.9464 26.7724 21.8072 27.0378 21.7898C28.7792 22.884 28.8124 23.2696 27.3143 24.969C26.5435 25.1998 25.743 25.6161 25.1142 24.694C25.3104 24.1278 24.7797 24.2173 24.5312 24.0486C24.3608 23.8101 24.3771 23.5756 24.5478 23.3497Z" fill="#738995"/>
<path d="M25.1111 24.6913C25.7609 24.7212 26.4136 24.7546 27.0634 24.7846C27.6002 24.8728 27.9576 25.1701 28.1353 25.6832C28.2083 26.7966 27.7618 27.5133 26.5986 27.6674C26.232 26.4988 25.1231 26.3173 24.2064 25.8724C24.1698 25.7769 24.1299 25.6843 24.0933 25.5888C24.4325 25.2917 24.775 24.9917 25.1111 24.6913Z" fill="#879BA6"/>
<path d="M24.5478 23.3497C24.5413 23.5816 24.5412 23.8137 24.5346 24.0455C22.6669 24.4567 22.667 24.4568 22.8595 23.4969C23.4202 23.4477 23.9807 23.3986 24.5478 23.3497Z" fill="#AFBDC5"/>
<path d="M22.0958 26.7693C21.976 26.6626 21.8497 26.5556 21.7266 26.4519C22.2959 25.5583 23.2112 25.6258 24.0933 25.5946C23.9152 26.8165 22.8746 26.5679 22.0958 26.7693Z" fill="#879BA6"/>
<path d="M40.5031 7.79487C39.7894 8.44498 39.2461 8.47256 38.9905 7.39402C39.7948 6.39425 40.2842 6.57971 40.5031 7.79487Z" fill="#73929C"/>
<path d="M26.9293 21.8869C26.801 21.9893 26.6723 22.0983 26.544 22.2007C26.1136 22.1701 25.6866 22.1364 25.2532 22.1025C25.2695 21.868 25.2795 21.6331 25.2959 21.3986C26.0458 20.3313 27.0863 20.2381 28.2385 20.5091C28.5507 20.7491 28.5856 21.0477 28.4247 21.387C28.0445 21.8978 27.484 21.8857 26.9293 21.8869Z" fill="#97ABB3"/>
<path d="M19.5066 27.9046C19.7408 28.2144 20.0241 28.395 20.4284 28.2597C20.7579 28.3072 21.1782 28.1147 21.3342 28.6104C22.1284 28.8839 21.8024 31.3617 23.5575 29.738C24.3346 30.4298 24.6129 31.1033 23.4816 31.7235C22.8379 31.8164 22.2306 31.2599 21.5747 31.6262C21.434 31.4894 21.2934 31.3525 21.1527 31.2156C20.6054 30.9108 20.8828 30.2781 20.6094 29.8629C20.0001 29.6869 19.4619 29.3922 19.0785 28.8677C18.9802 28.4365 19.193 28.1482 19.5066 27.9046Z" fill="#556D7E"/>
<path d="M28.2376 20.6997C27.2309 20.8238 26.2138 20.9018 25.2959 21.3986C25.3166 20.2807 26.2802 20.2384 26.9921 19.9075C27.7641 19.4251 28.5361 18.9427 29.3081 18.4603C29.8798 18.0409 30.5088 16.8314 30.7466 18.7442C30.8819 19.8386 31.5113 20.2899 32.1962 18.9448C32.6916 18.7952 33.0798 18.8879 33.2858 19.4122C33.1563 21.5495 31.9725 22.8763 30.0434 23.6356C29.6374 23.4 29.4563 23.0061 29.3156 22.5822C29.1683 22.1031 28.9944 21.5806 29.0884 21.1118C29.3776 19.6929 28.4659 20.9414 28.2376 20.6997Z" fill="#566E7F"/>
<path d="M29.7336 11.3858C30.1824 11.2046 30.0579 10.3753 30.7586 10.4758C30.9424 10.6474 31.1297 10.8159 31.3136 10.9875C30.8453 11.345 30.3288 11.5256 29.7336 11.3858Z" fill="#B4B7B5"/>
<path d="M23.4851 31.7206C24.0082 31.076 23.6622 30.4019 23.5609 29.7351C23.668 29.6089 23.7781 29.4861 23.8851 29.3599C24.3448 28.8696 24.9891 28.593 25.382 28.0281C25.6004 27.6985 25.8215 27.3787 26.2573 27.3128C27.4236 27.4492 27.6021 26.5079 27.957 25.757C28.023 25.2705 28.2948 24.9665 28.7603 24.8314C29.2328 24.745 29.5883 25.5937 30.15 24.9512C31.8072 23.0608 33.7588 21.3836 34.5104 18.8491C34.4147 18.4277 34.3704 18.0092 34.6182 17.6168C34.9061 17.2556 35.2739 17.0795 35.7408 17.1508C36.6203 17.3969 37.1492 17.9135 37.0653 18.8924C37.1226 19.2503 37.1796 19.6147 37.2369 19.9727C35.7872 21.2684 34.0501 22.2836 33.2033 24.1582C32.8443 25.9021 31.3321 26.588 30.1019 27.5349C28.2996 29.5977 26.4635 31.6296 24.3067 33.3437C23.7815 32.9337 25.1289 31.5645 23.4851 31.7206Z" fill="#AFB9BB"/>
<path d="M30.1085 27.535C30.6946 25.9973 32.167 25.2737 33.2099 24.1583C34.203 23.4723 34.1992 23.4817 36.1685 24.25C36.3169 24.3067 36.5598 24.1138 36.7607 24.038C36.2934 25.5856 35.2286 26.6902 34.0341 27.6906C33.398 28.2225 32.8275 28.7936 32.5722 29.6081C31.6759 29.316 30.8531 30.9919 30.1546 29.9917C29.0498 28.4141 30.863 28.3997 31.7232 27.9545C31.267 27.0614 30.567 27.8703 30.1085 27.535Z" fill="#E9E6DF"/>
<path d="M39.1764 21.2743C39.1919 22.262 38.2768 22.5364 37.7698 23.1239C37.7508 22.1393 38.666 21.8649 39.1764 21.2743Z" fill="#E9E6DF"/>
<path d="M37.0684 18.8954C36.6432 18.4265 36.221 17.961 35.7958 17.4921C35.7947 16.9374 36.1022 16.5709 36.5284 16.2755C38.1162 14.8746 39.704 13.4738 41.2948 12.0763C41.4842 12.3223 41.6671 12.568 41.8565 12.8141C40.7806 13.7696 39.7047 14.7251 38.6383 15.6843C38.6146 15.7056 38.6608 15.8597 38.6672 15.8601C38.8619 15.8388 39.0569 15.8111 39.249 15.7799C38.5231 16.8195 37.7942 17.8557 37.0684 18.8954Z" fill="#BAC2C6"/>
<path d="M41.0667 9.76464C41.1946 9.66861 41.3227 9.56559 41.4506 9.46957C41.6738 10.2045 41.8974 10.9329 42.1206 11.6678C41.9547 11.694 41.7918 11.7236 41.6259 11.7497C41.1848 11.1606 41.0029 10.4996 41.0667 9.76464Z" fill="#4A6272"/>
<path d="M16.8469 35.1988C16.8893 35.0754 16.9504 34.9592 17.0272 34.8538C18.024 34.8484 19.2793 33.2808 19.935 35.3331C19.6297 35.4289 19.3248 35.518 19.0195 35.6138C18.6629 35.5905 18.439 36.0166 18.0522 35.8981C17.6526 35.6629 17.2499 35.431 16.8469 35.1988Z" fill="#587084"/>
<path d="M18.0559 35.8948C18.3343 35.646 18.6311 35.4723 19.0232 35.6104C18.8508 36.4424 19.1661 37.663 17.6074 37.395C17.6441 36.8553 18.0869 36.4351 18.0634 35.8759L18.0559 35.8948Z" fill="#9FB3BC"/>
<path d="M18.0601 35.8797C18.6418 36.6057 18.1895 37.0221 17.6041 37.3989C17.5082 37.3258 17.4186 37.2526 17.3329 37.1703C17.224 37.0417 17.1216 36.9134 17.0127 36.7848C17.362 36.4786 17.7111 36.1794 18.0601 35.8797Z" fill="#5B748D"/>
<path d="M46.43 6.82702C47.0699 7.1467 47.6009 6.87978 48.1145 6.51837C48.2536 7.43236 47.6714 7.63513 46.9593 7.62423C46.4665 7.61272 46.123 7.41286 46.43 6.82702Z" fill="#C3C8C4"/>
<path d="M34.849 17.7587C34.7045 18.1504 34.8476 18.4745 35.0889 18.7718C35.0264 19.4262 34.6946 19.7656 34.0114 19.6982C33.0426 18.8603 33.958 17.0282 32.3445 16.5282C31.9929 16.415 31.5051 16.5456 31.397 16.001C31.4099 15.7696 31.4293 15.5385 31.4423 15.307C32.6121 15.4951 33.7883 15.6836 34.958 15.8718C34.8209 16.1898 34.6803 16.5108 34.5432 16.8289C34.8422 17.0746 34.8753 17.4054 34.849 17.7587Z" fill="#8B9CA5"/>
<path d="M34.849 17.7587C34.5829 17.5019 34.4153 17.2115 34.5466 16.8254C34.991 16.4343 35.4057 15.9964 35.8953 15.6627C36.9412 14.9538 36.304 16.0791 36.5284 16.2755C36.62 16.8837 36.1564 17.1576 35.7958 17.4921C35.4845 17.5811 35.1668 17.6701 34.849 17.7587Z" fill="#5A768A"/>
<path d="M33.0857 12.7445C34.3826 11.5854 35.1941 10.8601 36.0021 10.1379C35.3586 11.1467 34.8068 12.2445 33.0857 12.7445Z" fill="#D8DEE0"/>
<path d="M36.7304 13.707C36.9673 13.2204 36.8929 12.0166 37.8608 13.2157C37.5379 13.5104 37.3101 14.0072 36.7304 13.707Z" fill="#B1BBBA"/>
<path d="M32.3291 16.4011C34.4741 16.5666 34.1081 17.9747 33.792 19.3566C33.5689 19.4827 33.3567 19.4708 33.149 19.3205C32.8303 19.1962 32.5149 19.0689 32.1932 18.9412C32.2193 18.417 31.6227 17.8998 32.4013 17.3565C33.0124 16.9264 32.1921 16.8901 32.0039 16.6796C31.9812 16.5106 32.0221 16.413 32.1268 16.3866C32.2315 16.3602 32.2988 16.3672 32.3291 16.4011Z" fill="#536C7F"/>
<path d="M32.3291 16.4011C32.2178 16.4884 32.1092 16.5855 32.0039 16.6796C31.1238 16.9044 30.2617 16.8082 29.4138 16.5156C30.0781 16.3432 30.7391 16.1734 31.4004 15.9976C31.712 16.1344 32.0206 16.2678 32.3291 16.4011Z" fill="#4E6778"/>
<path d="M20.1835 31.5381C19.2528 31.8019 18.6846 31.1799 18.7969 30.4993C18.9071 29.8573 19.5796 30.1723 19.9845 30.5433C20.4314 30.7973 20.4248 31.1453 20.1835 31.5381Z" fill="#6F8695"/>
<path d="M20.1835 31.5381C20.1183 31.2055 20.0497 30.8759 19.9845 30.5433C20.1937 30.3196 20.4034 30.0898 20.6126 29.8661C21.7242 29.9413 20.9815 30.7639 21.156 31.2188C20.8917 31.5039 20.5774 31.644 20.1835 31.5381Z" fill="#99AAB1"/>
<path d="M26.254 27.3151C26.1267 27.6305 25.9994 27.9458 25.8721 28.2612C25.557 28.2435 25.1616 28.4503 25.0185 27.9553L24.8926 27.8419C24.8625 26.9404 23.9833 27.6103 23.6906 27.194C23.16 27.0514 22.6295 26.9087 22.0959 26.7627C22.7596 26.371 23.4296 25.9805 24.0933 25.5888C24.7395 25.683 25.3857 25.7766 26.0289 25.8674C27.7085 26.1067 26.8771 26.7277 26.254 27.3151Z" fill="#546D81"/>
<path d="M23.6906 27.194C24.3056 27.3833 24.8114 26.3029 25.3922 26.9869C25.6312 27.268 25.1794 27.6161 24.8926 27.8419C24.5104 27.585 23.5909 28.3397 23.6906 27.194Z" fill="#AFB9BB"/>
<path d="M25.0152 27.959C25.2999 28.0588 25.5875 28.162 25.8688 28.2649C25.4319 29.0401 24.7111 29.2996 23.882 29.3628C23.8188 28.5337 24.508 28.3208 25.0152 27.959Z" fill="#4B6475"/>
<path d="M21.3342 28.6104C21.0344 28.4936 20.7316 28.3734 20.4284 28.2597C21.0046 27.8179 21.4554 26.9146 22.3664 27.7493C22.3627 27.9297 22.2814 28.0574 22.1163 28.1255C21.8559 28.2851 21.5981 28.4478 21.3342 28.6104Z" fill="#B7C2C9"/>
<path d="M22.1163 28.1255C22.1882 27.9941 22.276 27.8668 22.3664 27.7493C22.7962 27.6767 23.1259 27.8331 23.2579 28.2404C23.3784 28.6213 23.1138 28.7967 22.7762 28.8358C22.2534 28.9 22.1922 28.4974 22.1163 28.1255Z" fill="#50677D"/>
<path d="M28.9171 24.8556C28.5938 25.1568 28.277 25.4583 27.9538 25.7594C27.656 25.4331 27.3579 25.1133 27.0632 24.7904C28.2365 23.7662 28.3136 22.7933 26.9259 21.89C27.3524 21.7043 27.7784 21.525 28.2048 21.3393C29.2767 20.8576 29.0836 22.2883 29.7785 22.3756C29.8603 22.6995 29.9391 23.0199 30.0209 23.3438C30.0105 24.1043 29.5258 24.5254 28.9171 24.8556Z" fill="#5A7080"/>
<path d="M29.7785 22.3756C28.4246 23.2865 29.291 20.8326 28.2048 21.3393C28.2167 21.1271 28.2287 20.9152 28.2376 20.6997C29.4405 20.0093 29.4404 20.0089 29.7785 22.3756Z" fill="#7D939D"/>
<path d="M28.9171 24.8556C28.8752 24.0503 29.5365 23.7592 30.0274 23.3449C31.4592 22.3093 32.5512 21.0097 33.152 19.3245C33.3642 19.3364 33.5828 19.3486 33.7949 19.3605C34.4092 19.5627 34.7249 19.1095 35.0953 18.7723C35.3064 19.0905 35.5558 19.4173 35.2444 19.7933C33.6467 21.7161 32.0183 23.6113 30.4577 25.5619C30.0726 26.0466 29.6295 26.3572 29.1579 26.0824C28.9174 25.9432 28.9867 25.282 28.9171 24.8556Z" fill="#BCC5C7"/>
</svg>
