<svg width="45" height="36" viewBox="0 0 45 36" fill="none" xmlns="http://www.w3.org/2000/svg">
<path d="M3.54125 29.7236C0.923743 28.4259 -0.30879 25.4066 0.683723 22.6906C0.813464 22.3385 1.01132 22.0124 0.9205 21.6179C0.988613 21.5853 1.05997 21.5527 1.12808 21.5201C1.36162 21.5168 1.57569 21.5821 1.78003 21.6929C3.11311 23.0134 3.11311 23.0134 3.83966 20.9202C3.92399 20.7995 4.02454 20.6952 4.1413 20.6104C4.27429 20.5485 4.41051 20.5354 4.55323 20.5713C4.91326 20.8224 5.33816 20.7995 5.74684 20.8387C7.59564 21.6473 8.36111 23.258 8.85088 25.0708C8.88007 25.2241 8.87358 25.3773 8.8379 25.5305C8.54923 26.0424 8.09514 26.2707 7.52752 26.3065C6.88207 26.1468 6.5642 25.5338 6.03876 25.2143C5.87334 25.1621 5.71116 25.1099 5.59764 25.299C6.60313 26.5152 6.52528 26.6391 4.38781 27.314C4.27104 27.3238 4.1932 27.2749 4.17049 27.1673C4.15752 27.4542 4.48511 27.3238 4.57593 27.4966C5.03327 28.6248 4.78352 29.4106 3.54125 29.7236Z" fill="#ED847A"/>
<path d="M7.70592 7.25534C7.97513 6.92602 8.38057 6.95537 8.73735 6.86407C8.79249 6.89016 8.85088 6.91624 8.90602 6.93907C9.23361 7.1673 9.49634 6.90972 9.78501 6.82169C10.2229 6.91298 10.4986 7.24555 10.8197 7.51292C11.2381 7.927 11.663 8.37695 12.1593 8.64432C12.8793 9.02906 12.8534 9.49205 12.5842 10.0952C12.0814 10.8223 11.8187 11.7092 11.1408 12.3222C10.6705 12.5243 10.184 11.9831 9.71365 12.3548C9.11036 12.495 8.44219 12.2244 7.8908 12.6711C7.72214 12.808 7.54374 12.9254 7.3394 13.0004C6.71016 13.108 6.07443 13.0591 5.44195 13.0362C4.87434 13.0167 4.37484 12.8699 4.40403 12.1331C4.93596 11.4516 5.34789 10.7115 5.50033 9.84419C5.90253 8.69322 7.0637 8.19763 7.70592 7.25534Z" fill="#ED877E"/>
<path d="M34.2735 3.06883C34.8346 5.05449 36.5537 4.43825 37.8868 4.69257C37.9678 5.28924 37.3873 5.20121 37.1343 5.44575C37.0759 5.76854 37.41 5.85331 37.5105 6.07503C37.8641 7.62703 37.7376 7.72159 35.5255 7.53248C36.4369 8.01178 37.4456 7.20317 38.3571 7.74767C38.4252 7.8944 38.4576 8.04438 38.4609 8.20741C38.3927 8.73235 38.0911 9.08449 37.65 9.33555C37.5008 9.38771 37.3483 9.40728 37.1894 9.40402C35.5741 9.81484 34.1859 8.70627 32.6096 8.70953C31.9317 8.70953 31.4971 8.97037 31.0267 9.3225C29.9402 9.10731 29.5964 8.33457 29.5542 7.34011C29.6353 6.99775 29.8429 6.79886 30.1932 6.75321C30.657 6.72387 31.0657 7.14448 31.5522 6.92602C31.8441 6.72713 31.8668 6.36521 32.0484 6.09785C32.5123 5.45227 33.3686 5.42292 33.907 4.90124C33.907 4.74474 33.9654 4.57845 33.8064 4.45781C33.6118 4.32413 33.4075 4.21001 33.281 4.00134C33.2453 3.79266 33.3361 3.62964 33.4659 3.47966C33.7091 3.29054 33.8648 2.92537 34.2735 3.06883Z" fill="#ED8A7F"/>
<path d="M0.9205 21.6179C-0.279599 20.3594 -0.084988 18.8889 0.275041 17.3923C0.589662 16.0848 1.00807 14.8263 1.93896 13.8057C2.2179 13.6623 2.31845 13.8514 2.40927 14.0633C2.43197 14.21 2.42224 14.3567 2.38981 14.5035C2.28277 14.8393 2.12708 15.1621 2.19195 15.5207C2.19844 15.5077 2.28926 15.6349 2.28926 15.6349C2.28926 15.6349 2.4417 15.6055 2.44495 15.599C2.54225 15.5175 2.63956 15.4555 2.74659 15.3936C2.94445 15.3121 3.13257 15.3056 3.31421 15.4392C3.39854 15.5631 3.45368 15.6936 3.48611 15.8403C3.52504 16.1696 3.38232 16.4696 3.33043 16.8119C3.48611 16.287 3.62883 15.7849 4.05697 15.436C4.77703 15.0773 5.15003 15.3545 5.27329 16.1011C4.77054 17.1086 5.00083 18.2139 4.87758 19.2703C4.1932 21.0245 2.41251 20.943 1.05673 21.5723L0.9205 21.6179Z" fill="#F08D83"/>
<path d="M10.6413 4.97949C11.5203 3.68507 12.662 2.75256 14.1962 2.36456C14.3811 2.23414 14.6632 2.14284 14.7735 2.30261C15.6103 3.53182 16.7034 2.73952 17.6959 2.70691C18.3965 2.47542 18.6528 2.93841 18.8701 3.46335C18.8701 3.62312 18.8182 3.76332 18.7176 3.88722C18.1014 4.41542 17.4397 4.91102 16.6321 5.03166C16.0742 5.11317 16.139 5.48487 16.058 5.83049C15.513 6.83799 14.6665 7.41184 13.5442 7.58791C12.276 7.05644 10.7581 6.80538 10.6413 4.97949Z" fill="#EC8075"/>
<path d="M16.551 35.2469C15.0557 35.9251 13.6545 35.3414 12.2436 34.9208C12.182 34.5361 12.5452 34.3437 12.6393 34.0307C12.3409 33.0917 12.4901 32.3646 13.5053 31.9701C13.9626 31.7907 14.3065 31.4451 14.5076 30.9789C14.5659 30.8354 14.6341 30.6985 14.7022 30.5615C15.4384 29.4758 16.3531 28.6835 17.7511 28.6835C17.8678 28.8008 17.9295 28.941 17.9359 29.1073C17.7024 30.0268 17.3099 30.8941 17.0732 31.8136C16.2785 32.8634 17.2548 34.1872 16.551 35.2469Z" fill="#F9CBC0"/>
<path d="M44.0689 23.5742C43.1834 25.5012 42.0028 27.138 39.8977 27.8683C39.6804 27.9661 39.4566 28.0151 39.2231 27.927C38.7203 27.4151 38.6782 26.688 38.3798 26.0783C37.4392 25.0512 38.0035 23.8514 38.0035 22.7167C38.0554 22.1722 38.3084 21.8201 38.8858 21.7777C39.6674 22.3678 40.767 22.5765 41.127 23.6688C41.1205 24.0535 41.2081 24.422 41.3476 24.7774C41.3573 24.8784 41.3411 24.973 41.3216 25.0708C41.286 25.2632 41.1238 25.4425 41.273 25.6512C41.2697 25.4458 41.3379 25.2632 41.4514 25.0969C41.6817 24.6698 40.994 24.2329 41.4579 23.8057C42.1812 23.6101 43.0212 23.7959 43.6083 23.1504C43.8645 23.1797 44.0105 23.3329 44.0689 23.5742Z" fill="#EA7A71"/>
<path d="M43.6991 10.5517C44.523 11.9635 45.4539 13.3525 44.7533 15.1197C44.51 15.2599 44.3381 15.1262 44.1727 14.9665C43.8905 14.8523 44.0786 14.197 43.5175 14.4057C43.0212 14.8426 42.5185 14.7154 42.0839 14.3665C41.3962 13.8155 41.1984 14.4154 40.9 14.8165C40.767 14.9045 40.621 14.9469 40.4621 14.9534C40.3032 14.9273 40.1669 14.8589 40.0534 14.748C40.0988 13.183 39.2134 11.8201 39.0901 10.2909C39.2847 9.88983 39.6545 9.76919 40.0502 9.6942C40.2091 9.67464 40.3713 9.67138 40.5335 9.66486C42.2817 9.58987 42.2817 9.58987 42.1098 11.4027C42.0904 11.6179 42.1325 11.8364 42.1066 12.0516C42.6126 11.5266 43.0958 10.9756 43.6991 10.5517Z" fill="#ED897F"/>
<path d="M19.3825 1.34402C20.7221 -0.132999 22.2595 0.0789344 23.8553 0.819072C24.4132 1.07665 24.9289 1.56899 25.5939 1.08643C26.1518 1.22338 26.1712 1.37336 25.7074 1.92765C25.5485 2.02872 25.3733 2.11024 25.2338 2.2374C25.1268 2.55693 25.4155 2.66453 25.5549 2.85037C25.649 2.96775 25.7009 3.10143 25.7106 3.25142C25.6166 4.07307 24.9971 4.56541 24.5365 5.15882C24.3419 5.40662 24.1602 5.67072 23.8748 5.82723C23.5667 5.96091 23.2553 5.97069 22.9407 5.86309C22.3504 5.43271 22.3244 5.07079 23.0639 4.80669C23.1547 4.78712 23.2131 4.72843 23.2358 4.63062C23.2456 4.72517 23.1904 4.77408 23.0639 4.78386C22.146 5.00884 21.9352 3.92635 21.2151 3.79267C20.9978 3.68507 20.894 3.509 20.9005 3.26772C21.2703 2.59279 21.8898 2.18849 22.545 1.74506C21.8282 1.10926 21.3676 1.22012 20.7643 1.97656C20.0864 2.83407 19.6615 2.59932 19.3825 1.34402Z" fill="#EB7F76"/>
<path d="M36.5991 5.27946C37.0272 5.08383 37.4586 4.8882 37.8868 4.69257C40.2318 5.30554 41.007 6.20545 41.1887 8.53998C41.1465 8.60193 41.1076 8.66062 41.0654 8.72257C40.3421 9.05514 39.8394 9.73659 39.0674 9.99091C38.1138 9.59313 38.8825 8.49433 38.2533 7.96287C37.277 7.96287 36.3007 7.96287 35.2692 7.96287C35.4509 7.34011 35.879 7.23903 36.2747 7.32707C37.6532 7.64008 37.5235 6.89342 37.2478 6.00982C37.2024 5.61529 36.7321 5.59899 36.5991 5.27946Z" fill="#F09388"/>
<path d="M40.2318 14.7774C40.3259 14.7806 40.4232 14.7839 40.5172 14.7871C41.0265 15.4979 41.1692 16.5054 42.1617 16.8184C42.872 17.2325 43.6667 17.5488 44.0267 18.3835C44.0365 19.0062 44.7727 19.3258 44.6949 19.9844C44.2505 20.4702 44.9576 21.3343 44.1402 21.6962C43.6472 21.2462 44.0948 20.5974 43.8289 20.0985C44.0559 20.6985 43.6278 21.4451 44.2213 21.9635C44.3673 22.3646 44.2797 22.7134 43.9846 23.0134C43.3164 23.2449 42.6515 23.3395 41.9476 23.1243C41.1173 22.87 41.4254 22.495 41.7952 22.0907C42.1358 21.8951 42.4796 21.6994 42.5801 21.2886C42.6515 21.2136 42.645 21.1517 42.5542 21.1256C42.5769 21.2136 42.5607 21.2951 42.5023 21.3832C42.3952 21.5625 42.2428 21.6636 42.0449 21.706C40.9454 21.3147 42.1098 20.33 41.5454 19.7985C41.3314 19.6094 41.2276 19.3714 41.2341 19.0845C41.6427 18.2205 40.994 18.4715 40.5854 18.465C40.4394 18.3965 40.3324 18.2922 40.2578 18.1487C40.0437 17.3401 39.9237 16.5185 39.8134 15.6936C39.8296 15.3349 39.8913 14.9925 40.2318 14.7774Z" fill="#E97B72"/>
<path d="M25.2825 1.72876C25.6847 1.66355 26.0674 1.58855 25.5939 1.0897C27.2091 -0.0188812 28.9249 -0.351454 30.7802 0.418028C30.5889 0.704954 30.2256 0.714735 29.9921 0.916888C30.0245 1.22664 30.3229 1.30489 30.4818 1.49726C30.5856 1.60812 30.6732 1.7255 30.751 1.85592C31.1792 2.84385 31.4224 3.73071 29.8461 3.81223C29.4763 3.83179 29.2331 4.21001 28.9282 4.41868C28.7952 4.49042 28.6525 4.52628 28.5033 4.53606C27.4232 4.38282 27.287 2.83733 26.0771 2.87646C25.5809 2.65474 25.0425 2.45911 25.2825 1.72876Z" fill="#F19388"/>
<path d="M17.4721 35.6218C17.1867 35.6577 16.9564 35.5762 16.8072 35.3154C16.8526 34.7448 16.924 34.1807 16.6775 33.6199C16.4277 33.0591 16.6256 32.6091 17.1218 32.2766C17.8776 32.1429 17.8613 32.9743 18.283 33.2221C18.2668 33.2091 18.3252 33.2645 18.3252 33.2645C18.3252 33.2645 18.283 33.2254 18.2668 33.2123C17.8516 32.7363 18.2376 32.5276 18.5425 32.2929C18.6722 32.2244 18.8084 32.1853 18.9544 32.169C19.2106 32.1853 19.4831 32.2505 19.5317 32.5309C19.6161 33.0265 19.7783 32.4787 19.882 32.5765C20.0312 32.5863 20.161 32.6385 20.2778 32.733C20.8746 33.5188 22.7331 33.9394 21.0367 35.3871C19.8529 35.5208 18.6625 35.586 17.4721 35.6218Z" fill="#EA7C73"/>
<path d="M39.2263 27.7803C39.4501 27.8096 39.6772 27.839 39.901 27.8683C38.4706 31.5103 35.1849 33.346 31.2343 32.7689C30.6959 32.6906 30.1023 32.2766 29.5509 32.7917C29.3953 32.7069 29.298 32.5765 29.2558 32.4037C29.2071 31.556 29.7618 31.3473 30.4007 31.494C34.2313 32.3646 37.0305 30.8126 39.2263 27.7803Z" fill="#F6B3A4"/>
<path d="M40.8156 14.7774C40.8092 14.2361 40.8675 13.7177 41.3281 13.3688C42.1098 13.4405 42.3369 15.0284 43.4364 14.0959C43.9846 13.9655 43.91 14.7382 44.364 14.7447C44.4938 14.8686 44.6235 14.9925 44.7533 15.1164C44.6106 15.524 44.4678 15.9316 44.3251 16.3391C43.8775 16.7728 43.4786 17.3108 42.7293 17.1314C42.0093 16.4141 40.6113 16.2544 40.8156 14.7774Z" fill="#F2968B"/>
<path d="M2.22763 14.1089C2.13033 14.0079 2.03302 13.9068 1.93572 13.8057C2.46765 13.0232 3.42124 12.9221 4.13157 12.4298C4.33267 12.5472 4.39105 12.746 4.42024 12.958C4.57269 13.6199 5.1176 13.5644 5.60737 13.6101C6.15552 13.7275 6.65178 13.9166 6.87882 14.4969C6.52528 15.4392 6.16201 16.3717 5.08841 16.7337C4.93921 16.5022 4.97164 16.2837 5.14355 16.0783C4.90353 15.7131 4.72513 15.1588 4.16725 15.7522C3.84614 15.7946 3.52504 15.8044 3.20717 15.7522C3.20393 15.6414 3.20393 15.5273 3.20069 15.4164C2.76281 15.0675 2.80173 14.3567 2.22763 14.1089Z" fill="#EF9186"/>
<path d="M19.3825 1.34402C19.6453 1.74506 19.7653 2.58953 20.4789 1.92113C21.7568 0.727778 21.7244 0.691912 23.6088 1.80375C22.6455 2.23414 21.7211 2.61236 21.04 3.35576C20.7513 3.97525 20.2453 4.05025 19.6518 3.92635C19.5058 3.87418 19.3825 3.78614 19.2755 3.67529C19.0809 2.98732 18.27 2.56671 18.4387 1.72224C18.7533 1.59834 19.0679 1.47118 19.3825 1.34402Z" fill="#ED8A80"/>
<path d="M17.4721 35.6218C18.656 35.4262 19.7815 34.6078 21.0465 35.2925C21.6335 34.6991 22.8823 35.198 22.9536 34.96C23.3883 33.4634 24.5073 34.7545 25.13 34.2916C25.6036 34.3698 26.2393 34.2003 26.2426 35.0089C23.3948 36.2805 20.4464 36.1435 17.4721 35.6218Z" fill="#E67266"/>
<path d="M4.18347 13.0591C4.16725 12.8504 4.14779 12.6385 4.13157 12.4298C4.06346 10.1833 5.40303 8.24001 7.70592 7.25207C7.8389 7.34989 8.40652 7.21947 7.95567 7.63029C7.18371 8.33131 6.37608 8.99319 5.79549 9.87679C5.21166 10.5419 5.05597 11.4516 4.51431 12.1396C5.2668 13.3134 6.51555 12.3222 7.42373 12.8145C7.49833 12.9449 7.50482 13.0754 7.43022 13.209C7.1156 13.3525 6.78476 13.4797 6.72962 13.8938C6.10363 14.1579 5.669 13.2514 5.02678 13.6166C4.6927 13.5123 4.33267 13.4438 4.18347 13.0591Z" fill="#E77C71"/>
<path d="M43.6991 10.5517C43.9327 11.8038 42.0839 11.7614 42.2428 13.0036C41.8341 12.019 41.2633 11.1027 42.0579 10.1213C41.3833 9.66812 40.7021 10.3985 40.1605 9.86375C39.9788 9.09101 40.7346 9.01928 41.0719 8.63453L41.1887 8.53998C42.1098 9.10079 43.1964 9.45619 43.6991 10.5517Z" fill="#F1968C"/>
<path d="M28.8309 4.28826C28.8471 3.67529 29.4699 3.29381 29.7585 3.31011C31.5554 3.41771 30.3683 2.31239 30.4526 1.73528C30.6473 1.6179 30.8613 1.66355 31.0624 1.65703C31.2473 1.55595 31.3446 1.3538 31.5262 1.25272C31.7987 1.25924 32.0939 1.16469 32.3241 1.40597C32.5512 1.53965 32.775 1.67333 33.002 1.80701C32.9858 2.73626 31.5587 3.20251 32.1879 4.34043C32.1912 4.49694 32.1458 4.63714 32.0549 4.7643C31.4679 5.11317 30.8646 5.43271 30.1542 5.44249C29.5964 5.19469 29.019 4.96645 28.8309 4.28826Z" fill="#EF877D"/>
<path d="M26.2426 35.0089C25.9117 34.4872 25.383 34.7024 24.9257 34.6502C24.0791 33.9329 23.5796 33.2123 24.9095 32.4754C25.6133 32.2276 26.3593 32.3026 27.0826 32.2146C27.673 32.2342 27.8319 32.72 28.0589 33.1341C28.1919 33.4112 28.3606 33.6884 28.1789 34.0079C27.5497 34.3665 27.0113 34.9143 26.2426 35.0089Z" fill="#ED8379"/>
<path d="M10.6413 4.97949C11.3127 6.16632 12.4706 6.73691 13.5961 7.34989C14.0567 7.53574 14.1929 7.84549 13.9626 8.30196C13.7778 8.45847 13.5572 8.51715 13.3204 8.51715C12.4058 8.32478 11.6046 7.78028 10.6737 7.63029C10.1483 7.70203 10.0802 7.08253 9.68121 6.96515C9.36335 7.20969 9.039 7.21621 8.70168 7.0108L8.73735 6.86407C9.80447 6.67822 10.0769 5.6805 10.6413 4.97949Z" fill="#F9D3C8"/>
<path d="M4.18996 27.1706C4.78352 26.8967 5.37708 26.6196 5.90577 26.375C6.1166 25.5631 4.05697 26.0913 5.16301 24.8719C5.48736 25.0936 5.8182 24.8947 6.14579 24.8817C6.67448 25.1947 7.09614 25.6153 7.40427 26.1468C7.39779 26.3881 7.28751 26.5772 7.13182 26.7467C6.15552 27.4249 5.35762 28.2302 5.20193 29.4921C5.15003 29.717 5.06246 29.929 4.91001 30.1083C4.77054 30.1996 4.63107 30.1963 4.50133 30.0887C4.18023 29.9681 3.85912 29.8475 3.54125 29.7268C4.15103 29.091 4.94569 28.5107 4.17049 27.4803C4.07643 27.4053 4.04724 27.3336 4.08616 27.2684C4.12184 27.2032 4.15752 27.1706 4.18996 27.1706Z" fill="#E67469"/>
<path d="M17.7932 2.71669C17.8386 3.25794 17.7121 3.77962 17.0959 3.7731C16.6385 3.76984 17.2548 3.1536 16.6807 2.96449C16.045 4.05025 15.3379 4.47411 14.8579 2.75256C14.7768 2.46237 14.4654 2.41347 14.1962 2.36456C14.6892 1.99612 15.2568 1.83309 15.8536 1.75484C16.4926 2.16893 17.3326 1.33423 17.9197 2.08415C18.0041 2.31891 17.9878 2.53737 17.7932 2.71669Z" fill="#F08E84"/>
<path d="M4.50133 30.0855C4.56945 30.0431 4.64405 30.0333 4.72189 30.0594C5.32194 29.8149 5.39654 30.3691 5.62034 30.6691C6.41825 31.7418 7.39779 32.4559 8.80547 32.3744C9.06819 32.7298 9.06819 33.1145 8.9417 33.5155C8.8379 33.7568 8.64005 33.8872 8.40652 33.9785C6.69719 33.0949 4.67648 32.5276 4.50133 30.0855Z" fill="#F6BCAF"/>
<path d="M8.40652 33.9818C8.49409 33.8742 8.58491 33.7633 8.67248 33.6558C8.89629 33.4666 9.05846 33.1699 9.42173 33.2254C10.0575 33.4014 10.6802 33.6297 11.3419 33.6851C11.7084 33.7536 12.0684 33.7633 12.4382 33.6851C13.1064 33.5416 13.1615 33.884 12.9669 34.3992C12.7236 34.5752 12.4804 34.7513 12.2403 34.9274C10.8651 35.0154 9.61634 34.585 8.40652 33.9818Z" fill="#E7776C"/>
<path d="M28.1822 34.0046C28.0816 33.8025 27.9843 33.5971 27.8838 33.3949C27.8805 33.3232 27.8741 33.2547 27.8676 33.183C27.8708 32.6874 27.8254 32.1983 27.5984 31.7451C27.4556 31.4027 27.2967 31.0669 27.2643 30.6887C27.2578 30.4474 27.3194 30.2289 27.4816 30.0431C28.0362 29.8768 28.3476 30.2779 28.7076 30.5713C29.2071 31.0115 29.4309 31.556 29.3044 32.2244C29.3044 32.7591 28.9995 33.1928 28.8244 33.6688C28.6849 33.9329 28.4546 34.0144 28.1822 34.0046Z" fill="#FCE4DD"/>
<path d="M17.151 32.3678C16.885 32.8406 16.7294 33.3036 17.0602 33.8253C17.4105 34.3796 17.3878 34.9013 16.8072 35.3154C16.7164 35.3088 16.6321 35.286 16.551 35.2469C16.4634 34.047 15.8925 32.8211 16.7585 31.6766C17.0472 31.5364 17.1834 31.706 17.2905 31.9375C17.3099 32.1037 17.2645 32.2472 17.151 32.3678Z" fill="#E4766B"/>
<path d="M32.0809 4.38608C30.6051 2.88624 32.5285 2.6091 32.9988 1.81027C33.3394 1.85266 33.5437 2.07763 33.7026 2.35804C33.8454 3.06883 32.9112 3.1047 32.8691 3.70137C32.7263 3.95895 32.5415 4.17415 32.2885 4.32413C32.2204 4.34695 32.149 4.36652 32.0809 4.38608Z" fill="#F19388"/>
<path d="M42.7228 16.9652C43.258 16.7565 43.7932 16.5478 44.3284 16.3391C44.2278 17.0206 44.1305 17.702 44.03 18.3835C43.4137 17.9498 42.7942 17.5162 42.1779 17.0825C42.3239 16.8902 42.5055 16.8543 42.7228 16.9652Z" fill="#F9D2C7"/>
<path d="M17.7932 2.71669C17.8062 2.5015 17.8192 2.28957 17.8321 2.07437C17.8224 1.8494 18.0203 1.81027 18.1533 1.71571C18.2473 1.70593 18.3446 1.70919 18.4387 1.7255C18.7793 2.36456 19.6582 2.75256 19.3371 3.69485C19.1814 3.83179 19.0258 3.83179 18.8701 3.69485C18.51 3.3688 18.15 3.04275 17.7932 2.71669Z" fill="#FAE2D8"/>
<path d="M43.738 22.9189C44.124 22.6645 44.0527 22.27 44.0397 21.8951C43.9586 21.8233 43.9359 21.7581 43.9716 21.6994C44.004 21.644 44.0364 21.6147 44.0689 21.6147C44.6754 21.2234 44.1013 20.3789 44.6949 19.9844C44.9414 21.2593 44.7695 22.4624 44.0689 23.571C43.9554 23.4601 43.8418 23.3493 43.7283 23.2351C43.6213 23.1601 43.5888 23.0884 43.6245 23.0199C43.6634 22.9547 43.6991 22.9189 43.738 22.9189Z" fill="#DE6A61"/>
<path d="M32.7036 3.66877C32.1425 2.54389 33.5113 2.90254 33.7026 2.35804C34.0205 2.49172 34.2281 2.71343 34.2735 3.06883C34.0692 3.26772 33.8648 3.46661 33.6605 3.6655C33.3426 3.42749 33.0247 3.96221 32.7036 3.66877Z" fill="#F3A398"/>
<path d="M18.1533 1.71571C18.0462 1.83635 17.9392 1.95373 17.8321 2.07437C17.2029 1.78092 16.3985 2.57649 15.8536 1.75484C16.6158 1.4777 17.3813 1.32445 18.1533 1.71571Z" fill="#EB736B"/>
<path d="M31.0624 2.06133C30.8581 1.95373 30.6537 1.84614 30.4494 1.73854L30.4397 1.7255C30.2742 1.43205 30.4299 1.20707 30.5986 0.982098C30.7446 0.825593 30.9262 0.737559 31.1305 0.691912C31.5262 0.93319 31.9252 1.17121 32.3209 1.41249C32.0095 1.41249 31.7014 1.41575 31.3933 1.41575C31.2376 1.60486 31.3511 1.93743 31.0624 2.06133Z" fill="#F19388"/>
<path d="M31.1305 0.691912C31.004 0.825593 30.8743 0.962535 30.7478 1.09622C30.2029 1.41575 29.8396 1.08643 29.4763 0.74082C29.8202 0.258263 30.3391 0.49302 30.7835 0.414768C30.897 0.506062 31.0138 0.600617 31.1305 0.691912Z" fill="#ED7C70"/>
<path d="M28.8212 33.6753C28.3411 33.0884 29.1358 32.8569 29.1715 32.4135C29.2234 32.2668 29.3174 32.2211 29.4601 32.2961C29.4893 32.4624 29.5218 32.6254 29.5509 32.7917C29.4601 33.2156 29.152 33.4569 28.8212 33.6753Z" fill="#EA9989"/>
<path d="M8.7406 25.2143C7.91675 23.6101 7.18371 21.9342 5.5425 20.9495C5.1695 20.9626 4.80298 20.9463 4.50782 20.6658L4.50458 20.5746C4.40078 20.1963 4.6408 20.0235 4.91326 19.867C5.55872 19.9224 5.99983 19.7399 6.14903 19.0128C6.2658 18.452 6.4896 17.9074 7.06046 17.6205C7.96216 17.7803 7.55347 18.4259 7.4886 18.8921C7.38481 19.6453 7.18371 20.3887 7.64105 21.0962C7.86161 21.4614 8.08865 21.8233 8.32867 22.182C8.73735 22.6613 8.68546 23.4601 9.39579 23.7275C10.0542 23.6949 10.424 23.0362 11.0565 22.9449C11.2868 22.896 11.5138 22.8895 11.7473 22.9156C11.9906 22.9547 12.2112 23.046 12.3863 23.2254C12.7528 23.972 12.3701 24.4741 11.7992 24.8589C11.2543 25.2273 10.891 25.762 10.4272 26.2022C10.025 26.3359 9.87907 26.0816 9.77203 25.7686C9.72987 25.3643 9.52228 25.2045 9.11685 25.3349C8.97413 25.3479 8.84763 25.3121 8.7406 25.2143Z" fill="#E06B63"/>
<path d="M8.7406 25.2143C8.83466 25.198 8.92548 25.1751 9.0163 25.1491C9.3893 24.973 9.67148 25.048 9.82717 25.4523C9.78825 26.2381 10.2553 26.8608 10.5116 27.5521C10.7127 28.09 11.0759 28.6085 10.651 29.1986C9.79149 29.8246 8.88331 30.1148 7.82593 29.7007C7.40752 29.5377 7.01505 29.3714 6.95667 28.8791C6.89828 28.3933 7.22588 27.8944 7.57942 27.8716C9.10063 27.7738 8.52004 26.7108 8.5622 25.9251C8.55572 25.7686 8.59788 25.6284 8.69519 25.5045C8.70816 25.4099 8.72114 25.3121 8.7406 25.2143Z" fill="#FBD8CC"/>
<path d="M4.13806 20.9234C4.044 21.2756 3.98561 21.6473 3.8429 21.9798C3.6937 22.3189 4.26131 23.0591 3.33043 22.9743C2.7693 22.9221 1.90328 23.3884 1.93896 22.1983C1.9422 22.1135 1.69894 22.0255 1.5692 21.9375C2.13033 20.8354 2.9931 20.5159 4.13806 20.9234Z" fill="#EB786F"/>
<path d="M4.13806 20.9234C3.2169 21.0897 2.2925 21.2462 1.57244 21.9342C1.3973 21.8135 1.22215 21.6896 1.05024 21.569C1.78003 20.9528 2.52279 20.3952 3.51531 20.2355C3.96615 20.1637 4.45592 19.9485 4.51431 19.3421C4.74135 19.1921 4.85163 19.3388 4.95218 19.5149C4.97488 19.6453 4.95218 19.7692 4.88082 19.8833C4.75433 20.1116 4.62783 20.3431 4.50133 20.5713C4.38132 20.6919 4.26131 20.8093 4.13806 20.9234Z" fill="#D96259"/>
<path d="M8.69843 25.511C8.70816 25.6251 8.71789 25.736 8.72762 25.8501C8.92872 26.2576 9.00008 26.7043 8.55896 26.9423C7.97837 27.2554 7.46266 27.0304 7.08316 26.5022C7.1902 26.3848 7.29724 26.2707 7.40427 26.1533C7.83566 25.9348 8.26705 25.7229 8.69843 25.511Z" fill="#F7B7AB"/>
<path d="M5.99659 24.0144C6.3177 23.4764 6.74584 23.4732 7.2129 23.7536C7.24858 23.7764 7.19669 24.0763 7.10587 24.1481C6.7134 24.4676 6.33067 24.4611 5.99659 24.0144Z" fill="#F4A095"/>
<path d="M2.5455 24.5393C2.67199 24.9078 3.06446 25.2404 2.66551 25.7327C2.04275 25.5729 2.22763 24.8784 1.90653 24.5393C2.1206 24.3568 2.33143 24.3437 2.5455 24.5393Z" fill="#F4AD9E"/>
<path d="M3.46341 28.315C2.83417 28.3705 2.62983 28.0835 2.42873 27.7216C2.9704 27.4836 3.22339 27.7444 3.46341 28.315Z" fill="#F49F92"/>
<path d="M4.18996 27.1706C4.18023 27.2717 4.17374 27.376 4.16725 27.4771C3.68073 27.2717 3.54125 26.9521 3.88507 26.512C3.96291 26.4141 4.20293 26.3 4.24834 26.3391C4.59539 26.6261 4.22239 26.8902 4.18996 27.1706Z" fill="#F39A8E"/>
<path d="M4.50782 20.6658C4.90677 20.5615 5.25707 20.6365 5.5425 20.9495C5.02354 21.4908 4.64729 21.5168 4.50782 20.6658Z" fill="#FBDFD6"/>
<path d="M6.14903 24.8817C5.81495 25.4947 5.48736 25.599 5.16625 24.8719C5.49385 24.748 5.82468 24.3796 6.14903 24.8817Z" fill="#F3A99B"/>
<path d="M2.5455 24.5393C2.33143 24.5393 2.1206 24.5393 1.90653 24.5426C1.90328 24.1057 2.10438 23.7927 2.5455 23.9231C2.94445 24.0437 2.58118 24.3274 2.5455 24.5393Z" fill="#FBDFD5"/>
<path d="M10.9819 12.1559C11.4197 11.3995 11.8576 10.643 12.2922 9.88657C13.0447 9.71703 12.4122 8.62801 13.2102 8.49107C13.9205 9.08775 13.4015 9.91592 13.6059 10.6071C13.7972 11.1843 13.4664 11.5886 13.1615 12.0059C12.6879 12.5863 12.5063 13.2579 12.529 14.0013C12.4544 14.3274 12.2922 14.5654 11.9225 14.585C11.0435 14.2915 11.3776 13.3851 11.037 12.8178C10.9365 12.6058 10.8521 12.3874 10.9819 12.1559Z" fill="#D45B55"/>
<path d="M10.9819 12.1559C11.1019 12.2765 11.2219 12.3939 11.3419 12.5146C10.784 14.2524 9.2628 13.9361 7.97189 14.1187C7.50482 13.9524 7.0637 13.7666 7.42049 13.1341C7.42049 13.0297 7.42373 12.9254 7.42373 12.821C7.52752 12.7102 7.63456 12.5993 7.73835 12.4917C8.3384 12.0939 9.10387 12.7004 9.68121 12.1624C10.1094 11.3832 10.5472 12.1983 10.9819 12.1559Z" fill="#E26D64"/>
<path d="M13.2231 8.59215C12.7236 8.88559 13.1777 9.87679 12.289 9.88657C12.2533 9.63225 12.8339 9.41054 12.1982 9.08449C11.5949 8.77474 10.891 8.41608 10.6705 7.63029C11.7668 6.87385 12.396 7.94983 13.2166 8.28566C13.3107 8.35087 13.3399 8.41934 13.3107 8.48781C13.2848 8.55628 13.2556 8.59215 13.2231 8.59215Z" fill="#E76E65"/>
<path d="M4.51431 12.1429C4.57918 11.181 4.77703 10.2974 5.79549 9.88005C5.70792 10.8289 5.54899 11.7385 4.51431 12.1429Z" fill="#F39D90"/>
<path d="M9.67797 12.1592C9.19469 13.2449 8.40976 12.5243 7.73511 12.4885C8.23137 11.4549 9.03576 12.2994 9.67797 12.1592Z" fill="#F4A69A"/>
<path d="M8.33516 10.6593C7.61186 10.9495 7.1383 10.8941 6.80098 10.0659C7.45617 10.0366 7.93945 10.0757 8.33516 10.6593Z" fill="#F4A596"/>
<path d="M6.91775 11.6375C6.84315 11.6733 6.7134 11.7875 6.59015 11.7842C6.35662 11.7809 6.19444 11.6212 6.30148 11.3832C6.34364 11.2919 6.56745 11.2397 6.70043 11.2527C6.84639 11.2658 7.00532 11.3571 6.91775 11.6375Z" fill="#F5B7A9"/>
<path d="M9.84988 9.47249C10.051 9.21165 10.2618 9.21491 10.4467 9.3062C10.5699 9.36489 10.7386 9.51487 10.7354 9.61921C10.7289 9.90614 10.4791 9.8931 10.3007 9.81484C10.1321 9.74311 9.99908 9.58987 9.84988 9.47249Z" fill="#F5AA9E"/>
<path d="M8.70168 7.0108C9.02927 6.99449 9.35686 6.98145 9.68121 6.96515C9.64554 7.22273 9.60986 7.48357 9.29199 7.539C8.88655 7.60747 8.76979 7.33359 8.70168 7.0108Z" fill="#E77C71"/>
<path d="M40.2318 14.7774C40.2059 15.0806 40.1832 15.3838 40.1572 15.6903C39.8653 15.9348 39.6058 15.7392 39.3366 15.6414C38.5257 15.0121 37.6208 15.1393 36.7126 15.3284C36.0542 15.1588 35.4314 15.3871 34.7957 15.5077C34.04 15.0349 33.7448 14.3339 33.7837 13.4634C33.9686 12.9352 34.3384 12.6971 34.893 12.7558C35.2336 12.8895 35.1136 13.3395 35.4087 13.5188C35.7201 13.2221 35.7298 12.7395 36.0542 12.4656C36.0607 12.332 36.4596 12.3743 36.2001 12.1298C35.8012 12.4363 35.5936 13.1308 34.893 12.7526C33.8259 11.8657 34.6887 10.9854 34.8995 10.0985C35.5417 9.38119 36.3753 9.21817 37.2802 9.25729C37.3873 9.25729 37.4911 9.25403 37.5981 9.24751C38.1625 9.15948 38.3895 8.83995 38.2663 8.27588C38.2598 8.17154 38.2598 8.07047 38.2598 7.96613C38.7463 7.66616 38.9117 7.82267 38.8987 8.37043C38.8858 8.89212 38.7301 9.45619 39.1907 9.88983C39.3009 9.95831 39.3334 10.0529 39.2944 10.1735C39.7226 11.6831 40.5951 13.1014 40.2318 14.7774Z" fill="#FBD5C9"/>
<path d="M37.2737 9.25403C36.5115 9.58008 35.7493 9.90288 34.9871 10.2289C34.8087 10.3854 34.6011 10.4343 34.3708 10.405C33.4042 9.94526 32.1587 10.4963 31.3187 9.56378C31.2084 9.46271 31.1305 9.33881 31.0786 9.20186C31.2992 8.51716 31.3284 7.53248 32.4636 8.39978C32.7782 8.64106 33.0442 8.35087 33.3134 8.18132C33.4853 8.07373 33.6994 8.04112 33.894 7.97265C34.4584 9.89635 36.3623 8.25305 37.2737 9.25403Z" fill="#EA7A70"/>
<path d="M31.0786 9.1986C31.1922 9.20839 31.3024 9.21817 31.416 9.22795C31.5619 9.50835 31.4614 9.79528 31.4452 10.0822C31.6041 11.3505 32.3079 12.5863 31.6787 13.9003C30.5856 13.9916 30.5824 13.121 30.3813 12.4265C30.3716 11.944 30.164 11.5331 29.9175 11.1321C29.6612 10.3039 29.5542 9.43336 29.2298 8.62475C29.1617 8.38021 29.139 8.13568 29.1617 7.88462C29.2525 7.56182 29.3012 7.19339 29.7845 7.2749C29.9434 8.09981 30.297 8.7943 31.0786 9.1986Z" fill="#DF6A5D"/>
<path d="M29.7812 7.2749C29.5185 7.42814 29.4731 7.68246 29.4536 7.95309C28.1433 8.07046 28.7401 7.17382 28.7336 6.59671C28.9379 5.87287 29.2947 5.31859 30.151 5.32511C30.7575 5.02188 31.3154 4.58171 32.0549 4.65996C32.1717 4.54584 32.2917 4.53606 32.4247 4.63388C32.535 5.09361 32.1717 5.24686 31.896 5.45553C31.6171 5.62508 31.2992 5.73267 31.0754 5.98699C30.8451 6.29348 30.9132 6.79886 30.4429 6.94232C30.1672 6.94559 29.9207 7.00101 29.7812 7.2749Z" fill="#DF6A60"/>
<path d="M31.7209 5.27294C31.9414 5.07079 32.162 4.86538 32.3825 4.66322C32.5544 4.48389 32.7685 4.44151 33.0053 4.46433C33.3848 4.5328 33.7286 4.67626 33.9946 4.97297C34.1178 5.06101 34.7081 4.9958 34.1405 5.31533C33.4594 5.69681 32.7263 5.99025 32.0193 6.32283C31.8863 6.38478 31.7695 6.36195 31.6722 6.2511C31.5944 5.91852 31.7663 5.60225 31.7209 5.27294Z" fill="#E77F75"/>
<path d="M30.4429 6.94232C30.8808 6.59019 30.1867 5.95439 30.7673 5.63812C31.0689 5.79462 31.3997 5.91526 31.5165 6.29022C31.6106 6.61301 31.7273 6.92928 31.7371 7.27164C31.1435 7.81941 30.8192 7.2749 30.4429 6.94232Z" fill="#E77F75"/>
<path d="M38.263 8.27262C38.649 8.60193 38.6652 9.00949 38.3668 9.35837C38.1235 9.64203 37.8154 9.53118 37.5916 9.24425C37.8154 8.92146 38.0392 8.59541 38.263 8.27262Z" fill="#FDEAE3"/>
<path d="M33.0637 4.673C32.8366 4.66974 32.6096 4.66322 32.3825 4.65996C32.2722 4.65996 32.1652 4.65996 32.0549 4.6567C32.0647 4.56541 32.0712 4.47411 32.0809 4.38282L32.0614 4.35021C32.4604 4.13176 32.7847 3.6655 33.3361 3.96873C33.5567 4.07307 33.7772 4.17741 33.9978 4.28174C33.7805 4.6404 33.4723 4.77408 33.0637 4.673Z" fill="#D67265"/>
<path d="M31.7403 7.27164C31.1986 7.07275 31.1759 6.73365 31.4841 6.30652C31.5619 6.19567 31.6398 6.19893 31.7144 6.31305C31.8149 6.32609 31.9187 6.32935 32.0193 6.31957C32.3696 6.76952 32.1976 7.06296 31.7403 7.27164Z" fill="#FAD0C5"/>
<path d="M36.5991 5.27946C37.011 5.34793 37.8284 5.05123 37.251 6.00982C36.9299 5.85983 36.3364 5.95439 36.5991 5.27946Z" fill="#F8CFC6"/>
<path d="M33.0637 4.673C33.375 4.54258 33.6864 4.41216 33.9978 4.28174C35.0325 4.5165 33.9816 4.74148 33.9946 4.96971C33.6572 4.95667 33.2745 5.08383 33.0637 4.673Z" fill="#F4BCB3"/>
<path d="M33.3361 3.97199C32.9112 4.09915 32.4863 4.22631 32.0614 4.35347C32.149 4.00786 32.3987 3.81223 32.7036 3.66877C33.0247 3.62964 33.3426 3.15034 33.6637 3.6655C33.5534 3.76658 33.4464 3.87092 33.3361 3.97199Z" fill="#F7BEB0"/>
<path d="M4.86785 19.7366C4.75108 19.6062 4.63107 19.4758 4.51431 19.3453C4.74784 18.2596 3.8948 16.9652 5.14355 16.0783C5.15328 16.3 5.16301 16.525 5.17274 16.7467C5.71765 17.8096 5.99659 18.8432 4.86785 19.7366Z" fill="#E06B63"/>
<path d="M3.20717 15.7555C3.52828 15.5501 3.84939 15.5371 4.16725 15.7555C3.77803 16.4793 3.38881 17.2032 2.82444 18.2498C2.65253 17.1119 3.50558 16.5185 3.20717 15.7555Z" fill="#F4AB9F"/>
<path d="M1.9195 15.7229C1.57893 15.1849 1.92274 14.7937 2.20817 14.3926C3.21366 14.5035 3.21366 14.5035 2.58118 15.7588L2.56496 15.7653C2.33791 15.9381 2.12384 15.9381 1.9195 15.7229Z" fill="#FDF5EE"/>
<path d="M2.58118 15.7588C2.4417 15.3088 3.34016 14.5719 2.20817 14.3926C2.20817 14.2981 2.21466 14.2035 2.22439 14.1089C3.60288 13.7535 3.04824 14.8523 3.19744 15.4197C2.9931 15.5305 2.78876 15.6446 2.58118 15.7588Z" fill="#F4AB9F"/>
<path d="M1.23512 19.6518C1.11511 19.8996 1.0178 20.1246 0.768055 20.0333C0.693454 20.0072 0.654532 19.7431 0.683723 19.6062C0.729132 19.404 0.858873 19.1823 1.11187 19.2801C1.1962 19.3127 1.20268 19.5507 1.23512 19.6518Z" fill="#F7B4A8"/>
<path d="M1.9195 15.7229C2.13357 15.7359 2.34764 15.749 2.56171 15.7653C2.52604 16.0653 2.50009 16.4859 2.14655 16.4565C1.73462 16.4207 1.97788 15.9805 1.9195 15.7229Z" fill="#F5B3A7"/>
<path d="M18.8668 3.69485C19.0225 3.69485 19.1782 3.69485 19.3339 3.69485L19.4863 3.66877C20.2194 4.2687 21.0043 4.80669 21.6141 5.55334C21.9903 6.0522 22.3017 6.58041 22.2855 7.23903C22.2628 7.55856 22.1752 7.86505 22.0422 8.15524C21.6011 9.11057 21.1016 9.25403 20.4821 8.24653C20.9751 8.98993 21.3124 9.74311 20.9265 10.6235C20.8681 10.78 20.7643 10.8973 20.6313 10.9919C20.1934 11.1419 19.8269 10.9397 19.4571 10.7506C18.1565 9.93222 16.6677 10.5452 15.3022 10.1996C14.5205 9.77572 13.8232 9.29316 13.9043 8.24653C13.8005 7.94982 13.6999 7.64986 13.5961 7.35315C14.5076 7.02384 15.2536 6.46303 15.8828 5.73267C16.0093 5.27946 16.3369 5.10991 16.7748 5.09687C17.3943 5.23055 17.6602 5.71311 17.8938 6.23153C17.9586 6.60649 17.6927 6.77604 17.4462 6.95537C17.1413 7.09883 16.6969 6.98145 16.5347 7.47705C16.9078 7.32055 17.1672 7.03036 17.5208 6.91298C18.2798 7.27816 18.1273 6.56737 18.3025 6.24131C18.6592 5.62834 19.3404 5.83701 19.8918 5.6479C19.4863 5.12622 18.7047 5.0447 18.5425 4.32413C18.5133 4.07959 18.5879 3.86766 18.7306 3.67203L18.8668 3.69485Z" fill="#FAD0C4"/>
<path d="M16.8559 5.34141C16.4699 5.31533 16.1585 5.47509 15.8828 5.72941C15.8601 5.20447 15.1822 4.38282 16.6256 4.66648C17.2418 4.78712 18.0268 4.03068 18.7338 3.67203C18.7468 3.89374 18.7598 4.11872 18.7728 4.34043C18.416 5.22403 17.5792 5.17186 16.8559 5.34141Z" fill="#E98072"/>
<path d="M14.0372 4.748C13.3853 4.49368 12.7398 5.1197 12.0847 4.81973C12.7204 3.71767 13.3885 4.05025 14.0372 4.748Z" fill="#F4A798"/>
<path d="M17.764 28.8628C16.5996 29.1791 15.6039 29.7529 14.8935 30.7637C14.5043 30.5289 14.0827 30.3105 14.2578 29.7236C15.0492 28.8595 16.6904 28.703 16.4829 27.0239C16.5283 26.8934 16.5769 26.75 16.3207 26.8641C15.7304 27.1119 15.1011 27.1119 14.5043 27.2586C14.0567 27.4314 13.6253 27.6955 13.1096 27.5455C12.8923 27.5227 12.6815 27.4803 12.4706 27.4184C12.049 27.2521 11.6208 27.0891 11.4878 26.5804C11.4878 26.3294 11.6014 26.1533 11.8349 26.0587C12.8177 26.2087 13.528 26.0196 13.4112 24.7904C13.7518 23.6981 15.0103 23.6231 15.5974 22.8015C15.7401 22.6515 15.8796 22.4983 15.9898 22.3189C15.8374 20.5191 16.1326 18.8139 17.0699 17.2488C18.2052 16.2935 19.3534 15.3675 20.8454 15.0219C21.5395 14.9893 22.2368 14.9339 22.9212 15.1132C23.4759 15.3316 23.7678 15.7229 23.7224 16.3359C23.518 16.6521 23.1937 16.7076 22.8563 16.7304C22.1817 16.4304 21.6725 17.239 20.881 16.9684C20.4399 16.8184 20.5729 17.8977 20.2032 18.302C20.0929 18.4128 19.9599 18.4715 19.8042 18.4683C19.3144 18.1422 18.8214 17.8911 18.3381 18.4683C18.2116 18.6019 18.1176 18.7421 18.2765 18.9247C18.4225 19.0519 18.5522 19.1888 18.6657 19.3421C18.8863 19.691 19.1977 19.9388 19.5382 20.1637C19.8204 20.392 20.0767 20.6365 20.1707 20.9984C20.3491 21.0343 19.7393 21.5071 20.3394 21.3114C20.7059 21.1908 21.04 21.1158 21.2022 21.5984C21.2443 21.9929 21.0919 22.332 20.9232 22.6711C20.4562 23.6753 19.5058 23.2417 18.7533 23.4047C18.4484 23.359 18.1824 23.2058 18.1727 23.1993C18.1241 23.183 18.296 23.3525 18.4906 23.4797C18.5879 24.1122 18.9739 24.6828 18.896 25.3545C18.3511 25.7751 18.1338 26.3065 18.1597 27.0173C18.1792 27.6434 18.2149 28.3183 17.764 28.8628Z" fill="#EA7C73"/>
<path d="M10.3883 29.1302C10.9689 28.4617 10.2326 28.0574 10.0315 27.5814C9.74933 26.9097 9.62283 26.2544 9.73635 25.5403C9.79149 25.4066 9.86934 25.3871 9.96989 25.4979C10.0023 25.7718 10.0575 26.0327 10.3332 26.1761C10.4532 26.062 10.5862 26.049 10.7289 26.1337C10.8846 26.3065 10.9721 26.512 11.0305 26.7337C11.1213 27.3206 11.3484 27.8716 11.5106 28.4389C11.7311 29.4888 12.5096 29.8475 13.4437 30.0072C14.0794 30.1148 14.6892 30.2485 14.8287 31.031C14.8579 31.3049 14.8351 31.5625 14.6146 31.7679C13.1615 33.121 13.0966 33.2254 12.9636 34.3894C12.8631 34.2296 12.9604 33.7144 12.5679 34.0633C12.0684 34.51 11.7084 34.1383 11.2932 33.9883C10.8975 33.5482 10.3137 33.3656 9.90177 32.9547C9.46714 32.5211 9.65851 32.2766 10.2196 32.0972C9.19793 32.0777 9.6877 32.9841 9.35038 33.3493C9.12333 33.4503 8.89629 33.5514 8.67248 33.6525C8.67897 33.2221 8.68546 32.7917 8.69194 32.3646C8.50382 31.9701 8.70168 31.631 8.83466 31.2821C9.18496 30.4409 9.72014 29.7366 10.3883 29.1302Z" fill="#ED8277"/>
<path d="M17.764 28.8628C17.7738 27.927 17.8776 26.9782 17.7705 26.0555C17.6635 25.1262 18.6009 25.661 18.7695 25.198C19.3047 25.0447 19.4799 25.3903 19.6096 25.8044C19.6355 26.212 19.4734 26.5576 19.269 26.8869C19.0128 27.2586 18.8279 27.6108 19.4993 27.7281C20.1221 27.8357 20.7448 27.9303 21.3805 27.8651C22.5417 28.0477 23.7321 27.5455 24.8835 28.0053C25.0749 28.5009 24.6435 29.3388 25.902 29.1628C26.6967 29.0519 26.288 30.3659 26.794 30.8517C27.4751 32.2081 26.155 31.8266 25.662 32.169C25.5355 32.2179 25.4025 32.2407 25.2663 32.2472C24.6403 32.182 24.1537 32.6939 23.5342 32.6711C23.2326 32.6972 22.9439 32.6646 22.6909 32.482C22.425 31.9538 22.4347 31.3375 22.1687 30.8093C21.9741 30.2518 22.9115 29.9257 22.4639 29.3225C22.2141 29.241 21.9611 29.2182 21.7049 29.2182C21.2346 29.2214 20.774 29.2899 20.3134 29.3714C20.1059 29.3779 19.908 29.3356 19.7328 29.2214C19.3047 28.4846 19.4215 29.7236 19.1068 29.4008C18.7501 29.5573 18.39 29.6779 17.9943 29.5931C17.7543 29.479 17.5986 29.329 17.7543 29.0421C17.7413 28.9834 17.7446 28.9215 17.764 28.8628Z" fill="#EC776F"/>
<path d="M17.7543 29.0454C17.8808 29.1791 18.0041 29.3127 18.1306 29.4464C18.6787 30.0333 17.8224 30.5713 18.0819 31.1386C18.2635 31.1712 18.4387 31.2038 18.6073 31.2788C19.0874 31.5821 19.4409 31.9016 18.7695 32.3711C18.1727 32.5602 17.6311 32.4591 17.151 32.0483C17.0213 31.9244 16.8883 31.8005 16.7585 31.6799C16.9629 30.7539 17.1672 29.8246 17.7543 29.0454Z" fill="#EA7C73"/>
<path d="M14.8319 31.0343C14.4492 30.5257 13.9075 30.4898 13.3204 30.3789C12.3149 30.1866 11.144 29.9877 11.3062 28.4715C12.276 28.7356 13.0707 29.4366 14.0794 29.6094C14.1281 29.6649 14.1735 29.7203 14.2221 29.7757C14.4492 30.1018 14.9325 30.255 14.8935 30.7669C14.8773 30.855 14.8579 30.9463 14.8319 31.0343Z" fill="#DA6760"/>
<path d="M29.4601 32.2994C29.3661 32.3418 29.2688 32.3809 29.1715 32.4135C29.272 31.7223 28.8114 31.2593 28.4968 30.7343C29.0839 30.3039 29.9369 30.8354 30.4559 30.1735C30.9684 29.7562 31.1922 29.0975 31.7046 28.6802C31.8473 28.6215 31.9933 28.6052 32.1425 28.6248C33.2323 30.1898 33.3491 30.1866 34.8054 29.2704C35.5968 28.7715 35.7136 28.302 35.0844 27.6108C34.6692 27.151 34.3546 26.6424 34.8573 26.0392C35.1006 25.7457 35.3893 25.4099 35.7882 25.5175C36.6121 25.7392 36.3818 26.525 36.5375 27.3173C36.9656 26.5446 37.8705 26.5152 38.13 25.7229C38.289 25.7001 38.4252 25.7425 38.542 25.8533C39.0966 26.3783 39.3171 27.0239 39.2198 27.777C38.2403 30.6626 34.3513 32.7395 31.3414 32.1298C30.8029 32.0222 29.9629 31.0734 29.4601 32.2994Z" fill="#FBD7CB"/>
<path d="M43.738 22.9189C43.738 23.0265 43.738 23.1308 43.7316 23.2384C43.2742 24.585 42.2979 24.1187 41.3962 23.9198C41.2211 24.0861 41.0362 24.0829 40.8513 23.9394C40.8384 22.6385 39.0155 23.1308 38.8923 21.9407C38.7495 21.0212 39.4501 20.6235 39.995 20.1344C40.6016 20.0072 41.2276 19.9583 41.7887 19.6583C42.3985 19.6844 42.246 20.0235 42.0871 20.3789C41.9055 20.7865 41.5844 21.2006 42.1001 21.6016C42.3206 21.8038 42.2947 22.019 42.139 22.2439C41.9638 22.4004 41.5617 22.8113 41.8568 22.7558C42.5412 22.6254 43.0958 23.3101 43.738 22.9189Z" fill="#ED887F"/>
<path d="M40.154 20.2909C39.7323 20.8419 39.3107 21.3929 38.889 21.9407C38.5192 22.1526 38.2533 22.4461 38.1625 22.8765C38.1138 23.5188 37.8122 24.0014 37.2543 24.3241C36.917 24.3698 36.6737 24.21 36.4596 23.972C36.2358 23.659 36.0834 23.3166 36.0769 22.9221C36.0931 22.7754 36.145 22.6385 36.2261 22.5146C36.7872 22.1135 37.53 22.0059 37.9841 21.4288C38.4219 20.8713 38.8209 20.2778 39.3626 19.8051C39.5345 19.6518 39.7226 19.5344 39.9496 19.4823C40.2091 19.4888 40.4816 19.4986 40.5172 19.8409C40.5432 20.0953 40.3162 20.1768 40.154 20.2909Z" fill="#FCE4DA"/>
<path d="M37.2413 24.2133C37.5494 23.7666 37.8543 23.3232 38.1625 22.8765C38.2792 23.046 38.5225 23.3329 38.4933 23.3656C37.6986 24.2231 38.3571 25.0349 38.5452 25.8566C38.4479 25.8435 38.3506 25.8338 38.2533 25.8338C37.5786 25.5077 36.8099 25.2404 37.2413 24.2133Z" fill="#E07268"/>
<path d="M41.8211 25.1588C41.2989 25.5208 41.4935 26.4337 40.6048 26.6261C40.7897 26.0196 40.9584 25.4621 41.1303 24.9013C41.4935 24.6209 41.7498 24.6372 41.8211 25.1588Z" fill="#F29C90"/>
<path d="M41.8211 25.1588C41.6525 24.898 41.3865 24.9143 41.127 24.9045C41.033 24.585 40.9389 24.2622 40.8448 23.9427C41.0265 23.9361 41.2081 23.9296 41.3898 23.9231C41.4838 24.3013 41.8114 24.4611 42.0709 24.6991C42.4763 25.0675 42.2104 25.1686 41.8211 25.1588Z" fill="#F8CDC7"/>
<path d="M42.7228 16.9652C42.5412 17.0043 42.3596 17.0434 42.1747 17.0825C40.8027 16.9163 40.4686 15.9903 40.5172 14.7871C40.6178 14.7774 40.7151 14.7741 40.8156 14.7774C40.913 15.9805 42.4147 15.9479 42.7228 16.9652Z" fill="#E0685E"/>
<path d="M39.288 10.1702C39.2231 10.0855 39.1874 9.99091 39.1842 9.88657C39.6837 9.27034 40.0567 8.46173 41.0719 8.63127C41.153 9.32903 40.2902 9.31924 40.1605 9.86049C39.8718 9.96483 39.5799 10.0692 39.288 10.1702Z" fill="#D9685F"/>
<path d="M44.364 14.748C43.5369 15.2795 43.8516 14.1611 43.4364 14.0992C43.4559 13.8122 43.3002 13.4047 43.7056 13.3264C44.0624 13.2579 44.0105 13.6394 44.0754 13.8742C44.1597 14.1644 44.2667 14.4546 44.364 14.748Z" fill="#F6B5A9"/>
<path d="M22.0552 7.22273C21.8152 6.70105 21.5784 6.17936 21.3384 5.66094C21.5362 5.00558 20.9005 4.34043 21.3546 3.68833C21.6238 3.36554 22.0325 3.15686 22.0974 3.71767C22.1947 4.55889 22.785 4.51976 23.3137 4.66648V4.66322C23.278 5.01536 22.3277 5.05775 22.9893 5.64464C23.917 6.57389 22.6974 6.7793 22.4314 7.3075C22.2822 7.37271 22.159 7.34663 22.0552 7.22273Z" fill="#ED8A80"/>
<path d="M21.3514 3.68507C21.1697 4.34043 22.5255 5.00884 21.3351 5.65768C20.8 4.91754 19.6712 4.73495 19.4863 3.66877C20.0377 3.73071 20.5599 3.65572 21.0367 3.35902C21.1438 3.46987 21.2476 3.57747 21.3514 3.68507Z" fill="#E77C72"/>
<path d="M22.3471 7.23577C22.0941 6.51846 23.4596 6.44999 22.9828 5.64138C23.3039 5.64138 23.6251 5.64464 23.9429 5.64464C24.6176 5.83049 24.8868 6.2837 24.8154 6.96515C24.384 7.79984 23.4921 7.74115 22.772 8.01178C22.4087 7.87483 22.3504 7.57161 22.3471 7.23577Z" fill="#E5776E"/>
<path d="M24.2802 4.99254C24.7149 4.33717 25.1495 3.68181 25.5809 3.02644C26.142 2.84711 26.4015 3.2449 26.6772 3.60682C26.7388 3.75028 26.7745 3.90026 26.7842 4.05351C26.781 4.21001 26.755 4.36326 26.7096 4.51324C26.275 5.87614 25.3279 5.40988 24.4359 5.16208C24.3873 5.10665 24.3321 5.04796 24.2802 4.99254Z" fill="#F09085"/>
<path d="M24.6046 6.94885C24.6468 6.37826 24.144 6.08807 23.9429 5.64464C23.9591 5.37728 24.0175 5.13274 24.2802 4.99254L24.277 4.98927C25.0781 5.29576 25.6814 5.70985 25.1884 6.71083C25.0425 6.90646 24.8771 7.05644 24.6046 6.94885Z" fill="#EF9C8F"/>
<path d="M26.5085 3.66877C26.2004 3.45357 25.889 3.23838 25.5809 3.02644L25.5841 3.0297C25.3182 2.73952 24.7343 2.66779 24.9192 2.06133C25.0392 1.95047 25.1592 1.83961 25.2825 1.72876C25.4284 2.19827 25.7885 2.47542 26.1777 2.72321C26.6675 2.90254 26.8686 3.18947 26.5085 3.66877Z" fill="#E16D63"/>
<path d="M23.3104 4.65996C23.3429 4.27196 23.4272 3.90678 23.8781 3.81549C24.0629 3.77636 24.1927 3.90678 24.1537 4.09589C24.0597 4.54584 23.6964 4.63062 23.3104 4.65996Z" fill="#F0998C"/>
<path d="M24.9192 2.06133C25.1398 2.38412 25.3603 2.70691 25.5841 3.0297C25.0814 3.02644 24.6889 2.78843 24.517 2.33521C24.4262 2.10046 24.7278 2.07763 24.9192 2.06133Z" fill="#F09085"/>
<path d="M39.5215 19.9811C39.1971 20.6039 38.7333 21.1093 38.1917 21.5462C37.3321 21.5658 36.784 21.4255 37.6759 20.5419C37.8705 20.3496 38.0068 20.1246 38.0814 19.8638C38.1852 19.3323 37.9354 18.7226 38.409 18.2694C38.6068 18.0868 38.8468 17.9596 39.0447 17.7803C39.4501 17.213 38.7852 16.8119 38.8079 16.3065C38.7949 15.7946 38.5582 15.0969 39.541 15.4099C39.7453 15.5044 39.9496 15.5957 40.1507 15.6903C40.3972 16.5511 40.5854 17.4216 40.4848 18.3248C40.5075 18.6248 40.4264 18.8856 40.1832 19.0812C39.4469 18.9932 39.622 19.5899 39.5215 19.9811Z" fill="#E5736A"/>
<path d="M40.1475 18.9867C40.261 18.765 40.3745 18.5465 40.4881 18.3248C40.5854 18.3346 40.6827 18.3346 40.7767 18.3281C41.0265 18.5302 41.1141 18.8986 41.4611 18.9997C41.4838 19.2606 41.526 19.5116 41.7822 19.6616C41.4611 20.4572 40.8773 20.5615 40.1507 20.2941C40.3324 19.9355 40.4264 19.6225 39.8361 19.6388C39.6999 19.303 39.9107 19.1399 40.1475 18.9867Z" fill="#F4A79B"/>
<path d="M41.4644 18.9997C40.6664 19.3649 40.8384 18.7291 40.78 18.3281C41.1303 18.0216 41.5454 17.4542 41.9703 17.8716C42.5217 18.4193 41.6265 18.6085 41.4644 18.9997Z" fill="#FCE6DD"/>
<path d="M44.0689 21.6179C44.0592 21.7125 44.0494 21.8038 44.0397 21.8983C43.5532 21.0702 43.7186 20.1409 43.4105 18.8954C44.3478 19.9355 43.9781 20.8191 44.0689 21.6179Z" fill="#F39A92"/>
<path d="M42.4244 21.2886C42.4374 20.881 42.3531 20.4311 42.8591 20.2029C43.3488 20.6235 42.8331 20.9202 42.7326 21.2658C42.6385 21.3832 42.538 21.3962 42.4244 21.2886Z" fill="#F4BDB3"/>
<path d="M42.4244 21.2886C42.5282 21.2853 42.632 21.2788 42.7326 21.2625C42.778 21.7386 42.5639 22.0581 42.1325 22.2439C42.1195 22.0287 42.1066 21.8168 42.0936 21.6016C42.2071 21.4973 42.3141 21.3929 42.4244 21.2886Z" fill="#EF9F94"/>
<path d="M30.151 5.32511C29.7715 5.71637 29.1747 5.92504 29.1131 6.58367C28.9671 6.8869 28.7757 7.12491 28.3898 7.06296C27.8449 6.89016 27.3129 6.69453 26.9821 6.17284C26.755 5.60877 26.7486 5.04144 26.9821 4.47737C27.4232 3.73724 27.9908 4.53606 28.4773 4.35347C28.5941 4.33065 28.7109 4.31109 28.8244 4.28826C29.2493 4.66322 29.9175 4.71539 30.151 5.32511Z" fill="#FBD6CB"/>
<path d="M28.4806 4.35673C28.033 4.91102 27.5659 4.17741 27.1118 4.38282C26.7777 4.45455 26.6934 4.18067 26.5604 3.97525C26.5702 3.87092 26.5507 3.76984 26.5085 3.67203C26.5929 3.28728 26.4177 2.99384 26.1777 2.72321C26.5831 2.04829 26.8815 2.61236 27.1248 2.85037C27.6081 3.31989 28.033 3.84809 28.4806 4.35673Z" fill="#FCEAE4"/>
<path d="M26.2588 1.2625C26.9075 1.10926 27.42 0.985359 27.9357 0.874501C28.1725 0.825593 28.513 0.623441 28.5714 1.03101C28.6103 1.31793 28.5098 1.88852 28.2211 1.80701C27.6178 1.63746 26.8329 2.04177 26.2588 1.2625Z" fill="#F4A89E"/>
<path d="M29.4763 0.74082C29.9012 0.858198 30.3229 0.978837 30.7478 1.09622C30.6473 1.30489 30.5435 1.51682 30.4429 1.7255C30.1121 1.4027 29.2752 1.58855 29.4763 0.74082Z" fill="#F4A89E"/>
<path d="M18.7663 32.3711C19.1296 31.8853 18.643 31.6897 18.4387 31.3962C18.2214 30.7637 18.0073 31.3799 17.79 31.3962C17.177 30.6202 18.2603 30.1377 18.1273 29.4432C18.4452 29.3323 18.7663 29.2247 19.0841 29.1138C19.3112 30.2648 19.5188 29.0128 19.7361 29.1073C19.9502 29.1073 20.1675 29.1106 20.3815 29.1106C20.547 29.2247 20.7546 29.2867 20.8551 29.4823C21.1178 30.1213 21.8054 29.4008 22.1168 29.8768C22.2952 30.1116 22.1882 30.4148 22.3017 30.6659C22.8596 31.1517 23.1515 31.6897 22.6617 32.3939C22.9764 32.6939 23.2877 32.7069 23.5959 32.3874C24.1602 32.3255 24.6176 31.7483 25.2533 32.0451C25.4479 32.407 25.1333 32.508 24.9354 32.6678C23.8683 33.3199 24.9322 33.9851 24.9225 34.6437C23.5764 34.5296 22.4314 35.6577 21.0432 35.286C21.3968 34.5296 21.5914 33.8449 20.4886 33.5188C20.1675 33.4243 20.0767 33.0493 20.054 32.7135C20.0085 32.4233 19.8756 32.5472 19.7491 32.6483C19.3079 32.971 19.1782 32.182 18.7663 32.3711Z" fill="#EF887E"/>
<path d="M17.1478 32.0483C17.6862 32.1559 18.2279 32.2635 18.7663 32.3711C18.5684 32.6678 18.0754 32.8634 18.4419 33.3493C17.7446 33.3786 17.7154 32.5146 17.1478 32.3678C17.1478 32.2603 17.1478 32.1559 17.1478 32.0483Z" fill="#EF887E"/>
<path d="M18.4419 33.3493C18.7306 33.5514 19.1814 33.5612 19.269 34.0568C18.5198 34.3568 18.549 33.7731 18.4419 33.3493Z" fill="#EF887E"/>
<path d="M19.7523 32.6548C19.801 32.3059 19.908 31.9961 20.3459 32.0972C20.4497 32.12 20.5145 32.3157 20.5989 32.4331C20.4205 32.5276 20.2388 32.6222 20.0604 32.7167C19.9599 32.6939 19.8561 32.6711 19.7523 32.6548Z" fill="#F7BCAF"/>
<path d="M4.86785 19.7366C5.41276 18.7845 4.94245 17.7314 5.17274 16.7467C5.47114 15.8207 6.24958 15.2143 6.71989 14.4024C6.65178 14.2524 6.67448 14.1187 6.80098 14.0079C7.18047 13.6557 7.69943 14.1742 8.07568 13.7992C9.24658 13.5775 10.5083 13.5938 11.3451 12.5146C11.8511 13.0623 11.264 13.9655 11.9614 14.4513C12.4512 14.6306 12.8307 14.9502 13.155 15.3479C13.2912 15.5338 13.3853 15.7327 13.3204 15.974C12.769 16.5609 12.1949 16.1207 11.6273 16.0163C10.7873 14.9176 9.87583 14.3633 8.72762 15.6381C8.2411 15.9348 7.94594 16.375 7.77728 16.913C7.66051 17.2651 7.46266 17.5488 7.11884 17.7086C6.8918 18.2335 6.53826 18.7421 6.4669 19.2866C6.29824 20.6104 5.75008 20.5941 4.88407 19.8801C4.88082 19.8866 4.86785 19.7366 4.86785 19.7366Z" fill="#FAD1C7"/>
<path d="M6.82044 14.1774C6.80747 14.2622 6.77179 14.3339 6.71989 14.4024C6.29175 14.2068 5.86361 14.0144 5.43546 13.8188C5.15003 13.8709 5.05273 13.7535 5.12733 13.4797C5.8409 12.7395 6.14903 14.0274 6.75557 13.8057C6.85288 13.8742 6.89504 13.9524 6.87882 14.0405C6.86909 14.1318 6.84639 14.1774 6.82044 14.1774Z" fill="#D7675E"/>
<path d="M5.12733 13.4797C5.23112 13.5938 5.33167 13.7079 5.43546 13.8188C4.79974 13.9296 4.08941 14.1644 4.18347 13.0591C4.49809 13.1993 4.81271 13.3395 5.12733 13.4797Z" fill="#FBDFD4"/>
<path d="M6.82044 14.1774C6.80098 14.0535 6.77828 13.9296 6.75557 13.8057C6.41825 13.0265 6.98586 13.1471 7.41725 13.1341C7.41725 13.571 7.66051 13.7699 8.07244 13.7992C7.73835 14.197 7.22912 14.0209 6.82044 14.1774Z" fill="#ED877E"/>
<path d="M31.0624 2.06133C31.1727 1.84614 31.283 1.63094 31.3933 1.41575C31.4711 1.68637 31.8733 1.91461 31.5587 2.22436C31.3868 2.3939 31.1922 2.2374 31.0624 2.06133Z" fill="#F9C6BB"/>
<path d="M25.5841 32.0157C25.6004 31.5103 25.8955 31.631 26.2361 31.6668C26.7226 31.719 26.9983 31.5527 26.5442 31.0636C26.2296 30.6039 26.4274 30.2583 26.8588 30.0985C27.4167 29.8931 27.287 30.5093 27.4881 30.7343C27.6211 31.0408 27.7508 31.3506 27.8838 31.6571C28.0751 32.2276 28.0816 32.7982 27.8773 33.3688L27.8838 33.3884C27.6632 33.0428 27.4459 32.7004 27.2254 32.3548C26.6675 32.3026 26.0415 32.5602 25.5841 32.0157Z" fill="#E76E66"/>
<path d="M25.5841 32.0157C26.1323 32.1298 26.755 31.882 27.2254 32.3613C26.5345 32.9776 25.7074 32.6026 24.9419 32.6743C25.049 32.4657 25.1527 32.257 25.2598 32.0516C25.3668 32.0385 25.4739 32.0288 25.5841 32.0157Z" fill="#F2A89D"/>
<path d="M13.9043 8.24327C14.3454 8.79756 14.7865 9.35511 15.2276 9.9094C15.2698 10.18 15.1173 10.3039 14.8838 10.3626C14.7411 10.3593 14.6211 10.3007 14.5335 10.1996C14.514 10.1898 14.4881 10.1637 14.4557 10.1507C14.5238 10.2094 14.5789 10.2811 14.6211 10.3757C14.3162 11.0473 13.6999 10.6724 13.2329 10.806C12.902 10.0692 13.4794 9.33229 13.2231 8.59541C13.2393 8.49107 13.2361 8.39 13.2166 8.28892C13.4469 8.26936 13.674 8.25632 13.9043 8.24327Z" fill="#F2A89D"/>
<path d="M10.3883 29.1302C9.94718 29.8996 9.50607 30.6659 9.06495 31.4353C7.55672 30.9919 5.68521 31.3245 4.85163 29.4432C4.99435 27.9988 5.76954 27.0434 7.08641 26.4989C7.71241 26.4826 8.72762 27.464 8.73087 25.8501C9.52877 26.6293 8.41625 27.7542 9.32443 28.465C8.82169 28.8367 8.63681 28.4944 8.45193 28.2596C8.1892 27.9303 7.9427 27.9075 7.67997 28.2302C7.5178 28.4291 7.25831 28.6509 7.26156 28.8595C7.2648 29.2182 7.61834 29.2345 7.92323 29.3584C8.81844 29.7268 9.58391 29.3486 10.3883 29.1302Z" fill="#FACCC1"/>
<path d="M4.85163 29.4432C5.43871 29.4334 5.64629 29.8735 5.92523 30.2811C6.21715 30.7082 6.63556 31.406 6.83342 30.1963C6.87558 29.9388 7.10911 29.8279 7.30697 30.017C7.85188 30.5452 8.34165 31.1386 9.07143 31.4353C8.94818 31.7451 8.82493 32.0548 8.69843 32.3646C8.29948 32.9743 7.84863 32.9808 7.2421 32.6026C6.19444 31.9505 5.30248 31.1712 4.72838 30.0594C4.76406 29.854 4.80622 29.6486 4.85163 29.4432Z" fill="#FBDBD1"/>
<path d="M9.35362 33.3525C8.84439 32.6385 9.28875 32.0222 9.78501 31.7223C10.3396 31.3864 10.7808 31.9831 11.2413 32.2929C10.8132 32.896 10.3948 32.1787 9.93745 32.5407C10.3494 33.0558 11.3743 33.0656 11.2997 33.9916C10.5602 34.0535 9.87582 33.9492 9.35362 33.3525Z" fill="#F39C90"/>
<path d="M30.7316 30.3398C30.1672 31.4875 29.2947 30.8974 28.5 30.7343C28.1854 30.542 27.8708 30.3463 27.5562 30.154C27.1767 29.8377 26.5312 29.8181 26.4469 29.166C26.515 28.9345 26.6642 28.778 26.8815 28.6835C27.7248 28.6509 28.2276 29.4986 29.0482 29.5214C29.5088 29.5442 29.7358 29.1693 30.0375 28.9215C31.0494 28.7552 31.0494 28.7552 30.7316 30.3398Z" fill="#E3776F"/>
<path d="M26.5539 29.1073C26.8134 29.5279 27.4167 29.616 27.5562 30.154C27.5335 30.3496 27.5108 30.5452 27.4881 30.7376C26.8848 30.0007 26.6285 30.2811 26.5442 31.0636C26.3691 30.9691 26.0512 30.8908 26.0382 30.7767C25.8404 29.2475 25.8501 29.2443 24.4911 29.9355C24.2446 29.2084 24.5851 28.6704 24.9322 28.1357C25.0425 28.0281 25.1722 27.9727 25.3247 27.9596C25.9571 28.0998 26.3756 28.4715 26.5539 29.1073Z" fill="#ED837A"/>
<path d="M27.8741 33.3753C27.8773 32.8048 27.8773 32.2342 27.8805 31.6636C28.2827 32.2342 28.3217 32.8048 27.8741 33.3753Z" fill="#ED8379"/>
<path d="M8.40976 15.4425C8.57518 15.3023 8.73735 15.1588 8.90926 15.0284C10.3786 13.9003 10.6737 13.9785 11.6143 15.7555C11.9938 16.1924 12.8826 15.9153 12.9799 16.7402C12.7625 16.9456 12.5096 16.9065 12.2501 16.8543C12.8826 17.0728 13.3983 17.4249 13.6902 18.0574C13.6253 18.8334 13.2848 19.541 13.1647 20.3039C12.6523 21.256 12.1593 22.2146 11.6987 23.1927C11.4587 23.209 11.2186 23.2221 10.9786 23.2384C9.54499 23.258 9.40876 23.0754 9.67473 21.5168C9.84988 21.1484 10.0964 20.793 9.90177 20.3528C9.96016 19.9029 9.52877 19.8246 9.31794 19.5931C9.35686 19.2801 9.19793 19.5214 9.11684 19.5344C8.77628 19.6029 8.50058 19.5247 8.30597 19.2247C8.39679 18.4715 7.73511 17.9824 7.63132 17.2977C7.67997 17.0499 7.8389 16.926 8.07892 16.8934C8.39354 16.8836 8.65627 17.1217 9.02927 17.0825C8.8898 16.5022 8.52004 16.0163 8.40976 15.4425Z" fill="#EE8579"/>
<path d="M10.677 26.1957C10.5634 26.1892 10.4499 26.1859 10.3364 26.1794C10.3948 25.4197 10.7873 24.898 11.4846 24.6209C12.1236 24.3665 12.3376 23.884 12.276 23.2351C12.5582 22.107 13.6675 22.3515 14.3908 21.9505C15.0557 21.9766 15.9023 21.5103 16.1682 22.6124C16.0515 22.72 15.9315 22.8308 15.8147 22.9384C15.1627 23.6786 13.8102 23.6199 13.6221 24.8882C13.7259 26.8804 13.5637 27.001 11.9517 26.1761C11.5235 25.9153 11.1084 26.5022 10.677 26.1957Z" fill="#E8726A"/>
<path d="M9.36335 19.329C9.47363 19.7366 10.4791 19.5507 10.0218 20.3333C10.278 20.6724 10.1483 20.9169 9.83366 21.1158C9.01305 21.1191 8.19569 21.1712 7.38481 21.3016C6.75881 20.7506 6.96964 20.0692 7.00856 19.3714C7.03776 18.8204 7.6151 18.2922 7.11236 17.7183C7.22912 17.3955 7.34913 17.0728 7.4659 16.7532C7.84863 16.4859 8.07243 16.5315 8.05946 17.0532C7.95243 17.1641 7.84539 17.2749 7.73835 17.3858C7.92648 17.9433 8.19893 18.4683 8.37408 19.0291C8.63032 19.3877 9.00981 19.3225 9.36335 19.329Z" fill="#EC7A6F"/>
<path d="M7.38805 21.3016C8.06919 20.555 8.84115 20.467 9.69743 20.9723C9.85312 21.1517 9.80771 21.4321 9.99908 21.5951C9.30497 22.7558 10.2845 22.9123 10.9786 23.2384C10.398 23.496 10.1061 24.2329 9.36335 24.2231C8.72762 23.7144 9.14279 22.4722 8.03027 22.2928C7.8162 21.9635 7.60213 21.631 7.38805 21.3016Z" fill="#F19286"/>
<path d="M14.287 22.2994C13.6156 22.6091 12.9474 22.9221 12.276 23.2319C12.0814 23.2188 11.8868 23.2058 11.6954 23.1895C11.4068 21.9244 12.2371 21.1321 12.9117 20.2746C13.4826 20.5354 14.1346 21.1191 13.8978 21.556C13.515 22.27 14.2481 22.0353 14.287 22.2994Z" fill="#FACDC0"/>
<path d="M8.03027 22.2928C9.09414 22.2342 9.24658 22.4559 9.36335 24.2231C8.2411 24.0535 8.58491 22.8602 8.03027 22.2928Z" fill="#F5A89C"/>
<path d="M9.97313 25.5012C9.89529 25.5175 9.81744 25.5338 9.7396 25.5436C9.59364 25.2371 9.30172 25.2012 9.0163 25.1491C9.32443 24.8621 9.72338 24.5393 10.0867 24.7122C10.4856 24.9045 10.025 25.2306 9.97313 25.5012Z" fill="#F0A093"/>
<path d="M13.2329 10.8028C13.554 10.3398 14.2708 10.7571 14.5497 10.2028C14.6632 10.2094 14.7768 10.2191 14.8903 10.2257C15.6849 10.5126 16.7326 9.26707 17.3456 10.6398C17.8646 10.2485 18.3835 9.97135 18.8863 10.6658C19.0258 11.0799 18.8766 11.4516 18.7176 11.8233C17.6927 13.659 17.55 13.734 15.5455 13.421C14.3065 13.2286 13.661 13.8448 13.408 14.9991C13.3172 15.2273 13.1583 15.3805 12.915 15.4327C12.5128 15.1849 12.1528 14.9013 11.9517 14.4546C12.2306 14.3209 12.2663 14.0666 12.2695 13.7959C12.529 13.1569 13.0188 12.5928 12.9215 11.8331C12.9182 11.4549 13.6967 11.3147 13.2329 10.8028Z" fill="#EA7971"/>
<path d="M12.928 11.8298C13.6707 12.8047 12.9993 13.3069 12.276 13.7927C11.903 12.9417 12.4577 12.4004 12.928 11.8298Z" fill="#EF8A80"/>
<path d="M34.3481 10.2257C34.5622 10.2257 34.773 10.2257 34.9871 10.2257C34.4162 10.4474 36.5861 11.4125 34.7049 11.2821C34.7989 11.7907 34.8898 12.3026 34.9838 12.8113C34.6108 13.0199 34.1632 13.1275 33.9556 13.5677C33.5956 13.8285 33.2226 13.822 32.8366 13.6362C32.6323 12.6776 33.3231 11.7549 32.9534 10.7865C33.3004 10.3072 33.7189 9.99743 34.3481 10.2257Z" fill="#FACCBF"/>
<path d="M39.5442 15.4099C38.6814 15.4751 39.3009 16.0685 39.1939 16.4011C38.9344 16.5804 38.649 16.5054 38.37 16.4793C38.023 16.4435 37.6727 16.4044 37.3256 16.3489C36.7191 16.1892 36.1028 16.9684 35.5028 16.3294C35.3503 15.4458 35.918 15.2208 36.6056 15.1034C37.6565 14.5361 38.6522 14.4806 39.5442 15.4099Z" fill="#E87A70"/>
<path d="M32.7101 13.434C33.1253 13.4797 33.5405 13.5221 33.9556 13.5677C34.293 14.1937 34.6335 14.8197 34.9708 15.4458C35.1719 15.5925 35.2595 15.8012 35.2855 16.0424C35.3049 16.2739 35.3211 16.5054 35.3795 16.7304C35.4476 17.1869 35.6585 17.6499 35.3341 18.0933C35.1914 18.1683 35.039 18.1911 34.88 18.1748C34.1016 17.7444 34.1794 16.9065 33.9881 16.212C33.8194 15.5957 33.7999 14.9241 33.1285 14.5817C32.7555 14.435 32.3663 14.3078 32.256 13.8481C32.282 13.571 32.3987 13.3949 32.7101 13.434Z" fill="#D9665B"/>
<path d="M36.3007 12.4591C36.2131 12.6515 36.1126 12.8406 36.0347 13.0362C35.8498 13.5286 36.0542 14.4611 35.2011 14.2785C34.2832 14.0829 35.0422 13.3166 34.9806 12.8113C35.5709 12.7004 35.639 11.8788 36.2845 11.8429C36.4823 12.0418 36.4726 12.2472 36.3007 12.4591Z" fill="#FACCBF"/>
<path d="M35.026 16.0131C35.0065 15.824 34.9903 15.6316 34.9708 15.4425C35.3147 14.3535 36.0023 14.9176 36.6088 15.1001C36.2164 15.4849 35.6228 15.6903 35.5287 16.3359C35.2336 16.4337 35.1103 16.2544 35.026 16.0131Z" fill="#FDE4D9"/>
<path d="M36.3007 12.4591C36.2974 12.2537 36.291 12.0483 36.2877 11.8429C36.6315 11.6962 37.0759 11.494 37.118 12.0711C37.1602 12.6548 36.6283 12.433 36.3007 12.4591Z" fill="#FEF0E8"/>
<path d="M34.3481 10.2257C33.9102 10.4278 33.4756 10.63 33.0377 10.8354C31.9706 11.3277 31.6333 10.3757 31.0884 9.83767C31.1954 9.63551 31.3057 9.43336 31.4127 9.22795C32.1166 10.3789 33.6021 9.20839 34.3481 10.2257Z" fill="#DF6A60"/>
<path d="M32.3955 13.809C32.6388 14.1774 33.0377 14.0959 33.388 14.1546C33.2648 14.9404 32.5836 14.8752 32.0549 15.0415C31.7371 15.0904 31.3803 15.0773 31.1273 15.2762C29.1747 16.8054 27.034 16.5706 24.8316 16.0424C24.1473 15.8761 23.6413 15.586 23.4142 14.8947C23.7126 13.8383 24.5397 13.2416 25.3603 12.6385C25.529 12.4559 25.5387 13.1047 25.7528 12.7134C25.795 12.508 25.9215 12.3678 26.0804 12.2472C26.3334 12.0939 26.5929 11.9896 26.8945 12.045C27.1053 12.1265 27.274 12.2602 27.4102 12.4396C27.5919 12.6124 27.5043 12.9352 27.7573 13.0819C28.007 12.7819 27.8578 12.332 28.166 12.0646C28.3022 12.0026 28.4449 11.9766 28.5974 11.9929C28.9249 11.9994 29.1325 12.9189 29.6093 12.0581C29.8104 11.6929 30.3716 11.8233 30.7446 12.1102C30.8354 12.8178 30.7835 13.6101 31.7565 13.7764C31.9771 13.6003 32.1912 13.5873 32.3955 13.809Z" fill="#E8766B"/>
<path d="M29.4763 8.56606C30.0732 9.32576 30.1315 10.2224 30.1413 11.1354C30.0504 11.2593 29.9304 11.3408 29.7812 11.3832C28.7401 11.6407 27.7476 11.6212 26.8945 10.8517C26.4599 10.6104 25.902 10.9136 25.4966 10.5354C24.9452 9.52792 24.4651 8.53346 25.9215 7.84549C26.2328 7.74767 26.5604 7.68898 26.8426 7.50313C27.2351 7.41184 27.6308 7.45749 28.0265 7.46075C28.3217 7.52596 28.5195 7.70855 28.646 7.97591C28.3898 8.93124 29.2688 8.27588 29.4763 8.56606Z" fill="#EA8277"/>
<path d="M32.3955 13.809C32.1814 13.8025 31.9706 13.7927 31.7565 13.7862C31.2538 12.5178 31.3543 11.1484 31.0884 9.83767C31.8863 9.87679 32.2009 10.8713 33.0377 10.8354C33.7318 11.8038 33.7935 12.6906 32.7101 13.434C32.6063 13.5579 32.4993 13.6851 32.3955 13.809Z" fill="#FCE2D7"/>
<path d="M29.7877 11.1614C29.9045 11.1517 30.0245 11.1451 30.1413 11.1354C30.6764 11.256 30.8256 11.6179 30.7446 12.12C30.0667 12.1592 29.2298 11.9863 29.4796 13.1862C28.8633 13.0199 28.9347 12.3613 28.513 12.1363C28.3995 11.0962 29.3174 11.4255 29.7877 11.1614Z" fill="#F3B2A6"/>
<path d="M29.4763 8.56606C28.9055 8.81386 28.3346 9.0584 27.7346 8.64106C27.8222 8.13894 28.6817 8.59215 28.4936 7.8944C28.3346 7.71181 28.2698 7.49661 28.286 7.25534C28.3281 7.10209 28.4125 6.98145 28.5455 6.89016C28.7368 6.78908 28.9282 6.68474 29.1163 6.58041C29.3012 7.01732 28.3736 7.73463 29.4536 7.94983C29.4601 8.1585 29.4699 8.36391 29.4763 8.56606Z" fill="#F09286"/>
<path d="M31.7144 6.31305L31.5976 6.31631C31.5976 6.31631 31.4808 6.30652 31.4841 6.30652C31.1338 6.20545 30.91 5.96743 30.7673 5.63812C31.0851 5.51748 31.403 5.39358 31.7209 5.26968C32.8626 5.62834 31.5846 5.96417 31.7144 6.31305Z" fill="#F1A499"/>
<path d="M16.8559 5.34141C17.4948 5.00884 18.1338 4.67627 18.7728 4.34369C19.1912 5.00884 20.5826 4.91754 20.3945 5.81419C20.2161 6.6717 19.0225 5.71637 18.4452 6.29348C18.2279 6.48259 18.0105 6.49563 17.7965 6.29022C17.2937 6.1598 17.2353 5.59247 16.8559 5.34141Z" fill="#F9C5B7"/>
<path d="M22.3471 7.23577C22.4704 7.46401 22.5969 7.69551 22.7201 7.92374C22.8758 8.13241 22.8693 8.35413 22.7785 8.58237C21.9514 9.09427 21.7503 10.2485 20.7481 10.5811C20.9102 9.43662 20.2745 8.59215 19.5577 7.7705C20.5924 7.34663 21.0432 7.74115 21.1535 8.68996C21.8703 8.39978 21.6562 7.62377 22.052 7.21947C22.1525 7.23903 22.2498 7.24229 22.3471 7.23577Z" fill="#F8C0B0"/>
<path d="M20.7513 10.5843C21.3903 9.91266 21.4097 8.65736 22.6455 8.54324C22.8272 8.87255 22.6844 9.23447 22.7623 9.58008C22.3666 10.7376 22.3795 12.3189 20.4237 11.8494C20.0377 11.3766 20.3718 11.106 20.7027 10.8321C20.7254 10.7506 20.7416 10.6658 20.7513 10.5843Z" fill="#E47066"/>
<path d="M18.7695 10.8778C17.5273 10.3691 16.1812 10.4604 14.8935 10.2257C15.0038 10.1213 15.1173 10.0137 15.2276 9.9094C16.7585 9.98765 18.3738 9.38119 19.7718 10.4963C19.8788 10.8028 19.6972 10.9462 19.4571 11.0538C19.1977 11.106 18.9674 11.0636 18.7695 10.8778Z" fill="#E26F67"/>
<path d="M17.4689 6.94233C17.3521 7.11513 17.2678 7.33033 17.1121 7.45749C16.778 7.72811 16.7813 8.58889 16.1942 8.29218C15.5325 7.95635 16.1001 7.31402 16.259 6.89668C16.6223 5.93809 17.0602 6.87712 17.4689 6.94233Z" fill="#FCDCD0"/>
<path d="M19.3955 10.8908C19.522 10.7604 19.6453 10.63 19.7718 10.4963C20.0831 10.6071 20.3913 10.718 20.7027 10.8289C20.6054 11.1549 20.508 11.481 20.4075 11.807C20.3459 11.8396 20.2875 11.869 20.2259 11.9016C19.775 11.7092 19.3566 11.4907 19.3955 10.8908Z" fill="#EB857A"/>
<path d="M17.7932 6.29022C18.0105 6.29022 18.2246 6.29348 18.4419 6.29348C18.5944 7.22925 18.0105 7.05644 17.4689 6.94233C17.5792 6.72713 17.6862 6.50868 17.7932 6.29022Z" fill="#FCDCD0"/>
<path d="M23.6348 14.761C24.9095 16.2641 28.5422 16.4793 30.4397 15.1849C30.9165 14.8589 31.3089 14.06 32.0582 14.7806C32.3955 15.1001 32.4571 15.511 32.4409 15.9479C32.3923 16.6848 32.0257 17.314 31.7436 17.9727C31.4419 18.7063 31.2797 19.4595 31.4257 20.2583C31.4938 20.5419 31.6106 20.8321 31.3673 21.093C30.9165 21.3929 30.3845 21.4484 29.885 21.5984C28.9347 21.7646 28.0946 22.1592 27.3843 22.8243C26.2101 23.9296 24.9225 24.9534 24.8414 26.7695C24.7343 27.063 24.5916 27.3336 24.3516 27.5455C24.2121 27.6173 24.0629 27.6531 23.9072 27.6564C23.3785 27.5814 22.8466 27.5586 22.3147 27.5195C22.0844 27.4869 21.8703 27.4119 21.6887 27.2586C21.5103 26.688 21.8152 26.4467 22.3147 26.4598C22.7493 26.4696 23.1612 26.5152 23.8326 25.8892C22.1817 26.7924 21.3708 25.5012 20.2648 25.299C20.0442 25.048 19.8561 24.7904 20.0961 24.448C21.0562 24.0503 22.1039 23.9492 23.0704 23.5742C23.2715 23.5579 23.4759 23.5775 23.6802 23.5775C23.7807 23.5775 23.8845 23.5775 23.9851 23.571C23.8943 23.4079 23.7159 23.5416 23.5959 23.4503C23.1093 23.2058 23.2196 22.87 23.4369 22.5146C24.1765 21.8657 24.9225 21.2267 25.7269 20.6626C26.2523 20.392 26.8069 20.1996 27.3843 20.0659C27.7021 20.0007 28.0784 20.1018 28.2892 19.7431C28.3314 19.642 28.3833 19.5442 28.4352 19.466C28.2373 19.3649 28.1952 19.6127 28.0557 19.6323C27.7605 19.779 27.3194 20.004 27.154 19.7953C26.382 18.8041 25.3279 19.2345 24.384 19.1269C24.264 19.0356 24.1797 18.9182 24.1343 18.7715C24.1278 18.5465 24.2283 18.3802 24.3905 18.2205C24.6954 17.9205 25.5128 18.0803 25.3149 17.3792C25.1625 16.838 24.53 16.9554 24.0727 16.8739C23.8391 16.8021 23.7029 16.6424 23.6672 16.3978C23.4337 16.075 23.2002 15.7522 22.9699 15.4295C22.8628 15.3414 22.8304 15.2273 22.8628 15.0936C22.9536 14.911 23.0964 14.7839 23.278 14.6991C23.411 14.6502 23.531 14.673 23.6348 14.761Z" fill="#FBD5C9"/>
<path d="M22.9212 15.1458C22.9342 15.2403 22.9536 15.3316 22.9764 15.4229C22.2174 15.4197 21.4551 15.4164 20.6962 15.4132C20.2875 14.6958 20.0248 15.3577 19.7426 15.5338C18.0365 16.5935 16.3466 17.676 14.3162 16.2283C13.8783 15.9153 13.4048 15.6675 13.2588 15.0904C12.9863 13.6264 14.1216 12.5374 15.4547 13.046C16.8656 13.584 17.79 13.1014 18.4354 11.8298C19.055 11.481 19.6582 10.9756 20.1286 12.0646C20.2421 12.3254 20.2032 11.8135 20.3848 11.8396L20.4107 11.8103C22.1687 11.8461 21.9157 10.0952 22.6715 9.24099C22.9861 8.88885 23.3818 8.84647 23.8099 8.92472C23.9624 8.97037 24.1213 9.02906 24.2251 9.1497C24.4716 9.43662 24.3678 9.68768 24.2219 10.017C24.144 10.1931 24.5365 10.0594 24.7084 10.1115C25.0198 10.1996 25.3311 10.2615 25.5614 10.5159C25.9993 10.6593 26.4404 9.95178 26.8751 10.5224C26.8588 10.7376 26.7583 10.9234 26.6512 11.1027C26.4112 11.5331 26.5799 12.0939 26.2231 12.4852C26.1096 12.6026 25.9961 12.72 25.8825 12.8373C25.7723 12.9775 25.6717 12.971 25.5809 12.8145C24.9322 13.4634 24.2835 14.1122 23.6348 14.761C23.5407 14.7447 23.4467 14.7382 23.3526 14.7382C23.2877 14.7056 23.2229 14.6763 23.158 14.6437C22.7947 14.2818 22.5969 13.8057 22.2985 13.3982C22.1395 13.1895 22.0941 12.9091 21.8768 12.7428C21.3287 13.9361 21.773 14.6958 22.9212 15.1458Z" fill="#EB857A"/>
<path d="M14.287 22.2994C13.1356 22.1037 13.6286 20.7734 12.9117 20.2778C12.8663 19.4529 13.0577 18.69 13.4859 17.9857C13.4404 17.4868 13.288 16.988 13.4729 16.4859C13.6156 16.2772 13.8134 16.1761 14.0599 16.1468C15.0233 16.6717 16.2753 16.5054 17.0667 17.4347C17.3326 18.0868 16.7164 18.5106 16.6483 19.0552C16.525 20.0561 15.8828 21.0538 16.645 22.0972C16.9467 22.5113 16.4861 22.5765 16.1682 22.6059C15.6201 22.032 14.926 22.345 14.287 22.2994Z" fill="#FBDACE"/>
<path d="M23.6737 16.3913C23.784 16.4891 23.891 16.5869 24.0013 16.6848C23.8813 17.2488 23.0899 17.5651 23.4207 18.2955C23.4694 18.703 23.6413 19.078 23.7224 19.4758C22.7817 20.3235 23.0412 21.1256 23.8099 21.9146C23.8099 22.0744 23.7645 22.2179 23.6737 22.3483C22.4931 23.5188 21.4033 24.9013 19.4182 24.1155C19.1652 24.0144 18.9349 23.8872 18.7468 23.6851C18.6333 23.5351 18.6398 23.3884 18.7598 23.2449C19.2301 22.5015 20.268 23.434 20.7027 22.5798C21.16 22.3809 21.2281 22.0418 21.0465 21.6147C20.2907 21.1549 20.0021 22.2309 19.3177 22.1298C18.9868 21.3636 19.9048 21.3995 20.0799 20.9691C20.5956 20.1963 22.1038 20.2029 21.7763 18.7747C22.013 17.9596 21.6822 16.9293 22.665 16.3946C22.9991 16.3978 23.3364 16.3946 23.6737 16.3913Z" fill="#F08F84"/>
<path d="M14.2286 26.8315C14.9811 26.7206 15.7336 26.6098 16.4829 26.4989C16.6937 26.5413 16.8202 26.6652 16.8396 26.8869C17.0797 28.3411 16.1715 29.3421 14.2221 29.7757L14.2254 29.766C12.7366 28.7845 13.914 27.8096 14.2286 26.8315Z" fill="#F09187"/>
<path d="M21.9968 19.0225C22.6196 20.9299 20.8713 20.4767 20.0767 20.9756C19.7426 20.8321 19.5123 20.5843 19.3728 20.2485C18.9447 20.0757 18.7857 19.6323 18.4679 19.3453C18.3479 19.2247 18.2279 19.1041 18.1078 18.9867C17.9197 18.7813 17.9295 18.5759 18.1111 18.3704C18.643 17.6368 19.175 17.0271 19.7361 18.3444C19.5155 18.5987 19.2852 18.4715 19.1685 18.478C19.3728 18.6313 19.8302 18.5269 20.161 18.7682C20.7027 19.391 21.4065 18.791 21.9968 19.0225Z" fill="#EA746A"/>
<path d="M21.9968 19.0225C21.3514 19.3127 20.7027 19.8638 20.0572 19.016C20.054 18.7813 20.054 18.5498 20.054 18.315C20.0085 17.4966 20.268 16.7532 20.7416 15.7881C21.0562 17.6629 22.0649 15.837 22.6585 16.3978C22.1039 17.1869 22.5677 18.2368 21.9968 19.0225Z" fill="#EF887D"/>
<path d="M14.2286 26.8315C14.2481 27.8096 13.3594 28.7845 14.2254 29.7627C12.9993 29.9029 12.049 29.4236 11.303 28.4683C10.8456 28.0118 10.8619 27.3727 10.6672 26.8152C10.9462 26.5804 11.1959 26.2511 11.6338 26.5022C11.9517 26.7174 12.2695 26.9326 12.5906 27.1445C12.8112 27.5716 13.0382 27.4379 13.262 27.1478C13.7421 27.5292 13.9335 27.0206 14.2286 26.8315Z" fill="#EC887F"/>
<path d="M17.0667 17.4379C16.0288 17.0793 14.9908 16.7206 13.9562 16.3587C13.6351 16.2837 13.3756 16.1239 13.2166 15.8207C13.1193 15.6903 13.0188 15.5599 12.9215 15.4295C13.0318 15.3153 13.1453 15.2012 13.2556 15.0871C16.4764 17.2586 17.2094 17.1282 20.5307 14.4024C20.8551 14.6958 20.6216 15.0806 20.6929 15.4099C19.3177 15.7849 18.3933 16.9782 17.0667 17.4379Z" fill="#DC645A"/>
<path d="M18.7825 23.5677C20.9005 25.0089 22.1071 23.0558 23.6251 22.2602C23.7743 22.3972 23.7872 22.5439 23.6575 22.7004C23.5894 22.896 23.1904 23.046 23.5699 23.3069C23.6899 23.6036 23.5375 23.7503 23.278 23.8383C22.2401 24.2329 21.2411 24.8002 20.0637 24.5524C19.9502 24.7024 19.2788 24.5002 19.7718 25.0415C19.9599 25.2501 19.9566 25.5403 19.8366 25.8109C19.7264 25.9218 19.5966 25.9642 19.4442 25.9316C19.3209 25.5892 19.1036 25.3382 18.7663 25.2012C18.4873 24.6991 17.8873 24.2622 18.4387 23.5873C18.5457 23.4308 18.6592 23.4308 18.7825 23.5677Z" fill="#E68175"/>
<path d="M13.6253 24.885C12.8209 25.374 12.8177 24.8687 13.2231 24.4643C13.9399 23.7536 14.7573 23.1112 15.8179 22.9352C15.4741 24.0274 14.0437 23.8807 13.6253 24.885Z" fill="#F29990"/>
<path d="M18.7825 23.5677C18.669 23.5742 18.5555 23.5807 18.4419 23.5873C17.8743 23.4829 17.3391 23.3297 17.0926 22.5863C17.91 22.332 18.2408 23.0395 18.7598 23.2482C18.7663 23.3558 18.7728 23.4601 18.7825 23.5677Z" fill="#DE665F"/>
<path d="M13.262 27.151C13.0901 27.5162 13.5734 28.2824 12.808 28.2205C12.3636 28.1846 12.3766 27.5781 12.5906 27.1478C12.8144 27.1478 13.0382 27.151 13.262 27.151Z" fill="#F6B8AC"/>
<path d="M21.0432 21.6179C22.0228 21.9896 21.3481 22.583 21.0984 22.9058C20.8356 23.2449 20.761 22.8015 20.6994 22.583C20.8162 22.2635 20.9297 21.9407 21.0432 21.6179Z" fill="#F4A99A"/>
<path d="M11.6338 26.5054C11.3127 26.6098 10.9883 26.7141 10.6672 26.8184C10.6705 26.6098 10.6737 26.4044 10.677 26.1957C11.1019 26.0359 11.517 25.5305 11.9549 26.1761C11.8479 26.2837 11.7408 26.3946 11.6338 26.5054Z" fill="#F29C91"/>
<path d="M20.054 18.3183C20.3945 18.5498 20.4172 18.7813 20.0572 19.0193C19.7037 18.8595 19.3501 18.6965 18.776 18.4324C19.2528 18.39 19.4961 18.3672 19.7361 18.3444C19.8431 18.3476 19.9502 18.3378 20.054 18.3183Z" fill="#F4A599"/>
<path d="M18.4679 19.3421C19.1198 19.2866 19.1166 19.8996 19.3728 20.2452C18.7144 20.3039 18.4354 19.9844 18.4679 19.3421Z" fill="#F7C8BD"/>
<path d="M18.1111 18.3672C18.1111 18.5726 18.1078 18.778 18.1078 18.9834C17.9035 19.0388 17.6408 19.4008 17.511 18.9834C17.3716 18.5269 17.67 18.3378 18.1111 18.3672Z" fill="#F5BCB2"/>
<path d="M16.8396 26.8869C16.7229 26.7565 16.6029 26.6293 16.4861 26.4989C16.7002 26.2511 16.9953 26.0066 17.2321 26.3326C17.3878 26.5478 17.0634 26.7598 16.8396 26.8869Z" fill="#F7BFB1"/>
<path d="M11.8641 30.7017C12.023 30.9854 12.1398 31.1125 12.1528 31.2462C12.1625 31.3603 12.049 31.4842 11.9906 31.6016C11.8868 31.5136 11.7279 31.4451 11.6922 31.3375C11.6565 31.2299 11.7506 31.0832 11.8641 30.7017Z" fill="#F39C90"/>
<path d="M23.9559 27.4771C24.05 27.5195 24.1473 27.5358 24.2511 27.5292C24.6208 27.4282 24.4651 27.0597 24.5916 26.838C24.4197 24.7839 25.7398 23.6427 27.1735 22.57C28.0914 22.87 29.2331 22.6059 29.8558 23.6623C29.8883 23.7177 30.1315 23.5514 30.2483 23.4373C30.4202 23.2449 30.5986 23.0623 30.7802 22.8797C30.8678 22.7884 31.0819 22.7135 31.0235 22.6124C30.9586 22.5048 30.7446 22.5667 30.5889 22.5439C29.9856 22.3613 29.6385 22.019 29.8169 21.3375C30.2645 20.8778 30.8516 20.9071 31.4224 20.8713C31.6884 20.643 31.9998 20.6561 32.3177 20.7082C32.6939 20.7995 33.0702 20.8941 33.4464 20.9886C34.254 21.2984 35.0325 21.644 35.4898 22.4494C35.5352 22.9123 35.5514 23.3167 34.8703 23.2384C33.5891 23.0917 32.5934 23.6068 31.8506 24.6469C31.6722 24.7806 31.4679 24.8654 31.257 24.9339C30.7802 25.0871 30.297 25.2241 29.8656 25.4914C29.6093 25.6447 29.3434 25.7718 29.045 25.8207C28.3638 25.9153 27.7054 25.674 27.0015 25.7849C26.0025 25.9381 25.5939 26.3848 25.7463 27.3727C25.7041 27.7086 25.4933 27.9303 25.2501 28.1357L24.9322 28.1357C23.7451 28.064 22.5579 28.5596 21.3708 28.1292C21.6433 26.9782 22.6682 27.7575 23.2456 27.389C23.4921 27.3238 23.7386 27.288 23.9559 27.4771Z" fill="#E7756B"/>
<path d="M19.4474 25.9316C19.5285 25.8762 19.6193 25.8403 19.7134 25.824C20.161 25.8566 19.7101 24.9208 20.3815 25.198C20.8583 25.2632 21.5622 25.1556 21.7665 25.4262C22.4769 26.375 23.0866 25.8207 23.8164 25.4751C24.1635 26.512 23.8034 26.9782 22.7331 26.7858C22.2628 26.7011 21.8898 26.6163 21.6854 27.1608C21.0238 27.7738 20.1123 27.6205 19.3534 27.9335C18.2116 27.8553 18.5295 27.3727 19.0485 26.8315C19.1814 26.5283 19.3144 26.2316 19.4474 25.9316Z" fill="#F9C7BC"/>
<path d="M19.3696 27.751C20.015 27.0467 20.894 27.2684 21.6887 27.1608C21.8833 27.1706 22.0747 27.1804 22.2693 27.1901C22.5774 27.4282 23.0153 27.1967 23.3104 27.4836C22.8239 28.1813 21.8638 27.451 21.3708 28.1357C20.7156 28.6802 20.0572 28.0053 19.402 28.1422C19.3015 28.064 19.2625 27.9792 19.2885 27.8912C19.3112 27.7966 19.3371 27.751 19.3696 27.751Z" fill="#E15F53"/>
<path d="M22.0098 30.0887C21.4811 29.792 21.134 30.793 20.5989 30.2974C20.2648 29.9877 20.6118 29.717 20.7189 29.4399C21.0173 29.1725 21.5265 29.2312 21.7179 28.7943C22.026 28.8758 22.3374 28.9606 22.6455 29.0421C22.8336 29.6388 22.7428 30.0594 22.0098 30.0887Z" fill="#F8CDC3"/>
<path d="M22.0098 30.0887C22.3828 29.8377 22.4996 29.4301 22.6455 29.0421C23.1807 28.6541 23.265 28.9834 23.2229 29.4301C23.1677 30.0203 22.6325 30.2713 22.3082 30.6724C22.0455 30.5615 21.9968 30.3431 22.0098 30.0887Z" fill="#FAD4C9"/>
<path d="M19.7393 29.1106C19.4961 29.554 19.9988 30.3463 19.1068 30.5224C18.7436 30.0398 19.2431 29.5736 19.0874 29.1171C19.3079 29.3225 19.5155 28.0183 19.7393 29.1106Z" fill="#EA7C73"/>
<path d="M19.3696 27.751C19.3793 27.8781 19.389 28.0085 19.3988 28.1357C18.9933 28.1096 18.5327 28.1716 18.4711 27.5749C18.4257 27.1412 18.6106 26.8837 19.0517 26.8282C19.0031 27.1901 18.3025 27.777 19.3696 27.751Z" fill="#EA7C73"/>
<path d="M23.5991 32.3939C23.5829 32.6613 23.5634 32.9417 23.2196 32.9841C22.7817 33.0428 22.7007 32.7363 22.665 32.4005C22.9796 32.3972 23.291 32.3939 23.5991 32.3939Z" fill="#F6B8AC"/>
<path d="M21.7179 28.7943C21.6368 29.404 21.2151 29.479 20.7189 29.4399C20.6086 29.3323 20.4983 29.2214 20.3848 29.1138C20.8292 29.0063 21.2735 28.9019 21.7179 28.7943Z" fill="#EA7C73"/>
<path d="M17.7932 31.3995C18.0008 30.9821 18.2603 30.643 18.7825 30.93C18.9122 31.0017 19.295 31.0245 19.0485 31.3114C18.9479 31.4288 18.6495 31.3734 18.4387 31.3962C18.2246 31.3962 18.0105 31.3995 17.7932 31.3995Z" fill="#F49F94"/>
<path d="M25.5776 27.4803C24.9873 25.736 25.7431 25.0219 27.9292 25.2762C28.3411 25.3251 28.7466 25.4458 29.1552 25.5338C29.285 26.0392 28.8536 25.9838 28.5811 26.1174C29.1682 26.0261 29.5704 25.7262 29.7877 25.1817C30.1705 24.7774 30.7121 24.7741 31.1889 24.6111C31.7079 25.1849 32.5447 25.4295 32.8366 26.2348C32.8399 26.3848 32.7977 26.5185 32.7134 26.6424C31.7468 27.063 32.1133 28.0966 31.7371 28.7911C31.6463 29.4692 31.2408 29.942 30.7283 30.3431C30.5759 30.0268 30.4948 29.7464 30.6148 29.3519C30.8062 28.7324 30.3586 29.078 30.1348 29.1204C29.6093 29.0389 29.5866 29.7399 29.1325 29.7692C28.0849 30.1279 27.647 29.0519 26.8588 28.7943C26.0674 28.7161 25.6944 28.2237 25.5776 27.4803Z" fill="#ED837A"/>
<path d="M32.6388 26.525C32.6453 26.4272 32.6517 26.3294 32.6582 26.2348C32.9761 25.5403 33.7643 25.5631 34.1146 25.0415C33.894 24.8882 32.9469 25.5664 33.0637 24.4415C33.1902 24.3437 33.3296 24.2687 33.4853 24.2198C34.533 24.0111 35.626 24.2557 36.6575 23.884C36.8521 23.9948 37.0467 24.1057 37.2413 24.2166C37.157 25.0219 37.9451 25.2762 38.2533 25.8338C37.6792 25.8403 39.3755 27.9498 37.4327 26.7271C37.2348 26.6033 37.0726 26.8674 37.0889 27.1282C37.1051 27.4216 37.0078 27.7836 36.6931 27.5129C36.4953 27.3434 35.7882 27.4869 36.1061 26.8282C36.3266 26.3685 36.1677 25.9316 35.7233 25.7881C35.5547 25.736 35.2011 26.1109 35.0033 26.3522C34.5622 26.8869 35.1655 27.0858 35.3925 27.3956C35.7655 27.9042 36.784 28.4161 35.7817 29.0389C34.8216 29.6355 34.0043 30.9137 32.5025 30.1507C31.8019 29.792 32.6809 29.0682 32.0549 28.7813C31.9738 27.9564 32.5966 27.3173 32.6388 26.525Z" fill="#FACDC1"/>
<path d="M32.6388 26.525C33.4107 27.5292 32.402 28.0672 32.0549 28.7813C31.9511 28.7813 31.8474 28.7845 31.7436 28.7911C31.5068 27.8194 30.9392 26.7206 32.6388 26.525Z" fill="#E66F68"/>
<path d="M33.3945 24.5002C33.281 24.5035 33.1675 24.51 33.0539 24.5133C32.6128 24.6078 32.1652 25.0056 31.7338 24.497C32.0712 24.0177 31.8246 22.8439 33.028 23.3949C33.4821 22.2472 34.5005 22.7298 35.3049 22.5993C35.4703 22.4037 35.6844 22.3418 35.9309 22.3646C36.0866 22.407 36.2131 22.4917 36.3137 22.6156C36.3137 22.7167 36.3039 22.8145 36.2845 22.9156C36.2326 23.7699 35.8985 24.3078 34.9287 24.2263C34.4032 24.1807 33.8843 24.2948 33.3945 24.5002Z" fill="#EF8E81"/>
<path d="M36.3104 22.6156C36.1872 22.6059 36.0607 22.5993 35.9374 22.5896C35.8466 22.4591 35.8369 22.3287 35.9277 22.195C36.0088 22.045 36.3818 22.1363 36.2845 22.0092C35.8758 21.4712 35.7363 20.9071 35.892 20.255C36.2455 19.792 37.1667 20.1116 37.2478 19.2671C37.8381 19.2149 38.1657 19.6486 38.5484 19.9746C38.396 20.242 38.3052 20.6561 38.0846 20.7474C36.9526 21.2104 38.1138 21.2919 38.1917 21.5429C37.8089 22.3352 37.0986 22.5472 36.3104 22.6156Z" fill="#E26961"/>
<path d="M33.3945 24.5002C33.7351 24.1122 34.1989 23.8514 34.6757 23.9264C35.5547 24.0633 35.8985 23.4895 36.2845 22.9156C36.4077 23.2384 36.531 23.5612 36.6575 23.884C35.7752 25.1849 34.4973 24.3731 33.3945 24.5002Z" fill="#E0766C"/>
<path d="M40.1475 18.9867C40.0437 19.2051 39.9399 19.4203 39.8394 19.6388C39.7323 19.7529 39.6285 19.867 39.5215 19.9811C39.4436 19.5834 38.7625 19.3551 39.0317 18.9639C39.2231 18.6867 39.7712 18.7878 40.1475 18.9867Z" fill="#EB8279"/>
<path d="M23.9462 9.21491C23.5213 9.22469 23.0964 9.23121 22.6715 9.24099C22.3049 9.02254 22.6488 8.77474 22.6488 8.54324C22.6747 8.33783 22.7007 8.13241 22.7266 7.927C23.0477 7.00427 24.1148 7.52922 24.6111 6.94885C24.7246 6.84777 24.8381 6.74669 24.9549 6.64562C25.7171 6.03916 26.5053 5.44575 26.541 4.33391C26.5507 4.21327 26.5572 4.09263 26.5669 3.97199C26.7518 4.10893 26.9367 4.24262 27.1216 4.37956C27.1508 5.01536 27.1799 5.65116 27.2091 6.28696C27.4005 6.63258 27.1799 6.85429 26.9724 7.07927C26.7323 7.26512 26.4631 7.39554 26.1842 7.50639C25.2565 7.84223 24.1602 7.94657 23.9462 9.21491Z" fill="#DA5C53"/>
<path d="M26.5345 4.33391C26.7777 5.63812 26.3561 6.48259 24.9484 6.64562C25.3701 5.82723 24.7019 5.45879 24.277 4.98927C25.0392 4.80343 26.0804 5.58921 26.5345 4.33391Z" fill="#EB7F76"/>
<path d="M38.5484 19.9779C37.9419 20.1213 37.6111 19.6975 37.2543 19.3356C36.0153 20.3333 35.9569 19.0095 35.6812 18.4389C35.4185 17.8944 35.626 17.1412 35 16.7141C35.0098 16.4826 35.0163 16.2478 35.026 16.0163C35.1946 16.1239 35.3633 16.2348 35.5287 16.3424C36.1547 16.5967 36.6056 15.6968 37.2543 16.0783C37.6889 16.4337 38.1235 16.3391 38.5549 16.0718C38.769 16.1826 38.9798 16.2902 39.1939 16.4011C38.8858 16.9521 40.8027 17.4673 39.2198 18.0379C39.0187 18.0346 38.8241 18.09 38.623 18.0868C38.4414 18.0803 38.2954 17.9107 38.1008 17.989C38.2857 18.0737 38.4414 18.1976 38.5582 18.3672C38.1819 18.9019 38.6652 19.4399 38.5484 19.9779Z" fill="#EB8279"/>
<path d="M38.5582 18.3639C37.8543 18.2824 37.5008 17.9564 37.8024 17.0923C37.9743 17.9629 38.7528 17.7281 39.2231 18.0346C39.0739 18.2955 38.8209 18.3378 38.5582 18.3639Z" fill="#F29B8F"/>
<path d="M26.8718 6.94885C26.9821 6.72713 27.0924 6.50542 27.2026 6.28696C27.7021 6.375 28.1919 6.47607 28.5422 6.89342C28.526 7.02058 28.513 7.14774 28.4968 7.27164C28.3022 7.43792 27.913 7.23251 27.8319 7.62377C27.4978 8.13894 27.1962 7.6792 26.8848 7.58791C26.7064 7.37924 26.6804 7.1673 26.8718 6.94885Z" fill="#DF6A60"/>
<path d="M8.06595 17.0499C7.94269 16.7956 7.72538 16.7402 7.46914 16.75C7.65078 16.2185 7.83566 15.6903 8.40976 15.4458C8.82817 15.912 9.28226 16.3522 9.64878 16.8543C9.76555 17.0141 9.77852 17.3792 9.42498 17.5064C8.84439 17.7183 8.42273 17.4901 8.06595 17.0499Z" fill="#EF9288"/>
<path d="M13.2166 15.824C13.5572 15.8729 13.7745 16.0913 13.9562 16.362C13.8199 16.5022 13.6869 16.6424 13.5507 16.7858C13.3334 16.9228 13.1323 16.8967 12.9507 16.7141C12.5744 16.2968 11.8446 16.3783 11.6143 15.7588C12.1593 15.5273 12.662 16.2544 13.2166 15.824Z" fill="#F9C9BD"/>
<path d="M14.553 10.2028C13.781 10.2191 13.3334 9.99417 13.7388 9.09101C14.2708 9.2899 14.274 9.85071 14.553 10.2028Z" fill="#FBE3DC"/>
<path d="M25.5776 27.4803C26.0058 27.9205 26.4307 28.3574 26.8588 28.7976C26.755 28.9019 26.6545 29.0063 26.5507 29.1073C26.1161 28.7845 25.6814 28.4617 25.2468 28.139C25.2565 27.8651 25.3117 27.6173 25.5776 27.4803Z" fill="#D7635B"/>
<path d="M29.1325 29.7692C29.5023 29.6094 29.1974 28.3965 30.1348 29.1204C29.8007 29.3323 29.9629 30.3268 29.1325 29.7692Z" fill="#F1978F"/>
<path d="M12.9507 16.7108C13.1518 16.7337 13.3496 16.7565 13.5507 16.7826C13.9626 17.2064 13.9724 17.6107 13.4891 17.989C13.1647 17.7412 12.782 17.5423 12.5225 17.239C11.8187 16.4109 12.769 16.8608 12.9507 16.7108Z" fill="#E87169"/>
<path d="M8.38057 19.0258C7.36211 18.7943 7.86809 17.9661 7.74484 17.3825C7.95891 17.9303 9.20118 18.0737 8.38057 19.0258Z" fill="#EF9288"/>
<path d="M11.6727 19.2801C11.3678 19.241 11.0921 19.2443 11.144 18.9573C11.2089 18.6019 11.5657 18.5335 11.8576 18.4748C11.9484 18.4552 12.1657 18.6117 12.1755 18.703C12.2144 19.1204 11.8284 19.1334 11.6727 19.2801Z" fill="#F9CBBF"/>
<path d="M9.99908 21.5918C9.40227 21.6277 9.52553 21.3114 9.69743 20.9691C9.80771 20.7571 9.91475 20.5419 10.025 20.33C10.6672 20.6398 10.6672 20.6398 9.99908 21.5918Z" fill="#F7B6A6"/>
<path d="M11.2057 17.4771C11.1375 17.702 10.9916 17.8585 10.7516 17.8064C10.5213 17.7542 10.3818 17.5651 10.4726 17.3303C10.518 17.2195 10.6997 17.1086 10.8262 17.0988C11.0597 17.0793 11.2154 17.213 11.2057 17.4771Z" fill="#F5AFA3"/>
<path d="M9.36659 19.329C9.36659 19.0258 9.23685 18.6541 9.58067 18.4911C9.79149 18.39 9.97313 18.6085 9.9861 18.8334C10.0153 19.2736 9.69743 19.3225 9.36659 19.329Z" fill="#F8CCC1"/>
<path d="M20.3815 11.8396C20.3069 12.2048 20.7643 12.4982 20.427 13.0917C20.2518 11.6864 19.2042 12.0353 18.4322 11.8298C18.5457 11.5136 18.6592 11.1973 18.7728 10.881C18.9804 10.8843 19.1912 10.8876 19.3988 10.8941C19.7231 11.2071 20.054 11.5234 20.3815 11.8396Z" fill="#F3A79B"/>
<path d="M38.5549 16.0685C38.1235 16.5413 37.6922 16.913 37.2543 16.075C37.6889 16.075 38.1203 16.0718 38.5549 16.0685Z" fill="#F29B8F"/>
<path d="M32.1295 16.075C32.1068 15.6446 32.0809 15.211 32.0582 14.7806C32.4993 14.5719 32.9437 14.3665 33.3848 14.1579C34.8022 15.0838 34.1081 16.8771 34.9611 18.0346C35.5158 18.7552 35.652 19.5703 35.4995 20.4507C35.4736 20.493 35.4541 20.5517 35.412 20.5778C34.3157 21.2658 34.6951 19.5507 33.8097 19.6062C33.0215 19.6551 32.0744 19.3942 32.1879 18.1716C32.6258 17.4184 33.2096 16.7174 33.041 15.7327C32.6388 15.5664 32.522 16.2152 32.1295 16.075Z" fill="#F39B8D"/>
<path d="M35 16.7108C35.6358 16.7858 35.7915 17.0891 35.8661 17.7705C35.9407 18.4487 35.918 19.6192 37.2575 19.3356C37.7116 20.8517 36.505 20.1246 35.9666 20.3039C35.1882 19.7105 35.1882 18.8856 35.3049 18.0313C35.2044 17.5912 35.1006 17.151 35 16.7108Z" fill="#E5736A"/>
<path d="M35.3049 18.0281C35.5255 18.7845 35.746 19.5442 35.9666 20.3007C36.119 20.7897 36.2099 21.3114 36.4434 21.7581C36.9234 22.6776 36.0607 22.1135 35.8888 22.3026C35.4963 22.3124 35.4055 22.0124 35.2984 21.7255C35.2271 21.3603 35.0746 20.9919 35.2887 20.6235C35.1817 19.7594 35.0746 18.8954 34.9644 18.0313C35.0746 18.0313 35.1914 18.0313 35.3049 18.0281Z" fill="#D65F55"/>
<path d="M26.5377 10.8582C26.6512 10.7441 26.7648 10.6332 26.8751 10.5191C27.7216 11.3049 28.8049 10.9919 29.7877 11.1614C29.4958 11.6603 28.672 11.4549 28.513 12.1363C28.3995 12.1494 28.2892 12.1624 28.1757 12.1755C27.6438 11.6538 27.66 12.808 27.1962 12.4982C27.0891 12.3874 26.9788 12.2733 26.8718 12.1624C26.5637 11.7777 26.168 11.419 26.5377 10.8582Z" fill="#F2A194"/>
<path d="M27.1994 12.495C27.4913 12.2765 27.6924 11.794 28.1789 12.1722C28.1822 12.2244 28.1757 12.2798 28.1919 12.3287C28.4579 13.0656 28.2081 13.7144 27.4686 13.7046C26.2199 13.6883 27.9389 12.7721 27.1994 12.495Z" fill="#EA8277"/>
<path d="M26.5377 10.8582C26.648 11.2919 26.7615 11.7255 26.8718 12.1592C26.6545 12.2668 26.4404 12.3743 26.2231 12.4819C26.5864 11.9896 25.3538 11.1908 26.5377 10.8582Z" fill="#EA8277"/>
<path d="M25.5809 12.8113C25.6814 12.8113 25.782 12.8178 25.8825 12.8341C26.0317 13.0949 26.1842 13.3525 26.3334 13.6133C26.2458 13.6394 26.1388 13.7112 26.0739 13.6851C25.6879 13.5286 25.6004 13.1862 25.5809 12.8113Z" fill="#F2A69B"/>
<path d="M23.9462 9.21491C23.3526 8.75517 23.505 8.38347 24.0662 8.03786C24.7311 7.62703 25.3474 7.09231 26.2166 7.26512C26.395 7.48357 26.395 7.70203 26.2199 7.92048C25.5971 8.49433 24.6078 8.98341 25.7852 9.96157C25.8306 10.0007 25.6393 10.3235 25.5614 10.5126C24.663 10.5354 23.7094 10.6202 23.9462 9.21491Z" fill="#E47066"/>
<path d="M29.3953 10.2844C28.8568 10.2354 28.6233 9.96809 28.6428 9.50183C28.646 9.45292 28.9152 9.34207 29.0093 9.38119C29.3888 9.54748 29.4861 9.86049 29.3953 10.2844Z" fill="#F09286"/>
<path d="M26.2199 7.92048C26.2199 7.70203 26.2166 7.48357 26.2166 7.26512C26.4339 7.16078 26.6545 7.05644 26.8718 6.94885C26.8751 7.16078 26.8815 7.37597 26.8848 7.58791C26.8134 7.99873 26.7486 8.42912 26.2199 7.92048Z" fill="#F2A095"/>
<path d="M27.8319 7.62377C27.66 7.45423 27.2416 7.27816 27.4686 7.05644C27.7897 6.74343 28.153 7.16078 28.4936 7.2749C28.4936 7.48357 28.4903 7.69224 28.4903 7.89766C28.273 7.8031 28.0524 7.71507 27.8319 7.62377Z" fill="#F3AAA3"/>
<path d="M35.2855 20.6235C35.3763 20.9691 35.4671 21.3147 35.5579 21.6603C35.1265 21.9798 34.773 21.8364 34.4454 21.4842C34.1373 21.1517 33.8129 20.8876 33.3653 21.2788C33.0053 21.2756 32.6225 21.3408 32.3858 20.9593C32.0809 20.4865 31.4484 20.6756 31.0916 20.3104C30.6829 19.4692 31.0365 18.7324 31.3965 17.9955C31.7209 18.2172 32.0841 17.1021 32.3858 18.0248C32.4636 19.0552 33.0929 19.5801 33.9718 19.1464C34.4778 18.8954 34.2994 19.1888 34.3676 19.3388C34.5946 19.8344 34.7341 20.3757 35.2855 20.6235Z" fill="#EF8E81"/>
<path d="M29.8169 21.3408C30.044 21.7483 30.164 22.2635 30.7737 22.2733C31.0008 22.7917 30.657 23.1634 30.4397 23.571C30.1542 25.0741 29.3823 24.3731 29.0709 23.734C28.7822 23.1438 28.6298 22.9156 28.0492 23.2351C27.2578 23.672 27.4037 22.8732 27.1702 22.57C27.8903 21.807 28.7239 21.2919 29.8169 21.3408Z" fill="#EB8077"/>
<path d="M27.5238 20.3007C26.9724 20.5028 26.4177 20.705 25.8663 20.9104C25.6068 20.8158 25.3052 20.8876 25.0684 20.7017C24.6014 20.33 24.2575 19.8768 24.144 19.2736C24.1408 19.1236 24.1894 18.9899 24.2867 18.8726C24.796 18.791 25.3117 18.7421 25.8112 18.6182C26.3399 18.4878 26.7745 18.2628 26.9302 19.1236C27.1118 20.1409 27.7508 19.1041 28.1465 19.2997C28.4741 19.2051 28.5584 19.3519 28.4936 19.6518L28.4903 19.6551C28.3703 20.18 27.8286 20.0627 27.5238 20.3007Z" fill="#EE9286"/>
<path d="M23.3299 18.3639C22.5352 17.7249 22.6261 17.5031 24.0013 16.6848C24.3905 16.5348 24.7797 16.2935 25.2014 16.5706C25.6004 16.8347 26.0966 17.1282 26.1226 17.601C26.155 18.2009 25.5322 18.2433 25.0944 18.3574C24.7927 18.4357 24.4554 18.403 24.3062 18.7682C23.8683 18.9084 23.5796 18.6802 23.3299 18.3639Z" fill="#EF887D"/>
<path d="M32.389 18.0281C32.1101 17.7086 31.9674 17.9824 31.8311 18.1716C31.4354 18.7258 31.4614 18.2628 31.3997 17.9955C31.643 17.3532 31.8863 16.7108 32.1295 16.0718C32.4896 15.7359 32.389 14.9436 33.1285 15.0088C33.2745 15.0219 33.4561 15.273 33.5178 15.449C33.7707 16.1794 33.3588 16.8184 33.135 17.4608C33.0507 17.7118 32.6485 17.8455 32.389 18.0281Z" fill="#ED7F73"/>
<path d="M22.9212 15.1458C22.3212 14.9828 21.3254 15.4458 21.1665 14.8621C20.9362 14.0013 21.4454 13.0362 21.3222 12.0548C21.28 11.719 21.9644 11.7288 22.1849 12.0842C22.4282 12.4787 22.5255 12.9678 22.6877 13.4145C22.8758 13.8709 22.7526 14.4806 23.3396 14.7382L23.3526 14.735C23.2099 14.8719 23.0639 15.0088 22.9212 15.1458Z" fill="#FCE5D8"/>
<path d="M31.3738 16.212C31.3479 17.0923 31.0267 17.5097 30.3521 17.5879C30.2483 17.601 30.018 17.3955 30.0245 17.3043C30.0829 16.5674 30.6764 16.437 31.3738 16.212Z" fill="#F9C4B7"/>
<path d="M25.2533 20.643C25.4933 20.6463 25.7333 20.6528 25.8631 20.9104C25.1268 21.5071 24.3905 22.1037 23.6575 22.7004C23.6478 22.5537 23.6348 22.407 23.6251 22.2602C23.638 22.1559 23.651 22.0548 23.6607 21.9505C23.9332 21.194 24.5105 20.8158 25.2533 20.643Z" fill="#E36F62"/>
<path d="M20.3848 25.198C20.0767 25.3838 20.0734 25.6936 20.0507 26.0033C20.0442 26.0718 19.9631 26.137 19.9145 26.2022C19.8496 26.075 19.7815 25.9511 19.7166 25.824C19.7556 25.1262 18.9447 24.8328 18.9058 24.1481C19.4085 24.0111 19.7037 24.3828 20.0669 24.5524C20.1707 24.7676 20.2778 24.9828 20.3848 25.198Z" fill="#FDEEE7"/>
<path d="M23.278 23.8383C23.3753 23.6623 23.4726 23.4829 23.5699 23.3069C24.0759 23.3329 24.5008 22.7232 25.036 23.1145C25.1041 23.1634 25.1073 23.4373 25.0392 23.5188C24.5495 24.109 23.8845 23.8351 23.278 23.8383Z" fill="#F4AB9C"/>
<path d="M31.0949 20.3137C31.6203 20.3398 32.3469 19.9648 32.389 20.9626C32.0679 20.9332 31.7436 20.9039 31.4224 20.8745C31.3122 20.6887 31.2019 20.4996 31.0949 20.3137Z" fill="#FEF0E6"/>
<path d="M23.3299 18.3639C23.6542 18.5009 23.9818 18.6345 24.3062 18.7715L24.2867 18.8726L24.2835 19.0062C24.1148 19.2182 23.9072 19.3453 23.6251 19.3062C22.6812 19.2638 23.1775 18.7584 23.3299 18.3639Z" fill="#F8C8BE"/>
<path d="M27.5238 20.3007C27.8449 20.0855 28.166 19.8703 28.4871 19.6551C28.5584 19.9029 28.766 20.2681 28.6752 20.3757C28.3087 20.8126 27.926 20.1963 27.5238 20.3007Z" fill="#F2A496"/>
<path d="M28.4903 19.6518C28.3736 19.5344 28.26 19.4171 28.1433 19.2997C28.3963 19.0062 28.5228 18.5596 29.0482 18.5726C29.2785 19.1595 28.9314 19.4301 28.4903 19.6518Z" fill="#F2A496"/>
<path d="M23.3072 27.4803C22.9601 27.3825 22.6131 27.2847 22.2693 27.1869C22.8466 27.1999 23.4694 26.9391 23.9559 27.4771C23.7386 27.4771 23.5245 27.4771 23.3072 27.4803Z" fill="#F9C7BC"/>
<path d="M24.5916 26.838C24.6532 27.0793 24.8187 27.3597 24.7506 27.5586C24.6662 27.8096 24.4165 27.6727 24.2511 27.5292C24.2673 27.2488 24.3094 26.9847 24.5916 26.838Z" fill="#FEF5EE"/>
<path d="M15.1627 14.3502C15.1271 14.6274 14.9941 14.8882 14.7151 14.8849C14.433 14.8817 14.261 14.6339 14.3356 14.3372C14.3973 14.0796 14.5692 13.8644 14.8741 13.8938C15.1336 13.9198 15.166 14.135 15.1627 14.3502Z" fill="#F5A89C"/>
<path d="M24.17 11.7646C23.8229 11.7483 23.6607 11.6016 23.7191 11.3668C23.8034 11.0245 24.0824 10.8582 24.4262 10.8647C24.6435 10.868 24.9095 11.0408 24.7992 11.2364C24.6565 11.481 24.3451 11.6244 24.17 11.7646Z" fill="#FAD9CF"/>
<path d="M23.3396 14.7415C21.9028 14.9045 22.6617 13.9785 22.6877 13.4177C23.0639 13.7796 23.265 14.2296 23.3396 14.7415Z" fill="#FBD5C9"/>
<path d="M23.6251 19.3095C23.771 19.0454 24.0045 18.9834 24.2835 19.0095C24.6078 19.554 24.9322 20.0985 25.2533 20.643C24.9062 21.3049 24.157 21.4745 23.6607 21.9472C22.0292 20.8321 22.026 20.3887 23.6251 19.3095Z" fill="#EB7D74"/>
<path d="M31.7306 24.4937C32.1685 24.6143 32.6193 23.9753 33.0507 24.5133C33.5567 25.2338 34.3805 24.6632 34.9838 24.9893C34.1762 25.3479 33.6572 26.2446 32.655 26.2316C32.2755 25.5925 31.1273 25.6544 31.1889 24.6111C31.3706 24.5719 31.5522 24.5328 31.7306 24.4937Z" fill="#FCE9E1"/>
<path d="M33.3686 21.2821C33.4172 20.5843 33.6345 20.1376 34.3092 20.8158C34.6822 21.1908 34.8995 21.7386 35.5612 21.6636C35.6682 21.8788 35.7785 22.0907 35.8855 22.3059C35.9147 22.4004 35.9309 22.495 35.9374 22.5928C35.7266 22.5961 35.5158 22.5961 35.3049 22.5993C34.7568 22.0124 34.0821 21.6179 33.3686 21.2821Z" fill="#F8BDB0"/>
<path d="M29.791 25.1817C29.3466 26.3978 28.8276 26.6196 27.2708 26.1794C27.7995 25.524 28.7076 26.1435 29.1585 25.5338C29.3661 25.4164 29.5801 25.299 29.791 25.1817Z" fill="#F4B2A6"/>
<path d="M30.4429 23.571C30.3845 23.0949 30.537 22.6743 30.7737 22.2733C31.1176 22.1983 31.4614 22.1233 31.9155 22.0255C31.5295 22.7656 31.0203 23.2025 30.4429 23.571Z" fill="#F29488"/>
<path d="M33.135 29.6747C33.6345 29.2736 34.134 28.8726 34.8768 28.2759C34.4162 29.4497 34.4162 29.4497 33.135 29.6747Z" fill="#FCE2D7"/>
<path d="M37.2089 17.1836C36.9624 17.3727 36.8196 17.5553 36.6445 17.5977C36.3915 17.6596 36.2812 17.4412 36.291 17.2162C36.3007 16.9945 36.4369 16.7826 36.6672 16.8119C36.8294 16.8315 36.9753 17.0141 37.2089 17.1836Z" fill="#F8CABD"/>
</svg>
