<svg width="48" height="57" viewBox="0 0 48 57" fill="none" xmlns="http://www.w3.org/2000/svg">
<path d="M2.2107 38.9174C1.85606 38.4208 0.676504 38.2909 1.47444 37.2825C2.36489 37.2252 1.964 36.0259 3.23222 36.0144C1.74042 35.4338 0.799856 34.9487 1.06198 33.5889C2.38031 32.9701 3.69479 32.3093 5.23669 32.6225C7.44548 33.6271 8.66358 36.1519 11.3311 36.488C11.7782 36.5453 12.0828 37.0113 12.4258 36.2283C12.6417 35.7356 13.1814 36.1405 13.509 36.4804C13.8945 36.8853 14.068 37.4735 14.6462 37.7791C14.2491 37.1259 13.6015 36.6867 13.4165 35.9495C13.5013 35.5942 13.8097 35.4147 14.0217 35.1588C14.3609 34.5133 13.9947 33.9862 13.7095 33.4667C13.3857 32.8823 13.5399 32.5652 14.1913 32.4468C16.0378 32.5996 17.73 33.3597 19.5148 33.7608C21.7582 34.4407 24.0711 34.88 26.2567 35.7508C27.1202 36.1099 27.6483 36.7974 28.0685 37.5843C28.3923 38.3482 28.9474 39.0396 28.8317 39.9449C27.5866 40.3803 26.33 40.8616 25.3239 39.5782C25.4241 40.3994 26.8697 41.2894 25.0579 41.9311C24.5876 41.996 24.1251 41.9655 23.6741 41.8165C23.4119 41.721 23.1768 41.5797 22.9494 41.4231C22.1591 40.2963 21.2533 39.9983 19.9234 40.6897C19.1755 41.0755 18.1887 40.8119 17.333 41.0411C16.3577 41.0411 15.4287 40.8883 14.65 40.2122C14.8543 40.5942 15.3131 40.7203 15.5366 41.0793C15.926 41.6293 14.6269 42.145 15.5058 42.6988C16.2575 43.1725 18.8826 43.226 19.164 42.6721C19.4646 42.0839 19.8655 41.8432 20.4515 41.7554C21.0297 41.7783 21.3728 42.2405 21.8353 42.4811C24.0904 43.1076 24.2368 43.5277 22.8954 45.449C22.5716 45.9112 22.2362 46.3581 21.7659 46.6866C19.8655 47.5308 18.898 47.3512 17.5565 45.8997C15.7486 43.9441 14.3224 43.9135 12.4567 45.7928C10.3134 45.9227 8.74068 44.8532 7.34911 43.4055C7.24888 43.2489 7.18335 43.0808 7.14866 42.8975C7.08698 42.4506 8.13934 41.7554 6.92123 41.5911C6.12329 41.4842 7.51486 40.2008 6.12329 40.4185C5.1172 40.5751 5.06323 39.3452 4.52356 38.8028C4.17663 38.4552 3.54445 38.3979 3.27462 39.1083C2.87758 39.2573 2.54221 39.0931 2.2107 38.9174Z" fill="#80AC3B"/>
<path d="M1.53997 24.0626C1.04656 23.2528 1.15449 22.3438 1.1622 21.469C1.16606 20.9381 0.880806 20.1933 1.50528 19.9412C1.78668 19.8266 2.3302 20.3384 2.81205 20.5982C3.44037 19.204 3.42495 17.8174 3.21294 16.3201C2.88143 13.9977 3.22836 13.6998 5.41016 13.612C5.44485 13.6922 5.47955 13.7724 5.51809 13.8564C5.33692 14.4714 4.57753 14.4179 4.26144 14.9527C5.79178 14.3148 5.71469 16.2093 6.71693 16.4194C6.66681 18.4744 5.71083 20.0749 4.29999 21.3659C4.80496 21.0833 5.48725 21.2704 6.12329 21.1329C6.55503 21.4156 6.86341 21.3315 7.02916 20.8235C8.50168 21.1673 9.82772 20.411 11.2386 20.2658C11.7744 20.304 12.2447 20.5523 12.7419 20.7089C13.7789 21.4614 15.2128 21.1826 16.2151 22.0229C16.4849 22.2062 16.7432 23.0504 17.0361 22.0344C17.4949 21.7135 17.9767 22.0458 18.4354 21.9236C17.9459 22.0191 17.3137 20.5829 16.959 22.1031C16.7046 22.2865 16.4656 22.2635 16.2382 22.0535C15.3979 21.0603 13.96 21.5607 13.0272 20.7891C12.4181 20.4224 11.4197 20.453 11.5547 19.3453C12.2061 19.1772 12.8537 19.3033 13.031 18.1956C13.1968 17.1795 14.1798 17.5386 14.8621 18.0351C15.367 18.6807 16.111 18.5279 16.7894 18.6119C18.4508 18.8182 19.8964 19.33 20.3898 21.1596C20.7097 22.3934 21.6619 23.3789 21.7968 24.689C21.7235 25.1856 21.5385 25.5905 21.1607 25.9839C20.3127 26.8777 20.359 26.9159 19.2102 26.8624C18.0577 26.5454 16.8704 26.3162 15.8412 25.6516C17.0593 26.3926 18.4431 26.6562 19.7884 27.0534C20.9642 27.401 22.3133 27.5385 22.9609 28.8449C22.6256 30.0099 21.5347 29.8456 20.7444 30.1435C20.463 29.9717 20.6404 30.5102 20.6365 30.2581C22.0204 30.4453 21.7428 31.5186 21.8161 32.4086C23.3464 32.5881 23.0766 30.4338 24.4527 30.3956C25.7132 31.5568 26.2221 33.1229 26.7771 34.6584C26.9467 35.1244 27.0238 35.6744 26.3493 35.9151C24.3371 35.3192 22.3789 34.5362 20.3011 34.1657C20.1354 34.0931 19.9773 33.9976 19.8308 33.8907C18.7477 32.7409 16.6545 32.993 15.9954 31.2054C15.9607 31.1137 15.4403 31.5988 15.0432 31.469C13.3471 30.4797 12.6571 28.9556 12.6725 27.0649C13.5399 26.3468 12.237 26.343 12.2794 25.9037C12.1097 25.7891 12.6533 25.3957 12.1367 25.4415C10.6102 25.579 9.30733 24.7883 8.36677 23.9175C7.299 22.9282 6.42782 22.9893 5.30994 23.4094C5.14033 23.4667 4.96301 23.5049 4.78569 23.5279C4.512 23.8678 3.89138 22.6646 3.62926 23.9518C3.37099 25.2123 2.27623 24.2536 1.53997 24.0626Z" fill="#82AD3D"/>
<path d="M10.7336 1.46536C11.2656 1.84732 11.7975 2.22547 12.3295 2.60744C12.9115 2.75641 13.5244 2.85954 13.775 3.52417C14.6231 3.97871 15.3092 4.87633 16.4656 4.46763C16.5389 4.44089 16.6352 4.47909 16.643 4.49819C17.8225 6.81673 19.2681 4.73119 20.5864 4.73119C21.1068 4.91835 21.1839 5.3156 21.0914 5.78924C20.2819 6.50352 20.9911 6.69068 21.5077 6.94278C21.658 7.05737 21.7505 7.20634 21.7968 7.38587C21.5462 9.67004 20.9063 11.8167 19.6111 13.7456C18.9712 14.3377 18.2465 14.7693 17.3754 14.9412C16.138 14.479 16.2768 13.1727 15.7178 12.2942C15.7679 12.1223 15.872 11.9924 16.03 11.9122C17.2058 11.5073 16.0108 11.1903 15.9799 10.8312C15.5983 9.73497 16.0416 8.58907 15.7409 7.489C15.8335 7.85569 15.845 8.2262 15.8373 8.60053C15.8296 9.04361 15.8874 9.6051 15.4248 9.78081C14.7503 10.0367 14.6308 9.36446 14.3764 8.95958C14.253 8.76477 14.1489 8.54705 13.9523 8.4783C14.4689 9.06653 14.8196 9.79227 15.1704 10.5218C15.3478 11.9962 16.4502 13.2223 16.3384 14.777C14.5305 15.3155 13.3587 14.2078 12.1483 13.1918C11.6163 12.7449 11.0767 12.3056 10.6719 11.7327C10.3635 11.1788 10.1978 10.4836 9.38057 10.4072C9.21096 10.3423 9.06448 10.243 8.93727 10.1169C8.30124 8.61962 8.26654 7.06501 8.46699 5.48748C8.61733 4.13531 8.76766 2.78697 8.91414 1.4348C10.5755 1.63342 9.53476 3.02379 9.89326 3.68077C10.2517 3.01233 9.39599 1.87406 10.7336 1.46536Z" fill="#7AA63A"/>
<path d="M1.53997 24.0626C1.73271 23.8372 1.2817 23.3139 1.90617 23.291C1.90232 24.3911 2.75422 24.4637 3.29004 24.0511C3.97619 23.524 2.80819 23.0466 2.90456 22.2597C3.65238 22.5806 4.1458 23.4591 5.05167 23.2108C5.33692 23.7991 5.82262 24.1505 6.46251 24.3262C6.01536 23.9136 5.38318 23.7418 5.05552 23.207C6.26977 22.6073 7.2643 21.8281 8.52867 23.5393C9.16856 24.4064 10.6912 25.1398 12.129 25.1016C13.27 25.071 12.6186 25.5179 12.3757 25.8731C11.9401 26.1367 11.4313 25.9915 10.9726 26.1176C10.2556 26.2245 9.58873 26.0336 8.90643 25.8349C8.18559 25.6249 7.41464 25.4148 6.83257 26.1711C6.80559 26.3353 6.76704 26.4957 6.73234 26.6562C6.62441 27.9128 7.07542 28.8105 8.44386 28.2757C9.60415 27.825 9.97806 28.2566 10.1901 29.1848C10.2749 29.5591 10.3134 30.1512 10.7259 29.964C12.5954 29.1008 13.5206 31.2016 15.0741 31.2245C15.606 31.0221 16.1573 30.1856 16.6044 31.3697C17.198 32.9434 19.2603 32.2635 20.0814 33.524C18.8556 34.2115 17.7416 33.459 16.6352 33.1687C15.7294 32.9319 14.8274 32.6111 13.9253 32.3322C12.5338 31.9197 11.9132 33.2871 10.8569 33.65C10.6796 33.6729 10.5139 33.6424 10.3558 33.5583C9.6427 32.5614 8.87174 32.9778 8.06609 33.4399C8.37833 33.7455 8.78694 33.7875 9.11074 33.9785C9.26493 34.0625 9.39599 34.1771 9.50778 34.307C10.1631 35.9724 11.5662 34.5476 12.5145 35.0136C12.9732 35.1282 13.3895 35.3001 13.5283 35.812C14.2646 36.6408 14.997 37.4659 15.9028 38.4857C13.8868 38.7684 13.6671 37.1106 12.8653 36.3162C11.917 36.7325 12.9077 37.3666 12.6995 37.6301C9.69666 36.6332 7.05229 35.1626 5.05552 32.7486C5.03239 32.6645 5.01312 32.5805 4.98999 32.4965C5.29837 32.019 5.81106 32.0419 6.24664 31.977C5.70698 31.7211 4.86664 32.7677 4.46574 31.6179C4.46574 31.4499 4.50043 31.2894 4.56982 31.1367C4.81267 30.2581 3.91451 30.2238 3.54445 29.8074C3.11272 29.3185 2.07193 28.9785 2.39188 28.3139C2.81205 27.4468 3.53674 28.5202 4.15736 28.4629C4.273 28.5775 4.4696 28.6004 4.52356 28.7876C4.56211 28.566 4.29228 28.6577 4.23445 28.5125C3.76417 28.2948 3.27462 27.9625 2.8159 27.9663C1.17762 27.9892 1.72115 27.0725 1.964 26.2475C1.37422 25.6096 1.53997 24.8189 1.53997 24.0626Z" fill="#7BA638"/>
<path d="M33.2878 6.07572C35.2731 6.36601 35.2538 8.13834 35.8397 9.46377C35.4195 10.1513 36.1211 11.0604 35.3116 11.7174C34.9107 12.0459 35.4465 12.3438 35.647 12.6303C35.9746 13.1001 36.7109 13.4439 36.1674 14.2002C35.4966 14.5134 34.9762 14.2231 34.5214 13.8106C34.7681 14.5134 34.8837 15.1742 33.8506 15.3766C33.4844 14.712 33.0604 15.285 32.6595 15.327C31.8269 15.0596 31.106 14.2919 30.1 15.2162C29.5372 15.7357 28.9512 15.1398 28.6236 14.5325C28.5041 13.3102 27.6329 11.8816 29.541 11.2056C29.9188 11.1139 30.3428 11.1635 30.655 10.8694C30.231 10.0329 29.8147 9.2155 31.133 8.75713C31.4453 8.65018 31.4722 8.26439 31.4684 7.94354C31.4645 7.77165 31.5031 7.61123 31.5686 7.45462C32.0582 6.89313 32.4475 6.2094 33.2878 6.07572Z" fill="#82AF40"/>
<path d="M35.1536 46.9502C35.1189 47.187 35.0842 47.4238 35.0495 47.6606C34.7257 48.7569 34.2477 48.6996 33.6618 47.844C32.9563 45.2122 33.9894 42.9128 35.0803 40.6286C35.4928 40.1549 36.0633 39.815 36.3254 39.2038C36.0748 39.5896 35.8127 39.9601 35.3694 40.1549C35.169 40.132 35.0263 40.0289 34.9338 39.8532C35.3463 37.7142 35.8436 35.6095 37.185 33.8104C37.5011 33.7722 37.717 33.9327 37.8943 34.1657C38.1873 34.7463 37.8403 35.8081 38.7385 35.8845C39.787 35.9724 39.8756 34.6431 40.6158 34.1771C41.4137 34.0778 41.6219 33.1535 42.3504 32.9587C43.3102 33.1917 43.3642 31.8968 44.1776 31.8853C44.3665 31.9197 44.4937 32.0305 44.5669 32.2024C44.6556 33.3406 44.2971 34.3299 43.5492 35.1894C43.2678 35.5331 42.9826 35.8731 42.601 36.1137C42.0459 36.3926 41.5833 36.7134 41.8763 37.4468C41.0668 39.3223 39.2782 40.1397 37.7285 41.213C37.185 41.5911 36.3023 41.7783 36.9537 42.7409C37.0617 42.886 37.1233 43.0464 37.1542 43.2183C37.0732 43.6843 36.7494 44.0816 36.3948 44.2267C35.0688 44.7653 35.0957 45.8348 35.1536 46.9502Z" fill="#80AC3C"/>
<path d="M40.8895 15.5982C43.6957 14.9297 43.8075 15.0252 43.9925 18.2147C44.0195 18.7189 44.1159 19.2345 44.0465 19.7273C43.8615 20.9839 44.6594 20.9954 45.5267 20.9648C46.1898 22.275 44.9832 23.5202 45.3957 24.8227C45.3224 24.9946 45.2068 25.1207 45.041 25.2085C44.0966 24.563 43.4799 26.3162 42.732 25.6325C42.1268 25.0786 42.1114 24.013 41.2479 23.5126C40.6081 23.1421 40.8124 22.7028 41.3443 22.3552C42.4275 22.0496 41.3983 21.2742 41.6835 20.8464C41.6103 21.2857 41.7799 21.8281 41.4253 22.275C40.0877 22.7486 40.3421 21.6486 40.2457 21.0298C40.0645 19.8801 40.3382 18.6272 39.3707 17.6837C39.2627 17.5424 39.2011 17.3858 39.1895 17.2101C39.2473 16.767 39.4786 16.4271 39.8063 16.1368C40.1146 15.8579 40.5155 15.751 40.8895 15.5982Z" fill="#7DAC3E"/>
<path d="M19.854 51.4192C18.7592 50.64 17.8341 51.6598 16.8164 51.7057C16.0956 51.7362 15.236 52.2175 15.2013 50.8959C15.1859 50.3688 14.731 50.4108 14.3455 50.4223C14.0294 50.4337 13.7133 50.4643 13.3972 50.4643C10.4599 50.4643 10.4599 50.4643 10.3288 48.0999C10.2517 47.6224 9.77376 47.2061 10.1168 46.6637C10.3327 46.3199 10.7953 45.9074 11.0111 46.0984C12.6995 47.6033 15.0201 46.7974 16.8395 47.7408C17.2636 47.8974 17.7377 47.9967 18.1425 47.8898C20.3898 47.3016 20.6982 49.6316 22.0242 50.4299C22.4405 50.682 22.0319 51.2473 21.5462 51.3734C20.995 51.5223 20.4206 51.4956 19.854 51.4192Z" fill="#80AC3F"/>
<path d="M12.3757 45.7355C12.846 44.2 14.8312 43.5736 16.4772 43.9823C17.6992 44.284 17.8032 45.3459 18.4586 45.98C19.5109 46.996 20.463 46.954 21.6195 46.4956C21.7197 46.488 21.8238 46.4803 21.924 46.4727C23.4389 46.3543 24.9538 46.2321 26.4572 46.5835C26.9236 46.7706 27.3322 47.0495 27.8449 47.1793C29.7916 47.6759 29.8764 47.9815 28.6775 49.6125C28.2265 50.1281 27.6907 50.5101 27.0046 50.6476C25.6438 50.8539 24.765 50.4872 24.7611 48.9211C24.7572 47.8745 24.1559 47.5231 23.1575 47.7752C22.0011 47.7905 20.8447 47.7867 19.6882 47.7943C18.5935 47.7599 17.4949 47.8745 16.4078 47.6453C15.4326 47.4505 14.4265 47.3703 13.5013 46.954C12.9617 46.7057 12.2408 46.6102 12.3757 45.7355Z" fill="#85B240"/>
<path d="M33.9817 48.0197C34.5561 48.5315 34.7372 47.8936 35.0533 47.6568C34.9184 50.3038 36.6569 51.9348 38.3723 53.5429C39.0623 54.1885 39.9219 54.6506 40.7083 55.193C41.2171 55.5444 41.9765 55.8042 41.3443 56.6178C40.7507 57.3817 40.1725 56.824 39.706 56.465C38.0909 55.2198 36.5374 53.9173 35.4658 52.1373C34.6794 50.8271 33.762 49.6201 32.3781 48.8485C32.9178 48.5086 32.3743 48.2909 32.2779 48.0159C32.1969 47.6186 32.2201 47.1984 31.9734 46.847C30.7668 44.7882 28.3769 44.4903 26.596 43.2909C26.3724 43.1152 26.2066 42.9013 26.1411 42.6225C26.1719 42.3169 26.357 42.1412 26.6307 42.0419C27.6946 41.8853 28.5542 42.4926 29.5179 42.8096C29.7183 42.3933 29.3213 41.9884 29.4909 41.5797C29.5911 41.2168 29.7646 40.8998 30.0807 40.6744C30.2696 40.6248 30.4469 40.6515 30.6165 40.7394C31.8038 42.2672 32.382 44.1045 33.2493 45.7966C33.8853 46.4154 33.5692 47.3359 33.9817 48.0197Z" fill="#BDD369"/>
<path d="M20.8639 6.0146C20.8408 5.59825 20.9217 5.14371 20.4707 4.86869C20.3474 4.74646 20.2741 4.5975 20.251 4.42561C20.2587 3.96725 20.4862 3.61966 20.8292 3.337C22.2208 1.33549 22.2208 1.33549 23.7858 2.95121C24.2291 3.40958 24.6801 3.8603 25.1234 4.31866C25.9021 5.12461 26.5343 5.75868 27.3322 4.20025C28.0184 2.85954 28.7893 3.38284 29.2866 4.50964C28.8202 6.16739 27.6907 7.09557 26.0177 7.41642C25.8404 7.35531 25.6901 7.24836 25.559 7.11467C24.4566 9.01305 23.3849 7.79075 22.294 7.09557C22.1938 7.03064 22.0589 7.14905 21.9895 7.2751C21.843 7.31711 21.7274 7.28274 21.631 7.17196C21.5038 7.16814 21.3766 7.16432 21.2494 7.16432C20.8871 6.85493 20.7868 6.46532 20.8639 6.0146Z" fill="#82AC45"/>
<path d="M43.21 35.0442C43.9733 34.1657 44.0928 33.0465 44.3665 31.9885C44.4551 31.6829 44.671 31.4461 44.829 31.1787C45.4149 30.1894 46.421 29.9411 47.2575 30.4224C48.1634 30.9419 47.1457 31.6905 47.0532 32.3475C46.8335 32.8708 46.5907 33.3826 46.4018 33.9136C46.2399 34.3719 45.0063 35.0251 46.6947 35.2161C47.3616 35.2925 47.0147 36.0946 46.7757 36.4689C46.0664 37.5843 45.4265 38.7951 44.0388 39.2764C43.1175 39.5858 42.3928 39.1695 41.6951 38.6538C41.3636 37.7944 42.2695 37.5194 42.5431 36.9464C42.8477 36.3353 43.291 35.789 43.21 35.0442Z" fill="#7BA839"/>
<path d="M37.0462 43.0655C36.9152 43.0617 36.7841 43.0617 36.6531 43.0579C36.8111 41.3085 38.3299 40.896 39.5326 40.1702C40.3228 40.1244 41.0706 39.0243 41.911 40.0976C42.4661 40.8119 42.7243 41.5186 42.0574 42.2978C41.5987 42.8058 40.6774 43.0082 41.0899 44.051C41.3636 44.7424 40.6736 44.8875 40.2264 45.0136C39.1972 45.3039 38.141 45.5178 37.1002 45.7622C36.6878 45.9685 36.2175 46.0793 35.8975 45.7164C35.4812 45.2466 36.125 45.0098 36.2329 44.6583C36.4102 44.0625 37.5666 43.9746 37.0462 43.0655Z" fill="#7CA93D"/>
<path d="M23.5546 47.2634C24.8844 46.8699 25.135 48.0006 25.1813 48.7187C25.2661 49.9944 25.9638 50.4146 27.0084 50.6476C26.1218 51.0487 25.3663 52.1029 24.1983 50.9494C23.9747 50.7278 22.9609 51.4115 22.2902 51.4879C21.4923 51.5834 20.6211 52.6682 19.854 51.4192C20.5054 51.232 21.153 51.0487 21.9548 50.8195C21.2725 50.0135 19.2603 50.2924 20.0621 48.5086C19.7576 48.4742 19.4531 48.4551 19.1524 48.4093C18.3082 48.2794 17.3754 48.7378 16.616 48.035C16.6776 47.97 16.7393 47.9051 16.801 47.8363C18.4123 47.695 20.0583 47.1526 21.5616 48.245C21.6888 46.8508 23.0072 47.8287 23.5546 47.2634Z" fill="#7DA73E"/>
<path d="M40.8895 15.5982C40.635 15.8426 40.3806 16.0871 40.1262 16.3277C39.5326 15.0214 39.5711 13.5088 38.7847 12.2636C38.6151 11.9962 38.5226 11.6639 38.0986 11.7861C37.9791 11.8205 37.902 11.9313 37.8557 12.0573C37.7208 12.4202 37.8827 12.5195 38.2142 12.7334C40.0799 13.9366 40.0877 14.7426 38.3453 16.0107C38.2913 16.2819 38.1217 16.4423 37.8712 16.5378C36.1596 16.2857 35.6624 15.5065 36.2676 14.0321C35.7742 13.1383 34.9146 12.5883 34.0164 11.7212C35.8628 11.8052 34.9493 10.0444 35.8358 9.4676C36.2907 10.4072 36.7687 11.1521 37.9406 10.1933C38.8927 9.41412 39.2319 10.2583 39.6444 10.9267C40.5271 12.3667 40.3421 14.078 40.8895 15.5982Z" fill="#77A137"/>
<path d="M20.4283 4.37978C20.4438 4.54402 20.4553 4.70827 20.4707 4.87251C20.0429 5.12461 19.4338 5.27358 19.2141 5.64409C18.3236 7.17196 17.73 6.37365 17.1017 5.4722C16.4271 4.50201 15.2051 5.28886 14.4265 4.64333C14.0988 4.37214 13.1428 4.62805 13.6208 3.68841C14.2145 3.00851 14.3648 2.05741 15.0471 1.4348C15.5675 0.770173 16.0455 0.609747 16.6854 1.36604C17.2019 1.97337 17.8803 2.45083 18.4855 2.98941C19.2064 3.3561 19.9426 3.69605 20.4283 4.37978Z" fill="#7AA23C"/>
<path d="M12.3757 45.7355C13.3972 46.8929 14.8543 46.9731 16.2266 47.2672C16.3847 47.4162 16.6083 47.4773 16.747 47.653C16.7856 47.8058 16.747 47.928 16.616 48.0197L16.6121 48.0311C15.394 47.737 14.0718 47.8478 12.9617 47.1641C12.3873 46.8088 12.2639 47.1297 12.0249 47.546C11.9132 47.7408 11.5277 47.9777 11.254 47.5575C11.0266 47.2099 11.6086 46.3619 10.7683 46.4803C9.66197 46.6369 10.988 47.6835 10.3211 48.0999C8.97197 47.6148 7.41078 47.8287 6.20039 46.8814C6.0462 46.5873 6.22737 46.4039 6.42396 46.2282C7.19492 45.7661 7.62665 45.1664 7.22576 44.2344C7.17179 44.0739 7.13324 43.9135 7.10626 43.7454C7.09084 43.4819 7.14866 43.2412 7.35296 43.0579C8.80621 44.3719 10.5409 45.1511 12.3757 45.7355Z" fill="#79A438"/>
<path d="M25.8636 7.16432C27.3091 6.66395 28.3268 5.62499 29.2827 4.50964C29.4215 4.63569 29.5603 4.75792 29.6991 4.88397C30.7167 5.46839 31.7652 6.02988 31.6843 7.4508C31.6688 7.61123 31.6573 7.77165 31.6419 7.93208C30.5548 7.67234 30.2156 8.74567 29.5911 9.1964C28.6351 9.88394 27.9644 9.95269 27.1665 9.14292C26.9082 9.05889 26.6615 8.95576 26.4302 8.81443C25.9561 8.35989 25.3817 7.93972 25.8636 7.16432Z" fill="#779E3C"/>
<path d="M4.28071 28.5507C3.7449 28.4743 3.20523 28.4018 2.24154 28.2643C3.43652 29.139 4.36937 29.7157 5.16731 30.4377C6.15798 31.3315 5.1596 31.1596 4.66619 31.2245C3.64853 30.2887 2.63087 31.6294 1.61321 31.2207C2.08349 30.155 1.00416 29.6852 0.661085 28.9556C-0.337301 26.8433 -0.240931 26.5378 1.96785 26.2589C1.67103 28.0771 3.72563 27.5729 4.28071 28.5507Z" fill="#85AF41"/>
<path d="M47.0571 32.3513C47.138 31.8166 47.2228 31.278 47.2922 30.812C45.7195 29.8036 45.4342 31.7898 44.3665 31.9885C44.0542 30.1206 42.8824 28.0656 45.5152 26.8433C45.7041 26.851 45.8544 26.9312 45.9739 27.0725C46.1975 27.9319 45.2954 29.6203 47.5196 29.0167C47.9128 28.9098 48.0709 29.6737 47.9707 30.1015C47.7856 30.8922 47.7355 31.7555 47.0571 32.3513Z" fill="#82B042"/>
<path d="M8.45928 5.48748C8.73682 7.06501 9.01822 8.64636 9.29577 10.2239C9.41912 10.5371 9.23409 10.7014 8.99895 10.8427C8.31666 11.091 7.51101 10.8274 6.89039 11.3469C6.76318 11.4462 6.63598 11.5455 6.51648 11.6486C5.91899 12.2063 6.70536 13.4821 5.441 13.6845L5.4063 13.6158C5.42943 12.6074 5.37161 11.5875 5.49496 10.5906C5.58748 9.86866 5.12105 8.30641 6.93665 9.36828C7.49173 9.69296 7.61509 8.99395 7.71917 8.58907C7.98129 7.55775 8.21258 6.52262 8.45928 5.48748Z" fill="#83B048"/>
<path d="M42.0536 42.2978C42.015 40.1397 41.8416 39.9945 39.733 40.3765C39.9103 39.2726 40.5849 38.6729 41.672 38.4819C42.4622 38.7493 43.2524 39.0129 44.0465 39.2802C44.5284 41.0296 43.9463 42.0877 42.0536 42.2978Z" fill="#80AE41"/>
<path d="M2.2107 38.9174C2.64244 38.8983 3.07802 38.8792 3.50976 38.8639C4.26144 39.2535 4.91675 39.6966 4.6315 40.7088C4.42719 41.4345 4.95144 41.8432 5.3639 42.2978C5.8072 42.9891 5.76094 43.5659 4.97457 43.9784C4.40021 43.7302 3.81043 43.5124 3.25534 43.226C2.58076 42.8784 1.77897 42.4429 1.80981 41.6408C1.84835 40.6095 3.0549 41.5835 3.45965 40.9036C3.38641 40.0556 2.47668 39.6775 2.2107 38.9174Z" fill="#85AE46"/>
<path d="M1.61321 31.2207C2.63087 31.129 3.65238 29.0511 4.66619 31.2245C4.14194 31.8968 4.88206 32.252 5.05167 32.7524C3.71406 32.7524 2.60774 33.8868 1.1969 33.5201C0.788292 33.5278 0.634101 33.3062 0.722761 32.9434C0.792147 32.6531 1.02343 32.5958 1.29712 32.6913C1.40505 32.1985 1.50913 31.7096 1.61321 31.2207Z" fill="#7CA63B"/>
<path d="M32.4205 48.0197C32.594 48.1839 32.887 48.3367 32.9139 48.5201C32.9602 48.8485 32.567 48.7416 32.3781 48.8485C31.0598 48.6881 29.8224 48.9249 28.6814 49.6087C28.9782 48.1228 28.9782 48.1228 27.1433 47.5919C26.7887 47.4887 26.6923 47.2137 26.6422 46.8967C28.5966 45.9876 30.5702 46.3696 32.4205 48.0197Z" fill="#80A73E"/>
<path d="M1.29712 32.6913C0.915499 32.9281 0.73818 33.1878 1.1969 33.524C1.4012 34.7463 1.79053 35.7012 3.40953 34.7997C3.47892 36.3429 2.61545 36.9235 1.47059 37.2864C2.22227 36.7478 1.80981 36.278 1.42818 35.747C0.957902 35.0939 0.433653 34.4331 0.159965 33.692C-0.206238 32.6722 0.0096285 32.0076 1.29712 32.6913Z" fill="#8DB34D"/>
<path d="M37.0462 43.0655C37.3045 43.2489 38.407 42.6607 37.69 43.7225C37.3739 44.1923 36.5991 44.3299 36.7263 45.1396C36.7726 45.4261 35.8243 44.9257 36.2098 45.6133C36.3023 45.7775 36.788 45.7202 37.0925 45.7622C36.4372 46.1442 35.593 46.2244 35.1536 46.9502C34.5792 45.9188 33.9779 44.9372 35.7125 44.3108C36.2367 44.1198 36.6068 43.4933 37.0462 43.0655Z" fill="#87B643"/>
<path d="M10.7336 1.46536C9.82772 2.39736 10.3558 3.54326 10.3712 4.75792C8.66358 4.02454 10.379 2.06123 8.91029 1.4348C8.85632 0.884764 8.71755 0.0749908 9.34588 0.00623645C10.1785 -0.085436 10.3828 0.854206 10.7336 1.46536Z" fill="#84AE47"/>
<path d="M4.97843 43.9746C5.30994 43.4284 5.47184 42.8784 5.05167 42.2978C4.83965 41.3352 5.26753 41.1633 6.05776 41.5338C6.71693 41.8394 6.89425 42.5804 7.36453 43.0617C7.36453 43.3138 7.36453 43.5697 7.36453 43.8218C6.97905 44.6507 6.31218 44.4062 5.67228 44.2649C5.38703 44.2955 5.13262 44.2573 4.97843 43.9746Z" fill="#80AC3B"/>
<path d="M45.1374 25.113C44.4859 23.6577 45.2839 22.3361 45.5229 20.9648C45.6501 20.9725 45.7734 20.9763 45.9007 20.9839C46.3208 22.1833 45.9932 23.4209 46.0857 24.6356C46.0009 25.2391 45.6848 25.3957 45.1374 25.113Z" fill="#7BA839"/>
<path d="M5.67228 44.2649C6.23508 44.116 6.80173 43.9708 7.36453 43.8218V43.8257C7.9119 44.9448 7.21419 45.7088 6.58972 46.4956C6.46251 46.6255 6.3353 46.7554 6.2081 46.8852C5.30994 46.5567 5.37932 46.0067 6.0115 45.5407C7.07927 44.7538 5.90742 44.6545 5.67228 44.2649Z" fill="#85AE46"/>
<path d="M45.1374 25.113C45.4535 25.1092 45.7387 25.0443 45.9084 24.7387C45.9893 24.7349 46.0664 24.7349 46.1474 24.7311C46.1705 25.5179 46.3401 26.3124 45.9739 27.0687L45.8197 26.9656C45.1027 26.5301 44.459 26.0603 45.1374 25.113Z" fill="#82B042"/>
<path d="M46.1512 24.7311C46.0703 24.7311 45.9932 24.7349 45.9122 24.7387C45.9084 23.4858 45.9045 22.233 45.9045 20.9801C46.7371 22.1833 46.3594 23.4629 46.1512 24.7311Z" fill="#82A744"/>
<path d="M12.3796 35.4185C12.0635 35.3765 11.6202 35.1779 11.4544 35.3154C9.92795 36.5874 9.5656 35.5484 9.28035 34.2955L9.34588 34.2001L9.27264 34.2879C8.36677 34.2573 7.55341 34.0549 6.77475 32.7333C8.15475 33.7608 9.63499 30.6707 10.4483 33.5469C10.5871 33.6462 10.7374 33.8563 10.8223 33.501C11.493 32.592 12.2447 31.828 13.5283 31.9923C13.7442 32.1985 14.1412 32.3131 13.9215 32.7448C14.0641 33.6347 15.5328 34.3414 14.3031 35.4262C13.6671 35.8196 13.0272 34.7883 12.3796 35.4185Z" fill="#85B03E"/>
<path d="M26.2529 35.7776C26.727 34.4063 25.7017 33.4552 25.2507 32.3513C24.9885 31.7058 24.6185 31.1023 24.2947 30.4797C23.6856 30.197 23.4119 29.6508 23.1922 29.0702C23.0187 28.482 22.6602 27.974 22.4559 27.3972C22.2439 26.893 22.0011 26.3926 22.1707 25.8235C22.8183 24.9526 23.038 25.8006 23.3965 26.1176C23.6895 26.6065 23.8861 27.1566 24.2368 27.6073C24.896 28.4591 24.711 27.3017 25.0039 27.2673C25.428 26.9006 25.8212 26.8013 26.145 27.3819C25.8173 30.3613 27.0161 32.9778 28.1649 35.5981C28.2921 36.0832 28.7084 36.4422 28.7701 36.954C28.7585 37.1107 28.7084 37.2558 28.6159 37.3895C28.3537 37.5385 28.0723 37.6569 27.7794 37.7371C27.2628 37.2252 27.0046 36.4689 26.2529 36.1825C26.1565 36.0946 26.1257 36.0029 26.1565 35.9151C26.1874 35.8234 26.2221 35.7776 26.2529 35.7776Z" fill="#B5CE66"/>
<path d="M29.6644 41.5873C29.9149 42.2176 30.1693 42.8478 30.5317 43.7531C29.0746 43.2069 27.9451 42.4849 26.6384 42.294C26.1411 41.9922 25.1658 42.6836 25.0656 41.5491C25.559 41.4956 25.6978 41.3505 25.4126 40.8425C25.0849 40.2619 24.9076 39.6011 24.765 38.841C25.8134 40.2161 27.3746 39.4521 28.6043 39.9258C29.5603 40.1053 29.6567 40.8196 29.6644 41.5873Z" fill="#82B13D"/>
<path d="M7.36453 43.0617C6.5743 43.0694 6.43553 42.3092 6.0115 41.9005C5.29066 41.2092 5.32535 42.0686 5.05167 42.2978C4.24987 42.2137 3.74875 41.3734 4.01473 41.0258C4.83965 39.9563 3.5406 39.5896 3.50976 38.8601C3.06646 37.3895 4.44261 38.7875 4.65848 38.1687C4.71245 38.0083 5.39859 38.119 5.54508 38.5812C6.03078 40.1397 6.02692 40.1435 7.8271 39.6164C5.87659 41.2474 7.69989 41.5377 8.44772 42.1947C8.06224 42.5613 7.25274 42.2558 7.36453 43.0617Z" fill="#7AA43B"/>
<path d="M20.4707 41.9196C20.49 42.42 19.5533 41.9808 19.6767 42.8746C19.7576 43.4819 18.844 44.0205 17.9343 43.7034C17.4023 43.5201 16.8357 43.2909 16.2922 43.31C15.6253 43.3329 14.8967 43.2718 14.5961 42.7982C14.0834 41.9808 15.2861 41.7783 15.4634 41.1519C17.1865 41.0526 18.9944 40.407 20.4707 41.9196Z" fill="#7BA636"/>
<path d="M26.2683 42.6607C26.3955 42.7905 26.5227 42.9204 26.6499 43.0541C26.1681 43.818 25.1389 43.7989 24.5953 44.475C24.0942 45.0136 23.4543 45.4643 23.4505 46.3085C22.8568 46.4689 22.2902 46.8432 21.6387 46.5109L21.6195 46.4956C21.897 46.0831 22.2131 45.6935 22.4367 45.258C22.8761 44.3986 24.7996 43.0464 21.8045 43.1839C21.7505 43.1878 21.685 42.8631 21.6233 42.695C21.5038 41.8012 22.1206 41.6523 22.7913 41.5606C23.9208 42.0189 25.2699 41.7974 26.2683 42.6607Z" fill="#87B341"/>
<path d="M22.7875 41.912C22.2285 41.9196 21.8353 42.1717 21.6233 42.6912C21.0297 42.7447 20.8755 42.1412 20.4669 41.9235C18.844 41.362 17.1171 41.4727 15.4557 41.1557C14.7271 40.7852 14.0024 40.4147 13.2739 40.0404C13.3163 39.9258 13.3625 39.8112 13.4049 39.6928C14.7348 40.048 16.0647 40.4032 17.3946 40.7584C19.3182 40.8081 21.2802 40.3459 23.1537 41.1404C23.2963 41.2626 23.4351 41.3849 23.5777 41.5071C23.4119 41.8318 22.9802 41.637 22.7875 41.912Z" fill="#9BBE50"/>
<path d="M12.3333 40.0404C9.67739 39.5323 7.17564 38.6156 4.80111 37.3628C4.8782 37.1527 4.9553 36.9464 5.03239 36.7363C7.51101 37.6874 9.98962 38.6423 12.4682 39.5934C12.4258 39.7424 12.3796 39.8914 12.3333 40.0404Z" fill="#78A333"/>
<path d="M23.1575 41.1442C21.2263 41.1748 19.295 41.2397 17.3985 40.7623C18.8594 40.4185 20.3088 40.0213 21.7814 39.7501C22.8221 39.5514 22.2169 41.1328 23.1575 41.1442Z" fill="#7AA333"/>
<path d="M26.2529 35.7776C26.2529 35.9113 26.2529 36.045 26.2529 36.1825C23.9477 35.5408 21.6426 34.8991 19.3374 34.2573C19.3027 33.5469 19.6882 33.6844 20.1084 33.8792C22.2555 34.1886 24.3255 34.7577 26.2529 35.7776Z" fill="#A9C75E"/>
<path d="M29.6644 41.5873C29.3097 41.0335 28.9589 40.4796 28.6043 39.9258C28.3306 39.1924 28.0531 38.4628 27.7794 37.7333C27.7794 37.0648 28.1379 37.1145 28.5812 37.3437C29.7106 38.2222 30.285 39.3413 30.0961 40.789C30.0922 41.129 29.9997 41.4269 29.6644 41.5873Z" fill="#CEDD82"/>
<path d="M20.1084 33.8754C19.8039 33.9059 19.5032 33.9441 19.3374 34.2535C17.5334 33.7493 15.7294 33.2451 13.9292 32.7448C13.7981 32.4927 13.6671 32.2444 13.536 31.9923C15.7872 32.21 17.73 33.7341 20.0853 33.524C20.0814 33.6424 20.093 33.7608 20.1084 33.8754Z" fill="#9ABE54"/>
<path d="M22.7875 41.912C22.9571 41.595 23.2616 41.5415 23.5777 41.5109C24.0749 41.5262 24.5722 41.5377 25.0656 41.5529C25.5899 41.8012 26.1141 42.0495 26.6384 42.2978C26.515 42.42 26.3917 42.5422 26.2683 42.6645C25.108 42.4124 23.9477 42.1603 22.7875 41.912Z" fill="#A9C85E"/>
<path d="M12.3796 35.4185C12.3025 35.1091 11.9556 34.6164 12.7265 34.8379C13.2662 34.9945 13.7827 35.2275 14.307 35.4262C14.1374 35.7356 13.8444 35.8005 13.5244 35.8196C13.1467 35.6859 12.7651 35.5522 12.3796 35.4185Z" fill="#92B94B"/>
<path d="M4.39635 35.2276C4.68161 35.5408 4.78954 35.6592 4.89747 35.7776C4.78183 35.8769 4.6392 36.0717 4.55825 36.0488C4.41563 36.0106 4.24216 35.854 4.20362 35.7165C4.16892 35.6019 4.30384 35.4376 4.39635 35.2276Z" fill="#9ABF5D"/>
<path d="M14.7002 18.249C14.1027 18.0581 13.351 17.2139 13.3163 18.78C13.2855 20.0825 12.1907 19.1963 11.6048 19.3835C9.91253 20.262 9.44225 20.1169 8.69828 18.4859C8.77537 18.1039 9.07604 17.9129 9.36515 17.7105C9.73521 17.4889 9.85085 17.1261 9.90096 16.725C10.4175 15.9687 11.4891 15.4187 10.6372 14.204C10.4098 13.8755 10.776 13.3713 11.2232 13.1459C13.4281 13.7724 15.3709 14.9718 17.4293 15.919C17.8611 16.217 18.1078 16.6524 18.3159 17.107C18.5703 17.6646 19.0483 18.2911 18.5858 18.8411C18.1386 19.372 17.5604 18.8105 17.0516 18.6807C16.2768 18.482 15.3902 18.8869 14.7002 18.249Z" fill="#7BA63C"/>
<path d="M6.59357 26.2551C6.8133 24.8762 7.90419 24.9526 8.72141 25.3002C9.55404 25.6554 10.4059 25.6363 11.2232 25.877C11.9478 25.9763 12.6687 26.0832 12.7651 27.019C12.9231 27.5194 14.6385 27.7371 13.0465 28.5546C13.721 29.4445 14.3995 30.3384 15.0741 31.2283C13.7712 31.3697 13.7634 31.3735 12.8036 30.3116C12.5762 30.0595 12.3873 30.2047 12.1522 30.2811C10.5871 30.8005 10.3327 30.6516 9.80074 29.1542C9.77376 29.0817 9.66582 27.7104 8.97197 28.5737C8.05453 29.7196 7.44548 28.9785 6.74776 28.4896C5.8072 27.8288 5.8843 27.0534 6.59357 26.2589C6.8981 26.511 7.29129 26.3812 7.62665 26.4996C7.31442 26.2666 6.90581 26.469 6.59357 26.2551Z" fill="#7EA939"/>
<path d="M5.43714 13.6807C6.02692 13.1956 5.81491 12.5233 5.81876 11.9237C5.82262 11.3201 6.00379 11.1024 6.59357 11.3622C6.75933 11.5722 6.67452 11.8243 6.70536 12.0573C6.77475 11.8091 6.76318 11.5722 6.59357 11.366C7.04073 10.1322 8.0661 10.6364 8.91414 10.6059C9.83158 11.2628 10.9649 11.7021 11.3272 12.9244C11.0111 13.3599 10.3635 13.5356 10.3751 14.2346C10.3828 14.6585 10.3597 15.2048 9.76219 15.22C8.99124 15.2391 8.64431 14.754 8.65202 14.0398C8.65202 14.0665 8.61733 13.9786 8.61733 13.9786C8.61733 13.9786 8.5942 14.0665 8.5942 14.0894C8.54409 14.4523 8.67129 14.8572 8.23185 15.0443C7.93889 15.178 7.6228 15.2162 7.31827 15.3079C6.89039 15.4301 6.84799 15.8121 6.7362 16.1482C6.6938 16.2093 6.64754 16.2705 6.60128 16.3277C6.24279 16.492 5.77251 16.6906 5.55279 16.3163C5.22128 15.7472 5.3639 14.5019 4.1882 15.6478C4.16121 15.6746 3.74104 15.4148 3.63311 15.2162C3.43266 14.8457 3.67937 14.7158 4.03015 14.5592C4.53127 14.3453 4.97072 13.9825 5.43714 13.6807Z" fill="#7BA63C"/>
<path d="M11.2193 20.5332C9.83929 20.8732 8.5595 22.2826 7.02531 20.9037C6.69765 20.9228 6.44709 21.0947 6.21195 21.2972C5.45256 22.3056 4.54284 21.3888 3.71021 21.4576C3.65238 21.4614 3.30546 21.0833 3.84127 20.8579C5.83033 20.0176 5.79564 17.9129 6.59357 16.3277C7.60738 16.2055 7.73073 17.0077 8.00442 17.657C8.47085 18.9519 9.09532 20.0328 10.7644 19.9144C11.0767 19.8953 11.3465 20.1207 11.2193 20.5332Z" fill="#7BA738"/>
<path d="M23.5353 28.9594C23.7897 29.4675 24.0441 29.9717 24.2947 30.4797C24.0865 30.7891 23.6818 31.1099 23.701 31.404C23.7781 32.5308 22.5909 32.4888 22.1399 33.1458C21.8507 33.566 21.1607 32.6951 21.207 32.6072C22.0897 31.0068 20.6481 30.621 19.8424 29.8953C19.7345 29.7998 19.7692 29.5477 19.6844 29.0511C20.9333 30.2429 21.8238 29.3223 22.7875 28.906C23.0573 28.7035 23.304 28.7112 23.5353 28.9594Z" fill="#89B440"/>
<path d="M14.7002 18.249C15.9298 18.2376 17.1788 18.0695 18.7014 19.204C18.0808 17.6723 17.703 16.7365 17.0014 15.9534C16.5235 15.7051 16.2035 15.3614 16.269 14.7808C15.7409 13.3675 15.2167 11.958 14.6886 10.5447C15.7332 10.5906 16.0223 11.1903 15.872 12.1185C16.3693 13.0199 16.8665 13.9213 17.3599 14.8266C17.7955 15.0291 17.9729 15.4378 18.1887 15.8197C18.7669 17.2598 19.8463 18.4018 20.5633 19.7578C20.4283 20.1245 20.5825 20.4874 20.6018 20.8541C20.5131 21.0947 20.3435 21.2437 20.0891 21.2972C19.3837 19.3606 17.757 18.9633 15.9799 19.0741C15.2013 19.1161 14.7348 19.1352 14.7002 18.249Z" fill="#9CBC55"/>
<path d="M23.5353 28.9594C23.2886 28.9442 23.038 28.9289 22.7913 28.9098C21.2841 27.634 19.3182 27.4468 17.5604 26.7746C16.4425 26.3468 15.4094 25.8388 14.4804 25.0481C16.1842 25.346 17.6336 26.3659 19.3297 26.6103C20.5016 26.8739 21.6696 27.1527 22.8491 27.3934C23.0804 27.9167 23.3078 28.44 23.5353 28.9594Z" fill="#A5C45C"/>
<path d="M11.2193 20.5332C9.92795 20.1092 8.53638 19.8915 7.71531 18.6005C7.50715 18.2758 7.44548 18.0924 7.75386 17.8556C8.26269 17.6226 8.61347 17.8518 8.90258 18.249C9.21096 20.0099 10.5293 19.4141 11.6048 19.3873C11.89 20.0749 12.5839 20.22 13.1467 20.5332C13.2392 20.877 13.166 21.0603 12.7612 20.9228C12.1984 20.9687 11.6973 20.7968 11.2193 20.5332Z" fill="#719E30"/>
<path d="M22.8491 27.3934C21.4576 28.0924 20.4592 27.0611 19.3297 26.6103C20.8639 26.9197 20.9988 25.579 21.5693 24.7463C21.6542 24.7654 21.7351 24.7845 21.8199 24.7998C22.2902 25.0214 22.1707 25.537 22.3711 25.8922C22.533 26.3964 22.6911 26.893 22.8491 27.3934Z" fill="#7FA636"/>
<path d="M17.0014 22.0573C16.9166 21.5645 16.0994 21.068 16.774 20.6134C17.252 20.2888 17.6259 20.8694 18.0075 21.2284C18.3969 21.5951 18.9674 21.7746 19.8154 22.2292C18.6127 22.2788 17.7994 22.6111 17.0014 22.0573Z" fill="#7BA738"/>
<path d="M20.0853 21.2933C20.2048 21.1711 20.3243 21.0489 20.4476 20.9266C21.4537 21.1367 21.5655 22.0496 21.9317 22.7639C22.1437 23.2796 22.3981 23.7876 22.2594 24.372C22.136 24.6432 21.978 24.8609 21.6233 24.7349L21.5732 24.7502C21.0875 23.5928 20.2125 22.5997 20.0853 21.2933Z" fill="#B4CD69"/>
<path d="M12.7612 27.019C12.2485 26.6371 11.732 26.2589 11.2193 25.877C11.6048 25.262 11.9902 25.7815 12.3757 25.8731C12.5453 25.9495 12.7265 26.0145 12.8846 26.1061C13.2739 26.3353 14.1104 25.7395 14.095 26.5187C14.0872 27.3628 13.2315 26.8739 12.7612 27.019Z" fill="#739E30"/>
<path d="M12.7612 20.9228C12.8884 20.793 13.0195 20.6631 13.1467 20.5332C14.1798 21.0374 15.5366 20.8885 16.2305 22.0611C15.1165 21.5493 13.6632 22.0611 12.7612 20.9228Z" fill="#7BA738"/>
<path d="M20.9333 24.8571C19.6612 25.2964 18.9828 24.8647 18.0153 23.948C19.2873 23.7609 20.0274 24.0053 20.9333 24.8571Z" fill="#93BD49"/>
<path d="M17.0014 22.0573C16.8049 22.4927 17.7377 22.9205 17.252 23.0962C16.6083 23.333 16.2845 22.699 16.2305 22.0573C16.4888 22.0573 16.7432 22.0573 17.0014 22.0573Z" fill="#7BA738"/>
<path d="M6.21195 21.2972C6.27748 20.7509 6.40854 20.3346 7.02531 20.9037C7.00989 21.5569 6.65525 21.5187 6.21195 21.2972Z" fill="#94B85A"/>
<path d="M16.2652 14.7808C16.508 15.1704 16.7547 15.5638 16.9976 15.9534C15.0702 15.0596 13.1467 14.1658 11.2193 13.272C11.0998 13.1918 11.0574 13.1116 11.0959 13.0275C11.1345 12.9435 11.1692 12.9015 11.2077 12.9015C10.537 12.0421 9.24565 11.7938 8.91029 10.6059C9.0375 10.4798 9.1647 10.3499 9.29191 10.2239C9.41912 10.2239 9.54247 10.2239 9.66968 10.2239C10.2864 10.3805 10.4715 10.9687 10.8338 11.3813C12.395 12.9091 13.9446 14.4485 16.2652 14.7808Z" fill="#6E9A33"/>
<path d="M15.8681 12.1185C15.5058 11.5722 15.3555 10.8656 14.6847 10.5447C14.6539 9.47141 13.6131 8.86408 13.3703 7.69526C14.3995 8.00084 14.5999 8.9061 15.1627 9.71969C15.8373 8.56615 15.0008 7.23308 16.2382 5.83126C16.2382 7.87479 16.2382 9.44086 16.2382 11.0031C16.5312 11.3851 16.5581 11.7632 16.2189 12.1337C16.1071 12.1261 15.9876 12.1223 15.8681 12.1185Z" fill="#6E9C33"/>
<path d="M21.631 7.16814C21.7582 7.16432 21.8854 7.16432 22.0126 7.1605C23.0457 8.85262 21.7968 10.2354 21.392 11.7327C20.8562 12.4851 20.8138 13.6692 19.5687 13.8068C19.4839 13.7571 19.403 13.7036 19.3182 13.654C20.463 11.6257 20.9063 9.34918 21.631 7.16814Z" fill="#6F9B31"/>
<path d="M17.7955 15.9229C17.649 15.5562 17.5064 15.1895 17.3599 14.8228C17.8688 14.2002 18.6629 14.0436 19.3143 13.6578C19.6265 14.9488 18.9867 15.6211 17.7955 15.9229Z" fill="#6E9833"/>
<path d="M20.8639 6.0146C21.3072 6.29344 21.234 6.74416 21.2494 7.16051C20.6712 7.03446 19.8733 7.04592 19.8771 6.27434C19.8771 5.62499 20.463 5.86945 20.8639 6.0146Z" fill="#7AA23C"/>
<path d="M16.2228 12.1299C16.2305 11.7518 16.2344 11.3774 16.2421 10.9993C16.7355 11.0184 17.3754 10.8923 17.3214 11.6639C17.2674 12.3897 16.7702 12.3897 16.2228 12.1299Z" fill="#90B84D"/>
<path d="M10.8377 11.3774C10.2903 11.1483 9.94337 10.7243 9.67353 10.2201C10.8724 9.80755 10.5987 10.8427 10.8377 11.3774Z" fill="#94B55B"/>
<path d="M5.05552 23.207C6.06161 23.2949 6.73235 23.9366 7.72688 24.7005C6.28519 24.6661 4.93602 25.1436 5.05552 23.207Z" fill="#709C31"/>
<path d="M5.05552 32.7524C4.41948 32.3704 3.91451 31.9541 4.67004 31.2245C4.73172 31.8166 5.01312 31.9541 5.58748 31.7478C6.24664 31.511 6.92508 31.5301 7.81939 31.8739C6.8133 32.4965 5.72625 32.0037 5.05552 32.7524Z" fill="#85AF41"/>
<path d="M10.83 33.501C11.2193 33.5736 11.6202 33.6653 11.5277 34.1848C11.5045 34.3185 11.2771 34.5209 11.1653 34.5094C10.6102 34.4445 10.5023 34.0052 10.4599 33.5431C10.5794 33.5316 10.7028 33.5163 10.83 33.501Z" fill="#A1C361"/>
<path d="M7.69989 30.5599C7.02916 30.4911 6.75933 30.1703 6.75933 29.6279C6.75933 29.5706 6.94821 29.4484 7.02916 29.4598C7.66134 29.5706 7.71531 30.006 7.69989 30.5599Z" fill="#85AF41"/>
<path d="M4.28071 28.5507C4.90133 28.566 5.31764 28.8792 5.66843 29.5744C4.87435 29.5286 4.57367 29.0511 4.28071 28.5507Z" fill="#85AF41"/>
<path d="M27.8218 36.1252C27.629 35.5293 27.552 34.8609 27.2243 34.3528C25.8366 32.2024 25.3663 29.9029 25.8713 27.4048C25.9329 26.5951 25.8443 25.7586 26.3454 25.0328C27.7254 23.4897 28.5966 21.6371 29.3483 19.7616C29.9226 18.3254 29.3444 17.573 27.7717 17.2521C27.3284 17.1604 26.7 17.5233 26.569 16.7326C27.1433 15.7395 27.1703 14.1964 28.9474 14.4217C29.1787 14.7999 29.6027 15.3919 29.9226 14.9068C31.1523 13.0352 31.904 14.5822 32.806 15.1818C33.7042 15.8426 33.2686 16.492 32.9563 17.317C32.2355 19.2269 31.2487 21.1176 31.6496 23.2834C31.7267 24.4026 31.0598 25.3231 30.8285 26.3621C30.3968 27.909 29.8957 29.4407 29.7993 31.0641C29.41 32.4583 29.5063 33.9365 29.036 35.3116C28.8472 35.854 28.8125 36.7134 27.8218 36.1252Z" fill="#7BA837"/>
<path d="M31.2602 23.2032C30.5355 22.0687 31.0791 20.8655 31.4992 19.9488C32.0235 18.7991 31.6534 17.2674 32.9795 16.4271C33.1259 16.3316 32.8715 15.6135 32.8021 15.1818C32.9525 15.0138 33.0874 14.7311 33.2647 14.6967C33.5962 14.6356 33.5384 14.9718 33.5731 15.1818C34.5676 16.0069 35.2191 17.1872 36.4526 17.7792C36.8419 17.9664 36.9692 18.4591 36.8921 18.929C36.0517 20.1169 35.9631 21.6218 35.2345 22.8594C35.0803 22.9511 34.9146 23.0007 34.7334 23.0046C33.523 22.1298 32.4128 23.0542 31.2602 23.2032Z" fill="#7FA93D"/>
<path d="M28.9474 14.4217C27.6522 14.6624 27.7061 16.2475 26.6345 16.7135C26.5613 16.6639 26.4842 16.6142 26.4071 16.5684C26.145 16.2743 25.9561 15.919 26.0486 15.5409C26.2799 14.5669 27.0161 13.5967 25.9638 12.6647C25.9676 11.175 25.7749 9.60892 27.4132 8.70748C28.2497 8.44392 28.3537 9.89922 28.3846 9.59364C28.5272 8.16508 31.5802 9.27279 30.5625 7.01154C30.9249 7.31711 31.2834 7.62651 31.6457 7.93208C32.2509 8.75331 32.0929 8.97867 30.4276 9.57837C30.7977 9.99471 31.3489 10.3499 31.4684 10.8121C31.6264 11.4309 31.0983 10.9649 30.8748 10.9878C30.5471 11.2781 30.0421 11.0413 29.7222 11.366C28.2959 12.0917 28.8857 13.3217 28.9474 14.4217Z" fill="#7FAA3B"/>
<path d="M36.6569 19.0053C36.5451 17.3552 34.1937 17.783 33.9971 16.1826C33.9547 15.8388 33.7196 15.5142 33.5731 15.1818C34.6833 15.1131 34.1398 14.0971 34.506 13.5661C35.1034 13.6692 35.5969 14.2002 36.2676 14.0321C36.256 15.1513 36.5259 16.0833 37.8249 16.3354C38.1911 16.4958 38.4108 16.7594 38.4147 17.1681C38.1564 18.0466 37.5859 18.738 37.0501 19.4561C36.7456 19.4561 36.4989 19.4064 36.6569 19.0053Z" fill="#7BA837"/>
<path d="M29.7222 11.3622C29.8147 10.3614 30.3813 10.7854 30.8748 10.984C30.7861 11.9848 30.2233 11.5837 29.7222 11.3622Z" fill="#91B953"/>
<path d="M34.7334 22.8212C34.8606 22.8212 34.9878 22.8212 35.1189 22.8212C35.5583 22.8518 35.9708 22.7295 36.3794 22.5997C36.6107 22.5615 36.8381 22.5806 37.054 22.6722C37.6823 22.8403 37.4973 22.0038 37.9367 21.958C38.0523 21.893 38.2721 22.0802 38.3029 21.9045C38.3299 21.7632 38.0678 21.767 37.9483 21.6715C37.5705 21.3583 37.2428 21.003 36.7841 20.7853C35.7549 20.2926 36.2946 19.9183 36.9113 19.5707C37.3431 19.3682 37.4124 18.6272 38.0909 18.7838C39.1047 18.9137 38.7809 17.7601 39.363 17.4775C41.4831 17.741 40.1725 19.521 40.6736 20.5103C40.955 21.0718 40.3729 21.9923 41.2903 22.4392C41.2248 22.7143 40.955 23.0771 41.433 23.1917C42.6935 23.4897 42.8669 24.4369 42.8824 25.7203C43.5916 24.945 44.0812 23.3025 45.1451 25.113C44.9794 25.8731 45.5422 26.3697 45.8313 26.9656C44.8753 27.8861 43.2756 28.5928 44.8637 30.3154C45.0333 30.4988 44.2354 31.3124 44.3742 31.9846C43.7805 32.1985 43.5955 32.7524 43.3526 33.2413C42.9171 34.1122 42.7513 33.1114 42.4429 33.1305C41.8185 32.2864 42.84 31.5186 42.5586 30.6859C42.6318 30.3765 42.6318 30.0557 42.7282 29.7539C42.4622 30.4529 42.5316 31.2322 42.2001 31.9159C41.7645 32.8135 41.3366 33.6806 40.0568 33.0694C38.7732 32.4545 38.4532 33.6653 37.8211 34.2764C37.6938 34.1466 37.5628 34.0205 37.4356 33.8907C37.1311 33.6004 37.0809 33.2413 37.1465 32.8517C37.451 32.2787 37.4664 31.66 37.4394 31.0374C37.4124 30.8769 37.4741 30.6974 37.37 30.5446C37.3161 30.8234 37.4279 31.0908 37.4163 31.3658C37.4202 31.5454 37.4163 31.7249 37.4047 31.9082C36.7494 33.3253 36.9229 35.0404 35.778 36.2741C34.7064 36.1863 33.9894 34.6011 32.5978 35.621C32.274 35.8578 31.8539 35.3154 32.0543 34.7692C32.1237 34.6049 32.2124 34.4521 32.3126 34.307C34.2168 32.4583 33.735 30.0824 33.7581 27.8212C33.7735 26.66 34.1667 25.5064 33.8506 24.33C33.8584 23.6692 34.1629 23.1688 34.7334 22.8212Z" fill="#7BA839"/>
<path d="M37.8095 34.2764C38.195 32.2406 38.5226 31.9694 40.423 32.7409C41.2325 33.0694 41.3058 32.634 41.5332 32.2329C42.2116 31.0335 42.4583 29.6699 42.9556 27.8174C43.6803 29.2497 42.5123 30.0137 42.8207 30.8464C42.5277 32.1833 42.0883 33.4399 40.8972 34.2841C40.6505 34.7119 40.4731 35.2046 40.1378 35.5522C39.6482 36.0641 39.1008 37.0457 38.353 36.5224C37.8018 36.129 36.9961 35.2543 37.8095 34.2764Z" fill="#82B13F"/>
<path d="M41.672 38.4819C40.8779 38.967 40.2573 39.624 39.733 40.3765C38.4263 40.9533 37.4703 41.9273 36.6531 43.0541C35.2692 41.954 36.2445 41.3734 37.1966 40.9151C38.9775 40.0594 40.4577 38.8677 41.6758 37.336C41.8955 36.8089 41.9341 36.1901 42.4468 35.8081C42.7012 35.5522 42.9556 35.2963 43.21 35.0404C44.2277 36.8624 42.466 37.4621 41.672 38.4819Z" fill="#6D9A31"/>
<path d="M33.9817 48.0197C33.3919 47.5078 33.6155 46.4994 32.806 46.1175C32.6248 44.0357 33.3804 42.2061 34.3518 40.4338C34.5561 40.2084 34.8028 40.0556 35.115 40.0289C35.2461 40.0174 35.3771 40.0022 35.5043 39.9907C35.62 40.0747 35.6624 40.1626 35.6354 40.2581C35.6046 40.3536 35.5699 40.4032 35.5352 40.4032C34.6679 42.8746 33.5037 45.281 33.9817 48.0197Z" fill="#ADCB65"/>
<path d="M35.115 40.0289C34.9878 40.1473 34.8606 40.2695 34.7334 40.3879C33.9779 40.3612 34.2091 39.7844 34.2978 39.4483C34.5946 38.3291 34.7449 37.145 35.5082 36.1939C36.6338 34.8761 36.3562 33.0885 37.0617 31.6294C38.0331 31.7173 37.5397 32.2979 37.4471 32.7448C37.4433 33.1267 37.4356 33.5087 37.4317 33.8868C36.6531 35.938 35.8821 37.9854 35.115 40.0289Z" fill="#94BA4D"/>
<path d="M40.901 34.2803C41.5409 33.1344 42.1847 31.9885 42.8245 30.8426C43.5724 31.7516 42.2579 32.3131 42.4314 33.1267C41.7491 33.2871 42.123 34.8265 40.901 34.2803Z" fill="#6F9D30"/>
<path d="M35.5313 40.4032C35.5198 40.2657 35.512 40.1282 35.5005 39.9907C35.8705 39.2726 36.1442 38.4514 37.3739 38.3482C36.9769 39.3299 36.2483 39.8608 35.5313 40.4032Z" fill="#94BA4D"/>
<path d="M42.4468 35.812C42.3735 36.4117 42.1615 36.9464 41.6758 37.3398C40.6505 36.1977 41.7915 36.1252 42.4468 35.812Z" fill="#7BA839"/>
<path d="M38.2104 15.9534C37.7517 15.644 37.6052 15.2009 37.5435 14.7617C38.3723 14.0398 38.4494 15.8083 39.124 15.1054C39.6328 14.5745 39.1471 14.0321 38.8927 13.5394C38.4417 12.6647 37.8635 13.1918 37.2544 13.6769C37.2544 13.0161 37.3508 12.5654 37.2351 12.1834C36.9769 11.3316 37.7093 11.175 38.1333 10.9535C38.8618 10.5753 39.0237 11.3469 39.1201 11.7479C39.4825 13.2682 40.4269 14.67 40.1262 16.3316C39.8679 16.5875 39.6097 16.8434 39.3514 17.0955C38.4378 17.2368 38.5111 16.408 38.2104 15.9534Z" fill="#7AA63D"/>
<path d="M38.2104 15.9534C38.592 16.3354 38.9736 16.7135 39.3514 17.0955C39.3553 17.2216 39.3553 17.3514 39.3591 17.4775C39.3745 18.1077 39.4054 18.7532 38.989 19.288C38.4609 19.9755 38.3145 19.4981 38.195 19.0053C37.7748 18.3675 38.6113 17.7334 38.1988 17.0955C38.0716 16.8434 37.9483 16.5913 37.8211 16.3354C37.9521 16.2055 38.0793 16.0795 38.2104 15.9534Z" fill="#89B44A"/>
<path d="M41.2826 22.4392C41.3327 21.6409 41.0822 20.77 41.9033 20.1513C41.0167 20.7586 43.8615 22.233 41.2826 22.4392Z" fill="#7BA839"/>
<path d="M21.6426 46.5071C22.2786 46.3734 22.9185 46.2397 23.5546 46.1022C24.63 45.2275 25.906 45.7317 27.0855 45.5904C28.9936 45.4987 30.7051 46.213 32.4244 46.8814C33.0257 47.2596 32.5285 47.6377 32.4244 48.0197C30.5625 47.313 28.7045 46.5987 26.6461 46.8967C24.9847 46.6522 23.2539 47.3283 21.6426 46.5071Z" fill="#A7C85A"/>
<path d="M16.6198 48.0235C16.616 47.8974 16.616 47.7752 16.616 47.6492C17.5989 47.1411 18.7245 47.7867 19.7075 47.271C20.9911 47.2672 22.2709 47.2672 23.5546 47.2634C21.897 47.8822 21.897 47.8822 22.6294 49.4177C20.6943 47.5269 18.5935 48.1343 16.6198 48.0235Z" fill="#719D33"/>
<path d="M19.7075 47.271C18.7554 48.0159 17.6413 47.4811 16.616 47.6492C16.4849 47.5231 16.3577 47.3971 16.2266 47.271C17.3869 47.271 18.5472 47.271 19.7075 47.271Z" fill="#80AC3F"/>
<path d="M35.5043 36.1977C35.7665 37.6912 34.4212 38.8906 34.7334 40.3918C34.0896 42.3016 33.4497 44.2114 32.806 46.1175C32.0312 44.3375 31.2525 42.5575 30.4777 40.7775C30.6165 40.6706 30.7745 40.6362 30.9441 40.6553C31.6496 40.8616 31.5031 40.3536 31.5917 39.9525C31.7691 39.1389 30.9943 39.4254 30.7129 39.1504C30.3852 38.2222 30.4315 37.5155 31.6843 37.5155C31.8731 37.5155 32.035 37.4086 32.2201 37.3895C31.9734 37.3055 31.7267 37.6072 31.5147 37.4468C30.6589 36.8051 30.5201 35.8081 30.7514 34.9487C30.975 34.1351 31.7459 34.1428 32.4167 34.6661C32.3203 35.0022 32.3357 35.6936 32.7212 35.3154C34.371 33.6806 34.8529 35.0786 35.5043 36.1977Z" fill="#81AC3B"/>
<path d="M32.4128 34.6661C29.3251 34.5973 32.1892 36.4307 31.241 37.2443C32.2663 37.0457 32.1661 36.1977 32.7366 35.9953C33.2262 37.2367 33.2069 37.5461 32.1584 37.6454C30.9788 37.7562 30.7784 38.3024 30.8748 39.2497C31.3181 39.7615 31.3065 40.2657 30.8555 40.7661C30.7283 40.7699 30.5972 40.7737 30.47 40.7775L30.2811 40.7737L30.0922 40.7928C29.5873 39.6431 29.0823 38.4934 28.5773 37.3475L28.5966 37.3551C28.8664 36.8165 28.7431 36.1404 29.1979 35.6668C30.5972 34.7043 29.8108 33.5201 29.5333 32.3895C29.4408 32.1336 29.4292 31.8777 29.5449 31.6218C29.6682 31.3888 29.807 31.1672 29.9959 30.9839C30.0344 30.9342 30.0768 30.8884 30.1231 30.8426C30.7013 30.2772 29.9997 28.9671 31.16 28.8296C32.1507 28.7112 32.3319 29.8762 32.9872 30.3422C33.2223 30.6554 33.4652 31.2589 33.2223 31.3467C31.2217 32.0801 32.9255 33.6347 32.409 34.6661H32.4128Z" fill="#7CA737"/>
<path d="M32.4244 46.8852C31.4376 47.4582 30.6627 46.6446 29.8108 46.4383C29.0052 46.2435 28.215 46.106 27.3939 46.0869C26.0139 45.8921 25.5243 45.598 24.3178 44.2076C24.8189 43.2756 25.8212 43.3329 26.6499 43.0541C28.7778 44.0319 31.3219 44.391 32.4244 46.8852Z" fill="#7CA63B"/>
<path d="M20.8639 11.7518C21.3997 10.2583 22.1591 8.82207 22.0088 7.16432C22.1668 6.96952 22.0126 6.17121 22.3056 6.56463C22.9686 7.4508 24.0325 7.21398 24.5799 7.95118C25.2429 7.41642 24.5838 6.65631 25.3432 6.27816C25.5089 6.56081 25.6862 6.86257 25.8597 7.16432C25.8019 7.82895 26.4109 8.16508 26.6307 8.6922C26.8388 9.45232 26.3184 9.72733 25.771 9.97943C25.7518 10.0558 25.1928 9.76171 25.64 10.1704C25.7248 10.2468 25.8173 10.3194 25.8867 10.4263C26.3069 11.5837 25.586 11.7174 24.7148 11.7365C24.6686 11.7365 23.7396 11.0642 24.4643 12.0153C24.923 12.615 24.5144 13.3369 23.8128 13.738C23.1382 13.4821 23.0303 12.1567 21.8122 12.8022C21.5231 12.955 21.1415 12.1643 20.8639 11.7518Z" fill="#7AA63A"/>
<path d="M6.58972 46.4956C6.65139 45.5483 7.51872 44.8341 7.36453 43.8257C8.31666 45.0632 8.13934 45.9761 6.58972 46.4956Z" fill="#80AC3B"/>
<path d="M25.5012 9.8381C26.0023 9.57455 26.3917 9.20404 26.6384 8.68838C26.8966 8.6922 27.1588 8.69602 27.417 8.69984C26.6345 9.85338 26.2259 11.1139 26.2529 12.5081C25.5282 13.6845 25.7402 15.0443 25.4896 16.3125C25.5128 16.7365 25.5205 17.1643 25.4087 17.5806C25.3624 17.741 25.3008 17.8938 25.2275 18.0466C24.9037 19.0053 25.374 20.0443 24.9307 20.9954C24.5452 21.7173 24.0634 22.0496 23.3888 21.3086C23.0611 20.9457 22.7104 20.6096 22.3519 20.2849C22.0204 19.8839 22.5215 19.1543 21.7968 18.906C21.5231 18.2605 21.5963 17.5844 22.1206 17.1872C23.3271 16.2666 23.6702 15.0749 23.5546 13.6616C23.994 13.3408 24.4103 12.7754 24.233 12.3935C23.7936 11.4309 24.0711 11.2972 24.9924 11.3469C26.0062 11.4004 25.7364 10.7777 25.4742 10.2201C25.3817 10.1322 25.3547 10.0444 25.3933 9.96415C25.4318 9.88012 25.4665 9.8381 25.5012 9.8381Z" fill="#77A237"/>
<path d="M28.4385 7.77929C28.3769 7.6647 28.2574 7.53101 28.2265 7.37823C28.1918 7.19106 28.2921 6.99626 28.5195 7.08793C28.6544 7.14523 28.7816 7.32857 28.8202 7.47754C28.8703 7.69144 28.7161 7.79457 28.4385 7.77929Z" fill="#89AB54"/>
<path d="M9.28035 34.2879C9.2418 34.0282 8.92185 33.6882 9.42683 33.5698C9.55789 33.5392 9.85471 33.6882 9.87398 33.7875C9.95493 34.223 9.58487 34.2383 9.2842 34.2955L9.28035 34.2879Z" fill="#9CC15D"/>
<path d="M22.402 20.1551C23.0419 20.094 23.4158 20.3002 23.6432 20.9763C23.9786 21.9656 24.3448 21.0642 24.6956 20.9075C25.9522 20.0328 24.923 18.8678 25.0926 17.8556V17.8594C25.4858 17.5004 25.3933 16.8434 25.9098 16.5607C26.1835 16.4729 26.4302 16.4996 26.6345 16.7135C27.1973 17.5997 28.188 15.7433 28.6891 17.0306C29.0013 17.8365 30.3775 17.4737 30.3891 18.123C30.4083 19.2574 29.78 21.3201 29.622 21.3697C27.6869 21.9771 28.6698 24.7769 26.6268 25.1168C25.6631 25.5828 25.8327 26.7937 25.0965 27.4087C25.0695 27.9663 25.0463 28.524 25.0039 29.4063C24.0364 28.3177 23.4351 27.3781 23.1228 26.2589C22.7258 25.0366 23.8514 24.414 24.2291 23.4973C22.7952 25.5141 22.7952 25.5141 22.055 24.3109C21.9009 23.8258 21.7505 23.3407 21.5963 22.8556C21.7081 21.9083 21.3419 20.8235 22.402 20.1551Z" fill="#7FAA3B"/>
<path d="M29.3444 35.8081C29.2558 36.4002 29.063 36.9388 28.6004 37.3513C28.6313 36.7631 27.9991 36.5874 27.8218 36.129C29.171 35.5408 28.6313 34.2153 28.878 33.2375C29.0707 32.4736 29.144 31.6485 29.356 30.8616C30.0383 30.8426 29.9612 31.194 29.7337 31.6218C29.7376 31.87 29.7453 32.1183 29.7492 32.3628C30.1424 33.5736 30.2387 34.7463 29.3444 35.8081Z" fill="#A4C55E"/>
<path d="M22.0589 24.3109C22.6294 25.1818 22.9147 24.7693 23.3387 24.1237C23.7589 23.482 24.1289 22.2979 25.4087 23.5393C24.0711 23.9939 23.5623 25.0939 23.1305 26.2551C22.799 26.2971 22.9108 25.4415 22.3789 25.8922C22.1283 25.5064 21.8777 25.1207 21.6272 24.7311C21.7698 24.5935 21.9124 24.4522 22.0589 24.3109Z" fill="#A5C45C"/>
<path d="M25.1003 27.4087C25.2352 26.7402 25.374 26.0718 25.5012 25.3995C25.6747 24.4981 26.1951 24.9717 26.6307 25.113C26.3762 25.877 26.4379 26.7402 25.8751 27.4048C25.6169 26.9808 25.3586 27.3628 25.1003 27.4087Z" fill="#91B748"/>
<path d="M24.3217 44.2076C25.0733 44.559 25.8366 44.8608 26.8542 44.6774C26.569 45.682 25.7017 45.0785 25.4395 45.5942C26.0563 45.9609 26.8774 45.4414 27.3978 46.0907C26.118 46.0984 24.8382 46.1022 23.5546 46.1098C22.2478 44.8532 24.2754 44.9219 24.3217 44.2076Z" fill="#80AC3B"/>
<path d="M11.2116 12.9015C11.2193 13.0237 11.2232 13.1498 11.2232 13.272C10.7644 14.1849 10.9109 14.9718 11.7821 15.5371C12.0712 15.7242 12.368 15.8503 12.1676 16.2208C11.971 16.5875 11.6703 16.492 11.3696 16.2972C10.3905 15.6593 10.4098 16.6677 10.0667 17.0802C9.73906 17.2407 9.73135 17.5615 9.67739 17.8556C9.51163 18.165 9.21867 18.2299 8.90258 18.2452C8.52096 18.1154 8.13548 17.9855 7.75386 17.8518C7.43006 17.2979 7.29129 16.6028 6.59743 16.3277C6.2081 15.6899 6.16184 15.136 6.98676 14.7999C7.37224 15.2812 7.75386 15.2773 8.13934 14.7999C8.2704 14.4217 8.3976 14.0398 8.52867 13.6616L8.53252 13.6578C9.04521 13.9825 8.88716 14.9679 9.94722 14.8954C9.68124 13.8411 10.059 13.1039 11.2116 12.9015Z" fill="#80AD3D"/>
<path d="M9.67739 17.8556C9.47309 17.4316 9.39985 17.0726 10.0667 17.0802C10.6411 17.6837 10.1901 17.7869 9.67739 17.8556Z" fill="#98BA53"/>
<path d="M6.59357 26.2551C6.9405 26.1176 7.27587 25.9877 7.65363 26.2207C8.0738 26.4805 8.73682 26.7784 8.28582 27.2902C7.68447 27.974 7.84252 26.893 7.51101 26.8013C7.16408 26.702 6.55888 27.0038 6.58972 26.2627C6.58972 26.2589 6.59357 26.2551 6.59357 26.2551Z" fill="#8AB349"/>
<path d="M6.59357 11.366C7.19106 11.9848 7.19106 11.9848 6.32759 12.932C6.02307 12.34 6.38156 11.8625 6.59357 11.366Z" fill="#83B048"/>
<path d="M8.13548 14.8037C8.10464 15.1742 8.08537 15.6402 7.64593 15.6899C7.03687 15.7586 7.04073 15.2239 6.9829 14.8037C7.36453 14.8037 7.75 14.8037 8.13548 14.8037Z" fill="#709D33"/>
<path d="M8.52481 13.6654C8.13548 13.6043 7.75386 13.5126 7.83481 13.0046C7.85408 12.8862 8.1085 12.6876 8.18174 12.7143C8.6366 12.8862 8.4747 13.3178 8.52867 13.6578L8.52481 13.6654Z" fill="#8CB150"/>
<path d="M23.5546 13.6578C24.6647 14.9679 24.1906 15.9763 22.9763 16.9007C22.3018 17.4125 21.8392 18.081 22.0126 19.0053C22.3634 19.6967 22.0859 20.2582 21.5192 20.6134C21.0528 20.9114 20.6943 20.5638 20.4592 20.1398C19.4415 18.8182 18.4046 17.5042 17.7955 15.9267C18.3159 15.1818 19.1948 14.67 19.3143 13.6578C20.4206 13.4935 20.3474 12.3858 20.8639 11.7518C21.5655 11.6716 22.0049 13.3293 22.9725 12.0803C23.0226 12.0153 23.5546 13.0237 23.5546 13.6578Z" fill="#7FA93E"/>
<path d="M20.4592 20.136C21.8006 20.8655 21.7929 19.7846 22.0126 19.0015C23.038 19.0856 22.2478 19.7769 22.402 20.1513C21.978 21.0069 22.2825 22.0726 21.5963 22.8556C21.2147 22.2101 20.8292 21.5684 20.4476 20.9228C20.4669 20.6631 20.0313 20.3919 20.4592 20.136Z" fill="#6F9933"/>
<path d="M34.7334 22.8212C34.7873 23.4858 34.1783 23.8181 33.9624 24.3491C33.9624 24.4369 33.9586 24.521 33.9586 24.6088C33.9123 25.113 33.6425 25.5294 33.442 25.9724C32.9062 27.1566 32.0967 27.4889 30.9441 26.7784C30.7013 26.6791 30.5355 26.5148 30.4893 26.2513C30.3428 25.1359 31.4221 24.3262 31.2641 23.207C31.3759 23.1535 31.5532 23.1268 31.5956 23.0389C32.513 21.0489 33.6386 22.1642 34.7334 22.8212Z" fill="#84AE40"/>
<path d="M30.4854 26.2513C30.6165 26.3812 30.7476 26.5148 30.8786 26.6447C31.106 26.8892 31.1677 27.1795 31.1446 27.4965C30.763 28.7303 30.4816 29.9908 30.1231 31.2322C29.9959 31.362 29.8648 31.4919 29.7376 31.6218C29.7145 31.3162 29.6682 31.0259 29.356 30.8616C29.3868 29.2421 29.8301 27.7219 30.4854 26.2513Z" fill="#94BC4F"/>
<path d="M38.1873 22.0535C37.8288 22.3056 37.8365 22.6837 37.8018 23.0619C37.7748 23.3483 37.8365 23.8181 37.3932 23.7456C36.9113 23.6654 37.0886 23.1535 37.0231 22.8136C36.7648 22.4736 36.5066 22.3285 36.2676 22.8327C35.8783 23.6004 35.4928 23.5928 35.1112 22.825C35.4427 21.4805 35.2846 19.9412 36.6531 19.0092C36.7803 19.1352 36.9075 19.2651 37.0385 19.3911C37.1388 19.4752 37.1735 19.5592 37.1388 19.6432C37.1079 19.7273 37.0771 19.7693 37.0424 19.7693C36.946 19.9908 36.8497 20.2124 36.7533 20.4339C37.875 20.1207 37.7941 21.1787 38.2027 21.6791C38.2875 21.767 38.3106 21.851 38.2798 21.9312C38.2489 22.0114 38.2181 22.0535 38.1873 22.0535Z" fill="#749F31"/>
<path d="M26.6345 16.7097C26.3762 16.7097 26.1218 16.7097 25.8636 16.7097C25.5282 16.7441 25.3046 16.5531 25.0926 16.3316C24.896 15.0061 25.5205 13.78 25.5552 12.4813C25.7865 12.489 26.0178 12.5004 26.2452 12.5081C26.2529 12.699 26.1874 12.9741 26.2876 13.0619C26.5189 13.2605 27.0855 14.586 26.8581 14.8075C26.2452 15.4148 26.4726 16.0527 26.6345 16.7097Z" fill="#7AA63A"/>
<path d="M37.0462 19.7655C37.0424 19.6394 37.0424 19.5134 37.0385 19.3873C36.8227 18.3254 37.8133 17.8594 38.1988 17.0917C39.4323 17.7296 38.3029 18.3675 38.195 19.0015C37.5975 18.9404 37.4433 19.5325 37.0462 19.7655Z" fill="#7DAC3E"/>
<path d="M32.4167 34.6622C31.9117 34.0243 32.2895 32.8708 31.1485 32.5767C30.9056 32.5156 31.002 32.1527 31.1215 31.9235C31.2718 31.6409 31.3335 31.5492 31.7768 31.7096C33.045 32.1642 33.1221 31.4193 32.7983 30.4606C32.7058 29.3682 33.3727 28.6004 33.9624 27.7983C34.506 30.3193 34.6987 32.7639 32.4167 34.6622Z" fill="#719D31"/>
<path d="M33.9663 27.7944C34.0588 28.8869 33.3302 29.6279 32.8021 30.4568C32.4745 30.4262 32.2201 30.3078 32.0158 30.0175C31.7845 29.6814 31.6997 28.9824 31.1947 29.1504C30.5471 29.3643 30.8902 29.8647 31.0559 30.3689C31.2679 31.0144 30.6396 31.1519 30.1192 31.2322C30.0498 29.8914 30.3389 28.6233 30.8671 27.3972C32.0158 28.6233 32.6248 27.8632 33.045 26.7669C33.3534 25.9648 33.6271 25.1474 33.9586 24.3491C34.9647 25.4988 34.2361 26.6485 33.9663 27.7944Z" fill="#84AE40"/>
<path d="M35.2808 26.0985C34.9608 25.1703 35.2846 24.6012 36.1134 23.8487C36.0479 24.8686 36.0401 25.5485 35.2808 26.0985Z" fill="#88B246"/>
<path d="M37.0501 31.2131C36.31 30.0633 37.3932 29.9831 38.1294 29.3834C37.983 30.0404 37.8943 30.4415 37.8056 30.8387C37.6013 31.0526 37.4857 31.4537 37.0501 31.2131Z" fill="#8BB34F"/>
<path d="M36.2714 22.8288C36.1211 22.3896 35.6238 21.7326 36.3524 21.5989C37.1465 21.4538 36.9884 22.2865 37.027 22.8098C36.7764 22.8174 36.522 22.8212 36.2714 22.8288Z" fill="#8DAB4F"/>
<path d="M35.6123 26.8968C35.5583 27.7677 35.6084 28.3292 34.9069 28.715C34.5869 28.0045 34.7719 27.5232 35.6123 26.8968Z" fill="#88B246"/>
<path d="M38.1873 22.0535C38.195 21.9274 38.2027 21.8052 38.2027 21.6791C38.4609 21.6295 38.7963 21.3048 38.9274 21.7937C39.0122 22.1069 38.8657 22.4545 38.538 22.5347C38.1988 22.6188 38.2335 22.2712 38.1873 22.0535Z" fill="#8BB24E"/>
<path d="M37.0501 31.2131C37.3007 31.0908 37.5551 30.9648 37.8056 30.8426C37.7208 31.4843 38.0639 32.21 37.4356 32.7524C37.4009 32.3475 37.505 31.8968 37.0501 31.637C37.054 31.4919 37.054 31.3544 37.0501 31.2131Z" fill="#80AC3C"/>
<path d="M30.8632 40.7661C30.8709 40.2619 30.8748 39.7539 30.8825 39.2497C31.1253 38.9135 31.3682 38.5812 31.7498 38.0579C32.2355 39.3299 31.958 40.4414 32.0196 41.5338C31.2949 41.7057 31.1369 41.1519 30.8632 40.7661Z" fill="#90BA4B"/>
<path d="M29.3444 35.8081C29.4793 34.6622 29.6143 33.5125 29.7492 32.3666C30.8786 34.0816 30.7398 35.2581 29.3444 35.8081Z" fill="#81AC3B"/>
<path d="M25.5012 9.8381C25.4896 9.96415 25.4819 10.0864 25.4781 10.2124C25.0733 10.2124 24.6956 10.1246 24.5491 9.70823C24.5144 9.60892 24.711 9.32245 24.8305 9.30335C25.2083 9.24223 25.3547 9.55927 25.5012 9.8381Z" fill="#90B257"/>
<path d="M25.0926 17.8556C25.7942 18.7418 26.2066 19.6623 25.5475 20.7624C25.3046 21.1635 25.0618 21.3201 24.6994 20.9075C24.9847 19.9106 24.1713 18.7723 25.0926 17.8556Z" fill="#86AD45"/>
<path d="M25.0965 16.3354C25.4164 16.3354 25.7017 16.4041 25.8674 16.7135C25.8636 17.2636 25.6091 17.6494 25.0926 17.8594C25.0926 17.3476 25.0965 16.8434 25.0965 16.3354Z" fill="#86AD45"/>
<path d="M19.6227 18.6272C20.1122 17.4775 20.4206 16.6219 20.8408 15.8197C21.0335 15.4492 21.4229 15.1131 21.9433 15.3575C22.2015 15.4798 22.6024 15.5447 22.5215 15.9649C22.3519 16.8281 21.8854 16.0413 21.5809 16.1253C21.1916 16.2323 21.3111 16.6295 21.2186 16.9122C21.0066 17.5462 20.8909 18.2605 19.6227 18.6272Z" fill="#8DB348"/>
<path d="M33.9586 24.3491C33.9971 25.812 33.1259 27.0725 33.0142 28.5049C32.9872 28.841 32.7019 28.8525 32.4591 28.7532C31.7806 28.4782 30.6782 28.6768 30.8671 27.3972C30.8709 27.1451 30.8748 26.893 30.8786 26.6447C30.9326 26.6103 30.9827 26.5607 31.0405 26.5492C32.6364 26.2322 32.6364 26.2322 33.9586 24.3491Z" fill="#7BA839"/>
</svg>
