<svg width="40" height="47" viewBox="0 0 40 47" fill="none" xmlns="http://www.w3.org/2000/svg">
<path d="M37.947 2.79406C40.7534 6.35308 40.3631 10.3766 38.6834 13.9937C36.8441 17.9557 35.6157 22.0476 34.2854 26.1633C32.5107 31.6487 29.1512 35.9387 23.7488 38.3364C22.69 38.4765 21.7365 38.555 21.465 37.0863C21.3632 36.5433 20.7116 36.5091 20.189 36.7755C20.0499 36.8438 19.904 36.9019 19.7615 36.9565C18.3837 37.3596 17.8374 38.7839 16.6327 39.467C14.3523 40.7546 12.116 42.1106 9.73381 43.2036C10.4295 42.8689 11.1285 42.582 11.8988 42.4385C15.0785 41.851 18.1055 40.8674 20.7829 38.9649C21.4548 38.4867 21.4785 38.5209 22.0113 39.3235C20.1008 41.0074 17.7899 41.9842 15.4077 42.5751C11.8819 43.4495 8.62754 44.9011 5.38 46.462C4.0871 47.0837 2.58719 47.3706 1.31125 46.1751C1.00245 46.0249 1.53861 45.048 0.635953 45.4784C-0.54497 44.5425 0.259279 43.3675 0.371263 42.3531C0.496821 41.2089 0.999052 40.1057 1.3384 38.9854C1.9085 38.234 2.15622 38.678 2.26481 39.2791C2.39037 39.9725 1.97637 40.5702 1.81009 41.2123C1.54201 42.2404 1.12461 43.2924 2.53968 43.8833C2.84509 44.0097 2.87903 44.4366 3.00119 44.7474C3.23195 45.0582 2.68899 46.0009 3.75114 45.6423C4.41287 45.4169 5.19676 45.5979 5.93314 44.949C4.88795 44.6791 3.89706 45.8916 3.06227 44.8567C3.19801 43.914 2.28178 43.2138 2.46502 42.2575C2.78062 39.9007 3.95814 37.8138 4.53164 35.5391C4.57915 35.3581 4.82008 35.2283 4.68095 34.9926C4.58593 35.2317 4.39929 35.3136 4.15157 35.2966C3.55772 34.8594 3.81223 34.3026 3.92421 33.7561C4.27713 32.062 4.82687 30.3679 3.89367 28.6738C3.79187 28.4893 3.88688 28.2298 4.02262 28.0385C4.30088 25.7945 4.90153 23.6324 5.70577 21.525C6.03494 21.8153 6.03494 22.1296 5.68202 22.5838C6.30642 22.0237 5.81776 21.1186 6.54056 20.7702C7.23622 20.6575 7.32785 20.0802 7.52467 19.5406C8.05744 18.0787 8.46465 16.5793 10.0121 15.6878C10.3277 15.5068 10.2666 14.2977 10.6399 13.6316C10.8163 13.3413 11.0573 13.1125 11.3253 12.9144C12.642 11.9375 12.9576 12.0332 13.7313 13.6316C13.7313 13.6863 13.7245 13.7409 13.7245 13.7956C13.7415 14.4821 12.5945 15.0457 13.3207 15.7117C13.9179 16.2582 14.4643 15.2677 15.109 15.2438C15.54 15.1686 15.7402 15.8005 16.2119 15.6127C16.5682 15.6093 16.9211 15.5409 17.2775 15.5683C17.6406 15.6332 17.8917 15.8996 18.2005 16.0704C18.5805 16.2582 18.8656 16.5622 19.154 16.8662C19.3712 17.0506 19.6155 17.1941 19.8599 17.3375C20.4232 17.6518 20.8983 18.1368 20.9831 18.7311C21.1324 19.766 21.767 19.8821 22.5746 19.8582C24.1254 21.1151 22.4627 21.7675 22.0079 22.5804C21.4718 23.5436 20.7727 23.144 20.1619 22.5224C20.6641 23.5846 21.5057 23.4651 21.9129 22.7034C23.1889 20.3159 25.1944 19.3015 27.9668 19.2707C27.5732 18.4066 26.511 17.8362 27.4714 16.9994C28.5302 15.7766 28.3503 14.3899 28.0042 12.9929C28.1365 12.8222 28.1704 13.092 28.0856 12.8836C28.0415 12.7709 27.9058 12.7812 27.7972 12.87C25.9579 11.7565 25.6627 9.89502 27.0845 8.38534C27.2406 8.22139 27.3492 8.02329 27.4001 7.80128C27.3899 7.65441 27.3798 7.51095 27.3628 7.3675C27.4409 6.56143 28.201 5.84757 27.6716 4.95953C27.7361 4.80924 27.8447 4.71019 27.9974 4.65896C28.7066 4.68628 29.4226 4.85706 30.0945 4.54966C29.1885 4.32765 29.3955 3.87338 29.7925 3.29273C30.59 2.12802 31.8422 2.41152 32.945 2.21341C33.3353 2.07679 33.7289 2.07337 34.126 2.16218C34.9234 2.44226 35.7887 2.40468 36.4098 3.26882C37.0375 4.12613 37.2547 2.42176 37.947 2.79406Z" fill="#F9C4B3"/>
<path d="M17.9358 16.4461C17.7152 16.2206 17.4946 15.9918 17.2707 15.7664C16.9279 15.4316 16.5818 15.7527 16.2391 15.763C15.557 16.6852 15.5773 15.4897 15.221 15.4214C15.0513 14.4275 15.7809 13.8742 16.3205 13.2662C17.6711 11.7428 19.2117 10.4347 20.8542 9.22898C21.5498 8.71665 22.8495 7.97205 22.1369 7.04644C21.6245 6.3804 20.525 7.38116 19.8259 7.873C17.8374 9.27338 16.0864 10.9402 14.6713 12.9485C14.393 13.3447 14.1928 13.8946 13.5277 13.717C12.625 11.6472 11.719 13.3003 10.8129 13.7136C10.6433 13.9049 10.4363 13.9254 10.2089 13.8468C9.87294 13.6043 10.1478 13.3038 10.1274 13.0305C13.6397 8.53221 17.8645 4.91854 22.9988 2.42176C23.742 3.22442 23.6504 3.82214 22.5034 4.17736C21.3326 4.53941 20.1517 4.799 19.5171 5.76902C19.7241 5.78268 20.1246 5.69729 20.3655 5.27034C21.0408 4.09197 22.3541 4.37547 23.3585 4.04416C24.1831 3.77433 25.3098 6.01494 24.777 6.89615C24.4003 7.51779 24.1696 7.95839 24.8822 8.45365C25.1571 8.64492 25.1604 9.02746 24.9229 9.19141C23.6877 10.0316 23.8642 11.9444 22.3303 12.5728C21.9333 12.7368 21.5464 13.2423 21.9095 13.6897C22.3541 14.243 22.6968 13.6419 23.0056 13.3823C23.7929 12.7265 24.2815 12.9246 24.665 13.8366C25.1062 14.8783 25.6355 15.5546 27.0744 15.3497C28.6761 15.1208 27.7327 16.4358 27.7768 17.1292C27.7836 17.4912 26.6061 18.0514 27.9838 18.2051C28.4725 18.2597 28.3333 18.8677 28.3435 19.199C28.3571 19.5952 27.7802 19.462 27.7225 19.5098C26.9793 20.1622 26.0767 19.9573 25.2453 20.0871C24.3732 20.2237 23.7216 20.5003 23.2941 21.4328C22.8834 22.3277 22.2183 23.1645 21.1731 23.5026C20.1483 23.8339 19.7106 23.3182 19.5307 22.3823C19.4696 22.0613 19.5205 21.8222 19.8225 21.6821C20.1042 21.5489 20.3451 21.6036 20.5793 21.8358C21.4514 22.6863 21.9944 22.5497 22.6459 21.2928C22.8631 20.8726 23.3042 20.3296 22.3507 20.2032C21.9876 19.3322 21.1188 18.7277 21.1935 17.6005C21.2512 16.7364 21.3462 16.3538 22.3235 15.6981C20.6438 14.4445 19.3441 15.7527 17.9358 16.4461Z" fill="#F9C6B5"/>
<path d="M27.7802 17.1292C27.563 15.3531 27.5596 15.3463 25.907 16.2719C25.6186 16.4324 25.174 16.3983 25.2385 16.1728C25.6152 14.8408 23.5757 14.5812 24.1933 13.2559C23.4094 13.2149 23.1889 13.7444 22.8767 14.103C22.5339 14.4958 22.2455 15.073 21.7297 14.4036C21.4005 13.9732 20.6743 13.5258 21.3767 12.8256C21.577 12.6275 21.767 12.4157 21.9876 12.2381C22.5916 11.7531 23.5078 11.637 23.2737 10.3766C23.1685 9.80963 24.2544 9.41001 24.9127 8.84985C23.6198 8.41266 23.345 7.8286 24.3189 6.73562C24.8584 6.13448 24.1424 5.33182 23.9117 4.67262C23.6707 3.99292 23.1346 4.53941 22.6832 4.56332C20.9594 4.66237 20.111 6.7322 17.8034 6.35649C19.3746 5.58458 20.1517 4.3174 21.7263 4.0544C23.1719 3.8119 23.1515 3.69235 22.9988 2.42176C26.9827 0.62176 31.0006 -0.901582 35.463 0.628591C36.5998 1.01797 37.3056 1.85819 37.947 2.79406C37.6789 3.21076 37.4312 3.64112 37.1427 4.04074C36.8238 4.48135 36.2129 4.30715 36.2129 4.01C36.2095 2.55155 34.8386 3.01266 34.2244 2.4525C33.773 2.0563 33.3217 1.89577 32.8738 2.45933C32.8229 2.73599 32.6939 3.1766 32.4123 2.98533C30.8682 1.92992 30.4712 3.40544 29.633 4.02708C30.0063 4.45402 30.2201 4.21835 30.4441 4.06465C30.7155 3.88021 30.9972 3.84947 31.0922 4.21835C31.1703 4.52575 30.9836 4.75118 30.6511 4.80583C29.6941 4.96636 28.7439 5.63922 27.7768 4.83657C27.4544 4.36522 26.9929 4.52575 26.6807 4.60772C26.9692 4.64529 27.451 4.37547 27.7768 4.83657C28.1128 5.56408 29.0052 6.31892 27.658 6.96446C27.6139 6.98496 27.7361 7.36067 27.7802 7.56902C27.9906 7.71247 28.1094 8.01646 27.9092 8.10868C26.3787 8.81228 26.7791 10.2434 26.7656 11.4115C26.7588 11.9956 27.5393 12.3884 28.1195 12.6924C28.9747 14.243 29.0561 15.739 27.7802 17.1292Z" fill="#FACAB9"/>
<path d="M19.9786 36.6013C20.3791 36.2051 20.749 35.7235 21.3734 36.2973C21.8959 36.7789 22.7138 37.1 21.8043 38.3569C22.7477 37.9846 23.4332 37.0897 23.7488 38.3364C23.1685 38.6643 22.5882 38.9922 22.0045 39.3201C21.7059 38.5994 21.4209 38.999 21.0272 39.2723C18.3769 41.1304 15.4348 42.2848 12.245 42.7596C11.0437 42.9372 9.90687 43.3334 8.68523 43.5315C11.1048 42.1243 13.5209 40.7034 15.9506 39.3167C16.8838 38.7839 17.8 38.2954 18.343 37.2708C18.6552 36.6765 19.3305 36.5672 19.9786 36.6013C20.1347 36.7106 19.9447 36.8951 20.0669 37.0146C20.094 36.8643 20.0974 36.7174 19.9786 36.6013Z" fill="#FACBBA"/>
<path d="M3.01137 44.7884C2.4243 44.6347 2.3225 43.8867 1.54879 43.7945C0.921003 43.7194 0.890462 42.8484 1.08728 42.2165C1.3384 41.4138 1.67435 40.6351 1.88135 39.8222C1.96958 39.4738 2.4277 38.6507 1.335 38.982C2.03406 35.2829 3.00119 31.6522 4.01923 28.0351C5.49877 30.1698 4.90831 32.3284 4.10067 34.4973C3.99208 34.7911 4.11085 35.0438 4.36197 35.2283C4.63344 36.5535 4.02262 37.7285 3.58826 38.8727C3.14711 40.034 2.78062 41.1748 2.67203 42.4044C2.50235 43.2378 4.04637 43.8287 3.01137 44.7884Z" fill="#F9CAB9"/>
<path d="M10.1308 13.0305C10.5143 13.2559 10.1614 13.4882 10.1376 13.7204C10.3446 14.1337 10.1682 14.4958 9.96456 14.8373C8.92956 16.5964 7.91831 18.3656 7.34821 20.3466C7.26676 20.6336 7.03261 20.8043 6.74078 20.8829C6.14353 21.3064 6.60504 22.2559 5.794 22.6726C5.76007 22.2594 5.72953 21.8905 5.69899 21.5182C6.42519 18.2905 7.89455 15.459 10.1308 13.0305Z" fill="#F7BFAC"/>
<path d="M0.632559 45.4749C0.805625 45.2632 0.975298 45.0412 1.15515 44.8362C1.39948 44.563 1.6981 44.3683 2.00012 44.7099C2.35304 45.1129 1.95261 45.2973 1.68792 45.4681C1.41984 45.6423 1.34179 45.8882 1.30786 46.1717C1.0805 45.9395 0.856527 45.7072 0.632559 45.4749Z" fill="#F9CAB9"/>
<path d="M13.5311 13.717C15.2244 11.4662 17.0263 9.3212 19.3543 7.70222C20.0872 7.19331 20.9085 6.80052 21.6957 6.37357C22.0758 6.16864 22.4559 6.17547 22.7715 6.52386C23.0871 6.87224 23.0124 7.24454 22.8258 7.62367C22.3337 8.6176 21.5566 9.34853 20.6573 9.94625C18.472 11.4013 16.6497 13.2081 15.2244 15.4214C15.0446 15.5478 14.841 15.6502 14.6849 15.8039C14.1317 16.3538 13.4904 16.8013 12.8219 16.1318C12.1466 15.4556 12.6047 14.8168 13.1476 14.2601C13.3003 14.103 13.4055 13.8981 13.5311 13.717Z" fill="#FBD6C7"/>
<path d="M17.9358 16.4461C18.119 15.7971 18.1631 15.0149 19.2151 15.4556C19.8429 15.7186 19.6325 14.9603 19.921 14.7451C20.3723 14.4036 20.7082 14.103 21.1358 14.7144C21.6448 15.4453 22.3982 15.4897 23.2669 15.4385C22.1912 15.7561 21.4955 16.4427 21.5091 17.4434C21.5125 17.7713 22.6697 17.7679 21.75 18.7379C21.3462 19.1614 22.6832 18.9121 23.1889 19.0112C23.345 19.7899 22.5373 19.7592 22.3507 20.2032C21.6516 19.5679 21.6041 20.958 20.8983 20.5891C21.129 19.3254 20.5487 18.3178 19.6325 17.4571C19.4391 17.2624 19.2524 17.054 18.9369 17.136C18.6009 16.9072 18.4652 16.3914 17.9358 16.4461Z" fill="#FACCBC"/>
<path d="M6.74417 20.8863C7.8674 18.492 8.65808 15.9406 10.1376 13.7204C10.365 13.7204 10.589 13.717 10.8163 13.717C10.8672 14.6392 9.76095 15.5239 10.9554 16.5861C10.1614 16.0943 9.78471 16.0328 9.29605 16.7261C8.53252 17.8055 8.05404 18.9599 7.76221 20.2203C7.62986 20.7838 7.56199 21.4021 6.74417 20.8863Z" fill="#FAD6C7"/>
<path d="M32.1781 24.9713C31.5401 25.3914 30.9056 25.8115 30.2676 26.2351C30.1624 26.1292 30.0572 26.0199 29.952 25.914C31.7675 24.1789 33.8104 22.6351 34.8759 19.7967C35.3001 21.3098 34.2176 21.7573 34.187 22.5838C33.7934 23.6119 33.2606 24.5239 32.1781 24.9713Z" fill="#FDECE2"/>
<path d="M2.10532 46.2093C2.87563 44.2829 4.66738 45.1607 5.67184 44.3C5.77704 44.2078 6.49645 44.4879 6.51681 44.9524C6.53378 45.3827 6.13335 45.6765 5.74989 45.7414C4.6029 45.9292 3.44234 46.0419 2.10532 46.2093Z" fill="#F9CAB9"/>
<path d="M2.67203 42.4009C2.2716 41.5744 2.56004 40.7 2.88921 40.0408C3.65952 38.5038 3.80544 36.8062 4.36197 35.2283C4.4977 34.9858 4.63684 34.7432 4.77257 34.5007C4.759 37.3288 3.35072 39.7641 2.67203 42.4009Z" fill="#FCDED1"/>
<path d="M19.3 35.5766C18.9979 35.8226 18.679 36.048 18.4007 36.3144C17.1655 37.503 17.9019 35.867 17.5421 35.7201C17.0229 36.1197 17.4166 37.4245 16.1678 37.199C16.6531 36.4544 16.1373 35.2248 17.4743 34.9584C18.1733 34.8184 18.4584 35.3888 18.9572 35.5732C19.0726 35.4503 19.188 35.4503 19.3 35.5766Z" fill="#FACBBA"/>
<path d="M32.1781 24.9713C32.8975 24.2165 33.2742 23.1713 34.187 22.5804C35.1915 23.9774 33.8172 24.5102 33.2097 25.3231C32.9824 25.3334 32.7584 25.5485 32.531 25.3231C32.4123 25.207 32.2969 25.0909 32.1781 24.9713Z" fill="#FAD0C0"/>
<path d="M19.3 35.5766C19.1846 35.5732 19.0692 35.5732 18.9538 35.5698C19.792 34.0943 21.6754 33.9303 22.6459 32.6119C21.862 33.9816 20.8406 35.0711 19.3 35.5766Z" fill="#FAD5C6"/>
<path d="M25.9172 28.6772C25.3912 29.7668 24.5123 30.525 23.535 31.1842C24.0644 30.0947 24.9534 29.3501 25.9172 28.6772Z" fill="#EFB3A0"/>
<path d="M32.531 25.3265C32.7584 25.2958 32.9824 24.944 33.2097 25.3265C33.1317 26.0745 32.677 26.5152 32.0152 26.8294C31.625 26.095 32.3851 25.8218 32.531 25.3265Z" fill="#FCE1D2"/>
<path d="M32.8738 2.45933C32.7109 2.39785 32.3105 2.37736 32.548 2.14852C33.2131 1.50639 33.919 1.89918 34.5875 2.24074C34.5909 2.24415 34.5637 2.35345 34.5332 2.36711C34.4348 2.4081 34.3262 2.42518 34.2244 2.4525C33.773 2.4525 33.3217 2.45592 32.8738 2.45933Z" fill="#FADCCF"/>
<path d="M5.53949 25.9345C5.77025 26.9148 5.83812 27.4954 5.34267 28.3015C4.82348 27.4203 5.39697 26.8874 5.53949 25.9345Z" fill="#FAD3C3"/>
<path d="M16.2391 15.763C16.5852 15.2267 16.9279 14.6802 17.2707 15.7664C16.9279 15.862 16.5818 16.306 16.2391 15.763Z" fill="#F9D9CC"/>
<path d="M11.7326 16.955C11.8445 17.6176 11.685 17.9455 11.0844 18.0446C11.0539 17.5595 11.1794 17.2077 11.7326 16.955Z" fill="#FCE1D5"/>
<path d="M18.9369 17.136C19.0081 16.9003 18.9912 16.511 19.3644 16.6271C19.7411 16.7466 19.5986 17.1565 19.6359 17.4571C19.3475 17.4673 19.0997 17.3956 18.9369 17.136Z" fill="#FAE1D5"/>
<path d="M28.1195 12.6889C28.1704 12.344 28.2485 12.0093 28.6998 12.0844C28.805 12.1015 28.9815 12.3269 28.9577 12.3918C28.8016 12.7948 28.4216 12.6445 28.1195 12.6889Z" fill="#FACAB9"/>
<path d="M16.9822 7.48021C16.1712 8.60393 15.5129 9.27339 14.0944 9.68667C15.0344 8.66883 15.5027 7.80469 16.9822 7.48021Z" fill="#F9D5C7"/>
<path d="M13.1849 11.8521C13.1273 11.0426 13.6023 10.6908 14.3591 10.5679C13.9688 10.9948 13.5752 11.4218 13.1849 11.8521Z" fill="#F9D5C7"/>
<path d="M27.7768 4.83315C27.1219 4.83315 26.4635 4.83315 25.6525 4.83315C27.485 3.98951 27.485 3.98951 27.7768 4.83315Z" fill="#FBDACA"/>
<path d="M30.0165 1.48248C30.8411 1.48248 31.5096 1.48248 32.2256 1.48248C31.2958 1.99823 31.2958 1.99823 30.0165 1.48248Z" fill="#F9C4B3"/>
<path d="M27.7802 7.5656C27.485 7.8935 27.1863 8.20773 26.6536 8.06769C26.864 7.44264 27.3662 7.61684 27.7802 7.5656Z" fill="#F9C4B3"/>
<path d="M19.9786 36.6013C20.4028 37.3254 20.4028 37.3254 19.0692 37.8685C19.4255 37.3664 19.7038 36.9839 19.9786 36.6013Z" fill="#FCE6DC"/>
</svg>
