<svg width="37" height="49" viewBox="0 0 37 49" fill="none" xmlns="http://www.w3.org/2000/svg">
<path d="M31.2138 11.555C30.0512 13.7269 28.3826 15.591 27.603 18.0147C27.1379 19.4626 26.943 20.8371 26.9977 22.3865C27.2097 28.388 25.6813 33.8405 21.5609 38.3416C19.2118 40.9052 16.5481 43.0142 13.5391 44.7349C12.1201 45.5463 10.9472 46.8018 9.26831 47.1411C8.89901 46.9942 8.30062 47.0012 8.72463 46.3087C14.329 43.1785 19.7282 39.8245 23.192 34.0293C25.353 30.4095 26.0301 26.391 25.8796 22.327C25.7257 18.2176 27.5483 15.0909 29.6443 11.9642C29.9281 11.541 30.2427 11.1038 30.8103 11.0199C31.101 11.0724 31.313 11.1948 31.2138 11.555Z" fill="#F5D5C8"/>
<path d="M0.736978 29.6716C1.42427 24.6143 4.08454 20.7357 7.80823 17.56C10.4138 15.3357 13.4741 13.9297 16.7054 12.8875C20.9762 11.5095 24.3238 8.83752 26.967 5.16874C27.7226 4.11952 27.4252 2.62962 28.4441 1.7203C28.7724 1.61887 28.8955 1.82872 28.981 2.09452C28.6527 5.47301 26.5669 7.73583 24.2486 9.84127C23.7835 10.2645 23.2672 10.6282 22.7748 11.0164C21.5507 11.8698 20.2205 12.5273 18.8836 13.1743C15.789 14.4334 12.6022 15.4546 9.82908 17.4656C7.09359 19.4521 4.93254 21.9038 3.39725 24.9466C2.78176 26.0692 2.37144 27.2758 2.00556 28.4999C1.82776 29.1015 1.76963 29.7765 1.13021 30.1227C0.83272 30.1227 0.607042 30.0598 0.736978 29.6716Z" fill="#F4D7C9"/>
<path d="M8.61179 46.4941C8.83063 46.7074 9.04947 46.9242 9.26831 47.1376C8.28353 49.1171 7.26797 49.4424 5.20267 48.4736C4.90861 48.3372 4.57009 48.2637 4.24525 48.2358C2.21415 48.0714 1.74569 47.5503 1.77305 45.4378C1.84827 45.1511 2.02266 44.9657 2.30305 44.8888C4.05035 45.4204 5.72242 46.3542 7.66462 45.889C8.03049 45.7981 8.40662 46.1024 8.61179 46.4941Z" fill="#F7C2B5"/>
<path d="M31.2138 11.555C31.0873 11.4256 30.9608 11.2962 30.8377 11.1633C30.9437 9.69788 32.1405 9.13479 33.0808 8.38285C33.5629 7.99814 34.2024 7.83726 34.6127 7.33363C34.8144 7.05384 35.0196 6.77754 35.1666 6.45928C35.5325 5.66887 35.977 4.88895 35.2692 4.04957C34.6058 3.26615 33.8502 3.55294 33.0876 3.82923C32.3764 4.08804 31.6857 4.18247 31.566 3.14724C31.46 2.2589 31.8088 1.79724 32.756 2.15398C33.0363 2.23442 33.3509 2.20993 33.604 2.40229C35.2111 2.18895 36.3839 2.74854 36.89 4.39931C37.3003 5.73182 36.5309 7.85125 35.1153 8.56472C33.604 9.32715 32.4243 10.4393 31.2138 11.555Z" fill="#F4DBCE"/>
<path d="M2.1184 45.0706C2.00214 45.193 1.88589 45.3154 1.76963 45.4379C0.234331 44.4691 0.203556 42.9582 0.545493 41.4368C0.808785 40.2617 0.736978 39.174 0.477106 38.0164C-0.148639 35.2254 -0.25122 32.424 0.733559 29.6716C0.849817 29.7975 0.966076 29.9234 1.08233 30.0458C1.49608 30.5599 1.29775 31.1475 1.27382 31.7105C1.19859 33.5607 1.18492 35.4073 1.56105 37.2329C1.87905 38.7718 2.05002 40.3211 1.66021 41.867C1.3764 43.0141 2.19021 43.9724 2.1184 45.0706Z" fill="#F5D7CB"/>
<path d="M33.6005 2.40229C33.3612 2.5247 33.1252 2.64711 32.8859 2.76952C31.9045 1.15722 31.5592 1.0418 29.8871 1.78325C29.5383 1.93714 29.2374 2.27289 28.7963 2.08053C28.6766 1.96162 28.5604 1.83921 28.4407 1.7203C30.5573 -0.797833 32.544 -0.535528 33.6005 2.40229Z" fill="#F9E5D9"/>
<path d="M2.1184 45.0706C1.02079 43.9829 0.829301 42.6749 1.2704 41.241C1.77647 39.5937 1.13021 38.0303 0.94556 36.439C0.695946 34.2951 0.579687 32.1687 1.08917 30.0493C1.78331 28.3006 1.89272 26.314 3.13396 24.7857C3.8486 24.4954 3.72209 22.8656 4.71371 23.3762C5.68481 23.8764 4.71029 24.9256 4.72054 25.737C4.72396 25.8489 4.67951 25.9748 4.61454 26.0622C3.16815 27.9543 3.46222 29.9059 4.40938 31.8854C4.36151 33.2914 3.40751 34.6623 4.26235 36.0928C4.71371 36.5824 4.93938 36.0473 5.23687 35.8655C5.78397 35.5262 6.35158 35.2254 6.97733 35.5997C7.73985 36.0578 7.30217 36.7153 7.18249 37.3064C7.13462 37.5372 7.19617 37.7645 7.19275 37.789C7.96553 36.4915 6.88159 35.0261 7.07649 33.5362C7.09359 33.4173 7.21326 33.2809 6.96707 33.169C5.28132 32.4135 4.98042 30.1017 6.29687 28.1852C7.0252 27.1744 7.62701 26.0273 8.93663 25.653C10.448 26.5204 10.9712 27.9263 10.4822 29.787C9.97612 30.469 9.7265 31.2699 9.43244 32.2107C9.78121 31.3363 9.94192 30.5424 10.4514 29.9059C11.614 28.6993 12.1919 27.3668 11.3131 25.723C11.2481 25.5621 11.231 25.3977 11.2618 25.2264C11.2926 25.062 11.4328 24.9605 11.4772 24.8067C11.3268 24.8801 11.1797 24.9571 11.0019 24.9361C10.4617 24.6528 9.87353 25.1844 9.33669 24.8381C9.24437 24.7122 9.20334 24.5688 9.21702 24.4115C9.53502 23.8134 9.95902 23.2573 9.88037 22.5124C10.9164 21.2078 12.7732 21.3512 13.7066 20.267C12.7116 20.3125 12.0277 22.3095 10.5061 21.0609C10.4753 20.9036 10.4822 20.7462 10.5198 20.5888C10.7557 20.1096 10.9848 19.627 11.2105 19.1409C11.6995 18.5568 12.3457 18.1686 12.9441 17.7139C13.0843 17.6545 13.2314 17.623 13.3818 17.616C13.7614 17.637 14.1375 17.6055 14.5205 17.6055C16.7772 17.8888 16.7772 17.8888 17.8304 15.605C18.0082 15.2203 18.3057 14.9755 18.7023 14.8531C18.8494 14.8356 18.9964 14.8496 19.1469 14.8635C19.246 14.874 19.3452 14.8565 19.4443 14.8635C19.3828 14.6327 19.2016 14.874 19.099 14.7726C18.3023 14.6957 17.403 15.0524 16.7601 14.1221C17.338 13.4506 18.2715 13.4506 18.8836 12.898C20.1316 12.195 21.3831 11.4955 22.6312 10.7926C23.3014 10.9989 23.9613 11.3102 24.6897 11.0933C24.8401 11.4885 25.0624 11.6984 25.4761 11.4011C26.967 11.9117 25.7326 13.0519 26.0848 14.206C26.2797 12.9924 26.6319 12.1845 27.2405 11.527C27.4628 11.2892 27.7192 10.9744 28.0954 11.2053C28.451 11.4221 28.3279 11.8033 28.3005 12.1356C28.3894 12.3034 28.2697 12.5098 28.386 12.6777C28.4202 12.4573 28.3621 12.244 28.3381 12.0271C28.4578 11.1843 28.8374 10.4953 29.4563 9.92521C30.1367 9.29917 31.1318 9.05785 31.0599 7.66938C31.0189 6.89646 31.9456 7.46304 32.4277 7.57845C32.4824 7.63791 32.544 7.68687 32.5952 7.71835C32.5269 7.66239 32.4653 7.59943 32.3969 7.52249C32.1644 6.98039 32.1473 6.32988 32.7047 6.18998C33.6518 5.95216 34.2468 5.32962 34.8896 4.69659C35.0811 4.50773 35.3752 4.33636 35.6419 4.57068C35.8642 4.76654 35.9189 5.07081 35.8265 5.3541C35.5735 6.14102 34.9067 6.76006 34.9273 7.65889C33.4364 8.66964 31.8259 9.53 30.8411 11.1598C29.0254 13.0624 28.0235 15.4861 26.8199 17.7734C26.201 18.945 26.4199 20.274 26.3925 21.5471C26.3207 24.7367 26.1737 27.9124 25.0931 30.9621C23.486 35.5017 20.4496 38.8697 16.7841 41.7586C14.941 43.21 12.7834 44.1683 11.0156 45.7456C10.383 46.3087 9.52134 46.585 8.61863 46.4871C7.92449 46.2842 7.27823 46.1828 6.50887 46.3926C4.83338 46.8508 3.55112 45.6267 2.1184 45.0706Z" fill="#FEF2E8"/>
<path d="M18.8733 12.898C18.5587 13.6884 17.7449 13.7409 17.1226 14.1011C17.7347 14.6782 18.6066 14.1361 19.2118 14.6502C19.1708 14.8461 19.0545 14.965 18.8631 15.0104C18.5006 15.1958 18.1518 15.4266 18.0492 15.8428C17.4303 18.3644 17.3004 18.4589 15.006 18.0637C14.7803 18.0252 14.5683 18.0567 14.4281 17.8328C14.093 17.4132 13.7443 17.8993 13.4023 17.8119C13.2861 17.8119 13.1732 17.8119 13.057 17.8119C11.8944 18.0777 11.0498 18.7666 10.4104 19.7844C10.1402 20.2146 10.3796 20.3999 10.6634 20.6098C10.8173 21.5751 11.3849 21.3023 11.9012 21.0085C12.7424 20.5328 13.5596 20.0152 14.4726 19.669C13.3715 21.3198 11.2926 21.4212 9.98295 22.7292C10.1368 23.4462 9.52476 23.8484 9.31276 24.4185C9.30934 24.5479 9.3025 24.6773 9.29908 24.8067C9.23069 24.8416 9.16231 24.8731 9.09392 24.9116C7.89714 25.7719 6.95681 26.8247 6.56016 28.3076C5.00435 29.8464 6.77559 31.151 6.43023 32.7877C7.22694 32.7003 6.65933 32.1442 7.53469 31.9239C7.31927 34.421 8.33482 36.9182 6.82346 39.5692C6.43707 38.5969 7.03204 38.1108 6.90552 37.5302C6.78242 36.9636 7.63043 36.1802 6.73797 35.8585C6.13958 35.6416 5.43177 35.8794 5.11719 36.6978C4.98042 37.0581 4.6077 37.3903 4.15977 37.1105C3.83493 36.9077 4.10164 36.5964 4.16319 36.3341C3.59557 35.2289 3.75286 34.1203 4.1119 32.9906C4.23157 32.6199 4.79919 32.2212 4.16661 31.8015C2.84331 30.0003 2.63473 28.2376 4.02641 26.2966C4.52564 25.6006 4.57351 24.5618 4.83338 23.6595C3.72893 23.4007 4.17686 25.1669 3.12712 24.7927C4.09138 22.1486 5.92416 20.1376 7.95869 18.3784C11.1284 15.633 14.8897 13.9997 18.8733 12.898Z" fill="#FEF6EE"/>
<path d="M28.1056 12.223C27.8492 11.3487 27.7568 11.2962 27.5483 11.6844C27.2097 12.3174 26.4883 12.7826 26.6045 13.6255C26.6797 14.185 26.6182 14.4823 25.9514 14.4788C24.9153 14.4753 25.6061 13.7024 25.5172 13.3667C25.3667 12.8036 26.4267 12.1006 25.3735 11.541C25.3701 10.9919 24.8709 11.3941 24.6965 11.1738C23.804 12.2055 23.192 11.6249 22.6209 10.7996C23.6399 9.82378 24.676 8.86549 25.6779 7.86873C27.2884 6.26692 28.1637 4.24193 28.7963 2.08403C29.4392 1.78675 29.8016 1.11874 30.6291 0.985843C32.12 0.74802 32.8996 1.16071 32.8893 2.77302C32.5918 2.63662 32.2978 2.50022 32.0003 2.36382C31.9729 2.69258 31.8943 3.02833 31.925 3.35009C31.9661 3.7418 32.267 3.77677 32.5576 3.63338C33.7134 3.05631 34.9067 2.42677 35.8163 3.94814C36.7087 5.44503 35.553 6.50824 34.9238 7.66938C34.3665 7.57146 34.2571 7.38609 34.6742 6.89646C35.1769 6.30889 35.6009 5.63739 35.5462 4.62664C34.5033 5.28415 34.24 6.92793 32.7252 6.50125C32.6671 6.89296 32.6123 7.28117 32.5542 7.67288C31.9456 7.88972 30.7761 7.46653 31.2343 8.92845C31.2856 9.08933 30.8582 9.53 30.5744 9.65241C29.4187 10.142 28.9434 11.1773 28.4544 12.2195C28.3347 12.3349 28.2219 12.3419 28.1056 12.223Z" fill="#FEF5ED"/>
<path d="M10.3283 29.6995C10.1539 28.3111 10.3181 26.7967 8.96056 25.8524C8.72463 25.3837 9.00501 25.09 9.3025 24.8032L9.30592 24.7997C9.87353 25.069 10.4377 23.5686 11.0088 24.7927C11.1968 24.9396 11.2173 25.1424 11.1421 25.3418C10.9677 25.7999 11.2515 25.5306 11.3781 25.5061C12.7014 26.7512 12.4141 28.5839 10.6668 30.0493C10.3522 30.1402 10.2326 30.0283 10.3283 29.6995Z" fill="#FEF6EE"/>
<path d="M9.3025 24.8032C9.18966 25.1529 9.0734 25.5026 8.96056 25.8524C7.96895 26.4679 7.31585 27.4332 6.57042 28.3006C6.22849 28.2376 5.74977 28.0697 6.09171 27.692C6.97391 26.7197 7.6612 25.6216 8.39295 24.5444C8.79985 23.9428 8.99134 24.7192 9.3025 24.8032Z" fill="#FEFCF9"/>
<path d="M10.6702 20.6098C10.3215 20.7217 9.96586 21.1274 9.61024 20.6692C9.3025 20.2705 9.69573 20.0502 9.90431 19.8194C10.7762 18.8576 11.231 17.1963 13.0638 17.8154C12.7253 18.5778 12.0243 18.8786 11.3541 19.2178C11.0908 19.6585 11.0327 20.2111 10.6702 20.6098Z" fill="#FEFBF8"/>
<path d="M4.16661 31.7945C4.3239 31.6511 4.54616 31.3538 4.6248 31.3888C5.05222 31.5846 4.89151 32.0323 4.75132 32.2666C3.97854 33.5467 4.2179 34.9561 4.16661 36.3306C2.84331 35.5087 3.58873 34.3126 3.6708 33.2634C3.71183 32.7633 3.99564 32.2841 4.16661 31.7945Z" fill="#FAE0D4"/>
<path d="M5.65403 37.761C6.27978 39.5202 5.32577 40.6744 5.03855 42.1678C4.50512 40.5415 4.84022 39.2614 5.65403 37.761Z" fill="#FEFCF9"/>
<path d="M12.2705 43.7206C10.701 43.2904 9.75386 42.1853 8.30404 41.5732C10.1266 41.5767 10.7386 41.9125 12.2705 43.7206Z" fill="#F6DACD"/>
<path d="M10.3283 29.6995C10.4411 29.8149 10.5574 29.9339 10.6702 30.0493C10.0616 30.9376 10.0548 32.1407 9.11101 32.8787C9.12127 31.6756 9.43244 30.5844 10.3283 29.6995Z" fill="#FEFBF7"/>
<path d="M26.8815 16.273C26.5464 17.2033 26.2113 18.1301 25.8762 19.0604C25.7257 19.0045 25.5753 18.9485 25.4248 18.8926C25.5616 17.8853 25.7941 16.92 26.8815 16.273Z" fill="#F4DCD0"/>
<path d="M9.11443 45.7666C7.98262 45.6477 7.10384 45.1336 6.57726 44.0739C7.42185 44.6404 8.26985 45.2035 9.11443 45.7666Z" fill="#F7DBCF"/>
<path d="M12.8552 41.2724C13.3476 40.7968 13.84 40.3176 14.3358 39.842C14.4008 39.9154 14.4692 39.9854 14.5341 40.0588C14.0349 40.5275 13.5391 40.9926 13.0399 41.4613C12.9783 41.3983 12.9168 41.3354 12.8552 41.2724Z" fill="#F6D8CA"/>
<path d="M22.173 28.3985C22.0978 29.4722 22.0807 30.0912 21.3831 30.6333C21.2429 29.794 21.5336 29.2728 22.173 28.3985Z" fill="#F5DACD"/>
<path d="M13.033 37.4848C13.033 38.485 12.5748 38.7788 11.8294 39.2929C12.0175 38.3311 12.2944 37.8695 13.033 37.4848Z" fill="#F8DBCD"/>
<path d="M9.3196 24.4115C9.16572 23.691 9.66153 23.2433 9.98979 22.7222C10.7899 23.712 9.88379 23.9918 9.3196 24.4115Z" fill="#F3CEBE"/>
<path d="M24.6965 11.1703C25.1137 11.0759 25.4077 10.3099 25.8146 10.6771C26.2592 11.0794 25.6402 11.2997 25.3735 11.5375C25.0111 11.6809 24.6589 11.8033 24.6965 11.1703Z" fill="#F3D5C8"/>
<path d="M18.8665 15.0104C18.9827 14.8915 19.099 14.7691 19.2153 14.6502C19.588 14.5418 19.9333 14.1361 20.4496 14.5488C19.9504 15.0034 19.4956 15.2972 18.8665 15.0104Z" fill="#F5DACD"/>
<path d="M23.0791 20.0362C22.8877 19.2493 23.127 18.8261 23.4997 18.3609C23.8075 19.0709 23.5886 19.5501 23.0791 20.0362Z" fill="#F0D2C7"/>
<path d="M16.4216 31.2629C16.5105 31.749 16.531 32.2386 16.0865 32.6443C15.4745 31.9798 16.2643 31.6931 16.4216 31.2629Z" fill="#F5DACE"/>
<path d="M11.3781 25.5061C11.2105 25.7789 11.0395 26.0517 10.8241 26.398C10.5198 25.716 11.0566 25.3033 11.0053 24.7962C11.1968 24.7752 11.3917 24.7577 11.5832 24.7367C11.5183 24.992 11.4499 25.2508 11.3781 25.5061Z" fill="#F1CDBD"/>
<path d="M13.4092 17.8119C13.7203 17.4376 14.0759 17.0669 14.5854 17.3222C14.7803 17.4201 14.6059 17.6929 14.4316 17.8328C14.0896 17.8993 13.7408 18.3644 13.4092 17.8119Z" fill="#F4DACC"/>
<path d="M28.1056 12.223C28.2185 12.223 28.3313 12.2195 28.4441 12.216C29.0767 13.0729 28.1501 13.1358 27.6884 13.4681C27.8321 13.0519 27.9688 12.6357 28.1056 12.223Z" fill="#FAE1D5"/>
<path d="M21.4789 22.6173C21.1335 21.8863 21.537 21.5611 21.8311 20.9595C22.2995 21.8304 21.8413 22.1381 21.4789 22.6173Z" fill="#F6DBCD"/>
<path d="M16.7772 20.8896C16.661 21.8409 16.237 22.0507 15.7993 22.348C15.6659 21.5226 16.2849 21.4946 16.7772 20.8896Z" fill="#F3D3C3"/>
<path d="M13.4228 27.3073C13.1972 27.9753 13.1254 28.5594 12.7184 28.451C12.2192 28.3216 12.6056 27.9508 12.7971 27.7235C12.8894 27.6116 13.0467 27.5521 13.4228 27.3073Z" fill="#FEF6EE"/>
<path d="M18.316 35.4947C18.2989 34.8022 18.6476 34.6414 19.0887 34.3965C19.1093 35.0855 18.7605 35.2499 18.316 35.4947Z" fill="#FAE4D8"/>
<path d="M16.9585 36.4495C16.9448 35.8864 17.2183 35.6451 17.7176 35.5367C17.7278 36.0998 17.4509 36.3376 16.9585 36.4495Z" fill="#FAE4D8"/>
<path d="M20.0051 26.9855C20.0085 26.2231 20.1351 25.9503 20.436 25.7545C20.7403 26.2091 20.4189 26.44 20.0051 26.9855Z" fill="#F3DBCC"/>
<path d="M10.6702 20.6098C10.725 20.0572 10.9062 19.5641 11.3541 19.2143C11.3849 19.8089 11.2892 20.344 10.6702 20.6098Z" fill="#FEF6EE"/>
<path d="M17.7586 38.3416C17.5979 38.45 17.4269 38.6424 17.2354 38.6669C17.0166 38.6949 17.0098 38.4605 17.1329 38.3381C17.2799 38.1842 17.4816 38.0863 17.6594 37.9639C17.6868 38.0653 17.7141 38.1667 17.7586 38.3416Z" fill="#F5DACD"/>
<path d="M4.70345 30.0912C4.59061 29.119 5.08984 28.7447 5.31893 27.8564C5.62326 28.9266 5.20951 29.3533 4.70345 30.0912Z" fill="#F3D6CA"/>
<path d="M7.8014 21.5576C7.93475 21.0365 8.18095 20.7602 8.76224 20.7182C8.61863 21.2288 8.37927 21.5156 7.8014 21.5576Z" fill="#F3D3C4"/>
</svg>
