<svg width="48" height="65" viewBox="0 0 48 65" fill="none" xmlns="http://www.w3.org/2000/svg">
<path d="M6.66188 63.3191C6.07405 63.5978 5.48622 63.8766 4.89839 64.1596C4.17018 63.7179 3.53849 64.2282 2.87608 64.3654C2.25316 64.4984 1.67849 64.4212 1.4416 63.8037C1.16962 63.0961 1.71358 62.7702 2.29264 62.6287C2.98136 62.4657 3.41127 62.0626 3.73151 61.5137C3.82363 61.4108 3.89382 61.3207 3.92452 61.2607C3.85434 61.3421 3.74028 61.385 3.56481 61.3893C2.29702 60.5617 1.23542 59.5839 0.796742 58.1045C1.25736 55.3771 2.26632 52.8384 3.56042 50.394C5.02999 49.3219 5.86787 50.7071 6.93825 51.2388C5.13089 50.334 4.05613 49.1118 4.86768 47.0062C5.39849 44.3732 6.48202 41.9503 7.84193 39.6346C7.94282 39.6388 8.04372 39.6474 8.14462 39.6517C9.25447 39.9648 10.2591 40.3807 10.2678 41.7573C10.0309 42.2676 9.85985 42.7865 10.0266 43.3568C10.1932 44.1545 9.50891 45.3938 11.3163 45.2823C11.8295 45.248 11.6891 46.0756 11.4084 46.5345C11.0662 47.0877 10.4126 47.3364 10.1318 47.9539C11.1013 47.6195 11.9129 47.1049 12.0489 45.9556C12.1849 44.8149 12.3252 43.8114 13.8782 44.8578C14.7073 45.4152 15.3214 44.4547 16.0628 44.3818C15.839 43.4555 14.9529 43.4812 14.3037 43.2025C13.5053 42.8637 12.7157 42.5463 12.6849 41.5171C14.0975 41.1869 14.1414 39.9819 14.4221 38.927C14.6502 38.2494 14.8871 37.5762 15.6987 37.3532C15.9005 37.3274 16.1023 37.3489 16.2953 37.4046C16.7866 37.7177 17.3218 37.9835 17.7078 38.421C17.7122 38.4767 17.7385 38.5496 17.7341 38.6182C17.7298 38.6868 17.699 38.7512 17.6771 38.8198C18.594 38.0007 19.831 38.9013 20.7873 38.2666C21.2962 38.0179 21.7568 38.198 22.2569 38.3309C23.8888 38.764 23.6431 40.5437 24.6521 41.4228C25.7006 42.3319 26.7797 43.2453 25.6611 44.8363C25.3101 45.3338 25.9901 45.8741 25.9506 46.4616C25.9067 47.0791 25.6874 47.5723 25.1741 47.9111C24.5293 48.3313 24.0906 48.0397 23.766 47.4565C23.4106 46.5173 23.7528 45.5996 23.8625 44.6862C23.8406 44.5447 23.7484 44.4504 23.5993 44.4118C23.7704 44.4289 23.8493 44.5233 23.8406 44.7077C23.4633 45.6039 23.222 46.4959 23.7484 47.4093C24.3143 48.3956 23.2132 49.1161 23.3054 50.0295C19.7828 53.9233 15.8434 57.3626 11.5093 60.3644C10.6232 60.4459 9.74141 60.7589 8.85966 60.343C8.48679 60.1157 8.18849 59.8498 8.33325 59.3609C8.63594 58.8806 9.09216 58.6748 9.64929 58.6362C9.82037 58.5204 10.2678 58.7263 10.1669 58.589C9.56155 57.7828 8.62278 57.354 7.79806 56.7922C7.05231 56.2819 6.10915 55.9088 6.10037 54.7896C6.21882 54.4079 6.94702 54.1763 6.61363 53.7604C6.17056 53.2029 5.73627 53.7089 5.359 54.0348C4.77117 54.1806 4.16141 54.3093 4.64834 55.1283C4.60448 55.5229 4.45094 55.8788 4.26669 56.2219C4.04735 56.8351 3.31476 57.0324 3.04278 57.6199C3.69641 58.469 4.48603 57.8171 5.20108 57.8386C5.40287 57.8514 5.5915 57.9029 5.77136 57.9887C6.67066 59.0951 7.77613 59.957 9.07462 60.5874C9.19745 62.4743 7.5524 62.3585 6.43377 62.8859C6.07405 63.0489 6.69698 63.1047 6.66188 63.3191Z" fill="#F3923A"/>
<path d="M7.84193 39.6388C10.1538 34.0854 12.8209 28.7036 15.9312 23.5275C17.6289 20.7015 19.0195 17.6825 21.7305 15.5598C22.7132 14.7879 23.709 14.0932 25.0118 13.9817C26.477 13.6644 27.9378 13.7544 29.6004 13.9645C28.7231 15.3711 27.3982 14.8994 26.3191 15.101C25.898 15.4312 24.7969 15.131 25.218 16.2502C25.2092 16.8334 24.7004 17.2837 24.8013 17.8798C24.2792 18.5145 25.4724 18.7117 25.1917 19.295C24.7442 20.0154 24.4723 21.036 23.2264 20.4271C23.0509 20.2813 22.9588 20.0197 22.6649 20.0368C22.5201 20.1183 22.371 20.1784 22.2174 20.2341C21.9762 20.337 21.7656 20.4828 21.5419 20.6072C21.3664 20.6286 21.1909 20.6115 21.0286 20.56C20.8356 20.5471 20.6645 20.5729 20.6163 20.8044C20.8224 20.7315 21.0198 20.6372 21.2567 20.6887C22.2613 21.2076 21.6954 21.8422 21.3752 22.4254C21.0506 23.0129 20.4013 23.5061 20.9146 24.2866C20.9979 24.5482 21.0111 24.8098 20.9321 25.0671C21.1865 25.6717 21.9104 25.6503 22.2701 26.3321C22.5552 25.3029 21.5989 25.3501 21.4848 24.8355C21.305 24.248 21.6954 23.8963 22.0507 23.5318C22.507 23.1373 22.8316 22.5884 23.437 22.3568C24.617 22.2668 25.3584 22.9701 26.0647 23.7377C26.1875 23.9692 26.2972 24.4667 26.4551 24.3938C28.3107 23.5533 29.0477 24.7197 29.7189 26.0577C29.8768 26.7052 29.6267 27.2627 29.3284 27.8116C27.5913 30.1187 27.5913 30.1187 24.9592 27.7601C24.9285 29.1324 24.2441 29.9086 22.893 30.0801C22.0683 30.0115 21.5857 29.4283 21.1427 28.9952C21.5243 29.9987 23.1562 29.8957 23.4501 31.1565C22.9193 32.0571 22.2262 31.8941 21.4147 31.5296C20.375 31.0622 19.6161 30.2602 18.9186 29.6856C19.6994 31.0579 21.7744 31.2165 22.643 32.7861C22.02 33.7595 22.428 36.0023 20.0416 34.8102C19.8705 35.4406 19.9451 36.161 19.3002 36.607C18.0982 37.4046 17.1419 37.2159 16.6111 35.8565C16.3655 35.2219 15.8083 34.9002 15.453 34.4328C15.4749 34.4542 15.4311 34.4328 15.4311 34.4328C15.4311 34.4328 15.5539 34.5657 15.5715 34.5786C16.1066 35.2133 17.0103 35.848 15.4267 36.3025C15.0319 36.4183 15.1021 36.8729 15.0231 37.1988C14.9354 37.5804 14.8169 37.9407 14.409 38.1122C14.2291 38.0564 14.0492 37.9835 13.8825 37.8978C13.9922 37.9878 14.137 38.0179 14.2554 38.1165C14.4309 38.3652 14.4528 38.6311 14.4002 38.9055C13.6325 39.7675 13.2772 41.0754 11.8076 41.1698C10.4916 40.8739 9.64929 39.3687 8.06127 39.7675C7.98231 39.7289 7.91212 39.686 7.84193 39.6388Z" fill="#F3923A"/>
<path d="M22.8886 29.87C23.9941 29.2911 25.0031 28.6521 24.3494 27.1683C26.069 27.1598 27.0956 30.8306 29.0257 27.7301C29.9426 27.1212 30.1575 28.1461 30.7059 28.4034C31.263 28.665 31.9517 29.2096 32.1491 28.0303C32.601 27.6101 33.0791 27.3056 33.7196 27.6143C33.7766 27.6701 33.86 27.713 33.9126 27.7902C33.8161 27.683 33.724 27.5757 33.6275 27.4514C33.3467 26.658 33.6406 26.0319 34.189 25.4787C34.4873 25.3201 34.7988 25.3029 35.1102 25.4359C36.2508 27.237 36.0358 29.201 35.8516 31.1651C35.7375 32.4001 35.3032 33.1592 33.8644 32.5374C33.3467 32.5331 33.3467 32.5331 33.2064 33.7209C33.1493 34.0125 32.9914 34.2484 32.7589 34.4371C32.4694 34.6644 32.1842 34.8959 32.0965 35.269C32.0526 35.6164 32.2456 35.848 32.4957 36.0624C32.6229 36.1824 32.715 36.3282 32.7764 36.4912C32.8335 36.7657 32.7852 37.0272 32.6492 37.2717C32.3597 37.6405 32.0307 37.9793 31.728 38.3395C30.9164 38.8498 30.9296 40.162 29.6662 40.2778C29.1354 40.325 29.2231 40.9254 29.2495 41.3242C29.2846 41.8774 29.6443 41.9631 30.1531 41.8688C30.5611 41.7916 31.0568 41.7187 30.8506 42.4263C28.6573 45.2609 26.1568 47.8038 23.3054 50.0166C22.6868 49.026 23.5554 48.297 23.766 47.4522C24.4898 47.8424 25.2619 47.9882 25.4286 46.9805C25.6304 45.7712 24.5995 44.4547 25.7356 43.2968C23.4808 42.2547 23.9107 38.5367 20.6908 38.4553C18.2737 38.2151 18.2737 38.2151 18.9405 36.3111C19.7126 35.7665 19.5371 35.0032 19.2257 34.1283C20.4627 34.4714 22.0639 35.8608 21.7437 33.1978C21.7349 33.1206 22.2043 32.9876 22.4543 32.8804C22.8667 32.6574 23.1562 32.8933 23.4501 33.1206C23.6388 33.2321 23.7528 33.7166 24.0731 33.2321C24.2485 32.9019 23.9853 32.5802 24.0774 32.2586C24.345 31.1394 23.1694 30.7148 22.8886 29.87Z" fill="#F28F38"/>
<path d="M32.5308 37.1773C32.5352 36.8857 32.5352 36.5984 32.5396 36.3068C32.6405 36.2167 32.7326 36.1181 32.8203 36.0152C32.7282 36.1138 32.6361 36.2125 32.5396 36.3025C32.0877 36.1696 31.0349 36.5984 31.6841 35.432C32.0219 35.0375 32.114 34.4843 32.5527 34.1583C32.6931 34.0168 32.8335 33.8796 32.9782 33.7381C33.044 33.1463 33.2107 32.6231 33.8907 32.4516C35.255 32.1771 34.8865 31.0236 35.2901 30.2688C36.2508 28.4634 34.2943 27.104 35.1716 25.5859C36.2201 25.5988 37.3826 24.9856 38.2336 26.0834C38.8302 25.706 38.1766 25.4187 38.1634 25.0928C37.7686 24.3938 37.6984 23.6133 37.5449 22.8543C37.2817 21.5463 37.7906 20.8345 39.1987 20.8302C40.7867 23.2488 40.6727 25.736 39.3873 28.2018C39.1022 28.7507 39.2864 29.3125 39.0276 29.8143C38.8785 30.0458 38.3301 29.3726 38.3915 30.0758C38.4354 30.599 38.5846 31.1265 38.2643 31.6196C37.4835 33.4679 36.4263 35.1532 35.2374 36.7699C34.0749 36.4826 34.5399 35.9594 34.9698 35.4792C33.9521 35.9123 34.4478 38.005 32.601 37.7134C32.4825 37.6062 32.4343 37.4904 32.4518 37.3703C32.4694 37.2417 32.4957 37.1773 32.5308 37.1773Z" fill="#F28C35"/>
<path d="M32.6185 14.6121C33.7459 11.9705 32.2544 9.66763 31.4999 7.31761C31.127 6.15547 31.5789 4.9676 31.0612 3.8655C30.9954 3.72827 31.2235 3.29944 31.2586 3.30801C33.6845 3.72398 32.5966 1.69989 33.1098 0.795046C33.3643 0.34477 33.7679 -0.0711991 34.3118 0.0102794C35.1629 0.13893 35.0795 0.919408 35.2067 1.52406C35.3383 2.02151 35.8384 2.16732 36.1631 2.48036C36.2859 2.99068 36.0797 3.43238 35.856 3.86979C34.983 5.11341 34.3162 6.36131 35.7375 7.67355C35.2506 8.86571 34.6979 10.0407 34.6803 11.3615C34.3732 12.3264 34.3294 13.2999 34.6189 14.2776C34.7023 14.5606 34.7505 14.8522 34.79 15.1438C34.7812 15.8343 35.3734 16.3875 35.2638 17.1036C34.8207 17.7855 34.1846 18.1199 33.3599 18.0942C33.0133 18.0042 32.7852 17.7855 32.6405 17.4724C32.4123 16.5204 32.2544 15.5684 32.6185 14.6121Z" fill="#93B748"/>
<path d="M33.4213 17.8669C34.0091 17.5968 34.597 17.3309 35.1848 17.0607C35.5752 16.649 35.97 16.6533 36.3648 17.0564C36.7158 17.4424 37.0711 17.8283 37.4221 18.2143C37.2159 19.1749 37.6502 19.6123 38.6197 19.6123C38.8127 20.0197 39.0013 20.4271 39.1943 20.8345C36.8342 22.0652 38.4617 23.7248 38.6986 25.2343C38.9618 25.736 39.0539 26.2078 38.4661 26.5637C37.8432 25.9805 37.3957 25.2343 36.7114 24.7068C36.2596 24.1365 35.7507 24.4796 35.2506 24.6296C33.3248 24.3809 31.4955 23.9306 30.1707 22.3911C30.5523 21.0189 32.2544 21.169 32.9256 20.1183C33.3599 19.9811 33.7898 20.054 34.1934 20.1655C32.6975 19.5608 30.8287 19.5179 30.1312 17.6482C30.2277 16.7091 30.7629 16.9578 31.3507 17.1937C32.0219 17.4553 32.4825 18.3772 33.4213 17.8669Z" fill="#F3943E"/>
<path d="M34.2943 15.2982C34.2767 14.9637 34.2548 14.6292 34.2372 14.299C33.9302 13.6815 34.4215 13.094 34.303 12.4851C34.5092 10.4953 35.8998 8.84855 36.0314 6.83732C36.2157 6.02253 36.4964 5.23777 36.8693 4.48302C37.4264 3.59104 38.0538 2.77626 39.1592 2.47608L39.1329 2.48465C39.8918 1.97434 40.4402 2.18447 40.835 2.94779C40.5542 4.06705 40.2691 5.18202 39.9883 6.30128C39.7646 6.94024 39.9752 7.67783 39.5453 8.2782C38.6591 9.91635 37.9309 11.636 36.9088 13.2055C36.5096 13.7201 36.242 14.3076 35.9744 14.8908C35.5401 15.5169 34.9567 15.5684 34.2943 15.2982Z" fill="#89AC42"/>
<path d="M32.6185 14.6121C33.0046 15.5212 32.8905 16.4861 32.9475 17.4338C32.2413 18.0042 31.8201 17.2751 31.2762 17.0865C30.7717 16.9106 30.1575 16.5547 30.1005 17.5367C30.1531 17.8198 30.2497 18.1028 30.1488 18.3901C29.8768 18.8876 29.5039 18.8404 29.0652 18.6174C28.9512 18.5574 28.8503 18.2443 28.6836 18.4845C28.0212 19.4322 28.0299 19.4408 27.1043 18.9262C26.692 18.7675 26.2708 18.7503 25.8409 18.8704C25.2268 18.7889 25.0338 18.2186 24.6433 17.8798C22.8228 16.8334 25.4286 16.8635 25.0776 16.1773C25.2312 15.7399 25.7049 15.4054 25.5163 14.8608C26.5384 13.9517 27.8983 14.7879 28.995 13.9817C27.6658 13.9817 26.3366 13.9817 25.0074 13.9817C27.6614 12.871 30.1488 13.6558 32.6185 14.6121Z" fill="#F3943E"/>
<path d="M32.5703 37.5804C33.917 37.4175 33.6319 35.7665 34.8426 35.3205C35.4436 35.6207 34.303 36.5641 35.2287 36.7657C33.8951 38.7469 32.5615 40.7281 30.8463 42.4263C28.7581 42.6964 28.1879 42.0403 28.7362 39.9905C28.7889 39.8018 28.8678 39.6217 28.9336 39.4373C30.4822 40.1406 30.4822 38.095 31.5832 38.0093C31.9649 37.975 32.2237 37.6791 32.5703 37.5804Z" fill="#F39441"/>
<path d="M0.796742 58.1045C1.96802 59.0307 2.67429 60.4287 4.04297 61.1577L4.03858 61.1449C3.90259 62.0926 4.38514 63.5292 2.44179 63.0232C2.03382 62.916 1.63023 63.169 1.67849 63.5421C1.74429 64.0438 2.19174 64.1381 2.68306 63.9752C3.44198 63.7222 4.21405 63.482 4.89839 64.1553C3.63061 64.6313 2.31896 65.5662 1.00731 64.5327C-0.304342 63.4992 -0.0718423 61.9768 0.25278 60.5617C0.437025 59.7469 0.213299 58.8378 0.796742 58.1045Z" fill="#F39036"/>
<path d="M47.0116 9.29025C47.538 9.79199 47.7924 10.4181 47.2265 10.9584C45.6473 12.4722 44.2435 14.2819 41.7387 14.3891C39.7822 13.8616 41.1026 12.9525 41.4623 12.1549C41.5237 11.9833 41.6158 11.8289 41.7255 11.6874C42.173 11.3272 42.3002 10.8341 42.3002 10.2937C42.4011 9.89491 42.5897 9.59044 43.0766 9.6033C43.7654 9.96352 44.4014 9.8606 45.0507 9.4575C45.6561 9.08012 46.3185 8.88715 47.0116 9.29025Z" fill="#92B74E"/>
<path d="M43.0021 9.70622C42.673 9.9335 42.6292 10.2723 42.6204 10.6282C42.4186 11.1771 41.8747 11.3744 41.4579 11.7089C41.0105 12.172 40.5586 12.6309 40.0278 13.004C39.4312 13.287 38.9443 13.9002 38.1547 13.6043C38.0406 13.4328 37.9792 13.2441 37.9616 13.0426C38.0055 12.4293 38.1634 11.8504 38.5802 11.3658C40.835 10.8212 40.7692 8.74134 41.4842 7.1761C41.5807 6.58431 41.6641 5.98394 41.7781 5.39644C41.9624 4.453 42.7959 4.15282 43.2916 4.75747C44.3532 6.04827 44.6296 4.79178 45.1911 4.39725C45.4938 4.56879 45.5947 4.85182 45.6254 5.16916C45.5947 6.1812 44.8138 6.75155 44.1996 7.40767C43.6513 7.99088 43.1249 8.55266 43.6206 9.41033C43.5065 9.69336 43.3925 9.9721 43.0021 9.70622Z" fill="#93B542"/>
<path d="M38.1854 13.0254C38.2205 13.2355 38.2512 13.4414 38.2863 13.6515C38.5933 13.7373 38.8083 13.9088 38.8258 14.2476C38.8039 15.0409 37.773 15.3325 37.83 16.1645C37.3431 16.4604 36.8518 16.7605 36.3648 17.0564C35.97 17.0564 35.5796 17.0607 35.1848 17.0607C34.7505 16.5375 34.0969 16.1259 34.2943 15.2982C34.7242 15.1824 35.1541 15.0666 35.584 14.9509C35.9437 14.5349 36.3385 14.1575 36.7158 13.7587C37.1457 13.4028 37.5317 12.9568 38.1854 13.0254Z" fill="#93B44E"/>
<path d="M37.83 16.1645C37.3519 16.1001 36.9702 15.9801 37.4484 15.4354C37.8607 14.9723 38.2731 14.5092 38.6855 14.046C38.9399 13.1926 39.9752 13.1969 40.4095 12.5408C40.7955 12.2192 41.164 11.8204 41.7123 12.2749C42.1642 12.9739 40.1945 13.6987 41.7343 14.3891C40.5762 15.2811 39.2601 15.8428 37.83 16.1645Z" fill="#85AB43"/>
<path d="M8.85089 60.3172C9.74141 59.9356 10.6275 59.7297 11.5005 60.3558C10.1494 61.7538 8.49117 62.6758 6.65749 63.3191C6.00386 63.3362 5.38971 63.2505 4.74924 62.6544C6.37674 62.1655 8.57014 62.7187 8.85089 60.3172Z" fill="#F28B31"/>
<path d="M4.86768 47.0062C4.69221 49.5235 6.66188 50.677 8.72367 52.1179C7.46905 52.4095 7.04792 51.7663 6.49518 51.4704C5.64853 51.0158 4.92471 49.8451 3.77099 50.9772C3.7008 50.7842 3.63061 50.5913 3.56042 50.3983C3.99033 49.2662 3.79292 47.9025 4.86768 47.0062Z" fill="#F1872B"/>
<path d="M45.292 5.50365C45.2569 5.13485 45.2218 4.76176 45.1867 4.39296C45.5815 3.70254 46.2571 3.45811 46.9984 3.3509C47.4722 3.28228 48.1565 3.67252 47.9679 3.88694C46.9853 4.99762 48.4329 7.12035 46.2834 7.67355C45.0331 7.67355 45.9763 6.77728 45.7131 6.36989C45.6122 6.06113 45.5025 5.76095 45.292 5.50365Z" fill="#8EB83F"/>
<path d="M41.4755 7.17181C41.8878 9.65476 40.5981 11.6017 38.6591 11.4258C38.3608 10.4653 39.0145 9.73624 39.2996 8.91717C39.4137 8.75421 39.5496 8.60841 39.7076 8.48404C40.1813 8.10667 40.7341 7.88796 41.3044 7.70356C41.3658 7.52774 41.4184 7.35192 41.4755 7.17181Z" fill="#A1C354"/>
<path d="M45.6692 8.39399C45.3665 8.52264 45.0595 8.65129 44.7568 8.78423C44.3576 8.58696 43.6074 8.56123 43.9584 7.88368C44.3883 7.05603 44.8884 6.16405 46.1079 6.27555C46.8668 6.65721 45.3358 7.31333 46.2834 7.66926C46.0772 7.91369 45.871 8.15384 45.6692 8.39399Z" fill="#A2C157"/>
<path d="M38.2555 31.6196C38.4135 30.5476 37.2773 29.5312 38.0889 28.3905C39.0496 28.4892 38.4179 29.5441 39.0232 29.8185C38.7644 30.4189 38.51 31.0193 38.2555 31.6196Z" fill="#F6A75D"/>
<path d="M38.6197 19.6123C38.1766 19.9296 37.8783 20.7659 37.1369 19.9468C36.4833 19.2263 36.9395 18.7332 37.4221 18.2186C37.9967 18.5359 38.431 18.9733 38.6197 19.6123Z" fill="#F5A259"/>
<path d="M39.9971 8.86142C40.0936 8.32109 39.712 7.66926 40.3788 7.25758C40.6902 7.40767 41.0017 7.55347 41.3088 7.70356C40.8701 8.08952 40.4314 8.47547 39.9971 8.86142Z" fill="#89AC42"/>
<path d="M35.5577 1.59697C35.6805 1.88428 35.8077 2.1716 35.9305 2.45463C35.5884 2.4675 35.2462 2.48036 34.904 2.49323C35.0049 2.16732 35.1058 1.84569 35.2067 1.51978C35.3252 1.53264 35.4436 1.55408 35.5577 1.59697Z" fill="#AAC764"/>
<path d="M16.7471 44.8792C16.0628 44.8149 15.4618 45.0507 14.8827 45.3638C14.3782 45.6382 13.808 46.3887 13.5491 45.1451C13.4921 44.862 13.2201 44.6433 12.8955 44.7506C12.4963 44.8792 12.2682 45.3037 12.4305 45.5996C13.4439 47.4479 11.1847 47.6066 10.746 48.7173C10.5179 49.3005 9.94759 48.9874 9.5791 48.4943C9.18429 47.9582 8.92985 47.568 9.76334 47.2121C10.4784 46.9076 11.1803 46.5388 11.3557 45.6597C10.4082 45.0936 10.202 46.4616 9.28957 46.1829C9.43433 45.2008 9.5791 44.1845 9.72825 43.1724C9.87301 43.0224 10.0441 42.9194 10.2503 42.868C10.9916 43.2496 11.4084 43.0352 11.5049 42.2204C12.8999 43.3397 14.9134 42.9452 16.304 44.0944C16.576 44.3174 16.9182 44.4418 16.7471 44.8792Z" fill="#F28C33"/>
<path d="M16.7471 44.8792C15.3082 43.4083 12.8516 43.9186 11.4786 42.3105C11.0004 42.7436 10.6188 42.5163 10.2634 42.139C10.2327 42.0532 10.202 41.9631 10.1669 41.8731C9.92127 40.7281 8.73245 40.4922 8.04811 39.7675C9.96952 38.3009 10.6626 40.5051 11.926 41.0025C12.4086 40.7967 12.6323 41.0626 12.7815 41.4571C13.6106 43.1424 15.7074 42.7522 16.9138 43.8714C17.5543 44.4589 17.7254 44.6862 16.7471 44.8792Z" fill="#F08325"/>
<path d="M18.9405 36.3068C18.6905 37.6705 19.4494 38.2494 20.6908 38.451C20.8619 38.9484 21.4147 39.4116 20.7698 40.0291C20.0679 39.7375 20.0416 38.2709 18.901 38.794C18.1465 39.1414 17.5192 39.7632 16.5892 39.6389C16.4049 38.6611 17.5016 39.0042 17.6201 38.4381C17.2779 38.005 16.6418 38.0221 16.2997 37.589C16.1417 37.5804 15.9882 37.5762 15.8303 37.5676C15.5627 36.9586 14.9617 37.3703 14.5625 37.1731C14.6107 36.7013 14.3782 35.848 14.7687 35.8308C17.5148 35.7107 14.8432 34.956 14.9529 34.5572C14.7248 34.2698 14.7599 33.9911 14.9968 33.7295C15.804 34.287 16.5629 34.8573 17.0015 35.7922C17.392 36.6327 18.0237 37.1087 18.9405 36.3068Z" fill="#F49A45"/>
<path d="M9.74141 59.0264C9.29834 59.1722 8.85528 59.3138 8.41221 59.4596C7.19707 59.6911 6.56099 58.7906 5.78014 58.1731C5.63099 58.1731 5.48183 58.1688 5.33707 58.1688C5.21424 58.0487 5.0958 57.9243 4.97297 57.8043C4.69221 57.4741 4.51674 57.0838 4.27985 56.7279C4.13509 56.5092 4.04297 56.2733 4.02103 56.0117C4.03858 55.6601 4.12632 55.3428 4.47726 55.1626C4.77995 54.8968 5.17476 54.8496 5.4599 55.064C6.74962 56.0503 8.12707 56.9123 9.50891 57.77C9.9432 58.0444 10.145 58.5204 9.74141 59.0264Z" fill="#F49A44"/>
<path d="M22.0156 48.7516C21.2216 49.5106 20.2302 49.0389 19.3309 49.1633C18.9405 49.219 18.4974 48.7816 18.1597 49.2833C17.9052 49.6564 18.1597 50.6985 17.1858 50.0981C16.8173 49.8708 16.5365 49.3048 16.462 48.8545C16.3128 47.9668 17.1726 48.2241 17.6376 48.0183C17.9623 47.8768 18.2474 47.6538 18.5501 47.4651C19.2783 47.9153 19.6599 47.0705 20.2565 47.0277C21.1778 45.9599 21.5901 46.7017 21.9937 47.4908C21.6384 47.9153 21.5463 48.3356 22.0156 48.7516Z" fill="#F28C33"/>
<path d="M9.74141 59.0264C8.5482 57.0023 6.29339 56.3677 4.47287 55.1584C4.05613 54.6266 3.63938 54.0949 3.02085 53.3015C4.00787 53.4602 4.59132 54.0477 5.32391 53.8976C5.81962 53.9748 6.10915 54.2621 6.2232 54.7338C7.14004 56.4877 9.4782 56.5907 10.4828 58.2417C10.6495 58.5161 11.1627 58.7777 10.7679 59.1036C10.5837 59.2623 10.0924 59.065 9.74141 59.0264Z" fill="#F08223"/>
<path d="M12.7858 41.4614C12.5007 41.3113 12.2156 41.1569 11.9304 41.0068C13.014 40.6252 12.8297 39.0085 14.137 38.8455C14.5844 38.644 14.7336 39.0213 14.9617 39.2486C14.0931 39.9562 14.716 40.6809 15.5539 41.9503C14.2115 41.277 13.4965 41.2041 12.7858 41.4614Z" fill="#F49A45"/>
<path d="M4.01665 56.0117C4.17018 56.1533 4.31934 56.2948 4.47287 56.4363C4.42462 57.0795 4.81504 57.4398 5.3283 57.7271C5.33268 57.8729 5.33707 58.023 5.33707 58.1688C4.86768 58.1731 4.60009 58.6619 4.26231 58.7263C3.3016 58.9149 2.33651 58.3575 2.01627 57.6628C1.59952 56.745 2.82783 57.0581 3.25773 56.7236C3.52971 56.5135 3.7666 56.2519 4.01665 56.0117Z" fill="#F6A655"/>
<path d="M6.22759 54.7381C5.92929 54.4594 5.6266 54.1806 5.3283 53.9019C5.10896 53.3358 4.95542 52.6454 5.85033 52.7526C6.50396 52.8298 7.49976 53.2372 7.63575 53.696C7.91212 54.6352 6.8549 54.558 6.22759 54.7381Z" fill="#F6A354"/>
<path d="M14.1765 46.5302C15.453 46.809 15.646 44.8449 16.8699 45.8441C17.0498 45.9942 16.6813 47.1992 16.2514 47.5637C15.317 48.3613 14.9617 47.3107 14.1765 46.5302Z" fill="#F28C33"/>
<path d="M5.78014 58.1731C6.85051 58.2202 7.56117 58.975 8.41221 59.4596C8.55698 59.7469 8.70613 60.0299 8.85089 60.3172C7.00405 60.7332 6.29339 59.5882 5.78014 58.1731Z" fill="#F28B31"/>
<path d="M23.7616 47.4522C21.8884 46.453 22.8272 45.4453 23.7572 44.4418L23.7528 44.4461C24.5819 45.4453 24.2222 46.4487 23.7616 47.4522Z" fill="#F28F38"/>
<path d="M14.9617 39.2486C14.6853 39.1157 14.4133 38.9784 14.137 38.8455C14.137 38.5753 14.137 38.3009 14.137 38.0307V38.0436C14.4967 37.8592 14.5537 37.529 14.5625 37.1773C15.0143 36.9501 15.1328 36.0881 15.8347 36.3969C16.5497 36.7099 15.9356 37.1731 15.8303 37.5719C15.1415 37.9321 14.9792 38.5539 14.9617 39.2486Z" fill="#FAC07B"/>
<path d="M20.2565 47.0234C19.7872 47.5508 19.6292 49.2362 18.5457 47.4608C19.1467 47.4222 19.4055 46.1185 20.2565 47.0234Z" fill="#F7B06E"/>
<path d="M23.7572 44.4418C23.2703 44.4289 22.6868 44.5704 22.5333 43.8972C22.4675 43.6099 22.6342 43.2882 22.9851 43.3397C23.5949 43.4297 23.7265 43.9229 23.7572 44.4418Z" fill="#F7A960"/>
<path d="M10.145 43.151C10.0046 43.151 9.86863 43.1596 9.72825 43.1639C9.01759 42.452 9.22377 42.0403 10.1713 41.8731C10.4784 42.3105 10.553 42.735 10.145 43.151Z" fill="#F6A75C"/>
<path d="M16.2997 37.5933C16.9445 37.5719 17.5762 37.5676 17.6201 38.4424C16.984 38.451 16.3523 38.4553 16.2997 37.5933Z" fill="#F7AA5E"/>
<path d="M22.0156 48.7516C20.6514 48.3528 21.2523 47.9196 21.9937 47.4908C21.9981 47.9068 22.0069 48.3313 22.0156 48.7516Z" fill="#ED6F12"/>
<path d="M16.8305 52.9927C16.7427 52.8898 16.6199 52.744 16.4971 52.5982C16.655 52.5167 16.8129 52.3881 16.9796 52.3709C17.0717 52.3624 17.2428 52.521 17.2779 52.6325C17.3788 52.9327 17.1551 52.9799 16.8305 52.9927Z" fill="#F6A454"/>
<path d="M4.04297 61.1577C3.95084 60.8104 3.4332 60.5145 3.8982 60.1071C3.95962 60.0514 4.19212 60.0771 4.24915 60.1457C4.60009 60.5488 4.42023 60.8747 4.03858 61.1492C4.03858 61.1449 4.04297 61.1577 4.04297 61.1577Z" fill="#F9B96F"/>
<path d="M27.271 18.7289C28.0519 18.1457 27.6132 19.801 28.4862 19.0677C28.7231 18.6002 27.6264 18.1242 28.0914 17.3609C28.9863 17.0822 28.8415 18.9562 29.925 18.2786C31.0744 18.8189 32.4167 19.0934 32.9826 20.4271C32.4518 21.5163 31.5306 22.0352 30.3374 22.1553C29.7145 22.4855 29.074 22.2196 28.4379 22.2282C26.692 21.8551 25.3408 21.0703 25.0776 19.1534C24.6872 18.8061 23.1869 18.8147 24.6433 17.8712C25.3321 17.7855 25.5031 18.4459 25.9374 18.7246C26.6744 18.7289 26.8148 19.5137 27.3982 19.801C26.9683 19.4579 26.8981 19.1148 27.271 18.7289Z" fill="#F28C35"/>
<path d="M25.0776 19.162C26.0647 20.2427 26.7402 21.735 28.5651 21.7307C28.7274 21.8594 28.7713 22.0223 28.6967 22.2153C28.4467 22.567 28.0475 22.9143 28.6309 23.3174C29.5214 23.9993 30.6576 24.561 30.0303 25.9933C29.8505 26.1434 29.6618 26.1477 29.4644 26.0234C28.5037 25.2257 27.7799 23.6133 26.1787 25.3544C25.8102 25.7532 25.5207 25.3758 25.955 23.8749C25.6874 22.9358 24.7048 22.7942 24.0599 22.2754C23.2922 21.6621 22.3008 21.2376 22.3885 20.0283L22.4675 20.0025C22.7526 19.7624 23.0378 19.7624 23.3185 20.0111C24.4723 20.8388 24.3056 19.072 25.0776 19.162Z" fill="#F49948"/>
<path d="M23.3229 33.3007C23.0334 33.1592 22.7395 33.0176 22.4499 32.8761C20.7523 31.4267 18.6641 30.406 16.9752 28.3048C18.4843 28.3476 18.8572 29.334 19.5459 29.8271C20.6733 30.6333 21.6296 31.907 23.3273 31.1608C24.3889 31.105 24.1564 31.8727 24.1959 32.4645C24.2354 32.7432 24.6916 33.0219 24.2003 33.305C23.9107 33.5966 23.6168 33.3178 23.3229 33.3007Z" fill="#F1872C"/>
<path d="M22.3929 20.024C23.3405 21.319 24.5731 22.2968 26.0339 22.9658C27.0122 23.4118 26.8587 23.6348 25.9594 23.8706C24.9987 23.6047 24.3801 22.6656 23.3229 22.5884C21.8577 22.5541 22.042 21.2461 21.5814 20.4314C21.5506 19.7324 21.9016 19.7409 22.3929 20.024Z" fill="#F18528"/>
<path d="M24.1959 32.4645C23.9064 32.0313 23.6168 31.5939 23.3273 31.1608C22.1911 30.2131 20.6206 29.7414 19.8661 28.056C21.3796 28.0517 21.849 29.4497 22.8886 29.87C23.437 30.286 23.9897 30.7019 24.5337 31.1222C25.4066 31.804 24.7091 32.1128 24.1959 32.4645Z" fill="#F5A153"/>
<path d="M21.5814 20.4314C22.1604 21.1518 22.7439 21.868 23.3229 22.5884C23.0246 23.0129 22.7307 23.4375 22.4324 23.8577C21.6384 23.2274 21.3225 24.3981 20.6689 24.308C19.5327 24.0336 19.8223 23.6133 20.3487 22.8714C20.7391 22.3225 21.9981 21.9323 21.1295 20.8688C21.033 20.7701 21.0023 20.6715 21.0374 20.5772C21.0725 20.4828 21.1076 20.4357 21.1383 20.4357C21.2874 20.4357 21.4322 20.4357 21.5814 20.4314Z" fill="#F59C47"/>
<path d="M21.5726 24.7283C22.235 24.9599 22.893 25.1914 23.5554 25.4273C22.7614 25.5045 22.5684 28.5749 21.2523 25.8733C21.0023 25.3587 20.6689 26.7953 19.9495 26.4865C19.695 25.7575 20.1644 25.4444 20.6996 25.1614C20.9321 24.8998 21.1909 24.694 21.5726 24.7283Z" fill="#F5A04D"/>
<path d="M29.4688 26.0191C29.6136 26.0148 29.7583 26.0148 29.9075 26.0148C30.9121 26.3321 31.0305 27.5114 31.8947 27.9617C31.9649 28.026 32.0307 28.0903 32.1009 28.1547C32.2062 28.5921 32.7501 28.9437 32.3729 29.4755C31.7368 28.888 30.7059 29.5184 30.1312 28.7936C29.811 28.3862 29.8022 27.6872 29.0301 27.7258C29.1749 27.1598 29.3197 26.5894 29.4688 26.0191Z" fill="#F28C35"/>
<path d="M21.5726 24.7283C21.384 25.0671 21.0593 25.1485 20.6996 25.1571C20.6908 24.8741 20.6777 24.5911 20.6689 24.308C20.919 23.965 21.1646 23.6219 21.419 23.2831C21.6208 23.0129 21.827 22.567 22.2087 22.8843C22.4148 23.0558 22.3666 23.5233 22.4324 23.8577C22.1473 24.1494 21.8577 24.4367 21.5726 24.7283Z" fill="#F8AF65"/>
<path d="M25.5163 14.8608C25.8585 14.9294 26.3103 14.9509 26.2182 15.4312C26.1085 16.0015 25.5953 16.1302 25.0732 16.1773C24.6653 16.0958 23.9678 16.0015 24.1389 15.6156C24.3056 15.2382 25.0338 15.101 25.5163 14.8608Z" fill="#F6A657"/>
<path d="M21.1383 20.4357C21.1339 20.5815 21.1339 20.7273 21.1295 20.8688C20.8005 21.2076 20.4715 21.5463 19.9933 22.0481C19.7915 20.9974 20.1162 20.3413 20.7303 19.7752C20.8663 19.994 21.0023 20.2127 21.1383 20.4357Z" fill="#F6A254"/>
<path d="M14.137 38.0307C13.7904 38.0693 13.4219 38.2023 13.1061 38.1208C12.6849 38.0136 12.2112 37.6962 12.47 37.2074C12.8911 36.4183 13.2903 37.0873 13.6325 37.3617C13.8474 37.5333 13.9703 37.812 14.137 38.0436V38.0307Z" fill="#F49A45"/>
<path d="M14.9968 33.7295C14.9836 34.0083 14.9661 34.2827 14.9529 34.5572C14.387 34.5143 13.9747 34.2656 14.2247 33.6781C14.4177 33.2106 14.7511 33.4722 14.9968 33.7295Z" fill="#F7B069"/>
<path d="M18.1114 26.7996C17.9359 26.598 17.7385 26.4736 17.721 26.3321C17.7034 26.1649 17.7999 25.8733 17.9228 25.8261C18.2474 25.7017 18.4404 25.9376 18.4316 26.2335C18.4273 26.3922 18.2606 26.5465 18.1114 26.7996Z" fill="#F7A95B"/>
<path d="M14.1765 30.2217C13.9834 30.3632 13.8387 30.4661 13.6939 30.569C13.5974 30.4275 13.4 30.256 13.4307 30.1487C13.4746 29.9944 13.6851 29.8872 13.8211 29.7585C13.9264 29.8914 14.0273 30.0287 14.1765 30.2217Z" fill="#F8B16F"/>
<path d="M23.3229 20.0068C23.0378 20.0025 22.7526 19.9982 22.4719 19.9982C22.5201 19.6509 22.1516 19.0677 22.814 19.0548C23.3405 19.0505 23.3229 19.5951 23.3229 20.0068Z" fill="#F9C595"/>
<path d="M28.5695 22.1767C28.5695 22.0266 28.5651 21.8765 28.5651 21.7307C29.21 21.6578 29.789 21.8551 30.3374 22.1639C31.8991 23.3346 33.6977 23.9478 35.6059 24.3037C36.0446 24.2137 36.4833 24.0336 36.922 24.2994C37.5493 24.9213 38.3564 25.4401 38.2687 26.4822C38.3828 26.6194 38.3696 26.7481 38.2468 26.8725C37.7818 25.1614 35.9656 26.538 35.1672 25.5859C34.8733 25.5859 34.5838 25.5817 34.2899 25.5817C33.7108 25.5388 33.2239 25.2214 32.6931 25.0413C31.4209 24.3466 30.1707 23.609 28.8985 22.9186C28.6485 22.7299 28.4511 22.5198 28.5695 22.1767Z" fill="#F08123"/>
<path d="M32.9739 24.7283C33.6055 24.7283 34.0398 25.0156 34.2899 25.5817C34.1451 26.2978 33.996 27.014 33.8512 27.7301C33.2678 27.8716 32.6799 28.0174 32.0965 28.159C31.0086 26.4865 31.1314 26.0019 32.9739 24.7283Z" fill="#F28C35"/>
<path d="M29.7978 29.7156C30.6532 30.2645 31.0568 30.9121 30.4164 31.9327C29.6443 31.2766 29.8943 30.4318 29.7978 29.7156Z" fill="#F59C4E"/>
<path d="M33.8863 32.4516C33.5836 32.8804 33.2765 33.3093 32.9739 33.7381C32.2369 33.0391 33.066 32.443 33.1362 31.7998C33.1581 31.5896 33.4871 31.2466 33.7547 31.6239C33.9039 31.8341 33.8512 32.1728 33.8863 32.4516Z" fill="#F6A357"/>
<path d="M24.1169 35.5649C24.1564 35.878 24.0467 36.1181 23.7177 36.1996C23.415 36.2768 23.086 36.221 23.0948 35.8694C23.0992 35.6507 23.3098 35.3677 23.5115 35.239C23.8055 35.0632 24.0423 35.2261 24.1169 35.5649Z" fill="#F3923A"/>
<path d="M23.3229 33.3007C23.6168 32.829 23.9107 33.2664 24.2003 33.305C24.2617 33.6738 24.8407 34.1969 24.2661 34.3642C23.5335 34.5786 23.4019 33.871 23.3229 33.3007Z" fill="#F3923A"/>
<path d="M33.8512 27.7301C34.9216 27.9188 34.8295 28.4334 34.2372 29.2353C33.6845 28.7593 33.917 28.2018 33.8512 27.7301Z" fill="#F28C35"/>
<path d="M32.5703 37.5804C32.4431 38.1637 32.2983 38.6997 31.5876 38.0093C31.6929 37.5075 31.943 37.1602 32.5264 37.1773C32.5308 37.3146 32.5439 37.4475 32.5703 37.5804Z" fill="#F8B06F"/>
<path d="M27.7536 38.4295C28.0036 38.2623 28.1528 38.0908 28.3063 38.0822C28.4291 38.0736 28.5695 38.2623 28.7011 38.3652C28.5607 38.4939 28.4335 38.6868 28.2712 38.7254C28.1572 38.7554 27.9905 38.5753 27.7536 38.4295Z" fill="#F6A555"/>
<path d="M32.5527 34.1583C32.5308 34.7587 32.2588 35.1961 31.6798 35.432C31.6227 34.7802 31.671 34.1969 32.5527 34.1583Z" fill="#F6A357"/>
<path d="M32.5352 36.3025C32.5747 35.6121 32.8949 35.1189 33.7635 34.793C33.6231 35.6292 33.4257 36.2125 32.5352 36.3025Z" fill="#F28F38"/>
<path d="M38.2468 26.8725C38.2687 26.7438 38.2775 26.6109 38.2687 26.4822C38.6855 26.1563 38.6284 25.6717 38.6986 25.23C39.2996 25.736 39.2075 26.3793 38.9487 26.9625C38.8214 27.2584 38.4617 27.0954 38.2468 26.8725Z" fill="#FCDAA3"/>
<path d="M37.3036 31.6797C37.0843 32.6145 36.6939 33.0134 36.185 33.4508C35.9525 32.5502 36.4833 32.2029 37.3036 31.6797Z" fill="#F59C4F"/>
<path d="M35.9525 6.1469C35.5357 6.55429 35.6279 7.08604 35.584 7.58349C33.7547 6.95739 33.7591 5.55939 35.6015 3.72398C35.6147 4.19141 35.6015 4.676 36.299 4.64169C37.0141 5.32782 36.4964 5.7395 35.9525 6.1469Z" fill="#AAC764"/>
<path d="M29.9031 17.4381C29.2933 16.7091 29.8812 16.7177 30.4076 16.5761C31.4736 16.2931 32.0746 17.2408 32.9519 17.4295C33.1098 17.5753 33.2678 17.7168 33.4257 17.8626C33.2765 19.0162 32.6405 18.4287 32.0395 18.2872C31.3858 18.1328 31.2893 16.9492 30.3374 17.4467C30.1839 17.6482 30.0391 17.6439 29.9031 17.4381Z" fill="#F28C35"/>
<path d="M29.9031 17.4381C30.0479 17.4381 30.1926 17.4424 30.333 17.451C31.1051 19.1877 33.338 18.8747 34.5136 20.114C33.9828 20.6029 33.4608 20.3756 32.9826 20.4314C31.9649 19.7152 30.9428 18.9991 29.925 18.2829C29.9163 18.0042 29.9119 17.7211 29.9031 17.4381Z" fill="#F08123"/>
<path d="M36.922 24.2994C36.4833 24.4152 36.0446 24.977 35.6059 24.3037C36.0446 22.9486 36.4833 23.6305 36.922 24.2994Z" fill="#F28C35"/>
<path d="M27.271 18.7289C27.1921 19.5565 28.0563 19.9425 28.5344 21.0017C27.2008 20.307 26.5472 19.5437 25.9418 18.7289C26.3805 17.095 26.828 18.6088 27.271 18.7289Z" fill="#F6A55A"/>
<path d="M46.1035 6.27555C45.6341 7.1032 43.5592 7.1032 44.7524 8.78423C44.3707 8.97291 43.9891 9.1616 43.6074 9.346C42.6511 9.20448 42.0413 8.96863 43.0328 7.99088C43.8312 7.20612 44.5374 6.33558 45.2876 5.50365C45.8798 5.43932 46.1079 5.74379 46.1035 6.27555Z" fill="#7EA330"/>
<path d="M39.905 12.7209C40.0892 12.7338 40.2735 12.7424 40.4621 12.7552C40.0761 13.4585 39.3172 13.6644 38.6898 14.0503C38.5538 13.9174 38.4179 13.7844 38.2863 13.6558C38.8521 13.3899 39.1855 12.7338 39.905 12.7209Z" fill="#B2CE7D"/>
<path d="M10.145 43.151C10.1538 42.7265 10.1625 42.3019 10.1713 41.8774C10.61 42.0232 11.0443 42.1647 11.483 42.3105C11.6804 43.567 10.8688 43.2925 10.145 43.151Z" fill="#F3923A"/>
<path d="M5.3283 57.7271C4.63518 57.5555 3.68325 57.547 4.47287 56.4363C4.75801 56.8694 5.04316 57.2982 5.3283 57.7271Z" fill="#F9B875"/>
<path d="M32.9739 24.7283C32.2018 25.7532 31.3683 26.7652 32.0965 28.159C30.0128 28.7679 30.7629 26.6023 29.9031 26.0191C30.1488 24.6125 28.8722 24.1922 28.1352 23.4203C27.9422 22.6699 28.6792 22.85 28.9906 22.6013C30.4909 23.0129 31.6841 23.9564 32.9739 24.7283Z" fill="#F3923A"/>
<path d="M28.995 22.6013C28.7099 22.8757 28.4248 23.1459 28.1396 23.4203C27.7931 23.3775 27.3544 23.3646 27.4509 22.8843C27.5606 22.3268 28.0387 22.1724 28.5695 22.1767C28.7099 22.3182 28.8503 22.4597 28.995 22.6013Z" fill="#F9B672"/>
</svg>
