<svg width="42" height="57" viewBox="0 0 42 57" fill="none" xmlns="http://www.w3.org/2000/svg">
<path d="M23.1845 25.5765C20.1599 30.095 17.6886 34.8959 15.3287 39.7868C13.2351 44.1259 11.6831 48.6287 10.0798 53.1324C9.08943 55.9154 6.89208 56.9722 3.96707 56.0706C3.78 56.0116 3.60678 55.9012 3.41712 55.8512C-0.0999148 54.9267 -0.229013 54.5855 0.140449 50.949C0.707049 45.3562 3.12158 40.3917 5.25201 35.3202C6.08053 33.3456 6.99716 31.4057 7.87258 29.4522C8.40212 29.9258 8.8178 29.8219 9.3544 29.3606C10.4117 28.4557 11.4955 27.5439 12.9575 27.3137C13.7132 26.7188 14.5365 26.2198 15.2873 25.6215C15.5225 25.4596 15.7714 25.3354 16.0549 25.2812C17.0357 25.4428 17.9248 25.1098 18.7693 24.7108C19.9348 24.1617 21.0288 23.9142 22.0057 25.0269C22.3231 25.3888 22.8838 25.201 23.1845 25.5765Z" fill="#F8F7DA"/>
<path d="M22.8617 2.51367C22.2963 4.55243 22.2631 6.70567 21.5319 8.70697C21.5138 8.90549 21.4353 9.17025 21.2551 9.15877C20.6336 9.11586 20.4021 9.37687 20.4298 9.96373C20.4464 10.3108 20.4529 10.6618 20.8376 10.8012C21.3169 10.9763 21.6787 10.7465 21.9651 10.3799C22.0844 10.2286 22.1922 10.0731 22.3784 9.9922C22.4126 9.90106 22.4745 9.84301 22.5666 9.81974C22.7713 9.85855 22.8675 9.98093 22.8551 10.1869C22.5133 11.72 21.1934 12.586 20.2972 13.718C18.6887 15.753 16.9302 17.6756 15.3479 19.7355C15.159 19.8932 14.925 20.0953 14.6959 20.0185C14.0509 19.7953 13.6813 19.9162 13.6444 20.6486C13.637 20.79 13.5724 20.9355 13.5137 21.0672C13.3401 21.4747 13.147 22.0511 12.658 21.9266C12.0972 21.7856 12.5337 21.1814 12.4349 20.7964C12.9313 16.5065 13.6804 12.2593 14.7051 8.06332C14.7398 7.57957 15.0022 7.22164 15.432 7.04515C17.6042 6.14994 19.0883 4.55571 20.1909 2.55625C20.8128 2.5779 21.4311 2.61504 21.8066 3.23777C21.9265 2.76173 21.8489 2.12674 22.5312 2.00362C22.8718 1.94533 22.8647 2.26914 22.8617 2.51367Z" fill="#71994F"/>
<path d="M12.4391 20.7956C12.5305 21.1077 12.6235 21.4174 12.7269 21.7697C13.2866 21.2384 13.2703 20.5306 13.4746 19.9117C13.5741 19.6113 13.4069 19.137 13.8554 19.0589C14.3436 18.9757 14.2347 19.5091 14.4271 19.7433C14.5053 19.8392 14.688 19.8524 14.8247 19.9058C14.6688 20.9719 14.6688 20.9719 13.2832 22.2828C13.6793 21.8834 14.2988 21.4069 14.9192 20.9238C16.8315 19.8345 18.6496 20.814 20.4466 21.2756C21.5088 21.5495 22.3563 21.7886 23.3132 20.9764C24.6027 19.8825 25.6662 21.0112 26.7649 21.5564C26.3696 22.6495 25.3063 22.8892 24.4189 23.3555C23.8669 23.5778 23.2917 23.5306 22.7171 23.5088C21.6595 23.6774 20.609 23.8151 19.5279 23.8035C18.3567 23.7915 17.7303 25.0564 16.5799 25.1657C16.4544 25.2164 16.3218 25.2407 16.1861 25.238C15.4248 25.1932 14.7789 25.5303 14.1306 25.8551C12.9443 26.5439 11.6579 26.6251 10.2044 26.5609C10.7263 25.4573 11.2697 24.5004 11.6287 23.4649C11.8916 22.5786 12.1662 21.6859 12.4391 20.7956Z" fill="#7AA157"/>
<path d="M24.1968 23.112C25.0904 22.6785 25.9524 22.1914 26.7031 21.5359C27.5547 19.9093 28.8545 18.7223 30.4662 17.8685C30.8641 17.6596 31.3473 17.5158 31.5389 17.1242C32.2191 15.7242 33.4591 15.104 34.8365 14.6093C35.6856 14.3028 36.3162 13.941 35.7104 12.7834C35.1596 11.7345 36.4522 11.2109 36.7666 10.3809C36.9084 10.2127 37.0917 10.1048 37.2977 10.0373C38.0077 10.0151 38.4625 10.7167 39.2075 10.6754C39.8507 10.6401 40.0806 10.4388 39.6644 9.89562C39.0682 9.11607 38.4403 8.36145 37.9517 7.50486C37.8605 7.03573 37.7074 6.48886 38.5196 6.91475C38.8147 7.06849 39.1363 7.22588 39.2844 7.56574C39.5222 7.81276 39.7817 8.03882 39.9953 8.30515C42.0739 10.8727 41.9984 11.5825 39.364 13.5003C35.8365 16.0701 32.2871 18.6141 28.7482 21.169C27.6003 21.9123 26.5702 22.8248 25.3507 23.4624L25.3524 23.46C24.9029 23.5552 24.4534 23.6505 24.1968 23.112Z" fill="#7EA060"/>
<path d="M37.3989 10.2881C37.2639 10.3002 37.1289 10.3122 36.9939 10.3243C35.2254 10.1143 33.8336 9.04156 32.2937 8.31855C31.8052 8.00509 31.3748 7.61308 30.7087 7.62927C28.6061 7.68212 27.5881 6.62357 27.5305 4.38728C29.7378 1.46155 31.145 1.38359 34.6875 3.35784C34.7751 3.36722 34.8332 3.41383 34.8654 3.4928C35.291 4.28881 36.2898 4.46615 36.7541 5.27415C37.0012 5.70616 37.5236 5.94974 36.8506 6.40426C36.3619 6.73372 35.8832 7.195 35.3297 6.51584C34.9889 6.09889 34.6691 5.65688 34.2664 5.29797C33.9071 4.97566 33.4991 4.7132 33.0751 4.47915C33.9059 4.93556 34.4336 5.35426 33.9547 6.52635C33.3803 7.93025 34.8088 7.80595 35.5952 8.10716C35.7973 8.08703 35.993 8.04474 36.185 7.97131C36.7237 7.74725 37.085 6.85982 37.8612 7.53633C38.4402 8.57575 37.9608 9.44028 37.3989 10.2881Z" fill="#80A95A"/>
<path d="M20.3171 2.58825C19.7132 4.80807 18.1102 6.10374 16.1322 7.08423C15.6204 7.3373 14.9836 7.46268 14.7051 8.06332C14.5924 7.5939 14.7208 7.16296 14.9087 6.74021C15.1916 5.07791 15.9107 3.5435 16.3412 1.92413C16.4599 1.47589 16.7437 1.05036 17.1976 0.797319L17.191 0.79641C17.6662 0.768597 17.7149 1.11608 17.8168 1.44958C18.2633 2.9207 18.2788 2.93482 19.6112 2.20227C20.1258 1.91898 20.3366 2.00122 20.3171 2.58825Z" fill="#7EA15F"/>
<path d="M20.3171 2.58825C20.1729 2.47257 20.0669 2.00405 19.8422 2.39113C19.4883 3.00136 18.9087 3.46208 18.3592 3.20013C17.7695 2.91799 17.2569 2.27374 17.479 1.40976C17.5216 1.23857 17.2944 1.00233 17.1902 0.79231C18.8198 -0.0351189 20.4809 -0.380335 22.1793 0.578795C22.936 1.00637 23.2982 1.63792 22.8609 2.50957C22.3768 1.90252 22.2861 2.36261 22.1805 2.75541C22.0377 3.28021 22.1837 3.93659 21.2801 4.30614C22.0144 3.02142 20.6143 3.19354 20.3171 2.58825Z" fill="#92B270"/>
<path d="M37.7514 7.6477C36.8756 7.1465 36.888 8.46604 36.2124 8.37577C36.1392 8.27251 36.111 8.06763 36.0092 8.07359C35.8031 8.08384 35.8631 8.32106 35.7871 8.45171C34.7096 8.69617 34.0512 7.92804 33.2871 7.42756C33.0129 7.24874 32.8507 6.98148 33.1772 6.72423C34.7965 5.44678 33.3363 5.04224 32.5219 4.45763C32.38 4.35425 32.2095 4.29219 32.1226 4.09387C33.586 4.22199 34.7137 4.89761 35.4844 6.16706C35.7959 6.67849 35.8059 6.67453 36.1305 6.44097C35.6738 5.8204 37.7284 6.46379 36.6448 5.35362C36.0556 4.74676 35.1056 4.43104 34.8678 3.49447C36.5878 4.58968 38.0077 6.00303 39.2844 7.56574C38.8856 7.44164 38.6628 6.9797 38.1826 7.01481C38.1978 7.1966 38.213 7.3784 38.2281 7.5602C38.0884 7.69405 37.9292 7.7254 37.7514 7.6477Z" fill="#95B877"/>
<path d="M24.1968 23.112C24.5833 23.2277 24.9699 23.3435 25.354 23.4576C24.8949 24.4287 24.0017 24.9661 23.1821 25.5748C22.7028 25.6034 22.2017 26.0709 21.7807 25.3674C21.089 24.2086 20.1516 24.5016 19.11 24.9241C18.174 25.3038 17.2632 26.133 16.1124 25.4595C16.0631 25.3582 16.0698 25.2806 16.1259 25.2257C16.1878 25.1677 16.2269 25.1478 16.2491 25.1628C18.005 24.7747 19.4554 23.297 21.4616 23.7647C21.9912 23.8881 22.2271 23.1871 22.7443 23.1664C23.2288 23.1199 23.7248 23.4278 24.1968 23.112Z" fill="#CBDCAE"/>
<path d="M11.6163 23.4672C11.5879 24.5269 10.9155 25.3462 10.4513 26.4605C11.6986 25.7774 13.0629 26.242 14.1775 25.5261C14.6114 25.6989 15.1521 25.2369 15.5256 25.7582C14.9054 26.6379 13.8288 26.9437 13.0848 27.668C12.1552 27.3698 11.3497 27.42 10.5049 28.0652C9.71089 28.6735 9.34072 28.3616 9.35396 27.2559C10.1094 25.9928 10.8649 24.7296 11.6163 23.4672Z" fill="#ACC487"/>
<path d="M9.35642 27.2576C9.50582 28.0449 9.79791 28.5217 10.5145 27.6752C11.3888 26.6427 12.2261 26.8391 13.0889 27.6673C11.5291 27.9133 10.4081 28.8892 9.31319 29.9007C8.98448 30.2029 8.61691 30.5716 8.17398 30.4641C7.65022 30.3375 8.10712 29.7614 7.87673 29.4515C8.36443 28.7212 8.86042 27.9894 9.35642 27.2576Z" fill="#C0D497"/>
<path d="M34.69 3.35951C34.3612 3.25437 34.0197 3.17278 33.7028 3.04C30.4704 1.69412 29.7592 1.87982 27.5737 4.6488C26.3523 6.75706 25.0376 8.78059 22.7871 9.98719C22.7125 9.93299 22.6396 9.87637 22.5683 9.81731C24.3067 7.50596 26.2342 5.35508 28.2125 3.2458C30.0216 1.31822 32.7325 1.37436 34.69 3.35951Z" fill="#8DAD70"/>
<path d="M22.3784 9.9922C22.1964 10.276 22.0217 10.5648 21.8339 10.8411C21.54 11.2706 21.1831 11.5822 20.6196 11.3144C20.113 11.0743 19.9398 10.6138 19.9971 10.1132C20.0578 9.59708 20.226 9.09307 20.3525 8.55005C20.7603 8.55157 21.0715 9.36646 21.5302 8.70941C21.5281 9.2296 21.5277 9.74737 21.522 10.2937C21.9127 10.4766 22.0402 9.91638 22.3784 9.9922Z" fill="#8DAD70"/>
<path d="M17.1976 0.797319C16.4033 2.19492 16.0199 3.74622 15.4957 5.24487C15.3193 5.7504 15.1057 6.24151 14.9079 6.73611C14.9407 4.96485 15.6969 3.36633 16.1552 1.70154C16.2746 1.26803 16.6116 0.828513 17.1976 0.797319Z" fill="#92B270"/>
<path d="M25.3524 23.46C26.371 22.5325 27.4564 21.6968 28.7499 21.1666C27.7832 22.1757 26.7499 23.0825 25.3524 23.46Z" fill="#CBDCAE"/>
<path d="M15.5297 25.7574C15.07 25.7421 14.5651 25.9748 14.1817 25.5253C14.8226 25.1276 15.4393 24.6028 16.2549 25.1596C16.2091 25.2572 16.164 25.3588 16.1182 25.4563C15.9427 25.6052 15.8037 25.8111 15.5297 25.7574Z" fill="#92B36D"/>
<path d="M22.7871 9.98719C23.8857 8.74592 25.026 7.53304 26.0688 6.24683C26.5348 5.67331 26.9916 5.10785 27.5712 4.64713C27.7016 5.77526 28.8365 6.26285 29.2438 7.21075C29.4538 7.69624 29.8507 7.57247 30.1033 7.41153C30.9693 6.86642 31.5968 7.31349 32.2377 7.809C32.5147 8.92933 31.8992 9.55151 30.9959 10.0356C25.8848 12.7708 21.0961 15.9498 16.9493 20.0144C16.4178 20.5363 15.6474 20.6926 15.0557 21.1343C14.3377 21.7477 13.6198 22.3611 12.6637 23.1773C12.874 21.505 14.6707 21.2304 14.8222 19.9041C17.1291 16.3279 20.2794 13.4094 22.7871 9.98719Z" fill="#77A750"/>
<path d="M15.0557 21.1343C17.945 18.3104 21.0561 15.7619 24.4633 13.5643C26.63 12.1652 28.6246 10.4921 31.0956 9.58871C31.9339 9.28206 31.9257 8.44763 32.2385 7.8131C33.8259 8.65047 35.4091 9.48859 36.9964 10.3259C36.9662 10.777 36.8746 11.2437 36.5098 11.5143C35.7486 12.0805 35.6621 12.5398 36.4172 13.2414C36.9506 13.7354 36.5753 14.2668 35.9854 14.4812C35.158 14.7773 34.5119 15.4645 33.5815 15.5229C33.098 15.5522 32.7397 15.8344 32.5568 16.2605C32.0793 17.3835 31.3739 18.0519 30.0622 18.3733C29.148 18.5963 28.7833 19.8959 27.8628 20.4362C27.4154 20.7008 27.0872 21.1641 26.7056 21.5376C26.5103 21.5374 26.2529 21.6164 26.1258 21.5231C24.736 20.4946 23.5796 20.7641 22.5393 22.052C22.4453 22.1669 22.027 22.1439 21.8363 22.0431C20.5087 21.3427 18.9019 21.6461 17.5894 20.788C16.767 20.2515 15.9373 21.2143 15.0557 21.1343Z" fill="#709C4C"/>
<path d="M22.7443 23.1664C22.2635 23.9442 21.6834 24.3796 20.6875 23.9577C20.2167 23.7598 19.725 23.9944 19.2957 24.2641C18.3672 24.8525 17.3225 25.0549 16.2483 25.1587C17.5491 24.5762 18.3963 23.1074 20.1801 23.4313C20.9956 23.5808 21.8886 23.2684 22.7443 23.1664Z" fill="#92B36D"/>
<path d="M37.7514 7.6477C37.909 7.61878 38.0689 7.59154 38.2265 7.56262C38.8729 8.3584 39.5077 9.16057 40.1709 9.94267C40.4221 10.2381 40.5492 10.5458 40.3632 10.877C40.1459 11.2691 39.7502 11.0828 39.4255 11.0555C38.6793 10.9888 37.952 10.8634 37.3989 10.2881C37.4624 9.40234 37.9877 8.57607 37.7514 7.6477Z" fill="#A1BA89"/>
<path d="M30.1167 5.94511C28.9862 5.7177 28.6662 5.01475 28.8392 3.82455C29.6208 4.46186 29.2877 5.54353 30.1167 5.94511Z" fill="#77A750"/>
<path d="M35.7854 8.45414C35.331 8.12806 35.4915 7.85462 35.8407 7.56986C35.9802 7.45727 36.0765 7.21893 36.2688 7.4637C36.5092 7.76965 36.3863 8.08288 36.2124 8.37577C36.0698 8.40407 35.9264 8.42827 35.7854 8.45414Z" fill="#B6D498"/>
</svg>
