<svg width="41" height="36" viewBox="0 0 41 36" fill="none" xmlns="http://www.w3.org/2000/svg">
<path d="M3.144 23.6349C2.65636 21.4687 2.60502 19.2512 2.35607 17.0568C2.24827 16.1046 2.26624 15.2243 1.33201 14.5005C0.351589 13.7408 0.726306 12.36 0.405487 11.2769C-0.395279 10.4223 0.220693 9.47777 0.315656 8.61028C0.451683 7.35266 0.811003 6.10788 1.94542 5.29942C2.16101 5.25835 2.34324 5.30712 2.4767 5.49191C2.63069 5.98469 2.27907 6.32091 2.10198 6.71102C1.82223 7.1499 1.6862 7.64268 1.58097 8.14573C1.51937 8.35875 1.45778 8.56921 1.41671 8.78737C1.39105 8.94906 1.35254 9.10819 1.30635 9.26475C1.20625 9.5676 1.15492 9.87815 1.22165 10.1964C1.31148 10.779 1.65283 11.1717 2.16358 11.4361C3.79334 12.4832 5.72083 12.5961 7.51228 13.1428C7.76124 13.2583 7.98966 13.3943 8.12056 13.6484C8.13852 13.7973 8.08462 13.9128 7.95886 13.9949C6.11094 14.0693 4.38108 13.5483 2.67176 12.9426C2.33554 12.7989 2.07118 12.4935 1.6015 12.4421C1.46034 13.6074 1.91206 14.308 2.99258 14.6365C3.67528 14.8444 4.37595 14.9856 5.05609 15.2166C5.37434 15.3167 5.70029 15.3886 6.01598 15.4886C10.3406 16.1919 14.6935 16.5846 19.0721 16.677C19.8574 16.967 20.6813 16.8746 21.4744 16.8233C24.1436 16.6513 26.8205 17.0619 29.4846 16.7129C31.0861 16.5769 32.7056 16.5846 34.2455 16.0251C34.7255 15.8788 35.2337 15.8043 35.6597 15.5092C36.2167 15.2756 36.6401 14.6648 37.3639 14.8829C37.4897 15.0498 37.523 15.2397 37.4999 15.4424C37.4229 15.7966 37.1842 16.0302 36.9122 16.2406C36.0498 17.1569 34.8666 17.2596 33.7348 17.5008C29.8182 18.299 25.8632 18.1271 21.8978 18.1399C16.4131 18.1579 11.0208 17.4649 5.63356 16.5871C4.95599 16.4768 4.29639 16.3176 3.65218 16.1046C2.83088 16.4152 3.33136 17.0517 3.36473 17.5034C3.49819 19.3154 3.75741 21.1145 3.75484 22.9394C3.65732 23.2576 3.67528 23.6862 3.144 23.6349Z" fill="#8D5725"/>
<path d="M35.7697 15.6754C35.5053 16.2529 34.9843 16.1759 34.4941 16.181C34.3452 16.0502 34.3119 15.8808 34.3324 15.6934C34.5352 15.0954 34.7816 14.5102 34.8432 13.8737C34.992 13.5991 34.9766 13.3758 34.6455 13.25C34.6147 12.8394 34.6815 12.4544 34.9458 12.1233C35.087 11.9899 35.2487 12.0155 35.4129 12.0643C35.4104 12.0515 35.395 12.0232 35.3667 12.0207C35.1948 12.0104 35.0331 12.0361 34.9048 12.1644C34.8149 12.2542 34.7251 12.3415 34.6301 12.4313C33.7986 12.9292 32.8643 13.0729 31.9352 13.1628C27.4361 13.5914 22.9138 13.6915 18.4172 13.3938C15.8866 13.2269 13.3354 12.9831 10.8074 12.652C9.01076 12.3312 7.16797 12.3132 5.38422 11.8744C4.18563 11.5792 2.96395 11.3688 1.9091 10.6655C1.79617 10.5988 1.69351 10.5167 1.59854 10.4268C1.31109 10.0803 1.13143 9.69022 1.1186 9.23081C1.1263 9.05628 1.134 8.88176 1.1417 8.70723C1.90653 8.66103 1.98353 9.54906 2.56614 9.75182C2.95369 9.98794 3.36947 10.1727 3.78269 10.3601C4.00084 10.4551 4.22413 10.5423 4.44999 10.6168C5.52538 10.763 6.5982 10.9247 7.67615 11.0582C7.98927 11.1429 8.29982 11.225 8.62834 11.2173C8.89527 11.2173 9.16219 11.2276 9.42911 11.2584C10.1657 11.4637 10.9177 11.4971 11.6748 11.4791C11.9674 11.4868 12.2575 11.5125 12.5398 11.5869C14.4082 11.8102 16.2793 12.0284 18.1657 12.0053C20.8991 12.4749 23.653 12.1182 26.3941 12.226C27.5721 12.1567 28.7681 12.3825 29.9308 12.0284C30.2028 11.995 30.4774 11.9924 30.7495 11.9847C31.6067 11.9 32.4614 11.8102 33.2827 11.5253C33.5034 11.4227 33.7421 11.4201 33.9782 11.4124C34.9407 11.3431 35.6208 10.7348 36.3292 10.1779C36.6295 9.92635 36.899 9.64659 37.1043 9.30781C37.3584 8.91512 37.6997 8.5943 37.9667 8.21189C38.8803 7.19296 39.06 5.92252 39.1883 4.63411C39.35 4.35692 39.4553 4.00787 39.8967 4.1054H39.889C40.1867 4.85483 40.1893 5.671 40.4177 6.43583C40.7847 7.82434 40.8078 9.21284 40.4305 10.6039C40.0815 10.4294 40.2073 9.98281 39.9403 9.77235C39.0112 11.2276 37.9538 12.5468 36.4781 13.4733C35.6106 14.0123 35.9134 14.9132 35.7697 15.6754Z" fill="#975D29"/>
<path d="M33.1903 33.6045C31.6889 35.1393 29.6638 35.2112 27.7492 35.4165C22.9934 35.9247 18.2427 35.6347 13.5048 35.0598C13.3842 35.0444 13.2712 34.97 13.1532 34.9212C13.4843 34.5234 13.9976 34.6106 14.4159 34.4412C14.5443 34.4027 14.6752 34.3771 14.8086 34.3591C15.2141 34.3129 15.6196 34.318 16.0252 34.3103C16.3023 34.3052 16.577 34.3078 16.8516 34.3206C19.1974 34.6337 21.5535 34.7184 23.9173 34.6928C26.6199 34.7569 29.266 34.472 31.7761 33.3813C32.2561 33.3941 32.831 32.8371 33.1903 33.6045Z" fill="#8B5929"/>
<path d="M3.144 23.6349C3.47252 23.4501 3.42155 23.1215 3.45235 22.8264C3.60378 22.7699 3.72441 22.8058 3.81937 22.9367C4.18895 23.7914 3.93743 24.7462 4.25825 25.6085C4.28905 26.2784 4.35321 26.9431 4.50977 27.595C4.87422 28.9168 4.82803 30.3489 5.58773 31.5629C5.97271 32.0352 6.37823 32.4818 6.9788 32.6897C8.81902 33.3672 10.726 33.7676 12.6586 34.0576C13.0667 34.1192 13.5312 34.0499 13.7519 34.5376C13.6133 34.9713 13.1488 34.6402 12.9332 34.8892C10.4591 34.5607 7.95923 34.3759 5.72889 33.0413C4.96662 32.5844 4.50207 31.9761 4.31728 31.1702C3.75007 28.6884 3.29286 26.1835 3.144 23.6349Z" fill="#94602D"/>
<path d="M2.41256 5.66351C2.3022 5.56598 2.19184 5.46589 2.08148 5.36836C2.13538 4.18518 3.10297 3.7155 3.86524 3.08669C5.04585 1.90094 6.53959 1.29267 8.11802 0.923082C10.0275 0.476501 11.9781 0.237811 13.9467 0.242944C14.4446 0.512433 15.0862 0.00682098 15.5379 0.535532C15.484 1.02831 15.0862 1.03858 14.732 1.11301C12.2502 1.04884 9.81965 1.45436 7.40452 1.96254C6.3009 2.46302 5.25888 3.05589 4.42218 3.95419C3.92683 4.4367 3.61628 5.08347 3.05934 5.51465C2.86171 5.64811 2.66665 5.78671 2.41256 5.66351Z" fill="#9E6531"/>
<path d="M38.894 15.1999C38.5347 19.5682 37.9418 23.9082 37.2616 28.238C37.2026 28.6076 37.1051 28.99 36.8099 29.2698C36.5558 29.3493 36.4352 29.1928 36.3351 28.9977C36.1144 28.3638 36.4301 27.7837 36.5071 27.178C36.6328 26.716 36.6944 26.2438 36.7175 25.7664C37.0769 23.7311 37.4105 21.6933 37.5491 19.6272C37.7698 19.0343 37.7159 18.4132 37.7288 17.7998C37.6928 16.9195 37.875 16.0648 38.0701 15.2153C38.1137 15.087 38.1856 14.9741 38.2806 14.8765C38.4962 14.7893 38.6656 14.8688 38.8144 15.0203C38.8401 15.0767 38.8683 15.1383 38.894 15.1999Z" fill="#8B5728"/>
<path d="M36.5276 29.0003C36.6226 29.0902 36.7175 29.1774 36.8099 29.2673C36.1991 31.2101 34.6822 32.3959 33.1885 33.6047C32.7548 33.189 32.3313 33.8024 31.9001 33.6176C31.818 33.5354 31.7769 33.4379 31.7795 33.3224C31.818 33.1479 31.9206 33.0221 32.0644 32.9195C32.2568 32.7937 32.4724 32.7218 32.688 32.6474C34.0355 31.9929 34.7413 30.6866 35.7191 29.6599C35.963 29.4084 36.0117 28.9233 36.5276 29.0003Z" fill="#946031"/>
<path d="M15.5102 0.535434C14.9892 0.427639 14.3886 0.753592 13.9446 0.242847L14.0139 0.196649L14.0884 0.235147C17.7534 0.0862868 21.4185 0.0837202 25.0835 0.237714C25.1477 0.191516 25.2015 0.199215 25.2452 0.263379C25.1579 0.961483 24.583 0.79209 24.1518 0.87422C23.2048 0.899885 22.2577 0.843421 21.3132 0.920418C19.9016 0.920418 18.4926 0.933251 17.081 0.920418C16.5343 0.915285 15.9568 0.976882 15.5102 0.535434Z" fill="#9E632C"/>
<path d="M24.2001 0.533399C24.5594 0.482068 24.9726 0.643761 25.2446 0.258777C25.5809 0.520566 25.9402 0.13045 26.279 0.292143C27.2979 0.57703 28.3579 0.227979 29.3768 0.487201H29.3563C30.0467 0.882451 30.8397 0.469235 31.543 0.759256L31.5892 0.710491L31.6482 0.74129C32.2359 1.14167 32.9392 0.718191 33.5398 1.00821C33.6039 0.962014 33.6604 0.967147 33.7092 1.02874C33.8041 1.16477 33.7887 1.28797 33.663 1.39576C33.0752 1.72941 32.4361 1.61905 31.8099 1.61649C31.6097 1.60622 31.4095 1.57285 31.217 1.52409C30.7884 1.36753 30.3418 1.347 29.8927 1.3547C29.7592 1.35983 29.6283 1.34956 29.4949 1.33673C29.2895 1.31877 29.0894 1.28283 28.8917 1.22894C27.57 1.00565 26.2328 1.22894 24.9084 1.11087C24.6903 1.08778 24.4824 1.03131 24.2976 0.910683C24.1667 0.810587 24.1359 0.684826 24.2001 0.533399Z" fill="#9E6531"/>
<path d="M25.0826 0.233611C21.4176 0.233611 17.7525 0.231045 14.0875 0.231045C16.9492 -0.120574 19.8212 0.0180205 22.6906 0.0770513C23.4862 0.0950172 24.2998 -0.0333106 25.0826 0.233611Z" fill="#9D6D3D"/>
<path d="M40.1332 8.99165C40.6003 9.46133 40.2718 10.0722 40.4181 10.6009C40.5156 11.4427 40.3052 12.2691 39.8303 12.9005C39.2939 13.6115 39.0197 14.3581 38.894 15.1999L38.814 15.1103C38.5394 14.7253 38.5702 14.2634 38.488 13.827C38.4675 13.7141 38.4624 13.5986 38.4701 13.4831C38.5111 13.2496 38.6266 13.0468 38.7498 12.8492C39.7636 11.7635 39.584 10.2467 40.1332 8.99165Z" fill="#8B5728"/>
<path d="M33.7094 1.31121C33.7094 1.21881 33.712 1.12385 33.712 1.03145C35.2622 1.43184 36.8842 1.573 38.3266 2.3481C38.3677 2.58165 38.2266 2.68175 38.0366 2.74848C37.7158 2.81264 37.4181 2.70742 37.1178 2.62272C36.6481 2.45076 36.1553 2.37376 35.6728 2.25057C35.0568 1.85789 34.0893 2.19667 33.7094 1.31121Z" fill="#9C6635"/>
<path d="M38.0539 2.58989C38.1463 2.51032 38.2361 2.42819 38.3285 2.34863C39.3012 2.53086 39.6246 3.28799 39.889 4.10159C39.7144 4.27868 39.5399 4.45577 39.3654 4.63543C38.9522 4.30948 38.8572 3.75254 38.4645 3.41118C38.3002 3.25462 38.1283 3.10576 38.0102 2.90557C37.9666 2.79264 37.9794 2.68742 38.0539 2.58989Z" fill="#9D6839"/>
<path d="M29.3785 0.488413C28.3442 0.460181 27.2867 0.765601 26.2807 0.293355C27.315 0.298488 28.357 0.206092 29.3785 0.488413Z" fill="#B1753C"/>
<path d="M40.4083 6.43339C40.0053 5.70962 39.8873 4.91912 39.8796 4.10296C40.3107 4.8216 40.4853 5.59926 40.4083 6.43339Z" fill="#925D31"/>
<path d="M31.546 0.760639C30.8171 0.663109 30.0266 1.07632 29.3593 0.488584C30.0933 0.534782 30.8376 0.49885 31.546 0.760639Z" fill="#9C6635"/>
<path d="M33.5395 1.01265C32.9055 0.945924 32.2126 1.30011 31.6479 0.745733C32.2896 0.748299 32.9363 0.7406 33.5395 1.01265Z" fill="#9C6635"/>
<path d="M12.9303 34.8873C13.1254 34.605 13.4308 34.664 13.708 34.6384C13.9672 34.4253 14.2187 34.4382 14.4626 34.6666C14.0878 35.0695 13.5869 34.8211 13.1532 34.9212L13.0356 34.9412L12.9303 34.8873Z" fill="#865222"/>
<path d="M3.42688 15.6747C7.43328 16.6217 11.5064 17.0734 15.5949 17.5175C18.3129 17.8126 21.0463 17.8357 23.7335 17.8254C26.6568 17.8152 29.6674 18.1155 32.5727 17.2967C33.0116 17.1735 33.5018 17.2274 33.9689 17.2018C34.2307 17.1248 34.3282 17.2916 34.4078 17.4892C34.4386 18.1565 34.318 18.8033 34.1486 19.4449C33.6994 20.5691 32.7344 21.4443 32.5445 22.6993C32.5034 22.9996 32.47 23.3025 32.3853 23.5951C31.8746 24.5524 31.9182 24.5011 31.0687 23.8158C30.9173 23.6926 30.4835 23.8158 30.4322 23.3769C30.4835 24.4651 30.3603 25.5559 30.5297 26.6441C30.54 26.7673 30.5323 26.888 30.5118 27.0086C30.327 27.7555 30.1986 28.5177 29.9163 29.2338C29.8085 29.511 29.7777 29.9704 29.2541 29.7368C29.0488 29.452 29.036 29.1234 29.0437 28.7923C29.0514 28.5896 29.0847 28.392 29.1309 28.1969C29.3337 27.6169 29.2541 27.0137 29.2695 26.4157C29.2721 26.0718 29.2926 25.7279 29.3722 25.3917C29.6135 24.6525 29.4903 23.8902 29.5159 23.1357C29.3799 22.1629 29.8804 21.0978 29.0925 20.22C28.3302 19.6092 27.4986 19.9865 26.6799 20.0199C25.8175 20.0558 24.8474 20.5357 24.1647 19.5579C24.6369 19.1395 25.3042 19.658 25.7713 19.2217C26.8467 18.385 28.0068 18.7956 29.1515 18.9804C29.8906 19.196 30.3295 19.7221 30.6606 20.5691C30.8146 20.0815 30.7145 19.6092 31.0276 19.3577C31.4999 18.9804 31.9721 18.7853 31.9259 19.7324C31.8977 19.9275 31.9208 20.1405 31.7463 20.2893C31.9798 20.1097 31.8874 19.8171 31.9901 19.5912C32.0491 19.2602 32.4136 18.8084 31.6641 18.8084C31.2792 18.8084 30.8967 18.8161 30.5143 18.8546C28.5817 18.9316 26.644 18.5364 24.7704 18.965C25.0219 19.0754 25.6866 18.4183 25.625 19.3551C24.3649 19.4064 23.1072 19.4064 21.9626 19.3602C22.5426 19.6246 23.3639 19.0933 24.0261 19.6092C23.4409 20.4408 22.54 20.1918 21.8163 20.0892C20.1711 19.8582 18.5259 19.9069 16.8808 19.8659C16.4599 19.8556 16.0235 19.8633 15.7335 19.4655C15.8028 18.9393 16.2083 19.0009 16.5651 18.9958C17.0168 18.9881 17.4685 19.0446 17.9151 18.9342C18.3026 18.7879 18.6902 18.6313 19.1188 18.7674C20.1993 18.7853 21.2824 18.6647 22.3604 18.7982C21.2824 18.7212 20.1993 18.7545 19.1188 18.7674C16.4008 18.8187 13.7008 18.657 11.0265 18.1334C10.3207 17.9948 9.58662 18.0641 8.86541 18.077C8.42653 18.059 8.04412 18.3182 7.6155 18.3439C7.16892 18.2181 6.748 18.0128 6.29886 17.8973C6.13973 17.8331 5.99087 17.7485 5.83944 17.6689C5.321 17.4379 4.76919 17.3352 4.20968 17.2505C4.03772 17.2274 3.8709 17.1838 3.71177 17.1145C3.09066 16.7321 2.9649 16.2598 3.42688 15.6747Z" fill="#A26831"/>
<path d="M2.41256 5.66351C2.56912 5.57368 2.72869 5.4808 2.88525 5.39097C3.2805 5.43203 3.56539 4.91359 4.00427 5.16768C4.19419 5.32424 4.31225 5.52443 4.36872 5.76312C4.38668 5.88631 4.41235 6.02491 4.36358 6.13527C3.75018 7.47501 4.08383 8.54014 5.28754 9.35373C5.33888 9.45896 4.95132 9.69252 5.39277 9.69509C5.89838 9.69765 6.38346 9.59242 6.87881 9.49489C8.68053 9.65659 10.472 9.87731 12.2737 10.0364C15.3356 10.578 18.4283 10.6935 21.5287 10.6883C23.6975 10.6858 25.8688 10.6858 28.0349 10.6883C30.2396 10.8295 32.3134 10.2828 34.3307 9.45896C34.6336 9.46153 34.9287 9.40507 35.229 9.364C35.5755 9.3794 35.963 9.41533 36.0272 9.82341C36.0939 10.2315 35.6961 10.5138 35.4164 10.4933C34.4205 10.4137 34.3487 11.2581 33.9663 11.7971C33.8046 11.7278 33.6429 11.6559 33.4812 11.5866C32.6727 11.2941 31.836 11.5071 31.0173 11.448C31.3047 11.4429 31.5178 11.5071 31.4228 11.8715C31.0635 12.2334 30.4655 11.9023 30.1267 12.3207C28.9486 12.7442 27.727 12.5594 26.5181 12.5722C24.8242 12.064 23.0866 12.4259 21.3696 12.3309C20.2352 12.2668 19.0854 12.4516 17.9715 12.0871C16.2801 12.1769 14.6118 11.9049 12.9333 11.8048C12.5329 11.7612 12.1762 11.5045 11.7527 11.5661C10.9468 11.7278 10.1435 11.3454 9.34014 11.5558C9.07835 11.5507 8.81656 11.5456 8.55221 11.5404C8.34175 11.3043 8.06199 11.2941 7.7771 11.3146C6.55542 11.3197 5.35684 11.1683 4.18649 10.8115C4.34048 10.5908 4.52271 10.6678 4.65104 10.6883C4.47651 10.4984 4.12746 10.578 3.84257 10.4676C3.46016 10.3547 3.09827 10.2007 2.78002 9.95431C1.79189 9.69509 2.20254 8.75059 1.89712 8.15772C1.52754 7.66751 1.95358 7.17216 1.88429 6.67938C1.87659 6.2405 2.24574 6.00486 2.41256 5.66351Z" fill="#B6783D"/>
<path d="M10.6155 12.3309C13.0101 12.5671 15.4252 12.4952 17.807 13.0111C18.9902 13.2652 20.2658 13.0804 21.5003 13.0984C25.3552 13.1574 29.2076 13.1497 33.0344 12.5773C33.6991 12.4772 34.3433 12.2437 34.9978 12.0743L34.9952 12.0717C35.0209 12.5234 34.9875 12.9598 34.7411 13.3576C34.5384 13.9222 34.0533 14.107 33.5349 14.1686C32.4312 14.2969 31.3507 14.5947 30.2522 14.6793C24.9318 15.0823 19.6164 14.9617 14.3165 14.3175C13.8468 14.261 13.3823 14.2482 12.9151 14.2302C11.3033 13.9735 9.62739 14.1994 8.05409 13.6194C7.84363 13.6142 7.64857 13.5809 7.53564 13.373C7.19429 12.8289 7.36882 12.4079 7.97452 12.4413C8.5828 12.4747 9.23213 12.3823 9.81218 12.6851C9.9713 12.7698 10.074 12.7005 10.1766 12.5414C10.2665 12.3951 10.482 12.4336 10.6155 12.3309Z" fill="#A96C33"/>
<path d="M29.6132 16.9535C28.3479 17.4977 27.021 17.1332 25.7274 17.1845C23.9129 17.2564 22.0958 17.2102 20.2786 17.1974C19.868 17.1948 19.4163 17.3257 19.0724 16.9587C19.2418 16.6995 19.5292 16.6302 19.7833 16.5044C19.9091 16.3786 20.3402 16.3812 19.9604 16.0527C18.8593 15.9269 17.7583 16.0758 16.6624 15.9577C16.5366 15.9398 16.416 15.9115 16.2953 15.873C15.9976 15.7678 15.6922 15.678 15.3817 15.6138C14.219 15.2699 14.1625 15.1621 14.7477 14.4204C16.9319 14.695 19.1571 14.8053 21.3232 14.8156C23.1891 14.8259 25.1115 15.0363 26.9902 14.7232C27.6729 14.6103 28.353 14.6565 29.0332 14.6462C29.8904 14.9285 30.9299 14.5436 31.6408 15.3597C31.8872 15.642 32.2773 15.9038 32.1669 16.3119C32.0386 16.779 31.5587 16.6635 31.1942 16.6815C30.6527 16.7123 30.1137 16.72 29.6132 16.9535Z" fill="#A56930"/>
<path d="M19.8552 16.6944C19.6678 16.9973 19.3547 16.933 19.0724 16.9587C14.6912 17.0665 10.3641 16.5276 6.04711 15.8782C5.93675 15.8628 5.84178 15.7396 5.74169 15.6678C5.84435 14.944 6.34226 15.2084 6.92487 15.2854C6.15747 15.039 5.40547 15.3085 4.93322 14.6874C4.88703 14.5667 4.88959 14.4461 4.93836 14.3255C5.21041 14.0175 5.62363 13.8122 5.94188 13.9816C6.9223 14.5051 7.8129 14.0457 8.73686 13.8661C9.60436 13.8994 10.4744 13.8892 11.3393 13.9482C11.9502 14.1612 12.5893 14.1971 13.2206 14.1304C13.5954 14.0919 13.8956 14.0765 14.0522 14.482C14.1215 14.9979 13.9649 15.6498 14.7888 15.7191C15.1404 15.6909 15.4869 16.0091 15.8437 15.7294C15.9746 15.6421 16.1054 15.5472 16.2671 15.6626L16.2774 15.6678C17.5017 16.1323 18.8183 15.7165 20.0579 16.063C20.3326 16.3839 20.0554 16.5276 19.8552 16.6944Z" fill="#AA6E34"/>
<path d="M10.6158 12.3298C9.94595 12.8944 10.6595 12.8405 10.8981 13.1613C10.0435 13.0279 9.15289 12.9996 8.34185 12.7327C7.58472 12.4838 7.54879 12.8302 7.53595 13.3667C5.57767 13.0022 3.57062 12.7917 1.87413 11.5906C1.79713 11.1492 1.09646 10.8181 1.64571 10.2688C4.1789 11.4546 6.87122 11.9397 9.64053 12.0859C9.96648 12.1039 10.2899 12.2451 10.6158 12.3298Z" fill="#B17135"/>
<path d="M40.1332 8.99165C40.1358 10.4957 40.0229 11.9663 38.8474 13.1033C38.2263 13.1546 38.3906 13.5909 38.4291 13.9631C38.1853 14.4328 37.9953 14.9666 37.3049 14.8999C36.7916 15.1565 36.2809 15.4157 35.7676 15.6724C35.2619 14.6791 35.3081 13.7783 36.345 13.1803C38.0672 12.1844 38.9577 10.4649 40.1332 8.99165Z" fill="#A56B34"/>
<path d="M3.42553 15.675C3.65909 16.0677 3.12011 16.622 3.69245 16.9429C3.97477 17.3484 4.31869 17.7077 4.54968 18.1517C4.54711 18.393 4.44958 18.5906 4.28532 18.7549C4.24426 18.8601 3.75405 18.6419 4.09027 19.0346C4.25453 19.2271 4.37259 19.4607 4.54198 19.6557C4.61898 19.7584 4.68314 19.8662 4.73704 19.9817C5.23239 21.1161 4.99369 22.3198 5.07069 23.4927C5.06299 23.8135 5.25035 24.0753 5.34531 24.3654C5.37354 24.4834 5.38124 24.6066 5.37611 24.7272C5.37611 25.5562 5.50444 26.4032 5.10149 27.186C4.91926 27.5402 4.8166 28.0535 4.21603 27.7198C3.98504 27.0525 3.89007 26.3673 3.94911 25.6615C4.0338 24.6323 3.93627 23.6056 3.88238 22.5816C3.84901 21.9117 4.20576 21.2726 4.03124 20.4744C4.08 20.803 4.07743 21.016 4.05947 21.229C3.88238 21.7629 3.96707 22.3609 3.66935 22.8639C3.59492 22.8536 3.52306 22.8408 3.45119 22.8203C3.25357 20.5874 3.10727 18.3493 2.83009 16.1267C2.73512 15.3824 2.87885 15.3798 3.42553 15.675Z" fill="#B0763F"/>
<path d="M34.2244 17.4614C34.1371 17.3741 34.0498 17.2868 33.9651 17.1996C34.9558 16.8788 36.0492 16.7889 36.7935 15.9214C37.5224 15.7084 38.2359 15.4594 37.933 16.7453C37.8714 17.0122 37.779 17.4203 38.0639 17.7052C37.9869 18.3109 38.2923 18.9654 37.8329 19.5223C37.5994 19.3914 37.7123 19.1322 37.6199 18.9474C37.5763 19.1887 37.5301 19.4299 37.294 19.5711C36.4496 19.317 36.95 18.6266 36.832 18.1672C36.7473 18.5496 36.8525 18.9833 36.6985 19.3863C36.6343 19.4915 36.5445 19.5582 36.4213 19.5813C35.9696 19.4017 35.6308 19.4299 35.464 19.9894C35.3511 20.3744 35.3254 20.8287 34.8737 21.0674C34.2551 20.7106 34.5195 20.0125 34.2808 19.5146C34.0396 18.837 34.5221 18.1389 34.2244 17.4614Z" fill="#996230"/>
<path d="M8.57234 14.1169C7.42765 14.9613 6.15464 14.0578 4.97146 14.3786C4.45815 14.3453 3.93457 14.4505 3.43152 14.2709C3.35453 14.2349 3.28523 14.1862 3.21593 14.1374C3.03884 14.0168 2.94901 13.8114 2.76679 13.6959C2.88998 13.8756 2.85918 14.0578 2.77449 14.2401C2.08665 14.6096 2.02762 13.9834 1.89416 13.6266C1.6452 12.9645 2.15082 12.7617 2.64873 12.5975C4.38629 13.2879 6.23164 13.5137 8.04876 13.8653C8.34391 13.7036 8.57747 13.6626 8.57234 14.1169Z" fill="#A56830"/>
<path d="M29.6132 16.9535C30.2651 16.2683 31.155 16.5325 31.9378 16.381C31.6298 14.9001 30.2234 15.3647 29.3507 14.895C29.4329 14.7898 29.5381 14.7179 29.6638 14.6794C30.2336 14.6332 30.8085 14.6255 31.3603 14.4433C31.5477 14.4074 31.7325 14.4074 31.9173 14.4536C32.2176 14.8847 32.4768 15.2081 33.1672 15.0901C33.4136 15.049 34.4402 14.6358 34.4864 15.665C34.489 15.8369 34.4915 16.0091 34.4941 16.181C32.9619 17.0434 31.2789 16.9407 29.6132 16.9535Z" fill="#AB7036"/>
<path d="M3.43698 14.1232C3.92719 14.3336 4.57653 13.6021 4.97435 14.3798C4.97178 14.4645 4.97178 14.5492 4.97178 14.6339C4.91275 14.8906 5.11037 15.1472 4.97435 15.4039C4.19668 15.2216 3.40361 15.0907 2.64648 14.8444C1.61986 14.5081 1.00132 13.3994 1.12964 12.3522C1.17584 11.9698 1.31187 11.7799 1.69172 11.9903C2.02281 12.1726 2.33336 12.3959 2.65161 12.5986C1.89191 13.4584 1.89191 13.461 2.66188 14.1257C2.91853 14.0539 3.17776 14.0539 3.43698 14.1232Z" fill="#AD7239"/>
<path d="M8.57234 14.1169C8.45171 13.9218 8.25952 13.8784 8.05163 13.8656C8.05163 13.7809 8.05163 13.6988 8.05163 13.6141C9.59926 13.5114 11.1238 13.7912 12.6612 13.8836C12.4558 14.5406 12.0195 14.2249 11.6345 14.13C10.6131 14.1248 9.59383 14.122 8.57234 14.1169Z" fill="#8C5421"/>
<path d="M4.96909 15.4046C5.05635 15.148 4.17603 14.8939 4.96653 14.6346C5.65436 14.7938 6.3422 14.9555 7.20456 15.1557C6.66559 15.592 6.03935 15.1813 5.73649 15.6664C5.45674 15.651 5.15388 15.7023 4.96909 15.4046Z" fill="#A56830"/>
<path d="M38.0616 17.7043C37.3481 17.2064 37.9436 16.4749 37.7306 15.8769C37.4123 15.7075 37.1246 16.4527 36.7935 15.9214C36.9629 15.7495 37.1351 15.5766 37.3045 15.4072C37.5714 15.089 37.7999 14.6963 38.3234 14.9042C38.2362 15.8359 38.1489 16.7701 38.0616 17.7043Z" fill="#A8713C"/>
<path d="M2.133 7.97163C2.81057 8.38741 1.85068 9.51669 2.9158 9.76308C2.8003 9.96584 2.53338 9.87344 2.39222 10.0249C1.76085 9.78875 1.69155 9.01622 1.13717 8.70823C1.21417 8.5414 1.2886 8.37714 1.3656 8.21032C1.62482 8.13845 1.88661 8.07685 2.133 7.97163Z" fill="#BA844C"/>
<path d="M2.13256 7.97313C1.94777 8.27855 1.78865 8.6661 1.36516 8.21182C1.34977 7.63691 1.4011 7.0851 1.88104 6.67445C2.52781 7.0004 1.63722 7.61894 2.13256 7.97313Z" fill="#CD9A61"/>
<path d="M38.3241 14.9024C37.9853 15.0692 37.644 15.2386 37.3052 15.4054C37.3052 15.236 37.3049 15.0693 37.3049 14.8999C37.6411 14.5482 37.9776 14.1965 38.3139 13.8449C38.2574 13.596 38.3678 13.5369 38.5885 13.6088L38.5962 13.6216C38.7758 14.099 38.8477 14.5559 38.3344 14.8921L38.3241 14.9024Z" fill="#8B5728"/>
<path d="M1.64236 10.2688C1.38314 10.7667 2.15645 11.0876 1.87413 11.5906C1.23249 11.3981 1.09055 10.836 0.918594 10.297C1.13932 9.75801 1.38827 9.95563 1.64236 10.2688Z" fill="#C38B52"/>
<path d="M1.64046 10.2685C1.39407 10.1428 1.15025 10.0838 0.916691 10.2942C0.893592 9.92463 0.754998 9.53195 1.11688 9.23166C1.4454 9.50115 1.59169 9.86046 1.64046 10.2685Z" fill="#B17135"/>
<path d="M38.0548 2.59043C38.0702 2.65973 38.0805 2.73159 38.0882 2.80345C38.16 3.04984 38.2575 3.2603 38.5758 3.10374C39.0121 3.52466 39.4099 3.9661 39.3663 4.63341C39.5203 6.10918 39.143 7.40786 38.0779 8.47554C37.6441 8.48838 37.3464 9.05559 36.8408 8.78353C37.0744 7.45919 37.1154 6.05528 38.3397 5.13902C38.853 5.49064 38.7837 5.95518 38.5886 6.44026C38.45 6.53009 38.2755 6.57629 38.2114 6.75595C38.1703 6.87145 38.1215 6.98694 38.083 7.105C38.178 6.96384 38.2011 6.79188 38.2883 6.64559C38.9736 6.15794 38.9249 5.65233 38.3217 5.13389C37.7673 4.89263 37.4619 4.24843 36.7895 4.19453C35.5473 3.10117 33.9714 2.87532 32.4443 2.51857C32.1132 2.15668 30.9916 2.29527 31.6589 1.29432C32.3416 1.29688 33.0243 1.30202 33.7045 1.30458C34.3153 1.76656 35.2213 1.43805 35.768 2.07198C36.2556 2.20288 36.7048 2.52113 37.2489 2.35687C37.521 2.44157 37.7879 2.516 38.0548 2.59043Z" fill="#B77D43"/>
<path d="M11.6317 14.1302C11.9833 14.0866 12.3837 14.2457 12.6583 13.8838C15.3686 14.0121 18.0661 14.3304 20.7815 14.4587C25.0779 14.664 29.3256 14.4767 33.5629 13.8376C33.9685 13.776 34.3457 13.5219 34.7359 13.3551C35.1876 13.3423 35.1234 13.5861 34.9899 13.8633C34.1353 14.818 33.0163 14.7 31.9049 14.6281C31.7356 14.6332 31.5662 14.6409 31.3968 14.6461C30.8296 14.9592 30.1623 14.5563 29.5976 14.8899H29.4718L29.3461 14.895C27.3519 14.895 25.3551 14.8719 23.3609 14.9104C22.7295 14.9233 22.0596 14.6692 21.4745 15.3262C21.1408 15.7009 20.9688 14.8026 20.4119 14.8694C18.4254 15.1132 16.4517 14.5819 14.4626 14.6409C14.3215 14.8026 14.2137 15.0208 13.9365 14.9515C13.8749 14.8925 13.8518 14.8309 13.8672 14.7667C13.8826 14.7025 13.9006 14.6692 13.9185 14.6692C13.7491 14.0378 13.377 14.4818 13.0613 14.4536C12.5942 14.41 12.0347 14.546 11.6317 14.1302Z" fill="#8C5424"/>
<path d="M37.045 4.12253C37.9253 3.89411 37.9767 4.71027 38.3308 5.14402C37.6353 6.24764 37.4736 7.53862 37.0476 8.7372C37.1913 8.8527 37.2247 9.00412 37.1862 9.17865C37.0758 9.60726 36.7036 9.88189 36.5368 10.2797C35.8823 11.1292 34.9815 11.5604 33.9651 11.7965C34.1397 11.042 33.788 9.82285 35.3382 10.272C35.4589 10.3054 35.8208 9.98711 35.8284 9.81772C35.849 9.47124 35.3716 9.78692 35.2535 9.52C35.0533 8.94766 35.5564 8.71154 35.8182 8.37532C36.3341 7.71571 36.8756 7.07921 37.0373 6.22198C37.3042 5.57777 37.2401 4.93613 37.0347 4.29193C37.0373 4.23289 37.0424 4.17643 37.045 4.12253Z" fill="#B1743A"/>
<path d="M18.0505 11.8232C19.7059 12.4083 21.4152 11.8719 23.0938 12.0567C23.9356 12.1491 24.7954 12.0721 25.6475 12.0772C26.0273 12.0798 26.4508 12.0156 26.5175 12.57C23.6969 12.4802 20.8634 12.8549 18.0556 12.3262C17.9067 12.1594 17.9067 11.9925 18.0505 11.8232Z" fill="#C0854B"/>
<path d="M31.9094 14.628C32.9386 14.3739 33.9652 14.1199 34.9944 13.8632C35.1278 14.5485 34.9895 15.1568 34.4864 15.665C34.4684 15.6265 34.4374 15.5571 34.4323 15.5571C33.842 15.765 33.3235 15.185 32.7743 15.3646C32.0018 15.6187 31.9094 15.2106 31.9094 14.628Z" fill="#A16831"/>
<path d="M40.0845 7.92982C39.2016 9.06167 38.6164 10.3911 37.6437 11.4794C37.1509 12.0312 36.6427 12.4393 35.9652 12.7164C37.4461 11.1354 38.4547 9.24389 39.5815 7.43447C39.8304 7.51917 39.9202 7.76556 40.0845 7.92982Z" fill="#A66D36"/>
<path d="M18.0505 11.8232C18.053 11.99 18.0535 12.1569 18.0561 12.3237C16.1466 12.3776 14.255 12.2005 12.3789 11.8515C12.3943 11.6795 12.5508 11.6513 12.6586 11.5717C14.4501 11.7591 16.2462 11.8616 18.0505 11.8232Z" fill="#C89565"/>
<path d="M31.3959 11.8212C31.2496 11.4978 30.8775 11.6312 30.3436 11.236C31.5961 11.5055 32.5868 10.3916 33.4799 11.5825C32.8075 12.5141 31.7167 11.9521 30.8851 12.3139C30.7491 11.834 31.2753 12.0368 31.3959 11.8212Z" fill="#B1743A"/>
<path d="M9.34014 11.5558C10.0562 10.8937 10.9084 11.6038 11.663 11.3292C11.7964 11.4858 11.7964 11.6423 11.6527 11.7938C10.8648 11.8656 10.0947 11.7971 9.34014 11.5558Z" fill="#C49264"/>
<path d="M37.0479 9.24756C37.0479 9.0756 37.0479 8.90621 37.0479 8.73425C37.4072 8.71628 37.5792 7.94118 38.0771 8.47759C37.8102 8.81125 37.5458 9.14746 37.2789 9.48112C37.0556 9.54528 36.9324 9.51448 37.0479 9.24756Z" fill="#C18C56"/>
<path d="M40.084 7.92828C39.7196 7.96421 39.622 7.72808 39.581 7.4355C39.6451 7.21477 39.6143 6.76306 39.8505 6.84776C40.3535 7.03255 40.0507 7.54843 40.084 7.92828Z" fill="#BA834A"/>
<path d="M2.39435 10.0249C2.49187 9.78106 2.70233 9.76567 2.91792 9.7631C3.18484 10.0685 3.5339 10.2174 3.92145 10.2969C3.99074 10.5305 3.94198 10.6511 3.66992 10.551C3.18741 10.51 2.79986 10.2456 2.39435 10.0249Z" fill="#D6A677"/>
<path d="M34.9977 12.0704C35.3288 11.9035 35.6573 11.7393 36.1244 11.5031C35.8857 12.2936 35.5264 12.386 34.9952 12.0652C34.9952 12.0678 34.9977 12.0704 34.9977 12.0704Z" fill="#A96C33"/>
<path d="M31.3969 11.822C31.2275 11.9862 31.0556 12.1505 30.8862 12.3148C30.6321 12.3148 30.3806 12.3173 30.1265 12.3173C30.2959 11.4986 30.9452 11.9169 31.3969 11.822Z" fill="#C1884F"/>
<path d="M3.66992 10.551C3.75462 10.4663 3.83675 10.3816 3.92145 10.2969C4.2551 10.3046 4.57352 10.3513 4.76858 10.6747C4.57609 10.7209 4.38103 10.7671 4.18854 10.8107C4.01401 10.7234 3.84188 10.6383 3.66992 10.551Z" fill="#C5905E"/>
<path d="M37.0487 9.2488C37.1257 9.32836 37.2027 9.40536 37.2797 9.48236C37.1616 9.86734 36.8716 10.0932 36.5379 10.278C36.3839 9.77494 36.81 9.55935 37.0487 9.2488Z" fill="#B77D43"/>
<path d="M11.6517 11.793C11.6543 11.639 11.6594 11.4824 11.662 11.3284C12.0367 11.2283 12.3447 11.4157 12.6578 11.5697C12.5654 11.6621 12.473 11.757 12.3781 11.8494C12.1342 11.834 11.893 11.8135 11.6517 11.793Z" fill="#D4A981"/>
<path d="M7.77591 11.3136C8.17372 10.9132 8.44578 10.9414 8.55101 11.5394C8.26355 11.5676 7.9761 11.5882 7.77591 11.3136Z" fill="#C28851"/>
<path d="M4.21725 27.721C5.16687 27.3232 5.05395 26.4403 5.07705 25.6754C5.08988 25.3136 4.85375 24.9465 5.22847 24.6437C5.40813 24.7156 5.4723 24.8926 5.58266 25.0287C5.72895 25.3315 5.74435 25.6703 5.85985 26.0553C5.78542 25.5805 5.71099 25.1827 5.45946 24.8388C5.74179 23.9045 6.17296 24.423 6.58361 24.7207C6.67344 24.8208 6.74787 24.9311 6.80947 25.0492C7.36898 26.6764 7.44341 28.3934 7.74113 30.0694C7.6205 31.4245 7.70263 31.5067 9.03724 31.3475C10.9365 31.54 12.8383 31.7274 14.6837 32.251C16.0542 32.6411 17.4761 32.0764 18.8492 32.4948C19.1674 32.5923 19.5293 32.5436 19.8219 32.7463C20.1787 33.7704 19.3779 33.6728 18.8697 33.601C18.1896 33.506 17.5428 33.4752 16.8986 33.6677C16.7446 33.6164 16.8139 33.8833 16.7934 33.7139C16.7754 33.5445 16.529 33.5984 16.6804 33.678C16.8319 33.7575 16.5265 33.8217 16.6779 33.7678C17.0295 33.6395 17.3965 33.5958 17.7533 33.5034C17.9637 33.5086 18.1768 33.4804 18.3769 33.5548C18.6156 33.642 18.8723 33.7575 18.8184 34.063C18.7773 34.2914 18.5335 34.3401 18.3307 34.4017C17.9175 34.5301 17.494 34.3504 17.0808 34.4454C16.9653 34.4993 16.8627 34.5686 16.7728 34.661C16.5162 34.661 16.2595 34.661 16.0054 34.6584C15.5871 34.2144 15.1585 34.3966 14.7299 34.6404C14.64 34.6507 14.5528 34.6584 14.4629 34.6687C14.2114 34.6584 13.9599 34.6507 13.7084 34.6404C12.0375 34.1271 10.2692 34.0886 8.59066 33.5599C7.95929 33.3623 7.34588 33.1621 6.76071 32.8644C6.38342 32.4512 5.93684 32.1278 5.45433 31.8506C4.32248 30.6879 4.66126 29.0864 4.21725 27.721Z" fill="#B1763B"/>
<path d="M31.9071 33.3773C31.9097 33.4595 31.9071 33.539 31.902 33.6212C30.2825 34.3886 28.6091 35.0148 26.792 34.8916C25.8398 34.8274 24.903 35.5615 23.9611 34.9173C23.4144 34.599 22.8292 35.0148 22.2723 34.8326C21.7102 34.5477 21.3971 33.9163 20.7323 33.7598C20.4552 33.6956 20.0958 33.5724 20.1266 33.2182C20.16 32.8255 20.545 32.7434 20.8735 32.6484C23.2553 32.5766 25.6242 32.1967 28.0111 32.302C28.5193 32.7511 29.3688 32.6536 29.7025 33.4389C29.8565 33.8034 30.2928 33.5955 30.6162 33.5159C31.0396 33.4081 31.4349 32.9949 31.9071 33.3773Z" fill="#B1763B"/>
<path d="M22.1568 34.6472C22.7548 34.7627 23.4221 34.4142 23.9611 34.9173C21.5511 35.2227 19.1642 34.9295 16.7747 34.6601C16.7747 34.5728 16.7773 34.483 16.7773 34.3957C17.9502 34.0697 19.1975 34.5908 20.3551 34.0877C20.6707 34.0261 20.9839 33.9004 21.3098 34.0261C21.3534 34.5548 21.9206 34.3752 22.1568 34.6472Z" fill="#B47C42"/>
<path d="M14.7289 34.6376C15.522 33.9164 15.83 33.9215 16.0045 34.6556C15.581 34.6504 15.155 34.6453 14.7289 34.6376Z" fill="#B47C42"/>
<path d="M3.95789 22.3221C4.28384 23.436 4.39677 24.5524 3.94762 25.6638C3.62167 24.7552 3.69097 23.8056 3.67043 22.8662C3.80133 22.2656 3.44714 21.5932 3.94505 21.0491C4.22738 21.4726 4.09135 21.8986 3.95789 22.3221Z" fill="#B9834E"/>
<path d="M5.45433 31.8506C6.18836 31.7685 6.50928 32.4688 7.07392 32.7101C7.05082 32.7435 7.03799 32.7974 7.00719 32.8076C6.92763 32.8359 6.84284 32.8464 6.76071 32.8644C6.11907 32.7899 5.80595 32.2972 5.45433 31.8506Z" fill="#C0894F"/>
<path d="M15.5102 0.534299C17.4736 0.539432 19.4345 0.547132 21.3979 0.552265C21.8368 0.74989 22.3013 0.59333 22.7479 0.662627C23.1098 0.719091 23.7027 0.403405 23.7566 1.02708C23.8053 1.58145 23.2381 1.55836 22.8454 1.63792C20.3892 1.98954 17.9074 1.76368 15.4435 1.9536C15.0585 1.9844 14.6761 1.90741 14.3296 1.71492C13.8496 1.14771 14.5426 1.07328 14.7223 0.783255C15.0072 0.772989 15.3075 0.808921 15.5102 0.534299Z" fill="#B77E46"/>
<path d="M14.7223 0.783255C14.7633 1.18107 14.3677 1.28404 14.2086 1.54327C13.6619 2.04118 12.915 2.09764 12.3093 2.02578C10.6719 1.83329 9.24742 2.38253 7.80758 2.97541C7.08382 3.27569 6.49864 3.77874 5.92117 4.29462C5.66965 4.5641 5.42582 4.85156 5.00234 4.81563C4.87915 4.79253 4.77135 4.73863 4.67639 4.6565C4.63275 3.8352 5.31802 3.51438 5.79797 3.06524C6.13932 2.74698 6.5551 2.50829 6.87592 2.15924C7.07611 1.88719 7.40207 1.97702 7.66386 1.88719C7.44057 1.93082 7.21728 1.98728 7.02478 1.80249C9.52461 0.981191 12.1018 0.719091 14.7223 0.783255Z" fill="#BB8147"/>
<path d="M7.02525 1.80862C7.21004 1.84455 7.3974 1.88048 7.58219 1.91641C7.3974 2.04987 7.21004 2.18077 7.02525 2.31423C6.12439 2.85577 5.38522 3.61291 4.52286 4.20578C4.33037 4.15188 4.21231 4.02869 4.16867 3.83363C4.90014 2.8455 5.97296 2.34246 7.02525 1.80862Z" fill="#C89156"/>
<path d="M4.16764 3.83152C4.2703 3.93162 4.37296 4.02915 4.47562 4.12924C4.58342 4.53476 4.33446 4.79142 4.0932 5.05321C4.04187 5.07887 3.98798 5.1071 3.93408 5.13277C3.56449 5.13277 3.39254 5.94893 2.88436 5.38942C3.31297 4.86841 3.73902 4.34997 4.16764 3.83152Z" fill="#CFA36F"/>
<path d="M34.4796 19.5089C34.9416 19.8349 34.5976 20.3841 34.8697 20.8615C35.0057 20.4303 35.1469 20.071 35.2342 19.6989C35.5165 18.5003 35.9862 18.7467 36.538 19.5141C37.1103 20.628 36.7407 21.7547 36.5867 22.8763C36.5611 23.038 36.4122 23.2433 36.502 23.3408C36.5944 23.4409 36.4148 23.3767 36.5405 23.2458C36.9692 22.558 37.1873 22.8095 37.2438 23.4178C37.3233 24.2571 36.7818 25.0501 37.0333 25.9099C37.0744 26.3693 37.0307 26.8134 36.7818 27.2189C36.1735 28.5458 35.9194 30.0703 34.6439 31.0251C34.2306 31.3356 34.0535 32.1364 33.3811 31.8772C32.8396 31.6693 33.1321 30.9609 32.9294 30.5118C33.0372 27.9401 33.4632 25.3966 33.6224 22.8301C33.7045 22.037 33.9124 21.2619 33.8995 20.4509C33.8944 20.0607 33.897 19.5834 34.4796 19.5089Z" fill="#A26833"/>
<path d="M37.0326 25.9114C36.3371 24.99 37.4766 24.0532 36.9402 23.1113C36.8221 23.2653 36.6836 23.4449 36.5475 23.622C36.2575 23.4321 36.5398 23.0445 36.278 22.8469C36.5013 21.7458 36.5398 20.6294 36.5347 19.5129C37.3072 19.9621 37.3072 19.9621 36.9967 21.1684C37.3457 20.7603 37.0198 20.075 37.3021 19.5078C37.3098 19.1716 37.4561 18.9098 37.7718 18.5633C37.7974 18.9765 37.8128 19.2486 37.8308 19.5181C37.8667 21.6868 37.3817 23.7914 37.0326 25.9114Z" fill="#A8713C"/>
<path d="M33.2064 30.809C33.6196 31.0272 33.309 31.4147 33.463 31.8741C34.6052 30.8501 35.6857 29.9261 36.0501 28.399C36.1554 27.9601 36.0886 27.3288 36.7816 27.2235C36.6969 27.8164 36.6122 28.4118 36.5275 29.0047C35.5343 30.4163 34.4999 31.7894 33.1012 32.8366C32.96 32.9418 32.8317 33.0522 32.6802 32.8597C32.1592 31.9922 32.5724 31.3711 33.2064 30.809Z" fill="#AC7642"/>
<path d="M38.3338 14.8908C38.5751 14.4981 38.6136 14.0644 38.5956 13.6203C39.0422 14.0618 38.783 14.6059 38.8138 15.1064C38.6521 15.0345 38.4929 14.9626 38.3338 14.8908Z" fill="#8D5725"/>
<path d="M31.9067 33.3759C31.3856 33.5555 30.8775 33.7865 30.3411 33.902C29.8457 34.0098 29.1912 34.2331 29.2503 33.2835C29.2682 32.9883 29.1733 32.9601 28.8781 33.055C28.3058 33.2373 28.2955 33.2013 28.316 32.5879C28.0543 32.3338 28.2699 31.9925 28.1544 31.7076C28.139 31.5408 28.1723 31.3816 28.2519 31.2353C28.5547 30.9068 28.6548 30.4141 29.0988 30.2036C29.2195 30.1908 29.3273 30.2216 29.4248 30.2909C29.4992 30.3935 29.5788 30.5141 29.5634 30.6348C29.4684 31.4971 29.1373 32.4647 30.7286 31.8667C31.1521 31.7076 31.7475 32.3364 32.2531 32.6264C32.3276 32.8086 32.3096 32.9729 32.1633 33.1141C32.0786 33.1988 31.9939 33.286 31.9067 33.3759Z" fill="#A56C35"/>
<path d="M32.1663 33.1126C32.1689 32.9406 32.1714 32.7712 32.174 32.5993C31.9276 32.068 32.1406 31.547 32.2022 31.0208C32.387 30.179 32.4153 29.3115 32.6052 28.4722C32.8695 26.8373 32.9671 25.1793 33.2083 23.5393C33.2802 23.275 33.4034 23.0388 33.6036 22.8489C33.7242 22.7565 33.8448 22.7591 33.9655 22.8489C33.7114 25.5027 33.4573 28.1565 33.2032 30.8078C33.0928 31.5085 32.5385 32.0911 32.6745 32.8559C32.5077 32.9432 32.3357 33.0279 32.1663 33.1126Z" fill="#945B28"/>
<path d="M22.6758 1.294C22.9735 1.23497 23.3431 1.43003 23.5869 1.00141C22.9325 0.449603 22.0241 1.11177 21.3979 0.552265C22.3321 0.547132 23.2658 0.541099 24.2001 0.533399C24.2129 0.615529 24.2183 0.698559 24.2183 0.780688C24.3826 0.991146 24.5494 0.968047 24.7188 0.788388C26.1792 0.888484 27.6652 0.5112 29.1025 1.02708C28.7483 1.09638 28.7483 1.09637 28.3761 1.07071C28.7791 1.15797 29.1795 1.27347 29.5901 1.05018C29.6851 1.05018 29.7826 1.05274 29.8776 1.05274C30.2626 1.3633 30.7168 1.28887 31.1583 1.28117C31.3251 1.28887 31.4919 1.294 31.6588 1.3017C31.3072 2.0999 32.3235 1.86378 32.4262 2.31806C31.9668 2.76977 31.3996 2.64401 30.8503 2.61834C29.4695 2.36682 28.0707 2.24619 26.672 2.20769C25.6017 2.1769 24.5597 1.97157 23.4997 1.88944C23.1558 1.85864 22.7015 1.84068 22.6758 1.294Z" fill="#B1753C"/>
<path d="M31.16 1.28053C30.6339 1.76047 30.2207 1.60648 29.8793 1.0521C30.3131 1.09317 30.7904 0.887843 31.16 1.28053Z" fill="#BA8148"/>
<path d="M29.5891 1.04884C29.2067 1.44152 28.7601 1.29523 28.2878 1.21823C28.5291 0.912811 28.8397 1.09247 29.0989 1.02574C29.2631 1.03344 29.4274 1.04114 29.5891 1.04884Z" fill="#BA8148"/>
<path d="M24.7188 0.788388C24.706 1.06044 24.6208 1.3267 24.2974 1.2651C23.9637 1.2035 24.1927 0.955214 24.2183 0.780688C24.3851 0.785822 24.552 0.785822 24.7188 0.788388Z" fill="#C49260"/>
<path d="M38.5887 13.6103C38.4989 13.6899 38.4065 13.7695 38.3141 13.849C37.8342 13.4127 38.1781 13.0945 38.5015 12.8404C38.7812 12.6196 38.812 12.9045 38.8479 13.1022C38.7632 13.2716 38.676 13.4409 38.5887 13.6103Z" fill="#B37E47"/>
<path d="M37.2532 2.36393C36.6475 2.85158 36.2138 2.4435 35.7723 2.07904C36.3062 1.96612 36.7681 2.2279 37.2532 2.36393Z" fill="#C99257"/>
<path d="M38.5758 3.10374C38.5604 3.2526 38.5828 3.49846 38.3595 3.41377C38.126 3.3265 37.7853 3.17817 38.0882 2.80345C38.2499 2.90355 38.4115 3.00364 38.5758 3.10374Z" fill="#CDA174"/>
<path d="M24.1543 19.5544C25.2348 19.8727 26.3179 19.5904 27.3985 19.5827C28.0709 19.5775 28.8511 19.2285 29.3593 20.0164C29.462 20.3398 29.6057 20.6606 29.4928 21.0122C29.4004 22.2442 29.4209 23.4941 28.941 24.6645C28.7741 25.07 28.71 25.7424 28.1274 25.6064C27.6577 25.496 27.7809 24.8877 27.8579 24.4771C27.9836 23.8047 27.9759 23.1168 28.1222 22.3161C27.9451 22.7216 27.7886 23.0681 27.401 22.9089C26.9236 22.7139 26.7209 22.2545 26.6747 21.7771C26.5951 20.9404 27.4883 21.1919 27.8142 20.8172C26.9775 20.8403 26.1562 20.5888 25.299 20.5888C22.3244 20.5913 19.3472 20.481 16.3802 20.2602C15.4922 20.1935 14.5605 19.6263 13.9317 20.7813C13.8291 20.9712 13.5314 20.9275 13.3799 20.7325C12.6947 19.8419 11.591 20.1037 10.7287 19.7059C11.6937 20.1524 13.1053 19.7675 13.4877 21.3228C13.5416 21.5384 14.0729 21.9593 14.4604 21.7078C14.9789 21.3741 14.3218 21.1893 14.2577 20.9198C14.1371 20.4271 14.694 19.9369 15.3151 20.0318C15.6051 20.0754 15.849 20.3193 16.1646 20.2756C17.6122 20.078 18.8647 20.3526 19.6706 21.7155C19.5653 22.2468 19.1393 22.3725 18.7055 22.488C18.0177 22.488 17.3992 22.7806 16.7164 22.932C16.6369 23.2708 17.3119 23.3042 17.0219 23.6917C16.9218 23.7739 16.8114 23.838 16.6882 23.8688C14.9917 24.2872 14.9455 24.3513 14.8044 26.4046C14.3911 26.692 14.0934 26.3276 13.7572 26.2121C12.7896 25.881 11.8785 26.2583 11.5782 27.1283C11.3164 27.888 11.6911 28.6683 12.4662 28.9737C13.3414 29.3176 14.2654 28.9095 14.6221 27.9958C14.7274 27.7238 14.7274 27.4107 14.9532 27.1874C15.5102 27.1412 15.4922 27.598 15.6103 27.9394C15.6488 28.3783 15.5538 28.7992 15.4357 29.215C15.1996 29.8309 15.5795 30.6086 14.8069 31.1142C15.5384 31.3632 16.0337 31.4248 15.9593 30.529C15.9182 30.0491 16.139 29.8181 16.5984 29.7719C16.8679 29.7565 17.1168 29.8078 17.3273 29.9875C17.5711 31.6121 17.4043 31.8713 15.8336 32.3539C13.5493 32.1306 11.2882 31.7635 9.05784 31.2246C8.12618 30.9987 7.69756 30.2672 7.53844 29.3536C7.41268 28.64 7.20479 27.9394 7.32028 27.2028C7.42551 25.1598 7.16372 23.1322 7.03796 21.0995C6.91476 20.3629 6.9045 19.6186 6.93016 18.8743C7.39214 18.207 8.05431 18.2943 8.74215 18.3482C10.7543 18.5124 12.7511 18.8461 14.7736 18.9256C15.1149 18.9385 15.4511 18.9872 15.6693 19.3029C18.4489 19.5775 21.231 19.8368 24.0286 19.557C24.0671 19.5544 24.1107 19.5544 24.1543 19.5544Z" fill="#FBEBC1"/>
<path d="M33.4622 23.3675C33.4673 25.0948 33.1696 26.7913 32.9386 28.4955C32.4792 29.1243 31.9813 29.5298 31.2421 28.8112C31.2549 29.2834 31.2883 29.766 31.9094 29.8686C32.723 30.0046 32.6511 30.4974 32.4356 31.0698C32.4407 31.5959 32.4792 32.1298 32.1738 32.602C31.2934 32.5584 30.4542 32.1734 29.5276 32.3813C29.0913 32.4788 28.8372 32.1092 29.0708 31.6447C29.289 31.2135 29.3865 30.7695 29.348 30.2921C29.194 30.1201 29.212 29.9507 29.3531 29.7814C29.9896 28.9472 29.6739 27.7692 30.3772 26.9581C30.7776 26.6964 30.9547 26.3037 31.0496 25.7621C31.0753 25.6877 30.8161 25.8879 30.9855 25.8622C31.0342 25.8545 31.0548 25.9033 31.0009 25.9726C30.8058 26.2267 30.9418 26.7682 30.3746 26.6989C29.8305 25.4208 30.1565 24.1529 30.4131 22.672C30.603 24.253 31.1369 22.9107 31.4808 23.0262C32.0531 23.4753 30.8494 23.886 31.4089 24.2222C31.9376 24.5404 31.8427 23.7525 32.1609 23.6191C32.4818 23.5575 32.1943 23.1776 32.4433 23.0775C32.5485 23.039 32.6511 23.0441 32.7538 23.0878C32.9232 23.3496 33.4545 22.7182 33.4622 23.3675Z" fill="#AD6F34"/>
<path d="M15.6636 19.2985C13.2331 19.2959 10.8385 18.8698 8.42596 18.6517C7.91008 18.6055 7.40703 18.4284 7.09391 19.0238C6.91169 20.2045 7.08108 21.3697 7.27614 22.5298C7.28384 22.8095 7.28127 23.0893 7.28127 23.369C7.24791 23.9285 7.3634 24.4957 7.17348 25.045C6.86806 25.4017 6.69866 25.1399 6.52414 24.9038L6.50618 24.9012C6.13659 24.3623 6.13915 23.7514 6.15455 23.1355C6.28545 22.0729 5.844 21.0514 5.92613 19.994C6.01853 18.7749 6.45997 18.2795 7.5097 18.2128C7.88955 18.1101 8.1154 17.6764 8.56199 17.7175C10.1532 18.1563 11.8061 18.3334 13.4282 18.4335C14.9938 18.5311 16.5157 18.8185 18.0582 19.0007C17.3114 19.5217 16.449 19.1085 15.6636 19.2985Z" fill="#9B6732"/>
<path d="M18.0582 19.0007C15.1503 18.8775 12.2552 18.6358 9.37297 18.2277C9.00595 18.1764 8.72362 18.0583 8.5645 17.717C11.1593 17.5219 13.6694 18.5357 16.2693 18.2637C17.0393 19.4109 18.2353 18.0712 19.0874 18.7436L19.0899 18.741C18.7666 18.9181 18.4304 19.0367 18.0582 19.0007Z" fill="#AF743A"/>
<path d="M7.50982 18.214C6.05972 18.6914 6.14698 19.89 6.32664 21.0039C6.44214 21.7122 6.51143 22.4026 6.48834 23.1136C6.38824 23.1829 6.28558 23.1829 6.18548 23.111C6.00326 22.8877 5.98016 22.5977 5.85697 22.3513C5.35135 22.0459 5.1101 21.6327 5.31029 21.0347C5.50021 20.5059 5.8467 19.9978 5.50534 19.4049C4.65068 18.8069 4.29393 17.9471 4.20153 16.9461C4.83804 16.9846 5.44375 17.1361 6.00839 17.4363C5.99299 17.6263 6.10079 17.7007 6.27275 17.7058C6.74499 17.7341 7.2737 17.616 7.50982 18.214Z" fill="#B2773C"/>
<path d="M31.6603 19.7691C31.6911 19.6177 31.858 19.4098 31.6629 19.3276C31.2677 19.1634 31.0854 19.4996 31.0649 19.7819C31.029 20.2696 31.2753 20.8162 30.5054 21.1525C30.354 20.3876 30.0511 19.6818 29.3479 19.2583C29.6841 18.8503 30.3873 19.053 30.6311 18.4884C30.8801 18.4884 31.1316 18.4601 31.378 18.4909C31.8503 18.5525 32.4868 18.2292 32.7614 18.7065C33.0257 19.1711 32.0813 19.2532 32.1557 19.7896C31.9837 19.9231 31.8195 19.9205 31.6603 19.7691Z" fill="#A96F36"/>
<path d="M29.0796 30.2912C28.8152 30.6351 28.9949 31.2896 28.3379 31.364C28.0838 31.1613 28.0247 30.8738 27.9914 30.5735C27.9503 29.9139 27.9914 29.2646 28.2737 28.6512C28.5971 27.7734 28.6715 26.8546 28.7408 25.9332C28.7819 25.3942 28.7382 24.8296 29.1771 24.4009C29.2977 24.3137 29.4338 24.288 29.5775 24.3188C29.7546 24.4882 29.7315 24.6935 29.6879 24.904C29.4184 25.4276 29.4748 25.9922 29.4748 26.5492C29.4158 27.1112 29.6032 27.6887 29.3465 28.2354C29.3388 28.3663 29.3285 28.4997 29.3208 28.6306C29.0616 29.1619 29.4055 29.7753 29.0796 30.2912Z" fill="#F7EAC5"/>
<path d="M4.2012 16.9487C4.58618 17.8034 4.96347 18.6632 5.74113 19.256C5.73343 19.4793 5.6821 19.6872 5.51784 19.8515C5.22526 20.103 5.29199 20.4495 5.27402 20.778C5.05843 21.6224 5.45624 22.436 5.39978 23.2753C5.27145 23.5935 5.18163 23.9503 4.71195 23.8784C4.70425 22.5027 4.80434 21.1219 4.45272 19.7668C4.23457 19.256 4.48352 18.7427 4.45529 18.232C3.98048 17.9343 3.49026 17.6442 3.68789 16.9461C3.86241 16.9461 4.03181 16.9461 4.2012 16.9487Z" fill="#AC7038"/>
<path d="M32.1765 22.5998C32.5204 21.4269 33.1313 20.4079 33.9603 19.5148C34.2683 20.4182 34.0552 21.2985 33.8448 22.1789C33.66 22.7384 33.3777 23.1747 32.6898 23.108L32.6847 23.1054C32.4973 22.954 32.351 22.7615 32.1765 22.5998Z" fill="#AD6F34"/>
<path d="M30.6311 18.4862C30.8057 19.7489 29.8124 19.0585 29.3479 19.2561C28.1518 18.9482 26.9584 18.7865 25.7624 19.2536L25.7598 19.251C25.4364 18.8121 24.8846 19.1175 24.4406 18.9045C26.5169 18.2629 28.5984 18.7582 30.6311 18.4862Z" fill="#B57A3E"/>
<path d="M33.7065 22.3343C33.7168 21.3873 34.1223 20.4761 33.9606 19.5162C33.9144 18.813 34.0145 18.1303 34.225 17.4604C35.0155 18.0559 34.2121 18.8489 34.4765 19.5085C33.9427 20.566 34.4123 21.7774 33.9658 22.8476C33.8811 22.8476 33.7964 22.8476 33.7117 22.8476C33.5654 22.6782 33.5679 22.5063 33.7065 22.3343Z" fill="#915A29"/>
<path d="M29.5796 24.3885C29.5026 24.3885 29.4282 24.3885 29.3512 24.3859C29.0406 23.1925 29.2126 21.9965 29.3435 20.8004C29.4333 20.5412 29.0458 20.2743 29.3563 20.0176C30.3111 20.8826 29.5463 22.0221 29.8337 22.9948C29.5899 23.4312 29.9107 23.9676 29.5796 24.3885Z" fill="#FEF3D5"/>
<path d="M19.0848 18.7447C20.3064 18.3109 21.5025 18.4008 22.6805 18.8627C21.4794 18.855 20.2577 19.2939 19.0848 18.7447Z" fill="#B27539"/>
<path d="M24.1543 19.5544L24.0869 19.583L24.0228 19.5548C23.2605 19.5548 22.4982 19.5548 21.736 19.5548C21.736 19.4547 21.7334 19.352 21.7334 19.2519C23.0757 19.2519 24.418 19.2519 25.7603 19.2519L25.7629 19.2545C25.2906 19.6985 24.6779 19.385 24.1543 19.5544Z" fill="#8D5821"/>
<path d="M30.3779 26.6982C30.9733 26.3312 30.7141 25.5227 31.2967 25.1378C31.1068 25.7974 31.3121 26.6289 30.3779 26.9549C30.3779 26.8702 30.3779 26.7829 30.3779 26.6982Z" fill="#BB834A"/>
<path d="M29.5796 24.3885C29.6643 23.9239 29.7481 23.4623 29.8328 22.9977C29.784 23.8062 30.0946 24.6506 29.6198 25.4231C29.4529 25.2742 29.4735 25.1023 29.5556 24.9201C29.5659 24.743 29.5719 24.5656 29.5796 24.3885Z" fill="#9F6D3A"/>
<path d="M32.1765 22.5998C32.5127 22.5998 32.677 22.7751 32.6821 23.1062C32.4408 23.2525 32.4408 23.4963 32.4203 23.7375C32.41 23.8505 32.3587 23.9685 32.2227 23.8453C32.1739 23.7991 32.1816 23.6965 32.1637 23.6195C32.1688 23.2781 32.1739 22.9386 32.1765 22.5998Z" fill="#B77E47"/>
<path d="M29.3464 28.2419C29.3593 27.6722 29.3721 27.1024 29.3849 26.5352C29.4055 26.4377 29.4671 26.3786 29.5646 26.3607C29.5415 26.992 29.8367 27.6619 29.3464 28.2419Z" fill="#9F6D3A"/>
<path d="M29.5634 26.3605C29.5043 26.4195 29.4453 26.4785 29.3837 26.535C29.3991 25.9934 29.1707 25.4237 29.5582 24.9206C29.5788 25.0874 29.5993 25.2543 29.6224 25.4237C29.6019 25.7342 29.5813 26.0473 29.5634 26.3605Z" fill="#F9E8BC"/>
<path d="M29.0796 30.2912C29.1027 29.7317 29.0665 29.1637 29.3205 28.635C29.3334 29.0148 29.3437 29.3947 29.3539 29.7745C29.3513 29.9439 29.3514 30.1159 29.3488 30.2853C29.259 30.2904 29.1694 30.2912 29.0796 30.2912Z" fill="#9F6D3A"/>
<path d="M31.6603 19.7691C31.8246 19.7768 31.9914 19.7819 32.1557 19.7896C32.13 20.0437 32.1253 20.3286 31.784 20.3311C31.7429 20.3311 31.7014 19.9667 31.6603 19.7691Z" fill="#B4895A"/>
<path d="M6.27246 17.7099C6.09793 17.9537 5.85668 18.0076 5.70525 17.751C5.53072 17.4533 5.84898 17.4918 6.0081 17.4404C6.09537 17.5277 6.1852 17.6175 6.27246 17.7099Z" fill="#C8915A"/>
<path d="M24.01 18.6707C23.8098 18.8324 23.7354 18.9402 23.6455 18.953C23.5403 18.9684 23.3914 18.9351 23.3221 18.8632C23.2246 18.7605 23.2503 18.6322 23.4351 18.6348C23.5814 18.6348 23.7251 18.6502 24.01 18.6707Z" fill="#B27539"/>
<path d="M30.889 2.31434C31.4023 2.31691 31.9156 2.31948 32.4289 2.31948C34.1434 2.4709 35.7911 2.78916 37.0436 4.1212L37.041 4.11607C37.3208 4.69867 37.3696 5.29925 37.2053 5.92035C36.8614 7.44489 35.9785 8.59984 34.7312 9.5007C32.7523 10.6762 30.5862 11.0663 28.3199 11.0329C28.2403 10.8995 28.2609 10.7814 28.3764 10.6788C29.2746 10.2065 30.291 10.2861 31.2432 10.0807C31.9875 9.88825 32.7241 9.66753 33.435 9.36724C33.5762 9.27485 33.7174 9.17988 33.8483 9.07465C34.1049 8.85136 34.3641 8.63321 34.6439 8.43815C35.4678 7.84784 35.8604 6.98034 36.1736 6.06152C36.2146 5.79203 36.2377 5.52254 36.2095 5.25305C36.1864 5.03489 36.1017 4.84497 35.9477 4.68841C34.8364 3.90304 33.3786 4.04934 32.2519 3.31017C31.9721 3.04068 31.6513 2.89695 31.2535 3.00988C31.0712 3.00731 30.9147 2.95342 30.7966 2.80712C30.7299 2.62233 30.7376 2.4555 30.889 2.31434Z" fill="#9E632F"/>
<path d="M28.3262 10.7818C28.3262 10.8639 28.3236 10.9486 28.3211 11.0307C25.0102 11.0333 21.6891 11.1924 18.3911 10.9768C16.3198 10.8434 14.1691 11.0846 12.1646 10.2685C12.2672 10.1504 12.3904 10.0657 12.5367 10.0118C14.3385 9.66019 16.1145 10.2377 17.9085 10.1684C18.0548 10.1632 18.2011 10.1658 18.3474 10.1684C19.9259 10.1324 21.5017 10.1684 23.0725 10.3326C23.999 10.461 24.9281 10.5149 25.8572 10.3352C26.1061 10.2787 26.3551 10.2633 26.6066 10.3044C26.9942 10.3942 27.3766 10.5174 27.7847 10.4379C27.895 10.4199 28.0079 10.4148 28.1183 10.425C28.2826 10.4918 28.416 10.5713 28.3262 10.7818Z" fill="#9B5E27"/>
<path d="M12.4087 10.2734C12.3265 10.2734 12.2444 10.2734 12.1623 10.2708C10.2502 10.3427 8.3843 9.92177 6.49274 9.77804C6.0128 9.95257 5.61241 9.77804 5.23256 9.49828C3.52067 8.57689 3.42571 8.21244 4.21621 5.67925C4.2547 5.35586 4.44206 5.1608 4.74235 5.06584C5.17866 5.30196 5.59702 5.55605 5.59958 6.14123C5.52259 6.29522 5.64321 6.113 5.56108 6.26442C4.41383 8.38183 4.58066 8.68982 7.03942 9.10047C7.79912 9.2288 8.57679 9.10047 9.33136 9.28526C9.75484 9.41102 10.1963 9.43925 10.6223 9.53678C11.1664 9.75751 11.8004 9.57785 12.3188 9.91663C12.4266 10.0167 12.4574 10.1348 12.4087 10.2734Z" fill="#985F2B"/>
<path d="M28.5013 11.5229C26.4172 11.5229 24.3357 11.5229 22.2517 11.5229C22.2517 11.4793 22.2491 11.4382 22.2491 11.3946C24.3486 11.3946 26.4454 11.3946 28.5449 11.3946C28.5295 11.4382 28.5141 11.4818 28.5013 11.5229Z" fill="#BF8347"/>
<path d="M34.7309 9.50189C35.6856 8.51633 36.4787 7.42041 37.0382 6.1628C37.1306 6.04217 37.2178 6.05243 37.3 6.17306C37.2204 7.65653 35.9885 8.4342 35.2544 9.51729C35.0799 9.53012 34.8977 9.80474 34.7309 9.50189Z" fill="#C69462"/>
<path d="M5.23375 9.50024C5.65466 9.59263 6.07301 9.68503 6.49393 9.77999C5.98575 10.242 5.4519 10.052 5.00532 9.73379C4.78973 9.5798 5.11312 9.549 5.23375 9.50024Z" fill="#C1864D"/>
<path d="M4.73515 5.15743C4.56319 5.33196 4.38866 5.50648 4.2167 5.68101C3.98571 5.56808 3.95235 5.35506 3.93438 5.13177V5.13947C4.18334 4.95468 4.22697 4.45163 4.71461 4.62872C4.81471 4.63129 4.91224 4.63642 5.01234 4.63899C5.09703 4.90848 4.93021 5.03937 4.73515 5.15743Z" fill="#C18E57"/>
<path d="M29.1119 12.0632C28.8219 12.4559 28.4549 12.2531 27.9493 12.3737C28.3804 11.9143 28.768 12.0966 29.1119 12.0632Z" fill="#C88E51"/>
<path d="M20.1063 16.1751C18.9154 16.1238 17.7219 16.075 16.5311 16.0186C16.3206 16.0083 16.2847 15.8415 16.2718 15.6695C17.6347 15.8004 19.0334 15.3744 20.3706 15.9262C20.4271 16.1623 20.3527 16.2573 20.1063 16.1751Z" fill="#9D622B"/>
<path d="M13.9718 14.8842C14.1386 14.8021 14.3029 14.7225 14.4697 14.6404C14.367 15.4899 15.2397 15.0356 15.4937 15.4078C15.6606 15.5823 15.8582 15.726 16.0045 15.9185C15.5784 17.0375 15.137 15.5566 14.7058 15.9262C14.0282 15.8851 13.9846 15.3949 13.9718 14.8842Z" fill="#9D622B"/>
<path d="M23.3991 15.8903C22.9577 16.3343 22.9192 17.1402 22.0517 16.9247C21.9747 16.9041 21.8694 16.6937 21.872 16.6937C22.3032 16.3497 22.6086 15.7723 23.3991 15.8903Z" fill="#AE7339"/>
<path d="M27.7623 16.9002C27.1976 16.9002 26.6304 16.9002 26.0658 16.9002C26.0632 16.8565 26.0632 16.8155 26.0606 16.7718C26.6253 16.7718 27.1925 16.7718 27.7571 16.7718C27.7571 16.8155 27.7597 16.8565 27.7623 16.9002Z" fill="#AB7036"/>
<path d="M20.1063 16.1751C20.1935 16.093 20.2805 16.0082 20.3678 15.9261C20.5346 15.9441 20.7938 15.9903 20.7502 16.1545C20.6373 16.5857 20.2318 16.6447 19.8519 16.6961C19.9392 16.5215 20.0241 16.3471 20.1063 16.1751Z" fill="#B87F43"/>
<path d="M16.0054 15.9215C15.6718 15.9138 15.4921 15.7521 15.4947 15.4108C15.777 15.4159 16.0824 15.3543 16.2621 15.6649C16.1774 15.7496 16.0901 15.8343 16.0054 15.9215Z" fill="#B47C44"/>
<path d="M13.9718 14.8842C14.1437 15.282 14.2641 15.7184 14.7056 15.9288C13.8997 15.9519 13.6867 15.608 13.9253 14.6661C13.9433 14.7405 13.9589 14.8123 13.9718 14.8842Z" fill="#BB8148"/>
<path d="M5.22054 23.3603C4.90999 22.4363 4.95875 21.4816 4.98185 20.5294C5.15125 20.3857 5.3309 20.3882 5.51826 20.4935C5.62092 20.6783 5.63119 20.8605 5.4926 21.035C5.27187 21.728 5.80315 21.8717 6.2523 22.077C6.10857 22.4209 5.65172 22.7674 6.27026 23.0985C6.34213 23.1011 6.41399 23.1062 6.48586 23.1113C6.49099 23.7068 6.49869 24.3048 6.50382 24.9002C6.16247 24.7924 5.82112 24.1174 5.47977 24.9002C5.39507 24.8155 5.30781 24.7308 5.22311 24.6436C5.22311 24.5589 5.22311 24.4716 5.22311 24.3869C5.00495 24.0456 5.04088 23.7042 5.22054 23.3603Z" fill="#B77F46"/>
<path d="M3.95726 22.3233C3.95213 21.8998 3.94956 21.4763 3.94443 21.0503C3.94956 20.9245 3.9239 20.7885 3.96753 20.6781C4.09586 20.3496 4.14205 20.5652 4.21392 20.7218C4.48854 21.3172 4.34738 21.8408 3.95726 22.3233Z" fill="#AC7038"/>
<path d="M4.45794 18.2319C4.77362 18.7452 4.78646 19.2559 4.45537 19.7667C4.37324 19.7692 4.29111 19.7692 4.20642 19.7718C4.01649 19.433 4.00879 19.0917 4.18845 18.7452C4.20128 18.5347 4.25005 18.3422 4.45794 18.2319Z" fill="#B88149"/>
<path d="M4.18804 18.7437C4.19317 19.085 4.20087 19.4264 4.206 19.7703C3.86721 19.5239 3.90058 19.0979 3.73632 18.7668C3.69269 18.6769 3.60029 18.4023 3.90828 18.4973C4.01607 18.5281 4.09564 18.659 4.18804 18.7437Z" fill="#AC7038"/>
<path d="M5.22054 23.3603C5.22311 23.7017 5.22515 24.0458 5.22771 24.3872C4.98389 24.2897 4.81193 24.1177 4.7144 23.8739C4.8838 23.7019 5.05115 23.5323 5.22054 23.3603Z" fill="#B1763B"/>
<path d="M37.3026 19.5105C37.2667 20.1316 37.4463 20.7886 36.9073 21.4354C36.7354 20.745 37.4843 19.9262 36.5347 19.5129C36.5783 18.8148 36.6225 18.1168 36.6763 17.2776C37.7415 17.9218 36.5532 18.9638 37.3026 19.5105Z" fill="#A26833"/>
<path d="M3.4366 14.1253C3.17737 14.2819 2.92072 14.2921 2.66149 14.1279C2.69486 13.9354 2.70256 13.5838 2.76159 13.5761C3.14914 13.5145 3.2672 13.8635 3.4366 14.1253Z" fill="#B8804B"/>
<path d="M29.6022 14.8907C30.1488 14.4134 30.8007 14.7316 31.4013 14.6469C30.8546 15.1217 30.2002 14.8009 29.6022 14.8907Z" fill="#A56930"/>
<path d="M38.3311 5.14298C39.0625 5.39707 39.0625 6.02588 38.3285 6.68292C38.2643 6.62645 38.2438 6.56999 38.2643 6.51353C38.2849 6.45706 38.3054 6.42883 38.3285 6.42883C38.8213 6.00021 38.5107 5.56903 38.3311 5.14298Z" fill="#B1743A"/>
<path d="M38.3285 6.42883C38.3259 6.51353 38.3283 6.60069 38.3283 6.68539C38.295 6.99337 38.413 7.36039 37.9433 7.56315C37.7303 7.04984 38.0154 6.73425 38.3285 6.42883Z" fill="#C5925C"/>
<path d="M37.3027 6.17306C37.2154 6.17049 37.1282 6.16536 37.0409 6.16279C37.0409 5.48009 37.0435 4.79995 37.0435 4.11725C37.698 4.73065 37.6954 5.42619 37.3027 6.17306Z" fill="#B77D43"/>
<path d="M6.52414 24.9038C6.70123 24.9885 6.8812 25.0729 7.05829 25.1576C7.14812 25.2448 7.21229 25.3475 7.25848 25.463C7.32521 26.0507 7.6563 26.5974 7.52284 27.2159C7.58187 27.8524 7.64603 28.4864 7.69993 29.1229C7.78976 30.1521 8.38007 30.7655 9.33996 31.0093C11.5318 31.5688 13.7467 31.9923 16.0156 32.0616C16.4519 31.8896 16.9216 31.982 17.3682 31.8922C20.4249 31.9795 23.4843 32.0975 26.5333 31.7279C27.1057 31.7433 27.6883 31.4328 28.2504 31.7844C28.6533 32.018 28.2581 32.3234 28.3222 32.5877C25.7557 32.539 23.2071 33.0549 20.6354 32.8649C20.3736 33.0241 20.1144 33.042 19.8526 32.8624C16.1234 32.9034 12.4866 32.1258 8.82665 31.5714C8.77532 31.5611 8.72142 31.5509 8.67009 31.5406C8.33387 31.3686 8.04642 31.1248 7.73586 30.9169C7.57417 30.7552 7.46381 30.5756 7.52027 30.3343C7.18405 28.5249 6.85522 26.7132 6.52414 24.9038Z" fill="#9C6730"/>
<path d="M19.8497 32.8637C20.1115 32.8637 20.3707 32.8662 20.6325 32.8662C20.4195 33.0998 20.0422 33.4257 20.6993 33.4771C21.4975 33.5387 21.8847 33.9928 22.1568 34.6472C21.895 34.4881 21.1612 35.0452 21.3948 34.1418C20.9662 33.9262 20.5299 34.0571 20.2398 34.052C20.3759 34.0109 20.671 33.8877 20.6223 34.3959C19.3416 35.0093 18.058 34.2905 16.7773 34.3957C17.2983 33.8696 17.9941 34.324 18.5818 34.0623C18.3714 33.5977 17.9402 33.6542 17.5424 33.6311C17.2857 33.803 17.0317 33.8159 16.7827 33.6157C17.3807 33.0741 18.1096 33.4129 18.7743 33.3385C19.1978 33.2872 19.7342 33.5849 19.8497 32.8637Z" fill="#A66C33"/>
<path d="M5.48458 24.9006C6.10826 25.4062 6.5112 25.9632 5.96966 26.8332C5.28439 26.2506 5.54618 25.5371 5.48458 24.9006Z" fill="#B77F46"/>
<path d="M6.87547 31.1461C6.10293 31.0024 5.76159 30.4557 5.47156 29.6036C6.26976 29.9706 6.50332 30.6199 6.87547 31.1461Z" fill="#C18C52"/>
<path d="M7.51462 30.335C7.61215 30.489 7.70712 30.6405 7.80465 30.7945C8.146 31.0511 8.45912 31.3437 8.821 31.5721C8.40265 32.0341 7.992 31.8596 7.63525 31.5157C7.28363 31.1794 7.07831 30.7765 7.51462 30.335Z" fill="#CA975E"/>
<path d="M13.0841 33.3402C12.6709 33.4121 12.6992 34.0896 12.173 33.9613C12.1114 33.9459 12.037 33.738 12.0626 33.6456C12.2089 33.1554 12.5323 33.0065 13.0841 33.3402Z" fill="#BD844A"/>
<path d="M16.7824 33.6107C17.0365 33.6158 17.288 33.6209 17.5421 33.6261C17.0416 34.0906 16.4898 33.8288 15.879 33.8545C16.1587 33.2437 16.5155 33.7262 16.7824 33.6107Z" fill="#C58C52"/>
<path d="M6.06545 28.1423C6.11935 28.3169 6.07828 28.4323 5.92686 28.4041C5.8242 28.3836 5.69843 28.2861 5.6625 28.1937C5.63427 28.1192 5.701 27.937 5.76773 27.9088C6.01156 27.8087 5.98332 28.073 6.06545 28.1423Z" fill="#BF8B55"/>
<path d="M25.9122 34.23C25.6094 34.0888 25.5093 34.0426 25.4092 33.9964C25.5144 33.8886 25.5991 33.7475 25.7275 33.6859C25.8583 33.6217 26.0714 33.614 26.0714 33.8347C26.0688 33.981 25.9559 34.1299 25.9122 34.23Z" fill="#C08D59"/>
<path d="M20.6223 34.3959C20.4452 34.2496 20.2658 34.1038 20.0348 33.9164C20.5507 33.919 21.0226 33.7209 21.3948 34.1418C21.1356 34.2265 20.8789 34.3112 20.6223 34.3959Z" fill="#B1763B"/>
<path d="M30.8878 2.31324C30.8878 2.48777 30.8878 2.66229 30.8878 2.83938C30.5003 3.21667 30.0306 3.15764 29.5584 3.08834C26.7737 2.85992 23.9864 2.66229 21.1914 2.67769C21.0528 2.68026 20.9116 2.67769 20.773 2.67513C19.2049 2.67513 17.6393 2.4236 16.066 2.60326C15.3833 2.68539 14.698 2.68539 14.0127 2.67769C13.407 2.68026 12.7987 2.60583 12.2084 2.80602C11.3127 2.99851 10.4195 3.2141 9.51612 3.37066C8.96944 3.38093 8.46126 3.59395 7.93512 3.69918C7.36278 3.61449 7.58607 3.1525 7.52447 2.82655C9.55205 1.35592 11.9397 1.75886 14.2086 1.54327C17.0344 1.5561 19.8593 1.57921 22.6749 1.29432C23.8401 1.6562 25.0412 1.75373 26.2552 1.8102C27.808 1.88206 29.3659 1.95649 30.8878 2.31324Z" fill="#9E632C"/>
<path d="M7.52529 2.82578C8.29783 2.84632 7.35333 3.46229 7.79221 3.59832C7.85124 3.66248 7.87434 3.73178 7.86921 3.80621C7.86151 3.88064 7.84868 3.91914 7.83328 3.91914C7.49963 4.25022 7.15314 4.56334 6.72196 4.7661C6.31644 4.67114 5.57984 5.07409 5.74153 4.11933C6.24714 3.56239 6.79126 3.06447 7.52529 2.82578Z" fill="#945C2C"/>
<path d="M5.74449 4.1201C5.83945 4.77714 6.42976 4.44349 6.76084 4.62571C6.69411 5.40851 6.25524 5.8243 5.48783 5.91669C5.05922 5.83969 4.9918 5.40382 4.73515 5.15743C4.82754 4.98547 4.92063 4.81051 5.01046 4.63855C5.39031 4.65395 5.48014 4.26383 5.74449 4.1201Z" fill="#A16531"/>
<path d="M4.71461 4.62872C4.45539 4.79812 4.19617 4.97008 3.93438 5.13947C3.89845 4.68519 4.2857 4.4629 4.47562 4.12924C5.22506 3.38494 5.97684 2.64257 7.024 2.31149C6.41572 3.24828 5.23306 3.60723 4.71461 4.62872Z" fill="#B1773D"/>
<path d="M36.2784 22.8491C36.5838 23.0339 36.5222 23.3445 36.5453 23.6242C36.512 23.8527 36.6095 24.2145 36.3066 24.2351C35.9499 24.2607 36.0269 23.9014 36.0602 23.6781C36.1039 23.3984 36.204 23.1263 36.2784 22.8491Z" fill="#B07C4C"/>
<path d="M34.7249 28.3759C34.6992 28.5812 34.6428 28.7788 34.4066 28.8122C34.3733 28.8173 34.2527 28.6248 34.2732 28.5555C34.3143 28.4169 34.4015 28.2578 34.5196 28.1859C34.6479 28.1089 34.7146 28.245 34.7249 28.3759Z" fill="#AF8156"/>
<path d="M28.2443 31.7848C27.749 31.8464 27.3024 32.1749 26.7737 32.0671C26.2091 31.6795 25.4648 32.3237 24.9335 31.7437C25.1311 30.7017 26.0782 30.7248 26.7968 30.4245C27.2947 30.5631 27.8645 29.8598 28.3188 30.5477C28.3239 30.8197 28.329 31.0918 28.3316 31.3638C28.3059 31.5024 28.2751 31.6436 28.2443 31.7848Z" fill="#F2DEAB"/>
<path d="M32.4367 31.0668C32.3033 30.7742 32.8217 30.1351 31.8079 30.3199C31.002 30.4662 30.9969 29.4011 30.7993 28.8005C30.6992 28.4951 31.061 28.2307 31.3203 28.1922C31.7258 28.1306 31.5641 28.5747 31.6514 28.6979C32.1056 29.3498 32.4855 28.5387 32.9398 28.4951C32.6728 29.3318 32.8422 30.2558 32.4367 31.0668Z" fill="#A46932"/>
<path d="M33.7065 22.3343C33.7091 22.5063 33.7117 22.6788 33.7142 22.8482C33.7065 23.056 33.6629 23.2485 33.4627 23.3666C33.2266 23.2177 32.5773 24.3034 32.6876 23.1074C33.1162 22.9662 33.4037 22.6397 33.7065 22.3343Z" fill="#A26833"/>
<path d="M29.3452 20.801C29.3477 21.997 29.3503 23.1905 29.3529 24.3865C28.8857 25.5748 29.186 26.8709 28.8447 28.0823C28.778 28.321 28.8113 28.5854 28.5803 28.7522C27.3278 27.2456 27.197 25.1796 26.0343 23.6242C25.8187 23.3342 26.0446 22.9595 26.0343 22.6258C25.9984 21.476 25.4286 21.0525 24.2865 21.3092C23.1033 21.5761 22.1023 22.4975 20.7857 22.2793C20.3417 22.2665 19.9182 22.1972 19.5999 21.8405C19.4177 21.3169 17.675 22.1022 18.7581 20.452C17.1977 20.452 15.7937 20.452 14.3128 20.452C14.5182 21.1603 15.111 21.0885 15.3215 21.4632C15.2702 21.7147 15.0546 21.7814 14.8698 21.8815C14.4925 22.0843 14.1204 22.9158 13.7482 21.8276C13.6353 21.494 12.5599 21.9329 12.9423 20.9755C13.1784 20.3878 12.5778 20.4879 12.3417 20.4135C11.5846 20.1722 10.7838 20.0567 10.1088 19.5691C11.2458 19.7205 12.4855 19.4638 13.4017 20.4622C13.5429 20.6162 13.684 20.8446 13.856 20.4982C14.282 19.6358 14.993 19.8462 15.7527 19.877C18.0395 19.9694 20.3032 20.4135 22.6182 20.1927C23.9965 20.0593 25.4825 20.0002 26.776 20.3878C27.5948 20.6342 28.0362 19.9643 28.7703 20.0798C28.5701 20.6675 28.2287 20.9473 27.8232 21.1783C26.812 21.7532 26.8145 21.7558 27.5101 22.7311C27.795 22.6874 27.7975 22.4667 27.8078 22.2537C27.8258 21.9072 27.8617 21.3939 28.2415 21.4606C28.8755 21.5735 28.3827 22.0484 28.357 22.3692C28.2749 23.3778 28.1902 24.389 28.0773 25.7801C28.7805 24.4532 29.05 23.3984 29.1039 22.2639C29.1244 21.7712 28.9037 21.2271 29.3452 20.801Z" fill="#F9E8BC"/>
<path d="M19.6006 21.8377C20.0292 21.9147 20.4604 21.9917 20.889 22.0687C20.9685 22.1585 21.0122 22.2637 21.0199 22.3844C21.0019 22.4999 20.948 22.5974 20.8633 22.677C20.3962 22.8874 19.8906 22.5358 19.426 22.777C19.2284 22.8643 19.0539 22.9798 18.9127 23.1441C18.3815 24.1219 19.0975 24.4684 19.7828 24.6891C20.7298 24.9971 21.025 24.2913 21.2406 23.5573C21.3664 23.3237 21.4844 23.0799 21.795 23.0517C22.5316 23.7061 22.1723 24.3837 21.7693 24.9869C21.2509 25.7594 20.4655 26.052 19.539 25.939C19.1489 25.8903 18.8075 25.7158 18.4841 25.5053C18.266 25.3872 18.0581 25.2486 17.8476 25.1152C17.7039 25.0253 17.5704 24.9176 17.4421 24.8072C17.206 24.5916 16.939 24.4427 16.608 24.4376C16.1819 24.4299 15.761 24.4299 15.4735 24.8226C15.1117 25.3564 15.5428 25.821 15.6019 26.3138C15.5993 26.5653 15.4966 26.7732 15.3349 26.9605C15.2374 27.035 15.1245 27.0606 15.0039 27.0401C14.7754 26.9169 14.6266 26.7552 14.7369 26.4729C14.1389 24.4402 14.8088 23.5983 17.0263 23.5932C17.9426 23.6497 17.7706 22.4075 18.5585 22.3074C18.905 22.1534 19.2515 21.9942 19.6006 21.8377Z" fill="#D19D4C"/>
<path d="M14.7369 26.4729C14.8165 26.632 14.8986 26.7896 14.9782 26.9487C15.0655 26.9949 15.104 27.0513 15.086 27.1181C15.068 27.1874 15.0475 27.2207 15.0218 27.2207C14.8909 28.7093 14.1492 29.564 12.984 29.4511C12.1961 29.3741 11.5057 29.0276 11.2131 28.196C10.9615 27.4825 11.1104 26.8178 11.6596 26.3276C12.2525 25.7989 12.9712 25.514 13.7694 25.8707C14.1133 26.0222 14.4161 26.2676 14.7369 26.4729Z" fill="#CF9E4E"/>
<path d="M17.1833 32.1214C16.7932 32.1009 16.4031 32.0829 16.0104 32.0624C17.2064 31.8674 17.0704 30.8382 17.286 30.0271C17.4708 29.5369 17.9302 29.4779 18.346 29.3521C18.541 29.3265 18.7284 29.3573 18.8978 29.4625C19.139 29.6807 19.2751 29.963 19.3982 30.2556C19.9141 31.005 18.6796 31.39 19.0107 32.106C18.405 32.3011 17.7942 32.2344 17.1833 32.1214Z" fill="#FBEDCB"/>
<path d="M16.5572 30.0131C16.0208 30.0285 16.298 30.2903 16.3262 30.5777C16.3904 31.2553 16.1876 31.784 15.3099 31.5735C14.9634 31.4914 14.4629 31.7532 14.2986 31.2809C14.1216 30.7728 14.7144 30.878 14.9249 30.6675C15.2046 30.3878 15.161 30.0747 14.9736 29.7641C14.7555 29.3997 15.0866 29.3637 15.2816 29.2431C15.9874 29.0378 16.3776 29.3509 16.5572 30.0131Z" fill="#F8E6B6"/>
<path d="M18.5584 22.3092C18.3428 22.6659 18.0091 22.997 17.9321 23.382C17.7602 24.2444 17.3983 23.844 17.0261 23.595C16.7643 23.2306 16.3203 23.441 15.979 23.2973C16.4538 22.5889 17.3829 22.2399 18.5584 22.3092Z" fill="#FAEFCC"/>
<path d="M7.52007 27.2171C7.34298 26.614 6.79117 26.093 7.12739 25.3795C7.13509 24.7096 7.25315 24.0371 7.06066 23.375C7.04526 23.1158 7.02986 22.8565 7.01446 22.5999C7.36864 22.1302 6.72444 21.486 7.28651 21.0548C7.52007 23.1004 7.95382 25.1408 7.52007 27.2171Z" fill="#F5E9C8"/>
<path d="M16.5572 30.0131C16.1183 29.7821 15.8054 29.3388 15.2818 29.2464C15.3357 28.8127 15.3896 28.3815 15.4435 27.9478C15.4974 27.9349 15.5539 27.9221 15.6078 27.9093C16.0441 28.0633 15.9825 28.5689 16.2699 28.8281C16.8115 29.3696 17.489 29.0719 18.1076 29.1284C18.2821 29.2079 18.4181 29.308 18.3283 29.5313C17.9818 29.6956 17.6353 29.8598 17.2888 30.0241C17.045 30.0241 16.801 30.0182 16.5572 30.0131Z" fill="#C8994A"/>
<path d="M7.28675 21.0509C7.19436 21.5668 7.49978 22.1494 7.0147 22.596C6.8761 21.4 6.60405 20.2039 7.0917 19.0233C7.47155 19.6675 7.18666 20.3785 7.28675 21.0509Z" fill="#FFFADB"/>
<path d="M15.0237 27.2187C15.0083 27.1289 14.9929 27.0365 14.9775 26.9466C15.0648 26.9312 15.1546 26.9158 15.2419 26.903C15.5499 26.749 15.7552 26.8671 15.8963 27.1494C15.9887 27.5318 15.8604 27.8141 15.5088 27.9912L15.4446 27.9476C15.3035 27.7063 15.1623 27.4625 15.0237 27.2187Z" fill="#F7F0D3"/>
<path d="M7.05988 23.372C7.43203 24.029 7.34477 24.7015 7.12662 25.3765C7.12148 25.2969 7.09838 25.2251 7.05732 25.1558C7.05732 24.5629 7.05988 23.9674 7.05988 23.372Z" fill="#FBEBC1"/>
<path d="M6.27301 23.0992C6.22681 23.3071 6.20371 23.5535 5.92909 23.5663C5.60057 23.5817 5.66217 23.3661 5.6981 23.1377C5.76483 22.7168 5.75713 22.2676 6.25504 22.0777C6.26017 22.419 6.26788 22.7578 6.27301 23.0992Z" fill="#C59662"/>
<path d="M5.49178 21.0385C5.48408 20.8691 5.47382 20.6997 5.46612 20.5303C5.27876 20.2763 5.26079 20.0273 5.47638 19.7783C5.48665 19.5653 5.53028 19.3677 5.74074 19.2548C6.23352 19.9298 5.98713 20.4995 5.49178 21.0385Z" fill="#A46C33"/>
<path d="M20.9072 22.231C20.9072 22.1746 20.8995 22.1207 20.8867 22.0642C21.3666 21.8306 21.8774 21.7819 22.3958 21.8255C22.519 21.8358 22.6679 22.1181 22.7423 21.8178C22.8142 21.5381 22.4497 20.863 22.75 21.0119C23.6996 21.479 24.4619 20.5217 25.2832 20.8605C26.3073 21.284 26.3689 22.1001 26.3278 23.1396C26.2996 23.8351 26.9027 24.5769 27.2826 25.2621C27.4904 25.6394 27.7574 25.9448 27.5957 26.4273C27.5058 26.6917 27.4827 26.9535 27.896 27.128C28.5915 27.4206 28.6326 28.0879 28.5761 28.7501C28.2193 29.3096 28.34 29.9384 28.3194 30.5467C27.8908 30.0565 27.4648 31.1113 27.0362 30.5467C26.972 30.4928 26.8693 30.462 26.8385 30.4004C26.3098 29.3045 25.6939 28.2855 24.5902 27.6593C24.6082 27.4437 24.6929 27.2512 24.8187 27.0792C25.237 26.5069 25.3063 25.9089 24.87 25.334C24.3746 24.6795 23.6483 24.6128 22.922 24.7719C22.1828 24.9336 21.9698 25.5136 21.9672 26.2092C21.9672 26.5018 21.9492 26.7995 21.8286 27.0767C21.767 27.1896 21.6798 27.2743 21.5668 27.3333C20.8225 27.4206 20.0885 27.282 19.3185 27.531C18.6204 27.7568 18.1482 27.051 17.7119 26.5377C17.7581 26.0116 17.9121 25.5367 18.333 25.1826C18.7513 25.3494 19.1568 25.5881 19.5931 25.6728C21.0997 25.9654 22.1571 24.6179 21.6592 23.078C21.1921 22.9933 21.0972 22.5698 20.9072 22.231Z" fill="#FBEBC1"/>
<path d="M5.47955 19.7791C5.47698 20.0307 5.47185 20.2796 5.46928 20.5311C5.30759 20.5311 5.1459 20.5311 4.9842 20.5337C5.14333 20.2771 4.49913 19.4943 5.47955 19.7791Z" fill="#BE8C59"/>
<path d="M28.3265 10.7828C28.2418 10.7007 28.1571 10.616 28.0698 10.5339C27.9005 10.5082 28.1135 10.557 27.9441 10.5287C27.4205 10.4389 26.7763 10.5262 26.7301 9.72026C26.7096 10.6545 25.9704 10.2644 25.4828 10.3337C25.7189 10.3234 25.8985 10.3696 26.0346 10.5441C25.0824 10.9265 24.1302 10.9317 23.178 10.539C23.2653 10.4312 23.3884 10.4107 23.5142 10.4004C23.4834 10.3465 23.4321 10.3876 23.391 10.3773C22.9855 10.2721 22.8546 10.0308 22.9521 9.61503C23.0522 9.18384 22.7211 9.27624 22.4799 9.27624C22.1899 9.32501 22.0513 9.16588 21.982 8.91179C22.1976 8.10332 23.5758 7.0536 24.279 7.16396C24.7949 7.24609 24.8591 7.54125 24.469 8.38051C24.9617 8.24705 25.3904 8.31635 25.8267 8.41901C27.0047 8.69107 28.0134 8.04943 28.2546 6.88678C28.3701 6.3247 28.5293 5.81396 29.0708 5.51624C29.3121 5.42127 29.5508 5.41614 29.7894 5.5265C30.7237 6.39913 30.9906 6.41453 32.1738 5.6651C31.953 5.14152 30.9983 5.26985 31.0856 4.52298C31.1318 4.12259 31.5629 4.12259 31.894 4.08666C32.3945 4.0379 32.7487 4.37925 33.1439 4.54608C33.3005 4.65901 33.2671 4.35358 33.1927 4.50758C33.1773 4.53838 33.1414 4.52298 33.0721 4.48448C32.8565 4.36128 32.6178 4.25606 32.6409 3.94037C33.783 3.44246 34.6274 3.93267 35.3768 4.75397C35.4538 4.93619 35.4821 5.12612 35.4615 5.32118C35.2177 5.97052 35.1125 6.70198 34.3964 7.1229C35.1381 6.80208 35.4821 5.72669 36.519 6.15787C36.0364 7.0921 35.7644 8.17262 34.7326 8.727C34.2296 8.5422 34.1988 9.04268 33.9678 9.25314C33.8831 9.33527 33.7958 9.4174 33.7111 9.49953C33.0207 9.80752 32.9925 8.91436 32.4766 8.82196C33.0387 9.28907 32.8488 9.64326 32.3021 9.79725C31.7529 9.95125 31.1805 10.0796 30.6903 10.136C30.8417 10.2387 31.2036 10 31.4166 10.2875C30.4105 10.6032 29.3814 10.7802 28.3265 10.7828Z" fill="#B37439"/>
<path d="M31.9276 4.36193C31.7274 4.40556 31.4374 4.38246 31.345 4.50822C31.1474 4.77258 31.4117 4.83161 31.6222 4.87524C32.0585 4.96764 32.2741 5.48351 32.9055 5.32182C32.0867 6.26375 31.3399 6.84379 30.1926 6.41774C29.7692 6.26118 29.6614 6.05586 29.8615 5.66831C29.6588 5.20376 29.3072 5.46555 29.0043 5.48865C28.8863 5.48095 28.7939 5.42705 28.722 5.33209C28.3447 5.22173 29.2841 4.53132 28.414 4.64168C28.1779 4.62628 27.952 4.58009 27.7801 4.39786C27.2308 4.34653 28.5962 3.82295 27.6569 3.88712C27.2462 3.91535 26.9819 3.76905 26.9536 3.36867C26.928 3.00422 27.2283 2.90669 27.5337 2.82456C28.2318 2.6372 28.9247 2.7527 29.6177 2.82456C30.0438 2.82713 30.4698 2.83226 30.8933 2.83483C31.0601 2.83739 31.2295 2.84253 31.3963 2.84509C31.6864 2.82969 31.9687 2.83739 32.174 3.08892C33.5137 3.68692 35.1204 3.5432 36.301 4.58265C36.0777 5.1242 35.7184 5.18066 35.2539 4.88294C34.5121 4.249 33.7884 3.55603 32.6899 4.10784C32.3768 4.38759 32.1458 4.10784 31.8891 3.99491C31.3938 3.83835 30.9036 3.72029 30.5186 4.22847C30.1824 4.24387 29.8898 4.12067 29.7204 4.04624C30.054 4.22334 30.4955 4.42096 30.9472 3.96668C31.2706 3.81525 31.5734 3.92818 31.8763 4.03084C31.9995 4.12581 32.0149 4.23617 31.9276 4.36193Z" fill="#B87B41"/>
<path d="M31.4168 10.2914C31.2474 10.2863 31.0729 10.2965 30.9061 10.276C30.5544 10.2298 30.0488 10.4531 29.9308 9.93722C29.8512 9.5933 30.0488 9.25195 30.5134 9.43931C30.634 9.48807 30.6802 9.71906 30.7623 9.86536C31.3039 9.44701 32.1098 9.86279 32.6513 9.32638C32.3356 8.76431 31.8967 9.50861 31.6119 9.10822C31.5682 8.73607 32.5461 8.45119 32.9619 8.77714C33.2313 8.99016 33.2622 9.45984 33.7113 9.50347C33.0158 9.96802 32.233 10.1785 31.4168 10.2914Z" fill="#BA8047"/>
<path d="M36.52 6.15698C35.3882 6.21345 35.0776 7.34273 34.2794 7.94844C33.7789 6.70622 34.9878 6.22628 35.2727 5.38445C35.6654 5.17142 36.0349 4.85061 36.5252 5.13549C36.5226 5.47684 36.5226 5.81563 36.52 6.15698Z" fill="#BF8347"/>
<path d="M36.5242 5.13478C36.1058 5.21691 35.6875 5.30161 35.2717 5.38374C35.2666 5.21691 35.259 5.04977 35.2539 4.88294C35.644 4.9317 35.9854 4.79824 36.301 4.58265C36.4884 4.72125 36.5319 4.91662 36.5242 5.13478Z" fill="#C59562"/>
<path d="M32.1713 3.09254C31.8864 3.08998 31.5887 3.13361 31.3936 2.84872C31.8171 2.40984 32.0635 2.53047 32.1713 3.09254Z" fill="#9E632C"/>
<path d="M33.968 9.25196C33.9731 8.85414 34.1605 8.54358 34.5147 8.40756C34.6995 8.33569 34.7148 8.57695 34.7328 8.72581C34.4787 8.90034 34.2246 9.07743 33.968 9.25196Z" fill="#BA8047"/>
<path d="M22.4213 8.99133C23.3889 8.91433 23.3889 8.91433 23.1707 9.79723C23.1245 9.98972 23.3478 10.1129 24.2384 10.539C23.8843 10.539 23.5322 10.539 23.178 10.539C21.5508 10.5262 19.9215 10.5159 18.2943 10.503C18.1608 10.3413 18.1608 10.1668 18.2404 9.98459C19.1541 9.26082 20.1473 9.19665 21.2304 9.55854C22.0954 9.84856 22.1082 9.81519 22.4213 8.99133Z" fill="#B6783D"/>
<path d="M12.4097 10.2754C12.4097 10.1933 12.4097 10.1086 12.4046 10.0265C12.4457 9.98027 12.4867 9.9315 12.5278 9.88274C13.3799 9.29243 14.3783 9.85707 15.2637 9.54139C16.0619 9.44899 16.8627 9.2026 17.6558 9.56962C17.8406 9.85964 18.0613 10.1368 18.0664 10.509C16.1749 10.6322 14.309 10.0752 12.4097 10.2754Z" fill="#B6783D"/>
<path d="M26.0355 10.5444C25.6968 10.5444 25.358 10.5444 25.0192 10.5444C25.3657 10.339 25.5428 9.77952 26.0792 10.0798C26.4539 10.2877 26.5309 10.0208 26.4821 9.73845C26.3538 8.97875 26.9672 9.19178 27.1931 9.3047C27.7731 9.59216 27.1956 9.63322 27.0519 9.81545C26.8363 10.0926 27.093 10.1414 27.3163 10.1414C27.6345 10.144 27.8886 10.2672 28.0708 10.5315H28.0683C27.6371 10.724 27.2008 10.7112 26.767 10.5418C26.5232 10.5444 26.2794 10.5444 26.0355 10.5444Z" fill="#B6783D"/>
<path d="M26.7664 10.5448C27.2001 10.5422 27.6339 10.5371 28.0676 10.5345C27.639 10.9144 27.2027 10.8887 26.7664 10.5448Z" fill="#B37439"/>
<path d="M18.0683 10.507C17.886 10.2966 17.5036 10.1503 17.8167 9.77044C18.0811 9.65495 18.2171 9.79354 18.3121 10.0168C18.3069 10.1785 18.3018 10.3402 18.2967 10.5019L18.1838 10.5096L18.0683 10.507Z" fill="#C68F59"/>
<path d="M5.48672 5.91644C5.9102 5.48526 6.33625 5.05408 6.75973 4.62546C7.00099 4.23791 7.27304 3.89399 7.77352 3.8401C8.37666 3.85293 8.17904 4.22251 8.01478 4.47917C7.79662 4.81795 7.43217 5.05664 7.28844 5.45959C7.14728 5.73421 6.94965 5.95237 6.67503 6.09867C6.34651 6.30656 5.85374 6.36559 5.93073 6.9328C6.0257 7.10476 6.19252 7.18432 6.36705 7.25875C6.46458 7.30495 6.54927 7.36398 6.62884 7.43584C6.81106 7.65143 6.96505 7.88755 7.20888 8.03642C7.48093 8.20068 7.82742 8.20581 8.07894 8.41627C8.26886 8.89108 8.56659 8.79355 8.88741 8.56256C10.2169 8.09031 11.4411 7.98765 12.1983 9.51475C12.0751 9.65848 11.9134 9.72521 11.7286 9.74318C10.9047 9.9177 10.1681 9.2042 9.33142 9.50705C8.3125 9.49679 7.30641 9.49935 6.28748 9.27863C4.16494 8.82178 3.88262 8.27767 5.0504 6.54268C5.19156 6.33222 5.34043 6.12433 5.48672 5.91644Z" fill="#B6783D"/>
<path d="M9.33142 9.50705C9.55471 9.01171 9.8963 8.96552 10.3326 9.23501C10.7356 9.48653 11.1821 9.53273 11.6441 9.50706C11.7365 9.63796 11.7186 9.75089 11.5928 9.85098C11.2617 9.87665 10.9255 9.97161 10.6124 9.76885C10.1761 9.72009 9.69844 9.88947 9.33142 9.50705Z" fill="#BF864F"/>
<path d="M10.6131 9.7653C10.957 9.76273 11.2984 9.7576 11.6423 9.75503C11.9631 9.64981 12.3276 9.40855 12.4174 10.0091L12.4046 10.0245C11.8091 9.92956 11.1547 10.2401 10.6131 9.7653Z" fill="#B6783D"/>
<path d="M17.1833 32.1214C17.7274 32.1214 18.2689 32.1216 18.8515 32.1216C18.6693 31.6057 18.0431 32.0651 17.9327 31.4928C18.3511 31.1283 19.7165 31.5518 19.1056 30.2403C20.1579 30.1736 21.2538 30.2608 22.0828 29.4036C22.6552 29.5088 23.0453 30.0683 23.8153 29.7937C24.4081 29.5832 25.0908 30.7331 24.9907 31.5775C25.4707 32.1549 26.2861 31.5127 26.7737 32.0671C23.5809 32.4957 20.3838 32.5372 17.1833 32.1214Z" fill="#FBEBC1"/>
<path d="M8.821 31.5721C8.30769 31.5388 7.99714 31.2436 7.80465 30.7945C8.31283 30.8329 8.59258 31.1692 8.821 31.5721Z" fill="#B1763B"/>
<path d="M29.0951 5.66685C28.9385 6.00563 28.6049 6.23919 28.5766 6.66524C28.5279 7.40697 28.6331 8.11278 27.5449 8.44643C26.8185 8.66972 26.3129 9.0624 25.4839 8.65945C24.9886 8.4182 24.2802 8.61582 23.6642 8.61582C23.6796 8.55166 23.6719 8.46183 23.713 8.40793C23.9568 8.08968 24.8936 8.2642 24.524 7.59433C24.1775 6.96553 23.8927 7.83046 23.5513 7.87152C22.8327 7.95878 22.2039 8.09738 22.1628 8.99567C20.841 9.53722 20.5946 9.46279 19.5218 8.16924C19.6039 8.48493 20.0351 8.67999 19.799 8.99311C19.5886 9.27543 19.2703 9.18816 18.9905 9.0316C18.5157 8.70822 17.9793 8.51059 17.4455 8.3104C17.3351 8.28217 17.2247 8.2488 17.1144 8.21544C16.4214 7.99985 15.6822 8.23854 14.9841 7.95622C14.3297 7.69186 14.8455 8.59272 14.4118 8.60299C13.842 8.82371 13.4134 8.58759 13.0361 8.18207C12.8308 7.81249 12.451 7.51477 12.5562 7.01942C12.5434 6.8911 12.7872 6.71657 12.7102 6.7448C11.5552 7.13492 11.5065 6.33929 11.4038 5.58728C11.2164 5.21257 10.8109 5.19973 10.4952 5.04317C10.2925 4.64536 9.62517 5.07654 9.51738 4.5042C9.41728 4.24498 9.46861 3.96009 9.36852 3.6983C9.30692 3.50067 9.17346 3.30561 9.32745 3.09516C10.2642 2.92063 11.2036 2.74867 12.1404 2.57415C12.7102 2.26103 13.3723 2.65371 13.9421 2.33546C14.7147 2.33032 15.4846 2.32519 16.2572 2.32006C16.3316 2.8693 15.9261 2.58698 15.8542 2.64601C16.5292 2.69477 16.5292 2.69477 16.6729 3.23119C15.6745 3.7214 14.6197 3.22349 13.6059 3.40058C13.4211 3.45961 13.2414 3.54431 13.0413 3.53147C12.5818 3.26455 12.0968 3.46731 11.6476 3.47501C11.9325 3.54687 12.2302 3.36721 12.5408 3.41341C12.8667 3.55457 13.1953 3.6675 13.5392 3.45704C13.8266 3.34155 14.1089 3.33128 14.3861 3.48527C14.2886 4.22188 13.8985 4.73262 13.2004 5.00211C12.954 4.95591 12.7204 4.85068 12.4561 4.81218C12.6537 5.00468 12.9437 4.94565 13.1439 5.09451C13.3544 5.1407 13.5546 5.04574 13.7522 5.04831C13.8728 5.15867 13.6778 5.19973 13.8266 5.12017C13.8343 5.11504 13.8343 5.07397 13.8266 4.99441C13.8189 4.91228 13.8087 4.87121 13.801 4.86608C14.1115 4.10895 14.8558 3.93955 15.4923 3.68033C15.8953 3.51607 16.3495 3.62644 16.3829 4.23214C16.2366 4.69926 15.4769 4.87121 15.7618 5.53852C16.5754 6.16989 18.3925 6.24689 19.0958 5.66171C19.2677 5.51799 19.4525 5.40506 19.663 5.43586C20.8154 5.59242 21.9318 5.37939 23.0431 5.12017C23.3126 5.05857 23.5564 5.1099 23.7053 5.35629C23.9183 5.70791 23.8362 5.99793 23.4846 6.21352C23.0996 6.28795 22.8121 5.99023 22.4759 5.99537C22.5863 6.14423 22.979 5.9851 22.9841 6.34442C22.7813 6.7756 22.2321 6.7217 21.9164 7.16315C22.345 6.8911 22.8378 6.87826 22.9713 6.35725C23.1304 6.26742 23.3101 6.29822 23.482 6.27769C24.5882 6.55488 24.8962 5.72588 25.3068 5.04061C25.0527 5.44612 24.85 5.97227 24.2007 5.79774C23.6437 5.64888 23.7053 5.11504 23.8105 4.73519C24.0159 3.99345 23.5205 4.03708 23.0765 3.93442C22.7197 3.84973 22.2449 3.78043 22.345 3.25172C22.422 2.8462 22.8352 2.8462 23.1689 2.80514C24.0082 2.70247 24.755 2.9925 25.4814 3.36465C25.7868 3.51607 26.1256 3.5674 26.4489 3.67007C26.9905 3.84459 27.3036 4.3733 27.8375 4.56066C27.9992 4.63253 28.1172 4.75059 28.1993 4.90458C28.2199 5.3024 28.5099 5.36656 28.823 5.40249L28.8333 5.40506C28.9462 5.47179 29.0874 5.50515 29.0951 5.66685Z" fill="#B6783D"/>
<path d="M25.5041 3.6034C24.5545 3.32364 23.6356 2.78467 22.4319 3.30311C23.0633 3.68809 23.5894 3.87545 24.2542 3.67269C24.2003 3.99095 24.054 4.3169 24.1181 4.59152C24.2003 4.93544 23.6793 5.57195 24.3953 5.59248C25.0036 5.61045 25.0421 5.0458 24.8599 4.52479C25.9532 4.78658 25.9763 5.24343 25.2218 5.8671C25.1011 5.96463 24.8958 6.01596 24.847 6.13402C24.5724 6.80903 24.5853 6.81159 23.9359 6.55237C23.7794 6.49077 23.61 6.46768 23.4457 6.42661C23.3559 6.37271 23.3276 6.31625 23.3559 6.25978C23.3841 6.20332 23.4123 6.17509 23.4431 6.17509C23.6716 5.65151 23.9205 5.24086 22.9273 5.45902C21.934 5.67718 20.9407 6.01339 19.8423 5.76444C19.5548 5.70027 18.9568 6.24439 18.4255 6.25208C17.4656 6.26748 16.4826 6.47794 15.5561 6.04419C15.3918 5.9672 15.3046 5.81577 15.4945 5.64894C15.7127 5.56681 15.8461 5.35892 15.7871 5.1536C15.6819 4.78401 15.9514 4.68135 16.19 4.66852C17.7839 4.57869 19.3803 4.50683 20.679 4.69162C19.7884 4.28097 18.5359 4.71728 17.3296 4.58126C16.9626 4.54019 16.5673 4.70188 16.2619 4.3708C16.2285 4.09361 16.0515 3.76766 15.8153 3.89855C15.166 4.25787 14.2497 4.25017 13.952 5.1382C13.6953 5.2229 13.4387 5.31016 13.182 5.39486C13.0434 5.2229 13.0204 5.05094 13.1897 4.88411C13.8263 4.68649 13.7723 3.77792 14.4679 3.6419C15.148 3.15682 15.9437 3.28258 16.7034 3.21841C16.8727 3.20302 16.6726 3.27231 16.8214 3.21071C16.9959 3.14142 16.7573 3.14655 16.7727 3.08752C16.4364 2.63324 15.9052 2.94379 15.4817 2.7667C15.6408 2.42022 16.1336 2.67174 16.2619 2.30985C17.7223 1.9762 19.1775 2.39968 20.6353 2.32782C20.856 2.53058 20.661 2.8437 20.8253 3.08239C20.9998 2.82573 20.5789 2.55368 20.874 2.32525C23.6074 2.11736 26.3177 2.63581 29.0459 2.58961C29.2333 2.58704 29.4232 2.74103 29.6131 2.82316C28.9535 3.19788 28.1964 2.66917 27.5317 3.05415C27.3571 3.15425 27.0774 3.14912 27.1544 3.44684C27.2185 3.69579 27.3956 3.76766 27.6369 3.6265C27.8935 3.47764 28.1887 3.09265 28.4197 3.60083C28.6789 4.17061 27.9243 4.04228 27.814 4.3785C27.873 4.43753 27.891 4.49399 27.8679 4.54789C27.8448 4.59922 27.8217 4.62489 27.7986 4.62489C26.9901 4.99704 26.9978 4.02688 26.523 3.84979C26.2458 3.5187 25.8608 3.6188 25.5041 3.6034Z" fill="#B3753A"/>
<path d="M9.33465 3.0903C9.41935 3.25969 9.50661 3.43165 9.5913 3.60104C9.55537 3.85256 9.30898 4.09895 9.56821 4.35818C9.91982 4.53527 10.2714 4.70979 10.6256 4.88689C10.8669 6.0598 9.6683 5.49003 9.32952 5.96227C9.21916 6.01874 9.10366 6.05467 8.98303 6.0829C8.54672 6.11113 8.1489 5.99564 7.79471 5.73898C7.80755 5.00751 7.24547 5.60552 7.02732 5.4079C7.02988 4.92025 7.3507 4.6482 7.71259 4.41464C7.98208 4.24011 8.06677 4.06815 7.77418 3.8423C7.78188 3.76273 7.78958 3.6806 7.79471 3.60104C8.25413 3.26739 8.72381 2.96967 9.33465 3.0903Z" fill="#B27439"/>
<path d="M20.8732 2.3313C20.7448 2.87798 21.81 2.57256 21.502 3.15516C21.2966 3.54528 20.8167 3.29376 20.3162 3.34766C20.4137 2.97551 20.7397 2.69318 20.6345 2.33643C20.714 2.32873 20.7936 2.32617 20.8732 2.3313Z" fill="#BD854F"/>
<path d="M13.9492 2.33086C13.3999 2.8031 12.748 2.48485 12.1474 2.56955C12.6967 2.10243 13.3486 2.40785 13.9492 2.33086Z" fill="#B3753A"/>
<path d="M24.9898 31.5764C24.6023 30.8629 24.6587 29.5797 23.183 30.3548C22.472 30.7295 22.6209 29.6721 22.1641 29.5206C21.7021 28.9509 21.7714 28.2733 21.7714 27.6111C21.8766 27.3699 22.105 27.3108 22.2873 27.4084C23.0675 27.8216 23.9119 27.6419 24.7255 27.7163C25.285 27.991 26.3065 29.1921 26.6838 29.921C26.7916 30.1289 27.0354 30.2701 27.038 30.5473C26.3552 30.8912 25.6725 31.2325 24.9898 31.5764Z" fill="#F9E7B8"/>
<path d="M21.4178 23.6006C21.482 24.3886 21.1714 24.9404 20.3707 25.1046C19.5519 25.274 18.9411 24.771 18.4868 24.2397C18.0916 23.7777 18.225 23.1925 18.8256 22.8409C19.0925 22.9128 19.3825 23.018 19.3235 22.5432C19.8599 22.0633 20.3578 22.556 20.8711 22.6048C21.2946 22.8076 21.6206 23.0591 21.4178 23.6006Z" fill="#EFC36D"/>
<path d="M17.5576 24.6383C17.6474 24.7307 17.7347 24.8206 17.8245 24.913C18.248 25.552 17.9375 26.0756 17.4549 26.4375C16.8467 26.8969 16.1511 26.9611 15.5069 26.4272C15.0988 25.8806 14.6471 25.339 15.2297 24.6383C15.6661 24.7692 16.0716 24.3458 16.513 24.5588C16.8056 25.2569 17.2419 24.2123 17.5576 24.6383Z" fill="#EABB64"/>
<path d="M15.5069 26.4272C17.5756 26.4555 17.6705 26.3939 17.8245 24.913C18.0478 24.9078 18.2256 24.9816 18.3359 25.1869C18.3847 25.7002 18.205 26.1186 17.8021 26.442C17.3042 27.1529 16.565 27.2196 15.7899 27.1914C15.6949 26.927 15.4383 26.9732 15.2432 26.9039C15.2484 26.6986 15.3093 26.5248 15.5069 26.4272Z" fill="#C79039"/>
<path d="M16.5188 24.6418C16.0902 24.3312 15.6513 25.7582 15.2304 24.6341C15.5871 23.9873 16.1774 24.0694 16.7652 24.1464C16.9012 24.421 16.7395 24.5468 16.5188 24.6418Z" fill="#F7DE9E"/>
<path d="M19.3235 22.5432C19.5956 22.7922 19.8323 23.0567 19.7322 23.4879C19.1855 23.588 19.0335 23.1746 18.8256 22.8409C18.9924 22.7408 19.1593 22.6433 19.3235 22.5432Z" fill="#F8EAB8"/>
<path d="M16.5176 24.6432C16.5997 24.4789 16.6792 24.3147 16.7614 24.1478C17.1412 24.1273 17.3908 24.315 17.5576 24.6383C17.2111 24.5973 16.8666 25.5081 16.5176 24.6432Z" fill="#F2CE87"/>
<path d="M21.4178 23.6006C21.3896 23.1848 21.0659 22.9304 20.8734 22.607C20.8836 22.4838 20.8965 22.358 20.9067 22.2348C21.2994 22.3914 21.533 22.6917 21.6613 23.0844C21.6408 23.282 21.6232 23.4851 21.4178 23.6006Z" fill="#C49046"/>
<path d="M11.6189 27.6357C11.6574 26.4987 12.2964 26.2061 13.0715 26.2035C14.0699 26.2009 14.4806 26.8169 14.4703 27.7717C14.4626 28.6623 13.8672 28.9959 13.1434 28.9523C12.2785 28.901 11.6266 28.4518 11.6189 27.6357Z" fill="#EFC371"/>
<path d="M15.7898 27.1901C16.3878 26.7461 17.1552 26.7538 17.802 26.4407C18.5232 26.9771 19.1803 27.5905 20.212 26.9591C20.6304 26.7024 21.1693 27.1105 21.6493 27.2363C21.7494 27.5186 21.6005 27.6803 21.3772 27.8086C20.9461 27.901 20.4943 27.6803 20.0734 27.8959C19.7911 28.0422 19.6294 28.3014 19.4549 28.5478C19.3984 28.6325 19.3368 28.7121 19.2752 28.7942C19.0827 29.0277 19.0981 29.3896 18.803 29.5616C18.6439 29.5513 18.4847 29.5436 18.3256 29.5334C18.2332 29.4358 18.1382 29.3409 18.0458 29.2433C17.6763 28.7198 18.5181 27.593 17.1963 27.552C16.6753 27.5982 16.4494 27.9421 16.3365 28.4015C16.2724 28.6248 16.2108 28.8507 16.0106 28.9995C15.5871 28.7916 15.9105 28.2116 15.5075 27.9909C15.6025 27.7265 15.6974 27.4596 15.7898 27.1901Z" fill="#DCA954"/>
<path d="M18.8048 29.5635C18.8817 29.2016 18.7047 28.773 19.0922 28.4958C19.277 28.6755 19.3694 28.9116 19.49 29.1349C19.7159 29.5609 20.0803 29.7226 20.5449 29.62C21.0762 29.5019 21.3046 29.14 21.3071 28.6113C21.3071 28.3213 21.2225 28.0236 21.3764 27.7464C21.4663 27.577 21.5587 27.4076 21.6485 27.2382L21.6896 27.2356C21.8949 27.1817 21.9745 27.2485 21.9026 27.4589C22.1336 28.1288 22.3026 28.8071 22.1641 29.5206C21.3453 30.614 20.3165 30.8185 19.105 30.2385C19.0049 30.0126 18.9048 29.7868 18.8048 29.5635Z" fill="#D09F4E"/>
<path d="M16.0133 29.0022C16.0133 28.7429 16.0133 28.4863 16.0133 28.2271C16.4701 28.014 16.8602 27.7368 17.0193 27.2235C18.4746 27.2492 18.644 27.5828 18.0485 29.246C17.3068 29.6797 16.6241 29.6284 16.0133 29.0022Z" fill="#F0C066"/>
<path d="M21.9023 27.4577C21.8305 27.3832 21.7612 27.3088 21.6893 27.2344C21.4994 25.4583 21.8202 24.6319 22.8699 24.4137C23.7939 24.2187 24.6794 24.3496 25.2389 25.2171C25.86 26.1846 25.416 26.988 24.7281 27.7169C23.7195 28.3662 22.7981 28.0531 21.9023 27.4577Z" fill="#CD9E52"/>
<path d="M17.2908 7.96366C17.3755 7.96366 17.4602 7.96366 17.5449 7.96366C17.8272 8.68486 18.5638 8.4898 19.0823 8.73106C19.1798 8.80549 19.2696 8.92612 19.3774 8.94408C19.552 8.97488 19.729 8.92868 19.5391 8.69512C19.38 8.50007 19.2106 8.31271 19.0104 8.08172C19.6289 7.84559 20.0114 7.74293 20.2911 8.57963C20.6068 9.51899 21.5487 8.74902 22.1621 8.98771C22.2468 9.16224 22.3315 9.16224 22.4188 8.98771C22.7653 9.30596 22.773 9.65758 22.4342 9.96044C22.2212 10.1529 21.8721 10.3814 21.6334 10.1735C20.5503 9.24437 19.4313 9.74228 18.3097 10.0118C18.1455 9.92964 17.9787 9.84751 17.8144 9.76538C16.9495 9.76281 16.0871 9.76025 15.2222 9.76025C14.986 9.87061 14.7859 9.73715 14.5728 9.67555C13.8824 9.25977 13.1664 9.56775 12.4605 9.61139C12.3425 9.61395 12.2398 9.57802 12.1526 9.49846C11.2158 8.45644 10.0223 8.53857 8.80321 8.73876C8.43619 8.99028 8.2206 8.80549 8.05378 8.47953C7.69702 8.43334 7.28637 8.59246 7.01688 8.20748C6.92449 7.90719 6.75766 7.65567 6.51897 7.45291C6.42144 7.44778 6.32391 7.44008 6.22638 7.43495C6.15709 7.33742 6.13656 7.23219 6.16222 7.11669C6.7166 6.01564 7.27098 7.27582 7.82535 7.11156C8.03838 7.11926 8.24883 7.10643 8.45159 7.02173C8.84941 6.69064 9.25236 6.37239 9.82213 6.70348C9.57318 6.41602 8.69285 6.74968 9.07526 5.90528C9.92479 5.71535 10.7025 5.18408 11.6316 5.3894C11.8985 5.88988 11.6316 6.94987 12.8122 6.52125C12.8635 6.50329 13.2819 6.55205 13.1407 6.86004C13.1048 6.9396 12.8353 6.91137 12.6736 6.9319C11.9447 7.7147 13.0226 7.6146 13.1792 7.96366C13.5154 8.36661 13.9594 8.4898 14.4625 8.47183C14.6113 8.13562 14.7217 7.7378 15.2376 8.00215C15.9305 8.35891 16.6107 8.14075 17.2908 7.96366Z" fill="#B27439"/>
<path d="M31.9154 3.8601C32.1721 3.94479 32.4313 4.02692 32.6879 4.11162C33.1217 4.42731 33.7813 4.32721 34.1817 4.96885C33.2783 5.09461 32.7162 4.24765 31.9257 4.36314C31.9205 4.28101 31.9154 4.19888 31.9154 4.11675C31.8256 4.06029 31.7973 4.00382 31.8256 3.94479C31.8564 3.88833 31.8872 3.8601 31.9154 3.8601Z" fill="#BF8751"/>
<path d="M29.0948 5.66849C29.0101 5.57866 28.9254 5.49139 28.8407 5.40156C29.2129 5.18597 29.6569 4.99605 30.029 5.19624C30.55 5.47599 30.1548 5.59149 29.8571 5.66849C29.603 5.66849 29.3489 5.66849 29.0948 5.66849Z" fill="#C48C56"/>
<path d="M33.4085 7.51772C33.4034 7.68968 33.3751 7.8873 33.157 7.84881C33.0235 7.82571 32.8618 7.68968 32.8105 7.56392C32.7438 7.39709 32.8516 7.2431 33.0595 7.2431C33.2391 7.24053 33.3777 7.31753 33.4085 7.51772Z" fill="#C18B57"/>
<path d="M34.1763 5.97687C34.0172 6.04617 33.9171 6.12573 33.8144 6.12573C33.6245 6.12317 33.5141 5.98971 33.6142 5.81261C33.6527 5.74075 33.8273 5.70225 33.9248 5.72278C34.0095 5.74075 34.0711 5.86395 34.1763 5.97687Z" fill="#BF8951"/>
<path d="M28.8331 5.39845C28.6175 5.50368 28.3249 5.75007 28.2043 5.6859C27.9271 5.53448 28.1119 5.17259 28.0683 4.90054C28.0965 4.59255 28.4045 4.55149 28.5713 4.37439C29.3721 4.53352 28.6201 5.0879 28.8331 5.39845Z" fill="#B37439"/>
<path d="M31.9154 3.8601C31.9154 3.94479 31.9154 4.03205 31.9154 4.11675C31.5689 4.12445 31.2196 4.12909 30.8732 4.13679C30.7833 4.22149 30.7038 4.21636 30.6293 4.11626C30.7166 3.49259 30.8734 3.46228 31.9154 3.8601Z" fill="#CF9B68"/>
<path d="M30.6313 4.11369C30.7134 4.11369 30.793 4.12139 30.8751 4.13422C30.3079 4.58337 29.8023 4.38061 29.2607 4.00589C29.792 3.65171 30.1847 4.14449 30.6313 4.11369Z" fill="#B37439"/>
<path d="M28.5713 4.37439C28.4866 4.62848 28.3044 4.79018 28.0683 4.90054C27.9784 4.81071 27.8877 4.71831 27.7978 4.62848C27.8055 4.54635 27.8107 4.46422 27.8132 4.38209C28.0673 4.37953 28.3198 4.37696 28.5713 4.37439Z" fill="#C68E59"/>
<path d="M14.7216 9.50295C14.8884 9.59021 15.0578 9.68004 15.2246 9.76731C14.3263 10.2883 13.3331 9.69801 12.4168 10.0111C12.2243 9.72111 11.924 9.76987 11.6417 9.75704C11.6417 9.67491 11.6417 9.59021 11.6417 9.50808C11.8137 9.50808 11.9831 9.50552 12.155 9.50552C12.2397 9.50552 12.327 9.50552 12.4117 9.50552C13.1817 9.31046 13.9516 9.26939 14.7216 9.50295Z" fill="#BC844C"/>
<path d="M7.02433 5.40524C7.34515 5.16655 7.66596 4.92529 8.04325 4.64297C8.21264 5.09982 7.87899 5.34364 7.76863 5.6465C7.46834 6.08538 7.12186 6.42673 6.52385 6.23424C6.45712 6.16494 6.43402 6.09308 6.45455 6.02121C6.47508 5.94935 6.49562 5.91342 6.51615 5.91342C6.68811 5.74402 6.85493 5.57463 7.02433 5.40524Z" fill="#C9915A"/>
<path d="M6.51901 5.91443C6.51131 6.0017 6.50618 6.08639 6.50104 6.17365C6.53184 6.39181 6.43945 6.57404 6.33678 6.75113C6.18022 6.96159 6.01083 7.15151 5.73364 7.19514C5.1998 6.28145 5.87223 6.10692 6.51901 5.91443Z" fill="#B27439"/>
<path d="M8.05648 8.48592C8.30544 8.57319 8.55696 8.65788 8.80591 8.74515C8.78025 9.21226 8.47483 9.32519 8.11294 9.19943C7.6484 9.03517 7.98462 8.73231 8.05648 8.48592Z" fill="#C08851"/>
<path d="M6.52141 7.46019C7.02188 7.49098 7.31704 7.65524 7.01932 8.21475C6.68053 8.07616 6.50344 7.83234 6.52141 7.46019Z" fill="#BF8A53"/>
<path d="M5.73157 7.19488C5.83423 6.94592 6.00619 6.76627 6.25772 6.66874C6.40144 6.83556 6.39374 7.01009 6.28081 7.18975C6.26285 7.27444 6.24488 7.35914 6.22948 7.44384C6.02416 7.43614 5.84193 7.38737 5.73157 7.19488Z" fill="#C99A68"/>
<path d="M16.2619 4.3708C18.1252 4.32717 20.0297 3.85686 21.7852 5.02207C19.8809 4.79108 17.9765 4.90144 16.0618 4.88605C15.9335 5.32236 16.4725 5.22483 16.5392 5.60212C16.1901 5.61751 15.8437 5.63548 15.4972 5.65088C15.161 4.87321 15.4047 4.43753 16.2619 4.3708Z" fill="#BD834A"/>
<path d="M17.2911 7.96462C16.7495 8.78592 15.9488 8.59856 15.2943 8.30084C14.858 8.10322 14.7143 8.28288 14.4679 8.47537C14.609 8.02622 14.1214 7.76957 14.0675 7.14589C15.089 8.05189 16.267 7.60017 17.2911 7.96462Z" fill="#BB8047"/>
<path d="M16.7748 3.09304C17.0161 3.09304 17.2573 3.09304 17.4986 3.09304C17.5037 3.14694 17.5063 3.19827 17.5114 3.25217C16.4976 3.38306 15.4813 3.51395 14.4675 3.64485C14.1313 3.62175 13.7951 3.59865 13.4588 3.57555C13.3844 3.52935 13.3562 3.48059 13.3741 3.42669C13.3947 3.37279 13.4178 3.34456 13.4409 3.34456C14.5163 2.76709 15.6686 3.23933 16.7748 3.09304Z" fill="#CC9B6C"/>
<path d="M23.5655 7.09525C22.8341 7.19535 22.2361 6.90789 22.0487 7.6214C22.0102 7.76769 21.8151 7.88575 21.6355 7.75486C21.4507 7.62139 21.348 7.4058 21.4558 7.20048C21.6842 6.7693 22.0898 6.60247 22.5543 6.47158C23.1729 6.29962 23.0394 6.87966 23.5655 7.09525Z" fill="#AE6E34"/>
<path d="M11.6337 5.39461C10.7816 5.56914 9.99363 6.05165 9.07737 5.91049C9.24676 5.04812 10.4967 5.81552 10.6224 4.88643C11.0562 4.8659 11.4489 4.92493 11.6337 5.39461Z" fill="#BE8650"/>
<path d="M26.7133 6.85641C27.0341 6.77941 27.2189 6.9411 27.2446 7.23626C27.2831 7.66231 26.9648 7.70337 26.6492 7.70081C26.3899 7.69824 26.0922 7.68541 26.0742 7.34405C26.0537 6.91801 26.4618 6.97447 26.7133 6.85641Z" fill="#B37439"/>
<path d="M13.184 7.96893C12.6989 7.93813 12.1342 7.96123 12.0239 7.35553C11.9879 7.15277 12.2241 6.71132 12.6783 6.93718C12.8452 7.2811 13.0146 7.62501 13.184 7.96893Z" fill="#BD8751"/>
<path d="M12.6629 3.59626C12.0264 3.64759 11.3925 3.69892 10.756 3.75025C11.4618 3.46793 12.1188 2.90842 12.9093 3.34217C12.8657 3.46023 12.781 3.54493 12.6629 3.59626Z" fill="#CA9560"/>
<path d="M13.1901 4.88739C13.1876 5.05679 13.185 5.22875 13.1824 5.39814C13.108 5.36477 12.9951 5.34938 12.9617 5.29034C12.7795 4.96182 11.8889 5.42894 12.184 4.7334C12.3791 4.27142 12.8744 4.62304 13.1901 4.88739Z" fill="#C0844B"/>
<path d="M19.0849 8.73045C18.528 8.56619 17.563 9.2104 17.5476 7.96305C18.0583 8.21971 18.5716 8.47637 19.0849 8.73045Z" fill="#BB8047"/>
<path d="M9.56763 4.35722C9.34434 4.32899 8.99016 4.44705 8.94652 4.17243C8.87979 3.75665 9.35974 3.78231 9.59073 3.60009C9.99624 3.86444 9.69339 4.10827 9.56763 4.35722Z" fill="#CB9D6C"/>
<path d="M25.5035 3.60525C25.9526 3.24849 26.3376 3.14583 26.525 3.85677C26.1708 3.82597 25.7704 3.97996 25.5035 3.60525Z" fill="#C08953"/>
<path d="M12.6629 3.59626C12.7451 3.51156 12.8274 3.42735 12.9096 3.34008C13.0867 3.34265 13.2637 3.34265 13.4434 3.34522C13.4511 3.42221 13.4588 3.49921 13.4614 3.57621C13.2022 3.92012 12.9376 3.94788 12.6629 3.59626Z" fill="#B27439"/>
<path d="M13.9515 5.14013C14.1799 5.17606 14.4699 5.0657 14.588 5.36855C14.606 5.41732 14.4725 5.58671 14.3929 5.59954C14.0516 5.65087 13.9874 5.39935 13.9515 5.14013Z" fill="#C18950"/>
<path d="M23.4431 6.17509C23.4431 6.25978 23.4457 6.34191 23.4457 6.42661C23.2737 6.42661 23.1046 6.42653 22.9326 6.42653C22.7478 6.28536 22.563 6.1442 22.3706 5.99534C22.7863 5.79772 23.112 6.00313 23.4431 6.17509Z" fill="#C58D57"/>
<path d="M18.2641 7.72181C18.1819 7.67305 18.0023 7.62172 17.9971 7.55499C17.9817 7.35223 18.1511 7.2547 18.3308 7.2778C18.436 7.29063 18.5951 7.38303 18.6182 7.47029C18.6901 7.75518 18.4335 7.66021 18.2641 7.72181Z" fill="#BB8047"/>
<path d="M23.3224 4.33587C23.3301 4.57199 23.1479 4.60279 22.9836 4.60792C22.8682 4.61306 22.6757 4.57456 22.6526 4.50783C22.5833 4.31534 22.7475 4.21267 22.9092 4.16904C23.0735 4.12284 23.2377 4.14594 23.3224 4.33587Z" fill="#BD834A"/>
<path d="M6.2804 7.18608C6.2727 7.01155 6.265 6.83959 6.2573 6.66507C6.2573 6.46231 6.30093 6.27752 6.49855 6.17229C6.92204 5.99776 7.34552 5.82324 7.769 5.64871C8.20531 5.73597 8.63906 5.82324 9.07538 5.91307C9.12927 6.7472 10.1764 6.19539 10.4023 6.93712C9.69392 6.83446 8.94961 6.624 8.54923 7.4453C8.29514 7.18095 8.04619 7.18608 7.79466 7.45043C7.23259 7.70196 6.9246 6.47514 6.2804 7.18608Z" fill="#B8793C"/>
<path d="M12.8949 27.0706C12.8539 27.3119 12.7281 27.4659 12.4689 27.4274C12.2482 27.3966 12.03 27.2862 12.0865 27.0321C12.1147 26.9115 12.3098 26.7832 12.4509 26.7447C12.6922 26.6805 12.8487 26.8217 12.8949 27.0706Z" fill="#F5E2B6"/>
<path d="M21.3763 27.7482C21.7381 28.4257 21.9152 29.1161 21.2454 29.6936C20.8475 30.035 20.3188 30.1479 19.8081 29.9605C19.1254 29.7116 19.0484 29.1238 19.0895 28.4976C19.1664 28.495 19.2434 28.495 19.3204 28.4925C19.6002 28.3051 19.9646 28.1768 19.8491 27.7199C20.3676 27.2425 20.8732 27.4812 21.3763 27.7482Z" fill="#EFC572"/>
<path d="M17.0193 27.2235C17.5173 28.3939 16.6523 28.1963 16.0133 28.2271C16.2417 27.7856 16.3572 27.2312 17.0193 27.2235Z" fill="#F5D68F"/>
<path d="M19.852 27.7207C20.1036 27.7695 20.4116 27.8105 20.2396 28.175C20.0574 28.5599 19.7571 28.7576 19.3233 28.4932C19.331 28.1211 19.5338 27.8824 19.852 27.7207Z" fill="#F3DFA6"/>
<path d="M24.4897 27.2244C23.6453 28.0251 22.8214 27.73 22.226 26.9908C21.7024 26.3389 21.705 25.5766 22.6417 25.1378C22.6828 25.1711 22.7239 25.2019 22.7675 25.2327C22.9395 25.4997 23.1884 25.7075 23.3809 25.9591C23.6684 26.4518 24.9234 26.1002 24.4897 27.2244Z" fill="#EDBC62"/>
<path d="M24.4899 27.223C24.1665 27.1127 24.5027 26.1913 23.6609 26.6276C23.2426 26.8432 23.2092 26.2914 23.1835 25.9603C23.3555 25.4932 22.8961 25.4136 22.701 25.1723L22.642 25.1364C23.3427 24.464 24.0716 24.5692 24.6439 25.2314C25.1983 25.8756 25.2547 26.6147 24.4899 27.223Z" fill="#EFC471"/>
<path d="M10.068 7.80841C9.0978 8.8684 8.42793 8.0317 7.53733 8.19596C8.41253 7.27457 9.15683 8.26013 10.068 7.80841Z" fill="#B8793C"/>
<path d="M14.7216 9.50099C13.9517 9.50099 13.1817 9.50356 12.4117 9.50356C13.1817 9.15451 13.9517 8.90812 14.7216 9.50099Z" fill="#B6783D"/>
<path d="M9.09308 7.32925C9.75782 7.11109 10.0889 7.29332 10.4457 7.53458C9.90155 8.26091 9.60383 7.69627 9.09308 7.32925Z" fill="#B8793C"/>
<path d="M7.79734 7.44853C7.82557 7.18161 7.89486 6.94291 8.23621 6.98141C8.5057 7.01221 8.52624 7.2355 8.5519 7.44339C8.30038 7.44596 8.04886 7.44853 7.79734 7.44853Z" fill="#C48D55"/>
<path d="M22.7017 25.1736C23.0431 25.2147 23.5153 24.9631 23.6514 25.4944C23.7309 25.8024 23.446 25.9051 23.1843 25.959C23.0072 25.7074 22.2654 25.8024 22.7017 25.1736Z" fill="#F8E4AC"/>
</svg>
