<svg width="34" height="43" viewBox="0 0 34 43" fill="none" xmlns="http://www.w3.org/2000/svg">
<path d="M7.55999 42.331C5.66987 42.1481 4.6026 40.8314 3.58421 39.4497C3.36424 39.21 3.5394 38.9824 3.60865 38.7548C3.77974 38.2753 3.59236 37.7064 3.97527 37.2797C4.75332 36.4141 4.65963 35.1706 5.29917 34.244C5.56395 33.6792 5.81651 33.1102 6.03648 32.525C6.10573 32.3625 6.19943 32.2121 6.30534 32.074C7.09561 31.5457 6.35015 30.5744 6.90822 29.9811C8.49283 29.7738 7.76774 31.5294 8.60282 31.9602C8.81871 32.1349 9.0061 32.334 9.15274 32.5697C9.60491 33.7889 9.5601 34.6545 7.88995 34.1587C6.63937 33.7889 6.91637 34.8617 6.63122 35.4103C6.33793 36.1743 5.788 36.9342 6.59049 37.7145C7.16893 37.9258 7.28299 37.3813 7.56406 37.1212C8.67614 35.9061 10.3422 35.9346 11.6458 35.2762C10.9981 35.2031 10.1711 36.3003 9.57639 35.069C10 34.1831 10.8351 33.3662 10.0163 32.2853C9.86969 31.9277 9.93079 31.566 9.99597 31.2043C10.0408 30.9402 10.11 30.6841 10.2119 30.4362C10.3381 30.1924 10.5296 30.0177 10.7944 29.9323C12.1061 28.2459 10.6274 27.3803 9.65379 26.5391C8.8513 25.8442 7.92253 25.2793 7.16078 24.5112C7.07524 24.3365 7.03858 24.1536 7.03043 23.9626C7.20966 23.2596 7.31558 22.5281 7.73922 21.9104C9.06313 21.5528 8.36655 20.6425 8.27693 19.9029C8.13028 19.7891 8.10584 19.017 7.80848 19.781C7.59665 20.3255 7.78403 20.9595 7.6659 21.5447C7.44186 22.5037 7.24633 23.4872 5.89798 22.6012C5.47026 22.3208 4.99773 22.455 4.54964 22.6378C4.37041 22.711 4.19117 22.7679 4.00379 22.8207C3.53126 22.9101 3.04651 23.1011 2.62693 22.6866C2.09737 21.569 2.98948 21.1017 3.62088 20.5125C4.31745 19.6347 5.3562 18.9479 5.20956 17.6272C4.7248 17.4687 4.50483 18.0661 4.07304 18.0254C3.42127 19.5778 1.57596 20.8376 2.89171 22.8776C3.42127 23.4384 3.35202 24.0927 3.20537 24.7957C3.40498 24.1699 3.60865 23.8245 4.43151 24.1252C5.4499 24.495 5.30732 25.6735 6.12203 26.1002C6.43977 25.9417 6.75343 25.836 7.03858 26.153C7.3889 27.0511 7.65775 27.9533 7.14041 28.8839C6.77787 29.2821 6.45606 29.7129 6.21165 30.1924C5.46212 31.2531 4.36226 30.3103 3.48237 30.6679C3.29092 30.6516 3.12798 30.5744 2.99762 30.4403C2.61064 29.8551 2.65952 29.1887 2.65545 28.5344C2.82653 28.2906 3.07502 28.2174 3.35609 28.2418C3.47015 28.2865 3.58829 28.3068 3.70642 28.2987C3.82863 28.2865 3.93454 28.2377 4.0323 28.1565C3.90195 28.0467 3.82863 28.2621 3.70235 28.2093C3.43349 28.1361 3.18908 27.9492 2.89578 28.1036C2.60656 28.2824 2.58212 28.5953 2.4925 28.8757C2.03627 29.148 1.76741 28.7863 1.45375 28.575C1.32747 28.4816 1.21341 28.3718 1.11157 28.254C0.977147 28.0671 0.907896 27.8395 0.765323 27.6525C-0.171592 23.3896 -0.416004 19.147 0.997514 14.9207C2.80209 9.51989 6.36644 6.22415 12.1305 5.49673C13.0674 5.55769 13.5481 6.17132 13.8862 6.95157C13.8169 7.45548 13.5277 7.59772 13.0593 7.45548C12.2323 6.68336 11.381 6.9597 10.5255 7.46361C11.3728 7.50425 12.2486 6.47204 13.0756 7.46767C13.5929 8.77215 12.5134 8.86968 11.7557 9.21511C11.3525 9.44268 10.994 9.7434 10.5744 9.94659C10.3137 10.1498 9.82488 9.98723 9.73933 10.4221C9.71897 10.5358 10.0204 10.609 10.1793 10.6943C10.6803 11.0235 11.2425 11.0926 11.8209 11.1129C11.9879 11.1373 12.1468 11.182 12.3016 11.2429C12.6804 11.4258 13.0959 11.4746 13.5114 11.5355C13.6866 11.5802 13.8455 11.6493 14.0003 11.7428C14.3628 12.0313 14.7009 12.3361 14.7294 12.8441C13.707 14.0876 14.5339 15.3474 14.6928 16.599C14.4687 16.9729 14.0247 17.1354 13.8047 17.5134C13.5277 17.9482 13.2629 18.3912 12.6845 18.4684C11.8087 18.318 11.7761 18.7203 12.1101 19.3583C12.269 19.6834 12.3994 20.0167 12.4197 20.3824C12.4238 20.5694 12.3953 20.7563 12.3545 20.9351C11.9798 21.7682 12.5216 21.9185 13.153 22.1502C13.7477 22.3696 14.2569 22.8857 13.764 23.5562C12.6723 25.0477 12.6397 26.6285 13.1855 28.6563C13.1774 28.571 13.5074 28.2215 13.2589 28.3271C13.0022 27.6607 12.823 27.0186 13.7233 26.6732C14.4158 26.6894 15.1042 26.7138 15.7234 27.0836C16.1348 27.5388 15.8741 27.9898 15.7193 28.445C15.5523 29.2659 14.4198 29.6763 14.7702 30.7045C15.0309 30.8914 15.316 31.0458 15.483 31.3343C15.5238 31.9358 14.9046 32.0699 14.6724 32.4803C14.5339 32.6917 14.3872 32.8948 14.1876 33.0533C13.9799 33.2159 13.5522 33.1305 13.6133 33.5735C14.0125 33.7767 14.4687 33.7279 14.8476 33.9433C15.0105 34.053 15.096 34.2075 15.1205 34.4025C14.7498 35.4469 14.3261 36.4141 13.2548 37.0074C12.8149 37.2512 13.5074 37.1578 13.5196 37.3488C14.3302 38.6817 13.2955 38.8199 12.4279 38.9296C11.8657 39.0027 11.3158 38.4582 10.7007 38.7589C10.5581 38.9336 9.94301 38.2022 10.163 39.0515C10.5703 39.6448 11.9228 38.1006 11.8331 39.7911C11.8209 40.0024 11.8413 39.9577 11.9757 39.7789C12.9615 38.4501 14.6968 38.4622 15.9433 37.5845C16.481 37.4219 17.0636 37.3122 17.3894 37.8771C17.6827 38.381 17.2346 38.7386 16.9332 39.0962C16.3385 39.5432 15.646 39.848 15.0879 40.3519C14.5991 40.6648 13.9188 40.7908 13.8943 41.5629C13.3078 42.1725 12.5256 42.2213 11.7557 42.3066C10.3667 42.6154 8.96129 42.5829 7.55999 42.331Z" fill="#EA554B"/>
<path d="M23.4826 6.50767C23.6129 6.17851 23.8858 6.07285 24.2117 6.04846C25.499 6.20289 26.4888 6.5605 25.6578 8.15351C25.666 9.53114 26.8921 8.54363 27.3565 9.02723C27.6131 9.13288 27.8738 9.23448 28.1345 9.33607C28.5663 9.3442 28.9696 9.41735 29.2303 9.81154C29.4381 10.3845 28.603 11.0591 29.4055 11.5712C29.5969 11.7581 29.7721 11.9532 29.931 12.1645C30.155 12.6156 30.8068 12.9285 30.4076 13.5868C29.8699 13.9485 29.3036 13.8103 28.7293 13.6884C27.5398 13.4324 27.8372 14.1923 27.9634 14.8263C27.772 16.9963 27.0958 17.358 25.3849 16.147C24.5132 15.5293 23.5722 14.9644 22.9448 14.0541C22.6638 13.6356 22.4642 13.1723 22.2768 12.709C21.955 11.6321 21.2665 11.6565 20.4111 12.0548C19.1768 12.6318 17.8611 12.8106 16.5168 12.705C15.8854 12.6562 15.1318 12.7781 14.8874 11.9044C15.6858 11.0063 16.0809 9.62867 17.6167 9.60835C17.7918 9.66931 17.8326 9.92126 18.0566 9.9172C17.9344 9.89688 17.8407 9.83592 17.7674 9.71401C17.4415 9.39297 17.193 9.05567 17.3356 8.57208C18.3051 7.7959 19.6575 8.66148 20.6107 7.81622C20.8429 7.66992 21.1769 7.43828 21.3521 7.54801C22.676 8.39327 23.1241 7.55613 23.4826 6.50767Z" fill="#7DA956"/>
<path d="M32.1102 15.8385C33.5033 18.8335 33.2589 21.8244 32.0939 24.8154C31.6865 24.4375 31.2914 24.1205 30.8759 24.8276C30.6193 25.2665 30.4726 25.7826 30.0367 26.0996C29.3972 26.3231 29.1283 26.7294 29.385 27.404C29.1854 28.4606 28.3707 28.8304 27.4785 29.1108C26.4846 29.2449 26.509 30.5291 25.6047 30.7607C24.2808 30.7851 24.843 29.9073 24.8837 29.2774C24.9815 28.737 24.6882 28.3021 24.4723 27.8511C24.3623 27.4853 24.3582 27.1236 24.4886 26.762C24.5619 26.2337 25.8654 26.6644 25.2951 25.4128C24.8022 24.3359 25.7473 23.3118 26.786 22.6738C27.2667 22.4381 27.56 22.0439 27.7148 21.5359C27.8411 21.288 28.0203 21.1011 28.3096 21.0564C28.4806 21.1173 28.611 21.2311 28.7006 21.3896C29.0061 21.8691 28.6151 22.5031 29.0632 22.942C29.5357 22.8607 29.5479 22.434 29.6946 22.117C29.8412 21.0239 29.1609 19.7519 30.3789 18.8944C30.7781 18.5287 30.8351 18.0492 30.8229 17.5453C30.8148 17.3746 30.8229 17.2039 30.8351 17.0332C30.9125 16.2774 31.0836 15.6028 32.1102 15.8385Z" fill="#EA5146"/>
<path d="M29.6984 26.044C29.9958 25.4589 30.2157 24.8087 30.619 24.3047C30.9164 23.9349 31.2545 23.2441 31.8452 23.5082C32.281 23.7033 32.0488 24.3616 32.0936 24.8127C31.169 27.4745 29.8369 29.8762 27.6861 31.7659C25.9263 31.8756 25.1931 33.0582 24.7572 34.5496C22.586 36.6709 20.1785 38.4671 17.433 39.7837C17.2945 39.6456 17.2293 39.479 17.2252 39.2839C17.6326 38.5565 17.657 37.7031 17.9748 36.9431C18.2518 36.5652 18.5858 36.236 18.9605 35.9516C19.3883 35.7199 19.8201 35.4964 20.0808 36.1507C20.1459 36.3011 19.9667 36.5368 20.2152 36.6262C20.2437 36.6343 20.3415 36.4189 20.3985 36.2889C20.0075 34.6349 21.4576 33.6068 21.7713 32.1966C21.8935 31.7456 22.2112 31.4083 22.4516 31.0263C23.14 29.6446 23.7022 30.0022 24.2113 31.14C24.6839 31.4814 24.9731 31.0181 25.3397 30.8881C25.5027 30.8068 25.6697 30.7459 25.8448 30.693C26.6147 30.3232 27.1728 29.799 27.2217 28.8846C28.0201 28.4823 28.8837 28.1572 29.2381 27.2225C29.0711 26.7064 29.287 26.3407 29.6984 26.044Z" fill="#E94E43"/>
<path d="M28.1345 9.33607C27.8209 9.35233 27.5071 9.3642 27.1935 9.38046C26.6476 8.76276 25.5803 9.01065 25.1689 8.16945C26.004 6.94218 24.8064 6.63365 24.2117 6.04846C25.78 4.93092 27.6945 4.71116 29.4461 4.07721C30.4767 3.70334 30.8189 4.27227 30.546 5.22726C30.2079 6.41795 29.6213 7.46235 28.5499 8.17351C28.1344 8.44985 27.4868 8.66961 28.1345 9.33607Z" fill="#82AD62"/>
<path d="M5.65254 34.1866C5.01707 35.2351 5.6118 36.9175 3.96202 37.4377C3.43653 37.9863 4.28383 38.4902 4.0109 39.0266C3.86833 39.1648 3.72575 39.307 3.58725 39.4452C1.3631 36.5721 1.66047 33.0528 1.10647 29.749C0.874276 29.1841 0.83354 28.6274 1.13906 28.0747C1.27756 28.0787 1.42013 28.0787 1.55863 28.0828C1.72972 28.7005 2.16966 29.2207 2.23076 29.879C2.12893 30.4601 2.12485 31.0412 2.28779 31.598C2.82143 31.4192 2.68293 30.708 3.17583 30.513C3.31025 30.513 3.44468 30.513 3.57911 30.513C4.48343 30.9071 4.39789 31.6264 4.13718 32.3498C3.9498 32.8659 3.80315 33.3535 4.10867 33.8615C4.13718 33.9062 4.05978 34.1501 4.23902 33.9916C4.32457 33.9184 4.3653 33.7721 4.49565 33.703C4.98448 33.4064 4.92338 34.5117 5.46516 34.081C5.53033 34.1135 5.59144 34.15 5.65254 34.1866Z" fill="#EB5A4F"/>
<path d="M20.7086 8.11386C19.788 9.3777 18.5211 8.39833 17.4375 8.61371C17.2909 8.72343 17.132 8.74781 16.9609 8.69092C16.6595 8.49586 16.4925 8.22765 16.4762 7.87003C16.3051 7.18325 15.6207 7.54087 15.2419 7.28078C14.1013 6.81751 13.2418 5.91941 12.1867 5.31797C12.036 5.10259 11.8283 4.90753 11.7468 4.67183C11.6083 4.25732 11.0258 3.89158 11.372 3.4405C11.7712 2.91627 12.1745 3.47707 12.5819 3.60711C12.8263 3.68432 13.0992 3.65994 13.3599 3.68432C15.413 4.3833 16.6065 6.44364 18.7411 7.18325C18.8266 6.17543 17.8327 6.17949 17.576 5.61056C17.2705 4.94004 17.3235 4.54991 18.1952 4.94816L18.2359 4.96036C19.1362 4.16385 19.9142 3.87939 20.4886 5.3261C20.7045 5.87065 21.2585 6.26077 21.3359 6.89472C21.3563 7.41082 20.9367 7.71154 20.7086 8.11386Z" fill="#75A44D"/>
<path d="M21.1114 6.92322C20.9077 6.6672 20.704 6.41118 20.5044 6.1511C19.9341 5.40742 19.5593 4.29394 18.2436 4.95228C19.0501 4.01354 18.1255 2.90006 18.541 1.93288C18.8505 1.21359 18.6021 0.112298 19.8445 0.00663926C21.1277 -0.103083 20.6062 1.17701 21.1358 1.64028C20.8303 1.94913 20.374 2.17671 20.5125 2.73751C20.647 3.11138 20.6755 3.50963 20.8018 3.8835C20.6714 3.44867 20.647 2.99759 20.5533 2.5587C20.5655 2.13607 20.8751 1.8963 21.1317 1.62403C21.7957 3.08293 22.4556 4.54183 22.7367 6.13484C22.4556 6.93541 22.1297 7.64251 21.1114 6.92322Z" fill="#86B162"/>
<path d="M18.2003 4.9397C18.0699 4.97221 17.854 4.96815 17.8255 5.0413C17.5852 5.65899 18.1432 5.61023 18.4569 5.72808C19.3164 6.04099 19.956 6.63431 19.4305 7.49177C18.738 8.6215 18.2125 7.32921 17.6218 7.23981C15.8743 6.96754 15.7521 4.36671 13.6664 4.72839C13.3487 4.78528 13.3772 4.07005 13.365 3.67586C15.1044 3.60678 16.7867 3.7612 18.2003 4.9397Z" fill="#80B15D"/>
<path d="M32.1102 15.8385C31.5684 16.0904 31.0961 16.3877 31.2753 17.111C30.6602 16.9891 30.0084 17.2573 29.4137 16.9281C28.8108 16.1723 28.6234 15.0872 27.5928 14.6768C27.1977 14.1485 27.1244 13.543 27.5317 13.0594C28.0002 12.5067 28.4605 13.1488 28.933 13.2463C29.4381 13.3479 29.9514 13.4333 30.4565 13.5267C30.8517 13.4617 31.1816 13.543 31.3731 13.9372C31.6216 14.5671 31.8658 15.2045 32.1102 15.8385Z" fill="#E34E37"/>
<path d="M31.3728 13.9344C31.0673 13.7962 30.7618 13.6621 30.4563 13.5239C30.273 13.0403 29.5845 12.8778 29.6416 12.2398C29.7882 12.0609 29.9756 11.9309 30.1956 11.8578C30.9044 11.6464 31.5358 11.8943 32.159 12.1991C32.6356 12.3739 33.4137 12.4551 33.2996 13.0363C33.1122 14.0197 32.1142 13.8165 31.3728 13.9344Z" fill="#7EB15F"/>
<path d="M24.7579 34.5566C24.3913 32.4475 25.7763 31.1308 27.6868 31.7729C26.8557 32.8498 26.0451 33.9552 24.7579 34.5566Z" fill="#EB5B50"/>
<path d="M21.1114 6.92322C21.8894 7.14673 22.2772 6.56932 22.7334 6.1345C22.986 6.26047 23.2345 6.38239 23.487 6.50837C23.7559 6.60183 24.371 6.6953 23.931 7.02447C23.2182 7.55683 23.1082 8.37365 22.5501 9.22705C22.2242 8.19484 21.7965 7.44304 20.717 8.11356C20.8433 7.71531 20.9769 7.31741 21.1114 6.92322Z" fill="#689543"/>
<path d="M32.1634 12.1928C31.4627 12.201 30.7621 12.2132 30.0573 12.2213C29.65 11.9328 29.7192 11.376 29.3974 11.0347C29.3771 10.7664 29.0349 11.0143 29.2997 10.9818C29.4015 10.9696 29.4708 11.1647 29.4708 11.3069C29.4708 11.5142 29.3934 11.6849 29.2304 11.8149C27.4869 11.1484 28.5989 10.478 29.2303 9.81154C30.3994 10.3723 31.2916 11.2744 32.1634 12.1928Z" fill="#8AAE68"/>
<path d="M17.4328 39.4659C17.4328 39.5756 17.4328 39.6813 17.4328 39.791C16.3736 40.6119 15.2534 41.3109 13.9051 41.5669C13.5547 40.4331 13.8358 40.0958 15.0009 40.2583C15.51 39.8398 15.9907 39.3805 16.671 39.2383C16.9724 39.1489 17.2291 39.218 17.4328 39.4659Z" fill="#E94E42"/>
<path d="M12.1916 5.31493C13.5684 5.26616 14.322 6.43247 15.4056 6.9567C15.5237 7.14364 15.5074 7.31838 15.3526 7.47687C14.6683 7.76133 14.1876 7.44842 13.7762 6.94451C13.2303 6.46498 12.6804 5.98546 12.1345 5.50593C12.1019 5.42465 12.1223 5.3637 12.1916 5.31493Z" fill="#7DA756"/>
<path d="M7.55999 42.331C8.96129 42.3269 10.3622 42.319 11.7635 42.3149C10.3663 42.957 8.96536 42.9202 7.55999 42.331Z" fill="#EB5A4B"/>
<path d="M1.13864 28.0762C1.12642 28.6329 1.11827 29.1937 1.10605 29.7505C0.686475 29.1043 0.609078 28.4013 0.763873 27.6576C0.890152 27.7998 1.01236 27.938 1.13864 28.0762Z" fill="#F08378"/>
<path d="M17.434 39.4644C17.1489 39.4482 16.8678 39.4319 16.5827 39.4156C16.4564 39.3181 16.4238 39.2328 16.4768 39.1515C16.5256 39.0784 16.5745 39.0418 16.6234 39.0418C17.6703 37.7576 16.7864 37.7617 15.8087 37.8226C15.772 37.7373 15.7395 37.652 15.7028 37.5666C15.4462 37.2253 16.7171 36.6076 15.3362 36.3434C13.9838 36.0833 15.5643 34.8479 14.9981 34.1652L15.0021 34.1693C14.7374 33.7995 14.8351 33.3647 14.7862 32.9583C14.7699 32.5763 14.493 32.3893 14.216 32.2065C14.6111 31.9058 15.0062 31.6091 15.4014 31.3084C15.1529 30.8898 15.2303 30.4143 15.1692 29.9633C15.7313 27.9517 16.1264 27.8216 17.9799 29.0327C18.2488 29.0814 17.8984 29.0489 18.1347 29.1464C18.5624 29.3252 18.8679 29.1505 19.1816 28.9229C18.8761 29.0327 18.5787 29.2074 18.2406 29.0245C17.0511 26.7529 17.4381 25.9076 20.0411 25.0705C20.4729 24.9485 20.8884 24.7657 21.2265 24.4771C21.7113 24.0708 21.1002 24.2414 21.0106 24.1277C20.1633 23.705 19.923 22.7907 19.369 22.1323C19.2794 21.9698 19.2264 21.7991 19.1979 21.6162C19.1897 21.4334 19.2142 21.2505 19.2549 21.0757C19.7437 20.2386 18.6072 19.629 18.9331 18.8163C20.143 18.6131 18.9657 17.7678 19.3282 17.333C19.6745 16.5649 20.3955 16.3333 21.1125 16.1017C22.3549 16.0935 23.6747 15.931 24.0943 17.5768C24.025 18.1376 23.5158 18.414 23.2755 18.861C23.691 18.4587 24.0332 17.841 24.7868 18.2351C25.1493 18.6903 24.9782 19.1292 24.7623 19.5721C24.5994 19.9013 24.4365 20.2305 24.3265 20.584C24.0495 21.7178 23.6055 22.8029 23.3122 23.9367C23.2877 24.5991 23.5525 25.1924 23.7277 25.806C23.6625 26.2611 23.6381 26.6675 24.3061 26.3262C24.5668 26.4156 24.6238 26.6797 24.7664 26.8667C24.7664 27.2649 24.7623 27.6632 24.7623 28.0614C24.8683 28.48 24.8764 28.9351 25.1656 29.2968C26.2329 29.3903 24.3102 30.4997 25.5852 30.5241C25.7237 30.6135 25.7685 30.7069 25.7237 30.8004C25.6789 30.8939 25.6341 30.9386 25.5852 30.9386L25.5893 30.9345C24.9986 31.1174 24.7461 31.9667 23.9558 31.7473C23.4099 32.0724 23.8784 29.4431 22.7908 31.349C22.3101 31.1255 21.862 31.6294 21.3772 31.4059C20.7581 31.0605 20.9291 30.3737 20.7132 29.817C20.1715 30.1705 19.6867 30.5078 19.98 31.2474C20.2611 31.8773 20.3059 32.9055 21.4261 32.0764C21.6013 32.0195 21.7642 32.0439 21.919 32.1415C21.9923 32.495 22.8111 32.7795 22.3508 33.0477C20.9129 33.893 21.0758 35.36 20.7132 36.6279C20.5503 36.2662 20.2692 36.1484 19.8904 36.2256C19.6297 35.7582 19.369 36.1646 19.1083 36.2215C18.6561 36.3394 18.3628 36.6157 18.265 37.079C18.0532 37.8877 18.1428 38.8142 17.434 39.4644Z" fill="#EB584E"/>
<path d="M12.1496 20.3808C12.0151 20.0923 11.8766 19.8078 11.7422 19.5193C11.9866 19.2023 12.284 18.9626 12.6791 18.8528C12.9724 18.7838 13.2616 18.796 13.5509 18.8732C13.7423 18.9382 13.9216 19.0398 14.1089 19.1129C17.1234 20.2142 17.1234 20.2142 16.3372 23.1076C16.2679 23.3677 16.6386 23.1645 16.3657 23.1727C16.0561 23.1808 16.8667 21.4415 17.2863 21.2505C18.1336 20.8604 18.5043 21.4943 18.9198 22.0307C19.1194 22.4574 19.4168 22.8191 19.7101 23.1889C20.0156 23.6888 20.2722 24.2008 20.0482 24.8063C18.1458 24.7982 17.7018 26.2774 17.0378 27.6266C16.769 28.1711 16.1498 28.5938 15.3921 28.484C15.5265 28.0777 15.661 27.6713 15.7995 27.2649C15.4858 26.5294 14.6589 26.822 14.166 26.4481C13.9704 26.2449 13.8971 26.0011 13.9175 25.7247C13.946 25.5419 14.0193 25.3671 14.0519 25.1883C14.0967 24.9201 13.9582 24.7616 14.0315 25.0217C14.1049 25.2818 13.7016 24.9485 13.9256 25.1152C13.7179 25.6353 13.7545 26.0945 14.1782 26.4765C14.2393 26.7976 14.1782 26.9926 13.7871 26.8707C13.4531 27.0617 13.2983 27.3624 13.4327 27.716C13.6486 28.2849 14.447 29.0205 13.3838 29.309C12.6221 29.5163 12.6954 28.4312 12.6384 27.9923C12.5284 27.1877 12.0966 26.6878 11.3226 26.0417C12.504 25.9645 13.2331 25.7003 12.4388 24.6031C12.2392 24.3227 12.2514 24.0301 12.3573 23.6644C12.5366 23.0345 13.9379 24.0342 13.4653 22.8638C13.115 22.0023 12.1333 22.6362 11.4408 22.429C11.62 21.8316 11.62 21.2017 12.1129 20.7669C12.2229 20.8116 12.3369 20.8604 12.4429 20.9132C12.5325 20.6247 12.2636 20.5475 12.1496 20.3808Z" fill="#EA5146"/>
<path d="M14.586 16.6877C13.6532 15.3385 12.924 13.9934 14.5738 12.6361C15.2582 12.1931 16.0158 12.5386 16.7287 12.437C18.3948 13.7658 17.5638 15.6067 17.5719 17.216C17.576 17.7402 17.5434 18.5205 17.1564 19.0894C15.1074 19.4511 14.9649 19.317 15.4781 17.5127C15.7144 17.2973 16.0077 17.1103 15.914 16.7121C15.7999 16.899 15.8447 17.1835 15.5433 17.2607C15.1767 17.3542 14.916 17.2038 14.6838 16.9478C14.6512 16.8624 14.6186 16.7771 14.586 16.6877Z" fill="#E9463E"/>
<path d="M9.69276 34.9806C10.3282 35.7486 10.8945 35.1838 11.4403 34.8627C11.754 34.6799 11.9739 34.1556 12.3732 34.7083C12.5239 34.9156 12.7072 35.2203 12.6583 35.4276C12.5442 35.9234 12.1124 35.5008 11.8517 35.6064C10.4504 36.1591 8.97174 36.5411 7.72117 37.427C7.37899 37.3051 7.21197 37.0165 7.03274 36.7321C6.82091 36.2932 6.48688 35.9071 6.438 35.3992C6.34838 33.4038 6.64168 33.1478 8.19777 33.8752C8.92286 34.2125 9.00026 34.0581 8.88213 32.5423C8.6092 32.01 8.99618 31.7133 9.28948 31.3801C9.42798 31.2622 9.58685 31.1728 9.75794 31.1078C10.039 31.0509 10.2916 31.0997 10.5034 31.311C10.373 31.5873 10.2386 31.8677 10.1083 32.1441C11.0737 33.2453 9.91681 34.0459 9.69276 34.9806Z" fill="#EB5A4F"/>
<path d="M6.84192 28.8866C7.2452 27.9153 6.65046 26.9522 6.80933 25.981C6.3368 25.282 6.51196 24.77 7.25742 24.4164C8.91535 25.2901 10.504 26.2248 11.5632 27.8666C12.166 28.8053 11.8687 29.6953 11.4287 30.4633C11.1599 30.9347 10.9806 30.3943 10.9114 30.0976C10.6588 30.0163 10.6833 29.2727 10.17 29.7928C10.0193 29.8741 9.86449 29.9066 9.69747 29.9066C8.89499 29.5043 8.98053 28.85 9.19643 28.1592C9.37159 27.9357 9.73414 27.7325 9.29827 27.4358C9.08237 27.6512 9.4938 27.6471 9.42862 27.8097C9.38381 27.9885 9.28605 28.1185 9.1394 28.2161C8.7076 28.6306 8.26359 29.0288 7.7381 29.3011C7.33075 29.5124 6.82155 29.7115 6.84192 28.8866Z" fill="#E94E43"/>
<path d="M8.04418 21.9696C7.29057 22.4694 8.0401 23.5911 7.17651 24.0462C6.43105 24.668 6.53697 25.7002 6.03185 26.4357C6.06851 26.6308 6.19072 26.9559 6.12961 26.9965C5.60005 27.3338 5.34342 26.8218 5.3312 26.5251C5.28639 25.4238 4.90348 24.6517 3.73844 24.4282C3.30257 25.0134 4.43094 25.6636 3.54699 26.3382C2.65488 25.2735 3.00521 23.9609 2.76894 22.7945C3.20074 22.6726 3.63253 22.5548 4.06433 22.4329C4.17431 22.7295 4.2843 22.7336 4.39021 22.4288C5.02976 21.7258 5.62857 21.2828 6.45142 22.2947C6.79767 22.7173 6.92395 22.6157 7.24984 21.5754C7.4861 21.3397 7.75088 21.3316 8.03603 21.4698C8.16638 21.6323 8.17046 21.7989 8.04418 21.9696Z" fill="#E94E43"/>
<path d="M15.8079 17.5109C14.6388 19.2258 16.5045 18.6813 17.0259 19.1364C17.4373 18.6569 17.0136 17.7344 17.9017 17.4946C18.1542 17.4255 18.305 17.5597 18.3946 17.7222C18.8182 18.4699 18.5657 19.1283 18.0728 19.7419C17.9017 19.9532 17.8039 20.1971 17.8121 20.4775C17.8895 19.9695 18.2153 19.6931 18.7001 19.7744C19.5026 19.9085 19.47 20.5628 19.4618 21.1764C19.4456 21.3471 19.4293 21.5178 19.417 21.6925C19.1971 21.9689 19.303 22.5256 18.7205 22.485C16.924 19.7582 17.0951 23.3384 15.9871 23.2368C16.0686 22.7491 16.0727 22.1883 16.256 21.7007C16.7204 20.4734 16.3293 19.872 15.0421 19.9695C14.2518 20.0304 13.82 19.5712 13.3312 19.1242C12.936 18.4618 14.1866 17.8522 13.3923 17.1777C13.6204 16.6047 14.1296 16.7184 14.5858 16.6941V16.6981C14.7773 17.2914 15.4046 17.2305 15.8079 17.5109Z" fill="#EC6154"/>
<path d="M13.7714 6.93871C14.3091 7.0972 14.8509 7.25163 15.3886 7.41012C15.8327 7.37354 16.2726 7.32884 16.5659 7.77586C16.7492 8.05219 16.9366 8.3326 17.1199 8.60894C16.4233 9.92154 14.9365 10.5514 14.2725 11.8925C14.0892 11.99 13.9222 11.9656 13.7714 11.8234L13.7551 11.8112C13.2785 11.4292 12.6349 11.7177 12.142 11.413H12.1379C11.7795 11.0757 11.7184 10.649 11.755 10.1938C11.8121 9.7915 11.7184 9.43795 11.421 9.14129C11.3884 9.07221 11.3599 9.00312 11.3273 8.92997C11.8365 8.36917 13.246 8.73085 12.9527 7.34916C13.2908 7.34509 13.5963 7.26788 13.7714 6.93871Z" fill="#E95B4D"/>
<path d="M15.3961 28.4824C16.3615 27.7794 18.0072 25.3452 18.4472 23.9676C18.9889 24.1464 18.8952 25.4102 19.8851 24.821C20.0155 24.6828 20.1621 24.6584 20.3251 24.7681C20.4065 24.9347 20.3862 25.0851 20.2477 25.2151C19.7303 25.3249 19.9136 26.6537 18.8097 25.9019C18.1742 25.4671 18.1742 26.4465 18.1416 26.7553C18.0642 27.4502 18.1987 28.1695 18.2476 28.8807C18.1987 29.1042 18.0683 29.2424 17.8402 29.2871C16.7037 28.6003 15.6527 28.1655 15.3879 30.0998C15.3024 30.559 15.0254 30.8313 14.5691 30.9166C13.9663 31.1849 13.5345 31.0426 13.897 30.364C14.2718 29.6691 14.8869 29.1042 15.3961 28.4824Z" fill="#E9493F"/>
<path d="M13.7718 11.8284C13.9266 11.8121 14.0813 11.7918 14.2321 11.7755C14.4806 11.5927 14.6883 11.6374 14.8635 11.8853C16.8228 12.4339 18.8515 12.4705 20.5624 11.422C22.3669 10.3207 22.4525 11.3448 22.6113 12.6249C21.7111 13.6937 20.1957 13.3685 19.0796 14.226C18.3626 14.7746 17.7475 13.1938 17.0143 12.6533C16.1996 12.6493 15.3849 12.6452 14.5742 12.6452C14.3095 12.3689 14.0406 12.0966 13.7718 11.8284Z" fill="#E34F3E"/>
<path d="M4.80109 33.7628C4.28375 34.0148 4.52817 34.6203 4.24302 34.986C3.39165 34.0107 2.93949 33.0395 3.88455 31.8285C4.19414 31.4343 3.76642 30.9426 3.58311 30.5159C3.65643 29.9754 3.8764 29.5406 4.44262 30.016C5.0007 30.4834 5.48138 30.4427 6.0313 30.1014C6.30423 29.8616 6.57309 29.8941 6.84194 30.1095C7.50593 31.735 7.45297 32.0154 6.44681 32.1373C6.23091 32.0276 6.05575 31.8447 5.80319 31.8285C5.48138 32.1617 5.50989 32.5762 5.4936 32.9826C5.49767 33.1614 5.47323 33.3361 5.42435 33.5068C5.28177 33.7588 5.11883 33.9457 4.80109 33.7628Z" fill="#E94E43"/>
<path d="M10.4723 38.6227C10.9733 38.2976 11.2422 37.0866 12.1302 38.4439C12.4439 38.9193 13.8411 38.9031 13.3645 37.4279C14.2444 36.3469 14.3544 36.3632 15.8045 37.8262L15.8086 37.8302C15.6905 38.0578 15.6009 38.4601 15.4501 38.4845C13.6619 38.773 12.2606 39.7199 10.9244 41.2316C10.6963 40.2645 11.7554 40.0531 11.5681 39.3501C10.9367 39.2729 9.93864 41.1382 9.6983 39.0453C9.8368 38.6877 10.0527 38.4683 10.4723 38.6227Z" fill="#EB584E"/>
<path d="M6.83823 30.1082C6.56938 30.1042 6.30052 30.1042 6.0276 30.1001C6.01538 29.5068 6.01538 28.9216 6.83823 28.8891C7.94624 29.4946 8.17435 27.479 9.28236 28.0763C9.42086 28.6209 9.56343 29.1654 9.70193 29.71C10.1174 30.2302 10.1297 30.7584 9.72637 31.2908L9.66934 31.3436C9.24162 31.5753 8.91166 31.9573 8.45135 32.1361C7.86884 32.4043 7.6285 32.2336 7.64072 31.5793C7.66109 30.9616 7.83218 30.2017 6.83823 30.1082Z" fill="#EB5A4F"/>
<path d="M7.66478 13.0602C7.74218 13.6617 8.05176 13.7917 8.34099 13.2472C8.75649 12.4669 9.35937 12.0849 10.3411 12.1134C8.6465 13.2675 8.61391 15.8643 6.20645 16.5348C7.59553 15.5635 6.12498 14.7426 6.19423 13.8608C6.23089 13.4219 5.93352 12.9668 6.45086 12.6335C6.846 12.8042 7.31038 12.7758 7.66478 13.0602Z" fill="#EC6559"/>
<path d="M15.7998 37.8236C14.8874 38.3031 14.4148 36.0883 13.3598 37.4253C13.0339 37.4619 12.6388 37.6326 12.3984 37.5066C12.0848 37.344 12.3495 36.9458 12.5573 36.893C13.983 36.515 14.1908 35.0846 14.9892 34.1662C16.7042 34.5725 14.6348 35.4137 15.3029 36.0355C15.364 36.0518 15.5758 36.1859 15.7265 36.133C16.3049 35.9298 16.9038 35.9583 17.0748 36.5516C17.307 37.3562 16.2316 36.4581 16.1664 37.1165C16.142 37.3603 15.9302 37.5879 15.7998 37.8236Z" fill="#E7463E"/>
<path d="M3.99444 20.7747C3.39156 21.3314 2.54833 21.7419 2.77238 22.7944C1.01668 22.4408 1.90064 20.9535 2.14505 20.4293C2.59314 19.4743 3.24898 18.6412 3.25306 17.5074C3.25306 17.2554 3.47303 16.9385 3.7541 17.0441C4.13702 17.1904 3.95371 17.6293 4.02296 17.9382C4.27959 18.0479 4.51586 18.182 4.61769 18.4664C4.80915 19.3442 4.07591 19.9741 3.99444 20.7747Z" fill="#EC6559"/>
<path d="M7.33878 10.3688C6.41408 11.4376 5.08203 12.104 4.49544 13.4654C4.38953 13.7092 4.05958 13.819 3.81516 13.6036C3.50557 13.3313 3.59927 12.9534 3.81109 12.6974C4.73578 11.5676 5.77861 10.6004 7.33878 10.3688Z" fill="#EC6358"/>
<path d="M3.9955 20.7725C3.22153 19.8053 4.49654 19.2039 4.42322 18.3627C4.7491 17.875 4.28065 16.7087 5.56381 17.0379C6.61071 18.9357 4.7491 19.6224 3.9955 20.7725Z" fill="#F09187"/>
<path d="M12.9319 7.34994C12.3371 7.38652 11.665 7.15488 11.3432 8.05298C11.2291 8.37402 10.614 8.71538 10.1782 8.21147C9.92152 7.91887 9.55083 7.5003 9.60786 7.21584C9.70562 6.75257 10.2352 6.56969 10.7281 6.67129C11.4898 6.82571 12.5327 6.10642 12.9319 7.34994Z" fill="#E95B4D"/>
<path d="M10.1786 41.8901C7.99522 41.7479 6.29248 41.6991 5.22929 39.8013C6.98498 40.0858 8.31296 41.0001 10.1786 41.8901Z" fill="#EC655B"/>
<path d="M8.0676 21.577C7.79468 21.577 7.52175 21.573 7.24882 21.573C7.24882 20.9634 7.22438 20.3579 7.24882 19.7483C7.27326 19.1875 7.04922 18.3179 7.99428 18.4235C9.01266 18.5332 8.81713 19.2728 8.46274 19.9434C8.73974 20.5855 8.50755 21.1056 8.0676 21.577Z" fill="#E73C33"/>
<path d="M3.18051 30.5113C3.24569 31.1981 2.99313 31.7995 2.63465 32.3563C2.50837 32.5513 2.27618 32.8439 2.05621 32.4944C1.92993 32.2994 1.99103 31.9905 1.96659 31.7304C2.19878 31.1778 1.84439 30.5641 2.15398 30.0236C2.21101 29.6457 2.0277 29.2231 2.36173 28.898C2.38617 28.455 2.2884 27.9755 2.75279 27.6707C2.98498 27.9145 3.02164 28.1705 2.80167 28.4428C3.12348 29.0971 3.23754 29.7879 3.18051 30.5113Z" fill="#E94E43"/>
<path d="M6.43498 35.3949C6.93602 35.6428 7.2782 35.9964 7.25783 36.5978C7.2171 37.2683 7.26598 37.9836 6.39831 38.2152C5.16403 37.2602 5.23735 36.3215 6.43498 35.3949Z" fill="#D73A2D"/>
<path d="M1.26557 19.5051C1.55479 20.6186 1.79921 21.7605 0.874511 23.1178C0.707496 21.6751 0.544554 20.5779 1.26557 19.5051Z" fill="#ED6C63"/>
<path d="M9.69261 34.9794C9.02048 33.9187 10.6499 33.1832 10.1 32.1388C11.3505 33.2645 11.2528 33.9431 9.69261 34.9794Z" fill="#E8473D"/>
<path d="M12.1296 9.8677C12.1337 10.3838 12.1337 10.8999 12.1378 11.4201C11.4086 11.5379 10.6346 11.8671 10.1051 11.0096C10.3617 10.7455 10.3617 10.3797 10.5002 10.0668C10.875 9.83925 11.2212 9.53853 11.706 9.5751C11.8893 9.61168 12.0278 9.70921 12.1296 9.8677Z" fill="#E84A41"/>
<path d="M13.7914 26.8656C13.9055 26.7234 14.0236 26.5771 14.1376 26.4349L14.158 26.4146C15.0257 26.0773 15.8648 25.7969 15.7997 27.2598C15.1316 27.1298 14.3535 27.5484 13.7914 26.8656Z" fill="#EE7569"/>
<path d="M10.5292 10.1709C10.684 10.6017 10.8551 11.0365 10.1015 11.004C9.66564 10.939 9.2257 10.8739 8.57801 10.7805C9.20126 10.2684 9.31125 9.21185 10.4315 9.82955C10.5578 9.87425 10.6107 9.94333 10.5985 10.0246C10.5863 10.1221 10.5618 10.1709 10.5292 10.1709Z" fill="#DC2C29"/>
<path d="M12.6023 19.0713C12.4353 19.4493 12.1134 19.5346 11.7387 19.5224C11.645 19.0226 10.6714 18.73 11.4087 18.031C12.0116 17.4621 12.3171 17.7953 12.586 18.3561C12.7937 18.5878 12.7856 18.8275 12.6023 19.0713Z" fill="#DE2D25"/>
<path d="M8.06849 21.5764C8.04812 20.9952 8.14181 20.4426 8.4677 19.9427C9.84048 20.8693 8.68359 21.6333 8.30475 22.446C8.2518 22.4176 8.16625 22.4013 8.14588 22.3566C8.097 22.2347 8.07676 22.0996 8.04418 21.9696C8.06047 21.8396 8.06849 21.7064 8.06849 21.5764Z" fill="#ED6D62"/>
<path d="M8.60513 16.2128C8.67438 15.2213 9.041 14.5995 9.872 14.2216C9.58278 14.884 9.9494 15.8837 8.60513 16.2128Z" fill="#EC6559"/>
<path d="M12.6023 19.0703C12.5982 18.8306 12.5901 18.5949 12.586 18.3551C13.0871 18.1194 13.2541 17.6602 13.3926 17.1766C14.358 17.6521 14.358 17.6521 13.3315 19.1232C13.0911 19.1028 12.8467 19.0866 12.6023 19.0703Z" fill="#F7C1B4"/>
<path d="M10.371 15.6289C10.3303 14.8243 10.6766 14.3163 11.6827 13.7596C11.5035 14.9544 10.9536 15.3038 10.371 15.6289Z" fill="#F4BFB6"/>
<path d="M10.0398 29.6446C10.2027 29.2138 10.0561 28.3563 10.8219 28.6083C11.7059 28.9009 10.7364 29.5917 10.9115 30.0956C10.7812 30.2379 10.6508 30.3842 10.5205 30.5264C9.7465 30.567 9.89315 30.1038 10.0398 29.6446Z" fill="#F1918B"/>
<path d="M3.95002 11.2218C4.29627 10.409 4.61401 9.55562 5.86051 9.52717C5.35539 10.3765 4.78102 10.9292 3.95002 11.2218Z" fill="#EC6559"/>
<path d="M6.39821 38.2168C6.8463 37.7657 6.62632 36.957 7.25772 36.5994C7.41252 36.8757 7.56324 37.148 7.71803 37.4243C7.42067 37.9282 7.51436 39.0783 6.39821 38.2168Z" fill="#F4A098"/>
<path d="M6.03155 26.4375C5.9623 25.4256 5.84009 24.3893 7.17621 24.048C7.19251 24.174 7.22102 24.2959 7.25768 24.4178C7.10696 24.9379 6.96032 25.4622 6.80959 25.9823C6.55296 26.1327 6.29225 26.2871 6.03155 26.4375Z" fill="#F4A799"/>
<path d="M9.67025 24.3768C8.96553 23.7103 9.72728 23.3039 9.97577 22.8366C10.1265 22.548 10.5135 22.2798 10.7497 22.6781C10.8597 22.865 10.5827 23.2795 10.4768 23.5884C10.3302 23.9744 10.0695 24.2427 9.67025 24.3768Z" fill="#F39E95"/>
<path d="M12.151 20.3804C12.872 20.3844 13.3283 20.6892 13.2753 21.4654C13.2672 21.5954 12.9983 21.823 12.8802 21.8027C12.3017 21.7174 12.1918 21.2419 12.1184 20.7583C12.1388 20.6323 12.147 20.5063 12.151 20.3804Z" fill="#D0362B"/>
<path d="M7.66478 13.0602C7.0456 13.5357 6.51669 13.7504 6.45151 12.6369C6.7448 12.2671 7.14808 11.9948 7.58395 12.1858C7.9302 12.3362 7.677 12.7555 7.66478 13.0602Z" fill="#FBE6E0"/>
<path d="M15.0583 32.9651C15.6245 33.3999 15.0909 33.7738 14.9931 34.168C14.3087 34.0664 13.5225 34.4443 12.9563 33.7616C13.2252 33.3593 13.6733 33.3227 14.0806 33.2048C14.3943 33.0789 14.6917 32.8919 15.0583 32.9651Z" fill="#E7463E"/>
<path d="M14.1983 33.3073C13.9132 33.8153 13.4203 33.7625 12.9518 33.7625C12.7196 32.8481 12.9641 32.6815 14.0965 32.9782C14.2187 33.0229 14.2757 33.0838 14.2635 33.1692C14.2513 33.2586 14.2309 33.3073 14.1983 33.3073Z" fill="#E4372C"/>
<path d="M5.20497 33.3249C5.20904 33.203 5.20904 33.0811 5.21312 32.9551C5.38828 32.5528 5.38828 32.1098 5.53085 31.6994C6.23558 31.4271 6.12152 32.1261 6.37 32.3984C6.43925 33.1176 6.15003 33.6947 5.64899 34.1864L5.62047 34.1661C5.29459 33.9792 5.44124 33.5606 5.20497 33.3249Z" fill="#EB5A4F"/>
<path d="M7.31838 9.34139C7.79906 8.68712 7.93349 8.13444 8.47527 7.915C8.5934 8.0044 8.77264 8.07755 8.78078 8.15883C8.85818 9.12195 8.17382 9.10975 7.31838 9.34139Z" fill="#EE7166"/>
<path d="M3.80756 14.3974C4.11715 15.4133 3.50205 15.6612 3.02137 16.2139C2.62624 15.2264 3.14358 14.8728 3.80756 14.3974Z" fill="#EC6358"/>
<path d="M10.4723 38.6227C10.2156 38.7608 9.95481 38.9026 9.69818 39.0408C9.25009 38.6913 9.11159 38.2362 9.66152 37.9558C10.2074 37.6794 10.513 38.0172 10.4723 38.6227Z" fill="#CC3126"/>
<path d="M14.5741 30.9151C14.847 30.6429 15.12 30.3706 15.3929 30.0983C16.0528 30.5006 15.4988 30.9029 15.3929 31.3093C15.0548 31.3093 14.7493 31.2484 14.5741 30.9151Z" fill="#EE756C"/>
<path d="M14.199 33.3099C14.1909 33.1921 14.1542 33.0824 14.0972 32.9767C14.1338 32.7207 14.1705 32.4647 14.2072 32.2046C14.8834 32.0177 15.323 32.0995 15.0583 32.9651C14.7731 33.0789 14.4882 33.1921 14.199 33.3099Z" fill="#F2A6A3"/>
<path d="M16.6187 39.0438C16.6187 39.1698 16.6064 39.2958 16.582 39.4177C16.0484 39.6818 15.7103 40.3158 15.0015 40.2548C15.1155 39.2877 15.8976 39.2104 16.6187 39.0438Z" fill="#EE7567"/>
<path d="M5.56309 17.0331C4.65876 17.029 5.04575 18.1262 4.4225 18.3579C4.28807 18.2156 4.15365 18.0775 4.01922 17.9352C4.56915 17.6914 4.29622 16.0496 5.56309 17.0331Z" fill="#DF3C32"/>
<path d="M2.35798 28.9012C2.3539 29.2872 2.34576 29.6774 2.34168 30.0634C2.2317 30.23 2.11764 30.2422 1.99951 30.0715C1.88545 29.401 1.38033 28.8158 1.55956 28.0803C1.82434 28.3526 2.0932 28.6289 2.35798 28.9012Z" fill="#F08378"/>
<path d="M6.37325 32.3987C6.1492 32.1548 5.92108 31.9151 5.69704 31.6712C5.35894 31.4437 5.40782 31.1877 5.64001 30.9194C6.53619 30.9113 6.46286 31.5412 6.44657 32.1345C6.39769 32.2199 6.37325 32.3052 6.37325 32.3987Z" fill="#F4ACA0"/>
<path d="M10.0408 29.6438C10.0937 29.9974 10.1344 30.355 10.5214 30.5297C10.5133 30.7898 10.5092 31.0499 10.5011 31.31C10.2444 31.3019 9.98779 31.2978 9.73116 31.2897C9.72301 30.7614 9.71487 30.2372 9.70672 29.7089C9.82078 29.7007 9.93077 29.6804 10.0408 29.6438Z" fill="#EE736C"/>
<path d="M10.5289 10.1697C10.4963 10.0559 10.4637 9.94212 10.4352 9.8324C10.7326 9.53168 11.0299 9.23502 11.3273 8.9343L11.364 9.08059C11.6491 9.19438 11.8406 9.36912 11.7591 9.71048C11.3477 9.86084 10.9403 10.0153 10.5289 10.1697Z" fill="#F08478"/>
<path d="M12.1381 11.4183C12.798 11.0647 13.3275 11.2273 13.7512 11.8165C13.1768 11.8368 12.468 12.3936 12.1381 11.4183Z" fill="#E84A41"/>
<path d="M3.59683 28.0747C3.78014 27.8065 3.95938 27.5423 4.27304 27.0872C4.34636 27.8471 4.78223 28.5298 3.57646 28.4607C3.48277 28.3713 3.45833 28.2819 3.49499 28.2007C3.52758 28.1153 3.56017 28.0747 3.59683 28.0747Z" fill="#E94E43"/>
<path d="M3.59566 28.0751C3.58344 28.201 3.5753 28.3311 3.5753 28.4571C3.31459 28.4571 3.05388 28.453 2.79725 28.4449C2.78096 28.1848 2.76466 27.9288 2.74837 27.6728C3.40013 27.0347 3.50605 27.5427 3.59566 28.0751Z" fill="#EE7064"/>
<path d="M4.38889 22.4283C4.52739 22.7169 4.77995 23.0176 4.43777 23.302C4.34001 23.3833 4.04264 23.3833 3.95302 23.298C3.62714 22.9891 3.91229 22.7087 4.06301 22.4283C4.17299 22.4405 4.28298 22.4405 4.38889 22.4283Z" fill="#B6221A"/>
<path d="M9.66838 24.3778C9.93723 24.1177 10.2102 23.8536 10.479 23.5935C10.6786 24.3331 10.4342 24.6176 9.66838 24.3778Z" fill="#EA5146"/>
<path d="M4.01145 39.0337C3.77519 38.5095 3.26599 37.9974 3.96257 37.4447C3.83629 37.9771 4.74876 38.477 4.01145 39.0337Z" fill="#EF786D"/>
<path d="M8.45457 32.1336C8.69491 31.6175 9.06968 31.3046 9.67256 31.3412C9.40778 31.7394 9.143 32.1377 8.87822 32.536C8.73565 32.4018 8.59307 32.2677 8.45457 32.1336Z" fill="#DC3A2F"/>
<path d="M17.0186 12.6487C18.4606 14.2052 19.9271 13.4046 21.4221 12.7341C21.7683 12.5796 22.2164 12.6528 22.6156 12.6243C22.7908 13.0267 22.9659 13.433 23.1452 13.8354C23.3529 14.2417 23.744 14.5709 23.6747 15.0951C23.137 16.1761 21.9068 15.7819 21.1002 16.294C20.5544 16.6881 20.0085 17.0783 19.4627 17.4725C19.7682 17.9886 19.3975 18.3055 19.1124 18.6428C18.6846 19.5612 21.1858 20.0773 19.4668 21.1746C19.0268 20.4593 18.6561 19.5775 17.5889 20.5731C17.21 19.4312 18.8679 18.8623 18.0247 17.8179C17.2304 17.8626 17.6296 18.8948 17.0308 19.1345C17.1326 16.9726 17.2589 14.8107 17.0186 12.6487Z" fill="#EA5146"/>
<path d="M23.5307 15.0879C23.4003 14.6694 23.2741 14.2549 23.1437 13.8363C23.9462 14.4499 24.7446 15.0717 25.5512 15.6812C26.0237 16.0389 26.4759 16.6809 27.1032 16.4615C27.9708 16.1608 27.4657 15.2911 27.5961 14.6734C29.5473 14.0882 28.9892 16.0023 29.641 16.7135C29.474 17.9407 28.4393 17.7213 27.649 17.9082C25.9707 18.3959 25.4697 16.4981 24.1702 16.2055C23.771 15.9413 23.3474 15.6853 23.5307 15.0879Z" fill="#E45243"/>
<path d="M14.8679 11.8792C14.6561 11.8426 14.4443 11.806 14.2365 11.7695C14.3913 9.98139 15.9515 9.46935 17.1247 8.60376C17.2306 8.58751 17.3365 8.58751 17.4424 8.60783C17.5768 9.00608 17.7153 9.40027 17.8498 9.79445L17.8538 9.79039C16.3059 9.70912 16.3711 11.9117 14.8679 11.8792Z" fill="#8DB466"/>
<path d="M26.1672 13.6734C25.7924 12.5518 24.4156 14.4293 24.2445 12.9541C24.216 12.7021 24.2037 12.0601 24.8026 12.1048C25.605 12.1698 26.1387 12.5924 26.1672 13.6734Z" fill="#739F4E"/>
<path d="M25.1689 8.16945C25.9103 8.46204 26.9816 8.20602 27.1935 9.38046C26.6558 9.3764 26.1138 9.421 25.5842 9.35192C24.7329 9.2422 24.5375 8.83591 25.1689 8.16945Z" fill="#6C9947"/>
<path d="M17.8443 9.80189C18.3413 9.9238 18.826 9.13949 19.2945 9.76938C19.3596 9.85878 19.1397 10.3017 18.9523 10.4074C18.3127 10.7691 17.938 10.5131 17.8443 9.80189Z" fill="#98C37B"/>
<path d="M24.9336 9.78901C25.7808 10.1019 26.1352 10.4311 26.2615 10.9797C26.176 11.0813 26.0741 11.256 26.0334 11.2439C25.4346 11.0569 25.2676 10.5286 24.9336 9.78901Z" fill="#6C9947"/>
<path d="M29.2352 11.8146C29.2718 11.4976 29.1659 10.9043 29.4714 10.9368C30.2047 11.0099 30.001 11.7211 30.058 12.225C29.9195 12.2291 29.7851 12.2331 29.6466 12.2372C29.5122 12.095 29.3737 11.9568 29.2352 11.8146Z" fill="#9CC57C"/>
<path d="M27.6125 17.5101C28.1706 16.9412 29.2703 17.7497 29.641 16.7135C30.3946 15.9901 30.9121 16.2341 31.2787 17.1078C31.2747 17.25 31.2665 17.3963 31.2624 17.5385C30.7695 17.9774 31.3072 18.652 30.8999 19.1112C30.2563 19.5745 29.4945 19.9768 30.2685 20.9521C30.6881 21.4804 30.2196 21.9356 30.0444 22.411C29.8245 22.6142 29.5678 22.6549 29.2868 22.5776C28.6757 22.3419 28.7817 21.6714 28.4721 21.2488L28.3906 21.1106C27.9588 20.8627 27.9384 21.1066 27.9873 21.4438C28.0362 22.0656 28.1177 22.7077 27.2215 22.793C27.0382 22.6792 26.8915 22.5289 26.7897 22.3379C26.4516 20.623 26.6919 19.0096 27.6125 17.5101Z" fill="#EB5E50"/>
<path d="M27.2015 22.3905C27.2015 22.5246 27.2056 22.6587 27.2097 22.7887C26.2361 23.6218 25.1892 24.4386 25.7595 25.9504C26.2157 27.1654 24.7085 26.1332 24.7655 26.8566C24.627 26.7184 24.4926 26.5802 24.3541 26.438C24.0812 25.9707 24.3419 25.544 24.4478 25.1091C24.5211 24.7272 24.6922 24.2761 24.0119 24.333C23.5394 24.3695 23.0872 24.4061 22.7369 24.0038C23.1402 22.7847 23.5476 21.5696 23.9508 20.3504C25.0548 21.0007 25.6047 22.5246 27.2015 22.3905Z" fill="#E8433C"/>
<path d="M25.581 30.9292C25.581 30.7911 25.581 30.6529 25.5769 30.5147C26.2979 30.149 25.8336 28.5966 27.2104 28.8892C28.9376 31.3762 26.1391 30.2587 25.581 30.9292Z" fill="#EC675D"/>
<path d="M28.4643 21.2482C28.9531 21.4798 29.0224 22.0081 29.2709 22.4064C29.5153 22.955 29.1487 23.2719 28.8187 23.6052C27.7433 22.9631 28.7291 22.0122 28.4643 21.2482Z" fill="#E74234"/>
<path d="M25.1596 29.2854C24.239 29.131 24.1372 28.7084 24.7564 28.0541C25.791 28.172 25.4489 28.7368 25.1596 29.2854Z" fill="#D53C2F"/>
<path d="M27.9184 25.8115C27.2666 25.6814 26.8267 25.5473 26.8715 24.9581C26.8796 24.828 27.1281 24.5883 27.2137 24.6127C27.7229 24.7468 27.8206 25.1897 27.9184 25.8115Z" fill="#E4392F"/>
<path d="M27.9804 21.4452C27.5079 21.1323 27.5608 20.6731 27.6912 20.2342C27.7238 20.1326 28.066 20.0026 28.1556 20.0595C28.5589 20.3155 28.4326 20.73 28.3837 21.112C28.2493 21.2217 28.1148 21.3355 27.9804 21.4452Z" fill="#FACFC6"/>
<path d="M28.82 23.6028C28.9707 23.2046 29.1214 22.8063 29.2721 22.404C29.5288 22.404 29.7854 22.404 30.042 22.4081C29.9932 23.1761 29.6021 23.5866 28.82 23.6028Z" fill="#EF7B6F"/>
<path d="M29.6984 26.044C29.5436 26.4382 29.3889 26.8325 29.2301 27.2226C28.7942 27.2511 28.5538 27.0844 28.7738 26.6456C28.9531 26.2961 28.9652 25.593 29.6984 26.044Z" fill="#EF7A6D"/>
<path d="M30.9009 19.114C31.1901 18.6263 30.1025 17.8258 31.2634 17.5413C31.2512 18.0899 31.5038 18.6995 30.9009 19.114Z" fill="#F08478"/>
<path d="M19.8859 36.2103C20.3462 35.9665 20.7088 35.9218 20.7088 36.6127C20.387 37.0881 20.1263 37.6408 19.4052 37.6692C19.2382 37.0556 19.7352 36.6899 19.8859 36.2103Z" fill="#ED6F64"/>
<path d="M21.9145 32.1298C21.8045 32.077 21.6905 32.0445 21.5723 32.0241C21.4338 31.9672 21.3524 31.8616 21.3361 31.7112C21.3564 31.5649 21.4338 31.4552 21.5723 31.3983C21.9878 31.5487 22.2934 29.6468 22.7903 31.3333C22.497 31.5974 22.2037 31.8616 21.9145 32.1298Z" fill="#F5B9B2"/>
<path d="M23.9517 31.7335C24.5138 31.5019 24.8723 30.8516 25.5851 30.9207C25.1085 31.3271 25.0271 32.5259 23.9517 31.7335Z" fill="#EC675D"/>
<path d="M23.0262 34.4833C23.4051 34.3614 23.5191 34.5524 23.4295 34.7312C23.3318 34.9385 23.1281 35.1335 22.9244 35.2514C22.737 35.357 22.5171 35.2473 22.627 34.9954C22.7207 34.7759 22.9244 34.6052 23.0262 34.4833Z" fill="#EF796E"/>
<path d="M18.2602 37.0677C18.0198 36.2712 18.3172 36.003 19.1034 36.2103C18.8223 36.4947 18.5413 36.7792 18.2602 37.0677Z" fill="#EF7D74"/>
<path d="M3.59465 35.4266C3.50911 35.5607 3.41949 35.8858 3.24433 35.9427C2.86956 36.0646 2.85327 35.6908 2.81661 35.4429C2.77995 35.1747 2.81253 34.8658 3.1099 34.7927C3.49689 34.6992 3.48467 35.0609 3.59465 35.4266Z" fill="#EF7A6F"/>
<path d="M1.99951 30.0715C2.11357 30.0797 2.22763 30.0756 2.34168 30.0634C2.31724 30.6445 2.55739 31.2819 1.96673 31.7371C1.73454 31.1763 1.21331 30.608 1.99951 30.0715Z" fill="#EA554B"/>
<path d="M5.20427 33.3283C5.65644 33.4543 5.6157 33.8241 5.61977 34.1695C5.38351 34.332 5.14724 34.4946 4.9069 34.6531C4.87024 34.3564 4.83358 34.0598 4.80099 33.759C4.93542 33.6168 5.06985 33.4746 5.20427 33.3283Z" fill="#F5A8A1"/>
<path d="M16.5659 7.77586C16.13 7.80024 15.7104 7.75554 15.3886 7.41012C15.3927 7.25975 15.3968 7.10554 15.4049 6.95112C15.9385 6.90642 16.5007 6.95112 16.8836 7.31279C17.4091 7.80451 16.7533 7.66613 16.5659 7.77586Z" fill="#80B15D"/>
<path d="M20.6637 2.52245C20.9692 3.3027 21.2747 4.08295 21.5802 4.8632C20.3541 4.41618 20.2278 3.51402 20.3093 2.52245C20.4274 2.40054 20.5456 2.39647 20.6637 2.52245Z" fill="#A1C784"/>
<path d="M20.6637 2.52245L20.4884 2.50679L20.3132 2.52304C19.9588 1.73873 19.9588 1.73873 21.132 1.6412L21.1279 1.62901C21.0546 1.9663 21.0262 2.33145 20.6637 2.52245Z" fill="#6F9D4A"/>
<path d="M27.2015 22.3905C24.8552 23.7153 24.6886 21.5781 23.9472 20.3508C23.9553 20.0176 24.0287 19.7128 24.3586 19.5421C24.6926 19.534 24.9371 19.7046 25.153 19.9322C25.2589 20.0298 25.3363 20.1517 25.3851 20.2817C25.4544 20.4402 25.5277 20.5906 25.7355 20.4646C25.6173 20.1151 25.1896 20.107 25.0389 19.8062C24.6478 19.3633 25.2222 18.7497 24.766 18.3189C23.8494 18.2214 23.715 19.0829 23.2791 19.6031C22.8473 18.6481 23.3402 18.0588 23.9513 17.5102C23.6987 16.8762 23.8657 16.3439 24.3464 15.8847C25.1978 15.8644 25.601 16.539 26.1102 17.0307C26.542 17.4492 26.9168 17.9491 27.6093 17.5021C27.6623 19.152 26.7697 20.7162 27.2015 22.3905Z" fill="#EA5146"/>
<path d="M21.5675 31.3969C21.5553 31.5107 21.5308 31.6205 21.4901 31.7261C20.6428 32.8274 20.3169 31.848 19.8729 31.3238C19.3841 31.1856 18.4675 31.2507 19.323 30.3932C19.8322 29.8812 20.4717 29.491 21.1561 28.9668C21.9626 29.4301 20.7039 30.7183 21.5675 31.3969Z" fill="#E33B31"/>
<path d="M24.347 15.8903C24.4244 16.4836 24.2329 17.0078 23.9519 17.5158C23.2757 16.4673 22.0251 16.7518 21.0963 16.2926C20.6319 15.7358 20.6034 15.2279 21.4751 15.4879C22.3102 15.7399 22.8683 15.3091 23.5323 15.0856C23.8052 15.3538 24.0741 15.622 24.347 15.8903Z" fill="#EC685A"/>
<path d="M22.7341 24.0045C23.06 23.9964 23.4388 24.0899 23.7077 23.9639C25.5856 23.0739 25.333 24.0452 24.8564 25.2399C24.2658 25.3009 24.1069 26.1502 23.4185 26.0324C23.1903 25.3578 22.9622 24.6832 22.7341 24.0045Z" fill="#EA5146"/>
<path d="M20.0155 33.3545C19.7914 34.8337 18.1865 34.6346 17.8035 35.7033C17.7221 35.935 17.5143 35.935 17.3392 35.7887C17.1029 35.5855 17.0499 35.2644 17.2618 35.0856C18.0398 34.4151 18.6549 33.4601 20.0155 33.3545Z" fill="#ED6961"/>
<path d="M20.268 24.815C20.1417 24.815 20.0155 24.8191 19.8851 24.8191C19.7181 24.242 19.5511 23.6609 19.3881 23.0838C19.1315 22.6815 19.1478 22.3158 19.5226 21.9907C20.5735 22.2304 20.4106 23.4008 21.042 23.9616C21.0135 24.4533 20.7406 24.7215 20.268 24.815Z" fill="#DD3A30"/>
<path d="M20.2682 24.8176C20.5249 24.5331 20.7856 24.2527 21.0422 23.9683C21.4944 24.0536 21.7632 23.1108 22.2154 23.6635C22.4842 23.9927 22.1624 24.5291 21.7754 24.6307C21.2336 24.7688 21.0055 25.6913 20.256 25.2199C20.2682 25.0858 20.2764 24.9517 20.2682 24.8176Z" fill="#ED6E63"/>
<path d="M19.8737 31.3252C20.3992 31.5162 20.7821 32.2721 21.4909 31.7275C21.5479 31.8169 21.5723 31.9185 21.5723 32.0241C21.442 32.5037 21.4542 33.2596 20.7414 33.0808C19.9226 32.8776 19.5682 32.2071 19.8737 31.3252Z" fill="#E94E43"/>
<path d="M17.8443 29.2853C17.9787 29.1512 18.1172 29.0171 18.2516 28.8789C18.7893 28.8586 19.1071 28.566 19.1967 27.9849C19.2659 29.6104 19.2659 29.6104 17.8443 29.2853Z" fill="#E8463B"/>
<path d="M23.4205 26.0324C23.9175 25.8007 23.9134 24.6629 24.8585 25.2399C24.6914 25.6422 24.5244 26.0405 24.3533 26.4428C23.8523 26.7354 23.4531 26.7923 23.4205 26.0324Z" fill="#F2A09D"/>
<path d="M19.1114 18.6425C19.2295 18.2523 19.3436 17.8622 19.4617 17.4721C20.1339 17.8053 19.975 18.3946 19.755 18.8538C19.6328 19.1057 19.3028 18.8131 19.1114 18.6425Z" fill="#F7CABE"/>
<path d="M25.1728 19.9483C24.8388 19.9401 24.5333 19.8792 24.3622 19.5459C24.4966 19.1396 24.6351 18.7332 24.7695 18.3268C25.3643 18.7535 25.1076 19.3915 25.1728 19.9483Z" fill="#E8433C"/>
<path d="M19.5224 21.9922C19.4776 22.3579 19.4328 22.7196 19.388 23.0853C18.9236 23.1503 18.7769 22.8699 18.7158 22.4839C18.948 22.2197 19.1802 21.9556 19.4124 21.6914C19.4124 21.8052 19.4491 21.9068 19.5224 21.9922Z" fill="#F9D1C8"/>
<path d="M21.2014 21.6409C21.3114 21.8929 21.4417 22.0595 21.4377 22.218C21.4254 22.5228 21.2095 22.7016 20.9203 22.5472C20.8063 22.4862 20.7411 22.1977 20.7778 22.0433C20.8103 21.9091 21.014 21.8116 21.2014 21.6409Z" fill="#F0857C"/>
<path d="M13.8047 24.4227C14.0939 24.3414 14.3832 24.2602 14.6724 24.1789C14.7131 24.7478 14.7294 25.3127 14.1673 25.6825C13.2263 25.4996 13.5562 24.951 13.8047 24.4227Z" fill="#EE897F"/>
<path d="M16.1993 24.4108C16.3378 24.6912 16.5211 24.9147 16.4722 24.9838C16.3378 25.187 16.13 25.4227 15.9141 25.4715C15.5353 25.5527 15.466 25.2358 15.6005 24.9797C15.7023 24.7766 15.9426 24.6465 16.1993 24.4108Z" fill="#EF7E72"/>
<path d="M13.8034 24.4239C13.7342 24.8953 13.7138 25.3586 14.166 25.6796C14.1619 25.9234 14.1621 26.1707 14.158 26.4146L14.1376 26.4349C12.8341 25.9635 13.2616 25.2042 13.8034 24.4239Z" fill="#CC3527"/>
<path d="M15.8074 17.5097C15.2167 17.5138 14.6138 17.53 14.5853 16.6929C14.8908 16.636 15.4286 17.5382 15.4774 16.51C15.4978 16.0508 15.3023 15.5794 16.0722 15.3437C16.227 16.124 16.4429 16.8433 15.8074 17.5097Z" fill="#EA554B"/>
<path d="M9.24244 27.5996C8.94508 27.6321 8.60697 27.8312 8.37885 27.502C8.32182 27.4167 8.42774 27.1322 8.54179 27.0388C8.8636 26.7746 9.10802 26.9656 9.29947 27.2582C9.38502 27.3517 9.40539 27.433 9.3565 27.502C9.31984 27.5671 9.27911 27.5996 9.24244 27.5996Z" fill="#B1281F"/>
<path d="M9.24102 27.5999C9.24917 27.4862 9.26954 27.3724 9.29805 27.2586C9.57098 27.2058 9.95796 26.8766 10.0394 27.4089C10.1209 27.9169 9.70133 28.0348 9.28176 28.0754C9.27361 27.9169 9.25732 27.7584 9.24102 27.5999Z" fill="#EB5A4F"/>
<path d="M11.758 9.71159C11.6276 9.50027 11.4932 9.28895 11.3628 9.0817C11.7295 8.95572 12.1409 8.79723 12.3772 9.22393C12.4464 9.35397 12.2183 9.64657 12.1287 9.86601C12.0065 9.80506 11.8843 9.75629 11.758 9.71159Z" fill="#F5AEA0"/>
<path d="M5.63684 30.9194C5.65721 31.1713 5.6735 31.4233 5.69387 31.6712C5.60425 32.1263 5.71416 32.6544 5.21312 32.9551C5.05425 32.2155 4.99322 31.4964 5.63684 30.9194Z" fill="#DC2B22"/>
<path d="M26.0122 20.762C25.8045 21.0953 25.6089 21.5545 25.1201 21.2416C24.6883 20.9652 24.7535 20.5832 25.1568 20.2744C25.6008 20.1565 26.053 20.0305 26.0122 20.762Z" fill="#C52E22"/>
<path d="M26.0122 20.762C25.7271 20.5995 25.4425 20.4364 25.1533 20.2738C25.1615 20.1641 25.1696 20.0585 25.1696 19.9487C25.6625 19.9365 26.3306 19.7252 26.5953 19.965C26.8846 20.221 26.334 20.5588 26.0122 20.762Z" fill="#E8433C"/>
</svg>
