<svg width="44" height="47" viewBox="0 0 44 47" fill="none" xmlns="http://www.w3.org/2000/svg">
<path d="M32.068 34.2917C28.0349 40.3437 22.7464 44.3985 15.2919 44.9141C14.4871 44.9698 13.8663 45.1603 13.1995 45.6154C8.98708 48.4998 5.28513 46.7302 4.97241 41.6768C4.92183 40.8407 4.56313 40.2462 4.11246 39.6052C3.13753 38.2351 2.04764 36.916 1.70274 35.1928C2.30517 34.9188 2.70066 35.2625 3.06855 35.6666C3.18812 35.8198 3.34907 35.9452 3.40426 36.145C3.40426 35.8616 3.11914 35.778 2.99957 35.569C1.43602 33.2142 1.86829 30.3809 1.16929 27.8217C0.897968 26.8231 0.493282 25.7084 1.31645 24.7376C1.67515 24.315 1.76712 23.4093 2.5673 23.6647C3.20192 23.8691 3.40886 24.5611 3.34448 25.1928C3.13753 27.204 3.94231 29.1315 3.77675 31.138C3.74456 31.5049 3.82734 31.8951 4.06647 32.4292C4.29181 31.1566 6.84409 33.1445 6.12669 30.655C6.30604 29.0386 7.1292 27.6034 7.34534 25.9824C7.46951 25.0535 7.63966 23.6554 9.13884 25.1557C9.53432 25.5505 10.5874 26.001 10.9875 25.7781C13.4662 24.4079 13.2455 26.275 13.4294 27.7102C13.4524 28.2722 13.2363 28.7367 13.1351 28.8389C13.503 28.2444 14.2388 27.3805 13.5766 26.1682C13.2547 25.2997 12.5373 24.4961 13.1167 23.4697C13.1443 20.8919 14.6803 19.4845 17.2739 18.6949C14.8228 18.3605 14.2664 20.0651 13.3558 21.3052C12.7718 21.6164 12.2108 20.9104 11.6267 21.2774C11.36 21.4214 11.0887 21.5375 10.799 21.6164C9.58031 21.8069 9.10665 22.8101 8.49962 23.7019C8.09493 24.2918 7.60747 25.2114 6.83489 23.9852C6.60035 23.0238 7.05103 22.2249 7.37294 21.4817C6.70153 22.2574 6.99124 23.7065 5.76339 24.2592C5.10578 24.3707 4.71029 24.1292 4.62751 23.4325C4.46656 22.5454 6.0761 22.0902 5.20235 21.0219C5.65302 19.4195 6.73372 19.3777 8.02135 19.8515C9.48374 20.3809 9.47914 18.3419 10.6196 18.3234C11.7831 18.3837 11.0105 17.2133 11.521 16.8603C11.7095 16.5677 11.967 16.4051 12.3165 16.4097C12.9098 16.563 13.0753 17.0275 13.1259 17.5477C13.8019 17.2319 13.3834 16.4701 13.7467 16.0428C13.9261 15.6341 14.248 15.3833 14.6159 15.1696C15.6552 13.4093 17.0532 11.923 18.2627 10.302C18.1155 9.57743 18.0971 8.9086 18.9846 8.6485C19.4629 8.45342 19.9458 8.2955 20.47 8.35588C20.6678 8.40233 20.8517 8.48594 21.0127 8.61599C21.2748 9.4288 20.5528 10.3856 21.3622 11.1241C22.4153 12.8659 20.7 14.0131 20.3919 15.5551C21.1322 15.1696 21.0219 13.9109 22.098 14.0642C22.4567 14.1385 22.8062 14.1896 23.3028 13.7669C22.774 13.9945 22.4521 14.1013 22.1026 13.9899C21.5691 11.9044 22.9579 10.5157 23.8961 8.96434C24.2594 8.6485 24.6594 8.42091 25.1469 8.36982C26.3702 8.41162 26.5817 9.31733 26.7427 10.2695C26.8714 10.8547 26.2828 11.6257 27.1795 11.9973C27.3405 10.9708 26.7473 9.33127 28.8443 9.89792C29.1386 10.0605 29.3685 10.2927 29.5387 10.5807C29.2903 13.7344 30.2607 16.5677 31.7506 19.2802C32.1001 19.9118 31.999 20.6736 31.5575 21.2449C30.5366 22.5686 30.2975 24.1431 29.9985 25.7084C29.4697 26.4887 28.3338 25.8431 27.8233 26.6791C28.3752 26.0521 29.1708 26.3493 29.8238 26.1078C32.698 25.1975 33.5441 25.4947 33.7097 27.4734C33.7971 28.5045 33.42 28.9411 32.3807 28.6067C31.9438 28.6996 31.2954 28.8807 31.3643 29.2616C31.4701 29.8375 32.3715 29.7167 32.7118 30.2276C33.5993 31.765 32.1231 32.9123 32.068 34.2917Z" fill="#FDE14D"/>
<path d="M8.11793 20.3391C6.94986 19.8793 5.92894 19.884 5.34951 21.2495C5.60704 21.9741 5.22074 22.5407 4.89424 23.1259C4.90803 23.7298 5.21155 24.0409 5.80938 24.0549C6.05311 24.1942 6.25085 24.38 6.40721 24.6122C7.21658 26.6095 6.64174 28.5788 6.27845 30.5528C6.74751 31.1194 7.57988 31.6118 7.02343 32.4943C6.46239 33.386 5.88756 32.8426 5.12417 32.5314C3.72617 31.9648 5.06899 34.0177 3.72617 33.948C2.98118 30.7432 2.8938 27.3294 2.67766 23.7112C1.1325 25.3786 1.52799 26.9624 1.8499 28.5881C2.30977 30.9336 2.66387 33.3024 3.06396 35.6619C2.61328 35.504 2.16261 35.3507 1.70734 35.1928C-0.743768 30.0976 -0.247108 24.9002 1.26586 19.7075C3.15593 13.191 6.63714 7.8589 12.7212 4.5519C13.0845 4.23606 13.4156 4.2918 13.7145 4.64479C13.8249 5.00708 13.6134 5.28111 13.4616 5.55979C13.5444 5.87563 13.7927 5.73164 13.9859 5.74558C14.1744 5.727 14.3538 5.74093 14.5377 5.77345C15.7012 5.88027 17.3935 5.19286 17.0946 7.50126C17.067 7.71956 16.9842 7.91 16.8555 8.08649C16.1427 8.48594 15.7702 9.78644 14.6159 8.97363C14.6067 9.17335 14.6803 9.28482 14.8734 9.32662C16.0231 9.50312 16.3772 8.22119 17.3015 7.9936C17.605 7.88677 17.9086 7.87284 18.2167 7.9518C18.6627 8.18868 18.9984 8.48594 18.4374 8.91789C17.697 9.48919 17.3613 10.3113 17.0118 11.1334C16.8371 11.3981 16.6117 11.5979 16.2944 11.6675C15.6092 11.5468 14.8366 10.9476 14.3676 12.0252C11.8061 13.9527 9.87923 16.3029 9.30439 19.6006C9.21242 20.0976 8.79853 20.5621 8.11793 20.3391Z" fill="#FDDF45"/>
<path d="M29.718 25.9127C29.5847 24.1849 29.7548 22.5546 30.9735 21.1798C32.2565 19.7307 31.0011 18.2072 30.394 17.3619C29.2122 15.727 28.389 14.3986 29.3961 12.4014C29.626 11.9462 29.3179 11.2124 29.2581 10.6039C31.2034 10.3345 32.3071 12.1738 33.9994 12.5314C34.68 12.8891 35.5354 13.0052 35.8205 13.8923C37.6094 21.2634 36.1608 28.0214 32.0634 34.2871C31.2908 32.7962 33.0521 31.5514 32.468 30.079C31.208 29.308 31.8748 28.537 32.4726 27.766C32.8037 27.6731 32.8773 28.7506 33.3556 27.9611C32.56 27.6684 33.8339 24.5844 31.3414 26.433C31.2218 26.5212 30.2837 26.3261 29.718 26.3726C29.6122 26.2704 29.5801 26.1682 29.6122 26.066C29.649 25.9638 29.6858 25.9127 29.718 25.9127Z" fill="#FDE043"/>
<path d="M28.7845 10.1255C27.8463 10.093 27.2347 10.2741 27.8279 11.4307C28.1177 11.9973 28.6971 12.7497 27.4141 12.9077C26.5495 12.3642 26.338 11.5561 26.4989 10.5993C26.0023 10.0047 26.3058 8.80177 25.1193 8.72746C24.7744 8.44878 24.6594 8.05398 24.5721 7.64061C24.4939 7.34335 24.4295 7.04144 24.3421 6.74418C22.9947 5.31827 21.307 6.17753 19.771 6.05213C19.1318 6.00104 18.1799 6.71167 18.2075 5.30433C18.2765 5.18357 18.2994 5.05817 18.2627 4.93276C18.1477 5.01172 18.0281 5.07675 17.8902 5.13713C16.0599 5.19751 15.9035 4.38469 16.8003 3.0238C18.9617 1.74187 21.3346 1.81619 23.7121 1.93695C23.9742 2.14596 23.9972 2.43393 23.9788 2.73583C23.9374 3.13527 24.0018 3.48362 24.4157 3.65548C25.2527 3.76695 25.1883 2.41535 26.0666 2.61971C26.2276 2.7637 26.3518 2.93555 26.4437 3.13063C26.8898 4.42185 27.0232 5.81525 27.667 7.04144C27.9245 7.60345 28.274 8.11436 28.6005 8.63921C28.8167 9.11297 29.1018 9.58208 28.7845 10.1255Z" fill="#FDE043"/>
<path d="M43.859 13.3536C43.2888 14.1849 42.4196 13.7391 41.6884 13.8691C40.4928 13.5301 39.2051 14.2082 38.0463 13.5254C37.5266 12.9588 37.1955 12.1459 36.2712 12.0856C35.7883 11.7233 35.7469 11.2449 35.8941 10.7061C36.3034 10.1069 36.2114 9.35449 36.4827 8.71352C37.0805 8.61599 37.2553 8.30479 36.9656 7.75208C37.7473 6.59091 39.0212 7.57093 39.9501 7.0368C40.2168 6.91604 40.4928 6.84637 40.7825 6.81385C41.109 7.28297 41.4355 7.75208 41.762 8.22583C42.7783 10.4646 42.7783 10.4646 40.3778 11.1659C40.1525 11.2124 39.9271 11.1938 39.7018 11.1334C39.8535 11.3656 40.0881 11.2124 40.2904 11.2588C40.4882 11.2077 40.6767 11.1891 40.8745 11.1938C42.0885 11.6025 43.0542 12.3689 43.859 13.3536Z" fill="#81B148"/>
<path d="M24.1674 4.13388C23.2201 3.90164 22.3785 3.6369 23.6845 2.65687C24.3007 2.18776 24.3881 1.44926 24.6135 0.785068L24.6181 0.766489C27.2163 1.62111 29.925 1.50964 32.5968 1.68149C32.7302 1.6304 32.8405 1.66291 32.9233 1.77438C33.0981 2.66616 32.4864 2.85195 31.8564 2.83801C30.9643 2.82408 30.0629 2.96342 29.1846 2.78692C30.7067 3.9388 32.7945 2.81943 34.3121 4.05027C34.4225 4.24999 34.4225 4.44972 34.3213 4.64944C33.9718 5.02101 33.4246 4.85845 33.0567 5.14642C33.0889 5.47154 33.2452 5.77345 33.1808 6.10786C33.1256 6.28901 33.0153 6.43299 32.8589 6.53517C32.3715 6.63271 31.9484 6.43299 31.5299 6.26578C30.7941 6.87423 31.7414 6.98106 31.8426 7.32941C32.2795 7.75208 32.744 8.1701 32.4772 8.88538C32.1875 9.37771 32.4128 10.172 31.6357 10.3856C29.81 10.3624 29.672 8.88538 29.2903 7.61738C29.1432 7.09253 28.9868 6.56769 28.9224 6.01961C28.95 4.06421 27.2531 3.85055 26.062 3.13063C26.0115 3.04702 25.9793 2.95413 25.9747 2.85659C25.8873 2.57327 25.7034 2.56398 25.524 2.74048C25.3492 2.90768 25.3584 3.15385 25.3447 3.3768C25.2941 4.18497 24.9354 4.48687 24.1674 4.13388Z" fill="#71A038"/>
<path d="M18.6903 5.03494C18.6765 5.31362 18.3224 6.04284 18.8651 5.75022C20.4792 4.88631 22.1026 5.78274 23.6891 5.43439C25.0549 5.13713 25.0135 5.91743 24.664 6.86494C24.0018 7.75208 23.2109 7.9518 22.2589 7.34799C21.2656 6.45621 20.2539 7.19007 19.2468 7.31548C18.4328 7.41302 17.72 7.99824 16.8509 7.80317C16.4554 7.02751 16.6439 5.35078 14.9332 6.54911C14.8366 6.61878 14.3768 6.15431 14.0824 5.93601C13.9215 5.62946 13.9675 5.21609 13.6226 4.99779C13.4248 4.63086 13.0845 4.56119 12.7166 4.5519C13.9813 3.77159 15.2873 3.11205 16.8049 3.01916C16.6347 4.12459 16.3082 5.374 18.2029 4.54261C18.4834 4.58906 18.6443 4.75626 18.6903 5.03494Z" fill="#FDE14D"/>
<path d="M34.3121 4.53796C33.7557 3.84126 32.7899 3.77624 32.2243 3.92487C30.5366 4.37076 29.4605 3.49756 28.2326 2.51753C29.7824 1.87657 31.5529 2.97735 32.9233 1.76974C34.795 2.11809 36.4827 2.87517 37.9635 4.09208C37.8899 4.43114 37.6876 4.65408 37.361 4.75626C36.3401 4.77484 35.31 4.8956 34.3121 4.53796Z" fill="#82B246"/>
<path d="M37.5404 4.54725C37.683 4.39862 37.8255 4.24535 37.9635 4.09672C39.1591 4.73304 40.1295 5.60159 40.7779 6.81385C40.6031 6.99035 40.4284 7.16685 40.2536 7.34335C39.0396 7.557 37.7611 6.79992 36.5885 7.60345C35.2181 7.67776 34.4041 6.8603 33.7465 5.79203C34.611 4.13388 36.4459 5.49941 37.5404 4.54725Z" fill="#7BAA45"/>
<path d="M38.0003 12.8984C39.0258 14.0177 40.6767 12.694 41.6884 13.8691C39.7386 14.7144 37.7795 13.9063 35.8251 13.897C35.1491 13.5951 34.4731 13.2978 33.8017 12.9959C34.3075 11.1566 35.5814 12.3596 36.5333 12.2853C37.1725 12.1134 37.5818 12.5082 38.0003 12.8984Z" fill="#779F37"/>
<path d="M32.5968 1.68149C29.9112 1.61646 27.1197 2.47108 24.6181 0.766489C24.7698 0.246286 25.4228 -0.157801 25.6114 0.0604989C27.5796 2.31781 30.3802 0.706108 32.5968 1.68149Z" fill="#A4BD44"/>
<path d="M40.2582 11.1009C41.3067 10.4321 42.4564 9.8236 41.7574 8.22583C42.7737 9.27553 43.2336 10.5807 43.4497 11.9973C42.3828 12.8101 41.7666 11.1102 40.7733 11.505C40.6077 11.505 40.4468 11.505 40.2812 11.505C40.1295 11.4214 40.0743 11.3378 40.1203 11.2449C40.1663 11.152 40.2122 11.1009 40.2582 11.1009Z" fill="#7EAC4B"/>
<path d="M40.7733 11.5096C41.8632 10.5853 42.4978 12.1692 43.4497 12.002C43.7854 12.3921 44.2315 12.7451 43.859 13.3536C42.6358 13.0702 41.8218 12.0948 40.7733 11.5096Z" fill="#68993B"/>
<path d="M24.6089 0.785068C24.7468 1.63504 24.6227 2.35497 23.6799 2.65687C23.6937 2.41535 23.7029 2.17382 23.7167 1.9323C24.0156 1.54679 24.3145 1.16593 24.6089 0.785068Z" fill="#A4BD44"/>
<path d="M6.27385 30.5481C6.0899 28.5323 6.68773 26.4562 5.83237 24.4868C6.21866 24.1571 6.57276 23.7205 7.17519 24.027C8.01675 24.4822 7.90179 23.7065 8.13632 23.3071C8.75714 22.2435 9.18482 20.8733 10.8817 21.2727C11.1853 21.5421 10.5874 22.1227 11.222 22.262C11.4704 22.1088 11.5026 21.8533 11.5578 21.6257C11.8889 21.2541 11.7049 21.0126 11.3416 20.8129C12.2522 19.6842 12.5971 20.9383 13.1627 21.2588C13.2363 22.0484 13.434 22.8148 13.6272 23.5811C13.0431 24.5054 13.3191 25.2578 14.087 25.9081C14.3584 26.8185 14.3446 27.5895 13.1627 27.7613C12.2338 27.2225 12.8224 26.3308 12.7994 25.6341C11.6819 25.5272 11.0105 27.2829 10.9967 26.9439C10.9185 24.9838 8.09033 27.0739 8.43524 24.9559C7.89719 24.9327 7.75923 25.5598 7.81441 25.6852C8.54101 27.3619 6.34283 28.4998 7.01424 30.1533C7.02803 30.1812 6.53597 30.4134 6.27385 30.5481Z" fill="#FEE35B"/>
<path d="M22.3693 6.87423C23.1373 7.86819 23.9007 6.75347 24.6686 6.86494C24.8204 7.02286 24.9676 7.18543 25.1193 7.34335C24.641 7.87284 24.3559 8.50451 24.2134 9.20121C23.4362 10.6782 22.59 12.1274 22.3739 13.832C22.4751 13.9341 22.5073 14.0363 22.4705 14.1385C22.4337 14.2407 22.4015 14.2918 22.3693 14.2918C21.5369 14.3289 21.5231 14.9699 21.376 15.5784C21.146 16.5119 20.3735 16.8881 19.6423 16.4515C18.7823 15.9406 19.7756 15.4576 19.9596 14.9699C20.4332 13.6926 21.8266 12.6661 20.9897 11.0405C20.7092 10.3763 21.192 9.94901 21.5001 9.49383C21.983 8.77855 21.261 8.91325 20.9989 8.72281C20.8379 8.71817 20.677 8.71817 20.516 8.71352C20.4608 7.41766 21.1184 6.84172 22.3693 6.87423Z" fill="#FDE155"/>
<path d="M8.11793 20.3391C8.62838 20.0883 8.94569 19.6982 9.01007 19.1083C9.34118 16.1218 10.6886 13.8273 13.3926 12.4107C13.6961 12.2528 13.8663 11.8347 14.1008 11.5375C14.4089 11.0684 14.7722 10.59 15.3701 11.008C15.9357 11.4028 15.761 12.0252 15.4023 12.4246C14.2296 13.7391 13.3604 15.2764 12.2292 16.6141C12.0774 16.7627 11.921 16.916 11.7693 17.0646C11.0887 17.2829 11.9578 18.5231 10.8633 18.472C10.1505 18.746 9.9666 19.4474 9.6355 20.0326C9.2492 20.7339 8.80773 21.1473 8.11793 20.3391Z" fill="#FDEB87"/>
<path d="M36.6207 12.42C35.8297 13.3628 34.5053 11.6257 33.7971 12.9959C32.068 12.6151 30.8401 11.2727 29.2581 10.6086C29.1018 10.446 28.9408 10.2881 28.7845 10.1255C28.6097 9.67962 28.4396 9.23373 28.2648 8.79248C28.2096 7.76601 28.6373 7.22258 29.7088 7.32941C30.2561 8.45342 30.1641 10.1255 32.0358 10.1255C32.7715 9.76322 33.2774 10.2927 33.8476 10.5853C34.4225 10.8826 34.4041 10.4413 34.4547 10.0791C34.4869 9.87469 34.5512 9.68891 34.6478 9.50776C34.8456 9.25231 35.0847 9.07581 35.4158 9.05259C36.1608 9.32662 36.193 9.94901 36.1516 10.6086C36.17 11.1102 36.0826 11.6536 36.6069 11.9834C36.7126 12.0763 36.7494 12.1738 36.7172 12.2713C36.6896 12.3689 36.6529 12.42 36.6207 12.42Z" fill="#82AF3E"/>
<path d="M13.6272 23.5858C12.8546 22.9355 12.5879 22.1877 13.1627 21.2634C13.434 18.328 15.9955 18.2305 18.3914 17.0275C17.3521 18.5138 17.3337 19.9351 15.3563 20.1162C13.6088 20.2788 14.0502 22.3224 13.6272 23.5858Z" fill="#FDE770"/>
<path d="M20.0699 32.8798C19.886 34.1756 19.1916 35.1278 17.9315 35.9778C17.9315 34.798 18.9892 34.4311 19.2514 33.6183C19.4721 32.9262 19.1824 32.536 18.6949 32.3085C18.1109 32.0391 17.9315 32.5686 17.7936 33.0098C17.4533 34.092 17.0854 35.1417 15.7426 35.6062C16.9014 31.6489 17.4625 31.0683 20.0699 31.0172C20.5574 31.6396 20.5482 32.262 20.0699 32.8798Z" fill="#FEE96B"/>
<path d="M12.2338 16.6095C12.3487 14.7562 13.6456 13.6415 14.7814 12.42C15.0712 12.1088 15.5862 11.7604 15.1217 11.3006C14.9884 11.1659 14.4503 11.4446 14.1008 11.5328C14.832 9.63317 15.6046 10.9244 16.368 11.505C16.9198 12.2528 16.4922 12.8241 15.9403 13.2281C15.062 13.8691 14.3997 14.5147 15.0068 15.6898C14.6251 15.7038 14.2802 15.7827 14.0824 16.1636C13.388 16.6048 14.0181 18.04 12.712 18.0215C12.6936 17.5012 12.7856 16.9439 12.2338 16.6095Z" fill="#FDE155"/>
<path d="M9.02847 34.733C10.6702 33.8319 10.2241 32.2063 10.3667 30.7107C11.4382 30.9058 12.0958 31.3145 11.4842 32.5314C10.9047 33.6786 10.5966 34.942 9.86083 36.0381C9.53892 36.5212 9.82864 37.6545 8.80313 37.1529C8.2191 36.8649 7.73623 35.987 8.564 35.2253C8.72955 35.072 8.87671 34.8955 9.02847 34.733Z" fill="#FEE661"/>
<path d="M15.0114 15.6898C14.2894 14.6123 14.2342 13.7065 15.5402 12.9913C16.0599 12.7079 16.4002 12.1738 16.3726 11.505C16.5289 11.3517 16.6853 11.1984 16.8463 11.0451C17.3015 9.94436 18.0281 9.53099 19.1456 10.1301C17.766 11.9834 16.3864 13.8366 15.0114 15.6898Z" fill="#FDE66E"/>
<path d="M22.0934 34.1896C20.9575 36.354 19.4813 38.1143 16.7175 38.1282C18.3822 36.6698 20.3873 35.6433 22.0934 34.1896Z" fill="#FEEA6C"/>
<path d="M22.3693 6.87423C21.5967 7.33406 20.9759 7.94251 20.516 8.71817C20.0699 8.87144 19.6193 9.02472 19.1732 9.17799C18.6581 9.06652 19.5549 7.48733 18.2121 8.23512C17.9132 8.24906 17.6096 8.26299 17.3107 8.27693C16.8371 8.42556 16.7359 8.22119 16.8646 7.79852H16.8601C18.5846 6.86495 20.2815 5.69913 22.3693 6.87423Z" fill="#FDED84"/>
<path d="M9.47914 42.1552C9.72747 43.1213 9.73207 43.1259 10.1597 42.6521C10.3943 42.392 10.4357 41.9229 11.0979 41.9694C11.5761 43.5532 10.4265 44.7748 9.58951 45.5226C8.85832 46.1728 8.5778 44.6122 8.11333 44.0177C8.53641 43.3767 8.28348 42.2202 9.47914 42.1552Z" fill="#FDE55F"/>
<path d="M18.304 28.746C16.883 30.4459 15.7656 31.765 14.6711 33.1027C14.4733 33.3442 14.3216 33.6136 13.9859 33.3582C13.7099 33.1445 13.641 32.6661 13.8663 32.5686C15.6368 31.8301 15.6 29.1408 18.304 28.746Z" fill="#FEE96B"/>
<path d="M20.0699 32.8798C20.0699 32.262 20.0653 31.6396 20.0653 31.0219C20.7873 31.0776 21.399 30.8825 21.9048 30.3252C22.2129 29.9815 22.6222 29.6285 23.0131 30.1858C23.3534 30.6689 23.0591 31.1287 22.6268 31.3145C21.6933 31.7093 21.6933 33.6601 20.0699 32.8798Z" fill="#FEE762"/>
<path d="M25.5838 33.7948C25.7447 36.8602 22.774 37.0785 21.353 38.7135C21.5875 36.5305 24.7008 36.6652 24.6778 34.2871C24.8388 33.8598 25.0687 33.5672 25.5838 33.7948Z" fill="#FCDA38"/>
<path d="M23.4914 21.2449C23.8087 19.6471 24.0432 18.2676 24.3743 16.916C24.4893 16.4423 24.9446 16.145 25.4458 16.433C25.6482 16.5491 25.8229 17.1483 25.8183 17.1529C24.2548 17.9704 25.3171 20.2927 23.4914 21.2449Z" fill="#FDE75F"/>
<path d="M11.9256 40.6503C11.5118 38.6763 13.6272 37.9796 13.1995 36.3818C13.1903 36.34 14.041 35.8152 13.8755 36.1821C13.411 37.1993 15.4437 36.8324 14.5515 37.4037C13.3328 38.1793 13.1397 39.6842 11.9256 40.6503Z" fill="#FEE763"/>
<path d="M26.9634 35.6619C26.0391 34.3939 27.4922 34.0781 27.8785 33.3349C27.6348 32.824 27.9383 32.5918 28.343 32.4106C28.9316 32.1505 28.8902 31.1194 29.787 31.2077C30.1273 32.6336 28.8489 33.2699 28.3384 34.2732C27.7866 34.6401 28.0947 35.8802 26.9634 35.6619Z" fill="#FCDA2F"/>
<path d="M17.0348 24.5751C17.6556 22.903 18.6949 21.5189 19.6101 20.0465C19.3617 21.9137 18.4006 23.3768 17.0348 24.5751Z" fill="#FDE766"/>
<path d="M18.2075 8.23977C18.6719 7.70563 19.2514 7.40837 20.2447 7.36657C19.8492 8.05863 18.9755 8.37911 19.1686 9.18264C17.6326 9.45667 19.3801 9.8236 19.141 10.1301C18.1707 9.90721 17.5728 10.6504 16.8417 11.0452C15.9633 9.44738 18.304 9.44738 18.2075 8.23977Z" fill="#FDE155"/>
<path d="M20.9943 8.72746C21.5507 8.59741 21.8128 7.79388 22.6038 8.04005C22.797 9.44274 21.4633 10.0233 20.9897 11.0498C19.3755 10.2695 20.6402 9.49848 20.9943 8.72746Z" fill="#FDE773"/>
<path d="M13.1673 27.766C13.7651 27.2969 14.0135 26.6466 14.0916 25.9127C15.3379 28.0214 13.2639 28.8714 12.5695 30.5342C12.036 29.2105 12.9466 28.5834 13.1673 27.766Z" fill="#FEE661"/>
<path d="M9.47914 42.1552C8.83532 42.6382 9.07445 43.7808 8.10873 44.0223C7.28096 43.2374 8.28348 42.5221 8.2099 41.7511C8.16851 41.3191 8.5686 40.8454 9.08825 40.9986C9.6171 41.1519 9.45155 41.7279 9.47914 42.1552Z" fill="#FDEA7F"/>
<path d="M22.4429 28.4487C22.3739 27.3712 23.0683 26.7163 22.6176 25.922C22.3693 25.4808 22.4199 24.9467 22.9993 24.8584C23.5879 24.7702 23.6569 25.3368 23.7259 25.7827C23.8915 26.8696 23.3442 27.6313 22.4429 28.4487Z" fill="#FEE762"/>
<path d="M13.9399 30.3949C14.1698 31.7093 12.6384 32.2574 12.7212 33.5068C12.2889 32.1041 13.1627 31.2727 13.9399 30.3949Z" fill="#FEE661"/>
<path d="M32.4772 27.766C32.4174 28.537 31.8242 29.308 32.4726 30.079C31.5621 30.7432 31.1988 29.1454 30.2745 29.6749C30.9551 28.8296 31.4471 27.9703 32.4772 27.766Z" fill="#FDE871"/>
<path d="M7.17519 24.0317C6.72912 24.1849 6.27845 24.3382 5.83237 24.4915C5.82777 24.3475 5.81858 24.1989 5.80938 24.0549C6.28304 23.0516 6.76131 22.0484 7.23497 21.0451C7.34074 21.0869 7.44652 21.1241 7.55229 21.1659C7.42352 22.1181 7.29936 23.0749 7.17519 24.0317Z" fill="#FDEB89"/>
<path d="M9.03307 34.733C7.75003 34.2453 7.75003 34.2453 9.18942 32.1877C9.79645 33.1445 9.39176 33.9387 9.03307 34.733Z" fill="#FEE661"/>
<path d="M28.343 32.4106C28.1866 32.7172 28.0349 33.0284 27.8785 33.3349C27.2255 33.2746 26.5863 33.0888 26.6829 32.2806C26.7519 31.6907 27.3359 31.3795 27.8647 31.3656C28.6005 31.3563 28.228 32.0344 28.343 32.4106Z" fill="#FDE966"/>
<path d="M29.718 25.9127C29.718 26.066 29.7226 26.2193 29.7226 26.3726C28.7799 26.7116 27.6302 26.6791 27.1289 27.8589C27.4509 26.4515 28.0211 25.4204 29.718 25.9127Z" fill="#FDE767"/>
<path d="M12.7166 18.0215C13.365 17.5477 13.1259 16.4051 14.087 16.1636C14.2434 17.2133 13.8709 18.0865 13.1949 18.8621C12.9925 19.0897 12.689 19.4009 12.5097 19.0619C12.3809 18.8203 12.6338 18.3744 12.7166 18.0215Z" fill="#FDE86D"/>
<path d="M25.5838 33.7948C25.2803 33.9573 24.9814 34.1245 24.6778 34.2871C24.4341 34.4497 24.0938 34.8073 23.9696 34.7423C23.565 34.524 23.6799 33.9991 23.8869 33.7808C24.2915 33.3582 24.7974 32.9216 25.3355 32.7915C25.6114 32.7265 25.547 33.4278 25.5838 33.7948Z" fill="#FEE96D"/>
<path d="M11.3186 22.6475C10.8909 22.7544 10.3943 23.3953 10.0632 22.6429C9.74586 21.9183 10.638 21.7604 10.8817 21.2774C11.0335 21.1241 11.1899 20.9708 11.3416 20.8175C12.1832 20.7757 12.0084 21.2356 11.7831 21.7233C11.7693 22.1041 11.6635 22.4385 11.3186 22.6475Z" fill="#FEEA76"/>
<path d="M3.05476 35.6619C3.90092 35.7269 4.50795 36.1496 4.70109 36.981C4.78847 37.3572 4.38378 37.4966 4.08487 37.4408C3.09615 37.255 3.04556 36.4654 3.05476 35.6619Z" fill="#FEE870"/>
<path d="M17.3291 15.6991C17.1912 16.5816 16.7773 17.2133 15.715 17.4316C15.5126 16.3401 16.4324 15.8942 16.8325 15.2068C17.2555 15.1046 17.4717 15.2161 17.3291 15.6991Z" fill="#FCEC8C"/>
<path d="M26.9634 35.6619C27.4233 35.1974 27.8831 34.7376 28.343 34.2732C28.458 35.6944 27.5934 36.3818 26.4805 36.9531C25.9057 36.131 26.922 36.1171 26.9634 35.6619Z" fill="#FDEE86"/>
<path d="M27.7406 15.6202C27.3359 14.9235 26.4024 14.5751 26.3334 13.3257C27.7222 13.6601 27.8096 14.5983 27.7406 15.6202Z" fill="#FDE043"/>
<path d="M20.7092 41.5514C21.2242 40.7246 21.6335 40.1069 22.7464 40.6131C22.2635 41.4352 21.7025 41.7279 20.7092 41.5514Z" fill="#FDED83"/>
<path d="M22.3647 14.3011C22.3647 14.1478 22.3693 13.9945 22.3693 13.8412C23.0177 13.6833 23.2292 12.7962 24.0156 12.8101C23.4684 14.2871 23.4684 14.2871 22.3647 14.3011Z" fill="#FDE86D"/>
<path d="M19.8216 28.9039C20.024 29.7307 19.4767 30.014 18.9801 30.2834C18.9065 30.3252 18.5156 30.0419 18.5294 29.949C18.6489 29.2383 19.026 28.811 19.8216 28.9039Z" fill="#FEE96B"/>
<path d="M24.2088 9.20586C23.473 8.06791 24.126 7.62203 25.1147 7.34799C25.1147 7.80781 25.1193 8.26764 25.1193 8.72746C24.8158 8.88538 24.5123 9.0433 24.2088 9.20586Z" fill="#FDE873"/>
<path d="M26.4989 10.5946C26.8024 11.3656 27.1106 12.132 27.4141 12.903C25.9471 12.6058 25.6666 11.8255 26.4989 10.5946Z" fill="#FDEA6D"/>
<path d="M26.338 20.1069C26.3196 21.3052 26.1724 21.8254 25.4274 22.0205C25.1009 21.2077 25.5884 20.8454 26.338 20.1069Z" fill="#FBEA7A"/>
<path d="M4.89424 23.1213C4.82066 22.4385 5.05059 21.8347 5.34951 21.2449C6.60495 22.2202 5.45988 22.6011 4.89424 23.1213Z" fill="#FBEB85"/>
<path d="M10.8725 18.4673C11.2542 18.0493 10.9737 17.1993 11.7785 17.06C11.7187 17.6313 11.8199 18.2908 11.5624 18.7507C11.1531 19.4752 10.9599 18.9457 10.8725 18.4673Z" fill="#FDE155"/>
<path d="M17.3291 15.6991C17.1636 15.5319 16.998 15.3693 16.8325 15.2021C16.9842 14.8631 16.6163 14.0363 17.2877 14.2593C17.9545 14.4869 17.904 15.1928 17.3291 15.6991Z" fill="#FDE66E"/>
<path d="M27.9245 18.2723C27.2347 17.8171 27.06 17.4455 27.1565 16.981C27.1703 16.9114 27.4233 16.8138 27.5106 16.8556C28.0395 17.0972 27.8142 17.5616 27.9245 18.2723Z" fill="#FCEE8D"/>
<path d="M7.19819 34.4311C7.05103 34.6447 6.96825 34.9188 6.82569 34.9559C6.4394 35.0535 6.32903 34.7283 6.37042 34.4357C6.39341 34.2824 6.60955 34.0549 6.74291 34.0456C6.87628 34.0363 7.02344 34.2685 7.19819 34.4311Z" fill="#FDDF45"/>
<path d="M9.05146 13.8598C8.28348 12.6197 9.24461 10.9337 7.865 9.73535C7.43732 9.36378 8.51341 8.49987 9.09745 8.08185C9.49294 7.79388 9.92062 7.19007 10.6104 7.68241C11.3324 8.19797 11.3876 8.9086 11.3508 9.68426C11.429 10.8779 9.85623 11.5793 10.4127 12.9123C10.4081 13.2885 10.3345 13.6322 9.9896 13.8505C9.67688 13.8227 9.36877 14.1292 9.05146 13.8598Z" fill="#FEE257"/>
<path d="M10.4081 12.9077C8.37085 11.1334 10.8312 10.6968 11.3462 9.67962C12.7074 11.2495 11.6635 12.1088 10.4081 12.9077Z" fill="#FDEB85"/>
<path d="M9.05146 13.8598C9.36417 13.7762 9.66769 13.321 9.9896 13.8459C9.75506 15.2857 8.86751 16.224 7.64886 17.1622C7.31315 15.5273 9.06986 15.0999 9.05146 13.8598Z" fill="#FDEB85"/>
<path d="M16.8555 7.80317C17.0026 7.96109 17.1544 8.12365 17.3015 8.28157C16.368 8.71352 15.9817 10.2834 14.5285 9.6471C14.11 9.27553 14.0824 8.77391 14.0824 8.26299C15.0758 8.50451 16.0829 8.86215 16.8555 7.80317Z" fill="#FDE155"/>
<path d="M13.6272 4.99779C13.9537 4.8956 14.5009 4.6355 14.5653 4.72375C14.97 5.29969 14.1054 5.46225 14.087 5.93601C13.5352 6.08464 12.8408 6.66058 12.7258 5.48083C13.0247 5.31827 13.3237 5.15571 13.6272 4.99779Z" fill="#FEE972"/>
<path d="M14.087 8.26299C14.6251 8.59741 14.5377 9.13619 14.5331 9.6471C13.4892 9.4799 13.3558 9.01543 14.087 8.26299Z" fill="#FBED8B"/>
<path d="M4.44356 26.9206C4.3148 27.1807 4.26422 27.478 4.12166 27.5337C3.76756 27.6731 3.56521 27.4037 3.58821 27.0786C3.5974 26.9067 3.77675 26.6698 3.93771 26.6094C4.04348 26.5723 4.24582 26.7906 4.44356 26.9206Z" fill="#FCEB8C"/>
<path d="M12.7258 5.48083C13.0431 6.04284 13.5904 5.92208 14.087 5.93601C13.6502 6.5073 13.0799 6.55375 12.5465 6.18218C12.266 5.9871 12.4545 5.66662 12.7258 5.48083Z" fill="#FDE14D"/>
<path d="M33.1165 17.4641C33.6637 18.1561 33.3464 18.9411 33.3832 19.661C33.443 20.7339 33.2314 21.858 34.6616 22.2806C35.31 22.471 35.4066 23.1538 35.0249 23.5951C34.5512 24.1478 34.2523 23.4511 33.9626 23.191C32.2611 21.6722 31.9622 19.6424 33.1165 17.4641Z" fill="#FEE85E"/>
<path d="M31.5667 24.9699C31.2816 25.3275 30.8539 25.4529 30.7573 24.9559C30.601 24.1803 30.9689 23.4464 31.6173 23.0331C31.9116 22.8426 31.9898 23.3303 32.0312 23.609C32.2657 24.1942 31.9116 24.5797 31.5667 24.9699Z" fill="#FDE14D"/>
<path d="M34.2109 18.5417C34.3351 19.3312 34.4639 20.1255 34.6156 21.0869C33.8706 20.0883 33.8706 20.0883 34.2109 18.5417Z" fill="#FDEB73"/>
<path d="M31.5667 24.9699C31.7185 24.5147 31.8748 24.0595 32.0266 23.6043C32.7853 24.3754 32.5416 24.798 31.5667 24.9699Z" fill="#F5CA2C"/>
<path d="M30.486 15.0396C30.4998 15.3786 30.3526 15.5551 30.1181 15.4669C29.9663 15.4111 29.8284 15.1836 29.7824 15.0071C29.7272 14.7888 29.8376 14.5519 30.1135 14.6541C30.2791 14.7144 30.3894 14.9327 30.486 15.0396Z" fill="#FDEA77"/>
<path d="M26.062 3.13527C28.1637 2.97735 29.5571 4.1989 29.2673 5.94065C28.9546 6.8185 28.6741 7.7335 27.4187 7.33406C26.3196 6.14967 26.1816 4.64479 26.062 3.13527Z" fill="#81B43F"/>
<path d="M27.4187 7.33406C28.1912 7.0786 28.7063 6.47944 29.2673 5.94065C29.4145 6.40048 29.5617 6.86494 29.7088 7.32477C29.0742 7.65454 28.6143 8.16545 28.2648 8.78784C27.7636 8.43484 27.4463 7.97038 27.4187 7.33406Z" fill="#99BE4A"/>
<path d="M24.1674 4.13388C24.9262 4.05956 25.0043 3.49291 25.1607 2.88446C25.3171 2.26672 25.6804 2.22027 25.9747 2.86124C25.2435 3.09811 25.9701 5.45296 24.1674 4.13388Z" fill="#A4BD44"/>
<path d="M18.6903 5.03494C18.5294 4.87238 18.3684 4.70517 18.2075 4.54261C18.4972 4.17568 18.9295 3.86913 19.2468 4.29644C19.4767 4.60299 18.9892 4.85845 18.6903 5.03494Z" fill="#FCE872"/>
<path d="M35.264 9.17799C35.1077 9.32662 34.9559 9.47525 34.7996 9.62388C33.4935 8.95505 33.144 7.71956 32.9371 6.40048C32.9417 6.21934 32.9463 6.03819 32.9463 5.8617C33.2544 5.63411 33.5533 5.65269 33.843 5.9035C35.0111 5.89421 35.4342 7.34335 36.6023 7.34799C36.8644 7.3805 37.0207 7.53378 37.0805 7.78924C37.3657 8.34195 37.3565 8.74604 36.5931 8.77391C36.2482 9.23373 35.6641 8.90396 35.264 9.17799Z" fill="#639333"/>
<path d="M37.0805 7.78924C36.9196 7.64061 36.7632 7.49662 36.6023 7.34799C37.8209 6.53982 39.0396 6.7256 40.2582 7.34799C39.3385 8.52309 38.0647 7.11576 37.0805 7.78924Z" fill="#9EC66D"/>
<path d="M35.264 9.17799C35.563 8.55561 36.1102 8.76926 36.5931 8.76926C36.4459 9.38236 37.7335 10.3438 36.1516 10.6039C35.8573 10.1301 35.5584 9.65639 35.264 9.17799Z" fill="#98C361"/>
<path d="M40.2582 11.1009C40.272 11.2356 40.2766 11.3703 40.2812 11.505C39.7616 11.2727 39.5086 12.3178 38.9936 11.8022C38.8648 11.6722 38.9384 11.152 39.0902 10.9476C39.5086 10.3995 39.8811 10.9476 40.2582 11.1009Z" fill="#A0C86C"/>
<path d="M36.6207 12.42C36.6253 12.276 36.6207 12.1274 36.6115 11.9834C37.8209 11.1334 37.7795 12.2203 38.0003 12.8984C37.5404 12.7405 37.0805 12.5779 36.6207 12.42Z" fill="#96BF5C"/>
<path d="M32.9371 6.40512C33.8476 7.31083 34.1466 8.57418 34.7996 9.62853L34.772 9.67033C33.3648 10.8315 32.5968 10.0698 32.022 8.7321C32.5462 8.07256 31.8748 8.01682 31.5529 7.78924C31.1896 7.17149 30.9919 6.55375 31.5667 5.94065C32.022 6.09393 32.4772 6.2472 32.9371 6.40512Z" fill="#7EAC46"/>
<path d="M33.843 5.9035C33.5441 5.88956 33.2452 5.87563 32.9463 5.8617C32.8037 5.58301 32.6658 5.29969 32.5232 5.02101C33.0199 4.49152 33.8155 5.08604 34.3075 4.53796V4.53332C35.3836 3.82268 36.4597 4.26857 37.5312 4.54261C37.4392 5.55979 36.685 5.4251 36.0044 5.47154C35.2732 5.53192 34.4639 5.2486 33.843 5.9035Z" fill="#95C162"/>
<path d="M32.022 8.7321C32.8221 9.39165 33.5855 10.172 34.772 9.66568C34.6524 10.3763 35.7469 11.1891 34.8686 11.714C34.2063 12.1088 33.8247 11.0405 33.2406 10.7479C32.8359 10.5482 32.4404 10.3299 32.0358 10.1209C31.9162 9.66104 31.2402 9.20586 32.022 8.7321Z" fill="#8CB74C"/>
<path d="M31.5621 5.93601C31.5575 6.55375 31.5529 7.16685 31.5483 7.78459C30.8033 7.51055 30.6837 6.82779 30.5044 6.18218C30.4124 5.84776 30.0951 5.41581 30.578 5.23931C31.0976 5.04888 31.3276 5.56444 31.5621 5.93601Z" fill="#8BB953"/>
<path d="M34.3121 4.54261C33.8568 5.23466 33.1394 4.94205 32.5278 5.02565C32.8819 3.95273 33.7419 4.80271 34.3121 4.54261Z" fill="#82B246"/>
<path d="M11.3186 22.6475C11.337 22.2713 11.4198 21.923 11.7831 21.7233C12.1648 21.9416 12.2522 22.2481 11.9946 22.6104C11.8015 22.8798 11.5624 22.982 11.3186 22.6475Z" fill="#FDE14D"/>
</svg>
