<svg width="59" height="45" viewBox="0 0 59 45" fill="none" xmlns="http://www.w3.org/2000/svg">
<path d="M3.94692 36.6254C2.31075 35.6056 1.56733 33.9198 1.02088 32.2114C0.344171 30.0977 -0.256287 27.9229 0.112248 25.6419C0.566563 24.8504 0.277453 23.9914 0.296516 23.171C0.318755 22.2606 0.356879 21.3758 0.754007 20.5458C0.89062 20.4589 1.10666 20.4203 1.16067 20.549C1.43707 21.1892 1.48472 20.7034 1.58639 20.4654C2.08836 19.8798 2.62528 19.4648 3.38459 20.0439C3.69276 20.475 3.79125 21.0155 4.09942 21.4498C4.15343 21.5914 4.18202 21.7394 4.18837 21.8906C4.06447 22.6305 4.06129 23.3641 4.28686 24.0912C4.34723 24.4644 4.35676 24.8408 4.33134 25.2172C4.30592 25.6386 4.15978 26.0408 4.07718 26.5234C4.31228 26.3143 4.34723 26.0537 4.52832 25.8992C5.37658 25.555 6.27886 24.4965 6.99051 26.0794C7.01593 26.4719 7.22244 26.7518 7.54332 26.9448C8.13424 25.8381 8.64257 26.2563 9.15725 27.0188C9.44 27.4371 9.57661 28.2253 10.3359 27.3695C10.6504 27.0156 11.1747 27.1765 11.038 27.8553C10.965 28.2156 11.0412 28.5727 11.0031 28.8398C11.181 28.2253 10.7871 27.2408 11.8831 26.9609C12.1564 27.1765 12.2104 27.4853 12.2231 27.807C12.2548 28.6467 11.7688 29.8596 13.4303 29.5283C13.9768 30.9535 16.0037 31.2076 16.1022 32.9803C16.2897 33.0222 15.775 33.5337 16.3278 33.331C16.6074 33.2281 16.8774 33.1412 17.1761 33.2313C17.3127 33.3021 17.3857 33.4147 17.4048 33.5659C17.3444 34.0324 16.9156 34.2415 16.7059 34.5954C16.2674 35.3353 16.6519 35.9048 17.5065 35.9144C17.983 35.9176 18.628 35.3353 18.8885 36.2587C14.968 39.048 7.80066 40.2255 3.92786 36.619L3.97551 36.5836L3.94692 36.6254Z" fill="#FAC132"/>
<path d="M30.3258 5.3959C30.8976 6.12943 31.0692 7.02381 31.3202 7.88925C31.4409 9.49785 31.0406 10.315 29.935 10.7461C29.8079 10.6335 29.6777 10.5692 29.5347 10.7397C29.414 10.8813 29.271 10.9617 29.0867 10.9553C28.4799 10.7526 28.8326 12.6314 27.8286 11.5569C27.7174 11.47 27.7238 11.2963 27.6031 11.2094C27.692 11.3317 27.7492 11.4764 27.8541 11.5955C28.5562 11.9687 29.2361 12.3547 29.3727 13.2491C29.6046 13.4711 29.8619 13.677 30.1669 13.7349C31.1645 13.9215 31.6506 14.2722 31.514 15.5237C31.4187 16.3956 32.4798 17.2095 32.2606 18.2841C32.2892 18.6122 32.232 18.9211 32.0668 19.2074C31.9683 19.3393 31.8476 19.4487 31.7078 19.5324C31.2217 19.7447 30.8532 20.1243 30.4211 20.4171C29.8333 20.8192 29.217 21.0991 28.6642 20.3431C28.8072 19.7962 29.163 19.3104 29.0804 18.6927C29.0454 18.4417 29.1376 18.1618 29.3663 17.9913C30.4497 17.1934 30.4497 17.1934 29.8969 15.7007C29.9986 16.7205 29.7984 17.4959 28.9978 18.0042C28.6896 18.0717 28.5244 17.8144 28.2988 17.6953C27.9748 17.5924 27.6634 17.8433 27.3394 17.7307C27.0376 17.8047 27.2504 17.1066 26.9359 17.3897C26.291 17.972 25.627 17.9624 24.8962 17.6696C24.7024 17.3028 24.8263 16.9393 24.909 16.5757C25.1536 15.3661 25.8398 14.2239 25.4395 12.8084C24.8454 13.3296 24.1338 13.6127 23.4761 14.1306C24.6739 14.4942 25.125 15.2245 24.9121 16.3634C24.8168 16.8042 24.6611 17.2224 24.4133 17.5988C24.299 17.6985 24.1655 17.7597 24.013 17.7822C22.8375 16.9007 21.0806 17.1484 20.1593 15.7618C20.0227 15.5527 19.8352 15.5816 19.6097 15.6267C18.0339 15.9484 17.0998 15.6942 15.9211 14.5521C15.254 13.9022 15.2254 14.7291 14.9267 14.935C13.6623 15.3114 11.6735 14.5425 11.3494 13.558C11.4479 13.1494 11.4447 12.7376 11.343 12.3258C11.3144 11.9976 11.3017 11.5826 11.6131 11.4732C12.7981 11.0646 13.9291 10.5016 15.1428 10.1896C15.4827 10.1027 15.6479 10.537 15.972 10.5724C15.9307 10.2507 15.6543 10.0158 15.6702 9.68124C15.8925 9.04744 16.6233 9.23404 17.0172 8.85763C16.7916 8.55843 16.3596 8.53591 16.2325 8.16271C16.1149 7.44205 16.6741 7.27476 17.1348 7.02703C17.8464 6.81148 18.3929 6.22594 19.1458 6.10047C20.6041 6.24846 21.5064 5.46025 22.1704 4.26344C22.3133 4.07684 22.4944 3.96102 22.7327 3.9578C22.774 4.02215 23.6064 4.26344 23.7716 4.28596C24.2735 4.35674 24.8009 4.60125 24.874 5.07096C24.9852 5.77553 25.2775 6.6474 24.8676 7.21041C24.4737 7.74769 24.0257 6.98199 23.295 6.54123C24.3689 7.55465 24.0956 8.25279 23.3713 8.97345C24.1846 8.78363 24.9312 6.84687 25.6905 8.96058C25.7445 8.45869 25.484 7.68656 26.0241 7.67047C26.8914 7.64152 27.9017 7.27154 28.5625 7.94394C27.7047 6.15195 28.1495 5.42164 30.3258 5.3959Z" fill="#EB593B"/>
<path d="M53.5022 40.4443C52.8731 40.7692 52.2441 41.0909 51.6182 41.4159C50.7318 41.5864 49.9376 42.0207 49.1116 42.3585C48.1235 42.7639 47.6374 42.3038 47.577 41.4255C47.4786 39.9778 46.8749 38.6233 46.8781 37.1659C46.8781 36.4163 46.1982 35.8211 46.4047 35.0265C46.6239 34.6758 46.9671 34.5503 47.3451 34.4989C47.8566 34.5632 48.2919 34.4474 48.5397 33.9358C48.7335 33.6527 48.9146 33.3503 49.2863 33.2731C49.5913 33.3246 49.8041 33.1476 50.017 32.9707C50.7032 32.8742 51.0591 32.0409 51.8311 32.131C52.9145 32.3111 53.6198 32.8162 53.4673 34.0677C53.3561 34.4345 52.9907 34.8109 53.5054 35.1584C53.5848 35.2581 53.6325 35.3739 53.6388 35.4994C53.5149 35.8147 53.8549 35.8501 53.9629 36.0303C54.001 36.1622 54.0105 36.2941 53.9851 36.4292C53.8612 36.9825 53.0447 37.0951 53.1337 37.7901C53.6039 38.1054 53.7691 37.2882 54.2012 37.5166C54.4776 37.7901 54.5792 38.1472 54.6682 38.5107C54.9319 39.5628 53.6229 39.6335 53.5022 40.4443Z" fill="#FDCC2E"/>
<path d="M4.57915 11.1225C5.69429 9.40134 6.87614 7.74125 8.42335 6.38037C9.09053 6.11977 9.72911 5.83023 9.89432 5.01627C12.6742 2.52936 15.8608 0.885361 19.5239 0.225831C20.3753 0.537901 21.2522 0.0553186 22.1005 0.315913C23.0853 0.856406 22.1958 1.50307 22.1989 2.09825C22.1227 2.23016 22.0147 2.32989 21.8812 2.40067C20.9408 2.69665 19.9782 2.53901 19.1331 2.2012C17.983 1.73792 19.0759 2.72561 18.7455 2.72561C18.6566 3.02481 18.4437 3.21784 18.2054 3.39157C17.678 3.7326 17.157 4.08328 16.8393 4.66237C16.6963 4.84254 16.5121 4.95836 16.296 5.02914C15.9243 5.12244 15.559 5.10957 15.2158 4.93906C15.076 4.87471 14.9553 4.59803 14.9236 4.6302C14.0372 5.47633 12.6774 5.74979 12.1309 6.99808C12.0769 7.34232 12.0674 7.68978 12.0833 8.04045C12.0738 8.18845 12.0356 8.32679 11.9721 8.45869C11.4765 9.08605 11.1143 9.82923 10.4408 10.3054C10.3073 10.3665 10.1707 10.4051 10.0246 10.4212C9.33834 10.2346 8.55997 11.277 7.93409 10.2603C7.93091 9.74236 8.35028 9.55576 8.66798 9.28874C8.79824 9.2083 8.94439 9.16326 9.09371 9.12787C8.94121 9.13753 8.81095 9.19865 8.68069 9.2823C8.25497 9.4882 8.00716 9.95148 7.52743 10.0705C7.22561 10.0802 6.91426 9.90644 6.6188 10.1156C6.28521 10.3987 6.04058 10.7461 5.81819 11.1129C5.74194 11.2416 5.64981 11.3606 5.55132 11.47C5.2781 11.6823 5.02393 12.0137 4.63316 11.7917C4.36311 11.6341 4.45525 11.3606 4.57915 11.1225Z" fill="#EB5F45"/>
<path d="M47.1704 37.2367C47.2498 38.6555 47.9774 39.9456 47.8947 41.4159C47.863 42.0014 48.2283 42.4293 49.0702 42.1044C49.8772 41.7955 50.6111 41.0169 51.6151 41.4159C49.1529 42.9473 46.4111 43.7355 43.6312 44.3146C38.351 45.4181 33.1247 45.3409 28.1305 42.9537C27.0439 42.4357 25.9192 41.9242 25.2044 40.8529C25.09 40.6116 25.2235 40.3381 25.4014 40.3767C26.7262 40.6598 26.6214 39.9553 26.6627 38.9322C26.7294 37.3107 26.4085 35.4801 27.9875 34.2608C30.0907 34.4828 30.3671 35.049 29.5156 36.8474C28.8929 38.1665 27.8541 39.3601 28.0129 40.9751C29.0296 42.5934 31.8126 43.4845 34.0556 42.9054C34.278 42.9634 34.4369 43.1081 34.5608 43.2947C36.2795 44.1634 38.1222 43.9639 39.9141 43.7966C41.5756 43.639 43.2245 43.3012 44.8353 42.8025C46.7415 42.2137 46.7478 42.2427 46.2903 40.3285C46.5064 39.4695 46.087 38.7102 45.9028 37.9188C45.8138 37.404 45.7344 36.886 45.5755 36.3841C45.4834 36.0914 45.3881 35.7182 45.7407 35.5477C46.1537 35.3482 46.3952 35.6892 46.643 35.9627C46.9734 36.3327 46.8495 36.8764 47.1704 37.2367Z" fill="#FBBE23"/>
<path d="M31.6728 19.2557C31.7936 19.2299 31.9143 19.201 32.035 19.1752C32.0827 19.1495 32.143 19.0916 32.1716 19.1045C33.7284 19.8637 34.475 19.0787 34.888 17.6503C34.9611 17.6503 35.031 17.6503 35.104 17.6535C35.4186 17.9237 35.4408 18.3034 35.4726 18.6766C35.498 19.0047 35.4726 19.3393 35.6155 19.645C36.8069 19.2878 37.8839 19.2396 38.3446 20.7613C38.9387 20.446 38.6623 19.497 39.4248 19.497C39.8728 19.497 40.2349 19.7897 40.4859 20.1179C41.4295 21.3437 39.787 21.305 39.5741 21.9774C39.339 22.267 39.0721 22.5179 38.6973 22.6048C38.0078 22.6402 37.5186 23.0938 36.9817 23.4477C36.8609 23.5281 36.7338 23.5893 36.6004 23.6407C36.1938 23.7533 35.7776 23.8209 35.3614 23.8885C35.0754 23.8949 34.799 23.8273 34.5258 23.7501C33.6077 23.3995 32.7435 22.949 31.9683 22.341C31.4155 22.0161 31.5458 22.5984 31.4536 22.7882C31.2503 23.2032 31.2789 23.7533 30.7388 23.9625C29.7603 24.0268 28.804 23.9046 27.8763 23.5861C27.6603 23.4252 27.5935 23.2 27.6094 22.9394C28.6007 21.2954 30.2527 20.4074 31.6728 19.2557Z" fill="#FCC933"/>
<path d="M28.105 34.3509C26.9486 35.834 27.0789 37.6035 27.0789 39.3279C27.0789 39.9553 27.4125 40.7467 26.9772 41.1585C26.4752 41.6314 26.1893 40.6727 25.7064 40.5665C25.4681 40.5118 25.3188 40.663 25.2076 40.8561C22.7708 39.0641 22.5135 36.4807 22.6819 33.7396C22.5834 33.5787 22.5897 33.4211 22.6914 33.2634C23.8796 32.176 25.0646 33.0608 26.2528 33.2699C26.92 33.5401 27.7587 33.5144 28.105 34.3509Z" fill="#FDC82D"/>
<path d="M30.3258 5.3959C29.6967 5.87848 28.356 5.64684 28.5053 6.85652C28.6038 7.65117 29.2011 8.38148 28.8675 9.77775C28.6451 7.36806 27.0153 8.34609 25.986 7.81847C26.0463 8.47156 26.1003 9.03457 26.1893 9.97079C25.5952 9.21474 25.2044 8.71929 24.8073 8.21418C24.5372 8.56808 24.2735 8.88015 24.0543 9.22117C23.8955 9.4689 23.8701 9.96113 23.4475 9.6941C23.1648 9.51716 22.9646 9.13431 22.8375 8.80294C22.7263 8.50695 22.7708 8.20131 23.2633 8.19166C23.9209 8.17879 23.8415 7.71873 23.5714 7.37127C23.0599 6.71174 23.0313 6.73426 23.7176 5.93318C24.1941 6.15838 23.8224 7.06885 25.0138 7.0399C23.6858 6.41898 25.4363 4.97123 23.851 4.57551C22.9741 4.35674 23.4571 5.55033 22.8121 5.71441C22.1545 5.21895 23.4475 4.55942 22.7073 4.10258C22.7454 3.18889 23.7366 2.96368 24.0226 2.23016C24.1401 2.14008 24.2735 2.08538 24.4229 2.0693C25.0614 2.32989 25.3537 2.95403 25.8017 3.41731C26.2687 4.16049 25.8494 5.0967 26.3068 5.83988C26.6309 6.3675 26.8755 6.33533 26.9994 5.71119C27.3076 5.34764 27.1329 4.96158 27.0503 4.57873C27.3966 3.97067 27.5618 3.17602 28.4672 3.12776C29.3917 3.62965 29.9604 4.42752 30.3258 5.3959Z" fill="#EB5C42"/>
<path d="M51.9042 21.8069C52.3458 23.0359 53.3719 22.415 54.0518 22.3346C54.8238 22.2445 55.2146 22.4086 55.5959 23.0263C56.2694 24.1105 57.0192 25.1496 57.6959 26.2306C58.0898 26.8612 58.4774 27.5304 58.0136 28.3121C57.6991 28.177 57.5466 27.8167 57.2003 27.7298C56.1868 27.6237 55.1797 27.6848 54.1726 27.762C53.4577 27.7523 53.283 26.9384 52.6921 26.7389C52.422 26.5748 52.3553 26.311 52.3299 26.0215C52.279 25.378 51.8311 24.9855 51.4435 24.5512C51.0527 24.1137 50.6397 23.6858 50.7731 23.0134C51.0654 22.5308 51.1798 21.8745 51.9042 21.8069Z" fill="#FDCC32"/>
<path d="M35.1104 18.9179C35.1104 18.4964 35.1072 18.075 35.1072 17.6535C37.0293 16.7462 39.1103 16.5822 41.1722 16.3248C42.1539 16.2025 42.4048 16.9715 42.7416 17.6149C43.0498 18.2036 43.3071 18.8214 43.6344 19.5324C43.9648 19.053 44.2507 18.6412 44.5366 18.2262C44.7495 18.1007 44.9592 17.9656 45.2165 17.9495C46.8432 18.4353 47.4023 19.0626 47.3324 20.3302C46.2141 20.578 45.2419 20.9994 45.045 22.3313C44.8607 22.6241 44.5875 22.6949 44.2698 22.637C43.4977 22.3346 43.8885 21.5013 43.5454 20.9865C43.126 21.2439 42.8242 22.1061 42.1983 21.2632C42.0045 20.7259 41.8743 20.1565 41.4899 19.7061C40.3652 18.4321 40.3652 18.4321 40.9498 17.4637C40.1905 17.3993 39.752 18.1039 39.0817 18.2616C38.208 18.3581 37.3534 18.4964 36.5591 18.9275C36.1016 19.1752 35.5901 19.3104 35.1104 18.9179Z" fill="#FDC92F"/>
<path d="M58.3726 35.0265C58.1407 35.715 57.9437 36.426 57.3273 36.8925C56.5776 36.9214 56.2853 37.5327 55.8882 38.0281C55.6562 38.3177 55.4688 38.8711 54.9287 38.3885C54.7444 38.0153 54.7667 37.6228 54.8302 37.2271C55.0113 35.6667 54.5252 34.2029 54.1884 32.7165C54.0963 32.2918 54.0772 31.8672 54.2139 31.4489C54.6586 30.5127 55.7642 30.8087 56.406 30.236C56.5776 30.1717 56.7523 30.1395 56.9334 30.1299C58.3154 30.1202 58.7125 30.857 58.6331 32.1792C58.5759 33.1315 58.487 34.0774 58.3726 35.0265Z" fill="#FDC933"/>
<path d="M31.9492 18.3066C31.9302 17.5634 31.981 16.8009 31.2725 16.2958C31.1868 16.2347 31.0501 16.1157 31.066 16.0706C31.8508 13.7961 29.4457 14.3719 28.7595 13.4229C29.306 13.1623 29.2933 12.7665 29.074 12.2743C28.8675 11.8143 28.6038 11.3285 29.074 10.8587C29.1852 10.7397 29.2933 10.6239 29.4044 10.5048C29.5697 10.3279 29.6745 10.0126 30.0176 10.2185C30.024 10.27 30.0271 10.3247 30.0399 10.3762C30.0526 10.4276 30.078 10.4727 30.097 10.5241C30.5132 9.64906 31.3837 8.99275 31.3234 7.88925C31.8444 9.3756 32.0922 10.9231 32.2765 12.4802C32.6005 14.2304 32.3337 15.9966 32.3877 17.7532C32.394 18.0524 32.2638 18.2583 31.9492 18.3066Z" fill="#EC6144"/>
<path d="M51.9042 21.8069C51.596 22.238 51.2878 22.6691 50.9796 23.097C50.2553 23.3126 49.9408 22.4922 49.3244 22.4343C48.6541 22.3571 48.3173 22.8654 47.9106 23.2482C47.5707 23.57 47.2307 23.9592 46.7065 23.7019C46.2014 23.4541 45.9059 23.052 46.0902 22.4343C46.5668 21.8584 46.8845 21.1796 47.2784 20.549C47.5802 20.282 47.8217 19.9345 48.2315 19.8155C49.4674 19.4423 50.7191 19.2653 52.0058 19.5034C53.2036 20.3302 52.4315 21.0638 51.9042 21.8069Z" fill="#FCC128"/>
<path d="M22.7104 33.376C22.7009 33.4983 22.6914 33.6173 22.6787 33.7396C21.7542 34.367 21.0489 35.3096 19.9464 35.6796C19.0632 35.2839 19.4 34.2383 18.8885 33.6399C18.8122 32.4495 19.7272 31.9154 20.4325 31.243C20.9536 30.5706 21.8082 31.1047 22.4023 30.6832C22.9233 30.902 23.4729 31.0468 23.9686 31.3235C24.604 32.6683 23.1362 32.694 22.7104 33.376Z" fill="#FAB940"/>
<path d="M52.009 19.5066C50.7731 20.0986 49.388 19.8058 48.114 20.1758C47.4563 19.6771 46.8813 19.0819 46.2935 18.5028C46.014 18.2262 45.7344 17.8176 45.2705 18.2519C45.0259 18.2423 44.7813 18.2358 44.5366 18.2262C45.0704 16.8395 45.9091 16.3859 47.3578 17.0422C48.9654 17.7661 50.6365 18.3356 52.009 19.5066Z" fill="#FFD136"/>
<path d="M57.6514 27.2666C58.0422 27.5207 57.931 27.9518 58.0136 28.3154C58.0803 28.9524 57.4894 29.2902 57.3464 29.8339C57.286 29.8789 57.2257 29.924 57.1685 29.969C55.4021 29.6634 53.7913 30.487 52.0916 30.6929C51.7231 30.6543 51.4848 30.4741 51.4467 30.0784C51.847 28.5116 52.8414 27.7041 54.4426 27.6237C55.5196 27.569 56.6093 27.6301 57.6514 27.2666Z" fill="#FCC026"/>
<path d="M19.2157 33.6946C20.334 34.0259 19.4095 35.1294 19.9464 35.6796C19.6541 35.982 19.3905 36.3391 18.8917 36.2522C18.5676 35.8179 18.2022 36.1107 17.9036 36.2522C16.4136 36.96 16.0546 35.9305 15.9688 34.8495C15.9053 34.0613 17.1888 34.1964 17.3095 33.3793C17.7765 32.7551 18.2213 32.1117 18.79 31.5744C19.041 31.4103 19.292 31.2591 19.5938 31.4457C19.8734 31.9186 19.543 32.205 19.2729 32.5074C18.933 32.887 18.7741 33.2731 19.2157 33.6946Z" fill="#FBC23F"/>
<path d="M1.07171 18.7795C1.24645 17.5409 1.65628 16.3859 2.32981 15.3339C2.39971 15.3468 2.4696 15.3564 2.54267 15.3661C3.2861 15.8165 4.02317 16.2733 4.17567 17.2514C4.16931 17.602 4.10259 17.9688 4.3917 18.2551C4.44889 18.3838 4.47748 18.5189 4.47431 18.6605C4.38853 19.1012 4.12483 19.4069 3.74994 19.6289C3.61969 19.6707 3.48625 19.6771 3.35599 19.6417C3.10819 19.3361 2.39018 19.6964 2.43783 18.9854C2.02482 18.6476 2.05659 19.172 1.9168 19.2975C1.67535 19.5131 1.64993 19.9956 1.15749 19.883C0.817548 19.542 0.973222 19.1592 1.07171 18.7795Z" fill="#F5A63F"/>
<path d="M23.3459 0.2387C24.3434 0.167921 25.1504 0.833885 26.0972 0.965791C26.1956 1.6961 25.5666 1.63497 25.1822 1.84087C24.8867 1.94061 24.5499 1.92131 24.3053 2.16903L24.2704 2.19477C23.5333 3.37549 22.0528 3.02803 21.106 3.78407C20.5882 4.2377 20.0576 4.39213 19.4985 3.84842C19.3555 3.51061 19.508 3.25002 19.705 2.99586C19.975 2.71596 20.2991 2.54545 20.6899 2.51327C21.1728 2.4811 21.6779 2.54223 22.0782 2.16903L22.075 2.17225C22.2784 1.64784 22.9805 1.29716 22.6151 0.576508C22.7994 0.344868 23.1616 0.486426 23.3459 0.2387Z" fill="#EA6045"/>
<path d="M28.4672 3.13098C28.0288 3.66182 27.5872 4.19588 27.1488 4.72672C27.1964 5.04844 27.3902 5.37016 27.1678 5.69832C27.0312 6.01039 27.4792 6.61523 26.8469 6.63775C26.4085 6.65383 25.8335 6.60879 25.8398 5.8077C25.8462 5.04201 25.6619 4.27309 25.5634 3.50418C25.9415 3.00229 26.7898 3.00551 26.9105 2.22372C26.9931 2.09825 27.1075 2.0146 27.2504 1.96956C27.6603 2.35563 28.3528 2.43284 28.4672 3.13098Z" fill="#E75037"/>
<path d="M5.5545 11.1869C5.56085 11.0743 5.56403 10.9617 5.57038 10.8491C5.93892 10.7526 6.31063 10.6947 6.69505 10.7687C7.11442 11.1772 6.81578 11.5794 6.69187 11.988C5.88808 13.5226 4.68081 14.6197 3.14631 15.3693C2.89532 15.4915 2.67293 15.5687 2.44101 15.3564C2.44101 15.3564 2.33299 15.3371 2.33299 15.3339C2.55538 14.3752 2.97793 13.5162 3.56885 12.7376C4.82696 13.0046 5.03346 11.8915 5.5545 11.1869Z" fill="#EE753B"/>
<path d="M1.07171 18.7795C1.13843 19.1592 1.0177 19.5999 1.43071 19.8637C1.87868 19.5806 1.92633 18.7602 2.69199 18.8986C2.43466 19.5935 3.59109 18.8471 3.33375 19.5452C3.52438 19.7608 3.50214 19.9763 3.33058 20.1919C2.70153 19.793 2.25674 20.3206 1.74206 20.5104C1.53556 20.7002 1.32587 20.7002 1.11619 20.5136C0.407711 21.3533 0.522084 22.3764 0.455367 23.3769C0.404534 24.133 0.808017 24.9791 0.112248 25.6386C0.0804776 23.3029 0.0264681 20.964 1.07171 18.7795Z" fill="#FABD42"/>
<path d="M58.3726 35.0265C57.8738 34.0388 58.3186 33.0125 58.3376 32.0216C58.3631 30.7025 57.8643 30.3197 56.6983 30.4806C56.5077 29.9111 57.0382 30.0334 57.2702 29.8693L57.3496 29.8339C59.0556 30.4902 59.5131 32.8066 58.3726 35.0265Z" fill="#FCC026"/>
<path d="M27.2536 1.97278C27.1932 2.04999 27.1424 2.13686 27.1043 2.22694C26.7643 2.91221 26.2719 3.3208 25.4999 2.9476C24.9788 2.69344 24.4769 2.3492 24.9407 1.62854C25.3633 1.47089 25.8017 1.34542 26.1003 0.969009C26.9581 0.743803 27.422 0.985095 27.2536 1.97278Z" fill="#A86240"/>
<path d="M55.1193 38.5204C55.4751 38.0024 55.7738 37.4297 56.2059 36.989C56.4632 36.7284 56.8857 35.9756 57.3273 36.8925C56.7809 37.8351 56.1677 38.7198 55.1829 39.2539C55.0558 39.2185 54.9732 39.1413 54.935 39.0126C54.9128 38.8164 54.9541 38.6459 55.1193 38.5204Z" fill="#FCC026"/>
<path d="M5.5545 11.1869C5.25586 12.9531 4.68081 13.4036 3.56885 12.7408C3.90562 12.2035 4.24238 11.663 4.57915 11.1258C4.83013 12.2807 5.23362 11.0646 5.5545 11.1869Z" fill="#EF7D4E"/>
<path d="M23.3459 0.2387C23.2092 0.502512 22.9646 0.557205 22.7009 0.576508C22.5993 0.734152 22.4976 0.7245 22.3959 0.576508C21.446 0.386692 20.4103 0.930402 19.5207 0.225831C20.8011 -0.102325 22.075 -0.0508496 23.3459 0.2387Z" fill="#E7432D"/>
<path d="M53.5022 40.4443C53.0828 40.351 52.7143 40.2191 53.2766 39.8008C53.75 39.4469 54.4807 39.3536 54.468 38.5365C55.0621 38.3177 54.8429 38.9708 55.0844 39.1284C55.1161 39.1703 55.1511 39.2121 55.186 39.2539C54.6904 39.7461 54.1598 40.1901 53.5022 40.4443Z" fill="#FCC026"/>
<path d="M9.89432 5.01627C9.81172 6.0876 9.12548 6.72461 8.42335 6.38037C8.91262 5.92674 9.40506 5.47311 9.89432 5.01627Z" fill="#EB5B3D"/>
<path d="M18.9012 31.7707C18.3833 32.3208 18.2976 33.3053 17.3127 33.376C16.9886 32.8709 16.3627 33.5884 16.045 33.0543C15.7496 31.5455 13.621 31.5905 13.4717 29.9497C13.4653 29.8821 13.3509 29.7888 13.2683 29.7695C11.7529 29.3899 11.7561 29.3931 11.9054 27.7395C11.9308 27.4757 11.9086 27.2086 11.9086 26.9448C11.9499 26.8805 11.9912 26.8194 12.0293 26.755C12.9474 25.9057 13.7481 26.858 13.9609 27.2987C14.339 28.0869 14.8346 28.0998 15.4827 28.1963C16.5534 28.3572 16.6677 28.5695 16.1149 29.5057C15.972 29.747 15.9847 29.9433 16.0991 29.9561C16.995 30.0655 17.1729 31.7063 18.4882 31.0243C18.9266 30.7991 18.9838 31.3814 18.9012 31.7707Z" fill="#FAB832"/>
<path d="M11.9086 26.9448C10.9205 27.5915 11.6544 29.036 10.5933 29.7792C10.6822 28.9524 10.7616 28.2188 10.8411 27.4982C9.86572 27.4049 10.4694 28.354 10.0309 28.6339C9.39235 28.5599 9.49719 27.7781 9.03017 27.5658C8.57903 27.3598 8.85225 26.2982 8.08976 26.5909C7.44483 26.8387 8.09612 27.5368 7.8769 28.1062C7.26056 27.8521 7.55602 27.3084 7.45436 26.932C7.27009 26.7518 7.24468 26.533 7.29551 26.295C7.74982 25.4167 8.04211 24.4579 8.57585 23.6182C8.72517 23.422 8.90308 23.2643 9.11595 23.1421C10.2152 22.7528 11.0698 22.875 11.3144 24.2391C10.7585 25.3073 12.1754 25.9378 11.9086 26.9448Z" fill="#FAB832"/>
<path d="M6.83166 26.3143C6.31063 24.6896 5.31622 26.3078 4.60457 25.9829C4.47748 25.8638 4.39488 25.7191 4.35676 25.5486C4.61092 24.0365 4.38853 22.3217 6.03423 21.3855C6.86979 22.0032 6.15495 22.5405 5.9548 23.274C6.52984 21.4273 7.28598 22.9909 7.96268 22.9941C8.36934 23.2129 8.40747 23.5861 8.38205 23.9914C8.10565 24.8086 7.88326 25.6547 7.25421 26.2982C7.11759 26.3947 6.97781 26.4043 6.83166 26.3143Z" fill="#FABB3D"/>
<path d="M7.64816 35.3868C7.89279 34.8045 7.25738 34.3863 7.66087 33.8618C8.37887 33.9455 7.89279 35.2292 8.87131 35.0329C9.18266 34.7015 8.34393 34.0774 9.11595 33.7299C9.77359 33.434 9.14454 34.9042 9.9388 34.2833C10.0278 34.2157 10.0436 34.2833 10.266 34.9589C10.4916 35.641 11.1016 34.5536 11.3843 35.2742C10.8538 35.9595 10.3709 36.6801 9.29068 35.8147C8.77918 35.4029 8.25815 35.6764 7.78477 36.1815C7.3654 36.6319 5.72923 36.0335 5.7483 35.4833C5.761 35.1391 5.88808 34.6147 6.12001 34.5021C6.91427 34.1128 7.12395 35.0104 7.64816 35.3868Z" fill="#FAC63E"/>
<path d="M2.10424 25.9668C2.49502 26.0279 2.63163 25.214 2.75871 25.5421C3.11772 26.4655 2.68246 27.3341 2.18049 28.1545C1.72936 27.881 2.24403 27.4918 1.92633 27.244C1.48155 27.2762 1.64358 28.0258 1.13207 27.9936C0.51573 27.5336 1.27186 24.9888 2.29487 24.0944C2.73012 24.5126 2.08518 24.6992 2.10107 25.0241C2.11695 25.3362 2.10424 25.6547 2.10424 25.9668Z" fill="#FBCE5B"/>
<path d="M3.96598 21.8005C3.96598 21.6911 3.96598 21.5849 3.96598 21.4756C3.73406 20.9286 3.69276 20.3688 3.84208 19.793C4.10895 19.4005 4.41394 19.0659 4.92862 19.0401C5.08747 19.0594 5.22409 19.1206 5.34799 19.2235C5.62121 19.6224 5.66887 20.1018 5.79913 20.549C5.99928 21.3726 5.3194 21.823 5.0144 22.4311C4.38217 22.7013 4.19155 22.2252 3.96598 21.8005Z" fill="#F7AD3E"/>
<path d="M4.91274 22.4343C4.95722 21.7362 5.72288 21.2857 5.55132 20.5168C6.56479 20.2916 6.46313 20.8225 6.18355 21.4723C4.79836 22.534 5.10971 24.252 4.60139 25.6515C4.23603 25.8606 4.14707 25.5132 3.97869 25.3298C3.97869 24.9051 3.97869 24.4804 3.97551 24.0558C4.21379 23.4702 4.21379 22.7431 4.91274 22.4343Z" fill="#F9C96D"/>
<path d="M3.61651 28.0065C4.29957 28.354 4.70623 28.5631 5.17008 28.7979C5.03029 28.9556 4.92862 29.1615 4.84284 29.1551C4.0327 29.0907 4.56009 30.709 3.70547 30.2232C2.81908 29.7181 3.86432 28.9073 3.61651 28.0065Z" fill="#FAC649"/>
<path d="M4.91274 22.4343C4.5728 22.9587 4.70623 23.763 3.97551 24.0558C3.54026 23.3062 3.54026 22.5565 3.96916 21.8037C4.28369 22.0128 4.59821 22.222 4.91274 22.4343Z" fill="#FABD48"/>
<path d="M3.97551 25.3298C4.1852 25.436 4.3917 25.5453 4.59821 25.6515C4.60139 25.7609 4.60139 25.8703 4.60457 25.9797C4.64587 26.5942 4.47113 27.0832 3.85796 27.3952C3.33693 26.6328 3.93739 25.9958 3.97551 25.3298Z" fill="#FAC649"/>
<path d="M3.97551 19.8734C4.01682 20.4074 4.41712 20.9447 3.96598 21.4756C3.11454 21.3726 3.39412 20.6938 3.33058 20.1919C3.33058 19.9763 3.33375 19.7608 3.33375 19.5452C3.43542 19.542 3.54026 19.5388 3.64193 19.5356C3.82619 19.571 3.93739 19.6836 3.97551 19.8734Z" fill="#FABD48"/>
<path d="M1.11619 20.5168C1.32587 20.5168 1.53238 20.5136 1.74206 20.5136C1.64358 21.0831 1.98987 21.7748 1.30681 22.2445C0.947806 21.6525 1.17655 21.0702 1.11619 20.5168Z" fill="#FAC652"/>
<path d="M4.74435 31.4586C4.79519 30.8023 4.78248 30.1492 5.41788 29.6441C5.65298 30.5031 5.08112 30.9599 4.74435 31.4586Z" fill="#F8D167"/>
<path d="M16.0387 33.0543C16.3755 32.99 16.7122 32.9192 17.049 32.8613C17.678 32.7519 17.3381 33.1444 17.3063 33.376C16.9251 33.479 16.547 33.6013 16.1594 33.672C16.0069 33.701 15.7083 33.82 15.7051 33.5176C15.7051 33.3664 15.9211 33.2088 16.0387 33.0543Z" fill="#FBC23F"/>
<path d="M6.83166 26.3143C6.9365 26.3078 7.04135 26.3046 7.14619 26.3046C7.24785 26.1695 7.35269 26.1695 7.45754 26.3014C7.45754 26.5105 7.45754 26.7228 7.45754 26.932C7.18749 27.0027 6.90473 27.3888 6.6601 27.0188C6.57115 26.8837 6.76494 26.5523 6.83166 26.3143Z" fill="#FAC960"/>
<path d="M15.0411 36.4742C14.7552 36.9922 14.4629 37.1917 13.9069 37.0501C14.1039 36.4453 14.5614 36.5836 15.0411 36.4742Z" fill="#FBCD56"/>
<path d="M3.94692 36.6254C4.03905 36.3327 3.67687 36.011 3.98187 35.7632C4.02952 35.7246 4.38217 35.9209 4.44254 36.0689C4.62998 36.5482 4.21379 36.5354 3.93104 36.6158C3.93104 36.6126 3.94692 36.6254 3.94692 36.6254Z" fill="#FDDA79"/>
<path d="M31.6728 19.2557C30.4084 20.4493 29.2647 21.7748 27.8255 22.7721C27.333 23.2965 27.9208 23.7276 27.9557 24.2038C27.9907 24.355 28.0002 24.5094 27.9907 24.667C27.8858 25.1335 27.5554 25.2847 27.1297 25.3137C26.8978 25.3105 26.6817 25.2494 26.4943 25.1046C26.4053 24.0751 26.9836 23.0809 26.669 22.0386C26.6595 21.7812 26.7167 21.5174 26.6373 21.2664C25.9637 20.8353 26.1734 22.119 25.573 21.8295C24.5944 21.2729 25.1028 20.475 25.2616 19.7318C24.6611 19.9313 23.9114 20.2594 23.5937 19.6128C23.2569 18.9243 23.8859 18.3323 24.372 17.8304C24.5214 17.6599 24.6739 17.4894 24.9344 17.6213C25.7 17.2964 27.0185 18.046 27.0471 16.4245C27.8699 16.6594 27.0312 17.335 27.476 17.6245C28.0256 18.2262 28.051 17.232 28.4259 17.3028C28.6833 17.4412 28.7373 17.6825 28.7436 17.9463C29.1916 18.6959 29.3759 19.4487 28.7468 20.2015C29.3663 20.8192 29.8715 20.4654 30.3607 20.0021C30.742 19.6385 31.0533 19.1688 31.6728 19.2557Z" fill="#EC6339"/>
<path d="M14.7679 14.7194C15.0888 14.3912 14.59 13.7028 15.2667 13.5387C15.9974 13.3617 16.1467 14.1918 16.5152 14.491C17.2205 15.0636 18.4691 15.5334 19.2729 15.1151C19.6669 14.9124 20.6867 15.173 20.6295 15.3854C20.3372 16.476 21.1378 16.1157 21.5667 16.254C22.4595 16.5436 23.384 16.7816 23.9781 17.6149C24.3212 18.5125 23.5174 18.9597 23.2219 19.6064C22.9868 19.5034 22.828 19.3458 22.8407 19.0305C22.7867 19.3425 23.0154 19.4744 23.1457 19.6578C23.1679 20.4718 22.7104 20.2852 22.2498 20.105C21.4015 18.6927 19.8479 18.461 18.5295 17.8465C17.9258 17.5666 17.2174 17.4862 16.8266 16.846C16.7853 16.447 16.8139 15.9741 16.1689 16.1961C15.7464 16.032 15.3429 15.81 14.8727 15.81C14.7393 15.7521 14.644 15.6556 14.5836 15.5237C14.5105 15.2277 14.5741 14.9575 14.7679 14.7194Z" fill="#EC673C"/>
<path d="M16.3596 4.74924C16.4644 4.64307 16.5724 4.53369 16.6773 4.42752C16.8584 4.25701 17.068 4.17658 17.3159 4.1991C17.4684 4.23449 17.5986 4.30848 17.7098 4.41465C17.5192 5.36373 17.5192 5.36373 16.385 6.10691C16.9346 6.0683 17.3857 5.66936 17.8782 5.975C18.2499 6.65062 17.6018 6.89834 17.3349 7.31015C16.9251 7.54822 16.3755 7.64474 16.3627 8.28818C16.3151 8.32357 16.2674 8.35574 16.2198 8.39113C16.1054 8.404 15.9942 8.404 15.883 8.39435C15.6003 8.42009 15.5717 8.64529 15.5272 8.86406C15.7877 9.06031 14.7615 9.33378 15.5717 9.4882C15.6257 9.51716 15.6765 9.54611 15.7273 9.57507C16.0101 9.94826 16.3183 10.3054 16.5661 10.7011C16.7154 10.9392 16.6805 11.2577 16.4072 11.3831C16.2611 11.4507 15.8798 11.3735 15.8576 11.2898C15.4065 9.68124 14.4438 11.3059 13.8116 10.9424C13.3922 11.9269 11.7402 11.0582 11.6004 12.4545C10.9809 12.5317 11.038 12.0395 10.9491 11.6695C10.9459 11.515 10.9682 11.3606 11.0031 11.2094C11.3462 10.4566 11.9244 9.90001 12.5058 9.34343C12.7632 9.10857 12.8934 8.78363 13.0999 8.51017C13.4494 8.18845 13.7608 7.8442 13.8402 7.34554C14.034 6.83721 14.3167 6.35785 14.3358 5.79162C14.6916 4.81358 15.686 5.10313 16.3596 4.74924Z" fill="#EB5C42"/>
<path d="M14.7679 14.7194C14.7679 15.0443 14.7679 15.3661 14.7679 15.691C15.2317 16.5918 14.6885 17.261 14.0276 17.4991C12.903 17.9077 11.9848 17.3607 11.3272 16.0192C11.1874 17.8755 10.2216 17.3125 9.36375 17.0551C9.11912 16.8235 9.08418 16.5307 9.11912 16.2186C9.17313 15.9162 9.30974 15.6492 9.47813 15.395C9.56391 15.276 9.66875 15.1698 9.77994 15.0733C10.6123 14.787 10.6282 13.5709 11.594 13.4357C11.6004 13.5934 11.594 13.8829 11.6131 13.8861C12.7123 13.9955 13.5638 15.0572 14.7679 14.7194Z" fill="#ED6F3F"/>
<path d="M24.623 16.3377C24.5531 14.6132 24.3657 14.4524 23.2219 15.1409C23.1457 13.9312 24.0797 12.5703 25.1726 12.448C25.3188 12.432 26.2687 11.9236 25.9796 13.0593C25.681 14.2368 26.1035 15.5752 25.2457 16.6529C24.8994 16.8299 24.7628 16.5822 24.623 16.3377Z" fill="#EC6245"/>
<path d="M23.0282 19.5452C23.3459 18.9018 23.6636 18.2583 23.9813 17.6181C24.0861 17.6181 24.1909 17.6181 24.2958 17.6181C24.4388 17.6792 24.5436 17.7822 24.6103 17.927C24.3593 18.4868 23.797 18.8857 23.762 19.5742C24.3974 19.4165 25.1631 19.8283 25.5888 18.8567C25.8112 19.9892 24.8994 20.8739 25.573 21.7941C25.5698 21.8681 25.5666 21.9421 25.5634 22.0161C25.4205 22.4118 24.8168 22.7045 24.7914 22.5179C24.604 21.0638 23.1552 21.6075 22.5135 20.9351C22.272 20.6005 22.0592 20.2627 22.3959 19.8669C22.739 20.031 23.044 20.1115 23.0282 19.5452Z" fill="#EE703E"/>
<path d="M28.75 20.1919C29.1153 19.4391 28.5594 18.6894 28.7468 17.9366C29.989 17.3189 29.0645 15.7135 30.0462 14.9478C30.9644 16.2444 30.7134 17.5956 30.4433 18.9565C29.7571 19.0626 30.1892 18.1007 29.4712 18.2487C29.0264 18.7345 30.0303 19.957 28.75 20.1919Z" fill="#EC6144"/>
<path d="M22.3927 4.4243C21.8463 5.93318 20.8074 6.61201 19.2157 6.35463C18.9965 5.78518 19.4603 5.4152 19.6097 4.95192C20.1339 4.18623 21.0425 4.09936 21.7732 3.69721C22.2879 3.67147 22.2085 4.16371 22.3927 4.4243Z" fill="#EB5C42"/>
<path d="M11.5972 13.4422C11.0539 14.1725 10.8474 15.247 9.69734 15.3661C9.53849 13.7928 10.0341 12.4931 11.2636 11.499C11.289 11.8496 11.2096 12.2357 11.5972 12.4577C12.007 12.7859 12.0007 13.114 11.5972 13.4422Z" fill="#EE7551"/>
<path d="M22.3927 4.4243C22.1799 4.21518 21.967 4.00285 21.751 3.79373C21.2998 4.09293 21.0203 3.87737 20.8042 3.46879C21.8209 2.65483 23.2442 2.97977 24.2704 2.19799C24.0543 3.08916 23.384 3.59748 22.7104 4.1058C22.6024 4.21196 22.4976 4.31813 22.3927 4.4243Z" fill="#EC694E"/>
<path d="M29.074 10.8555C29.0041 11.396 29.2392 11.8496 29.4585 12.3129C29.8143 13.0593 29.4553 13.3489 28.7595 13.4196C29.4299 12.2679 27.7715 12.3194 27.7937 11.5022C28.6388 11.8239 28.391 11.1805 28.4323 10.7719C28.4545 10.5499 28.2957 10.1703 28.6483 10.1606C29.0327 10.1542 29.0168 10.566 29.074 10.8555Z" fill="#ED745A"/>
<path d="M19.8416 5.09348C19.8892 5.64684 19.4 5.92352 19.2157 6.35785C18.5327 6.56375 18.0879 7.25224 17.3317 7.31336C17.2587 6.75035 17.7733 6.4801 17.9544 6.04578C17.9957 5.98787 18.0339 5.92996 18.0752 5.87205C18.5327 5.55033 18.933 5.13852 19.4762 4.95514C19.6256 4.92297 19.7463 4.97445 19.8416 5.09348Z" fill="#EF7A62"/>
<path d="M16.3564 8.28818C16.7694 8.48443 17.6336 8.18523 17.5446 8.88337C17.4016 10.003 16.277 9.15683 15.721 9.57507C15.47 8.9091 15.8957 8.5906 16.3564 8.28818Z" fill="#EB5C42"/>
<path d="M19.9877 11.1258C19.8797 12.033 19.5747 12.7923 18.1578 13.0657C18.7773 12.033 19.6287 11.8175 19.9877 11.1258Z" fill="#EC6449"/>
<path d="M22.1291 8.79007C22.1576 9.57828 21.859 10.1606 20.9821 10.5274C20.9345 9.56863 21.697 9.28552 22.1291 8.79007Z" fill="#EC654A"/>
<path d="M24.6071 17.927C24.5023 17.824 24.3974 17.7211 24.2926 17.6181C24.2481 17.1516 24.3879 16.7334 24.6198 16.3377C24.8295 16.4438 25.036 16.5468 25.2457 16.6529C25.1409 16.9747 25.0392 17.2932 24.9344 17.6149C24.8263 17.7178 24.7183 17.824 24.6071 17.927Z" fill="#EE7556"/>
<path d="M15.2476 12.0909C15.0347 12.7698 14.5868 13.2137 13.7862 13.7317C14.1134 12.7762 14.6853 12.4287 15.2476 12.0909Z" fill="#EB5C42"/>
<path d="M28.4291 17.2932C28.1622 17.6471 28.1876 18.2294 27.6253 18.3549C27.5777 18.1071 27.5268 17.8594 27.4792 17.6149C27.835 17.6278 27.9494 16.9071 28.4291 17.2932Z" fill="#EE7151"/>
<path d="M19.1299 9.6555C19.0855 9.08605 19.2856 8.65494 19.8066 8.29783C19.9782 9.03136 19.3333 9.23726 19.1299 9.6555Z" fill="#ED6E50"/>
<path d="M22.3578 14.8803C22.3324 15.1151 22.2148 15.2792 21.9702 15.2438C21.7478 15.2116 21.589 15.0411 21.6589 14.8095C21.6938 14.6872 21.8526 14.5489 21.9766 14.5231C22.218 14.4717 22.3324 14.6486 22.3578 14.8803Z" fill="#EC6245"/>
<path d="M23.7462 10.8233C23.6095 10.8973 23.4888 11.0099 23.3617 11.0164C23.0885 11.0293 23.0409 10.804 23.1012 10.6046C23.133 10.5016 23.3204 10.3601 23.3935 10.3826C23.4984 10.4148 23.5651 10.5821 23.7462 10.8233Z" fill="#ED6C50"/>
<path d="M29.5125 7.80238C29.3663 7.51605 29.2456 7.35519 29.2011 7.17502C29.1503 6.96912 29.2043 6.71818 29.4807 6.84687C29.6046 6.90478 29.665 7.17181 29.6967 7.35197C29.7094 7.4517 29.611 7.57396 29.5125 7.80238Z" fill="#EF8772"/>
<path d="M27.7651 11.4411C27.3934 11.0968 27.4506 10.7783 27.584 10.4148C28.3687 10.714 27.5205 11.1837 27.7651 11.4411Z" fill="#ED745A"/>
<path d="M30.0176 10.2185C29.8143 10.315 29.6078 10.4083 29.4044 10.5048C29.433 10.2282 29.2964 9.84531 29.6459 9.73915C29.9922 9.63298 29.9636 9.99652 30.0176 10.2185Z" fill="#EF7962"/>
<path d="M25.2489 11.5762C25.1949 11.4893 25.0614 11.3735 25.0614 11.2577C25.0614 11.1708 25.2235 11.0807 25.3156 10.9906C25.395 11.1 25.5126 11.1998 25.538 11.322C25.573 11.4764 25.5031 11.6148 25.2489 11.5762Z" fill="#EF7E66"/>
<path d="M55.0844 39.1284C54.8779 38.9322 54.6714 38.7327 54.468 38.5365C54.0963 38.2984 54.163 37.9188 54.1567 37.5616C53.6865 37.2238 54.0391 36.6801 53.8421 36.2715C53.839 36.1686 53.8326 36.0656 53.8263 35.9627C53.7055 35.8662 53.5372 35.8179 53.5149 35.6281C53.5117 35.5187 53.5117 35.4093 53.5086 35.2999C53.2258 35.0329 53.1496 34.7048 53.2131 34.3283C53.3529 33.1155 52.7143 32.5621 51.6182 32.4044C49.3244 31.8672 47.4182 32.8645 45.5501 33.9938C45.1371 34.1932 44.7622 34.5117 44.2602 34.4635C43.6757 34.2994 43.3389 33.8811 43.126 33.3342C43.0784 33.183 43.0339 33.0222 43.0434 32.8645C43.0816 32.205 43.1673 31.4103 43.9362 31.3814C44.867 31.346 44.257 32.3272 44.6129 32.8291C46.2332 32.3658 47.5103 31.1883 49.0162 30.4612C49.7883 30.0913 49.6866 29.0682 49.8804 28.3057C49.4928 26.8097 48.0568 26.2145 47.2053 25.1174C46.8177 24.6188 46.284 24.2617 45.8106 23.8499C45.4135 23.5378 45.5692 22.4632 44.5938 22.9555C44.3746 22.8557 44.2158 22.7238 44.3079 22.4472C44.5684 22.4311 44.8099 22.3764 44.956 22.1287C45.1434 21.6364 45.4929 21.289 45.9155 20.9994C46.2205 20.9383 46.4778 20.9898 46.6208 21.3083C46.6716 21.7555 46.3634 22.0707 46.2077 22.4407C46.5096 23.4638 46.8622 24.0654 47.7963 22.8557C48.1457 22.4053 48.5238 21.6268 49.3784 22.1061C49.3657 22.1801 49.3562 22.2541 49.3435 22.3281C49.1497 22.8557 48.6318 23.1131 48.3459 23.5603C48.1362 23.5893 48.5333 23.837 48.4158 23.66C48.3745 23.5957 48.4507 23.6182 48.5365 23.5603C49.0226 23.2193 49.3212 23.5088 49.264 23.9271C49.102 25.1271 49.7883 25.8092 50.5603 26.5009C51.2052 27.0767 51.4117 27.8263 51.2402 28.6886C51.1607 29.0875 50.9034 29.5154 51.3291 29.8789C51.4308 29.9626 51.5229 30.0591 51.6119 30.1588C51.7485 30.4194 51.9836 30.4709 52.2441 30.4741C53.0384 30.8795 52.1424 30.9567 52.1202 31.2012C52.0853 31.4361 52.2663 31.5004 52.4188 31.5873C52.6857 31.6999 52.9494 31.806 53.1909 31.9669C54.4776 33.4822 54.522 35.4576 55.0971 37.2367C55.1034 37.6646 55.1066 38.0893 55.113 38.5172C55.1066 38.7231 55.0971 38.9258 55.0844 39.1284Z" fill="#F6AA19"/>
<path d="M45.2673 33.701C46.589 33.2281 47.5961 32.1374 49.1243 31.9637C50.0837 31.8543 50.8557 31.8575 51.6246 32.4077C51.0241 32.4591 50.7763 33.4018 50.0202 33.064C49.8454 33.2506 49.7501 33.6077 49.3784 33.3728C49.1687 33.5916 48.9622 33.8072 48.7525 34.0259C48.473 34.5342 48.0282 34.7048 47.4817 34.6662C47.164 34.7723 46.8495 34.8817 46.5318 34.9879C45.7121 34.9589 44.9719 34.8528 45.2673 33.701Z" fill="#FCC327"/>
<path d="M45.2673 33.701C45.3595 34.4603 46.0807 34.5889 46.5318 34.9847C46.6462 35.7632 47.415 36.352 47.1704 37.2367C46.481 36.9858 46.7733 35.9337 45.8615 35.7343C45.817 36.4967 46.4397 37.1434 46.2173 37.8834C45.0227 37.3139 44.3524 36.1493 43.5009 35.2324C42.9068 34.5954 43.6344 34.2897 44.3111 34.3412C44.6288 34.1257 44.9465 33.9133 45.2673 33.701Z" fill="#FAB624"/>
<path d="M53.8421 36.2715C54.2996 36.6126 54.1185 37.1145 54.1567 37.5616C53.6102 37.7386 54.1408 38.7713 53.3815 38.6555C53.0638 38.6072 52.6698 38.1536 52.565 37.8062C52.3775 37.1885 53.0415 37.0051 53.3815 36.664C53.5244 36.5225 53.6896 36.4035 53.8421 36.2715Z" fill="#FCC026"/>
<path d="M53.2194 34.3316C53.553 34.5825 53.5308 34.9428 53.5149 35.3032C53.1686 35.2839 52.7334 35.3997 52.6444 34.8914C52.5682 34.4763 52.8954 34.383 53.2194 34.3316Z" fill="#FBD856"/>
<path d="M47.4817 34.6629C47.9043 34.4506 48.3268 34.2383 48.7525 34.0227C48.6032 34.7948 48.3395 35.3353 47.4817 34.6629Z" fill="#FDDB5F"/>
<path d="M49.712 39.1606C49.4769 39.5692 49.2545 39.9971 48.5715 40.01C48.6096 39.1735 49.1592 39.1638 49.7184 39.167L49.712 39.1606Z" fill="#FED84C"/>
<path d="M49.7184 39.167C49.9471 38.7745 50.1568 38.3531 50.8557 38.2759C50.6016 38.8775 50.2616 39.1413 49.712 39.1606L49.7184 39.167Z" fill="#FBDB63"/>
<path d="M49.3784 33.3728C49.5913 33.2699 49.8073 33.1669 50.0202 33.064C49.9979 33.3503 50.1282 33.7396 49.7756 33.8522C49.4165 33.968 49.4388 33.598 49.3784 33.3728Z" fill="#FBD95E"/>
<path d="M53.5181 35.6281C53.6229 35.7407 53.7246 35.8501 53.8294 35.9627C53.5657 36.0045 53.248 36.4002 53.0574 36.0174C52.9081 35.715 53.2798 35.6699 53.5181 35.6281Z" fill="#FCC026"/>
<path d="M11.2636 11.499C10.7426 12.7891 10.2184 14.076 9.69734 15.3661L9.69099 15.3693C9.34787 15.543 9.15089 15.3307 8.96663 15.0926C9.00793 14.5618 8.46783 14.536 8.23591 14.24C8.01669 13.3521 8.46783 12.6089 8.74423 11.8303C8.85543 11.6309 9.00157 11.47 9.21761 11.3864C10.0182 11.3896 10.1389 10.7654 10.2978 10.1767C10.8633 9.57185 11.1016 8.68068 11.9022 8.27853C12.2104 8.23027 12.5122 8.10158 12.8362 8.17879C13.0237 8.26566 13.1476 8.404 13.1825 8.61312C13.1825 8.96058 13.2588 9.33699 12.8458 9.53324C11.9054 9.66837 11.5114 10.344 11.2573 11.1644C11.2573 11.2738 11.2604 11.3864 11.2636 11.499Z" fill="#F18971"/>
<path d="M6.50443 11.8271C6.40276 11.5054 6.87932 11.1805 6.50443 10.8587C6.22485 10.537 6.28521 10.2185 6.50761 9.89679C6.82213 8.66138 7.14301 9.84853 7.46071 9.89357C7.63227 10.0802 7.95315 9.95792 8.09294 10.2089C8.72199 11.0196 9.37329 9.41099 10.0055 10.2249C10.3677 10.8555 9.98963 11.1322 9.4813 11.3445C8.89355 11.3027 8.7633 11.8593 8.43606 12.1585C8.00081 12.5574 7.54332 12.8856 6.91427 12.6025C6.78718 12.3419 7.13983 11.8175 6.50443 11.8271Z" fill="#ED6E49"/>
<path d="M16.3596 4.74924C15.8163 5.31547 14.8092 5.1707 14.4502 6.02326C14.2977 6.67314 13.7735 7.01738 13.3319 7.42918C13.0618 7.61256 12.7632 7.74125 12.4614 7.86672C12.2834 7.94072 12.096 7.97611 11.9022 7.96324C11.4034 7.63508 11.8387 7.31336 11.9054 6.98842C12.6583 5.7884 13.7735 5.11922 15.0983 4.75567C15.5177 4.75246 15.937 4.74924 16.3596 4.74924Z" fill="#E95539"/>
<path d="M15.0951 4.75567C14.0117 5.47311 12.8394 6.05543 11.9022 6.98842C11.432 6.59592 11.7656 6.34176 12.0706 6.12943C13.1762 5.36051 14.2945 4.60768 15.4382 3.82912C15.8099 4.39535 15.1396 4.4436 15.0951 4.75567Z" fill="#EF775E"/>
<path d="M22.0782 2.17225C21.8209 2.77065 21.3284 2.85752 20.7661 2.79639C20.0354 2.32667 19.3142 3.45914 18.5803 2.81247C18.6788 2.23981 18.0402 2.27198 17.7066 1.68967C19.2824 1.72505 20.6581 2.36528 22.0782 2.17225Z" fill="#EC7258"/>
<path d="M18.5771 2.81569C19.3047 2.78674 20.029 2.06286 20.7629 2.79961C20.4579 2.91864 20.1529 3.03768 19.8479 3.15672C19.4349 3.37871 19.1141 3.80981 18.574 3.75512C18.2753 3.67469 17.8941 3.67469 17.9957 3.17924C18.1927 3.05698 18.3833 2.93473 18.5771 2.81569Z" fill="#F3A08A"/>
<path d="M9.39552 11.2158C9.80218 11.0132 9.97057 10.6625 10.0055 10.2249C10.1008 10.2121 10.1961 10.196 10.2914 10.1735C10.8379 10.7397 10.3772 11.2384 10.104 11.6598C9.91973 11.9462 9.55755 11.7982 9.35105 11.499C9.24938 11.4185 9.22079 11.351 9.26844 11.2931C9.30974 11.2416 9.35105 11.2158 9.39552 11.2158Z" fill="#F4A491"/>
<path d="M22.3991 0.576508C22.5008 0.570073 22.6024 0.570073 22.7041 0.576508C23.2442 1.41298 22.7708 1.84087 22.075 2.17547C21.4587 1.49342 22.3959 1.13309 22.3991 0.576508Z" fill="#EC7258"/>
<path d="M17.9989 3.17602C18.1165 3.43018 18.3547 3.46235 18.5898 3.49452C18.5644 4.37926 17.6812 4.04145 17.3 4.41787C17.0903 4.42108 16.8838 4.42108 16.6741 4.4243C16.7916 3.6586 17.4588 3.48809 17.9989 3.17602Z" fill="#EF8068"/>
<path d="M8.7347 9.25335C8.95709 8.79328 9.30021 8.51982 9.95786 8.51982C9.69734 9.14718 9.48448 9.62654 8.7347 9.25335Z" fill="#EE7353"/>
<path d="M6.51078 9.90001C6.51078 10.2217 6.50761 10.5402 6.50761 10.862C6.19308 11.0614 5.88173 11.0711 5.57038 10.8523C5.77053 10.4212 6.08188 10.0995 6.51078 9.90001Z" fill="#EF7D4E"/>
<path d="M8.09294 10.2121C7.83243 10.2121 7.59733 10.1574 7.46071 9.89679C7.89914 9.71341 8.17872 9.20509 8.73152 9.25656L8.72835 9.25335C8.51866 9.57185 8.3058 9.89036 8.09294 10.2121Z" fill="#EE7353"/>
<path d="M11.9022 7.96324C12.0039 7.87959 12.1055 7.79595 12.2072 7.7123C12.4677 7.8442 12.9951 7.66726 12.8458 8.27531C12.5281 8.39435 12.2135 8.80937 11.8958 8.27531C11.9181 8.17236 11.9213 8.06619 11.9022 7.96324Z" fill="#F49D8B"/>
<path d="M9.17949 7.34232C9.37964 7.39379 9.55755 7.44527 9.43365 7.64152C9.36693 7.7509 9.20808 7.84742 9.081 7.86351C8.91262 7.88281 8.77918 7.74447 8.87131 7.57074C8.9285 7.45814 9.09053 7.40344 9.17949 7.34232Z" fill="#F08A70"/>
<path d="M46.5477 40.1129C46.392 41.0491 47.9202 41.7054 47.2149 42.4808C46.7065 43.0438 45.5819 43.0374 44.7304 43.2786C41.3755 44.2277 37.9888 44.6814 34.5195 43.9993C33.6426 43.8288 34.4972 43.5585 34.4591 43.3398C34.7895 41.6218 35.6219 40.7692 37.1977 40.5311C38.1286 40.8239 38.783 41.5446 39.5042 42.0593C38.9991 41.2743 38.3859 40.4829 38.1063 39.5048C38.3065 38.6845 39.088 38.4206 39.5964 37.893C40.4637 37.2078 40.9974 36.1332 42.084 35.6989C43.053 35.3675 43.9235 35.3386 44.4254 36.4678C44.1427 37.3429 43.3039 37.6517 42.7067 38.2115C42.246 38.5622 41.6678 38.7263 41.0578 39.4212C41.6932 38.7295 42.3 38.5719 42.7575 38.1826C43.4628 37.774 43.933 37.0083 44.7717 36.7992C45.8646 37.626 46.5191 38.6973 46.5477 40.1129Z" fill="#FDCB30"/>
<path d="M39.86 38.1987C39.3295 38.6298 38.8021 39.0577 38.2715 39.4888C37.8553 39.8427 38.1 40.6984 37.3184 40.7789C35.66 40.8271 35.2819 42.3392 34.4559 43.343C34.3511 43.2368 34.2431 43.1307 34.1382 43.0277C33.8142 42.6609 33.9984 42.3006 34.1414 41.9371C34.8467 41.0845 34.7546 40.3896 33.9254 39.6046C33.0676 38.7938 32.1113 38.1472 31.1804 37.449C30.383 36.8506 29.881 36.9118 29.4743 37.8512C29.2202 38.4367 28.9088 38.9997 28.6769 39.5981C28.4164 40.1193 28.4895 40.8464 27.7873 41.0974C27.314 40.7113 27.4474 40.248 27.6475 39.7976C28.0733 38.8292 28.337 37.7096 28.9946 36.9343C30.3131 35.3804 29.4902 34.8238 28.105 34.3509C27.4728 34.1321 26.8406 33.9133 26.2084 33.6946C26.1258 33.109 26.6055 33.0608 26.9137 33.109C27.8763 33.257 28.0415 32.575 28.2639 31.9154C28.9755 31.317 29.2202 31.8028 29.4076 32.4173C29.5474 32.8484 29.2901 33.3825 29.6713 33.7106C30.85 31.5294 32.9055 30.2103 34.5925 28.5438C34.8594 28.2832 35.2819 28.2768 35.5139 28.7304C35.4916 29.6216 34.834 30.117 34.3034 30.6865C33.4806 31.568 32.5529 32.353 31.927 33.4082C31.7809 33.6495 31.6601 33.9037 31.6188 34.1868C31.6029 35.168 32.394 35.3836 33.0485 35.6731C34.2272 36.1911 35.2629 36.8989 36.1683 37.8126C36.3939 38.041 36.4447 38.0121 36.5941 37.5423C36.7116 37.4523 36.8482 37.3976 36.9975 37.3879C37.6457 37.7225 38.2112 38.3531 39.0626 37.7289C39.3104 37.5488 39.9013 37.5037 39.86 38.1987Z" fill="#F7AD1B"/>
<path d="M46.5477 40.1129C46.1855 38.8775 45.5978 37.7836 44.6446 36.9118C44.4604 36.886 44.3524 36.7799 44.3111 36.5997C43.7678 35.6828 42.9449 35.7793 42.0935 35.9659C41.5185 36.0528 41.7122 35.6313 41.7726 35.3997C41.941 34.7627 41.8584 34.1739 41.5534 33.6045C41.4136 33.3535 41.2611 33.1155 41.1023 32.8774C40.3239 31.5583 38.7799 30.9342 38.1063 29.5186C38.1286 29.3674 38.1921 29.2387 38.3001 29.1325C38.5606 29.065 38.9228 29.332 38.9324 29.3159C39.6472 28.2639 39.7616 28.2253 40.5431 29.1229C41.4867 30.2071 42.1793 31.4682 42.7893 32.7712C42.9195 33.0511 42.9576 33.3696 43.3548 33.3793C43.6725 33.701 43.9902 34.0227 44.3111 34.3444C43.9584 34.6018 43.0212 34.7852 43.9425 35.3418C44.9909 35.9756 45.5406 36.9665 46.2173 37.8866C46.3602 38.6201 47.1926 39.2539 46.5477 40.1129Z" fill="#F5A418"/>
<path d="M34.4559 42.0593C34.3511 42.381 34.2462 42.7028 34.1382 43.0277C31.8635 44.5752 30.1034 42.7317 28.1622 42.0883C27.6539 41.921 27.53 41.5767 27.7905 41.0974C28.1845 40.6341 27.9303 39.907 28.4196 39.4823C29.4998 40.8915 31.5775 40.6405 32.6418 42.1848C33.0676 41.6926 32.5243 40.6791 33.4393 40.6663C34.3002 40.6502 34.2081 41.5188 34.4559 42.0593Z" fill="#FCC831"/>
<path d="M34.7768 23.4123C34.9928 23.5153 35.2089 23.6214 35.4249 23.7244C35.8348 23.5635 36.3653 23.8981 36.6957 23.4091L36.6862 23.4155C37.3184 23.1003 37.8109 22.5147 38.5575 22.4214C38.8879 22.3313 39.1039 22.1158 39.231 21.8005C39.8346 21.4981 40.4097 21.1184 41.1023 21.038C42.1284 21.6589 41.4486 22.4472 41.2484 23.1324C41.0578 23.7887 40.5399 23.4445 40.0761 23.3962C38.6623 23.2482 37.5631 24.6445 37.9506 26.0665C38.065 26.4815 38.0682 26.8998 38.1381 27.3148C38.1699 27.4628 38.1857 27.6108 38.1889 27.762C38.1603 28.1674 38.0047 28.4891 37.6044 28.6403C37.3661 28.6306 37.2136 28.4955 37.1087 28.2993C36.9467 27.659 36.5051 28.1545 36.2001 28.0805C34.8276 27.4338 33.4965 26.7035 32.5592 25.4649C32.0859 24.8376 31.784 24.0879 31.9524 23.245C32.2701 22.3732 32.7785 22.8011 33.29 23.023C33.7602 23.2257 34.1382 23.8595 34.7768 23.4123Z" fill="#FBBB23"/>
<path d="M41.1404 21.1764C40.5113 21.408 39.9585 21.8809 39.231 21.7973C39.4597 21.1764 40.1301 21.1184 40.6352 20.6873C40.1873 20.3206 39.7711 19.9828 39.3835 19.6675C38.8815 19.9924 39.088 20.4203 39.0721 20.7485C39.0531 21.1442 38.9165 21.3597 38.5733 21.4209C38.1921 21.4852 38.0269 21.2375 37.9316 20.89C37.5694 19.542 36.8991 19.3297 35.8093 20.2401C35.2057 20.7452 35.2883 20.253 35.409 19.8476C36.4733 18.342 38.1445 17.8111 39.5265 18.6798C40.4256 19.246 41.6392 19.5066 41.9569 20.7839C41.9474 20.9479 41.8965 21.0959 41.798 21.2278C41.5661 21.363 41.3501 21.3243 41.1404 21.1764Z" fill="#FED046"/>
<path d="M27.835 23.393C28.8961 23.4928 29.9604 23.5893 31.0216 23.689C31.2344 23.5121 31.4759 23.4734 31.7364 23.5314C31.9079 23.5957 32.016 23.7147 32.0636 23.8949C32.2193 25.5421 32.0541 25.7609 30.5418 25.4456C29.5951 25.2494 28.3211 25.7705 27.835 24.3646H27.7842C27.5999 24.0268 27.5427 23.7019 27.835 23.393Z" fill="#F9B325"/>
<path d="M41.7694 21.1538C40.6162 18.5929 38.0777 18.0717 35.409 19.8476C35.05 19.6224 35.1263 19.2557 35.1104 18.9179C36.5305 18.8181 37.6806 17.5409 39.2183 17.9431C40.1333 18.3709 40.9307 18.9919 41.7694 19.542C42.2841 19.9602 42.5256 20.4847 42.3985 21.1571C42.1856 21.3533 41.9759 21.3243 41.7694 21.1538Z" fill="#FAB61E"/>
<path d="M34.7768 23.4123C34.5608 23.911 34.3161 23.9496 33.8364 23.6407C33.3694 23.3415 32.9214 22.7946 32.232 23.0906C32.1081 23.1903 31.981 23.2032 31.8476 23.1131C31.6538 22.8493 31.6443 22.5694 31.7713 22.2734C31.8222 22.222 31.8762 22.1705 31.927 22.1158C32.9786 22.3281 33.703 23.2643 34.7768 23.4123Z" fill="#F9B325"/>
<path d="M31.6029 23.7244C31.4092 23.7115 31.2154 23.7019 31.0216 23.689C30.85 22.8944 31.1486 22.2316 31.6157 21.6364C31.7237 21.4981 31.9302 21.0605 32.1399 21.5496C32.1971 21.6847 32.0064 21.926 31.9302 22.119V22.1415C31.4822 22.5984 32.0636 23.2708 31.6029 23.7244Z" fill="#FDE885"/>
<path d="M38.5575 22.4214C37.9634 22.8075 37.4614 23.3769 36.6862 23.4155C37.1913 22.8525 37.5821 22.0707 38.5575 22.4214Z" fill="#F9D65E"/>
<path d="M36.6957 23.4091C36.4987 24.4515 35.9269 23.9432 35.4249 23.7244C35.7617 23.2515 36.2605 23.4606 36.6957 23.4091Z" fill="#F9D65E"/>
<path d="M27.835 23.393C27.8191 23.718 27.8 24.0397 27.7842 24.3646C27.3457 23.8209 27.2949 23.2901 27.8255 22.7721C27.8286 22.978 27.8318 23.1839 27.835 23.393Z" fill="#EE7336"/>
<path d="M28.4259 32.0892C28.4577 33.0736 28.5562 34.1128 27.0153 33.4147C26.7421 33.2892 26.4085 33.3954 26.2115 33.6946C25.0583 33.4372 23.9463 32.7326 22.7136 33.3728C22.6151 32.3851 24.1751 32.5138 23.9781 31.4586C24.0925 31.3556 24.2291 31.3074 24.3816 31.2977C25.5539 31.3235 26.6468 31.88 27.8318 31.835C28.0574 31.8447 28.2671 31.909 28.4259 32.0892Z" fill="#FAB72C"/>
<path d="M24.9407 1.62854C25.2584 3.33045 26.1671 2.83178 27.1075 2.22694C27.2345 3.44305 26.4371 3.52026 25.5666 3.50418C24.9757 3.22428 24.7533 2.59049 24.3085 2.17225C24.3117 1.74436 24.4896 1.52237 24.9407 1.62854Z" fill="#9F482E"/>
<path d="M27.1678 5.69832C27.0566 5.3766 26.6817 5.06131 27.1488 4.72672C27.4696 4.78463 27.7778 4.86828 27.7365 5.29617C27.7047 5.64041 27.4283 5.66615 27.1678 5.69832Z" fill="#EE765C"/>
<path d="M51.6182 30.162C51.5102 30.162 51.4054 30.1588 51.2973 30.1588C51.0845 29.9497 51.0305 29.6634 51.1671 29.4382C51.8724 28.2735 51.9613 27.0092 51.8533 25.6965C52.2377 25.4424 52.4061 25.703 52.5618 25.9958C52.5777 26.2563 52.6444 26.488 52.8986 26.6167C53.2067 26.9255 53.337 27.4081 53.8072 27.5593C55.0589 27.0285 56.3742 27.3759 57.6546 27.2665C56.9906 27.7105 56.2154 27.9711 55.4688 27.881C53.5657 27.6494 52.4125 28.5534 51.6182 30.162Z" fill="#F8B31C"/>
<path d="M52.5618 25.999C52.3521 25.8831 52.1456 25.7673 51.9359 25.6515C50.9288 24.9888 50.2712 23.9753 49.4642 23.1131C49.2069 22.8364 49.1052 22.4761 49.3816 22.119L49.3848 22.1126C50.1218 22.1029 50.3951 22.859 50.9765 23.1035C50.9955 23.8209 51.6119 24.1201 51.9804 24.5995C52.2981 25.0016 52.9176 25.2976 52.5618 25.999Z" fill="#FBD85F"/>
<path d="M53.804 27.5593C53.0129 27.7266 52.87 27.2569 52.8954 26.6167C53.6547 26.4816 53.5213 27.2279 53.804 27.5593Z" fill="#FBD85F"/>
<path d="M41.7694 21.1538C41.9791 21.1538 42.1888 21.1571 42.3985 21.1571C42.7384 21.5013 42.9386 21.379 43.0212 20.9512C43.1006 20.5393 43.1038 19.9635 43.6629 20.0503C44.2285 20.1404 43.8345 20.8032 44.0442 21.1249C44.3142 21.5431 43.8059 22.0997 44.3174 22.4472C44.4223 22.5533 44.5239 22.6563 44.6288 22.7592C44.5017 23.8209 43.5009 23.8241 42.8528 24.2327C42.1952 24.6445 41.4676 24.9341 40.7401 25.1979C40.4796 25.3105 40.2254 25.4327 40.003 25.6129C39.088 26.1405 39.2183 27.3824 38.424 27.9904C38.154 27.9904 38.1063 27.7363 37.9697 27.5851L37.9602 27.5818C37.8395 26.1663 38.1858 24.8729 39.6186 24.4418C41.3501 23.9174 41.7091 22.682 41.7694 21.1474V21.1538Z" fill="#F8AD1E"/>
<path d="M41.7694 19.542C40.7655 19.2589 39.7901 18.9307 39.2183 17.9431C39.4439 17.7275 39.6408 17.4508 39.9045 17.306C40.5685 16.9425 41.4708 16.5886 41.8425 17.4058C42.2365 18.2712 40.8227 17.602 40.7591 18.4321C40.8894 18.8793 41.8234 18.7924 41.7694 19.542Z" fill="#FECF37"/>
<path d="M46.2141 22.4407C45.9186 21.9935 46.2522 21.7394 46.5096 21.4627C46.643 20.6777 46.23 21.0026 45.8996 21.1538C45.6931 21.5817 45.3817 21.9067 44.9624 22.1287C44.8861 20.52 45.8043 20.0857 47.1863 20.1951C47.4214 20.3302 47.3006 20.6359 47.4722 20.8032C47.0973 21.3855 47.1291 22.2863 46.2141 22.4407Z" fill="#FDC92E"/>
<path d="M47.4722 20.8032C47.2149 20.6777 47.1799 20.446 47.1863 20.1951C47.0084 19.0852 46.2014 18.6058 45.2737 18.2487C45.3214 17.9044 45.4866 17.4894 45.8392 17.8176C46.6366 18.5575 47.5961 19.1527 48.114 20.1726C47.9011 20.3849 47.6851 20.594 47.4722 20.8032Z" fill="#FED84C"/>
<path d="M51.6151 31.124C51.6309 30.7122 52.4125 31.0693 52.2505 30.4773C53.8771 29.8661 55.4815 29.0971 57.2702 29.8693C57.0795 30.072 56.8889 30.2779 56.6951 30.4806C56.5903 30.4838 56.4854 30.4838 56.3806 30.487C55.5101 31.005 54.576 30.7958 53.7087 30.7605C53.4609 30.635 53.4577 31.021 53.5213 30.8184C53.5372 30.7733 53.5816 30.7958 53.6706 30.8055C54.0836 30.8441 54.3251 31.0822 54.4712 31.4522C54.4744 31.88 54.4776 32.3111 54.4776 32.739C53.7055 33.1315 53.5943 31.8479 52.8795 32.0956C52.619 32.0892 52.3839 32.0312 52.2473 31.7771C52.1297 31.465 51.7675 31.4007 51.6151 31.124Z" fill="#F8B31C"/>
<path d="M52.8859 32.0924C53.7754 31.3975 53.8739 32.7197 54.4839 32.7358C55.0621 34.1836 55.5323 35.6474 55.1034 37.2367C54.2552 36.4067 54.1503 35.2581 53.8834 34.1964C53.6833 33.4147 53.4577 32.6779 52.8859 32.0924Z" fill="#FCC026"/>
<path d="M54.4744 31.4489C54.0391 31.2076 53.6039 30.9664 52.7365 30.4838C54.2679 30.4838 55.3258 30.4838 56.3838 30.4838C56.0756 31.4715 54.9541 30.8087 54.4744 31.4489Z" fill="#FCC026"/>
<path d="M56.6602 31.3975C56.9239 31.2977 56.9874 31.4554 56.9683 31.6034C56.9525 31.732 56.873 31.8993 56.7682 31.954C56.603 32.0441 56.4727 31.9058 56.4886 31.7385C56.5045 31.6066 56.6125 31.4875 56.6602 31.3975Z" fill="#FCD85B"/>
<path d="M24.3021 31.4586C24.1941 31.4586 24.0829 31.4586 23.9749 31.4618C23.3744 31.4264 22.7041 31.5583 22.3927 30.8055C21.8527 30.2232 21.6811 29.2451 20.6168 29.2258C20.3594 29.2226 20.207 28.8237 20.3245 28.5824C20.6295 27.9647 20.2069 28.177 19.9305 28.1706C18.9965 28.1481 18.0307 28.3411 17.1792 27.762C17.0426 27.7137 16.9092 27.659 16.7758 27.5979C16.4867 27.4596 16.2643 27.2601 16.1848 26.9287C15.9783 26.0504 15.7305 25.2494 14.6249 25.1078C14.2151 25.0563 14.1674 24.6059 14.2596 24.2134C14.3199 24.0815 14.4184 23.9882 14.5582 23.9432C14.9077 24.252 15.076 23.8724 15.3111 23.7373C15.4954 23.6247 15.6924 23.5442 15.9053 23.5121C16.4803 23.4992 17.0236 23.6311 17.5382 23.8788C18.1355 24.0558 19.0156 23.6279 19.2157 24.667C19.9687 24.2971 20.4071 25.526 21.3952 24.9405C22.4563 24.3099 24.1465 26.0826 23.851 27.3598C23.7652 27.7234 23.743 28.0934 23.7049 28.4601C23.6794 28.991 23.3872 29.4961 23.5651 30.043C23.6223 30.22 23.6922 30.3969 23.7875 30.5578C23.9272 30.8731 24.4737 30.9599 24.3021 31.4586Z" fill="#F39537"/>
<path d="M17.3095 27.2666C18.0783 27.8199 18.7265 27.9036 21.4968 27.762C20.6676 28.3475 19.8734 28.9331 21.5064 29.0778C22.5961 29.1744 22.0464 30.2521 22.3959 30.8055C22.0909 31.5841 21.0838 30.5964 20.8074 31.4489C20.4325 31.5712 20.1752 30.8377 19.7495 31.3009C19.6033 31.2495 19.4159 31.2398 19.3142 31.1401C18.6566 30.4999 18.0275 31.4522 17.4398 31.1851C16.6709 30.8344 17.8337 30.0591 17.1411 29.5443C16.0768 28.7561 16.9346 28.0065 17.3095 27.2666Z" fill="#F6A435"/>
<path d="M19.8511 31.1272C20.3245 30.7637 20.5151 31.2527 20.8042 31.4489C20.172 32.1245 19.0886 32.472 19.2157 33.6946C18.4088 33.5562 18.5041 33.1122 18.879 32.6168C19.1522 32.2565 19.5461 31.9766 19.5302 31.4522C19.5493 31.2559 19.7304 31.2205 19.8511 31.1272Z" fill="#FAB832"/>
<path d="M19.8511 31.1272C19.7431 31.2366 19.6383 31.346 19.5302 31.4554C19.3206 31.5615 19.1109 31.6677 18.9012 31.7739C18.1737 30.6446 17.5033 32.0345 16.7186 31.7449C16.5978 31.3589 17.4271 30.2007 15.8544 30.6221C15.2794 30.7765 15.3683 29.5636 15.3366 29.1808C15.2762 28.4344 15.991 29.451 16.4136 29.0038C15.5335 28.2864 14.6027 28.4698 13.6813 28.621C14.0467 27.6011 13.1381 26.7325 11.9117 26.948C11.4765 26.1341 10.3073 25.6 10.9586 24.3743C11.5368 23.956 12.2072 24.741 12.8966 24.1105C13.281 23.7598 13.3477 24.5995 13.4812 24.9469C14.196 26.8354 15.0824 27.4274 16.995 27.273C17.0998 27.2698 17.2047 27.2698 17.3095 27.2698C17.2936 27.7427 17.3762 28.2285 17.0553 28.6467C16.8552 28.9073 16.8647 29.1197 17.246 29.1872C19.0442 29.5057 17.7384 30.2586 17.2777 31.1883C18.3166 30.4709 19.1077 30.5642 19.8511 31.1272Z" fill="#F9B133"/>
<path d="M6.50443 11.8271C6.73635 11.8689 7.05405 11.7016 7.16843 11.9912C7.20655 12.0877 6.94603 12.3033 6.82531 12.4641C6.77448 13.1076 6.6887 13.7575 6.95874 14.3784C6.98416 14.6872 6.85708 14.951 6.70776 15.2084C6.15496 16.0449 5.62757 16.8975 5.22091 17.8208C4.96675 18.1457 4.90321 18.7216 4.28051 18.5736C4.28051 18.4707 4.27733 18.3645 4.27098 18.2616C3.89609 18.0299 4.19791 17.5731 3.95963 17.2964C3.77854 16.3859 2.69199 16.209 2.43148 15.3596C4.12483 14.5714 5.39565 13.2942 6.50443 11.8271Z" fill="#F08445"/>
<path d="M4.28369 18.5736C4.49655 18.2519 4.70623 17.9334 4.91909 17.6117C5.22091 17.5119 5.33211 17.7018 5.40835 17.9431C5.44648 18.4482 5.26856 18.8696 4.91591 19.2203C4.60139 19.4358 4.29004 19.6546 3.97551 19.8702C3.86432 19.7576 3.75312 19.6482 3.64193 19.5356C3.85479 19.2139 4.07082 18.8953 4.28369 18.5736Z" fill="#F9B969"/>
<path d="M2.69199 18.8986C2.26945 19.2171 2.14237 19.9313 1.43071 19.8637C1.30999 19.1302 1.76113 18.7441 2.27898 18.3742C2.4696 18.239 2.60304 18.0878 2.67611 18.4385C2.7047 18.5865 2.68882 18.7474 2.69199 18.8986Z" fill="#F8BE53"/>
<path d="M3.96281 17.2932C4.36311 17.5184 4.27415 17.9012 4.27415 18.2583C4.08989 18.2744 3.78807 18.3645 3.74359 18.2905C3.51802 17.9173 3.8675 17.6278 3.96281 17.2932Z" fill="#F8B567"/>
<path d="M19.8416 5.09348C19.7431 5.08705 19.6446 5.08383 19.5461 5.08383C18.8091 5.05488 18.5962 5.91709 17.9513 6.04256H17.9544C17.2078 6.05865 16.5407 6.90156 15.7051 6.21629C16.385 5.67258 17.3254 5.38625 17.6336 4.43074C18.2054 4.02537 18.8631 3.87737 19.5398 3.78729C19.9877 3.78407 20.5469 4.2377 20.8074 3.46879C21.1219 3.57817 21.4396 3.68434 21.7542 3.79373C21.3634 4.60125 20.2578 4.32778 19.8416 5.09348Z" fill="#E95539"/>
<path d="M19.5366 3.78729C19.0315 4.40178 18.3484 4.46934 17.6304 4.43074C17.5224 4.42752 17.4112 4.4243 17.3031 4.42108C17.4874 3.76155 18.2372 3.91276 18.593 3.49774C19.0124 3.38514 19.4318 3.27254 19.8543 3.15672C19.7463 3.36584 19.6414 3.57496 19.5366 3.78729Z" fill="#EC694E"/>
<path d="M16.995 27.2698C15.9307 28.0837 14.9903 27.9486 14.3644 26.9641C13.8179 26.1084 12.706 25.5582 13.1126 24.2488C12.3406 24.3678 12.4042 25.0081 12.15 25.5582C12.0229 24.7829 11.6131 24.4322 10.9618 24.3678C10.9173 22.8461 9.87525 23.3448 9.0524 23.4059C8.65528 22.9458 8.6934 22.4986 9.081 22.0579C10.0881 21.9839 11.0095 21.2214 12.0865 21.6493C12.5027 22.5823 13.6146 22.1512 14.2055 22.7496C14.5074 23.1389 14.5391 23.5828 14.4565 24.0493C14.5042 24.3067 14.5677 24.7861 14.5963 24.7861C16.2865 24.6735 16.2929 26.0054 16.5883 27.1025C16.6106 27.1893 16.852 27.2151 16.995 27.2698Z" fill="#F6A435"/>
<path d="M9.37011 22.119C8.90308 22.4568 9.09688 22.9619 9.04923 23.4059C8.94756 23.5153 8.84272 23.6247 8.74106 23.7308C8.49325 23.7694 8.47101 24.2681 8.10247 24.0493C8.08977 23.6954 8.15648 23.3126 7.78159 23.0809C6.84755 22.5694 7.46071 21.9517 7.66404 21.3565C8.95074 20.7452 9.21443 20.8643 9.37011 22.119Z" fill="#F9B24A"/>
<path d="M8.0993 24.0525C8.38523 24.0976 8.30263 23.3801 8.73788 23.734C8.36934 24.6188 8.3344 25.6772 7.45436 26.3014C7.34952 26.3014 7.24785 26.3014 7.14301 26.3046C7.44801 25.5453 7.99128 24.8922 8.0993 24.0525Z" fill="#FAC55B"/>
<path d="M7.77524 21.482C8.00399 22.016 7.20973 22.5501 7.77842 23.0842C7.62274 23.3641 7.46071 23.7276 7.08582 23.5893C6.60609 23.4123 7.05088 22.9201 6.84119 22.5598C6.2185 22.8879 6.07871 23.5925 5.64981 24.1169C5.32893 23.0874 6.3837 22.4118 6.18355 21.4723C6.20261 20.9962 6.21214 20.5297 5.55132 20.5168C5.097 20.1758 5.28127 19.6771 5.24315 19.2332C5.90079 19.0659 6.12318 19.6353 6.47901 19.9763C6.64104 20.1308 6.73953 20.4975 7.0477 20.1758C7.38129 19.8219 7.74665 19.6578 8.09294 20.0954C8.53455 20.6552 8.02305 21.0509 7.77524 21.482Z" fill="#F9B75A"/>
<path d="M7.77524 21.482C7.65451 21.0187 8.48054 20.3431 7.67993 20.1179C6.9365 19.912 7.37811 20.9769 6.8539 21.2697C6.3424 20.5715 6.04058 19.6836 5.23997 19.2299C5.13195 19.2267 5.02393 19.2235 4.91591 19.2203C4.87144 18.7538 5.00169 18.3356 5.23997 17.9431C5.4846 17.6213 5.18278 17.0326 5.7483 16.8653C5.97386 16.891 6.13272 17.0165 6.25027 17.2063C5.9548 17.6439 6.29474 17.75 6.59339 17.8755C6.68234 17.9752 6.75859 18.0846 6.81895 18.2036C6.97781 18.5994 7.24468 18.8117 7.69264 18.7248C7.82607 18.712 7.95633 18.7216 8.08976 18.7409C8.35664 18.802 8.61397 18.8825 8.86178 19.0015C8.98569 19.0723 9.07782 19.1752 9.14136 19.3072C9.17949 19.7029 8.72835 20.2723 9.5226 20.3978C10.0309 20.6841 10.5361 20.8032 11.127 20.6133C11.6607 20.4428 12.2358 20.3624 12.6679 20.8997C12.7441 21.4852 12.5789 21.8616 11.9117 21.8005C11.0444 21.7362 10.2851 22.5919 9.36693 22.119C9.12548 21.1731 8.54726 21.0766 7.77524 21.482Z" fill="#F59B40"/>
<path d="M23.3649 30.7991C23.3586 30.5867 23.3554 30.3712 23.349 30.1588C23.6191 28.28 24.8677 26.8869 25.7032 25.288C25.9288 25.0563 26.1671 24.8536 26.5261 24.9952C26.7326 25.0274 26.9359 25.0563 27.1424 25.0885C28.8929 25.3491 30.8055 24.8955 32.2892 26.311C32.4258 26.6456 32.3051 26.9416 32.1621 27.2376C31.8571 27.7073 31.514 28.1963 30.9548 28.3154C30.4052 28.4312 30.9644 28.7915 30.7483 28.9427C30.5132 29.4832 30.0367 29.8468 29.7253 30.3358C29.4457 30.7733 29.271 31.1723 29.7317 31.5937C29.9604 32.2468 30.24 32.9321 29.0645 32.739C28.9438 32.4302 29.2901 31.6484 28.4259 32.0956C28.2162 32.0956 28.0066 32.0956 27.7969 32.0956C27.4156 31.983 26.8565 32.176 26.8152 31.494C26.9645 31.2913 27.2282 31.1658 27.2282 30.7862C26.9708 31.0822 26.9613 31.494 26.615 31.6387C25.4141 31.8253 24.4546 31.0436 23.3649 30.7991Z" fill="#FDCA30"/>
<path d="M32.2638 26.5748C30.7865 25.2622 28.7976 25.7609 27.1392 25.0885C27.5427 25.0177 27.8032 24.8054 27.8318 24.3646C28.8644 25.4456 30.3004 24.8311 31.5203 25.185C32.1049 25.3555 31.7967 24.2488 31.9207 23.7276C31.7205 23.5121 31.7427 23.3029 31.9302 23.0938C32.0318 23.0906 32.1303 23.0906 32.232 23.0906C32.2129 24.5255 32.7943 25.6032 34.0302 26.3464C34.834 26.829 35.5869 27.392 36.3653 27.9196C36.4447 28.2124 36.2732 28.3411 36.0444 28.4344C34.6751 28.4183 33.8142 27.2151 32.5656 26.9094C32.4322 26.829 32.3337 26.7132 32.2638 26.5748Z" fill="#F5A11C"/>
<path d="M26.5261 24.9952C26.3291 25.1174 26.1353 25.2365 25.9383 25.3587C25.7477 25.5132 25.5348 25.5646 25.2997 25.5099C25.0011 25.4006 24.7787 25.1947 24.5881 24.9437C24.5055 24.8182 24.4515 24.6767 24.4197 24.5287C24.4991 23.4895 25.5602 22.8718 25.5666 21.8005L25.5698 21.7973C26.0336 21.4176 25.8652 19.4358 27.1583 21.1538C26.974 21.3372 26.7612 21.5045 26.8469 21.8166C27.5205 22.9587 26.9772 23.9721 26.5261 24.9952Z" fill="#EE703E"/>
<path d="M26.8469 21.8166C26.6627 21.7844 26.3799 21.7844 26.4339 21.5367C26.5102 21.1828 26.8596 21.1764 27.1583 21.1506C27.1551 21.4241 27.0884 21.6622 26.8469 21.8166Z" fill="#F08458"/>
<path d="M22.3927 19.8669C22.4976 20.1887 22.6024 20.5104 22.7073 20.8289C21.6017 21.1989 20.5818 20.5104 19.4858 20.5554C18.8535 20.5812 18.987 19.883 19.0124 19.423C17.9163 19.5163 16.6836 20.5458 15.8481 18.9404C15.9466 18.3066 16.2325 17.6985 15.2127 17.4251C13.8148 17.0487 15.3366 16.2604 15.0824 15.6846C15.6289 15.1087 15.7972 15.6653 16.0355 16.0095C16.2007 16.4535 16.6519 16.4599 16.9823 16.6465C18.2721 17.2835 19.4508 18.1103 21.0266 18.12C21.716 18.1264 21.8812 19.3072 22.3927 19.8669Z" fill="#EE7039"/>
<path d="M15.0856 15.6846C15.0856 15.7296 16.0959 17.4637 16.1785 17.5248C16.8774 18.0621 16.0863 18.4417 16.0387 18.8986C15.3366 18.7763 14.6535 18.2519 13.9164 18.7892C13.6654 18.8696 13.3954 18.9372 13.2111 19.1366C12.4614 19.9409 11.8545 19.7222 11.3144 18.8986C10.3582 18.2294 9.5226 18.5222 8.73152 19.2139C8.46783 19.2139 8.23273 19.1592 8.10247 18.8921C7.84513 18.1232 8.417 17.7178 8.81095 17.2353C8.97298 17.0905 9.15725 16.9843 9.37964 16.9715C9.5226 16.9071 9.70687 16.7462 9.79901 16.7913C10.9586 17.3253 11.1079 16.6948 10.8061 15.4915C12.0642 16.0964 12.6107 17.5795 13.8974 17.2739C14.4661 17.1387 14.6853 16.3441 14.7711 15.691C14.8759 15.6878 14.9807 15.6878 15.0856 15.6846Z" fill="#F07E40"/>
<path d="M16.9854 16.6497C16.3469 16.9328 15.6447 17.306 16.0387 16.0127C16.5693 15.8969 17.1348 15.7264 16.9854 16.6497Z" fill="#F07E40"/>
<path d="M23.0282 19.6289C22.5008 19.1431 22.1545 18.7892 22.3483 18.0589C22.9964 18.4546 23.0313 18.9919 23.0282 19.6289Z" fill="#EE703E"/>
<path d="M12.8458 8.27531C12.6329 8.08871 12.4201 7.8989 12.2072 7.7123C12.5281 7.57717 12.8458 7.44527 13.1667 7.31015C13.4844 7.33588 13.8021 7.08172 14.1198 7.31336C14.1801 8.02437 13.9927 8.55199 13.1794 8.61312C13.0682 8.50052 12.957 8.38791 12.8458 8.27531Z" fill="#EE7763"/>
<path d="M16.3564 8.28818C16.1435 8.71607 15.9338 9.14718 15.721 9.57507C15.3016 9.77775 14.8854 9.97722 14.034 10.3858C14.6789 9.55255 15.0411 9.08605 15.4033 8.61634C15.5367 8.36539 15.6702 8.12088 16.0228 8.27853C16.134 8.28175 16.2452 8.28496 16.3564 8.28818Z" fill="#EB593B"/>
<path d="M11.2541 11.1612C11.3113 9.91931 12.0388 9.17292 12.8426 9.53003C12.312 10.0737 11.7815 10.6174 11.2541 11.1612Z" fill="#F39C89"/>
<path d="M14.1166 7.31336C13.7989 7.41953 13.4812 7.82812 13.1635 7.31015C13.5924 6.88226 14.0213 6.45437 14.447 6.02326C15.1618 6.66992 14.2087 6.87582 14.1166 7.31336Z" fill="#F29383"/>
<path d="M16.0228 8.28175C15.8163 8.39435 15.6098 8.50695 15.4033 8.61955C15.0602 8.13375 15.5081 7.97289 15.7813 7.87638C16.0482 7.77986 16.0006 8.10158 16.0228 8.28175Z" fill="#EF7A64"/>
<path d="M9.05558 17.3028C8.73788 17.8337 8.417 18.3645 8.0993 18.8921C7.99128 18.8953 7.88008 18.8986 7.77206 18.9018C6.78083 19.1656 6.95557 18.5415 7.06676 17.9591C7.26374 17.454 7.54332 16.994 7.83878 16.5436C8.25497 16.0578 8.34393 15.2953 9.04923 15.0476C9.26527 15.1537 9.47813 15.2599 9.69416 15.3661C9.68463 15.6267 9.64015 15.8679 9.39235 16.0127C8.93168 16.3537 9.09053 16.8524 9.05558 17.3028Z" fill="#F28F53"/>
<path d="M9.05558 17.3028C8.4996 16.698 8.75694 16.3087 9.38599 16.0159C9.38282 16.3344 9.37964 16.6529 9.37646 16.9715C9.26844 17.0808 9.1636 17.1934 9.05558 17.3028Z" fill="#F49A6A"/>
<path d="M19.5302 19.2203C19.3269 19.7576 18.7392 20.43 20.064 20.2241C20.9758 20.0825 21.8272 20.6101 22.7104 20.8289C23.438 21.4563 24.0639 20.8289 24.6198 20.6133C25.3792 21.1249 24.0734 21.9099 24.9852 22.2766C25.0996 22.3217 25.3696 21.9678 25.5666 21.7973C26.202 23.0842 24.7342 23.66 24.6167 24.6896C24.102 25.4392 23.6477 25.0628 23.2315 24.5898C22.5008 23.7533 21.9607 22.5694 20.4897 23.4027C20.1402 23.6021 19.9274 23.1614 19.9496 22.83C20.029 21.6622 19.2475 21.4144 18.377 21.2986C18.0148 21.2504 17.5954 21.379 17.5033 20.8611C17.4302 20.4493 17.6367 20.0793 17.9735 19.9216C18.4914 19.6868 18.701 18.7313 19.5302 19.2203Z" fill="#EE7336"/>
<path d="M17.9481 6.04256C18.5676 5.87527 18.3865 4.33422 19.543 5.08061C19.0664 5.49242 18.7296 6.14551 17.9481 6.04256Z" fill="#EB5C42"/>
<path d="M38.2811 27.9132C38.8148 27.0606 38.729 25.822 39.8442 25.3298C40.3271 25.5775 40.5844 26.1051 41.0768 26.3368C41.1944 26.4108 41.3024 26.4912 41.4073 26.5813C41.9569 27.1025 42.4716 27.6655 43.1324 28.058C43.4183 28.2735 43.6661 28.5277 43.8726 28.8172C44.2221 29.1744 44.257 30.072 45.118 29.5508C46.1887 29.0875 47.2975 28.7272 48.2951 28.103C48.9845 27.6719 49.6834 27.6108 50.3315 28.2188C50.2458 29.9722 49.4197 31.0339 47.7423 31.687C46.5477 32.1535 45.4993 33.0318 44.2443 33.4983C43.6407 32.9096 44.3142 32.2082 44.1141 31.5133C43.2881 31.9959 43.3675 32.7036 43.3548 33.376C43.1324 33.3053 42.9989 34.2672 42.6654 33.376C42.1094 31.8961 41.2389 30.5803 40.2635 29.3352C39.9903 28.9845 39.698 28.7336 39.2437 28.6339C38.9069 29.2323 39.644 29.3867 39.7203 29.8596C39.0563 30.0141 38.7608 29.3867 38.2874 29.1808C38.1921 29.0907 38.1317 28.9781 38.1127 28.8462C38.1476 28.5309 38.1413 28.2092 38.2811 27.9132Z" fill="#FCBF20"/>
<path d="M40.4827 24.992C41.833 24.1909 43.3897 23.7855 44.6256 22.7624C45.5024 22.4214 45.8074 22.9104 45.9186 23.6794C46.122 24.1233 45.7058 24.6284 46.033 25.0435C46.1029 25.1335 45.7979 25.481 46.0775 25.2429C47.3038 24.2166 47.2879 25.4553 47.6374 26.0472C47.7041 26.1791 47.7613 26.3207 47.809 26.4622C48.1267 28.4762 46.5636 26.8258 46.0616 27.3052C46.2109 28.1802 47.2657 27.7202 47.4817 28.3894C46.0394 29.5958 45.8011 29.5829 44.5525 28.3926C43.9679 27.836 43.4882 26.9738 42.4398 27.4435C41.8711 27.3792 41.6011 26.8354 41.1245 26.6199L41.134 26.6295C40.6893 26.1791 40.2222 25.7319 40.4827 24.992Z" fill="#FDC92E"/>
<path d="M42.408 27.2666C42.9418 26.4944 43.5073 26.5073 43.987 27.2794C44.3778 27.91 45.0227 28.2607 45.4834 28.8269C46.0076 29.4671 46.6144 28.6532 47.3896 28.4891C46.7733 28.0934 46.141 28.5985 45.7312 28.0902C45.3563 27.6269 45.4516 27.2826 45.7725 26.829C46.2109 26.2113 46.5096 26.385 46.8304 26.8869C46.9861 27.1314 47.218 27.3405 47.4627 27.1765C47.8026 26.948 47.4118 26.6006 47.4849 26.3046C47.5834 26.2306 47.6597 26.2049 47.7105 26.2338C47.6597 26.1856 47.5866 26.2081 47.4881 26.3046C46.9893 26.0665 47.1132 25.4778 46.8114 25.0241C46.5477 25.2429 46.3094 25.436 46.0775 25.6354C45.8201 25.8542 45.5215 26.0633 45.2515 25.7352C44.6574 25.0177 45.6613 25.3266 45.6391 25.1914C45.5469 24.6381 45.458 24.1201 45.9186 23.6826C47.6596 24.9244 49.3467 26.221 50.3284 28.2188C48.7557 27.6816 47.7836 29.139 46.4524 29.4317C45.9568 29.5411 45.5183 29.8918 44.9719 29.8564C44.2856 29.8596 44.0156 29.2805 43.6216 28.8719C43.4278 28.6789 43.2309 28.4827 43.0371 28.2896C42.8401 27.9389 42.1825 27.881 42.408 27.2666Z" fill="#FDD23C"/>
<path d="M49.3816 22.1158C49.7883 23.6247 51.5007 24.1652 51.9359 25.6515C53.0574 27.347 51.7072 28.6853 51.2973 30.162C50.6619 30.4484 50.2902 30.3068 50.6302 29.5797C51.399 27.9325 50.7509 26.8547 49.4038 25.9507C48.5746 25.3973 48.7907 24.5834 49.102 23.7791C48.6699 23.66 48.6541 24.0011 48.546 24.1652C48.3586 24.4515 48.1807 24.741 47.8185 24.4579C47.415 24.1458 47.5707 23.8016 47.8725 23.5121C48.3649 23.0359 48.8764 22.5791 49.3816 22.1158Z" fill="#FCC128"/>
<path d="M51.6151 31.124C51.9423 31.2269 52.511 31.0822 52.2505 31.7739C51.9264 31.6709 51.3577 31.8093 51.6151 31.124Z" fill="#FCC026"/>
<path d="M45.8996 21.1571C46.1347 20.89 46.392 20.5072 46.7637 20.8482C46.9575 21.0251 46.7764 21.3308 46.5096 21.4691C46.3857 21.2021 46.1506 21.1635 45.8996 21.1571Z" fill="#FCC128"/>
<path d="M6.49807 15.0669C6.60927 14.8513 6.72364 14.6358 6.83484 14.4234C7.02864 13.0883 7.90867 12.3547 9.0397 11.8368C8.96027 12.7215 8.3344 13.4808 8.46148 14.4138C8.83001 14.8642 8.62033 15.2567 8.3344 15.6363C7.98492 15.9323 7.53379 15.6717 7.16207 15.8615C7.02546 15.8969 6.88885 15.9033 6.74906 15.8905C6.60927 15.8551 6.49172 15.7811 6.39641 15.6717C6.34875 15.4561 6.33287 15.2438 6.49807 15.0669Z" fill="#ED7044"/>
<path d="M9.0397 11.8336C8.3058 12.6958 7.56873 13.558 6.83484 14.4202C6.12319 13.7735 6.08824 13.1204 6.82531 12.4641C8.00716 12.7376 8.31216 11.1515 9.39552 11.2158C9.38282 11.3091 9.37011 11.4057 9.35105 11.499C9.2462 11.6116 9.14454 11.7242 9.0397 11.8336Z" fill="#F18962"/>
<path d="M8.05799 15.646C8.32169 15.276 8.43924 14.861 8.46148 14.4105C8.71246 14.3366 8.73788 13.7285 9.13818 14.0631C9.52896 14.3912 9.12865 14.7226 9.04287 15.0476C8.7347 15.5913 8.42971 16.135 8.12154 16.6787C7.90232 16.6433 7.76253 16.5082 7.67675 16.3119C7.63863 15.9902 7.82925 15.8068 8.05799 15.646Z" fill="#F6AE8B"/>
<path d="M41.7345 33.3728C42.6368 34.1257 42.1983 35.0683 42.0903 35.9627C41.3469 36.7091 40.6035 37.4555 39.86 38.1987C39.6535 37.893 39.2818 37.7643 39.0785 38.0056C38.0746 39.1928 37.5408 38.4078 37.0007 37.5552C36.9848 36.3262 38.154 35.9627 38.7068 35.1487C39.2151 34.6308 39.86 34.2801 40.3779 33.7718C40.7846 33.479 41.1245 32.9578 41.7345 33.3728Z" fill="#FABA20"/>
<path d="M37.3216 40.7789C37.3311 40.1161 37.6552 39.6914 38.2747 39.4888C38.9355 40.5215 39.5964 41.551 40.2572 42.5837C39.0308 42.2813 38.1921 41.506 37.3216 40.7789Z" fill="#FAB81E"/>
<path d="M43.0402 41.4191C42.1983 41.5607 41.3088 42.0304 40.6352 41.0652C41.4359 41.1778 42.3254 40.7274 43.0402 41.4191Z" fill="#FED544"/>
<path d="M42.7225 38.1987C42.0045 38.8389 41.2897 39.4823 40.5717 40.1226C40.9434 39.0448 41.6392 38.3692 42.7257 38.2051L42.7225 38.1987Z" fill="#FED74E"/>
<path d="M44.3079 36.5965C44.4191 36.6994 44.5303 36.8056 44.6415 36.9086C44.1649 37.5842 43.5136 37.9992 42.7225 38.1954L42.7257 38.1987C43.1101 37.523 43.6629 37.0115 44.3079 36.5965Z" fill="#FCE36E"/>
<path d="M43.0402 41.4191C43.358 40.9494 43.6757 40.4764 43.9934 40.0067C44.1872 40.8657 43.8472 41.3226 43.0402 41.4191Z" fill="#FED544"/>
<path d="M40.4986 34.0163C40.1587 34.679 39.4375 34.8656 38.9228 35.3128C38.5352 35.3032 38.0873 34.9364 37.8363 35.5991C37.5218 36.4292 36.7688 36.5032 36.0254 36.5482C34.7419 36.2619 33.8269 35.3321 32.7721 34.6436C32.3496 34.2479 31.7269 34.042 31.6029 33.3664C32.4671 31.5133 34.2907 30.4966 35.4122 28.8719C35.5552 28.5953 35.7617 28.4119 36.0857 28.3958C36.3018 28.3733 36.5178 28.3121 36.7402 28.3829C37.0738 28.5534 37.3978 28.7304 37.4423 29.1647C37.4455 29.3642 37.2771 29.509 37.2835 29.7116C37.4804 29.5926 37.6615 29.4478 37.8935 29.3931C38.046 29.3738 38.1699 29.4253 38.2652 29.5508C39.3168 30.6221 40.6543 31.4039 41.4231 32.7583C41.2071 33.2506 40.6194 33.4597 40.4986 34.0163Z" fill="#FDCF32"/>
<path d="M34.4559 42.0593C34.1573 41.9178 33.9349 41.7086 33.8491 41.3741C33.7824 41.1199 33.7188 40.7853 33.3694 40.9172C32.842 41.1199 33.2296 41.3547 33.3726 41.6186C33.6744 42.1816 33.29 42.5612 32.8738 42.7735C32.4353 42.9987 32.2797 42.5065 32.035 42.2523C31.209 41.3901 30.3893 40.4797 28.9247 41.2808C28.7214 40.7081 29.0105 39.9392 28.4196 39.4791C29.5887 36.0753 29.5887 36.0785 32.4957 37.8576C33.4996 38.4721 34.2113 39.4083 35.0151 40.2352C35.9015 41.1456 34.5957 41.432 34.4559 42.0593Z" fill="#FED034"/>
<path d="M36.0667 28.5341C35.8475 28.6467 35.6314 28.7593 35.4122 28.8719C34.7291 28.2349 34.5195 29.0457 34.1954 29.3224C32.9659 30.3679 32.0922 31.8157 30.6308 32.591C30.2305 32.8034 30.3957 33.109 30.329 33.3857C30.2305 33.7878 30.6117 34.4956 29.8683 34.4989C29.2678 34.5021 29.0041 33.9905 29.0581 33.3664C29.0772 33.1573 29.0613 32.9417 29.0613 32.7326C30.1256 32.5267 29.5315 31.9283 29.3663 31.4296C29.1312 30.2489 30.1987 29.7438 30.634 28.9073C30.3798 27.8296 31.5076 27.8424 31.8952 27.273C32.2129 27.1572 32.3178 26.8194 32.5561 26.6199C33.9667 26.6102 34.7101 28.0773 36.0444 28.2349C36.1525 28.2961 36.1906 28.3604 36.162 28.428C36.1334 28.4987 36.1016 28.5341 36.0667 28.5341Z" fill="#FCBE26"/>
<path d="M36.6925 37.5681C36.6925 38.0346 36.6925 38.5011 36.6925 39.1413C35.6155 37.5198 34.1954 36.5482 32.502 35.8501C31.9016 35.6024 30.5259 35.3482 31.3202 33.9777C32.0223 33.6495 32.3813 34.2897 32.8833 34.5375C33.9889 35.4576 35.2597 36.1332 36.4225 36.9761C36.575 37.1434 36.6798 37.3332 36.6925 37.5681Z" fill="#FCC32F"/>
<path d="M36.6925 37.5681C36.5845 37.4587 36.4765 37.3493 36.3685 37.2399C36.324 36.8989 35.8506 36.7027 36.0413 36.2812C36.6671 35.982 37.3788 35.9595 37.7441 35.1037C38.154 34.1417 38.6528 34.486 38.9228 35.3128C38.2811 36.0592 37.6393 36.8088 37.0007 37.5552C36.8991 37.5584 36.7942 37.5616 36.6925 37.5681Z" fill="#FDD540"/>
<path d="M32.8674 34.6855C32.3527 34.4506 31.8381 34.2157 31.3202 33.9777C31.3043 33.7235 31.3647 33.5047 31.5998 33.3664C32.0255 33.6913 32.448 34.0131 32.8738 34.338C32.9722 34.4184 33.004 34.4956 32.9691 34.5696C32.9373 34.6468 32.9024 34.6855 32.8674 34.6855Z" fill="#FDE070"/>
<path d="M38.262 29.5508C38.1476 29.554 38.0333 29.5604 37.9221 29.5636C37.6044 29.6409 37.4137 29.4961 37.3184 29.1969C37.1024 28.991 36.8863 28.7819 36.6703 28.576C36.6385 27.9808 36.9372 28.0226 37.3216 28.2285C37.4264 28.3347 37.5313 28.4376 37.6361 28.5438C37.9888 28.3701 38.1317 28.6178 38.2747 28.8687C38.2779 28.9717 38.2842 29.0746 38.2874 29.1776C38.2779 29.3031 38.2715 29.4285 38.262 29.5508Z" fill="#F5A11C"/>
<path d="M40.4986 34.0163C40.1905 33.1315 40.9593 33.0608 41.4231 32.7583C41.528 32.961 41.6328 33.1669 41.7345 33.3696C41.2039 33.3567 40.9307 33.8425 40.4986 34.0163Z" fill="#FCDF52"/>
<path d="M41.7631 21.1506C42.2333 23.2129 42.0077 23.8306 40.1079 24.5416C38.6369 25.0949 38.2366 26.2563 37.9538 27.5851C37.7441 26.9191 37.4646 26.266 37.347 25.5839C37.1755 24.6123 37.2104 23.6343 38.5479 23.5989C39.3136 23.5796 39.8823 22.0096 40.8545 23.4702C40.6289 22.5501 41.7949 22.0128 41.1436 21.1764C41.3469 21.1667 41.5566 21.1571 41.7631 21.1506Z" fill="#FBBD22"/>
<path d="M37.3216 28.2317C37.0484 28.2381 36.8101 28.3089 36.6703 28.5792C36.4702 28.5663 36.27 28.5502 36.0667 28.5373C36.0571 28.4376 36.0508 28.3379 36.0476 28.2349C36.1525 28.132 36.2605 28.029 36.3653 27.9261C36.5814 27.6526 36.8609 27.1186 36.9975 27.1572C37.5535 27.2987 37.2263 27.8521 37.3216 28.2317Z" fill="#F5A418"/>
<path d="M38.2715 28.8719C38.0587 28.7626 37.8458 28.6532 37.6329 28.547C37.7441 28.2285 37.8522 27.91 37.9634 27.5915C38.0682 27.7009 38.1762 27.807 38.2811 27.9164C38.4717 28.2349 38.4685 28.5534 38.2715 28.8719Z" fill="#F5A418"/>
<path d="M31.9302 23.0938C31.927 23.3062 31.9238 23.5153 31.9207 23.7276C31.8126 23.7276 31.7078 23.7244 31.5998 23.7244C31.73 23.2 31.3933 22.5791 31.927 22.1415C31.9302 22.46 31.9302 22.7753 31.9302 23.0938Z" fill="#FBBB23"/>
<path d="M23.3649 30.7991C24.5881 30.6672 25.6143 31.5969 26.8406 31.4489C27.1583 31.6645 27.4792 31.8768 27.7969 32.0924C26.5419 32.4012 25.4522 31.7674 24.3053 31.4586C23.9908 31.2398 23.6763 31.0178 23.3649 30.7991Z" fill="#F7AD1B"/>
<path d="M40.4827 24.992C40.6988 25.5389 40.918 26.0858 41.134 26.6295C40.3874 26.5169 39.9458 26.0923 39.841 25.3298C40.057 25.2172 40.2699 25.1046 40.4827 24.992Z" fill="#FCDB61"/>
<path d="M19.5302 19.2203C18.5898 19.3586 18.1959 20.1243 17.4969 20.9608C18.3865 20.9737 18.9584 20.8965 19.6827 21.3501C20.6867 21.9807 20.118 22.5919 20.2419 23.2193C21.5508 22.3635 22.8757 22.7592 23.4221 24.2005C23.6922 24.9148 24.0607 24.918 24.6167 24.6928C24.8645 25.0628 24.9693 25.4746 24.9788 25.9185C24.6071 26.9062 24.5881 28.1191 23.349 28.5567C23.3935 28.0837 23.295 27.5304 23.5079 27.1572C23.9527 26.3754 23.492 26.3464 22.9837 25.9378C21.7573 24.9502 20.8138 25.1786 19.8797 26.3336C19.6001 25.6612 20.5564 25.555 20.1847 24.9244C19.5938 25.14 18.6629 26.1791 18.6597 24.4193C18.6597 23.9914 18.4501 23.9786 17.9862 24.4515C17.8274 24.6123 17.8401 25.0563 17.4906 24.77C17.4016 24.6992 17.5764 24.3003 17.6304 24.0525C17.211 23.3641 15.4732 23.3094 16.6106 21.8745C16.331 21.8713 16.0641 22.0804 15.7782 21.926C15.6606 21.8455 15.5717 21.7394 15.5081 21.6139C15.2508 21.437 15.7337 20.5683 14.8854 20.9447C14.7552 20.9994 14.6249 21.0219 14.4851 21.0187C13.9291 20.3013 12.7123 19.7672 13.8211 18.5865C14.7012 17.6857 15.4255 17.9141 16.0419 18.905C16.9314 19.719 17.8464 19.7222 18.7169 18.9147C19.2666 18.3999 19.5843 18.2262 19.5302 19.2203Z" fill="#F07F36"/>
<path d="M23.349 28.5534C23.9781 27.8006 24.3752 26.9287 24.6198 25.9829C24.8295 25.7673 24.8804 25.3909 25.2521 25.3427C25.4808 25.3491 25.7096 25.3555 25.9383 25.362C25.0773 26.9609 24.2132 28.5631 23.349 30.162C22.6533 29.6248 23.4221 29.0875 23.349 28.5534Z" fill="#ED722B"/>
<path d="M15.7242 21.7973C16.3659 21.9099 16.5915 21.0863 17.2047 21.0831C17.4874 21.9131 16.5216 22.1061 16.439 22.7496C16.9187 23.0938 17.5382 23.3255 17.6272 24.0493C16.9569 24.1652 16.3596 23.8338 15.7242 23.7276C15.2222 23.0842 14.7869 22.4407 15.7242 21.7973Z" fill="#F18939"/>
<path d="M15.7242 21.7973C15.2063 22.4407 15.8322 23.0842 15.7242 23.7276C15.6161 23.8338 15.5113 23.9432 15.4033 24.0493C15.2 23.8466 14.9236 23.7405 14.717 23.5378C14.6217 23.4252 14.5487 23.2965 14.4978 23.1582C14.2723 22.3442 14.1579 21.5463 14.7679 20.8321L14.7711 20.8289C15.381 20.6037 15.4478 21.1989 15.7242 21.4756C15.721 21.5817 15.721 21.6911 15.7242 21.7973Z" fill="#F39337"/>
<path d="M14.4534 24.0493C13.9863 23.7147 14.1801 23.2064 14.1325 22.7657C14.1992 22.7431 14.2691 22.7238 14.3358 22.7013C14.6599 22.8204 14.5455 23.2193 14.7647 23.4059L14.7711 23.4155C14.9521 23.6311 14.9553 23.8434 14.7615 24.0525C14.6599 24.0493 14.5582 24.0493 14.4534 24.0493Z" fill="#F39337"/>
<path d="M14.7647 24.0493C14.7679 23.837 14.7711 23.6247 14.7742 23.4123C15.1904 23.4155 15.3938 23.6343 15.4033 24.0493C15.1904 24.0783 14.9776 24.4064 14.7647 24.0493Z" fill="#F6A435"/>
<path d="M6.49807 15.0669C6.50761 15.2728 6.52031 15.4754 6.52984 15.6813C6.71411 16.3248 6.44407 16.7269 5.85949 16.9586C5.65299 17.2867 5.44648 17.6149 5.23997 17.9431C5.13195 17.8337 5.02393 17.7211 4.91909 17.6117C5.36387 16.7109 5.75465 15.7779 6.49807 15.0669Z" fill="#F5A266"/>
<path d="M11.9149 21.8005C12.3311 21.6139 12.544 21.2954 12.544 20.8321C14.644 21.0638 14.6599 21.0831 14.1356 22.7592L14.1293 22.7624C13.4113 22.3957 12.0833 23.4702 11.9149 21.8005Z" fill="#F39337"/>
<path d="M14.1356 22.7592C14.806 21.0991 13.1126 21.4434 12.544 20.8321C12.0738 20.8675 11.4574 20.7259 11.1556 20.9705C10.2629 21.7008 9.86255 21.0284 9.36375 20.504C9.03334 20.1887 9.06829 19.8123 9.18902 19.423C9.22714 18.6959 9.58297 18.2873 10.266 18.683C10.9491 19.0787 11.2922 18.8535 11.5908 18.2583C11.9626 19.2364 12.4137 19.7318 13.1952 18.5672C13.3732 18.3034 13.6146 18.3034 13.8179 18.5801C13.5352 19.5903 14.2055 20.1855 14.7679 20.8289C14.7679 21.6847 14.7679 22.5437 14.7679 23.3995C14.5582 23.1871 14.3485 22.9748 14.1356 22.7592Z" fill="#F18939"/>
<path d="M11.5908 18.2583C11.4542 19.2267 11.2191 19.9828 10.1517 18.9404C9.70687 18.5061 9.55437 18.9179 9.37011 19.2235C9.26527 19.3747 9.15725 19.3747 9.0524 19.2235C8.94439 19.2203 8.83954 19.2171 8.73152 19.2139C9.34469 18.0782 10.0913 17.8465 11.038 18.4546C11.1397 18.5222 11.4002 18.3323 11.5908 18.2583Z" fill="#F3934B"/>
<path d="M8.05799 15.646C7.96268 15.8712 7.86737 16.0996 7.77206 16.3248C7.94998 16.8975 7.48931 17.2353 7.29551 17.6728C7.07947 17.9237 7.03499 18.3999 6.52984 18.2809C6.52349 18.1618 6.51714 18.046 6.50761 17.927C6.05647 16.9875 6.94604 16.4277 7.13348 15.6717C7.42259 14.9575 7.74029 15.2953 8.05799 15.646Z" fill="#F29257"/>
<path d="M7.13666 15.6717C7.70217 16.6433 6.31381 17.0615 6.51078 17.927C5.93574 17.9624 6.04058 17.6278 6.17084 17.2835C6.13907 16.6401 6.50443 16.1768 6.86343 15.7103C6.95557 15.7103 7.04452 15.6974 7.13666 15.6717Z" fill="#F6A86F"/>
<path d="M9.04923 19.2267C9.15407 19.2267 9.26209 19.2267 9.36693 19.2267C9.36693 19.6546 9.36693 20.0825 9.36375 20.5072C9.09053 20.5683 8.77283 20.9608 8.54726 20.5844C8.18508 19.9796 8.91579 19.6964 9.04923 19.2267Z" fill="#F8AC54"/>
<path d="M6.52984 18.2809C6.73635 18.0621 6.94286 17.8401 7.14936 17.6213C7.33999 17.6439 7.37493 17.8272 7.47342 17.9463C7.31457 18.3484 6.9365 18.8214 7.77206 18.905C6.91426 19.5999 6.68234 19.0176 6.52984 18.2809Z" fill="#F8B175"/>
<path d="M6.86026 15.7071C6.62833 16.2315 6.39959 16.7559 6.16766 17.2803C6.066 17.1709 5.96116 17.0615 5.85949 16.9554C6.08188 16.5307 6.30745 16.1028 6.52984 15.6781C6.64104 15.6878 6.75224 15.6974 6.86026 15.7071Z" fill="#F08445"/>
<path d="M26.8406 31.4489C26.9041 30.9535 26.1766 30.3165 27.0376 29.9851C27.4601 29.8242 27.6793 30.2039 27.7524 30.5899C27.889 31.3396 27.4252 31.4682 26.8406 31.4489Z" fill="#FCD348"/>
<path d="M30.634 28.9073C30.5482 29.9208 29.5093 30.4452 29.3663 31.4296C28.4259 31.05 29.2456 30.6028 29.3727 30.2521C29.5919 29.6537 30.0335 29.1808 30.634 28.9073Z" fill="#FDDF77"/>
<path d="M27.4855 28.0869C27.2028 27.5271 27.5491 27.2086 27.8064 26.7357C28.1876 27.4081 27.6221 27.688 27.4855 28.0869Z" fill="#FDD65A"/>
<path d="M32.5592 26.6199C32.4703 26.977 32.5815 27.5368 31.8984 27.273C31.9175 26.9834 31.9905 26.7228 32.2669 26.5748C32.3623 26.5909 32.4607 26.607 32.5592 26.6199Z" fill="#FBDD69"/>
<path d="M25.2521 25.3394C25.0424 25.5518 24.8295 25.7673 24.6198 25.9797C24.6198 25.5486 24.6198 25.1207 24.6198 24.6896C24.9217 24.815 25.1345 25.0306 25.2521 25.3394Z" fill="#EE7336"/>
<path d="M7.47342 17.9463C7.3654 17.8369 7.25738 17.7307 7.14936 17.6213C7.35587 17.1902 7.56556 16.7559 7.77206 16.3248C7.88961 16.4438 8.00716 16.5629 8.12471 16.6787C7.90867 17.1001 7.68946 17.5216 7.47342 17.9463Z" fill="#F8C5A4"/>
<path d="M42.408 27.2666C42.6177 27.6076 42.8274 27.9454 43.0371 28.2864C42.1412 28.0387 41.6455 27.318 41.1277 26.6231C41.6837 26.5716 41.9664 27.08 42.408 27.2666Z" fill="#FCDB61"/>
<path d="M43.6216 28.8687C44.0696 29.1969 44.5207 29.525 44.9687 29.8532C44.3015 30.3261 44.203 30.2553 43.6216 28.8687Z" fill="#FCE07A"/>
<path d="M47.4881 26.3014C47.9678 26.0311 47.9678 26.0311 48.527 26.7904C48.0187 26.9577 47.8725 26.3593 47.4881 26.3014Z" fill="#FDC92E"/>
<path d="M32.8674 34.6855C32.8706 34.5696 32.8738 34.457 32.8738 34.3412C33.9285 34.9879 34.9833 35.6345 36.0381 36.2812C36.0571 36.6319 36.7275 36.7573 36.3653 37.2431C35.2216 36.3616 33.8682 35.7697 32.8674 34.6855Z" fill="#FDE26F"/>
<path d="M35.2661 30.9406C35.3677 31.5615 34.8435 31.7288 34.6847 32.1052C34.5798 32.3562 35.3169 32.7969 34.5195 32.8742C34.3892 32.887 34.2176 32.7648 34.1064 32.6618C33.668 32.2565 34.116 32.0087 34.3002 31.732C34.5226 31.4039 34.5989 30.902 35.2661 30.9406Z" fill="#FCE26A"/>
<path d="M37.3184 29.2001C37.5186 29.3224 37.7219 29.4446 37.9221 29.5669C37.8935 29.6087 37.8712 29.6762 37.8299 29.6891C37.3851 29.85 37.131 30.8087 36.6576 30.3197C36.2255 29.8725 37.0833 29.5894 37.3184 29.2001Z" fill="#FFDD52"/>
<path d="M15.721 21.4756C15.4033 21.26 15.0856 21.0444 14.7679 20.8289C14.9521 20.5136 15.1936 19.986 15.5177 20.1629C15.9593 20.4107 15.6511 21.0251 15.721 21.4756Z" fill="#F18939"/>
</svg>
