<svg width="34" height="34" viewBox="0 0 34 34" fill="none" xmlns="http://www.w3.org/2000/svg">
<path d="M1.42795 22.1166C1.85179 21.0721 2.21579 19.9922 2.98367 19.1243C3.45737 18.7408 3.84132 18.8821 4.18039 19.3211C4.41973 19.8711 4.16044 20.411 4.17041 20.956C5.05299 21.9955 5.42696 20.9762 5.76603 20.4766C6.22476 19.8005 6.31452 18.9477 6.52893 18.1554C6.67353 17.7063 6.90789 17.3177 7.3018 17.0402C8.18438 16.8838 8.69298 15.9704 9.5955 15.8443C10.513 16.0865 11.3257 16.3892 12.4028 16.0814C13.8987 15.6525 13.6144 16.6113 13.0709 17.4439C13.5646 17.2219 13.8338 16.6769 14.2776 16.3236C15.9331 15.5263 14.8909 13.2051 16.4566 12.3574C17.1547 12.4129 17.4539 12.9175 17.7032 13.4827C18.5609 15.2084 17.1447 16.6466 17.1148 18.2664C15.0854 18.8467 13.5646 21.0721 11.1662 20.3051C11.5402 21.0469 12.3679 21.1074 13.2006 21.1528C14.7264 21.4808 15.0505 22.6919 15.25 23.9989C15.3048 24.665 15.1004 25.2604 14.7314 25.8003C14.3823 26.1738 13.9934 26.4614 13.4449 26.2747C12.9413 25.6641 13.2604 24.8113 12.8416 24.1755C12.333 23.4085 11.7097 23.3479 10.9518 23.792C9.98941 24.3571 10.513 24.8113 11.0415 25.2705C12.0837 26.1738 12.5324 27.2133 11.7895 28.5354C10.6426 29.802 9.01709 29.8423 7.53117 30.2057C5.83583 30.6194 3.91611 29.6253 2.36537 31.23C1.86176 31.7498 1.14373 31.23 0.869487 30.4933C1.50773 29.4588 1.12877 28.4597 0.74483 27.4656C1.60746 25.76 1.62242 23.9534 1.42795 22.1166Z" fill="#EF7755"/>
<path d="M27.8757 16.591C26.0009 21.4353 22.3758 24.791 18.4317 27.8439C16.6765 29.2014 14.7917 30.3822 12.9617 31.6437C12.5977 31.563 12.3534 31.3813 12.3484 30.9675C13.0814 30.0037 12.1888 29.1257 12.2038 28.1972C12.3135 27.5765 12.7722 27.2586 13.2509 26.9558C13.9639 26.6581 14.5922 26.2645 14.8714 25.4773C15.5346 24.2813 15.8936 22.8381 17.3796 22.3083C17.6089 22.2679 17.8433 22.273 18.0776 22.3083C18.2372 22.3487 18.4167 22.3789 18.5264 22.4849C19.5087 23.479 20.7004 22.7776 21.7874 22.9037C20.4012 21.9803 22.5703 20.0022 20.7154 19.215C21.3786 17.2319 22.68 15.7382 24.2856 14.4766C24.9986 14.6987 25.3277 14.5523 24.9886 13.7349C25.3576 12.3118 25.8014 10.9645 27.5765 10.8333C28.7782 11.5297 28.4741 12.4683 27.9854 13.4321C27.6014 13.9064 27.1527 14.3757 27.6663 15.0418C27.9854 15.5313 27.6663 16.0965 27.8757 16.591Z" fill="#EA6B4C"/>
<path d="M12.4881 5.51393C13.7496 4.41891 14.8765 3.13719 16.522 2.58211C17.6289 2.53669 18.4766 1.78986 19.4689 1.43663C19.803 1.2802 20.1321 1.12376 20.4661 0.967334C22.1017 1.11367 23.6324 0.205363 25.2779 0.487948C26.8037 0.745302 28.4542 0.820995 28.7384 2.90002C28.4293 4.09091 27.5965 3.30371 27.078 3.39454C27.4918 3.47023 27.9805 3.80328 28.509 3.47528C29.626 3.54592 29.6958 4.35836 29.7107 5.21116C29.6359 5.43824 29.4863 5.59467 29.2719 5.69055C28.2348 6.16489 27.5217 7.11861 26.689 7.82003C24.5649 9.60133 22.6003 9.09671 20.4711 8.20354C20.0772 7.4012 20.6756 6.8663 20.9797 6.24562C21.4285 5.53916 21.992 4.95381 22.71 4.52488C23.0241 4.20697 23.8369 4.12623 23.5277 3.52574C23.1986 2.88488 22.5155 3.28352 21.977 3.43491C20.9448 3.87393 19.8877 4.23725 18.8306 4.58544C17.8882 4.66617 17.7087 5.36255 17.594 6.12452C16.3973 7.08329 15.046 7.80994 13.7845 8.66778C13.5901 8.79394 13.3158 8.69806 13.1463 8.89991C13.4056 8.92009 13.5452 9.08157 13.62 9.31874C13.6 9.54582 13.4903 9.72243 13.3108 9.85363C12.6377 10.1009 11.9595 10.555 11.3163 9.81326C10.3739 9.50545 10.1196 10.9941 9.16721 10.6661C8.01039 9.29855 9.92014 8.91505 10.0199 7.95123C10.1246 7.86544 10.2143 7.76957 10.2841 7.65855C11.062 6.98741 12.0842 6.57867 12.4881 5.51393Z" fill="#F08360"/>
<path d="M12.463 31.2245C12.6326 31.3658 12.7971 31.5021 12.9667 31.6434C11.2414 32.6173 9.52113 33.5962 7.48174 33.7224C6.61412 33.2783 5.68169 33.6215 4.78914 33.5004C4.20575 33.0815 3.54257 33.5104 2.93424 33.3237C1.54307 32.8292 0.710356 31.8503 0.466027 30.3717C0.151891 28.9235 0.211727 27.4702 0.451069 26.0219C0.740273 24.7099 0.750246 23.3273 1.43337 22.1162C2.52537 24.0792 2.296 25.9412 1.03945 27.7376C1.52312 28.5501 1.6777 29.3675 1.07436 30.1951C2.45057 31.1387 3.22345 30.7451 3.38799 28.8326C6.25511 30.5786 8.88289 29.4685 11.4957 28.2372C11.6652 28.0555 11.8597 28.0303 12.0741 28.1514C12.3932 28.7317 12.2786 29.2969 11.8946 29.7712C11.1915 30.6392 11.9794 30.8612 12.463 31.2245Z" fill="#EB6545"/>
<path d="M29.4462 5.51353C29.3614 4.71624 29.0972 4.00473 28.434 3.50516V3.50011C27.6511 1.27475 25.886 0.522875 22.6748 1.00731C21.9418 1.11832 21.1789 1.94085 20.4609 0.966937C24.1209 -0.698298 27.5863 -0.133127 30.8274 2.05186C35.0458 4.89286 35.0458 9.53533 30.8972 13.5016C30.4534 13.7136 29.9897 13.8902 29.5908 14.1929C29.2767 14.4352 28.9576 14.8389 28.5238 14.5664C28.0351 14.2636 28.06 13.7539 28.1797 13.2342C28.5387 11.7102 28.6634 10.1409 29.2368 8.6472C29.6108 7.66825 30.0246 6.60351 29.4462 5.51353Z" fill="#EB6948"/>
<path d="M10.0197 7.94608C10.4037 8.93008 8.42411 9.4347 9.50613 10.56C10.2092 10.3077 10.5283 9.2934 11.4807 9.54067C12.1339 10.0957 12.7921 9.29845 13.4503 9.55076C12.9965 11.7913 10.8823 12.4119 9.47621 13.7239C8.50887 13.5271 7.93545 13.6735 8.01523 14.9249C8.08504 15.9796 7.91052 17.0342 6.34981 16.3328C5.42236 15.919 4.94866 17.5641 3.93146 16.9686C3.88658 16.9434 3.86664 16.8374 3.87162 16.7718C3.88159 16.6911 3.93644 16.6204 3.96636 16.5447C5.68663 13.4666 7.02296 10.1109 10.0197 7.94608Z" fill="#ED7251"/>
<path d="M3.96636 16.5447C5.14313 16.5599 6.01528 14.2274 7.3516 16.1097C8.01478 14.9844 6.59369 13.6118 7.70563 12.7136C8.42366 12.1383 8.94223 13.1678 9.50069 13.5866C10.1988 14.4142 10.2237 15.2468 9.52563 16.0895C8.85248 16.4175 8.78267 17.9364 7.5361 17.1239C7.28678 17.351 6.96267 17.4116 6.6635 17.5226C5.34213 17.6387 5.56152 19.7883 4.0058 19.5966C3.77643 19.203 3.39747 19.1374 2.99358 19.1172C3.17808 18.2139 3.39792 17.3118 3.96636 16.5447Z" fill="#F08568"/>
<path d="M29.4462 5.51353C31.5056 5.15021 30.3786 6.68471 30.2689 7.20446C29.7803 9.51561 28.7331 11.6855 28.5387 14.1127C29.4811 14.4709 29.9348 12.9319 30.8972 13.497C29.89 14.5265 28.8829 15.5616 27.8757 16.591C27.3422 16.1974 27.4716 15.5962 27.4018 15.0563C27.0378 14.5618 27.0428 14.0773 27.4367 13.598C27.7808 12.7452 28.4389 11.8873 27.3918 11.0597C27.2572 10.8478 27.2123 10.6157 27.2522 10.3684C27.8905 8.70822 28.2744 6.92188 29.4312 5.49886L29.4462 5.51353Z" fill="#E35A38"/>
<path d="M12.4881 5.51393C12.508 7.02273 11.4109 7.35142 10.284 7.65419C10.623 6.52385 11.6454 6.11442 12.4881 5.51393Z" fill="#ED6A45"/>
<path d="M19.4636 1.43549C18.596 2.11167 17.848 3.12091 16.5167 2.58097C17.4092 1.96029 18.222 1.12767 19.4636 1.43549Z" fill="#ED6A42"/>
<path d="M0.445796 26.016C0.450782 27.4643 0.455769 28.9176 0.460755 30.3658C-0.207408 28.9226 -0.0927234 27.4693 0.445796 26.016Z" fill="#EF7755"/>
<path d="M2.93424 33.3237C3.47276 33.3742 3.97062 31.2348 4.53905 33.2987C4.69862 33.4097 4.74349 33.5157 4.68864 33.6166C4.63379 33.7175 4.57396 33.768 4.51911 33.768C3.93073 33.8336 3.37304 33.7829 2.93424 33.3237Z" fill="#EC795B"/>
<path d="M4.51982 33.7629C4.50486 33.6064 4.51484 33.45 4.53977 33.2936C5.52207 33.4147 6.60415 32.8696 7.48174 33.7224C6.49944 34.1008 5.50711 34.0707 4.51982 33.7629Z" fill="#E24724"/>
<path d="M29.426 5.50425C29.2066 7.36628 28.5285 9.04666 27.4415 10.5605C26.2348 11.2518 25.437 12.3418 24.684 13.4721C24.3649 13.7749 23.9361 14.0171 23.5821 13.7598C22.1012 12.6849 20.7698 11.7665 19.3936 14.0222C19.0246 14.6277 18.0323 14.1736 17.4739 13.5882C17.1398 13.2501 16.8107 12.9171 16.4766 12.579C16.1625 12.1601 16.3819 11.7615 16.5215 11.3628C16.6063 11.166 16.711 10.9793 16.8356 10.8027C17.3492 10.1215 18.1321 9.72284 18.6357 9.03152C19.1642 8.53195 19.4983 7.63878 20.4956 8.05256C21.7072 8.20395 22.9189 8.37552 24.1356 8.50672C24.6292 8.56223 27.9052 6.352 27.9202 5.86757C27.9949 3.7835 28.9025 5.49415 29.426 5.50425Z" fill="#EF7753"/>
<path d="M16.9749 11.0638C16.9649 11.2202 16.9599 11.3766 16.9599 11.5331C15.828 12.1336 15.4042 13.5364 14.2025 14.0561C14.1925 14.2984 13.2451 13.9552 13.8734 14.5204C14.3421 14.9392 14.5814 15.4085 14.7211 15.9838C14.736 16.221 14.6762 16.4329 14.5415 16.6246C13.9631 17.5986 13.1155 18.2091 11.6395 18.6128C12.2678 17.7197 12.7265 17.0687 13.1803 16.4228C11.834 17.3059 10.6024 17.6087 9.52035 16.0948C9.51536 15.2622 9.50539 14.4245 9.5004 13.5919C10.2184 11.6441 12.3974 11.1647 13.4495 9.55497L13.5044 9.56506C13.7487 9.27743 14.0629 9.121 14.4318 9.06549C14.6712 9.04026 14.9055 9.05035 15.1399 9.08567C15.474 9.32789 16.9699 10.9528 16.9749 11.0638Z" fill="#F49C81"/>
<path d="M17.4794 13.5891C18.2572 13.4377 19.1398 14.235 19.6833 12.6555C20.2169 11.1114 21.7177 11.3839 22.8496 12.484C23.3133 12.9331 23.5377 13.9978 24.4751 13.0643C25.3727 12.8271 25.0386 13.801 25.4325 14.0584C25.4973 14.8456 25.1533 14.9515 24.535 14.6185C23.5128 14.6992 23.079 15.4965 22.6202 16.2484C22.2114 16.9145 21.987 17.7673 20.9798 17.7572C20.0772 16.7681 19.3393 17.409 18.6013 18.0145C18.0827 18.3224 17.5691 18.6403 16.9907 18.1457C16.3924 18.0145 15.3752 17.3686 15.9586 17.1567C17.9431 16.425 17.1054 14.8102 17.4794 13.5891Z" fill="#F07F5D"/>
<path d="M11.9642 28.227C11.8096 28.227 11.6501 28.2321 11.4955 28.2321C11.9143 27.1472 11.5653 26.3549 10.6977 25.6333C10.1243 25.1539 8.77297 24.9975 9.28656 23.9529C9.59072 23.3322 10.6727 22.8983 11.4656 22.7822C12.3531 22.646 13.1011 23.201 13.6346 24.074C14.1432 24.9067 13.3803 25.5071 13.495 26.2287C13.7942 26.5668 13.7792 26.9049 13.485 27.238C13.1509 27.566 12.8169 27.894 12.4878 28.222C12.3132 28.4642 12.1387 28.4642 11.9642 28.227Z" fill="#F0805C"/>
<path d="M17.9674 22.6602C17.7879 22.6552 17.6134 22.6501 17.4339 22.64C16.0228 22.1859 16.292 24.4718 14.9806 24.1791C14.123 23.4928 14.7812 21.5803 12.9861 21.656C12.8664 20.0715 13.9385 19.6426 15.1601 19.3651C15.5241 19.4458 15.7485 19.7032 15.9529 19.9908C16.2072 20.344 16.5563 20.5156 16.9851 20.5358C17.6483 20.5863 18.0971 20.0917 18.6605 19.8747C19.0195 19.8142 19.3436 19.8848 19.6129 20.1472C20.0018 21.6106 19.0444 22.1758 17.9674 22.6602Z" fill="#F0805C"/>
<path d="M15.5091 19.6728C14.3423 19.91 13.36 20.3944 12.986 21.661C11.4353 22.1051 10.9716 20.4348 9.74494 19.8545C12.617 20.8788 14.4071 17.9773 16.99 18.1489C17.4737 17.9672 17.9574 17.7855 18.441 17.6039C18.7302 17.8612 18.7751 18.1791 18.6804 18.5374C18.461 18.9663 18.0671 19.1833 17.6632 19.3852C17.369 19.5214 17.0548 19.6122 16.7407 19.6879C16.3318 19.7737 15.913 19.9302 15.5091 19.6728Z" fill="#EC6844"/>
<path d="M14.0132 13.6126C15.1152 13.0928 15.5889 11.6648 16.9601 11.5386C16.8005 11.8868 16.641 12.235 16.4814 12.5781C15.6786 13.8498 16.6208 15.9787 14.5415 16.6246C14.5266 16.448 14.5068 16.277 14.4919 16.1004C14.2126 15.293 14.068 14.4604 14.0132 13.6126Z" fill="#F07F5D"/>
<path d="M7.03803 18.0952C6.64411 19.8966 6.78373 22.1119 4.0662 22.1523C3.36313 22.1624 2.87946 21.9302 3.45289 21.1128C3.83683 21.1077 4.18089 20.9917 4.47009 20.7242C5.38258 19.8966 5.23299 18.0144 7.03803 18.0952Z" fill="#F5A78C"/>
<path d="M4.45933 21.6622C4.03549 21.642 3.6715 21.5108 3.4521 21.1071C3.6316 20.6025 3.8161 20.1029 3.9956 19.5983C5.03774 18.9877 4.7984 17.0601 6.48875 17.1206C6.04497 18.7404 5.00283 20.0878 4.45933 21.6622Z" fill="#F9CAB8"/>
<path d="M14.9807 24.1853C15.8383 23.7362 15.8134 21.8439 17.4339 22.6462C16.6112 23.6605 15.7885 24.6798 14.9607 25.6941C14.7812 25.8707 14.6067 25.8556 14.4422 25.6739C14.6267 25.1794 14.8012 24.6798 14.9807 24.1853Z" fill="#F39573"/>
<path d="M4.45981 21.6608C4.60441 19.9047 5.56677 18.5221 6.48923 17.1192C6.83328 17.1192 7.18232 17.1192 7.52638 17.1243C7.36183 17.4472 7.19728 17.7702 7.03274 18.0881C5.56677 18.8299 5.72134 20.7676 4.45981 21.6608Z" fill="#F29170"/>
<path d="M1.07436 30.1951C1.06438 29.3776 1.04942 28.5551 1.03945 27.7376C2.0766 28.54 2.75972 29.3474 1.07436 30.1951Z" fill="#F1886D"/>
<path d="M8.33348 27.2428C8.32351 27.2478 8.04926 27.4194 7.7451 27.5001C7.37113 27.596 7.08192 27.379 7.2016 27.0056C7.28138 26.7533 7.59053 26.5161 7.8548 26.395C8.1091 26.284 8.27365 26.5161 8.33348 27.2428Z" fill="#F28E6C"/>
<path d="M14.4467 25.6737C14.6213 25.6787 14.7908 25.6838 14.9653 25.6939C14.9454 26.6728 14.4025 27.1371 13.485 27.238C13.485 26.8999 13.4894 26.5669 13.4894 26.2288C13.8085 26.0421 14.1276 25.8604 14.4467 25.6737Z" fill="#F49D7C"/>
<path d="M17.9674 22.6602C18.3164 21.7519 19.4585 21.3494 19.4835 20.2291C19.663 19.4268 20.017 18.8666 20.9694 19.1442C23.2132 19.6993 22.1162 21.0264 21.5378 22.1063C22.2159 22.6513 22.5201 21.3594 23.1035 21.9902C21.0342 24.0995 19.7076 24.27 17.9674 22.6602Z" fill="#EE7454"/>
<path d="M20.9694 19.1442C20.4757 19.5075 19.9821 19.8658 19.4835 20.2291C19.1643 20.219 18.8447 20.2092 18.5256 20.1941C17.2092 21.2336 16.7305 20.5272 16.536 19.2202C16.8402 19.1849 17.1394 19.1445 17.4435 19.1092C18.4657 19.1445 19.2237 18.7156 19.6924 17.782C20.0364 17.4339 20.4054 17.232 20.8841 17.5297C21.9113 17.2421 22.016 16.1975 22.5445 15.4961C23.0132 14.8754 23.3024 13.5836 24.5291 14.6181C23.3423 16.1269 22.1561 17.6354 20.9694 19.1442Z" fill="#F5A88B"/>
<path d="M11.9641 28.2257C12.1386 28.2257 12.3131 28.2206 12.4877 28.2206C12.8068 29.2248 14.5769 30.2391 12.4627 31.2231C11.8544 31.1121 11.2211 32.0204 10.7026 31.3493C10.189 30.6832 10.8422 30.1634 11.276 29.7093C11.6849 29.2904 12.004 28.8514 11.9641 28.2257Z" fill="#EF8266"/>
<path d="M26.6234 16.5191C26.2145 18.0178 25.8007 19.5115 24.1951 20.884C24.1502 18.583 25.8904 17.816 26.6234 16.5191Z" fill="#F08467"/>
<path d="M25.4318 14.0622C25.1127 13.7292 24.7936 13.3961 24.4744 13.0681C25.1775 11.8823 25.9554 10.7923 27.4463 10.5652C27.4263 10.7317 27.4114 10.8983 27.3914 11.0698C26.2745 11.7511 25.6562 12.7754 25.4318 14.0622Z" fill="#F39877"/>
<path d="M17.7184 25.6427C17.4392 26.4098 17.2148 27.2272 16.1427 27.5754C16.2724 26.3744 16.9405 25.9556 17.7184 25.6427Z" fill="#EE7D61"/>
<path d="M20.3261 24.6198C19.8624 25.6493 19.4934 26.1892 18.6707 26.3406C18.6707 25.407 19.284 25.0942 20.3261 24.6198Z" fill="#F0876B"/>
<path d="M27.4367 13.598C27.4267 14.0824 27.4168 14.5719 27.4018 15.0563C26.9879 15.0311 26.5689 14.9946 26.524 14.4547C26.4692 13.7986 26.9131 13.6484 27.4367 13.598Z" fill="#F18867"/>
<path d="M16.9752 11.0652C16.2472 9.37983 15.8932 11.6001 15.235 11.1914C13.9435 10.9088 16.6261 9.80875 14.9707 9.54635C14.7214 8.4362 15.3995 7.49256 16.2272 7.54807C17.7181 7.64395 17.2444 6.63976 17.4489 5.97871C17.0998 4.93416 17.4289 4.26806 18.5209 4.03594C18.8101 4.58597 20.5603 3.64234 19.7825 5.29243C18.8151 6.08973 19.1492 7.23521 19.0146 8.25453C18.9797 8.66832 18.7104 9.05687 18.9099 9.49084C18.2666 10.0207 17.6234 10.5455 16.9752 11.0652Z" fill="#F29478"/>
<path d="M19.4432 5.01491C19.7374 4.10661 18.4758 4.71215 18.5207 4.04605C19.6626 3.69282 20.8044 3.33454 21.9463 2.98131C22.7292 2.55239 23.1131 2.85011 23.2029 3.68273C23.0932 4.93922 20.605 4.63645 21.3928 6.4884C21.0887 7.0132 20.7895 7.53295 20.4853 8.05775C19.8122 8.37566 19.3086 8.88028 18.9047 9.50096C18.5257 9.29911 18.4808 8.93579 18.4659 8.56237C19.2437 7.50268 18.6005 6.04938 19.4432 5.01491Z" fill="#F5AA8E"/>
<path d="M17.4535 5.98276C18.3759 6.82042 17.8723 7.77919 17.8673 9.10634C16.2966 7.38559 15.5736 8.25858 14.9753 9.5504H14.4866C14.1276 9.23754 13.639 9.06092 13.4844 8.54117C14.5564 7.29476 15.8329 6.36627 17.4535 5.98276Z" fill="#F5A58B"/>
<path d="M22.9389 4.02476C22.9538 3.34353 22.5948 3.02057 21.9516 2.97516C22.9987 2.02648 24.2253 2.42512 24.6193 3.35867C25.088 4.46378 23.5971 4.51424 22.9389 4.99867C22.6497 4.67571 22.6646 4.34771 22.9389 4.02476Z" fill="#F49B79"/>
<path d="M22.9389 4.02476C22.9389 4.34771 22.9389 4.67571 22.9389 4.99867C22.4253 5.49319 21.9121 5.98859 21.3986 6.48311C19.9426 4.9844 20.0269 4.84224 22.9389 4.02476Z" fill="#F9C3AD"/>
<path d="M28.434 3.50516C27.0129 4.55476 26.359 3.41441 25.6808 2.33453C26.5983 2.72309 27.5165 3.11156 28.434 3.50516Z" fill="#F5A581"/>
<path d="M11.475 9.54084C10.7968 9.83856 10.373 10.6409 9.5004 10.5602C10.0389 9.92939 10.5575 9.28348 11.1209 8.67794C11.3005 8.48114 11.6495 8.10773 11.814 8.64262C11.8888 8.87979 11.5996 9.23807 11.475 9.54084Z" fill="#E85E34"/>
<path d="M15.3096 4.7014C14.9307 5.41291 15.0005 6.23543 14.093 6.19002C13.9883 6.18497 13.7888 5.95285 13.8088 5.86706C13.9733 5.13537 14.3573 4.67112 15.3096 4.7014Z" fill="#F29478"/>
<path d="M26.5433 5.90268C26.4186 5.79671 26.1593 5.68065 26.1244 5.51917C26.0496 5.16594 26.269 4.86317 26.6131 4.81271C26.7727 4.79252 27.0718 5.00446 27.1267 5.17098C27.2364 5.54945 26.9422 5.7412 26.5433 5.90268Z" fill="#F49B77"/>
<path d="M13.4844 8.54117C13.9631 8.72787 14.2971 9.06597 14.4866 9.5504C14.1575 9.5504 13.8341 9.55636 13.505 9.55636C13.8191 9.21322 11.809 8.91458 13.4844 8.54117Z" fill="#F29478"/>
<path d="M32.3829 5.47241C32.6472 6.61789 33.3702 7.80374 32.0339 8.85839C31.0964 7.76337 31.7247 6.63303 31.9192 5.52792C32.0588 5.3614 32.2134 5.34626 32.3829 5.47241Z" fill="#EF7C5B"/>
<path d="M32.3824 5.47472C32.2278 5.49995 32.0732 5.51509 31.9186 5.53527C31.435 4.9045 30.9463 4.27373 30.4626 3.63791C31.5048 3.88013 32.4023 4.23336 32.3824 5.47472Z" fill="#F29477"/>
<path d="M31.72 9.8434C32.0291 10.7113 31.6951 11.1251 31.1466 11.3825C31.0319 11.438 30.633 11.2109 30.628 11.0948C30.5881 10.4288 31.0618 10.126 31.72 9.8434Z" fill="#EF7C5B"/>
<path d="M14.0132 13.6126C14.9855 14.2837 14.4171 15.2576 14.4919 16.1004C14.083 14.6319 12.6465 15.2634 11.5994 14.7891C12.2276 13.7748 13.35 14.1626 14.0132 13.6126Z" fill="#F1896B"/>
<path d="M20.8897 17.5281C20.5855 17.7401 20.2863 17.952 19.9822 18.1589C19.5234 18.4062 19.1495 19.0672 18.5162 18.4667C18.4913 18.174 18.4664 17.8864 18.4414 17.5937C20.2514 15.8528 20.4659 15.8478 20.8897 17.5281Z" fill="#DC5132"/>
<path d="M16.5415 19.2248C17.1498 19.6588 17.4789 20.6882 18.531 20.1988C18.3765 21.1828 17.6734 21.1828 16.9254 21.1071C16.5614 20.5621 15.9282 20.9002 15.4794 20.6529C15.4894 20.3249 15.4991 20.0008 15.5091 19.6728C15.8531 19.5214 16.1974 19.3712 16.5415 19.2248Z" fill="#F3997B"/>
<path d="M15.4794 20.6479C16.0628 20.4764 16.8257 19.7144 16.9254 21.1021C16.3919 21.1122 15.7836 21.3746 15.4794 20.6479Z" fill="#F9C0A8"/>
<path d="M18.5161 18.4726C19.0047 18.3717 19.4934 18.2657 19.982 18.1648C19.5482 19.603 18.6507 19.7695 17.449 19.1135C17.803 18.8965 18.162 18.6846 18.5161 18.4726Z" fill="#F3997B"/>
<path d="M19.4434 5.01347C19.4883 6.30025 19.6279 7.6072 18.4711 8.55588C18.7952 7.37508 17.6533 5.78049 19.4434 5.01347Z" fill="#F08361"/>
</svg>
