<svg width="47" height="39" viewBox="0 0 47 39" fill="none" xmlns="http://www.w3.org/2000/svg">
<path d="M44.6946 20.8503C43.0592 26.2403 40.6397 31.27 35.9491 34.5584C29.7361 38.91 22.7566 39.3727 15.6111 37.1793C8.63165 35.0353 4.75337 29.7442 2.07602 23.344C1.35194 21.6132 0.652578 19.8648 0.267577 18.014C-0.777932 12.9913 1.32721 9.18367 5.06773 6.13545C9.19678 2.77287 14.1347 1.28584 19.2951 0.476987C25.1408 -0.437833 30.9052 -0.137602 36.3871 2.26424C41.3002 4.41884 45.0019 7.71431 45.9556 13.3586C46.3017 15.4037 45.9591 17.304 45.1185 19.1584C44.5427 18.671 44.6487 17.9575 44.5074 17.3252C44.8889 14.1993 44.6522 11.197 42.752 8.5267C40.3713 5.45728 37.3019 3.41925 33.5543 2.39846C31.5198 1.71676 29.3935 1.54016 27.2919 1.23639C26.4194 1.21873 25.547 1.2258 24.6781 1.23286C23.7173 1.3035 22.7389 1.10217 21.7994 1.43419C19.998 1.59314 18.2002 1.79094 16.4447 2.22539C15.3215 2.47264 14.1877 2.69163 13.121 3.13668C10.0833 4.39058 6.97155 5.51026 4.6898 8.06046C3.53832 9.07417 2.71181 10.2751 2.08309 11.7091C0.93868 14.3229 1.06584 16.7813 2.43277 19.2361C2.74006 19.7906 3.16392 20.2993 3.2275 20.9668C3.2275 21.2247 3.11094 21.4331 2.95552 21.6238C2.80364 23.5488 4.13172 24.9546 4.70746 26.6218C4.84874 26.816 4.98649 27.0174 5.11718 27.2187C5.97902 28.7022 7.10224 29.9843 8.24664 31.2488C9.90321 32.6193 11.3761 34.237 13.4212 35.0847C13.9546 35.3179 14.5091 35.498 15.0495 35.7134C16.42 36.2715 17.8611 36.5647 19.3093 36.8119C29.2557 38.0552 36.5601 35.3355 41.2755 26.0813C42.1798 24.3047 42.9568 22.4645 43.7056 20.6101C44.2637 19.7129 44.4756 20.2957 44.6946 20.8503Z" fill="#D1C3AF"/>
<path d="M44.6946 20.8503C44.3944 20.8927 44.5075 20.1336 44.0342 20.515C43.1441 22.4506 41.7207 23.8706 39.8663 24.8913C38.1744 25.8274 36.5849 26.9541 34.7306 27.5758C32.6572 28.2963 30.6051 29.0804 28.4257 29.4337C26.9281 29.5396 25.4234 29.3559 23.9293 29.5643C23.7527 29.6314 23.5691 29.6738 23.3854 29.7056C21.7536 29.529 20.0193 29.9458 18.5323 28.8862C18.9808 27.929 19.8815 28.2716 20.6233 28.155C20.8211 28.148 21.0189 28.148 21.2167 28.148C23.177 28.208 25.1232 28.0597 27.0623 27.8124C27.5109 27.8053 27.9595 27.8124 28.3904 27.6605C28.6377 27.5899 28.8884 27.5334 29.1357 27.4839C29.8598 27.3356 30.5803 27.166 31.2903 26.947C32.0603 26.728 32.8126 26.4525 33.572 26.2088C34.0877 26.064 34.5858 25.8733 35.0591 25.619C35.3982 25.4494 35.7443 25.2975 36.0834 25.128C36.2847 25.015 36.4896 24.9055 36.6944 24.7995C37.7117 24.358 38.6194 23.7434 39.4954 23.0758C39.8875 22.8286 40.2654 22.5601 40.6504 22.3023C41.3604 21.8361 41.9149 21.2038 42.4801 20.5786C43.4973 19.6815 43.6245 18.1521 44.7689 17.3467C45.3411 17.8589 44.9949 18.5547 45.1221 19.1552C44.9808 19.7203 44.8394 20.2851 44.6946 20.8503Z" fill="#CEBEA4"/>
<path d="M34.8223 27.1938C38.2485 25.4525 41.6887 23.7359 44.0376 20.5146C41.0247 29.6063 35.9596 37.1403 24.7734 37.4865C22.9296 37.543 21.0929 37.709 19.2951 37.1297C17.914 36.1478 16.5153 35.2047 14.7351 35.1341C13.5766 35.2365 12.5311 34.968 11.6339 34.198C11.316 33.9261 10.9275 33.6435 11.0829 33.1914C11.2948 32.5768 11.7399 33.0112 12.1072 33.0536C12.5028 33.1031 12.3333 32.7675 12.3686 32.5733C12.3827 32.4143 12.4322 32.2695 12.5099 32.1318C12.7783 31.9163 13.3258 31.9198 13.1174 31.3406C13.241 30.7966 13.0432 30.3374 12.7889 29.8712C12.5205 29.3838 12.086 28.7692 12.9373 28.4725C13.5872 28.2464 14.2053 28.4937 14.3925 29.2495C14.4596 29.525 14.4525 29.8076 14.6821 30.016C14.8375 30.1785 15.0742 30.2456 15.1978 30.4469C15.0989 30.1785 14.781 30.1679 14.6221 29.963C14.449 28.801 15.3356 29.02 15.9431 29.0129C16.6177 29.0023 17.2994 29.1824 17.9352 28.8116C18.1895 28.7586 18.4226 28.7833 18.6134 28.9846C20.2558 29.1047 21.8947 29.2213 23.5372 29.3414C24.3531 29.8288 25.2149 29.7688 25.9885 29.5109C25.2326 29.578 24.3601 29.744 23.5407 29.3414C25.1478 28.6138 26.8468 29.1824 28.4927 28.9952C28.6164 29.2319 28.521 29.4367 28.4115 29.6451C28.6128 29.6911 28.574 29.4579 28.6976 29.4014C30.167 28.6879 31.8341 28.6102 33.3211 27.9638C33.8404 27.7378 34.4938 27.7837 34.8223 27.1938Z" fill="#E8DCC7"/>
<path d="M3.04035 21.2422C2.57058 20.3132 2.01957 19.4196 1.64163 18.4553C0.0451105 14.3934 1.08002 10.5575 4.46733 7.79538C6.65371 5.93395 9.10501 4.53876 11.8389 3.64866C12.2945 3.50031 12.6795 3.26366 12.955 2.861C13.8981 2.14045 15.0778 2.14045 16.1551 1.82256C18.0201 1.9709 19.7826 1.08081 21.6546 1.27154C21.8842 1.29627 22.0326 1.21856 21.7995 1.22916C21.7889 1.22916 21.7712 1.12319 21.7571 1.06668C22.6648 0.452091 23.675 0.854753 24.6358 0.773515C25.328 1.43049 26.3064 0.822964 27.0341 1.32099C27.6416 1.12673 26.0168 2.3665 27.3767 1.82256C28.3056 1.45168 28.8284 2.11572 28.9626 3.03761C28.9132 3.19302 28.7083 3.21774 28.6659 3.38375C28.8001 3.27073 28.9449 3.18242 29.1392 3.20008C29.6372 4.52816 28.3621 4.35156 27.8041 4.78954C25.6424 3.9171 23.4278 4.64472 21.2379 4.59174C20.7504 4.73656 20.3937 5.07564 20.0334 5.40766C19.0303 6.3578 17.7693 6.11409 16.5719 6.15294C15.703 6.1812 14.7741 6.06817 14.4844 7.22317C14.2937 7.76359 14.0041 8.20863 13.4177 8.38171C12.3863 8.62189 11.3656 8.64309 10.3095 8.43116C8.53633 8.08148 8.22904 8.32166 8.14074 10.0877C8.07716 11.3275 7.81225 12.3942 6.55128 12.9381C5.29385 12.9523 3.90572 12.7615 3.88453 14.676C3.87393 15.1634 3.881 15.6508 3.87393 16.1347C4.19889 17.159 2.60237 18.088 3.73618 19.1512C4.10352 20.066 4.62627 20.9596 4.17769 21.998C3.46067 22.2418 3.05801 22.0298 3.04035 21.2422Z" fill="#E8DDC9"/>
<path d="M44.7689 17.3499C44.179 18.6003 43.8364 20.0061 42.6214 20.8785C42.081 19.9955 42.7203 19.1937 42.858 18.3813C43.2324 16.1561 42.5825 14.4606 40.6328 13.288C40.3326 12.6345 40.4527 11.9069 40.276 11.2288C39.9758 10.0773 39.5555 9.19778 38.0685 9.26842C36.5567 9.33907 35.8503 8.22645 35.3064 6.97961C34.9673 6.20607 34.7094 5.21708 33.4661 5.648C33.293 5.69392 33.1164 5.72217 32.9398 5.74337C32.2263 5.79635 31.5128 5.8352 30.8135 5.64093C30.266 5.40428 29.4148 4.84974 29.6302 4.5601C30.0823 3.96318 30.2484 3.09781 31.0113 2.74813C31.4987 2.5256 32.0427 2.56799 32.2157 3.07661C32.5619 4.0868 33.3072 3.93139 34.0595 3.8996C34.1937 3.89253 34.2926 3.91373 34.3527 3.85368C34.3138 3.82896 34.275 3.80423 34.222 3.77597C33.9571 3.63469 33.7805 3.44042 33.6886 3.16138C33.7098 2.87881 33.8758 2.71987 34.1266 2.62803C36.857 3.11547 39.0186 4.64488 41.0461 6.41094C41.6995 6.97961 42.1763 7.74608 42.9817 8.14521C45.0303 10.9356 45.6908 13.9909 44.7689 17.3499Z" fill="#E8DDC9"/>
<path d="M12.6052 32.1744C12.6052 32.291 12.6052 32.4075 12.6052 32.5241C12.3296 32.7007 12.0577 32.6159 11.7892 32.5135C10.5636 32.0437 9.52161 30.9205 8.01693 31.4644C6.72064 30.2317 5.48793 28.9496 4.80976 27.2436C7.14449 25.6152 9.29909 26.41 11.3689 27.7804C12.4109 28.4692 12.3226 28.9672 11.1393 29.8326C11.0899 29.8291 11.0298 29.822 10.9733 29.8255C10.7932 29.8432 10.7932 29.8927 10.8709 30.0233C11.3442 30.8287 12.6546 30.9523 12.6052 32.1744Z" fill="#E7DCC8"/>
<path d="M34.1549 2.85385C34.0348 2.97041 33.9182 3.08697 33.7981 3.20353C33.7063 3.2671 33.618 3.33068 33.5262 3.39426C33.8123 3.6733 34.1337 3.75807 34.501 3.5638C34.9143 3.59912 35.3028 3.68389 35.6348 4.16073C34.7448 4.25963 33.9041 4.30908 33.0882 4.45743C32.4807 4.57046 32.2016 4.32321 32.0674 3.79339C31.9685 3.41898 32.0356 2.84678 31.4352 2.95274C31.0078 3.02692 30.8382 3.58499 30.5486 3.82871C29.8033 4.45743 30.1812 4.84949 30.6157 5.3228C29.4748 5.88794 28.5388 5.63363 27.7935 4.61991C27.9666 4.22784 28.2668 4.00885 28.6836 3.90642C29.1393 3.79339 29.2311 3.54967 28.8496 3.21412C28.4399 2.23572 27.8924 1.64586 26.741 2.29577C26.25 2.57481 25.6743 2.6949 25.1091 2.18627C25.6001 1.42334 26.6209 2.16155 27.08 1.46219C27.2037 1.2326 28.009 1.35269 27.4368 0.769893C29.5631 1.21494 31.8307 1.00654 33.8123 2.13329C33.8335 2.41939 34.3809 2.45472 34.1549 2.85385Z" fill="#ECE1D0"/>
<path d="M10.8427 29.6982C11.9624 29.2037 12.1885 28.7904 10.984 27.9568C9.0025 26.5899 6.96446 26.65 4.8134 27.2433C4.70391 27.1233 4.59088 27.0032 4.48138 26.8831C4.72157 25.7987 5.62579 25.3784 6.4735 24.898C7.78392 25.0464 8.87181 25.7599 10.0092 26.3321C11.2136 26.9361 12.4534 27.4094 13.7815 27.646C15.1307 28.1723 16.7873 27.7696 17.907 29.0023C17.7162 30.1574 16.9039 29.4085 16.3988 29.4439C15.7559 29.4898 14.9753 28.9635 14.7316 30.0549C14.3749 30.0267 13.8309 29.9384 13.9227 29.5851C14.2689 28.25 13.2587 28.9953 12.8702 28.6138C12.6936 29.7618 14.4702 30.3587 13.3188 31.4678C12.1108 31.4007 11.1253 31.0404 10.8427 29.6982Z" fill="#EDE2CF"/>
<path d="M13.6402 27.95C11.9977 27.9783 10.6697 27.0952 9.26034 26.4453C8.26429 25.9861 7.26469 25.5376 6.26864 25.0854C4.57675 24.4285 2.92018 23.7397 2.71532 21.578C2.82482 21.465 2.93431 21.352 3.04381 21.239C3.26986 21.6734 3.60541 21.9348 4.11404 21.9277C4.50611 21.956 4.79927 22.2068 5.12423 22.3869C5.77414 22.7825 6.24744 23.39 6.8585 23.8351C7.62497 24.3649 8.50094 24.6934 9.29213 25.1843C10.0763 25.5941 10.9346 25.806 11.7646 26.085C12.5629 26.3605 13.3682 26.6113 14.1453 26.9504C14.5267 27.1659 15.0283 27.2294 15.1519 27.7628C14.7104 28.3456 14.1735 28.1301 13.6402 27.95Z" fill="#CCBEA6"/>
<path d="M8.01693 31.4644C9.73354 31.3726 8.01342 30.5775 8.43728 29.9699C9.71944 30.966 11.1146 31.8318 12.6052 32.5241C12.7782 32.9373 12.9478 33.3466 13.1209 33.7599C12.2343 34.1979 12.0153 33.1736 11.1005 33.1276C12.0966 34.5617 13.2657 34.9255 14.7245 34.6429C14.9223 34.8337 14.9399 35.0562 14.8375 35.2964C14.3324 35.5436 13.8167 35.5754 13.2904 35.367C11.1005 34.6465 9.59932 32.9974 8.01693 31.4644Z" fill="#EBE0CF"/>
<path d="M2.7155 21.5811C3.34422 23.3154 5.0679 23.937 6.26882 25.0885C5.98978 26.0069 4.91955 26.1305 4.47803 26.8828C3.41486 25.3499 2.95922 23.5344 2.17509 21.8707C1.86426 21.2102 2.44353 21.5246 2.7155 21.5811Z" fill="#E7DCC8"/>
<path d="M14.7246 35.3498C14.7246 35.1131 14.7245 34.8796 14.7245 34.6429C16.7272 34.4275 17.9776 36.3494 19.8709 36.4659C20.1464 36.4836 20.3265 36.7344 20.1075 36.9216C19.9203 37.0841 19.5741 37.0661 19.2951 37.1297C17.6844 37.1403 16.1904 36.6673 14.7246 36.0527C14.5268 35.8196 14.7034 35.5829 14.7246 35.3498Z" fill="#EBE0CF"/>
<path d="M34.1549 2.85385C34.2043 2.53595 33.4096 2.62111 33.8122 2.13721C37.6305 2.98492 40.601 5.12539 42.9887 8.15242C42.0174 8.382 41.809 7.43893 41.318 6.99741C39.2129 5.10773 36.9064 3.60619 34.1549 2.85385Z" fill="#F4EFE4"/>
<path d="M12.9548 2.85743C13.1138 3.82877 12.2731 3.99124 11.7151 4.13253C9.1119 4.79657 6.88666 6.09992 4.90161 7.86598C4.8345 7.92603 4.61904 7.82007 4.47069 7.79181C6.69239 5.1074 9.81126 3.96299 12.9548 2.85743Z" fill="#EEE6D8"/>
<path d="M21.7534 1.06354C21.9795 1.0918 22.209 1.12006 22.4987 1.15538C20.828 1.65694 16.932 2.05607 16.155 1.81942C17.9952 1.36731 19.8496 1.02822 21.7534 1.06354Z" fill="#F0E8DA"/>
<path d="M27.4368 0.769893C27.5745 0.942967 27.7156 1.11612 27.8534 1.2892C27.5955 1.34571 27.3379 1.40567 27.08 1.46219C26.2747 1.19728 25.1584 2.01681 24.6321 0.766443C25.5681 0.769975 26.5008 0.769893 27.4368 0.769893Z" fill="#F3EDE3"/>
<path d="M14.7246 35.3498C15.1202 35.5829 14.7529 35.8195 14.7281 36.0527C14.2513 35.8231 13.7709 35.597 13.2941 35.3674C13.7674 35.3356 14.2407 35.0072 14.7246 35.3498Z" fill="#E8DCC7"/>
<path d="M36.6166 25.1239C36.4965 25.2299 36.38 25.3358 36.2599 25.4418C35.7053 24.972 35.9667 24.1808 35.5499 23.6545C34.2501 22.7715 32.8761 22.0686 31.2937 21.8567C31.0429 21.7507 30.8628 21.5741 30.7604 21.3198C30.665 20.9631 30.7533 20.6416 30.9546 20.3449C31.1948 19.9705 31.6187 19.5749 31.2089 19.137C30.7886 18.6884 30.2517 18.9109 29.7961 19.1758C29.2839 19.4725 29.012 19.9882 28.7153 20.4756C28.0618 21.3481 28.4857 22.549 27.8216 23.4179C27.6486 23.5027 27.4684 23.5203 27.2777 23.4779C26.105 22.39 26.8114 21.235 27.1541 20.0942C27.9488 19.4619 28.2985 18.3564 29.2062 18.0349C28.7682 18.6742 27.2 18.2998 27.3978 19.8257C26.6914 20.1012 26.271 19.4937 25.7271 19.2712C25.5081 20.5392 26.2569 21.9238 25.2079 23.0611C23.735 22.058 22.6118 23.3367 21.3402 23.6581C20.9834 23.6757 20.5914 23.6545 20.4254 23.3225C20.217 22.9093 20.6232 22.7256 20.8951 22.5455C21.3225 22.2594 21.7782 22.0121 22.1914 21.7083C22.3928 21.5459 22.6012 21.3905 22.8166 21.2421C23.35 20.8995 23.8904 20.8182 24.4273 21.1679C24.0599 20.3343 23.5478 19.522 23.6926 18.5188C23.8339 17.3391 24.5332 16.8552 25.6812 16.8481C26.709 16.8446 27.7439 16.8976 28.7541 16.6256C29.4429 16.4031 30.1493 16.4667 30.8522 16.5126C31.8977 16.608 32.6394 15.9474 33.4483 15.4565C33.8121 15.4176 34.07 15.5872 34.2713 15.8697C34.5256 16.7634 33.9039 17.9113 35.0519 18.5436C35.776 19.3913 36.8074 19.9458 37.3548 20.9595C37.6091 21.4752 38.0895 21.447 38.5593 21.4505C39.0644 21.4505 39.5765 21.3975 40.064 21.5282C40.5938 21.6695 41.2472 21.7755 40.8516 22.6126C40.4949 22.8492 40.1346 23.0823 39.7779 23.319C38.0683 22.768 36.991 23.3261 36.6166 25.1239Z" fill="#F7DE9E"/>
<path d="M40.855 22.6197C40.1875 21.2315 38.9265 22.2417 37.9975 21.9062C38.1282 20.9914 38.9336 21.1892 39.481 21.0655C41.6533 20.5816 41.7451 20.352 40.2934 18.6248C40.1839 18.0385 39.6859 18.1339 39.2868 18.0491C38.6969 17.1908 37.2452 17.4698 36.9273 16.2548C37.1251 16.0605 37.3724 16.0817 37.6161 16.0888C38.704 15.5519 39.647 15.7991 40.523 16.5762C40.9363 16.9435 41.4096 17.2014 41.9253 16.7281C42.2467 16.4314 42.4268 16.0499 42.2785 15.6225C42.0842 15.0645 41.618 14.8172 41.0564 14.7678C39.7353 14.6547 38.7252 15.3894 37.6726 16.0181C37.3759 16.0393 37.2205 15.8804 37.1498 15.6119C37.1392 15.4353 37.164 15.2622 37.2417 15.1033C37.5702 14.4428 38.1847 13.7328 37.2876 13.1183C36.4646 12.5531 35.7546 12.818 35.2849 13.7152C35.1648 13.9412 34.914 13.9624 34.6703 13.9306C33.5435 12.2635 33.653 12.0374 36.0725 11.0837C37.7008 10.9142 38.4814 12.0939 39.3892 13.2913C39.0183 12.2882 39.0077 11.4935 39.8519 10.893C40.961 11.2745 40.2616 12.4825 40.8586 13.0935C44.1011 14.69 43.7902 16.4208 42.6176 20.8748C42.1655 21.5918 41.5862 22.1852 40.855 22.6197Z" fill="#F3DDA4"/>
<path d="M30.9687 21.2214C31.0817 21.338 31.1947 21.4545 31.3077 21.5711C31.4879 23.1252 32.4168 24.0365 33.8473 24.5133C34.3454 24.9195 35.02 25.1456 35.2284 25.852C34.8363 26.2441 34.363 26.4666 33.8085 26.5019C33.7308 26.4136 33.646 26.3324 33.5577 26.2547C32.9254 25.7213 32.2049 24.9866 31.4031 25.3681C30.5837 25.7566 31.6398 26.622 31.3254 27.2649C30.6543 27.6958 29.8772 27.7558 29.1178 27.8724C28.754 27.5686 28.2277 27.6428 27.8674 27.332C27.6944 27.1236 27.6485 26.9152 27.8674 26.7068C29.0436 26.4136 29.7359 25.9756 29.2944 24.478C28.9271 23.2312 29.3192 21.9631 30.5059 21.1296C30.679 21.0731 30.8309 21.1084 30.9687 21.2214Z" fill="#F8E4AC"/>
<path d="M27.3626 28.2323C25.2857 28.5679 23.2017 28.7409 21.0966 28.5785C20.7187 27.2327 21.7995 26.8724 22.6154 26.332C23.1382 26.2119 23.6998 26.5192 24.2049 26.1731C24.4238 26.0495 24.6499 25.9576 24.9042 25.9294C26.0804 26.3144 27.624 26.3144 27.3626 28.2323Z" fill="#FCF8E5"/>
<path d="M31.3291 27.2648C31.0324 26.5125 30.0222 25.64 30.7463 25.0078C31.6576 24.2131 32.6678 25.0855 33.5508 25.6577C33.9252 25.9014 33.9994 26.1345 33.8122 26.5019C33.0104 26.848 32.2192 27.2189 31.3291 27.2648Z" fill="#FDF9EA"/>
<path d="M34.8223 27.1938C34.953 28.7091 33.4801 27.9109 32.9079 28.4831C32.6041 28.7869 31.8836 28.6138 31.4067 28.8045C30.1634 29.2955 28.4468 29.0412 28.1219 31.111C27.6521 30.1008 28.3091 29.6134 28.4998 28.9953C30.6049 28.3948 32.7136 27.7943 34.8223 27.1938Z" fill="#F0E5D2"/>
<path d="M36.6166 25.1239C36.8109 24.3327 36.1612 23.2061 37.0901 22.7822C37.9449 22.3901 39.0222 22.4714 39.7816 23.3262C38.8173 24.0856 37.8776 24.8873 36.6166 25.1239Z" fill="#FBF4D5"/>
<path d="M35.232 25.8517C34.7199 25.5373 34.0806 25.389 33.7839 24.7815C33.8651 23.3721 34.6846 23.0472 35.9173 23.3333C36.4965 23.962 36.1539 24.7389 36.2599 25.4418C35.9173 25.5795 35.5746 25.7139 35.232 25.8517Z" fill="#FEF9DD"/>
<path d="M13.6402 27.95C14.1241 27.8723 14.675 28.0949 15.0635 27.6181C15.4732 27.166 15.9501 27.4415 16.4022 27.4945C16.5505 27.5192 16.6989 27.5616 16.8402 27.6075C17.2428 27.8194 17.6808 27.7912 18.1188 27.777C18.91 27.9289 19.7083 27.77 20.503 27.8088C20.8703 27.996 20.9904 28.2609 20.7502 28.6283C20.0438 28.7696 19.242 28.3528 18.6168 28.985C18.3766 28.9921 18.1365 28.9956 17.8963 29.0027C16.5117 28.5223 14.9859 28.5999 13.6402 27.95Z" fill="#D5C7AE"/>
<path d="M27.3626 28.2323C27.0941 26.6782 25.7165 26.6183 24.611 26.1839C24.4414 25.7918 24.6533 25.5552 24.95 25.3538C25.388 25.2514 25.773 25.4315 26.1651 25.5693C26.7726 25.9154 27.6945 25.8554 27.8111 26.8373C27.9312 26.968 28.0477 27.0987 28.1678 27.2294C28.3762 27.4378 28.514 27.6744 28.514 27.9782C28.1925 28.3455 27.7723 28.2747 27.3626 28.2323Z" fill="#F9E29D"/>
<path d="M20.754 28.6283C20.6481 28.4022 20.5421 28.1762 20.4361 27.9537C20.0829 27.226 20.7505 27.007 21.0931 26.6256C21.5841 26.2794 21.856 25.5977 22.5978 25.626C22.7567 25.6648 22.8839 25.7531 22.9828 25.8803C23.064 26.124 23.0605 26.3465 22.8238 26.5126C22.0856 27.0671 21.2944 27.5793 21.0966 28.5859C20.9836 28.6071 20.8706 28.6248 20.754 28.6283Z" fill="#F9E5A5"/>
<path d="M28.5138 27.9813C28.2418 27.8047 28.1712 27.5363 28.1676 27.2325C28.6304 27.2325 28.9871 27.3879 29.1213 27.8718C28.92 27.9072 28.7151 27.946 28.5138 27.9813Z" fill="#FEFBEB"/>
<path d="M27.7935 33.2307C26.7586 33.1318 25.978 33.8841 24.989 34.0713C23.6079 34.3362 22.5236 34.4316 21.6229 32.8986C23.6397 32.8633 25.8544 33.7711 27.405 32.549C29.1887 31.1396 31.4598 31.8249 33.1729 30.5639C32.8374 31.2739 32.3252 31.786 31.6753 32.171C31.5976 32.1746 31.5163 32.1816 31.4386 32.1852C30.2271 32.2876 29.1781 32.9198 28.0337 33.2377C27.9524 33.2377 27.8747 33.2342 27.7935 33.2307Z" fill="#F1E8D7"/>
<path d="M10.8427 29.6982C11.3372 30.7472 12.4359 30.9518 13.3119 31.4675C13.711 32.3364 13.0467 32.1426 12.6052 32.1744C11.7433 31.1783 10.3767 30.5986 10.0376 29.1257C10.5285 29.0727 10.6767 29.3979 10.8427 29.6982Z" fill="#F4ECDB"/>
<path d="M31.6753 32.171C30.7887 33.598 29.2486 33.7251 27.8463 33.8841C26.8785 33.9936 27.8394 33.4638 27.7935 33.2307L27.7898 33.2306C29.1143 32.9798 30.2024 31.8673 31.6753 32.171Z" fill="#F1E8D7"/>
<path d="M23.5442 29.3415C24.7027 29.3415 25.8612 29.3415 27.0198 29.3415C25.8612 29.451 24.6532 31.2347 23.5442 29.3415Z" fill="#F1E6D4"/>
<path d="M21.6017 34.7247C20.2983 34.806 19.6131 34.4669 18.783 34.0572C19.7579 33.8382 20.5208 33.8841 21.6017 34.7247Z" fill="#F1E9DA"/>
<path d="M14.5621 29.9492C15.5122 30.2495 16.1233 30.4261 16.5083 31.2808C15.4522 31.3126 15.1519 30.5815 14.5621 29.9492Z" fill="#EDE2CF"/>
<path d="M32.6183 33.8662C32.6854 33.3187 32.9751 33.082 33.3813 33.0043C33.5755 32.9655 33.7098 33.1244 33.6603 33.3152C33.5473 33.7708 33.2188 33.9298 32.6183 33.8662Z" fill="#F5F1E6"/>
<path d="M4.85581 22.6412C4.492 22.5211 4.26241 22.2668 4.11053 21.9277C3.88094 20.9847 3.65136 20.0451 3.42177 19.102C2.8319 18.1766 3.95865 17.3713 3.60191 16.46C3.59837 16.188 3.66195 15.9478 3.95159 15.8419C5.48806 17.1947 5.68586 17.1488 6.65013 15.2273C6.85146 14.8211 6.92563 14.3372 7.36715 14.0758C7.77688 14.1005 7.90403 14.4008 8.00293 14.7293C8.16894 15.3862 7.94289 16.1068 8.33848 16.8697C9.63124 16.1068 9.97386 14.7893 10.5955 13.6732C11.196 12.4546 12.192 11.6881 13.4212 11.183C14.3537 10.2964 15.7242 10.8015 16.7273 10.1375C16.9639 10.0457 17.2041 10.0351 17.4408 10.1269C17.8116 10.2788 17.4726 11.2042 18.2743 10.8898C18.4969 10.9923 18.6523 11.1583 18.7441 11.3843C18.8148 12.059 18.6876 12.7407 19.1503 13.3729C19.9097 14.4149 19.2669 14.6586 18.3203 14.6516C17.8116 14.701 17.6704 15.139 17.4443 15.4851C17.2571 15.7465 17.0558 15.9832 16.7061 16.0185C16.4376 15.9373 16.3211 15.7359 16.2858 15.4745C16.2999 14.8282 16.7026 14.2666 16.7026 13.6202C16.7061 12.6206 16.0314 12.0343 15.1625 12.278C14.9365 12.3415 14.5868 12.5393 14.6822 12.6771C15.6429 14.0476 13.5236 15.3898 14.6645 16.7567C14.774 16.8874 14.5727 17.1876 14.4173 17.3713C13.7108 17.4949 13.6649 16.8379 13.3612 16.4847C12.9161 15.8984 12.7218 15.1143 11.9059 14.7045C11.1536 16.3399 11.8529 17.4631 13.0397 18.4451C13.0044 18.8724 12.6971 18.9819 12.3439 19.0279C11.7964 18.9819 11.2525 18.9184 10.8251 18.2473C11.0618 19.9886 11.7364 21.405 12.4393 22.8108C12.4499 22.9803 12.4216 23.1428 12.3474 23.2947C12.026 23.5596 11.7293 23.383 11.4256 23.2558C10.9911 23.2523 10.4224 22.1361 10.1575 23.4254C10.1928 24.0329 10.2564 24.6404 9.8467 25.1632C9.59945 25.3186 9.34161 25.3398 9.0767 25.2091C8.46211 24.5062 8.54688 23.5313 8.13009 22.7542C7.89344 21.9242 7.89697 21.1401 8.59986 20.5043C9.05197 20.0946 9.43697 19.6177 9.22858 18.9819C8.94954 18.1342 8.23252 18.7064 7.72036 18.6005C7.55082 18.5652 7.38834 18.5016 7.13756 18.4627C7.36362 19.374 7.87224 20.3171 6.16976 20.3948C4.9971 20.4513 5.53751 22.0125 4.85581 22.6412Z" fill="#F8E0A2"/>
<path d="M7.68493 14.9059C7.57191 14.6587 7.46241 14.415 7.34938 14.1677C6.07782 13.5849 5.32901 14.5068 4.52015 15.1885C4.31882 15.358 4.35061 15.736 4.10689 15.9302C3.99387 16.0503 3.88084 16.1704 3.76428 16.294C3.64419 16.4459 3.53116 16.4389 3.42519 16.2799C3.42519 15.6936 3.42519 15.1073 3.42519 14.5209C3.86318 13.1328 5.13474 13.0692 6.24383 12.7513C7.36351 12.165 7.72026 11.2466 7.692 9.98921C7.64608 7.89819 8.25007 7.38603 10.2493 7.94411C11.3018 8.23727 12.3226 7.92998 13.3328 8.16663C15.0812 7.83461 15.0812 7.83461 16.0137 6.9869C15.3143 6.67961 14.7068 7.46374 14.018 7.13878C14.1805 5.8213 15.1024 5.69061 16.1868 5.66589C17.4936 5.63763 18.8959 6.04029 20.0262 4.98419C20.3405 4.84644 20.4536 5.04777 20.5489 5.28795C20.6019 5.70827 20.3617 6.25929 21.0046 6.4253C21.6192 6.58071 21.9441 6.15332 22.2479 5.7224C22.6611 5.27736 22.7212 4.12942 23.7738 4.94887C23.7985 5.75419 24.0104 6.37938 24.9959 6.4041C25.335 6.41117 25.6528 6.58071 25.7588 6.96924C25.6811 7.33305 25.3879 7.4814 25.1018 7.64388C24.6568 7.83108 24.1976 7.9653 23.7102 7.97236C23.4806 7.94764 23.2616 7.86993 23.0391 7.81695C22.0465 7.78516 22.0183 8.84833 21.4143 9.24393C21.3543 9.3393 21.1988 9.3393 21.1706 9.47705C21.2695 9.36755 21.3931 9.28985 21.5097 9.18388C21.983 9.05673 22.3326 9.23687 22.6152 9.59714C22.6753 9.77022 22.6823 9.94682 22.6329 10.1234C21.9194 11.0347 20.9551 11.1018 19.9167 10.9393C19.3586 10.7486 19.0654 10.3142 18.8641 9.79494C18.8182 9.62893 18.8111 9.45939 18.8464 9.28985C18.9171 8.61521 20.3193 8.34677 19.6376 7.60856C18.8712 6.77851 18.0164 7.54498 17.3206 8.07833C16.547 8.67173 15.2154 9.18742 16.8437 10.3106C16.7095 11.176 16.0207 11.0135 15.4803 10.9782C14.7315 10.9288 14.1205 11.1336 13.6118 11.6705C13.3964 11.4268 12.9584 11.6105 12.803 11.2502C12.7253 11.0029 12.7571 10.7733 12.916 10.5685C13.075 10.3565 13.9862 10.2718 13.1597 9.87971C12.04 9.34636 10.8674 8.82361 9.55343 9.01434C8.98475 9.21567 8.63861 9.67838 8.91765 10.1835C9.33797 10.9464 9.88545 10.127 10.387 10.1305C10.5566 10.1022 10.7226 10.1199 10.885 10.1764C11.1782 10.3848 11.3619 10.6426 11.2488 11.0241C9.95609 11.8365 8.84347 12.8114 8.38076 14.3408C8.23948 14.6375 8.11232 14.9589 7.68493 14.9059Z" fill="#F4E0AC"/>
<path d="M23.5654 4.99427C22.5553 4.68344 23.078 5.89496 22.527 6.03978C21.9901 5.59826 21.7323 4.91303 21.1848 4.47858C21.1495 4.40794 21.1141 4.34083 21.0824 4.27019C23.3253 4.25606 25.6317 3.08339 27.7934 4.61633C28.6941 5.01193 29.6407 5.23092 30.6156 5.31923C31.4421 5.32276 32.2651 5.32982 33.0916 5.33335C32.6571 6.62611 31.5304 6.11395 30.6615 6.27996C30.1317 6.22698 29.8738 6.60492 29.6018 6.96166C29.2769 7.25836 28.9166 7.39965 28.4857 7.20538C27.3801 5.28744 25.4693 5.15322 23.5654 4.99427Z" fill="#F1DFB7"/>
<path d="M14.018 7.13496C14.9328 6.65106 15.8123 5.94463 17.0485 6.79587C15.9288 7.75661 15.06 9.03907 13.3328 8.16663C13.7637 7.95824 14.0144 7.62946 14.018 7.13496Z" fill="#FDF7DA"/>
<path d="M6.24383 12.7473C5.49855 13.648 4.12809 13.5526 3.42519 14.5169C3.81726 12.5919 4.4919 12.1681 6.24383 12.7473Z" fill="#E9DABC"/>
<path d="M3.42544 16.2761C3.53847 16.2796 3.65149 16.2831 3.76452 16.2902C3.85636 17.2544 3.70448 18.1869 3.42544 19.1017C2.96273 18.6461 1.60993 18.3741 3.16053 17.5335C3.60204 17.2968 3.37599 16.7105 3.42544 16.2761Z" fill="#E9DABC"/>
<path d="M20.3689 5.31579C20.2523 5.20276 20.1393 5.09327 20.0227 4.98024C20.217 4.51047 20.5702 4.27381 21.0788 4.27028V4.27381C21.2201 4.87781 21.1707 5.35464 20.3689 5.31579Z" fill="#F1DFB7"/>
<path d="M28.8036 3.27093C28.4009 3.57469 28.0547 3.70538 27.6768 3.3663C27.9982 2.6634 28.4821 3.37689 28.8036 3.27093Z" fill="#ECE1D0"/>
<path d="M28.5209 7.10711C28.8706 6.97995 29.2203 6.85633 29.5699 6.72917C29.8278 6.37596 30.2764 6.31238 30.5978 6.05454C31.4031 5.72958 32.3745 5.9839 33.0915 5.34105C33.208 5.33752 33.3246 5.33398 33.4412 5.33398C33.7979 5.1821 33.8615 5.40816 33.8897 5.68013C33.865 5.73311 33.8544 5.79669 33.8156 5.83201C32.1025 7.42147 32.1025 7.42147 34.1476 8.92615C34.9211 9.39593 36.0832 8.71776 36.6589 9.77033C36.3269 10.4202 35.6381 10.2896 35.0977 10.4803C34.9352 10.5191 34.7692 10.5368 34.6032 10.5368C34.2712 10.5227 33.9674 10.4061 33.6778 10.2613C33.261 10.0458 32.9113 9.73501 32.5687 9.41712C32.2897 9.15574 31.9895 8.92615 31.6504 8.74248C30.287 8.37161 27.8851 9.71382 27.6732 10.9713C27.5849 11.2291 27.4259 11.3986 27.1469 11.441C26.8891 11.3951 26.6807 11.2644 26.497 11.0913C25.7129 9.87983 24.7345 9.2829 23.2969 10.0388C23.0355 10.1765 22.7388 10.173 22.4951 9.93987C22.4951 9.81625 22.4951 9.69263 22.4951 9.57253C21.877 8.55528 22.1419 7.85592 23.251 7.45679C23.3605 7.58042 23.4664 7.70404 23.5759 7.8312C24.0846 7.83826 24.8334 8.65065 24.9747 7.41794C25.2184 7.30491 25.4656 7.18835 25.7093 7.07532C26.6489 6.7539 27.5778 7.55216 28.5209 7.10711Z" fill="#F5DDA1"/>
<path d="M36.6238 9.87272C35.8008 9.13098 34.6034 10.0317 33.7946 9.22634C35.2851 8.04308 34.3385 6.85982 33.791 5.67656C33.6745 5.56 33.5579 5.44344 33.4413 5.32688C34.5328 4.47211 35.0873 5.22445 35.3981 6.10395C36.0375 7.91593 36.9028 9.17336 39.1669 8.92611C40.2583 8.80602 40.2937 10.0564 40.6327 10.837C40.9506 11.5752 40.8235 12.3346 40.8623 13.0905C40.0499 12.6207 40.3961 11.5823 39.831 10.9924C39.6791 10.9288 39.5519 10.8335 39.4389 10.7134C38.7784 9.60075 37.6693 10.2824 36.7863 10.0529C36.7333 9.99635 36.6768 9.9363 36.6238 9.87272Z" fill="#F1DFB9"/>
<path d="M34.501 3.56768C33.6498 4.30236 33.0847 3.77961 32.4524 3.218C32.9964 2.63167 33.3849 3.09084 33.7982 3.21093C34.0313 3.32749 34.2679 3.44759 34.501 3.56768Z" fill="#F5EEDF"/>
<path d="M4.85581 22.6412C4.87347 21.7829 4.59791 20.9031 5.33259 20.1437C5.87653 19.5821 6.34631 19.4373 6.9397 20.059C7.24346 19.1689 6.35337 18.4836 6.70305 17.65C7.29645 17.5511 7.39888 18.5896 8.17595 18.2046C8.57861 18.0068 9.38393 17.4381 9.63471 18.3459C9.83604 19.0664 10.1928 20.0766 9.23558 20.5535C8.25365 21.0409 8.34196 21.8074 8.37728 22.6268C7.9075 23.2414 7.13397 23.4675 6.60415 24.0079C6.02488 23.5558 5.43861 23.1004 4.85581 22.6412Z" fill="#FDF7DE"/>
<path d="M13.997 27.2471C13.1847 26.9928 12.3723 26.7385 11.5599 26.4842C11.1431 25.8696 11.6129 25.6153 12.0473 25.4634C12.8209 25.1949 13.5379 24.8029 14.3043 24.5203C14.5798 24.4391 14.8624 24.4179 15.1485 24.4567C16.685 25.2868 16.7097 25.4351 15.5971 27.0528C15.0885 27.3425 14.5763 27.565 13.997 27.2471Z" fill="#FDFAE9"/>
<path d="M14.375 24.7606C13.718 25.7955 12.1391 25.3222 11.5598 26.4878C10.7581 26.0781 9.77966 26.0922 9.07677 25.4458C8.96374 25.3681 8.92842 25.2904 8.96727 25.2162C9.00612 25.142 9.04851 25.1067 9.08736 25.1067C9.31342 25.1067 9.53948 25.1067 9.76906 25.1067C10.8852 24.6334 12.4393 25.3222 13.1634 23.821C13.3824 23.1994 13.6438 22.6272 14.4809 22.8108C15.3533 23.5067 14.8271 24.1319 14.375 24.7606Z" fill="#F9E9BB"/>
<path d="M9.08715 25.1029C9.07655 25.2159 9.07323 25.3293 9.07677 25.4458C8.23612 24.9972 7.25751 24.7886 6.6076 24.0115C6.52989 22.694 7.64957 22.913 8.38072 22.6304C9.16839 23.298 9.00238 24.234 9.08715 25.1029Z" fill="#FCF9EA"/>
<path d="M13.997 27.2471C14.5021 27.2612 14.9755 27.1553 15.3958 26.8586C15.7031 26.8692 16.0033 26.9151 16.2541 27.1129C16.4696 27.339 16.685 27.5686 16.4943 27.9147C16.0174 27.8158 15.5441 27.7169 15.0673 27.6145C14.6858 27.565 14.2655 27.618 13.997 27.2471Z" fill="#F6EBCA"/>
<path d="M36.924 16.3048C37.6305 17.0818 39.227 16.5591 39.4566 18.032C39.7179 19.5685 39.1457 20.229 37.7965 19.844C36.7933 19.5579 35.8679 19.021 34.8436 18.7737C33.24 18.1556 33.9111 17.0006 34.1725 15.941C34.4445 15.6195 34.8048 15.6054 35.1827 15.6443C35.7761 15.8385 36.4719 15.7538 36.924 16.3048Z" fill="#FEFBE8"/>
<path d="M26.0167 25.8267C25.6671 25.6996 25.3209 25.5689 24.9712 25.4417C24.4732 24.9932 24.5403 24.3644 24.4379 23.7852C24.4485 23.4108 24.5898 23.1211 24.9642 22.9869C25.7236 21.454 25.1867 19.8787 25.0419 18.1373C26.0238 18.6106 26.4688 19.6208 27.4366 19.8221L27.4261 19.8115C27.6344 21.0019 26.4971 22.1851 27.3978 23.379C27.7016 23.5203 27.9665 23.6898 27.8923 24.0925C27.4331 24.8448 26.8998 25.523 26.0167 25.8267Z" fill="#FEF9DE"/>
<path d="M22.4777 21.9349C21.9691 22.2846 21.471 22.6519 20.9447 22.9734C20.7081 23.1182 20.4962 23.1853 20.9236 23.316C21.0825 23.3654 21.2626 23.3513 21.4322 23.3654C21.4392 24.1319 20.7999 24.0754 20.3302 24.2414C19.6273 24.2343 18.9385 24.1213 18.2497 23.98C17.2078 23.5809 15.7949 23.708 15.5724 22.1221C15.6112 21.9314 15.696 21.7654 15.8232 21.6206C17.3455 20.6457 18.995 20.1653 20.7893 20.5751C21.524 20.7411 22.2092 21.1225 22.4777 21.9349Z" fill="#FEF8DC"/>
<path d="M27.0871 11.3348C27.2142 11.2077 27.3414 11.077 27.4685 10.9498C27.6239 10.8615 27.7829 10.8545 27.9454 10.9145C28.7295 11.3843 29.3264 12.0872 30.0611 12.6311C30.9159 13.2634 31.255 12.9667 31.3998 12.066C31.6541 11.3596 31.6541 10.5542 32.2192 9.9679C32.3676 9.86194 32.5265 9.84074 32.6961 9.90432C33.1129 10.2752 33.0493 10.752 32.9468 11.2077C32.6643 12.4722 32.8762 13.6378 33.5473 14.7363C33.5049 15.0118 33.3495 15.2025 33.1058 15.3261C31.8625 15.2237 30.8205 14.4784 29.6267 14.21C29.6443 15.3403 30.7781 15.9372 30.9618 16.9898C30.3719 17.0922 29.7856 16.5977 29.1957 16.9827C28.7648 15.9866 27.7299 15.7147 26.9599 15.1213C26.8999 14.9729 26.8716 14.8175 26.8822 14.6586C26.9811 14.1923 27.3343 13.8462 27.4615 13.3941C27.7264 12.6347 26.8116 12.0907 27.0871 11.3348Z" fill="#FAE8B7"/>
<path d="M27.087 14.8206C27.8287 15.5023 29.6161 15.1672 29.1957 16.9827C28.2915 17.5514 27.2848 17.3708 26.3205 17.2931C25.1161 17.2013 24.1624 17.3744 23.9434 18.7872C23.8763 18.7272 23.8057 18.6671 23.735 18.6071C23.4242 16.3394 24.1483 15.2092 26.2958 14.6264C26.5854 14.591 26.8503 14.6546 27.087 14.8206Z" fill="#FEFAE1"/>
<path d="M30.9653 16.9894C29.5595 16.5656 29.7538 14.7924 28.5917 14.1531C28.5458 14.1284 28.5917 13.8105 28.68 13.6904C28.8849 13.4043 29.1992 13.4432 29.4571 13.5915C30.6086 14.2556 32.0355 14.3191 33.0704 15.2375C33.2788 15.2587 33.3989 15.3788 33.4484 15.573C32.9821 16.6786 32.0073 16.8976 30.9653 16.9894Z" fill="#FEFAE5"/>
<path d="M35.9173 23.3333C35.0166 23.5346 34.1936 23.8525 33.7839 24.7815C31.1348 23.856 30.9475 23.6126 31.3077 21.5711C33.1268 21.4263 34.4691 22.5174 35.9173 23.3333Z" fill="#FFFCED"/>
<path d="M40.4736 18.445C41.0211 18.9748 42.0631 19.1408 41.83 20.2393C41.5933 21.3661 40.6856 21.2813 39.8167 21.4367C39.2162 21.5427 38.5026 21.3834 37.9975 21.9062C37.5101 21.8991 36.9804 21.963 36.9804 21.2283C37.9588 20.0698 39.308 19.3704 40.4736 18.445Z" fill="#FEFCED"/>
<path d="M22.4777 21.9349C20.2454 20.0947 18.013 20.9953 15.7807 21.9348C15.3568 21.0094 14.4844 20.3913 14.0747 19.4553C14.1135 18.989 13.8769 18.3215 14.774 18.4592C15.2509 19.1904 15.8725 19.6778 16.7979 19.6354C17.0028 19.7272 17.1582 19.8721 17.2712 20.0628C18.8254 20.2712 19.998 19.148 21.4074 18.8654C21.6581 18.9325 21.8383 19.0809 21.9301 19.3316C21.531 20.3736 22.5058 20.8646 22.8449 21.6099C22.7248 21.7194 22.6013 21.8254 22.4777 21.9349Z" fill="#F7E0A5"/>
<path d="M20.3832 23.9974C20.7329 23.7855 21.0825 23.5735 21.4322 23.3616C21.8773 23.0967 22.3576 22.8777 22.7568 22.5598C23.6822 21.8251 24.4133 21.8746 24.9679 22.9837C24.8513 23.2239 24.7348 23.4605 24.6147 23.7007C24.6288 24.8522 23.887 25.0676 22.951 25.0394C22.347 24.8734 21.7183 24.8557 21.1073 24.7215C20.747 24.6014 20.4574 24.4107 20.3832 23.9974Z" fill="#FEFBE8"/>
<path d="M40.4736 18.445C39.5376 19.6636 38.2732 20.4655 36.9769 21.2284C36.599 20.1193 35.3133 19.805 34.8435 18.7771C35.6453 18.5016 36.2775 18.5581 37.0687 19.1162C38.531 20.1476 39.0609 19.8226 39.4565 18.0354C39.6719 17.8835 39.9227 17.5727 40.0958 17.6115C40.4772 17.6963 40.4842 18.1024 40.4736 18.445Z" fill="#FAEBBD"/>
<path d="M28.4964 20.1612C28.7895 19.5289 29.0898 18.9214 29.8103 18.6389C30.485 18.3739 31.2267 18.1514 31.7424 18.7307C32.3358 19.3947 31.8484 19.9917 31.2938 20.472C30.7181 20.3731 30.3931 20.9277 29.8668 21.0124C29.118 21.1361 28.5811 21.0478 28.4964 20.1612Z" fill="#FEF6D8"/>
<path d="M22.8484 21.6099C22.2832 20.9988 20.3264 21.073 21.7852 19.4588C22.534 19.3528 23.1027 18.7171 23.8939 18.7453L23.9434 18.7872C23.9434 18.8437 23.9221 18.9149 23.9469 18.9572C24.8052 20.3489 25.1301 21.518 22.8484 21.6099Z" fill="#FEF9E1"/>
<path d="M28.4964 20.1612C29.2911 21.5069 30.4178 19.8574 31.2938 20.472C31.1843 20.7193 31.0781 20.9706 30.9687 21.2214C30.8592 21.2285 30.7534 21.2316 30.6439 21.2316C29.4889 21.5636 29.5313 23.1708 28.3092 23.4357C28.1431 23.4675 27.9948 23.4251 27.8676 23.3191C27.7829 22.21 27.5462 21.069 28.4964 20.1612Z" fill="#FEF9E4"/>
<path d="M33.1092 21.1893C32.7172 20.9915 32.0496 20.9915 32.1697 20.3628C32.2756 19.7976 32.6006 19.1689 33.1516 18.964C33.9075 18.685 34.4691 19.1512 34.8435 19.8188C34.7199 20.8502 34.0664 21.2105 33.1092 21.1893Z" fill="#FEF9DE"/>
<path d="M33.1092 21.1893C33.7591 20.8219 34.4338 20.4899 34.8435 19.8188C34.953 20.5959 36.7367 20.561 35.9313 21.5959C35.2461 22.4789 34.2289 21.8078 33.4094 21.3663C33.307 21.3098 33.2117 21.2493 33.1092 21.1893Z" fill="#FFFAE9"/>
<path d="M27.4402 19.8189C27.4896 18.9783 26.2887 19.0207 26.2922 17.9469C27.6556 19.4834 28.6482 17.1945 30.3047 17.9681C28.7895 18.1023 28.6517 19.6458 27.4296 19.8119L27.4402 19.8189Z" fill="#FDF1C9"/>
<path d="M33.4484 15.573C33.3212 15.46 33.1976 15.347 33.0704 15.2375C33.2011 15.1068 33.3319 14.976 33.4626 14.8418C33.9571 14.4285 34.5434 14.8135 35.0697 14.6546C35.4618 14.5133 35.8786 14.1954 36.1682 14.8065C36.2141 15.5058 36.3272 16.2652 35.1898 15.9368C34.8507 15.9403 34.5116 15.9403 34.1726 15.9438C33.9324 15.8202 33.6921 15.6967 33.4484 15.573Z" fill="#F9DF9A"/>
<path d="M27.8676 23.3191C27.963 23.3191 28.0584 23.3189 28.1573 23.326C28.3233 23.386 28.4857 23.4531 28.6058 23.5874C29.1003 24.1525 29.3441 24.7847 29.0474 25.5194C28.9626 25.7314 28.7365 25.9221 28.4999 25.749C27.9347 25.3287 27.7829 24.7141 27.8076 24.043C27.6734 23.8205 27.5427 23.6015 27.4084 23.379C27.5568 23.3578 27.7122 23.3403 27.8676 23.3191Z" fill="#F6E3B2"/>
<path d="M35.1968 15.1674C34.5645 15.3511 34.0454 14.9336 33.4626 14.8418C31.9261 14.0153 32.4135 12.589 32.4629 11.3245C32.4841 10.8406 32.9433 10.3602 32.3958 9.90455C32.1945 9.51955 32.1203 9.19813 32.7349 9.21225C33.0846 9.45244 33.4307 9.69615 33.7804 9.93634C34.0029 10.0918 34.0453 10.6216 34.5009 10.279C34.6069 10.2613 34.7164 10.2542 34.8224 10.2613C35.3133 9.97519 35.8502 10.1553 36.3659 10.1129C36.5496 10.1447 36.6732 10.2472 36.7474 10.4167C36.7933 10.8264 36.5143 11.0525 36.2599 11.2927C35.988 11.494 35.7372 11.826 35.437 11.8755C33.7945 12.1404 34.4126 13.0164 34.8542 13.8605C35.5288 14.1502 35.5288 14.6164 35.1968 15.1674Z" fill="#FEFBEA"/>
<path d="M37.6586 15.9229C38.3509 14.4712 39.7673 14.3935 41.0636 14.2664C41.83 14.1922 42.5824 14.6761 42.8438 15.4496C43.1228 16.2726 42.54 16.8907 41.9678 17.3888C41.1766 18.081 40.668 17.3887 40.2406 16.8766C39.5236 16.0148 38.637 16.1172 37.7116 16.2691C37.5703 16.2126 37.5173 16.1419 37.5491 16.0571C37.5844 15.9688 37.6198 15.9229 37.6586 15.9229Z" fill="#FEFAE0"/>
<path d="M35.1968 15.1674C35.2603 14.687 35.1014 14.2596 34.8576 13.857C35.3345 13.4296 34.7799 12.2357 36.0586 12.3629C36.8921 12.4477 37.6516 12.37 38.1496 13.2918C38.7783 14.4468 37.6727 14.8283 37.3089 15.5453C35.9491 16.439 36.2811 15.0049 35.9137 14.5316C35.6736 14.7435 35.437 14.9555 35.1968 15.1674Z" fill="#FEF9DF"/>
<path d="M36.2599 11.2927C36.2741 11.0136 36.3481 10.7662 36.6201 10.6249C37.6726 10.7592 38.7217 10.3141 39.7743 10.6249C39.7919 10.7486 39.8096 10.8722 39.8272 10.9923C39.7107 11.8894 38.6369 12.9314 40.4595 13.5955C38.319 13.825 38.079 11.1832 36.2599 11.2927Z" fill="#FEFAE2"/>
<path d="M35.9137 14.5316C36.3305 14.9343 36.3765 15.8526 37.3089 15.5453C37.4255 15.6725 37.5422 15.7994 37.6588 15.9266C37.68 16.0431 37.6976 16.1562 37.7117 16.2727C37.4504 16.2833 37.1855 16.2974 36.9241 16.308C36.3342 16.2409 35.6808 16.4666 35.1898 15.9368C36.1294 15.8273 35.8608 15.0932 35.9137 14.5316Z" fill="#F7DE9E"/>
<path d="M27.8006 24.0401C28.2775 24.4075 28.3764 25.0009 28.6766 25.7002C29.0616 24.6265 28.3693 24.0331 28.1538 23.3266C29.1676 22.8498 29.1781 21.1751 30.6439 21.2316C29.8986 22.1818 29.436 23.2207 29.6444 24.4604C30.0188 26.6645 30.0188 26.6645 27.8112 26.8411C27.2143 26.502 26.6174 26.1629 26.0204 25.8274C26.4725 25.0927 27.0659 24.4958 27.8006 24.0401Z" fill="#FEFBEB"/>
<path d="M22.8483 24.7571C23.7172 24.8737 24.247 24.4286 24.6179 23.7045C25.2501 24.1779 24.8616 24.8631 24.9746 25.4424C24.8546 25.6896 24.7345 25.9404 24.6144 26.1876C24.4943 26.3113 24.3707 26.4313 24.2506 26.555C23.4346 26.9612 23.2898 26.1029 22.8448 25.8097L22.8554 25.8203C22.6046 25.4918 21.9971 25.354 22.1701 24.8101C22.2549 24.5275 22.5975 24.5487 22.8483 24.7571Z" fill="#FBE7AE"/>
<path d="M22.8412 25.8093C23.311 26.0566 23.7808 26.3038 24.247 26.5511C23.7525 27.1586 23.2934 26.6782 22.8236 26.5052C22.8307 26.2756 22.8342 26.0425 22.8412 25.8093Z" fill="#FEFAE4"/>
<path d="M22.8483 24.7571C21.8805 25.1139 23.2017 25.4671 22.852 25.8203C22.0679 25.7214 21.9195 26.5267 21.418 26.8269C20.5632 26.5232 19.6943 26.4631 18.8148 26.6927C18.0518 26.2229 17.9106 27.06 17.4973 27.3285C17.3136 27.5687 17.0664 27.7347 16.8333 27.9184L16.6637 27.9254L16.4942 27.9184C16.36 27.6711 16.2257 27.4274 16.0915 27.1801C16.2928 25.2022 18.0377 23.8034 19.8744 24.146C20.2665 24.2202 20.602 24.5346 21.04 24.411C21.6511 24.4851 22.3361 24.1602 22.8483 24.7571Z" fill="#FEFAE4"/>
<path d="M18.5781 26.5119C19.5954 25.9786 20.595 25.6324 21.4179 26.8298C21.0259 27.1477 20.5809 27.4168 20.4361 27.9537C19.5884 28.5612 18.7229 28.4158 17.854 27.999C17.6633 27.7835 17.5997 27.5327 17.6315 27.2502C17.8187 26.8369 17.9918 26.4095 18.5781 26.5119Z" fill="#FCF8E5"/>
<path d="M17.8754 27.208C17.8683 27.4729 17.8648 27.7343 17.8577 27.9992C17.501 28.1616 17.1619 28.1369 16.8369 27.9215C16.851 27.6389 16.9182 27.3811 17.1866 27.2256C17.4127 27.1974 17.6422 27.0808 17.8754 27.208Z" fill="#F6EBCA"/>
<path d="M31.6788 32.1741C30.3225 32.3012 29.224 33.3891 27.7899 33.2337C28.9803 32.492 30.0858 31.4429 31.6788 32.1741Z" fill="#E8DCC7"/>
<path d="M22.4951 9.9431C25.2749 8.76337 25.5292 8.82695 26.7372 10.9815C26.3911 11.5926 26.1156 12.2602 25.4056 12.5604C24.4802 12.7511 23.4735 12.6487 22.6965 13.3481C22.3397 13.6342 21.9971 13.9521 21.5132 13.9944C20.4465 14.0827 21.2872 14.5702 21.3295 14.8881C21.6051 15.3296 21.7463 15.7994 21.2095 16.1031C20.4854 16.5129 19.7083 16.4245 19.0372 15.9901C18.4085 15.5804 17.4336 15.3013 17.9316 14.1746C18.3272 14.1958 18.7228 14.2134 19.3939 14.2488C18.3378 13.3551 17.9352 12.4368 18.5992 11.3277C18.578 10.54 18.9242 10.2928 19.6553 10.6142C20.6655 10.6672 21.651 10.6107 22.4951 9.9431Z" fill="#FEF9DD"/>
<path d="M14.3677 17.3355C14.562 16.2476 13.9438 15.4387 13.3893 14.5946C13.6683 13.8917 14.622 14.2166 14.9081 13.5243C14.7315 12.9875 13.7249 13.8246 13.8096 12.9769C13.8909 12.1645 14.5478 11.836 15.3002 11.7371C16.1479 11.6241 16.8472 11.8678 17.1192 12.7331C17.4442 13.7787 16.9779 14.6793 16.4552 15.5482C16.3563 16.5266 15.7982 17.2649 15.0847 17.8441C14.5655 18.268 14.0427 18.3068 14.3677 17.3355Z" fill="#FEF9E2"/>
<path d="M14.3607 22.9734C13.5872 22.9133 13.785 23.8175 13.3011 24.0436C13.2269 24.0259 13.1562 24.0118 13.0821 23.9977C12.6158 23.8105 12.4993 23.3442 12.2662 22.9734C11.1712 21.6064 10.5072 19.7309 10.6237 18.311C11.2242 18.2438 11.7293 18.5229 12.245 18.7666C12.7006 19.0527 13.1386 19.36 13.4989 19.7697C14.0252 20.5609 14.8446 21.1826 14.9364 22.2316C14.9117 22.6095 14.6998 22.8391 14.3607 22.9734Z" fill="#FEFBE7"/>
<path d="M16.8579 19.8469C15.8901 20.0023 14.9505 20.0906 14.7421 18.7625C15.1236 17.5793 15.936 16.7174 16.8473 15.9298C16.9674 15.7037 17.091 15.4776 17.2111 15.2516C18.3484 14.8631 18.9913 15.7002 19.4434 16.4066C19.9591 17.2155 19.2668 17.936 18.7299 18.5647C18.1859 19.1087 17.8398 19.9422 16.8579 19.8469Z" fill="#FEFAE5"/>
<path d="M16.8473 10.2997C16.2362 10.3033 15.5722 10.215 15.3708 9.59683C15.1377 8.89394 15.8936 8.65376 16.3069 8.30408C16.8367 7.8555 17.4089 7.44224 17.9987 7.07843C18.9453 6.4921 19.952 6.68636 20.4606 7.55173C20.9481 8.38178 19.9132 8.62197 19.3939 9.01403C19.2103 9.15179 19.0619 9.33899 18.8994 9.50147C18.631 10.0772 18.1506 10.2644 17.5537 10.2467C17.317 10.2644 17.0804 10.2821 16.8473 10.2997Z" fill="#FEFBEC"/>
<path d="M4.10689 15.9302C4.03625 14.8847 6.10988 13.108 7.12006 13.4012C7.25782 13.44 7.27521 13.9028 7.34938 14.1677C7.32819 14.8883 6.97172 15.4816 6.66442 16.1068C6.30768 16.8344 5.79552 17.509 5.02198 17.449C4.32616 17.3995 4.2941 16.5236 4.10689 15.9302Z" fill="#FEFAE3"/>
<path d="M12.9303 18.413C11.4186 17.8584 10.5815 15.7886 11.3161 14.3934C11.6588 13.7435 12.0967 13.7294 12.4959 14.3369C12.9091 14.9692 13.2694 15.6332 13.6544 16.2831C13.8593 16.9719 14.1171 17.6536 13.7816 18.3741C13.5096 18.6037 13.227 18.6355 12.9303 18.413Z" fill="#FEFAE2"/>
<path d="M8.03455 14.1607C8.6668 12.6807 9.30964 11.2149 11.1887 10.9712C11.8916 10.4979 12.4179 10.9217 12.9548 11.3138C13.2197 11.3456 13.4846 11.3774 13.6118 11.6635C12.3084 11.8895 11.5879 12.8679 10.8461 13.8181C9.94542 14.2207 9.02001 14.4291 8.03455 14.1607Z" fill="#FEF9DD"/>
<path d="M8.03455 14.1607C8.93171 13.7156 9.88202 13.7047 10.8498 13.8177C10.6344 14.8173 10.0763 15.6438 9.52881 16.4809C9.19326 16.9966 8.8012 17.5759 8.18661 17.4487C7.43073 17.2933 7.67092 16.5162 7.64972 15.9617C7.63559 15.612 7.67445 15.2553 7.68858 14.9056C7.80161 14.6583 7.91799 14.4115 8.03455 14.1607Z" fill="#FEFBE9"/>
<path d="M13.3045 24.0471C13.4034 24.3614 13.6436 24.8771 13.188 24.9054C12.0506 24.9796 10.9453 25.8449 9.76906 25.1067C9.77613 24.4038 9.77947 23.7009 9.78653 22.998C10.3693 22.7614 10.9486 22.6943 11.5279 23.0122C11.7716 23.1393 12.0118 23.263 12.2555 23.3901C12.6652 23.5314 12.9584 23.8528 13.3222 24.0647L13.3045 24.0471Z" fill="#FFFCEC"/>
<path d="M18.2849 18.4169C19.8002 16.6614 19.6482 16.2088 17.2111 15.2516C17.3948 14.8525 17.4937 14.4009 17.9317 14.1713C18.2673 15.457 19.2669 15.8596 20.4219 15.9161C21.6934 15.9797 21.2766 15.411 20.7398 14.86C21.4744 14.3408 21.9018 14.7823 22.2904 15.3545C22.6047 16.3259 23.1734 17.2901 21.2378 17.0817C19.7861 16.9263 20.436 18.2756 20.2947 19.0244C19.719 20.2536 19.2033 19.2964 18.6699 18.9785C18.4721 18.8372 18.3838 18.6253 18.2849 18.4169Z" fill="#F9E5B1"/>
<path d="M13.6544 18.3922C13.6544 17.6893 13.6544 16.986 13.6544 16.2831C13.8911 16.6328 14.1275 16.9858 14.3677 17.3355C14.4242 17.7488 14.5551 18.0355 14.9366 17.5622C15.4629 16.9052 15.9539 16.2235 16.4625 15.5524C16.5896 15.6795 16.7203 15.8067 16.851 15.9339C16.4272 17.0818 15.4205 17.8023 14.7459 18.7666C14.0041 18.6677 14.5375 19.2576 14.3644 19.466C13.5732 19.4695 13.326 19.1198 13.6544 18.3922Z" fill="#FBEAB7"/>
<path d="M13.6544 18.3922C13.665 18.8973 13.9015 19.2537 14.3606 19.4656C14.9152 20.2427 16.1692 20.6173 15.7807 21.9348L15.7876 21.9311C15.445 22.2172 15.0565 22.1465 14.9258 21.7933C14.6114 20.9244 13.7955 20.5041 13.2939 19.8118C12.6087 19.8012 12.5133 19.1972 12.2414 18.7698C12.5169 18.7451 12.7888 18.7133 12.9266 18.4166C13.1703 18.406 13.4143 18.3993 13.6544 18.3922Z" fill="#FDF3CE"/>
<path d="M17.5504 10.2468C17.9072 9.82651 18.4014 9.66748 18.8994 9.50147L18.9739 9.58632C19.373 10.381 18.7302 10.6389 18.2533 10.9815C18.0414 11.2888 17.8295 11.5996 17.5681 11.9776C16.9217 11.3312 17.3491 10.7872 17.5504 10.2468Z" fill="#F4E0AC"/>
<path d="M5.79192 18.731C5.74954 19.0878 5.54114 19.3103 5.24444 19.328C4.74288 19.3598 4.52036 18.9995 4.52036 18.5615C4.52036 18.233 4.78527 18.0741 5.11729 18.1164C5.49522 18.1659 5.76013 18.3496 5.79192 18.731Z" fill="#FCF7DE"/>
<path d="M11.5246 23.0052C10.9454 23.0511 10.3626 23.482 9.78328 22.9911C9.40535 22.6202 9.50425 22.3729 9.99874 22.3164C10.6275 22.2493 11.1432 22.493 11.5246 23.0052Z" fill="#FEF7D2"/>
<path d="M18.2498 10.9816C18.4476 10.4942 19.0021 10.1904 18.9703 9.5864C19.1964 9.92902 19.426 10.2716 19.652 10.6143C19.1716 10.6602 18.8326 10.918 18.5959 11.3277C18.4829 11.2112 18.3663 11.0946 18.2498 10.9816Z" fill="#EED087"/>
<path d="M13.3188 24.0576C12.8278 24.0435 12.4675 23.8316 12.2521 23.383C12.2591 23.2453 12.2627 23.111 12.2697 22.9733C12.7324 23.2241 13.0856 23.5808 13.3188 24.0576Z" fill="#F9E9BB"/>
<path d="M28.5209 7.10711C27.5637 8.64005 26.642 7.20205 25.706 7.07489C25.4517 6.80292 25.1162 6.71462 24.7771 6.76407C23.177 6.98659 23.0993 6.18127 23.5656 4.99801C25.1056 4.01608 28.1253 5.3022 28.5209 7.10711Z" fill="#FEF9E3"/>
<path d="M10.8392 10.2784C10.7226 10.2784 10.6026 10.2749 10.486 10.2749C10.2811 9.60024 9.43695 9.30707 9.42635 8.51235C11.3337 8.50528 13.0432 9.0457 14.5939 10.2855C14.0464 10.8012 13.5342 10.8859 12.9549 10.6563C12.1284 11.1968 11.5174 10.5539 10.8392 10.2784Z" fill="#FEF9E0"/>
<path d="M20.3689 5.31579C20.6055 4.96964 20.8459 4.61988 21.0825 4.27373C22.1139 4.41502 22.5166 5.06846 22.5272 6.04332C22.008 6.62613 21.6653 7.47737 20.5704 6.7886C19.7757 6.29057 19.885 5.88093 20.3689 5.31579Z" fill="#FEFAE8"/>
<path d="M9.42635 8.51235C9.95264 8.99625 11.0759 9.11987 10.486 10.2749C10.3588 10.3879 10.2493 10.5715 10.1045 10.6068C9.56054 10.7375 8.87531 11.7053 8.55035 10.9388C8.2254 10.1759 7.78392 8.81964 9.42635 8.51235Z" fill="#FEFBEA"/>
<path d="M23.2512 7.45991C22.6966 8.05684 22.3787 8.73854 22.4953 9.57565C22.1421 9.45556 21.7853 9.33547 21.4321 9.21537L21.4392 9.22244C21.5063 8.08156 21.8277 7.20206 23.2512 7.45991Z" fill="#FDF7DB"/>
<path d="M24.9711 7.41753C25.3066 7.4917 25.7164 7.5023 25.7976 7.92262C25.8718 8.30056 25.5044 8.46303 25.2536 8.45244C24.6426 8.42771 23.7843 8.96148 23.5759 7.8312C23.9857 7.50624 24.4625 7.40693 24.9711 7.41753Z" fill="#FDF7DA"/>
<path d="M10.8392 10.2784C11.5456 10.4056 12.2485 10.5292 12.9549 10.6563C12.9549 10.8753 12.9549 11.0943 12.9549 11.3097C12.3651 11.1967 11.7787 11.0837 11.1889 10.9671C11.0723 10.741 10.9558 10.5115 10.8392 10.2784Z" fill="#F8E0A2"/>
<path d="M21.4284 9.21181C21.2024 10.2185 20.5701 9.95002 19.8637 9.77695C20.2805 9.01754 20.9057 9.27538 21.4355 9.21887C21.439 9.2224 21.4284 9.21181 21.4284 9.21181Z" fill="#FDF8DD"/>
<path d="M30.5978 6.05454C30.5943 6.79628 30.0715 6.7433 29.5699 6.72917C29.4887 5.85674 29.7783 5.55298 30.5978 6.05454Z" fill="#FBF4D4"/>
<path d="M33.7908 5.67968C35.02 6.1 35.0447 7.23382 35.1012 8.20162C35.1401 8.86212 34.5752 9.32171 33.7946 9.22634C33.6497 9.12744 33.4906 9.0458 33.3634 8.93277C31.2265 7.01482 31.2265 7.01129 33.7908 5.67968Z" fill="#FEF8DA"/>
<path d="M27.7933 10.985C27.6838 10.9814 27.5778 10.9708 27.4719 10.9496C27.32 10.4375 27.1858 10.003 27.8745 9.67453C28.6022 9.32838 29.3227 8.8798 29.8914 8.3182C30.7532 7.47049 31.3431 8.04269 32.0036 8.52306C32.0566 9.25774 31.223 9.57563 31.1877 10.2679C30.287 11.5889 29.0684 11.4335 27.7933 10.985Z" fill="#FEF9DC"/>
<path d="M25.2646 12.3694C25.9533 12.1151 25.8121 10.9813 26.741 10.9813C26.8576 11.0979 26.9741 11.218 27.0907 11.3345C27.3309 12.0445 28.3623 12.486 27.8148 13.4644C27.2178 13.8918 26.522 13.6163 25.8827 13.7399C25.2081 13.4927 24.4875 13.2631 25.2646 12.3694Z" fill="#FEFCEF"/>
<path d="M29.8314 7.47403C29.1214 8.62197 28.1006 8.81977 27.267 9.28954C26.9668 9.45908 26.6878 9.3955 26.5606 9.07408C26.4087 8.69614 26.6984 8.60784 26.9915 8.50894C27.8463 8.21224 28.6905 7.89082 29.8314 7.47403Z" fill="#FDF5D2"/>
<path d="M30.9442 10.2964C30.7358 9.36749 31.3148 8.91159 32.0036 8.52306C32.3533 8.63962 32.5937 8.87653 32.7349 9.21561C32.4559 9.36396 32.3959 9.62181 32.3959 9.90791L32.3535 9.95736C31.9437 10.3212 31.5976 10.7556 31.1349 11.0594C30.7781 10.8757 30.711 10.6249 30.9442 10.2964Z" fill="#FAE8B7"/>
<path d="M34.5044 10.2788C34.4338 10.5225 34.455 10.9252 34.0664 10.7945C33.692 10.6708 33.8333 10.2435 33.7839 9.93617C34.0205 10.0527 34.2642 10.1658 34.5044 10.2788Z" fill="#FDF0CA"/>
<path d="M36.6202 10.2788C36.0233 10.2717 35.4228 10.2682 34.8259 10.2611C35.3381 9.73839 36.0339 10.0563 36.6238 9.87615L36.6202 9.96798C36.7015 10.0386 36.7297 10.1057 36.705 10.1764C36.6767 10.2435 36.6485 10.2788 36.6202 10.2788Z" fill="#FEFAE2"/>
<path d="M36.6202 10.2788C36.6202 10.1728 36.6203 10.0703 36.6168 9.96433C37.7647 9.73474 39.0643 8.77411 39.7743 10.6249C38.7217 10.6991 37.6726 11.7658 36.6201 10.6249C36.6201 10.5119 36.6202 10.3954 36.6202 10.2788Z" fill="#FEFCF0"/>
<path d="M21.0365 24.4139C18.8395 24.3574 16.9427 24.8342 16.088 27.1796C15.7877 27.2184 15.544 27.1372 15.3886 26.8581C15.823 26.0775 16.6284 25.2475 15.0919 24.7424C15.3144 23.6333 16.1021 24.2514 16.6496 24.2691C17.1123 24.2832 17.3101 24.2232 17.1547 23.7322C17.5149 23.4249 17.8929 23.4744 18.2743 23.6722C18.9949 23.6474 19.719 23.6227 20.3795 23.9971C20.602 24.1384 20.821 24.2762 21.0365 24.4139Z" fill="#F7DB94"/>
<path d="M17.2146 24.0328C18.1506 24.8346 17.1227 24.6545 16.8331 24.7357C16.2644 24.8911 15.6781 23.994 15.0953 24.7463C14.8551 24.7499 14.6151 24.757 14.375 24.7606C14.1277 24.1672 15.0141 23.5666 14.3642 22.9732C14.4913 22.7401 14.6149 22.5034 14.7421 22.2703C15.8335 22.4787 16.4304 23.3865 17.2146 24.0328Z" fill="#FDF2CD"/>
<path d="M17.2146 24.0328C16.1655 23.7609 15.5864 22.8246 14.7387 22.2701C14.4667 21.327 13.4565 20.8184 13.2975 19.8082C14.6009 19.9601 14.7492 21.4647 15.7877 21.9274C15.9431 23.471 17.4937 23.0259 18.2778 23.6723C17.8999 23.7253 17.4689 23.6125 17.2146 24.0328Z" fill="#F9E2AA"/>
<path d="M30.9442 10.2964C31.0642 10.5331 31.1809 10.7731 31.301 11.0098C31.6718 11.2605 31.8308 11.589 31.6824 12.0306C31.58 12.578 31.9544 13.3056 31.3716 13.6412C30.7252 14.0156 30.3791 13.2739 29.9164 12.9772C29.0828 12.4403 28.2881 11.8681 27.7865 10.9815C28.8355 10.7237 30.0364 11.1865 30.9442 10.2964Z" fill="#FEFBEB"/>
<path d="M25.2646 12.3694C24.9961 13.0723 25.4232 13.3198 25.9884 13.4787C26.4511 13.7295 27.2599 13.6306 27.0798 14.5419C27.0763 14.6337 27.0798 14.7291 27.0904 14.8209C26.8537 14.8351 26.6171 14.8527 26.3804 14.8669C25.7729 15.0011 25.1548 14.8669 24.5261 15.0117C23.8691 15.16 22.6788 15.5415 23.6642 13.9909C24.0775 13.341 23.0991 13.6518 22.8483 13.3975C22.6929 13.3304 22.5657 13.2279 22.4704 13.0902C23.2051 12.0871 24.2544 12.3129 25.2646 12.3694Z" fill="#FBE6A9"/>
<path d="M27.0763 14.5417C26.7124 14.1885 26.3486 13.8319 25.9884 13.4787C26.5924 12.963 27.2037 13.3867 27.8148 13.4644C27.7971 13.9801 27.5284 14.3227 27.0763 14.5417Z" fill="#FEFBEE"/>
<path d="M31.6859 12.0344C31.5587 11.6917 31.4316 11.3527 31.3044 11.0136C31.0819 10.0917 31.8378 10.1411 32.357 9.961C32.1345 10.6498 32.191 11.4339 31.6859 12.0344Z" fill="#F6DB9E"/>
<path d="M22.9118 13.1186C23.5229 13.1504 24.3106 12.7937 24.6214 13.5919C25.0205 14.6162 23.477 13.9487 23.5759 14.8494C24.4766 14.6268 25.4479 14.2242 26.3769 14.8635C24.3388 15.3827 23.9008 16.9227 23.8973 18.7418C23.2333 19.095 22.873 20.3489 21.7886 19.4553C21.6721 19.3352 21.5555 19.2186 21.439 19.0985C21.001 18.5828 20.5135 19.3881 20.0685 19.0491C19.7435 18.2755 19.4892 17.5126 20.1921 16.7814C20.8738 16.075 21.5308 16.5942 22.1595 16.898C22.1595 16.3788 22.1595 15.9832 22.1595 15.5876C22.4562 14.7823 21.7003 13.652 22.9118 13.1186Z" fill="#FEFBEE"/>
<path d="M20.0688 19.0525C20.5315 18.9148 21.0048 18.4662 21.4392 19.102C20.2666 20.0768 18.7124 20.1227 17.3914 20.7444C17.2466 20.8115 16.8227 21.1365 16.8687 20.5572C16.8793 20.4194 17.0841 20.2958 17.1971 20.1651C17.7022 19.7307 18.0095 19.0984 18.5994 18.7417C18.9279 18.6251 19.2105 18.4944 19.3623 19.0207C19.5072 19.5329 19.8144 19.4093 20.0688 19.0525Z" fill="#FCEFC6"/>
<path d="M18.5958 18.7417C18.2568 19.3386 18.1402 20.1616 17.1936 20.1651C17.0806 20.0592 16.9675 19.9532 16.8545 19.8472C17.3313 19.3704 17.8046 18.8935 18.2815 18.4167C18.3874 18.5262 18.4934 18.6322 18.5958 18.7417Z" fill="#F4DC9D"/>
<path d="M17.8754 27.208C17.6458 27.2751 17.4231 27.6569 17.1829 27.2225C17.5608 26.8022 17.8646 26.2052 18.3379 26.0004C19.0196 25.7072 18.6416 26.2547 18.5781 26.509C18.3414 26.7421 18.1085 26.9749 17.8754 27.208Z" fill="#F8E2A2"/>
<path d="M22.9118 13.1186C22.0253 13.7473 23.3889 15.0648 22.1598 15.5911C21.7536 15.2202 21.4038 14.7293 20.7398 14.86C20.5031 14.4503 20.3125 14.0263 20.4573 13.3588C21.1884 13.7756 21.8948 13.7332 22.4706 13.0868C22.6154 13.0974 22.7635 13.108 22.9118 13.1186Z" fill="#F8DE98"/>
</svg>
