<svg width="50" height="46" viewBox="0 0 50 46" fill="none" xmlns="http://www.w3.org/2000/svg">
<path d="M46.253 9.23964C46.9326 9.97891 47.5762 10.7384 47.7442 11.7806C47.7242 12.5522 48.4718 13.954 46.6048 13.2228C46.4329 13.4693 46.4329 13.4693 47.0206 14.261C47.7881 16.2365 48.6956 18.2079 46.189 19.7187C45.6213 20.0621 45.9212 20.8499 46.0011 21.4275C46.137 22.393 45.9411 23.1646 45.0057 23.6131C43.1227 24.8775 42.2951 27.1357 40.8799 28.0447C41.3317 27.4872 42.3751 26.7156 43.2546 25.7703C44.2221 25.6006 45.4334 26.5621 46.137 25.1078C46.237 24.9017 46.5968 24.8654 46.8566 25.0229C47.1925 25.2209 47.2484 25.5521 47.1765 25.8915C46.9686 26.8812 46.5408 27.77 46.0291 28.6385C45.3255 29.8343 44.5139 30.9816 44.1621 32.3591C43.9582 32.7671 43.8343 33.2357 43.3706 33.4579C43.1467 33.2761 43.0387 33.0297 42.9788 32.751C42.8988 32.2945 42.7989 31.842 42.7989 31.3774C43.1307 30.3029 43.5864 29.2808 44.0222 28.2668C42.491 28.8203 42.2352 30.6866 40.9039 31.4906C40.8639 31.5148 41.0558 31.8259 41.1198 32.0198C40.8 33.5589 39.2728 33.9427 38.5172 34.9284C39.1529 34.8476 39.8925 34.1406 40.704 34.8072C40.4082 36.924 37.5617 39.1863 35.8987 38.6369C35.8147 38.3824 35.8707 38.7257 35.7827 38.4753C35.7028 38.2531 35.6868 38.0511 35.7627 37.833C35.5588 38.0915 35.6748 38.3177 35.8347 38.5399C35.7507 39.2307 35.207 39.3317 34.6833 39.461C33.7638 39.5943 33.1202 40.0589 32.8603 40.984C33.0042 41.2344 33.2681 41.392 33.388 41.6586C28.3588 44.4703 22.9418 45.557 17.2369 45.3388C16.4613 45.3105 15.6378 45.4317 14.9422 44.9146C16.997 44.3854 19.0759 44.8298 21.1508 44.6763C21.1548 44.345 20.9589 44.6844 20.8829 44.6884C18.3763 44.7571 15.8737 44.547 13.367 44.5309C12.2157 44.5632 11.1483 44.24 10.1368 43.7027C10.4247 43.2705 10.8844 43.1493 11.3361 43.02C11.7159 42.9594 12.0917 43.1129 12.4715 42.9594C12.0318 42.9594 11.568 42.9513 11.1762 42.6887C10.1528 41.4283 8.20987 41.6465 7.28637 40.2245C7.35434 39.8367 7.65417 39.6751 7.958 39.5337C8.53769 39.364 7.958 39.158 7.958 38.9722C6.63073 37.4007 4.96365 36.4433 2.95675 36.0797C1.86135 34.9769 2.30911 34.2376 3.50845 33.6761C6.61474 34.6012 9.793 35.1708 12.9832 35.704C14.3625 35.9343 15.7777 35.6273 17.117 36.1201C17.8766 36.7786 17.2169 36.9927 16.7452 37.1543C15.9976 37.4088 15.202 37.2957 14.4265 37.3159C13.7268 37.332 13.6029 37.8006 13.511 38.3541C13.383 39.1095 13.9387 38.7702 14.2466 38.8348C14.6343 38.8227 15.0021 38.8671 15.326 39.1055C15.0621 39.9861 16.0016 39.6751 16.2495 40.0548C16.1495 41.0163 15.3939 40.8749 14.8062 40.8547C14.1026 40.8304 13.415 40.8143 12.7394 41.0405C12.4276 41.0971 12.1517 40.9678 11.7559 40.7941C12.5875 41.3193 13.347 41.5576 14.2026 41.4041C14.8862 41.4405 15.5738 41.3516 16.2614 41.4081C16.5253 41.493 16.7372 41.6546 16.9251 41.8525C17.8166 42.8826 18.7721 42.0626 19.7036 41.9535C20.1513 42.2201 20.6031 42.4908 21.0228 42.8018C21.0708 42.923 21.0908 43.0523 21.0908 43.1897C23.5454 42.4908 26.104 42.9432 28.5827 42.5393C27.8671 42.5352 27.1954 42.8665 26.4638 42.7978C25.8642 42.7412 25.1646 42.7412 24.9926 42.0505C24.8048 41.3031 25.4484 41.0567 25.9921 40.8385C24.6209 40.0912 23.5295 40.9557 22.4141 41.5536C22.8418 41.396 23.2936 41.2183 23.4615 41.9212C22.7899 42.8503 21.8704 42.5837 20.9829 42.4504C19.7036 42.111 20.3232 40.4507 19.2838 39.9377C19.4757 39.1014 20.1553 38.6207 20.8429 38.5682C23.2936 38.3945 25.5963 37.5623 27.7192 37.0694C26.4878 37.2108 25.1206 37.8734 23.6494 38.0915C23.0777 38.1763 22.462 38.6409 21.9543 38.1198C21.3666 37.5179 21.8983 36.8675 22.0822 36.2575C22.1822 35.9383 22.3901 35.6636 22.602 35.4051C23.2216 34.6941 24.1331 34.6416 24.9407 34.3709C30.7215 32.4116 35.1151 28.691 38.3853 23.5565C39.1409 22.3729 39.9604 21.2256 40.5841 19.9571C40.9399 19.2259 41.3117 18.5109 41.0079 17.6625C40.9639 17.0646 40.8999 16.4627 41.5635 16.1436C41.3157 16.2728 41.8994 15.9699 41.7594 16.192C41.7355 16.2324 42.0273 16.495 42.0393 16.188C42.1312 13.7965 43.2706 11.6231 43.4225 9.24368C43.4465 8.85182 43.6704 8.49633 43.9462 8.20142C44.0902 8.07619 44.2581 8.01964 44.446 8.02368C44.7658 8.84778 45.4494 9.13461 46.253 9.23964Z" fill="#FDD247"/>
<path d="M27.2555 25.0102C27.7113 24.6668 28.163 24.3274 28.6188 23.9841C28.8666 24.0325 29.0785 24.1456 29.2704 24.3032C32.1768 23.4993 34.1477 21.5642 35.6309 19.0192C36.0347 18.3244 36.3225 17.5689 36.7863 16.9105C37.8217 16.4459 39.029 16.6277 40.0325 15.8561C40.5922 15.4238 40.884 16.1227 40.96 16.6842C41.0159 17.375 40.844 18.0133 40.5522 18.6274C40.1844 19.4797 39.9086 20.3766 39.4368 21.1805C39.057 21.8268 38.8172 22.9782 37.8617 22.5944C36.7943 22.1662 37.35 21.1603 37.6458 20.3564C37.0901 21.4107 35.6749 21.3946 35.1512 22.449C34.9953 22.6469 35.2271 22.3601 35.0592 22.5701C35.0592 22.5217 35.1112 22.5136 35.1392 22.4651C35.515 21.8955 35.9507 21.54 36.6344 21.944C37.242 22.3035 36.9262 22.865 36.9782 23.37C37.1661 25.1798 35.515 26.1696 35.1792 27.7289C33.1163 30.4678 30.3138 32.1363 27.1995 33.3482C26.5479 33.0977 26.0762 33.2553 25.8523 33.9703C25.4725 34.3662 25.0247 34.3581 24.549 34.1925C23.8854 33.5583 22.69 33.4855 22.5621 32.2817C23.1298 31.8939 23.7654 31.6757 24.4251 31.5182C26.332 31.4455 28.179 31.2798 28.6268 28.8519C29.5902 28.0076 30.7736 27.4582 31.6931 26.5574C32.2128 26.2908 32.6246 25.8908 32.8884 25.5959C32.5166 26.109 31.7211 26.3756 31.1654 26.9452C30.2778 27.8905 28.9626 28.1571 28.0151 29.0055C27.8112 29.2115 27.6113 29.4135 27.4034 29.6155C25.3366 31.5061 22.782 32.1322 20.1234 32.4918C19.5317 32.4958 18.9561 32.6493 18.3684 32.6695C17.8887 32.6857 17.3969 32.621 17.265 32.0757C17.1411 31.5424 17.5408 31.2273 17.9446 30.989C18.9121 30.4234 20.0395 30.2537 21.0189 29.7205C21.7385 29.3812 22.4901 29.1186 23.2497 28.8722C23.9253 28.654 24.497 28.3712 24.3771 27.4946C24.8648 26.1211 26.8277 26.4725 27.2555 25.0102Z" fill="#FED34F"/>
<path d="M44.1615 32.3628C43.7897 30.6741 45.069 29.5875 45.7047 28.2988C46.1764 27.3494 46.6961 26.4647 46.816 25.4144C45.5887 24.8408 46.2923 27.3373 45.2489 26.4243C44.5853 25.8426 43.7018 27.0141 43.3819 25.9072C43.4379 24.9256 43.7297 24.0611 44.5853 23.4874C46.5202 22.631 44.8331 20.9101 45.4368 19.8395C46.0085 18.8256 47.7955 18.5832 47.3517 16.8663C47.1199 15.9695 46.84 15.0888 46.5802 14.2001C46.3003 13.8001 46.2244 13.4002 46.5722 12.9962C47.6996 13.3234 47.3997 12.2327 47.7475 11.7883C49.1268 14.3293 49.1827 17.0764 48.9549 19.8638C48.4671 20.4576 49.1468 21.3504 48.3752 21.9645C47.2518 20.7849 47.9514 19.4477 47.9314 18.1913C47.9434 20.5021 46.6961 22.7805 47.8195 25.1195C47.3358 27.911 45.8406 30.1813 44.1615 32.3628Z" fill="#FDCE3B"/>
<path d="M3.41573 33.9834C2.77608 34.654 2.1924 35.3246 3.39974 36.0074C5.19475 36.6174 6.89782 37.3809 8.2011 38.8433C8.34103 39.3644 9.37646 39.0614 9.15658 39.732C9.00466 40.2047 8.52892 39.6916 8.19311 39.6431C7.10171 39.9461 6.41408 38.4756 5.27871 38.9685C5.15877 39.1301 4.67104 38.7907 4.87893 39.0412C5.51058 39.8088 6.39809 40.3097 7.24963 40.8268C7.41354 40.9035 7.57345 40.9884 7.72536 41.0813C8.95269 41.8044 10.232 42.4467 11.3953 43.2789C11.0915 43.7677 10.5878 43.6465 10.144 43.7031C5.6545 42.1316 2.16042 39.429 0.325428 34.8439C1.07302 33.9754 1.4768 32.7958 2.59618 32.2585C3.18386 32.6342 4.0194 32.6503 4.29925 33.4704C4.15932 33.9148 3.63161 33.6724 3.41573 33.9834Z" fill="#FDCE3E"/>
<path d="M36.9845 17.0229C35.9171 21.0788 32.7988 23.24 29.4766 25.1306C28.6331 25.6114 28.781 24.8155 28.9929 24.2984C30.6879 22.6058 32.359 20.8929 33.7342 18.9094C33.9701 18.566 34.182 18.2509 34.154 17.8187C34.266 17.1885 34.5218 16.635 34.9656 16.1745C36.2169 15.508 36.2249 13.9971 37.0484 13.0276C37.748 12.2034 38.1039 11.0562 39.3192 10.7653C40.6944 12.357 40.3146 13.3265 38.3917 14.0294C37.1884 14.4697 37.2283 16.122 36.3728 17.0027C36.5687 17.1481 36.7886 16.8088 36.9845 17.0229Z" fill="#FEDB69"/>
<path d="M27.255 25.013C28.0145 25.8533 27.0151 25.9664 26.6833 26.233C26.0476 26.7542 25.1281 26.843 24.5884 27.546C21.686 29.9173 18.1799 30.2243 14.6699 30.4829C12.8868 30.6121 11.0878 30.3415 9.31281 30.6606C9.00898 30.7495 8.69715 30.7939 8.38132 30.8222C7.89759 30.8626 7.41386 30.8505 6.93012 30.8989C5.5189 31.1454 4.12766 31.5211 2.70444 31.7271C2.14475 31.5534 1.73697 31.2221 1.58506 30.6242C5.04716 30.1637 8.38932 28.9437 11.9674 29.1497C17.4883 29.4648 22.5495 27.8691 27.255 25.013Z" fill="#FDD044"/>
<path d="M41.2549 4.15959C40.4514 2.93958 39.7637 1.6711 41.2629 0.511696C42.4143 -0.377049 45.9443 -0.0377099 46.632 0.988386C47.3156 2.00236 47.2676 2.9921 46.2122 3.77985C44.6331 4.85038 42.982 5.02005 41.2549 4.15959Z" fill="#A88A45"/>
<path d="M35.7863 38.4279C37.0056 39.3046 37.5413 37.9997 38.245 37.5352C39.2444 36.8726 40.3238 36.1495 40.5797 34.7881C40.4238 34.5013 40.5837 34.3074 40.7716 34.1175C41.1754 33.8105 41.6271 33.5681 41.9789 33.1884C42.3947 32.8652 42.7865 32.4734 43.3821 32.7602C43.3781 32.9945 43.3781 33.2248 43.3741 33.4591C40.7196 37.0262 37.4094 39.7813 33.3996 41.6597C33.0798 41.6395 32.768 41.5911 32.5961 41.2638C32.8439 40.1731 33.4236 39.4096 34.583 39.2319C34.9827 38.9652 35.3825 38.6986 35.7863 38.4279Z" fill="#FDCB36"/>
<path d="M39.3842 10.963C37.6891 12.0295 36.9296 13.7828 36.066 15.4835C35.9101 15.7905 35.8821 16.8732 34.9666 16.1703C36.154 13.6131 37.5492 11.2054 39.6721 9.29461C41.0953 8.01401 41.0593 6.19208 41.3631 4.49943C42.6584 4.07929 42.4345 5.04479 42.3746 5.71135C42.2826 6.76168 42.1987 7.75142 43.49 8.12712C43.8338 8.73308 43.5499 9.23805 43.2381 9.73494C41.8509 9.81169 40.5356 10.1268 39.3842 10.963Z" fill="#FDCE46"/>
<path d="M43.3663 8.12876C42.3508 8.71452 41.9231 8.59737 41.7072 7.25213C41.5593 6.33511 42.8266 5.20802 41.3634 4.50107C41.3074 4.39199 41.2714 4.27888 41.2554 4.15769C42.9065 4.03246 44.5616 3.90318 46.2127 3.77795C46.0648 4.9616 45.9169 6.14524 45.769 7.32485C44.4777 7.05419 45.5411 6.04021 45.1733 5.58776C44.9974 6.35935 45.2372 7.35313 44.5776 8.1328H44.1778C43.5502 7.5632 43.866 6.80776 43.79 6.18564C43.6661 6.79968 44.0179 7.57531 43.3663 8.12876Z" fill="#FED553"/>
<path d="M47.816 25.1159C46.3528 24.4574 46.7006 23.096 46.8325 22.0134C47.0204 20.4702 47.5361 18.9634 48.1158 17.4646C48.1158 18.7573 48.1158 20.0541 48.1158 21.5124C48.8714 21.0519 48.3037 20.151 48.9513 19.8561C49.0553 21.7144 48.5676 23.4434 47.816 25.1159Z" fill="#FED446"/>
<path d="M1.58819 30.6239C2.13988 30.7006 2.39175 31.1167 2.62362 31.5611C2.85549 31.8277 2.81152 32.0822 2.58764 32.3286C1.90801 33.2376 1.80807 34.6717 0.32488 34.8414C-0.526652 33.0477 0.436819 31.8075 1.58819 30.6239Z" fill="#A08442"/>
<path d="M34.1549 17.8162C34.2629 17.9657 34.4908 18.2121 34.4588 18.2566C32.8397 20.4542 31.6403 23.0477 28.9938 24.296C28.8699 24.1909 28.7419 24.09 28.618 23.9849C30.7008 22.1509 32.4879 20.034 34.1549 17.8162Z" fill="#FDCC47"/>
<path d="M44.5822 8.13265C44.3823 6.95305 45.3537 5.92291 44.5462 4.2343C45.8455 5.41391 44.906 6.64199 45.7735 7.32471C45.9334 7.96299 46.0933 8.60126 46.2572 9.23954C44.9779 9.62332 44.6381 9.39709 44.5822 8.13265Z" fill="#FDC833"/>
<path d="M13.379 44.5309C13.6588 44.3855 13.9787 44.0623 14.2105 44.1188C16.6932 44.7127 19.2478 44.2845 21.7424 44.9147C19.4797 44.9147 17.2129 44.9147 14.9501 44.9147C14.3864 44.9551 13.8148 45.0197 13.379 44.5309Z" fill="#FCC930"/>
<path d="M3.41573 33.9834C3.58364 33.6522 3.8838 33.5869 4.21162 33.5667C4.9752 33.0496 5.6988 33.5142 6.4384 33.6515C12.0153 34.8352 17.5923 35.9057 23.2252 33.9626C23.6729 33.8091 24.1367 33.8212 24.5884 33.9828C25.0322 33.9747 25.4999 34.0434 25.8118 33.603C26.1196 33.2273 26.4474 32.9001 26.9911 33.1708C29.9855 31.7649 32.9438 30.3066 34.9667 27.5071C35.5824 25.9033 36.8577 24.7439 37.8052 23.3744C38.7047 22.0696 39.5762 20.7849 40.2118 19.3346C40.5517 18.7852 40.6396 18.0338 41.4152 17.848C41.9869 18.3045 41.711 18.7933 41.4672 19.2781C37.6013 26.9536 32.3002 32.989 23.6649 35.227C23.4251 35.2876 23.2212 35.4775 22.9973 35.6027C21.2103 36.4107 19.4672 37.5499 17.4044 36.4228C12.595 36.4389 7.91726 35.7286 3.41573 33.9834Z" fill="#F9BF22"/>
<path d="M17.4002 36.4154C19.3391 36.6659 21.0862 35.5751 22.9931 35.5953C22.4614 36.274 22.3135 37.0981 22.0736 38.0717C24.3843 37.6839 26.4752 36.6255 29.2297 36.6416C26.7351 37.9707 24.4523 38.4555 22.1696 38.7706C21.0462 38.9241 20.1667 39.2755 19.3911 40.0431C18.3277 40.7258 17.2603 40.4551 16.1968 40.0471C15.7091 40.0067 14.9495 40.2451 15.3933 39.2473C15.0015 38.5807 14.6017 38.8352 14.2019 39.2351C13.4424 39.7037 12.8427 39.6189 12.4869 38.718C13.9101 38.7706 12.0271 36.6739 13.7822 36.7709C14.9695 36.8355 16.2648 37.2112 17.4002 36.4154Z" fill="#FED859"/>
<path d="M23.4051 41.6723C23.0093 41.6723 22.6175 41.6723 22.1338 41.6723C23.7089 39.9796 24.1247 39.8786 27.6548 40.319C27.311 41.0623 26.5674 40.9976 26.0157 41.2481C25.6639 41.4057 25.1482 41.4461 25.3001 41.9874C25.428 42.4479 25.8758 42.456 26.2955 42.3994C27.4869 42.2419 28.6782 42.0884 30.0974 41.9025C29.3698 43.0983 28.2345 43.1347 27.5109 43.1023C25.392 43.0094 23.3491 43.3205 21.2863 43.6639C20.1949 43.8457 20.6226 43.3286 21.0144 42.8923C21.4262 42.3388 22.0379 42.5489 22.5776 42.4519C22.9893 42.3833 23.689 42.5408 23.4051 41.6723Z" fill="#FED758"/>
<path d="M16.1981 40.0424C17.2615 39.5132 18.3289 40.1313 19.3923 40.0383C21.2673 39.8 20.4997 41.1937 20.6036 42.0461C20.3398 42.2764 20.0719 42.3087 19.8001 42.0623C18.7327 42.9672 17.6653 43.6539 16.5978 42.0623C16.6898 41.8683 17.0816 41.7391 16.8457 41.4967C16.6738 41.3149 16.39 41.4927 16.1941 41.6542C15.5304 41.8482 14.8628 41.8401 14.1992 41.6542C13.5355 41.6502 12.7839 41.8239 12.6 40.8463C13.0998 40.2646 13.6515 40.0222 14.443 40.313C15.0307 40.5352 15.6943 40.6443 16.1981 40.0424Z" fill="#FCCE3A"/>
<path d="M43.3663 8.12876C43.4742 7.17942 43.1746 6.17309 44.182 5.24799C44.182 6.20945 44.182 7.17091 44.182 8.13237C43.6543 11.1541 42.9787 14.1395 42.0832 17.0966C41.6594 16.8542 41.8193 16.4785 41.7513 16.1795C41.5235 15.9089 41.4755 15.5897 41.5075 15.2504C41.6954 13.9617 42.0112 12.6892 42.0752 11.3803C42.1111 10.7016 42.299 10.0916 42.9627 9.75634C43.2465 9.25541 43.4462 8.72664 43.3663 8.12876Z" fill="#FAC42B"/>
<path d="M40.9872 31.972C40.6714 31.7498 40.0917 31.5196 40.0997 31.3095C40.1157 30.8974 40.4995 30.8086 41.0032 30.6793C42.0826 30.4005 41.9427 28.6958 43.186 28.2554C43.7177 28.0696 43.9935 26.89 44.7131 27.4394C45.4727 28.0171 44.3174 28.3322 44.1934 28.8533C43.9656 29.8269 43.5978 30.7641 42.9821 31.5721C43.086 32.7072 42.2585 32.986 41.4429 33.2728C41.287 33.1516 41.1951 32.9941 41.1591 32.8002C41.1671 32.38 41.4909 32.1417 41.7068 31.8427C42.1306 31.3943 42.3185 30.8288 42.5703 29.9279C42.2585 30.9096 42.0306 31.564 41.4629 32.0205C41.295 32.1296 41.1351 32.1094 40.9872 31.972Z" fill="#FDCE38"/>
<path d="M44.5853 23.4874C44.1855 24.2954 43.7817 25.1033 43.3819 25.9072C42.6863 27.608 41.1157 28.3952 39.7845 29.4536C41.1477 27.2519 42.5664 25.1195 44.5853 23.4874Z" fill="#FDDC62"/>
<path d="M11.3994 43.2781C9.75232 43.2337 8.66891 42.0621 7.40161 41.2542C9.07269 40.523 10.1201 41.8803 11.3994 42.4661C12.223 42.858 13.3663 42.2843 14.05 43.367C13.0945 44.0901 12.2629 43.0478 11.3994 43.2781Z" fill="#FEDA60"/>
<path d="M40.9872 31.972C41.1191 31.9639 41.2463 31.9562 41.3782 31.9522C41.5181 31.7906 41.6541 31.7946 41.786 31.9643C41.6501 32.2349 41.5141 32.5056 41.3782 32.7763C40.9185 33.2287 41.1983 33.8751 40.9704 34.3881C40.8385 34.5214 40.7066 34.6548 40.5746 34.7921C39.6392 35.0224 38.7037 35.2567 37.6682 35.5152C38.4518 33.9034 40.0957 33.297 40.9872 31.972Z" fill="#FDDB65"/>
<path d="M24.12 36.4757C25.7991 35.8213 27.6181 35.6597 29.0853 34.4841C28.4016 35.9303 26.5826 36.6494 24.12 36.4757Z" fill="#FEDA64"/>
<path d="M8.2011 38.8433C6.76189 37.6233 4.77498 37.3445 3.39974 36.0074C5.39065 36.0356 7.36556 37.1991 8.2011 38.8433Z" fill="#FEDC67"/>
<path d="M19.7987 42.0672C20.0666 42.0631 20.3344 42.055 20.6023 42.051C21.5378 41.9419 22.5492 42.4105 23.4047 41.6753C23.7246 41.7036 24.1163 41.6915 24.2363 42.0429C24.4042 42.5439 23.9085 42.4429 23.6646 42.5681C22.8171 43.0003 21.8936 42.8186 21.0061 42.8953C20.4264 42.8832 19.8307 42.8872 19.7987 42.0672Z" fill="#F8C329"/>
<path d="M44.3491 15.2427C45.0727 16.5435 45.2006 17.6504 43.4736 18.7492C43.8134 17.404 43.0138 16.1759 44.3491 15.2427Z" fill="#FED75B"/>
<path d="M11.3999 42.4622C10.0007 42.2844 8.93725 40.9796 7.4021 41.2502L7.4061 41.2543C6.83041 40.5837 5.5831 40.418 5.83096 39.1253C6.6785 38.8627 7.14224 39.2708 7.4021 40.0383C8.54147 41.1775 10.5604 40.8261 11.3999 42.4622Z" fill="#FDCE3E"/>
<path d="M29.8692 35.2079C30.6728 32.8083 32.7996 33.3012 33.7711 32.1014C33.0794 33.7132 31.4963 34.0122 29.8692 35.2079Z" fill="#FEDA64"/>
<path d="M41.8 15.4133C41.784 15.6679 41.768 15.9264 41.752 16.1809C41.2203 16.6455 41.4602 17.2716 41.4122 17.8412C41.1284 18.3624 40.8405 18.8835 40.5567 19.4046C39.8611 19.4369 39.921 19.0895 40.1769 18.6371C40.3168 17.9705 40.4567 17.2999 40.5967 16.6334C40.9804 16.0839 40.5407 15.276 41.1564 14.8033C41.3522 14.6539 41.5601 14.4277 41.82 14.7024C42.0359 14.9407 41.9479 15.179 41.8 15.4133Z" fill="#FCE692"/>
<path d="M12.6037 40.8515C13.1354 41.1222 13.6671 41.3929 14.2028 41.6595C12.6117 42.3584 11.7961 41.2192 10.7447 40.3021C11.7082 39.781 12.02 40.698 12.6037 40.8515Z" fill="#FDD860"/>
<path d="M7.40633 40.041C6.85064 39.8066 6.49083 39.1764 5.79122 39.229C5.4514 39.3178 5.32347 39.1886 5.41143 38.8452C5.4554 37.9968 5.95113 38.2837 6.34691 38.5018C6.97857 38.8533 7.58223 39.2572 8.1979 39.641C8.02999 39.9682 7.73015 40.0329 7.40633 40.041Z" fill="#FED65B"/>
<path d="M31.7364 38.9073C30.677 39.5739 29.7055 40.2243 28.5142 40.2929C29.3617 39.2103 30.5651 39.0043 31.7364 38.9073Z" fill="#FDDA62"/>
<path d="M33.6238 34.6636C33.7917 33.5567 34.5073 33.0153 35.2789 32.4175C35.1549 33.7708 35.1549 33.7708 33.6238 34.6636Z" fill="#FCDA5F"/>
<path d="M34.5789 39.2352C33.6754 39.6714 33.2476 40.5844 32.592 41.2672C32.4241 41.1985 32.2562 41.1338 32.0883 41.0652C32.7719 40.2451 33.0038 38.8029 34.5789 39.2352Z" fill="#FED961"/>
<path d="M16.1938 41.6589C16.2977 40.8146 16.8494 40.7621 17.4811 40.964C17.7849 41.061 18.1407 41.3074 17.9808 41.6791C17.7049 42.3174 17.0736 41.9613 16.5978 42.0623C16.4659 41.9289 16.3297 41.7962 16.1938 41.6589Z" fill="#FDD663"/>
<path d="M41.3873 33.1917C42.0669 32.7999 42.5906 32.2545 42.9864 31.5758C43.4621 31.8546 43.3582 32.3313 43.3782 32.7635C42.9784 33.0382 42.5786 33.3089 42.1788 33.5836C41.7151 33.8664 41.3913 33.8583 41.3873 33.1917Z" fill="#FEDB61"/>
<path d="M14.2024 39.2368C13.9546 38.6834 14.0665 38.3481 14.7301 38.437C15.1819 38.4976 15.8015 38.1582 15.9854 38.8894C16.0014 38.9541 15.6017 39.1237 15.3978 39.2449C14.998 39.2409 14.6022 39.2409 14.2024 39.2368Z" fill="#FDDD77"/>
<path d="M44.8579 13.4696C44.626 12.904 43.9024 12.4031 44.65 11.7971C44.7779 11.6961 45.1177 11.6315 45.1617 11.6921C45.6694 12.395 44.7779 12.8232 44.8579 13.4696Z" fill="#FDD968"/>
<path d="M31.7039 38.8314C32.3796 37.9951 33.0512 37.7325 34.1786 37.5588C33.407 38.6374 32.6514 38.8435 31.7039 38.8314Z" fill="#FDDB64"/>
<path d="M35.2696 38.274C35.2456 37.5347 35.6854 37.054 36.6968 36.2945C36.2571 37.3287 36.0092 37.9064 35.7653 38.4841C35.6014 38.4114 35.4375 38.3427 35.2696 38.274Z" fill="#FCDD6E"/>
<path d="M46.5687 12.994C46.5727 13.3939 46.5727 13.7939 46.5767 14.1978C46.1369 13.9959 45.8331 13.6808 45.8051 13.1758C45.7931 12.9536 45.6572 12.5941 45.989 12.5617C46.1689 12.5415 46.3768 12.8364 46.5687 12.994Z" fill="#FCDA69"/>
<path d="M24.5889 33.9781C18.4603 36.612 12.3317 35.7273 6.19902 33.9983C6.69475 31.9542 8.74562 31.7684 10.0609 30.6979C10.2448 30.5807 10.4407 30.504 10.6526 30.4636C13.7069 30.5161 16.7053 29.902 19.7356 29.6798C20.3313 29.6354 20.9189 29.4173 21.4027 29.9586C20.3992 31.1261 18.5442 30.7221 17.4249 32.0714C18.5003 32.5319 19.3438 31.7078 20.2113 31.9785C20.9029 32.7622 21.8944 31.6916 22.602 32.3744C23.2257 32.952 24.2731 33.0005 24.5889 33.9781Z" fill="#FDD860"/>
<path d="M41.799 15.4118C41.6911 15.234 41.787 14.5755 41.3433 15.1451C41.0115 15.5774 40.8356 16.1308 40.5917 16.6318C40.5517 16.3934 40.4838 15.9612 40.2319 16.1187C39.2244 16.7489 38.241 17.3589 36.9817 17.0196C36.5259 17.3387 36.0742 17.6619 35.6184 17.981C36.6938 16.2601 36.9017 14.0342 38.6488 12.8102C39.1725 13.1778 38.3489 13.6181 38.9046 13.9332C39.8801 13.0728 39.8801 12.0588 39.3804 10.9559C40.2679 9.61877 41.3236 8.807 42.9627 9.75634C42.2111 11.5702 42.8465 13.6666 41.799 15.4118Z" fill="#FED759"/>
<path d="M21.3983 29.9552C18.264 29.6805 15.2417 30.5895 12.1594 30.8925C11.4718 30.9611 10.8721 30.8036 10.2325 30.7834C10.1525 30.7834 10.0725 30.7874 9.99659 30.7874C9.59681 30.7511 9.20103 30.7026 8.96516 30.3027C9.93662 29.6442 11.04 29.9795 12.0675 29.9633C15.9893 29.9068 19.8991 29.8785 23.4252 27.7495C23.741 27.5597 24.1928 27.6082 24.5846 27.5435C25.0203 28.0121 25.7239 28.505 24.5646 28.9211C23.5252 29.3008 22.4577 29.6159 21.3983 29.9552Z" fill="#FEE381"/>
<path d="M40.1723 18.641C40.1963 18.948 40.2203 19.2551 40.5521 19.4086C39.1569 22.4384 37.2179 25.0884 34.9592 27.5083C34.2955 26.9063 34.9432 26.5751 35.263 26.2519C36.0226 25.4843 36.6143 24.6966 36.4304 23.5089C36.3624 23.0807 37.138 22.5959 36.3464 22.1798C35.6948 21.8365 35.4589 22.5757 34.9791 22.6767C35.5708 20.8063 37.4538 20.3862 38.7451 18.7097C38.925 20.4185 36.8541 20.9558 37.9895 22.4828C39.1928 21.4365 39.3088 19.8045 40.1723 18.641Z" fill="#FDD85C"/>
<path d="M22.5973 32.3719C21.9537 32.3396 21.342 32.4244 20.7263 32.6628C20.0027 32.9375 19.9787 32.5214 20.2106 31.9801C22.9411 31.9074 25.2638 30.7682 27.3987 29.1482C28.0663 29.9844 28.0543 30.1703 27.3067 30.8691C26.5391 31.5842 25.5197 31.6569 24.5962 31.9639C23.9246 32.1013 23.2609 32.2386 22.5973 32.3719Z" fill="#FDE07C"/>
<path d="M24.5885 31.9634C25.408 31.2969 26.5994 31.2444 27.251 30.295C27.5069 29.9193 27.9946 29.6164 27.3949 29.1477C27.5349 29.0104 27.6748 28.873 27.8147 28.7357C28.3224 28.5135 28.6742 28.768 28.9901 29.1316C28.7102 31.9634 26.6514 31.9634 24.5885 31.9634Z" fill="#FDD860"/>
<path d="M28.9863 29.1295C28.5945 28.9962 28.2028 28.8629 27.811 28.7336C28.5905 27.6065 30.1177 27.6914 30.9972 26.7218C31.2691 26.4754 31.5409 26.4875 31.8128 26.7178C31.2051 27.9216 29.8099 28.1802 28.9863 29.1295Z" fill="#FDE693"/>
<path d="M31.6563 28.5126C32.2279 26.9654 33.8191 26.5452 34.7386 25.3777C34.1069 26.8401 32.9595 27.7652 31.6563 28.5126Z" fill="#FEDD6D"/>
<path d="M31.8125 26.7163C31.5407 26.7163 31.2688 26.7203 30.997 26.7203C31.9005 25.9205 32.804 25.1206 33.7115 24.3248C33.6075 25.6377 33.0159 26.4578 31.8125 26.7163Z" fill="#FDDF78"/>
<path d="M26.9884 33.1658C26.5966 33.3072 26.2048 33.4526 25.8091 33.598C25.3213 32.9557 25.981 32.7699 26.2888 32.5962C26.8165 32.2932 26.9324 32.7497 26.9884 33.1658Z" fill="#FDD860"/>
<path d="M35.666 23.1024C35.4062 23.672 35.2023 23.8214 34.9264 23.7326C34.6386 23.6437 34.5666 23.369 34.6626 23.1185C34.7185 22.9731 34.7065 22.5812 35.0903 22.8317C35.2982 22.9731 35.5461 23.0499 35.666 23.1024Z" fill="#FDD85C"/>
<path d="M10.2004 31.1558C8.83711 32.0607 7.30195 32.7191 6.19856 33.9997C5.53492 33.8543 4.87525 33.7081 4.21162 33.5667C3.84782 32.9203 2.57655 33.4867 2.58854 32.3354C2.60054 32.0809 2.61253 31.8223 2.62452 31.5678C3.82786 30.6993 5.37501 31.0265 6.64632 30.3882C7.70174 31.2527 9.15294 30.2589 10.2004 31.1558Z" fill="#FDD755"/>
<path d="M5.41021 38.8505C5.53814 38.9797 5.66607 39.105 5.79 39.2342C6.32971 39.9089 6.86541 40.5835 7.40512 41.2582C5.65008 40.6966 4.46273 39.4887 3.38333 37.889C4.5227 37.6385 4.72659 38.6889 5.41021 38.8505Z" fill="#FEDA60"/>
<path d="M10.2004 31.1558C9.041 30.7841 7.54646 31.968 6.64695 30.3845C7.17866 30.3845 7.71437 30.3845 8.24607 30.3845C8.83775 30.8208 9.60533 30.3037 10.193 30.7521L10.233 30.7884C10.217 30.9096 10.2044 31.0305 10.2004 31.1558Z" fill="#FEE381"/>
<path d="M10.192 30.7465C9.54039 30.6456 8.7968 31.0293 8.2451 30.3789C8.48497 30.3547 8.72884 30.3305 8.9687 30.3022C9.39647 30.3951 9.91218 30.2416 10.192 30.7465Z" fill="#FEF1B4"/>
<path d="M45.5527 1.83019C44.2374 2.14933 43.6297 1.55145 42.7142 1.04648C43.8616 0.703101 44.5892 0.929326 45.5527 1.83019Z" fill="#CCB273"/>
<path d="M42.8063 2.196C42.5944 2.30912 42.4425 2.45859 42.3265 2.43031C42.1826 2.39799 42.0707 2.22428 41.9428 2.11117C42.0627 2.00614 42.1986 1.80819 42.3066 1.82031C42.4545 1.84455 42.5824 2.0223 42.8063 2.196Z" fill="#BC9E5A"/>
<path d="M41.3877 33.1926C41.5636 33.5118 41.8554 33.5805 42.1833 33.5845C41.7795 33.8511 41.3797 34.1218 40.9759 34.3884C40.0125 33.5683 40.6841 33.1684 41.3837 32.7765C41.3837 32.9139 41.3837 33.0512 41.3877 33.1926Z" fill="#FDD247"/>
<path d="M41.786 31.9643C41.6501 31.9602 41.5141 31.9562 41.3782 31.9522C41.802 31.124 42.2264 30.2965 42.91 28.9593C42.7981 30.4783 42.7455 31.3987 41.786 31.9643Z" fill="#FDD247"/>
<path d="M41.1761 12.052C41.376 12.5974 41.0042 12.9004 40.7084 13.2155C40.6884 13.2357 40.3246 13.0377 40.3326 12.961C40.3766 12.4762 40.6644 12.1692 41.1761 12.052Z" fill="#FEDF76"/>
</svg>
