<svg width="47" height="33" viewBox="0 0 47 33" fill="none" xmlns="http://www.w3.org/2000/svg">
<path d="M22.7889 0.65838C23.0792 0.335809 23.4564 0.332413 23.8401 0.359577C27.9684 0.407114 31.6894 2.08788 35.4739 3.44947C36.4985 3.81958 37.6532 3.952 38.5242 4.72278C38.7878 4.9367 38.2405 5.22192 38.4875 5.29322C40.1027 5.74822 39.462 6.61746 38.9213 7.4901C37.3728 9.12333 35.2336 9.74471 33.3414 10.76C31.1021 11.9552 29.0263 13.5103 26.5333 14.1962C24.9014 14.5425 23.3362 13.8974 21.731 13.8702C19.792 13.6801 18.1267 12.6241 16.2979 12.0944C15.8173 11.653 15.6204 10.6887 14.6393 11.1776C13.578 11.147 12.5835 10.9263 11.7825 10.1522C11.7859 9.19464 10.9482 9.50702 10.4777 9.28292C9.50651 8.82792 8.24502 9.15389 7.47744 8.13524C8.20497 6.85854 9.58327 6.65821 10.748 6.1353C14.6459 4.38663 18.5072 2.53948 22.5119 1.03528C22.6688 0.977556 22.7789 0.848527 22.7889 0.65838Z" fill="#FEEC99"/>
<path d="M38.5309 5.09968C35.6975 3.54455 32.5838 2.76358 29.5669 1.71098C27.698 1.05905 25.7457 0.824759 23.8401 0.359577C24.6745 -0.109 25.5789 -0.0614633 26.4299 0.172825C30.9619 1.42576 35.4339 2.86884 39.7456 4.78729C41.0238 5.35434 41.8948 6.29149 42.035 7.66327C42.2353 9.66661 42.3587 11.6937 41.9249 13.6971C41.5544 13.2556 41.6546 12.7905 41.708 12.6377C41.6212 14.1147 42.1351 15.9041 41.9182 17.7037C41.8948 17.8803 41.8448 18.0467 41.7747 18.2097C41.7013 18.3659 41.5945 18.5017 41.4677 18.6171C40.2329 19.5475 38.908 20.3386 37.5664 21.1026C34.3993 23.1773 30.775 24.3996 27.6747 26.6169C26.8771 27.1873 25.8993 27.9377 24.818 26.987C25.1283 26.3045 24.3975 25.6695 24.7312 24.9837C25.3286 23.347 24.8747 21.6527 25.0082 19.9923C25.0749 19.1638 24.9181 18.3251 25.0082 17.8905C24.9615 19.775 25.0549 22.05 24.9681 24.3249C24.8547 24.5287 24.6912 24.5898 24.4776 24.5151C24.1705 24.2027 24.0871 23.8054 24.0571 23.3878C23.9803 21.381 23.997 19.3709 24.0337 17.3642C24.0103 16.4847 24.4876 15.843 25.0215 15.2284C25.1751 14.9296 25.3486 14.6478 25.6623 14.4916C27.0573 14.4067 28.1319 13.5273 29.2666 12.8686C32.1967 11.1674 35.3471 9.88392 38.2005 8.04017C38.621 7.76853 39.0815 7.56141 39.3752 7.12678C39.9025 6.80082 40.363 6.46466 39.6121 5.87724C39.2651 5.59881 38.8045 5.48337 38.5309 5.09968Z" fill="#FDE076"/>
<path d="M41.5344 18.376C41.5311 18.2572 41.5277 18.135 41.5244 18.0161C41.7714 17.7886 41.6512 17.4151 41.8515 17.1706C43.45 16.719 44.1842 17.1129 43.9606 18.3081C44.2176 17.5373 44.2176 17.5374 43.9907 17.3404C43.6436 17.0382 43.1563 17.0552 42.7926 16.7971C42.3754 16.5017 41.9349 16.1418 42.0651 15.5849C42.2486 14.804 42.8693 15.0043 43.4133 15.1367C44.2276 15.4118 44.9651 15.9109 45.8395 16.0026C46.4669 16.2301 46.6305 16.8107 46.844 17.354C46.6705 18.0399 46.6738 18.7835 45.993 19.2657C45.4724 19.6324 46.7139 19.9006 46.0865 20.4507C45.4657 20.9974 44.9918 21.7274 44.2743 22.1722C39.2784 25.2757 34.2425 28.3112 29.0897 31.1465C27.5011 32.0191 25.9593 32.8204 24.0904 32.5929C21.1903 32.0089 18.5806 30.6066 15.864 29.5234C11.8059 27.9038 7.7778 26.1924 3.79642 24.386C2.70846 23.8937 1.48034 23.5236 0.929691 22.2503C0.876295 21.887 0.916342 21.561 1.26676 21.3573C1.85412 21.3369 2.33135 21.707 2.87867 21.8259C4.3404 22.1586 5.55183 23.1501 7.02691 23.4591C7.18042 23.51 7.32726 23.5745 7.4741 23.6424C12.8271 26.2366 18.4604 28.1279 23.8902 30.5251C23.1827 30.3349 22.4452 30.2127 21.8311 29.7272C21.7443 29.5879 21.7143 29.4351 21.7377 29.2722C22.4485 28.6168 23.3462 28.4606 24.2139 28.5931C25.659 28.8138 26.5534 28.2773 27.0373 26.9157C27.5145 26.5897 27.9584 26.2026 28.5657 26.1449C29.6771 26.2264 30.7049 26.5252 31.576 27.2688C30.9953 28.4369 29.7872 28.7153 28.8194 29.3401C33.5016 26.4879 38.2405 23.7341 42.9995 21.0788C42.7726 21.3403 42.4522 21.3539 42.1151 21.2928C40.4832 20.1621 40.4732 20.1111 41.5344 18.376Z" fill="#CFD8D8"/>
<path d="M24.1772 32.2602C27.3143 32.5794 29.5736 30.5047 32.0399 29.1329C35.9044 26.9836 39.6322 24.5728 43.4467 22.3216C44.4812 21.7104 45.2388 20.8513 46.0164 19.9957C45.7427 19.5135 45.3957 20.1621 45.0486 19.7852C45.6493 18.9974 46.5003 18.3523 46.8474 17.3506C47.3313 19.5679 46.6905 21.0041 44.5513 22.3997C39.1449 25.9242 33.5383 29.0854 27.8983 32.1889C26.5467 32.9325 25.0082 33.3366 23.4397 32.6405C23.6065 32.3519 23.997 32.5216 24.1772 32.2602Z" fill="#B8C4C7"/>
<path d="M22.7889 0.65838C23.6833 0.889273 23.0626 1.11338 22.7622 1.23561C20.7164 2.09128 18.5906 2.78056 16.6283 3.79921C13.6247 5.35434 10.3342 6.27112 7.49747 8.1692C7.5008 8.26427 7.50414 8.35935 7.51082 8.45782C6.5163 11.5036 7.15706 14.6546 6.94348 17.7513C6.78996 18.7427 7.1604 19.6799 7.2405 20.6476C7.13704 20.8106 6.99354 20.9091 6.80665 20.9532C6.12584 21.0109 5.81548 20.5661 5.57185 20.0228C5.4417 19.6629 5.39164 19.2894 5.37495 18.9125C5.46172 17.7037 5.14802 16.4814 5.49176 15.2827C5.6119 13.6088 5.66863 11.9246 5.86887 10.2574C6.03574 8.85848 6.65647 7.72779 8.01141 7.07246C12.8538 4.73297 17.7529 2.53609 22.7889 0.65838Z" fill="#FBDC72"/>
<path d="M24.1772 32.2602C24.0237 32.5692 23.73 32.6031 23.4397 32.6371C21.0669 32.2466 18.931 31.1499 16.7417 30.2331C11.9361 28.2196 7.16374 26.1279 2.38475 24.0499C1.51038 23.6696 0.689407 23.1874 0.459135 22.1179C0.312294 21.8564 0.232199 21.5203 0.559253 21.4354C1.0198 21.3131 0.91968 21.8836 1.14328 22.0839C2.10775 23.639 3.80643 24.0159 5.29486 24.6815C11.1918 27.3299 17.1789 29.7611 23.2027 32.1006C23.5031 32.2194 23.8502 32.2127 24.1772 32.2602Z" fill="#B9C4C6"/>
<path d="M1.14328 22.0873C0.91968 22.1858 0.636011 21.0109 0.462472 22.1213C-0.39521 20.2605 -0.0714937 18.7258 1.5304 17.663C2.81192 16.8107 4.17019 16.0739 5.4951 15.2861C6.03574 16.4915 5.75874 17.7581 5.7554 19.0042C4.97782 18.8718 4.21692 19.4592 3.43265 19.0483C3.26913 18.3828 3.99666 18.1587 4.22693 17.6053C1.49703 18.1316 0.856271 19.0551 1.61383 21.2147C1.57045 21.2792 1.52707 21.3437 1.48034 21.4082C1.21002 21.5508 1.15663 21.8055 1.14328 22.0873Z" fill="#C3CECD"/>
<path d="M43.5201 15.3133C43.1196 15.388 42.5289 15.0586 42.3687 15.6291C42.2286 16.1282 42.7592 16.3693 43.1163 16.6104C45.0786 17.9278 45.082 17.9244 43.163 19.3098C43.0128 18.5288 44.3144 18.3047 43.8939 17.7003C43.4901 17.1231 42.6724 17.0756 41.9516 17.3234C41.5878 16.2539 41.3142 15.1911 42.2052 14.2268C42.6457 14.4712 43.0863 14.7157 43.5234 14.9602C43.6069 15.0417 43.6336 15.1198 43.6035 15.1979C43.5768 15.2726 43.5501 15.3133 43.5201 15.3133Z" fill="#BBC4C3"/>
<path d="M42.2086 14.2268C41.6879 15.2216 41.9215 16.281 41.9516 17.3234C41.8081 17.5543 41.6679 17.7852 41.5244 18.0161C41.5244 16.0977 41.5244 14.1758 41.5244 12.2574C41.6045 12.254 41.6846 12.2506 41.768 12.2472C41.8214 12.7293 41.8715 13.2115 41.9249 13.6937C42.0183 13.8702 42.1151 14.0502 42.2086 14.2268Z" fill="#F1CF73"/>
<path d="M43.5201 15.3133C43.5234 15.1945 43.5234 15.0756 43.5268 14.9602C44.4011 15.0688 45.1654 15.4254 45.8395 15.9992C44.9084 16.3218 44.2043 15.8566 43.5201 15.3133Z" fill="#B9C5C5"/>
<path d="M39.5254 7.14376C38.7778 8.42047 37.4496 9.11654 36.2682 9.60889C33.3481 10.8279 30.7116 12.5426 27.935 14.006C27.2709 14.3558 26.6635 14.8515 25.8425 14.607C25.7557 14.0638 25.946 13.8057 26.5133 13.9347C30.6549 11.7107 34.9099 9.70736 38.8946 7.18111C39.0882 6.95022 39.3018 6.97399 39.5254 7.14376Z" fill="#F9D562"/>
<path d="M16.1544 11.8805C18.2168 11.8839 19.8688 13.3168 21.8578 13.5816C22.7956 13.6597 23.73 13.7412 24.2573 14.7157C24.0938 15.2148 23.6833 15.2182 23.3062 15.13C20.9367 14.5731 18.6206 13.8499 16.4581 12.6852C16.2578 12.5765 16.1644 12.3558 16.0976 12.1385C16.1177 12.057 16.1377 11.9688 16.1544 11.8805Z" fill="#FBD969"/>
<path d="M11.8059 9.89071C12.7504 10.434 13.7515 10.7837 14.8395 10.8754C15.4269 10.7769 15.6238 11.1063 15.6438 11.6326C14.736 12.658 13.9117 11.6632 13.0474 11.5307C11.8393 11.1233 10.5744 10.872 9.42642 10.3118C8.95252 10.0809 7.8946 9.91788 8.81903 8.95356C9.917 8.92639 10.9282 9.18785 11.8059 9.89071Z" fill="#FBDB6B"/>
<path d="M24.1438 14.6342C23.3829 14.2845 22.6187 13.9313 21.8578 13.5816C21.9346 13.5069 22.0313 13.3541 22.0847 13.3711C23.5365 13.765 25.0316 13.8023 26.5133 13.9381C26.2897 14.1622 26.0661 14.3863 25.8425 14.6104C25.5722 14.7463 25.5054 14.9975 25.4921 15.2726C24.4475 16.3557 24.4676 15.1164 24.1438 14.6342Z" fill="#FDF6C8"/>
<path d="M11.8059 9.89071C10.8214 9.63605 9.8369 9.38139 8.8524 9.13012C8.20831 9.08598 6.89008 10.0299 7.48745 8.1658L7.49413 8.1726C8.90914 8.50875 10.3275 8.82113 11.7291 9.20143C12.0762 9.28971 12.8071 9.55116 11.8059 9.89071Z" fill="#FDF6C8"/>
<path d="M39.5254 7.14376C39.3151 7.15734 39.1015 7.17093 38.8913 7.18451C39.3085 6.32205 39.1249 5.75161 38.1938 5.36792C37.9735 5.27624 38.384 5.16759 38.5309 5.10307C38.9781 5.27285 39.4486 5.40527 39.8691 5.62937C40.1628 5.78557 40.877 5.79236 40.6367 6.18963C40.4298 6.53597 40.4531 7.54783 39.5254 7.14376Z" fill="#FEF0AC"/>
<path d="M32.2534 7.76174C32.8108 7.39503 33.3714 7.03171 33.9288 6.665C33.7052 7.50708 33.2913 8.08771 32.5271 8.15901C32.437 8.02659 32.3469 7.89417 32.2534 7.76174Z" fill="#FDF1B4"/>
<path d="M15.527 11.5443C15.2967 11.3202 15.0664 11.0961 14.8362 10.8754C16.1177 10.0707 16.2011 10.8856 16.151 11.8805V11.8839C15.7873 12.074 15.6571 11.8058 15.527 11.5443Z" fill="#FDF3BF"/>
<path d="M31.5025 9.86355C31.6961 9.64963 31.8062 9.4493 31.9698 9.36441C32.18 9.25576 32.437 9.32367 32.3669 9.62926C32.3269 9.80583 32.13 9.9722 31.9631 10.0809C31.903 10.1182 31.7261 9.9722 31.5025 9.86355Z" fill="#FDF3BB"/>
<path d="M15.527 11.5443C15.7339 11.6598 15.9441 11.7718 16.151 11.8873C18.5839 13.5001 21.2337 14.4542 24.1438 14.6342C24.6277 14.77 24.6511 15.9075 25.4888 15.2726C25.5722 16.0875 24.1572 16.0196 24.5043 16.9907C24.2373 17.2929 23.7767 17.3574 23.5531 17.6596C22.6354 18.9193 21.8378 18.59 20.9868 17.4762C21.5474 18.3794 21.7677 19.1774 21.0302 20.05C19.9489 21.3335 18.4271 21.7545 17.3725 22.3691C16.7584 22.3148 17.0187 22.6374 16.952 22.4235C16.9286 22.3454 16.9754 22.3012 17.0821 22.325C17.2991 22.3725 17.516 22.4235 17.7363 22.4438C18.4271 22.5083 19.3181 22.291 19.4182 23.3538C19.5084 24.3012 19.1279 25.0142 18.0733 25.1297C16.2311 24.8275 14.5558 24.0125 12.8204 23.3878C10.9849 22.3827 8.84573 22.0466 7.15706 20.7189C6.42954 19.9414 6.42953 18.9838 6.49962 18.0059C6.70319 17.7377 6.90009 17.4083 7.25384 17.8226C7.36064 17.9482 7.34061 18.1451 7.42405 18.2945C6.63978 16.8854 8.24502 17.1333 8.65884 16.5934C9.56992 15.4084 10.0972 14.0298 10.5544 12.7056C11.075 11.1946 11.9027 11.0078 13.1608 11.215C13.9685 11.198 14.6493 12.1114 15.527 11.5443Z" fill="#FEEA93"/>
<path d="M18.1567 24.8037C19.0011 24.6441 19.2013 23.9888 19.1145 23.2893C19.0111 22.4608 18.3303 23.0109 17.9231 22.8886C17.4159 22.7358 16.9353 22.4948 16.4414 22.1926C17.5227 22.1688 18.4705 22.0534 18.7208 20.7427C18.7641 20.5186 19.1813 20.1417 19.3081 20.3284C20.3393 21.8326 20.2492 20.1383 20.5796 19.8599C21.217 19.3166 21.5841 18.7461 20.6364 18.0297C20.356 17.8192 20.4328 17.1163 20.3493 16.6579C20.5529 16.5832 20.6998 16.4881 20.7398 16.5221C21.9913 17.6154 21.9846 17.6087 23.6833 17.0246C23.9336 16.9397 24.2306 16.9975 24.5076 16.9873C24.5076 19.1366 24.5076 21.2894 24.5043 23.4387C24.2139 23.7239 23.126 23.7036 24.1505 24.4879C24.6111 24.841 24.6111 25.5541 24.2173 25.7714C23.6132 26.1042 24.1138 26.695 23.7334 26.9972C23.0626 27.3673 22.4185 27.0345 21.7677 26.9259C20.9133 26.7154 20.1291 26.3181 19.3281 25.9751C18.8142 25.7578 18.1234 25.6254 18.1567 24.8037Z" fill="#FEE98E"/>
<path d="M31.5126 27.4997C30.4847 27.1602 29.5602 26.515 28.4423 26.4641C29.4635 24.9701 31.2189 24.6373 32.6205 23.7545C34.0622 22.8479 35.6208 22.1314 37.0391 21.1773C38.5809 20.4405 40.0794 19.629 41.2875 18.3692C41.3709 18.3726 41.4543 18.3726 41.5378 18.376C41.5711 19.3234 40.7935 20.4744 42.2052 21.0687C41.7313 22.5253 40.2229 22.7834 39.195 23.3878C36.9123 24.7324 34.5962 26.043 32.2868 27.3537C32.0499 27.4861 31.8062 27.6525 31.5126 27.4997Z" fill="#C9D4D4"/>
<path d="M37.1859 21.3912C34.2725 23.0822 31.3557 24.7731 28.4389 26.4641C27.9417 26.5456 27.5145 26.7663 27.1674 27.1364C26.4132 27.8393 25.5755 28.318 24.4976 28.1245C23.977 27.9445 24.0137 27.5676 24.1639 27.1534C24.2273 27.0108 24.3174 26.8885 24.4275 26.7799C24.571 26.7086 24.7078 26.7255 24.8347 26.8308C26.4733 27.4692 27.5579 26.2434 28.6892 25.4998C31.5025 23.6424 34.6796 22.5016 37.5263 20.7257C37.7333 21.1162 37.3795 21.2113 37.1859 21.3912Z" fill="#F4D469"/>
<path d="M23.8435 26.8308C23.8635 26.5014 22.3851 26.4709 23.6633 25.8936C24.0771 25.7069 24.2974 25.3368 24.1171 24.9463C23.8201 24.291 23.403 25.347 22.9357 24.8071C23.4263 24.3385 22.592 22.4982 24.5009 23.4455C24.5043 23.7817 24.5076 24.1212 24.5109 24.4574C24.9314 25.2485 24.7112 26.0363 24.5009 26.8274L24.5076 26.841C24.284 27.0379 24.0637 27.0142 23.8435 26.8308Z" fill="#FEEC9C"/>
<path d="M38.8012 13.4424C39.2984 13.6325 39.6589 12.5799 40.066 13.2692C40.343 13.7378 39.8291 14.006 39.4353 13.911C38.8579 13.7718 38.0536 14.77 37.7666 13.7174C37.6498 13.293 37.6064 12.2268 38.3273 12.1623C39.1316 12.0876 38.6276 13.0247 38.8012 13.4424Z" fill="#FDE383"/>
<path d="M24.8347 24.4641C24.8347 22.0092 24.8347 19.5509 24.8347 17.0959C24.9615 19.887 25.5956 22.6883 24.848 25.4692C24.6111 25.1365 24.6144 24.8037 24.8347 24.4641Z" fill="#F7D158"/>
<path d="M28.8461 22.6577C29.4935 21.5237 30.3812 20.8853 30.6882 19.8259C30.7984 19.449 31.2656 19.1876 31.6127 19.5611C31.9264 19.8972 31.5326 20.1485 31.279 20.3386C30.4313 20.9634 30.3946 22.4133 28.8461 22.6577Z" fill="#FCE487"/>
<path d="M37.1859 21.3912C37.2994 21.1705 37.4129 20.9464 37.5263 20.7257C38.7778 19.9414 40.0293 19.157 41.2841 18.3692C40.3964 20.0466 38.6944 20.5797 37.1859 21.3912Z" fill="#EFD173"/>
<path d="M34.5161 13.5918C34.0689 14.8753 32.9176 14.7089 32.3536 15.3439C32.6739 14.3762 33.4649 14.0536 34.5161 13.5918Z" fill="#FEEB99"/>
<path d="M24.8347 24.4641C24.838 24.8003 24.8447 25.1331 24.848 25.4692C25.422 25.9276 25.659 26.386 24.8347 26.8308H24.6678L24.5009 26.824C24.5043 26.0329 24.5076 25.2451 24.5109 24.454C24.6211 24.4574 24.7279 24.4608 24.8347 24.4641Z" fill="#FEE98E"/>
<path d="M41.6913 11.6937C41.7558 11.6937 41.8081 10.9519 41.8081 10.0367C41.8081 9.12158 41.7558 8.37972 41.6913 8.37972C41.6268 8.37972 41.5745 9.12158 41.5745 10.0367C41.5745 10.9519 41.6268 11.6937 41.6913 11.6937Z" fill="#F1CF73"/>
<path d="M26.5967 25.6831C26.51 25.0108 26.6601 24.695 27.0873 24.5932C27.1641 24.5762 27.3843 24.7629 27.3777 24.8478C27.3476 25.2723 27.0306 25.4488 26.5967 25.6831Z" fill="#FEE98E"/>
<path d="M3.47938 19.0348C4.24028 19.1502 4.97782 17.7784 5.7554 19.0008C5.79211 19.3336 5.82882 19.6629 5.86553 19.9957C5.98234 20.5491 6.19926 20.9872 6.76326 21.252C7.23048 21.4693 7.7778 21.6866 7.89794 22.3216C7.8679 22.3657 7.84454 22.4167 7.8045 22.454C7.64097 22.6102 7.45074 22.617 7.24717 22.5627C7.46076 22.6917 7.64764 22.6781 7.80116 22.4642C7.86457 22.3759 7.94466 22.308 8.04478 22.2605C9.06933 22.6577 10.0705 23.2112 11.2252 22.7732C11.8159 22.7868 12.3065 23.1195 12.8438 23.3029C15.557 24.3046 18.2335 25.3979 20.9133 26.4879C21.454 27.0413 22.9124 27.2654 21.6075 28.5082C21.5207 28.5897 22.008 28.8851 21.8478 29.2178C21.8478 29.3197 21.8478 29.4216 21.8478 29.5234C18.8442 29.0107 16.2011 27.4759 13.4111 26.3724C11.3187 25.5439 9.20616 24.7358 7.15706 23.7817L7.16707 23.7884C5.79545 23.2825 4.57734 22.4336 3.18236 21.982C2.98212 21.8496 2.78522 21.7206 2.62837 21.5338C2.06103 20.3997 2.30132 19.5509 3.47938 19.0348Z" fill="#CCD8D7"/>
<path d="M31.5126 27.4997C34.9967 25.2213 38.8379 23.5542 42.2019 21.0687C42.7625 20.8751 43.3232 20.6816 43.8839 20.4846C38.8346 24.0465 33.4315 26.97 27.8249 30.155C28.232 29.0752 29.0864 29.0141 29.6604 28.627C30.2577 28.2263 30.8918 27.8732 31.5126 27.4997Z" fill="#B5C1C3"/>
<path d="M7.15039 23.7783C9.80687 24.403 12.2264 25.6763 14.7661 26.6203C17.1589 27.5065 19.3715 28.8307 21.8378 29.5234C22.6554 30.0022 23.5732 30.172 24.4041 30.5828C18.4337 28.9122 12.6769 26.6576 7.15039 23.7783Z" fill="#B2BDBE"/>
<path d="M21.8378 29.2144C21.5841 28.7594 21.0201 28.9734 20.6731 28.6813C20.7498 27.9106 21.4673 28.0362 21.9245 27.7068C21.5541 27.3978 21.197 27.1024 20.8399 26.807C21.1369 26.5727 21.4673 26.6848 21.7877 26.7052C22.5019 27.2688 23.6132 26.8919 24.1972 27.7646C25.2919 28.0566 26.1729 27.3198 27.1674 27.1364C27.0773 28.4606 26.3832 29.2756 25.0816 29.0311C23.9503 28.8172 22.9224 29.2416 21.8378 29.2144Z" fill="#C7D1CF"/>
<path d="M3.15566 21.724C4.60738 22.179 5.97566 22.797 7.1604 23.7817C5.51512 23.7341 4.26697 22.6238 2.80191 22.0873C2.73516 21.7851 2.81192 21.6187 3.15566 21.724Z" fill="#B2BDBE"/>
<path d="M25.4521 30.3349C26.0961 30.2297 26.7102 29.9547 27.5812 29.6898C26.9438 30.8409 26.1729 30.5183 25.4521 30.3349Z" fill="#E1E8E7"/>
<path d="M3.15566 21.724C3.03885 21.8462 2.92205 21.9685 2.80191 22.0907C2.23457 22.1145 1.73064 22.0126 1.48034 21.4048L1.48702 21.398C1.92754 21.0313 2.36806 21.0958 2.80858 21.398C2.92539 21.5067 3.03885 21.6153 3.15566 21.724Z" fill="#C3CECD"/>
<path d="M13.1608 11.2183C11.6924 11.1436 11.2252 12.1691 10.7814 13.3337C10.214 14.8278 9.45979 16.2403 8.38852 17.8599C8.22499 17.9448 8.10485 17.1231 7.63429 17.2487C7.23382 17.6766 8.05813 18.2606 7.21713 18.736C6.95683 18.7326 7.35396 17.4253 6.50296 18.0059C6.49962 15.697 6.51964 13.3881 6.47626 11.0791C6.45623 9.95523 6.71654 8.97733 7.49079 8.16241C7.1871 9.5953 8.49531 8.66834 8.85574 9.12673C8.4586 9.73112 8.99924 9.74471 9.32296 9.86015C10.5978 10.3253 11.8793 10.7701 13.1608 11.2183Z" fill="#FEE98E"/>
<path d="M11.1585 23.1026C9.85359 23.8428 8.8524 23.0584 7.82118 22.4201C7.14705 21.6255 5.57185 21.5882 5.85886 19.9923C6.16255 20.247 6.26935 20.7495 6.77661 20.7495C7.948 21.1773 9.09269 21.6765 10.2374 22.179C10.6178 22.3454 11.2786 22.3623 11.1585 23.1026Z" fill="#C6CFCC"/>
<path d="M11.1585 23.1026C9.80019 22.1213 8.08817 21.8225 6.77661 20.7495C6.90343 20.7393 7.03025 20.7291 7.15706 20.7189C9.14275 21.2724 11.055 22.0092 12.8304 23.0856C12.9139 23.1705 12.9406 23.2554 12.9105 23.3402C12.8805 23.4217 12.8505 23.4625 12.8204 23.4625C12.2664 23.3436 11.7125 23.2248 11.1585 23.1026Z" fill="#E9D47D"/>
<path d="M2.80858 21.3946C2.36806 21.3946 1.92754 21.3946 1.48702 21.3946C1.0465 20.5424 -0.0748309 19.8463 1.03315 18.6782C2.14113 17.5136 3.83313 16.9499 4.92776 17.5068C4.76423 18.3319 3.70631 18.2776 3.4727 19.0314C3.06222 19.7648 2.26461 20.3828 2.80858 21.3946Z" fill="#D7E0E0"/>
<path d="M12.8238 23.4625C12.8271 23.3368 12.8304 23.2112 12.8338 23.0856C14.6092 23.6594 16.3847 24.2299 18.1601 24.8037C19.2314 25.7137 20.5729 26.0227 21.8378 26.5014C21.9179 26.5897 21.9446 26.6814 21.9179 26.7697C21.8912 26.858 21.8611 26.9021 21.8344 26.9021C21.504 26.8715 21.1737 26.8376 20.8433 26.807C18.2135 25.5745 15.3835 24.8546 12.8238 23.4625Z" fill="#F2D76B"/>
<path d="M15.3868 18.0127C15.0965 18.9023 14.6393 19.6392 13.5947 19.7037C14.1921 19.14 14.7894 18.5764 15.3868 18.0127Z" fill="#FEF1AB"/>
<path d="M16.3479 17.9176C16.5181 17.4253 16.7351 17.1333 17.1622 17.1401C17.2357 17.1401 17.3958 17.3947 17.3658 17.4728C17.2156 17.8633 16.9186 18.0365 16.3479 17.9176Z" fill="#FDF1B6"/>
<path d="M16.378 19.9074C16.2845 19.9889 16.1477 20.1926 15.9708 20.2436C15.7172 20.3149 15.5537 20.1043 15.6605 19.8701C15.7339 19.7071 15.9475 19.5611 16.1277 19.5033C16.2879 19.4558 16.4147 19.5984 16.378 19.9074Z" fill="#FEF1AF"/>
<path d="M13.321 16.8243C13.0073 16.2233 13.3811 15.9109 13.6815 15.4423C13.895 16.0671 13.875 16.4847 13.321 16.8243Z" fill="#F4D05C"/>
<path d="M14.0886 15.0688C14.0052 14.9907 13.8583 14.8549 13.7148 14.7191C13.8216 14.6104 13.9151 14.4373 14.0419 14.3999C14.2922 14.332 14.4357 14.5018 14.4624 14.7497C14.4791 14.933 14.4123 15.0722 14.0886 15.0688Z" fill="#FDF1B4"/>
<path d="M21.8344 26.9021C21.8344 26.7697 21.8378 26.6339 21.8378 26.5014C22.5086 26.5999 23.136 26.9598 23.8435 26.8308C24.0637 26.8342 24.2873 26.8342 24.5076 26.8376C24.4041 27.1466 24.3007 27.4556 24.1972 27.7646C23.3929 27.5235 22.5019 27.5303 21.8344 26.9021Z" fill="#FDE076"/>
<path d="M21.1303 21.1468C21.444 21.2045 21.7243 21.3471 21.6108 21.6663C21.4607 22.0941 21.1203 22.3793 20.6364 22.3827C20.3427 22.3827 20.0156 22.1994 20.059 21.9413C20.1491 21.3641 20.7198 21.3199 21.1303 21.1468Z" fill="#FEEA93"/>
<path d="M7.82118 22.4201C7.7244 23.836 7.11702 22.3454 6.82333 22.6374C7.107 22.2707 7.49079 22.4948 7.82118 22.4201Z" fill="#C6CFCC"/>
</svg>
