<svg width="46" height="47" viewBox="0 0 46 47" fill="none" xmlns="http://www.w3.org/2000/svg">
<path d="M26.0635 46.4874C25.0138 47.1559 23.9561 47.176 22.8945 46.5156C22.5262 45.7949 21.7656 45.2795 21.7815 44.3534C22.5143 42.1911 24.1383 40.5281 24.9504 38.4101C25.7347 36.5941 26.9072 35.0398 28.1312 33.5178C28.6818 32.9057 29.2839 32.342 29.8424 31.734C30.5514 31.2186 30.9317 30.1556 32.0685 30.3649C32.6073 31.3313 31.5259 31.8387 31.3991 32.5876C32.0567 33.1956 32.8212 31.6212 33.3836 32.7769C33.3361 33.856 32.433 34.3311 31.8546 35.0438C31.308 35.5633 30.7336 36.0465 29.981 36.2317C28.353 35.9659 27.2954 36.4129 27.4934 38.2329C27.2914 38.5752 27.7707 38.5389 27.5093 38.4826C27.4617 38.4705 27.4617 38.402 27.5449 38.2933C27.9371 37.7739 28.0282 36.4733 29.0977 37.6652C29.2244 38.2732 28.9789 38.8007 28.7491 39.3282C27.9767 40.6247 27.6162 42.1146 26.8913 43.4313C26.7052 43.7695 26.519 44.1722 26.1981 44.3332C24.8712 44.9936 25.5445 45.7345 26.0635 46.4874Z" fill="#FCDCD2"/>
<path d="M14.2197 43.2742C13.9463 43.0165 13.9384 42.4729 13.4076 42.489C12.8531 41.9092 12.8531 41.9092 13.8354 40.4355C13.9939 40.2261 14.1682 40.0248 14.3306 39.8194C14.7069 39.3322 14.9129 38.7523 15.1782 38.2047C16.3745 35.676 17.7728 33.2963 19.8049 31.3555C20.3436 30.7273 20.4268 29.8012 21.1318 29.2858C22.6014 28.5087 22.6925 27.0027 23.0134 25.6176C23.2827 24.8968 23.7185 24.2848 24.2374 23.7291C25.299 22.9963 25.7188 21.4782 27.1845 21.2366C27.3786 21.2689 27.5489 21.3494 27.6994 21.4742C27.9054 22.1587 27.4221 22.5453 27.0775 22.9963C25.6317 24.3854 25.1564 26.3142 24.376 28.0698C22.9104 30.1233 21.5755 32.2816 19.7613 34.0614C18.5611 35.2371 17.7292 36.6867 16.8776 38.1161C16.4062 38.9054 16.0814 39.7832 15.5625 40.5442C15.1782 41.1079 15.3248 41.5186 15.7724 41.9173C15.9229 42.187 15.8516 42.4166 15.6575 42.63C15.3288 42.8877 14.9842 43.1333 14.6475 43.387C14.4771 43.4554 14.3345 43.4192 14.2197 43.2742Z" fill="#D55B51"/>
<path d="M27.6994 1.44589C28.3253 1.48616 29.1373 1.05934 29.3631 2.12236C27.9054 3.10888 27.9846 5.03359 26.927 6.25768C26.7804 6.39056 26.5507 6.26976 26.4041 6.42277C26.5111 6.45096 26.618 6.48317 26.725 6.53149C26.5586 7.3046 26.82 7.8804 27.4736 8.29111C27.6162 8.64948 27.6241 9.00785 27.4459 9.35816C27.335 9.50312 27.1924 9.57963 27.0181 9.59171C26.3447 9.91383 26.0674 11.3554 24.8751 10.397C24.8276 10.3568 24.376 11.2466 24.479 11.6211C24.9226 13.1995 23.8016 13.9163 22.95 14.8021C22.6569 14.7216 22.4469 14.5364 22.3004 14.2746C21.8409 12.7606 23.2827 11.5688 22.9817 10.083C23.3144 7.4254 24.5305 5.13023 25.8773 2.89547C26.3011 2.19484 26.8676 1.63917 27.6994 1.44589Z" fill="#F0887A"/>
<path d="M38.7589 4.62288C39.1828 4.91682 39.6066 5.21076 40.0304 5.50471C40.6167 6.37043 40.1849 7.16367 39.8284 7.93677C39.2144 9.25347 38.5846 10.5661 37.9033 11.8506C37.2972 12.6237 36.9447 13.5378 36.5288 14.4236C36.3387 14.6813 36.101 14.8706 35.796 14.9672C35.0552 15.092 34.5759 14.8142 34.4215 14.0411C34.3977 12.2936 35.6851 11.0815 36.2119 9.55547C36.4654 8.8186 36.8774 8.14213 37.0517 7.36902C37.2735 6.61605 37.3844 5.82281 37.7409 5.1101C37.9706 4.71549 38.446 4.84837 38.7589 4.62288Z" fill="#FCE4DB"/>
<path d="M13.8235 15.1122C13.9265 14.6089 14.0969 14.1418 14.5128 13.8076C15.4476 13.8035 15.3327 12.4184 16.2755 12.4264C17.9392 12.5271 18.0818 13.5015 17.4519 14.7337C16.4577 16.6785 15.6021 18.6959 14.4454 20.5521C13.6572 21.3051 13.3126 22.7909 11.74 22.2473C12.148 20.1776 13.3918 18.3898 13.6889 16.2799C13.7443 15.8933 13.9622 15.5269 13.8235 15.1122Z" fill="#E29B79"/>
<path d="M6.20627 26.7329C6.87174 26.0565 7.53721 25.376 8.20664 24.6995C8.5473 24.7398 8.89192 24.768 9.22466 24.8727C9.92182 25.0981 11.1894 24.9008 10.31 26.3464C10.306 26.3504 10.6229 26.2055 10.817 26.2336C11.0111 26.2739 11.1379 26.3867 11.2131 26.5679C11.2805 26.9141 11.2409 27.2725 11.0032 27.502C9.54155 28.9033 8.62256 30.7716 7.10545 32.1205C6.35679 32.1527 6.08743 31.4038 5.53684 31.1099C4.78422 30.7072 4.73669 30.1636 5.25956 29.5355C5.6319 29.0885 6.03198 28.6617 6.01613 28.0174C6.00029 27.5745 6.25776 27.1799 6.20627 26.7329Z" fill="#DF8F6C"/>
<path d="M27.6994 1.44589C25.2673 3.88601 24.1978 7.03079 23.2986 10.2641C22.8193 11.8265 22.4351 13.4452 21.0051 14.476C20.2168 14.4035 19.8049 13.8841 19.5355 13.1995C19.48 12.5593 19.8643 12.1003 20.1534 11.597C21.4765 9.8937 22.6212 8.08173 23.4016 6.04427C24.2651 4.39337 24.5582 2.49281 25.5921 0.914382C25.7941 0.797611 25.9684 0.829824 26.115 1.00699C26.7091 0.894249 27.2122 1.1439 27.6994 1.44589Z" fill="#FBE6DC"/>
<path d="M37.4438 11.8547C38.1964 9.69237 39.8443 7.90456 40.0304 5.50471C40.585 5.34364 41.0603 5.54497 41.5198 5.82684C41.8407 6.07246 42.1853 6.29795 42.2724 6.74087C42.3913 7.25225 42.3517 7.7596 42.2328 8.26695C41.6268 9.94202 41.7139 11.9312 40.0938 13.1472C39.7888 13.2479 39.5432 13.1512 39.3412 12.9096C39.06 12.2613 38.5212 12.0963 37.8835 12.1325C37.7052 12.0882 37.5587 11.9956 37.4438 11.8547Z" fill="#EC7F73"/>
<path d="M31.6091 34.8184C32.1478 34.158 32.6825 33.4976 33.2212 32.8373C34.1204 30.5461 35.5543 28.5771 36.9209 26.5679C37.4834 26.0967 37.8637 25.2753 38.8104 25.5532C39.155 25.9115 38.3826 26.6725 39.262 26.8376C39.06 27.4175 38.8975 28.0255 38.3668 28.412C36.4614 29.314 36.0059 31.4078 34.7978 32.8816C34.7265 33.9849 34.0927 34.7056 33.2252 35.2613C32.6508 35.2492 31.9616 35.6639 31.6091 34.8184Z" fill="#F08F7C"/>
<path d="M26.111 1.01102C25.9922 1.01102 25.8773 1.03115 25.7664 1.07545C23.6274 1.09558 22.6292 2.46865 22.0429 4.32894C21.6983 5.39196 21.3893 6.46706 20.9338 7.49385C20.5773 8.26293 20.094 8.94745 19.6068 9.63197C18.6957 10.9205 17.6896 12.1003 16.1804 12.6962C15.4753 12.8412 15.7288 14.4639 14.5088 13.8116C15.412 11.8869 17.2341 10.7916 18.5214 9.20918C20.3238 6.9865 20.712 4.1115 22.0825 1.69554C23.2273 -0.313731 24.3364 -0.531168 26.111 1.01102Z" fill="#D36F51"/>
<path d="M27.331 8.28306C26.7725 7.8643 25.8852 8.30319 25.4534 7.53411C25.5406 6.84959 26.1664 7.19185 26.4952 6.97039C26.5388 6.9422 26.5626 6.84959 26.5546 6.79322C26.5467 6.73685 26.4833 6.68853 26.4437 6.63618C26.3289 6.48317 26.3487 6.35432 26.5031 6.2456C27.0656 5.7302 27.129 5.01346 27.3271 4.32491C27.6281 3.28605 27.9133 2.11431 29.3631 2.12236C29.4661 2.05794 29.573 2.00559 29.6879 1.96532C29.8147 2.13444 29.882 2.32369 29.8899 2.53308C29.783 3.53973 29.7235 4.55846 29.3908 5.52484C28.9036 6.59994 28.7055 7.89651 27.331 8.28306Z" fill="#EB7B6E"/>
<path d="M14.1919 40.4596C14.0652 41.1884 13.1422 41.6032 13.4076 42.489C12.8887 43.1252 12.2549 43.4756 11.4152 43.3145C11.2211 43.0447 10.9359 42.8716 10.714 42.6259C10.3377 42.183 9.73168 41.9334 9.60889 41.273C9.60889 41.0918 9.6485 40.9227 9.72772 40.7616C10.1318 40.2905 10.4922 39.7751 11.0547 39.4731C12.3658 38.9255 13.5383 38.845 14.1919 40.4596Z" fill="#E4695B"/>
<path d="M9.83863 40.9428C9.83863 41.0676 9.83467 41.1884 9.81883 41.3133C9.66831 42.2595 10.4605 42.2313 10.9834 42.481C11.3478 42.642 11.4033 42.9682 11.4152 43.3185C10.1278 43.4514 9.00283 42.8555 7.82241 42.4931C7.77884 42.7588 7.84222 42.1065 7.95313 42.3481C8.06404 42.5897 8.34925 42.4327 8.1195 42.3239C7.52137 42.0501 6.95889 41.6596 6.26173 41.6716C5.54476 41.1925 5.67548 40.2019 5.07338 39.6543C4.94267 39.5013 4.90702 39.3282 4.95851 39.1309C5.2754 38.551 5.55268 37.9229 6.33699 37.8665C7.06188 38.9295 7.91352 39.8355 9.16524 40.2543C9.50194 40.367 9.7911 40.5321 9.83863 40.9428Z" fill="#E07467"/>
<path d="M31.6091 34.8184C32.0329 35.4062 32.8608 34.464 33.2252 35.2613C31.7517 36.739 30.1989 38.1484 29.1928 40.0328C28.5392 40.1657 28.5114 39.6382 28.3728 39.2315C28.5392 38.7161 28.7055 38.1967 28.8719 37.6813C29.0898 37.0129 29.2839 36.3283 30.0127 36.0223C30.5435 35.6197 31.0783 35.221 31.6091 34.8184Z" fill="#E87C69"/>
<path d="M8.99491 25.1304C8.65029 25.1424 8.35717 25.0539 8.20268 24.6995C10.7695 22.7305 12.4371 20.1857 13.0828 16.9523C13.2096 16.3161 13.57 15.7242 13.8235 15.1122C14.2474 17.3912 13.1066 19.2757 12.3064 21.2407C12.1599 21.6031 11.9499 21.9413 11.7717 22.2876C11.7637 22.3802 11.7558 22.4728 11.7519 22.5654C11.027 23.6405 10.2862 24.6874 8.99491 25.1304Z" fill="#D26E50"/>
<path d="M41.8684 8.16629C41.8961 7.67102 41.9278 7.17575 41.9555 6.68047C43.6034 5.82281 44.6055 7.23615 45.8454 7.82C45.8573 7.95691 45.8692 8.09784 45.881 8.23474C45.7662 8.37567 45.6473 8.51258 45.5285 8.64948C44.4907 9.6964 44.9977 11.6292 43.4608 12.3902C42.4586 12.0963 42.7438 11.299 42.8349 10.6225C42.9379 9.85344 43.235 9.09241 42.8864 8.30722C42.5656 8.53271 42.5695 9.26153 41.9714 9.0159C41.5872 8.85484 41.7535 8.47231 41.8684 8.16629Z" fill="#FCE2D7"/>
<path d="M38.0776 5.11413C37.8795 5.87918 37.6815 6.64826 37.4834 7.41332C36.7625 7.82806 36.2 7.53411 35.8118 6.9261C35.4395 6.34224 34.9641 6.18118 34.3383 6.28587C33.9897 5.89529 33.9699 5.44431 34.0848 4.96112C34.1561 4.77992 34.2709 4.63496 34.4333 4.53027C34.8017 4.40545 35.1741 4.28465 35.5425 4.15982C36.4694 4.26451 37.4319 4.25243 38.0776 5.11413Z" fill="#E36A60"/>
<path d="M39.262 26.8376C38.1845 26.7772 38.8302 25.9719 38.6995 25.5008C38.2519 23.9667 39.5591 22.8674 39.67 21.4702C39.8759 21.0917 40.0463 20.6729 40.5691 20.6568C41.1871 21.2004 40.8742 21.8608 40.787 22.4889C40.6721 24.0834 40.2839 25.5733 39.262 26.8376Z" fill="#E47766"/>
<path d="M28.3728 39.2315C28.6461 39.4973 28.9194 39.7671 29.1928 40.0328C28.8006 41.2408 28.4085 42.4447 28.0123 43.6527C27.6638 43.8057 27.2875 43.7333 26.927 43.7977C26.6735 43.7171 26.6061 43.4756 26.4794 43.2823C27.1092 41.9293 27.743 40.5804 28.3728 39.2315Z" fill="#EC8D7D"/>
<path d="M32.8647 2.52502C33.8352 2.83104 34.164 3.6565 34.4333 4.5343C34.4175 4.60677 34.3937 4.6712 34.3581 4.73563C34.0095 5.06581 34.3502 5.61343 33.9857 5.93958C33.0588 5.76644 32.0131 5.91945 31.3793 4.94098C31.1773 4.32089 31.3714 3.7773 31.6962 3.26189C32.0052 2.87936 32.2389 2.37604 32.8647 2.52502Z" fill="#EB8073"/>
<path d="M0.0110483 36.4532C0.498268 35.7445 0.981527 35.0358 1.46875 34.3271C1.63115 34.3915 1.76979 34.4882 1.89259 34.617C2.15799 34.9593 2.53033 35.2693 2.24513 35.7847C0.415085 37.2102 2.86703 37.5605 2.9106 38.5148C2.88684 38.704 2.79969 38.857 2.66105 38.9859C2.03915 38.9416 1.68265 39.2718 1.48855 39.8395C0.304173 39.0181 -0.0721356 37.8383 0.0110483 36.4532Z" fill="#D77F60"/>
<path d="M45.5126 8.29514C45.6354 8.26293 45.7582 8.2428 45.881 8.23474C46.4554 11.4681 44.8591 13.9122 43.0449 16.2759C42.6408 16.3202 42.5418 16.0504 42.4943 15.7282C43.5875 13.2881 44.7798 10.8883 45.5126 8.29514Z" fill="#E16D5B"/>
<path d="M22.0548 44.4741C22.5024 44.9936 22.6291 45.7143 23.2392 46.1693C23.5759 46.423 23.0015 46.3707 22.8945 46.5156C21.7419 46.6525 20.8546 46.1492 20.1099 45.3117C19.69 45.215 20.8546 44.6553 19.888 44.6111C19.4325 44.5909 18.9651 44.1077 19.4721 43.4796C20.609 43.0729 21.4804 43.3789 22.0548 44.4741Z" fill="#E78171"/>
<path d="M19.3454 43.6849C19.6028 44.6352 20.6407 44.301 21.1952 44.8003C20.9338 45.2674 20.2525 44.6956 20.1099 45.3117C19.0364 45.203 17.9035 45.6781 16.8895 44.9694C17.0202 44.5949 17.3291 44.4339 17.65 44.3131C17.7609 44.2648 17.8718 44.2849 17.9669 44.3654C17.9986 44.1319 17.8045 44.2124 17.7055 44.1842C17.4638 44.1158 17.2895 43.9547 17.1192 43.7816C16.9053 43.4393 16.6954 43.093 17.0479 42.7105C17.9035 42.2797 18.6482 42.5132 19.3295 43.1091C19.4761 43.2944 19.48 43.4876 19.3454 43.6849Z" fill="#F3A599"/>
<path d="M26.4794 43.2823C26.6141 43.4232 26.7487 43.5641 26.8874 43.7051C27.0617 44.0916 27.5093 43.8339 27.743 44.0836C27.5093 45.1224 26.8438 45.8432 26.0635 46.4874C25.1643 46.5197 25.2237 45.3439 24.1146 45.2271C25.295 44.7117 25.9248 44.0393 26.4794 43.2823Z" fill="#E68272"/>
<path d="M17.749 44.4741C17.4638 44.6392 17.1747 44.8003 16.8895 44.9654C15.8081 44.7117 14.7544 44.4137 14.2157 43.2702C14.3345 43.2621 14.4494 43.2621 14.5682 43.2621C14.9366 43.1051 15.301 42.9521 15.3684 42.477C15.4951 42.3481 15.6179 42.2233 15.7447 42.0944C16.0853 41.8408 16.3507 42.0501 16.6241 42.2354C16.8102 42.4125 16.933 42.6219 16.9449 42.8877C17.0717 43.1252 17.1945 43.3628 17.3212 43.6004C17.3569 43.9507 17.65 44.1641 17.749 44.4741Z" fill="#DD6E64"/>
<path d="M1.53609 34.8667C1.51232 34.6855 1.48855 34.5043 1.46479 34.3271C1.85694 33.6869 2.24909 33.0467 2.64124 32.4024C3.15619 31.4521 3.67114 30.5018 4.19005 29.5475C4.36038 29.4227 4.54259 29.4106 4.72876 29.5113C5.04566 30.4616 4.55447 31.2387 4.21382 32.0521C3.40178 33.0668 3.21165 34.6976 1.53609 34.8667Z" fill="#D67051"/>
<path d="M42.6963 15.8933C42.8112 16.0222 42.926 16.147 43.0449 16.2759C41.6545 18.108 41.1118 20.2582 40.791 22.4929C40.6246 21.9131 40.9494 21.2044 40.3434 20.7414C40.1572 18.4583 40.9653 16.7953 42.6963 15.8933Z" fill="#EB8674"/>
<path d="M45.8454 7.82C44.4828 7.67505 43.4172 6.48317 41.9555 6.68047C41.809 6.39459 41.6664 6.11272 41.5198 5.82684C43.231 5.88723 44.8393 6.17312 45.8454 7.82Z" fill="#F5A898"/>
<path d="M34.8017 32.8816C35.6771 31.134 36.1208 29.0281 38.3707 28.412C36.9804 29.7368 36.3664 31.7018 34.8017 32.8816Z" fill="#DF715E"/>
<path d="M4.7248 29.5999C4.54655 29.5838 4.3683 29.5636 4.19005 29.5475C4.68519 28.4765 5.27936 27.4819 6.20627 26.7329C6.95492 27.1155 6.3964 27.5383 6.24588 27.953C5.98445 28.7342 5.66359 29.459 4.7248 29.5999Z" fill="#D46F54"/>
<path d="M38.0776 5.11413C37.2576 4.72757 36.2555 4.84837 35.5425 4.16385C36.7348 3.43503 37.7132 4.26854 38.7549 4.62288C38.7272 5.06581 38.3945 5.08191 38.0776 5.11413Z" fill="#E15649"/>
<path d="M32.8647 2.52502C32.5954 2.83507 32.3221 3.14512 32.0527 3.45114C31.6368 3.30216 31.2367 3.10485 30.8208 2.96392C30.4445 2.75857 29.985 2.81091 29.6126 2.58945C29.6364 2.38006 29.6602 2.17068 29.6879 1.9613C30.8525 1.5224 31.8626 2.01364 32.8647 2.52502Z" fill="#F5AFA1"/>
<path d="M6.26173 41.6676C6.30926 41.3253 6.38056 40.9227 6.82817 41.2609C7.44611 41.724 8.1195 42.0018 8.95134 41.9817C8.63841 42.63 8.17496 42.3803 7.82241 42.485C7.20448 42.4085 6.69349 42.1186 6.26173 41.6676Z" fill="#D9695B"/>
<path d="M3.48497 39.6503C3.54438 40.0731 4.31285 40.4153 3.86524 40.8019C3.35029 41.2488 2.78385 40.7818 2.31643 40.4153C2.08272 39.7993 2.2689 39.2879 2.70462 38.845L2.70066 38.849C2.76404 38.7926 2.82346 38.7362 2.88684 38.6799C3.05716 38.7081 3.19184 38.7926 3.28691 38.9376C3.37802 39.1711 3.29483 39.449 3.48497 39.6503Z" fill="#D67E63"/>
<path d="M2.70462 38.845C2.768 39.4167 2.59371 39.9321 2.31643 40.4153C2.03915 40.2221 1.76583 40.0248 1.48855 39.8315C1.1479 38.555 1.77772 38.5148 2.70462 38.845Z" fill="#E29672"/>
<path d="M27.743 44.0795C27.2875 44.0594 27.1369 44.7923 26.6339 44.5345C26.5903 44.5144 26.7963 43.991 26.8834 43.701C27.2399 43.1695 27.6083 43.0407 28.0123 43.6527C27.9212 43.7977 27.8301 43.9386 27.743 44.0795Z" fill="#F4A79A"/>
<path d="M3.48497 39.6503C3.16808 39.4812 3.09678 39.1872 3.09678 38.857C3.9603 38.2611 4.60597 38.5309 5.09715 39.3886C5.10507 39.4771 5.10111 39.5657 5.07734 39.6503C4.54259 39.8395 4.0118 39.1671 3.48497 39.6503Z" fill="#E29672"/>
<path d="M37.1546 26.7692C35.8871 28.8228 34.8889 31.0535 33.2212 32.8413C33.0628 32.801 32.841 32.6682 32.7499 32.7286C32.2032 33.1111 31.712 33.9929 30.9832 33.2279C30.29 32.5031 31.1298 31.9997 31.5259 31.5004C31.823 31.1219 32.0289 30.7515 31.9576 30.2602C31.8507 30.1113 31.7992 29.9462 31.7952 29.761C31.8269 29.5798 31.8824 29.4106 31.9695 29.2536C32.3102 28.7301 32.6191 28.1866 32.9123 27.6309C33.5698 26.7249 34.1283 25.7344 35.0869 25.0981C35.6811 24.7478 35.8871 24.0754 36.307 23.5761C36.5169 23.3264 36.7506 23.0325 37.1071 23.1855C37.4319 23.3264 37.5191 23.6888 37.5111 24.0271C37.4913 24.9492 37.2537 25.8511 37.1546 26.7692Z" fill="#FBD5C9"/>
<path d="M19.3454 43.6849C19.3414 43.548 19.3335 43.4071 19.3295 43.2702C19.6266 40.7415 21.112 38.8973 22.7638 37.1578C23.6115 37.0249 23.5679 37.8383 23.9007 38.2531C24.1463 38.3819 24.3404 38.249 24.5384 38.1323C24.8672 38.092 25.398 37.6048 25.3029 38.4866C24.6256 40.7093 23.0847 42.4488 22.0548 44.4741C21.215 43.9869 20.3673 43.5319 19.3454 43.6849Z" fill="#EE8779"/>
<path d="M30.0761 32.032C29.6483 32.6923 29.1254 33.2601 28.4639 33.6909C27.945 33.5339 27.3944 33.3809 27.2201 34.1338C27.0815 34.7298 26.7963 35.213 26.4239 35.6921C25.093 37.4115 24.6771 37.3551 23.77 35.2532C24.1265 33.2198 25.9209 32.2011 26.923 30.6186C27.2439 30.2884 27.5053 29.8536 28.0559 29.8979C28.8204 30.5139 29.6404 31.0857 30.0761 32.032Z" fill="#EF8678"/>
<path d="M24.0829 35.213C24.4671 35.6599 24.5265 36.8921 25.196 36.4652C25.8852 36.0263 26.7963 35.2291 26.6695 34.1379C26.5942 33.5017 26.6339 33.0748 27.236 32.8977C27.8856 32.7044 28.4045 32.8735 28.4639 33.6909C27.4102 35.2895 26.3566 36.888 25.3069 38.4866C25.0732 37.9994 24.8078 38.3698 24.5543 38.4584C24.2136 38.4866 23.9799 38.7604 23.6709 38.857C23.4293 38.3215 23.1916 37.7819 22.95 37.2464C22.5816 36.3807 23.1243 35.8008 23.5719 35.1928C23.7422 35.0801 23.9165 35.0922 24.0829 35.213Z" fill="#F09082"/>
<path d="M30.0761 32.032C29.2046 31.5689 28.357 31.0776 28.0599 30.0227C27.8064 29.3824 28.2342 29.2093 28.6976 29.0563C29.7988 29.3261 31.0901 28.4201 32.0448 29.612C32.0171 29.8294 31.9893 30.0468 31.9576 30.2602C31.3278 30.8481 30.702 31.44 30.0761 32.032Z" fill="#EB7D6C"/>
<path d="M30.0127 36.0223C29.7909 36.6867 29.4265 37.2545 28.8719 37.6813C27.4974 37.488 28.0282 39.4328 26.8913 39.5053C27.5608 35.3539 27.5608 35.3539 30.0127 36.0223Z" fill="#FBD4C9"/>
<path d="M16.5409 38.0155C17.0717 36.6464 17.8084 35.3418 18.8423 34.3754C20.8902 32.4709 22.2053 29.9905 24.0512 27.945C25.2356 27.7839 25.7505 27.1074 25.5406 25.9075C25.4138 25.1908 25.5881 24.623 26.2377 24.2526C27.0221 24.5304 27.1647 25.227 27.3033 25.9317C27.4261 27.1155 26.9904 28.1423 26.4239 29.1328C26.1625 29.5516 25.8258 29.914 25.4891 30.2683C23.8809 31.5649 23.1283 33.4413 22.2251 35.221C21.7775 36.1028 21.4765 37.0894 20.6882 37.7618C19.8762 38.1202 18.9691 38.1041 18.1531 38.5108C17.5906 38.7886 16.8895 38.8087 16.5409 38.0155Z" fill="#E67568"/>
<path d="M23.3184 25.5854C23.2827 27.2443 23.1679 28.859 21.3101 29.5677C20.7753 29.0523 21.1081 28.4644 21.2111 27.8886C20.502 27.7396 19.5355 28.867 19.1394 27.4255C21.0526 23.858 23.2748 20.4877 25.4851 17.1094C25.7109 16.7671 26.0199 16.5255 26.4398 16.4571C27.6083 16.594 28.555 17.057 29.0066 18.257C29.0304 18.8972 28.8719 19.4247 28.1827 19.622C27.945 19.5777 27.7311 19.1468 27.6202 19.2797C27.331 19.6341 27.7945 19.9642 27.8182 20.3307C27.8737 20.8622 27.6043 21.2205 27.2162 21.5185C26.008 21.9856 25.6238 23.3909 24.5226 23.9788C23.8492 24.3049 22.443 24.0593 23.3184 25.5854Z" fill="#EA7A6C"/>
<path d="M26.8795 26.0202C26.8082 25.3679 26.5903 24.7841 26.0793 24.3492C25.8179 23.556 26.7923 23.3587 26.8438 22.7184C27.1092 22.3238 27.3746 21.9292 27.64 21.5346C28.3649 19.5012 29.3789 17.6167 30.5554 15.8209C30.6188 15.8249 30.698 15.8531 30.7455 15.8249C31.3318 15.4947 31.0268 14.0653 31.9022 14.4236C32.8132 14.7941 32.4647 15.9296 32.2864 16.7591C31.9972 18.1281 31.6804 19.5012 30.9 20.689C30.4801 21.3252 30.3019 22.0097 30.3177 22.7627C29.5413 24.2526 29.1254 26.137 26.8795 26.0202Z" fill="#E56B60"/>
<path d="M16.5409 38.0155C17.951 38.9658 19.0681 36.8437 20.4624 37.6249C19.7851 39.7308 19.0166 41.7683 16.6241 42.4729C16.3309 42.3481 16.0418 42.2233 15.7487 42.0985C14.7346 41.9092 13.9305 41.72 15.0594 40.4798C15.6892 39.7912 16.0537 38.849 16.5409 38.0155Z" fill="#EE8478"/>
<path d="M19.3058 27.5141C20.3555 28.3637 20.9417 26.9665 21.9439 26.9786C22.0429 27.9208 21.1041 28.6295 21.3101 29.5677C20.7159 30.1233 20.8823 31.138 20.1257 31.5971C19.5038 31.5608 18.8463 31.2266 18.3075 31.8346C17.6658 32.1366 17.1747 32.6521 16.632 33.095C16.2993 33.2681 15.9665 33.4856 15.6338 33.103C16.0576 30.8522 17.543 29.2013 18.7512 27.3973C18.9493 27.3692 19.1354 27.4014 19.3058 27.5141Z" fill="#F08B7D"/>
<path d="M15.6575 33.1433C15.9586 33.0346 16.2557 32.9259 16.5567 32.8171C17.3291 32.7487 17.5351 31.9071 18.1412 31.6132C18.7987 30.9488 19.4563 30.1676 20.1257 31.6011C18.0976 33.5661 16.8578 36.0948 15.3803 38.4544C14.7623 37.1256 14.4771 35.7243 14.5009 34.2587C14.5445 34.0654 14.6158 33.8802 14.7029 33.703C14.9247 33.3487 15.2099 33.103 15.6575 33.1433Z" fill="#EC766A"/>
<path d="M30.8089 15.8853C29.9691 17.8905 28.7412 19.6783 27.64 21.5346C27.4974 21.5306 27.3588 21.5266 27.2162 21.5225C27.3469 21.1078 27.4815 20.689 27.6162 20.2743C27.5093 19.8676 27.7113 19.6542 28.0638 19.5294C28.3134 19.1146 28.559 18.7039 28.8085 18.2892C28.6778 17.4114 29.1333 16.6705 29.3354 15.8692C29.6008 15.092 29.9137 14.323 29.9414 13.4814C29.9573 13.1995 29.9969 12.9257 30.0563 12.6479C30.393 11.4641 31.0901 10.4695 31.6843 9.42259C32.0725 8.71391 32.5558 8.0616 32.9043 7.32473C33.1816 6.76503 33.3163 6.10064 33.954 5.79462C34.0491 5.42417 33.8511 4.93696 34.362 4.72757C34.3819 5.2309 34.4017 5.73422 34.4215 6.23755C34.9523 7.18783 34.3106 7.95288 34.0372 8.77833C33.859 9.13267 33.6332 9.4548 33.3955 9.7729C31.9378 11.5567 31.8031 13.9082 30.8089 15.8853Z" fill="#D3564C"/>
<path d="M14.9842 34.0291C14.6831 35.5431 15.7962 36.9283 15.3763 38.4504C15.301 39.0825 15.0871 39.6422 14.5682 40.0409C13.57 39.2798 13.3086 37.9511 12.3856 37.1296C12.6946 35.6116 13.3839 34.4238 14.9842 34.0291Z" fill="#EF8377"/>
<path d="M12.552 37.2142C13.883 37.6692 14.3979 38.7282 14.5682 40.0409C14.4415 40.1818 14.3147 40.3227 14.188 40.4596C13.3126 39.4691 12.1044 39.8556 11.0349 39.6583C10.8804 38.4222 11.2092 37.492 12.552 37.2142Z" fill="#EB7568"/>
<path d="M26.8438 22.7184C27.2874 23.6003 26.1031 23.6969 26.0793 24.3492C25.4772 25.372 26.4635 26.4994 25.7268 27.6389C25.1128 28.5852 24.7008 28.3436 24.0552 27.945C24.681 26.0363 25.1603 24.0432 26.8438 22.7184Z" fill="#EC8476"/>
<path d="M23.3184 25.5854C22.8549 25.2552 21.9874 24.8767 22.4509 24.325C22.8153 23.8902 23.7224 23.3868 24.5265 23.9828C24.1225 24.5183 23.7185 25.0539 23.3184 25.5854Z" fill="#F19384"/>
<path d="M15.3723 42.481C15.4951 42.8434 16.2359 42.9601 15.9546 43.387C15.5427 44.0111 15.0356 43.4071 14.5722 43.2662C14.592 42.7467 14.8455 42.4689 15.3723 42.481Z" fill="#E87E73"/>
<path d="M22.954 14.7015C24.5226 13.2801 23.5046 10.9084 24.8197 9.38232C25.6871 10.393 25.6872 10.393 26.523 9.10449C26.5507 9.0602 26.6022 9.03604 26.6418 9.00382C26.721 9.16489 26.8002 9.32595 26.8795 9.48701C27.4459 10.5178 26.7012 11.3272 26.4437 12.2211C26.2932 12.5674 26.1585 12.9177 26.0318 13.276C25.3584 14.6089 24.9821 16.1148 23.8333 17.1698C22.7361 16.7711 22.0627 18.5388 20.8902 17.7697C20.5575 17.661 20.2168 17.7617 19.8801 17.7617C19.488 17.7254 19.2146 17.5442 19.1235 17.1295C19.1473 16.3322 19.4563 15.7202 20.2049 15.39C20.8308 15.7403 21.0526 14.8786 21.5715 14.9108C22.0429 14.9149 22.4865 14.7498 22.954 14.7015Z" fill="#EB7B6E"/>
<path d="M26.0159 12.2171C26.3051 11.307 26.5903 10.397 26.8795 9.49104C26.9824 9.45078 27.0854 9.41454 27.1924 9.38232C28.6937 8.65754 28.5431 7.02274 29.1135 5.78254C29.5572 4.6712 29.8662 3.48335 30.8129 2.65387C31.3991 2.64985 32.0091 2.59347 32.0527 3.45517C31.7952 3.95044 31.5734 4.45376 31.617 5.03359C31.8586 6.28587 31.0862 7.25225 30.7376 8.34346C30.2147 9.13267 30.191 10.236 29.2641 10.7675C28.6937 10.2078 27.9648 10.4131 27.3865 11.3191C27.0339 11.8708 27.0141 12.7808 26.004 12.5633C25.9763 12.5553 25.9486 12.4586 25.9525 12.4063C25.9525 12.3378 25.9922 12.2774 26.0159 12.2171Z" fill="#FBD9CC"/>
<path d="M21.7181 15.0961C21.2705 15.0719 21.0487 16.0947 20.4545 15.3699C20.1851 14.8303 20.4664 14.5243 20.8981 14.2746C21.6983 12.9378 22.4984 11.601 23.2986 10.2641C24.0393 11.8144 22.2053 12.8653 22.5341 14.335C22.6331 14.9994 22.1419 15.0075 21.7181 15.0961Z" fill="#EB7465"/>
<path d="M29.2403 5.83489C28.9551 7.11535 29.4106 8.68572 27.8499 9.47091C27.5766 9.60781 27.3825 9.65613 27.1963 9.3783C27.2399 9.01188 27.2875 8.64546 27.331 8.27903C27.945 7.38513 28.6065 6.52344 28.9036 5.44833C29.2244 5.38794 29.4423 5.42417 29.2403 5.83489Z" fill="#FCE2DA"/>
<path d="M21.7181 15.0961C21.9914 14.8424 22.2608 14.5887 22.5341 14.3391C22.6727 14.4599 22.8153 14.5847 22.954 14.7055C22.6331 15.1363 22.3954 15.8249 21.7181 15.0961Z" fill="#F5B8A8"/>
<path d="M26.5031 6.24157C26.4754 6.37043 26.4556 6.5033 26.4437 6.63215C26.1348 6.62813 25.7783 6.78114 25.5683 6.42277C25.5287 6.35835 25.6198 6.15702 25.707 6.08051C26.0238 5.79462 26.2892 5.91542 26.5031 6.24157Z" fill="#F9C5B9"/>
<path d="M33.6094 8.66156C33.8788 7.85624 34.1481 7.0469 34.4175 6.24157C34.6195 5.92347 34.8176 5.6094 35.0632 5.22285C35.8752 5.95971 36.1247 7.35292 37.4834 7.41332C37.0873 9.77693 35.5029 11.6211 34.7502 13.8277C34.5126 14.8907 34.6393 16.1108 33.5104 16.7872C32.4013 17.1657 32.8608 18.2167 32.6152 18.9697C31.9814 20.387 31.8586 22.1668 30.0286 22.7345C29.4463 21.8849 29.9573 21.2407 30.3969 20.5602C31.5457 18.7804 31.922 16.7832 31.7833 14.625C31.5457 15.1967 31.312 15.7685 31.0703 16.3363C31.0703 16.3363 30.9317 16.3081 30.9159 16.2678C30.8683 16.147 30.8446 16.0101 30.8129 15.8813C31.1416 13.5619 31.3991 11.2185 33.1697 9.44675C33.344 9.20515 34.1244 9.30984 33.6094 8.66156Z" fill="#EB796D"/>
<path d="M33.2886 16.7953C33.7758 15.8048 34.263 14.8182 34.7463 13.8277C34.8017 14.637 35.3484 14.7216 35.9782 14.6934C36.307 14.9994 36.3228 15.386 36.2673 15.7967C36.1644 16.2759 36.0099 16.7389 35.8356 17.198C35.1543 18.0758 35.1701 19.4086 34.0689 20.0166C33.4549 19.5575 33.0351 18.9254 32.6073 18.3012C32.536 17.665 32.7974 17.1778 33.2886 16.7953Z" fill="#FAD2C9"/>
<path d="M39.5155 12.664C39.6462 12.8009 39.773 12.9378 39.9037 13.0747C40.0978 14.6451 39.1867 15.5189 37.9944 16.2195C37.4517 16.2155 36.7744 16.4329 36.7981 15.4867C36.9289 15.2209 37.2774 15.0719 37.2061 14.7055C36.917 14.5444 36.5565 14.5444 36.3307 14.2746C36.3981 13.3244 36.7308 12.4949 37.4438 11.8506C37.6141 11.8587 37.7884 11.8708 37.9627 11.8788C38.2756 12.5633 38.9134 12.5714 39.5155 12.664Z" fill="#F08C7E"/>
<path d="M36.3307 14.2746C36.8694 14.4599 37.42 13.5499 37.9508 14.2988C37.7171 14.5485 37.5943 14.9028 37.2656 15.0639C36.6318 15.0276 36.707 16.2477 35.8792 15.8772C35.9109 15.4826 35.9465 15.092 35.9782 14.6974C36.097 14.5565 36.2119 14.4156 36.3307 14.2746Z" fill="#EE8175"/>
<path d="M16.1844 12.6962C17.2301 11.6131 18.2719 10.5299 19.3176 9.44675C19.6979 9.40648 20.0544 9.08838 20.4664 9.32192C20.5971 9.43467 20.6684 9.57157 20.6803 9.74472C20.6525 10.24 20.3911 10.6749 20.3555 11.1661C20.3673 11.3997 20.3555 11.6372 20.4584 11.8587C20.2089 12.2533 19.9593 12.6439 19.7098 13.0385C19.5513 13.6304 19.2107 14.1055 18.7908 14.5364C17.5272 15.837 16.6835 17.3792 16.2081 19.1428C15.8081 20.6286 15.1347 21.9816 14.1761 23.1815C13.6928 23.721 13.2888 24.313 12.9719 24.9693C12.5005 25.6417 12.0925 26.3987 11.1418 26.4712L11.023 26.3706C10.8606 24.9612 11.4984 23.7935 12.1163 22.6178C13.3997 22.4245 13.5859 21.1964 14.1761 20.3508C15.1069 18.5227 15.8596 16.602 16.9608 14.8545C17.5272 13.9485 17.7094 12.9418 16.1844 12.6962Z" fill="#DF8F6C"/>
<path d="M14.1761 20.3508C13.9028 21.4782 13.8909 22.8231 12.2114 22.7587C11.839 22.8473 11.6845 22.7063 11.7677 22.3198L11.7756 22.2916C13.0115 22.207 13.269 20.8622 14.1761 20.3508Z" fill="#EBB79A"/>
<path d="M11.1379 26.4712C11.641 25.9115 12.1401 25.3478 12.6431 24.7881C13.6492 24.8525 14.0612 25.6136 14.4652 26.3826C14.5247 27.4255 13.9146 28.0174 13.1066 28.4805C11.2092 27.953 10.5477 28.3436 9.20485 30.8079C9.89805 31.275 10.4645 29.6563 11.1735 30.675C11.2646 31.0776 11.1022 31.4078 10.8844 31.7179C10.4883 32.2091 10.005 32.6239 9.64454 33.1473C8.38886 34.6895 7.89371 36.7753 6.24984 38.0316C5.86561 38.4826 5.47742 38.9376 5.09319 39.3886C4.42772 39.2114 3.76225 39.0342 3.09281 38.857V38.853C2.72839 38.3054 2.97398 37.79 3.17204 37.2706C3.5325 36.5498 3.98803 35.8894 4.40395 35.2049C4.54259 34.9794 4.69708 34.766 4.8476 34.5526C5.4695 33.6104 5.84185 32.4588 6.97869 31.9554C8.06008 29.8858 9.8426 28.3677 11.1379 26.4712Z" fill="#FCE4D5"/>
<path d="M6.97869 31.9554C6.34491 32.9138 5.71509 33.8681 5.08131 34.8264C4.68519 34.6935 4.52279 34.4076 4.55051 33.9929C4.64558 33.6788 4.82383 33.4131 5.01397 33.1513C5.17241 32.9259 5.38235 32.7688 5.62398 32.648C5.31105 32.7044 4.99812 32.7648 4.68123 32.648C4.34453 32.5151 4.03953 32.342 3.86524 31.9997C4.1544 31.1984 4.4396 30.3972 4.72876 29.5999C5.25956 29.0724 5.52891 28.2953 6.24984 27.949C7.22428 29.3382 5.40216 29.4429 5.1328 30.4777C6.1825 30.4213 6.43602 31.3515 6.97869 31.9554Z" fill="#E69E7C"/>
<path d="M11.7637 22.3198C11.9103 22.4648 12.0608 22.6137 12.2074 22.7587C12.2312 24.1076 11.5538 25.2149 11.0191 26.3706C10.9596 26.3947 10.9002 26.435 10.8368 26.4471C10.314 26.5518 10.0208 27.7154 9.49798 27.1034C8.72952 26.2014 10.1753 26.3102 10.3615 25.7182C10.2031 24.8968 9.19297 25.9115 8.99491 25.1304C9.91786 24.1922 10.8408 23.258 11.7637 22.3198Z" fill="#E99F80"/>
<path d="M8.16307 28.4362C8.02839 29.4267 7.51345 29.7932 6.54693 30.4334C6.98265 29.3543 7.09753 28.6536 8.16307 28.4362Z" fill="#E69E7C"/>
<path d="M13.7483 23.0889C14.6831 21.7198 15.3921 20.2541 15.8596 18.6435C16.5211 16.3564 17.8164 14.476 19.7058 13.0385C20.1019 13.4492 20.502 13.8639 20.8981 14.2746C20.7516 14.6411 20.605 15.0035 20.4545 15.3699C20.0821 15.9497 19.7098 16.5295 19.3414 17.1094C19.0681 18.6355 17.6817 19.5616 17.3054 21.0353C16.6874 22.054 16.8538 23.4996 15.6575 24.2083C14.7584 24.2969 13.8631 24.3734 13.7483 23.0889Z" fill="#FBE3D6"/>
<path d="M21.7062 4.21619C21.9478 3.60012 22.1697 2.97198 22.439 2.36799C23.1243 0.83385 24.1978 0.286232 25.7664 1.07142C25.1999 2.8552 24.6691 4.64704 23.7066 6.26573C22.5182 6.27379 21.6507 5.38391 21.7062 4.21619Z" fill="#E69175"/>
<path d="M21.7062 4.21619C21.9122 5.08997 21.9122 5.08997 22.9421 4.1558C22.8074 5.31948 23.0094 5.87918 23.7066 6.26976C23.1322 8.4401 21.8647 10.1917 20.4545 11.8587C20.3475 11.7298 20.2366 11.601 20.1297 11.4721C19.8643 10.7192 20.9734 10.244 20.5258 9.4548L20.5297 9.45883C19.8049 8.79041 20.9219 8.11797 20.5297 7.44956C20.9219 6.37445 21.3141 5.29532 21.7062 4.21619Z" fill="#E28868"/>
<path d="M38.0736 15.9255C38.8817 15.1081 39.4204 14.1136 39.8997 13.0787C41.1039 11.6694 41.1554 9.78498 41.8644 8.17032C42.011 8.31125 41.7377 8.9998 42.3398 8.54882C42.6408 8.32333 42.5299 7.45761 43.2073 7.86832C43.5796 8.09381 43.647 8.60922 43.6668 9.10449C43.7143 10.1715 42.5576 11.1621 43.4727 12.2734C43.7777 12.817 43.5519 13.3364 43.2667 13.7472C42.2051 15.2934 41.3416 16.9765 40.1374 18.414C39.1511 18.716 39.5987 19.7146 39.262 20.3427C38.8817 21.0474 38.6044 21.9936 37.7211 21.8769C36.9764 21.7802 37.115 20.834 37.0635 20.1978C37.02 19.6703 36.9487 19.1509 36.8298 18.6355C36.7308 17.4879 37.0833 16.5497 38.0736 15.9255Z" fill="#FBD7CB"/>
<path d="M39.5155 12.664C39.1313 12.7808 39.056 13.6747 38.4618 13.1673C38.1132 12.8694 37.523 12.5472 37.9627 11.8828C38.8421 11.3956 39.5987 11.1701 39.5155 12.664Z" fill="#F4A292"/>
<path d="M40.7038 9.24945C40.6206 9.63197 40.4345 9.80512 40.1453 9.69237C39.9948 9.636 39.8958 9.43064 39.773 9.29374C39.9829 9.16891 40.1849 9.00785 40.4107 8.9394C40.482 8.91926 40.6246 9.16489 40.7038 9.24945Z" fill="#F4A593"/>
<path d="M37.1903 18.72C37.9627 19.5495 37.2774 20.6367 37.6934 21.5708C39.0718 20.9669 38.7312 19.4569 39.3055 18.4502C39.4006 18.2811 39.5432 17.1617 39.9473 18.3375C40.7197 19.4005 39.6858 20.4796 39.971 21.5467C40.0661 23.0365 39.0718 24.164 38.7074 25.5008C38.1925 25.9236 37.6775 26.3464 37.1586 26.7652C36.1129 25.7344 37.3884 24.6431 37.0715 23.5117C36.1049 23.9224 36.402 25.6095 35.0592 25.533C34.8651 23.6365 36.2634 22.1426 36.3426 20.3145C36.5327 19.7347 36.6437 19.1106 37.1903 18.72Z" fill="#FCDFD3"/>
<path d="M20.5297 7.44956C21.3814 8.11797 20.4347 8.79041 20.5297 9.45883C20.1257 9.32998 19.7177 9.93799 19.3176 9.44272C19.7217 8.77833 20.1257 8.11394 20.5297 7.44956Z" fill="#EB9A7D"/>
<path d="M29.2403 5.83489C29.1294 5.70604 29.0145 5.57719 28.9036 5.44833C29.1413 4.49806 29.3789 3.54375 29.6126 2.59347C30.0246 2.37201 30.4286 2.30356 30.8168 2.64985C30.702 3.92225 29.8701 4.82824 29.2403 5.83489Z" fill="#FCE0D5"/>
<path d="M12.552 37.2142C11.7598 37.8464 11.4191 38.7644 11.0349 39.6583C10.6507 40.0972 10.5596 40.826 9.83863 40.9428C9.55739 40.8059 9.28011 40.665 8.99887 40.5281C8.85231 39.0745 9.72376 37.943 10.1833 36.6827C10.8527 35.8935 11.3993 34.9794 12.3777 34.5083C13.162 34.2707 13.6928 33.5137 14.5365 33.3929C14.7227 33.4131 14.8812 33.4936 15.0158 33.6305C15.0119 33.7634 15.004 33.8963 14.9881 34.0291C14.0612 34.9996 13.0947 35.9378 12.552 37.2142Z" fill="#FAD2C9"/>
<path d="M10.9834 42.477C10.4011 43.0165 9.92182 42.5535 9.55739 42.2152C9.26823 41.9454 9.39895 41.5186 9.81883 41.3133C10.207 41.6998 10.5952 42.0904 10.9834 42.477Z" fill="white"/>
<path d="M10.5952 36.7672C10.0644 38.0195 9.53363 39.2758 9.00283 40.5281C7.79469 40.0288 6.15081 40.0248 6.2538 38.0316C7.25597 36.2559 8.05612 34.3472 9.47421 32.8332C10.6467 33.3003 9.52966 34.4076 10.0803 35.0479C10.1318 35.4344 10.1199 35.8451 10.4407 36.1431C10.5952 36.3243 10.7418 36.5055 10.5952 36.7672Z" fill="#ED8274"/>
<path d="M39.9671 21.5507C39.1392 20.4877 39.9591 19.4126 39.9433 18.3415C40.7593 16.1027 42.6487 14.5082 43.4687 12.2734C43.9401 11.4721 44.1777 10.5863 44.4392 9.6964C44.6016 9.14475 44.5303 8.26293 45.5047 8.29514C45.5008 11.1862 44.1381 13.5579 42.6884 15.8974C41.3376 17.2261 40.8464 18.9898 40.3315 20.7414C40.2126 21.0071 40.0899 21.2809 39.9671 21.5507Z" fill="#F39F8E"/>
<path d="M30.3692 8.17434C30.7851 7.12743 31.2011 6.08051 31.617 5.03359C32.3221 5.52081 33.3361 5.04567 33.954 5.80268C33.7203 6.35835 33.4827 6.91402 33.249 7.46969C32.8568 7.50995 32.5558 7.79182 32.1834 7.89651C31.7437 8.03744 31.4348 8.41191 31.0228 8.58506C30.6544 8.74209 30.2306 8.88705 30.3692 8.17434Z" fill="#EA7264"/>
<path d="M3.86127 31.9997C4.19797 32.0078 4.50694 32.0722 4.68519 32.4105C5.11696 32.942 5.02981 33.4735 4.68915 34.009C4.81987 34.2828 4.95059 34.5566 5.08131 34.8264C4.96643 34.9835 4.85156 35.1405 4.73669 35.2975C4.05933 35.2009 3.86524 35.9337 3.35425 36.127C3.00567 36.1552 2.76008 35.9055 2.46695 35.7807C2.40754 35.7284 2.34812 35.672 2.2887 35.6156C2.03519 35.366 1.78564 35.1163 1.53213 34.8707C2.64917 34.1983 2.98982 32.8775 3.86127 31.9997Z" fill="#E29672"/>
<path d="M3.52854 37.2585C3.38198 37.79 3.23542 38.3215 3.09281 38.853H2.89872L2.70462 38.849C2.66897 38.4061 2.46299 38.1484 2.02331 37.9994C1.49648 37.8182 0.724053 37.7336 0.811198 36.9484C0.898343 36.1471 1.48855 35.7002 2.30059 35.6116L2.33228 35.6438C2.15006 36.4773 2.91852 36.0827 3.19184 36.3324C3.45724 36.582 3.48893 36.9202 3.52854 37.2585Z" fill="#E29672"/>
<path d="M16.6241 42.477C18.5531 41.3938 19.0998 39.1792 20.4624 37.6289C21.3339 35.9136 22.2172 34.2063 23.0649 32.4789C23.5759 31.436 24.2691 30.5784 25.2316 29.9462C27.0022 30.9407 25.4851 31.9192 25.1286 32.789C24.7761 33.6547 23.6472 34.1137 23.7462 35.2814C23.4808 35.9378 23.2154 36.5901 22.954 37.2464C21.5398 39.1228 20.4505 41.2045 19.3374 43.2702C18.5492 43.097 17.7847 42.7669 16.9528 42.8957C16.838 42.7548 16.731 42.6139 16.6241 42.477Z" fill="#FCDFD8"/>
<path d="M17.749 44.4741C17.5549 44.2124 16.8855 44.1923 17.3212 43.6044C17.7569 43.8259 18.1887 44.0514 18.7076 44.3131C18.3392 44.3775 18.0461 44.4258 17.749 44.4741Z" fill="white"/>
<path d="M36.7704 20.3307C36.6952 22.2352 35.7247 23.8338 35.0552 25.533C34.4215 26.3383 33.7916 27.1437 33.1579 27.945C32.0804 28.0174 32.0646 28.8107 32.0646 29.612L32.0369 29.6039C31.1733 29.4348 30.286 29.2496 29.4463 29.5878C28.7887 29.8536 28.864 29.4106 28.7887 29.0523C28.3847 27.8161 29.5136 27.3168 30.0048 26.5316C30.9396 25.0337 32.1161 23.7009 32.9836 22.1547C33.6926 21.8567 34.5522 22.1225 35.3206 21.4742C34.9008 20.9548 33.9105 21.591 33.752 20.7333C33.7045 20.4313 33.7639 20.1615 33.9976 19.9522C34.4928 18.9737 34.6987 17.8342 35.5306 17.0369C36.5011 17.9268 36.1406 19.32 36.7704 20.3307Z" fill="#EE8175"/>
<path d="M32.0685 29.616C31.8071 29.0966 31.0981 28.6979 31.6645 27.953C32.1795 27.2725 32.6627 27.7839 33.1618 27.949C32.8885 28.5691 32.6786 29.2254 32.0685 29.616Z" fill="#F19888"/>
<path d="M23.0213 41.7038C22.8589 42.0542 22.8312 42.5535 22.3479 42.5696C22.2013 42.5736 21.9874 42.2193 21.9082 41.9897C21.7181 41.4381 22.0746 41.2931 22.5182 41.2891C22.7797 41.2851 23.0411 41.3294 23.0213 41.7038Z" fill="#F29C8D"/>
<path d="M22.7559 39.0503C22.946 39.7228 22.9896 40.3106 22.4311 40.363C21.6547 40.4314 22.1023 39.9482 22.2766 39.6624C22.3756 39.4973 22.5103 39.3604 22.7559 39.0503Z" fill="#F09082"/>
<path d="M23.667 38.857C23.7858 38.3255 23.9046 37.7819 24.5503 38.4584C24.3879 38.8852 24.3087 39.5174 23.667 38.857Z" fill="#F5B3A6"/>
<path d="M33.1618 22.3198C32.33 24.9814 30.1038 26.7168 28.7966 29.0603C28.5511 29.3784 28.3055 29.7006 28.0599 30.0227C27.8024 30.2925 27.5449 30.5582 27.2914 30.828C26.2536 30.7636 26.3368 29.8052 26.008 29.1731C26.214 28.098 27.1211 27.2242 26.8834 26.0202C28.4005 25.3881 29.1888 24.0351 30.0325 22.7345C31.0901 21.5547 31.8031 20.1656 32.3537 18.6838C32.2943 18.3415 32.429 18.2127 32.7617 18.3012C33.5104 18.5952 34.1323 18.9858 34.0055 19.9562C33.9857 20.1978 33.9659 20.4353 33.9461 20.6769C33.7956 21.2769 33.8352 21.9735 33.1618 22.3198Z" fill="#FBDAD1"/>
<path d="M26.004 29.1731C27.1726 29.1328 26.5943 30.4857 27.2875 30.828C26.3011 32.3541 24.8276 33.5097 24.0789 35.213C23.9641 35.2331 23.8492 35.2573 23.7383 35.2814C23.0847 34.4318 23.6789 33.9325 24.1661 33.2802C24.883 32.3259 26.0912 31.4521 25.2237 29.9502C25.4891 29.6885 25.7466 29.4308 26.004 29.1731Z" fill="#FACDC3"/>
<path d="M20.3475 35.4465C20.6327 36.1028 20.3634 36.433 19.9435 36.6505C19.8484 36.6988 19.5236 36.5538 19.5157 36.4733C19.4682 35.9498 19.8167 35.6921 20.3475 35.4465Z" fill="#F08F81"/>
<path d="M23.663 17.0892C24.3404 15.7605 25.0217 14.4277 25.699 13.0989C26.5031 13.6988 27.5608 12.4546 28.3055 13.4693C28.3807 13.7472 28.3728 14.029 28.2975 14.3069C27.8777 15.2732 27.3271 16.1269 26.3843 16.6544C24.9306 19.5374 22.3954 21.7279 21.3141 24.8485C20.9259 25.9639 19.8999 26.5719 19.3058 27.5181C19.175 27.5222 19.0404 27.5222 18.9096 27.5262C18.5848 27.4014 18.1531 27.498 17.9708 27.0672C17.7569 26.1491 18.3472 25.4726 18.6403 24.7035C19.1394 23.7291 19.6702 22.7748 20.2604 21.8567C21.0764 20.689 21.8884 19.5133 22.6014 18.2731C22.8747 17.8019 23.1401 17.3228 23.663 17.0892Z" fill="#FBD6CC"/>
<path d="M26.3843 16.6503C26.6774 15.6719 27.4657 15.0478 28.0321 14.2626C28.5471 13.9888 28.7689 12.9137 29.5176 13.421C30.496 14.0854 29.6602 15.0639 29.6562 15.9054C29.7236 16.8275 29.2244 17.5442 28.8046 18.2851C28.1866 17.4597 27.2439 17.1174 26.3843 16.6503Z" fill="#EE8676"/>
<path d="M28.0638 19.5294C27.9133 19.779 27.7667 20.0246 27.6162 20.2743C27.1211 20.0327 26.7329 19.6783 26.9666 19.0905C27.0577 18.8609 27.4578 18.6073 27.6954 18.6234C28.25 18.6717 27.9727 19.2072 28.0638 19.5294Z" fill="#F4AB9E"/>
<path d="M25.5287 21.4621C25.1564 20.6165 25.5049 20.2139 25.8496 19.8354C25.8812 19.8032 26.2259 19.9481 26.2734 20.0729C26.5348 20.7333 25.9922 20.9628 25.5287 21.4621Z" fill="#F3A895"/>
<path d="M18.0857 27.1396C18.359 27.2685 18.6363 27.3933 18.9096 27.5222C18.0976 29.5596 16.7508 31.275 15.6575 33.1433C15.4436 33.3044 15.2297 33.4694 15.0158 33.6305C14.8772 33.6225 14.7386 33.6144 14.5999 33.6064C14.2593 32.7165 14.9366 32.0118 15.004 31.1944C15.5942 29.8214 16.4973 28.6536 17.3529 27.4497C17.5549 27.2403 17.7768 27.0792 18.0857 27.1396Z" fill="#FCE5DB"/>
<path d="M18.1412 31.6092C17.6619 32.0762 17.8718 33.4775 16.5567 32.8131C16.9251 32.197 17.3212 31.6172 18.1412 31.6092Z" fill="#F4A090"/>
<path d="M29.6562 15.9094C29.1809 15.2289 30.088 14.3673 29.371 13.719C28.7253 13.3928 28.7966 14.8947 28.0321 14.2626C28.0599 14.029 28.0876 13.7955 28.1153 13.5579C28.25 12.4989 28.3015 11.4037 29.2284 10.6588C29.6087 9.82928 29.9889 8.9998 30.3692 8.17032C31.308 8.68572 31.4546 6.85765 32.4211 7.45358C32.6389 8.20656 32.2032 8.82665 32.0171 9.49909C31.4902 10.5541 30.9594 11.609 30.4326 12.66C30.0167 12.8895 30.2028 13.1633 30.3811 13.4371C30.4128 14.3471 30.2068 15.1806 29.6562 15.9094Z" fill="#ED7C6D"/>
<path d="M32.0171 9.50312C31.9972 8.79041 31.9893 8.07771 32.4211 7.45761C32.6984 7.38916 32.9756 6.99858 33.249 7.46969C33.0192 8.2589 32.5795 8.91926 32.0171 9.50312Z" fill="#F19A8B"/>
<path d="M33.6094 8.66156C34.1363 8.73404 34.8493 8.88705 34.5601 9.52728C34.2987 10.1031 33.6609 9.334 33.1658 9.45078C33.3163 9.18905 33.4629 8.92732 33.6094 8.66156Z" fill="#ED9284"/>
<path d="M30.3811 13.4411C30.0801 13.1955 29.3354 13.3083 29.5809 12.6398C29.7236 12.2493 30.1395 12.5956 30.4326 12.664C30.4167 12.9257 30.4009 13.1834 30.3811 13.4411Z" fill="#F4A294"/>
<path d="M20.609 21.9977C20.0742 22.9238 19.5395 23.8499 19.0087 24.776C17.8639 25.4404 17.1113 24.7317 16.9845 23.7895C16.8895 23.0929 15.9586 21.7037 17.749 21.5185C17.9114 21.6433 18.054 21.8165 18.2917 21.7923C18.2402 21.6796 18.1491 21.6232 18.0144 21.6192C17.6579 21.3131 17.1113 21.2568 16.9528 20.7253C17.3727 19.2636 18.4858 18.2731 19.3454 17.1094C19.5197 17.4396 19.8207 17.4959 20.1455 17.508C21.1437 17.5966 20.7278 18.1362 20.3475 18.422C19.8484 18.7965 19.282 19.0985 18.7353 19.3804C18.6918 19.4287 18.6561 19.4609 18.6403 19.469C18.672 19.4005 18.7472 19.3965 18.8106 19.3522C19.5078 19.2757 19.8405 19.7951 20.2327 20.2139C20.4783 20.7816 20.4386 21.4138 20.609 21.9977Z" fill="#EB8D7D"/>
<path d="M29.2284 10.6628C28.9591 11.6694 28.7808 12.7123 28.1153 13.5619C27.3548 13.1633 26.313 14.2907 25.703 13.0989C25.8099 12.8049 25.9129 12.511 26.0199 12.2171C27.2162 12.1728 27.0854 10.7755 28.0242 10.2078C29.1254 9.53936 28.8363 10.6265 29.2284 10.6628Z" fill="#F9C8BE"/>
<path d="M23.663 17.0892C23.4372 17.5281 23.2075 17.967 22.9817 18.4059C22.0152 18.5831 22.0627 20.0488 20.9615 20.0528C19.9871 19.7106 18.8265 19.4367 20.5337 18.3616C20.9417 18.1039 20.5337 17.4677 20.9021 17.1215C21.417 17.7254 21.9043 17.7415 22.3598 17.053C22.8114 16.3806 23.2431 16.5537 23.663 17.0892Z" fill="#EF8C7E"/>
<path d="M20.9021 17.1255C20.8546 17.5805 20.9496 18.3375 20.7397 18.4381C19.2186 19.175 21.0645 19.4206 20.9061 19.9199C20.7674 20.2823 20.5654 20.528 20.1376 20.3508C19.6068 20.077 19.072 19.7991 18.5413 19.5253L18.5452 19.5294C18.9691 18.8609 19.2582 18.0677 20.2842 18.0798C20.4981 18.0838 20.3871 17.6691 20.1376 17.5161C20.296 17.1859 20.5892 17.1295 20.9021 17.1255Z" fill="#F3AB9A"/>
<path d="M32.7578 18.3012C32.6231 18.4301 32.4845 18.5589 32.3498 18.6838C32.025 17.7254 32.326 17.0933 33.2886 16.7953C33.1143 17.2986 32.936 17.7979 32.7578 18.3012Z" fill="#E16354"/>
<path d="M36.7704 20.3307C35.3365 19.63 35.9188 18.1482 35.5385 17.0409C35.594 16.6342 35.483 16.1752 35.8792 15.8732C36.3149 15.4786 36.7546 15.088 37.1903 14.6934C37.4042 14.9833 37.3884 15.2491 37.123 15.4987C37.1546 16.3 37.7845 15.7202 38.0776 15.9255C37.8399 16.8758 37.0398 17.6449 37.1903 18.724C37.0517 19.2596 36.9091 19.7951 36.7704 20.3307Z" fill="#EC7164"/>
<path d="M37.123 15.4987C37.1467 15.2289 37.1705 14.9632 37.1903 14.6934C37.4438 14.5605 37.6973 14.4277 37.9508 14.2988C37.9667 14.9068 37.9469 15.4907 37.123 15.4987Z" fill="#F6B7A6"/>
<path d="M13.7483 23.0889C14.2593 23.7734 14.9723 23.9747 15.7764 23.9506C16.3151 24.8324 15.5704 25.3639 15.2337 26.0082C14.9643 26.3061 14.6673 26.5316 14.2355 26.443C13.7047 25.8914 13.1779 25.3397 12.6471 24.7881C12.8808 24.1318 13.1541 23.5036 13.7483 23.0889Z" fill="#FBDBC5"/>
<path d="M20.5258 9.4548C21.4963 10.3487 20.3079 10.8077 20.1297 11.4721C19.3731 10.6185 20.4386 10.1353 20.5258 9.4548Z" fill="#EDA27F"/>
<path d="M14.2315 26.443C14.4652 26.2618 14.695 26.0806 14.9287 25.8994C16.2834 25.682 17.4361 25.8109 17.6658 27.5383C16.8934 28.7422 16.117 29.9462 15.3446 31.1501C14.6831 31.891 14.2513 32.8534 13.3205 33.3366C13.1383 33.3728 12.96 33.3648 12.7818 33.3044C11.3439 32.1568 12.5203 31.4682 13.2333 30.7072C13.5185 30.4012 14.1563 30.4777 14.1404 29.8576C14.1325 29.6522 14.0018 29.5032 13.7562 29.5516C13.1303 29.765 12.758 30.4052 12.0925 30.5461C11.9024 30.526 11.7598 30.4374 11.6528 30.2804C11.4706 29.1892 12.1916 28.7543 12.9877 28.3718C13.368 27.7034 14.0612 27.2484 14.2315 26.443Z" fill="#EE8B7C"/>
<path d="M12.9877 28.3718C12.7382 29.1368 11.8549 29.5032 11.7637 30.369C11.6687 30.7515 11.4508 30.9488 11.0468 30.8562C10.5794 30.3126 10.3853 30.9085 10.1318 31.1099C9.68811 31.4642 9.27219 32.2051 8.68198 31.5246C8.25418 31.0334 8.6186 30.369 8.97907 29.918C9.47421 29.2939 10.1318 28.8026 10.6111 28.1704C11.5459 26.9343 12.2866 27.2081 12.9877 28.3718Z" fill="#FBD9C4"/>
<path d="M10.5952 36.7672C10.4724 36.6545 10.3496 36.5458 10.2268 36.433C9.96143 36.0827 10.3457 35.523 9.85052 35.2532C8.6701 34.617 10.0882 33.5661 9.47817 32.8373C9.72376 32.2937 10.1199 31.8951 10.6269 31.6011C11.7836 31.5568 11.7043 33.401 12.9719 33.1876L13.0392 33.244C13.269 33.8882 13.059 34.3915 12.552 34.7982C11.8945 35.4546 11.2448 36.1109 10.5952 36.7672Z" fill="#EE8B7C"/>
<path d="M12.964 33.1876C11.2092 34.1419 11.3122 32.2615 10.619 31.6011C10.7616 31.3515 10.9042 31.1058 11.0468 30.8562C11.2884 30.6951 11.5261 30.53 11.7637 30.369C11.9063 30.381 12.0489 30.3931 12.1916 30.4052C12.7936 30.1113 13.265 29.6361 13.7681 29.2093C14.8812 28.4161 14.3187 29.9583 14.8851 30.0911C15.0634 30.1354 14.6831 30.6589 14.2593 30.8079C13.1581 31.1904 11.8232 31.5165 12.964 33.1876Z" fill="#E6776E"/>
<path d="M3.52854 37.2585C3.176 37.0934 3.10866 36.7713 3.08885 36.425C2.99775 36.3283 2.97398 36.2397 3.01755 36.1592C3.05716 36.0827 3.09678 36.0424 3.13243 36.0424C3.78601 36.0586 3.41763 33.7956 4.73669 35.2975C4.52675 36.0747 4.03556 36.6706 3.52854 37.2585Z" fill="#DC8E62"/>
<path d="M4.68915 34.009C4.68915 33.4775 4.68519 32.946 4.68519 32.4105C4.99416 32.4749 5.5606 32.5232 5.56456 32.6118C5.6121 33.2601 5.27936 33.7352 4.68915 34.009Z" fill="#EDB38E"/>
<path d="M17.6658 27.5383C17.1984 26.2216 15.8635 26.4068 14.9287 25.8994C15.2099 25.2512 15.4912 24.5988 15.7724 23.9506C16.1646 22.8755 16.5567 21.8004 16.9489 20.7253C17.3529 21.0031 17.7609 21.2809 18.1649 21.5547C18.2323 21.9131 18.1412 22.0943 17.749 21.9332C17.2064 22.3077 17.1786 23.6123 17.6262 24.2123C17.9986 24.7116 18.47 24.776 19.0047 24.776C18.6997 25.5652 18.3907 26.3504 18.0818 27.1396C17.9471 27.2725 17.8045 27.4054 17.6658 27.5383Z" fill="#EA8371"/>
<path d="M12.5441 34.7982C12.5401 34.2264 12.7065 33.711 13.0313 33.244C13.9028 32.6601 14.1008 31.3072 15.3486 31.1501C15.5229 32.1004 14.9208 32.8091 14.6039 33.6064C13.8473 33.8842 13.5185 34.915 12.5441 34.7982Z" fill="#F9CEC3"/>
<path d="M9.84656 35.2492C10.1159 35.1526 10.417 34.8224 10.6665 35.1566C11.1141 35.7566 10.2744 35.9659 10.2229 36.433C9.18108 36.3404 9.57324 35.7727 9.84656 35.2492Z" fill="#F6B3A2"/>
<path d="M3.13243 36.0424C3.10866 36.1673 3.09281 36.2961 3.08885 36.425C2.60163 36.3968 1.84902 36.6464 2.32039 35.6438C2.77592 35.3942 3.11658 35.374 3.13243 36.0424Z" fill="#E8B792"/>
<path d="M33.1618 22.3198C33.2529 21.6876 33.5025 21.136 33.9461 20.681C34.4254 21.5064 35.9029 19.6099 35.9307 21.3574C35.9544 22.9681 34.4452 22.0943 33.7005 22.501C33.5857 22.5614 33.344 22.3842 33.1618 22.3198Z" fill="#F18C81"/>
<path d="M20.1376 20.3468C20.3951 20.2018 20.6486 20.0609 20.9061 19.9159C21.825 19.7347 21.6032 17.9348 22.9817 18.4019C22.3796 19.7267 21.5636 20.9105 20.609 21.9936C19.6425 21.6876 20.0465 20.9709 20.1376 20.3468Z" fill="#EA8071"/>
<path d="M17.753 21.9373C17.8916 21.8124 18.0303 21.6836 18.1689 21.5588C18.4818 21.3534 18.7908 21.1521 19.1037 20.9467C18.9057 21.6715 18.8661 22.6459 17.753 21.9373Z" fill="#F4A997"/>
<path d="M18.5413 19.5213C18.6839 19.8716 18.8819 20.2461 18.3313 20.4072C18.1927 20.4474 17.8877 20.3588 17.8877 20.3347C17.8995 19.8998 18.2006 19.6904 18.5492 19.5253L18.5413 19.5213Z" fill="#F3AB9A"/>
<path d="M13.7681 29.2053C13.5661 30.0468 13.1264 30.5582 12.1916 30.4012C12.5599 29.7891 12.96 29.2214 13.7681 29.2053Z" fill="#F29D8F"/>
</svg>
