<svg width="46" height="37" viewBox="0 0 46 37" fill="none" xmlns="http://www.w3.org/2000/svg">
<path d="M33.7687 28.6817C33.9405 29.9549 33.2623 30.9568 32.6942 31.9938C32.3198 32.2825 32.0028 32.7157 31.4258 32.5057C31.3069 32.3482 31.2365 32.1731 31.2188 31.9806C31.2321 31.7925 31.2849 31.6175 31.373 31.4556C31.4787 31.2762 31.7165 31.1668 31.7253 30.9437C31.7297 30.8824 31.4919 30.8956 31.3466 31.0049C30.7212 31.2631 30.087 31.4687 29.5277 31.8363C29.1974 32.0419 28.8451 32.2081 28.462 32.2957C28.3211 32.335 28.1801 32.3657 28.0348 32.4007C27.568 32.51 27.2421 32.7682 27.2421 33.2757C27.2421 33.3632 27.5548 33.7395 27.5239 33.3501C27.4887 32.8513 27.7045 32.7157 28.0348 32.545C28.8143 32.3657 29.5013 32.6238 30.1707 32.9738C30.5847 33.2801 31.1792 33.4639 31.0251 34.1683C28.2198 37.8304 21.4641 37.966 17.7912 34.4264C17.2716 33.9233 16.7871 33.3851 16.2851 32.8644C15.1489 32.335 15.2061 31.2456 15.0344 30.2612C15.1401 29.1761 14.7349 27.9773 15.7214 27.0803C17.0602 26.8528 18.0422 27.3253 18.6588 28.5417C18.901 29.2855 19.0155 30.0336 18.7337 30.7949C18.65 31.4118 17.5182 32.3 19.1785 32.4707C19.4207 32.7157 19.6497 32.9738 19.9183 33.1926C19.6453 32.9432 19.3899 32.6719 19.1168 32.4225C18.8922 32.1819 18.8482 31.8931 18.8922 31.5825C19.0199 31.0793 19.1829 30.598 19.6189 30.2655C20.1914 30.0205 20.6582 30.7293 21.3981 30.4187C20.8608 29.2067 21.7151 28.2879 22.0983 27.2466C22.7192 26.6734 23.3842 28.2004 24.0008 27.2072C24.6217 27.7585 24.679 28.8042 25.6346 29.0536C26.467 29.1411 25.9782 28.5285 26.0706 28.231C26.304 27.4347 26.9118 27.3428 27.5988 27.4303C27.7397 27.4741 27.8719 27.4566 27.9864 27.3735C27.8454 27.3997 27.7045 27.4128 27.5548 27.4041C26.4494 25.9384 25.344 27.4916 24.243 27.3953C23.6969 26.7653 23.2037 26.0653 22.2436 26.0303C21.9089 24.8096 21.5346 26.3278 21.1867 26.0171C20.7243 25.8728 20.6053 25.5096 20.5833 25.0852C20.5965 24.7921 20.7066 24.5208 20.7815 24.2451C20.8388 24.0351 21.1338 23.9083 20.9797 23.637C20.8211 23.7901 20.667 23.9433 20.5173 24.1051C19.8787 24.8489 20.2266 25.654 20.3587 26.4459C20.394 26.7522 20.3543 27.0453 20.2266 27.3297C19.6365 28.1698 19.0111 28.4848 18.1171 27.6491C17.5842 27.1503 16.8488 26.9928 16.1133 26.9316C15.7918 26.8178 15.5584 26.6078 15.3999 26.3103C14.9859 24.5995 16.1574 23.4488 16.9325 22.18C17.4213 21.3793 17.8705 20.5437 18.487 19.8217C19.5792 19.3186 20.6494 18.7586 21.8384 18.4742C22.1379 18.4085 22.4418 18.3823 22.7501 18.3692C22.8954 18.356 23.0451 18.3298 23.1861 18.3604C24.1241 18.5748 25.7888 17.8747 25.7183 19.463C25.6567 20.9418 24.1902 21.1606 22.8998 20.9899C22.6047 20.7756 22.6444 21.3575 22.7589 21.0906C22.7809 21.0337 22.847 21.0643 22.9747 21.1212C23.3182 21.2743 23.5692 21.5325 23.7762 21.8344C24.3179 22.7926 23.9039 24.197 25.1943 24.8008C26.7885 25.2865 27.2465 23.6151 28.3431 23.1645C28.5457 23.2607 28.7747 23.3963 28.8055 23.5932C28.92 24.2802 29.0389 24.7177 29.5806 23.7989C29.6863 23.6195 29.9461 23.5889 30.1707 23.6195C30.501 23.8645 30.6155 24.2408 30.7785 24.5864C31.4655 25.8771 32.703 25.3871 33.7599 25.4877C34.3853 26.284 34.3192 27.1678 34.0946 28.0691C33.9625 28.2573 33.8524 28.4629 33.7687 28.6817Z" fill="#647DAF"/>
<path d="M1.94316 14.453C2.50246 13.5386 3.24672 12.8167 4.21559 12.3354C5.24171 11.8891 5.88909 12.2435 6.20618 13.2804C6.21058 13.5955 6.1225 13.893 6.0124 14.1818C5.73495 14.768 5.85386 15.2756 6.33389 15.7087C7.89729 16.7982 9.14801 15.7 10.4692 15.1312C11.1782 14.8118 11.1694 13.3636 12.4289 13.9061C13.7061 14.4574 13.2128 15.4681 13.2349 16.4394C13.2525 17.1438 12.7196 17.5332 12.7064 18.1326C13.7589 19.6202 13.2921 20.3903 11.5526 20.5653C10.7422 20.9372 9.9187 20.1628 8.90139 20.9678C8.12629 21.5803 7.36882 20.0709 6.81832 19.2571C6.31187 18.3864 5.62485 19.0733 5.02151 19.0514C4.69562 19.0121 4.48423 18.8283 4.36533 18.5439C4.32129 18.4258 4.36973 18.242 4.30808 18.1676C4.22 18.0582 4.09669 18.1545 4.03503 18.3251C3.87649 18.7889 3.85447 19.2614 3.92053 19.7427C4.03503 20.924 5.90671 21.1516 5.50154 22.6129C6.20618 22.6785 6.97246 22.8448 7.50534 22.2498C8.11749 21.5672 8.88377 21.1866 9.71612 20.9416C10.5749 20.6922 11.2047 20.8715 10.9008 22.0004C10.6057 22.3241 10.2006 22.346 9.8042 22.3985C10.4384 22.5385 11.0725 22.661 11.7199 22.4729C12.0282 22.4248 12.3365 22.4291 12.6403 22.5035C13.7589 23.0198 13.8294 23.7986 12.9134 24.4768C12.1691 25.0281 11.5834 25.3518 11.6054 26.5244C11.6274 27.5745 10.5397 28.1564 9.42986 28.3139C8.78248 28.3183 8.17474 28.1739 7.65067 27.7801C7.37322 26.8044 7.10458 25.9206 5.75697 25.8681C4.73526 25.8287 3.94695 25.2818 4.21559 24.0349C4.14953 24.0217 4.30808 23.7461 4.07026 23.943C4.0042 24.7787 3.54619 25.6318 2.8812 24.7305C2.19418 23.7986 1.85508 25.0762 1.4367 24.6518C-0.0121936 22.2716 -0.527455 19.7952 0.652802 17.1438C1.26495 16.1944 2.29988 16.3869 3.18507 16.2206C3.25113 16.1594 3.29076 16.1244 3.29076 16.1244C3.18067 16.05 3.05735 16.0281 2.91643 16.0587C2.28226 15.7 1.92995 15.1837 1.94316 14.453Z" fill="#657DAF"/>
<path d="M27.5299 3.10836C28.4372 3.41463 28.7719 4.28531 29.362 4.91097C30.3044 5.37475 29.864 6.21043 29.9081 6.91485C29.5866 8.0568 28.7939 8.77872 27.7633 9.29062C27.2569 9.74128 26.8914 10.3976 26.1031 10.4501C25.6274 10.4107 25.394 10.2138 25.2223 9.7019C24.936 8.86185 24.7555 8.00867 23.4255 9.13311C22.3861 10.0125 20.6598 9.95129 19.4531 10.9489C18.7661 11.5176 18.3609 10.577 17.9029 10.1744C17.4757 9.75878 17.0045 9.38251 16.7183 8.84872C16.3924 8.27118 16.7843 7.3655 15.8727 7.05486C15.5688 6.73984 15.4147 6.29794 15.0624 6.04417C13.6751 5.04661 13.6355 3.90904 14.644 2.63146C15.4543 1.59889 16.5509 1.08261 17.8192 0.863845C18.8321 1.87891 20.5629 0.732587 21.4701 2.06267C21.36 2.62271 20.8139 2.67521 20.4484 2.93773C20.2326 3.09086 20.0388 3.26587 19.8891 3.48463C19.6161 3.94404 19.616 4.54345 19.158 4.9066C18.9775 5.02036 18.8145 5.00286 18.6736 4.84097C18.4226 4.56533 18.1319 4.39032 17.599 4.42532C18.0438 4.55658 18.3741 4.56533 18.6296 4.78847C19.0259 5.16912 18.6648 5.44476 18.4226 5.7379C18.8013 5.47538 18.9467 5.07286 19.2681 4.81034C20.1269 4.62221 20.8315 5.11661 21.5846 5.36163C22.505 5.65915 23.4651 5.60664 24.0861 5.02036C24.8435 4.30281 23.7778 3.78653 23.5003 3.18712C23.333 2.82834 23.3022 2.5002 23.5179 2.15893C24.4868 1.58577 25.2751 2.1283 26.1031 2.54395C26.5567 2.77146 26.8253 3.50214 27.5299 3.10836Z" fill="#7087B6"/>
<path d="M41.5834 13.7314C43.1952 15.0658 43.7853 16.8466 43.8646 18.8548C43.8118 19.2442 43.7809 19.638 43.6004 19.9968C43.0587 20.9506 42.8957 22.0794 42.2396 22.9851C41.8652 23.392 41.416 23.6064 40.8479 23.5364C40.2842 23.4226 39.835 23.1207 39.4607 22.6438C39.5355 23.0595 39.813 23.4445 39.4827 23.8339C39.0995 24.2233 38.6239 24.4333 38.0866 24.5295C36.9196 24.5777 36.4219 24.1839 37.0165 22.9982C37.4701 22.0881 37.633 21.0862 37.8708 20.1105C37.8092 18.9992 38.0382 17.971 38.712 17.0566C39.5003 15.8227 40.2137 16.9297 40.9404 17.1135C41.2927 16.619 40.5881 16.5884 40.5705 16.269C41.1518 15.2933 39.8526 15.289 39.7337 14.672C39.6809 13.0576 40.4648 13.0663 41.5834 13.7314Z" fill="#6F86B5"/>
<path d="M15.6997 33.476C14.2904 34.7229 12.6742 35.563 10.8245 35.9611C9.78078 36.2718 8.75026 36.2674 7.69771 35.9524C7.93993 34.9548 8.64016 35.1867 9.30075 35.1736C6.64517 34.8192 6.30607 34.4079 7.26613 32.7978C8.16893 32.5265 8.48602 33.5153 9.18625 33.6772C9.89968 33.6641 10.2256 33.2484 10.3445 32.5484C9.93932 32.9291 9.72793 33.5635 9.0233 33.4016C8.30986 32.5922 8.6842 31.6602 8.71502 30.7677C8.9088 29.8751 9.8072 29.6476 10.3401 29.0744C10.4854 28.9301 10.6484 28.8075 10.8245 28.7025C11.0139 28.6107 11.2077 28.545 11.4102 28.4969C11.7141 28.4313 12.0224 28.3963 12.3307 28.3656C14.1979 28.2388 14.2464 28.2519 13.806 29.8532C13.6122 30.5664 14.1935 30.247 14.3741 30.3695C15.5235 31.1264 16.0652 32.0978 15.6997 33.476Z" fill="#83AF3F"/>
<path d="M44.7621 6.39082C44.2204 8.8716 42.7054 10.7573 40.9526 12.4943C39.7768 12.9887 38.9224 12.0787 37.9183 11.8249C36.421 11.313 34.906 10.9324 33.3074 11.3261C32.9727 11.3611 32.6556 11.3086 32.3738 11.1161C32.4795 9.01161 34.2895 8.77535 35.7075 8.11906C35.9189 8.11906 36.1259 8.15843 36.3197 8.24156C37.3546 9.1385 38.6494 8.53908 39.79 8.8191C40.3361 8.91973 40.7324 9.2435 41.1905 9.74228C39.7151 8.48658 40.2304 7.81279 41.7013 7.43651C42.1725 7.31838 42.4103 6.99024 42.6482 6.62709C42.9785 6.14143 43.3352 5.66015 43.8901 5.43701C44.9911 4.98636 44.9558 5.62953 44.7621 6.39082Z" fill="#88B345"/>
<path d="M29.6913 6.65994C29.5812 6.07803 29.4711 5.49612 29.361 4.91421C30.9464 3.51849 32.2676 1.73338 34.5709 1.38336C35.5662 2.68282 33.3246 3.17722 33.8222 4.35417C33.7518 5.86364 33.4127 7.30748 32.8313 8.69882C32.6508 9.09697 32.479 9.49512 32.3117 9.89764C31.8977 10.5539 31.6511 11.359 30.8099 11.6565C30.0392 11.6784 29.8058 11.1533 29.6517 10.5408C29.4051 9.24573 29.7221 7.95502 29.6913 6.65994Z" fill="#88B347"/>
<path d="M7.70703 32.8862C6.60604 33.4987 6.79541 34.015 7.83034 34.4613C8.52616 34.7632 9.44659 34.505 10.0323 35.4063C9.36732 35.472 8.77278 35.5332 8.18265 35.5901C8.18265 35.7126 8.18706 35.8395 8.18706 35.962C9.06785 35.962 9.94864 35.962 10.8294 35.962C7.29746 36.8764 3.7611 37.6508 0.233538 35.9445C1.76611 34.7063 3.2106 33.3368 4.95897 32.4136C5.8882 31.9192 7.09488 31.0179 7.70703 32.8862Z" fill="#8AB446"/>
<path d="M14.6388 2.62778C13.3968 4.67978 15.8631 5.52859 16.1009 7.09931C16.6514 7.53246 16.4488 8.33314 16.9288 8.79692C17.378 9.09881 17.8272 9.40071 18.2764 9.69823C18.021 10.8095 16.9552 11.1464 15.9115 10.4551C15.5284 10.2014 15.3698 9.80323 15.1628 9.43133C14.7753 8.73566 14.0442 8.79254 13.4365 8.83192C12.4148 8.90193 12.8816 9.79448 12.7362 10.3501C12.635 10.7089 12.3619 10.8095 12.0272 10.8183C11.8114 10.7789 11.6529 10.6652 11.534 10.4814C11.1817 7.32683 12.1637 4.68854 14.6388 2.62778Z" fill="#5F79AD"/>
<path d="M31.934 9.70188C31.9384 9.33873 32.0177 9.01058 32.3744 8.82245C33.3565 7.59299 33.1979 5.87351 34.1712 4.67031C34.2901 4.67469 34.3914 4.57405 34.3165 4.47342C34.1448 4.23716 34.4751 4.49092 34.1756 4.48217C33.973 4.11028 33.5414 4.21091 33.2552 4.01839C32.9205 2.75832 34.8714 2.62268 34.5675 1.3801C34.9199 1.15259 35.2061 0.771941 35.7082 0.885698C36.7651 0.478798 37.5446 0.846321 38.1259 1.75638C38.399 2.38204 37.9101 2.77582 37.6723 3.24397C37.3024 3.85213 38.17 4.37717 37.7956 4.98533C37.5886 5.33973 37.2716 5.58037 36.9545 5.82538C36.1001 7.42673 34.9507 8.74369 33.2772 9.55312C32.8456 9.76313 32.4448 10.2007 31.934 9.70188Z" fill="#80AC3D"/>
<path d="M44.7621 6.39082C44.1984 5.43701 44.1629 5.44984 42.9386 7.07744C42.2736 7.67248 41.4809 7.50184 40.7102 7.44059C40.5076 7.37058 40.327 7.25683 40.1773 7.09932C39.4771 7.05119 40.8687 6.22426 39.8118 6.20676C39.0059 6.18926 39.0895 5.40609 39.4595 5.12169C41.4192 3.62535 43.1015 1.52084 45.9905 1.83586C45.7571 3.39783 45.4623 4.94698 44.7621 6.39082Z" fill="#8EBB47"/>
<path d="M37.6447 4.87453C37.9266 4.18324 35.9228 4.06948 37.1955 3.1288C37.9442 3.00191 38.5255 2.7569 38.0939 1.82497C37.561 1.68933 36.9885 2.51626 36.5613 1.90372C36.2399 1.44432 37.2616 1.53182 37.1867 1.00241C36.6935 0.963036 36.2002 0.923658 35.707 0.884281C37.7328 -0.0870301 39.8819 -0.0782796 42.0531 0.0792303C43.1012 1.43557 42.8678 2.59939 41.4453 3.49632C40.842 3.87697 40.3752 4.47638 39.6441 4.65577C38.9659 4.58576 38.3537 5.16768 37.6447 4.87453Z" fill="#8BB747"/>
<path d="M4.63322 23.7305C4.5011 24.8375 4.89746 25.485 6.11295 25.45C7.71158 25.4063 8.01105 26.3032 7.71598 27.6333C7.45175 28.9502 6.41682 28.5215 5.58888 28.5608C4.85782 28.3771 4.07832 28.2765 3.68197 27.4977C2.92449 26.5526 1.8147 25.8876 1.43155 24.6493C2.1494 23.3718 2.79237 23.8487 3.23277 24.8244C4.20604 24.3825 3.1535 23.6562 3.7172 23.258C4.25448 22.9692 4.3822 23.468 4.63322 23.7305Z" fill="#728BB8"/>
<path d="M3.68288 27.492C4.2686 27.6933 4.85433 27.8945 5.44445 28.0958C5.96852 28.3758 6.58067 28.3933 7.11795 28.634C7.76093 28.914 8.54043 28.809 9.09532 29.3384C8.9632 30.5153 7.99874 30.6816 7.11795 30.9572C6.55865 30.9179 5.99935 30.8435 5.43565 30.8085C4.68698 30.3316 4.27301 30.896 3.8194 31.3335C3.17642 31.7798 2.41454 31.9898 1.71872 32.3311C0.811506 32.773 0.846737 32.1123 1.06693 31.4823C1.55137 29.9028 2.32206 28.5071 3.68288 27.492Z" fill="#8AB14D"/>
<path d="M5.94995 13.5897C5.79141 12.6009 4.98549 12.4915 4.2148 12.3383C6.35952 10.5664 8.9094 10.3826 11.5386 10.492C11.6178 10.527 11.6927 10.5664 11.7632 10.6101C12.274 11.1964 13.419 11.0258 13.5556 12.0715C13.1944 12.8984 12.3885 12.8546 11.6883 13.0165C10.7723 13.0034 9.84304 12.7671 8.94463 13.1565C7.92732 13.1784 7.07296 14.2941 5.94995 13.5897Z" fill="#7089B7"/>
<path d="M40.7318 23.2615C41.1678 23.1215 41.6038 22.9771 42.0398 22.8371C42.9911 22.0364 42.8413 20.7588 43.3698 19.7744C43.3874 19.3894 43.4711 19.0393 43.8631 18.8556C44.4664 21.752 43.5239 24.084 41.2339 25.9217C40.3575 26.3067 39.6353 25.506 38.7985 25.6066C38.3273 25.6285 37.8605 25.7991 37.3804 25.6679C37.1955 25.5804 37.0678 25.4448 36.9929 25.2522C36.8167 24.3553 37.6887 24.4734 38.0895 24.1365C38.5343 23.9834 38.9835 23.8259 39.4283 23.6728C39.8114 23.3709 40.1681 22.9902 40.7318 23.2615Z" fill="#6478A7"/>
<path d="M5.46482 30.6608C5.93163 30.4464 6.39405 30.4114 6.83885 30.7176C7.5743 31.2602 8.29215 29.9388 9.03201 30.6958C9.49883 31.5664 8.83383 32.4415 9.03201 33.3165C9.30505 33.6097 9.28744 33.9028 9.03201 34.1916C8.43748 33.9072 7.99708 33.4741 7.71083 32.8834C6.82563 31.6933 5.84355 32.3365 5.10369 32.9315C4.06436 33.7672 2.63308 34.1391 1.95047 35.3948C1.53209 36.1605 0.836271 35.863 0.237335 35.9461C0.202103 35.8498 0.158064 35.7579 0.13164 35.6617C0.118428 35.6136 0.149256 35.5567 0.158064 35.5042C0.708557 34.6729 1.32951 33.9203 2.23232 33.4391C2.86649 32.7959 4.17446 32.7171 3.95426 31.3695C3.97188 31.1639 4.01592 30.9714 4.08638 30.7789C4.50035 30.2757 4.97157 30.302 5.46482 30.6608Z" fill="#7BA53A"/>
<path d="M21.3641 2.18981C20.7344 1.6254 20.0209 1.83541 19.3075 1.96229C18.4311 2.1198 17.9159 1.76103 17.8146 0.864099C19.9197 0.0677991 22.0071 -0.168466 24.0461 1.06536C25.0018 1.27975 25.8474 1.72603 26.6489 2.26856C26.9439 2.54858 27.239 2.8286 27.5341 3.10862C25.9883 3.84366 25.0106 1.90541 23.5441 2.27294C22.791 2.82422 22.06 2.94235 21.3641 2.18981Z" fill="#7085B8"/>
<path d="M38.5348 25.0155C39.5785 24.8974 40.3668 25.5362 41.2388 25.9212C39.2482 28.1745 36.5784 28.6161 33.7687 28.6817C33.7423 28.4848 33.7124 28.2882 33.686 28.0913C34.2233 27.7194 33.9018 26.8006 34.6637 26.5687C35.6986 26.6169 36.2403 25.5537 37.2092 25.453L37.2136 25.4574C37.8742 25.9693 38.2265 25.5624 38.5348 25.0155Z" fill="#7187B6"/>
<path d="M39.4117 4.44742C40.7637 3.27484 43.0934 2.68418 42.0585 0.0765178C42.3535 0.0852683 42.653 0.0940189 42.9481 0.102769C43.8465 0.776562 45.1192 0.579674 45.9692 1.38035C45.978 1.52911 45.9868 1.67787 46 1.831C43.4853 2.45229 41.5564 4.05364 39.2399 5.69C40.5479 5.7425 40.9443 6.16252 40.2969 7.07696C39.5306 7.76825 38.6058 7.79013 37.8967 7.20822C37.126 6.56943 38.0597 5.92188 38.2094 5.26997C38.4428 4.75806 38.8436 4.47804 39.4117 4.44742Z" fill="#80AD3B"/>
<path d="M15.6997 33.476C15.823 31.4852 14.2952 30.8425 12.9168 30.1993C12.7759 29.1843 14.0882 29.6612 14.097 28.8299C13.3968 28.4449 12.7406 29.1799 12.058 28.9218C12.4279 27.5654 13.4805 27.3685 14.6696 27.4079C14.991 27.5435 15.2068 27.7842 15.3434 28.0992C15.5636 28.8036 15.154 29.5956 15.634 30.2693C15.8542 31.1356 16.07 32.002 16.2902 32.8639C16.0964 33.0651 15.8979 33.2703 15.6997 33.476Z" fill="#84AD4F"/>
<path d="M4.08193 31.0964C4.11716 31.2539 4.1568 31.4114 4.19203 31.5646C4.08633 32.6759 2.78717 32.8509 2.43486 33.7697C1.67297 34.3472 0.915495 34.9248 0.153613 35.5023C0.091958 34.0803 0.43987 32.7546 1.06083 31.4858C1.17533 31.7483 1.21496 32.444 1.57168 32.0371C2.21466 31.2977 3.02498 31.3021 3.81769 31.1183C3.90577 31.1095 3.99385 31.1052 4.08193 31.0964Z" fill="#98BD5A"/>
<path d="M3.75687 16.2954C2.85846 17.0699 1.63416 16.6673 0.652085 17.1399C0.889898 16.1554 1.2246 15.2148 1.94244 14.4578C2.52376 14.7685 2.44449 15.696 3.22839 15.8098C3.52786 15.836 3.69961 16.0023 3.75687 16.2954Z" fill="#7C90BA"/>
<path d="M38.104 11.3407C39.0552 11.7214 40.0021 12.1064 40.9533 12.4914C41.1339 12.9202 41.1163 13.4496 41.5831 13.734C41.0458 14.0578 39.9977 13.314 39.892 14.5391C39.8215 14.4866 39.751 14.4341 39.6762 14.3859C39.5793 14.2372 39.5044 14.0753 39.4516 13.909C39.3635 13.6553 39.2666 13.4059 39.1345 13.174C38.7734 12.5702 37.6988 12.3646 38.104 11.3407Z" fill="#6A82AD"/>
<path d="M45.9633 1.38028C45.6991 1.27089 45.4437 1.12213 45.1706 1.06526C44.9989 1.03025 43.7261 0.618977 43.6425 0.548973C43.4267 0.378337 43.18 0.247079 42.9466 0.102695C44.0608 0.268955 45.4349 -0.159822 45.9633 1.38028Z" fill="#8EBB47"/>
<path d="M31.0337 34.1693C30.743 33.8806 30.4524 33.5918 30.1617 33.303C30.3775 32.6949 30.6946 32.2355 31.4565 32.4324C31.8705 32.2836 32.2844 32.1392 32.6984 31.9905C32.2272 32.7824 32.0422 33.7887 31.0337 34.1693Z" fill="#798BBD"/>
<path d="M26.644 2.27062C25.6575 2.12186 24.8251 1.64058 24.0412 1.06742C25.1907 0.87053 26.0582 1.27306 26.644 2.27062Z" fill="#7087B6"/>
<path d="M30.1856 23.7041C29.8289 24.041 29.4061 24.7017 29.1331 24.6448C28.5341 24.5179 28.4769 23.8048 28.3932 23.236C28.1202 23.0216 27.9088 22.7416 27.5961 22.5753C27.3407 22.4965 27.0808 22.4528 26.8122 22.4265C25.7156 22.2865 24.7027 21.5821 23.5312 21.9453C22.9499 21.7221 22.6505 21.0002 21.4218 21.4202C22.7958 19.8976 25.0418 21.3852 25.447 19.0094C24.4869 18.9526 23.5312 18.8913 22.5756 18.8344C23.3595 17.3206 24.6895 17.9944 25.8565 18.0206C27.4728 18.8082 29.2388 19.2457 30.7009 20.4314C31.9868 21.4727 33.0261 22.5972 33.5546 24.1635C33.6603 24.6404 33.6075 25.078 33.2463 25.4411C31.9075 27.3181 31.1941 25.183 30.1856 24.9686C30.6436 24.5485 30.7317 24.1241 30.1856 23.7041Z" fill="#6C83B2"/>
<path d="M22.2412 27.1959C22.5099 28.2065 21.2283 29.1341 22.1267 30.2411C22.3161 30.4773 21.9065 31.2474 21.4177 31.4224C20.3784 31.7943 20.3916 30.3723 19.5901 30.2673C19.5328 30.1929 19.4756 30.1142 19.4183 30.0398C19.295 29.7466 19.5196 29.3572 19.1585 29.1385C18.859 29.086 18.5331 29.1779 18.2777 28.9503C17.9606 27.8521 17.071 27.4584 16.0757 27.1959C15.9788 27.0996 15.9436 27.0033 15.9788 26.9071C16.0141 26.8108 16.0449 26.7627 16.0801 26.7627C16.9697 26.8458 17.9562 26.4696 18.6344 27.454C19.2289 28.3159 19.546 27.1915 20.0349 27.1915C20.6866 26.964 20.7395 26.137 21.3604 25.8833C21.5366 25.6908 21.6863 25.3626 21.8889 25.3276C22.2677 25.2576 22.1972 25.647 22.2412 25.8876C22.3029 26.3252 22.5847 26.7627 22.2412 27.1959Z" fill="#6982B3"/>
<path d="M15.1977 28.0591C15.0568 27.9016 14.9114 27.7485 14.7705 27.591C13.7048 25.1802 13.9646 23.5832 15.7218 21.7544C16.0256 21.4394 16.2635 21.0718 16.5101 20.7131C17.065 20.0568 17.5626 19.3217 18.5315 19.208C18.7473 19.3042 18.8354 19.4661 18.7649 19.698C18.4874 21.2775 17.2676 22.3407 16.5541 23.6795C16.1093 24.5064 15.5368 25.3027 15.6381 26.3222C15.779 26.9741 15.4047 27.4947 15.1977 28.0591Z" fill="#4C628E"/>
<path d="M25.7545 29.3841C24.0898 29.5153 23.9841 28.4084 24.0061 27.2052C24.2087 27.1439 24.4773 27.1483 24.605 27.0171C25.8073 25.7788 26.9039 25.967 27.9564 27.2052C28.0665 27.3539 28.0577 27.494 27.9432 27.6383C27.1946 27.6033 26.5296 27.7258 26.1993 28.5134C26.4459 28.9991 26.1552 29.2222 25.7545 29.3841Z" fill="#5C75A9"/>
<path d="M23.5307 21.9439C24.0239 21.1782 24.6185 20.7319 25.464 21.4538C25.944 21.8651 26.4681 21.9876 27.067 21.922C27.2828 22.5083 26.8204 22.5914 26.4549 22.7664C26.38 22.8014 26.0982 22.6308 26.2347 22.9108C26.2787 22.9983 26.4769 23.0246 26.5958 23.1165C26.9922 24.2146 25.5873 24.0396 25.4332 24.7528C25.2923 24.9978 25.0941 25.1947 24.9047 25.4047C23.4558 24.6391 23.5615 23.2652 23.5307 21.9439Z" fill="#526692"/>
<path d="M26.1329 18.3742C24.9878 18.8117 23.6887 18.0898 22.5833 18.8336C22.319 18.8423 22.0592 18.8554 21.795 18.8642C21.2048 18.5492 20.0202 19.3542 20.0246 17.9279C20.4738 17.521 21.0375 17.4816 21.6012 17.4554C22.3279 17.4335 23.0633 17.4991 23.7723 17.276C24.2656 17.1491 24.7544 17.0003 25.2521 16.8822C25.4591 16.8516 25.666 16.8559 25.873 16.8953C26.331 17.066 26.5028 17.4116 26.4764 17.8798C26.4279 18.0898 26.3134 18.256 26.1329 18.3742Z" fill="#DADDE8"/>
<path d="M29.1704 34.4229C29.0691 34.8386 29.0779 34.9392 29.0383 34.9698C28.0914 35.6699 27.0169 36.2124 25.8586 35.8274C24.9338 35.5211 25.7705 34.7292 27.3604 34.6373C27.6466 34.6198 27.9373 34.6373 28.2235 34.6067C28.4878 34.5804 28.752 34.5061 29.1704 34.4229Z" fill="#7387B5"/>
<path d="M24.9094 25.4055C24.9006 25.1168 24.8962 24.828 24.8874 24.5349C25.5128 23.8829 26.8428 24.303 27.0982 23.091C27.27 22.636 27.6179 22.3122 27.9658 21.9928C28.481 22.2772 28.3577 22.7847 28.3974 23.231C27.7588 24.7974 26.6842 25.6549 24.9094 25.4055Z" fill="#435580"/>
<path d="M20.0382 18.145C20.505 18.67 21.3858 18.1887 21.791 18.8625C20.7781 19.1206 19.9936 20.2143 18.7649 19.698C18.7825 19.5667 18.7743 19.4357 18.7346 19.3088C18.3295 18.8581 18.3207 18.39 18.673 17.9087C19.1926 17.6418 19.6683 17.5937 20.0382 18.145Z" fill="#DADEE8"/>
<path d="M22.2401 27.1941C22.1256 26.7566 21.531 26.3235 22.2401 25.8859C23.2618 25.7459 24.5169 25.304 24.0105 27.1985C23.4115 28.0736 22.8258 27.636 22.2401 27.1941Z" fill="#798FBC"/>
<path d="M31.4578 32.4376C31.0262 32.7264 30.5946 33.0196 30.163 33.3083C29.4099 33.1771 28.6568 33.0458 27.9082 32.9189C27.7232 32.4245 28.0491 32.2058 28.4058 32.0045C28.7009 31.8601 28.9915 31.7114 29.2866 31.567C29.956 31.9651 30.9469 30.8932 31.4578 32.0307C31.4578 32.162 31.4578 32.2976 31.4578 32.4376Z" fill="#575F86"/>
<path d="M28.4042 31.9981C28.2369 32.3043 28.0739 32.6062 27.9066 32.9125C27.4486 33.5907 29.1132 33.2013 28.413 33.8051C28.0739 34.0982 27.3208 34.0632 26.7924 33.9669C26.3916 33.8969 26.33 33.4288 26.6603 33.1094C27.1579 32.6237 27.2636 31.4949 28.4042 31.9981Z" fill="#758BB9"/>
<path d="M20.073 23.7019C20.7071 23.4088 20.9582 22.5906 21.9358 22.4419C21.9711 23.4963 21.196 24.1876 20.9317 25.0408C20.6279 25.3295 20.39 25.8677 19.866 25.3164C19.866 24.7739 19.6458 24.1963 20.073 23.7019Z" fill="#BDC3D8"/>
<path d="M33.25 25.444C33.2412 25.0108 33.2368 24.582 33.228 24.1489C33.0959 23.6457 33.3866 23.5976 33.7741 23.6589C34.6109 24.547 34.9235 25.5709 34.5668 26.7653C34.1617 27.1328 34.6637 28.1001 33.686 28.0913C33.5407 27.2075 34.0163 26.2228 33.25 25.444Z" fill="#485E8C"/>
<path d="M31.4574 32.0255C30.9905 31.7104 30.6162 31.8373 30.167 32.1523C29.5064 32.6117 29.3655 32.0867 29.2862 31.5617C29.8587 30.8923 30.5942 30.6472 31.4574 30.726C31.7128 30.9841 31.7524 31.2554 31.519 31.5486C31.497 31.7104 31.475 31.868 31.4574 32.0255Z" fill="#5F6E99"/>
<path d="M20.0646 25.4042C20.3552 25.2817 20.6459 25.1636 20.9366 25.0455C20.9454 25.3911 21.0114 25.7105 21.3593 25.8855C21.3946 26.6556 20.8353 27.1587 20.3905 27.6313C20.1174 27.92 20.1042 27.3994 20.0338 27.1981C20.0338 26.9093 20.0382 26.6162 20.0382 26.3274C19.7783 26.008 19.7871 25.7018 20.0646 25.4042Z" fill="#798FBC"/>
<path d="M18.2763 28.9505C18.567 28.8061 18.862 28.6573 19.1527 28.5129C19.7957 28.9767 19.0866 29.773 19.5887 30.2674H19.5843C19.5755 30.7574 19.69 31.2912 19.1351 31.6019C18.3292 31.7638 18.5714 30.9718 18.2763 30.6699C18.7387 30.0968 18.2543 29.5236 18.2763 28.9505Z" fill="#8395BC"/>
<path d="M18.2799 30.6695C18.5662 30.9802 18.8525 31.2908 19.1387 31.6015C19.1387 31.8771 19.1431 32.1571 19.1475 32.4328L19.1431 32.4371C18.7468 32.5421 18.6146 33.4653 17.9629 32.7915C17.1393 31.9384 18.1434 31.3739 18.2799 30.6695Z" fill="#576D9B"/>
<path d="M19.145 32.4335C20.2372 32.6172 20.8053 33.3566 21.4747 34.5861C20.0126 34.2054 19.2595 33.6629 19.145 32.4335Z" fill="#AAB2D0"/>
<path d="M15.1992 28.0591C15.1199 27.4247 15.3225 26.8603 15.6396 26.3221C15.7849 26.4665 15.9346 26.6153 16.08 26.7596C16.08 26.904 16.0756 27.0484 16.08 27.1928C15.2344 28.116 15.8157 29.2448 15.6396 30.2642C15.0583 29.6123 15.23 28.816 15.1992 28.0591Z" fill="#5C77AA"/>
<path d="M31.5185 31.5525C31.4964 31.2768 31.4788 31.0012 31.4568 30.7299C31.5361 30.4105 31.5273 29.9643 31.9941 30.008C32.1967 30.0255 32.5402 30.3362 32.527 30.498C32.4917 31.0756 32.2275 31.5525 31.5185 31.5525Z" fill="#798BBD"/>
<path d="M25.7548 29.3819C25.9046 29.0888 26.0543 28.8 26.204 28.5069C26.6136 28.5856 27.1245 28.6469 26.8514 29.2376C26.6136 29.7582 26.204 29.9595 25.7548 29.3819Z" fill="#8496BD"/>
<path d="M30.1856 23.7041C30.4939 23.6385 30.9116 23.337 31.0217 23.8664C31.1494 24.4746 30.9865 24.9952 30.185 24.9733C30.1894 24.5489 30.1856 24.1285 30.1856 23.7041Z" fill="#96A7C7"/>
<path d="M17.9679 23.3319C18.2673 23.3319 18.5712 23.3756 18.5756 23.7519C18.58 24.0669 18.3642 24.3119 18.0559 24.3119C17.8974 24.3119 17.6772 24.1019 17.5979 23.9357C17.4482 23.6119 17.6199 23.3975 17.9679 23.3319Z" fill="#8092BB"/>
<path d="M27.9436 27.6314C27.9568 27.487 27.9612 27.3426 27.9568 27.1982C28.1286 26.9095 28.318 26.4895 28.6879 26.7257C28.8508 26.8307 28.8552 27.3995 28.7319 27.6708C28.5338 28.1083 28.1991 27.942 27.9436 27.6314Z" fill="#8597BE"/>
<path d="M20.0633 25.4064C20.0545 25.7126 20.0457 26.0189 20.0369 26.3252C19.3895 25.4414 19.3323 24.5707 20.0721 23.7044C20.0677 24.2732 20.0677 24.8376 20.0633 25.4064Z" fill="#6982B3"/>
<path d="M32.9292 28.0217C32.7354 28.1267 32.5636 28.2886 32.3875 28.2974C31.9999 28.3192 31.9339 28.0086 32.0176 27.7286C32.0616 27.5842 32.3258 27.3917 32.4359 27.4179C32.5857 27.4573 32.6781 27.6892 32.9292 28.0217Z" fill="#8D9DC0"/>
<path d="M18.735 18.0897C18.735 18.4966 18.735 18.9035 18.735 19.3104C18.1448 19.7611 17.5547 20.2117 16.9646 20.6624C15.8812 20.8724 14.8463 21.1918 14.0888 22.0625C13.5251 21.9662 12.9922 21.7649 12.4461 21.5987C12.0718 21.1961 11.4464 20.9336 11.6754 20.203C12.4858 19.7829 13.851 19.5029 12.1158 18.4528C14.1505 16.5146 14.124 16.1821 11.6843 12.7519C12.063 12.0562 13.0583 12.5987 13.437 11.9031C15.3748 11.413 16.3304 12.8787 17.2993 14.0076C18.2549 15.1189 19.1622 16.414 18.735 18.0897Z" fill="#6A83B1"/>
<path d="M13.8644 21.9436C14.3929 20.3116 15.5026 20.0622 16.9648 20.666C16.837 20.9942 16.8106 21.4798 16.5684 21.6242C14.1066 23.0812 14.8068 25.4438 14.7672 27.6008C13.8203 27.9596 12.8383 28.244 12.0588 28.9309C11.7769 28.9046 11.4951 28.874 11.2088 28.8478C10.6495 28.5459 9.5353 29.4691 9.46484 28.0733C9.98891 27.2464 12.3714 27.3646 10.7112 25.3694C10.2487 24.8138 11.3453 24.7569 11.8254 24.5469C12.552 24.2275 14.0802 24.1225 12.5432 22.8318C12.4375 22.7136 12.3935 22.5868 12.4067 22.4511C12.4199 22.3155 12.4419 22.2455 12.4683 22.2455C12.8691 21.8123 13.2831 21.4842 13.8644 21.9436Z" fill="#5C77AA"/>
<path d="M12.5523 22.3878C12.5523 22.5322 12.5523 22.6766 12.5523 22.8253C12.2617 22.8253 11.9666 22.8253 11.6759 22.8253C11.4646 22.4534 11.099 22.2347 10.7952 21.9503C9.83069 20.5283 8.8354 21.5346 8.34215 22.204C7.57587 23.2453 6.83601 23.5472 5.67777 23.1097C5.56767 23.0703 5.1581 23.3591 5.20655 23.2103C5.8187 21.3596 3.1411 21.3202 3.31285 19.7451C3.89417 19.4432 3.60351 18.31 4.60761 18.4063C4.74854 18.5638 4.88946 18.7169 5.03039 18.8744C5.78346 20.1651 6.51011 18.6994 7.24998 18.8569C7.2764 19.3207 7.49219 19.697 7.89736 19.8939C8.23646 20.0558 8.63722 22.0159 9.10844 19.9114C9.12606 19.8239 10.7819 20.0951 11.6715 20.2002C11.9446 20.6552 12.6272 20.8389 12.5567 21.5215C12.8254 21.8103 12.8033 22.099 12.5523 22.3878Z" fill="#6C85B4"/>
<path d="M11.679 12.7488C13.7092 13.7639 14.0175 15.6759 14.2377 17.6229C14.3037 18.1961 13.9866 18.4104 13.4494 18.2136C12.9429 18.0298 12.4805 17.9248 12.1106 18.4498C11.7494 18.4017 11.265 17.9642 11.4059 17.9248C12.802 17.5179 12.41 16.3497 12.6346 15.4309C12.7624 14.9146 12.5642 14.2496 12.1018 14.1708C11.3046 14.0396 11.5953 14.5558 11.6085 14.9584C11.6305 15.6584 11.4103 15.9647 10.7762 15.3521C10.4327 14.3371 9.41095 13.777 9.019 12.797C9.89098 11.8957 10.785 12.3988 11.679 12.7488Z" fill="#7F94BB"/>
<path d="M9.019 12.797C10.415 13.0989 11.058 13.9127 10.7762 15.3521C9.22598 16.2534 7.75972 17.8713 5.88804 15.8893C5.87042 15.2767 5.87483 14.6598 5.55334 14.0998C5.68546 13.9291 5.81758 13.7585 5.9497 13.5879C7.03307 13.5616 7.81672 12.3769 9.019 12.797Z" fill="#505F85"/>
<path d="M9.46835 28.0657C9.84268 28.7832 10.7851 28.2407 11.2123 28.8401C11.0758 28.8795 10.9349 28.9189 10.7983 28.9495C9.47715 29.6933 8.15597 29.0895 6.83919 28.9408C6.33714 28.722 5.76463 28.6126 5.44314 28.0963C6.20062 27.9388 7.08581 28.3807 7.71998 27.6326C8.35415 27.5757 8.92226 27.7769 9.46835 28.0657Z" fill="#6581A5"/>
<path d="M7.2496 18.8594C6.60222 19.2532 6.5802 20.4651 5.61133 20.3208C4.91991 20.2201 5.07845 19.4282 5.02561 18.8769C5.76547 18.4613 6.49652 17.1356 7.2496 18.8594Z" fill="#9EABCC"/>
<path d="M10.7898 21.947C11.1773 21.9295 11.5605 21.912 11.948 21.8901C11.8555 22.2008 11.763 22.507 11.6706 22.8177C10.6621 23.754 9.84732 22.5552 8.8168 22.7521C9.30564 21.6582 10.1292 22.0476 10.7898 21.947Z" fill="#6A83B1"/>
<path d="M4.60674 18.4096C4.05185 18.7378 4.29406 19.8228 3.31198 19.7485C3.31198 19.0572 3.14023 18.3309 3.73036 17.7665C4.01661 17.4952 4.31168 17.0008 4.73446 17.4121C4.87979 17.5521 4.65959 18.0683 4.60674 18.4096Z" fill="#B3BBD7"/>
<path d="M5.55334 14.0998C6.87452 14.4717 6.50019 15.1586 5.88804 15.8893C5.06891 15.4211 5.02487 14.8129 5.55334 14.0998Z" fill="#425277"/>
<path d="M3.75619 16.2966C3.58003 16.1347 3.40387 15.9728 3.23212 15.8066C3.39947 15.4522 3.46112 14.7871 4.04685 15.2509C4.48724 15.6009 4.14374 16.021 3.75619 16.2966Z" fill="#C1C3D5"/>
<path d="M4.63341 23.7291C4.32954 23.5716 4.02126 23.4141 3.71739 23.2566C3.81428 22.9372 3.8363 22.4472 4.32954 22.6309C4.83159 22.8103 4.66424 23.3222 4.63341 23.7291Z" fill="#4D5D7B"/>
<path d="M12.5598 10.5665C12.3793 9.78768 11.3311 8.69824 12.7008 8.35696C13.6476 8.1207 15.189 7.42066 15.7615 9.49016C16.105 10.7371 17.3293 10.7546 18.2806 9.70892C18.8487 9.70455 18.5756 11.4328 19.5621 10.4002C20.5134 9.40703 21.5527 8.79012 22.9355 8.86012C24.4813 8.93888 23.3715 7.37253 24.3316 6.90875C24.4549 8.28696 25.9478 8.82949 26.2121 10.1552C26.4719 11.144 25.9786 11.6428 25.0626 11.7216C24.4108 11.7784 23.8163 11.9272 23.2658 12.2685C22.2969 12.846 21.2796 12.2203 20.3064 12.4522C20.7159 12.6885 21.425 12.8854 21.1607 13.5767C20.4913 15.3268 20.9846 16.4556 22.8078 16.9938C22.7682 17.3438 22.57 17.5757 22.2529 17.7157C22.0415 17.7726 21.8257 17.7988 21.6099 17.7988C19.8792 18.0351 18.7914 17.5144 18.166 15.6899C17.2588 13.0473 14.8807 11.7828 12.5598 10.5665Z" fill="#6780B1"/>
<path d="M22.2306 17.5713C22.3759 17.4226 22.5213 17.2782 22.6666 17.1294C23.0982 16.3769 21.8607 16.425 22.0192 15.7994C22.0897 15.1606 22.5785 14.793 22.9485 14.3424C23.5474 13.7255 24.1816 13.1304 23.8292 12.1373C23.8425 11.9272 23.9482 11.7741 24.1243 11.6691C27.3568 11.6166 27.3568 11.6166 27.5153 8.82079C28.6868 8.54077 29.1316 7.54321 29.6865 6.65503C30.6245 7.85386 30.3163 9.19707 30.1357 10.5228C29.7878 13.1829 27.5021 14.5087 26.04 16.3988C25.833 16.6657 25.3618 16.7007 25.3398 17.1469C25.0579 17.5757 24.6396 17.6676 24.1639 17.6282C23.5166 17.812 22.8692 17.9301 22.2306 17.5713Z" fill="#5A73A4"/>
<path d="M21.3631 2.19284C22.0897 2.22346 22.8164 2.24972 23.5386 2.28034C23.5783 2.41598 23.5871 2.57349 23.6619 2.68724C24.1992 3.51855 25.8155 4.16171 24.9171 5.24678C24.164 6.15684 22.6667 6.40623 21.3455 5.83307C20.6188 5.52242 19.9054 5.18553 19.1875 4.85738C19.1875 4.24922 18.9806 3.5973 19.5531 3.10727C19.8657 3.05039 20.2093 3.31291 20.4955 3.01101C20.2753 2.97164 20.1036 2.86225 19.9935 2.66537C20.3458 2.20596 20.8742 2.26722 21.3631 2.19284Z" fill="#50628A"/>
<path d="M27.5238 8.82975C27.5943 9.17102 27.5811 9.76168 27.7484 9.81856C28.7393 10.1511 28.4706 10.7986 28.158 11.3587C27.8365 11.9318 27.3212 12.4787 26.5725 12.2162C25.7226 11.9143 24.8726 11.8793 24.0006 11.8924C23.71 12.155 23.4149 12.1243 23.1243 11.8924C23.71 10.5361 25.934 12.05 26.207 10.1555C26.6474 9.70918 27.0834 9.27165 27.5238 8.82975Z" fill="#5F79AC"/>
<path d="M18.7213 4.88683C18.5055 4.89559 18.2897 4.92621 18.0739 4.91746C17.5455 4.89559 16.7924 5.75751 16.559 4.56744C16.4929 4.21742 16.6118 3.65738 16.9994 3.77552C17.6379 3.96803 18.9327 3.37299 18.7081 4.89559L18.7213 4.88683Z" fill="#8E9EC2"/>
<path d="M19.9928 2.66201C20.6182 2.78452 21.3008 2.50013 22.0187 3.00328C21.1687 3.7252 20.3936 3.85209 19.5525 3.10392C19.6978 2.95953 19.8475 2.81077 19.9928 2.66201Z" fill="#445270"/>
<path d="M18.7122 4.89589C18.8707 4.88277 19.0293 4.87402 19.1878 4.86089C19.179 4.9309 19.1702 5.0009 19.157 5.06653C19.0249 5.79282 18.5228 6.29161 18.0208 6.76851C17.9987 6.79039 17.62 6.576 17.576 6.42724C17.2941 5.44718 18.4659 5.49937 18.7213 4.88683L18.7122 4.89589Z" fill="#8E9EC2"/>
<path d="M16.9302 8.80121C16.1551 8.47307 16.0186 7.83865 16.1023 7.09923C17.8286 6.96797 16.5823 8.26743 16.9302 8.80121Z" fill="#91A0C4"/>
<path d="M38.9668 17.1339C39.1694 17.5496 39.1694 17.8602 38.7731 18.2409C38.6365 18.3721 36.963 19.0853 38.8435 19.4572C39.1694 19.5228 38.1125 19.7066 38.0949 20.201C37.6809 21.6186 37.0775 22.778 35.2455 22.2224C34.946 21.7892 34.9769 21.1854 34.5409 20.8179C33.7129 20.5116 32.885 20.5247 32.057 20.7916C31.74 20.7216 31.5242 20.5291 31.3788 20.2491C31.3172 19.9297 31.4405 19.6672 31.6211 19.4134C32.1407 18.5996 32.8454 17.8908 33.1316 16.9326C33.4487 15.235 34.6025 15.34 35.8621 15.6813C36.6988 15.8957 37.5444 16.097 38.3635 16.3901C38.6762 16.5432 38.8259 16.8364 38.9668 17.1339Z" fill="#5F77AA"/>
<path d="M35.4431 21.9307C36.8348 22.1188 37.3633 21.0075 38.0943 20.1981C38.3806 21.4232 37.8829 22.4907 37.3677 23.5364C37.2399 23.799 36.9757 23.9915 37.4601 24.0965C37.6627 24.1402 37.8829 24.1227 38.0943 24.1358C37.8257 24.5865 37.1387 24.7615 37.2091 25.4441C36.5221 26.271 36.0465 27.5136 34.5623 26.7566C34.2629 25.7459 33.9634 24.7309 33.6595 23.7202C32.9637 22.7576 31.8495 22.0226 31.92 20.6313C32.8096 19.5462 33.9106 19.8831 35.0071 20.1806C34.7429 20.8631 35.2846 21.3532 35.4431 21.9307Z" fill="#687FAF"/>
<path d="M38.966 17.1347C38.8207 16.9772 38.6753 16.8153 38.5256 16.6578C38.6533 15.7565 38.6665 14.7896 39.8204 14.4921L39.8908 14.5358C40.6131 14.9252 41.1504 15.4021 40.776 16.3253C41.0843 16.6841 41.5027 17.0078 41.1768 17.5679C40.2652 18.2942 39.9613 15.9709 38.966 17.1347Z" fill="#6A82AD"/>
<path d="M43.3708 19.7738C43.2078 20.9157 43.6923 22.3333 42.0408 22.8365C42.3843 21.7733 42.4636 20.5964 43.3708 19.7738Z" fill="#879BC4"/>
<path d="M40.7318 23.2615C40.3003 23.4015 39.869 23.5377 39.4375 23.6777C39.1996 23.2533 38.9662 22.8246 38.6095 22.1902C39.5167 22.4045 40.2122 22.6271 40.7318 23.2615Z" fill="#8799C0"/>
<path d="M41.1768 17.5679C41.0447 17.1522 40.9081 16.741 40.776 16.3253C41.5819 16.2465 42.0268 16.6843 41.9827 17.4106C41.9519 17.9575 41.4807 17.6423 41.1768 17.5679Z" fill="#A9B5D0"/>
<path d="M9.0281 34.1936C9.0281 33.9004 9.0281 33.6073 9.0281 33.3185C10.2348 32.9335 9.64024 31.6516 10.2039 30.9253C11.327 32.881 11.0099 33.7342 9.0281 34.1936Z" fill="#7AA43A"/>
<path d="M9.02851 30.6985C8.42957 30.926 7.83944 31.1841 7.22729 31.3679C6.3377 31.6348 6.73846 31.0748 6.83534 30.7204C7.57521 30.3003 8.31507 29.8759 9.05493 29.4559C9.58781 28.979 10.1691 29.1584 10.7504 29.329C10.1779 29.784 9.60542 30.2391 9.02851 30.6985Z" fill="#6D9635"/>
<path d="M13.0093 32.6389C12.9476 33.3083 13.1766 34.1264 12.2078 34.0958C12.058 34.0914 11.8114 33.8683 11.7894 33.7195C11.6352 32.7876 12.4808 32.8664 13.0093 32.6389Z" fill="#84AD4F"/>
<path d="M10.7494 29.3309C10.1857 29.3746 9.61755 29.414 9.05385 29.4578C8.32279 29.2565 7.44641 29.6722 6.83426 28.9459C8.15544 28.9502 9.47222 28.9502 10.7934 28.9546C10.7846 29.0771 10.767 29.204 10.7494 29.3309Z" fill="#70947A"/>
<path d="M38.5258 5.30903C39.1335 6.0747 37.7595 6.21909 38.1074 7.07664C38.7812 7.07664 39.5387 7.07664 40.3005 7.07664L40.2961 7.08102C40.5207 7.57542 40.2389 7.87294 39.8822 8.13983C39.5915 8.26672 39.2832 8.28859 38.975 8.24484C37.9356 8.04795 36.8919 7.87294 35.8834 8.38485C34.6239 9.07176 33.3379 9.72368 32.3999 10.8569C32.3734 11.3819 32.0343 11.5875 31.5675 11.6619C31.3429 11.6357 31.1756 11.5219 31.0699 11.3207C31.0346 10.6075 31.7261 10.2793 31.9419 9.69743C33.906 9.05864 35.6015 8.15296 35.9715 5.85156C36.0375 5.43154 36.4383 5.37028 36.7994 5.32215C37.3763 5.80343 37.9444 4.91525 38.5258 5.30903Z" fill="#6E9A34"/>
<path d="M38.1024 11.3387C38.2653 12.345 39.6174 12.2838 39.8332 13.242C39.494 13.5263 39.1021 13.6007 38.6749 13.5088C37.8734 13.5132 37.4814 12.1875 36.4729 12.8438C36.31 12.9576 36.1338 13.0407 35.9401 13.0888C34.4251 13.1282 33.8086 12.0344 33.1876 10.9449C34.9051 10.1268 36.495 10.8355 38.1024 11.3387Z" fill="#6E88B4"/>
<path d="M39.8519 7.95295C39.9973 7.66418 40.1426 7.37104 40.2879 7.08227C41.1687 7.08227 42.0539 7.08227 42.9347 7.07789C42.8246 8.60049 41.0498 7.41479 40.6138 8.51736C44.2471 10.005 39.9224 9.89557 40.5742 10.8888C39.319 10.3944 41.4065 9.43179 39.8475 9.24365C39.7022 9.10364 39.6053 8.93301 39.548 8.74487C39.5172 8.42985 39.6185 8.16734 39.8519 7.95295Z" fill="#7EA939"/>
<path d="M33.1869 10.951C34.4508 11.2135 34.7371 13.1299 36.3533 12.7974C36.4414 12.9636 36.4458 13.1299 36.3577 13.3005C35.9437 13.6331 35.5077 13.9437 35.2303 14.4162C35.0938 14.565 34.9264 14.6262 34.7283 14.6131C33.9223 13.3924 32.8742 12.4692 31.4561 12.0011C31.3328 11.8173 31.3372 11.6379 31.4605 11.4542C31.7688 11.2573 32.0771 11.0604 32.3854 10.8635C32.654 10.8898 32.9226 10.9204 33.1869 10.951Z" fill="#627BAC"/>
<path d="M39.8531 8.83089C39.8531 8.9709 39.8487 9.10653 39.8487 9.24654C38.827 9.25091 37.8053 9.25091 36.788 9.26404C36.0437 9.27279 36.1802 8.86152 36.3608 8.41961C36.9245 7.8027 37.6423 7.97333 38.3381 8.03459C38.849 8.28398 39.4215 8.43274 39.8531 8.83089Z" fill="#7CA437"/>
<path d="M38.5263 8.4017C37.8041 8.40608 37.0774 8.41483 36.3552 8.41921C36.1922 8.41045 36.0337 8.39733 35.8708 8.38858C36.7427 7.11975 37.8305 7.30789 38.9843 7.9423C39.09 8.34045 38.9887 8.54609 38.5263 8.4017Z" fill="#95BC53"/>
<path d="M31.4662 11.4481C31.475 11.5881 31.4838 11.7324 31.4882 11.8725C31.6776 12.4237 31.2372 12.5769 30.8981 12.7956C29.524 13.2725 28.6653 14.3007 27.9166 15.4733C27.4145 16.2609 26.8993 17.0703 25.7763 17.0265C25.6309 17.0659 25.49 17.1097 25.3447 17.149C24.5344 17.0484 24.8294 16.8865 25.2302 16.4796C27.0314 14.6333 28.8722 12.8088 30.145 10.5292C30.2859 10.9799 30.2815 11.6012 31.061 11.3212C31.1887 11.3824 31.3252 11.4262 31.4662 11.4481Z" fill="#4D628B"/>
<path d="M34.5656 4.46047C33.7861 5.89118 33.7376 7.68067 32.3768 8.82262C32.6631 7.22127 33.4029 5.69867 33.2576 4.01857C33.9138 3.50666 34.1648 4.19358 34.5656 4.46047Z" fill="#75A234"/>
<path d="M4.85451 36.3092C6.39654 36.3092 7.64661 36.2426 7.64661 36.1604C7.64661 36.0783 6.39654 36.0117 4.85451 36.0117C3.31247 36.0117 2.06241 36.0783 2.06241 36.1604C2.06241 36.2426 3.31247 36.3092 4.85451 36.3092Z" fill="#7CAC33"/>
<path d="M5.62007 33.845C5.73017 34.1163 5.86669 34.2913 5.86229 34.4619C5.85348 34.7813 5.62888 34.9738 5.32501 34.8119C5.2061 34.7507 5.14004 34.4444 5.17968 34.2825C5.21051 34.1338 5.4219 34.0288 5.62007 33.845Z" fill="#A3C769"/>
<path d="M12.5596 10.5635C15.6028 10.8654 17.3511 12.9043 18.4125 15.3982C19.1347 17.087 20.0155 17.8439 21.7947 17.5814C21.9444 17.6689 21.9929 17.7608 21.9444 17.8483C21.896 17.9358 21.8476 17.9796 21.7947 17.9796C21.209 18.0364 20.6277 18.089 20.0419 18.1458C19.606 18.1283 19.1744 18.1065 18.7384 18.089C17.8312 15.2975 16.5056 12.8605 13.4316 11.8979C12.9736 11.3423 11.7273 11.7886 11.7625 10.6072C12.0268 10.5897 12.291 10.5766 12.5596 10.5635Z" fill="#526795"/>
<path d="M38.5269 5.31015C37.95 5.23577 37.3863 6.86774 36.7918 5.32765C37.078 5.17889 37.3599 5.02575 37.6461 4.87699C38.2671 4.86387 38.5617 3.51986 39.4117 4.44742C39.1166 4.73619 38.822 5.02138 38.5269 5.31015Z" fill="#93BD57"/>
<path d="M38.0946 1.82636C38.7463 1.89636 39.037 2.172 38.6803 2.8283C38.306 3.51521 37.87 3.88711 37.1962 3.13019C37.4956 2.69704 37.7951 2.25951 38.0946 1.82636Z" fill="#9CC461"/>
<path d="M34.5615 4.45403C34.632 4.06463 34.4074 3.56147 34.9491 3.35146C35.0239 3.32083 35.2441 3.44334 35.2574 3.52209C35.3631 4.06025 34.9359 4.24401 34.5615 4.45403Z" fill="#90BB4D"/>
<path d="M41.4444 1.51853C41.3122 1.59291 41.1581 1.73292 40.9819 1.76792C40.7617 1.81168 40.5371 1.68917 40.6472 1.43103C40.7133 1.27352 40.9247 1.12913 41.1009 1.08538C41.3475 1.02413 41.4664 1.19914 41.4444 1.51853Z" fill="#A8CB6C"/>
<path d="M4.08162 31.0952C3.99354 31.1039 3.90547 31.1127 3.81739 31.1171C3.79096 30.4739 4.03318 30.0101 4.71579 29.9095C5.2795 29.822 5.45125 30.1808 5.46446 30.662C4.98003 30.7364 4.45155 30.6708 4.08162 31.0952Z" fill="#A9C96C"/>
<path d="M38.5345 25.0173C38.42 25.4067 38.9925 25.9798 38.4773 26.1505C38.0369 26.2949 37.526 25.8967 37.2133 25.4548C37.6537 25.306 38.0941 25.1617 38.5345 25.0173Z" fill="#687FAF"/>
<path d="M2.43667 33.7707C2.39264 32.5413 3.55968 32.2656 4.19385 31.5656C4.51974 31.6312 5.01298 31.6137 4.65626 32.1475C4.11898 32.9482 3.27342 33.3638 2.43667 33.7707Z" fill="#A8C870"/>
<path d="M35.0297 14.087C34.9636 13.0807 35.7079 13.2295 36.3244 13.1901C37.606 13.0194 38.8127 13.1551 39.808 14.0826C39.8256 14.2183 39.83 14.3539 39.8212 14.4895C39.1782 15.0889 39.601 16.314 38.5264 16.6553C37.6676 16.5197 36.8089 16.3797 35.9545 16.244C35.7739 16.1303 35.6859 15.964 35.6903 15.7496C35.9061 14.8746 36.7604 15.2946 37.2977 14.9927C36.5358 14.6383 35.4965 15.0627 35.0297 14.087Z" fill="#4F5B73"/>
<path d="M39.8072 14.0819C38.7723 13.2856 37.3586 13.9681 36.3237 13.1893C36.3369 13.058 36.3457 12.9268 36.3589 12.7955V12.7868C37.2221 12.183 37.799 13.1062 38.5301 13.1893C38.966 13.2068 39.4016 13.2245 39.8332 13.242C39.8243 13.522 39.816 13.8018 39.8072 14.0819Z" fill="#526282"/>
<path d="M31.9285 20.6293C32.4482 21.6924 33.5184 22.4494 33.6681 23.7182C33.5228 23.8582 33.3774 24.0026 33.2321 24.1426C31.7348 21.6837 29.8058 19.7848 26.8552 19.1242C26.5733 19.0585 26.3708 18.6298 26.133 18.3716C26.1374 18.2491 26.1726 18.131 26.2386 18.0216C26.6174 17.7766 27.0137 17.8991 27.4057 17.9822C28.9515 18.3979 30.4312 18.936 31.5102 20.2092C31.6467 20.3492 31.7876 20.4892 31.9285 20.6293Z" fill="#576C9A"/>
<path d="M27.9604 21.9967C27.8195 22.4036 27.6786 22.8149 27.5332 23.2218C27.2514 23.5237 26.9519 23.5237 26.6437 23.2655C26.1636 23.1912 25.6396 23.4187 25.1948 23.0424C25.4238 22.0055 26.7235 22.7489 27.067 21.922C27.3665 21.9483 27.661 21.9748 27.9604 21.9967Z" fill="#48547C"/>
<path d="M19.5901 30.2673C18.9339 29.8079 19.2188 29.1167 19.1527 28.5129C21.6233 28.5261 19.2422 29.7335 19.5901 30.2673Z" fill="#647DAF"/>
<path d="M26.6437 23.2655C26.9387 23.2524 27.2382 23.2393 27.5332 23.2218C26.9651 24.285 25.9955 24.5556 24.8814 24.5337C24.899 23.3305 26.2781 23.9918 26.6437 23.2655Z" fill="#61789E"/>
<path d="M27.0973 18.4315C26.811 18.2958 26.5247 18.1602 26.2385 18.0246C26.19 17.6439 26.199 17.2365 25.7763 17.0265C26.8112 16.5365 27.3175 15.5613 27.8679 14.6644C28.5373 13.5837 29.3917 12.7874 30.5984 12.3717C31.3603 13.7674 30.3518 14.9706 30.158 16.2613C30.1492 16.3182 30.0391 16.3532 30.0083 16.4101C29.0174 18.3527 29.0174 18.3527 27.0973 18.4315Z" fill="#627BAC"/>
<path d="M21.7908 17.9798C21.7952 17.8442 21.7952 17.7129 21.7908 17.5773C21.9361 17.5773 22.0858 17.5729 22.2312 17.5729C22.8741 17.5948 23.5215 17.6123 24.1689 17.6342C23.429 18.0848 22.6055 18.0061 21.7908 17.9798Z" fill="#5F78A8"/>
<path d="M12.5514 22.3865C12.5514 22.0978 12.5514 21.809 12.5558 21.5202C13.1063 21.3058 13.7669 20.7633 13.8638 21.9403C13.4278 22.089 12.9918 22.2378 12.5514 22.3865Z" fill="#8197BA"/>
<path d="M10.0149 14.2339C9.1429 15.1921 8.54397 15.9272 7.38573 15.7346C7.05984 15.6821 6.80441 15.319 6.93653 15.1396C7.62794 14.2252 8.63204 14.1902 10.0149 14.2339Z" fill="#5C7199"/>
<path d="M23.1203 11.8905C23.4109 11.8905 23.706 11.8905 23.9967 11.8905C23.9967 12.0348 23.9967 12.1748 23.9967 12.3192C24.2741 13.3693 22.2571 13.133 22.8428 14.3537C22.8648 14.9356 21.9004 15.0975 22.2307 15.802C22.0149 16.362 24.0275 16.2001 22.6667 17.132C22.5654 17.0358 22.4685 16.8564 22.3584 16.8476C20.4603 16.7383 20.2445 16.7033 20.5528 14.9969C20.8126 13.5531 20.4867 12.6474 18.8528 11.8992C20.588 11.9298 21.8563 12.2142 23.1203 11.8905Z" fill="#5F78A8"/>
<path d="M22.6898 14.4986C20.1576 12.0134 23.9493 13.2735 23.9978 12.3153C24.7112 13.2035 24.5131 13.6892 23.0818 14.5686C22.932 14.6692 22.7999 14.6474 22.6898 14.4986Z" fill="#495C83"/>
<path d="M22.6887 14.4981C22.8208 14.5069 22.9529 14.5287 23.085 14.5681C23.1775 15.2375 22.4905 15.3732 22.2351 15.8019C21.4291 15.0363 22.2307 14.8262 22.6887 14.4981Z" fill="#758FB8"/>
<path d="M20.2753 4.29907C21.024 3.85279 21.4291 4.38657 21.918 4.4172C22.3848 4.44345 22.9265 3.95342 23.3052 4.55721C23.3889 4.68847 23.3493 5.04724 23.2392 5.12599C22.6799 5.52414 22.1382 5.266 21.6097 4.99036C21.231 4.78472 20.8434 4.59221 20.2753 4.29907Z" fill="#7087B6"/>
<path d="M27.0974 18.43C27.6964 16.9862 28.7533 18.7451 29.5768 17.7825C29.7178 17.2268 28.5463 17.0781 28.5639 16.3299C30.9509 15.8793 29.8675 13.6654 30.603 12.3747C30.898 12.2084 31.1931 12.0421 31.4926 11.8759C33.5184 11.6396 34.3639 12.9478 35.0113 14.5185C35.6763 14.7067 35.6895 15.3061 35.8393 15.8224C35.8789 15.9624 35.9185 16.1024 35.9582 16.2424C34.7999 16.0061 33.3731 15.3192 33.6901 17.5681C33.2057 17.9356 32.7829 17.7519 32.3734 17.4325C32.0783 17.1131 31.7788 17.1043 31.475 17.4194C31.7172 17.5987 32.1664 17.4456 32.25 17.8919C32.3866 18.5569 32.228 19.1695 31.933 19.7558C31.792 19.9045 31.6511 20.0576 31.5102 20.2064C29.938 19.8476 28.7665 18.535 27.0974 18.43Z" fill="#6F87B6"/>
<path d="M32.3516 17.1259C32.7964 17.2746 33.2412 17.4234 33.686 17.5721C33.1003 18.3028 32.5145 19.0335 31.9244 19.7598C31.92 19.0247 31.9156 18.2897 31.9156 17.559C31.8055 17.1609 31.964 17.0296 32.3516 17.1259Z" fill="#687FAF"/>
<path d="M35.4425 21.9327C34.9889 21.4251 34.2226 20.992 35.0153 20.1826C35.2883 20.7339 35.5438 21.2895 35.4425 21.9327Z" fill="#91A3C3"/>
<path d="M38.5256 8.4035C38.6797 8.25037 38.8295 8.09286 38.9836 7.93972C39.2743 7.9441 39.5613 7.94857 39.8519 7.95295C39.8519 8.24609 39.8512 8.53914 39.8512 8.83228C39.3712 8.80603 38.8515 8.89791 38.5256 8.4035Z" fill="#88B345"/>
<path d="M38.5301 13.1893C37.8078 13.0537 37.0812 12.9224 36.3589 12.7868C36.3237 12.0867 36.3014 11.3351 37.3232 12.0132C37.7812 12.3195 38.1293 12.7911 38.5301 13.1893Z" fill="#627BAC"/>
<path d="M35.8353 15.8223C35.5579 15.3891 35.2848 14.956 35.0074 14.5185C35.0074 14.3741 35.0162 14.2297 35.0294 14.0853C35.7164 14.1728 36.4299 14.4135 37.086 14.3041C37.7642 14.1903 38.3412 14.1859 38.3588 14.8991C38.3808 15.7435 37.685 15.8923 36.9759 15.6779C36.5532 15.551 36.17 15.3804 35.8353 15.8223Z" fill="#627896"/>
<path d="M32.3516 17.1259C32.2063 17.2702 32.0609 17.4146 31.9156 17.559C31.6998 17.909 31.4891 18.2589 31.0047 19.0508C30.7977 17.6113 31.1896 16.7319 32.044 16.3644C32.7354 16.0669 32.4661 16.7627 32.3516 17.1259Z" fill="#8C9FC4"/>
<path d="M32.7707 14.765C32.7091 15.0538 32.5902 15.3075 32.2555 15.3469C31.8063 15.4038 31.5773 15.1369 31.5597 14.7475C31.5464 14.4631 31.7094 14.2006 32.0573 14.1656C32.4977 14.1174 32.6915 14.3756 32.7707 14.765Z" fill="#B7C1D6"/>
</svg>
