<svg width="60" height="47" viewBox="0 0 60 47" fill="none" xmlns="http://www.w3.org/2000/svg">
<path d="M17.3328 43.3769C16.8424 43.289 16.2008 43.3924 16.013 42.7874C15.82 42.1566 16.4199 41.8981 16.8268 41.6344C18.5743 40.5072 20.52 40.6726 22.3666 41.138C24.5209 41.6861 25.7937 41.0191 26.6179 39.0439C27.077 37.9425 27.729 36.9136 28.3289 35.8743C29.7164 33.4751 29.0175 32.1255 26.2841 31.9652C26.1589 31.8515 26.1224 31.7429 26.1693 31.6395C26.2163 31.5361 26.2632 31.4895 26.3102 31.4895C27.0822 30.8794 29.2678 32.472 28.7879 29.9228C29.9251 29.6022 30.019 30.5381 30.3528 31.1896C30.4154 32.9942 29.8729 35.0728 32.4603 35.7243C33.2479 36.1897 34.745 36.0759 34.1347 37.6995C34.8076 38.3252 35.6423 38.9301 34.359 39.7626C33.1019 40.2693 32.1681 41.1173 31.5943 42.3376C31.1822 42.8805 30.6084 43.1597 29.972 43.3407C29.3409 43.6665 28.668 43.7233 28.9444 42.7926C29.3722 41.35 28.5636 41.4689 27.656 41.562C26.9048 41.7378 26.8422 42.4875 26.4562 42.9736C26.2163 43.2476 25.9241 43.4234 25.5694 43.5062C25.3243 43.5165 25.0895 43.4596 24.8704 43.3511C23.9732 42.8133 22.956 42.6323 21.9493 42.4203C21.5945 42.3428 21.292 42.0739 20.9008 42.167C21.3442 42.441 21.3494 42.8391 21.2346 43.2838C21.0729 43.5113 20.8643 43.6716 20.6034 43.7802C19.4558 44.0543 18.3343 44.199 17.3328 43.3769Z" fill="#F07F4D"/>
<path d="M27.7866 27.3894C27.6249 27.3687 27.4684 27.3428 27.312 27.3118C26.7851 26.9447 26.3104 26.5517 26.6495 25.8123C27.4111 23.6717 29.1116 22.4514 31.0417 21.4534C31.4538 21.4896 31.6937 21.7327 31.8293 22.0998C31.965 22.7565 31.7563 23.289 31.0677 23.7544C30.8956 23.8164 31.5529 24.0853 31.2764 23.8733C31.1877 23.8061 31.2712 23.7803 31.4068 23.6562C31.8554 23.2425 32.6483 23.713 32.9926 22.9891C33.3943 22.1463 33.822 21.7068 34.6149 22.7927C35.3504 23.7906 35.8929 22.3118 36.618 22.4359C37.2544 22.4566 37.8438 22.6168 38.3185 23.0615C37.9586 25.0522 35.9085 24.8351 34.9592 25.7451C35.3608 25.7037 36.0859 25.0316 36.5867 25.7968C37.0666 26.531 36.4093 27.0998 35.919 27.529C35.1157 28.227 34.328 28.8785 34.7088 30.0988C34.7714 30.5745 34.8601 31.0502 34.8705 31.5363C34.8392 31.7896 34.714 31.9913 34.5158 32.1567C34.1558 32.3119 33.7907 32.3067 33.4256 32.1723C31.8033 31.1226 30.0871 30.2436 28.3657 29.3749C28.3239 28.8734 28.2874 28.3718 28.2457 27.8703C28.8351 27.4514 29.675 28.1184 30.1445 27.3635C29.4037 27.2963 28.5952 27.3118 27.7866 27.3894Z" fill="#F2905E"/>
<path d="M34.166 30.4399C32.9193 28.0459 35.757 27.534 36.4925 26.0293C35.4388 25.5329 35.0423 26.2465 34.5155 26.6343C34.1243 26.9187 33.6704 27.4978 33.2531 26.8256C32.9088 26.2672 33.3627 25.9156 33.9365 25.7346C35.5901 25.202 36.8576 24.0593 38.1826 23.0148C38.0052 22.4564 38.0365 22.0375 38.8034 22.1151C39.4815 23.4181 39.9927 24.7625 39.8518 26.2672C39.2989 26.898 39.7527 27.6994 39.4815 28.3768C39.085 29.0283 38.8242 29.778 38.1304 30.2176C36.8211 30.6209 35.5066 30.776 34.166 30.4399Z" fill="#F0814D"/>
<path d="M38.2506 29.9231C38.2506 29.1681 38.5949 28.6356 39.3043 28.346C39.5286 28.4391 39.6799 28.5994 39.7634 28.8217C39.1739 31.0244 38.9913 33.3357 37.8959 35.4091C37.0926 36.9345 36.1171 38.1134 34.1297 37.6997C34.1505 36.2313 32.4656 36.9448 32.017 36.071C31.8971 35.9417 31.8449 35.8021 31.8658 35.6573C31.8866 35.5074 31.9127 35.435 31.944 35.435C32.7943 34.6439 33.8063 33.9613 33.8584 32.6377C33.968 32.4412 34.1349 32.3171 34.354 32.2654C34.7661 32.2705 35.1834 32.3326 35.6007 32.2964C35.9345 32.2085 36.1119 31.9603 36.2788 31.6966C36.4666 31.3191 36.6492 30.9365 36.9048 30.5952C37.1917 30.0678 37.9011 30.3574 38.2506 29.9231Z" fill="#F28C5A"/>
<path d="M10.1863 7.05851C10.3428 7.05851 10.4888 7.08954 10.6349 7.15676C12.0642 7.35324 12.6223 8.64074 13.5717 9.44219C14.1403 10.0885 14.9749 10.3419 15.6478 10.8176C16.4146 11.3605 17.1501 12.0275 16.1538 13.0151C15.2357 13.4081 16.2529 13.7183 16.2164 14.0751C16.399 14.4733 16.5607 14.8869 16.8215 15.2437C17.2388 15.7763 17.6874 16.2933 18.0421 16.8725C18.4229 18.16 20.9633 18.7701 19.2732 20.7091C18.5794 20.7556 18.1725 20.2799 17.7344 19.8663C17.1084 19.3957 17.3484 18.5374 16.8841 17.9945C16.0443 16.7535 15.2775 15.4453 13.8064 14.8042C13.723 13.9252 13.17 13.4081 12.4241 13.041C11.313 12.2499 10.0611 11.6708 8.95521 10.8693C8.38662 10.4556 7.81804 9.99029 7.84933 9.25605C7.89628 8.1547 8.80393 8.65108 9.3986 8.51147C9.80548 8.4184 9.74288 8.02026 9.56031 7.69451L9.6542 7.57558C9.52901 7.11022 9.63333 6.86203 10.1863 7.05851Z" fill="#ED7443"/>
<path d="M15.2306 6.54664C15.5592 4.90753 13.4153 5.65211 13.2275 4.50939C17.5206 4.62832 20.9164 6.81034 24.2288 9.19402C24.5001 11.3812 22.8152 10.2592 21.9493 10.5229C21.1042 10.3936 20.2748 9.99548 19.3985 10.3988C18.882 9.84553 18.2717 9.66456 17.5414 9.91792C16.952 9.45773 17.2858 8.67179 16.8842 8.14438C16.5086 7.43082 15.6218 7.23951 15.2306 6.54664Z" fill="#F18B5C"/>
<path d="M33.0761 15.3834C34.0307 15.5696 34.6775 16.1797 35.2409 16.9088C35.2565 17.6792 36.0442 18.217 35.8825 19.0391C35.7729 19.4941 35.5695 19.8923 35.1678 20.1663C33.9524 20.1456 33.6342 18.915 32.7631 18.429C32.5023 18.1963 32.3614 17.8964 32.278 17.5655C32.1736 17.7723 32.1841 18.0412 31.9285 18.1653C29.5707 18.31 28.7882 16.0815 27.192 15.0835C27.9901 14.9077 27.7606 14.3338 27.6876 13.8219C28.4074 12.431 29.4976 13.46 30.4209 13.4134C30.9321 13.5582 31.3129 13.8633 31.5477 14.3338C31.1617 15.9729 32.1267 15.6678 33.0761 15.3834Z" fill="#F18B5C"/>
<path d="M25.7158 44.7734C23.0972 46.459 20.3273 46.154 17.5366 45.3628C17.088 45.2336 16.4933 45.0526 16.8324 44.3287C18.1364 43.5583 19.7014 43.8685 21.0576 43.3308V43.3359C22.4452 42.3277 23.8379 42.6534 25.2307 43.3308L25.2359 43.3359C24.5839 44.0805 26.0393 44.1374 25.7158 44.7734Z" fill="#F07E4C"/>
<path d="M30.4314 13.4177C29.6646 14.1416 28.5691 13.0144 27.8284 13.8728C27.3329 14.1468 26.8843 13.9296 26.4356 13.7383C25.0116 12.5232 23.045 11.9441 22.1269 10.1395C22.6329 9.40012 24.0671 10.6883 24.2288 9.19402C26.4093 10.435 28.5326 11.758 30.4314 13.4177Z" fill="#F08150"/>
<path d="M25.7158 44.7734C25.309 44.3752 24.6932 44.0387 25.2357 43.3303C25.58 43.1596 25.9295 42.9838 26.2738 42.8132C26.9728 42.2961 26.7381 41.3137 27.3327 40.7398C29.6279 40.5278 29.8835 40.8277 29.4819 43.2579C29.4819 43.2631 29.7949 43.3148 29.9618 43.3458C28.8142 44.6023 26.9521 43.7651 25.7158 44.7734Z" fill="#F28F5B"/>
<path d="M8.54334 13.7952C9.96219 13.4694 11.381 13.1437 12.7999 12.8128C13.6241 13.2368 15.4707 13.154 13.8067 14.8086C11.3184 13.8986 9.12235 14.1209 7.43225 16.3805C6.53503 16.3909 6.66544 15.9307 6.97321 15.3878C7.32792 14.7052 7.86521 14.183 8.54334 13.7952Z" fill="#F18B5C"/>
<path d="M15.1785 28.3459C15.2255 26.7068 15.1733 25.0418 16.3783 23.6974C16.6078 23.8009 16.7747 23.9663 16.8843 24.1938C16.1488 25.5744 18.2927 26.5672 17.4007 27.9736C17.0356 27.5186 16.6756 27.0687 16.0132 26.2414C15.7576 28.7647 17.1138 30.3935 17.9484 32.7668C16.034 31.3811 15.8671 29.7109 15.1785 28.3459Z" fill="#F5A987"/>
<path d="M15.7732 5.51216C12.7007 5.63108 10.9376 3.38701 8.84581 1.74274C8.75192 0.956795 9.04925 0.760309 9.62827 1.31874C11.4331 3.0716 13.6344 4.24534 15.7732 5.51216Z" fill="#F5A582"/>
<path d="M10.1863 7.05851C10.0089 7.23432 9.82659 7.40948 9.64923 7.58528C7.83915 6.23574 6.02906 4.88619 4.21377 3.53665C3.88513 2.64212 3.80167 2.01647 4.95971 2.92134C6.71241 4.28639 8.444 5.67794 10.1863 7.05851Z" fill="#F5A37C"/>
<path d="M35.637 19.0856C35.637 18.3359 34.4059 17.8085 35.2405 16.914C36.7063 17.7878 37.5305 19.1994 38.3756 20.5903C38 21.8985 37.1602 21.0557 36.482 20.9936C35.7361 20.5645 35.1466 20.0577 35.637 19.0856Z" fill="#F07F4E"/>
<path d="M28.3706 29.37C30.3267 29.794 32.3611 30.0732 33.5817 31.9553C32.1994 32.9688 31.0466 32.3535 29.9355 31.4486C29.6069 30.9005 29.5025 30.1818 28.7827 29.9181C28.647 29.9233 28.5166 29.8974 28.3914 29.8405C28.2089 29.7474 28.141 29.6389 28.1776 29.5199C28.2193 29.3907 28.2715 29.3286 28.3236 29.3286L28.3706 29.37Z" fill="#EE7745"/>
<path d="M28.3236 29.3286C28.3445 29.4993 28.3654 29.6699 28.3914 29.8405C26.6231 30.1404 24.3388 29.013 23.3738 32.3998C22.9095 29.7783 23.7858 28.9251 25.5438 28.9096C26.4671 28.9044 27.3951 29.1787 28.3236 29.3286Z" fill="#F5A784"/>
<path d="M27.7866 27.3894C29.0438 26.4897 30.3529 26.3602 32.2256 27.172C30.6503 27.7252 29.7113 28.9662 28.2455 27.8597C28.0942 27.7046 27.9431 27.5497 27.7866 27.3894Z" fill="#EE7745"/>
<path d="M36.7538 20.6256C37.2858 20.2792 37.8539 21.4538 38.3756 20.5903C38.9181 20.9885 38.809 21.5615 38.8038 22.1096C38.3448 22.2389 38.2613 22.6215 38.1831 23.0093C37.5832 23.2368 36.9989 23.3971 36.6181 22.6577C36.1591 22.2802 35.9661 21.7942 36.0078 21.2048C36.1278 20.8531 36.4616 20.7652 36.7538 20.6256Z" fill="#FEECDA"/>
<path d="M17.9276 19.5611C14.8969 19.4732 15.1629 21.919 14.636 23.9304C14.0153 23.3512 14.2709 22.6791 14.1353 22.1258C14.2396 20.2178 16.0288 19.4164 16.8843 17.9996C17.5468 18.315 17.6094 19.0234 17.9276 19.5611Z" fill="#F49E7A"/>
<path d="M33.0761 15.3834C32.6535 16.2935 31.8134 16.8413 31.0519 16.2415C30.5041 15.8124 30.8641 14.8558 31.5578 14.3387C32.0638 14.6903 32.5701 15.037 33.0761 15.3834Z" fill="#EE7449"/>
<path d="M21.0681 43.3309C19.764 44.0961 18.3451 44.4012 16.8428 44.3288C17.0097 44.0134 17.1714 43.6928 17.3383 43.3774C18.5746 43.3619 19.8213 43.3464 21.0681 43.3309Z" fill="#F5A578"/>
<path d="M31.5892 42.3429C31.6518 40.5746 32.7994 39.9541 34.3539 39.7679C33.4776 40.6728 32.8412 41.8362 31.5892 42.3429Z" fill="#EE723D"/>
<path d="M22.0693 28.294C22.4918 27.477 22.9821 26.7428 23.9993 26.5928C24.0567 26.9961 24.1141 27.3994 24.1715 27.8028C23.6603 28.1544 23.1491 28.506 22.6326 28.8576C22.1475 28.9662 21.8815 28.8524 22.0693 28.294Z" fill="#F18555"/>
<path d="M6.96821 15.3931C7.11948 15.724 7.27598 16.0549 7.42725 16.3858C7.0934 17.1563 6.75955 17.9267 6.42571 18.7023C5.79974 17.42 6.30573 16.391 6.96821 15.3931Z" fill="#F6AB8A"/>
<path d="M26.3049 31.4898C26.2997 31.6501 26.2892 31.8052 26.2788 31.9655C25.7467 32.3378 26.0232 33.3926 25.0843 33.3771C24.9695 33.3771 24.7452 32.9893 24.7608 32.798C24.8391 31.8879 25.3712 31.4381 26.3049 31.4898Z" fill="#F5A984"/>
<path d="M39.7634 28.8217C39.6121 28.6614 39.4556 28.5063 39.3043 28.346C39.3878 27.6273 39.08 26.8045 39.852 26.2616C40.092 27.1251 40.0242 27.9789 39.7634 28.8217Z" fill="#EC6632"/>
<path d="M22.0693 28.294C22.2571 28.4801 22.4503 28.672 22.6381 28.8581C22.4503 29.339 22.2625 29.8198 22.0747 30.3007C21.068 29.8612 21.6052 29.0908 21.6574 28.4186C21.7983 28.3927 21.9337 28.3508 22.0693 28.294Z" fill="#F49F77"/>
<path d="M29.9355 31.4486C31.1509 31.6192 32.3663 31.7847 33.5817 31.9553C33.926 31.9605 34.2708 31.9603 34.615 31.9655C34.7455 32.1309 34.7402 32.2964 34.6098 32.4619C34.4429 32.467 34.276 32.4722 34.1091 32.4774C33.071 33.2892 31.7043 33.8786 32.0173 35.5849C32.0173 35.7504 32.0225 35.9107 32.0225 36.0762C29.1378 35.497 29.4086 33.5324 29.9355 31.4486Z" fill="#F49C6B"/>
<path d="M25.2359 43.3249C23.8431 43.3249 22.4556 43.3301 21.0628 43.3301C20.9167 41.5824 19.4666 42.8182 18.7572 42.2029C21.0419 41.8875 23.358 41.1791 25.2359 43.3249Z" fill="#F28F60"/>
<path d="M27.3327 40.7398C27.2962 41.5878 27.4268 42.5233 26.2792 42.8129C26.2636 41.9391 26.2842 41.081 27.3327 40.7398Z" fill="#F9BF9A"/>
<path d="M16.8893 24.1943C16.7224 24.0288 16.5503 23.8634 16.3833 23.6979C16.905 22.3225 18.6212 21.9554 19.0959 20.5386C20.3113 18.5324 17.2858 18.4445 17.4318 16.9243C17.6248 15.9832 16.978 15.6782 16.2634 15.43C15.8826 15.1197 15.8617 14.7009 15.8982 14.2614C16.0286 13.9874 16.1956 13.7495 16.4929 13.6254C16.8476 13.4858 17.1762 13.2738 17.5414 13.1704C18.3238 13.0928 17.4266 12.1208 18.1569 12.007C19.4819 11.3813 20.8381 12.0018 22.1735 11.8881C23.7802 11.9346 25.0112 12.8602 26.3153 13.6151C26.7274 13.9925 27.6455 13.9977 27.3169 14.9284C29.2782 15.3369 30.0659 17.4931 31.9594 18.005C32.5489 18.4238 32.7836 19.0391 32.9453 19.7061C32.9714 20.8127 33.0497 21.9502 31.5004 22.1364C31.3283 21.9657 31.1561 21.7951 30.984 21.6245C30.3111 20.6472 30.7597 19.8664 31.0257 19.5562C30.2224 22.4104 27.9637 24.3184 24.3331 24.4063C24.0827 24.4425 23.8636 24.3753 23.6811 24.1994C23.0916 23.853 22.4709 23.5479 21.9127 23.155C19.8418 21.6762 18.1204 21.7382 16.8893 24.1943Z" fill="#F18450"/>
<path d="M31.5004 22.1364C32.3298 21.4435 32.5856 20.533 32.523 19.4989C32.3143 18.8887 32.6012 18.4337 32.9872 18.0097C34.0826 18.3096 34.38 19.4161 35.1051 20.0883C35.5537 20.3468 35.9084 20.7036 36.2214 21.1018C36.3466 21.624 36.8682 22.0428 36.623 22.6581C36.4509 22.8494 36.2996 23.0614 36.1066 23.2269C35.611 23.6561 35.2563 24.5299 34.5365 24.3593C33.7227 24.168 34.4061 23.1132 33.7801 22.4978C33.608 24.7316 30.8381 23.6406 30.3425 26.0863C29.607 23.9043 31.6934 23.4497 31.5004 22.1364Z" fill="#EF7D4A"/>
<path d="M24.2136 24.1881C24.6257 23.5832 25.3299 23.8675 25.8515 23.6556C27.4894 22.9989 29.6751 22.973 29.6647 20.3153C29.6647 19.7 30.4263 19.0226 31.287 18.8934C31.8816 19.8965 30.9427 20.7083 30.9896 21.6235C30.7966 21.8975 30.6193 22.1871 30.4054 22.4456C29.3621 23.6711 27.5468 24.0951 26.9052 25.7393C26.6079 24.5346 25.7837 24.5139 24.8082 24.8086C24.2657 24.9224 24.0779 24.7052 24.2136 24.1881Z" fill="#ED6E37"/>
<path d="M38.2506 29.9231C38.4801 30.8383 37.2284 30.2283 37.2232 30.9057C36.4199 31.4021 35.6218 31.914 34.6098 31.4745C34.1925 31.2418 34.1347 30.8587 34.166 30.4399C35.4336 29.5454 36.8735 29.9903 38.2506 29.9231Z" fill="#ED6B34"/>
<path d="M34.6098 31.4745C35.4079 30.9574 36.3051 30.8747 37.2232 30.9057C37.0511 31.2418 36.884 31.5779 36.7119 31.914C36.5449 32.4311 35.3034 31.9502 35.6895 32.9895C35.2461 32.9843 34.8444 32.8913 34.6045 32.4621C34.6201 32.2966 34.6201 32.1312 34.6097 31.9657C34.6201 31.8003 34.6202 31.6399 34.6098 31.4745Z" fill="#F07F4D"/>
<path d="M24.2136 24.1881C24.4118 24.395 24.6099 24.6019 24.8029 24.8087C23.7179 25.8842 21.9443 25.9515 21.0627 27.3165C20.3533 24.9639 22.9719 25.3723 23.6866 24.1986C23.8587 24.1934 24.0362 24.1933 24.2136 24.1881Z" fill="#F29061"/>
<path d="M17.3278 8.1439C18.2407 8.62477 17.5834 9.1832 17.4113 9.72095C16.0237 11.3445 14.631 10.238 13.2382 9.73646C12.3671 8.87813 11.5011 8.0198 10.63 7.16147C10.7761 6.99601 10.9273 6.83055 11.0734 6.66508C11.9184 4.85535 13.2382 6.65991 14.271 6.2566C14.4953 6.3807 14.7144 6.50479 14.9387 6.62372C15.3665 7.69922 16.1437 8.23697 17.3278 8.1439Z" fill="#F09061"/>
<path d="M17.3278 8.1439C16.7645 8.54721 16.4252 9.4833 15.4862 9.00243C14.4012 8.44399 14.6985 7.51327 14.9385 6.61874C15.0376 6.59289 15.1315 6.56732 15.2306 6.54664C16.3156 6.588 17.2235 6.85123 17.3278 8.1439Z" fill="#604833"/>
<path d="M14.2762 6.25125C14.1614 7.11475 13.6189 6.84588 13.2016 6.58735C12.4556 6.12716 11.7723 6.23574 11.0785 6.6649C10.6769 6.35983 10.1761 6.06511 10.3691 5.48082C10.5412 4.96375 11.0942 5.062 11.4541 5.18092C12.4139 5.48082 13.3372 5.88413 14.2762 6.25125Z" fill="#F18960"/>
<path d="M32.012 35.5851C30.807 33.6461 31.266 32.9635 34.1037 32.4775C34.6306 34.3234 33.7021 35.2076 32.012 35.5851Z" fill="#F07F4D"/>
<path d="M35.6895 32.9895C35.0739 31.7382 36.0494 31.9761 36.7119 31.914C36.7223 32.6017 36.3937 32.9688 35.6895 32.9895Z" fill="#F5A270"/>
<path d="M13.2433 9.73623C14.6361 9.6173 16.0288 10.4136 17.4164 9.72072C18.2354 9.45184 18.9604 9.59662 19.5812 10.2016C20.9427 10.3153 21.5425 11.3029 22.1059 12.3422C20.7027 12.942 19.3047 11.9234 17.9015 12.3371C17.6511 12.637 17.4477 12.9576 17.4164 13.3609C17.4372 14.3123 16.8895 14.0848 16.347 13.8624C15.961 13.6349 15.5854 13.3971 15.7889 12.849C16.8113 11.6184 15.7367 11.215 14.8969 11.0599C14.0049 10.9048 13.6293 10.3722 13.2433 9.73623Z" fill="#EF7B48"/>
<path d="M15.7837 12.8541C15.9714 13.1902 16.1592 13.5263 16.3418 13.8675C16.1958 14.002 16.0497 14.1364 15.8984 14.2657C15.6167 13.9606 15.3038 13.6711 15.0586 13.3401C14.8864 13.1023 14.6465 12.5956 14.6934 12.5645C15.142 12.2388 15.4029 12.7817 15.7837 12.8541Z" fill="#FAC79D"/>
<path d="M16.2634 15.43C17.3379 15.399 18.183 15.5489 17.4318 16.9243C17.0406 16.4279 16.6546 15.9315 16.2634 15.43Z" fill="#F9BF95"/>
<path d="M22.1059 12.3422C20.9583 11.9855 20.5045 10.8221 19.5812 10.2016C20.3793 8.18503 21.2819 10.3466 22.127 10.1346C23.6815 11.2101 25.2307 12.2908 26.7852 13.3663C26.9 13.8472 26.7904 14.1006 26.2323 13.9092C24.8551 13.3922 23.4778 12.8697 22.1059 12.3422Z" fill="#FBCEAC"/>
<path d="M32.9923 18.0095C32.8358 18.5059 32.6845 19.0023 32.528 19.4987C31.7456 19.2195 32.1003 18.5214 31.9647 18.0044C32.309 16.4532 32.648 18.0354 32.9923 18.0095Z" fill="#FDE4CB"/>
<path d="M36.2214 21.1018C35.5276 21.1121 35.1624 20.7657 35.1051 20.0883C35.152 19.685 35.1988 19.2873 35.637 19.0856C35.71 19.8095 36.0443 20.3516 36.7538 20.6256C36.5764 20.7859 36.3987 20.9415 36.2214 21.1018Z" fill="#F6A97B"/>
<path d="M26.2323 13.9142C26.4148 13.7332 26.5974 13.5522 26.7852 13.3712C27.1347 13.5367 27.4841 13.7073 27.8284 13.8728C28.1258 14.4467 28.2715 14.9491 27.3169 14.9284C26.9517 14.5923 26.5922 14.2503 26.2323 13.9142Z" fill="#F9BC92"/>
<path d="M17.4114 13.3609C16.6341 12.5801 17.1712 12.4146 17.9015 12.3371C18.2458 12.8128 18.5903 13.2833 18.9972 13.8469C18.173 14.2709 17.9278 13.3971 17.4114 13.3609Z" fill="#F6A974"/>
<path d="M28.0889 16.6496C27.9846 16.7944 27.8959 17.0581 27.7238 17.1305C27.3326 17.296 27.0874 16.9961 27.0144 16.6755C26.9778 16.5152 27.1395 16.1791 27.2804 16.1326C27.6403 16.0085 27.8907 16.2515 28.0889 16.6496Z" fill="#F49E6A"/>
</svg>
