<svg width="41" height="48" viewBox="0 0 41 48" fill="none" xmlns="http://www.w3.org/2000/svg">
<path d="M33.6263 37.5436C31.3371 41.4439 28.2539 44.565 24.372 46.8132C22.4589 47.9209 20.3879 48.4888 18.2055 47.4609C18.3959 47.1465 18.693 47.1558 18.9995 47.1981C16.975 47.1371 18.1869 45.2127 17.4254 44.4195C16.3295 41.6457 16.4317 41.4063 18.8138 41.181C19.6682 40.4113 20.439 39.5712 21.1773 38.7029C21.962 37.7595 20.4297 37.3605 20.6758 36.5439C21.0287 35.0607 22.756 34.0845 22.2128 32.2728C22.3846 31.1088 22.9743 30.2593 24.0376 29.7524C25.2124 29.0014 26.3036 28.2458 26.429 26.6125C26.4754 26.0305 26.6426 25.1434 27.6688 25.303C28.1749 25.6503 27.8081 26.7204 28.63 26.6969C29.3869 26.6735 29.6655 25.8474 30.0973 25.3171C30.1762 25.2185 30.348 25.1199 30.153 24.8055C28.9318 22.853 29.0572 21.9753 30.9888 21.0272C32.1033 20.4828 31.8246 18.9809 32.9948 18.6382C34.8104 18.5068 34.9125 19.9759 35.075 21.0695C36.1198 21.4919 36.0734 19.3 37.1878 20.5203C37.7543 22.7638 37.5361 25.0495 37.5732 27.3259C37.5268 27.5465 37.4107 27.7201 37.225 27.8515C36.1384 28.0205 34.6896 26.9082 34.0906 28.7668C33.9049 29.2408 33.7145 29.7149 33.5984 30.2124C33.292 31.1792 33.891 32.0053 33.9978 32.9111C34.0396 33.9108 33.2873 34.6477 33.148 35.5911C33.0784 36.1543 32.4422 36.5204 32.614 37.154C32.9484 37.3089 33.357 37.2432 33.6263 37.5436Z" fill="#EA803C"/>
<path d="M27.2277 1.81679C29.6515 4.187 28.9736 7.36449 29.3961 10.2604C29.2847 10.434 29.1918 10.6171 29.1222 10.8142C28.616 11.7858 28.955 13.1938 27.6363 13.7382C26.624 13.2877 26.5776 12.3818 26.494 11.659C25.8579 13.0905 25.3146 14.8177 24.3673 16.3525C23.8612 17.2302 24.0655 18.244 23.8333 19.1733C23.6708 19.8022 23.2529 20.2434 22.7468 20.6095C21.9852 21.1633 21.8831 21.7969 22.4449 22.5291C23.5919 22.3602 24.0423 20.7597 25.4167 21.1727C25.7046 21.5576 25.7696 22.0035 25.7603 22.4681C25.5978 23.6321 25.2171 24.6881 24.2698 25.4532C23.1786 25.6878 22.6353 26.2229 23.225 27.3869C23.2482 28.3021 22.8164 28.9029 21.9852 29.2314C21.4095 29.1845 21.2469 28.7949 21.2098 28.2927C22.0502 27.1522 20.6665 27.7154 20.4947 27.354C19.5567 26.3684 19.0413 25.0308 17.7319 24.3408C16.8357 23.8715 17.04 22.9656 17.6065 22.3696C18.5398 21.3792 17.978 20.8676 17.1607 20.3467C16.8357 19.4361 17.7411 18.6195 17.3465 17.7277C15.7305 19.4267 13.9475 20.924 12.4012 22.6699C12.0437 22.6042 11.8161 22.393 11.7186 22.0363C14.2121 18.2534 15.8559 14.1137 16.7939 9.67838C17.0168 9.79571 17.1004 9.98814 17.0864 10.2322C17.2257 10.143 17.1375 10.0022 17.1514 9.89427C17.2536 9.19025 17.7086 8.84763 18.3355 8.65989C18.8324 8.59887 19.2363 8.74907 19.501 9.19964C20.0907 10.7016 19.6217 12.0908 19.0506 13.4754C20.2161 10.6734 21.1634 7.81506 21.5859 4.79246C21.6973 4.45922 21.8924 4.187 22.171 3.98049C22.5564 3.73643 22.9789 3.59562 23.4201 3.50644C24.358 3.43604 25.3146 3.44543 25.8532 4.38413C26.3593 5.2665 25.556 5.7687 25.1428 6.38824C24.827 6.86698 23.9633 7.17675 24.3348 7.88077C24.6506 8.48154 25.4214 8.33135 26.0157 8.30318C26.8423 8.26564 27.483 7.94179 27.6688 7.00778C27.8824 5.92828 27.2416 5.08815 26.9816 4.13537C26.7819 3.37503 25.7603 2.42225 27.2277 1.81679Z" fill="#E97E3B"/>
<path d="M33.148 18.7697C32.5212 19.3188 32.563 20.173 32.224 20.8489C32.0568 21.1821 31.7689 21.7923 31.6482 21.7641C29.0479 21.1774 30.4688 23.6884 29.3311 24.261C30.218 24.7726 30.4084 23.6274 30.622 23.9372C31.0863 24.6037 30.9517 25.4766 30.3248 26.007C29.698 26.5374 29.6051 27.8515 28.2631 27.4338C26.9676 27.0349 27.8313 26.0211 27.5713 25.3405C26.7912 24.2 27.6781 23.2144 27.9706 22.2569C28.8854 19.2484 29.3869 16.2023 29.4333 13.0671C30.0509 10.9362 31.221 9.13393 32.6837 7.50529C33.0227 7.02186 33.5334 7.02186 34.0396 6.9937C34.9729 7.07819 35.9155 6.95146 36.8488 7.05472C38.553 7.74935 39.7324 8.89926 40.0528 10.8048C39.6163 11.95 40.6657 13.0201 40.2107 14.1653C39.6256 14.6535 38.9291 14.9257 38.2372 15.2026C36.7002 14.4235 34.685 15.0102 33.4034 13.4895C32.9298 12.8277 33.5845 12.0251 33.0134 11.063C32.7998 13.0295 32.5722 14.7004 32.9948 16.3901C33.5288 17.0331 33.7424 17.7324 33.3756 18.535C33.3059 18.6148 33.227 18.6899 33.148 18.7697Z" fill="#EA8643"/>
<path d="M14.6161 37.5999C12.8423 39.6557 10.4603 40.7211 8.05497 41.7536C7.7485 41.7442 7.44203 41.7349 7.13557 41.7255C6.65265 41.3688 6.09544 41.5377 5.57073 41.5283C3.71336 41.4908 2.38999 40.9182 2.56644 38.6794C2.60359 38.2007 2.32034 37.7923 2.04173 37.4122C1.47988 36.1262 1.1084 34.9105 3.12829 34.6665C4.22414 35.1687 4.91137 33.8217 5.94221 34.0282C6.75945 34.2065 7.18665 35.1687 8.50538 34.4083C9.68016 33.7325 9.09509 35.5629 9.4062 36.267C9.4805 35.3189 10.1445 34.8073 10.7807 35.2485C12.2108 36.2341 11.6768 37.6515 11.1893 38.9282C11.9229 38.1725 12.7541 37.4873 13.7803 37.1118C14.1518 36.9757 14.7415 36.7457 14.6161 37.5999Z" fill="#E87F39"/>
<path d="M27.2277 1.81679C26.6333 3.24361 27.6456 4.27618 28.1749 5.36976C28.7368 6.53843 28.3699 7.95587 27.8127 8.37359C26.9073 9.05884 25.3796 9.32636 24.2373 8.8711C23.5408 8.58949 22.6492 7.571 24.098 6.62761C24.7527 6.2005 25.6907 5.51995 25.5514 4.6892C25.3842 3.66602 24.0887 4.20577 23.4108 3.7552C23.0114 3.73173 22.691 3.86784 22.4728 4.21985C22.3149 4.38413 22.1524 4.5484 21.9945 4.71267C21.1401 5.64198 20.8058 6.82474 20.374 7.97464C20.1604 8.55194 20.2393 9.4484 19.227 9.39677C19.0274 9.01659 18.6745 8.93211 18.2891 8.92272C17.0446 6.51027 18.8416 4.86286 19.7796 3.01832C20.0861 2.41756 20.8383 2.11248 20.9962 1.37091C21.507 0.774838 22.1942 0.577712 22.9279 0.460375C23.8565 0.680968 24.7806 0.896868 25.7418 0.901562C26.3501 1.0189 26.884 1.26296 27.2277 1.81679Z" fill="#EB8543"/>
<path d="M11.7233 22.0269C11.9044 22.1959 12.0855 22.3602 12.2619 22.5291C12.6195 23.4209 12.0762 24.0592 11.5515 24.5943C10.9014 25.2607 10.9478 25.9695 11.1336 26.7486C11.1893 27.0161 10.8689 27.171 10.9246 27.4432C11.1893 27.3587 11.4354 27.2132 11.7279 27.171C14.4211 27.2038 14.8947 27.584 15.4101 30.1044C15.2337 30.968 14.5558 31.489 14.045 32.1226C13.6782 32.545 13.3345 32.9956 12.7773 33.188C11.1382 32.5826 8.90936 33.127 8.15248 30.7803C7.86458 29.8369 7.20058 30.0763 6.52264 30.203C5.8772 30.325 5.02281 30.8601 4.84172 29.5975C7.27023 27.1945 9.84733 24.9369 11.7233 22.0269Z" fill="#EC7D34"/>
<path d="M1.56346 39.9044C-1.28296 40.2283 0.657991 38.44 0.504758 37.5295C0.0404161 34.7791 1.36844 32.8172 3.15615 31.029C3.20259 30.9774 3.29081 30.9586 3.35582 30.9258C4.48882 30.9633 3.82016 31.6204 3.75051 32.0757C3.21187 33.0754 2.48286 33.9578 1.97672 34.9716C1.46595 35.9947 1.26628 37.0179 2.65002 37.5858C2.90076 38.6512 2.58501 39.4491 1.56346 39.9044Z" fill="#E87F39"/>
<path d="M40.0714 22.0551C39.5792 25.2279 38.604 28.2317 37.0206 31.029C36.8117 31.2027 36.5934 31.2121 36.3706 31.0572C36.0966 29.7665 36.6399 28.7104 37.3132 27.692L37.3225 27.6873C37.615 26.7439 37.7822 25.8146 37.3503 24.8524C36.9789 24.031 37.0996 23.2332 37.6521 22.5151C38.488 23.1252 38.8641 22.5714 39.1938 21.8908C39.5142 21.7688 39.816 21.7876 40.0714 22.0551Z" fill="#E88242"/>
<path d="M40.0714 22.0551C39.7788 22.0551 39.4863 22.0504 39.1938 22.0504C39.0405 21.8955 38.9477 21.7078 38.9105 21.4919C38.9012 20.8583 39.1009 20.2434 39.0916 19.6051C39.1055 18.5491 39.217 17.5024 39.3702 16.4605C39.5095 15.8456 39.5513 15.2073 39.737 14.5971C39.8346 14.4094 39.9599 14.2357 40.0992 14.0762C40.1596 12.9826 39.2402 11.8984 40.0667 10.8001C41.534 14.5549 41.0651 18.305 40.0714 22.0551Z" fill="#E4803F"/>
<path d="M36.4031 30.968C36.612 30.9868 36.8163 31.0056 37.0253 31.0243C36.4356 33.4884 35.1818 35.5958 33.6263 37.5436C33.1573 37.3793 32.693 38.0786 32.224 37.5483C31.9779 36.4782 33.4127 36.098 33.2177 35.0466C33.4498 34.3239 33.9606 33.7512 34.2485 33.0566C35.0008 32.4042 35.1122 31.0666 36.4031 30.968Z" fill="#E17A3C"/>
<path d="M21.0008 1.36622C21.6184 1.8825 21.0101 2.15003 20.7547 2.43633C19.0785 4.27148 18.2334 6.4211 18.2937 8.92272C17.7365 9.41554 17.3093 9.99284 17.235 10.8236C16.6871 10.5279 16.9843 10.0116 16.8032 9.66899C17.2861 6.43049 18.2148 3.41727 21.0008 1.36622Z" fill="#E17A3A"/>
<path d="M1.56346 39.9044C1.8885 39.1159 2.47357 38.4353 2.49679 37.5295C2.34355 37.4262 2.29248 37.323 2.34355 37.2244C2.39463 37.1259 2.45035 37.0742 2.50143 37.0742C2.72431 37.3793 3.18866 37.7313 3.13758 37.9848C2.53858 41.1341 4.63741 41.289 6.78267 41.4439C6.90804 41.4533 7.01948 41.6269 7.13557 41.7255C4.90672 42.2746 3.02614 41.7349 1.56346 39.9044Z" fill="#DE7732"/>
<path d="M3.43012 31.902C3.50441 31.5688 3.94554 31.2074 3.35582 30.9258C3.70408 30.3156 4.19628 29.865 4.84636 29.5975C5.55216 30.447 6.17438 29.5975 6.84303 29.5318C7.57669 29.4614 8.82113 28.7574 8.57038 30.5268C8.47287 30.5362 8.37536 30.5503 8.27321 30.5597C7.78565 30.6582 7.31202 30.7803 6.88947 31.0666C5.79362 31.5782 4.73027 32.2493 3.43012 31.902Z" fill="#ED8642"/>
<path d="M15.048 43.6404C15.1083 42.6736 14.8251 41.6551 15.4752 40.7727C15.9581 41.0825 16.0788 41.6081 16.2692 42.101C16.2785 43.0068 17.3325 43.3447 17.3975 44.2224C18.0383 46.2031 16.6267 45.9215 15.5169 45.9684C14.8251 45.2972 16.0091 44.2506 15.048 43.6404Z" fill="#EA803C"/>
<path d="M15.5123 45.9637C15.8048 45.2127 17.9965 45.9215 16.9007 44.1098C17.2118 43.8329 17.5183 43.8329 17.8154 44.1332C18.0198 44.4477 18.4748 44.9217 18.3912 45.0532C17.3557 46.7334 18.7348 46.8367 20.3693 47.2075C19.2131 47.3389 18.7116 47.3952 18.2055 47.4515C17.3047 46.9634 16.4085 46.4659 15.5123 45.9637Z" fill="#DC7129"/>
<path d="M32.6976 7.50529C32.8787 7.59916 33.0552 7.69303 33.2363 7.79159C31.2674 8.81947 31.1235 11.124 29.8976 12.6728C29.6887 12.8136 29.489 12.8089 29.3033 12.6306C28.9689 11.8562 29.294 11.2835 29.8558 10.7813C30.1298 9.09169 31.4346 8.31727 32.6976 7.50529Z" fill="#E07735"/>
<path d="M25.7418 0.896868C24.6506 1.7417 23.6987 1.69007 22.9279 0.455681C24.0098 -0.323437 24.9292 -0.0559087 25.7418 0.896868Z" fill="#DD7E47"/>
<path d="M36.8628 7.05472C35.9109 7.75405 34.9775 7.76813 34.0535 6.9937C35.01 6.08317 35.948 6.07378 36.8628 7.05472Z" fill="#DD7434"/>
<path d="M39.6488 16.4229C40.0899 17.54 39.4445 18.6523 39.6163 19.7694C39.152 20.2669 39.0173 20.8489 39.1613 21.506C39.1705 21.689 39.1798 21.8673 39.1938 22.0504C39.138 22.6324 38.9987 23.1815 38.5065 23.557C38.2697 23.2144 38.0376 22.8671 37.8007 22.5244C37.1785 22.0551 37.9075 20.9005 36.8674 20.647C35.9852 20.8254 36.5052 22.5714 35.2794 22.2241C34.2996 21.9471 34.295 20.9052 34.3971 20.1214C34.5411 19.0184 33.3523 19.408 33.1527 18.7697C34.2996 17.845 35.3072 16.3431 37.146 17.9342C37.4571 16.9063 37.225 15.686 38.2511 15.0196C38.604 14.1747 39.3052 14.0245 40.1039 14.0762C40.1085 14.2311 40.1085 14.3906 40.1039 14.5455C39.6349 15.0947 39.4538 15.7142 39.6488 16.4229Z" fill="#EC8845"/>
<path d="M29.034 14.1935C29.2058 13.6866 29.3729 13.1797 29.5447 12.6728C29.6608 12.6728 29.7769 12.6728 29.893 12.6728C30.348 17.1269 28.9272 21.229 27.5759 25.3452C26.9537 25.9741 26.703 26.819 26.6983 27.6216C26.6937 29.3722 25.2542 29.3675 24.2419 29.9026C26.898 24.9932 28.9597 19.9008 29.034 14.1935Z" fill="#DE7534"/>
<path d="M36.4031 30.968C35.7948 31.7565 35.1911 32.5403 34.5828 33.3288C34.2996 33.0895 34.2021 32.4699 33.617 32.8501C33.2641 31.9396 32.3586 31.1276 33.1573 30.0246C33.4777 29.621 34.1231 29.3347 33.6309 28.6447C34.2764 26.0305 35.883 27.1991 37.3225 27.6873C37.5221 28.9264 36.9278 29.9401 36.4031 30.968Z" fill="#EB8542"/>
<path d="M17.8154 44.1379C17.509 44.1285 17.2072 44.1192 16.9007 44.1145C16.9657 43.279 15.5123 43.2086 15.9534 42.1854C15.178 40.9839 16.6732 40.0499 16.3342 38.9C16.8264 38.2805 17.3232 37.6656 17.8154 37.0461C18.7766 37.0085 19.4824 35.7507 20.5969 36.4453C20.8012 37.0085 20.7687 37.5905 20.7083 38.1772C19.9236 39.2426 18.3773 39.9748 19.2085 41.7302C18.5537 42.8472 17.9919 41.6645 17.2954 41.6128C17.0214 42.5703 17.5322 43.3353 17.8154 44.1379Z" fill="#E38040"/>
<path d="M20.6108 36.6049C19.5707 36.0604 18.9159 38.0035 17.8108 37.0461C19.3338 35.4738 20.8569 33.9061 22.3753 32.3338C23.9633 34.3896 21.558 35.1968 21.0705 36.6002C20.9265 36.8302 20.7687 36.8208 20.6108 36.6049Z" fill="#E47532"/>
<path d="M19.2085 41.7255C17.444 41.2327 18.5398 40.1672 18.8091 39.36C19.0738 38.5621 19.9561 38.3884 20.5969 37.9801C21.5673 37.6421 21.9202 37.9331 21.558 38.9469C20.7733 39.8762 19.9932 40.8009 19.2085 41.7255Z" fill="#F4AE7F"/>
<path d="M36.8674 20.647C37.146 20.403 37.4803 19.9196 37.6986 19.9665C38.3022 20.0932 37.7868 20.5766 37.81 20.9005C37.8472 21.4402 37.81 21.9847 37.8007 22.5244C37.55 23.4209 37.3643 24.308 37.8147 25.2138C38.279 26.1431 38.2186 27.0067 37.3271 27.6826C36.6399 25.3734 37.0949 22.9891 36.8674 20.647Z" fill="#EE9457"/>
<path d="M23.8426 39.8856C24.8734 39.2379 25.6535 40.5568 26.754 40.2564C27.1998 40.1344 26.6705 40.9276 26.6472 41.3125C26.3872 41.5612 26.2525 42.0728 25.7278 41.763C25.0035 41.2045 22.7003 43.2884 23.4061 40.3456C23.2808 39.9279 23.3829 39.7307 23.8426 39.8856Z" fill="#EE8B4A"/>
<path d="M25.7232 41.763C26.0297 41.6128 26.3361 41.4626 26.6426 41.3125C26.6751 42.4201 25.5607 42.8191 25.2031 43.6874C25.1288 43.8798 24.9988 44.0065 24.8131 44.0863C23.8472 44.0065 23.773 43.5419 24.4137 42.9505C24.8456 42.5515 25.5142 42.4201 25.7232 41.763Z" fill="#F3AA7B"/>
<path d="M29.4333 37.5436C28.4721 36.7598 28.4117 38.5433 27.4505 38.149C27.4645 37.0414 28.4675 36.4594 28.8854 35.5817C29.2104 35.6239 29.2893 35.9196 29.4426 36.1355L29.4379 36.1262C29.828 36.5955 29.7723 37.0695 29.4333 37.5436Z" fill="#F5B584"/>
<path d="M33.617 32.8501C34.151 32.5685 34.5736 32.5262 34.5828 33.3288C34.2532 33.9578 33.9281 34.5914 33.5984 35.2203C33.3523 35.4691 33.2177 35.9196 32.7208 35.699C32.3865 34.5444 33.5799 33.8827 33.617 32.8501Z" fill="#ED9A63"/>
<path d="M24.8131 44.0863C24.9431 43.9549 25.0731 43.8188 25.2031 43.6874C26.0018 43.6639 26.4429 42.9505 27.1116 42.6736C27.2509 42.7721 27.3066 42.8801 27.2834 43.0021C27.2602 43.1288 27.2277 43.1945 27.1905 43.1945C26.3965 43.4715 26.2943 45.6633 24.8131 44.0863Z" fill="#F6C39B"/>
<path d="M21.558 38.9469C21.5488 38.3086 21.2191 37.9989 20.5969 37.9801C20.309 37.5154 20.3322 37.0602 20.6108 36.6002C20.764 36.6002 20.9219 36.6002 21.0751 36.5955C21.5023 37.3277 23.2668 37.7783 21.558 38.9469Z" fill="#EE8D4C"/>
<path d="M29.4426 36.1308C29.2568 35.9478 29.0711 35.7648 28.8854 35.577C29.15 34.8026 29.359 33.9953 30.1902 33.4556C30.622 34.6665 29.7026 35.3001 29.4426 36.1308Z" fill="#F7C8A2"/>
<path d="M32.7162 35.6944C33.0087 35.5348 33.3013 35.3752 33.5938 35.2156C33.5938 36.267 32.6047 36.7269 32.2193 37.5483C30.9145 36.5298 32.7023 36.3561 32.7162 35.6944Z" fill="#F4C4A1"/>
<path d="M30.7938 39.7167C30.7195 40.1907 30.5198 40.5803 29.9998 40.6225C29.8837 40.6319 29.619 40.3503 29.633 40.2283C29.698 39.7636 29.9905 39.4069 30.4502 39.2943C30.7195 39.2332 30.7985 39.4726 30.7938 39.7167Z" fill="#F19D67"/>
<path d="M31.351 27.9032C31.1328 28.1097 30.9935 28.3584 30.8402 28.3678C30.4316 28.3819 30.3852 28.0158 30.4038 27.7154C30.4177 27.462 30.3248 26.9692 30.8263 27.171C31.0492 27.2602 31.1606 27.6216 31.351 27.9032Z" fill="#EA8643"/>
<path d="M33.6263 28.6494C33.9978 28.6964 34.4668 28.7198 34.3646 29.2502C34.2485 29.8791 33.7145 30.0199 33.1527 30.0293C33.3105 29.5647 33.4684 29.1094 33.6263 28.6494Z" fill="#EE9D66"/>
<path d="M26.9444 31.7941C26.6705 30.8788 27.2927 30.7193 27.7245 30.4142C27.8081 30.9821 27.7059 31.4655 26.9444 31.7941Z" fill="#F09555"/>
<path d="M21.7391 45.5694C21.8645 45.6398 22.1756 45.7102 22.2174 45.8604C22.3288 46.25 22.0085 46.3908 21.6881 46.4283C21.4002 46.4659 21.0101 46.5222 20.9915 46.1045C20.9823 45.7478 21.3259 45.6258 21.7391 45.5694Z" fill="#F09D62"/>
<path d="M29.4333 37.5436C29.4333 37.0695 29.4379 36.5955 29.4379 36.1262C29.8651 36.2716 30.5245 35.5723 30.6174 36.0651C30.7474 36.7457 30.0834 37.2432 29.4333 37.5436Z" fill="#F6C7A2"/>
<path d="M27.1952 43.1945C27.1673 43.0209 27.1394 42.8472 27.1162 42.6736C27.1348 42.0916 27.3577 41.6504 28.2492 41.2233C28.1238 42.2183 27.8452 42.7862 27.1952 43.1945Z" fill="#F39B60"/>
<path d="M23.8426 39.8856C23.694 40.0358 23.5501 40.1907 23.4015 40.3409C23.0486 40.4395 22.6957 40.5333 22.3474 40.6319C22.3428 40.4348 22.2638 40.1203 22.3521 40.064C22.7978 39.7542 23.2529 39.0784 23.8426 39.8856Z" fill="#F3A36B"/>
<path d="M15.034 30.494C14.9504 27.9923 13.4042 27.462 11.31 27.6732C11.115 26.819 12.1319 26.9504 12.2944 26.4294C12.5684 26.2229 11.9322 26.0727 12.1783 26.2605C12.2805 26.3402 12.2712 26.3919 12.1923 26.467C11.8069 26.8424 11.4261 27.2085 10.8689 26.758C10.4045 26.0539 9.78232 25.3828 10.8457 24.6271C11.5561 24.1155 11.8951 23.2989 12.2619 22.5244C13.172 20.051 16.0138 19.2155 17.0307 16.8172C17.0632 16.7421 17.5601 16.8641 17.8433 16.897C17.9315 18.1548 17.2025 19.117 16.6917 20.1542C16.6499 20.464 16.4549 20.7128 16.3574 21.0037C16.5246 20.7409 16.6685 20.4593 16.7846 20.1683C16.9611 20.0322 17.1514 20.0181 17.3465 20.1261C18.4655 20.4405 20.4065 20.2856 18.3448 22.2381C17.6669 22.8811 17.0818 23.8386 18.7116 24.3596C20.0118 24.7726 20.1975 26.115 20.6201 27.2179C20.9219 27.5324 21.2748 27.7952 21.5441 28.1472C21.5488 28.5133 21.6091 28.8559 21.9527 29.0718C21.3073 30.5315 20.4111 31.8081 19.2595 32.9064C18.628 32.7046 18.4098 32.2071 18.3401 31.6063C18.3355 31.4561 18.2984 31.259 18.3866 31.1698C19.0506 30.4846 18.9391 29.9871 18.0708 29.6351C17.9222 28.8653 18.5166 28.3631 18.7441 27.7577C18.7302 27.7811 18.7488 27.6309 18.7488 27.6309C18.7488 27.6309 18.642 27.7718 18.6373 27.7905C18.4702 28.1332 18.2287 28.3772 17.9083 28.5415C16.5942 28.6588 16.3528 30.3907 15.034 30.494Z" fill="#EB8543"/>
<path d="M25.2542 21.107C24.2048 21.9941 23.1554 22.8811 22.106 23.7682C20.3693 21.5482 21.8692 20.3936 23.3968 19.2437C24.0423 18.2205 23.9958 17.0941 23.8658 15.9536C24.6877 14.1043 25.9229 12.41 26.0668 10.1712C27.432 10.8846 26.7308 12.64 27.5759 13.6068C27.8545 13.8462 27.8917 14.156 27.822 14.4986C27.2137 15.4373 26.1643 16.2493 26.9398 17.5916C26.5962 18.8682 26.3826 20.2152 25.2542 21.107Z" fill="#EA8241"/>
<path d="M19.227 9.39677C19.5799 8.38297 19.9003 7.35979 20.2997 6.36478C20.6154 5.58566 20.8847 4.6892 21.9945 4.71267C21.9945 8.4393 20.3415 11.6074 18.7256 14.8084C18.5955 12.9497 19.4964 11.2366 19.227 9.39677Z" fill="#F19E65"/>
<path d="M25.2542 21.107C25.8904 19.9242 26.3965 18.6946 26.6379 17.3663C26.3083 16.2117 27.0141 15.4044 27.562 14.5408C27.5666 14.2311 27.5713 13.9166 27.5759 13.6068C28.4767 12.7151 27.8731 11.0864 29.1175 10.3636C28.9457 11.4478 28.7693 12.5367 28.5975 13.6209C27.7988 16.7468 26.884 19.8304 25.3053 22.6652C25.2914 22.1443 25.2728 21.628 25.2542 21.107Z" fill="#DE7F41"/>
<path d="M17.3418 20.1308C17.1979 20.1542 17.0539 20.1777 16.91 20.1965C16.7428 20.4124 16.5849 20.3936 16.441 20.173C16.5571 18.9292 17.3743 17.9952 17.8387 16.9016C18.8323 18.1595 17.6204 19.0747 17.3418 20.1308Z" fill="#F1AD7D"/>
<path d="M23.8658 15.9583C24.8549 17.2208 24.5995 18.305 23.3968 19.2484C23.4154 18.1313 23.2297 16.9861 23.8658 15.9583Z" fill="#EF9256"/>
<path d="M15.3776 18.2628C15.4194 16.5543 15.777 15.6579 16.8171 14.4282C16.8914 16.0709 16.1763 16.8312 15.3776 18.2628Z" fill="#EF9357"/>
<path d="M23.968 25.5048C23.7962 26.1713 23.4897 26.7627 22.9882 27.2461C22.4914 26.8377 21.9667 26.4106 22.5982 25.7442C22.965 25.3546 23.3318 24.491 23.968 25.5048Z" fill="#E17630"/>
<path d="M23.4247 9.28882C23.1414 9.48125 22.9836 9.68307 22.8303 9.67838C22.5239 9.66899 22.2638 9.44839 22.301 9.11985C22.3196 8.96497 22.6307 8.68805 22.705 8.7209C22.9371 8.81947 23.1229 9.03537 23.4247 9.28882Z" fill="#E79968"/>
<path d="M22.4728 4.21985C22.4124 3.91478 22.0456 3.54399 22.5424 3.34217C22.8953 3.20137 23.2111 3.41727 23.4108 3.7552C23.2065 4.13537 22.8628 4.22455 22.4728 4.21985Z" fill="#F29A58"/>
<path d="M21.5395 28.1519C20.9312 28.1472 20.6294 27.8375 20.6154 27.2226C21.2051 27.2461 22.0827 26.9739 21.5395 28.1519Z" fill="#EF985A"/>
<path d="M38.2465 15.0243C38.1583 15.9301 37.5221 16.7843 37.8379 17.7136C38.3254 19.1545 37.1321 18.3472 36.742 18.6101C35.4512 16.5449 34.36 19.0137 33.1527 18.7743C33.2037 17.953 33.1341 17.1551 32.6883 16.4323C32.8926 15.4561 32.1915 14.1841 33.5938 13.6021C34.6711 13.5176 35.8041 15.09 36.8303 13.4848C37.1599 14.1278 37.406 14.8553 38.2465 15.0243Z" fill="#EA803C"/>
<path d="M33.5938 13.6021C32.7951 14.3812 33.3709 15.6109 32.6883 16.4323C32.3633 16.4933 31.6482 16.6951 31.8572 16.2446C32.5305 14.8224 32.145 13.3956 32.2054 11.9735C32.2472 11.0301 32.6605 9.9506 33.4963 10.1149C34.6061 10.3308 33.9931 11.4572 33.8445 12.2363C33.7563 12.6869 33.6727 13.1469 33.5938 13.6021Z" fill="#F2A975"/>
<path d="M36.7931 8.96497C37.016 9.20433 37.2296 9.33106 37.2575 9.49063C37.2853 9.64552 37.1228 9.83326 37.0485 10.0069C36.8906 9.8755 36.6677 9.77694 36.5981 9.60797C36.5517 9.48125 36.6956 9.27004 36.7931 8.96497Z" fill="#F3AA70"/>
<path d="M8.57038 30.5268C9.21118 32.7562 11.5329 31.8879 12.8377 32.897C12.9352 33.4274 13.2092 33.7137 13.785 33.5635C14.0961 33.6715 14.2818 33.8921 14.3607 34.2065C14.3282 34.7697 14.1332 35.2532 13.9196 35.4268C14.4675 34.6102 15.1037 33.4133 16.6267 33.4274C17.4858 33.5964 17.6483 34.0235 17.0911 34.7134C16.5571 35.3705 15.8095 35.8633 15.5541 36.741C15.243 37.0273 14.9319 37.3136 14.6161 37.5952C13.5388 37.2057 13.0699 38.2382 12.3269 38.6184C11.5747 39.0033 10.8967 39.5524 9.35512 39.2192C11.3936 38.9751 10.92 37.6985 11.1753 36.802C11.31 36.3186 11.0407 35.8774 10.6878 35.5676C10.581 35.4738 10.2142 35.5348 10.0702 35.6568C9.42478 36.1872 10.4185 36.3233 10.3627 36.7645C10.3117 37.1399 10.4138 37.5389 9.92626 37.7736C8.65397 37.0836 9.21582 35.7178 8.88614 34.6806C7.59062 34.5257 7.94817 36.1121 6.9359 36.4782C7.21451 35.3048 6.54121 34.7416 5.75183 34.2488C5.50108 33.8217 5.74718 33.4649 5.90506 33.0942C6.23474 32.3432 6.64801 31.6439 7.21915 31.0525C7.58598 30.6958 7.91566 30.2499 8.53324 30.494L8.57038 30.5268Z" fill="#ED8642"/>
<path d="M18.7581 31.4421C18.9252 31.9302 19.0924 32.4183 19.2549 32.9064C18.9438 33.5541 18.4934 34.0798 17.8944 34.474C17.5043 34.1314 17.4022 33.4931 16.7939 33.3711C16.5478 32.9111 16.6639 32.5028 16.9796 32.132C17.5043 31.7284 17.964 31.137 18.7581 31.4421Z" fill="#E87832"/>
<path d="M16.78 33.2866C17.5275 33.3241 17.8433 33.7747 17.899 34.4787C17.1189 35.2344 16.3388 35.99 15.5541 36.7457C15.4194 35.7601 16.1577 35.2719 16.7103 34.6899C17.3 34.0657 17.0771 33.817 16.3342 33.7653C16.3017 33.4321 16.4549 33.2772 16.78 33.2866Z" fill="#E87F39"/>
<path d="M16.3342 38.8953C16.7614 38.9939 17.3186 39.0079 16.8543 39.6932C16.3388 40.4442 15.907 41.228 15.9534 42.1854C15.3916 41.8522 15.5727 41.2655 15.4752 40.7727C15.6191 40.0828 15.8048 39.4116 16.3342 38.8953Z" fill="#DA6D2A"/>
<path d="M7.62313 31.4608C7.15878 32.0804 6.69444 32.6999 6.23474 33.3194C4.86493 33.2866 4.37737 34.6102 3.41619 35.2062C3.02149 35.0654 2.58966 34.7369 2.28319 35.3048C1.94422 35.9337 1.87921 36.5579 2.50607 37.0742C2.50607 37.2244 2.50607 37.3793 2.50143 37.5295C1.36844 37.6234 0.931954 37.0977 1.22913 36.0041C1.64704 34.4694 2.1671 32.9768 3.43476 31.902C4.37737 31.0666 5.83077 31.4749 6.72695 30.5221C7.10771 30.7474 7.34916 31.1229 7.62313 31.4608Z" fill="#ED8D4B"/>
<path d="M3.41154 35.2062C4.01519 34.0657 4.16842 32.2306 6.2301 33.3194C6.07222 33.6292 5.9097 33.9437 5.75183 34.2535C4.92994 34.4694 4.54454 35.7741 3.41154 35.2062Z" fill="#F6B380"/>
<path d="M7.41417 40.8243C7.12628 40.8009 6.87089 40.6929 7.02413 40.4395C7.16343 40.2142 7.45132 40.0358 7.71135 39.942C7.83672 39.8997 8.19891 40.1297 8.18962 40.1954C8.11997 40.6507 7.73457 40.7352 7.41417 40.8243Z" fill="#F2B483"/>
<path d="M18.7581 31.4421C18.2659 31.7377 17.769 32.0287 17.2768 32.3244C16.7892 32.0475 16.232 32.9721 15.777 32.2353C15.3591 30.9915 14.9179 32.5497 14.4908 32.2399C14.1611 32.254 13.8732 32.1696 13.6503 31.9067C13.9428 31.2684 14.4165 30.8084 15.0387 30.494C15.8559 29.5412 16.1763 27.9501 17.9315 28.2082C18.3309 28.5884 17.7829 29.2267 18.2984 29.5694C18.707 30.3532 19.2363 28.7527 19.7703 29.7008C20.5133 31.0337 18.3959 30.4705 18.7581 31.4421Z" fill="#ED9156"/>
<path d="M10.8735 26.7627C12.0297 26.8706 12.0576 25.4813 12.9724 25.1199C13.0838 26.4857 12.0762 26.9973 11.31 27.6732C10.7714 27.8422 10.4695 28.5227 9.66159 28.4335C9.60122 27.4855 10.7156 27.4479 10.8735 26.7627Z" fill="#F6AD76"/>
<path d="M13.6503 31.9067C13.9568 31.9067 14.2679 31.9067 14.5743 31.9114C14.904 32.8876 14.384 33.3992 13.5806 33.7466C13.1859 34.0704 12.7913 34.399 11.9369 35.1077C12.3826 34.0188 12.6102 33.4556 12.8377 32.897C13.107 32.5685 13.3763 32.24 13.6503 31.9067Z" fill="#F3CCAA"/>
<path d="M39.6488 16.4229C37.9168 15.334 39.347 15.0243 40.0992 14.5455C40.0528 15.1979 40.3268 15.9254 39.6488 16.4229Z" fill="#EA8643"/>
<path d="M39.1613 21.506C38.5065 20.7081 38.3254 20.0416 39.6163 19.7694C39.6953 20.4077 39.4817 20.9709 39.1613 21.506Z" fill="#F1B284"/>
<path d="M7.62313 31.4608C6.99626 31.4655 6.68051 31.1698 6.7223 30.5221C7.3213 30.2781 7.92031 29.6351 8.53324 30.4987C8.22677 30.8178 7.92495 31.1417 7.62313 31.4608Z" fill="#F5AC77"/>
<path d="M18.2937 29.5694C18.029 29.6069 17.769 29.6445 17.5043 29.682C17.6436 29.1892 17.7829 28.7011 17.9222 28.2082C18.0615 27.9126 18.2055 27.6169 18.3448 27.3212C18.8834 26.8377 19.1945 26.9082 19.2178 27.6873C18.9113 28.3162 18.6048 28.9451 18.2937 29.5694Z" fill="#F7CBA9"/>
<path d="M16.441 20.173C16.5989 20.1824 16.7567 20.1871 16.91 20.1965C16.6778 21.1164 16.5199 22.0926 15.3126 22.4212C15.0758 21.215 16.2599 20.9709 16.441 20.173Z" fill="#F0985B"/>
<path d="M19.2224 27.6873C19.0367 27.3118 18.7163 27.2555 18.3494 27.3212C18.3262 26.6923 18.5445 26.1337 19.2317 26.4294C19.8911 26.711 19.7192 27.2649 19.2224 27.6873Z" fill="#ED9156"/>
<path d="M27.562 14.5408C27.2555 15.4842 26.9444 16.4276 26.6379 17.3663C24.892 15.7377 26.6472 15.2824 27.562 14.5408Z" fill="#E97E3B"/>
<path d="M15.9906 32.4183C16.4178 32.3432 16.7939 31.6204 17.2768 32.3244C17.1096 32.6436 16.9471 32.9627 16.78 33.2866C16.6314 33.4462 16.4828 33.6058 16.3342 33.7653C15.1037 34.1126 14.7229 35.4691 13.706 36.1825C13.1906 35.2907 13.8314 34.8495 14.1471 34.3145C14.4722 33.3945 14.9551 32.6295 15.9906 32.4183Z" fill="#F5C196"/>
<path d="M15.9906 32.4183C15.3776 33.0472 14.7601 33.6808 14.1471 34.3098C13.9568 34.122 13.771 33.9343 13.5806 33.7466C13.9103 33.1364 14.2446 32.5216 14.5743 31.9114C15.113 31.6298 15.2383 30.799 16.1624 30.8788C16.6082 31.3576 15.7956 31.8832 15.9906 32.4183Z" fill="#EB8543"/>
</svg>
