<svg width="42" height="49" viewBox="0 0 42 49" fill="none" xmlns="http://www.w3.org/2000/svg">
<path d="M22.954 1.10773C24.3784 3.92752 26.7276 5.55937 29.4731 6.91219C36.7602 10.4929 40.187 17.2993 41.6238 24.7779C42.9491 31.6815 40.7568 38.1117 35.3028 42.948C34.9849 42.8212 34.7289 42.6267 34.6133 42.2801C34.6794 40.3312 35.918 38.7923 36.3845 36.9745C37.3795 33.1105 37.4456 29.2338 36.4547 25.4078C35.6331 22.2371 34.283 19.2398 32.871 16.9527C33.705 18.5507 34.6835 20.7448 35.662 22.9347C37.4538 26.9551 37.0121 31.1489 36.8923 35.3299C36.88 35.7273 36.7561 36.1754 36.2524 36.2896C35.4597 35.5244 35.1583 34.4717 34.6959 33.5121C34.5679 31.7492 34.6546 29.999 34.7042 28.8195C34.4688 30.8107 34.6175 33.3768 34.7331 35.9472C34.7578 36.167 34.7413 36.3826 34.6959 36.594C33.7546 38.4583 33.0527 40.4411 32.0618 42.2801C31.6407 43.0622 31.3352 43.9965 30.2204 44.0218C29.9934 43.9753 29.8241 43.8443 29.7126 43.6371C29.3782 42.7451 29.8695 42.018 30.1502 41.2359C31.3558 37.8496 31.9049 34.3618 31.6242 30.7599C31.4714 30.1216 31.459 29.4663 31.4219 28.8152C31.1081 26.4689 30.6127 24.1522 30.2246 21.8144C30.2865 22.2118 30.3567 22.6049 30.2369 23.0066C29.8819 23.8901 29.3493 24.6469 28.6681 25.2979C27.1116 24.6173 28.5772 23.3025 28.0281 22.6007C27.7969 23.8774 28.0075 25.3106 28.3997 26.7522C28.5937 27.4624 28.8786 28.2487 28.3832 28.9928C26.0422 28.959 26.0422 28.959 25.4394 25.7122C25.1628 24.0634 24.9316 22.4147 25.1504 20.7364C25.2537 20.3897 25.873 20.4573 25.7904 20.0303C25.2702 17.2528 26.5335 14.4838 25.811 11.7105C25.7863 11.6217 26.1785 11.4653 25.7945 11.4357C25.617 11.423 25.3569 11.5329 25.2826 11.7232C25.0225 12.3615 25.6087 12.7251 25.8069 13.2113C26.3767 14.6233 26.3147 15.7985 24.7706 16.4919C24.5022 19.7302 25.0307 22.9135 25.3238 26.118C25.5055 28.0881 26.0298 30.1131 24.944 32.0113C22.9334 31.931 24.4899 29.8679 23.466 29.1915C23.4123 28.9548 23.2306 29.4198 23.4371 29.2338C23.6435 30.6077 24.238 32.0155 23.0944 33.2669C22.9127 33.3557 22.7269 33.3641 22.537 33.2965C22.1365 32.0662 21.0837 32.2903 20.1713 32.1973C19.4612 30.5612 20.4066 28.6588 19.3786 27.0735C19.2506 26.9171 19.1432 26.748 19.0524 26.5662C18.5033 22.5711 18.7097 18.6648 20.1424 14.8473C20.291 14.4457 19.9731 14.9742 19.8327 14.9234C19.5726 14.8304 19.9607 14.9953 19.6965 15.0841C18.4207 18.1153 18.1895 21.4297 17.2234 24.5369C16.6206 27.4413 15.799 30.2991 15.5018 33.2626C15.2334 34.1251 15.1385 35.0129 15.1261 35.9176C15.1178 36.4714 15.1426 37.1985 14.6224 37.4057C13.7966 37.7354 13.7554 38.2385 14.1352 38.8219C14.6059 39.5406 14.8371 40.682 16.1128 40.3269C17.3968 41.8615 17.3679 44.0895 18.7717 45.5607C19.1061 46.2582 20.1341 46.6345 19.7047 47.6829C19.3043 48.0718 18.879 48.3509 18.3051 48.0549C17.5661 47.9281 16.8271 47.7209 16.0839 47.6914C8.39636 47.387 2.19512 41.7262 0.568426 33.9179C-1.70234 23.0235 3.04149 15.3589 11.0346 9.10207C13.1526 7.44486 15.2995 5.7792 17.8551 4.83645C18.9616 5.1197 19.9029 4.26573 20.9929 4.44751C19.4446 4.24882 19.4446 4.24882 19.1928 3.20038C19.6098 2.36332 20.0268 1.53049 20.4438 0.693429C21.2984 0.714567 22.1943 0.46514 22.954 1.10773Z" fill="#F9C794"/>
<path d="M29.9149 43.802C30.0635 43.8062 30.2163 43.8104 30.3649 43.8104C31.4219 44.0134 31.4673 43.0326 31.8347 42.4618C32.6357 41.2189 32.8958 39.6632 33.9651 38.5683C34.4564 38.5683 34.9065 38.7078 35.2946 39.0206C35.662 39.7266 35.2615 40.3142 34.9932 40.9146C34.7578 41.443 34.3119 41.9461 34.8693 42.5337C35.0097 42.669 35.1542 42.8085 35.2946 42.9438C32.7018 45.7594 29.63 47.5561 25.7656 47.7125C25.3858 47.7294 25.0101 47.9661 24.6344 48.1014C22.9375 48.1648 21.1993 48.6721 19.6139 47.5983C19.6469 46.6936 18.557 46.6641 18.3753 45.9285C18.5405 45.7128 18.5859 45.4254 18.7552 45.214C19.3745 43.8316 18.7428 42.483 18.6891 41.1175C18.6519 40.1494 17.2936 38.7839 19.3703 38.34C19.1721 37.8496 19.2134 37.393 19.5726 36.9871C21.1002 37.4564 20.2828 38.8557 20.6296 39.7942C20.7245 40.0564 20.5429 39.7942 20.7245 39.9634C20.9516 40.179 20.997 39.8112 21.1126 39.6716C21.8393 38.4499 21.3934 37.0717 21.6328 35.7907C21.7278 35.3511 21.8805 34.9495 22.3347 34.7719C23.5981 34.8353 23.2678 35.9937 23.5939 36.6954C23.6559 36.8857 23.6972 37.0801 23.7343 37.2746C23.8829 38.1539 23.8169 39.0502 23.8334 39.938C23.8334 39.9929 23.9036 40.0437 23.9407 40.0986C23.9903 40.0606 24.0357 40.0225 24.0894 39.9634C24.5229 38.0271 24.8367 36.0951 24.8367 34.1251C24.8367 33.0597 24.9399 32.0324 25.4477 31.0812C26.5501 31.1362 25.972 32.0367 26.1413 32.5228C26.1867 31.8887 26.3808 31.2376 27.0827 31.1404C27.8754 31.0305 27.7102 31.8718 27.929 32.3114C28.1437 32.7427 28.5153 33.0766 28.6392 33.5628C29.0603 36.1839 27.6029 38.5471 27.6689 41.1175C27.2684 42.242 26.8267 43.3539 26.2115 44.3854C26.8102 43.4807 27.1446 42.4534 27.5987 41.4768C27.7309 38.8346 28.8043 36.3445 28.8126 33.6812C30.0924 32.1001 30.4351 32.1804 31.4714 34.3111C31.9049 37.5917 30.7241 40.5045 29.4938 43.4131C29.4319 43.561 29.1841 43.6921 29.3699 43.9161C29.5227 43.7724 29.7044 43.7174 29.9149 43.802Z" fill="#F9C692"/>
<path d="M19.618 47.5983C21.2819 47.8647 23.049 47.0488 24.6385 48.1014C24.6261 48.4439 24.6798 48.9892 24.3165 48.9934C22.4709 49.0188 20.6213 48.9681 18.7758 48.8835C18.3712 48.8666 18.3629 48.3974 18.3175 48.0549C18.751 47.9027 19.1845 47.7505 19.618 47.5983Z" fill="#F4B579"/>
<path d="M19.1928 3.20038C19.2754 4.24036 20.097 3.89793 20.58 3.83452C21.0218 3.77956 21.3397 2.88331 21.9218 3.57241C22.0333 3.70346 21.9507 4.24882 21.8351 4.29955C21.2158 4.56166 20.803 5.81725 20.1424 5.20002C19.5024 4.60393 19.5272 5.1662 19.3662 5.38181C18.3134 6.76422 18.1524 5.63123 17.8634 4.84068C18.301 4.29109 18.7469 3.74574 19.1928 3.20038Z" fill="#FBCD9D"/>
<path d="M22.954 1.10773C22.1159 0.985131 21.1828 1.4713 20.4479 0.693429C21.4553 -0.262003 22.3223 -0.325416 22.954 1.10773Z" fill="#F3B57C"/>
<path d="M15.8981 14.6402C14.7297 16.4285 13.9824 18.4577 12.2567 20.1614C13.7595 20.4954 13.2228 18.9227 14.4655 19.2271C13.4498 21.4762 13.6191 23.9239 13.2434 26.2956C13.1113 27.1327 13.037 27.957 13.0122 28.7941C12.9957 29.4198 13.1237 30.1385 12.4424 30.4725C11.7819 30.798 11.7364 29.6777 11.0635 29.7749C11.0015 30.6542 10.6919 31.4955 10.8859 32.434C11.0387 33.1739 10.4978 32.9371 10.118 32.8145C9.02391 30.4682 10.213 28.1684 10.279 25.8475C10.3121 24.7314 10.696 23.6534 11.0222 22.5838C11.9594 19.3793 12.8264 16.1368 14.7132 13.3339C15.027 12.8688 15.06 12.0656 15.8857 12.091C16.1995 11.571 16.4596 11.0129 16.8395 10.5437C17.2399 10.049 17.5083 10.252 17.5578 10.8354C17.7065 12.4334 16.5009 13.3973 15.8981 14.6402Z" fill="#FACC9E"/>
<path d="M19.2052 26.4774C19.3456 26.4774 19.4818 26.4774 19.6222 26.4816C20.3364 29.3352 20.0144 32.248 20.097 35.1312C19.6263 36.3699 18.9822 36.9068 17.7354 35.5329C17.8262 37.3253 17.9996 38.8853 18.4868 40.5003C18.8336 41.6417 20.4066 43.375 17.9748 44.2755C15.733 40.2466 14.8288 35.9556 15.6339 31.3602C15.9105 29.7834 16.1624 28.1938 16.5917 26.6507C17.884 26.3252 18.3712 26.7987 18.0037 28.1261C18.7386 27.8471 17.3473 25.9024 19.2052 26.4774Z" fill="#F9C793"/>
<path d="M9.7134 26.4816C9.66386 25.5896 9.6267 24.3213 8.80509 24.2114C7.91743 24.093 7.21143 25.04 7.09996 26.1603C7.06693 26.5028 6.75315 26.7437 6.13798 26.6803C6.49718 25.1838 6.84811 23.7041 7.22382 22.1357C6.24533 22.4866 6.72012 23.9197 5.593 23.9366C4.93242 23.2179 5.35354 22.4992 5.6219 21.8059C6.69535 19.003 8.25598 16.475 9.94048 14.0272C10.3575 13.4184 10.8281 12.7505 11.7447 12.9323C12.3681 13.4396 9.54 14.9361 12.3145 15.008C12.5663 15.0164 11.8562 16.9738 11.2204 17.5995C10.2625 18.5422 10.3905 16.8005 9.73817 16.6356C8.77207 17.7897 8.02891 19.058 7.51283 20.7237C8.72252 20.5165 9.00327 19.43 10.2543 19.0115C8.69362 20.9604 9.10649 22.6768 10.1015 24.3594C10.6093 25.188 10.9231 25.9828 9.7134 26.4816Z" fill="#F9C28D"/>
<path d="M25.7986 31.115C25.0555 33.529 25.4931 36.0698 25.0101 38.5175C24.8243 39.4603 25.0348 40.5468 23.755 40.8385C23.2141 39.5956 23.7797 38.3484 23.7384 37.1055C24.3412 35.4483 23.0531 33.4698 24.5766 31.969C25.4105 30.1765 25.0926 28.2657 24.8614 26.4605C24.399 22.8248 24.0646 19.2017 24.1843 15.5026C24.333 15.5914 24.4899 15.6337 24.5146 15.714C24.5724 15.9085 24.5683 16.1241 24.5889 16.3312C24.8119 16.5426 24.9605 16.7963 25.0514 17.0922C25.4023 18.0349 25.3651 19.0495 25.5798 20.0219C25.6005 20.229 25.5385 20.4108 25.394 20.5588C25.5344 22.2498 25.6748 23.9451 25.8152 25.6361C25.6954 27.4624 26.9753 29.293 25.7986 31.115Z" fill="#F7BB81"/>
<path d="M34.8776 42.5337C33.9445 42.7366 33.9114 42.724 34.0394 42.3731C34.4399 41.2908 34.8652 40.2212 35.278 39.1474C35.0138 38.0018 35.3978 37.0506 36.1409 36.2177C36.7767 31.9056 37.1318 27.585 35.4308 23.442C34.3202 20.7406 33.3087 17.9757 31.7728 15.4561C33.5646 16.6906 34.3904 18.7198 35.1748 20.563C36.529 23.7506 37.7841 27.1284 37.685 30.6458C37.586 34.1166 37.2268 37.6551 35.4762 40.7962C35.1583 41.3585 34.828 41.8615 34.8776 42.5337Z" fill="#F5B070"/>
<path d="M19.2052 26.4774C17.8716 26.841 18.7097 27.974 18.4992 28.7222C18.396 29.09 18.623 29.6396 18.0657 29.665C17.4794 29.6946 17.4753 29.0774 17.5826 28.7265C17.8551 27.8471 17.5909 27.1411 17.1202 26.452C16.8807 26.1646 16.8353 25.839 16.9262 25.4839C17.5867 21.8102 18.4744 18.1914 19.6139 14.6402C19.907 14.2217 20.1589 13.4269 20.741 13.7947C21.3356 14.1752 21.2654 14.822 20.5429 15.2786C19.8038 15.7478 19.8947 16.6863 19.7997 17.3754C19.4116 20.2586 19.1928 23.1672 19.3621 26.0885C19.3745 26.2195 19.263 26.3506 19.2052 26.4774Z" fill="#FACC9C"/>
<path d="M31.1783 34.5098C30.5507 34.0786 30.6127 31.876 29.114 33.6643C28.8456 33.4275 28.6722 33.1105 28.6598 32.768C28.5648 30.2484 28.4451 27.7288 28.697 25.2134C28.5525 24.1649 29.3823 23.721 29.9356 23.0996C30.0016 23.1714 30.0677 23.2433 30.1337 23.3194C30.5094 23.7887 29.6218 24.6976 30.6705 24.9386C31.3187 26.1138 31.2774 27.4666 31.5829 28.7307C31.587 28.9674 31.587 29.2042 31.5911 29.4409C31.4466 31.1277 32.3095 32.9033 31.1783 34.5098Z" fill="#FBCD9C"/>
<path d="M17.145 25.6319C17.1367 25.9067 17.1285 26.1772 17.1243 26.452C15.3325 32.544 15.2086 38.5133 18.3671 44.2417C18.8006 44.5545 19.0607 44.9307 18.8006 45.493C18.6602 45.6368 18.5198 45.7805 18.3794 45.9242C17.0541 44.3177 16.6826 42.2674 15.9188 40.3988C14.2012 38.3484 15.0022 35.9641 15.06 33.677C15.0311 30.464 16.1417 27.4624 16.7362 24.3678C17.7643 24.4862 17.2771 25.1203 17.145 25.6319Z" fill="#F5AD6F"/>
<path d="M28.697 25.2091C29.4855 27.9909 28.9612 30.8445 29.114 33.66C29.1305 36.4587 28.3213 39.0798 27.4625 41.6924C27.2065 38.8177 28.635 36.1163 28.28 33.2331C27.7515 31.8295 27.3345 30.4259 28.2758 29.0182C27.9084 26.7606 27.3015 24.5243 27.6896 22.0976C28.9034 22.884 27.7143 24.4355 28.697 25.2091Z" fill="#F7BE85"/>
<path d="M22.0911 35.7654C21.7938 37.1732 22.8508 38.86 21.2654 40.0056C19.6469 39.3715 20.6585 37.8411 20.2828 36.7715C19.7956 35.3933 19.7419 33.8249 20.4479 32.396C21.1622 32.1635 20.5098 30.6796 21.4677 30.9628C22.3595 31.2292 22.5081 32.303 22.5164 33.2373C22.5081 33.3261 22.504 33.4191 22.4957 33.5078C22.4297 34.273 21.5544 34.886 22.0911 35.7654Z" fill="#F9CB9B"/>
<path d="M31.1783 34.5098C31.1865 32.675 31.1948 30.8403 31.2031 29.0055C32.2971 29.2972 31.5994 30.2019 31.7811 30.8064C31.8265 30.9586 31.8595 31.1742 31.715 31.3349C31.9256 31.1742 31.7563 30.8191 32.0247 30.6881C32.9371 32.9709 32.0164 35.2158 31.7357 37.4226C31.459 39.5956 30.5507 41.6797 29.919 43.802C29.3575 44.174 29.3121 45.0829 28.1891 45.2605C30.0677 41.8108 31.331 38.3442 31.1783 34.5098Z" fill="#F5B375"/>
<path d="M20.4438 32.396C20.3942 34.9706 20.5222 37.524 21.2612 40.0056C21.1622 40.5003 21.5214 41.1302 20.836 41.4811C19.457 40.2593 20.5594 38.3526 19.6222 37.0336C19.2382 36.6236 19.329 36.205 19.6015 35.7865C19.6057 32.6835 19.6139 29.5804 19.618 26.4816C21.1622 28.2657 20.1465 30.4259 20.4438 32.396Z" fill="#F4B57A"/>
<path d="M25.394 20.5588C25.3899 20.4193 25.3899 20.2798 25.394 20.1403C24.9647 19.1975 25.4931 17.98 24.5766 17.1767C24.5807 16.8977 24.5848 16.6145 24.5889 16.3354C26.2528 15.38 25.9803 14.1625 25.0596 12.835C24.7376 12.37 23.9407 12.0571 24.4486 11.2708C24.8862 10.5944 25.6046 11.2201 26.1661 10.958C26.4179 10.8396 26.8514 11.2328 26.7358 11.3554C25.4353 12.7293 27.2973 14.3739 26.2528 15.8873C25.4601 17.033 26.7895 18.5211 26.3106 19.9035C26.2445 20.098 27.2106 20.2882 26.7111 20.7955C26.29 21.2225 25.8275 20.7068 25.394 20.5588Z" fill="#F9CD9F"/>
<path d="M34.0683 12.5222C38.3993 17.2824 40.1911 22.9305 39.6833 29.3817C39.4439 23.2222 37.6149 17.6756 33.6431 12.9576C33.5523 12.5771 33.672 12.408 34.0683 12.5222Z" fill="#F4AA67"/>
<path d="M7.24859 15.9127C8.73904 15.1898 9.01566 13.2155 10.568 12.556C10.7992 12.8815 10.7786 13.1986 10.5391 13.5114C7.93395 16.9823 5.95632 20.7871 4.7136 24.9851C4.58148 25.1499 4.4122 25.2599 4.21403 25.3233C4.11907 25.2852 4.02411 25.2472 3.92915 25.2049C4.33789 23.3659 4.74663 21.5311 5.15536 19.6921C5.07692 17.9842 6.17514 16.9569 7.24859 15.9127Z" fill="#F9C088"/>
<path d="M9.7134 26.4816C10.3699 25.8771 10.023 25.0738 10.1097 24.3594C9.96938 23.2518 10.8612 22.457 10.9685 21.4254C11.7447 21.3789 11.5837 21.8144 11.3855 22.2752C10.9726 25.7925 9.84139 29.2169 10.118 32.8188C10.1263 33.2373 10.1345 33.6516 10.1469 34.0701C10.2666 34.8226 10.7868 35.6597 9.73817 36.1754C9.01978 32.9414 9.28815 29.7115 9.7134 26.4816Z" fill="#F6AC6C"/>
<path d="M28.2758 29.0182C28.2758 30.4217 28.28 31.8295 28.28 33.2331C27.0744 33.1612 27.3923 32.1043 27.1941 31.1489C26.7482 31.8464 26.4303 32.3495 25.906 33.1739C25.8564 32.2649 25.8275 31.69 25.7986 31.1108C25.8028 29.2845 25.811 27.4582 25.8152 25.6319C25.8647 25.6784 25.9597 25.7291 25.9597 25.7756C25.9968 27.4159 26.5335 28.6673 28.2758 29.0182Z" fill="#FBD0A3"/>
<path d="M4.3255 25.2049C5.51456 20.99 7.48393 17.181 10.0189 13.6552C10.2543 13.3296 10.3864 12.9238 10.568 12.556L10.5556 12.5433C10.857 12.0191 11.2204 11.6598 11.852 12.0529C12.0337 12.3742 12.0048 12.6744 11.753 12.9449C11.753 12.9449 11.753 12.928 11.7488 12.928C8.77619 16.0564 6.65819 19.6837 5.59713 23.9324C5.58061 24.0719 5.57649 24.2072 5.58061 24.3467C5.0604 25.1499 5.60539 26.3971 4.54845 26.9805C3.75575 26.4858 3.91264 25.8602 4.3255 25.2049Z" fill="#FCE3C1"/>
<path d="M6.82334 42.111C6.1256 40.3861 4.4122 39.3165 3.95805 37.4395C4.12733 37.2281 4.20577 36.911 4.55671 36.928C5.0604 37.0971 5.23381 37.524 5.34941 37.9933C5.38244 38.1244 5.42785 38.2512 5.49391 38.3696C5.55171 38.2385 5.43198 38.1328 5.44437 37.9933C5.53107 37.6974 5.72512 37.5367 6.00174 37.4691C7.91331 39.139 8.00414 41.8066 9.30466 43.8104C9.0363 43.6667 8.76794 43.523 8.49957 43.3792C7.6243 43.3835 7.25272 42.707 6.82334 42.111Z" fill="#F7BA80"/>
<path d="M24.5766 31.9732C23.982 33.6262 24.7954 35.3976 24.1678 37.0463C23.8912 37.2915 23.6146 37.2915 23.338 37.0421C23.3214 35.7611 22.4833 34.5732 22.9251 33.2373C23.7013 32.2353 23.0159 31.0685 23.276 30.0201C23.371 29.6354 23.0613 28.8533 23.8375 28.9421C24.5064 29.0182 24.7087 29.5847 24.3949 30.2019C24.0481 30.8572 24.2834 31.4067 24.5766 31.9732Z" fill="#F9D5AB"/>
<path d="M15.0559 33.6812C15.0022 35.9683 15.3862 38.1962 15.9146 40.403C15.0559 40.885 14.5522 40.7285 13.9494 39.7858C13.4127 38.9487 13.3962 37.9637 13.0948 36.8138C14.5728 37.5494 14.7999 36.8688 14.6884 35.6428C14.6306 34.9917 14.4325 34.235 15.0559 33.6812Z" fill="#FBCEA0"/>
<path d="M9.73404 36.1712C10.4111 35.5794 10.0065 34.7677 10.1428 34.0659C10.8199 36.8223 11.1378 39.6928 12.6324 42.1871C13.2269 43.1848 13.8503 44.1656 14.5563 45.3112C12.5787 44.3347 10.8983 41.0456 9.73404 36.1712Z" fill="#F7B779"/>
<path d="M5.99761 37.4649C5.86136 37.6044 5.72512 37.7396 5.593 37.8792C3.39656 35.3342 2.93002 29.4282 4.71773 26.8325C4.8292 25.9405 4.95719 25.0527 5.58474 24.3509C5.81182 25.7756 5.40721 27.1623 5.10995 28.4939C4.65167 30.5401 4.75075 32.5059 5.18013 34.5013C5.60951 35.2961 5.68383 36.2093 5.98109 37.0506C5.98522 37.1901 5.98935 37.3253 5.99761 37.4649Z" fill="#F4AB6A"/>
<path d="M15.8981 14.6402C15.5472 12.9618 17.1698 12.1882 17.5578 10.8481C19.0029 11.5625 18.9327 9.67279 20.1837 9.28808C19.3249 11.8584 17.5289 13.3846 16.1211 15.1771C16.0468 14.9953 15.9724 14.8177 15.8981 14.6402Z" fill="#F6BC84"/>
<path d="M11.3855 22.271C11.3525 21.9328 11.3029 21.603 10.9685 21.4212C11.7777 18.0307 13.2351 14.9403 15.1054 12.0402C15.3986 11.5837 15.6876 11.1144 15.8899 12.091C13.5118 15.0799 12.6282 18.7621 11.3855 22.271Z" fill="#F7B67A"/>
<path d="M17.145 25.6319C17.1202 25.1711 17.2193 24.6722 16.7321 24.3678C17.4381 21.3071 18.14 18.2463 18.8501 15.1855C18.9409 14.7882 19.2712 14.6909 19.618 14.636C19.8203 16.2255 19.04 17.5953 18.685 19.0622C18.1565 21.2521 17.6569 23.4462 17.145 25.6319Z" fill="#F7BD86"/>
<path d="M36.1409 36.2177C36.1244 37.2788 35.6992 38.2131 35.278 39.1474C34.8239 39.1474 34.345 39.2193 34.056 38.7204C33.5605 37.8876 34.217 37.2958 34.4812 36.6193C34.4812 36.4714 34.4771 36.3276 34.4771 36.1797C34.2252 35.2665 34.3862 34.4337 34.9188 33.6685C35.9882 34.1843 36.2276 35.1186 36.1409 36.2177Z" fill="#FBCE9E"/>
<path d="M2.66991 33.2457C1.15057 29.6903 1.85244 26.1815 2.87634 22.681C3.08691 23.9535 2.43045 25.1922 2.70707 26.4689C2.85157 26.655 2.97543 26.8579 3.07865 27.0735C3.3594 29.0689 3.32224 31.0728 3.23554 33.0809C3.10342 33.3303 2.9135 33.3852 2.66991 33.2457Z" fill="#F5AC6C"/>
<path d="M31.2031 28.6081C30.9182 27.3356 30.6374 26.0589 30.3525 24.7864C29.8654 24.3129 30.4269 23.5731 29.9397 23.0996H29.9356C29.9356 22.4105 29.9356 21.7214 29.9356 20.563C31.4136 23.3659 31.3682 26.0758 31.9834 28.6081C31.7233 28.8406 31.4632 28.8279 31.2031 28.6081Z" fill="#F5B375"/>
<path d="M34.4771 36.6236C34.3367 37.3253 34.1963 38.0229 34.0518 38.7247C33.3623 40.1451 32.7265 41.5952 31.9586 42.9734C31.6572 43.5103 31.4012 44.563 30.3608 43.8147C31.8347 42.3942 32.3549 40.4199 33.1889 38.6359C33.5399 37.8918 33.6472 37.0252 34.4771 36.6236Z" fill="#F4B476"/>
<path d="M6.83573 28.8533C7.57476 31.17 6.36506 33.5205 7.005 35.8541C6.10082 33.5543 5.94394 31.225 6.83573 28.8533Z" fill="#FAD8B1"/>
<path d="M11.753 12.9449C11.7695 12.6617 11.786 12.3742 11.8066 12.091C11.8686 11.5625 12.2401 11.2835 12.62 11.0045C13.3466 10.4253 13.8255 9.55019 14.7091 9.15703C15.6339 8.31997 16.5587 7.48291 17.4835 6.64162C17.5991 6.77268 17.7147 6.8995 17.8303 7.03056C15.8073 9.00484 13.7801 10.9749 11.753 12.9449Z" fill="#F5BA83"/>
<path d="M34.9147 33.6685C34.7661 34.5056 34.6216 35.3426 34.4729 36.1839C33.3912 34.4929 34.7372 32.7131 34.2995 30.9121C34.1055 30.1173 34.3078 28.866 34.9106 27.8514C34.9147 29.7918 34.9147 31.728 34.9147 33.6685Z" fill="#F4B476"/>
<path d="M34.0683 12.5222C33.928 12.6659 33.7835 12.8139 33.6431 12.9576C33.511 12.9492 33.383 12.9449 33.2509 12.9407C32.5738 12.7843 32.165 12.3531 32.0205 11.6598C31.3269 10.8227 30.6333 9.98563 29.9397 9.14857L29.9438 9.14012C31.6283 9.87149 32.8008 11.2581 34.0683 12.5222Z" fill="#F4B57C"/>
<path d="M7.24859 15.9127C6.73251 17.2782 5.51868 18.2421 5.15949 19.6964C3.93328 19.2144 4.96132 18.5845 5.14711 18.1618C5.57649 17.1894 5.8242 15.9465 7.24859 15.9127Z" fill="#FBD7AC"/>
<path d="M2.66991 33.2457C2.81441 33.2415 2.96305 33.2415 3.10755 33.2373C4.21816 34.2646 4.33376 35.6343 4.36266 37.0379C4.22641 37.1732 4.09017 37.3042 3.95392 37.4395C3.58647 36.019 2.68643 34.7761 2.66991 33.2457Z" fill="#F2A864"/>
<path d="M2.70294 26.9086C2.70294 26.7606 2.70707 26.6169 2.70707 26.4689C3.60712 26.5493 3.38417 25.4881 3.92915 25.2091C4.28009 25.9236 4.16448 26.7099 4.19751 27.4624C4.21816 27.9401 4.02411 28.5235 3.45023 28.5574C2.67404 28.6039 2.9713 27.9021 2.90525 27.4878C2.87222 27.2722 2.80616 27.0904 2.70294 26.9086Z" fill="#F9C088"/>
<path d="M9.30053 43.8062C10.4359 44.0599 11.2121 44.7997 12.4177 45.9623C10.5309 45.7255 9.96112 44.7025 9.30053 43.8062Z" fill="#F7BA80"/>
<path d="M12.6076 11.3046C12.3392 11.5667 12.075 11.8289 11.8066 12.091C11.3896 12.2432 10.9726 12.3911 10.5556 12.5433C10.7662 11.6259 11.0387 10.772 12.2236 10.8734C12.4135 10.958 12.5415 11.1017 12.6076 11.3046Z" fill="#F9C088"/>
<path d="M12.6076 11.3046C12.4796 11.1609 12.3516 11.0172 12.2236 10.8734C13.1897 10.5099 13.3962 8.99215 14.7132 9.15703C14.1517 10.0237 13.4251 10.7085 12.6076 11.3046Z" fill="#FCE3C1"/>
<path d="M32.0205 11.6598C32.5573 11.9599 32.9784 12.3784 33.2509 12.9407C33.1931 13.2662 33.1105 13.782 32.7059 13.3804C32.2806 12.9576 31.2031 12.6532 32.0205 11.6598Z" fill="#FBD4A9"/>
<path d="M22.921 33.2373C23.338 34.4717 23.3958 35.7527 23.3338 37.0421C22.5494 36.5432 23.3008 35.406 22.4957 34.9199C22.0292 34.3576 22.1654 33.7995 22.5081 33.2457L22.5164 33.2373C22.6485 33.2373 22.7847 33.2373 22.921 33.2373Z" fill="#F9CB9B"/>
<path d="M10.7868 42.9734C9.70927 42.5506 9.34595 41.9376 9.05281 40.8046C10.085 41.257 10.5185 41.8319 10.7868 42.9734Z" fill="#FBDAAF"/>
<path d="M31.2031 28.6081C31.4632 28.6081 31.7233 28.6081 31.9875 28.6081C31.9999 29.3014 32.0123 29.9947 32.0288 30.6881C32.004 31.0854 31.9792 31.4871 31.9462 32.0747C31.2113 31.0305 32.0453 29.8172 31.2113 29.0097C31.1948 28.8744 31.1948 28.7391 31.2031 28.6081Z" fill="#F09F56"/>
<path d="M37.8832 38.1878C37.7717 38.0863 37.5364 37.9722 37.5323 37.8453C37.5158 37.4057 37.7263 37.0336 38.1103 36.8349C38.1805 36.7969 38.4777 37.0167 38.5108 37.1562C38.6305 37.6382 38.3539 37.9426 37.8832 38.1878Z" fill="#FAD4AB"/>
<path d="M23.4907 15.6675C23.8004 16.382 23.9077 16.9231 23.3214 17.4769C22.7682 16.8597 22.8178 16.3608 23.4907 15.6675Z" fill="#F9D4AC"/>
<path d="M6.82334 42.111C7.38071 42.5337 7.93808 42.9565 8.49545 43.375C7.17015 44.0134 7.08345 42.9396 6.82334 42.111Z" fill="#FBDDB6"/>
<path d="M5.98109 37.0506C5.40308 36.3023 5.19665 35.4356 5.18013 34.5013C5.96458 35.182 6.04715 36.0909 5.98109 37.0506Z" fill="#F7BA80"/>
<path d="M29.9356 9.14857C29.275 9.12321 28.8291 8.77655 28.4534 8.01136C29.2997 8.06632 29.6383 8.58208 29.9438 9.14435C29.9397 9.14435 29.9356 9.14857 29.9356 9.14857Z" fill="#F4B57C"/>
<path d="M20.6461 12.8097C20.5718 12.4461 20.4768 12.2558 20.5181 12.1036C20.5676 11.9176 20.6915 11.6893 20.8484 11.6132C21.1209 11.478 21.2034 11.7147 21.1291 11.9219C21.0342 12.1755 20.8732 12.3996 20.6461 12.8097Z" fill="#FACC9C"/>
<path d="M19.6057 35.7865C19.6139 36.2008 19.618 36.6193 19.6263 37.0336C19.4859 37.7988 20.0928 38.9318 18.6726 39.0713C18.9079 40.2001 19.0276 41.3711 19.4157 42.4407C19.7749 43.4257 19.3167 44.36 19.5396 45.3281C19.6552 45.8354 19.0896 45.5564 18.8006 45.4972C18.6561 45.0787 18.5116 44.6602 18.3712 44.2459C19.0029 43.1721 18.8584 42.1321 18.301 41.0752C17.1821 38.9572 17.1409 36.6743 17.2069 34.3914C18.5941 34.0786 17.8964 36.8772 19.6057 35.7865Z" fill="#FBD09F"/>
<path d="M27.4625 41.6924C27.4749 43.4469 26.8969 44.8673 25.2908 45.7086C25.7161 44.1994 26.4303 42.8592 27.4625 41.6924Z" fill="#F7BE85"/>
<path d="M23.3338 37.0463C23.6105 37.0463 23.8871 37.0463 24.1637 37.0506C24.0646 38.3188 23.5361 39.5406 23.755 40.8469C22.793 39.6716 23.6063 38.2935 23.3338 37.0463Z" fill="#F9CB9B"/>
<path d="M22.504 33.2457C22.4998 33.8038 22.4957 34.3618 22.4916 34.9199C22.1654 35.1059 22.0994 35.4229 22.0911 35.7654C21.4058 34.7846 21.447 33.9264 22.504 33.2457Z" fill="#FBDAB3"/>
<path d="M24.5766 17.1767C25.8606 17.8743 25.2537 19.113 25.394 20.1403C24.7334 19.2652 25.0059 18.1195 24.5766 17.1767Z" fill="#F9C794"/>
<path d="M29.9356 23.0996C30.526 23.5435 30.2989 24.203 30.3484 24.7864C29.1387 24.4989 30.2906 23.6069 29.9356 23.0996Z" fill="#F9C794"/>
<path d="M2.70294 26.9086C3.28921 27.1749 2.88873 27.974 3.47087 28.3291C4.30073 27.3821 3.78465 26.2364 3.92915 25.2091C4.06127 25.2091 4.19339 25.2091 4.32137 25.2049C4.41633 25.7587 4.12733 26.4055 4.70947 26.8367C4.27596 30.5781 3.62363 34.3407 5.58474 37.8792C5.84072 38.433 6.09257 38.991 6.45176 39.7773C5.09343 39.1601 5.24206 37.6889 4.35853 37.0379C3.94154 35.7696 3.52042 34.5056 3.10342 33.2373C2.29833 31.1742 2.83919 29.0182 2.70294 26.9086Z" fill="#F9C794"/>
</svg>
