<svg width="49" height="46" viewBox="0 0 49 46" fill="none" xmlns="http://www.w3.org/2000/svg">
<path d="M16.9267 44.9044C12.6962 44.0241 8.99855 42.1865 6.04502 39.0058C5.88425 38.7291 6.11392 38.3343 5.93019 38.1483C4.76347 36.955 4.70835 35.7707 5.61324 34.3641C5.81535 34.0465 6.52732 32.6853 4.84615 32.8305C4.57055 32.8532 4.34548 32.3178 4.34548 32.3042C4.55677 33.3569 3.707 34.0148 2.47598 34.3868C2.10851 34.042 1.81913 33.6654 1.92019 33.1209C1.26334 32.3042 2.54029 30.8704 1.0107 30.3305C-0.675058 25.1398 -0.289216 20.1442 2.44842 15.3709C3.23389 15.0669 3.89992 14.2729 4.89668 15.1032C5.89803 15.9381 5.75104 16.7866 5.3698 17.8347C4.93343 19.0461 5.53975 21.1515 2.90317 20.2576C3.1558 20.9019 3.73916 20.6433 4.02394 20.5616C6.13689 19.9672 6.3344 20.9155 5.74186 22.3312C5.71889 22.0907 6.02205 21.705 6.06339 21.2604C6.21957 20.6342 6.06799 20.1351 5.46166 19.8084C4.98855 19.0915 5.14472 18.3066 5.4341 17.6486C6.27928 15.743 7.31738 13.9235 8.135 11.9997C8.48409 11.1739 9.18687 10.6929 10.1377 11.3735C10.7119 12.0042 10.4271 12.5305 9.96774 13.0841C9.75645 13.3427 9.05826 13.5469 9.7197 14.046C10.179 14.1277 10.6384 14.2048 10.8037 14.7312C10.6889 15.2892 10.5235 15.8428 10.5144 16.419C10.4684 16.6096 10.3903 16.7911 10.2847 16.959C9.95856 17.3446 9.8575 17.8029 9.8575 18.2929C9.87128 18.6242 9.81616 18.9554 9.83913 19.2866C10.0091 18.6786 10.1147 18.0615 10.5787 17.5897C10.9691 17.4127 11.4606 17.4581 11.6397 17.7394C12.2782 18.7376 12.9075 18.116 13.546 17.8256C13.6838 17.8256 13.8216 17.8801 13.9594 17.8937C14.189 17.9163 14.2258 17.8438 14.042 17.7076C13.0774 17.3537 12.4757 16.8319 12.8386 15.6976C13.0407 15.0624 13.1601 14.4408 12.71 13.7828C11.7592 12.3854 12.5079 11.9271 13.8905 11.9089C14.1064 11.9089 14.3176 11.9362 14.5244 11.9861C16.5592 12.1766 17.7213 13.0841 17.2896 15.2892C17.5927 15.6885 16.1458 15.2529 16.968 16.0152C17.6386 16.6368 18.2909 17.3991 18.0888 18.4699C17.781 18.7512 17.3676 18.9009 17.1058 19.2412C17.3998 18.9509 17.7581 18.7512 18.0842 18.5017C18.5757 18.3701 18.8834 18.6469 19.1774 18.9599C19.848 19.8992 19.7608 20.9064 19.5954 21.9909C19.4576 22.9029 20.1282 23.2704 20.9275 22.7577C22.062 22.0272 22.9164 22.3992 23.7202 23.2613C23.8856 23.9056 23.8718 24.618 24.4506 25.108C25.2361 25.4438 24.4873 26.6099 25.4382 26.8594C25.7184 26.9638 25.9205 27.1453 26.0307 27.422C26.1869 27.9892 25.576 28.4248 25.7781 29.001C26.954 31.4966 26.9402 31.5283 24.6481 31.9639C24.3358 32.5084 24.9375 32.6899 25.0937 33.0438C25.2269 33.3342 25.2452 33.6291 25.1809 33.9376C25.0983 34.2507 24.9696 34.5411 24.8272 34.8315C24.423 35.6164 24.0188 36.4014 23.0358 36.6237C22.4111 36.7326 21.814 36.3061 21.1847 36.5148C21.8645 36.356 22.4754 36.7326 23.1323 36.7644C23.9315 37.0502 24.7675 37.0911 25.5943 37.0366C26.8897 36.955 27.7624 37.4631 28.2355 38.6519C28.7637 39.2327 29.5584 38.9151 30.1693 39.2055C30.9088 41.6193 30.5368 41.9732 27.179 42.0232C27.7762 42.8489 29.2782 43.711 27.1469 44.4506C27.8129 44.4461 28.58 44.2192 29.1817 44.8499C29.269 45.0632 29.2415 45.2628 29.0991 45.4443C27.9507 46.0069 26.7151 45.7392 25.5162 45.8209C23.4309 46.0614 21.4144 45.3762 19.3474 45.3672L19.3198 45.3898C19.6276 43.7746 20.9734 44.614 21.8508 44.2827C21.2031 43.8698 20.3258 43.8789 19.7378 43.3571C19.5311 43.2119 19.5173 43.28 19.6322 43.5114C19.4576 44.1512 18.6859 44.496 18.4976 44.1512C17.6386 42.5449 15.9759 43.4796 14.8505 42.8444C14.3268 42.6402 14.3268 42.6402 13.7297 41.0749C13.7205 41.0567 13.6975 41.0023 13.6332 40.9886C13.3347 40.9206 13.0085 40.8752 12.7789 41.1157C12.5216 41.3789 12.6273 41.642 12.8707 41.887C13.4863 42.5041 14.2901 42.7491 15.0985 42.9896C16.2744 43.4796 17.6616 43.5613 18.5619 44.6412C18.0612 45.3082 17.4825 45.0087 16.9267 44.9044Z" fill="#F4951D"/>
<path d="M14.3498 12.1766H13.8997C12.3655 10.6521 14.4049 10.4162 14.8413 9.5949C15.0618 9.37711 15.3052 9.18654 15.5716 9.0232C16.674 8.49233 17.7719 7.93878 19.0626 8.05221C19.6368 8.43334 19.7011 9.49508 20.6794 9.30905C21.9518 9.06857 21.6624 7.8571 22.0161 7.04946C23.1231 5.96958 24.2347 5.9968 25.3325 7.05854C25.654 7.37161 25.948 7.71191 26.4671 7.60755C27.0366 7.45328 27.5006 6.96779 28.1528 7.0903C28.9659 7.36254 29.6457 7.8571 30.3071 8.37436C30.8813 8.81902 31.2855 9.40887 32.2685 9.182C34.51 8.66475 35.0566 9.2183 35.0061 11.6049C35.0015 11.8182 35.1393 12.0178 35.1853 12.0904C35.4011 10.7973 35.2312 9.61305 33.8394 8.69651C33.1458 8.23824 33.9037 7.87525 34.4595 7.77089C35.6768 7.70737 36.0258 9.32266 37.2798 9.18654C37.6657 9.07764 38.0561 9.00958 38.4557 9.05042C38.6578 9.08218 38.8462 9.1457 39.0253 9.23645C39.1907 9.35896 39.2825 9.51777 39.3055 9.71741C39.2458 10.3254 38.8645 10.9561 39.4663 11.5097C39.7832 11.8772 40.1415 12.2039 40.4906 12.5351C41.028 13.0478 41.5379 13.6286 42.2544 13.8645C43.8897 14.3999 44.7762 15.6069 45.3917 17.0633C45.4698 17.1541 45.5479 17.263 45.6122 17.3764C45.7867 17.2176 45.6673 16.9998 45.727 16.8047C46.1174 15.8836 46.5951 16.1967 47.0131 16.7412C47.546 17.4354 47.771 18.3202 48.3912 18.969C49.2869 22.5444 49.2409 26.079 47.941 29.5682C47.2015 29.1009 47.4265 28.1798 46.981 27.5809C46.8524 26.7097 46.4895 27.472 46.2415 27.4856C45.6351 28.2841 46.3471 29.4911 45.3871 30.1717C44.8267 30.5573 44.2755 30.943 44.3674 31.7416C44.3444 31.9412 44.2709 32.1136 44.1423 32.2679C43.1915 32.7534 42.4749 33.6609 41.3174 33.7788C41.1153 33.7471 40.927 33.6745 40.7524 33.5747C40.0496 33.0211 39.1355 32.6627 38.9564 31.6327C38.9518 31.1926 39.1539 30.8341 39.4111 30.4984C40.2288 29.5092 41.1382 28.5836 41.5195 27.3177C41.4506 27.2995 41.3817 27.2678 41.3128 27.2587C41.2393 27.2496 41.1658 27.2632 41.0831 27.2678C40.8902 27.1861 40.757 27.0545 40.6651 26.8776C40.4676 26.3739 40.4676 25.8612 40.5411 25.344C40.8213 24.4274 40.7892 23.5109 40.5503 22.5898C40.5135 22.2722 40.5411 21.9591 40.6422 21.6506C41.6849 21.1016 41.299 19.5226 42.5117 19.0915C42.7551 19.028 43.2466 19.0325 43.2098 18.8964C43.118 18.5425 42.8148 18.8964 42.5943 18.8828C41.5471 19.087 40.7892 18.8284 40.5365 17.6895C40.3528 16.8682 39.8659 16.3646 38.961 16.3419C38.1388 16.3237 37.831 16.8637 37.4727 17.4944C36.9399 18.4427 36.1453 19.1823 35.0429 19.509C34.4825 19.0416 34.556 18.3655 34.4503 17.7439C34.3447 17.0951 34.0186 17.4127 33.7292 17.6033C33.3847 17.7848 33.0631 17.7031 32.7508 17.5579C32.2042 17.7712 32.8197 18.1069 32.6727 18.3655C32.5946 20.1124 31.0237 20.2848 29.8983 20.9064C29.5492 21.097 29.1404 20.9881 28.9061 20.6387C28.5341 20.0897 28.5433 19.459 28.9291 18.9645C30.0269 17.5624 29.3563 16.664 28.1253 15.8836C27.9324 15.1622 27.0918 14.9353 26.8483 14.2638C26.0261 13.7647 26.3798 14.8809 25.948 14.9126C25.1396 15.1577 24.3587 16.0334 23.4768 15.0488C23.316 14.9263 23.1599 14.7992 22.9991 14.6767C22.1264 14.0687 21.1755 13.8736 20.1374 14.1731C19.3336 13.8963 18.8743 13.4652 19.4163 12.5941C19.6322 12.4126 20.0272 12.2991 19.6873 11.8953C18.3965 11.2692 17.2987 13.0705 16.0034 12.1676C15.7094 11.977 15.4155 11.8 15.0618 12.0587C14.8505 12.2129 14.6254 12.3627 14.3498 12.1766Z" fill="#F49622"/>
<path d="M18.9478 8.09758C17.8867 8.55132 16.821 9.00505 15.76 9.45878C15.1904 9.16385 15.3649 8.21102 14.5703 8.13388C14.4417 8.51955 14.9929 8.34714 14.9929 8.62391C15.1628 9.06857 14.9929 9.41794 14.6897 9.73102C13.3255 10.6702 12.4941 12.7846 10.2204 11.7138C9.36142 11.1512 8.81481 11.4779 8.52543 12.3445C7.91451 14.1731 7.0923 15.8609 5.85669 17.3946C5.35142 18.0207 5.35142 19.0915 6.04961 19.8719C6.59163 20.1941 6.07717 20.8883 6.5411 21.2377C6.32062 22.0181 6.10014 22.7985 5.85669 23.6561C4.4006 22.8484 6.03583 21.764 5.5076 20.8565C4.16174 21.0063 2.47598 21.764 1.87885 19.2276C2.89857 19.5452 4.23064 20.8384 4.49247 19.7177C4.77266 18.5062 6.22416 17.1132 4.6073 15.5796C3.73916 14.7584 3.02719 16.3283 2.44842 15.3528C5.45248 8.12027 11.2493 4.31345 18.663 2.58927C21.0239 2.04026 23.4492 1.74987 25.8975 2.10832C26.118 2.38055 26.1593 2.68909 26.0858 3.01578C24.9283 4.18187 24.9283 4.18187 22.8245 3.65101C23.4998 5.34796 21.4557 5.88791 21.4236 7.31716C20.7759 8.15657 20.2523 9.3635 18.9478 8.09758Z" fill="#F59C25"/>
<path d="M29.0945 45.4216C29.0761 45.2265 29.0623 45.0314 29.0439 44.8363C29.7375 43.0849 31.7402 43.6747 32.8886 42.74C33.991 42.2999 35.0612 41.8054 36.0856 41.2064C35.1669 41.701 34.2161 42.1366 33.2561 42.5586C32.714 42.6629 32.0021 43.1756 31.7173 42.3635C31.3544 41.3244 32.4798 41.0975 32.9942 40.544C33.0907 40.4396 33.1963 40.3489 33.2974 40.2536C33.5638 40.0131 33.8624 39.8316 34.2069 39.7318C33.8118 39.7772 33.4214 39.7726 33.0631 39.5594C32.7967 39.3643 32.613 39.1193 32.5762 38.7835C32.8013 38.0575 33.4719 37.9532 34.0645 37.7445C34.4595 37.6628 34.9142 37.8624 35.2588 37.5131C34.8775 37.6764 34.5284 37.6537 34.3355 37.259C34.092 36.7644 33.6878 36.6827 33.1963 36.7417C32.2225 36.7508 31.2074 36.9867 30.3944 36.2063C30.1831 35.6936 30.4863 35.4123 30.941 35.1627C30.3071 35.2625 30.0361 35.7344 29.6732 36.0883C28.9383 36.6736 28.1161 36.9459 27.1561 37.0276C23.8994 37.3089 23.8994 37.3406 24.4414 34.4004C24.593 34.2507 24.7492 34.0964 24.9007 33.9467C25.9113 33.1663 27.101 34.3369 28.1161 33.6518C28.3274 33.6336 28.5341 33.6382 28.7454 33.6654C30.9134 33.375 33.0034 32.8351 34.9005 31.7144C35.4884 30.0083 37.018 28.9466 37.8953 27.4402C38.4282 26.8095 38.9977 26.9819 39.4571 27.472C39.921 27.9665 39.5489 28.4792 39.2688 28.9148C38.6165 29.9221 37.707 30.8114 37.8678 32.159C37.2752 33.0347 36.1912 33.4068 35.5298 34.3914C36.4484 35.2081 38.1204 35.1491 38.3593 36.6963C38.3041 37.5448 37.6197 37.8352 36.6689 38.357C37.6657 37.8715 38.2766 37.5085 38.4833 36.7417C38.6395 36.3152 38.984 35.9522 38.9105 35.4531C38.9288 34.9994 38.9472 34.5411 38.961 34.0828C39.0161 33.8923 39.1126 33.7289 39.2596 33.5928C39.8108 33.2344 40.3803 33.1663 40.9729 33.4884C41.6803 34.1191 43.0996 33.6609 43.3476 34.9858C44.0918 35.1627 43.9999 33.9059 44.7854 34.16C45.2493 34.2371 45.5708 34.4867 45.7408 34.9177C42.553 40.1402 37.9091 43.4025 31.9515 44.8862C31.1753 45.2946 30.2336 44.7319 29.4895 45.3036L29.3058 45.4171L29.0945 45.4216Z" fill="#F49622"/>
<path d="M38.69 9.44517C38.2261 9.44517 37.7621 9.44971 37.3028 9.44971C35.9937 9.77185 35.888 7.73006 34.5606 8.08851C34.4136 8.11573 34.2666 8.14749 34.115 8.17472C36.0075 9.3635 35.0704 11.8817 36.5541 13.2837C35.2266 12.9298 34.0002 12.4398 34.657 10.7474C34.9786 9.92612 34.3263 9.88983 34.0002 9.58129C33.6786 9.28182 33.2147 8.86439 32.8472 9.3635C31.3177 11.428 30.8445 9.24553 29.9626 8.71012C30.2428 7.85257 29.3517 7.04039 29.8524 6.16922C30.8354 5.32528 30.9502 4.73543 29.3976 4.59931C28.75 4.54032 28.0472 4.90784 27.4592 4.36336C27.2755 4.05483 27.2204 3.7236 27.2571 3.36969C27.4225 2.69817 27.767 2.27166 28.5479 2.45315C31.4371 2.87966 34.3309 3.29256 36.8297 4.9759C36.2923 6.34618 36.7332 7.40791 37.8494 8.29722C38.2215 8.59215 38.8921 8.72373 38.69 9.44517Z" fill="#F49D28"/>
<path d="M45.1345 17.6124C44.3444 16.106 43.6554 14.5814 41.6297 14.2003C41.0326 14.0868 40.5825 13.1975 40.0634 12.6621C39.9669 12.0768 39.1953 11.7411 39.4387 11.0242C39.7281 10.575 40.1185 10.5205 40.6605 10.7837C40.2242 10.1802 39.4663 10.0486 39.1447 9.44971C39.1953 8.21102 39.2504 8.1974 41.0831 8.93245C41.57 9.19561 41.9559 9.56767 42.3233 9.9715C43.4028 10.8744 44.2893 12.0133 45.6259 12.6031C47.105 14.4861 47.8859 16.664 48.3912 18.9599C47.376 18.6106 47.0912 17.6532 46.5446 16.8864C46.0531 16.1967 46.1312 16.9544 46.0256 17.1858C45.7408 17.3583 45.3595 17.322 45.1345 17.6124Z" fill="#F59C2B"/>
<path d="M41.051 9.42702C40.4171 9.59036 39.7602 7.9297 39.1493 9.45424C38.9977 9.45424 38.8462 9.44971 38.6946 9.44517C37.6014 8.66475 36.3795 8.20648 36.0258 6.50952C35.7916 5.39334 36.4484 5.40695 36.8297 4.97137C40.4998 6.68647 43.536 9.11394 45.6259 12.6031C43.6554 13.016 43.2466 10.9379 41.9145 10.3299C42.0661 9.61759 41.7308 9.3635 41.051 9.42702Z" fill="#F6A337"/>
<path d="M2.47598 34.3823C3.85858 33.2888 4.07447 31.7552 3.72078 29.7769C5.19525 30.6708 4.26739 31.973 5.14013 32.64C6.00827 32.8487 5.28252 31.3741 6.04961 31.6372C6.6835 31.855 6.63297 32.5447 6.31143 32.9803C5.67296 33.8514 7.5103 35.5257 5.26415 35.9477C4.98855 36.0021 5.76482 37.0684 6.25172 37.4949C7.01422 38.1619 7.00503 38.6202 6.04502 39.0013C4.49247 37.7399 3.28441 36.2108 2.47598 34.3823Z" fill="#F59B24"/>
<path d="M45.75 34.9268C45.3779 34.7498 45.0104 34.5729 44.6384 34.4004C44.4868 34.2598 44.3857 34.0919 44.3168 33.9013C44.2296 33.4158 44.2388 32.9213 44.1974 32.4267C44.1974 32.3269 44.1974 32.2316 44.202 32.1318C44.202 31.9821 44.202 31.8278 44.202 31.6781C44.0458 30.8477 44.7946 30.4666 45.1115 29.8677C46.0485 29.0827 44.9737 27.903 45.6765 27.0772C45.7132 27.0318 45.8189 27.0182 45.8786 27.0318C45.9429 27.0454 45.9934 27.118 46.0485 27.1634C46.3655 27.4856 46.6732 27.3721 46.9764 27.1453C48.4784 27.4856 47.6103 28.756 47.9364 29.5546C47.7021 31.5419 46.9534 33.3251 45.75 34.9268Z" fill="#F39020"/>
<path d="M14.8091 42.5676C15.3557 42.0821 16.9864 43.9833 16.7475 41.7101C16.7383 41.6057 17.0737 41.3471 17.2115 41.3698C17.7673 41.4696 17.703 41.946 17.827 42.3725C17.9877 42.9215 17.7994 43.8426 18.8145 43.8245C19.2923 43.8154 19.3382 43.3843 19.4025 43.0168C20.7392 43.3072 23.2104 43.5477 23.1093 44.1602C22.8475 45.6893 20.9321 44.3644 19.8526 44.9452C19.6551 45.0495 19.499 45.2174 19.3198 45.3581C18.4838 45.408 17.6478 45.4534 16.9313 44.8998C17.2941 44.8544 17.6616 44.8045 18.1669 44.741C17.1104 43.829 15.6268 44.0649 14.8091 43.0395C14.6484 42.9352 14.5978 42.8263 14.6484 42.7219C14.6989 42.6221 14.754 42.5676 14.8091 42.5676Z" fill="#F59E2C"/>
<path d="M28.5479 2.45315C28.0058 2.63011 27.6981 2.97948 27.6981 3.56026C26.9953 4.02307 26.9218 4.93507 26.3155 5.47047C26.1042 5.53399 25.8975 5.52946 25.6908 5.44325C24.7675 4.60384 25.429 3.85518 25.824 3.08838C25.847 2.76623 25.8699 2.44408 25.8929 2.12193C26.0077 1.92682 26.1226 1.73172 26.2374 1.53661C26.683 0.810641 26.8713 -0.39175 28.1253 0.125505C29.2966 0.610998 28.8372 1.5956 28.5479 2.45315Z" fill="#7FAE4D"/>
<path d="M1.00611 30.3214C1.48382 30.1626 1.94775 29.7179 2.4622 30.2352C2.98585 30.7615 2.54488 31.1472 2.31062 31.6191C2.08555 32.0728 2.03961 32.6082 1.92019 33.1119C1.35061 32.2679 1.05664 31.3332 1.00611 30.3214Z" fill="#F59B24"/>
<path d="M19.3428 45.3399C21.4328 45.0223 23.4584 45.5577 25.5071 45.7937C23.4079 46.2429 21.3684 45.898 19.3428 45.3399Z" fill="#F59E2C"/>
<path d="M29.4987 45.3172C30.2015 44.5096 31.1201 44.927 31.9607 44.8998C31.212 45.4443 30.3393 45.2991 29.4987 45.3172Z" fill="#F59C2E"/>
<path d="M35.4609 32.1182C33.302 33.1935 31.1431 34.2779 28.5984 33.9286L28.6489 33.8151L28.5938 33.9376C27.372 35.3261 26.1364 34.1554 24.9099 33.9513C24.9099 33.6518 24.9099 33.3523 24.9099 33.0483C24.5287 32.6354 24.0556 32.2861 23.9867 31.669C24.5654 30.884 25.2912 30.8386 26.1547 31.5283C26.0537 30.3078 25.6173 29.5637 24.9145 28.9511C25.1488 28.452 26.3706 28.5972 25.824 27.5899C25.6724 27.4402 25.5208 27.2905 25.3647 27.1407C24.9513 26.6598 24.9375 26.1153 25.4382 25.7705C26.0031 25.3757 26.4211 25.7614 26.6967 26.265C27.225 26.256 27.2112 25.3893 27.8405 25.5436C28.8235 25.2714 29.6595 24.4955 30.7756 24.7087C30.9915 24.8131 31.0834 25.0218 31.1982 25.2124C31.3268 24.9583 31.1477 24.8131 30.9869 24.6588C30.3301 24.3049 29.6962 23.892 29.0761 24.745C28.7224 25.2305 28.2034 25.5073 27.5787 25.5254C27.2342 25.4846 26.9953 25.285 26.7932 25.0263C25.4887 23.5562 26.3339 22.3539 27.2801 21.1651C28.433 21.1968 27.8818 20.4709 27.8083 19.9627C27.3582 18.6196 26.7013 17.2766 27.8589 15.9562C27.9461 15.9018 28.038 15.8519 28.1253 15.7974C30.4403 16.233 30.9272 17.2403 29.6365 18.9236C29.3333 19.3184 29.3333 19.3184 29.3012 20.7885C30.229 19.5815 32.342 20.1215 32.2639 18.0479C32.5349 17.8029 32.3466 17.3174 32.7554 17.1495C33.0539 17.2993 33.3525 17.449 33.6511 17.6033C33.697 17.6849 33.7384 17.7621 33.7843 17.8438C33.8394 18.2929 33.7613 18.7467 33.8486 19.1959C33.8624 19.2866 33.8716 19.3774 33.8807 19.4681C33.8899 19.6541 33.867 19.8402 33.8256 20.0217C33.7292 20.3892 33.6235 20.7567 33.5822 21.1379C33.8256 22.6624 34.6249 23.8466 35.9064 24.8585C35.6584 23.7196 36.3566 23.1524 37.0456 22.5853C37.2247 22.4718 37.4176 22.4083 37.6289 22.3992C37.73 22.4174 37.831 22.4355 37.9275 22.4537C38.8094 22.8121 38.7176 21.8865 39.0942 21.578C39.3836 21.4146 39.673 21.4056 39.9761 21.5417C39.8337 22.3312 40.6651 22.2087 40.9683 22.5807C41.5608 23.4973 41.5608 24.4183 40.9729 25.3394C40.3803 25.9474 40.3895 26.5463 40.9867 27.1407L40.9775 27.1317C41.9329 28.8604 39.8751 29.4729 39.6041 30.7479C39.4525 31.061 39.2963 31.3695 39.1447 31.6826C39.2642 32.4358 39.7786 33.1935 39.1401 33.9467C38.9243 34.4322 38.6578 34.954 38.0515 34.8723C37.3212 34.7725 37.5187 34.1146 37.5233 33.6382C37.5279 33.1345 37.4727 32.6082 37.7529 32.1409C36.2371 30.6027 38.0837 29.9403 38.6487 29.0056C39.3422 27.8622 39.4249 27.9121 38.2261 27.5854C37.6519 28.4475 36.7746 29.0509 36.1636 29.8541C35.7089 30.4621 34.781 31.0973 35.4609 32.1182Z" fill="#F59B2B"/>
<path d="M27.6568 21.2513C26.9448 22.3947 26.2971 23.5472 27.202 24.8902C26.8483 25.6026 27.225 26.4511 26.7565 27.1407C26.1915 26.9638 26.4625 25.9792 25.8102 26.0336C25.1855 26.0835 25.4519 26.7414 25.3647 27.1453C24.7629 27.1135 23.2288 27.9574 24.4644 26.1879C24.7629 25.7614 24.0464 25.6706 24.005 25.3167C24.7124 24.8403 23.5962 24.4365 23.9361 24.0145C24.5976 23.1933 23.5641 23.765 23.5365 23.5199C22.5168 22.9119 21.373 21.8502 21.0928 24.255C20.5233 23.8693 20.0226 23.3884 19.4209 23.1479C18.4838 22.7758 18.1164 22.6851 19.1177 21.7322C19.6689 21.2059 19.2188 19.9082 18.9386 18.9781C19.0212 18.9191 19.0993 18.8556 19.182 18.7966C20.7759 18.6922 20.5968 20.067 21.0102 20.9155C21.0239 20.852 20.9826 20.8202 20.9826 20.7613C21.1526 19.2957 22.0115 19.7222 22.6041 20.2984C23.1966 20.8701 23.6376 21.5371 24.5746 21.4328C24.6894 21.333 25.3141 21.8003 24.9099 21.1106C24.5471 20.421 24.5195 19.8583 25.4382 19.6224C25.9434 19.6088 26.4028 19.7948 26.8667 19.9491C27.0504 20.0217 27.2204 20.117 27.3811 20.2349C27.6522 20.5253 27.9048 20.8248 27.6568 21.2513Z" fill="#F6A034"/>
<path d="M20.3166 13.9916C21.6303 12.4806 22.4754 14.1685 23.5273 14.4498C23.4446 14.5224 23.5365 14.4408 23.5273 14.4453C24.1015 15.5978 25.1717 14.232 25.8424 14.89C26.3017 14.595 26.366 13.7193 27.202 13.978C27.1377 14.772 28.5295 14.84 28.1253 15.7974C27.5787 17.3855 26.0261 16.1513 25.1626 16.8365C24.4919 16.6096 24.5241 17.0497 24.5471 17.4853C23.6468 18.7648 22.526 17.4581 21.5568 17.7439C21.1066 17.5261 21.3822 17.9118 21.3225 18.0434C21.0561 18.4518 20.5416 18.8556 20.2477 18.4835C19.1131 17.0361 19.3566 18.8011 18.9432 18.9781C18.6354 18.8284 18.3276 18.6741 18.0245 18.5244C17.5652 17.7575 17.0966 16.9953 16.6465 16.2239C16.3525 15.7203 16.4444 15.38 17.1058 15.3528C18.3644 15.3346 19.1545 14.2366 20.3166 13.9916Z" fill="#F59B2B"/>
<path d="M33.6281 40.7436C33.2698 41.0068 32.9115 41.2654 32.5579 41.5331C32.2869 41.7373 31.7265 41.878 32.1582 42.3135C32.2914 42.4451 32.8243 42.191 33.1734 42.1139C33.4673 42.4134 33.449 42.7174 33.1872 43.0214C32.0388 44.1375 30.3347 44.0241 29.0485 44.8408C27.9829 44.8408 26.9172 44.8408 25.8286 44.8408C26.1364 43.8154 27.8359 44.5323 27.7165 43.3027C27.6108 42.191 26.242 42.9215 25.6908 42.2682C26.2833 41.3289 27.1699 41.2563 28.0885 41.4197C29.8386 41.7282 30.3531 40.9841 29.958 39.3915C30.0315 38.3343 30.7756 38.5521 31.4417 38.6202C32.2777 38.8289 31.4187 40.2173 32.5716 40.2082C32.9713 40.2899 33.3525 40.4215 33.6281 40.7436Z" fill="#F59C2E"/>
<path d="M10.2158 11.7184C12.0118 11.7048 13.1969 10.5976 14.359 9.45424C14.6024 9.72194 15.0939 9.53138 15.2685 9.92612C14.8229 10.6839 13.1372 10.6975 13.8905 12.1721C13.3393 12.5305 11.897 12.5351 13.3025 13.6694C13.5184 13.8418 13.7986 14.3092 13.7251 14.4045C12.4619 16.1105 14.1615 16.9227 14.8091 18.0434C14.5289 18.3429 14.235 18.3156 13.9318 18.0797C12.71 18.91 11.6581 18.538 10.6889 17.6214C10.4317 17.1495 10.7302 16.8229 10.9875 16.4826C11.6259 15.8065 12.2506 15.0215 11.4881 14.1776C10.79 13.4108 9.9953 14.0097 9.29711 14.4317C8.2039 14.4589 8.38304 13.9598 8.824 13.3291C9.23281 12.7483 10.2158 12.6485 10.2158 11.7184Z" fill="#F59D30"/>
<path d="M30.4265 35.7889C31.4049 36.6283 32.59 36.0294 33.6603 36.2381C33.449 36.9005 34.2987 37.8125 33.178 38.2617C31.4555 38.239 29.8616 39.1011 28.1253 38.9378C28.0472 38.9378 27.9645 38.9151 27.9002 38.9378C26.5452 39.455 27.6705 37.0502 26.0904 37.504C25.1993 37.7581 23.9821 37.9622 23.068 37.1319C23.3528 36.8279 22.8062 36.5239 23.068 36.2199C23.8994 35.8887 24.0693 35.0674 24.4506 34.4004C24.5976 34.4367 24.7905 34.4231 24.8824 34.5139C25.6816 35.3125 23.5824 36.4422 24.7583 36.6464C26.1777 36.896 27.8956 36.8007 29.2736 35.8524C29.3333 35.8116 29.4068 35.7843 29.4757 35.7526C29.7927 35.7753 30.1188 35.4849 30.4265 35.7889Z" fill="#F59B2B"/>
<path d="M20.3166 13.9916C19.8664 14.89 18.7732 15.076 18.2128 15.9517C17.8637 16.5007 17.3768 15.7793 17.1012 15.3482C17.1701 13.4562 15.8197 12.762 14.3498 12.1721C14.5014 12.0269 14.653 11.8772 14.8045 11.732C15.2501 11.3282 15.7094 11.4053 16.1734 11.6957C17.0645 12.585 17.6524 11.5686 18.3139 11.31C19.1453 10.9833 19.8572 10.6385 20.3258 11.7411C20.5462 12.2402 20.266 12.4716 19.8435 12.6258C19.0534 13.4017 19.8205 13.6513 20.3166 13.9916Z" fill="#F28E19"/>
<path d="M15.2868 35.7934C16.256 34.7453 16.5179 33.4068 16.8164 31.914C17.781 33.0302 18.64 34.0329 19.5633 35.0992C18.2909 34.9268 18.1715 37.2499 16.6465 36.2244C16.1504 36.2063 15.6957 36.0793 15.2868 35.7934Z" fill="#F6A12C"/>
<path d="M15.2685 21.4237C15.5027 21.587 15.7278 21.882 15.9667 21.891C17.4871 21.9455 17.9097 23.6651 17.8132 24.1416C17.5697 25.3893 17.0094 24.382 16.6373 23.9328C16.3663 23.6107 16.3984 23.0571 15.861 22.9256C14.9929 23.3248 16.1826 24.2505 15.2593 24.7178C13.8997 23.8013 15.195 22.6034 15.2685 21.4237Z" fill="#F7A434"/>
<path d="M9.29711 14.4408C9.76564 13.6331 10.3398 12.9434 11.4101 13.1522C12.0945 13.2883 12.3471 13.919 12.4252 14.4861C12.5584 15.4889 12.393 16.4281 11.1436 16.7003C11.0656 16.6414 10.9921 16.5778 10.914 16.5189C10.6935 15.9971 10.3168 15.5025 10.6659 14.899C10.3444 14.3591 9.79779 14.4634 9.29711 14.4408Z" fill="#F28A18"/>
<path d="M11.6489 38.72C9.64621 37.6356 8.64486 35.8751 7.77212 33.4431C9.29252 34.1736 9.62784 35.131 9.94018 36.111C10.2709 37.1319 11.1804 37.7671 11.6489 38.72Z" fill="#EF880C"/>
<path d="M28.1253 38.9423C29.8891 38.1846 31.7219 37.8443 33.6419 38.0348C33.8027 37.8987 33.9588 37.8987 34.1104 38.0485C33.6419 38.3434 33.1688 38.6383 32.7003 38.9332C32.4063 39.1782 32.1031 39.2236 31.8 38.9514C31.1615 39.0058 30.4449 38.7336 29.9534 39.387C29.3609 39.1782 28.3825 40.5122 28.1253 38.9423Z" fill="#F7AA43"/>
<path d="M14.8091 42.5676C14.8091 42.7264 14.8091 42.8852 14.8091 43.0441C14.189 43.0531 13.5 43.0259 13.1463 42.495C12.8018 41.9732 11.2217 42.4451 11.975 41.1293C12.5262 40.1719 13.3347 40.3897 14.1247 40.8571C14.382 41.0068 14.6438 41.1565 14.9194 41.3153C14.4003 42.1094 13.8353 41.0612 13.3025 41.4515C13.5046 42.2137 14.3222 42.182 14.8091 42.5676Z" fill="#F8AB43"/>
<path d="M16.4536 31.551C16.2055 29.5637 16.178 28.1979 17.2069 26.9638C16.9818 28.3114 17.6846 29.7315 16.4536 31.551Z" fill="#F6A12C"/>
<path d="M25.0661 41.6829C23.6835 43.3934 22.4571 43.094 21.1526 42.2909C22.3101 42.1094 23.463 41.9324 25.0661 41.6829Z" fill="#F59E2C"/>
<path d="M11.1436 16.7003C10.9921 17.0089 10.8405 17.3174 10.6889 17.626C10.6016 18.6877 10.349 19.6995 9.60946 21.1333C9.47626 19.7767 9.39817 18.9418 9.31549 18.1069C9.74726 17.7303 9.73808 17.0679 10.225 16.723C10.5189 16.4372 10.8221 16.4372 11.1345 16.6958L11.1436 16.7003Z" fill="#FABA5D"/>
<path d="M23.068 36.2244C22.8154 36.5285 24.6527 36.8325 23.068 37.1365C21.9334 36.9005 20.7943 36.6691 19.6597 36.4332C19.6643 36.288 19.6643 36.1428 19.6689 36.0021C20.7989 36.0747 21.9334 36.1519 23.068 36.2244Z" fill="#F7A743"/>
<path d="M21.0194 28.4021C22.627 27.8985 23.3528 28.7606 24.1336 29.4412C22.9853 29.8949 22.2917 28.942 21.0194 28.4021Z" fill="#F6A33B"/>
<path d="M23.5411 23.5199C23.9591 23.3566 24.1658 22.499 24.7813 23.0481C25.4428 23.6425 24.4598 23.833 24.3449 23.8693C23.362 24.196 26.4671 25.4165 24.0096 25.3122C23.463 24.8176 22.8751 24.3276 23.5411 23.5199Z" fill="#F8AF4A"/>
<path d="M18.1715 18.4563C17.3539 19.1777 17.2298 20.303 16.1458 20.666C16.3938 19.2503 16.3938 19.2503 18.1715 18.4563Z" fill="#F59B2B"/>
<path d="M19.6138 30.9203C19.2234 31.6735 18.9064 32.1953 18.1439 31.8777C17.8729 31.7643 17.5881 31.4557 17.7948 31.1563C18.222 30.5392 18.8513 30.7706 19.6138 30.9203Z" fill="#F6A12C"/>
<path d="M11.139 16.7003C10.8359 16.7094 10.5327 16.7185 10.2296 16.7276C10.4592 16.1377 9.04907 15.1667 10.6705 14.9036C10.9829 15.4617 11.2125 16.0424 11.139 16.7003Z" fill="#F59D30"/>
<path d="M4.18012 24.0009C4.88749 24.7904 4.79103 25.3394 4.07906 26.0019C3.6427 25.3394 3.69782 24.7813 4.18012 24.0009Z" fill="#F8AC36"/>
<path d="M25.824 27.5899C26.1731 27.6716 26.6738 27.6852 26.5452 28.1889C26.3293 29.0192 25.5851 28.9511 24.9145 28.9511C24.8318 28.2478 25.5484 28.0618 25.824 27.5899Z" fill="#F8AB4A"/>
<path d="M14.2258 31.4784C14.2396 31.9684 14.0742 32.2452 13.7573 32.2906C13.3025 32.3541 13.0407 32.032 13.1188 31.6236C13.1601 31.3967 13.4633 31.0746 13.67 31.061C13.8675 31.0474 14.088 31.3695 14.2258 31.4784Z" fill="#F7A636"/>
<path d="M2.38871 28.629C2.3244 28.7288 2.22794 29.0328 2.10852 29.0419C1.73645 29.0736 1.61243 28.7469 1.5665 28.4429C1.52057 28.1344 1.5665 27.785 1.98909 27.8304C2.35656 27.8758 2.37952 28.2251 2.38871 28.629Z" fill="#F59B24"/>
<path d="M23.9867 31.669C24.6068 31.9231 24.9145 32.3813 24.9099 33.0483C24.1888 32.8578 23.1736 32.8623 23.9867 31.669Z" fill="#F8AD4D"/>
<path d="M10.2296 16.723C10.225 17.3764 10.1928 18.0116 9.32008 18.1069C9.28793 17.4309 9.25118 16.7503 10.2296 16.723Z" fill="#F59D30"/>
<path d="M6.53651 21.2422C5.95775 20.9337 6.07258 20.3801 6.04502 19.8765C7.32197 19.1687 6.79833 20.0534 6.6789 20.5798C6.63297 20.8021 6.58704 21.0199 6.53651 21.2422Z" fill="#F9B453"/>
<path d="M19.3979 43.0214C18.934 42.9533 18.4792 42.8489 18.5757 42.2409C18.5987 42.1003 18.9064 41.8643 18.9937 41.8961C19.5449 42.1048 19.3382 42.6175 19.3979 43.0214Z" fill="#F59E2C"/>
<path d="M19.2877 29.4003C19.1636 29.4911 18.9523 29.7315 18.8697 29.6952C18.6354 29.5909 18.4563 29.3686 18.2542 29.1961C18.3965 29.0509 18.5252 28.8059 18.6859 28.7878C19.0121 28.7515 19.1866 29.0056 19.2877 29.4003Z" fill="#F8AB4E"/>
<path d="M15.2868 35.7934C15.7967 35.7662 16.3158 35.6981 16.6465 36.2199C15.8886 37.0276 15.613 36.3243 15.2868 35.7934Z" fill="#FAB859"/>
<path d="M10.5419 31.4149C10.078 31.0837 9.8621 30.7479 9.93559 30.2851C9.94018 30.2533 10.2066 30.1989 10.2801 30.2533C10.5878 30.4802 10.7027 30.8023 10.5419 31.4149Z" fill="#F8AE4B"/>
<path d="M13.9364 18.0842C14.2304 18.0752 14.5198 18.0615 14.8137 18.0479C15.1123 18.3111 15.3374 18.6832 14.8275 18.8374C14.3131 18.9917 14.1293 18.4654 13.9364 18.0842Z" fill="#F8B667"/>
<path d="M13.9502 23.1343C13.8308 23.1933 13.6608 23.3385 13.4771 23.3475C13.2382 23.3611 13.0591 23.1615 13.1831 22.9392C13.2612 22.7985 13.5046 22.6896 13.6838 22.676C13.8859 22.6624 14.1201 22.7531 13.9502 23.1343Z" fill="#F8AF49"/>
<path d="M11.0012 21.9546C10.9691 21.8366 10.8313 21.6188 10.8864 21.4827C10.9553 21.3103 11.185 21.2059 11.3503 21.0698C11.4238 21.2558 11.5616 21.4419 11.5479 21.6233C11.5341 21.8321 11.4055 22.0589 11.0012 21.9546Z" fill="#F9B96F"/>
<path d="M33.178 20.7976C33.1871 20.421 33.2652 20.0807 33.6373 19.8855C33.9818 19.6723 34.4228 19.7903 34.7581 19.5543C34.8408 19.5089 34.9234 19.4681 35.0061 19.4273C35.7227 18.6151 36.6919 17.9027 37.0961 16.959C37.5784 15.8383 38.6303 15.4435 39.3055 15.6114C39.9669 15.7747 41.3358 16.0197 41.1107 17.4672C40.881 18.9463 42.0983 18.3792 42.8056 18.5153C43.0583 18.8057 43.0996 19.1051 42.8378 19.4182C42.6357 19.4953 42.429 19.5679 42.2269 19.6451C42.9572 21.0199 41.8227 21.2921 40.9637 21.7232C40.6513 21.9682 40.339 21.9863 40.0404 21.7005C39.7465 21.7005 39.4525 21.7005 39.1539 21.7005C38.7497 22.0862 38.6486 22.9346 37.7667 22.6125H37.7713C37.5003 22.431 37.5784 22.1043 37.4544 21.8638C37.2339 22.127 37.142 22.4582 36.9675 22.7441C35.0934 24.4456 34.7076 24.3004 33.4352 21.3965C33.3479 21.1923 33.3158 20.97 33.178 20.7976Z" fill="#F59F30"/>
<path d="M25.824 3.08838C26.0031 3.84611 25.3141 4.60838 25.8332 5.36158C26.3063 5.96958 26.761 5.39787 27.225 5.33889C28.3595 5.19823 28.6168 5.60205 28.0013 6.55489C27.3628 6.92242 27.055 7.53042 26.7886 8.17472C26.1364 8.81448 25.4152 8.6103 25.1672 7.93878C24.4827 6.08301 23.3252 6.75907 22.1585 7.22642C21.8462 7.44875 21.5108 7.53949 21.1388 7.37615C20.8816 7.03585 20.2201 6.6048 20.6794 6.28265C21.7819 5.50677 23.0175 5.08934 22.0529 3.25172C21.7819 2.72085 22.9991 2.82975 23.4676 3.14282C24.3036 3.70545 25.0569 4.05029 25.824 3.08838Z" fill="#83A739"/>
<path d="M21.1434 7.37161C21.4833 7.3217 21.8232 7.27179 22.1631 7.22188C23.0175 8.83263 21.9105 9.69472 20.707 10.0396C19.2417 10.457 19.2417 9.0232 18.9478 8.09758C19.9537 8.67382 20.4314 7.67561 21.1434 7.37161Z" fill="#F08D18"/>
<path d="M43.265 35.3079C42.5254 35.0901 42.2498 33.5157 41.005 34.5774C40.8994 34.6681 41.1107 33.8696 40.9821 33.493C42.2544 33.5021 42.7781 31.7779 44.1974 32.1318C44.7257 32.7625 44.3352 33.3659 44.1515 33.9785C43.8759 34.4367 43.784 35.0084 43.265 35.3079Z" fill="#F39020"/>
<path d="M39.6133 30.7524C39.2687 29.2506 41.3541 28.6471 40.9867 27.1362C41.5884 27.0046 41.2898 25.7115 42.0891 26.1108C42.654 26.3921 42.3784 27.1997 42.0615 27.7034C41.3633 28.8105 40.8672 30.0809 39.6133 30.7524Z" fill="#F8B14E"/>
<path d="M39.1447 9.44971C40.509 9.62666 41.3128 10.3163 41.3955 11.6866C40.5411 12.2538 40.5319 10.1938 39.6041 11.2646C39.4617 11.4416 39.4066 11.7138 39.1126 11.732C37.5876 10.9516 38.7727 10.2074 39.1447 9.44971Z" fill="#F6A337"/>
<path d="M33.6511 17.6078C33.7062 17.0089 33.8394 16.4508 34.5054 16.0697C35.4333 17.0906 34.8591 18.3202 35.0107 19.4273L35.0153 19.4227C34.5606 19.813 34.1012 19.7676 33.6465 19.4182L33.6511 19.4273C32.9713 18.8238 34.092 18.2158 33.6511 17.6078Z" fill="#F7AA46"/>
<path d="M30.0131 6.32349C29.4436 7.10391 31.8367 7.94785 29.9626 8.70558C29.3241 8.2337 28.6903 7.76182 28.0518 7.2854C28.0793 7.19012 28.1115 7.0903 28.1391 6.99501C28.5938 6.31441 28.9842 5.45232 30.0131 6.32349Z" fill="#A1992D"/>
<path d="M39.1447 33.9513C39.3055 33.1981 38.6349 32.4403 39.1493 31.6871C39.5122 32.5356 40.8948 32.3768 40.9821 33.493C40.3712 33.6473 39.7602 33.797 39.1447 33.9513Z" fill="#F28D1A"/>
<path d="M42.8378 19.4182C42.8286 19.1187 42.8148 18.8193 42.8056 18.5153C43.0353 18.1432 43.3293 17.5579 43.7656 17.8075C44.4363 18.1931 44.0642 19.0507 43.9494 19.5498C43.8299 20.0897 43.2328 19.4863 42.8378 19.4182Z" fill="#F8B048"/>
<path d="M34.556 8.08851C36.1407 7.22642 36.2188 9.3272 37.2982 9.44971C37.1834 10.094 36.9904 10.584 36.3612 9.79C35.8421 9.13663 35.3322 8.47872 34.556 8.08851Z" fill="#F8AC40"/>
<path d="M27.202 13.9825C26.7381 14.2729 26.5589 14.9762 25.8424 14.8945C25.801 14.2139 25.9021 13.5877 26.4854 13.1249C26.7289 12.9344 26.9677 12.7483 27.2571 13.0024C27.6246 13.3337 27.2985 13.6558 27.202 13.9825Z" fill="#F8AC42"/>
<path d="M32.7232 14.899C32.4752 14.3999 32.2317 13.9008 31.9607 13.3518C32.7921 13.1204 33.3433 13.4244 33.5454 14.1277C33.7062 14.6949 33.1871 14.8355 32.7186 14.8945L32.7232 14.899Z" fill="#F8AD47"/>
<path d="M15.2731 9.93066C14.8872 9.92612 14.5244 9.88075 14.3636 9.45878C14.7035 9.25914 14.7908 8.94606 14.7632 8.58308C14.5657 8.29722 14.065 8.13842 14.359 7.64839C15.6451 7.63931 15.7691 8.5014 15.76 9.46785C15.5946 9.61759 15.4338 9.77185 15.2731 9.93066Z" fill="#FBCC8A"/>
<path d="M45.1069 29.8677C45.3136 30.7207 44.6935 31.1699 44.1974 31.6781C43.5268 31.0201 43.7381 30.5982 45.1069 29.8677Z" fill="#F7AB4A"/>
<path d="M32.7508 17.1586C32.7186 17.5261 32.6497 17.8801 32.2593 18.057C32.1077 17.5171 31.1155 17.1405 31.607 16.5869C32.1261 16.0016 32.4338 16.8092 32.7508 17.1586Z" fill="#F9B45C"/>
<path d="M40.9913 27.1498C40.5044 27.0999 40.1323 26.9275 40.1001 26.3648C40.0634 25.7432 40.3206 25.3802 40.9775 25.3485C40.9821 25.9474 40.9867 26.5463 40.9913 27.1498Z" fill="#F8B14E"/>
<path d="M26.7886 8.17472C26.6738 7.358 26.8024 6.65018 27.6751 6.28719C27.9875 6.4823 28.3366 6.65925 28.1666 7.1266L28.0472 7.2854C27.6292 7.58033 27.2112 7.87979 26.7886 8.17472Z" fill="#A1992D"/>
<path d="M46.981 27.1498C46.8524 27.5627 47.1739 28.3204 46.4022 28.2478C45.9245 28.2025 46.0853 27.5672 46.0485 27.168C46.3609 27.0954 46.6595 26.6325 46.981 27.1498Z" fill="#F7AD43"/>
<path d="M28.6811 13.193C29.0485 13.3382 29.3058 13.5151 29.2001 13.8464C29.1542 13.9916 28.874 14.1821 28.7316 14.1594C28.4192 14.1141 28.2217 13.8418 28.2952 13.5288C28.3228 13.3881 28.5616 13.2883 28.6811 13.193Z" fill="#F8AC3F"/>
<path d="M45.1345 17.6124C45.0839 16.7593 45.5249 16.9181 46.0256 17.1904C46.0945 17.5261 46.6135 17.8891 46.2369 18.1387C46.0623 18.2476 45.5111 17.8029 45.1345 17.6124Z" fill="#F9B44B"/>
<path d="M46.8018 20.5344C46.1955 20.3529 45.603 19.999 45.9153 19.5271C46.3609 18.8465 46.5308 19.6315 46.7192 19.9082C46.8156 20.0489 46.7743 20.2803 46.8018 20.5344Z" fill="#F8AD3B"/>
<path d="M16.1734 11.6957C15.7186 11.7093 15.2593 11.7229 14.8045 11.732C15.2225 10.339 15.6957 10.9153 16.1734 11.6957Z" fill="#F8AE4A"/>
<path d="M46.9259 25.1806C46.7835 25.4846 46.5814 25.5254 46.4252 25.3576C46.3012 25.2214 46.2828 24.9991 46.2185 24.8131C46.3884 24.7677 46.6365 24.6361 46.71 24.6996C46.8432 24.8131 46.8708 25.049 46.9259 25.1806Z" fill="#F8AD3F"/>
<path d="M43.6738 23.1706C43.4625 23.3611 43.3155 23.4927 43.1685 23.6288C43.0629 23.4882 42.8516 23.3339 42.8699 23.2159C42.8975 23.0571 43.0996 22.9256 43.2236 22.7849C43.3614 22.8983 43.4946 23.0163 43.6738 23.1706Z" fill="#F9B351"/>
<path d="M32.714 14.89C32.4981 15.2756 32.3052 15.7112 31.7356 15.5978C31.653 15.5796 31.5289 15.3528 31.5611 15.2756C31.7908 14.7221 32.3144 14.9671 32.7232 14.899L32.714 14.89Z" fill="#F8AD47"/>
<path d="M40.0404 21.7005C40.3482 21.7096 40.6559 21.7141 40.9637 21.7232C40.9637 22.0136 40.9683 22.2994 40.9683 22.5853C40.3344 22.6261 39.5995 22.7622 40.0404 21.7005Z" fill="#F8AF4A"/>
<path d="M19.8435 12.6258C20.0042 12.3309 20.165 12.036 20.3258 11.7411C20.7438 12.0314 20.9321 12.4126 20.5462 12.8164C20.3028 13.0705 20.0272 12.8845 19.8435 12.6258Z" fill="#F8AB45"/>
<path d="M39.1126 11.732C39.2779 11.5777 39.4433 11.4189 39.6041 11.2646C39.5857 11.7819 40.6651 11.9498 40.0588 12.6576C39.7465 12.3491 39.4295 12.0405 39.1126 11.732Z" fill="#F9B760"/>
<path d="M22.1815 11.9997C22.2504 11.7184 22.3193 11.4643 22.5995 11.6322C22.751 11.7229 22.8843 11.9498 22.9026 12.1313C22.9256 12.3627 22.7327 12.5532 22.4892 12.4307C22.3376 12.3536 22.2642 12.1222 22.1815 11.9997Z" fill="#F7A83D"/>
<path d="M8.35088 7.74367C8.84237 8.96421 9.39357 9.52684 8.70457 10.1212C8.53462 10.2664 7.97423 10.2982 7.91911 10.1984C7.53786 9.5223 8.09825 9.0232 8.35088 7.74367Z" fill="#F7A73C"/>
<path d="M12.7008 6.50498C12.5033 6.55943 12.2415 6.69101 11.975 6.70009C11.6627 6.7137 11.3228 6.55489 11.5984 6.19191C11.7408 6.00134 12.1128 5.9242 12.393 5.90606C12.6181 5.89244 12.8064 6.07394 12.7008 6.50498Z" fill="#F9B549"/>
<path d="M14.359 7.64385C14.4922 7.95693 14.63 8.26546 14.7632 8.57854C14.2947 8.67836 13.8216 8.77364 13.2979 8.88708C13.353 8.13388 13.8629 7.89794 14.359 7.64385Z" fill="#F9B451"/>
<path d="M18.9018 4.38605C18.663 4.59931 18.5389 4.79895 18.3828 4.82617C18.2266 4.8534 18.0429 4.70366 17.8729 4.63107C18.0015 4.48134 18.1026 4.26808 18.2633 4.20456C18.3965 4.15465 18.5987 4.29077 18.9018 4.38605Z" fill="#F9B33B"/>
<path d="M37.7575 32.1454C38.4236 32.885 38.0837 33.7244 37.854 34.709C38.4144 34.3823 38.7819 34.1645 39.1493 33.9513C39.4525 34.4186 39.402 34.8905 39.1677 35.3624C39.3698 35.748 39.1447 36.0157 38.9059 36.2744C38.6854 36.415 38.4833 36.5829 38.2306 36.6736C37.4544 36.3742 37.1328 35.4667 36.0304 35.4304C35.4517 35.4123 33.2974 34.5003 35.7456 33.4022C36.4484 33.0846 36.7975 32.1272 37.7575 32.1454Z" fill="#F28D1A"/>
<path d="M34.115 38.0485C33.9588 38.0439 33.8027 38.0394 33.6465 38.0348C33.1917 37.4314 32.6543 36.8279 33.6649 36.2381C34.0094 36.1473 34.5238 35.866 34.6708 35.993C35.3139 36.5602 35.8559 36.7689 36.7746 36.4241C36.2693 37.8125 35.222 37.9713 34.115 38.0485Z" fill="#F8AF4F"/>
<path d="M33.1826 43.0168C33.178 42.7128 33.1734 42.4134 33.1688 42.1094C34.5973 41.5467 36.0993 41.1565 37.3901 40.2173C36.3198 41.6738 34.7121 42.2909 33.1826 43.0168Z" fill="#F7A944"/>
<path d="M35.4609 32.1182C34.8545 31.4421 35.0291 30.3214 35.9753 29.4366C36.6827 28.7742 37.4773 28.2025 38.2306 27.5945C37.8999 29.4502 35.5252 30.0945 35.4609 32.1182Z" fill="#F8AC48"/>
<path d="M38.2306 36.6736C38.3822 36.5239 38.5384 36.3696 38.69 36.2199C38.8048 36.3197 38.8462 36.4196 38.8094 36.5194C38.7727 36.6192 38.7313 36.6691 38.6946 36.6691C38.4925 38.3207 36.9399 38.5067 35.5206 39.7273C36.0304 37.7944 37.7897 37.8352 38.2306 36.6736Z" fill="#F8AC45"/>
<path d="M31.8045 38.9468C32.1031 38.9423 32.4063 38.9332 32.7048 38.9287C32.8656 39.0875 33.0218 39.2463 33.1826 39.4051C33.4444 40.2309 32.5487 40.2854 32.2639 40.7527C30.918 40.4487 30.8997 39.8135 31.8045 38.9468Z" fill="#F4951D"/>
<path d="M43.265 35.3079C43.4257 34.8587 43.5819 34.4095 43.7427 33.9649C44.0458 33.6881 44.349 33.6745 44.643 33.9785C44.6384 34.1191 44.6384 34.2598 44.6384 34.4004C44.3812 34.9222 44.1377 35.4486 43.8621 35.9567C43.6922 36.2653 43.4579 36.719 43.0675 36.3152C42.9296 36.17 43.1869 35.6527 43.265 35.3079Z" fill="#F8AE4E"/>
<path d="M32.2639 40.7527C32.1858 40.0494 32.8978 39.8679 33.1826 39.4051C35.1209 39.269 33.8624 40.1719 33.6281 40.7391C33.1734 40.7482 32.7186 40.7482 32.2639 40.7527Z" fill="#F7A945"/>
<path d="M30.4265 35.7889C30.1096 35.8206 29.7743 36.2653 29.4711 35.7616C29.9672 34.7544 30.8445 34.8043 31.9975 34.9858C31.359 35.3125 30.8951 35.5484 30.4265 35.7889Z" fill="#F8B153"/>
<path d="M38.69 36.6691C38.69 36.5194 38.69 36.3696 38.69 36.2199C38.8508 35.9341 39.0069 35.6482 39.1677 35.3624C39.944 36.1292 39.6133 36.5058 38.69 36.6691Z" fill="#F7B358"/>
<path d="M28.1712 7.12659C28.0058 6.84528 27.8405 6.56397 27.6797 6.28719C28.4147 5.10295 27.4592 5.78355 27.1653 5.85614C26.1915 6.09662 26.1961 6.11023 25.8332 5.36611C25.9848 5.36611 26.1318 5.36158 26.2833 5.35704C26.7335 4.87154 26.9126 3.95047 27.9232 4.35429C28.5019 4.23632 29.0761 4.05029 29.6595 4.01853C30.5506 3.96862 31.4922 4.32253 31.6116 5.17555C31.7357 6.06032 30.7573 6.20098 30.0131 6.32803C29.0164 5.7291 28.9521 7.23549 28.1712 7.12659Z" fill="#7C9C3A"/>
<path d="M34.3768 5.04396C34.2712 5.45232 33.9956 5.68373 33.5868 5.74271C33.279 5.78355 32.9115 5.75179 32.9437 5.34343C32.9759 4.90784 33.4122 4.79441 33.7567 4.6719C34.0737 4.55847 34.363 4.61292 34.3768 5.04396Z" fill="#F9B245"/>
<path d="M27.9186 4.34975C27.372 4.68551 26.8254 5.01674 26.2787 5.3525C26.2466 4.36337 26.5038 3.60109 27.6981 3.56026C27.7716 3.82342 27.8451 4.08659 27.9186 4.34975Z" fill="#83A739"/>
<path d="M41.051 9.42702C41.423 8.86439 41.8181 9.11394 42.1304 9.45424C42.4382 9.79 42.3371 10.1212 41.9145 10.3254C41.6251 10.0305 41.3404 9.73102 41.051 9.42702Z" fill="#FCCD80"/>
<path d="M44.643 33.9785C44.3444 33.9739 44.0412 33.9694 43.7427 33.9649C44.0412 33.3886 44.2755 32.7988 44.1974 32.1363C45.3274 32.5175 44.6522 33.3251 44.643 33.9785Z" fill="#F49622"/>
<path d="M21.2169 17.5987C21.6119 17.4717 21.7819 16.7775 22.4663 17.39C22.9899 17.8574 23.858 17.8347 24.446 17.1541C24.3404 16.7639 24.5011 16.6278 24.887 16.7003C25.5622 16.478 25.948 14.3228 26.9632 16.4009C27.3536 16.2012 27.7394 16.0061 28.1299 15.8065C27.3168 17.1677 28.0426 18.5289 28.1253 19.8901C27.9232 20.2485 27.7073 20.5798 27.2066 20.3347L27.2158 20.3438C26.8483 19.8946 26.3614 19.7948 25.8148 19.881C24.6527 19.999 25.0983 20.6433 25.3601 21.2286C25.3187 21.4963 25.1626 21.6551 24.8916 21.6959C23.8718 22.1043 22.8567 22.5671 22.5352 20.8974C22.4387 20.3892 21.9472 20.117 21.5108 20.2531C21.1066 20.3756 21.2858 20.9019 21.2582 21.2649V21.2694C20.0456 20.9473 20.5922 18.8828 18.9432 18.9872C19.1269 18.1886 18.2496 17.263 18.6676 16.9499C20.3166 16.115 19.3336 19.518 21.2169 17.5987Z" fill="#F39421"/>
<path d="M33.178 20.7976C34.1104 21.5462 35.47 21.9999 35.0383 23.6198C35.9615 23.6288 36.1958 22.7713 36.8572 22.6079C37.018 22.4491 37.1742 22.4627 37.3258 22.6261C37.3763 23.4927 35.2358 24.0916 36.995 25.2214C37.0823 25.2759 36.5541 25.7251 36.1361 25.6207C34.6846 25.2714 32.8978 22.3448 33.178 20.7976Z" fill="#F7A741"/>
<path d="M27.6476 25.3394C27.9461 25.1171 28.3917 24.9583 28.5249 24.6634C29.3333 22.8303 30.3071 23.4746 31.3314 24.4183C31.5198 24.8857 31.3039 24.9764 30.8905 24.8766C29.8386 25.2895 28.8189 25.8113 27.643 25.7659C27.5189 25.6661 27.4822 25.5708 27.5235 25.4801C27.5649 25.3848 27.6062 25.3394 27.6476 25.3394Z" fill="#F6A034"/>
<path d="M31.4692 28.2206C31.9515 26.7551 32.2868 25.8022 33.4168 25.3031C33.0493 26.2469 32.9437 27.3222 31.4692 28.2206Z" fill="#F7A83E"/>
<path d="M27.2066 20.3302C27.5144 20.1805 27.8175 20.0353 28.1253 19.8855C28.2952 20.2122 28.4881 20.5299 28.6214 20.8701C28.7592 21.2286 29.2644 21.7005 28.6305 21.9591C28.1345 22.1633 27.891 21.6188 27.6613 21.2467C27.5052 20.9427 27.3536 20.6387 27.2066 20.3302Z" fill="#F8AE4C"/>
<path d="M37.3212 22.6216C37.165 22.617 37.0088 22.6125 36.8526 22.6034C37.0088 21.7186 37.2339 20.8747 38.3041 20.4255C38.8324 21.3738 37.5233 21.8275 37.7713 22.6079C37.6197 22.6079 37.4727 22.6125 37.3212 22.6216Z" fill="#F9B55B"/>
<path d="M27.6476 25.3394C27.6522 25.4801 27.6522 25.6253 27.6384 25.7659C27.3582 25.961 27.2571 26.2015 27.4546 26.5055C27.6292 26.7777 28.2171 26.9774 27.7578 27.3494C27.5924 27.481 27.0964 27.2224 26.7519 27.1362C26.8483 26.3739 26.4349 25.5164 27.1974 24.8857C27.349 25.0399 27.5006 25.1897 27.6476 25.3394Z" fill="#F9B152"/>
<path d="M30.8905 24.8766C31.0375 24.7223 31.1844 24.5681 31.3314 24.4183C31.4692 24.5862 31.6851 24.7359 31.7219 24.922C31.8505 25.5209 31.8091 26.1017 31.1936 26.4556C31.0834 26.5191 30.8583 26.5418 30.7894 26.4783C30.1785 25.9157 31.0466 25.4256 30.8905 24.8766Z" fill="#F8B255"/>
<path d="M37.7667 22.6079C38.2307 22.3039 38.69 21.9999 39.1539 21.6959C38.8232 22.254 39.8429 23.0526 38.9426 23.4201C38.4052 23.647 38.0148 23.0934 37.7667 22.6079Z" fill="#F7A741"/>
<path d="M26.6141 32.8124C26.4763 32.944 26.3017 33.2162 26.0583 33.307C25.7275 33.434 25.4244 33.2253 25.5484 32.8714C25.6311 32.6354 25.9296 32.4222 26.1823 32.3087C26.4349 32.1998 26.5819 32.4131 26.6141 32.8124Z" fill="#FAB967"/>
<path d="M28.5938 33.9331C28.5157 33.4839 27.4868 33.493 28.0104 32.7852C28.0931 32.6717 28.4652 32.6354 28.6076 32.7216C29.2323 33.1028 29.0761 33.5247 28.5984 33.924C28.5984 33.9286 28.5938 33.9331 28.5938 33.9331Z" fill="#F8B156"/>
<path d="M33.6419 19.4227C34.0966 19.4227 34.556 19.4273 35.0107 19.4273C35.1393 21.2967 34.2344 20.1351 33.6373 19.8855C33.6373 19.7313 33.6419 19.577 33.6419 19.4227Z" fill="#F49622"/>
<path d="M29.7789 29.1689C30.1188 29.1054 30.2796 29.2551 30.2474 29.482C30.2198 29.6544 30.082 29.8767 29.9305 29.9584C29.6457 30.1127 29.5492 29.8495 29.5676 29.6499C29.5814 29.4729 29.7146 29.305 29.7789 29.1689Z" fill="#F8AC45"/>
<path d="M33.6465 17.6124C34.4779 18.2204 33.4536 18.8238 33.6465 19.4318C32.7829 18.8238 33.4122 18.2158 33.6465 17.6124Z" fill="#F49622"/>
<path d="M25.8148 19.8765C25.9756 19.5271 26.2007 19.155 26.6232 19.2549C27.1423 19.3774 27.1882 19.881 27.2204 20.3347C26.7059 20.3166 26.1547 20.4073 25.8148 19.8765Z" fill="#F8AE4C"/>
<path d="M24.887 21.6914C25.0431 21.5371 25.1993 21.3783 25.3555 21.2241C25.6449 21.3057 26.2053 21.2422 25.8837 21.7685C25.6173 22.2132 25.1901 22.1497 24.887 21.6914Z" fill="#FAB859"/>
<path d="M21.2536 21.2604C21.5568 21.2059 21.9518 20.7976 22.0988 21.4101C22.1355 21.5644 21.9656 21.9137 21.837 21.941C21.2995 22.0544 21.3041 21.6188 21.2536 21.2649V21.2604Z" fill="#F9B861"/>
<path d="M24.887 16.6958C24.74 16.8455 24.593 16.9998 24.446 17.1495C24.0739 17.1042 23.6284 17.0724 23.7248 16.5642C23.7708 16.3374 24.0693 16.0288 24.299 15.988C24.8043 15.8927 24.8502 16.3237 24.887 16.6958Z" fill="#F8AF4F"/>
<path d="M21.2169 17.5987C20.7346 17.5761 20.3258 17.4626 20.3855 16.8637C20.3947 16.7593 20.56 16.5778 20.6243 16.5915C21.1939 16.6958 21.1847 17.1632 21.2169 17.5987Z" fill="#F9B65D"/>
<path d="M23.5273 14.4453C23.463 14.7901 23.4033 15.135 23.339 15.4753C23.1644 15.3845 22.8888 15.3301 22.8337 15.1894C22.5719 14.5315 23.0864 14.5134 23.5273 14.4453Z" fill="#FAB965"/>
</svg>
