<svg width="21" height="43" viewBox="0 0 21 43" fill="none" xmlns="http://www.w3.org/2000/svg">
<path d="M0.58836 39.4707C0.196857 39.1787 0.325493 38.756 0.305918 38.3694C0.345069 35.5356 0.263972 32.7046 0.336679 29.8735C0.437352 29.5092 0.591157 29.2728 1.00224 29.5926C2.16836 30.4992 2.3725 32.2874 1.51119 33.5694C1.27629 33.9199 0.742165 34.5178 1.77965 34.6234C3.0017 34.782 4.13147 35.2631 5.30039 35.5968C5.91001 35.9083 6.24279 36.3477 5.91281 37.0457C5.57164 37.7715 5.96594 37.9189 6.58676 37.969C7.22994 38.0218 7.87313 37.9245 8.5219 38.0552C9.27974 38.2054 9.9481 38.1247 10.1299 37.1347C10.1914 36.8037 10.5354 36.5229 10.6137 36.1558C10.7758 35.3938 11.2568 35.5356 11.7686 35.7331C12.1517 35.8109 12.5628 35.7998 12.89 36.064C12.9906 36.2559 12.9431 36.4033 12.7501 36.5062C12.8424 36.534 12.9012 36.4561 12.9739 36.4283C14.428 35.8666 15.9549 36.4339 17.4286 36.1502C17.8229 36.0751 18.1193 36.8594 18.508 36.3977C19.0002 35.8109 19.7189 35.2909 19.7469 34.4621C19.7637 33.9365 20.2251 33.219 19.3749 32.8631C19.2016 32.7796 19.1121 32.6295 19.0422 32.4626C18.9555 32.2429 18.8884 32.0204 18.8632 31.7841C18.8464 31.5143 18.9415 31.2473 18.9023 30.9748C18.8129 30.7245 18.6311 30.5076 18.6451 30.2239C17.5824 29.6844 17.1657 30.5576 16.612 31.1333C16.2373 31.3502 15.8654 31.1889 15.4907 31.1333C15.3676 31.1027 15.2474 31.0582 15.1327 31.0026C15.0237 30.9442 14.9174 30.8747 14.8167 30.8024C13.8799 30.6188 12.9179 30.1683 12.0846 31.0638C12.0147 31.175 11.9392 31.2779 11.8581 31.3808C11.4889 31.8758 11.0471 31.8091 10.6808 31.4392C9.57617 30.3185 8.25904 30.5827 6.93911 30.8079C6.45812 30.9915 6.03865 31.3057 5.55486 31.4809C4.7355 30.5465 3.70361 30.0571 2.45639 30.0042C2.3753 29.8958 2.31377 29.7762 2.27742 29.6483C1.90269 28.2967 1.90549 28.2995 0.837245 29.1616C0.649882 29.3118 0.515652 29.1671 0.403794 29.0114C0.208042 27.7627 0.347865 26.5085 0.319901 25.2598C0.325493 25.1208 0.356254 24.9845 0.409387 24.8538C0.974271 24.3616 1.67338 24.1808 2.38368 24.0279C2.87866 24.0918 3.42117 24.0501 3.72878 24.5729C3.81827 24.687 3.43515 24.8649 3.73158 24.9094C4.25731 24.9873 4.78584 24.8816 5.30598 24.7621C6.03306 24.7732 6.73497 24.9484 7.44806 25.0513C10.155 25.4211 12.8368 25.1013 15.513 24.7621C16.2177 25.6575 16.7742 25.3182 17.2776 24.5479C17.5517 24.331 17.8481 24.2086 18.1976 24.3477C18.8129 24.9067 19.3694 25.6158 20.3677 24.9984C20.5243 24.9011 20.6166 25.207 20.6865 25.3739C20.7508 26.3166 20.7033 27.2566 20.7172 28.1966C20.7144 31.3725 20.7256 34.5484 20.7117 37.7215C20.446 40.2744 18.8884 41.2811 15.1831 42.2267C14.8782 42.3045 14.5399 42.2489 14.2323 42.3685C13.7345 42.5437 13.2144 42.527 12.697 42.5242C12.1881 42.4964 11.6903 42.5493 11.2149 42.7551C10.8569 42.8079 10.499 42.8051 10.1411 42.7634C9.68243 42.5993 9.21263 42.4825 8.72045 42.527C5.75901 42.3852 2.9262 41.918 0.851227 39.4957C0.795298 39.4346 0.686236 39.4429 0.58836 39.4707Z" fill="#FDE9C9"/>
<path d="M20.4515 28.0883C20.4459 27.0649 20.4375 26.0415 20.4319 25.0181C19.8894 23.7054 19.1623 22.4901 18.48 21.247C17.4957 19.4616 17.6103 17.6317 18.768 15.8658C19.9174 14.1166 20.1859 12.384 18.8352 10.4818C17.7977 9.02179 17.3726 7.19468 16.4666 5.62899C16.419 5.47881 16.4386 5.33698 16.5225 5.20627C16.8133 5.02273 17.0874 5.05054 17.3474 5.27024C18.3989 7.21137 19.0141 9.36386 20.3145 11.1937C21.0667 12.2505 20.8598 14.4864 20.0712 15.521C18.1808 18.0044 18.2116 19.5729 20.1691 22.1119C20.7871 22.9128 20.9912 23.8473 20.9912 24.8484C20.9856 28.7835 21.008 32.7186 20.9968 36.6537C20.9884 39.7156 19.9426 41.1172 17.0035 42.0266C16.3016 42.2435 15.5661 42.3575 14.8446 42.516C14.702 42.3297 14.4056 42.4549 14.2769 42.2379C15.4235 41.9738 16.5113 41.5427 17.6103 41.1311C19.1008 40.5749 20.1187 39.6572 20.4487 38.072C20.6808 34.746 20.6696 31.4171 20.4515 28.0883Z" fill="#F4D9B7"/>
<path d="M3.73138 5.52897C2.8449 3.99664 3.33988 1.83303 4.96182 1.19618C8.80974 -0.311113 12.7024 -0.564183 16.5112 1.42979C16.0833 2.36142 15.4485 1.77185 14.878 1.65505C14.0755 1.20453 13.2365 1.00151 12.3333 1.32133C11.9278 1.78853 11.1979 1.65505 10.8036 2.14728C10.7169 2.2474 10.6079 2.29468 10.4792 2.30302C9.36903 1.07382 8.07148 0.831874 6.59215 1.5744C6.18667 1.73291 5.79516 1.91368 5.41764 2.12782C4.53956 2.62283 4.85555 2.97602 5.56026 3.27636C6.06922 3.51831 6.68723 3.55168 7.05357 4.0606C7.10111 4.18575 7.09831 4.30811 7.04518 4.43048C6.78791 4.6613 6.3992 4.81982 6.56419 5.28702C6.58656 5.62352 6.4803 5.91831 6.29573 6.19362C6.1615 6.35214 6.0021 6.46616 5.79237 6.50231C5.27782 6.46616 4.87513 6.24646 4.62345 5.78482C4.53676 5.39826 4.63184 5.01727 4.64302 4.63349C4.71853 4.44438 4.88072 4.41935 5.0569 4.41657C4.97301 4.37208 4.89191 4.37764 4.81081 4.43604C4.7409 4.50834 4.65701 4.55006 4.56193 4.56396C4.23195 4.7197 4.57591 4.85597 4.57871 5.00058C4.62065 5.38157 4.3494 5.50116 4.07255 5.61796C3.94111 5.63743 3.82926 5.60962 3.73138 5.52897Z" fill="#6F9736"/>
<path d="M3.73138 5.52897C3.80409 5.49003 3.88246 5.4708 3.96635 5.46801C4.23201 5.4847 4.3243 5.65156 4.34108 5.88794C3.61959 7.6066 3.02395 9.39477 1.94731 10.941C0.971347 12.3426 0.951772 13.722 1.79071 15.1598C3.13021 17.1982 3.84331 19.3062 2.53736 21.6423C1.55301 22.4627 1.20905 23.6807 0.605012 24.7403L0.579844 24.7431C0.27503 27.2682 0.54349 29.8017 0.442818 32.3324C0.367313 34.2596 0.638569 36.1924 0.294605 38.1113C0.241473 38.0362 0.1408 37.9639 0.1408 37.886C0.0820749 32.9943 -0.236721 28.0997 0.339349 23.2191C0.400871 22.7046 0.722463 22.3014 1.06363 21.9065C2.57092 20.1489 2.77786 18.1688 1.44674 16.3167C-0.0074117 14.2921 -0.0857125 12.351 1.28735 10.2958C2.28568 8.8052 2.57644 6.94727 3.73138 5.52897Z" fill="#F4D8B4"/>
<path d="M14.2768 42.241C14.5033 42.2605 14.7187 42.2966 14.8445 42.5191C10.9183 43.3506 7.06197 43.1198 3.30633 41.7015C2.17376 41.2732 1.17543 40.5975 0.59097 39.4684C0.753164 38.8955 0.789518 38.8677 0.93773 39.0679C2.87847 41.6959 5.74204 42.0881 8.70069 42.2605C9.12575 42.5831 9.67945 42.2188 10.1073 42.5191C10.4736 42.5191 10.8428 42.5191 11.2091 42.5163C11.637 42.216 12.1907 42.5831 12.6157 42.2549C13.1666 42.2521 13.7203 42.2466 14.2768 42.241Z" fill="#F3D5AF"/>
<path d="M14.8558 1.37692C15.4095 1.38248 15.9408 1.98039 16.5141 1.42976C16.8497 1.42419 17.0119 1.64111 17.1321 1.91365C16.9392 3.68514 15.4347 3.79638 14.1791 4.22743C13.8351 4.25524 13.4939 4.34423 13.1472 4.25524C12.1908 3.72685 10.8988 3.59615 10.6527 2.20843C10.6527 2.11666 10.6527 2.02489 10.6555 1.9359C11.4637 1.50206 12.16 2.07495 12.8927 2.21399C13.5107 2.33358 14.1008 2.57274 14.7551 2.42535C14.6768 2.18062 14.4979 2.01098 14.4783 1.77182C14.5119 1.5549 14.6433 1.42976 14.8558 1.37692Z" fill="#78A037"/>
<path d="M0.294605 38.1113C0.300198 34.1372 0.297392 30.16 0.319764 26.186C0.322561 25.6993 0.135208 25.1574 0.579844 24.7431C0.59103 26.2225 0.602206 27.6989 0.613392 29.1784C0.6861 29.2451 0.708471 29.3091 0.6861 29.373C0.660932 29.437 0.635764 29.4704 0.613392 29.4704C0.610595 31.9593 0.616188 34.4483 0.593817 36.9373C0.588224 37.4212 0.778383 37.9663 0.311375 38.3667C0.294596 38.2833 0.291809 38.1975 0.294605 38.1113Z" fill="#EFD1A8"/>
<path d="M14.0086 3.88806C15.3508 3.70174 16.4722 3.16787 17.1321 1.91365C17.6523 2.46428 17.5321 3.19004 17.6663 3.84635C17.8005 4.18007 17.7111 4.70289 17.3699 4.36361C16.626 3.62387 16.1059 4.28853 15.4963 4.40533C15.3061 4.46373 15.1104 4.50544 14.9146 4.5416C14.579 4.60834 14.2435 4.70289 13.9386 4.44982C13.8436 4.24959 13.8492 4.06049 14.0086 3.88806Z" fill="#6D9535"/>
<path d="M15.3984 4.16914C16.1087 3.92163 16.833 2.96219 17.5097 4.21363C17.5628 4.09127 17.616 3.9689 17.6691 3.84654C17.9683 4.32209 17.9823 4.7309 17.3979 4.99787C16.8497 5.25928 16.8162 4.63356 16.4638 4.3944C16.4303 4.31653 16.31 4.62244 16.4527 4.50286C16.5254 4.44167 16.5561 4.4528 16.5897 4.50286C16.7826 4.80042 16.7547 5.08686 16.5673 5.37331C16.5785 5.43449 16.5869 5.49845 16.5953 5.55963C16.4834 5.63472 16.3604 5.65419 16.2261 5.62916C16.0947 5.40668 15.9017 5.41502 15.6333 5.57354C15.3201 5.75708 15.1131 5.60969 15.0181 5.27875C15.0097 4.86716 15.1048 4.48339 15.3984 4.16914Z" fill="#82AB44"/>
<path d="M16.5645 5.37585C16.5254 5.02267 16.489 4.66948 16.4415 4.23286C16.7994 4.51931 17.0958 4.75847 17.3951 4.99764C17.3783 5.08941 17.3614 5.17846 17.3474 5.27024C17.0874 5.30639 16.8246 5.3397 16.5645 5.37585Z" fill="#709538"/>
<path d="M16.3072 5.63761C16.4023 5.61258 16.4974 5.58755 16.5897 5.56252C17.7111 6.43019 17.795 7.8624 18.4605 8.97758C18.6954 9.3697 18.7485 9.89253 19.0366 10.2262C20.8599 12.3231 20.253 14.3282 18.9079 16.3528C17.781 18.0492 17.9404 20.5104 19.3973 22.1261C20.1803 22.9938 20.3789 23.9532 20.4264 25.0183C19.993 25.2047 20.3593 25.8443 19.8671 26C19.6854 25.0851 18.0019 25.7664 18.1976 24.451C18.0914 23.7919 18.7737 23.7919 19.0506 23.4415C19.2239 23.4054 18.9275 23.2913 18.9862 23.4665C19.0254 23.5833 18.9946 23.5611 18.8604 23.5249C18.743 23.4944 18.6003 23.5277 18.4689 23.4999C17.8453 23.3164 17.6579 22.8186 17.5684 22.2123C17.6048 22.076 17.2664 22.343 17.4426 22.2846C17.5125 22.2624 17.5209 22.3013 17.4873 22.4125C17.258 23.2163 16.4275 23.7168 16.3688 24.6068C13.8883 25.3687 11.3379 25.3159 8.78758 25.2881C8.18913 25.2714 7.57392 25.3632 7.02301 25.0295C6.86641 24.4566 7.24953 24.6318 7.4313 24.6262C5.47378 23.8003 5.39827 23.6668 6.20645 22.2791C5.35633 21.6617 4.32723 21.6005 3.51626 22.1233C2.83113 22.6962 2.3026 22.8353 2.24946 21.6672C3.30652 19.3646 2.88985 17.2538 1.42171 15.2737C1.53637 14.5674 1.59789 13.8415 2.68012 14.2642C3.18628 14.4617 3.63371 13.9611 4.14826 13.9528C5.88765 14.1919 7.5851 14.648 9.35526 14.7398C12.3027 14.8927 15.1467 14.4367 17.9376 13.5467C17.9795 13.5273 17.9991 13.505 17.9935 13.4772C17.6607 13.5746 17.3447 13.722 16.9952 13.7609C16.6792 13.7053 16.5645 13.302 16.215 13.3187C16.0751 13.1852 16.1255 13.3938 16.1618 13.3994C16.4387 13.4411 16.6792 13.5662 16.5002 13.9277C13.0857 14.8705 9.64888 15.0763 6.17569 14.2782C5.62479 13.6024 4.38316 13.5078 4.26571 12.6262C4.16783 11.8782 4.85856 11.1245 5.09066 10.3264C5.28362 9.67005 5.457 8.98314 6.05264 8.53262C7.31105 9.25568 8.26184 8.12104 9.37204 7.94305C10.2557 7.80122 9.57338 7.22278 9.45873 6.82788C9.54262 6.50528 9.80828 6.41907 10.0879 6.34676C10.3033 6.30227 10.5186 6.29114 10.7367 6.28558C11.8022 6.18825 12.9179 6.53309 13.9219 5.91849C14.6965 5.61814 15.541 5.9324 16.3072 5.63761Z" fill="#FDEACC"/>
<path d="M11.5477 36.1114C11.3295 36.1809 10.924 35.6219 10.9996 36.0085C11.1645 36.8483 9.74674 37.271 10.5353 38.1776C10.6053 38.2555 10.3899 38.4724 10.1606 38.4641C8.73722 38.4112 7.31382 38.3973 5.89322 38.3056C5.2025 38.2611 5.03751 37.8495 5.44299 37.2683C5.78137 36.7816 6.05262 36.306 5.34232 35.8972C5.44859 35.5385 5.60519 35.2103 5.90161 34.9628C6.66225 35.1352 7.53474 34.7598 8.19471 35.4272C8.44639 35.6608 8.43241 36.1503 8.9106 36.1531C9.01686 34.7292 10.046 34.4428 11.1953 34.3009C11.3939 34.2592 11.584 34.2759 11.763 34.3732C11.914 34.5151 11.9615 34.6958 11.9531 34.8961C11.9336 35.0824 11.886 35.2632 11.8385 35.4439C11.7937 35.6887 11.7071 35.9167 11.5477 36.1114Z" fill="#FBE6C1"/>
<path d="M11.5335 35.3995C11.6146 35.2744 11.6929 35.1493 11.774 35.0241C12.2605 34.5013 12.968 34.4957 13.5777 34.2649C14.1593 34.0369 14.7746 33.8756 15.25 33.4334C16.0106 33.1887 16.7908 34.137 17.543 33.3861C18.1247 33.108 18.6896 32.7826 19.3663 32.7993C19.481 32.6102 19.5593 32.2987 19.7187 32.2542C20.0263 32.1652 20.0599 32.549 20.0766 32.7103C20.1829 33.7866 20.4262 34.8823 19.5006 35.8C19.0252 36.2728 18.6672 36.8651 18.1443 37.5492C17.9653 36.6927 17.5123 36.1254 16.7321 36.4396C15.2528 37.0348 13.7231 36.0976 12.2661 36.6844C12.2186 36.7038 12.1291 36.6287 11.9753 36.5592C12.3249 36.4396 12.6073 36.3423 12.8869 36.245C13.3344 35.5191 14.1621 35.9418 14.7494 35.6359C14.8864 35.5636 15.1661 35.4913 14.7634 35.3912C14.6767 35.3689 14.5788 35.3856 14.4837 35.3884C13.9971 35.3773 13.5245 35.4273 13.0631 35.572C12.5374 35.6554 12.0117 35.7333 11.5335 35.3995Z" fill="#FAEED1"/>
<path d="M8.09957 35.5802C7.4452 34.9712 6.47483 35.7165 5.83164 35.0629C5.24439 35.4106 4.87526 35.1464 4.71306 34.5902C4.6012 34.2092 4.58722 33.8004 4.40266 33.4388C4.37749 33.3165 4.38308 33.1913 4.41943 33.0717C4.92839 32.6407 5.18566 32.0233 5.57157 31.5005C5.61352 30.7607 6.33221 30.872 6.7349 30.5828C6.86913 30.6328 6.99217 30.7023 7.10123 30.7941C7.32495 30.9943 7.61019 30.9888 7.88145 31.0388C9.60686 31.3614 9.77744 31.5728 9.70753 32.8548C9.62364 34.3677 8.48268 33.881 7.66892 34.0117C8.42675 34.7181 8.42675 34.7181 8.09957 35.5802Z" fill="#F9EBD0"/>
<path d="M2.26061 21.6727C2.52907 22.1761 2.83108 22.5432 3.37639 21.9508C4.49497 21.6533 5.56322 21.6254 6.46368 22.5098C6.12531 22.9297 5.47933 23.2662 6.43012 23.8141C6.90831 24.0894 7.47879 24.0977 8.0213 24.4509C7.69692 24.857 7.30821 24.6929 6.9978 24.7596C6.44131 25.199 5.88481 24.9098 5.32832 24.768C4.7131 23.5721 3.57214 23.5805 2.45915 23.5415C2.05367 23.6528 2.2662 23.9503 2.269 24.184C1.73767 24.4342 1.32379 25.0322 0.607901 24.7402C0.649848 23.447 1.07211 22.3568 2.26061 21.6727Z" fill="#FEEED7"/>
<path d="M0.610632 29.4703C0.610632 29.373 0.610595 29.2757 0.613392 29.1784C1.1559 28.8836 0.487588 27.8267 1.45796 27.8267C2.04521 27.8267 2.40875 28.2022 2.50942 28.75C2.58213 29.1533 2.53739 29.5788 2.54578 29.9931C2.64645 30.0905 2.68281 30.2073 2.66323 30.3435C2.31927 30.9581 2.42273 31.5422 2.71077 32.154C3.06033 32.8937 3.09668 33.6418 2.48426 34.3009C2.23258 34.4538 1.90259 34.465 1.71803 34.7319C1.69566 35.1046 1.49431 35.3883 1.12798 35.3521C0.742066 35.3132 0.86511 34.9238 0.881888 34.6847C0.926632 34.02 0.666561 33.3832 1.66769 32.9076C2.26893 32.6212 1.7432 31.442 1.40483 30.7245C1.19509 30.2796 0.879092 29.8847 0.610632 29.4703Z" fill="#FCEACF"/>
<path d="M6.75155 30.872C6.74596 30.7747 6.73757 30.6773 6.73197 30.58C8.17494 30.1768 9.62071 29.8263 10.8008 31.1529C11.1839 31.5839 11.458 31.5255 11.774 31.1334C12.4228 31.1362 13.0604 31.2808 13.7175 31.1723C14.1342 31.1028 14.576 31.1529 14.7019 31.7007C14.6515 32.218 14.2964 32.4321 13.8434 32.5434C12.6856 32.4627 11.9921 32.9021 12.0117 34.1536C11.9558 34.2815 11.8747 34.3844 11.7628 34.4678C11.581 34.4678 11.4021 34.4678 11.2203 34.465C11.0106 34.3538 10.8875 34.123 10.647 34.0562C10.3226 33.9533 9.89197 34.1981 9.66825 33.7642C10.1996 31.0444 10.4009 31.4059 7.4199 30.9944C7.19619 30.9638 6.96128 30.986 6.75155 30.872Z" fill="#F6ECCD"/>
<path d="M19.3663 32.7993C18.8798 33.2582 18.2198 33.3693 17.6465 33.6474C16.1924 33.5417 15.8092 32.6601 16.5587 31.1417C16.609 29.6177 18.0045 29.5954 18.8686 29.5231C19.6907 29.4536 19.0224 30.0571 18.8014 30.3491C18.6812 30.4881 18.5721 30.6383 18.3876 30.7051C18.533 30.8664 18.67 30.6411 18.8294 30.6995C18.9944 30.7579 19.2013 30.7217 19.288 30.9331C19.193 31.1584 19.0979 31.3808 19.0028 31.6061C18.8881 31.9287 18.6169 32.0705 18.3288 32.2124C18.6504 32.2235 19.014 31.887 19.302 32.2847C19.3216 32.4571 19.344 32.6269 19.3663 32.7993Z" fill="#6F9641"/>
<path d="M18.4828 23.3439C18.8883 23.4162 19.2127 22.9323 19.7748 23.2299C19.2183 23.661 18.7121 24.0559 18.2032 24.448C17.9235 24.5453 17.6439 24.6399 17.3642 24.7372C16.9252 24.9541 16.5393 25.413 15.9716 25.0292C13.5303 25.4742 11.0722 25.6939 8.58895 25.5687C8.14431 25.5465 7.65773 25.6994 7.2858 25.3045C7.70248 24.9513 8.27016 25.3574 8.68962 25.0209C11.3239 24.918 14.0197 25.3907 16.5337 24.1866C17.1405 23.8056 17.6998 23.3189 18.4828 23.3439Z" fill="#F3D7B1"/>
<path d="M16.5559 31.1417C16.8803 31.9927 15.9686 33.3748 17.6437 33.6474C16.8999 34.4122 16.1364 33.7864 15.3814 33.6724C14.7494 33.7809 14.1398 34.0534 13.477 33.9255C13.1526 33.8643 12.8226 33.767 12.803 33.3637C12.7891 33.0383 13.0547 32.8965 13.312 32.7853C13.7734 32.5823 14.3131 32.5906 14.7298 32.2764C15.1744 31.9176 14.9675 31.2696 15.3422 30.8803C15.7869 30.7941 16.1756 30.9443 16.5559 31.1417Z" fill="#F3E8BE"/>
<path d="M1.71242 34.732C1.48032 34.109 1.732 34.0089 2.27171 34.2175C2.72474 34.3287 2.66042 33.9866 2.69118 33.7391C2.72754 33.4332 2.80024 33.1885 3.19734 33.3665C3.72867 34.6875 4.06984 33.0939 4.52566 33.2803C4.90877 33.4722 5.07656 33.7948 4.9647 34.1952C4.73819 35.0128 5.32544 34.985 5.82881 35.0601C6.03295 35.5496 5.86246 35.8249 5.34232 35.8972C4.11188 35.5719 2.85617 35.3271 1.71242 34.732Z" fill="#73993F"/>
<path d="M11.5335 35.3995C12.0816 35.3578 12.6297 35.3189 13.1778 35.2772C13.6252 35.013 14.1677 35.3301 14.6124 35.0464C15.0206 35.1437 15.6834 34.7071 15.8009 35.2967C15.9239 35.9113 15.18 35.8501 14.7885 35.9558C14.1733 36.1199 13.5245 36.156 12.8869 36.245C12.4395 36.2005 11.9949 36.1588 11.5474 36.1143C11.5419 35.8751 11.5391 35.6359 11.5335 35.3995Z" fill="#769A44"/>
<path d="M2.50383 30.2129C2.51502 30.1378 2.52621 30.0655 2.54299 29.9904C4.06146 29.5622 4.86404 29.9626 5.57155 31.4977C5.46248 32.1986 5.50443 32.9911 4.53126 33.1552C4.28238 33.2303 4.03629 33.3304 3.77343 33.2108C3.44904 32.9105 3.69233 32.7325 3.93282 32.5962C4.21806 32.4349 4.51449 32.3042 4.45017 31.8954C4.29636 30.9916 3.51336 30.9999 2.86737 30.8136C2.62408 30.6885 2.35562 30.5717 2.50383 30.2129Z" fill="#6D9640"/>
<path d="M14.6237 31.6926C14.2042 31.1836 13.7009 31.5813 13.2367 31.5785C12.697 31.573 12.1321 31.7065 11.7713 31.1336C11.8161 31.078 11.8273 31.0168 11.8049 30.95C12.8396 30.1435 13.9721 30.3549 15.1103 30.6302C15.1243 30.7025 15.1327 30.7748 15.1383 30.8471C15.0739 31.192 15.2026 31.6564 14.6237 31.6926Z" fill="#749246"/>
<path d="M20.4515 28.0883C20.7983 28.3608 20.7143 28.7449 20.7143 29.1036C20.7171 31.7567 20.7171 34.4097 20.7143 37.06C20.7143 37.416 20.7926 37.8026 20.4458 38.0723C20.4486 34.7462 20.4515 31.4171 20.4515 28.0883Z" fill="#EDCCA3"/>
<path d="M8.68958 25.0239C8.29808 25.4856 7.75556 25.2186 7.28576 25.3076C6.53911 25.2158 5.79525 25.1241 5.0486 25.0323C4.5704 25.2464 4.20686 25.049 3.88527 24.7097C3.91044 24.3231 4.19847 24.2425 4.50608 24.1785C4.83047 24.1451 5.10453 24.248 5.34222 24.465C5.82881 24.9266 6.4441 24.6623 6.9978 24.7596C7.50676 25.199 8.1247 24.935 8.68958 25.0239Z" fill="#F0CEA2"/>
<path d="M4.53397 24.4339C4.34102 24.5257 4.15086 24.6175 3.9579 24.7092C3.86842 24.801 3.77334 24.8094 3.67546 24.7231C3.20566 24.5424 2.73585 24.3616 2.26325 24.1836C1.98081 24.0056 1.61447 23.8722 1.65922 23.4606C1.66481 23.4049 2.04513 23.391 2.24927 23.3549C3.05465 23.6274 4.0418 23.5106 4.53397 24.4339Z" fill="#F3D8B5"/>
<path d="M14.6237 31.6926C14.9341 31.4951 14.7468 30.9947 15.1411 30.8473C15.2082 30.8695 15.2753 30.8806 15.3452 30.8834C15.3452 31.4452 15.5298 32.0236 15.169 32.5492C14.6601 32.591 14.0644 33.0081 13.74 32.2322C14.0952 32.1516 14.4531 32.0708 14.6237 31.6926Z" fill="#4E7B2F"/>
<path d="M15.9716 25.0292C16.4358 24.9319 16.9 24.8345 17.3642 24.7372C17.0902 25.2322 16.9586 25.8969 16.1812 25.833C15.3926 25.769 15.527 25.4297 15.9716 25.0292Z" fill="#FDF1DA"/>
<path d="M19.2994 32.2847C19.2546 32.2875 19.2071 32.2986 19.1624 32.293C18.5779 32.2152 17.8229 33.2414 17.5572 32.4766C17.3307 31.8258 18.5248 31.9649 19.0002 31.6034C19.1008 31.8314 19.2015 32.0594 19.2994 32.2847Z" fill="#E4E6B9"/>
<path d="M15.1131 30.6301C13.9917 30.5523 12.8871 30.6107 11.8076 30.95C12.7948 29.6624 13.9609 30.2186 15.1131 30.6301Z" fill="#F3E8BE"/>
<path d="M19.2853 30.9331C19.151 30.922 19.0168 30.897 18.8826 30.9053C18.3876 30.9331 17.6549 31.6562 17.5039 31.1111C17.3166 30.4353 18.3317 30.5994 18.7987 30.3519C18.9609 30.5438 19.1231 30.7385 19.2853 30.9331Z" fill="#E4E5BA"/>
<path d="M3.67546 24.7231C3.77054 24.7176 3.86282 24.7148 3.9579 24.7092C4.32144 24.8149 4.68494 24.9237 5.04848 25.0294C4.48919 25.5272 3.90473 25.3353 3.41535 24.9793C3.19163 24.818 3.54123 24.7788 3.67546 24.7231Z" fill="#FEEED7"/>
<path d="M12.6129 42.2601C12.213 42.7162 11.6845 42.4715 11.2063 42.5215C11.609 42.0849 12.1375 42.3157 12.6129 42.2601Z" fill="#F4D9B7"/>
<path d="M10.1046 42.5216C9.62918 42.4715 9.10065 42.7135 8.69796 42.263C9.17336 42.313 9.70189 42.0822 10.1046 42.5216Z" fill="#F4D9B7"/>
<path d="M3.94385 14.1752C3.38736 14.3754 3.0378 15.2681 2.17649 14.4172C1.80177 14.0473 1.86608 15.1208 1.43263 15.2793C0.523786 13.8526 0.663609 11.9782 1.68432 10.7129C2.75815 9.37801 2.98746 7.60373 3.96063 6.20767C4.0613 6.06306 4.17316 5.92401 4.28222 5.78218C4.43882 5.65148 4.60661 5.6487 4.78558 5.73769C5.16031 5.93792 5.53783 6.13815 5.91255 6.33838C6.0328 6.28832 6.15585 6.26886 6.28728 6.27998C7.10385 6.43015 7.93719 5.90455 8.74536 6.33838C9.04738 6.47187 9.31584 6.64707 9.506 6.92517C11.1363 7.13653 9.39135 8.21277 10.11 8.66607C8.68944 7.68438 8.13014 8.81624 7.41705 9.55321C6.92487 9.35297 6.89411 8.52702 6.18381 8.61045C5.42318 7.55367 4.98413 7.55646 4.41086 8.76062C3.75649 10.1372 3.51879 11.6751 2.90077 13.0739C2.7973 13.1629 2.68265 13.2186 2.54003 13.1685C2.52046 13.3882 2.71341 13.2936 2.8001 13.3215C3.2727 13.4855 3.75649 13.6301 3.94385 14.1752Z" fill="#FCEBD1"/>
<path d="M10.6527 2.21146C11.2315 3.18758 12.4676 3.32107 13.1639 4.14424C12.8786 4.49465 12.4704 4.50855 12.0677 4.53358C11.2231 4.5753 10.3674 4.43625 9.53688 4.706C8.94683 4.78943 8.34839 4.9118 7.85062 4.43625C7.76952 3.80774 8.32882 3.96626 8.61685 3.81053C7.41717 3.69929 6.59781 3.20705 6.55027 1.89442C6.53629 1.71366 6.48875 1.53846 6.4496 1.36325C7.28294 0.731968 8.2589 0.851551 9.21809 0.818179C10.2276 0.782026 9.81373 2.11968 10.6527 2.21146Z" fill="#7EA839"/>
<path d="M7.01723 1.6548C7.12909 2.34448 6.73479 3.34008 8.02116 3.32339C8.48258 3.31783 8.92441 3.35398 9.29075 3.67102C9.31312 3.69048 9.31312 3.75723 9.29914 3.79338C9.28516 3.83231 9.24321 3.86291 9.21245 3.89628C8.39868 4.13822 7.60729 3.93799 6.81589 3.76279C6.34329 3.65711 5.89865 3.35398 5.3841 3.58481C4.97582 3.34564 4.3634 3.18991 4.36619 2.67542C4.36899 2.23325 4.836 1.96071 5.33656 1.93568C5.92662 2.0052 6.37964 1.29327 7.01723 1.6548Z" fill="#7BA239"/>
<path d="M14.5733 1.66051C14.7075 2.11103 15.2081 2.16943 15.6108 2.6422C13.7456 3.33189 12.2634 2.086 10.6555 1.93861C10.7953 1.12378 11.8831 1.87465 12.0481 1.10153C12.8815 1.31845 13.8434 0.973607 14.5733 1.66051Z" fill="#7EA839"/>
<path d="M12.0536 4.16884C12.4228 4.16049 12.7948 4.15259 13.1639 4.14424C13.4435 4.05803 13.7259 3.97139 14.0056 3.88796C14.0028 4.06872 14 4.2467 13.9972 4.42747C13.7315 4.78065 13.3036 4.78343 12.9373 4.91692C12.1907 5.20336 11.156 4.87799 10.7701 5.9292C10.7533 6.16559 10.784 6.41031 10.6414 6.62167C10.4624 6.62445 10.2835 6.63001 10.1045 6.63279C9.89756 6.44925 9.81087 6.21008 9.77452 5.94589C9.74935 5.82074 9.73537 5.6956 9.71859 5.57046C9.41937 4.70835 8.64754 5.1978 8.11342 5.0226C7.99038 5.01148 7.86733 4.98645 7.74709 4.95307C7.51218 4.87799 7.29686 4.76397 7.11229 4.59711C7.07873 4.54705 7.04518 4.49699 7.01162 4.44415C7.01721 4.34404 7.02001 4.24114 7.0256 4.14103C7.32762 3.92689 7.61006 3.91577 7.86454 4.21333C8.37909 4.60267 8.96914 4.37741 9.52563 4.42191C10.345 4.09653 11.2399 4.52758 12.0536 4.16884Z" fill="#628A35"/>
<path d="M14.5733 1.66051C13.7456 1.40744 12.7416 1.94974 12.0481 1.10153C13.0436 0.606517 13.9834 0.648337 14.8559 1.37974C14.7608 1.47151 14.6684 1.56596 14.5733 1.66051Z" fill="#86AF43"/>
<path d="M7.86466 4.21617C7.58501 4.19114 7.30537 4.16611 7.02572 4.14386C6.48041 3.95754 5.9351 3.77399 5.387 3.58766C6.07772 2.87295 6.74608 3.63216 7.42561 3.63494C8.02126 3.63772 8.6169 3.80458 9.21535 3.89914C8.88257 4.50539 8.30929 4.08546 7.86466 4.21617Z" fill="#D0E0B0"/>
<path d="M6.20081 6.07708C6.2875 5.8101 6.37699 5.54035 6.46368 5.27337C6.51401 5.23444 6.56155 5.19828 6.61189 5.15935C6.96984 5.07314 7.22431 5.25112 7.46201 5.48194C7.59624 5.63768 7.68573 5.8101 7.64658 6.02424C7.54031 6.22169 7.36414 6.31068 7.1544 6.35518C6.80205 6.38021 6.45249 6.40245 6.20081 6.07708Z" fill="#87AD4A"/>
<path d="M7.01723 1.6548C6.42159 1.52687 6.00504 2.47241 5.33948 1.93568C5.63031 1.59362 6.01622 1.42954 6.45247 1.36279C6.67898 1.38782 6.89978 1.42398 7.01723 1.6548Z" fill="#8FB350"/>
<path d="M4.46404 4.93374C4.03059 4.96711 3.90475 4.72794 3.95788 4.34695C3.98305 4.15506 4.09491 3.95761 4.28786 4.02713C4.40811 4.06885 4.46124 4.30801 4.54514 4.46097C4.6542 4.64173 4.68216 4.80859 4.46404 4.93374Z" fill="#97BD5A"/>
<path d="M4.46404 4.93374C4.49201 4.77522 4.51728 4.61655 4.54524 4.45804C4.63473 4.44691 4.72422 4.43857 4.8137 4.42745L4.80531 4.42188C4.79972 4.86128 4.79118 5.29829 4.78558 5.73769C4.6178 5.75159 4.45001 5.7655 4.28222 5.78218C4.17596 5.67651 4.07262 5.57369 3.96635 5.46801C4.13414 5.29003 4.29905 5.11172 4.46404 4.93374Z" fill="#688434"/>
<path d="M6.46368 5.27337C6.21759 5.11207 5.99382 4.84772 6.13085 4.60021C6.30982 4.2804 6.7096 4.49143 7.01162 4.44415C7.23534 4.99201 6.67896 5.02293 6.45804 5.276L6.46368 5.27337Z" fill="#7BAC3E"/>
<path d="M4.8137 4.42745C4.91717 4.25224 4.98429 3.94956 5.24995 4.09139C5.46528 4.20541 5.43731 4.53635 5.28071 4.66983C5.02903 4.88397 5.00107 4.44457 4.80531 4.42511L4.8137 4.42745Z" fill="#D5E4AD"/>
<path d="M6.20081 6.07708C6.56435 6.0882 6.93047 6.09915 7.29401 6.11027C7.08427 6.85001 6.58371 6.47736 6.15865 6.40228H6.02442L5.90696 6.33831C6.00764 6.2521 6.10573 6.16329 6.20081 6.07708Z" fill="#61832D"/>
<path d="M12.8787 4.68614C13.1891 4.32462 13.617 4.46923 14.0001 4.42751C14.3105 4.35521 14.6181 4.2829 14.9285 4.21059C15.1075 4.54153 15.4179 4.84466 15.1355 5.26459C15.9352 5.76239 15.5102 4.75845 15.8513 4.68892C16.0024 5.00318 16.1562 5.32058 16.3072 5.63761C15.7535 6.56368 14.7635 5.84025 14.0644 6.22681C13.8854 6.16563 13.7316 6.07108 13.6086 5.92368C13.3821 5.5705 13.1779 5.20063 12.9318 4.85856C12.9151 4.80016 12.8955 4.74454 12.8787 4.68614Z" fill="#759A38"/>
<path d="M15.1355 5.26459C15.0655 4.9114 14.9957 4.56143 14.9285 4.20825C15.0851 4.19434 15.2417 4.18322 15.4011 4.16931C15.3872 4.55309 15.5549 4.97815 15.1355 5.26459Z" fill="#A5C96A"/>
<path d="M2.8254 13.0597C3.04073 11.2827 3.55528 9.59181 4.43896 8.03724C4.70182 7.57838 5.14087 7.06667 5.78964 7.28081C6.46359 7.50329 6.08607 8.15126 6.18395 8.60734C5.43729 9.7837 5.42051 11.266 4.60115 12.4034C4.27117 12.8623 4.70742 12.8344 4.87241 12.9485C5.31704 13.2572 5.93786 13.3156 6.18395 13.8968C4.89758 14.2806 3.78738 13.9552 2.8254 13.0597Z" fill="#FEF7E9"/>
<path d="M2.8254 13.0597C3.88806 13.5658 5.04017 13.7104 6.18392 13.8995C8.43787 14.7199 10.7617 14.6615 13.0716 14.3166C14.2293 14.1442 15.4626 14.2416 16.5336 13.6158C16.6175 13.5185 16.707 13.5157 16.8021 13.6019C17.6298 13.5686 18.2926 13.0068 19.3357 12.6258C17.1796 14.9952 9.6767 15.7377 3.94676 14.1748C3.25883 13.8244 2.56811 13.474 1.75434 13.0596C2.22414 12.7148 2.52059 13.1431 2.8254 13.0597Z" fill="#F3D4AD"/>
<path d="M18.4828 23.3439C17.8928 23.7583 17.3892 24.3732 16.5363 24.1897C16.1448 23.8003 15.7589 23.3359 16.6006 23.1023C17.7304 22.7908 17.1236 22.2179 16.8551 21.6367C18.1611 21.5505 17.7138 23.0158 18.4828 23.3439Z" fill="#FDEED6"/>
<path d="M13.7371 5.82919C13.8462 5.9599 13.9552 6.09339 14.0671 6.22409C13.024 7.18632 11.7852 6.48551 10.6442 6.61899C10.5603 6.44379 10.4764 6.26581 10.3898 6.0906C10.8036 5.39258 11.1979 4.73348 12.1124 5.57334C12.543 5.96824 12.4088 5.14229 12.736 5.20903C13.1555 5.27856 13.3568 5.6957 13.7371 5.82919Z" fill="#6D9535"/>
<path d="M6.46368 22.5098C5.48772 22.0426 4.3971 22.1872 3.37639 21.9508C4.0783 20.3517 5.17994 22.0289 6.05523 21.6479C6.22861 21.5728 6.54741 21.8342 6.79909 21.9371C6.99764 22.0177 7.31643 22.0734 7.09272 22.3598C6.98925 22.4933 6.67901 22.4653 6.46368 22.5098Z" fill="#FEF6E6"/>
<path d="M16.7993 13.6047C16.7098 13.6103 16.6203 13.6158 16.5308 13.6186C16.2987 13.6158 16.0694 13.627 15.8373 13.6103C15.5772 13.5908 15.2081 13.6381 15.2696 13.2265C15.3171 12.9122 15.6024 12.7843 15.9072 12.915C16.2595 13.0652 16.7909 13.0068 16.7993 13.6047Z" fill="#FDF3E0"/>
<path d="M10.0765 5.80436C10.0849 6.07968 10.0961 6.35748 10.1045 6.63279C9.90595 6.73013 9.70455 6.82784 9.506 6.92517C9.24034 6.83062 8.97474 6.73599 8.70907 6.64144C8.61679 6.19092 9.01668 6.19648 9.25718 6.05465C9.53123 5.98235 9.74656 5.70147 10.0765 5.80436Z" fill="#6D9535"/>
<path d="M9.9954 33.8449C10.2415 33.5919 10.5687 33.7115 10.8567 33.6586C11.279 34.1564 11.0776 34.657 10.5435 34.6042C9.23476 34.4734 9.11172 35.152 9.19841 36.142C9.21799 36.3534 9.11452 36.5898 8.84606 36.6621C8.20846 36.5675 8.14431 36.0808 8.09957 35.5802C8.36803 34.7125 7.97916 34.4039 7.14022 34.4067C6.82981 34.4067 6.39357 34.3121 6.43831 33.9145C6.50822 33.3332 6.97523 33.628 7.30521 33.6558C8.1833 33.9701 9.10892 33.6113 9.9954 33.8449Z" fill="#75973D"/>
<path d="M8.84625 36.6594C8.91057 36.3507 9.04759 36.0392 9.03081 35.7361C8.97768 34.899 9.22097 34.4318 10.1718 34.5264C10.7814 34.5875 11.1923 34.3845 10.8567 33.6586C11.2818 33.7893 11.2065 34.1481 11.226 34.4652C11.0834 34.5792 10.938 34.7961 10.801 34.7905C9.79425 34.7488 9.22097 35.0353 9.45587 36.1949C9.50341 36.4369 9.15106 36.6288 8.84625 36.6594Z" fill="#F2E9C2"/>
<path d="M11.7656 34.4654C11.788 34.3403 11.8103 34.2152 11.8327 34.09C12.5122 34.0177 13.1862 33.9788 13.7371 34.5016C13.1219 34.8242 12.4619 34.9744 11.774 35.0216C11.7712 34.8381 11.7684 34.6518 11.7656 34.4654Z" fill="#F2E9C2"/>
<path d="M13.7372 34.5039C13.094 34.4093 12.3613 34.7125 11.8328 34.0923C11.8887 32.2151 11.8888 32.2155 13.74 32.2322C14.126 32.7467 14.6964 32.4297 15.169 32.5492C14.8083 33.0137 14.2377 32.8186 13.7847 32.9883C13.4771 33.1023 12.8619 32.8993 12.9318 33.3887C13.0129 33.9477 13.5917 33.6084 13.9525 33.6112C14.4307 33.614 14.9229 33.2441 15.3843 33.6752C15.0571 34.3899 14.2992 34.2536 13.7372 34.5039Z" fill="#71983E"/>
<path d="M17.0902 35.5468C16.8245 35.5551 16.5756 35.5523 16.5197 35.2547C16.4666 34.9794 16.6679 34.8348 16.8888 34.7458C17.5796 34.4733 18.2759 34.2147 18.9694 33.9532C19.249 33.8476 19.5734 33.5222 19.7832 33.995C19.923 34.312 19.6294 34.5039 19.3973 34.6457C18.6786 35.0879 17.8816 35.3437 17.0902 35.5468Z" fill="#769C42"/>
<path d="M14.6123 35.0438C14.1677 35.3275 13.6727 35.2997 13.1777 35.2746C13.6 34.8519 14.1257 35.0661 14.6123 35.0438Z" fill="#F2E9C2"/>
<path d="M9.9954 33.8449C9.09494 33.8588 8.17211 34.1509 7.30521 33.6558C7.57926 33.6531 7.92062 33.7505 8.11078 33.6253C8.49389 33.375 9.32444 34.3539 9.34122 33.1331C9.35241 32.271 9.61527 31.4089 8.21704 31.4756C7.70529 31.5006 6.95864 31.7259 6.74891 30.8721C7.80876 30.3326 8.88819 30.7915 9.93407 30.9027C10.5633 30.9695 10.2529 31.7259 10.3396 32.1875C10.4598 32.8049 9.81922 33.2359 9.9954 33.8449Z" fill="#799D44"/>
<path d="M3.68404 33.0412C3.96649 33.0802 4.24893 33.1191 4.52857 33.158L4.52566 33.2803C4.45854 33.3387 4.37757 33.3889 4.32723 33.4584C4.05877 33.8338 4.52578 34.6653 3.77633 34.6598C2.98493 34.6542 3.33169 33.8032 3.11357 33.3583C3.07721 32.8438 3.37084 32.9244 3.68404 33.0412Z" fill="#DADFB4"/>
<path d="M4.53397 24.4339C3.80689 24.0056 2.85901 24.0393 2.25218 23.3552C3.75947 22.9436 4.82492 23.3274 5.34227 24.462C5.07101 24.4537 4.80243 24.445 4.53397 24.4339Z" fill="#FFFBF4"/>
<path d="M3.68404 33.0412C3.45474 33.0746 3.20281 33.0717 3.11332 33.3554C2.52886 33.347 3.2867 34.6346 2.27438 34.2175C2.76376 33.5028 2.85045 32.8465 2.29955 32.0594C1.89966 31.4921 1.83548 30.7608 2.50383 30.2129C2.63527 30.5021 2.89799 30.5716 3.18044 30.6105C3.08256 31.7952 3.71736 32.1151 4.76882 31.9399C5.29735 33.1774 3.89098 32.524 3.68404 33.0412Z" fill="#76A144"/>
<path d="M4.76901 31.943C4.31039 32.3741 3.83779 32.7023 3.23655 32.1572C2.68845 31.6594 2.7276 31.1449 3.17782 30.6137C4.15379 30.5331 4.72986 30.9196 4.76901 31.943Z" fill="#F0E7CD"/>
<path d="M9.56477 6.35748C9.26275 6.40197 8.91881 6.32441 8.70907 6.64144C7.90649 6.06856 6.95848 7.0277 6.16149 6.40197C6.53901 6.30742 6.99763 6.51877 7.29685 6.10997C7.38913 6.00985 7.48141 5.90974 7.5737 5.80962C7.48701 5.58436 7.61564 5.44809 7.76945 5.32017C8.52449 4.59711 9.10615 4.98923 9.65426 5.60939C9.71298 5.8708 9.7018 6.12109 9.56477 6.35748Z" fill="#789F3C"/>
<path d="M12.0536 4.16884C11.2566 4.70279 10.3674 4.33318 9.5257 4.42495C10.3255 3.90769 11.2147 4.26895 12.0536 4.16884Z" fill="#6D9535"/>
<path d="M12.8842 5.27604C12.5067 6.11868 12.4647 6.16874 11.7572 5.57639C10.9127 4.8728 10.9742 6.27971 10.3898 6.0906C10.5184 4.39142 11.9166 4.92007 12.8786 4.68369L12.901 4.72818C13.0604 4.91729 13.038 5.10084 12.8842 5.27604Z" fill="#7BA142"/>
<path d="M9.53406 5.55124C9.36348 5.61243 9.19289 5.67639 9.01951 5.73757C8.75944 4.84765 8.2449 5.53456 7.83941 5.54846C7.6129 5.27871 7.62968 5.00617 7.82822 4.73085C8.33159 4.72807 8.83495 4.73919 9.33831 4.71973C9.97031 4.6947 10.1297 5.03954 10.071 5.58184C9.88642 5.7042 9.72422 5.37882 9.53406 5.55124Z" fill="#6D9535"/>
<path d="M6.45804 5.276C6.6426 4.9979 6.82705 4.72225 7.01162 4.44415C7.23813 4.44137 7.44521 4.48044 7.58224 4.68345C7.55987 5.00049 7.60741 5.33977 7.26065 5.53444C6.99219 5.45101 6.7265 5.36499 6.45804 5.276Z" fill="#6F9736"/>
<path d="M7.26068 5.53739C7.30822 5.23148 7.2411 4.88107 7.58227 4.6864C7.66337 4.70587 7.74433 4.71973 7.82822 4.73085C7.83102 5.00339 7.83661 5.27593 7.83941 5.54846C7.74992 5.63746 7.66057 5.72371 7.56829 5.81271C7.46762 5.72093 7.36415 5.62916 7.26068 5.53739Z" fill="#AECA82"/>
<path d="M9.53406 5.55124C9.56762 5.43166 9.60408 5.31493 9.63763 5.19535C9.78305 5.32327 9.92567 5.4512 10.0711 5.57912C10.0739 5.65421 10.0767 5.72652 10.0767 5.8016C9.90609 5.98515 9.73551 6.17147 9.56493 6.35502C9.55374 6.08805 9.54525 5.821 9.53406 5.55124Z" fill="#8EB256"/>
<path d="M12.8842 5.27604C12.8898 5.09527 12.8926 4.91171 12.8982 4.73094C13.6113 4.76988 13.6085 5.34832 13.7343 5.82943C13.0939 6.19096 12.9597 5.78218 12.8842 5.27604Z" fill="#98B95C"/>
</svg>
