<svg width="45" height="55" viewBox="0 0 45 55" fill="none" xmlns="http://www.w3.org/2000/svg">
<path d="M37.4514 4.59886C38.285 3.48271 39.0939 2.34537 39.9663 1.261C40.5668 0.512193 41.3333 0.00356747 42.3576 3.53494e-05C43.7704 -0.0070289 44.6287 1.04554 44.2402 2.39835C43.8623 3.70877 43.177 4.83904 42.0573 5.66909C39.9098 7.54465 38.2391 9.85113 36.3706 11.9739C35.5724 12.8817 34.9825 13.9943 33.8769 14.6124C33.6474 14.6513 33.4319 14.5877 33.22 14.5135C32.8314 14.3263 32.3864 14.7961 32.012 14.4146C31.9378 14.2769 31.8954 14.1285 31.8778 13.9696C32.9762 11.1792 34.9613 8.93631 36.519 6.4285C36.8757 5.8457 37.462 5.37593 37.4514 4.59886Z" fill="#EADCCA"/>
<path d="M35.4063 32.5235C34.9083 34.6181 35.0213 36.8186 34.3149 38.8743C33.831 39.2522 33.34 39.2805 32.842 38.9131C32.4888 38.1149 31.853 38.1078 31.1395 38.3091C30.7333 38.2491 30.3024 38.1749 29.9633 38.4539C29.0414 39.2098 28.395 38.8107 27.8193 38.0089C27.5509 37.9029 27.2753 37.8605 26.9857 37.8747C26.848 37.8994 26.7102 37.9206 26.576 37.9489C26.2016 38.0654 26.0426 38.3445 25.9967 38.7153C25.8872 39.2451 25.64 39.729 25.4846 40.2447C24.9088 42.2404 22.9308 41.9331 21.5498 42.5724C21.0871 42.7879 20.5431 42.3428 20.2464 41.8554C19.9144 41.315 20.3594 40.9829 20.635 40.6262C20.8893 40.3012 21.1153 39.9586 21.3343 39.6231C21.3661 39.4924 21.6275 39.4818 21.5321 39.2699C21.4438 39.337 21.352 39.397 21.2531 39.4677C21.1189 39.5489 20.9846 39.616 20.8433 39.6725C20.3736 39.8421 19.9109 39.9763 19.4517 39.6619C19.4058 37.7299 19.4058 37.7299 21.7794 37.3731C22.175 37.3307 22.5423 37.1859 22.9061 37.0411C23.0615 36.9811 23.3123 36.8574 23.3724 36.9245C23.9799 37.6062 24.4108 36.9811 24.8912 36.7409C25.4351 36.6208 25.8908 36.2428 26.4594 36.1969C26.6996 36.2005 26.9327 36.5254 27.0493 36.4442C27.5791 36.0733 26.8091 36.1899 26.8162 35.9214C26.8268 35.5329 26.9751 35.2609 27.2294 35.0066C29.6631 33.9364 32.3439 33.4666 34.5762 31.8948C35.0778 31.5451 35.6677 31.6052 35.4063 32.5235Z" fill="#5D90B9"/>
<path d="M3.14745 33.5975C2.89313 32.1458 2.1302 31.019 1.2401 29.8323C-1.03105 26.8017 -0.0915103 22.7327 3.31346 20.3132C7.2871 17.491 11.7835 16.1453 16.6366 15.9263C17.0534 16.3325 17.7281 15.7497 18.106 16.3078C17.8305 17.2685 16.9969 16.9895 16.3505 17.0672C12.6453 17.5051 9.05669 18.3034 5.7259 20.0801C4.22828 20.8783 3.05208 22.0051 2.109 23.3685C0.738539 25.3465 0.936338 27.7094 2.51166 29.5497C4.63447 32.0292 7.39306 33.3467 10.5331 33.9896C14.369 34.6253 18.1872 35.4165 22.1114 35.1834C22.6872 35.1481 23.277 35.1764 23.8174 35.4413C24.0294 35.5508 24.1141 35.7238 24.0682 35.957C23.4501 36.6916 22.5812 36.508 21.79 36.5433C18.1731 36.7093 14.5809 36.4832 11.0311 35.745C8.80944 35.2258 6.67251 34.4699 4.6486 33.4174C4.10465 33.1101 3.61369 33.2619 3.14745 33.5975Z" fill="#BFCAD0"/>
<path d="M33.1881 16.2445C33.0892 17.0639 31.6057 17.2123 32.1744 18.3496C32.0684 18.6075 31.8353 18.7417 31.641 18.9112C31.4962 19.049 31.3584 19.1903 31.2278 19.3422C31.0088 19.6283 30.7756 19.8967 30.426 20.0274C29.4582 20.6031 29.1544 21.8146 28.176 22.3727C27.4131 22.5317 27.625 23.0544 27.7451 23.5454C27.738 24.605 27.1835 25.6152 27.4554 26.7031C26.6713 28.2148 25.2443 27.6179 24.4249 27.1835C22.7471 26.2969 21.0729 26.2475 19.3104 26.3499C19.1267 26.2863 19.0172 26.1592 18.9748 25.9684C19.2291 25.0289 19.879 24.492 20.7762 24.2094C23.0791 24.2553 24.7958 23.1498 26.1874 21.4261C26.6254 20.8822 26.9786 20.257 27.632 19.9144C28.1477 19.6954 28.4692 19.2856 28.7023 18.7947C28.78 18.6534 28.8754 18.5262 28.9778 18.4026C30.2494 17.5902 31.535 16.7955 32.6795 15.7959C32.962 15.8065 33.0998 15.9972 33.1881 16.2445Z" fill="#E7DAC8"/>
<path d="M32.8666 38.5035C33.2446 39.0333 33.8168 38.8036 34.3149 38.8743C34.2901 39.6231 34.3501 40.3861 33.9828 41.0854C33.9369 41.0501 33.8803 41.0254 33.8521 40.9795C33.679 40.7287 33.8415 40.4179 33.7143 40.16C33.7708 40.4391 33.7673 40.711 33.6225 40.9654C32.9902 41.1526 33.3435 41.5411 33.4424 41.8837C33.5307 42.4276 33.3541 42.9327 33.2198 43.4378C33.0008 44.2679 32.743 45.1297 31.7646 43.9783C31.3231 44.4516 30.5389 44.116 30.1328 44.6847C29.829 45.105 29.6171 45.6172 29.0661 45.8079C28.8188 45.8715 28.5751 45.8573 28.3349 45.769C27.8863 44.8401 26.8232 44.3738 26.5017 43.346C26.4276 43.1977 26.4028 43.0387 26.4205 42.8762C26.9538 41.9296 28.07 42.5513 28.7552 42.0038C29.663 41.6259 30.0056 40.7216 30.5884 40.0435C31.2277 40.1035 31.7187 39.9764 31.6728 39.1746C31.9624 38.7542 32.2344 38.3057 32.8666 38.5035Z" fill="#6394BA"/>
<path d="M31.4643 18.727C31.6127 18.4374 31.8883 18.3814 32.1744 18.3496C34.5833 19.4199 36.5471 21.0088 37.8045 23.3541C38.9383 25.4734 38.4367 28.617 36.6177 30.655C36.102 31.2308 35.7523 31.863 35.4097 32.5235C35.3038 32.2904 35.2578 31.8136 34.887 32.1067C32.6299 33.9116 29.8572 34.4485 27.2223 35.3245C26.8267 35.5682 26.4487 35.8402 26.0037 35.9885C25.3396 36.1263 24.6791 36.2287 24.0893 35.7589L24.0257 35.6424C24.2023 34.7346 25.0182 34.7629 25.6505 34.5721C27.3388 34.0671 29.0907 33.8021 30.7226 33.0993C31.588 32.7248 32.4215 32.2975 33.2269 31.8065C38.4085 28.6452 38.6487 23.5307 33.3222 20.2565C32.6405 19.8432 31.7716 19.6101 31.4643 18.727Z" fill="#C3CDD4"/>
<path d="M28.9885 45.5788C29.7903 45.1126 29.5783 43.2476 31.2314 43.954C31.3585 43.5266 31.4821 43.0957 31.6093 42.6577C32.6442 42.8838 31.7188 43.7915 32.3263 44.4167C33.1493 43.6255 32.8244 42.4953 33.1988 41.6511C33.008 41.4144 33.0116 41.1919 33.2411 40.9835C33.7533 40.6515 33.4177 40.0334 33.7144 39.5777C34.1206 40.0475 33.8133 40.6091 33.9758 41.0859C33.9546 41.2873 33.9299 41.4921 33.9087 41.6935C33.5202 42.2621 33.937 42.965 33.6014 43.5443C33.6473 43.6361 33.6367 43.7244 33.5767 43.8057C33.114 44.4838 33.6226 45.3104 33.2447 46.0027C33.2305 46.7055 33.2341 47.412 32.8632 48.0477C32.5948 48.2879 32.2592 48.2703 32.1497 47.9736C31.8848 47.253 31.2985 47.3166 30.7369 47.2813C30.3307 47.1753 30.0375 46.9351 29.8715 46.5501C29.7973 46.2146 29.543 46.1263 29.2392 46.098C29.0309 45.985 28.8684 45.8543 28.9885 45.5788Z" fill="#5C8EB7"/>
<path d="M3.14745 33.5975C3.06621 32.2023 3.88932 32.6866 4.58515 32.9056C4.49331 34.654 5.2174 36.3212 5.09024 38.0731C5.08671 38.5182 5.19267 38.9491 5.31277 39.3729C5.57767 40.4396 5.28804 41.5558 5.63419 42.6119C6.13222 44.7241 6.70089 46.8257 6.57727 49.0298C6.45717 49.3017 6.26291 49.4889 5.96974 49.5631C4.83593 47.8889 4.99487 45.8544 4.71231 44.0212C4.18249 40.5562 3.62075 37.0802 3.14745 33.5975Z" fill="#6192B8"/>
<path d="M29.7515 51.9504C28.3387 53.4374 26.4101 53.7483 24.5487 54.1545C21.9243 54.7267 19.2717 55.0092 16.5944 54.4547C16.4495 54.1368 16.6403 53.9673 16.8769 53.8154C17.2054 53.667 17.5551 53.6352 17.9083 53.6211C18.0778 53.607 18.2474 53.607 18.4169 53.6105C18.7454 53.6105 19.0774 53.6176 19.4095 53.607C20.6351 53.6741 21.61 52.678 22.8462 52.7805C22.984 52.8794 23.2206 53.0772 23.2701 53.0242C24.8277 51.3464 27.2084 53.0348 28.8261 51.6572C28.9956 51.6325 29.1652 51.6396 29.3347 51.6678C29.5078 51.7173 29.642 51.8162 29.7515 51.9504Z" fill="#5F90B7"/>
<path d="M30.7439 46.9809C31.9237 46.391 32.2027 47.6096 32.8703 48.044C32.9268 49.252 32.238 50.0821 31.4539 50.8697C31.03 50.9051 30.6168 50.8768 30.2671 50.5942C29.7373 50.0256 29.3593 49.086 28.3068 49.8454C28.0454 50.0326 27.7134 49.9902 27.5262 49.7147C27.3036 49.3898 27.3496 48.9695 27.6003 48.7293C28.4869 47.8745 29.2534 46.7619 30.7439 46.9809Z" fill="#6D9BBF"/>
<path d="M37.4514 4.59886C38.1049 5.41478 37.2961 5.82784 36.95 6.34706C35.2581 8.88666 33.3048 11.2638 32.164 14.1425C31.3869 15.8697 29.9281 17.1236 28.9815 18.7342L28.9851 18.7307C28.8826 18.8508 28.759 18.8967 28.6036 18.8543C28.4023 18.7519 28.2539 18.5965 28.1656 18.3845C28.1197 18.0808 28.2433 17.8335 28.4058 17.5933C28.5541 17.3638 28.7696 17.1907 28.9603 16.9999C31.4434 13.3301 33.923 9.66019 36.4131 5.99738C36.7381 5.52054 37.1053 5.0651 37.4514 4.59886Z" fill="#E5D7C3"/>
<path d="M5.96977 49.5663C6.10752 49.4109 6.24528 49.2555 6.38303 49.1036C6.90225 48.92 7.05767 49.3897 7.34024 49.6299C7.91244 50.2657 8.48464 50.9015 9.25465 51.3147C9.46304 51.4242 9.67144 51.5337 9.88336 51.6397C11.2503 52.5616 12.8574 52.6534 14.4045 52.943C14.9696 53.1232 15.4641 53.4941 16.0822 53.5364C16.2341 53.5753 16.3471 53.6671 16.4284 53.8014C16.4743 54.0345 16.4496 54.2535 16.273 54.4301C12.8645 54.2747 9.71029 53.4163 7.08592 51.1063C6.60909 50.6825 6.11812 50.241 5.96977 49.5663Z" fill="#5F90B7"/>
<path d="M33.1881 16.2445C33.0786 16.1315 32.9692 16.0144 32.8597 15.9014C32.45 15.1031 32.9127 14.7499 33.5767 14.4956C36.2929 11.9419 38.4687 8.91483 40.9271 6.13505C41.2344 5.78537 41.3439 5.02597 42.0538 5.66528C39.0974 9.19387 36.1445 12.7194 33.1881 16.2445Z" fill="#E0CFBD"/>
<path d="M28.9639 17.0039C28.9709 17.3041 28.8826 17.5549 28.5965 17.6962C26.615 18.173 24.8278 17.1805 22.9381 16.958C21.7018 16.5624 20.4197 16.8238 19.1658 16.7249C18.7525 16.6931 18.3604 16.6189 18.0743 16.2798C17.5869 16.2056 17.0253 16.4317 16.6403 15.9301C16.8628 15.9195 17.0853 15.9089 17.3079 15.8983C18.6289 15.637 19.9464 15.6546 21.2674 15.8877C23.9165 15.6617 26.4208 16.4705 28.9639 17.0039Z" fill="#BDC5CC"/>
<path d="M30.4013 50.5163C30.7827 50.541 31.2066 50.4459 31.4539 50.8697C31.136 51.6256 30.3271 51.6042 29.7514 51.9538C29.6136 51.9468 29.4758 51.9397 29.3346 51.9326C29.3699 51.2156 29.1262 50.2937 30.4013 50.5163Z" fill="#5D8AB4"/>
<path d="M21.2638 15.8878C19.9428 15.8913 18.6253 15.8949 17.3043 15.8984C18.6218 15.3898 19.9428 15.418 21.2638 15.8878Z" fill="#BFCAD0"/>
<path d="M16.2727 54.4267C16.2727 54.183 16.2727 53.9428 16.2692 53.6991C16.8378 52.4028 17.1769 52.2933 17.8445 53.1869C17.7385 53.6602 17.2264 53.7203 16.9756 54.0488C16.8484 54.1865 16.7248 54.3207 16.5976 54.4585L16.4316 54.4762L16.2727 54.4267Z" fill="#6496BE"/>
<path d="M33.2518 45.9988C33.3189 45.2605 32.9304 44.4517 33.5839 43.8018C33.5379 44.5435 33.6969 45.3171 33.2518 45.9988Z" fill="#6394BA"/>
<path d="M33.6086 43.5402C33.6368 42.9115 33.3401 42.2298 33.9159 41.6894C33.8805 42.3181 33.9794 42.968 33.6086 43.5402Z" fill="#6394BA"/>
<path d="M33.5767 14.4956C33.3719 14.983 32.8315 15.2974 32.8597 15.9014C31.8495 17.233 30.4897 18.0843 28.9815 18.7342C29.423 16.7774 30.8218 15.4811 32.164 14.1425C32.164 14.259 32.1673 14.3796 32.1673 14.4962C32.3121 14.6869 32.3121 14.6869 33.2234 14.143C33.34 14.2595 33.4602 14.379 33.5767 14.4956Z" fill="#F1E5D5"/>
<path d="M33.2234 14.143C32.8702 14.6622 32.517 15.1776 32.1179 15.7604C31.6057 15.2341 32.0578 14.8741 32.1673 14.4962C32.5453 14.4538 32.5912 13.4224 33.2234 14.143Z" fill="#E5D7C3"/>
<path d="M24.0823 35.7628C24.7746 35.738 25.4705 35.7168 26.1628 35.6921C26.1875 35.7663 26.2122 35.8405 26.2369 35.9146C26.0497 36.4692 25.5658 36.7447 25.1455 37.0838C24.4921 37.5783 23.6656 37.0732 22.9945 37.4582C22.5141 37.1403 22.2421 37.4688 21.9631 37.7867C21.465 37.882 20.9494 38.1081 20.4761 38.0374C19.8155 37.9421 19.4164 37.7584 19.9816 38.6414C20.2959 39.1359 19.5612 39.2172 19.4517 39.5739C19.2822 39.7682 19.0667 39.7576 18.77 39.6905C19.6637 40.1673 20.363 40.1285 20.8611 39.2278C20.9776 39.2242 21.0942 39.2242 21.2143 39.2242C21.4227 39.2666 21.5428 39.3938 21.5745 39.6022C21.6205 40.1073 21.4121 40.464 21.0447 40.8208C20.7551 41.0998 20.0027 41.4495 20.8257 41.9722C21.3767 42.3219 22.0655 42.6539 22.4576 41.9016C22.7967 41.2517 22.8779 41.2199 23.6444 41.4777C24.5345 41.778 24.9689 40.8066 25.1031 39.9307C25.8731 39.528 26.6714 38.9417 27.4873 39.7258C28.0489 40.2662 27.8299 41.0256 27.7628 41.7214C27.6886 42.502 26.3182 42.1029 26.516 43.1096C25.9544 44.1409 24.8594 44.2469 24.0258 44.0103C22.8956 43.6888 22.0867 43.9891 21.345 44.5895C22.115 44.2328 22.9697 43.3144 23.874 44.526C23.8881 45.1829 23.5914 45.6774 23.0686 46.0518C21.352 46.0554 19.6637 45.9812 18.7842 47.9945C18.3815 48.9128 17.23 48.602 16.7603 48.2241C16.0362 47.6413 15.1143 47.7331 14.4397 47.1962C14.2171 46.9596 14.0582 46.677 13.9028 46.3944C13.4648 45.5962 14.0617 45.0699 14.4043 44.48C14.1112 43.2932 14.5138 42.3254 15.2414 41.3859C15.7112 40.7784 15.577 40.1708 14.701 39.9413C14.2454 39.8212 13.4507 40.0649 13.5072 39.3019C13.5566 38.645 14.3302 38.5885 14.8635 38.3801C15.1037 38.2847 15.4216 38.4684 15.6476 38.1328C14.2948 37.5924 13.101 36.7623 11.6351 36.5186C11.0523 36.4197 10.3495 36.229 10.2647 35.406C10.2612 35.3672 10.3247 35.3142 10.3671 35.2789C10.4519 35.2082 10.5543 35.2223 10.6673 35.3071C14.4361 35.8334 18.212 36.2714 22.0302 36.0559C22.719 36.0029 23.443 36.1866 24.0823 35.7628Z" fill="#5E92BC"/>
<path d="M26.5126 43.0989C25.8485 42.7669 25.9298 42.5055 26.5514 42.1911C26.8976 42.0145 27.4557 42.1593 27.4451 41.3752C27.4274 40.1637 27.3815 39.2736 25.8026 39.9023C25.6013 39.9836 25.3399 39.92 25.1033 39.92C25.3364 39.4573 25.5695 38.9946 25.8026 38.5318C25.9934 38.1433 26.3112 37.836 26.5126 37.451C26.6327 37.451 26.7563 37.451 26.8764 37.451C27.2296 37.7442 27.5828 37.829 27.936 37.444C28.5577 38.1716 29.1087 39.0193 30.0977 37.783C30.5498 37.2179 30.8642 37.7548 31.1114 38.1504C31.4575 38.4365 31.6871 38.7968 31.8178 39.2241C32.1922 39.9518 31.7754 40.5028 31.5529 41.1138C30.9207 40.9549 31.235 40.4957 31.0584 40.2449C31.0302 40.2061 30.956 40.1743 30.9065 40.1778C30.8571 40.1814 30.8112 40.2343 30.7617 40.2661C30.1083 40.8948 29.5714 41.6154 29.0557 42.3571C28.2963 42.9329 27.1731 42.2265 26.5126 43.0989Z" fill="#6396BF"/>
<path d="M32.6864 36.2393C32.3544 35.6741 31.7787 34.8406 31.8423 34.7876C32.5028 34.2436 33.241 33.7739 34.0145 33.3959C34.4737 33.1699 34.5938 33.5549 34.5585 33.9646C34.4949 34.7134 33.8556 35.2397 33.0079 35.3492C32.8842 35.3669 32.8207 35.8437 32.6864 36.2393Z" fill="#7CA6C6"/>
<path d="M31.8107 39.2243C31.0972 39.1819 31.0972 38.6698 31.1043 38.1506C31.7648 37.9033 32.6618 36.4725 32.8666 38.5035C32.5134 38.7436 32.1639 38.9841 31.8107 39.2243Z" fill="#7CA3C5"/>
<path d="M20.8574 39.2211C20.3841 40.263 18.6145 40.7257 17.9929 39.9593C17.728 39.6343 17.9858 39.3588 18.279 39.3482C18.6675 39.3376 19.0596 39.4895 19.4517 39.5707C19.9638 39.6273 20.4195 39.4577 20.8574 39.2211Z" fill="#709EC3"/>
<path d="M26.1628 35.6921C26.4171 35.293 26.8303 35.3423 27.2188 35.3281C26.8267 35.8544 28.2078 36.1299 27.406 36.7445C27.1199 36.9635 26.9045 36.9211 26.5795 36.4019C26.1768 36.3101 26.3888 35.8615 26.1556 35.6743L26.1628 35.6921Z" fill="#5E92BC"/>
<path d="M21.5675 39.5952C21.4474 39.468 21.3273 39.3444 21.2072 39.2172C21.5675 38.8181 21.9949 38.6804 22.5282 38.8287C22.4541 39.4292 21.9949 39.4927 21.5675 39.5952Z" fill="#B3C4D4"/>
<path d="M26.5088 37.4509C26.5265 37.9771 26.5053 38.4787 25.7989 38.5317C25.2019 37.6275 26.2263 37.7829 26.5088 37.4509Z" fill="#81AAC8"/>
<path d="M21.9631 37.7833C21.8006 37.4795 21.5957 37.1616 22.175 37.0768C22.5353 37.0238 22.9874 36.7483 22.9944 37.4548C22.6483 37.5643 22.3057 37.6738 21.9631 37.7833Z" fill="#A4BED1"/>
<path d="M26.1556 35.6743C26.2969 35.918 26.4382 36.1617 26.5795 36.4019C26.0744 36.5714 25.7461 37.1156 25.1457 37.0802C25.4812 36.6105 25.8201 36.1405 26.1556 35.6743Z" fill="#C5D3DE"/>
<path d="M27.9324 37.4474C27.5863 38.56 27.2295 38.0337 26.8728 37.4545C27.226 37.4509 27.5792 37.4509 27.9324 37.4474Z" fill="#81AAC8"/>
<path d="M18.0672 16.2795C18.3957 16.2795 18.7277 16.2795 19.0562 16.2795C20.3348 16.721 21.6876 16.1771 22.9663 16.5903C24.8418 16.9577 26.7138 17.3285 28.5894 17.6959C28.494 17.929 28.4022 18.1621 28.3068 18.3952C28.3492 18.7696 28.102 18.8827 27.8088 18.9568C25.6259 18.9674 23.5667 18.1974 21.3768 18.0314C16.0256 17.6252 11.1336 18.805 6.47831 21.3234C5.63413 21.779 4.95243 22.4183 4.29192 23.0894C2.47641 25.0074 2.44462 27.2679 4.22834 29.1965C5.53876 30.6129 7.20239 31.4712 8.97905 32.1458C9.96098 32.5202 10.9994 32.7886 11.7482 33.6081C11.4975 34.4028 10.9429 34.5123 10.2365 34.2827C6.55601 33.7847 3.59256 31.9974 1.50155 28.9916C0.0145212 26.8405 0.562001 24.1844 2.48348 22.0757C4.67339 19.6739 7.55914 18.6036 10.5438 17.6712C13.0021 16.9047 15.5912 16.8941 18.0672 16.2795Z" fill="#F6F4F0"/>
<path d="M10.6638 35.2932C10.473 36.1268 11.3596 36.1091 11.6033 36.1056C13.1892 36.0879 14.2842 37.3454 15.7535 37.5891C16.082 37.6421 16.6754 37.8045 16.4388 38.3732C16.2798 38.7547 16.0856 39.1573 15.4003 38.7617C14.8458 38.4438 14.2524 39.0726 13.5884 39.2633C14.0087 39.6978 14.3478 39.4858 14.6727 39.4858C15.8913 39.4964 16.2834 40.2735 15.7783 41.3685C15.3685 42.255 13.9522 42.8943 15.3262 44.3142C15.856 44.8617 14.8387 44.5014 14.5102 44.512C14.2489 44.5262 14.0228 44.4379 13.8109 44.286C13.1221 42.6012 11.9883 41.591 10.0668 41.4073C9.19439 41.3261 8.42086 40.7539 8.82352 39.5565C9.1732 38.5145 8.73875 37.6173 8.16301 36.7732C7.81333 36.4235 7.25525 36.321 6.94443 35.5758C7.20581 36.3422 7.72856 36.4376 8.1065 36.706C8.33255 37.091 8.0076 37.2217 7.79214 37.4019C7.40714 37.6244 7.56608 37.9705 7.60494 38.2884C7.54489 38.8394 7.49191 39.394 6.89145 39.6624C6.29099 39.6095 5.9519 39.1255 5.51039 38.8147C5.1925 38.6381 5.30199 37.8787 4.63442 38.1789C4.71919 36.8791 4.56025 35.5934 4.10107 34.389C3.82203 33.6578 4.14345 33.3011 4.58497 32.8984C6.51351 33.9545 8.60099 34.5903 10.6638 35.2932Z" fill="#6698C1"/>
<path d="M10.247 34.2826C10.8086 34.2155 11.3101 34.0318 11.681 33.5727C13.1786 33.0464 14.6762 33.4773 16.1597 33.608C21.2001 34.0566 26.145 33.8482 30.7968 31.5876C32.7219 30.6516 34.4914 29.5354 35.2297 27.3137C35.8584 25.4241 35.5687 23.8487 33.9546 22.6054C32.7748 21.6164 31.203 20.9383 31.1006 19.0733C31.2242 18.9567 31.3443 18.8402 31.4679 18.7271C33.3824 19.7444 35.3003 20.7087 36.5683 22.6231C38.7582 25.9362 37.5997 28.7654 35.0742 31.0189C32.4958 33.3184 29.2604 34.219 25.9826 34.9537C25.2973 35.1056 24.6015 35.2045 24.0187 35.646C19.3598 35.8968 14.7575 35.5365 10.247 34.2826Z" fill="#F0F0ED"/>
<path d="M20.8893 24.4176C20.2959 24.8803 19.699 25.343 19.1056 25.8057C17.3183 27.5012 19.7908 27.1162 19.9215 27.5612C19.8085 27.4552 19.314 27.5612 19.0173 27.2539C18.6217 26.8407 18.4804 26.4769 19.095 26.1484C20.8893 25.6574 22.5529 25.5161 24.2801 26.6817C24.9512 27.1338 26.3288 27.8226 27.2259 26.5122C27.3177 25.0463 27.293 23.5417 28.5151 22.4326C32.185 23.1778 34.5763 25.5762 34.6222 28.5502C34.0994 29.7864 33.1705 30.5388 31.8707 30.8461C31.2172 30.0372 30.6168 29.1648 29.6384 28.688C29.4512 27.9003 30.1611 27.1303 29.6525 26.3002C29.7478 27.3705 29.8467 28.423 28.7694 29.0765C28.2538 28.8752 27.7416 28.9917 27.2294 29.1118C26.0532 29.1295 25.1808 29.8995 24.1812 30.3481C23.1675 30.8002 22.1432 31.1852 21.1401 31.4112C22.9344 31.2947 24.3755 29.956 26.1663 29.5922C26.4488 29.8253 26.6714 30.1856 26.5866 30.4823C26.3217 31.4254 26.9539 32.0859 27.2083 32.87C24.0647 33.9932 20.7869 34.0603 17.5338 33.8767C13.9169 33.6718 10.3247 33.1384 7.0363 31.4148C5.88129 30.8072 4.83932 30.0761 4.07284 28.9988C3.52537 27.653 4.26711 26.6641 5.03358 25.7139C5.574 25.0428 6.19212 24.4353 6.85263 23.8737C7.00451 23.75 7.16699 23.6476 7.34006 23.5558C12.112 21.5283 17.0216 20.2073 22.2739 20.7513C23.3759 20.8643 24.4956 20.9879 25.2197 22.0122C25.3574 22.9377 24.6086 23.1637 24.0187 23.4851C23.0474 24.0185 21.9948 24.3117 20.8893 24.4176Z" fill="#FEFBF3"/>
<path d="M34.276 28.6102C34.3714 26.664 33.4212 25.3253 31.8071 24.3893C30.758 23.7818 29.6913 23.206 28.6352 22.6127C28.5469 21.2457 29.6454 20.6241 30.4119 19.7976C30.6415 19.5574 30.871 19.317 31.1006 19.0733C31.7435 20.3272 32.8031 21.1645 33.944 21.9204C35.4593 23.7076 36.3812 25.6185 35.1237 27.9426C34.9436 28.2676 34.8482 28.7585 34.276 28.6102Z" fill="#EBEBE8"/>
<path d="M20.8893 24.4176C22.2562 23.6194 24.0399 23.6406 25.1242 22.2807C25.2796 21.7545 25.6399 21.3624 25.9684 20.9491C26.5406 20.1367 27.1305 19.3455 27.9358 18.738C28.0594 18.6215 28.1866 18.5084 28.3102 18.3919C28.4162 18.5049 28.5256 18.6179 28.6316 18.731C28.7588 19.3879 28.3667 19.78 27.9146 20.1438C27.0139 21.1045 26.1838 22.143 25.1984 23.0119C23.9975 24.0751 22.6165 24.845 20.8893 24.4176Z" fill="#DCCFBC"/>
<path d="M30.4119 19.7976C29.9138 20.7971 28.9248 21.4824 28.6352 22.6127C27.5191 23.6794 27.83 25.2585 27.2331 26.5124C26.4525 25.3539 27.3779 24.3719 27.5686 23.3158C27.3355 22.8425 27.6181 22.5494 27.9289 22.2668C28.932 21.6239 28.9531 19.9883 30.4119 19.7976Z" fill="#DAC9B6"/>
<path d="M19.0984 26.1485C18.8264 26.6783 18.9324 27.028 19.5434 27.2011C20.0768 27.3565 20.6631 27.4271 21.2777 28.0629C20.045 28.0771 19.1443 27.9322 18.4732 27.1128C18.233 26.8232 17.6961 26.6148 17.9822 26.1203C18.2189 25.707 18.6994 25.8057 19.1056 25.8057C19.102 25.9188 19.0984 26.0355 19.0984 26.1485Z" fill="#F4ECDE"/>
<path d="M27.9254 22.2629C27.8053 22.6125 27.6852 22.9622 27.5651 23.3119C27.272 23.2872 26.894 23.213 27.0035 22.8669C27.1201 22.5066 27.2896 21.9591 27.9254 22.2629Z" fill="#F4ECDD"/>
<path d="M24.4778 26.1486C24.3754 26.0038 24.2094 25.866 24.2341 25.7706C24.2623 25.6576 24.4425 25.5163 24.5661 25.5057C24.8063 25.4845 25.0112 25.6329 24.9228 25.9013C24.8875 26.0073 24.665 26.0497 24.4778 26.1486Z" fill="#F4EDDF"/>
<path d="M27.9183 20.1476C28.1584 19.6778 28.3951 19.2045 28.6353 18.7347C28.7518 18.7347 28.8719 18.7347 28.9885 18.7347C28.8649 19.3811 28.7624 20.0452 27.9183 20.1476Z" fill="#F1E5D5"/>
<path d="M14.1536 44.1583C14.2701 44.2784 14.3902 44.395 14.5068 44.5151C14.8211 45.1897 13.7085 45.5747 14.1536 46.2741C13.9205 46.6767 14.2631 46.8003 14.4927 46.9805C14.8141 47.0758 15.0896 47.3796 15.4711 47.1712C15.962 46.9028 16.6049 46.0091 16.4424 47.5986C16.3717 48.2768 17.3925 47.7152 17.8694 48.079C18.3709 48.4569 18.7312 47.648 18.6959 47.5174C18.3109 46.0303 19.6602 46.1398 20.3136 45.9385C21.126 45.6877 22.0903 45.3169 22.9698 45.9244C23.3936 46.1999 23.0828 46.7085 23.323 47.0476C23.2806 47.2736 23.6621 46.9946 23.4325 47.037C23.2735 46.1716 24.2095 45.4157 23.6832 44.5115C22.3481 43.7345 21.3768 45.5818 19.865 44.9424C21.4121 44.2925 22.4187 42.6678 24.4003 43.7027C24.87 43.9464 25.7919 43.3247 26.5054 43.1022C27.2931 43.7839 28.1408 44.4232 28.2679 45.5747C27.5862 47.2666 26.622 46.7933 25.5517 45.7619C24.9795 46.8498 26.2193 48.5558 24.3402 48.9549C23.217 49.7426 21.8925 50.2971 20.6739 49.6684C19.9039 49.2728 19.4941 49.3682 18.9184 49.7214C18.6924 49.7744 18.4628 49.7885 18.2332 49.8026C17.6433 50.2018 17.0499 50.5515 16.4742 49.7956C16.0998 49.8168 16.0927 50.2053 15.8808 50.3854C14.5103 51.0389 13.0657 51.3674 11.5681 51.0742C10.6426 50.8905 10.4554 52.201 9.55828 51.9254C9.43819 51.8089 9.32163 51.6923 9.20154 51.5758C8.57989 50.887 7.86993 50.3077 7.0858 49.8097C6.84915 49.5731 6.61249 49.3399 6.37584 49.1033C6.02263 46.984 5.66588 44.8683 5.31267 42.749C5.37625 42.7101 5.44336 42.6678 5.50694 42.6254C5.86722 42.5441 6.25222 42.5512 6.55598 42.2934C6.74671 42.0532 6.80323 41.7671 6.86681 41.4845C7.00809 40.877 7.31892 40.3118 7.96176 40.2836C8.50218 40.2589 8.84126 40.8028 9.11324 41.2443C9.5159 41.9013 9.65012 42.7878 10.8334 42.0249C11.3597 41.6858 11.9283 42.4276 12.3522 42.9397C12.8255 43.5049 13.1822 44.3031 14.1536 44.1583Z" fill="#6396BF"/>
<path d="M24.3933 48.7506C25.3258 48.196 25.241 47.4119 24.8843 46.5713C24.6441 46.0097 24.8101 45.4586 25.2339 45.169C25.8591 44.7381 25.9933 45.5328 26.1911 45.8154C27.0883 47.1081 27.6111 45.8542 28.2751 45.5717C28.5117 45.5752 28.7518 45.5753 28.9885 45.5788C29.1086 45.6954 29.2288 45.8118 29.3489 45.9319C29.5255 46.1651 29.8469 46.1156 30.0482 46.2993C30.2813 46.5289 30.5109 46.7549 30.7405 46.9845C29.5043 47.5567 28.4411 48.3338 27.5793 49.6301C29.3241 47.9841 29.9458 49.0225 30.3979 50.5202C29.5608 50.6297 29.8891 51.6148 29.3346 51.9326C29.218 51.9326 29.1016 51.933 28.9815 51.933C27.7064 52.5617 26.5267 51.8023 25.3187 51.6363C24.0789 51.4597 23.6975 50.0857 24.3933 48.7506Z" fill="#5F92BB"/>
<path d="M29.0448 42.3572C29.2285 41.347 29.8007 40.6512 30.7508 40.2662C30.3941 41.1351 29.9067 41.898 29.0448 42.3572Z" fill="#C3D3E0"/>
<path d="M33.2483 40.9829C33.2342 41.2054 33.2201 41.428 33.206 41.6505C32.8987 41.6576 32.5843 41.6081 32.6549 41.216C32.7044 40.937 32.8881 40.658 33.2483 40.9829Z" fill="#94B5CA"/>
<path d="M30.048 46.2954C29.6736 46.4437 29.3134 46.5638 29.3487 45.9281C29.603 45.8468 29.8538 45.7691 30.1081 45.6879C30.0904 45.8927 30.0692 46.0941 30.048 46.2954Z" fill="#7CA3C0"/>
<path d="M5.66241 38.5146C6.15338 38.7336 6.49953 39.0939 6.73618 39.5707C7.43201 40.4962 6.58077 41.4675 6.81742 42.407C6.39356 42.8415 5.77897 42.4635 5.32333 42.7496L5.3198 42.7532C4.60984 41.6582 5.1326 40.4361 4.96305 39.2846C5.86021 39.6273 5.24209 38.5959 5.66241 38.5146Z" fill="#6396BF"/>
<path d="M5.66241 38.5146C5.58824 38.882 5.87422 39.3193 5.49982 39.6054C5.43977 39.6513 5.15014 39.397 4.96647 39.2804C4.5744 39.0014 4.67683 38.574 4.63798 38.189C5.1572 37.7228 5.35512 38.2956 5.66241 38.5146Z" fill="#B9CBDE"/>
<path d="M24.3933 48.7506C24.139 50.8027 24.5309 51.2509 26.4559 51.0637C26.6819 51.0425 27.0458 50.9189 27.0422 51.152C27.0034 52.904 27.9217 51.5618 28.4127 51.6147C28.614 51.6359 28.7942 51.8161 28.9849 51.9256C27.5614 52.4307 26.1945 53.8682 24.432 51.968C24.7287 52.8934 24.598 53.3596 23.7679 53.5115C23.1816 53.621 22.726 53.7905 22.6306 52.9852C23.0015 52.4978 22.8143 52.028 22.3127 52.0068C21.8394 51.9856 21.518 52.0351 21.4827 51.477C21.4332 50.7105 20.914 50.76 20.3665 50.7776C18.226 50.8483 17.8587 51.3816 18.6181 53.3561C18.6464 53.6175 18.5863 53.8506 18.3956 54.0413C18.2755 54.0413 18.1554 54.0413 18.0388 54.0378C17.8481 53.84 17.4631 53.7411 17.6892 53.3384C16.9192 52.2717 16.7355 53.5327 16.2763 53.6916C16.1598 53.6881 16.0432 53.6881 15.9231 53.6881C15.4604 53.5362 15.0789 53.0629 14.5103 53.3349C12.7972 53.0982 11.0523 52.9605 9.56881 51.9185C9.69244 51.4593 10.4024 51.7172 10.4836 51.0319C10.579 50.2125 10.9216 49.778 11.7305 50.76C12.2179 51.3534 13.0727 50.5163 13.8427 50.6116C14.535 50.6929 15.2803 50.3043 16.0043 50.1207C16.1739 49.7498 16.3152 49.3613 16.6472 49.0928C16.8626 50.1419 17.5655 49.4142 18.053 49.4813C18.2826 49.7003 18.5086 49.7639 18.7276 49.4672C19.1091 49.2376 19.5471 49.1493 19.7166 48.5913C19.8155 48.2663 20.5502 48.3122 20.5643 48.5595C20.695 50.9189 22.6129 48.3369 23.1251 49.5167C23.6549 49.1352 22.8496 48.669 23.2487 48.2204C23.6125 48.397 24.0048 48.574 24.3933 48.7506Z" fill="#6C9DC3"/>
<path d="M18.3921 53.342C17.6998 52.5473 17.163 51.5195 18.1873 50.8448C19.1586 50.2055 20.7304 49.8629 21.5958 50.5305C22.1609 50.9649 22.9768 51.6713 23.3159 52.4943C23.6197 53.2255 22.9133 52.8829 22.6342 52.9888C21.6699 53.6387 20.575 53.893 19.4482 54.0414C19.1304 53.7518 18.6606 53.6952 18.3921 53.342Z" fill="#6496BE"/>
<path d="M18.3921 53.342C18.8972 53.342 19.2505 53.5715 19.4413 54.0413C19.0916 54.0413 18.7419 54.0413 18.3922 54.0448C18.3922 53.8117 18.3921 53.5751 18.3921 53.342Z" fill="#79A3C4"/>
<path d="M17.6858 53.342C17.8024 53.5751 17.9189 53.8082 18.0355 54.0413C17.6823 54.0413 17.3326 54.0448 16.9794 54.0448C16.9829 53.5821 17.2231 53.3526 17.6858 53.342Z" fill="#79A3C4"/>
<path d="M7.09288 49.8098C8.09247 50.0465 9.02848 50.3573 9.20862 51.5759C8.14898 51.4099 7.66861 50.5516 7.09288 49.8098Z" fill="#7AA1C1"/>
<path d="M14.5069 53.342C15.178 52.6533 15.563 53.1195 15.9197 53.6952C15.3122 54.1156 14.9873 53.4091 14.5069 53.342Z" fill="#6496BE"/>
<path d="M22.9697 16.5907C21.6664 16.4671 20.3171 16.9369 19.0597 16.2799C20.3595 16.4176 21.7123 15.8913 22.9697 16.5907Z" fill="#BFCAD0"/>
<path d="M23.6902 44.5117C24.5662 44.9885 24.2024 45.7797 24.1847 46.4826C23.3335 46.4508 24.4885 47.5811 23.6408 47.468C22.6588 47.3374 23.1039 46.4826 22.9767 45.9245C23.2134 45.4547 23.45 44.985 23.6902 44.5117Z" fill="#86ACC9"/>
<path d="M14.4927 46.9805C14.0688 46.8957 13.7015 47.4434 13.2424 47.0972C13.2777 46.518 13.8286 46.5178 14.1536 46.2741C14.4361 46.4259 14.4927 46.6908 14.4927 46.9805Z" fill="#8DB1CE"/>
<path d="M27.9358 18.7413C27.7133 19.8292 26.7066 20.3519 26.1591 21.2032C25.7565 21.4787 25.2902 21.7083 24.8417 21.514C23.1074 20.7652 21.2601 21.0513 19.4728 20.9135C15.0223 20.5744 10.9816 22.0438 7.09273 24.0324L7.09626 24.0289C5.25956 24.9084 4.48956 26.6356 3.67717 28.331C2.43739 26.6638 2.5045 25.1379 3.91029 22.9798C6.10374 20.3095 9.16256 19.151 12.3627 18.4481C13.8144 18.1302 15.2625 17.7311 16.7849 17.558C20.6278 17.1271 24.2765 17.8053 27.9358 18.7413Z" fill="#EAEBE9"/>
<path d="M3.90702 22.9838C3.34895 24.7463 2.48005 26.5089 3.90702 28.2714C4.12602 28.2926 4.12955 28.5186 4.25317 28.6317C6.17818 31.4468 9.25113 32.1108 12.2605 32.8137C17.0395 33.9299 21.8396 33.778 26.6292 32.8208C26.8411 32.7784 27.0318 32.6159 27.2296 32.5099C28.5612 31.4185 30.239 31.2136 31.8108 30.7403C32.8704 30.3059 33.6652 29.5641 34.2762 28.6069C35.7456 26.9256 35.6608 25.149 34.6224 23.2982C34.3716 22.8496 33.9053 22.507 33.9407 21.9171C36.7416 24.1883 36.7416 28.0595 33.8771 30.1893C30.8607 32.4322 27.5087 33.6084 23.701 34.004C19.632 34.4279 15.6725 34.0711 11.6777 33.5696C8.79548 32.6159 5.89208 31.6905 3.75514 29.3416C1.9255 27.3318 2.00321 24.6227 3.90702 22.9838Z" fill="#CED5D8"/>
<path d="M6.7361 42.3925C6.08972 41.4494 6.84912 40.5098 6.7361 39.5668C7.21646 39.2065 7.13523 38.5742 7.42839 38.1221C7.19174 37.7901 7.14582 37.4546 7.40014 37.1119C7.70037 37.0943 7.99 37.0484 8.14541 36.7375H8.14188C9.7384 37.1437 9.6607 38.6661 9.32868 39.5173C8.87303 40.6864 9.48409 41.0185 10.1305 41.0326C12.3169 41.075 13.5248 42.1982 14.15 44.1585C14.0405 44.4199 14.0582 45.1546 13.8463 44.872C13.3376 44.2009 12.3804 44.2327 12.0131 43.3497C11.5504 42.2441 11.4232 42.283 10.4837 43.0636C10.1517 43.3391 9.91854 43.0953 9.75959 42.9258C9.40991 42.5514 8.91895 42.2688 8.85184 41.679C8.78826 41.1068 8.36441 40.5911 7.91229 40.6299C7.39307 40.6758 7.25885 41.3364 7.17761 41.8697C7.12816 42.1982 7.48491 42.7633 6.73256 42.7421C6.60894 42.6644 6.57009 42.5832 6.61247 42.5055C6.65486 42.4313 6.69371 42.3925 6.7361 42.3925Z" fill="#5E92BC"/>
<path d="M8.14541 36.7375C6.8138 36.4691 6.81393 36.4689 6.30884 35.0984C7.38967 35.1549 7.62619 36.1088 8.14541 36.7375Z" fill="#96B6D0"/>
<path d="M7.40014 37.1119C7.41073 37.451 7.4178 37.7866 7.42839 38.1221C6.89151 37.8007 6.31224 37.4793 7.40014 37.1119Z" fill="#A1BDD3"/>
<path d="M31.8108 30.7403C30.4969 31.8812 28.8191 32.079 27.2296 32.5099C26.5303 32.457 25.6472 32.5413 26.1947 31.3863C26.4773 30.7894 26.0393 30.2525 26.1629 29.6874C26.3678 29.2353 26.6009 28.822 27.2155 28.9704C27.6888 28.7337 28.1692 27.4586 28.6354 28.9774C28.7343 29.1399 28.7414 29.2847 28.5754 29.4083C28.7626 29.5037 28.8085 29.313 28.9003 29.2388C29.1617 29.0269 29.3206 28.6772 29.7056 28.6242C31.0514 28.6913 31.7472 29.4017 31.8108 30.7403Z" fill="#FEFDFA"/>
<path d="M7.08943 24.0327C8.37865 22.3761 10.4132 22.249 12.1792 21.599C16.1952 20.1191 20.2996 20.5076 24.4074 21.1363C24.9796 21.2246 25.5728 21.1855 26.1591 21.2032C25.9366 21.68 25.5834 22.03 25.1242 22.2807C24.6191 21.6096 23.7928 21.3553 23.1076 21.3483C19.9252 21.3129 16.718 20.663 13.5779 21.9699C11.4905 22.8388 9.25815 23.358 7.08943 24.0327Z" fill="#F0E9DE"/>
<path d="M11.3243 29.6065C9.31452 28.4621 8.97896 27.0916 10.4625 25.8589C11.9424 24.6297 13.5213 23.4429 15.7288 23.5771C16.785 23.6407 17.9046 23.1921 18.9395 22.8248C19.8932 22.4857 20.6208 22.8107 21.405 23.3829C19.6212 23.7785 17.7916 23.7714 16.0044 23.9621C14.7293 24.0999 13.6166 24.4178 12.5393 25.0288C10.3918 26.2474 10.081 27.247 11.3243 29.6065Z" fill="#F4EAD9"/>
<path d="M27.2155 28.9704C26.8658 29.2105 26.5126 29.4472 26.1629 29.6874C24.1037 30.5492 22.2775 32.1528 19.8191 31.736C19.6955 31.3898 19.8757 31.2097 20.0982 31.1885C22.4188 30.9589 24.4639 30.0088 26.4242 28.829C26.7244 28.6454 27.106 28.0944 27.2155 28.9704Z" fill="#F6EFE1"/>
<path d="M14.0512 28.437C16.061 29.7086 18.2686 30.1042 20.7764 30.0371C18.915 31.3298 15.9162 30.5881 14.0512 28.437Z" fill="#F7EEDE"/>
<path d="M29.7056 28.6242C29.2217 29.3059 28.6953 29.9415 27.5085 30.5632C28.0736 29.772 28.3562 29.3728 28.6388 28.9772C29.7973 27.8258 29.3664 26.586 28.6988 25.2968C30.5073 25.9643 30.677 26.6038 29.7056 28.6242Z" fill="#F8EDDB"/>
<path d="M4.25317 28.6317C4.13661 28.5116 4.02358 28.3915 3.90702 28.2714C4.05891 25.9508 5.22093 24.4071 7.08943 24.0327C6.34415 24.9228 5.61627 25.8237 4.85333 26.6926C4.3553 27.2613 4.19313 27.904 4.25317 28.6317Z" fill="#F0E9DE"/>
<path d="M13.3306 45.582C12.9632 45.8645 12.557 46.4191 12.2003 46.3873C11.787 46.3484 11.3455 45.8504 11.0594 45.4513C10.8934 45.2181 11.4056 44.7943 11.4833 44.9285C11.9389 45.7268 12.9314 44.6389 13.3306 45.582Z" fill="#5E92BC"/>
<path d="M7.08925 44.8649C6.66893 44.374 6.39696 43.8618 6.82434 43.1837C7.59081 43.6923 7.38948 44.2715 7.08925 44.8649Z" fill="#75A0C3"/>
<path d="M8.85549 46.8503C9.73499 47.8075 9.52659 48.3479 9.1981 48.9095C9.10627 48.3585 9.01443 47.811 8.85549 46.8503Z" fill="#74A1C5"/>
<path d="M16.6401 49.1C16.6825 49.6051 16.7143 50.1031 15.9972 50.1278C15.3544 49.2483 16.0502 49.2059 16.6401 49.1Z" fill="#C2D2DF"/>
<path d="M7.08943 44.8683C7.52741 45.0732 7.96893 45.278 8.77778 45.656C7.65103 45.822 7.21658 45.6065 7.08943 44.8683Z" fill="#75A0C3"/>
<path d="M6.7361 42.3925C6.7361 42.509 6.73621 42.6294 6.73621 42.746C6.26644 43.0709 5.79314 43.0744 5.32337 42.746C5.55295 41.6722 6.30871 42.6821 6.7361 42.3925Z" fill="#80A5C6"/>
<path d="M11.5081 49.6656C11.4304 49.5243 11.2962 49.3477 11.2326 49.1463C11.1655 48.9344 11.3244 48.7967 11.5011 48.9026C11.6741 49.0051 11.8295 49.2029 11.8967 49.3936C11.9567 49.5667 11.8189 49.708 11.5081 49.6656Z" fill="#6C9DC3"/>
<path d="M18.7241 49.4711C18.7912 49.7078 19.1055 50.0292 18.6393 50.1316C18.1872 50.2305 18.0812 49.8561 18.0459 49.4852C18.272 49.4817 18.498 49.4782 18.7241 49.4711Z" fill="#A2BDD1"/>
<path d="M10.5898 48.6338C10.4803 48.8704 10.3249 48.8987 10.2048 48.768C10.1094 48.6656 10.0953 48.489 10.0459 48.3477C10.1765 48.3123 10.3637 48.2099 10.4238 48.2629C10.5262 48.3512 10.5509 48.5313 10.5898 48.6338Z" fill="#74A1C5"/>
<path d="M14.8494 51.714C14.4079 51.8836 13.9028 52.1414 13.5673 51.5021C14.1006 51.1206 14.4115 51.7423 14.8494 51.714Z" fill="#83AFCE"/>
</svg>
