<svg width="30" height="39" viewBox="0 0 30 39" fill="none" xmlns="http://www.w3.org/2000/svg">
<path d="M26.6405 4.6437C27.0978 6.6309 27.501 8.59316 28.9062 10.2519C29.7169 11.204 29.9247 12.5094 29.218 13.7441C28.715 14.6462 29.2637 15.6315 29.0018 16.5586C28.8854 16.7415 28.7191 16.8454 28.5113 16.8829C28.1662 16.8787 27.896 16.7457 27.7297 16.4297C27.3223 14.4259 27.3431 12.3555 26.7901 10.3767C26.3411 8.96732 26.0875 7.479 25.1896 6.24427C24.8237 5.76618 24.4745 5.28393 24.566 4.63123C24.9069 4.16561 25.1896 3.60021 25.9296 3.77067C26.1707 4.06168 26.4077 4.35269 26.6405 4.6437Z" fill="#987354"/>
<path d="M25.4854 29.9323C24.5708 30.4062 24.1509 31.3499 23.4815 32.0525C23.4109 31.986 23.3443 31.9236 23.2737 31.8571C22.9245 31.0298 23.4233 30.1609 23.1573 29.3253C23.627 27.4254 24.5458 25.7791 25.9718 24.4238C26.8074 24.5569 26.9404 25.143 26.8905 25.8456C26.9862 27.4046 26.928 28.9054 25.4854 29.9323Z" fill="#896345"/>
<path d="M1.75089 29.275C1.37258 27.4208 0.994261 25.5625 0.620102 23.7083C0.636731 23.2926 0.703248 22.906 1.18134 22.7605C1.63449 22.7937 1.93382 23.0515 2.15831 23.4215C2.9191 26.1861 4.35754 28.7512 4.64023 31.6613C4.57787 31.8525 4.46978 32.0188 4.32012 32.1519C2.32045 32.1269 2.4618 30.6136 2.3246 29.2833C2.30798 29.1129 2.39528 28.826 2.06685 28.7969C2.05022 29.0131 1.94629 29.1752 1.75089 29.275Z" fill="#9C7653"/>
<path d="M1.50526 15.8144C0.761097 13.2992 1.56346 11.5739 4.37381 9.6283C4.45696 9.57425 4.53595 9.51605 4.61909 9.462C4.79786 9.55762 4.91842 9.69897 4.97247 9.89437C4.29482 11.8857 3.45504 13.8147 2.76077 15.7978C2.66099 15.9682 2.53627 16.1179 2.39077 16.2509C1.90852 16.4879 1.67155 16.226 1.50526 15.8144Z" fill="#9E7B5B"/>
<path d="M13.0252 2.00674C15.2785 -0.849341 17.8643 -0.246529 20.5417 1.28337C20.6373 1.90281 20.1675 1.97348 19.7559 2.10236C18.9993 2.22292 18.2925 1.92359 17.5567 1.85292C15.9728 1.63674 14.6299 2.94629 13.0211 2.57629C12.8714 2.3809 12.8714 2.19382 13.0252 2.00674Z" fill="#997351"/>
<path d="M13.0252 2.00674C13.0335 2.16472 13.0462 2.31838 13.0545 2.47635C12.0942 3.69445 10.7431 4.40535 9.50003 5.2576C8.80576 5.52783 8.43576 6.28031 7.69991 6.49649C6.97238 6.5048 6.52755 7.0702 5.94968 7.382C5.57968 7.58155 5.04754 7.87672 5.10574 7.00368C5.43001 6.56716 5.65867 5.98514 6.08687 5.72322C8.34014 4.36794 10.4809 2.80495 13.0252 2.00674Z" fill="#916E4C"/>
<path d="M29.2764 16.6495C30.4446 18.4537 29.4634 20.2455 29.2473 22.0415C28.8398 22.5986 28.4283 23.1557 28.0209 23.7127C27.8379 23.8375 27.6633 23.8333 27.4929 23.692C27.0314 21.1685 28.0167 18.9235 28.8648 16.6536C28.9978 16.4624 29.135 16.4624 29.2764 16.6495Z" fill="#886241"/>
<path d="M23.4815 32.0525C23.1282 34.1728 21.1866 34.7301 19.7814 35.811C19.0954 36.048 18.8917 35.599 18.7379 35.0793C18.8127 34.5513 19.1786 34.2021 19.5112 33.8363C20.4216 32.3438 21.8725 32.0361 23.4606 32.0237L23.4815 32.0525Z" fill="#916A48"/>
<path d="M15.9691 37.0038C13.799 39.1781 12.0404 39.3569 10.0532 37.6066C9.84118 37.1327 10.0615 36.7959 10.4066 36.4966C10.681 36.3386 10.9761 36.3054 11.2838 36.3885C12.5102 37.6316 13.7657 36.8126 15.017 36.4259C15.2041 36.3677 15.3912 36.3511 15.5866 36.3761C15.8776 36.48 16.0938 36.638 15.9691 37.0038Z" fill="#937152"/>
<path d="M1.50526 15.8144C1.72975 15.9474 1.95428 16.0808 2.18293 16.2139C3.30125 18.0098 2.27439 19.8848 2.39496 21.7181C2.35338 22.296 2.32012 22.8739 1.84203 23.2938C1.55933 23.1649 1.28079 23.0402 0.998096 22.9113C0.0169678 21.2359 0.877534 19.573 1.04383 17.9059C1.27664 17.2324 1.58425 16.5669 1.50526 15.8144Z" fill="#AD8D6F"/>
<path d="M1.75089 29.275C1.95045 28.9715 1.597 28.2568 2.13745 28.3441C2.54487 28.4064 3.07285 28.8222 2.86498 29.5788C2.51992 30.8343 3.03127 31.6949 4.2951 32.0815C4.6942 32.518 4.6942 32.9545 4.29094 33.3911C2.40352 32.6635 2.12505 30.9421 1.75089 29.275Z" fill="#936E4B"/>
<path d="M15.9691 37.0038C15.8277 36.8666 15.6822 36.7301 15.5409 36.593C15.3621 35.9735 15.9025 35.7947 16.2227 35.4829C16.5345 35.2543 16.867 35.0755 17.2412 34.9716C17.7941 34.8885 18.3512 34.5891 18.9 34.9841C19.058 35.404 19.3947 35.6368 19.7813 35.8155C18.7087 36.8382 17.3701 37.0246 15.9691 37.0038Z" fill="#A27E5D"/>
<path d="M1.04407 17.9131C1.52632 19.5843 0.694854 21.2472 0.998339 22.9143C0.998339 23.2386 0.923586 23.5296 0.620102 23.7083C-0.44833 21.6879 -0.0243624 19.7756 1.04407 17.9131Z" fill="#927458"/>
<path d="M5.11419 7.00431C5.69206 7.6778 5.89161 6.91701 6.14936 6.68004C6.61083 6.26015 7.00993 5.84026 7.6751 6.26431C7.22195 7.83578 6.55262 9.21601 4.73172 9.57354L4.76082 9.59848C4.39913 8.90421 4.48228 8.19746 4.71093 7.48656C4.84396 7.32443 4.977 7.16645 5.11419 7.00431Z" fill="#9F7F62"/>
<path d="M10.5812 36.6915C10.4066 36.995 10.2278 37.3031 10.0532 37.6066C8.72702 36.825 6.80635 37.0948 6.02478 35.3445C6.13702 35.0452 6.31163 34.8124 6.665 34.7999C7.9122 35.5482 9.34648 35.9141 10.5812 36.6915Z" fill="#A38162"/>
<path d="M27.609 23.7124C27.7462 23.7124 27.8837 23.7127 28.0209 23.7127C28.1206 24.5442 27.3512 25.0011 27.1642 25.7079C27.027 25.7079 26.8898 25.7079 26.7526 25.7079C26.4948 25.3212 26.2412 24.9388 25.9835 24.5521C25.4181 23.7622 25.8671 23.2426 26.4533 22.7603C27.3596 22.4485 27.1766 23.4546 27.609 23.7124Z" fill="#987252"/>
<path d="M21.8309 2.02374C22.9575 2.21082 24.1756 2.06531 25.1152 2.93419C25.1692 3.8488 24.4209 3.77813 23.8722 3.96105C22.8328 3.77813 21.9764 3.27094 21.278 2.48936C21.2946 2.13183 21.4152 1.90318 21.8309 2.02374Z" fill="#9D795C"/>
<path d="M6.44457 34.8789C6.30322 35.0327 6.16613 35.1866 6.02478 35.3445C5.45107 34.6918 4.8731 34.0391 4.29939 33.3906C4.29939 32.9541 4.30355 32.5175 4.30355 32.081L4.35759 32.0103C4.79411 31.8233 5.10176 32.0644 5.4094 32.318C5.94153 32.9 6.27828 33.5943 6.54435 34.3301C6.57761 34.5214 6.5485 34.7084 6.44457 34.8789Z" fill="#947051"/>
<path d="M23.8758 3.8073C24.2874 3.51628 24.7036 3.22521 25.1152 2.93419C25.5434 3.06307 25.8131 3.34168 25.9337 3.76988C25.4556 3.94033 25.4348 4.79258 24.7073 4.59719C24.0338 4.75517 23.7885 4.45584 23.8758 3.8073Z" fill="#C3A58A"/>
<path d="M21.8309 2.02374C21.7062 2.17756 21.581 2.33119 21.4563 2.48085C20.6622 2.78018 20.0137 2.71782 19.731 1.77411C20.0636 1.70759 20.4627 1.75748 20.5417 1.27938C21.0489 1.39995 21.5025 1.60801 21.8309 2.02374Z" fill="#D1B69A"/>
<path d="M4.71065 7.48771C4.72728 8.1903 4.74391 8.89288 4.76054 9.59963C4.63166 9.6121 4.49862 9.62457 4.36975 9.63289C4.34065 8.89288 4.08705 8.11962 4.71065 7.48771Z" fill="#DCC3A8"/>
<path d="M29.2764 16.6495L29.0686 16.6454L28.8608 16.6537C29.1809 15.71 28.0789 14.588 29.218 13.7441C29.2388 14.7127 29.2556 15.6808 29.2764 16.6495Z" fill="#A4805D"/>
<path d="M26.6944 22.8188C26.3161 23.3385 25.9918 23.8787 25.9835 24.5521C25.0855 26.2068 24.1917 27.8616 23.2937 29.5204C22.3667 31.2831 21.1403 32.6883 19.0658 33.0874C18.6168 31.915 17.8227 32.7631 17.1742 32.7756C16.7501 32.7881 16.3801 32.9751 15.9893 33.1123C14.3846 33.6902 14.1393 32.9627 14.5592 31.6074C14.9666 31.1625 15.5778 31.1542 16.0725 30.8965C16.3926 30.7302 16.7044 30.5473 17.0245 30.381C17.7313 30.0234 18.4463 29.6867 19.1364 29.2959C19.602 29.0548 19.9845 28.7264 20.234 28.2524C21.319 26.6809 23.1025 25.5917 23.4767 23.5339C24.0587 22.3324 24.6698 21.1476 25.0398 19.8546C25.2809 19.3391 25.4389 18.7987 25.4265 18.2208C25.4223 17.9256 25.4223 17.6346 25.4223 17.3394C25.4223 16.8323 25.4181 16.3292 25.4722 15.8262C25.5345 15.3107 25.7299 14.8492 26.0168 14.421C26.7693 13.6727 26.4866 12.6708 26.6279 11.8144C26.3619 12.1511 26.8649 13.0158 25.9129 12.9784C25.2144 12.3382 24.7987 11.5816 24.8818 10.6004C25.4639 9.70244 26.2704 9.6484 27.1808 9.99345C27.9541 12.1511 28.0373 14.3919 27.9874 16.6493C28.3823 18.8818 27.8128 20.9106 26.6944 22.8188Z" fill="#D9BFA1"/>
<path d="M19.7313 1.77805C20.305 2.01501 20.8787 2.25198 21.4566 2.48479C22.4335 2.61782 23.1237 3.27052 23.8803 3.80682C24.03 4.20176 24.3127 4.45952 24.7118 4.59671C24.9695 5.04986 25.2231 5.49885 25.4809 5.952C25.51 6.79593 25.0901 7.34886 24.3501 7.69807C24.0424 7.70223 23.793 7.57335 23.581 7.35717C23.2068 6.91234 22.8368 6.46335 22.7911 5.84806C22.7162 5.48222 23.2525 5.03323 22.762 4.77963C22.4959 4.64244 22.2298 5.11638 21.9056 5.22031C21.7185 5.26188 21.5314 5.26188 21.3402 5.22447C20.6875 5.0166 20.1761 4.6175 19.7853 4.06457C19.54 3.72783 19.3072 3.37861 18.8 3.51165C18.4384 3.54075 18.0975 3.4576 17.7607 3.3412C17.4863 3.23727 17.2535 3.08344 17.0914 2.83816C16.817 2.16468 17.1787 1.71984 17.6443 1.30827C18.3344 1.46625 19.0329 1.62007 19.7313 1.77805Z" fill="#D4BFA5"/>
<path d="M24.1793 7.54894C24.6116 7.0168 25.044 6.48051 25.4763 5.94837C26.682 7.02927 26.6778 8.62153 27.1892 9.9976C26.5198 10.139 25.8505 10.2761 25.1812 10.4175C24.5243 10.0018 24.7031 9.21603 24.3913 8.64647C24.2499 8.29726 24.0795 7.94804 24.1793 7.54894Z" fill="#D3B99E"/>
<path d="M26.6944 22.8188C27.131 20.7651 27.5634 18.7078 28 16.6541C28.2868 16.6541 28.5739 16.6537 28.8608 16.6537C28.9979 19.1066 27.6424 21.2936 27.6092 23.7174C26.8317 23.9003 27.1559 22.956 26.6944 22.8188Z" fill="#A4805D"/>
<path d="M18.8577 32.8011C20.953 32.5392 21.7348 30.5015 23.2937 29.5204C24.5617 30.2729 23.0366 31.213 23.4606 32.0237C22.0513 32.4269 20.6911 32.9258 19.7141 34.1065C19.5935 34.2437 19.4397 34.2894 19.2609 34.2603C19.0198 34.1522 18.8244 33.9859 18.6498 33.7905C18.4378 33.5078 18.2549 33.2168 18.3921 32.8385C18.5376 32.7304 18.6956 32.7138 18.8577 32.8011Z" fill="#BA9774"/>
<path d="M18.4968 32.8787C18.6049 33.1282 18.7171 33.3735 18.8252 33.6229C18.6589 34.4835 17.9356 34.6872 17.2579 34.9408C16.3683 35.2609 15.5534 35.7972 14.5765 35.8596C11.7453 36.1963 9.1262 35.6974 6.86046 33.8557C6.60686 33.6853 6.39068 33.4732 6.21607 33.2238C5.95416 32.9453 6.02899 32.3923 5.4927 32.3383C5.38461 32.4173 5.2682 32.4713 5.14348 32.5171C4.88157 32.3466 4.6155 32.1762 4.35359 32.0057C3.75494 29.0332 2.23751 26.3227 1.84257 23.292C1.85088 22.7307 1.8592 22.1695 1.86751 21.6124C2.49111 19.9661 2.9692 18.3032 2.52021 16.5197C2.79875 15.7589 2.77797 14.915 3.18123 14.1916C3.35583 13.8798 3.20201 13.2645 3.79651 13.3227C4.38269 13.3809 4.49494 13.8798 4.4991 14.3787C4.50325 14.7819 4.48663 15.1893 4.52404 15.5926C4.67786 16.3118 4.8691 17.0269 4.67786 17.771C4.54899 18.2658 4.39101 18.7522 4.25797 19.2427C3.81314 20.7144 4.07921 22.1612 4.42011 23.5996C4.48663 23.874 4.5864 24.1401 4.71944 24.3895C5.36382 25.433 5.80865 26.5762 6.34079 27.6779C6.53203 28.0105 6.70248 28.3514 6.82304 28.7131C7.08911 30.0227 8.12013 30.9498 8.5608 32.172C8.79361 32.8164 9.31744 32.8372 9.91193 32.7499C10.8058 32.6168 11.6913 32.6252 12.3648 33.3693C12.4354 33.5231 12.3523 33.7601 12.5892 33.8516C12.556 33.7435 12.5269 33.6229 12.5061 33.4732C12.556 32.833 13.4664 32.7041 13.3667 31.9849C13.5496 31.6357 13.8281 31.4278 14.2231 31.378C14.4143 31.3904 14.5806 31.4569 14.7261 31.5817C14.697 32.5503 14.6305 33.5689 16.0481 32.5378C16.4223 32.2635 16.7757 31.8228 17.2247 32.4339C17.4159 33.2612 18.1642 32.463 18.4968 32.8787Z" fill="#D8BFA4"/>
<path d="M3.93783 15.8171C3.93783 15.0937 3.93783 14.3745 3.93783 13.5098C2.85277 14.3953 3.43895 15.7963 2.68648 16.6527C2.34973 16.4864 2.54513 16.0915 2.34973 15.8628C2.81951 13.6428 3.80064 11.6182 4.73604 9.57281C6.05807 8.77461 6.61099 7.29044 7.67942 6.26359C8.19493 5.81044 8.46516 5.04965 9.28415 4.97482C10.3817 5.01223 9.47123 5.97673 9.91191 6.32179C9.92438 6.50887 9.89112 6.68763 9.81213 6.85808C9.65415 7.10336 9.44213 7.28629 9.19269 7.42764C7.272 9.10719 5.792 11.0403 5.29312 13.6345C5.12683 14.4909 5.31391 15.6758 3.93783 15.8171Z" fill="#DCC3A8"/>
<path d="M2.34945 15.864C2.4617 16.1259 2.57395 16.3878 2.6862 16.6539C4.04148 18.5788 2.76934 20.0671 1.8672 21.6178C1.97114 19.8135 2.079 18.014 2.18293 16.2139C2.23282 16.0974 2.28709 15.9763 2.34945 15.864Z" fill="#E3D1BB"/>
<path d="M9.73679 6.26808C8.36071 6.27224 10.0694 5.17886 9.27532 4.97931C10.4643 4.03975 11.5743 2.97964 13.0502 2.4766C14.5634 2.03593 15.9686 1.15873 17.6315 1.31255C17.4902 1.84469 17.3488 2.37267 17.2117 2.90481C17.1659 2.97964 17.1202 3.05447 17.0745 3.1293C16.7294 3.43694 16.3178 3.56582 15.8647 3.55751C15.3907 3.49515 15.054 3.76953 14.7131 4.02728C13.3869 4.69661 12.173 5.55718 10.8343 6.20156C10.4809 6.3346 10.1193 6.49673 9.73679 6.26808Z" fill="#D1B69A"/>
<path d="M19.2613 34.0732C19.411 34.0857 19.5644 34.094 19.7141 34.1065C19.6268 34.568 19.2409 34.7554 18.9 34.9841C18.3595 35.0963 17.8187 35.204 17.2741 35.3163C17.1452 35.2373 17.087 35.1416 17.1037 35.0336C17.1203 34.9171 17.1494 34.8589 17.1826 34.8589C17.8852 34.622 18.4423 34.0025 19.2613 34.0732Z" fill="#D1B592"/>
<path d="M6.44438 34.8799C6.43607 34.7677 6.41944 34.6554 6.39034 34.5473C6.09932 34.0568 6.19494 33.7242 6.78112 33.5953C9.25889 35.5783 12.0609 36.2144 15.1664 35.6199C15.5863 35.5201 16.0145 35.3913 16.3679 35.782C16.0935 36.0523 15.815 36.3267 15.5406 36.5969C15.3993 36.5927 15.2662 36.6218 15.1415 36.6883C13.8901 36.9835 12.6388 37.2537 11.3874 36.6883C11.1214 36.6925 10.8511 36.6967 10.5851 36.6967C8.94709 36.6759 7.55023 36.1063 6.44438 34.8799Z" fill="#EEE1D1"/>
<path d="M11.3836 36.6842C12.6349 36.6842 13.8863 36.6842 15.1376 36.6842C13.4456 37.9813 12.2026 37.9813 11.3836 36.6842Z" fill="#A38162"/>
<path d="M16.3639 35.7777C15.9814 35.7985 15.5948 35.8151 15.2123 35.8359C14.7591 35.9939 14.6594 35.7902 14.7467 35.3869C15.5698 35.1125 16.393 34.8381 17.2203 34.5638C17.3658 34.6511 17.4157 34.7342 17.3658 34.8215C17.3159 34.9047 17.266 34.9504 17.2203 34.9504C17.212 35.0751 17.2284 35.1998 17.2741 35.3163C16.9706 35.4701 16.6674 35.6239 16.3639 35.7777Z" fill="#A38566"/>
<path d="M6.78096 33.7268C6.41927 33.8889 6.4359 34.2298 6.39017 34.5416C5.97443 33.864 5.5587 33.1905 5.14297 32.5128C5.15544 32.3382 5.17207 32.1636 5.18454 31.9932C5.94949 31.8186 6.0659 32.5253 6.41927 32.9036C6.53567 33.02 6.65624 33.1364 6.77264 33.2528C7.01792 33.4108 7.01792 33.5688 6.78096 33.7268Z" fill="#D3BA9E"/>
<path d="M14.7216 31.5949C14.572 31.5782 14.4182 31.5616 14.2685 31.545C13.2832 31.4369 12.1815 32.6592 11.3126 31.2789C11.2378 30.4724 11.8365 30.3311 12.406 30.1606C13.0462 30.1606 13.649 30.0234 14.1978 29.6825C14.6759 29.4372 15.1041 29.113 15.5739 28.8552C16.6922 28.4561 17.611 27.6537 18.7459 27.2879C18.9372 27.2505 19.1242 27.2588 19.3113 27.3087C19.5774 27.45 19.7603 27.6579 19.8393 27.9531C19.7769 28.5268 19.5732 29.0506 19.303 29.5536C18.6004 29.9569 17.8978 30.3602 17.1994 30.7634C16.7795 30.6221 16.3763 30.6345 16.0146 30.9255C16.2141 30.9754 16.3679 31.0835 16.4636 31.2706C15.9771 31.8693 15.3037 31.4868 14.7216 31.5949Z" fill="#A3815B"/>
<path d="M19.7064 27.8739C19.5484 27.6993 19.3946 27.5247 19.2366 27.3501C19.8934 25.5167 21.2196 24.178 22.5624 22.8518C23.2941 22.6939 23.5186 23.3175 23.8928 23.7124C23.6558 25.9781 21.573 26.9801 20.4963 28.6679C19.7438 28.8924 19.9932 28.1108 19.7064 27.8739Z" fill="#937357"/>
<path d="M24.7164 8.31854C25.4522 8.8881 25.0157 9.71956 25.1862 10.418C25.0656 11.3742 25.8846 12.0019 26.0426 12.8625C26.5705 13.3406 26.7659 13.8894 26.4167 14.5587C26.2587 14.9786 26.1049 15.3943 25.9469 15.8142C25.5312 16.259 25.3109 17.2194 24.4129 16.3962C24.0263 14.3425 23.914 12.268 23.8724 10.1852C24.0969 9.5408 24.126 8.80079 24.7164 8.31854Z" fill="#967653"/>
<path d="M23.8927 23.7091C23.2233 23.8131 23.0778 23.1521 22.6621 22.8777C22.6122 22.7945 22.5665 22.7155 22.5166 22.6324C22.5332 21.8591 22.8991 21.2023 23.1984 20.5205C23.3023 20.375 23.4437 20.2752 23.6183 20.2295C24.2336 20.429 24.4082 19.4437 25.0442 19.689C25.2147 19.7306 25.356 19.822 25.4725 19.9551C25.1316 21.2813 24.6077 22.5368 23.8927 23.7091Z" fill="#A48565"/>
<path d="M18.4968 32.8802C18.1892 33.0174 17.8899 33.1754 17.5739 33.2834C17.2372 33.3998 16.809 33.8696 16.5637 33.3084C16.3683 32.8636 16.8547 32.6307 17.2164 32.4437C17.9564 32.7388 17.7818 31.0634 18.7255 31.7535C19.1786 32.082 19.0539 32.4229 18.8544 32.8012C18.7421 32.8511 18.6216 32.876 18.4968 32.8802Z" fill="#EDDCC3"/>
<path d="M26.4163 14.5618C26.2916 13.9964 26.1668 13.431 26.0421 12.8656C26.6408 12.4624 26.0795 11.6392 27.0108 10.8909C26.2417 12.3127 28.1 13.5516 26.4163 14.5618Z" fill="#D3B99E"/>
<path d="M25.9258 17.4734C25.9216 17.7602 25.9175 18.0471 25.9133 18.3381C25.5433 18.7538 25.5807 19.4564 24.9613 19.6934C24.4209 19.5479 24.1756 19.1322 24.0051 18.6458C23.9178 18.1386 23.922 17.6605 24.4749 17.3902C24.9197 18.0554 25.4727 16.8706 25.9258 17.4734Z" fill="#A48565"/>
<path d="M25.9258 17.4734C25.5059 16.9662 24.9989 18.9029 24.6164 17.427C24.4626 17.1319 24.4875 16.8699 24.7785 16.6704C25.1693 16.3877 25.5601 16.105 25.9467 15.8181C25.9426 16.3669 25.9341 16.9205 25.9258 17.4734Z" fill="#846347"/>
<path d="M19.7064 27.8739C19.9724 28.1358 20.2346 28.4026 20.5007 28.6645C20.2887 29.2091 19.8896 29.5043 19.3117 29.55C18.738 28.8266 19.195 28.3437 19.7064 27.8739Z" fill="#A98A68"/>
<path d="M16.4681 31.2671C16.0066 31.213 15.5452 31.1631 14.8301 31.0842C15.7364 30.4522 16.3974 30.0365 17.2039 30.764C16.9587 30.9303 16.7134 31.1008 16.4681 31.2671Z" fill="#7F6246"/>
<path d="M25.1149 19.555C25.1357 18.9854 25.3643 18.5531 25.9172 18.3327C26.0794 18.9563 25.8341 19.4677 25.4849 19.9541L25.3061 19.9583L25.1232 19.9541C24.9735 19.8709 24.9236 19.7836 24.9694 19.6922C25.0193 19.6007 25.065 19.555 25.1149 19.555Z" fill="#8B6C51"/>
<path d="M24.778 16.6655C24.724 16.9191 24.67 17.1727 24.6159 17.4221C24.275 17.7963 24.2875 18.2619 24.2875 18.7234C24.4579 19.3553 24.2417 19.8708 23.8219 20.3281C23.7138 20.3738 23.6015 20.4112 23.4893 20.4403C22.8116 20.1535 22.9031 19.0809 22.0134 19.0061C21.7349 18.3949 21.9552 17.867 22.2878 17.3556C22.6537 16.89 22.9322 16.3953 22.8948 15.7758C22.9197 14.5619 22.8865 13.3521 22.9114 12.1423C22.9072 11.7017 22.9571 11.261 22.8823 10.8245C22.8366 10.5542 22.6537 10.4254 22.7701 10.6748C22.7742 10.679 22.6703 10.733 22.6162 10.7787C22.3128 11.0781 22.0217 11.3732 21.5603 11.3524C21.2776 11.2319 21.1196 11.0032 21.0198 10.7247C20.8618 10.1468 20.8743 9.55648 20.9284 8.97029C20.945 8.78321 20.9824 8.59613 21.0281 8.41321C21.4148 7.48613 20.6665 7.1868 20.1177 6.78354C19.9555 6.60062 20.0803 6.39691 20.0844 6.20152C19.9015 6.33871 19.9057 6.52163 19.9597 6.72118C20.1593 7.02467 20.4295 7.31984 20.0262 7.66489C19.7394 7.78546 19.4608 7.77298 19.1823 7.63995C18.4423 7.13691 18.4589 6.25972 18.1388 5.54882C17.9808 5.17466 17.8187 4.80465 17.7148 4.40971C17.5983 3.86926 17.6524 3.37038 18.0515 2.95465C18.33 3.07105 18.6127 3.18746 18.8913 3.30386C19.3319 3.13341 19.5564 3.45353 19.81 3.71128C20.0429 4.47207 20.6207 4.89612 21.2859 5.23286C22.5456 5.53634 23.1442 6.52579 23.693 7.56512C24.1544 8.33422 24.5535 9.1158 24.2417 10.0554C24.4787 12.2504 24.9028 14.4372 24.778 16.6655Z" fill="#ECC07C"/>
<path d="M18.0475 2.95016C18.0475 3.50309 18.0517 4.05601 18.0517 4.60894C18.2388 5.43624 17.4821 5.49029 17.0664 5.82287C15.7319 6.45479 14.3974 7.0867 13.2625 8.05951C12.7012 8.37547 12.2938 8.89098 11.7492 9.22772C11.2337 9.33581 10.8138 9.17368 10.4729 8.77457C10.4729 7.54816 11.3501 6.72086 11.8614 5.72726C12.036 5.4986 12.2356 5.29905 12.5183 5.20343C13.5826 4.73366 14.8256 4.74613 15.7776 3.97702C16.1019 3.43241 16.7754 3.3659 17.1953 2.95432L17.2202 2.90028C17.4946 2.91691 17.769 2.93354 18.0475 2.95016Z" fill="#EFC380"/>
<path d="M21.7478 5.02946C22.1843 4.70104 21.8767 3.40811 23.0158 4.01508C24.0967 4.58879 23.4024 5.24149 23.0324 5.86093C22.4213 5.86093 21.806 5.8734 21.7478 5.02946Z" fill="#D3B99E"/>
<path d="M24.2373 10.0522C23.9463 9.23318 23.6553 8.41419 23.3684 7.59104C23.2105 7.17115 23.4059 7.0589 23.7883 7.11295C23.9214 7.25845 24.0502 7.3998 24.1833 7.54531C24.362 7.80306 24.5408 8.05666 24.7196 8.31441C24.6531 8.92138 24.9025 9.61566 24.2373 10.0522Z" fill="#725438"/>
<path d="M23.7848 7.11783C23.6434 7.2758 23.5062 7.43378 23.3649 7.59592C22.8452 6.57737 22.0844 5.80827 21.0326 5.34265C20.9703 5.18467 20.9162 5.02254 21.0992 4.91444C21.1698 4.87287 21.2821 4.92692 21.3819 5.00591C21.5024 5.01838 21.623 5.02669 21.7435 5.03501C22.1717 5.31355 22.6 5.58793 23.024 5.86647C23.2818 6.2822 23.5353 6.69794 23.7848 7.11783Z" fill="#987146"/>
<path d="M21.3861 5.00121C21.2696 5.11345 21.1491 5.2257 21.0327 5.33795C20.2095 5.12593 19.8104 4.54806 19.6732 3.74985C19.8354 3.59187 19.985 3.6085 20.1181 3.78311C20.5421 4.19053 20.9662 4.59795 21.3861 5.00121Z" fill="#B98E59"/>
<path d="M20.118 3.78656C19.9683 3.77409 19.8228 3.76162 19.6732 3.7533C19.4112 3.60364 19.1493 3.45398 18.8874 3.30431C19.7646 2.2733 19.7646 3.47892 20.118 3.78656Z" fill="#D1B69A"/>
<path d="M17.2207 34.9453C17.2207 34.8164 17.2207 34.6875 17.2207 34.5586C17.7528 34.2468 18.2891 33.935 18.8212 33.6191C18.9667 33.7687 19.1122 33.9184 19.2577 34.0681C18.5884 34.3799 18.048 35.0035 17.2207 34.9453Z" fill="#A07C5A"/>
<path d="M12.2316 33.7246C11.9489 33.2091 11.3669 33.4169 10.9844 33.2049C10.0864 32.7185 8.75191 34.1736 8.40685 33.0677C7.92045 31.5004 6.38224 30.4694 6.40302 28.7275C6.78134 28.4406 7.07235 28.7025 7.37168 28.8854C7.84146 29.2762 8.24472 29.7418 8.70618 30.1493C8.98472 30.3779 9.25911 30.5983 9.63742 30.6149C9.89102 30.5941 10.1446 30.5484 10.4024 30.5317C10.7848 30.5608 11.0759 30.7105 11.1465 31.1304C11.5789 32.3235 12.8261 31.438 13.4829 32.0492C14.7218 33.3795 12.3106 32.81 12.639 33.6705C12.5184 33.8077 12.3854 33.8285 12.2316 33.7246Z" fill="#D1B699"/>
<path d="M3.93749 15.8191C4.54862 15.287 4.78143 14.5802 4.75233 13.8111C4.65671 11.2669 6.85594 9.8409 7.69572 7.74976C7.93684 7.15111 8.6519 7.03886 9.3046 7.10538C9.85337 7.83707 9.3337 8.42325 8.95538 8.9346C7.69156 10.6433 6.84762 12.5681 5.9538 14.468C5.14312 16.0395 5.40919 17.7814 5.15975 19.4402C5.09323 19.6563 4.98098 19.8476 4.823 20.0097C4.59435 20.1136 4.39064 20.0762 4.20772 19.9058C4.01233 19.2364 4.0539 18.5837 4.31581 17.9394C4.38233 17.2035 4.3075 16.4843 3.93749 15.8191Z" fill="#E1B884"/>
<path d="M4.39924 19.9052C4.49901 19.9551 4.59463 20.0049 4.69025 20.059C5.45104 20.932 5.46351 22.1709 6.17026 23.073C6.3615 24.3327 7.09318 25.4552 7.10566 26.7606C6.91442 27.3426 6.8479 28.0494 5.94576 27.9122C5.397 26.7855 4.85239 25.6589 4.30362 24.5364C4.59048 24.0791 3.9544 24.2745 3.94609 24.0292C3.73822 22.3829 3.04395 20.7449 3.85463 19.082C4.36598 19.6765 4.00014 20.3126 4.09991 20.8988C4.34935 20.7034 3.93362 20.1006 4.39924 19.9052Z" fill="#957858"/>
<path d="M6.78096 33.7268C6.78096 33.5688 6.77746 33.411 6.77746 33.2572C9.14713 35.0407 11.8203 35.6934 14.7512 35.3857C14.905 35.5354 15.0588 35.6851 15.2168 35.8347C11.9907 36.7784 9.20052 35.9925 6.78096 33.7268Z" fill="#B5987A"/>
<path d="M5.94152 27.9067C6.46535 27.5949 6.6067 27.0254 6.86029 26.5306C8.33614 26.7967 9.08862 27.8277 9.57918 29.1248C9.56671 29.3161 9.51682 29.4948 9.42536 29.6653C9.16761 29.948 8.89322 30.1808 8.46918 30.0353C8.16153 29.6445 7.69176 29.3867 7.52131 28.9003C7.55456 28.6093 7.51299 28.6675 7.434 28.9128C7.42984 29.0832 7.3467 29.1705 7.18456 29.183C6.92265 29.0292 6.6649 28.8754 6.40299 28.7216C6.24917 28.4513 6.09534 28.1811 5.94152 27.9067Z" fill="#9E7D53"/>
<path d="M13.4784 32.0443C12.7509 32.0277 12.015 32.0568 11.2958 31.982C10.747 31.9238 10.3604 31.6785 10.9466 31.1048C11.117 30.9967 11.2667 31.0175 11.3873 31.1879C12.2395 32.1857 13.3953 30.7223 14.2683 31.5413C14.0064 31.7117 13.7445 31.878 13.4784 32.0443Z" fill="#947353"/>
<path d="M12.2316 33.7246C12.3688 33.7079 12.5021 33.6908 12.6351 33.6701C13.0176 33.7615 13.4957 33.8156 13.267 34.3893C13.109 34.7925 12.7099 35.0212 12.2984 34.859C11.5625 34.568 12.1401 34.1112 12.2316 33.7246Z" fill="#ECDDC8"/>
<path d="M4.39924 19.9052C4.21216 20.3251 4.53604 20.8572 4.01222 21.3103C3.95402 20.5121 3.90413 19.7929 3.85424 19.0778C3.94986 18.6746 3.72121 18.1466 4.3157 17.9471C4.34065 18.5956 4.37014 19.2483 4.39924 19.9052Z" fill="#6E543C"/>
<path d="M3.94174 24.0211C4.19118 23.8506 4.43646 23.6802 4.6859 23.5097C4.81478 23.7259 5.05175 23.9421 5.04759 24.1541C5.03928 24.6488 4.58613 24.4701 4.29927 24.5324C4.18287 24.362 4.0623 24.1915 3.94174 24.0211Z" fill="#D6C1A2"/>
<path d="M6.42348 32.9089C6.0119 32.6054 5.60033 32.3019 5.1846 31.9984C5.20954 31.7531 5.23033 31.3582 5.53797 31.4995C6.08674 31.7573 6.41932 32.2562 6.42348 32.9089Z" fill="#BDA183"/>
<path d="M5.58395 14.1506C6.38631 11.5731 8.23216 9.54018 9.30475 7.10399C9.45026 6.95016 9.59576 6.8005 9.74543 6.64668C11.1797 7.53635 10.1362 8.45927 9.79116 9.37804C8.29868 11.6272 7.07227 13.9719 7.11384 16.7781C7.10553 16.9943 7.04732 17.1938 6.94339 17.3809C5.68788 18.0918 5.24305 17.2645 5.34282 16.3041C5.4135 15.5932 5.12248 14.8158 5.58395 14.1506Z" fill="#FBEBC0"/>
<path d="M9.34642 9.18343C9.85361 8.3977 10.4937 7.63196 9.74543 6.64668C9.74127 6.52196 9.73721 6.39387 9.74136 6.26915C9.99912 6.1278 10.2569 5.98645 10.5188 5.8451C11.1008 6.27331 11.6371 5.25061 12.2233 5.7869C11.6745 6.7805 11.1299 7.77826 10.5811 8.77186C10.9096 9.21254 10.735 9.51602 10.3109 9.74883C9.83282 9.82782 9.52518 9.61164 9.34642 9.18343Z" fill="#F3D196"/>
<path d="M12.219 5.78672C11.6495 5.72852 11.109 6.64313 10.5145 5.84493C11.9862 5.27122 13.1212 4.0157 14.7425 3.73301C15.0876 3.43784 15.4409 3.16345 15.9398 3.30064C16.3556 3.1884 16.7754 3.07199 17.1912 2.95974C17.0083 3.60413 16.2849 3.66649 15.9357 4.12795C14.9504 4.85548 13.6741 4.8347 12.6264 5.40841C12.4934 5.53728 12.3562 5.662 12.219 5.78672Z" fill="#D2A46C"/>
<path d="M15.9399 3.29616C15.5574 3.4874 15.2332 3.83662 14.7426 3.72853C14.8839 2.87212 15.2664 2.68504 15.9399 3.29616Z" fill="#E8D5B5"/>
<path d="M22.6666 22.8782C21.7187 24.5204 20.5422 25.9796 19.2368 27.3515C19.0955 27.3764 18.9583 27.4014 18.8169 27.4263C18.0686 26.969 17.657 26.0669 16.73 25.8465C16.6634 25.6595 16.6676 25.4765 16.7591 25.2978C18.3472 24.9111 19.1662 23.7222 19.823 22.3627C20.9122 21.4938 21.8185 21.6684 22.5003 22.8741L22.6666 22.8782Z" fill="#EEC47E"/>
<path d="M11.3874 31.1913C11.2419 31.1622 11.0922 31.1372 10.9467 31.1081C10.7056 31.0042 10.4645 30.9003 10.2275 30.7963C10.0695 30.6716 9.99884 30.5095 10.0072 30.3099C10.1028 29.9233 10.2815 29.5949 10.6349 29.387C11.4206 29.2914 11.9403 28.7842 12.4808 28.2687C13.3164 27.4663 14.2393 26.8011 15.4948 26.8843C16.7753 27.5661 15.9397 28.4059 15.6653 29.2041C15.3202 29.6489 14.8338 29.836 14.31 29.9566C13.782 30.1686 13.2707 30.4554 12.672 30.4014C12.2396 30.6633 11.8156 30.9252 11.3874 31.1913Z" fill="#F1CB8D"/>
<path d="M15.6613 29.2002C15.0003 28.5101 16.4886 27.7243 15.5615 27.0467C15.5865 26.2402 16.0022 25.8244 16.8087 25.7995C17.9811 25.7205 19.1576 25.6332 18.8209 27.4209C17.8397 28.1442 16.9251 28.984 15.6613 29.2002Z" fill="#F6D79D"/>
<path d="M12.6681 30.3973C13.1378 29.9732 13.7032 29.8942 14.306 29.9524C13.8404 30.4056 13.4205 31.0126 12.6681 30.3973Z" fill="#8B643B"/>
<path d="M22.504 22.8734C21.8222 22.1084 21.0905 21.6179 20.1302 22.4701C19.7768 22.7902 19.3527 22.8692 19.0202 22.5408C18.5712 22.096 18.9744 21.6511 19.149 21.2271C19.7726 20.7074 18.883 20.167 19.1532 19.6431C19.5897 19.1942 20.151 19.4311 20.6581 19.3771C21.1986 19.5309 21.6767 19.2648 22.1756 19.1526C23.5184 18.6662 23.19 19.8718 23.4893 20.4497C23.4851 21.3851 23.0403 22.1459 22.504 22.8734Z" fill="#EFC78B"/>
<path d="M23.8226 20.3333C23.7893 19.743 23.9847 19.2192 24.2882 18.7286C24.5626 19.003 24.837 19.2815 25.1155 19.5559C25.1155 19.689 25.1197 19.822 25.128 19.955C24.5875 19.7222 24.4212 20.774 23.8226 20.3333Z" fill="#967557"/>
<path d="M19.69 21.2348C19.4322 21.7919 18.4511 22.6109 20.1348 22.4695C19.5195 24.0036 19.1745 25.8494 16.8089 25.3797C16.098 25.9243 15.4329 26.5562 14.6139 26.9054C12.5602 27.7826 11.234 26.9636 10.9928 24.702C10.4191 24.835 10.1739 25.9326 9.35486 25.2923C7.01428 22.1369 6.73574 16.9195 8.73542 13.7641C9.36317 13.2236 10.2321 13.9969 10.8473 13.3733C11.7079 12.8869 12.0821 11.9598 12.7472 11.2988C13.5745 10.4964 14.1316 9.17025 15.7488 10.1846C16.2186 10.4798 16.6219 9.23677 17.4159 9.31991C15.2375 8.08519 17.1207 7.52811 17.7859 6.77979C17.9231 6.6426 18.0936 6.57192 18.2889 6.57192C19.4405 7.86485 19.8895 9.67328 21.3321 10.7583C21.4859 10.9205 21.6439 11.0826 21.7977 11.2448C21.989 11.4609 21.9806 11.7104 21.9848 11.9889C21.989 12.1677 21.303 12.3007 22.1262 12.6915C23.1239 13.1654 22.8745 14.5374 22.2051 15.5268C21.6855 15.8885 21.1159 16.2003 20.8623 16.8364C20.7085 17.0816 20.5048 17.277 20.2512 17.4225C20.1306 17.4849 19.9394 17.6013 19.877 17.5514C18.7047 16.5287 17.9189 17.647 17.1956 17.9755C18.3056 18.7737 18.1684 20.7027 19.69 21.2348Z" fill="#EEBF75"/>
<path d="M20.5295 16.6449C20.5961 15.8717 21.0243 15.4601 21.7934 15.4019C21.9971 15.5848 22.1925 15.7719 22.338 16.0088C22.6082 16.4662 23.0905 16.8777 22.6498 17.4847C22.3879 18.0085 22.1007 18.529 22.1756 19.1526C21.8014 19.8801 21.4317 20.6276 20.567 19.6008C19.6856 18.6238 21.1947 17.6219 20.5295 16.6449Z" fill="#FAEDD3"/>
<path d="M21.3277 10.7537C20.7207 11.2359 20.3923 10.9574 20.0846 10.367C19.4319 9.11983 18.7335 7.89342 18.0517 6.6587C17.6651 6.41757 17.4697 6.07667 17.5029 5.61521C17.7773 5.20363 18.1058 5.08307 18.5215 5.41982C18.7876 6.10577 19.0578 6.79589 19.3239 7.48185C19.9599 7.98073 20.4713 8.66668 21.3526 8.78725C21.3443 9.4441 21.336 10.101 21.3277 10.7537Z" fill="#CF974C"/>
<path d="M21.8392 16.1876C21.8226 15.9257 21.8058 15.6638 21.7934 15.4019C22.5833 14.6577 22.0013 13.7431 22.2757 12.8451C21.4442 13.132 22.1136 13.926 21.5274 14.1962C20.38 13.0945 21.8974 12.2381 21.7935 11.2445C21.9473 10.8579 22.205 10.5752 22.6041 10.4339C23.4647 12.1009 22.9492 13.8678 22.9409 15.5889C22.9367 16.1086 22.5792 16.6657 21.8392 16.1876Z" fill="#E1AF62"/>
<path d="M21.8392 16.1876C22.7954 16.1128 22.6161 15.3775 22.6203 14.7913C22.6327 13.3362 22.6078 11.8853 22.5995 10.4303C22.6992 10.2141 22.6244 9.58218 23.0942 10.1642C23.4392 10.5883 23.4933 11.137 23.4392 11.6858C23.1233 13.1949 23.115 14.7082 23.4434 16.2173C23.4642 16.8159 23.1815 17.2275 22.6494 17.4811C22.6992 16.8492 21.9888 16.6948 21.8392 16.1876Z" fill="#F2CD90"/>
<path d="M21.3529 8.79219C19.3324 10.4426 20.0766 7.8069 19.3241 7.48679C19.6193 7.47432 19.9103 7.46185 20.2054 7.44937C21.0244 7.17083 21.4402 7.43274 21.3778 8.33073C21.3695 8.48039 21.3612 8.63837 21.3529 8.79219Z" fill="#E9B765"/>
<path d="M21.3771 8.32576C21.136 7.8352 20.7327 7.55666 20.2047 7.44441C20.0551 7.20329 19.9054 6.96216 19.7599 6.72104C19.843 6.56721 19.9636 6.52148 20.1257 6.588C21.772 6.85823 21.9217 7.06194 21.3771 8.32576Z" fill="#FBEED0"/>
<path d="M23.4434 16.2173C22.7699 14.7082 22.8115 13.1949 23.4392 11.6858C23.4392 13.1991 23.4434 14.7082 23.4434 16.2173Z" fill="#FCE6B2"/>
<path d="M18.5212 5.42436C18.1761 5.45346 17.8352 5.49503 17.6356 5.84009C17.1908 6.05211 16.7959 6.16852 16.8208 5.43683C17.2324 5.16244 17.6401 4.88332 18.0517 4.60894C18.4549 4.73781 18.5045 5.07098 18.5212 5.42436Z" fill="#B07941"/>
<path d="M20.1257 6.588C20.0135 6.65868 19.8929 6.70441 19.7599 6.72104C19.4689 6.48407 19.2695 6.18888 19.6894 5.93944C19.9513 5.78147 20.338 5.70663 20.5708 6.01428C20.6082 6.06416 20.2837 6.39261 20.1257 6.588Z" fill="#D6A360"/>
<path d="M9.28431 13.7194C7.27217 17.6855 7.56318 21.556 9.77903 25.3433C11.5417 26.6695 11.7454 27.3679 10.8974 29.1846C9.42982 28.7315 9.7333 27.0603 8.84779 26.208C8.60667 25.8255 8.32397 25.4763 8.01633 25.1437C7.90408 25.0024 7.81678 24.8444 7.75857 24.674C7.58812 24.0753 7.66711 23.4309 7.45925 22.8364C7.38857 22.6743 7.33037 22.5038 7.26385 22.3417C7.06014 21.8387 6.85644 21.3398 6.73172 20.8118C6.53216 19.8972 6.79408 18.9909 6.79823 18.0804C6.81486 17.7312 7.11003 17.4069 6.88969 17.0369C6.85228 16.9122 6.81902 16.7917 6.78992 16.6628C7.58397 14.1476 8.36139 11.6241 10.174 9.59534C10.3112 9.32096 10.4481 9.04624 10.5811 8.77186C10.9927 8.90489 11.4045 9.0341 11.8161 9.16714C11.8743 9.24612 11.9284 9.32511 11.9866 9.4041C11.5833 11.1543 10.2987 12.3558 9.28431 13.7194Z" fill="#CB9B5B"/>
<path d="M16.8208 5.43683C16.9788 5.80267 17.2947 5.8484 17.6356 5.84009C17.9682 6.0147 18.0392 6.32662 18.0517 6.66337L18.0559 6.74236C16.4927 7.25786 14.8921 7.6445 13.3123 8.09349C13.225 8.03113 13.1419 7.97292 13.0546 7.91056C13.8819 6.43471 15.5445 6.22672 16.8208 5.43683Z" fill="#D3A05E"/>
<path d="M12.6307 5.40914C13.5702 4.56105 14.7426 4.30745 15.9399 4.12869C15.1625 5.40083 13.8405 5.2678 12.6307 5.40914Z" fill="#F8D79B"/>
<path d="M11.8116 9.16628C11.7908 8.31819 12.2439 7.93987 13.0505 7.91077L13.0629 7.9274C13.1461 8.84201 13.038 9.56954 11.8116 9.16628Z" fill="#CB9B5B"/>
<path d="M7.18438 29.1876C7.20101 29.0255 7.22179 28.8634 7.23842 28.7054C7.40056 28.5682 7.53359 28.5848 7.63337 28.7761C7.91191 29.1627 8.54382 29.2791 8.49809 29.911C8.62697 30.0856 8.6145 30.2478 8.46899 30.4057C8.04079 29.9983 7.61258 29.5951 7.18438 29.1876Z" fill="#7F6146"/>
<path d="M8.47311 30.4058C8.48142 30.2395 8.48974 30.0774 8.50221 29.9111C8.74749 29.8113 8.99277 29.7116 9.23805 29.6076C9.84502 29.9943 9.83671 30.568 9.71615 31.1749C9.02603 31.3579 8.76828 30.8507 8.47311 30.4058Z" fill="#7A5B3D"/>
<path d="M9.71237 31.1745C9.55439 30.6507 9.39641 30.131 9.23428 29.6072C9.28832 29.5615 9.34653 29.5157 9.40057 29.47C10.02 29.5033 10.0907 29.9273 10.0741 30.4137C10.1032 30.5468 10.1568 30.6758 10.2275 30.7963C10.0529 30.9211 9.88282 31.0456 9.71237 31.1745Z" fill="#9E7D53"/>
<path d="M7.21356 17.8919C7.18446 18.8689 7.15952 19.8458 7.13042 20.8228C6.61907 21.6501 7.82053 22.7269 6.74379 23.471C6.4403 23.5666 6.16592 23.5375 5.94142 23.2881C4.98524 22.4192 4.64849 21.3134 4.69423 20.0579C4.71917 19.8916 4.74411 19.7211 4.7649 19.5548C5.12243 18.3243 5.58805 17.2517 7.21356 17.8919Z" fill="#F1C882"/>
<path d="M7.21355 17.893C5.93725 17.7682 5.38017 18.6995 4.76489 19.5517C4.7441 17.7059 4.55293 15.8344 5.58395 14.1506C5.60058 14.8865 5.57557 15.6272 5.64624 16.3548C5.72107 17.1239 5.94973 17.7641 6.88512 17.0324C7.20524 17.2403 7.25097 17.5521 7.21355 17.893Z" fill="#EDC78B"/>
<path d="M5.93699 23.2834C6.23216 23.2876 6.52733 23.2917 6.8225 23.2959C7.19666 23.1337 6.83082 22.2316 7.62487 22.4935L7.63734 22.4977C8.25678 23.2252 7.41284 24.2271 8.09464 24.938H8.0988C8.31914 25.2623 8.33993 25.7861 8.91779 25.7445C10.1317 26.5303 10.1525 27.9147 10.5974 29.087C10.7054 29.1868 10.7387 29.2866 10.6971 29.3822C10.6556 29.4737 10.614 29.5194 10.5766 29.5194C10.5558 29.9019 10.4602 30.2386 10.0735 30.4091C9.84903 30.0931 9.62454 29.7813 9.40004 29.4653C9.05914 28.0518 7.70801 27.5072 6.85576 26.5303C6.46913 25.4743 5.71665 24.5181 5.93699 23.2834Z" fill="#F7D79D"/>
<path d="M7.63337 28.7761C7.50865 28.722 7.37561 28.7012 7.23842 28.7054C7.15112 28.4102 7.06865 28.1103 6.98134 27.8151C7.14763 27.8359 7.36797 27.7943 7.46775 27.8816C7.73382 28.1145 8.15719 28.3728 7.63337 28.7761Z" fill="#C6AD89"/>
<path d="M10.1695 9.59493C9.15508 12.0062 8.26957 14.4756 6.78541 16.6624C6.38215 13.7398 7.88304 11.47 9.34642 9.18343C9.6208 9.32063 9.89509 9.45774 10.1695 9.59493Z" fill="#F0C788"/>
<path d="M10.5769 29.5207C10.5853 29.3752 10.5894 29.2338 10.5977 29.0883C11.6412 27.5501 10.3317 26.5274 9.77458 25.3426C10.394 24.9227 10.3857 24.1411 10.8347 23.4843C11.1008 23.7295 11.3668 23.9291 11.5581 24.1785C11.6703 24.324 12.5475 26.2904 12.5766 26.3112C13.749 26.9722 14.701 26.5274 15.6489 25.7749C15.9482 25.538 16.4138 25.5047 16.8005 25.3758C16.8005 25.5172 16.8046 25.6585 16.8046 25.7999C16.3889 26.2156 15.9731 26.6313 15.5574 27.0471C14.3019 27.5252 13.0505 27.9866 12.2898 29.2214C11.8657 29.9198 11.2504 30.0029 10.5769 29.5207Z" fill="#E8B76D"/>
<path d="M19.69 21.2348C18.4386 21.4967 18.2138 19.6473 16.6714 20.1379C17.1911 19.4395 17.5029 19.0237 17.8313 18.5789C17.6276 18.5249 17.4945 18.4417 17.3948 18.4708C16.979 18.5914 16.5093 19.4852 16.2016 18.4334C16.0811 18.026 16.0935 17.4107 16.7795 17.3275C17.453 17.2486 18.538 17.7474 18.0017 16.2217C17.9186 15.9847 18.6669 15.7561 18.8332 16.3589C19.0369 17.0947 19.3404 17.4814 20.1303 17.0656C20.6375 18.1299 20.2841 18.9156 19.3321 19.506C19.0993 20.1545 20.2928 20.5114 19.69 21.2348Z" fill="#F0C580"/>
<path d="M19.3321 19.506C19.5982 18.6911 19.8642 17.8805 20.1303 17.0656C20.2633 16.9243 20.3965 16.7863 20.5295 16.6449C21.1116 16.4163 21.5027 16.438 21.2699 17.2362C21.0371 18.0261 20.7998 18.8109 20.567 19.6008C20.1013 20.2368 19.7187 19.8386 19.3321 19.506Z" fill="#FDF8ED"/>
<path d="M11.8116 9.16628C12.6098 9.13718 12.809 8.50036 13.0667 7.92665C14.6507 7.19912 16.1767 6.21853 18.0559 6.74236C18.376 7.94382 17.0079 7.50676 16.7085 8.11373C17.0286 8.74149 17.5982 9.06992 18.6458 9.63116C16.8956 9.51059 16.2762 10.2922 16.1431 11.6433C14.7005 9.627 14.6756 9.63116 13.0917 11.6682C11.6491 11.5976 11.9442 13.2813 11.0088 13.7261C10.431 14.5659 9.85726 14.146 9.28355 13.7178C9.47063 11.8387 11.2711 10.85 11.8116 9.16628Z" fill="#EEC27D"/>
<path d="M11.0088 13.7261C11.3581 12.8614 11.5369 11.9103 12.3642 11.295C12.9255 10.8751 13.0336 11.1869 13.0876 11.6692C12.2229 12.1764 12.1854 13.5266 11.0088 13.7261Z" fill="#F5E1B6"/>
<path d="M10.5105 16.4411C10.3816 16.6323 10.2819 16.7737 10.1862 16.9109C10.0491 16.8028 9.83287 16.7113 9.79961 16.5783C9.76635 16.4411 9.92017 16.2623 9.99085 16.1002C10.1447 16.2041 10.2985 16.3039 10.5105 16.4411Z" fill="#F4D6A6"/>
<path d="M7.6252 22.4948C7.35913 22.7609 7.0889 23.0311 6.82283 23.2972C7.2843 22.5156 5.79592 21.4963 7.13042 20.8228C7.29671 21.3799 7.45891 21.9377 7.6252 22.4948Z" fill="#F4CD8D"/>
<path d="M8.9226 25.7452C8.85608 26.0528 8.81451 26.5725 8.43203 26.4145C7.75855 26.1401 7.76686 25.5331 8.1036 24.9386C8.6108 24.9719 8.86855 25.2546 8.9226 25.7452Z" fill="#F4CD8D"/>
<path d="M8.09896 24.9392C6.89334 24.3239 8.01997 23.2679 7.64165 22.4988C8.39829 23.1972 7.95345 24.1243 8.09896 24.9392Z" fill="#F4CD8D"/>
</svg>
