<svg width="47" height="46" viewBox="0 0 47 46" fill="none" xmlns="http://www.w3.org/2000/svg">
<path d="M28.3089 0.654273C29.0155 0.935282 29.7271 1.21127 30.4336 1.49228C33.8907 3.08801 37.792 3.95111 40.1893 7.30817C40.9816 9.11465 42.425 10.4996 43.4142 12.1857C45.0141 14.9055 45.0595 15.2517 43.1316 17.7808C42.0314 18.393 41.4308 19.8984 39.8309 19.6324C39.4272 19.1457 39.3767 18.5736 39.4423 17.9915C39.407 17.8109 39.5937 17.565 39.306 17.4295C39.2909 17.5801 39.2556 17.7306 39.2001 17.8862C38.2462 19.1808 37.252 19.1858 36.2275 17.9815C36.6312 16.0445 38.2361 14.7148 38.6752 13.1742C38.978 12.5771 38.4128 12.7276 38.7408 12.7828C38.7862 12.7929 38.7862 12.8732 38.7055 13.0086C37.2621 15.4223 36.3536 18.1872 34.1128 20.0941C33.5829 20.3249 32.9874 20.631 32.518 20.1292C32.0133 19.5873 32.5029 19.0554 32.8057 18.6087C33.3204 17.856 33.6939 17.0532 33.8655 16.16C34.0119 15.603 34.2188 15.061 34.3702 14.504C34.9657 13.1943 33.5274 12.8982 33.1438 12.0803C32.9167 11.162 33.2044 10.4595 34.022 9.97274C34.2945 9.97775 34.5721 10.2688 34.7437 9.68671C34.9153 9.08455 35.4401 8.73328 36.1063 9.27021C36.3587 9.6014 36.4949 9.98277 36.606 10.3742C36.6766 10.61 36.7372 10.6753 36.722 10.5749C36.6968 10.4143 36.6918 10.2537 36.722 10.0882C36.7473 9.92256 36.7776 9.75696 36.8381 9.6014C37.1308 8.82361 37.4841 8.15119 36.4192 7.51391C35.4149 6.91676 35.6319 8.60282 34.8597 8.1512C34.4913 7.83004 34.3601 7.38846 34.2087 6.95691C33.9513 6.32464 33.4416 5.95832 32.8763 5.61208C31.4481 4.73894 30.6204 4.91457 30.686 6.78128C30.257 8.01571 30.4488 9.55122 28.9852 10.2939C27.0169 9.86736 28.642 7.85011 27.5266 7.04723C27.3247 6.3698 27.2137 5.70742 27.7941 5.15544C26.9059 6.0085 27.5922 7.16265 27.2591 8.12109C26.815 9.11466 27.2743 10.4244 26.169 11.1821C25.841 11.152 25.5079 11.1269 25.7552 10.6502C25.5583 10.7305 25.5583 10.886 25.6139 11.0466C25.8208 11.6538 26.1741 12.2058 26.27 12.8531C26.3255 13.6058 26.4314 14.3836 25.4877 14.7148C23.7768 13.4201 24.4682 11.4129 24.1048 9.70176C22.7472 10.043 23.0753 11.1219 22.8784 11.9599C22.7069 12.6975 22.934 13.7714 21.5915 13.6459C20.4559 12.823 20.7133 11.5835 20.6073 10.4444C20.4509 8.72827 21.001 6.96192 20.2086 5.311C19.063 5.09522 19.3305 6.54543 18.5381 6.72608C17.7256 7.73972 18.7249 9.00426 18.0738 10.043C17.4884 11.2624 16.8121 11.5785 15.9693 10.2537C15.7926 9.97274 15.6362 9.67667 15.51 9.37057C15.0558 8.2917 14.5965 7.20781 15.2526 6.04363C13.9505 6.73611 13.4559 5.55186 12.7191 4.95472C11.4473 3.92602 12.497 3.38909 13.249 2.9726C14.329 2.37545 15.6564 2.29015 16.6203 1.41701C16.8525 1.34174 17.0846 1.33672 17.3218 1.3869C17.7912 1.61271 18.0536 1.99408 18.2959 2.44571C18.412 2.65646 17.5944 3.63999 18.7551 3.08801C20.0825 2.46076 21.7732 3.09303 22.939 1.87867C23.1661 1.64784 23.6203 1.57759 23.8777 1.74318C25.306 2.68657 24.3017 1.0808 24.7105 0.975426C25.846 0.237777 27.1935 1.71809 28.3089 0.654273Z" fill="#D0BBA5"/>
<path d="M32.3518 44.1248C27.5875 46.147 22.6971 46.5635 17.6755 45.2287C17.7562 44.8524 17.9833 44.6015 18.3215 44.4359C18.6647 44.3205 19.0179 44.3155 19.3763 44.3707C20.527 44.6717 21.3849 44.3355 22.0713 43.3319C22.4751 42.7398 22.7678 41.7563 23.8781 42.2731C24.4989 42.8954 23.8983 43.6731 24.1304 44.3857C25.1852 44.5162 25.7454 43.8789 26.3511 42.9807C25.4477 42.5842 24.302 42.9455 23.656 42.0774C23.4743 41.686 23.5299 41.3247 23.8024 40.9935C24.1405 40.7426 24.5291 40.6172 24.943 40.562C26.8305 40.5971 28.7483 40.1806 30.5854 40.9082C31.6301 42.1928 30.2977 42.5692 29.6719 43.2366C30.0454 43.5377 30.4239 43.2165 30.7974 43.2416C31.1507 43.2015 31.4989 43.2215 31.8421 43.3219C32.1853 43.4825 32.4527 43.6882 32.3518 44.1248Z" fill="#BDA790"/>
<path d="M18.2408 44.7319C18.0541 44.8974 17.8673 45.063 17.6806 45.2286C13.8197 45.063 10.3929 43.6429 7.1629 41.6458C6.42101 40.2508 4.96751 39.1568 5.31574 37.3052C5.4621 36.9539 5.71445 36.693 6.05259 36.5224C8.24294 36.4019 9.55513 38.2385 11.3972 38.9009C11.483 39.1167 11.5335 39.3375 11.5436 39.5683C11.6092 41.425 12.3763 42.7748 14.274 43.3067C15.1218 43.6229 16.0353 43.5677 16.8983 43.7734C17.2314 43.8637 17.5342 44.0143 17.8219 44.21C18.0036 44.3455 18.1399 44.5211 18.2408 44.7319Z" fill="#BCA58E"/>
<path d="M37.9943 31.2087C37.2372 31.9865 36.132 31.299 35.173 31.8912C35.8443 32.3177 36.4297 32.684 37.0202 33.0553C37.9337 34.7113 39.8212 36.1665 38.1406 38.3644C37.323 39.3228 36.5458 40.3616 35.0368 40.0906C34.6734 39.9852 34.3908 39.7895 34.2697 39.4132C34.5321 38.5551 35.3043 38.2139 35.9856 37.7873C36.132 37.697 36.2985 37.697 36.46 37.7622C36.2077 37.5766 35.8847 37.5716 35.6172 37.426C34.9308 36.6382 33.8659 36.3421 33.1694 35.5644C32.9373 35.1378 32.9423 34.7013 33.1392 34.2647C33.225 33.9837 33.7801 33.9235 33.6035 33.5923C33.4622 33.3263 33.018 33.4769 32.7051 33.4066C32.2206 33.2711 31.8472 33.0252 31.7311 32.5034C31.9683 31.6352 32.7808 31.575 33.4319 31.279C34.9409 30.7621 36.4499 29.889 37.9943 31.2087Z" fill="#D1BFAB"/>
<path d="M17.2464 1.57195C17.0697 1.57697 16.8931 1.58199 16.7114 1.58701C13.9912 2.96194 11.0185 3.85515 8.58594 5.78709C7.47058 6.77564 6.36026 7.76419 5.53257 9.01368C4.10431 10.4689 3.65513 12.3858 3.03437 14.2224C2.47921 15.3565 3.31194 16.5257 2.95362 17.6647C2.77193 18.2569 2.61547 18.864 2.03004 19.2153C0.334283 14.127 2.69118 8.09538 7.98031 4.50749C11.0488 2.42502 14.4252 0.924628 18.1851 0.48806C18.4829 0.337519 18.8008 0.237159 19.0835 0.483042C19.4065 0.764051 19.2551 1.06011 19.0128 1.30098C18.493 1.81282 17.9126 1.97841 17.2464 1.57195Z" fill="#BAA48D"/>
<path d="M37.9943 31.2087C36.3742 30.8424 34.8596 31.449 33.3102 31.6999C32.3816 31.0175 32.4119 30.8167 33.5525 29.8031C34.1177 29.5321 34.7133 29.3715 35.3441 29.3715C37.3326 29.5472 39.311 29.6927 40.502 27.5751C41.6224 26.6417 43.0356 26.1148 44.0147 24.9958C44.4033 24.6094 44.7061 24.1076 45.3067 23.9822C45.6953 24.0324 45.8214 24.3535 45.9981 24.6295C44.5951 28.3428 41.7794 30.3556 37.9943 31.2087Z" fill="#BAA894"/>
<path d="M39.9527 7.55892C37.3788 4.518 33.9065 3.05274 30.1718 2.04914C30.0507 2.01903 29.9498 1.90361 29.8438 1.82834C30.0406 1.71795 30.2374 1.60755 30.4343 1.49715C38.6556 3.5144 44.1063 8.43707 46.4632 16.6064C46.2714 16.777 46.0493 16.8423 45.797 16.8071C44.7018 16.1297 44.6362 14.8501 44.1921 13.8415C43.1474 11.478 41.4769 9.57617 39.9527 7.55892Z" fill="#BCA693"/>
<path d="M17.2464 1.57195C17.8318 1.43145 18.4829 1.41029 18.816 0.773C18.6041 0.677658 18.392 0.583402 18.1851 0.48806C18.9775 -0.129157 19.891 0.125676 20.7692 0.130694C21.8997 1.33502 23.6863 -0.225586 24.7915 1.08412C24.7209 2.0827 26.0987 2.09776 26.1542 3.24187C24.8571 2.87555 23.6812 1.14935 22.2328 3.28201C21.7382 4.00962 19.5075 3.72861 18.1044 3.59313C17.7511 3.55298 17.529 2.27448 17.2464 1.57195Z" fill="#D7C2AC"/>
<path d="M7.55605 25.1827C6.40536 24.3799 5.24962 23.577 4.09893 22.7741C3.31667 21.645 2.43851 20.5662 2.03476 19.2163C2.13569 18.6593 1.97419 18.012 2.56468 17.6206C3.69518 17.6708 4.41184 18.1324 4.32604 19.3819C4.04846 19.7332 3.44284 19.969 3.89706 20.6163C3.89201 20.25 3.76584 19.8687 4.11912 19.6127C6.0975 20.2601 7.21791 21.5497 7.84372 23.6773C8.04055 24.3397 9.26694 24.5655 8.76225 25.6043C8.17682 25.9856 7.92952 25.4086 7.55605 25.1827Z" fill="#AF9A83"/>
<path d="M24.7863 1.08616C23.4791 1.07612 22.172 1.1263 20.8749 1.04099C19.487 0.955688 20.663 0.453886 20.769 0.132733C23.3176 -0.188421 25.8258 0.107308 28.3089 0.654273C27.3601 2.63639 25.9622 0.940634 24.7863 1.08616Z" fill="#C1AB97"/>
<path d="M32.3518 44.1248C32.1802 43.9742 32.0089 43.8239 31.8373 43.6733C32.0291 42.5041 32.6953 41.6109 33.5381 40.8231C34.7948 40.7177 35.9656 38.9664 37.3132 40.6324C36.0716 42.3737 34.3403 43.4222 32.3518 44.1248Z" fill="#BDA891"/>
<path d="M45.9782 16.6013C46.1397 16.6064 46.3012 16.6064 46.4627 16.6114C47.1037 19.3311 47.4062 22.0302 45.9981 24.6295C45.8164 24.4589 45.635 24.2839 45.4584 24.1133C44.777 22.5979 45.4937 21.0423 45.3019 19.5118C45.312 18.4881 45.1606 17.4293 45.9782 16.6013Z" fill="#AF9880"/>
<path d="M37.3183 40.6324C35.7739 39.413 34.7797 41.7765 33.3363 41.2345C32.0998 41.0037 31.9232 40.5069 33.0183 39.7994C33.6038 39.423 34.3002 39.975 34.9261 39.699C36.2938 39.8797 36.9398 38.7054 37.9037 38.1334C38.4134 38.0531 38.6759 38.2187 38.5245 38.7707C38.1207 39.3929 37.717 40.0151 37.3183 40.6324Z" fill="#A79079"/>
<path d="M5.5982 37.1937C5.49726 38.8898 7.39993 39.8934 7.15768 41.6447C6.34009 41.3587 5.55277 41.0225 5.03295 40.2798C4.99257 39.3766 3.95796 38.9852 3.90244 38.087C3.96805 37.4346 4.33648 37.0532 4.97743 36.9228C5.21968 36.9328 5.4266 37.0282 5.5982 37.1937Z" fill="#D6C5B1"/>
<path d="M1.16702 35.1528C0.430171 33.5671 -0.367237 31.9914 0.182874 30.1498C0.389796 30.0294 0.591671 30.0394 0.7885 30.1849C1.57077 31.2337 1.91395 32.5384 2.76688 33.547C2.89305 33.8431 2.92838 34.1492 2.83753 34.4653C2.58014 34.922 1.99975 34.937 1.66161 35.2933C1.45974 35.3736 1.29319 35.3234 1.16702 35.1528Z" fill="#B29D89"/>
<path d="M1.16702 35.1528C1.30833 35.1528 1.44501 35.1579 1.58632 35.168C3.54956 35.2282 3.58994 36.8992 4.11986 38.1587C4.52866 38.8211 5.64402 39.1874 5.03839 40.2813C3.36787 38.8512 1.9291 37.2503 1.16702 35.1528Z" fill="#BCA795"/>
<path d="M38.524 38.7766C38.3171 38.5659 38.1102 38.3501 37.9083 38.1393C38.5846 36.5737 38.6451 35.1486 37.0604 34.0346C36.7021 33.7837 36.5305 33.4023 37.02 33.0611C39.5081 35.1335 39.816 36.3128 38.524 38.7766Z" fill="#BCAA99"/>
<path d="M0.510425 30.1292C0.399394 30.1392 0.293409 30.1442 0.182378 30.1442C0.0763931 29.542 -0.0548259 28.9349 0.565941 28.5033C1.74186 27.8911 2.54937 26.6115 4.04829 26.5814C4.55298 26.3255 4.99206 26.3004 5.23431 26.9327C3.95745 28.147 2.20113 28.7843 1.15643 30.2797C0.909129 30.37 0.692113 30.3198 0.510425 30.1292Z" fill="#B5A08A"/>
<path d="M8.13697 5.55049C10.5494 3.27733 13.633 2.4343 16.7116 1.58124C16.1565 3.78917 13.4261 2.47946 12.5227 4.18559C12.9366 4.55692 13.8803 4.18559 13.9459 5.12396C13.9661 5.38991 13.845 5.84655 14.3295 5.88168C15.0714 5.93688 15.3591 4.07519 16.2574 5.26446C16.7419 5.90677 15.1572 6.31825 15.3893 7.10106C15.7376 8.28531 16.1817 9.46957 16.7924 10.5334C17.0649 11.0051 17.3324 10.142 17.7008 10.0868C17.7967 10.152 17.8976 10.2172 17.9935 10.2775C18.8263 11.9334 18.6345 13.7449 18.8717 15.441C19.119 13.1377 17.7109 10.8294 18.5739 8.44589C19.1341 8.01434 19.8508 7.57275 19.8962 8.71686C19.9315 9.6452 20.3101 10.6337 19.8205 11.552C20.5826 10.4732 19.1644 8.8674 20.628 7.94409C21.4658 9.04805 20.8147 10.3176 21.0116 11.4918C21.1377 12.2395 20.6482 13.208 21.7938 13.5743C22.7225 12.5958 21.9957 11.3413 22.3439 10.2875C22.5509 9.6753 22.3793 8.76704 23.7823 8.95271C25.0995 9.12834 24.8623 9.79072 24.7765 10.4682C24.5999 11.8983 25.2509 13.203 25.3115 14.5879C25.5992 14.869 25.6749 15.2202 25.6446 15.6016C25.4326 16.9013 24.9128 18.1407 24.8926 19.4805C24.8623 19.8368 24.7967 20.1881 24.7008 20.5343C24.4687 21.2017 24.4031 21.9092 24.2062 22.5867C24.1204 22.8075 23.9842 22.9981 23.8176 23.1688C23.6107 23.2992 23.3786 23.3946 23.1363 23.3594C22.672 23.2942 22.3389 22.9781 22.0008 22.687C22.1824 23.0433 22.6114 23.234 22.7326 23.6053C22.9445 24.2476 22.4146 24.4082 21.9604 24.5838C19.2351 24.3881 16.4593 23.7157 13.9358 25.4319C13.6936 25.5322 13.4463 25.5975 13.1889 25.6376C12.5479 25.7229 11.9171 25.7079 11.3367 25.3667C11.5487 24.6491 11.0944 22.9731 10.3929 21.9042C10.3576 21.6734 10.3778 21.4426 10.4484 21.2218C10.4787 20.8153 11.5789 21.021 10.9985 20.2633C11.0389 20.0225 11.1348 19.8167 11.2862 19.626C12.1442 18.8583 13.1031 18.4368 14.279 18.7328C15.1067 19.0189 14.925 20.0676 15.5458 20.4339C14.814 19.2848 14.3194 17.9601 13.7642 16.6604C12.664 14.4876 12.0382 12.1442 11.2055 9.87603C10.943 9.15845 11.0642 8.11972 9.92356 7.95914C8.06126 8.09463 9.03026 6.14764 8.13697 5.55049Z" fill="#D7C2AC"/>
<path d="M24.2918 20.5955C24.2968 20.2593 24.3019 19.9231 24.3069 19.5869C24.9983 18.4076 25.069 17.0377 25.4778 15.7732C26.2954 13.6104 26.2298 11.272 26.8303 9.06409C26.9868 8.30637 26.9817 7.46836 27.8448 7.07194C28.6977 7.16226 28.9551 7.62894 28.6523 8.3967C28.41 9.00889 28.1425 9.60102 28.8592 10.0878C29.596 12.1452 28.2081 13.8061 28.0719 15.713C28.4655 12.5566 30.2067 9.7616 30.348 6.52497C30.4187 5.78732 29.4547 4.97942 30.4641 4.31704C31.2565 3.79517 31.7914 4.45253 32.4425 4.76365C33.3963 5.21527 34.4612 5.46115 34.8852 6.59523C33.9111 9.66124 32.4677 12.5416 31.3221 15.5373C30.6256 16.7316 30.1209 18.0263 29.3538 19.1854C29.2226 19.3862 29.0661 19.5768 29.0156 19.8177C29.2377 19.7073 29.3487 19.4414 29.6213 19.3912C30.8477 19.2256 31.5795 18.3725 32.387 17.5646C32.9623 16.9875 33.2399 15.9237 34.3906 16.0994C34.5117 17.6198 33.5477 18.6335 32.6645 19.6872C33.1541 20.3245 33.5225 19.6019 33.9364 19.617C34.4612 20.2794 34.0777 20.9618 33.9969 21.6342C33.8405 22.8235 33.038 23.8422 33.0683 25.0716C32.8563 25.6988 33.3459 25.8293 33.7648 26.0099C34.1433 26.4666 34.0726 27.1089 33.7042 27.3046C32.1851 28.1125 34.0979 27.8766 33.9565 28.2279C33.8909 29.3921 34.7994 28.243 35.0467 28.6745C35.5362 28.7899 35.9753 28.9656 36.0207 29.5577C35.8643 29.7935 35.6674 29.8287 35.4403 29.6631C34.9104 29.8136 34.3754 29.9591 33.8455 30.1097C32.9118 29.7885 32.6393 31.0681 31.7864 30.9477C30.2319 30.7269 29.157 29.5577 27.7892 28.9605C27.3047 28.6344 26.901 28.2229 26.5427 27.7663C26.0582 26.8229 25.0538 26.4616 24.3019 25.8193C24.1706 25.6386 24.1202 25.4279 24.1404 25.2071C24.2766 24.921 24.5037 24.7203 24.7611 24.5547C24.9075 24.4544 25.0589 24.349 25.1901 24.2386C25.2254 23.3654 24.2968 23.7669 23.999 23.3454C23.9284 23.2651 23.8628 23.1848 23.7921 23.1045C23.7921 22.9339 23.7921 22.7683 23.7921 22.5977C24.1959 22.0005 24.2463 21.298 24.2918 20.5955Z" fill="#D3BFA9"/>
<path d="M45.9782 16.6013C45.9732 17.5999 45.968 18.599 45.9579 19.6026C45.2615 20.1245 43.8181 19.8435 44.1915 21.5596C44.3076 22.0865 42.945 22.4528 42.3595 23.0249C41.2442 24.1991 40.1793 25.4436 38.5138 25.8902C37.888 24.8565 36.3386 25.288 35.7531 24.179C37.5347 21.3187 40.7142 19.9739 42.9601 17.6154C44.1512 14.419 43.3992 11.6942 40.6032 9.17514C40.1086 8.72854 39.014 8.56253 39.9527 7.55892C43.2433 9.72671 44.3178 13.3547 45.9782 16.6013Z" fill="#D4C2AD"/>
<path d="M32.9272 25.1758C32.5386 25.0855 31.9683 25.0504 32.3367 24.4633C32.8767 23.6002 33.1341 22.6568 33.3663 21.6933C34.4261 20.5342 34.6987 18.7176 36.4146 18.1104C37.3331 18.3664 38.2921 18.8381 38.9179 17.6237C39.2409 17.2975 39.579 17.2975 39.9272 17.5886C39.9323 18.266 39.9373 18.9434 39.9424 19.6209C39.4024 21.9442 36.8638 22.3055 35.6424 23.9665C34.845 24.6038 34.2848 25.773 32.9272 25.1758Z" fill="#D8C4AE"/>
<path d="M34.3906 16.0994C32.8059 17.1782 32.5581 19.9835 29.8277 19.5871C29.2675 18.1168 30.5343 17.2136 30.938 16.0393C31.1904 15.653 31.3468 15.1963 31.796 14.9655C32.6691 15.0759 33.2848 14.6443 33.7996 14.0121C34.3598 13.8465 34.6677 14.1476 34.8948 14.5992C34.7282 15.101 34.5571 15.6026 34.3906 16.0994Z" fill="#D9C6AF"/>
<path d="M36.414 18.1122C35.1927 19.1309 34.8444 20.8872 33.3657 21.6951C33.5524 21.0076 33.7392 20.3151 33.9259 19.6226C36.3888 17.2441 37.3628 13.877 39.533 11.2877C39.2907 13.9322 37.489 15.8591 36.414 18.1122Z" fill="#B8A086"/>
<path d="M20.7189 8.04533C19.7297 9.26973 20.6533 10.7902 19.8861 12.5515C19.7802 11.0009 19.7297 9.89196 19.6186 8.79302C19.5379 8.01522 19.0534 8.56219 18.7304 8.57222C18.4579 8.74785 18.2358 8.70269 18.0541 8.43172C18.0844 7.79443 17.6958 7.09692 18.3266 6.54494C19.2654 6.17361 18.0137 3.72983 20.2243 4.56282C20.845 5.66177 21.2841 6.78079 20.7189 8.04533Z" fill="#C9B39C"/>
<path d="M31.8875 15.1199C31.7109 15.4411 31.5342 15.7673 31.3526 16.0884C30.8882 16.2089 30.651 16.0985 30.8226 15.5716C31.9077 12.4604 33.0231 9.35925 34.8803 6.5893C34.8904 7.08107 34.9005 7.56782 34.9106 8.05958C35.2538 8.86749 34.7592 9.43954 34.3605 10.0417C33.7599 10.5937 33.4521 11.2812 33.3814 12.084C33.6691 12.6511 33.4167 13.1579 33.1947 13.6647C32.8969 14.2769 32.5335 14.8239 31.8875 15.1199Z" fill="#BBA287"/>
<path d="M30.348 6.52368C31.0849 7.0857 31.0849 8.01403 30.7316 8.54594C29.1418 10.9195 29.4446 13.9152 27.9255 16.5396C27.3199 14.1009 29.056 12.2292 28.8643 10.0865C29.8787 9.11298 29.4345 7.54234 30.348 6.52368Z" fill="#E6D7C5"/>
<path d="M34.3648 10.047C34.3194 9.32442 34.5364 8.67208 34.9149 8.0649C35.8738 8.32082 34.5667 5.86701 36.3936 6.91075C37.4888 7.53801 38.5335 7.76382 37.4939 9.26922C37.2415 9.63052 37.4282 10.2578 36.9437 10.5789C36.4138 10.4284 36.9437 9.20399 35.9041 9.57532C35.036 8.57674 35.1622 10.8148 34.3648 10.047Z" fill="#D3BFA9"/>
<path d="M20.7189 8.04533C20.5523 6.88617 20.3908 5.72199 20.2243 4.56282C21.8443 4.41228 21.1625 5.65227 21.2483 6.33974C21.5511 8.74337 20.784 11.2273 21.7934 13.5858C21.1323 15.1413 20.8648 13.8266 20.8345 13.385C20.7235 11.6087 20.7441 9.82673 20.7189 8.04533Z" fill="#EEDECD"/>
<path d="M35.4047 23.65C36.8532 22.2299 38.8063 21.3769 39.9418 19.6155C41.0875 19.1539 41.4963 17.5983 42.9599 17.6083C41.0522 20.2528 38.3924 22.1045 35.9195 24.1468C35.7327 24.2974 35.5359 24.3124 35.3239 24.197C35.1826 23.9913 35.2079 23.8106 35.4047 23.65Z" fill="#B9A38B"/>
<path d="M27.2597 9.01774C26.7702 11.3712 26.2857 13.7246 25.7962 16.0781C25.3369 16.2086 25.1098 16.0982 25.2713 15.5813C25.2864 15.2551 25.2965 14.929 25.3116 14.6028C26.0081 14.0408 25.7305 13.263 25.7659 12.5554C25.5085 12.0637 25.4429 11.5769 25.8264 11.1103C26.8156 10.2923 25.8214 8.86218 26.7904 8.03922C27.1941 8.24496 26.962 8.7568 27.2597 9.01774Z" fill="#B69E86"/>
<path d="M32.8212 13.5758C33.0079 13.079 33.1946 12.5822 33.3814 12.0855C34.4463 12.5873 36.1262 12.7275 34.8948 14.5992C34.5617 14.4286 34.2242 14.2532 33.8911 14.0826C33.2956 14.4138 32.8363 14.464 32.8212 13.5758Z" fill="#E6D7C4"/>
<path d="M27.2597 9.01774C27.1033 8.69157 26.9466 8.36127 26.7901 8.03509C26.9567 6.97629 26.4419 5.77197 27.4714 4.82356C28.2386 5.51605 27.6834 6.35406 27.85 7.07163C27.6481 7.71896 27.4566 8.37041 27.2597 9.01774Z" fill="#A99178"/>
<path d="M18.3269 6.55006C18.3117 7.21746 18.2915 7.87984 18.2764 8.54723C18.3925 9.1494 18.9981 9.91214 17.7616 10.0526L17.7011 10.0978C17.7162 8.93864 17.7818 7.77948 17.3427 6.66046C17.1913 6.27407 17.2065 5.76223 17.7969 5.79736C17.9887 5.80739 18.1502 6.28411 18.3269 6.55006Z" fill="#A88F78"/>
<path d="M39.9318 17.5854C39.5936 17.5954 39.2605 17.6104 38.9224 17.6205C38.6347 16.943 38.4429 16.1803 39.5331 16.2606C40.3658 16.3208 40.2346 17.0083 39.9318 17.5854Z" fill="#EADDCA"/>
<path d="M41.4565 15.0298C41.4262 15.3259 41.4918 15.7675 41.0325 15.6721C40.8155 15.627 40.5934 15.2506 40.5127 14.9846C40.4218 14.6785 40.5278 14.3072 40.9619 14.3323C41.3656 14.3524 41.4211 14.7036 41.4565 15.0298Z" fill="#F1E6D6"/>
<path d="M35.9047 9.58151C37.1614 8.98437 36.904 9.93779 36.9444 10.5851C35.8492 11.0167 36.0511 10.1184 35.9047 9.58151Z" fill="#E9DECC"/>
<path d="M25.8258 11.1053C25.8056 11.587 25.7854 12.0687 25.7652 12.5505C25.1192 12.0487 25.1091 11.2307 25.4119 10.739C25.7198 10.2372 25.7047 10.9296 25.8258 11.1053Z" fill="#D7C2AC"/>
<path d="M23.7971 42.1886C23.0048 42.4796 22.7928 43.2373 22.4496 43.8796C21.6774 45.3349 20.6428 45.6811 19.2499 44.6926C18.4626 43.9499 17.8519 43.0868 17.4633 42.0731C17.4078 41.5463 17.5642 41.1398 18.0941 40.929C19.7899 40.7534 21.4755 41.6366 23.1814 41.0043C23.4236 40.9842 23.6356 41.0545 23.8173 41.21C23.8072 41.5362 23.7971 41.8624 23.7971 42.1886Z" fill="#CDB9A2"/>
<path d="M34.9261 39.7044C34.5022 40.2363 33.8663 40.0707 33.3212 40.2112C32.1503 40.5223 32.9729 40.8933 33.3363 41.2345C33.2051 42.2733 32.7913 43.1367 31.8425 43.6737C31.5094 43.6737 31.1763 43.6737 30.8432 43.6787C30.4596 43.0013 31.0047 42.3288 30.8432 41.6564C28.89 40.6628 26.7956 41.4256 24.7869 41.1647C24.6355 40.9137 24.6708 40.6879 24.8879 40.4872C26.7653 39.604 28.9405 40.4421 30.7978 39.4485C31.0299 39.3531 31.2671 39.2879 31.5144 39.2277C32.4784 39.1675 33.4423 38.7058 34.4063 39.2277C34.5779 39.3833 34.7495 39.5438 34.9261 39.7044Z" fill="#CCB8A3"/>
<path d="M23.792 42.1935C24.9527 42.1935 26.1135 42.1935 27.5267 42.1935C26.593 44.1606 25.5382 45.4853 23.2217 45.104C23.0904 44 24.0645 43.2122 23.792 42.1935Z" fill="#D2C0AB"/>
<path d="M24.7867 40.7014C24.7968 40.857 24.7918 41.0075 24.7867 41.1631C24.4637 41.1781 24.1407 41.1932 23.8177 41.2082C23.6259 41.2082 23.4392 41.2132 23.2474 41.2132C21.5668 41.9509 19.977 41.1179 18.3469 40.9423C16.5098 41.1129 14.7081 41.1079 13.1789 39.8433C13.0325 39.5824 13.0376 39.3215 13.194 39.0655C14.6576 38.1773 16.0657 39.1609 17.5041 39.1809C18.7961 39.6225 20.1183 39.5874 21.4457 39.3666C22.2986 39.191 22.9951 39.6777 23.7572 39.9086C24.176 40.0742 24.5747 40.2699 24.7867 40.7014Z" fill="#D9C6B0"/>
<path d="M30.8432 41.6564C31.7768 42.3339 31.1258 43.0063 30.8432 43.6787C30.0912 44.2457 29.3081 44.0145 28.5258 43.8389C28.5308 42.213 30.394 42.7052 30.8432 41.6564Z" fill="#E4D7C4"/>
<path d="M17.8072 42.2139C18.7711 42.7608 19.084 43.6841 19.2556 44.6877C18.9175 44.7028 18.5793 44.7128 18.2462 44.7279C18.0999 44.6978 17.9485 44.6827 17.7971 44.6877C17.2268 43.8648 16.9441 43.0368 17.8072 42.2139Z" fill="#DAC8B4"/>
<path d="M17.2117 44.1789C16.2023 44.0334 15.0718 44.6004 14.1987 43.6671C13.1136 43.1301 12.2607 42.3473 11.6803 41.2935C11.3624 40.7215 11.2614 40.1896 12.0185 39.8534C13.5123 39.8584 14.88 40.4555 16.2932 40.8068C18.3473 41.3237 17.4035 42.9094 17.2117 44.1789Z" fill="#CBB39A"/>
<path d="M13.1842 39.2228C13.1842 39.3332 13.1842 39.4386 13.1892 39.549C12.3161 40.387 11.7963 39.549 11.1856 39.1375C9.49997 38.3146 7.81431 37.4966 6.1337 36.6737C4.88711 36.8945 4.07961 35.8909 3.02481 35.5747C2.73714 35.369 2.46461 35.1532 2.64125 34.7367C2.61097 34.4055 2.58069 34.0794 2.55041 33.7482C2.64125 33.6729 2.73714 33.5976 2.82799 33.5224C3.46389 33.4571 4.00391 33.7181 4.52879 34.0242C6.56773 35.4995 8.80854 36.5834 11.1352 37.5368C11.9275 37.863 13.2094 37.8228 13.1842 39.2228Z" fill="#DDCAB4"/>
<path d="M11.1858 39.1315C11.852 39.272 12.523 39.4085 13.1892 39.549C14.8699 39.9354 16.5456 40.3258 18.2262 40.7172C18.4079 40.8125 18.4684 40.9179 18.418 41.0233C18.3624 41.1337 18.3069 41.1889 18.2514 41.1889C17.8224 41.4097 17.7568 41.786 17.8123 42.2126C17.8073 43.0405 17.8022 43.8635 17.7972 44.6915C17.6054 44.5208 17.4136 44.3502 17.2168 44.1796C17.6155 42.0771 16.7777 40.933 14.5975 40.7322C13.6133 40.6419 12.6443 40.381 11.6652 40.2003C11.216 40.3258 11.0243 40.1803 11.1605 39.7086C11.1656 39.5179 11.1757 39.3272 11.1858 39.1315Z" fill="#AE967C"/>
<path d="M10.3672 42.2423C8.84307 41.3591 8.01034 40.4408 7.78323 39.0207C9.46384 39.4674 9.46384 39.4674 10.3672 42.2423Z" fill="#DACAB7"/>
<path d="M11.1596 39.7139C11.3262 39.8795 11.4927 40.0401 11.6643 40.2057C11.8662 41.8265 13.5821 42.3534 14.1979 43.6731C11.8359 43.1713 11.0183 42.1075 11.1596 39.7139Z" fill="#DCCCBA"/>
<path d="M3.01411 35.1222C4.25564 35.2426 5.12432 36.0966 6.1337 36.6737C5.95705 36.8493 5.7798 37.024 5.60316 37.1996C5.4568 37.1745 5.30539 37.1595 5.15903 37.1545C4.05376 36.8785 2.90812 36.6476 3.01411 35.1222Z" fill="#AD947B"/>
<path d="M23.8171 40.2003C22.9389 40.7573 22.5756 39.5881 21.8539 39.6232C20.5669 38.8253 19.2345 39.2318 17.9072 39.4727C14.4097 38.8655 10.9879 38.1027 8.44429 35.3428C9.02468 33.4561 10.6498 33.9278 12.0023 33.7822C16.2821 35.3378 20.6073 36.6274 25.2555 35.7945C25.5936 35.8246 25.9065 35.94 26.1841 36.1256C26.497 36.3515 26.8099 36.4267 27.1329 36.1106C27.2894 35.9801 27.461 35.8848 27.6477 35.8145C28.0716 35.6991 28.4956 35.7192 28.9245 35.7643C31.9174 36.0905 30.6405 33.8274 30.9231 32.5127C31.2764 32.3521 31.6044 32.3571 31.8921 32.6482C32.2 32.8439 32.5129 33.0396 32.8207 33.2353C33.2245 33.4259 33.3709 33.7571 33.3355 34.1837C33.3608 34.6805 33.386 35.1722 33.4062 35.669C34.027 37.0941 32.8813 37.5708 31.988 38.0124C30.4538 38.7701 28.9447 39.5931 27.2944 40.0899C26.1286 40.0447 24.988 40.5214 23.8171 40.2003Z" fill="#FBF8F0"/>
<path d="M27.2439 39.6228C28.7176 38.9354 30.1963 38.263 31.6599 37.5504C32.4725 37.154 33.285 36.7174 33.4061 35.6636C34.7183 35.4228 35.2281 36.4816 35.9447 37.2042C35.9649 38.6042 34.7183 38.4888 33.9058 38.8952C33.0983 39.3017 32.1192 39.1562 31.352 39.6831L31.3672 39.673C29.9894 39.9189 28.6065 40.6867 27.2439 39.6228Z" fill="#CDB8A1"/>
<path d="M31.8922 32.6379C31.5188 32.648 31.1402 32.658 30.7668 32.668C29.6464 33.2501 29.1467 32.4523 28.6168 31.7196C28.4906 31.3583 28.5007 31.0021 28.6774 30.6608C29.7423 29.6422 30.792 31.4185 31.8569 30.6809C32.5635 30.6558 32.841 29.1303 33.8403 30.1189C33.2347 30.5053 32.5381 30.8569 33.3102 31.6999C32.8358 32.011 32.3616 32.3268 31.8922 32.6379Z" fill="#EEE3D4"/>
<path d="M31.3526 39.6847C32.5184 38.1893 34.8602 38.8467 35.9453 37.2058C36.4096 37.2309 36.8436 37.3363 36.4096 37.8882C35.8998 38.5356 35.3046 39.1223 34.4063 39.2277C33.4373 39.7094 32.3973 39.7198 31.3526 39.6847Z" fill="#B59E85"/>
<path d="M33.3308 34.18C33.1592 33.8638 32.9876 33.5477 32.816 33.2315C33.8102 32.2129 34.325 33.3169 35.2032 33.6932C34.5774 34.3656 33.9011 34.0746 33.3308 34.18Z" fill="#CDB8A1"/>
<path d="M2.58546 14.0767C2.97912 12.0344 3.56961 10.0924 5.14423 8.59704C5.92145 9.24437 7.04691 9.12895 7.80394 9.81141C7.99572 10.9053 8.21779 11.9742 9.47446 12.3907C10.3122 13.048 11.1753 13.6 12.2906 13.0079C12.7953 14.0215 13.4262 14.985 13.5372 16.1492C13.4817 16.3599 13.3757 16.5406 13.2293 16.6861C13.2394 16.8718 12.649 16.4703 12.972 16.932C13.0678 17.0675 13.3454 17.1026 13.4262 17.3334C13.4867 18.879 11.4579 18.7385 11.2257 20.0431L11.1753 20.1134C10.0296 20.274 9.8984 19.2352 9.47446 18.613C8.41461 17.0424 7.32953 15.4918 6.13847 13.9613C6.4867 15.1506 7.79385 15.7828 7.8746 17.0725C7.81908 17.6897 7.65758 18.2668 7.20336 18.7184C6.39081 17.9958 4.66478 19.4962 4.34178 17.5793C4.42758 17.3535 4.57898 17.0825 4.09953 17.1126C3.35764 16.6459 3.86737 15.0703 2.39873 15.2058C2.36845 15.2108 2.30284 14.438 2.58546 14.0767Z" fill="#D7C3AE"/>
<path d="M2.58546 14.0767C3.18604 15.1355 4.32193 15.8431 4.59446 17.1127L4.60455 17.1227C4.65502 18.9443 6.49209 17.7701 7.13304 18.6081C8.83384 19.0095 9.92397 20.1185 10.676 21.6189C11.8771 22.0906 11.0595 24.0777 12.6644 24.2483C12.1648 24.5193 11.6651 24.7903 11.1655 25.0612C10.9132 26.0046 10.1814 26.2455 9.32844 26.3158C8.96001 26.2204 8.73795 25.9846 8.64711 25.6233C7.74876 23.1594 6.12366 21.2375 4.12005 19.5916L4.1251 19.6016C4.23108 18.4575 3.10563 18.2618 2.56561 17.6145C2.91889 16.4403 1.35402 15.2509 2.58546 14.0767Z" fill="#CFB9A1"/>
<path d="M12.1282 13.109C10.6747 15.5226 10.1145 13.124 9.20603 12.577C8.25722 12.005 7.65664 11.2172 7.65159 10.063C6.91979 9.40064 5.06759 10.6401 5.14329 8.60277C5.91042 7.36332 6.96521 6.40488 8.13609 5.56185C8.57517 6.31455 9.13537 5.75755 9.52903 5.66723C10.6949 6.1038 7.24279 7.60419 10.1094 7.55902C11.351 9.19992 12.0626 11.0365 12.1282 13.109Z" fill="#D0B9A3"/>
<path d="M41.9608 22.6265C42.6976 22.1096 43.4345 21.5928 44.1713 21.0759C43.7928 20.3182 43.278 21.2616 42.8945 20.9053C43.9038 19.4099 43.9038 19.4099 45.9579 19.6006C46.0891 21.1361 45.9882 22.6466 45.4532 24.1118C45.1302 24.4531 44.8072 24.7943 44.4842 25.1355C43.1821 25.9183 42.092 25.9936 41.5419 24.2674C41.5368 23.6803 41.88 23.1835 41.9608 22.6265Z" fill="#CCB8A1"/>
<path d="M41.9564 24.1237C42.2441 25.8298 43.5966 24.9115 44.4849 25.1373C43.4957 26.5524 42.2188 27.5109 40.4323 27.6664C40.3263 27.6112 40.2203 27.551 40.1093 27.4958C39.4128 25.6542 40.0083 24.5251 41.9564 24.1237Z" fill="#D5C3AE"/>
<path d="M35.4355 29.6724C35.5819 29.6524 35.7282 29.6373 35.8746 29.6273C37.1918 28.5133 38.8472 28.172 40.4269 27.6552L40.437 27.6602C40.5026 28.0315 41.3505 28.3427 40.9265 28.5584C39.2207 29.4165 37.6107 31.0474 35.4355 29.6724Z" fill="#A99682"/>
<path d="M8.64155 25.6235C8.8081 25.769 8.97465 25.9095 9.14119 26.055C8.67183 27.7662 7.15272 27.6558 5.85063 27.9167C5.44183 27.7913 5.18948 27.5153 5.08855 27.1038C4.74031 26.9332 4.39712 26.7576 4.04889 26.587C4.91191 25.3676 6.9908 27.1498 7.55605 25.1827C7.91942 25.3333 8.28322 25.478 8.64155 25.6235Z" fill="#C9B5A1"/>
<path d="M4.11961 19.5964C3.99344 20.4394 4.83627 20.871 4.81104 21.7441C4.11457 21.157 3.02949 20.8961 3.2566 19.5763C3.26164 19.5412 3.82185 19.5964 4.12466 19.6064L4.11961 19.5964Z" fill="#C0AF98"/>
<path d="M3.01411 35.1222C3.39262 36.1509 4.49318 36.4228 5.15432 37.1555C4.66982 37.3512 4.31654 37.6773 4.11971 38.1641C3.06491 37.3411 2.8378 35.8307 1.58618 35.1733C1.58113 34.1697 2.13124 34.516 2.63593 34.7468C2.7621 34.8672 2.88793 34.9917 3.01411 35.1222Z" fill="#D8C4AC"/>
<path d="M0.511525 30.1301C0.678073 30.105 0.849667 30.0799 1.01621 30.0548C1.64707 29.8441 2.03064 30.2054 2.37383 30.647C2.72206 31.6305 3.29236 32.594 2.61103 33.6578L2.55041 33.7482C1.24831 32.8901 0.864807 31.5201 0.511525 30.1301Z" fill="#E3D4C0"/>
<path d="M2.09082 30.6462C1.73249 30.4505 1.37454 30.2556 1.01621 30.0548C1.69754 28.148 3.15066 27.2892 5.09371 27.1035C5.28045 27.3143 5.46718 27.525 5.64887 27.7308C5.69429 28.1222 5.44195 28.2978 5.14418 28.4483C4.43257 28.7946 4.03892 29.4168 3.63516 30.0491C3.28693 30.586 2.92355 31.2635 2.09082 30.6462Z" fill="#D0BEAA"/>
<path d="M5.14443 28.1721C5.31098 28.0266 5.47728 27.8763 5.64887 27.7308C6.8147 27.1738 7.98078 26.6165 9.14661 26.0545C9.82289 25.7233 10.4941 25.3921 11.1704 25.0609C11.8265 25.091 12.4876 25.1211 13.1437 25.1563C13.0781 26.9979 11.2512 27.2839 10.2973 28.3477C9.54531 28.7542 8.64192 28.9047 8.11704 29.6775C7.72843 30.2194 7.88994 30.8467 7.83442 31.4438C7.24393 32.4073 6.24465 32.6281 5.24032 32.8539C3.08025 30.9019 3.06511 29.9434 5.14443 28.1721Z" fill="#FDFBF8"/>
<path d="M7.59744 17.1386C7.06247 15.7587 4.99325 15.0913 5.77047 12.9837C8.23839 14.9106 9.33357 17.801 11.1757 20.1093C11.3574 20.591 11.6804 21.143 10.7063 21.0627C9.40422 19.9638 7.88511 19.0354 7.59744 17.1386Z" fill="#B39A80"/>
<path d="M25.3007 24.6306C25.0787 25.037 24.6951 25.1073 24.2813 25.1273C22.4795 27.0041 20.5567 25.2026 18.6944 25.313C17.3822 25.2227 16.0902 25.3933 14.7931 25.5589C14.3742 25.5489 13.9957 25.4385 13.7081 25.1173C16.3122 22.6284 19.3505 23.9029 22.2726 24.1338C23.2719 24.3495 24.4327 23.6019 25.3007 24.6306Z" fill="#CCB295"/>
<path d="M12.1282 13.109C11.4569 11.2573 10.7857 9.40565 10.1094 7.55902C10.4375 6.62065 10.771 6.36416 11.1646 7.52834C12.1791 10.5492 13.2036 13.57 14.2281 16.5909C14.4905 17.0074 14.2281 17.1479 13.8799 17.2482C13.5215 17.168 13.3399 16.907 13.1985 16.6009C13.4055 15.2611 12.2846 14.3283 12.1282 13.109Z" fill="#B59B82"/>
<path d="M15.3182 13.8407C13.8041 11.4923 13.7184 8.99332 12.1033 6.89077C13.9404 7.81409 15.1618 10.4937 15.3182 13.8407Z" fill="#EDE2D4"/>
<path d="M17.7559 10.0532C18.3666 9.70197 18.2051 9.08475 18.2707 8.54782C18.4221 8.5679 18.5735 8.57793 18.7249 8.57793C18.4524 11.2927 19.6687 13.9823 18.7148 16.7272C18.3969 14.4992 18.0789 12.2762 17.7559 10.0532Z" fill="#B9A088"/>
<path d="M7.59744 17.1386C8.63205 18.4483 9.67171 19.758 10.7063 21.0627C10.6962 21.2484 10.6854 21.4391 10.6702 21.6248C9.48926 20.6212 8.30829 19.6176 7.12732 18.6139C7.1677 18.0871 7.02209 17.4999 7.59744 17.1386Z" fill="#E3D4C0"/>
<path d="M25.3007 24.6306C24.2914 24.47 23.1614 25.0224 22.2681 24.1342C22.4497 23.0854 21.2435 23.1757 20.9003 22.4581C22.1368 21.5398 22.7475 23.3463 23.7922 23.1205C24.2919 23.6273 25.6394 23.2861 25.3113 24.6209L25.3007 24.6306Z" fill="#D3BFA9"/>
<path d="M13.199 16.5952C13.3757 16.7558 13.5473 16.9163 13.7239 17.0769C14.4254 17.6289 14.8544 18.2411 14.2034 19.1092C13.0628 18.9537 12.2048 19.6919 11.2257 20.0431C10.5848 18.2015 13.1082 18.4569 13.199 17.102C13.0476 16.9916 13.0022 16.8812 13.0527 16.7758C13.1031 16.6705 13.1587 16.6153 13.2091 16.6153L13.199 16.5952Z" fill="#E0D0BD"/>
<path d="M13.7081 25.1173C14.0411 25.1223 14.3744 25.1263 14.7075 25.1313C14.9699 25.8489 14.3189 26.0446 13.9757 26.416C13.7284 26.6267 13.4609 26.8174 13.1934 27.0031C12.5222 27.3844 12.0983 28.0769 11.3917 28.4181C11.0485 28.5235 10.7154 28.5085 10.3924 28.3579C10.3117 28.2776 10.236 28.1923 10.1552 28.107C10.7356 26.707 12.4112 26.4109 13.1379 25.1564C13.3297 25.1464 13.5163 25.1324 13.7081 25.1173Z" fill="#EDD4BC"/>
<path d="M14.2034 19.1092C14.0419 18.4318 13.8854 17.7543 13.7239 17.0769C13.8904 16.9163 14.0565 16.7515 14.2281 16.5909C15.1719 17.8103 15.1972 19.3109 15.8735 20.7611C14.4705 20.6557 14.9301 19.4103 14.2034 19.1092Z" fill="#C6AF95"/>
<path d="M25.2713 15.5813C25.4479 15.7469 25.6195 15.9125 25.7962 16.0781C25.241 17.2222 25.7755 18.8241 24.3069 19.5869C24.2665 18.1668 24.6202 16.8358 25.2713 15.5813Z" fill="#C6AF97"/>
<path d="M24.2918 20.5955C25.1598 21.5238 24.3172 22.0315 23.7923 22.6186C23.8226 21.911 23.56 21.1324 24.2918 20.5955Z" fill="#C6AF97"/>
<path d="M11.2002 28.1373C11.8613 27.6405 12.0632 26.5566 13.1685 26.6219C13.7842 26.9029 13.9053 26.6771 13.6933 26.11C14.0315 25.7838 14.3747 25.4577 14.7128 25.1315C15.9897 24.434 17.3725 24.6197 18.7352 24.6698C19.1793 25.0462 19.4266 25.6233 19.8808 25.9545C20.865 26.672 21.7885 27.9165 23.1916 26.4462C23.5449 26.0799 24.3069 26.3509 24.8823 26.3459C25.7201 26.5215 26.2752 27.1287 26.896 27.6355C27.2038 27.9717 27.5168 28.3029 27.8246 28.6391C28.0013 28.8047 28.0719 29.0155 28.0568 29.2563C27.976 29.718 27.8095 30.1545 27.547 30.5459C25.3365 31.3739 23.6357 33.4012 21.0164 33.2958C20.5521 33.2758 20.2947 33.6571 20.1433 34.0736C19.7647 34.9819 19.2045 35.1123 18.4273 34.4951C16.6861 33.1051 14.3848 32.784 12.5931 31.4893C11.8512 31.1933 11.5131 30.571 11.2507 29.8786C11.0841 29.3015 10.8267 28.7244 11.2002 28.1373Z" fill="#FCE1C2"/>
<path d="M35.3994 24.1319C35.5761 24.1369 35.7477 24.1419 35.9243 24.147C36.8025 24.5685 38.5033 23.61 38.4225 25.6273C38.6092 26.6961 37.5797 26.9018 37.0952 27.494C36.1161 28.1313 35.1875 28.9191 33.8753 28.608C33.2848 27.7148 32.4066 28.5528 31.6496 28.4474C31.9928 27.3334 34.1629 27.8503 33.3655 26.114C33.5926 24.995 34.6828 24.7591 35.3994 24.1319Z" fill="#CDB9A3"/>
<path d="M36.8938 27.1086C37.4035 26.6168 37.9133 26.1201 38.4281 25.6283C39.6646 24.695 41.002 23.877 41.9659 22.6225C42.5514 23.1243 41.7943 23.6211 41.9659 24.1179C40.578 24.9208 39.9825 26.0599 40.4317 27.6506C39.2002 28.9552 37.565 29.3467 35.8794 29.6226C35.6826 29.2062 35.294 29.1459 34.8952 29.1008C34.8347 27.7258 37.1361 28.6742 36.8938 27.1086Z" fill="#BBA792"/>
<path d="M24.7868 26.6624C24.1609 27.109 22.8841 26.7377 22.985 28.0925C21.4407 27.5556 19.644 27.4201 18.8415 25.6588C18.7103 25.3728 18.7608 25.0065 18.7305 24.6753C20.5978 24.6151 22.3491 25.9699 24.2821 25.1319C24.2922 25.2624 24.3022 25.3878 24.3123 25.5183C24.3073 25.9649 24.7817 26.2208 24.7868 26.6624Z" fill="#F7D5B1"/>
<path d="M27.7999 29.1614C27.81 28.9858 27.8145 28.8147 27.8246 28.6391C29.4093 28.8499 30.4697 30.0898 31.8626 30.6769C32.2613 31.4998 31.9989 31.7808 31.146 31.5049C30.3586 31.2489 29.5814 30.9479 28.8042 30.6668C27.7141 30.6568 27.7544 29.9091 27.7999 29.1614Z" fill="#FBF6F0"/>
<path d="M30.8275 15.578C31.0042 15.7486 31.1808 15.9242 31.3574 16.0948C30.8477 17.259 30.3374 18.4229 29.8277 19.5871C29.1413 20.0337 29.0813 21.1129 27.8297 21.3337C28.7835 19.2662 29.5406 17.2992 30.8275 15.578Z" fill="#C3AC92"/>
<path d="M36.8938 27.1086C37.5499 27.8412 38.403 28.6231 36.465 28.6381C35.8947 28.6431 35.3042 28.5729 34.8904 29.1048C34.5674 28.9041 33.7794 29.6467 33.8753 28.608C34.8796 28.1062 35.8844 27.6104 36.8938 27.1086Z" fill="#AF9A86"/>
<path d="M24.7859 26.6612C24.4478 26.3501 23.6201 26.2397 24.3166 25.5121C25.4471 25.8935 26.6537 26.1853 26.896 27.6355C25.9825 27.7609 25.5228 26.9171 24.7859 26.6612Z" fill="#F8F0E5"/>
<path d="M25.3112 24.6256C24.8065 24.1238 24.3018 23.627 23.7921 23.1252C24.6148 23.1402 25.5383 22.9495 26.1137 23.7223C27.1382 25.1073 25.6797 24.4098 25.3112 24.6256Z" fill="#D7C2AC"/>
<path d="M35.4001 24.1337C35.0468 25.1273 33.992 25.4033 33.3662 26.1159C32.4931 26.1359 32.5839 25.7144 32.9271 25.1775C34.0324 25.1223 34.4614 23.9681 35.4102 23.652C35.4051 23.8126 35.4001 23.9732 35.4001 24.1337Z" fill="#C0AA92"/>
<path d="M32.8215 13.5743C33.0638 13.9758 33.4574 14.0661 33.8914 14.0812C33.5583 15.0647 33.6489 16.8662 31.8875 15.1199C32.2004 14.6081 32.5136 14.0912 32.8215 13.5743Z" fill="#CEB7A0"/>
<path d="M18.2453 41.1885C18.2453 41.0329 18.2363 40.8727 18.2262 40.7172C19.9017 40.8828 21.5763 41.048 23.2518 41.2186C21.5712 42.7691 19.9108 41.5046 18.2453 41.1885Z" fill="#BDA790"/>
<path d="M27.2439 39.6228C28.6166 39.6429 29.9952 39.6582 31.3679 39.6783C29.3694 41.2389 27.0024 40.5012 24.7868 40.707C24.3982 40.6618 24.0146 40.6116 23.8127 40.2052C24.9331 39.8639 26.0528 39.5375 27.2439 39.6228Z" fill="#B8A18A"/>
<path d="M8.6364 35.1839C11.5434 37.0506 14.5614 38.6563 18.064 39.113C18.5384 38.9173 19.2954 38.8872 19.2147 39.3839C19.0683 40.2571 18.2659 39.9058 17.6703 39.7202C16.1764 39.5546 14.6831 39.3884 13.1842 39.2228C10.6153 37.6221 7.51094 37.0706 5.09853 35.1688C4.72001 34.8727 4.39197 34.5064 4.04373 34.1752C4.37683 33.5129 4.83609 33.006 5.62845 32.9258C7.03149 33.1566 8.07115 33.8641 8.6364 35.1839Z" fill="#BFA992"/>
<path d="M17.6703 39.7202C18.0438 39.6449 18.4223 39.5685 18.7958 39.4932C18.5535 39.3677 18.3113 39.2434 18.064 39.113C19.4367 38.4456 20.8499 37.5161 21.8491 39.6237C20.4764 40.5269 19.0784 40.3625 17.6703 39.7202Z" fill="#C1AA92"/>
<path d="M5.62301 33.1552C5.09309 33.4914 4.84075 34.2491 4.04334 34.1688C3.56388 33.9982 3.08443 33.8276 2.60498 33.652C2.44348 32.6484 1.89337 31.71 2.08515 30.6412C3.6951 30.5408 3.0592 27.6956 5.13851 28.1673C3.49323 29.8383 4.02315 31.3136 5.55236 32.6986C5.73404 32.7738 5.79965 32.8692 5.75928 32.9746C5.72395 33.1 5.67853 33.1552 5.62301 33.1552Z" fill="#C9B5A1"/>
<path d="M5.62301 33.1552C5.61292 33.0047 5.59301 32.8541 5.55768 32.7036C6.00685 31.8706 7.27867 32.1466 7.63195 31.1882C9.30247 30.7666 10.1604 32.1265 11.3212 32.8341C11.6442 33.2054 11.9168 33.5918 11.7502 34.1237C10.7762 34.6707 9.44883 34.1689 8.63628 35.1825C7.63195 34.5101 6.62734 33.8326 5.62301 33.1552Z" fill="#F9F2E5"/>
<path d="M11.7552 34.1297C11.5382 33.8186 11.3262 33.5075 11.1092 33.2014C11.2909 33.0006 11.518 32.8902 11.7905 32.8601C13.3449 32.9806 14.5411 34.0193 15.9643 34.4759C18.9571 35.4294 22.0004 35.6451 25.1042 35.2035C25.3666 35.2537 25.5988 35.3641 25.8007 35.5297C25.9622 35.7756 25.947 36.0064 25.7603 36.2322C20.7941 37.4968 16.2065 36.2523 11.7552 34.1297Z" fill="#DDBA98"/>
<path d="M28.8743 31.5907C29.49 31.9771 29.919 32.6846 30.7669 32.6696C31.2665 33.5427 32.508 34.3004 31.5845 35.4546C30.9284 36.2675 29.9695 36.8696 28.7885 36.2223C28.7279 35.4495 29.9745 34.7219 28.8591 33.919C28.6219 33.638 28.4655 33.3169 28.3999 32.9506C28.3494 32.4287 28.415 31.9419 28.8743 31.5907Z" fill="#CFBEA8"/>
<path d="M28.8435 33.1349C28.9999 33.3156 29.1614 33.4962 29.3179 33.6719C29.5652 35.2224 28.3943 35.659 27.3294 36.1809L27.39 36.2561C27.0216 36.4418 26.8298 37.0189 26.2595 36.768C26.0929 36.5873 25.9264 36.4067 25.7598 36.221C25.8154 36.0604 25.8507 35.8999 25.8608 35.7343C26.7642 34.7658 27.1427 33.2052 28.8435 33.1349Z" fill="#B99A7A"/>
<path d="M27.3346 36.1874C27.9958 35.3494 28.662 34.5114 29.3231 33.6784C31.7456 35.0684 29.2679 35.4345 28.7885 36.2223C28.304 36.2123 27.8191 36.1974 27.3346 36.1874Z" fill="#BEA78D"/>
<path d="M26.26 36.7722C26.6385 36.6016 27.012 36.431 27.3905 36.2604C27.2492 36.6869 27.5066 37.3493 26.8152 37.4496C26.4417 37.5048 26.3307 37.0984 26.26 36.7722Z" fill="#E1CFBC"/>
<path d="M28.8435 33.1349C27.612 33.7321 27.5064 35.6045 25.8611 35.74L25.7955 35.6397C25.4322 35.2683 25.3565 34.8167 25.4473 34.3249C25.7552 32.7894 27.1481 31.7356 27.3298 30.1399C27.3399 29.7435 27.3702 29.3571 27.7992 29.1564C28.1322 29.6582 28.4653 30.165 28.7984 30.6668C28.8237 30.9729 28.8489 31.279 28.8741 31.5851C28.864 32.107 28.8536 32.6231 28.8435 33.1349Z" fill="#E7BF95"/>
<path d="M7.65217 10.0572C8.17199 10.8952 8.68678 11.7332 9.20661 12.5712C7.68749 12.3454 7.01121 11.6028 7.65217 10.0572Z" fill="#EADCCD"/>
<path d="M13.2041 16.616C13.199 16.7766 13.194 16.9422 13.194 17.1028C12.4773 17.5343 11.9373 17.3085 11.5487 16.6361C11.3468 16.2848 11.5235 15.9888 11.8465 15.8382C12.6439 15.4619 12.6843 16.4655 13.2041 16.616Z" fill="#D0B9A3"/>
<path d="M4.59446 17.1127C4.63988 16.6611 4.48846 16.1289 4.97801 15.8378C5.07895 15.7776 5.4726 15.9633 5.51298 16.0987C5.72495 16.8565 5.22532 17.0525 4.60455 17.1227C4.60455 17.1278 4.59446 17.1127 4.59446 17.1127Z" fill="#F0E7DE"/>
<path d="M11.7297 33.166C11.5227 33.176 11.3158 33.1861 11.1139 33.1961C9.95316 32.5287 8.79742 31.8563 7.63664 31.1889C7.04111 30.677 6.95026 30.1552 7.60636 29.6182C8.40881 29.0361 9.13052 28.2483 10.2913 28.5745C10.4478 28.7501 10.5638 28.9508 10.6496 29.1716C10.7808 30.5616 11.8558 31.7057 11.7297 33.166Z" fill="#CEA37E"/>
<path d="M10.1706 28.6232C9.31261 28.9544 8.45969 29.2856 7.60172 29.6168C7.91463 28.2168 9.07036 28.2268 10.1504 28.1064L10.1857 28.2168C10.2867 28.3121 10.3169 28.4024 10.2766 28.4927C10.2463 28.5781 10.2059 28.6232 10.1706 28.6232Z" fill="#DEC4AC"/>
<path d="M13.6884 26.1109C14.5666 26.2012 14.829 26.7231 14.6019 27.5009C14.5464 27.6816 14.2436 27.9425 14.0922 27.9174C13.3856 27.802 13.2443 27.2199 13.1635 26.6228C13.3402 26.4522 13.5168 26.2815 13.6884 26.1109Z" fill="#FDF4E3"/>
<path d="M10.1707 28.6248C10.1707 28.4893 10.1757 28.3538 10.1858 28.2183C10.524 28.1932 10.8571 28.1631 11.1952 28.133C11.3567 28.6348 11.5182 29.1366 11.6797 29.6384C11.5485 29.809 11.3718 29.9044 11.1548 29.9245C10.6754 29.8893 10.4432 29.5381 10.2161 29.1818C10.206 29.0011 10.1909 28.8105 10.1707 28.6248Z" fill="#E7BF9A"/>
<path d="M10.2209 29.1851C10.5439 29.3406 10.8669 29.4912 11.1899 29.6467C11.7905 30.0432 11.4826 31.3177 12.6636 31.1622C12.9765 31.0418 13.5519 30.8109 13.5569 30.826C14.5865 33.2396 17.9174 32.0855 19.0984 34.3536C19.3003 34.74 19.6485 34.0375 19.7394 33.6612C19.5728 33.069 19.9412 32.9386 20.4005 32.9637C21.8035 33.0389 23.1561 32.9235 24.5288 32.502C26.1186 32.0102 26.159 33.0239 25.8208 34.173C25.8108 34.6648 25.8057 35.1515 25.7956 35.6433C20.7538 36.7974 16.1106 35.7185 11.7299 33.1694C10.8417 31.9801 10.1049 30.7407 10.2209 29.1851Z" fill="#F8D1A7"/>
<path d="M25.821 34.1682C25.2103 33.9675 26.2853 32.4721 24.7056 32.8886C23.0957 33.3151 21.3999 33.4155 19.7395 33.6563C19.3913 33.3051 19.3206 32.713 19.8354 32.7732C22.803 33.1395 24.7561 30.791 27.325 30.1387C27.9104 31.885 26.578 32.9187 25.821 34.1682Z" fill="#FBDCB8"/>
<path d="M12.6642 31.1638C12.6188 31.5552 12.5885 32.1473 12.0233 31.6505C11.4681 31.1588 11.2158 30.4211 11.1855 29.6483C11.352 29.6433 11.5132 29.6434 11.6797 29.6384C12.0128 30.1452 12.3412 30.652 12.6642 31.1638Z" fill="#DEA978"/>
<path d="M16 28.9903C16.0201 29.0254 16.2069 29.2863 16.3179 29.5723C16.4794 29.9939 16.1766 30.1695 15.8586 30.0641C15.6164 29.9788 15.3994 29.6928 15.2833 29.4419C15.1874 29.2311 15.3136 28.9953 16 28.9903Z" fill="#FDF1E1"/>
</svg>
