<svg width="42" height="45" viewBox="0 0 42 45" fill="none" xmlns="http://www.w3.org/2000/svg">
<path d="M11.1402 26.8381C13.1338 20.0607 15.6103 13.4592 18.5542 7.02599C19.1453 6.81946 19.2496 7.32815 19.4853 7.64177C19.5896 7.87891 19.6244 8.13134 19.5973 8.3876C19.5664 8.55588 19.5162 8.71652 19.4467 8.87334C19.126 9.48529 18.9676 10.1508 18.7667 10.8048C17.2986 14.3503 15.8034 17.8844 14.6598 21.5485C14.034 23.3078 13.2806 25.0175 12.6933 26.7922C12.307 27.3276 11.8743 27.6604 11.2484 27.1096C11.2136 27.0178 11.175 26.9299 11.1402 26.8381Z" fill="#6F9E40"/>
<path d="M1.2266 39.5438C-0.600819 35.9639 -0.369011 32.4375 1.80612 29.1406C3.53695 26.5168 6.63544 24.505 11.1364 26.8381L11.2252 26.9413C11.6 27.4271 11.372 27.7942 10.9857 28.127C10.8234 28.2035 10.6496 28.2264 10.4719 28.192C9.9387 27.8057 9.49054 27.2856 8.78352 27.1823C8.01083 26.9681 7.242 26.9146 6.4809 27.2052C6.19501 27.3506 5.90138 27.4921 5.59617 27.5915C5.24073 27.6986 4.85825 27.7292 4.54145 27.9472C4.37532 28.0964 4.23623 28.2723 4.1126 28.4559C3.69535 29.0373 3.22787 29.5842 2.86084 30.2038C2.26973 30.9305 1.63999 31.6343 1.68635 32.6593C1.38114 34.5372 1.10297 36.4152 1.8602 38.2625C1.94906 38.6641 1.94906 39.0581 1.74816 39.4329C1.60908 39.6279 1.43522 39.6624 1.2266 39.5438Z" fill="#D4302C"/>
<path d="M41.48 6.33754C40.2746 6.68942 39.073 7.04129 37.8676 7.39317C36.9752 7.12926 36.3648 8.02807 35.5187 7.95158C34.1394 7.60353 33.4169 6.16926 32.0068 5.87475C31.6668 5.72941 31.3577 5.53818 31.1066 5.2628C30.8902 4.94917 30.6777 4.63172 30.9559 4.24924C31.2882 4.01976 31.6513 4.00829 32.03 4.09626C32.992 4.51697 33.7647 5.2322 34.5683 5.67969C34.2669 5.171 33.2469 5.19395 33.1465 4.30662C33.6835 3.36956 34.6378 3.7941 35.4105 3.61434C36.0595 3.56462 36.7357 3.43075 37.1761 4.1039C37.1838 4.63554 36.6932 4.67761 36.3918 4.8918C36.6661 5.46168 36.9018 4.78471 37.1529 4.87267C37.8483 4.5055 38.6944 5.1863 39.3435 4.54375C39.5289 4.36016 39.7414 4.2263 40.0119 4.21865C41.1709 4.4749 40.8155 5.75236 41.48 6.33754Z" fill="#6E9E44"/>
<path d="M34.0892 26.1228C36.075 26.2567 37.9951 28.0276 38.7099 30.5901C39.8844 34.8279 39.1271 38.6412 35.9205 41.8386C35.5534 41.9113 35.4259 41.6895 35.3641 41.3911C35.5728 40.3776 36.2489 39.5553 36.5579 38.5838C39.0228 34.1509 38.0299 30.1579 33.5483 26.5283C33.5715 26.184 33.6681 25.9393 34.0892 26.1228Z" fill="#D22A27"/>
<path d="M28.6069 25.7863C28.6997 25.8628 28.7151 25.9507 28.6572 26.0578C28.9701 27.0217 28.5026 27.1249 27.7222 26.8954C27.5329 26.8075 27.3784 26.6774 27.2547 26.513C27.05 26.1573 26.9843 25.7671 26.9611 25.3694C26.9688 24.1378 26.9031 22.9215 26.1923 21.8391C24.956 18.7335 23.739 15.6201 22.7731 12.415C22.8465 11.9216 22.7654 11.325 23.5226 11.2714C25.5355 14.9623 26.9881 18.8597 27.8806 22.9636C28.0699 23.916 28.0545 24.9219 28.6069 25.7863Z" fill="#6A9343"/>
<path d="M19.3539 38.798C18.9522 39.4252 18.5503 40.0563 18.1485 40.6836C17.9554 40.8251 17.7892 40.7983 17.654 40.6033C17.5304 38.7291 18.4035 37.031 18.5967 35.2104C18.6972 34.8547 18.8478 34.5219 18.9908 34.1815C19.3501 33.5199 19.1608 32.8123 19.1685 32.12C19.2226 31.925 19.3462 31.7987 19.5355 31.7261C20.0069 31.6725 20.2773 31.9173 20.4434 32.3151C20.6366 32.8888 20.6173 33.4854 20.6212 34.0783C20.5516 35.9792 21.0191 37.7615 21.8343 39.4635C22.2052 40.041 22.6224 40.5918 23.0204 41.1502C23.3179 41.5594 23.7815 41.8004 24.1021 42.1829C24.1794 42.3397 24.2103 42.5041 24.2065 42.6801C24.1678 42.8522 24.079 42.9937 23.9321 43.097C22.0545 42.179 21.0036 40.5421 20.0957 38.7789C19.8446 38.4882 19.5973 38.4882 19.3539 38.798Z" fill="#CB2B25"/>
<path d="M20.9843 4.68909C21.7145 4.30662 22.4447 3.92032 23.171 3.53785C23.4299 3.59522 23.596 3.75203 23.6887 3.98916C23.739 4.27984 23.4144 4.49785 23.5381 4.8C23.6308 4.91857 23.7235 5.03331 23.8278 5.1404C24.5696 5.5114 25.2573 5.6185 25.8059 4.8306C26.0725 4.52462 26.3893 4.48255 26.7486 4.64319C27.2547 5.14041 27.7531 5.64527 27.9501 6.35667C27.5522 7.35875 26.7177 6.6091 26.142 6.83093C26.5825 7.09484 27.1079 7.24018 27.6179 7.41612C28.2708 7.71827 29.1285 7.6303 29.5303 8.40672C29.5496 8.59795 29.5033 8.77389 29.3874 8.93071C28.4485 9.19461 27.6372 8.6209 26.7525 8.53294C25.8986 8.28433 25.1028 7.91715 24.3533 7.43906L24.3378 7.43141C23.0049 6.89213 21.7222 6.22663 20.3275 5.82503C20.1962 5.5573 20.1846 5.28192 20.2773 4.99889C20.4357 4.72733 20.6289 4.53227 20.9843 4.68909Z" fill="#699542"/>
<path d="M23.9321 43.1046C23.9515 42.9287 23.9708 42.7489 23.994 42.573C25.3964 42.2976 26.6134 43.1505 27.9579 43.2117C30.1832 43.3532 32.339 43.2002 34.1703 41.7239C34.5953 41.46 35.028 41.2076 35.5534 41.4409C35.6771 41.5709 35.7968 41.7048 35.9205 41.8348C32.7292 44.9902 27.8111 45.5104 23.9321 43.1046Z" fill="#D52E27"/>
<path d="M15.5059 43.0664C12.7977 45.4683 9.70689 45.3077 6.52726 44.3285C5.86661 44.1258 5.2755 43.7013 4.65349 43.38C4.49122 43.2079 4.50281 43.0396 4.67667 42.8828C5.80866 42.5194 6.7243 43.3609 7.77902 43.4182C8.86852 43.7242 9.96574 43.7127 11.063 43.4641C12.4306 43.3571 13.7365 43.0052 14.996 42.4659C15.1853 42.4468 15.3669 42.485 15.533 42.5692C15.6373 42.7413 15.6334 42.9057 15.5059 43.0664Z" fill="#D22D27"/>
<path d="M41.48 6.33754C41.2327 6.30695 40.9855 6.29547 40.7421 6.24575C40.4562 6.18455 40.5721 6.02392 40.6532 5.85563C41.1091 4.93387 40.29 4.74263 39.7801 4.37546C39.3821 4.51697 39.0653 4.34104 38.7601 4.1192C37.8947 3.26247 36.9056 2.60079 35.7582 2.1533C35.1516 1.91616 34.3287 1.82437 34.3442 0.875838C34.518 0.76492 34.6842 0.776395 34.8426 0.898786C38.0763 1.21624 39.981 3.49195 41.932 5.66822C42.1252 5.87858 41.8856 6.27252 41.48 6.33754Z" fill="#6A9445"/>
<path d="M34.8426 0.898786C34.6919 0.91026 34.5373 0.91791 34.3867 0.929384C34.1703 1.17417 33.8844 1.29273 33.5715 1.36158C32.8645 1.46102 32.1536 1.41512 31.4427 1.43807C30.1832 1.30421 28.9778 1.61018 27.7686 1.88939C27.5793 1.91999 27.3861 1.92381 27.1929 1.90851C26.8066 1.82819 26.4704 1.66756 26.2116 1.35775C26.1382 1.15504 26.2039 1.02883 26.4279 0.994404C29.2251 0.240933 32.0184 -0.75732 34.8426 0.898786Z" fill="#689447"/>
<path d="M29.3835 8.93071C29.3874 8.81979 29.3835 8.70887 29.3796 8.60178C30.4614 7.75269 31.7711 7.78329 33.0422 7.64942C33.8767 7.53468 34.7112 7.37022 35.5225 7.76416C36.3145 7.70679 36.9327 6.54408 37.8715 7.39317C35.2328 8.94218 32.4047 9.44322 29.3835 8.93071Z" fill="#5F903C"/>
<path d="M21.7493 7.63795C22.3404 8.6209 22.9315 9.60386 23.5265 10.583C23.5265 10.8125 23.5265 11.0381 23.5265 11.2676C23.1054 11.6004 23.2406 12.1014 23.1324 12.5298C22.0622 12.1282 21.8382 11.0611 21.305 10.2426C21.0886 9.50059 20.5555 8.83891 20.6868 8.0013C20.9071 7.49644 21.3977 7.76799 21.7493 7.63795Z" fill="#749F48"/>
<path d="M21.7493 7.63795C21.5213 8.18871 21.0964 7.86743 20.7448 7.85596C20.2928 7.81771 19.833 7.9248 19.381 7.81389C19.1067 7.55381 18.8285 7.2899 18.5542 7.02982C18.6894 6.52113 18.8247 6.01627 18.9637 5.50758C19.099 5.32782 19.2805 5.2169 19.493 5.14423C19.6978 5.06774 19.9103 5.00272 20.1266 4.95682C20.285 4.94534 20.4087 5.00271 20.4975 5.12893C20.5207 5.42343 20.5439 5.71411 20.5671 6.00862C21.0577 6.48288 21.6141 6.91125 21.7493 7.63795Z" fill="#729442"/>
<path d="M20.4975 5.12893H20.1575C19.9914 5.07538 20.003 4.85355 19.8369 4.79618C19.8987 5.04479 19.9142 5.28574 19.7287 5.4961C19.4737 5.49993 19.2187 5.50375 18.9599 5.50758C18.8942 5.33164 18.7937 5.16335 18.7628 4.98359C18.5697 3.89354 18.7667 2.69258 19.9605 2.63904C20.9843 2.59314 21.023 3.79793 20.9805 4.69291C20.8221 4.83443 20.6598 4.98359 20.4975 5.12893Z" fill="#829552"/>
<path d="M34.0892 26.1228C33.9424 26.2491 33.7917 26.3753 33.6449 26.5015C32.1806 26.7348 30.813 27.5495 29.2521 27.2358C29.1169 26.949 29.1555 26.6736 29.3255 26.4135C30.8709 25.6371 32.4124 24.7804 34.0892 26.1228Z" fill="#D63A32"/>
<path d="M4.66508 42.944C4.66121 43.0893 4.65735 43.2347 4.65349 43.38C2.84539 42.6839 1.96838 41.1731 1.23046 39.5438C1.34636 39.5438 1.4584 39.5438 1.57431 39.54C2.40495 39.4138 2.65994 40.2667 3.2665 40.5229C3.83443 41.2687 4.70757 41.8501 4.66508 42.944Z" fill="#D5322D"/>
<path d="M26.285 1.30038C26.5825 1.32715 26.88 1.35393 27.0461 1.65608C26.7718 2.22979 26.2 2.47075 25.7325 2.83027C24.9791 3.1439 24.643 4.23012 23.5844 3.97769C23.4454 3.83235 23.3101 3.68319 23.171 3.53785C23.4376 3.18597 23.7042 2.8341 23.9708 2.48222C24.6314 1.87409 25.1994 1.09002 26.285 1.30038Z" fill="#5D863D"/>
<path d="M27.7106 26.6009C28.2129 26.7348 28.6456 26.7501 28.661 26.0578C28.7615 26.1917 28.8581 26.3256 28.9585 26.4556C29.2483 27.2205 29.6346 27.9778 29.0783 28.7849C27.4479 28.8078 27.2431 28.4789 27.7106 26.6009Z" fill="#728F4F"/>
<path d="M15.5059 43.0664C15.4944 42.9096 15.4866 42.7566 15.475 42.5998C15.5407 42.1599 15.8537 41.8769 16.1318 41.5709C16.6418 41.2037 16.9316 40.4273 17.7854 40.6912C17.909 40.6874 18.0288 40.6836 18.1524 40.6836C17.5536 41.7889 16.8079 42.7336 15.5059 43.0664Z" fill="#D02B2A"/>
<path d="M28.6069 25.7863C27.6913 25.0137 27.7995 23.981 27.8806 22.9598C28.3365 23.8471 28.5297 24.8033 28.6069 25.7863Z" fill="#739F4A"/>
<path d="M28.9624 28.8002C28.9624 28.0199 28.9585 27.2397 28.9585 26.4556C29.0783 26.4173 29.2019 26.402 29.3294 26.4135C29.3564 26.7157 29.3835 27.0217 29.4105 27.3238C29.708 27.5954 29.7505 27.9396 29.7003 28.3144C29.6308 28.586 29.4917 28.8078 29.2096 28.9072C29.1285 28.869 29.0435 28.8346 28.9624 28.8002Z" fill="#C14433"/>
<path d="M12.4461 26.8954C12.5581 26.9605 12.6702 27.0293 12.7861 27.0943C12.9406 27.6145 12.8015 28.127 12.7552 28.6433C12.7204 28.8307 12.6586 29.0029 12.5813 29.1711C12.2104 29.7219 11.7429 29.9973 11.0707 29.6837C10.5259 29.2132 10.3714 28.6892 10.835 28.0735C10.9664 27.6948 11.1016 27.3162 11.233 26.9375C11.6425 27.144 12.0481 27.1632 12.4461 26.8954Z" fill="#918A4B"/>
<path d="M4.27487 27.7025C4.56076 27.2358 5.02438 27.32 5.46481 27.3276C5.78548 27.6374 5.99024 27.3812 6.2066 27.1708C7.01406 26.9911 7.87947 27.4309 8.65217 26.9375C8.73716 26.9299 8.82602 26.9222 8.91102 26.9146C9.6953 26.9146 10.3869 27.037 10.4332 28.0276C10.2169 28.3106 9.92324 28.3718 9.58326 28.3144C8.93033 28.2035 9.45963 28.5554 9.44031 28.6969C9.59485 28.9723 9.79189 29.2094 10.0044 29.4312C11.3489 30.8464 11.345 30.8464 9.47895 31.5348C9.25873 31.7834 8.94579 31.9058 8.68694 32.1009C8.29286 32.4069 7.81766 32.4336 7.35404 32.491C7.17246 32.6784 6.72816 32.7702 7.12996 33.1412C7.52404 32.8505 8.00697 32.7434 8.36627 32.4222C8.6483 32.2271 8.91488 32.0014 9.25487 31.9058C10.4641 31.772 11.2639 32.2998 11.6966 33.4089C10.978 34.3231 9.56008 34.9159 10.2555 36.4802C10.2555 36.66 10.2091 36.8282 10.1241 36.9851C8.95738 37.7347 8.43195 37.0501 8.02242 36.0709C7.87947 35.7229 8.52081 35.1721 7.75971 35.0115C7.22655 34.8968 6.9677 35.3022 6.71271 35.6694C6.60453 35.8223 6.48477 35.9715 6.34568 36.1015C5.9207 36.3731 5.48413 36.2201 5.04756 36.1513C4.87757 36.1168 4.7153 36.0633 4.56076 35.9945C4.08942 35.8491 4.14351 35.1377 3.56785 35.0995C3.41332 35.0345 3.28582 34.935 3.17378 34.8126C0.90593 33.2751 1.01797 31.3627 3.47127 29.8902C3.78421 29.8749 3.97352 30.0279 4.07397 30.3109C4.25169 30.9764 3.52149 31.5693 3.98124 32.3839C4.85825 32.0779 5.19437 31.2977 5.61549 30.6131C5.77003 30.0623 5.52276 29.7334 5.00892 29.5498C4.1976 29.1559 4.25169 28.4253 4.27487 27.7025Z" fill="#E63836"/>
<path d="M3.86148 35.023C4.9587 34.3192 3.98897 35.9447 4.66121 35.7191C5.14415 36.5376 4.72689 37.0845 4.00442 37.3522C3.46354 37.5549 2.94197 37.7615 2.45904 38.0789C2.27359 38.1516 2.08429 38.1478 1.89498 38.0866C1.74816 37.9489 1.64771 37.7806 1.59749 37.5855C0.662532 35.8874 1.70567 34.0438 1.20728 32.3151C1.29614 31.2824 1.79453 30.506 2.69085 29.9743C2.86857 29.7716 3.08492 29.741 3.33218 29.8252C3.39013 29.8787 3.44422 29.9361 3.50217 29.9896C2.8647 30.5175 2.19633 31.0185 2.00315 31.8944C1.84475 32.6019 1.98384 32.7626 2.8338 33.4434C3.27423 33.7991 3.4674 34.3881 3.50217 34.9847C3.59103 35.3481 3.71853 35.2639 3.86148 35.023Z" fill="#E64442"/>
<path d="M1.21114 32.3189C1.96838 34.1548 1.27296 36.178 1.94906 38.0254C1.86793 38.1937 1.73271 38.3046 1.55113 38.3658C0.276186 36.4114 1.05661 34.346 1.21114 32.3189Z" fill="#EA5956"/>
<path d="M8.92261 28.7657C8.47831 26.6048 10.1473 28.716 10.4332 28.0314C10.5646 28.0467 10.6998 28.062 10.8312 28.0811C10.8312 28.6395 10.9355 29.1635 11.287 29.6186C11.0746 29.8405 10.808 29.9131 10.5066 29.894C9.85756 29.6875 9.42872 29.175 8.92261 28.7657Z" fill="#B33429"/>
<path d="M4.27487 27.7025C4.90461 28.0314 4.35986 29.2438 5.4455 29.2285C5.54208 30.0279 4.83893 30.1541 4.37145 30.4792C4.19373 30.5289 4.03533 30.4907 3.88852 30.3836C3.75716 30.2535 3.62967 30.1197 3.49831 29.9896L3.48672 29.9743C3.09265 29.2323 4.23623 28.8269 3.90398 28.1002C4.03533 27.974 4.1551 27.8401 4.27487 27.7025Z" fill="#E64442"/>
<path d="M1.55499 38.362C1.68635 38.2472 1.81771 38.1363 1.95293 38.0216L1.94906 38.0407C2.68312 38.775 3.20083 39.605 3.1081 40.6912C2.24655 40.7601 2.09201 39.911 1.57045 39.5362C1.56658 39.1499 1.55885 38.7559 1.55499 38.362Z" fill="#E3302E"/>
<path d="M3.9117 28.1079C4.80802 28.957 3.6683 29.3662 3.49445 29.982C3.22787 29.982 2.96129 29.982 2.69471 29.982C2.70244 29.1023 3.52149 28.739 3.9117 28.1079Z" fill="#E95854"/>
<path d="M6.19114 26.9528C7.09133 26.295 7.99924 26.337 8.91488 26.9146L8.88397 26.9413C8.10355 27.3544 7.29223 27.3238 6.46931 27.0943C6.37659 27.0484 6.28387 26.9987 6.19114 26.9528Z" fill="#E63836"/>
<path d="M6.19887 27.297C6.11774 27.6642 6.38045 28.2991 5.73139 28.2494C5.31027 28.2188 5.45709 27.6719 5.46481 27.3276C5.70821 27.2014 5.94774 27.0752 6.19114 26.9528L6.19501 27.0064C6.33409 27.0714 6.38045 27.1326 6.33409 27.1976C6.28773 27.2626 6.24523 27.297 6.19887 27.297Z" fill="#EA5B55"/>
<path d="M26.7332 4.78853C26.4048 4.75793 26.1034 4.8 25.8948 5.09451C25.0023 5.81738 24.1021 5.84798 23.1981 5.11746C23.2058 5.00654 23.2097 4.89562 23.2135 4.78471C24.9637 3.66024 27.0075 3.05593 28.6494 1.72493C28.9817 1.4572 29.4646 1.29656 29.8316 1.7823C29.9514 2.29099 29.5998 2.58931 29.3217 2.91442C28.8194 3.55314 29.5458 3.01003 29.5612 3.1439C29.6732 3.1286 29.7892 3.11713 29.9089 3.10565C31.7016 3.33131 33.5444 2.47075 35.2946 3.37721C35.3641 3.59139 35.3294 3.78645 35.1903 3.96621C34.5683 4.25307 33.784 3.7941 33.2238 4.38311C32.8645 4.65084 32.4974 4.58964 32.1343 4.39458C31.7286 4.39458 31.3229 4.39458 30.9211 4.39458C30.5039 4.83443 29.936 4.76176 29.3719 4.79618C29.6076 5.23985 30.0944 5.28957 30.3764 5.59555C30.5889 5.79061 30.7164 6.02392 30.7125 6.32225C30.4189 7.10631 29.8587 6.87683 29.3062 6.69324C28.3635 6.16926 27.6179 5.38519 26.7332 4.78853Z" fill="#5B8C37"/>
<path d="M35.5225 7.76416C34.7576 7.90185 33.9965 8.03955 33.2315 8.17724C32.3815 8.05484 32.6017 7.37787 32.5168 6.85006C32.142 6.47906 31.8445 6.08894 32.0647 5.5267C33.6372 5.63762 34.3674 7.02217 35.5225 7.76416Z" fill="#73A748"/>
<path d="M30.1562 5.88623C29.5573 5.5726 28.8812 5.36224 28.4138 4.57817C29.2637 4.1957 30.1098 4.41371 30.9211 4.39458C31.0525 4.63937 31.1839 4.88032 31.3152 5.12128C31.4079 6.09659 30.5116 5.59172 30.1562 5.88623Z" fill="#76A74B"/>
<path d="M30.1562 5.88623C30.5425 5.63379 30.925 5.37754 31.3114 5.12511C31.5625 5.25897 31.8175 5.39284 32.0686 5.5267C32.3313 5.90535 32.594 6.28017 32.8567 6.65882C32.6327 7.59205 31.9759 7.59205 31.2302 7.39699C30.84 7.12161 30.728 6.67412 30.5348 6.27635C30.4073 6.14631 30.2798 6.01627 30.1562 5.88623Z" fill="#83B556"/>
<path d="M35.1903 3.97004C35.1864 3.84382 35.1941 3.71761 35.2173 3.59522C35.6616 2.65051 36.4227 2.86469 37.1568 3.10948C37.8136 3.32749 38.4356 3.64111 39.0383 3.98151C39.2855 4.11538 39.5328 4.24542 39.7801 4.37928C39.6564 4.5055 39.5367 4.63172 39.4169 4.75793C38.5669 5.09068 37.8251 4.81913 37.1181 4.34869C36.5695 3.74438 35.8355 4.06948 35.1903 3.97004Z" fill="#7CAE53"/>
<path d="M32.1343 4.39458C32.4974 4.39076 32.8606 4.38693 33.2238 4.38311C34.0003 5.10598 35.2212 5.30487 35.82 6.73531C34.1819 6.27252 33.359 4.98742 32.1343 4.39458Z" fill="#8DB861"/>
<path d="M37.122 4.34486C37.887 4.48255 38.6519 4.61642 39.4208 4.75411C39.6526 5.28957 39.5907 5.65292 38.9069 5.40049C38.3042 5.17865 37.7092 5.09068 37.0834 5.14805C36.5309 5.48845 36.1793 5.28192 35.9552 4.73881C36.2295 4.27602 36.697 4.38311 37.122 4.34486Z" fill="#5E9036"/>
<path d="M35.9514 4.73881C36.3261 4.8765 36.7047 5.01036 37.0795 5.14805C36.7202 5.87858 36.2566 6.04304 35.6539 5.40049C35.2405 4.96064 35.4646 4.78471 35.9514 4.73881Z" fill="#84B359"/>
<path d="M29.4183 28.3947C29.4144 28.039 29.4105 27.6795 29.4105 27.3238C30.7434 26.6583 32.0609 25.9087 33.6449 26.5015C35.1555 26.6086 35.9823 27.6986 36.8091 28.7313C38.8374 31.2633 38.7756 36.6141 36.7279 38.7903C36.67 38.7215 36.612 38.6565 36.5541 38.5876C36.3686 37.2987 36.8709 36.113 37.1065 34.8891C37.3152 33.8029 37.4156 32.7549 36.2991 32.0397C35.9475 31.7261 35.7814 31.3245 35.7157 30.8693C35.6577 30.2459 35.5766 29.6301 35.2675 29.0526C35.3371 28.8269 35.0435 28.9723 35.086 29.0602C35.4684 29.8022 34.8116 29.9705 34.348 30.2382C33.7028 30.4142 33.1233 30.2574 32.594 29.8825C32.3545 29.5727 32.0609 29.3509 31.6475 29.3356C31.2766 29.1558 31.1027 28.7887 30.8361 28.5095C30.3918 28.1194 29.8626 28.7504 29.4183 28.3947Z" fill="#E6403D"/>
<path d="M35.5534 41.4409C35.1671 41.5747 34.7846 41.7048 34.3983 41.8386C33.7994 41.8998 33.2894 41.7889 33.0538 41.1578C33.1658 40.217 33.6487 39.5017 34.6339 39.9186C35.3371 40.217 35.1516 39.6471 35.3332 39.4864C35.7427 39.1269 36.0016 38.5379 36.7163 38.7789L36.7279 38.7903C36.8091 39.8765 36.0866 40.6185 35.5534 41.4409Z" fill="#E6403D"/>
<path d="M25.9064 26.555C26.4202 26.5436 26.9341 26.5283 27.444 26.5168C27.5252 26.5665 27.614 26.5971 27.7106 26.6009C28.1858 27.3009 27.3165 28.7504 28.9624 28.8002L29.0203 28.8575C29.2328 29.1405 29.2096 29.4236 29.0165 29.7066C28.1047 30.2727 27.2315 30.0011 26.37 29.5727C25.9527 29.3165 25.6089 28.9952 25.4196 28.5362C25.3462 27.5877 26.3275 27.9319 26.6752 27.515C26.4473 27.167 25.7248 27.2091 25.9064 26.555Z" fill="#C14433"/>
<path d="M27.3977 25.553C27.1156 24.2373 26.8375 22.9177 26.5554 21.602C27.5058 22.78 27.5329 24.1493 27.3977 25.553Z" fill="#739F4A"/>
<path d="M21.6141 39.9492C20.5246 38.1822 20.0146 36.2698 20.1653 34.1968C20.9998 33.6193 21.023 32.6937 21.22 31.8293C21.4479 30.8387 21.6295 29.7984 22.7886 29.3853C23.0667 29.3241 23.3294 29.3471 23.5767 29.4963C23.6849 29.6416 23.739 29.8061 23.7312 29.9896C23.3835 31.0147 22.7152 31.9632 22.9586 33.1297C23.0513 33.8067 23.7312 33.9023 24.1292 34.2733C24.303 34.5831 24.3069 34.9044 24.1949 35.2295C23.9901 35.6196 23.654 35.9868 23.9978 36.4687C24.3185 37.2069 25.1569 37.7462 24.8748 38.7138C24.4112 39.0963 24.1253 39.5017 24.4962 40.129C24.813 40.6644 25.068 41.2458 24.6276 41.8539C24.4499 42.0719 24.2335 42.2211 23.9437 42.2479C23.4067 42.2058 23.0358 41.9266 22.804 41.4523C22.7615 40.6797 22.3095 40.2208 21.6141 39.9492Z" fill="#E43533"/>
<path d="M19.3539 34.1892C19.3269 34.5028 19.2651 34.7935 18.9444 34.9503C18.871 34.9044 18.7976 34.8547 18.7203 34.8088C18.2529 33.7302 17.117 33.4013 15.8652 33.9827C14.9882 34.0744 14.9071 33.6308 15.1775 32.9691C15.4596 32.2845 15.9387 31.684 16.0507 30.9343C16.0623 30.2421 15.2896 29.917 15.2471 29.2515C15.2587 29.0832 15.3166 28.9302 15.4132 28.7925C16.1975 28.5439 16.8813 29.1253 17.6463 29.0641C18.7397 29.699 19.2187 30.6934 19.3308 31.8982C19.3385 32.0244 19.3501 32.1506 19.3655 32.2768C19.6051 32.9156 19.6167 33.5543 19.3539 34.1892Z" fill="#E63F3B"/>
<path d="M22.8195 29.611C21.7261 30.483 21.6295 31.7567 21.4982 32.9806C21.4054 33.845 21.2045 34.4263 20.1653 34.193C20.1498 33.5581 20.1344 32.9194 20.1189 32.2845C20.3894 31.9135 20.0262 31.4354 20.3353 31.072C20.8298 30.3759 21.023 29.4465 21.9309 29.0679C22.3134 29.11 22.6263 29.2668 22.8195 29.611Z" fill="#E53E3E"/>
<path d="M23.9476 42.2517C24.0867 42.114 24.2258 41.9725 24.3649 41.8348C24.8323 41.6742 25.2998 41.7086 25.7673 41.8463C26.2811 41.9687 26.6945 41.5977 27.1736 41.5594C27.5522 41.5556 27.8574 41.7009 28.0815 42.0031C28.4331 42.638 29.2444 43.3418 27.8265 43.7166C26.5207 43.4259 25.1916 43.2079 23.994 42.573C23.9785 42.4659 23.9631 42.3588 23.9476 42.2517Z" fill="#E6423E"/>
<path d="M17.7815 40.6912C17.2715 41.0775 16.7616 41.4676 16.2516 41.8539C16.1898 41.7813 16.1241 41.7048 16.0584 41.6321C15.9464 41.3491 15.9541 41.066 16.0507 40.783C17.0475 39.5017 17.3488 37.9412 17.8742 36.4649C18.079 35.8912 17.9399 34.9962 18.9483 34.9541L18.9406 34.9503C18.9599 36.943 18.3301 38.8095 17.7815 40.6912Z" fill="#E33D39"/>
<path d="M20.5014 31.1447C20.4898 31.5654 20.5555 32.0091 20.1189 32.2883C19.9489 31.9747 19.6553 31.9058 19.3308 31.8982C18.6276 31.0453 18.6392 29.6798 17.3681 29.2362C16.8659 29.3777 16.8234 29.0488 16.7963 28.6969C16.8388 28.5286 16.9393 28.41 17.1016 28.3412C18.3417 28.5171 18.8826 29.4963 19.3385 30.4333C20.1035 32.0091 20.0494 30.2268 20.4125 30.2191C20.7525 30.5022 20.7177 30.8158 20.5014 31.1447Z" fill="#D0362F"/>
<path d="M21.6141 39.9492C22.6147 39.9836 23.2792 40.2781 22.8079 41.4523C22.4099 40.9513 22.012 40.4503 21.6141 39.9492Z" fill="#EB5C54"/>
<path d="M19.3539 34.1892C19.3578 33.5505 19.3617 32.9156 19.3617 32.2768C19.9064 32.9156 19.8948 33.5543 19.3539 34.1892Z" fill="#D0362F"/>
<path d="M29.7544 2.0615C29.1092 1.34628 28.6726 2.1074 28.3829 2.39043C26.9302 3.79793 25.1221 4.37928 23.2135 4.78853C22.7461 4.25307 23.6385 4.32956 23.5844 3.98151C24.2335 3.47665 24.8787 2.97561 25.5278 2.47075C26.312 2.55107 26.8104 1.95823 27.4479 1.68285C28.6533 0.990579 29.9669 0.852889 31.3229 0.959981C31.1761 1.85114 30.6237 2.17624 29.7544 2.0615Z" fill="#7CAA52"/>
<path d="M31.3075 7.03747C31.9372 7.36257 32.4124 7.06807 32.8567 6.65882C33.5251 7.09484 33.5213 7.09101 33.0267 7.43906C32.4395 7.85596 33.2933 7.89421 33.2315 8.17724C31.9488 8.31875 30.6623 8.46027 29.3796 8.60178C28.9006 7.94775 28.0004 8.29198 27.4518 7.79859C27.1929 6.42551 28.2283 6.59762 28.9199 6.77356C29.7196 6.97245 30.5193 6.89978 31.3075 7.03747Z" fill="#7CB051"/>
<path d="M31.3075 7.03747C30.5348 7.47349 29.7544 7.52321 28.9083 7.21341C28.2901 6.98392 27.614 6.81946 27.4518 7.79859C26.5091 7.63795 25.7248 7.19046 24.9521 6.6091C25.918 5.70264 26.9534 6.92655 27.8265 6.284C28.3365 5.62615 28.8696 6.67794 29.3835 6.26487C29.766 6.33372 30.1407 6.91508 30.5309 6.27635C30.9018 6.41786 31.1607 6.67412 31.3075 7.03747Z" fill="#73A748"/>
<path d="M29.3874 6.26487C28.8774 6.97627 28.3481 6.14631 27.8304 6.284C27.2818 5.91682 26.6791 5.59172 26.7332 4.78853C28.0351 4.54375 28.4369 5.89005 29.3874 6.26487Z" fill="#8AB862"/>
<path d="M23.1981 5.11746C24.1021 5.6032 24.9946 5.16718 25.8948 5.09451C25.2844 6.22663 24.5001 6.23428 23.1981 5.11746Z" fill="#7CAA52"/>
<path d="M27.8265 43.7166C28.7499 43.2232 27.7647 42.7221 27.8304 42.2249C28.3944 41.6436 29.0087 42.0719 29.6114 42.1293C30.2798 42.1943 30.7009 41.7851 30.9559 41.2726C31.1607 40.8633 30.7048 40.8098 30.4266 40.6989C29.8935 40.4962 29.3178 40.0028 29.963 39.6585C31.4079 38.8821 31.2379 36.289 33.6217 36.5949C34.066 36.6523 34.2437 35.8644 34.518 35.4437C34.8812 34.8853 35.0705 34.1127 35.9784 34.1395C36.1059 34.281 36.1909 34.4416 36.2411 34.6252C36.1214 36.1054 35.4453 37.291 34.2785 38.209C33.2238 38.9012 32.6288 39.7618 33.2238 41.0546C33.614 41.3185 34.008 41.5786 34.3983 41.8425C33.4942 43.6171 31.6668 43.4029 30.1214 43.7204C29.3874 43.8657 28.5953 43.7281 27.8265 43.7166Z" fill="#E33734"/>
<path d="M2.33541 38.0101C2.38177 37.3063 2.92266 36.943 3.47127 36.9965C4.56849 37.1075 4.49895 36.3463 4.66508 35.7191C4.80416 35.7229 4.94711 35.7267 5.08619 35.7305C5.37595 36.0595 5.68117 36.3425 6.17182 36.136C6.69339 34.7208 6.69339 34.7208 8.77966 34.4837C8.65603 35.5661 7.53176 37.2222 10.0662 36.8665C10.6843 36.8588 10.9162 37.2451 11.0321 38.0177C11.6077 36.8206 12.1602 35.8529 13.6206 36.289C14.2117 36.4649 14.598 35.8032 15.1157 35.6005C15.7725 35.5776 16.1589 35.9753 16.4873 36.4649C16.6804 37.3446 17.6463 38.4538 15.815 38.7483C15.0385 38.3275 14.7796 38.5953 14.9303 39.4061C15.2046 39.8115 15.22 40.2934 15.3475 40.7448C15.5446 41.1846 15.9 41.4868 16.24 41.8042L16.2555 41.8501C15.9966 42.0987 15.7378 42.3473 15.4789 42.5959L15.448 42.5615C13.9992 42.6609 12.7822 43.7127 11.2716 43.5483C11.2136 43.5406 11.1171 43.4718 11.1171 43.4756C11.0321 43.621 11.0784 43.7204 11.2407 43.7625C10.0739 44.3362 8.90715 44.3477 7.74039 43.7548C7.35404 43.5292 9.10419 43.2002 7.71335 43.0472C7.02179 42.9708 7.02951 41.9496 6.24137 42.0758C6.06365 42.0681 5.89752 42.026 5.73139 41.9649C5.49572 41.831 5.31414 41.6436 5.17892 41.4103C4.76553 40.4809 4.47577 39.4941 3.80739 38.6985C3.62967 38.5608 3.41718 38.5073 3.1931 38.4997C2.96902 38.5226 2.74494 38.557 2.51699 38.5302C2.30837 38.4079 2.11133 38.2778 2.33541 38.0101Z" fill="#E3302E"/>
<path d="M2.33541 38.0101C2.4629 38.1401 2.5904 38.2702 2.71789 38.4002C3.41332 39.5973 4.54145 40.412 5.43004 41.4409C5.5614 41.5556 5.69662 41.6742 5.82798 41.7889C5.85889 42.3588 6.06365 41.9075 6.19887 41.8501C6.38818 41.5403 6.88656 41.3414 6.98315 41.5327C7.4854 42.5347 8.35468 42.6648 9.44418 42.5539C8.91102 43.2155 8.49376 43.7281 7.73653 43.7548C6.58522 43.9575 5.70435 43.1582 4.66508 42.944C4.13578 42.1982 3.40559 41.5939 3.1081 40.695C2.50927 39.9033 2.12292 39.016 1.94906 38.0445C2.07656 38.033 2.20405 38.0216 2.33541 38.0101Z" fill="#E53A37"/>
<path d="M11.233 43.7663C10.9896 43.7433 10.7423 43.7204 10.4989 43.6975C12.2606 43.7816 13.5897 42.0069 15.4441 42.5653C14.1576 43.3723 12.8131 43.969 11.233 43.7663Z" fill="#E64640"/>
<path d="M39.0421 3.97769C37.7092 4.41753 36.6043 2.61226 35.2173 3.59139C33.2701 3.57992 31.3229 3.56844 29.3758 3.55314C29.2676 3.39633 29.2637 3.23187 29.3642 3.0674C30.5696 1.98501 31.9179 1.18564 33.5638 0.967631C33.8381 0.956157 34.1085 0.940858 34.3828 0.929384C35.8509 2.0768 38.0724 2.08827 39.0421 3.97769Z" fill="#76A74E"/>
<path d="M33.5676 0.967631C32.1729 1.71728 30.7782 2.47075 29.3835 3.22039C28.9817 3.35043 28.889 3.18215 28.9855 2.82262C29.2405 2.57019 29.4994 2.31393 29.7544 2.0615C30.2759 1.69433 30.8014 1.32333 31.3229 0.956157C32.0725 0.959981 32.8181 0.963806 33.5676 0.967631Z" fill="#8DB963"/>
<path d="M27.4479 1.67903C26.9534 2.29099 26.5245 3.05211 25.5278 2.46692C26.0339 2.19537 26.54 1.92381 27.05 1.65608C27.1813 1.66373 27.3127 1.67138 27.4479 1.67903Z" fill="#8EB967"/>
<path d="M19.7287 5.4961C19.7132 4.8459 18.9637 4.11538 20.0378 3.50342C20.0803 4.08478 20.115 4.60494 20.1537 5.12893C20.0146 5.25132 19.8717 5.37371 19.7287 5.4961Z" fill="#B7C363"/>
<path d="M29.0242 29.5766C29.0242 29.3356 29.0203 29.0947 29.0203 28.8537C29.1517 28.7007 29.283 28.5477 29.4183 28.3947C30.0519 28.3182 30.473 27.1134 31.2998 28.0429C30.7859 28.9111 30.3455 29.8825 29.0242 29.5766Z" fill="#B31E1E"/>
<path d="M16.2361 36.4802C15.8537 36.2278 15.4712 35.9715 15.0848 35.7191C14.1769 35.3519 13.1956 35.176 12.3302 34.6902C11.9052 34.2427 12.6006 33.7417 12.249 33.2942C11.9941 33.103 11.7545 32.7052 11.5807 32.6708C10.9084 32.5446 12.8479 31.7299 11.2175 31.619C10.5955 31.5769 11.4725 30.4065 12.2954 30.1885C11.6425 30.1924 10.7771 30.7661 10.4564 29.6186C10.7307 29.6148 11.005 29.6148 11.2793 29.611C11.8859 29.6301 12.2065 29.2782 12.3997 28.7619C12.5234 28.7543 12.5852 28.7045 12.5852 28.6051C12.5852 28.5018 12.5234 28.4789 12.3959 28.5286C12.2375 27.974 12.4345 27.515 12.7745 27.0905C13.4119 27.0217 14.0533 26.9566 14.6908 26.8878C15.6566 27.1058 16.4873 27.538 17.0977 28.3335L17.0088 28.4483C16.6032 29.1903 16.07 28.7581 15.56 28.6166C15.3128 28.5477 15.1312 28.6739 15.39 28.6854C15.4132 28.6854 15.4364 28.7925 15.4557 28.8499C15.4596 28.9684 15.4634 29.0908 15.4634 29.2094C14.9844 30.3606 15.56 30.7278 16.6186 30.7316C16.5066 31.6304 16.0198 32.3686 15.5484 33.0991C15.2548 33.5543 15.2973 33.7532 15.8498 33.7952C16.5645 34.6176 17.5613 35.3901 16.2361 36.4802Z" fill="#E33733"/>
<path d="M20.5014 31.1447C20.4744 30.8387 20.4473 30.5289 20.4203 30.2229C21.3745 28.7007 22.3365 27.1861 24.3455 26.8725C24.4769 27.0064 24.5426 27.167 24.5542 27.3506C24.0635 28.4215 23.1054 28.8805 22.0545 29.2209C21.5329 29.8634 21.0152 30.5022 20.5014 31.1447Z" fill="#CE332C"/>
<path d="M24.3533 27.3085C24.3494 27.1632 24.3455 27.0178 24.3417 26.8687C24.8053 26.49 25.3384 26.4479 25.9064 26.555C26.2309 27.1823 27.4749 26.5933 27.4402 27.6948C26.6752 28.0467 25.9064 27.5227 25.1375 27.7178C24.8246 27.6719 24.5696 27.5303 24.3533 27.3085Z" fill="#D1211D"/>
<path d="M12.4036 28.5362C12.7552 28.3488 13.072 27.9243 13.524 28.3374C13.5974 28.4024 13.6515 28.6166 13.6128 28.6472C13.2458 28.9646 12.8208 28.8116 12.4074 28.7657C12.3611 28.6931 12.3572 28.6166 12.4036 28.5362Z" fill="#EA544E"/>
<path d="M12.3843 34.5755C13.3308 34.8547 14.6637 34.2389 15.0848 35.7229C15.1041 36.3578 14.4976 36.4802 14.1692 36.8359C13.4892 37.5741 12.5852 35.6885 12.0945 36.9774C11.7816 37.7997 11.3914 38.404 10.4873 38.8286C10.1396 38.186 10.9741 37.2872 10.0585 36.8741C10.0585 36.7441 10.0546 36.6102 10.0546 36.4802C9.94642 35.4284 10.4796 34.8203 11.4686 35.1148C12.1988 35.3251 12.0984 34.7552 12.3843 34.5755Z" fill="#E63C39"/>
<path d="M10.4603 29.6225C11.2484 30.3798 12.2993 29.7143 13.1995 30.1273C12.5852 30.6131 11.4764 30.3147 11.2561 31.3895C11.855 32.0282 12.1525 31.0912 12.6161 31.1294C13.2497 31.7222 10.468 32.5828 12.7706 33.0456C12.6354 33.9291 12.1293 33.7034 11.6077 33.4204C10.8389 33.0303 10.3714 32.0359 9.28577 32.273C9.0501 32.032 9.06169 31.7873 9.27805 31.5425C9.06942 30.2038 10.0353 30.724 11.005 31.03C10.1087 30.0202 9.2085 29.6607 8.91874 28.7657C9.43645 29.0526 9.95029 29.3356 10.4603 29.6225Z" fill="#E7403C"/>
<path d="M11.6116 33.4242C12.0404 33.4204 12.4886 33.4854 12.7745 33.0494C13.9219 33.8756 12.0984 33.9635 12.3881 34.5755C12.1988 34.9427 12.9445 36.1283 11.5189 35.4284C10.6921 35.023 10.3791 35.8797 10.0623 36.4764C8.67535 34.5105 10.3405 34.0668 11.6116 33.4242Z" fill="#E3302E"/>
<path d="M3.89238 30.3874C4.00442 30.3568 4.11646 30.3262 4.22851 30.2994C4.441 30.3377 4.60326 30.4524 4.72689 30.6169C5.26391 30.8846 4.97802 30.2382 5.21755 30.1732C6.05592 29.5001 5.89366 30.4448 6.14092 30.7278C5.78548 31.2327 5.44163 31.7452 5.0746 32.2424C4.73462 32.7014 4.56849 33.5466 3.69921 33.0226C3.0347 32.621 3.05788 32.0206 3.39786 31.3933C3.57558 31.0606 3.73012 30.7202 3.89238 30.3874Z" fill="#F1938C"/>
<path d="M7.31927 31.9173C7.70562 32.0779 8.0881 32.185 8.45899 31.8867C8.74875 32.1047 8.72557 32.3533 8.52853 32.6172C8.35082 33.4204 7.28836 33.1297 7.01406 33.8144C6.37659 33.0685 6.9677 32.5101 7.31927 31.9173Z" fill="#E7403C"/>
<path d="M4.64576 30.7431C4.50667 30.5939 4.36759 30.4448 4.22851 30.2994C4.63417 29.9437 5.03983 29.588 5.4455 29.2323C6.51954 29.3433 6.23364 30.0776 6.14092 30.724C5.82025 30.7699 5.93615 29.9361 5.42231 30.3798C5.21369 30.5978 4.97029 30.7584 4.64576 30.7431Z" fill="#F39D96"/>
<path d="M6.19887 27.297C6.19887 27.1976 6.19887 27.102 6.19501 27.0064C7.09133 26.9872 7.98765 26.9643 8.88011 26.9413C8.16151 28.3527 7.16087 27.6872 6.19887 27.297Z" fill="#EB5A53"/>
<path d="M7.31927 31.9173C7.21882 32.5484 7.11837 33.1833 7.01406 33.8144C6.67407 34.1127 6.19114 34.2198 6.26068 33.6576C6.34182 32.9997 6.31477 32.1009 7.31927 31.9173Z" fill="#ED746B"/>
<path d="M8.42036 30.9879C8.31991 30.854 8.13446 30.6934 8.05719 30.4907C7.90265 30.0814 8.21946 29.9208 8.53626 29.8864C8.90329 29.8443 8.88397 30.1656 8.88397 30.4027C8.88784 30.6475 8.87625 30.9152 8.42036 30.9879Z" fill="#E7403C"/>
<path d="M3.86148 35.023C3.85761 35.4437 4.02761 35.8988 3.67603 36.2469C3.61035 36.3157 3.27037 36.2622 3.22014 36.1742C2.95743 35.7191 3.33605 35.3749 3.50218 34.9924C3.62194 34.9924 3.74557 35 3.86148 35.023Z" fill="#F0857D"/>
<path d="M6.17183 36.1398C6.02888 36.4037 5.86275 36.7518 5.52276 36.6447C5.12869 36.5223 5.0746 36.113 5.08233 35.7344C5.44549 35.8682 5.80866 36.0021 6.17183 36.1398Z" fill="#EC6E67"/>
<path d="M8.5324 32.6172C8.50922 32.3724 8.48604 32.1315 8.46286 31.8867C8.66762 31.6075 8.95352 31.5234 9.28191 31.5463C9.28577 31.7911 9.28577 32.0359 9.28964 32.2807C9.03851 32.3916 8.78352 32.5025 8.5324 32.6172Z" fill="#EE7168"/>
<path d="M28.9817 2.82645C29.113 2.96031 29.2483 3.09035 29.3796 3.22422C29.3796 3.33514 29.3758 3.44988 29.3758 3.56079C28.974 3.66406 28.576 3.77115 28.1317 3.8859C28.1124 3.22422 28.6185 3.0827 28.9817 2.82645Z" fill="#7CAA52"/>
<path d="M29.0242 29.5766C29.9321 29.2821 30.5773 28.6127 31.2959 28.0429C31.435 28.4521 31.5779 28.8613 31.717 29.2706C32.3738 29.5115 30.4073 30.0508 31.8329 30.2C32.4974 30.5748 33.1349 30.9764 33.9578 30.8999C34.6571 30.8311 35.2057 31.0682 35.4066 31.8102C35.4221 31.99 35.3989 32.1621 35.3448 32.3342C34.4408 33.7226 32.8374 34.2963 31.6822 35.4093C31.1839 35.8874 30.5309 36.178 30.4653 36.9659C30.4421 37.2337 30.3764 37.4861 30.1948 37.6965C29.2135 37.8609 28.209 38.0942 27.7222 36.8512C28.6417 35.612 27.529 34.6979 27.1968 33.6805C27.0384 33.9941 27.0152 34.3536 26.7795 34.6176C25.8793 34.9771 25.5355 36.1589 24.4151 36.1933C24.0596 36.0021 23.9515 35.6847 23.9708 35.3098C23.9631 34.9159 23.9553 34.5258 23.9476 34.1318C23.739 33.9215 23.7119 33.6652 23.7583 33.3936C24.2528 32.3189 24.8478 31.2518 24.1446 30.0394C24.4846 28.8116 25.4273 29.087 26.3043 29.1903C27.189 29.4542 28.0699 29.7793 29.0242 29.5766Z" fill="#E53634"/>
<path d="M35.9552 34.5793C35.9514 34.4531 35.9475 34.3231 35.9436 34.1968C35.8007 34.0591 35.7041 33.8985 35.6539 33.7073C35.6191 33.0035 35.7659 32.3648 36.3454 31.8867C38.5399 31.9058 37.6629 33.6117 37.6242 34.5411C37.5624 35.9639 37.0409 37.3714 36.7163 38.7827C36.4227 39.0236 36.0905 39.2263 35.8471 39.5056C35.3332 40.0946 35.3487 40.0487 34.3133 40.0716C33.7801 40.0831 33.4981 40.6224 33.2276 41.0546C31.8947 39.6241 31.9566 39.3946 34.0119 38.0101C34.2669 38.0216 34.5605 38.2319 34.746 38.1516C35.395 37.8609 36.1832 35.4437 35.9552 34.5793Z" fill="#DA302E"/>
<path d="M35.1787 31.9058C34.9314 31.4392 34.6455 31.095 34.0158 31.3168C32.9611 31.6878 32.2502 31.1791 31.6861 30.353C31.6166 29.7563 31.8484 29.4733 32.482 29.6072C33.1195 29.7334 33.7531 29.8634 34.3905 29.9896C34.8812 30.0623 35.2019 30.3721 35.4839 30.7393C35.6307 31.1906 36.2643 31.772 35.1787 31.9058Z" fill="#E4302F"/>
<path d="M35.1671 30.7508C34.8001 30.6054 34.5335 30.3606 34.3944 29.9896C35.4762 29.393 34.3403 28.8116 34.2321 28.0429C35.5921 28.6548 36.3609 29.3509 35.9321 30.7622C35.6732 30.9841 35.4182 30.9688 35.1671 30.7508Z" fill="#E5534D"/>
<path d="M35.1671 30.7508C35.4221 30.7546 35.6771 30.7584 35.9321 30.7622C36.0711 31.1371 36.2102 31.5119 36.3493 31.8867C36.2141 32.5254 36.0827 33.168 35.9475 33.8067C34.9353 33.6728 35.1825 32.9117 35.1787 32.2807C35.1825 32.1583 35.1825 32.032 35.1825 31.9097C35.7698 31.5119 35.2791 31.1332 35.1671 30.7508Z" fill="#D12322"/>
<path d="M32.4858 29.6072C32.0918 29.7219 31.8484 29.9935 31.69 30.353C31.4041 30.3186 30.8902 30.3339 30.8748 30.2459C30.7512 29.6225 31.5702 29.7257 31.7247 29.2706C32.0068 29.1635 32.3468 28.9111 32.5592 28.9914C32.8606 29.1023 32.5438 29.393 32.4858 29.6072Z" fill="#EE8C85"/>
<path d="M26.3004 29.1903C25.8059 29.8443 24.6701 29.0564 24.3262 30.0508C24.048 30.2153 23.8008 30.1847 23.5767 29.9514C23.5806 29.8328 23.5806 29.7143 23.5806 29.5919C23.6385 28.7849 23.824 28.0811 24.8478 28.0658C25.0873 28.1691 25.1878 28.5401 25.5471 28.4292C25.7982 28.6816 26.0493 28.934 26.3004 29.1903Z" fill="#E53E3E"/>
<path d="M25.5471 28.4292C25.4234 28.6586 25.2921 28.7657 25.1221 28.4674C24.8594 28.0964 24.7937 27.7254 25.1298 27.3544C25.9373 27.2014 26.6752 27.5342 27.4363 27.6948C27.1813 28.8805 25.8832 27.4385 25.5471 28.4292Z" fill="#E9564D"/>
<path d="M27.0654 33.0571C27.2895 32.2692 27.6527 32.0932 27.7879 33.0341C27.9192 33.9253 28.0274 34.7017 28.6726 35.4475C29.4839 36.3884 28.3249 36.5031 27.8342 36.8627C26.6173 36.8894 27.3552 37.9527 26.9881 38.4308C26.7332 38.9969 26.3893 39.517 26.1189 40.0793C24.7551 40.6109 24.7242 39.7159 24.7164 38.7942C24.6855 37.8571 23.8162 37.3255 23.5806 36.4878C23.7197 36.1436 23.9206 35.9103 24.3417 36.0977C25.2728 35.7956 25.3848 34.2619 26.71 34.5602C27.1581 34.1356 27.0422 33.5811 27.0654 33.0571Z" fill="#E63E3A"/>
<path d="M24.7203 38.798C25.1221 39.1728 24.9328 40.1519 25.9102 39.9377C26.4009 39.1116 26.992 39.2837 27.6411 39.7465C28.1356 40.0984 28.4678 40.7218 29.2019 40.6721C29.6269 40.4732 30.1485 40.63 30.5425 40.3126C31.0757 40.3546 32.0686 40.3393 31.7325 40.9704C31.3461 41.6895 30.9868 42.9975 29.6539 42.6992C29.0474 42.5653 28.5065 42.1484 27.8342 42.2249C27.6681 41.919 27.3861 41.8425 27.0654 41.831C26.4666 41.6398 26.0261 42.0719 25.5123 42.2173C25.1298 42.0911 24.7473 41.9649 24.3649 41.8386C24.7937 41.0584 24.1871 40.5727 23.8781 39.9683C23.4685 39.1728 23.2869 38.3658 24.7203 38.798Z" fill="#DC2825"/>
<path d="M23.5767 29.9476C23.8278 29.982 24.0751 30.0126 24.3262 30.047C25.7905 31.3359 24.7589 32.3686 23.9746 33.4281C23.0474 33.5046 23.5149 32.8352 23.3719 32.6019C23.5574 32.2271 23.1015 32.3342 23.3565 32.3342C23.1981 32.8085 23.2792 33.4816 22.4524 33.3975C22.2902 32.0779 22.5065 30.877 23.5767 29.9476Z" fill="#F18883"/>
<path d="M25.1298 27.3544C25.126 27.7254 25.126 28.0964 25.1221 28.4674C24.021 28.0543 24.276 29.4618 23.5806 29.5957C23.3256 29.6033 23.0706 29.611 22.8195 29.6148C22.5065 29.5957 22.2129 29.5383 22.0506 29.2247C22.5683 28.2953 23.7119 28.1002 24.3533 27.3123C24.6121 27.3238 24.871 27.3391 25.1298 27.3544Z" fill="#E8544C"/>
<path d="M22.4524 33.3975C23.2638 32.9538 22.889 31.6075 24.1099 31.3589C24.473 32.0779 22.8967 32.7358 23.9746 33.4281C23.9669 33.6614 23.9553 33.8985 23.9476 34.1318C22.9972 34.7897 22.8349 33.8756 22.4524 33.3975Z" fill="#ED7270"/>
<path d="M24.3417 36.1015C24.0867 36.2316 23.8356 36.3616 23.5806 36.4917C22.9431 35.8529 23.171 35.4896 23.9669 35.3098C24.2644 35.4972 24.3455 35.7803 24.3417 36.1015Z" fill="#EB5E55"/>
<path d="M16.2361 36.4802C17.0281 35.4628 15.815 34.7208 15.8575 33.8067C16.1859 33.3439 16.5143 32.885 16.8582 32.403C17.6038 33.2904 19.0449 33.5046 18.9521 34.9503C18.5117 36.3234 18.0829 37.7003 17.6193 39.0657C17.3488 39.8574 16.8659 40.5268 16.2439 41.0928C15.6914 41.4829 15.3784 41.1578 15.108 40.7142C14.9728 40.324 14.8376 39.9339 14.7023 39.5438C14.7333 38.8095 14.6598 37.9757 15.8614 38.3964C17.4493 38.0407 15.6875 37.0386 16.2361 36.4802Z" fill="#DA2B29"/>
<path d="M16.6302 30.7431C15.9966 31.1026 15.3591 31.3283 14.7178 30.7546C15.5523 30.5213 14.2928 29.2821 15.4712 29.217C15.6373 29.8902 16.6611 29.9246 16.6302 30.7431Z" fill="#E9524A"/>
<path d="M15.4634 28.8575C15.1235 28.7772 14.5246 28.9684 14.5401 28.4712C14.5555 27.8822 15.0848 28.127 15.4094 28.2532C15.9348 28.4559 16.4177 28.8499 17.0166 28.4559C17.0088 28.7696 17.0745 29.0526 17.3681 29.2323C16.5723 29.9093 16.1125 28.9149 15.4634 28.8575Z" fill="#E9524A"/>
<path d="M25.5123 42.2135C25.8291 41.2879 26.4357 41.5212 27.0654 41.8272C26.6288 42.2861 26.2 42.7566 25.5123 42.2135Z" fill="#E43533"/>
<path d="M15.108 40.7142C15.4866 40.8404 15.8652 40.9666 16.2439 41.0928C16.24 41.3299 16.2361 41.5709 16.2323 41.808C15.703 41.6015 14.6521 41.9228 15.108 40.7142Z" fill="#E3504D"/>
<path d="M30.5425 40.3164C30.1562 40.5688 29.766 40.8213 29.3796 41.0737C28.2399 40.9551 28.3597 40.2514 28.6185 39.4941C28.3751 39.2952 28.3056 39.6279 28.1356 39.6585C27.3049 39.6241 26.9495 39.0581 26.6752 38.4002C26.6752 37.9604 26.6482 37.5205 26.6791 37.0845C26.71 36.6791 26.4743 36.0518 27.0306 35.9562C27.5174 35.8721 27.6063 36.5146 27.8304 36.8665C28.4369 37.6085 29.4183 37.2451 30.1446 37.6353C30.4884 37.3867 30.4266 37.1304 30.1523 36.8741C29.7389 36.1016 30.3532 35.6655 30.8052 35.329C32.2231 34.2657 33.7106 33.2904 35.1709 32.2807C35.7891 32.6096 35.3139 33.4816 35.9398 33.8067C35.9398 33.9368 35.9398 34.0668 35.9398 34.1968C35.3641 34.7858 35.0125 35.4934 34.6301 36.2201C34.3789 36.702 34.1355 37.8571 33.0074 37.073C32.6056 36.7938 32.2038 37.1916 32.0802 37.4823C31.6282 38.5379 31.4311 39.7542 30.0596 40.1022C30.2219 40.1711 30.3841 40.2437 30.5425 40.3164Z" fill="#E4302F"/>
<path d="M35.9552 34.5793C36.2875 34.3804 36.9056 33.604 36.6622 34.805C36.4343 35.9333 36.0557 37.0463 35.6075 38.1134C35.0589 39.4252 34.5026 38.7215 34.008 38.0139C35.0435 37.0807 35.5921 35.8797 35.9552 34.5793Z" fill="#D32826"/>
<path d="M6.02115 37.4976C6.6084 37.7959 7.49313 37.6276 7.72494 38.3926C8.14605 39.7656 8.83375 39.0275 9.49826 38.58C9.82279 39.517 9.13124 40.0601 8.87238 40.718C8.70625 41.1464 8.38559 41.4906 7.84084 41.284C7.41972 41.1272 6.95997 40.9131 6.99861 40.3814C7.0836 39.2875 6.32636 38.5341 6.02115 37.4976Z" fill="#E53A37"/>
<path d="M5.42618 41.4447C4.04692 40.848 2.76425 40.1634 2.71403 38.404C2.8338 38.274 2.9497 38.144 3.06947 38.0101C3.61422 38.4155 3.63353 39.104 4.00829 39.5935C3.82671 39.1001 3.37082 38.5991 3.83057 38.0292C4.74621 38.9892 5.31414 40.1137 5.42618 41.4447Z" fill="#DC2926"/>
<path d="M15.8575 38.3964C15.1003 38.4117 14.9805 39.0581 14.6985 39.5438C13.4004 38.9051 14.5864 38.4576 14.8839 38.0828C15.3089 37.5473 15.7571 37.6161 15.8575 38.3964Z" fill="#E33733"/>
<path d="M3.83057 38.0254C3.96193 38.6297 4.09328 39.234 4.22851 39.8383C3.5949 39.364 3.18923 38.7712 3.06947 38.0063C3.32446 38.0139 3.57944 38.0216 3.83057 38.0254Z" fill="#EA5952"/>
<path d="M6.19887 41.8539C6.12546 42.1408 6.05592 42.4276 5.98252 42.7145C5.77389 42.5845 5.48799 42.5041 5.37982 42.3167C5.09392 41.8348 5.54981 41.8654 5.82798 41.7889C5.94774 41.831 6.07138 41.8501 6.19887 41.8539Z" fill="#E86460"/>
<path d="M4.64576 30.7431C4.82734 30.4563 5.10937 30.3798 5.42618 30.3798C5.32573 30.659 5.27937 30.9726 5.10937 31.2021C4.96256 31.401 4.78098 31.8255 4.441 31.5425C4.34827 31.466 4.56849 31.0185 4.64576 30.7431Z" fill="#ED7873"/>
<path d="M28.3713 32.3036C28.6997 31.4851 29.1208 31.0873 30.0171 30.7355C29.7467 31.6381 29.5342 32.2003 28.3713 32.3036Z" fill="#E94F4A"/>
<path d="M27.0654 33.0571C27.6179 33.7111 27.7763 34.2772 26.7138 34.5602C26.71 34.0324 26.5323 33.4625 27.0654 33.0571Z" fill="#ED7065"/>
<path d="M29.3101 33.6308C30.0364 33.6996 30.3146 34.0515 30.415 34.6902C29.6964 34.6635 29.3951 34.3345 29.3101 33.6308Z" fill="#EA5047"/>
<path d="M26.0455 31.9403C26.1459 32.1697 26.2811 32.3265 26.2695 32.4757C26.2464 32.7587 26.0339 32.9347 25.7557 32.7932C25.6475 32.7358 25.5741 32.4604 25.6128 32.3189C25.6514 32.1889 25.8562 32.0971 26.0455 31.9403Z" fill="#EC7E75"/>
<path d="M30.1562 36.8741C30.558 36.9086 30.9521 37.0271 30.8671 37.5052C30.7782 37.9986 30.4112 37.6812 30.1485 37.6353C30.1523 37.379 30.1523 37.1266 30.1562 36.8741Z" fill="#E7433F"/>
<path d="M28.9894 39.1613C29.5342 39.7159 28.1665 40.653 29.3796 41.0737C28.4794 41.7927 28.2245 40.7868 27.7956 40.4311C27.2122 39.9492 26.7602 39.3067 25.9102 39.9377C25.7402 39.2187 26.2541 38.8286 26.6752 38.3964C27.1968 38.775 27.7183 39.1575 28.2399 39.5362C28.4369 39.3067 28.6726 39.1537 28.9894 39.1613Z" fill="#E33734"/>
<path d="M28.9894 39.1613C28.8387 39.4788 28.5528 39.5323 28.2399 39.5362C28.2979 39.1958 27.8381 38.7406 28.2129 38.557C28.5683 38.3811 28.8117 38.8439 28.9894 39.1613Z" fill="#E84B45"/>
<path d="M33.2238 35.5584C33.1388 35.6732 33.0731 35.8606 32.9417 35.9218C32.737 36.0174 32.5863 35.8529 32.6133 35.6579C32.6365 35.5087 32.7524 35.3251 32.8799 35.2563C33.1272 35.1186 33.1504 35.3519 33.2238 35.5584Z" fill="#E94946"/>
</svg>
