<svg width="35" height="48" viewBox="0 0 35 48" fill="none" xmlns="http://www.w3.org/2000/svg">
<path d="M34.2828 4.65091C35.2245 5.17191 34.7682 6.08125 34.8135 6.80289C34.8783 7.79313 34.7294 8.79955 34.6744 9.79949C34.3637 12.8252 34.367 15.8509 34.6711 18.8734C34.6809 26.6724 34.6938 34.4713 34.697 42.2702C34.697 42.5906 34.7715 43.0598 34.6 43.2054C32.7198 44.7911 31.2377 46.9852 28.5129 47.3217C28.3479 46.9107 28.7265 46.5807 28.6844 46.1891C28.8042 45.0985 28.5841 43.9918 28.8786 42.9142C29.0533 42.5194 29.241 42.1375 29.7426 42.0955C30.6066 43.0275 29.9983 44.2086 30.2733 45.2636C30.749 45.2312 30.8817 44.7296 31.2441 44.5452C33.011 43.5517 33.6291 42.1278 33.6032 40.0373C33.49 30.3388 33.5482 20.6403 33.5547 10.9451C33.5903 9.41116 33.6227 7.87403 33.5741 6.17833C32.6777 6.56019 31.9884 7.12326 31.215 7.52777C30.6778 7.77371 30.1406 8.04554 29.6876 7.38862C29.7329 6.23658 30.8073 6.10066 31.4966 5.60231C32.0111 5.23016 32.558 4.89685 33.1469 4.64443C33.5223 4.53117 33.9042 4.33053 34.2828 4.65091Z" fill="#D7B373"/>
<path d="M0.66339 42.1743C0.113258 41.7762 0.0776791 41.1808 0.074443 40.5854C0.0453184 28.4404 0.0226525 16.2987 0 4.1537C0 3.99513 0.0517771 3.83656 0.0809017 3.678C0.595437 3.61651 0.847849 3.91747 1.00965 4.34786C1.28148 7.08881 1.15529 9.83947 1.16176 12.5837C1.17794 19.9134 1.12616 27.2431 1.14234 34.5728C1.14234 35.0032 1.15204 35.4368 1.3106 35.8478C1.60509 37.181 1.41092 38.5337 1.45299 39.8734C1.40769 40.5821 1.66012 41.2455 1.75396 41.9348C1.49184 42.4785 1.09055 42.3814 0.66339 42.1743Z" fill="#D5B272"/>
<path d="M0.653331 3.98806C0.462403 3.8845 0.27183 3.78155 0.0809017 3.678C0.792837 1.9823 4.05121 -0.0570295 5.81811 0.00121979C8.99269 0.104774 12.0831 0.891139 15.2415 1.09177C15.3451 1.25034 15.3354 1.40244 15.2124 1.5513C14.9665 1.80371 14.6655 1.94933 14.329 2.03347C12.1155 2.01729 9.94086 1.61602 7.77592 1.2374C5.7728 0.887903 4.10621 1.20504 2.69205 2.76482C7.18372 3.57061 11.6624 4.12721 16.1185 4.81002C16.6751 4.89416 17.3547 4.80031 17.5683 5.5705C17.3871 5.91676 17.0796 6.10121 16.7269 6.22742C14.4552 6.39246 12.2547 5.87792 10.0444 5.48312C7.45556 5.02036 4.82463 4.93299 2.23577 4.50583C1.74066 4.22753 1.21317 4.05925 0.653331 3.98806Z" fill="#D9B879"/>
<path d="M0.66339 42.1743C1.02259 42.1484 1.41361 42.2297 1.6466 41.8381C2.95074 41.1682 4.10277 42.1293 5.34219 42.2005C6.16739 42.2458 6.95374 42.6439 7.78218 42.7086C7.06377 42.6245 6.99259 41.987 6.74341 41.508C6.09943 39.3528 6.25153 37.2493 7.14792 35.1944C7.35827 34.7802 7.65599 34.4534 8.08315 34.2528C8.34851 34.1783 8.59768 34.201 8.82744 34.366C9.13163 35.5245 8.15757 36.3724 8.07667 37.437C7.81131 38.3884 7.83721 39.3496 8.02166 40.301C8.44883 42.5112 9.01837 42.9837 11.2739 43.3882C13.1702 43.728 15.0763 44.0257 16.9629 44.4237C17.4322 44.5596 17.9176 44.6535 18.3544 44.8865C18.7136 45.1777 18.5583 45.4431 18.3124 45.702C18.2379 45.7343 18.1635 45.7699 18.0923 45.8023C12.235 44.8088 6.36211 43.9153 0.66339 42.1743Z" fill="#D8B776"/>
<path d="M34.2828 4.65091C33.9819 4.75446 33.6835 4.85736 33.3825 4.96416C31.6092 4.88973 29.8876 4.42697 28.1239 4.29105C24.5092 3.59206 20.8557 3.13901 17.2216 2.57594C16.652 2.48856 16.0339 2.52092 15.5777 2.0614C15.432 1.36241 16.0275 1.48214 16.3834 1.33976C16.5485 1.25886 16.7135 1.26209 16.8721 1.35594C21.3767 2.02904 25.8845 2.66331 30.3794 3.39466C31.7224 3.61148 33.1761 3.63802 34.2828 4.65091Z" fill="#DDB977"/>
<path d="M23.3572 46.6148C21.6 46.3397 19.7975 46.3624 18.0857 45.7993C18.1212 45.7572 18.1601 45.7151 18.1989 45.6763C18.749 45.3527 19.3736 45.2039 19.9399 44.9126C20.0985 44.8932 20.2506 44.8964 20.4091 44.9223C21.5062 45.165 22.6259 45.2815 23.7132 45.5404C24.2051 45.6569 24.8167 45.6213 25.0076 46.2879C24.5449 46.8316 23.875 46.33 23.3572 46.6148Z" fill="#DFBD77"/>
<path d="M23.3578 46.6129C23.8464 46.1858 24.4483 46.4511 24.992 46.3443C25.7298 45.7262 26.5744 45.9625 27.3996 46.0337C27.9854 46.244 28.6649 46.2214 29.1471 46.7003C28.9368 46.9042 28.7232 47.1113 28.5128 47.3151C26.7945 47.0854 25.0761 46.8492 23.3578 46.6129Z" fill="#D7B67C"/>
<path d="M34.6716 18.8759C33.937 17.1349 34.4062 15.313 34.3674 13.5364C34.3415 12.3002 33.9629 10.9928 34.6748 9.80197C34.6716 12.8245 34.6716 15.8502 34.6716 18.8759Z" fill="#CDA96E"/>
<path d="M16.8727 1.35321C16.7464 1.38881 16.617 1.42117 16.4908 1.45676C16.0798 1.55061 15.6688 1.69947 15.2902 1.36292C15.2708 1.27231 15.2546 1.1817 15.2384 1.08785C15.7983 1.1008 16.3775 0.958409 16.8727 1.35321Z" fill="#F9E4AE"/>
<path d="M31.1278 45.1094C30.8074 45.5139 30.5421 45.9799 29.7816 46.1579C29.7816 44.789 29.7816 43.4816 29.7816 42.1775C29.3577 41.7633 29.3544 41.2196 29.3512 40.6889C29.3318 37.9188 29.3285 35.152 29.3544 32.3819C29.3609 31.8059 29.3124 31.1878 29.9046 30.806C30.6036 31.0616 30.144 31.657 30.2767 32.0745C30.2411 33.4757 30.3479 34.8802 30.254 36.2814C30.2864 34.9708 30.2864 33.6602 30.2864 32.3528C30.1376 28.0941 30.3867 23.829 30.2443 19.5768C30.1861 17.8714 30.5129 16.0883 29.8722 14.4056C29.4159 13.2017 29.6457 11.9559 29.6457 10.7261C29.6457 9.99156 29.7848 9.25697 29.4709 8.5515C29.3318 8.10493 28.9337 7.72631 29.1052 7.19559C29.3285 7.04673 29.5486 7.03055 29.7654 7.21177C30.199 7.85251 30.6456 7.38976 31.0922 7.23119C31.9142 7.2862 32.5387 6.01766 33.2312 6.5775C34.0241 7.22148 32.8397 7.94636 32.83 8.71978C32.817 9.51909 32.9076 10.3152 32.8332 11.1177C32.7523 12.0238 32.6164 12.8587 32.1795 13.7098C31.7523 14.5447 31.1278 15.6191 32.639 16.3278C33.1083 16.5478 32.7555 17.4378 32.9821 17.9846C33.0241 18.2985 33.0047 18.5995 32.817 18.8713C32.3446 19.2241 32.0533 18.9231 31.6941 18.4701C32.0209 20.0622 31.3349 21.6026 32.1277 22.9067C32.3187 22.0686 31.898 20.8874 32.8947 20.1043C33.516 20.4732 33.4707 21.1042 33.4319 21.6738C33.3639 22.6899 33.3218 23.7222 33.4901 24.7092C33.7717 26.3434 32.7264 27.5861 32.3737 29.0261C32.406 29.2559 32.6682 28.9841 32.461 29.0455C32.3801 29.0682 32.3251 29.0035 32.3866 28.9096C32.6843 28.4469 32.3154 27.3401 33.5095 27.7317C33.8428 29.1653 33.6228 30.615 33.6422 32.0518C33.3769 32.7411 32.4546 33.2751 33.1244 34.1262C33.1471 33.6634 32.6746 32.9385 33.6649 32.7767C33.9788 34.0388 33.8267 35.3073 33.7587 36.5759C33.5743 37.2134 33.0079 36.1714 33.1277 36.6082C33.4254 37.715 32.8915 38.4431 32.3543 39.2456C32.0792 39.6598 32.1633 40.1776 32.0921 40.6404C32.076 40.7342 32.0371 40.9057 32.076 40.9219C32.2313 40.9866 32.3413 40.8087 32.4999 40.7925C33.3477 41.3167 33.1536 42.1581 33.1665 42.9347C32.6487 43.8053 31.4967 44.0868 31.1278 45.1094Z" fill="#EDD3A0"/>
<path d="M29.7971 8.19552C30.454 9.99154 29.8585 11.8264 29.9556 13.6418C29.9686 13.9007 29.8715 14.1499 30.1012 14.357C30.5705 16.1724 30.2048 18.0332 30.3828 19.8777C30.7096 23.2659 29.9492 26.6864 30.3925 30.094C30.4281 30.3723 30.2986 30.615 30.1045 30.8189C29.6029 31.369 29.8165 32.0486 29.81 32.6699C29.7809 35.838 29.7873 39.0061 29.7809 42.1743C29.577 42.3878 29.3699 42.6014 29.166 42.815C29.0107 42.692 28.9007 42.5367 28.8327 42.3522C28.5932 41.1258 28.7583 39.8831 28.7 38.6502C28.7 38.0839 28.6936 37.5143 28.7 36.948C28.7389 35.7151 28.6483 34.4789 28.6936 33.2459C28.7 32.9579 28.658 32.6732 28.6871 32.3851C28.7227 31.6085 28.7 30.8318 28.6968 30.0552C28.7583 28.0391 28.5738 26.0198 28.8133 24.007C29.1919 22.6899 28.9977 21.3404 29.0107 20.0104C29.0431 16.687 28.9913 13.3635 29.043 10.0433C29.0528 9.37668 28.7227 8.46735 29.7971 8.19552Z" fill="#D7B67C"/>
<path d="M33.3538 32.4626C33.3538 30.8445 33.3538 29.2232 33.3538 27.6052C33.3279 27.5567 33.2826 27.5114 33.2826 27.4628C33.2665 22.01 32.7778 16.567 32.9331 11.111C32.9396 10.8974 32.9979 10.687 33.0723 10.4864C33.3571 9.95245 33.6613 9.96539 33.9784 10.4573C33.9881 20.968 34.0075 31.4788 33.9978 41.9895C33.9946 43.8535 32.1888 44.1609 31.1307 45.1091C30.943 43.6594 32.3506 43.5396 33.0432 42.8212C33.137 40.7695 32.5804 38.6855 33.37 36.6727C33.8684 35.375 33.8781 34.0774 33.3635 32.7797C33.2794 32.7117 33.2503 32.6405 33.2762 32.5693C33.3021 32.4981 33.3279 32.4626 33.3538 32.4626Z" fill="#F1DAAD"/>
<path d="M33.9784 10.4545C33.7745 10.3477 33.5674 10.2409 33.3636 10.1373C33.1824 9.99496 33.26 9.76843 33.1824 9.59369C33.1435 9.70695 33.1953 9.82021 33.1953 9.93347C33.1888 12.1761 33.2115 14.4219 33.1726 16.6645C33.1662 17.0884 33.5448 17.7518 32.7099 17.9039C32.1112 17.5091 32.5707 16.9137 32.4478 16.3991C31.9268 16.4736 31.2925 17.3214 31.3119 15.7778C31.3378 13.765 32.9752 12.1761 32.4995 10.1535C32.2083 8.91735 32.5416 7.85268 33.3215 6.72006C32.5351 6.68446 32.1015 7.03719 31.6808 7.43846C31.354 7.75236 31.1339 7.73295 31.0951 7.22812C32.0465 6.59708 32.9947 5.96282 33.9784 5.30913C33.9784 7.10838 33.9784 8.78143 33.9784 10.4545Z" fill="#EFD6A5"/>
<path d="M29.7684 7.20686C29.5613 7.21657 29.3509 7.22304 29.1438 7.23275C27.72 7.71169 26.3738 7.0936 24.9952 6.9415C24.4871 6.79264 23.9597 6.67938 23.5972 6.24251C23.7137 5.49498 24.335 5.55646 24.8399 5.51763C25.9142 5.43673 26.9918 5.4432 28.0306 5.7927C29.105 6.15514 30.024 5.94479 30.8233 5.10341C31.011 5.084 30.7101 4.78951 30.8169 4.97721C30.859 5.0484 30.8201 5.07752 30.7036 5.09371C29.7069 5.23286 28.8138 4.83158 27.9044 4.54357C27.6714 4.46914 27.3931 4.27822 27.6391 3.96108C27.7976 3.75397 28.0209 3.85753 28.2118 3.96755C29.982 4.0614 31.7683 4.05816 33.3831 4.96103C32.134 5.63736 30.8719 6.29429 29.7684 7.20686Z" fill="#FAE9BB"/>
<path d="M29.1077 42.5079C29.1239 42.6114 29.1433 42.715 29.166 42.8185C29.1595 44.1162 29.153 45.4106 29.1465 46.7083C28.5867 46.6436 27.9783 46.8377 27.4864 46.3976C27.1952 45.9672 26.7001 46.2941 26.3247 46.0643C25.739 45.7083 25.781 45.4009 26.2567 45.0191C26.3765 44.9284 26.5027 44.854 26.6321 44.7861C27.3829 44.6663 27.6159 43.4204 28.6223 43.8638C28.4767 43.6955 28.8618 44.0062 28.645 44.0191C28.5155 44.0256 28.5188 44.0806 28.6482 44.1809C28.8197 44.3136 28.4896 44.5175 28.5964 44.333C28.7485 44.0709 28.5996 43.8411 28.5737 43.5952C28.5317 43.126 28.3764 42.5952 29.1077 42.5079Z" fill="#FCE8AD"/>
<path d="M0.653331 3.98806C1.09667 3.51559 1.54295 3.6231 1.99277 3.97907C2.0316 4.30268 1.07372 4.05673 1.60767 4.66188C1.83744 5.50649 1.70151 6.36405 1.71769 7.21514C1.74358 8.59694 1.30347 10.0629 2.64968 11.1955C3.11567 11.5871 3.00565 12.3475 2.55584 12.8103C1.37467 14.0303 1.63356 15.3247 2.26783 16.645C2.61732 17.3732 2.67556 18.0722 2.32283 18.8003C1.57854 19.9847 1.81801 21.1917 2.24517 22.4053C2.30018 22.5735 2.33578 22.7418 2.36166 22.9133C2.65291 26.4309 2.3099 29.9647 2.68205 33.4856C2.79531 34.5696 2.81472 35.8544 1.78565 36.7313C1.19993 36.5372 1.16432 36.0615 1.16755 35.5566C1.17726 31.23 1.14814 26.9034 1.17079 22.5768C1.15461 26.8225 1.15785 31.065 1.15462 35.3107C1.15462 35.5793 1.16757 35.8511 0.963699 36.0679C0.51065 35.3204 0.720991 34.4887 0.717755 33.6991C0.685394 23.8 0.672747 13.8937 0.653331 3.98806Z" fill="#FAE9BA"/>
<path d="M7.13863 41.5195C7.39104 41.9791 7.6467 42.4386 8.05768 43.1861C5.77301 42.7039 3.7084 42.2703 1.64702 41.8367C0.847714 41.526 0.944783 40.8626 1.00627 40.2122C1.37518 39.7429 0.980391 39.1443 1.30076 38.6362C1.93503 38.4485 2.17449 39.1022 2.62754 39.3158C3.08059 39.6717 3.48835 40.0989 4.09673 40.1992C4.25206 40.2413 4.42034 40.2801 4.54007 40.3805C5.92834 41.5098 5.92834 41.5098 7.13863 41.5195Z" fill="#FBE9B6"/>
<path d="M2.6115 39.5747C2.07108 39.6071 1.77984 39.1961 1.48536 38.7948C1.18116 39.3029 1.52094 39.8918 1.00964 40.2122C0.996698 38.8304 0.980516 37.4486 0.967572 36.07C0.967572 31.4263 0.967572 26.7793 0.967572 22.1355C1.08731 22.1355 1.20706 22.1355 1.32679 22.1355C1.32679 26.3683 1.32354 30.6011 1.33001 34.8339C1.33001 35.5102 1.14233 36.2707 1.96429 36.6719C2.45293 37.18 2.46589 37.9211 2.84451 38.4841C2.93512 38.8013 2.93511 39.1087 2.77978 39.4064C2.72477 39.4614 2.66975 39.5165 2.6115 39.5747Z" fill="#FDF0CE"/>
<path d="M28.2118 3.96755C28.1601 3.97726 28.1054 3.98111 28.0536 3.99729C27.908 4.04907 27.7656 4.24324 27.9468 4.26265C29.0665 4.37915 30.128 4.68658 31.28 5.10079C30.4257 6.34021 29.4645 6.81591 27.9921 6.26902C26.5844 5.74801 25.1023 5.66387 23.6526 6.23989C23.2869 6.64764 22.7885 6.70265 22.3226 6.58939C20.7369 6.19782 19.0185 6.43729 17.5267 5.59268C15.0123 4.81602 12.3813 4.70276 9.8022 4.33385C7.02241 3.93904 4.29117 3.27241 1.46932 2.84525C2.62136 2.10419 3.7734 1.3599 4.92544 0.615601C5.29111 0.379368 5.63736 0.580004 6.00627 0.628545C8.87343 1.00069 11.7406 1.34048 14.611 1.68674C14.9281 1.53141 15.2356 1.46345 15.5236 1.74822C18.8276 2.28218 22.1316 2.82584 25.4389 3.34037C26.3773 3.48923 27.3349 3.53716 28.2118 3.96755Z" fill="#F9E4AE"/>
<path d="M1.32628 4.31247C1.28098 3.66849 1.79537 4.14087 1.99277 3.97907C4.15123 4.25414 6.30983 4.50663 8.46505 4.81406C11.261 5.21209 14.0279 5.81077 16.8594 5.92079C19.1279 5.71692 21.2767 6.58742 23.516 6.65538C25.0402 6.96928 26.5806 7.16021 28.1112 7.42556C28.7487 7.53559 29.3442 7.69739 29.3247 8.60997C29.218 13.7521 29.4671 18.8942 29.1888 24.0331C29.1662 26.0912 29.1403 28.1461 29.1177 30.2043C28.9008 30.5279 28.8782 31.3919 28.2277 30.5246C27.7456 27.5507 28.1177 24.5573 28.0077 21.5737C28.0983 20.5964 28.0433 19.6158 28.0497 18.6385C28.0303 18.1564 27.9947 17.6742 28.0336 17.1888C28.0789 15.6808 28.0465 14.176 28.0497 12.6712C28.0594 11.8816 28.0821 11.0888 28.0692 10.296C28.0594 9.74906 28.0368 9.22158 27.3961 9.01124C27.1501 8.93681 26.9074 8.86562 26.6647 8.79119C22.3704 8.30254 18.1668 7.26376 13.8855 6.70716C10.287 6.00169 6.61401 5.88843 2.99285 5.36419C2.64335 5.31888 2.31327 5.21209 2.00261 5.04058C1.68548 4.88201 1.52692 4.57782 1.32628 4.31247Z" fill="#FBEDC6"/>
<path d="M23.2891 6.91725C21.0951 6.91725 18.9949 6.30887 16.859 5.91731C17.0079 5.65519 17.2571 5.60988 17.5257 5.5937C19.6 5.51603 21.5902 6.22473 23.6548 6.24091C24.0852 6.35094 24.5156 6.46097 24.9492 6.57099C24.5479 7.4415 23.8813 6.99815 23.2891 6.91725Z" fill="#D8B87A"/>
<path d="M15.5198 1.75098C15.2156 1.73157 14.9114 1.71215 14.6072 1.6895C14.8337 1.57947 15.0637 1.47294 15.2902 1.36292C15.6915 1.39528 16.0895 1.4244 16.4908 1.45676C16.2416 1.79979 15.8531 1.68626 15.5198 1.75098Z" fill="#D9B168"/>
<path d="M28.4931 21.4495C28.4996 24.5788 28.5029 27.7048 28.5093 30.8341C29.0109 31.2613 28.6841 32.0056 29.1339 32.4521C29.1339 32.6689 29.1371 32.889 29.1371 33.1058C28.6614 33.4877 28.2213 33.8825 28.6291 34.5653C29.0789 35.316 28.4834 36.2804 29.1307 36.9923C29.1307 37.5295 29.1307 38.0635 29.1307 38.6007C28.4058 39.4582 29.1015 40.5196 28.7294 41.4258C28.4996 42.3351 27.3961 42.8205 27.5353 43.924C27.5773 44.2573 27.2375 44.322 26.9819 44.3965C26.4997 44.5421 26.38 44.7363 26.5645 45.076L26.5612 45.0793C25.7684 45.2508 24.7555 46.4934 24.4254 44.5421C24.3316 43.9984 23.4772 44.2508 23.0663 43.9175C22.652 42.9629 23.5678 42.6587 23.9724 42.1215C24.8429 40.9662 26.1146 40.0375 26.0111 38.3547C26.0208 38.0538 26.1179 37.7722 26.2247 37.4972C26.558 36.8597 26.4415 36.2869 25.9722 35.7626C25.8557 35.5846 25.7231 35.3905 25.7295 35.1866C25.7716 33.8954 25.2474 33.3 23.9076 33.6268C23.7005 33.6786 23.4934 33.5977 23.3316 33.4359C23.254 32.3874 22.9336 31.3648 23.2442 30.2775C23.4675 29.4976 22.5938 28.9636 22.5905 27.9799C22.3446 28.6659 22.254 29.1352 22.6423 29.53C23.8494 30.7597 22.6294 30.6205 21.9304 30.9441C21.0599 31.3486 20.4062 30.1222 19.5842 30.7597C20.9822 31.4489 22.3867 32.1318 23.3381 33.4488C23.1342 34.7336 22.0793 34.9536 21.0825 35.2481C20.924 35.2287 20.7816 35.1672 20.6521 35.0733C20.3738 34.7206 20.3706 34.2902 20.3253 33.876C20.2444 33.1641 19.8367 32.8696 19.1474 32.8987C18.5681 32.9214 17.9274 33.0314 17.6038 32.4003C17.1766 31.5622 17.2963 32.8987 17.0148 32.5266C16.2317 32.0897 16.5585 31.2257 16.264 30.6011C16.1572 29.7371 15.7268 28.9378 15.7527 28.0446C15.8272 27.7792 16.0181 27.5851 16.1767 27.3683C17.4873 25.5561 17.442 25.1224 15.7916 23.6144C15.4 23.5109 15.0052 23.5109 14.6039 23.5691C14.4615 23.5724 14.3256 23.5497 14.1897 23.5012C13.9988 23.3976 13.8402 23.252 13.7011 23.0869C12.8532 21.9381 12.2545 23.0999 11.5556 23.3232C9.26118 23.7536 9.15439 23.9154 9.34855 26.6693C8.76606 28.4038 7.01858 28.1352 5.78564 28.7501C3.96697 29.6723 4.73716 31.3486 4.72098 32.724C4.70803 33.698 5.50086 34.1155 6.49434 34.1672C6.97975 34.1931 7.61078 34.2902 7.50075 35.083C6.90531 37.2027 6.41344 39.3255 7.14479 41.5196C6.57524 41.484 6.34224 42.348 5.78564 42.1086C5.48792 41.9791 4.35531 42.5001 4.94751 41.2672C5.0996 40.95 4.42326 40.5747 3.90872 40.5423C3.73074 40.3481 3.72427 40.1378 3.8343 39.9113C3.97021 39.5877 4.75656 39.811 4.50739 39.5812C4.07375 39.1832 4.08995 38.1444 3.14501 38.4097C2.98321 38.455 2.86994 38.701 2.63047 38.6039C1.88941 38.1379 1.95414 37.3968 1.97032 36.6752C2.35541 31.9279 1.80528 27.1806 1.97356 22.4333C3.04146 21.5336 3.34564 22.5692 3.82458 23.1614C3.94108 23.8474 4.0414 24.5367 4.07376 25.226C3.68544 23.5368 4.19673 21.7472 3.40713 20.1065C2.8926 19.3913 2.52691 18.6276 2.62399 17.7054C2.6693 17.2879 2.55604 16.7119 3.08029 16.631C3.611 16.5468 3.92489 17.0193 4.10288 17.4982C4.19996 17.7604 4.16114 18.029 4.03817 18.3137C5.08666 17.152 5.08664 17.152 6.73056 19.7861C6.94091 19.0742 7.48458 18.592 6.33901 18.1163C5.66915 17.838 5.73386 16.6957 5.35847 15.9838C6.13513 14.5049 6.38431 14.5178 7.96998 16.0873C8.1415 16.2912 8.27418 16.5145 8.38421 16.7572C8.62044 17.2814 8.79195 17.9578 9.53625 17.8575C10.287 17.7539 9.93429 17.0031 10.1252 16.5598C10.3938 15.9417 10.5297 15.2362 11.2287 14.9094C11.6106 15.1003 11.6785 15.6537 12.1672 15.7249C12.2416 15.8478 12.2966 15.9773 12.3322 16.1164C12.3031 17.4206 12.4552 18.592 14.1703 18.6115C14.523 18.7603 14.9631 18.961 14.9016 19.359C14.8337 19.812 14.3418 19.7667 13.9697 19.7344C13.5425 19.6955 13.1218 19.5952 12.6979 19.5467C13.5651 20.8023 13.5684 20.812 14.8078 20.2457C15.5974 19.8832 16.4355 19.5305 17.2737 19.6373C18.2607 19.7635 18.8464 19.304 19.4257 18.6794C20.6522 18.3493 21.6359 18.5144 22.0825 19.9124C22.3673 20.8023 23.1439 20.8799 23.9044 20.8411C24.7102 20.799 25.2021 20.3363 25.1632 19.4981C25.1276 18.7247 25.6616 18.1066 25.6616 17.3623C25.4674 17.0873 25.2021 16.8672 25.05 16.5663C24.9529 16.3786 24.872 16.1844 24.7976 15.9902C24.4901 15.4304 23.9109 15.4725 23.406 15.3495C22.9271 15.233 22.4417 15.1165 22.5453 14.4434C22.8689 13.8285 23.4869 14.2589 23.9076 14.0551C23.597 14.013 23.296 13.9968 23.0339 13.8285C22.9271 13.7282 22.8591 13.6053 22.8365 13.4596C22.953 12.6733 23.5355 12.8804 24.0727 12.8933C23.83 12.5729 23.1472 12.6603 23.2863 12.039C23.5549 11.7704 23.8753 11.861 24.1892 11.9063C22.7394 11.6701 22.5582 11.7283 21.7233 12.8901C21.4903 13.2169 21.2767 13.5891 20.8657 13.2363C20.0049 12.4985 19.7558 13.3949 19.3092 13.7638C18.9726 13.8124 18.8853 13.3172 18.5293 13.4111C18.3222 13.5955 18.1377 13.8027 17.8918 13.9289C16.0343 15.2654 15.7625 15.1133 15.3612 12.5018C15.3256 12.3594 15.2997 12.217 15.2738 12.0778C14.1444 11.2073 12.9115 10.5828 11.452 10.7122C10.6656 10.7834 9.87927 10.8805 9.08643 10.9323C7.89232 10.2365 8.27741 9.23332 8.59454 8.26897C8.71428 7.9033 9.00229 7.60882 9.40356 7.55057C10.0217 7.45672 9.92133 8.09099 10.1511 8.50197C10.3194 7.23667 11.2287 6.55062 12.8629 6.42765C13.2318 6.40176 13.604 6.50208 13.9373 6.26908C18.2542 7.01985 22.5711 7.76738 26.8881 8.51815C26.4835 9.78346 27.3087 10.7252 27.7553 11.7639C28.5126 13.5276 28.1792 15.4336 28.4996 17.2523C28.4964 17.6859 28.4932 18.1196 28.4899 18.5564C27.8524 19.5176 28.286 20.4851 28.4931 21.4495Z" fill="#FCE8AD"/>
<path d="M7.78214 37.2878C7.65917 36.1876 8.53615 35.3947 8.6753 34.3754C8.68824 34.0971 8.85006 33.9676 9.11218 33.9385C9.92443 34.1197 9.55552 34.9028 9.82088 35.3656C10.6137 35.1164 10.5101 34.1683 11.1218 33.7573C11.8466 33.9838 11.6816 34.6957 11.8855 35.2006C11.9826 35.4433 11.9826 35.7831 12.277 35.8607C12.6557 35.9643 12.8272 35.6342 13.0181 35.3785C14.1022 33.9223 14.1022 33.9223 14.9533 35.3268C15.0083 35.4206 14.9274 35.6601 15.0342 35.6115C16.7946 34.8316 17.4677 37.1034 18.9919 37.016C19.2896 36.9998 19.5906 37.3008 19.5453 37.6859C19.5097 37.9868 19.2637 38.1842 18.9822 38.1518C18.2508 38.0612 18.7977 38.5661 18.7265 38.6437C18.157 39.2715 19.788 40.8701 17.7719 40.8216C17.2897 40.7148 16.882 40.4851 16.5907 40.0773C16.2251 39.5434 16.1409 38.9253 16.0859 38.2425C15.84 39.3492 17.0147 40.2909 16.3415 41.3426C16.0179 41.8507 15.4031 41.7374 14.8886 41.8021C13.1734 41.3944 13.0278 39.9187 12.6395 38.757C12.4647 39.4333 13.1961 40.032 13.3094 40.799C13.3094 41.3556 13.2608 41.9445 12.5651 41.9931C11.7787 42.0481 11.0732 41.718 10.6687 41.0352C10.2124 40.2618 9.8241 39.4301 9.70761 38.5272C9.57816 37.537 9.05716 37.5888 8.37435 37.9253C8.23843 38.003 8.09606 38.0354 7.94072 38.0354C7.60094 37.8509 7.58474 37.592 7.78214 37.2878Z" fill="#FCF8EC"/>
<path d="M7.78214 37.2878C7.80803 37.5532 7.85029 37.8113 8.11565 37.9569C8.6043 38.5944 8.37131 39.3841 8.56871 40.0863C8.88908 41.2092 9.14796 42.3645 10.5233 42.6881C11.1155 43.1508 11.8404 42.9664 12.1704 43.0991C11.8857 43.0732 11.2676 43.0473 10.6851 42.8013C8.95379 42.2836 8.87936 40.7011 8.49427 39.3452C8.3357 38.7918 8.4425 38.1705 8.11889 37.643C9.69486 36.7434 9.68515 36.8599 10.1188 38.4294C10.4391 39.5912 10.368 41.1412 12.0637 41.6072C12.9245 41.8435 12.9795 41.4778 12.9762 40.8565C14.2092 41.316 14.8888 42.6751 16.2738 42.8887C16.8369 43.1152 17.5261 43.0958 17.8853 43.7139C17.963 44.2899 17.5941 44.5715 17.1572 44.8077C14.7884 44.4064 12.4196 44.0052 10.0541 43.6039C8.69167 43.3741 8.1027 42.413 7.80498 41.1898C7.49108 39.8921 7.16405 38.592 7.78214 37.2878Z" fill="#FAF3E1"/>
<path d="M7.49426 35.0837C6.87941 34.0643 5.56879 34.8378 4.8342 34.0223C3.64333 32.7019 4.34556 31.1875 4.37144 29.7668C4.38115 29.2814 4.41999 28.2265 5.55262 28.6116C6.30662 29.1811 7.59134 29.1649 7.6593 30.5014C7.59458 30.8153 7.4457 31.0969 7.27743 31.3654C6.44899 32.6955 7.03796 33.6404 8.1091 34.4591C7.90523 34.6695 7.70137 34.8766 7.49426 35.0837Z" fill="#FAE8B3"/>
<path d="M17.1643 44.8039C17.1125 44.2861 17.6108 44.1211 17.8244 43.7716C18.9732 42.9172 16.941 43.4512 17.4329 42.8784C17.3552 42.0467 17.9765 41.8526 18.5655 41.6293C18.7046 41.6034 18.847 41.6002 18.9862 41.6099C19.2742 41.6163 19.5849 41.8105 19.8502 41.5225C19.9085 41.4125 19.9732 41.3089 20.0444 41.2054C20.1932 41.0565 20.3777 40.9982 20.5848 40.995C20.7272 41.0112 20.8631 41.0533 20.9925 41.1115C21.6203 41.6746 22.6882 41.7911 22.8015 42.8816C22.1187 44.6744 20.3647 44.6744 18.9247 45.2019C18.7629 45.2343 18.614 45.1987 18.4749 45.1113C18.038 45.0207 17.5494 45.1339 17.1643 44.8039Z" fill="#FAF4E4"/>
<path d="M8.1122 34.4586C6.05406 33.8405 5.84047 32.4911 7.47793 30.475C7.62031 30.4038 7.74976 30.4167 7.86626 30.5332C7.95687 30.8374 7.85332 31.1157 7.74652 31.394C7.57178 31.9603 7.00871 32.4911 7.59444 33.1221C8.63322 33.4813 8.5232 32.6399 8.71089 32.0833C8.85004 31.6756 8.74647 30.8827 9.6105 31.4037C9.95029 32.4037 9.99236 33.3324 9.02154 34.0379C8.90504 34.1512 8.78854 34.2644 8.67527 34.3777C8.48758 34.4036 8.29989 34.4327 8.1122 34.4586Z" fill="#B96241"/>
<path d="M18.4783 45.1158C18.5721 45.0738 18.6692 45.0544 18.7727 45.0544C19.1093 44.8731 19.4426 44.8505 19.7695 45.0803C19.5041 45.9508 18.7663 45.5818 18.2032 45.6757C18.2938 45.4912 18.3844 45.3035 18.4783 45.1158Z" fill="#CBA459"/>
<path d="M22.9949 43.7826C23.3185 43.7826 23.6389 43.7923 23.9625 43.7826C25.1016 43.7535 25.4576 44.2065 24.8201 45.2518C25.4673 45.5333 25.9754 44.912 26.5611 45.077C26.3637 45.5462 26.3637 45.5462 27.8134 46.0964C27.8393 46.1061 27.862 46.1967 27.8555 46.1999C27.7358 46.2679 27.6128 46.3294 27.4866 46.3909C26.6549 46.3747 25.82 46.3617 24.9884 46.3456C23.4739 45.5624 21.652 45.9896 20.1634 45.1094C21.0145 44.4622 21.8655 43.8247 22.9949 43.7826Z" fill="#FAE9B5"/>
<path d="M22.9955 43.7814C22.0667 44.2571 21.2253 44.914 20.1671 45.1114C20.0345 45.1017 19.9018 45.092 19.7659 45.0791C19.4326 45.0694 19.1025 45.0629 18.7692 45.0532C20.1154 44.3769 21.769 44.2377 22.6751 42.8009C23.1023 42.186 23.8271 41.7524 23.633 40.7913C23.5359 40.2994 24.1378 40.2153 24.4743 40.0049C24.8886 39.7881 25.2963 39.5616 25.429 39.06C25.4549 38.7267 25.3287 38.3901 25.4484 38.06C25.5228 37.9338 25.6361 37.8659 25.785 37.8626C26.0018 37.9274 26.1377 38.0762 26.2251 38.2801C26.6134 38.8141 26.5746 39.2606 26.1992 39.8561C25.2898 41.3058 24.0957 42.4999 22.9955 43.7814Z" fill="#D9BA80"/>
<path d="M30.1085 30.8179C29.8496 25.3296 30.115 19.8412 30.1052 14.356C30.4547 14.1522 30.4386 14.4402 30.4515 14.6311C30.5583 16.4724 30.7266 18.3105 30.746 20.1518C30.7783 23.3588 30.6683 26.5657 30.7266 29.7694C30.7427 30.5946 30.2606 31.3195 30.445 32.135C30.3415 32.2774 30.2379 32.2839 30.1344 32.1382C30.1247 31.6981 30.115 31.258 30.1085 30.8179Z" fill="#F3DCAD"/>
<path d="M23.2891 6.91725C23.8425 6.80075 24.4866 7.13043 24.9461 6.57383C26.3441 6.79388 27.7453 7.01394 29.1432 7.23399C29.3601 7.55436 29.5802 7.87515 29.7971 8.19552C29.2663 8.66799 29.4863 9.29537 29.483 9.85521C29.4636 14.02 29.4798 18.1881 29.4604 22.3529C29.4572 22.916 29.661 23.5373 29.1853 24.0324C29.1756 19.1492 29.1368 14.2627 29.1789 9.3795C29.1886 8.32778 28.9394 7.92651 27.8262 7.74529C26.3149 7.49935 24.7292 7.57417 23.2891 6.91725Z" fill="#DDBC80"/>
<path d="M32.7096 17.8988C33.2889 17.313 33.0106 16.5752 33.0203 15.9118C33.0559 13.3262 33.0332 10.7406 33.0332 7.87989C34.1044 8.76981 33.1044 9.49145 33.3601 10.1354C33.3568 15.9571 33.3536 21.782 33.3504 27.6037C32.5478 27.8594 32.8423 28.8723 32.0333 29.2347C33.3568 27.0407 33.0106 24.6557 32.9944 22.316C32.9912 21.5911 33.3018 20.8112 32.7096 20.1575C32.3148 19.7271 32.386 19.2967 32.7064 18.8663C32.7096 18.546 32.7096 18.2224 32.7096 17.8988Z" fill="#EACF99"/>
<path d="M32.7095 18.8716C32.7095 19.302 32.7128 19.7324 32.7128 20.1628C32.7192 21.5737 32.5736 22.949 31.8196 24.4473C31.2112 22.2792 31.5186 20.3408 31.3115 18.4412C31.263 17.9914 31.0656 17.4866 31.6449 17.4186C32.1885 17.3571 32.0267 17.9428 32.0688 18.2794C32.1206 18.6742 32.3535 18.8295 32.7095 18.8716Z" fill="#EFD6A5"/>
<path d="M33.3668 36.6722C33.4057 38.4747 33.4283 40.2739 33.493 42.0764C33.506 42.468 33.3409 42.6626 33.0432 42.8212C32.6192 42.242 32.9785 41.4033 32.3992 40.8758C32.1824 40.8823 31.9721 41.0829 31.752 40.8888C31.6776 39.8468 31.6841 38.85 32.6711 38.1446C33.3604 37.6495 32.4154 36.9019 32.8879 36.3583C32.9947 36.2353 32.9656 35.834 33.2697 36.0703C33.383 36.1609 33.3377 36.4651 33.3668 36.6722Z" fill="#EACD96"/>
<path d="M33.3538 32.4626C33.3571 32.5693 33.357 32.6757 33.3602 32.7792C33.3602 33.5268 33.3602 34.2743 33.3602 35.0218C33.1045 34.1643 31.4607 33.2619 33.3538 32.4626Z" fill="#EACD96"/>
<path d="M31.4701 11.8458C31.0138 11.1307 30.9912 10.4123 31.3212 9.53205C32.0429 10.3702 31.619 11.121 31.4701 11.8458Z" fill="#EFD6A5"/>
<path d="M30.1344 32.1382C30.2379 32.135 30.3415 32.135 30.445 32.135C30.445 33.6204 30.4447 35.1063 30.4447 36.5916C30.3412 36.5949 30.2376 36.5949 30.134 36.5981C30.134 35.1128 30.1344 33.6268 30.1344 32.1382Z" fill="#F5E0B5"/>
<path d="M31.7487 40.8852C31.9623 40.8302 32.1726 40.5227 32.3959 40.8722C32.3474 41.1667 32.3312 41.5939 31.9914 41.5874C31.5383 41.5777 31.8134 41.1343 31.7487 40.8852Z" fill="#D5B273"/>
<path d="M28.4902 41.5275C28.4934 40.5794 28.4611 39.628 28.5128 38.6798C28.5614 37.7802 28.9141 38.5762 29.1309 38.5989C29.1245 39.8998 29.118 41.2039 29.1115 42.5048C28.5258 43.288 29.0371 44.2361 28.7361 45.1066C28.3187 44.6924 28.5905 44.2038 28.4999 43.7798C27.6423 43.0323 27.9692 42.2815 28.4902 41.5275Z" fill="#FBEBBA"/>
<path d="M29.1273 36.9919C28.8878 37.0437 28.5351 37.2411 28.5254 36.8042C28.5027 35.8398 28.3701 34.9531 27.9656 34.0244C27.5416 33.0503 28.5092 33.1345 29.137 33.1086C29.1338 34.3998 29.1305 35.6942 29.1273 36.9919Z" fill="#FBEBBA"/>
<path d="M29.1339 32.4521C28.3896 32.1188 28.5093 31.4522 28.5093 30.8341C28.7132 30.6237 28.9142 30.413 29.118 30.2026C29.1213 30.9534 29.1274 31.7014 29.1339 32.4521Z" fill="#FBEBBA"/>
<path d="M28.49 41.5261C28.189 42.2769 28.1955 43.0277 28.4964 43.7785C27.7165 44.0082 27.6292 45.2735 26.5613 45.0729C26.105 44.6975 25.3542 44.5422 25.5548 43.5422C26.0273 43.8852 26.4836 44.2995 27.0758 44.047C26.613 43.4063 26.7878 43.0892 28.49 41.5261Z" fill="#F7DF9F"/>
<path d="M5.53005 15.9588C5.87308 16.3989 6.51058 16.6707 6.29376 17.428C6.24846 17.5833 6.43291 17.9716 6.49116 17.9652C8.20627 17.8389 7.21604 18.936 7.24517 19.58C7.26135 19.9197 7.59467 20.3728 6.95069 20.4246C6.56884 20.4537 6.22257 20.2401 5.99281 19.923C5.90544 19.8032 5.87631 19.622 5.86984 19.4667C5.83424 18.7386 5.60125 17.9134 4.88608 17.8778C4.16444 17.8389 4.66277 18.8842 4.24208 19.3696C3.34569 18.7386 4.46539 17.182 3.02534 16.9361C2.75027 17.9975 3.05768 18.9424 3.59487 19.8453C4.02203 20.9229 4.14178 22.0005 3.59165 23.0781C3.01887 22.9455 2.80203 21.9229 1.97684 22.4309C1.66617 21.2433 1.54644 20.0557 1.97684 18.868C2.29721 18.0234 2.16777 17.3082 1.73737 16.4539C1.12899 15.2436 0.750366 13.8812 2.18071 12.7842C2.69524 12.3894 2.85383 11.5027 2.29722 11.2438C0.598286 10.4542 1.46555 8.97211 1.26492 7.83625C1.06428 6.70039 1.29079 5.4901 1.32962 4.31217C1.5432 4.41896 1.76004 4.52575 1.97362 4.63254C2.49786 5.29594 2.22602 6.03376 2.16777 6.73922C2.61111 6.34119 2.637 5.85254 2.50432 5.3283C2.47519 5.18267 2.51404 5.0597 2.62083 4.95615C6.41027 5.24739 10.1932 5.57747 13.9374 6.26028C12.8112 6.58389 11.9634 7.72299 10.6592 7.40262C9.85991 7.71975 11.8242 8.38638 10.4003 8.75206C9.1771 9.06596 10.0541 7.90744 9.42304 7.75211C8.60755 8.65498 8.24512 9.61285 9.11238 10.7617C9.47482 10.5513 9.73047 10.6031 9.83402 11.0464C9.51689 11.5448 9.58161 12.3344 8.76288 12.4477C8.58166 12.2211 8.59137 11.9655 8.68198 11.5221C8.50076 12.2438 8.69169 12.9719 7.85031 13.124C7.29047 12.6548 6.70151 12.2082 6.46204 11.4315C6.07048 12.0852 5.39738 12.2244 4.6822 12.2729C4.20003 12.2567 3.93467 12.4121 4.23239 12.9201C4.58512 13.5188 4.96374 14.1013 5.03816 14.8132C5.08994 15.2436 5.23557 15.6319 5.53005 15.9588Z" fill="#FBE6A9"/>
<path d="M1.97112 18.8682C1.97112 20.0558 1.97112 21.2435 1.97112 22.4311C1.32391 21.2435 1.04561 20.0558 1.97112 18.8682Z" fill="#FCE8AD"/>
<path d="M3.91839 39.8981C3.91516 40.1117 3.91193 40.3253 3.90546 40.5389C3.2453 40.5194 2.89904 40.0858 2.61103 39.5713H2.61427C2.88286 39.3933 2.70489 38.7267 3.29062 38.9208C3.73396 39.0697 3.9281 39.4321 3.91839 39.8981Z" fill="#F3DA9B"/>
<path d="M3.91839 39.8981C3.51712 39.6586 3.32302 38.5936 2.61756 39.5709C2.6208 39.2472 2.62402 38.9236 2.62726 38.5968C3.17739 38.2635 2.72758 37.5483 3.25506 37.0855C4.07702 37.9819 4.25176 39.4964 5.92157 39.7424C5.12874 40.4964 4.52354 40.1667 3.91839 39.8981Z" fill="#FBE9B6"/>
<path d="M9.41313 3.01455C10.494 3.69413 11.8984 2.95631 12.9502 3.81063C11.5036 4.06304 5.77903 3.25079 3.44582 2.44824C3.97006 1.71689 4.65935 1.35445 5.51043 1.40946C6.70778 1.48713 7.90512 1.60363 9.08629 1.79132C9.56846 1.86899 9.79175 2.17318 9.08953 2.37381C8.83711 2.76861 9.23191 2.83657 9.41313 3.01455Z" fill="#F5DDA1"/>
<path d="M14.0151 4.12306C15.1089 4.09718 16.2092 3.72503 17.2221 4.40784C16.1444 4.26869 15.0571 4.32046 14.0151 4.12306Z" fill="#F5DDA1"/>
<path d="M28.0634 5.09434C27.4679 5.37588 26.9534 5.1267 26.9404 4.88399C26.9178 4.40829 27.3773 4.68983 27.6297 4.72543C27.7559 4.73837 27.8595 4.90988 28.0634 5.09434Z" fill="#FCF1CE"/>
<path d="M9.41313 3.01455C9.12836 2.98867 8.74358 3.11803 8.62061 2.77177C8.4944 2.41256 8.86331 2.42875 9.0866 2.3705C9.19663 2.58731 9.30634 2.80097 9.41313 3.01455Z" fill="#FCECBD"/>
<path d="M28.4998 17.2497C27.9076 16.6089 28.228 15.829 28.1956 15.1139C28.1276 13.6026 27.5096 12.3244 26.7717 11.0461C26.3155 10.2565 25.788 9.30511 26.8882 8.5155C27.105 8.5155 27.3219 8.51874 27.5354 8.51874C28.16 8.85529 28.3606 9.37306 28.3574 10.0785C28.3542 10.8487 28.16 11.6448 28.4965 12.3988C28.4965 14.0136 28.4965 15.6316 28.4998 17.2497Z" fill="#F8E2A3"/>
<path d="M28.4931 21.4495C28.0724 20.4851 27.1798 19.518 28.4904 18.5504C28.4904 19.518 28.4931 20.4851 28.4931 21.4495Z" fill="#F8E2A3"/>
<path d="M28.4972 12.3977C27.9276 11.812 28.1833 11.0742 28.2059 10.4173C28.235 9.66001 27.9406 9.08399 27.5328 8.51768C28.2803 8.56622 28.5069 9.03222 28.5004 9.70208C28.4939 10.5985 28.4972 11.4981 28.4972 12.3977Z" fill="#FCE8AD"/>
<path d="M1.96095 7.21454C1.33315 6.35051 2.29104 5.49619 1.97067 4.63215C2.18749 4.74218 2.4043 4.84897 2.61788 4.959C2.61788 5.06903 2.62112 5.17582 2.62112 5.28584C2.73115 6.04308 2.5305 6.6903 1.96095 7.21454Z" fill="#FAE9BA"/>
<path d="M7.85334 13.0486C8.31933 12.6053 8.42612 11.9839 8.69795 11.4209C8.73678 11.7768 8.77239 12.1296 8.81122 12.4855C9.58141 13.6117 9.01185 14.9061 9.25132 16.0128C9.43578 14.4207 8.96977 12.6862 9.74319 11.0681C9.53285 10.9678 9.31928 10.8643 9.10894 10.7639C11.3742 9.58601 13.4517 10.6345 15.539 11.3464C15.8917 11.4662 15.8594 11.8513 15.5067 12.0907C14.5423 13.0713 14.7526 14.3269 14.7171 15.5274C14.9371 14.4692 14.7818 13.3107 15.5519 12.4046C15.5908 12.4402 15.6555 12.4661 15.6685 12.5114C16.2251 14.3689 16.225 14.3689 17.8398 13.7411C18.2994 14.4013 17.5292 14.7411 17.4192 15.3139C18.1052 14.7928 18.7621 14.589 19.4029 15.2944C19.0954 14.9255 18.7718 14.5793 18.6845 14.0874C18.6877 13.8285 18.7751 13.6505 19.0793 13.6829C19.6035 13.0324 19.8397 11.5794 21.0953 12.9677C21.2733 13.1651 21.3283 12.9645 21.3672 12.8253C21.9497 10.6863 23.3153 11.45 24.6194 12.0131C24.1567 12.0519 23.6939 12.0907 23.2279 12.1296C22.8169 12.4758 22.3574 12.7897 22.3412 13.411C22.2118 14.0259 21.8849 14.7443 22.448 15.2071C23.5806 16.1358 22.8784 16.6277 22.1212 17.1714C22.2021 17.4141 22.2183 17.6729 22.3542 17.8995C23.2538 18.2522 24.4091 18.304 24.4447 19.6696C24.4447 19.6793 24.5482 19.702 24.5935 19.689C24.6388 19.6728 24.6712 19.6211 24.7068 19.5725C24.9786 18.9059 24.8103 18.1292 25.2699 17.5241C25.4252 17.3364 25.6032 17.1972 25.8653 17.2426C26.2213 17.1681 26.8038 17.0128 26.273 17.6471C25.7909 18.2231 25.5126 18.7829 25.587 19.524C25.7261 20.922 24.6971 21.3718 23.6939 21.3329C22.8914 21.3038 21.7522 21.3653 21.6357 19.8541C21.5419 18.6341 20.309 18.9253 19.4417 18.88C18.9401 19.1907 18.4256 19.3525 17.8819 18.9836C17.6651 18.0904 18.4094 18.3007 18.8366 18.1454C19.0404 18.1195 19.254 18.1292 19.4611 17.9998C18.4644 17.783 17.4742 17.2652 16.4613 18.0386C16.3189 18.304 16.1571 18.5467 15.8626 18.6632C15.539 18.7085 15.251 18.5888 14.9565 18.4852C13.332 18.4626 12.2059 17.838 12.0473 16.0582C12.0343 15.9449 12.0246 15.8284 12.0117 15.7151C12.0149 15.0906 12.4486 14.6666 12.7301 14.1715C13.044 13.6149 13.3676 13.0615 12.8984 12.4305C12.6104 12.1231 12.2382 12.1522 11.8725 12.1781C11.659 12.191 11.5263 12.3011 11.7334 12.2428C11.7431 12.2396 11.7722 12.3108 11.811 12.3464C12.6524 12.6117 13.4388 12.9159 12.1541 13.6699C11.8046 13.8738 11.7107 13.9418 11.9373 14.3398C12.1832 14.7767 11.8725 15.0064 11.4163 15.0226C11.0279 15.7443 10.2157 16.317 10.4487 17.262C10.5975 17.8639 10.4066 18.291 9.89854 18.3946C9.32575 18.5111 8.70766 18.3331 8.397 17.7441C8.14782 17.2749 7.99573 16.7539 7.79833 16.2588C7.72714 15.6601 7.37764 15.1747 7.14788 14.6408C6.81133 13.8544 6.96342 13.2816 7.85334 13.0486Z" fill="#FAEBB9"/>
<path d="M23.3418 33.4436C21.7626 32.9323 20.85 30.9842 18.8534 31.3498C18.7693 31.366 18.5913 31.1816 18.5557 31.0651C18.4877 30.8321 18.643 30.5602 18.8502 30.5958C19.6042 30.7285 20.41 29.5862 20.5426 29.9324C21.1575 31.5375 22.1089 29.9583 22.7917 30.392C20.9407 29.5085 22.3807 28.2756 22.2966 27.24C23.6557 29.1558 23.8337 31.2495 23.3418 33.4468V33.4436Z" fill="#FCE9B1"/>
<path d="M15.2964 18.2173C15.4938 18.3274 15.688 18.4374 15.8854 18.5474C16.6297 18.0685 17.2801 18.1817 17.8335 18.8646C18.3674 18.8678 18.9046 18.871 19.4386 18.871C19.2347 20.1849 18.3351 20.3078 17.3125 20.0263C16.5326 19.8127 15.6459 20.1072 15.2802 20.4308C13.7269 21.8061 12.9438 20.9486 12.1639 19.6606C12.0636 19.4956 11.9212 19.3597 11.6914 19.0781C12.6493 19.2335 13.4583 19.0814 14.2091 19.447C14.3288 19.5053 14.6621 19.6347 14.5748 19.2464C14.5456 19.1105 14.3709 19.0102 14.2608 18.8937C14.5003 18.5054 14.8919 18.35 15.2964 18.2173Z" fill="#F8E2A0"/>
<path d="M7.85334 13.0486C7.21583 13.6538 6.83793 14.2466 7.75697 14.9617C8.22296 15.3242 8.40741 15.8031 7.78932 16.2497C7.06768 15.9131 6.51431 14.2369 5.52731 15.9585C4.61798 16.1073 4.66976 15.5863 4.84127 14.9779C4.77007 14.7482 4.8542 14.5508 5.01277 14.4019C5.66322 13.7935 6.07744 13.2563 4.79596 12.9036C4.47882 12.8162 4.28467 12.512 4.62122 12.1723C5.32344 11.8228 6.41076 11.8616 6.1357 10.5477C6.08392 10.305 6.72143 10.208 6.68583 10.4086C6.48843 11.5833 7.9666 11.9645 7.85334 13.0486Z" fill="#9B6330"/>
<path d="M13.9994 23.0121C14.0932 23.1222 14.1871 23.2354 14.2809 23.3454C14.4783 24.0833 13.6434 24.2774 13.5043 24.8405C13.2098 25.3194 12.8247 25.6981 12.2907 25.9084C11.4494 26.0864 10.6598 26.4747 9.78601 26.5103C8.88638 26.054 8.88639 25.3712 9.18411 24.5072C9.60156 23.3001 10.5174 23.3163 11.5011 23.4005C12.2487 22.7403 12.9218 21.5915 13.9994 23.0121Z" fill="#E16148"/>
<path d="M22.0307 17.2567C20.9725 16.7519 20.8949 16.4833 21.7719 16.3474C22.1537 16.2891 22.5873 16.7228 23.0145 16.0982C21.5389 15.6096 21.6003 14.5481 22.0275 13.3734C22.1667 13.2505 22.3123 13.244 22.4611 13.354C22.6941 13.6841 22.9498 14.0109 22.72 14.4511C22.8559 15.1274 23.4028 15.0077 23.8656 15.0335C24.4675 15.0659 25.0759 15.0724 25.2183 15.8555C25.0759 16.1144 24.8526 16.3797 25.2733 16.5966C25.5548 16.7357 25.8849 16.8296 25.872 17.2405C25.7684 17.3182 25.6648 17.3959 25.5613 17.4735C25.4804 17.658 25.3412 17.7389 25.1406 17.7162C24.1018 17.5641 22.9789 17.9978 22.0307 17.2567Z" fill="#935E28"/>
<path d="M17.1607 32.4911C17.2869 32.2807 17.2772 31.6303 17.4196 31.8665C17.9924 32.8212 18.7884 32.4199 19.5295 32.4684C21.4517 32.5882 20.4971 34.0929 20.7365 35.0249C19.7657 35.8145 18.8855 35.3291 18.138 34.711C17.4843 34.1738 16.5264 33.6464 17.1607 32.4911Z" fill="#FCE9B1"/>
<path d="M7.80524 30.4887C7.69522 30.4855 7.58519 30.4823 7.4784 30.479C7.37161 29.3076 5.6824 29.7638 5.55619 28.615C6.00277 28.1264 6.54318 27.8675 7.22276 27.874C8.11268 27.8837 8.61751 27.243 9.14822 26.6572C9.37798 26.5472 9.56244 26.6378 9.73071 26.7964C9.81161 26.9193 9.84721 27.052 9.83103 27.2009C9.61098 27.7154 9.41681 28.2397 9.49124 28.8189C9.48801 29.3432 9.53007 29.8739 9.30031 30.3722C8.84079 30.9127 8.31331 30.5729 7.80524 30.4887Z" fill="#CB9442"/>
<path d="M13.2576 12.1501C14.2478 13.8296 12.6816 14.6128 12.0085 15.7098C11.18 16.0172 11.3354 15.4833 11.4098 15.014C11.6849 14.8231 12.2188 14.6581 11.5554 14.3151C11.2577 14.1597 10.6558 14.3151 10.7367 13.8038C10.8273 13.2374 11.4227 13.4866 11.8143 13.4446C12.0699 13.4187 12.3418 13.4801 12.5715 13.1565C12.2221 12.532 11.5619 12.8394 11.0603 12.7067C10.9017 12.587 10.8855 12.4543 11.0182 12.3022C11.5101 11.9463 12.1217 12.1792 12.646 11.9689C12.8822 11.9268 13.1184 11.8751 13.2576 12.1501Z" fill="#9E6B35"/>
<path d="M23.3413 33.4492C25.5094 32.7826 25.5094 32.7826 26.2796 35.6724C26.2473 35.9119 26.1243 36.1028 25.9495 36.2646C25.6421 36.5235 25.2861 36.6529 24.8816 36.6303C24.3703 36.5397 24.1147 36.2937 24.3509 35.7533C24.4577 35.5106 24.6098 35.2906 24.7198 35.0511C24.8104 34.8569 24.8784 34.6628 24.6713 34.3974C23.4416 34.3133 22.707 35.7922 21.4029 35.585C21.1731 35.4912 20.9951 35.365 21.0792 35.0737C21.8818 34.598 22.7588 34.2259 23.3445 33.446C23.3413 33.4428 23.3413 33.4492 23.3413 33.4492Z" fill="#D6B372"/>
<path d="M3.58837 23.074C3.58837 21.9964 3.59161 20.9188 3.59161 19.8412C3.89256 19.9868 4.17085 20.2004 4.1838 20.5402C4.24852 22.1291 4.25176 23.7148 4.53006 25.2908C4.60772 25.7341 4.43622 26.2292 3.58513 26.5917C3.58837 25.3264 3.58837 24.2002 3.58837 23.074Z" fill="#FDEDB9"/>
<path d="M21.0765 35.0709C21.1994 35.1841 21.3224 35.2942 21.4454 35.4074C20.439 36.3815 19.5976 36.3847 17.8404 35.4301C16.9214 34.6437 16.2256 33.7052 15.9279 32.5079C15.8923 32.2587 15.9052 32.0095 15.957 31.7604C16.1188 31.3073 16.1059 30.7669 16.5751 30.4595C17.1349 31.0323 16.5524 31.9319 17.1576 32.495C17.6106 34.2942 18.6494 35.0288 20.7367 35.0288C20.8499 35.0417 20.9632 35.0547 21.0765 35.0709Z" fill="#D9BA80"/>
<path d="M15.5559 12.3986C15.462 13.5668 15.3617 14.7383 15.2776 15.9065C15.2485 16.2981 15.1934 16.7511 14.7404 16.7511C14.242 16.7544 14.255 16.2916 14.2809 15.9033C14.3618 14.7318 14.4297 13.5604 14.5236 12.3889C14.5948 11.4893 14.9896 11.5572 15.5106 12.0847C15.4879 12.198 15.5041 12.3015 15.5559 12.3986Z" fill="#A06A31"/>
<path d="M18.8375 13.9657C19.2614 14.4446 19.6918 14.9203 20.1092 15.409C20.2808 15.6096 20.4814 15.8329 20.2322 16.1047C19.9798 16.3798 19.7274 16.2212 19.5559 16.0141C18.8472 15.1663 18.1579 14.7165 17.3521 15.9203C17.213 16.1306 16.9023 16.2407 16.6596 15.9785C16.4266 15.7261 16.5463 15.4964 16.7405 15.2828C17.1677 14.8103 17.679 14.3993 17.844 13.7392C18.0349 13.4771 18.2226 13.2149 18.4135 12.9496C18.9475 13.1243 18.4589 13.7262 18.8375 13.9657Z" fill="#9A6630"/>
<path d="M15.2964 18.2173C15.2673 18.9196 14.7104 18.8231 14.2638 18.8975C11.8011 18.5998 11.8011 18.5998 12.0439 16.0498C12.0989 16.053 12.1959 16.0433 12.1992 16.0563C12.5875 17.7066 14.0117 17.8614 15.2964 18.2173Z" fill="#9A612F"/>
<path d="M15.8661 23.4329C18.0666 24.7953 18.0504 26.5686 15.8207 27.9634C15.2285 27.7013 15.6395 27.3647 15.7528 27.0508C16.4129 26.1965 16.7333 25.3486 15.8434 24.4199C15.578 24.1448 15.5651 23.7565 15.8661 23.4329Z" fill="#F7E4BA"/>
<path d="M22.3647 13.378C22.2514 13.3748 22.1414 13.3715 22.0281 13.3683C21.6625 12.2065 22.4132 12.1321 23.2352 12.1224C23.8144 12.5722 25.193 11.9962 25.0992 12.8796C24.9924 13.8893 23.8565 13.022 23.1963 13.1806C22.9083 13.2518 22.9569 13.4848 22.9731 13.6951C22.6333 13.8537 22.533 13.5527 22.3647 13.378Z" fill="#A46E35"/>
<path d="M15.9087 27.3258C15.857 27.5361 15.4454 27.6948 15.8207 27.9634C16.29 28.7303 16.5527 29.5587 16.5786 30.4583C16.4621 30.9081 16.6919 31.4485 16.2291 31.8077C15.9152 31.6589 15.7566 31.3838 15.6304 31.0796C15.4427 29.7496 14.6984 28.5717 14.5593 27.2255C14.8408 26.986 15.1612 26.9472 15.5107 27.0216C15.6757 27.0766 15.8117 27.1769 15.9087 27.3258Z" fill="#D5B07A"/>
<path d="M9.70125 26.8863C9.51679 26.8087 9.33268 26.7349 9.14822 26.6572C8.23241 24.2399 9.06697 23.0257 11.6591 23.0128C11.8726 23.2425 11.8662 23.4852 11.6979 23.7344C11.041 24.1163 10.0151 23.0289 9.54914 24.359C9.28378 25.113 8.99901 25.7408 9.73036 26.3459C9.92452 26.5336 9.88894 26.7148 9.70125 26.8863Z" fill="#AF5636"/>
<path d="M15.9084 27.3269C15.7919 27.3075 15.6754 27.288 15.5557 27.2719C15.4521 27.1651 15.3971 27.0356 15.4004 26.8868C15.4974 26.3172 16.2482 25.9257 15.8566 25.2234C15.4165 24.7704 14.9732 24.3238 14.7014 23.7381C14.6269 23.6183 14.5687 23.4889 14.5234 23.3562C14.9958 22.9258 15.4489 22.874 15.8631 23.4339C15.8761 23.6895 15.7952 24.1037 15.9214 24.1814C17.6494 25.259 16.999 26.2849 15.9084 27.3269Z" fill="#B45835"/>
<path d="M22.3647 13.378C22.5685 13.4848 22.7718 13.592 22.9757 13.6988L23.0016 13.7247C23.5453 14.0288 24.1795 13.7052 24.7264 13.9738C25.2086 14.4366 24.9173 14.5952 24.4481 14.5855C23.8721 14.5757 23.2993 14.4948 22.7233 14.4463C22.6003 14.0903 22.4812 13.734 22.3647 13.378Z" fill="#865326"/>
<path d="M11.6943 23.7351C11.6814 23.4956 11.6684 23.2529 11.6555 23.0134C12.8884 21.7384 13.2056 21.7384 13.9952 23.0134C12.9014 22.2012 12.2445 22.8063 11.6943 23.7351Z" fill="#B66041"/>
<path d="M14.5234 23.3562C14.6463 23.3789 14.7693 23.4007 14.889 23.4201C14.9925 24.242 14.4942 24.7274 13.8761 25.0802C13.601 25.2387 13.2256 25.2129 13.2871 24.6919C13.2354 23.9605 13.9894 23.8246 14.2774 23.3456C14.3615 23.3198 14.4425 23.3239 14.5234 23.3562Z" fill="#C4402D"/>
<path d="M25.9172 35.9867C26.0369 35.8832 26.1566 35.7764 26.2764 35.6728C27.1598 36.2068 26.9786 36.8863 26.5385 37.6048C26.0984 37.731 26.0434 37.3879 25.9301 37.1129C25.8233 36.7375 25.8913 36.3621 25.9172 35.9867Z" fill="#D3AF6F"/>
<path d="M18.8375 13.9657C18.1417 13.8557 18.6336 13.2538 18.4135 12.9496C18.4912 12.6389 18.7013 12.5194 18.9537 12.7039C19.3032 12.9628 19.0928 13.3446 19.0831 13.6812C19.0022 13.775 18.9216 13.8719 18.8375 13.9657Z" fill="#85501E"/>
<path d="M25.274 16.5923C24.8403 16.5955 24.3549 16.8091 24.0119 16.314C24.2514 15.6732 24.8662 16.1036 25.2189 15.8512C25.2384 16.0971 25.2546 16.3431 25.274 16.5923Z" fill="#E9D7AA"/>
<path d="M26.2149 36.9593C26.2472 37.2117 26.2666 37.4706 26.5417 37.6C26.4349 37.8266 26.3314 38.0563 26.2246 38.2828C26.0045 38.1631 25.7845 38.0434 25.5612 37.9236C25.4867 37.4059 25.5612 36.9852 26.2149 36.9593Z" fill="#E0C494"/>
<path d="M24.7234 13.9737C24.1377 13.9672 23.5164 14.2099 22.9986 13.7245C23.5811 13.7504 24.1765 13.6954 24.7234 13.9737Z" fill="#935E28"/>
<path d="M15.8821 31.1723C15.9953 31.3858 16.1118 31.5994 16.2283 31.8098C16.2251 32.0266 16.2219 32.2402 16.2154 32.457C16.2186 33.6543 16.6814 34.5604 17.8367 35.0296C18.9855 35.6704 20.1542 36.1161 21.4454 35.4074C22.468 35.2068 23.1665 34.3921 24.092 34.0038C24.4835 33.8388 24.8784 33.5799 25.2473 33.9876C25.6065 34.3857 25.1696 34.7902 25.1987 35.172C25.2375 35.6348 23.8105 35.7481 24.9269 36.3985C23.3995 36.5247 23.0241 38.2851 21.6843 38.6799C20.7394 37.735 20.0242 36.4665 18.6554 36.4697C19.7686 36.7901 20.9692 37.1428 20.9401 38.9777C20.9271 39.8093 21.6293 39.5375 22.0403 39.0294C22.5128 38.6282 23.3315 38.5019 23.393 39.0197C23.4998 39.9355 24.1179 39.9647 24.6518 40.243C24.5742 40.6378 23.6972 40.2332 23.9464 41.0293C24.2829 42.1005 23.5419 42.5309 22.6746 42.8124C22.0274 42.2914 21.3802 41.7672 20.7329 41.2461C20.6779 40.9646 20.5614 41.039 20.4287 41.1944C20.3155 41.3044 20.2022 41.4144 20.089 41.5277C19.1667 41.5924 18.2412 41.6733 17.8237 40.5601C18.0341 40.5374 18.2444 40.5148 18.4548 40.4921C17.649 39.7284 18.9272 38.4599 17.704 37.8386C18.28 37.4211 18.8043 38.2948 19.3867 37.5861C18.102 37.1784 16.8723 36.748 15.9533 35.7642C15.8044 35.6057 15.4387 35.4439 15.2866 35.7998C15.1313 36.1623 15.2122 36.8386 14.5779 36.5538C14.0213 36.3047 14.7236 35.9422 14.6944 35.6283C14.6491 35.1364 14.3643 34.7772 13.8498 34.5313C13.4388 35.3533 13.3547 36.7254 12.1315 36.4115C11.193 36.172 11.5328 34.9099 11.2642 34.0944C10.8403 34.2854 11.0474 34.7287 10.8921 35.0264C10.5782 35.6218 9.87269 36.1623 9.51025 36.0781C8.73036 35.9002 9.49083 35.1947 9.40346 34.7125C9.35168 34.4277 9.26754 34.2045 9.0216 34.0491C9.43905 33.1236 9.71088 32.1819 9.32255 31.1723C9.39375 31.1464 9.46495 31.1237 9.53615 31.0978C10.0054 31.2726 9.98919 31.6253 9.79503 32.347C10.1348 31.4441 10.6429 31.1593 11.1671 30.9198C11.7593 30.648 12.2739 30.3276 12.6751 29.7807C13.4647 28.6999 13.811 29.3277 14.0602 30.1691C14.1249 30.3988 14.3838 30.127 14.2058 30.2435C14.1702 30.2662 14.1184 30.2338 14.099 30.1302C14.044 29.8649 13.8919 29.6416 13.8142 29.3859C13.7333 29.1173 13.7107 28.8293 13.9598 28.6611C14.2932 28.4345 14.565 28.6772 14.8045 28.8844C15.5002 29.4766 15.3546 30.483 15.8821 31.1723Z" fill="#FAF3E1"/>
<path d="M18.8013 41.8374C18.3289 42.106 17.7399 42.2257 17.5037 42.8115C17.3289 43.0186 17.0992 43.0962 16.8338 43.0995C16.0118 42.7953 14.9213 42.8244 14.8727 41.5429C16.4066 41.3682 16.4617 40.5527 15.8177 39.4071C15.6915 39.1806 15.6041 38.9055 15.5847 38.6499C15.5556 38.2357 15.4552 37.6337 15.9892 37.5723C16.5911 37.5011 16.5231 38.1192 16.5199 38.5204C16.5167 39.0188 16.6267 39.4751 16.8467 39.9119C16.9212 40.242 16.3743 40.7954 17.3516 40.7986C17.7723 40.8051 18.7722 40.8795 18.8013 41.8374Z" fill="#FAF3E1"/>
<path d="M14.8731 41.5458C15.3488 42.2577 16.0155 42.672 16.8568 42.8143C16.8892 43.4292 16.5526 43.3192 16.1902 43.1541C14.5884 43.1315 13.9573 41.7562 12.9832 40.8565C12.7632 39.7886 11.7794 38.7596 12.9121 37.436C12.9703 39.2094 13.2163 40.7465 14.8731 41.5458Z" fill="#E1CEA3"/>
<path d="M8.1225 37.6406C8.99624 38.4885 8.89915 39.7149 9.29395 40.7505C9.61109 41.5886 10.0027 42.2844 10.7081 42.8151C8.88944 42.7957 8.37167 41.5239 8.14191 40.0612C8.03512 39.3784 8.11926 38.6632 8.11926 37.961C8.11926 37.8542 8.1225 37.7474 8.1225 37.6406Z" fill="#F9ECD1"/>
<path d="M18.8013 41.8374C18.1315 41.5332 17.5491 40.2799 16.6624 41.762C16.5329 41.0533 16.329 40.4588 16.8467 39.9119C17.1736 40.1223 17.4973 40.3349 17.8241 40.5453C18.4681 41.131 19.3872 41.0727 20.0894 41.5128C20.002 42.3219 19.5134 41.9432 19.1186 41.8397C19.015 41.8429 18.9081 41.8406 18.8013 41.8374Z" fill="#F4E9D0"/>
<path d="M16.1864 43.1502C16.455 43.1276 16.7107 43.079 16.8531 42.8104C17.0699 42.8104 17.2835 42.8104 17.5003 42.8104C18.1119 43.2603 18.9306 43.0175 19.7946 43.4026C19.0568 43.9495 18.4064 43.6906 17.8206 43.7715C17.3449 43.3897 16.6265 43.6356 16.1864 43.1502Z" fill="#E9D6AF"/>
<path d="M10.7075 42.8138C11.6104 42.9044 12.6038 42.529 13.5391 43.4319C12.3838 43.6519 11.5262 43.3348 10.7075 42.8138Z" fill="#F9ECD1"/>
<path d="M20.4321 41.1872C20.3771 40.9704 20.0891 40.6921 20.5227 40.5821C20.7945 40.5141 21.0858 40.6403 21.1505 40.9251C21.2152 41.2034 20.924 41.1969 20.7363 41.239C20.636 41.2066 20.5356 41.1904 20.4321 41.1872Z" fill="#E6D3AE"/>
<path d="M19.1218 41.8465C19.4778 41.8368 19.8629 41.9047 20.0926 41.5196C20.2771 41.6555 20.4033 41.8788 20.2059 42.0147C19.8305 42.2704 19.4325 42.2316 19.1218 41.8465Z" fill="#FAF3E1"/>
<path d="M7.80524 30.4887C8.21623 29.9807 8.61799 30.3073 9.01926 30.5047C9.38493 30.5953 9.56617 30.8121 9.4788 31.2005L9.32669 31.1616C8.97072 31.5823 9.19401 32.1001 9.08722 32.5596C8.82834 33.6664 8.29115 34.1906 7.18441 33.3978C7.31386 33.1712 7.23618 32.8671 7.46271 32.6794C7.78632 32.414 8.00638 32.1163 7.77338 31.6826C7.64717 31.5403 7.5954 31.3623 7.5145 31.1972C7.61158 30.9578 7.70816 30.7217 7.80524 30.4887Z" fill="#DE654B"/>
<path d="M7.47881 32.7787C7.46263 33.0247 7.44321 33.2674 7.18109 33.3968C6.50799 32.5457 7.10667 31.8823 7.51118 31.193C7.6115 31.2934 7.71505 31.3937 7.81537 31.494C8.01924 32.0053 7.78947 32.4033 7.47881 32.7787Z" fill="#EC7861"/>
<path d="M21.7036 38.6043C21.8719 38.4004 22.0369 38.1933 22.2052 37.9894C22.9204 37.1254 23.6161 36.2354 24.93 36.394C25.2601 36.2581 25.5901 36.1222 25.9202 35.9863C26.2276 36.2484 26.2794 36.5882 26.2179 36.9603C26.0011 37.2807 25.7843 37.6043 25.5675 37.9247L25.5707 37.9312C24.8782 38.5428 25.5545 38.6884 25.917 38.9408C25.7746 39.643 25.4218 40.1382 24.6581 40.2385C24.0918 40.1479 23.3508 40.5783 23.2957 39.3712C23.2634 38.6172 22.4932 39.0767 22.0337 39.2547C21.7263 39.4424 21.4447 39.423 21.3217 39.0573C21.2182 38.7661 21.3832 38.5945 21.7036 38.6043Z" fill="#FBF7E9"/>
<path d="M25.9116 38.9408C25.4553 38.9149 24.999 38.8858 24.5104 38.8567C24.6528 38.1965 25.0864 38.0347 25.5653 37.928C25.6818 38.2677 25.7983 38.6043 25.9116 38.9408Z" fill="#E0C494"/>
<path d="M9.74732 11.0685C9.94148 12.9357 9.73115 14.8029 9.67937 16.6669C9.66967 17.0293 9.64053 17.5212 9.15835 17.5147C8.61793 17.5083 8.74091 16.9905 8.74415 16.6475C8.75385 15.2592 8.78944 13.8742 8.81533 12.4859C9.28456 12.1202 8.48849 10.9196 9.74732 11.0685Z" fill="#A06B30"/>
<path d="M4.62718 12.172C4.95402 13.0619 5.87307 12.5668 6.4944 12.9648C6.30347 13.9324 5.52035 14.4113 4.84725 14.9776C4.49128 14.2916 4.15473 13.5991 3.77611 12.9292C3.60784 12.6315 3.14184 12.4147 3.57224 12.0134C3.96704 11.6477 4.3327 11.7221 4.62718 12.172Z" fill="#F6E6B5"/>
<path d="M1.96018 7.21388C2.18023 6.5699 2.4003 5.92916 2.62035 5.28518C3.06693 5.99388 2.79832 7.28831 2.1414 7.61516C2.07991 7.48248 2.02166 7.3498 1.96018 7.21388Z" fill="#F2D993"/>
<path d="M7.87302 11.6843C7.07048 11.7005 7.15139 11.2572 7.23229 10.6553C7.48147 11.0533 7.65944 11.3381 7.87302 11.6843Z" fill="#FAEBB9"/>
<path d="M16.1927 17.9319C15.9015 17.3461 16.1474 17.1326 16.7299 17.1843C17.5842 17.262 18.4483 17.3041 19.2896 17.4594C19.7492 17.5435 20.6003 17.2491 20.5582 18.0257C20.5194 18.7829 19.6747 18.3299 19.2185 18.5111C18.2606 18.0581 17.0406 18.9739 16.1927 17.9319Z" fill="#A26E37"/>
<path d="M24.9755 19.8282C24.7587 20.1453 24.8558 20.8249 24.27 20.6987C23.8202 20.6016 23.9788 20.0515 24.0371 19.7246C24.1859 18.8412 23.7652 18.5823 22.9821 18.5758C22.4999 18.5726 22.0113 18.5144 21.7491 18.0031C22.6261 17.2523 23.6455 17.6439 24.6163 17.6503C25.4577 18.2619 25.0532 19.071 24.9755 19.8282Z" fill="#9E6830"/>
<path d="M24.6163 17.9057C23.6649 18.006 22.6909 17.5335 21.7524 18.006C21.8463 17.7568 21.9369 17.5044 22.0307 17.2552C23.1342 17.2908 24.2442 17.2293 25.3185 17.5497C25.1729 17.8474 24.8073 17.7018 24.6163 17.9057Z" fill="#FCE8AD"/>
<path d="M16.1927 17.9319C17.2024 18.126 18.2088 18.317 19.2185 18.5111C18.7557 18.6211 18.2024 18.3824 17.8335 18.8646C17.183 18.7707 16.5714 18.4309 15.8854 18.5474C15.9889 18.3403 16.0892 18.1357 16.1927 17.9319Z" fill="#FCE8AD"/>
<path d="M11.0413 12.3951C11.0187 12.5019 11.0252 12.6055 11.0608 12.7058C10.5333 12.3304 10.6336 11.8838 11.174 11.8094C11.8633 11.7155 12.6691 11.4178 13.2581 12.1492C13.0477 12.133 12.8406 12.1201 12.6303 12.1039C12.1449 12.4307 11.5203 12.0133 11.0413 12.3951Z" fill="#E4CA8F"/>
<path d="M24.617 17.9065C24.7659 17.6217 25.041 17.5796 25.3193 17.5505C25.3969 17.5149 25.4778 17.4858 25.562 17.4664C25.083 18.1815 25.5523 19.1329 24.9795 19.8287C24.8274 19.1944 25.3096 18.4404 24.617 17.9065Z" fill="#F6E7B7"/>
<path d="M13.2901 24.6916C14.3904 24.9796 14.3419 23.8211 14.892 23.4198C15.3062 23.9732 15.5845 24.6333 16.1961 25.0249C16.0796 25.2061 15.8822 25.4682 15.7366 25.41C14.6493 24.9634 14.9341 26.0184 14.6137 26.4002C13.672 26.6915 12.9795 26.2061 12.3096 25.6527C12.6364 25.3323 12.9633 25.012 13.2901 24.6916Z" fill="#DB573E"/>
<path d="M12.3101 25.6539C13.1612 25.5568 13.7825 26.2428 14.5786 26.327C14.9928 26.3626 15.2938 26.5729 15.5074 26.9192C15.5235 27.0357 15.5395 27.1554 15.5557 27.2719C15.245 27.2654 14.9378 27.2589 14.6271 27.2525C14.0899 27.3366 13.6563 27.0357 13.1838 26.8803C12.501 26.6376 11.8085 26.657 11.1095 26.7768C10.9801 26.8221 10.8474 26.8609 10.7147 26.903C10.3879 26.9903 10.074 27.191 9.72126 27.0001L9.70184 26.89C9.70831 26.7088 9.718 26.5276 9.72448 26.3464C10.54 25.9451 11.3749 25.6118 12.3101 25.6539Z" fill="#C65F40"/>
<path d="M13.387 26.5977C13.8886 26.6462 14.2413 26.9795 14.6264 27.2514C15.3966 28.4455 15.882 29.7302 15.882 31.1702C15.8723 31.3321 15.9209 31.5327 15.84 31.646C15.5519 32.0537 15.6037 31.646 15.5617 31.51C15.2542 30.5166 15.183 29.3936 14.1022 28.7302C13.8077 29.4972 14.5811 30.1379 14.1151 30.9017C13.8012 30.4357 13.9566 29.7367 13.2543 29.3613C13.0278 31.4065 10.5554 30.8887 9.91147 32.5035C9.54903 32.1249 9.94707 31.5165 9.47461 31.2026C9.32251 30.9696 9.16717 30.7398 9.01507 30.5069C9.05067 29.8629 9.08627 29.2189 9.12511 28.5749C9.60728 27.7303 10.0636 28.1542 10.5231 28.5943C10.7302 28.7594 10.947 28.9665 11.2221 28.7497C11.4195 28.5943 11.3645 28.371 11.2577 28.1672C10.8305 27.7335 10.2998 27.3387 10.6817 26.6106L10.6784 26.6171C11.5813 26.3873 12.4841 26.4132 13.387 26.5977Z" fill="#FAF6EA"/>
<path d="M10.3256 28.9064C10.0117 28.4857 9.6816 28.1233 9.125 28.5731C8.8467 27.8676 9.19054 27.3981 9.72126 27.0001C10.0416 26.8706 10.3612 26.7415 10.6815 26.6088C10.7883 27.2204 11.1734 27.6378 11.6524 27.9841C11.2446 28.3401 10.811 28.6604 10.3256 28.9064Z" fill="#F5ECDD"/>
<path d="M8.34593 29.7766C7.63076 29.4336 7.0612 29.1618 6.43016 28.8576C8.34592 28.2136 8.34593 28.2136 8.34593 29.7766Z" fill="#F4C44A"/>
<path d="M11.0413 12.3951C11.462 11.6961 12.0898 12.1427 12.6303 12.1039C12.1772 12.6119 11.5753 12.3142 11.0413 12.3951Z" fill="#8B4D1B"/>
<path d="M17.8368 35.0261C16.6103 35.0973 15.8434 33.8805 16.2155 32.4534C16.6233 33.3983 17.1604 34.2559 17.8368 35.0261Z" fill="#FAF6EA"/>
<path d="M15.5101 26.915C15.0441 26.9636 14.7755 26.7047 14.5813 26.3228C14.2966 24.8666 15.5424 25.3132 16.1961 25.0219C16.9566 26.0154 15.9793 26.3746 15.5101 26.915Z" fill="#E06448"/>
<path d="M21.7041 38.6054C21.2154 39.1199 21.6199 39.1911 22.0277 39.2591C22.0859 39.5115 22.2412 39.9548 22.183 39.9807C21.6426 40.2558 21.1831 39.8577 20.6977 39.6992C20.4064 39.6021 20.0148 39.395 20.2737 39.0066C21.1831 37.641 19.8919 37.4048 19.2026 36.8902C18.7463 36.5472 18.0376 36.6605 17.6557 36.1104C20.0925 36.3498 20.9145 36.8579 21.7041 38.6054Z" fill="#F6EACC"/>
<path d="M7.47881 32.7787C7.41732 32.303 7.58884 31.892 7.81537 31.494C8.11632 31.3807 8.56301 31.2774 8.35914 31.7661C8.21028 32.1318 8.54024 33.1444 7.47881 32.7787Z" fill="#D05241"/>
<path d="M13.3878 26.5986C12.485 26.6051 11.5853 26.6116 10.6825 26.6148C11.5821 26.055 12.485 26.1197 13.3878 26.5986Z" fill="#F5ECDD"/>
<path d="M10.3266 28.906C10.4042 28.0711 10.757 27.6343 11.6566 27.9837C11.9414 28.5209 11.9575 29.0193 11.3686 29.3526C10.8573 29.6471 10.6016 29.2264 10.3266 28.906Z" fill="#A37044"/>
</svg>
