<svg width="50" height="45" viewBox="0 0 50 45" fill="none" xmlns="http://www.w3.org/2000/svg">
<path d="M7.57263 25.2005C10.9907 21.9865 14.397 18.7637 17.8239 15.5614C22.6098 11.09 27.4133 6.63627 32.2051 2.17663C32.7757 1.64488 33.3493 1.1102 33.9112 0.569634C34.3671 0.131896 34.826 -0.285276 35.3172 0.505002C35.5496 0.881045 35.7761 0.784096 36.0202 0.566696C37.5087 -0.743579 37.3175 0.505002 37.341 1.43042C37.3057 1.48918 37.2733 1.545 37.241 1.60375C37.1527 1.70658 37.0557 1.80059 36.9527 1.88872C34.323 4.38588 31.8727 7.06519 29.2018 9.52122C26.5838 11.6512 24.4041 14.2306 21.9597 16.5368C21.8126 16.6807 21.6538 16.8071 21.4832 16.9246C19.4006 18.6696 17.618 20.7349 15.5236 22.4653C14.3499 23.3173 13.3204 24.3397 12.185 25.2387C11.5231 25.7616 10.9525 26.3433 10.5965 27.1159C10.3936 27.4538 10.2494 27.8533 9.79643 27.9503C9.0787 27.8621 8.84926 28.5143 8.44627 28.8757C7.34319 29.8657 6.41366 31.0409 5.2194 31.9369C4.63403 32.2248 4.31046 32.9534 3.54566 32.9446C3.23386 32.783 2.99854 32.548 2.84558 32.2336C3.00148 31.1819 3.98689 30.7647 4.54285 30.0185C7.16375 27.2364 10.2583 24.9684 12.9556 22.2685C15.1324 20.3442 17.2915 18.4023 19.3329 16.3311C17.2709 18.3964 15.0912 20.3354 12.9233 22.2861C11.7467 23.144 10.8495 24.2985 9.77878 25.268C9.39638 25.6147 9.13753 26.1376 8.53451 26.1876C7.53145 25.0771 9.09634 25.0036 9.18459 24.4043C8.67276 24.5718 8.53157 25.7234 7.57263 25.2005Z" fill="#FCD380"/>
<path d="M45.8803 5.53164C47.1569 4.94407 48.2159 5.94294 48.157 7.69095C48.6483 7.69683 49.1424 6.91243 49.5896 7.53525C50.1073 8.25795 49.2013 8.61343 48.9718 9.15106C50.2926 9.85026 50.322 10.05 49.1689 11.2075C40.7061 19.6979 32.2315 28.1794 23.7717 36.6757C21.3214 39.1346 18.927 41.6465 16.4737 44.1025C15.2206 45.3599 15.1942 45.3276 14.5264 43.8058C14.497 43.7382 14.2587 43.7647 14.1146 43.75C13.994 43.3651 14.2823 43.274 14.5352 43.1507C16.3708 42.1988 17.4974 40.5125 18.8328 39.0377C18.927 38.9378 19.0299 38.8467 19.1417 38.7674C21.692 36.7021 23.7952 34.1961 26.0014 31.79C33.2699 24.6628 40.3002 17.2977 47.8952 10.1675C46.8745 11.0048 46.3127 11.9949 45.2773 12.4708C44.0712 11.9009 44.0683 11.8274 45.1508 10.7463C45.9479 10.1088 46.6039 9.32733 47.4687 8.51355C46.5804 9.3097 45.9568 10.1352 45.1066 10.7228C44.5625 11.0518 44.1771 10.9255 43.9536 10.3262C43.9183 9.80032 44.2742 9.43896 44.5066 9.02767C44.6184 8.85727 44.7507 8.70451 44.9037 8.56937C45.6126 8.01999 46.3597 7.50881 46.6715 6.6157C46.4892 6.57457 46.6627 6.71559 46.6098 6.74203C46.2538 7.4383 45.8097 8.03174 45.0125 8.25208C44.4772 7.77615 45.3626 7.23852 44.9478 6.75672C44.8831 6.56282 44.9507 6.40418 45.0714 6.26023C45.342 6.01345 45.5479 5.70204 45.8803 5.53164Z" fill="#FCD483"/>
<path d="M44.9978 8.78677C44.9037 8.87784 44.8125 8.96597 44.7184 9.05705C43.7741 10.5759 42.1886 11.4631 41.0385 12.7763C37.9499 15.8523 34.7936 18.8606 31.9374 22.1598C29.0812 24.9654 26.2749 27.821 23.4275 30.6355C22.9833 31.0761 22.6098 31.6196 21.945 31.7842C21.539 31.6725 20.9978 31.9017 20.7772 31.32C21.2243 29.948 22.5421 29.3134 23.3628 28.2588C25.5837 25.7939 28.3634 23.8872 30.399 21.2344C31.7844 20.0563 33.2022 18.9106 34.2788 17.424C34.7407 17.1567 34.3612 16.8394 34.323 16.5397C35.1525 15.0855 36.3497 13.9368 37.4969 12.7499C37.7293 12.5119 38.0911 12.2769 38.4088 12.5619C38.7853 12.8997 38.3558 13.1876 38.2117 13.4432C37.7057 14.3422 36.8115 14.9063 36.1732 15.6936C37.4057 14.4215 38.7882 13.2582 39.2883 11.4543C39.8913 10.8609 38.8441 10.6376 38.9853 10.147C39.3354 9.17456 40.0031 8.51061 40.9679 8.15219C41.9827 7.77615 42.2681 6.60395 43.2005 6.14565C43.4094 5.90768 43.5653 5.62271 43.8124 5.41413C43.5476 5.60803 43.4035 5.89887 43.2005 6.14565C42.7858 6.38949 42.4622 6.73616 42.1357 7.07988C41.7651 7.46768 41.4091 7.4853 41.0856 7.01525C41.0826 6.46881 41.568 6.2191 41.8239 5.56102C40.9767 7.22677 40.006 8.49886 38.5353 9.32145C38.1117 9.55942 37.7557 9.9619 37.2763 9.44778C36.8792 8.62812 37.8616 8.17276 37.8058 7.44124C37.997 6.91536 38.2999 6.52463 38.9265 6.56282C39 6.59514 39.0471 6.67152 39.1118 6.7244C39.0853 6.64214 39.0588 6.56282 39.0324 6.47469C39.7913 5.19379 40.9973 4.26837 41.7445 2.98454C41.8504 2.8964 41.9739 2.83764 42.1092 2.8112C42.2534 2.79651 42.4769 2.71719 42.5269 2.77889C43.3241 3.77188 44.1006 3.766 45.1184 3.00216C45.4449 2.75539 46.0303 3.27538 45.8038 3.89527C45.592 4.47108 45.492 4.99989 45.8773 5.53164C45.8715 5.96057 45.6832 6.26023 45.2743 6.41299C44.0653 6.73616 43.5506 7.88191 42.6711 8.59874C42.2563 8.93659 41.9121 9.35671 41.7033 9.59467C42.7593 8.81614 43.4417 7.27084 44.986 6.71265C45.3449 6.76847 46.0803 6.57457 45.4067 7.32372C45.1772 7.57931 44.986 7.83784 44.9978 8.1992C45.1861 8.39309 44.9772 8.58993 44.9978 8.78677Z" fill="#FCD07C"/>
<path d="M14.7264 43.4062C14.4735 43.4297 14.2323 43.4797 14.1146 43.747C13.7293 44.176 13.2233 44.8193 12.6997 44.3669C11.9379 43.7118 13.0262 43.2358 13.1468 42.6336C13.1821 42.5748 13.2174 42.5161 13.2498 42.4544C15.0265 41.3586 16.3708 39.7721 17.718 38.2503C21.0684 34.4752 24.7747 31.0614 28.2987 27.4626C31.5432 24.1458 34.7054 20.7467 38.1323 17.6091C39.5001 16.3576 40.5031 14.7476 41.9563 13.5666C41.9945 13.5372 42.0533 13.5226 42.0798 13.4873C42.2622 13.2347 41.9827 13.3933 41.9357 13.3375C41.6709 13.264 41.4768 13.1142 41.3709 12.8615C41.8504 11.5336 42.9123 10.8109 44.1065 10.2263C44.2742 10.714 44.5948 10.7551 45.0066 10.5377C45.1361 10.5994 45.2302 10.6964 45.2861 10.8286C45.1802 11.3192 43.8771 11.8098 45.289 12.2975C45.3626 13.0114 44.7301 13.267 44.3507 13.6459C38.3235 19.6803 32.2933 25.7116 26.2543 31.7342C23.8187 34.1109 21.6773 36.7755 19.1123 39.0259C17.7003 40.533 16.3384 42.096 14.7264 43.4062Z" fill="#FCD180"/>
<path d="M13.1468 42.6336C12.9703 42.5425 12.7909 42.4544 12.6144 42.3633C12.4791 42.1283 12.3497 41.8903 12.4232 41.6024C12.4585 41.4731 12.5232 41.3556 12.6085 41.2499C13.1233 40.8474 13.6145 40.4214 14.047 39.9278C15.7736 38.3972 17.0914 36.4847 18.7711 34.9129C22.8422 31.1026 26.7456 27.1277 30.7049 23.2027C31.0049 22.906 31.2344 22.4771 31.755 22.483C32.0403 22.6122 32.1874 22.8414 32.2286 23.144C32.0639 24.0253 31.3844 24.5483 30.8078 25.127C27.1544 28.7934 23.4599 32.4246 19.83 36.1175C17.9504 38.0271 16.2943 40.157 14.2087 41.8668C13.9058 42.1136 13.6498 42.4162 13.2586 42.5308C13.2174 42.5631 13.1821 42.5983 13.1468 42.6336Z" fill="#FCD180"/>
<path d="M7.6344 40.5095C6.84019 39.8661 6.54309 40.7269 6.08421 41.0413C5.76652 41.2587 5.48414 41.3615 5.16057 41.1088C4.91936 40.9208 4.66639 40.6388 4.9223 40.3803C5.73123 39.5635 5.41648 38.9202 4.72228 38.265C4.65168 38.1975 4.71934 37.983 4.72228 37.839C6.22246 36.614 7.53733 35.192 8.92868 33.8553C9.94351 32.6861 10.9407 31.5021 11.9849 30.3593C14.0264 28.6818 15.7413 26.6723 17.6562 24.8685C18.1033 24.4454 18.4651 23.8579 19.2182 23.9166C19.6241 24.09 19.6859 24.4307 19.6712 24.8156C19.58 25.4825 18.9946 25.8879 18.7917 26.496C18.624 26.8192 18.3798 27.066 18.0563 27.2334C17.9298 27.304 17.768 27.3333 17.668 27.4273C14.197 30.7383 10.7024 34.0228 7.55204 37.6393C7.5491 38.03 7.94326 38.2121 8.04327 38.55C8.08152 39.0494 7.57263 39.4548 7.80501 39.9866C7.82854 40.1864 7.79324 40.3685 7.6344 40.5095Z" fill="#FCD282"/>
<path d="M7.6344 40.5095C7.6344 40.3009 7.6344 40.0894 7.6344 39.8808C7.9668 38.2033 9.39932 37.3572 10.4171 36.1938C12.3703 34.1814 14.6206 32.4834 16.5208 30.4122C16.812 30.0949 17.1385 29.7894 17.6121 29.7541C18.071 29.8158 18.3504 30.1213 18.5946 30.4739C18.571 31.5051 17.7239 31.9692 17.0767 32.4922C15.5854 33.6908 14.2823 35.0687 12.9821 36.4524C12.8586 36.6051 12.7203 36.7432 12.5674 36.8637C12.1997 37.1134 11.9026 37.4336 11.632 37.7832C11.4966 37.933 11.3378 38.0418 11.1495 38.1093C10.47 38.3062 10.1641 38.973 9.61406 39.3315C10.1406 39.0289 10.4171 38.3884 11.0672 38.2503C11.6408 38.3091 12.3085 38.0799 12.685 38.7615C12.1291 39.7868 10.8024 39.8426 10.1612 40.7622C10.0994 40.7857 10.0376 40.8092 9.97292 40.8327C9.164 40.959 8.28154 41.573 7.6344 40.5095Z" fill="#FCD180"/>
<path d="M20.8713 31.3817C21.1684 31.4845 21.4655 31.5873 21.7655 31.6901C21.895 32.1837 21.4537 32.3864 21.2096 32.6214C18.6769 35.0481 16.4119 37.7303 13.9322 40.2069C13.4734 40.5624 13.1557 41.0765 12.6409 41.3733L12.6438 41.3703C12.4438 41.576 12.3909 41.9256 12.0408 41.9814C11.5672 41.9638 11.4613 42.4632 11.1319 42.6306C10.4377 42.9861 10.017 42.7952 9.99646 41.9608C10.3053 41.623 10.4053 41.2117 10.4083 40.7681C10.4642 40.5712 10.5789 40.4302 10.773 40.3568C11.0907 40.2951 11.379 40.154 11.6702 40.0218C13.2645 38.976 14.2411 37.3572 15.4765 35.9764C16.7296 35.007 17.7092 33.7672 18.7946 32.6273C18.8828 32.5304 18.9829 32.4422 19.0887 32.3629C19.7359 32.1367 20.0183 31.2377 20.8713 31.3817Z" fill="#FCD180"/>
<path d="M3.55155 36.99C3.42506 37.134 3.3074 37.2838 3.17209 37.4189C2.80146 37.7891 2.39258 38.0535 1.94841 37.557C1.56013 37.1251 1.84251 36.7579 2.16314 36.4406C2.40141 36.2056 2.66614 36 2.91912 35.7826C2.98383 35.762 3.04854 35.7414 3.11032 35.7209C5.40766 33.1297 8.04033 30.8646 10.3465 28.2911C11.9761 26.4696 13.744 24.8332 15.6354 23.3056C15.9531 23.2644 16.1943 23.3555 16.309 23.6816C16.3296 24.3808 15.9325 24.9272 15.453 25.2974C14.4411 26.0818 13.7646 27.1629 12.8468 28.0178C10.3759 30.4915 7.93444 32.9975 5.41942 35.4271C4.83112 35.9941 4.22222 36.5229 3.55155 36.99Z" fill="#FCD58A"/>
<path d="M7.57263 25.2005C8.58746 25.2269 8.84631 24.0929 9.73466 23.7874C9.75525 24.8215 8.07269 24.9067 8.5198 26.0818C7.33731 27.5566 5.95184 28.8316 4.56049 30.0949C3.73392 30.8675 2.8897 31.6285 2.1602 32.4981C2.10725 32.5362 2.05136 32.5744 1.99547 32.6126C1.33069 32.5715 0.689431 33.8436 0.11289 32.8623C-0.322458 32.1191 0.607068 31.5344 1.10713 31.1202C3.36035 29.2517 5.18998 26.922 7.57263 25.2005Z" fill="#FCD588"/>
<path d="M3.55155 36.99C4.58109 35.5093 5.99596 34.39 7.24906 33.1209C9.01104 31.3317 10.8377 29.6072 12.638 27.8533C12.8615 27.9121 13.0027 28.0472 13.038 28.2823C12.5115 29.6072 11.279 30.3182 10.3818 31.3229C9.73466 32.0486 8.92574 32.642 8.34331 33.4029C7.91385 33.9611 8.62864 33.4499 8.6963 33.6291C8.92574 33.6732 9.05516 33.8142 9.11105 34.0316C7.71088 35.3742 6.69311 37.1516 4.72228 37.842C4.31046 37.5864 4.16633 36.9636 3.55155 36.99Z" fill="#F6C269"/>
<path d="M9.6876 27.8533C9.88762 27.5625 10.0876 27.2687 10.2877 26.9779C11.1584 26.1964 11.9232 25.3003 12.8497 24.5776C13.1115 24.372 13.3792 23.9959 13.7175 24.322C14.044 24.6364 13.7469 24.9772 13.4998 25.1946C11.2172 27.1982 9.34932 29.619 7.05198 31.6049C5.88124 32.6185 5.06056 34.058 3.48683 34.5839C2.81028 34.8101 3.98101 35.7297 3.00148 35.8178L2.91912 35.7826C2.95442 35.4329 2.81028 35.2802 2.44847 35.192C1.70132 35.007 1.42482 34.5281 2.03371 33.9347C2.56319 33.4176 2.06019 33.0504 1.99547 32.6156L2.06901 32.5421C2.41611 32.6391 2.58672 32.1837 2.93088 32.266C3.31917 32.2777 3.51625 32.4804 3.52801 32.8653C3.54861 32.9093 3.57802 32.9505 3.5839 32.9945C3.58979 33.0357 3.57214 33.0827 3.56625 33.1267C4.15456 32.8388 4.47813 32.2425 5.00173 31.8811C6.36366 31.0556 7.24612 29.7189 8.4345 28.7112C8.8169 28.3821 9.01398 27.7593 9.6876 27.8533Z" fill="#FBD589"/>
<path d="M37.3439 1.42748C37.6851 1.43042 38.0234 1.45099 38.3058 1.19539C39.4795 0.137772 39.9825 0.86048 40.3414 1.96217C40.4002 2.09143 40.409 2.22657 40.3678 2.36171C39.8148 3.15787 39.2236 3.90996 38.2705 4.27131C37.4322 4.30069 37.5175 3.68668 37.491 3.15493C37.4498 2.7642 37.994 2.44985 37.6351 2.02093C37.4734 1.86228 37.2469 1.73596 37.3351 1.45099L37.3439 1.42748Z" fill="#FCD07C"/>
<path d="M40.5179 1.99742C40.7091 1.78296 40.8855 1.55675 41.0914 1.35697C41.3591 1.09844 41.6062 0.75178 42.068 1.03675C42.5446 1.33053 42.524 1.69189 42.2887 2.1355C42.1828 2.33527 42.1681 2.58499 42.1122 2.80827L42.0298 2.92578C41.6562 3.01391 41.4944 2.68781 41.2474 2.52917C41.0061 2.34996 40.6826 2.28239 40.5179 1.99742Z" fill="#FBD490"/>
<path d="M10.5848 40.7681C11.0731 41.5025 10.5289 41.7287 9.99646 41.9608C9.98763 41.5877 9.98175 41.2146 9.97292 40.8415L10.0141 40.7093C10.22 40.5947 10.4112 40.6035 10.5848 40.7681Z" fill="#FDDDA3"/>
<path d="M40.5179 1.99742C40.8561 2.0268 41.2356 1.93279 41.465 2.30296C41.4415 2.36465 41.418 2.42929 41.3944 2.49098C41.0473 2.85527 40.7002 2.85821 40.3619 2.47923C40.3414 2.4146 40.3237 2.34996 40.3031 2.28827C40.3178 2.17957 40.3325 2.07087 40.3443 1.96511C40.4031 1.97098 40.462 1.98273 40.5179 1.99742Z" fill="#FCE9B9"/>
<path d="M12.0408 41.9814C12.1526 41.6905 12.3556 41.4908 12.6438 41.3703C12.635 41.7023 12.6262 42.0313 12.6174 42.3633C12.4232 42.237 12.232 42.1077 12.0408 41.9814Z" fill="#F5C169"/>
<path d="M37.3351 1.45392C37.5381 1.545 37.7381 1.63313 37.9411 1.7242C38.3411 2.31471 37.7204 2.52917 37.5116 2.89934C37.2174 3.42227 36.6527 3.79244 36.6262 4.46521C36.4262 5.10272 36.0144 5.52577 35.3643 5.71085C34.6554 5.77254 34.2788 6.32486 33.8259 6.75672C30.852 9.58879 28.0546 12.5971 25.0248 15.3822C23.707 16.5926 22.3421 17.7942 21.1243 19.1309C20.736 19.5569 20.3507 20.0299 19.7094 20.1151C19.3358 20.1063 19.0182 19.9711 18.774 19.6832C19.5123 18.5374 20.5125 17.6238 21.4714 16.6719C21.5596 16.5838 21.6508 16.4956 21.7391 16.4075C23.8217 14.7241 25.5425 12.6706 27.4868 10.8491C27.9781 10.3879 28.3664 9.80619 29.0076 9.51535C31.7668 6.90067 34.4995 4.2625 37.0439 1.43923C37.141 1.4363 37.238 1.44217 37.3351 1.45392Z" fill="#FBCD76"/>
<path d="M3.00148 35.8178C2.54848 34.3959 3.79569 34.249 4.53696 33.6144C6.07833 32.2895 7.46968 30.7941 8.92279 29.3693C10.523 27.7975 12.1202 26.2258 13.6322 24.5571C12.2026 24.9449 11.7231 26.6194 10.2877 26.9779C11.2378 25.1887 12.888 24.1223 14.497 23.05C14.8382 22.8208 14.9324 22.433 15.2853 22.2802C15.5148 22.3243 15.6677 22.4595 15.7589 22.671C15.8442 22.9648 15.8089 23.235 15.5795 23.4583C12.1232 26.9602 8.66394 30.4563 5.21352 33.964C4.70169 34.484 4.11926 34.9365 3.75451 35.5975C3.61038 35.856 3.41035 36.2732 3.00148 35.8178Z" fill="#F7C26A"/>
<path d="M4.40753 29.9186C5.77829 28.6407 7.14905 27.3627 8.5198 26.0818C9.56405 25.0976 10.6054 24.1076 11.6555 23.1293C12.032 22.7767 12.3232 22.2861 12.9321 22.2744L12.938 22.2802C10.4553 25.1946 7.42849 27.5478 4.70169 30.2124C4.42224 30.2976 4.334 30.1889 4.40753 29.9186Z" fill="#F3BB61"/>
<path d="M37.041 1.43923C36.9586 1.65957 36.938 1.9416 36.785 2.09437C34.2377 4.62091 31.6726 7.13276 29.1106 9.64755C29.0076 9.57998 28.9753 9.51241 29.0076 9.44484C29.04 9.37433 29.0723 9.34202 29.1076 9.34202C31.6462 6.60101 34.273 3.94815 37.041 1.43923Z" fill="#F4BC62"/>
<path d="M12.9321 22.2773C14.9735 19.7243 17.6709 17.8706 19.9006 15.5174C20.0242 15.6407 20.1477 15.7671 20.2712 15.8905C19.0182 17.0656 17.8533 18.3582 16.4884 19.3777C15.2559 20.2972 14.5911 21.8983 12.938 22.2861C12.9409 22.2832 12.9321 22.2773 12.9321 22.2773Z" fill="#F3BB61"/>
<path d="M29.1076 9.33908C29.1106 9.4419 29.1106 9.54473 29.1135 9.64755C27.125 11.5836 25.1424 13.5284 23.1451 15.4557C22.7363 15.8493 22.4215 16.4075 21.7361 16.4075C23.9717 14.1395 26.2073 11.8686 28.4546 9.61524C28.6076 9.45953 28.887 9.42721 29.1076 9.33908Z" fill="#F2B95D"/>
<path d="M15.5795 22.5711C15.4824 22.4741 15.3854 22.3772 15.2883 22.2773C17.0208 20.5998 18.7534 18.9223 20.483 17.2419C20.7654 16.9686 21.0449 16.6984 21.4685 16.6719C20.836 17.8794 19.8712 18.793 18.8299 19.6391C17.9974 20.8965 17.112 22.0922 15.5795 22.5711Z" fill="#F2B95D"/>
<path d="M28.8194 7.30022C30.7431 4.92351 33.1964 3.12261 35.4819 1.14251C33.5817 3.42815 31.2961 5.30837 29.1164 7.30316C29.0194 7.42361 28.9194 7.42361 28.8194 7.30022Z" fill="#F5C16B"/>
<path d="M28.8194 7.30022C28.9194 7.30022 29.0194 7.30022 29.1164 7.30022C27.6692 8.98948 26.0925 10.5465 24.407 11.9949C24.3276 11.9273 24.3012 11.8597 24.3247 11.7892C24.3482 11.7187 24.3747 11.6835 24.3982 11.6835C25.6807 10.0295 27.2192 8.634 28.8194 7.30022Z" fill="#F5BB62"/>
<path d="M9.6876 27.8533C8.54922 28.9462 7.41673 30.042 6.27247 31.129C5.89889 31.4845 5.59297 31.9575 4.99878 31.9898C4.9076 31.9222 4.87818 31.8547 4.90465 31.7871C4.93407 31.7166 4.96349 31.6843 4.9929 31.6843C6.31659 30.4092 7.63146 29.1254 8.9728 27.871C9.13753 27.7241 9.44051 26.9132 9.6876 27.8533Z" fill="#F2BB60"/>
<path d="M24.3982 11.6835C24.4012 11.7863 24.4041 11.8921 24.407 11.9949C23.2569 13.0731 22.1038 14.1513 20.9537 15.2265C20.8713 15.1384 20.7919 15.0502 20.7095 14.9621C21.9656 13.8986 22.8127 12.4121 24.3982 11.6835Z" fill="#F3B95F"/>
<path d="M4.40753 29.9186C4.50755 30.0185 4.60462 30.1155 4.70463 30.2153C4.11338 30.8969 3.52213 31.5814 2.93382 32.263C2.66614 32.4158 2.51318 32.9211 2.07195 32.5392C2.33963 31.2113 3.60744 30.7735 4.40753 29.9186Z" fill="#F6C46F"/>
<path d="M4.99584 31.6843C4.99878 31.7871 4.99878 31.887 5.00173 31.9898C4.40753 32.6332 3.8104 33.2736 3.14856 33.9905C2.92794 33.35 3.47507 33.2149 3.52801 32.8623C4.01631 32.4687 4.50461 32.0779 4.99584 31.6843Z" fill="#F2BA62"/>
<path d="M26.172 31.6813C29.8783 27.9297 33.5846 24.1781 37.291 20.4235C39.9619 17.7178 42.6269 15.0062 45.292 12.2945C46.2921 11.3721 47.2952 10.4466 48.3276 9.49478C48.5482 10.0471 48.0835 10.2292 47.8482 10.4643C40.7885 17.5327 33.717 24.5865 26.6456 31.6431C26.5102 31.7783 26.3338 31.8723 26.1749 31.9869C26.0837 31.9193 26.0543 31.8517 26.0837 31.7842C26.1102 31.7136 26.1396 31.6813 26.172 31.6813Z" fill="#F4BD60"/>
<path d="M26.172 31.6813C26.172 31.7842 26.172 31.884 26.172 31.9869C24.3335 34.39 22.1126 36.4348 19.9977 38.5794C19.7506 38.8291 19.4859 39.0318 19.1123 39.0259C21.3184 36.4348 23.5775 33.8965 26.172 31.6813Z" fill="#F7C36A"/>
<path d="M44.986 6.70971C43.4506 7.77321 42.4651 9.4419 40.8032 10.3791C42.1975 8.93366 43.58 7.47649 45.0066 6.06339C45.1802 5.893 45.2537 6.23085 45.2743 6.41005C45.1802 6.51288 45.0831 6.61277 44.986 6.70971Z" fill="#F4BB5A"/>
<path d="M14.7264 43.4062C16.106 41.8609 17.4444 40.2774 19.1152 39.023C17.9239 40.7563 16.6443 42.3986 14.7264 43.4062Z" fill="#F7C36A"/>
<path d="M44.1065 10.2263C43.1182 11.0048 42.2504 11.9067 41.4503 12.8704C41.3503 12.9614 41.2356 13.0084 41.1003 13.0055C40.9091 12.9262 40.7444 12.8351 40.8767 12.5854C41.8974 11.1253 43.4564 10.2527 44.7213 9.05705C44.7272 9.55648 44.2801 9.82088 44.1065 10.2263Z" fill="#F0B655"/>
<path d="M45.289 10.8256C45.1949 10.7287 45.1008 10.6317 45.0096 10.5348C45.9332 9.6975 46.8569 8.86021 47.7805 8.02293C47.8629 8.12869 47.9482 8.23151 48.0305 8.33728C47.1157 9.16575 46.2009 9.99715 45.289 10.8256Z" fill="#F7C168"/>
<path d="M44.9978 8.78677C44.6801 8.58993 44.9566 8.3931 44.9978 8.19626C45.6185 7.71739 46.3068 7.29728 46.4774 6.43943C46.5598 6.33367 46.651 6.3278 46.7539 6.40712C46.8686 7.71445 45.6861 8.06993 44.9978 8.78677Z" fill="#F6BE63"/>
<path d="M46.7539 6.40712C46.6627 6.41887 46.5686 6.43062 46.4774 6.43943C46.3156 6.3278 46.1921 6.1809 46.3186 5.99288C46.4333 5.81955 46.6716 5.77842 46.7922 5.92237C46.8657 6.01051 46.7716 6.23966 46.7539 6.40712Z" fill="#FDE1A7"/>
<path d="M43.2299 6.12508C42.4387 8.07581 40.1502 8.53117 39.1118 10.2351C38.8206 10.7257 39.603 10.9461 39.4089 11.4132C39.756 11.9097 39.5766 12.2652 39.1942 12.6794C38.0499 13.925 36.9556 15.2177 35.7526 16.431C36.0732 14.8622 37.8881 14.2658 38.3705 12.4356C36.6821 13.7635 35.6996 15.3822 34.4083 16.7013C34.3406 16.713 34.273 16.7219 34.2053 16.7336C33.6464 16.1637 34.1877 15.7494 34.4377 15.3293C35.0525 14.2923 36.0055 13.5461 36.8439 12.697C36.1203 13.2787 35.3819 13.831 34.6642 14.4068C34.2377 14.7476 33.7964 15.0737 33.2199 14.6918C33.0875 14.3452 33.3228 14.1454 33.5346 13.9515C36.0908 11.6453 38.7088 9.40665 41.1797 7.00644C42.1975 7.49999 42.3475 5.96644 43.2299 6.12508Z" fill="#F8C366"/>
<path d="M13.7969 40.1922C16.2443 37.1633 19.1623 34.5751 21.7626 31.6901C24.6571 28.8434 27.5515 25.9937 30.4519 23.1499C30.8696 22.7415 31.3226 22.3713 31.7579 21.9806C31.8462 22.0599 31.8962 22.1569 31.908 22.2744C31.8933 22.3919 31.8403 22.4888 31.7521 22.5652C28.1516 26.12 24.6012 29.7306 20.9272 33.2149C18.5622 35.4594 16.6561 38.1387 14.1087 40.1981C14.0058 40.3274 13.8999 40.3186 13.7969 40.1922Z" fill="#F3BB5C"/>
<path d="M41.1738 7.01231C38.9618 10.006 35.932 12.1535 33.2317 14.6419C33.3023 14.7241 33.3287 14.8064 33.314 14.8945C33.2964 14.9827 33.2787 15.0267 33.2581 15.0267C32.9846 15.2941 32.661 15.4322 32.2727 15.3969C32.1286 15.3587 32.0168 15.2735 31.9403 15.1472C31.8138 14.445 32.3727 14.1072 32.7522 13.7018C33.9994 12.3709 35.6525 11.4249 36.4879 9.69749C36.6233 9.41546 36.9498 9.18925 37.3498 9.35377C39.0618 9.04823 40.0796 7.83491 40.9591 6.50113C41.3827 5.85774 41.7857 5.24667 42.6034 4.7208C42.3122 5.75785 41.5974 6.29548 41.1738 7.01231Z" fill="#FDD688"/>
<path d="M41.465 2.3059C41.6533 2.51448 41.8415 2.72013 42.0298 2.92872C41.4297 4.47696 40.0707 5.44057 39.1118 6.71265L39.1147 6.70971C38.5147 6.72734 38.194 7.11807 37.9322 7.59106C37.8999 7.65276 37.8675 7.71445 37.8381 7.77615C36.4644 9.07173 35.1584 10.4349 33.8053 11.754C33.3993 12.1506 33.0522 12.6618 32.3904 12.6823C32.1786 12.6089 32.0345 12.4649 31.958 12.2534C31.9727 11.5865 32.4816 11.2222 32.8963 10.8315C33.9259 9.85908 34.8848 8.81614 35.9643 7.89954C37.8999 6.13977 39.9825 4.52103 41.4739 2.32059L41.465 2.3059Z" fill="#F7BF63"/>
<path d="M31.7638 22.2861C31.7609 22.1833 31.7609 22.0834 31.7579 21.9806C34.5083 18.5698 37.6793 15.5644 40.8738 12.5854C40.9708 12.6823 41.0709 12.7822 41.1679 12.8792C41.3591 13.4785 40.8855 13.7752 40.5649 14.1072C38.0823 16.669 35.2996 18.9311 32.9875 21.6662C32.6934 22.0158 32.361 22.4565 31.7638 22.2861Z" fill="#F7C163"/>
<path d="M37.3469 9.35377C35.9585 11.6541 33.5052 12.9937 32.0462 15.2294C31.9639 15.6613 31.6815 15.8963 31.2726 15.9933C31.0226 16.052 30.7725 16.005 30.6225 15.7935C30.5049 15.626 30.5843 15.4204 30.6755 15.2471C30.7431 15.1178 30.8137 14.9856 30.9226 14.8887C33.4229 12.6118 35.2966 9.73275 37.9411 7.59107H37.9381C38.5558 8.45185 37.1057 8.62225 37.3469 9.35377Z" fill="#F9C46B"/>
<path d="M30.5784 21.3989C28.6811 24.2045 25.8366 26.0671 23.5275 28.4644C23.4305 28.3586 23.3775 28.2323 23.3657 28.0884C23.4658 27.4538 23.9629 27.0954 24.3717 26.6841C25.8896 25.1535 27.4104 23.6258 28.9488 22.1187C29.3547 21.7191 29.7077 21.1844 30.4078 21.2784C30.4666 21.3166 30.5225 21.3578 30.5784 21.3989Z" fill="#F6BC5C"/>
<path d="M34.4053 17.2859C34.7907 18.0909 33.9818 18.1555 33.6876 18.5756C32.8522 19.7743 31.6903 20.544 30.5784 21.3989L30.5813 21.4018C30.3313 21.1462 30.3784 20.8348 30.5696 20.6233C31.6844 19.3924 32.6934 18.038 34.1994 17.2213C34.27 17.2419 34.3377 17.2624 34.4053 17.2859Z" fill="#F8C162"/>
<path d="M23.5246 28.1559C23.5246 28.2587 23.5275 28.3616 23.5275 28.4644C22.6421 29.4368 21.7567 30.4092 20.8713 31.3817C20.1977 31.649 19.9506 32.5421 19.1123 32.5627C18.9446 32.1044 19.2564 31.8223 19.5153 31.5491C20.4889 30.5268 21.489 29.5279 22.5127 28.5555C22.7833 28.2969 23.0657 27.9738 23.5246 28.1559Z" fill="#F5BF63"/>
<path d="M39.406 11.4132C39.2 11.0489 37.8911 10.9578 39.1089 10.2351C39.2412 10.3673 39.3971 10.4848 39.4971 10.6376C39.6677 10.8932 40.1619 10.5142 40.1531 10.9196C40.1443 11.3104 39.7531 11.3897 39.406 11.4132Z" fill="#FCDA94"/>
<path d="M43.2299 6.12508C43.3388 5.39944 43.8006 5.00871 44.7448 4.58566C44.2477 5.42588 43.7388 5.77548 43.2299 6.12508Z" fill="#F8C366"/>
<path d="M34.4053 16.7013C34.6201 16.904 35.1819 16.8306 35.0319 17.2977C34.9348 17.6003 34.6201 17.3447 34.4024 17.2859L34.4053 17.2889C34.2259 17.092 34.2259 16.8952 34.4053 16.7013Z" fill="#F8C162"/>
<path d="M39.1118 6.71265C39.3471 6.74497 39.6707 6.73909 39.4148 7.10926C39.3265 7.23853 39 7.3766 38.9824 7.3531C38.7941 7.10632 39.0765 6.93005 39.1147 6.70971L39.1118 6.71265Z" fill="#F7BF63"/>
<path d="M13.2586 42.5308C13.741 41.5672 14.7794 41.1882 15.4648 40.4449C20.4566 35.0334 25.766 29.9333 30.9314 24.6922C31.3697 24.2486 31.6874 23.6845 32.0609 23.1763C32.1992 22.7444 32.4698 22.4066 32.7845 22.0922C35.5143 19.363 38.247 16.6367 40.9767 13.9104C41.2915 13.596 41.6239 13.3169 42.0533 13.173C42.3357 12.9967 42.6211 12.8175 42.9034 12.6412C41.6533 14.398 40.1796 15.9668 38.697 17.4857C32.5581 23.7639 26.2632 29.8863 20.1212 36.1615C18.2122 38.1093 16.3825 40.1394 14.4411 42.0607C14.1293 42.3692 13.8822 42.9568 13.2586 42.5308Z" fill="#F5BE62"/>
<path d="M42.0563 13.1759C38.8559 16.6396 35.4937 19.9447 32.0609 23.1792C31.958 22.9765 31.855 22.7709 31.7521 22.5682C31.7579 22.4741 31.7609 22.3831 31.7638 22.2891C33.114 21.2226 34.1582 19.8653 35.326 18.6226C36.8645 16.9892 38.5794 15.5262 40.206 13.975C40.5561 13.6401 40.8502 13.2464 41.1709 12.8792C41.265 12.8762 41.3591 12.8733 41.4533 12.8704C41.6533 12.9732 41.8533 13.0731 42.0563 13.1759Z" fill="#FDD687"/>
<path d="M13.7969 40.1922C13.9028 40.1952 14.0087 40.1952 14.1117 40.1981C13.741 40.7416 13.3851 41.2998 12.638 41.3733C12.9939 40.9502 13.1233 40.3039 13.7969 40.1922Z" fill="#F5C169"/>
<path d="M37.9352 7.59107C35.4731 10.2146 33.4052 13.1818 30.6196 15.5996C31.3873 16.0168 31.6168 15.347 32.0433 15.2324C32.1462 15.2324 32.2462 15.2353 32.3492 15.2353C32.3992 16.5368 31.2285 16.525 30.4843 16.9716C28.437 18.9899 26.2455 20.8554 24.2835 22.9677C22.2274 25.1828 20.0242 27.2628 17.7533 29.2635C17.4974 29.4897 17.2326 29.7159 16.8561 29.7042C16.4031 29.4221 16.6384 28.9932 16.6179 28.6142C16.8267 27.8798 17.4886 27.5096 17.9445 26.972C18.1357 26.7781 18.3269 26.5842 18.521 26.3903C19.8212 25.0477 21.2184 23.7932 22.3156 22.2626C22.4039 22.1569 22.498 22.0599 22.5951 21.963C25.4101 19.2043 28.1722 16.3899 30.9755 13.6195C31.3844 13.217 31.7197 12.7029 32.3492 12.5854C33.7788 11.2017 35.2025 9.81501 36.638 8.4401C37.0174 8.08462 37.3145 7.59107 37.9352 7.59107Z" fill="#FCD07C"/>
<path d="M19.4123 24.9361C19.3947 24.607 19.4594 24.2545 19.1064 24.04C18.9534 23.2497 19.6212 22.9295 20.0389 22.5065C22.7833 19.7214 25.569 16.9804 28.2546 14.1366C28.3399 14.0279 28.437 13.9309 28.5428 13.8398C29.39 13.3992 29.793 12.3298 30.8578 12.1917C31.2167 12.318 31.4609 12.5589 31.5726 12.9262C31.4491 13.5549 30.8961 13.8545 30.5049 14.2658C27.9163 16.9686 25.116 19.4658 22.6421 22.2832L22.6509 22.2744C21.8185 22.7973 21.3626 23.6992 20.6095 24.2985C20.2477 24.5865 20.0153 25.1123 19.4123 24.9361Z" fill="#FDD27B"/>
<path d="M28.5252 14.0514C28.4958 14.78 27.8898 15.1149 27.4604 15.5526C24.6865 18.3906 21.892 21.2109 19.1064 24.04C17.2238 25.8762 15.3471 27.7211 13.4528 29.5485C13.0439 29.9421 12.7409 30.5121 12.0496 30.5033C12.0291 30.4416 12.0055 30.3769 11.9849 30.3152C12.4644 29.1783 13.5381 28.532 14.2529 27.5919C16.259 25.979 17.668 23.7962 19.5565 22.0687C22.198 19.7096 24.4571 16.9569 27.178 14.6801C27.578 14.3422 27.8751 13.8281 28.5252 14.0514Z" fill="#F6BC5C"/>
<path d="M17.9474 26.9749C17.9092 27.8063 17.0326 28.0707 16.7502 28.7347C15.2265 30.9175 13.2174 32.6332 11.2554 34.3871C10.7112 34.8718 9.99646 35.2714 10.5201 36.185C10.5406 36.2497 10.5612 36.3114 10.5818 36.376C9.68465 37.6158 8.36096 38.5001 7.6344 39.8808C7.34025 39.8309 7.02256 39.7898 7.29907 39.3697C7.50792 39.0553 7.72559 38.7468 7.93738 38.4354C7.8962 37.7862 8.53451 37.5511 8.78454 37.0634C8.14623 37.2221 7.8256 38.0329 7.05198 37.8567C7.03433 37.3514 7.3932 37.0693 7.70206 36.7579C10.7495 33.7114 13.7969 30.6678 16.8444 27.6212C17.1562 27.3128 17.4474 26.969 17.9474 26.9749Z" fill="#F5BE61"/>
<path d="M19.4123 24.9361C20.6448 24.2398 21.1861 22.7004 22.6451 22.2773C21.5302 23.9078 20.3095 25.4326 18.521 26.3962C18.5034 25.7146 19.1976 25.4707 19.4123 24.9361Z" fill="#F2B85A"/>
<path d="M7.05492 37.8596C7.77559 37.319 8.49921 36.7814 9.32579 36.1615C9.43756 37.3925 8.51686 37.8097 7.94032 38.4384C7.51968 38.4354 7.22259 38.2415 7.05492 37.8596Z" fill="#FAD386"/>
<path d="M9.11105 34.0287C9.01104 33.9258 8.91103 33.826 8.80807 33.7231C9.1993 32.3688 11.0584 30.5268 12.0526 30.5062L12.0467 30.5003C11.3349 31.8958 10.1818 32.9299 9.11105 34.0287Z" fill="#F6BC5C"/>
<path d="M34.4083 16.7013C34.4083 16.8981 34.4083 17.092 34.4083 17.2889C33.0346 18.5698 31.4579 19.6597 30.5843 21.4048C30.2136 21.3989 29.9489 21.5957 29.7048 21.8455C27.6457 23.9519 25.5837 26.0554 23.5246 28.1589C21.9362 29.5103 20.4536 30.9704 19.1093 32.5656L19.1152 32.5627C19.0093 32.6596 18.8828 32.6978 18.7387 32.6714C18.3357 32.5274 17.968 32.3423 17.8298 31.8929C18.1798 31.0556 18.9387 30.5679 19.5417 29.9509C22.0803 27.3539 24.7041 24.842 27.2133 22.2156C28.5576 21.8895 29.1606 20.7643 29.8636 19.7478C30.6078 18.7313 31.6226 17.9704 32.3551 17.1243C30.9314 18.5551 29.3665 20.0328 28.1163 21.7984C27.9457 22.0864 27.7898 22.3978 27.3604 22.2891C26.8426 22.0834 26.8515 22.6152 26.6456 22.8238C24.1982 25.2886 21.7302 27.7358 19.2682 30.186C19.074 30.3799 18.8946 30.6648 18.5357 30.5091C18.0739 30.5591 17.9474 30.0978 17.6386 29.9186C17.4562 29.3751 17.8768 29.1225 18.1857 28.8375C21.7273 25.5853 24.8777 21.9336 28.5105 18.7783C29.2459 18.1379 29.7548 17.2771 30.5254 16.669C30.7872 16.4281 30.9137 17.1743 31.3197 16.7101C31.8903 16.0638 32.4992 15.4204 33.2317 14.9268C33.2317 14.8328 33.2317 14.7388 33.2317 14.6448C34.5759 14.5449 35.2407 13.4021 36.182 12.697C36.6144 12.3739 36.9409 11.9714 37.6204 12.2916C36.9704 13.4139 35.729 13.972 35.0789 15.0326C34.7671 15.535 33.9612 15.8816 34.4083 16.7013Z" fill="#FCD07C"/>
<path d="M30.5902 16.7013C28.2928 19.883 24.9895 22.0687 22.4097 24.9801C20.8919 26.6899 19.2329 28.2734 17.6356 29.9157C15.2824 32.0691 12.9321 34.2255 10.5789 36.3789L10.5818 36.3819C10.2141 35.903 10.5406 35.5417 10.8289 35.2361C12.5968 33.3735 14.4617 31.602 16.2266 29.7365C16.3649 29.5896 16.5531 29.5426 16.7561 29.6248C19.5653 27.1806 22.1862 24.5512 24.7836 21.8778C26.5279 20.0857 28.3281 18.2907 30.2813 16.6895C30.3901 16.5838 30.4931 16.5867 30.5902 16.7013Z" fill="#F4BD60"/>
<path d="M17.9357 31.9751C18.2269 32.169 18.521 32.3629 18.8122 32.5568C18.2033 33.9082 16.8885 34.5839 15.9178 35.5857C14.7441 35.5005 14.1852 36.0146 13.6881 37.6422C13.6587 37.7715 13.5998 37.889 13.5175 37.9918C13.2851 38.2121 13.0527 38.4325 12.8086 38.644C12.7497 38.6734 12.6938 38.6998 12.635 38.7263C12.1791 38.4413 11.5908 38.832 11.1584 38.4354C10.9878 38.2356 10.9995 38.0388 11.1731 37.8479C11.2701 37.748 11.3702 37.6481 11.4672 37.5453C11.8555 37.3425 12.1291 37.0282 12.3615 36.6698C12.4526 36.5787 12.5438 36.4906 12.635 36.3995C14.1852 35.1304 15.4707 33.5704 17.0914 32.3805C17.3503 32.1954 17.5003 31.7842 17.9357 31.9751Z" fill="#FDD68B"/>
<path d="M17.9357 31.9751C16.6002 33.162 15.2647 34.3459 13.9293 35.5299C13.5381 35.8766 13.241 36.3642 12.635 36.3995C13.9881 34.6985 15.5942 33.2619 17.2679 31.884C17.7445 31.4933 18.1122 30.9704 18.5299 30.5062C21.3449 27.965 23.957 25.2151 26.6132 22.5123C26.8191 22.3008 26.9132 21.7867 27.3427 22.2773C24.6247 25.0418 21.9038 27.8034 19.1917 30.5738C18.7564 31.0233 18.3563 31.508 17.9357 31.9751Z" fill="#F5BE61"/>
<path d="M10.5848 40.7681C10.3936 40.7475 10.2053 40.7299 10.0141 40.7093C10.5142 39.5547 11.732 39.3491 12.635 38.7263L12.638 38.7233C12.8703 38.3708 13.1586 38.0711 13.5204 37.8449C14.0146 37.0811 14.2205 36.0235 15.4177 35.9647C15.4736 36.0058 15.5265 36.044 15.5824 36.0851C14.6529 37.7803 13.5116 39.2786 11.7408 40.1893C11.3231 39.919 11.1966 40.5448 10.8466 40.4772C10.7583 40.5742 10.6701 40.6711 10.5848 40.7681Z" fill="#F3BD63"/>
<path d="M11.1731 37.8479C11.1672 38.0447 11.1642 38.2386 11.1584 38.4354C10.5877 38.9525 10.02 39.4754 9.44051 39.9807C9.24048 40.157 9.00516 40.1922 8.79925 39.9719C8.63747 39.7986 8.65512 39.5724 8.85514 39.4901C9.76113 39.1229 10.1141 37.9889 11.1731 37.8479Z" fill="#F5BE61"/>
<path d="M12.3644 36.6698C12.3085 37.2074 12.0379 37.5276 11.4702 37.5453C11.6672 37.1516 11.9555 36.849 12.3644 36.6698Z" fill="#F5BE61"/>
<path d="M15.8678 35.4888C16.6002 34.2608 18.021 33.7231 18.8152 32.5539C18.9152 32.5568 19.0152 32.5568 19.1152 32.5597C18.1622 33.9582 17.1326 35.2831 15.5824 36.0851L15.5854 36.0881C15.4118 35.762 15.6442 35.6268 15.8678 35.4888Z" fill="#F5BF63"/>
<path d="M10.8436 40.4772C11.3937 39.7134 11.476 39.6869 11.7378 40.1893C11.4408 40.2833 11.3702 41.0795 10.8436 40.4772Z" fill="#FCE0A6"/>
<path d="M19.7124 19.9359C24.6071 15.5027 29.2606 10.8227 33.9494 6.17503C34.2671 5.86068 34.4642 4.96464 35.2731 5.5287C35.2466 5.89887 35.0054 6.14859 34.7642 6.38655C30.0224 11.0812 25.3925 15.8846 20.5595 20.4882C18.3122 22.7033 16.2825 25.127 14.0587 27.3656C13.7057 27.6624 13.4263 28.0707 12.9233 28.15C12.8262 28.0502 12.7291 27.9532 12.635 27.8533C13.5822 26.2845 15.2677 25.3532 16.1737 23.7492C16.9238 22.0805 18.4857 21.1639 19.7124 19.9359Z" fill="#F4BB5D"/>
<path d="M19.7124 19.9359C18.8858 21.534 17.3503 22.4771 16.1737 23.7521C16.0472 23.5141 15.8266 23.4613 15.5824 23.4554C15.5824 23.1616 15.5795 22.8678 15.5795 22.5711C16.662 21.5928 17.7445 20.6174 18.8299 19.6391C19.124 19.739 19.4182 19.836 19.7124 19.9359Z" fill="#FCD180"/>
<path d="M12.9262 28.15C13.138 27.7711 13.4175 27.4597 13.8175 27.2716C14.294 27.1835 14.4823 27.3833 14.3999 27.8533C13.6175 28.7376 12.838 29.6219 12.0555 30.5091C10.7554 31.3611 9.85232 32.6156 8.81102 33.7261C8.65217 33.8377 8.49333 33.9435 8.34037 34.058C8.0521 34.2725 7.71382 34.4723 7.46673 34.0933C7.21082 33.6996 7.62558 33.541 7.8609 33.306C9.57876 31.6196 11.3878 30.0156 12.9262 28.15Z" fill="#FCD68B"/>
<path d="M7.45497 35.1333C6.71664 35.8002 6.11068 36.3437 5.50767 36.8872C5.23999 37.1281 4.96054 37.3543 4.63403 36.99C4.30752 36.6257 4.61344 36.3819 4.82817 36.1145C5.41942 35.3742 6.1048 34.8454 7.45497 35.1333Z" fill="#FBD183"/>
<path d="M20.2918 20.2326C24.3335 16.243 28.3693 12.2505 32.4169 8.26383C33.3552 7.33841 34.323 6.43943 35.276 5.5287C35.7967 5.2643 36.182 4.86475 36.4615 4.35357C36.5409 3.64849 36.9145 3.23719 37.641 3.18725C38.1381 3.28126 37.4881 4.14498 38.2352 4.0686C38.4146 4.57391 38.0205 4.83244 37.7705 5.15266C37.141 5.85187 35.9996 5.72554 35.4584 6.58339C35.2937 6.84485 34.6612 7.01231 35.4996 7.31197C35.8673 7.44417 35.4966 7.90835 35.2672 8.14044C34.8907 8.51942 34.3642 8.71626 34.0259 9.14812C33.5641 9.60936 33.1817 10.1675 32.5169 10.3791C32.0815 10.3791 31.9139 10.6494 31.858 11.0371C30.8049 12.1124 29.6195 13.0378 28.5223 14.0602L28.5281 14.0543C26.9132 15.2353 25.4925 16.6308 24.1011 18.0586C22.6833 19.5157 21.3155 21.0258 19.7035 22.2861C19.2682 21.4195 20.3654 20.9935 20.2918 20.2326Z" fill="#FDD684"/>
<path d="M37.6381 4.94995C37.8352 4.65617 38.0352 4.36238 38.2323 4.0686C38.9206 3.47516 39.6119 2.88171 40.3002 2.28827V2.29414C40.4884 3.49866 39.0765 5.32305 37.9205 5.3495C37.691 5.35831 37.6087 5.17029 37.6381 4.94995Z" fill="#F5BE62"/>
<path d="M37.641 3.18725C37.1439 3.47222 36.7615 3.87176 36.4615 4.35357C35.9173 3.81594 36.5644 3.62205 36.7762 3.32826C37.1616 2.79064 37.8852 2.49979 37.9411 1.72127C39.0765 2.46454 37.5793 2.66725 37.641 3.18725Z" fill="#F3BB5F"/>
<path d="M37.6381 4.94995C38.6588 4.97639 40.0237 3.61617 40.3002 2.29708C40.6855 2.60556 41.0767 2.58499 41.4739 2.31765C41.4768 3.53097 40.512 4.25662 39.8001 4.88826C38.5794 5.97232 37.4881 7.20327 36.1673 8.17276C35.4966 8.01705 35.3378 8.66631 34.9672 8.9601C34.6024 9.24801 34.3436 9.721 33.77 9.39784C33.6876 9.26857 33.7052 9.15399 33.82 9.05411C33.9112 8.10812 35.1937 8.34021 35.376 7.47061C35.0348 7.17683 34.6495 7.85253 34.3171 7.43536C35.0113 6.05751 36.3173 5.49345 37.6381 4.94995Z" fill="#FCD07C"/>
<path d="M30.5902 16.7013C30.4872 16.6984 30.3843 16.6954 30.2842 16.6925C31.0755 16.3517 31.9403 16.1137 32.3521 15.2324C32.6463 15.1296 32.9404 15.0267 33.2317 14.9239C32.6492 15.5585 32.0403 16.1695 31.4932 16.8306C31.0726 17.3359 30.8667 16.9069 30.5902 16.7013Z" fill="#F8C366"/>
<path d="M22.6392 22.2832C22.9157 21.3695 23.5746 20.7614 24.2511 20.1239C26.7338 17.7883 29.1988 15.4322 31.4609 12.8762C31.5344 12.5531 31.7315 12.3562 32.0609 12.2945C32.158 12.3944 32.2551 12.4914 32.3521 12.5913C29.2223 15.9316 26.0131 19.1896 22.6392 22.2832Z" fill="#F2B85A"/>
<path d="M32.058 12.2945C31.858 12.4884 31.6579 12.6823 31.4579 12.8762C31.2638 12.6853 31.0726 12.4943 30.8784 12.3034C31.605 11.0665 32.7551 10.2557 33.8229 9.35964C34.5024 9.34202 34.7819 8.74857 35.229 8.3931C35.4996 8.18157 35.7173 7.66745 36.1644 8.1757C34.7671 9.51829 33.2728 10.7669 32.058 12.2945Z" fill="#FDD785"/>
<path d="M16.7591 29.6248C14.9559 31.4786 13.1498 33.3295 11.3496 35.1832C11.0142 35.527 10.5818 35.8149 10.5848 36.3789C9.59052 36.0293 9.47874 35.4183 10.273 34.8043C12.6262 32.9828 14.4647 30.6237 16.7502 28.7347C17.1062 29.0285 16.659 29.3311 16.7591 29.6248Z" fill="#FCD180"/>
<path d="M33.8259 9.35671C32.964 10.4555 31.9639 11.422 30.8814 12.3004C29.9577 12.7029 29.6253 13.8957 28.5193 14.0543C29.3753 12.7528 30.646 11.8656 31.7609 10.8227C31.8256 10.4966 32.0227 10.2998 32.3463 10.2322C32.8375 9.83851 33.3287 9.44778 33.82 9.05411C33.82 9.15693 33.8229 9.25682 33.8259 9.35671Z" fill="#F6BC5C"/>
<path d="M20.2918 20.2326C20.7948 21.1169 19.6947 21.5429 19.7006 22.2832C17.9268 24.134 16.462 26.2757 14.3999 27.8533C14.294 27.5713 14.094 27.3833 13.8175 27.2716C15.9737 24.9243 18.1327 22.5799 20.2918 20.2326Z" fill="#FCD07B"/>
<path d="M27.9369 21.6956C27.7957 21.5957 27.7575 21.4518 27.8751 21.3313C29.6106 19.5745 31.355 17.8236 33.0934 16.0697C33.1846 16.1549 33.2728 16.2401 33.364 16.3282C32.2374 17.5268 31.1108 18.7225 29.9842 19.9212C29.443 20.6733 28.9458 21.4782 27.9369 21.6956Z" fill="#F5BD5E"/>
<path d="M27.9369 21.6956C28.6193 21.1022 29.3018 20.5117 29.9871 19.9182C29.7871 20.92 28.2369 22.3038 27.3486 22.2773C27.5427 22.0834 27.7398 21.8895 27.9369 21.6956Z" fill="#FEDA8A"/>
<path d="M15.8678 35.4888C15.7736 35.6885 15.6795 35.8883 15.5854 36.0851C14.4382 36.1322 14.447 37.5335 13.5204 37.842C13.1204 36.5993 14.0322 36.0029 14.7765 35.336C15.1736 34.9776 15.553 35.0863 15.8678 35.4888Z" fill="#FCD180"/>
<path d="M13.5204 37.8449C13.3322 38.2445 13.038 38.5353 12.638 38.7233C12.6703 38.1681 12.9645 37.8743 13.5204 37.8449Z" fill="#FCD180"/>
<path d="M32.3463 10.2351C32.1521 10.432 31.955 10.6288 31.7609 10.8256C31.5109 10.667 31.4726 10.4555 31.6579 10.2381C31.8697 9.9854 32.1139 9.90608 32.3463 10.2351Z" fill="#FDE29F"/>
</svg>
