<svg width="56" height="53" viewBox="0 0 56 53" fill="none" xmlns="http://www.w3.org/2000/svg">
<path d="M21.6169 45.1058C19.9019 47.8408 17.2297 48.8242 13.7957 47.8692C12.9606 47.6376 12.2762 47.3734 11.8689 48.4097C11.4941 48.1293 11.4697 47.7514 11.5471 47.3368C11.6367 47.0605 11.8363 46.8695 12.0563 46.707C12.5614 45.7723 11.4982 46.3819 11.3923 46.0486C9.84433 45.0367 9.18849 43.586 9.24959 41.7735C9.2333 40.8023 9.35958 39.8554 9.70175 38.9411C10.7853 36.3605 12.4677 34.5034 15.4373 34.1905C15.8813 34.3205 16.138 34.5887 16.0891 35.0804C16.0646 35.5681 15.9546 36.0354 15.7469 36.4784C15.3151 37.3033 14.3211 37.3237 13.7305 37.8763C13.7549 37.856 13.7142 37.9048 13.7142 37.9048C13.7142 37.9048 13.7916 37.8398 13.812 37.8235C15.3558 36.8157 15.2214 38.7013 15.975 39.0426C16.252 39.5994 15.8772 39.8757 15.4903 40.1399C14.5737 40.7738 14.7774 41.3956 15.5025 42.0092C15.6288 42.5497 16.1461 42.4359 16.5005 42.5944C17.0912 42.9398 16.9241 43.651 17.3478 44.3459C18.2725 42.4766 19.0465 40.786 18.2929 38.5916C18.4191 39.8391 18.1258 40.4081 17.0341 39.7213C16.6471 39.4775 16.2235 39.2621 15.8732 38.9532C15.0381 38.1364 15.144 37.3074 15.8487 36.4743C16.0687 35.9542 16.1135 35.3893 16.2846 34.8569C18.5902 34.0929 21.124 35.369 22.179 37.8194C22.1953 38.4981 21.7839 38.876 21.2217 39.1483C21.6006 39.7294 22.2564 39.5913 22.7982 39.7579C23.4988 41.4322 22.7941 42.8748 22.0405 44.3093C21.8857 44.5572 21.7757 44.8457 21.6169 45.1058Z" fill="#97569E"/>
<path d="M11.8206 47.0881C11.8369 47.527 11.8532 47.97 11.8695 48.4089C10.8023 51.1275 8.8103 52.619 5.88142 52.7206C3.37619 52.8059 1.50236 51.4039 0.386211 48.7787C1.13982 47.0719 0.805786 45.0562 1.88527 43.451C2.21116 42.9634 2.68369 42.683 3.1277 43.386C4.02388 43.4673 3.8365 42.8415 3.81613 42.3294C3.37619 41.2444 3.87316 40.903 4.83859 41.2119C7.43751 42.049 7.42937 42.0775 8.6555 40.0781C8.94472 40.1269 9.26246 40.2894 9.23394 40.5536C8.92028 43.2072 10.3908 45.1375 11.8206 47.0881Z" fill="#91509A"/>
<path d="M10.1908 38.9554C9.94638 39.8942 9.66531 40.8248 9.77529 41.8123C9.14797 41.9464 9.21314 41.4831 9.18463 41.1174C9.14797 40.6866 9.30276 40.1827 8.71617 39.9795C8.52471 39.9632 8.33733 39.9429 8.14587 39.9307C6.88308 39.8169 5.58362 39.9429 4.39822 39.3496C4.12936 39.2196 3.84829 39.118 3.58351 38.9879C-0.620387 36.4237 -0.762961 30.4418 3.27799 27.6743C3.84421 27.2842 4.79335 27.3126 4.91556 26.3617C5.1396 26.1341 5.40845 26.0894 5.7099 26.1463C7.02158 26.9022 8.70395 26.5934 9.93823 27.5849C10.089 27.6987 10.2112 27.8369 10.3049 27.9994C10.3252 28.1864 10.2723 28.353 10.1541 28.4871C10.1378 28.5277 10.1093 28.5806 10.093 28.6374C10.1338 28.5277 10.1908 28.4221 10.2641 28.3205C10.6348 28.0766 10.9444 28.2351 11.2458 28.4505C11.6613 28.8122 12.1257 29.117 12.4638 29.564C12.7123 29.9785 12.8916 30.4133 12.8019 30.9132C12.7042 31.6528 11.5432 31.7422 11.7917 32.8353C11.8976 33.2946 10.8955 33.3555 10.2763 33.3962C9.13982 33.4734 7.86887 33.067 6.95233 34.1561C6.3413 33.4327 4.09677 33.77 5.40031 31.791C4.99703 31.8641 4.60189 31.9047 4.35341 31.4699C4.08863 31.0351 4.72817 30.6368 4.43488 30.2873C4.34933 30.1979 3.9542 30.6409 3.74238 30.8807C3.33095 31.3399 3.70979 32.0592 3.22096 32.494C3.06617 32.5712 2.90323 32.5915 2.73214 32.5631C2.34923 32.429 2.02742 32.2177 1.85633 31.8357C1.85633 31.8478 1.77078 31.7015 1.77078 31.7015C1.77078 31.7015 1.67302 31.8397 1.67302 31.856C1.85225 32.5875 1.97446 33.3067 1.88484 34.0545C1.84003 34.4446 1.77486 34.851 1.96224 35.233C2.48365 34.5665 3.56721 35.3996 3.73016 34.9363C4.62633 32.3761 5.88913 34.343 7.00528 34.5706C7.89331 35.1355 7.46559 35.6353 6.879 36.1595C8.47176 35.8385 9.8812 34.2699 11.6002 35.6312C11.4903 36.887 9.83232 37.4965 10.1908 38.9554Z" fill="#92539C"/>
<path d="M11.7781 12.8679C13.0939 9.88104 15.6969 8.45871 19.1309 8.8529C22.0231 9.18613 23.9906 11.4131 24.569 15.0177C24.6424 15.2046 24.6749 15.3956 24.6546 15.5947C24.4061 16.5131 24.4509 17.5941 23.3103 18.0208C22.5811 18.0046 22.2797 17.4397 22.0597 16.9073C21.5383 15.6394 20.5973 15.1193 19.2775 15.168C18.4261 14.7088 17.6399 14.018 16.5442 14.3959C15.4158 14.2862 15.8068 13.5466 15.9291 12.9167C16.0635 12.4737 16.4342 12.1933 16.7193 11.7219C16.3283 11.5187 16.0268 11.787 15.7172 11.8723C14.9595 12.8639 13.823 13.3434 12.7965 13.9326C11.3667 14.7413 11.5744 13.7457 11.7781 12.8679Z" fill="#A06BAA"/>
<path d="M52.9992 22.4035C53.044 22.9562 53.1011 23.5089 52.657 23.9518C52.3638 24.0859 52.3638 24.3501 52.3393 24.6223C52.3067 24.9881 52.4982 25.5204 51.9157 25.5773C51.4676 25.622 51.1987 25.236 51.0358 24.858C50.771 24.2444 50.604 23.5657 49.8504 23.326C49.2882 23.0334 48.9257 22.6351 49.1049 21.9443C49.439 21.2778 50.0011 21.3794 50.5592 21.5176C50.661 21.5501 50.7751 21.5664 50.8932 21.5582C50.6977 21.4891 50.4899 21.4648 50.2903 21.4038C50.0418 21.3063 49.5775 21.2778 49.5897 21.1153C49.6874 19.7905 48.225 19.3922 47.9643 18.3031C48.1924 17.8561 48.6854 17.8886 49.0397 17.7139C49.166 17.4091 48.9298 17.7342 48.9298 17.6651C48.8116 17.722 48.6894 17.7586 48.5509 17.783C46.3431 18.1162 45.6506 16.5923 45.0477 14.9627C45.0925 14.5319 45.011 14.1702 44.514 14.0361C43.9437 13.707 43.4142 13.3494 43.4834 12.5732C43.6504 12.3578 43.9275 12.1302 44.1271 12.2278C44.9662 12.6179 44.7381 11.8783 44.9051 11.5532C45.0803 11.4597 45.2595 11.4028 45.455 11.3825C46.95 11.6222 48.5102 11.6304 49.7608 12.6666C50.7629 14.3328 51.3209 14.4547 53.0237 13.3941C53.3984 13.1624 53.6551 12.6423 54.2335 12.9145C55.5981 14.8855 55.5615 15.2756 53.3944 15.6739C52.0379 15.9217 52.3678 16.5069 52.6 17.2831C52.7874 17.7545 52.7426 18.2544 52.7467 18.742C52.6693 18.929 52.5145 19.1281 52.3352 19.0793C51.8953 18.9615 51.7853 18.5673 51.7324 18.1609C51.5409 19.315 52.1397 19.4207 53.0359 19.1403C53.2029 20.2375 53.264 21.3266 52.9992 22.4035Z" fill="#84B147"/>
<path d="M37.5199 27.1518C39.6096 29.6632 39.7604 32.5566 37.9232 34.9055C37.4344 35.1412 37.1574 34.8446 36.8885 34.5073C36.7582 34.2309 36.7296 33.9383 36.7907 33.6417C36.6889 33.4182 37.2877 33.1296 36.917 33.1093C35.7439 33.0484 34.4811 33.0565 34.864 34.8933C34.9821 35.4541 34.7947 35.9662 34.1959 36.2262C33.1816 35.5842 32.428 34.6536 31.5888 33.8245C31.4503 33.6864 31.3852 33.3206 31.2955 33.3247C30.599 33.3613 29.7191 33.6254 29.9431 32.4307C30.1468 31.3538 29.6743 29.9517 31.1937 29.3991C31.4422 29.269 31.7029 29.1715 31.9636 29.078C32.5787 28.8505 32.7702 28.4685 32.485 27.8386C32.1795 27.1518 32.0532 26.4447 32.5054 25.7498C33.039 25.1809 33.6745 25.0346 34.4037 25.2824C35.0514 26.5463 35.8661 27.546 37.5199 27.1518Z" fill="#995AA0"/>
<path d="M32.5904 25.9526C32.6189 26.5256 32.4722 27.1433 32.8959 27.635C33.8491 28.7323 33.1322 29.2118 32.183 29.6141C31.6127 29.1468 32.3786 28.4844 31.6453 27.6716C32.3134 28.7404 31.5231 29.0736 31.3642 29.6304C29.9955 30.2196 30.7247 31.6297 30.2277 32.5644C30.1748 32.666 30.3662 33.0439 30.4314 33.0399C32.6515 32.9058 33.1077 34.9133 34.2198 36.1162C34.8675 36.1853 36.1344 35.0352 35.8533 36.9411C34.2972 37.9652 32.6719 38.1765 30.9569 37.3475C30.7247 36.612 31.4661 36.5632 31.8042 36.1365C31.1158 36.4941 30.4966 36.3966 29.8937 36.0593C28.8549 34.8158 27.4577 33.9746 26.2764 32.8895C25.8731 31.776 26.5127 30.8251 26.7815 29.8214C26.9689 29.1224 27.3396 28.4356 26.6715 27.7895C26.3945 27.1311 26.3416 26.4972 26.8956 25.9404C27.3233 25.9526 27.7469 25.8307 28.1787 25.8754C28.9079 26.3102 29.6167 26.3306 30.3988 25.9445C31.0995 25.5991 31.8694 25.2821 32.5904 25.9526Z" fill="#93549D"/>
<path d="M3.18335 24.0345C2.2057 23.2298 2.36864 22.1367 2.43382 21.0679C2.88191 20.7956 3.40332 21.3076 3.83512 20.9257C4.60502 20.1779 4.57243 18.9303 5.48898 18.2761C6.02261 17.8615 6.56439 17.4714 7.28541 17.4755C8.61746 17.6502 9.94543 17.7437 11.0616 16.7887C12.1737 15.8378 12.8458 17.1138 13.742 17.2764C14.5893 17.9347 14.9233 18.7962 14.7807 19.8487C14.4915 20.1901 14.0882 20.2389 13.6809 20.2633C12.4221 20.3364 11.8967 21.0557 11.913 22.2545C11.9211 22.7666 12.2022 23.4249 11.4893 23.6362C10.8905 23.815 10.532 23.2705 10.1491 22.8966C9.6725 22.4455 9.73361 21.5637 8.91483 21.393C7.83941 21.3239 8.14493 22.4049 7.70091 22.8438C7.56648 24.518 5.82708 24.6643 4.97978 25.6681C4.10805 25.4283 4.01435 24.327 3.18335 24.0345Z" fill="#A56FAC"/>
<path d="M21.6169 45.1058C21.6169 44.8051 21.6122 44.5049 21.6122 44.2042C23.7386 42.1235 23.3598 38.0516 20.7201 35.9466C19.5143 34.9834 19.2536 34.3739 20.9034 33.7846C21.7915 34.699 23.2131 35.1541 23.3394 36.7309C23.3557 36.9422 23.4983 36.548 23.6694 36.5236C24.1786 36.4423 24.37 36.8081 24.6144 37.1169C24.8018 37.373 24.9403 37.7184 25.3721 37.5558C25.4739 37.4542 25.5676 37.3526 25.6206 37.2307C25.9709 36.4627 26.0646 35.2557 27.1196 35.337C28.2154 35.4223 27.6492 36.6699 27.9629 37.3486C28.2073 37.8769 28.138 38.6368 28.859 38.8115C30.9651 39.3276 29.6656 40.0794 28.9853 40.7215C28.6513 41.0344 28.1788 41.197 27.914 41.6156C28.2114 42.087 26.6756 41.6684 27.5392 42.408C27.8325 42.8428 27.9058 43.363 28.0973 43.8344C26.6553 45.0454 25.0258 45.4152 23.2335 44.8341C22.6102 44.6268 22.0812 44.545 21.6169 45.1058Z" fill="#9B5DA2"/>
<path d="M28.1061 43.8309C27.1651 43.8634 27.6906 42.9368 27.2996 42.6077C27.4177 42.1972 28.0002 41.9453 27.7069 41.3967C27.2548 40.9537 27.4299 40.6774 27.9717 40.6123C28.7701 40.5148 29.373 40.2182 29.6093 39.3688C28.0002 39.698 26.933 37.9018 27.4381 35.5814C25.8127 35.7561 26.88 38.1294 25.2669 38.1456C24.831 38.0481 24.6966 37.6498 24.4685 37.3451C24.2526 37.4995 23.5438 35.8577 23.7515 37.5401C23.78 37.7799 24.0937 38.0034 23.4949 38.4992C23.393 36.5729 21.6374 35.7317 21.1893 34.0818C21.4052 32.8017 22.558 33.1268 23.336 32.9074C24.0122 32.7164 24.7618 32.8708 25.4787 32.8749C25.6783 32.8911 25.8738 32.9399 26.0612 33.0049C27.9025 33.7974 29.2712 35.1303 30.3303 36.8046C30.5584 37.2272 30.1348 37.7596 30.5625 38.1497C30.8558 40.5189 30.1918 42.4817 28.1061 43.8309Z" fill="#96579E"/>
<path d="M10.1907 22.7063C10.8058 22.5478 10.9443 23.4337 11.539 23.3443C11.1968 20.39 11.7875 19.7235 14.6268 19.8413C15.2093 20.4103 14.9608 20.9792 14.6308 21.5481C13.4414 22.751 12.6226 24.1774 12.7978 25.8883C12.9363 27.2456 12.1826 27.4935 11.1928 27.6845C10.8262 27.8348 10.4636 27.8795 10.1092 27.656C9.78333 26.7661 8.99306 26.8067 8.27205 26.7864C7.39216 26.7579 6.53672 26.6441 5.70571 26.3597C5.44093 26.3597 5.18023 26.3637 4.91545 26.3637C4.83398 26.2987 4.80546 26.2134 4.83805 26.1118C4.70362 25.9045 4.72399 25.7135 4.89915 25.5388C5.3839 25.0146 4.67918 22.9786 6.61411 24.2424C7.0011 24.4944 7.42882 23.9742 7.05813 23.5435C5.57943 21.8326 7.66916 23.1086 7.73841 22.7144C8.02763 22.7348 8.25575 22.8689 8.45943 23.0639C9.22118 24.5432 9.47781 23.0355 9.94627 22.8079C10.0237 22.7713 10.1092 22.7388 10.1907 22.7063Z" fill="#995DA2"/>
<path d="M13.4418 17.4429C12.1505 16.9064 11.0954 17.3128 9.93041 17.9996C9.20532 18.4263 8.14213 18.2353 7.28261 17.7923C6.29681 16.8821 6.02796 18.2963 5.34768 18.3857C4.04007 19.0521 4.27634 20.3281 4.12154 21.4538C3.39238 22.0634 2.9117 21.5757 2.4351 21.0678C2.53693 16.0408 5.98315 13.6351 11.291 14.8867C11.3847 14.8989 11.4784 14.9152 11.572 14.9274C12.3868 15.6263 13.5762 16.0408 13.4418 17.4429Z" fill="#AF7DB5"/>
<path d="M3.58351 38.9919C3.8931 38.9837 4.19861 38.9715 4.5082 38.9634C5.67731 40.1622 7.28636 39.1544 8.56952 39.7762L8.5573 39.768C8.69988 39.8574 8.74876 39.9509 8.70395 40.0444C8.65507 40.1378 8.61026 40.1825 8.56138 40.1825C8.6347 41.2188 8.58174 42.0722 7.40042 42.6493C6.45128 43.1125 5.84025 43.5961 5.40031 42.1901C5.30254 41.8812 4.82187 41.6699 4.48783 41.4708C4.39822 41.4179 4.19047 41.5642 4.03567 41.6171C4.18232 41.8325 4.32489 42.0478 4.47154 42.2632C3.92569 42.7671 3.96642 43.8887 2.85434 43.7953C2.54475 42.8972 2.27183 43.3442 2.10481 43.844C1.55896 45.4736 0.947927 47.1113 2.11296 48.8181C0.992735 49.005 1.17604 47.9485 0.499837 47.8144C0.467249 48.1354 0.430587 48.4564 0.397998 48.7775C-0.591872 44.8884 0.218763 42.442 3.34724 40.15C3.87273 39.7599 4.21491 39.5323 3.58351 38.9919Z" fill="#96569E"/>
<path d="M50.1027 23.1163C51.8176 22.8968 50.8929 24.7458 51.7891 25.2376C52.4368 25.0669 51.9113 24.0509 52.6568 23.9493C52.6323 24.1485 52.6201 24.3517 52.5875 24.5508C51.9928 27.8831 51.9846 27.8994 48.9947 26.6193C47.3123 25.8959 45.2063 26.0625 44.0209 24.2866C43.9394 23.9615 44.1471 23.6933 44.3915 23.7624C46.1717 24.2907 46.0291 23.1488 45.9354 22.0394C46.2572 21.1494 45.8865 20.0197 46.8642 19.3532C47.4182 19.2841 47.7319 19.6255 48.017 20.0156C48.5914 20.8649 48.8276 21.8605 49.2105 22.7952C49.3409 23.1041 49.4916 23.8803 50.1027 23.1163Z" fill="#85B14B"/>
<path d="M50.3873 8.92401C50.5543 9.0825 50.7213 9.24505 50.8883 9.40354C50.8517 10.4317 52.5015 11.6346 50.5625 12.4636C48.8556 12.175 47.1325 11.9475 45.4502 11.5248C43.7596 11.4883 42.1913 11.151 41.0915 9.7002C41.0141 9.49701 41.0385 9.30194 41.1566 9.12314C42.0854 8.19659 43.0834 7.3879 44.4481 7.20909C45.8779 6.93275 47.0388 7.27005 47.7395 8.64767C47.8087 8.80616 47.434 8.85086 47.6254 9.04999C47.6295 8.91995 47.6865 8.81429 47.8047 8.72895C48.6886 8.63955 49.5196 9.00122 50.3873 8.92401Z" fill="#83B049"/>
<path d="M38.636 23.6364C37.9842 23.5023 37.8702 22.5839 37.1125 22.6042C36.9333 22.4823 36.807 22.3238 36.7337 22.1247C36.6074 20.5154 36.9781 18.8858 36.5096 17.2928C36.6603 16.9067 37.031 16.3459 37.2795 16.5085C38.4405 17.2644 37.8539 16.2565 37.8905 15.9436C37.9435 15.5332 38.0127 15.1187 38.3916 14.9114C38.8723 14.6473 39.2878 14.9033 39.6666 15.2081C40.5669 15.9436 40.8602 16.9149 40.852 18.0487C40.8479 18.8492 40.5139 19.6173 40.6483 20.4219C40.6809 21.1575 40.8316 22.0271 39.7644 22.1043C38.9008 22.1653 38.7134 21.5273 38.8397 20.7552C38.5179 22.1572 39.5688 22.1694 40.4284 22.3807C40.5994 22.466 40.7339 22.5839 40.8398 22.7424C40.6076 24.2785 39.6829 24.1037 38.636 23.6364Z" fill="#8BB851"/>
<path d="M11.7787 12.8658C11.9987 13.1869 11.4325 14.4995 12.6545 13.5404C13.6078 12.7968 14.5813 12.0856 15.5468 11.3582C15.9908 11.7889 15.8115 12.5123 16.2922 12.9268C16.4674 13.3291 15.6242 14.0728 16.7118 14.1663C16.781 14.2313 16.8503 14.2963 16.9236 14.3654C17.3391 15.1619 17.3595 16.0234 17.3147 16.8849C17.2251 18.6893 16.834 18.9575 14.9357 18.5836C13.8685 17.336 12.9071 15.9868 11.514 15.0562C11.4406 14.9993 11.3632 14.9424 11.2899 14.8855C11.518 14.2313 11.2044 13.4429 11.7787 12.8658Z" fill="#AA7CB5"/>
<path d="M29.283 7.17797C29.0467 6.14983 30.0855 5.08918 29.2015 4.0773C30.1466 3.17107 30.9328 4.09762 31.7841 4.29268C31.9878 4.34957 32.1834 4.43491 32.3667 4.54057C32.6437 4.71938 32.831 4.96727 32.941 5.27612C33.1569 6.46275 32.8759 7.51933 32.0937 8.43775C30.4399 9.23832 30.4643 11.1199 29.5396 12.3959C29.0712 13.1599 28.3787 13.5459 27.4947 13.6191C27.0629 13.5256 26.6107 13.4484 26.8103 12.8185C26.957 12.0992 27.3032 11.4897 27.8124 10.9654C28.2605 10.9248 28.2809 11.2662 28.3461 11.5628C28.7086 9.42932 30.1751 7.67782 30.5417 5.2111C30.1629 6.26768 30.611 7.3771 29.393 7.66563C29.3563 7.67376 29.2911 7.58842 29.2545 7.53965C29.1771 7.42993 29.1893 7.30802 29.283 7.17797Z" fill="#837644"/>
<path d="M32.6889 5.39775C32.5219 5.20675 32.3549 5.01575 32.1838 4.82475C31.8864 4.36148 32.1309 3.72753 31.7031 3.30489C31.5402 3.03668 31.2062 2.79285 31.4017 2.44337C31.6094 2.0695 31.9475 2.20767 32.2531 2.35397C32.64 2.3946 33.027 2.43524 33.4099 2.47588C34.4487 3.63 35.6911 3.97136 37.1535 3.38211C37.9397 3.49996 38.7381 3.20736 39.4592 4.02825C40.0946 4.74754 40.7545 3.35366 41.5611 3.60155C42.2495 4.86133 41.8503 5.55624 40.445 5.67409C39.8624 5.72285 39.2718 5.68221 38.6811 5.68221C38.2127 6.178 37.6627 6.47872 36.9499 6.38525C35.6015 5.77568 34.0576 5.96262 32.6889 5.39775Z" fill="#83834A"/>
<path d="M37.1122 22.6061C36.6804 23.3823 36.5175 24.3535 35.5765 24.7721C34.831 25.3248 33.9715 25.0972 33.1487 25.1256C31.564 24.7111 31.3237 23.7521 32.0406 22.4029C32.1343 22.2485 32.2688 22.1509 32.4358 22.094C33.0876 21.1716 34.44 20.7977 34.554 19.4404C35.4054 19.1722 35.6457 19.9158 36.0735 20.3547C36.6112 20.8505 36.6926 21.5942 37.0755 22.1794C37.0837 22.3216 37.1 22.4638 37.1122 22.6061Z" fill="#9D65A5"/>
<path d="M27.1359 3.67899C25.6246 3.71962 24.2233 3.17914 22.7813 2.86623C21.8932 2.67523 20.8626 2.53299 21.2618 1.28541C21.5673 0.338546 22.2435 -0.348236 23.4371 0.188185C23.7385 0.326354 24.0889 0.358864 24.4147 0.44014C24.484 0.708351 24.6388 0.773372 24.8791 0.635203C25.2783 0.716478 25.6775 0.797754 26.0768 0.87903C26.3456 1.21226 26.6633 1.50892 26.8385 1.90717C26.9159 2.06159 26.9811 2.21602 27.0463 2.37451C27.0137 2.80933 28.4679 3.15476 27.1359 3.67899Z" fill="#898751"/>
<path d="M50.9183 12.1487C51.0242 11.7464 51.5416 11.2993 50.8979 10.958C49.8796 10.4175 50.5517 9.92577 50.8898 9.40561C52.287 10.3118 53.615 11.2831 54.2423 12.9208C53.5702 14.4285 51.9 14.3878 50.7024 14.9161C49.9814 15.2331 50.014 13.6848 49.7044 12.9777C49.9162 12.4209 51.0812 13.25 50.9183 12.1487Z" fill="#8BB653"/>
<path d="M46.0422 21.8991C47.0688 22.6916 46.6085 23.7685 46.1685 24.4512C45.6756 25.2233 45.0972 24.1342 44.5106 24.0529C44.3599 24.0326 44.1847 24.1992 44.0177 24.2805C43.594 24.183 43.3252 23.9026 43.1134 23.549C42.9626 22.334 42.5431 21.8179 41.431 22.8501C41.2395 23.0289 40.9381 22.911 40.7385 22.7038C40.5104 21.5497 40.3719 20.4159 41.5084 19.599C43.26 19.2617 43.9159 20.8954 45.0972 21.5822C45.3579 21.5822 45.6145 21.6106 45.8549 21.7163C45.92 21.7772 45.9811 21.8382 46.0422 21.8991Z" fill="#8BB851"/>
<path d="M26.5018 2.00909C26.3592 1.63115 26.2207 1.25322 26.0782 0.875288C28.1353 1.37107 30.1965 1.86279 32.2536 2.35857C30.9583 2.53738 32.2414 2.91938 32.1885 3.19978C32.6488 3.89062 32.0337 4.31326 31.7852 4.8253C30.8564 4.80904 30.2454 3.70369 29.2026 4.07756C28.4775 4.13445 27.7768 4.08162 27.1373 3.67931C27.5854 2.9275 26.0496 3.10631 26.51 2.35045C27.3206 1.97658 28.1801 2.74463 28.897 2.29355C28.1231 2.53738 27.3084 2.31387 26.5018 2.00909Z" fill="#8D8E50"/>
<path d="M35.8534 36.9396C35.8778 35.5376 34.4928 36.9274 34.2199 36.1147C33.7596 33.1684 35.2994 32.189 37.9675 32.3272C38.0246 32.3313 38.0775 32.38 38.159 32.4207C38.5215 33.4569 37.2099 33.1115 37.051 33.713C37.0021 33.973 36.163 34.2738 37.0917 34.481C37.3687 34.6232 37.6457 34.7614 37.9227 34.9036C37.6457 36.0049 37.0062 36.7324 35.8534 36.9396Z" fill="#A065A7"/>
<path d="M40.7385 22.7038C41.9198 22.72 41.8708 21.6805 42.2578 20.5955C42.6937 21.7821 43.9281 22.3136 43.1134 23.549C42.3435 22.8216 42.0582 23.371 41.6875 24.0131C41.3005 24.6836 40.9095 25.602 39.9603 25.4517C39.0723 25.3135 38.889 24.3829 38.6324 23.6352C39.3575 23.367 40.4696 23.9879 40.7385 22.7038Z" fill="#89B350"/>
<path d="M32.5939 24.7152C33.5879 24.7315 34.5818 24.7518 35.5757 24.768C35.5513 24.8981 35.5065 25.02 35.4372 25.1297C35.258 25.4426 35.0788 25.7555 34.6266 25.5767C33.9137 25.5117 33.2212 25.5767 32.5898 25.9506C31.6977 25.8612 30.8749 26.0888 30.1416 26.5724C29.1803 27.2063 28.557 26.9137 28.113 25.9506C28.1782 25.8693 28.2434 25.7921 28.3085 25.7108C29.6854 25.1622 30.879 23.809 32.5939 24.7152Z" fill="#7F418A"/>
<path d="M29.283 7.17797C30.7169 7.1414 29.707 5.68219 30.5625 5.13764C30.5177 7.48652 29.6215 9.46558 28.6601 11.4203C28.4768 11.7941 28.3465 11.7251 27.8128 10.957C28.3017 9.69722 28.7942 8.43775 29.283 7.17797Z" fill="#8E814E"/>
<path d="M44.3433 7.64556C45.2517 7.04818 46.2904 7.39767 47.2558 7.24731C48.2131 7.97067 49.7692 7.57648 50.3884 8.92972C49.4596 10.2505 48.5675 8.99474 47.6632 8.89315C46.7629 7.92596 45.6875 7.42205 44.3433 7.64556Z" fill="#8BB653"/>
<path d="M41.5686 3.60145C40.4891 5.16601 40.2773 5.1335 38.6315 3.72337C38.3138 3.45109 37.6009 3.63803 37.0673 3.61364C36.9736 3.61364 36.884 3.60958 36.7903 3.60958C36.3422 3.5283 35.8249 3.53643 35.8615 2.85778C37.7109 3.4836 39.7762 2.48391 41.5686 3.60145Z" fill="#8A8853"/>
<path d="M26.8052 12.8132C26.9763 13.1993 27.294 13.3456 27.6892 13.37C28.0517 14.2681 27.127 14.8004 27.0618 15.5766C26.8745 16.0236 26.4875 16.2756 26.1127 16.5397C24.5973 17.2875 24.5525 17.255 24.5118 15.3897C24.5118 15.2637 24.5281 15.1377 24.5607 15.0158C25.5669 14.5363 25.9375 13.4228 26.8052 12.8132Z" fill="#8D8656"/>
<path d="M39.8743 7.28522C40.302 7.93949 40.7297 8.59783 41.1534 9.2521C41.1819 9.32525 41.1859 9.39839 41.1656 9.47561C40.9986 9.78852 40.97 10.1949 40.5831 10.3696C40.2287 10.5363 39.8498 10.581 39.4628 10.581C39.0718 10.5688 38.697 10.5037 38.367 10.2721C39.0433 8.66285 39.0433 8.66285 37.4138 6.93573C37.1816 6.69191 36.9495 6.45621 37.0065 6.07827C37.5686 5.94417 38.1267 5.81413 38.6848 5.68002C38.754 6.46027 39.308 6.87478 39.8743 7.28522Z" fill="#94B563"/>
<path d="M34.6281 25.5779C34.897 25.4275 35.1699 25.2812 35.4387 25.1309C36.0335 25.903 37.0926 26.1996 37.5203 27.1465C35.1658 28.3209 34.7259 28.0812 34.6281 25.5779Z" fill="#9D65A5"/>
<path d="M30.5587 38.1436C30.074 37.8551 30.1514 37.3837 30.1555 36.9367C30.0781 36.5303 29.6829 36.128 30.131 35.7094C31.0353 36.4084 31.7645 35.5631 32.6485 35.4005C32.8033 36.7253 31.3612 36.5953 30.958 37.3471C30.6117 37.5056 30.628 37.8469 30.5587 38.1436Z" fill="#A065A7"/>
<path d="M37.0645 3.6137C35.5573 4.73125 33.9517 4.23144 33.4099 2.47588C33.8743 2.36616 34.2538 2.5815 34.6286 2.80501C35.3048 3.48773 36.2987 3.20732 37.0686 3.6137H37.0645Z" fill="#95915E"/>
<path d="M4.89915 25.5388C4.87879 25.7298 4.85842 25.9208 4.83805 26.1118C4.16184 25.5225 3.04559 25.2753 3.18816 24.0359C3.60774 23.5482 3.97436 23.1134 4.20655 24.1944C4.30431 24.6739 4.65881 25.0918 4.89915 25.5388Z" fill="#9862A2"/>
<path d="M52.5519 19.0488C52.5682 18.4636 52.5885 17.8743 52.6048 17.2851C53.4562 18.935 53.7862 20.6255 53 22.4014C52.7474 21.3001 53.3707 20.0769 52.5519 19.0488Z" fill="#91BC56"/>
<path d="M37.071 3.61411C36.2644 3.32964 35.0546 4.24806 34.6309 2.80541C35.0423 2.82573 35.4497 2.84198 35.8611 2.8623C36.2603 3.1102 36.6636 3.36215 37.071 3.61411Z" fill="#83834A"/>
<path d="M24.8799 0.630513C24.827 0.943425 24.8066 1.47985 24.4563 1.38231C23.833 1.20757 24.3626 0.768682 24.4196 0.439514C24.5703 0.500471 24.7251 0.565492 24.8799 0.630513Z" fill="#9C9C69"/>
<path d="M25.6734 33.2669C24.1743 33.5189 22.5449 33.0597 21.1884 34.0797C20.2271 34.3113 19.4613 34.5836 20.7444 35.5223C23.0134 37.1844 23.4655 39.5617 23.1926 42.1382C23.0949 43.0404 23.1641 44.3001 21.6202 44.2067C22.2842 42.7965 22.9889 41.3945 22.4309 39.7609C21.8524 39.3626 21.6691 38.8506 21.9706 38.1922C20.8096 35.7905 18.4103 34.5592 16.3002 35.2907C16.1658 35.3923 16.0354 35.3882 15.9051 35.2785C15.8888 34.9493 15.8114 34.6567 15.4896 34.4942C15.3918 34.3926 15.3551 34.2869 15.3755 34.1772C15.3959 34.0634 15.4203 34.0065 15.4488 34.0065C15.6525 33.783 15.9499 33.8074 16.2065 33.718C15.8847 33.6327 15.5384 33.6774 15.2288 33.5148C15.0578 33.4051 14.9396 33.2547 14.8744 33.0637C14.8337 32.7427 14.907 32.4664 15.184 32.2713C15.9987 31.8893 16.7809 32.3729 17.5834 32.3485C19.6364 32.9906 21.6406 32.1169 23.6774 32.1494C24.3617 32.4745 25.4657 32.0762 25.6734 33.2669Z" fill="#844292"/>
<path d="M15.8934 38.9578C16.9199 38.206 17.0706 39.7218 17.7876 39.7461C17.8935 39.608 18.0483 39.4901 18.0279 39.4332C17.8079 38.7993 16.9647 37.9134 17.9668 37.6086C18.7204 37.381 18.7693 38.4539 18.9078 39.2138C19.3477 41.6846 19.0096 43.7734 16.4677 45.2892C16.5981 44.3017 16.924 43.3954 16.3089 42.6233C16.2885 41.9975 15.7019 42.4892 15.5023 42.2169C15.1398 41.7577 13.9503 42.3429 14.1662 41.5342C14.3251 40.945 13.9747 39.6445 15.376 39.6974C15.763 39.7096 15.8404 39.291 15.8934 38.9578Z" fill="#93529B"/>
<path d="M15.4776 34.0876C15.4817 34.2217 15.4817 34.3558 15.4817 34.4858C12.948 35.071 11.1929 36.5659 10.1908 38.9554C9.19685 37.3502 10.9601 36.7656 11.4 35.6928C12.0029 34.3964 13.4816 33.6649 13.6893 32.1207C14.8299 31.6981 14.447 33.0554 15.0418 33.2708L15.0825 33.2667C15.3188 33.4902 15.5224 33.734 15.4776 34.0876Z" fill="#783B87"/>
<path d="M8.56151 40.1803C8.56151 40.0421 8.55744 39.9039 8.55744 39.7658C9.93837 39.8714 8.96072 41.375 9.7795 41.8139C9.6247 43.5857 10.4109 44.8821 11.8326 45.8574C12.0851 46.2394 13.3316 46.0077 12.5536 47.0237C12.3092 47.044 12.0648 47.0643 11.8244 47.0887C9.89356 45.703 8.88739 43.8539 8.96886 41.4522C8.98108 40.9849 9.02182 40.5013 8.56151 40.1803Z" fill="#7A3788"/>
<path d="M16.2924 36.4924C15.6121 37.2279 15.4981 38.0529 15.8932 38.9591C15.6529 38.9713 15.4125 38.9835 15.1722 38.9957C15.1722 37.614 14.2964 37.9309 13.4817 38.1301L13.4613 38.1097C13.669 36.9556 14.8341 37.0288 15.5307 36.4964C15.7873 36.281 16.0398 36.2648 16.2924 36.4924Z" fill="#93529B"/>
<path d="M21.9637 38.1929C22.1185 38.7171 22.2692 39.2373 22.424 39.7615C22.1878 40.9237 21.7152 40.0094 21.3812 39.8549C20.8842 39.6233 20.4728 39.2169 20.6398 38.6358C20.8394 37.945 21.2508 38.9203 21.5482 38.5911C21.6826 38.4489 21.8293 38.3229 21.9637 38.1929Z" fill="#A972AE"/>
<path d="M15.494 42.2131C15.991 42.0993 16.3413 41.2175 16.8179 41.632C17.3515 42.0953 16.6224 42.3513 16.3006 42.6195C15.9462 42.6601 15.9176 43.4201 15.4247 43.0665C15.0744 42.8186 15.4085 42.4976 15.494 42.2131Z" fill="#A56AAA"/>
<path d="M17.8891 46.5486C17.1966 47.337 16.72 47.0241 16.1741 46.7396C16.667 45.9512 17.1884 46.3129 17.8891 46.5486Z" fill="#A870AD"/>
<path d="M16.292 36.4903C16.0394 36.4903 15.7828 36.4944 15.5302 36.4944C15.4528 36.027 15.4243 35.576 15.9009 35.2752C16.0312 35.2874 16.1616 35.2915 16.296 35.2874C16.9193 35.6897 16.4508 36.088 16.292 36.4903Z" fill="#B683B9"/>
<path d="M13.4866 38.1271C13.5477 38.4644 14.1058 38.757 13.6292 39.135C13.4051 39.3138 13.0915 39.1919 12.9693 38.948C12.7289 38.4604 13.0752 38.2572 13.4662 38.1068L13.4866 38.1271Z" fill="#EAD3E8"/>
<path d="M12.5533 47.0281C12.7162 46.3901 12.0197 46.2844 11.8323 45.8618C12.203 45.9431 12.6633 45.4798 12.924 45.8984C13.1725 46.3048 13.1277 46.7965 12.5533 47.0281Z" fill="#91509A"/>
<path d="M8.49987 50.8128C8.50394 51.2639 8.28805 51.4833 7.90921 51.4792C7.48148 51.4752 7.13116 51.2598 7.08635 50.8128C7.04154 50.3576 7.33076 50.061 7.787 50.0813C8.23916 50.0976 8.43877 50.447 8.49987 50.8128Z" fill="#AC75B0"/>
<path d="M2.84469 43.7946C3.44757 43.3476 3.58607 42.417 4.46596 42.2626C4.67371 43.2785 3.98935 43.8556 3.305 44.3189C2.84469 44.6318 2.90579 44.0628 2.84469 43.7946Z" fill="#C59AC7"/>
<path d="M5.57415 44.4011C5.39492 44.7669 5.17087 45.1408 4.73908 45.1692C4.62095 45.1773 4.36839 44.775 4.36431 44.5596C4.36024 44.1532 4.78389 44.0923 5.07718 43.9948C5.3827 43.8972 5.5823 44.0557 5.57415 44.4011Z" fill="#96569E"/>
<path d="M10.2509 48.7734C10.145 48.8262 9.99427 48.9603 9.8354 48.9725C9.62765 48.9847 9.46471 48.814 9.57877 48.6108C9.65209 48.4848 9.85985 48.3792 10.0187 48.367C10.1979 48.3507 10.3894 48.4483 10.2509 48.7734Z" fill="#A975B0"/>
<path d="M13.8695 32.0544C14.3298 34.131 12.623 34.7486 11.405 35.6955C9.93852 35.4679 8.54537 35.5167 7.52698 36.809C7.25813 37.1504 6.99335 37.2154 6.73264 36.8903C6.4475 36.5367 6.06458 36.1385 6.03199 35.7362C5.97904 35.1063 6.45157 35.5695 6.7082 35.5655C7.37626 35.5492 7.3559 35.2851 6.93632 34.895C6.70006 34.6267 6.67969 34.3545 6.93225 34.0863C7.07482 33.4035 6.43935 32.0097 8.23171 32.9728C8.9405 33.3507 10.0444 32.5826 11.0139 32.989C11.1891 33.0622 11.7961 32.7696 11.5761 32.3795C11.4254 32.1112 10.9121 32.0462 10.5007 31.8634C10.9773 31.0506 12.3175 31.9081 12.6434 30.8312C13.841 30.4532 13.951 31.1563 13.8695 32.0544Z" fill="#8C4E99"/>
<path d="M6.93223 34.0833C6.93223 34.3515 6.93223 34.6238 6.93631 34.892C6.08086 34.8676 5.47798 34.258 4.73659 33.9248C4.39849 34.38 4.28036 34.8676 4.33331 35.4162C4.40664 36.1883 3.9504 36.1193 3.43306 35.9567C3.06644 35.8389 2.71612 34.4694 2.29247 36.0583C2.09694 36.7938 1.50628 35.9933 1.48998 35.6357C1.41258 34.1646 1.05004 32.6772 1.57553 31.2183C1.86475 31.2264 1.92585 31.4825 2.0562 31.6613C2.32506 31.9295 2.59391 32.1936 2.85869 32.4578C3.6734 32.0677 2.46763 31.2224 3.22938 30.8241C3.6734 30.8201 4.13371 30.7713 4.46367 31.1736C5.07062 32.1124 5.99939 30.6697 6.63079 31.4825C6.49229 32.2546 5.51057 31.8563 5.16024 32.6407C6.01569 32.7748 6.55339 33.3477 6.93223 34.0833Z" fill="#9A5DA2"/>
<path d="M13.8689 32.0529C13.5633 31.5408 13.4452 30.8459 12.6427 30.8297C12.5042 30.4233 12.3617 30.021 12.2232 29.6146C12.2028 28.619 11.5062 27.9444 11.0337 27.1682C12.2109 26.9203 12.1539 26.9162 12.2517 25.6443C12.3779 24.0147 12.712 22.446 14.2355 21.4545C14.6265 21.3244 14.7732 21.5642 14.875 21.8771C14.8587 22.8971 13.9055 23.6327 14.0074 24.6893C13.9951 26.3351 13.8933 27.985 14.4147 29.5861C14.5573 30.5614 15.7386 31.2889 15.1031 32.447C15.0828 32.7234 15.0665 32.9997 15.0461 33.2761C13.657 33.8247 14.6591 32.0772 13.8689 32.0529Z" fill="#783A83"/>
<path d="M5.70153 26.3598C7.07024 25.8437 8.42673 26.4899 9.80766 26.3964C10.7935 26.3314 10.0399 27.1848 10.1906 27.5871C10.2924 27.6765 10.3291 27.7659 10.2924 27.8553C10.2598 27.9447 10.2232 27.9894 10.1906 27.9894C8.83816 27.0628 6.90322 27.7171 5.70153 26.3598Z" fill="#783E86"/>
<path d="M4.46367 31.1736C3.99928 31.2508 3.51453 31.3809 3.22938 30.8241C3.35566 30.6656 3.45307 30.4791 3.60787 30.3572C4.12521 29.9346 4.59366 28.817 5.33505 29.5851C6.18235 30.4629 4.56958 30.5153 4.46367 31.1736Z" fill="#D2B1D5"/>
<path d="M10.1896 27.9888C10.1896 27.8547 10.1855 27.7206 10.1896 27.5865C10.5358 27.5784 10.8495 27.5052 11.0287 27.1639C12.0512 27.6759 13.204 28.127 12.2182 29.6103C11.8149 29.338 11.4076 29.0657 11.0043 28.7934C11.3342 27.9157 10.3281 28.383 10.1855 27.9847L10.1896 27.9888Z" fill="#8C4E99"/>
<path d="M8.56868 39.7743C7.58288 39.7743 6.59301 39.7621 5.60722 39.7743C5.02063 39.7824 4.55624 39.6646 4.50736 38.9615C5.77016 39.6727 7.33032 38.9168 8.56868 39.7743Z" fill="#7B398A"/>
<path d="M10.1981 28.387C10.0963 29.5046 10.0963 29.5046 8.79683 29.598C8.85793 28.704 9.72153 28.7649 10.1981 28.387Z" fill="#A46CAB"/>
<path d="M2.05171 31.6638C1.89284 31.5175 1.73397 31.3712 1.57103 31.2208C1.66879 30.9242 1.77063 30.4365 2.14133 30.6438C2.622 30.912 2.11688 31.3183 2.05171 31.6638Z" fill="#B179B3"/>
<path d="M10.1855 27.9868C10.6743 28.0193 11.2731 27.873 11.5094 28.446C11.6235 28.7264 11.2446 28.767 11.0043 28.7955C10.8251 28.4785 10.5318 28.3932 10.1937 28.3891C10.1977 28.255 10.1937 28.1209 10.1855 27.9868Z" fill="#783E86"/>
<path d="M19.1551 14.9879C20.7479 14.1792 21.6644 14.8863 22.2958 16.3411C22.528 16.8816 22.7032 17.4912 23.2653 17.8244C23.3672 18.056 23.3468 18.2795 23.2001 18.4909C21.8233 19.5353 20.3527 19.3321 18.8618 18.816L18.7111 16.9913C18.6133 16.3858 18.6215 15.7925 18.9148 15.2276C18.9922 15.1464 19.0736 15.0651 19.1551 14.9879Z" fill="#985DA2"/>
<path d="M23.1818 18.2148C23.2429 18.0929 23.2714 17.9629 23.2673 17.8247C24.0576 17.2029 23.7643 16.0285 24.5179 15.3905C25.0434 16.6218 25.0434 16.6218 26.1107 16.1707C26.2655 17.6459 25.4711 18.8 24.8194 20.007C24.6075 20.2508 24.355 20.4133 24.0209 20.4174C23.5851 20.3321 23.2185 20.1451 22.9903 19.7428C22.7419 19.1942 22.9252 18.6984 23.1818 18.2148Z" fill="#75645E"/>
<path d="M16.2892 12.9323C14.729 13.0298 15.8248 11.8716 15.5438 11.3637C15.8533 11.2661 16.167 11.1727 16.4725 11.0629C16.8717 10.9248 17.3239 10.876 17.5561 11.2377C17.939 11.8432 17.2872 11.961 16.9695 12.2333C16.7251 12.4446 16.5173 12.6966 16.2892 12.9323Z" fill="#DECBE4"/>
<path d="M16.709 14.1742C17.9922 13.0526 18.5299 14.1457 19.1531 14.9869C18.0085 15.7062 17.316 15.0682 16.709 14.1742Z" fill="#B183B9"/>
<path d="M40.7454 10.1072C40.7984 9.839 40.7251 9.48545 41.165 9.46919C42.3463 10.4608 43.7924 10.8793 45.2222 11.3263C45.3526 11.4158 45.3933 11.5011 45.3526 11.5905C45.3078 11.6799 45.2671 11.7246 45.2222 11.7246C45.0837 11.7327 44.9412 11.7409 44.8027 11.7449C44.5012 12.1554 43.8332 12.0091 43.605 12.5333C43.8535 13.086 44.2527 13.4964 44.7986 13.7606C45.0267 13.98 45.4463 14.0938 45.2345 14.553C46.0166 16.0647 46.5828 17.8528 48.8966 17.4099C49.3039 17.2961 49.4139 17.4546 49.2836 17.8325C48.9903 18.312 48.5055 18.2145 48.0615 18.247C47.6704 18.95 48.7092 19.588 48.1511 20.2951C47.98 20.4211 47.8212 20.413 47.6704 20.2626C47.4016 19.9822 47.1327 19.7059 46.8639 19.4255C45.8292 18.8241 45.5563 17.6618 44.8964 16.784C43.8454 15.061 43.051 13.1672 41.5275 11.7612C41.3972 11.6352 41.275 11.497 41.1609 11.3548C41.0469 11.2126 40.9532 11.0581 40.8676 10.8956C40.7536 10.6477 40.7128 10.3835 40.7454 10.1072Z" fill="#74A338"/>
<path d="M48.0656 20.2695C48.4485 19.5949 46.7865 18.9244 48.0656 18.2539C48.4567 19.3186 49.5891 18.835 50.3183 19.2901C50.4323 19.8835 48.3223 20.7897 50.522 21.0904C50.7542 21.3464 50.7664 21.6024 50.5423 21.8706C50.1187 21.6553 49.7032 21.6512 49.2918 21.9032C48.2611 21.8178 48.5952 20.7206 48.0656 20.2695Z" fill="#91BE59"/>
<path d="M45.2225 11.7228C45.2185 11.5887 45.2185 11.4586 45.2225 11.3245C47.1208 11.5968 49.0191 11.8691 50.9173 12.1454C51.2392 12.438 51.561 12.7265 51.9276 13.0557C51.0884 13.7425 50.4204 12.8891 49.7034 12.9703C48.3144 12.182 46.7094 12.1738 45.2225 11.7228Z" fill="#6E9935"/>
<path d="M52.548 19.0491C52.4665 19.618 52.7394 20.2357 52.2261 20.9144C51.4888 19.6099 51.0041 18.3745 51.224 16.8343C52.4176 17.2935 51.8147 18.533 52.548 19.0491Z" fill="#91BC56"/>
<path d="M48.0671 20.2666C48.9185 20.4779 48.7189 21.4736 49.2933 21.8962C49.2974 22.4814 49.5784 22.8796 50.108 23.1153C50.222 23.5339 50.6987 23.8834 50.275 24.5133C48.5926 23.5745 48.6497 21.5873 47.6761 20.2625C47.8064 20.2625 47.9368 20.2666 48.0671 20.2666Z" fill="#78A53C"/>
<path d="M43.6057 12.5357C42.8643 10.5445 44.5344 12.2066 44.8033 11.7474C44.954 11.9465 45.2473 12.3122 45.231 12.3244C44.7462 12.7593 44.1556 12.4707 43.6057 12.5357Z" fill="#92C057"/>
<path d="M50.5393 21.8638C50.5311 21.6038 50.527 21.3437 50.5189 21.0836C51.301 21.1811 51.8347 21.5631 52.022 22.3881C51.2521 22.9001 51.0362 21.9898 50.5393 21.8638Z" fill="#A5CA71"/>
<path d="M49.2834 17.8361C49.1531 17.6939 49.0268 17.5557 48.8964 17.4135C49.3567 16.7999 49.6989 17.2469 50.0207 17.5598C50.1307 17.6695 50.1348 17.8849 50.1877 18.0515C49.8863 17.9784 49.5849 17.9052 49.2834 17.8361Z" fill="#97BF62"/>
<path d="M45.2392 14.5529C45.0926 14.2888 44.95 14.0247 44.8033 13.7605C45.1781 13.7768 45.671 13.6142 45.8339 14.0612C46.0091 14.5489 45.5325 14.5001 45.2392 14.5529Z" fill="#A7CB84"/>
<path d="M31.3648 29.6273C30.3628 28.9811 33.0391 28.1237 30.6398 27.5547C32.8802 27.6279 32.3792 28.6885 32.1836 29.611C31.9107 29.6192 31.6378 29.6232 31.3648 29.6273Z" fill="#A16BAA"/>
<path d="M37.0872 34.4838C37.0261 34.813 36.9894 35.1747 36.5658 35.2316C36.2684 35.2681 36.0321 35.1503 36.1299 34.7886C36.2643 34.2928 36.2725 33.6711 37.0465 33.7117C37.0587 33.9718 37.0709 34.2278 37.0872 34.4838Z" fill="#B78ABE"/>
<path d="M35.455 29.7291C35.3816 29.6154 35.2391 29.4731 35.1983 29.3106C35.1454 29.0871 35.3083 28.9205 35.5201 28.9936C35.6546 29.0424 35.7808 29.2456 35.8175 29.404C35.8623 29.591 35.7808 29.7779 35.455 29.7291Z" fill="#B789BD"/>
<path d="M27.2794 25.9427C26.6318 26.5198 26.9821 27.2919 26.8843 27.9746C26.811 28.0274 26.7377 28.0843 26.6643 28.1372C24.261 28.7386 24.261 28.7386 23.5236 26.0321C23.2426 25.1584 24.2569 24.5082 23.9269 23.6304C23.7966 23.2647 23.7558 22.8989 23.9677 22.5454C24.5217 21.9521 25.039 21.2978 25.9841 21.3587C27.5972 22.8502 27.9882 24.2359 27.2794 25.9427Z" fill="#9C5FA3"/>
<path d="M25.6742 33.2657C25.1935 32.5098 24.1344 33.2169 23.6496 32.4692C23.6741 32.3798 23.7026 32.2863 23.727 32.1928C25.1935 31.0956 25.9837 29.4945 26.8799 27.9706L26.8881 27.9746C28.0694 27.5479 27.7191 28.3891 27.6009 28.8971C27.2914 30.23 26.5337 31.441 26.4929 32.8552C26.5907 33.2413 26.4807 33.4242 26.0571 33.2941C25.9308 33.2819 25.8004 33.2738 25.6742 33.2657Z" fill="#70327C"/>
<path d="M27.2791 25.9444C27.3687 24.2336 26.884 22.7259 25.6741 21.4743C24.9083 21.3727 24.0732 21.3564 24.0732 20.2551C24.2525 20.1413 24.4358 20.0235 24.615 19.9097C25.7108 19.8162 26.5255 20.3933 27.3117 21.0435C27.7557 21.7912 28.0083 22.6081 28.1508 23.4615C28.1997 24.1239 28.2242 24.7862 28.3179 25.4446C28.3097 25.6396 28.2405 25.8103 28.106 25.9566L28.1142 25.9485C27.8372 25.9932 27.5561 26.4077 27.2791 25.9444Z" fill="#7F3F88"/>
<path d="M26.0567 33.2959C26.2033 33.1496 26.3459 33.0033 26.4925 32.857C28.0364 33.3893 29.1249 34.4943 30.131 35.7094C30.017 36.1198 30.6158 36.5181 30.1555 36.9367C28.9253 35.5712 27.7594 34.133 26.0567 33.2959Z" fill="#7C3E88"/>
<path d="M29.4131 30.8909C29.0139 30.9396 28.9283 30.7486 28.9568 30.5536C28.9935 30.3057 29.0465 29.9399 29.2094 29.8546C29.519 29.6961 29.6982 29.9928 29.6697 30.2732C29.6453 30.5048 29.4864 30.7242 29.4131 30.8909Z" fill="#A46EAC"/>
<path d="M23.181 18.2136C23.2217 18.75 23.2624 19.2864 23.3072 19.8229C23.1769 19.9732 23.0139 20.0707 22.8184 20.1155C21.4049 20.0911 20.0077 19.6766 18.586 19.9773C16.9851 20.022 16.2763 21.8304 14.7039 21.9238C14.5491 21.7654 14.3903 21.6069 14.2355 21.4484C14.5736 20.9607 14.7324 20.4324 14.6265 19.8351C14.2355 19.0345 14.2436 18.0348 13.4411 17.4374C12.7975 16.6409 12.158 15.8485 11.5143 15.052C13.2334 15.5193 13.9585 17.0839 15.0502 18.242C15.5023 19.0629 16.1622 18.9735 16.8996 18.7013C17.4984 18.4777 18.1053 18.1323 18.7489 18.6078C20.2236 18.4777 21.7634 19.0101 23.181 18.2136Z" fill="#81488C"/>
<path d="M4.11954 21.454C3.35372 19.6212 3.78144 18.398 5.26014 18.2029C5.64712 18.0404 5.70415 18.2558 5.67971 18.5646C5.1583 19.5318 4.64096 20.4949 4.11954 21.454Z" fill="#EEDFEE"/>
<path d="M8.1492 23.126C8.0107 22.9879 7.87627 22.8538 7.73777 22.7156C7.25302 21.5005 7.43633 20.7853 8.96798 21.0779C8.79282 21.9435 9.85194 22.2889 9.81528 23.0976C9.26128 23.5284 8.70727 23.508 8.1492 23.126Z" fill="#B587BB"/>
<path d="M9.76352 22.7163C8.26038 22.7692 8.12188 22.1596 8.9651 21.0786C10.8593 20.5138 9.59243 22.3059 10.1872 22.7082L10.1912 22.7042C10.0568 22.8911 9.91424 22.9033 9.76352 22.7163Z" fill="#995DA2"/>
<path d="M5.68159 18.5701C5.54309 18.4482 5.40459 18.3262 5.26201 18.2084C5.64085 17.5704 6.13375 16.9933 6.87921 16.8755C7.88945 16.717 7.5432 17.3103 7.28656 17.7979C6.74886 18.054 6.21522 18.314 5.68159 18.5701Z" fill="#E5D3E8"/>
<path d="M27.7073 41.3948C28.4568 42.0937 27.7358 42.3051 27.2999 42.6058C26.8518 41.9393 26.4445 43.3454 25.9557 42.5204C26.1634 41.663 27.3244 42.0694 27.7073 41.3948Z" fill="#A971AE"/>
<path d="M24.4678 37.3419C24.8548 37.4882 25.1155 37.7605 25.2662 38.1424C24.1541 38.7195 24.537 37.8052 24.4678 37.3419Z" fill="#B581B8"/>
<path d="M9.76224 22.7176C9.90481 22.7136 10.0474 22.7095 10.19 22.7014C10.137 22.8883 10.1085 23.2297 10.0352 23.2419C8.90679 23.3922 10.5566 24.6601 9.49338 24.6642C8.61757 24.6683 8.51981 23.7133 8.14504 23.124C8.69904 23.0427 9.33859 23.3069 9.76224 22.7176Z" fill="#A56FAC"/>
<path d="M45.2226 16.6063C45.8825 17.4841 46.5179 18.3741 46.8683 19.4306C46.2532 20.1418 47.0842 21.3325 46.0413 21.9014L46.025 21.8852C45.6503 21.491 45.2592 21.1049 44.8926 20.7026C44.1023 19.5322 44.0249 18.2887 44.4934 16.9842C44.6563 16.7038 44.8478 16.4763 45.2226 16.6063Z" fill="#8BB851"/>
<path d="M47.6637 8.88724C47.3622 9.7 47.3622 9.7 46.3398 9.12294C46.7268 8.7125 47.2237 8.96446 47.6637 8.88724Z" fill="#8BB653"/>
<path d="M41.1415 10.9255C41.28 11.0637 41.4144 11.2018 41.5529 11.3441C43.1619 14.1684 42.5998 18.4232 40.3227 20.6908C39.5772 20.0934 40.229 19.4757 40.2982 18.8702C40.449 17.5779 40.4082 16.3466 39.2636 15.4363C38.9906 15.2209 38.4285 15.0584 38.4774 15.3632C38.7136 16.8668 37.3938 16.8708 36.6606 17.4357C35.964 17.5576 35.8947 16.9399 35.6137 16.5701C34.2205 15.5664 34.8764 14.2009 34.966 12.933C35.243 11.9089 35.6055 10.9458 36.7909 10.641C37.3164 10.6167 37.5975 11.023 37.9804 11.2791C39.1088 12.043 40.2494 12.4494 41.1415 10.9255Z" fill="#7CAB44"/>
<path d="M40.3234 20.6862C41.8224 18.6015 41.5699 16.021 42.2379 13.7005C42.4457 12.9731 41.2562 12.2985 41.5536 11.3395C43.5211 12.5789 44.1892 14.7205 45.2238 16.6021C45.0853 16.7403 44.9468 16.8825 44.8083 17.0207C44.2951 17.2523 44.0751 16.5696 43.3826 16.5249C44.6006 18.4917 43.2237 19.142 41.9691 19.8572C40.6615 20.418 41.0566 21.7143 40.743 22.7018C39.6024 22.5596 38.4292 22.5555 38.3844 20.8894C38.364 20.1213 38.2133 20.1173 38.4129 20.0969C38.9139 20.0482 39.142 20.2432 39.1258 20.7797C39.1095 21.2348 39.0728 21.8403 39.7694 21.7915C40.4415 21.7468 40.2826 21.1332 40.3234 20.6862Z" fill="#85B648"/>
<path d="M36.2323 16.2452C36.2975 16.6678 36.1509 17.1717 36.6641 17.4359C38.0328 18.911 36.9778 20.5975 37.0715 22.1783C36.5215 21.8085 36.1875 21.2965 36.0612 20.6504C36.1264 19.6994 35.9024 18.8054 35.6335 17.8951C35.4543 17.2815 35.104 16.4524 36.2323 16.2452Z" fill="#BAD387"/>
<path d="M18.7461 18.6094C18.0413 18.7841 17.2429 18.8044 16.6523 19.1661C15.3935 19.9423 15.2184 19.1783 15.0473 18.2436C16.3264 18.7597 16.9456 18.3493 16.8682 16.9554C16.8152 16.0248 16.7582 15.0942 16.7052 14.1636C17.4955 14.5131 18.2084 15.0861 19.1534 14.9804C19.3041 15.911 18.8846 16.866 19.4874 17.8007C19.8663 18.3981 18.8031 18.1502 18.7461 18.6094Z" fill="#A06BAA"/>
<path d="M15.9502 15.6294C15.0051 15.3531 14.2026 15.5238 14.0437 14.6175C14.0274 14.5119 14.2678 14.2802 14.4185 14.2437C15.3554 14.012 15.5387 14.7151 15.9502 15.6294Z" fill="#B68EC0"/>
<path d="M30.1919 12.2191C29.9678 12.7799 29.7479 13.3448 29.5238 13.9056C29.3853 15.6367 28.151 15.5067 26.9412 15.4214C26.2324 14.3851 27.7518 14.1656 27.6948 13.3651C28.2406 12.9546 28.7906 12.5442 29.3364 12.1337C29.5279 11.8574 29.7397 11.5811 30.1226 11.7355C30.3426 11.829 30.2856 12.0403 30.1919 12.2191Z" fill="#80734C"/>
<path d="M30.1916 12.2213C29.9513 11.7255 29.6295 12.071 29.3362 12.136C29.5602 10.8843 30.3546 9.88465 30.8312 8.74272C31.0552 8.20223 31.3933 8.32821 31.7722 8.47857C31.4707 9.82775 30.8434 11.0306 30.1916 12.2213Z" fill="#8E814E"/>
<path d="M31.7797 4.82369C31.9141 4.2832 32.0485 3.73865 32.183 3.19817C32.9447 3.74272 32.3826 4.2832 32.183 4.82775L31.9834 4.83181L31.7797 4.82369Z" fill="#9B9D5F"/>
<path d="M28.1068 25.9574C28.1028 25.8233 28.1028 25.6932 28.1028 25.5591C27.6017 24.9455 28.2576 24.1205 27.728 23.511C27.451 22.6982 27.1781 21.8814 26.9011 21.0686C27.0233 20.898 27.0314 20.707 26.9988 20.5078C26.9133 19.9795 26.8033 19.3334 27.3614 19.0936C28.0987 18.7767 28.2168 19.6991 28.6649 19.9917C29.2556 19.183 28.3513 17.9761 29.4104 17.3137C29.5693 17.2162 29.7444 17.1511 29.9277 17.1064C30.4288 17.0455 31.1416 17.3868 31.0154 16.314C30.9665 15.8751 31.0317 14.8673 32.0337 15.6394C32.1234 15.7369 32.2171 15.9157 32.3148 15.9117C34.3149 15.8629 34.8119 17.0861 34.7875 18.7685C34.8119 18.9595 34.7834 19.1465 34.706 19.3212C34.6653 20.203 35.5492 21.4506 33.5043 21.41C32.6977 21.3937 34.0461 22.3162 33.5002 22.8933C33.0766 22.6982 32.6326 22.495 32.1845 22.2918C32.6733 23.0396 31.5164 24.0636 32.5918 24.7139C30.9054 24.4375 29.7444 26.0508 28.1068 25.9574Z" fill="#965AA0"/>
<path d="M34.7056 19.3294C34.7423 19.2156 34.7178 19.1222 34.6323 19.0409C34.2779 17.773 34.2779 16.5051 34.616 15.2331C34.9256 14.4732 34.7504 13.5466 35.4103 12.9086C35.6792 14.0221 34.3797 15.5257 36.2373 16.245C35.4266 17.009 36.0947 17.7039 36.335 18.4191C36.5998 19.2075 37.1855 20.0327 36.0612 20.6504C35.2995 20.5284 35.2515 19.6708 34.7056 19.3294Z" fill="#A5BE65"/>
<path d="M26.4999 2.00806C27.3309 2.08934 28.2352 1.70328 29.0418 2.4307C28.1252 3.27597 27.3268 2.41851 26.5121 2.35349C26.504 2.23564 26.4999 2.12185 26.4999 2.00806Z" fill="#A1A269"/>
<path d="M41.9638 19.8616C40.9535 17.5737 42.7581 18.87 43.4302 18.7318C43.7968 17.9882 43.0066 17.659 42.8681 17.1104C42.6888 16.3911 43.1084 15.9766 43.7439 15.6149C44.0983 16.0863 44.4527 16.5536 44.803 17.021C44.6645 18.2604 44.5667 19.4958 45.2063 20.65C45.3 21.0726 45.2918 21.4952 45.2022 21.9179C44.8112 22.3527 44.192 22.4096 44.1268 21.8732C43.9679 20.5037 42.8111 20.3858 41.9638 19.8616Z" fill="#7CAB3E"/>
<path d="M45.2031 21.9232C44.7021 21.4965 44.6817 21.0739 45.2072 20.6553C46.0097 20.7163 46.0667 21.2689 46.026 21.8866C45.753 21.8988 45.476 21.911 45.2031 21.9232Z" fill="#A6CA76"/>
<path d="M31.7807 15.802C30.7827 16.3262 31.7522 17.1227 31.4711 17.8704C30.856 18.0289 30.412 17.1471 29.7521 17.4315C29.5973 17.2527 29.6991 17.0536 29.7073 16.8626C29.2795 17.0821 29.6747 17.2487 29.7439 17.4356C28.6644 18.4841 30.2816 20.2884 28.4852 21.1418C27.6827 20.9589 28.5219 19.5854 27.5809 19.3456C26.7132 19.6991 28.1471 20.8776 26.8965 21.0727C26.1348 20.6866 25.3689 20.2965 24.6072 19.9105C25.1042 18.6629 25.6052 17.4153 26.1022 16.1677C26.3792 15.9198 26.6562 15.6719 26.9332 15.424C27.7397 14.8267 29.0922 15.1518 29.5158 13.9042C30.2531 14.1805 31.076 13.5628 31.7848 14.1317C32.074 14.4975 32.905 14.3715 32.7502 15.1355C32.6524 15.6313 32.351 15.9361 31.7807 15.802Z" fill="#9C62A5"/>
<path d="M36.9501 10.8405C37.2474 10.3853 37.6833 10.1537 38.2047 10.0602C38.6487 10.0846 39.0927 10.109 39.5368 10.1293C39.9726 10.6007 40.767 10.3406 41.1458 10.9217C40.7385 11.5516 41.2395 12.8602 40.1478 12.8439C39.329 12.8317 38.4939 12.1856 37.7118 11.7345C37.39 11.5557 37.1985 11.1452 36.9501 10.8405Z" fill="#87B64F"/>
<path d="M41.1415 10.9255C40.6201 10.6329 39.6918 11.157 39.5329 10.1329C39.9362 10.1248 40.3395 10.1207 40.7427 10.1126C41.0686 10.2873 41.1374 10.5923 41.1415 10.9255Z" fill="#7CAB44"/>
<path d="M13.8934 29.9928C13.3679 28.1356 13.3435 26.2379 13.4453 24.3319C13.9179 23.893 14.6104 24.1653 15.1114 23.8158C17.1197 23.5476 17.47 23.8199 17.2174 25.6933C17.0993 26.5548 17.2582 27.266 17.7103 27.9731C18.2643 28.8346 18.0321 29.4645 17.0871 29.8059C17.8081 30.7649 18.9894 30.4886 19.9141 30.8747C20.6718 31.3095 20.0648 30.3504 20.4192 30.3707C22.4031 30.1879 23.2829 30.7609 23.621 32.4473L23.6455 32.4717C21.6209 32.8822 19.5923 33.1991 17.5189 32.8659C16.7897 32.4839 15.9587 32.3092 15.751 31.2485C15.5799 30.3545 14.59 30.3138 13.8934 29.9928Z" fill="#A46BAA"/>
<path d="M13.8933 29.9902C15.2865 29.5635 16.1175 29.852 16.1704 31.5222C16.1908 32.2212 17.1644 32.3106 17.5229 32.8633C16.7163 32.721 15.9097 32.5829 15.1032 32.4406C15.0543 31.4491 14.2396 30.8354 13.8933 29.9902Z" fill="#995BA0"/>
<path d="M15.4776 34.0876C15.1517 33.9047 15.0703 33.6081 15.0825 33.2667C15.8198 33.2464 16.5699 33.178 17.1524 33.8567C16.631 34.2955 16.0194 33.9697 15.4776 34.0876Z" fill="#9C63A5"/>
<path d="M9.35236 33.6943C9.54789 33.6903 9.74342 33.674 9.93895 33.6821C10.3952 33.6984 11.0307 33.6862 10.9044 34.312C10.7618 35.0313 10.1508 34.3364 9.77601 34.4868C9.47864 34.308 9.17313 34.1332 9.35236 33.6943Z" fill="#92539C"/>
<path d="M9.35095 33.6948C9.49352 33.959 9.63609 34.2231 9.77867 34.4873C9.38761 34.5482 8.90693 35.1781 8.64622 34.402C8.47513 33.8858 8.92322 33.7436 9.35095 33.6948Z" fill="#A26CAB"/>
<path d="M2.85784 32.4605C2.92709 32.7937 3.39554 33.0863 2.98411 33.4642C2.93116 33.513 2.71526 33.4845 2.66231 33.4195C2.35272 33.0375 2.51158 32.7246 2.85784 32.4605Z" fill="#B17DB5"/>
<path d="M15.0826 24.3108C14.5449 24.7375 13.995 24.3433 13.4491 24.3311C13.4858 23.3314 14.2068 22.6893 14.7038 21.9253C15.8688 21.0313 16.7446 19.7065 18.3537 19.4789C19.2824 20.3201 19.2947 21.1816 18.4066 22.0594C18.1948 22.2626 17.9545 22.417 17.6815 22.5146C16.6835 22.925 15.8199 23.5264 15.0826 24.3108Z" fill="#985DA2"/>
<path d="M22.8148 19.8737C22.9778 19.8574 23.1407 19.8412 23.3077 19.8249C23.5644 19.9671 23.821 20.1134 24.0776 20.2557C24.6113 20.662 25.1449 21.0684 25.6785 21.4748C25.1653 21.9178 24.8312 22.5964 24.0654 22.7102C23.7232 22.5883 23.487 22.3282 23.2181 22.1047C22.4482 21.4748 21.3565 20.8977 22.8148 19.8737Z" fill="#A36EAC"/>
<path d="M15.0826 24.3108C15.4167 23.0632 16.2193 22.3638 17.5188 22.2581C17.474 22.571 17.7591 22.632 17.9262 22.7864C18.3131 23.1237 18.8468 23.3228 18.9731 23.904C19.0179 24.3469 18.8631 24.7533 18.7327 25.1597C19.5311 25.9968 20.2318 25.1353 20.9732 25.0459C21.6697 24.9605 22.1993 24.0015 22.9488 24.5095C23.8695 25.1353 22.8918 25.9724 23.014 26.708C22.9936 26.903 22.9896 27.1022 22.8185 27.2403C23.1321 27.1184 22.957 26.8299 23.0344 26.6186C23.0833 26.2569 23.0222 25.7977 23.6332 25.9562C25.116 26.2853 24.1342 27.2891 24.2035 28.1181C25.0956 28.366 25.9795 27.3907 26.8798 27.9799C26.6191 30.0687 25.6577 31.6455 23.625 32.4542C22.8755 31.2472 21.906 30.4832 20.3744 30.8368C20.4762 31.2107 20.3377 31.3448 19.967 31.2432C18.3294 31.6821 17.3599 30.3532 15.7672 29.6258C17.6695 29.5283 18.2439 29.0081 16.8548 27.6467C16.3986 27.1997 16.4678 26.4195 16.7082 25.7367C17.3518 23.9324 16.6265 23.6402 15.0826 24.3108Z" fill="#96569D"/>
<path d="M18.7487 23.9349C18.4839 23.3822 17.4614 23.6138 17.5063 22.7401C17.7507 22.5207 18.3128 22.4678 17.9421 21.9192C18.9605 21.2528 18.6061 20.3587 18.3536 19.4809C19.873 19.2574 21.368 19.2778 22.8141 19.8751C21.8975 21.0577 23.0585 21.3787 23.6736 21.9273C23.8284 22.5044 23.2214 23.4269 24.4028 23.5447C25.2175 24.6907 23.6043 25.0605 23.6329 25.9586C23.3029 26.1293 23.2337 26.4341 23.2214 26.7633C23.0911 26.9624 22.9607 26.9624 22.8304 26.7633C23.3233 24.9142 22.6185 24.4713 21.1195 25.4872C20.0685 26.1984 18.8913 25.7148 17.9136 26.2919C17.4737 25.5238 18.3332 25.4994 18.3943 25.0768C18.6346 24.9671 18.8953 24.9914 19.1479 24.9467C19.6082 24.8614 19.8608 24.4713 19.7467 24.1137C19.5878 23.6382 19.0542 24.2275 18.7487 23.9349Z" fill="#A670AE"/>
<path d="M24.3995 23.5389C24.2488 23.799 23.9555 24.3272 23.7763 23.9005C23.54 23.3316 22.4931 22.6204 23.6663 21.9215C23.7966 22.1856 23.927 22.4457 24.0573 22.7099C24.0288 23.0471 24.094 23.3438 24.3995 23.5389Z" fill="#C79DC8"/>
<path d="M25.3311 25.7406C25.6244 25.8869 25.6651 26.151 25.5877 26.4152C25.5144 26.6753 25.3352 26.9313 25.0297 26.8094C24.9197 26.7647 24.8708 26.4558 24.883 26.2689C24.8952 26.0088 24.94 25.7122 25.3311 25.7406Z" fill="#AC76B1"/>
<path d="M27.7311 23.5131C28.9328 23.9967 27.6944 24.9313 28.1058 25.5612C27.4622 24.972 27.7922 24.208 27.7311 23.5131Z" fill="#93549D"/>
<path d="M31.7797 15.803C32.9814 15.2543 32.3011 14.6935 31.7878 14.1368C32.9203 14.0149 33.6902 14.8155 34.6108 15.234C34.6189 16.5019 34.623 17.7739 34.6271 19.0418C34.4723 18.7655 34.1912 18.4932 34.179 18.2087C34.126 16.9286 34.0812 15.9045 32.2889 16.8148C31.7267 17.1034 31.8693 16.2053 31.7797 15.803Z" fill="#A174AA"/>
<path d="M32.8991 19.6902C33.2047 19.7878 33.5753 19.8609 33.6039 20.2429C33.6364 20.6574 33.2454 20.7509 32.948 20.824C32.5447 20.9216 32.3329 20.6493 32.3044 20.2957C32.2718 19.9178 32.5162 19.7187 32.8991 19.6902Z" fill="#9D65A5"/>
<path d="M32.1877 22.2971C31.8293 22.4109 31.3771 22.7442 31.2182 22.1346C31.1205 21.7485 31.3527 21.2406 31.813 21.2975C32.3466 21.3625 32.1185 21.9355 32.1877 22.2971Z" fill="#9D65A5"/>
<path d="M29.7485 17.4345C29.3493 17.3329 28.6812 17.6783 28.6567 16.9428C28.6405 16.4957 29.1048 16.2844 29.5163 16.2438C29.9521 16.1991 30.5958 15.9634 30.718 16.5852C30.8279 17.1581 29.9318 16.9631 29.7566 17.4304C29.7525 17.4304 29.7485 17.4345 29.7485 17.4345Z" fill="#D0B1D5"/>
<path d="M15.388 25.1514C15.388 26.1755 15.388 27.1996 15.388 28.691C13.9215 27.2402 14.8299 26.1999 15.388 25.1514Z" fill="#F2E0EF"/>
<path d="M19.967 31.236C20.1015 31.1019 20.24 30.9637 20.3744 30.8296C20.7003 30.8824 21.0995 30.9149 21.018 31.3619C20.9814 31.5651 20.7084 31.8374 20.5088 31.874C20.0607 31.9593 20.02 31.5651 19.967 31.236Z" fill="#B07BB4"/>
<path d="M17.9418 21.9159C18.3247 21.9524 18.8013 21.9565 18.6058 22.5376C18.3858 23.196 17.9133 22.8912 17.5059 22.7327C17.2412 22.5661 17.2656 22.4076 17.5182 22.2491C17.6607 22.1434 17.7992 22.0297 17.9418 21.9159Z" fill="#D6B4D7"/>
<path d="M18.7489 23.9335C19.3395 23.6978 19.5962 22.8932 20.5127 23.076C19.421 23.3971 21.4904 26.6522 18.3904 25.0754C18.5126 24.6975 18.6307 24.3155 18.7489 23.9335Z" fill="#DEC4DF"/>
<path d="M22.8274 26.7561C22.9578 26.7602 23.0881 26.7602 23.2185 26.7561C22.9415 28.0444 22.9415 28.0444 21.7887 28.1256C21.805 27.4104 22.7215 27.382 22.8274 26.7561Z" fill="#9C5FA3"/>
<path d="M19.8355 28.3936C19.8151 28.4058 19.591 28.5521 19.3466 28.6171C19.0452 28.6984 18.8008 28.5277 18.8985 28.2229C18.9637 28.0197 19.2244 27.8328 19.4403 27.7353C19.6481 27.6459 19.7866 27.8287 19.8355 28.3936Z" fill="#A36AAA"/>
</svg>
