<svg width="52" height="52" viewBox="0 0 52 52" fill="none" xmlns="http://www.w3.org/2000/svg">
<path d="M37.4684 33.8829C36.0088 34.7339 34.4224 34.23 32.9017 34.2442C31.6157 34.2585 31.0431 34.52 30.785 35.9936C29.9261 40.9471 28.1472 45.544 24.6318 49.252C22.5104 51.4911 19.8633 52.2802 16.8266 51.9141C14.0528 51.5766 11.8422 50.4357 10.988 47.5977C9.89439 43.9848 11.6779 41.1182 13.8416 38.575C15.4092 36.7352 16.4934 34.7196 17.249 32.4663C17.6386 30.831 18.5257 29.3668 18.8073 27.6935C19.0185 26.7047 19.2625 25.7207 19.3939 24.7271C19.8727 21.0287 20.45 20.4772 24.1719 20.3441C24.477 20.3346 24.7867 20.3346 25.0918 20.3298C26.5515 20.2823 27.9501 20.6151 29.33 21.0477C30.0528 21.3947 30.7239 21.8225 31.2918 22.4025C32.5075 24.2565 31.8128 26.3434 31.9959 28.321C32.0006 28.5729 31.9959 28.8297 31.9818 29.0864C31.4186 33.0558 31.4186 33.0558 35.3141 33.1841C35.8539 33.2032 36.3983 33.1984 36.9146 33.3981C37.1493 33.5026 37.3323 33.6643 37.4684 33.8829Z" fill="#FAE7CB"/>
<path d="M16.8268 1.54271C23.4398 -0.677323 30.0013 -0.468155 36.5205 1.95629C36.666 2.1607 36.6754 2.36987 36.5252 2.57904C36.1544 2.87853 35.7085 2.95934 35.2533 2.99737C33.9532 3.14949 32.4654 2.99737 32.2213 4.88463C32.3574 6.10161 31.5783 6.56748 30.6161 6.88123C30.4237 6.94779 30.2266 6.98582 30.0294 7.00483C29.3864 6.98106 28.9781 7.45169 28.4947 7.77019C27.6358 7.97936 27.1336 8.69719 26.4812 9.20109C26.0353 9.54812 25.4815 10.0901 25.0309 9.1488C24.9746 8.69243 25.1717 8.30737 25.3688 7.92707C26.1057 6.24422 25.2327 4.78005 24.7587 3.25883C26.2184 1.01503 26.7863 0.872419 30.4378 1.82318C27.7531 0.58719 25.167 1.99432 22.5105 2.46019C22.2148 2.36036 22.5434 2.79771 22.6373 2.49347C22.6466 2.45544 22.7217 2.47921 22.8672 2.5315C23.0878 2.60756 23.285 2.7169 23.4492 2.89279C23.5149 3.23506 23.3882 3.52504 23.1254 3.70569C22.595 4.07173 22.3885 4.63268 22.6654 5.07479C22.6044 5.31723 22.4495 5.46935 22.2242 5.56918C22.1867 5.58344 22.3228 5.67377 22.5011 5.57869C23.2286 5.17937 23.9843 5.17937 24.7587 5.37903C25.7537 5.92096 25.7537 6.65305 24.8385 7.13794C23.299 7.95084 21.7549 9.14405 19.8634 7.97936C19.2486 7.7797 19.4129 6.83845 18.4648 6.74337C17.7795 6.67207 18.4789 5.99702 18.7511 5.4646C17.0708 6.80993 18.798 8.94914 17.4087 10.2089C16.9676 10.6082 16.4419 10.8507 15.8834 11.0218C15.2028 11.1597 14.1093 11.3213 14.2078 10.4941C14.4002 8.92537 13.2316 9.64795 12.7294 9.29141C12.1005 8.6449 12.7106 8.28836 13.0532 7.87002C13.8276 7.3994 14.5223 6.80993 15.2404 6.28701C15.2498 5.87343 14.9212 6.12062 14.7569 6.04932C13.1189 7.87002 10.5094 7.61807 8.68831 8.99668C8.59444 9.09175 8.52873 9.21535 8.49588 9.35797C8.59914 9.26289 8.6977 9.16306 8.79157 9.03946C9.15766 8.778 9.51436 8.80177 9.87576 9.03946C10.0682 9.31994 10.1198 9.63369 10.101 9.96645C10.0166 10.7841 9.65047 11.616 10.2653 12.5668C10.9083 11.9108 10.852 11.0028 11.2462 10.3277C11.5325 9.82384 11.8752 9.396 12.5323 9.43878C13.3114 10.4656 12.9547 11.7681 13.363 12.89C13.3395 13.1182 13.2691 13.3274 13.1518 13.5223C12.3117 14.5111 11.0679 14.725 9.97432 15.2337C9.28907 15.5474 8.66484 16.1369 7.81064 15.7946C7.55719 15.4619 7.43516 15.0625 7.58066 14.687C8.07816 13.3939 7.8388 12.8948 6.31812 12.871C5.76898 12.8615 3.63815 13.0802 4.76458 11.0884C4.73173 11.0551 4.79744 10.9267 4.75989 10.9648C4.65663 11.0646 4.59093 11.2024 4.4642 11.307C4.1779 11.5827 4.08873 11.9773 3.84467 12.2625C3.56306 12.5906 3.27207 13.1277 2.78864 12.8187C2.23951 12.467 2.49765 11.887 2.69946 11.3878C3.87283 9.29141 5.41228 7.54201 7.43985 6.24898C8.04062 6.06833 8.66954 6.08735 9.27969 6.06833C10.4906 6.0303 9.68332 5.26494 9.78189 4.83234C10.5281 4.33319 11.2744 3.8388 12.016 3.33965C13.8934 3.51554 15.8975 4.00042 16.8268 1.54271Z" fill="#C79963"/>
<path d="M13.0483 12.9043C12.2176 11.8727 12.4663 10.6843 12.5555 9.51961C12.4429 9.36748 12.4476 9.22487 12.6025 9.10127C13.4661 9.11553 14.5972 8.46426 14.5455 10.2897C14.5221 11.1407 15.4091 10.3658 15.8503 10.5274C16.6294 10.9125 17.3288 10.2802 18.0844 10.3563C18.4693 10.922 18.8354 10.2422 19.2155 10.3325C19.7224 10.4086 20.2059 10.5464 20.6048 10.8982C20.7691 11.5875 20.9709 12.2721 20.6189 12.9709C19.6567 13.142 18.8448 13.5651 18.3003 14.397C18.244 14.6537 17.6104 14.0975 17.8497 14.6442C18.122 15.267 18.2064 15.7946 17.8216 16.3603C17.2912 16.7929 16.6201 16.8357 16.0099 17.0449C14.8412 17.3586 13.4895 17.1875 12.6682 18.3902C12.5461 18.5661 12.4053 18.7277 12.2598 18.8846C11.0255 20.035 9.26072 20.6007 8.57547 22.3501C8.42528 22.4975 8.23754 22.5783 8.03573 22.6021C6.43995 23.9332 6.83889 25.3688 7.82921 26.8235C7.95594 26.9851 8.06389 27.1657 8.14367 27.3559C8.20938 27.546 8.26101 27.7457 8.30795 27.9406C8.86177 29.0245 10.2604 29.4523 10.4622 30.8024C10.4716 31.0211 10.4012 31.2112 10.2463 31.3681C8.39243 30.8927 6.42587 30.6931 5.03661 29.1196C5.09762 27.1705 5.71247 26.4669 2.61479 27.2275C-1.09774 21.9318 -0.661244 16.6551 2.68988 11.3926C2.71804 11.7539 2.7462 12.1199 2.77906 12.5478C3.62857 12.1865 3.55348 10.9315 4.59542 11.0028C4.73623 10.7699 4.89111 10.7699 5.06008 10.9695C3.92895 12.6999 6.6934 11.3831 6.27568 12.562C10.4857 11.2452 8.09674 13.9406 7.90431 15.305C7.88084 15.4571 7.89492 15.614 7.89023 15.7709C8.12959 16.3889 7.58046 16.5315 7.27069 16.8215C6.16304 16.4982 5.13048 15.8945 3.93365 15.9277C3.78346 15.3525 4.0416 14.8724 4.30912 14.3162C3.90549 14.8676 3.60041 15.3953 3.3188 15.9182C3.3188 16.5552 4.44054 16.3936 4.21525 17.1875C3.93834 18.181 3.02312 18.4615 2.21115 18.9417C2.94333 18.9607 3.50185 18.3237 4.20587 18.6659C4.9005 19.6642 5.49187 20.6578 4.3279 21.2282C5.14925 19.631 7.15805 19.7546 9.486 19.398C8.08266 19.0748 6.93746 19.3647 6.4775 18.3902C6.11141 17.6153 6.8342 17.1209 7.42558 16.7121C8.1953 16.0608 9.56579 16.1654 9.76292 14.8011C10.8565 14.3305 11.9548 13.8551 13.0483 13.3845C13.8556 13.2513 13.6022 13.8598 13.5928 14.2306C13.5552 15.6568 14.2123 15.3002 14.9445 14.7916C15.1792 14.5729 15.4044 14.3447 15.4091 14.3447C15.3763 14.3637 15.1181 14.6062 14.86 14.8534C13.222 14.4398 13.8368 13.18 13.9636 12.1104C13.8228 12.6429 13.7289 13.0992 13.0483 12.9043Z" fill="#CC9E69"/>
<path d="M36.511 2.44583C36.511 2.2842 36.5157 2.12258 36.5157 1.96095C38.7404 2.49813 40.8337 3.31103 42.589 4.85602C42.7017 5.7735 43.584 5.41696 44.044 5.75924C45.269 6.72902 46.5409 7.65601 47.32 9.08215C47.5359 9.53376 47.2543 9.69064 46.907 9.81424C46.2687 9.84751 45.8744 9.44344 45.499 9.00609C44.5697 7.94124 43.3259 8.42613 42.2229 8.3358C42.1525 8.5212 41.6409 7.81288 41.8756 8.46891C42.0681 9.00609 42.4388 9.47672 42.4341 10.09C42.3684 10.5558 42.1385 10.9076 41.7348 11.1406C41.0308 11.2641 40.5051 11.0074 40.1625 10.3799C40.2329 9.66212 39.7589 9.74768 39.3083 9.79998C38.853 9.59081 38.4306 9.46721 38.3039 10.1755C37.2901 10.0329 36.8818 9.10592 36.2012 8.52596C34.8261 7.34701 35.4738 9.3246 34.8965 9.38164C33.9061 9.78571 33.174 9.35787 32.5263 8.63529C31.0103 7.30898 32.2963 6.72902 33.1927 6.04447C33.3617 5.87333 33.5494 5.7117 33.4321 5.42172C32.944 5.06043 32.3385 5.06518 31.8176 4.82749C31.7565 2.37928 33.5354 2.55993 35.1171 2.4601C35.394 2.964 36.4124 3.01629 36.0041 3.94328C35.8164 4.28556 35.2485 3.99082 35.1875 4.3426C35.1452 4.60406 35.103 4.23327 35.3752 4.37588C36.0041 4.70865 35.9102 4.13344 36.0557 3.84821C36.9804 3.63429 37.323 3.23021 36.511 2.44583Z" fill="#CB9C67"/>
<path d="M7.88535 27.6315C7.89004 27.4794 7.89004 27.3273 7.89004 27.1799C7.96044 27.1039 8.02615 27.0231 8.09186 26.947C8.34531 26.8044 8.60814 26.7045 8.90852 26.7521C8.58467 26.5714 8.17634 26.657 7.86188 26.4241C6.66505 25.5684 6.89503 24.3752 7.10154 23.1915C8.04023 22.255 8.42509 23.2961 8.86159 23.7714C10.0303 25.0455 11.382 25.8774 13.1373 25.9202C13.7005 26.001 14.2168 26.1911 14.6111 26.6332C15.071 26.6665 14.245 27.7456 15.2118 27.3796C16.5542 26.8757 17.8777 27.0753 19.1919 27.5317C19.3421 27.7314 19.3327 27.931 19.1684 28.1212C18.7882 29.6899 18.7835 31.4298 17.2441 32.4709C15.1837 32.1524 13.1232 31.8339 11.0628 31.5154C12.0484 30.983 13.0341 31.1541 14.0197 31.4156C12.8276 30.8118 11.443 31.5677 10.2321 30.9877C9.88945 29.6567 8.10125 29.5426 7.88066 28.1164C8.97423 27.8217 9.77212 28.4492 10.5888 29.0149C11.2928 29.5045 12.1095 29.5616 12.5319 29.6091C10.9549 29.7185 9.64539 28.0784 7.88535 27.6315Z" fill="#D0A36F"/>
<path d="M46.8179 9.59058C46.9868 9.41945 47.1558 9.25329 47.32 9.08215C48.024 10.2468 49.4133 10.9407 49.5917 12.4666C49.0379 13.2272 50.0235 13.7454 49.8921 14.4395C49.7935 14.758 49.587 14.9624 49.2725 15.048C48.8267 14.9862 48.3808 14.9434 48.3573 15.6137C47.6908 17.3963 45.8932 17.2965 44.5509 17.924C44.0112 18.176 43.5277 17.8194 43.2837 17.2109C42.8425 16.1128 42.9176 15.2143 44.1191 14.6962C45.0484 13.7312 43.7718 13.2843 43.6263 12.5712C43.1382 11.7488 42.7439 10.8789 42.4154 9.9804C42.3872 9.3624 41.7255 8.80621 42.2417 8.14067C43.5888 7.32777 44.856 7.12336 45.8839 8.64933C45.6351 9.52403 45.7149 10.0707 46.8179 9.59058Z" fill="#D2A775"/>
<path d="M44.0206 32.3851C42.9129 33.0458 41.6785 33.2455 40.4348 33.4024C39.4914 33.7209 38.5151 33.5117 37.5624 33.5735C37.3324 33.583 37.1212 33.5212 36.924 33.4071C36.863 32.4944 37.5717 32.4469 38.1537 32.3898C39.2849 32.2805 38.4119 31.634 38.4917 31.2489C38.4213 30.8306 38.5621 30.3124 37.9754 30.1413C37.0226 30.0034 36.0417 29.6231 35.2579 30.5691C35.0654 30.6594 34.8636 30.6832 34.6571 30.6452C34.1174 30.3219 33.5635 30.0272 33.1224 29.5613C33.0613 29.3379 33.0848 29.1239 33.1928 28.9195C33.5072 28.5725 33.9062 28.3728 34.338 28.2207C35.2062 27.9498 36.1356 28.0353 36.9991 27.7311C39.5618 27.2985 41.9742 26.6329 43.0068 23.7997C44.3679 24.817 44.4852 26.3667 43.34 27.8166C42.9176 28.3538 42.1338 28.5582 41.9977 29.3331C42.3966 30.3885 43.279 29.9273 43.9924 29.9939C44.3116 30.0177 44.6072 30.1032 44.8748 30.2886C45.3817 31.3202 44.213 31.6482 44.0206 32.3851Z" fill="#C99C67"/>
<path d="M51.53 17.668C52.2668 19.2415 52.0228 20.8293 51.5769 22.4171C50.549 22.688 50.8306 24.1284 49.845 24.4327C49.4836 23.9858 49.1786 24.3233 48.8594 24.542C46.7943 25.6069 46.0011 24.2188 45.2971 22.6643C45.5787 21.9227 45.0812 22.0035 44.6259 22.032C43.8562 21.4425 43.8562 20.6486 44.2551 19.9213C44.7339 19.0419 45.6068 19.3081 46.3484 19.4887C47.9536 19.8785 49.5446 20.4395 51.1686 19.5743C51.2531 19.7739 51.2765 19.9879 51.2765 20.2018C51.2906 20.0972 51.3141 19.9593 51.2859 19.793C51.192 19.27 50.9433 18.7614 51.1404 18.2099C51.2202 17.9913 51.3516 17.8154 51.53 17.668Z" fill="#D1A470"/>
<path d="M44.0206 32.3851C43.2696 31.2109 44.6542 31.1068 44.9593 30.465C44.6589 30.0134 44.3585 30.1417 44.0629 30.465C42.9505 30.6884 41.9179 30.6647 41.2139 29.5618C41.81 28.4161 43.2509 28.1832 43.847 27.0423C44.3398 26.5764 44.5369 25.8015 45.2972 25.6019C45.4944 25.6399 45.6774 25.7112 45.8511 25.8063C46.4659 26.2056 47.1746 26.0963 47.8505 26.1866C48.1649 26.2341 48.4512 26.3387 48.7047 26.5431C48.8783 28.283 47.1793 29.1862 46.8883 30.7217C46.1139 31.6059 45.1892 32.2092 44.0206 32.3851Z" fill="#CEA372"/>
<path d="M16.8268 1.54271C16.9863 1.94678 17.9436 2.20391 17.0612 2.79338C16.3713 3.2545 15.8503 3.92003 14.8459 3.92954C13.8227 3.93905 12.6447 5.19406 12.0063 3.34482C13.5129 2.46537 15.109 1.8422 16.8268 1.54271Z" fill="#CDA473"/>
<path d="M46.8834 30.722C46.6722 28.9916 47.7751 27.8697 48.7138 26.6765C48.3524 26.3438 48.3102 25.9397 48.4416 25.4881C48.5401 25.2837 48.6997 25.1458 48.9156 25.0697C49.1409 25.0555 49.3521 25.0983 49.5586 25.1886C50.2673 25.5451 50.5114 26.0823 50.1829 26.8429C49.5164 28.5115 48.3618 29.757 46.8834 30.722Z" fill="#C69763"/>
<path d="M2.61479 27.2275C3.45022 26.8187 3.97596 25.0645 5.13055 26.2482C5.76417 26.8947 6.36016 28.2116 5.03661 29.1196C4.20117 28.5301 3.18269 28.1783 2.61479 27.2275Z" fill="#D0A36F"/>
<path d="M50.1829 26.8429C50.2298 26.0395 49.4462 25.7444 49.1552 25.1501C49.0472 24.6605 49.3101 24.4371 49.7325 24.323C50.7322 24.0663 49.3663 21.4711 51.5769 22.4171C51.6567 24.0666 50.9854 25.4738 50.1829 26.8429Z" fill="#CB9C67"/>
<path d="M51.53 17.668C51.5065 17.8391 51.4832 18.0097 51.4644 18.1809C51.3001 18.5089 51.1171 18.8084 50.6712 18.661C49.6152 17.387 49.9625 15.7802 49.6762 14.3255C49.4321 13.7123 48.822 13.1181 49.5964 12.462C50.4365 14.1211 51.5441 15.6809 51.53 17.668Z" fill="#C0905B"/>
<path d="M9.77227 4.84201C10.1337 5.10823 10.8001 5.37444 10.8001 5.6359C10.8001 6.2016 10.2369 6.54388 9.68309 6.66748C8.8899 6.84337 8.13425 6.68174 7.43023 6.25865C8.12956 5.65016 8.76317 4.92758 9.77227 4.84201Z" fill="#CDA473"/>
<path d="M44.044 5.75924C43.3071 5.48827 43.0676 7.00002 42.326 6.32498C41.8426 5.88763 42.4434 5.34569 42.5889 4.8513C43.077 5.15554 43.5606 5.45499 44.044 5.75924Z" fill="#DEBB93"/>
<path d="M10.2371 30.988C11.4809 30.988 12.7247 30.988 13.9684 30.988C13.9684 31.102 13.9684 31.2161 13.9684 31.3302C13.0016 31.392 12.0347 31.4538 11.0632 31.5109C10.791 31.4633 10.5141 31.4158 10.2418 31.3683C10.2465 31.2447 10.2418 31.1163 10.2371 30.988Z" fill="#BF8E51"/>
<path d="M36.9803 33.3454C38.1302 33.3644 39.2801 33.3834 40.43 33.4072C39.5147 34.0109 38.4399 33.6258 37.4637 33.8873C37.2994 33.8398 37.1399 33.7875 36.9756 33.7399C36.877 33.6496 36.8442 33.564 36.877 33.4785C36.9146 33.3881 36.9474 33.3454 36.9803 33.3454Z" fill="#D0A16C"/>
<path d="M19.1734 28.1215C19.1452 27.9647 19.1171 27.803 19.0889 27.6462C18.8026 27.4845 18.5351 27.2991 18.4365 26.9569C18.0563 26.7619 18.8965 25.7351 17.8686 26.0489C17.3758 26.201 16.883 26.7049 16.4465 26.201C16.0006 25.6828 16.545 25.217 16.8173 24.7844C17.0238 24.4563 17.2209 24.1378 17.1834 23.729C17.1223 23.4343 17.0989 23.1443 17.2678 22.8828C17.5729 22.9161 17.2162 22.9209 17.4556 22.7687C17.6105 22.6689 17.5307 22.6166 17.3711 22.6594C15.0995 23.2917 10.697 22.8305 8.50047 21.5993C11.8844 20.1161 15.0338 21.0621 18.1502 21.2856C18.4647 21.3331 18.108 20.7864 18.1924 21.0907C18.4834 22.1508 13.499 20.1019 12.0534 18.5664C12.0816 18.4428 12.105 18.3144 12.1144 18.1861C12.4664 17.8105 12.9029 17.7487 13.3817 17.8105C14.4612 18.2479 15.4656 18.8849 16.5873 19.2224C17.6996 19.5599 18.8871 19.6598 19.6474 20.1542C18.3802 19.5837 17.3852 18.2336 16.1883 17.1212C16.1602 16.874 16.2541 16.6791 16.4418 16.5317C17.2397 16.5698 18.0188 16.218 18.8214 16.3844C19.0326 18.0197 20.4969 18.5379 21.7548 19.7216C21.1728 18.5711 20.22 17.8153 20.91 16.6934C21.0977 16.565 21.3042 16.527 21.5248 16.5555C22.1303 16.817 22.3837 17.4397 22.8343 17.8486C23.1957 18.1766 23.3506 19.6455 24.2658 17.9769C24.9041 16.8075 25.3781 18.7375 26.1009 18.7898C27.3259 18.0862 25.7161 17.2496 26.2605 16.5317C26.8049 16.1657 27.3775 16.1847 27.9642 16.3986C28.3068 16.5698 28.5509 16.8312 28.7011 17.1878C28.6823 18.4333 28.3068 19.5694 27.6685 20.62C26.8988 20.9575 26.0117 20.4489 25.2655 20.9671C24.4911 20.9766 23.7026 20.9243 22.9375 21.0146C21.1775 21.2285 19.8399 21.78 20.0464 24.076C20.1684 25.4451 19.807 26.8475 19.1734 28.1215Z" fill="#EDD0AA"/>
<path d="M31.3811 28.6156C31.0854 26.5667 31.8551 24.4228 30.8507 22.4357C32.5967 20.9145 34.3333 21.7179 36.0699 22.4594C35.9572 23.9236 34.7416 23.0109 34.1221 23.3817C34.0939 23.4055 34.1925 23.3579 34.399 23.3674C35.5301 23.4292 37.4544 23.3579 37.2761 24.4941C37.0273 26.0771 35.3987 24.7603 34.3661 24.7603C33.9954 24.7603 33.5964 24.7032 33.5354 24.6414C34.0517 24.9029 35.0326 24.7365 35.7695 25.2927C36.4266 25.7871 37.3277 26.1246 36.8584 27.256C35.9197 27.6601 35.2485 27.1229 34.5773 26.5858C34.5257 26.7141 33.5964 25.3688 34.3004 26.7616C34.2723 27.1134 34.0705 27.3131 33.756 27.4272C32.8595 27.3654 32.3057 27.836 31.9396 28.6156C31.7613 28.7345 31.5735 28.7392 31.3811 28.6156Z" fill="#E4C398"/>
<path d="M36.9803 33.3454C36.9803 33.4785 36.9803 33.6068 36.9756 33.7399C36.4358 33.778 35.9006 33.8683 35.3609 33.8492C30.5595 33.6829 30.3107 34.8428 31.3761 29.0717C31.991 28.6771 32.6058 28.4917 33.2254 29.0717C33.2254 29.2285 33.2254 29.3807 33.2254 29.5375C33.2066 30.2078 33.859 30.3647 34.1641 30.7878C34.3799 31.1111 34.2767 31.5341 34.502 31.8526C35.497 32.0713 36.3044 32.599 36.9803 33.3454Z" fill="#CD9E66"/>
<path d="M36.0227 22.8583C34.3471 22.15 32.6012 22.2974 30.8552 22.4352C30.2169 22.4067 29.7569 22.1072 29.4612 21.5368C29.3251 21.3419 29.311 21.1422 29.419 20.9283C30.5407 19.7018 31.9065 18.7986 33.2629 17.8763C33.5821 17.7385 33.9153 17.6862 34.2579 17.7052C34.7226 17.7908 35.1403 17.9381 35.2107 18.5038C34.4457 19.3833 33.3709 19.8539 32.5026 20.6003C32.4604 20.6383 32.451 20.7619 32.4791 20.8142C32.5073 20.8665 32.6059 20.8808 32.6856 20.914C32.9719 21.0139 33.2442 21.1232 33.5211 21.223C35.9711 21.532 38.468 20.9045 40.8945 21.6128C41.1526 21.7507 41.2747 21.9694 41.2653 22.2641C39.6132 23.2909 37.9141 23.947 36.0227 22.8583Z" fill="#EBD0AD"/>
<path d="M23.0971 44.6552C22.9188 46.0052 22.4541 46.6755 21.2901 47.0416C21.4591 45.9387 21.9707 45.3064 23.0971 44.6552Z" fill="#F0D7B3"/>
<path d="M29.4895 20.9715C29.4801 21.1569 29.4707 21.3471 29.4613 21.5325C28.0627 21.3471 26.664 21.1569 25.2654 20.9715C25.9271 20.1871 26.8377 20.6387 27.6262 20.4819C27.8233 20.2537 28.0814 20.1919 28.3677 20.2299C28.7338 20.3155 29.0483 20.4961 29.3346 20.7386C29.3909 20.8146 29.4378 20.8907 29.4895 20.9715Z" fill="#E4C398"/>
<path d="M33.23 29.0677C32.6152 29.0677 31.9956 29.0677 31.3808 29.0677C31.3433 28.9155 31.3433 28.7634 31.3808 28.6113C31.5404 28.5923 31.6953 28.5685 31.8548 28.5495C32.5025 28.0266 33.1925 27.979 33.9153 28.3688C33.9951 28.4639 34.0701 28.5637 34.1452 28.6588C33.8402 28.7967 33.5351 28.9345 33.23 29.0677Z" fill="#CEA370"/>
<path d="M34.1877 18.0811C33.8826 18.0859 33.5822 18.0907 33.2772 18.0907C33.1692 18.1002 33.0613 18.1097 32.9533 18.1192C31.9583 18.2951 31.0384 17.8007 30.0621 17.7769C29.4942 17.7199 28.9357 17.6438 28.5274 17.1732C28.3443 17.0306 28.166 16.8879 27.9829 16.7453C28.1425 16.5552 28.349 16.4791 28.5884 16.4839C28.5415 16.3793 28.4429 16.4411 28.3725 16.4173C27.3071 16.0893 26.2276 16.3508 25.1528 16.327C23.956 16.2985 22.6793 16.1654 23.2332 14.3304C24.0029 13.4747 24.8759 13.2465 25.9178 13.8503C26.481 14.1735 26.9832 14.9104 27.7389 14.3256C27.997 14.126 27.8985 13.6221 27.6826 13.4747C27.0583 13.0564 26.8377 12.1009 25.7207 12.2815C24.7679 12.4336 23.5758 13.1039 22.7967 11.7966C22.7122 11.5874 22.684 11.3735 22.7028 11.1501C22.7732 10.9409 22.8812 10.7508 23.022 10.5844C23.7166 10.0234 24.0029 8.83024 25.2373 9.07268C26.2886 9.56232 26.5327 8.51173 26.8659 8.02209C27.3916 7.24247 27.8891 7.28525 28.5602 7.64178C28.5884 7.73686 28.6166 7.83669 28.6447 7.93177C28.5931 8.12667 28.5039 8.30256 28.3866 8.45469C28.2692 8.68762 27.8468 8.90154 28.3584 9.17251C28.5368 9.21054 28.6963 9.26759 28.8606 9.33889C29.3722 9.64314 29.7946 10.052 30.2076 10.4703C31.0102 11.8061 33.0002 11.5542 33.6432 13.0992C33.8779 12.7379 34.1689 12.4717 34.6336 12.4859C35.7694 12.5762 36.1214 13.3178 35.8961 14.2924C35.5816 15.6615 35.3564 17.1019 34.1877 18.0811Z" fill="#CC9F6A"/>
<path d="M20.5531 12.9092C20.5249 12.2627 20.1213 11.6209 20.5484 10.9696C20.2621 10.3754 20.3513 9.63855 19.8678 9.11563C19.7834 8.92548 19.7317 8.72582 19.713 8.51665C19.7177 8.18388 19.8256 7.89865 20.0791 7.67523C21.8907 8.53566 23.2143 6.99543 24.7772 6.65791C25.2231 6.56283 25.1949 6.07795 24.7866 5.76895C24.1389 4.93228 23.1955 5.55978 22.4352 5.27931C22.5525 4.5187 21.7358 4.49493 21.4355 4.03381C22.1207 3.67727 22.9139 3.59646 23.3739 2.93092C24.0497 2.46505 24.4815 2.74077 24.7819 3.40631C26.2181 4.05758 26.7062 6.51054 25.73 8.14585C24.444 8.44059 23.632 9.45315 22.6745 10.2328C21.8766 10.846 21.8766 11.7778 21.7405 12.6572C21.6889 12.8664 21.5903 13.0518 21.4542 13.2134C21.2008 13.4321 20.9192 13.5509 20.5812 13.4654C20.4686 13.3465 20.4264 13.2229 20.4592 13.0993C20.4874 12.9757 20.5202 12.9092 20.5531 12.9092Z" fill="#C89964"/>
<path d="M24.7821 3.41605C24.3127 3.25917 23.8434 3.09754 23.374 2.94066C22.7217 2.81707 21.9989 3.18786 21.0742 2.39873C24.937 1.13897 28.5321 0.435408 32.4183 1.7427C31.9912 2.65068 31.2027 2.46528 30.5128 2.37972C29.7478 2.28464 28.9921 2.10875 28.2412 1.93761C27.2555 1.71418 26.0587 0.944065 26.0399 2.96443C26.0352 3.11656 25.2186 3.26392 24.7821 3.41605Z" fill="#D4AB7A"/>
<path d="M8.35482 9.10146C8.46277 7.85596 9.68776 7.92727 10.3918 7.48041C11.476 6.78636 13.2548 7.37108 13.7805 5.48857C13.879 5.14154 14.6112 5.32218 14.9257 5.77855C15.1322 6.14459 15.6672 5.87838 15.855 6.27295C15.2871 7.21895 14.292 7.58975 13.4191 8.12218C12.0298 7.72761 11.3305 9.81453 9.86611 9.13949C9.4484 9.11097 9.05884 9.15375 8.81947 9.57209C8.35482 9.73372 8.2234 9.55307 8.35482 9.10146Z" fill="#CC9E69"/>
<path d="M31.8222 4.82273C32.7139 4.33309 33.493 4.52799 34.183 5.23156C33.6995 5.40745 33.54 5.73546 33.7324 6.2251C33.7465 7.03801 31.503 6.69573 32.7702 8.1504C33.249 9.40065 32.5543 9.94734 31.5218 10.2944C31.151 10.2849 30.8741 10.128 30.7239 9.77144C30.9116 8.73036 30.386 7.75583 30.4141 6.72425C30.5502 5.84005 32.2211 6.12052 31.8222 4.82273Z" fill="#D2A571"/>
<path d="M20.0793 7.68007C20.084 7.99382 20.084 8.31233 20.0887 8.62608C19.4973 9.23932 18.8825 9.82404 18.1315 10.2424C17.8077 10.3089 17.4885 10.3375 17.2585 10.0285C17.2726 9.30112 17.4885 8.64509 17.3618 7.82269C17.174 6.57719 17.1318 4.52354 19.5724 5.41726C17.5965 6.60096 20.0089 6.90045 20.0793 7.68007Z" fill="#D0A36F"/>
<path d="M9.87097 9.14403C11.1804 9.25337 11.7249 6.61976 13.4286 8.12672C13.0625 8.37392 12.6823 8.60685 12.6073 9.10125C12.5744 9.23911 12.5603 9.37697 12.5603 9.51958C12.2412 9.82383 11.922 10.1328 11.6029 10.4418C11.5371 10.5797 11.4902 10.7366 11.3916 10.8459C10.9692 11.3355 10.6642 12.2911 9.88974 11.8965C9.22327 11.559 9.49549 10.7128 9.73955 10.0663C9.78179 9.75727 9.82404 9.44828 9.87097 9.14403Z" fill="#EBD5B9"/>
<path d="M14.9303 14.8008C14.8035 15.6232 14.5923 16.341 13.5081 15.9702C12.4052 15.5947 12.7384 14.8911 13.1092 14.178C13.2547 13.9023 13.3533 13.6219 13.0435 13.3794C13.0435 13.2225 13.0435 13.0609 13.0435 12.904C13.771 12.4382 13.3486 11.6205 13.6959 10.8028C14.1089 11.5207 15.0898 11.7821 14.3342 12.8517C13.7569 13.6741 14.3858 14.2589 14.9303 14.8008Z" fill="#C89B68"/>
<path d="M9.73964 10.0619C9.8429 10.5658 9.49089 11.3787 10.0025 11.5356C10.7534 11.7685 11.0069 10.7417 11.5983 10.4375C11.5795 10.6657 11.6452 10.9746 11.5232 11.1125C10.8661 11.8493 11.6029 13.9553 10.1339 13.4752C8.93706 13.0901 8.94176 11.3407 9.73964 10.0619Z" fill="#CC9E69"/>
<path d="M22.3695 9.98985C23.3082 9.03434 23.9653 7.55115 25.73 8.15013C25.5658 8.45913 25.4015 8.77288 25.2419 9.08188C24.3502 9.44792 24.0639 10.4272 23.3598 10.9834C23.1158 10.6792 22.7309 10.5556 22.4822 10.2561C22.4446 10.1705 22.4071 10.0802 22.3695 9.98985Z" fill="#DFBD95"/>
<path d="M36.511 2.44583C37.2385 2.93548 38.2804 3.04935 38.548 4.28534C37.6562 4.13797 36.8489 4.00011 36.0417 3.867L36.0558 3.87651C35.7741 3.38687 35.0232 3.20622 35.1218 2.45987C35.5817 2.45037 36.0464 2.45059 36.511 2.44583Z" fill="#DBB587"/>
<path d="M22.4354 5.28841C23.3084 5.0222 24.3222 4.05242 24.7869 5.77806C23.468 5.68773 22.2102 5.88739 20.6989 7.05683C21.1213 5.702 21.6469 5.34546 22.4354 5.28841Z" fill="#D6AD7C"/>
<path d="M9.75806 14.7962C10.8704 14.9531 10.2696 15.3905 9.93641 15.823C9.27932 16.674 8.38287 16.7833 7.41602 16.7025L7.42072 16.7073C7.5756 16.3935 7.73048 16.0845 7.88537 15.7708C8.51429 15.4475 9.13852 15.1195 9.75806 14.7962Z" fill="#D6AD7E"/>
<path d="M30.4141 6.72425C31.2871 7.56092 31.8692 8.44039 30.8789 9.58605C30.4893 9.73818 30.2781 9.50524 30.0998 9.2105C29.851 8.48792 29.56 7.7701 29.7337 6.97621C29.7994 6.89065 29.8651 6.80032 29.9308 6.71475C30.0904 6.71951 30.2499 6.7195 30.4141 6.72425Z" fill="#DEB785"/>
<path d="M19.8302 2.87364C19.3843 4.12865 18.2626 4.02406 16.7044 4.55173C17.7792 3.15887 18.9009 3.21591 19.8302 2.87364Z" fill="#B18048"/>
<path d="M17.2585 10.0285C17.5777 10.038 17.8921 10.0475 18.2113 10.057C18.3052 10.1616 18.338 10.2709 18.3052 10.3755C18.2723 10.4801 18.2442 10.5324 18.2113 10.5324C17.4228 10.8794 16.6341 11.4544 15.8503 10.5274C16.3197 10.361 16.7892 10.1948 17.2585 10.0285Z" fill="#D9B184"/>
<path d="M15.8599 6.2731C15.583 6.04492 14.8696 6.65816 14.9306 5.7787C15.4234 5.63609 15.935 5.01334 16.395 5.48872C16.7235 5.831 16.1603 6.08295 15.8599 6.2731Z" fill="#B7864E"/>
<path d="M5.06002 10.9742C4.90514 10.9885 4.75025 11.0028 4.59537 11.0075C4.67046 10.2612 4.95676 9.66694 5.75934 9.40548C6.13013 10.2279 5.16797 10.4085 5.06002 10.9742Z" fill="#DEBE93"/>
<path d="M8.35482 9.10146C8.5097 9.25834 8.66475 9.41469 8.82433 9.57632C8.44885 10.0612 7.99358 10.3797 7.30834 10.3607C7.30365 9.60009 7.89017 9.4057 8.35482 9.10146Z" fill="#C89B68"/>
<path d="M28.5604 7.65132C28.659 6.80515 28.7998 6.02552 29.9262 6.71482L29.9497 6.73859C29.5977 7.0571 29.5413 7.62755 29.0532 7.82721C28.8514 7.87951 28.6871 7.82246 28.5604 7.65132Z" fill="#AB7A47"/>
<path d="M12.0534 18.5664C14.4658 19.4696 16.5402 21.228 19.2108 21.613C15.9066 21.613 12.6024 21.613 9.29821 21.613C12.4898 22.0314 15.6484 22.6541 19.2624 22.3832C18.4974 23.3149 17.5493 22.5305 17.2489 23.3434C15.5874 24.993 13.2125 24.7315 11.2695 25.63C9.57981 25.2259 8.49563 24.2276 8.23279 22.4307C8.48155 20.1061 10.5797 19.655 12.0534 18.5664Z" fill="#F8E5C6"/>
<path d="M7.42094 16.7022C7.29422 17.2916 6.5151 18.2424 6.90935 18.3137C7.99823 18.5134 9.19037 19.4594 10.3778 18.2567C9.30771 19.293 8.6647 20.8047 6.78732 20.201C6.03168 19.9585 5.40745 20.5908 5.04136 21.3942C4.76914 22.0027 4.15429 22.3402 3.49721 22.2213C3.00909 22.131 2.72279 21.6699 2.7885 21.1375C2.91992 20.0536 3.69434 20.8332 4.03227 20.6811C5.02728 20.2247 3.80698 19.3691 4.09328 18.675C4.10736 18.5894 4.12613 18.5039 4.14021 18.4183C4.24816 18.0903 4.33265 17.7575 4.18715 17.4152C4.16368 17.3297 4.14021 17.2489 4.12144 17.1633C4.0088 16.3219 2.72279 17.2631 2.74157 16.222C3.14051 15.8607 3.5066 15.3854 4.14491 15.7562C5.42622 15.3949 6.34144 16.3409 7.42094 16.7022Z" fill="#D3A773"/>
<path d="M20.5673 13.38C20.8724 13.2278 21.1775 13.071 21.4825 12.9188C21.9894 13.3419 22.5292 13.2992 23.1581 13.2231C23.8809 13.1328 24.3268 13.5083 23.8433 14.3307C22.9563 15.6143 23.8293 15.7901 24.7773 15.7426C26.5562 15.6523 28.2646 15.9755 30.0058 16.4367C29.3628 16.9453 28.6353 16.5935 27.9877 16.7552C27.3869 16.7504 26.7861 16.7504 26.1807 16.7457C24.6365 17.6299 23.0877 17.5823 21.5342 16.7742C21.3558 16.7742 21.1775 16.7694 20.9991 16.7694C20.389 17.221 19.7741 17.3019 19.1452 16.8075C18.2253 16.7837 17.31 16.7599 16.3901 16.7362C16.2024 16.912 16.024 16.893 15.8551 16.7124C16.3526 16.0278 17.0848 16.3083 17.7325 16.2418C18.3285 14.0027 19.8586 15.6047 20.8818 15.3766C20.3936 15.1722 19.5723 15.31 19.408 14.4115C19.4643 13.6747 19.9149 13.4132 20.5673 13.38Z" fill="#C69964"/>
<path d="M7.88535 27.6315C10.1992 27.6078 11.8373 29.5998 14.1042 29.7424C11.6261 30.7265 9.9411 28.7108 7.88537 28.1119C7.88537 27.955 7.88535 27.7932 7.88535 27.6315Z" fill="#C39460"/>
<path d="M7.43519 22.9208C7.52437 24.0855 6.90952 25.4403 8.31756 26.2532C8.65549 26.7904 8.12513 26.9045 7.89046 27.1659L7.89984 27.1802C6.23367 26.2627 5.91921 22.9398 7.44458 21.8322C7.73557 21.623 7.82475 22.1317 7.85291 22.4169C7.77312 22.6356 7.63701 22.8067 7.43519 22.9208Z" fill="#B2814D"/>
<path d="M19.6143 14.3253C20.2479 14.6866 20.8862 15.0479 21.5949 15.4472C20.384 16.4408 18.7178 14.6153 17.7369 16.2316C17.6196 15.6564 17.4835 15.086 17.3896 14.506C17.352 14.2683 17.0845 13.8737 17.5445 13.8357C17.7604 13.8214 17.9997 14.1495 18.225 14.3206C18.6944 14.235 19.1543 14.235 19.6143 14.3253Z" fill="#C89964"/>
<path d="M7.43519 22.9208C7.576 22.7544 7.71211 22.5833 7.85291 22.4169C7.97963 22.4216 8.11067 22.4305 8.2374 22.4353C9.00243 23.6047 9.58911 24.9595 11.1661 25.2733C11.4993 25.5775 11.9124 25.2828 12.2691 25.4207C12.6586 25.5633 12.9684 25.7867 13.0435 26.2383C10.2227 26.7755 8.9324 24.6702 7.43519 22.9208Z" fill="#BF8E59"/>
<path d="M4.08866 18.6801C3.9197 18.837 3.75073 19.1317 3.59116 19.1269C2.75103 19.0889 1.78887 20.5008 1.25851 19.4787C0.620202 18.2522 2.30515 18.6468 2.80266 18.1096C3.15936 17.7198 3.67564 17.4821 4.12152 17.1731L4.206 17.2587C4.53924 17.7341 4.50638 18.1857 4.1309 18.6183L4.08866 18.6801Z" fill="#D3A773"/>
<path d="M4.14012 15.766C3.67078 15.9229 3.20612 16.075 2.73678 16.2319C3.10756 14.8723 3.82097 13.7742 5.59509 12.5762C4.92393 14.0404 4.53437 14.9008 4.14012 15.766Z" fill="#DBB584"/>
<path d="M19.6143 14.3253C19.1496 14.6248 18.6897 14.6298 18.2298 14.3208C18.2673 12.6046 19.1075 12.2436 20.5531 12.9092C20.5578 13.066 20.5626 13.2231 20.5673 13.38C20.2481 13.6985 19.9334 14.0116 19.6143 14.3253Z" fill="#D8B181"/>
<path d="M15.8599 16.7026C16.0382 16.7121 16.2166 16.7168 16.3949 16.7263C16.3715 16.8785 16.348 17.0258 16.3199 17.1779C15.5877 18.1192 14.6584 18.452 13.5132 18.1335C13.0485 18.1525 12.5791 18.1671 12.1144 18.1861C12.9452 16.6078 14.419 16.7026 15.8599 16.7026Z" fill="#BE925F"/>
<path d="M20.0979 9.13437C21.689 9.38632 20.8441 10.247 20.5484 10.9696C20.0086 11.0362 19.4502 11.1595 19.117 10.5272C18.9058 9.6763 19.3986 9.32927 20.0979 9.13437Z" fill="#E4CAAD"/>
<path d="M20.0979 9.13437C19.7694 9.60024 19.4453 10.0659 19.1168 10.5317C18.8164 10.584 18.5117 11.0553 18.2113 10.5324C18.2113 10.3755 18.2113 10.2139 18.2113 10.057C18.3521 8.93036 19.2294 8.79183 20.0883 8.6302C20.093 8.79659 20.0932 8.96799 20.0979 9.13437Z" fill="#C79963"/>
<path d="M14.9306 14.8063C15.3248 14.1074 15.7191 13.4086 16.1133 12.7146C16.3058 12.8477 16.5029 12.976 16.6953 13.1091C16.6155 14.0124 16.1509 14.6589 14.9306 14.8063Z" fill="#DBB484"/>
<path d="M31.3481 10.0565C32.1037 9.63812 32.7233 9.11542 32.7702 8.1504C33.3616 8.93477 34.136 9.26733 35.1075 9.10094C35.7036 8.95358 35.9007 9.28634 35.9476 9.79975C36.4311 9.3624 35.1967 8.3023 36.5108 8.15018C37.1351 8.78244 37.764 9.41945 38.3882 10.0517C38.8998 10.3892 39.1016 10.8646 38.989 11.4731C38.8717 11.6347 38.6276 11.63 38.5384 11.8296C38.8106 11.6965 39.0969 11.6537 39.3973 11.687C39.7353 11.8106 39.9371 12.0436 39.9981 12.4048C39.9887 13.0846 39.8714 13.7407 39.5851 14.3634C39.2331 15.1193 38.2146 15.2238 38.2052 16.5026C38.1958 17.615 36.8863 18.2996 35.5393 17.9953C34.2345 16.6167 35.6426 15.414 35.8819 14.1828C36.1166 12.9753 35.8866 12.4239 34.732 12.2337C33.6572 11.416 31.8596 11.7536 31.3481 10.0565Z" fill="#D0A36D"/>
<path d="M39.768 12.4951C39.6225 12.3097 39.4817 12.1291 39.3362 11.9437C39.1907 11.7726 38.8904 11.7678 38.8575 11.4778C38.7026 11.0024 38.5431 10.5271 38.3882 10.0517C38.3648 9.19602 38.8387 9.34812 39.3456 9.56679C39.8713 9.33385 40.106 9.63335 40.2561 10.0802C40.7067 10.3892 41.1526 10.6982 41.6032 11.0072C42.3635 11.2211 42.5372 11.7726 42.4433 12.4809C42.0162 13.4554 41.1808 13.6456 40.2468 13.6408C39.6695 13.4459 39.4301 13.0941 39.768 12.4951Z" fill="#C5935C"/>
<path d="M36.5108 8.15018C35.9805 9.20077 37.0226 10.1942 36.6847 11.2781C35.455 11.0119 35.8962 9.60475 35.103 9.10085C35.1217 8.58268 33.9437 8.26893 34.7885 7.65094C35.4738 7.15179 36.0509 7.57972 36.5108 8.15018Z" fill="#C49159"/>
<path d="M42.1758 12.4007C41.9833 11.9396 41.7909 11.4737 41.5985 11.0126C41.8144 10.6941 42.0256 10.3708 42.2415 10.0523C42.3635 9.81938 42.4715 9.83364 42.5747 10.0666C43.6918 10.4516 43.4759 11.6876 44.0438 12.4245C44.2034 12.8761 43.9311 13.0662 43.5791 13.2136C42.8986 13.3277 42.4245 13.071 42.1758 12.4007Z" fill="#F2E0C6"/>
<path d="M36.0417 3.867C36.281 4.38517 37.2291 4.5663 36.8443 5.35543C36.6237 5.80704 36.2153 5.59312 35.8868 5.34117C35.2907 4.89906 34.6853 4.47122 33.9812 3.96256C34.6477 3.31604 35.4081 4.12419 36.0604 3.87224C36.0558 3.87224 36.0417 3.867 36.0417 3.867Z" fill="#D7AD7C"/>
<path d="M42.5794 10.0667C42.4668 10.0619 42.3588 10.0571 42.2462 10.0524C41.6783 9.1872 41.115 8.322 40.5237 7.42353C41.4952 6.92438 41.7674 7.77056 42.2556 8.13661C42.5184 8.74985 42.7296 9.37735 42.5794 10.0667Z" fill="#F0E1C8"/>
<path d="M46.8179 9.59058C46.9352 9.9281 47.4279 10.4419 47.0993 10.5607C46.2827 10.8555 45.6913 10.2232 45.2642 9.59571C44.7761 8.87313 45.2313 8.65921 45.8884 8.6497C46.1982 8.9587 46.5081 9.27208 46.8179 9.59058Z" fill="#EED9BB"/>
<path d="M40.2562 10.0852C39.9512 9.91409 39.6508 9.74296 39.3457 9.57182C39.8714 8.91579 40.4581 8.95858 40.8429 9.63362C41.0401 9.9854 40.5285 10.0187 40.2562 10.0852Z" fill="#DCB382"/>
<path d="M33.7324 6.2251C33.3851 5.66415 33.3851 5.26008 34.183 5.23156C34.8729 5.95414 34.4552 6.1633 33.7324 6.2251Z" fill="#E4C59D"/>
<path d="M13.0435 26.2383C12.7384 26.0624 12.4384 25.8918 12.1333 25.7159C12.3304 24.613 13.2316 24.6938 14.0154 24.537C15.2498 24.2945 16.395 23.61 17.7138 23.8001C18.263 24.9458 16.5264 25.0124 16.7141 26.0344C17.7044 26.0487 17.9391 24.9458 18.9107 24.5845C18.8121 25.464 19.0749 26.2816 18.6572 27.0898C17.2116 27.4748 15.7614 27.8979 14.4613 26.6999C13.9872 26.5478 13.5128 26.3904 13.0435 26.2383Z" fill="#F5E3C5"/>
<path d="M14.4613 26.6999C15.8036 27.4463 17.2539 27.0422 18.6572 27.0898C18.798 27.2752 18.9434 27.4561 19.0842 27.6415C17.6339 28.3926 15.5735 26.3247 14.5878 28.9108C13.9965 28.0123 14.649 27.356 14.4613 26.6999Z" fill="#C49969"/>
<path d="M7.88537 27.1614C8.02617 26.8571 8.17167 26.5529 8.31247 26.2486C8.87569 26.2581 9.514 26.0632 9.93171 26.9237C9.27932 27.361 8.54715 27.0805 7.88537 27.1614Z" fill="#C39460"/>
<path d="M35.5911 17.653C36.7926 17.3963 36.68 17.3536 37.4075 15.4996C37.6281 14.9339 38.6794 14.7057 39.3506 14.3254C39.5946 14.0924 39.8715 13.9403 40.2142 13.9166C41.6363 15.2429 42.4436 13.3033 43.6075 13.2605C44.0675 13.6789 44.734 13.9736 44.504 14.8055C43.4949 15.3332 43.2555 16.36 43.7483 17.1301C44.565 18.4184 45.1845 16.6025 45.5459 16.707C47.0244 17.1254 47.4515 15.9274 48.2447 15.2809C48.9064 15.7848 49.0378 16.5264 49.1599 17.4391C49.2303 16.4693 48.7234 15.6374 49.188 14.8293C49.3523 14.6629 49.5213 14.4965 49.6855 14.3301C50.8777 15.5233 50.1831 17.3298 51.0466 18.6323C51.3423 18.9508 51.347 19.2646 51.0373 19.5736C50.4506 20.8143 49.6151 21.2327 48.3057 20.5624C47.7237 20.2629 47.0056 20.2486 46.3767 20.0157C45.7759 19.797 44.9733 19.6924 44.6823 20.0585C44.274 20.5719 44.3115 21.399 44.9827 21.9315C45.4192 21.8316 45.6116 21.96 45.4333 22.4306C46.3297 23.4527 47.0384 24.8028 48.7609 24.3749C49.0144 24.5793 48.9768 24.8313 48.8736 25.0928C48.8219 25.1593 48.7656 25.2259 48.7093 25.2924C47.7002 25.9865 46.6395 26.3097 45.4614 25.7488C44.8137 26.0435 45.0719 27.2367 44.0722 27.1844C43.5794 26.0197 44.8982 24.2799 42.9598 23.5668C42.0024 23.4289 41.5283 22.7824 41.2655 21.9125H41.2467C40.0499 21.2945 38.8718 20.6479 37.7219 19.9491C37.2479 19.6211 36.6002 19.4928 36.3937 18.8367C36.1778 18.7322 36.9475 18.4327 36.3045 18.3994C35.8492 18.3709 35.3752 18.3423 35.5911 17.653Z" fill="#CB9C67"/>
<path d="M49.1741 14.8248C49.8218 16.1226 49.8969 17.4109 48.991 19.2316C48.6719 17.5773 48.4513 16.4269 48.2307 15.2764C48.1791 14.9152 47.644 14.5111 48.0382 14.2686C48.2307 14.145 48.7845 14.6204 49.1741 14.8248Z" fill="#C0905B"/>
<path d="M44.4991 14.7961C44.2081 14.297 43.4712 14.1401 43.4806 13.4175C43.3633 13.3177 43.3257 13.2226 43.3727 13.1275C43.4196 13.0372 43.4619 12.9944 43.5041 12.9944C43.6871 12.8043 43.8655 12.6141 44.0485 12.424C44.4663 13.1513 45.0623 13.8358 45.2407 14.6202C45.3956 15.319 44.776 14.8009 44.4991 14.7961Z" fill="#E3C096"/>
<path d="M41.2608 21.9084C41.8381 22.4218 42.4154 22.9352 42.9927 23.4486C43.1476 23.4914 43.218 23.5627 43.2039 23.6673C43.1898 23.7814 43.1617 23.8384 43.1194 23.8384C43.0021 26.182 41.5424 27.5654 38.609 28.0788C38.088 28.1691 37.5436 28.1311 37.0132 28.1501C36.9147 28.1121 36.8161 28.0741 36.7175 28.0313C36.4782 27.7888 36.3327 27.5274 36.5063 27.1851C36.7879 25.8445 35.6052 25.8255 34.9059 25.4547C34.1737 25.0697 33.3383 24.8795 32.1227 24.4564C34.0611 23.9335 35.5254 24.7892 37.6468 24.6798C35.9197 24.0999 34.7885 23.7196 33.6621 23.3393C33.6715 23.2204 33.6762 23.1063 33.6856 22.9875C34.46 22.9447 35.2391 22.9019 36.0135 22.8544C37.8346 22.9304 39.5852 22.6357 41.2608 21.9084Z" fill="#F5DFBF"/>
<path d="M36.9803 33.3454C35.9618 33.4357 35.253 32.0291 34.1077 32.7421C34.1265 32.4617 34.1406 32.1812 34.1594 31.9007C35.5158 30.5316 37.0318 29.9564 38.8528 30.9547C38.773 31.7676 39.6742 31.9578 39.984 32.5567C39.0171 33.2841 37.7594 32.3566 36.9803 33.3454Z" fill="#D0A16C"/>
<path d="M43.1194 23.8384C43.0631 23.7148 43.0209 23.5817 42.9927 23.4486C44.5462 23.8574 44.8137 24.7893 44.0628 27.1757C43.3494 28.2643 42.3919 29.0439 41.2092 29.5574C40.416 28.6684 41.3593 28.5305 41.8052 28.3119C43.8703 27.2945 43.9736 25.7209 43.1194 23.8384Z" fill="#B5844F"/>
<path d="M38.8575 30.9542C37.2242 30.9257 35.666 31.268 34.1641 31.9002C33.6478 31.5865 34.1453 31.2775 34.1641 30.9637C34.2251 30.7022 34.38 30.5501 34.6428 30.5026C34.7977 30.5026 34.9526 30.4978 35.1074 30.4931C36.0227 29.5376 37.4307 30.3172 38.3976 29.5423C39.6038 29.6564 39.1297 30.341 38.8575 30.9542Z" fill="#B78957"/>
<path d="M38.3929 29.5423C37.5106 30.6119 36.2996 30.5263 35.1028 30.493C35.5487 27.8689 37.3932 30.1983 38.3929 29.5423Z" fill="#CEA370"/>
<path d="M33.6949 27.1756C33.845 27.0187 33.9905 26.8571 34.1407 26.7002C35.347 26.5814 35.9242 27.7698 36.9286 28.0741C36.9286 28.0741 37.0131 28.1501 37.0178 28.1501C36.1636 28.9107 35.0747 28.3022 34.1501 28.6635L34.1877 28.4924C33.7887 28.1406 33.3757 27.7983 33.6949 27.1756Z" fill="#F5DFBF"/>
<path d="M34.6428 30.5026C34.4832 30.6547 34.3236 30.8116 34.1641 30.9637C33.4413 30.9447 32.8687 30.6079 32.6293 29.9376C32.512 29.6096 32.9532 29.5716 33.2254 29.5335C33.92 29.5288 34.5959 29.5376 34.6428 30.5026Z" fill="#CEA370"/>
<path d="M44.0579 30.4644C44.0297 29.7989 44.4756 29.2855 44.9825 29.4186C45.7381 29.6135 44.959 30.1031 44.959 30.4692C44.6586 30.4644 44.3582 30.4644 44.0579 30.4644Z" fill="#DCBB92"/>
<path d="M51.0276 19.5742C51.0322 19.2605 51.0322 18.9467 51.0369 18.633C51.1777 18.4856 51.3186 18.3335 51.464 18.1861C51.464 19.1036 51.464 20.0258 51.464 21.0099C50.7976 20.6201 51.1824 20.0163 51.0276 19.5742Z" fill="#BA884D"/>
<path d="M48.8641 25.0888C48.8265 24.8511 48.789 24.6086 48.7514 24.371C49.0049 24.1428 49.2583 23.9146 49.5118 23.6864C49.5868 23.9003 49.6574 24.109 49.7325 24.323C49.5401 24.5987 49.3476 24.8744 49.1552 25.1501C49.0566 25.1501 48.9579 25.1316 48.8641 25.0888Z" fill="#E7D5BB"/>
<path d="M45.4239 22.431C45.2737 22.2646 45.1235 22.0982 44.9733 21.9318C45.0202 21.6514 44.9498 21.2045 45.4145 21.3471C45.6632 21.4232 45.9542 21.7274 46.0199 21.9841C46.1326 22.431 45.7055 22.3834 45.4239 22.431Z" fill="#EBD2AF"/>
<path d="M45.452 25.7439C46.5127 25.4444 47.5735 25.0974 48.6999 25.2876C48.7046 25.7487 48.7093 26.2146 48.7093 26.6757C48.4042 26.6709 48.1038 26.6709 47.7987 26.6662C47.09 26.1195 46.1373 26.7898 45.4426 26.1813C45.4426 26.0339 45.4473 25.8913 45.452 25.7439Z" fill="#BA864F"/>
<path d="M45.4426 26.1813C46.2311 26.3382 47.1323 25.9198 47.7987 26.6662C47.0008 26.5758 46.0903 27.037 45.4426 26.1813Z" fill="#CB9C67"/>
<path d="M21.539 16.769C23.0879 16.5123 24.6367 16.6216 26.1855 16.7405C27.8893 17.5344 27.3871 18.989 26.4718 19.6118C24.7634 20.7765 25.7068 18.2427 24.5804 18.0858C24.1908 18.5659 25.2703 19.5928 24.3222 19.8875C23.2944 20.206 23.1536 19.0461 22.6514 18.5422C22.1679 18.0668 21.9004 17.368 21.539 16.769Z" fill="#FAE8CE"/>
<path d="M13.5132 18.1335C14.4472 17.815 15.3859 17.4965 16.3199 17.1779C18.385 17.5297 18.9761 19.7829 20.6892 20.6908C18.2627 19.8447 15.4703 20.2204 13.5132 18.1335Z" fill="#FAEACE"/>
<path d="M19.1547 16.798C19.7742 16.7837 20.3891 16.7742 21.0086 16.76C20.7317 18.2907 22.5856 18.8421 22.5903 20.4442C20.8772 20.1161 19.8024 18.9182 18.69 17.8391C18.1221 17.2971 18.9904 17.1545 19.1547 16.798Z" fill="#F8E5C7"/>
<path d="M28.5322 17.1778C29.1518 17.2015 29.776 17.2253 30.3955 17.2491C31.6205 17.9336 30.6678 18.6324 30.4143 19.3313C30.3111 19.5119 30.1937 19.6783 30.0623 19.8399C29.6211 20.2297 29.2691 20.8239 28.5275 20.534C28.2272 20.5149 27.9221 20.5007 27.6217 20.4817C27.3917 19.2314 28.0253 18.2189 28.5322 17.1778Z" fill="#F9E7CA"/>
<path d="M17.7138 23.8001C15.9115 24.6083 13.7291 24.2803 12.1333 25.7159C11.7391 25.7254 11.3916 25.6399 11.1616 25.2738C13.0343 24.1187 15.2308 24.0188 17.2537 23.3438C17.4086 23.4959 17.5589 23.648 17.7138 23.8001Z" fill="#E6C69D"/>
<path d="M33.6949 27.1756C33.8591 27.6129 34.0234 28.055 34.1877 28.4924C33.4086 28.5114 32.634 28.5348 31.8549 28.5538C31.6671 26.9898 32.0381 26.2011 33.6949 27.1756Z" fill="#F8E7CD"/>
<path d="M36.9286 28.0741C35.6145 28.4163 35.1076 27.0805 34.1407 26.7002C33.8075 26.5101 33.4741 26.3151 32.7983 25.9253C34.6099 25.4404 35.3656 26.9189 36.5108 27.1898C36.6516 27.4798 36.7878 27.7793 36.9286 28.0741Z" fill="#F8E6CB"/>
<path d="M37.9191 19.5647C39.1207 20.2112 40.5005 20.5963 41.2421 21.9131C38.4213 21.6659 35.5442 22.5311 32.7657 21.471C34.2864 20.2921 35.854 19.2415 37.9191 19.5647Z" fill="#F5DFBF"/>
<path d="M35.5911 17.653C35.8539 18.1189 36.3138 18.095 36.7503 18.1616C36.8489 18.1758 36.9334 18.3042 37.0225 18.3803C36.8395 18.4753 36.6564 18.5704 36.4734 18.6607C36.2434 18.8984 35.9618 18.9555 35.652 18.9127C35.4549 18.8509 35.3 18.732 35.1874 18.5562C34.8542 18.3945 34.5256 18.2376 34.1924 18.076C34.5726 16.84 34.9058 15.5803 35.3517 14.368C35.8163 13.1083 35.1874 12.8706 34.1736 12.8896C33.8451 12.6519 33.0706 12.7232 33.31 12.091C33.5541 11.4492 34.1548 11.6441 34.6476 11.9389C36.2951 11.8295 37.1586 12.072 36.281 14.1446C35.8398 15.1667 35.164 16.3648 35.5911 17.653Z" fill="#B68650"/>
<path d="M35.1827 18.5609C35.3141 18.5656 35.4408 18.5894 35.5675 18.6369C36.3467 19.1076 36.2669 19.5925 35.5394 19.9918C34.5397 20.5432 33.5212 21.0899 32.3197 21.0138C31.9817 21.1327 31.6438 21.2515 31.3059 21.3704C32.5496 20.3245 33.2349 18.4991 35.1827 18.5609Z" fill="#F6E3C4"/>
<path d="M32.3197 21.0138C33.3006 20.5812 34.2722 20.13 35.2625 19.726C35.8727 19.4788 35.821 19.1028 35.5675 18.6369C35.8679 18.6464 36.1731 18.6564 36.4734 18.6659C36.9569 18.9654 37.4403 19.2648 37.9237 19.5643C36.2059 20.2013 34.4881 20.8336 32.7703 21.4706C32.6154 21.3185 32.4652 21.166 32.3197 21.0138Z" fill="#E5C297"/>
<path d="M33.2771 18.0958C32.268 19.3983 31.0477 20.4153 29.4895 20.9715L29.4894 20.9766C29.2078 20.3586 29.7241 20.0068 29.9447 19.5552L29.9353 19.5694C30.7191 18.3335 31.6437 17.4302 33.2489 18.0958H33.2771Z" fill="#F7E6CA"/>
<path d="M29.9494 19.5547C29.7945 20.0301 29.6443 20.5012 29.4894 20.9766C29.0999 20.9813 28.7526 20.9048 28.532 20.534C29.006 20.2059 29.4754 19.8779 29.9494 19.5547Z" fill="#ECCFA9"/>
<path d="M23.8433 14.3307C23.7354 13.6747 23.5806 13.3416 22.8484 13.8836C21.6328 14.782 21.5248 13.8458 21.4825 12.9188L21.4967 12.9043C22.0083 12.4717 21.8065 11.3308 22.8907 11.4734C23.7496 12.3576 24.9323 12.0961 25.7537 11.8014C27.2697 11.2642 27.5794 12.5715 28.138 13.2133C28.4055 13.5175 29.7009 14.3542 28.5604 15.0815C27.861 15.5284 26.7628 15.5712 26.1761 14.8629C25.4533 13.9929 24.8196 13.6462 23.8433 14.3307Z" fill="#C89964"/>
<path d="M34.643 11.949C34.3051 12.025 33.9625 12.1058 33.6245 12.1819C33.8076 12.4196 33.9906 12.6573 34.1737 12.895C34.0422 13.1564 33.9155 13.4179 33.7841 13.6793C33.2021 11.7493 30.0997 12.9663 29.9355 10.5181C29.6069 9.88581 29.3441 9.27732 30.4001 9.12044C30.5597 9.27256 30.7193 9.42944 30.8789 9.58156C31.0384 9.73844 31.1933 9.89531 31.3529 10.0474C32.3432 10.8698 33.817 10.8318 34.643 11.949Z" fill="#C7965C"/>
<path d="M30.3953 9.12542C29.8462 9.45818 29.9682 10.0144 29.9307 10.523C29.1985 10.6086 29.0202 9.8575 28.5274 9.57703C28.166 8.81167 28.6775 8.26023 28.992 7.66124C29.3112 7.35225 29.6303 7.04325 29.9495 6.73425C30.0997 7.53289 30.2499 8.33153 30.3953 9.12542Z" fill="#D2A571"/>
<path d="M22.8907 11.4734C22.2758 11.8014 22.5293 12.9946 21.4967 12.9043C21.2855 11.7776 21.0226 10.6368 22.3696 9.99507L22.4682 10.0997C22.4306 10.537 22.3508 10.9934 22.961 11.1027C22.9375 11.2215 22.9141 11.3498 22.8907 11.4734Z" fill="#DCBB94"/>
<path d="M33.2536 18.0953C31.808 17.8006 30.9585 18.8797 29.94 19.569C29.7382 18.7228 31.1368 18.2047 30.4 17.2539C31.3715 17.4536 32.3947 17.4821 33.2536 18.0953Z" fill="#ECCFA9"/>
<path d="M28.0393 9.56243C27.7717 9.63849 27.4009 9.96175 27.2555 9.61473C26.9457 8.88739 27.462 8.48332 28.0346 8.17432C28.4851 8.63544 28.41 9.10131 28.0393 9.56243Z" fill="#AB7D4C"/>
<path d="M28.0393 9.56243C28.0393 9.10131 28.0346 8.63544 28.0346 8.17432C28.2082 8.00319 28.3867 7.82737 28.5603 7.65623C28.7058 7.66098 28.8513 7.66099 28.9968 7.66574C29.0813 8.36455 28.8607 8.98254 28.5322 9.58152C28.3679 9.57201 28.2035 9.56719 28.0393 9.56243Z" fill="#C79963"/>
<path d="M33.3522 14.6586C33.2771 15.0151 33.0565 15.191 32.728 15.1673C32.4135 15.1435 32.1272 14.9819 32.1694 14.6301C32.1835 14.5112 32.4839 14.3781 32.6716 14.3448C32.9439 14.2973 33.2489 14.3021 33.3522 14.6586Z" fill="#E1C199"/>
<path d="M22.9611 11.0978C22.2712 11.0312 22.0131 10.7413 22.4683 10.0947C23.0785 10.071 23.3601 10.3847 23.3601 10.9885C23.2287 11.0217 23.0925 11.0598 22.9611 11.0978Z" fill="#EDD8BE"/>
<path d="M14.7894 23.2678C13.1326 23.2678 11.4805 23.2678 9.82371 23.2678C9.82371 23.187 9.82371 23.1061 9.82371 23.0253C11.4993 23.0253 13.1795 23.0253 14.8551 23.0253C14.8363 23.1061 14.8129 23.187 14.7894 23.2678Z" fill="#EDCFA9"/>
<path d="M4.12602 18.6181C4.14949 18.1665 4.17765 17.7102 4.20112 17.2586C4.60475 17.2728 4.98962 17.3489 5.01778 17.8528C5.05063 18.4755 4.63292 18.6134 4.12602 18.6181Z" fill="#EED8B7"/>
<path d="M38.8625 11.4778C39.022 11.6347 39.1816 11.7868 39.3412 11.9437C38.3133 11.4826 39.0455 13.4554 38.2711 12.8469C37.5905 12.3193 37.8909 11.6062 38.8625 11.4778Z" fill="#CB9C67"/>
<path d="M40.2612 14.3304C39.9561 14.3257 39.651 14.3257 39.3459 14.3209C39.3694 13.6839 39.0875 12.9753 39.768 12.4951C39.7962 12.8707 39.8904 13.2085 40.2612 13.3892C40.5568 13.7029 40.5381 14.0167 40.2612 14.3304Z" fill="#E3C5A0"/>
<path d="M40.2612 14.3304C40.2612 14.0167 40.2611 13.7032 40.2564 13.3942C40.8948 13.0662 41.5331 12.7334 42.1714 12.4054C42.6126 12.6003 43.0537 12.8 43.4949 12.9996C43.509 13.1422 43.4996 13.2801 43.4715 13.4227C43.3917 13.4275 43.2509 13.418 43.2509 13.4417C42.8191 15.6713 41.7208 15.6092 40.2612 14.3304Z" fill="#D4A977"/>
<path d="M47.5689 17.6624C48.287 18.0808 48.287 18.4658 48.2306 18.8509C48.1978 19.0696 48.1039 19.3405 47.7848 19.1884C47.3811 18.9888 47.292 18.6275 47.3952 18.2139C47.4468 17.9905 47.5313 17.7813 47.5689 17.6624Z" fill="#E9CEA6"/>
<path d="M40.0965 23.6341C40.7911 23.2585 41.3356 23.2586 41.9879 23.6864C41.3121 24.1998 40.777 23.7672 40.0965 23.6341Z" fill="#E5C79E"/>
</svg>
