<svg width="42" height="51" viewBox="0 0 42 51" fill="none" xmlns="http://www.w3.org/2000/svg">
<path d="M34.2322 1.80578C35.4498 2.32045 36.5444 3.00795 37.4508 3.97967C37.3663 4.69405 38.3918 5.21256 37.8118 6.01912C37.6851 6.14587 37.543 6.24189 37.3855 6.3187C36.6942 6.53763 36.1641 6.987 35.661 7.4863C35.3422 7.80125 34.9505 8.01249 34.5702 8.24678C34.094 8.54252 33.4525 7.94336 33.4525 8.0701C33.4602 9.07255 34.8621 8.7576 35.1348 9.68707C35.1732 9.80998 35.8607 8.38505 36.6519 9.3222C36.9361 9.99433 37.5507 10.5551 37.3241 11.4846C37.8426 10.7164 36.7249 10.1249 37.2857 9.44894C37.8618 9.01877 38.2727 9.48735 38.7259 9.71396C38.9602 9.8407 39.1715 9.99049 39.3174 10.2171C39.2829 11.6766 38.8335 12.8404 37.1896 13.1169C36.4522 13.2398 36.7326 13.9388 36.4599 14.3267C35.9875 14.9989 35.9798 15.9322 35.2692 16.4622C35.1271 16.5121 34.8544 16.3431 34.8544 16.4392C34.8583 16.6696 35.1809 16.6389 35.3307 16.7887C35.8415 17.4147 36.1949 18.0139 35.3614 18.6822C34.5241 19.3543 33.8942 19.0509 33.2989 18.3596C32.1467 14.9374 30.1341 12.0107 28.0025 9.14936C28.4903 7.72059 29.1163 8.81137 29.6771 9.07255C30.0727 9.2569 30.5028 9.99433 30.8523 9.20697C31.1097 8.62317 31.2326 7.4863 30.3492 7.49783C28.6977 7.51703 27.9602 6.33791 26.9463 5.49294C26.8042 5.37387 26.6889 5.26249 26.5123 5.20488C25.9784 5.0282 24.9913 5.39308 25.0604 4.46745C25.1296 3.56102 25.9976 3.19615 26.8618 3.05404C28.0255 3.24992 28.8398 4.41368 30.138 4.24468C30.6373 4.08337 31.4131 4.9245 31.6512 3.81835C32.2197 2.76598 32.6921 1.59454 34.2322 1.80578Z" fill="#CD7951"/>
<path d="M0.536735 35.2168C0.851679 34.007 1.32025 32.8893 2.3419 32.0866C3.07933 31.8177 3.3866 30.8998 4.25077 30.8268C4.63869 31.0496 4.78464 31.4336 4.91523 31.8216C5.30699 32.4361 5.71027 31.7447 6.10587 31.8254C6.27487 31.8062 6.44386 31.8023 6.61285 31.8177C7.27347 31.9022 7.98785 31.7063 8.57549 32.1826C8.84819 32.3516 9.08248 32.6051 9.43583 32.5705C9.76614 32.3554 9.91977 31.9406 10.3192 31.8062C12.0015 31.4567 12.6698 32.5398 13.1998 33.8303C13.6453 33.8533 12.6237 34.5677 13.4264 34.3488C14.0217 34.1875 14.5364 34.0646 14.9781 34.61C15.5696 35.7968 15.4467 37.1103 15.6464 38.3662C14.9089 39.53 13.3457 38.7849 12.5085 39.722C11.5367 39.9525 11.5982 39.1997 11.652 38.685C11.6981 38.2395 11.3178 38.251 11.2948 38.2011C10.4075 36.2 8.56397 36.4074 6.77417 36.3153C7.08911 36.8223 8.09924 36.853 7.9264 37.7133C7.86495 37.8862 7.76125 38.0321 7.62298 38.1512C6.82794 38.5698 6.175 39.2074 5.3646 39.6068C4.03569 39.722 3.74379 38.6428 3.26369 37.7824C3.09086 37.4752 2.91418 37.1718 2.77591 36.8453C2.51858 36.7915 3.02172 35.9811 2.27277 36.3767C1.82724 36.611 1.30105 36.3882 0.813271 36.4074C0.509849 36.0541 0.763341 35.5778 0.536735 35.2168Z" fill="#F4A99F"/>
<path d="M37.7041 5.96909C37.6695 5.55428 37.7617 5.11643 37.2509 4.86678C36.1716 4.33675 37.2125 4.24074 37.4467 3.97956C39.7474 5.24702 40.5808 7.45163 41.1569 9.81755C41.0187 10.0134 40.9303 10.2592 40.6768 10.3476C40.6231 10.3783 40.5117 10.4129 40.5155 10.4321C40.8266 12.3909 40.1852 14.4111 40.9111 16.3392C40.9534 17.4146 40.3196 18.2173 39.8165 19.0738C39.3595 19.4771 38.9446 19.9303 38.4761 20.3183C37.562 20.2837 37.0204 20.5141 37.5274 21.5704C37.6657 21.8584 37.6004 22.1772 37.4429 22.4614C37.3162 22.5882 37.1625 22.6573 36.9858 22.6765C36.6287 22.8224 36.1409 21.7432 35.8567 22.8186C35.703 23.3986 36.041 24.5316 34.9963 24.3204C34.1667 24.1514 34.7006 23.1336 34.593 22.5113C34.593 22.5229 34.4317 22.5037 34.4317 22.5037C34.4317 22.5037 34.5085 22.6458 34.5085 22.6611C35.004 25.3996 33.4869 27.5504 32.4537 29.8357C31.843 30.6116 31.0096 31.0494 30.1032 31.3759C29.7575 31.5525 29.6039 31.3682 29.5155 31.0609C29.8228 29.9586 30.9328 29.4248 31.3706 28.4146C32.1695 27.3546 32.4921 26.1025 32.8071 24.8465C33.099 23.1835 33.4984 21.5319 33.0913 19.8228C32.9607 19.2736 32.9991 18.6898 33.4907 18.2634C34.063 18.4555 34.5815 18.8818 35.2229 18.275C35.9642 17.5683 35.0232 17.2303 34.9925 16.7041C34.8849 16.5697 34.908 16.4506 35.0386 16.3469C35.0962 15.1985 36.5019 14.4803 36.0602 13.1667C35.9565 12.8556 36.1601 12.6521 36.4328 12.6943C38.4146 13.0169 38.6835 11.4576 39.2327 10.1939C39.0599 8.66916 38.6912 7.20966 37.7041 5.96909Z" fill="#C8724A"/>
<path d="M26.9463 3.28883C26.3394 3.62298 25.6289 3.80734 25.2486 4.56782C26.7619 4.71761 28.1292 5.05944 28.6439 6.75322C28.6861 6.89533 29.3237 6.9299 29.6694 6.89533C30.9637 6.75706 31.7396 6.95678 31.4438 8.60448C31.3363 9.21132 31.5437 9.98716 30.9714 10.3136C30.2148 10.7438 29.9766 9.76824 29.4735 9.46866C29.051 9.219 28.8321 8.34715 28.1023 9.0116C27.4993 9.25357 27.3265 8.81956 27.1383 8.40476C26.8887 7.60588 27.1383 6.45748 25.7595 6.45748C25.4099 6.45364 25.0643 6.46132 24.7186 6.49205C24.3614 6.51893 24.0081 6.61879 23.647 6.61495C22.7329 6.25392 21.8572 5.83912 20.801 6.02347C20.2211 6.12333 19.5297 6.11181 19.184 5.40895C19.3031 4.77906 20.0367 4.85203 20.3132 4.40266C20.4784 4.19142 20.6512 3.9917 20.8817 3.84575C21.3003 3.63835 21.742 3.59994 22.1914 3.64987C22.3412 3.55385 22.7483 3.93025 22.6331 3.61914C22.3104 2.75112 23.1785 2.07899 22.8174 1.10343C22.6139 0.558037 23.962 0.707828 24.5688 0.427451C25.4829 0.231571 26.4201 0.435132 27.3303 0.235411C28.9742 -0.0564881 30.5067 0.389043 32.0161 0.957479C31.8317 1.3646 31.0444 1.01125 31.0828 1.89847C31.1097 2.47459 30.2417 2.75881 29.5695 2.55909C28.9089 2.35936 28.2368 2.24798 27.5685 2.12508C27.1345 2.11355 26.7158 1.64498 26.2895 2.09819C26.7581 2.35936 27.4072 2.5322 26.9463 3.28883Z" fill="#D38056"/>
<path d="M24.6264 48.5639C18.5541 51.7134 12.4165 51.7633 6.21365 48.9787C6.13299 47.7727 7.63474 48.4833 7.84982 47.6306C8.20702 47.4655 8.57189 47.4731 8.94829 47.5461C9.50904 47.7036 10.089 47.7766 10.6536 47.9187C12.7315 48.3757 14.8132 48.7713 16.941 48.2451C18.1508 48.1376 19.3299 47.7074 20.5705 47.8803C21.3041 48.2106 22.03 48.103 22.7982 47.9456C23.4664 47.8035 24.3229 47.4693 24.6264 48.5639Z" fill="#CD7247"/>
<path d="M37.3163 22.4887C37.2626 22.1853 37.3163 21.7589 37.1358 21.6053C36.4137 20.9831 36.6749 20.2687 37.0936 19.7924C37.6082 19.2048 37.9193 20.4108 38.507 20.1804C38.7067 19.973 38.941 19.9576 39.1945 20.0498C39.5478 20.2533 39.4249 20.6528 39.5594 20.9447C38.0845 24.6203 35.3191 27.2704 32.4577 29.8399C31.6857 29.4174 32.2311 29.0334 32.4846 28.6224C33.7175 26.6252 34.4281 24.482 34.2514 22.1046C34.501 21.8818 34.7507 21.8818 35.0042 22.0931C34.7392 22.7921 34.8544 23.4642 35.0157 24.3054C35.8645 23.3759 34.7622 22.047 35.8607 21.5285C36.4253 21.2635 36.7018 22.0316 36.9553 22.5002C37.0859 22.8574 37.2011 22.6039 37.3163 22.4887Z" fill="#CD7A52"/>
<path d="M2.74921 46.6891C0.50619 44.6266 -0.196673 42.0148 0.045296 39.069C0.0875446 38.5773 0.306469 38.2278 0.786567 38.0665C2.01562 38.3085 2.06171 39.6912 2.92972 40.2826C3.64795 41.5501 5.38783 41.4733 6.13678 42.7062C6.50549 44.6266 5.21115 43.9468 4.41611 43.7125C3.15633 43.3399 2.55333 42.0225 1.44334 41.4349C1.44718 42.6947 2.11932 43.6126 2.89132 44.4845C3.1256 44.7533 3.32917 45.0452 3.47512 45.3755C3.75933 46.1014 3.62491 46.6007 2.74921 46.6891Z" fill="#CA754F"/>
<path d="M27.2918 1.7409C28.9203 1.80619 30.6295 2.34006 32.0121 0.949694C32.8226 1.04571 33.5638 1.32993 34.2283 1.80619C33.1529 2.28245 32.0928 2.77791 31.9161 4.14138C31.6204 4.38335 31.2824 4.41408 30.9252 4.34879C30.6179 4.40256 30.376 3.81492 30.0303 4.26429C30.0341 4.26813 30.0726 4.4064 30.0726 4.4064C28.6169 5.18992 27.9409 3.78803 26.9423 3.28873C26.95 2.20563 25.7747 2.76638 25.4137 2.19411C25.9284 1.5719 26.5506 1.40675 27.2918 1.7409Z" fill="#CB754A"/>
<path d="M20.8047 4.06069C20.8047 4.31803 20.8047 4.57152 20.8047 4.82885C18.6193 5.4741 16.3072 5.00553 14.1179 5.61237C14.0911 5.78521 14.0296 5.93884 13.9374 6.08479C13.2499 6.51111 12.5317 6.84142 11.7098 6.90671C11.2258 6.77613 10.9186 6.48039 10.8187 5.97724C11.3871 5.10155 12.332 4.66754 13.104 4.02613C14.0219 4.03381 14.817 3.35015 15.7695 3.53451C16.722 3.75343 17.3672 3.36551 17.7667 2.50518C18.17 1.80999 18.7038 1.66404 19.3798 2.11726C19.8484 2.77019 20.4821 3.30022 20.8047 4.06069Z" fill="#D48257"/>
<path d="M19.2685 2.52045C18.6578 1.92513 18.2776 2.0442 18.1201 2.88149C17.9972 3.03128 17.8474 3.06201 17.6707 2.98135C17.3327 2.6472 17.1714 2.26696 17.3481 1.79455C19.1225 0.726808 21.1889 0.738331 23.1208 0.250551C23.4357 0.573177 23.9581 0.235188 24.2577 0.607744C24.3998 1.14545 22.0415 0.673037 23.7545 1.856C23.9312 1.9789 24.1693 2.37835 23.8352 2.43212C21.6959 2.78547 23.574 3.64196 23.5817 4.3333C23.1554 4.23728 22.7482 4.14511 22.3373 4.05293C21.861 3.37311 20.7779 3.98763 20.3708 3.15802C20.6012 2.30921 21.4885 2.68177 21.8764 2.32457C21.066 2.51661 20.1903 2.77779 19.2685 2.52045Z" fill="#CF7F54"/>
<path d="M31.4821 40.1712C31.0788 43.2016 29.4388 45.4177 26.9423 47.0654C26.37 47.2075 26.5006 46.8657 26.6005 46.5623C26.6427 46.4317 26.7771 46.3511 26.804 46.2089C26.6658 46.3434 26.5083 46.4471 26.3201 46.5124C26.1434 46.5239 25.9783 46.4893 25.8208 46.4087C25.6979 46.2704 25.6479 46.1091 25.6595 45.9286C25.8016 45.4946 26.1242 45.1873 26.4199 44.8647C27.3456 43.9698 28.2482 43.0518 28.9664 41.9726C29.3581 41.5385 29.7768 41.1353 30.23 40.7666C30.641 40.5553 30.9175 40.056 31.4821 40.1712Z" fill="#CA724E"/>
<path d="M39.5631 20.941C39.4517 20.6837 39.3403 20.4263 39.2289 20.169C38.9562 19.6812 39.3134 19.4047 39.5861 19.0936C39.9779 18.1718 40.3697 17.2462 40.7614 16.3244C40.531 15.9441 40.2583 15.5217 40.4158 15.0876C40.8651 13.8356 40.6769 12.6295 40.3581 11.3967C40.2468 10.9703 40.4004 10.521 40.7691 10.2022C40.8997 10.0716 41.0341 9.941 41.1647 9.81425C42.1172 12.0419 41.4604 14.3425 41.4835 16.6124C41.0956 17.6648 40.7038 18.7172 40.3159 19.7734C40.0624 20.1652 39.8127 20.5531 39.5631 20.941Z" fill="#C17049"/>
<path d="M25.7977 45.9369C25.7977 46.0751 25.8015 46.2172 25.8015 46.3555C25.8745 46.4554 25.8745 46.5475 25.8054 46.6359C26.0589 46.7127 25.9744 46.4515 26.0665 46.3709C26.731 46.1788 26.996 45.3492 27.7642 45.2762C28.0061 46.1327 26.4813 46.1404 26.9461 47.066C26.2509 47.6844 25.5903 48.3565 24.6301 48.5639C23.8619 47.8803 23.0976 48.322 22.3256 48.5639C21.738 48.7483 21.085 49.1017 20.7931 48.153C20.7048 47.984 20.7278 47.8265 20.8508 47.6806C21.811 47.0852 22.9593 46.9239 23.9349 46.3632C24.3996 46.1635 24.8413 45.9061 25.3368 45.7794C25.5096 45.7679 25.6671 45.8178 25.7977 45.9369Z" fill="#D4825A"/>
<path d="M6.24062 20.5647C5.22281 16.77 5.84118 13.2019 7.73852 9.8105C8.05347 9.90268 8.24935 10.1024 8.2916 10.4365C7.88831 12.2494 7.16625 13.9931 7.124 15.8828C7.07407 17.2655 7.28915 18.6558 6.96268 20.0231C6.81673 20.3342 6.6631 20.6261 6.24062 20.5647Z" fill="#DF8B7A"/>
<path d="M2.7452 40.579C1.66978 40.072 1.44718 38.9 0.786567 38.0665L0.820967 38.0633C0.628928 37.4795 0.506023 36.8957 0.844012 36.3196C1.41245 35.5245 2.75672 36.7651 2.87195 35.0329C3.44422 35.874 2.67607 36.2965 3.1216 36.7228C2.64918 37.299 3.17537 37.7368 3.33668 38.2207C3.40197 38.455 3.39429 38.6893 3.29443 38.9159C2.8489 39.2578 3.10239 39.7532 3.0179 40.1796C2.96797 40.3409 2.87579 40.4715 2.7452 40.579Z" fill="#F6B8AC"/>
<path d="M4.29694 30.9501C3.58639 31.2267 3.25601 32.1557 2.3419 32.0866C4.22773 29.4787 7.00853 28.492 9.98514 27.8468C10.4153 27.6086 10.6611 27.8698 10.8916 28.1771C10.953 28.999 10.1772 29.1066 9.75085 29.5137C9.5857 29.5828 9.41286 29.6174 9.23618 29.6251C8.08395 29.5828 7.02389 29.9093 5.9984 30.4009C5.44533 30.6237 4.93451 30.9885 4.29694 30.9501Z" fill="#EA9788"/>
<path d="M7.75384 47.7687C7.78073 48.8595 6.41341 48.172 6.21369 48.9747C5.24581 48.7673 4.49686 48.2065 3.82088 47.519C3.67109 46.0403 4.76955 46.5473 5.4993 46.4628C5.92563 46.4935 6.33659 46.6049 6.73987 46.7393C7.18541 46.9736 7.78457 47.0658 7.75384 47.7687Z" fill="#D68560"/>
<path d="M17.3482 1.79812C17.4711 2.14763 17.5902 2.50098 17.7131 2.85049C17.3367 3.74924 16.5224 3.61097 15.785 3.65706C14.9093 3.91823 14.0912 4.60573 13.1003 4.02193C14.5175 3.28066 15.9348 2.53939 17.3482 1.79812Z" fill="#CB7645"/>
<path d="M6.24062 20.5647C6.36736 20.4341 6.49401 20.3033 6.61692 20.1727C6.67837 20.1689 6.78976 20.142 6.80128 20.1612C7.75379 22.0125 9.04045 23.7293 9.1864 25.9147C9.12879 26.0952 9.02125 26.2489 8.8753 26.3679C7.49646 24.6588 6.70919 22.681 6.24062 20.5647Z" fill="#ED998B"/>
<path d="M8.13774 10.2252C8.00331 10.0869 7.86888 9.94868 7.73445 9.80657C8.45652 8.28562 9.55883 7.06809 10.8148 5.97347C11.0644 6.19623 11.3141 6.419 11.5599 6.64177C10.5843 7.99372 9.46665 9.20741 8.13774 10.2252Z" fill="#C76846"/>
<path d="M28.5361 33.1125C29.481 34.115 30.6754 34.9177 31.1171 36.3234C30.9865 36.4463 30.8291 36.4962 30.6486 36.4809C29.9956 36.3119 29.7997 35.4285 29.0239 35.4439C28.7551 35.4208 28.5131 35.3402 28.321 35.1404C28.1136 34.8178 28.0637 34.4568 28.0676 34.0842C28.0752 33.896 28.1136 33.7117 28.1713 33.5312C28.2519 33.3583 28.371 33.2162 28.5361 33.1125Z" fill="#E38E7A"/>
<path d="M5.43018 46.7161C5.0653 47.3306 3.92074 46.3745 3.82088 47.519C3.46369 47.2425 3.1065 46.9658 2.74931 46.6854C3.09882 46.3244 3.49442 45.9787 3.1718 45.3987C4.28947 45.2144 4.95776 45.7982 5.43018 46.7161Z" fill="#C3704A"/>
<path d="M31.4821 40.1712C31.1403 40.4401 30.9906 40.9855 30.4145 40.9202C29.7731 40.1712 30.2455 39.4491 30.4606 38.7194C30.7064 38.3161 30.8562 37.7938 31.4976 37.8821C31.7818 38.6464 31.7279 39.4108 31.4821 40.1712Z" fill="#C06B4D"/>
<path d="M24.2615 0.611497C23.8543 0.584611 23.405 0.67679 23.1246 0.254304C24.5265 0.0929909 25.9245 -0.210431 27.3303 0.223578C26.3854 0.991734 25.2754 0.423298 24.2615 0.611497Z" fill="#C66E42"/>
<path d="M8.8753 26.3679C8.88298 26.2181 8.8908 26.0686 8.89848 25.9188C10.1775 25.8804 10.6115 26.9635 11.2913 27.7239C11.3489 27.8968 11.3489 28.0696 11.2874 28.2425C11.1377 28.3654 10.984 28.373 10.8227 28.2617C10.5462 28.1272 10.2658 27.989 9.98926 27.8545C9.61671 27.3552 9.24402 26.8595 8.8753 26.3679Z" fill="#DA7C6F"/>
<path d="M31.5014 37.8827C31.2863 38.1439 31.0751 38.4012 30.86 38.6624C30.1302 37.9019 30.1494 37.1184 30.7908 36.3157C30.9022 36.3195 31.0098 36.3233 31.1212 36.3233C31.4515 36.7919 31.6013 37.3066 31.5014 37.8827Z" fill="#DD856E"/>
<path d="M29.6461 30.9611C29.7998 31.1032 29.9495 31.2415 30.1032 31.3836C29.5962 31.6448 29.0892 31.9059 28.5822 32.1633C28.371 32.29 28.1521 32.363 27.9024 32.3016C27.7526 32.2324 27.6528 32.121 27.6105 31.9597C27.6912 31.518 28.056 31.3414 28.3902 31.134C28.6629 30.988 28.9394 30.8613 29.2428 30.796C29.4003 30.7883 29.5347 30.8459 29.6461 30.9611Z" fill="#CE836F"/>
<path d="M0.844012 36.3196C0.83633 36.8995 0.828649 37.4795 0.820967 38.0633C-0.0585724 37.1914 0.456078 36.1847 0.536735 35.2168C0.924654 35.5049 0.817126 35.9316 0.844012 36.3196Z" fill="#E09283"/>
<path d="M27.7219 32.087C28.0099 32.1139 28.298 32.137 28.586 32.1639C28.5707 32.4826 28.5515 32.7976 28.5361 33.1164C28.5092 33.2931 28.4862 33.4659 28.4593 33.6426C27.5106 33.4544 27.3378 32.9013 27.7219 32.087Z" fill="#E89286"/>
<path d="M27.3188 8.29271C27.58 8.53084 27.8412 8.77281 28.1062 9.01094C30.6795 11.6457 32.7036 14.5993 33.4986 18.2672C33.66 20.6101 34.1554 22.9683 33.1491 25.2498C32.3195 24.9348 32.2965 24.1974 32.2235 23.483C32.2081 23.1105 32.2197 22.7379 32.212 22.3653C32.1736 21.6625 32.0545 20.9903 31.4515 20.5218C30.9522 20.1761 30.3991 20.3605 29.8614 20.3566C29.6963 20.322 29.558 20.2376 29.4428 20.1146C28.9857 19.0392 28.4787 18.0061 27.2881 17.5413C27.0961 16.7002 28.0524 16.9268 28.3098 16.4621C26.3548 17.2648 23.6086 16.0857 21.7612 13.6737C21.5769 13.0899 21.8035 12.5867 22.0723 12.0912C22.9519 10.4896 24.2769 10.8238 25.4714 11.1887C23.4934 10.0672 23.4934 10.0672 22.2029 11.7494C22.0378 11.9683 21.8419 12.145 21.5807 12.2334C20.3593 11.7571 20.2787 10.2285 19.1841 9.63315C18.9728 9.41038 19.5374 8.91876 18.8998 8.84579C18.1432 8.58077 17.2521 8.90724 16.58 8.30424C16.4955 8.16213 16.4609 8.00465 16.484 7.84334C16.9948 7.22882 15.6774 6.77945 16.3265 6.14956C18.9536 5.09718 20.632 6.77176 22.3796 8.23894C22.5601 8.32728 22.2989 8.88035 22.8097 8.6307C23.5587 8.13524 23.7699 7.07519 24.7455 6.83322C25.8401 6.89851 26.7658 7.26722 27.3188 8.29271Z" fill="#F2A89B"/>
<path d="M36.5481 9.43369C35.104 9.02657 35.9797 10.4899 35.104 10.9585C35.4766 9.06114 32.4692 9.73327 32.9148 7.64005C32.9685 7.37887 32.2465 7.05241 32.9186 6.79123C33.2143 6.67601 33.6483 6.76051 33.7252 7.09466C34.1515 8.89214 34.8505 7.49026 35.3076 7.19068C35.9643 6.76051 36.3139 5.8464 37.3125 5.98083C37.781 6.56463 38.3687 7.06393 38.7719 7.67077C39.3327 8.51575 39.2482 9.43753 38.4724 10.2018C38.0691 9.97524 37.9155 9.36456 37.3163 9.43753C37.2472 9.41449 37.1819 9.3876 37.1166 9.3684C36.9898 9.32615 36.8631 9.32231 36.7325 9.3684C36.6749 9.39144 36.6096 9.41449 36.5481 9.43369Z" fill="#C8724A"/>
<path d="M38.4763 10.2022C39.6439 8.37012 37.7081 7.38688 37.3164 5.98115C37.447 5.97731 37.5737 5.97347 37.7043 5.97347C39.4787 6.92598 39.8167 8.40084 39.2368 10.206C38.9833 10.2022 38.7298 10.2022 38.4763 10.2022Z" fill="#D78962"/>
<path d="M37.32 9.43745C38.1304 11.4116 38.1304 11.4116 35.8528 11.9532C37.7732 11.0237 36.4635 10.221 36.548 9.43745L36.5557 9.42977C36.8092 9.207 37.0627 9.207 37.32 9.43745Z" fill="#C8724A"/>
<path d="M33.6521 12.6678C34.3319 13.4936 34.4702 14.2041 33.2104 14.6382C33.3756 13.8969 33.5138 13.2824 33.6521 12.6678Z" fill="#DA8B63"/>
<path d="M30.7717 3.9952C31.1558 4.04513 31.536 4.09122 31.9201 4.14115C31.7165 5.05526 31.5514 5.08214 30.0765 4.40617V4.42153C29.9728 3.73787 30.3684 3.86077 30.7717 3.9952Z" fill="#ECC0A8"/>
<path d="M34.478 5.30889C34.359 5.35882 34.19 5.49325 34.0786 5.45868C33.8174 5.37802 33.4833 5.30889 33.4756 4.94018C33.4756 4.90945 33.7982 4.83263 33.9672 4.84416C34.2053 4.86336 34.4665 4.90561 34.478 5.30889Z" fill="#E2A680"/>
<path d="M35.0465 16.3546C35.0196 16.4737 35.0042 16.5889 35.0004 16.7118C34.7392 16.7771 34.4089 17.0959 34.2822 16.5927C34.1977 16.2701 34.3398 15.9283 34.6816 15.8591C35.0119 15.79 34.9966 16.128 35.0465 16.3546Z" fill="#DB9678"/>
<path d="M33.9401 3.44245C34.2512 3.7766 34.3664 3.90335 34.4855 4.03009C34.3626 4.13379 34.2128 4.3412 34.1244 4.31815C33.9708 4.2759 33.7903 4.11075 33.7442 3.96096C33.7058 3.83805 33.8479 3.66138 33.9401 3.44245Z" fill="#E7AD8C"/>
<path d="M35.4495 4.85574C35.3688 4.77893 35.1729 4.68675 35.1345 4.55232C35.0769 4.3526 35.2344 4.17208 35.4533 4.22201C35.6069 4.25658 35.7951 4.39869 35.8451 4.53696C35.9219 4.75972 35.7298 4.84422 35.4495 4.85574Z" fill="#F8DAC5"/>
<path d="M2.7645 40.1408C2.46492 38.9041 2.46492 38.9041 3.13706 39.0039C3.94747 38.881 4.50054 40.2176 5.43001 39.4034C5.81025 38.5622 6.59761 38.2281 7.3504 37.8479C7.74984 38.2319 7.94572 38.6967 7.915 39.2958C8.01486 38.7543 7.70759 38.3088 7.73832 37.8171C7.69607 36.9606 6.93944 37.1834 6.46702 36.9683C5.86786 36.6918 5.83329 36.2578 6.14439 35.7201C6.4555 35.1747 6.83189 35.1516 7.1622 35.6317C7.41185 35.9928 7.69991 36.2347 8.09551 36.0926C9.86611 35.4666 11.0452 35.8468 11.1605 37.9362C11.848 37.7326 11.3487 36.9645 12.1399 36.9069C12.6545 37.7787 11.3218 38.9348 12.3549 39.7682C12.3703 39.8566 12.3895 39.9449 12.4087 40.0333C11.6751 40.909 10.5267 40.6094 9.61262 41.0088C8.83294 41.3468 7.89963 41.2469 7.46178 42.284C7.19293 42.9177 6.53615 42.8294 6.00997 42.4184C4.96527 41.6041 3.69782 41.1125 2.7645 40.1408Z" fill="#F3A195"/>
<path d="M15.4314 38.2512C14.6364 37.2104 15.1741 35.8738 14.6632 34.7715C14.7977 34.6371 14.9628 34.5833 15.151 34.5948C15.4276 34.6678 15.6311 34.8406 15.7886 35.0711C15.7003 37.1336 17.6014 36.5997 18.6116 37.2258C18.819 37.6674 18.6077 38.2013 18.9265 38.62C19.3144 39.0809 19.3144 39.7415 19.7331 40.1793C20.3361 41.1818 20.4974 39.7376 20.9583 39.9527C22.0183 39.9105 22.9209 40.3829 23.8389 40.8092C24.1538 41.4084 23.7621 41.6503 23.305 41.8539C22.4485 41.8885 21.327 41.2355 21.0313 42.7334C20.3361 43.6706 19.2645 43.6591 18.2697 43.8357C18.0892 43.8511 17.9087 43.8242 17.7359 43.7705C17.1943 43.5899 17.4478 42.841 16.5183 42.6105C15.2278 42.2918 15.8654 40.9129 16.407 39.9681C17.3479 38.6661 16.3071 38.5047 15.4314 38.2512Z" fill="#F5B0A5"/>
<path d="M15.4316 35.1595C15.2972 35.0328 15.1589 34.906 15.0245 34.7793C14.698 33.7538 13.7455 34.28 13.1156 34.0073C12.14 33.3006 11.8059 31.5722 10.0622 32.0869C9.65121 31.6529 9.83557 31.0153 9.53214 30.5467C9.5091 30.3739 9.54367 30.2164 9.61664 30.059C9.85093 29.8016 10.1159 29.575 10.3502 29.3139C11.7713 28.0694 12.2706 29.0719 12.6893 30.2702C12.8045 30.612 12.9159 30.9539 13.0618 31.2842C13.3307 31.6529 13.4766 32.5363 14.0028 32.1599C15.1282 31.3495 16.0346 32.2597 17.037 32.2559C17.5863 32.3558 18.0971 32.5171 18.2814 33.1354C17.5479 34.1148 17.302 35.7817 15.4316 35.1595Z" fill="#F29E93"/>
<path d="M15.4314 38.2512C16.165 37.7558 16.6796 37.8284 17.2442 38.6273C17.9816 39.672 16.7833 39.6451 16.5643 40.1406C16.211 40.5938 15.7808 40.8665 15.1778 40.7436C14.7208 40.4824 14.2599 40.4133 13.8067 40.7628C13.4571 40.8818 13.1153 40.8818 12.785 40.7052C12.4278 40.4901 12.5546 40.0561 12.3587 39.7642L12.3472 39.768C12.2857 38.9807 12.5968 38.5966 13.4379 38.5966C14.1139 38.6004 14.863 38.8658 15.4314 38.2512Z" fill="#FACFCA"/>
<path d="M4.29694 30.9501C4.68102 30.4508 5.21482 30.2394 5.81783 30.1588C6.75114 29.7939 7.10065 30.2817 7.21971 31.1113C7.16594 31.5338 6.97774 31.8718 6.61287 32.1022C6.49765 32.1061 6.38242 32.1061 6.2672 32.1061C5.74869 31.5299 5.19562 32.4709 4.66943 32.0715C4.54269 31.6989 4.41984 31.3265 4.29694 30.9501Z" fill="#F6B9AD"/>
<path d="M5.43001 39.4034C4.35459 41.0472 3.8284 39.5608 3.13706 39.0039C3.13706 38.7466 3.13714 38.4892 3.13714 38.2319C3.14098 37.9016 3.22932 37.6212 3.54042 37.4484C4.0935 38.1743 4.17023 39.3611 5.43001 39.4034Z" fill="#F8C1B9"/>
<path d="M6.60922 32.1024C6.62459 31.7913 6.66299 31.4918 6.9741 31.3189C7.30441 31.0309 7.68464 30.8695 8.12633 30.8695C8.77158 30.931 9.42452 30.9925 9.45909 31.872C9.32082 32.3675 8.9329 32.4596 8.49505 32.4712C7.9727 31.8221 7.13925 32.7323 6.60922 32.1024Z" fill="#EB968A"/>
<path d="M9.24403 32.0025C9.20947 31.2612 8.64103 31.3381 8.15325 31.2881C8.09948 30.3318 8.13789 30.3126 9.66268 30.5699C11.0338 30.7504 9.85088 31.5992 10.0583 32.0832C10.0237 32.5018 10.1428 32.9819 9.60507 33.1931C9.2978 32.8552 9.20562 32.448 9.24403 32.0025Z" fill="#F7BCB3"/>
<path d="M13.1156 34.0073C14.0297 33.5771 14.8593 33.3505 15.0245 34.7793C14.9054 34.7793 14.7863 34.7753 14.6672 34.7714C14.3638 34.3374 14.022 34.5794 13.6571 34.6869C12.9619 34.8982 12.8736 34.568 13.1156 34.0073Z" fill="#F7C0B7"/>
<path d="M4.6658 32.0749C5.19967 32.071 5.76043 30.5539 6.26357 32.1095C5.82956 32.313 5.4186 32.5972 4.96154 32.6971C4.21259 32.8622 4.68117 32.3284 4.6658 32.0749Z" fill="#FCEFED"/>
<path d="M3.54042 37.4484C3.51738 37.7672 3.45605 38.0627 3.14111 38.2317C2.47281 37.7362 1.66241 37.2407 3.12575 36.7222C3.26401 36.9642 3.40215 37.2064 3.54042 37.4484Z" fill="#FBD6CE"/>
<path d="M7.73454 37.8175C8.43741 38.3974 7.90738 39.2347 7.96499 39.9837C7.75759 39.2731 7.55403 38.5587 7.34662 37.8482C7.47721 37.8367 7.6078 37.8251 7.73454 37.8175Z" fill="#E78F83"/>
<path d="M9.24403 32.0025C9.74333 32.2867 9.6895 32.7359 9.60885 33.1929C9.05577 33.2313 8.72931 32.9279 8.49886 32.4709C8.74467 32.3172 8.99438 32.16 9.24403 32.0025Z" fill="#FBEAE5"/>
<path d="M32.6997 23.2451C32.6651 23.9557 32.742 24.6393 33.1452 25.2539C32.934 26.529 32.6152 27.7581 31.5897 28.6606C30.714 28.7106 30.0227 28.0461 29.1623 28.0346C28.7475 27.8426 28.3711 27.6121 28.3135 27.0974C28.4364 25.9721 28.6054 24.8275 27.1536 24.1132C27.8834 25.0234 28.4595 25.83 28.302 26.9169C28.5978 27.7619 28.6823 28.6875 29.2353 29.4442C29.5503 29.9435 29.7039 30.4428 29.2584 30.9536C29.0087 31.0957 28.7591 31.234 28.5094 31.3761C27.8373 31.7064 27.2919 31.3607 26.7849 31.0035C25.5021 30.0971 24.0733 29.4864 22.6637 28.8181C22.0684 28.265 22.2028 27.7965 22.8212 27.3778C24.0042 26.4714 25.1334 26.6673 26.2203 27.5545C26.228 27.7542 26.1397 27.9079 25.9745 28.0192C26.1012 27.9885 26.1512 27.8694 26.2395 27.7811C27.1613 27.1051 27.1728 26.4714 26.1589 25.903C25.7248 25.6572 25.1718 25.6187 24.8722 25.1425C24.6686 24.8583 25.2371 24.0555 24.2077 24.2898C23.7353 24.3974 23.309 23.8866 22.9518 23.5178C22.6061 23.0954 22.0953 22.8649 21.7343 22.4655C21.4693 22.1006 21.2542 21.705 21.0583 21.3055C20.3862 19.9267 20.5705 19.5772 22.1836 19.0894C22.948 19.3852 23.7084 19.7039 24.5496 19.727C25.287 19.7462 24.4651 19.2277 24.757 19.0894C24.949 18.4979 24.588 17.7759 25.1871 17.2804C25.7441 17.0154 26.2971 17.0461 26.8387 17.315C26.8387 19.0856 27.9026 20.0957 29.3621 20.8216C29.9728 22.1083 31.2594 23.1414 30.8792 24.8698C31.1903 23.8712 30.522 22.9494 30.8677 22.0161C31.0981 21.4092 30.9829 20.668 31.5628 20.1917C32.6191 20.4414 32.4462 21.4092 32.6959 22.1313C32.3041 22.4962 32.3041 22.8687 32.6997 23.2451Z" fill="#F4AEA2"/>
<path d="M29.2545 27.8694C30.3338 27.2395 30.8753 28.2074 31.5897 28.6606C31.3286 29.7553 30.5143 30.3813 29.6463 30.9651C29.5157 30.9613 29.3851 30.9574 29.2545 30.9536C29.3083 30.3967 29.1393 29.8935 28.8704 29.4173C28.9933 28.8949 28.2559 28.169 29.2545 27.8694Z" fill="#F3A598"/>
<path d="M40.7652 10.206C40.7575 12.2454 41.1877 14.2887 40.7575 16.3282C40.481 16.1746 39.9471 15.9403 39.9663 15.875C40.5425 13.9507 39.7551 12.0496 39.9011 10.156C39.9779 9.20737 40.4656 10.156 40.7652 10.206Z" fill="#CC7E56"/>
<path d="M37.8963 14.2694C39.3251 15.9402 38.0845 16.4395 37.4469 17.1846C36.9745 16.1476 38.169 15.583 37.8963 14.2694Z" fill="#CD7951"/>
<path d="M39.5861 19.0975C39.4671 19.4547 39.348 19.8119 39.2289 20.173C38.987 20.173 38.7488 20.1768 38.5069 20.1768C38.5299 19.4816 38.818 19.0476 39.5861 19.0975Z" fill="#DA9878"/>
<path d="M35.0042 22.0931C34.7545 22.0969 34.501 22.1008 34.2514 22.1046C34.332 21.7436 34.0362 21.1056 34.7083 21.1632C35.1039 21.1939 34.9735 21.7474 35.0042 22.0931Z" fill="#DB8D67"/>
<path d="M37.2395 16.5353C36.84 16.712 36.6249 16.8656 36.3945 16.8887C36.2793 16.9002 36.0527 16.7082 36.0258 16.5737C35.9682 16.2933 36.1948 16.1128 36.4444 16.0783C36.5673 16.0629 36.7171 16.2281 37.2395 16.5353Z" fill="#CD7951"/>
<path d="M37.3163 22.4887C37.2933 22.8343 37.4505 23.2455 37.0127 23.4452C36.9397 23.4798 36.7169 23.3645 36.7208 23.353C36.7822 23.065 36.8667 22.7846 36.9474 22.5042C37.0741 22.4965 37.1934 22.4887 37.3163 22.4887Z" fill="#DF9F7D"/>
<path d="M22.3409 8.65813C20.5281 7.26393 18.7459 5.78139 16.1918 6.36903C15.8961 6.7531 15.5274 6.98739 15.0204 6.96435C14.4519 6.82608 14.064 6.47273 13.8336 5.93886C13.8605 5.83516 13.8873 5.72761 13.9142 5.62391C15.6272 4.66756 17.4324 4.94794 19.2376 5.22447C19.6946 5.71225 20.3283 5.68537 20.8468 5.56246C22.0375 5.28208 23.0476 5.39731 23.8542 6.39591C24.3035 6.43048 24.7414 6.48041 24.6915 7.10261C23.9886 7.68257 23.8158 8.78872 22.7788 9.03837C22.5291 9.03069 22.3908 8.89242 22.3409 8.65813Z" fill="#F0A091"/>
<path d="M24.6915 7.10261C24.4111 6.86449 24.131 6.62964 23.8545 6.39151C24.0196 6.04968 24.3269 5.98054 24.6649 5.98054C25.0221 6.29165 25.3831 6.38383 25.748 5.99207C27.7414 5.75394 27.4111 7.10205 27.3189 8.28886C26.4432 7.8971 25.5672 7.49822 24.6915 7.10261Z" fill="#CB7454"/>
<path d="M19.2685 2.52045C20.148 2.03267 21.0698 2.05192 22.0184 2.23628C22.0108 3.15422 21.0659 2.65876 20.7587 3.1235C21.2464 3.51142 22.2873 2.96602 22.3449 4.05681C21.8302 4.05681 21.3194 4.05681 20.8047 4.05681C20.0481 3.79179 19.5373 3.27709 19.2685 2.52045Z" fill="#DA8D63"/>
<path d="M19.2417 5.22391C17.4595 5.24695 15.6697 5.1855 13.9183 5.61951C15.0667 4.0179 16.7874 5.11253 18.2085 4.73997C19.0112 4.52873 19.9368 4.78222 20.8049 4.82447C20.3939 5.40059 19.7717 5.13557 19.2417 5.22391Z" fill="#CA724B"/>
<path d="M27.2918 1.7409C26.6658 1.89069 26.0435 2.04405 25.4174 2.19384C25.4405 1.17604 25.8208 1.08412 27.2918 1.7409Z" fill="#EEBC9E"/>
<path d="M25.7478 5.99624C25.6556 6.1998 25.598 6.54932 25.4597 6.58388C25.0142 6.69143 24.8298 6.31887 24.6647 5.98472C25.0257 5.98856 25.3867 5.9924 25.7478 5.99624Z" fill="#DE9470"/>
<path d="M30.7908 36.3157C30.8139 37.0992 30.8369 37.8789 30.86 38.6624C30.714 39.4152 30.5641 40.1678 30.4182 40.9244C30.0495 41.3354 29.6807 41.7425 29.312 42.1534C28.5055 42.6796 27.2534 42.6643 27.1919 44.0969C27.1766 44.431 26.4775 44.5347 26.0243 44.5578C25.1141 44.7345 25.694 45.5141 25.4597 45.9635C25.0526 46.1863 24.6455 46.409 24.2384 46.628C23.4548 46.5243 22.7366 46.1632 21.9569 46.0557C21.2157 45.8867 20.4513 45.6255 20.0481 46.6049C20.4974 46.9237 20.4052 47.5843 20.8815 47.8762C20.8431 47.9646 20.8124 48.0567 20.797 48.1527C19.5411 48.3141 18.2851 48.4754 17.0292 48.6367C15.8616 48.8979 14.7055 48.8326 13.5379 48.6828C13.4688 47.8455 14.2331 47.5267 14.2946 46.8853C14.3675 46.6049 14.4712 46.3399 14.6902 46.1363C15.3508 45.7062 16.1765 45.8905 16.864 45.5564C18.0739 45.0571 19.3375 44.746 20.5858 44.3849C23.2359 43.0599 26.2317 42.2226 27.7258 39.2805C27.9101 38.9733 28.0446 38.643 28.1636 38.3088C28.7436 37.3486 28.5631 36.1311 29.216 35.1978C30.2761 34.8214 30.1763 36.066 30.7908 36.3157Z" fill="#F3A99D"/>
<path d="M5.43018 46.7161C4.67738 46.2783 3.92459 45.8404 3.1718 45.3987C3.02969 45.1875 2.89142 44.9724 2.74931 44.7611C2.81076 43.9507 3.27166 43.5436 4.05518 43.4706C6.24827 44.3732 8.5681 44.8687 10.8226 45.583C11.176 45.8289 11.7291 46.0631 11.5485 46.5548C11.3258 47.1693 10.6882 47.1616 10.089 47.1693C10.2158 47.538 11.0838 47.5649 10.7305 48.2447C10.7113 48.2793 10.6344 48.2985 10.5884 48.2985C10.5269 48.2946 10.4693 48.2601 10.4117 48.2409C9.88549 48.2025 9.32089 48.3369 8.88688 47.8952C8.24547 47.3229 7.5042 47.0003 6.63234 47.0233C6.22906 46.9196 5.82962 46.8198 5.43018 46.7161Z" fill="#F4A99D"/>
<path d="M10.4079 48.2408C10.6959 47.4688 9.50528 47.7875 9.64739 46.9618C9.35165 46.0938 11.7022 47.6377 10.8111 45.9478C11.0262 45.6521 11.3373 45.5253 11.6792 45.46C12.8007 45.3333 13.926 45.4331 15.0514 45.364C15.7389 45.3909 16.4456 45.3602 16.9641 45.9401C16.2689 46.6084 15.374 46.1514 14.5943 46.3626C14.3139 46.6199 14.3178 46.8542 14.6442 47.0655C15.0898 47.9028 13.9375 47.8874 13.853 48.6402C14.9323 48.6402 15.977 48.6402 17.0179 48.6402C14.771 49.3123 12.5779 49.0051 10.4079 48.2408Z" fill="#F09F90"/>
<path d="M6.63234 47.0233C7.68088 46.5432 8.47592 46.7276 8.88688 47.8952C8.51049 47.853 8.13001 47.8146 7.75361 47.7723C7.37722 47.5188 7.0049 47.273 6.63234 47.0233Z" fill="#F8C3B8"/>
<path d="M17.6168 50.1694C17.4094 50.012 17.179 49.9275 17.1521 49.8007C17.083 49.4397 17.4018 49.4128 17.6399 49.4013C17.855 49.3936 18.2237 49.3206 18.1469 49.7047C18.1123 49.8814 17.8127 50.0043 17.6168 50.1694Z" fill="#E6A483"/>
<path d="M12.5816 49.8505C12.451 49.8812 12.2705 49.9849 12.1438 49.9388C11.9978 49.8889 11.898 49.7045 11.7789 49.5816C11.9402 49.5317 12.1015 49.4434 12.259 49.4472C12.4357 49.4511 12.6316 49.524 12.5816 49.8505Z" fill="#EDBCAA"/>
<path d="M16.9676 45.9405C16.3301 45.9366 15.6925 45.9328 15.0549 45.929C14.8437 45.6716 14.5172 45.7523 14.2522 45.6447C14.1523 45.541 14.0678 45.4258 13.9872 45.3106C13.3304 45.0225 12.5738 45.3605 11.9362 44.9726C11.3754 45.011 10.8339 44.8228 10.3807 44.8113C10.6918 44.7844 11.0797 45.0302 11.5022 44.9649C11.6789 44.9649 11.8517 44.9995 12.013 45.0725C12.0975 45.2376 12.1167 45.4066 12.0668 45.5833C11.9247 45.6908 11.7749 45.7868 11.6174 45.8675C11.3524 45.8944 11.0835 45.9213 10.8185 45.9482C8.39499 45.5449 6.07516 44.8113 3.88591 43.6898C2.44178 43.3057 1.4739 42.4607 1.22425 40.9283C2.3496 40.7477 2.54932 41.8731 3.19073 42.3609C3.85519 42.8679 4.43899 43.4555 5.30316 43.5938C6.00987 43.7051 6.04827 43.3364 5.84087 42.8102C7.14674 42.599 8.38731 42.9677 9.63557 43.2558C10.4037 43.5362 11.2026 43.4977 12.0015 43.4632C12.2089 43.444 12.4163 43.4478 12.6275 43.4632C14.329 43.6399 16.0305 43.0599 17.7281 43.4901C17.8395 43.5093 17.947 43.5285 18.0584 43.5477C19.1646 43.0061 19.6869 44.6807 20.7623 44.2621C20.8622 44.3542 20.9044 44.4579 20.8852 44.5616C20.866 44.673 20.843 44.7268 20.8122 44.7268C19.5217 45.1339 18.2466 45.5372 16.9676 45.9405Z" fill="#CA704B"/>
<path d="M9.61635 43.6516C8.2836 43.6977 7.11216 43.0141 5.83702 42.8105C4.93059 41.8964 3.39429 41.8503 2.7452 40.579C2.75288 40.433 2.76066 40.2868 2.7645 40.1408C4.00508 40.3597 4.88834 41.1974 5.8447 41.9079C6.48611 42.3842 6.79337 42.9065 7.26963 41.5469C7.8035 40.0259 9.77382 40.821 10.9875 40.1911C11.3869 39.9837 12.0053 40.2679 12.3625 39.7686C12.6659 39.9338 12.7312 40.218 12.7427 40.5291C12.9271 41.1551 12.2934 41.0822 12.0706 41.351C11.7441 41.7505 12.2819 41.4816 12.3587 41.6084C12.6467 41.7927 12.8234 42.0654 13.0001 42.3419C13.5071 43.1639 13.0654 43.6094 12.3587 43.9512C12.2242 43.9551 12.0937 43.9551 11.9592 43.9589C11.218 43.5595 10.3615 44.0242 9.61635 43.6516Z" fill="#F6B4A9"/>
<path d="M1.2169 40.9242C1.87367 42.065 2.94525 42.8101 3.87856 43.6858C3.50216 44.043 3.12571 44.4039 2.74931 44.7611C1.32822 43.9584 1.12856 42.4145 0.621576 41.0971C0.414174 40.5671 0.98261 40.9204 1.2169 40.9242Z" fill="#F3B29E"/>
<path d="M27.6375 3.00839C27.5338 2.63584 27.7143 2.5667 27.8949 2.56286C28.2136 2.55518 28.5171 2.67808 28.6323 2.98535C28.7322 3.25804 28.5017 3.50385 28.2713 3.44624C28.0101 3.37711 27.795 3.12361 27.6375 3.00839Z" fill="#A75732"/>
<path d="M30.7717 3.9952C30.5412 4.13731 30.3108 4.27942 30.0765 4.42153C29.7462 4.27174 29.3314 4.24072 29.1855 3.78367C29.7577 3.62619 30.2954 3.54199 30.7717 3.9952Z" fill="#CD7951"/>
<path d="M13.8336 5.93886C14.4327 5.91581 14.6404 6.47652 15.0398 6.74922C15.1704 7.25236 14.7902 7.35222 14.4599 7.49433C14.1065 7.60187 13.734 7.6326 13.3729 7.7363C13.1655 7.79775 13.1387 7.85152 13.3307 7.90145C13.4459 7.93218 13.5765 7.9053 13.7071 7.90914C14.6135 8.05509 15.47 8.33546 16.2612 8.79636C16.991 9.3187 17.3827 10.0446 17.5287 10.9165C17.6439 11.5924 17.1408 12.157 17.6285 13.0135C18.1317 13.8892 17.4519 14.9339 16.1844 15.1183C15.6006 15.0645 15.036 14.8725 14.4445 14.8994C13.9452 14.8763 13.5189 15.0453 13.1579 15.391C11.9595 16.7468 11.9595 16.7468 10.6537 14.2964C10.0622 14.5652 10.1889 15.318 9.73957 15.6714C9.44767 15.8826 9.1212 15.921 8.77937 15.8634C8.39529 15.7174 8.06883 15.7751 7.81918 16.1323C7.04334 16.789 6.84746 16.1553 6.62085 15.5945C6.85898 13.7279 7.14704 11.8767 8.13412 10.2213C8.98677 8.75411 10.0696 7.5021 11.5599 6.64177C12.3434 6.48429 12.9848 5.87741 13.8336 5.93886Z" fill="#F4A89C"/>
<path d="M15.7847 3.6609C16.4261 3.39204 17.0714 3.12319 17.7128 2.85433C17.8472 2.86585 17.9816 2.87354 18.1199 2.88506C17.2289 4.01425 16.6182 4.22165 15.7847 3.6609Z" fill="#DF9B77"/>
<path d="M25.8018 44.3733C25.9132 43.924 27.6876 44.4233 26.4739 43.1712C26.2281 42.9177 26.6083 42.5989 26.9233 42.5374C27.7145 42.3838 28.5134 42.2763 29.3084 42.1534C28.5748 43.3171 27.8143 44.454 26.5469 45.1223C26.0975 45.0685 25.6597 45.0109 25.8018 44.3733Z" fill="#F7B9AD"/>
<path d="M25.8018 44.3733C26.0514 44.623 26.2969 44.8686 26.5466 45.1182C26.2969 45.3909 26.0473 45.6642 25.7977 45.9369C25.6825 45.9292 25.5672 45.9363 25.4558 45.9632C24.8259 45.4408 24.8912 44.7495 25.2023 44.1619C25.5057 43.5781 25.7173 43.9508 25.8018 44.3733Z" fill="#F7C6BA"/>
<path d="M26.0665 46.3709C26.0934 47.0737 25.721 47.3804 24.9951 47.4264C24.8261 46.7005 25.5558 46.7044 25.8055 46.3587C25.89 46.3818 25.9744 46.3862 26.0665 46.3709Z" fill="#F3D3C4"/>
<path d="M20.8778 47.8762C20.0789 47.8724 20.1942 46.9352 19.6488 46.6741C20.0828 45.4181 21.1044 45.9328 21.9494 45.9098C23.0056 45.2146 23.5432 46.1632 24.2384 46.628C23.1706 47.1926 22.1261 47.8071 20.8778 47.8762Z" fill="#F2AFA3"/>
<path d="M6.62853 15.5979C6.95884 15.7938 7.1432 16.4237 7.69243 15.9474C8.61806 16.6926 7.9344 17.9677 8.62958 18.7896C8.87539 19.4963 9.17881 20.2184 8.19557 20.637C8.94837 20.7792 9.62434 21.0211 9.79334 21.9007C9.64355 22.4384 9.58594 22.9415 10.2581 23.1604C11.0954 21.5704 11.7253 21.5051 12.9313 22.8609C13.0734 23.5138 13.5381 23.7097 14.1373 23.8748C15.0821 24.136 14.3831 23.3064 14.6711 23.1566C15.7965 22.2617 16.3841 23.8863 17.3558 23.7174C17.6132 23.6981 17.859 23.7366 18.0971 23.8403C18.5234 24.1206 18.9498 24.3933 19.4222 24.6007C20.874 26.1486 19.2801 26.1063 18.4581 26.4674C18.197 26.2984 18.0894 26.3637 18.1509 26.6824C16.9372 27.1702 15.47 26.8322 14.4176 27.8385C13.3461 27.9806 12.2745 28.1765 11.1991 27.8769C10.4347 27.224 9.66659 26.5711 8.90228 25.9181C8.59501 23.8211 7.0395 22.2233 6.62085 20.1723C6.62085 18.6475 6.62469 17.1227 6.62853 15.5979Z" fill="#F6B2A7"/>
<path d="M12.3473 30.5392C11.9248 29.7441 11.825 28.1233 10.4346 29.7864C10.112 29.7672 9.81624 29.6942 9.65108 29.3754C9.62036 28.5612 10.5575 28.7571 10.8225 28.2539C10.9416 28.2385 11.0606 28.2232 11.1797 28.2155C12.7544 27.6087 14.3829 27.4742 16.046 27.7008C16.6644 28.9568 15.5083 29.0682 14.7824 29.6942C16.0806 29.5022 17.106 29.8862 17.8665 30.8695C17.8051 31.5378 17.4824 32.064 16.9678 32.4788C16.503 33.0395 16.1228 32.8206 15.7195 32.3828C15.4391 32.0793 15.0359 31.9987 14.671 32.1869C13.2921 32.9013 13.2998 32.9128 12.7352 31.365C12.8236 30.9847 12.6623 30.7274 12.3473 30.5392Z" fill="#F4A99F"/>
<path d="M9.66628 30.5697C9.45503 31.4262 8.24135 30.1741 8.15685 31.288C7.76509 31.2995 7.36949 31.3072 6.97773 31.3187C6.947 30.5774 6.54374 30.2049 5.81783 30.1588C6.8702 29.4137 7.96097 28.8644 9.28604 29.4444C9.00566 29.9091 9.38206 30.0397 9.6778 30.2087C9.67396 30.3278 9.66628 30.4507 9.66628 30.5697Z" fill="#F4A99F"/>
<path d="M9.6778 30.2087C9.06327 30.201 9.02103 29.9015 9.28604 29.4444C9.40894 29.4214 9.52813 29.3982 9.65104 29.379C9.96982 29.4097 10.2694 29.4673 10.4346 29.79C10.1811 29.9282 9.93129 30.0666 9.6778 30.2087Z" fill="#F9CCC3"/>
<path d="M27.7219 32.087C27.7564 32.7054 28.0061 33.2201 28.4593 33.6426C28.4516 33.7732 28.444 33.9071 28.4363 34.0377C28.0906 34.3488 27.9639 34.9479 27.3302 34.8826C26.9115 34.6215 26.4545 34.5638 25.9705 34.6445C25.6748 34.6483 25.2561 34.4256 25.1217 34.8097C24.6877 36.0694 23.6315 36.0195 22.6137 36.0925C22.4332 36.0617 22.2911 35.9734 22.195 35.8159C22.0068 35.1553 22.629 34.5907 22.1297 33.7496C21.5728 32.8124 22.7942 32.9891 23.3089 32.7817C23.3396 32.3823 22.8787 32.244 22.8441 31.8868C22.6982 30.3543 24.0962 30.5272 24.8913 30.0279C26.2394 30.1585 27.115 30.9387 27.7219 32.087Z" fill="#F3A197"/>
<path d="M27.3227 34.7788C27.7222 34.5753 27.8448 33.957 28.4363 34.0377C28.4709 34.4294 28.5057 34.8173 28.5402 35.2052C28.9166 36.0463 28.6209 36.6877 27.9411 37.2139C27.4725 37.3522 26.8772 36.415 26.4509 37.4866C26.3126 37.8361 25.6789 38.2394 25.1027 38.3277C24.7033 38.1472 24.5958 37.6786 24.2424 37.4559C23.5203 37.0526 21.8534 37.8284 22.3374 35.9311C23.2899 35.451 24.6918 35.739 24.9491 34.0683C25.0298 33.5344 25.6558 34.5906 26.1705 34.3909C26.5776 34.4524 26.9732 34.5522 27.3227 34.7788Z" fill="#F6B8AC"/>
<path d="M27.7374 37.1068C28.0024 36.4731 28.2714 35.8389 28.5402 35.2052C28.7669 35.2013 28.9932 35.1978 29.216 35.1978C29.4196 36.4345 29.2007 37.5792 28.4825 38.6201C27.8334 38.7775 27.7181 38.2629 27.5069 37.8596C27.457 37.5715 27.4877 37.3065 27.7374 37.1068Z" fill="#CC6C4F"/>
<path d="M27.7219 32.087C26.7578 31.5378 26.1472 30.4887 25.0142 30.1776C22.0645 29.59 19.038 29.3365 16.1958 28.2419C14.525 27.2317 12.8466 28.3456 11.172 28.215C11.1836 28.0998 11.1912 27.9884 11.1912 27.8731C12.282 27.2164 13.4957 27.5697 14.6556 27.4583C16.1151 26.7939 17.6053 27.0858 19.0917 27.297C19.5027 27.3393 19.9175 27.347 20.3285 27.393C21.3079 27.4391 21.9838 28.0882 22.7174 28.6183C24.9989 28.7873 26.4929 30.6193 28.5016 31.3644C28.2482 31.6102 27.9869 31.8489 27.7219 32.087Z" fill="#E89286"/>
<path d="M19.2337 9.41448C20.7585 9.67565 21.012 11.0199 21.542 12.1299C21.976 13.2476 21.1349 13.1784 20.4743 13.2821C19.1108 12.9057 17.3056 13.0671 17.4592 10.8279C17.5053 9.12258 17.6897 8.97663 19.2337 9.41448Z" fill="#F29F94"/>
<path d="M26.9499 17.5031C26.3085 17.5031 25.671 17.5031 25.0295 17.5031C24.5879 17.9179 24.2153 17.6491 23.8466 17.3802C23.716 17.2573 23.6085 17.1152 23.5124 16.9616C23.1552 15.6749 21.5805 15.1142 21.5114 13.6508C21.665 13.5241 21.8187 13.5241 21.9761 13.647C23.0669 14.9605 24.8337 15.2371 26.0858 16.3701C27.1535 17.3341 27.8448 16.1512 28.5093 15.4137C29.193 16.7926 29.193 16.7926 27.2879 17.4685C27.1842 17.6068 27.0728 17.6183 26.9499 17.5031Z" fill="#FAD4CC"/>
<path d="M26.9499 17.5031C27.0613 17.4878 27.1727 17.4763 27.2841 17.4686C29.2429 17.361 29.4388 18.7783 29.6385 20.1917C29.8267 20.6334 29.5809 20.8254 29.2084 20.9406C26.2164 19.677 26.2163 19.677 26.9499 17.5031Z" fill="#ED9B90"/>
<path d="M21.911 11.7148C22.1837 10.7777 23.0172 9.50639 23.5395 9.68307C24.8031 10.1056 26.2895 10.6241 26.977 12.4369C25.3178 11.8109 23.8506 10.3322 22.3489 12.1373C21.984 12.2257 21.8112 12.1143 21.911 11.7148Z" fill="#FBDBD3"/>
<path d="M16.1651 9.06128C15.2741 8.79627 14.383 8.52741 13.492 8.2624C13.3038 7.58258 14.0181 7.52112 14.2639 7.13705C14.5789 7.11784 14.8746 7.05639 15.0436 6.74529C15.4277 6.61854 15.8118 6.49179 16.192 6.36505C16.2612 6.89124 18.5464 6.85283 16.5838 7.90136C16.4455 7.74773 16.3226 7.55953 16.073 7.72469C16.2535 7.75925 16.4686 7.68628 16.5838 7.9052C17.3097 8.76554 18.5503 7.79766 19.2723 8.66184C18.3006 9.2802 17.2329 9.18418 16.1651 9.06128Z" fill="#F6B9AF"/>
<path d="M29.2082 20.9372C29.3503 20.6876 29.4963 20.4379 29.6384 20.1883C29.7651 20.1729 29.8919 20.1614 30.0186 20.1499C30.3566 20.845 31.866 20.8374 31.2016 22.1279C30.9058 23.3454 31.7316 24.778 30.2529 25.8957C32.0273 23.6757 29.1775 22.6848 29.2082 20.9372Z" fill="#FBD9D0"/>
<path d="M28.8974 12.487C29.6886 13.5433 30.4683 14.6033 31.271 15.6519C31.5398 16.0014 31.5898 16.3278 31.3248 16.6773C31.0789 17 30.7717 16.8771 30.4683 16.781C30.1188 16.6697 29.6655 16.6543 29.7961 16.0897C30.1111 14.7147 29.0011 13.9197 28.4979 12.875C28.6132 12.729 28.6516 12.5063 28.8974 12.487Z" fill="#F7BDB2"/>
<path d="M16.1651 9.06128C17.1177 8.27008 18.2429 8.83834 19.2722 8.65782C19.6717 8.93052 19.299 9.16483 19.2337 9.41448C18.0162 9.24164 17.6207 9.85999 17.7282 10.97C17.6015 11.1543 17.4632 11.1543 17.3211 10.9892C16.937 10.3478 16.5492 9.70653 16.1651 9.06128Z" fill="#FBD5CA"/>
<path d="M31.2019 22.1317C31.1289 21.8436 31.0521 21.5594 30.9791 21.2714C29.4083 21.9704 30.2993 20.5608 30.0189 20.1537C30.5451 19.6275 31.0598 19.6851 31.5668 20.1844C31.4823 20.8412 31.7857 21.5671 31.2019 22.1317Z" fill="#F9C9C1"/>
<path d="M28.8974 12.487C28.763 12.6176 28.6324 12.7444 28.4979 12.875C27.9986 12.2566 27.4992 11.6381 26.9999 11.0197C28.106 10.9852 28.6631 11.5499 28.8974 12.487Z" fill="#FAD0C7"/>
<path d="M21.911 11.7148C22.057 11.857 22.2029 11.9952 22.3489 12.1373C22.2221 12.6405 22.0991 13.1439 21.9724 13.6432C21.8303 13.6471 21.6843 13.6547 21.5422 13.6586C21.0698 13.8813 20.7088 13.6586 20.3669 13.3628C20.2786 13.1977 20.3016 13.0402 20.4207 12.8943C20.9623 12.8827 21.5384 12.9211 21.5422 12.1261C21.6651 11.9917 21.7881 11.8531 21.911 11.7148Z" fill="#F9C6BC"/>
<path d="M32.6997 23.2451C32.3848 23.2144 32.0622 23.1683 32.0161 22.7727C31.9547 22.2696 32.3004 22.1582 32.6998 22.1198C32.6998 22.4962 32.6997 22.8687 32.6997 23.2451Z" fill="#F8CDC4"/>
<path d="M22.3409 8.65813C22.4869 8.78488 22.6331 8.91176 22.7791 9.04235C22.7023 9.292 22.7291 9.75289 22.2951 9.4994C21.9226 9.28431 21.9261 8.91931 22.3409 8.65813Z" fill="#FAD6CB"/>
<path d="M37.3162 9.43407C37.0627 9.43023 36.8092 9.43023 36.5557 9.42639C36.6363 9.13449 36.3329 8.6083 36.8591 8.59678C37.2816 8.59294 37.2701 9.0884 37.3162 9.43407Z" fill="#DA916C"/>
<path d="M27.7374 37.1068C27.7105 37.3488 27.6835 37.5907 27.6528 37.8326C27.6451 38.2628 27.3993 38.5931 27.1919 38.9426C27.0959 39.0809 26.9806 39.2038 26.85 39.3113C26.0512 39.8145 25.5096 40.6402 24.6723 41.0973C24.3996 41.1741 24.1461 41.1587 23.9349 40.9475C22.7635 41.1703 21.8609 40.2907 20.7739 40.1793C20.4091 40.4597 20.0403 40.502 19.6716 40.187C18.7498 40.0603 19.0917 38.9925 18.504 38.62C18.5885 38.1668 19.0072 37.7673 18.7345 37.2488C18.7383 36.5844 18.4426 35.7893 19.6063 35.7624C20.5243 35.7432 21.5306 34.0879 22.3371 35.9353C22.4255 36.6266 22.6367 37.1912 23.5124 36.8801C23.9579 36.7226 24.3497 36.642 24.657 37.1067C25.018 37.4063 24.0463 38.1514 25.0372 38.2436C25.2907 37.2143 26.5543 37.268 27.0421 36.377C27.2303 36.0275 27.2573 37.0722 27.7374 37.1068Z" fill="#F3A397"/>
<path d="M22.3372 35.9271C21.7265 35.6506 21.0237 34.5675 20.6319 36.1499C20.5897 36.3189 20.148 36.5762 20.0827 36.5301C18.604 35.4547 19.399 37.3175 18.8767 37.4481C18.773 37.571 18.6539 37.5902 18.5156 37.5057C18.3582 37.4289 18.1776 37.2561 18.0509 37.2906C16.2112 37.7515 15.6082 36.7183 15.4276 35.1551C16.8833 35.2934 17.1406 33.7571 18.12 33.2309C18.5272 32.6356 19.0687 32.2515 19.7985 32.1478C20.5973 32.1478 21.377 32.3744 22.1759 32.3475C22.898 32.5895 23.8466 32.2899 24.2768 33.2232C23.6124 33.2232 22.9479 33.2232 22.2873 33.2232C24.5649 34.1988 22.5485 35.0783 22.3372 35.9271Z" fill="#F4A99F"/>
<path d="M12.3587 43.9512C12.6006 43.4865 13.2191 43.1134 12.7428 42.4643C13.3459 41.6193 14.0295 40.8703 15.0512 40.5208C15.5581 40.3941 16.0613 40.2673 16.5683 40.1444C16.6259 40.2481 16.7642 40.4133 16.7373 40.4479C16.3109 40.9779 15.7655 41.5041 16.5529 42.1416C17.3326 42.7715 17.4939 41.5809 18.0239 41.5233C18.8996 42.3951 17.1367 42.7293 17.7243 43.4936C15.9729 44.1158 14.1638 44.0165 12.3587 43.9512Z" fill="#F3A195"/>
<path d="M23.9389 40.9435C24.1578 40.932 24.3767 40.9205 24.5956 40.909C25.0066 40.7361 25.3292 40.3175 25.8554 40.4519C26.4469 40.9743 26.3739 41.3699 25.6365 41.6502C25.237 41.7808 24.6187 41.6272 24.7109 42.3838C23.4203 43.0829 22.2681 44.0469 20.8009 44.3926C20.3247 44.5116 19.8523 44.7075 19.376 44.7267C18.8997 44.7421 17.6707 45.057 18.8421 43.9125C18.5771 43.7934 18.3121 43.6705 18.0509 43.5514C18.8921 42.9868 20.0904 43.3901 20.8201 42.5259C21.4039 41.7962 22.2105 41.6387 23.0824 41.6464C23.478 41.5504 23.7391 41.2815 23.9389 40.9435Z" fill="#D98462"/>
<path d="M23.0824 41.6464C22.3872 42.0958 21.6843 42.5144 20.8201 42.5259C20.9699 40.6824 21.9916 41.0741 23.0824 41.6464Z" fill="#F8C2B7"/>
<path d="M19.6754 40.1829C20.0441 40.179 20.4128 40.179 20.7777 40.1752C20.6625 41.0163 20.0518 41.4196 19.3873 41.0893C18.6345 40.7129 19.6139 40.5132 19.6754 40.1829Z" fill="#F9CEC4"/>
<path d="M18.5193 37.5098C18.6384 37.4906 18.7613 37.4713 18.8804 37.4521C19.5717 37.817 19.5448 37.8977 18.504 38.6159C17.8818 38.2395 18.3503 37.8746 18.5193 37.5098Z" fill="#D88A7C"/>
<path d="M19.6449 32.467C19.111 32.6706 18.7922 33.3 18.12 33.2309C17.7321 32.9774 17.3481 32.7282 16.9602 32.4785C17.014 31.8678 17.2444 31.3378 17.7168 30.9307C18.5311 30.393 19.2954 30.5159 19.9099 31.2149C20.3055 31.6643 20.2287 32.1559 19.6449 32.467Z" fill="#F8C5BE"/>
<path d="M12.3473 30.5392C12.6699 30.4969 13.0502 30.024 13.296 30.4388C13.5803 30.9227 13.0694 31.1416 12.7276 31.3644C12.4165 31.1762 12.332 30.881 12.3473 30.5392Z" fill="#F8C8C2"/>
<path d="M15.0512 40.5208C14.6517 41.6078 13.703 42.0418 12.7428 42.4643C12.4317 42.2953 12.3587 42.0037 12.3471 41.6811C12.4086 40.6863 13.5455 41.1588 13.8911 40.5481C13.9449 40.1563 14.0332 39.7876 14.5479 39.8414C14.9435 39.8836 14.9935 40.2097 15.0512 40.5208Z" fill="#F7BBB5"/>
<path d="M13.8875 40.5477C13.899 41.6385 12.6698 41.0435 12.3471 41.6811C12.0015 42.0383 11.6791 42.4028 11.2681 41.7268C10.8648 41.0624 11.3833 41.0278 11.7828 40.951C12.1438 40.878 12.524 40.9049 12.7468 40.5285C13.1232 40.5362 13.5073 40.5439 13.8875 40.5477Z" fill="#F3A092"/>
<path d="M20.4244 13.2437C20.7969 13.382 21.1697 13.5203 21.5422 13.6586C22.2528 14.8531 23.7275 15.529 23.8888 17.0999C23.3395 17.8527 22.7634 18.5824 22.3371 19.4159C21.0197 19.4965 20.505 19.9651 21.5459 21.125C21.9184 21.536 21.9645 22.0084 21.9645 22.5115C21.7994 23.4717 21.1311 23.2259 20.5204 23.1107C19.9174 22.6767 19.3221 22.2504 18.6346 21.9277C17.0791 21.2018 16.8947 20.4605 17.7243 18.8244C18.4272 18.2175 17.8664 17.6683 17.6283 17.1268C17.225 16.2242 17.0483 15.3331 17.4209 14.3575C18.093 12.5831 18.5808 12.3872 20.4244 13.2437Z" fill="#F4A79D"/>
<path d="M19.3068 27.8275C17.7667 27.5932 16.2265 27.3666 14.6595 27.4665C15.3739 26.656 16.0575 25.8149 17.3058 26.6791C17.5478 26.8442 17.9165 26.6253 18.1124 26.3296C18.3543 25.7074 20.3707 26.3757 19.2531 24.7664C19.8215 22.8153 21.2964 23.1609 22.729 23.3952C23.2667 23.8907 23.8659 24.3401 23.9849 25.1389C23.7122 25.6037 23.4126 26.0338 22.7789 25.9878C22.6522 25.8533 22.4793 25.7573 22.4294 25.5576C22.4332 25.7688 22.633 25.838 22.7367 25.9839C21.7649 26.8366 23.5624 27.1323 23.1131 27.8697C22.4486 27.8505 22.5177 28.2039 22.7251 28.6302C21.9493 28.369 21.1696 28.1079 20.3938 27.8505C20.0443 27.0977 19.6756 27.4972 19.3068 27.8275Z" fill="#F4A89D"/>
<path d="M22.7138 25.9418C23.1247 25.7229 23.2784 25.1161 23.8737 25.1775C24.2578 25.1122 24.6419 25.093 25.0259 25.1775C25.7058 25.3811 26.5392 25.1583 27.0308 25.8765C27.3419 26.3336 27.7644 26.8137 27.6031 27.3821C27.3919 28.1234 26.6775 27.7701 26.1705 27.8661C25.1488 27.386 24.1272 26.6101 23.1017 27.8622C22.6754 27.3399 22.1876 26.9097 21.454 26.879C21.5807 26.1454 22.5064 26.518 22.7138 25.9418Z" fill="#F29B92"/>
<path d="M22.3409 19.4195C22.1719 18.1866 22.6943 17.4184 23.8926 17.1035L23.8888 17.1073C24.2076 17.7871 24.7568 18.3325 25.018 19.0431C25.1409 19.527 25.2599 20.011 25.4942 20.9366C24.5494 19.5539 23.0016 20.7138 22.3409 19.4195Z" fill="#EA9489"/>
<path d="M22.7022 23.683C21.3118 23.2836 20.1672 23.6638 19.2493 24.7623C18.6617 24.8314 18.1432 24.793 18.0971 24.021C18.3851 22.6575 19.2608 22.4809 20.4169 22.8765C20.9546 22.8534 21.5384 23.0301 21.9609 22.5154C22.5332 22.4732 23.0594 22.5001 23.1362 23.249C23.213 23.6101 23.0747 23.7637 22.7022 23.683Z" fill="#FAD5CE"/>
<path d="M28.0984 27.1016C27.9793 25.7074 27.069 24.7165 26.1665 23.6103C28.8128 23.8446 29.2967 24.6396 28.4863 27.14C28.3403 27.2898 28.2136 27.2744 28.0984 27.1016Z" fill="#EE9E92"/>
<path d="M22.7022 23.683C22.8481 23.5371 22.9942 23.3909 23.1363 23.245C23.4858 24.1629 25.5406 23.4108 25.0259 25.1775C24.6419 25.4349 24.2578 25.408 23.8737 25.1775C23.4858 24.6782 23.0939 24.1823 22.7022 23.683Z" fill="#F8C0B9"/>
<path d="M25.0182 19.0392C23.9466 18.7973 23.9159 17.9523 23.889 17.1035C24.2692 17.2341 24.6495 17.3685 25.0297 17.4991C25.2218 18.0138 25.7364 18.5323 25.0182 19.0392Z" fill="#F4A79D"/>
<path d="M28.0984 27.1016C28.229 27.1131 28.3557 27.1285 28.4863 27.14C28.7398 27.382 28.9972 27.6239 29.2507 27.8658C28.8013 28.2999 29.6386 29.0526 28.8705 29.4098C27.6645 28.9605 28.6822 27.7622 28.0984 27.1016Z" fill="#F8C0B5"/>
<path d="M26.1778 27.8697C26.0203 28.8452 25.5441 28.7108 24.8297 28.1962C25.256 27.7122 25.7553 27.9311 26.1778 27.8697Z" fill="#FACEC7"/>
<path d="M25.3751 41.3165C26.028 41.3395 26.0587 41.0169 25.8014 40.5406C25.9589 39.8647 26.6425 39.5382 26.8884 38.9198C26.9037 38.8238 26.9344 38.7355 26.9805 38.6471C27.4261 38.8084 28.0905 38.6395 28.1212 39.4153C26.6963 42.5878 23.6198 43.4865 20.7969 44.7309C20.7969 44.6196 20.7969 44.5043 20.7969 44.3929C22.0835 43.6555 23.3702 42.9219 24.6569 42.1845C24.6146 41.6583 25.1254 41.5969 25.3751 41.3165Z" fill="#CA7450"/>
<path d="M21.9454 45.9096C21.1888 46.1939 20.3131 46.1209 19.6448 46.674C19.4028 46.6432 19.0187 46.5971 19.18 46.3014C19.6793 45.3873 20.8738 45.249 21.9454 45.9096Z" fill="#EB9386"/>
<path d="M28.1252 39.415C27.745 39.1576 27.3647 38.9041 26.9845 38.6468C27.2073 38.3741 27.4339 38.1014 27.6566 37.8287C27.9332 38.0937 28.2097 38.3549 28.4863 38.6199C28.3672 38.8849 28.2443 39.15 28.1252 39.415Z" fill="#D4805D"/>
<path d="M14.6517 47.0616C14.3214 47.123 13.8682 47.6339 13.6992 47.1576C13.4534 46.4816 14.0871 46.3971 14.6018 46.3587C14.6171 46.593 14.6325 46.8273 14.6517 47.0616Z" fill="#F7CDC8"/>
<path d="M14.2445 45.5022C14.571 45.5329 14.8859 45.5905 15.0511 45.9285C13.9027 45.9093 12.7581 45.8863 11.6097 45.8671C11.7326 45.7519 11.8517 45.6405 11.9746 45.5252C12.7313 45.0221 13.484 45.0221 14.2445 45.5022Z" fill="#C15B38"/>
<path d="M11.9711 45.1456C10.9226 44.9996 9.77032 45.4913 8.66802 44.6808C9.93932 43.9549 10.9533 44.8383 12.021 44.8191C12.1055 44.9459 12.0863 45.0534 11.9711 45.1456Z" fill="#D98661"/>
<path d="M11.9711 45.1456C11.9788 45.0342 11.9941 44.9267 12.021 44.8191C12.77 44.8306 13.5188 44.8378 14.2716 44.8532C14.3061 44.8532 14.3599 44.9415 14.3599 44.9876C14.3599 45.0452 14.3138 45.1029 14.2908 45.1605C13.5188 45.4178 12.7468 45.4485 11.9786 45.1374L11.9711 45.1456Z" fill="#ECA388"/>
<path d="M11.9784 45.1412C12.7466 45.1489 13.5186 45.1566 14.2867 45.1643C14.2752 45.2795 14.2637 45.3908 14.2445 45.5022C13.4879 45.5099 12.7313 45.5176 11.9746 45.5252C11.9708 45.3985 11.9707 45.268 11.9784 45.1412Z" fill="#DC8668"/>
<path d="M9.61635 43.6516C10.4037 43.6939 11.2487 43.329 11.9592 43.9589C11.168 43.9397 10.3384 44.2047 9.61635 43.6516Z" fill="#F3A195"/>
<path d="M13.127 15.1911C13.1539 14.3961 13.7224 14.4268 14.2793 14.4345C14.4176 15.0337 13.9298 15.556 14.0642 16.1552C13.5457 17.1615 13.1616 18.1024 14.4982 18.8552C15.0359 19.1587 14.89 19.7425 14.5942 20.1957C14.2524 20.7219 14.0104 21.3133 13.5649 21.7704C12.0055 21.1098 11.6023 19.7425 11.2335 18.2714C10.861 18.4059 10.3194 18.6517 9.71259 18.5441C8.23389 17.3996 8.16475 16.9233 9.30163 15.7826C9.61657 15.7826 9.89311 15.894 10.1773 16.0361C12.1169 16.9963 12.1169 16.9925 13.127 15.1911Z" fill="#F9C9C0"/>
<path d="M20.4244 13.2437C19.6793 13.2668 18.8497 12.4374 18.2121 13.4975C17.5054 14.6728 17.4017 15.8404 18.0815 17.0771C18.4195 17.6878 19.4719 18.3637 18.1161 19.032C16.9101 18.0066 16.6873 16.2475 15.3354 15.3334C15.4468 14.8648 15.9461 15.0376 16.2034 14.8072C17.3403 14.016 17.1982 14.112 16.503 13.0827C15.9653 12.2876 17.2366 11.7806 17.3172 10.9894C17.4517 10.9818 17.5899 10.9779 17.7243 10.9702C17.6744 12.9329 19.5679 12.1839 20.4129 12.8945C20.4206 13.0135 20.4205 13.1285 20.4244 13.2437Z" fill="#F8C1B7"/>
<path d="M13.127 15.1911C13.1885 16.1974 12.7353 16.8773 11.7598 17.0962C10.7765 17.3189 10.0967 16.8312 9.64732 15.9785C9.52058 15.8863 9.47833 15.798 9.52442 15.7135C9.57051 15.629 9.61276 15.5868 9.65885 15.5868C9.79327 14.7495 9.75102 13.3284 10.6459 13.482C11.5716 13.6395 11.7866 15.0606 11.7444 16.1091C12.6585 16.3472 11.994 14.5305 13.127 15.1911Z" fill="#EF9388"/>
<path d="M8.44897 14.1583C8.64101 12.3262 8.82921 10.4904 10.7611 9.45718C9.98913 11.0242 9.21713 12.5913 8.44897 14.1583Z" fill="#FACEC3"/>
<path d="M10.0198 12.8749C10.7611 11.93 11.4447 11.2425 12.0016 11.6036C12.4894 11.9185 12.5432 12.9018 12.9157 13.9541C11.8173 13.4279 11.2143 12.6982 10.0198 12.8749Z" fill="#FAD6CD"/>
<path d="M9.65888 15.5832C9.65504 15.7138 9.65116 15.8479 9.64732 15.9785C8.59879 16.9387 8.66411 17.3077 10.0506 18.2794C9.93157 19.2511 9.26712 19.0053 8.66795 18.9055C7.46195 17.8416 7.90748 16.7085 8.54121 15.5717C8.90992 15.5755 9.28248 15.5794 9.65888 15.5832Z" fill="#F6B2A7"/>
<path d="M8.5373 15.5717C8.47585 16.5972 7.84212 17.6188 8.50273 18.6558C8.60643 18.7365 8.63716 18.8171 8.60259 18.8978C8.56803 18.9784 8.53346 19.0169 8.49889 19.0169C6.96642 18.3255 8.09561 16.9351 7.68849 15.9481C7.76914 15.6216 7.63856 15.1569 8.038 15.0186C8.46432 14.8765 8.44512 15.3182 8.5373 15.5717Z" fill="#FACEC3"/>
<path d="M14.264 7.14067C14.3369 7.73983 13.7454 7.88962 13.492 8.26602C13.0426 8.35435 12.5932 8.44653 11.9364 8.57712C12.4818 7.35191 13.3038 7.1253 14.264 7.14067Z" fill="#FBD8CD"/>
<path d="M16.2034 14.8072C16.0421 15.1413 15.7274 15.1915 15.4086 15.2337C14.9784 15.6562 14.4676 15.8982 13.8646 15.9481C13.0158 15.1761 13.976 14.8957 14.2755 14.4387C14.963 14.3388 15.6119 14.4269 16.2034 14.8072Z" fill="#FCE2DC"/>
<path d="M13.8682 15.9438C14.187 15.2832 14.7362 15.118 15.4122 15.2294C17.3748 15.7402 17.4516 17.5953 18.1199 19.0279C17.202 20.2109 17.4632 21.0367 18.8727 21.5283C19.5602 21.7664 20.4206 21.8317 20.4206 22.8726C19.5871 23.1337 18.5962 23.0723 18.1007 24.0171C17.8511 24.0171 17.6014 24.0209 17.3518 24.0209C16.4799 22.5691 14.5903 22.8149 13.5072 21.7165C13.5801 21.3516 13.534 20.8869 13.7453 20.6449C14.4558 19.8383 14.8591 19.4158 13.4764 18.6746C11.7826 17.772 13.4918 16.8425 13.8682 15.9438Z" fill="#F39E94"/>
<path d="M13.5036 21.7205C15.0744 22.0047 16.6453 22.2889 17.3482 24.0249C16.9679 24.0749 16.5723 25.35 16.242 24.1056C15.977 23.0993 15.3087 23.299 14.6596 23.2606C13.8953 23.7369 13.3461 23.1377 12.7316 22.8689C12.3168 22.3312 11.7637 22.1391 11.1376 22.3619C10.0929 22.7344 11.2797 23.2414 11.0877 23.6447C10.9264 23.9865 10.6806 23.6639 10.4732 23.6332C9.84713 23.3221 9.50914 22.8535 9.65893 22.1238C9.63205 22.0661 9.62053 21.997 9.57828 21.9509C8.84469 21.1098 7.45816 20.5106 8.50286 19.0166C8.50286 18.8937 8.5067 18.7746 8.5067 18.6517C9.03673 18.5941 9.63967 18.8287 10.0506 18.2794C10.9801 17.7993 11.5524 17.4265 11.8213 19.0857C11.9404 19.827 12.7469 20.9523 13.5036 21.7205Z" fill="#F4A89E"/>
<path d="M12.7277 22.8686C13.515 22.2848 13.9567 23.3987 14.6557 23.2604C14.8132 23.7674 15.8694 23.4909 15.6313 24.1745C15.3202 25.0694 14.6941 24.2744 14.2064 24.2475C13.3345 24.1937 12.0133 24.6277 12.7277 22.8686Z" fill="#F8C4BB"/>
<path d="M9.65493 22.1273C9.92763 22.6304 10.1965 23.1335 10.4692 23.6367C9.55507 23.9747 9.4821 23.1643 9.21708 22.6803C8.98279 22.254 9.28238 22.1311 9.65493 22.1273Z" fill="#FAD0C6"/>
<path d="M18.1085 26.3258C17.7667 26.2797 17.3327 26.4602 17.1637 25.9993C17.1368 25.9263 17.3365 25.6728 17.4595 25.6498C17.9703 25.5576 18.0625 25.934 18.1085 26.3258Z" fill="#FACFC4"/>
<path d="M19.6449 32.467C20.1942 30.4621 18.5042 31.2651 17.7207 30.931C16.5723 30.0399 15.0936 30.1743 13.4075 29.6405C14.6557 29.2679 15.5007 28.8762 16.1997 28.2463C19.2224 28.5036 22.2567 28.7264 25.0182 30.182C24.8261 31.2613 22.7905 30.4931 23.1131 32.087C22.8789 32.571 22.2759 32.498 21.9571 32.859C21.1428 32.9935 20.4169 32.6053 19.6449 32.467Z" fill="#F6B6AD"/>
<path d="M21.9571 32.859C22.1683 32.3405 22.5678 32.1063 23.1131 32.087C23.3858 32.5825 24.7262 31.9949 24.2768 33.2278C23.5893 32.5825 22.7291 33.0012 21.9571 32.859Z" fill="#F9CEC8"/>
<path d="M27.3227 34.7788C26.7927 35.0784 26.3894 35.0055 26.1705 34.3909C26.8004 33.7879 27.1845 33.9185 27.3227 34.7788Z" fill="#F9D2CA"/>
<path d="M25.0335 38.2394C24.7569 38.5544 24.3114 39.0268 24.031 38.6389C23.5701 38.0013 24.4881 37.648 24.6532 37.1026C25.1026 37.3753 24.9989 37.8285 25.0335 38.2394Z" fill="#FACFC9"/>
<path d="M19.3068 27.8275C19.3645 27.1093 19.9174 26.8245 20.432 26.4827C20.9966 26.9935 20.2976 27.4006 20.3898 27.8461C20.0326 27.8385 19.6717 27.8313 19.3068 27.8275Z" fill="#F9CABF"/>
<path d="M16.5838 7.90136C16.0576 8.02043 15.5352 8.1392 14.7555 8.31203C16.1958 7.09451 16.265 7.08712 16.5838 7.90136Z" fill="#FACEC4"/>
<path d="M26.8924 38.9194C27.1344 39.8643 26.5314 40.2407 25.8055 40.5403C25.4022 40.6632 24.9989 40.7861 24.5956 40.909C25.2255 40.087 25.8823 39.2997 26.8924 38.9194Z" fill="#D67C5C"/>
<path d="M21.0734 38.7659C20.9928 38.8542 20.8967 39.0347 20.7585 39.0885C20.528 39.173 20.432 38.9733 20.4742 38.7889C20.5088 38.643 20.6279 38.4471 20.7546 38.4048C20.9467 38.3357 21.0811 38.4778 21.0734 38.7659Z" fill="#E38C80"/>
<path d="M20.3745 34.9863C19.7446 34.7673 19.4643 34.4754 19.3183 33.8071C19.9098 33.9992 20.2247 34.2565 20.3745 34.9863Z" fill="#F9C8C1"/>
<path d="M25.3751 41.3165C25.137 41.6045 24.8988 41.8964 24.6569 42.1845C24.4917 42.0501 24.1615 41.8535 24.1846 41.792C24.3997 41.2313 24.8988 41.2819 25.3751 41.3165Z" fill="#F4CCBE"/>
<path d="M22.7174 25.9377C22.1451 25.9339 21.5076 26.003 21.3424 25.2502C21.2771 24.9545 21.5728 24.8201 21.8379 24.8047C22.6713 24.7548 22.7481 25.3078 22.7174 25.9377Z" fill="#FAD3CC"/>
<path d="M15.8117 21.0365C16.2227 20.1839 16.4608 19.6999 16.6951 19.2122C16.7681 19.3043 16.891 19.385 16.9102 19.4887C17.0216 20.084 16.8948 20.5756 15.8117 21.0365Z" fill="#F4A79D"/>
<path d="M10.3999 19.6004C10.3346 19.85 10.2155 19.9998 10.0311 19.8654C9.91208 19.777 9.8199 19.5735 9.82374 19.4275C9.82759 19.3469 10.0619 19.2739 10.1925 19.2009C10.2654 19.3469 10.3423 19.4967 10.3999 19.6004Z" fill="#F6B2A7"/>
</svg>
