<svg width="24" height="48" viewBox="0 0 24 48" fill="none" xmlns="http://www.w3.org/2000/svg">
<path d="M2.29101 4.42787C2.16804 3.48294 2.91881 3.10108 3.47865 2.59626C3.63075 2.53801 3.78284 2.53477 3.93817 2.58008C4.13557 2.89721 3.98024 3.17875 3.8508 3.46029C2.43987 6.09121 2.65345 6.95201 5.1161 8.51503C5.7439 8.87423 6.43318 9.01015 7.14188 9.07811C9.25503 9.59264 11.3747 9.94537 13.5364 9.37259C14.8664 9.49556 16.1155 8.94543 17.4261 8.89689C17.7918 8.99073 18.0992 9.16224 18.2513 9.53116C17.0443 10.8094 15.3194 10.6088 13.8276 11.078C11.174 11.3628 8.56575 11.023 5.97042 10.5246C5.29732 10.3499 4.7213 9.93243 3.90905 9.68972C4.27796 10.4308 4.90252 10.5635 5.46883 10.777C5.67917 10.8418 5.89276 10.913 6.10958 10.955C6.4882 11.0133 6.87329 11.0456 7.23573 11.1848C7.53345 11.3304 7.82469 11.4825 7.90236 11.8482C7.65318 12.4307 7.11923 12.3886 6.62411 12.4339C6.3005 12.4371 5.98013 12.3951 5.66947 12.3174C4.9899 12.1815 4.41387 11.7252 3.4204 11.6055C4.82162 13.2106 6.53674 13.3465 8.20331 13.5892C8.43955 13.6086 8.67254 13.6474 8.9023 13.7057C9.53657 13.9096 10.187 13.861 10.8375 13.8481C11.352 13.8351 11.8633 13.8578 12.3778 13.8481C13.9765 13.929 15.4845 13.1491 17.096 13.353C17.3679 13.4533 17.5879 13.6054 17.6073 13.9322C17.4293 14.2849 17.1154 14.4856 16.7821 14.6636C13.148 15.7638 9.50421 15.6311 5.8604 14.7056C5.24231 14.4597 4.60804 14.2493 4.00937 13.9516C3.5725 13.7348 3.20358 13.4436 3.01265 12.9743C2.22953 12.1653 2.0839 11.2786 2.44634 10.1881C2.75701 9.25285 2.73435 8.2432 2.29101 7.3015C2.08714 6.34363 2.10332 5.38575 2.29101 4.42787Z" fill="#7E7E7B"/>
<path d="M3.00609 12.9779C3.33617 13.1753 3.66626 13.3759 3.99634 13.5733C4.00604 13.9519 3.93485 14.3144 3.76334 14.6509C2.78281 16.2107 2.41713 17.9323 2.47862 19.7445C2.58864 22.9256 2.16796 26.0775 2.00939 29.2456C1.74727 32.8279 1.48838 36.407 1.5175 40.0023C1.44307 40.5718 1.52074 41.1673 1.19713 41.6883C1.07416 41.8501 0.909123 41.9083 0.708487 41.863C0.0418567 40.7822 0.556393 39.5848 0.365464 38.4555C0.355756 38.3681 0.346047 38.2775 0.339575 38.1901C0.582281 32.349 0.7635 26.5046 1.08711 20.6668C1.23273 18.0067 1.40748 15.2981 3.00609 12.9779Z" fill="#B6B9BA"/>
<path d="M13.6464 47.3099C12.2452 47.8341 10.8375 47.6432 9.4136 47.3843C8.79227 47.271 8.14182 47.3066 7.50755 47.2775C5.67594 46.7112 3.80225 46.242 2.25865 45.0025C1.71822 44.5689 1.09043 44.2129 0.954511 43.4428C1.08395 43.1062 1.33637 42.9703 1.68263 42.9832C2.06448 43.0997 2.38162 43.3392 2.71493 43.5463C4.63392 45.1385 6.91535 45.7857 9.3327 46.0737C10.7016 46.3552 12.0866 46.1481 13.4619 46.2128C14.0477 46.2096 14.6334 46.2549 15.2029 46.0543C15.8631 45.9442 16.5006 45.7112 17.1769 45.6983C17.8015 45.8407 18.206 46.064 17.5426 46.6853L17.5523 46.6756C16.2579 46.928 14.9376 47.038 13.6464 47.3099Z" fill="#ADAFAE"/>
<path d="M6.44649 12.0826C6.90601 11.9758 7.43996 12.1829 7.81858 11.7558C8.33636 11.1733 8.95444 11.4742 9.56606 11.5195C10.4463 11.5875 11.3362 11.6587 12.2067 11.4289C13.1743 11.2348 14.2001 11.3545 15.1159 10.882C16.7954 11.1927 18.2258 10.5875 19.5655 9.66526C19.6464 9.5164 19.9441 10.1021 19.9247 9.54876C19.915 9.26723 20.0703 9.05688 20.4134 9.12808C20.6367 10.3448 21.2321 11.5907 20.1415 12.7104C19.7662 12.9822 19.8568 13.5485 19.4587 13.8074C19.2646 13.9304 19.051 14.0016 18.8277 14.0501C18.3876 14.1019 17.9378 14.3479 17.5236 13.9692C17.4071 13.8592 17.2906 13.7492 17.1741 13.6392C17.4653 12.4224 19.1125 12.6295 19.5235 11.2768C18.2711 11.9693 17.0446 12.3286 15.8117 12.6748C15.3263 12.814 14.857 12.9984 14.3554 13.0761C13.1743 13.1732 11.9899 13.0955 10.8087 13.1408C9.59518 13.2476 8.44314 12.8075 7.2458 12.7492C6.88012 12.6554 6.52416 12.5357 6.44649 12.0826Z" fill="#858481"/>
<path d="M20.4195 9.12486C19.9988 9.10868 20.4195 10.018 19.7529 9.73324C19.3031 9.2543 18.6915 9.6847 18.1996 9.45494C17.931 9.44199 17.6786 9.39022 17.533 9.12486C18.1866 8.07637 19.7626 7.69775 19.7076 6.13473C19.7464 5.33542 19.7108 4.55229 19.2513 3.85654C18.9277 3.27728 18.5523 2.7498 17.9213 2.46502C16.4554 1.43272 14.6593 1.47802 13.0316 0.976433C12.6336 0.75638 12.0155 0.775796 12.0381 0.0865132C14.2386 -0.0558739 16.3356 0.345399 18.2708 1.39389C20.6169 2.66566 21.4292 4.69791 20.5781 7.25765C20.3678 7.90486 20.3904 8.49706 20.4195 9.12486Z" fill="#797773"/>
<path d="M17.546 46.6846C17.6722 46.3351 17.7952 45.9856 17.1997 46.0018C17.1124 45.3999 17.6269 45.306 17.9861 45.1733C20.1899 44.3611 21.8111 42.9502 22.6849 40.7367C22.9276 40.6331 23.1541 40.6428 23.358 40.8273C23.4162 43.2673 21.5587 45.5131 18.7757 46.361C18.368 46.4839 17.9537 46.5778 17.546 46.6846Z" fill="#B0B3B2"/>
<path d="M21.7366 18.5047C21.9567 21.2003 22.18 23.8927 22.4 26.5884C22.6913 27.3812 22.4809 28.1999 22.5294 29.009C22.3676 29.4329 22.4485 29.9636 21.9631 30.2387C21.7528 30.2354 21.5975 30.1384 21.5036 29.9507C21.0538 27.3359 20.8596 24.7018 20.9502 22.0482C20.9697 21.2586 20.9244 20.4657 20.9923 19.6794C21.0376 19.181 20.9956 18.5791 21.7366 18.5047Z" fill="#B1B4B3"/>
<path d="M12.0378 0.0812819C12.3615 0.27221 12.6883 0.459902 13.0119 0.65083C12.0378 1.5634 10.7693 0.929133 9.68846 1.28834C9.52342 1.34011 9.35514 1.37247 9.18687 1.39513C7.8892 1.48897 6.68539 1.92261 5.49128 2.40802C5.02528 2.59571 4.57547 3.04876 3.99945 2.67014C3.8247 2.64425 3.64995 2.61836 3.4752 2.59571C4.58194 1.21067 6.23233 0.861175 7.79536 0.353112C8.3196 0.0618656 8.93122 0.385473 9.4587 0.113643C10.3163 -0.0319804 11.177 -0.0319805 12.0378 0.0812819Z" fill="#82817D"/>
<path d="M23.3548 40.8283C23.1477 40.8283 22.9374 40.8251 22.7302 40.8251C22.3613 40.5371 22.2675 40.1131 22.2125 39.6892C21.8986 37.1521 21.74 34.6053 21.6915 32.0488C21.8759 31.3499 21.9957 30.6314 22.2481 29.9486C22.3581 29.7577 22.4972 29.7286 22.672 29.8645C22.8014 32.5278 22.9276 35.1911 23.0571 37.8544C23.4163 38.7087 22.9406 39.6504 23.3386 40.4982C23.3451 40.6115 23.3483 40.7215 23.3548 40.8283Z" fill="#A8ABAB"/>
<path d="M21.7366 18.5047C21.0311 19.6438 21.6039 20.8995 21.4 22.0839C20.7204 22.0257 20.6881 21.4691 20.6881 21.016C20.6848 18.754 20.7463 16.4952 19.3548 14.5147C19.1704 14.2494 19.248 13.8902 19.4648 13.6086C19.4519 13.1297 19.7334 12.8708 20.1444 12.7058C20.0732 13.2171 20.3095 13.6119 20.5878 14.0131C21.5165 15.3658 21.9631 16.851 21.7366 18.5047Z" fill="#BABBBC"/>
<path d="M1.64356 43.1037C1.4138 43.217 1.18404 43.3302 0.957519 43.4435C-0.479296 41.8384 0.048182 40.0003 0.339428 38.1913L0.410622 38.2917C0.795715 39.4372 0.264997 40.6572 0.701867 41.7996C0.798949 41.7996 0.892794 41.8028 0.989877 41.8028C1.59826 42.039 1.89598 42.4338 1.64356 43.1037Z" fill="#B6B7B8"/>
<path d="M13.6464 47.3099C14.902 46.805 16.2026 46.5905 17.5553 46.6746C17.1346 47.2151 16.3256 46.7232 15.9114 47.2895C15.1541 47.2927 14.4004 47.3002 13.6464 47.3099Z" fill="#B0B3B2"/>
<path d="M22.675 29.8673C22.5844 29.8414 22.4938 29.8188 22.4032 29.7994C22.1929 29.6181 22.2058 29.4175 22.3579 29.2104C22.3708 28.3367 22.3871 27.4621 22.4 26.5884C23.0019 27.6369 22.6168 28.7703 22.675 29.8673Z" fill="#DFDFDD"/>
<path d="M2.29101 4.42787C2.29101 5.38575 2.29073 6.34329 2.28749 7.30117C1.88622 6.34329 1.87032 5.38575 2.29101 4.42787Z" fill="#807F7D"/>
<path d="M23.3421 40.5C22.7305 39.6748 23.135 38.7396 23.0606 37.8561C23.4942 38.7007 23.3163 39.6133 23.3421 40.5Z" fill="#B0B3B2"/>
<path d="M9.4587 0.113643C8.95387 0.54404 8.3649 0.372528 7.79536 0.353112C8.30665 -0.0222722 8.88915 0.0877542 9.4587 0.113643Z" fill="#AEAEAC"/>
<path d="M20.083 6.19121C20.0701 7.89661 18.8177 8.52441 17.533 9.11985C16.2612 9.47258 15.0121 9.95475 13.6497 9.76383C12.8569 9.17486 11.9767 10.1522 11.1806 9.62791C10.9444 8.86096 10.4395 8.53412 9.64023 8.69592C9.33928 8.67974 8.9283 8.43057 8.76002 8.73799C8.26814 9.63115 7.54003 9.32372 6.8378 9.2234C6.50125 9.03895 5.83138 9.19428 5.91228 8.5956C5.98671 8.05194 6.69541 8.16197 7.05461 7.87073C7.15493 7.75423 7.26172 7.64744 7.36204 7.53417C7.56915 7.28823 7.78596 7.05524 8.09016 6.91932C8.99302 6.63131 9.91853 6.77693 10.8343 6.75105C11.1482 6.76075 11.4589 6.79635 11.7566 6.89667C12.4038 7.07789 12.4038 7.73805 12.708 8.17168C13.1481 8.39497 13.653 8.36908 14.1028 8.54059C15.3163 8.39497 16.5622 8.44998 17.698 7.90632C18.4585 7.60213 17.8954 6.99375 18.0055 6.5407C18.1414 6.09736 18.3517 5.71227 18.7692 5.4728C19.4002 5.34983 19.7174 5.81906 20.083 6.19121Z" fill="#9D9C99"/>
<path d="M15.8757 12.3214C17.2219 11.7453 18.7817 11.6709 19.9758 10.1176C20.2735 12.7323 18.251 12.7615 17.1831 13.6352C15.5489 13.674 14.0053 14.4054 12.3484 14.2436C12.4196 13.6417 12.7626 13.8132 13.1089 13.9167C12.7303 13.5608 12.0248 14.1853 11.6623 13.441C12.028 13.0009 12.5231 13.2178 12.9503 13.221C12.2934 12.7356 11.2255 13.9394 10.7304 12.7032C12.028 12.6967 13.3225 12.687 14.6201 12.6806C15.0829 12.7129 15.6071 12.9653 15.8757 12.3214Z" fill="#A8A8A4"/>
<path d="M5.60163 14.2801C9.36841 15.1118 13.1384 15.3189 16.9117 14.3125C17.3389 14.1021 17.7531 13.9435 17.9408 14.6005C17.2741 15.8593 15.9312 15.5907 14.873 15.9693C12.3844 16.568 9.88619 16.2088 7.40088 15.979C6.33298 15.8787 5.07092 15.8302 4.84439 14.3222C5.0871 14.0989 5.33951 14.1086 5.60163 14.2801Z" fill="#EFEFEB"/>
<path d="M4.00334 2.67382C5.6505 1.9457 7.22647 0.991061 9.11957 1.03313C9.23607 1.28878 9.09368 1.46029 8.92541 1.62209C8.50795 1.92952 8.02578 2.04278 7.52742 2.16252C7.03554 2.27902 7.71835 2.32109 7.57597 2.45053C7.62451 3.00713 8.05814 2.67705 8.31055 2.7709C8.86716 2.91005 9.30726 3.16246 9.32992 3.81939C9.30726 4.12681 9.22636 4.41806 9.13899 4.71254C8.88657 5.49891 8.30085 5.46007 7.75395 5.16883C7.01936 4.77726 6.08737 4.47954 5.67316 3.81615C5.08419 2.86475 4.82854 3.74819 4.43051 3.84851C4.14897 3.99413 3.86743 4.13976 3.54382 3.96177C3.44997 3.72554 3.43703 3.49901 3.61501 3.29514C3.74446 3.0848 3.8739 2.87769 4.00334 2.67382Z" fill="#B4B4B2"/>
<path d="M3.61462 3.28909C3.61786 3.51562 3.6211 3.74214 3.62433 3.96867C3.78937 5.04628 4.97054 5.98474 4.02561 7.29211C4.31685 6.48633 4.96083 6.43455 5.56274 6.30834C6.37499 6.26951 7.09987 6.49604 7.73738 7.00734C7.77621 7.07529 7.81504 7.14325 7.85064 7.21444C7.81828 7.47009 7.75356 7.70633 7.49144 7.82606C7.03515 8.17232 6.2682 7.11736 5.96725 8.16909C5.58539 8.33736 5.66629 9.27582 4.90582 8.80659C2.21988 7.37948 1.8898 5.97503 3.61462 3.28909Z" fill="#AAAAA8"/>
<path d="M10.7308 12.7019C11.5075 13.3426 12.4912 12.7439 13.5527 13.2229C12.8893 13.3005 12.4492 13.3523 12.0123 13.4009C12.0123 13.4656 12.0155 13.5271 12.0155 13.5918C12.4524 13.6306 12.886 13.6662 13.4815 13.718C12.9928 13.9445 12.6725 14.0901 12.3489 14.239C11.8149 14.2422 11.2777 14.2455 10.7438 14.2487C10.116 13.9348 9.39756 14.3134 8.76976 13.9963C8.56265 13.9834 8.35878 13.9736 8.15167 13.9607C8.04811 13.8604 7.96721 13.7406 7.91867 13.6015C8.29405 12.8184 7.02875 13.0352 7.18085 12.388C8.36201 12.498 9.54641 12.6016 10.7308 12.7019Z" fill="#BFBFBD"/>
<path d="M18.1966 9.45277C18.7144 9.54662 19.5558 7.83474 19.7499 9.73107C18.5008 10.8961 17.2096 11.9219 15.3456 11.1032C14.8699 11.0093 14.3133 11.2132 13.9509 10.7181C15.365 10.2974 16.7824 9.8767 18.1966 9.45277Z" fill="#9F9F9C"/>
<path d="M6.85438 9.1177C7.33008 8.89765 8.12616 9.6646 8.28796 8.31516C8.40446 7.32492 9.23289 8.49638 9.77008 8.47049C9.55003 9.6646 10.8606 8.81028 11.0645 9.43807C11.6373 9.42189 12.2133 9.49632 12.7732 9.24715C13.2618 9.03033 13.5919 9.19537 13.6501 9.76168C11.3493 10.438 9.10021 9.99468 6.85762 9.43807C6.77672 9.36688 6.74759 9.29569 6.77348 9.22449C6.79936 9.15653 6.82525 9.1177 6.85438 9.1177Z" fill="#A4A4A1"/>
<path d="M13.9504 10.7189C14.4293 10.7998 14.9827 10.5992 15.3451 11.104C14.4714 11.9163 13.384 11.6703 12.355 11.6962C12.63 10.8354 13.2352 11.405 13.7271 11.2108C11.9602 11.3435 10.2127 11.7415 8.47169 11.3791C7.62384 11.405 6.7954 10.6833 5.92813 11.3079C5.79546 11.2464 5.65954 11.1849 5.52687 11.1267C4.92819 10.3824 4.92819 10.3662 5.59482 10.0523C8.34871 10.6445 11.1382 10.7998 13.9504 10.7189Z" fill="#B5B6B3"/>
<path d="M8.14809 13.6477C8.14809 13.7545 8.14809 13.8613 8.15132 13.9681C6.7857 13.939 5.49775 13.5474 4.28746 12.9649C3.46873 12.5701 2.67589 12.0232 3.13865 10.7968C3.98326 11.2045 4.78904 11.5928 5.59483 11.9844C6.17085 12.9617 7.39732 12.939 8.14809 13.6477Z" fill="#ADADAA"/>
<path d="M8.12859 11.0688C10.0443 11.0688 11.9569 11.0688 13.9988 11.0688C13.4972 11.6449 12.7077 11.104 12.355 11.6962C10.8534 12.6056 9.32917 11.6352 7.82116 11.7549C7.58169 11.6578 7.33899 11.5575 7.09952 11.4604C7.3131 10.9912 7.80174 11.2468 8.12859 11.0688Z" fill="#BFBEBD"/>
<path d="M5.58829 10.0553C5.03492 10.3789 5.49444 10.7672 5.52356 11.1264C4.70483 11.0325 3.98643 10.7251 3.49455 10.0455C3.2745 9.74135 3.15152 9.31743 3.44924 9.02294C3.75343 8.72199 3.99614 9.11032 4.24855 9.26241C4.69189 9.52777 5.14171 9.78989 5.58829 10.0553Z" fill="#A6A7A4"/>
<path d="M8.14809 13.6477C6.16114 13.3435 5.84776 13.1395 5.59211 11.9874C5.87688 12.0198 6.16166 12.0522 6.44643 12.0845C6.68914 12.1913 6.93508 12.2949 7.17778 12.4017C7.53698 12.7868 8.63026 12.6057 8.14809 13.6477Z" fill="#D2D2D0"/>
<path d="M6.85438 9.1177C6.85438 9.22449 6.85454 9.33155 6.85454 9.43834C6.1426 9.41245 5.47598 9.25065 4.90643 8.80083C5.49539 8.9594 5.3077 7.96269 5.90637 8.13097C6.41767 7.67468 6.94191 7.79441 7.47263 8.0889C7.20404 8.67786 6.61184 8.35425 6.14908 8.55165C6.39826 8.75553 6.62785 8.93648 6.85438 9.1177Z" fill="#9F9E9B"/>
<path d="M8.12892 11.0698C7.89268 11.484 7.44934 11.3546 7.09661 11.4581C6.70505 11.4096 6.31348 11.3578 5.92515 11.3093C6.54648 10.1928 7.36197 10.8498 8.12892 11.0698Z" fill="#DBDCDC"/>
<path d="M5.60111 14.2787C5.37459 14.2851 5.14807 14.2916 4.92154 14.2948C4.65942 14.5634 4.34552 14.6346 3.98631 14.5602C3.81804 14.5117 3.67889 14.4146 3.57534 14.2754C3.61093 13.9777 3.70801 13.7188 3.99279 13.57C4.52997 13.8094 5.06716 14.0424 5.60111 14.2787Z" fill="#E5E6E4"/>
<path d="M17.8497 14.6181C17.6297 14.2363 17.2511 14.3301 16.9113 14.3107C17.1184 14.1942 17.3223 14.0809 17.5294 13.9644C17.963 13.8609 18.3934 13.7606 18.827 13.657C18.9338 13.7735 18.963 13.9062 18.9144 14.0551C18.6588 14.4337 18.4064 14.8091 17.8497 14.6181Z" fill="#DEDFDC"/>
<path d="M8.76692 14.0038C9.43355 14.0297 10.1358 13.7643 10.7409 14.2562C10.0711 14.2627 9.37854 14.4536 8.76692 14.0038Z" fill="#A8A8A4"/>
<path d="M9.09054 46.3477C6.50492 46.3056 4.2688 45.3672 2.32069 43.6941C1.56668 42.6392 1.14599 41.458 1.01655 40.1701C1.14276 36.7948 1.26896 33.4228 1.39517 30.0476C1.40811 29.724 1.41458 29.4004 1.667 29.1512C2.39511 30.2062 2.35628 31.4391 2.44042 32.6365C2.54397 34.1089 2.29803 35.5975 2.60546 37.0602C2.83846 38.0666 2.73814 39.0924 2.76079 40.1118C2.78021 41.115 2.97113 42.0373 3.80604 42.7039C5.74121 43.6229 7.7314 44.3316 9.91251 44.3155C11.2264 44.7135 12.5758 44.5226 13.9123 44.5743C14.443 44.6391 15.0126 44.6035 15.3556 45.1407C15.4527 45.7943 14.9867 45.7976 14.5595 45.8008C13.8767 45.8008 13.1906 45.7426 12.5143 45.8817C12.3525 45.9076 12.1875 45.9108 12.0257 45.8947C11.4885 45.7782 10.9351 45.7943 10.3947 45.7037C9.66009 45.7361 8.9514 45.461 8.13267 45.5193C7.99675 45.5128 8.2071 45.7652 8.16179 45.5549C8.15532 45.5193 8.20709 45.4934 8.31065 45.516C9.042 45.6714 9.90927 45.3898 10.4432 46.1794C10.0484 46.7134 9.56625 46.4933 9.09054 46.3477Z" fill="#EEEEEA"/>
<path d="M2.29085 37.2686C1.8378 36.8253 1.98989 36.2525 2.00931 35.738C2.09021 33.531 1.90899 31.3434 1.66305 29.1558C1.78926 25.5702 1.88634 21.9847 2.06108 18.4023C2.13228 16.8943 2.45912 15.4284 3.5788 14.2796C3.70824 14.2861 3.83445 14.2958 3.96389 14.3022C4.30045 14.5708 4.77939 14.7262 4.75997 15.286C4.33604 16.0173 4.13864 16.8393 3.86681 17.6354C3.34904 18.8392 3.37817 20.1045 3.42347 21.3763C3.11281 24.2661 3.03514 27.1624 3.12251 30.0619C3.17429 30.9292 3.10634 31.7932 3.10634 32.6605C3.13546 33.4209 3.13223 34.1782 2.98984 34.9289C2.62093 35.6668 2.99955 36.6279 2.29085 37.2686Z" fill="#F1F1EE"/>
<path d="M1.01632 40.1744C1.44995 41.3491 1.88682 42.5238 2.32045 43.6985C1.96772 43.6434 1.8086 43.3691 1.64356 43.1037C1.42675 42.6701 1.20993 42.2364 0.989877 41.8028C0.999585 41.2591 1.00661 40.718 1.01632 40.1744Z" fill="#F1F1EE"/>
<path d="M0.701965 41.7972C0.0385705 40.6743 0.536924 39.4543 0.407481 38.2893C1.04499 39.4122 0.533689 40.6322 0.701965 41.7972Z" fill="#A9AAAB"/>
<path d="M12.3424 45.6584C13.2582 44.9691 14.3099 45.6163 15.2678 45.3574C15.6173 45.1147 16.0542 45.2377 16.4231 45.0759C17.614 44.817 18.7628 44.4546 19.7563 43.7167C19.8695 43.6294 19.9893 43.5517 20.1122 43.4773C20.6009 43.1925 21.0151 42.8139 21.4228 42.4288C21.5264 42.2346 21.7303 42.1019 21.7497 41.8592C21.685 42.0599 21.549 42.2217 21.4422 42.3997C21.3355 42.5226 21.206 42.5647 21.0474 42.5291C20.8306 42.4126 20.685 42.2379 20.6235 41.9984C20.5976 41.4353 20.7109 40.8722 20.6624 40.3059C20.6527 39.8723 20.6591 39.4419 20.6397 39.0115C20.6882 38.0083 20.4326 36.9695 20.986 36.0278C21.6267 35.7495 21.549 36.3029 21.6041 36.6071C21.7303 37.2834 21.4908 37.9371 21.5393 38.3449C21.6364 37.6232 21.7173 36.6751 21.4261 35.6654C20.8889 33.795 20.8824 31.918 21.7626 30.1155C21.85 30.1382 21.9406 30.1641 22.028 30.1867C22.3581 30.6948 22.2577 31.2223 22.083 31.7498C22.2998 34.7755 22.5134 37.798 22.7302 40.8237C22.5102 42.9433 21.1769 44.1374 19.3485 44.9464C18.6204 45.2668 17.9149 45.649 17.1997 46.0018C16.5525 46.1247 15.9021 46.2441 15.2549 46.3671C14.7371 46.6551 14.1158 46.3024 13.6013 46.626C12.0997 46.503 10.563 46.9399 9.09054 46.3477C9.53389 46.2603 10.0513 46.4803 10.4073 46.0241C10.459 45.9658 10.514 45.9076 10.5658 45.8493C11.4654 45.4124 12.3813 46.0888 13.2518 45.8072C12.9573 45.8331 12.624 45.927 12.3424 45.6584Z" fill="#DFDFDD"/>
<path d="M13.6015 46.6302C14.0999 46.216 14.6921 46.3778 15.2551 46.3713C14.7633 46.8535 14.1581 46.5914 13.6015 46.6302Z" fill="#B0B3B2"/>
<path d="M21.7626 30.1155C21.2643 33.0248 22.0437 35.9661 21.6618 39.1536C21.1505 37.9466 21.8042 36.856 21.1084 35.9693C20.3285 34.8788 20.3512 33.6135 20.3221 32.3579C20.3027 31.5715 20.4094 30.7787 20.1667 30.0085C20.0276 29.4842 20.0276 28.9406 19.9758 28.4034C19.9014 27.9665 19.8011 27.5296 19.9596 27.0895C20.5551 26.2223 19.9985 25.3291 20.0082 24.4489C20.0244 23.1189 20.0082 21.7889 20.0082 20.4588C19.9855 19.2874 19.7072 18.158 19.4483 16.9962C19.5098 17.8506 19.2962 18.378 18.2898 18.1936C17.9209 18.1256 17.5844 18.378 17.2866 18.6078C16.7721 19.1353 17.0245 19.7954 16.976 20.4038C16.9857 20.5527 16.9857 20.6983 16.9792 20.8439C16.9339 21.4135 17.0019 22.0283 16.4517 22.4231C15.7074 22.0413 16.1055 21.475 16.0666 21.0187C15.9728 21.0834 16.0537 21.2711 15.9501 21.3811C14.9081 22.462 13.782 21.5494 12.7659 21.3843C11.8824 21.242 12.2772 20.2226 12.3096 19.5689C12.3581 18.556 12.2351 17.7341 10.9957 17.5852C10.6495 17.5431 10.1187 17.5043 10.1446 17.0415C10.177 16.5141 10.753 16.5464 11.1511 16.4267C12.3549 16.1452 13.6072 16.2908 14.8078 15.9931C16.3514 15.7439 17.9856 15.6759 18.8173 13.9932C18.8205 13.8831 18.827 13.7764 18.8302 13.6663C19.0438 13.6469 19.2574 13.6307 19.471 13.6113C19.4742 13.6631 19.4613 13.731 19.4872 13.7699C21.1084 16.0707 21.2638 18.6855 21.1376 21.3682C21.1279 21.6044 21.3123 21.8471 21.4029 22.0898C21.2314 24.7725 21.8112 27.4296 21.7626 30.1155Z" fill="#EFEFEB"/>
<path d="M15.8757 12.3214C16.0116 12.4217 16.5554 12.369 16.1218 12.6959C15.6849 13.0227 15.1121 13.2622 14.6202 12.6829C15.0377 12.56 15.4583 12.4411 15.8757 12.3214Z" fill="#BCBCB9"/>
<path d="M7.49828 2.60979C7.28147 2.47388 6.93845 2.38327 6.87372 2.19558C6.77341 1.90433 7.14555 2.00465 7.30088 1.93669C7.78629 1.72311 8.28788 1.54512 8.783 1.3542C9.00953 1.44804 8.86067 1.73282 9.03542 1.85255C9.16809 1.57101 9.35902 1.31536 9.4108 0.998229C10.5661 0.422209 11.8152 0.81701 13.0093 0.655206C14.8086 1.02088 16.7243 0.99823 18.255 2.24735C18.2097 2.50947 18.0608 2.69717 17.8375 2.82984C17.5301 2.969 17.2162 2.99165 16.8894 2.91398C15.9282 2.17616 14.993 1.68104 13.8248 2.65186C13.307 3.08226 12.621 2.90427 12.1032 2.42857C12.045 2.35091 11.9641 2.29266 11.8637 2.25706C11.8993 2.35091 11.9382 2.44475 11.9932 2.54184C12.1809 3.64857 11.5369 4.34433 10.7991 4.99154C10.6567 4.27313 10.0839 4.93976 9.79913 4.68411C9.99653 4.04337 9.28136 4.25048 9.11308 3.94629C9.06778 3.26671 8.48205 3.17287 8.02252 2.93664C7.83483 2.8525 7.60831 2.82337 7.49828 2.60979Z" fill="#AEAEAC"/>
<path d="M16.8766 2.65366C17.2034 2.65042 17.5335 2.65042 17.8604 2.64719C18.7567 2.33652 18.802 3.56623 19.5269 3.56623C20.2259 4.33318 20.158 5.26193 20.0835 6.19392C19.5302 6.24893 19.2713 5.7344 18.8441 5.54994C18.6014 5.65997 18.8441 4.80565 18.4072 5.31695C18.2552 5.25546 18.1451 5.25222 18.2746 5.47875C18.1387 5.94474 17.8312 6.22305 17.3717 6.34602C17.2293 6.35896 17.0902 6.34925 16.9478 6.32336C15.4527 6.47222 13.9674 6.66639 12.4852 6.90262C12.0192 6.92527 11.5112 6.70522 11.1131 7.13885C10.0258 7.16151 8.9385 7.18739 7.85118 7.21005L7.80588 7.14209C8.24922 5.99005 9.40126 6.69551 10.1132 6.25541C10.9805 6.07742 11.6762 5.6179 12.249 4.95127C12.8024 4.66973 13.4269 5.64703 13.9415 4.84448C13.9771 4.56618 13.9965 4.28464 14.1162 4.02575C14.1939 3.89631 14.3007 3.80247 14.4334 3.73127C15.1485 3.47886 16.1291 3.96427 16.5692 2.95785C16.663 2.85106 16.7666 2.75074 16.8766 2.65366Z" fill="#ACACA9"/>
<path d="M19.5258 3.56674C18.6133 3.90976 18.5259 2.75772 17.8593 2.64769C17.9919 2.51501 18.1246 2.3791 18.2573 2.24642C18.9498 2.42764 19.1343 3.09427 19.5258 3.56674Z" fill="#C1C1BE"/>
<path d="M22.0828 31.7514C22.0634 31.2304 22.044 30.7094 22.0278 30.1884C22.1022 29.8486 21.9889 29.4473 22.3579 29.2078C22.374 29.4052 22.387 29.6026 22.4032 29.7968C22.2478 30.444 22.6459 31.1754 22.0828 31.7514Z" fill="#9A9E9C"/>
<path d="M9.41342 0.999135C9.69496 1.2289 9.57522 1.49425 9.42313 1.70136C9.1966 2.00879 9.17071 2.74338 8.63352 2.48773C7.84392 2.11558 9.07039 1.79521 8.78562 1.35834C8.89565 1.25155 9.00891 1.14152 9.11893 1.03473C9.21602 1.00884 9.3131 0.999135 9.41342 0.999135Z" fill="#C7C8C6"/>
<path d="M13.9701 8.79787C13.4653 8.52604 12.8278 8.92408 12.3586 8.4775C12.6304 7.98239 12.2324 7.24456 12.9314 6.90477C14.3294 6.52615 15.7467 6.28021 17.19 6.18637L17.2127 6.22844C16.4166 7.44196 15.6594 8.70726 13.9701 8.79787Z" fill="#A4A4A1"/>
<path d="M13.9701 8.79787C15.3875 8.36748 15.993 6.90798 17.213 6.22516C17.624 5.98246 17.9864 5.69121 18.1547 5.21875L18.158 5.21227C18.3262 5.09254 18.5366 4.84336 18.6563 4.8822C18.9573 4.97928 18.7857 5.31907 18.844 5.54883C18.6239 5.87567 18.4071 6.20251 18.1871 6.53259C17.9411 6.72028 18.0868 7.08919 17.8473 7.28336C17.7114 7.36426 17.5593 7.40957 17.4104 7.46134C17.3069 7.49694 17.1677 7.56166 17.1709 7.64903C17.1904 7.94028 17.3942 7.60373 17.4848 7.72346C17.6952 7.80437 17.8149 7.94999 17.8602 8.16357C16.6435 8.85933 15.3358 9.01146 13.9701 8.79787Z" fill="#90908E"/>
<path d="M11.0637 9.44118C10.8049 9.44118 10.5395 9.40881 10.2871 9.45088C9.1221 9.64181 9.60104 8.97842 9.76608 8.47359C10.3615 8.24383 11.0055 8.11762 11.4715 8.61598C11.8695 9.03667 11.1252 9.11757 11.0637 9.44118Z" fill="#9F9E9B"/>
<path d="M7.472 8.09212C6.95099 8.10507 6.42675 8.11801 5.90574 8.13419C5.80866 7.84295 5.34914 7.67791 5.51094 7.33165C5.63391 7.07276 5.99635 7.13101 6.22288 7.23133C6.65004 7.41902 7.1743 7.41184 7.49144 7.82606C7.48173 7.91343 7.47524 8.00152 7.472 8.09212Z" fill="#CDCECC"/>
<path d="M17.8597 8.1591C17.7497 8.04907 17.6429 7.93904 17.5329 7.82578C17.3452 7.47952 17.575 7.32743 17.8274 7.18504C17.85 6.91321 17.9115 6.66403 18.1833 6.52812C18.1866 7.09443 19.2415 7.87109 17.8597 8.1591Z" fill="#82817E"/>
<path d="M12.6761 7.18509C12.6825 7.64138 13.1324 8.21093 12.3557 8.47628C11.8088 8.15915 12.4334 7.54429 12.0353 7.18833C12.0806 7.14302 12.1259 7.10095 12.1712 7.05565C12.3654 6.9974 12.5369 7.02005 12.6761 7.18509Z" fill="#9F9E9B"/>
<path d="M11.1124 7.13962C11.1415 6.16233 11.8793 6.64774 12.3324 6.54419C12.5524 6.91633 12.2159 6.99724 12.0153 7.14286L12.0347 7.18493C11.7272 7.17198 11.4198 7.1558 11.1124 7.13962Z" fill="#D7D8D6"/>
<path d="M14.9503 16.243C13.7368 16.9355 12.2935 16.2592 11.067 16.8837C9.38751 16.9938 7.73388 16.9161 6.14497 16.2624C5.56248 16.0229 4.87966 15.9647 4.57871 15.2819C4.3716 14.955 4.16773 14.6314 3.96062 14.3046C4.28099 14.3046 4.60137 14.3013 4.92174 14.3013C5.51394 15.4243 6.59155 15.4987 7.66916 15.5925C10.093 15.8029 12.5168 16.0294 14.9406 15.5925C15.5328 15.7996 14.1672 16.0326 14.9503 16.243Z" fill="#D3D3D0"/>
<path d="M14.9503 16.243C14.7141 16.1944 14.4777 16.1485 14.2415 16.0999C14.4745 15.9284 14.7107 15.7569 14.9437 15.5854C15.8725 15.1453 16.9986 15.2844 17.8497 14.6146C18.1701 14.4042 18.4904 14.1939 18.8141 13.9835C18.5002 15.6275 17.4583 16.2333 14.9503 16.243Z" fill="#D0CFCC"/>
<path d="M5.55289 6.56364C5.4008 6.97139 4.09989 6.6316 4.8539 7.66714C4.98334 7.84836 4.65326 7.96162 4.4235 7.87748C3.92515 7.69303 3.45592 7.31117 3.6695 6.81929C3.92838 6.22062 4.71798 5.6899 3.36854 5.52163C3.45268 5.00386 3.54005 4.48285 3.62419 3.96508C3.83777 3.85181 4.05459 3.73532 4.26817 3.62205C4.47852 3.47319 4.59825 3.59293 4.6921 3.76768C4.74711 4.2725 4.98981 3.69648 5.11279 3.8324C5.61114 3.92624 5.95093 4.2725 6.29395 4.58964C6.72111 4.9812 6.64021 5.31452 6.09655 5.52486C5.41374 5.609 5.42668 6.05881 5.55289 6.56364Z" fill="#A1A09F"/>
<path d="M4.58251 3.92959C4.47572 3.82603 4.37216 3.72571 4.26537 3.62216C4.75078 3.21441 5.23619 2.8099 5.85428 2.29213C6.02903 2.87786 5.21678 3.87134 6.152 3.80661C7.20372 3.73542 7.53057 5.90682 8.81852 4.54444C9.12271 4.53473 9.26187 4.72242 9.3363 4.98454C9.36542 5.2499 9.30393 5.4829 9.11624 5.6803C8.60494 6.01361 7.99009 5.98125 7.43025 6.15276C6.72479 6.16895 6.01932 6.17865 5.85105 5.25314C5.99343 5.16576 6.53062 5.29521 6.10346 4.88099C5.74102 4.52826 5.30091 4.25319 4.89317 3.94577C4.78638 4.04932 4.68283 4.04932 4.58251 3.92959Z" fill="#AAAAA8"/>
<path d="M9.1223 4.90106C9.02198 4.78456 8.92166 4.66482 8.82134 4.54833C8.92166 4.34445 9.01874 4.14382 9.11906 3.93994C9.39412 4.0888 10.1643 3.74902 9.7501 4.58069C9.72744 4.78779 9.61742 4.93342 9.4362 5.0305C9.30028 5.0661 9.19673 5.01756 9.1223 4.90106Z" fill="#6E6D6A"/>
<path d="M7.49828 2.60979C7.70863 2.66481 7.95792 2.65201 8.02912 2.93355C7.71845 3.18596 7.35278 3.63901 7.00005 3.17625C6.73793 2.82999 7.25234 2.74247 7.49828 2.60979Z" fill="#696967"/>
<path d="M5.85453 5.25405C6.30111 5.7071 6.85124 5.91097 7.48228 5.91097C8.46604 6.02747 9.61485 5.43203 10.3559 6.5776C9.62779 7.31866 8.53724 6.43197 7.80588 7.14391C7.05512 6.94975 6.30435 6.75558 5.55358 6.56142C5.23645 6.29929 4.70896 6.1116 4.79634 5.64237C4.90313 5.09871 5.43708 5.22816 5.85453 5.25405Z" fill="#E4E4E3"/>
<path d="M21.0991 40.5029C21.2609 41.0983 20.905 41.5869 20.7561 42.1177C20.4001 43.2665 19.4261 43.7066 18.4488 44.1434C17.0152 44.9751 15.4166 44.8845 13.8503 44.9848C12.4912 44.8586 11.1029 45.1596 9.76316 44.7259C9.6499 44.4929 9.77611 44.3441 9.93791 44.2179C10.035 44.1887 10.0932 44.1305 10.0997 44.0431C10.0059 44.069 9.91202 44.0884 9.80847 44.1014C9.20979 44.2826 8.81823 44.0884 8.6273 43.4962C8.59171 43.0173 8.4752 42.548 8.47197 42.0659C8.47197 41.794 8.5108 41.5255 8.66613 41.3022C8.87972 40.998 9.23568 40.93 9.52369 41.0595C10.3554 41.4316 11.3812 39.6097 12.0705 41.2892C12.297 41.4445 12.5462 41.4122 12.7954 41.3701C13.4037 41.0465 14.038 41.0821 14.5655 41.4543C15.0347 41.7876 14.6205 42.2115 14.4781 42.5869C14.7273 42.0982 15.1706 41.6355 14.2548 41.2698C13.4588 40.9527 13.6044 40.4446 14.2354 40.011C15.2386 39.943 15.8017 40.4187 16.0347 41.3895C16.1479 41.8652 16.3971 42.0821 16.6528 41.4348C16.6657 41.2925 16.6916 41.1533 16.7239 41.0142C17.109 39.8589 17.5265 39.956 18.1284 40.9106C19.0021 42.3053 19.3905 42.26 20.2869 40.7812C20.5102 40.5482 20.7399 40.3378 21.0991 40.5029Z" fill="#6D6254"/>
<path d="M10.1188 44.3745C9.99911 44.491 9.88261 44.6107 9.76288 44.7272C7.55588 44.7531 5.5301 44.1318 3.64671 43.0089C3.66936 42.1643 3.92177 41.2873 3.06421 40.6304C2.73737 40.3812 2.8927 39.9605 3.03509 39.6142C3.18071 39.3036 3.42665 39.0415 3.49784 38.6952C3.52373 38.4913 3.53021 38.2875 3.51079 38.0803C3.22602 36.9671 2.76326 35.8539 3.43312 34.8054C2.64999 35.1711 3.57227 36.2584 2.81503 36.7244C2.63058 36.705 2.52379 36.6047 2.49467 36.4202C2.51085 35.9089 2.41376 35.3944 2.60145 34.8961C2.6241 34.1776 2.64676 33.4625 2.66941 32.7441C2.76649 32.6405 2.87976 32.5564 2.99949 32.4852C3.27132 32.3396 3.66612 32.3784 3.76644 31.9739C3.6467 31.3299 3.25837 30.605 4.27126 30.3073C4.48485 30.2523 4.69196 30.2685 4.88612 30.3785C5.1806 30.8089 5.0544 31.3364 5.20973 31.7991C5.27769 32.2943 5.29063 32.7958 5.39418 33.2845C5.41683 33.4301 5.42007 33.5757 5.4136 33.7246C5.29386 35.4203 4.9023 37.1031 5.02527 38.8085C5.06734 39.3877 4.76962 40.3068 5.86988 40.3844C6.17731 40.4492 6.43296 40.5948 6.62389 40.8472C6.83747 41.2905 6.82453 41.6918 6.40707 42.0025C6.29381 42.0704 6.24527 42.1028 6.27763 42.106C6.49121 42.1449 6.21291 42.0769 6.44267 42.0801C6.79864 42.2743 7.03487 42.7015 7.55911 42.449C8.58495 41.9539 8.70145 42.6853 8.78882 43.4166C8.97651 43.9441 9.32601 43.9829 9.76935 43.7435C9.94733 43.9247 10.2645 44.0218 10.1188 44.3745Z" fill="#6E6559"/>
<path d="M2.60494 34.8957C2.63731 35.4782 2.6729 36.0607 2.70526 36.64C3.29423 37.5234 2.87677 38.6107 3.3007 39.5265C3.38807 39.8566 2.89619 40.2644 3.41072 40.5265C4.80223 41.2352 4.14531 42.1251 3.64696 43.0053C2.59524 42.5328 2.31693 41.6332 2.31046 40.5847C2.30399 39.478 2.29732 38.3721 2.29085 37.2686C2.3944 36.479 2.49815 35.6886 2.60494 34.8957Z" fill="#7C7263"/>
<path d="M13.8508 44.986C15.4138 44.6203 17.0124 44.3808 18.5075 43.7595C18.734 43.8501 18.9217 43.9731 18.9152 44.2579C18.1968 45.0507 17.1095 44.9504 16.2357 45.3646C15.9121 45.8727 15.5918 45.4455 15.2714 45.3581C14.8895 44.8759 14.32 45.1219 13.8508 44.986Z" fill="#E1E0DA"/>
<path d="M10.4073 46.0241C9.27786 45.859 8.1451 45.6968 7.01571 45.5318C7.02866 45.425 7.03837 45.3182 7.05131 45.2114C8.17099 45.2632 9.28744 45.3182 10.4071 45.37C10.5107 45.4476 10.5754 45.548 10.598 45.6742C10.5786 45.8004 10.5204 45.9072 10.4233 45.9881L10.4073 46.0241Z" fill="#D6D6D4"/>
<path d="M10.4169 45.9922C10.4136 45.8886 10.4104 45.7851 10.4104 45.6815C10.9476 45.4291 11.488 45.4647 12.0284 45.6621C12.132 45.6686 12.2355 45.6686 12.3391 45.6621C12.7501 45.688 13.161 45.7107 13.572 45.7365C13.5753 45.8207 13.5753 45.9081 13.5785 45.9922C12.5268 45.9922 11.4718 45.9922 10.4169 45.9922Z" fill="#C5C4C1"/>
<path d="M12.0316 45.6625C11.4912 45.669 10.9508 45.6755 10.4136 45.6819C10.4136 45.5784 10.4103 45.4748 10.4071 45.3745C10.954 45.4263 11.5624 45.1577 12.0316 45.6625Z" fill="#DFDFDD"/>
<path d="M4.57898 15.2787C6.6533 16.1719 8.87648 16.4502 11.0641 16.8838C10.8602 16.9032 10.6531 16.9194 10.3133 16.9518C12.7792 17.5504 12.8018 17.5504 12.6562 20.2072C12.598 21.2525 12.708 21.8059 13.7727 20.8771C13.9312 20.738 14.0283 20.6312 14.271 20.8448C15.258 21.7217 15.5913 21.5696 16.135 19.7089C16.2029 20.7347 16.2482 21.3787 16.3 22.1877C16.7078 21.657 16.4877 21.1878 16.5621 20.7703C17.3647 22.1554 18.0831 23.5792 18.7044 25.0581C17.9019 25.2199 17.1317 24.7733 16.3292 24.9319C15.7434 24.8316 15.4942 24.2135 14.9571 24.0485C14.4975 23.9611 14.2581 24.398 13.8859 24.508C13.1028 24.631 12.475 23.8931 11.6724 24.1164C11.3229 24.1585 11.0446 24.3818 10.7275 24.5015C10.5851 24.5371 10.4427 24.5501 10.2971 24.5371C9.60783 24.2718 8.9315 23.9287 8.15808 24.2006C8.00922 24.2232 7.86036 24.2297 7.7115 24.2264C6.78275 24.2944 6.50121 23.7507 6.46885 22.9385C6.41707 21.6376 6.70508 20.382 6.98662 19.1264C7.129 18.4889 7.73738 17.7931 6.69213 17.3822C5.85075 17.0521 4.96084 16.5634 4.3654 17.7737C4.3201 17.8643 4.20036 17.9032 4.09681 17.9355C3.66965 17.8773 3.78615 17.4598 3.62758 17.2268C3.8088 16.5084 4.09357 15.845 4.57898 15.2787Z" fill="#EDECE8"/>
<path d="M2.96108 32.7403C2.864 32.7403 2.76691 32.7403 2.67307 32.7435C2.68601 31.8957 2.69572 31.0511 2.70866 30.2032C3.03551 29.2712 2.54039 28.2486 3.0258 27.3361C3.13583 27.2196 3.27498 27.1484 3.43355 27.1225C3.58888 27.1516 3.70861 27.2358 3.7798 27.3781C3.82187 27.5141 3.84129 27.6597 3.83805 27.8021C3.67949 28.3037 3.97397 28.6887 4.17784 29.0997C4.29434 29.4913 4.33965 29.8926 4.31376 30.3035C4.31052 30.3715 4.30405 30.4395 4.29758 30.5074C3.37853 31.0187 4.37524 31.5656 4.26845 32.0931C3.9319 32.5105 3.32028 32.3682 2.96108 32.7403Z" fill="#797068"/>
<path d="M3.30056 27.2459C2.74395 28.1617 3.17435 29.2749 2.70835 30.2069C2.44947 27.165 2.79249 24.1425 2.99313 21.1168C3.94453 21.3045 3.61122 22.1103 3.75361 22.6895C3.62417 24.2072 4.07721 25.7864 3.30056 27.2459Z" fill="#C0C0BA"/>
<path d="M3.3135 22.7282C3.20995 22.191 3.5109 21.5697 2.9899 21.1134C2.89929 19.7672 2.94459 18.4436 3.62093 17.2204C3.89599 17.3434 3.93159 17.5958 3.95101 17.8547C4.06427 18.01 4.11928 18.1815 4.11605 18.3757C4.01897 19.3724 4.10957 20.3723 4.03838 21.3658C3.99955 21.903 4.13223 22.5826 3.3135 22.7282Z" fill="#CDCCC9"/>
<path d="M20.5001 29.7215C20.7008 31.8056 20.9046 33.8896 21.1053 35.9736C21.1117 37.0512 21.115 38.1289 21.1214 39.2065C20.6975 39.5236 20.3383 40.5171 19.7688 39.3359C19.704 39.2032 19.6555 39.0803 19.4678 39.0447C17.7236 38.7372 17.6718 38.6563 17.9663 36.7212C18.1313 36.4073 18.3967 36.1743 18.6361 35.9219C18.9403 35.6694 19.1313 35.3232 19.3707 35.0158C19.5714 34.8831 19.8529 34.8604 19.9565 34.5886C20.1668 33.8637 19.827 33.1453 19.9468 32.4204C20.1571 31.524 19.6782 30.4885 20.5001 29.7215Z" fill="#706557"/>
<path d="M18.1775 36.6249C18.1775 36.8385 18.1775 37.0553 18.1775 37.2689C18.1775 37.9096 18.074 38.7025 18.7309 38.9873C19.2745 39.2202 19.3166 38.1815 19.9541 38.1426C20.0674 38.7801 19.7211 39.9937 21.1191 39.2073C21.255 39.6442 21.2356 40.0746 21.0932 40.505C20.8699 40.615 20.6466 40.7283 20.4233 40.8383C20.2454 41.0098 20.0318 41.0519 19.7955 41.0227C19.4881 40.9613 19.1969 40.8577 18.9153 40.7218C18.0319 39.916 17.0902 39.1491 16.8928 37.8579C17.0255 37.1395 17.2779 36.544 18.1775 36.6249Z" fill="#645A4D"/>
<path d="M18.8337 44.0825C18.7237 43.9757 18.6175 43.8663 18.5075 43.7595C19.31 43.2838 20.1152 42.814 20.7527 42.1182C20.8692 42.2315 20.9857 42.3447 21.1022 42.458C21.2057 43.2185 20.5003 43.3576 20.1119 43.7395L20.1217 43.733C19.7139 43.9272 19.3903 44.432 18.8337 44.0825Z" fill="#EEEDE9"/>
<path d="M18.8337 44.0825C19.2641 43.966 19.6913 43.8495 20.1217 43.733C19.0991 44.9271 17.7081 45.2449 16.2357 45.3646C16.9703 44.6721 18.1509 44.8818 18.8337 44.0825Z" fill="#D1D0CB"/>
<path d="M20.1119 43.7395C20.442 43.3123 20.7721 42.8852 21.1022 42.458C21.2025 42.4451 21.3063 42.4382 21.4066 42.4382L21.4196 42.4479C21.3128 43.2149 20.8789 43.6456 20.1119 43.7395Z" fill="#CFCFCC"/>
<path d="M21.4066 42.4382C21.5393 41.9981 21.6717 41.5612 21.8852 40.8622C22.1506 41.723 21.9827 42.1534 21.4196 42.4479C21.4196 42.4512 21.4066 42.4382 21.4066 42.4382Z" fill="#CFCFCC"/>
<path d="M18.4259 25.0098C18.4906 24.9321 18.5521 24.8544 18.6168 24.7768C17.07 23.8836 16.8855 22.2882 16.5619 20.7673C16.5619 20.6605 16.5619 20.5537 16.5619 20.4469C16.9988 19.7415 16.4551 18.8904 16.892 18.1817C17.6169 18.2432 18.1638 16.9455 18.989 17.939C19.4582 17.2076 18.6783 16.7675 18.5748 16.1494C19.9339 16.5507 19.9339 16.5507 20.429 20.1363C20.3416 20.2172 20.2413 20.2851 20.1378 20.3434C20.0439 21.1006 20.154 21.8578 20.1151 22.6151C19.8595 23.9419 20.6847 25.2719 20.1087 26.5955C19.0246 26.6246 18.6006 25.9482 18.4259 25.0098Z" fill="#E1E0DC"/>
<path d="M18.4259 25.0098C18.8984 25.5275 19.368 26.0457 19.8405 26.5635C20.0929 26.722 20.2871 26.913 20.1641 27.2495C19.9926 27.654 20.4845 27.8482 20.4715 28.2041C20.2838 28.3854 20.1673 28.6798 19.8276 28.6378C19.6949 28.5957 19.5719 28.5342 19.4522 28.4663C18.902 28.1977 18.5364 28.6216 18.1092 28.8222C17.1902 29.2559 16.4297 29.1491 15.9249 28.175C15.8084 27.8838 15.7339 27.5828 15.7663 27.2657C15.7242 26.5343 17.1999 26.2916 16.3941 25.3111C16.2679 25.1299 16.1643 24.9422 16.242 24.7092C17.0122 24.4859 17.7593 24.4532 18.4259 25.0098Z" fill="#7C705F"/>
<path d="M20.1641 27.2456C20.0573 27.0158 19.9473 26.7893 19.8405 26.5596C20.6042 25.1583 19.4036 23.7733 19.8049 22.3753C20.2256 21.6666 19.7013 20.822 20.1253 20.1133C20.2288 20.1133 20.3291 20.1198 20.4327 20.136C20.5718 22.097 20.2256 24.0807 20.7142 26.0288C20.8404 26.5466 20.6495 26.977 20.1641 27.2456Z" fill="#C0C1BB"/>
<path d="M19.8208 28.556C20.0376 28.4362 20.2544 28.3197 20.4712 28.2C20.4809 28.7081 20.4904 29.2135 20.5001 29.7215C20.2315 30.7085 20.7851 31.7985 20.1282 32.737C19.8013 32.5622 19.6331 32.2677 19.5166 31.9344C19.3839 31.5073 19.3742 31.0672 19.3612 30.6238C19.4098 29.9086 19.193 29.1385 19.8208 28.556Z" fill="#695E50"/>
<path d="M16.8922 18.1847C16.753 18.9355 17.1834 19.7671 16.5621 20.4499C16.6883 19.6959 16.2547 18.861 16.8922 18.1847Z" fill="#EDECE8"/>
<path d="M10.3552 6.5797C9.46202 6.07488 8.35528 6.4988 7.48154 5.91307C7.93135 5.34029 8.5721 5.64448 9.12547 5.55063C9.40377 5.23673 9.81798 5.21084 10.1707 5.05875C10.3487 4.97785 10.5332 4.9196 10.7338 4.91313C10.8762 4.00055 11.9797 3.45689 11.6981 2.38252C11.7208 2.14952 11.8535 2.02332 12.08 1.99419C12.6204 2.5605 13.3874 2.80645 13.889 2.25308C15.1704 0.838915 15.9956 1.70618 16.8759 2.65435C16.8791 2.7579 16.8823 2.85822 16.8823 2.96178C16.7367 3.13329 16.549 3.21743 16.3225 3.23037C15.8921 3.21419 15.4617 3.02326 15.0378 3.25302C14.7174 3.39217 14.4294 3.56045 14.3323 3.9326L14.2611 3.96172C13.9116 4.30151 13.4489 4.44713 13.0379 4.68013C12.3292 4.28209 12.6431 5.12347 12.3615 5.23997C12.1026 6.29493 11.0542 6.17843 10.3552 6.5797Z" fill="#A1A19E"/>
<path d="M10.7338 4.91313C10.627 5.01992 10.52 5.12957 10.4132 5.23636C9.98282 5.36581 9.47476 5.70236 9.39709 4.86422C9.51359 4.77037 9.63333 4.67652 9.74983 4.58268C10.0508 4.7639 10.6755 4.00379 10.7338 4.91313Z" fill="#CCCECB"/>
<path d="M12.0804 1.99064C11.9542 2.12008 11.8247 2.24952 11.6985 2.37897C11.5367 2.28836 11.1872 2.29806 11.3135 2.01329C11.5076 1.58613 11.815 1.77382 12.0804 1.99064Z" fill="#625F5F"/>
<path d="M12.0157 7.14715C12.1225 6.94652 12.2293 6.74588 12.3361 6.54848C13.6758 6.1019 15.1612 6.45464 16.4718 5.79771C16.8504 5.60678 17.0414 5.89156 17.1935 6.18604C15.7405 6.74588 14.2033 6.9271 12.6824 7.18599C12.4558 7.17304 12.2358 7.1601 12.0157 7.14715Z" fill="#BCBBB9"/>
<path d="M14.3361 3.92904C13.8734 3.18798 14.6144 3.21064 14.9413 2.97117C15.362 3.02618 15.7826 3.22358 16.2001 2.97117C16.4266 2.96793 16.6564 2.96146 16.8829 2.95822C16.5625 4.6701 15.2746 3.84167 14.3361 3.92904Z" fill="#B8B9B5"/>
<path d="M12.9768 4.60265C13.0998 3.77422 13.7373 3.97809 14.2647 3.96191C14.268 4.26287 14.2744 4.56382 14.2777 4.86154C13.6499 5.74499 13.2357 5.567 12.9768 4.60265Z" fill="#797977"/>
<path d="M12.9768 4.60265C13.3133 5.17867 13.7436 5.2886 14.2808 4.86144C14.53 5.46982 14.5591 5.94552 13.6724 5.71576C13.2259 5.6025 12.8019 5.39863 12.3651 5.23682C12.391 4.85497 12.1483 4.21433 12.9768 4.60265Z" fill="#BCBCB9"/>
<path d="M18.1514 5.21807C17.8472 5.19542 17.5171 5.20189 17.4492 4.80062C17.4427 4.75531 17.5689 4.64205 17.6434 4.63234C18.0737 4.58704 18.1321 4.88867 18.158 5.21227L18.1514 5.21807Z" fill="#CACBC7"/>
<path d="M17.8304 7.18961C17.7334 7.40319 17.633 7.61677 17.536 7.83035C17.2512 7.94685 16.9664 8.06334 16.6816 8.17661C17.0052 7.75268 16.8046 6.69125 17.8304 7.18961Z" fill="#9D9C99"/>
<path d="M4.58251 3.92959C4.68606 3.94253 4.78961 3.949 4.89317 3.94577C4.88022 4.32762 4.76374 4.65718 4.37218 4.78338C4.29128 4.80927 4.06799 4.67012 4.05828 4.58922C4.02268 4.22354 4.31392 4.07844 4.58251 3.92959Z" fill="#C6C6C3"/>
<path d="M9.39791 4.86289C9.62768 5.28358 10.0257 5.24475 10.414 5.23504C10.0775 5.71722 9.5759 5.52629 9.12933 5.54894C9.12933 5.33212 9.12609 5.11531 9.12609 4.89849C9.21346 4.89202 9.30731 4.87907 9.39791 4.86289Z" fill="#B4B4B2"/>
<path d="M6.21358 42.1121C6.43686 41.7044 6.58249 41.2805 6.51129 40.808C6.57601 40.7756 6.64074 40.7433 6.70546 40.7077C7.45299 40.7239 8.08079 40.2708 8.78949 40.1705C9.5176 40.2384 8.83803 39.3453 9.37845 39.2838C10.0289 39.0023 10.4755 38.546 10.7732 37.8826C11.0321 37.3066 11.456 36.9118 12.1129 37.4781C12.2488 37.6593 12.32 37.8664 12.3621 38.0832C12.4009 38.2839 12.4204 38.491 12.4527 38.6916C12.5207 38.9893 12.6016 39.2773 12.9414 39.3874C13.3588 39.4488 13.6501 39.1349 14.0125 39.0282C14.2326 38.9796 14.4429 39.0023 14.6371 39.122C14.7989 39.3032 14.8345 39.5168 14.7859 39.7498C14.7018 39.986 14.485 40.0702 14.294 40.1834C14.006 40.4164 13.8313 40.8339 14.1743 40.973C15.5755 41.5329 14.938 42.3063 14.4688 43.1185C14.1581 42.782 14.3458 42.4487 14.4526 42.1315C14.5562 41.8209 14.5012 41.5685 14.1775 41.5199C13.9348 41.4843 13.6371 41.0863 13.4074 41.6105C12.9964 42.5587 12.9802 41.3419 12.7084 41.4681C12.4721 41.4779 12.2359 41.7206 11.9997 41.4681C11.799 41.4843 11.5725 41.8791 11.4301 41.3193C11.3007 40.8048 11.2295 40.8468 10.825 41.3161C10.6211 41.5523 10.3331 41.8371 10.0613 41.8662C8.90598 41.9827 8.90598 41.9503 8.98365 43.18C8.98689 43.2545 8.85745 43.3418 8.78949 43.4195C8.41734 42.9406 8.29761 42.1768 7.35267 42.9923C6.41098 43.8046 6.75724 42.2286 6.21358 42.1186V42.1121Z" fill="#61584B"/>
<path d="M17.1903 37.9413C17.543 39.0189 18.4459 39.6855 19.1157 40.5237C19.2096 40.9152 19.3779 41.1515 19.805 40.8538C20.0121 40.8473 20.2192 40.8441 20.4296 40.8376C20.5105 41.6337 20.1901 42.297 19.407 42.3682C18.1093 42.4847 17.899 41.2971 17.4556 40.3651C17.255 40.6758 17.09 40.9249 16.9282 41.1774C16.8181 41.1385 16.7955 40.9767 16.7728 40.9703C16.5916 40.912 16.7243 41.0576 16.7178 41.0997C16.6466 41.4395 16.5172 41.6563 16.1256 41.4427C15.8764 41.1094 15.9379 40.7114 15.8991 40.336C16.0738 39.5787 15.7955 38.7956 16.0124 38.0416C16.1515 37.7342 16.378 37.54 16.7178 37.4882C17.0026 37.5044 17.0641 37.7601 17.1903 37.9413Z" fill="#877968"/>
<path d="M16.2257 40.1931C16.2321 40.6235 16.2418 41.0539 16.2516 41.4811C16.4813 41.7044 16.7175 41.4649 16.9505 41.4875C17.3033 41.9309 17.2903 42.303 16.669 42.4066C16.1221 42.4972 15.6108 42.2221 15.6496 41.659C15.7241 40.6073 14.9474 40.4844 14.2937 40.1802C14.407 40.0701 14.5203 39.9601 14.6335 39.8501C15.2387 39.6139 15.7629 39.7562 16.2257 40.1931Z" fill="#5C5448"/>
<path d="M10.1188 44.3745C10.0056 44.1642 9.88911 43.9535 9.77585 43.7464C10.2871 43.7173 10.8114 43.6105 11.3421 44.0506C11.0282 44.5975 10.5136 44.3065 10.1188 44.3745Z" fill="#B6A38B"/>
<path d="M16.9507 41.4906C16.7145 41.7786 16.4783 42.044 16.2517 41.4842C16.6239 41.2447 16.5268 40.7787 16.7824 40.2027C16.8569 40.6978 16.8925 40.9373 16.9281 41.18C16.9119 41.2835 16.9184 41.3871 16.9507 41.4906Z" fill="#A79989"/>
<path d="M12.0059 41.4677C12.2422 41.3868 12.4784 41.1441 12.7146 41.4677C12.6532 41.7168 12.6337 42.0534 12.2745 41.9725C12.1548 41.9466 12.0933 41.6424 12.0059 41.4677Z" fill="#9A8B73"/>
<path d="M5.86335 40.5244C5.48149 40.6538 5.68537 41.2784 5.0964 41.3302C4.21619 38.6701 4.6207 36.0295 5.23555 33.3888C5.30998 33.0911 5.36176 32.6543 5.76627 32.7869C6.33258 32.9746 6.19343 33.5409 6.20637 33.9972C6.07046 35.0425 7.17396 35.7382 6.97009 36.832C6.86653 37.3919 6.97332 37.9938 6.74033 38.5471C6.21608 39.1005 6.45879 40.0001 5.86335 40.5244Z" fill="#8C8375"/>
<path d="M5.86099 34.0632C5.85128 33.7202 5.83834 33.3804 5.82863 33.0373C5.63123 33.1538 5.43383 33.2703 5.23643 33.3836C4.87075 32.8853 5.27203 32.2542 4.94518 31.7494C4.59569 31.3578 4.58274 30.9339 4.83192 30.4873C5.3691 29.4939 5.8351 30.0602 6.30433 30.552C6.47584 31.2057 6.72502 31.8335 6.89006 32.4905C6.99038 33.128 7.02921 33.7655 6.75414 34.3706C6.61176 34.6845 6.35611 34.9013 6.00014 34.7298C5.71536 34.6004 5.71213 34.3285 5.86099 34.0632Z" fill="#A39F95"/>
<path d="M2.97117 36.6239C2.91616 35.4719 2.89674 34.3328 4.46624 33.8247C2.7673 35.2001 3.37568 36.7372 3.92258 38.2679C3.57632 38.5138 3.23653 38.53 2.90322 38.2485C2.8029 37.7016 2.69611 37.1547 2.97117 36.6239Z" fill="#84796A"/>
<path d="M2.97117 36.6239C2.99382 37.1805 3.01595 37.7373 3.03861 38.2971C3.33309 38.4816 3.66641 38.6013 3.92529 38.8375C3.84439 39.1838 3.6211 39.4039 3.30073 39.5333C1.94481 38.8084 2.92534 37.6014 2.70529 36.6467C2.79267 36.6305 2.88056 36.6239 2.97117 36.6239Z" fill="#665D52"/>
<path d="M5.86418 40.5227C6.14248 39.9014 5.33023 38.9241 6.49198 38.5875C7.12625 39.3221 7.10026 40.0637 6.51129 40.808C6.25241 40.8145 6.00333 40.7913 5.86418 40.5227Z" fill="#A69C8B"/>
<path d="M6.23956 30.7533C5.80269 30.4944 5.43377 29.8634 4.83186 30.4912C4.65064 30.4944 4.47266 30.5009 4.29468 30.5041L4.26555 30.475C4.07786 30.1805 4.2785 29.967 4.41441 29.7372C4.55356 29.5786 4.7186 29.4557 4.916 29.378C5.05192 29.3489 5.18783 29.3521 5.32375 29.3845C5.64735 29.4945 5.94831 29.6531 6.25574 29.8084C6.37871 29.8763 6.48873 29.9573 6.58905 30.0576C6.66672 30.1741 6.71526 30.3035 6.73144 30.4459C6.72173 30.5883 6.67643 30.7145 6.59553 30.831C6.45637 30.8957 6.33664 30.8731 6.23956 30.7533Z" fill="#797068"/>
<path d="M6.21668 42.1182C6.17137 42.4418 6.45938 42.9207 5.87689 42.9951C5.61153 43.0307 5.31382 42.7913 5.33647 42.5291C5.38501 41.9887 5.87365 42.1699 6.21021 42.1117C6.21344 42.1117 6.21668 42.1182 6.21668 42.1182Z" fill="#B6A892"/>
<path d="M2.9604 32.7414C3.19987 32.1363 3.72088 32.0942 4.26454 32.0942C4.16422 32.9809 3.46846 32.6735 2.9604 32.7414Z" fill="#5C4F49"/>
<path d="M3.92545 38.8327C3.49829 38.8683 3.1585 38.7583 3.03876 38.2923C3.33325 38.2826 3.62773 38.2729 3.92221 38.2632C3.92221 38.4541 3.92221 38.645 3.92545 38.8327Z" fill="#AAA292"/>
<path d="M4.94507 31.7546C5.39164 32.2368 5.20319 32.8322 5.23555 33.3888C4.71454 32.9196 4.96125 32.3145 4.94507 31.7546Z" fill="#8C8375"/>
<path d="M11.3945 23.7148C12.3556 23.3847 13.1258 23.9834 13.9639 24.239C14.1646 24.7471 13.9413 25.2907 14.0869 25.802C14.0416 26.035 13.8636 26.1709 13.7115 26.3166C13.8118 26.4913 13.993 26.3878 14.1257 26.4493C14.8603 26.8958 14.8118 27.4492 14.3587 28.0576C14.1872 28.3488 14.0383 28.6433 14.1775 28.996C14.7891 29.5203 14.9186 30.2257 14.8247 30.9571C14.7503 31.5364 15.0383 31.3519 15.3231 31.271C15.4784 31.2775 15.6143 31.3228 15.747 31.4004C16.5463 32.2904 15.8279 33.0023 15.4719 33.7563C15.3295 33.944 15.158 34.0928 14.938 34.1835C14.4332 33.889 13.9219 33.9828 13.4106 34.164C12.9284 33.8857 12.2326 33.9149 12.032 33.2223C11.8378 32.5492 11.3751 32.08 10.8573 31.6561C10.4754 31.1351 9.52079 31.6496 9.30721 30.8115C9.35899 29.1222 9.33958 29.0996 8.28785 29.5138C7.8704 29.9021 7.44648 30.051 7.19083 29.3876C6.95136 28.763 6.44653 28.2032 6.64393 27.4557C6.77661 26.8764 7.41088 27.433 7.61152 27.0253C7.46266 26.9088 7.3235 27.0026 7.17788 27.035C7.04196 27.0512 6.91576 27.035 6.79279 26.9767C6.69571 26.8667 6.62775 26.7437 6.57597 26.6046C6.46271 26.1451 6.46271 25.692 6.58568 25.2357C6.73454 24.8442 6.98048 24.5626 7.42058 24.4979C8.40759 25.2972 8.893 26.4557 9.56287 27.4783C10.3525 28.2097 11.3395 26.9023 12.1291 27.9314C12.1355 27.1709 11.7149 26.7858 11.5433 26.3036C11.4268 25.9088 11.5466 25.5658 11.7602 25.239C11.9446 24.9445 12.1614 24.65 11.7537 24.3587C11.5595 24.1872 11.2683 24.0675 11.3945 23.7148Z" fill="#706455"/>
<path d="M7.44666 24.6113C7.11011 24.702 6.92889 24.9447 6.80592 25.2521C6.35934 25.7278 5.82215 25.7375 5.25261 25.5466C4.39828 24.4495 4.89988 23.2037 4.89017 22.0193C4.8837 21.2491 5.23643 20.4854 4.98078 19.7055C4.91929 19.4919 4.71866 19.809 4.90635 19.699C4.99372 19.6472 5.0455 19.6763 5.04226 19.7831C5.01638 20.6019 5.27526 21.9416 4.35945 21.9481C3.32715 21.9578 3.89346 20.6407 3.80932 19.9126C3.7446 19.3495 3.63457 18.7314 3.93229 18.1748C3.93229 18.068 3.93553 17.9645 3.94847 17.8577C4.42417 17.4143 4.2203 16.2558 5.1264 16.3885C6.0325 16.5212 6.91271 16.9839 7.75085 17.4079C8.21037 17.6409 7.87706 18.0874 7.71526 18.3916C7.00008 19.754 7.02921 21.2555 6.83504 22.7247C6.72178 23.5855 7.15542 23.9124 7.85764 24.1C7.85117 24.3719 7.70231 24.5369 7.44666 24.6113Z" fill="#F1F1EE"/>
<path d="M7.44666 24.6113C7.58581 24.4398 7.72178 24.2661 7.86093 24.0946C7.95801 24.0719 8.05833 24.0493 8.15865 24.0298C8.94502 23.9101 9.66989 24.0784 10.3301 24.512C10.796 24.8324 10.5695 25.3049 10.5986 25.7223C10.5469 26.143 10.466 26.554 10.2006 26.9002C9.92554 26.9876 9.62783 27.062 9.58899 27.4342C9.54369 27.4795 9.49838 27.5216 9.44984 27.5669C8.66671 26.6608 7.6926 25.8831 7.44666 24.6113Z" fill="#847867"/>
<path d="M13.9799 25.9445C13.5042 25.3814 13.239 24.815 13.9639 24.239C14.2552 23.9672 14.0964 22.9673 14.9604 23.6242C15.5203 24.2358 16.1092 24.8248 16.4199 25.6176C16.3875 26.0642 16.1157 26.3425 15.7597 26.5658C14.941 27.0027 14.3585 26.7697 13.9799 25.9445Z" fill="#827563"/>
<path d="M10.4173 24.6516C9.69562 24.3247 8.83482 24.5124 8.15525 24.0335C9.01604 23.273 9.70856 23.8458 10.4108 24.3215C10.4949 24.3927 10.5273 24.4671 10.4982 24.5415C10.4723 24.6127 10.4464 24.6516 10.4173 24.6516Z" fill="#736F69"/>
<path d="M16.2478 25.6264C15.9242 24.8886 15.086 24.4841 14.9598 23.6201C15.6944 23.6201 15.9112 24.2285 16.2413 24.7074C16.3578 24.8142 16.4743 24.921 16.5876 25.0245C16.7655 25.3934 16.7461 25.6426 16.2478 25.6264Z" fill="#736759"/>
<path d="M10.4173 24.6516C10.414 24.5415 10.414 24.4315 10.4108 24.3215C10.5079 24.2665 10.6116 24.2535 10.7183 24.2794C10.9546 24.3279 11.1164 24.4703 11.2361 24.6742C11.3332 24.8845 11.372 25.1046 11.3688 25.3344C11.3559 25.5674 11.2879 25.7777 11.139 25.9589C10.7863 26.124 10.5727 25.9557 10.4142 25.6547C10.0226 25.3182 10.5435 24.9849 10.4173 24.6516Z" fill="#675B51"/>
<path d="M11.0215 24.6608C10.9212 24.5346 10.8209 24.4051 10.7206 24.2789C10.918 24.0589 11.0215 23.7256 11.3937 23.7159C11.6267 23.8259 11.8597 23.9359 12.0959 24.0459C12.193 24.2336 12.2448 24.4213 12.1477 24.6252C12.0506 24.7255 11.9341 24.7805 11.7982 24.7999C11.5263 24.8129 11.2836 24.6867 11.0215 24.6608Z" fill="#72685C"/>
<path d="M3.93536 18.1716C4.0551 19.369 3.7056 20.6052 4.22661 21.9093C5.07122 21.0873 4.83823 20.0939 5.25568 19.2234C5.25568 21.2524 5.25568 23.2782 5.25568 25.3072C5.37865 25.7732 4.97414 25.922 4.74438 26.1809C4.34311 26.4883 4.07775 26.9705 3.55674 27.1291C3.46613 27.1517 3.38199 27.1906 3.30433 27.2456C3.3108 25.7408 3.31403 24.2328 3.32051 22.728C3.92889 21.8672 3.49525 20.8899 3.6247 19.9741C3.70883 19.369 3.41112 18.6991 3.93536 18.1716Z" fill="#E7E7E3"/>
<path d="M3.5535 27.1289C3.64735 26.5205 4.00008 26.1224 4.56316 25.8991C5.62782 26.692 5.7249 27.6628 4.92559 29.4847C4.82851 29.5947 4.72819 29.708 4.63111 29.818C4.21042 29.8083 4.16512 29.3973 3.94183 29.1773C3.71207 28.7793 2.85127 28.5333 3.62469 27.8893C3.93859 27.7793 3.63764 27.6725 3.62146 27.5625C3.59881 27.4169 3.57615 27.2712 3.5535 27.1289Z" fill="#6F655B"/>
<path d="M3.94178 29.1752C4.17154 29.3888 4.4013 29.6023 4.63106 29.8159C4.50809 30.036 4.38835 30.256 4.26538 30.4761C3.76703 30.1395 3.98708 29.625 3.94178 29.1752Z" fill="#9E9583"/>
<path d="M3.62105 27.56C3.93495 27.7348 4.27797 27.8804 4.3977 28.2622C4.41388 28.314 4.31033 28.4629 4.26179 28.4629C3.8767 28.4726 3.78285 28.1393 3.62428 27.8869C3.62105 27.7801 3.62105 27.67 3.62105 27.56Z" fill="#A59A84"/>
<path d="M14.9347 34.0453C15.048 33.932 15.1612 33.8188 15.2745 33.7023C15.6337 33.3754 15.8214 32.9353 16.0415 32.5179C16.4071 31.8221 16.9476 31.3885 17.6854 31.8998C18.3229 32.3399 19.0219 31.8189 19.6206 32.1878C20.1513 33.0615 20.1804 34.0227 20.1221 34.9999C19.9086 35.3656 19.6982 35.0355 19.4846 34.9999C18.8827 35.0711 19.4426 35.9255 18.8212 35.9837C18.8083 36.3979 18.5915 36.6115 18.1773 36.6212C17.6433 36.906 17.2291 37.2814 17.1903 37.9383C17.0867 37.8315 16.9832 37.7247 16.8828 37.6147C16.4007 37.3331 15.8732 37.7797 15.391 37.5306C14.8279 37.3429 14.239 37.1875 13.938 36.5921C13.8765 36.4594 13.8442 36.3203 13.8377 36.1746C13.9121 35.7669 14.0933 35.385 14.1581 34.9741C14.2649 34.5437 14.5755 34.2751 14.9347 34.0453Z" fill="#6A5F51"/>
<path d="M20.1216 34.9991C19.62 34.093 19.8595 33.0219 19.4679 32.0931C19.5779 31.9766 19.6912 31.9734 19.8077 32.0802C20.0633 32.2258 20.1086 32.4717 20.1281 32.7339C20.4193 33.4911 20.7332 34.2483 20.1216 34.9991Z" fill="#847868"/>
<path d="M20.4061 37.4788C19.3835 36.9772 19.6748 36.4498 19.9757 35.8252C20.6035 36.2556 20.3899 36.8154 20.4061 37.4788Z" fill="#897B68"/>
<path d="M18.8214 35.9852C19.0026 35.6421 18.9541 35.3024 18.8732 34.9334C18.8149 34.6681 18.7243 34.1989 19.1838 34.2312C19.5786 34.2603 19.4298 34.7199 19.4848 35.0014C19.4783 35.4739 19.4783 35.9496 18.8214 35.9852Z" fill="#827462"/>
<path d="M19.8045 40.8568C19.7268 41.3713 19.5068 41.9053 18.9243 41.6011C18.1508 41.1998 18.9404 40.873 19.1184 40.5267C19.4032 40.5138 19.6621 40.5623 19.8045 40.8568Z" fill="#716458"/>
<path d="M20.1213 20.1174C19.9919 20.8682 20.4158 21.6966 19.8009 22.3794C19.8171 21.6351 19.8333 20.8876 19.8527 20.1433C19.8527 20.1142 19.9272 20.0689 19.9692 20.0656C20.021 20.0624 20.0728 20.098 20.1213 20.1174Z" fill="#B0B0AA"/>
<path d="M13.9799 25.9445C14.4847 26.2357 14.9247 26.8186 15.6043 26.2879C15.9214 26.5306 15.9085 26.8801 15.9085 27.2263C15.9959 27.4691 16.08 27.7085 16.1674 27.9512C16.0412 28.2069 15.8794 28.4269 15.5913 28.524C15.148 28.7279 14.7985 28.4949 14.4393 28.2813C14.2581 28.1875 14.1125 28.0483 13.9765 27.8994C14.4458 27.4496 14.6205 27.0095 13.9474 26.5856C13.7759 26.4011 13.4394 26.5274 13.3196 26.2458C13.4717 25.9966 13.7178 25.951 13.9799 25.9445Z" fill="#736759"/>
<path d="M15.5944 28.2107C15.7854 28.1233 15.9731 28.036 16.164 27.9518C16.5588 29.1006 17.4066 28.68 18.1768 28.5311C18.303 28.6185 18.4001 28.7317 18.4745 28.8644C18.6364 29.2042 18.7561 29.5602 18.7982 29.9355C18.7302 30.5698 18.6558 31.2106 17.8209 30.4986C17.4649 30.1944 17.096 29.9129 16.7174 29.6443C16.3873 29.4728 16.0637 29.2948 15.7951 29.0294C15.6009 28.79 15.4391 28.5376 15.5944 28.2107Z" fill="#665A4E"/>
<path d="M15.9053 27.2257C15.5299 27.0024 15.5979 26.6335 15.6011 26.2873C15.818 26.0672 16.031 25.8465 16.2478 25.6264C16.361 25.4258 16.4749 25.2291 16.5849 25.0284C18.2482 26.3455 16.394 26.5753 15.9053 27.2257Z" fill="#635A4F"/>
<path d="M19.8208 28.556C19.8078 29.3003 19.7953 30.0448 19.7824 30.7923C19.2161 31.5236 18.9378 31.1127 18.8018 30.5075C18.6886 30.0059 19.0187 29.5108 18.9216 28.993C19.0154 28.5109 19.1513 28.074 19.7953 28.2099C19.805 28.3232 19.811 28.4395 19.8208 28.556Z" fill="#897C6B"/>
<path d="M19.7951 28.206C19.3615 28.3872 19.135 28.7043 19.1576 29.1833C19.0573 29.2707 18.9408 29.3062 18.8081 29.2965C18.5493 29.2286 18.3713 29.0441 18.1868 28.8726C18.1836 28.7594 18.1836 28.6461 18.1803 28.5328C18.6043 27.8565 19.1091 27.5911 19.7951 28.206Z" fill="#665A4E"/>
<path d="M18.8467 29.1659C18.9502 29.1756 19.0538 29.1821 19.1573 29.1853C19.6622 29.5478 19.1573 29.7969 19.0829 30.1141C18.9697 30.6124 18.9794 31.1561 19.7819 30.7936C19.7916 31.224 19.7981 31.6544 19.8078 32.0848C19.6945 32.0881 19.5813 32.0945 19.468 32.0978C19.0829 32.4343 18.7269 33.046 18.1347 32.5379C16.8921 31.4667 16.3937 32.3049 15.9277 33.3242C15.7983 33.6058 15.5524 33.6835 15.2741 33.7093C15.2255 32.9295 16.2352 32.2984 15.5944 31.4376C15.6236 31.0881 16.0313 31.0299 16.1349 30.7386C15.8566 30.9716 15.4229 31.0169 15.3032 31.4312C14.876 31.5735 15.4132 32.1981 15.0314 32.1722C14.6171 32.1431 14.3 31.7515 14.423 31.2435C14.6301 30.3762 14.4909 29.6513 13.6657 29.1659C14.0379 28.7808 14.177 28.221 14.6236 27.8909C14.9181 28.0948 15.1155 28.5769 15.5977 28.2145C15.7045 28.4281 15.8112 28.6449 15.9148 28.8585C16.1672 29.1659 16.3484 29.661 16.8727 29.195C17.3031 29.551 17.6946 29.9782 18.1736 30.2467C18.8402 30.6221 18.3354 29.907 18.5231 29.8099C18.6849 29.6222 18.5651 29.2921 18.8467 29.1659Z" fill="#7B6D5D"/>
<path d="M16.2001 2.97584C15.7795 3.92077 15.362 3.66512 14.9413 2.97584C15.362 2.40305 15.7827 2.80756 16.2001 2.97584Z" fill="#737271"/>
<path d="M6.52336 30.8158C6.5266 30.7025 6.52983 30.5893 6.52983 30.476C6.80166 30.2171 7.02819 30.3207 7.245 30.5569C7.62039 31.0811 8.29349 31.3465 8.52325 31.9937C8.58797 32.1167 8.49089 32.3756 8.61386 32.3756C8.84362 32.3756 8.79184 32.0746 8.91158 31.929C9.47789 31.1782 10.0183 31.7348 10.5717 31.9516C11.2318 32.1814 11.5199 32.751 11.8046 33.3205C11.8337 33.4597 11.8305 33.5988 11.8046 33.738C11.5457 34.6279 12.5392 34.7864 12.7722 35.3916C12.5942 35.9708 11.8564 36.466 12.5166 37.1682C12.4389 37.4044 12.2739 37.5468 12.0311 37.5986C11.2869 37.2167 11.1574 37.7183 11.0053 38.2717C10.7853 39.0645 10.2351 39.482 9.40669 39.5176C8.98601 39.3105 8.53619 40.0904 8.12521 39.482C8.20288 39.0742 7.99901 38.8639 7.62039 38.7733C7.76601 39.0289 8.01195 39.2166 8.12845 39.4917C8.32261 39.8477 8.95365 39.9027 8.8145 40.4852C8.04108 40.5564 7.41004 41.6178 6.51365 40.812C6.50718 40.0709 6.5007 39.3331 6.49423 38.5921C6.48129 37.2556 6.92787 35.8317 5.66256 34.7476C5.4684 34.5793 5.60755 34.2428 5.8632 34.068C6.025 34.6408 6.32919 34.9353 6.51041 34.1425C6.66251 33.4888 6.52336 32.7704 6.51041 32.0811C6.31625 31.6539 6.27742 31.2332 6.52336 30.8158Z" fill="#706556"/>
<path d="M12.0321 37.5959C12.1389 37.4891 12.2456 37.3791 12.3524 37.2723C13.0094 37.1428 13.1776 36.2044 13.9705 36.295L13.9834 36.3176C14.6047 37.0458 13.7116 38.1687 14.6371 38.8159C14.7083 38.955 14.6986 39.091 14.6112 39.2204C14.3944 39.2204 14.1743 39.2172 13.9575 39.2172C13.6048 39.5667 13.0158 39.4405 12.6922 39.8482C12.2974 39.5958 12.1583 39.2042 12.0968 38.7706C12.2424 38.612 12.2521 38.4599 12.0709 38.3175C12.058 38.0748 12.045 37.8354 12.0321 37.5959Z" fill="#6D6254"/>
<path d="M14.6105 39.2165C14.6137 39.1065 14.617 38.9965 14.617 38.8864C14.4422 38.5531 14.6493 38.3557 14.8726 38.1583C15.3289 38.0742 15.7464 37.757 16.2447 37.9318C16.0311 38.6826 16.7884 39.443 16.2253 40.1906C15.6655 40.21 15.1189 40.1737 14.6335 39.8501C14.627 39.6397 14.617 39.4301 14.6105 39.2165Z" fill="#7B6F5F"/>
<path d="M8.14851 39.5334C8.5692 39.6466 8.97694 38.9347 9.40734 39.514C9.06108 40.0511 10.1969 39.9541 9.81185 40.3812C9.64681 40.5657 9.15752 40.4593 8.8145 40.4852C8.58474 40.1745 8.06761 40.0641 8.14851 39.5334Z" fill="#8B7E6B"/>
<path d="M12.6922 39.8482C12.7828 38.9745 13.4624 39.2819 13.9575 39.2172C13.7278 39.8061 13.2391 39.887 12.6922 39.8482Z" fill="#7F7360"/>
<path d="M12.0702 38.3167C12.2417 38.2326 12.4747 37.9769 12.5912 38.239C12.7821 38.663 12.4617 38.7762 12.0961 38.7697C12.0896 38.6176 12.0799 38.4656 12.0702 38.3167Z" fill="#E1DDCE"/>
<path d="M16.2447 37.9353C15.8694 38.2686 15.5231 38.7314 14.9568 38.2266C14.6914 37.8026 14.5264 37.4078 15.2319 37.259C15.7852 37.3593 16.4324 37.0357 16.879 37.6182C16.6687 37.725 16.4583 37.8285 16.2447 37.9353Z" fill="#645A4D"/>
<path d="M6.52336 30.8158C6.52012 31.2365 6.517 31.6562 6.51052 32.0769C6.17397 31.6853 5.87712 31.2873 6.23956 30.7533C6.3334 30.776 6.42628 30.7996 6.52336 30.8158Z" fill="#C2C0B9"/>
<path d="M4.92559 29.4847C4.59552 28.31 5.58252 27.0026 4.56316 25.8991C4.79292 25.7017 5.02202 25.5051 5.25178 25.3077C5.76955 25.2882 6.28732 25.2688 6.80186 25.2526C6.80186 25.806 6.80186 26.3594 6.80186 26.9128C6.2938 27.9418 7.50732 29.1295 6.50738 30.1132C6.41353 30.1132 6.31968 30.1035 6.22907 30.0776C6.00578 29.6731 5.7469 29.3269 5.2 29.5404C5.10939 29.5372 5.0162 29.5171 4.92559 29.4847Z" fill="#A9A194"/>
<path d="M6.51397 30.114C6.69842 29.0558 6.2745 27.9394 6.80845 26.9135L6.92171 26.9362C6.99614 27.0074 7.01879 27.0721 6.98643 27.1303C6.95407 27.1886 6.92495 27.2177 6.89906 27.2177C6.64664 28.1012 7.58187 28.6222 7.59158 29.4635C7.59482 29.6739 7.91842 29.2111 8.15465 29.182C8.46208 29.0946 8.60447 29.2823 8.72097 29.5153C8.95396 30.8324 8.38765 31.1884 7.19031 30.7871C7.04145 30.5379 6.80198 30.4797 6.53662 30.4764C6.52367 30.3535 6.52044 30.2337 6.51397 30.114Z" fill="#7E7362"/>
<path d="M5.20356 29.5393C5.57247 29.3516 5.24239 28.4844 5.86695 28.6818C6.5174 28.8857 6.08053 29.6105 6.23262 30.0765C5.8896 29.8985 5.54658 29.7206 5.20356 29.5393Z" fill="#9F9585"/>
<path d="M10.4136 25.651C10.6271 25.7448 10.844 25.8355 11.0575 25.9293C11.3391 25.9099 11.5268 26.0749 11.708 26.2561C12.6303 26.6962 12.4232 27.6703 12.8083 28.4502C11.8601 28.4049 11.1158 27.1525 10.0738 28.3984C9.64986 28.9097 9.47187 28.023 9.44598 27.5667L9.43628 27.5732C9.65956 27.3629 9.83431 27.104 10.0835 26.9195C10.0414 26.4568 10.1773 26.0426 10.4136 25.651Z" fill="#90826D"/>
<path d="M7.18768 30.7864C7.9611 30.7281 8.70216 30.631 8.49505 29.5405C9.82831 29.191 9.10343 30.398 9.44645 30.7961C9.83155 31.4045 10.7797 30.3883 11.0451 31.3462C11.0257 31.7442 10.6794 31.8672 10.4335 32.0743C10.0031 32.2976 9.47881 31.288 9.09696 32.1714C8.90927 32.2911 8.72481 32.2847 8.55329 32.139C7.86725 31.9157 7.48216 31.398 7.18768 30.7864Z" fill="#63594D"/>
<path d="M12.672 35.3231C11.1963 34.6662 11.0377 34.4008 11.7076 33.7116C11.7723 33.7407 11.8403 33.7698 11.905 33.7989C12.248 34.184 12.6817 34.0934 13.1088 34.0222C13.18 34.0255 13.2545 34.0287 13.3256 34.0319C13.8628 33.7051 14.4008 33.7023 14.9347 34.0453C14.7211 34.3754 14.5068 34.705 14.2932 35.0351C13.7722 35.2455 13.2253 35.3037 12.672 35.3231Z" fill="#827460"/>
<path d="M13.0378 31.3853C13.3905 31.8383 13.7433 32.2914 14.109 32.7638C12.8339 32.958 12.4068 32.5438 11.7143 30.4759C11.8211 30.3756 11.9246 30.3756 12.0314 30.4759C12.3485 30.4759 12.6689 30.4727 12.986 30.4727C13.2579 30.7607 13.2773 31.0649 13.0378 31.3853Z" fill="#5E5348"/>
<path d="M9.44315 30.7995C8.99981 30.7542 8.76681 30.5892 8.96745 30.0908C9.14543 29.6475 8.84124 29.5633 8.49175 29.5439C8.37848 29.4242 8.26522 29.3044 8.14872 29.1847C8.43349 28.5731 8.89302 28.4242 9.37843 28.8773C10.003 29.4565 9.91561 30.1393 9.44315 30.7995Z" fill="#827461"/>
<path d="M10.4294 32.0779C10.3906 31.6313 10.6559 31.4404 11.041 31.3498C11.5652 31.8546 12.316 32.1879 12.3581 33.0649C12.1704 33.2429 12.0733 33.5956 11.6947 33.4047C11.2708 32.9613 10.8501 32.5212 10.4294 32.0779Z" fill="#917F68"/>
<path d="M12.0287 30.476C11.9219 30.476 11.8184 30.476 11.7116 30.476C11.1744 30.4016 10.6825 30.243 10.2003 29.6152C11.0126 29.6411 11.6145 28.8774 12.3167 29.4049C12.8507 29.8062 12.074 30.0974 12.0287 30.476Z" fill="#62574A"/>
<path d="M15.2998 31.424C14.5814 29.6862 16.6137 31.1813 16.5781 30.2396C16.6687 31.026 16.0506 31.1587 15.5943 31.4305C15.494 31.424 15.3969 31.424 15.2998 31.424Z" fill="#AA9A80"/>
<path d="M11.6947 33.4047C11.9147 33.2914 12.1348 33.1781 12.3581 33.0649C12.2481 33.8221 13.5166 33.1977 13.3289 34.0326L13.3224 34.0359C12.7011 34.3368 12.1283 34.4113 11.7076 33.709C11.7044 33.6087 11.6979 33.5082 11.6947 33.4047Z" fill="#827460"/>
<path d="M14.6206 27.8865C14.4944 28.4561 14.4491 29.0904 13.6628 29.1615C13.5819 28.6956 13.7599 28.291 13.9767 27.9027C14.1903 27.8962 14.4071 27.893 14.6206 27.8865Z" fill="#98896F"/>
<path d="M11.7084 26.2591C11.4366 26.2624 11.1971 26.1976 11.058 25.9323C11.0741 25.6993 11.0871 25.4663 11.1033 25.2333C11.3136 25.0391 11.4398 24.7544 11.7408 24.654C11.8443 24.654 11.9479 24.654 12.0547 24.654C12.155 24.7802 12.1809 24.9226 12.1388 25.078C11.9932 25.4695 11.8508 25.8643 11.7084 26.2591Z" fill="#736759"/>
<path d="M6.89626 27.2172C6.88331 27.1201 6.89302 27.0262 6.91891 26.9356C7.0257 26.9097 7.12925 26.8871 7.23605 26.8612C7.46257 26.7318 7.66321 26.7253 7.80236 26.9906C7.9318 27.1427 8.06448 27.2948 8.19392 27.4437C7.69233 27.7479 7.30077 27.4405 6.89626 27.2172Z" fill="#5A4E44"/>
<path d="M13.0378 31.3853C13.0184 31.0811 13.0027 30.777 12.9833 30.4728C13.3166 30.4469 13.6273 30.476 13.6435 30.9032C13.6564 31.3077 13.4035 31.4306 13.0378 31.3853Z" fill="#BBB09E"/>
<path d="M12.1358 25.0714C12.1067 24.9291 12.0808 24.7899 12.0517 24.6475C12.0646 24.4469 12.0775 24.243 12.0937 24.0424C12.4335 24.3757 13.1099 24.6896 12.1358 25.0714Z" fill="#B9A98F"/>
<path d="M13.3225 26.2453C13.5781 26.2744 13.8273 26.3132 13.9503 26.585C13.6234 26.6045 13.4778 27.2776 13.0798 26.8828C12.8985 26.7048 13.0798 26.4038 13.3225 26.2453Z" fill="#8E846F"/>
<path d="M7.79904 26.9893C7.61135 26.9472 7.42042 26.9019 7.23273 26.8599C7.21331 26.5524 7.29744 26.2968 7.65988 26.4133C7.93495 26.5007 8.11941 26.711 7.79904 26.9893Z" fill="#938874"/>
<path d="M10.0867 26.9182C10.1093 27.3744 9.83752 27.5362 9.43948 27.5718C9.51067 27.2353 9.25826 26.8308 9.61747 26.5751C9.66601 26.5395 9.92489 26.7952 10.0867 26.9182Z" fill="#67594C"/>
<path d="M11.7405 24.6511C11.6725 25.0038 11.5916 25.3404 11.103 25.2303C11.0771 25.0394 11.0479 24.8485 11.022 24.6575C11.2583 24.308 11.4978 24.2919 11.7405 24.6511Z" fill="#A89982"/>
<path d="M12.672 35.3231C13.1347 34.7892 13.6493 34.5497 14.2932 35.0351C14.7269 35.595 14.1224 35.8825 13.9703 36.2902C13.4137 36.5879 13.4331 37.8338 12.3523 37.2675C12.4235 36.4132 11.2164 36.7692 11.1646 35.8889C11.7568 35.9698 12.4034 36.0545 12.672 35.3231Z" fill="#61584B"/>
<path d="M15.2354 37.2621C14.8762 37.508 14.9538 37.8802 14.9603 38.2297C14.8471 38.4497 14.7338 38.6698 14.6205 38.8898C13.7565 38.9125 13.0057 38.9222 13.8374 37.7248C14.0736 37.3851 13.9446 36.7934 13.9834 36.3176C14.3976 36.6315 14.8147 36.9449 15.2354 37.2621Z" fill="#8A7C68"/>
<path d="M16.87 29.1907C16.8344 29.4496 16.8053 29.7635 16.4493 29.6923C16.0287 29.6049 15.9251 29.2425 15.9122 28.8574C16.2325 28.9674 16.5529 29.0807 16.87 29.1907Z" fill="#9A8E79"/>
<path d="M18.8467 29.1659C18.8208 29.4216 18.7823 29.6701 18.5234 29.806C18.4102 29.4953 18.3001 29.1847 18.1869 28.874C18.4555 28.8546 18.6946 28.9103 18.8467 29.1659Z" fill="#877E6B"/>
<path d="M8.14877 39.5365C7.48214 39.187 7.05175 38.7145 7.26209 37.8278C7.87694 37.8699 7.92548 39.5688 8.94485 38.4394C8.67949 38.8019 8.41413 39.1676 8.14877 39.5365Z" fill="#8B7E6B"/>
<path d="M7.47886 35.6794C8.07753 36.1518 8.45615 36.6955 8.33318 36.9608C8.2814 37.0741 8.12283 37.2003 8.0031 37.21C7.58564 37.2424 7.52092 36.9188 7.47238 36.6016C7.22644 36.2942 7.27498 35.9868 7.47886 35.6794Z" fill="#5D5346"/>
<path d="M10.5532 37.9623C10.5564 38.396 10.2555 38.6257 9.89953 38.7552C9.66653 38.8393 9.49178 38.6646 9.49178 38.4122C9.49178 37.9656 9.89953 37.7876 10.1681 37.5805C10.3623 37.4284 10.4561 37.7714 10.5532 37.9623Z" fill="#5E554B"/>
<path d="M8.547 32.1421C8.72822 32.1518 8.90944 32.1648 9.09066 32.1745C9.06477 32.634 8.92885 33.0256 8.3949 33.0579C8.2784 33.0644 8.08748 32.9155 8.04217 32.799C7.86419 32.333 8.41755 32.3945 8.547 32.1421Z" fill="#C8B89A"/>
<path d="M9.97336 34.5453C9.89246 34.3674 9.78567 34.2411 9.80832 34.1505C9.84068 34.0276 9.97337 33.9337 10.064 33.8269C10.1416 33.9272 10.297 34.0373 10.2808 34.1214C10.2581 34.2476 10.119 34.3544 9.97336 34.5453Z" fill="#9B917C"/>
<path d="M7.47886 35.6794C7.47886 35.9868 7.47821 36.2942 7.47497 36.6016C6.49768 36.291 6.97726 35.9868 7.47886 35.6794Z" fill="#887B67"/>
<path d="M11.7076 33.7116C12.206 34.0222 12.7562 34.0643 13.3225 34.0384C12.6332 34.6662 11.9956 35.0513 11.7076 33.7116Z" fill="#706051"/>
</svg>
