<svg width="52" height="35" viewBox="0 0 52 35" fill="none" xmlns="http://www.w3.org/2000/svg">
<path d="M27.4192 33.9473C19.3589 33.7502 12.72 33.9121 6.0874 34.2865C5.46388 34.3217 4.83093 34.3217 4.20741 34.2795C1.58766 34.0993 0.258937 33.0422 0.233808 30.7141C0.180408 25.8186 -0.172973 20.9245 0.108163 16.0233C0.213392 14.1794 0.0406267 12.3228 0.00450312 10.4719C-0.00649101 9.93277 0.0029331 9.39367 0.0296331 8.85457C0.150569 6.46312 1.52012 5.27795 4.16186 5.36662C4.90318 5.39196 5.2597 5.28217 5.43561 4.5629C5.68533 3.54664 6.48947 2.94561 7.65328 2.7218C8.22341 2.61201 8.79353 2.58386 9.36522 2.57119C11.0583 2.53037 11.9316 3.12296 12.3195 4.61357C12.4389 5.07666 12.6179 5.18645 13.1441 5.10059C14.1602 4.93591 14.933 4.52631 15.4387 3.69866C15.701 3.26935 16.0889 2.90057 16.3434 2.46844C17.2464 0.939824 18.6694 0.193813 20.5698 0.112174C24.5418 -0.0581414 28.5107 -0.0581414 32.4733 0.278267C33.8225 0.39228 34.8826 1.00316 35.7873 1.85334C36.2365 2.27561 36.6856 2.71336 37.0422 3.19897C37.8872 4.34895 39.1389 4.73322 40.5729 4.8599C42.1906 5.00206 43.813 4.95843 45.4338 4.98236C46.2961 4.99502 47.1536 5.00488 48.0143 5.10763C50.1346 5.36099 51.022 6.24354 51.2152 8.1888C51.6094 12.1835 51.6707 16.1908 51.8953 20.1925C52.0727 23.361 51.9439 26.5125 51.7413 29.6739C51.5764 32.2526 49.9367 33.3251 47.2494 33.5461C40.1786 34.1303 33.0906 34.0078 27.4192 33.9473ZM33.2633 32.596C37.3123 32.6411 41.3519 32.3736 45.3961 32.2765C46.2505 32.2554 47.1065 32.1259 47.9515 31.995C49.1703 31.8064 49.9964 31.0716 50.0891 30.0469C50.232 28.4648 50.3702 26.8785 50.4063 25.2936C50.4644 22.6501 50.2022 20.0124 50.144 17.3732C50.0781 14.3553 49.8346 11.3516 49.6305 8.34363C49.5551 7.24009 49.0933 6.65877 48.1274 6.57432C47.3515 6.50675 46.5804 6.39415 45.7919 6.39415C43.9135 6.39133 42.0351 6.47719 40.1567 6.27591C38.4117 6.08871 36.8427 5.56087 35.8956 4.21101C34.4523 2.15315 32.3712 1.44655 29.7986 1.47611C27.1569 1.50567 24.5151 1.48455 21.8734 1.48174C20.0028 1.48033 18.3333 1.79562 17.5135 3.56775C17.3862 3.84364 17.1381 4.07307 16.9559 4.32925C16.1392 5.48204 15.0759 6.33784 13.5037 6.50957C12.2645 6.6461 11.0175 6.77419 9.77201 6.80797C7.94227 6.85864 6.10625 6.88961 4.27965 6.80516C1.92848 6.69677 1.81068 7.70459 1.6018 9.13327C1.5751 9.31766 1.59394 9.50769 1.59551 9.69489C1.60337 11.2629 1.58766 12.8281 1.73844 14.3948C1.89864 16.0543 1.58452 17.711 1.58609 19.3733C1.5908 22.9795 1.86408 26.5829 1.75571 30.1905C1.75414 30.2609 1.75414 30.3312 1.76199 30.4016C1.91905 31.9668 2.3227 32.4834 3.67183 32.7832C3.99538 32.855 4.34562 32.8649 4.68172 32.8522C8.35533 32.7185 12.0274 32.5017 15.701 32.4524C21.5546 32.375 27.4113 32.3961 33.2633 32.596ZM7.71768 5.42856C8.42758 5.23853 9.23643 5.30047 10.0406 5.27513C10.2934 5.26669 10.7065 5.43278 10.7615 5.08229C10.8039 4.81204 10.7175 4.48549 10.4222 4.26309C9.74374 3.75074 7.6627 3.96187 7.1664 4.61357C7.0219 4.8036 6.85699 5.01895 6.99834 5.26105C7.13498 5.49612 7.41298 5.38211 7.71768 5.42856Z" fill="white"/>
<path d="M7.71768 5.42856C7.41298 5.38211 7.13461 5.49562 6.99639 5.26056C6.85504 5.01987 7.01995 4.8031 7.16445 4.61308C7.66075 3.96137 9.74179 3.75024 10.4203 4.26259C10.7156 4.48499 10.8019 4.81155 10.7595 5.0818C10.7046 5.43228 10.2915 5.26619 10.0386 5.27463C9.23606 5.29997 8.42758 5.23853 7.71768 5.42856Z" fill="white"/>
<path d="M26.8941 29.0884C24.2383 28.835 21.6861 28.5098 19.7432 26.8728C17.7297 25.1767 15.8388 23.2455 15.7885 20.6275C15.7257 17.4027 16.5361 14.3019 19.3396 12.0075C21.0091 10.6408 23.1184 9.96092 25.355 9.64C27.3512 9.35285 29.338 9.22195 31.2918 9.86099C34.0576 10.7661 35.9313 12.5114 37.0449 14.9001C37.626 16.1472 38.1883 17.4618 37.9904 18.8441C37.7092 20.8006 37.6558 22.8289 36.4638 24.5898C34.8696 26.9446 32.3928 28.1565 29.4935 28.7576C28.6108 28.9406 27.6936 28.9912 26.8941 29.0884ZM26.924 27.5499C29.9427 27.4387 32.6645 26.6659 34.6183 24.4279C36.1779 22.6403 36.4009 20.4332 36.3145 18.3486C36.1606 14.634 32.9142 10.3522 27.0528 10.8885C21.6562 11.3812 18.7286 13.4418 17.6842 17.8968C17.3041 19.5169 17.1188 21.1384 18.0816 22.6811C20.0134 25.7735 22.7682 27.6667 26.924 27.5499Z" fill="white"/>
<path d="M40.9305 8.23125C42.4037 8.14539 43.4732 9.24611 43.4999 10.9155C43.5204 12.2583 42.3173 13.1634 40.5959 13.1563C39.0882 13.1507 38.0139 12.1204 38.0186 10.686C38.0217 9.31789 39.3127 8.22844 40.9305 8.23125ZM41.7943 10.7818C41.7801 10.0498 41.4268 9.66416 40.7938 9.69371C40.2488 9.71905 39.6316 10.2807 39.6331 10.7508C39.6347 11.2463 40.1404 11.6925 40.6901 11.684C41.4283 11.6728 41.8053 11.3659 41.7943 10.7818Z" fill="white"/>
<path d="M19.6201 19.0296C19.6311 17.228 20.6598 15.7514 22.1158 14.4649C23.4963 13.2445 25.0575 12.3282 27.0977 12.4816C29.7677 12.6829 31.8362 13.7569 33.1555 15.9274C34.0821 17.4518 34.6742 18.986 34.1041 20.7441C33.2293 23.448 30.0033 25.8789 27.0192 25.7916C22.6247 25.6621 20.074 23.6254 19.6201 19.0296ZM32.6859 19.3295C32.411 16.3271 30.0269 13.8695 26.6297 13.9019C24.1717 13.9244 21.2096 16.8395 21.2158 19.0859C21.2253 21.963 23.845 24.5163 26.826 24.3657C30.297 24.1912 32.7204 21.4211 32.6859 19.3295Z" fill="white"/>
<path d="M32.6853 19.3283C32.7198 21.4199 30.2964 24.19 26.827 24.3646C23.846 24.5152 21.2262 21.9618 21.2168 19.0848C21.209 16.8383 24.1727 13.9232 26.6306 13.9007C30.0263 13.8683 32.4104 16.3245 32.6853 19.3283Z" fill="white"/>
</svg>
