<svg width="27" height="24" viewBox="0 0 27 24" fill="none" xmlns="http://www.w3.org/2000/svg">
<path d="M18.5231 3.98619C18.7538 3.34249 18.5632 2.8221 18.5682 2.30418C18.5707 2.01809 18.4353 1.67034 18.5557 1.45331C19.4059 -0.0757946 20.9184 0.853998 22.1147 0.602436C22.95 0.424863 23.123 1.0439 23.1055 1.76899C23.0653 3.49293 23.118 5.21687 23.0503 6.94081C23.0277 7.54998 23.2158 7.92979 23.6698 8.29974C24.6304 9.08648 25.5484 9.92009 26.494 10.7241C26.9179 11.0842 27.2214 11.5404 26.7925 11.977C26.3636 12.416 25.9497 11.9499 25.6287 11.6638C22.1148 8.51924 18.3049 5.71013 14.8737 2.47189C13.3964 1.07596 13.3914 1.0587 11.9592 2.38557C8.5306 5.56708 4.79596 8.40579 1.42751 11.6514C1.10396 11.9622 0.672556 12.5689 0.196007 12.083C-0.343246 11.533 0.366556 11.1483 0.692616 10.7981C3.52432 7.77195 6.85013 5.27606 9.91259 2.49408C10.6174 1.85531 11.3673 1.2634 12.0571 0.612301C12.9023 -0.184312 13.73 -0.204042 14.5878 0.555576C15.5484 1.40645 16.499 2.26472 17.4621 3.11312C17.7907 3.40168 18.1393 3.6705 18.5231 3.98619Z" fill="#2A2018"/>
<path d="M23.3413 22.1825C23.2435 19.3537 23.0955 16.5248 23.1206 13.6985C23.1331 12.1299 22.9049 11.0053 21.415 9.95956C18.9872 8.25535 16.8577 6.13927 14.623 4.17363C13.7877 3.44115 13.083 3.25124 12.1625 4.12924C10.6701 5.55476 9.02978 6.82737 7.52238 8.23562C6.21563 9.45643 4.29188 10.3665 3.74259 11.9573C3.17324 13.6121 3.61468 15.6024 3.61468 17.4472C3.58709 17.4472 3.55699 17.4472 3.5294 17.4472C3.5294 18.964 3.48175 20.4857 3.54194 22C3.6197 23.9582 3.6824 23.9607 5.63374 23.9928C11.1416 24.084 16.622 23.2775 22.1349 23.4995C23.0704 23.534 23.3714 23.0334 23.3413 22.1825ZM11.4175 22.6881C10.9159 22.6782 10.7479 22.5648 10.8131 22.0691C11.1266 19.6891 10.8482 17.3165 10.6325 14.9489C10.5873 14.463 10.7679 14.3792 11.1617 14.3693C12.3732 14.3348 13.5846 14.3052 14.7935 14.2435C15.393 14.2139 15.4682 14.5148 15.4582 15.0007C15.4331 16.15 15.4506 17.2992 15.4506 18.4485C15.4682 18.4485 15.4858 18.4485 15.5058 18.4485C15.5058 18.5299 15.5033 18.6138 15.5058 18.6952C15.6287 22.7251 15.5811 22.7621 11.4175 22.6881Z" fill="#2A2018"/>
</svg>
