<svg width="29" height="27" viewBox="0 0 29 27" fill="none" xmlns="http://www.w3.org/2000/svg">
<path d="M19.8952 4.48441C20.143 3.76025 19.9383 3.17482 19.9436 2.59217C19.9463 2.27032 19.8009 1.87911 19.9302 1.63495C20.8434 -0.0852678 22.4679 0.960736 23.7529 0.677732C24.65 0.477965 24.8358 1.17438 24.817 1.99009C24.7739 3.9295 24.8305 5.86891 24.7577 7.80832C24.7335 8.49363 24.9355 8.92091 25.4231 9.33709C26.4549 10.2222 27.4409 11.16 28.4565 12.0645C28.9118 12.4696 29.2378 12.9828 28.7771 13.4739C28.3164 13.9678 27.8719 13.4434 27.5271 13.1216C23.7529 9.58402 19.6608 6.42382 15.9755 2.78084C14.3887 1.21045 14.3834 1.19102 12.8451 2.68373C9.16249 6.26289 5.15122 9.4564 1.53325 13.1077C1.18573 13.4573 0.722375 14.1398 0.210526 13.5932C-0.368672 12.9745 0.393709 12.5417 0.743921 12.1477C3.78538 8.74334 7.35755 5.9355 10.6469 2.80581C11.4039 2.0872 12.2093 1.42131 12.9502 0.68883C13.858 -0.207348 14.747 -0.229544 15.6684 0.625016C16.7001 1.58223 17.7211 2.54778 18.7556 3.50222C19.1085 3.82684 19.483 4.12927 19.8952 4.48441Z" fill="#FF8C66"/>
<path d="M25.0704 24.9553C24.9653 21.7729 24.8064 18.5905 24.8333 15.4109C24.8468 13.6463 24.6016 12.3811 23.0014 11.2047C20.3937 9.28749 18.1065 6.90693 15.7062 4.69561C14.8091 3.87157 14.0521 3.65793 13.0635 4.64567C11.4606 6.24936 9.69873 7.68103 8.07967 9.26529C6.67613 10.6387 4.60987 11.6625 4.0199 13.4521C3.40837 15.3138 3.88251 17.5529 3.88251 19.6282C3.85288 19.6282 3.82055 19.6282 3.79091 19.6282C3.79091 21.3346 3.73973 23.0465 3.80439 24.75C3.8879 26.953 3.95525 26.9558 6.05113 26.9919C11.967 27.0945 17.8533 26.1872 23.7746 26.437C24.7794 26.4758 25.1027 25.9126 25.0704 24.9553ZM12.2634 25.5241C11.7246 25.513 11.5441 25.3854 11.6141 24.8277C11.9509 22.1503 11.6518 19.4812 11.4202 16.8176C11.3717 16.271 11.5656 16.1767 11.9886 16.1656C13.2898 16.1267 14.5909 16.0934 15.8894 16.0241C16.5333 15.9908 16.6141 16.3293 16.6033 16.8759C16.5764 18.1688 16.5952 19.4617 16.5952 20.7547C16.6141 20.7547 16.6329 20.7547 16.6545 20.7547C16.6545 20.8462 16.6518 20.9406 16.6545 21.0321C16.7865 25.5657 16.7353 25.6074 12.2634 25.5241Z" fill="#FF8C66"/>
</svg>
