<svg width="28" height="25" viewBox="0 0 28 25" fill="none" xmlns="http://www.w3.org/2000/svg">
<path d="M24.0157 22.5452C23.9741 19.344 23.878 16.1453 23.7792 12.9467C23.761 12.3465 24.0053 11.3643 23.1946 11.3591C22.6281 11.3565 22.7529 12.3595 22.7555 12.9389C22.7581 16.0544 22.7529 19.1673 22.8308 22.2801C22.8542 23.1636 22.584 23.4052 21.7421 23.3689C20.4897 23.3117 19.232 23.3169 17.9796 23.3819C17.2209 23.4208 17.052 23.1636 17.0468 22.436C17.0286 20.0585 16.9013 17.681 16.8597 15.3035C16.8415 14.3109 16.3478 13.851 15.4228 13.8899C14.0015 13.9497 12.5828 14.1342 11.1615 14.1784C10.2078 14.2069 10.0182 14.6954 10.0363 15.5113C10.0909 17.9746 9.93241 20.4457 10.239 22.896C10.3352 23.6573 9.98698 23.808 9.39974 23.8288C8.23307 23.8703 7.0534 23.8132 5.89971 23.9587C4.7876 24.099 4.64469 23.6495 4.64989 22.6777C4.66808 19.5648 4.58753 16.4494 4.52516 13.3365C4.51477 12.77 4.57713 12.1516 4.07824 11.6423C3.69368 11.9334 3.70667 12.2893 3.69368 12.6115C3.52998 16.1557 3.43644 19.7025 3.68848 23.2467C3.81061 24.9721 3.8288 24.9617 5.62429 24.9929C11.1199 25.0812 16.5895 24.3537 22.0903 24.481C23.8442 24.5225 24.0391 24.3069 24.0157 22.5452ZM15.1266 23.465C14.0509 23.4676 12.9725 23.5533 11.8994 23.6625C11.1796 23.7352 10.9874 23.4494 11.1017 22.7868C11.4966 20.5028 11.1718 18.2266 10.9666 15.9557C10.9042 15.2671 11.0445 15.0176 11.7539 15.067C12.3957 15.1138 13.0479 15.0748 13.6923 15.0462C15.771 14.9527 15.7736 14.9475 15.8152 17.0963C15.8282 17.7849 15.8178 18.4735 15.8178 19.1621C15.8645 19.1621 15.9087 19.1621 15.9555 19.1621C15.9555 20.282 15.9269 21.4045 15.9659 22.5244C15.9893 23.1662 15.8411 23.465 15.1266 23.465Z" fill="#B0A090"/>
<path d="M27.1286 11.162C26.1386 10.2604 25.133 9.37694 24.1274 8.49089C23.8338 8.23365 23.6155 8.02837 23.6649 7.52948C23.7792 6.3732 23.774 5.20133 23.7818 4.03465C23.8026 0.415093 23.7974 0.430683 20.1311 0.724301C19.375 0.784064 19.0346 1.05949 19.0736 1.83641C19.1125 2.58994 19.0813 3.34867 19.0813 4.34646C17.9952 3.34867 17.0676 2.47562 16.1192 1.62594C13.6923 -0.543713 13.6871 -0.538516 11.3278 1.62075C11.1355 1.79484 10.9328 1.95594 10.7405 2.13003C7.36782 5.22471 3.73786 8.03617 0.593811 11.3803C0.292398 11.6999 -0.268852 12.0819 0.149489 12.5652C0.624994 13.116 0.988769 12.4924 1.30317 12.2118C5.10202 8.81309 8.91385 5.43258 12.6503 1.96893C13.487 1.19461 13.908 1.09327 14.755 1.96373C18.3434 5.65345 22.545 8.65458 26.3412 12.1156C26.7024 12.443 27.1546 12.8588 27.5651 12.4197C28.0614 11.8974 27.4949 11.4972 27.1286 11.162ZM22.7191 7.30602C21.7629 6.54989 21.0613 6.00423 20.3702 5.44298C20.1467 5.26109 19.7725 1.96633 19.9908 1.8598C20.7573 1.47524 21.5914 1.72468 22.3865 1.76626C22.9581 1.79744 22.7087 2.37168 22.7139 2.71467C22.7295 4.12559 22.7191 5.53652 22.7191 7.30602Z" fill="#B0A090"/>
</svg>
