<svg width="55" height="49" viewBox="0 0 55 49" fill="none" xmlns="http://www.w3.org/2000/svg">
<path d="M38.3883 12.2006C38.5875 11.9808 38.8463 11.9785 39.1096 11.997C41.942 12.0294 44.4951 13.1745 47.0917 14.1022C47.7947 14.3544 48.587 14.4446 49.1846 14.9697C49.3655 15.1155 48.99 15.3098 49.1594 15.3584C50.2677 15.6684 49.828 16.2606 49.4571 16.8552C48.3946 17.968 46.9269 18.3913 45.6286 19.083C44.0921 19.8974 42.6679 20.9569 40.9574 21.4242C39.8377 21.6602 38.7638 21.2206 37.6624 21.2021C36.3321 21.0726 35.1895 20.3531 33.9347 19.9922C33.605 19.6915 33.4699 19.0344 32.7967 19.3676C32.0685 19.3468 31.3862 19.1964 30.8366 18.6689C30.8389 18.0165 30.2642 18.2294 29.9413 18.0767C29.275 17.7667 28.4095 17.9888 27.8828 17.2947C28.382 16.4249 29.3277 16.2884 30.1268 15.9321C32.8035 14.743 35.4528 13.4845 38.2005 12.4597C38.3059 12.418 38.3814 12.3301 38.3883 12.2006Z" fill="#FEEC99"/>
<path d="M49.1892 15.2265C47.2451 14.167 45.1088 13.6349 43.0388 12.9177C41.7566 12.4735 40.417 12.3139 39.1096 11.997C39.682 11.6777 40.3026 11.7101 40.8864 11.8697C43.996 12.7234 47.0643 13.7066 50.0226 15.0137C50.8996 15.4 51.4973 16.0385 51.5934 16.9732C51.7308 18.3381 51.8155 19.7192 51.5179 21.0841C51.2637 20.7834 51.3324 20.4665 51.369 20.3624C51.3095 21.3687 51.6621 22.5879 51.5133 23.814C51.4973 23.9343 51.4629 24.0477 51.4148 24.1587C51.3644 24.2651 51.2912 24.3577 51.2042 24.4363C50.3569 25.0702 49.4479 25.6092 48.5274 26.1298C46.3544 27.5433 43.8677 28.3761 41.7405 29.8868C41.1933 30.2754 40.5224 30.7867 39.7805 30.1389C39.9934 29.6739 39.492 29.2413 39.7209 28.774C40.1308 27.6589 39.8194 26.5045 39.911 25.3733C39.9568 24.8088 39.8492 24.2374 39.911 23.9412C39.8789 25.2252 39.9431 26.7752 39.8835 28.3252C39.8057 28.464 39.6935 28.5057 39.5469 28.4548C39.3363 28.2419 39.279 27.9712 39.2584 27.6867C39.2057 26.3195 39.2172 24.9499 39.2424 23.5827C39.2264 22.9835 39.5538 22.5462 39.9202 22.1275C40.0255 21.9239 40.1446 21.7319 40.3598 21.6255C41.3169 21.5677 42.0542 20.9685 42.8327 20.5197C44.8432 19.3606 47.0047 18.4862 48.9625 17.23C49.251 17.0449 49.567 16.9038 49.7685 16.6077C50.1303 16.3856 50.4463 16.1565 49.931 15.7563C49.6929 15.5666 49.3769 15.4856 49.1892 15.2265Z" fill="#FDE076"/>
<path d="M51.25 24.2721C51.2477 24.1911 51.2454 24.1078 51.2431 24.0268C51.4125 23.8718 51.3301 23.6174 51.4675 23.4508C52.5643 23.1431 53.068 23.4115 52.9146 24.2258C53.0909 23.7006 53.0909 23.7006 52.9352 23.5665C52.6971 23.3606 52.3628 23.3721 52.1132 23.1963C51.827 22.995 51.5247 22.7498 51.614 22.3704C51.74 21.8383 52.1659 21.9748 52.5391 22.065C53.0978 22.2524 53.6038 22.5925 54.2038 22.655C54.6342 22.81 54.7464 23.2056 54.893 23.5757C54.7739 24.043 54.7762 24.5497 54.3091 24.8782C53.9519 25.128 54.8037 25.3108 54.3732 25.6856C53.9473 26.058 53.6222 26.5554 53.1299 26.8585C49.7021 28.973 46.2468 31.0412 42.7114 32.9729C41.6215 33.5675 40.5636 34.1134 39.2813 33.9584C37.2915 33.5605 35.5009 32.6051 33.637 31.8671C30.8526 30.7636 28.0889 29.5976 25.3572 28.3668C24.6107 28.0314 23.7681 27.7792 23.3903 26.9117C23.3536 26.6642 23.3811 26.4421 23.6215 26.3033C24.0245 26.2894 24.352 26.5415 24.7275 26.6225C25.7304 26.8492 26.5616 27.5248 27.5737 27.7353C27.679 27.77 27.7798 27.8139 27.8805 27.8602C31.5533 29.6277 35.4185 30.9163 39.1439 32.5495C38.6585 32.42 38.1525 32.3367 37.7311 32.0059C37.6716 31.911 37.651 31.8069 37.667 31.6959C38.1547 31.2494 38.7707 31.143 39.366 31.2332C40.3575 31.3836 40.9712 31.018 41.3032 30.0904C41.6306 29.8683 41.9352 29.6045 42.3519 29.5652C43.1144 29.6207 43.8196 29.8243 44.4173 30.331C44.0189 31.1268 43.19 31.3165 42.5259 31.7422C45.7385 29.7989 48.99 27.9227 52.2552 26.1136C52.0995 26.2917 51.8797 26.3009 51.6484 26.2593C50.5264 25.4889 50.5195 25.4542 51.25 24.2721Z" fill="#CFD8D8"/>
<path d="M39.3408 33.7317C41.4932 33.9492 43.0434 32.5357 44.7356 31.601C47.3871 30.1366 49.9448 28.4941 52.562 26.9603C53.2718 26.5439 53.7916 25.9586 54.3251 25.3756C54.1374 25.0471 53.8992 25.4889 53.6611 25.2321C54.0733 24.6954 54.6571 24.2559 54.8953 23.5734C55.2273 25.0841 54.7877 26.0627 53.3199 27.0135C49.6151 29.4148 45.766 31.5686 41.8962 33.6831C40.9689 34.1898 39.9133 34.4651 38.8371 33.9908C38.9493 33.7919 39.2172 33.9098 39.3408 33.7317Z" fill="#B8C4C7"/>
<path d="M38.3883 12.2006C39.002 12.3579 38.5761 12.5106 38.37 12.5938C36.9664 13.1768 35.5078 13.6465 34.1614 14.3405C32.1006 15.4 29.8429 16.0247 27.8966 17.3179C27.8988 17.3827 27.9011 17.4474 27.9057 17.5145C27.2234 19.5897 27.663 21.7365 27.5164 23.8464C27.4111 24.5219 27.6653 25.1604 27.7202 25.8198C27.6493 25.9308 27.5508 25.9979 27.4226 26.028C26.9555 26.0673 26.7425 25.7642 26.5754 25.3941C26.4861 25.1489 26.4517 24.8944 26.4403 24.6376C26.4998 23.814 26.2846 22.9812 26.5204 22.1645C26.6028 21.024 26.6418 19.8765 26.7791 18.7406C26.8936 17.7875 27.3195 17.0171 28.2492 16.5706C31.5716 14.9744 34.933 13.4799 38.3883 12.2006Z" fill="#FBDC72"/>
<path d="M39.3408 33.7317C39.2355 33.9422 39.034 33.9654 38.8348 33.9885C37.2068 33.7225 35.7413 32.9752 34.2392 32.3506C30.942 30.9787 27.6676 29.5536 24.3886 28.1378C23.7887 27.8787 23.2254 27.5502 23.0674 26.8215C22.9667 26.6433 22.9117 26.4143 23.1361 26.3565C23.4521 26.2732 23.3834 26.6618 23.5368 26.7983C24.1986 27.8579 25.3641 28.1147 26.3853 28.5681C30.4313 30.3726 34.5392 32.029 38.6722 33.623C38.8783 33.7016 39.1164 33.697 39.3408 33.7317Z" fill="#B9C4C6"/>
<path d="M23.5368 26.7983C23.3834 26.8654 23.1888 26.065 23.0697 26.8215C22.4812 25.5537 22.7033 24.508 23.8024 23.7839C24.6817 23.2033 25.6136 22.7012 26.5227 22.1645C26.8936 22.9858 26.7036 23.8487 26.7013 24.6977C26.1678 24.6075 25.6457 25.0077 25.1076 24.7278C24.9954 24.2744 25.4946 24.1217 25.6526 23.7446C23.7818 24.1078 23.3422 24.7371 23.862 26.2061C23.8322 26.2501 23.8024 26.294 23.7704 26.338C23.5826 26.4351 23.5437 26.6086 23.5368 26.7983Z" fill="#C3CECD"/>
<path d="M52.6124 22.183C52.3376 22.2339 51.9323 22.0095 51.8224 22.3982C51.7262 22.7383 52.0903 22.9025 52.3353 23.0668C53.6817 23.9644 53.684 23.9621 52.3674 24.9059C52.2643 24.3739 53.1573 24.2212 52.8688 23.8094C52.5918 23.4161 52.0308 23.3837 51.5362 23.5526C51.2866 22.8239 51.0988 22.0997 51.7102 21.4427C52.0125 21.6093 52.3147 21.7759 52.6147 21.9424C52.6719 21.998 52.6902 22.0512 52.6696 22.1044C52.6513 22.1576 52.633 22.183 52.6124 22.183Z" fill="#BBC4C3"/>
<path d="M51.7125 21.4427C51.3553 22.1206 51.5156 22.8424 51.5362 23.5526C51.4377 23.7099 51.3416 23.8672 51.2431 24.0245C51.2431 22.7174 51.2431 21.408 51.2431 20.1009C51.298 20.0986 51.353 20.0963 51.4102 20.094C51.4469 20.4225 51.4812 20.751 51.5179 21.0795C51.582 21.2021 51.6461 21.3224 51.7125 21.4427Z" fill="#F1CF73"/>
<path d="M52.6124 22.183C52.6147 22.1021 52.6147 22.0211 52.617 21.9424C53.2169 22.0165 53.7412 22.2594 54.2038 22.6503C53.5649 22.8701 53.0818 22.5555 52.6124 22.183Z" fill="#B9C5C5"/>
<path d="M49.8715 16.6192C49.3586 17.4891 48.4473 17.9633 47.6367 18.2988C45.6331 19.1293 43.8242 20.2976 41.9191 21.2947C41.4635 21.533 41.0467 21.8707 40.4834 21.7041C40.4239 21.334 40.5544 21.1582 40.9437 21.2461C43.7853 19.7308 46.7048 18.3659 49.4388 16.6447C49.5716 16.4874 49.7181 16.5035 49.8715 16.6192Z" fill="#F9D562"/>
<path d="M33.8362 19.8465C35.2513 19.8488 36.3847 20.825 37.7495 21.0055C38.3929 21.0587 39.034 21.1142 39.3958 21.7782C39.2836 22.1183 39.002 22.1206 38.7432 22.0604C37.1175 21.681 35.5284 21.1883 34.0446 20.3947C33.9072 20.3207 33.8431 20.1703 33.7973 20.0223C33.811 19.9644 33.8225 19.9043 33.8362 19.8465Z" fill="#FBD969"/>
<path d="M30.8527 18.4908C31.5007 18.8609 32.1876 19.0992 32.9341 19.1617C33.3371 19.0946 33.4722 19.319 33.4859 19.6776C32.8631 20.3762 32.2975 19.6984 31.7044 19.6082C30.8756 19.3306 30.0077 19.1594 29.22 18.7777C28.8949 18.6203 28.169 18.5093 28.8033 17.8523C29.5566 17.8338 30.2504 18.0096 30.8527 18.4908Z" fill="#FBDB6B"/>
<path d="M39.3179 21.7203C38.7959 21.4821 38.2715 21.2415 37.7495 21.0032C37.8021 20.9523 37.8685 20.8482 37.9052 20.8597C38.9012 21.1281 39.927 21.1536 40.9437 21.2461C40.7903 21.3988 40.6369 21.5515 40.4834 21.7041C40.298 21.7967 40.2522 21.9679 40.243 22.1553C39.5263 22.8933 39.5401 22.0512 39.3179 21.7203Z" fill="#FDF6C8"/>
<path d="M30.8527 18.4908C30.1772 18.3173 29.5017 18.1438 28.8262 17.9726C28.3843 17.9425 27.4798 18.5856 27.8897 17.3156L27.8943 17.3202C28.8651 17.5492 29.8383 17.7621 30.8 18.0212C31.0381 18.0813 31.5373 18.2594 30.8527 18.4908Z" fill="#FDF6C8"/>
<path d="M49.8715 16.6192C49.7273 16.6285 49.5807 16.6377 49.4365 16.647C49.7227 16.0594 49.5967 15.6707 48.9579 15.4093C48.8068 15.3468 49.0884 15.2728 49.1892 15.2288C49.496 15.3445 49.8189 15.4347 50.1074 15.5874C50.3089 15.6938 50.7989 15.6985 50.634 15.9691C50.492 16.2028 50.5081 16.8945 49.8715 16.6192Z" fill="#FEF0AC"/>
<path d="M44.8821 17.0403C45.2645 16.7904 45.6492 16.5429 46.0316 16.293C45.8782 16.8668 45.5942 17.2624 45.0699 17.3109C45.008 17.2207 44.9462 17.1305 44.8821 17.0403Z" fill="#FDF1B4"/>
<path d="M33.4058 19.6174C33.2478 19.4647 33.0898 19.3121 32.9318 19.1617C33.811 18.6134 33.8683 19.1686 33.8339 19.8465V19.8488C33.5844 19.976 33.4951 19.7956 33.4058 19.6174Z" fill="#FDF3BF"/>
<path d="M44.3669 18.47C44.4997 18.3242 44.5753 18.1877 44.6875 18.1299C44.8317 18.0559 45.008 18.1021 44.96 18.3103C44.9325 18.4306 44.7974 18.544 44.6829 18.618C44.6394 18.6458 44.5203 18.5463 44.3669 18.47Z" fill="#FDF3BB"/>
<path d="M33.4058 19.6174C33.5477 19.6961 33.692 19.7724 33.8339 19.8511C35.5032 20.95 37.3213 21.6 39.3179 21.7227C39.65 21.8152 39.666 22.5902 40.2407 22.1576C40.298 22.7128 39.3271 22.6665 39.5652 23.3282C39.3821 23.5341 39.0661 23.578 38.9127 23.7839C38.283 24.6422 37.7357 24.4178 37.1518 23.659C37.5365 24.2744 37.6876 24.818 37.1816 25.4126C36.4397 26.2871 35.3956 26.5739 34.672 26.9927C34.2507 26.9557 34.4293 27.1754 34.3835 27.0297C34.3675 26.9765 34.3995 26.9464 34.4728 26.9626C34.6216 26.995 34.7705 27.0297 34.9216 27.0436C35.3956 27.0875 36.0069 26.9395 36.0756 27.6636C36.1375 28.309 35.8764 28.7948 35.1528 28.8735C33.8889 28.6676 32.7394 28.1124 31.5487 27.6867C30.2894 27.0019 28.8216 26.7729 27.663 25.8683C27.1638 25.3386 27.1638 24.6862 27.2119 24.0199C27.3516 23.8371 27.4867 23.6127 27.7294 23.895C27.8027 23.9806 27.7889 24.1147 27.8462 24.2165C27.3081 23.2565 28.4095 23.4253 28.6934 23.0575C29.3185 22.2501 29.6803 21.3109 29.994 20.4086C30.3512 19.3791 30.9191 19.2519 31.7823 19.393C32.3341 19.3815 32.8035 20.0015 33.4058 19.6174Z" fill="#FEEA93"/>
<path d="M35.2101 28.6514C35.7894 28.5427 35.9268 28.0962 35.8673 27.6196C35.7963 27.0551 35.3292 27.4299 35.0498 27.3466C34.7018 27.2425 34.372 27.0783 34.0331 26.8724C34.775 26.8562 35.4253 26.7775 35.5971 25.8845C35.6268 25.7318 35.9131 25.4751 36.0001 25.6023C36.7076 26.6271 36.6458 25.4727 36.8725 25.283C37.3098 24.9129 37.5617 24.5242 36.9114 24.0361C36.7191 23.8927 36.7717 23.4138 36.7145 23.1015C36.8541 23.0506 36.9549 22.9858 36.9824 23.0089C37.841 23.7539 37.8365 23.7492 39.002 23.3513C39.1737 23.2935 39.3775 23.3328 39.5675 23.3259C39.5675 24.7903 39.5675 26.257 39.5652 27.7214C39.366 27.9157 38.6196 27.9018 39.3225 28.4362C39.6385 28.6768 39.6385 29.1627 39.3683 29.3107C38.9539 29.5374 39.2973 29.94 39.0363 30.1459C38.5761 30.398 38.1341 30.1713 37.6876 30.0973C37.1014 29.9539 36.5633 29.6832 36.0138 29.4495C35.6612 29.3015 35.1872 29.2112 35.2101 28.6514Z" fill="#FEE98E"/>
<path d="M44.3738 30.4883C43.6685 30.2569 43.0342 29.8174 42.2672 29.7827C42.9678 28.7648 44.1723 28.538 45.134 27.9365C46.1232 27.3189 47.1925 26.8307 48.1656 26.1806C49.2235 25.6786 50.2516 25.1257 51.0805 24.2674C51.1378 24.2698 51.195 24.2698 51.2523 24.2721C51.2752 24.9175 50.7416 25.7018 51.7102 26.1066C51.3851 27.0991 50.3501 27.2749 49.6448 27.6867C48.0786 28.6028 46.4895 29.4958 44.905 30.3888C44.7424 30.4767 44.573 30.5924 44.3738 30.4883Z" fill="#C9D4D4"/>
<path d="M48.2664 26.3241C46.2674 27.4762 44.2661 28.6283 42.2649 29.7804C41.9237 29.8359 41.6306 29.9863 41.3925 30.2384C40.875 30.7173 40.3003 31.0435 39.5607 30.9116C39.2035 30.789 39.2286 30.5322 39.3317 30.25C39.3752 30.1528 39.437 30.0695 39.5126 29.9955C39.611 29.9469 39.7049 29.9585 39.7919 30.0302C40.9162 30.4651 41.6604 29.63 42.4366 29.1233C44.3669 27.8579 46.5468 27.0806 48.4999 25.8706C48.6419 26.1367 48.3992 26.2015 48.2664 26.3241Z" fill="#F4D469"/>
<path d="M39.1119 30.0325C39.1256 29.8081 38.1112 29.7873 38.9882 29.394C39.2722 29.2668 39.4233 29.0146 39.2996 28.7486C39.0958 28.3021 38.8096 29.0215 38.489 28.6537C38.8256 28.3345 38.2532 27.0806 39.563 27.726C39.5652 27.9551 39.5675 28.1864 39.5698 28.4154C39.8583 28.9545 39.7072 29.4912 39.563 30.0302L39.5675 30.0395C39.4141 30.1736 39.263 30.1574 39.1119 30.0325Z" fill="#FEEC9C"/>
<path d="M49.3746 20.9083C49.7158 21.0379 49.9631 20.3207 50.2425 20.7903C50.4325 21.1096 50.0799 21.2924 49.8097 21.2276C49.4136 21.1327 48.8617 21.8129 48.6648 21.0957C48.5847 20.8065 48.5549 20.0801 49.0495 20.0362C49.6013 19.9876 49.2556 20.6238 49.3746 20.9083Z" fill="#FDE383"/>
<path d="M39.7919 28.4201C39.7919 26.7474 39.7919 25.0725 39.7919 23.3999C39.8789 25.3015 40.314 27.2101 39.8011 29.1048C39.6385 28.8781 39.6408 28.6491 39.7919 28.4201Z" fill="#F7D158"/>
<path d="M42.5442 27.187C42.9885 26.4143 43.5975 25.9794 43.8082 25.2576C43.8838 25.0008 44.2043 24.8227 44.4425 25.0771C44.6577 25.3062 44.3875 25.4774 44.2135 25.6069C43.6296 26.0349 43.6067 27.0227 42.5442 27.187Z" fill="#FCE487"/>
<path d="M48.2664 26.3241C48.3442 26.1737 48.4221 26.021 48.4999 25.8706C49.3586 25.3362 50.2173 24.8018 51.0782 24.2651C50.4692 25.4103 49.2991 25.7735 48.2664 26.3241Z" fill="#EFD173"/>
<path d="M46.4346 21.0101C46.1277 21.8846 45.3378 21.7712 44.9508 22.2039C45.1683 21.5445 45.7133 21.3247 46.4346 21.0101Z" fill="#FEEB99"/>
<path d="M39.7919 28.4201C39.7942 28.6491 39.7988 28.8758 39.8011 29.1048C40.1949 29.4171 40.3575 29.7295 39.7919 30.0325H39.6774L39.563 30.0279C39.5652 29.4889 39.5675 28.9521 39.5698 28.4131C39.6454 28.4154 39.7187 28.4177 39.7919 28.4201Z" fill="#FEE98E"/>
<path d="M51.3576 19.7169C51.4018 19.7169 51.4377 19.2115 51.4377 18.588C51.4377 17.9644 51.4018 17.459 51.3576 17.459C51.3133 17.459 51.2774 17.9644 51.2774 18.588C51.2774 19.2115 51.3133 19.7169 51.3576 19.7169Z" fill="#F1CF73"/>
<path d="M41.0009 29.2506C40.9414 28.7925 41.0444 28.5774 41.3375 28.508C41.3902 28.4964 41.5413 28.6236 41.5367 28.6815C41.5161 28.9707 41.2963 29.091 41.0009 29.2506Z" fill="#FEE98E"/>
<path d="M25.1374 24.7186C25.6594 24.7972 26.1655 23.8626 26.699 24.6954C26.7242 24.9221 26.7494 25.1465 26.7746 25.3733C26.8547 25.7504 27.0035 26.0488 27.3905 26.2292C27.7111 26.3773 28.0866 26.5254 28.169 26.958C28.1484 26.988 28.1324 27.0227 28.1049 27.0482C27.9927 27.1546 27.8622 27.1592 27.7225 27.1222C27.8691 27.2101 27.9973 27.2009 28.1026 27.0551C28.1461 26.995 28.2011 26.9487 28.2698 26.9163C28.9727 27.187 29.6597 27.5641 30.4519 27.2657C30.8572 27.2749 31.1938 27.5016 31.5625 27.6265C33.4241 28.309 35.2605 29.0539 37.0992 29.7966C37.4701 30.1736 38.4707 30.3263 37.5754 31.173C37.5159 31.2286 37.8502 31.4298 37.7403 31.6566C37.7403 31.726 37.7403 31.7954 37.7403 31.8648C35.6795 31.5154 33.866 30.4698 31.9517 29.7179C30.5161 29.1534 29.0666 28.6028 27.6607 27.9527L27.6676 27.9574C26.7265 27.6127 25.8907 27.0343 24.9336 26.7266C24.7962 26.6364 24.6611 26.5485 24.5535 26.4212C24.1665 25.6486 24.3314 25.0702 25.1374 24.7186Z" fill="#CCD8D7"/>
<path d="M44.3738 30.4883C46.7643 28.936 49.3998 27.8001 51.7079 26.1066C52.0926 25.9748 52.4773 25.8429 52.862 25.7087C49.3975 28.1355 45.6904 30.1274 41.8436 32.2974C42.1229 31.5617 42.7091 31.5201 43.1029 31.2563C43.5128 30.981 43.9479 30.7427 44.3738 30.4883Z" fill="#B5C1C3"/>
<path d="M27.6584 27.9504C29.4811 28.3761 31.1412 29.2436 32.8837 29.8868C34.5254 30.4906 36.0436 31.3928 37.7357 31.8648C38.2967 32.191 38.9264 32.3066 39.4966 32.5866C35.4001 31.4507 31.4503 29.9145 27.6584 27.9504Z" fill="#B2BDBE"/>
<path d="M37.7357 31.6542C37.5617 31.3442 37.1747 31.49 36.9366 31.291C36.9892 30.7659 37.4815 30.8515 37.7952 30.6271C37.5411 30.4166 37.2961 30.2153 37.0511 30.014C37.2549 29.8544 37.4815 29.9307 37.7014 29.9446C38.1914 30.3286 38.9539 30.0718 39.3546 30.6664C40.1056 30.8654 40.7101 30.3633 41.3925 30.2384C41.3307 31.1407 40.8544 31.6959 39.9614 31.5293C39.1828 31.3859 38.4776 31.6727 37.7357 31.6542Z" fill="#C7D1CF"/>
<path d="M24.9176 26.5531C25.9136 26.8631 26.8524 27.2842 27.6653 27.9551C26.5364 27.9227 25.6801 27.1662 24.6748 26.8006C24.629 26.5924 24.6794 26.4814 24.9176 26.5531Z" fill="#B2BDBE"/>
<path d="M40.2155 32.4177C40.6575 32.346 41.0788 32.1586 41.6764 31.9781C41.2391 32.7647 40.7101 32.5449 40.2155 32.4177Z" fill="#E1E8E7"/>
<path d="M24.9176 26.5531C24.8374 26.6364 24.7573 26.7197 24.6748 26.803C24.2856 26.8192 23.9398 26.7498 23.7681 26.3356L23.7727 26.331C24.0749 26.0812 24.3772 26.1251 24.6794 26.331C24.7596 26.4027 24.8374 26.4791 24.9176 26.5531Z" fill="#C3CECD"/>
<path d="M31.7823 19.3953C30.7748 19.3444 30.4542 20.0431 30.1497 20.8366C29.7604 21.8545 29.2429 22.8169 28.5079 23.9204C28.3957 23.9783 28.3133 23.4184 27.9904 23.504C27.7157 23.7955 28.2812 24.1934 27.7042 24.5173C27.5256 24.515 27.7981 23.6243 27.2142 24.0199C27.2119 22.4468 27.2256 20.8736 27.1959 19.3005C27.1821 18.5347 27.3607 17.8685 27.892 17.3132C27.6836 18.2895 28.5812 17.6579 28.8285 17.9703C28.556 18.3821 28.927 18.3913 29.1491 18.47C30.0238 18.7846 30.903 19.0877 31.7823 19.3953Z" fill="#FEE98E"/>
<path d="M30.4084 27.4924C29.5131 27.9967 28.8262 27.4623 28.1187 27.0274C27.6561 26.486 26.5754 26.4606 26.7723 25.3733C26.9806 25.5468 27.0539 25.8892 27.402 25.8892C28.2057 26.1806 28.9911 26.5207 29.7765 26.8631C30.0352 26.9742 30.4909 26.988 30.4084 27.4924Z" fill="#C6CFCC"/>
<path d="M30.4084 27.4924C29.4765 26.8238 28.3018 26.6202 27.402 25.8892C27.489 25.8822 27.576 25.8753 27.663 25.8683C29.0254 26.2454 30.3375 26.7474 31.5556 27.4808C31.6129 27.5386 31.6312 27.5965 31.6106 27.6543C31.59 27.7098 31.5693 27.7376 31.5487 27.7376C31.1686 27.6543 30.7885 27.5733 30.4084 27.4924Z" fill="#E9D47D"/>
<path d="M24.6794 26.3287C24.3772 26.3287 24.0749 26.3287 23.7727 26.3287C23.4704 25.748 22.7011 25.2738 23.4613 24.478C24.2215 23.6845 25.3824 23.3004 26.1334 23.6798C26.0212 24.242 25.2954 24.205 25.1351 24.7186C24.8534 25.2183 24.3062 25.6393 24.6794 26.3287Z" fill="#D7E0E0"/>
<path d="M31.5487 27.7376C31.551 27.652 31.5533 27.5664 31.5556 27.4808C32.7738 27.8718 33.9919 28.2604 35.2101 28.6514C35.9451 29.2714 36.8656 29.4819 37.7334 29.8081C37.7884 29.8683 37.8067 29.9307 37.7884 29.9909C37.7701 30.051 37.7495 30.0811 37.7311 30.0811C37.5044 30.0603 37.2778 30.0371 37.0511 30.0163C35.249 29.1765 33.3073 28.6838 31.5487 27.7376Z" fill="#F2D76B"/>
<path d="M33.3096 24.0222C33.1104 24.6283 32.7967 25.1303 32.08 25.1743C32.4898 24.7926 32.8997 24.4086 33.3096 24.0222Z" fill="#FEF1AB"/>
<path d="M33.969 23.9574C34.0858 23.622 34.2346 23.423 34.5277 23.4277C34.5781 23.4277 34.688 23.6012 34.6674 23.6544C34.5621 23.9204 34.3606 24.0407 33.969 23.9574Z" fill="#FDF1B6"/>
<path d="M33.9874 25.3154C33.9232 25.3709 33.8294 25.5098 33.708 25.5445C33.534 25.593 33.4218 25.4496 33.4951 25.29C33.5454 25.1789 33.692 25.0795 33.8156 25.0401C33.9278 25.0054 34.0148 25.1026 33.9874 25.3154Z" fill="#FEF1AF"/>
<path d="M31.8922 23.2125C31.677 22.803 31.9334 22.5902 32.1395 22.2709C32.286 22.6989 32.2723 22.9835 31.8922 23.2125Z" fill="#F4D05C"/>
<path d="M32.4189 22.0165C32.3616 21.9633 32.2609 21.8707 32.1624 21.7782C32.2357 21.7042 32.2998 21.5862 32.3868 21.5607C32.5585 21.5144 32.657 21.6301 32.6753 21.799C32.6868 21.9239 32.641 22.0188 32.4189 22.0165Z" fill="#FDF1B4"/>
<path d="M37.7334 30.0788C37.7334 29.9886 37.7357 29.896 37.7357 29.8058C38.196 29.8729 38.6264 30.1181 39.1119 30.0302C39.263 30.0325 39.4164 30.0325 39.5675 30.0348C39.4966 30.2454 39.4256 30.4559 39.3546 30.6664C38.8027 30.5045 38.1914 30.5091 37.7334 30.0788Z" fill="#FDE076"/>
<path d="M37.248 26.1598C37.4632 26.1992 37.6556 26.2963 37.5777 26.5138C37.4747 26.8053 37.2411 26.9996 36.9091 27.0019C36.7076 27.0019 36.4832 26.877 36.513 26.7012C36.5771 26.3079 36.9663 26.2778 37.248 26.1598Z" fill="#FEEA93"/>
<path d="M28.1187 27.0274C28.0523 27.9921 27.6355 26.9765 27.434 27.1754C27.6286 26.9233 27.892 27.0759 28.1187 27.0274Z" fill="#C6CFCC"/>
<path d="M3.66168 3.40476C3.67084 2.48632 3.68229 1.56789 3.69145 0.649455C4.31885 0.189081 5.05157 0.10117 5.75682 0.258484C6.96125 0.531469 8.17025 0.413484 9.37696 0.452813C10.073 0.39729 10.7531 0.556917 11.4423 0.598559C13.1436 0.785947 14.8655 0.575425 16.56 0.908559C16.9263 0.980276 17.3271 0.862291 17.6637 1.11214C17.9842 1.94035 17.9109 2.78476 17.7598 3.63147C17.2126 4.17744 16.544 4.07565 15.9509 3.83968C14.5885 3.29834 13.2535 3.12946 11.8637 3.70782C11.5179 3.85125 11.1103 3.76797 10.7325 3.80498C9.50976 3.82118 8.28473 3.79341 7.062 3.77259C6.92919 3.77259 6.79867 3.75871 6.66815 3.73558C5.69958 3.32841 4.63941 3.75409 3.66168 3.40476Z" fill="#FDFAF1"/>
<path d="M17.6224 3.69162C17.6247 2.85879 17.6293 2.02595 17.6316 1.19311C17.6545 1.08438 17.7186 1.05199 17.8216 1.09363C17.8881 1.23244 18.0369 1.38513 18.0117 1.50311C17.453 4.21215 19.7244 5.33185 21.0479 6.95819C21.5128 7.52961 21.7738 8.0432 21.7715 8.79275C21.7463 15.0575 21.7578 21.3223 21.7509 27.5894C21.7509 27.9596 21.8631 28.3667 21.5425 28.6814C21.08 28.2071 21.2243 27.601 21.2197 27.0411C21.1853 21.3223 21.2586 15.6035 21.1762 9.88932C20.9312 8.58917 20.9312 8.59148 19.7702 9.17909C18.7261 9.70887 17.6866 10.2433 16.6333 10.7522C16.2303 10.9466 15.825 11.1987 15.3533 10.9304C15.2296 10.7916 15.209 10.6319 15.2571 10.4561C15.3143 10.3589 15.3922 10.2803 15.4907 10.2271C17.1095 9.54924 18.5361 8.492 20.1366 7.77715C20.345 7.68461 20.5396 7.53424 20.3839 7.24275C19.5321 6.40297 18.7513 5.48454 17.6614 4.93162C17.4553 4.76043 17.3935 4.51289 17.3225 4.26998C17.3019 4.17513 17.2996 4.07797 17.3179 3.9808C17.3774 3.842 17.5263 3.79573 17.6224 3.69162Z" fill="#E6DDD1"/>
<path d="M9.84636 39.3162C6.95438 39.2283 4.13108 38.6176 1.28947 38.1387C-0.148504 37.8958 0.31632 36.7391 0.231598 35.8484C0.0552858 35.5222 0.133138 35.1682 0.133138 34.8282C0.128559 26.9694 0.128559 19.1107 0.135428 11.2519C0.135428 10.8887 0.0209392 10.4908 0.304871 10.1299C0.9254 10.5417 0.781144 11.1663 0.783434 11.71C0.801752 15.8719 0.790303 20.0337 0.794883 24.1933C0.794883 24.693 0.755957 25.195 0.888764 25.6878C0.932269 25.9029 0.936849 26.1181 0.913951 26.3332C0.678104 28.2025 0.776565 30.0787 0.854417 31.9526C0.877315 32.0798 0.881894 32.2093 0.872735 32.3389C0.744508 33.0838 0.712451 33.8264 0.936849 34.5621C1.00325 34.8652 1.01241 35.1729 1.02157 35.4805C1.07653 37.3105 1.07881 37.3082 2.92208 37.6158C4.98517 37.9606 7.05284 38.2752 9.13195 38.4996C9.58075 38.5482 10.057 38.5667 10.3387 39.0247C10.357 39.4412 10.1578 39.4782 9.84636 39.3162Z" fill="#E8DDCF"/>
<path d="M9.84636 39.3162C10.0364 39.307 10.2127 39.27 10.3158 39.0802C10.8951 38.562 11.5385 38.9044 12.159 38.9322C13.0291 38.9715 13.8924 39.0895 14.7556 39.1659C15.0075 39.1659 15.1999 39.0178 15.3968 38.8836C15.5044 38.8165 15.6189 38.761 15.738 38.7147C17.1233 37.6297 18.4903 36.5239 19.8344 35.3834C20.5556 34.7703 20.7526 34.0508 20.7503 33.1486C20.7319 27.7583 20.7365 22.368 20.7434 16.9777C20.7434 16.4433 20.6724 15.8904 20.9747 15.4022C21.0846 15.2264 21.2449 15.1269 21.4051 15.3745C21.4303 19.6289 21.4051 23.881 21.4212 28.1331C21.4235 28.5449 21.3021 28.9752 21.5379 29.3684C21.5402 30.5969 21.4189 31.8415 21.5723 33.0514C21.7715 34.6199 21.0044 35.5546 19.9076 36.4152C18.7124 37.3521 17.5354 38.3168 16.3882 39.3139C15.9303 39.7141 15.4128 40.0241 14.861 39.9709C13.1849 39.8113 11.5179 39.5429 9.84636 39.3162Z" fill="#E8DFD2"/>
<path d="M0.691843 25.9006C0.330059 25.5536 0.476604 25.1048 0.476604 24.6976C0.467445 20.3137 0.469735 15.9297 0.469735 11.5434C0.469735 11.1686 0.469735 10.7939 0.469735 10.4168C0.389593 10.4168 0.311741 10.4168 0.231598 10.4168C0.231598 18.8932 0.231598 27.3696 0.231598 35.8461C-0.0981291 35.5338 0.0209392 35.1266 0.0209392 34.7541C0.0140698 26.826 0.0140698 18.8932 0.00720052 10.9628C0.00720052 10.4931 0.0346778 10.0397 0.286553 9.63021C0.737639 9.45671 1.16583 9.33641 1.20704 10.0628C0.957457 11.4393 1.07195 12.8274 1.06508 14.2131C1.04905 17.5607 1.06737 20.9105 1.05363 24.2604C1.05134 24.8272 1.14751 25.431 0.691843 25.9006Z" fill="#F3ECE1"/>
<path d="M3.66168 3.40476C4.66231 3.12946 5.65836 3.20349 6.65213 3.4464C6.89942 3.87901 6.62007 3.97618 6.28347 4.01088C5.7179 4.07103 5.15461 4.0155 4.59362 3.93222C4.48142 3.91603 4.36693 3.92297 4.25473 3.93453C4.31885 4.05946 4.47455 3.96229 4.55469 4.06177C4.63483 4.13812 4.67834 4.22834 4.6875 4.33707C4.56614 5.01028 3.72808 5.44752 4.11277 6.30812C4.2181 6.54178 3.83799 6.59961 3.62275 6.60193C3.20373 6.60655 2.78699 6.58804 2.55114 7.03916C2.29011 7.48566 2.10692 7.97148 1.78636 8.37864C1.58028 8.6123 1.41541 8.87603 1.21849 9.11663C1.04676 9.25775 0.872735 9.38268 0.643758 9.2323C0.62086 9.12357 0.627729 9.01715 0.666656 8.91073C1.49326 6.98364 2.716 5.2717 3.66168 3.40476Z" fill="#5289B8"/>
<path d="M21.5379 29.3708C21.1601 29.0307 21.3136 28.5796 21.3136 28.1747C21.3021 23.8671 21.3044 19.5595 21.3021 15.2542C21.0205 15.002 20.977 14.6573 20.9655 14.3126C20.9243 13.0148 20.9243 11.7146 20.9655 10.4168C20.977 10.0721 21.0296 9.72969 21.3067 9.47521C21.6982 9.85693 21.5242 10.3497 21.5242 10.7892C21.538 16.7533 21.538 22.7173 21.5402 28.6837C21.538 28.9127 21.5379 29.1417 21.5379 29.3708Z" fill="#E0D4C4"/>
<path d="M0.664366 8.91073C0.678104 9.02409 0.694133 9.13745 0.707871 9.25312C1.24597 9.30633 1.77033 9.10044 2.30842 9.16058C3.73724 9.01484 5.1363 9.67185 6.57198 9.30402C6.75059 9.27857 6.9269 9.29014 7.10092 9.35029C7.38027 9.66954 8.07179 9.54693 8.02141 10.2225C7.78098 10.433 7.48331 10.4469 7.18793 10.4769C6.58801 10.5625 5.99725 10.4954 5.41336 10.3543C4.8661 10.1878 4.3074 10.2525 3.74869 10.271C2.89232 10.1716 1.96954 10.544 1.1933 9.9032C0.891053 9.81066 0.588803 9.72044 0.286553 9.6279C0.325479 9.34335 0.437678 9.09812 0.664366 8.91073Z" fill="#5C8DB5"/>
<path d="M9.41588 0.656395C8.13361 0.665649 6.84905 0.730425 5.57593 0.503708C4.93708 0.39035 4.31656 0.573111 3.69145 0.651768C3.925 0.186767 4.35319 -0.033009 4.81573 0.00400596C6.8147 0.159006 8.82741 0.0942299 10.8126 0.427365C10.389 0.755873 9.85323 0.401917 9.41588 0.656395Z" fill="#7B9FBD"/>
<path d="M17.8194 1.09363C17.7507 1.11214 17.6866 1.14453 17.6316 1.19311C15.5548 1.0358 13.4779 0.878485 11.4034 0.721171C11.9117 0.364902 12.5277 0.748932 13.0498 0.475947C14.4053 0.357962 15.7425 0.593932 17.0889 0.663335C17.4095 0.679529 17.6728 0.78132 17.8194 1.09363Z" fill="#789BBB"/>
<path d="M13.0475 0.475947C12.5483 0.894679 11.9369 0.54535 11.4034 0.721171C10.7417 0.70035 10.0776 0.677216 9.41588 0.656395C9.83491 0.283932 10.3593 0.570798 10.8149 0.425051C11.5591 0.441245 12.3033 0.459753 13.0475 0.475947Z" fill="#578AB1"/>
<path d="M7.10779 9.47521C6.95438 9.47521 6.80325 9.47521 6.64984 9.47753C6.52848 9.58857 6.36361 9.62559 6.2331 9.577C5.84383 9.42663 5.21186 9.84999 5.0676 9.22536C4.93479 8.65857 4.54095 7.97148 5.28742 7.48566C5.77514 6.74536 6.43231 6.19245 7.16732 5.72282C7.3299 5.54006 7.35509 5.33185 7.36425 5.08662C7.38485 4.54759 7.41004 4.54991 8.10155 4.58924C7.83823 4.05946 6.79867 4.39491 6.88339 3.47416C8.16109 3.47647 9.44107 3.4811 10.7188 3.48341C11.3095 3.67543 11.898 3.58983 12.4865 3.46028C12.9719 3.35386 13.4505 3.32379 13.9016 3.59446C14.0458 3.73789 14.1397 3.92297 14.0069 4.09879C13.4688 4.8067 13.7229 5.01259 14.4786 5.35961C15.0556 5.62334 15.912 5.94954 15.944 6.88648C15.8204 6.95588 15.8959 6.77775 15.8776 6.92812C15.8662 7.03454 15.9188 7.03917 15.9417 6.92349C16.0516 6.80088 16.1867 6.5811 16.1158 6.51864C15.2411 5.74364 15.9761 4.69103 15.6418 3.83274C15.8639 3.70782 16.0791 3.80035 16.2989 3.84894C16.679 3.98543 17.1256 3.84662 17.469 4.13349C17.7644 4.32088 17.5927 4.59849 17.5995 4.8414C17.6705 5.27633 17.4393 5.64416 17.3316 6.03976C17.1805 6.37521 17.034 6.71066 16.9355 7.06461C16.7157 7.61752 16.647 8.25603 16.0791 8.60767C15.4792 8.43879 15.2273 8.83902 14.9457 9.267C14.7076 9.63021 14.7556 10.086 14.4992 10.4283C13.0177 10.5556 11.5454 10.4723 10.0776 10.2525C9.75019 9.97723 10.0891 9.49603 9.75935 9.15596C8.97854 10.3381 7.98706 9.32484 7.10779 9.47521Z" fill="#5289B8"/>
<path d="M5.51182 7.61752C5.2691 7.88588 4.88213 8.1473 5.00349 8.53133C5.11569 8.88991 5.55303 8.37633 5.78659 8.65857C5.79804 9.05648 5.32635 8.92461 5.10653 9.29939C5.67897 9.36417 6.1644 9.41969 6.64984 9.47521C5.84155 9.93559 4.93479 9.79909 4.14711 9.6117C3.50827 9.46133 2.90834 9.48447 2.28782 9.46133C2.10463 9.43588 2.54656 9.15133 2.17562 9.19297C1.81612 9.23462 1.43831 9.33872 1.1498 8.99402C1.16125 8.66782 1.31237 8.44111 1.61233 8.31618C1.99015 7.92984 2.42291 7.57125 2.30155 6.93043C2.59007 5.97961 3.34111 6.38446 3.95019 6.36364C3.26326 5.40819 4.13566 4.96633 4.5753 4.38103C4.81115 4.40879 5.04699 4.30237 5.45228 4.45274C5.0905 4.23528 4.80886 4.39722 4.64399 4.17282C4.35548 4.17282 4.06697 4.17282 3.69832 4.17282C4.09216 3.44871 4.70582 3.7564 5.21186 3.70782C5.69958 3.66155 6.26515 4.0664 6.64984 3.4464C6.72769 3.45334 6.80554 3.46259 6.88339 3.46953C7.16733 3.76565 7.4192 4.04789 7.92524 3.97618C8.28702 3.92528 8.25268 4.3255 8.24581 4.58461C8.23207 5.07968 8.01683 4.73961 7.8451 4.6864C7.68252 4.6355 7.41462 4.55685 7.63902 4.91312C7.94127 5.38737 7.61841 5.69043 7.33219 6.00043C6.4346 5.90327 6.00641 6.85409 5.21186 6.97439C5.13859 6.98596 5.07218 7.05536 5.10882 7.09469C5.15232 7.14327 5.25078 7.05999 5.32635 7.11088C5.49579 7.24506 5.60112 7.39543 5.51182 7.61752Z" fill="#5D90BB"/>
<path d="M13.9977 3.88595C12.9421 3.45103 11.7698 3.97849 10.7188 3.4811C11.3988 3.47416 12.0354 3.31222 12.6948 3.12946C13.5718 2.88655 14.5289 2.77782 15.4197 3.33767C16.0814 3.75409 16.8622 3.72401 17.6201 3.69162C17.54 3.78185 17.4599 3.87207 17.382 3.96229C17.0156 4.07797 16.647 4.06871 16.2783 3.96924C16.0471 3.95998 15.8181 3.95073 15.5868 3.94147C15.0441 4.33939 14.5129 4.33707 13.9977 3.88595Z" fill="#F6F8F7"/>
<path d="M21.3044 9.47521C21.3021 11.4023 21.3021 13.3294 21.2998 15.2542C20.9128 15.6382 21.0846 16.1287 21.0846 16.5682C21.0708 21.9886 21.0456 27.4113 21.0937 32.8317C21.1052 34.0832 20.9724 35.0896 19.8275 35.8715C18.3666 36.8686 17.1851 38.2567 15.5845 39.0802C15.2892 38.5967 15.2937 38.0438 15.2937 37.5141C15.2708 29.4332 15.2479 21.3524 15.2525 13.2716C15.2525 12.7418 15.3739 12.1866 15.0556 11.6961C14.8197 11.3607 14.1351 11.4393 14.229 10.7962C14.6045 10.5463 14.9686 10.5556 15.3212 10.8425C17.0798 10.5209 18.4948 9.41738 20.0748 8.69096C21.3158 8.12185 21.2907 8.06633 21.3044 9.47521Z" fill="#F8F1E5"/>
<path d="M16.0196 8.54058C16.2646 8.00387 16.5073 7.46715 16.7523 6.93043C17.0798 6.31043 17.6224 6.40066 18.1422 6.54409C18.907 6.75693 19.6695 6.98133 20.448 7.14558C20.5053 7.15021 20.5625 7.15715 20.6198 7.16178C20.8533 7.3029 21.1922 7.54812 20.7915 7.72626C19.0009 8.52439 17.4507 9.80372 15.5548 10.389C15.2182 9.64641 15.5273 9.06805 16.0196 8.54058Z" fill="#F4EDE0"/>
<path d="M17.1599 5.97498C17.2057 5.55625 17.3248 5.16759 17.5972 4.83677C17.9659 4.63782 18.1926 4.84603 18.4651 5.08431C19.2207 5.73901 20.0038 6.35901 20.6175 7.15946C19.3695 7.04611 18.156 6.83327 17.1599 5.97498Z" fill="#F4EDE0"/>
<path d="M15.3212 10.8425C14.9548 10.8633 14.5862 10.8864 14.2198 10.9072C12.3743 11.2103 10.5608 11.0576 8.77704 10.5024C8.66026 10.3936 8.63507 10.2687 8.69918 10.123C9.16859 9.82917 9.63112 9.82223 10.0822 10.1646C11.2202 9.86618 12.3857 10.463 13.5352 10.0328C13.8214 9.92633 14.0573 10.4538 14.4374 10.396C14.7556 10.2386 15.0877 9.75051 15.3716 10.4353C15.3556 10.5695 15.3395 10.706 15.3212 10.8425Z" fill="#5184AE"/>
<path d="M15.3716 10.4353C15.0716 10.1299 14.7442 10.5186 14.4374 10.396C14.1511 9.56312 14.7533 8.96857 15.0716 8.34626C15.3647 7.77484 15.7357 8.26991 16.0219 8.54058C15.8662 9.15596 15.7105 9.77365 15.5548 10.389C15.4907 10.3983 15.4311 10.4145 15.3716 10.4353Z" fill="#5C8FBB"/>
<path d="M16.2783 3.96692C16.647 3.96461 17.0134 3.9623 17.382 3.95998C17.4049 4.02013 17.4324 4.07565 17.4644 4.13118C17.066 4.11498 16.6378 4.2908 16.2783 3.96692Z" fill="#598EBA"/>
<path d="M8.71521 10.3913C10.5493 10.5625 12.3857 10.736 14.2198 10.9072C14.4442 11.2265 14.9411 10.9558 15.1334 11.3422C15.5548 13.1119 15.3716 14.921 15.4288 16.7093C15.5365 20.08 15.2594 23.4507 15.4265 26.8283C15.4998 28.3089 15.5754 29.8126 15.3075 31.2909C15.2708 31.3557 15.1815 31.4552 15.1632 31.439C14.3458 30.7611 13.684 31.1984 13.0314 31.7305C12.3834 31.3349 12.6376 30.62 12.4544 30.0625C12.3537 29.6669 12.1819 29.3152 11.8682 29.0423C11.724 28.9011 11.6232 28.7323 11.5522 28.5449C11.3965 28.1863 11.0874 28.0845 10.7371 28.0544C10.1486 28.0243 9.55098 28.0429 9.00601 27.7606C8.32137 27.173 7.43752 27.3558 6.65671 27.1475C6.15067 27.0041 5.57593 26.9902 5.30116 26.4142C4.96914 26.0325 4.47455 26.1343 4.083 25.9862C3.39607 25.7248 3.91127 26.3286 3.72808 26.3749C3.57696 26.5576 3.21517 26.4466 3.17396 26.6964C3.15106 26.8375 3.42812 27.1059 3.53574 27.0851C3.88837 27.0203 3.77846 26.6085 3.92958 26.3749C4.34174 25.6947 4.79054 26.0764 5.23247 26.3263C5.12943 27.2285 4.66002 27.9827 4.27305 28.7716C4.05552 28.8572 3.84028 28.8873 3.5449 28.6883C3.87234 29.0168 4.25702 28.8179 4.51806 29.0237C4.91419 29.3476 4.93022 29.845 5.07905 30.2799C5.3378 31.2955 6.09571 32.207 5.73393 33.3568C5.6492 33.72 5.47747 34.1272 5.91711 34.3655C6.33385 34.5922 6.79409 34.5806 7.20396 34.3308C8.13132 33.7686 9.09989 33.2666 9.92421 32.5448C10.4028 32.7067 10.3135 33.137 10.3707 33.5002C10.3341 33.9236 10.5745 33.9791 10.9088 33.912C11.3714 34.1087 11.7904 34.222 11.8934 33.5049C11.9369 33.1995 12.0537 32.9149 12.3514 32.7553C13.2902 32.6929 14.2839 32.8247 14.9663 31.9086C15.0693 31.7698 15.2113 31.9757 15.2937 32.0983C15.3258 32.2255 15.3418 32.3505 15.3418 32.48C15.3693 34.3886 15.4403 36.2902 15.3762 38.1965C15.3601 38.6592 15.2846 39.1011 15.1151 39.5267C13.5123 39.3764 11.9117 39.226 10.3089 39.0779C8.38319 38.5273 6.35903 38.6569 4.41731 38.1711C3.43728 37.9258 2.42062 37.8194 1.41541 37.6922C0.82007 37.6182 0.680394 37.2688 0.687264 36.746C0.698712 35.9826 0.689553 35.2168 0.687264 34.4534C0.51782 33.757 0.52011 33.063 0.684974 32.3667C0.684974 32.2926 0.682684 32.2163 0.684974 32.1423C0.513241 30.2129 0.508661 28.2834 0.687264 26.354C0.687264 26.2037 0.687264 26.051 0.687264 25.9006C0.694133 20.9776 0.689553 16.0546 0.707871 11.1316C0.710161 10.6851 0.451417 10.0767 1.1933 9.90551C2.07716 9.92171 2.95872 9.94021 3.84257 9.95641C4.37609 10.1993 4.96685 9.91014 5.50037 10.1415C6.01099 10.1091 6.50787 10.5024 7.02765 10.1924C7.56346 10.4954 8.18856 10.0004 8.71521 10.3913Z" fill="#FEFAF2"/>
<path d="M0.694133 26.3564C0.694133 28.2858 0.694133 30.2152 0.691843 32.1446C0.327769 30.2152 0.330059 28.2858 0.694133 26.3564Z" fill="#F3ECE1"/>
<path d="M0.691843 32.369C0.691843 33.0653 0.691843 33.7593 0.694133 34.4557C0.339218 33.7617 0.336928 33.0653 0.691843 32.369Z" fill="#F3ECE1"/>
<path d="M15.1266 31.4505C15.3121 29.8011 15.3899 28.1493 15.2113 26.4905C15.1495 25.9214 15.122 25.3431 15.1357 24.7693C15.1907 22.604 15.3212 20.4409 15.3212 18.2755C15.3212 15.9621 15.2021 13.651 15.1357 11.3375C15.8502 11.481 15.5708 12.0616 15.5708 12.4572C15.5891 18.4513 15.5502 24.4455 15.6074 30.4373C15.6235 32.0335 15.5158 33.6275 15.7494 35.2399C15.9303 36.4846 15.6578 37.7963 15.5845 39.0779C15.5067 39.0779 15.4288 39.0779 15.351 39.0779C15.1014 37.2179 15.3121 35.3487 15.2342 33.4841C15.2159 33.0329 15.3487 32.5679 15.1243 32.133C15.1289 32.0567 15.1289 31.9803 15.1243 31.904C14.9823 31.7536 14.9823 31.6032 15.1266 31.4505Z" fill="#E3D9CA"/>
<path d="M15.1243 32.1353C15.5662 32.7599 15.3212 33.4725 15.3372 34.1388C15.3785 35.7859 15.351 37.4331 15.351 39.0802C15.3418 39.2653 15.3098 39.4412 15.1197 39.5314C15.122 37.0653 15.1243 34.6014 15.1243 32.1353Z" fill="#FDF7EB"/>
<path d="M1.15209 8.99633C1.52532 9.00096 1.90542 8.96626 2.2695 9.02178C2.8969 9.11663 2.28095 9.31327 2.28782 9.46596C1.76346 9.38036 1.18872 9.67417 0.707871 9.25544C0.856707 9.16753 1.00325 9.08193 1.15209 8.99633Z" fill="#76A5C9"/>
<path d="M4.64628 4.17513C5.04241 4.2214 5.4935 3.98543 5.82781 4.307C6.03847 4.51058 5.39504 4.99871 5.34924 4.81827C5.22331 4.30931 4.65544 4.80901 4.57759 4.38103C4.60278 4.31394 4.62568 4.24453 4.64628 4.17513Z" fill="#ACC1D5"/>
<path d="M2.30155 6.93043C2.63815 7.45558 2.41375 7.9067 1.61233 8.31618C1.8436 7.85581 2.07258 7.39312 2.30155 6.93043Z" fill="#77A2C4"/>
<path d="M10.0845 10.1623C9.62654 10.1646 9.1663 10.1646 8.70834 10.1669C8.47937 10.3289 8.25268 10.3196 8.0237 10.1669C7.83594 9.77596 7.10321 10.123 7.10779 9.47521C7.5749 9.267 8.03286 9.16059 8.55035 9.36417C8.65339 9.40581 9.42733 10.1322 9.16859 9.01484C9.09531 8.70484 9.80972 8.91536 10.1395 8.96163C10.4394 9.00327 10.5814 9.25312 10.2608 9.52611C10.0593 9.69499 10.0959 9.9379 10.0845 10.1623Z" fill="#5D90BB"/>
<path d="M8.0237 10.1669C8.25268 10.1669 8.47937 10.1669 8.70834 10.1669C8.71063 10.241 8.71292 10.315 8.71521 10.389C8.14506 10.3983 7.56575 10.4885 7.02765 10.1924C7.35967 10.1854 7.69168 10.1762 8.0237 10.1669Z" fill="#6090B9"/>
<path d="M5.49808 10.1438C4.93937 10.1461 4.36922 10.234 3.84028 9.95872C4.3967 10.0027 4.98288 9.74588 5.49808 10.1438Z" fill="#6090B9"/>
<path d="M13.9977 3.88595C14.5267 3.90446 15.0579 3.92065 15.5868 3.93916C16.2806 4.55916 16.2783 4.55916 15.738 5.32722C15.6395 5.46834 15.6074 5.63954 15.786 5.70663C16.9767 6.16931 16.331 6.66439 15.8227 7.16409C15.7586 7.11551 15.7357 7.06461 15.7517 7.00909C15.77 6.95357 15.7883 6.92581 15.8089 6.92581C15.3006 6.42842 14.8289 5.38506 14.2977 5.52155C13.1024 5.83386 13.613 4.74424 13.265 4.42498C12.9536 4.14274 13.9222 4.33707 13.9977 3.88595Z" fill="#598EBA"/>
<path d="M17.1599 5.97498C18.3117 6.37058 19.4657 6.76618 20.6175 7.15946C19.8481 7.67767 19.1864 7.0623 18.4925 6.92118C17.8972 6.80088 17.3339 6.53021 16.7523 6.92812C16.7661 6.55797 16.9103 6.24334 17.1599 5.97498Z" fill="#E2DAD0"/>
<path d="M5.51182 7.61752C5.43397 7.46021 5.35382 7.30521 5.27597 7.1479C5.17751 7.09237 5.05386 7.05999 5.04241 6.91424C5.66523 6.53252 6.28576 6.14618 6.91087 5.7714C7.16504 5.61872 7.32074 5.69043 7.33677 6.00275C6.51474 6.29655 6.0316 6.97902 5.51182 7.61752Z" fill="#759FC5"/>
<path d="M15.8089 6.92581C15.8135 7.00446 15.8181 7.08312 15.8227 7.16178C15.7128 7.34454 15.6258 7.57588 15.3578 7.53655C15.2983 7.5273 15.1999 7.36767 15.2182 7.30521C15.2983 7.01603 15.5456 6.94894 15.8089 6.92581Z" fill="#81A4C1"/>
<path d="M9.48916 8.10334C9.62883 8.13805 9.75935 8.17043 9.67234 8.31155C9.62425 8.3879 9.51205 8.45499 9.42046 8.46424C9.30368 8.47581 9.20751 8.37864 9.27163 8.25835C9.31055 8.17969 9.42733 8.14267 9.48916 8.10334Z" fill="#5D90BB"/>
<path d="M5.04241 6.91424C5.12027 6.9929 5.19812 7.06924 5.27597 7.1479C5.04241 7.29596 4.80886 7.44402 4.51806 7.62909C4.51348 7.15946 4.82718 7.07849 5.04241 6.91424Z" fill="#9AB7D4"/>
<path d="M8.9419 20.346C9.01746 20.346 9.09303 20.346 9.16859 20.346C9.61967 20.2581 10.057 20.2211 10.357 20.6352C10.2402 19.9296 10.0845 19.187 10.5402 18.4976C10.6386 17.9007 10.6569 17.1535 11.2546 16.9268C11.8911 16.6885 14.1763 17.8869 14.3526 18.375C14.5885 19.0297 13.8466 19.6081 12.7544 19.6243C12.5781 19.2379 12.8712 18.9904 13.0223 18.7012C11.7492 19.7075 11.7492 19.7075 11.337 18.6457C11.037 19.7746 11.0943 20.9591 11.1492 22.1459C11.1263 22.2569 11.076 22.3495 10.9981 22.4281C9.67234 22.3356 8.36259 22.5322 7.05055 22.6641C6.24913 22.7451 5.5828 22.5253 5.07905 21.8729C5.26223 20.9614 5.1798 20.0384 5.19583 19.1199C5.22331 18.5439 5.06302 17.9354 5.47289 17.4219C5.97893 17.253 5.97893 17.253 6.36819 18.0372C6.47123 18.1066 6.5239 18.2038 6.53077 18.3264C6.51703 19.3235 6.39567 20.3252 6.59259 21.3177C6.73914 21.512 6.88339 21.7087 7.14901 21.741C7.61383 20.4617 7.13527 19.1107 7.56804 17.8151C7.56804 18.7151 7.5543 19.6127 7.57262 20.5126C7.58635 21.1719 7.83365 20.6514 7.98935 20.582C8.28244 21.3802 8.68087 22.0302 9.79141 21.8081C9.19378 21.4472 8.36259 21.2691 8.9419 20.346Z" fill="#FCFCF9"/>
<path d="M11.6873 28.4986C11.7675 28.642 11.8476 28.7855 11.9255 28.9289C11.8385 29.7178 11.6232 30.5229 12.2094 31.2285C12.443 31.8438 12.2209 32.4291 12.0789 33.0144C11.9942 33.3638 12.056 33.9143 11.6095 33.9491C11.1561 33.9838 11.2294 33.3892 11.0256 33.1023C10.7943 32.5055 10.389 32.2556 9.74103 32.3782C9.29224 32.4638 8.86863 32.3111 8.46792 32.1006C7.71 31.6611 7.56575 31.0087 7.8222 30.2152C7.88173 30.118 7.96188 30.0417 8.06034 29.9838C8.17025 29.9653 8.27787 29.9769 8.38091 30.0185C9.02433 30.4928 9.51434 30.5043 9.883 29.6484C10.1372 29.0608 10.6638 28.6374 11.0393 28.1169C11.3645 28.0544 11.5843 28.177 11.6873 28.4986Z" fill="#FAF9F8"/>
<path d="M5.4706 17.4172C5.4706 18.0049 5.4706 18.5925 5.4706 19.1801C5.16377 19.349 5.34695 20.0152 4.75619 19.8972C4.67376 19.2425 4.46539 19.8602 4.31885 19.8533C4.0601 20.0314 4.10361 20.5913 3.66397 20.4895C3.15106 20.3692 3.14877 19.8209 2.97933 19.423C2.43207 19.386 2.68395 19.807 2.6496 20.0384C2.57862 20.5219 2.74806 21.0239 2.54427 21.4981C2.12524 21.6069 1.86421 21.4912 1.88482 21.0077C1.93061 19.8579 1.98328 18.7104 2.03594 17.5607C2.04739 17.3154 2.1344 17.0818 2.38628 17.0286C2.64731 16.9731 2.80759 17.179 2.90834 17.3918C3.18083 17.9701 3.43728 18.5578 3.73266 19.2148C4.0372 18.648 4.28908 18.1807 4.54095 17.7134C4.84549 17.7249 4.91648 17.246 5.2691 17.3617C5.33551 17.3779 5.4042 17.3941 5.4706 17.4172Z" fill="#5589B0"/>
<path d="M10.9912 22.2315C10.6592 20.899 10.9432 19.5618 10.9684 18.2269C10.9729 18.0303 11.0164 17.8244 11.2569 17.8036C11.5568 17.7758 11.637 17.9933 11.653 18.2431C11.6759 18.5832 11.6896 18.9233 11.7102 19.3605C12.2804 19.106 12.5162 18.5925 12.9032 18.2593C13.1116 18.0812 13.3291 17.8637 13.5833 18.1413C13.8008 18.3796 13.5695 18.5485 13.4207 18.7151C13.1665 18.995 12.8322 19.2148 12.7521 19.6243C12.1957 20.3437 12.9811 20.6098 13.2261 21.0586C13.5695 21.4658 14.2817 21.9099 13.6749 22.4305C13.1917 22.8446 12.7727 22.1552 12.4063 21.8012C12.1384 21.5421 12.0102 21.165 11.6438 20.8064C12.1545 21.9284 11.9667 22.2685 10.9912 22.2315Z" fill="#578AB2"/>
<path d="M6.83989 26.8375C6.97727 26.9532 7.11695 27.0689 7.25434 27.1846C8.03744 26.0371 8.36946 27.4321 8.93961 27.4899C8.61446 27.8786 8.19085 27.7814 7.77412 27.7375C7.71229 28.5194 8.23894 29.2296 8.05118 30.0278L8.00996 30.0717C6.97269 30.1203 6.55596 31.0364 5.8965 31.6125C5.03783 31.3649 4.84549 30.8352 5.2462 30.0532C5.4271 29.6808 5.63089 29.2898 5.60341 28.8826C5.54387 27.8855 6.03389 27.2748 6.83989 26.8375Z" fill="#F7F5F2"/>
<path d="M6.83989 26.8375C6.85592 26.9116 6.90171 27.0411 6.88339 27.0504C5.57822 27.7537 6.2102 29.3083 5.4935 30.2661C5.27368 30.465 5.05157 30.4581 4.82718 30.273C4.68292 29.8843 4.54095 29.4934 4.3967 29.1047C4.23641 29.0099 3.98912 28.9682 4.16085 28.6837C4.34861 27.8161 4.57072 26.9694 5.29658 26.3725L5.28284 26.3887C5.80491 26.5391 6.3224 26.6895 6.83989 26.8375Z" fill="#35312C"/>
<path d="M9.85323 32.6119C9.99749 33.3452 9.31284 33.3591 8.95335 33.5835C8.1359 34.0948 7.38714 34.8374 6.3453 34.8097C5.56677 34.7888 4.99204 34.4927 5.47747 33.5303C5.77514 33.4794 6.06823 33.4864 6.34987 33.6113C6.51016 33.683 6.63839 33.8241 6.82844 33.8264C7.01162 33.7547 7.08031 33.5905 7.15359 33.4262C7.18106 33.3221 7.21312 33.2226 7.2406 33.1208C7.28181 32.2093 7.64589 31.7721 8.60072 32.1399C8.9877 32.2903 9.4113 32.244 9.81888 32.2973C9.92421 32.3921 9.93566 32.4962 9.85323 32.6119Z" fill="#FEFDFA"/>
<path d="M15.1266 31.4505C15.1266 31.6032 15.1266 31.7559 15.1266 31.9086C14.4786 33.0885 13.8145 33.3129 12.3743 32.8363C11.9163 32.3967 12.388 31.8485 12.2048 31.3788C12.1682 31.203 12.1682 31.0272 12.2438 30.8606C12.4704 30.6038 12.6239 30.6964 12.6971 30.9832C12.7658 31.2562 12.6559 31.624 13.0933 31.6773C13.2948 31.0989 13.5535 30.7704 14.2954 30.6894C15.0716 30.6015 14.7831 31.2955 15.1266 31.4505Z" fill="#FDF7EB"/>
<path d="M10.9912 22.2315C12.2071 22.2708 11.3347 21.1164 11.914 20.6722C12.2438 21.1025 12.5689 21.5444 12.9169 21.9678C13.0978 22.1899 13.3108 22.5716 13.6268 22.3449C13.9748 22.095 13.6016 21.8174 13.4802 21.5652C13.3978 21.3963 13.3131 21.2275 13.2284 21.0586C13.526 21.3709 14.3229 21.0216 14.2679 21.5699C14.2061 22.213 13.9107 22.8376 13.1001 23.1152C11.7469 23.5756 11.3187 23.5062 10.9981 22.4305C10.9981 22.361 10.9958 22.2963 10.9912 22.2315Z" fill="#FAFAF9"/>
<path d="M8.05576 30.0278C7.51766 29.3083 7.62757 28.4153 7.4856 27.5501C7.90692 27.3257 8.44273 27.6357 8.9419 27.4876C9.61051 27.5871 10.2791 27.6843 10.9477 27.7837C11.0325 27.8115 11.0737 27.8555 11.0668 27.9156C11.0599 27.9827 11.0462 28.0174 11.0256 28.0151C10.1143 28.723 9.16172 29.3777 8.24581 30.081C8.18398 30.0555 8.12216 30.037 8.05576 30.0278Z" fill="#3C3933"/>
<path d="M8.9419 20.346C8.72666 21.1164 9.1434 21.3547 9.80515 21.4264C10.073 21.4565 10.5127 21.4125 10.4303 21.866C10.3616 22.2408 9.9723 22.176 9.67234 22.1783C8.24352 22.1875 7.93669 21.8984 7.98706 20.5774C8.17483 19.5826 7.75351 18.5323 8.2481 17.563C8.75643 18.3704 8.30763 19.268 8.48852 19.9435C8.62362 19.2703 8.22749 18.3843 8.70834 17.5769C9.14798 18.4675 8.76559 19.4299 8.9419 20.346Z" fill="#719BBC"/>
<path d="M7.14672 21.7364C6.89713 22.0117 6.64755 21.903 6.39796 21.7341C6.24455 20.582 6.28347 19.4299 6.37277 18.2778C6.37048 18.1969 6.36819 18.1136 6.3659 18.0326C6.43918 17.7596 6.36361 17.3409 6.80783 17.3825C7.22686 17.4219 7.1513 17.8082 7.1513 18.0997C7.15359 19.3119 7.14901 20.5242 7.14672 21.7364Z" fill="#5689B0"/>
<path d="M10.5425 18.4953C10.5425 19.2564 10.5425 20.0199 10.5425 21.0007C10.1326 20.39 9.51663 20.7787 9.17088 20.3437C9.17088 19.5849 9.17088 18.8238 9.17088 17.9933C9.64028 18.2154 9.93566 18.8539 10.5425 18.4953Z" fill="#F9F6E9"/>
<path d="M6.42315 33.7802C6.10716 33.6992 5.72706 33.8704 5.47976 33.5326C5.87131 32.3227 4.93937 31.3811 4.82947 30.2753C5.05157 30.273 5.27368 30.2707 5.49579 30.2684C4.9119 30.9485 5.34237 31.2423 5.94459 31.469C7.11695 31.9109 7.29555 32.7715 6.42315 33.7802Z" fill="#D1CBC0"/>
<path d="M12.4269 30.7935C12.404 30.9277 12.3834 31.0596 12.3605 31.1937C12.2231 31.3626 12.0697 31.3418 11.9072 31.2354C11.3622 30.4627 11.0989 29.6923 11.9255 28.9289C12.6124 28.8618 12.4109 29.5096 12.6261 29.8196C12.8047 30.1943 12.7177 30.5159 12.4269 30.7935Z" fill="#3C3835"/>
<path d="M11.9094 31.2354C12.0606 31.2215 12.2117 31.2076 12.3628 31.1937C12.3674 31.742 12.3697 32.288 12.3743 32.8363C12.3033 33.0838 12.2186 33.3314 12.1659 33.5835C11.9484 34.6084 11.6415 34.7055 10.792 34.0069C10.6295 33.9745 10.5287 33.875 10.4806 33.7177C10.4921 33.5581 10.5814 33.4447 10.6982 33.3476C10.8882 33.2088 11.0393 33.0214 11.2202 32.871C11.5889 33.0769 11.3485 33.4979 11.6324 33.9953C11.9186 32.9635 12.1316 32.133 11.9094 31.2354Z" fill="#D0C9BE"/>
<path d="M4.8661 19.8834C5.2691 19.8278 4.68979 18.9071 5.46831 19.1824C5.49808 19.7862 5.52785 20.3877 5.5599 20.9915C5.58051 21.3894 5.5599 21.7596 5.07676 21.8706C4.98517 21.7457 4.89129 21.6184 4.7997 21.4935C4.70124 20.9522 4.57759 20.4085 4.8661 19.8834Z" fill="#5386AC"/>
<path d="M8.70834 17.5769C8.70834 18.7382 8.70834 19.8996 8.70834 21.0609C8.6053 21.0655 8.50226 21.0702 8.39922 21.0725C8.08095 19.9273 8.33053 18.729 8.2481 17.5607C8.40838 17.3802 8.55951 17.4404 8.70834 17.5769Z" fill="#477CA8"/>
<path d="M4.07842 26.627C4.04636 26.8098 4.04636 27.0064 3.97538 27.173C3.86318 27.4414 3.78533 27.7722 3.39149 27.7652C3.55864 27.1013 2.54656 27.0828 2.67937 26.516C2.81446 25.9469 3.30219 26.317 3.63878 26.2985C3.925 26.2175 4.01202 26.4096 4.07842 26.627Z" fill="#555252"/>
<path d="M12.4269 30.7935C12.4933 30.4696 12.5597 30.1434 12.6261 29.8196C13.0314 30.3748 12.5781 31.1498 13.091 31.6773C13.0337 31.8045 13.0085 31.9849 12.9101 32.0497C12.7498 32.1538 12.6628 32.0127 12.6193 31.8554C12.5277 31.5061 12.7223 31.1035 12.4269 30.7935Z" fill="#BAB4A9"/>
<path d="M4.07842 26.627C3.93187 26.5183 3.78533 26.4096 3.63878 26.2985C3.85402 26.2175 3.1648 25.4611 3.98225 25.8289C4.41502 26.0232 5.09737 25.6207 5.28742 26.3911L5.30116 26.3749C4.89587 26.4743 4.32114 25.7271 4.07842 26.627Z" fill="#B2ABA2"/>
<path d="M2.54198 21.5005C2.55801 20.7717 2.46871 20.0222 2.62212 19.3235C2.74806 18.7521 2.91063 19.1593 2.97933 19.423C2.43894 20.0314 3.09382 20.8966 2.54198 21.5005Z" fill="#EFF1F2"/>
<path d="M4.8661 19.8834C4.8432 20.4201 4.8226 20.9568 4.7997 21.4935C4.30053 21.0493 4.90045 20.2743 4.31656 19.8556C4.42647 19.5965 4.42647 19.268 4.78138 19.1107C4.81344 19.3813 4.84091 19.6312 4.8661 19.8834Z" fill="#EFF1F2"/>
<path d="M4.16314 28.6837C4.24099 28.8248 4.32114 28.9636 4.39899 29.1047C3.80823 29.1903 3.30677 29.0816 2.99536 28.4616C3.48079 28.2279 3.76014 28.7716 4.16314 28.6837Z" fill="#DFC1AD"/>
<path d="M5.26681 17.3687C4.99433 17.4242 4.98746 18.0349 4.53866 17.7203C4.66231 17.3501 4.76535 16.9384 5.26681 17.3687Z" fill="#5386AC"/>
<path d="M10.5516 33.7709C10.6318 33.8496 10.7096 33.9259 10.7897 34.0046C10.7027 34.2267 10.5608 34.384 10.3043 34.2984C10.041 34.2128 10.0318 33.9976 10.0937 33.7663C10.1532 33.6899 10.231 33.6437 10.3272 33.6275C10.4211 33.6414 10.4989 33.6876 10.5516 33.7709Z" fill="#ABA197"/>
<path d="M10.3226 33.7501C10.2471 33.7547 10.1692 33.7617 10.0937 33.7663C10.0181 33.3799 10.2127 32.9381 9.85552 32.6119C9.84636 32.5425 9.83262 32.4754 9.8143 32.406C9.98833 32.2186 10.1807 32.244 10.3776 32.3643C10.7096 32.8409 10.5928 33.299 10.3226 33.7501Z" fill="#D2C9BE"/>
<path d="M4.24099 21.1187C3.97309 21.0771 3.70748 21.0355 3.26784 20.9684C3.73953 20.7602 4.01202 20.7671 4.24099 21.1187Z" fill="#EFF1F2"/>
<path d="M10.9386 27.9804C10.9523 27.9156 10.9569 27.8508 10.9477 27.7861C11.2225 27.9943 11.8888 27.7861 11.6873 28.4986C11.4881 28.3505 11.2958 28.1793 11.021 28.2187C10.9363 28.1608 10.9065 28.0822 10.9386 27.9804Z" fill="#BCB7AE"/>
<path d="M6.37277 18.2778C6.38193 19.4299 6.3888 20.582 6.39796 21.7341C6.04992 20.5843 6.09113 19.4322 6.37277 18.2778Z" fill="#FEFAF2"/>
<path d="M6.42315 33.7802C6.7689 32.9011 6.92003 32.0659 5.9423 31.469C6.31324 30.5205 6.7483 29.6692 8.01225 30.074C7.89547 30.7542 7.87029 31.4112 8.48624 31.897C7.27723 31.8554 7.47873 32.8224 7.33448 33.5419L7.32532 33.5442C7.25663 33.8079 6.78493 33.8126 6.91087 34.2035C6.60175 34.2313 6.44147 34.0902 6.42315 33.7802Z" fill="#F8F3E9"/>
<path d="M10.9386 27.9804C10.9661 28.059 10.9935 28.1377 11.021 28.2164C10.9134 29.0931 10.2814 29.7201 9.83949 30.3864C9.37009 31.0966 8.66255 30.8329 8.24352 30.081C8.84573 28.9937 9.86239 28.4477 10.9386 27.9804Z" fill="#332F29"/>
<path d="M7.33448 33.5419C7.33219 33.3522 7.3528 33.1602 7.32074 32.9751C7.14901 31.9896 7.4856 31.5801 8.48624 31.897C8.96938 31.9688 9.51205 32.214 9.9265 32.0752C10.7806 31.7837 10.9844 32.2834 11.2179 32.871C11.2294 33.1902 11.2271 33.5026 10.7943 33.5303C10.3776 33.2573 10.7004 32.6767 10.3272 32.3852C10.1555 32.3921 9.98604 32.4014 9.8143 32.4083C9.58991 32.406 9.35177 32.4523 9.1434 32.3921C8.10613 32.096 7.43294 32.3482 7.33448 33.5419Z" fill="#C0B9AE"/>
<path d="M5.24849 28.1886C4.94853 27.7722 4.73787 27.5339 5.02868 27.247C5.0905 27.1846 5.21415 27.1892 5.31032 27.1614C5.292 27.4437 5.27597 27.7236 5.24849 28.1886Z" fill="#524E45"/>
<path d="M6.91087 34.2012C6.37964 33.5511 7.20625 33.7732 7.32532 33.5419C7.33677 33.8588 7.17648 34.0647 6.91087 34.2012Z" fill="#A29B94"/>
<path d="M6.01557 33.0584C5.94916 32.7507 5.88276 32.443 5.75911 31.8693C6.26744 32.3505 6.2102 32.709 6.01557 33.0584Z" fill="#FBF7EE"/>
<path d="M10.3272 32.3829C11.0828 32.5147 10.6524 33.1393 10.7943 33.528C10.7142 33.609 10.6318 33.6899 10.5516 33.7709C10.476 33.764 10.3982 33.757 10.3226 33.7501C10.3249 33.2943 10.3249 32.8386 10.3272 32.3829Z" fill="#F1EEE3"/>
<path d="M42.0839 32.5749C42.3106 32.8086 42.5373 33.0422 42.7663 33.2759C42.5579 33.646 42.8143 33.9306 42.9494 34.2267C43.3502 35.1035 43.5517 36.0127 43.4532 36.982C43.5379 38.2336 42.9082 39.2237 42.2969 40.2231C41.887 40.8547 41.3168 41.3359 40.781 41.8518C38.1959 44.2902 35.0886 45.5047 31.6082 45.8448C30.2 45.8055 28.7849 45.979 27.3904 45.6667C25.8059 45.2572 24.471 44.3642 23.1566 43.4249C23.017 43.3023 22.907 43.1566 22.8177 42.9946C21.998 41.6158 21.8881 40.119 22.1262 38.5737C22.2132 37.9999 22.3941 37.4586 22.9116 37.1116C23.7726 36.9681 24.6038 36.7206 25.4235 36.4106C25.7395 36.2903 26.1196 35.9595 26.399 36.4962C26.4539 37.0792 26.1242 37.5951 26.1173 38.1688C25.9066 39.853 26.6096 41.1508 28.1232 41.9258C31.3586 43.5776 35.4527 41.949 36.8586 39.8322C38.4592 37.2966 37.5044 34.8537 34.6307 34.0093C32.4462 33.3661 30.4175 33.6391 28.4941 34.8398C28.1689 35.0434 27.8484 35.2493 27.4797 35.3696C26.7401 35.5384 25.9776 35.5708 25.2403 35.7813C24.7778 35.9132 24.2511 35.9919 23.9031 35.4667C23.855 34.7588 24.4137 34.4118 24.7869 33.9537C26.7447 31.8878 29.2177 30.6918 31.9081 30.1157C35.4916 29.3477 38.9263 29.7502 41.7931 32.4014C41.8778 32.4754 41.9786 32.5287 42.0839 32.5749Z" fill="#FEFCF7"/>
<path d="M24.9106 27.4854C25.5357 29.2158 25.2609 31.0249 25.3731 32.7993C25.6914 33.336 25.2312 33.5743 24.9655 33.889C23.3261 35.8322 21.8125 37.8195 22.14 40.6211C22.1926 41.0814 22.346 41.6274 21.9041 42.0346C21.0111 42.8234 20.3562 43.8992 19.1839 44.3503C19.106 44.2763 19.0648 44.1837 19.0579 44.0773C19.0534 43.7488 19.4564 43.3764 18.9503 43.1057C18.7099 43.0502 18.5153 43.1612 18.3252 43.2838C18.2542 43.5221 17.7848 43.2468 17.8535 43.6771C17.9566 44.311 17.4276 44.5793 17.1025 44.9657C16.7292 45.1855 16.7292 45.1855 16.9376 45.315C16.5758 45.5903 16.1568 45.5186 15.7492 45.5209C15.6759 45.4492 15.6118 45.3705 15.5569 45.2873C15.495 45.1831 15.5431 45.0027 15.408 44.9703C15.3393 44.9541 15.3485 45.1346 15.2729 45.204C14.0731 45.6343 13.8075 45.477 13.9792 44.4498C13.4251 45.2988 13.4251 45.2988 11.8543 45.3011C10.1622 45.0629 9.0104 43.9524 7.88841 42.7934C7.75561 41.3683 7.78995 41.322 9.20732 41.5279C9.56224 41.5788 9.74542 41.4909 9.69276 41.1393C9.63322 40.7437 9.71794 40.3874 9.82327 40.0149C9.98356 39.4458 10.0774 38.9068 9.27602 38.6916C8.93713 38.6014 8.68754 38.303 8.97835 37.8935C9.21877 37.5534 9.49354 37.0422 9.94692 37.3568C10.7094 37.8866 11.607 38.2822 12.081 39.1659C12.0581 39.5823 12.4176 39.7928 12.5893 40.1306C12.5 39.8137 12.0879 39.6078 12.3306 39.2191C13.4091 38.7657 13.5487 38.3169 12.7702 37.5141C12.271 36.9982 12.3695 36.6581 12.9168 36.3435C13.2076 36.1769 13.5396 36.1145 13.6014 35.6703C13.6793 35.0873 14.2105 35.0179 14.6455 34.9763C15.2111 34.9231 15.1264 35.3696 15.1699 35.7675C15.2409 36.4199 15.6416 35.9919 15.9347 35.9433C15.7881 35.8623 16.0309 35.9317 15.9507 35.8901C15.0005 35.3788 14.5288 34.6778 14.9936 33.5859C15.2042 33.0931 15.3943 32.6096 15.5202 32.0798C15.6576 31.5061 16.2667 31.2262 16.7682 31.3904C17.2719 31.5547 17.0361 31.9804 16.7063 32.3459C17.1139 32.2187 17.6955 32.406 17.3177 31.5894C17.1139 31.1452 17.581 31.018 17.8375 31.173C18.8106 31.7537 19.2411 31.2817 19.5342 30.4026C19.5663 30.3031 19.6922 30.243 19.7907 30.1828C20.2624 30.2291 20.4913 29.6276 20.9791 29.7178C21.2355 30.1898 21.508 29.7919 21.7736 29.7294C22.3392 30.3772 22.7216 29.5906 23.1978 29.5397C23.4543 29.4263 23.4589 29.1788 23.4978 28.9521C23.6466 28.1424 24.3313 27.8648 24.9106 27.4854Z" fill="#EEA15C"/>
<path d="M11.8612 39.2908C11.433 38.4256 10.5056 38.1318 9.83472 37.5511C9.42485 37.1995 9.40195 38.0809 8.97835 38.1387C9.08139 38.266 9.11802 38.3585 9.17069 38.3701C10.54 38.6361 10.4988 39.4366 9.94463 40.4337C9.92631 40.4661 9.88739 40.5077 9.89655 40.5355C10.3385 42.0855 9.83472 42.3099 8.54558 41.5557C8.19295 41.3498 8.10823 41.7616 8.04183 41.9952C7.96856 42.252 8.33263 42.5944 7.89528 42.7934C6.84657 41.6922 6.15734 40.4036 5.88257 38.8952C5.85738 38.1572 5.85738 38.1572 6.47562 38.2544C6.51455 38.2613 6.51455 38.2613 6.54432 38.1711C7.04349 36.6882 7.19003 35.2122 6.60614 33.6993C6.3474 33.0284 6.50539 32.3251 6.89694 31.7236C7.09386 31.4205 7.49686 31.1545 7.66631 31.6704C7.91589 32.4292 8.69899 32.679 9.01269 33.3407C9.02643 34.1365 9.33784 33.2435 9.4592 33.417C9.87365 33.1648 10.224 33.1533 10.1644 33.764C10.1347 34.0763 10.0477 34.3979 10.0568 34.5691C10.3888 33.9375 10.1988 33.0469 10.4369 32.2372C10.5903 31.8369 10.8674 31.5825 11.2933 31.5084C11.4055 31.5061 11.5108 31.5316 11.6116 31.5801C11.6826 31.6657 11.7215 31.7652 11.7215 31.8786C11.71 32.059 11.6047 32.2348 11.7329 32.5032C12.0421 32.2927 11.9207 31.8647 12.1611 31.6681C12.239 31.594 12.3329 31.5431 12.4382 31.5154C12.9442 31.4066 13.1732 31.9896 13.6289 32.0035C14.4853 32.0313 14.5196 31.2586 14.8196 30.745C14.8012 30.5669 15.2042 30.7612 15.0531 30.4743C15.0302 30.4304 14.9936 30.3471 14.9043 30.3864C14.9592 30.4951 14.9318 30.5969 14.8768 30.6987C14.7532 30.8213 14.6112 30.8722 14.4417 30.8468C14.3364 30.8098 14.2448 30.7519 14.167 30.6733C13.8556 29.3708 14.6066 28.2465 15.6759 28.4061C15.9232 28.538 16.1018 28.3529 16.2988 28.2557C16.6651 28.1262 17.0338 28.0059 17.3383 27.7468C18.5198 27.0713 18.8244 27.1522 19.2342 28.3691C19.4472 29.0007 19.9258 29.5443 19.8754 30.2661C19.8594 30.3008 19.8365 30.3332 19.8273 30.3702C19.5021 31.7814 18.8198 32.3274 17.5971 31.284C17.0017 31.8069 18.3481 31.5801 17.7825 32.2001C17.3658 32.6559 16.9948 32.6952 16.4957 32.5934C16.2781 32.1678 17.075 32.0637 16.7613 31.5223C16.427 31.7004 15.7561 31.9572 15.779 32.059C16.0194 33.1463 14.4074 33.9329 15.3142 35.0873C15.4309 35.2354 15.5798 35.3904 15.6141 35.5616C15.6736 35.8739 16.4888 35.2007 16.1156 35.9641C15.9415 36.3204 15.5912 36.6396 15.2226 36.5887C14.8333 36.5355 14.7761 36.0451 14.7646 35.7027C14.7577 35.5107 15.2271 35.2169 14.6936 35.1775C14.3799 35.1544 13.7663 35.4621 13.8372 35.6518C14.1555 36.4846 13.5762 36.4222 13.1274 36.5216C12.8916 36.5749 12.6649 36.6604 12.6328 36.9242C12.5985 37.211 12.7931 37.2643 13.0496 37.329C13.9792 37.5581 13.5144 38.3724 13.4938 38.8466C13.464 39.5106 12.816 39.3996 12.3168 39.2862C12.1657 39.4273 12.0146 39.4158 11.8612 39.2908Z" fill="#EC9D58"/>
<path d="M19.8731 30.2615C19.3419 29.8428 19.1312 29.1534 19.0373 28.6074C18.8061 27.2517 18.1626 27.5108 17.3543 27.9504C16.8597 27.6311 17.0521 26.8792 16.4796 26.5716C16.2804 26.4651 16.4316 26.1204 16.6125 25.9839C16.9399 25.7364 17.1391 25.3269 17.5581 25.2066C17.6131 25.1904 17.707 25.1997 17.7344 25.1627C17.7642 25.121 17.6955 25.0817 17.6039 25.1164C16.9719 25.4148 16.5827 25.9886 16.0927 26.4374C15.708 26.789 15.3577 27.1268 14.8356 26.6687C14.2906 26.1898 14.5379 25.7387 14.847 25.2622C15.218 24.6861 16.0263 24.6167 16.3079 23.9527C16.3903 23.9458 16.5506 23.9874 16.5506 23.9342C16.5529 23.8324 16.4201 23.9366 16.356 23.881C16.2415 23.8394 16.1728 23.7561 16.1224 23.6543C15.4103 24.5357 14.6341 23.696 13.8876 23.7422C13.1297 23.5571 12.9099 23.0968 13.1984 22.3727C13.4434 22.2316 13.6861 22.0927 13.9311 21.9516C14.7852 21.866 15.5363 21.4126 16.3674 21.2298C16.53 21.1928 16.1614 21.1396 16.1751 20.9915C19.2411 20.0477 22.3346 21.3247 23.7543 24.161C24.2809 25.2113 24.8556 26.2592 24.9152 27.4854C24.574 27.7213 24.8121 28.4871 24.0267 28.3783C23.7405 28.339 23.7863 28.8572 23.7405 29.1441C23.4886 29.1765 23.3581 28.996 23.2139 28.8387C23.1429 28.7578 23.0834 28.6698 23.0238 28.5796C22.7284 28.1239 22.6552 27.5872 22.5247 27.0759C22.401 26.5993 22.6254 26.2801 23.0605 26.0811C23.1864 26.0233 23.5413 26.3495 23.4337 25.866C23.3856 25.6508 23.4291 25.3038 23.1566 25.32C22.504 25.3593 22.346 24.6884 21.8675 24.5057C21.6042 24.2419 21.6202 23.9019 21.6225 23.5525C21.4004 23.8764 21.6385 24.1401 21.7003 24.4224C21.8812 24.9683 21.6889 25.3825 21.1508 25.4727C20.56 25.5722 20.6631 25.0239 20.6104 24.6722C20.5692 24.3877 20.473 24.154 20.2143 24.0198C20.1479 24.0337 19.9899 23.8764 20.054 24.1239C20.1891 24.8758 19.8342 25.5606 19.754 26.2824C19.6098 27.5825 19.5479 28.7092 20.8943 29.3986C21.0294 29.468 21.0844 29.6276 21.0226 29.7942C20.6745 30.0533 20.489 30.7034 19.8731 30.2615Z" fill="#EEA463"/>
<path d="M8.9211 33.5674C8.541 32.8016 7.29536 32.7276 7.51747 31.2678C6.76642 32.2857 6.6382 32.996 6.97479 33.9213C7.4213 35.1428 7.53121 36.4569 6.90381 37.6714C6.66796 38.1295 6.81451 38.5228 6.92442 38.9623C6.40464 38.8952 6.54432 38.1781 6.05659 38.2845C5.95813 38.3053 5.93524 38.6824 5.8757 38.8929C5.03535 36.1376 5.62154 33.5026 6.55576 30.9C6.78016 30.9393 6.97708 30.7728 7.20148 30.8121C7.42817 30.8537 7.65715 30.8468 7.88612 30.8745C8.2273 30.8676 8.46773 31.3766 8.86844 31.0642C9.07223 30.8769 9.24854 30.6525 9.54621 30.6062C9.82327 30.6201 9.96753 30.8098 10.0912 31.0272C10.1484 31.0504 10.1049 31.2308 10.1896 31.1429C10.2812 31.0457 10.3339 30.9 10.4415 30.8005C10.5629 30.7034 10.6957 30.6363 10.856 30.664C11.291 31.0249 11.1307 31.3673 10.8125 31.6889C10.6178 31.8855 10.4438 32.0683 10.7094 32.3343C10.5491 33.3245 10.453 34.3308 9.91257 35.3904C9.81869 34.7403 9.96295 34.2429 9.96524 33.7455C9.96753 33.0098 9.69734 33.8519 9.55766 33.7224C9.39738 33.4633 9.11573 33.6923 8.9211 33.5674Z" fill="#EDA05C"/>
<path d="M8.89134 31.1707C8.41048 31.6403 8.0922 31.2632 7.76019 30.9509C7.59761 30.9092 7.43504 30.9347 7.27475 30.9555C7.03891 30.8884 6.77558 31.247 6.55805 30.9046C7.38924 28.2627 8.91881 26.0904 10.9453 24.2512C11.2567 24.7046 11.6643 24.4802 12.0512 24.4131C12.2596 24.5219 12.3626 24.7139 12.4405 24.9244C12.4657 25.0308 12.4725 25.1419 12.4611 25.2506C12.097 26.0904 11.4101 26.7358 11.0689 27.5918C10.8033 27.9203 10.5331 28.2719 10.311 27.5594C10.2629 27.3119 10.5033 26.9741 10.2675 26.833C9.97898 26.6595 9.73626 26.9556 9.51873 27.1476C9.32181 27.3211 9.20732 27.5548 9.07681 27.7792C8.02351 28.6282 8.90736 29.1487 9.40424 29.734C9.45691 29.8312 9.48439 29.9353 9.49355 30.044C9.44546 30.5021 9.15695 30.8306 8.89134 31.1707Z" fill="#EA9954"/>
<path d="M24.8991 33.7108C25.0686 33.4147 25.4029 33.2042 25.3731 32.8016C25.5998 32.6466 25.8242 32.4916 26.0509 32.3366C26.1814 32.0313 26.5134 32.0382 26.7424 31.8832C29.5428 30.4234 32.4417 29.2806 35.6657 29.5906C38.1203 29.8266 40.4627 30.4466 42.0816 32.5749C41.8068 32.8294 41.6511 32.5287 41.5252 32.4037C37.3051 28.228 28.762 30.1065 25.2747 33.9237C25.1762 34.0324 25.0274 34.0925 24.9014 34.1758C24.7686 34.0208 24.7778 33.8658 24.8991 33.7108Z" fill="#F3E8D8"/>
<path d="M24.8991 33.7108C24.9014 33.8658 24.9014 34.0208 24.9037 34.1781C24.5992 34.5691 24.2946 34.9601 23.9901 35.3487C23.8115 36.0289 23.5253 36.6558 23.0627 37.1902C21.7896 39.1289 22.2247 41.0606 23.0834 42.99C23.9649 45.0582 25.435 46.5342 27.5049 47.3624C28.343 47.6979 29.1971 48.0194 30.1267 48.0449C30.445 48.0541 30.8411 48.031 30.9052 48.5168C30.7266 48.7921 30.3671 48.5284 30.1748 48.7667C26.6714 48.7667 23.1772 46.0438 22.156 42.525C22.1056 42.3515 21.9911 42.1988 21.9041 42.0346C22.014 40.5123 21.6866 38.9577 22.3438 37.4771C22.9734 36.0566 23.713 34.7334 24.8991 33.7108Z" fill="#EFE1CD"/>
<path d="M42.0564 40.2139C42.5006 39.152 43.2837 38.2151 43.2334 36.9705C43.5219 36.834 43.0754 36.2186 43.673 36.2834C44.0691 41.0861 41.9328 44.5585 38.0928 47.1334C37.3555 47.6261 36.5678 47.994 35.6748 48.0888C35.6016 48.0009 35.5672 47.8991 35.5695 47.7858C35.6886 47.3971 36.0503 47.3208 36.3526 47.1796C39.3293 45.8031 41.4176 43.5984 42.5121 40.4591C42.6563 40.0473 42.8807 39.6679 43.1029 39.2446C42.7571 39.6147 42.8166 40.3689 42.0564 40.2139Z" fill="#F0E1CD"/>
<path d="M12.3168 25.1719C12.3168 25.0956 12.3168 25.0192 12.3168 24.9429C12.2115 24.8041 12.3214 24.5589 12.0947 24.4802C11.6368 24.7833 11.1605 25.1881 10.9476 24.2489C11.5292 23.4183 12.326 22.8516 13.1938 22.3727C13.3472 22.8215 13.2098 23.453 13.9197 23.5525C13.9975 23.6289 14.0387 23.7237 14.0479 23.8324C14.0044 24.1772 13.7731 24.3992 13.5442 24.6236C13.1595 24.8642 12.8595 25.2992 12.3168 25.1719Z" fill="#EA9F5E"/>
<path d="M11.8566 45.3011C12.8229 45.0536 13.883 44.968 14.3685 43.691C14.2219 44.5932 13.5991 45.7199 15.2775 45.0698C15.4699 45.0582 15.6164 45.1484 15.7446 45.2803C15.7469 45.3613 15.7492 45.4423 15.7515 45.5232C14.4326 45.8286 13.1297 45.8355 11.8566 45.3011Z" fill="#EA9C56"/>
<path d="M35.668 47.8367C35.6702 47.9223 35.6725 48.0055 35.6748 48.0911C33.9163 48.9425 32.0959 49.2594 30.1748 48.7667C30.3419 48.4937 30.6144 48.5446 30.8663 48.533C32.4485 48.1628 33.9964 47.5683 35.668 47.8367Z" fill="#F0E2CC"/>
<path d="M43.673 36.2834C43.5265 36.5124 43.3799 36.7414 43.2334 36.9705C43.2998 35.9572 43.1006 35.0087 42.622 34.1041C42.4915 33.8566 41.9946 33.417 42.764 33.2736C43.1761 34.2429 43.7852 35.1521 43.673 36.2834Z" fill="#F5EADA"/>
<path d="M16.1705 20.9915C16.4567 21.0263 16.743 21.061 17.0292 21.0933C16.0148 21.5537 15.06 22.1136 13.9265 21.9516C14.6318 21.5306 15.3393 21.1165 16.1705 20.9915Z" fill="#ED9D58"/>
<path d="M16.9399 45.315C16.2003 45.2202 16.9262 44.9911 16.8964 44.8315C17.6841 44.6881 18.2405 43.7581 19.1839 44.1421C19.1839 44.2115 19.1839 44.2786 19.1839 44.348C18.5153 44.8593 17.7734 45.197 16.9399 45.315Z" fill="#EA9C56"/>
<path d="M25.838 38.1318C25.8357 37.5511 26.0509 37.0306 26.289 36.5193C26.447 35.8507 26.8684 35.4135 27.4774 35.1405C29.7351 33.4748 32.1646 32.8757 34.9055 33.7663C37.9096 34.7426 38.8507 37.3892 37.067 40.0219C36.7716 40.0358 36.4923 40.0242 36.4007 39.6656C35.4504 40.0982 35.0657 41.2943 33.9529 41.4978C32.8241 41.9698 31.7295 41.6922 30.6327 41.359C30.4129 41.292 30.1931 41.2526 30.1221 40.9866C30.2504 40.6465 30.5869 40.6234 30.8549 40.4938C31.1067 40.4082 31.164 40.1954 31.1869 39.9594C31.8211 39.307 32.7141 39.0803 33.4354 38.5644C33.7354 38.3493 34.1269 38.2683 34.3719 37.9814C33.9117 38.3307 33.4354 38.6986 32.7897 38.5158C32.4966 38.4325 32.2081 38.2937 32.1509 37.9398C32.1028 37.6367 32.2791 37.4077 32.5149 37.2805C33.14 36.9427 33.6942 36.4569 34.4292 36.3458C34.5322 36.2857 34.5666 36.1839 34.5826 36.0728C34.5414 36.1654 34.5574 36.2903 34.4338 36.3389C33.7491 36.5471 33.0462 36.3505 32.3386 36.4916C31.6929 36.6211 31.7204 35.6657 31.2464 35.3904C31.0724 35.2886 31.4983 34.7357 30.8915 34.9393C30.5343 35.0596 30.161 35.129 29.8313 35.321C29.1146 35.7582 28.43 36.2232 28.217 37.1833C28.6658 37.299 28.8948 36.7715 29.2818 36.8964C29.7741 37.1833 29.9275 37.528 29.4764 37.9907C29.2635 38.2105 28.9612 38.414 28.9223 38.7032C28.8811 39.004 28.2376 39.7651 29.3871 39.4852C29.9229 39.3556 30.3099 39.7489 30.2549 40.3943C30.1908 40.4846 30.1061 40.547 30.0053 40.5864C29.1719 40.8593 28.3292 40.7205 27.4866 40.6581C26.818 40.5378 26.6989 39.7026 26.0624 39.5361C25.7303 39.1104 26.1081 38.569 25.838 38.1318Z" fill="#FCBF40"/>
<path d="M35.668 47.8367C34.072 48.1073 32.5241 48.7019 30.8663 48.533C29.8863 48.1559 28.8261 48.1582 27.8232 47.8228C25.5151 47.0524 24.0588 45.3705 22.8384 43.3949C22.7124 43.1913 22.3667 42.7286 23.0834 42.9923C23.1566 43.0664 23.2276 43.1404 23.3009 43.2121C24.3473 44.3804 25.5815 45.1947 27.1866 45.3058C28.7048 45.6551 30.2458 45.4885 31.7776 45.5325C31.4983 46.1802 30.8846 45.8471 30.4381 45.9582C29.9046 46.09 29.3436 45.9258 28.817 45.8263C31.3746 46.1687 33.8064 45.6134 36.174 44.6881C37.5593 44.1467 38.8553 43.4272 40.0002 42.451C40.2887 42.2058 40.6391 42.0161 40.7009 41.5881C41.152 41.13 41.6053 40.672 42.0564 40.2116C42.6151 40.0149 42.7388 39.4296 43.2379 38.8119C42.7731 41.0421 41.9488 42.7887 40.6413 44.3364C39.2789 45.9512 37.5433 46.9876 35.668 47.8367Z" fill="#FBF1DF"/>
<path d="M36.5839 39.5106C36.4808 39.9363 36.9914 39.7674 37.0647 40.0219C35.1413 42.9276 29.8336 43.8205 27.1798 41.6667C26.0692 40.7645 25.4853 39.6193 25.8357 38.1295C26.2982 38.4858 25.7967 39.1636 26.2845 39.5129C26.8592 40.2486 27.5164 40.8917 28.2903 41.4099C29.8954 42.0207 31.5029 42.4417 33.1721 41.6343C33.4492 41.5002 33.7652 41.5649 34.0582 41.4955C34.8047 41.2549 35.1688 40.5517 35.7275 40.0843C35.9931 39.8599 36.1099 39.4111 36.5839 39.5106Z" fill="#FBBC3A"/>
<path d="M40.7032 41.5881C41.1291 42.0137 40.678 42.2104 40.4536 42.3839C37.7791 44.429 34.8665 45.824 31.4365 46.0368C30.4541 46.097 29.5199 46.2381 28.5422 45.8448C29.6344 45.5464 30.7564 46.0599 31.7799 45.5325C35.1711 45.1808 38.1615 43.9038 40.7032 41.5881Z" fill="#F0E2CD"/>
<path d="M27.4774 35.1405C27.0813 35.6009 26.6852 36.059 26.289 36.5193C25.4533 36.4893 24.7847 37.0237 24.0107 37.218C23.6627 37.3059 23.3764 37.3984 23.0627 37.1902C23.0742 36.4222 23.5344 35.8855 23.9901 35.3487C24.3313 35.7281 24.8098 35.6657 25.1579 35.5176C25.9158 35.1984 26.6943 35.1914 27.4774 35.1405Z" fill="#FDFBF1"/>
<path d="M27.1866 45.3058C25.9822 45.6782 23.9031 44.5562 23.3009 43.2121C24.5351 44.0264 25.7487 44.8801 27.1866 45.3058Z" fill="#EFE1CD"/>
<path d="M21.9385 24.4825C22.5269 25.0192 24.0519 24.5357 23.681 26.1251C23.6008 26.4721 23.6466 26.4281 23.2253 26.3333C22.7903 26.2361 22.6277 26.5785 22.717 26.9325C22.8658 27.5108 23.0994 28.0683 23.2963 28.6351C23.1841 29.1464 22.9689 29.3754 22.6529 28.7855C22.4285 28.3645 22.2453 27.9087 22.1766 27.4229C22.1697 27.3119 22.1629 27.1985 22.156 27.0875C22.1491 26.9764 22.1102 26.8677 22.1148 26.7543C22.0369 26.8584 22.1583 26.9417 22.1423 27.0458C22.2041 27.7537 21.9224 28.4524 22.3369 29.1695C22.6895 29.7803 21.911 29.5698 21.7026 29.7988C21.7461 30.2499 21.2928 30.1088 21.1187 30.3008C21.0844 30.1342 21.05 29.9654 21.0157 29.7988C20.2074 29.2945 19.422 28.8572 19.3098 27.6797C19.264 27.2054 19.3785 26.8723 19.5319 26.5415C19.8479 25.8613 18.9343 24.9105 20.0128 24.427C19.8891 24.2905 19.7678 24.154 19.6441 24.0175C19.7334 23.8139 19.8433 23.652 20.1021 23.7839C21.421 23.6983 20.6081 24.8295 20.9768 25.3408C21.4072 25.2136 21.7278 25.0331 21.4759 24.4802C21.6294 24.3345 21.7851 24.3437 21.9385 24.4825Z" fill="#EA9E5B"/>
<path d="M21.7049 29.7988C21.6751 29.6253 21.4141 29.3199 21.9041 29.4356C22.0575 29.4726 22.4147 29.5166 22.1652 29.2806C21.3866 28.5519 21.9545 27.7699 21.943 27.0157C22.2018 26.8862 22.2659 27.1291 22.3918 27.2517C22.5453 27.7468 22.6552 28.2627 22.8658 28.7346C23.0467 29.1418 23.1406 28.6236 23.2986 28.6351L23.3169 28.6537C23.5367 29.1071 23.5207 29.5605 23.3284 30.0163C22.2361 29.2459 23.0627 30.5969 22.6689 30.6131C22.1033 30.6501 22.1743 29.8937 21.7049 29.7988Z" fill="#EEA463"/>
<path d="M19.1839 44.1444C18.3802 44.2393 17.7734 44.9911 16.8964 44.8338C17.1345 44.348 17.9199 44.1791 17.6314 43.3578C17.5307 43.071 18.2038 43.3902 18.2725 42.9854C18.5931 43.1982 18.7488 42.916 18.948 42.7587C19.9372 43.0617 19.6052 43.5938 19.1839 44.1444Z" fill="#EEA768"/>
<path d="M23.3055 31.8809C22.9826 32.7022 21.9499 33.3661 22.9506 34.5344C22.1881 34.4257 21.8789 34.0093 21.9911 33.579C22.1789 32.8687 22.3689 32.0475 23.3055 31.8809Z" fill="#EFA867"/>
<path d="M22.3025 35.203C22.2957 35.6634 21.9339 35.7351 21.6042 35.7628C21.3019 35.7883 21.2241 35.513 21.2699 35.2793C21.3408 34.9184 21.3752 34.4025 21.8125 34.3979C22.1148 34.3956 22.3209 34.8051 22.3025 35.203Z" fill="#EFA867"/>
<path d="M23.3055 31.8809C23.4772 31.594 23.8802 31.3095 23.8619 31.7999C23.8344 32.5425 24.2855 33.3222 23.7726 34.1596C23.2505 33.4078 23.855 32.5125 23.3055 31.8809Z" fill="#EEA969"/>
<path d="M11.8612 39.2908C12.0123 39.2885 12.1634 39.2862 12.3123 39.2839C12.6099 39.7489 12.9099 40.2116 13.2076 40.6766C13.1251 40.7437 13.0427 40.8084 12.9603 40.8755C12.5252 40.4105 12.0512 39.9756 11.8612 39.2908Z" fill="#F1B077"/>
<path d="M17.9726 40.8246C17.7528 41.7037 17.2742 42.023 16.775 42.3307C17.0452 41.8194 17.2765 41.2827 17.9726 40.8246Z" fill="#F6CDA5"/>
<path d="M11.939 44.1953C11.5292 44.0681 10.9384 44.3503 10.6796 43.6331C11.2475 43.617 11.6093 43.8807 11.939 44.1953Z" fill="#F1B177"/>
<path d="M23.3261 30.0186C23.3215 29.5651 23.3192 29.1094 23.3146 28.656C23.4566 28.8202 23.5986 28.9822 23.7382 29.1464C23.6856 29.4772 23.594 29.7895 23.3261 30.0186Z" fill="#F7D2A7"/>
<path d="M19.2434 35.7813C18.8564 35.4713 18.9503 35.1775 19.0259 34.8282C19.3281 35.0873 19.4838 35.3279 19.2434 35.7813Z" fill="#F0AF73"/>
<path d="M15.7446 45.2803C15.5546 45.2896 15.3897 45.2387 15.2775 45.0698C15.1951 44.9564 15.1127 44.8408 15.0302 44.7274C15.1127 44.695 15.2042 44.621 15.2775 44.6372C15.6072 44.7112 15.74 44.9518 15.7446 45.2803Z" fill="#F2B47D"/>
<path d="M18.9457 42.7587C18.9457 43.0687 18.774 43.2514 18.4878 43.2884C18.2954 43.3139 18.2863 43.1288 18.2703 42.9854C18.4969 42.909 18.7213 42.8327 18.9457 42.7587Z" fill="#F1BE8B"/>
<path d="M20.9974 34.6084C20.9378 34.6593 20.86 34.7218 20.7844 34.7866C20.7409 34.7033 20.6722 34.6223 20.6631 34.5344C20.6585 34.4858 20.7409 34.3979 20.8027 34.3771C20.963 34.3239 20.9813 34.4488 20.9974 34.6084Z" fill="#EFA867"/>
<path d="M24.4366 29.7849C24.3725 29.6438 24.2924 29.5466 24.313 29.4819C24.3382 29.3986 24.4458 29.3407 24.5168 29.2713C24.5603 29.35 24.645 29.4333 24.6381 29.505C24.629 29.586 24.5351 29.6577 24.4366 29.7849Z" fill="#EEA463"/>
<path d="M13.9197 23.7862C13.9197 23.7098 13.9197 23.6312 13.9197 23.5548C14.2448 23.6011 14.5952 23.1546 14.9112 23.6682C15.2111 24.1517 15.5134 23.9597 15.7515 23.5525C16.34 22.5485 16.1843 23.7839 16.4384 23.7862C16.4888 23.8394 16.5071 23.8903 16.4865 23.9412C16.4682 23.9921 16.4499 24.0175 16.4316 24.0175C16.0721 24.228 16.6285 25.2922 15.5317 24.9174C15.2271 24.8133 14.9043 25.5976 14.7097 26.0395C14.6089 26.2685 14.9409 26.3934 15.0806 26.5623C15.2775 26.8029 15.5592 26.7219 15.6462 26.5183C15.8889 25.9377 16.6353 25.8798 16.8346 25.2436C16.9857 24.7624 17.4299 24.8596 17.8146 24.9498C17.9543 25.0933 17.9451 25.2436 17.8329 25.3986C17.32 25.4056 17.0796 25.8266 16.7636 26.1274C16.6354 26.25 16.4499 26.4582 16.7178 26.56C17.4139 26.8237 17.1345 27.4946 17.3543 27.9527C17.1277 28.4871 16.6582 28.4107 16.2209 28.4154C16.0263 28.2719 16.0217 28.073 16.0652 27.8601C15.9232 28.1886 16.0698 28.6074 15.7469 28.8781C15.3714 28.4894 14.9569 28.0707 14.7852 28.996C14.6776 29.5813 13.8166 29.9885 14.3799 30.7265C14.3044 30.7936 14.2425 30.8745 14.1945 30.9625C14.3112 30.9278 14.2677 30.7635 14.3822 30.7265C14.5356 30.7265 14.6868 30.7265 14.8402 30.7265C14.8608 31.5431 14.918 32.3204 13.6907 32.2626C13.1068 32.2349 12.887 31.5917 12.326 31.6519C12.0627 30.4003 11.1582 29.4819 10.011 29.3014C9.80037 29.4217 9.77748 29.6878 9.60803 29.8404C9.51186 29.8913 9.42714 29.8775 9.35158 29.8011C8.86386 29.7109 8.59824 29.3338 8.37385 28.9544C8.01893 28.3483 8.14716 27.8995 8.88675 27.7375C9.10886 27.6033 9.27602 27.4067 9.45462 27.2216C9.94005 26.7196 10.2652 26.9139 10.4873 27.4854C10.6407 28.2766 10.7873 27.3489 10.9384 27.483C11.4009 28.1516 11.8291 28.1563 12.3329 27.4923C12.8137 26.8607 13.2969 26.2269 13.8372 25.6416C14.1326 25.3223 14.2883 24.9406 14.1693 24.4918C14.0708 24.2604 14.0433 24.006 13.9197 23.7862Z" fill="#EDA05C"/>
<path d="M9.80037 28.8804C11.2338 28.7392 11.6734 30.0556 12.4909 30.7982C12.7084 30.9972 12.4428 31.3743 12.3214 31.6519L12.3168 31.6565C12.097 31.7629 11.9253 32.0151 11.6276 31.8832C11.6276 31.8069 11.6276 31.7282 11.6276 31.6519C11.433 31.3904 11.836 31.3303 11.8108 31.1198C11.6207 31.2632 11.5429 31.483 11.3963 31.6495C11.1078 31.8207 10.7209 31.8901 10.7094 32.339C10.24 32.2857 10.2492 32.0729 10.501 31.7513C10.7369 31.4529 11.1948 31.1915 10.7209 30.7334C10.4392 30.361 10.208 29.9492 9.87823 29.6137C9.73855 29.3801 9.96982 29.1094 9.80037 28.8804Z" fill="#EEAA6F"/>
<path d="M11.6299 31.8809C11.8589 31.8045 12.0879 31.7305 12.3191 31.6542C12.2939 31.8346 12.239 32.0174 12.2459 32.1978C12.2573 32.5726 12.1588 32.8826 11.7787 32.9913C11.5704 33.0515 11.4582 32.8641 11.3551 32.6952C11.1124 32.3043 11.2658 32.059 11.6299 31.8809Z" fill="#EDA05C"/>
<path d="M14.8356 30.7242C14.7554 30.5229 14.6753 30.3239 14.5768 30.0764C14.9478 30.1528 15.305 30.2291 15.6645 30.3031C15.5477 30.7635 15.1722 30.7057 14.8356 30.7242Z" fill="#EDA05C"/>
<path d="M15.7446 28.8757C15.7515 28.6837 15.7469 28.4917 15.7675 28.302C15.7881 28.11 15.8591 27.8625 16.0675 27.9087C16.2804 27.955 16.182 28.2349 16.2186 28.4131C16.2003 28.7138 16.0515 28.8757 15.7446 28.8757Z" fill="#EEB178"/>
<path d="M11.3986 31.6472C11.4032 31.6102 11.3986 31.5709 11.4124 31.5385C11.504 31.2771 11.4879 30.9301 11.8635 30.8861C11.9482 30.8769 12.113 30.9671 12.1291 31.0365C12.2207 31.4367 11.7055 31.3627 11.6299 31.6495C11.5521 31.6495 11.4742 31.6472 11.3986 31.6472Z" fill="#EDA05C"/>
<path d="M13.0038 33.963C13.0358 33.727 13.077 33.4841 13.4022 33.6229C13.4778 33.6553 13.5693 33.8196 13.5464 33.8843C13.4228 34.2175 13.1984 34.0254 13.0038 33.963Z" fill="#EDA96E"/>
<path d="M8.9211 33.5674C9.1455 33.5651 9.48439 33.1047 9.55766 33.727C9.34242 33.6877 9.03559 34.0208 8.9211 33.5674Z" fill="#F5D6BC"/>
<path d="M13.0038 33.9607C12.9694 34.1689 13.0954 34.4326 12.8091 34.546C12.7702 34.5622 12.6534 34.4997 12.6443 34.4581C12.5847 34.1689 12.8114 34.0763 13.0038 33.9607Z" fill="#EDA96E"/>
<path d="M21.9385 24.4825C21.7828 24.4825 21.6294 24.4802 21.4736 24.4802C21.3454 24.2419 21.3065 23.9944 21.3042 23.7145C21.3019 23.4669 20.7592 23.1569 21.2012 22.9904C21.5652 22.8539 21.8583 23.231 21.8583 23.6983C21.8629 23.9597 21.911 24.2211 21.9385 24.4825Z" fill="#F2B479"/>
<path d="M16.4338 24.0152C16.4361 23.9389 16.4384 23.8625 16.4384 23.7862C16.7018 23.689 16.9536 23.4392 17.3337 23.77C17.0452 24.0152 16.8804 24.4154 16.4338 24.0152Z" fill="#F2B37A"/>
<path d="M15.7881 25.7757C15.7355 25.8197 15.6347 25.9076 15.5317 25.9955C15.4767 25.9215 15.3622 25.8035 15.3783 25.778C15.4561 25.667 15.5569 25.5398 15.6759 25.4958C15.7973 25.4542 15.8431 25.5722 15.7881 25.7757Z" fill="#EDA05C"/>
<path d="M17.9772 26.1713C17.9222 26.2361 17.8466 26.3703 17.7344 26.4513C17.6406 26.5183 17.4963 26.4651 17.5215 26.331C17.549 26.1945 17.6314 26.0418 17.739 25.9539C17.8237 25.8845 17.9451 25.9539 17.9772 26.1713Z" fill="#F4C799"/>
<path d="M17.8329 25.3963C17.826 25.246 17.8215 25.0956 17.8146 24.9475C17.968 24.9128 18.1809 24.7254 18.2428 25.0123C18.3023 25.2992 18.0665 25.3732 17.8329 25.3963Z" fill="#F2C397"/>
<path d="M20.0998 23.7839C19.9464 23.8625 19.7952 23.9389 19.6418 24.0175C19.5113 23.9227 19.4151 23.7816 19.5502 23.6613C19.7609 23.4739 19.9555 23.571 20.0998 23.7839Z" fill="#F2BC85"/>
<path d="M10.0225 29.5628C10.7438 29.6531 10.7575 30.1759 10.7232 30.7288C10.6499 30.8075 10.5766 30.8884 10.5033 30.9671C10.1416 30.5877 10.2377 31.2308 10.0271 31.1845C9.87365 31.0272 9.72023 30.8699 9.56682 30.7149C9.32639 30.5414 9.52789 30.2314 9.35845 30.0371C9.35387 29.9584 9.35158 29.8775 9.347 29.7988C9.41798 29.7965 9.48897 29.7965 9.55995 29.7965C9.69276 29.6762 9.76145 29.4287 10.0225 29.5628Z" fill="#EFB684"/>
<path d="M9.35845 30.0394C9.95837 30.0995 9.46836 30.5021 9.56682 30.7172C9.347 30.8745 9.26915 31.2493 8.89134 31.1707C9.04704 30.7936 9.20274 30.4165 9.35845 30.0394Z" fill="#F3C599"/>
<path d="M10.0271 31.1892C10.05 30.9717 10.0545 30.7103 10.3087 30.6594C10.4804 30.6247 10.4736 30.8422 10.5033 30.9717C10.3797 31.1221 10.3362 31.4529 10.0271 31.1892Z" fill="#F2CDAB"/>
<path d="M7.27475 30.9532C7.36634 30.8491 7.4442 30.6802 7.55182 30.6571C7.74416 30.6154 7.72355 30.8237 7.76019 30.9509C7.5999 31.1892 7.43962 31.1984 7.27475 30.9532Z" fill="#EEB078"/>
<path d="M14.3753 24.2512C14.7761 24.8504 14.4784 25.3316 14.1052 25.7873C13.5098 26.516 12.8778 27.217 12.3168 27.9712C12.0512 28.3298 11.7558 28.4593 11.3551 28.3922C10.7918 28.2974 10.9933 27.8254 10.9361 27.4807C11.1124 26.5369 11.8291 25.9238 12.3168 25.1696C12.6992 24.9383 13.0793 24.7069 13.4617 24.4756C13.7525 24.346 13.9792 23.9527 14.3753 24.2512Z" fill="#F0AE73"/>
<path d="M10.485 27.4854C9.83243 26.7936 9.47294 28.0175 8.88447 27.7375C8.87531 27.2517 9.22564 26.9857 9.5485 26.7404C9.83472 26.5207 10.1942 26.1806 10.5491 26.4559C10.9292 26.7474 10.6224 27.143 10.485 27.4854Z" fill="#F0AB6C"/>
<path d="M12.0924 24.4802C12.2527 24.4293 12.5275 24.2974 12.555 24.3391C12.7519 24.626 12.3306 24.7069 12.3145 24.9429C12.1222 24.848 12.0901 24.6722 12.0924 24.4802Z" fill="#F1BB84"/>
<path d="M14.3753 24.2512C14.0708 24.3275 13.7663 24.4016 13.4617 24.4779C13.6151 24.2466 13.7663 24.0175 13.9197 23.7862C14.1395 23.8741 14.2929 24.0268 14.3753 24.2512Z" fill="#EEA463"/>
<path d="M34.5208 36.2834C34.0285 36.79 33.4034 37.0884 32.7851 37.3938C32.5493 37.5095 32.2333 37.6344 32.3638 37.9652C32.4623 38.2151 32.7645 38.3192 33.0347 38.3354C33.7171 38.377 34.1498 37.9305 34.5872 37.4956C34.6879 37.3938 34.8253 37.329 35.0703 37.1648C34.9971 37.8657 34.5734 38.2058 34.1796 38.3747C33.2431 38.7726 32.6409 39.7813 31.5212 39.8345C31.4479 39.8391 31.3861 40.0774 31.3174 40.2093C31.1388 40.4499 30.848 40.4684 30.603 40.5748C30.4312 40.591 30.2778 40.5586 30.1771 40.399C29.5978 39.5708 29.5978 39.5708 28.6956 39.9895C28.2102 39.1127 28.501 38.3724 29.2268 37.8634C29.7672 37.484 29.3894 37.255 29.2497 36.9519C29.1032 36.4106 29.4421 36.1191 29.8084 35.8415C30.2961 35.6449 30.6991 35.1822 31.3036 35.3487C31.7273 35.3973 31.9471 35.6934 32.0707 36.059C32.1165 36.1908 32.1371 36.4569 32.2608 36.3296C33.0164 35.5546 33.772 36.4684 34.5139 36.2834H34.5208Z" fill="#FBBB3A"/>
<path d="M34.0674 41.5927C32.0845 42.5852 30.0992 42.606 28.114 41.595C28.1873 41.0259 27.3492 41.0097 27.4271 40.4406C28.2697 40.4406 29.11 40.4429 29.9527 40.4429C30.0717 40.5725 30.3168 40.6372 30.1748 40.8964C31.2579 40.975 32.247 42.1178 33.4377 41.1832C33.5385 41.1046 33.8499 41.2966 34.0628 41.3637C34.1224 41.4146 34.1407 41.4655 34.1224 41.5164C34.1063 41.5672 34.0857 41.5927 34.0674 41.5927Z" fill="#FCC348"/>
<path d="M29.9412 36.0404C29.5817 36.244 29.4329 36.6096 29.252 36.9496C29.1329 37.0399 29.0185 37.137 28.8948 37.2226C28.6063 37.4216 28.3911 38.0231 28.0293 37.7408C27.6331 37.4308 27.9033 36.8941 28.1277 36.4985C28.4941 35.8531 29.0345 35.3996 29.7168 35.1174C29.8748 35.4968 29.8748 35.4968 29.2337 35.9734C29.6184 35.7883 29.6184 35.7883 29.9412 36.0404Z" fill="#FCD990"/>
<path d="M29.9412 36.0404C29.2451 35.5292 29.2108 36.6257 28.6956 36.561C28.5903 35.7582 29.7695 35.8785 29.7168 35.1174C30.0351 34.8074 30.4541 34.7449 30.8594 34.664C31.5212 34.5344 31.4021 34.9531 31.3082 35.3441C30.8526 35.5778 30.3969 35.8091 29.9412 36.0404Z" fill="#FDD179"/>
<path d="M34.0674 41.5927C34.0674 41.5164 34.0674 41.44 34.0651 41.3637C34.7887 40.6627 35.5168 39.9617 36.2381 39.2584C36.8403 38.6685 36.4579 39.4458 36.5862 39.5129C36.0595 40.0427 35.4871 40.5378 35.02 41.1161C34.7452 41.4539 34.4796 41.6251 34.0674 41.5927Z" fill="#FDCF65"/>
<path d="M27.4271 40.4406C27.6904 40.8131 28.3063 40.8154 28.3819 41.3984C28.4185 41.6852 28.2125 41.5464 28.114 41.5973C27.3721 41.0213 26.5707 40.5008 26.2868 39.5152C27.0515 39.3394 26.8615 40.3619 27.4271 40.4406Z" fill="#FDCD61"/>
<path d="M34.0651 39.7396C33.4377 40.2093 32.7828 40.6025 31.8372 40.6118C32.4188 39.9062 33.25 39.9316 33.8338 39.5106C34.0514 39.4435 34.1361 39.5129 34.0651 39.7396Z" fill="#FED678"/>
<path d="M35.1253 39.5592C35.3955 39.1983 35.6634 38.8397 36.1167 38.2336C35.9725 39.0687 35.7115 39.4458 35.1253 39.5592Z" fill="#FECF61"/>
<path d="M30.1748 40.8964C30.1015 40.746 30.026 40.5933 29.9527 40.4429C30.0282 40.429 30.1038 40.4128 30.1771 40.399C30.3305 40.4059 30.4816 40.4105 30.635 40.4175C30.88 40.3249 31.1273 40.2324 31.0815 40.6696C30.8022 40.8293 30.5068 40.9357 30.1748 40.8964Z" fill="#FEDE8A"/>
<path d="M31.0815 40.6673C30.9991 40.4637 30.8182 40.4383 30.635 40.4175C30.8091 40.1653 31.0724 40.2162 31.3174 40.2093C31.6654 40.584 31.3769 40.628 31.0815 40.6673Z" fill="#FCC348"/>
<path d="M34.0651 39.7396C33.9873 39.6633 33.9117 39.5869 33.8338 39.5106C33.9918 39.3209 34.1498 39.1312 34.3903 38.8443C34.5093 39.3278 34.2872 39.5337 34.0651 39.7396Z" fill="#FED773"/>
<path d="M34.5185 36.2787C34.4406 36.1399 34.3628 36.0034 34.2826 35.8646C34.4727 35.7837 34.6627 35.823 34.7635 35.9849C34.9352 36.2625 34.6811 36.2463 34.5208 36.2834L34.5185 36.2787Z" fill="#FED067"/>
<path d="M20.8875 27.1707C21.2584 27.3234 21.2721 27.5848 21.2241 27.8578C21.2035 27.9758 21.0935 28.0684 20.9882 27.9712C20.7776 27.7769 20.7363 27.5224 20.8875 27.1707Z" fill="#F2BF8D"/>
<path d="M22.3896 27.2517C22.2407 27.1731 22.0896 27.0944 21.9408 27.0157C21.9751 26.8492 22.0095 26.6803 22.0438 26.5137C22.3071 26.6895 22.3644 26.9625 22.3896 27.2517Z" fill="#F1B479"/>
<path d="M14.3776 30.7242C14.357 31.0041 14.4372 31.3072 14.1464 31.5316C14.199 31.2586 13.6312 30.856 14.3776 30.7242Z" fill="#EC9D58"/>
<path d="M10.0225 29.5628C9.86907 29.6415 9.71565 29.7201 9.56224 29.7965C9.5256 29.4587 9.63322 29.1603 9.80266 28.8781C10.0843 29.0377 10.0225 29.3107 10.0225 29.5628Z" fill="#F3C599"/>
</svg>
