<svg width="47" height="48" viewBox="0 0 47 48" fill="none" xmlns="http://www.w3.org/2000/svg">
<path d="M4.71855 43.5293C5.90914 43.5028 6.67514 44.0183 7.20477 44.8819C8.25966 46.6091 9.46775 47.0409 11.096 45.556C11.5863 45.111 12.3479 44.3135 12.9213 45.1375C13.3634 45.7675 12.3873 46.2169 11.9452 46.6311C9.9755 48.4816 8.4041 48.4949 6.7583 46.4328C5.34449 44.6616 4.17579 44.9876 2.78386 46.3491C2.0485 47.0673 1.06365 48.4993 0.166332 47.552C-0.529633 46.8162 1.14681 46.0892 1.72897 45.3445C2.50372 44.362 3.5236 43.6262 4.71855 43.5293Z" fill="white"/>
<path d="M43.8589 1.00216C41.2151 -0.685357 38.6457 -0.227128 36.7811 2.26669C31.5154 9.28551 26.3154 16.3572 20.9665 23.3143C17.119 28.3196 13.7442 33.4659 13.7398 40.1322C13.556 42.1502 14.2432 42.9388 15.7708 42.1898C19.7365 40.2512 23.8116 38.5592 26.5211 34.6114C29.9134 29.6723 33.7302 25.0283 37.3282 20.2257C40.2653 16.3043 43.2768 12.427 45.9993 8.36024C47.9078 5.50072 47.028 3.02453 43.8589 1.00216ZM18.2745 29.2669C19.9641 26.8876 21.6449 24.4952 23.3958 22.1644C26.416 18.1372 29.48 14.141 32.544 10.1491C33.1612 9.34279 33.8309 8.55852 34.5663 7.86236C35.1003 7.35567 35.6168 7.5231 35.9319 8.31618C35.6605 8.75238 35.4242 9.19739 35.1309 9.60275C30.2548 16.2471 25.3699 22.887 20.4762 29.5269C20.218 29.8793 19.9422 30.2274 19.6183 30.5138C19.1325 30.9412 18.5197 31.0513 18.0294 30.6063C17.4954 30.1261 18.0032 29.6546 18.2745 29.2669ZM22.249 36.9907C22.1396 37.6868 18.9749 39.5242 18.0207 39.2642C16.5324 38.8633 15.4075 38.0173 15.5826 36.202C15.7227 35.4794 15.8146 34.7568 16.0072 34.0563C16.3749 32.7168 16.4186 31.3421 18.4015 33.1266C19.4826 34.0959 21.019 34.6202 21.82 36.0434C21.9907 36.3562 22.3146 36.5721 22.249 36.9907ZM22.7392 32.664C21.785 33.3733 20.8308 32.8755 20.1611 32.2762C19.4739 31.6682 20.288 31.0954 20.6688 30.6196C25.8207 24.1603 30.5174 17.3574 35.4373 10.7175C35.7831 10.2504 36.1333 9.77458 36.5228 9.3472C36.9212 8.90659 37.4202 8.90659 37.9148 9.2018C38.4269 9.51022 38.8821 9.87152 38.8734 10.7615C38.6676 11.1052 38.405 11.6251 38.0636 12.0833C33.2487 18.6219 28.4208 25.1473 23.5928 31.6726C23.3301 32.0207 23.0806 32.4084 22.7392 32.664ZM40.6549 13.5109C39.5781 14.9869 38.5188 16.4718 37.4202 17.9346C33.4763 23.1954 29.5238 28.4474 25.5669 33.6994C25.1335 34.2722 24.744 34.911 24.0392 35.0873C23.2076 34.8538 23.015 34.3162 23.3345 33.7082C23.7766 32.8755 24.2931 32.0647 24.8753 31.3201C29.5982 25.275 34.1854 19.1242 38.5319 12.7971C38.6545 12.6165 38.7771 12.4358 38.9171 12.264C39.3855 11.6956 39.8757 10.9862 40.703 11.5943C41.5128 12.1891 41.1145 12.8852 40.6549 13.5109ZM42.2438 10.4399C41.898 10.691 41.5434 10.5104 41.2589 10.2769C39.7532 9.03877 38.2431 7.80508 36.768 6.53174C36.3609 6.17925 36.0501 5.65053 36.8774 5.39938C37.7966 5.1174 42.4232 8.85372 42.4801 9.98167C42.4276 10.083 42.3882 10.3386 42.2438 10.4399Z" fill="white"/>
</svg>
