<svg width="38" height="60" viewBox="0 0 38 60" fill="none" xmlns="http://www.w3.org/2000/svg">
<path d="M34.8294 0.378805C35.5976 -0.410239 36.0166 0.187289 36.4395 0.777157C36.8934 1.01464 36.0748 2.0335 37.1417 1.89178C37.9837 2.12159 38.1117 2.24033 37.9255 3.11747C37.584 4.74536 36.9827 6.32344 36.1213 7.72917C33.518 11.9885 32.3385 16.7534 30.9806 21.4493C27.0425 35.0393 21.1413 47.6716 12.5009 59.0017C11.6435 60.1239 10.9334 60.3997 9.69965 59.3119C7.49979 57.3661 4.75674 56.1059 2.58403 54.095C2.71207 53.6546 3.01081 53.4745 3.46476 53.5282C5.61031 54.8228 7.62006 56.3166 9.6143 57.8181C10.7162 58.6455 11.2826 58.6071 12.0858 57.5385C18.2469 49.3608 23.0269 40.4745 26.5886 30.9025C29.0988 24.1535 30.6081 17.0828 33.4598 10.4487C33.5645 10.2074 33.5451 9.95074 33.4365 9.70944C33.2968 9.48728 33.1649 9.26129 33.1959 8.98551C33.3085 8.73271 33.5374 8.63695 33.7818 8.55651C33.6266 8.48757 33.5025 8.61014 33.3589 8.6178C32.7265 8.64844 32.1135 8.44926 32.0359 7.81726C31.9234 6.92863 32.8002 7.20441 33.2735 7.04354C35.0777 6.43069 36.3774 5.40034 36.5287 3.3856C36.1718 3.35495 35.811 3.72649 35.4618 3.38177C35.2173 3.01023 35.1979 2.60038 35.2251 2.17905C35.2639 1.78836 35.2911 1.39767 35.0738 1.03762C34.9458 0.834611 34.8488 0.620114 34.8294 0.378805Z" fill="#CCCCD2"/>
<path d="M4.59367 49.0542C4.82646 48.5142 4.60143 47.7711 5.31532 47.4379C6.07188 47.1429 6.06024 46.1968 6.71982 45.8215C6.92933 45.7487 7.19704 45.9785 7.34059 45.7946C7.43759 45.6721 7.13108 45.5878 7.0884 45.4231C6.96813 44.9941 7.0496 44.6264 7.39879 44.3315C7.62382 44.2549 7.85661 44.2932 8.0894 44.2778C8.2058 44.2702 8.31831 44.2319 8.43083 44.2204C8.34159 43.9867 8.14372 44.2587 8.02344 44.1323C7.75573 43.9025 7.70142 43.5961 7.67426 43.2781C8.19416 42.3857 8.4929 41.363 9.25723 40.6084C9.47838 40.4054 9.73057 40.2828 10.0371 40.2713C10.5065 40.3173 10.9294 40.4629 10.9411 41.0144C10.9527 41.5162 10.6268 41.7767 10.1574 41.9184C9.95948 41.9797 9.68013 41.7575 9.55986 42.0754C9.4745 41.9758 9.5133 41.9375 9.67625 41.949C9.80041 41.9605 9.92844 41.9643 10.0526 41.972C10.3475 41.9873 10.4833 42.1903 10.5997 42.4163C10.4251 44.9711 8.71793 46.6833 7.1854 48.4988C6.41719 48.8091 5.7809 49.5254 4.82258 49.2343C4.7411 49.173 4.66738 49.1155 4.59367 49.0542Z" fill="#A6A9AE"/>
<path d="M9.97879 40.6009C9.73824 40.6009 9.49381 40.6048 9.25326 40.6048C10.6927 37.4141 12.1321 34.2235 13.5676 31.0328C14.0293 30.6613 14.4367 30.7034 14.7898 31.1822C14.9062 31.5767 14.7122 31.8487 14.4367 32.09C14.0526 32.3619 14.1147 32.7373 14.2001 33.1204C14.2583 33.4613 14.2466 33.7907 14.1302 34.1201C12.9663 36.4182 11.391 38.456 9.97879 40.6009Z" fill="#95979C"/>
<path d="M14.6698 31.4007C14.4099 30.9717 13.9754 31.0445 13.5719 31.033C14.3711 28.708 15.2014 26.3945 16.3265 24.1998C17.1879 24.3568 16.959 24.9582 16.8775 25.5021C16.6524 25.8085 16.3925 26.1264 17.1103 26.0728C17.4672 26.9844 16.8581 27.6585 16.505 28.371C16.1558 29.0757 15.8377 29.7422 16.3382 30.4968C16.2994 30.9028 16.0161 31.1211 15.7019 31.3203C15.3682 31.4659 15.0346 31.6497 14.6698 31.4007Z" fill="#999B9F"/>
<path d="M18.1652 19.5383C18.9218 16.6004 20.563 14.0724 22.0296 11.464C22.177 11.5636 22.2934 11.6938 22.3749 11.8509C22.8948 12.7701 22.1848 13.4596 21.9209 14.2333C21.8783 14.3942 21.8084 14.5397 21.7192 14.6776C21.3894 15.0109 21.0053 15.3058 20.9199 15.8076C20.8811 15.9608 20.8307 16.1063 20.7725 16.2519C20.5824 16.6004 20.5242 16.9643 20.6483 17.355C20.6406 17.5274 20.5785 17.6768 20.4737 17.8108C20.0935 18.2092 19.6473 18.573 19.6978 19.2012C19.7715 20.1167 19.1973 20.2162 18.4873 20.1588C18.2118 20.0324 17.9984 19.8792 18.1652 19.5383Z" fill="#9C9DA2"/>
<path d="M16.5941 25.6318C16.5669 25.1416 16.7727 24.6096 16.3265 24.1998C16.5283 23.6367 16.7299 23.077 16.9316 22.514C17.2343 22.5178 17.533 22.5063 17.8318 22.4565C18.3167 22.311 18.5883 21.8054 19.1121 21.7288C19.3022 21.7479 19.4341 21.8437 19.5195 22.0122C19.7096 23.0119 19.1819 23.8776 18.9375 24.7854C18.6582 25.8272 18.5922 25.8042 17.5408 25.222C17.4942 25.1952 17.3119 25.6395 17.0674 25.7659C16.8773 25.8234 16.7221 25.7774 16.5941 25.6318Z" fill="#A8A9AD"/>
<path d="M3.46469 53.6663C3.16983 53.808 2.87496 53.9498 2.58009 54.0953C2.34342 54.1911 2.10675 54.283 1.8662 54.3788C1.73041 54.26 1.66057 54.1068 1.64893 53.9268C1.74205 53.3139 2.10287 52.8045 2.63441 52.5977C3.80612 52.1419 2.09899 52.3219 2.53741 52.0767C2.50638 51.6133 2.8284 51.2915 3.01463 50.9162L3.00299 50.9353C3.49185 50.514 3.65481 49.6636 4.55881 49.7977C4.7334 49.9777 4.80324 50.1846 4.70624 50.4067C4.52001 50.6097 4.66356 50.4948 4.76444 50.4374C4.98947 50.311 4.66744 50.4986 4.91187 50.3722C6.38233 51.4409 4.98171 52.1265 4.57821 52.9501C4.26394 53.2718 4.02727 53.7238 3.46469 53.6663Z" fill="#B3B5BA"/>
<path d="M28.5752 3.38572C28.9166 2.75372 29.6615 2.69243 30.1659 2.29025C30.8487 2.06426 31.5277 1.96084 32.1873 2.37452C31.8459 3.876 30.6198 4.37777 29.3434 4.81442C28.8002 4.70334 28.8467 4.2054 28.6877 3.84152C28.6295 3.69597 28.5946 3.54276 28.5752 3.38572Z" fill="#9FA1A6"/>
<path d="M7.67439 44.4272C7.22821 44.7106 7.32521 45.1664 7.30193 45.5839C7.25537 45.7984 7.12346 45.9286 6.89843 45.9593C6.43673 46.3193 6.29705 46.8556 6.10306 47.3688C5.90519 47.8974 5.6142 47.8055 5.31545 47.4416C6.09918 46.0512 6.88679 44.6646 7.67051 43.2743C8.01582 43.4198 8.06626 43.7147 8.06626 44.0365C8.02746 44.2548 7.89554 44.385 7.67439 44.4272Z" fill="#96999F"/>
<path d="M32.1173 2.67299C31.5702 2.03332 30.8177 2.40899 30.1659 2.29025C31.842 1.93786 33.4403 1.40515 34.8293 0.374802C34.9845 0.520353 35.1436 0.665905 35.2988 0.811457C34.5694 1.98353 33.4946 2.58106 32.1173 2.67299Z" fill="#B2B5BA"/>
<path d="M24.7533 7.66823C24.955 6.35826 26.0802 5.63817 26.7398 4.62313C27.0851 4.5427 27.2325 4.7457 27.3373 5.01766C27.4381 5.50028 27.2403 5.90246 26.9803 6.28549C26.4061 6.91749 26.0414 7.8291 24.9667 7.82144C24.8968 7.77165 24.827 7.71802 24.7533 7.66823Z" fill="#999A9E"/>
<path d="M17.7928 22.9856C17.4165 22.9856 17.1101 22.8664 16.9316 22.514C17.242 21.4836 17.5484 20.4461 18.1652 19.5383C18.2855 19.6647 18.4019 19.7873 18.5222 19.9137C18.7938 20.1856 18.6619 20.4997 18.6114 20.8023C18.561 21.0321 18.4912 21.2581 18.4136 21.4803C18.3437 21.7024 18.27 21.9246 18.2002 22.1506C18.1381 22.4647 18.0333 22.7558 17.7928 22.9856Z" fill="#9FA0A4"/>
<path d="M23.566 9.0968C23.8764 8.54907 24.1248 7.9555 24.7533 7.66823L24.7649 7.67576C25.4749 8.34989 25.4051 9.05467 24.8542 9.78243C24.4429 10.1463 24.0045 10.357 23.4885 9.96245C23.3527 9.65986 23.407 9.37258 23.566 9.0968Z" fill="#9B9CA0"/>
<path d="M1.86232 53.9766C1.86232 54.1107 1.8662 54.2447 1.8662 54.3788C1.31139 54.6277 0.760448 54.8767 0 55.2176C0.046558 54.2064 0.70613 53.7966 1.09411 53.245C1.22603 53.3025 1.3463 53.3829 1.44718 53.4825C1.60237 53.6395 1.70713 53.8272 1.86232 53.9766Z" fill="#AEB1B7"/>
<path d="M23.566 9.0968C23.5854 9.40706 23.6086 9.71674 23.628 10.0308C23.7599 10.3641 23.5776 10.6207 23.4263 10.885C23.2633 11.1493 23.112 11.4212 22.9141 11.6664C22.6697 11.8885 22.4214 12.0877 22.0567 11.9422C22.0451 11.7851 22.0373 11.6242 22.0257 11.4672C22.4563 10.6207 22.8095 9.7288 23.566 9.0968Z" fill="#8B8E95"/>
<path d="M1.09802 53.628C1.10578 53.5016 1.10578 53.3752 1.09802 53.245C1.76148 52.4904 2.10678 51.4754 3.01854 50.9162C2.90991 51.3145 2.80515 51.7167 2.69652 52.1151C2.53744 53.0075 2.0641 53.5744 1.09802 53.628Z" fill="#969AA0"/>
<path d="M27.1044 5.01764C26.9841 4.88358 26.8639 4.75335 26.7436 4.61929C27.0346 3.74215 27.8962 3.69214 28.5752 3.38572L28.6408 3.45871C29.1258 4.49289 28.2024 4.68441 27.6398 5.09425C27.4458 5.1517 27.2674 5.12872 27.1044 5.01764Z" fill="#9FA1A6"/>
<path d="M4.58597 49.7935C4.05831 50.1727 3.53065 50.5557 3.00687 50.9349C3.25518 50.0769 3.61601 49.3108 4.59761 49.0542L4.58597 49.0504C4.79936 49.2036 4.82264 49.4066 4.74504 49.6326C4.69072 49.6862 4.63641 49.7398 4.58597 49.7935Z" fill="#95979B"/>
<path d="M37.1417 1.89178C35.7954 2.20203 36.6607 1.15274 36.4395 0.773543C36.6723 1.14891 36.9051 1.52024 37.1417 1.89178Z" fill="#F2F2F2"/>
<path d="M3.46469 53.6663C3.70912 53.3982 3.9573 53.1296 4.20173 52.8653C5.63339 52.6431 6.11061 51.4902 6.62663 50.3986C6.9797 49.6555 7.15429 48.8051 7.8061 48.2383C8.35704 47.7595 8.94677 47.4684 9.13689 48.5677C9.11361 48.7515 9.08645 48.9354 8.92349 49.0618C9.03989 49.0809 9.09033 49.0043 9.14464 48.8511C9.39683 48.1425 9.61023 47.4071 10.3513 47.0087C11.7597 47.3266 11.9653 46.189 12.4115 45.3464C12.7451 44.6378 12.8693 43.7798 13.7927 43.5078C14.7471 42.7801 14.8325 41.0564 14.654 40.7615C13.6181 39.0647 15.0304 38.019 15.2515 36.6975C15.0575 38.0037 13.5211 38.9919 14.6346 40.6657C14.9528 41.1407 14.2583 42.0561 13.7461 42.6384C13.1215 43.0444 12.5511 43.2397 12.5705 42.1634C12.5783 41.6884 12.846 41.202 12.3843 40.796C12.1438 40.5164 12.0196 40.1946 12.0312 39.8269C12.4891 37.5019 14.0371 35.6021 14.623 33.323C14.6812 33.1507 14.7549 32.986 14.8364 32.8251C15.1118 32.3578 15.3369 31.8445 15.9266 31.6645C16.3223 31.6645 16.6133 31.8637 16.8539 32.1548C17.0983 32.4382 17.1449 32.8289 17.3893 33.1392C17.6454 32.7217 17.6686 32.2314 17.8898 31.8101C18.1109 31.3121 18.433 30.9061 18.9451 30.6686C19.1701 30.5422 19.3952 30.4158 19.6047 30.2588C20.854 29.3012 21.1915 28.1062 20.5863 26.6583C22.1421 23.7664 22.8288 20.4341 25.1179 17.9137C25.537 17.3468 25.4632 16.4888 26.1849 16.0981C26.9143 16.2705 27.1083 15.7381 27.4109 15.2555C27.9851 14.34 28.602 13.4246 29.9367 13.6582C30.5381 14.0221 31.0075 14.4664 31.0502 15.0755C31.186 14.0719 31.3412 12.8922 31.1782 11.6933C31.1006 11.4099 31.0463 11.1264 31.023 10.8353C31.2636 9.1155 32.5362 9.49087 33.6613 9.56747C33.9717 9.52151 34.5615 9.17678 34.255 9.93901C29.572 21.6253 27.0152 34.1044 20.7027 45.1855C18.1071 49.7397 15.1933 54.0756 12.1011 58.312C11.2941 59.4189 10.7781 59.4726 9.69946 58.5609C8.00397 57.1169 6.09509 55.9142 4.26381 54.631C3.90686 54.3668 3.43754 54.2332 3.46469 53.6663Z" fill="#EDEDEF"/>
<path d="M36.8428 2.69587C37.8012 2.89888 37.1881 3.52322 37.0834 3.86795C36.3889 6.19677 34.7943 7.44928 32.3073 7.72506C33.1298 9.0312 34.0959 7.78252 35.0116 7.74039C34.8137 8.83585 33.739 8.62136 33.2734 9.18824C31.7835 10.142 31.1938 9.94281 30.1191 8.12342C30.6623 9.47169 30.6623 9.47169 30.1036 10.5786C29.4944 11.4098 29.3121 12.4287 28.8659 13.3326C28.6137 13.6506 28.4857 14.3132 28.0046 14.137C27.2053 13.8459 27.4148 13.03 27.3838 12.3751C27.4847 10.931 28.4779 9.72066 28.4896 8.25748C28.4857 7.52589 28.3382 6.77132 28.7728 6.09718C29.9949 5.09364 30.9998 3.67643 32.9009 3.97136C33.4635 3.84879 32.9281 3.64196 32.9281 3.47342C33.3277 2.10983 34.3908 1.86086 35.6285 1.903C35.6285 2.42392 35.6285 2.94101 35.6285 3.46193C36.4005 3.76453 36.2609 2.67289 36.8428 2.69587Z" fill="#F2F2F2"/>
<path d="M35.6363 1.90324C34.9263 2.51992 33.6964 2.38203 33.3084 3.46601C33.58 3.92948 33.258 4.22824 32.998 4.54616C32.5829 4.48487 32.3734 3.78009 31.7255 4.36613C30.9378 5.07474 29.9368 5.55736 29.029 6.13956C28.8001 6.36172 28.5401 6.36555 28.2685 6.22766C27.9581 5.43479 28.4819 5.03261 29.029 4.64191C30.2744 4.32017 31.0387 3.25534 32.1173 2.67697C33.1765 2.05646 34.2396 1.43595 35.2988 0.815437C35.8885 1.03376 35.904 1.42446 35.6363 1.90324Z" fill="#D3D4D8"/>
<path d="M29.7777 10.3296C30.0687 9.83165 30.6545 9.46777 30.0454 8.7132C29.6652 8.24207 29.3625 7.51815 29.8165 6.51078C30.5808 8.15398 30.833 10.253 33.2812 9.18433C33.4131 9.31073 33.5411 9.43713 33.673 9.56353C33.1609 10.4253 31.1667 9.18816 31.4111 11.1186C30.7438 11.0957 30.0143 11.2106 29.7777 10.3296Z" fill="#BCBEC3"/>
<path d="M36.8428 2.69587C36.6294 3.05592 36.4704 3.46629 36.1911 3.76505C35.7294 4.25916 35.644 3.88379 35.6324 3.46246C36.0165 3.17518 36.2182 2.60777 36.8428 2.69587Z" fill="#B5B5B9"/>
<path d="M12.334 39.827C12.3534 40.1449 12.4078 40.4436 12.7337 40.6084C12.7026 42.2975 11.2554 43.3164 10.7084 44.7719C10.3476 45.7333 9.09825 46.3462 9.64919 47.6906C9.72678 47.8821 9.65695 48.7669 8.84606 48.6443C7.8761 47.8859 7.76746 48.8742 7.56959 49.3415C7.03417 50.6131 6.59187 51.9039 5.54432 52.9151C4.98174 53.459 4.62851 53.3939 4.20173 52.8653C4.50436 52.3788 4.81879 51.9039 5.1059 51.4098C5.45508 50.8123 5.14469 50.6093 4.57048 50.5825H4.5666C4.57436 50.3182 4.58212 50.0577 4.58988 49.7934C5.5676 49.5828 6.30089 49.0006 6.9333 48.2728C8.31064 46.4879 9.65306 44.6761 10.4329 42.535C11.1158 41.6655 10.8675 40.1564 12.334 39.827Z" fill="#D9DADC"/>
<path d="M12.334 39.827C11.4455 40.5547 11.5076 41.9375 10.429 42.535C10.0954 42.0026 9.56384 42.1673 9.13317 42.2784C8.80339 41.317 11.7327 42.2707 9.98286 40.6007C10.4834 38.8158 11.4339 37.3028 12.6289 35.8703C13.0596 35.3532 13.0984 34.4875 13.8239 34.0968C14.3128 33.7866 14.0295 32.6566 15.081 32.9477C14.693 35.4451 13.141 37.4905 12.334 39.827Z" fill="#B8BABE"/>
<path d="M6.92922 48.2732C6.59168 49.4491 6.11074 50.4063 4.58597 49.7935C4.58597 49.5445 4.58192 49.2997 4.58192 49.0507C5.52472 49.2691 6.05626 48.2617 6.92922 48.2732Z" fill="#B3B5BA"/>
<path d="M7.67439 44.4272C7.80631 44.2969 7.93822 44.1667 8.06626 44.0365C8.49692 43.8718 8.58231 43.0942 9.42035 43.4504C9.02461 44.1628 8.62107 44.6991 7.67439 44.4272Z" fill="#C6C9CA"/>
<path d="M6.89843 45.9593C7.03422 45.8329 7.16613 45.7065 7.30193 45.5839C7.58904 45.5188 7.88006 45.4535 8.16716 45.3884C8.14776 45.4956 8.16716 45.6489 8.10121 45.7063C7.7559 46.0051 7.45712 46.6181 6.89843 45.9593Z" fill="#C5C8C9"/>
<path d="M15.081 32.9477C14.6619 33.3308 14.2429 33.7138 13.8239 34.0968C13.8588 33.7138 13.8898 33.3312 13.9247 32.9443C13.9906 32.454 14.3243 32.1974 14.7511 32.0212C14.9334 32.0251 15.0848 32.094 15.205 32.2319C15.2555 32.4962 15.2555 32.749 15.0654 32.9635L15.081 32.9477Z" fill="#D3D4D6"/>
<path d="M14.6581 32.1936C14.4137 32.4426 14.1691 32.6954 13.9247 32.9443C13.3815 32.5613 13.3506 32.1974 13.9714 31.8604C14.1809 32.0098 14.4874 31.9638 14.6581 32.1936Z" fill="#B8BABE"/>
<path d="M14.6581 32.1936C14.4292 32.0825 14.2001 31.9712 13.9712 31.8639C14.204 31.7107 14.4368 31.5575 14.6735 31.4043C14.914 31.3047 15.1546 31.2051 15.3951 31.1055C15.9266 31.6686 15.4455 31.9061 15.0498 32.1742C14.914 32.178 14.7862 32.186 14.6581 32.1936Z" fill="#E3E5E4"/>
<path d="M16.6019 32.1855C16.3497 32.0553 16.0936 31.9289 15.8414 31.7986C15.6086 31.3122 16.0626 31.0134 16.1751 30.6227C15.7405 30.2474 14.8365 30.1976 15.5388 29.1864C16.1712 28.2748 16.8075 27.2904 16.9433 26.126C16.7726 25.9574 16.7803 25.7966 16.9666 25.6433C17.1567 25.2641 17.3468 24.8811 17.6417 24.2951C17.7503 24.8811 17.8279 25.2986 17.9986 26.2102C18.5457 24.4368 18.9453 23.1383 19.3449 21.8398C19.3178 21.2347 19.5738 20.8057 20.1558 20.5797C20.6097 20.6218 20.7417 20.9359 20.796 21.3151C20.7999 21.4875 20.7766 21.656 20.73 21.8245C20.633 22.1769 20.3149 22.4987 20.5632 22.9085C20.6408 23.0464 20.6873 23.1881 20.6951 23.3452C20.6485 23.8699 20.1791 24.1342 19.9579 24.5555C19.9075 24.6743 19.8027 24.8237 19.8454 24.9156C20.8348 27.0529 19.438 28.9872 19.3216 31.0249C18.7203 30.9713 18.5573 31.542 18.181 31.8063C18.115 31.7948 18.0452 31.7872 17.9792 31.7795C17.6882 31.722 17.4438 31.8408 17.2032 31.9748C17.0248 32.0897 16.8269 32.1817 16.6019 32.1855Z" fill="#DFE0E2"/>
<path d="M16.1751 30.6227C16.0626 31.0134 15.9539 31.408 15.8414 31.7986C15.5815 32.1855 15.3214 32.5766 15.0654 32.9635C15.0576 32.6992 15.05 32.4347 15.0461 32.1705C15.1625 31.8142 15.2789 31.458 15.3914 31.1018C15.6552 30.9409 15.9151 30.7836 16.1751 30.6227Z" fill="#B8BABE"/>
<path d="M16.9744 25.6438C16.9666 25.8047 16.9589 25.9655 16.9511 26.1226C16.6369 26.3945 16.3187 26.6665 15.9928 26.9538C15.7096 26.2911 16.1131 25.9464 16.5981 25.6361C16.7222 25.6515 16.8464 25.6553 16.9744 25.6438Z" fill="#C5C6C7"/>
<path d="M20.1171 20.6951C19.861 21.0782 19.6049 21.4574 19.3489 21.8404C19.2131 21.8404 19.0773 21.8404 18.9415 21.8404C18.8755 21.8059 18.8096 21.7714 18.7436 21.7408C18.5341 21.6604 18.3207 21.5914 18.15 21.442C18.1539 21.1931 18.1577 20.9403 18.1616 20.6913C19.8726 20.3312 19.7407 18.6459 20.4662 17.5773C20.4701 17.47 20.4779 17.3589 20.4895 17.2517C20.3887 17.0717 20.4119 16.8916 20.5516 16.7537C20.7728 16.5316 21.0676 16.4435 21.3586 16.3516C21.0405 16.3784 20.7301 16.3745 20.4973 16.1026C20.5012 15.9685 20.505 15.8306 20.505 15.6966C20.8271 15.2523 21.4634 15.099 21.6302 14.513C21.6341 14.4134 21.6341 14.3138 21.6341 14.2142C21.8669 13.6014 22.379 13.3792 22.9765 13.2796C23.1744 13.318 23.3179 13.4252 23.3994 13.6091C23.4925 15.3825 22.2898 16.6886 21.6845 18.2131C21.1103 19.006 21.1181 20.1627 20.1171 20.6951Z" fill="#AFB1B5"/>
<path d="M23.2093 13.4173C22.6855 13.6816 22.1617 13.9459 21.6379 14.214C21.0676 13.3292 22.8368 12.8657 22.0608 11.9426C22.3053 11.7894 22.5497 11.6324 22.7941 11.4791C23.3567 11.1804 23.7292 11.3374 23.5623 11.9733C23.4382 12.4482 23.5623 12.9921 23.2093 13.4173Z" fill="#C7C9CB"/>
<path d="M20.4701 17.5729C20.2878 19.0361 20.086 20.4801 18.1655 20.687C18.2858 20.4265 18.4022 20.1699 18.5225 19.9094C18.7591 19.8481 19.0113 19.8213 19.2247 19.7217C19.4847 19.603 19.345 19.4077 19.3411 19.1817C19.3217 18.4462 19.2596 17.5308 20.4701 17.5729Z" fill="#CACCCE"/>
<path d="M20.4973 16.1026C20.7844 16.1524 21.3004 16.152 21.3198 16.2555C21.4517 16.8683 20.633 16.7955 20.4856 17.2513C19.085 16.8568 20.3576 16.4818 20.4973 16.1026Z" fill="#C3C7C9"/>
<path d="M21.6302 14.513C22.1501 15.7387 21.0366 15.4476 20.505 15.6966C20.5283 14.9765 20.9784 14.6471 21.6302 14.513Z" fill="#C8CCCE"/>
<path d="M17.7928 22.9856C17.8122 22.5834 17.8319 22.1849 17.8513 21.7827C18.2121 21.6256 18.569 21.5529 18.9182 21.8095L18.9415 21.8404C18.6582 22.3192 18.5494 22.9703 17.7928 22.9856Z" fill="#AFB1B5"/>
<path d="M1.09802 53.628C1.80027 53.2986 2.24258 52.7049 2.69652 52.1151C3.29013 52.1419 3.26685 52.3904 2.94095 52.7581C2.58012 53.1603 2.22706 53.5663 1.86623 53.9723C1.54809 53.9915 1.26874 53.923 1.09802 53.628Z" fill="#C2C6CA"/>
<path d="M4.57048 50.5825C4.53168 51.0804 4.43467 51.5363 3.70138 51.586C3.75182 51.0077 4.17084 50.8047 4.5627 50.5825L4.57048 50.5825Z" fill="#9FA2A8"/>
<path d="M29.029 4.64191C29.1066 5.31605 28.4508 5.60721 28.2296 6.1243C27.3993 7.71005 26.5613 9.28814 25.1102 10.4411C24.9162 10.4679 24.7533 10.4104 24.6253 10.2649C24.5321 9.98142 24.5981 9.72862 24.7649 9.48731C24.9667 8.88212 24.9046 8.28077 24.7727 7.67558C25.6922 7.49555 26.053 6.64523 26.6893 6.12813C27.2441 5.95194 27.4653 5.54593 27.4886 5.00202C27.6438 4.32023 28.6836 4.28576 28.6486 3.46224C29.6846 3.56183 29.2074 4.1478 29.029 4.64191Z" fill="#AFB1B5"/>
<path d="M27.4807 4.9981C28.0704 5.96717 27.5389 6.15869 26.6815 6.12421C26.8211 5.75267 26.9608 5.38496 27.1005 5.01725C27.2285 5.00959 27.3566 5.00576 27.4807 4.9981Z" fill="#C1C5C7"/>
<path d="M18.9182 21.8095C18.5613 21.8018 18.2082 21.7903 17.8513 21.7827C17.9521 21.6678 18.0528 21.5569 18.1537 21.442C18.4291 21.3615 18.755 21.1509 18.9723 21.2313C19.2711 21.3386 18.957 21.6103 18.9182 21.8095Z" fill="#CACCCE"/>
<path d="M24.7609 9.48749C24.7454 9.76328 24.7299 10.0352 24.7144 10.311C24.307 10.9315 23.7949 11.1805 23.0926 10.7553C23.2711 10.514 23.4496 10.2721 23.628 10.0308C24.0044 9.84697 24.3846 9.66752 24.7609 9.48749Z" fill="#D4D9D8"/>
<path d="M23.0928 10.751C23.6321 10.6016 24.1753 10.4561 24.7146 10.3067L24.831 10.4024C25.2539 11.3179 24.5438 11.9575 24.2645 12.7044C23.989 13.0492 23.8338 13.5739 23.2092 13.4092C22.4293 12.896 23.9968 11.8924 22.794 11.4673C22.8949 11.2336 22.9919 10.9923 23.0928 10.751Z" fill="#AFB1B5"/>
<path d="M23.2093 13.4173C23.4498 13.1453 23.6863 12.8768 23.9268 12.6049C24.2256 12.6623 24.4157 12.8423 24.5127 13.1219C24.1984 14.926 22.9375 16.4467 22.8832 18.3312C22.5689 18.8981 22.7047 19.5415 22.5068 20.3153C22.8715 19.5837 22.6349 18.944 22.8405 18.3733C23.2789 18.1511 23.6902 17.9711 23.8609 17.4004C24.0277 16.8297 24.3226 15.9947 25.0093 16.1287C25.7504 16.2743 25.4749 17.1514 25.537 17.7451C25.537 17.8332 25.537 17.9213 25.537 18.0094C23.3371 20.6102 22.6698 24 20.885 26.8191C21.5718 28.4125 20.4272 29.4659 19.725 30.6494C19.5969 30.772 19.465 30.8946 19.337 31.021C18.5416 29.8834 19.2361 28.8683 19.6163 27.8342C19.8375 27.2328 19.628 27.3439 19.2478 26.4974C18.949 25.8309 19.1818 24.8503 19.7211 24.1303C20.0819 23.5825 20.2216 24.8963 20.7143 24.2107C21.1372 23.6208 20.982 23.3221 20.4971 22.985C20.2022 22.602 20.2371 22.2228 20.4932 21.8397C20.4971 21.7133 20.4971 21.5908 20.4971 21.4644C20.6057 20.2846 21.2614 19.2313 21.2963 18.0362C21.9714 16.5118 22.9028 15.0911 23.2093 13.4173Z" fill="#CDCFD4"/>
<path d="M28.9434 16.2938C25.921 25.8925 23.2129 35.5985 17.5794 44.1286C22.7279 35.384 25.1334 25.5516 28.9434 16.2938Z" fill="#FCFBFC"/>
<path d="M8.84981 48.6447C9.26108 47.848 9.26884 47.8404 8.71014 47.2428C8.46571 46.9824 8.6403 46.7832 8.79938 46.6185C10.4832 44.8489 11.2165 42.4779 12.7413 40.6087C14.0449 40.8271 13.1758 41.528 12.9974 41.9762C12.7413 42.635 12.8189 42.8073 13.5056 42.5162C13.7811 42.3056 14.1264 42.2634 14.2661 42.5737C14.4484 42.9835 14.2467 43.3781 13.9014 43.6692C13.0788 44.0599 13.3077 45.0672 12.7413 45.6073C12.33 45.6111 11.8528 45.1668 11.5773 45.9214C11.3872 46.4385 10.9837 46.8943 10.4173 47.1279C9.78485 48.1008 9.59086 49.3648 8.48511 50.1309C8.19412 49.4453 8.72954 49.1005 8.84981 48.6447Z" fill="#CACBD0"/>
<path d="M13.8975 43.6688C13.7539 43.2896 14.5338 42.6001 13.5018 42.5158C13.8044 41.6272 14.5454 41.0795 13.9324 39.7121C13.4164 38.563 14.7782 36.8815 15.6473 35.5179C15.0343 38.2987 14.2583 41.0527 15.1196 43.8909C14.6385 44.2203 14.2971 43.7837 13.8975 43.6688Z" fill="#CCCDD3"/>
<path d="M27.8571 12.2603C27.8571 12.7736 27.8571 13.2869 27.8571 14.0146C28.2218 13.555 28.4275 13.2945 28.6331 13.0302C29.1336 12.6319 29.5061 12.877 29.8436 13.2715C29.9212 13.4554 29.8979 13.6316 29.7893 13.7963C28.8426 14.118 28.121 14.6083 27.7524 15.631C27.5778 16.1136 27.1549 17.0329 26.3246 16.0907C26.2819 16.014 26.2393 15.9374 26.1927 15.8608C26.7165 14.7807 25.7232 13.5358 26.5652 12.4863C27.1006 12.969 27.3954 12.1608 27.8571 12.2603Z" fill="#E2E2E4"/>
<path d="M29.7932 13.8004C29.7894 13.674 29.7816 13.5514 29.7622 13.425C29.576 11.9503 30.5615 11.6516 31.7215 11.5328C31.8263 12.8466 31.9116 14.1566 31.1357 15.4397C30.6623 14.8614 30.2278 14.3289 29.7932 13.8004Z" fill="#AEAEB1"/>
<path d="M31.7215 11.5328C31.027 12.1189 30.0608 12.4365 29.7659 13.4247C29.3896 13.2945 29.0133 13.1605 28.6369 13.0302C28.9085 12.0841 29.0366 11.0803 29.7777 10.3296C30.3209 10.5939 30.8639 10.8546 31.4071 11.1189C31.5119 11.2568 31.6168 11.3949 31.7215 11.5328Z" fill="#CDCED0"/>
<path d="M10.4173 47.1279C10.8984 46.3159 11.3833 45.5034 11.8528 44.7144C12.5628 44.7105 12.2485 45.5149 12.7374 45.603C12.5472 46.0741 12.4076 46.5682 12.1593 47.0049C11.6665 47.8705 11.0613 47.9897 10.4173 47.1279Z" fill="#DFDFE1"/>
<path d="M19.7212 30.6537C19.7212 30.4047 19.6165 30.0676 19.7406 29.9259C20.5321 29.0258 20.9124 28.0069 20.8813 26.8234C22.1617 28.5891 21.0171 29.6425 19.7212 30.6537Z" fill="#DCDDE0"/>
<path d="M16.6019 32.1855C16.7299 32.0553 16.8618 31.9254 16.9898 31.7913C17.3739 31.8603 17.7619 31.5883 18.146 31.7951L18.1887 31.8028C17.9947 32.634 17.8007 33.4613 17.6067 34.2925C17.4864 34.3078 17.37 34.3232 17.2498 34.3385C17.0364 33.6222 16.8191 32.9056 16.6019 32.1855Z" fill="#D4D5D9"/>
<path d="M9.66852 54.2254C9.80044 53.1491 10.1108 52.8771 10.5997 52.678C10.7976 53.3521 10.2195 53.4862 9.66852 54.2254Z" fill="#D4D3D9"/>
<path d="M26.3323 16.0948C25.8124 16.631 26.1461 17.5115 25.537 18.0094L25.5253 17.9869C25.5214 17.2554 24.5864 16.1522 26.2935 16.0948H26.3323Z" fill="#CDCFD4"/>
<path d="M27.8571 12.2603C27.508 12.4978 27.2754 13.0803 26.6973 12.6398C26.0493 11.7397 25.3898 10.8396 26.1153 9.67514C26.8447 8.71757 27.0542 6.84071 29.029 8.04726C29.2075 9.6062 27.9929 10.7895 27.8571 12.2603Z" fill="#CED0D5"/>
<path d="M29.029 8.04726C27.3336 7.59145 27.0268 9.06568 26.3013 9.95814C25.4361 10.8506 25.7232 12.444 24.373 13.0339C24.2256 12.8922 24.0781 12.7466 23.9307 12.6049C24.2295 11.8695 24.5321 11.1379 24.8347 10.4063C26.1616 9.1308 26.6932 7.23892 28.2296 6.1243C28.4973 6.12813 28.7613 6.13573 29.029 6.13956C28.8389 6.7754 28.8506 7.41143 29.029 8.04726Z" fill="#E4E5E6"/>
<path d="M32.998 4.54616C32.839 4.11333 33.0795 3.79159 33.3084 3.46601C33.7895 3.46218 34.2125 3.59246 34.0768 4.16701C33.9332 4.74538 33.3783 4.46955 32.998 4.54616Z" fill="#75767B"/>
<path d="M20.4934 22.9856C21.572 23.2269 21.572 23.2269 20.5012 25.414C19.8067 25.2378 20.3305 24.307 19.7175 24.1308C19.9619 23.7363 20.5555 23.5793 20.4934 22.9856Z" fill="#DDDFE1"/>
<path d="M21.2963 18.0362C21.9598 19.3922 20.9277 20.3574 20.4971 21.4644C20.4854 21.1541 20.4272 20.8636 20.1168 20.6989C20.5087 19.8103 20.9044 18.921 21.2963 18.0362Z" fill="#DDDFE1"/>
<path d="M18.1498 31.7947C17.7618 32.1279 17.3777 32.7446 16.9936 31.7908C17.3816 31.2622 17.7657 30.5383 18.1498 31.7947Z" fill="#BEBFC6"/>
<path d="M20.4932 21.8397C20.4932 22.2228 20.4932 22.6058 20.4971 22.985C20.2798 23.0003 20.0664 23.02 19.8491 23.0353C19.8297 22.5144 20.1013 22.1462 20.4932 21.8397Z" fill="#DDDFE1"/>
<path d="M24.373 13.0339C25.0326 12.0188 25.1878 10.6936 26.3013 9.95814C25.6417 10.9655 27.2208 11.651 26.697 12.6431C26.891 13.8343 27.0617 15.0179 26.2896 16.098C25.0714 16.347 25.7038 17.3314 25.5214 17.9902C24.9433 17.6187 25.2654 16.9637 25.0752 16.4657C23.9191 16.6994 24.6407 18.9784 22.8172 18.3962V18.4C22.0955 16.2589 23.6902 14.7767 24.373 13.0339Z" fill="#C6C9CF"/>
<path d="M22.8172 18.3962C23.2517 19.3461 23.5469 20.2965 22.7321 21.1967C22.6623 21.2733 22.2782 21.2273 22.251 21.1545C21.8475 20.128 21.9869 19.1891 22.8172 18.3962Z" fill="#DDDFE2"/>
<path d="M24.6795 14.5933C24.3575 15.5241 24.0355 16.451 23.7134 17.3818C23.5583 17.332 23.4069 17.2784 23.2517 17.2286C23.4419 16.2365 23.6824 15.2598 24.6795 14.5933Z" fill="#DBDEE2"/>
</svg>
