<svg width="68" height="49" viewBox="0 0 68 49" fill="none" xmlns="http://www.w3.org/2000/svg">
<path d="M65.0875 20.5748C65.4905 20.9792 65.8935 21.3836 66.3006 21.7879C65.9302 22.4285 66.3861 22.921 66.6263 23.4334C67.3387 24.9508 67.697 26.5243 67.5219 28.2018C67.6726 30.3678 66.553 32.0814 65.4661 33.811C64.7374 34.904 63.7237 35.7367 62.7711 36.6295C58.1749 40.8494 52.6506 42.9513 46.4627 43.5399C43.9591 43.4718 41.4432 43.7721 38.964 43.2316C36.1468 42.5229 33.7734 40.9775 31.4367 39.352C31.1884 39.1398 30.993 38.8876 30.8342 38.6074C29.3768 36.2212 29.1814 33.6308 29.6048 30.9563C29.7595 29.9634 30.0811 29.0266 31.0011 28.426C32.5318 28.1778 34.0096 27.7494 35.467 27.2129C36.0288 27.0047 36.7046 26.4322 37.2012 27.361C37.2989 28.37 36.7127 29.2628 36.7005 30.2557C36.326 33.1704 37.5758 35.4164 40.2667 36.7577C46.019 39.6163 53.2979 36.7977 55.7934 33.1343C58.639 28.7463 56.9414 24.5184 51.8323 23.0571C47.9486 21.9441 44.3417 22.4165 40.9221 24.4944C40.344 24.8467 39.7741 25.2031 39.1187 25.4112C37.8037 25.7035 36.4481 25.7596 35.1372 26.1239C34.3149 26.3521 33.3786 26.4882 32.7598 25.5794C32.6743 24.3543 33.6676 23.7537 34.3312 22.961C37.8119 19.3857 42.2085 17.3158 46.9919 16.3189C53.363 14.9897 59.4695 15.6863 64.5664 20.2745C64.7211 20.4027 64.9002 20.4947 65.0875 20.5748Z" fill="#FEFCF7"/>
<path d="M34.5592 11.7702C35.6705 14.7649 35.182 17.8958 35.3815 20.9666C35.9474 21.8955 35.1291 22.3078 34.6569 22.8523C31.742 26.2154 29.0511 29.6546 29.6333 34.503C29.7269 35.2998 29.9996 36.2446 29.2139 36.9493C27.6263 38.3145 26.462 40.1762 24.3776 40.9569C24.2392 40.8288 24.1659 40.6687 24.1537 40.4845C24.1456 39.916 24.8621 39.2714 23.9624 38.803C23.5349 38.7069 23.1889 38.8991 22.851 39.1113C22.7248 39.5236 21.8902 39.0472 22.0124 39.7919C22.1956 40.8889 21.2552 41.3533 20.6771 42.0219C20.0135 42.4023 20.0135 42.4023 20.384 42.6265C19.7408 43.1029 18.9958 42.9788 18.2711 42.9828C18.1409 42.8587 18.0269 42.7226 17.9292 42.5784C17.8193 42.3983 17.9047 42.086 17.6646 42.0299C17.5424 42.0019 17.5587 42.3142 17.4244 42.4343C15.2912 43.179 14.8189 42.9067 15.1243 41.1291C14.1391 42.5985 14.1391 42.5985 11.3464 42.6025C8.33792 42.1901 6.29021 40.2683 4.29543 38.2625C4.05931 35.7962 4.12038 35.7161 6.64032 36.0725C7.27132 36.1605 7.597 36.0084 7.50337 35.3998C7.39752 34.7152 7.54815 34.0987 7.73541 33.4541C8.02038 32.4692 8.18729 31.5363 6.76245 31.164C6.15994 31.0078 5.7162 30.4913 6.23322 29.7827C6.66067 29.1942 7.14919 28.3093 7.95525 28.8538C9.31089 29.7707 10.9067 30.4553 11.7494 31.9847C11.7087 32.7054 12.3478 33.0697 12.6532 33.6542C12.4944 33.1057 11.7616 32.7494 12.1931 32.0768C14.1106 31.2921 14.3589 30.5154 12.9748 29.1261C12.0873 28.2373 12.2624 27.6447 13.2353 27.1002C13.7523 26.812 14.3426 26.7039 14.4525 25.9352C14.591 24.9262 15.5354 24.8061 16.3089 24.7341C17.3145 24.642 17.1638 25.4147 17.2412 26.1033C17.3674 27.2324 18.0798 26.4917 18.6009 26.4076C18.3403 26.2675 18.7719 26.3876 18.6294 26.3155C16.9399 25.4307 16.1013 24.2176 16.9277 22.3279C17.3022 21.4751 17.6401 20.6383 17.864 19.7215C18.1083 18.7286 19.1912 18.2441 20.0827 18.5284C20.9783 18.8126 20.559 19.5493 19.9728 20.1819C20.6974 19.9617 21.7315 20.286 21.0598 18.8727C20.6974 18.104 21.5279 17.8838 21.9839 18.152C23.714 19.1569 24.4794 18.3402 25.0005 16.8188C25.0575 16.6466 25.2814 16.5426 25.4564 16.4385C26.295 16.5185 26.7022 15.4776 27.5693 15.6337C28.0252 16.4505 28.5097 15.7618 28.9819 15.6537C29.9874 16.7748 30.6673 15.4135 31.5141 15.3254C31.97 15.1293 31.9782 14.7009 32.0474 14.3085C32.312 12.9032 33.5292 12.4268 34.5592 11.7702Z" fill="#EEA15C"/>
<path d="M11.3544 32.2011C10.5931 30.7038 8.94433 30.1953 7.75153 29.1904C7.02283 28.5818 6.98212 30.1072 6.22898 30.2073C6.41218 30.4275 6.47731 30.5877 6.57095 30.6077C9.0054 31.0681 8.93212 32.4534 7.94694 34.179C7.91437 34.235 7.84517 34.3071 7.86145 34.3551C8.64715 37.0376 7.75153 37.4259 5.45957 36.1207C4.83264 35.7644 4.68201 36.4771 4.56395 36.8814C4.43368 37.3258 5.08097 37.9184 4.30341 38.2627C2.43889 36.3569 1.21353 34.1269 0.725009 31.5165C0.680228 30.2393 0.680228 30.2393 1.77939 30.4075C1.8486 30.4195 1.8486 30.4195 1.90152 30.2634C2.789 27.697 3.04954 25.1427 2.01144 22.5243C1.55142 21.3632 1.83232 20.1461 2.52846 19.1051C2.87856 18.5806 3.59506 18.1202 3.89631 19.013C4.34005 20.3262 5.73232 20.7586 6.29005 21.9037C6.31448 23.281 6.86813 21.7355 7.08389 22.0358C7.82074 21.5994 8.4436 21.5794 8.33776 22.6364C8.28483 23.1769 8.13014 23.7334 8.14642 24.0296C8.73671 22.9366 8.39882 21.3952 8.8222 19.9939C9.09496 19.3013 9.58755 18.8609 10.3448 18.7328C10.5442 18.7288 10.7315 18.7728 10.9106 18.8569C11.0368 19.005 11.106 19.1772 11.106 19.3734C11.0857 19.6857 10.8984 19.9899 11.1264 20.4544C11.676 20.09 11.4602 19.3493 11.8877 19.009C12.0261 18.8809 12.193 18.7928 12.3802 18.7448C13.2799 18.5566 13.687 19.5655 14.4972 19.5896C16.0197 19.6376 16.0808 18.3004 16.6141 17.4116C16.5815 17.1033 17.298 17.4396 17.0293 16.9431C16.9886 16.8671 16.9235 16.7229 16.7647 16.791C16.8624 16.9792 16.8136 17.1553 16.7159 17.3315C16.496 17.5437 16.2436 17.6318 15.9424 17.5877C15.7551 17.5237 15.5923 17.4236 15.4538 17.2875C14.9002 15.0334 16.2355 13.0876 18.1366 13.3639C18.5763 13.5921 18.8938 13.2718 19.2439 13.1036C19.8953 12.8794 20.5507 12.6712 21.0922 12.2228C23.1928 11.0537 23.7342 11.1939 24.4629 13.2998C24.8415 14.3928 25.6924 15.3337 25.6028 16.5828C25.5743 16.6429 25.5336 16.6989 25.5173 16.763C24.9392 19.2052 23.7261 20.1501 21.5522 18.3444C20.4937 19.2493 22.8875 18.8569 21.8819 19.9299C21.141 20.7186 20.4815 20.7867 19.594 20.6105C19.2073 19.8738 20.624 19.6937 20.0663 18.7568C19.4719 19.0651 18.2791 19.5095 18.3198 19.6857C18.7473 21.5674 15.8813 22.9286 17.4934 24.9265C17.701 25.1827 17.9656 25.4509 18.0267 25.7472C18.1326 26.2877 19.5818 25.1226 18.9183 26.4439C18.6089 27.0604 17.986 27.6129 17.3306 27.5248C16.6385 27.4328 16.5367 26.584 16.5164 25.9914C16.5042 25.6591 17.3387 25.1507 16.3902 25.0826C15.8324 25.0426 14.7414 25.5751 14.8676 25.9034C15.4335 27.3447 14.4035 27.2366 13.6056 27.4087C13.1863 27.5008 12.7833 27.649 12.7263 28.1054C12.6652 28.6018 13.0113 28.6939 13.4672 28.806C15.12 29.2024 14.2936 30.6117 14.257 31.4324C14.2041 32.5815 13.052 32.3893 12.1645 32.1931C11.8958 32.4374 11.6271 32.4173 11.3544 32.2011Z" fill="#EC9D58"/>
<path d="M25.5987 16.5749C24.6542 15.8503 24.2797 14.6572 24.1127 13.7123C23.7016 11.3662 22.5576 11.8146 21.1206 12.5753C20.2412 12.0228 20.5832 10.7216 19.5654 10.1891C19.2113 10.0049 19.48 9.40837 19.8016 9.17215C20.3837 8.74376 20.7379 8.03511 21.4829 7.82691C21.5806 7.79889 21.7475 7.8149 21.7964 7.75085C21.8493 7.67878 21.7271 7.61072 21.5643 7.67077C20.4407 8.18725 19.7486 9.18016 18.8774 9.95687C18.1935 10.5654 17.5707 11.15 16.6425 10.3572C15.6736 9.52848 16.1132 8.74776 16.6628 7.923C17.3223 6.92609 18.7594 6.80598 19.2601 5.65692C19.4067 5.64491 19.6916 5.71698 19.6916 5.6249C19.6957 5.44873 19.4596 5.6289 19.3456 5.53281C19.1421 5.46074 19.0199 5.31661 18.9304 5.14045C17.6643 6.66585 16.2842 5.21252 14.9571 5.29259C13.6096 4.9723 13.2188 4.17557 13.7317 2.92242C14.1673 2.67819 14.5988 2.43797 15.0344 2.19375C16.5529 2.04561 17.8882 1.26089 19.366 0.944601C19.655 0.880542 18.9996 0.788458 19.024 0.532223C24.4751 -1.10128 29.975 1.10875 32.499 6.01725C33.4353 7.83492 34.4571 9.64859 34.563 11.7705C33.9564 12.1789 34.3798 13.5041 32.9834 13.316C32.4745 13.2479 32.556 14.1447 32.4745 14.6412C32.0267 14.6972 31.7947 14.3849 31.5382 14.1127C31.412 13.9726 31.3062 13.8204 31.2003 13.6643C30.6752 12.8755 30.5449 11.9467 30.3129 11.0619C30.093 10.2371 30.492 9.68462 31.2655 9.3403C31.4894 9.24021 32.1204 9.80473 31.929 8.96796C31.8435 8.59562 31.9209 7.99507 31.4364 8.0231C30.2762 8.09116 29.9953 6.93009 29.1445 6.6138C28.6763 6.15738 28.7048 5.56884 28.7089 4.96429C28.314 5.5248 28.7374 5.98122 28.8473 6.46967C29.1689 7.41454 28.8269 8.1312 27.8703 8.28734C26.8199 8.4595 27.0031 7.51062 26.9095 6.90207C26.8362 6.40962 26.6653 6.00524 26.2052 5.77303C26.0872 5.79705 25.8063 5.5248 25.9203 5.9532C26.1604 7.25439 25.5294 8.43948 25.387 9.68862C25.1305 11.9387 25.0206 13.8885 27.4143 15.0816C27.6545 15.2017 27.7522 15.4779 27.6423 15.7662C27.0235 16.2146 26.6978 17.3356 25.5987 16.5749Z" fill="#EEA463"/>
<path d="M6.13129 22.2958C5.45551 20.9706 3.24089 20.8425 3.63578 18.3162C2.30049 20.0778 2.07252 21.3069 2.67095 22.9084C3.46072 25.0223 3.65613 27.2964 2.54475 29.3983C2.12544 30.1911 2.38598 30.8717 2.58139 31.6324C1.65728 31.5163 1.90561 30.2751 1.03849 30.4593C0.863434 30.4954 0.822724 31.1479 0.716879 31.5123C-0.773103 26.7439 0.26907 22.1877 1.93003 17.6836C2.32899 17.7517 2.67909 17.4634 3.07805 17.5315C3.48108 17.6035 3.88818 17.5915 4.29528 17.6396C4.90185 17.6275 5.32931 18.5084 6.04173 17.9679C6.40405 17.6436 6.71751 17.2552 7.24674 17.1751C7.73933 17.1992 7.99581 17.5275 8.21564 17.9038C8.31741 17.9438 8.24006 18.2561 8.39069 18.104C8.55353 17.9358 8.64716 17.6836 8.8385 17.5114C9.05426 17.3433 9.29038 17.2272 9.57535 17.2752C10.3488 17.8998 10.0639 18.4923 9.498 19.0489C9.15197 19.3892 8.84257 19.7055 9.31481 20.1659C9.02984 21.8794 8.85885 23.621 7.8981 25.4547C7.73119 24.3297 7.98766 23.4689 7.99173 22.6081C7.9958 21.3349 7.51543 22.7923 7.2671 22.5681C6.97399 22.1117 6.47733 22.512 6.13129 22.2958Z" fill="#EDA05C"/>
<path d="M6.07411 18.1487C5.2192 18.9615 4.65333 18.3089 4.06304 17.7684C3.774 17.6963 3.48496 17.7403 3.19999 17.7764C2.78068 17.6603 2.31251 18.2808 1.92577 17.6883C3.40761 13.1121 6.12703 9.35264 9.72985 6.16972C10.2835 6.95444 11.0081 6.56609 11.6961 6.44998C12.0666 6.63815 12.2498 6.97046 12.3882 7.33479C12.433 7.51896 12.4452 7.71114 12.4248 7.89931C11.7776 9.35264 10.5563 10.4697 9.94969 11.951C9.47745 12.5195 8.99708 13.1281 8.60219 11.895C8.5167 11.4666 8.94415 10.882 8.52484 10.6378C8.0119 10.3375 7.58037 10.85 7.19363 11.1823C6.84352 11.4826 6.63997 11.887 6.40793 12.2753C4.53527 13.7447 6.10667 14.6455 6.99008 15.6584C7.08371 15.8266 7.13256 16.0067 7.14885 16.1949C7.05928 16.9876 6.54634 17.5562 6.07411 18.1487Z" fill="#EA9954"/>
<path d="M34.5347 22.54C34.836 22.0276 35.4304 21.6632 35.3774 20.9666C35.7805 20.6983 36.1794 20.4301 36.5825 20.1619C36.8145 19.6334 37.4048 19.6454 37.8119 19.3771C42.7907 16.8508 47.9446 14.873 53.6765 15.4095C58.0406 15.8179 62.2053 16.8909 65.0834 20.5742C64.5949 21.0146 64.3181 20.4942 64.0942 20.278C56.5914 13.0513 41.4025 16.3023 35.2024 22.9084C35.0273 23.0965 34.7627 23.2006 34.5388 23.3448C34.3068 23.0805 34.319 22.8123 34.5347 22.54Z" fill="#F3E8D8"/>
<path d="M34.5347 22.54C34.5388 22.8083 34.5387 23.0767 34.5427 23.349C34.0013 24.0256 33.4598 24.7022 32.9184 25.3748C32.6009 26.5519 32.092 27.6369 31.2697 28.5617C29.0062 31.9168 29.7797 35.2599 31.3063 38.5989C32.8736 42.1782 35.4872 44.7326 39.1674 46.1659C40.6574 46.7464 42.1758 47.3029 43.8287 47.347C44.3945 47.363 45.0988 47.3229 45.2128 48.1637C44.8953 48.6402 44.2561 48.1837 43.9142 48.5961C37.6855 48.5961 31.4732 43.8838 29.6575 37.7942C29.568 37.4939 29.3644 37.2297 29.2097 36.9454C29.4051 34.311 28.823 31.6205 29.9914 29.0582C31.1109 26.6039 32.43 24.3137 34.5347 22.54Z" fill="#EFE1CD"/>
<path d="M65.0425 33.7946C65.8323 31.9569 67.2246 30.3354 67.135 28.1815C67.648 27.9452 66.8541 26.8803 67.9167 26.9924C68.6209 35.304 64.8227 41.3135 57.9957 45.7696C56.6848 46.6224 55.2844 47.259 53.6967 47.4231C53.5664 47.271 53.5054 47.0948 53.5094 46.8986C53.7211 46.226 54.3643 46.0939 54.9017 45.8497C60.194 43.4675 63.9067 39.652 65.8527 34.219C66.1091 33.5063 66.5081 32.8497 66.903 32.1171C66.2842 32.7577 66.39 34.0669 65.0425 33.7946Z" fill="#F0E1CD"/>
<path d="M12.1647 7.76666C12.1647 7.63453 12.1647 7.50241 12.1647 7.37029C11.9774 7.13007 12.1728 6.70568 11.7698 6.56956C10.9556 7.09404 10.1085 7.79521 9.72985 6.16972C10.7639 4.7324 12.181 3.75097 13.7239 2.92221C13.9966 3.69892 13.7524 4.79193 15.0144 4.96409C15.1528 5.09621 15.2261 5.26036 15.2423 5.44853C15.165 6.04508 14.7538 6.42943 14.3467 6.81779C13.6628 7.23417 13.1295 7.98285 12.1647 7.76666Z" fill="#EA9F5E"/>
<path d="M11.3464 42.6025C13.0643 42.1741 14.9491 42.0262 15.8122 39.8162C15.5516 41.3776 14.4443 43.3274 17.4283 42.2024C17.7703 42.1824 18.0309 42.3385 18.2588 42.5667C18.2629 42.7069 18.267 42.847 18.271 42.9871C15.9262 43.5116 13.6099 43.5233 11.3464 42.6025Z" fill="#EA9C56"/>
<path d="M53.6805 46.9869C53.6846 47.135 53.6886 47.2792 53.6927 47.4273C50.5662 48.9006 47.3297 49.4489 43.9142 48.5961C44.2113 48.1237 44.6958 48.212 45.1436 48.192C47.9567 47.5554 50.7127 46.5265 53.6805 46.9869Z" fill="#F0E2CC"/>
<path d="M67.9127 26.9967C67.6522 27.3931 67.3916 27.7895 67.1311 28.1858C67.2491 26.4322 66.895 24.7907 66.0441 23.2253C65.8121 22.7969 64.9287 22.0362 66.2965 21.788C67.0293 23.4655 68.1122 25.0389 67.9127 26.9967Z" fill="#F5EADA"/>
<path d="M19.016 0.53252C19.5249 0.592575 20.0338 0.65263 20.5427 0.708681C18.7392 1.50541 17.0416 2.4743 15.0265 2.19404C16.2803 1.46538 17.5423 0.744714 19.016 0.53252Z" fill="#ED9D58"/>
<path d="M20.384 42.6265C19.069 42.4623 20.3592 42.0661 20.3063 41.7898C21.7067 41.5416 22.696 39.9321 24.3732 40.5967C24.3732 40.7169 24.3732 40.833 24.3732 40.9531C23.1845 41.8339 21.8658 42.4223 20.384 42.6265Z" fill="#EA9C56"/>
<path d="M36.2076 30.1918C36.2035 29.1869 36.5862 28.286 37.0096 27.4012C37.2905 26.2442 38.0395 25.4875 39.1224 25.015C43.1364 22.1324 47.4557 21.0954 52.3287 22.6369C57.6698 24.3264 59.343 28.9066 56.1717 33.4628C55.6465 33.4868 55.1499 33.4668 54.987 32.8462C53.2976 33.5949 52.6137 35.6648 50.6352 36.0171C48.6282 36.8339 46.6822 36.3534 44.7322 35.7769C44.3414 35.6608 43.9506 35.5927 43.8244 35.1323C44.0524 34.5438 44.6508 34.5037 45.1271 34.2795C45.5749 34.1314 45.6767 33.7631 45.7174 33.3547C46.8451 32.2257 48.4328 31.8333 49.7151 30.9405C50.2484 30.5681 50.9445 30.428 51.3801 29.9315C50.5619 30.5361 49.7151 31.1727 48.5671 30.8564C48.046 30.7123 47.5331 30.472 47.4313 29.8595C47.3458 29.335 47.6593 28.9386 48.0786 28.7184C49.19 28.1339 50.1751 27.2931 51.4819 27.101C51.6651 26.9969 51.7262 26.8207 51.7547 26.6285C51.6814 26.7887 51.7099 27.0049 51.4901 27.0889C50.2728 27.4493 49.023 27.109 47.7651 27.3532C46.6171 27.5774 46.6659 25.9239 45.8232 25.4474C45.5139 25.2713 46.2711 24.3144 45.1922 24.6667C44.5572 24.8749 43.8936 24.995 43.3074 25.3273C42.0332 26.084 40.8159 26.8888 40.4373 28.5503C41.2352 28.7505 41.6423 27.8376 42.3303 28.0538C43.2056 28.5503 43.4784 29.1468 42.6764 29.9476C42.2978 30.3279 41.7604 30.6802 41.6912 31.1807C41.6179 31.7012 40.474 33.0184 42.5176 32.5339C43.4702 32.3097 44.1582 32.9904 44.0605 34.1074C43.9465 34.2635 43.7959 34.3716 43.6168 34.4397C42.1349 34.9121 40.6368 34.6719 39.1387 34.5638C37.95 34.3556 37.7383 32.9103 36.6065 32.622C36.0122 31.8893 36.6839 30.9525 36.2076 30.1918Z" fill="#FCBF40"/>
<path d="M53.6805 46.9869C50.843 47.4553 48.091 48.4843 45.1436 48.192C43.4013 47.5394 41.5164 47.5435 39.7333 46.9629C35.6298 45.6297 33.0406 42.719 30.8708 39.2999C30.6469 38.9476 30.0322 38.1468 31.3064 38.6033C31.4367 38.7314 31.5629 38.8595 31.6931 38.9836C33.5536 41.0055 35.7479 42.4148 38.6016 42.6069C41.3007 43.2115 44.0405 42.9232 46.7639 42.9993C46.2673 44.1203 45.1763 43.5438 44.3824 43.736C43.4339 43.9642 42.4365 43.6799 41.5002 43.5078C46.0475 44.1003 50.3708 43.1394 54.5802 41.538C57.0432 40.6011 59.3474 39.356 61.3829 37.6664C61.8958 37.242 62.5187 36.9137 62.6286 36.173C63.4306 35.3803 64.2366 34.5876 65.0386 33.7908C66.0319 33.4505 66.2518 32.4376 67.1392 31.3686C66.3128 35.2282 64.8473 38.2509 62.5227 40.9294C60.1005 43.728 57.0187 45.5175 53.6805 46.9869Z" fill="#FBF1DF"/>
<path d="M55.313 32.582C55.1298 33.3186 56.0376 33.0264 56.1679 33.4668C52.7482 38.4954 43.3117 40.0408 38.5934 36.3134C36.619 34.7519 35.5809 32.7701 36.2038 30.1918C37.0261 30.8083 36.1345 31.9814 37.0017 32.586C38.0235 33.8591 39.1919 34.9721 40.5679 35.869C43.4216 36.9259 46.2794 37.6546 49.2472 36.2573C49.7398 36.0251 50.3016 36.1372 50.8227 36.0171C52.1498 35.6007 52.7971 34.3836 53.7904 33.5749C54.2627 33.1865 54.4662 32.4098 55.313 32.582Z" fill="#FBBC3A"/>
<path d="M62.6327 36.1769C63.3899 36.9136 62.5879 37.2539 62.1889 37.5542C57.434 41.0934 52.2557 43.5077 46.1574 43.876C44.4109 43.9801 42.7499 44.2243 41.0116 43.5437C42.9535 43.0272 44.9483 43.916 46.768 43.0032C52.7971 42.3946 58.1139 40.1846 62.6327 36.1769Z" fill="#F0E2CD"/>
<path d="M39.1183 25.0144C38.4141 25.8111 37.7098 26.6038 37.0055 27.4005C35.5196 27.3485 34.3309 28.2733 32.9549 28.6097C32.3361 28.7618 31.8274 28.9221 31.2697 28.5617C31.29 27.2325 32.1083 26.3037 32.9184 25.3748C33.525 26.0314 34.3756 25.9232 34.9944 25.667C36.3419 25.1185 37.7261 25.1064 39.1183 25.0144Z" fill="#FDFBF1"/>
<path d="M38.6057 42.6107C36.4644 43.2552 32.7679 41.3135 31.6973 38.9873C33.8874 40.3966 36.0451 41.874 38.6057 42.6107Z" fill="#EFE1CD"/>
<path d="M29.2706 6.57003C30.3169 7.49888 33.0281 6.66211 32.3686 9.41264C32.2262 10.0132 32.3076 9.93712 31.5585 9.77297C30.785 9.60481 30.496 10.1974 30.6548 10.8099C30.9194 11.8108 31.3346 12.7757 31.6847 13.7566C31.4852 14.6414 31.1026 15.0378 30.5408 14.0169C30.1418 13.2882 29.8161 12.4995 29.694 11.6587C29.6818 11.4665 29.6696 11.2703 29.6574 11.0782C29.6451 10.886 29.5759 10.6978 29.5841 10.5016C29.4457 10.6818 29.6614 10.8259 29.6329 11.0061C29.7429 12.2312 29.2421 13.4403 29.979 14.6815C30.6059 15.7384 29.2218 15.3741 28.8513 15.7705C28.9287 16.5512 28.1226 16.307 27.8132 16.6393C27.7521 16.351 27.6911 16.0587 27.63 15.7705C26.193 14.8977 24.7966 14.141 24.5971 12.1031C24.5157 11.2824 24.7193 10.7058 24.992 10.1333C25.5538 8.95622 23.9295 7.31071 25.8469 6.47394C25.6271 6.23773 25.4113 6.00151 25.1915 5.76529C25.3503 5.41297 25.5457 5.13271 26.0057 5.36092C28.3506 5.21279 26.9054 7.17058 27.5608 8.05539C28.3261 7.83519 28.8961 7.5229 28.4483 6.56603C28.7251 6.3178 28.9979 6.33381 29.2706 6.57003Z" fill="#EA9E5B"/>
<path d="M28.8556 15.774C28.8027 15.4737 28.3386 14.9452 29.2098 15.1454C29.4825 15.2095 30.1176 15.2856 29.6739 14.8772C28.2897 13.616 29.2993 12.2628 29.279 10.9576C29.739 10.7334 29.853 11.1538 30.0769 11.366C30.3497 12.2227 30.5451 13.1156 30.9196 13.9323C31.2412 14.637 31.4081 13.7401 31.689 13.7602L31.7216 13.7922C32.1124 14.5769 32.0839 15.3616 31.7419 16.1503C29.8001 14.8171 31.2697 17.1553 30.5695 17.1833C29.5639 17.2433 29.6902 15.9341 28.8556 15.774Z" fill="#EEA463"/>
<path d="M24.3773 40.6012C22.9484 40.7654 21.8696 42.0666 20.3104 41.7943C20.7338 40.9535 22.1301 40.6613 21.6172 39.24C21.4381 38.7435 22.6349 39.296 22.7571 38.5954C23.327 38.9637 23.6038 38.4753 23.958 38.203C25.7126 38.7235 25.1264 39.6483 24.3773 40.6012Z" fill="#EEA768"/>
<path d="M31.7051 19.3772C31.1311 20.7985 29.295 21.9475 31.0741 23.9694C29.7184 23.7812 29.1688 23.0605 29.3683 22.3158C29.7021 21.0827 30.036 19.6614 31.7051 19.3772Z" fill="#EFA867"/>
<path d="M29.918 25.1268C29.9058 25.9235 29.2626 26.0476 28.6764 26.0957C28.139 26.1397 28.0006 25.6633 28.082 25.2589C28.2082 24.6343 28.2693 23.7415 29.0468 23.7335C29.5842 23.7295 29.9506 24.4382 29.918 25.1268Z" fill="#EFA867"/>
<path d="M31.7051 19.3772C32.0104 18.8807 32.727 18.3882 32.6945 19.237C32.6456 20.5222 33.4476 21.8714 32.5357 23.3208C31.6034 22.0156 32.678 20.4702 31.7051 19.3772Z" fill="#EEA969"/>
<path d="M11.3544 32.2011C11.623 32.1971 11.8916 32.1929 12.1562 32.1889C12.6855 32.9936 13.2188 33.7944 13.748 34.5991C13.6014 34.7152 13.4549 34.8273 13.3083 34.9434C12.5348 34.1347 11.6963 33.3862 11.3544 32.2011Z" fill="#F1B077"/>
<path d="M22.2197 34.8554C21.8289 36.3768 20.978 36.9293 20.0906 37.4618C20.5709 36.577 20.9862 35.6481 22.2197 34.8554Z" fill="#F6CDA5"/>
<path d="M11.497 40.6848C10.7683 40.4646 9.71794 40.953 9.25792 39.7119C10.2635 39.6838 10.9067 40.1443 11.497 40.6848Z" fill="#F1B177"/>
<path d="M31.7379 16.1505C31.7297 15.3658 31.7257 14.5771 31.7175 13.7923C31.9699 14.0766 32.2223 14.3569 32.4707 14.6411C32.3811 15.2176 32.2142 15.7581 31.7379 16.1505Z" fill="#F7D2A7"/>
<path d="M24.4835 26.1274C23.7955 25.5909 23.9624 25.0825 24.0967 24.4779C24.63 24.9223 24.9109 25.3427 24.4835 26.1274Z" fill="#F0AF73"/>
<path d="M18.2586 42.5628C17.9207 42.5788 17.6276 42.4907 17.4281 42.1985C17.2815 42.0023 17.135 41.8021 16.9884 41.6059C17.135 41.5499 17.2978 41.4218 17.4281 41.4498C18.0184 41.5779 18.2504 41.9983 18.2586 42.5628Z" fill="#F2B47D"/>
<path d="M23.9539 38.1991C23.9539 38.7356 23.6486 39.0519 23.1398 39.1159C22.7978 39.16 22.7815 38.8397 22.753 38.5915C23.152 38.4633 23.5509 38.3312 23.9539 38.1991Z" fill="#F1BE8B"/>
<path d="M27.5976 24.0978C27.4917 24.1859 27.3533 24.294 27.219 24.4061C27.1416 24.2619 27.0195 24.1218 27.0032 23.9697C26.9951 23.8856 27.1416 23.7335 27.2516 23.6974C27.5406 23.6053 27.5732 23.8175 27.5976 24.0978Z" fill="#EFA867"/>
<path d="M33.7163 15.7501C33.6023 15.5059 33.4599 15.3377 33.4965 15.2256C33.5413 15.0815 33.7326 14.9814 33.8588 14.8613C33.9362 14.9974 34.0868 15.1415 34.0746 15.2657C34.0583 15.4058 33.8873 15.5259 33.7163 15.7501Z" fill="#EEA463"/>
<path d="M15.0142 5.36847C15.0142 5.23635 15.0142 5.10022 15.0142 4.9681C15.5923 5.04817 16.2152 4.27546 16.777 5.16428C17.3103 6.00105 17.8477 5.66874 18.271 4.9641C19.3173 3.2265 19.0405 5.36446 19.4923 5.36847C19.5819 5.46055 19.6145 5.54863 19.5778 5.63671C19.5453 5.72479 19.5127 5.76883 19.4801 5.76883C18.841 6.13317 19.8302 7.97486 17.8802 7.32626C17.3388 7.1461 16.7648 8.50334 16.4187 9.26804C16.2396 9.66441 16.8299 9.88061 17.0782 10.1729C17.4283 10.5893 17.9291 10.4491 18.0838 10.0968C18.5153 9.09188 19.8424 8.99179 20.1966 7.89078C20.4653 7.05802 21.2551 7.22617 21.939 7.38231C22.1873 7.63054 22.171 7.89078 21.9716 8.15903C21.0597 8.17104 20.6322 8.89971 20.0704 9.42018C19.8424 9.63238 19.5127 9.99271 19.989 10.1689C21.2266 10.6253 20.7299 11.7864 21.1207 12.5791C20.7177 13.5039 19.8831 13.3718 19.1056 13.3798C18.7596 13.1316 18.7514 12.7873 18.8288 12.4189C18.5764 12.9875 18.8369 13.7121 18.2629 14.1806C17.5953 13.5079 16.8584 12.7833 16.5531 14.3847C16.3617 15.3977 14.831 16.1023 15.8325 17.3795C15.6982 17.4956 15.5883 17.6357 15.5028 17.7879C15.7104 17.7278 15.633 17.4435 15.8366 17.3795C16.1093 17.3795 16.378 17.3795 16.6508 17.3795C16.6874 18.7928 16.7892 20.138 14.6071 20.0379C13.569 19.9899 13.1782 18.8769 12.1808 18.981C11.7127 16.815 10.1046 15.2255 8.06507 14.9132C7.69054 15.1214 7.64983 15.5818 7.34857 15.8461C7.17759 15.9342 7.02696 15.9101 6.89262 15.778C6.0255 15.6219 5.55327 14.9693 5.15431 14.3127C4.52331 13.2637 4.75128 12.487 6.06621 12.2067C6.4611 11.9745 6.75828 11.6342 7.07582 11.3139C7.93887 10.4451 8.51695 10.7814 8.91183 11.7703C9.18459 13.1396 9.44513 11.5341 9.71382 11.7663C10.5362 12.9234 11.2974 12.9314 12.193 11.7824C13.048 10.6893 13.9069 9.59234 14.8677 8.57941C15.3928 8.02691 15.6697 7.3663 15.458 6.58959C15.287 6.18522 15.2341 5.74882 15.0142 5.36847Z" fill="#EDA05C"/>
<path d="M7.69035 14.1804C10.2388 13.9361 11.0204 16.2142 12.4738 17.4994C12.8605 17.8437 12.3883 18.4963 12.1725 18.9768L12.1644 18.9848C11.7736 19.1689 11.4682 19.6053 10.939 19.3771C10.939 19.245 10.939 19.1089 10.939 18.9768C10.593 18.5244 11.3095 18.4203 11.2647 18.0559C10.9268 18.3041 10.7884 18.6845 10.5278 18.9728C10.0149 19.269 9.32689 19.3891 9.30653 20.1659C8.47198 20.0738 8.48827 19.7054 8.93607 19.1489C9.35539 18.6325 10.1696 18.18 9.32689 17.3873C8.82616 16.7427 8.41499 16.0301 7.82876 15.4495C7.58451 15.0492 7.9916 14.5767 7.69035 14.1804Z" fill="#EEAA6F"/>
<path d="M10.9433 19.3777C11.3504 19.2456 11.7575 19.1175 12.1687 18.9854C12.1239 19.2977 12.0262 19.614 12.0384 19.9263C12.0588 20.5748 11.8837 21.1113 11.208 21.2995C10.8375 21.4036 10.638 21.0793 10.4548 20.787C10.0233 20.1064 10.2961 19.686 10.9433 19.3777Z" fill="#EDA05C"/>
<path d="M16.6426 17.3758C16.5001 17.0275 16.3576 16.6831 16.1826 16.2548C16.8421 16.3869 17.4771 16.519 18.1163 16.6471C17.9087 17.4438 17.2451 17.3438 16.6426 17.3758Z" fill="#EDA05C"/>
<path d="M18.263 14.1768C18.2752 13.8445 18.2671 13.5122 18.3037 13.1839C18.3403 12.8516 18.4665 12.4232 18.837 12.5033C19.2156 12.5833 19.0406 13.0678 19.1057 13.3761C19.0731 13.8925 18.8044 14.1768 18.263 14.1768Z" fill="#EEB178"/>
<path d="M10.5321 18.9728C10.5402 18.9088 10.5321 18.8407 10.5565 18.7847C10.7194 18.3322 10.6909 17.7317 11.3585 17.6556C11.5091 17.6396 11.8022 17.7957 11.8307 17.9159C11.9936 18.6085 11.0776 18.4804 10.9433 18.9768C10.8048 18.9728 10.6664 18.9728 10.5321 18.9728Z" fill="#EDA05C"/>
<path d="M13.3897 22.9808C13.4467 22.5725 13.52 22.1521 14.0981 22.3923C14.2324 22.4483 14.3953 22.7326 14.3546 22.8447C14.1347 23.4212 13.7358 23.0889 13.3897 22.9808Z" fill="#EDA96E"/>
<path d="M6.13129 22.2958C6.53025 22.2918 7.13259 21.4952 7.26287 22.5721C6.87612 22.5001 6.33484 23.0805 6.13129 22.2958Z" fill="#F5D6BC"/>
<path d="M13.3856 22.9765C13.3246 23.3369 13.5485 23.7933 13.0396 23.9895C12.9704 24.0175 12.7628 23.9094 12.7465 23.8373C12.6406 23.3329 13.0477 23.1767 13.3856 22.9765Z" fill="#EDA96E"/>
<path d="M29.2706 6.57003C28.9938 6.57003 28.721 6.5661 28.4442 6.5661C28.2162 6.15372 28.147 5.72533 28.1429 5.24088C28.1389 4.81249 27.174 4.276 27.9597 3.98773C28.607 3.75151 29.1281 4.40411 29.1281 5.21286C29.1363 5.66527 29.2258 6.11761 29.2706 6.57003Z" fill="#F2B479"/>
<path d="M19.4843 5.76532C19.4884 5.6332 19.4923 5.50059 19.4923 5.36847C19.9605 5.20031 20.4084 4.76841 21.0842 5.34093C20.5712 5.76532 20.2781 6.45796 19.4843 5.76532Z" fill="#F2B37A"/>
<path d="M18.3361 8.80784C18.2424 8.88391 18.0633 9.03605 17.8801 9.18819C17.7824 9.06007 17.5788 8.85589 17.6073 8.81184C17.7458 8.61967 17.9249 8.39947 18.1366 8.3234C18.3523 8.25133 18.4378 8.45952 18.3361 8.80784Z" fill="#EDA05C"/>
<path d="M22.2281 9.49677C22.1304 9.60888 21.9961 9.84109 21.7966 9.98122C21.6297 10.0973 21.3732 10.0052 21.418 9.77303C21.4669 9.53681 21.6134 9.27257 21.8048 9.12043C21.9554 8.99632 22.1711 9.12043 22.2281 9.49677Z" fill="#F4C799"/>
<path d="M21.9714 8.15531C21.9592 7.89508 21.951 7.63484 21.9388 7.3786C22.2116 7.31855 22.5902 6.99425 22.7001 7.4907C22.81 7.98716 22.3907 8.11127 21.9714 8.15531Z" fill="#F2C397"/>
<path d="M26.0057 5.36429C25.733 5.50041 25.4643 5.63253 25.1915 5.76866C24.9595 5.60451 24.7885 5.36028 25.0287 5.15209C25.3992 4.8278 25.7452 4.99595 26.0057 5.36429Z" fill="#F2BC85"/>
<path d="M8.08544 15.3655C9.36781 15.5217 9.39223 16.4265 9.33117 17.3834C9.20089 17.5195 9.07062 17.6596 8.94035 17.7958C8.29713 17.1392 8.46812 18.2522 8.09359 18.1721C7.82083 17.8999 7.54807 17.6276 7.27532 17.3594C6.84786 17.0591 7.20611 16.5226 6.90486 16.1863C6.89671 16.0502 6.89264 15.91 6.8845 15.7739C7.0107 15.7699 7.1369 15.7699 7.2631 15.7699C7.49922 15.5617 7.62135 15.1333 8.08544 15.3655Z" fill="#EFB684"/>
<path d="M6.90476 16.1906C7.97136 16.2947 7.10017 16.9914 7.27522 17.3637C6.88441 17.636 6.74582 18.2848 6.07411 18.1487C6.35093 17.4961 6.62793 16.8432 6.90476 16.1906Z" fill="#F3C599"/>
<path d="M8.09347 18.1766C8.13418 17.8002 8.14233 17.3478 8.59421 17.2597C8.89953 17.1997 8.88732 17.576 8.94024 17.8002C8.72041 18.0645 8.64306 18.637 8.09347 18.1766Z" fill="#F2CDAB"/>
<path d="M3.20034 17.772C3.36318 17.5919 3.50159 17.2996 3.69293 17.2596C4.03489 17.1875 3.9979 17.5482 4.06304 17.7684C3.78214 18.1807 3.49345 18.1964 3.20034 17.772Z" fill="#EEB078"/>
<path d="M15.8242 6.1734C16.5366 7.21036 16.0074 8.04312 15.3438 8.83184C14.2853 10.093 13.1617 11.3061 12.1644 12.6113C11.6921 13.2319 11.167 13.4561 10.4545 13.34C9.45307 13.1758 9.81132 12.3591 9.70955 11.7625C10.023 10.129 11.2972 9.06806 12.1644 7.76286C12.8442 7.36249 13.52 6.96213 14.1998 6.56176C14.7169 6.33355 15.1199 5.65693 15.8242 6.1734Z" fill="#F0AE73"/>
<path d="M8.90789 11.7664C7.74766 10.5693 7.10851 12.6872 6.06227 12.2028C6.04598 11.362 6.66885 10.9016 7.24286 10.4772C7.75173 10.0969 8.39087 9.50832 9.02188 9.98475C9.69766 10.4892 9.15215 11.1778 8.90789 11.7664Z" fill="#F0AB6C"/>
<path d="M11.7698 6.56956C12.0548 6.48148 12.5431 6.25383 12.5919 6.3259C12.9421 6.82235 12.1932 6.96192 12.1647 7.37029C11.8186 7.20614 11.7616 6.90186 11.7698 6.56956Z" fill="#F1BB84"/>
<path d="M15.8242 6.1734C15.2827 6.30553 14.7414 6.43396 14.2 6.56609C14.4727 6.16572 14.7415 5.76883 15.0142 5.36847C15.4051 5.52061 15.6776 5.78505 15.8242 6.1734Z" fill="#EEA463"/>
<path d="M51.6451 26.9928C50.7698 27.8696 49.6585 28.3861 48.5593 28.9145C48.14 29.1147 47.5782 29.3309 47.8102 29.9035C47.9853 30.3359 48.5227 30.516 49.003 30.544C50.2162 30.6161 50.9856 29.8434 51.7632 29.0907C51.9423 28.9145 52.1865 28.8024 52.6221 28.5182C52.4919 29.7313 51.7387 30.3198 51.0385 30.6121C49.3735 31.3007 48.3028 33.0463 46.3121 33.1384C46.1818 33.1464 46.0719 33.5588 45.9498 33.787C45.6322 34.2034 45.1152 34.2354 44.6796 34.4196C44.3743 34.4476 44.1016 34.3916 43.9224 34.1153C42.8925 32.682 42.8925 32.682 41.2885 33.4067C40.4255 31.8893 40.9425 30.6081 42.233 29.7273C43.1937 29.0707 42.522 28.6743 42.2737 28.1498C42.0131 27.213 42.6156 26.7085 43.267 26.2281C44.1341 25.8878 44.8506 25.087 45.9254 25.3753C46.6785 25.4594 47.0693 25.9718 47.2891 26.6044C47.3706 26.8326 47.4072 27.2931 47.627 27.0729C48.9705 25.7316 50.3139 27.3131 51.6329 26.9928H51.6451Z" fill="#FBBB3A"/>
<path d="M50.8348 36.1846C47.3093 37.9021 43.7798 37.9382 40.2503 36.1886C40.3805 35.2037 38.8905 35.1756 39.029 34.1907C40.5271 34.1907 42.0211 34.1947 43.5193 34.1947C43.7309 34.4189 44.1665 34.5311 43.9141 34.9795C45.8397 35.1156 47.5984 37.0934 49.7153 35.4759C49.8944 35.3398 50.4481 35.6721 50.8267 35.7882C50.9325 35.8763 50.9651 35.9644 50.9325 36.0524C50.904 36.1405 50.8715 36.1846 50.8348 36.1846Z" fill="#FCC348"/>
<path d="M43.4989 26.5719C42.8597 26.9243 42.5951 27.5568 42.2735 28.1454C42.0618 28.3015 41.8582 28.4697 41.6384 28.6178C41.1255 28.9621 40.7428 30.0031 40.0996 29.5146C39.3953 28.9781 39.8757 28.0493 40.2746 27.3647C40.926 26.2476 41.8867 25.4629 43.0999 24.9745C43.3808 25.6311 43.3808 25.6311 42.2409 26.4558C42.9289 26.1395 42.9289 26.1395 43.4989 26.5719Z" fill="#FCD990"/>
<path d="M43.4989 26.5719C42.2613 25.6871 42.2002 27.5854 41.2843 27.4733C41.097 26.084 43.1935 26.2917 43.0999 24.9745C43.6658 24.438 44.4108 24.3304 45.1314 24.1903C46.3079 23.9661 46.0962 24.6907 45.9293 25.3673C45.1191 25.7717 44.309 26.1716 43.4989 26.5719Z" fill="#FDD179"/>
<path d="M50.8348 36.1846C50.8348 36.0524 50.835 35.9208 50.8309 35.7887C52.1173 34.5756 53.4119 33.3625 54.6943 32.1453C55.7649 31.1244 55.0851 32.4696 55.3131 32.5857C54.3767 33.5026 53.359 34.3594 52.5285 35.3603C52.04 35.9448 51.5676 36.2366 50.8348 36.1846Z" fill="#FDCF65"/>
<path d="M39.0288 34.1875C39.497 34.832 40.5921 34.836 40.7264 35.845C40.7916 36.3414 40.4253 36.1005 40.2503 36.1886C38.9313 35.1917 37.5065 34.2915 37.0017 32.586C38.3614 32.2857 38.0274 34.0553 39.0288 34.1875Z" fill="#FDCD61"/>
<path d="M50.8307 32.9776C49.7153 33.7904 48.551 34.471 46.8696 34.487C47.9037 33.2659 49.3814 33.3099 50.4195 32.5813C50.8063 32.4652 50.9569 32.5813 50.8307 32.9776Z" fill="#FED678"/>
<path d="M52.7157 32.6618C53.1961 32.0372 53.6724 31.4167 54.4785 30.3677C54.222 31.813 53.7579 32.4696 52.7157 32.6618Z" fill="#FECF61"/>
<path d="M43.9183 34.9798C43.788 34.7195 43.6537 34.4553 43.5234 34.195C43.6577 34.171 43.7921 34.143 43.9224 34.119C44.1951 34.131 44.4638 34.139 44.7365 34.151C45.1721 33.9909 45.6118 33.8307 45.5304 34.5874C45.0297 34.8637 44.5045 35.0438 43.9183 34.9798Z" fill="#FEDE8A"/>
<path d="M45.5262 34.5831C45.3797 34.2308 45.058 34.1868 44.7324 34.1507C45.0418 33.7143 45.5099 33.8024 45.9455 33.7904C46.5643 34.439 46.0514 34.5151 45.5262 34.5831Z" fill="#FCC348"/>
<path d="M50.8307 32.9776C50.6923 32.8455 50.558 32.7134 50.4195 32.5813C50.7004 32.253 50.9812 31.9253 51.4087 31.4288C51.6244 32.2656 51.2256 32.6213 50.8307 32.9776Z" fill="#FED773"/>
<path d="M51.6366 26.9886C51.4982 26.7484 51.3598 26.5122 51.2173 26.272C51.5552 26.1318 51.8931 26.1999 52.0722 26.4802C52.3776 26.9606 51.9257 26.9326 51.6407 26.9966C51.6448 26.9926 51.6366 26.9886 51.6366 26.9886Z" fill="#FED067"/>
<path d="M27.4023 11.2259C28.0618 11.4902 28.0862 11.9426 28.0008 12.415C27.9641 12.6192 27.7687 12.7793 27.5814 12.6112C27.2069 12.2709 27.1336 11.8345 27.4023 11.2259Z" fill="#F2BF8D"/>
<path d="M30.0728 11.3661C29.8082 11.23 29.5396 11.0939 29.2749 10.9577C29.336 10.6695 29.3971 10.3772 29.4581 10.0889C29.9263 10.3892 30.0281 10.8657 30.0728 11.3661Z" fill="#F1B479"/>
<path d="M15.8284 17.3753C15.7917 17.8598 15.9342 18.3842 15.4172 18.7726C15.5108 18.2962 14.5053 17.6035 15.8284 17.3753Z" fill="#EC9D58"/>
<path d="M8.08544 15.3655C7.81269 15.5017 7.53971 15.6383 7.26695 15.7704C7.20182 15.1859 7.39316 14.6694 7.69441 14.181C8.19514 14.4572 8.08544 14.9291 8.08544 15.3655Z" fill="#F3C599"/>
</svg>
