<svg width="20" height="55" viewBox="0 0 20 55" fill="none" xmlns="http://www.w3.org/2000/svg">
<path d="M0.516519 28.6299C0.615638 26.3109 1.76651 24.3232 2.58425 22.2444C3.7021 19.4036 4.50608 16.4993 4.93285 13.4846C4.99067 13.0788 4.99617 12.6674 5.34033 12.3748C5.50553 12.2119 5.71204 12.1732 5.9323 12.187C6.29024 12.245 6.62614 12.3527 6.90698 12.5956C7.02537 12.7889 7.03363 12.9849 6.92625 13.1864C6.78583 13.3438 6.60411 13.4128 6.40311 13.4459C5.69826 13.4818 5.7258 14.0837 5.61567 14.5337C5.40917 15.3729 5.27151 16.226 5.22745 17.0901C5.06501 17.7306 4.93009 18.3766 4.71808 19.0033C4.61621 19.3097 4.50332 19.6162 4.44275 19.9364C4.30783 20.4333 4.1977 20.9358 4.04902 21.43C3.98019 21.6094 3.88658 21.7778 3.79021 21.9462C3.4543 22.5066 3.38548 23.1444 3.26709 23.7683C3.14319 24.2348 2.89538 24.6407 2.65309 25.0493C1.90693 26.3744 1.41134 27.7686 1.43612 29.3173C1.44713 29.9164 1.30396 30.4879 1.08644 31.0428C0.979063 31.3078 0.841398 31.5563 0.623886 31.7495C0.488973 31.8351 0.359577 31.8241 0.23843 31.7219C0.103517 31.3437 0.205383 30.9738 0.282476 30.6011C0.601862 29.9716 0.230173 29.2621 0.516519 28.6299Z" fill="#4D362D"/>
<path d="M19.6111 31.7464C19.5065 31.8844 19.4018 32.0252 19.2972 32.1633C19.2917 32.293 19.2421 32.4062 19.1485 32.4973C18.8539 32.7458 18.5318 32.9473 18.1711 33.0881C17.8627 33.1958 17.5488 33.2731 17.2184 33.2565C15.6133 33.1571 14.0411 33.3752 12.714 33.7948C13.1518 33.8142 13.1518 33.8142 13.4078 34.2807C11.252 34.7749 9.09889 34.7832 6.94579 34.2835C6.64843 33.4222 7.43313 33.9853 7.63688 33.759C7.25692 33.7369 6.82739 33.9633 6.54104 33.5298C7.47993 32.9004 8.39954 32.5912 9.63854 32.6409C11.8164 32.7237 14.143 33.1654 16.051 31.3654C16.5604 30.885 17.5213 30.6035 18.273 31.3295C18.3556 31.8375 18.0087 32.0528 17.6039 32.2875C18.2234 32.0694 18.5703 31.3599 19.3055 31.52C19.4349 31.5587 19.5367 31.636 19.6111 31.7464Z" fill="#654434"/>
<path d="M14.9274 12.3576C15.478 13.7545 15.624 15.2481 15.902 16.7058C16.3233 18.9116 17.2897 20.9269 17.9368 23.0527C17.689 23.6131 17.689 23.6131 16.9593 22.8263C16.706 22.5116 16.4968 22.1692 16.3123 21.8076C16.2462 21.6834 16.1939 21.5536 16.1526 21.4183C15.2798 18.5913 14.3464 15.7809 14.2446 12.7828C14.2721 12.5592 14.3409 12.3521 14.4758 12.1699C14.7209 12.0042 14.8696 12.0705 14.9274 12.3576Z" fill="#4F372F"/>
<path d="M7.07466 54.6523C5.53555 54.6495 4.14787 54.0891 2.77121 53.4845C0.590576 52.5238 0.477699 50.5001 0.268446 48.5456C0.210627 48.0072 0.295975 47.4551 0.315248 46.9084C0.436395 46.8311 0.54929 46.8477 0.651163 46.9443C0.984315 47.5103 0.841143 48.1287 0.841143 48.7333C0.841143 48.7554 0.871425 48.794 0.887945 48.7968C0.929244 48.7995 0.97329 48.783 1.01734 48.7719C1.53497 48.9459 1.51019 49.371 1.46338 49.7851C1.34499 50.8149 1.76074 51.5465 2.66934 52.0158C4.27728 52.8854 5.84393 53.8461 7.73546 53.9814C8.04934 54.0035 8.37148 54.0891 8.59174 54.3652C8.62754 54.5308 8.57248 54.6523 8.42931 54.7379C7.97225 54.7434 7.51519 54.8345 7.07466 54.6523Z" fill="#513C32"/>
<path d="M5.56076 6.05187C5.26616 4.64114 5.52773 3.22489 5.53324 1.8114C5.53599 1.34207 5.8306 0.952811 6.32895 0.795449C6.56023 0.662935 6.65384 0.817535 6.73919 0.991461C6.80803 1.33655 6.75297 1.74514 7.21002 1.88594C7.67533 2.07919 8.17368 2.12612 8.65551 2.24483C9.86973 2.5706 11.0344 2.21722 12.2045 1.9798C12.4 1.92459 12.5983 1.8887 12.7965 1.85833C13.1297 1.82244 13.4683 1.70925 13.7987 1.87765C13.8758 2.00189 13.9006 2.13716 13.8813 2.28072C13.7161 2.73624 13.3059 2.90188 12.9232 3.10066C12.367 3.36016 11.7695 3.36569 11.172 3.39053C10.28 3.39881 9.38789 3.41262 8.49582 3.37673C8.29207 3.36292 8.09108 3.33256 7.89559 3.2801C7.45506 3.19176 7.05858 2.85219 6.56849 3.0344C6.2078 3.55065 6.46661 4.1801 6.25461 4.72396C6.03434 5.1712 6.27112 5.8669 5.56076 6.05187Z" fill="#C03C2B"/>
<path d="M6.60459 1.09368C6.51373 0.994297 6.42287 0.897672 6.32926 0.798286C8.48511 -0.162447 10.7126 -0.187293 12.9565 0.359331C13.9918 0.610557 14.826 1.15442 14.5562 2.46852C14.3469 3.27742 14.435 4.08355 14.5369 4.89796C14.6168 5.54673 14.6443 6.20655 13.7687 6.36943C13.4493 4.97526 13.7274 3.57834 13.7605 2.18417C13.7577 2.08478 13.755 1.9854 13.7522 1.88877C13.5925 1.76454 13.4438 1.62926 13.2952 1.49123C11.5193 0.756875 9.68281 0.770679 7.82707 1.04951C7.42233 1.15442 7.0231 1.40288 6.60459 1.09368Z" fill="#CA412D"/>
<path d="M13.7296 6.29164C14.4069 6.05146 14.261 5.46619 14.3133 4.94441C14.3959 4.11895 14.06 3.25208 14.5528 2.46804C14.6409 3.42601 14.6905 4.38674 14.8281 5.33919C14.9328 6.06526 14.3821 6.37999 14.0434 6.83827C13.9663 6.9625 13.8617 7.0536 13.7296 7.1171C13.3937 7.24409 13.0522 7.35176 12.7136 7.47599C10.9845 7.99501 9.26091 7.90391 7.54008 7.43458C7.17939 7.30207 6.79944 7.19716 6.54889 6.86864C6.65351 6.21434 7.1849 6.31097 7.62819 6.24471C7.85396 6.24195 8.07698 6.25852 8.29724 6.29717C9.40959 6.53459 10.5302 6.60085 11.6563 6.39103C11.9784 6.30821 12.3088 6.28336 12.6392 6.24471C12.8265 6.2171 13.0137 6.17569 13.2009 6.14533C13.3992 6.12048 13.5781 6.16189 13.7296 6.29164Z" fill="#B84426"/>
<path d="M19.2972 32.1633C19.947 32.1301 20.0076 32.5334 19.9993 33.0524C19.9305 36.6552 19.881 40.2607 19.8231 43.8662C19.6387 43.949 19.4927 43.9048 19.3826 43.7392C19.0605 43.1429 19.1706 42.4941 19.1596 41.8619C19.0963 38.8996 19.2725 35.9346 19.0577 32.9751C19.0302 32.7046 19.1045 32.4644 19.267 32.2491L19.2972 32.1633Z" fill="#C19A38"/>
<path d="M8.52556 54.619C8.52556 54.5279 8.52556 54.4368 8.52556 54.3457C9.36807 53.7328 10.3841 53.9178 11.3009 53.8792C12.4105 53.8322 13.4595 53.6445 14.503 53.3215C14.8307 53.2911 15.1748 53.4678 15.4887 53.2387C15.5851 53.1807 15.6897 53.1393 15.7998 53.1117C16.0834 53.0951 16.3753 53.0371 16.6066 53.2773C16.6589 53.396 16.6286 53.4927 16.5322 53.5727C15.6099 54.3347 14.5085 54.5638 13.3549 54.6467C12.6831 54.9144 11.9397 54.5693 11.2761 54.8951C10.6374 55.0221 9.99859 55.0442 9.35982 54.9034C9.14231 54.6301 8.74307 54.8868 8.52556 54.619Z" fill="#593A2E"/>
<path d="M7.72468 6.54563C7.35023 6.63121 6.92621 6.47661 6.60408 6.79686C6.55727 6.91005 6.47466 6.9625 6.35351 6.95422C6.18281 6.90176 6.12775 6.71404 5.98458 6.63397C5.84416 6.44072 5.70393 6.24512 5.56076 6.05187C5.99303 5.67917 5.54679 5.00515 6.04239 4.65453C6.14426 4.75116 6.19658 4.87815 6.23788 5.01067C6.31222 4.98582 6.24614 4.94441 6.24339 4.9168C6.19934 4.09963 6.07269 3.27969 6.31498 2.46804C6.77754 2.6254 7.24009 2.78 7.70265 2.93736C7.65034 3.26589 7.46862 3.56681 7.48239 3.9119C7.48514 4.08582 7.48239 4.25975 7.48239 4.43368C7.48789 4.90576 7.43282 5.38337 7.6173 5.83889C7.7054 6.06803 7.81554 6.2944 7.72468 6.54563Z" fill="#D64834"/>
<path d="M19.2834 32.8096C19.6936 33.232 19.5257 33.7649 19.5312 34.2507C19.556 37.4615 19.5587 40.6722 19.5697 43.8829C19.8588 44.6808 19.4789 45.5394 19.7873 46.3372C19.79 46.5111 19.7928 46.6878 19.7955 46.8617C19.5752 47.0771 19.3605 47.0384 19.1485 46.8452C18.8594 46.4007 18.8704 45.8982 18.8759 45.3986C18.8842 43.9851 18.8759 42.5716 18.8759 41.1581C18.8814 40.2388 18.8842 39.3222 18.8759 38.4029C18.8704 38.2317 18.8732 38.0633 18.8732 37.8921C18.8842 36.6609 18.8731 35.4296 18.8814 34.1983C18.8842 33.6986 18.8511 33.1879 19.2834 32.8096Z" fill="#D0AA4A"/>
<path d="M19.2636 46.8893C19.4398 46.881 19.616 46.8727 19.7922 46.8644C19.9327 48.1233 19.8198 49.3711 19.5968 50.6107C19.3132 52.1926 18.0301 53.4184 16.5268 53.5757C16.5213 53.4653 16.513 53.3549 16.5075 53.2444C16.7526 52.5515 17.6226 52.5211 17.9283 51.8917C18.3302 51.3975 18.6964 50.884 18.7983 50.227C19.0296 49.2414 18.7432 48.2227 19.002 47.2399C19.0571 47.0991 19.1452 46.9831 19.2636 46.8893Z" fill="#4E3A33"/>
<path d="M17.061 22.6047C17.4767 22.5081 17.3638 23.455 17.9338 23.0519C18.6827 24.3798 19.2361 25.7823 19.4977 27.2952C19.2306 27.4498 19.2141 27.8666 18.8479 27.9163C18.0411 27.1268 18.1403 25.912 17.4932 25.0452C17.4327 24.9292 17.3831 24.8078 17.3391 24.6835C17.2289 23.9933 16.648 23.3639 17.061 22.6047Z" fill="#5A3F34"/>
<path d="M0.56343 46.9654C0.48083 46.9433 0.398221 46.924 0.312868 46.9074C0.233022 44.0446 0.153179 41.1789 0.076086 38.3161C0.238532 38.2774 0.362437 38.3326 0.442283 38.4817C0.717616 39.1001 0.574435 39.8013 0.830494 40.4253C1.03424 41.9823 0.827738 43.5504 0.965405 45.1075C1.01496 45.24 1.04801 45.378 1.07003 45.516C1.09757 45.6513 1.11134 45.7894 1.11685 45.9246C1.12786 46.1262 1.11409 46.3277 1.0783 46.5265C1.04801 46.6562 0.995699 46.7749 0.921359 46.8854C0.816733 46.9765 0.69559 46.9986 0.56343 46.9654Z" fill="#BA9542"/>
<path d="M5.98193 6.63806C6.09481 6.72364 6.20769 6.80647 6.32058 6.89205C6.69778 7.69266 6.28754 8.52364 6.42521 9.33529C6.29855 10.365 6.19669 11.3976 6.02048 12.419C5.7947 12.4052 5.56611 12.3886 5.34033 12.3748C5.05123 10.4036 5.43401 8.5126 5.98193 6.63806Z" fill="#D1A753"/>
<path d="M18.9859 27.85C19.0493 27.5628 18.7987 26.9858 19.5008 27.2923C19.7128 28.772 20.1836 30.2435 19.6109 31.7426C19.4815 31.7315 19.3549 31.7205 19.2255 31.7094C18.8785 30.4423 18.394 29.1806 18.9859 27.85Z" fill="#473226"/>
<path d="M0.265934 38.334L0.169574 38.3367C0.169574 38.3367 0.0732004 38.3202 0.0759538 38.3202C0.120007 36.1972 -0.199376 34.0686 0.216376 31.9539C1.00107 32.7325 0.414611 33.8036 0.797324 34.6677C0.96803 35.6671 0.943251 36.672 0.849638 37.6797C0.816598 37.8343 0.753276 37.9751 0.665169 38.1076C0.55779 38.2235 0.422873 38.3008 0.265934 38.334Z" fill="#AC9B74"/>
<path d="M13.7629 6.8743C13.8565 6.8605 13.9529 6.84946 14.0465 6.83565C14.1429 6.82461 14.2282 6.84946 14.3026 6.91295C14.6605 7.40436 14.2089 8.04209 14.5944 8.53074C14.644 8.58871 14.6522 8.65221 14.6164 8.72123C14.8973 9.37 14.5036 10.1016 14.8643 10.7393C15.1038 11.2694 15.2826 11.8055 14.9274 12.3576C14.8448 12.2389 14.7761 12.0921 14.5862 12.1666C14.432 12.2218 14.2998 12.1887 14.1924 12.0645C13.9391 11.6724 13.9639 11.228 13.9474 10.789C13.9501 10.3004 13.9529 9.81172 13.7904 9.33963C13.7078 8.9973 13.6831 8.64669 13.6638 8.29608C13.7244 7.82399 13.3857 7.3243 13.7629 6.8743Z" fill="#D1A953"/>
<path d="M0.524939 34.7386C0.0073134 33.8552 0.423067 32.8696 0.216567 31.953C0.178021 31.8702 0.189027 31.7929 0.244094 31.7211C0.343214 31.7322 0.439582 31.746 0.538702 31.757C0.852581 31.8454 0.951703 32.0773 0.954457 32.3754C0.88287 32.9138 0.904906 33.4576 0.877372 33.9987C0.838826 34.2831 0.778244 34.5564 0.524939 34.7386Z" fill="#B89143"/>
<path d="M19.7874 46.3399C19.2918 45.5586 19.6111 44.7055 19.5698 43.8856C19.6552 43.8718 19.7378 43.8662 19.8231 43.8662C19.9883 44.6917 19.9388 45.5172 19.7874 46.3399Z" fill="#B08328"/>
<path d="M8.52622 54.6193C8.83184 54.6331 9.15949 54.5779 9.35773 54.9064C8.59231 54.865 7.79328 55.1078 7.07466 54.6523C7.55924 54.6412 8.04164 54.6303 8.52622 54.6193Z" fill="#533F37"/>
<path d="M0.516639 28.6286C0.478093 29.2912 0.764431 29.9924 0.285352 30.6025C0.227533 29.9289 0.172473 29.2553 0.516639 28.6286Z" fill="#624134"/>
<path d="M14.8642 10.7404C14.3356 10.122 14.6605 9.40143 14.6164 8.72229C15.0074 9.35725 14.8119 10.064 14.8642 10.7404Z" fill="#D9AF5D"/>
<path d="M11.2764 54.8977C11.9152 54.3649 12.6586 54.7128 13.3552 54.6493C12.6889 54.9723 11.9758 54.8867 11.2764 54.8977Z" fill="#533F37"/>
<path d="M14.5944 8.53074C14.0823 8.06694 14.4017 7.45129 14.3026 6.91295C14.8147 7.37675 14.5421 7.98411 14.5944 8.53074Z" fill="#D9AF5D"/>
<path d="M0.855135 32.235C0.747755 32.0748 0.643119 31.9147 0.53574 31.7574C0.546753 31.5199 0.577054 31.2908 0.808333 31.1528C0.934986 31.1748 1.16626 31.2052 1.16351 31.1196C1.08917 29.7724 2.00327 28.6571 2.01979 27.3374C2.20426 26.9399 2.408 26.5534 2.62001 26.1724C2.99446 25.7914 3.35791 25.4049 3.40472 24.8335C3.32487 24.4414 3.11836 24.0908 3.01924 23.7071C2.98345 23.0086 3.17068 22.3681 3.5176 21.769C3.89205 21.9347 3.90857 21.6227 3.99943 21.4046C3.99667 20.8829 4.61892 20.4218 4.13434 19.8614C4.22244 19.5826 4.31056 19.3037 4.39866 19.0249C5.03468 18.4479 5.05119 17.6307 5.21639 16.8743C5.29349 15.5685 5.61288 14.3372 6.32599 13.2274C6.49945 13.2301 6.67016 13.2329 6.84362 13.2356C6.89318 13.2771 6.94549 13.3157 6.99505 13.3571C7.06113 13.4703 7.10793 13.5945 7.13271 13.7243C7.163 13.9231 7.16025 14.1191 7.13823 14.3178C6.99505 14.9031 6.92896 15.4939 6.95374 16.0958C6.84636 17.4899 6.4141 18.8234 6.17732 20.1927C6.18007 20.466 6.22963 20.7393 6.13877 21.0071C5.61013 22.081 5.37059 23.2598 4.96585 24.3779C4.56386 25.5126 4.18666 26.6528 3.83148 27.8012C3.65527 28.2181 3.64149 28.6681 3.58367 29.1071C3.45702 29.5847 3.37167 30.0595 3.65802 30.5123C3.6883 30.6255 3.69105 30.7414 3.66903 30.8546C3.42673 31.1417 3.75714 31.4923 3.57818 31.7877C3.43776 31.8981 3.27255 31.9451 3.10184 31.9672C2.58146 32.1383 2.35294 32.8561 1.67562 32.7346C1.49115 32.7595 1.30944 32.7485 1.13322 32.685C0.959764 32.5828 0.852382 32.442 0.855135 32.235Z" fill="#624134"/>
<path d="M3.83698 24.8032C3.51209 25.2918 3.67452 26.1642 2.75766 26.1918C2.44929 26.4955 2.47683 26.9731 2.19599 27.2906C2.12716 27.9228 2.7797 28.6157 1.76372 29.1872C1.32869 29.4329 1.55998 30.4406 1.63156 31.1142C1.66185 31.3902 1.76372 31.8458 1.30116 31.854C0.926709 31.8623 0.846855 31.4786 0.811061 31.1501C1.23507 29.4853 0.912934 27.6854 1.72241 26.0924C1.94543 25.6507 2.21526 25.2311 2.46306 24.8032C2.91736 24.5216 3.37717 24.2648 3.83698 24.8032Z" fill="#6A483B"/>
<path d="M6.02048 12.419C5.47256 11.3948 6.0758 10.3867 6.06478 9.37073C6.13912 9.25754 6.16391 9.13054 6.1942 8.99803C6.29882 8.55079 5.89132 7.86061 6.49154 7.69496C7.08626 7.52932 7.73054 7.77227 8.04442 8.44588C7.58737 9.31275 7.53506 10.2597 7.50752 11.2121C7.49376 11.7063 7.54607 12.2143 7.2377 12.6532C7.11656 12.7664 6.99266 12.7692 6.86601 12.6643C6.58792 12.5594 6.21321 12.811 6.02048 12.419Z" fill="#F7DD84"/>
<path d="M6.32629 13.2186C6.3373 14.483 5.41218 15.5293 5.49478 16.8103C5.34335 16.9649 5.26075 17.2492 4.94963 17.0836C4.88905 15.8965 5.22495 14.7701 5.4755 13.6272C5.5939 13.0916 5.72882 12.7051 6.32629 13.2186Z" fill="#6B493C"/>
<path d="M4.94963 17.0836C5.13135 16.9925 5.31306 16.9014 5.49478 16.8103C5.22771 17.5943 5.5415 18.6686 4.39887 19.0165C4.58059 18.3732 4.76515 17.7296 4.94963 17.0836Z" fill="#6B4B3F"/>
<path d="M6.86547 12.6606C6.95082 12.6247 7.03616 12.5999 7.12702 12.5889C7.45742 12.379 7.80159 12.3431 8.16228 12.5088C8.43761 12.68 8.49819 12.9477 8.50095 13.2459C8.48443 13.4557 8.41284 13.6435 8.2559 13.7898C8.1375 13.8533 8.01085 13.8726 7.87869 13.856C7.49598 13.7566 7.18209 13.5551 6.95907 13.2211L6.84068 13.2266C6.84894 13.0361 6.85721 12.8484 6.86547 12.6606Z" fill="#8C7365"/>
<path d="M3.83692 24.8023C3.37711 24.5014 2.91731 24.9845 2.4575 24.8051C2.64473 24.4379 2.82919 24.0707 3.01642 23.7035C3.29726 24.0624 3.78185 24.2723 3.83692 24.8023Z" fill="#775A4C"/>
<path d="M4.13425 19.856C5.2934 20.4192 4.1315 20.9575 4.11773 21.5069C4.0076 21.5897 3.90848 21.5814 3.82313 21.4655C3.92775 20.9299 4.03238 20.3916 4.13425 19.856Z" fill="#6B4B3F"/>
<path d="M3.82597 21.4652C3.92509 21.479 4.02145 21.4928 4.12057 21.5066C4.09855 21.7661 4.08754 22.0504 3.77916 22.1195C3.72134 22.1333 3.60846 21.8876 3.52035 21.7633C3.61947 21.6639 3.72134 21.5646 3.82597 21.4652Z" fill="#876A5C"/>
<path d="M18.1627 31.4393C17.2293 31.2405 16.3978 31.1632 15.7067 32.1184C15.1313 32.9107 14.0464 32.6733 13.2012 32.9273C12.5486 33.1233 11.7282 33.9322 11.1252 32.7617C11.0976 32.7064 10.7865 32.7672 10.6213 32.8224C10.4093 32.8914 10.1367 33.1482 10.0211 33.0847C8.80412 32.4138 7.76062 33.5761 6.60422 33.3745C6.52988 33.2751 6.50785 33.1647 6.53539 33.0432C6.52713 32.6816 7.31458 32.8914 7.0365 32.3337C7.06128 31.3399 7.57339 30.3515 7.05026 29.3577C7.01722 29.239 7.0062 29.1147 7.01446 28.9905C7.06402 28.7531 7.17141 28.546 7.34487 28.3804C7.46051 28.3058 7.79365 28.3031 7.43847 28.0684C7.3421 28.0077 7.25126 27.9442 7.15764 27.8834C6.20224 27.1353 6.20499 27.0773 7.25951 26.2022C7.11083 26.0338 6.89883 26.1249 6.72812 26.0586C6.61524 26.0117 6.53263 25.9399 6.47481 25.835C6.35641 25.3574 6.55741 24.8605 6.37293 24.3911C6.29309 23.839 6.51336 23.3421 6.64002 22.8286C6.79145 22.4283 6.78043 22.0059 6.78869 21.5862C7.01722 19.1789 7.58991 16.8047 7.52658 14.3669C7.5844 14.1212 7.71932 13.9501 7.98088 13.9142C9.17858 13.7872 10.3653 13.9722 11.5547 14.0412C12.1907 14.5491 13.4132 14.2399 13.5453 15.4602C12.9616 16.1034 13.2012 16.7991 13.4022 17.5059C13.7849 18.8614 14.2722 20.1921 14.3108 21.6249C14.2199 22.1687 13.8482 22.5304 13.4848 22.8976C13.3994 22.9887 13.3113 23.077 13.226 23.1654C12.9561 24.2724 13.4049 25.1503 14.1566 26.0586C13.7932 25.1255 13.9281 24.4215 14.6742 23.8914C14.8174 23.897 14.9385 23.9439 15.0432 24.0433C15.6131 25.6252 16.1968 27.2015 16.1335 28.9242C16.1087 29.0816 16.0839 29.2445 16.1225 29.3963C16.128 29.4184 16.172 29.3742 16.1252 29.2693C16.0536 29.1037 16.15 29.3301 16.1225 29.1423C16.5905 27.6239 15.96 26.2546 15.5635 24.8549C15.8664 24.2559 16.4859 23.9246 16.8301 23.3586C17.4854 23.6319 17.155 24.4381 17.6175 24.8163L17.612 24.8108C18.3224 26.4893 18.9006 28.2092 18.9722 30.0479C18.9914 30.6331 19.1649 31.4089 18.1627 31.4393Z" fill="#5C3A2E"/>
<path d="M6.79125 33.9683C9.04623 34.3879 11.3012 34.3658 13.5534 33.96C14.7153 33.2587 16.0479 33.2781 17.3255 33.06C17.6063 32.9882 17.8899 32.9192 18.1708 32.8474C18.7903 33.2229 18.4626 33.6094 18.1845 33.9931C17.6476 34.5038 16.6537 34.4817 16.505 35.4425C16.2544 36.2044 16.9565 36.3618 17.3227 36.7373C17.4742 38.3357 17.7109 39.9342 17.0914 41.4912C17.0198 41.6044 16.9483 41.7866 16.8464 41.7949C15.9406 41.8584 15.8965 42.6314 15.5854 43.2222C15.3954 43.5839 15.0925 44.528 14.6079 43.3602C14.5666 42.8744 14.7456 42.4326 14.886 41.9826C15.4119 40.9915 16.4334 40.0971 15.489 38.8271C15.4147 38.7277 15.3982 38.5428 15.1944 38.6311C14.9686 39.5863 14.1839 39.1004 13.6443 39.2495C13.0551 39.1667 12.9725 38.6228 12.7219 38.2336C12.408 37.7504 11.9124 38.1121 11.527 37.9741C11.3425 37.9161 11.2021 37.8001 11.0947 37.64C10.935 37.2784 10.5881 37.1679 10.2632 37.0271C10.0181 36.1465 10.723 36.2541 11.2021 36.0995C11.5407 35.9919 12.0804 36.094 12.0363 35.4756C11.9868 34.7578 11.4389 35.1195 11.1167 35.1029C10.3926 35.0698 9.66572 35.1195 9.14534 34.9621C9.74557 35.6302 9.31055 36.7732 9.96309 37.4689C9.57487 37.8609 9.23895 37.5682 8.90029 37.3833C8.59743 37.2176 8.31936 36.9443 7.95041 37.2149C7.74942 37.5627 8.07155 37.836 8.07981 38.1508C8.06329 38.2805 8.00547 38.3827 7.90359 38.4627C7.72463 38.5483 7.54016 38.5621 7.34743 38.5152C6.79677 37.9823 6.3342 37.2425 5.45039 38.159C5.16955 38.4489 4.66018 38.3054 4.4289 37.8305C4.2279 36.9526 4.23065 36.0747 4.42614 35.1968C4.75103 34.4873 5.36227 34.4376 6.04234 34.5811C5.15852 34.4403 4.25269 34.5646 3.52306 33.9213C3.50654 33.6535 3.67174 33.5155 3.88926 33.4133C4.92726 33.2367 5.90744 33.3526 6.79125 33.9683Z" fill="#F9DB7D"/>
<path d="M6.79169 33.9691C5.806 34.1099 4.90291 33.5826 3.93098 33.6074C3.06644 33.4887 2.05873 33.7068 1.6182 32.6053C2.34508 32.7157 2.12205 31.3105 3.0334 31.7163C3.32525 32.0642 3.75752 32.1994 4.14849 32.4175C3.89243 32.2326 3.6061 32.0669 3.57581 31.708C3.65566 31.4264 2.79386 31.2359 3.49871 30.8936C4.24486 30.8522 4.89189 30.6893 4.92493 29.7507C5.192 28.5415 5.45357 27.3323 5.72065 26.1258C5.85556 25.5185 5.89135 24.8228 6.61823 24.5357C7.18266 25.0022 6.53563 25.455 6.60171 25.916C6.8798 26.5676 6.34566 27.1777 6.52187 27.8458C6.65679 28.3537 6.5494 28.9418 7.14962 29.2261C8.18487 30.3277 7.49929 31.4292 7.14687 32.5307C7.06702 32.6191 6.97341 32.6439 6.86328 32.6135C6.73112 32.5583 6.59346 32.2933 6.4668 32.6273C6.48057 32.7958 6.55215 32.9393 6.5962 33.0912C6.59895 33.185 6.59896 33.2761 6.60171 33.37C6.94313 33.8807 7.57914 33.439 8.04445 33.8448C7.57914 33.8945 7.18542 33.9304 6.79169 33.9691Z" fill="#56372A"/>
<path d="M18.1627 31.4393C19.1869 30.5972 18.7351 29.4876 18.5781 28.5158C18.3771 27.2625 17.9421 26.045 17.609 24.8109C18.4818 25.6364 18.427 26.8837 18.9859 27.85C18.9667 29.142 19.4675 30.4042 19.2252 31.7128C18.5341 31.7818 18.1404 32.5437 17.2841 32.4968C17.6035 32.1131 17.8818 31.7761 18.1627 31.4393Z" fill="#725242"/>
<path d="M18.1603 33.925C18.1575 33.5661 18.4384 33.2128 18.1713 32.8511C18.5347 32.6496 18.8982 32.448 19.2616 32.2465C19.2699 32.4342 19.2751 32.6219 19.2834 32.8096C19.2641 34.5572 19.2423 36.3048 19.223 38.0496C18.8706 38.1379 18.6614 37.9529 18.5072 37.6686C18.2263 36.7769 18.3888 35.8603 18.353 34.9575C18.353 34.6621 18.342 34.3667 18.2016 34.0907C18.1878 34.0355 18.174 33.9802 18.1603 33.925Z" fill="#F5DD94"/>
<path d="M17.3286 33.0634C16.1199 33.5659 14.8919 33.9883 13.5565 33.9634C13.0747 33.9331 12.5928 33.9027 11.9761 33.864C13.7933 33.1573 15.4701 32.4809 17.3286 33.0634Z" fill="#58402E"/>
<path d="M16.7918 23.4252C16.7175 24.1043 16.5853 24.7393 15.7263 24.8111C15.1261 24.6234 15.1178 24.005 14.8369 23.5853C14.278 21.5783 13.9091 19.5243 13.3667 17.5145C13.1795 16.8188 12.9729 16.1038 13.4768 15.4357C13.2703 14.5522 12.1194 15.0547 11.8221 14.3065C11.8826 13.5032 12.6756 13.8179 12.9785 13.5501C11.4531 13.8924 9.85344 14.6737 8.25651 13.4976C8.26202 13.2519 8.26752 13.0062 8.27303 12.7605C8.34737 12.617 8.46575 12.5314 8.62269 12.5038C10.5473 12.6777 12.4223 12.1394 14.3303 12.0979C14.4102 12.1394 14.4955 12.1614 14.5836 12.1697C14.5781 12.3464 14.5726 12.5259 14.5671 12.7025C14.2202 13.7461 14.4542 14.8145 14.6828 15.7973C15.1563 17.8265 15.696 19.8501 16.511 21.7826L16.5055 21.7743C16.6486 22.3154 17.147 22.7958 16.7918 23.4252Z" fill="#58392C"/>
<path d="M16.5137 21.7832C15.1976 19.0611 14.1238 16.2728 14.3275 13.1642C14.3385 13.0041 14.4845 12.855 14.5698 12.7004C14.6139 15.2486 15.4757 17.6283 16.0759 20.0605C16.2163 20.6347 16.3677 21.209 16.5137 21.7832Z" fill="#725143"/>
<path d="M16.7915 23.426C16.6979 22.8766 16.6043 22.3244 16.5107 21.775C16.6951 22.0539 16.8796 22.33 17.0641 22.6088C17.1522 23.3707 17.6561 24.0278 17.6148 24.8201C16.8906 24.6214 17.2486 23.7793 16.7915 23.426Z" fill="#725143"/>
<path d="M14.8557 53.522C12.8292 54.433 10.6569 54.2232 8.5258 54.3447C6.23228 54.3668 4.25539 53.522 2.46848 52.1444C2.51529 52.103 2.56485 52.0616 2.61166 52.0202C3.20362 51.8435 3.74328 52.0616 4.28017 52.2604C4.55275 52.3597 4.7978 52.4315 4.82808 52.0091C4.91619 51.7082 4.97677 51.388 5.31267 51.2499C6.5792 53.1024 8.42117 53.4116 10.4696 53.188C11.0065 53.13 11.5545 53.1659 12.0969 53.1493C12.9091 53.1079 13.7048 52.9947 14.4427 52.6193C14.8639 52.4205 15.2852 52.3377 15.7037 52.6275C15.8359 52.8401 15.8524 53.0472 15.6817 53.2487C15.4449 53.4447 15.2164 53.6849 14.8557 53.522Z" fill="#674738"/>
<path d="M2.46903 52.1454C1.31539 51.8693 1.10339 50.9941 1.09788 49.9837C1.09513 49.5806 1.47784 49.0865 0.841826 48.8214C0.660106 48.6724 0.687635 48.4819 0.734442 48.2886C1.10889 47.7144 1.49987 47.9408 1.81925 48.319C2.08357 48.6337 2.86001 48.7994 2.52135 49.3018C1.85504 50.2929 2.47179 51.2012 2.4773 52.1426L2.46903 52.1454Z" fill="#6A4E3F"/>
<path d="M0.836075 48.2805C0.836075 48.46 0.838831 48.6394 0.838831 48.8189C0.186293 48.2833 0.714931 47.5738 0.563498 46.9664C0.632331 46.9305 0.703912 46.9112 0.781005 46.9085C1.03156 47.0134 1.1417 47.2232 1.20227 47.4716C1.20503 47.7974 0.968234 48.0155 0.836075 48.2805Z" fill="#2D1D14"/>
<path d="M7.70009 0.799402C9.76784 0.354925 11.8081 0.230693 13.7216 1.38468C13.46 1.64418 13.2838 1.98928 12.9369 2.16044C12.7662 2.17424 12.5928 2.18529 12.4221 2.19909C11.3207 2.35093 10.2221 2.51105 9.10428 2.44756C8.44623 2.35645 7.7937 2.24326 7.17695 1.98375C7.04204 1.25768 7.61198 1.22731 8.06078 1.10584C8.43247 1.0037 8.87026 1.19419 9.21718 0.857377C8.68303 1.11965 8.18192 1.21351 7.70009 0.799402Z" fill="#E35C47"/>
<path d="M7.15758 4.3993C7.16859 4.18949 7.1796 3.97691 7.19062 3.7671C7.49899 3.50207 7.93401 3.41373 8.19007 3.0714C9.21982 3.05759 10.2496 3.04655 11.2821 3.03275C11.4775 3.22047 11.9484 3.08796 11.9016 3.5628C11.7584 3.84716 11.5354 4.0625 11.2848 4.25023C11.1196 4.34685 10.9379 4.40207 10.7534 4.43795C9.88337 4.53182 9.01332 4.74163 8.13776 4.49317C7.91199 4.46832 7.68345 4.48765 7.45768 4.52078C7.33929 4.52354 7.23742 4.48489 7.15758 4.3993Z" fill="#D7503C"/>
<path d="M11.8247 3.5514C11.643 3.37748 11.4613 3.20355 11.2796 3.02963C11.844 3.00754 12.4222 3.05171 12.9398 2.74803C13.1463 2.90539 13.2977 3.09588 13.339 3.36091C13.2151 4.10355 13.4602 4.79925 13.6226 5.506C13.5951 5.83728 13.4272 6.09403 13.2124 6.33145C13.1133 6.40599 13.0169 6.48053 12.9178 6.55507C11.9844 6.14372 11.7036 5.35692 11.6926 4.41275C11.7228 4.12011 11.855 3.90478 12.1496 3.81367C12.3699 3.74465 12.4057 3.96275 12.5213 4.05938C12.4635 3.88821 12.4112 3.70876 12.1992 3.67564C12.0643 3.65631 11.9321 3.64251 11.8247 3.5514Z" fill="#CE4A39"/>
<path d="M13.212 6.33388C13.3001 6.04953 13.3882 5.76517 13.4763 5.48358C13.3331 4.76027 13.3497 4.01487 13.2092 3.29156C12.9945 3.17561 12.9367 2.97684 12.9394 2.75046C13.212 2.55997 13.4873 2.37224 13.7599 2.18175C14.272 3.55659 14.1123 4.92591 13.7324 6.29247C13.5589 6.30628 13.3855 6.32008 13.212 6.33388Z" fill="#D4523F"/>
<path d="M7.7004 0.797511C8.2428 0.797511 8.7852 0.797511 9.4873 0.797511C8.81549 1.66438 7.6591 1.06806 7.15524 1.88248C7.1167 1.99567 7.0396 2.07021 6.92396 2.10333C6.2549 1.94321 6.2907 1.55947 6.60182 1.09015C6.96802 0.993523 7.3342 0.896897 7.7004 0.797511Z" fill="#E96C59"/>
<path d="M9.07123 2.1849C10.1863 2.19042 11.3014 2.19594 12.4193 2.20146C11.1362 2.69011 9.83116 2.91097 8.47928 2.50514C8.59216 2.23735 8.92806 2.39195 9.07123 2.1849Z" fill="#EB7864"/>
<path d="M6.31498 2.46804C6.29295 3.68276 6.28178 4.89472 6.85997 6.12876C6.07252 5.69257 6.07253 5.69257 6.03949 4.65177C6.17991 3.93122 5.76982 3.14165 6.31498 2.46804Z" fill="#E15140"/>
<path d="M8.19009 3.0685C8.38282 4.05684 7.72476 3.82231 7.19062 3.7671C7.09976 3.32814 7.17961 2.99397 7.7055 2.94151C7.86519 2.98292 8.02764 3.02709 8.19009 3.0685Z" fill="#EB9680"/>
<path d="M9.07063 2.18419C8.87239 2.28909 8.67692 2.39676 8.47868 2.50167C7.92526 2.50995 7.41038 2.36639 6.92304 2.10689C7.00014 2.03235 7.07724 1.95781 7.15433 1.88603C7.7931 1.98541 8.43186 2.0848 9.07063 2.18419Z" fill="#F19783"/>
<path d="M12.9338 2.15957C13.1348 1.83657 13.1789 1.3562 13.7185 1.38381C13.7295 1.54945 13.7406 1.71785 13.7488 1.8835C13.479 1.97736 13.2064 2.06847 12.9338 2.15957Z" fill="#EB7E68"/>
<path d="M7.4275 4.38112C7.56241 4.15198 7.77717 4.12437 8.0112 4.14093C8.75735 4.89461 9.7155 4.24308 10.5332 4.52191C10.3625 5.60964 10.8223 6.2943 11.8576 6.61178C10.6379 7.04798 9.42641 7.01761 8.2177 6.56209C8.03598 6.34123 7.75513 6.24461 7.57342 6.02651C7.03652 5.5213 7.43851 4.93326 7.4275 4.38112Z" fill="#D64834"/>
<path d="M7.99226 8.49517C6.75602 7.46818 6.2878 8.15048 6.06478 9.37073C6.00696 8.5287 6.05943 7.70008 6.32375 6.89119C6.41736 6.86082 6.51374 6.83045 6.60735 6.80008C6.88544 6.90499 7.16627 7.0099 7.44435 7.11481C7.5655 7.81603 8.1905 7.50683 8.57597 7.68075C9.70483 7.68628 10.8365 7.7829 11.9598 7.62278C12.3563 7.44333 12.7555 7.28321 13.1988 7.26112C13.4356 7.31634 13.5815 7.45437 13.6145 7.70284C13.3998 8.50621 12.6426 8.51449 12.0562 8.77676C11.8359 8.84302 11.6101 8.87615 11.3816 8.88995C10.3711 8.901 9.36067 9.02247 8.35846 8.79057C8.20427 8.72707 8.08312 8.63044 7.99226 8.49517Z" fill="#E4BF5F"/>
<path d="M11.8605 6.61301C11.0345 6.63234 10.3077 6.75933 10.2306 5.44247C10.192 4.79646 10.6931 4.98142 10.7344 4.67222C10.7895 4.65566 10.8446 4.6391 10.8969 4.62253C11.1777 4.72744 11.2135 5.01179 11.3374 5.21885C11.5329 4.95106 11.4916 4.55351 11.8385 4.39339C12.1442 5.14431 12.3451 5.94768 12.9233 6.56056C12.5654 6.57712 12.213 6.59369 11.8605 6.61301Z" fill="#D7503C"/>
<path d="M8.24787 7.9704C7.72749 8.03665 7.31173 7.87653 7.09147 7.37684C7.0777 7.34647 7.32 7.20291 7.44114 7.11181C9.25008 7.40997 11.059 7.59494 12.868 7.10629C13.1846 6.98482 13.2479 7.13942 13.1984 7.41273C12.8404 7.51488 12.4797 7.61702 12.1218 7.71917C10.847 8.0615 9.5199 7.59218 8.24787 7.9704Z" fill="#F7DC96"/>
<path d="M13.1984 7.41621C13.0882 7.31406 12.9781 7.21191 12.8679 7.10977C13.1295 6.89443 13.4269 6.81437 13.7628 6.87786C13.7187 7.36099 14.151 7.76406 13.9941 8.26651C13.5287 8.35209 13.6582 7.89105 13.4847 7.70884C13.3911 7.60946 13.2947 7.51283 13.1984 7.41621Z" fill="#F0D480"/>
<path d="M7.72161 6.0251C8.06853 6.03615 8.24474 6.20731 8.2172 6.56344C8.052 6.55792 7.88681 6.5524 7.72161 6.54964C7.62524 6.38124 7.53162 6.21283 7.43525 6.04719C7.52611 5.934 7.61973 5.9202 7.72161 6.0251Z" fill="#E37163"/>
<path d="M15.6875 53.2468C15.6875 53.0618 15.6875 52.8769 15.6847 52.6947C15.7535 52.4241 15.9545 52.2888 16.1968 52.195C16.7365 52.1287 17.2293 51.8885 17.7552 51.7643C17.9645 51.7892 18.0691 51.9355 18.1407 52.1122C17.8323 52.8327 17.0554 52.8717 16.5075 53.2444C16.2349 53.4156 15.9628 53.418 15.6875 53.2468Z" fill="#66463A"/>
<path d="M14.8557 53.522C15.1338 53.4309 15.409 53.3372 15.6871 53.2461C15.5742 53.8341 15.3072 53.961 14.8557 53.522Z" fill="#66463A"/>
<path d="M7.72166 6.02382C7.62805 6.03211 7.53168 6.03763 7.43806 6.04591C6.92044 5.57106 7.21781 4.95542 7.15724 4.40052C7.2481 4.39223 7.3362 4.38671 7.42706 4.38395C7.86208 4.86708 7.11593 5.5683 7.72166 6.02382Z" fill="#E36954"/>
<path d="M19.2636 46.8893C19.2388 46.9555 19.2283 47.0248 19.231 47.0938C18.9281 47.9635 18.2453 48.2948 17.4 48.4024C15.9821 47.8171 17.2073 47.207 17.3835 46.6052C17.6175 46.1717 17.959 45.788 17.9837 45.2607C17.9948 45.1365 18.0278 45.0178 18.0801 44.9046C18.2343 44.6948 18.427 44.565 18.7024 44.5981C19.1126 44.7472 19.0438 45.1889 19.2338 45.4733C19.242 45.9481 19.2526 46.4199 19.2636 46.8893Z" fill="#EBC665"/>
<path d="M19.2314 45.4749C19.0524 45.2015 18.8762 44.9255 18.6972 44.6522C18.2099 43.6114 18.9725 42.4408 18.3586 41.4138C18.3586 40.1908 18.0364 38.9347 18.733 37.7835C18.8982 37.8718 19.0606 37.9602 19.2258 38.0485C19.2313 38.1451 19.2369 38.239 19.2451 38.3356C19.0496 39.2577 19.0414 40.1798 19.2506 41.1019C19.2424 42.5595 19.2369 44.0172 19.2314 45.4749Z" fill="#F8D68B"/>
<path d="M19.247 41.1018C18.8368 40.1798 18.8423 39.2577 19.2415 38.3356C19.2443 39.2604 19.2443 40.1798 19.247 41.1018Z" fill="#EECA6D"/>
<path d="M17.3337 48.2607C18.0909 48.0729 18.7021 47.6505 19.2335 47.0956C19.1592 48.2275 19.5391 49.387 19.016 50.4886C18.7682 50.3229 18.7104 50.0607 18.6663 49.7901C18.6333 49.6134 18.6195 49.2904 18.5259 49.2932C17.6035 49.3125 16.7004 49.4919 15.8276 49.7956C15.6982 49.8398 15.6156 49.9972 15.6927 50.1324C15.8194 50.3478 16.0837 50.483 16.2654 50.3505C16.75 49.9999 17.2126 49.6272 17.3723 50.5742C17.4906 51.2726 17.6972 52.0815 16.5876 52.2251C16.4526 52.2416 16.337 52.3272 16.2351 52.4183C16.0507 52.5122 15.8689 52.6033 15.6845 52.6971C15.3045 52.733 14.875 52.5702 14.5776 52.9622C13.7654 53.2079 12.7659 52.6226 12.0996 53.5226C10.8469 53.3873 9.60237 53.7932 8.34135 53.5336C6.96744 53.2521 5.63758 52.9539 5.25486 51.3113C4.80607 50.9607 4.54726 50.3643 3.91124 50.2677C3.45694 50.2373 3.60288 50.5355 3.64418 50.7729C3.7901 51.51 4.73724 51.4935 4.94374 52.1699C5.0759 52.3907 5.20806 52.6088 5.41456 52.9567C4.33251 52.6751 3.45419 52.2002 2.47126 52.1478C1.87929 51.303 1.3947 50.4554 2.13534 49.4312C2.31706 49.18 1.35616 48.3462 0.833024 48.2883C0.915624 48.0343 0.995475 47.7775 1.07807 47.5235C1.5131 47.2005 1.79394 47.6423 2.14912 47.7306C2.88977 48.0315 3.61663 48.3683 4.39307 48.5781C5.86335 48.984 7.32536 49.4257 8.88099 49.2821C11.3893 49.3815 13.8618 49.1966 16.2572 48.3739C16.6068 48.2496 16.9675 48.2137 17.3337 48.2607Z" fill="#593A2E"/>
<path d="M18.9859 49.6612C18.9941 49.9373 19.0052 50.2106 19.0134 50.4867C19.0933 51.2293 18.5234 51.618 18.1407 52.1122C18.0526 52.0293 17.9644 51.9471 17.8763 51.8643C18.0002 51.0057 18.1021 50.136 18.9859 49.6612Z" fill="#816051"/>
<path d="M1.61817 32.608C2.27621 33.2043 3.20132 33.1794 3.93095 33.6101C3.81256 33.7122 3.69141 33.8144 3.57026 33.9165C3.41332 34.0215 3.23987 34.038 3.06366 33.9994C2.62038 33.9055 2.2349 33.9469 2.20461 34.5046C2.17432 35.0733 2.63965 34.9159 2.95903 34.9767C3.08569 35.0015 3.16829 35.1285 3.23437 35.2472C3.43536 35.7883 3.38029 36.3543 3.39956 36.9119C3.38304 37.326 3.38855 37.7429 3.37203 38.157C2.51575 39.4849 2.95903 40.5285 4.05761 41.4644C4.42931 41.7819 4.43482 42.2733 4.40453 42.7371C4.36874 43.3058 4.43757 43.8303 4.93592 44.2002C5.52788 44.7414 6.11433 45.2797 6.86874 45.6055C7.28174 45.7821 7.66722 46.0472 7.50202 46.6242C7.00918 47.4413 6.19143 47.2343 5.45904 47.2702C4.96895 47.295 4.47887 47.2785 3.98878 47.2785C2.78557 47.2674 1.75031 46.8174 0.830702 46.0665C0.841716 45.9699 0.849988 45.8705 0.861002 45.7739C1.07576 43.2395 1.07851 40.7052 0.808688 38.1736C0.684788 36.3984 1.07576 34.6205 0.772893 32.8481C0.75362 32.561 0.83622 32.3843 1.16937 32.4865C1.31805 32.5251 1.46949 32.5666 1.61817 32.608Z" fill="#F9DA7C"/>
<path d="M0.833118 46.063C1.90692 46.0823 2.70814 47.0486 3.82049 46.9243C7.03912 47.3026 10.1063 46.6703 13.0854 45.4943C14.1289 45.3535 14.7484 44.2216 15.88 44.2823C16.1499 44.4121 16.2738 44.6523 16.3509 44.9228C16.3646 45.0553 16.3454 45.1851 16.2985 45.3093C16.1251 45.5743 15.8608 45.8504 15.8635 46.1458C15.8856 47.5538 14.8806 47.8961 13.8316 48.2191C13.6499 48.2412 13.4736 48.2246 13.3084 48.1556C12.9422 47.7139 13.0303 48.2826 12.8899 48.3516C12.1686 48.7381 11.3398 48.7878 10.5937 49.097C9.36292 49.4532 8.1432 48.6194 6.91247 49.0777C6.09473 49.2157 5.3348 48.9314 4.56111 48.7575C3.78468 48.52 3.07433 48.0976 2.28137 47.8934C1.65361 47.6338 1.16903 47.2004 0.80008 46.6317C0.811093 46.444 0.822105 46.2535 0.833118 46.063Z" fill="#DF573A"/>
<path d="M1.09185 38.0636C1.64527 40.4378 1.27082 42.8479 1.35066 45.2415C1.36168 45.5617 1.17763 45.738 0.861002 45.7739C0.825208 45.6938 0.802756 45.6086 0.788989 45.5231C0.563217 43.2317 0.769709 40.9264 0.557703 38.635C0.571469 38.4722 0.618276 38.3176 0.695369 38.174C0.791735 38.0056 0.923896 37.9669 1.09185 38.0636Z" fill="#FAE59E"/>
<path d="M0.769558 38.0686C0.777818 40.5533 0.783329 43.0379 0.791589 45.5198C0.246431 43.7833 0.703469 41.9971 0.518996 40.2413C0.345537 39.529 0.351057 38.814 0.516257 38.099L0.557547 38.0162C0.645653 37.9582 0.717245 37.9775 0.769558 38.0686Z" fill="#D1AD55"/>
<path d="M0.800127 46.6347C1.28196 46.9798 1.76103 47.3222 2.24287 47.6673C2.23461 47.8688 2.07216 47.8909 1.93174 47.9378C1.64815 47.797 1.36456 47.6562 1.08097 47.5182C0.981852 47.3166 0.882727 47.1124 0.783608 46.9108C0.794621 46.817 0.800127 46.7259 0.800127 46.6347Z" fill="#E5AC6E"/>
<path d="M0.51661 38.1012C0.51661 38.8162 0.519349 39.5285 0.519349 40.2435C0.0567906 39.6583 0.378934 38.9681 0.266048 38.3331C0.348648 38.2558 0.43401 38.1785 0.51661 38.1012Z" fill="#B78724"/>
<path d="M0.769558 38.0686C0.695218 38.0631 0.62663 38.0487 0.557797 38.0184C0.546783 36.9251 0.535952 35.8319 0.524939 34.7386C0.538705 34.4681 0.552298 34.2003 0.566065 33.9297C0.750538 33.8497 0.879939 33.9021 0.957032 34.0871C0.904719 35.4095 1.06716 36.7401 0.846893 38.0598L0.769558 38.0686Z" fill="#CBBB92"/>
<path d="M8.24813 8.53353C9.35222 8.53353 10.4563 8.53629 11.5604 8.53629C11.6513 8.6688 11.7036 8.82893 11.8137 8.9504C12.0918 9.14641 12.4552 9.24027 12.5901 9.60469C12.7581 10.074 12.6149 10.5847 12.7636 11.043C12.9618 11.6559 13.2757 11.7608 13.6034 11.101C13.6722 10.9216 13.7878 10.7835 13.9475 10.6814C14.0714 10.6289 14.1816 10.6538 14.2807 10.7421C14.2972 11.1921 14.3165 11.6421 14.333 12.0921C12.4497 12.8154 10.5141 13.0446 8.51797 12.6939C8.03614 12.3903 7.83788 11.9209 7.937 11.3936C8.11322 10.4467 8.00584 9.47217 8.24813 8.53353Z" fill="#F7D97A"/>
<path d="M14.0404 10.7406C13.9523 10.8234 13.867 10.9062 13.7789 10.989C13.5366 10.8234 13.4815 10.5666 13.4374 10.3044C13.4485 9.52307 13.2612 8.88534 12.3471 8.75835C12.2315 8.70314 12.1406 8.62308 12.0718 8.51817C12.4683 8.1151 13.1626 8.2389 13.4847 7.70884C13.6554 7.89381 13.8233 8.08154 13.9941 8.26651C14.0133 8.62816 14.0349 8.99025 14.0542 9.34915C14.2166 9.81295 14.2414 10.2768 14.0404 10.7406Z" fill="#F8E7A8"/>
<path d="M14.0406 10.7394C14.0461 10.2756 14.0516 9.81176 14.0544 9.3452C14.4564 9.75931 14.2609 10.27 14.2746 10.7449C14.1975 10.7394 14.1205 10.7366 14.0406 10.7394Z" fill="#EBCC74"/>
<path d="M0.783382 33.914C0.711795 33.9195 0.637461 33.9251 0.565875 33.9306C0.618188 33.3591 0.318236 32.7264 0.855135 32.235C0.959761 32.3178 1.06421 32.4011 1.17159 32.484C1.06146 32.6054 0.951338 32.7297 0.838452 32.8511C1.03944 33.2183 1.16059 33.5772 0.783382 33.914Z" fill="#DBBB6C"/>
<path d="M7.69472 14.3264C8.06917 14.8123 7.99759 15.37 7.92325 15.9138C7.65893 17.8629 7.38085 19.812 7.10552 21.7611C6.28227 22.0647 6.20793 21.6009 6.24372 20.9549C6.28778 20.146 6.51354 19.3509 6.46123 18.5338C6.47775 18.2991 6.41993 18.0396 6.65121 17.8684C7.14406 17.5482 6.71728 17.1313 6.76409 16.7641C6.73656 16.524 6.72556 16.2865 7.00365 16.1706C7.49649 16.0298 7.2294 15.6488 7.2652 15.3617C7.29548 15.6019 7.30926 15.8365 7.15232 16.0491C6.96509 16.1237 6.78888 16.1375 6.63194 15.9856C6.5631 15.3203 6.66498 14.6798 6.89351 14.0586C7.29274 13.7522 7.51024 13.9868 7.69472 14.3264Z" fill="#9D877D"/>
<path d="M4.69066 24.2779C5.08439 23.1432 5.05685 21.8346 6.0453 20.9429C6.29309 21.3211 6.14993 21.7573 6.22702 22.1632C6.17471 22.4807 6.0453 22.7705 5.89662 23.0549C6.07834 22.7926 6.11963 22.4448 6.40598 22.246C6.54365 22.2515 6.65104 22.3095 6.72538 22.4282C6.68958 23.3807 6.47206 24.2862 6.01226 25.1254C5.67635 24.9267 5.33769 25.0398 4.99628 25.1089C4.65487 24.9211 4.82558 24.5429 4.69066 24.2779Z" fill="#99837C"/>
<path d="M4.69066 24.2779C5.0073 24.4794 4.91673 24.805 4.94426 25.0976C4.95252 25.1584 4.96079 25.2191 4.96905 25.2798C5.01585 25.8927 4.71574 26.4725 4.79834 27.0881C4.76806 27.2814 4.67994 27.447 4.56706 27.6044C4.07146 28.3442 4.18985 29.2332 3.97784 30.0393C3.90901 30.3044 4.05493 30.724 3.5318 30.6522C2.89578 30.2657 2.93434 29.7743 3.31705 29.2332C3.6089 28.7998 3.28125 28.2614 3.55383 27.8252C3.73831 26.5801 4.20883 25.4263 4.69066 24.2779Z" fill="#B8A59C"/>
<path d="M3.52907 30.6494C3.93657 29.5644 3.48227 28.2558 4.39087 27.2979C4.65519 27.5077 4.77084 27.8031 4.8672 28.1095C4.96357 28.5982 5.10124 29.1144 4.62766 29.4843C4.40189 29.661 4.47623 29.7439 4.64694 29.8515C4.72128 29.8985 4.82039 29.8957 4.914 29.8929C5.0324 29.9095 5.12877 29.9647 5.20861 30.0503C5.12051 31.3202 4.44318 31.3782 3.49603 30.8896C3.52081 30.815 3.52907 30.735 3.52907 30.6494Z" fill="#9D887F"/>
<path d="M6.58448 22.3178H6.34219C6.21553 22.2681 6.12193 22.1825 6.05585 22.0638C5.5162 21.6966 6.14394 21.3184 6.04482 20.9457C5.96498 20.7552 5.88513 20.5675 5.80528 20.377C6.27335 19.8304 6.09439 19.0077 6.61752 18.4859C7.20122 19.292 6.6368 20.1313 6.53768 20.8933C6.44957 21.5752 6.58999 21.6745 7.10211 21.7601C7.14065 22.1659 7.21774 22.5773 6.9369 22.939C6.58998 22.8617 6.90662 22.4089 6.58448 22.3178Z" fill="#8C746B"/>
<path d="M6.62066 18.486C6.37561 19.1265 6.64268 19.9906 5.80842 20.3771C6.08375 18.914 6.35908 17.4508 6.63166 15.9876C6.80237 15.9876 6.97583 15.9848 7.14653 15.9848C7.21812 16.0456 7.24015 16.1063 7.21812 16.167C7.1961 16.2278 7.17131 16.2581 7.14653 16.2581C6.92076 16.3934 6.88498 16.6088 6.89875 16.8462C7.05018 17.2051 7.08871 17.564 6.8712 17.9146C6.64543 18.0416 6.60689 18.2514 6.62066 18.486Z" fill="#A89187"/>
<path d="M3.57252 31.7101C4.10942 32.0745 4.64631 32.439 5.18321 32.8006C4.36272 32.5908 3.25588 32.9248 3.03011 31.7184C3.21183 31.7156 3.39355 31.7129 3.57252 31.7101Z" fill="#795B4B"/>
<path d="M7.69404 14.3261C7.42697 14.2377 7.15991 14.1466 6.89559 14.0583C6.9011 13.8705 6.90936 13.68 6.91487 13.4896C7.30033 13.4564 7.63348 13.6248 7.97489 13.7684L8.01344 13.7988C8.08227 13.865 8.09879 13.923 8.063 13.9727C8.02996 14.0169 7.99966 14.0389 7.96938 14.0389C7.87576 14.1356 7.7849 14.2322 7.69404 14.3261Z" fill="#8C7365"/>
<path d="M2.19599 27.2906C2.17397 26.8157 2.25105 26.3933 2.75766 26.1918C2.76592 26.6584 2.71637 27.0973 2.19599 27.2906Z" fill="#7A5C4F"/>
<path d="M7.97209 13.7705C7.58662 13.8008 7.2342 13.7042 6.91206 13.4916C6.92858 13.4005 6.9451 13.3094 6.96162 13.2211C7.35259 13.3011 7.72704 13.4171 7.97209 13.7705Z" fill="#9D8778"/>
<path d="M3.55064 27.8264C3.54788 28.3095 3.74337 28.823 3.31386 29.2344C3.28908 28.7457 3.22299 28.2515 3.55064 27.8264Z" fill="#9D887F"/>
<path d="M8.24813 8.53353C8.65838 9.24856 8.58663 9.99723 8.37187 10.7426C8.17639 11.419 8.20134 12.0645 8.51797 12.6939C8.44363 12.7354 8.36087 12.758 8.27552 12.758C7.8928 12.7027 7.51283 12.6448 7.13012 12.5895C7.20722 11.4135 7.1439 10.2402 7.32561 9.05858C7.41372 8.49263 7.64775 8.53128 7.99467 8.49263C8.07452 8.51748 8.16003 8.53077 8.24813 8.53353Z" fill="#FAEDC2"/>
<path d="M6.67555 12.2969C6.10837 11.2644 6.38369 10.6129 6.79944 9.71013C6.90131 10.6212 6.93712 11.281 6.67555 12.2969Z" fill="#F6D563"/>
<path d="M7.97021 14.0423C7.97847 13.9623 7.99224 13.8822 8.01151 13.8021C8.09411 13.7 8.17396 13.5978 8.25656 13.4957C10.1564 14.092 11.9928 13.78 13.9642 12.9049C13.3888 13.9043 12.3287 13.6475 11.8221 14.3046C10.5281 14.3791 9.23949 14.3515 7.97021 14.0423Z" fill="#755446"/>
<path d="M13.2065 22.8821C13.4818 22.5122 13.7572 22.145 14.0325 21.775C14.8915 22.3438 14.8557 23.1361 14.5831 23.9891C14.0215 24.8809 14.3629 25.8554 14.495 26.9569C13.4653 25.9796 13 24.9913 12.7191 23.8318C12.565 23.1913 12.6668 23.0091 13.2065 22.8821C13.3084 23.0367 13.1514 22.8628 13.2808 22.9925C13.3166 23.0257 13.2973 22.9815 13.2065 22.8821Z" fill="#543428"/>
<path d="M14.5832 23.9854C14.3602 23.2566 14.5364 22.4311 14.0326 21.7713C13.9693 19.9216 13.1185 18.2459 12.8349 16.4404C12.7303 15.7723 12.8349 15.4962 13.4792 15.4327C13.38 17.6744 14.1757 19.7367 14.7484 21.8431C14.9164 22.4588 15.2165 23.0468 15.1284 23.7149C15.0458 23.8198 15.0128 23.9827 14.8393 23.991C14.754 23.991 14.6686 23.9882 14.5832 23.9854Z" fill="#67483B"/>
<path d="M6.58448 22.3178C7.12964 22.2791 6.76619 22.7623 6.9369 22.939C6.82952 23.4718 6.72226 24.0079 6.61488 24.5407C5.91278 26.3214 5.69252 28.2235 5.20794 30.0567C5.12258 30.0567 5.03723 30.0567 4.95188 30.0567C4.50584 29.165 5.10055 28.218 4.80595 27.318C4.81421 26.4374 4.8087 25.5539 5.77237 25.0901C6.35607 24.2591 6.43305 23.2758 6.58448 22.3178Z" fill="#A8948A"/>
<path d="M14.8391 23.9938C14.9355 23.9027 15.0319 23.8088 15.1282 23.7177C15.3265 24.0821 15.528 24.4467 15.7263 24.8111C16.4532 26.2218 17.0638 27.6435 16.2213 29.2309C16.1359 29.3551 16.0506 29.3606 15.968 29.2309C15.8689 27.4254 15.0787 25.7689 14.8391 23.9938Z" fill="#7A6257"/>
<path d="M7.14898 29.232C6.42485 29.2182 6.05591 28.7599 6.17706 27.9151C6.27067 27.2442 6.45514 26.5872 6.60107 25.9246C6.69193 25.9218 6.78278 25.9218 6.87364 25.9218C7.14898 26.1952 7.42155 25.7093 7.69688 25.9191C8.01902 26.1841 7.88963 26.4298 7.58676 26.5071C6.31748 26.8301 6.76351 27.3215 7.42431 27.8571C7.34171 28.2271 7.05812 28.5473 7.14898 28.9586C7.14898 29.047 7.14898 29.1381 7.14898 29.232Z" fill="#644135"/>
<path d="M6.59833 33.0965C6.2459 33.0771 6.05042 32.906 6.04766 32.5388C6.32299 32.3456 6.59833 32.3069 6.87642 32.536C6.96728 32.5388 7.05813 32.5388 7.14899 32.536C7.28666 33.0385 6.78555 32.9115 6.59833 33.0965Z" fill="#6C4C3C"/>
<path d="M7.14881 28.9547C6.62017 28.4301 6.97535 28.1292 7.42414 27.8531C7.58384 28.0353 7.59761 28.2175 7.42966 28.4025C7.4214 28.6261 7.37183 28.8332 7.14881 28.9547Z" fill="#56372A"/>
<path d="M15.968 29.2309C16.0534 29.2309 16.1387 29.2309 16.2213 29.2309C16.2956 29.4738 16.8662 29.5762 16.4339 29.9599C16.3458 30.04 16.1448 30.1366 16.1035 30.1007C15.8282 29.8605 15.9955 29.5263 15.968 29.2309Z" fill="#7F665C"/>
<path d="M8.63351 21.9452C8.57845 22.1412 8.44077 22.2516 8.24529 22.2213C8.02227 22.1881 7.96997 21.9976 8.03605 21.8182C8.07184 21.7188 8.21776 21.5946 8.30862 21.5973C8.49034 21.6056 8.61699 21.7409 8.63351 21.9452Z" fill="#6A4A3E"/>
<path d="M7.42743 28.3994C7.42468 28.2172 7.42467 28.0322 7.42192 27.85C7.96157 27.8969 8.102 28.2696 7.89825 28.6616C7.80189 28.8494 7.62016 28.4463 7.42743 28.3994Z" fill="#644135"/>
<path d="M7.69687 25.9165C7.42154 25.8309 7.15171 26.7668 6.87363 25.9193C7.14621 25.8503 7.42154 25.4776 7.69687 25.9165Z" fill="#56372A"/>
<path d="M18.7298 37.784C18.7216 38.9684 18.7161 40.1527 18.7078 41.3371C18.1626 41.9582 18.1379 43.1426 16.9016 43.0266C16.4583 42.6015 16.4005 42.1432 16.7805 41.6463C17.3064 39.9208 16.9622 38.1512 17.0531 36.4037C16.6896 36.1083 16.7419 35.5009 16.2408 35.3076C16.3702 34.1371 17.3614 34.1619 18.1571 33.9218C18.3912 34.6175 17.9617 35.3214 18.2232 35.9647C18.5151 35.5589 17.601 34.6837 18.6968 34.4849C18.7106 35.5865 18.7216 36.6852 18.7298 37.784Z" fill="#EECA6D"/>
<path d="M9.90802 37.4585C9.66022 37.1879 9.43169 36.9008 9.16462 36.6523C8.35789 35.8931 8.35239 35.8987 9.42343 35.3907C9.24171 35.283 9.09303 35.1864 8.93609 35.1091C8.79291 35.0373 8.63598 34.9876 8.56164 34.753C9.55559 34.753 10.555 34.8137 11.5407 34.7309C12.2318 34.6729 12.3998 34.9103 12.3282 35.5315C12.2649 36.0947 12.1052 36.5253 11.4223 36.4812C11.0121 36.4536 10.4367 36.1333 10.5082 36.9864C10.4807 37.3646 10.3623 37.6241 9.90802 37.4585Z" fill="#F7D572"/>
<path d="M15.1777 41.9147C15.0593 42.3564 14.9409 42.7981 14.8253 43.2399C14.7097 44.3441 14.5445 45.4098 13.0797 45.4429C12.8704 45.3794 12.7135 45.2497 12.6006 45.0647C12.4685 44.7168 12.6171 44.4076 12.73 44.0929C12.8787 43.2675 13.914 42.6491 13.3 41.6442C13.143 40.9181 13.5973 40.2859 13.6276 39.5874C13.735 39.3831 13.9112 39.3003 14.1342 39.3031C15.376 39.8138 15.1117 40.9291 15.1777 41.9147Z" fill="#675940"/>
<path d="M4.67971 38.0649C5.66265 38.1919 5.96827 37.2726 6.64283 36.7453C7.01178 37.2643 6.88236 38.0152 7.45781 38.3631C7.58721 38.6419 7.70837 38.9235 7.79097 39.2217C7.76343 39.5861 7.54867 39.7766 7.20451 39.8484C6.45836 39.7131 6.00406 40.2404 5.48368 40.6158C5.12575 40.1714 4.25844 40.4281 4.14831 39.6441C4.1015 39.4039 4.10702 39.1609 4.14557 38.9207C4.16759 38.8048 4.20339 38.6944 4.25019 38.5867C4.35757 38.3824 4.46771 38.1809 4.67971 38.0649Z" fill="#F8D774"/>
<path d="M12.9234 45.1931C14.49 45.4526 14.1982 43.8956 14.8259 43.2385C14.903 43.4511 14.87 43.9315 15.1811 43.3158C15.539 42.6118 15.7235 41.6953 16.7835 41.6483C16.7505 42.1508 16.8166 42.6312 17.0781 43.0701C17.1773 43.3489 17.0286 43.5588 16.8772 43.7658C16.6128 44.0364 16.3705 44.3456 15.9383 44.3456C15.1123 44.8094 14.289 45.2732 13.463 45.737C13.207 45.5244 12.6233 45.8916 12.6067 45.2538C12.6949 45.1407 12.8022 45.1186 12.9234 45.1931Z" fill="#F2CF6E"/>
<path d="M3.03051 35.0323C2.72489 35.2145 2.55695 35.7445 2.02556 35.2863C1.41707 34.7645 1.9044 34.3366 2.00077 33.8452C2.13568 33.1329 2.52666 33.5912 2.802 33.6381C3.06631 33.685 3.31687 33.8176 3.57568 33.9142C4.55586 33.9197 5.44794 34.2565 6.58506 34.6099C5.77834 34.8225 5.15609 34.6679 4.65773 35.0378C4.56137 35.1234 4.45399 35.1869 4.33284 35.2255C3.88405 35.2448 3.44351 35.2283 3.03051 35.0323Z" fill="#F9D868"/>
<path d="M15.1784 41.9143C14.6387 41.1579 15.0352 39.979 14.0632 39.4158C13.9091 39.3413 13.6888 39.322 13.7604 39.0542C14.6139 38.8471 14.8397 38.6842 15.126 38.0603C15.3986 38.1514 15.4675 38.4496 15.6767 38.6069C16.778 39.9017 16.2164 40.9425 15.1784 41.9143Z" fill="#F9DE8F"/>
<path d="M9.90802 37.4585C10.109 37.3011 10.3105 37.1438 10.5115 36.9865C11.0787 36.6938 11.4614 36.68 11.2852 37.5055C11.1089 37.9721 10.8336 38.3503 10.3573 38.549C9.95254 38.6816 9.5533 38.6871 9.15958 38.5132C8.92554 38.3834 8.78512 38.1653 8.64195 37.9527C8.39966 37.4365 7.78843 37.3592 7.44702 36.9589C7.93986 36.2935 8.4272 36.727 8.91179 36.9699C9.24219 37.1356 9.41242 37.6296 9.90802 37.4585Z" fill="#6F803C"/>
<path d="M13.7628 39.056C13.8646 39.1775 13.9638 39.2962 14.0656 39.4176C13.9472 39.5474 13.8289 39.6799 13.7105 39.8097C12.7248 40.3066 11.8547 39.7903 10.9571 39.5032C10.6983 39.3569 10.4891 39.1609 10.39 38.8738C10.3624 38.733 10.4092 38.6143 10.5166 38.5204C11.07 38.2112 11.6317 38.5949 12.1851 38.5066C12.5761 38.5232 12.6697 38.0704 12.9973 37.9848C13.1901 38.3824 13.0331 39.0339 13.7628 39.056Z" fill="#7D7751"/>
<path d="M12.3831 38.8886C11.7388 38.8002 11.0946 38.7091 10.4503 38.6208C10.3815 38.56 10.3594 38.4993 10.3842 38.4386C10.4062 38.3778 10.4283 38.3475 10.453 38.3475C10.6293 37.9637 10.9046 37.6849 11.2873 37.5082C11.3864 37.6076 11.4828 37.707 11.5819 37.8064C12.0527 38.0107 12.9641 37.8919 12.3831 38.8886Z" fill="#828E4A"/>
<path d="M16.2432 35.31C17.6612 34.8214 16.8214 36.014 17.0554 36.406C16.7553 36.5192 16.7883 37.0023 16.2432 37.0134C16.2432 36.4447 16.2432 35.8787 16.2432 35.31Z" fill="#FAE295"/>
<path d="M10.4505 38.3437C10.456 38.4348 10.456 38.5259 10.4505 38.6198L10.3927 38.6916C9.50064 39.0532 8.57827 39.2492 7.61185 39.2492C6.79962 39.0891 7.27319 38.6999 7.45766 38.3658C7.62837 38.3603 7.79907 38.3548 7.96978 38.3492C8.33047 38.1256 8.68841 37.7281 9.06561 38.3272C9.52817 38.3299 9.99072 38.3354 10.4505 38.3437Z" fill="#7D784D"/>
<path d="M12.3836 38.8876C12.5653 38.1892 11.899 38.1229 11.5768 37.8027C12.0504 37.8551 12.6341 37.0159 12.9921 37.9821C12.8874 38.3493 13.0003 38.8628 12.3836 38.8876Z" fill="#626F31"/>
<path d="M7.44654 36.9561C8.0385 36.9947 8.64975 36.9975 8.7764 37.7843C8.55613 38.0107 8.26978 38.0548 7.97242 38.0714C7.52913 37.8285 7.37495 37.4447 7.44654 36.9561Z" fill="#80964C"/>
<path d="M4.38747 35.065C4.47557 35.0512 4.56642 35.0402 4.65453 35.0402C4.66279 36.0478 4.67106 37.0583 4.67932 38.0659C4.5857 38.2509 4.49209 38.4359 4.40123 38.6208C3.84506 37.4392 3.74319 36.2549 4.38747 35.065Z" fill="#FBE9AE"/>
<path d="M7.97296 38.0737C8.15744 37.7452 8.47959 37.8004 8.77695 37.7866C9.00547 37.8943 9.06879 38.0931 9.06604 38.325C8.69159 37.8805 8.3419 38.6756 7.97021 38.347C7.98673 38.2559 7.98673 38.1648 7.97296 38.0737Z" fill="#828E4A"/>
<path d="M15.6792 38.6066C15.3075 38.6148 15.1396 38.4161 15.1286 38.0599C15.861 37.6872 15.6132 38.3056 15.6792 38.6066Z" fill="#F9E8AE"/>
<path d="M6.87642 32.536C6.60108 32.536 6.32299 32.5388 6.04766 32.5388C6.21837 32.2903 6.24039 31.8404 6.61485 31.8653C6.98104 31.8901 6.82961 32.2903 6.87642 32.536Z" fill="#5C3A2E"/>
<path d="M7.01748 30.41C6.78895 30.6198 6.7036 30.6971 6.621 30.7744C6.54941 30.6916 6.40899 30.5922 6.42551 30.5287C6.45029 30.4266 6.56317 30.3023 6.66229 30.2747C6.74764 30.2499 6.86605 30.3493 7.01748 30.41Z" fill="#644135"/>
<path d="M18.702 34.4881C18.0605 35.1313 18.8149 36.1169 17.9889 36.9313C18.1651 35.8105 17.5098 34.8636 18.1596 33.9249C18.5258 33.9332 18.7047 34.1209 18.702 34.4881Z" fill="#F9DB7D"/>
<path d="M4.94407 52.1647C4.32457 51.7809 3.32787 51.8389 3.29758 50.7595C3.49858 50.5138 3.60872 50.2018 3.83724 49.9727C4.66875 50.0334 5.27722 50.3316 5.25519 51.3061C5.20288 51.6098 5.29925 51.9687 4.94407 52.1647Z" fill="#957F76"/>
<path d="M12.1 53.5166C12.5653 51.7222 13.708 52.9424 14.578 52.9562C13.8016 53.3676 12.9618 53.4863 12.1 53.5166Z" fill="#66463A"/>
<path d="M11.8351 4.39001C11.3671 4.73234 12.3032 5.65994 11.2624 5.76485C11.122 5.2127 10.9789 4.66056 11.2707 4.10841C11.2872 3.75504 11.4689 3.56731 11.8241 3.55074C13.2558 2.98756 12.3032 4.2851 12.9144 4.50319C12.3004 4.77375 12.372 3.34093 11.8351 4.39001Z" fill="#C43D2C"/>
<path d="M10.7309 4.66904C9.84706 4.38469 8.73747 5.24879 8.01335 4.14174C8.90818 4.46199 9.80301 4.23009 10.6978 4.1307C10.8906 4.29634 10.8988 4.47579 10.7364 4.66904H10.7309Z" fill="#B72F21"/>
<path d="M10.7337 4.66911C10.7227 4.48966 10.709 4.31021 10.6952 4.13076C10.8879 4.12524 11.078 4.11669 11.2707 4.10841C11.268 4.66056 11.2652 5.2127 11.2624 5.76485C10.8384 5.5219 11.1743 4.90653 10.7337 4.66911Z" fill="#D64834"/>
<path d="M13.2093 3.28914C13.8041 3.95724 13.7655 4.7054 13.4764 5.48116C13.0001 4.79926 12.7082 4.09252 13.2093 3.28914Z" fill="#C04030"/>
<path d="M8.24788 7.97112C9.50615 7.40517 10.8305 7.82204 12.1191 7.7199C10.858 8.25548 9.53644 7.86069 8.24788 7.97112Z" fill="#F0D480"/>
<path d="M12.0721 8.51151C12.1767 8.51703 12.2814 8.52255 12.3888 8.52807C12.3254 9.33696 11.8436 9.28451 11.2819 9.06917C11.3755 8.89249 11.4668 8.71297 11.5604 8.53629C11.7311 8.53077 11.9014 8.51979 12.0721 8.51151Z" fill="#FAE8AC"/>
<path d="M18.986 49.66C18.5922 50.3806 18.4986 51.2557 17.8791 51.8631C17.3946 52.2385 16.8824 52.5312 16.2326 52.4152C17.0917 51.899 17.4716 51.2171 16.932 50.2149C16.6209 50.375 16.8549 51.2833 16.2024 50.9299C15.7618 50.6925 15.0707 50.5269 15.0294 49.9444C14.9964 49.4861 15.6131 49.4944 15.9711 49.3342C16.7337 48.9919 17.5818 49.1106 18.383 48.691C19.1236 48.3045 18.8979 49.2404 18.986 49.66Z" fill="#5F3F33"/>
<path d="M17.3337 48.2618C14.6299 49.598 11.7472 49.8216 8.80113 49.6449C8.54783 49.2474 7.69429 49.9403 7.71081 49.0431C8.51753 48.491 9.33528 49.3357 10.1833 49.01C10.6156 48.8443 11.1415 48.8581 11.6123 48.7284C12.2263 48.5103 12.8843 48.4495 13.4928 48.2176C13.6194 48.1873 13.7434 48.1873 13.87 48.2149C14.7621 48.1514 15.4587 47.6517 16.1828 47.1989C16.6178 46.9256 16.9895 46.437 17.6145 46.6247C17.8623 47.2265 16.3976 47.5357 17.3337 48.2618Z" fill="#F1D36A"/>
<path d="M15.9349 44.3442C16.1524 43.9908 16.4663 43.7534 16.8435 43.5988C17.1904 43.3006 17.5401 43.008 17.8099 42.6325C17.9889 42.3841 18.1293 42.0058 18.5423 42.2488C18.8645 42.4365 18.892 42.7788 18.8204 43.1018C18.6717 43.7699 18.5203 44.4408 18.1871 45.0482C18.1982 45.1172 18.2064 45.1889 18.2147 45.258C18.2477 45.5037 18.1211 45.5975 17.8953 45.5975C17.4382 45.1337 16.8876 44.9239 16.2378 44.9709C15.9845 44.8383 15.9625 44.5899 15.9349 44.3442Z" fill="#DE6045"/>
<path d="M18.19 45.0477C18.1707 44.1725 18.8591 43.3802 18.5149 42.3367C17.8321 42.6679 17.6146 43.5403 16.8464 43.5983C16.9235 43.4216 17.0006 43.2449 17.0777 43.071C17.7935 42.6569 17.777 41.5471 18.7104 41.34C19.2665 42.4471 18.8425 43.5486 18.6966 44.6529C18.5259 44.7854 18.3579 44.9179 18.19 45.0477Z" fill="#D15C37"/>
<path d="M17.8733 45.4808C17.9862 45.4063 18.1018 45.3317 18.2147 45.2599C18.5892 45.9695 17.8265 46.1737 17.6145 46.621C16.3342 47.2421 15.4256 48.6694 13.7433 48.4182C14.5308 47.5707 15.8469 47.4658 16.4967 46.4305C16.995 46.171 17.3116 45.6464 17.8733 45.4808Z" fill="#F7D382"/>
<path d="M7.70029 49.08C7.92055 49.5576 8.55657 49.2125 8.79886 49.6432C7.1744 49.7205 5.61052 49.4637 4.10996 48.8232C4.07416 48.5278 4.15951 48.376 4.4844 48.503C5.27736 48.6852 6.07032 48.8702 6.89632 48.7846C7.26251 48.6217 7.52407 48.7376 7.70029 49.08Z" fill="#EDD367"/>
<path d="M4.48705 48.4992C4.36315 48.6069 4.2365 48.7145 4.1126 48.8194C3.31965 48.6842 2.62855 48.3004 1.93196 47.936C2.03658 47.8477 2.13846 47.7566 2.24308 47.6682C2.99199 47.9443 3.73815 48.2231 4.48705 48.4992Z" fill="#EBCB76"/>
<path d="M3.83724 49.9727C4.19517 50.6049 3.54814 50.5441 3.29758 50.7595C3.32787 50.395 2.69186 49.5696 3.83724 49.9727Z" fill="#AE9A92"/>
<path d="M7.76316 52.9687C7.68606 52.8555 7.55666 52.7478 7.57318 52.6761C7.5952 52.5877 7.73288 52.4773 7.82925 52.469C8.01648 52.4524 8.1734 52.5684 8.10732 52.7754C8.08254 52.8583 7.90908 52.8942 7.76316 52.9687Z" fill="#674738"/>
<path d="M4.39615 39.443C4.25022 40.2354 5.23591 40.0007 5.37909 40.5308C5.73702 40.7185 5.48921 40.9476 5.42313 41.163C5.11476 41.5495 4.98536 42.0022 4.92754 42.4854C4.75958 42.9492 4.80364 43.4157 4.90001 43.885C4.90276 44.0783 4.86421 44.2577 4.72104 44.3985C4.16211 44.2577 3.94735 43.7056 4.05198 43.344C4.42919 42.0381 3.52884 41.3424 2.85979 40.5501C2.32013 39.9068 1.64008 39.3575 2.95892 38.8467C3.03601 38.8164 3.00572 38.5044 3.025 38.3249C3.12412 38.2421 3.23424 38.209 3.36365 38.2366C3.54262 38.2946 3.7023 38.3912 3.83997 38.5182C3.98865 38.6866 4.13184 38.8992 4.06025 39.1062C3.92809 39.5121 4.16762 39.4541 4.39615 39.443Z" fill="#F5DE8F"/>
<path d="M4.72373 44.4013C4.70996 44.2191 4.69345 44.0396 4.67968 43.8574C4.81735 43.6587 4.71546 43.308 5.06238 43.2418C5.46712 43.3301 5.61031 43.689 5.81681 43.9789C6.40602 44.8071 7.18246 45.1522 8.17365 44.8817C9.01342 44.6525 9.88621 44.8375 10.726 44.6277C11.3895 44.6277 12.0834 44.4455 12.6533 44.9672C12.7414 45.0445 12.8323 45.1191 12.9204 45.1964C12.835 45.2323 12.7469 45.2654 12.6616 45.3013C12.4991 45.6243 12.2155 45.7513 11.8741 45.7817C11.4474 45.7568 11.0151 45.7237 10.6709 46.0688C9.5916 46.0522 8.57287 46.9246 7.45227 46.2924C6.45556 45.7927 5.37627 45.409 4.72373 44.4013Z" fill="#6A5B42"/>
<path d="M11.8935 45.5418C12.1523 45.459 12.4084 45.3789 12.6672 45.2961C12.9315 45.4424 13.1986 45.5888 13.4629 45.7351C10.3737 47.1541 7.1578 47.5378 3.82077 46.925C4.6275 46.9139 5.43146 46.8918 6.23818 46.9001C6.76132 46.9056 7.22663 46.8394 7.46066 46.2845C8.55098 46.1216 9.6413 45.9587 10.7316 45.7958C11.051 45.4093 11.5438 45.8069 11.8935 45.5418Z" fill="#F8D467"/>
<path d="M3.56426 38.6007C3.4734 38.5151 3.38254 38.4295 3.29168 38.3439C2.96679 37.9271 3.35501 37.3749 3.02462 36.9608C3.02462 36.3176 3.02737 35.6743 3.02737 35.0338C3.48993 34.617 3.93321 34.9924 4.38476 35.067C4.39027 36.2513 4.39302 37.4384 4.39852 38.6228C4.26912 38.689 4.09566 38.6752 4.05987 38.562C3.82584 37.7642 3.72946 38.6062 3.56426 38.6007Z" fill="#FBEBBC"/>
<path d="M0.783382 33.914C0.802655 33.5606 0.819178 33.2073 0.838452 32.8511C1.37535 33.0692 1.46092 33.5407 1.33152 33.988C0.946051 35.3352 1.16081 36.7045 1.09198 38.06C1.00938 38.06 0.929528 38.06 0.846929 38.0545C0.824902 36.6769 0.805408 35.2944 0.783382 33.914Z" fill="#F5E6B1"/>
<path d="M3.02775 36.9576C3.47654 37.3497 3.237 37.8742 3.29482 38.3408C3.20671 38.338 3.1186 38.3325 3.03325 38.327C3.03049 37.8715 3.02775 37.4159 3.02775 36.9576Z" fill="#FBE9AE"/>
<path d="M16.7719 46.586C15.9624 47.5246 14.7702 47.8338 13.746 48.4163L13.7515 48.2866C13.6606 48.2203 13.6331 48.1568 13.6634 48.0933C13.6936 48.0298 13.7239 47.9995 13.757 47.9995C13.7983 47.9801 13.8396 47.9608 13.8836 47.9442C14.8638 47.5991 15.6265 47.0442 15.5742 45.8792C15.5494 45.3354 15.855 45.2801 16.2377 45.2332C17.1738 45.3823 16.714 46.089 16.7719 46.586Z" fill="#D3472D"/>
<path d="M16.7722 46.5844C16.0757 46.3414 16.9016 45.4911 16.2353 45.2344C16.2353 45.1461 16.2353 45.0577 16.2381 44.9694C17.0338 44.3316 17.5212 44.685 17.8736 45.4773C17.6258 45.9688 17.2651 46.3414 16.7722 46.5844Z" fill="#D65739"/>
<path d="M7.69956 49.0801C7.43248 48.9807 7.16266 48.8813 6.89559 48.7819C8.18139 48.1221 9.44516 49.1132 10.7227 48.8316C11.1192 48.6521 11.5129 48.5638 11.8929 48.8702C10.5217 49.4224 9.10926 49.2236 7.69956 49.0801Z" fill="#D0572D"/>
<path d="M11.8959 48.8681C11.505 48.8543 11.1167 48.8433 10.7258 48.8295C11.3205 48.1614 12.2814 48.5037 12.945 48.0234C13.0138 47.9295 13.0964 47.9157 13.1928 47.9875C13.38 47.993 13.57 47.9985 13.7572 48.004C13.7544 48.1007 13.7544 48.1945 13.7517 48.2912C13.168 48.5976 12.5485 48.7826 11.8959 48.8681Z" fill="#CF4527"/>
<path d="M13.1901 47.9848C13.1075 47.9958 13.0249 48.0069 12.9423 48.0207C12.7881 47.9185 12.6725 47.7833 12.7853 47.6038C12.89 47.4382 13.1075 47.3968 13.2231 47.532C13.2919 47.6176 13.2066 47.8302 13.1901 47.9848Z" fill="#F08459"/>
<path d="M13.7407 10.1883C13.7544 10.4561 13.7651 10.7212 13.7789 10.989C13.8752 11.3838 14.2803 11.8972 13.4598 11.9663C12.9422 12.0104 12.4301 11.9497 12.3915 11.2595C12.3613 10.7184 12.3833 10.1773 12.3805 9.6362C12.9037 9.65277 13.3993 9.72731 13.7407 10.1883Z" fill="#EBCC74"/>
<path d="M13.7407 10.1883C13.2919 9.99234 12.7494 10.0307 12.3805 9.63864C12.1492 9.18588 11.5077 9.53373 11.2819 9.07545C11.7527 9.10582 12.1795 9.04508 12.3888 8.53435C13.6938 8.37975 13.7737 9.23866 13.7407 10.1883Z" fill="#EBD184"/>
<path d="M9.16986 11.0016C9.29926 11.0899 9.45896 11.1424 9.48098 11.2307C9.5388 11.4626 9.34881 11.5316 9.17259 11.5068C9.08173 11.493 8.94408 11.3632 8.94133 11.2804C8.93857 11.1948 9.07624 11.1065 9.16986 11.0016Z" fill="#FBE49A"/>
<path d="M7.1466 16.2565C7.14935 16.1654 7.14935 16.0743 7.1466 15.9832C7.1466 15.6271 7.1466 15.2682 7.1466 14.912C7.49627 15.3344 7.4357 15.7872 7.37237 16.24C7.36962 16.2676 7.30629 16.3062 7.2705 16.3062C7.2292 16.309 7.18789 16.2758 7.1466 16.2565Z" fill="#8E7A6F"/>
<path d="M6.87127 17.9121C6.87953 17.556 6.8878 17.1998 6.89882 16.8437C7.20444 17.2081 7.39991 17.5698 6.87127 17.9121Z" fill="#8C746B"/>
<path d="M5.77251 25.0924C5.4311 25.8129 4.99608 26.5004 4.97956 27.3369C5.16678 27.7151 5.03738 27.9608 4.65742 28.0988C4.33528 27.9111 4.39585 27.5964 4.3931 27.301C4.4812 27.1961 4.57207 27.0912 4.66018 26.9862C4.5583 26.3209 4.86668 25.7191 4.95478 25.0813L4.94652 25.0951C5.22185 25.4623 5.48892 23.7148 5.77251 25.0924Z" fill="#B9A89F"/>
<path d="M6.05638 22.0613C6.15275 22.1469 6.24636 22.2297 6.34272 22.3153C6.21607 22.7018 6.08666 23.0883 5.92421 23.577C5.58831 22.9337 6.06189 22.5307 6.05638 22.0613Z" fill="#AC9890"/>
<path d="M4.95168 25.0815C5.03704 25.7441 4.83329 26.3625 4.65708 26.9864C4.20002 26.2658 4.67635 25.6889 4.95168 25.0815Z" fill="#99837C"/>
<path d="M4.65742 28.0988C4.7648 27.8448 4.87218 27.5908 4.97956 27.3369C5.54949 28.2507 4.62989 29.1482 4.95478 30.0565C4.78958 30.2028 4.62713 30.3491 4.4344 30.5203C3.70752 29.6231 4.98231 28.9298 4.65742 28.0988Z" fill="#947E76"/>
<path d="M13.2062 22.8809C13.5504 23.0879 13.9166 23.2812 13.9276 23.8802C13.2172 23.8388 13.2035 23.3668 13.2062 22.8809Z" fill="#5C3A2E"/>
<path d="M11.0038 39.2668C11.9041 39.4463 12.8072 39.6285 13.7075 39.8079C14.4014 40.476 13.2615 40.995 13.5616 41.6328C13.4735 41.7321 13.3606 41.7874 13.2285 41.8012C13.0275 41.7874 12.8705 41.6907 12.7411 41.5417C12.4603 41.1634 12.2786 40.6969 11.805 40.4898C11.5434 40.3463 11.2461 40.269 10.9983 40.0923C10.9129 39.9984 10.8551 39.8907 10.8248 39.7693C10.8028 39.5733 10.8413 39.3966 11.0038 39.2668Z" fill="#EFE2CC"/>
<path d="M13.209 41.6519C13.3247 41.6464 13.4431 41.6381 13.5587 41.6326C14.7041 42.8335 13.0218 43.3249 12.9172 44.2111C12.8594 44.189 12.8015 44.167 12.7437 44.1476C12.529 44.0068 12.3665 43.8246 12.2839 43.5789C12.2509 43.3167 12.3638 43.0986 12.4849 42.8805C12.763 42.494 12.8208 41.9749 13.209 41.6519Z" fill="#E6DAC1"/>
<path d="M12.6561 44.9652C11.8962 44.9542 11.1335 44.9431 10.3736 44.9321C11.0179 44.0127 12.0476 44.2667 12.9342 44.0818L12.9177 44.2143C12.8323 44.4627 12.7442 44.714 12.6561 44.9652Z" fill="#736551"/>
<path d="M11.0041 39.2662C10.9931 39.4402 10.9849 39.6141 10.9738 39.788C9.73209 39.7659 8.51787 39.8349 7.6313 40.8923C7.27062 41.1159 6.95399 41.3865 6.72271 41.7509C6.59881 41.9 6.45012 42.0214 6.2684 42.0987C6.00133 42.1816 5.74528 42.1733 5.50574 42.0132C5.42039 41.9027 5.37909 41.7813 5.38184 41.6405C5.72876 40.7294 6.27942 40.0089 7.23758 39.6776C7.36423 39.534 7.49089 39.3905 7.61479 39.2469C8.44078 38.5567 9.40428 38.5673 10.3927 38.6916C10.5965 38.8821 10.8004 39.0757 11.0041 39.2662Z" fill="#ECE6D5"/>
<path d="M7.23414 39.6779C6.66145 40.3516 6.09151 41.0279 5.51882 41.7015C5.25725 41.5746 5.20769 41.3261 5.16914 41.0749C5.26 40.9009 5.5023 40.7877 5.3784 40.531C5.71981 39.6365 6.25946 39.1838 7.23414 39.6779Z" fill="#6D664D"/>
<path d="M3.56428 38.6014C3.61659 38.1072 3.42387 37.544 3.9057 37.1134C4.34624 37.5882 3.86715 38.2646 4.4013 38.6235C4.39855 38.8968 4.3989 39.1697 4.39615 39.443C4.21167 39.3851 4.00481 40.1778 3.85613 39.4379C3.79556 39.1397 3.8754 38.8085 3.56428 38.6014Z" fill="#FBE9AE"/>
<path d="M18.0354 50.8939C17.8124 50.5157 17.9143 50.2424 18.1676 50.1623C18.4512 50.074 18.3603 50.328 18.297 50.4715C18.2474 50.5875 18.1675 50.6869 18.0354 50.8939Z" fill="#785646"/>
<path d="M5.16929 41.0742C5.43911 41.1984 5.49143 41.4441 5.51896 41.7009C5.52447 41.7754 5.52998 41.8527 5.53824 41.9273C5.60983 42.0266 5.6346 42.1343 5.62084 42.2558C5.552 42.5429 5.47766 42.8272 5.28768 43.0647C5.18305 43.1309 5.07293 43.1447 4.95454 43.1116C4.71775 42.968 4.82237 42.6754 4.68745 42.4877C4.69571 41.9659 4.57181 41.3972 5.16929 41.0742Z" fill="#6A6042"/>
<path d="M4.68792 42.4883C4.77327 42.665 4.85862 42.8417 4.94398 43.0184C5.0431 43.0791 5.07889 43.1399 5.04585 43.2033C5.01556 43.2668 4.98253 43.3 4.94949 43.3C4.92196 43.5153 4.9137 43.7417 4.67691 43.8549C4.31072 43.3966 4.39331 42.9438 4.68792 42.4883Z" fill="#443922"/>
<path d="M4.95189 43.3032C4.94913 43.2093 4.94638 43.1154 4.94638 43.0216C4.99318 43.0216 5.03999 43.0105 5.08129 42.9884C5.53008 42.8615 5.50531 42.5302 5.43372 42.1768C5.46951 42.094 5.50531 42.0139 5.5411 41.9311C5.7889 41.9311 6.03669 41.9311 6.28173 41.9283C6.39737 42.0029 6.51577 42.094 6.54606 42.221C6.89298 43.7338 7.87592 44.2611 9.34069 44.0458C10.3787 44.101 11.3231 43.5682 12.3528 43.571C12.5456 43.7394 12.741 43.9105 12.9338 44.0789C12.2317 44.8188 11.2212 44.6311 10.3732 44.9292C8.87538 44.8575 7.31699 46.0639 5.86324 44.6118C5.4585 44.2059 5.46676 43.582 4.95189 43.3032Z" fill="#F1E7D1"/>
<path d="M11.8935 45.5418C11.5383 45.7737 11.1392 45.8044 10.7289 45.7961C10.9189 44.805 11.5163 45.6799 11.8935 45.5418Z" fill="#736551"/>
<path d="M10.9927 39.9916C11.2983 39.9916 11.6094 39.9667 11.8434 40.2262C11.8517 40.3588 11.6204 40.414 11.6617 40.425C12.3115 40.5769 12.5152 41.1262 12.7713 41.6315C12.9145 41.9903 12.7823 42.2857 12.5565 42.5591C12.4189 42.7054 12.2564 42.8075 12.0527 42.8407C11.3864 42.5839 11.714 41.3416 10.6815 41.452C9.59397 41.267 8.92767 41.8744 8.35773 42.6778C7.92821 42.8324 7.51246 42.8296 7.12149 42.5673C6.90397 42.3216 6.85715 42.0318 6.90121 41.7198C6.95077 41.3996 7.12148 41.1621 7.39131 40.991C8.45409 40.1628 9.51963 39.3318 10.9927 39.9916Z" fill="#E1CFB2"/>
<path d="M10.9929 39.9925C9.66031 39.918 8.54797 40.4977 7.46866 41.1796C7.31998 41.0416 7.2952 40.8815 7.39432 40.7048C8.38276 39.5978 9.52284 39.0785 10.9738 39.788C10.9683 39.857 10.9736 39.9235 10.9929 39.9925Z" fill="#958369"/>
<path d="M12.6281 41.6797C12.2646 41.1386 11.8929 40.603 11.2184 40.3159C11.4276 40.2855 11.6341 40.2551 11.8434 40.2248C12.4656 40.3628 12.7272 40.8404 12.9282 41.376C12.8401 41.4919 12.807 41.6576 12.6281 41.6797Z" fill="#AA9578"/>
<path d="M12.6281 41.6797C12.7272 41.5775 12.8291 41.4781 12.9282 41.376C13.0218 41.4671 13.1157 41.5584 13.2093 41.6495C13.2286 42.1906 13.0937 42.671 12.6669 43.0382C12.1658 43.052 12.2016 42.7842 12.3641 42.4529C12.4549 42.1961 12.54 41.9392 12.6281 41.6797Z" fill="#917E62"/>
<path d="M12.367 42.4553C12.3863 42.6927 12.4138 42.9274 12.6699 43.0406C12.5652 43.2172 12.4606 43.3939 12.356 43.5706C11.4612 44.247 10.3984 44.3077 9.34111 44.3768C9.10433 44.1283 8.61973 44.4706 8.4683 44.0123C8.96114 43.2062 9.84222 43.6728 10.4948 43.3856C11.0427 43.2255 11.5355 42.9274 12.0724 42.7396C12.1688 42.6458 12.2679 42.5519 12.367 42.4553Z" fill="#9D8F75"/>
<path d="M8.48212 44.1032C8.78223 44.1502 9.12088 44.0811 9.3384 44.3793C7.12748 44.6278 6.38957 44.037 6.2822 41.9305C6.36755 41.8118 6.45566 41.6931 6.54101 41.5744C6.78881 41.7677 6.81085 41.9747 6.60435 42.1983C6.88794 42.1348 6.61535 41.4585 7.16602 41.6572C7.16877 41.9278 7.17427 42.2011 7.17703 42.4716C7.70291 42.941 8.10491 43.5124 8.48212 44.1032Z" fill="#9F8E6F"/>
<path d="M7.16565 41.6542C7.00321 41.8475 6.84076 42.0435 6.65354 42.2671C6.61224 42.0131 6.57919 41.7923 6.5434 41.5714C6.67831 41.1352 7.00597 40.8895 7.39694 40.7045C7.42172 40.8619 7.44649 41.022 7.47127 41.1794C7.36664 41.3367 7.26752 41.4941 7.16565 41.6542Z" fill="#87775C"/>
<path d="M5.43137 42.1737C5.97102 42.7314 5.76452 42.9633 5.07894 42.9854C5.19733 42.7176 5.31573 42.447 5.43137 42.1737Z" fill="#ECE6D5"/>
<path d="M8.50923 42.488C8.49821 40.8205 9.75648 41.1932 10.7284 41.0994C11.604 41.4168 11.6232 41.9138 10.9735 42.4742C10.4531 42.9214 9.86387 43.2748 9.13148 43.25C8.74326 43.1423 8.43489 42.9711 8.50923 42.488Z" fill="#F9F0DD"/>
<path d="M9.0762 43.0395C9.71222 42.9208 10.2629 42.6116 10.7888 42.2582C11.4055 41.8441 11.166 41.4632 10.7282 41.1015C11.9039 41.049 11.8956 41.9711 12.0718 42.7414C11.8158 43.3266 11.2954 43.4923 10.731 43.5889C10.183 43.3901 9.36805 44.0085 9.0762 43.0395Z" fill="#E0CFB3"/>
<path d="M9.07658 43.0401C9.5006 43.6116 10.3128 42.9987 10.7313 43.5895C10.0843 44.2079 9.15092 43.5702 8.48461 44.1058C7.63384 43.8959 7.353 43.2278 7.17954 42.4742C7.62558 42.4797 8.06887 42.4852 8.51491 42.4935C8.69939 42.6729 8.88661 42.8551 9.07658 43.0401Z" fill="#D2C0A1"/>
</svg>
