<svg width="50" height="41" viewBox="0 0 50 41" fill="none" xmlns="http://www.w3.org/2000/svg">
<path d="M12.8794 18.8182C15.0849 18.3271 15.981 20.5279 17.8002 21.1166C17.8427 20.0668 17.9122 19.0769 18.6731 18.3158C19.1211 17.8697 18.8855 17.4573 18.6963 16.9661C18.2135 15.7138 18.1246 14.4316 18.6963 13.1643C19.3336 12.7482 19.4842 13.1943 19.5615 13.6555C19.6696 14.3079 19.5692 14.994 19.9593 16.0963C20.1486 14.6603 20.2992 13.693 20.5657 12.7519C20.7704 12.1258 20.8438 11.4547 21.2146 10.881C20.6623 11.2784 20.5966 12.2458 19.6349 12.1708C19.2216 11.9533 19.1482 11.6534 19.4108 11.2784C20.2606 9.38505 21.8056 8.26026 23.7484 7.5704C24.1076 7.51791 24.2042 7.74286 24.2428 8.02031C23.9183 9.18634 23.0493 10.1237 22.7789 11.3122C22.6862 11.5634 22.5819 11.8071 22.4854 12.0545C22.1802 13.0668 21.9176 14.0904 21.8635 15.1439C21.8017 16.3925 21.3691 17.476 20.4073 18.2671C19.3027 19.1744 18.9898 20.2617 19.2602 21.5777C19.237 21.9601 19.1289 22.3201 18.986 22.6725C18.6461 23.4186 18.059 23.8798 17.2517 24.0822C16.7805 24.176 16.3247 24.3334 15.8535 24.4159C15.278 24.5022 14.7025 24.5097 14.1231 24.4759C13.8373 24.4572 13.5592 24.4047 13.2888 24.3184C11.8211 23.816 10.728 22.6425 9.2255 22.2076C8.6693 21.9451 8.08221 21.8439 7.46808 21.8777C6.85008 21.8739 6.27071 22.0764 5.67589 22.2039C5.23171 22.2938 4.79525 22.4288 4.33561 22.4476C3.96482 22.3876 3.56312 22.3613 3.61719 21.8327C5.01155 21.2665 5.56388 20.6666 4.82228 18.9607C4.12704 17.356 4.75276 15.5414 6.21664 14.2404C6.37886 14.1241 6.54495 14.1204 6.71876 14.2216C7.00458 15.2939 6.11235 16.0213 5.87674 16.9361C5.74155 19.0432 6.18574 19.8118 7.83501 20.3255C8.34872 20.4117 8.84698 20.5542 9.35296 20.6591C9.77397 20.7641 10.1679 20.9366 10.5503 21.1278C11.1606 21.424 11.7168 21.7989 12.2923 22.1514C12.5858 22.3238 12.8717 22.5038 13.1729 22.6613C13.7253 22.7962 14.2699 23.4261 14.8068 22.6013C15.2819 21.8664 16.1277 22.7288 16.7998 22.1776C15.9501 21.3228 15.0617 20.5804 14.0111 20.0293C13.8527 19.958 13.6982 19.8718 13.5476 19.7818C13.2386 19.5231 12.7249 19.3844 12.8794 18.8182Z" fill="#B76C66"/>
<path d="M7.414 31.4646C7.44104 31.2396 7.46808 31.0109 7.49511 30.786C7.51443 30.3848 7.71914 30.0286 8.032 29.8411C9.49973 28.9488 9.1637 28.0302 8.14015 27.0704C8.04358 26.8455 8.03972 26.6093 8.05903 26.3768C8.31782 26.1368 8.56502 25.8894 8.51094 25.492C8.62295 25.2708 8.79676 25.117 9.03238 25.0271C9.87826 25.0346 10.3379 25.7432 11.0177 26.0506C11.2378 26.1818 11.4503 26.3243 11.6704 26.4593C13.8605 27.7678 15.838 27.4341 17.6418 25.7357C18.0397 25.522 18.4491 25.2033 18.8083 25.7844C18.8971 26.1668 18.731 26.478 18.5109 26.7742C18.0435 27.3029 17.5221 27.7715 16.9041 28.1315C16.6762 28.2664 16.4367 28.3789 16.1895 28.4764C15.2934 28.8476 14.324 28.9226 13.3931 29.1625C12.9875 29.2787 12.5858 29.3987 12.2228 29.6087C11.3151 30.2348 10.1873 30.4185 9.26799 31.0184C8.762 31.3484 8.37576 31.862 7.72686 31.9782C7.42559 31.922 7.20543 31.817 7.414 31.4646Z" fill="#BD7068"/>
<path d="M49.1673 22.5263C49.3063 22.71 49.4493 22.89 49.5883 23.0737C49.8201 24.3109 49.8278 25.552 49.596 26.7892C48.6729 27.6853 48.6497 29.1513 47.379 29.8711C46.4713 30.3885 45.8456 31.1759 44.5516 31.1271C42.9642 31.0672 43.1921 32.3082 43.4199 33.3542C43.3427 33.3992 43.2693 33.4405 43.1921 33.4854C42.041 32.9718 41.7475 31.8845 41.3303 30.8797C41.4076 30.7297 41.5312 30.621 41.6973 30.5648C41.8518 30.5385 42.0063 30.5498 42.1453 30.5985C42.2535 30.6622 42.4002 30.7447 42.2805 30.501C42.2458 30.4298 42.1376 30.3773 42.1106 30.2611C42.2728 29.6837 42.8251 29.5862 43.2693 29.3537C45.3743 28.9751 46.5215 27.2616 48.0472 26.0919C48.839 25.4845 48.6111 24.5172 48.4875 23.6548C48.4373 23.3849 48.445 23.1187 48.5261 22.8562C48.6574 22.6013 48.8235 22.3988 49.1673 22.5263Z" fill="#B66E68"/>
<path d="M37.5876 25.0833C37.7151 25.1208 37.8425 25.162 37.9661 25.1995C38.1863 25.4132 38.2095 25.6644 38.1284 25.9419C38.0125 26.1931 37.8348 26.3993 37.6108 26.5718C37.1048 26.8567 36.6027 27.0854 36.2473 26.3768C36.2319 25.9494 36.089 25.6344 35.5598 25.7732C34.3856 26.0806 33.2192 26.3955 32.0063 26.5493C31.23 26.6468 31.2995 27.0817 31.6973 27.6028C32.3231 28.4239 33.4702 28.2739 34.1771 28.9263C34.123 29.6649 33.4857 29.7137 32.9604 29.8974C31.566 29.8974 30.7008 29.0613 29.9245 28.0865C29.4648 27.4378 29.5691 26.3918 28.4954 26.1706C27.9508 25.9794 27.3521 25.9269 26.8654 25.6045C26.1122 25.1058 26.1238 24.6446 26.9735 24.2547C28.0937 24.3559 29.1945 24.7834 30.3455 24.4872C30.9712 24.5547 31.5004 24.1272 32.1222 24.1535C33.0106 24.3072 33.8758 24.2322 34.7564 24.0597C35.892 23.8348 36.9078 24.0635 37.5876 25.0833Z" fill="#BA756E"/>
<path d="M33.3157 34.7002C32.8136 35.855 33.7792 37.1747 32.887 38.2845C32.7866 38.3933 32.663 38.457 32.5162 38.4795C32.3733 38.472 32.2342 38.4382 32.1068 38.3858C31.539 38.2995 31.6394 39.4093 30.9055 39.0231C30.4884 38.457 30.5425 37.7859 30.4459 37.1522C30.4459 37.006 30.4845 36.8635 30.5463 36.7361C30.5154 36.6723 31.1025 36.5074 30.5038 36.5261C30.3996 36.5299 30.2914 36.5411 30.1794 36.5149C28.9395 35.4876 27.1512 35.6975 25.9036 34.704C26.6839 33.3917 28.2057 33.7629 29.349 33.268C29.6309 33.0543 29.9399 32.9043 30.2914 32.8481C31.2184 32.8668 31.7862 33.4255 32.1106 34.1641C32.3617 34.7377 32.69 34.344 32.9874 34.3703C33.1574 34.4265 33.2694 34.5315 33.3157 34.7002Z" fill="#D28F89"/>
<path d="M40.9286 3.42369C45.2778 6.5131 46.2048 12.2195 43.1148 16.7749C42.7672 17.2848 42.5161 17.8584 42.2187 18.4021C42.041 18.5408 41.875 18.5296 41.7166 18.3758C41.4192 17.7984 41.7166 17.2885 41.902 16.7674C43.4238 13.7342 44.1113 10.6298 42.7286 7.35669C42.3732 5.79698 40.6737 5.15586 40.1059 3.73863C40.2566 3.32246 40.4767 3.0825 40.9286 3.42369Z" fill="#B56D68"/>
<path d="M44.0379 26.5868C45.1156 26.3506 45.8263 25.7019 46.255 24.7346C46.5679 24.026 46.2434 23.4861 45.6756 23.1337C44.9649 22.695 44.6521 23.0549 44.5748 23.7935C44.5401 24.131 44.2426 24.3109 43.8641 24.206C43.3234 24.056 42.9178 23.7298 42.914 23.1674C42.9101 21.6265 43.6517 20.7229 45.3241 20.7079C45.7876 21.1016 46.6297 20.4642 46.9464 21.2628C46.9155 21.394 46.8382 21.4802 46.7262 21.529C46.703 21.5402 46.6876 21.5665 46.6683 21.589C48.3407 22.1176 48.9819 22.9012 47.4987 24.3672C47.2476 24.6146 47.2863 25.1733 47.0931 25.5595C46.5794 26.3506 46.085 27.1642 44.9572 27.1979C44.5594 27.1229 44.2195 26.9692 44.0379 26.5868Z" fill="#BF7B74"/>
<path d="M33.3157 34.7002C33.1844 34.6177 33.0531 34.539 32.9217 34.4565C32.7132 34.2428 32.7132 34.0028 32.8097 33.7441C33.1381 33.3655 33.4316 32.9231 34.0496 32.9943C34.1577 33.1105 34.3161 33.1855 34.3972 33.3317C34.3702 33.1593 34.1771 33.133 34.0921 33.0018C34.0303 32.2819 34.6869 32.2894 35.0963 32.0457C35.274 31.9782 35.4555 31.9332 35.6448 31.8958C37.2632 31.6595 38.7232 32.0345 40.048 32.9493C40.6892 33.3992 41.172 33.9504 41.2724 34.7452C41.257 35.0189 41.1488 35.2401 40.8862 35.3676C40.5578 35.4913 40.218 34.8202 39.8896 35.3788C39.6309 35.2364 39.3759 35.0901 39.1171 34.9477C37.325 34.3778 35.5096 34.8877 33.7058 34.8577C33.5745 34.8014 33.447 34.749 33.3157 34.7002Z" fill="#B9716A"/>
<path d="M25.9577 34.5502C27.5993 34.9477 29.3374 35.1276 30.5927 36.4249C30.7047 36.4924 30.7472 36.5674 30.7163 36.6461C30.6854 36.7286 30.6545 36.7698 30.6197 36.7698L30.5734 36.7586C29.2988 37.321 28.0512 36.0162 26.7766 36.7098C25.8303 36.3649 24.8878 36.0162 23.9415 35.6713C23.9376 34.9552 23.8102 34.3028 23.0184 33.9879C22.5626 33.6242 22.3811 33.1143 22.2304 32.5894C22.2188 31.1047 22.8716 31.2659 23.76 32.0082C24.3162 32.9943 25.3165 33.6279 25.9577 34.5502Z" fill="#BB756C"/>
<path d="M24.5247 2.36639C23.8179 2.74132 24.3664 3.71238 23.6557 4.08356C22.5085 3.00752 22.6128 1.78525 23.9879 0.990402C25.2895 0.236796 26.6607 0.210552 28.0241 0.892921C28.8623 1.41782 29.5421 2.12269 29.2794 3.12749C29.067 3.94484 28.3215 4.36476 27.4023 4.36476C26.5525 4.05732 26.7727 3.075 26.1817 2.5576C25.6178 2.0627 25.1891 1.54905 24.5247 2.36639Z" fill="#DAA19B"/>
<path d="M13.9841 33.8341C12.8369 33.8604 11.8404 34.1528 11.3846 35.3038C10.9443 36.4136 11.6859 37.0135 12.4816 37.5722C12.7326 37.6884 12.9373 37.8346 12.9103 38.1458C12.8176 38.2995 12.6863 38.4045 12.5125 38.4607C12.3348 38.4795 12.1648 38.4607 11.9949 38.4083C11.4194 38.0521 10.8864 37.6322 10.3495 37.2197C10.3495 36.2937 9.37227 35.7238 9.39545 34.7864C9.66196 33.3355 10.4422 32.2857 11.8829 31.742C12.3464 31.7608 12.7056 31.952 12.9373 32.3494C13.03 32.4919 12.8137 32.7543 13.1305 32.8181C13.4008 32.8856 13.6519 33.0018 13.8875 33.148C14.0072 33.2342 14.0922 33.343 14.1463 33.4742C14.1579 33.6242 14.0999 33.7441 13.9841 33.8341Z" fill="#BB7871"/>
<path d="M9.00148 25.1395C8.82767 25.3008 8.65385 25.462 8.48004 25.6194C8.46073 25.8369 8.45687 26.0581 8.25602 26.2081C8.24829 26.4555 8.24057 26.6992 8.23671 26.9467C8.0629 27.1791 7.95088 27.1567 7.89681 26.8755C7.42173 25.6119 6.20119 26.9504 5.56774 26.2493C5.4171 26.1031 5.25874 25.7807 5.12356 26.2568C5.01541 26.2793 4.90726 26.2868 4.79911 26.2831C4.60599 26.4293 4.37424 26.4818 4.14635 26.5455C3.38931 26.7367 3.47815 27.9178 2.50867 27.8615C2.34258 27.764 2.22671 27.6328 2.14946 27.4641C1.87136 26.0094 2.67475 25.147 3.86825 24.4947C5.37462 23.4411 6.91961 23.6811 8.48004 24.3597C8.66158 24.4234 8.82767 24.5172 8.9783 24.6334C9.09418 24.7984 9.10963 24.9633 9.00148 25.1395Z" fill="#BC766F"/>
<path d="M6.76897 14.2891C6.58357 14.2704 6.40203 14.2516 6.21664 14.2366C7.10114 13.2018 8.32168 13.0518 9.54608 13.2356C10.6546 13.4043 11.4464 14.0717 11.2958 15.2977C11.2378 15.7513 10.8091 16.5049 10.3302 15.8488C9.26026 14.3828 8.9165 15.935 8.26374 16.1713C8.19422 16.1862 8.12083 16.2012 8.05131 16.22C7.7539 16.4487 7.7539 16.9099 7.3522 17.0636C7.18612 17.0973 7.02389 17.0898 6.85781 17.0373C6.06214 15.1927 6.38272 14.799 9.03624 14.2854C8.33713 14.0642 7.56078 14.7803 6.76897 14.2891Z" fill="#C37F79"/>
<path d="M27.1474 4.19604C29.4842 3.06001 29.5266 2.90254 27.9778 1.10288C27.8967 0.754198 27.9623 0.559235 28.3872 0.735451C29.6039 3.01127 31.4192 2.43763 33.393 1.89023C34.5865 1.55654 35.919 1.68027 37.1821 1.92772C37.2477 2.63259 36.6606 2.5801 36.228 2.70757C35.5907 2.76756 34.9418 2.69633 34.32 2.90629C34.1462 2.96628 33.9685 3.01127 33.7869 3.05251C32.1608 3.35995 30.6506 3.98233 29.1172 4.55972C28.4876 4.79593 27.8696 5.20085 27.1242 4.96464C26.9426 4.69844 26.9426 4.44349 27.1474 4.19604Z" fill="#B66C68"/>
<path d="M26.7766 36.7098C28.055 35.735 29.3142 36.3911 30.5734 36.7586C31.118 37.4409 30.9982 38.2508 31.0291 39.0306C31.1296 39.1994 31.0948 39.3456 30.9442 39.4656C30.6043 39.7243 30.5193 37.9846 29.8588 39.4243C29.3721 40.4891 28.0975 39.8967 27.1435 39.6268C26.765 39.563 26.5873 39.2631 26.3633 39.0119C26.5718 38.3258 26.68 37.336 27.6842 38.4083C28.1979 38.9557 28.6576 39.3118 29.2138 38.5845C29.77 37.8609 29.1249 37.4447 28.6305 37.0698C28.0898 36.6686 27.3984 36.8186 26.7766 36.7098Z" fill="#C27D78"/>
<path d="M19.4147 11.2784C19.4533 11.6046 19.4919 11.9308 19.8589 12.0883C20.334 12.1595 20.7781 12.2757 20.9674 12.7782C20.8284 13.8205 20.6932 14.8665 20.5503 15.9088C20.4962 16.295 20.3687 16.6812 19.9168 16.7299C19.3568 16.7861 19.4495 16.25 19.2911 15.95C18.8276 15.0765 19.5769 13.9592 18.7001 13.1681C18.8083 12.4895 18.8778 11.7996 19.4147 11.2784Z" fill="#CF8F88"/>
<path d="M27.1474 4.19604C27.1474 4.43599 27.1474 4.67595 27.1474 4.91215C27.2323 5.82323 26.2629 5.9582 25.8882 6.53184C25.5985 6.80179 25.3088 7.07549 25.0462 7.37543C24.7642 7.62664 24.5981 8.0803 24.0728 7.91158C23.9647 7.79535 23.8565 7.68287 23.7484 7.56665C24.0728 6.50185 24.826 5.75574 25.6796 5.06212C26.2706 4.58597 26.4946 3.93734 26.2049 3.20623C25.9075 2.45262 25.3359 2.16018 24.517 2.36264C24.6754 0.911668 25.5753 1.41407 26.0929 1.95772C26.653 2.54636 27.3173 3.22498 27.1474 4.19604Z" fill="#C3827E"/>
<path d="M38.2906 22.3988C36.2551 23.5911 33.953 23.9773 31.678 24.4459C31.3227 24.5659 31.203 25.5557 30.5888 24.7234C30.4768 24.3222 30.6892 24.0373 30.948 23.7673C31.2261 23.5161 31.5583 23.3624 31.9291 23.2799C34.3547 23.0962 36.4868 22.1701 38.4412 20.8091C38.7657 20.6142 39.0978 20.4454 39.4918 20.4604C39.7854 20.5392 40.0132 20.6666 39.8935 21.0266C39.3566 21.4802 38.8236 21.9414 38.2906 22.3988Z" fill="#B06C64"/>
<path d="M28.3872 0.731702C28.252 0.855428 28.113 0.979155 27.9778 1.09913C26.9311 0.69046 25.9114 0.671713 24.8376 1.08788C23.1227 1.74776 22.7905 2.50886 23.6557 4.08356C22.1764 3.54741 21.933 2.44887 23.0145 1.18162C24.2119 -0.228115 25.9886 -0.374337 28.3872 0.731702Z" fill="#C1807C"/>
<path d="M15.193 33.8004C14.8802 34.1641 14.463 34.1603 14.0343 34.1078C14.0227 34.0141 14.0072 33.9241 13.9802 33.8341C14.0034 33.6729 14.0227 33.5117 14.0459 33.3505L14.1849 33.2342L14.0574 33.3617C13.6944 33.388 13.3854 33.3017 13.1961 32.968C13.0146 32.9006 12.9064 32.7731 12.8717 32.5894C12.6167 32.3757 12.3618 32.1619 12.1069 31.9482C12.2344 31.7683 12.4004 31.637 12.609 31.5583C13.8875 31.2471 15.1814 31.4008 16.4754 31.4196C16.7959 31.4458 17.1011 31.5283 17.3869 31.6783C17.5607 31.7945 17.6843 31.952 17.7538 32.1469C17.8272 32.4356 17.8002 32.7168 17.6611 32.983C16.9968 33.6992 15.8226 32.9755 15.193 33.8004Z" fill="#B56560"/>
<path d="M27.1396 39.3981C28.3718 39.4543 29.824 40.0804 30.2528 38.1833C30.9094 38.4308 30.4189 39.1881 30.9828 39.3756C31.8209 39.4543 31.2416 38.1383 32.1338 38.2695L32.1879 38.2845C32.578 38.5695 32.354 39.0156 32.493 39.3681C32.2651 39.8742 31.9523 40.3016 31.3729 40.4666C30.7704 40.3541 30.2837 40.5866 29.8279 40.9315L29.6387 40.9428L29.4571 40.8978C28.5572 40.5828 27.1898 40.9578 27.1396 39.3981Z" fill="#D79992"/>
<path d="M44.0379 26.5868C44.3701 26.6655 44.7332 26.6842 44.9224 27.0329C45.0538 27.5128 44.6714 27.6141 44.3508 27.7603C44.0109 27.8653 43.6671 27.9515 43.3195 28.0302C43.053 28.079 42.7904 28.0715 42.5277 28.0152C41.7823 27.7978 41.0407 27.5503 40.2759 27.3929C39.6772 27.2241 39.1442 26.9392 38.6382 26.5905C38.3562 26.3843 38.0704 26.1818 37.9661 25.8294C37.9661 25.6194 37.9623 25.4132 37.9623 25.2033C39.5188 25.147 40.5617 26.433 42.0604 26.6617C42.7865 26.7705 43.3852 26.7742 44.0379 26.5868Z" fill="#B36762"/>
<path d="M41.0407 39.3681C40.3609 40.6128 39.3025 40.2304 38.2713 39.9755C37.2361 39.7168 36.6143 39.0681 36.4675 38.0483C36.3787 37.4409 36.6104 36.8935 37.2941 36.7961C38.0318 36.6911 37.6726 37.1822 37.5992 37.4897C37.6108 37.5684 37.6262 37.6471 37.6417 37.7259C37.9854 38.7907 38.9549 38.7944 39.8356 38.9519C40.1871 38.9781 40.5347 39.0194 40.8514 39.1881C40.9132 39.2481 40.975 39.3081 41.0407 39.3681Z" fill="#B97D78"/>
<path d="M21.7669 33.388C21.7013 32.8368 21.6974 32.2594 21.1026 31.937C20.9751 32.0532 20.8245 32.0832 20.6623 32.0345C20.3301 30.9472 19.7276 32.5594 19.349 31.9145C19.2563 31.7645 19.21 31.6033 19.2061 31.4271C19.4456 30.5872 19.9709 30.0436 20.867 29.8674C21.8635 29.9799 21.9021 30.8797 22.2845 31.4983C22.3927 31.8733 22.1686 32.3232 22.5394 32.6456C23.0145 32.9081 22.8214 33.6317 23.3969 33.8266C23.6248 34.374 23.6943 34.8539 22.8871 34.9664C22.2266 34.6327 22.2575 33.8341 21.7669 33.388Z" fill="#BD7972"/>
<path d="M12.8601 38.2095C12.7326 37.9996 12.6052 37.7859 12.4816 37.5759C12.9373 37.5159 13.339 37.3997 13.5283 36.916C13.6867 36.5111 13.2386 35.5888 14.3317 35.9412C15.0192 36.1624 15.3552 36.7098 15.2664 37.381C15.0656 38.9032 14.2969 39.8892 12.5434 39.7955C12.2807 39.9605 12.0026 39.9642 11.7168 39.863C11.4812 39.0344 12.2575 39.0606 12.6747 38.7832C13.2077 38.622 13.7523 38.487 14.1347 38.0446C13.7755 38.1271 13.4781 38.4158 13.0725 38.3558C13.003 38.307 12.9335 38.2583 12.8601 38.2095Z" fill="#BD7673"/>
<path d="M1.25723 30.441C-0.2839 28.2927 -0.55041 26.1481 1.26109 24.0035C1.41172 24.1235 1.51601 24.2735 1.58167 24.4497C1.73231 25.0083 1.53146 25.537 1.43104 26.0731C1.39241 26.433 1.38469 26.7967 1.38469 27.1604C1.33061 28.0152 1.63961 28.8288 1.6512 29.6762C1.6203 29.9799 1.51215 30.2461 1.25723 30.441Z" fill="#BC7D79"/>
<path d="M36.0117 2.29515C36.4327 2.26141 36.8962 2.35139 37.1821 1.92397C38.5841 2.0627 39.9167 2.36639 40.9286 3.42369C40.639 3.43869 40.3918 3.52117 40.2604 3.80237C38.7657 3.8811 37.4795 3.12749 36.0851 2.80506C35.9229 2.65508 35.8997 2.48637 36.0117 2.29515Z" fill="#BF7974"/>
<path d="M11.6936 39.7655C11.9756 39.7767 12.2614 39.7842 12.5434 39.7955C10.5658 40.6128 9.01306 39.9792 7.02775 37.5422C7.08183 37.2835 7.24019 37.1148 7.48739 37.0135C7.65734 36.9948 7.8157 37.0323 7.96633 37.1185C8.21353 37.3435 8.41052 37.6134 8.64227 37.8496C9.41862 38.8507 10.8864 38.8169 11.6936 39.7655Z" fill="#BA7671"/>
<path d="M7.414 31.4646C7.53374 31.5996 7.65347 31.7308 7.77321 31.8658C7.82729 31.9182 7.88522 31.9745 7.9393 32.027C8.00882 32.4207 7.86591 32.7806 7.76162 33.148C7.6303 33.5117 7.64189 33.8979 7.61485 34.2765C7.51829 34.7527 7.48739 35.2514 7.1668 35.66C7.0123 35.765 6.85781 35.7613 6.70331 35.6563C5.78018 34.0778 6.4986 32.7543 7.414 31.4646Z" fill="#C28784"/>
<path d="M1.25723 30.441C1.26495 30.1711 1.26881 29.9011 1.27654 29.6349C2.48549 29.6087 3.60174 30.7485 4.87636 29.8974C5.16218 29.9874 5.36689 30.1186 5.16991 30.4523C3.86439 32.3832 2.56274 31.2096 1.25723 30.441Z" fill="#B97671"/>
<path d="M12.8794 18.8182C13.142 19.0357 13.4008 19.2532 13.6635 19.4706C13.5013 19.7331 13.2425 19.8418 12.9489 19.9018C12.667 19.9468 12.3811 19.9355 12.0992 19.8943C11.346 19.5381 10.4499 20.003 9.7199 19.5081C9.5654 19.2532 9.53064 19.0057 9.77011 18.777C10.813 18.4058 11.852 18.2521 12.8794 18.8182Z" fill="#C98883"/>
<path d="M39.8896 21.0228C39.7622 20.8991 39.6347 20.7754 39.5073 20.6479C39.4879 19.4069 40.4729 18.867 41.3033 18.2259C41.4926 18.2146 41.6587 18.2671 41.8016 18.3946C41.9406 18.3983 42.0797 18.3983 42.2187 18.4021C41.8363 19.6056 40.9093 20.3517 39.8896 21.0228Z" fill="#B67672"/>
<path d="M43.4161 33.3542C44.3933 34.6252 43.9877 35.8925 43.4084 37.1597C43.2577 37.2835 43.0916 37.3172 42.9024 37.261C42.6474 37.1222 42.4659 36.9235 42.3655 36.6536C42.296 36.3799 42.3114 36.1137 42.3925 35.8475C42.8328 35.0714 42.7092 34.0853 43.3736 33.3917L43.4161 33.3542Z" fill="#B36E65"/>
<path d="M37.5953 37.4897C38.8275 38.0746 39.6115 37.7259 39.9321 36.4249C40.1523 36.0687 40.357 35.675 40.8398 36.1624C40.975 36.4586 40.9866 36.7623 40.8939 37.0735C40.4072 38.0333 39.6965 38.7044 38.5146 38.6145C37.8773 38.5657 37.1203 38.4982 37.5799 37.5159L37.5953 37.4897Z" fill="#B9746D"/>
<path d="M46.846 21.3978C46.5215 20.7941 45.6795 21.2478 45.3241 20.7041C47.0777 20.3667 48.3407 21.0041 49.1634 22.5225C49.0282 22.6613 48.8892 22.8 48.754 22.9387C47.912 22.6688 47.5991 21.7764 46.846 21.3978Z" fill="#B3706A"/>
<path d="M42.9333 37.1372C43.0916 37.1447 43.25 37.1522 43.4084 37.1635C43.0414 38.3258 42.5238 39.3381 41.0407 39.3718H41.0445C40.5385 38.4645 41.3844 38.1721 41.8402 37.6996C42.1801 37.4672 42.3925 36.9985 42.9333 37.1372Z" fill="#B66F67"/>
<path d="M27.1396 39.3981C27.4834 40.5229 28.7619 40.2829 29.461 40.894C27.8194 41.2127 26.5989 40.8753 26.3633 39.0156C26.6221 39.1431 26.8808 39.2706 27.1396 39.3981Z" fill="#B77772"/>
<path d="M2.41597 27.7715C3.38931 27.7228 2.7829 26.1069 3.98413 26.2793C4.28926 26.658 3.64809 27.0104 3.94937 27.3891C3.89529 27.794 4.04979 28.2402 3.68672 28.5814C3.0919 28.5664 2.32713 28.8026 2.41597 27.7715Z" fill="#D89D96"/>
<path d="M9.77011 18.777C9.76625 19.0207 9.76238 19.2644 9.75466 19.5044C9.68127 19.5381 9.60788 19.5719 9.5345 19.6093C9.09418 19.5681 8.7929 19.2944 8.4839 19.0282C8.29851 18.8707 8.11697 18.7095 7.92771 18.552C7.60326 18.2821 7.25564 18.0234 7.31744 17.536C7.73459 17.1461 7.34448 16.3212 8.1247 16.13L8.26374 16.175C7.7848 17.5735 9.0092 18.0496 9.77011 18.777Z" fill="#BF7973"/>
<path d="M22.8832 34.9702C23.4201 34.7452 23.1729 34.1903 23.393 33.8304C24.826 34.0966 24.5827 34.8277 23.9376 35.6713C23.5862 35.4388 23.2347 35.2026 22.8832 34.9702Z" fill="#EAC8C0"/>
<path d="M5.17377 30.4485C5.03472 30.3061 4.89181 30.1598 4.75276 30.0174C4.16567 30.1636 3.50132 30.7335 3.11121 29.7474C3.2464 29.3387 3.64423 29.4437 3.93778 29.3462C4.38196 29.305 4.75276 28.6376 5.25874 29.185C5.66044 29.6237 5.59864 30.0549 5.17377 30.4485Z" fill="#C58C87"/>
<path d="M3.93778 29.3462C3.69831 29.4362 3.4627 29.53 3.22322 29.6199C1.6203 28.9901 1.4658 28.6264 2.43528 27.7865L2.41597 27.7715C2.4739 28.5814 3.45111 28.0377 3.68672 28.5814C3.64809 28.8738 3.65196 29.1513 3.93778 29.3462Z" fill="#AF6963"/>
<path d="M3.61719 21.8327C3.89529 21.9526 4.16953 22.0726 4.44763 22.1964C4.83001 22.3576 4.9652 22.6463 4.91885 23.0362C4.76435 23.4186 4.45535 23.5236 4.06524 23.4711C3.62878 23.2349 3.13825 23.0999 2.70179 22.8637C2.6902 22.6988 2.7211 22.5375 2.78676 22.3838C2.96444 22.0614 3.22708 21.8552 3.61719 21.8327Z" fill="#C17973"/>
<path d="M49.5922 26.7892C49.5922 25.552 49.5883 24.3109 49.5844 23.0737C50.017 24.3109 50.2449 25.5482 49.5922 26.7892Z" fill="#B3706A"/>
<path d="M2.7829 22.3801C2.79449 22.5525 2.80608 22.725 2.8138 22.8975C2.94512 23.0174 2.99534 23.1674 2.96444 23.3399C2.76359 23.9398 2.35417 24.3409 1.74003 24.5472C1.56236 24.5771 1.40786 24.5322 1.27268 24.4122C1.26881 24.2772 1.26495 24.1385 1.25723 24.0035C1.57009 23.2874 2.10311 22.7662 2.7829 22.3801Z" fill="#AF6862"/>
<path d="M40.6506 36.0687C40.4111 36.1887 40.1716 36.3049 39.9321 36.4249C39.9167 36.0725 39.9012 35.7238 39.8858 35.3713C39.9167 35.1651 39.8163 34.8352 40.133 34.8464C40.3184 34.8539 40.4961 35.1164 40.6776 35.2626C40.9943 35.5438 41.5737 35.8287 40.6506 36.0687Z" fill="#E7BCB2"/>
<path d="M6.70331 35.66C6.79601 35.6825 6.89257 35.6938 6.99299 35.69C7.30972 35.6863 7.52215 35.8437 7.66506 36.1062C7.80025 36.4811 7.7539 36.8223 7.4758 37.126C7.32517 37.2647 7.17839 37.4072 7.02776 37.5459C6.42521 36.9948 6.45997 36.3424 6.70331 35.66Z" fill="#AC625D"/>
<path d="M5.11583 26.2606C4.91885 26.0431 4.72186 25.8219 4.52101 25.6045C4.66392 25.4882 4.80684 25.2745 4.94975 25.2783C5.64113 25.2858 5.37076 25.9119 5.56002 26.2531C5.40938 26.2531 5.26261 26.2568 5.11583 26.2606Z" fill="#F7E1D8"/>
<path d="M29.8318 40.9278C30.2026 40.3166 30.6043 39.8105 31.3768 40.4629C30.8901 40.7103 30.4652 41.149 29.8318 40.9278Z" fill="#C28781"/>
<path d="M32.493 39.3643C32.0566 39.0944 32.1647 38.6782 32.1879 38.2808C32.4196 38.2808 32.6552 38.2845 32.887 38.2845C33.0531 38.7457 32.8059 39.0681 32.493 39.3643Z" fill="#B6746F"/>
<path d="M3.94937 27.3891C3.30433 26.9992 3.89529 26.6468 3.98413 26.2793C4.2545 26.2793 4.52101 26.2831 4.79139 26.2831C4.50943 26.6543 4.23133 27.0217 3.94937 27.3891Z" fill="#AF6F6C"/>
<path d="M22.5356 32.6494C22.0412 32.3944 22.1532 31.9295 22.1184 31.5171C21.7978 31.1909 21.9485 30.8834 22.157 30.576C22.4776 30.0961 23.3467 29.7249 22.4699 29.0201C22.2188 28.3414 21.933 28.7014 21.6472 28.9976C19.9825 29.7437 19.0593 29.0313 18.5418 27.5203C18.4954 27.3554 18.4838 27.1829 18.507 27.0142C18.6306 26.6542 19.0362 26.3318 18.6615 25.9044C18.3989 25.4807 18.1517 25.8631 17.8967 25.9156C16.9813 25.8519 16.7187 25.2745 16.711 24.4984C16.738 24.1947 16.8693 23.936 17.0663 23.7036C17.8272 23.6023 18.3023 23.1449 18.6538 22.5263C19.3143 22.3426 19.77 22.8862 20.3533 22.9762C20.5155 23.0437 20.6661 23.1374 20.8013 23.2462C21.2455 23.6623 21.6588 24.1122 22.0837 24.5434C22.2652 24.7421 22.3927 24.9671 22.4622 25.2258C22.5317 25.597 22.5047 25.9569 22.3231 26.2943C22.1802 26.5043 22.4351 26.4593 22.4351 26.4218C22.4545 26.0019 22.5858 25.492 23.0995 25.5632C23.7175 25.6457 23.5321 26.1706 23.4548 26.5005C23.3428 26.8155 23.8527 26.568 23.6016 26.6243C23.8527 25.8594 23.8952 25.1095 23.4355 24.3934C23.3776 24.131 23.4046 23.876 23.5282 23.6323C24.3702 22.6538 25.5251 23.3211 26.5139 23.1037C27.1049 23.3699 27.3984 23.7711 27.1396 24.4197C26.7534 24.6484 26.2783 24.8171 27.0044 25.267C27.5413 25.597 28.2791 25.3383 28.7078 25.8894C29.1056 26.3131 29.8241 26.7067 29.403 27.3554C29.0284 27.9253 28.3756 27.4379 27.8503 27.3554C27.4795 27.2954 27.1049 27.2841 26.7341 27.2391C26.5409 27.3891 26.0002 26.6842 26.0775 27.5353C26.1856 28.7314 26.9002 29.8674 26.4792 31.1196C25.7994 31.7458 25.2432 31.1646 24.602 30.756C24.7333 31.7645 25.9925 32.5556 25.1775 33.2605C24.4668 33.8754 24.2582 32.5106 23.6402 32.2932C23.3235 32.1245 23.0029 31.9557 22.6862 31.787C22.6321 32.072 22.5858 32.3607 22.5356 32.6494Z" fill="#CF8480"/>
<path d="M24.0767 7.91158C24.32 7.65288 24.5634 7.39793 24.8067 7.13923C25.3088 7.2967 25.5637 6.87678 25.9191 6.68931C26.568 6.12692 27.1396 5.15586 28.1052 6.31064C28.1632 6.69681 27.9894 7.0005 27.7345 7.2742C27.4873 7.58164 26.8422 7.71662 26.9813 8.14779C27.1203 8.57895 27.7499 8.21527 28.1091 8.42523C28.4181 8.75142 28.8198 8.94263 29.237 9.11885C29.4069 9.30257 29.5305 9.51252 29.5653 9.75623C29.6386 10.2586 28.8005 10.9298 29.8665 11.2447C28.9395 11.8371 29.4726 13.3293 28.2366 13.7305C26.8963 13.528 26.2319 13.8392 26.8422 15.3127C27.2594 16.3175 26.7186 17.3898 26.9156 18.4396C26.989 18.8295 27.0624 19.3731 26.568 19.6093C25.9963 19.883 25.6101 19.4744 25.2432 19.1182C25.0153 18.897 24.8376 18.6345 24.6599 18.3796C24.3548 17.626 23.6518 18.2484 23.2038 17.9934C22.327 17.3148 22.8909 16.5612 23.0686 15.8263C21.9098 14.7728 22.3772 13.7305 23.0879 12.6919C23.3544 12.4445 23.7909 12.3545 23.8411 11.9083C23.6866 11.106 22.9295 11.5146 22.5008 11.2784C22.5201 9.93619 23.4008 8.96888 24.0767 7.91158Z" fill="#D58F8C"/>
<path d="M19.0632 21.7764C18.5302 20.7716 18.2135 19.5756 19.21 18.867C21.3034 17.3785 21.3575 15.1964 21.7051 13.0818C21.7862 12.5794 21.8828 12.1108 22.1493 11.6759C23.1922 11.7621 22.9334 12.5007 22.7635 13.0294C22.3733 14.2329 22.4545 15.4439 22.5047 16.6624C22.5163 17.1161 22.8755 17.5172 22.7287 17.9934C22.4699 18.6645 22.1184 19.2907 21.9948 20.0255C21.8867 20.6704 21.6124 21.3565 20.6545 21.1428C20.2837 20.9291 20.446 20.3555 19.9825 20.1267C19.9593 20.6404 20.4035 20.7716 20.6043 21.0678C20.7202 21.6565 20.334 21.8739 19.855 22.0314C19.5537 22.0651 19.2795 22.0014 19.0632 21.7764Z" fill="#D5918C"/>
<path d="M9.00148 25.1395C8.99375 25.0271 8.98603 24.9108 8.9783 24.7984C8.94354 24.4347 9.1019 24.0522 8.85856 23.7148C8.65385 23.4074 8.4839 23.0812 8.24829 22.7925C8.1556 22.6688 8.10152 22.53 8.07448 22.3801C8.0938 22.2263 8.15946 22.0951 8.28306 21.9976C8.6075 21.7352 9.04783 22.0464 9.37227 21.7877C10.8593 22.1776 11.9447 23.2499 13.2463 23.951C13.4549 24.2135 13.8218 24.3897 13.7523 24.8059C13.7716 27.0292 11.8906 25.8332 10.925 26.2906C10.0559 26.2681 9.70831 25.417 9.00148 25.1395Z" fill="#D4928B"/>
<path d="M12.0683 19.5456C12.3386 19.5419 12.609 19.5381 12.8794 19.5344C13.2347 19.9093 13.5978 19.9205 13.9763 19.5681C15.2355 19.8306 15.8651 20.9853 16.9195 21.5477C17.2633 21.7314 17.8813 21.9601 17.5993 22.4738C17.3367 22.9537 16.6646 23.3961 16.1818 23.0474C15.4016 22.4813 15.529 22.5225 15.166 23.4111C14.9072 24.0485 13.6055 23.3399 12.833 22.95C12.8524 22.6388 12.8215 22.3201 12.9566 22.0239C13.0184 21.8927 13.1073 21.7802 13.2193 21.6939C13.3429 21.6752 13.4549 21.6377 13.5476 21.589C13.3815 21.469 13.1923 21.5177 13.003 21.5327C12.5472 21.3528 12.1571 21.0828 11.7902 20.7754C11.4735 20.2805 12.0953 19.9805 12.0683 19.5456Z" fill="#D18B85"/>
<path d="M17.1011 24.3897C16.9427 25.1058 17.4835 25.477 17.8929 25.9119C15.8689 28.1427 13.9725 28.3564 11.3035 26.6542C11.01 25.4395 11.7631 25.7319 12.246 26.1369C13.1498 26.9017 13.3854 26.1368 13.7755 25.6382C14.7025 25.2295 13.9107 24.5771 14.0111 24.0485C14.66 24.0447 15.305 24.041 15.9539 24.0335C16.2359 24.4609 16.7573 24.1497 17.1011 24.3897Z" fill="#D39089"/>
<path d="M8.21353 22.1851C8.21739 22.2976 8.22126 22.4101 8.22512 22.5263C9.02079 22.5563 8.99761 23.1187 9.00534 23.6623C9.2564 24.131 8.89333 24.4084 8.65385 24.7271C7.09342 24.4534 5.52912 23.7486 3.99185 24.7909C3.67899 24.8246 3.35841 24.9033 3.12666 25.0983C2.06062 26.0056 1.77866 25.4095 1.68596 24.4159C2.03744 24.0223 2.38507 23.6286 2.73655 23.2349C3.14211 23.3511 3.55539 23.2799 3.96482 23.2799C4.28926 23.2724 4.57895 23.2012 4.7489 22.9012C5.32827 22.7587 5.59092 22.4026 5.50208 21.8214C6.16256 21.7052 6.76511 21.2965 7.47966 21.454C7.67665 21.7427 8.05517 21.8589 8.21353 22.1851Z" fill="#CF8983"/>
<path d="M7.49125 17.611C7.74231 17.8697 7.99337 18.1284 8.24057 18.3908C7.90454 18.717 8.10925 19.1032 8.11697 19.4669C8.02813 19.8568 8.04358 20.2767 7.82342 20.6367C6.98527 21.0528 6.49473 20.7754 6.08917 19.973C5.58319 18.9682 4.88022 18.0346 5.48277 16.8424C6.00806 16.9024 6.4986 17.4648 7.06252 16.9474C7.17453 16.9399 7.28654 16.9399 7.39855 16.9436C7.6921 17.1311 7.65734 17.3635 7.49125 17.611Z" fill="#D79E98"/>
<path d="M7.06638 16.9436C6.39817 18.9307 5.98103 17.3298 5.48663 16.8386C5.72224 15.8976 6.26299 15.1027 6.76897 14.2891C7.91612 13.9554 9.06328 13.618 10.6508 14.3678C9.67741 14.5778 9.07873 14.7953 8.46846 14.8253C6.92733 14.9002 6.40204 15.5301 7.06638 16.9436Z" fill="#DB9890"/>
<path d="M22.1493 16.9136C22.0334 15.7213 22.045 14.5441 22.3772 13.3743C22.5433 12.7931 22.7171 12.1783 22.1493 11.6759C22.2652 11.5446 22.3811 11.4097 22.4931 11.2784C23.5862 10.4236 24.1076 10.986 24.4436 12.017C24.1501 12.4032 23.5823 12.392 23.2887 12.7707C22.7944 13.8354 22.4042 14.889 23.6634 15.7438C23.1381 16.1075 22.8368 16.7486 22.1493 16.9136Z" fill="#CE8481"/>
<path d="M12.0683 19.5456C12.5549 20.108 11.9061 20.3067 11.6975 20.6441C11.6202 20.6779 11.5468 20.7154 11.4696 20.7529C11.122 20.7679 10.8439 20.8916 10.7048 21.229C10.6508 21.289 10.5967 21.349 10.5387 21.4053C10.1602 21.2703 9.78169 21.1391 9.39931 21.0041C9.10576 20.4154 9.32979 19.9393 9.7508 19.5119V19.5044C10.5272 19.4331 11.3074 18.9082 12.0683 19.5456Z" fill="#DA9C95"/>
<path d="M9.75466 19.5119C9.82804 20.0518 9.66582 20.5392 9.40317 21.0041C8.83153 21.0641 8.31009 20.9141 7.82342 20.6329C7.57236 20.2542 7.61871 19.8755 7.83887 19.5044C8.15173 19.2944 8.24057 18.852 8.66158 18.7545C9.02851 19.0057 9.39159 19.2569 9.75466 19.5119Z" fill="#D18B85"/>
<path d="M20.9674 12.7782C20.5966 12.5494 20.2258 12.317 19.8589 12.0883C20.4614 11.2072 21.0601 10.3261 21.6627 9.44504C21.7824 9.50128 21.906 9.56126 22.0257 9.6175C21.6704 10.6711 21.3189 11.7246 20.9674 12.7782Z" fill="#DB9F98"/>
<path d="M11.6936 20.6441C12.412 20.5054 12.8099 20.9816 13.2347 21.4053C13.3352 21.4765 13.3699 21.5552 13.3468 21.634C13.3236 21.7164 13.2965 21.7614 13.2656 21.7614C13.2541 21.9077 13.2425 22.0576 13.2309 22.2039C12.9373 22.53 12.497 22.3388 12.1533 22.4963C11.6164 22.1326 11.0795 21.7689 10.5387 21.4053L10.5156 21.3753C10.7048 20.8166 11.2919 20.8691 11.6936 20.6441Z" fill="#C77A74"/>
<path d="M19.0632 21.7764C19.3104 21.7764 19.5615 21.7764 19.8087 21.7764C20.5889 22.0239 21.2301 22.3351 20.5812 23.2761C19.7932 23.3811 19.1327 23.1637 18.6499 22.5263C18.6461 22.2001 18.731 21.9264 19.0632 21.7764Z" fill="#D58D88"/>
<path d="M14.0111 24.056C15.2896 24.6559 15.4904 25.267 14.0304 25.8969C13.6905 25.597 13.3583 25.2933 13.6171 24.7834C13.4935 24.5059 13.3699 24.2322 13.2463 23.9548C13.5013 23.9848 13.7562 24.0185 14.0111 24.056Z" fill="#DFADA6"/>
<path d="M5.50208 21.8214C5.757 22.1739 6.51791 22.3201 6.17029 22.9162C5.76086 23.6248 5.22398 23.0474 4.7489 22.9012C4.64847 22.665 4.54805 22.4288 4.44763 22.1926C4.79911 22.0689 5.15059 21.9451 5.50208 21.8214Z" fill="#DFA9A2"/>
<path d="M8.21353 22.1851C7.86591 22.0389 6.95437 22.4251 7.47966 21.454C8.14401 21.3903 8.78518 21.4427 9.37614 21.7877C9.10576 22.2451 8.63068 22.1326 8.21353 22.1851Z" fill="#E0A9A3"/>
<path d="M17.1011 24.3897C16.653 24.4197 16.4715 25.2408 15.8921 24.8171C15.5754 24.5884 15.8612 24.2959 15.9539 24.041C16.3247 23.9285 16.6955 23.816 17.0663 23.7036C17.0779 23.9323 17.0895 24.161 17.1011 24.3897Z" fill="#DFADA6"/>
<path d="M13.9763 19.5719C13.9532 19.8793 13.9029 20.1755 13.5051 20.2092C13.0069 20.2505 12.9026 19.9243 12.8794 19.5381C13.142 19.5156 13.4047 19.4931 13.6673 19.4744C13.7716 19.4969 13.8759 19.5306 13.9763 19.5719Z" fill="#E3B1AB"/>
<path d="M12.1533 22.4963C12.4159 22.0614 12.8408 22.1889 13.2309 22.2039C13.2463 22.5263 13.1845 22.8112 12.833 22.95C12.6052 22.8 12.3811 22.6463 12.1533 22.4963Z" fill="#E3B9B4"/>
<path d="M7.4758 37.1222C7.46421 36.7698 7.45263 36.4174 7.43718 36.065C7.2595 35.4238 7.56464 34.7864 7.44876 34.1453C7.1977 33.7554 7.23633 33.3692 7.46808 32.9905C7.74617 32.6793 8.25988 32.4469 7.85432 31.907L7.76935 31.8658C8.10538 31.4196 8.47618 31.0109 9.01693 30.7897C9.48428 30.8647 9.97096 30.8834 10.3727 31.1796C10.9211 31.817 12.1687 30.5273 12.4584 31.8808C12.3386 31.8958 12.2228 31.9182 12.1069 31.9482C10.9636 32.6494 10.0096 33.4892 9.75852 34.8652C9.43793 35.2064 9.66582 35.6 9.64651 35.9712C9.58857 36.3499 9.61175 36.7023 10.0096 36.9198C10.3997 37.3135 10.7937 37.6996 11.1683 38.1083C11.5584 38.4982 11.9679 38.7457 12.4931 38.3108C12.6206 38.292 12.7442 38.262 12.8639 38.2133L12.8601 38.2733C13.0996 38.5245 13.0841 38.7757 12.8601 39.0306C12.4738 39.2781 12.0837 39.5255 11.6975 39.773C10.392 39.4131 8.98603 39.2219 8.22126 37.9096C8.20967 37.5909 8.17491 37.2872 7.7848 37.186C7.67665 37.1672 7.57623 37.1485 7.4758 37.1222Z" fill="#D0928D"/>
<path d="M18.6615 27.0404C19.3529 28.2177 19.9284 29.6199 21.7708 28.5251C22.1841 29.365 21.6936 29.7549 20.9751 30.0286C20.3185 30.3735 19.8241 30.8834 19.407 31.4721C18.8662 32.0232 18.2366 32.1957 17.495 31.907C17.2363 31.8958 16.9813 31.8845 16.7226 31.8733C16.3054 31.6333 15.6642 31.6445 15.6411 30.9622C15.6333 30.501 15.417 30.2461 14.9072 30.2836C14.3394 30.2161 13.9454 29.9499 13.8296 29.3762C14.351 28.3677 15.7029 28.9263 16.3363 28.124C16.4908 28.0302 16.6414 27.9403 16.7959 27.8465C17.9663 28.7763 17.889 26.9842 18.6615 27.0404Z" fill="#D4948E"/>
<path d="M13.621 24.7796C13.76 25.1508 13.8952 25.522 14.0343 25.8931C13.509 26.6655 13.0378 27.5841 11.9872 26.3843C11.6048 25.9456 11.3614 26.1556 11.3074 26.6542C11.1838 26.5343 11.0563 26.4105 10.9327 26.2906C10.9752 25.9906 11.0949 25.5145 11.3808 25.6194C12.4352 26.0094 13.0957 25.6194 13.621 24.7796Z" fill="#C9817D"/>
<path d="M10.1525 31.1384C9.62333 31.4871 9.23322 31.4008 9.02079 30.7897C9.83963 29.9049 11.1645 29.9461 12.0644 29.2113C12.7983 29.11 12.7288 29.6237 12.7558 30.0623C12.7133 30.2311 12.6322 30.381 12.5163 30.5085C12.0181 30.8347 11.4078 30.831 10.8709 31.0447C10.6353 31.1234 10.3958 31.1609 10.1525 31.1384Z" fill="#E2B8B2"/>
<path d="M18.6615 27.0404C18.6113 27.0779 18.5495 27.1079 18.507 27.1529C17.9354 27.7753 19.4572 28.3077 18.704 28.7201C17.9122 29.155 17.3908 28.2477 16.7882 27.8503C17.2749 27.4453 17.7616 27.0404 18.2482 26.6355C18.6229 26.5305 18.7426 26.688 18.6731 27.0329L18.6615 27.0404Z" fill="#E1AEA7"/>
<path d="M16.3324 28.1277C16.0852 29.4962 14.6523 28.6376 14.0188 29.2862C13.7794 29.5075 13.5206 29.5037 13.2425 29.3687C13.1498 29.2638 13.115 29.155 13.142 29.05C13.1691 28.9413 13.2 28.8851 13.2309 28.8851C14.1926 28.3414 15.2973 28.3752 16.3324 28.1277Z" fill="#E1AEA7"/>
<path d="M10.4345 27.2279C11.234 27.3104 11.4812 27.734 11.8211 28.0115C11.6125 28.5289 11.4966 28.4689 10.4345 27.2279Z" fill="#EAC6C2"/>
<path d="M8.25216 26.2081C8.32554 26.0131 8.40279 25.8144 8.47618 25.6194C8.63454 25.9869 9.57312 25.8107 9.21777 26.4255C8.9783 26.8492 8.59205 26.2681 8.25216 26.2081Z" fill="#EFD7D2"/>
<path d="M18.677 27.0292C18.534 26.898 18.395 26.763 18.2521 26.6318C18.3873 26.3881 18.5225 26.1443 18.6576 25.9044C19.8782 26.2606 19.2293 26.6468 18.677 27.0292Z" fill="#D4948E"/>
<path d="M13.2309 28.8813C13.2463 29.0051 13.2579 29.125 13.2618 29.2488C13.2502 29.7961 13.3468 30.4148 12.4661 30.3923C12.4931 29.9461 12.5202 29.5 12.0606 29.2075C12.3734 28.8438 12.8215 28.9188 13.2309 28.8813Z" fill="#D4948E"/>
<path d="M43.3466 27.7228C43.6131 27.6178 43.8834 27.5128 44.1499 27.4079C44.2929 27.5428 44.4705 27.5953 44.6598 27.5728C45.104 27.5278 45.6409 27.4341 45.6949 28.019C45.7374 28.4989 45.2701 28.7613 44.8259 28.8476C44.2697 28.9563 43.8139 29.3237 43.2268 29.3612C42.9835 29.3762 42.941 29.5225 43.1766 29.4212C43.1843 29.4175 43.3079 29.6087 43.4006 29.6949C43.0028 29.9124 42.6011 30.1336 42.2033 30.351C42.3694 30.531 42.3423 30.681 42.126 30.7972C42.0256 30.786 41.929 30.7785 41.8286 30.771C40.4497 30.1561 39.0901 29.5112 37.746 28.8251C37.1975 27.884 37.0469 27.1229 38.5919 27.2654C39.1828 27.3216 39.7274 27.2466 40.2682 27.0329C41.1218 27.0442 41.9097 27.2654 42.6165 27.7415C42.4389 27.8878 42.4775 28.0377 42.6706 28.0827C42.9873 28.1577 43.2345 28.0415 43.3466 27.7228Z" fill="#C67D79"/>
<path d="M43.3736 33.3955C43.2654 34.3178 43.5165 35.3376 42.6204 36.05C41.4346 36.4811 41.4037 35.5101 41.0947 34.8727C40.7587 34.329 40.5694 33.6804 39.936 33.3505C39.5343 33.0205 39.7081 32.7206 40.0403 32.5144C40.554 32.1957 40.4845 31.892 40.0905 31.5508C39.7776 31.2096 39.2871 31.3446 38.9279 31.1346C38.4567 30.5985 38.6189 30.1823 39.1867 29.8374C40.1407 29.6837 40.7664 30.2236 41.3728 30.8085C42.3809 31.4233 42.3346 32.8068 43.3736 33.3955Z" fill="#D79F96"/>
<path d="M43.4045 29.6912C43.1573 29.6649 42.914 29.6387 42.2766 29.5674C43.5165 29.0201 44.4512 28.6114 45.5057 28.1465C45.2083 27.5466 44.3392 27.9777 44.1538 27.4041C44.4126 27.2804 44.6675 27.1529 44.9263 27.0292C45.8031 26.8117 46.1353 25.9456 46.8344 25.5145C47.4099 24.7946 47.9815 24.0672 48.8197 23.6061C49.1634 25.0271 49.2291 26.0919 47.5644 27.1042C46.1855 27.944 45.216 29.44 43.4045 29.6912Z" fill="#D0908A"/>
<path d="M41.3728 30.8122C40.6235 30.5385 39.8703 30.2686 39.121 29.9949C37.746 29.9611 36.3787 29.4925 34.9959 29.9424C34.2852 30.0211 33.5011 30.5535 32.9372 29.6537C33.3312 29.4137 33.7251 29.1738 34.1191 28.9338C34.3007 28.2852 34.5903 27.719 35.3203 27.5016C36.3632 27.4491 37.1203 28.0865 37.9623 28.5289C39.318 29.17 40.9016 29.44 41.8325 30.7672C41.678 30.7822 41.5273 30.7972 41.3728 30.8122Z" fill="#B0655F"/>
<path d="M48.8197 23.6061C48.3678 24.4497 47.8579 25.2333 46.8344 25.5145C47.1241 24.8808 47.0275 24.2622 47.7536 23.5873C48.7579 22.6538 46.9927 22.2526 46.4056 21.6227C46.394 21.6077 46.4443 21.499 46.4867 21.484C46.6026 21.4427 46.7301 21.424 46.8498 21.3978C47.8695 21.4652 48.2133 22.3238 48.7579 22.9387C48.7772 23.1637 48.7965 23.3849 48.8197 23.6061Z" fill="#DCA59E"/>
<path d="M42.1299 30.7972C42.1569 30.6472 42.1801 30.501 42.2071 30.351C42.6204 30.4298 43.0994 30.2348 43.4238 30.621C43.4586 30.6622 43.3697 30.8647 43.2848 30.9322C42.8599 31.2846 42.4775 31.1534 42.1299 30.7972Z" fill="#E1B2AB"/>
<path d="M46.3593 29.8261C46.058 30.0548 45.8842 30.2348 45.6718 30.3285C45.4555 30.4223 45.1156 30.456 45.1503 30.1111C45.1658 29.9499 45.4864 29.7737 45.7027 29.6912C45.834 29.6387 46.0348 29.7512 46.3593 29.8261Z" fill="#E3B7B0"/>
<path d="M26.7534 27.0254C27.6147 26.3431 28.3409 27.1904 29.0709 27.3329C29.4571 26.6318 28.4413 26.4593 28.7039 25.8894C30.2721 25.7357 29.6618 27.1941 30.2064 27.7978C30.2837 28.6339 31.0909 29.2375 30.9905 30.1223C31.5274 30.5348 31.8518 29.8111 32.3192 29.8899C33.1342 30.1636 33.6904 30.6547 33.7908 31.5283C33.9067 31.937 32.6823 31.4946 33.2925 32.3457C33.5706 32.7318 32.9217 32.8331 32.5548 32.8331C31.8596 32.8256 31.1643 32.7843 30.4768 32.6494C29.3644 32.4394 28.2327 32.2669 27.7731 31.0334C27.2401 30.591 29.2756 29.7474 27.5143 29.4925C27.1435 29.3762 26.765 29.305 26.371 29.2937C26.4174 28.5251 25.4942 27.5991 26.7534 27.0254Z" fill="#D18B86"/>
<path d="M35.2663 27.7528C34.7564 28.034 34.9457 28.9451 34.1191 28.9338C32.7711 29.1475 31.8673 28.4727 30.9751 27.5916C30.021 26.6505 30.6931 26.1781 31.481 26.1144C32.9488 25.9944 34.3277 25.6269 35.7143 25.222C36.1392 25.0983 36.6645 25.1095 36.8885 25.5595C36.9542 25.6944 36.5872 26.0281 36.4211 26.2718C36.2589 26.9317 35.9731 27.4941 35.2663 27.7528Z" fill="#D1918B"/>
<path d="M27.1358 24.4197C26.8808 24.0373 26.6298 23.6548 26.3749 23.2724C26.1315 22.1776 26.8577 21.5327 27.5568 20.8691C28.758 20.3592 29.9283 20.348 30.8824 21.3115C31.6973 22.1364 31.6085 23.0887 31.0253 24.026C30.8785 24.2585 30.7356 24.4909 30.5888 24.7234C29.376 25.252 28.2211 25.2258 27.1358 24.4197Z" fill="#D4948D"/>
<path d="M33.7058 31.5321C33.1844 31.0334 32.6668 30.5385 32.1454 30.0399C31.6278 30.0998 31.2223 30.5872 30.6429 30.4185C30.4111 29.5599 30.1021 28.7126 30.2026 27.8015C30.9364 28.6676 31.7823 29.3725 32.9333 29.6574C33.5784 30.0623 34.2118 29.5824 34.853 29.6274C35.5791 29.4925 35.7954 29.9274 35.6796 30.471C35.5482 31.0709 35.5405 31.7045 35.2508 32.2707L35.2585 32.2782C34.4899 32.5219 33.7715 32.6681 33.7058 31.5321Z" fill="#D69891"/>
<path d="M35.2663 27.7528C35.6525 27.2616 36.0349 26.7667 36.4211 26.2756C36.7958 26.8755 37.1434 26.3955 37.4988 26.2493C37.9236 26.2831 38.3485 26.2793 38.7734 26.2531C39.2716 26.5118 39.7738 26.7705 40.272 27.0329C39.8935 27.749 39.4648 28.1202 38.5262 27.7153C37.24 27.1604 37.7614 27.9965 37.9623 28.5326C36.8924 28.8288 36.1933 27.9103 35.2663 27.7528Z" fill="#D29089"/>
<path d="M38.7734 26.2531C38.3485 26.7667 37.9236 26.8042 37.4988 26.2493C37.6571 26.1069 37.8155 25.9681 37.97 25.8257C38.2365 25.9681 38.503 26.1106 38.7734 26.2531Z" fill="#EDCEC4"/>
<path d="M23.6364 32.2932C24.6059 31.787 24.2814 33.1968 25.0771 33.103C25.1041 32.4844 24.6638 32.0645 24.3587 31.5771C24.1346 31.2171 23.5359 30.801 24.2235 30.3548C24.7951 29.9836 25.2818 29.9536 25.4479 30.7972C25.5522 31.3371 26.0543 31.0672 26.3787 31.1496C26.4367 31.2059 26.4946 31.2621 26.5564 31.3146C26.8268 31.9745 27.4911 32.1057 28.0628 32.3682C28.4374 32.8481 28.5301 32.8668 29.0554 32.5631C29.3953 32.7656 29.4919 33.0768 29.4803 33.4405C29.0709 34.1416 29.0554 34.1753 28.3795 33.8641C27.3443 33.388 26.9697 35.0114 25.9577 34.5465C24.8299 34.1378 23.9724 33.4704 23.6364 32.2932Z" fill="#DA9E98"/>
<path d="M26.7302 29.2713C27.0083 28.8363 27.2362 29.2263 27.4873 29.3125C28.0473 29.6537 27.9855 30.2011 27.9778 30.7297C28.4181 31.9557 29.6232 31.952 30.6274 32.2707C31.5042 32.6194 32.3308 33.0468 32.9372 33.7854C32.9333 34.0066 32.9333 34.2278 32.9295 34.449C32.6089 34.644 32.3887 35.3488 31.9175 34.5015C31.5506 33.8416 31.0832 33.1443 30.1408 33.0955C29.7777 33.1068 29.5035 32.9455 29.2988 32.6681C28.8816 32.2932 28.2868 32.6494 27.8503 32.3419C27.6997 32.2407 27.5722 32.117 27.4602 31.9782C26.8963 31.1609 26.2667 30.3548 26.7302 29.2713Z" fill="#B36960"/>
<path d="M32.1338 38.2695C31.4308 38.3258 32.3269 39.9492 30.9828 39.3756C31.006 39.2593 31.0176 39.1469 31.0253 39.0269C31.4656 38.7457 31.3188 38.262 31.4695 37.8834C31.5428 37.6996 31.8712 37.4222 31.9368 37.4559C32.2729 37.6284 32.1261 37.9771 32.1338 38.2695Z" fill="#E1A9A2"/>
<path d="M30.6197 36.7661C30.612 36.6536 30.6043 36.5374 30.5927 36.4249C30.7819 36.1512 30.8824 35.735 31.369 35.9037C31.454 35.9337 31.5583 36.0874 31.5506 36.1737C31.4965 36.7323 31.0369 36.7248 30.6197 36.7661Z" fill="#DCA39C"/>
<path d="M29.4803 32.6006C29.7004 32.7693 29.9167 32.938 30.133 33.1068C29.9129 33.2192 29.6966 33.3317 29.4764 33.4442C29.1752 33.2642 29.0747 32.9943 29.1134 32.6644C29.2099 32.5106 29.3297 32.4806 29.4803 32.6006Z" fill="#EECEC8"/>
<path d="M41.8016 18.3946C41.6741 18.3946 41.5428 18.3908 41.4153 18.3908C40.4381 18.1846 40.4999 19.1632 40.0441 19.5456C39.5188 19.988 39.0978 20.5504 38.4914 20.9103C37.6803 21.5252 36.8228 22.0764 35.8688 22.4513C34.8684 22.845 33.841 23.6773 32.86 22.3238C32.6784 22.0726 32.1222 22.3838 31.7437 22.2751C31.3227 21.9339 30.8322 21.634 30.9519 20.9816C31.6935 20.4304 32.6205 20.4042 33.4664 20.2767C35.4169 19.9805 36.7649 18.4921 38.5841 17.9784C38.7927 16.7186 40.3995 17.0073 40.8475 16.055C40.8321 16.0775 40.8591 16.025 40.8591 16.025C40.8591 16.025 40.8012 16.1188 40.7896 16.1413C40.3184 16.6324 39.7854 17.0598 39.1635 16.5387C38.6305 16.0925 38.7348 15.4026 38.9279 14.8215C39.1867 14.0454 39.9437 13.5917 40.3802 12.9244C41.0909 12.1483 41.1025 10.6711 42.6783 10.7685C43.3813 11.016 43.5126 11.6459 43.2461 12.122C42.3964 13.6405 42.7092 15.3614 42.211 16.9286C42.0797 17.4123 41.9406 17.9034 41.8016 18.3946Z" fill="#C57C76"/>
<path d="M42.2149 16.9249C42.3732 15.3689 41.4153 13.7005 42.8019 12.257C43.1418 11.9046 43.1071 11.3272 42.6281 10.9373C42.0604 11.0722 42.9371 9.55002 41.705 10.2249C41.2994 10.4461 41.0522 9.60251 41.2685 9.1301C41.5428 8.52646 41.8286 7.91533 42.2573 7.38668C42.4775 7.21046 42.7324 7.11673 43.0221 7.12048C44.5671 9.47878 43.9414 11.9796 43.4277 14.4278C43.2423 15.3052 42.632 16.0963 42.2149 16.9249Z" fill="#D08D88"/>
<path d="M43.0221 7.12048C42.8792 7.25546 42.7401 7.39043 42.5972 7.5254C41.6123 6.82804 41.114 5.68451 40.0673 5.00964C38.9163 4.26728 37.7614 3.68989 36.3439 3.77237C36.0619 3.77237 35.7877 3.73863 35.5135 3.67114C34.9959 3.38245 34.0805 3.60365 34.0805 2.64009L34.0882 2.64384C34.7448 2.38139 35.4015 2.38514 36.0619 2.63634C37.5992 2.55385 38.9549 3.0975 40.2643 3.80237C41.4037 4.73594 42.6938 5.54953 43.0221 7.12048Z" fill="#DC9E99"/>
<path d="M35.2547 32.2669C34.9457 31.712 34.6985 31.1759 35.2392 30.591C35.7105 30.0811 35.247 29.8524 34.8568 29.6237C36.3439 29.0425 37.7846 28.9488 39.1249 29.9949C38.897 30.381 38.8738 30.7635 39.1287 31.1496C39.515 31.727 39.8974 31.2321 40.2798 31.1459C42.3384 32.1994 40.4381 32.6719 39.936 33.3505C38.5262 32.3719 36.931 32.1544 35.2547 32.2669Z" fill="#CB847F"/>
<path d="M41.0947 34.8727C41.7243 35.1164 41.79 36.0462 42.6204 36.05C42.6204 36.2749 42.6204 36.5036 42.6204 36.7286C42.3539 37.0735 42.1608 37.4447 42.211 37.8946C41.8363 38.397 40.9866 38.547 41.0445 39.3718C40.6467 39.3681 40.245 39.3643 39.8472 39.3643C39.4068 38.7757 39.654 38.3408 40.1677 37.9471C40.527 37.6734 40.8128 37.3472 40.7201 36.8523C40.7008 36.5936 40.6776 36.3312 40.6583 36.0725C41.1179 35.8175 40.7355 35.5401 40.6853 35.2701C40.8166 35.1351 40.9557 35.0039 41.0947 34.8727Z" fill="#C8827C"/>
<path d="M32.9295 33.7891C31.7437 33.8791 31.4501 32.6943 30.6197 32.2744C30.8708 32.2857 31.118 32.2969 31.369 32.3044C32.0295 32.3307 33.0569 33.1255 32.9951 31.5808C32.9951 31.5733 33.4586 31.5471 33.702 31.5321C34.0071 32.1994 34.5903 32.3194 35.2547 32.2782C34.8762 32.5406 34.4976 32.8031 34.1191 33.0618L34.1346 33.0468C33.6904 33.2267 33.532 33.8454 32.9295 33.7891Z" fill="#C77E77"/>
<path d="M34.1268 33.0618C34.5478 33.0805 34.9727 33.103 35.6641 33.1368C34.8723 33.7966 34.374 34.2915 34.1423 33.0468L34.1268 33.0618Z" fill="#EAC4BB"/>
<path d="M37.2516 33.7404C37.1357 33.5867 37.0353 33.4592 36.9387 33.3317C37.0778 33.2342 37.213 33.0693 37.3597 33.058C37.6224 33.0393 37.8889 33.163 37.7769 33.4779C37.7344 33.5942 37.4717 33.6354 37.2516 33.7404Z" fill="#E4AAA3"/>
<path d="M26.5873 35.3563C26.653 35.4426 26.7766 35.6113 26.904 35.78C26.7572 35.8362 26.5912 35.9637 26.4637 35.9337C26.3247 35.9 26.1547 35.7388 26.1238 35.6075C26.0736 35.4201 26.232 35.3151 26.5873 35.3563Z" fill="#F1D6CF"/>
<path d="M10.9327 38.3033C10.5426 37.9171 10.1564 37.5309 9.76624 37.1447C9.46497 36.8523 9.2564 36.5224 9.32979 36.0837C9.40317 35.6563 9.3182 35.1726 9.75852 34.8652C9.73921 35.7313 11.0061 36.1699 10.5658 37.1747C10.8323 37.3585 11.1258 37.5159 11.1451 37.8871C11.1258 38.0521 11.0524 38.1908 10.9327 38.3033Z" fill="#BB726A"/>
<path d="M10.9327 38.3033C10.9366 38.1646 10.9404 38.0258 10.9443 37.8871C11.4387 37.6734 11.7052 38.0858 12.0606 38.262C12.2035 38.277 12.3502 38.292 12.4931 38.3108C11.9679 39.3268 11.4503 39.3306 10.9327 38.3033Z" fill="#CC8582"/>
<path d="M12.0567 38.262C11.6859 38.1383 11.3151 38.0108 10.9404 37.8871C10.813 37.6509 10.6894 37.4147 10.5619 37.1747C11.3537 37.1635 11.7091 37.7034 12.0567 38.262Z" fill="#DEA19B"/>
<path d="M12.8755 32.5894C12.9837 32.7168 13.0918 32.8406 13.2 32.968C12.9103 33.163 12.5434 33.5904 12.2807 33.148C11.9447 32.5931 12.5665 32.6793 12.8755 32.5894Z" fill="#E5BFBA"/>
<path d="M1.68596 24.4159C2.25761 25.6757 3.26957 24.3972 3.99185 24.7909C2.93354 25.5257 2.24602 26.4443 2.43528 27.7903C1.33448 28.9526 3.29661 28.8776 3.22322 29.6237C3.54381 30.4373 4.32403 29.5974 4.75276 30.0211C3.38158 31.7008 2.38893 30.1598 1.2804 29.6387C1.0332 28.7801 0.755105 27.9215 0.917328 27.0104C1.27654 26.6767 1.29585 26.3243 0.98299 25.9531C1.08341 25.4432 1.17998 24.9296 1.2804 24.4197C1.41172 24.4122 1.55077 24.4159 1.68596 24.4159Z" fill="#D89D96"/>
<path d="M7.44876 25.3982C7.05865 25.5482 6.85008 25.6944 6.64151 25.6944C6.37113 25.6907 6.19346 25.477 6.31706 25.2108C6.375 25.087 6.61061 24.9408 6.73034 24.9671C6.93506 25.0083 7.105 25.177 7.44876 25.3982Z" fill="#F8E4DD"/>
<path d="M8.65772 24.7271C8.77359 24.3709 8.88946 24.0148 9.0092 23.6623C9.22164 23.6173 9.56153 23.3474 9.61947 23.6211C9.72376 24.1085 9.38772 24.5022 8.98216 24.7984C8.87015 24.7759 8.762 24.7496 8.65772 24.7271Z" fill="#DFABA1"/>
<path d="M7.49125 17.611C7.46421 17.386 7.43331 17.1611 7.40628 16.9361C7.62257 16.6474 7.09728 15.7363 8.1247 16.1263C7.91226 16.6249 7.70369 17.1161 7.49125 17.611Z" fill="#AD655F"/>
<path d="M34.0805 2.64384C34.4127 3.26247 35.3049 2.80131 35.6448 3.40494C35.4015 4.56722 34.5131 4.08731 33.8681 4.00108C32.2188 3.78362 30.7781 4.10981 29.5807 5.26459C29.6193 5.41456 29.6155 5.56078 29.573 5.707C29.3103 6.14942 28.8893 6.38562 28.4065 6.54309C28.2327 6.57309 28.0744 6.53934 27.9314 6.43811C26.7495 5.28333 26.7302 7.19922 25.9616 7.13923C25.7067 6.94052 25.5831 6.68182 25.5792 6.36313C26.1006 5.87572 26.6221 5.39206 27.1435 4.90465C29.403 4.00108 31.5622 2.80131 34.0805 2.64384Z" fill="#D69590"/>
<path d="M36.0619 2.63634C35.4053 2.64009 34.7487 2.64384 34.0882 2.64384C34.6405 2.05895 35.3628 2.36639 36.0117 2.29515C36.0272 2.41138 36.0426 2.52386 36.0619 2.63634Z" fill="#D69590"/>
<path d="M25.5831 6.37062C25.8998 6.53934 25.9809 6.82054 25.9654 7.14673C25.5792 7.03425 25.1852 8.3465 24.8028 7.14298C25.0616 6.88428 25.3243 6.62558 25.5831 6.37062Z" fill="#DEAFAA"/>
<path d="M17.4912 31.907C18.0706 31.5246 18.7426 31.5171 19.4031 31.4721C19.4417 31.6633 19.4842 31.8508 19.5228 32.042C19.8898 32.132 20.1563 31.6408 20.5464 31.8845C20.7318 31.9032 20.9133 31.9182 21.0987 31.937C20.6391 33.268 19.3722 33.193 18.2946 33.4517C18.1671 33.3542 18.0783 33.2342 18.0319 33.088C17.9624 32.7881 17.804 32.5406 17.5453 32.3569C17.5298 32.2069 17.5105 32.057 17.4912 31.907Z" fill="#B9726C"/>
<path d="M18.283 33.058C18.2869 33.1893 18.2946 33.3205 18.2984 33.4517L18.3023 33.4105C17.58 33.8679 16.7728 33.7666 15.9732 33.7366C15.7144 33.7554 15.4518 33.7779 15.193 33.7966C15.5329 32.2294 16.7264 33.103 17.5839 33.0093C17.8311 32.8106 18.0667 32.8368 18.283 33.058Z" fill="#CE8D87"/>
<path d="M15.9771 33.7404C16.6762 33.1105 17.5221 33.4704 18.3023 33.4142C17.6689 34.4828 16.8732 34.4453 15.9771 33.7404Z" fill="#B56B64"/>
<path d="M31.7978 22.1626C32.4312 21.9939 32.9102 21.214 33.6827 21.6452C34.2813 21.9789 33.4316 22.3726 33.6711 22.7737C35.4633 22.5525 36.9542 21.6977 38.3562 20.6629C38.503 20.7716 38.7232 20.8091 38.7464 21.0378C36.734 22.6688 34.4629 23.6436 31.7978 23.6323C31.369 23.1412 31.3265 22.6538 31.7978 22.1626Z" fill="#D18C84"/>
<path d="M31.7978 22.1626C31.7978 22.6538 31.8016 23.1412 31.8016 23.6323C31.5428 23.7636 31.2841 23.8985 31.0253 24.0298C30.9905 21.1203 30.1446 20.4792 27.5375 21.4015C27.0469 21.6977 26.7534 21.5777 26.6723 21.0116C27.746 19.5419 29.1365 19.6131 30.6429 20.2392C30.9017 20.4379 31.1025 20.6629 31.0176 21.0191C31.2763 21.3978 31.5351 21.7802 31.7978 22.1626Z" fill="#BF726D"/>
<path d="M38.7502 21.0341C38.6189 20.9103 38.4876 20.7829 38.3601 20.6591C39.4609 20.0443 39.9939 18.9645 40.6814 18.0084C40.8321 17.8022 40.9402 17.3223 41.3381 17.6822C41.4733 17.8022 41.396 18.1471 41.4153 18.3871C40.778 19.1407 40.1446 19.8943 39.5073 20.6479C39.2562 20.7791 39.0013 20.9066 38.7502 21.0341Z" fill="#D69993"/>
<path d="M12.47 30.396C12.7365 30.0136 12.9991 29.6349 13.2656 29.2525C13.5167 29.2638 13.7716 29.275 14.0227 29.2862C14.2351 29.7774 14.6214 30.0211 15.1698 30.0286C15.5677 30.1486 15.7144 30.5085 15.9501 30.786C15.8883 31.3634 16.4754 31.5058 16.7226 31.877C15.3012 31.8808 13.8798 31.8808 12.4584 31.8845C11.9408 31.2321 11.4232 31.6933 10.9211 31.8995C9.97096 32.2932 10.222 31.5696 10.1525 31.1421C10.28 31.0259 10.4113 30.9097 10.5387 30.7935C11.2263 30.8609 11.8404 30.591 12.47 30.396Z" fill="#D08580"/>
<path d="M14.0613 33.3617C14.0729 32.9568 13.9879 32.4769 14.6291 32.4844C14.7566 32.4844 14.9883 32.6943 14.9844 32.7993C14.9613 33.403 14.4476 33.298 14.0497 33.3467C14.0497 33.3505 14.0613 33.3617 14.0613 33.3617Z" fill="#E9BCB8"/>
<path d="M18.283 33.058C18.0474 33.043 17.8156 33.028 17.58 33.013C17.5684 32.7956 17.5568 32.5744 17.5414 32.3569C17.8852 32.2894 18.2791 32.072 18.5225 32.4619C18.5958 32.5744 18.3718 32.8556 18.283 33.058Z" fill="#E8C1BA"/>
<path d="M43.3466 27.7228C43.2809 28.4539 43.2809 28.4539 41.6084 28.2065C41.6934 27.5316 42.2728 27.8728 42.6204 27.7415C42.8599 27.734 43.1032 27.7265 43.3466 27.7228Z" fill="#DEA9A2"/>
<path d="M40.7162 36.8486C41.3535 37.4034 40.9673 37.8384 40.4767 38.1421C39.9823 38.4495 39.9012 38.8807 39.8472 39.3606C37.4602 39.0644 37.2323 38.8769 37.5838 37.5159C38.6112 38.7344 39.0824 38.6332 40.7162 36.8486Z" fill="#DAA198"/>
<path d="M20.9751 30.0286C21.1798 29.4962 21.794 29.17 21.7708 28.5251C22.215 28.2927 22.5356 28.3002 22.551 28.9038C23.0377 29.5337 22.775 30.1523 22.524 30.771C22.2188 30.9322 22.1416 31.2096 22.1184 31.5171C21.0562 31.5133 21.7283 30.2536 20.9751 30.0286Z" fill="#B56560"/>
<path d="M20.5503 31.8845C20.1872 31.8133 19.9902 32.7506 19.5267 32.042C19.9323 31.832 20.0829 31.1684 20.7357 31.4008C20.6739 31.5658 20.6121 31.7233 20.5503 31.8845Z" fill="#F8F4F3"/>
<path d="M12.8601 39.0269C12.8601 38.7757 12.8601 38.5245 12.8601 38.2695C13.6364 38.1046 13.9763 37.4334 14.4553 36.6836C14.6059 38.4532 14.463 38.637 12.8601 39.0269Z" fill="#E2A29C"/>
<path d="M0.98299 25.9456C1.29585 25.9681 1.58554 26.0394 1.60485 26.4105C1.63189 26.8755 1.29971 26.9729 0.917328 27.0029C0.936641 26.6505 0.959815 26.2981 0.98299 25.9456Z" fill="#E3B5AC"/>
<path d="M7.78094 37.1785C7.97406 36.9235 8.19422 36.9235 8.38348 37.1597C8.61523 37.4522 8.56115 37.7146 8.21739 37.9021C8.07062 37.6621 7.92771 37.4222 7.78094 37.1785Z" fill="#E0AEA8"/>
<path d="M7.44876 34.1491C8.19808 34.7939 7.6921 35.4313 7.43718 36.0687C7.2904 35.9412 7.13977 35.8175 6.99299 35.69C7.1359 35.1726 6.90802 34.554 7.44876 34.1491Z" fill="#E2B7B1"/>
<path d="M7.85819 31.907C8.16332 31.952 8.54957 31.9745 8.46846 32.3869C8.36803 32.8743 7.94702 33.0093 7.47194 32.9905C7.5994 32.6306 7.72686 32.2707 7.85819 31.907Z" fill="#E4BCB5"/>
<path d="M42.211 37.8946C41.5544 37.246 41.8363 36.9048 42.6204 36.7323C42.7247 36.8673 42.829 37.0023 42.9333 37.141C42.6938 37.3885 42.4505 37.6397 42.211 37.8946Z" fill="#E0AEA7"/>
<path d="M8.66544 18.7545C8.61137 19.2344 8.37576 19.5194 7.84273 19.5044C7.95475 19.1257 7.21702 18.4583 8.24443 18.3908C8.38348 18.5108 8.52253 18.6345 8.66544 18.7545Z" fill="#E6B8AE"/>
<path d="M3.96482 23.2799C3.52836 23.9135 3.09962 24.3972 2.73655 23.2349C2.77518 23.1262 2.80221 23.0137 2.81766 22.8975C3.35841 22.5713 3.76011 22.6463 3.96482 23.2799Z" fill="#E8C5BE"/>
<path d="M30.6274 20.6479C29.2524 19.913 27.9932 20.3142 26.7727 21.0341C26.4058 21.4465 25.0191 20.7829 25.6024 22.3051C25.9114 23.1112 24.5865 23.2836 23.3621 22.3726C23.3853 22.815 23.9376 23.1412 23.6711 23.6511C23.6711 23.8985 23.6711 24.1497 23.6711 24.3972C22.7905 23.9435 22.9566 25.507 22.1261 25.147C21.9987 25.0233 21.8674 24.8958 21.7399 24.7721C21.6124 24.6296 21.512 24.4384 21.5931 24.281C22.2536 22.9912 21.4734 23.0849 20.5812 23.2724C20.7395 22.5713 20.2258 22.1964 19.8087 21.7727C20.191 21.619 20.4653 21.379 20.5232 20.9591V20.9628C21.4579 20.9741 21.7515 20.2805 21.6549 19.6431C21.5236 18.7995 22.0837 18.4808 22.5201 18.0159C22.6012 18.0534 22.6823 18.0946 22.7635 18.1321C23.3274 18.7545 23.0725 19.5119 23.1149 20.228C23.7252 19.6018 24.2389 18.9345 24.602 18.1621C24.6792 18.1134 24.7526 18.0684 24.8299 18.0196C25.3938 18.3983 25.5058 19.2382 26.4869 19.4256C26.2126 17.8097 26.819 16.2125 26.1547 14.6603C25.8998 14.0604 26.0388 13.498 26.4598 13.1193C27.1937 12.4595 27.6031 13.7342 28.3061 13.5205C28.4722 13.6105 28.6151 13.7305 28.731 13.8767C29.2138 15.5414 30.0712 17.0711 30.6081 18.7208C30.8167 19.3694 31.2184 20.003 30.6274 20.6479Z" fill="#CF8582"/>
<path d="M23.6711 23.6548C23.1033 23.1299 22.5858 22.59 23.0493 21.7689C23.8797 21.8402 24.181 23.5461 25.2239 22.5563C25.8612 21.9489 24.8183 21.649 24.3973 21.1878C25.2432 21.1241 25.9577 20.5579 26.7688 21.0341C26.9272 21.3415 27.2207 21.3903 27.5336 21.3978C27.1474 22.0239 26.7611 22.6463 26.3787 23.2724C25.6217 24.3634 24.49 22.9687 23.6711 23.6548Z" fill="#D58D88"/>
<path d="M22.1261 25.1508C22.7596 25.132 22.4776 23.3324 23.6711 24.4009C25.4865 25.6457 23.6789 26.4705 23.2578 27.7153C22.8871 26.9767 23.5359 26.4143 23.1536 25.8931C22.5008 25.9719 22.6862 27.0479 21.6858 26.9317C22.1377 26.3731 22.1686 25.7657 22.1261 25.1508Z" fill="#D58D88"/>
<path d="M26.7302 29.2713C26.6839 30.3323 27.4255 31.0559 27.9083 31.892C26.9774 32.4581 26.7843 31.5921 26.3749 31.1459L26.3787 31.1496C25.8689 29.7174 26.0157 28.124 25.2045 26.7405C25.7762 26.6093 26.3208 26.5005 26.7534 27.0217C26.1547 27.7678 26.4791 28.5214 26.7302 29.2713Z" fill="#D99A92"/>
<path d="M20.585 23.2761C21.1644 23.3436 20.6198 21.7764 21.8365 22.56C22.748 23.1449 22.3502 23.5498 22.0257 24.1122C21.906 24.3184 21.8365 24.5546 21.7438 24.7759C21.3266 24.2959 20.6584 24.0035 20.585 23.2761Z" fill="#D58D88"/>
<path d="M22.524 30.771C22.5317 30.1486 22.5394 29.5262 22.551 28.9038C22.9141 28.7351 23.1574 28.6526 23.3312 29.185C23.6093 30.0286 22.918 30.3061 22.524 30.771Z" fill="#DA948D"/>
<path d="M24.8453 29.0201C24.7217 29.2038 24.6561 29.4287 24.5363 29.4587C24.2273 29.5375 24.0999 29.2975 24.1308 29.05C24.1462 28.9226 24.3239 28.7351 24.4398 28.7239C24.5556 28.7164 24.687 28.8963 24.8453 29.0201Z" fill="#DFAAA2"/>
<path d="M20.9365 25.9156C20.7163 26.0581 20.585 26.2081 20.446 26.2156C20.334 26.2231 20.2142 26.0581 20.0983 25.9719C20.2219 25.8594 20.334 25.6907 20.4769 25.6569C20.5812 25.6307 20.7279 25.7882 20.9365 25.9156Z" fill="#D4948E"/>
<path d="M29.4494 5.27583C29.2601 5.26834 29.0284 5.32832 28.8893 5.24209C28.2366 4.83717 28.9743 4.79593 29.094 4.73969C30.7781 3.92609 32.4235 2.89879 34.4551 3.70488C34.8723 3.86985 35.3319 3.82486 35.6487 3.40869C35.9036 3.41244 36.1585 3.41244 36.4134 3.41619C36.6297 3.71988 36.4173 3.97108 36.3207 4.23728C36.2512 4.54097 36.4829 4.78093 36.5216 5.06212C35.7529 5.61327 36.8499 6.15317 36.5254 6.70431C36.2319 6.93302 35.7684 6.89927 35.5907 7.2967C35.4015 7.46542 35.8418 7.59664 35.6448 7.43917C35.583 7.39043 35.6873 7.21796 35.7877 7.12798C35.977 6.95551 36.2357 6.89927 36.4443 6.7568C37.3713 6.87678 37.5297 7.77286 38.0743 8.27901C38.1013 9.94369 36.1237 9.46378 35.3744 10.8473C35.9654 10.0862 36.3748 9.63625 37.0198 10.0524C37.464 10.3374 37.4099 10.8248 37.3366 11.2447C37.2091 11.9908 36.7572 12.5007 35.9576 12.5907C35.3821 12.6544 34.8337 12.3432 34.2543 12.3657C33.9337 12.437 33.5166 12.6207 33.6633 12.9244C34.0766 13.768 33.7406 14.5966 33.7754 15.4289C34.1114 16.5612 33.702 16.8649 32.6166 16.4075C32.1647 16.055 31.7128 16.235 31.257 16.4075C29.8472 16.4562 30.0288 15.8188 30.612 15.009C30.8437 14.709 31.0871 14.4128 30.8515 14.0042C30.7819 13.8579 30.7395 13.708 30.7086 13.5543C30.6274 12.9956 30.8862 12.5007 30.9905 11.9758C31.1721 11.0835 30.5347 11.3684 30.0867 11.3797C30.0094 11.3459 29.9322 11.3159 29.8549 11.2822C28.5572 10.8698 29.4224 9.75623 29.0825 9.03637C29.152 8.98013 29.2176 8.92764 29.2872 8.8714C29.5498 8.78141 29.8047 8.80391 30.0597 8.89764C30.5734 9.1301 31.06 9.53877 31.6587 9.07761C32.8252 8.89389 32.4969 10.2024 33.1883 10.5136C33.756 10.2849 33.4702 9.83121 33.4741 9.45254C33.6904 8.32775 33.4123 7.48791 32.1299 7.21046C31.9214 6.7493 32.1261 6.35563 32.3308 5.9582C32.5548 5.51204 33.1921 4.96464 31.9832 4.9384C31.1103 4.91965 30.3571 5.63202 29.4494 5.27583Z" fill="#D08784"/>
<path d="M28.2906 6.38937C28.6769 6.13817 29.0593 5.88697 29.4455 5.63577C30.0365 5.79698 30.2412 6.2619 30.3957 6.76805C30.415 7.33419 30.0519 7.70537 29.685 8.06905C29.2949 8.40649 28.8623 8.66519 28.3138 8.65769C28.1864 8.66144 28.0512 8.69143 27.9353 8.66144C27.3212 8.50397 26.483 9.58751 26.1431 8.5752C25.8727 7.76536 26.6916 7.3117 27.495 7.12048C27.9739 7.10548 28.2984 6.91802 28.2906 6.38937Z" fill="#E1B5B1"/>
<path d="M28.31 13.9067C28.31 13.7792 28.3061 13.6555 28.3061 13.528C29.1558 12.9956 28.055 11.1997 29.8511 11.2784C30.5309 11.4547 31.4926 11.4247 30.836 12.5682C30.5579 13.0518 30.6699 13.4943 31.0137 13.9067C31.3072 14.3903 30.921 14.7165 30.724 15.084C30.1176 15.6913 29.5228 15.9875 29.3026 14.8328C29.1867 14.2216 28.8546 13.9967 28.31 13.9067Z" fill="#D08784"/>
<path d="M22.1493 16.9136C22.6553 16.5237 22.8059 15.7063 23.6634 15.7476C23.76 16.5387 22.4699 17.1273 23.3042 18.0309C23.2501 18.0834 23.1961 18.1359 23.142 18.1884C22.9025 18.2446 22.6939 18.1959 22.5163 18.0234C22.3965 17.6522 22.2729 17.2848 22.1493 16.9136Z" fill="#E1AEA8"/>
<path d="M28.31 8.66144C28.6962 8.41024 29.0825 8.15903 29.4687 7.90783C30.0558 8.32025 30.0519 8.3315 29.0825 9.02887L29.0786 9.03262C28.8044 9.1151 28.5301 9.19759 28.252 9.28007C28.2713 9.07386 28.2906 8.86765 28.31 8.66144Z" fill="#D08784"/>
<path d="M28.2906 6.38937C28.5494 6.45311 29.0207 6.44561 28.7464 6.85053C28.476 7.25171 28.0821 7.80285 27.4873 7.12423C27.6379 6.89552 27.7847 6.67057 27.9353 6.44186C28.055 6.43061 28.1709 6.41187 28.2906 6.38937Z" fill="#EED3CD"/>
<path d="M23.3042 18.0309C23.814 17.8509 24.32 16.8949 24.8299 18.0271C24.3278 18.6308 23.8218 19.1332 23.3003 18.0421L23.3042 18.0309Z" fill="#CF8582"/>
<path d="M23.2887 12.7744C23.3274 12.0208 23.8836 12.0133 24.4436 12.0208C24.4127 12.7782 23.8797 12.8156 23.2887 12.7744Z" fill="#E1B4B0"/>
<path d="M20.5232 20.9628C19.8705 21.0828 19.1598 21.2028 19.2293 20.2317C19.2718 19.6431 19.6889 19.0732 20.3494 19.2907C21.4657 19.6543 20.558 20.3929 20.5271 20.9703C20.5232 20.9666 20.5232 20.9628 20.5232 20.9628Z" fill="#754842"/>
<path d="M13.2656 21.7614C13.2541 21.6415 13.2425 21.5252 13.2347 21.4053C13.9029 20.9891 14.1463 21.604 14.66 21.7952C14.0381 22.4101 13.6751 21.8964 13.2656 21.7614Z" fill="#DDA39A"/>
<path d="M8.22512 22.5263C8.17105 22.8037 8.11697 23.0849 8.0629 23.3624C7.91998 23.2911 7.6921 23.2499 7.64961 23.1412C7.44104 22.6088 7.87364 22.5938 8.22512 22.5263Z" fill="#D4928B"/>
<path d="M11.6975 20.6441C11.4271 21.0716 10.9482 21.1878 10.5194 21.3715C10.3031 20.9703 10.307 20.6329 10.7087 20.303C11.2842 19.8268 11.3537 20.5804 11.6975 20.6441Z" fill="#D18B85"/>
<path d="M9.32979 36.0837C9.47656 36.4361 9.61947 36.7923 9.76624 37.1447C8.96285 37.0473 8.75042 36.7173 9.32979 36.0837Z" fill="#E2B6AF"/>
<path d="M15.9462 30.7822C15.4402 30.771 15.1853 30.5085 15.166 30.0249C15.3552 29.7287 15.6063 29.6349 15.9076 29.8449C16.3209 30.1336 16.0543 30.4673 15.9462 30.7822Z" fill="#DFACA6"/>
<path d="M12.47 30.396C11.8558 30.666 11.3614 31.4946 10.5349 30.7897C11.1297 30.4073 11.7979 30.3885 12.47 30.396Z" fill="#D0928D"/>
<path d="M40.2759 31.1459C39.9746 31.5546 39.8047 32.2369 39.1056 31.9857C38.7116 31.8433 38.7 31.4233 39.1249 31.1496C39.5111 30.9622 39.8935 30.9022 40.2759 31.1459Z" fill="#E9C7BE"/>
<path d="M27.9739 30.7335C27.8117 30.2611 27.6495 29.7887 27.4834 29.3162C28.1014 28.7763 28.6035 29.5862 29.3103 29.5712C28.8662 29.9574 28.422 30.3435 27.9739 30.7335Z" fill="#DAA298"/>
<path d="M30.6429 30.4148C31.118 30.2011 31.4772 29.5375 32.1454 30.0361C31.2532 31.2509 31.1489 31.2771 30.6429 30.4148Z" fill="#C47A77"/>
<path d="M27.3173 22.8787C27.4332 22.2826 27.7576 21.8514 28.422 21.7914C28.8893 21.7464 29.1288 22.0539 29.1481 22.4701C29.179 23.1187 28.8044 23.5648 28.1825 23.6773C27.6495 23.7748 27.3907 23.3886 27.3173 22.8787Z" fill="#643C34"/>
<path d="M26.3749 31.1459C26.904 31.3596 27.2362 31.9557 27.9083 31.892C27.9314 32.0045 27.9392 32.117 27.9353 32.2332C28.1439 32.3757 28.14 32.5106 27.916 32.6344C27.1512 32.3832 25.9114 32.5931 26.3749 31.1459Z" fill="#CF8480"/>
<path d="M27.916 32.6344C27.9237 32.4994 27.9276 32.3682 27.9353 32.2332C28.4567 32.3307 29.0477 32.1507 29.4842 32.6006C29.3644 32.6344 29.2408 32.6569 29.1172 32.6644C28.7001 33.1255 28.2984 33.1855 27.916 32.6344Z" fill="#D28F89"/>
<path d="M28.31 13.9067C29.067 13.2318 29.5575 13.378 29.685 14.3716C29.7622 14.9677 29.6811 15.6389 30.6159 15.0277C30.7549 14.9002 30.8862 14.8965 31.0137 15.0427C30.7897 15.5226 29.8047 16.25 31.3922 16.1488C31.7823 16.1638 32.1724 15.8338 32.5625 16.1488C32.8986 16.1638 33.2346 16.1788 33.5706 16.1937C33.4895 15.9313 33.4046 15.6688 33.3234 15.4026C33.4432 15.2714 33.59 15.1814 33.7676 15.1365C35.5869 15.2677 36.1199 15.9126 35.9461 17.761C35.7104 18.2259 35.8341 18.8445 35.1388 19.2944C35.7877 18.9232 36.0581 18.4321 36.5061 18.1359C37.2207 17.5622 37.9352 16.9474 38.7386 18.0234C38.8738 18.3721 39.6038 18.552 39.1133 19.0769C38.6189 19.6018 38.5146 18.9682 38.3099 18.7545C37.8078 18.2334 37.5065 18.6833 37.2091 18.9645C35.4787 20.6104 33.2771 20.8804 31.0214 21.0116C30.8901 20.8879 30.7588 20.7679 30.6274 20.6441C30.2644 19.1557 29.9322 17.656 28.9666 16.385C28.4104 15.6576 28.9202 14.6378 28.31 13.9067Z" fill="#D48F8A"/>
<path d="M37.9623 8.27901C36.846 8.3615 36.9773 7.23671 36.4173 6.7793C36.4289 5.93571 35.6332 6.13067 35.1774 5.89072C35.2122 5.09212 36.1817 5.4558 36.4134 4.9234C36.3555 4.61596 36.0774 4.406 36.0156 4.09481C36.1469 3.8661 36.2782 3.6374 36.4096 3.41244C39.0515 3.20998 41.3767 4.75843 42.5972 7.5254C42.126 7.75411 42.4814 8.24152 42.2921 8.50397C42.0179 8.89014 41.3612 9.05136 41.508 9.67749C41.6973 10.4873 42.3075 9.49753 42.493 9.84246C42.659 10.1462 42.5895 10.5698 42.6243 10.941C41.2608 11.0797 41.6973 12.7257 40.6621 13.1381C39.7313 12.152 40.5965 11.0872 40.5076 10.0637C40.7008 8.81516 40.639 7.60789 39.8935 6.44936C40.3029 7.26295 40.9441 8.25651 40.3029 8.8564C39.6038 9.52002 38.6537 8.88639 37.9623 8.27901Z" fill="#D69590"/>
<path d="M41.0445 9.78247C40.9171 10.8998 40.7935 12.017 40.666 13.1343C40.4304 13.4905 40.2836 14.0117 39.9476 14.1766C38.9279 14.679 39.0283 15.7363 39.3489 16.2087C39.9244 17.0523 40.4574 15.9126 41.0561 15.7776L41.0522 15.7738C40.9402 17.1611 39.2601 17.0373 38.7386 18.0309C38.0086 17.7385 37.3559 17.8172 36.8113 18.4058C36.3014 18.3233 35.8959 18.0984 35.6448 17.6447C35.8109 16.2462 35.0461 15.5976 33.7213 15.4064C33.6247 14.7353 33.7251 14.1354 34.374 13.7417C35.8263 13.8767 36.1469 15.1964 37.0507 16.0513C36.1199 15.1664 35.9422 14.3116 36.9271 13.4268C37.2554 13.1306 37.4833 12.7294 37.4177 12.257C37.1009 10.0787 38.306 10.9635 39.2601 11.4097C39.8665 11.076 39.4995 10.4836 39.6965 10.0637C40.0055 9.37755 40.3956 8.93888 41.0445 9.78247Z" fill="#D08784"/>
<path d="M41.0561 15.7776C41.114 15.4439 40.9093 15.0202 41.3806 14.8365C41.4462 14.8103 41.6393 14.9152 41.6509 14.979C41.7475 15.4439 41.3806 15.6014 41.0484 15.7738C41.0522 15.7738 41.0561 15.7776 41.0561 15.7776Z" fill="#D2938B"/>
<path d="M37.0237 30.1523C37.1203 30.2611 37.3481 30.4148 37.4061 30.6172C37.4949 30.9059 37.2632 31.0972 36.9928 30.9772C36.8035 30.8947 36.6336 30.6547 36.5641 30.4485C36.5061 30.2648 36.6645 30.1148 37.0237 30.1523Z" fill="#DAA29C"/>
<path d="M30.2412 6.78305C29.9747 6.40062 29.7082 6.01819 29.4455 5.63577C29.4533 5.51579 29.4571 5.39581 29.4533 5.27583C30.2373 4.90466 30.9828 4.46599 31.9175 4.48099C32.5123 4.49223 33.281 4.09481 33.532 4.87466C33.7329 5.49329 33.026 5.75574 32.5587 6.04444C31.9175 6.68931 31.1643 6.98551 30.2412 6.78305Z" fill="#E7C1BC"/>
<path d="M23.3042 18.0421C23.8218 18.7133 24.3239 18.2071 24.8337 18.0271C24.6792 18.9007 24.6097 19.7406 23.7136 20.3667C23.4046 20.5804 23.2772 20.7679 22.8832 20.6854C22.1068 20.5279 22.7712 20.2205 22.7596 19.9693C22.7364 19.3169 22.6051 18.672 22.5201 18.0234C22.7789 18.0271 23.0416 18.0346 23.3042 18.0421Z" fill="#D5918C"/>
<path d="M27.016 20.1642C27.1165 19.6543 27.4139 19.1932 27.8156 19.4144C28.4142 19.7406 27.7924 19.9243 27.5413 20.078C27.4177 20.153 27.2246 20.1342 27.016 20.1642Z" fill="#DB9F9A"/>
<path d="M41.0445 9.78247C40.4961 9.53502 39.8781 9.50878 40.048 10.2586C40.2295 11.0647 40.3416 11.8446 39.5845 12.2383C38.6266 12.7332 38.8468 11.2259 38.0936 11.196C37.9777 11.1922 37.8618 11.211 37.5644 11.2297C38.109 12.1183 38.2751 12.9056 37.3404 13.678C36.004 14.7765 36.5332 15.4064 38.476 15.5301C37.5606 16.0475 36.9658 16.385 36.5138 16.6437C36.4945 15.5789 35.5135 14.7278 34.486 13.9029C33.8681 13.3705 33.0647 12.8719 34.1114 12.0245C34.5363 11.7846 34.9534 11.8296 35.3628 12.0695C36.2666 12.6019 36.6683 11.9383 36.8769 11.3272C36.9658 11.0722 37.2709 10.3861 36.6838 10.2324C35.7105 9.97744 36.0195 11.046 35.4169 11.5784C35.1079 10.4536 35.5251 9.80872 36.3902 9.49753C37.0855 9.24633 37.6378 8.92764 37.9661 8.28276C38.6884 8.42898 39.4146 8.5752 40.16 8.72518C40.6969 7.34919 39.1133 6.68556 38.8236 5.32832C40.8205 6.43061 40.975 8.0878 41.0445 9.78247Z" fill="#D48F8A"/>
<path d="M30.2412 6.78305C30.9133 6.24315 31.7862 6.28439 32.5587 6.04819C32.4274 6.41562 32.2999 6.7868 32.1686 7.15422C33.6556 7.2742 33.8874 8.20402 33.7097 9.40005C33.8217 9.78247 34.7448 9.93244 34.065 10.5436C33.7985 10.7835 33.3814 11.2447 33.2423 11.181C32.5741 10.8773 32.1956 10.2961 32.1531 9.54627C32.1493 9.49003 32.1184 9.3888 32.099 9.3888C31.9909 9.38505 31.8827 9.4038 31.7746 9.41504C31.0639 9.62875 30.5425 8.97263 29.8627 9.03262C29.6039 9.03262 29.3412 9.02887 29.0825 9.02887C29.0747 8.6127 29.9206 8.47022 29.4687 7.90783C29.7236 7.5329 29.9824 7.15798 30.2412 6.78305Z" fill="#D58E8B"/>
<path d="M34.1075 12.0245C33.6942 12.7519 34.3818 13.2731 34.4822 13.9029C33.9492 14.2704 34.0689 14.949 33.7136 15.4026C33.5822 15.4026 33.4509 15.4064 33.3196 15.4064C33.0878 14.6303 33.9492 13.7455 33.0492 12.9769C32.9565 12.8981 32.8986 11.4846 34.1075 12.0245Z" fill="#DC9E99"/>
<path d="M31.0098 13.9029C30.4652 13.633 29.9708 13.1381 30.3841 12.6469C31.1605 11.7321 30.218 11.6534 29.8472 11.2784C30.3416 11.106 30.697 10.4236 31.3729 10.9335C31.9948 11.4022 31.4154 11.8371 31.3613 12.2757C31.2995 12.8269 31.1334 13.363 31.0098 13.9029Z" fill="#D99892"/>
<path d="M33.7097 9.40005C33.3234 8.67643 33.7367 7.21796 32.0141 7.69412C31.8905 7.72787 31.9484 7.30795 32.1686 7.15798C33.8835 7.023 34.2852 7.60414 33.7097 9.40005Z" fill="#DE9F9A"/>
<path d="M36.4173 6.7793C35.9306 7.2742 35.8225 8.16278 34.8298 8.12904C35.386 7.70912 34.741 6.03319 36.4173 6.7793Z" fill="#D69590"/>
<path d="M29.8627 9.03262C30.6622 8.39899 31.1836 9.06636 31.7746 9.41504C30.7819 10.9522 30.4961 9.18259 29.8627 9.03262Z" fill="#DDA5A1"/>
<path d="M36.0156 4.09856C36.4829 4.22229 37.0507 4.30102 36.4134 4.92715C36.0465 4.87841 35.6178 4.84092 35.5135 4.45099C35.4362 4.1698 35.8032 4.16605 36.0156 4.09856Z" fill="#E5BDB8"/>
<path d="M31.0176 15.0427C30.8862 15.039 30.751 15.0315 30.6197 15.0277C30.751 14.6528 30.8824 14.2779 31.0098 13.9029C32.269 14.2779 31.5583 14.6603 31.0176 15.0427Z" fill="#DCA6A1"/>
<path d="M32.5625 16.1525C32.1724 16.2687 31.7823 16.7524 31.3922 16.1525C31.7823 15.6089 32.1724 14.9527 32.5625 16.1525Z" fill="#DEA39D"/>
<path d="M35.6409 17.6447C36.1971 17.656 36.5911 17.9034 36.8074 18.4058C36.0928 18.987 35.4169 19.6318 34.3354 19.7068C35.3783 19.3394 34.9534 18.1846 35.6409 17.6447Z" fill="#C37A76"/>
<path d="M32.9874 19.988C32.9217 20.3892 32.6282 20.2542 32.4312 20.2505C32.184 20.243 31.9214 20.1567 31.9214 19.8643C31.9175 19.6168 32.1029 19.3431 32.3462 19.4294C32.6012 19.5194 32.7866 19.8006 32.9874 19.988Z" fill="#C87E7A"/>
</svg>
