<svg width="45" height="33" viewBox="0 0 45 33" fill="none" xmlns="http://www.w3.org/2000/svg">
<path d="M36.2679 7.71181C36.345 7.81671 36.4221 7.9216 36.4993 8.02341C36.6875 8.30416 36.6844 8.54789 36.3759 8.74534C35.9038 8.67747 35.4256 8.48002 34.9906 8.85641C34.7654 8.97056 34.4816 8.98907 34.3643 9.25748C34.7993 9.71717 35.0523 10.4021 35.8514 10.3496C36.1969 10.1553 36.5733 9.88377 36.8818 10.3466C37.178 10.7939 36.8942 11.1888 36.6659 11.5714C36.5918 11.7657 36.5394 11.9663 36.4869 12.1637C36.8325 13.4472 36.78 14.7121 36.3296 15.9616C36.2987 16.1714 36.2154 16.3596 36.1105 16.5385C35.9625 16.8131 35.6786 17.0352 35.7773 17.4085C36.4283 18.0811 36.8942 18.621 35.4657 18.9881C34.5124 19.2349 33.9324 20.2777 32.9266 20.5585C32.5009 20.2592 32.0535 20.0587 31.5167 20.2469C31.2668 20.2407 31.0262 20.1698 30.767 20.1821C30.8904 20.8793 31.3594 21.3113 31.8993 21.6907C31.961 21.8265 31.9888 21.9653 31.9857 22.1165C31.9147 23.2117 31.6802 24.2083 30.4986 24.6525C30.3012 24.7574 30.0945 24.8345 29.8631 24.8284C29.2028 24.2422 27.9595 23.801 29.3849 22.7243C29.7057 22.4806 29.499 22.1936 29.3201 21.9314C28.5549 20.7899 28.6012 19.815 29.5391 18.8616C29.8199 18.5747 30.1747 18.3649 30.2981 17.9546C30.477 17.5011 31.0231 17.1278 30.5881 16.5478C30.2209 15.4587 30.4647 15.1101 31.7049 14.9805C31.9733 14.9527 32.3158 15.2427 32.4855 14.8108C32.541 14.672 32.5163 14.4745 32.396 14.3881C32.0196 14.1228 31.8962 14.5516 31.6679 14.6874C31.492 14.7923 31.7358 14.7213 31.5476 14.7738C30.2364 15.1378 29.7397 15.9307 30.1932 17.2512C30.2024 17.3962 30.1932 17.5381 30.1685 17.6769C29.5977 18.7197 29.1967 18.7598 27.6849 17.9299C27.5553 17.8651 27.4381 17.7757 27.2962 17.7325C27.3024 17.8003 27.3641 17.8497 27.4906 17.8836C29.135 19.2349 29.2491 19.5867 28.4778 21.4995C28.1816 22.2337 27.6047 21.9684 27.0895 21.7617C26.9476 21.8543 26.8519 21.99 26.7563 22.1227C27.7806 23.0698 27.7806 23.0698 27.1296 24.2175C26.9784 24.3749 26.8087 24.5075 26.6205 24.6186C26.2873 24.7667 25.9572 24.9641 25.5932 24.6957C25.2939 23.5912 24.2666 23.1346 23.4675 22.5885C22.9677 22.2461 21.9434 22.2183 21.6997 23.2704C21.5794 23.7887 21.3109 24.1774 20.8667 24.5631C20.7556 24.6032 21.1567 24.6988 21.0024 24.5661C20.9222 24.4983 20.9438 24.4427 21.0641 24.4335C21.9866 24.3687 23.0016 24.5075 23.2299 23.1871C23.27 22.9526 23.6495 22.9464 23.9087 23.0297C24.5165 23.2241 24.6399 23.6807 24.5596 24.2453C24.5442 24.5415 24.5257 24.8407 24.4918 25.1338C24.4208 25.6429 24.3005 26.1396 24.2388 26.6517C24.1709 27.2101 24.6368 28.04 23.8161 28.2591C23.0818 28.4565 22.2951 28.2529 21.8293 27.5001C21.7768 27.4107 21.8848 27.1793 21.7676 27.2101C21.6195 27.2502 21.6627 27.5063 21.5886 27.6637C21.4128 27.9969 21.169 28.2344 20.7803 28.2714C18.9076 27.315 18.8058 27.3397 17.618 28.9779C17.5038 29.0705 17.3743 29.1229 17.2293 29.1415C16.4765 28.9224 16.5042 28.401 16.7048 27.8087C16.5875 27.2718 16.0538 26.8152 16.5382 26.1643C16.9393 25.6274 16.4302 25.1369 16.2358 24.6464C16.1124 24.273 15.9983 23.8967 15.7669 23.5665C15.7144 23.437 15.7021 23.3043 15.7175 23.1655C15.7761 22.8138 15.8255 22.4466 15.6589 22.1258C15.2177 21.2557 15.2578 20.4999 16.0415 19.8304C16.424 19.5034 16.3253 18.9943 16.3963 18.5562C16.424 18.3433 16.4919 18.1459 16.6184 17.9731C17.3095 17.5844 17.5748 18.5932 18.1795 18.4451C18.1394 17.8435 17.4421 17.7602 17.2786 17.2697C17.402 16.702 17.7537 16.7606 18.161 16.9242C17.8247 16.6588 17.4144 16.4274 17.3064 15.9431C17.2107 15.6747 17.1367 15.4001 17.1645 15.1101C17.2786 14.5763 17.7599 14.2493 17.9975 13.6446C17.5254 14.0488 17.4391 14.5578 17.1367 14.925C16.4641 15.5698 16.1001 15.0021 15.7021 14.5609C15.7237 13.8667 16.1741 13.0893 15.3195 12.5586C15.3874 11.1703 16.1309 10.4946 17.5038 10.4761C17.6674 10.4854 17.8247 10.5224 17.9759 10.5779C18.2813 10.7229 18.4664 10.942 18.4078 11.303C18.1857 11.5745 17.9975 11.8953 17.4236 11.9632C17.8833 11.9447 18.0623 11.7812 18.2011 11.559C18.5281 11.2073 19.0403 11.2382 19.4074 10.9698C19.7653 10.8032 20.117 10.6057 20.5366 10.6612C20.6692 10.7044 20.768 10.7846 20.8327 10.9081C20.8574 11.2752 20.623 11.5251 20.4317 11.7935C20.3607 11.9046 20.2898 12.0156 20.225 12.1298C19.8794 12.8455 20.1417 13.6076 20.0491 14.3449C19.611 15.3692 19.1698 16.6928 20.2959 17.2172C21.2246 17.6492 22.11 16.6897 22.4895 15.6068C22.6376 15.1841 22.9214 14.7121 23.4798 14.8417C23.9858 14.9589 23.8963 15.4186 23.9148 15.8443C23.9457 16.5694 24.5874 17.0969 24.6769 17.825C24.6831 18.0441 24.5751 18.2261 24.4887 18.4143C24.6275 18.26 24.6892 18.0718 24.7108 17.8682C24.6399 17.6738 24.7571 17.9083 24.6831 17.717C23.8007 15.4093 23.8007 15.4371 26.383 15.4124C27.1697 15.4032 27.4967 14.817 27.5214 14.0704C27.4844 13.8791 27.4227 13.7001 27.3085 13.5397C26.9136 13.2867 26.4354 13.2867 26.0282 13.0738C25.0378 12.5494 24.8712 12.0002 25.4173 10.8834C24.5936 10.4545 23.2762 12.0311 22.7949 10.2787C22.7733 10.18 22.7857 10.0812 22.7764 9.98558C22.724 9.44568 23.6958 8.99833 22.9399 8.41214C22.3075 7.92469 21.8755 8.6713 21.3325 8.73609C20.9068 8.88109 20.7248 9.31302 20.37 9.54749C20.1849 9.62153 19.9226 9.76345 19.8208 9.56909C19.2069 8.41831 18.3924 7.2984 18.9539 5.86996C19.5 5.7774 19.6326 6.32348 19.9843 6.53327C20.3638 6.86956 20.7248 6.97754 21.0487 6.46231C21.6997 6.48082 22.1686 6.31114 22.0298 5.51825C21.5177 5.30229 20.9068 5.12026 21.2678 4.37056C21.5362 3.80597 21.9866 3.53139 22.6222 3.83683C23.6526 4.32737 24.6861 3.99725 25.7197 3.86459C25.9449 3.843 26.1454 3.89853 26.3089 4.06513C26.2287 5.28069 24.9299 5.62931 24.4949 6.70913C25.2199 6.95286 25.732 7.42489 25.5068 8.30416C25.55 8.34427 25.5006 8.19001 25.5592 8.15299C27.361 7.06701 25.9665 5.4041 26.3059 4.05896C26.2349 3.97566 26.2071 3.88927 26.2164 3.79672C26.2256 3.70108 26.2411 3.6548 26.2596 3.6548C26.5928 3.2599 27.0154 3.26607 27.3116 3.60544C27.9533 4.33971 28.9406 4.62663 29.5422 5.39793C29.7119 6.0489 29.4836 6.41295 28.7925 6.4438C28.5981 6.51785 28.4716 6.14145 28.2588 6.36359C28.3729 6.55795 28.484 6.74306 28.5704 6.9436C28.6197 7.06084 28.6506 7.17807 28.6691 7.30457C28.703 7.76426 28.3482 8.09746 28.2773 8.52013C28.2588 8.77003 28.3637 8.97365 28.5334 9.14642C29.3448 9.58143 30.3104 9.39015 31.128 9.78505C31.2514 9.76345 31.3748 9.7542 31.4951 9.7542C31.7419 9.76037 31.9764 9.72026 32.1739 9.55675C32.7107 8.86258 31.9301 8.65896 31.6926 8.25789C31.0539 7.6933 30.9028 6.97754 31.0447 6.17231C31.0478 6.03347 31.0694 5.89772 31.1002 5.76198C31.2606 5.31154 31.3594 4.7994 32.0134 4.83642C32.1492 4.87345 32.2387 4.95983 32.288 5.08632C32.325 5.40718 32.3065 5.73421 32.3775 6.05507C32.4238 6.44072 32.2911 6.89424 32.7816 7.10711C33.8861 7.64085 35.1449 7.29222 36.2679 7.71181Z" fill="#E94C1C"/>
<path d="M27.824 17.6368C28.5521 18.1366 29.2772 18.405 30.0022 17.6306C30.1688 17.8096 30.394 17.8589 30.6161 17.9237C30.6871 19.0591 29.1969 19.1547 29.0797 20.3147C29.0242 20.8732 28.7311 21.1539 29.4222 21.3946C30.0639 21.6167 30.1626 22.28 30.1564 22.786C30.1472 23.4678 29.3882 22.9988 28.9347 23.3783C29.2802 23.8164 29.6381 24.2699 29.9929 24.7235C30.1441 24.8438 30.0793 25.0628 30.2089 25.1924C30.4187 24.9456 30.4063 24.671 30.3076 24.3841C31.6589 24.1219 31.2979 22.7366 31.8841 21.9715L31.8749 21.9807C30.5976 21.9221 30.758 20.4783 29.5702 19.9476C30.4927 19.781 31.045 19.6082 31.5448 20.1019C31.8625 20.577 32.3808 20.2469 32.7788 20.4073C33.7723 19.5249 34.7287 18.587 36.2311 18.4112C35.9782 17.9793 35.1482 17.9762 35.2717 17.2666C35.5493 17.0475 35.8424 16.8624 36.1941 16.7853C36.4934 16.6835 37.0271 16.9426 37.0549 16.4552C37.0981 15.7117 36.4132 16.3565 36.1694 16.088C36.1262 15.9955 36.0275 15.8844 36.0522 15.8166C36.4564 14.5763 36.2527 13.3176 36.1818 12.0619C36.7063 12.1051 36.5427 11.5498 36.7957 11.3554C37.4806 11.3986 37.8509 10.1398 38.7055 10.8864C39.122 11.5374 39.557 10.4329 39.9766 10.8926C40.0568 11.2258 39.992 11.5775 40.1 11.9076C39.8439 12.4691 40.4393 12.7036 40.5658 13.117C40.4393 13.5459 40.0938 13.5891 39.7297 13.6014C39.4428 13.5829 39.1775 13.4934 38.9338 13.3392C38.8535 13.2898 38.7764 13.2373 38.69 13.1972C38.7024 13.3083 38.7826 13.3978 38.7857 13.515C38.6808 14.4714 38.5882 15.4186 39.9858 15.434C40.2943 15.7826 40.4578 16.1744 40.3313 16.6465C39.7174 17.3159 39.6403 18.5408 38.3723 18.5747C38.3537 18.5747 38.6314 18.6827 38.7486 18.7783C39.3102 18.8647 39.7791 19.1917 40.3128 19.346C40.5195 19.4447 40.646 19.6082 40.6954 19.8304C40.754 20.5369 40.1617 20.796 39.7698 21.194C39.449 21.4994 39.0788 21.7123 38.6407 21.8018C38.289 21.953 37.9342 21.99 37.5732 21.8419C37.4436 21.774 37.3511 21.6691 37.2986 21.5303C37.2955 20.8639 37.7892 20.0247 36.6723 19.7471C34.9971 18.8555 35.5216 20.2962 35.3488 20.9935C34.7595 21.4377 33.9358 21.4717 33.3835 22.0733C33.8895 22.7613 34.7194 22.4929 35.3056 22.8292C35.5432 22.9834 35.4352 23.5172 35.9319 23.3845C36.3854 23.295 37.0641 24.2298 37.2708 23.0791C37.7213 22.644 38.11 22.1412 38.6746 21.8296C38.9492 21.7648 39.2145 21.6321 39.5107 21.6907C39.9457 21.7864 40.2542 22.1165 40.646 22.2893C40.9021 22.4373 41.1335 22.6163 41.2569 22.897C41.3217 23.1161 41.3032 23.329 41.1952 23.5295C40.7201 24.0632 40.4177 24.8993 39.3965 24.273C39.088 24.0848 38.7918 24.5383 38.6684 24.8962C38.5265 25.3096 38.6777 25.8496 38.144 26.0902C37.857 26.1673 37.5825 26.0902 37.3048 26.0254C37.2061 26.0131 37.1042 25.9853 37.0024 25.9915C36.2034 26.0316 35.4845 26.3956 35.6049 27.2225C35.719 28.003 36.4965 28.0555 37.1968 27.8457C37.5084 27.6883 37.7676 27.4199 38.1409 27.4014C38.3723 27.4878 38.5111 27.6174 38.3692 27.8796C37.8416 28.9471 36.7741 29.4129 35.8671 28.9995C34.5281 28.3887 33.3743 28.8761 32.1433 29.0365C31.5602 28.7157 31.5787 28.5738 32.2883 27.9907C32.4672 27.9166 32.6523 27.9259 32.8405 27.9197C32.9115 27.9166 32.8868 27.8056 32.7819 27.8025C32.4919 27.7932 32.2142 27.787 32.0168 28.0524C31.338 29.1877 30.9524 28.6725 30.6099 27.8117C30.4433 27.3921 30.2613 26.88 29.6751 27.062C29.0674 27.2502 29.0057 27.7408 29.2525 28.2807C29.4036 28.583 29.5548 28.8823 29.7554 29.1569C29.9837 29.7122 31.0079 29.4438 30.9462 30.2984C30.9308 30.3724 30.9185 30.4465 30.9061 30.5174C30.1101 30.9154 29.0612 30.6717 28.4287 31.4831C28.2251 31.588 28.0184 31.6929 27.8148 31.7947C27.3397 32.0878 26.8491 31.9644 26.2691 31.8441C26.4172 30.5699 28.6725 30.9709 28.2405 29.3821C28.222 29.6104 28.2282 29.8819 28.0832 30.1256C27.8919 30.4496 27.6482 30.7303 27.2471 30.6933C26.7473 30.647 26.7442 30.2675 26.8214 29.8911C26.9139 29.4407 26.7411 29.2062 26.2876 29.1723C25.8835 29.1291 25.7539 29.4376 25.5996 29.7153C25.0597 29.8603 25.0751 30.7797 24.3285 30.6347C22.5854 31.733 22.1535 31.696 21.0243 30.3508C20.3055 29.6783 20.0093 28.9532 20.7497 28.1017C21.0428 27.9845 21.2495 27.7778 21.3668 27.4847C21.5395 27.3119 21.6383 26.9911 21.9869 27.1823C22.3448 27.9135 23.1623 27.713 23.8781 28.293C23.8534 27.0312 23.7177 25.9822 24.1465 25.0135C24.3655 24.8901 24.5352 25.0073 24.708 25.1214C25.1368 25.4639 25.7508 25.5071 26.1056 25.9575C26.3123 26.0624 26.3771 25.9143 26.4388 25.7539C26.5992 25.1955 27.2594 24.7882 26.9201 24.091C27.2471 23.4616 27.9783 22.8754 26.4635 22.6255C25.3775 22.4466 26.6239 22.1813 26.627 21.9098C26.8769 21.7247 26.8368 21.5365 26.6301 21.3483C26.6949 21.2711 26.8028 21.1231 26.8152 21.1323C28.6539 22.2491 28.2899 20.216 28.5367 19.6885C28.9409 18.8184 27.605 18.6117 27.2286 17.9484C27.3366 17.6923 27.6636 17.8157 27.824 17.6368Z" fill="#EA561C"/>
<path d="M22.9092 10.2291C23.3844 10.4944 23.7114 11.3521 24.4426 10.4728C24.7943 10.0501 25.399 10.118 25.797 10.5684C26.2721 11.1052 26.016 11.241 25.4483 11.602C24.9825 11.8981 25.6335 12.3948 26.0191 12.7188C26.5528 13.1661 27.3735 12.725 27.8239 13.3543C27.6512 13.5179 27.4167 13.5703 27.2162 13.6845C27.392 13.8356 27.6481 13.7585 27.827 13.9004C28.407 14.8661 27.4537 15.2332 27.0403 15.7608C26.6546 16.2544 26.161 16.1372 25.7661 15.6405C25.3064 15.0635 25.0318 15.8317 24.6246 15.8626C24.0353 15.9058 24.5074 16.3932 24.5907 16.6709C24.7202 17.1059 24.8992 17.5255 25.0596 17.9513C24.856 18.1086 24.6524 18.1333 24.4518 17.9451C24.2112 16.9547 23.2147 16.2236 23.6157 15.0203C22.863 15.1191 22.6902 15.6806 22.6902 16.0384C22.6871 17.5594 21.0211 17.2232 20.4658 18.1148C20.3732 18.2629 20.0277 17.9759 19.8919 17.7476C19.207 16.5907 18.7751 15.4276 19.8271 14.2367C20.1665 14.0269 20.5028 14.1781 20.8391 14.249C19.8734 13.5734 19.8734 13.5734 20.1326 11.7716C20.7404 11.3243 21.2278 11.1855 21.308 12.2036C21.3265 12.4535 21.379 12.7712 21.7461 12.5923C22.0762 12.4319 22.1287 12.1234 21.8603 11.858C21.5024 11.5094 21.0766 11.2317 20.7496 10.8492C20.148 10.1889 19.8827 10.8769 19.5155 11.1577C19.1885 11.5989 18.7874 11.7346 18.2815 11.4631C18.2753 11.2009 18.2105 10.9695 17.9544 10.8368C17.8094 10.4358 18.229 9.74776 17.3868 9.70457C17.3621 9.96373 17.6367 9.77861 17.6953 9.91436C17.9421 10.2291 17.8927 10.5345 17.6799 10.8399C16.3131 10.7073 15.7331 11.4971 15.5048 12.6972C14.9834 13.1229 14.0887 12.3085 13.7247 13.234C13.7617 13.4284 13.8203 13.6135 13.8481 13.8079C13.8326 14.2922 13.6167 14.5977 13.1107 14.6563C12.4968 14.2799 11.963 14.283 11.5743 14.9771C11.3768 15.1962 11.1424 15.3504 10.8339 15.3443C10.6889 15.3196 10.5654 15.2579 10.4544 15.1623C10.186 14.7211 10.1088 14.2398 10.1366 13.7338C10.2508 13.3944 10.5192 13.1661 10.732 12.8946C10.8678 12.7404 11.019 12.6108 11.1979 12.5121C11.5311 12.3023 12.0648 12.29 12.0001 11.6914C11.2812 11.6081 10.6796 11.2225 10.0441 10.9386C9.44244 11.0127 9.39308 11.966 8.64955 11.8087C8.01709 11.1855 8.48604 10.6425 8.77296 10.0871C9.19254 8.65561 9.73862 8.29773 11.1578 8.52295C11.3244 8.64327 11.3367 8.91785 11.5866 8.96104C11.5033 8.90242 11.4416 8.8253 11.3954 8.72349C11.1979 8.22677 11.4787 7.94293 11.8335 7.68687C11.9476 7.60357 12.071 7.53261 12.1944 7.46782C12.8701 7.11302 13.592 6.79216 13.4131 5.81416C13.3359 5.63214 13.2619 5.44703 13.2249 5.24958C13.2002 4.94106 13.518 4.82999 13.6136 4.59243C13.9159 4.10189 14.2183 3.60826 14.5237 3.11772C15.3752 3.22878 14.931 3.87359 15.0143 4.29934C14.8261 4.77137 15.1315 4.76212 15.4524 4.73435C15.8133 4.71275 16.1836 4.77137 16.4088 5.0367C17.0073 5.74937 17.4053 5.22181 17.8434 4.86084C18.5036 5.19404 18.7165 4.6819 18.9818 4.25923C19.5433 4.04944 20.0431 4.17593 20.1418 4.77754C20.2436 5.40383 19.7901 5.76171 19.2009 5.91906C18.9201 7.08526 19.6143 9.01349 20.4226 9.31275C20.6386 9.29733 20.8329 9.35903 21.0211 9.46084C21.5734 9.89894 22.3971 9.69223 22.9092 10.2291Z" fill="#E9531E"/>
<path d="M19.207 5.91008C19.318 5.36092 21.092 4.50016 18.92 4.38292C18.8768 4.33047 18.8336 4.27802 18.7905 4.22558C18.6732 3.90163 18.5128 3.60546 18.2567 3.3679C18.0562 3.07789 17.4823 3.04395 17.652 2.49788C18.411 2.04744 19.281 1.74201 19.5741 0.745496C19.6451 0.501767 19.9937 0.301231 20.2559 0.159312C21.1167 -0.31272 25.6241 0.341338 26.2874 1.11263C26.7656 1.67105 27.0834 1.74509 27.8023 1.46743C29.2245 0.915181 30.7239 1.78212 30.9461 3.22906C31.1219 4.37058 31.5847 4.7624 32.6738 4.33356C33.5931 3.96951 34.3614 4.13919 34.9383 4.98145C34.8365 5.09868 34.7161 5.18507 34.5681 5.23752C33.7597 5.21592 32.9267 5.44422 32.1647 4.98762C31.489 4.929 31.6433 5.70338 31.233 5.91317C30.9275 5.7188 30.8319 5.31156 30.474 5.17273C30.1563 5.11719 29.8755 5.28071 29.5732 5.30539C29.5084 5.3023 29.4467 5.3023 29.3819 5.29922C28.5427 5.11719 27.7899 4.80559 27.3086 4.02813C27.0742 3.64865 26.7471 3.48205 26.3183 3.75972C25.8 3.19513 25.9573 4.08983 25.6827 4.05589C24.7664 4.89506 23.699 4.65442 22.7271 4.30888C22.144 4.10217 21.635 3.83993 21.4591 4.58654C21.2092 5.66327 22.3662 4.31813 22.4094 5.06475C22.4125 5.14496 22.5297 5.22209 22.5945 5.29922C22.1687 5.94094 21.6041 6.35126 20.8112 6.39137C20.7033 6.65361 20.2837 5.70029 20.2929 6.53021C20.296 6.7801 20.1387 6.98064 19.8178 6.83872C19.4137 6.66287 19.207 6.35435 19.207 5.91008Z" fill="#EB5C1F"/>
<path d="M1.27593 20.617C1.71402 19.9567 1.80041 19.4539 1.08465 18.7905C-0.454857 17.359 -0.328365 15.98 1.29135 14.533C1.70477 14.2152 2.18914 14.1011 2.47915 14.5855C2.71979 14.9896 2.18605 15.15 1.95467 15.3753C1.28827 16.0201 0.773043 16.6834 1.46412 17.6182C1.95775 18.0532 2.45755 18.3062 2.99746 17.6861C3.48183 17.0629 3.67928 16.3378 3.23193 15.6838C2.63032 14.8045 2.70745 13.9622 3.05299 13.0614C3.28438 12.8084 3.51577 12.938 3.74407 13.0614C3.81503 13.1231 3.95078 13.2064 3.99397 13.1632C4.14823 13.0028 3.93535 12.938 3.86748 12.8331C3.66694 12.6757 3.45098 12.5369 3.38002 12.2716C3.64226 11.889 4.00631 11.5681 4.08961 11.0776C4.23461 11.0437 4.36728 11.0653 4.49377 11.1424C5.50879 12.0988 6.80765 12.8855 6.23689 14.678C6.12891 15.0205 6.78605 15.3537 7.0051 15.7547C7.08532 15.9645 7.08223 16.1712 6.98659 16.3749C6.92489 16.634 5.92529 16.4458 6.65648 17.1122C6.97734 17.4053 7.36607 17.6429 7.60671 18.0193C7.69618 18.5468 8.17747 18.3926 8.49524 18.5252C8.76674 18.8337 8.98887 19.1762 9.15856 19.5495C9.15856 20.2005 9.19866 20.8638 8.67418 21.3296C7.9214 21.2155 8.1713 20.0277 7.32288 20.2221C6.77371 20.3486 7.00202 20.8916 6.93106 21.2679C6.60094 21.4963 6.30785 21.7523 6.3603 22.3015C6.39424 21.8202 6.56392 21.5024 6.90329 21.2865C7.20872 21.0983 7.43086 21.2032 7.59746 21.4901C7.49256 22.1626 8.2546 22.536 8.18673 23.1962C7.7764 23.9459 6.5269 23.9459 6.53307 25.0627C6.60711 25.5471 6.57009 26.0407 6.73052 26.5066C6.80457 26.6146 6.87244 26.7287 6.94957 26.8336C7.06989 27.0218 7.30745 27.1946 7.16553 27.4476C7.02053 27.7067 6.79531 27.6728 6.58243 27.5C5.74635 27.318 5.40698 26.7503 5.37304 25.9451C4.96889 25.615 5.10463 25.0349 4.7776 24.6709L4.76835 24.674C4.48143 24.5753 4.25312 24.4087 4.12972 24.1217C3.94769 23.6929 3.91375 23.2425 4.00939 22.7982C4.20068 21.885 4.02482 21.1291 3.23193 20.5491C2.73213 20.185 2.655 19.7531 3.19182 19.3397C3.26895 19.3212 3.33683 19.2441 3.28746 19.1824C3.15789 19.025 3.40161 19.2009 3.18257 19.207C2.33414 19.423 2.88022 20.4041 2.30946 20.7681C2.21691 20.8761 2.1151 20.9779 2.0102 21.0736C1.81275 21.2186 1.62764 21.4747 1.34997 21.3019C1.05996 21.126 1.21114 20.8545 1.27593 20.617Z" fill="#EB6021"/>
<path d="M41.1056 23.4923C41.1056 23.2949 41.1026 23.1005 41.1026 22.9031C40.9853 22.6501 40.9205 22.3045 40.5071 22.5544C40.0135 22.6223 39.8777 22.1256 39.5445 21.9405C39.307 21.6258 39.3409 21.3204 39.5661 21.018C39.7019 20.4812 40.5225 20.4565 40.4917 19.7932C40.8743 19.1268 41.4481 18.6702 42.1238 18.3308C42.1669 18.3092 42.2225 18.3061 42.2626 18.2784C42.5341 18.0809 42.2071 18.1395 42.1639 18.0717C40.7694 17.7539 40.5843 16.3841 39.8716 15.477C39.5291 15.511 39.1805 15.5943 38.8411 15.5696C38.4462 15.5418 37.6225 15.7825 38.2981 14.8507C38.6097 14.4219 38.2087 13.7617 38.6437 13.3143C38.9522 13.0984 39.2576 13.6444 39.5631 13.3174C39.9055 13.302 40.2788 13.376 40.4855 12.9842C40.2264 12.7467 40.0042 12.4844 39.8963 12.142C39.8901 11.71 39.8808 11.2812 39.8747 10.8493C39.8222 10.5562 39.9148 10.4266 40.2233 10.5253C39.887 11.5527 41.0038 11.7625 41.2568 12.3857C41.6085 13.2526 42.0003 13.5673 42.892 13.3853C43.0925 13.3452 43.3455 13.5488 43.5738 13.6414C43.5244 14.57 42.3274 14.243 42.1083 14.9865C42.0559 15.1099 41.9942 15.2271 41.9325 15.3413C42.133 16.1774 42.6945 16.6463 43.4812 16.8839C44.0952 16.2051 43.5614 15.2271 44.1075 14.5361C44.2371 14.4373 44.3667 14.4373 44.4963 14.5361C45.1781 15.6375 45.1843 16.745 44.2926 17.6953C43.8761 18.1395 43.9224 18.4296 44.2124 18.8306C44.0551 19.4909 43.8607 20.1511 43.472 20.7064C42.8303 21.6227 42.5835 22.2089 42.6729 22.9185C42.5433 23.0018 42.4169 23.082 42.2873 23.1653C41.9171 23.3566 41.5592 23.6003 41.1056 23.4923Z" fill="#EC6321"/>
<path d="M16.421 24.3906C16.782 25.1033 17.726 25.7049 16.7203 26.6428C16.35 26.9883 16.7604 27.0994 17.072 27.195C17.763 27.4048 17.3805 27.6146 17.0534 27.812C16.5536 27.7874 16.2698 28.2563 15.8255 28.3581C15.5479 28.4507 15.1653 28.355 15.0913 28.787C15.1252 29.3145 15.7762 29.2775 15.9181 29.7002C15.19 30.8417 14.7427 29.9377 14.2367 29.4688C14.1441 29.1109 13.3358 29.1726 13.6906 28.5494C14.0948 27.7164 13.814 26.9328 13.5024 26.1553C13.4561 25.6771 13.2525 25.4149 12.728 25.5784C12.1974 25.6678 11.6822 25.853 11.1392 25.8622C11.0003 25.8468 10.8708 25.8067 10.7443 25.7511C10.3648 25.4766 9.87116 25.2976 9.87116 24.7084C10.0563 24.3073 9.78786 24.0975 9.51945 23.8877C9.10295 23.3324 9.21093 22.8603 9.90509 22.8387C10.5437 22.8202 11.315 21.9409 11.858 23.0917C12.617 24.6991 12.6509 24.6837 13.6937 23.2984C14.4804 22.2556 15.0851 23.5977 15.807 23.4558L15.8101 23.4835C15.878 23.8784 16.2112 24.0944 16.421 24.3906Z" fill="#EA5B1F"/>
<path d="M15.915 29.7032C15.4861 29.4749 14.5791 29.7618 14.8814 28.7437C15.0974 28.3982 15.6897 28.6141 15.807 28.1267C16.1895 27.9015 16.424 27.087 17.0472 27.8151C16.7233 28.3334 16.7048 28.7777 17.3588 29.0522C17.5902 29.5273 17.945 29.8821 18.3245 30.1012C18.559 30.277 18.4911 29.8482 18.4417 30.0487C18.4263 30.1135 18.3831 30.095 18.2936 30.0457C17.871 29.8174 17.6025 29.4471 17.3588 29.0522C18.1887 26.9296 19.3889 26.5995 20.7463 28.1205C20.6908 28.8887 20.6846 29.6477 21.0209 30.3665C19.6604 30.9465 18.2782 31.8813 17.0534 30.1382C16.9948 30.0549 16.9392 29.9716 16.8837 29.8883C16.6245 29.5027 16.2482 29.7279 15.915 29.7032Z" fill="#EC6A23"/>
<path d="M13.9652 28.7343C13.6505 29.1261 14.3786 29.1385 14.2336 29.4717C12.9687 30.0671 11.7038 30.7767 10.4697 29.4131C10.5437 29.1848 10.7597 29.12 10.9356 29.0089C11.4045 28.9441 11.821 29.228 12.2869 29.2033C12.4905 29.2403 12.3887 29.157 12.3455 29.1663C11.8549 29.2804 11.4045 28.8392 10.8924 29.0367C10.6147 29.1477 10.337 29.0614 10.2661 28.8115C10.0871 28.1821 10.0223 29.0058 9.89894 28.8238C9.60276 28.5646 9.58733 28.2222 9.6151 27.8674C9.60893 27.7872 9.60276 27.7101 9.59659 27.6298C9.77244 25.9052 9.84649 25.7911 10.8769 25.6492H10.8739C11.2009 25.9361 10.9911 26.3372 11.0898 26.658C11.3737 26.5439 11.2163 26.2323 11.3675 26.0595C11.9413 25.4887 12.6478 25.4671 13.1661 25.9546C13.9436 26.6858 14.3694 27.6206 13.9652 28.7343Z" fill="#ED6A23"/>
<path d="M3.53124 19.4479C3.31219 19.6021 2.80622 19.8335 3.18879 20.0464C4.63573 20.8547 4.56786 22.0518 4.27785 23.3846C4.22849 23.6098 4.3519 23.8751 4.39817 24.1188C3.67933 24.27 2.96048 24.452 2.27249 24.0201C1.07235 23.1408 0.334996 22.1227 1.27906 20.6172C1.35927 21.5581 1.70481 20.7714 1.93929 20.719C2.56866 20.1945 1.93003 18.6087 3.49422 18.8679C3.66699 19.0499 3.6639 19.2443 3.53124 19.4479Z" fill="#ED6F26"/>
<path d="M4.40134 11.1581C4.29953 11.155 4.19772 11.155 4.09591 11.1519C3.97558 11.0902 3.8676 11.01 3.77813 10.9082C3.50047 10.5719 3.47887 10.2356 3.78122 9.90242C3.99718 9.22985 3.99101 8.36909 5.0554 8.43079C6.02414 8.44622 7.12555 7.9711 7.75184 9.20517C8.3226 10.3251 8.19611 11.4851 7.42173 11.9571C6.45607 12.5464 5.21274 12.2194 4.40134 11.1581Z" fill="#ED6F27"/>
<path d="M6.57011 27.5034C7.56354 27.306 6.32946 27.0715 6.57936 26.8648C6.65032 26.7969 6.72745 26.7352 6.80767 26.6766C6.72437 26.7291 6.65032 26.7938 6.58245 26.8648C5.97158 26.3465 6.36032 25.6492 6.25234 25.0384C6.84469 24.1437 7.4247 23.1441 8.74516 23.7827C9.7972 24.2918 10.0996 25.856 9.50103 27.2103C9.30666 27.4788 8.84388 27.4325 8.7575 27.8366C7.93376 28.3395 7.22417 28.1143 6.57011 27.5034Z" fill="#EE7425"/>
<path d="M41.1056 23.4923C41.5005 23.3843 41.8924 23.2763 42.2873 23.1684C41.9911 23.5293 41.6795 23.7576 41.8245 24.424C42.1084 25.7198 41.189 26.9199 39.958 26.7934C38.9152 26.6855 38.6746 27.1945 38.3753 27.8887C38.2642 27.7653 38.1562 27.6419 38.0452 27.5215C37.5639 27.0094 37.5886 26.4911 38.0205 25.9666C38.7239 25.5501 37.6441 24.5567 38.653 24.1525C39.1281 23.9613 39.3471 22.9647 39.958 24.0785C40.2449 24.603 40.3467 24.1248 40.3868 23.8132C40.4454 23.3288 40.8465 23.5571 41.1056 23.4923Z" fill="#ED6B26"/>
<path d="M17.652 2.49788C17.9605 2.72001 18.2722 2.93889 18.5807 3.16103C18.3987 3.46337 18.627 3.81508 18.4727 4.1236C18.374 4.45063 18.2537 4.76223 17.9698 4.98128C17.5842 5.95311 17.1862 6.7892 16.2792 5.32682C16.0509 4.9566 15.5912 4.98128 15.1901 4.97203C14.9248 4.85787 14.7304 4.70978 14.8939 4.38276C14.7736 3.957 14.6502 3.53433 14.5299 3.10858C15.3012 1.52897 16.6277 2.78788 17.652 2.49788Z" fill="#EE712E"/>
<path d="M26.2226 28.7803C27.2747 28.8913 27.9349 29.2276 26.7378 30.7116C28.3637 29.9927 27.8824 29.0949 27.3395 27.901C29.1412 29.6534 28.9499 30.2118 26.4046 31.7266C27.0001 31.7605 27.4073 31.7852 27.8146 31.8099C26.2504 32.6367 25.1829 31.9672 24.3283 30.653C24.7078 30.3043 24.751 29.6132 25.4297 29.5701C25.692 29.3016 25.9635 29.0456 26.2226 28.7803Z" fill="#EE7429"/>
<path d="M11.1425 8.68386C9.88679 8.47407 9.30678 9.16823 9.02911 10.2666C8.98283 10.2295 8.93347 10.1925 8.88411 10.1555C8.72368 9.89016 8.43676 9.74825 8.23622 9.51686C8.06345 9.2176 7.9493 8.89674 7.89994 8.55428C7.85366 7.7398 8.51389 7.67501 9.04454 7.47139L9.03837 7.47447C9.81583 7.40968 9.90222 6.82041 9.9886 6.23114C10.6519 4.47259 12.0156 4.26589 13.6199 4.58366C13.5273 4.82122 13.4347 5.05569 13.3453 5.29325C12.8362 5.5524 12.1729 5.25623 11.7256 5.74369C11.5806 5.87018 11.4417 5.99976 11.3245 6.15093C10.9049 7.02403 11.7657 7.27085 12.1143 7.76448C11.9477 8.08225 11.4602 8.18098 11.5127 8.64684C11.4047 8.80418 11.2813 8.81961 11.1425 8.68386Z" fill="#EC6729"/>
<path d="M42.6727 22.9219C42.7313 22.0951 41.6145 22.3913 41.5188 21.7125C42.3734 21.0523 43.8512 20.9042 43.3977 19.195C43.2774 18.7477 44.0579 19.2505 44.2153 18.834C45.3167 19.5467 45.0082 20.6543 44.7737 21.5583C44.5331 22.4776 43.7062 22.9744 42.6727 22.9219Z" fill="#EE7628"/>
<path d="M1.31603 17.9391C0.297923 16.7081 0.58793 15.6931 2.25084 14.7089C1.97009 14.4035 1.59678 14.6256 1.28827 14.5331C1.29752 14.4498 1.30986 14.3634 1.32837 14.2801C1.84977 13.8759 2.96969 14.1844 2.84011 13.009C2.95118 12.7869 3.06533 12.5616 3.17639 12.3395C3.2165 12.3889 3.25661 12.4351 3.2998 12.4845C3.38002 12.6727 3.37385 12.8486 3.22884 13.0059C3.2165 13.9222 2.85554 14.7922 3.70396 15.6993C4.13897 16.1651 4.10195 17.3622 3.16714 17.9391C3.09926 17.9175 3.03139 17.8959 2.96352 17.8743C2.63649 17.7293 2.33106 17.5535 2.04105 17.3437C1.40859 16.8901 1.5937 17.5596 1.44869 17.7787C1.4055 17.8342 1.35922 17.8867 1.31603 17.9391Z" fill="#EF7928"/>
<path d="M38.6405 11.1517C38.4924 10.9172 38.0574 10.8216 38.0543 10.9142C38.0142 12.0896 37.2337 11.4417 36.74 11.4787C36.5549 11.6453 36.3698 11.6392 36.1847 11.4787C36.3174 11.127 37.0362 10.9573 36.666 10.5007C36.2587 9.99786 36.1785 10.8093 35.8669 10.8432C35.1728 10.1984 34.5372 9.4888 33.7104 8.99826C34.0282 8.53857 34.5125 8.72985 34.9352 8.68357C35.3486 8.48612 35.762 8.59719 36.1754 8.68049C36.4315 8.53548 36.4655 8.27941 36.4963 8.02026C36.6938 8.1375 36.8943 8.25473 37.0917 8.37197C38.1006 8.24856 38.1222 8.25165 37.9864 9.08464C37.8785 9.7603 38.4307 9.61221 38.7485 9.72636C39.1033 9.84977 39.4642 9.95466 39.384 10.4174C39.3192 10.8154 39.2174 11.2504 38.6405 11.1517Z" fill="#EB5F1E"/>
<path d="M29.0796 28.4286C28.6507 28.1848 28.2003 27.7992 28.6538 27.3796C29.0055 27.0526 29.2153 26.3553 29.9465 26.525C30.4216 26.6361 30.8474 26.7872 30.906 27.3457C30.9492 27.7621 31.0541 28.1447 31.3287 28.4995C31.5014 28.2619 31.6711 28.0336 31.8408 27.8023C32.1154 27.7961 32.3468 27.8794 32.4856 28.1355C32.4301 28.4594 31.5446 28.4779 32.1524 29.0456C31.9426 29.6503 31.5878 30.11 30.9523 30.3105C30.582 29.7459 29.6071 30.1686 29.3912 29.351C30.1902 28.7402 29.2801 28.7031 29.0796 28.4286Z" fill="#ED6C24"/>
<path d="M32.1648 4.9844C32.9885 4.79929 33.8092 4.80238 34.6329 4.98749C34.7872 5.14483 34.8859 5.32686 34.9075 5.54591C34.926 5.79889 34.8211 6.01794 34.7347 6.24624C34.6638 6.43752 34.6237 6.19996 34.7039 6.37273C34.744 6.45603 34.7317 6.23699 34.8119 6.19688C34.9291 5.96549 35.0062 5.71251 35.2623 5.59218C35.8608 6.1722 35.0679 7.41552 36.2712 7.7117C34.9939 7.82277 33.7135 7.95543 32.4764 7.45255C32.0568 6.98977 32.5504 6.45912 32.3684 5.97783C32.4239 5.71559 32.282 5.50888 32.1679 5.29292C32.1648 5.19111 32.1648 5.08621 32.1648 4.9844Z" fill="#EC6926"/>
<path d="M38.6405 11.1517C39.5259 10.402 39.1556 10.1613 38.2332 10.007C37.8568 9.94223 37.2089 10.1088 37.1565 9.4486C37.1133 8.89635 37.6007 8.72975 38.1036 8.62794C37.7673 8.2423 37.4002 8.46443 37.0947 8.37804C39.0322 7.69622 40.1429 8.45826 40.2231 10.5284C40.1059 10.6364 39.9917 10.7444 39.8745 10.8524C39.6092 11.13 39.387 11.5126 39.0631 11.6607C38.7052 11.8211 38.1623 11.8366 38.6405 11.1517Z" fill="#EE722B"/>
<path d="M41.7781 14.9374C41.846 13.7712 43.1141 14.2676 43.5738 13.6414C44.0705 13.7462 44.3512 14.0733 44.4963 14.5361C44.3944 14.5391 44.2894 14.5425 44.1876 14.5456C43.7711 15.428 44.3604 16.5263 43.5829 17.3285C43.3022 17.6586 42.9258 17.745 42.7407 17.3315C42.4568 16.6929 42.2038 16.4307 41.3894 16.1869C40.2262 15.8383 41.8583 15.5452 41.7904 15.0516L41.9077 14.9806L41.7781 14.9374Z" fill="#EE7327"/>
<path d="M10.8678 29.0611C10.7352 29.1784 10.6025 29.2956 10.4729 29.4128C10.1613 29.3357 9.96387 29.1475 9.89908 28.8266C10.0688 28.4317 10.0688 28.4317 10.8524 29.0549L10.8678 29.0611Z" fill="#E9521D"/>
<path d="M8.75735 27.8332C8.25138 27.355 8.60926 27.2624 9.0381 27.2038C9.2263 27.3982 9.72609 27.2223 9.65822 27.7221L9.6151 27.8674C9.32818 27.8581 9.04427 27.8455 8.75735 27.8332Z" fill="#EB6021"/>
<path d="M34.6329 5.58C34.6329 5.38255 34.6329 5.18494 34.6329 4.98749C34.7347 4.98749 34.8365 4.98453 34.9383 4.98145C35.182 5.11411 35.2685 5.3301 35.2592 5.59543C35.1574 5.79905 35.0556 6.00576 34.9538 6.20938C34.7131 6.06746 34.8335 5.74043 34.6329 5.58Z" fill="#E94C1C"/>
<path d="M26.9168 24.1093C28.4162 24.9886 26.6052 25.3187 26.6114 25.9512C26.4633 26.161 26.2627 26.2782 26.0005 26.269C25.6519 25.6797 24.7819 25.9512 24.4548 25.3311C24.5998 24.8837 24.4826 24.4981 24.171 24.1587C24.3098 23.736 24.3962 23.3041 23.7823 23.2362C23.1621 23.1684 23.409 23.6311 23.3565 23.9613C23.2547 24.5999 22.8475 24.9331 22.1564 24.8621C21.78 24.822 21.1475 24.242 21.2 25.2694C21.2031 25.3064 20.8668 25.4175 20.8544 25.3928C20.7248 25.1799 20.4996 24.7819 20.549 24.7449C21.4838 23.9921 20.8668 21.9343 22.9061 22.0454C23.446 22.0731 23.7823 21.7924 23.9334 22.5513C24.0291 23.0295 24.6183 23.1499 25.0318 23.3041C25.7722 23.5756 25.9419 24.0384 25.6858 24.7295C26.1332 25.0472 26.3059 24.5382 26.6114 24.4209C26.7132 24.313 26.815 24.2112 26.9168 24.1093Z" fill="#EA5A20"/>
<path d="M28.4472 6.21565C29.1352 6.29278 29.456 5.99352 29.3851 5.29627L29.3912 5.29318C29.4961 5.19446 29.6164 5.17286 29.7522 5.22839C30.2427 5.55234 30.832 5.73128 31.2207 6.21256C31.3472 6.86045 31.2855 7.57004 31.8624 8.06059C31.6218 8.66837 31.3534 9.26689 31.2423 9.91786C31.2207 10.0166 31.1961 10.1153 31.1745 10.214C30.2335 9.68339 28.9994 10.1122 28.1448 9.29466C28.0337 9.00465 28.2034 8.62826 27.8671 8.40921C28.0091 7.9526 28.5181 7.67185 28.4811 7.12886L28.4842 7.13195C28.1109 6.9345 28.0276 6.54268 27.8579 6.20948C28.0523 6.03671 28.2497 6.03362 28.4472 6.21565Z" fill="#EB5C1F"/>
<path d="M15.807 23.4558C15.3165 23.5638 14.6472 24.5356 14.4498 23.1473C14.4282 23.0053 14.0765 23.2861 13.9623 23.4959C12.8671 23.7736 12.5092 22.8573 12.0464 22.2279C11.5991 21.6232 12.6912 21.7127 12.6264 21.2098C12.682 20.8457 12.9041 20.6452 13.2435 20.5588C13.6168 20.4848 13.9376 20.9229 14.3264 20.6606C14.6195 20.4107 14.8632 20.1176 15.1162 19.8338C15.4987 19.4235 15.4 18.754 15.8875 18.4023C16.196 18.2696 16.4736 18.3282 16.7297 18.5257C16.7544 19.2229 16.85 19.914 16.0664 20.3552C15.5604 20.639 15.5049 21.0463 15.8659 21.6078C16.2268 22.1693 16.5105 22.8665 15.807 23.4558Z" fill="#E7431C"/>
<path d="M26.2781 4.04341C26.7132 4.28406 27.1327 4.62343 26.7471 5.11706C26.4016 5.56132 26.4324 5.7526 26.8643 6.07346C27.8454 6.79539 27.4783 7.46179 26.5527 7.68701C25.6889 7.8968 25.4976 8.19606 26.0961 9.02906C24.9978 8.74214 25.584 7.78882 24.9731 7.34147C23.918 6.57018 23.9859 6.49305 25.0718 5.38547C25.4945 4.95354 25.8802 4.48768 26.2843 4.03724L26.2781 4.04341Z" fill="#EB5E22"/>
<path d="M22.9092 10.2291C22.104 10.2321 21.2989 10.2325 20.6911 9.56919C20.6695 9.14035 20.8238 8.76396 21.0212 8.39682C21.3513 8.28267 21.7832 8.26416 21.99 8.03894C22.7396 7.21829 23.2487 8.06363 23.6343 8.3598C24.1989 8.79481 23.5356 9.18972 23.2734 9.56919C23.1346 9.77898 23.0296 10.01 22.9092 10.2291Z" fill="#EB5D20"/>
<path d="M30.0297 17.3283C29.2399 16.9611 30.693 15.5481 28.8542 15.6438C30.4709 15.2087 31.5815 14.6349 32.2387 13.444C33.2876 14.0086 32.8681 14.8632 32.8557 15.6499C32.2078 15.7394 31.7296 14.9866 30.9892 15.4093C30.2981 15.8042 30.5943 16.0479 30.9306 16.3935C30.8565 16.9241 30.7485 17.4208 30.0297 17.3283Z" fill="#EA581F"/>
<path d="M17.3559 15.1626C17.4577 15.3693 17.5626 15.576 17.6645 15.7828C17.467 15.974 17.2819 16.1838 16.9826 16.2085C16.2977 15.9802 15.7085 16.335 15.0914 16.5232C14.9557 16.554 14.8199 16.554 14.6811 16.5324C14.5484 16.4831 14.4343 16.406 14.3355 16.3103C13.2249 15.6347 13.1539 14.8603 14.1196 13.9872C14.4312 13.7928 14.7582 13.6725 15.1315 13.7866C15.4832 13.9286 15.5419 14.3389 15.8195 14.5518C16.2823 14.4469 16.5106 15.2737 17.0505 14.8603C17.2325 14.8726 17.2634 15.0454 17.3559 15.1626Z" fill="#E9521D"/>
<path d="M22.4339 18.5472C23.3564 19.5622 24.0907 20.3675 24.8219 21.1727C24.0259 20.4261 22.909 21.8514 22.1995 20.7994C21.712 20.0806 22.2056 19.445 22.4339 18.5472Z" fill="#EB6024"/>
<path d="M20.1049 23.357C19.7717 25.1741 18.7783 25.7819 17.6738 25.023C17.4763 24.8872 17.211 24.6929 17.1863 24.4985C17.14 24.0912 17.5905 24.1591 17.8219 24.0079C18.5098 23.5544 19.5804 24.5602 20.1049 23.357Z" fill="#EC6522"/>
<path d="M17.0473 16.0881C17.18 15.8382 17.4114 15.7858 17.6644 15.7796C17.8464 16.3504 18.6053 17.0353 17.3651 17.3314C17.686 17.9115 18.5714 18.038 18.593 18.8586C17.5625 19.3831 17.362 18.2169 16.7234 17.9423C16.4272 18.1058 16.168 17.9824 15.912 17.8312C15.8009 17.7387 15.733 17.6215 15.7145 17.4764C15.986 16.8532 16.3316 16.2948 17.0473 16.0881Z" fill="#E7431C"/>
<path d="M20.7465 10.8463C20.981 10.9296 21.2741 10.9543 21.4407 11.1117C21.8418 11.488 22.684 11.3924 22.61 12.2994C22.5236 13.3823 21.4962 12.7406 21.2186 13.2774C20.5491 12.8795 21.6999 11.4107 20.1326 11.7716C20.3362 11.4631 20.5429 11.1548 20.7465 10.8463Z" fill="#EB5F23"/>
<path d="M15.8163 14.5486C15.406 14.5393 15.2054 14.3234 15.1931 13.9192C14.6748 13.4101 14.1349 12.9721 13.3389 13.3176C12.8083 12.6944 13.3513 12.5247 13.7739 12.4321C14.3632 12.2995 14.9649 12.3702 15.5048 12.6972C15.9614 12.8607 16.4148 13.0276 16.9424 13.2189C16.711 13.7989 15.6836 13.7218 15.8163 14.5486Z" fill="#EC6323"/>
<path d="M20.1325 11.7689C19.969 13.0955 20.5521 13.984 22.0423 14.4468C21.0242 14.9651 20.4503 14.4221 19.824 14.2339C19.7068 13.3855 19.2965 12.5001 20.1325 11.7689Z" fill="#EB5F23"/>
<path d="M31.2392 9.91791C30.6592 9.03555 31.0911 8.49255 31.8593 8.06063C32.2943 8.62522 34.0066 8.9831 32.1647 9.92099C31.9549 9.25768 31.7575 10.4578 31.5477 9.92408C31.4428 9.92408 31.341 9.92099 31.2392 9.91791Z" fill="#EF7734"/>
<path d="M17.3559 15.1626C17.2541 15.0608 17.1492 14.9587 17.0474 14.8568C17.1677 14.3601 17.2819 13.8634 17.4176 13.3729C17.504 13.0644 17.7663 12.9934 18.0254 13.0798C18.2599 13.1569 18.5314 13.2742 18.6733 13.4593C18.8862 13.7431 18.5684 13.8727 18.3956 14.0454C18.0316 14.4002 17.6984 14.7862 17.3559 15.1626Z" fill="#EC6323"/>
<path d="M36.1723 16.0882C36.4962 15.8537 36.8171 15.6223 37.2428 15.3138C37.5637 15.8599 37.2336 16.5325 37.8568 17.0384C37.1194 17.0724 36.6474 17.276 36.1754 17.0137C35.9255 16.8934 36.0458 16.5849 35.873 16.4245C35.9748 16.3134 36.0736 16.2023 36.1723 16.0882Z" fill="#ED6B27"/>
<path d="M33.7104 9.00125C34.8365 9.14008 35.5862 9.72009 35.8669 10.8462C34.6884 10.766 34.3459 9.71392 33.7104 9.00125Z" fill="#ED6F2C"/>
<path d="M27.3487 11.3184C26.852 10.8988 26.4695 10.5748 25.9727 10.1522C27.8701 10.0041 27.8701 10.0041 27.3487 11.3184Z" fill="#EB6123"/>
<path d="M20.7219 6.20923C21.3482 5.9038 21.9714 5.60145 22.5977 5.29602C22.5051 5.62613 22.394 5.95316 22.32 6.28945C22.0824 7.36 21.6073 7.12553 21.0582 6.53009C20.7712 6.60722 20.6756 6.48381 20.7219 6.20923Z" fill="#EF7B2F"/>
<path d="M31.2177 6.21263C30.7179 5.9288 29.8571 6.24965 29.7461 5.3241C29.9898 5.01867 30.3569 4.89218 30.6716 4.69164C31.2331 4.92611 31.2485 5.41049 31.2362 5.91028C31.2269 6.00901 31.2208 6.11082 31.2177 6.21263Z" fill="#F28D4B"/>
<path d="M32.7818 20.4075C32.4486 20.5679 32.3314 21.1819 31.8038 20.9165C31.4768 20.753 31.5663 20.3951 31.5478 20.1021C32.0537 19.812 32.6522 19.158 32.7818 20.4075Z" fill="#EC6927"/>
<path d="M30.0297 17.3283C30.329 17.0167 30.6282 16.7052 30.9305 16.3966C31.6494 17.0754 31.0447 17.4826 30.6158 17.9269C30.2703 18.1243 29.9988 18.1675 30.0019 17.6338C30.0111 17.532 30.0204 17.4301 30.0297 17.3283Z" fill="#F18646"/>
<path d="M30.3075 24.3874C30.6005 24.4768 31.0571 24.2362 31.1158 24.7946C30.6067 24.844 30.7239 25.5998 30.3506 25.6029C29.7521 25.6091 29.8323 25.1402 29.9958 24.7267C30.0977 24.6126 30.2026 24.4984 30.3075 24.3874Z" fill="#F08240"/>
<path d="M27.827 13.9004C27.6357 13.959 27.4198 14.1075 27.2594 14.0612C26.9509 13.9718 26.4418 14.4284 26.3554 13.87C26.2598 13.2529 26.8336 13.3455 27.2162 13.3115C27.4167 13.293 27.6234 13.3389 27.8239 13.3543C27.827 13.5333 27.827 13.7153 27.827 13.9004Z" fill="#F18849"/>
<path d="M18.59 18.8614C18.1735 18.3585 17.3498 18.1827 17.3621 17.3342C18.1303 17.5564 18.8738 17.797 18.59 18.8614Z" fill="#EC6324"/>
<path d="M30.9151 12.4105C30.6159 12.3612 30.2611 12.3334 30.1932 11.9848C30.1284 11.6454 30.4493 11.4572 30.6992 11.3338C31.1187 11.1271 31.1928 11.4788 31.273 11.7719C31.3995 12.1236 31.4828 12.4506 30.9151 12.4105Z" fill="#F28B54"/>
<path d="M20.7219 6.20923C20.8329 6.31721 20.9471 6.4252 21.0582 6.53009C20.981 7.99555 20.3084 7.03008 19.8241 6.83262C20.4689 7.11955 19.5804 5.20655 20.7219 6.20923Z" fill="#E9531E"/>
<path d="M17.0257 9.55053C18.4819 9.42403 18.482 9.42382 17.9544 10.8368C17.8619 10.8368 17.7724 10.8368 17.6799 10.8399C17.6398 10.5283 17.7322 10.1768 17.4145 9.94234C17.1862 9.90841 17.0597 9.77574 17.0257 9.55053Z" fill="#EE753C"/>
<path d="M18.2815 11.4631C18.2784 11.8858 17.9883 12.0773 17.6551 12.2316C17.3651 12.3673 17.0689 12.4383 16.8036 12.2161C16.7079 12.1359 16.6092 11.9323 16.6462 11.849C16.8344 11.4479 17.1615 11.7657 17.4268 11.7287C17.7199 11.6855 17.9976 11.5557 18.2815 11.4631Z" fill="#E9531E"/>
<path d="M15.8165 17.6397C16.1188 17.7416 16.4212 17.8434 16.7235 17.9452C16.7266 18.1395 16.7266 18.3339 16.7297 18.5283C16.4273 18.5437 16.1219 18.5591 15.8196 18.5746C15.2056 18.2444 15.2056 18.1827 15.8165 17.6397Z" fill="#EF7A39"/>
<path d="M25.6858 4.04958C25.6766 3.89841 25.6426 3.74415 25.6673 3.59915C25.729 3.23201 25.6519 2.60881 26.1949 2.72604C26.7718 2.85254 26.2196 3.40478 26.3214 3.75341C26.2905 3.84596 26.2751 3.9416 26.2782 4.04033L26.2844 4.03416C26.0869 4.04033 25.8864 4.0465 25.6858 4.04958Z" fill="#F28F53"/>
<path d="M36.1787 8.68368C35.7653 9.24827 35.3518 8.84102 34.9384 8.68676C35.3488 8.05122 35.7622 7.67791 36.1787 8.68368Z" fill="#EE7227"/>
<path d="M24.4518 17.9422C24.6554 17.9453 24.856 17.9453 25.0596 17.9484C24.7912 18.4513 24.5228 18.9511 24.1402 19.6669C23.8163 18.7506 24.3222 18.4019 24.4518 17.9422Z" fill="#ED6A2B"/>
<path d="M19.5156 11.1546C19.5341 10.661 19.7624 10.226 20.2221 10.1334C20.6848 10.0378 20.7034 10.5067 20.7496 10.8461C20.3393 10.951 19.9259 11.0528 19.5156 11.1546Z" fill="#EB5F23"/>
<path d="M36.1846 11.482C36.3697 11.482 36.5549 11.482 36.74 11.482C36.9158 11.806 37.0948 12.1299 37.2799 12.4724C36.7122 12.821 36.5487 12.167 36.1815 12.059C36.1815 11.8677 36.1815 11.6733 36.1846 11.482Z" fill="#F28F52"/>
<path d="M32.4641 5.96575C32.9485 6.45938 32.4857 6.95609 32.4703 7.4528C31.5633 7.10726 32.1278 6.46246 32.1587 5.92564C32.2759 5.84234 32.3777 5.85468 32.4641 5.96575Z" fill="#EB5C1F"/>
<path d="M27.824 17.6368C27.7099 17.899 27.4723 17.942 27.2254 17.9606C26.9971 18.0284 26.7534 18.1734 26.5436 18.1364C26.3246 18.0963 26.3184 17.8587 26.5128 17.7045C26.9293 17.3805 27.3643 17.2481 27.824 17.6368Z" fill="#F1884F"/>
<path d="M21.9868 27.2007C21.7801 27.3025 21.5734 27.4044 21.3667 27.5031C21.3728 27.1822 21.4808 26.8984 21.7307 26.6917C21.9467 26.5127 22.2213 26.1425 22.4526 26.5374C22.647 26.8644 22.2398 27.0403 21.9868 27.2007Z" fill="#ED6D28"/>
<path d="M25.6026 19.3027C25.76 19.4447 26.1549 19.4045 26.0531 19.7748C25.9975 19.9846 25.7538 20.0925 25.5564 19.9938C25.3959 19.9136 25.217 19.7254 25.1861 19.5588C25.1337 19.275 25.362 19.2472 25.6026 19.3027Z" fill="#EC6629"/>
<path d="M32.4641 5.96575C32.3623 5.95032 32.2603 5.93788 32.1616 5.92246C31.8654 5.70958 31.8531 5.49979 32.1647 5.29C32.4547 5.37947 32.9298 5.09563 33.0008 5.61394C33.044 5.94097 32.6863 5.90713 32.4641 5.96575Z" fill="#F7B278"/>
<path d="M24.171 24.1587C25.0318 24.3654 24.8713 24.8159 24.4548 25.3311C24.353 25.2323 24.2482 25.1308 24.1433 25.0321C24.1526 24.739 24.1617 24.4487 24.171 24.1587Z" fill="#F18951"/>
<path d="M31.5447 9.92678C32.0754 9.73241 31.446 9.14314 31.915 8.89941C32.3932 9.14006 32.0507 9.59358 32.1618 9.92061C31.9582 10.2322 31.7545 10.2384 31.5447 9.92678Z" fill="#EB5C1F"/>
<path d="M21.0212 8.39988C21.1909 8.86883 21.015 9.24213 20.6911 9.57225C20.6016 9.48278 20.5152 9.39331 20.4257 9.30384C20.4751 8.90276 20.6232 8.56956 21.0212 8.39988Z" fill="#F6A96E"/>
<path d="M30.9151 12.4105C31.0354 12.1977 31.1558 11.9848 31.2761 11.7719C31.7142 12.2254 31.5908 12.6944 31.0879 12.8609C30.585 13.0275 30.9244 12.5926 30.9151 12.4105Z" fill="#EB6128"/>
<path d="M19.568 21.9373C19.7315 22.0237 19.9197 22.0607 19.9567 22.1563C20.0462 22.3847 19.8796 22.5235 19.6667 22.5142C19.5557 22.5081 19.3952 22.3877 19.3675 22.2859C19.3428 22.2026 19.4847 22.073 19.568 21.9373Z" fill="#ED6F33"/>
<path d="M35.8761 16.4274C36.1445 16.5384 36.1847 16.7637 36.1785 17.0166C35.8946 17.1586 35.6417 17.4115 35.2776 17.2696C35.2498 16.8284 35.6324 16.6773 35.8761 16.4274Z" fill="#F8B381"/>
<path d="M26.6115 24.4181C26.4171 24.6958 26.414 25.1647 25.9697 25.1894C25.7322 25.2017 25.7106 24.9272 25.6859 24.7266C25.9944 24.6248 26.3029 24.5199 26.6115 24.4181Z" fill="#EA561C"/>
<path d="M28.8727 11.1669C28.7709 11.1978 28.6228 11.2965 28.5241 11.2595C28.3328 11.1885 28.1847 11.0065 28.2773 10.7936C28.3143 10.7103 28.5272 10.6332 28.6259 10.6641C28.8203 10.7196 28.9653 10.8708 28.8727 11.1669Z" fill="#EF7C3F"/>
<path d="M16.421 24.3906C16.0415 24.2055 15.4462 24.1679 15.8133 23.483C16.4736 23.4768 16.4457 23.934 16.421 24.3906Z" fill="#F49A5B"/>
<path d="M33.5251 18.257C33.4326 18.3495 33.337 18.4606 33.3277 18.4544C33.1734 18.3464 32.9883 18.2446 32.8927 18.0904C32.8032 17.9423 32.8927 17.7664 33.0963 17.8682C33.2629 17.9515 33.3832 18.1243 33.5251 18.257Z" fill="#EA561C"/>
<path d="M23.5138 18.143C23.4151 18.3497 23.2732 18.3837 23.1652 18.2695C23.0819 18.1801 23.0727 18.0227 23.0295 17.8931C23.1467 17.8623 23.3164 17.7666 23.3688 17.8098C23.4614 17.887 23.4768 18.0505 23.5138 18.143Z" fill="#EF7832"/>
<path d="M28.4472 6.21565C28.2497 6.21256 28.0521 6.20947 27.8516 6.20638C27.867 5.96574 27.7559 5.57084 28.0182 5.54307C28.3976 5.50605 28.4256 5.90405 28.4472 6.21565Z" fill="#EF7B3B"/>
<path d="M17.0287 22.2216C16.9608 22.3882 16.8343 22.4561 16.6986 22.3358C16.5937 22.2432 16.5011 22.0951 16.4826 21.9625C16.4579 21.7897 16.5814 21.6725 16.7665 21.7373C16.9824 21.8144 17.0657 21.9933 17.0287 22.2216Z" fill="#F7AE6F"/>
<path d="M26.6269 21.3671C26.9632 21.3517 27.2748 21.4411 27.1946 21.8422C27.1144 22.2494 26.8305 21.9872 26.6238 21.9286C26.6238 21.7404 26.6269 21.5522 26.6269 21.3671Z" fill="#F08247"/>
<path d="M27.8608 8.4059C28.7154 8.46144 28.3051 8.91496 28.1385 9.29135C27.7868 9.07847 27.8361 8.7391 27.8608 8.4059Z" fill="#F18640"/>
<path d="M35.2932 22.9001C34.5343 23.477 33.8802 22.6502 33.1243 22.7273C32.6184 22.7767 32.7541 22.0918 32.9886 21.9314C33.6612 21.4717 34.2103 20.5924 35.247 21.0274C36.083 20.833 36.1694 19.8952 36.7895 19.4848C38.69 19.7193 37.7737 20.759 37.4066 21.6445C37.2585 21.7864 37.4436 21.592 37.3048 21.7432C37.2708 21.7771 37.3078 21.7493 37.4097 21.6445C37.8323 21.6475 38.2519 21.6475 38.6746 21.6506C38.7641 21.7092 38.7918 21.7679 38.7579 21.8265C38.727 21.882 38.6962 21.9098 38.6653 21.9098C38.4401 22.5268 38.0329 22.968 37.4066 23.187C36.9006 23.619 36.4008 23.2117 35.8979 23.1809C35.6604 23.1624 35.466 23.0544 35.2932 22.9001Z" fill="#E84A1C"/>
<path d="M37.4126 28.1297C36.5703 28.7776 35.8916 28.2315 35.2776 27.7533C34.9753 27.5188 34.8118 27.0622 35.1511 26.6673C35.7435 25.9855 36.2957 25.1957 37.4064 25.6492C38.2147 26.4729 37.7211 27.3028 37.4126 28.1297Z" fill="#ED6B25"/>
<path d="M38.6681 19.1579C38.3288 18.8525 37.468 19.3122 37.5266 18.5193C37.576 17.8591 38.1221 18.038 38.5848 18.1738C39.0384 18.3064 39.1803 17.9856 39.3037 17.6123C39.4487 17.1896 39.5999 16.7299 40.1768 16.7021C40.7691 16.9397 41.198 17.3562 41.4942 17.9177C41.1054 18.4298 40.5069 18.6335 39.9855 18.9543C39.5536 19.0561 39.0692 18.8247 38.6681 19.1579Z" fill="#EC6421"/>
<path d="M36.7895 19.4818C36.3268 20.0463 36.8327 21.5797 35.247 21.0243C35.2377 20.8701 35.2254 20.7158 35.2254 20.5647C35.2192 20.0957 34.2227 19.8211 34.8675 19.2905C35.4783 18.7876 36.1972 18.9172 36.7895 19.4818Z" fill="#EC6826"/>
<path d="M39.8714 18.871C40.1984 18.2355 40.8 18.0534 41.4325 17.9146C41.7287 17.711 42.0248 17.7449 42.3179 17.9239C42.5524 17.9485 42.7869 17.9732 43.2188 18.0164C42.1945 18.6828 41.343 19.2351 40.4915 19.7904C40.3989 19.6855 40.3064 19.5837 40.2138 19.4788C39.9146 19.3832 39.7109 19.2289 39.8714 18.871Z" fill="#E94E17"/>
<path d="M42.3179 17.9239C42.0217 17.9208 41.7256 17.9177 41.4325 17.9146C41.0191 17.5105 40.4175 17.2975 40.183 16.7051C40.0781 16.2948 39.9763 15.8845 39.8714 15.4741C40.1028 15.2304 40.7198 14.6967 40.618 15.1903C40.2756 16.8162 41.5127 17.1803 42.3179 17.9239Z" fill="#EF7C38"/>
<path d="M21.9281 28.8018C22.1441 30.4863 22.8814 29.9711 23.6558 29.2553C23.6527 30.1747 23.3535 30.6159 22.7364 30.5388C21.743 30.4154 21.5054 29.8045 21.9281 28.8018Z" fill="#F08131"/>
<path d="M35.8546 22.8845C36.3699 22.9833 36.8882 23.0851 37.4034 23.1838C37.2646 23.6435 37.3849 24.1803 36.9807 24.6431C36.5303 24.3099 36.5642 23.5479 35.8947 23.5139C35.7035 23.3165 35.6788 23.1067 35.8546 22.8845Z" fill="#EE7227"/>
<path d="M29.0796 28.4286C29.638 28.5211 30.2551 28.2285 30.8659 28.7375C30.4001 29.1232 29.9064 29.2585 29.3912 29.351C29.2863 29.0425 29.1814 28.734 29.0796 28.4286Z" fill="#F07F31"/>
<path d="M32.4826 28.1359C32.2204 28.1173 31.9796 28.0583 31.8408 27.8023C32.3097 26.596 33.1243 28.2408 33.729 27.2412C33.547 28.3549 32.9176 28.0402 32.4826 28.1359Z" fill="#EF7D35"/>
<path d="M37.4126 28.1297C37.0732 27.3059 38.0791 26.4759 37.4035 25.6522C37.6102 25.7571 37.8138 25.862 38.0205 25.9638C38.0298 26.4821 38.0359 27.0004 38.0452 27.5187C37.8354 27.7223 37.6255 27.9261 37.4126 28.1297Z" fill="#EF7C34"/>
<path d="M35.8546 22.8845C35.8701 23.0943 35.8825 23.3041 35.8979 23.5139C35.83 23.7854 35.8979 24.3346 35.5678 24.2204C34.9199 24.0014 35.3364 23.3629 35.2932 22.9001C35.4814 22.8939 35.6695 22.8907 35.8546 22.8845Z" fill="#F28E43"/>
<path d="M39.8714 18.871C39.9855 19.0746 40.0997 19.2752 40.2138 19.4788C39.5659 20.0125 39.2883 18.763 38.6681 19.1579C38.9643 18.6242 39.3963 18.6581 39.8714 18.871Z" fill="#F39767"/>
<path d="M26.2226 28.7803C26.3028 29.3911 26.0683 29.6843 25.4296 29.5671C25.3988 29.0056 25.6488 28.7278 26.2226 28.7803Z" fill="#FDEED5"/>
<path d="M26.0005 26.269C26.1301 26.016 26.3584 25.9635 26.6114 25.9512C26.6792 26.2073 27.0525 26.4977 26.7286 26.7106C26.3213 26.9821 26.1764 26.5374 26.0005 26.269Z" fill="#F39144"/>
<path d="M39.563 13.3146C39.2545 14.4993 38.9491 13.3547 38.6437 13.3115C38.9491 12.7037 39.2545 13.3115 39.563 13.3146Z" fill="#F28A3E"/>
<path d="M27.648 26.8491C27.4722 26.3277 27.4043 25.868 27.7899 25.8032C28.2589 25.7292 28.08 26.1704 28.0028 26.4234C27.9658 26.5468 27.8301 26.6393 27.648 26.8491Z" fill="#F7AF6E"/>
<path d="M39.8962 12.1388C40.2726 12.2931 40.5133 12.543 40.4855 12.9811C40.0011 12.904 39.4335 12.8824 39.8962 12.1388Z" fill="#F8B375"/>
<path d="M40.5071 22.5544C40.4794 22.3817 40.2388 22.0517 40.4609 22.0733C40.8342 22.1103 41.4204 22.2214 41.0996 22.9001C40.9052 22.786 40.7077 22.6717 40.5071 22.5544Z" fill="#F07F3C"/>
<path d="M31.8777 21.9839C32.1986 21.9993 32.4855 22.0672 32.4454 22.4775C32.4238 22.7028 32.2325 22.8786 32.0443 22.7768C31.7266 22.604 31.85 22.2616 31.8839 21.9747L31.8777 21.9839Z" fill="#F5A77A"/>
<path d="M32.8126 25.0815C32.9606 24.9488 33.0532 24.7976 33.1612 24.7853C33.2846 24.7699 33.5036 24.8439 33.5376 24.9334C33.6301 25.171 33.4574 25.316 33.2321 25.316C33.1118 25.3129 32.9946 25.1864 32.8126 25.0815Z" fill="#F28C51"/>
<path d="M38.6651 21.907C38.6651 21.8206 38.6681 21.7342 38.6712 21.6478C38.9705 21.438 39.2697 21.2282 39.5659 21.0154C39.5597 21.3239 39.5505 21.6293 39.5443 21.9378C39.2512 21.9286 38.9581 21.9193 38.6651 21.907Z" fill="#F1894E"/>
<path d="M15.8165 17.6397C15.7147 17.9513 15.3443 18.2659 15.8194 18.5775C15.6837 19.1174 16.1804 19.9134 15.1932 20.1047C14.934 20.3793 14.3262 20.4286 14.5854 21.0395C13.9591 21.7337 13.7246 20.9469 13.342 20.7125C12.7898 20.2003 12.1728 19.8671 10.9819 20.0399C11.9445 20.3392 12.3949 20.7742 12.725 21.3326C13.1446 21.385 13.5488 21.456 13.5272 22.0268C13.0274 22.4648 12.7867 21.4992 12.216 21.8941C12.6109 22.6222 13.2125 23.1312 13.9622 23.4922C13.7123 23.9211 13.629 24.5319 13.0736 24.6522C12.4443 24.788 11.4323 25.439 11.6853 23.8532C11.7378 23.5323 11.7408 22.9184 11.1238 22.8011C10.9819 23.6249 9.40228 22.4556 9.67377 23.8501C10.0101 24.0321 10.2661 24.245 9.98229 24.6646C10.2816 24.9947 10.5808 25.3248 10.877 25.6549C9.74473 25.9202 10.3186 27.1883 9.65835 27.7282C9.45164 27.5554 9.24493 27.3826 9.03823 27.2068C9.89591 26.1578 9.62441 24.5967 8.50449 24.0074C8.02629 23.7575 7.6499 23.8285 7.25499 24.1833C6.93105 24.4764 6.82926 25.0445 6.25234 25.0384C6.00552 23.5544 7.35989 23.6681 8.10959 23.1744C8.82535 22.289 7.6067 22.1841 7.48638 21.638C7.35372 21.3912 7.12542 21.3357 6.87243 21.3295C6.68732 20.9778 5.94996 20.7896 6.45285 20.2435C6.74594 19.9257 7.20872 19.5617 7.58819 19.571C8.46747 19.5925 8.23608 20.5459 8.56619 21.0703C8.72662 20.5243 8.8778 20.0029 9.03206 19.4815C8.92716 19.1761 8.83152 18.8644 8.61864 18.6084C8.38108 18.0469 7.76405 18.7071 7.49255 18.2598C7.1902 17.8001 6.55466 17.8618 6.2338 17.2694C5.69698 16.276 6.21837 16.3624 6.86935 16.4025C7.11925 16.097 7.24882 15.6991 7.49564 15.5942C7.40308 15.7021 7.14393 15.7731 6.85701 15.7731C5.41931 14.8846 5.28356 14.3323 6.11039 12.4596C5.09228 12.5861 4.16364 12.5522 4.40737 11.1577C4.65727 11.3304 4.901 11.5063 5.15399 11.6729C6.00241 12.2313 6.89094 11.9691 7.5234 11.4415C8.23916 10.8399 7.56351 9.99765 7.39691 9.31582C7.1902 8.47357 6.40657 8.60931 5.75251 8.79751C5.42857 8.89007 5.16633 8.95177 4.97813 8.60623C5.21569 8.44889 5.45016 8.29154 5.68772 8.1342C6.53306 7.98611 7.29202 8.24526 8.0232 8.634C8.43662 8.84996 8.41193 9.23869 8.41811 9.61508C8.6279 9.79711 8.73588 10.0809 9.01046 10.1982C9.01046 10.1982 9.03514 10.2661 9.03514 10.2691C8.89322 10.7628 8.42119 11.1916 8.72662 11.7778C8.97344 12.0555 8.86546 12.2838 8.63098 12.4905C8.49523 12.5614 8.34406 12.583 8.19289 12.5984C8.30704 12.7373 8.46438 12.6818 8.61247 12.6818C10.2785 12.6879 9.93601 14.0392 10.1797 14.9987C10.189 15.2147 9.83112 15.2363 9.9175 15.4954C9.9607 15.409 10.0378 15.372 10.1458 15.3844C10.4913 15.5417 10.55 15.8626 10.624 16.1773C10.6672 16.4488 10.7721 16.6987 10.8862 16.9455C11.0251 17.2941 10.7968 17.5131 10.5129 17.834C11.5897 17.6088 12.3856 17.2416 12.5985 16.1464C12.6849 15.9459 12.8268 15.7947 13.0274 15.7052C13.5148 16.0168 14.2213 15.8379 14.5946 16.4056C14.8168 16.6431 15.0944 16.8221 15.3104 17.0658C15.5109 17.2262 15.659 17.4391 15.8287 17.6304L15.8165 17.6397Z" fill="#E9521D"/>
<path d="M12.7403 16.0789C13.1229 16.6805 12.9316 17.1741 12.3608 17.4703C11.6667 17.8312 11.0219 18.4699 10.1241 18.1336C9.96675 18.075 9.76004 17.8282 9.77547 17.6955C9.84951 17.1278 10.4079 17.6893 10.6208 17.3777C10.6486 17.3376 10.7072 17.2821 10.6979 17.2543C10.664 17.1679 10.6023 17.0877 10.5529 17.0075C10.5036 16.372 10.5807 15.7611 10.8584 15.178C11.0712 15.07 11.2841 14.962 11.4939 14.854C12.2899 14.8756 13.0026 14.9836 12.7403 16.0789Z" fill="#EC6323"/>
<path d="M11.491 5.56123C12 4.72823 12.6633 4.9442 13.3452 5.28974C13.4531 5.39155 13.558 5.49336 13.666 5.59517C13.3421 6.45593 12.8546 7.19946 12.1142 7.76096C11.3336 7.83809 10.9634 7.44936 10.7814 6.712C10.6641 6.23689 10.6364 5.94379 11.2164 5.91294C11.4169 5.88209 11.5187 5.77411 11.491 5.56123Z" fill="#EE7529"/>
<path d="M10.2631 16.3996C10.2569 16.0695 10.3248 15.7117 9.97922 15.4864C9.86815 15.4216 9.82805 15.3538 9.85581 15.2766C9.88666 15.1995 9.91752 15.1594 9.95145 15.1594C9.63676 14.2493 9.97922 12.8486 8.31014 12.9442C8.20216 12.7653 8.20833 12.5895 8.33482 12.4229C8.62174 12.2994 8.70504 12.0588 8.71738 11.7719C9.24495 11.4757 9.14622 10.5532 9.95145 10.5378C10.0317 10.6674 10.081 10.8155 10.0687 10.9636C9.99465 11.7935 9.99773 11.7811 10.6456 12.1791C10.7598 12.2501 10.7505 12.4506 10.7474 12.6018C10.6333 12.9412 10.5376 13.2929 10.2754 13.5613C10.5191 14.0827 10.6117 14.6318 10.5777 15.2026C10.7197 15.6685 11.0621 16.1868 10.2631 16.3996Z" fill="#EC6527"/>
<path d="M10.5375 12.75C10.2413 12.3675 10.0932 12.4261 9.80014 13.1202C9.30651 12.1669 9.6212 11.3524 9.9544 10.5379C10.2352 10.5935 10.738 10.2695 10.7658 10.5595C10.88 11.6702 11.4846 11.121 11.9844 11.0161C12.2035 10.9699 12.5336 10.7817 12.5706 11.1642C12.5861 11.3216 12.2683 11.5067 12.1017 11.6795C12.0122 12.1854 11.5093 12.3119 11.2193 12.6328C11.0959 12.7593 10.9756 12.8858 10.8522 13.0123C10.6115 13.0894 10.5036 13.0061 10.5375 12.75Z" fill="#E84517"/>
<path d="M14.7149 7.3291C14.5205 8.18061 16.2976 8.47988 14.6593 9.1833C14.5791 9.21723 14.5298 9.52575 14.5421 9.53192C14.9864 9.72629 15.5139 9.92682 14.8784 10.442C14.6069 10.6642 14.1842 10.5531 13.9559 10.1798C13.6813 9.73554 13.1013 9.36532 13.7276 8.7452C14.0361 8.44594 14.2336 8.03561 14.7149 7.3291Z" fill="#EB6024"/>
<path d="M12.7403 16.0789C12.6262 15.3662 11.9506 15.2242 11.4971 14.854C11.0991 13.8883 12.1172 14.1537 12.438 13.9069C12.7774 13.6446 12.8391 14.3079 13.0396 14.5486C13.3914 14.9589 13.3728 15.3723 13.0366 15.7826C12.9378 15.8814 12.839 15.9801 12.7403 16.0789Z" fill="#E74119"/>
<path d="M13.0366 15.7826C13.0366 15.3723 13.0396 14.962 13.0396 14.5486C13.4438 14.3727 13.6537 14.0671 13.6537 13.6228C14.1381 13.5303 14.3448 13.737 14.2893 14.2214C13.919 14.752 12.9781 15.3351 14.4404 15.7053C14.5392 15.73 14.5361 16.1589 14.5793 16.3995C14.0795 16.1558 13.3605 16.4645 13.0366 15.7826Z" fill="#EC6323"/>
<path d="M12.1142 7.76096C12.6171 7.02978 12.688 5.98699 13.666 5.59517C14.1905 7.06371 13.2248 7.46787 12.1142 7.76096Z" fill="#EC6729"/>
<path d="M14.2893 14.2188C14.0765 14.0182 13.8667 13.8208 13.6538 13.6202C13.5489 13.5184 13.444 13.4166 13.3422 13.3117C14.4837 11.8987 14.7891 13.0649 15.1964 13.9133C14.8909 14.0182 14.5917 14.12 14.2893 14.2188Z" fill="#F0823E"/>
<path d="M17.1398 6.8356C17.4699 6.86336 17.8309 6.80783 17.7908 7.1472C17.7537 7.4804 17.4637 7.78583 17.1213 7.82285C16.9763 7.83828 16.6894 7.53902 16.6431 7.34157C16.5444 6.90039 17.001 6.9806 17.1398 6.8356Z" fill="#F18640"/>
<path d="M17.9666 4.97844C17.979 4.62673 17.9296 4.25034 18.3184 4.04055C18.5991 3.92948 18.7503 4.07757 18.8583 4.30896L18.9169 4.383C18.9446 5.12653 18.8891 5.74357 17.9666 4.97844Z" fill="#EB5C1F"/>
<path d="M11.2226 12.636C11.1547 11.985 11.6792 11.8802 12.1049 11.6827C12.3178 11.7629 12.7127 11.7567 12.5029 12.1208C12.2314 12.5836 11.8088 12.8643 11.2226 12.636Z" fill="#F5A369"/>
<path d="M11.1425 8.68386C11.2659 8.67152 11.3859 8.65874 11.5093 8.64332C11.895 8.82843 12.2806 9.01045 12.6663 9.19557C11.9135 9.61515 11.3708 9.53845 11.1425 8.68386Z" fill="#F39257"/>
<path d="M10.2631 16.3996C10.7197 16.0942 10.4977 15.6102 10.581 15.206C10.6735 15.1875 10.7661 15.1782 10.8617 15.1782C11.2196 15.8631 10.7969 16.4216 10.5563 17.0077C10.294 16.8813 10.2415 16.6588 10.2631 16.3996Z" fill="#F18A4C"/>
<path d="M14.8907 4.38011C14.9895 4.57756 15.0882 4.77501 15.1869 4.96938C14.8753 5.4013 14.5884 5.22853 14.428 4.87374C14.2398 4.45107 14.6007 4.42022 14.8907 4.38011Z" fill="#EF7B34"/>
<path d="M24.6893 15.4895C24.5258 15.3908 24.3284 15.3383 24.3037 15.2396C24.2327 14.9743 24.4518 14.8879 24.6585 14.9156C24.7696 14.9311 24.9269 15.0699 24.9392 15.1686C24.9516 15.255 24.7911 15.3661 24.6893 15.4895Z" fill="#F28D3B"/>
<path d="M17.0257 9.55053C17.1553 9.6801 17.2849 9.81304 17.4176 9.94261C17.3065 10.1524 17.2417 10.5689 16.964 10.4177C16.5321 10.1802 16.782 9.82819 17.0257 9.55053Z" fill="#F7AE87"/>
<path d="M10.5375 12.75C10.6424 12.8395 10.7475 12.9257 10.8555 13.0152C10.8956 13.444 10.6858 13.6075 10.2786 13.5643C10.2847 13.2682 10.195 12.9382 10.5375 12.75Z" fill="#F39454"/>
<path d="M21.0983 16.4768C20.9224 16.6218 20.7867 16.736 20.6509 16.847C20.5861 16.7421 20.4658 16.6372 20.4658 16.5323C20.4689 16.3442 20.5399 16.1282 20.7898 16.1652C20.8854 16.1776 20.9625 16.3318 21.0983 16.4768Z" fill="#F8B474"/>
<path d="M20.4443 0.995382C21.7462 0.233343 22.4219 0.649842 22.4712 2.28807C21.8264 2.24488 21.8357 1.60933 21.4778 1.21443C21.3544 1.85923 21.2372 2.45776 21.0428 3.46969C20.7158 2.56574 19.5064 2.59042 20.2191 1.56305C20.3702 1.40571 20.5183 1.24528 20.4443 0.995382Z" fill="#EE722B"/>
<path d="M28.151 2.19557C29.0303 1.50758 29.4869 2.09993 30.1873 3.04091C29.4314 2.76016 28.9347 2.41462 28.4657 2.82803C28.2498 2.67069 28.1572 2.45472 28.151 2.19557Z" fill="#F1843B"/>
<path d="M25.5038 1.4116C25.0194 1.71394 24.6554 1.63373 24.3006 1.16478C24.8066 0.843923 25.1675 0.936478 25.5038 1.4116Z" fill="#F28E46"/>
<path d="M18.8583 4.30896C18.6793 4.21949 18.4973 4.13002 18.3184 4.04055C18.2813 3.71044 18.1426 3.34922 18.5807 3.16103C18.7658 3.51891 19.2624 3.80608 18.8583 4.30896Z" fill="#F9C2A3"/>
<path d="M23.9889 3.31844C23.8532 3.60536 23.6465 3.71643 23.3873 3.72568C23.2362 3.73185 23.0541 3.67632 23.1343 3.49429C23.2485 3.23514 23.4058 2.9513 23.7637 3.03152C23.8594 3.05311 23.9211 3.22897 23.9889 3.31844Z" fill="#EF7738"/>
<path d="M28.151 2.19557C28.475 2.29738 28.4812 2.55654 28.4657 2.82803C28.2127 2.88048 27.9194 3.2941 27.722 2.90846C27.5924 2.65547 27.9227 2.38994 28.151 2.19557Z" fill="#F9C9A1"/>
<path d="M20.4443 0.995382C20.6479 1.08485 21.0212 1.07567 20.8885 1.41812C20.7898 1.67419 20.4597 1.57848 20.2191 1.56305C20.2931 1.37486 20.3702 1.18666 20.4443 0.995382Z" fill="#FCEED2"/>
<path d="M30.6685 4.69164C30.4494 5.03718 30.1841 5.30559 29.7429 5.3241C29.6257 5.31485 29.5084 5.3025 29.3881 5.29325C29.7182 4.87984 30.1533 4.70398 30.6685 4.69164Z" fill="#E94C1C"/>
<path d="M7.48638 21.638C7.85352 21.928 8.4612 21.6168 8.73269 22.2369C9.05664 22.9743 8.90248 23.2485 8.10959 23.1744C8.10033 22.5821 6.61019 22.5913 7.48638 21.638Z" fill="#EE752F"/>
<path d="M6.87235 21.3331C6.37873 21.9224 6.90321 22.4623 6.98034 23.0423C6.29851 23.3292 6.13191 22.7739 6.07021 22.3913C5.98382 21.8545 6.24298 21.4133 6.87235 21.3331Z" fill="#F07E39"/>
<path d="M6.85096 15.7734C7.30757 15.4186 7.76418 15.0638 8.46143 14.5208C8.17451 15.6438 7.41247 15.9307 6.86022 16.3997C6.85713 16.193 6.85405 15.9832 6.85096 15.7734Z" fill="#EE752F"/>
<path d="M7.48649 18.2598C7.91224 18.3369 8.58173 17.3929 8.75141 18.5591C8.63726 18.667 8.52002 18.6732 8.39353 18.5807C8.01405 18.6362 7.82277 19.2594 7.39393 19.0126C7.02063 18.7997 7.41862 18.5128 7.48649 18.2598Z" fill="#F5A363"/>
<path d="M5.51179 19.0805C5.1138 19.0712 4.96879 18.8429 4.94411 18.593C4.90401 18.2043 5.2372 18.2598 5.46859 18.266C5.73392 18.2752 6.04861 18.3986 6.01158 18.667C5.98999 18.8398 5.65679 18.9694 5.51179 19.0805Z" fill="#ED6E2F"/>
<path d="M5.51191 23.9026C5.05222 23.7391 4.67892 23.5355 4.85786 22.974C4.88871 22.8722 5.12935 22.7272 5.20031 22.758C5.70628 22.9987 5.70628 23.4121 5.51191 23.9026Z" fill="#F1843D"/>
<path d="M3.16714 17.9391C2.5501 18.9696 1.93307 18.4852 1.31603 17.9391C1.93307 17.4516 2.5501 17.5349 3.16714 17.9391Z" fill="#EF7928"/>
<path d="M4.08975 12.6947C4.29955 12.7625 4.70679 12.6021 4.63891 12.9878C4.59264 13.2407 4.3304 13.5215 4.08975 13.6542C3.83985 13.793 3.81826 13.4783 3.76272 13.3055C3.62081 12.9693 3.51283 12.6484 4.08975 12.6947Z" fill="#F8BD8D"/>
<path d="M8.39355 18.5839C8.51387 18.5777 8.63111 18.5685 8.75143 18.5623C9.25123 18.7474 9.26049 19.0775 9.0291 19.4817C8.41515 19.4632 8.41206 19.0158 8.39355 18.5839Z" fill="#F07F34"/>
<path d="M4.08975 12.6947C3.98177 12.8983 3.87071 13.1019 3.76272 13.3055C3.58378 13.2068 3.40778 13.1046 3.22884 13.0059C3.20108 12.8732 3.1732 12.7439 3.14544 12.6112C3.25033 12.5372 3.35831 12.46 3.46321 12.3829C3.71619 12.3983 3.95401 12.4417 4.08975 12.6947Z" fill="#E9521D"/>
<path d="M5.09235 16.7606C5.17874 16.9519 5.28364 17.0784 5.28055 17.2018C5.27438 17.4362 5.1047 17.5689 4.88873 17.4486C4.80235 17.3992 4.7499 17.1833 4.77458 17.066C4.79618 16.9611 4.95044 16.8871 5.09235 16.7606Z" fill="#F49C5B"/>
<path d="M4.94719 19.7566C5.049 19.8985 5.12613 20.0034 5.20018 20.1083C5.09837 20.1762 4.97496 20.315 4.904 20.2903C4.79293 20.2533 4.7158 20.1083 4.62325 20.0065C4.71889 19.9355 4.81453 19.8615 4.94719 19.7566Z" fill="#F1874A"/>
<path d="M3.53124 19.4479C3.51581 19.2535 3.50342 19.0623 3.488 18.8679C3.69779 18.8062 3.97546 18.5995 4.05876 18.9728C4.14514 19.3677 3.86752 19.4664 3.53124 19.4479Z" fill="#F5A26A"/>
<path d="M43.5799 17.3315C43.6786 16.3997 44.2185 15.5081 43.5398 14.5147C43.3732 14.2679 43.9501 14.5733 44.1846 14.5486C44.0149 15.4834 44.6813 16.6003 43.5799 17.3315Z" fill="#F18835"/>
<path d="M41.7781 14.9374C41.9786 14.7647 42.1361 14.4375 42.4755 14.7028C42.5279 14.746 42.5588 14.8972 42.5249 14.9558C42.3305 15.2983 42.0559 15.1718 41.7906 15.0576L41.7781 14.9374Z" fill="#F9D29E"/>
<path d="M10.9233 27.1857C10.1705 26.6983 10.9757 26.1614 10.8739 25.6524C11.5033 25.5475 12.1296 25.4395 12.7589 25.3346C13.2803 25.2359 13.5302 25.5135 13.6506 25.9763C14.3046 26.834 14.607 27.7318 13.9622 28.7376C14.0732 27.8614 13.7462 27.0685 13.2217 26.4514C12.6911 25.8221 11.9568 25.4488 11.4848 26.6119C11.3274 26.8309 11.1516 27.0345 10.9233 27.1857Z" fill="#E9521D"/>
<path d="M15.8102 28.1262C16.3841 28.8604 16.3779 28.9283 15.7516 28.8604C15.4616 28.8296 15.1714 28.7838 14.8814 28.7437C14.5513 28.031 14.5515 28.0305 15.8102 28.1262Z" fill="#F07E2A"/>
<path d="M13.6535 25.9763C13.3573 25.7634 13.0581 25.5505 12.7619 25.3346C13.018 24.9304 13.3358 24.9767 13.6504 25.242C13.9189 25.4672 13.9991 25.7295 13.6535 25.9763Z" fill="#F28B4A"/>
<path d="M9.98229 24.6646C9.88048 24.3931 9.77558 24.1216 9.67377 23.8501C10.0471 23.7545 10.4203 23.7455 10.5283 24.199C10.6301 24.6217 10.3278 24.6985 9.98229 24.6646Z" fill="#F7AC67"/>
<path d="M15.2147 27.5557C15.0512 27.46 14.8322 27.4045 14.7427 27.2626C14.647 27.1145 14.7982 26.951 14.9772 26.9973C15.1654 27.0435 15.3998 27.1299 15.4924 27.2749C15.6374 27.5063 15.3535 27.4384 15.2147 27.5557Z" fill="#F08134"/>
<path d="M17.3588 29.0522C18.0406 29.3638 18.4048 30.3663 19.463 29.8635C18.4758 30.7181 17.7506 30.385 17.3588 29.0522Z" fill="#F28E3A"/>
<path d="M10.8524 29.0549C11.5466 28.3145 12.3733 29.5147 13.0768 28.8977C12.3888 29.6351 11.6299 29.3573 10.8678 29.0611L10.8524 29.0549Z" fill="#F28F3F"/>
<path d="M10.9233 27.1857C10.9078 26.7939 11.0959 26.6025 11.4877 26.6118C11.5433 26.8216 11.7438 27.0252 11.5371 27.2473C11.3149 27.488 11.1238 27.2505 10.9233 27.1857Z" fill="#FAC08C"/>
<path d="M1.93296 20.7189C2.32169 20.722 2.63021 20.8207 2.5068 21.302C2.48212 21.4007 2.29084 21.5488 2.20446 21.5303C1.68306 21.4223 1.93296 21.0243 1.93296 20.7189Z" fill="#FBD09C"/>
<path d="M6.58245 26.8648C6.60713 26.6303 6.58869 26.3401 6.93423 26.3586C7.13476 26.3679 7.35381 26.5931 7.23657 26.7227C7.11625 26.8584 6.80767 26.8247 6.58245 26.8648Z" fill="#F6A559"/>
<path d="M39.233 25.822C39.9086 25.7573 40.3745 25.2852 40.9483 25.0014C40.7355 25.8776 40.3344 26.4391 39.233 25.822Z" fill="#F28D41"/>
<path d="M15.5386 4.10527C15.4213 3.92941 15.264 3.78132 15.2948 3.7227C15.372 3.56536 15.5046 3.36174 15.6527 3.32471C15.8471 3.27844 16.0507 3.45121 15.9767 3.67334C15.9211 3.8276 15.7237 3.92941 15.5386 4.10527Z" fill="#FACD9B"/>
<path d="M9.00437 10.1956C8.19297 10.6275 8.45829 9.9611 8.41201 9.61247C9.20491 9.19906 9.05682 9.74514 9.00437 10.1956Z" fill="#F9BA7E"/>
<path d="M11.491 5.56123C11.7655 5.62294 12.1881 5.64814 11.9197 6.06155C11.6944 6.40401 11.4168 6.15411 11.2193 5.91347C11.3088 5.79623 11.3984 5.67847 11.491 5.56123Z" fill="#FAC893"/>
<path d="M3.16714 17.942C2.5501 17.942 1.93307 17.942 1.31603 17.942C1.43635 17.4576 0.584842 16.6648 1.35614 16.5691C2.03488 16.4827 2.73213 17.2386 3.16714 17.942Z" fill="#EB621D"/>
<path d="M34.6329 5.58C34.8797 5.71884 34.9384 5.95314 34.9539 6.20612C34.8366 6.51464 35.3395 6.90338 34.8428 7.15327C34.7256 7.21189 34.4726 7.24274 34.4325 7.18104C34.2412 6.90646 34.3399 6.60411 34.4356 6.30794C34.5127 6.07038 34.5681 5.82373 34.6329 5.58Z" fill="#F08136"/>
<path d="M28.4778 7.12876C28.4994 6.81098 28.5611 6.52098 28.9745 6.558C29.0455 6.56417 29.1689 6.67523 29.1627 6.72151C29.0948 7.10716 28.7678 7.09173 28.4778 7.12876Z" fill="#F28D46"/>
<path d="M12.725 21.3326C12.0185 21.419 11.744 20.1331 10.8339 20.7347C10.7568 20.784 10.658 20.3644 10.7259 20.096C10.9172 19.3618 11.6854 19.7381 12.0556 19.3679C12.4258 19.9541 13.0275 19.7721 13.5519 19.9171C14.3325 20.1331 13.3606 20.407 13.342 20.7125C13.1353 20.9192 12.9286 21.1259 12.725 21.3326Z" fill="#EC682A"/>
<path d="M14.5855 21.0367C14.4004 21.0151 14.1135 20.9811 14.1783 20.7713C14.3233 20.3147 14.7274 20.1358 15.1902 20.1019C14.9897 20.4135 14.786 20.7251 14.5855 21.0367Z" fill="#EF7C41"/>
<path d="M15.8164 17.6243C15.5511 17.6243 15.3197 17.5595 15.1871 17.3003C14.968 17.0381 14.9001 16.7265 14.8878 16.3933C15.5943 16.1897 16.1619 15.0114 17.0473 16.0881C16.637 16.6003 16.2268 17.1122 15.8164 17.6243Z" fill="#E94C1C"/>
<path d="M14.8878 16.3933C15.2395 16.6124 15.2056 16.9579 15.1871 17.3003C14.749 17.1584 14.5731 16.841 14.5823 16.3998C14.6841 16.3998 14.786 16.3964 14.8878 16.3933Z" fill="#F07E39"/>
<path d="M37.4064 21.6414C37.3324 22.2461 36.9776 22.3356 36.3852 22.1412C36.5549 21.5705 37.0146 21.6661 37.4064 21.6414Z" fill="#EA561C"/>
<path d="M10.513 22.2371C9.88052 21.9964 9.31285 21.7126 9.54115 20.605C9.98541 21.3485 10.2507 21.7928 10.513 22.2371Z" fill="#EF7832"/>
<path d="M8.33482 12.4229C8.32556 12.5956 8.31939 12.7715 8.31014 12.9442C7.92758 12.9227 7.30431 13.0431 7.38144 12.5094C7.4524 12.0158 7.97077 12.0711 8.33482 12.4229Z" fill="#F9BF90"/>
<path d="M9.95145 15.1594C9.96071 15.2674 9.96697 15.3786 9.97623 15.4866C9.90835 15.9031 9.75718 16.2394 9.16791 16.3103C9.10621 15.6439 9.55038 15.4155 9.95145 15.1594Z" fill="#F07F3B"/>
</svg>
