<svg width="51" height="40" viewBox="0 0 51 40" fill="none" xmlns="http://www.w3.org/2000/svg">
<path d="M26.4216 37.78C25.4628 37.537 25.1228 38.3502 24.5608 38.8176C22.6292 40.4066 21.1935 40.3879 19.3044 38.7989C19.3186 37.6445 20.0884 38.1726 20.556 38.3128C22.4498 38.8783 23.1346 37.9576 23.2479 36.2705C23.2385 35.6162 23.4651 35.032 23.7768 34.4712C24.0885 33.9571 24.4569 33.4664 24.4805 32.8261C24.5089 32.4148 24.523 32.0082 24.5844 31.6016C24.6742 31.1904 24.8158 30.8165 25.2267 30.6249C25.3731 30.4192 25.8879 31.1483 25.8359 30.3912C26.1335 29.5406 25.2881 29.779 24.9764 29.5079C24.3955 29.0639 23.7721 28.863 23.0637 29.1714C22.8181 29.2883 22.5678 29.4051 22.3222 29.4986C21.7083 29.9005 22.4545 29.8164 22.5159 29.9799C22.6859 30.0968 22.7992 30.251 22.8559 30.4473C21.5524 32.3541 20.9904 32.3073 19.7248 30.2557C19.0872 31.8727 20.6599 34.331 17.8404 35.2517C17.5476 35.4059 17.2453 35.5227 16.91 35.5367C16.1166 34.5366 15.7105 33.1252 14.1047 33.0037C13.9111 32.8915 13.7505 32.7467 13.623 32.5597C13.9914 31.1764 15.0587 31.4848 16.041 31.5736C17.2831 31.6344 17.7034 30.938 17.6232 29.8397C17.557 28.9705 17.609 28.1526 18.2513 27.4749C18.6008 27.101 19.243 27.545 19.5264 27.0169C19.3328 26.1523 18.5583 25.498 18.6291 24.5493C18.5677 23.9932 19.3894 23.4323 18.7802 22.9603C18.4402 22.6986 18.0199 23.2921 17.609 23.4464C17.0989 23.9417 15.7577 22.8295 15.8002 24.3764C15.2146 25.8439 16.2252 26.9375 16.7022 28.1573C16.7731 28.3629 16.8014 28.5779 16.7872 28.7975C16.6881 29.2368 16.4944 29.6154 16.1308 29.8958C15.9183 29.9612 15.7057 29.9566 15.4932 29.8911C14.5392 29.2228 13.3727 28.8583 12.5935 27.9329C12.4518 27.6292 12.4235 27.3114 12.4896 26.9842C12.943 25.9 13.3208 24.8064 12.9241 23.6146C12.8721 22.9042 13.0657 22.2873 13.6136 21.8013C14.747 22.507 15.5357 21.39 16.5133 21.2592C17.7176 20.9787 18.9125 20.6563 20.1593 20.6703C21.3683 20.8666 21.3872 22.0209 21.8925 22.7874C21.1841 24.1474 22.5206 25.3345 22.242 26.6477C23.007 26.9749 23.9138 26.5122 24.6364 27.0496C25.7462 27.4188 27.1819 26.7646 27.9942 28.0731C28.4429 28.8022 29.0379 27.9423 29.5291 28.2087C30.6437 28.8536 29.5669 30.0874 30.2375 30.966C31.5599 30.008 29.8361 28.5639 30.8892 27.6619C32.8208 27.2179 34.7005 26.1804 36.7596 27.1291C36.9107 27.3207 36.9815 27.5404 36.9863 27.7834C36.8351 28.1245 36.5423 28.2975 36.207 28.419C35.135 28.8256 33.8598 28.433 32.9011 29.2509C32.7453 29.6481 32.9483 29.9332 33.2034 30.2043C33.3025 30.3819 33.3545 30.5688 33.3734 30.7651C33.3498 31.2838 33.1798 31.7605 32.9956 32.2326C32.9058 32.4195 32.7878 32.5831 32.6366 32.728C31.7818 33.1439 31.1821 33.7702 30.9601 34.7189C30.8798 34.9245 30.7523 35.0881 30.5823 35.2283C29.2221 35.8405 28.202 35.6396 27.7486 34.0739C28.372 33.2327 28.032 32.8822 27.1064 32.8308C26.4641 33.4383 26.5727 34.345 26.2185 35.06C26.0154 35.8265 26.516 36.1396 27.0875 36.4434C27.5692 36.7005 28.1406 37.0884 27.8431 37.6492C27.5881 38.1726 26.9363 38.0044 26.4216 37.78Z" fill="#EE8477"/>
<path d="M30.7098 1.3266C32.2352 2.2613 33.5954 0.667631 35.2058 1.12096C38.0961 1.93883 39.8057 3.87366 41.18 6.28987C41.1564 6.40204 41.1375 6.50953 41.1186 6.62169C40.0513 7.95832 38.847 7.91626 37.5483 6.98155C37.3877 6.84135 37.2507 6.6731 37.1421 6.49084C37.024 6.21042 36.9863 5.91132 36.9815 5.61221C36.9438 5.21964 36.736 4.92521 36.4006 4.7149C35.2105 3.83628 33.9212 3.50446 32.4808 3.99985C30.9412 3.47174 30.0108 5.34115 28.5137 4.99531C28.0462 4.92053 27.6353 4.71957 27.248 4.46253C26.6624 4.04659 26.1051 3.60727 26.124 2.79408C26.1571 2.56508 26.2374 2.3501 26.3696 2.15848C26.6577 1.9435 26.9836 1.88275 27.333 1.90611C28.5704 2.34542 29.6094 1.66776 30.7098 1.3266Z" fill="#F4A599"/>
<path d="M32.6083 32.6158C32.6178 32.4382 32.6272 32.2559 32.6366 32.0783C33.4159 31.4755 34.3132 31.2745 35.2814 31.2932C35.8906 31.3773 36.2779 31.7839 36.6509 32.2092C37.1657 32.7326 37.5766 32.8448 37.7324 31.9335C37.7891 31.5128 37.8647 31.1016 38.1433 30.7651C38.7714 30.4006 39.102 30.9801 39.5507 31.1904C41.9545 31.6717 41.2698 29.8818 41.4162 28.7087C41.6051 28.2087 41.9782 28.0965 42.4646 28.204C43.3666 29.6201 45.2604 29.0686 46.3561 30.1155C46.4836 30.3211 46.4647 30.5127 46.3042 30.695C46.0255 30.8212 45.7138 31.0969 45.4682 31.0502C42.6441 30.4987 41.742 32.0737 41.5389 34.4572C41.3548 34.6067 41.1611 34.6161 40.9581 34.4946C40.5897 34.2328 40.1599 33.7094 39.7443 34.0786C38.6817 35.018 37.1893 35.1208 36.1409 36.0321C35.9945 36.6397 35.3144 36.4528 34.9838 36.7939C34.5304 37.1304 34.0771 37.4669 33.6237 37.8034C32.8869 37.3641 32.8869 37.3641 33.6237 35.8499C33.8504 35.3965 34.011 34.9058 34.2896 34.4805C34.7949 33.5225 33.8268 33.8496 33.5056 33.6159C33.1845 33.5412 32.8917 33.4196 32.6366 33.214C32.4902 33.013 32.4855 32.8168 32.6083 32.6158Z" fill="#EB7F71"/>
<path d="M16.1072 32.1157C15.2618 32.0082 14.3598 31.611 13.7316 32.5878C13.4199 33.429 13.1224 34.2749 13.6089 35.1535C13.6703 35.7237 13.6183 36.2425 12.9713 36.4761C12.1306 36.4341 11.3183 36.0321 10.4541 36.2798C9.78819 36.4387 9.12701 36.649 8.45166 36.7472C6.79871 36.9902 5.34884 35.7517 5.49525 34.102C5.55664 33.3916 5.70777 32.7607 5.18355 32.1812C5.36301 31.639 5.41968 31.0642 5.55192 30.508C5.81639 29.9052 6.09975 29.3256 6.84594 29.1854C8.57917 30.1669 9.12228 31.6437 8.68307 33.5271C8.52722 34.4291 8.33832 35.2984 7.57324 35.1582C8.37137 34.7423 10.2982 35.8592 10.7611 33.5692C11.1294 32.9289 11.2947 32.1905 11.7576 31.597C12.466 31.3493 13.1555 31.0782 13.8355 30.7604C15.1673 30.1342 16.0127 30.5875 16.1072 32.1157Z" fill="#F09386"/>
<path d="M5.78333 9.72958C7.10569 7.33207 9.40565 6.31791 11.8615 5.52342C12.551 5.53744 13.2783 5.36919 13.8686 5.90665C14.185 6.46747 14.1709 6.9909 13.6655 7.44891C11.9795 7.71062 11.4081 9.35103 10.1896 10.1876C10.6949 9.83707 11.1625 9.73893 11.5734 10.3325C11.7151 11.0148 11.3231 11.3373 10.7469 11.5336C10.0952 11.7439 9.26869 11.5803 8.91921 12.4075C8.46111 13.0711 8.8342 14.2302 7.67714 14.4732C7.04902 14.0479 7.03485 13.3282 6.8176 12.7066C6.76093 12.4963 6.72315 12.2813 6.70426 12.0663C6.39728 11.5195 7.45517 10.6877 6.32172 10.3044C5.99113 10.239 5.86362 10.0053 5.78333 9.72958Z" fill="#F29A8C"/>
<path d="M48.6844 18.5766C51.5889 22.4649 51.603 22.5537 49.6053 25.0914C48.7316 24.9372 47.6785 26.0682 46.9653 24.7316C46.4883 24.367 48.0043 23.3015 46.375 23.236C45.8791 23.2174 45.8744 22.306 46.2097 21.862C46.9087 20.9367 47.1117 19.773 47.806 18.857C48.0516 18.6046 48.3113 18.413 48.6844 18.5766Z" fill="#F4A497"/>
<path d="M0.470285 27.9843C-0.223953 27.0216 -0.153112 26.0074 0.70642 25.3017C1.39121 24.7409 1.21647 24.311 0.942556 23.7408C1.18341 23.5398 0.805597 23.8202 1.06062 23.638C1.10313 23.6099 1.07007 23.6473 0.956724 23.7595C-0.275903 22.292 1.56123 21.8527 1.92488 20.918C2.70885 20.4787 3.45504 20.4273 4.11621 21.147C4.53181 23.0257 4.25317 24.8671 3.78563 26.6991C3.2614 27.2085 2.62856 27.5263 1.9296 27.718C1.77375 27.7413 1.54234 27.7927 1.48094 27.7039C0.857547 26.8393 0.70642 27.545 0.470285 27.9843Z" fill="#F2A091"/>
<path d="M13.7978 5.99544C13.1366 5.88795 12.381 6.17771 11.8567 5.51874C13.2547 5.08878 14.2039 4.24287 15.0634 3.00906C16.4236 1.06021 18.6008 0.924674 20.8063 1.29856C20.197 2.99972 18.3882 2.07436 17.3162 2.84549C16.57 3.38295 16.4378 3.6026 17.3965 3.89703C18.1002 4.97194 15.9749 5.38321 16.7872 6.48149C16.7636 7.45825 16.2583 8.28547 15.9324 9.16876C15.7719 9.45385 15.5452 9.67817 15.2524 9.83707C14.5203 9.96326 13.7789 10.2203 13.1035 9.66883C12.9477 9.36972 12.9335 9.0566 13.028 8.7388C13.2121 7.80877 15.1485 7.35544 13.7978 5.99544Z" fill="#EE8F82"/>
<path d="M34.0582 35.8405C34.3699 36.593 32.9247 36.9622 33.6237 37.7987C31.2198 39.57 28.8207 38.2427 26.4216 37.7847C26.7758 37.6959 27.4086 37.6585 27.4417 37.5043C27.5692 36.8967 26.9836 36.8921 26.5727 36.8033C25.2125 36.5088 24.4239 36.0602 26.0107 34.9152C26.8891 34.3403 27.4842 34.8871 28.0792 35.4246C28.4807 36.1163 28.8868 36.7939 29.888 36.5369C31.4701 36.9949 32.2447 35.3218 33.5906 35.1629C33.9401 35.261 34.2046 35.4152 34.0582 35.8405Z" fill="#F3A598"/>
<path d="M45.9169 8.67804C48.2216 10.3325 48.2971 10.8232 46.7953 14.3704C46.3608 14.5573 45.898 14.3003 45.4588 14.4545C44.297 13.5432 44.2262 11.8373 42.918 11.0335C42.7385 10.4259 42.748 9.81371 42.8613 9.19213C43.0124 8.91172 43.2297 8.70608 43.5319 8.58457C44.3253 8.54251 45.1282 8.4911 45.9169 8.67804Z" fill="#F09083"/>
<path d="M47.2345 24.6054C47.8438 25.6382 49.015 23.9791 49.6053 25.0868C49.3928 25.5354 48.6561 25.7083 48.8969 26.3953C49.7517 28.8443 48.1413 29.8304 46.3042 30.6856C46.3089 30.5501 46.3089 30.4146 46.3089 30.279C46.6064 29.2929 45.1282 29.7556 45.2038 28.9518C45.2793 28.405 45.5296 27.9797 46.0775 27.7881C46.3278 27.7273 46.8189 28.0358 46.7009 27.3908C46.4553 26.8674 46.1058 26.3953 45.9405 25.8392C45.813 25.2877 45.813 24.7549 46.1436 24.2596C46.682 23.8343 46.9559 24.2315 47.2345 24.6054Z" fill="#F09689"/>
<path d="M23.6257 36.3126C23.9846 38.3128 23.1393 39.2335 21.321 39.1868C20.5843 39.1681 20.1356 37.9763 19.3044 38.7989C18.6196 38.439 18.1001 38.9671 17.5098 39.126C17.2406 38.9811 16.9525 38.8549 16.9053 38.5044C17.1651 37.6071 18.1096 37.4809 18.6905 36.9482C19.0966 36.6397 19.4839 36.3079 19.9987 36.1817C20.2018 36.1677 20.4001 36.2051 20.5843 36.2939C21.1888 36.6677 21.8169 36.7939 22.4875 36.4621C22.8559 36.3126 23.2148 36.0882 23.6257 36.3126Z" fill="#F39A8D"/>
<path d="M43.4894 8.74814C43.3289 8.91172 43.1683 9.07062 43.0124 9.23419C42.4221 9.86979 41.6334 8.96313 41.0289 9.49591C39.6451 9.89783 38.1622 10.5802 37.638 8.39763C38.3322 7.48162 39.5176 7.90224 40.3913 7.41619C40.8116 7.18252 41.2461 7.13111 41.1092 6.52355C41.1375 6.44877 41.1611 6.36932 41.1847 6.28987C42.4032 6.59833 43.8814 6.34128 44.5851 7.79475C44.4009 8.32285 43.8578 8.43969 43.4894 8.74814Z" fill="#F3998A"/>
<path d="M7.11986 12.0196C7.11986 12.1832 7.12458 12.3468 7.12458 12.5057C6.30283 14.2722 5.20716 15.908 4.64988 17.7914C4.54126 17.9924 4.38541 18.1419 4.18706 18.2541C3.49282 18.3522 2.86942 18.1793 2.31686 17.7587C1.33454 16.366 3.05361 15.8052 3.2614 14.777C3.85174 13.6507 5.43857 13.403 5.74555 12.0243C5.88723 11.7953 5.96279 11.5102 6.26977 11.4167C6.7137 11.384 6.87428 11.7626 7.11986 12.0196Z" fill="#F3A093"/>
<path d="M48.6844 18.5766C48.5238 18.7355 48.3633 18.8944 48.198 19.0486C47.1826 19.6187 46.8614 18.7822 46.4128 18.1887C45.9216 17.2353 45.7516 16.3005 46.682 15.4967C47.6029 14.6975 48.3963 15.3004 49.1897 15.7631C50.1909 16.9081 49.1945 17.6979 48.6844 18.5766Z" fill="#F2988A"/>
<path d="M17.4768 4.06528C16.8156 4.16342 16.1497 4.25689 15.2996 4.38308C15.7199 2.45292 17.269 2.21457 18.6669 1.8033C19.3706 1.59766 20.2348 2.05099 20.8063 1.29856C21.1227 1.31725 21.4438 1.33594 21.7602 1.35464C21.9303 1.83134 21.6469 2.1211 21.3258 2.39683C20.6079 2.71463 20.0034 3.20535 19.432 3.73813C18.7519 3.6727 18.2088 4.43916 17.4768 4.06528Z" fill="#F4A598"/>
<path d="M21.2974 2.20989C21.4533 1.92481 21.6091 1.63972 21.765 1.35464C23.1771 -0.0474173 24.8536 -0.416625 26.601 0.508731C27.9281 1.21443 29.2694 1.41072 30.7098 1.3266C29.6849 1.90611 28.8538 3.20068 27.4039 2.20522C25.7368 1.26117 24.098 1.13966 22.497 2.35944C22.19 2.49965 21.8736 2.53236 21.5477 2.42487C21.4627 2.35477 21.3824 2.27999 21.2974 2.20989Z" fill="#EF9182"/>
<path d="M18.9266 37.266C18.2891 37.724 17.6515 38.182 17.0139 38.64C15.5877 39.6261 14.9029 37.6632 13.6844 37.8221C13.1649 36.4715 11.6678 37.0884 10.8036 36.4247C11.4175 35.8919 12.074 36.0602 12.7352 36.3032C13.3397 36.0508 13.2358 35.504 13.2783 35.018C13.4294 34.8497 13.6183 34.789 13.8403 34.8497C14.8934 35.4199 15.1626 36.9622 16.6078 37.0463C17.0092 36.9762 17.302 36.6771 17.6798 36.5603C18.2891 36.4808 18.7235 36.6771 18.9266 37.266Z" fill="#F3A598"/>
<path d="M49.1945 15.7631C46.682 15.2584 46.2522 15.6836 46.7906 18.1419C46.9228 18.2541 46.9701 18.3709 46.9276 18.4924C46.8898 18.6139 46.8473 18.6747 46.8048 18.6747C46.3089 18.7869 45.9783 18.5298 45.6949 18.1793C45.5202 17.9082 45.4257 17.6138 45.3643 17.3007C45.2841 16.8988 45.1849 16.4968 45.1754 16.0809C45.336 15.492 45.6052 14.9406 45.8272 14.3751C46.1436 13.8423 46.4695 14.3564 46.7906 14.3704C47.5651 14.8798 48.8119 14.59 49.1945 15.7631Z" fill="#EA7E70"/>
<path d="M41.147 34.4572C41.2792 34.4525 41.4067 34.4525 41.5389 34.4478C40.2071 37.5697 37.3971 36.6397 34.9838 36.7846C35.2955 36.4855 35.6025 36.1864 35.9142 35.8873C37.6002 35.2143 39.3996 34.9339 41.147 34.4572Z" fill="#ED9488"/>
<path d="M4.77739 32.0643C3.16695 31.6344 1.86821 30.7931 1.07007 29.2976C1.15508 28.9518 1.34399 28.7181 1.73125 28.6994C3.35114 29.5593 3.35114 29.5593 4.84351 28.9144C5.57081 29.9846 5.40079 31.0315 4.77739 32.0643Z" fill="#EE9484"/>
<path d="M2.34048 19.5393C2.18935 19.2262 2.0335 18.913 1.88237 18.6046C1.95322 18.2774 2.15629 18.0671 2.47271 17.9643C3.05361 18.0064 3.58727 18.5018 4.21067 18.1513L4.35707 18.0391C4.71128 17.8194 5.04659 17.8568 5.36773 18.1092C5.92029 19.4458 5.28745 20.1796 4.07371 20.6282C3.28502 20.6002 2.79386 20.1001 2.34048 19.5393Z" fill="#F3A093"/>
<path d="M13.6891 37.8221C13.7978 37.4155 13.8119 36.7706 14.4684 37.3314C15.224 37.9763 15.9749 38.5652 17.0187 38.64C17.1839 38.7989 17.3445 38.9624 17.5098 39.1213C15.786 39.9859 14.629 39.2148 13.6891 37.8221Z" fill="#ED9789"/>
<path d="M4.77739 32.0643C4.56959 30.9847 5.16938 29.7977 4.32401 28.8069C3.86119 28.5685 3.68645 28.1666 3.65811 27.6759C3.71951 27.4422 3.86591 27.274 4.08788 27.1712C4.57432 27.0403 5.01825 27.0824 5.40079 27.4422C5.67943 27.8301 5.75972 28.2788 5.78805 28.7415C5.85417 29.4051 5.66054 30.0594 5.70304 30.723C6.05252 31.3913 6.3595 32.0456 5.17882 32.1812C5.04187 32.1671 4.90491 32.1298 4.77739 32.0643Z" fill="#DC6859"/>
<path d="M2.46327 18.0344C2.26964 18.2214 2.07601 18.413 1.8871 18.5999C0.914219 16.824 1.63679 15.6463 3.25668 14.7817C3.80452 15.9781 1.75958 16.4735 2.4491 17.712C2.45382 17.8194 2.45854 17.9269 2.46327 18.0344Z" fill="#EF9083"/>
<path d="M43.4894 8.74814C43.4989 8.0331 43.957 7.82279 44.5804 7.79475C45.1613 7.88822 45.5721 8.23406 45.9169 8.67804C45.1235 9.27158 44.3159 9.31364 43.4894 8.74814Z" fill="#F7B6AA"/>
<path d="M1.49039 28.8349C1.34871 28.9892 1.21175 29.1434 1.07007 29.3023C0.871715 28.863 0.668639 28.4237 0.470285 27.9843C0.30499 26.171 1.38649 27.5544 1.8871 27.4422C2.04767 27.5731 2.14685 27.7366 2.17046 27.9423C2.15157 28.3863 1.89654 28.6667 1.49039 28.8349Z" fill="#EB8C7D"/>
<path d="M2.34048 19.5393C2.88359 19.7683 3.49282 19.8945 3.82813 20.4553C3.92731 20.5628 3.95092 20.6609 3.90369 20.7544C3.85647 20.8432 3.81868 20.8853 3.77618 20.8853C3.16695 21.3994 2.54355 20.8759 1.9296 20.918C2.07128 20.4553 2.20352 19.9973 2.34048 19.5393Z" fill="#F7BBAC"/>
<path d="M6.22726 11.5195C6.06197 11.6878 5.89668 11.856 5.7361 12.0243C5.17882 11.2485 5.29689 10.482 5.78333 9.72491C5.92029 9.87914 6.06197 10.0334 6.19893 10.1876C6.57675 10.6269 6.59091 11.0709 6.22726 11.5195Z" fill="#DF8478"/>
<path d="M12.7399 36.3032C12.0976 36.3453 11.4506 36.3827 10.8083 36.4247C10.6761 36.406 10.558 36.3593 10.4494 36.2798C11.2239 35.6723 11.9842 35.6209 12.7399 36.3032Z" fill="#E5796A"/>
<path d="M20.3576 20.918C19.0683 21.2124 17.779 21.5069 16.4897 21.8013C16.0552 21.4087 15.3563 21.8854 14.9643 21.3479C14.4495 20.2216 15.1012 19.1701 15.1721 18.0812C15.2287 17.8709 15.3138 17.6699 15.4177 17.4783C16.4472 16.4735 16.5558 15.0294 17.1934 13.8329C17.472 13.3796 17.7507 12.9169 18.341 12.8048C19.3328 13.0571 20.3245 13.3002 21.3683 13.174C22.1806 13.431 22.5678 14.0853 22.8984 14.791C22.9362 15.0107 22.9268 15.2303 22.8559 15.4453C22.6953 15.7911 22.445 16.0669 21.9917 16.4688C22.7284 16.3613 23.3896 16.2445 23.7343 16.8193C24.1736 17.5577 23.791 18.2588 23.4888 18.9458C23.3707 19.128 23.2243 19.2916 23.059 19.4318C22.1286 19.8758 21.6611 21.147 20.3576 20.918Z" fill="#F2998B"/>
<path d="M5.31106 28.8489C5.278 28.3956 5.24022 27.9376 5.20716 27.4843C4.69711 26.7786 4.82934 26.1523 5.45746 25.5915C6.27449 25.2223 6.70426 25.8906 7.25209 26.2458C7.68186 26.7973 8.06912 26.6571 8.59806 26.2925C9.7079 25.5261 10.4446 26.0355 10.7563 26.6991C10.4258 26.2178 10.2605 25.2597 10.4777 24.2362C10.6761 23.3809 11.3797 22.8388 11.8142 22.1331C12.1684 20.8198 10.9027 21.1143 10.3549 20.6983C9.78346 20.3525 9.17423 20.0487 8.90504 19.3851C9.07506 18.684 9.62761 18.628 10.2132 18.6326C11.0633 19.0018 11.7198 18.7308 12.2345 18.0157C12.9807 17.5998 12.891 16.6511 13.4719 16.123C14.2228 15.4406 15.0965 15.0107 15.9655 15.679C16.877 16.3847 15.9419 17.0156 15.6255 17.6465L15.6349 17.6325C15.0965 18.1466 15.2854 18.9645 14.8462 19.5206C14.1756 19.9038 14.0056 20.5254 14.0056 21.2358C13.9819 21.4461 13.8969 21.6237 13.7553 21.7732C13.5852 22.4088 13.4152 23.0444 13.2452 23.68C13.4341 24.8297 12.721 25.8626 12.8013 26.9982C12.8013 27.3067 12.8013 27.6198 12.7965 27.9283C13.4152 28.5779 13.9631 29.2976 13.1602 30.1108C12.3148 30.966 11.4931 30.6342 10.7894 29.8304C9.97709 28.2087 8.21552 29.3677 7.10569 28.6106C6.34061 27.5263 5.92973 28.9471 5.31106 28.8489Z" fill="#F4A296"/>
<path d="M17.5145 34.9292C18.6196 34.4338 19.4981 33.8917 18.9644 32.3915C18.648 31.4942 19.2572 30.6109 19.5359 29.5967C20.4898 30.5828 21.2077 32.6906 22.7331 30.3024C22.8701 30.1482 23.0401 30.0687 23.2432 30.0641C23.8288 30.2697 23.7863 30.6342 23.5029 31.0455C23.3187 31.1343 23.3471 31.2137 23.5643 31.1483C23.8619 31.0595 23.3707 31.0081 23.6966 31.0034C23.8619 30.9287 24.0224 30.9006 24.1972 30.9146C24.6269 30.9847 24.8111 31.3399 25.0614 31.6157C25.0614 32.0924 25.0614 32.5737 25.0614 33.0504C24.5466 33.5972 23.8099 33.7842 23.2148 34.2001C22.8984 34.317 22.5867 34.3357 22.2797 34.1814C21.7461 33.9571 21.288 33.6253 20.8724 33.1065C21.1746 33.8823 21.9114 34.0179 22.4073 34.4385C22.6481 34.8311 22.6528 35.2376 22.4923 35.6583C21.8405 36.0836 21.1746 36.4715 20.3387 36.3266L20.3482 36.3312C19.6256 35.4293 17.8546 36.5883 17.5145 34.9292Z" fill="#F3998E"/>
<path d="M38.285 30.723C38.2614 31.2044 38.2425 31.6858 38.2189 32.1718C37.4632 32.3307 36.9485 32.069 36.7076 31.3259C36.9343 30.6249 36.7785 29.9566 36.5376 29.2883C36.3629 28.7601 37.0524 28.4143 36.8446 27.8769C36.8587 27.7413 36.8729 27.6011 36.8776 27.4656C36.8776 27.3581 36.8824 27.2553 36.8824 27.1478C36.9626 26.5729 37.3027 25.956 36.6084 25.5074C36.3487 25.1382 36.1645 24.7549 36.3062 24.2876C37.468 23.4323 38.5117 22.1191 40.193 23.3155C40.2638 24.0446 39.2295 24.4044 39.5554 25.2176C39.7065 25.4934 39.4515 25.1756 39.6074 25.4466C41.5012 28.662 41.5012 28.662 38.285 30.723Z" fill="#F29B8D"/>
<path d="M10.9122 29.3023C11.4175 29.6528 11.6773 30.5361 12.5604 30.0781C13.7269 29.4752 12.721 28.6386 12.7871 27.9189C13.8592 28.3442 15.1296 28.4751 15.6207 29.7743C14.3409 30.3398 13.2074 31.1904 11.8709 31.6484C11.7764 32.4008 12.1401 33.3916 10.8839 33.5599C10.4305 33.8823 10.0999 33.7421 9.84958 33.2935C9.82125 32.8308 10.251 32.5831 10.3738 32.1952C10.3927 31.7699 10.421 31.3399 10.0432 31.0081C10.0007 31.368 10.1707 31.7045 10.1093 32.055C9.85903 32.5223 9.48121 32.9149 9.24508 33.3916C8.90032 33.7281 8.52722 33.901 8.07857 33.5645C8.91921 31.7185 7.7102 30.5408 6.65703 29.3163C6.53896 29.106 6.56258 28.905 6.7137 28.7181C8.12107 28.8209 9.58983 28.5265 10.9122 29.3023Z" fill="#E67D71"/>
<path d="M11.8662 31.6484C12.7682 30.3398 14.015 29.7089 15.616 29.7743C15.7671 29.7836 15.9183 29.7883 16.0694 29.7883C16.3764 29.5266 16.6644 29.2602 16.518 28.7975C16.5369 28.662 16.5558 28.5311 16.5747 28.3956C16.5464 27.7881 16.5511 27.1571 17.2076 26.8674C17.7979 26.6057 18.1993 26.9094 18.4307 27.4656C18.393 28.3442 18.0293 29.1247 18.2324 30.1248C18.4969 31.3913 17.8215 32.5036 16.1024 32.1157C15.4129 30.9894 14.6667 30.2557 13.4955 31.639C12.9807 32.2606 12.414 31.9755 11.8662 31.6484Z" fill="#F6B1A5"/>
<path d="M18.4355 27.4656C17.1225 26.4187 17.1934 28.0731 16.5794 28.3956C15.6585 27.1291 14.0764 26.0074 15.6396 24.1988C16.3905 23.6987 16.8109 24.1007 17.1414 24.7129C17.1934 24.7643 17.0281 24.8951 17.217 24.9279C17.4437 24.811 17.6657 24.8157 17.8971 24.8624C18.086 24.9232 18.2513 25.0167 18.4118 25.1288C19.0636 25.9046 19.7673 26.6337 20.3434 27.4656C19.7059 28.877 19.0683 27.6338 18.4355 27.4656Z" fill="#E0675C"/>
<path d="M17.5145 36.8266C17.5051 37.2052 17.4201 37.5464 17.0281 37.7286C15.3846 37.1071 14.5062 35.7985 13.8403 34.2842C13.6608 33.658 13.7505 33.0878 14.1992 32.5924C15.9277 32.756 17.1178 33.4524 17.0328 35.4059C17.472 35.7891 17.8735 36.1817 17.5145 36.8266Z" fill="#F3998E"/>
<path d="M36.8776 27.4656C34.7571 26.7365 32.8114 28.2227 30.7239 27.9376C30.28 28.0404 30.0864 27.7787 29.9541 27.4235C29.8361 26.7879 30.0911 26.2785 30.5161 25.8299C31.2576 25.1335 32.0841 25.2129 32.9153 25.6195C33.7181 26.0121 34.5588 26.1149 35.4372 26.0074C36.259 26.157 37.3593 26.0402 36.8776 27.4562L36.8776 27.4656Z" fill="#DB6255"/>
<path d="M21.7697 27.0076C21.8358 26.0495 21.6091 25.1662 21.1416 24.325C20.759 23.638 20.5937 22.9603 21.7177 22.8014C22.3553 22.035 21.2077 20.7825 22.4498 20.1749C23.2526 19.988 23.8052 20.231 24.0083 21.0629C24.0602 21.9415 23.7249 22.7967 23.8666 23.68C23.8619 24.2736 22.804 24.4745 23.2762 25.2457C22.7567 25.8158 22.9645 26.9982 21.7697 27.0076Z" fill="#F19084"/>
<path d="M30.2375 27.4749C30.3981 27.6292 30.5634 27.7834 30.7239 27.9376C31.0168 28.7321 31.4512 29.5079 31.5693 30.3305C31.7299 31.4334 30.7476 31.8821 29.9305 31.9008C29.0096 31.9241 29.4441 30.9801 29.3119 30.4379C29.1371 29.7276 30.1808 28.9938 29.2552 28.3115C29.0332 27.9843 29.0521 27.6665 29.2835 27.3534C29.633 27.1805 29.9541 27.1805 30.2375 27.4749Z" fill="#F4A298"/>
<path d="M27.9045 35.8546C27.3944 35.2984 26.7474 35.0227 26.0107 34.9152C25.4062 34.102 27.2575 33.1953 25.9115 32.4102C26.3932 31.9288 26.6908 32.2793 26.9836 32.6392C27.5597 32.8915 28.117 33.1533 27.9281 33.9478C28.4948 35.2984 29.5811 35.2143 30.7334 34.9385C31.1443 34.5787 31.5882 34.5179 32.0699 34.7937C32.0841 36.2985 30.757 36.1163 29.8833 36.5042C29.1466 36.5229 28.4476 36.42 27.9045 35.8546Z" fill="#E37669"/>
<path d="M36.8587 29.2976C37.4727 29.9285 38.2897 30.5595 36.8587 31.1904C36.429 31.5783 37.0335 32.3214 36.3629 32.6298C36.0559 32.3027 35.7536 31.9755 35.4467 31.6484C35.1161 31.1296 35.3994 30.2697 34.5352 30.0454C34.1621 29.9192 33.8032 29.7743 33.4442 29.6201C32.9814 29.4425 32.5327 29.2415 32.1833 28.877C33.2837 27.9049 34.7005 28.2554 35.9709 27.9937C36.4054 28.3442 36.5187 28.8957 36.8587 29.2976Z" fill="#F4A196"/>
<path d="M27.8431 28.4283C27.0922 26.9702 25.5101 28.3162 24.575 27.4796C24.6694 26.8907 23.6824 26.5683 24.1736 25.8813C25.1559 25.4186 26.0862 24.8064 27.2433 24.8765C27.947 25.2223 28.3909 25.8485 28.9152 26.386C29.0049 26.5823 29.0285 26.7879 28.9954 26.9982C28.6648 27.517 28.424 28.1059 27.8431 28.4283Z" fill="#F4A297"/>
<path d="M25.0661 31.6203C24.7497 31.4801 24.4333 31.3399 24.1169 31.2044C23.6399 31.0548 24.1736 29.9192 23.1865 30.2697C23.0354 30.2744 22.889 30.2837 22.7378 30.3071C22.5442 30.2884 22.3506 30.265 22.1522 30.2463C21.9539 29.9472 21.935 29.6528 22.1947 29.3724C22.3742 29.1948 22.5537 29.0172 22.7331 28.8443C23.6257 28.4797 24.3483 28.8817 25.0661 29.3303C25.5715 29.4051 26.2232 29.0826 26.5302 29.564C26.6482 29.7509 26.1807 30.3024 25.9823 30.6856C25.8879 30.8539 25.7557 30.8913 25.5904 30.7885C25.1889 30.9193 25.0803 31.2418 25.0661 31.6203Z" fill="#E3685D"/>
<path d="M24.1169 26.0635C23.7485 26.7038 26.6435 26.2972 24.5797 27.4796C23.7721 27.4188 22.8512 26.587 22.2325 27.8441C22.0956 28.1199 21.7319 28.3676 21.5572 28.0264C21.4344 27.7834 21.6847 27.3581 21.7697 27.0123C22.5726 26.6477 21.7366 25.0821 23.1534 25.1662C23.6966 25.2316 24.0083 25.5401 24.1169 26.0635Z" fill="#F9C4BA"/>
<path d="M34.5541 29.8164C34.9555 29.6902 35.3853 29.1527 35.7584 29.7229C36.1976 30.4006 35.7584 31.0362 35.4467 31.6531C34.5116 31.8073 33.6379 32.3401 32.6366 32.083C32.7878 31.6344 32.9436 31.1857 33.0947 30.737C33.5056 30.3071 33.8787 29.8257 34.5541 29.8164Z" fill="#F8BDB2"/>
<path d="M17.5004 23.2407C17.9868 22.549 18.596 21.4554 19.4461 22.077C20.6221 22.9416 19.3186 23.8156 18.9266 24.6521C18.7141 25.0213 18.4827 25.3625 17.9632 25.1382H17.9679C17.2595 24.6381 16.8722 24.0633 17.5004 23.2407Z" fill="#F5AA9F"/>
<path d="M17.5145 36.8266C17.354 36.3546 17.1934 35.8779 17.0328 35.4059C17.1934 35.247 17.354 35.0881 17.5145 34.9292C17.9396 35.5134 18.5346 35.476 19.1203 35.2937C20.1167 34.9899 20.2679 35.6069 20.3482 36.3312C19.8759 36.6397 19.3989 36.9528 18.9266 37.2613C18.4544 37.1211 17.9868 36.9762 17.5145 36.8266Z" fill="#E77A6E"/>
<path d="M22.2089 20.46C22.0814 21.3246 22.7237 22.1378 22.6151 22.8762C22.4403 24.0539 22.0247 23.0351 21.7225 22.7967C21.2691 22.1705 20.8157 21.5442 20.3623 20.918C21.3258 20.4787 21.7319 19.3243 22.8181 19.0392C23.2007 19.759 22.7142 20.1141 22.2089 20.46Z" fill="#D96257"/>
<path d="M22.2845 34.0272C22.6056 33.9945 22.922 33.9664 23.2432 33.9337C23.7107 33.8403 23.9799 34.0599 24.1169 34.4805C23.9563 35.0928 23.791 35.705 23.6257 36.3172C23.314 36.4808 22.9976 36.649 22.6859 36.8126C21.8547 36.8453 21.9728 36.3967 22.1995 35.8873C22.1995 35.4059 22.1995 34.9198 22.1995 34.4385C22.0719 34.2656 22.105 34.13 22.2845 34.0272Z" fill="#F7BBAF"/>
<path d="M32.1785 34.9666C31.6968 34.9572 31.2151 34.9432 30.7334 34.9339C30.7428 34.7937 30.7476 34.6535 30.757 34.5133C31.2482 33.8449 31.9093 33.401 32.665 33.0785C32.972 33.0738 33.2837 33.0738 33.5906 33.0691C33.9448 33.5038 34.4691 33.8309 34.5068 34.4665C34.4927 34.9666 34.606 35.5087 34.0582 35.8405C33.9023 35.6863 33.7418 35.5368 33.5859 35.3825C33.1939 34.9806 32.5894 35.2984 32.1785 34.9666Z" fill="#DF685B"/>
<path d="M17.5004 23.2407C17.6562 23.8716 17.8121 24.5072 17.9726 25.1382C17.6562 25.1288 17.3398 25.1195 17.0234 25.1101L17.047 25.1288C16.8156 24.4652 16.2961 24.2222 15.6349 24.2035C14.6762 23.638 14.5628 23.0818 15.7907 22.8668C16.3244 22.7734 16.9289 23.1005 17.5004 23.2407Z" fill="#F39A8B"/>
<path d="M12.7871 26.9889C11.7528 25.727 12.7399 24.7362 13.231 23.6754C14.1945 24.9232 13.7175 25.9841 12.7871 26.9889Z" fill="#E46C63"/>
<path d="M14.1992 32.5924C14.2181 33.2047 14.2417 33.8169 14.2606 34.4245C14.3787 34.9245 14.1472 35.0741 13.6797 34.99C13.5475 34.9853 13.4152 34.9946 13.2877 35.018C12.1306 33.9758 12.5179 33.2047 13.7316 32.5878C13.8875 32.5924 14.0433 32.5924 14.1992 32.5924Z" fill="#DB6E62"/>
<path d="M32.665 33.0785C32.4808 34.144 31.6165 34.331 30.757 34.5133C30.9506 33.4757 30.8373 32.1391 32.613 32.6205C32.6083 32.7747 32.6272 32.9243 32.665 33.0785Z" fill="#F7B8AB"/>
<path d="M27.9281 33.9431C27.6117 33.5084 27.3 33.0691 26.9836 32.6345C27.895 31.9288 28.7168 32.2559 29.0521 33.1439C29.4252 34.1347 28.4948 33.9197 27.9281 33.9431Z" fill="#F9C8BF"/>
<path d="M13.7411 21.7686C13.7458 21.6377 13.7411 21.5022 13.7364 21.3713C13.4861 20.9881 13.7458 20.8572 14.0528 20.7451C14.5062 20.7451 14.799 21.0395 15.1107 21.3059C15.5877 21.4274 16.1733 21.2592 16.4944 21.8013C15.5735 21.8667 14.6431 23.1519 13.7411 21.7686Z" fill="#F8BFB1"/>
<path d="M17.9679 25.1382C18.2891 24.9746 18.6102 24.8157 18.9313 24.6521C19.2147 25.6803 20.282 26.3252 20.3434 27.4656C19.3564 26.8814 18.5866 26.0916 17.9679 25.1382Z" fill="#F39A8B"/>
<path d="M27.8431 28.4283C27.9375 27.8208 27.7723 27.045 28.7782 27.0403C29.0804 27.0496 29.241 27.2085 29.2788 27.503C29.2694 27.774 29.2646 28.0451 29.2552 28.3162C28.7782 28.2834 28.4334 29.8304 27.8431 28.4283Z" fill="#F8C5BC"/>
<path d="M24.1169 34.4805C23.8241 34.2983 23.536 34.116 23.2432 33.9337C23.366 32.6532 24.4002 33.228 25.0661 33.0551C25.085 33.7468 24.7214 34.1908 24.1169 34.4805Z" fill="#DC6F64"/>
<path d="M32.188 28.8817C32.7169 28.8536 33.26 28.7742 33.5859 29.3397C33.7937 29.8397 33.5151 30.0828 33.09 30.2417C31.4371 30.6669 32.4241 29.3771 32.188 28.8817Z" fill="#F7BBAE"/>
<path d="M22.19 29.3677C22.1758 29.6575 22.1617 29.9519 22.1522 30.2417C21.4911 30.2837 20.6882 30.251 20.9196 29.3771C21.1557 28.4657 21.7508 29.2135 22.19 29.3677Z" fill="#F9CCC2"/>
<path d="M25.0661 29.321C24.2869 29.1574 23.5077 28.9985 22.7331 28.8349C23.6777 28.204 24.5608 27.8815 25.0661 29.321Z" fill="#F39B90"/>
<path d="M36.8587 29.2976C36.2779 29.0546 35.9284 28.6573 35.9756 27.9984C36.2684 27.9563 36.5565 27.9142 36.8446 27.8722C38.2708 28.3349 36.4195 28.8302 36.8587 29.2976Z" fill="#F8BDAD"/>
<path d="M33.09 30.2417C33.2553 29.9426 33.4206 29.6388 33.5859 29.3397C33.9968 29.3256 34.3463 29.4238 34.5541 29.8117C34.2329 30.3725 33.7984 30.7557 33.0947 30.7324C33.0947 30.5688 33.09 30.4052 33.09 30.2417Z" fill="#EC7E75"/>
<path d="M16.5228 28.8022C16.8534 28.9144 17.4295 28.8676 17.2642 29.4051C17.0989 29.9472 16.5086 29.7463 16.0741 29.7883C16.2205 29.4612 16.3716 29.1294 16.5228 28.8022Z" fill="#FBDAD0"/>
<path d="M25.5951 30.7838C25.7226 30.7417 25.8548 30.709 25.9871 30.681C26.3271 30.7931 26.8183 30.7511 26.7333 31.3166C26.7191 31.4194 26.5302 31.5502 26.4027 31.5736C25.7604 31.6951 25.5998 31.3072 25.5951 30.7838Z" fill="#F5AD9E"/>
<path d="M37.8316 8.31818C38.7384 9.8324 39.8813 9.61275 41.1139 8.75749C41.9971 9.80436 41.4681 10.7951 41.01 11.7953C40.4055 12.5664 39.8057 11.8 39.1965 11.7953C38.5778 11.7485 37.9308 12.0196 37.3357 11.6644C36.8965 11.3046 36.684 10.8466 36.6935 10.2857C37.0382 8.46306 34.9886 8.89302 34.4218 7.93028C34.1479 7.08437 34.1101 6.20108 34.0487 5.3318C34.0771 5.17758 34.0204 5.06541 33.8787 5.00933C33.8362 5.14486 33.789 5.27572 33.737 5.41593C33.6237 5.58417 33.4773 5.68699 33.2837 5.73373C32.358 5.68232 31.711 5.14954 31.1018 4.54198C31.1159 3.43903 32.2683 4.17744 32.6225 3.62129C34.3746 2.40618 35.6308 3.54185 36.9296 4.49992C36.8493 4.83174 36.6084 5.1028 36.5754 5.45331C36.5376 6.00012 36.9438 6.18238 37.3357 6.37867L37.3546 6.55159C37.7561 7.07035 37.7797 7.6966 37.8316 8.31818Z" fill="#ED8476"/>
<path d="M26.4877 2.21924C26.483 2.37347 26.4735 2.52302 26.4641 2.67724C26.3318 2.8268 26.1854 2.94831 26.0107 3.04178C25.6518 3.18198 25.2739 3.27545 24.9245 3.4437C24.7592 3.55119 24.5844 3.64466 24.4097 3.73813C24.0083 3.97648 23.4793 4.08865 23.4888 4.71022C23.5029 4.91119 23.4793 5.10747 23.4321 5.30376C23.3471 5.50005 23.2148 5.65428 23.0354 5.77111C22.7426 5.92067 22.4309 5.99544 22.105 6.03283C20.9574 5.72905 19.687 7.47695 18.6149 5.84122C18.5913 5.32713 18.7755 4.84108 18.7897 4.327C18.9408 3.52782 20.1451 4.21483 20.2301 3.31752C20.3671 3.03243 20.6032 2.87821 20.8865 2.77071C21.4202 2.68659 21.968 2.6679 22.445 2.37347C23.7721 1.70048 25.0709 0.38722 26.4877 2.21924Z" fill="#EF8478"/>
<path d="M27.4322 4.06061C27.7392 4.23353 28.0415 4.40645 28.3484 4.57937C29.9353 5.53744 29.94 6.53757 28.3626 8.60794C28.0084 9.03323 27.6211 9.41178 27.0308 9.47721C26.4499 9.45852 26.0485 9.05192 25.562 8.81825C25.0756 8.56588 24.5986 8.30416 24.3766 7.76203C24.3672 7.68726 24.32 7.56574 24.353 7.54705C25.6423 6.61235 26.7191 5.49538 27.4322 4.06061Z" fill="#E8786D"/>
<path d="M27.9234 8.31351C28.7215 7.14045 29.6236 5.98142 28.3484 4.57937C29.888 4.77098 30.9695 2.96233 32.6178 3.61662C32.1455 3.93442 31.6779 4.24755 31.2057 4.56535C31.3615 4.68686 31.4229 4.84576 31.3851 5.04204C31.2104 5.4907 31.3568 5.93936 31.3851 6.39269C31.2718 6.97221 31.0829 7.53303 30.9554 8.11255C30.8704 8.30883 30.7381 8.45371 30.5492 8.55186C29.9494 8.79021 29.3402 8.42567 28.7404 8.5799C28.424 8.60794 28.1406 8.57055 27.9234 8.31351Z" fill="#F2998B"/>
<path d="M27.4322 4.06061C27.8667 6.31324 26.0107 6.87874 24.6269 7.79007C24.2161 8.10787 23.8288 7.9256 23.4368 7.74334C23.2526 7.62183 23.1204 7.46293 23.0259 7.27131C23.007 7.05166 23.0779 6.86004 23.2148 6.68712C23.5313 6.39269 23.9091 6.20108 24.32 6.06554C25.7084 5.89262 25.921 5.02802 25.6423 3.87366C25.5951 3.42968 25.6659 3.02308 26.0107 2.69594C26.1665 2.69126 26.3177 2.68659 26.4735 2.67724C26.4121 3.39697 27.1064 3.6026 27.4322 4.06061Z" fill="#F29486"/>
<path d="M37.8316 8.31818C36.7737 7.96767 37.2366 7.21056 37.3499 6.54692C38.6061 7.28066 39.8577 7.29001 41.1045 6.52822C41.4587 6.91613 42.3749 7.36011 41.1659 7.7153C40.0891 8.02842 38.9462 8.12189 37.8316 8.31818Z" fill="#E57568"/>
<path d="M26.4877 2.21924C24.915 1.07423 23.6493 2.54171 22.2278 2.70528C22.1097 2.59779 22.0672 2.4903 22.105 2.38281C22.1428 2.27065 22.1806 2.21924 22.2184 2.21924C24.2775 0.317117 25.4062 0.317117 27.3992 2.20989C27.1016 2.20989 26.7947 2.21457 26.4877 2.21924Z" fill="#F7B9AE"/>
<path d="M37.331 6.374C35.5836 7.34142 36.0039 5.9674 35.9378 5.11215C36.5707 4.71957 36.9626 5.07943 37.3074 5.55146C37.3168 5.8272 37.3263 6.09826 37.331 6.374Z" fill="#FBD9CC"/>
<path d="M37.3121 5.55613C36.854 5.40658 36.3959 5.2617 35.9425 5.11215C36.0937 4.63077 36.5045 4.556 36.9249 4.49992C37.5152 4.68218 38.1244 4.86445 37.3121 5.55613Z" fill="#DB7468"/>
<path d="M38.285 30.723C38.3133 30.3211 38.4503 30.0033 38.8139 29.7603C40.2402 28.7975 41.8506 27.8628 39.2201 26.372C38.7903 26.129 39.0359 25.5214 39.2059 25.0821C39.3807 24.9559 39.5743 24.8905 39.7915 24.8858C40.4622 25.227 41.1045 25.1522 41.7137 24.7176C42.6771 24.568 43.565 24.1474 44.5331 24.0212C45.4966 24.4231 45.1376 25.026 44.7882 25.6336C44.1175 26.2598 44.2262 27.2272 43.7539 27.9423C43.4611 28.3021 43.1211 28.5545 42.6157 28.447C42.2001 28.4143 41.8176 28.4564 41.5956 28.877C40.9392 29.9145 40.1977 30.8866 39.2248 31.6624C38.9084 31.3446 38.5967 31.0362 38.285 30.723Z" fill="#E17668"/>
<path d="M41.147 34.4572C39.7774 36.2892 37.7608 35.7844 35.9095 35.8873C34.913 35.5741 34.7902 35.0834 35.9142 34.9993C37.246 34.8965 38.2189 34.5133 39.1965 33.5365C40.141 32.5971 41.0808 32.9243 41.147 34.4572Z" fill="#F5AA9E"/>
<path d="M39.2248 31.6531C39.5412 30.3305 40.3583 29.4238 41.5956 28.8676C42.4126 29.8023 42.2379 30.7324 41.4539 31.5456C40.7928 32.2279 40.0088 32.4709 39.2248 31.6531Z" fill="#F4A197"/>
<path d="M42.6157 28.4377C42.9085 28.2694 43.1966 28.1012 43.4894 27.9329C44.3773 27.718 45.1849 27.6619 45.3785 28.8489C45.5107 29.4425 47.0409 29.1434 46.3136 30.2837C45.2274 29.3817 42.866 30.9894 42.6157 28.4377Z" fill="#F5A99C"/>
<path d="M36.3629 32.6298C36.6132 32.1812 35.9425 31.4147 36.8587 31.1904C37.3121 31.5175 37.7655 31.8447 38.2189 32.1718C38.2992 32.784 38.3606 33.5131 37.6522 33.6814C36.9815 33.8356 36.6887 33.1205 36.3629 32.6298Z" fill="#F8BEB4"/>
<path d="M34.5068 34.4665C33.9165 34.1814 33.5387 33.7608 33.5906 33.0645C34.0912 33.2374 34.6107 33.3636 35.0783 33.5972C35.3002 33.7094 35.4183 34.0179 35.5836 34.2422C35.2247 34.317 34.8658 34.3917 34.5068 34.4665Z" fill="#F49E8E"/>
<path d="M9.88736 33.1252C10.218 33.2701 10.5485 33.415 10.8791 33.5599C11.1105 34.116 12.2629 34.0412 11.9654 34.8497C11.6914 35.6115 10.9358 35.233 10.3219 35.2143C9.26397 35.1769 8.35248 36.2892 7.18597 35.6536C6.77982 35.4339 6.28866 35.2797 6.25088 34.7189C6.22254 34.2983 6.40673 33.8823 6.78927 33.7702C7.56851 33.5412 7.32766 34.5133 7.45517 34.5413C8.43277 34.775 7.90383 33.9384 8.07384 33.5692C8.39026 33.4196 8.70669 33.2701 9.02311 33.1205C9.31119 32.77 9.59928 32.8401 9.88736 33.1252Z" fill="#F6AFA2"/>
<path d="M6.68064 28.8817C6.66175 29.0265 6.64759 29.1761 6.64759 29.3256C6.33116 29.793 6.01947 30.2603 5.70304 30.7277C5.00408 30.2183 5.30634 29.5032 5.31106 28.8489C6.01474 28.5732 5.29217 27.3955 6.21782 27.3534C6.78927 27.3254 7.11986 27.7881 7.1293 28.3909C7.09624 28.6573 6.80816 28.6994 6.68064 28.8817Z" fill="#F7B5A7"/>
<path d="M7.5449 14.3423C8.52722 13.847 7.63463 12.5711 8.52722 12.0383C8.82475 11.7626 9.15062 11.7579 9.5001 11.9355C9.65123 12.1271 9.72207 12.3468 9.72207 12.5898C9.5001 13.9731 9.19312 15.3425 8.81531 16.6978C8.56973 17.1465 8.19663 17.4736 7.77159 17.7493C5.62276 18.6747 5.45746 18.5812 5.22133 16.2538C5.67943 15.235 5.84945 13.875 7.5449 14.3423Z" fill="#F4A498"/>
<path d="M13.3302 8.66869C13.3066 9.00986 13.2783 9.35103 13.2547 9.69219C13.2924 10.0988 13.1696 10.4587 12.9477 10.7905C12.754 11.0241 12.5179 11.1924 12.2109 11.2485C11.512 11.2204 11.7481 10.468 11.375 10.1876C10.7847 10.3184 10.1896 10.4493 9.59928 10.5802C11.1719 9.88848 10.7611 6.96753 13.2783 7.36478C13.6939 7.78073 13.59 8.22004 13.3302 8.66869Z" fill="#E77365"/>
<path d="M7.5449 14.3423C6.41145 14.4826 5.86362 15.1836 5.67943 16.2351C5.18355 16.7866 5.74555 17.5811 5.23077 18.1279C4.94269 18.0999 4.64988 18.0718 4.3618 18.0438C4.45153 15.7911 5.32523 13.9264 7.12458 12.515C7.80937 12.9964 7.56851 13.6927 7.5449 14.3423Z" fill="#DD7065"/>
<path d="M11.3656 10.1876C11.6773 10.482 11.9937 10.7718 12.3054 11.0662C12.7399 10.8933 12.891 11.1597 12.9949 11.5008C12.9571 12.3748 12.0267 12.5991 11.6914 13.2581C11.3797 13.6039 11.0066 13.7722 10.5297 13.6507C10.0149 13.4076 9.67012 13.0151 9.47176 12.487C9.48121 12.3561 9.49065 12.2252 9.50482 12.0944C9.55677 11.5756 10.0102 11.398 10.3502 11.127C10.9594 11.1036 11.3514 10.8466 11.3656 10.1876Z" fill="#F09386"/>
<path d="M13.3302 8.66869C13.3113 8.23406 13.2924 7.80409 13.2735 7.36946C13.7741 7.03296 13.6891 6.48149 13.8025 6.00012C14.5912 5.54678 15.3657 5.25235 14.9784 6.66843C14.7423 7.52368 14.2842 8.32753 13.3302 8.66869Z" fill="#F9CDC2"/>
<path d="M6.22726 11.5195C6.21782 11.0756 6.20837 10.6316 6.19421 10.1876C6.45868 9.93522 6.70426 9.50525 6.99707 9.47254C7.5874 9.40711 7.37016 10.0334 7.37488 10.2857C7.38905 10.8606 7.21431 11.4401 7.11513 12.0196C6.82233 11.856 6.5248 11.6878 6.22726 11.5195Z" fill="#FBDCD4"/>
<path d="M8.3147 8.12657C8.79642 7.24794 9.36314 7.29468 10.1235 7.54705C9.77874 8.40698 9.16951 8.32753 8.3147 8.12657Z" fill="#F6B2A6"/>
<path d="M10.3455 11.127C10.2368 11.599 9.92987 11.8981 9.5001 12.0944C9.17423 12.0757 8.85309 12.057 8.52722 12.0383C8.69724 10.8793 9.53788 11.0288 10.3455 11.127Z" fill="#FBD9CF"/>
<path d="M46.7859 18.5812C46.7906 18.4363 46.7906 18.2915 46.7859 18.1466C47.2912 18.3943 47.4943 19.1093 48.198 19.0533C47.3715 19.9412 47.8815 21.5349 46.5025 22.1705C46.2428 22.292 46.2664 22.7594 46.5639 22.9697C46.715 23.0725 46.9984 23.0631 47.1968 23.007C47.6832 22.8715 47.8107 22.0957 48.5238 22.2546C48.5049 23.2921 47.1354 23.5679 47.2298 24.6147C46.9276 24.4699 46.63 24.3297 46.3278 24.1848C45.9783 24.1567 45.7044 23.9838 45.4682 23.7361C44.5804 22.4509 45.0337 21.2778 45.7894 20.1375C46.1247 19.6141 46.2711 18.9785 46.7859 18.5812Z" fill="#E17164"/>
<path d="M5.23077 18.1232C5.30634 17.4736 5.0277 16.7445 5.67943 16.2304C5.56136 18.0438 6.18476 18.3803 7.57796 17.1605C7.74798 17.3054 7.84243 17.4923 7.86132 17.7166C7.68186 18.7074 6.99707 19.4178 6.45868 20.2123C5.87778 20.918 5.27328 21.6143 5.59442 22.6332C5.7975 23.2127 6.28394 23.5772 6.68064 24.0072C6.79399 24.1848 6.83649 24.3811 6.82233 24.5914C6.65703 25.1569 6.17532 25.3625 5.69832 25.5822C5.53303 26.2131 5.36773 26.844 5.20244 27.4749C4.73489 27.4703 4.26734 27.4656 3.79979 27.4609C3.37947 27.274 3.12445 27.0123 3.33697 26.5215C3.48337 24.6475 3.6345 22.764 3.7809 20.8853C3.80452 20.7404 3.81868 20.6002 3.83285 20.4553C4.74906 19.9459 5.36301 19.2542 5.23077 18.1232Z" fill="#EB8477"/>
<path d="M0.961447 23.7548C1.08424 23.1753 1.15035 22.5303 1.96266 22.5397C2.08545 22.5397 2.31686 22.8435 2.30742 22.993C2.25075 23.909 1.4715 23.6006 0.947278 23.7361L0.961447 23.7548Z" fill="#F9C5B8"/>
<path d="M3.33697 26.5262C3.49282 26.8393 3.64867 27.1525 3.79979 27.4656L3.80452 27.4983C3.26613 28.0171 2.66162 28.2507 1.92488 27.9516C1.91543 27.7834 1.90127 27.6151 1.89182 27.4422C2.37354 27.1338 2.85525 26.83 3.33697 26.5262Z" fill="#D4594C"/>
<path d="M18.4402 12.9496C18.1332 13.2721 17.8262 13.5899 17.5193 13.9124C17.2359 14.1741 16.9053 14.2208 16.5417 14.1461C16.0741 14.0105 15.668 13.7909 15.3799 13.3843C15.0918 12.8562 15.0587 12.2813 15.0257 11.7018C15.0493 11.0382 14.7706 10.3512 15.1437 9.70622C15.309 9.53797 15.4696 9.36505 15.6349 9.1968C15.8852 8.98649 16.1733 8.86966 16.5039 8.86031C17.217 9.20148 18.9975 8.25742 18.3079 10.3091C18.2891 10.5241 17.8971 10.9868 18.5583 10.7811C19.0636 10.6269 19.4083 10.1081 19.9798 10.0334C20.3529 10.1035 20.556 10.3371 20.6504 10.6877C20.5937 12.0804 19.5736 12.5664 18.4402 12.9496Z" fill="#DD665B"/>
<path d="M16.5653 9.21082C16.2536 9.20615 15.9466 9.1968 15.6349 9.19213C15.4932 8.12657 16.1686 7.33207 16.57 6.44877C16.7258 6.31791 16.9053 6.26183 17.1084 6.27118C17.9396 6.52355 18.086 5.21496 18.9219 5.4907C18.9786 6.10761 19.2761 6.28053 19.8287 5.9674C20.589 5.53276 21.4108 5.43462 22.2703 5.51874C22.5678 5.74775 22.889 5.95805 22.8606 6.39736C22.7048 6.78059 22.8229 7.08437 23.1534 7.32272L23.1865 7.38815C23.3565 7.96767 23.0543 8.28547 22.5631 8.50045C20.5465 8.5799 18.4449 7.96767 16.5653 9.21082Z" fill="#F39B8F"/>
<path d="M16.9336 6.38802C16.8109 6.39736 16.6928 6.41606 16.5747 6.4441C14.3739 4.71957 17.5193 4.98596 17.4815 4.06528C18.0954 3.76617 18.6244 3.13992 19.4367 3.53717C19.72 3.34556 20.0034 3.33154 20.2773 3.55119C20.4946 3.62597 20.8393 3.64934 20.9007 3.79421C21.0707 4.18679 20.7354 4.35971 20.4284 4.29428C19.8853 4.17744 19.3658 3.93909 18.9266 4.49057C18.4496 5.31778 17.8026 5.9674 16.9336 6.38802Z" fill="#E07266"/>
<path d="M15.1485 9.70154C15.5027 10.2624 15.7671 10.8466 15.6018 11.5382C14.2653 12.4542 13.6136 11.2578 12.7777 10.6409C12.7965 10.2577 12.891 9.90718 13.2547 9.69219C13.8828 9.68285 14.5156 9.22484 15.1485 9.70154Z" fill="#F4A59A"/>
<path d="M32.1785 34.9666C32.7783 34.6675 33.4348 34.1954 33.5859 35.3825C32.3911 35.9948 31.7157 37.981 29.8314 36.7799C29.7322 36.6864 29.6944 36.5883 29.718 36.4855C29.7463 36.3827 29.7747 36.3312 29.803 36.3312C30.28 35.3358 31.4749 35.5695 32.1785 34.9666Z" fill="#F19183"/>
<path d="M29.8077 36.3266C29.8077 36.4761 29.8125 36.6304 29.8314 36.7799C28.5373 37.8081 28.1453 36.9809 27.9045 35.8546C28.5751 35.8546 29.2788 35.7471 29.8077 36.3266Z" fill="#F7BCAF"/>
<path d="M45.8319 14.3751C46.4128 15.1742 45.7185 15.6416 45.3454 16.1931C42.6582 17.1324 43.7775 14.6555 43.1211 13.7769C42.9605 13.3235 42.8896 12.8421 42.6016 12.4356C42.1151 11.9729 41.3264 11.7439 41.3548 10.8839C41.3689 10.482 41.4776 10.0848 41.9168 9.97261C42.4646 9.8324 43.0408 9.75295 43.0313 10.6082C45.0054 11.0989 44.5945 13.3375 45.8319 14.3751Z" fill="#F29D90"/>
<path d="M43.0219 10.6082C42.5685 10.1549 42.0348 9.97728 41.7184 10.6503C41.4776 11.1597 41.8554 11.5102 42.4221 11.5569C42.8188 11.5943 43.1966 11.6504 43.3619 12.0804C42.9699 12.4729 42.4788 12.6832 41.9404 12.7861C41.3312 12.8281 40.8589 12.6505 40.6511 12.0243C40.8069 10.9354 40.9581 9.84175 41.1139 8.75282C41.9168 8.24808 42.2662 9.50525 43.0077 9.22952C43.1163 9.69219 43.787 10.1409 43.0219 10.6082Z" fill="#E37769"/>
<path d="M47.1259 11.8701C46.0964 11.814 45.4163 11.5242 45.0857 10.7765C44.9535 10.4773 45.2841 10.1876 45.6146 10.2343C46.4364 10.3558 46.9937 10.7858 47.1259 11.8701Z" fill="#F5A89D"/>
<path d="M45.3785 28.8489C44.7504 28.5452 44.1175 28.2367 43.4894 27.9329C44.1553 27.288 42.7999 25.8532 44.4245 25.5822C44.7268 25.3812 44.9535 25.5635 45.1802 25.727C45.4919 25.956 45.8838 25.914 46.2333 26.0121C46.8237 26.3346 46.9889 26.9562 47.2723 27.4936C47.2534 28.2928 46.8425 28.2274 46.3183 27.9236C46.0066 28.232 45.6949 28.5405 45.3785 28.8489Z" fill="#ED8C7D"/>
<path d="M46.238 26.0121C45.8083 26.0729 45.5013 27.7647 44.9393 26.1103C45.4541 25.3812 44.3726 24.0633 45.8508 23.6894C46.0113 23.853 46.1719 24.0119 46.3325 24.1754C46.2994 24.7923 46.2664 25.4046 46.238 26.0121Z" fill="#FAD3C7"/>
<path d="M46.323 27.9236C46.6395 27.7787 46.9606 27.6385 47.277 27.4936C47.924 28.003 47.584 28.4143 47.0645 28.634C46.4222 28.905 46.3797 28.3629 46.323 27.9236Z" fill="#F7B8A8"/>
<path d="M22.2042 35.8826C22.3648 36.191 22.53 36.4995 22.6906 36.8079C21.7508 37.4015 20.8488 37.8034 20.3434 36.3266C20.9432 36.1069 21.3872 35.2423 22.2042 35.8826Z" fill="#E77A6E"/>
<path d="M2.46327 18.0344C2.45854 17.9269 2.45382 17.8194 2.44438 17.7073C3.11972 17.525 3.677 17.7914 4.21539 18.1513C3.53532 19.5393 3.00166 18.7635 2.46327 18.0344Z" fill="#FBDAD2"/>
<path d="M20.2726 3.55119C19.994 3.54652 19.7106 3.54184 19.432 3.53717C19.4933 2.32206 20.3529 2.20522 21.3021 2.20989L21.3069 2.21457C21.5902 2.75202 21.0896 2.89223 20.8157 3.1446C20.6315 3.28013 20.4521 3.41566 20.2726 3.55119Z" fill="#F7BAAB"/>
<path d="M20.811 3.1446C20.9763 2.83614 21.1369 2.52302 21.3021 2.21457C21.6091 2.21457 21.9161 2.21457 22.2231 2.21457C22.2278 2.37814 22.2278 2.54171 22.2325 2.70528C21.883 3.23807 21.3305 3.13525 20.811 3.1446Z" fill="#F4A598"/>
<path d="M13.6797 34.99C13.8733 34.803 14.067 34.6161 14.2606 34.4245C14.7801 35.8592 16.23 36.5229 17.0281 37.724C15.0587 37.8361 14.5109 36.2425 13.6797 34.99Z" fill="#EA7A6D"/>
<path d="M43.5178 13.3796C44.5851 14.0245 42.9416 16.3893 45.3407 16.1884C45.7705 16.4174 45.8413 16.81 45.8319 17.2399C45.3502 17.6185 44.8118 17.6933 44.2262 17.539C43.6736 17.3661 43.2769 16.9876 42.9227 16.5576C42.7905 16.3893 42.6818 16.2024 42.5874 16.0108C42.4504 15.721 42.3607 15.4219 42.3701 15.0995C42.6629 14.4685 42.7527 13.7067 43.5178 13.3796Z" fill="#D96057"/>
<path d="M43.957 17.1698C44.5851 17.1932 45.2085 17.2166 45.8366 17.2446C45.8413 17.5297 45.8508 17.8194 45.8555 18.1045C45.8036 18.2214 45.7516 18.3335 45.6997 18.4504C45.2321 19.0018 44.6984 19.6187 43.9522 19.0159C43.3194 18.4924 43.3997 17.7821 43.957 17.1698Z" fill="#F5AA9F"/>
<path d="M46.7859 18.5812C46.852 19.2589 46.7103 19.8805 46.3089 20.4366C44.6843 20.231 44.6465 20.03 45.8461 18.1045L45.8555 18.0952C46.1672 18.2588 46.4789 18.4223 46.7859 18.5812Z" fill="#F5AA9F"/>
<path d="M1.92488 27.947C2.48216 27.5217 3.115 27.3908 3.80452 27.4936C3.97926 27.9329 4.14927 28.3722 4.32401 28.8069C4.29095 29.4752 4.25317 30.1388 4.21539 30.8819C2.93554 30.5641 2.50105 29.3163 1.49039 28.8349C1.63679 28.5405 1.77847 28.2414 1.92488 27.947Z" fill="#F4A497"/>
<path d="M25.9493 8.3322C26.294 8.64065 26.6435 8.94443 26.9883 9.25288C27.5408 9.77164 27.7203 10.3979 27.5361 11.127C27.045 11.6457 26.4027 11.7626 25.732 11.7813C24.3577 12.4449 24.2869 14.3751 22.7048 14.8424C21.9492 14.6555 21.883 13.7815 21.2785 13.4404C21.3777 11.8701 23.5313 11.0662 22.8843 9.22017C22.8276 8.8977 22.8701 8.59392 23.0401 8.30883C24.0177 7.61248 24.9764 9.08464 25.9493 8.3322Z" fill="#ED877B"/>
<path d="M23.1818 9.21082C24.7781 10.0474 23.1582 10.6877 23.0165 11.398C22.8276 12.3514 21.9539 12.8328 21.2785 13.4404C20.1829 14.1274 19.2525 13.8797 18.4402 12.9496C18.7141 11.8887 20.2443 11.814 20.3245 10.6035C20.674 9.61275 21.9208 10.225 22.3931 9.46319C22.6103 9.23886 22.8417 9.04258 23.1818 9.21082Z" fill="#F4A598"/>
<path d="M23.1251 19.0626C23.3565 17.6559 24.1547 15.7397 21.0613 17.3755C21.3352 16.1603 21.9822 15.7351 22.6859 15.3565C23.8241 15.1742 23.9658 13.1833 25.5479 13.8002C26.1618 15.0247 24.7686 16.2164 25.4959 17.4409C25.6943 17.8522 25.8832 18.2681 25.8973 18.7401C25.8832 18.9925 25.8123 19.2215 25.6848 19.4365C24.693 20.217 23.8335 20.1656 23.1251 19.0626Z" fill="#E87F70"/>
<path d="M16.6408 13.889C16.9336 13.8984 17.2264 13.903 17.5193 13.9124C17.0328 15.2303 17.2973 16.9268 15.616 17.6465C15.3846 17.053 16.7353 16.0762 15.2807 15.8285C14.2228 15.6509 13.5711 16.3753 13.283 17.3661C13.1366 17.8709 13.7458 19.2682 12.2912 18.1559C11.6537 18.3756 11.1719 18.1185 10.7563 17.6699C10.6147 17.3381 10.6335 17.0156 10.8177 16.7071C11.8851 15.9734 12.8485 15.0854 14.015 14.4872C14.3173 14.3891 14.6242 14.347 14.9359 14.319C15.4271 14.2676 15.9088 14.1975 16.3575 13.9731C16.4519 13.9404 16.5464 13.9124 16.6408 13.889Z" fill="#E67E70"/>
<path d="M25.529 13.903C24.7167 13.9171 24.3152 14.3517 24.0744 15.1041C23.8099 15.9407 23.2621 15.8846 22.6859 15.3518C22.6953 15.1789 22.7001 15.0107 22.7095 14.8377C22.9079 13.4404 24.8017 12.987 24.575 11.1644C24.49 10.468 25.4298 10.8699 25.5904 11.6037C26.2846 12.1084 26.8041 12.7019 26.6766 13.632C26.3838 14.104 26.0296 14.3096 25.529 13.903Z" fill="#F19D8E"/>
<path d="M23.1251 19.0626C23.9374 19.3383 24.7544 19.9179 25.562 19.0392C25.7745 18.9037 25.9729 18.9224 26.1618 19.086C26.4641 19.6328 26.4074 20.1375 25.9587 20.5815C25.7982 20.6983 25.6187 20.7871 25.4345 20.8619C24.8253 20.9974 24.9056 21.8527 24.268 21.9695C23.9185 21.9181 23.8052 21.6284 23.6493 21.376C23.6021 20.4039 22.8937 20.446 22.2042 20.4553C22.4073 19.9833 22.6056 19.5066 22.8087 19.0299C22.9173 19.0533 23.0212 19.0579 23.1251 19.0626Z" fill="#F5A697"/>
<path d="M18.8416 17.8428C18.4118 16.5529 19.3706 15.7351 19.6492 14.3003C20.8063 16.137 19.635 16.9502 18.8416 17.8428Z" fill="#EA7A6C"/>
<path d="M15.106 21.3012C14.7234 21.3339 14.3881 21.2638 14.1756 20.9133C13.7364 20.2917 14.1047 19.9085 14.5817 19.5533C14.6573 18.7682 14.7329 17.983 15.6207 17.6278C15.8096 18.9037 15.2476 20.0721 15.106 21.3012Z" fill="#E67E70"/>
<path d="M18.8038 19.6141C18.0718 20.5161 17.5193 20.5768 16.9195 20.2029C16.8345 20.1515 16.7778 19.8618 16.8297 19.8104C17.3634 19.3009 17.9585 19.5533 18.8038 19.6141Z" fill="#E87B71"/>
<path d="M6.66175 24.1988C5.78805 24.1427 5.29689 23.7034 5.25439 22.8201C5.77388 22.1238 6.78927 22.5677 7.32766 21.9228C7.77159 21.5022 8.17302 21.0068 8.89559 21.1283C9.20729 21.2077 9.48121 21.362 9.7504 21.5302C10.3738 21.9649 11.0539 21.8433 11.7481 21.7639C12.1118 21.7218 12.5604 21.7172 12.3526 22.3294C11.852 22.9369 11.3561 23.5445 10.8555 24.1521C10.6288 24.4371 10.3219 24.4932 9.98182 24.4465C8.91921 23.7735 7.76687 24.2642 6.66175 24.1988Z" fill="#DF685C"/>
<path d="M10.0007 24.1567C10.2841 24.1567 10.5627 24.1521 10.8461 24.1521C10.8225 25.4419 10.8744 26.7131 12.0079 27.6572C11.2711 28.0404 10.8508 27.746 10.6619 27.3347C10.0385 25.9841 9.20257 26.0729 8.37137 27.0216C7.31821 28.218 7.50712 26.7412 7.11986 26.5169C6.89317 25.8112 7.50712 25.6429 7.89438 25.3251C8.63112 24.998 9.26869 24.4932 10.0007 24.1567Z" fill="#E87E72"/>
<path d="M12.3432 22.3294C11.4411 21.834 10.2227 23.2781 9.47176 21.8667C9.51899 21.2124 9.7079 20.6516 10.4446 20.4647C11.597 20.5721 13.3208 20.1048 12.3432 22.3294Z" fill="#EC8072"/>
<path d="M6.68064 28.8817C6.82705 28.7181 6.97345 28.5545 7.12458 28.3909C7.95578 28.3582 8.80586 28.433 9.604 28.2648C10.5816 28.0638 10.8225 28.5311 10.9122 29.3023C9.5001 29.1621 8.09273 29.0219 6.68064 28.8817Z" fill="#F09386"/>
<path d="M10.4494 20.4647C10.1235 20.932 9.80235 21.3994 9.47649 21.8667C9.32064 21.7125 9.16006 21.5536 9.00422 21.3994C8.50361 21.0582 8.08329 20.6703 8.23914 19.9833C8.3761 19.6374 8.565 19.3804 9.00422 19.5019C9.7079 19.4972 10.166 19.8524 10.4494 20.4647Z" fill="#F6B3A6"/>
<path d="M10.9075 17.6559C11.3703 17.8241 11.8284 17.9877 12.2912 18.1559C12.0267 19.2075 11.937 20.6236 10.4069 19.0392C10.2605 18.8897 10.1754 18.7168 10.1613 18.5111C10.2321 18.0718 10.4494 17.7634 10.9075 17.6559Z" fill="#F7B7AB"/>
<path d="M10.3785 18.5532C10.388 18.7168 10.3974 18.8757 10.4069 19.0392C9.89681 19.0673 9.33953 18.9645 9.00422 19.5019C8.84364 19.6561 8.68779 19.8104 8.52722 19.9599C7.8991 20.1235 7.86132 19.6935 7.80465 19.2729C7.98411 18.6186 8.32887 18.0064 8.38082 17.3147C10.0999 16.0715 10.0999 17.5344 10.3785 18.5532Z" fill="#E88071"/>
<path d="M8.07384 25.5915C7.75742 25.9 7.441 26.2084 7.12458 26.5169C6.39256 26.5916 6.19421 25.8672 5.70304 25.5822C6.01002 25.255 6.31227 24.9325 6.61925 24.6054C7.40794 24.4932 8.10218 24.5166 8.07384 25.5915Z" fill="#F6B2A5"/>
<path d="M14.5817 19.5533C14.4448 20.0066 14.3078 20.46 14.1756 20.9133C14.0292 21.0675 13.8828 21.2171 13.7364 21.3713C13.2735 20.4273 13.0941 19.6094 14.5817 19.5533Z" fill="#F9CBC1"/>
<path d="M22.2845 34.0272C22.2467 34.1627 22.2183 34.2983 22.1995 34.4338C20.4993 34.588 20.1734 33.4383 19.7909 31.7792C21.033 32.4382 21.7177 33.1626 22.2845 34.0272Z" fill="#E4756A"/>
<path d="M23.6966 31.1951C23.6021 31.7138 23.4557 32.2186 22.9079 32.4242C22.7945 32.4662 22.4592 32.2653 22.4403 32.1438C22.3553 31.6157 22.7851 31.396 23.1582 31.1623C23.3518 30.9801 23.5313 30.9988 23.6966 31.1951Z" fill="#E3685D"/>
<path d="M23.6966 31.1951C23.5171 31.1857 23.3424 31.1717 23.1629 31.1623C23.2148 30.8632 23.6918 30.5781 23.1818 30.2697C24.4758 29.6248 23.9469 30.7511 24.1122 31.2044H23.9044L23.6966 31.1951Z" fill="#EE8477"/>
<path d="M36.8729 27.4516C36.7171 26.185 35.6875 26.6197 34.9508 26.4795C34.2282 25.8719 33.1656 25.498 33.397 24.2455C33.5151 24.0726 33.6709 23.9371 33.8504 23.8296C34.776 23.4884 34.4832 22.8481 34.2518 22.2172C34.1337 21.2825 34.8233 20.932 35.4703 20.5488C36.1126 20.217 36.6415 19.7449 37.0949 19.1888C37.4491 18.8383 37.7183 18.3242 38.3653 18.5205C38.8376 19.0579 38.9745 19.7683 39.3476 20.3618C39.4751 20.918 39.0642 21.2872 38.8612 21.7265C38.7242 21.9929 38.5589 22.2453 38.3181 22.4135C38.2236 22.549 37.9544 22.264 37.9025 22.5631C38.0394 22.535 38.1764 22.5163 38.3228 22.507C38.6014 22.3901 38.8753 22.3013 39.1729 22.2686C39.3807 22.2406 39.5885 22.2312 39.7963 22.2266C41.3311 22.2499 40.4102 21.1657 40.5661 20.5675C40.9722 20.002 41.5059 20.0113 42.0915 20.231C42.7857 21.2077 44.5757 21.0348 44.689 22.6332C44.0467 24.1007 42.9841 24.7596 41.3548 24.3203C41.0195 24.2596 40.6936 24.1521 40.396 23.9791C40.3158 23.8997 40.2402 23.8202 40.1599 23.7361C38.5211 22.4556 37.6474 24.2736 36.4195 24.6475C36.6321 24.9325 36.4101 25.4233 36.8776 25.5822C37.1516 25.5635 37.6474 25.4887 37.6616 25.5401C37.8788 26.358 37.4302 26.9328 36.8729 27.4516Z" fill="#EC7F71"/>
<path d="M39.631 25.012C39.4893 25.0307 39.3476 25.054 39.2059 25.0821C38.2661 23.7642 39.1776 23.7314 40.1505 23.7455L40.1599 23.7314C40.6605 24.4278 40.3158 24.7877 39.631 25.012Z" fill="#FACDC5"/>
<path d="M36.8729 25.5868C36.7029 25.8439 36.4384 26.0589 36.1976 25.8018C35.8103 25.3859 36.3156 25.0354 36.4101 24.6521C36.7879 24.8578 36.8635 25.2083 36.8729 25.5868Z" fill="#F39689"/>
<path d="M9.92514 32.1531C9.76457 31.8914 9.59928 31.6297 9.4387 31.368C9.10812 30.8305 8.65001 30.1856 9.59455 29.9052C10.3171 29.6902 10.7469 30.2604 10.8413 30.952C10.9122 31.4848 10.8839 32.0316 10.898 32.5737C10.3596 32.9149 9.95348 32.9616 9.92514 32.1531Z" fill="#F4A294"/>
<path d="M9.92514 32.1531C10.1613 32.499 10.5108 32.5831 10.9027 32.5691C10.7044 32.999 10.2935 33.0504 9.89209 33.1252C9.604 33.1252 9.31592 33.1205 9.02311 33.1205C9.00894 32.513 9.26396 32.1485 9.92514 32.1531Z" fill="#D8685C"/>
<path d="M17.0234 25.1101C17.1698 25.5307 17.439 26.0168 16.6456 26.0308C16.3008 26.0355 15.7435 26.0729 15.8852 25.5261C16.0269 24.9793 16.6267 25.1849 17.0517 25.1335C17.0517 25.1288 17.0234 25.1101 17.0234 25.1101Z" fill="#F39A8B"/>
<path d="M33.5481 24.1988C33.5434 25.2457 35.1208 25.3391 34.9508 26.4841C34.1526 27.0309 33.4914 26.5449 32.8539 26.1617C32.1502 25.7457 31.4843 25.5121 30.7712 26.1056C30.2611 26.2131 30.058 25.8906 29.8975 25.5027C29.7275 23.68 30.7664 23.1519 32.3769 23.2454C32.9295 23.3669 33.3734 23.6193 33.5481 24.1988Z" fill="#F49F93"/>
<path d="M30.2328 25.5868C30.4122 25.7598 30.587 25.9327 30.7664 26.1056C30.5917 26.5636 30.4122 27.0169 30.2375 27.4749C29.9164 27.4843 29.5999 27.489 29.2788 27.4983C29.1135 27.3441 28.9435 27.1898 28.7782 27.0356C28.7924 26.872 28.8065 26.7131 28.8207 26.5496C28.5232 26.0869 28.8349 25.7971 29.1182 25.4934C29.2977 25.3812 29.4913 25.3204 29.6991 25.3064C29.9164 25.3345 30.0911 25.4326 30.2328 25.5868Z" fill="#EE8477"/>
<path d="M24.1169 26.0635C23.7957 25.7598 23.4793 25.4606 23.1582 25.1615C22.6859 24.4605 23.314 24.1567 23.6777 23.7548C23.6871 23.4464 23.8241 23.194 24.0177 22.965C24.3672 22.6098 24.6978 22.2219 25.2503 22.1752C25.5667 22.2546 25.7745 22.4649 25.9398 22.736C26.2657 23.5024 26.9552 23.9651 27.4936 24.554C27.5739 24.7596 27.5503 24.9512 27.4275 25.1288C26.2752 25.2737 25.4109 26.4187 24.1169 26.0635Z" fill="#E5796B"/>
<path d="M24.1405 23.2641C23.9846 23.4277 23.8288 23.5866 23.6729 23.7501C22.7473 22.9697 23.314 22.1752 23.6493 21.3807C23.8099 21.5396 23.9705 21.6985 24.1263 21.8574C24.5466 22.32 24.4427 22.7921 24.1405 23.2641Z" fill="#F5A899"/>
<path d="M27.4275 25.1242C27.4228 24.9699 27.4228 24.8157 27.4181 24.6661C27.6306 24.2642 27.9989 24.1007 28.4193 24.0165C28.6318 24.0072 28.816 24.0679 28.986 24.1941C29.3071 24.6194 29.3638 25.1055 29.3166 25.6195C29.1513 25.9327 28.9907 26.2411 28.8254 26.5542C27.947 26.4701 27.4606 26.0121 27.4275 25.1242Z" fill="#EE8779"/>
<path d="M36.8776 10.1502C37.0335 10.6269 37.1941 11.1083 37.3499 11.585C37.3027 11.6831 37.2602 11.7813 37.2129 11.8794C36.2117 12.7393 35.7442 12.0196 35.3002 11.1457C34.7949 12.501 34.3557 13.8142 32.7075 14.0292C32.6272 13.1319 32.1219 13.5478 31.6968 13.7114C31.064 13.6927 30.4406 13.7722 29.8266 13.9404C29.0002 14.0339 28.1831 14.09 27.4369 13.6086C26.8844 12.9076 27.1725 12.2813 27.6022 11.6644C28.3815 11.0662 29.3119 11.5523 30.1431 11.3233C30.7051 11.2531 31.2907 11.5149 31.8243 11.1924C32.0794 10.8886 31.966 10.5241 31.9991 10.1829C32.273 9.63144 32.2305 9.06127 32.1313 8.48175C32.1219 7.82279 32.0935 7.15915 32.8019 6.78527C33.3403 6.75723 33.567 7.13111 33.7795 7.52368C33.9779 8.32285 34.6155 8.56588 35.3286 8.71543C36.1503 8.879 36.8446 9.17343 36.8776 10.1502Z" fill="#F29587"/>
<path d="M40.6511 12.0243C41.0997 12.2019 41.5437 12.3795 41.9923 12.5617C43.4091 13.188 42.8849 14.0292 42.2521 14.8798C41.9593 15.1182 41.624 15.1742 41.2603 15.1041C40.5991 14.8798 40.2922 14.2349 39.7632 13.8563C39.1493 13.3375 38.0158 13.6881 37.7041 12.6599C38.0064 11.9635 38.9934 11.9308 39.2154 11.1503C39.971 10.9961 40.141 11.7813 40.6511 12.0243Z" fill="#F4A598"/>
<path d="M33.0522 6.89743C32.4052 7.42554 32.6933 8.16395 32.6083 8.81825C32.3675 9.33701 32.1077 9.8324 31.4229 9.85109C30.6956 9.56601 30.2186 9.16876 30.7051 8.32285L30.7476 8.29014C31.1679 7.90691 31.0073 7.29001 31.319 6.86939C31.9991 6.21977 30.8467 5.68699 31.2009 5.05606C31.2057 4.89249 31.2057 4.72892 31.2104 4.57002C32.2352 4.23353 32.6414 5.44397 33.5198 5.47201C33.8834 6.11228 33.5717 6.53757 33.0522 6.89743Z" fill="#F19688"/>
<path d="M36.8776 10.1502C36.3392 9.64079 35.8434 9.16876 34.9602 9.17343C34.1999 9.17811 33.2931 8.99584 33.5812 7.80409C33.8929 7.5377 34.2046 7.54238 34.5068 7.82279C35.253 8.05179 36.0842 8.14993 36.7171 8.55653C37.1941 8.86031 38.2472 9.49591 36.8776 10.1502Z" fill="#DE6257"/>
<path d="M34.5068 7.82279C34.1999 7.81811 33.8929 7.80877 33.5812 7.80409C33.4064 7.50032 33.227 7.19654 33.0522 6.89276C33.2034 6.41606 33.3592 5.94403 33.5103 5.46733C33.5434 5.32246 33.5528 5.1729 33.534 5.02335C33.4631 4.81772 33.4395 4.58404 33.6898 4.52796C34.1101 4.43449 34.3085 4.74294 34.4738 5.06541C34.3793 5.98609 35.3097 6.89743 34.5068 7.82279Z" fill="#F8C4B5"/>
<path d="M39.2154 11.1457C40.1694 13.0384 38.5164 12.3094 37.7986 12.5197C37.0288 12.4823 36.9957 12.1131 37.3593 11.5663L37.3499 11.585C37.9733 11.4401 38.5967 11.2905 39.2154 11.1457Z" fill="#F8BEB3"/>
<path d="M34.4738 5.07009C34.1668 4.97662 33.874 4.51394 33.534 5.02802C32.8586 4.38775 33.4159 4.06995 33.9259 4.00452C34.8941 3.88301 34.351 4.67284 34.4738 5.07009Z" fill="#F19688"/>
<path d="M26.0107 4.09332C27.1536 6.36465 25.7132 6.5329 24.0177 6.49084C23.2998 6.49551 23.229 5.98609 23.1865 5.45799C23.196 5.28507 23.2007 5.11215 23.2101 4.93923C23.876 4.42047 24.6694 4.16342 25.4534 3.89236C25.6754 3.86899 25.8596 3.93442 26.0107 4.09332Z" fill="#E97B70"/>
<path d="M16.9336 6.38802C17.132 5.27572 18.0576 4.91586 18.9219 4.49057C19.5359 4.82239 19.0116 5.15421 18.9219 5.48603C17.7365 7.49564 17.7365 7.49564 16.9336 6.38802Z" fill="#FCE0D5"/>
<path d="M25.5856 4.12136C24.9008 4.70555 24.1547 5.1028 23.2054 4.93455C23.2007 4.80837 23.1818 4.68686 23.1393 4.56535C22.9929 3.48576 24.5514 4.06995 24.5561 3.13992L24.5844 3.13525C25.614 2.77539 25.8784 3.17264 25.5856 4.12136Z" fill="#FBDBCE"/>
<path d="M23.1865 5.45799C23.4651 5.80383 23.7438 6.14499 24.0224 6.49084C23.7343 6.64039 23.4463 6.78994 23.1582 6.93949C22.7473 7.07503 22.6198 6.86472 22.6198 6.50018C22.5064 6.17304 22.3884 5.84589 22.275 5.51874C22.5726 5.49538 22.8795 5.47668 23.1865 5.45799Z" fill="#F8C3B7"/>
<path d="M24.5608 3.1446C24.6742 4.19146 23.4604 3.93909 23.144 4.57002C22.53 4.47655 22.2845 4.20081 22.9079 3.81291C23.4037 3.49978 24.0083 3.35958 24.5608 3.1446Z" fill="#F39B8F"/>
<path d="M25.5856 4.12136C25.5762 3.47174 25.2692 3.11655 24.5844 3.13992C24.9245 2.58377 25.4817 2.69126 26.0012 2.69594C26.006 3.16329 26.006 3.62597 26.0107 4.09332C25.869 4.10734 25.7273 4.11669 25.5856 4.12136Z" fill="#F4A599"/>
<path d="M30.2564 11.5709C29.4677 12.4963 28.6601 11.8233 27.8573 11.6037C27.4842 11.6644 27.333 11.5055 27.3708 11.141C27.2433 10.5101 27.1158 9.88381 26.9883 9.25288C27.3 8.93976 27.6117 8.63131 27.9234 8.31818C28.2304 8.31351 28.5373 8.30416 28.8443 8.29949C29.2363 8.47708 29.4819 8.75749 29.4913 9.20148C29.2977 10.1268 30.6814 10.5661 30.2564 11.5709Z" fill="#F7B5A9"/>
<path d="M25.9493 8.3322C25.052 9.80436 24.1122 8.37426 23.1912 8.36959C23.007 8.48643 22.8417 8.45839 22.6953 8.30416C22.8559 8.00038 23.0212 7.69193 23.1818 7.38815C23.6635 7.52368 24.1405 7.66389 24.6222 7.79942C25.0661 7.97234 25.5101 8.14993 25.9493 8.3322Z" fill="#F6B4A7"/>
<path d="M29.3119 9.17811C29.156 8.88368 29.0002 8.58924 28.8443 8.29481C29.4724 7.82746 30.0769 8.50045 30.7003 8.32285C30.7523 8.97715 31.0734 9.43983 31.6921 9.69219C31.9519 9.75762 32.103 9.9212 32.1408 10.1829C32.2777 10.6503 33.9684 11.1316 32.1266 11.5803C30.5775 11.4868 29.888 10.3979 29.3119 9.17811Z" fill="#F6B2A5"/>
<path d="M31.6827 6.88341C30.6862 6.90678 32.5894 8.82759 30.7381 8.29014C30.3272 7.52836 30.5161 6.91145 31.2057 6.41606C31.6402 6.30389 31.8432 6.41139 31.6827 6.88341Z" fill="#E87A70"/>
<path d="M31.6827 6.88341C31.5221 6.72918 31.3662 6.57496 31.2057 6.41606C31.1301 5.96273 29.4346 5.52342 31.1915 5.05139C31.2623 5.69166 32.665 5.97675 31.6827 6.88341Z" fill="#F7B5A6"/>
<path d="M22.6151 6.50018C22.7945 6.64506 22.974 6.78994 23.1534 6.93949C23.1723 7.06568 23.1723 7.19186 23.1487 7.31805C22.7237 7.29935 22.1522 7.54705 21.9964 6.93949C21.9067 6.57496 22.3034 6.50953 22.6151 6.50018Z" fill="#E47267"/>
<path d="M44.4198 22.7594C44.3301 21.3059 41.8506 22.2266 42.0821 20.4553C42.7763 19.2355 43.0219 17.9877 42.3229 16.6791C42.4221 16.3333 42.5874 16.0856 43.0124 16.2351C43.3241 16.5436 43.6405 16.8567 43.9522 17.1651C43.6122 19.3851 44.774 18.6513 45.8413 18.1045C46.0539 18.871 44.4198 19.9973 46.3042 20.4366C45.388 21.4134 45.1235 22.4836 45.8413 23.6894C44.8968 24.2596 45.7044 25.4747 44.9298 26.1056C44.7598 25.928 44.5898 25.7551 44.4151 25.5775C44.5379 25.1148 45.1613 24.6521 44.4198 24.1848C44.075 23.7174 44.4387 23.236 44.4198 22.7594Z" fill="#EF8D80"/>
<path d="M44.4198 22.7594C45.1613 23.2314 44.5568 23.7127 44.4292 24.1894C43.6783 25.0727 42.7007 25.2457 41.6145 25.0587C40.9864 24.7783 40.6275 24.4091 41.1422 23.7314C42.5307 24.3811 43.4894 23.6146 44.4198 22.7594Z" fill="#F6AFA1"/>
<path d="M41.1422 23.7314C41.2981 24.1754 41.4587 24.6194 41.6145 25.0587C40.9061 26.9749 40.278 25.5261 39.631 25.0073C39.9568 24.6381 40.2544 24.2596 40.1646 23.7221C40.4905 23.7268 40.8164 23.7314 41.1422 23.7314Z" fill="#EF9282"/>
<path d="M9.47176 12.487C10.081 12.5197 10.4163 12.8188 10.4305 13.4357C10.6949 13.6881 10.728 13.9918 10.6383 14.3237C10.2132 14.9499 9.99598 15.6743 9.63234 16.3333C9.30647 16.6324 8.99949 16.9922 8.48944 16.6604C8.60279 15.221 8.65001 13.7628 9.47176 12.487Z" fill="#E78073"/>
<path d="M8.48944 16.6604C8.82475 16.5155 9.15534 16.3753 9.49065 16.2304C9.57566 16.2258 9.66539 16.2258 9.7504 16.2211C10.1046 16.2351 10.4399 16.3146 10.7469 16.4968C10.8036 16.5623 10.8602 16.6277 10.9169 16.6931C10.9169 17.0156 10.9122 17.3334 10.9122 17.6559C10.7374 17.955 10.558 18.2541 10.3832 18.5532C9.48121 18.7635 10.1093 16.1183 8.53195 17.5811C8.24858 17.8802 7.93688 17.9269 7.59685 17.6746C7.59213 17.5063 7.5874 17.3334 7.5874 17.1651C7.88493 16.9969 8.18719 16.8287 8.48944 16.6604Z" fill="#D8685C"/>
<path d="M12.7729 10.6362C13.9111 10.3371 14.4448 11.8887 15.6018 11.5336C15.616 12.1598 15.6349 12.7814 15.6491 13.4076C14.6242 14.3003 13.5805 14.1087 12.5321 13.4731C11.5167 12.6786 13.146 12.3094 12.8391 11.6224C12.6643 11.4354 12.4849 11.2531 12.3101 11.0662C12.4612 10.926 12.6171 10.7811 12.7729 10.6362Z" fill="#ED7F73"/>
<path d="M10.4352 14.361C10.4352 14.0526 10.4305 13.7441 10.4305 13.431C10.7658 13.2768 11.0964 13.1226 11.4317 12.9683C11.6678 12.8141 11.8709 12.8515 12.0315 13.0805C12.3196 13.5198 12.3243 13.9872 12.1637 14.4639C11.9937 14.8144 11.7245 15.0434 11.3372 15.1322C10.8366 15.1088 10.303 15.1135 10.4352 14.361Z" fill="#D8655C"/>
<path d="M11.8284 12.973H11.4317C11.29 11.8981 12.4849 12.1925 12.8391 11.6224C14.6101 12.8001 11.9937 12.3374 12.3243 12.973C12.1543 13.1459 11.9937 13.1366 11.8284 12.973Z" fill="#DE6057"/>
<path d="M7.57796 22.292C7.09152 23.7127 5.99585 22.5023 5.25439 22.8248C4.23901 21.4601 5.32523 20.7544 6.16587 19.9693C6.59091 19.9739 6.96401 20.0814 7.21903 20.4506C6.97345 21.133 8.30053 21.5162 7.57796 22.292Z" fill="#F6B0A2"/>
<path d="M8.07384 25.5915C7.58741 25.2644 7.10569 24.9372 6.61925 24.6101C6.63814 24.4745 6.65231 24.339 6.66175 24.1988C7.76214 23.194 8.87198 22.9276 10.0007 24.1567C9.81652 25.241 8.9381 25.4092 8.07384 25.5915Z" fill="#F39F93"/>
<path d="M7.11041 20.4319C6.71843 20.4319 6.36422 20.3525 6.16587 19.9646C6.64286 19.1981 7.11513 18.4363 7.59213 17.6699C7.90383 17.6372 8.21552 17.6091 8.52722 17.5764C9.51427 18.399 8.46583 18.642 8.08801 19.0719C7.65352 19.4552 7.93688 20.3385 7.11041 20.4319Z" fill="#F9C6B9"/>
<path d="M22.6953 8.29949C22.8606 8.32285 23.0259 8.34155 23.1912 8.36492C23.1865 8.64533 23.1865 8.93041 23.1818 9.21082C23.0118 9.37907 22.8417 9.54732 22.6717 9.71556C21.9019 9.81838 21.1888 9.25288 20.4048 9.53329C19.4697 9.2669 19.04 10.9213 17.9774 10.1595C18.5488 8.32285 16.57 10.2016 16.5605 9.20615C17.694 7.61248 19.7673 7.30403 22.6953 8.29949Z" fill="#EE8F82"/>
<path d="M17.9821 10.1595C19.0352 10.5194 19.0211 8.09385 20.3859 9.25756C20.5654 9.69219 20.3434 9.98195 20.0128 10.2296C19.55 10.6409 19.125 11.0943 18.6196 11.4448C18.2654 11.6925 17.7601 12.0617 17.3729 11.5756C16.7825 10.8279 17.4768 10.5101 17.9821 10.1595Z" fill="#F5ADA1"/>
<path d="M20.0176 10.2296C20.1404 9.90718 20.2631 9.5847 20.3907 9.25756C21.3494 8.45839 22.0672 8.81825 22.6812 9.71556C22.5206 10.267 22.6292 11.2438 21.5761 10.4166C21.0849 10.0287 20.7496 10.5848 20.3245 10.5989C20.2206 10.4773 20.1167 10.3558 20.0176 10.2296Z" fill="#DC6F64"/>
<path d="M11.8284 12.973C11.9937 12.973 12.1543 12.973 12.3196 12.9777C13.3633 13.6086 14.5156 13.431 15.6443 13.4123C15.9749 13.5712 16.3055 13.7301 16.6361 13.889L16.4897 13.9264C16.1402 14.3423 15.4838 14.305 15.1862 14.7957C14.8415 14.7957 14.492 14.791 14.1472 14.791C13.4247 14.4685 12.5888 14.7396 11.8756 14.3797C11.8615 13.9077 11.8473 13.4404 11.8284 12.973Z" fill="#F09386"/>
<path d="M42.0207 14.8237C42.611 14.0619 42.6346 13.3095 41.9923 12.5617C42.3088 12.0056 42.8235 12.0149 43.3619 12.0804C43.4139 12.515 43.4658 12.945 43.5178 13.3796C43.1966 14.0059 43.2863 14.8471 42.5354 15.2537C42.1009 15.4173 41.9498 15.249 42.0207 14.8237Z" fill="#D76255"/>
<path d="M43.0172 16.2351C42.8613 16.408 42.7055 16.5763 42.5496 16.7492C41.5862 17.0764 41.3075 16.6791 41.487 15.7818C41.9876 15.3986 42.4788 15.4546 42.9652 15.8052C42.9935 15.9454 43.0124 16.0902 43.0172 16.2351Z" fill="#F5A898"/>
<path d="M42.9652 15.8005C42.5213 15.7958 42.0726 15.7958 41.6287 15.7911C41.1847 15.6229 40.9344 15.3472 41.1186 14.8471C41.4209 14.8377 41.7231 14.8284 42.0254 14.819C42.1954 14.9639 42.3701 15.1088 42.5402 15.2537C42.6771 15.4406 42.8235 15.6182 42.9652 15.8005Z" fill="#EF8D80"/>
<path d="M27.3708 11.141C27.5314 11.2952 27.6967 11.4494 27.8573 11.6037C27.7061 12.2206 27.555 12.8328 27.4086 13.4497C27.5361 13.618 27.5219 13.7769 27.3661 13.9217C26.8891 14.0573 26.6719 13.7628 26.4971 13.403C26.1996 12.8001 25.5195 12.3888 25.5904 11.6083C26.1146 11.2017 26.7002 11.0055 27.3708 11.141Z" fill="#DC635A"/>
<path d="M26.4924 13.403C26.8041 13.5712 27.1158 13.7395 27.4275 13.903C27.4794 13.9872 27.5314 14.0713 27.5833 14.1554C27.5833 14.3564 27.5361 14.5433 27.4369 14.7162C27.0213 15.2537 26.6105 15.7958 26.3838 16.4501C26.0815 17.0016 25.7557 17.525 25.0378 17.5858C24.0366 16.2024 25.2362 15.1135 25.5337 13.903C25.9304 13.8843 26.294 13.7955 26.4924 13.403Z" fill="#F8BFB4"/>
<path d="M26.0201 19.0486C25.869 19.0439 25.7132 19.0439 25.562 19.0439C25.5526 18.885 25.5431 18.7261 25.5384 18.5719C25.9635 17.6933 26.8277 16.9829 26.6105 15.8519C27.7817 14.9592 28.6696 15.2116 28.9435 16.4968C29.1088 17.2633 28.7073 17.8007 28.254 18.3289C27.6022 18.8429 27.0497 19.6748 26.0201 19.0486Z" fill="#F5AA9B"/>
<path d="M26.9222 16.2585C27.9281 17.8895 26.1051 17.8615 25.5384 18.5672C25.3731 18.2401 25.2031 17.9129 25.0378 17.5858C25.3637 17.1371 25.6848 16.6884 26.0107 16.2398C26.3177 15.9641 26.6199 15.9641 26.9222 16.2585Z" fill="#E77568"/>
<path d="M11.8756 14.3751C12.7493 13.875 13.5852 13.5899 14.1472 14.7863C13.0516 15.3939 12.551 16.9876 10.9122 16.6931L10.9169 16.6885C10.5344 16.3707 10.4824 15.9641 10.6005 15.5154C10.728 15.1742 11.0397 15.0574 11.3372 14.9219C11.5167 14.7396 11.6962 14.5573 11.8756 14.3751Z" fill="#F5A89D"/>
<path d="M15.191 14.7957C14.6998 13.1413 16.041 14.1881 16.4992 13.9264C16.57 14.9639 15.8144 14.7817 15.191 14.7957Z" fill="#F8BEB1"/>
<path d="M26.0201 19.0486C26.8277 19.086 27.248 18.3803 27.8809 18.0812C29.1324 18.413 27.947 19.6608 28.6932 20.1889C28.8065 20.6189 28.7829 21.0348 28.5373 21.4181C27.947 21.9134 27.3472 22.3948 26.516 22.4182C25.954 21.8901 25.4392 21.3386 25.5148 20.488C26.1004 20.1515 25.9587 19.5673 26.0201 19.0486Z" fill="#EB7B6D"/>
<path d="M25.5195 20.4927C26.0674 20.9694 26.7144 21.3947 26.4499 22.2827C26.3082 22.7266 26.0626 22.9977 25.5479 22.8201C25.3967 22.6472 25.2409 22.4743 25.0898 22.3013C24.6883 21.6844 24.7119 21.0722 25.0992 20.4647C25.2362 20.4647 25.3778 20.4787 25.5195 20.4927Z" fill="#D7584D"/>
<path d="M25.0945 20.4647C25.0898 21.0769 25.085 21.6891 25.085 22.3013C24.7686 22.6238 24.4569 22.9416 24.1405 23.2641C24.1358 22.7967 24.131 22.3247 24.1263 21.8574C24.9245 21.7125 23.843 20.2964 25.0945 20.4647Z" fill="#F19084"/>
<path d="M7.11041 20.4319C7.43628 19.9786 7.76215 19.5299 8.08801 19.0766C8.08801 19.4458 8.15413 19.7776 8.52722 19.9646C8.68307 20.4413 8.84364 20.9227 8.99949 21.3994C8.26275 21.2872 8.07857 22.0396 7.57324 22.292C7.92272 21.5489 5.37246 21.5162 7.11041 20.4319Z" fill="#F29588"/>
<path d="M37.3641 11.5663C37.3546 11.9542 37.4019 12.3187 37.8033 12.5197C38.3936 13.3469 39.6121 12.5571 40.193 13.4263C40.141 13.7722 39.9379 14.0152 39.6593 14.2115C38.9131 14.59 38.2614 15.2724 37.2932 14.9826C36.8257 14.7863 36.736 14.1274 36.1314 14.0292C36.2165 14.9078 36.7737 15.1181 37.5152 15.0948C38.5731 15.034 39.4043 15.5341 40.1977 16.1323C39.4468 16.6744 40.3299 17.1652 40.2496 17.6886C39.7585 18.1933 39.1351 18.3569 38.455 18.3709C37.7702 18.3522 37.1232 18.4177 36.8351 19.1888C36.5329 19.3243 36.2448 19.3056 35.9756 19.1C35.5883 18.8616 35.1963 18.7401 34.7619 19.0673C35.253 19.0719 35.7914 18.7355 36.1456 19.3196C36.4668 19.8992 36.259 20.4086 35.9378 20.8993C35.3475 21.2405 34.5399 21.3713 34.5068 22.278C34.3132 22.4182 34.1148 22.4229 33.9023 22.3154C33.4442 21.9041 33.3687 21.2358 32.8303 20.7918C32.0983 21.619 31.5504 22.6659 30.3934 23.0211C30.1714 23.0351 29.9589 22.993 29.7605 22.8949C29.3638 22.4042 29.1513 21.82 29.0474 21.2264C28.8963 20.3665 28.9624 19.586 30.2281 20.0954C30.2706 20.1141 30.4217 20.1235 30.3981 20.1048C30.195 19.9552 30.11 19.7683 30.1289 19.53C30.8231 18.6654 30.1431 18.1746 29.6047 17.6465C29.4724 17.3381 29.4724 17.0296 29.6188 16.7258C30.5681 15.8799 31.4512 16.394 32.3533 16.838C33.142 17.2259 33.5292 17.0016 33.3639 16.0949C33.2931 15.922 33.2317 15.7491 33.1703 15.5762C33.0333 15.1415 32.7547 14.7863 32.5091 14.4124C32.4619 14.2255 32.5091 14.0619 32.6366 13.9171C34.7666 12.1785 34.7666 12.1785 34.5116 10.0474C36.0417 9.48656 35.4561 12.8141 37.3641 11.5663Z" fill="#E98174"/>
<path d="M40.1835 17.5998C39.3854 17.1511 39.6829 16.6604 40.1316 16.165C39.5932 15.4827 39.324 14.7489 39.6971 13.8984C39.8577 13.7395 40.023 13.5806 40.1835 13.4263C40.4952 13.8984 40.8022 14.3751 41.1092 14.8471C41.2792 15.1602 41.4492 15.478 41.6192 15.7911C41.6003 16.4174 41.964 16.6791 42.5402 16.7445C44.1223 18.1933 43.7256 19.3991 42.0773 20.4506C41.5531 20.4553 40.9958 20.3525 40.6416 20.8946C40.5802 21.633 40.226 22.2359 39.7302 22.7687C39.5554 22.7687 39.3854 22.7687 39.2107 22.7687C38.7525 22.4042 38.7667 21.7265 38.285 21.376C38.5967 21.0582 38.9084 20.7357 39.2201 20.4179C39.1729 19.357 40.1788 18.642 40.1835 17.5998Z" fill="#E67B6D"/>
<path d="M40.1835 17.5998C41.2509 19.0018 39.8907 19.5954 39.2248 20.4179C37.9308 20.3104 38.3842 19.2729 38.2142 18.5672C38.0867 18.441 38.0583 18.3289 38.1244 18.2354C38.1858 18.1513 38.2425 18.1092 38.2992 18.1092C38.8848 17.7774 39.494 17.5484 40.1835 17.5998Z" fill="#F6AEA1"/>
<path d="M39.7349 22.7734C39.6546 21.9649 39.8293 21.2778 40.6464 20.8993C41.1753 21.2031 41.9309 21.577 41.7326 22.1798C41.435 23.0772 40.4669 22.7594 39.7349 22.7734Z" fill="#F4A598"/>
<path d="M34.044 22.3107C34.1999 22.3013 34.3557 22.292 34.5116 22.2827C35.0074 22.6191 35.5317 22.9743 35.3286 23.6754C35.135 24.339 34.5163 24.1567 34.0251 24.1894C33.6001 23.8623 33.142 23.5492 33.3309 22.8949C33.4631 22.5724 33.6993 22.3761 34.044 22.3107Z" fill="#F6B1A3"/>
<path d="M38.3039 22.778C37.7608 22.9884 37.2035 23.4557 36.7029 22.7407C36.4526 22.3855 36.5093 22.0163 36.8493 21.7452C37.6616 21.0956 37.7986 22.1378 38.2803 22.3247C38.4031 22.4182 38.4503 22.5163 38.4172 22.6191C38.3747 22.722 38.3417 22.778 38.3039 22.778Z" fill="#F3998B"/>
<path d="M35.9331 19.0579C36.2495 19.0439 36.5659 19.0299 36.8824 19.0159C37.2885 18.9504 37.5388 19.0299 37.3499 19.5113C37.076 20.1655 36.5801 20.6049 35.9425 20.904C35.9425 20.2824 35.9378 19.6608 35.9378 19.0392L35.9331 19.0579Z" fill="#F6AEA0"/>
<path d="M37.3499 19.5113C37.1941 19.3477 37.0382 19.1794 36.8824 19.0159C36.4006 17.2446 37.8505 18.4504 38.2992 18.1139C38.2708 18.2681 38.2472 18.4223 38.2189 18.5766C37.9261 18.885 37.638 19.1981 37.3499 19.5113Z" fill="#DD6D61"/>
<path d="M38.3039 22.778C38.3086 22.6285 38.2992 22.4743 38.2756 22.3247C38.2803 22.0116 38.285 21.6938 38.2897 21.3807C39.272 21.4087 39.272 22.0723 39.2154 22.7734C38.9131 22.7734 38.6061 22.7734 38.3039 22.778Z" fill="#D7574B"/>
<path d="M33.5576 22.7874C33.7134 23.2547 33.8693 23.7174 34.0251 24.1848C33.8645 24.1894 33.7087 24.1941 33.5481 24.1941C33.2459 24.0259 32.9436 23.8576 32.6414 23.6941C32.3438 23.3903 32.3533 23.0631 32.5564 22.7173C32.9058 22.5163 33.2411 22.5257 33.5576 22.7874Z" fill="#E76C63"/>
<path d="M32.6461 22.8528C32.6414 23.1332 32.6414 23.4183 32.6366 23.6987C31.2765 23.6333 30.1289 23.8343 30.2281 25.5915H29.7936C29.3496 25.2457 29.3071 24.6381 28.9104 24.2596L28.8349 24.1801C28.2776 23.624 28.2587 22.9603 28.457 22.264C29.5952 20.6703 29.3449 22.5864 29.7747 22.778C29.9353 22.778 30.0958 22.7827 30.2564 22.7827C31.0498 23.0631 31.8857 21.7873 32.6461 22.8528Z" fill="#EE8779"/>
<path d="M28.9151 24.2596C29.9211 24.2362 29.7983 24.9559 29.7983 25.5915C29.6377 25.6008 29.4724 25.6102 29.3119 25.6195C28.7782 25.2831 28.8207 24.7783 28.9151 24.2596Z" fill="#D46055"/>
<path d="M28.8349 21.862C28.8396 22.6332 28.8396 23.409 28.8443 24.1801C28.372 24.3437 27.895 24.5026 27.4228 24.6661C26.3554 24.4886 25.6659 23.9371 25.5479 22.8201C25.8501 22.6425 26.1524 22.4649 26.4499 22.2873C27.045 21.8574 27.5125 21.1704 28.4004 21.3433C28.8112 21.2965 29.0238 21.4134 28.8349 21.862Z" fill="#F39C91"/>
<path d="M29.7936 16.6838C29.7936 17.0016 29.7936 17.3194 29.7936 17.6372C29.8597 18.3102 30.2092 18.9785 29.7983 19.6515C29.3166 19.7169 28.9529 20.3058 28.3768 19.9693C26.4263 19.7917 28.7262 18.5345 27.8856 18.0765C28.5609 17.3054 28.9151 16.4875 27.9753 15.693C27.248 15.0761 27.0733 15.6883 26.9269 16.2538C26.6199 16.2491 26.3177 16.2398 26.0107 16.2351C26.006 15.249 26.7002 14.7957 27.4511 14.3844C27.6542 14.347 27.7061 14.2349 27.607 14.0526C27.5503 13.9544 27.4936 13.903 27.4369 13.903C27.4181 13.7535 27.4133 13.5993 27.4181 13.445C28.3626 13.4404 29.3071 13.431 30.2564 13.4263C30.5728 14.0292 31.1018 13.8049 31.5788 13.7582C32.0085 13.8703 32.1313 14.2909 32.3958 14.5667C32.75 14.8798 33.2837 14.9078 33.5812 15.3051C33.5812 15.4593 33.5812 15.6135 33.5812 15.7678C32.5327 16.9829 30.8515 15.5855 29.7936 16.6838Z" fill="#F0887B"/>
<path d="M29.3119 9.17811C30.2517 9.98195 31.1868 10.7811 32.1266 11.585C31.4937 12.4122 30.8751 11.7859 30.2564 11.5663C29.8125 11.0569 29.3685 10.5428 28.9293 10.0334C28.4523 9.48656 28.7451 9.27158 29.3119 9.17811Z" fill="#EA8073"/>
<path d="M31.6118 13.8516C31.1584 14.1507 31.0356 15.0621 30.2658 14.7256C29.5055 14.3938 30.1619 13.8703 30.2422 13.4263C30.7098 13.1085 31.1679 13.1226 31.6213 13.4497C31.7535 13.5432 31.796 13.632 31.7488 13.7208C31.7063 13.8096 31.659 13.8516 31.6118 13.8516Z" fill="#DF6056"/>
<path d="M32.1408 10.1876C31.9896 10.024 31.8432 9.86044 31.6921 9.69687C31.8763 9.28093 32.1549 8.95845 32.6083 8.81825C32.8822 9.42113 33.4206 10.1081 32.1408 10.1876Z" fill="#CE5247"/>
<path d="M31.6118 13.8516C31.6401 13.7208 31.6449 13.5852 31.6213 13.4497C32.1313 13.2347 32.6414 13.0244 32.6366 13.9124C32.6178 14.0526 32.6036 14.1881 32.5894 14.3283C32.5564 14.6134 32.4052 14.777 32.1171 14.819C31.7252 14.6181 31.6732 14.2302 31.6118 13.8516Z" fill="#F5AC9D"/>
<path d="M11.3372 14.9265C11.2003 15.048 11.068 15.1696 10.9311 15.2911C10.4871 15.6603 10.6524 16.9455 9.48593 16.2304L9.49065 16.2304C9.57566 15.492 9.15062 14.5059 10.4352 14.361C10.5958 14.7723 10.9547 14.8658 11.3372 14.9265Z" fill="#F7B5A8"/>
<path d="M9.48593 16.2304C10.2368 16.3192 10.421 15.5621 10.9311 15.2911C10.9264 15.7584 10.9216 16.2258 10.9169 16.6885C10.3974 16.6744 9.82597 16.81 9.48593 16.2304Z" fill="#E78073"/>
<path d="M27.4275 13.903C27.8431 13.9357 28.339 13.7628 28.6035 14.2255C28.6601 14.319 28.5043 14.6461 28.3673 14.7162C27.9753 14.9219 27.6825 14.6929 27.4417 14.3844C27.4417 14.2255 27.4322 14.0666 27.4275 13.903Z" fill="#DF6558"/>
<path d="M28.372 19.9786C28.8538 19.801 29.3307 19.6234 29.8125 19.4458C29.9825 19.3524 30.1289 19.3804 30.2564 19.5206C30.417 19.6842 30.5775 19.8524 30.7381 20.016C28.5184 20.2917 30.3178 21.9321 29.7841 22.778C28.9671 22.979 29.4299 21.8807 28.8349 21.862C28.6885 21.6891 28.5468 21.5162 28.4004 21.3386C28.3909 20.8853 28.3815 20.4319 28.372 19.9786Z" fill="#DE6659"/>
<path d="M29.7936 16.6838C29.6377 16.2118 29.4819 15.7537 30.28 15.7631C31.3757 15.7771 32.4713 15.7678 33.567 15.7678C34.2613 16.1416 34.7524 16.5716 34.0487 17.3614C33.5245 17.9503 32.9389 18.2821 32.3108 17.5437C31.6307 16.7445 30.7476 16.6417 29.7936 16.6838Z" fill="#F39A8F"/>
<path d="M32.6461 22.8528C31.8621 22.4135 31.0309 23.6426 30.2611 22.7827C31.1443 21.8527 32.4713 21.2872 32.4241 19.4785C33.5198 20.4787 34.1904 21.1797 34.044 22.3107C33.8834 22.4696 33.7181 22.6285 33.5576 22.7921C33.2553 22.8108 32.9531 22.8295 32.6461 22.8528Z" fill="#F8C3B8"/>
<path d="M37.3499 15.3191C35.4844 15.7351 35.39 15.6042 35.5789 12.8001C36.6698 13.1179 37.2082 13.8049 37.3357 14.8658C37.5105 14.9639 37.5719 15.0621 37.5199 15.1649C37.4633 15.2677 37.4066 15.3191 37.3499 15.3191Z" fill="#F7BBAF"/>
<path d="M37.3499 15.3191C37.3452 15.1649 37.3405 15.0153 37.3357 14.8611C38.2661 14.8798 38.6203 13.5198 39.7018 13.8984C40.1788 14.59 40.2119 15.3705 40.1363 16.165C38.9792 16.609 38.3983 15.221 37.3499 15.3191Z" fill="#F6B4A9"/>
<path d="M30.2564 19.5159C30.1053 19.4972 29.9589 19.4739 29.8125 19.4412C29.5008 18.8429 28.9624 18.2494 29.7888 17.6372C30.4689 17.7306 31.2907 17.8194 31.456 18.5345C31.6402 19.3196 30.8656 19.4225 30.2564 19.5159Z" fill="#F4A499"/>
<path d="M35.9378 19.0392C35.3191 19.142 34.8469 20.0253 34.129 19.4038C34.0298 19.3196 34.1715 18.7775 34.3557 18.5906C35.1302 17.8007 35.5553 18.4036 35.9331 19.0533C35.9331 19.0579 35.9378 19.0392 35.9378 19.0392Z" fill="#F4A193"/>
<path d="M32.1171 14.8237C32.273 14.6601 32.4336 14.4966 32.5894 14.333C33.2317 14.3517 33.5576 14.6788 33.567 15.3098C33.0381 15.2864 32.4525 15.4173 32.1171 14.8237Z" fill="#D45D50"/>
<path d="M42.5402 18.67C42.526 19.1234 42.2851 19.4318 41.8365 19.4225C41.3784 19.4131 41.1517 19.1 41.2178 18.6373C41.2792 18.2214 41.5201 17.8662 41.9404 17.8522C42.4363 17.8428 42.526 18.2634 42.5402 18.67Z" fill="#F6B6A7"/>
</svg>
