<svg width="51" height="32" viewBox="0 0 51 32" fill="none" xmlns="http://www.w3.org/2000/svg">
<path d="M15.0919 30.9332C14.4727 31.1061 13.8508 31.2763 13.2315 31.4491C13.0859 31.2869 13.0807 31.1061 13.1574 30.9146C13.7052 30.3454 14.4727 30.2178 15.1608 29.9465C16.1876 29.5396 17.1985 29.1167 18.1936 28.6353C19.1383 28.1778 19.9878 27.5528 20.885 27.1273C20.6733 27.0954 20.3822 27.0582 20.1149 26.9331C19.3157 26.3906 18.7149 27.6246 17.9289 27.1832C17.7437 26.4837 18.3471 26.3161 18.7229 25.9916C19.6809 25.4491 20.6786 24.9863 21.6974 24.5714C25.1934 22.8985 28.5411 20.9038 32.2435 19.6804C34.0404 18.9278 35.9062 18.4756 37.8434 18.3134C38.1424 18.2895 38.5208 18.1751 38.6399 18.5528C38.7484 18.8905 38.4441 19.1086 38.19 19.2788C37.7878 19.5501 37.3485 19.7522 36.9092 19.9544C35.8374 20.3294 34.792 20.7788 33.7096 21.1219C30.6318 22.106 27.7393 23.489 25.0187 25.2337C24.1904 25.7656 23.3329 26.1831 22.3564 26.2789C22.6634 26.348 23.0445 26.0661 23.3197 26.4385C23.3118 26.5209 23.3038 26.6034 23.2932 26.6831C21.9541 27.9996 20.3054 28.8481 18.6567 29.6619C17.5346 30.2231 16.4469 30.9864 15.0919 30.9332Z" fill="#DFD9D0"/>
<path d="M41.8024 1.93856C41.8103 2.03164 41.8156 2.12207 41.8236 2.21515C41.7759 3.07154 40.9608 3.04761 40.4712 3.38006C40.0848 3.64336 39.6402 3.82687 39.2062 4.0157C38.2138 4.26038 37.3961 5.02369 36.311 4.99975C35.3424 4.78698 34.3659 5.57954 33.4 4.98379C33.1882 4.13538 34.0351 4.20453 34.4003 3.91198C34.9349 3.48378 35.6812 3.41197 36.3057 3.12208C36.7424 2.91995 37.3723 2.8375 37.2558 2.09281C37.4675 1.57685 38.0815 1.5077 38.4176 1.0077C35.6627 2.14866 33.0797 3.53432 30.2269 4.22049C29.9464 4.28698 30.3751 4.39336 30.248 4.50241C30.0813 4.88007 29.7002 4.65135 29.5256 4.74443C30.0046 4.98114 30.3724 4.35879 30.907 4.44922C30.9599 4.4572 31.0314 4.53698 31.0817 4.43858C30.9494 4.37475 30.907 4.26836 30.9414 4.12475C31.865 3.81091 32.741 3.20719 33.7837 3.68059C34.1383 4.05826 33.7678 4.19124 33.5455 4.36145C32.5187 5.14337 31.341 5.51837 30.0707 5.62476C28.4696 5.26837 27.03 5.66997 25.7041 6.58487C25.0319 6.88807 24.3544 6.93062 23.6717 6.62476C23.3064 6.13274 23.7537 6.04764 24.0422 5.91732C24.7064 5.61944 25.4289 5.52635 26.1461 5.32422C25.1934 5.43327 24.3359 5.95721 23.3673 5.89072C23.0339 5.80295 22.7057 5.7072 22.4913 5.40401C23.4864 4.9173 24.5979 4.86943 25.6512 4.69922C29.2398 4.11943 32.5002 2.62739 35.8056 1.24706C36.6127 0.909291 37.4225 0.563545 38.2006 0.159286C38.8384 -0.170504 39.3015 0.0209861 39.3888 0.648651C39.5185 1.57685 39.9181 1.34547 40.4289 1.03961C40.7756 0.829504 41.0958 0.350779 41.5377 0.901316C41.3419 1.09281 41.4822 1.46781 41.1646 1.59547C40.4474 2.1992 39.5317 2.39867 39.0739 2.63803C39.5264 2.37473 40.4977 2.31356 41.2043 1.66728C41.5166 1.50504 41.6595 1.72047 41.8024 1.93856Z" fill="#E2DDD5"/>
<path d="M50.2737 13.1437C51.3031 14.1783 51.2634 14.4708 49.9931 15.1437C49.4109 15.4522 48.8208 15.7474 48.2359 16.0533C48.2042 16.0692 48.1909 16.1251 48.1618 16.1756C48.437 16.4123 48.7202 16.2634 48.9822 16.1676C49.7523 15.8857 49.9111 16.5001 50.0646 16.9735C50.2737 17.6198 49.7708 17.798 49.2786 17.9203C46.3861 18.6251 43.4935 19.3246 40.6036 20.0347C40.3098 20.1065 40.032 20.2342 39.7461 20.3379C39.2724 20.5001 38.7484 20.3405 38.2853 20.5746C37.6422 20.7448 37.0044 21.0719 36.3322 20.6836C36.02 20.1943 36.4857 20.1278 36.7292 19.9416C37.0574 19.7076 37.4146 19.54 37.8195 19.5001C39.4074 19.3911 40.8444 18.8086 42.2603 18.1278C42.6413 17.9443 42.1835 17.8246 42.3158 17.7022C42.9086 17.1544 43.6364 17.2262 44.3509 17.2607C44.74 18.3086 43.7872 18.2953 43.2474 18.6756C44.9914 17.8778 46.873 17.7554 48.6435 17.2049C47.5187 16.8325 46.4072 18.1251 45.2772 17.2288C45.1052 16.5028 45.7086 16.6384 46.0738 16.5107C46.2167 16.4602 46.5819 16.5586 46.2511 16.2182C46.4205 15.6783 46.9312 15.5719 47.3441 15.3432C47.7066 15.2022 48.0877 15.1144 48.445 14.9628C49.1701 14.6517 50.1149 14.5479 49.755 13.3112C49.6703 13.0187 50.0011 12.9043 50.2737 13.1437Z" fill="#D8D3CA"/>
<path d="M22.4913 5.40401C22.7798 5.42795 23.0975 5.35865 23.2933 5.66717C22.0363 6.64324 20.4325 6.31079 19.0352 6.78154C18.5086 6.95707 17.9263 7.0209 17.3838 7.19643C12.9008 8.17517 8.58178 9.62731 4.50363 11.7683C3.47946 12.3055 2.53732 12.9412 1.78574 13.8268C1.45229 14.2178 1.0315 14.5901 1.21146 15.2018C1.28821 15.2976 1.34908 15.3986 1.402 15.5077C1.44435 15.9571 1.04209 15.9039 0.803909 16.0343C-0.16204 15.8641 -0.111757 15.2869 0.203168 14.5715C0.970635 12.8401 2.51351 11.9491 4.04315 11.106C8.14248 8.84804 12.5197 7.36931 17.098 6.40653C18.8897 6.03153 20.6547 5.54231 22.4913 5.40401Z" fill="#DCD7CD"/>
<path d="M15.0919 30.9332C17.9977 29.8507 20.5912 28.1598 23.2959 26.6864C23.6981 28.064 22.5602 28.8406 21.7848 29.1997C20.2339 29.9204 18.9345 31.0241 17.389 31.7263C16.2987 32.221 15.5551 32.0954 15.0919 30.9332Z" fill="#FBFBFA"/>
<path d="M20.1177 26.6835C20.647 26.8696 21.1921 26.8564 21.7638 26.7845C19.1464 28.6782 16.2989 30.0372 13.2343 30.9548C12.3398 31.2952 12.6494 30.4654 12.4457 30.1356C12.2498 29.8271 11.9296 29.8989 11.6438 29.867C11.6914 29.2154 12.271 29.3457 12.6442 29.1755C13.1734 29.1941 13.7027 29.1808 14.2056 28.976C15.1133 28.7872 15.886 28.2606 16.7514 27.9681C17.1537 27.8431 17.5559 27.7101 17.9317 27.5133C18.6913 27.3191 19.2258 26.5239 20.1177 26.6835Z" fill="#F2F0EB"/>
<path d="M44.7347 3.54786C44.8088 3.55584 44.8829 3.56382 44.957 3.57445C45.3593 4.16754 44.8353 4.31914 44.4939 4.33776C43.3268 4.39627 42.4535 5.07713 41.5087 5.61968C40.0796 6.1782 38.8014 7.03725 37.4438 7.73672C37.2241 7.89098 36.9886 8.01066 36.7266 8.07715C34.8291 8.44418 32.9396 8.82184 31.1717 9.66227C30.3699 10.0426 29.5204 10.2713 28.6126 10.1091C28.1336 9.91228 28.2474 9.58249 28.4221 9.24206C28.5994 8.99472 28.8561 8.88833 29.1419 8.83248C31.7275 8.34843 34.1384 7.28459 36.6499 6.55054C36.9833 6.45214 37.2903 6.26597 37.629 6.18352C39.1375 5.61171 40.5481 4.85106 41.8924 3.9601C42.2868 3.68882 42.607 3.30318 43.0833 3.14892C43.647 3.22339 44.1843 3.41488 44.7347 3.54786Z" fill="#CDC4B8"/>
<path d="M38.378 20.2977C38.8464 19.7923 39.291 20.1301 39.7409 20.3349C39.209 21.0822 38.3013 21.1381 37.5655 21.4998C33.6594 23.4174 29.6342 25.0211 25.3919 26.0291C25.0558 26.1089 24.7012 26.1169 24.3572 26.1567C24.2646 25.3509 24.9103 25.2046 25.429 24.944C26.9322 25.0158 28.2369 24.2658 29.6104 23.8535C32.6379 22.944 35.4907 21.5716 38.378 20.2977Z" fill="#DDD7CF"/>
<path d="M8.2087 27.7313C5.89836 27.9122 5.89836 27.9122 5.28438 25.9308C5.10972 25.7898 4.91653 25.6701 4.81596 25.4574C4.53015 25.0691 3.89765 24.8909 4.06702 24.2233C4.10407 24.1169 4.16759 24.0292 4.25492 23.9627C4.75774 23.7472 4.3793 23.2871 4.51956 22.9706C4.53544 22.851 4.56455 22.7366 4.6016 22.6222C4.71011 22.3377 4.78685 22.0318 5.05679 21.843C5.55167 21.8802 5.58343 22.2898 5.69458 22.6382C5.73692 23.0956 5.5702 23.5664 5.76868 24.0159C5.9804 24.5132 6.07567 25.1728 6.89077 24.8058C7.1263 24.702 7.31949 24.4946 7.61589 24.5451C7.6847 24.5558 7.75616 24.7898 7.79321 24.601C7.89377 24.0691 8.15577 23.8164 8.70623 23.9254C8.99469 24.1116 9.10054 24.3882 9.10054 24.7207C9.03703 24.9627 8.84913 25.1143 8.69829 25.2951C8.45217 25.6701 8.43893 26.1648 8.10813 26.4973C7.73234 26.9388 8.37807 27.3058 8.2087 27.7313Z" fill="#D4CDC3"/>
<path d="M1.84403 21.6191C1.84932 20.9409 0.883375 21.1537 0.883375 20.7282C0.883375 19.6324 0.21118 18.7574 0.0709194 17.7547C-0.0084737 17.1935 0.470531 16.6191 1.05804 16.3079C1.31474 15.9728 1.5741 15.6669 1.93666 16.1989C1.92872 16.8611 1.03951 17.1031 1.10303 17.8372C1.78846 17.9329 1.89696 17.3877 2.15366 17.034C2.22247 16.9276 2.30716 16.8398 2.41302 16.7707C2.66443 16.7068 2.9079 16.76 3.15402 16.8106C3.45836 16.8983 3.77328 16.9755 3.81298 17.3744C3.49276 18.2148 2.6062 18.7388 2.51623 19.7069C2.31774 20.0526 1.78316 19.4462 1.70906 19.9542C1.64026 20.4117 2.20924 20.4516 2.41302 20.7521C2.57974 21.1856 2.42095 21.4808 2.02928 21.6803C1.96312 21.6617 1.9049 21.6404 1.84403 21.6191Z" fill="#D8D3CB"/>
<path d="M25.4053 25.0852C24.9527 25.3405 24.6061 25.6995 24.3547 26.157C24.0106 26.2527 23.6666 26.3458 23.3199 26.4415C22.9732 26.4256 22.6265 26.407 22.1184 26.383C26.0087 24.4149 29.4729 21.9229 33.6172 20.8404C33.8024 20.9255 33.9586 21.0293 33.9347 21.2686C33.3949 21.9069 32.5454 21.8245 31.8758 22.1649C30.9734 22.4309 30.1795 22.9043 29.4093 23.4309C28.0676 23.9575 26.9243 24.9814 25.4053 25.0852Z" fill="#CDC6BB"/>
<path d="M41.2839 5.40948C42.3028 4.73926 43.2396 3.88553 44.6025 4.03712C44.8672 4.06638 44.9411 3.8085 44.957 3.57445C45.2322 3.65424 45.5102 3.73393 45.7855 3.81106C45.8278 4.31106 46.2354 4.50521 46.5582 4.79511C46.9234 5.1249 46.9287 5.60097 46.7276 6.02118C46.5185 6.46268 46.1771 6.36161 45.8569 6.11161C45.2879 5.88288 44.7057 6.29512 44.1341 6.08235C43.835 5.99991 43.5307 5.93076 43.3455 5.64086C43.3428 5.3616 43.5492 5.28713 43.7583 5.21267C43.1708 5.38022 42.6309 5.70203 42.0196 5.78448C41.7152 5.82969 41.2971 5.99459 41.2839 5.40948Z" fill="#EDE9E3"/>
<path d="M46.0368 5.66743C46.1215 5.98126 46.3253 6.42009 46.5238 5.84296C46.8493 4.88551 46.1056 4.68604 45.272 4.65413C45.4731 4.32434 45.6293 4.06901 45.7881 3.81369C46.2962 3.80039 46.6005 4.12752 46.7805 4.52646C47.1324 5.30838 47.1589 6.24722 48.3842 6.39616C48.9108 6.45999 48.67 7.2951 48.6938 7.80043C48.5933 7.88553 48.4821 7.90947 48.3577 7.86426C47.6406 6.7951 46.5582 7.32436 45.616 7.23925C45.1873 7.11957 45.1926 6.64084 44.9253 6.38552C45.2058 6.0052 45.5578 5.73658 46.0368 5.66743Z" fill="#DDD7CE"/>
<path d="M44.7347 3.54786C44.1419 3.81382 43.6048 3.74448 43.1337 3.27373C42.9961 2.96522 43.2952 2.74713 43.4143 2.42C41.8529 2.84022 40.834 4.29235 39.172 4.14342C39.0873 4.03171 39.0873 3.92267 39.1747 3.81363C40.0586 3.28171 40.9396 2.74707 41.8236 2.21515C42.4587 1.93324 43.0305 1.48648 43.753 1.42531C44.142 1.39339 44.5337 1.35882 44.7851 1.79765C45.0048 2.18064 44.9201 2.48383 44.6157 2.72851C44.1579 3.09288 44.5124 3.30318 44.7347 3.54786Z" fill="#DBD5CC"/>
<path d="M49.485 9.15691C50.2154 9.98138 50.5277 11.9867 50.0196 12.5904C49.8131 12.9468 49.5458 13.2128 49.0986 13.2048C48.6725 12.9787 48.6805 12.6117 48.781 12.2154C48.7731 11.992 49.1859 12.0638 49.0907 11.8138C49.0324 11.6596 49.1701 11.8484 48.9874 11.8537C48.7837 11.9229 48.5773 11.899 48.3761 11.9176C48.2623 11.9096 48.1591 11.875 48.0638 11.8138C47.8548 11.6224 47.6219 11.4521 47.5557 11.1489C47.6272 10.6702 48.0241 10.5 48.3682 10.2793C49.0007 10.1676 48.8075 9.2234 49.485 9.15691Z" fill="#DED8D0"/>
<path d="M4.77887 22.6914C4.77622 22.7845 4.77622 22.8776 4.77358 22.9707C4.44807 23.3111 3.95318 23.4707 3.75205 23.9414C3.61973 24.1356 3.51917 24.3803 3.20689 24.2925C2.9396 24.1116 2.66966 23.9308 2.40237 23.7499C2.35209 23.5372 2.22771 23.3483 2.22241 23.1223C2.07421 22.4919 2.35209 21.9547 2.60615 21.4148C2.79669 21.1887 3.0481 21.1675 3.31539 21.1967C4.18871 21.3137 4.96941 21.5212 4.77887 22.6914Z" fill="#DFD9D1"/>
<path d="M8.2087 27.7313C7.52856 27.0239 7.49665 26.8666 7.95183 26.4171C8.37791 26.5953 8.78546 26.9331 9.26447 26.5501C9.43119 26.4065 9.55293 26.2256 9.64291 26.0235C9.75935 25.7655 9.82286 25.4836 10.0425 25.2815C11.0561 25.0953 10.5321 25.9703 10.7623 26.3293C10.7809 26.4437 10.7862 26.5581 10.7782 26.6724C10.6459 27.0394 10.892 27.2948 11.0482 27.5793C11.1355 27.8187 11.1567 28.0634 11.1355 28.3161C11.0932 28.6458 10.9741 28.9357 10.6803 29.1219C10.3813 29.2283 10.2331 29.0395 10.1007 28.824C9.97636 28.5687 9.79905 28.3533 9.58733 28.1671C9.35444 27.9304 9.29358 27.348 8.74576 27.7469C8.56581 27.7416 8.38865 27.7366 8.2087 27.7313Z" fill="#CEC8BF"/>
<path d="M49.2416 13.1118C49.501 12.9389 49.7602 12.7633 50.0196 12.5904C50.1042 12.774 50.189 12.9602 50.2737 13.1437C50.189 13.157 50.1044 13.1703 50.017 13.1836C50.8162 14.8299 49.3845 14.8538 48.5059 15.2474C48.1592 15.4043 47.7543 15.4336 47.3785 15.524C46.7169 15.3565 47.2462 15.1144 47.3785 14.9948C47.7543 14.6543 48.4159 14.6597 48.5403 14.0134C48.5985 13.8511 48.6885 13.7049 48.7997 13.5745C48.9293 13.4043 49.1437 13.3166 49.2416 13.1118Z" fill="#F2EEE8"/>
<path d="M10.2966 28.5052C10.3284 28.734 10.3681 28.96 10.601 29.0797C10.765 29.109 10.8735 29.2047 10.945 29.3537C10.9609 29.46 10.9265 29.5531 10.855 29.6303C10.5189 29.593 10.2093 29.4255 9.83878 29.5558C9.31479 29.7366 8.894 29.484 8.61348 29.0451C8.28797 28.5372 8.65318 28.2951 9.00251 27.9813C9.20364 27.8004 8.87015 27.7948 8.74576 27.7469C9.31475 27.1059 9.49739 27.8829 9.84407 28.0505C9.83878 28.359 10.0214 28.4786 10.2966 28.5052Z" fill="#D4CDC3"/>
<path d="M48.4185 7.80275C48.5085 7.80275 48.6011 7.80009 48.6911 7.80009C48.6911 8.15913 48.6885 8.51818 48.6885 8.87989C48.6011 8.95702 48.4979 8.99159 48.3815 8.97829C47.8972 8.91446 47.3573 9.26819 46.9286 8.78414C46.3623 8.52616 45.7933 8.26818 45.7271 7.52615C45.7245 7.39583 45.7668 7.28945 45.8647 7.20168C46.7857 7.09796 47.6008 7.457 48.4185 7.80275Z" fill="#E8E4DD"/>
<path d="M3.20689 24.2925C3.40802 24.1728 3.44234 23.9737 3.44763 23.7636C3.80225 23.5695 4.13835 23.4418 4.25214 24.0163L4.23362 24.0402C3.80754 24.4844 3.88694 24.886 4.33154 25.2583C4.53002 25.4126 4.90846 25.5854 4.74967 25.8168C4.50356 26.1812 4.06689 26.0455 3.69639 25.9019C3.05066 25.5136 2.62996 25.0558 3.20689 24.2925Z" fill="#D4CDC3"/>
<path d="M49.485 9.15691C49.2706 9.69149 49.3474 10.4571 48.4582 10.4517C48.1935 10.4491 47.9448 10.4065 47.7992 10.1432C47.7092 9.4411 48.1909 9.25759 48.7228 9.12726C48.9795 9.05014 49.2468 8.6968 49.485 9.15691Z" fill="#F4F2ED"/>
<path d="M48.7228 9.12726C48.5984 9.57408 47.8972 9.58503 47.9422 10.1648C47.8602 10.2845 47.7464 10.367 47.6061 10.4068C47.3018 10.4467 46.9736 10.4547 46.8492 10.1196C46.7328 9.80312 46.9392 9.52121 47.1827 9.35365C47.5532 9.09567 47.9237 8.79247 48.4318 8.87226C48.5165 8.87492 48.6012 8.88024 48.6858 8.88024C48.6991 8.96269 48.7122 9.04482 48.7228 9.12726Z" fill="#D3CBC1"/>
<path d="M1.86523 16.3164C1.60059 15.8855 1.32536 16.2632 1.05542 16.3084C0.970735 16.218 0.888595 16.1274 0.803909 16.0343C0.981221 15.8614 1.15863 15.6914 1.33594 15.5185C1.69321 15.1887 2.06107 14.9494 2.52684 15.3403C2.78619 15.8696 2.80736 16.3776 2.39981 16.8483L2.36011 16.843C1.94462 16.9042 1.90493 16.6116 1.86523 16.3164Z" fill="#E7E3DB"/>
<path d="M10.8525 29.6299C10.8551 29.5342 10.8551 29.4384 10.8577 29.3427C11.2838 28.9384 11.7999 28.8719 12.3503 28.9278C12.5541 29.0049 12.6838 29.1485 12.7314 29.3639C12.3662 29.5315 12.0037 29.699 11.6384 29.8666C11.3579 29.8613 11.0562 29.9092 10.8525 29.6299Z" fill="#CEC8BF"/>
<path d="M12.4456 30.1334C12.8082 30.3116 12.652 30.9898 13.2343 30.9526C13.2343 31.1175 13.2343 31.285 13.2343 31.4499C12.1863 31.4845 11.9534 31.0297 12.4456 30.1334Z" fill="#CFCAC3"/>
<path d="M3.69648 25.9042C3.97436 25.891 4.25223 25.875 4.63597 25.8564C4.35015 25.6436 4.16225 25.5053 3.97436 25.3644C4.32369 25.0718 4.67831 25.1675 5.03293 25.3511C5.11762 25.5452 5.19966 25.7393 5.28434 25.9335C4.75241 26.1117 4.21783 26.367 3.69648 25.9042Z" fill="#DFD9D1"/>
<path d="M1.85449 23.2393C1.43106 22.7021 1.48147 22.1617 1.84403 21.6191L1.87566 21.6409C2.05827 21.7925 2.22235 21.9574 2.2541 22.21C2.2541 22.4441 2.26204 22.6808 2.24352 22.9175C2.17471 23.0957 2.04768 23.2101 1.85449 23.2393Z" fill="#D8D3CB"/>
<path d="M41.2574 1.44916C41.1833 1.18054 41.0508 0.880039 41.5377 0.901316C41.7733 1.20983 41.8952 1.5449 41.7999 1.93852C41.6305 1.85341 41.4638 1.7683 41.2944 1.6832C41.2336 1.64064 41.2071 1.59011 41.215 1.53692C41.2256 1.47841 41.2388 1.44916 41.2574 1.44916Z" fill="#CFC9BF"/>
<path d="M1.85449 23.2393C1.94976 23.1462 2.04247 23.0535 2.13774 22.9577C2.27536 23.0029 2.36533 23.0907 2.38915 23.2423C2.39974 23.4125 2.68026 23.5721 2.40503 23.7503C2.14303 23.6652 1.96035 23.4946 1.85449 23.2393Z" fill="#CFC7BC"/>
<path d="M37.8224 19.7683C37.4466 19.7337 37.1131 19.8641 36.7956 20.0423C36.7241 19.9811 36.7003 19.9199 36.7215 19.8561C36.7426 19.7923 36.7664 19.7603 36.7876 19.7603C37.219 19.1992 38.0764 19.2444 38.4866 18.5768C36.3166 18.763 34.255 19.1912 32.286 20.029C32.0902 19.9412 31.9367 19.8268 31.9817 19.5768C32.5533 18.904 33.4108 18.8827 34.1597 18.6167C36.5415 17.9412 38.9762 17.5928 41.448 17.4837C41.6571 17.5555 41.8 17.6965 41.8873 17.8986C41.403 18.7896 40.4344 18.8508 39.6378 19.1566C39.0477 19.3827 38.4284 19.5635 37.8224 19.7683Z" fill="#CAC3B8"/>
<path d="M32.0266 19.7685C32.114 19.8563 32.2013 19.9414 32.2886 20.0292C28.5625 21.1808 25.2968 23.359 21.7161 24.8351C21.4303 25.0106 21.2107 24.9893 21.1048 24.6276C21.171 24.3377 21.38 24.1808 21.6209 24.0505C22.8515 23.5318 24.0529 22.9547 25.1591 22.1941C27.0222 21.3669 28.8271 20.4015 30.7987 19.8377C31.201 19.7233 31.5979 19.4228 32.0266 19.7685Z" fill="#C2BAAE"/>
<path d="M36.7902 19.761C36.7929 19.8541 36.7929 19.9492 36.7956 20.0423C36.6156 20.2151 36.4383 20.3913 36.2583 20.5642C35.5861 21.2318 34.8504 21.6227 33.9056 21.1201C33.8104 21.027 33.7151 20.9339 33.6198 20.8408C34.681 20.4897 35.6734 19.9472 36.7902 19.761Z" fill="#C5BCB0"/>
<path d="M21.1894 24.574C21.3032 24.7841 21.5044 24.8191 21.7161 24.8351C20.7449 25.2739 19.7709 25.7123 18.7997 26.1511C18.7706 26.098 18.7441 26.0421 18.715 25.9889C18.7256 25.8639 18.7706 25.7549 18.8447 25.6538C19.5672 25.1671 20.1573 24.3852 21.1894 24.574Z" fill="#CFC7BD"/>
<path d="M20.1177 26.6835C19.4137 27.0399 18.7096 27.3962 18.0057 27.7526C17.5399 27.8377 17.6246 27.5345 17.6616 27.2632C17.7622 27.1382 17.876 27.1249 18.0057 27.218C18.7308 27.1222 19.1756 25.9122 20.1177 26.6835Z" fill="#C8C0B5"/>
<path d="M27.9721 22.3852C28.8772 21.7283 29.6605 21.6086 30.4386 21.4783C29.8061 21.9916 29.1021 22.3241 27.9721 22.3852Z" fill="#D1C9BE"/>
<path d="M18.0056 27.2149L17.8759 27.2176H17.7463C17.2223 27.2017 17.299 26.8399 17.4657 26.5846C17.7754 26.1165 18.1962 25.8054 18.7969 26.1511C18.6858 26.6219 17.9739 26.6378 18.0056 27.2149Z" fill="#CFC6BC"/>
<path d="M39.1747 3.81363C39.1747 3.9014 39.1718 3.98935 39.1692 4.07446C38.8093 5.09574 37.8248 5.29521 37.0044 5.63298C34.5697 6.63565 32.0423 7.37236 29.515 8.09843C25.4289 9.27131 21.2661 10.1836 17.2964 11.7501C16.9974 11.7447 16.7248 11.6942 16.6136 11.3591C16.6613 11.0506 16.8756 10.8804 17.127 10.7447C20.3821 8.9894 23.9972 8.34045 27.4931 7.31651C27.6201 7.27661 27.7472 7.25002 27.8795 7.22874C30.428 6.72608 32.8416 5.76862 35.3186 5.01862C35.623 4.9016 35.9273 4.76064 36.266 4.88564C37.2717 4.62766 38.0949 3.87214 39.1747 3.81363Z" fill="#CEC6BB"/>
<path d="M33.8817 3.81898C32.8734 3.79239 31.8889 3.90409 30.96 4.34026C30.7033 4.53175 30.444 4.53973 30.1793 4.36154C30.137 4.35356 30.0893 4.35356 30.0496 4.33761C29.9279 4.29239 29.7929 4.17271 29.9835 4.11154C31.5634 3.59824 33.101 2.98919 34.6094 2.2844C35.6733 1.78705 36.8192 1.4679 37.8143 0.818956C38.1715 0.587571 38.5447 0.571614 38.9708 0.707254C38.7564 1.59024 37.9096 1.76843 37.3326 2.22854C36.5043 3.47058 35.2155 3.69132 33.8817 3.81898Z" fill="#F5F2ED"/>
<path d="M33.8817 3.81898C35.0752 3.38813 36.3111 3.04482 37.33 2.23365C37.629 2.79216 37.6529 2.84535 37.0627 3.12461C36.2476 3.51025 35.3796 3.78685 34.5539 4.15121C34.1252 4.34004 33.7388 4.62462 33.3339 4.86399C32.614 5.51027 31.6693 5.65123 30.8145 5.99964C30.2508 6.15123 29.6659 6.23368 29.1234 6.47038C28.5703 6.7257 27.9828 6.81081 27.382 6.84006C27.1147 6.84538 26.8607 6.93049 26.604 6.99432C25.7307 7.03422 24.8891 7.42518 23.9946 7.26028C23.6664 7.17517 23.3462 7.06879 23.0763 6.85336C22.9149 6.64326 22.9969 6.49432 23.1954 6.37464C23.3303 6.34804 23.4521 6.37996 23.5553 6.47304C24.2592 6.37198 25.0135 6.72304 25.6724 6.23102C27.083 5.97304 28.4194 5.35069 29.8909 5.39856C31.312 5.09271 32.7225 4.77644 33.8817 3.81898Z" fill="#CEC7BC"/>
<path d="M23.5606 6.47324L23.4283 6.48122L23.296 6.47856C22.682 6.18335 22.5523 6.56899 22.4941 7.05835C21.4302 7.55836 20.279 7.67538 19.1437 7.86421C18.805 7.82432 18.4398 7.82964 18.2439 7.35623C19.0934 6.82431 20.1044 7.00516 20.7845 6.68069C19.8556 6.85091 18.7362 7.10091 17.622 7.3908C17.3918 7.35623 17.2595 7.21527 17.1933 6.99984C19.1384 6.15675 21.2529 6.08494 23.2907 5.67005C24.3625 5.63281 25.3708 5.10621 26.7019 5.19664C25.5137 5.67802 24.5372 6.07431 23.5606 6.47324Z" fill="#F5F3EF"/>
<path d="M30.7271 5.70443C31.6031 5.44911 32.389 4.90655 33.3338 4.86666C34.1092 4.90123 34.8793 4.92251 35.623 4.62464C35.8929 4.51559 36.2264 4.36133 36.2634 4.88261C36.0014 4.97304 35.7394 5.06347 35.4774 5.15389C34.3077 5.59805 33.0401 5.62996 31.8571 6.03422C31.4654 6.16986 30.9309 6.40391 30.7271 5.70443Z" fill="#EEEAE2"/>
<path d="M29.8961 5.39617C28.5252 5.85362 27.1385 6.23394 25.6777 6.22862C26.9929 5.48393 28.3215 4.81903 29.8961 5.39617Z" fill="#F1EDE5"/>
<path d="M41.2574 1.44916C41.2759 1.52628 41.2892 1.60619 41.2971 1.68331C41.268 2.40407 40.7202 2.41737 40.2015 2.55035C39.4975 2.72854 38.8148 2.9945 38.0526 3.08226C39.0926 2.47854 40.0638 1.75767 41.2574 1.44916Z" fill="#F5F3EF"/>
<path d="M30.1793 4.36154C30.4387 4.35356 30.7007 4.34824 30.96 4.34026C31.1267 4.35622 31.2935 4.37194 31.4602 4.38524C30.7616 4.49694 30.1556 5.03152 29.3113 4.81609C29.6448 4.64322 29.912 4.5025 30.1793 4.36154Z" fill="#D6D1C7"/>
<path d="M33.9056 21.1201C34.7445 21.1733 35.467 20.7158 36.2583 20.5642C36.994 20.7025 37.6661 20.3349 38.378 20.2977C37.1606 21.4998 35.5199 21.9338 34.0247 22.5614C31.6112 23.5747 29.0812 24.3115 26.6015 25.1678C26.1886 25.3115 25.7758 25.5373 25.4053 25.0852C26.7153 24.4389 27.9617 23.6572 29.367 23.2104C29.5972 23.0269 29.621 23.5721 30.0233 23.3061C31.0422 22.6279 32.2542 22.3354 33.3631 21.9657C32.8947 21.6891 32.2807 22.9551 31.7779 21.9178C32.4871 21.6519 33.1964 21.386 33.9056 21.1201Z" fill="#F2F0EB"/>
<path d="M45.2561 17.1089C46.4206 17.5717 47.4421 16.702 48.5695 16.7392C48.9294 16.7498 49.3343 16.585 49.3846 17.0637C49.4349 17.5318 49.0326 17.4759 48.6674 17.5557C46.6402 17.9972 44.6263 18.5132 42.5647 18.9094C43.1575 18.319 44.0652 18.1781 44.4913 17.4121C44.6342 17.0158 44.8592 16.8456 45.2561 17.1089Z" fill="#F6F4F0"/>
<path d="M37.8224 19.7683C39.0027 18.8109 40.5587 18.6805 41.829 17.9172C41.9958 17.771 42.1678 17.7444 42.3424 17.9039C42.5171 17.9598 42.8955 17.9518 42.4827 18.2311C41.0721 19.1752 39.5426 19.7683 37.8224 19.7683Z" fill="#E6E2DA"/>
<path d="M48.7017 13.9252C49.0378 14.4438 48.8075 14.7177 48.3073 14.9119C47.9607 15.0475 47.4367 14.9411 47.3758 15.5236C47.0212 15.7869 46.6666 16.0475 46.3146 16.3108C46.2272 16.4039 46.1187 16.4438 45.9891 16.4385C45.7959 16.38 45.6847 16.2497 45.6477 16.0502C45.645 15.7177 45.8356 15.4837 46.0473 15.2576C46.1293 15.1725 46.2167 15.0927 46.3066 15.0183C46.7618 14.6672 47.0476 14.098 47.659 13.9411C48.0083 13.88 48.3523 13.723 48.7017 13.9252Z" fill="#E4DFD8"/>
<path d="M46.0658 16.3268C46.1505 16.3242 46.2325 16.3189 46.3172 16.3109C46.5131 16.3614 46.82 16.3508 46.4469 16.646C46.0923 16.9252 45.555 16.6965 45.2587 17.1088C45.0046 17.2098 44.7505 17.3109 44.4965 17.412C43.8031 17.6779 43.0039 17.4784 42.3449 17.904C42.1729 17.9093 42.0035 17.9146 41.8315 17.9173C41.7442 17.8295 41.6542 17.7417 41.5669 17.654C41.7971 17.013 42.4428 17.0901 42.9113 16.8588C43.9328 16.5236 44.9464 16.1114 46.0658 16.3268Z" fill="#C1B8AD"/>
<path d="M17.196 6.99702C17.2886 7.08745 17.3812 7.17788 17.4738 7.27096C16.6905 7.97576 15.669 8.10873 14.7189 8.37469C13.3348 8.76033 11.9269 9.06619 10.609 9.65928C7.99165 10.5715 5.43519 11.6141 3.20954 13.3269C2.73318 13.6939 2.11921 13.9758 2.26211 14.7604C2.09539 15.3934 1.44172 15.2391 1.05269 15.5157C0.29052 15.3641 0.584274 14.9758 0.8251 14.5636C1.32528 13.7125 1.96571 12.9465 2.78082 12.4465C7.23477 9.70449 12.0592 7.92788 17.196 6.99702Z" fill="#F9F7F2"/>
<path d="M1.05263 15.513C1.40725 15.2444 1.75923 14.9731 2.11385 14.7045C3.76523 12.6938 5.73417 11.2124 8.39384 10.8773C8.67172 11.7656 7.66607 11.6805 7.42525 12.1726C7.21883 12.4731 6.78216 12.2204 6.5731 12.5289C5.60715 12.7497 6.30845 13.5768 6.02793 14.0476C5.55422 14.3215 5.06727 14.1806 4.58298 14.0875C3.98488 13.9917 3.60909 14.3853 3.20683 14.7205C3.08509 14.8375 2.95806 14.9492 2.82839 15.0582C2.69871 15.1646 2.55581 15.2471 2.38379 15.2604C2.03446 15.3455 1.68513 15.4332 1.33845 15.5183C1.24053 15.5157 1.1479 15.5157 1.05263 15.513Z" fill="#D5CEC5"/>
<path d="M12.7341 29.3644C12.6388 29.2687 12.5436 29.1729 12.4457 29.0772C11.9799 28.657 11.5115 28.2368 11.792 27.5027C12.2789 26.8644 12.9247 26.6782 13.6868 26.8272C14.3352 26.8538 14.711 26.2899 15.2509 26.0825C16.6879 25.5054 18.0138 24.7021 19.4084 24.0399C19.6466 23.9335 19.8901 23.8458 20.1574 23.8697C20.2897 23.899 20.3929 23.9708 20.4776 24.0771C20.3664 25.2101 19.2099 25.1888 18.6118 25.7846C17.1193 26.9788 15.3514 27.5798 13.4513 28.1144C13.6339 28.6038 14.1685 28.4894 14.3696 28.7926C14.4675 28.9894 14.4358 29.1676 14.2929 29.3272C13.7742 29.3644 13.2608 29.5852 12.7341 29.3644Z" fill="#C7BEB2"/>
<path d="M14.2928 28.8243C13.9064 28.7765 13.5042 28.7765 13.1416 28.6568C12.9881 28.6062 12.8585 28.3137 12.8267 28.1142C12.7844 27.8429 13.0225 27.7818 13.2554 27.7419C15.1661 27.4121 16.8969 26.6355 18.5324 25.6142C18.6859 25.6435 18.7759 25.7365 18.805 25.8881C18.8023 25.9759 18.7997 26.0634 18.7997 26.1511C18.3471 26.4038 17.4183 26.1834 17.7491 27.2153C17.7438 27.436 17.7888 27.6355 18.0058 27.7499C17.7305 28.0983 17.2727 28.0531 16.926 28.2499C16.4311 27.9041 16.1215 28.3562 15.7457 28.5238C15.2826 28.7286 14.8697 29.1701 14.2928 28.8243Z" fill="#DFD9D0"/>
<path d="M14.2928 28.8243C14.9544 28.8509 15.4361 28.465 15.968 28.1512C16.2353 27.9916 16.7064 27.3695 16.926 28.2499C16.0474 28.6089 15.1714 28.965 14.2928 29.3241C14.2928 29.1565 14.2928 28.9919 14.2928 28.8243Z" fill="#CFC8BE"/>
<path d="M17.2119 11.5344C21.6711 9.49984 26.5247 8.76313 31.1453 7.26578C33.8844 6.38013 36.7477 5.78192 39.1692 4.07446C40.3257 3.7819 41.2971 3.11415 42.3133 2.52904C42.8135 2.2418 43.5201 1.58488 43.9382 2.09286C44.4648 2.73383 43.1866 2.69925 43.1337 3.27106C42.8241 3.59553 42.5224 3.92532 42.0831 4.07692C40.2676 4.4466 38.8703 5.76842 37.113 6.26843C34.3052 7.01046 31.6032 8.12217 28.9938 8.79239C28.9382 8.76845 29.187 8.80036 29.1049 9.1142C28.9303 9.20196 28.7583 9.28707 28.5836 9.37484C28.4513 9.52378 28.266 9.56899 28.0861 9.61952C27.1757 9.70197 26.2256 9.6009 25.4343 10.2179C24.3705 10.803 23.1981 11.0185 22.031 11.2605C19.9721 11.1355 18.2043 12.0743 16.3888 12.835C15.8569 12.9547 15.3329 13.2791 14.7851 12.8882C14.531 12.0983 15.2085 12.1328 15.6213 11.8882C16.1242 11.5983 16.7037 11.7499 17.2119 11.5344Z" fill="#F1EFE8"/>
<path d="M28.5861 9.93083C30.9361 9.742 32.9368 8.3271 35.2551 7.99465C35.7659 7.92018 36.2713 7.80847 36.7927 7.80581C36.8747 8.40156 36.3507 8.49465 36.0093 8.6755C35.4589 8.9654 35.3424 9.55583 34.9958 9.9787C33.5826 10.3271 32.2858 11.1117 30.7773 11.1117C30.3539 10.5771 29.8617 10.758 29.3721 10.9814C28.4882 11.3856 27.5672 11.625 26.588 11.625C25.241 11.8245 23.9257 12.2048 22.5602 12.2872C22.2717 12.2713 22.0124 12.2074 21.9065 11.8883C22.0468 11.3191 22.5549 11.2394 22.9942 11.0558C24.7832 10.3165 26.6516 9.95211 28.5861 9.93083Z" fill="#E5DFD6"/>
<path d="M28.5861 9.93083C28.0595 10.5904 27.337 10.319 26.6701 10.3589C24.9949 10.4573 23.5023 11.1754 21.9833 11.8031C21.7795 12.2845 21.2952 12.3749 20.9009 12.5903C19.0484 13.4201 17.0265 13.7872 15.1978 14.6861C14.1339 15.1595 13.213 16.0345 11.9189 15.851C11.8289 15.7446 11.7839 15.6196 11.7892 15.4787C13.1468 14.1329 14.8167 13.3749 16.6242 12.8802C18.4344 12.327 20.1863 11.6036 21.9806 11.0052C23.1133 10.6063 24.3307 10.4919 25.4131 9.93075C26.2387 9.46798 27.2285 9.82436 28.0621 9.40681C28.2368 9.39883 28.4088 9.39085 28.5835 9.38287C28.5782 9.56372 28.295 9.74998 28.5861 9.93083Z" fill="#CEC6BA"/>
<path d="M29.1048 9.12219C28.9487 8.78176 28.5358 8.97857 28.2685 8.69133C31.2246 7.76845 34.1436 6.85887 37.06 5.94929C37.2955 6.16206 37.9069 5.80567 37.8433 6.47057C35.5304 7.26313 33.2147 8.05303 30.9044 8.85623C30.3195 9.06102 29.7294 9.19932 29.1048 9.12219Z" fill="#E8E3D9"/>
<path d="M34.9404 9.93047C34.7816 8.5395 36.1313 8.47833 36.7903 7.80545C36.9649 7.71236 37.1422 7.61928 37.3169 7.52619C38.9339 7.0581 40.437 6.27086 42.0461 5.78947C42.4722 5.66181 42.9088 5.31607 43.3905 5.66979C43.6869 5.68575 44.0071 5.62724 44.1976 5.95171C44.1685 6.1565 44.0653 6.31873 43.9145 6.45437C41.3051 7.15917 38.8677 8.37992 36.2451 9.04748C35.6761 9.13259 35.7714 10.231 34.9404 9.93047Z" fill="#F0ECE4"/>
<path d="M43.393 5.67241C41.8871 5.9889 40.5639 6.79742 39.111 7.25753C38.5235 7.4437 37.9413 7.60859 37.3194 7.52881C38.5817 6.71231 39.852 5.90911 41.2838 5.41177C42.4217 5.76815 43.3797 4.72825 44.5256 4.95432C44.4066 5.66177 43.6206 5.20698 43.393 5.67241Z" fill="#D6CFC5"/>
<path d="M37.8461 6.47062C37.5841 6.29775 37.3221 6.12222 37.0628 5.94934C38.8491 5.63551 40.0374 3.68602 42.0857 4.0823C40.8683 5.23391 39.3016 5.75519 37.8461 6.47062Z" fill="#E2DBD1"/>
<path d="M5.5834 24.0453C5.06999 23.6038 5.35316 23.1596 5.57811 22.7155C5.59134 22.3591 5.51459 21.9947 5.70249 21.6596C5.8454 21.4256 6.16826 21.3378 6.21325 21.0266C6.13386 20.4974 5.43784 20.3644 5.4352 19.7926C5.46431 19.6064 5.55958 19.4761 5.74483 19.4229C6.11533 19.4867 6.48848 19.5771 6.86163 19.4176C7.14744 19.383 7.34592 19.6117 7.60263 19.6676C7.92285 19.7261 8.24307 19.5692 8.56329 19.6543C8.94702 19.875 8.77235 20.141 8.6268 20.4069C8.36216 20.7607 8.01018 21.0293 7.73495 21.3724C7.64233 21.4867 7.42796 21.6463 7.68467 21.7793C7.83022 21.8537 8.02341 21.742 8.19808 21.7287C8.44684 21.7234 8.67973 21.7926 8.90468 21.8883C9.28312 22.2846 9.64038 22.5718 10.0559 21.899C10.2358 21.6091 10.5164 21.3777 10.7916 21.1596C11.1991 20.9149 11.6067 20.6995 11.9798 21.2128C12.0037 21.4202 11.9084 21.5772 11.7761 21.7181C11.477 22.0639 10.8022 22.1649 11.0324 22.8591C11.1541 23.1091 11.3791 23.2926 11.4797 23.5559C11.5061 23.8644 11.4003 24.1224 11.1727 24.3298C10.7043 24.4681 10.5349 23.9176 10.1406 23.8777C9.65362 23.7341 9.23813 24.2128 8.74854 24.0346C7.84875 24.0692 7.98107 24.7873 7.83287 25.5825C7.78259 24.3644 7.24536 25.0745 6.8828 25.0931C5.98566 25.3298 6.25824 24.0905 5.5834 24.0453Z" fill="#C6BEB4"/>
<path d="M6.61548 21.0798C6.62342 21.617 6.25292 21.6383 5.86389 21.6357C5.58602 21.6942 5.29756 21.7128 5.05673 21.8857C5.03027 22.1782 5.09644 22.4999 4.77887 22.6914C4.70212 21.6941 3.82614 21.6756 3.17776 21.3777C3.08514 21.1596 3.21481 21.0399 3.3736 20.9335C3.87642 20.7819 4.38189 20.6303 4.76298 20.2314C4.9297 20.1436 5.10701 20.125 5.28962 20.1702C5.73687 20.4628 6.18941 20.7553 6.61548 21.0798Z" fill="#CAC1B7"/>
<path d="M8.75391 24.0345C9.21175 23.6755 9.6881 23.3669 10.3153 23.5079C10.7467 24.1994 10.7149 24.7792 9.91834 25.1781C9.5055 25.3324 9.19057 25.2473 9.02385 24.8058C8.93122 24.5478 8.84125 24.2898 8.75391 24.0345Z" fill="#EAE5DC"/>
<path d="M9.53189 26.6888C8.88881 27.2925 8.32247 27.4282 7.95197 26.4202C8.29071 26.0372 8.04724 25.4122 8.49978 25.0771C8.54213 25.1196 8.58712 25.1595 8.6321 25.2021C8.82794 25.7579 9.05818 26.2978 9.53189 26.6888Z" fill="#E2DCD3"/>
<path d="M4.25496 24.0158C4.05383 23.7126 3.74155 23.7685 3.45045 23.7632C3.72832 23.2206 4.12785 22.8909 4.77358 22.9707C4.82386 23.4334 4.87423 23.8935 4.9298 24.4281C4.68104 24.2765 4.46668 24.1461 4.25496 24.0158Z" fill="#C3BBB1"/>
<path d="M5.5834 24.0453C5.77924 24.0692 6.04384 23.0161 6.1841 24.0959C6.23968 24.5135 6.45668 24.8991 6.88541 25.0933C5.96709 25.3725 5.77924 25.2208 5.5834 24.0453Z" fill="#E3DCD2"/>
<path d="M5.03293 25.3511C4.68096 25.3564 4.32898 25.359 3.97436 25.3644C3.44242 24.8005 3.33925 24.3222 4.23109 24.0403C3.98762 24.7929 4.85297 24.859 5.03293 25.3511Z" fill="#F3EEE7"/>
<path d="M7.10507 26.8773C7.12095 27.2044 7.06802 27.4198 6.7928 27.4252C6.34555 27.4305 6.25557 27.0395 6.16294 26.7283C6.04915 26.3454 6.28468 26.1885 6.64724 26.1645C7.36178 26.1166 6.34025 27.0555 7.10507 26.8773Z" fill="#E4DFD8"/>
<path d="M9.02114 24.8059C9.28049 24.907 9.53984 25.0081 9.79919 25.1091C9.92093 25.157 10.0083 25.2394 10.0559 25.3618C10.048 25.649 10.13 25.9655 9.80449 26.1464C9.21168 25.9868 8.80943 25.5852 8.49185 25.0799L8.49715 25.0746C8.61094 24.8644 8.80943 24.8192 9.02114 24.8059Z" fill="#B9B0A5"/>
<path d="M5.05673 21.8857C5.16524 21.2766 5.43782 21.2075 5.86389 21.6357C5.80038 22.0054 5.96703 22.4357 5.578 22.7176C5.40334 22.4383 5.22875 22.1623 5.05673 21.8857Z" fill="#E9E4DB"/>
<path d="M6.89604 19.513C6.53877 20.1407 6.17356 20.1034 5.80835 19.521C5.56753 19.3322 5.19173 19.1832 5.17586 18.8774C5.12293 17.9173 4.48249 17.6008 3.72032 17.3694C3.52977 17.0742 3.22808 17.1167 2.94226 17.1087C2.59029 16.6646 2.92903 16.38 3.25454 16.3401C4.72861 16.1619 5.71308 15.0396 6.98337 14.4784C7.28242 14.3986 7.60264 14.2337 7.79318 14.6566C7.59734 15.0476 7.74554 15.1726 8.14251 15.1061C9.03171 15.6992 8.71943 16.3082 8.17427 16.9226C7.86993 17.1939 7.53118 17.3614 7.12363 17.2949C7.43062 17.5901 8.23514 17.2284 8.20867 17.8587C8.17162 18.63 7.63704 19.2018 6.89604 19.513Z" fill="#E4DFD7"/>
<path d="M3.72032 17.3717C4.71537 17.2015 5.52254 17.2387 5.35581 18.635C5.31876 18.9462 5.86393 19.1114 5.80835 19.521C5.72631 19.6061 5.64427 19.6909 5.56488 19.776C5.0647 19.7441 5.49607 20.1776 5.30553 20.3026C5.12293 20.3079 4.94297 20.3132 4.76036 20.3159C4.70479 20.2893 4.64657 20.2627 4.59099 20.2387C4.16227 19.9063 3.90821 19.5127 4.12522 18.9462C4.23108 18.6829 4.46926 18.2254 3.89498 18.4621C3.38157 18.6722 2.96873 19.1563 3.29159 19.8611C3.4689 20.2467 3.79971 20.6244 3.47155 21.0898C3.37628 21.1856 3.27836 21.2813 3.18309 21.3771C2.96873 21.3744 2.77289 21.4143 2.65909 21.6297C2.56118 21.885 2.38387 22.0579 2.13775 22.167C1.92603 22.0553 1.87575 21.8611 1.88104 21.643C2.05571 21.3797 2.23037 21.1137 2.40239 20.8504C2.13775 20.502 2.061 20.151 2.37857 19.7919C2.11658 18.5845 2.9899 18.018 3.72032 17.3717Z" fill="#CFC7BC"/>
<path d="M7.15274 14.7181C5.84804 15.3378 4.85298 16.5852 3.25718 16.6171C2.99254 16.6224 2.96078 16.891 2.94226 17.1144C2.7623 17.0267 2.5797 16.9389 2.39974 16.8511C2.39445 16.3219 2.38915 15.7926 2.38386 15.2633C2.47384 15.1729 2.56382 15.0798 2.6538 14.9894C2.8364 14.8484 3.1725 14.7394 3.23866 14.883C3.82352 16.1437 4.26548 15.0612 4.71008 14.7899C5.07264 14.5692 5.31082 14.1543 5.7713 14.0718C5.88509 14.0639 6.00154 14.0718 6.11269 14.0958C6.44614 14.3139 6.88545 14.1915 7.2136 14.4309C7.27447 14.5399 7.24801 14.6357 7.15274 14.7181Z" fill="#CFC7BC"/>
<path d="M1.86523 16.3164C2.02931 16.4919 2.19604 16.6675 2.36011 16.843C2.42628 17.2127 2.3707 17.5447 2.08489 17.8133C1.71174 18.1644 1.34918 18.7362 0.777547 18.207C0.256199 17.7229 0.732557 17.332 1.06336 16.9942C1.30948 16.7442 1.59794 16.5398 1.86523 16.3164Z" fill="#F6F4F0"/>
<path d="M2.37576 19.7896C2.3837 20.1433 2.39164 20.497 2.39958 20.8481C2.11906 20.7444 1.82795 20.6619 1.55802 20.5343C1.31984 20.4226 1.0499 20.2178 1.18487 19.9438C1.33042 19.6486 1.58183 19.3082 1.865 19.2045C2.27785 19.0555 2.06084 19.7045 2.37576 19.7896Z" fill="#F3F0EB"/>
<path d="M31.7778 21.917C32.5373 22.5154 33.1222 21.526 34.1119 21.7601C32.4949 22.4755 31.0923 23.1298 29.6606 23.7069C29.0122 23.9675 29.6871 23.2494 29.3669 23.2095C30.0232 22.5021 30.87 22.151 31.7778 21.917Z" fill="#EAE7E2"/>
<path d="M43.9461 6.21277C44.0308 6.12501 44.1154 6.0399 44.2028 5.95214C44.8406 6.01863 45.3725 5.4149 46.0394 5.66756C45.6901 5.93618 45.3407 6.20214 44.9914 6.47076C44.6474 7.48406 43.7317 7.85641 42.9166 8.34577C42.0221 8.6862 41.1805 9.16493 40.2569 9.43621C39.8097 9.57185 39.3677 9.71547 38.8967 9.74738C38.3462 9.67025 37.6846 10.2633 37.2532 9.47344C37.4835 8.80322 38.1292 8.83514 38.6453 8.65429C40.4872 8.008 42.3582 7.42023 43.9461 6.21277Z" fill="#C7BFB3"/>
<path d="M42.8823 8.07671C43.5836 7.54213 44.2875 7.00489 44.9888 6.47031C45.4731 6.34265 45.2905 6.88787 45.5261 7.01021C45.7166 7.12989 45.6399 7.38255 45.7828 7.52617L45.8092 7.56075C46.0501 8.10596 45.714 8.35597 45.2985 8.56607C44.9544 8.67778 44.5972 8.67778 44.2399 8.68575C43.9567 8.68575 43.6736 8.68309 43.393 8.62724C43.1284 8.5315 42.8161 8.48097 42.8823 8.07671Z" fill="#E8E4DD"/>
<path d="M45.7828 7.52617C45.5658 7.41979 45.5314 7.22298 45.5261 7.01021C45.8648 6.97297 46.2299 7.00497 46.5369 6.88795C47.5161 6.51029 48.1141 6.82678 48.4158 7.80285C47.4896 8.19381 46.7064 7.18574 45.7828 7.52617Z" fill="#F6F5F0"/>
<path d="M47.6378 10.1992C47.7383 10.1886 47.8416 10.1755 47.9422 10.1648C48.1142 10.2606 48.2862 10.3561 48.4555 10.4519C48.1776 10.7178 47.8998 10.9838 47.6245 11.2524C47.3546 11.7418 46.9312 11.9945 46.349 12.0796C46.7486 12.1115 47.1323 11.9599 47.479 12.1753C47.6563 12.2976 47.7436 12.4546 47.6748 12.6753C47.0238 13.4625 46.0658 13.1062 45.2666 13.3375C44.7743 13.2471 44.3218 13.3801 43.8825 13.5876C43.5332 13.6993 43.1706 13.7631 42.8371 13.928C41.977 14.2046 41.1831 14.7259 40.2251 14.6275C39.5767 14.061 40.1986 13.8216 40.5321 13.5769C41.0693 13.1833 41.7442 13.1062 42.3581 12.8881C43.467 12.4971 44.5811 12.1088 45.5391 11.3907C46.2113 10.9439 46.9444 10.6061 47.6378 10.1992Z" fill="#C5BBAF"/>
<path d="M47.3679 12.3056C46.9312 12.3056 46.4945 12.3056 45.8567 12.3056C46.4972 11.803 47 11.4333 47.6272 11.2498C47.9686 11.2711 48.1671 11.4386 48.175 11.795C48.22 12.4705 47.6246 12.1195 47.3679 12.3056Z" fill="#EBE6DE"/>
<path d="M49.2416 13.1118C49.5354 13.4948 49.1622 13.5289 48.961 13.6512C48.3868 13.7816 48.2518 13.3135 48.0295 12.9624C48.003 12.8401 48.0004 12.7177 48.0189 12.5954C48.1274 12.3135 48.2571 12.0395 48.4318 11.7922C48.6144 11.4863 48.7864 11.7709 48.961 11.8028C49.0219 11.8534 49.0457 11.9066 49.0325 11.9651C49.0193 12.0236 49.0034 12.0555 48.9875 12.0555C49.0087 12.4199 48.8129 12.8431 49.2416 13.1118Z" fill="#C9C0B6"/>
<path d="M48.985 12.0529C48.9718 11.9705 48.9638 11.8854 48.9585 11.8003C48.9956 11.4465 49.1359 11.2019 49.5434 11.3215C49.7631 11.3854 49.9563 11.537 49.8266 11.795C49.6493 12.154 49.3687 12.3083 48.985 12.0529Z" fill="#EFEBE3"/>
<path d="M48.4291 11.7895C48.4264 12.0874 48.4793 12.4039 48.1591 12.5927C47.9818 12.7523 47.8071 12.731 47.6351 12.5874C47.5452 12.4943 47.4578 12.4012 47.3678 12.3081C47.6378 12.1379 47.9051 11.9677 48.175 11.8001C48.2597 11.7948 48.3444 11.7922 48.4291 11.7895Z" fill="#D6CFC4"/>
<path d="M2.1324 22.1672C2.30706 21.9891 2.48173 21.8082 2.65374 21.63C2.56377 22.1672 2.47643 22.7045 2.38645 23.2444C2.30177 23.1486 2.21973 23.0555 2.13504 22.9598C2.13504 22.6938 2.13504 22.4305 2.1324 22.1672Z" fill="#FEFEFE"/>
<path d="M11.1196 24.298C11.2096 24.04 11.3022 23.7794 11.3922 23.5214C11.5775 23.1331 12.0221 23.0426 12.2841 22.7421C12.5646 22.024 13.2526 21.7634 13.8163 21.3618C14.4912 20.9682 15.2586 20.8059 15.96 20.4761C16.3887 20.274 16.873 20.157 17.2435 20.6437C17.2197 21.3751 16.611 21.5054 16.1187 21.7767C14.7029 22.5533 13.2394 23.2581 12.0882 24.4309C12.0644 24.7288 12.2179 24.9416 12.4217 25.1331C12.5064 25.2076 12.5805 25.2927 12.6466 25.3857C12.8874 25.8219 12.6784 26.048 12.2629 26.0799C11.8818 26.1092 11.6304 26.2847 11.4293 26.5826C11.1699 26.7873 10.9079 26.9682 10.5956 26.6783C10.5956 26.5932 10.5956 26.5054 10.593 26.4203C10.6724 25.6863 10.5136 24.8964 11.1196 24.298Z" fill="#C4BAAE"/>
<path d="M11.3818 26.4151C11.3898 25.9311 11.4162 25.5348 12.1043 25.8273C12.5595 26.0215 12.6283 25.7529 12.4298 25.3752C12.4748 25.2608 12.5436 25.1704 12.6521 25.1119C12.4245 25.0534 12.3266 25.2449 12.1837 25.3513C11.8767 25.1651 11.8052 24.8353 11.6835 24.5374C12.0037 24.1066 12.5515 23.9816 12.9035 23.5613C13.2475 23.1544 13.7557 23.173 14.2267 23.4337C14.7481 23.7236 14.6131 24.1491 14.4676 24.58C14.4834 24.7688 13.7107 25.1784 14.6211 25.1145C13.97 25.6598 13.7848 26.3912 13.7848 27.1997C13.0941 26.8247 12.5304 27.3087 11.9217 27.4816C11.6226 27.814 11.4744 28.346 10.879 28.2954C10.8737 28.0241 10.8658 27.7529 10.8605 27.4816C10.9134 27.0534 11.2098 26.838 11.5327 26.5933C11.8317 26.3646 11.3421 26.5587 11.3818 26.4151Z" fill="#D4CCC3"/>
<path d="M10.879 28.2954C11.1727 27.955 11.4771 27.6279 11.9217 27.4816C11.7311 28.1359 12.4694 28.4785 12.4456 29.0742C11.9163 29.1673 11.4162 29.4279 10.8578 29.3402C10.7704 29.2524 10.6857 29.1646 10.5984 29.0769C10.6937 28.8189 10.7864 28.5587 10.879 28.2954Z" fill="#E1DCD5"/>
<path d="M11.1196 24.298C11.0429 25.0294 10.8894 25.7421 10.593 26.4203C9.99488 26.282 10.8472 25.4017 10.0559 25.3618C9.96856 25.2767 9.88388 25.1916 9.79919 25.1091C10.3788 24.7075 10.3654 24.1141 10.3125 23.5104C10.7518 23.5955 10.7994 24.0879 11.1196 24.298Z" fill="#D4CDC3"/>
<path d="M8.49444 25.0802C9.0052 25.3462 9.53184 25.5909 9.80707 26.1467C9.79913 26.3701 9.7515 26.5722 9.53449 26.6893C8.24038 26.7691 8.63999 25.7478 8.49444 25.0802Z" fill="#D4CDC3"/>
<path d="M11.3818 26.4151C11.6597 26.3513 11.8898 26.0371 12.2974 26.2898C11.8025 26.6994 11.3314 27.0903 10.8603 27.4839C10.4369 27.327 10.384 27.0451 10.5983 26.6781C10.8577 26.5903 11.1198 26.5029 11.3818 26.4151Z" fill="#E0DBD1"/>
<path d="M10.2966 28.5052C10.0161 28.6781 9.69326 29.0509 9.42068 28.6121C9.23807 28.3195 9.71179 28.2557 9.84411 28.0536C10.0691 28.1254 10.2225 28.2739 10.2966 28.5052Z" fill="#F9F9F5"/>
<path d="M48.1592 12.8533C48.4265 13.1193 48.6912 13.3853 48.9585 13.6512C48.8738 13.7416 48.7864 13.8347 48.7017 13.9252C48.3735 14.098 48.0322 14.2283 47.6511 14.1964C46.1215 14.5129 44.6395 15.0076 43.1575 15.4917C42.697 15.6433 42.2577 15.8613 41.7496 15.7762C40.6831 15.2257 41.5908 15.0847 41.9401 14.8214C42.9908 14.3746 44.1552 14.1911 45.0788 13.4464C46.0527 12.9624 47.1642 13.2097 48.1592 12.8533Z" fill="#D6CFC4"/>
<path d="M47.6378 10.1992C47.2487 10.9625 46.455 11.1567 45.7934 11.5344C45.6346 11.6753 45.4414 11.6567 45.2509 11.662C44.5602 11.5211 43.8747 11.7472 43.184 11.694C42.4007 11.3668 42.443 11.0211 43.0993 10.545C43.6604 10.1354 44.2638 10.5025 44.8195 10.3376C44.928 10.2924 45.108 10.436 45.1371 10.3322C45.1794 10.1727 45.1874 10.3961 45.0392 10.2844C44.6713 10.2684 44.2532 10.5025 43.9912 10.061C43.7715 9.69128 44.0282 9.52107 44.3114 9.37479C45.3303 9.43863 46.0607 8.44925 47.1034 8.59287C47.4051 8.98915 47.6512 8.83223 47.9661 8.56627C48.3234 8.26308 48.3737 8.61681 48.4345 8.86947C47.9635 9.07958 47.4792 9.295 47.1907 9.7365C46.7144 10.4652 47.4525 10.0769 47.6378 10.1992Z" fill="#E1DAD1"/>
<path d="M47.1034 8.59287C46.238 8.98649 45.5128 9.726 44.4648 9.66749C44.2796 9.52121 44.0599 9.39355 44.1261 9.09568C44.3087 8.5478 44.875 8.57705 45.2614 8.34035C45.6028 8.19407 45.7695 7.92545 45.8092 7.56375C46.0765 8.11428 46.8043 8.08223 47.1034 8.59287Z" fill="#CBC2B8"/>
<path d="M45.2586 11.5291C45.4359 11.5318 45.6132 11.5318 45.7906 11.5344C44.6658 12.5664 43.2341 12.9334 41.8394 13.3908C41.2149 13.5956 40.4156 13.5744 40.233 14.4627C39.7567 15.7871 38.4626 15.3988 37.5443 15.8643C38.5605 15.585 39.6032 15.4839 40.5268 14.8882C41.1461 14.4893 41.7997 14.1169 42.5513 13.9972C42.6783 14.0132 42.7921 14.0611 42.8953 14.1382C43.0171 14.8004 42.3184 14.6701 42.0829 14.9893C42.2655 15.3031 41.1937 14.9786 41.8183 15.5159C41.8924 15.7632 41.7415 15.8935 41.5615 16.0052C39.2221 16.5292 37.1764 17.9281 34.7179 18.109C36.8456 18.0132 38.6108 16.8191 40.6168 16.3616C41.2651 16.3988 41.8923 16.2552 42.5248 16.1382C42.9403 16.0611 43.4934 15.9015 43.6469 16.4121C43.7898 16.8856 43.0462 16.7685 42.8927 17.1302C42.4507 17.3058 42.0061 17.4813 41.5642 17.6568C39.1136 18.2207 36.5492 18.1409 34.1436 18.9654C33.9054 18.6489 33.6355 18.8563 33.3576 18.8935C32.9527 18.9467 32.471 19.0159 32.5266 18.3324C33.2861 17.476 34.3579 17.3563 35.3742 17.1196C36.1549 16.9387 36.9832 16.9148 37.5495 16.5079C36.311 17.0505 34.8555 17.2419 33.4105 17.46C33.1221 17.1302 33.3232 16.843 33.4846 16.5504C34.964 15.6621 36.573 15.1089 38.4546 14.6648C37.9227 14.718 37.6369 14.9175 37.3087 14.8776C36.9779 14.8058 36.6577 14.718 36.4725 14.3962C37.1605 13.468 38.3594 13.7047 39.2327 13.1807C39.5582 12.9839 40.0028 13.0478 40.3257 12.7951C41.9109 12.1488 43.4723 11.3908 45.2586 11.5291Z" fill="#D6CFC4"/>
<path d="M32.5586 18.4441C32.8814 18.8005 33.2096 18.7553 33.5775 18.492C34.3238 17.9547 34.051 18.6888 34.1436 18.9654C33.4211 19.1861 32.6644 19.3164 32.0266 19.7685C29.629 20.3829 27.4801 21.6462 25.1512 22.4388C25.0665 22.3484 25.0189 22.2393 25.0083 22.1143C25.0798 21.6356 25.4714 21.4228 25.7969 21.1542C26.2759 20.9228 26.8582 21.0026 27.3001 20.6489C27.3822 20.617 27.4668 20.5957 27.5568 20.5904C27.5939 20.5877 27.6336 20.5904 27.6706 20.593C27.4377 20.4574 26.9693 20.5505 27.0249 20.1356C27.0884 19.6808 27.5489 19.593 27.922 19.4707C28.3402 19.3324 28.7954 19.3829 29.2082 19.2047C30.3515 19.0558 31.2962 18.0398 32.5586 18.4441Z" fill="#DBD4CA"/>
<path d="M25.1484 22.1625C25.1484 22.2556 25.1512 22.3457 25.1512 22.4388C24.1826 23.3936 22.9413 23.8328 21.7107 24.2929C21.7848 23.5429 21.0359 24.1174 20.8638 23.761C20.8427 22.8753 21.634 22.6466 22.1262 22.1785C23.3435 21.253 24.7276 20.6944 26.2017 20.3407C26.604 20.4046 26.9956 20.4976 27.2656 20.8434C27.0433 21.5774 26.379 21.1838 25.9424 21.37C25.6539 21.5349 25.2913 21.5535 25.0452 21.7982C24.9685 21.8753 24.7091 21.7902 24.8203 22.0056C24.8573 22.0774 25.0452 22.0854 25.1484 22.1625Z" fill="#DAD3C9"/>
<path d="M20.9141 23.7576C21.3482 23.6246 21.7848 23.489 22.2665 23.34C22.3935 23.9252 21.7054 23.8932 21.7081 24.2922C21.5361 24.3853 21.3614 24.4809 21.1894 24.574C20.3928 25.0128 19.5989 25.4518 18.8023 25.8906C18.7123 25.8002 18.6223 25.7071 18.5297 25.6167C19.0802 25.005 20.1202 24.9704 20.3875 24.0262C20.4907 23.7895 20.6283 23.6273 20.9141 23.7576Z" fill="#E8E3DA"/>
<path d="M26.7364 6.74175C26.8581 6.52632 27.0592 6.4944 27.2789 6.5077C27.3318 6.62738 27.353 6.75504 27.3106 6.87473C27.1518 7.32154 27.181 7.41728 27.5409 7.55558C24.1058 8.74176 20.4802 9.33751 17.1986 10.9918C17.0292 10.912 16.8757 10.8189 16.8731 10.5982C17.2701 9.91465 18.326 10.0317 18.5774 9.17262C20.0859 8.69921 21.3985 7.81357 23.1213 7.72048C24.2699 7.65665 25.5613 7.19388 26.7364 6.74175Z" fill="#DFD8CE"/>
<path d="M16.9418 10.7204C17.0291 10.8108 17.1165 10.9012 17.2038 10.9917C17.0344 11.0848 16.8624 11.1778 16.6931 11.2683C16.0526 12.0715 14.9305 11.9731 14.1922 12.6353C13.8984 12.8986 13.5782 13.0928 13.4697 13.497C12.4164 14.0476 10.9662 13.8374 10.331 15.1726C10.0796 15.4731 9.81232 15.747 9.36507 15.6353C9.21158 15.0848 8.70082 14.8082 8.39647 14.372C8.38324 14.239 8.40971 14.114 8.46793 13.9944C10.3522 12.5981 12.5884 11.9784 14.74 11.1911C15.4281 10.9358 16.095 10.3135 16.9418 10.7204Z" fill="#F3EFE9"/>
<path d="M30.7271 5.70443C30.9679 6.02093 31.2539 5.91997 31.545 5.79497C32.8021 5.24975 34.1622 5.34273 35.4774 5.15389C32.9977 6.20975 30.46 7.08222 27.795 7.53169C27.6944 6.54764 28.8086 6.78434 29.1156 6.20721C29.5893 5.83221 30.1819 5.84539 30.7271 5.70443Z" fill="#E6E0D7"/>
<path d="M13.4988 13.3829C13.3903 13.1382 12.8001 12.9228 13.4697 12.6329C14.5415 12.1701 15.5339 11.5236 16.6931 11.2683C16.7989 11.489 17.0028 11.5185 17.2119 11.5344C16.5555 12.2259 15.3486 11.9227 14.8299 12.8589C14.9173 13.3988 14.4382 13.3536 14.1604 13.5212C14.0439 13.5557 13.9248 13.5664 13.8031 13.5611C13.6814 13.5345 13.5808 13.4759 13.4988 13.3829Z" fill="#E6E1D7"/>
<path d="M29.1156 6.20721C29.2876 6.25774 29.6738 6.3032 29.2477 6.51331C28.7025 6.78193 28.1761 7.04498 27.795 7.53169C27.7103 7.53967 27.6281 7.54789 27.5434 7.55321C26.2705 7.50534 27.2073 6.89363 27.2814 6.50533C27.8927 6.40693 28.5042 6.30827 29.1156 6.20721Z" fill="#EEEAE3"/>
<path d="M26.7364 6.74175C25.3999 7.43324 24 7.94677 22.4942 8.06114C21.0493 8.17018 19.9272 9.18348 18.5325 9.40423C17.2278 10.3271 15.7432 10.8191 14.2267 11.2367C13.1549 11.0053 12.279 11.5984 11.3421 11.9388C11.2363 11.992 11.1251 12.0399 11.0166 12.0851C10.0401 12.5957 8.8042 12.5559 8.03409 13.5053C8.03673 13.625 8.01027 13.7367 7.95205 13.8404C7.71916 14.1676 7.41218 14.3404 7.00727 14.3165C6.70028 14.3032 6.36683 14.4867 6.09954 14.1862C6.00692 14.1277 5.97516 14.0692 6.00427 14.008C6.03338 13.9468 6.06249 13.9149 6.09425 13.9149C5.1336 12.8591 5.14153 12.8378 6.63148 12.3165C6.80085 12.3537 6.98081 12.4787 7.14224 12.3803C9.53991 10.9282 12.4007 10.5957 14.8116 9.18614C15.2456 8.93082 15.7643 9.02391 16.2142 8.8271C18.723 8.08773 21.1922 7.18613 23.8307 7.01325C24.7993 6.92283 25.7678 6.83217 26.7364 6.74175Z" fill="#EEEAE3"/>
<path d="M23.828 7.01314C21.2689 7.71793 18.7124 8.42272 16.1533 9.13017C15.9336 8.93336 15.9284 8.69134 16.0051 8.4307C16.0633 8.31634 16.1507 8.22857 16.2618 8.16474C16.6561 8.00251 17.1007 8.02378 17.4897 7.82697C17.9793 7.47857 18.588 7.84027 19.0882 7.55304C20.2341 7.29239 21.4197 7.20729 22.5233 6.76313C22.6821 6.57962 22.8514 6.57962 23.0261 6.73654C23.3198 6.75249 23.6374 6.69399 23.828 7.01314Z" fill="#CDC5BB"/>
<path d="M23.0261 6.73902C22.8593 6.74699 22.69 6.75516 22.5233 6.76313C22.4306 6.59558 22.3353 6.42518 22.2427 6.25497C22.6238 6.1938 23.0075 6.10603 23.2986 6.47571C23.206 6.56348 23.116 6.65125 23.0261 6.73902Z" fill="#EEEAE3"/>
<path d="M19.0855 7.55566C18.6091 7.91737 18.0057 7.88546 17.4764 8.07695C17.0768 8.38014 16.5475 8.01312 16.1506 8.33759C14.4621 9.03174 12.7181 9.55568 10.9688 10.0637C10.6274 9.97058 10.2649 9.89345 10.331 9.40408C12.6282 8.40673 15.0867 7.96512 17.4738 7.27096C18.7732 6.97841 20.0726 6.68598 21.3746 6.39342C21.3931 6.48385 21.4143 6.57428 21.4328 6.6647C20.4616 6.89077 19.4904 7.11683 18.5112 7.34556C18.6382 7.62747 18.8923 7.50247 19.0855 7.55566Z" fill="#EFEBE5"/>
<path d="M42.8929 17.1277C42.7183 16.625 43.4037 16.8005 43.4275 16.3484C42.5251 16.2261 41.6729 16.9707 40.7652 16.5851C40.9319 15.992 41.5379 16.1144 41.919 15.8723C43.1682 15.4016 44.4384 15 45.7193 14.6303C46.0263 14.5425 46.3333 14.4415 46.5424 14.742C46.6959 14.9628 46.4947 15.1303 46.3148 15.2606L46.328 15.25C46.1295 15.5 45.5526 15.484 45.7828 16.0346C45.8781 16.133 45.9734 16.2287 46.0686 16.3271C45.0074 16.5931 43.9515 16.8617 42.8929 17.1277Z" fill="#DED8CD"/>
<path d="M46.3147 15.2576C46.5635 14.6273 46.2194 14.7177 45.8225 14.8401C44.4913 15.2496 43.1601 15.6512 41.829 16.0555C41.5458 16.1566 41.4982 16.0236 41.5564 15.7816C41.6437 15.6938 41.7311 15.606 41.821 15.5156C43.5994 14.9757 45.3805 14.4385 47.1589 13.8986C47.4447 13.8108 47.8999 13.4012 47.6538 14.1964C47.0504 14.3534 46.9842 15.1885 46.3147 15.2576Z" fill="#C1B8AB"/>
<path d="M45.78 16.0347C45.6027 16.1145 45.4254 16.1942 45.2481 16.274C45.4519 15.7288 45.722 15.2925 46.328 15.25C46.1454 15.5106 45.9626 15.7714 45.78 16.0347Z" fill="#C1B8AB"/>
<path d="M10.331 9.40408C10.5057 9.57696 10.683 9.74992 10.8577 9.92279C10.4686 10.6728 9.69852 10.726 9.01839 10.9494C8.84372 10.992 8.66641 11.0052 8.4891 10.9787C6.34019 11.3643 4.73381 12.7632 3.02156 13.9601C2.70134 14.1835 2.41553 14.4574 2.11384 14.7074C1.28285 13.7952 2.37583 13.5558 2.73575 13.2792C4.73381 11.7393 6.96211 10.601 9.3439 9.77119C9.6747 9.65151 10.0029 9.52376 10.331 9.40408Z" fill="#EFECE6"/>
<path d="M8.73796 10.7314C9.44456 10.4627 10.1511 10.1914 10.8577 9.92279C12.5699 9.22332 14.2531 8.42003 16.1506 8.33759C16.1506 8.60089 16.1533 8.86687 16.1533 9.13017C13.4089 10.1993 10.6619 11.266 7.92021 12.3378C7.48091 12.5106 7.05218 12.8271 6.62875 12.3165C6.80342 12.234 6.97808 12.1516 7.15275 12.0691C7.80112 11.5824 8.56859 11.3457 9.29901 11.0505C8.98937 11.1569 8.69562 11.2606 8.73796 10.7314Z" fill="#DBD5CC"/>
<path d="M6.09139 13.9148C6.09404 14.0052 6.0969 14.0958 6.09954 14.1862C5.10713 14.5559 4.57498 15.5558 3.64344 16.0132C3.45819 16.1036 3.29676 16.3324 3.0771 16.1648C2.86009 16.0026 2.93419 15.7526 3.06387 15.5797C3.54552 14.9361 3.06652 14.9893 2.65367 14.9866C2.74365 14.8988 2.83098 14.8084 2.92096 14.7206C3.47407 14.4041 4.10127 14.2047 4.50353 13.6621C5.00106 13.96 5.54358 13.9494 6.09139 13.9148Z" fill="#E5E0D8"/>
<path d="M8.73796 10.7314C8.93645 10.8803 9.13221 11.0266 9.39685 11.2261C8.61351 11.5213 7.88309 11.7952 7.15003 12.0718C7.38027 11.4415 8.16888 11.4999 8.4891 10.9787C8.57379 10.8935 8.65592 10.8112 8.73796 10.7314Z" fill="#EEEAE3"/>
<path d="M4.50631 13.6595C4.37928 14.617 3.71238 14.7606 2.92374 14.718C3.26778 14.0904 3.80765 13.7579 4.50631 13.6595Z" fill="#F2F0EA"/>
<path d="M20.9141 23.7576C20.7395 23.848 20.5648 23.9358 20.3875 24.0262C20.2975 24.0262 20.2076 24.0264 20.1202 24.0264C19.7074 23.8535 19.3713 24.0822 19.022 24.2445C18.4741 24.5078 17.8311 24.4386 17.3097 24.8695C16.3544 25.6594 16.3226 25.6221 15.9521 24.3509C15.7139 24.2524 16.5502 23.8774 15.833 23.9014C15.3064 23.9067 14.8194 23.8402 14.8909 23.1328C14.9517 22.5157 15.4281 22.6992 15.7986 22.6939C16.1029 22.6886 16.402 22.5476 16.709 22.67C18.0004 23.7844 19.1913 22.9173 20.4034 22.4758C20.8374 22.3455 21.2582 22.1673 21.724 22.178C21.9304 22.1992 22.113 22.271 22.2453 22.4413C21.7981 22.8748 21.192 23.1486 20.9141 23.7576Z" fill="#D0C8BD"/>
<path d="M16.1479 24.3088C16.1585 24.6706 16.3305 24.9498 16.6375 25.3168C17.0715 24.0695 18.1036 24.128 19.0616 24.0243C19.3607 23.862 19.6068 23.8009 19.5856 24.2849C18.1751 24.9924 16.7619 25.7025 15.3513 26.4099C14.7717 26.0908 14.9279 25.4551 14.7373 24.9684C15.0761 24.4658 15.518 24.1838 16.1479 24.3088Z" fill="#E0DBD2"/>
<path d="M14.8115 25.0745C15.5445 25.2926 14.9306 26.0638 15.3513 26.4122C14.748 26.5106 14.478 27.2819 13.7847 27.2021C13.213 26.1888 13.4724 25.484 14.5654 25.0904C14.6421 25.0133 14.7241 25.0053 14.8115 25.0745Z" fill="#EAE6DF"/>
<path d="M19.5856 24.2849C19.4718 24.0721 19.276 24.0296 19.0616 24.0243C19.4162 23.6599 19.7683 23.6487 20.1202 24.0264C19.9429 24.1115 19.7629 24.1998 19.5856 24.2849Z" fill="#DAD3C9"/>
<path d="M14.0334 13.3827C14.298 13.2072 14.5626 13.0343 14.8273 12.8588C15.3566 12.7683 15.8859 12.6779 16.4125 12.5875C16.9841 12.521 16.484 12.9971 16.6798 13.1221C14.9543 13.6407 13.4564 14.6221 11.9109 15.5104C11.1276 16.3136 10.0769 16.6513 9.09775 17.1115C8.67432 17.3109 8.2456 17.271 7.94126 16.8349C8.27471 16.2976 8.90986 15.7551 7.92274 15.2338C7.82482 14.8668 8.03389 14.6566 8.30647 14.4811C8.36734 14.4678 8.4282 14.4545 8.48643 14.4412C8.59758 14.4997 8.71667 14.6194 8.81723 14.6035C9.88904 14.4386 9.43385 15.0449 9.27506 15.4997C9.41532 15.779 9.64027 15.6939 9.81758 15.5875C11.1911 14.7843 12.6916 14.2338 14.0334 13.3827Z" fill="#E1DBD1"/>
<path d="M16.6824 13.1249C15.9838 13.2526 16.7089 12.6622 16.4151 12.5903C18.1432 11.6143 19.9111 10.7765 21.9806 11.0052C20.4007 12.1781 18.5243 12.609 16.6824 13.1249Z" fill="#E6E1D7"/>
<path d="M28.0621 9.40391C27.3211 10.3002 26.2837 9.69647 25.413 9.92785C26.1858 9.19647 27.1306 9.3321 28.0621 9.40391Z" fill="#E5DFD6"/>
<path d="M37.3222 9.4039C37.8514 10.005 38.4019 9.19113 38.9365 9.42784C39.217 10.0156 38.5527 9.99699 38.386 10.2975C38.2299 10.3746 38.0632 10.3933 37.8938 10.3747C37.4121 10.2044 37.0496 10.5076 36.6552 10.6965C36.4779 10.7709 36.2953 10.8161 36.1101 10.8507C33.4954 11.4092 30.8199 11.6805 28.2713 12.5422C26.8634 12.4066 25.4873 12.6007 24.135 13.0023C23.6189 13.1539 23.1902 12.9412 22.7588 12.7151C22.5577 12.5449 22.3698 12.372 22.5153 12.0688C23.9232 11.8029 25.3312 11.5369 26.7391 11.2709C27.533 11.6034 28.2819 11.2683 29.0467 11.1273C29.5972 11.0263 30.1371 10.7257 30.7166 10.9917C32.159 10.7762 33.4028 9.7523 34.943 9.93316C35.5437 9.82677 35.385 8.9624 35.9989 8.86932C36.5388 8.79751 36.9437 9.06879 37.3222 9.4039Z" fill="#D0C8BD"/>
<path d="M30.7138 10.9891C29.4091 11.372 28.1097 11.8508 26.7362 11.2683C27.9854 11.4146 29.0042 10.7045 30.1184 10.3481C30.8462 10.114 31.0526 10.2683 30.7138 10.9891Z" fill="#D8D0C5"/>
<path d="M22.5126 12.0663C22.6026 12.2339 22.6925 12.4014 22.7825 12.569C21.5705 13.5743 21.3058 13.5397 20.9115 12.3243C21.2688 12.1514 21.6234 11.9759 21.9807 11.803C22.0971 12.0184 22.2982 12.0557 22.5126 12.0663Z" fill="#DFD8CE"/>
<path d="M20.9141 12.3241C21.3905 13.5476 22.1447 12.6087 22.7852 12.5688C23.6373 12.9093 24.4657 12.6034 25.2649 12.3906C26.2044 12.1433 27.1174 12.0449 28.0569 12.3215C28.2342 12.4811 28.5756 12.364 28.6523 12.6885C28.2845 13.3481 27.5779 13.5103 26.9851 13.8428C26.5722 13.9837 26.125 13.9784 25.7254 14.1646C24.3333 14.6699 23.0339 15.3853 21.6763 15.9651C21.4567 16.0556 21.2317 16.1327 21.0094 16.2231C20.7951 16.3162 20.5807 16.4146 20.3584 16.4891C20.1864 16.5396 20.0117 16.5529 19.8344 16.5396C19.4851 16.4705 19.1622 16.4651 18.9796 16.8561C18.9081 16.9572 18.8261 17.0449 18.7361 17.1274C17.6881 17.6673 16.6296 18.1806 15.4545 18.388C14.7638 17.912 14.1525 18.4279 13.5068 18.5449C13.1839 18.4439 12.9087 18.2949 12.906 17.896C13.1204 17.3481 13.6206 17.1274 14.0757 16.8508C15.743 16.0502 17.45 15.3295 19.2098 14.7816C20.9088 14.2524 22.5523 13.5289 24.328 13.2497C22.0283 13.6726 19.9085 14.7018 17.6299 15.1939C17.0133 15.013 17.0768 14.7258 17.5135 14.3933C18.0136 14.013 18.6303 13.8853 18.9796 13.7311C18.3736 14.0954 17.1086 13.9758 17.0054 15.3481C16.2485 15.9731 15.3619 16.3082 14.4171 16.513C13.7979 16.3135 13.9699 15.9758 14.3033 15.6646C14.658 15.3348 15.1105 15.1673 15.5604 15.0024C15.5895 14.9917 15.6213 14.9332 15.6186 14.9013C15.616 14.8747 15.563 14.8534 15.526 14.8268C15.3407 14.7391 15.182 14.6327 15.092 14.4465C16.9101 13.4119 18.9769 13.0476 20.9141 12.3241Z" fill="#EAE4DC"/>
<path d="M7.94654 16.8374C8.80928 17.1965 9.42855 16.5794 10.1246 16.2842C10.7227 16.0315 11.3181 15.7709 11.9136 15.5129C11.9162 15.606 11.9162 15.6991 11.9188 15.7922C11.9982 16.3188 11.5483 16.364 11.2466 16.5449C10.8497 16.6778 10.4633 16.8347 10.0981 17.0422C9.30152 17.3534 8.76165 17.8028 9.15067 18.7683C9.12685 18.888 9.06863 18.989 8.97865 19.0688C8.34086 19.1965 7.85656 19.5741 7.42255 20.0342C7.24788 19.8587 7.07322 19.6858 6.89591 19.5103C7.23201 18.9172 7.81422 18.4837 8.04975 17.7177C7.1632 17.9278 6.7186 17.3268 5.96172 16.7337C6.80064 16.6725 7.36433 17.4651 7.94654 16.8374Z" fill="#D2CABF"/>
<path d="M11.1328 16.3268C11.3948 16.1486 11.6568 15.9678 11.9188 15.7896C12.9748 15.3428 14.0307 14.896 15.084 14.4465C15.3036 14.4571 15.5074 14.4997 15.6238 14.7178C14.9199 15.6726 13.8401 16.0981 12.8266 16.5157C12.2549 16.7524 11.9612 17.7577 11.0905 17.2337C11.0032 17.1274 10.9476 17.0077 10.9264 16.872C10.9132 16.6619 10.982 16.4784 11.1328 16.3268Z" fill="#F2EEE8"/>
<path d="M37.3222 9.4039C36.7849 9.46773 36.3218 9.33741 35.9989 8.86932C38.4019 8.20176 40.5983 6.9227 43.0753 6.47589C43.3717 6.4227 43.6575 6.30302 43.946 6.21525C43.4908 7.14877 42.591 7.48388 41.7309 7.8642C40.3019 8.49718 38.8227 8.98102 37.3222 9.4039Z" fill="#E4DED5"/>
<path d="M13.7795 21.638C13.3349 22.0795 12.8903 22.5183 12.443 22.9598C12.353 23.0556 12.2551 23.0742 12.1413 23.0024C12.054 22.5077 11.9402 22.021 11.6226 21.6114C11.7179 21.529 11.8158 21.4465 11.9111 21.3614C12.1889 20.7976 12.7712 20.5396 13.1708 20.0928C13.9541 19.6141 14.6025 18.8428 15.6452 18.9172C15.7934 19.0449 15.8754 19.2125 15.931 19.396C16.1242 20.404 15.5182 20.6566 14.6951 20.8189C14.2982 20.8986 13.5651 20.7923 13.7795 21.638Z" fill="#E7E2DA"/>
<path d="M10.8551 21.3639C10.6381 21.6272 10.429 21.8958 10.204 22.1511C9.33866 23.1352 9.33601 23.1325 8.74586 22.1644C8.22716 21.3639 8.64265 20.7628 9.16135 20.183C9.50274 19.9064 9.6086 19.433 9.98174 19.183C10.0982 19.1351 10.2173 19.1272 10.3364 19.1538C10.6751 19.3718 10.7704 19.6804 10.564 20.0208C10.3125 20.4357 10.7916 20.3399 10.8762 20.5181C10.9027 20.8027 10.818 21.082 10.8551 21.3639Z" fill="#E1DBD2"/>
<path d="M10.855 21.3646C10.728 21.0269 10.2464 21.5189 10.2596 21.1678C10.2675 20.9604 10.6486 20.7716 10.8603 20.5721C11.1594 19.6997 11.911 19.3726 12.6679 19.0455C12.9219 19.0242 13.1469 19.0747 13.2977 19.3061C13.4142 19.6465 13.2342 19.9763 13.2501 20.3141C12.9669 20.8726 12.4482 21.1306 11.911 21.3593C11.559 20.8726 11.207 21.2503 10.855 21.3646Z" fill="#D6CEC4"/>
<path d="M11.6226 21.6114C12.5409 21.755 12.5648 22.2709 12.181 22.9597C11.7364 23.0954 11.2892 23.1672 10.8366 22.989C10.3894 22.3188 10.4741 22.1673 11.6226 21.6114Z" fill="#EFECE5"/>
<path d="M8.20331 21.8938C7.85133 22.0906 7.48612 22.5667 7.09445 22.072C6.7266 21.6093 7.29823 21.4098 7.52053 21.1545C7.80105 20.8327 8.15303 20.5773 8.47589 20.2954C8.58969 20.2023 8.69555 20.2023 8.79876 20.3114C8.77494 20.9045 8.61615 21.447 8.20331 21.8938Z" fill="#E3DED5"/>
<path d="M6.53597 22.2897C6.96205 22.686 7.2214 22.9041 7.45693 23.1514C7.83802 23.5504 7.46752 23.8775 7.31402 24.2073C7.24786 24.3509 7.08908 24.5025 6.89324 24.3562C6.59949 24.1355 6.57567 23.8296 6.74769 23.5424C6.97793 23.1514 6.57567 22.9147 6.53597 22.2897Z" fill="#E4DED5"/>
<path d="M8.74331 20.3034C8.65333 20.3007 8.566 20.298 8.47602 20.2927C8.50513 20.1172 8.77506 19.9443 8.47866 19.7688C8.32517 19.2794 8.84122 19.2422 9.01324 18.9709L9.0106 18.9736C9.21173 18.7661 9.45255 18.7315 9.71984 18.8087C9.91038 18.8911 10.0295 19.0321 10.0718 19.2395C9.89451 19.5932 9.71719 19.947 9.53988 20.3007C9.26995 20.048 9.00795 20.5427 8.74331 20.3034Z" fill="#D2CABF"/>
<path d="M9.01054 18.9709C9.06083 19.3911 8.65328 19.5028 8.47597 19.7688C8.14251 19.931 7.81158 20.0981 7.42255 20.0342C7.59986 19.1513 8.07106 18.7076 9.01054 18.9709Z" fill="#ECE7DF"/>
<path d="M5.30277 20.3031C5.22073 20.0372 4.95609 19.8164 5.10164 19.4919C5.25514 19.5877 5.40863 19.6808 5.56212 19.7765C5.73414 20.3563 6.67363 20.3111 6.61276 21.0797C5.95909 21.1914 5.59388 20.8138 5.30277 20.3031Z" fill="#E4DFD7"/>
<path d="M8.74331 20.3034C9.00795 20.2395 9.26995 19.8693 9.53459 20.3002C8.84916 20.739 8.68244 21.4039 8.74595 22.1619C8.566 22.0715 8.38339 21.9811 8.20343 21.8906C8.38339 21.364 8.56335 20.8353 8.74331 20.3034Z" fill="#C4BAB0"/>
<path d="M10.8366 22.989C11.2786 22.6725 11.7258 22.6539 12.181 22.9597C12.2684 22.9597 12.3557 22.9625 12.443 22.9598C12.181 23.3136 11.7997 23.4411 11.3922 23.5182C11.0667 23.4889 10.871 23.3241 10.8366 22.989Z" fill="#E3DCD5"/>
<path d="M3.46887 21.09C3.07191 20.0474 2.20123 18.9649 3.71764 18.0793C4.0458 17.8878 4.42953 17.7708 4.65183 18.1219C4.89266 18.4995 4.83179 18.8958 4.25222 18.9623C3.77057 19.5235 3.77057 19.5235 4.76563 20.3134L4.76036 20.3159C4.71273 21.2228 4.0405 21.074 3.46887 21.09Z" fill="#E4DFD6"/>
<path d="M7.1553 14.1861C7.42259 14.0105 7.68988 13.8377 7.95717 13.6621C8.20858 13.7685 8.39119 13.944 8.4944 14.202C8.49175 14.2818 8.4944 14.3616 8.4944 14.4414L8.46264 14.4627C8.21387 14.5744 8.03127 14.8855 7.68988 14.7233C7.51522 14.4174 7.33261 14.6967 7.15265 14.7153C7.1553 14.6249 7.1553 14.5318 7.15795 14.4414C7.06532 14.3855 7.03357 14.327 7.06532 14.2712C7.09179 14.2153 7.12354 14.1861 7.1553 14.1861Z" fill="#DFD7CD"/>
<path d="M7.68996 14.7258C7.94666 14.6381 8.20601 14.5503 8.46272 14.4652C8.28541 14.7232 8.1081 14.9812 7.93078 15.2365C7.43061 15.2631 7.56293 14.9945 7.68996 14.7258Z" fill="#CCC3B8"/>
<path d="M4.76563 20.3134C4.22575 20.183 3.63836 20.0771 3.4981 19.4202C3.41606 19.0398 3.70716 18.742 4.00886 18.601C4.52491 18.3617 4.28144 18.7606 4.25498 18.9601C4.05649 19.5531 4.76827 19.7974 4.76563 20.3134Z" fill="#CAC1B7"/>
<path d="M7.1553 14.1861C7.1553 14.2712 7.15533 14.3565 7.15798 14.4442C6.81394 14.3299 6.25025 15.1144 6.10205 14.1862C6.45138 14.1862 6.80333 14.1861 7.1553 14.1861Z" fill="#E5E0D8"/>
<path d="M38.3728 10.1942C38.2458 9.70482 39.0317 9.8906 38.9365 9.42784C39.3678 9.32943 39.7992 9.23142 40.2306 9.13301C40.3629 9.2394 40.5481 9.27131 40.654 9.42025C40.789 9.61706 40.8922 9.82717 40.9213 10.0692C40.8446 10.6756 40.4688 10.7953 40.0242 10.5054C39.6484 10.258 39.3837 10.4548 39.0714 10.5559C38.955 10.5905 38.8333 10.5985 38.7142 10.5825C38.5289 10.516 38.4125 10.3883 38.3728 10.1942Z" fill="#E5DFD6"/>
<path d="M40.5136 9.40942C40.4184 9.31634 40.3257 9.22325 40.2305 9.13017C41.1144 8.7791 41.9984 8.42778 42.8823 8.07671C42.9987 8.29214 43.2024 8.33229 43.4194 8.34293C42.6573 9.27113 41.6569 9.53708 40.5136 9.40942Z" fill="#E6E0D6"/>
<path d="M38.9098 10.4654C39.3703 10.1463 39.7858 9.43615 40.3548 10.4096C40.4501 10.5745 40.7332 10.1941 40.7597 9.91753C41.2202 8.98401 42.2179 9.06646 42.9986 8.76593C43.385 8.61433 43.8269 8.59039 44.1921 8.34305C44.5494 8.34039 44.9067 8.34039 45.2639 8.33773C44.912 8.60369 44.5573 8.86965 44.2054 9.13295C42.7419 10.367 41.2572 11.5532 39.148 11.1835C38.7378 11.0558 39.0395 10.6888 38.9098 10.4654Z" fill="#E6E0D6"/>
<path d="M44.1869 8.34293C43.6047 9.21527 42.4906 8.80038 41.7548 9.35623C41.4637 9.57432 41.0165 9.59294 40.7571 9.91741C40.5428 9.81102 40.5057 9.62219 40.5136 9.40942C41.4822 9.0557 42.4509 8.69931 43.4195 8.34558C43.6735 8.34558 43.9302 8.34293 44.1869 8.34293Z" fill="#D2CBBF"/>
<path d="M42.877 14.1886C42.2657 14.146 41.7999 14.4572 41.3262 14.787C40.122 15.6248 38.8121 16.1274 37.1951 16.0104C38.079 15.0689 39.4629 15.3643 40.233 14.4627C41.1143 14.194 41.9957 13.9253 42.877 13.6567C42.9908 13.6061 43.1205 13.5849 43.1549 13.7285C43.2131 13.9572 43.0728 14.0982 42.877 14.1886Z" fill="#E3DFD6"/>
<path d="M48.1592 12.8533C47.27 13.7736 45.9839 13.1273 44.9941 13.6592C44.9174 13.59 44.8697 13.5023 44.8592 13.3986C44.8724 13.2948 44.9174 13.2071 44.9968 13.1379C45.8304 12.7363 46.8094 13.0289 47.6351 12.5874C47.8098 12.59 47.9845 12.59 48.1591 12.5927C48.1618 12.6778 48.1619 12.7656 48.1592 12.8533Z" fill="#E3DDD4"/>
<path d="M44.9967 13.1356C44.9967 13.2207 44.9967 13.3058 44.9967 13.3909C44.7188 13.9229 44.4595 14.5612 43.9328 13.5665C43.9302 13.5026 43.9275 13.4415 43.9249 13.3776C44.2451 13.1303 44.5177 12.6649 44.9967 13.1356Z" fill="#D6CFC4"/>
<path d="M42.877 14.1886C42.8929 14.0131 43.168 13.8348 42.8769 13.6593C43.1495 13.279 43.565 13.4359 43.9223 13.3801L43.9355 13.396C43.917 14.1061 43.6312 14.4599 42.877 14.1886Z" fill="#D6CFC4"/>
<path d="M16.6825 22.694C16.4099 22.8296 16.0526 22.8988 15.8806 23.1169C15.6001 23.4679 15.2587 22.4892 15.1105 23.186C14.9623 23.8855 15.8012 23.327 15.8859 23.7605C15.5418 24.3882 15.0893 24.8057 14.306 24.569C13.9857 24.3217 14.7373 23.7366 13.9752 23.5929C13.5067 23.5025 13.1812 23.4414 12.9192 23.9759C12.6916 24.436 12.1412 24.4414 11.6833 24.5398C11.7125 23.6887 12.4958 23.5664 13.0066 23.2419C14.3642 22.3828 15.7774 21.6116 17.1694 20.803C17.2276 20.8057 17.2858 20.811 17.3467 20.8137C17.7013 20.92 18.0189 21.069 18.0904 21.4892C17.9819 22.2312 17.0265 21.9573 16.8068 22.5717C16.7698 22.6142 16.7248 22.6541 16.6825 22.694Z" fill="#E2DCD3"/>
<path d="M13.7795 21.638C13.6339 21.3428 13.3507 21.4417 13.0781 21.3886C13.6921 20.9843 14.0785 20.2928 15.0127 20.4604C15.5235 20.5508 15.9019 20.1492 15.6267 19.5135C16.2697 18.7236 17.4924 18.7715 18.0376 17.838C18.154 17.6864 18.2943 17.5774 18.4954 17.572C19.2602 18.0694 18.6568 18.6811 18.633 19.2449C18.506 19.4683 18.3102 19.596 18.064 19.6518C17.9423 19.8167 17.4236 19.4364 17.5983 20.0029C17.7253 20.1119 17.8073 20.2396 17.8285 20.4045C17.7412 20.721 17.6036 20.963 17.2119 20.8354L17.1695 20.8008C16.8308 20.4151 16.4259 20.5322 16.0951 20.7449C15.3779 21.205 14.5337 21.2976 13.7795 21.638Z" fill="#DBD4CB"/>
<path d="M12.1863 25.3535C12.2789 24.7391 12.7182 24.6301 13.2554 24.5982C13.2819 25.2178 12.8346 25.271 12.4324 25.3748C12.3503 25.3721 12.2683 25.3641 12.1863 25.3535Z" fill="#E3DED4"/>
<path d="M14.306 24.569C14.8326 24.3004 15.3592 24.0291 15.8859 23.7605C16.1055 23.8031 16.1162 23.1751 16.4311 23.5767C16.7275 23.9543 16.2273 24.0581 16.1453 24.3081C15.7007 24.5634 15.2534 24.8187 14.8088 25.074C14.7268 25.0767 14.6448 25.082 14.5627 25.09C14.3695 25.0528 14.1049 25.1964 14.0096 24.9543C13.9805 24.8772 14.2001 24.702 14.306 24.569Z" fill="#C4BBB0"/>
<path d="M42.877 14.1862C43.4116 14.1649 43.7027 13.8165 43.9356 13.391C44.2875 13.883 44.6422 13.8883 44.9941 13.391C44.9941 13.4787 44.9941 13.5692 44.9941 13.6569C44.2531 14.6091 43.1072 14.6649 42.0804 14.9867C42.3477 14.7208 42.6123 14.4548 42.877 14.1862Z" fill="#E1DBD0"/>
<path d="M38.91 11C40.9821 11.2607 42.4747 9.85908 44.2028 9.13301C44.2902 9.31121 44.3801 9.48674 44.4675 9.66493C44.3537 9.71281 44.1552 9.74472 44.142 9.81121C44.0996 10.0213 44.2796 10.1064 44.4542 10.1224C44.7242 10.1516 45.0285 9.78195 45.2667 10.1995C45.2296 10.3458 45.1397 10.4362 44.9862 10.4548C44.4145 10.8511 43.6921 10.391 43.0754 10.8618C42.5779 11.2394 43.086 11.3006 43.131 11.5027C42.2498 12.0825 41.3632 12.6437 40.2305 12.4336C39.4048 11.9043 38.7538 12.8166 37.9784 12.7128C37.7826 12.6862 37.6264 12.5905 37.4835 12.4575C37.3512 12.3192 37.2559 12.1623 37.2401 11.9628C37.5444 11.3405 38.2298 11.3245 38.7273 11.0107C38.7882 11.0107 38.8491 11.0054 38.91 11Z" fill="#D2CBBF"/>
<path d="M40.2225 12.3002C41.2784 12.3534 42.0935 11.5183 43.1283 11.5077C43.8402 11.4704 44.5547 10.904 45.2613 11.529C43.6099 11.8694 42.0115 12.3747 40.4951 13.1221C40.2834 13.3109 40.0214 13.255 39.7779 13.2471C39.5529 13.2391 39.2221 13.3428 39.1904 12.9838C39.1639 12.6992 39.455 12.5875 39.6509 12.4385C39.8229 12.3189 40.0055 12.2338 40.2225 12.3002Z" fill="#F1EEE7"/>
<path d="M44.9835 10.4574C45.0761 10.3723 45.1687 10.2872 45.264 10.202C45.4678 10.2473 45.6689 10.2925 45.8727 10.3403C45.8356 10.4148 45.8197 10.5159 45.7589 10.5611C45.4731 10.7792 45.2058 10.7792 44.9835 10.4574Z" fill="#F1EDE5"/>
<path d="M32.5586 18.4441C31.4127 18.8005 30.2667 19.157 29.1208 19.5134C28.483 19.0958 28.7767 18.6623 29.097 18.2261C29.5786 17.8378 30.1635 17.7075 30.7404 17.5479C31.6058 17.4336 32.4447 16.907 33.3498 17.3671C34.8265 17.0027 36.3032 16.6357 37.7799 16.2713C36.2979 17.6916 34.0909 17.21 32.5586 18.4441Z" fill="#C3BAAF"/>
<path d="M36.5228 14.4308C36.806 14.4681 37.1262 14.3883 37.3115 14.7101C36.0782 15.5186 34.665 15.8378 33.273 16.2154C32.442 16.2048 31.6984 16.5293 30.9494 16.8404C30.4704 17.0665 29.9649 17.1729 29.441 17.2128C28.5729 17.2793 27.824 17.8883 26.9162 17.7686C26.6119 17.6117 26.551 17.3724 26.6728 17.0665C27.1359 16.5426 27.8028 16.4282 28.4168 16.2287C30.4466 15.5691 32.4711 14.883 34.5565 14.4149C35.0223 14.359 35.4986 14.383 35.9591 14.2686C36.1655 14.25 36.3587 14.2872 36.5228 14.4308Z" fill="#C0B7AB"/>
<path d="M29.3959 16.8696C29.9173 16.7712 30.4386 16.6701 30.9573 16.5717C31.6772 16.4334 32.3679 16.1781 33.0877 16.0451C34.4956 15.5983 35.9035 15.1542 37.3088 14.7074C37.7931 14.5877 38.2774 14.468 38.7617 14.3483C37.105 15.2739 35.4272 16.0904 33.617 16.5824C32.5531 17.4281 31.2273 17.218 30.0178 17.4627C29.6659 17.5345 29.3218 17.367 29.3959 16.8696Z" fill="#E6E0D7"/>
<path d="M29.3959 16.8696C30.4466 17.5425 31.4603 16.7469 32.4977 16.7469C32.8338 16.7469 33.236 16.5926 33.6224 16.582C33.5324 16.8426 33.4425 17.1032 33.3525 17.3639C32.4686 17.5421 31.582 17.7176 30.6981 17.8958C30.0074 17.7016 29.3669 17.9809 28.7106 18.1112C28.1602 18.2203 27.6177 18.332 27.0884 18.0368C26.9508 17.9304 26.9296 17.8054 27.0169 17.6564C27.8082 17.3931 28.602 17.1329 29.3959 16.8696Z" fill="#E0DAD1"/>
<path d="M41.5539 15.782C41.6438 15.8724 41.7365 15.9629 41.8264 16.0559C41.4718 16.2341 41.1172 16.4097 40.7652 16.5879C38.6772 16.9948 36.8326 18.3033 34.5779 18.149C37.0549 17.7873 39.1006 16.2129 41.5539 15.782Z" fill="#C5BCB0"/>
<path d="M36.5228 14.4308C36.3481 14.4388 36.1734 14.4466 35.9988 14.4519C35.8559 14.561 35.6971 14.6275 35.5515 14.4812C35.3345 14.2631 35.5251 14.0929 35.668 13.9546C36.1099 13.5317 36.716 13.412 37.2267 13.1088C38.145 12.9732 38.8993 12.0051 39.9525 12.5636C39.7779 12.7152 39.6059 12.8668 39.3148 13.1168C39.7885 13.1168 40.1404 13.1168 40.4951 13.1168C39.1692 13.5583 37.846 13.9947 36.5228 14.4308Z" fill="#E6E1D8"/>
<path d="M29.118 18.4409C28.9804 18.7973 28.864 19.1563 29.1207 19.5127C28.5464 19.8717 27.7339 19.5313 27.239 20.1643C27.6122 20.51 28.0515 20.1377 28.504 20.2866C28.1971 20.784 27.7392 20.8265 27.2655 20.8398C26.8791 20.8771 26.5351 20.7494 26.2043 20.5659C26.0799 20.2494 26.3393 20.2228 26.5139 20.1457C26.1381 20.1483 25.8391 20.6005 25.4024 20.3664C24.9446 19.5419 25.0002 18.9542 26.0931 18.8451C26.2069 18.8318 26.3234 18.8425 26.4319 18.8744C26.7997 19.3797 26.9082 18.7627 27.1438 18.6988C27.7842 18.4568 28.3876 17.9488 29.118 18.4409Z" fill="#CFC7BC"/>
<path d="M25.1484 22.1625C24.7594 22.3833 24.41 22.2634 23.9575 21.9842C24.6323 21.6411 25.2384 21.3698 25.9423 21.3672C25.6777 21.6331 25.4131 21.8992 25.1484 22.1625Z" fill="#CFC7BC"/>
<path d="M25.4104 20.3001C25.6459 20.231 25.8788 20.1512 26.117 20.098C26.2493 20.0688 26.4689 19.9411 26.4848 20.1911C26.4928 20.3108 26.3048 20.4409 26.2043 20.5659C24.8387 21.0951 23.4361 21.5448 22.2426 22.4384C22.0573 22.4358 21.8747 22.4331 21.6895 22.4278C21.6101 22.3214 21.5995 22.2044 21.6471 22.0821C21.8588 21.7496 22.2029 21.59 22.5258 21.4039C23.5023 21.0767 24.2671 20.1858 25.4104 20.3001Z" fill="#C4BAAE"/>
<path d="M8.49178 14.2021C8.15833 14.1755 7.95456 14.0212 7.95456 13.6622L7.9572 13.6595C8.34358 13.1143 8.98666 13.0664 9.53448 12.8324C10.1246 12.5797 10.7757 12.4228 11.1276 11.7978H11.125C12.1253 11.6435 13.0251 11.1196 14.0361 11.0026C15.5339 10.4707 17.0318 9.93609 18.5297 9.40417C18.6038 10.5797 17.3388 10.1249 16.9392 10.7207C14.0811 11.7712 11.1779 12.718 8.49178 14.2021Z" fill="#CCC3B8"/>
<path d="M14.0334 13.3827C14.1524 13.4359 14.5044 13.497 14.2768 13.6167C12.6625 14.4704 11.08 15.4013 9.3386 15.9891C9.20098 16.0343 8.94693 16.13 8.95222 15.8534C8.95487 15.7337 9.16658 15.6194 9.28302 15.5023C9.66411 15.5156 9.91023 15.3162 10.0743 14.9917C11.1541 14.0954 12.4667 13.7444 13.7767 13.3933C13.8614 13.3933 13.9487 13.3907 14.0334 13.3827Z" fill="#CEC6BB"/>
<path d="M13.7767 13.3933C12.562 13.9757 11.379 14.6273 10.0743 14.9917C10.7968 13.5555 12.1755 13.5265 13.4988 13.3829C13.5914 13.3882 13.684 13.3906 13.7767 13.3933Z" fill="#E0D9CF"/>
<path d="M11.1276 11.7978C11.4531 12.3936 10.9926 12.5664 10.601 12.7154C9.72765 13.0505 8.83846 13.3483 7.9572 13.6595C7.75607 13.5132 7.40672 13.3882 7.3829 13.218C7.34056 12.9015 7.70577 12.9281 7.93865 12.851C9.00782 12.5106 10.0664 12.1515 11.1276 11.7978Z" fill="#DFD7CD"/>
<path d="M14.0388 11.0025C13.1496 11.5663 12.2021 11.9175 11.1276 11.7978C12.0592 11.3935 12.8796 10.5663 14.0388 11.0025Z" fill="#DFD7CD"/>
<path d="M16.1506 8.33759C16.5237 7.90141 17.0265 8.13014 17.4764 8.07695C17.1033 8.50514 16.6005 8.28439 16.1506 8.33759Z" fill="#DBD5CC"/>
<path d="M10.9186 10.7365C11.9004 9.85083 13.0622 9.43061 14.3907 9.43327C13.2342 9.86678 12.0778 10.3003 10.9186 10.7365Z" fill="#F1EEE7"/>
<path d="M20.3901 22.6997C19.6332 23.213 18.8446 23.5295 17.8839 23.5401C17.1773 23.5481 16.8439 23.3243 16.6825 22.694L16.6798 22.697C16.8783 22.4497 17.2091 22.1465 17.4314 22.3141C18.3206 22.9763 19.1621 22.354 20.0196 22.3247C20.2207 22.3726 20.3398 22.5002 20.3901 22.6997Z" fill="#E2DCD3"/>
<path d="M20.3901 22.6997C20.3001 22.6119 20.213 22.527 20.123 22.4392C20.258 21.886 20.602 21.5243 21.171 21.5057C21.5441 21.4951 21.8035 21.7211 21.7188 22.1679C21.7108 22.2557 21.7003 22.3408 21.6897 22.4286C21.2583 22.519 20.8241 22.6093 20.3901 22.6997Z" fill="#E5E0D7"/>
<path d="M28.5888 12.5957C28.3692 12.5877 28.1707 12.5396 28.0569 12.3215C30.1873 11.3906 32.4949 11.2154 34.7338 10.7446C35.2393 10.6382 35.7527 10.5611 36.2608 10.468C36.409 10.6888 37.0336 10.5212 36.7636 11.0877C35.803 11.6994 34.62 11.7154 33.6329 12.2606C33.4397 12.3271 33.2412 12.367 33.0375 12.3856C32.6326 12.4122 32.2277 12.4042 31.8227 12.4122C31.5581 12.4122 31.2935 12.4095 31.0288 12.4069C30.2958 12.3138 29.6447 12.7207 28.9355 12.7659C28.8032 12.7473 28.6894 12.6888 28.5888 12.5957Z" fill="#F0ECE4"/>
<path d="M36.7795 10.9783C36.6074 10.8081 36.4354 10.6379 36.2634 10.4677C36.4381 10.465 36.6101 10.4624 36.7848 10.4597C37.1023 10.215 37.4755 10.1991 37.8539 10.1964C38.0286 10.1964 38.2006 10.1937 38.3753 10.1937C38.4652 10.2842 38.5552 10.3719 38.6478 10.4624C38.1291 11.0209 37.5522 11.364 36.7795 10.9783Z" fill="#E6E0D6"/>
<path d="M37.8513 10.1968C37.5707 10.5904 37.1526 10.4282 36.7821 10.4601C37.06 10.0478 37.3484 9.68614 37.8513 10.1968Z" fill="#E5DFD6"/>
<path d="M17.4818 14.9943C19.8318 14.3746 22.0866 13.3693 24.5583 13.1858C20.9989 14.3587 17.5029 15.6885 14.0493 17.1273C13.8641 17.0901 13.7503 16.9757 13.6974 16.7975C13.7159 16.3906 14.097 16.4677 14.3166 16.3294C15.1926 15.9677 16.0712 15.6087 16.9472 15.247C17.061 15.0315 17.3283 15.1379 17.4818 14.9943Z" fill="#CFC7BC"/>
<path d="M25.6778 13.9202C26.0483 13.4814 26.5537 13.7208 26.9983 13.6516C27.0222 13.6915 27.046 13.7314 27.0724 13.7686C27.3583 14.0532 27.6441 13.7739 27.9272 13.7633C28.2713 13.75 28.7053 13.6011 28.8244 14.0399C28.9144 14.367 28.5359 14.5346 28.2819 14.7048C26.4452 15.4069 24.6615 16.2607 22.7138 16.6383C22.4597 16.6676 22.2109 16.7208 21.9622 16.782C21.7055 16.8325 21.4541 16.8298 21.2132 16.7075C20.9804 16.5452 20.8957 16.3165 20.9115 16.0399C21.028 15.8325 21.2238 15.7846 21.4382 15.7793C22.9996 15.5027 24.3307 14.6915 25.6778 13.9202Z" fill="#E5DFD5"/>
<path d="M14.3139 16.3298C14.1287 16.5 13.9461 16.6675 13.7608 16.8378C12.6705 17.6356 11.469 18.2074 10.1855 18.6144C8.84372 18.117 9.72499 17.4628 10.0637 16.8457C10.3443 16.5133 10.7042 16.3484 11.1329 16.3298C11.125 16.508 11.1197 16.6835 11.1117 16.8617C11.0191 16.9042 10.9873 16.9761 11.0191 17.0691C11.0297 17.0957 11.0747 17.1064 11.1329 17.1064C12.5858 16.2287 14.2372 15.7287 15.6239 14.7207C15.8356 14.6994 16.1823 14.5877 16.2379 14.6702C16.4575 15.0026 16.1082 15.0984 15.8991 15.2127C15.3275 15.5239 14.4648 15.4122 14.3139 16.3298Z" fill="#E4DFD5"/>
<path d="M12.7101 19.2334C12.0962 19.6802 11.4795 20.127 10.8656 20.5712C10.421 20.5925 10.0346 20.5526 10.368 19.9568C10.5189 19.6882 10.421 19.4621 10.323 19.2228C10.8259 18.2281 11.8368 17.9568 12.7392 17.5472C12.898 17.4754 13.0065 17.7015 12.9801 17.8983C13.1547 18.0791 13.332 18.2573 13.5067 18.4382C13.6814 19.1536 12.9959 18.9914 12.7101 19.2334Z" fill="#EFEBE4"/>
<path d="M18.5323 17.6437C18.445 17.7288 18.355 17.8139 18.2676 17.899C17.4896 18.5187 16.6745 19.0426 15.6239 18.9815C14.8326 19.4283 14.0439 19.8724 13.2526 20.3192C12.9033 20.048 12.9007 19.774 13.2474 19.4974C13.7819 18.7714 14.5917 18.5027 15.3804 18.1995C16.5236 17.7554 17.6643 17.3139 18.8075 16.8697C18.9398 17.0027 18.9637 17.165 18.9213 17.3405C18.8419 17.5054 18.7175 17.6118 18.5323 17.6437Z" fill="#C8BEB3"/>
<path d="M12.9801 17.902C11.8501 17.8488 11.2679 18.9073 10.3231 19.2264C10.2384 19.2291 10.1537 19.2344 10.0691 19.2397C9.97379 19.1413 9.87851 19.0429 9.78589 18.9445C9.7012 18.6706 9.83617 18.5296 10.0796 18.4525C11.3182 17.9365 12.3979 17.0562 13.7635 16.8355C13.8588 16.9312 13.954 17.0296 14.0493 17.1253C13.692 17.386 13.3348 17.644 12.9801 17.902Z" fill="#C8BFB3"/>
<path d="M25.6778 13.9202C25.7069 13.9521 25.7678 14.0027 25.7598 14.016C25.3523 14.6995 22.203 15.9841 21.4382 15.782C22.817 15.0772 24.1693 14.3192 25.6778 13.9202Z" fill="#D1C9BE"/>
<path d="M15.3777 18.1994C14.8299 18.9015 14.0333 19.194 13.2447 19.4972C13.1256 19.2898 12.9245 19.2472 12.7101 19.2366C12.9748 18.9733 13.2421 18.7073 13.5067 18.444C14.1048 18.1541 14.5944 17.0451 15.3777 18.1994Z" fill="#E2DCD3"/>
<path d="M18.7971 17.3691C18.7997 17.2015 18.8023 17.0366 18.805 16.869L18.7918 16.8318C19.0617 16.4568 19.4878 16.4329 19.8821 16.3371C20.0488 16.3291 20.2155 16.3212 20.3849 16.3132C20.7237 16.1802 20.9116 16.5073 21.1868 16.5765C21.4488 16.5765 21.7081 16.5765 21.9701 16.5738C22.0813 16.4994 22.1845 16.5127 22.2745 16.6137C22.3115 16.7334 22.2903 16.8425 22.211 16.9382C21.814 17.1669 21.3456 17.2361 20.9645 17.5047C20.856 17.5472 20.7448 17.5685 20.6284 17.5792C20.1203 17.5685 19.6174 17.4435 19.1067 17.5047C18.9876 17.4941 18.8844 17.4515 18.7971 17.3691Z" fill="#C7BFB3"/>
<path d="M17.4818 14.9943C17.3574 15.1991 17.1614 15.247 16.9444 15.247C16.8836 15.0103 16.5845 14.7204 16.8915 14.5369C17.8125 13.9864 18.6726 13.2177 19.9614 13.4518C19.4533 13.9917 18.7837 13.9624 18.2571 14.2364C17.9448 14.4013 17.3256 14.3241 17.4818 14.9943Z" fill="#E0D9D0"/>
<path d="M15.2878 17.6886C16.0579 16.7125 16.7725 16.6753 17.569 16.8668C16.918 17.1035 16.267 17.3375 15.2878 17.6886Z" fill="#DCD5CB"/>
<path d="M28.5888 12.5957C28.6788 12.5957 28.7661 12.5957 28.856 12.5983C28.9566 12.6994 29.0016 12.8218 28.9963 12.9654C28.9434 13.2526 28.7899 13.4707 28.5464 13.6276C28.0356 13.8191 27.5275 14.1223 27.0062 13.6595L27.0009 13.6515C27.419 13.1329 28.0833 12.984 28.5888 12.5957Z" fill="#E5DFD5"/>
<path d="M19.8821 16.3371C19.5804 16.6403 19.2311 16.8345 18.7918 16.8318C18.7785 15.8318 19.3025 16.018 19.8821 16.3371Z" fill="#E5DFD6"/>
<path d="M21.1867 16.5742C20.795 16.8748 20.5118 16.8322 20.3848 16.3109C20.4986 16.0982 20.6997 16.0556 20.9141 16.0397C21.1231 16.1567 21.1734 16.3561 21.1867 16.5742Z" fill="#D1C9BE"/>
<path d="M26.8767 12.6222C26.6597 13.1727 26.2971 13.2339 25.8578 13.3163C26.0325 12.7977 26.4083 12.7552 26.8767 12.6222Z" fill="#D4CCC1"/>
<path d="M10.0771 18.4549C9.97915 18.6198 9.88123 18.7847 9.78331 18.9469C9.52396 18.9576 9.26461 18.9655 9.00526 18.9762C8.28808 17.6411 8.40441 17.4096 10.0637 16.8457C10.3628 17.0771 10.2226 17.2501 10.0003 17.431C9.54514 17.8033 9.73568 18.1357 10.0771 18.4549Z" fill="#EEEAE1"/>
<path d="M11.1356 17.1067C11.0589 17.2477 10.9821 17.3913 10.9054 17.5322C10.8181 17.4604 10.6672 17.3993 10.6513 17.3115C10.5799 16.9498 10.8366 16.8859 11.1145 16.8594C11.1224 16.9418 11.1277 17.0243 11.1356 17.1067Z" fill="#CEC6BC"/>
<path d="M15.624 18.9786C16.5053 18.6169 17.3866 18.2579 18.2678 17.8962C17.7809 19.0824 16.6191 19.1542 15.6293 19.5106C15.6267 19.335 15.624 19.1568 15.624 18.9786Z" fill="#E5DFD6"/>
<path d="M36.7795 10.9783C37.4014 10.8054 38.0235 10.6357 38.6454 10.4628C38.7327 10.4628 38.8225 10.4654 38.9098 10.4654C39.8043 10.6436 38.7353 10.8219 38.91 11L38.9153 10.9974C38.2061 11.4309 37.2983 11.516 36.7558 12.2421C35.6814 12.5932 34.5566 12.7447 33.4663 13.0453C32.6221 12.5798 33.2916 12.3485 33.6172 12.0612C34.5249 11.274 35.6891 11.239 36.7795 10.9783Z" fill="#DED7CC"/>
<path d="M21.7213 22.1675C20.9803 21.0079 20.6575 22.3536 20.1255 22.4387C19.538 22.9334 18.7017 22.726 18.0904 23.1648C17.9581 23.2606 17.667 23.2393 17.667 23.0451C17.6617 21.9494 16.9816 22.8829 16.6825 22.6967C16.4205 22.0611 16.6666 21.7579 17.3124 21.8244C17.712 21.8669 17.8628 21.6488 18.0084 21.3669C18.5297 19.8908 20.1679 19.9334 21.1259 19.0504C21.3032 19.0398 21.6208 19.1116 21.6022 19.1674C21.3164 19.9786 22.0759 19.5052 22.2585 19.7233C22.3353 20.6382 21.671 20.9095 20.9988 21.0637C20.4934 21.1807 19.9985 21.2925 19.7868 21.3935C20.1917 21.1488 20.9327 21.1196 21.6525 20.9866C22.031 21.0903 22.3379 21.2871 22.5205 21.6462C22.2506 21.8217 21.986 21.9946 21.7213 22.1675Z" fill="#D0C8BD"/>
<path d="M21.1656 19.2287C20.3055 20.2287 18.8791 20.3857 18.0084 21.3697C17.7438 21.1915 17.4791 21.016 17.2145 20.8378C17.3892 20.6596 17.5665 20.4814 17.7411 20.3032C18.7388 19.5692 19.6969 18.7394 21.0624 18.8723C21.1815 18.9681 21.2159 19.0851 21.1656 19.2287Z" fill="#EDEAE2"/>
<path d="M21.1816 18.9684C19.8822 19.0189 18.9955 20.1383 17.7411 20.3032C17.6565 20.2181 17.5718 20.1306 17.4872 20.0455C17.5321 19.7423 17.7095 19.5668 18.0059 19.5056C18.1832 19.4152 18.3578 19.3274 18.5351 19.237C19.9774 18.3327 21.5336 17.6413 22.997 16.7742C23.566 16.7024 24.1668 16.2955 24.6749 16.9258C24.6034 17.7024 23.8995 17.8008 23.394 18.0588C22.7403 18.3913 22.0867 18.7476 21.3748 18.9551C21.3086 18.9631 21.2451 18.9657 21.1816 18.9684Z" fill="#CEC5BA"/>
<path d="M23.0313 17.114C21.978 17.6858 20.9248 18.2576 19.8715 18.8268C19.4533 19.0529 19.0431 19.3055 18.5324 19.239C18.1169 18.7071 18.9426 18.1752 18.5297 17.6433C18.6171 17.5529 18.707 17.4598 18.7944 17.3693C18.8791 17.3693 18.9638 17.3693 19.0511 17.3667C19.583 17.4731 20.1097 18.005 20.6495 17.3826C20.7342 17.372 20.8216 17.364 20.9062 17.3587C21.3376 17.1592 21.8034 17.0529 22.2374 16.856L22.2321 16.8454C22.4623 16.6273 22.7138 16.606 22.989 16.7523C23.1107 16.8614 23.1239 16.981 23.0313 17.114Z" fill="#E5DFD6"/>
<path d="M18.0057 19.5075C17.8337 19.6884 17.6617 19.8666 17.487 20.0474C17.2859 20.098 17.0874 20.1458 16.8863 20.1964C16.8783 20.0873 16.8413 19.8905 16.8678 19.8799C17.2462 19.7495 17.4288 18.9969 18.0057 19.5075Z" fill="#E5DFD6"/>
<path d="M37.5841 12.3244C37.6635 12.4095 37.7456 12.4946 37.8249 12.5797C37.7085 13.0158 37.2904 13.1089 36.9887 13.3377C36.1259 13.6488 35.295 14.0584 34.3793 14.2047C33.7071 14.2233 33.0508 14.5637 32.3654 14.3031C32.2436 14.2127 32.1907 14.0903 32.2066 13.9387C32.5374 13.1462 33.3604 13.2366 33.9717 12.9467C35.1679 12.6887 36.2953 12.0318 37.5841 12.3244Z" fill="#ECE8E0"/>
<path d="M37.5841 12.3244C36.3562 12.5956 35.1309 12.8693 33.903 13.1406C33.6092 13.2629 33.326 13.364 33.3525 12.8586C34.4402 12.3267 35.6099 12.1565 36.7955 12.0528C36.9675 11.9118 37.1395 11.8932 37.3116 12.0501C37.4042 12.1406 37.4941 12.2339 37.5841 12.3244Z" fill="#C7BEB3"/>
<path d="M37.047 13.1144C37.3063 12.9362 37.5683 12.758 37.8277 12.5798C38.3464 12.3724 38.8677 12.1755 39.3785 11.9575C39.786 11.7846 40.138 11.6915 40.22 12.3005C40.1301 12.3883 40.0401 12.4787 39.9501 12.5665C38.9736 12.5186 38.1955 13.1117 37.3195 13.3883C37.0417 13.4867 36.9887 13.3564 37.047 13.1144Z" fill="#C8BFB3"/>
<path d="M37.3142 12.0505C37.1422 12.0505 36.9701 12.0532 36.7981 12.0532C37.2427 11.1729 38.087 11.1038 38.9153 10.9974C38.6163 11.7128 37.7773 11.5931 37.3142 12.0505Z" fill="#E6E0D6"/>
<path d="M26.4716 18.9733C26.3843 18.9733 26.297 18.976 26.2096 18.9787C25.9212 19.1728 25.7095 19.1303 25.5983 18.7765C25.8444 18.1249 26.2705 17.7659 27.0036 17.9122C28.2342 18.1542 29.4621 17.1462 30.6954 17.8989C30.1714 18.0797 29.6447 18.2606 29.1207 18.4414C28.3586 18.3962 27.7313 18.8829 27.0036 18.9733C26.8263 18.9787 26.649 18.9787 26.4716 18.9733Z" fill="#EDE8E0"/>
<path d="M32.2938 14.1914C33.0084 14.1728 33.6779 13.7951 34.4083 13.9201C34.0034 14.343 34.9085 14.3377 34.665 14.7074C32.0239 15.5132 29.3827 16.3218 26.7416 17.1276C26.4743 17.3856 26.1938 17.6117 25.7968 17.5984C25.683 17.593 25.5719 17.5665 25.4634 17.5266C25.204 17.3324 24.8732 17.2792 24.6059 17.101C24.0766 16.4973 23.5553 17.1356 23.0313 17.109C23.0313 17.0212 23.0286 16.9361 23.0286 16.8484C23.0657 16.6383 23.2007 16.5053 23.3806 16.4122C23.804 16.2446 24.2169 16.0265 24.6985 16.1117C26.4002 16.2898 27.8266 15.3696 29.3669 14.9148C30.3381 14.6356 31.2855 14.2951 32.2938 14.1914Z" fill="#DFD8CD"/>
<path d="M25.6804 17.3805C26.035 17.2981 26.3896 17.213 26.7443 17.1305C26.7443 17.3539 26.8025 17.5454 27.0142 17.6571C27.0089 17.7422 27.0036 17.8271 27.0036 17.9122C26.5643 18.1808 26.1276 18.447 25.6883 18.7156C25.3178 19.0667 25.0347 19.4816 24.7409 19.8991C24.2513 20.6013 23.6003 20.9683 22.7561 20.3965C22.6211 20.2369 22.5867 20.0507 22.6211 19.8459C22.6793 19.6571 22.7958 19.5082 22.944 19.3832C23.4971 19.0268 24.1137 18.7901 24.68 18.4576C25.1485 18.2263 25.4528 17.838 25.6804 17.3805Z" fill="#C8C0B5"/>
<path d="M34.6678 14.7098C34.5011 14.4731 34.1174 14.3082 34.4111 13.9226C35.2897 13.6539 36.1683 13.3853 37.047 13.1167C37.1396 13.2071 37.2296 13.3002 37.3222 13.3933C36.7797 13.6938 36.2372 13.9944 35.6973 14.3002C35.6973 14.3002 35.7264 14.3853 35.7529 14.396C35.8322 14.4252 35.9169 14.4385 35.999 14.4571C35.6205 14.888 35.1204 14.6726 34.6678 14.7098Z" fill="#D6CFC4"/>
<path d="M33.0877 16.0475C32.4632 16.5767 31.7169 16.606 30.9574 16.5741C31.6375 16.2736 32.2515 15.7071 33.0877 16.0475Z" fill="#E0DAD1"/>
<path d="M22.7586 20.2899C23.6478 20.6383 24.2406 20.1942 24.7064 19.5133C24.9631 19.141 25.2648 18.8644 25.6856 18.7128C25.7941 18.9308 25.9952 18.9628 26.2069 18.9761C25.3627 19.0665 25.5559 19.7846 25.4104 20.2979C24.4391 20.7341 23.5579 21.3697 22.5125 21.6436C22.1261 21.6303 21.8483 21.4575 21.6974 21.0904C21.798 20.484 22.1764 20.2527 22.7586 20.2899Z" fill="#DCD6CB"/>
<path d="M26.4716 18.9733C26.649 18.7047 26.8262 18.7072 27.0009 18.9758C26.895 19.0928 26.805 19.2896 26.6833 19.3136C26.4557 19.3535 26.4981 19.1196 26.4716 18.9733Z" fill="#DCD6CB"/>
<path d="M33.3525 12.8586C33.4716 13.0821 33.6833 13.1193 33.903 13.1406C33.3657 13.4012 32.8285 13.6622 32.2913 13.9229C31.8228 14.5293 31.1401 14.5027 30.4811 14.5479C30.0471 13.5266 30.9601 13.7261 31.4788 13.4149C31.4815 13.4122 31.4603 13.4787 31.3385 13.4867C30.4996 13.5505 30.0286 14.0638 29.7004 14.774C29.4702 14.9256 29.2214 14.9787 28.9515 14.9149C28.6789 14.8404 28.4513 14.7048 28.3137 14.4468C28.3984 14.3511 28.5227 14.266 28.5624 14.1543C28.6736 13.8351 28.3984 13.9229 28.2951 13.9681C27.8452 14.1649 27.3477 14.3032 26.9084 14.1596C26.3924 13.9947 27.0354 13.8431 26.9984 13.6543C27.5436 13.6569 28.094 13.6995 28.5836 13.383C29.2505 12.875 30.0471 12.7128 30.841 12.5532C31.6085 12.4814 32.368 12.375 33.0852 12.0612C33.2599 12.0612 33.4372 12.0612 33.6118 12.0612C33.6171 12.359 33.0429 12.4624 33.3525 12.8586Z" fill="#CFC7BC"/>
<path d="M30.9626 12.8404C30.1713 13.0239 29.38 13.2048 28.5887 13.3883C28.6761 13.2101 28.7661 13.0319 28.8534 12.8537C29.5018 12.4388 30.2878 12.3936 30.9679 12.0612C31.2325 12.0612 31.4998 12.0612 31.7645 12.0612C31.873 12.7101 31.2034 12.5532 30.9626 12.8404Z" fill="#EAE4DC"/>
<path d="M30.9626 12.8404C31.2299 12.5798 31.4974 12.3192 31.7647 12.0586C32.2066 12.0612 32.6486 12.0612 33.0905 12.0639C32.4845 12.6118 31.7962 12.9255 30.9626 12.8404Z" fill="#DED7CC"/>
<path d="M30.9679 12.0612C30.3777 12.6303 29.6288 12.7793 28.8534 12.8537C28.8534 12.7686 28.8534 12.6835 28.856 12.5983C29.5282 12.2925 30.2057 12.0053 30.9679 12.0612Z" fill="#DFD8CE"/>
<path d="M28.319 14.4491C28.536 14.4597 28.7371 14.4996 28.8536 14.715C27.6627 15.8135 26.2045 16.2097 24.6431 16.3321C24.1959 16.4145 23.7486 16.4996 23.3014 16.5821C22.9812 16.6752 22.5948 16.9731 22.5154 16.3241C24.5637 16.0635 26.3315 14.9092 28.319 14.4491Z" fill="#C7BFB3"/>
<path d="M22.5126 16.3247C22.7005 16.6359 23.0128 16.5694 23.2986 16.5827C23.2087 16.6731 23.1187 16.7636 23.0287 16.854C22.7641 16.8513 22.4994 16.8487 22.2348 16.846C22.1448 16.7556 22.0575 16.6652 21.9675 16.5747C22.0919 16.362 22.2903 16.3194 22.5126 16.3247Z" fill="#D1C9BE"/>
<path d="M20.6523 17.3831C19.8848 18.4416 19.5646 18.4389 19.0538 17.3671C19.591 16.8857 20.1203 17.3113 20.6523 17.3831Z" fill="#DFD8CD"/>
<path d="M22.2401 16.8564C21.8405 17.1383 21.5044 17.5957 20.9089 17.359C21.1921 16.7633 21.732 16.8537 22.2401 16.8564Z" fill="#DFD8CD"/>
<path d="M25.6803 17.3797C26.0111 18.1882 25.3125 18.3664 24.8758 18.7042C23.9257 18.4515 23.3462 19.5286 22.5972 19.3877C22.6396 19.3877 22.8619 19.3265 23.0365 19.5127C22.9466 19.6005 22.8539 19.6882 22.7639 19.7787C22.5972 19.9276 22.4252 19.9382 22.2532 19.7866C21.88 19.8957 21.5095 20.0074 21.1258 20.1217C20.5356 19.8106 22.2823 19.5606 21.1655 19.2308C21.1734 19.143 21.1787 19.0579 21.1814 18.9701L21.1734 18.9755C22.1685 18.5207 23.1636 18.0632 24.1639 17.6244C24.5582 17.4515 24.9367 17.1776 25.4051 17.3744C25.4977 17.3744 25.5903 17.377 25.6803 17.3797Z" fill="#D8D0C5"/>
<path d="M22.2533 19.7846C22.4227 19.7819 22.5947 19.7793 22.7641 19.7766C22.7641 19.9468 22.7615 20.1197 22.7615 20.2899C22.4095 20.5585 22.0549 20.8245 21.7029 21.0931C20.729 21.3564 19.7525 21.6197 18.7786 21.8803C19.7525 20.7846 21.5203 21.2341 22.2533 19.7846Z" fill="#BDB3A7"/>
<path d="M25.4078 17.3719C23.9735 17.84 22.6847 18.7044 21.1736 18.973C22.1474 18.0342 23.5104 17.8161 24.6086 17.1033C24.9394 16.9943 25.347 16.6565 25.4078 17.3719Z" fill="#EAE3D8"/>
<path d="M24.6403 16.3325C26.1143 15.9814 27.4561 15.2766 28.8508 14.7154C29.1101 14.7101 29.3695 14.7048 29.6288 14.6995C29.8591 14.4841 30.1263 14.391 30.4386 14.4548C31.0552 14.2766 31.6746 14.1011 32.2913 13.9229C32.2913 14.0107 32.2911 14.1011 32.2938 14.1888C30.0496 15.2022 27.6943 15.883 25.3389 16.5639C25.0955 16.6383 24.8149 16.5905 24.6403 16.3325Z" fill="#EFEBE1"/>
<path d="M23.0365 19.5127C22.8407 19.4755 22.6026 19.5845 22.465 19.3478C23.2774 19.1617 23.8225 17.9675 24.8758 18.7042C24.2645 18.9728 23.6505 19.2414 23.0365 19.5127Z" fill="#EBE6DD"/>
<path d="M30.4414 14.4573C30.2402 14.7685 29.9306 14.7153 29.6316 14.702C29.7162 12.7871 31.4152 13.7446 32.233 13.1302C31.889 13.9573 30.5896 13.3563 30.4414 14.4573Z" fill="#E1DAD0"/>
</svg>
