<svg width="40" height="32" viewBox="0 0 40 32" fill="none" xmlns="http://www.w3.org/2000/svg">
<path d="M21.0097 30.8641C16.0594 30.4533 11.189 29.5381 6.37848 28.3524C4.98027 28.0084 3.9982 26.9797 3.67861 25.3198C3.19923 22.8282 3.22586 20.2531 2.44686 17.815C1.87426 16.2519 1.53803 14.5752 0.203074 13.3896C-0.019973 13.1925 -0.0699089 12.7984 0.106531 12.4711C0.193087 10.3369 1.01203 8.54667 2.40358 6.91011C3.84839 5.21342 5.42636 3.65702 6.95773 2.05051C9.24812 -0.354238 12.1943 -0.147162 15.0607 0.23025C21.4158 1.06857 27.7843 1.85011 34.0729 3.15937C34.7221 3.2963 35.3812 3.40986 36.0171 3.60024C39.6557 4.67235 40.8609 6.57611 39.3861 10.3469C37.7881 14.445 37.6982 18.6867 36.7029 22.8082C36.0637 22.8082 36.0803 22.2871 36.0038 21.8797C35.7707 20.6305 36.4998 16.9232 37.2055 15.6507C37.109 15.6908 37.0191 15.7609 36.9858 15.8511C35.7075 19.1409 32.7413 20.2832 29.1259 19.6987C28.7431 19.6352 28.3602 19.6219 27.9741 19.6152C26.446 19.4816 24.9513 19.1175 23.4332 18.9171C23.0005 18.8604 22.5577 18.7836 22.348 18.3059C22.4412 17.8784 22.7774 17.7014 23.1336 17.5478C25.6804 17.2372 28.1439 18.1089 30.6706 18.1156C31.2166 18.1156 31.7625 18.2458 32.3085 18.1189C33.0675 17.9252 33.8132 17.6647 34.3559 17.0735C36.2701 14.9727 37.6117 12.5112 38.3641 11.0082C37.7715 12.3007 36.35 14.3915 34.6222 16.2686C33.8099 17.1503 32.6814 17.2572 31.5428 17.2271C30.9336 17.2104 30.3244 17.2505 29.7118 17.2772C27.1851 17.147 24.6683 16.9366 22.1749 16.499C20.5603 16.1016 18.8924 16.0281 17.2678 15.6975C16.6919 15.5806 16.0194 15.6373 15.6932 14.9627C15.803 14.5352 16.1393 14.3548 16.5055 14.2045C19.3352 14.0509 22.0483 14.8859 24.8215 15.2098C25.201 15.2532 25.5772 15.3401 25.96 15.3701C27.2949 15.6975 28.6732 15.7476 30.0281 15.968C31.6327 16.2285 33.0642 15.7208 34.2793 14.6387C36.0504 12.4878 37.3487 10.0663 38.4073 7.50127C38.7635 6.71639 38.5405 6.0818 37.8913 5.56077C36.9892 4.81597 35.8606 4.67903 34.7887 4.4586C27.2949 2.90219 19.7446 1.76662 12.1244 1.10531C10.6863 0.981734 9.38128 1.3892 8.25606 2.30435C7.04762 3.28628 5.92572 4.3584 4.91702 5.54408C4.13469 6.54271 3.27912 7.48123 2.48348 8.46985C1.07862 10.22 1.37157 11.1919 3.49551 11.763C4.15134 11.94 4.97694 11.8866 5.19666 12.8051C5.10345 13.0522 4.93699 13.2292 4.70063 13.3395C2.79308 13.3962 2.05736 13.0957 1.16184 11.9C1.77772 13.3061 2.0274 13.5532 3.35902 13.9774C5.00357 14.4984 6.70472 14.7389 8.39921 15.0295C8.94518 15.123 9.69755 14.9393 9.82405 15.8277C9.52111 16.1817 9.10497 16.312 8.67552 16.4189C7.38052 16.5425 6.16542 16.0615 4.90703 15.9012C3.92829 15.7743 3.65198 16.0949 3.72189 17.0869C3.90166 19.6386 4.46427 22.1335 4.7206 24.6685C5.13674 27.3204 7.17745 27.6644 9.2914 27.8982C12.717 28.8668 16.2957 28.9202 19.758 29.6751C20.507 29.7853 21.3026 29.7786 21.8186 30.4833C21.772 31.0912 21.4158 31.0311 21.0097 30.8641Z" fill="#F6D57E"/>
<path d="M28.0739 19.1576C29.2225 19.0808 30.3011 19.6753 31.4929 19.4181C34.4591 18.7802 34.4657 18.8136 37.2954 15.153C36.9858 16.99 36.6729 18.5364 36.4865 20.0961C36.3799 20.9946 36.107 21.9498 36.7029 22.8082C36.836 24.5316 35.7308 25.6772 34.8053 26.9063C34.1262 27.2135 33.7633 27.808 33.4237 28.4259C33.1607 28.9035 32.9177 29.4179 32.2286 29.3344C32.0788 29.2809 31.9623 29.1874 31.8757 29.0538C31.9523 26.5823 31.7459 24.084 32.5316 21.6759C32.5981 21.4655 32.5249 21.3186 32.5116 21.539C32.4017 21.5256 32.2919 21.5357 32.1953 21.569C32.1587 21.5524 32.0988 21.5457 32.0622 21.5156C32.0289 21.4855 32.0189 21.4321 31.9989 21.3887C31.8957 21.9097 32.212 22.8148 31.0834 22.404C30.9536 22.3205 30.8371 22.2203 30.7272 22.1168C30.4942 21.8797 30.2145 21.6859 29.8916 21.6525C28.3436 21.4922 27.9508 20.5203 28.0739 19.1576Z" fill="#FEE798"/>
<path d="M32.4084 29.1674C33.2606 28.6898 33.1607 27.4941 34.0296 27.0165C34.2926 26.8729 34.4757 26.4787 34.8053 26.9063C33.3472 29.2275 32.2253 32.0364 28.8596 31.9996C27.0486 31.9796 25.2309 31.6256 23.4366 31.3116C22.6309 31.1713 21.7587 31.3417 21.013 30.8674C21.2993 30.8373 21.5856 30.8106 21.7521 30.5201C22.9239 29.8821 24.1224 30.5768 25.3042 30.4432C26.3262 30.6937 27.3748 30.6603 28.4135 30.7438C30.0281 30.8708 31.2931 30.2495 32.4084 29.1674Z" fill="#F6D780"/>
<path d="M32.4084 29.1674C32.182 30.2729 31.3631 30.9576 30.401 31.0611C28.7497 31.2415 27.0453 31.4586 25.4107 30.834C24.8381 30.4432 24.129 30.6102 23.5231 30.3698C23.0404 30.1794 22.6576 29.8287 22.6276 29.2843C22.591 28.6297 23.1503 28.4326 23.6197 28.3992C25.3175 28.279 26.8988 27.621 28.5533 27.277C27.3083 27.1701 26.0366 27.0098 25.7836 25.4C25.3974 24.418 26.0499 23.249 25.2276 22.3473C24.8714 22.2437 24.5052 22.2504 24.139 22.227C23.3167 22.2905 22.3679 21.4755 21.7055 22.5911C20.8965 22.7948 20.8199 22.1402 20.6169 21.6459C20.3239 20.9311 20.0176 20.2364 19.2985 19.7822C18.969 20.3967 19.698 20.7474 19.4916 21.2518C18.969 21.9331 19.485 23.0386 18.5695 23.563C17.7106 23.3058 18.4064 22.1135 17.5475 21.863C17.2046 21.8429 16.8617 21.8596 16.5221 21.8162C16.3157 21.8663 16.1027 21.6826 15.9162 21.8362C16.3523 21.9197 16.9349 21.8362 16.7352 22.5911C16.056 22.9718 15.2704 23.0086 14.558 23.2791C13.719 23.0987 13.233 22.581 13.0566 21.7427C12.97 21.3353 13.0066 20.8142 12.3608 20.8276C12.211 20.8443 12.0645 20.851 11.918 20.861C11.6917 20.8844 11.4686 20.8944 11.2422 20.8944C11.0225 20.8743 11.2755 20.851 11.0824 20.9077C10.3634 21.1182 9.30139 19.8991 8.9019 21.3854C8.49909 22.8816 8.95517 23.5463 10.613 24.0172C10.8228 24.0773 11.0325 24.1375 11.2356 24.221C11.7416 24.4347 11.9646 24.9324 12.3142 25.3031C12.444 25.3632 12.5705 25.4267 12.7004 25.4868C12.9001 25.5803 13.0799 25.6972 13.1698 25.9076C13.3362 26.0713 12.6205 26.3518 13.1897 26.4086C14.0753 26.4954 14.9042 26.3218 15.3503 25.3966C16.2425 24.8422 16.6786 23.7266 17.7672 23.4127C18.0901 23.6298 18.3797 23.8803 18.6061 24.2043C19.0589 24.8522 18.453 25.8475 19.3019 26.3585C19.7347 26.2216 19.738 25.7306 20.0243 25.4768C20.2839 25.243 20.5902 25.0092 20.9131 25.1161C22.2448 25.5569 21.7321 27.0298 22.3746 27.9183C22.7208 28.3992 21.9285 28.7599 21.3459 28.8534C21.2327 28.8701 20.8366 28.8568 21.0163 28.997C21.8952 29.6751 21.296 29.8254 20.7167 29.989C20.4071 30.0758 20.0509 29.9189 19.7646 30.1593C16.2358 29.3377 12.5306 29.478 9.08833 28.1888C8.64889 27.8314 7.51035 27.8548 8.42917 26.7727C5.79922 27.5442 5.37643 27.2903 4.68731 24.6284C4.68066 24.605 4.61408 24.595 4.57413 24.5783C4.58744 24.6885 4.54416 24.7787 4.43431 24.8455C4.1014 22.8616 3.75851 20.8777 3.44225 18.8904C3.38232 18.513 3.46222 18.1122 3.41229 17.7315C3.07938 15.0529 3.07272 15.0495 5.72265 15.5371C6.74467 15.7242 7.76003 15.9346 8.78205 16.135C10.3401 15.6774 11.8581 16.2419 13.3595 16.4389C16.2025 16.8097 19.0056 17.4609 21.8586 17.8116C22.0816 17.8384 22.2581 17.9886 22.4079 18.1623C24.2555 18.7301 26.1864 18.847 28.0773 19.1643C28.257 19.358 28.6232 19.6052 28.5866 19.7421C28.2404 21.0514 29.0227 21.1616 29.9882 21.2083C30.4043 21.2284 30.8104 21.4455 31.0701 21.8296C30.877 22.0133 30.7106 22.237 30.7871 22.4909C30.8038 22.5476 30.8837 22.1869 31.0801 22.1569C32.0488 22.5376 31.6327 21.7294 31.7459 21.3753C31.7892 21.2417 31.7925 21.0347 32.0022 21.2017C32.0688 21.2551 32.0588 21.4021 32.0855 21.5089C32.7013 23.4661 31.919 25.3799 31.889 27.3204C31.8791 27.9517 31.4729 28.6063 32.0721 29.1741C32.1853 29.1674 32.2952 29.1674 32.4084 29.1674Z" fill="#FEEBA3"/>
<path d="M4.45761 5.46058C6.31522 3.35976 8.02636 0.911595 11.0991 0.67446C13.0333 0.524163 15.0207 0.864836 16.9649 1.12535C23.4266 1.98371 29.9016 2.78529 36.2501 4.33836C37.0857 4.5421 37.8014 4.84603 38.394 5.4539C38.2276 6.53269 37.0324 5.54408 36.7095 6.30224C36.0936 6.30224 35.6009 5.99163 35.1116 5.66765C34.7554 5.11656 34.2826 5.85469 33.8998 5.56077C29.2591 4.4753 24.5252 3.99435 19.8379 3.25288C18.4763 3.03913 17.1047 2.85877 15.7231 2.81535C14.781 2.52812 13.7956 2.42792 12.8269 2.27095C11.402 2.04383 10.1503 2.4012 9.10497 3.51006C8.28603 4.37844 7.55696 5.3704 6.42841 5.90145C5.71266 6.02503 4.99026 6.17532 4.45761 5.46058Z" fill="#FEEAA4"/>
<path d="M4.45761 5.46058C5.0069 5.57413 5.5562 5.68769 6.10882 5.79791C5.77259 7.37436 4.50422 8.31622 3.59871 9.50189C3.42893 9.64551 2.99282 9.50857 3.09602 9.94944C3.22919 10.5306 3.72855 10.1966 4.05146 10.3102C4.21459 10.3402 4.37105 10.3903 4.52086 10.4538C8.02303 11.7229 11.7482 11.7163 15.3603 12.3442C18.2799 12.8518 21.246 13.0723 24.119 13.8471C24.4453 14.3214 24.5618 14.976 25.4307 14.8825C25.7935 14.8424 26.233 15.2265 26.0765 15.801C23.3966 15.4069 20.7167 15.0094 18.0368 14.6253C17.5009 14.5485 16.9582 14.5285 16.4189 14.4817C15.5101 14.9493 14.5713 14.6621 13.6591 14.5385C11.0358 14.1845 8.46912 13.5031 5.83917 13.1792C5.55953 13.1458 5.31651 13.0055 5.14007 12.775C4.4909 12.3041 3.72522 12.244 2.96619 12.097C1.11524 11.7396 0.562612 10.0196 1.78438 8.62015C2.68988 7.58143 3.56542 6.51599 4.45761 5.46058Z" fill="#FEECAE"/>
<path d="M9.78743 15.7943C7.60357 15.3434 5.40639 14.9593 3.24583 14.4216C1.78771 14.0609 0.552625 13.3495 0.865556 11.2086C1.84097 12.8017 3.32906 12.9153 4.7772 13.1291C8.00306 13.1257 11.0924 14.0308 14.2284 14.5819C14.2484 15.2031 14.3582 15.6774 15.1971 15.5605C15.5933 15.5037 16.2059 15.5505 16.1726 16.1717C16.1326 16.8664 15.5068 16.7696 15.0207 16.8063C13.2663 16.5124 11.4386 16.6193 9.78743 15.7943Z" fill="#FEE9A4"/>
<path d="M19.7646 30.1493C20.0709 29.5982 20.8932 30.0758 21.1595 29.4446C21.1029 28.9403 20.3971 29.3845 20.3405 28.8668C20.7434 28.1654 21.6522 28.8 22.1349 28.1621C22.2314 27.6678 21.5656 27.6243 21.4591 27.1835C21.3126 26.5756 21.7587 25.6003 20.9498 25.4166C19.9843 25.1996 20.1375 26.3986 19.6847 26.8795C19.6548 26.9096 19.5749 26.9163 19.5283 26.9029C19.4816 26.8896 19.445 26.8328 19.4017 26.796C18.3498 25.2229 19.4417 24.3445 20.4737 23.4461C20.7267 23.2056 21.0064 23.0253 21.3792 23.072C21.9318 23.6799 21.822 24.7553 22.7841 25.0793C22.854 25.2229 22.8773 25.3699 22.854 25.5269C22.328 27.267 22.8074 27.6243 25.1177 27.2269C24.6617 26.7927 24.2855 26.3585 25.0478 25.8776C25.3741 25.7106 25.6903 25.5102 26.0732 25.4868C26.5359 27.1634 28.2704 26.4754 29.3124 27.2603C27.548 27.9717 25.8302 28.6297 23.9393 28.7499C23.593 28.7733 22.9039 28.623 22.9106 29.2709C22.9172 29.7118 23.35 30.0358 23.8094 30.1159C24.412 30.2228 25.0012 30.3096 25.4074 30.834C24.169 30.9208 22.9572 30.7405 21.7454 30.5134C21.0863 30.3931 20.4271 30.2729 19.7646 30.1493Z" fill="#FCECA9"/>
<path d="M38.7303 7.46453C37.918 10.1899 36.3799 12.5145 34.7187 14.7723C33.0908 15.7041 31.4762 16.5992 29.4855 15.8578C28.4668 15.4804 28.4934 15.1196 29.349 14.602C32.6248 14.769 33.77 12.3007 35.0283 9.97282C35.6908 9.17458 35.7541 8.00226 36.6396 7.3443C37.3354 7.40442 38.0711 6.77317 38.7303 7.46453Z" fill="#FEEBA6"/>
<path d="M32.7313 18.4696C31.0601 19.034 29.4222 18.3861 27.771 18.3026C26.203 18.2224 24.6417 17.9853 23.077 17.815C22.5677 18.1456 22.1116 17.7382 21.6256 17.7181C21.2261 17.4877 20.5469 17.4042 20.8066 16.7362C21.003 16.2318 21.4025 15.7776 22.085 16.1417C24.7482 16.3688 27.4115 16.5959 30.0747 16.8264C30.5707 17.1336 31.13 16.8865 31.6427 16.9967C32.4184 17.1637 33.1374 17.4075 32.7313 18.4696Z" fill="#FEEAA1"/>
<path d="M32.7313 18.4696C32.5915 16.7061 30.8803 17.501 30.0747 16.823C33.0842 17.3708 34.9285 15.9413 36.3799 13.4129C37.2854 11.8332 38.3974 10.3636 39.223 8.72703C37.9513 12.5713 36.7761 16.489 32.7313 18.4696Z" fill="#FDE59A"/>
<path d="M22.085 16.1417C21.3026 16.4189 20.517 16.6928 21.7521 17.4776C21.2893 17.9152 20.7567 17.7749 20.214 17.6847C18.9357 17.4743 17.664 17.2205 16.369 17.1069C15.9129 17.0668 15.2138 17.2973 15.084 16.4857C15.3769 16.4189 15.7598 16.6059 15.9662 16.0749C14.9441 15.9446 13.9454 15.8144 12.8135 15.6707C13.233 14.8591 14.1119 15.4202 14.4215 14.8257C14.8609 14.465 15.3037 14.5719 15.7431 14.8224C17.4975 15.4937 19.3818 15.4503 21.1961 15.8043C21.519 15.8645 21.8586 15.8344 22.085 16.1417Z" fill="#FEE697"/>
<path d="M29.4022 14.8157C29.4255 15.0462 28.6732 15.2967 29.3024 15.447C31.0035 15.8511 32.7479 16.2051 34.1262 14.5953C34.3958 14.2813 34.6721 14.2179 34.7221 14.7756C33.6301 16.0181 32.202 16.5491 30.6107 16.4389C29.0926 16.3354 27.5879 16.0248 26.0765 15.8043C25.8002 15.113 25.1344 15.0963 24.5651 14.9794C23.7695 14.8124 24.3787 14.455 24.4186 14.1744C24.6084 13.9574 24.8581 13.9039 25.1277 13.9139C25.8934 14.0809 26.6791 14.0108 27.4547 14.0776C28.1339 14.2379 28.8696 14.2613 29.4022 14.8157Z" fill="#FEEEB2"/>
<path d="M15.084 16.4823C17.3078 16.813 19.5282 17.1436 21.7521 17.4743C22.1948 17.5879 22.6376 17.7014 23.0804 17.815C22.9339 18.0888 22.6775 18.1356 22.4046 18.1523C20.1841 18.2926 18.0601 17.638 15.8929 17.3374C13.5126 17.0034 11.149 16.5358 8.77873 16.125C9.02175 15.7342 9.42789 15.8244 9.78743 15.791C11.5718 15.8711 13.2796 16.5558 15.084 16.4823Z" fill="#F6D371"/>
<path d="M15.7431 14.8191C15.3037 14.8191 14.8609 14.8191 14.4215 14.8191C11.2056 14.2546 7.99307 13.6902 4.7772 13.1257C4.89704 13.0088 5.01689 12.8919 5.13341 12.775C8.52905 12.8552 11.7682 13.9407 15.1206 14.3114C15.5534 14.3581 15.9828 14.4249 16.4156 14.4817C16.2724 14.7556 16.0128 14.799 15.7431 14.8191Z" fill="#F3D170"/>
<path d="M4.43098 24.8388C4.44096 24.6752 4.411 24.4948 4.47093 24.3479C4.65069 23.9003 4.73059 24.2043 4.79051 24.4113C4.91036 24.8322 4.90703 25.3365 5.15338 25.6605C5.69602 26.3785 6.0489 27.7078 7.40715 26.462C8.16618 25.7673 8.76541 26.5188 9.34799 26.9597C9.11496 27.5843 8.59896 26.9163 8.35594 27.3338C8.34595 27.8715 8.86195 27.7312 9.14825 27.8949C9.18154 27.9149 9.19486 28.0018 9.18154 28.0485C9.17155 28.0953 9.11829 28.1353 9.08167 28.1754C6.05223 28.1253 4.62073 27.0966 4.43098 24.8388Z" fill="#FEEEAF"/>
<path d="M38.7303 7.46453C38.0644 7.75177 37.3953 7.75177 36.7295 7.46119C36.3433 7.03034 36.3267 6.58947 36.6995 6.13858C36.846 4.86607 37.9945 6.09182 38.394 5.4539C38.9167 6.05508 39.4127 6.65961 38.7303 7.46453Z" fill="#FEE799"/>
<path d="M32.0721 29.1674C31.5195 29.6316 31.3963 29.2175 31.4263 28.7933C31.5162 27.4941 31.5395 26.1715 31.8225 24.9123C32.0821 23.7701 32.0289 22.6412 32.0855 21.5023C32.2819 21.0948 32.4783 20.6906 32.6714 20.2832C32.8245 20.3132 32.9743 20.34 33.1275 20.37C32.3651 23.2691 32.475 26.2383 32.0721 29.1674Z" fill="#F4D278"/>
<path d="M31.0768 22.1502C30.9902 22.6144 31.2465 23.1321 30.7805 23.6732C30.381 22.9084 29.9815 22.2771 31.0668 21.8229C31.0701 21.9331 31.0734 22.04 31.0768 22.1502Z" fill="#FEF3B8"/>
<path d="M15.4235 25.5603C15.2338 26.8762 14.1452 27.1801 12.3741 26.3952C12.6105 26.1915 12.8435 25.9911 13.0765 25.7907C12.8102 24.5583 12.8435 23.4728 14.3915 23.1455C14.9907 22.364 15.8463 22.4642 16.6752 22.4875C17.2778 23.2123 16.6719 23.6999 16.3124 24.2109C16.0028 24.6518 15.4368 24.919 15.4235 25.5603Z" fill="#FBECB2"/>
<path d="M11.4287 24.4881C10.36 24.1308 8.68551 24.9157 8.47245 22.9351C8.15619 20.0193 8.16285 20.0193 11.3354 20.5103C11.7549 20.7274 11.958 21.0747 11.9513 21.549C11.7616 22.4575 12.0246 23.4261 11.6151 24.3111C11.5518 24.3712 11.4886 24.428 11.4287 24.4881Z" fill="#77963B"/>
<path d="M21.3959 23.1488C21.1528 23.2724 20.9065 23.3993 20.6635 23.5229C19.3218 23.5196 19.0522 23.0019 19.4151 21.1516C19.0422 20.5671 17.8571 20.006 18.7726 19.3012C19.6181 18.6466 19.9444 19.9024 20.4903 20.3667C21.1628 20.9411 20.6169 22.237 21.7987 22.4475C21.8786 22.3706 21.9618 22.2805 22.0617 22.2537C22.6076 22.1068 23.33 21.9865 23.3966 22.6846C23.4599 23.3325 22.7508 23.4661 22.1649 23.4294C21.8852 23.416 21.6389 23.2858 21.3959 23.1488Z" fill="#F7EAB0"/>
<path d="M22.7275 25.5436C22.7341 25.4467 22.7408 25.3532 22.7475 25.2563C22.8806 24.7286 23.7562 24.9123 23.7162 24.2243C23.6962 23.9938 23.6729 23.7667 23.6629 23.5363C23.6962 22.9551 23.6363 22.3539 24.0158 21.8463C24.4952 21.8429 24.9713 21.8396 25.4506 21.8362C25.6437 23.249 25.5272 24.6685 25.5139 26.088C25.3241 26.1782 25.0212 26.2249 24.9679 26.3685C24.8314 26.7359 25.1577 26.7894 25.4207 26.8228C25.7103 26.8595 25.9334 26.9697 26.0232 27.267C25.2809 27.6243 24.4852 27.5976 23.7528 27.3672C22.9339 27.1067 22.1982 26.6424 22.7275 25.5436Z" fill="#F2EBAE"/>
<path d="M24.0824 24.4848C24.1823 25.1628 24.1823 25.1628 22.7508 25.2563C21.2627 25.2263 21.2827 24.2176 21.3992 23.1488C21.9685 23.0887 22.541 23.0286 23.3067 22.9451C22.804 22.3506 22.2581 22.5276 21.7987 22.4508C21.2793 21.9398 21.3359 21.5523 22.0983 21.5523C22.7375 21.5523 23.3766 21.7394 24.0158 21.8429C24.2422 22.4775 24.1923 23.1188 24.0458 23.76C23.6263 24.0239 23.4798 24.2744 24.0824 24.4848Z" fill="#688C38"/>
<path d="M19.4184 21.1549C19.9344 21.893 18.9923 23.4027 20.6668 23.5262C20.0609 24.5449 19.172 25.4534 19.4084 26.7994C18.6627 27.0198 18.4097 26.6758 18.4363 25.9677C18.4563 25.3665 18.4396 24.7654 18.4396 24.1642C18.2166 23.9504 18.2599 23.75 18.4763 23.563C19.1454 22.8983 17.9436 21.4989 19.4184 21.1549Z" fill="#79973E"/>
<path d="M14.3915 23.1455C13.1231 23.6131 13.3528 24.8288 13.0765 25.7907C12.8735 25.7974 12.6671 25.8007 12.464 25.8074C11.6817 24.0406 11.7849 22.2604 12.4041 20.4769C13.0499 19.8256 13.3828 20.4669 13.3129 20.871C13.1265 21.9465 13.9121 22.4508 14.3915 23.1455Z" fill="#6C963E"/>
<path d="M15.4235 25.5603C14.8343 25.2597 14.6878 24.9424 15.3503 24.5382C16.1126 24.0707 16.7252 23.4895 16.6752 22.4875C16.2991 21.9131 15.4701 22.4141 15.1006 21.8195C15.4435 21.3219 16.0461 21.8863 16.4156 21.4922C16.855 21.4956 17.2911 21.5023 17.7306 21.5056C17.7905 21.559 17.8504 21.6125 17.9137 21.6659C18.15 22.1268 18.0834 22.6078 18.0235 23.0921C17.9636 23.2457 17.8671 23.3726 17.7339 23.4728C17.0781 24.2911 16.5288 25.2363 15.4235 25.5603Z" fill="#88A247"/>
<path d="M25.5139 26.088C24.8148 24.6819 25.0811 23.2591 25.4506 21.8362C26.4227 22.05 26.0266 22.8349 26.0699 23.406C26.1198 24.0974 26.0765 24.7921 26.0765 25.4868C25.8868 25.6872 25.7003 25.8876 25.5139 26.088Z" fill="#60872F"/>
<path d="M11.7316 21.4221C11.5984 21.1182 11.4686 20.8142 11.3354 20.5103C11.5984 20.5036 11.8614 20.4969 12.1211 20.4903C12.3408 22.2671 12.3475 24.0406 12.1178 25.8174C11.6284 25.5068 11.7449 24.8823 11.4253 24.4848L11.422 24.4881C11.8847 23.5029 11.3521 22.4174 11.7316 21.4221Z" fill="#FAF3B4"/>
<path d="M12.1178 25.8208C12.1178 24.0439 12.1178 22.2704 12.1211 20.4936C12.2176 20.4936 12.3109 20.4869 12.4041 20.4736C12.424 22.2504 12.444 24.0272 12.464 25.8041C12.3508 25.8108 12.2343 25.8141 12.1178 25.8208Z" fill="#D9D68C"/>
<path d="M17.7339 23.4695C17.7572 23.3559 17.7805 23.2457 17.8038 23.1321C17.9536 22.5777 18.0768 22.0266 17.7306 21.4956V21.5056C18.0368 21.1883 18.3198 21.2184 18.3797 21.6592C18.463 22.2871 18.4463 22.9284 18.4729 23.563C18.463 23.7634 18.4496 23.9638 18.4396 24.1642C17.9869 24.1508 17.7705 23.9037 17.7339 23.4695Z" fill="#FDF5BE"/>
<path d="M16.4156 21.4889C16.076 21.9932 15.55 21.7427 15.1006 21.8162C15.287 20.6806 15.9628 21.5357 16.4156 21.4889Z" fill="#527C32"/>
<path d="M4.10806 10.4604C3.99487 10.4638 3.88168 10.4638 3.77182 10.4671C3.32573 10.2467 3.10601 9.94944 3.42893 9.46515C4.09141 8.0724 5.21331 7.02032 6.10882 5.79791C6.95107 4.99967 7.85991 4.26488 8.61893 3.39316C9.98384 1.83008 11.6351 1.4393 13.5426 2.00375C14.1685 2.18745 14.8975 1.87349 15.4335 2.42792C15.5534 2.57822 15.5534 2.72852 15.4302 2.87547C14.0786 3.72381 12.7303 2.5849 11.382 2.87547C10.5165 3.05917 9.98717 3.67372 9.42789 4.30162C7.66682 6.27218 5.9457 8.26946 4.32112 10.3536C4.24788 10.3937 4.17797 10.4271 4.10806 10.4604Z" fill="#F3D377"/>
<path d="M15.4269 2.77861C15.4302 2.66172 15.4302 2.54816 15.4335 2.43126C20.2407 2.5515 24.9313 3.5969 29.6652 4.29494C31.2632 4.53208 32.9743 4.48866 34.4091 5.46058C34.509 5.63425 34.4824 5.78121 34.3259 5.90479C33.6268 6.1486 32.981 5.83131 32.3118 5.73111C31.2199 5.51402 30.1213 5.33032 29.0127 5.2201C28.2004 5.14996 27.4281 4.87943 26.6258 4.75251C23.38 4.40182 20.1874 3.63698 16.9083 3.54346C16.319 3.46998 15.7664 3.33304 15.4269 2.77861Z" fill="#F5D074"/>
<path d="M36.6995 6.13858C36.7095 6.57945 36.7195 7.02032 36.7295 7.46119C36.2867 8.35295 35.844 9.24472 35.4012 10.1365C34.9484 10.25 34.8919 9.91938 34.812 9.61211C34.7853 8.60011 35.8606 7.81189 35.4012 6.70971C35.3013 6.31226 34.8552 5.98829 35.1282 5.504C35.7574 5.45724 36.1869 5.90479 36.6995 6.13858Z" fill="#F2CD6D"/>
<path d="M35.1282 5.504C35.3346 5.82797 35.541 6.15194 35.7474 6.47257C35.1981 6.85333 34.7654 6.57611 34.3492 6.21874C34.246 6.05508 34.2493 5.89477 34.3592 5.73445C34.3625 5.64093 34.3792 5.54741 34.4091 5.45724C34.6522 5.41716 34.9484 4.52874 35.1282 5.504Z" fill="#FDF5CA"/>
<path d="M25.0711 14.1444C24.8514 14.1544 24.635 14.1611 24.4153 14.1711C19.5282 13.4363 14.6479 12.6748 9.75747 11.9835C8.20946 11.763 6.63148 11.7797 5.14339 11.1719C4.72393 11.0015 4.30447 10.928 4.11139 10.4638L4.10473 10.4705C5.0635 9.70897 6.0722 10.3502 7.0576 10.3603C7.33724 10.3803 7.61023 10.4271 7.87988 10.5005C10.6064 10.9581 13.3329 11.4257 16.0727 11.7998C18.2965 12.0536 20.5137 12.3442 22.7075 12.7984C24.0491 13.2259 25.5838 12.8752 26.7989 13.8171C26.3695 14.7155 25.687 14.2513 25.0711 14.1444Z" fill="#F5D57A"/>
<path d="M3.42893 9.46515C3.54212 9.79914 3.65864 10.1331 3.77182 10.4671C3.33572 10.9614 2.85966 10.8913 2.68322 10.3269C2.61331 10.1064 2.4169 9.08106 3.42893 9.46515Z" fill="#FEF5CA"/>
<path d="M22.7275 25.5436C22.7508 26.6457 23.38 27.0599 24.4053 27.09C24.9446 27.1066 25.4839 27.2035 26.0232 27.267C25.0145 28.5261 23.7728 27.7379 22.6409 27.5976C21.9651 27.5141 22.0051 26.8228 22.025 26.265C22.045 25.8041 22.2681 25.5603 22.7275 25.5436Z" fill="#76973E"/>
<path d="M35.0616 9.45847C35.0683 9.73903 35.1282 9.99286 35.4012 10.1365C35.015 10.7911 34.5623 11.419 34.256 12.1104C33.3072 14.2546 31.6527 15.0595 29.4022 14.8157C28.7364 14.6988 28.0739 14.5819 27.4081 14.465C27.2983 14.3014 27.3116 14.1544 27.4547 14.0175C28.1106 13.6133 28.8629 13.6133 29.5354 13.7703C31.4796 14.2179 32.4816 13.1625 33.3538 11.6628C33.8166 10.8679 33.8266 9.66555 35.0616 9.45847Z" fill="#F5D57A"/>
<path d="M27.4081 14.131C27.4081 14.2412 27.4081 14.3548 27.4048 14.465C26.6258 14.3581 25.7802 14.7422 25.0678 14.1444C25.6271 14.0576 26.2629 14.3581 26.739 13.8238C27.1019 13.6234 27.4015 13.5599 27.4081 14.131Z" fill="#F6D57E"/>
<path d="M10.5365 22.4341C10.4832 22.8416 10.6663 23.4695 9.99383 23.406C9.16823 23.3292 9.46118 22.5911 9.43455 22.0934C9.4179 21.7461 9.28474 21.2083 9.864 21.2117C10.7429 21.2117 10.4599 21.9431 10.5365 22.4341Z" fill="#F3ECB2"/>
<path d="M11.7316 21.4221C11.6517 22.4475 12.0911 23.5229 11.4287 24.4881C11.6683 23.4828 11.3388 22.4174 11.7316 21.4221Z" fill="#FEEBA3"/>
<path d="M24.0824 24.4848C23.4532 24.4915 22.814 24.5883 22.045 24.1942C22.7175 23.5296 23.4632 23.9738 24.0491 23.7634C24.0591 24.0039 24.0724 24.2443 24.0824 24.4848Z" fill="#DBDD91"/>
<path d="M17.7306 21.4956C18.2965 22.0166 18.2033 22.5677 17.8038 23.1321C17.7805 22.5877 17.7572 22.04 17.7306 21.4956Z" fill="#FEEBA3"/>
<path d="M7.11087 10.7777C6.10882 10.6742 5.10678 10.5707 4.1014 10.4671C5.91241 7.33762 8.2494 4.67569 11.1091 2.47134C11.908 3.15269 13.2363 2.35778 13.8788 3.47666C13.7423 4.11125 13.2963 4.40516 12.7037 4.48532C11.9047 4.59554 11.3255 4.92619 11.2722 5.81127C11.2189 6.70637 11.9913 6.63289 12.5239 6.84665C13.2097 7.12052 13.9354 7.39106 13.506 8.38969C12.8835 8.80385 12.211 8.44981 11.5651 8.51995C11.4686 8.52997 11.412 8.52329 11.3987 8.52997C11.2622 8.61347 11.2655 8.69029 11.4287 8.75709C13.6924 9.14118 15.9062 9.68225 18.16 10.043C18.7692 10.1398 19.718 10.1498 19.3152 11.2921C17.9802 11.7998 16.5687 11.7964 15.2837 11.3689C13.9021 10.908 12.5006 10.888 11.1091 10.6809C10.0538 10.584 9.36797 9.8292 8.5923 9.23804C8.46579 9.12782 8.29934 9.01092 8.15619 9.03764C7.9964 9.0677 8.02303 9.12114 8.20946 9.06102C8.31266 9.02762 8.42252 9.09442 8.51573 9.17792C9.12828 9.69561 9.11163 10.1365 8.29934 10.3168C7.86656 10.417 7.4238 10.397 7.11087 10.7777Z" fill="#FEEBA3"/>
<path d="M13.7623 3.44994C13.0033 2.78529 11.6584 3.71045 11.1091 2.47134C12.5838 2.07723 13.9554 3.13599 15.4235 2.77861C15.8696 2.88883 16.3124 3.00239 16.7585 3.11261C17.6773 3.69709 18.7859 3.43324 19.7546 3.78727C20.1741 3.94091 20.73 4.10791 20.7201 4.55212C20.7067 5.1867 20.0476 5.17 19.5749 5.21008C18.4197 5.31362 17.2778 5.22344 16.1726 4.84269C15.5367 4.67903 15.2637 3.76389 14.4315 3.99435C14.1119 3.94091 13.8589 3.79395 13.7623 3.44994Z" fill="#FEEFB3"/>
<path d="M15.7598 4.45192C17.3044 4.56882 18.8358 5.07315 20.6035 4.62893C19.6181 3.96429 18.5928 4.06115 17.6773 3.81733C17.2312 3.6971 16.7951 3.71045 16.7585 3.11595C20.1375 3.20279 23.4532 3.78059 26.7556 4.44524C27.4747 4.90949 28.2138 5.23346 29.0693 4.80261C30.2112 4.88611 31.3497 4.99967 32.425 5.44054C31.8624 5.89811 32.2552 6.07512 32.668 6.0985C33.2473 6.1319 33.8299 5.73111 34.4158 6.10852C34.8586 6.2321 35.3047 6.35568 35.7474 6.47591C36.4965 7.69833 35.3579 8.48321 35.0583 9.46181C34.9484 9.58205 34.7753 9.68225 34.7354 9.82586C33.6135 13.5265 31.2099 15.0228 27.4081 14.1344C27.2583 13.8739 27.012 13.8204 26.739 13.8271C25.3774 13.7536 24.0258 13.6 22.7241 13.1658C21.5357 12.6347 20.1375 12.441 19.4184 11.1385C19.182 10.6007 18.7359 10.4872 18.1966 10.4571C15.803 10.3202 13.5526 9.24471 11.1091 9.34491C10.8461 9.35493 11.0658 8.99756 11.0991 8.80719C11.5219 8.34293 12.0678 8.49323 12.5838 8.50325C14.2151 8.97752 15.9162 9.03096 17.0681 9.26141C16.2358 9.17124 14.8975 8.96416 13.5826 8.63685C13.5293 8.57673 13.476 8.51995 13.4261 8.45983C13.4993 7.49125 12.8668 7.21738 12.0878 7.1439C11.4054 7.08044 10.5698 7.01698 10.6996 6.15862C10.8228 5.33366 10.926 4.18472 12.181 4.15466C12.8468 4.13797 13.3462 3.94425 13.759 3.45328C13.9787 3.56684 14.2018 3.6804 14.4215 3.79395C15.0074 3.73383 15.1372 4.59554 15.7598 4.45192Z" fill="#FEE99C"/>
<path d="M34.4158 6.10518C33.8332 6.05174 33.4038 6.3824 32.9277 6.64291C32.192 7.0437 31.9157 6.32562 31.7492 5.89811C31.4796 5.20674 32.1753 5.57414 32.425 5.4372C33.0709 5.5374 33.7134 5.63759 34.3592 5.73779C34.3759 5.86137 34.3958 5.98161 34.4158 6.10518Z" fill="#FEEFAF"/>
<path d="M29.0693 4.79927C29.0993 4.95625 29.1326 5.10988 29.1625 5.26686C28.1905 5.24682 27.2051 5.29692 26.3728 4.64563C26.3661 4.64229 26.4061 4.5421 26.4427 4.52874C26.5426 4.48866 26.6491 4.46862 26.7556 4.4419C27.528 4.56214 28.3003 4.67903 29.0693 4.79927Z" fill="#FEEFB2"/>
<path d="M19.4184 11.1351C20.6901 11.4424 21.529 12.6347 22.9239 12.7884C23.4233 12.8452 22.9106 13.0756 22.7241 13.1625C20.5103 12.8285 18.2965 12.4911 16.0827 12.1571C14.2517 11.4491 12.2842 11.4691 10.39 11.0817C10.3068 10.7477 10.4899 10.5773 10.7628 10.4671C11.9447 9.84924 13.2996 10.25 14.2484 10.6141C15.9995 11.2854 17.7006 10.9982 19.4184 11.1351Z" fill="#FEEEB6"/>
<path d="M10.4333 10.8011C11.0225 11.399 11.7749 11.1385 12.4407 11.1151C13.7856 11.0683 14.9907 11.3823 16.0827 12.1571C13.2796 11.8732 10.4932 11.5058 7.7567 10.8111C8.64556 10.2333 9.53775 10.053 10.4333 10.8011Z" fill="#FEEBA3"/>
<path d="M10.4333 10.8011C9.54108 10.8045 8.64889 10.8045 7.7567 10.8078C7.54032 10.7978 7.32726 10.7878 7.11087 10.7777C7.18744 10.1331 7.39384 9.84256 8.18282 9.95612C9.15491 10.0931 8.42585 9.44177 8.4325 9.12782C9.38794 9.25474 10.0771 9.85926 10.7628 10.4604C10.653 10.5773 10.5431 10.6876 10.4333 10.8011Z" fill="#FEEFB3"/>
<path d="M12.7636 8.81052C12.2077 8.80719 11.655 8.80719 11.0991 8.80385C10.866 8.69697 10.4899 8.64353 10.4299 8.47319C10.2635 8.02564 10.6963 8.12918 10.9093 8.13586C11.7582 8.1559 12.6371 7.9722 13.4294 8.45649H13.4327C13.4694 9.07438 13.1431 8.98754 12.7636 8.81052Z" fill="#FDF0BA"/>
<path d="M8.43583 9.12782C7.77002 9.47851 7.35389 9.15788 6.87783 8.60679C7.64019 8.39303 8.04966 8.72703 8.43583 9.12782Z" fill="#FEEFB3"/>
<path d="M15.7598 4.45192C15.0274 4.81263 14.8343 4.08453 14.4248 3.79061C15.3003 3.13599 15.6 3.65034 15.7598 4.45192Z" fill="#FEEBA3"/>
<path d="M12.7636 8.81052C13.0366 8.79049 13.2896 8.73371 13.4294 8.45983C15.2637 8.73705 17.0947 9.0176 18.929 9.29482C16.835 9.39167 14.7644 9.41839 12.7636 8.81052Z" fill="#FEEBA3"/>
<path d="M11.9713 5.32698C12.3741 4.93955 12.727 4.71243 13.0998 4.86273C13.5826 5.05979 14.2084 4.98631 14.5147 5.52738C14.5613 5.60753 14.4581 5.86471 14.3582 5.92149C13.8256 6.22876 13.466 5.71441 13.0199 5.59417C12.7137 5.51402 12.4041 5.4372 11.9713 5.32698Z" fill="#FEEBA3"/>
<path d="M15.064 5.71441C16.0161 5.36038 16.5987 5.84133 17.6207 6.08848C16.4422 6.62287 15.7964 6.4492 15.064 5.71441Z" fill="#FEEBA3"/>
</svg>
