<svg width="18" height="52" viewBox="0 0 18 52" fill="none" xmlns="http://www.w3.org/2000/svg">
<path d="M11.0915 51.9838C8.78907 52.0527 6.50243 51.907 4.2422 51.438C3.44742 50.9902 2.63151 50.5742 1.86314 50.0813C1.05252 49.562 0.545551 48.82 0.511225 47.8131C0.400325 46.634 0.223411 45.4549 0.606277 44.289C1.03667 44.3075 1.02875 44.6653 1.11588 44.9461C1.17133 45.439 1.12117 45.9451 1.2928 46.4247C1.60965 48.6876 2.72129 49.8879 4.96304 50.4337C6.11164 50.7146 7.28136 50.8365 8.45372 50.9637C10.5186 51.3267 12.4118 50.7014 14.2759 49.9382C14.6931 49.8164 15.1367 49.7581 15.443 49.3977C16.4358 48.6823 16.8266 47.6489 16.9692 46.483C17.2597 45.598 16.7765 44.5884 17.4102 43.759C17.7323 43.714 17.801 43.9207 17.8142 44.1777C17.7587 45.2111 17.9409 46.2524 17.7112 47.2779C17.698 49.6759 15.9658 50.5424 14.1175 51.2234C13.1511 51.5864 12.1028 51.7374 11.0915 51.9838Z" fill="#CCB26D"/>
<path d="M17.6927 44.0562C17.6056 43.9688 17.5211 43.884 17.4339 43.7965C17.2834 43.8813 17.1593 43.8548 17.0564 43.7144C16.8768 43.3302 17.0009 42.9831 17.1884 42.6439C17.397 40.2803 17.4445 37.9168 17.1488 35.5585C17.022 34.5463 17.0273 33.5314 17.1329 32.5192C17.4498 30.9877 17.4023 29.4482 17.1963 27.9166C16.7289 27.5245 16.3962 27.9855 16.0134 28.1074C15.0285 28.4174 14.0726 28.897 12.99 28.5976C12.8052 28.5022 12.6758 28.3591 12.6045 28.1631C12.6019 27.9378 12.7286 27.7974 12.9082 27.6914C14.202 27.4052 15.3717 26.7534 16.6497 26.4275C17.1435 26.4513 17.3811 26.2261 17.331 25.7174C17.4603 24.827 17.0115 23.8519 17.7349 23.057C18.1627 24.4375 17.9435 25.8525 17.9462 27.2516C17.962 32.8531 17.9356 38.4547 17.9277 44.0562C17.8485 44.1807 17.7719 44.1754 17.6927 44.0562Z" fill="#CDB98A"/>
<path d="M10.2864 0.105219C10.767 0.0442748 11.2449 0.00452857 11.6647 0.322497C11.5248 0.529177 11.3056 0.465584 11.1129 0.486782C11.2871 0.526528 11.4588 0.568923 11.633 0.60602C11.942 0.672263 12.2113 0.772953 12.2192 1.15982C12.0608 1.58377 11.7281 1.8302 11.3479 2.02893C10.4316 2.43699 9.45995 2.24356 8.51202 2.2939C7.47168 2.23561 6.39438 2.27271 5.7501 1.20221C5.84516 0.481482 6.49735 0.669613 6.91983 0.484132C8.01298 0.0972697 9.17478 0.333096 10.2864 0.105219Z" fill="#82A652"/>
<path d="M0.228202 27.4131C-0.0622489 26.4115 -0.088656 25.4099 0.225559 24.4083C0.925281 25.2323 0.431514 26.4247 1.09955 27.2594C1.26854 29.721 1.15237 32.1852 1.15501 34.6495C1.15765 37.5112 1.25798 40.3729 1.09427 43.232C0.954328 43.6374 0.822303 44.0481 0.283649 44.0587C0.270447 41.5017 0.257246 38.9447 0.244044 36.3877C0.685001 34.9039 0.133148 33.3803 0.420958 31.8885C0.304778 31.96 0.381351 32.1481 0.230845 32.1985C-0.0279203 31.6473 -0.078089 31.0935 0.230845 30.5424C0.405115 29.4984 0.545057 28.4544 0.228202 27.4131Z" fill="#CFC2A1"/>
<path d="M17.7349 23.057C17.7165 24.1381 17.7005 25.2192 17.682 26.3003C17.2489 26.4142 17.1829 26.0592 17.043 25.7995C17.0166 25.6776 17.0113 25.5557 17.0219 25.4312C17.1407 24.9383 17.0535 24.4614 16.9057 23.9897C16.705 20.6855 15.0045 17.9086 13.7741 14.9674C13.4546 14.2042 13.0295 13.4597 13.2513 12.572C13.349 12.3706 13.4678 12.2063 13.7292 12.2726C15.0785 15.8603 17.059 19.2149 17.7349 23.057Z" fill="#C8AD6C"/>
<path d="M13.1983 2.73091C13.1297 3.97099 13.7581 5.26141 12.9185 6.4432C12.6729 6.9705 12.1633 7.09503 11.6774 7.26197C10.5473 7.61703 9.38816 7.62498 8.22107 7.58524C7.7009 7.56669 7.17545 7.55874 6.84275 7.04734C6.7477 6.76912 6.90613 6.62073 7.11736 6.49619C8.40327 6.12788 9.7367 6.52004 11.0279 6.23917C11.4266 6.02454 11.9019 5.93975 12.1923 5.53964C12.5382 4.62548 12.0392 3.59208 12.6042 2.71236C12.8076 2.58253 13.0056 2.57193 13.1983 2.73091Z" fill="#638239"/>
<path d="M0.793743 27.0877C-0.133059 26.351 0.468962 25.2911 0.22868 24.4088C0.326377 22.5646 0.606263 20.7654 1.55419 19.1358C1.83408 19.0457 1.9529 19.2259 2.05324 19.4352C2.18526 20.8263 1.45121 22.0558 1.31919 23.4098C1.22149 24.4194 1.12116 25.4077 1.30071 26.4093C1.31919 26.6319 1.28487 26.8465 1.17133 27.0426C1.05779 27.1751 0.933687 27.1883 0.793743 27.0877Z" fill="#C9AE72"/>
<path d="M0.286964 44.0594C0.461234 43.8792 0.638143 43.699 0.812413 43.5188C2.89045 44.6874 5.06619 45.5194 7.48749 45.5618C7.94958 45.5697 8.47503 45.4929 8.77076 46.0202C8.08424 46.9317 7.09671 46.3806 6.25704 46.5448C4.73085 46.5395 3.32877 46.0069 1.92141 45.5061C1.39332 45.273 1.0659 44.8464 0.828255 44.3376C0.189264 45.4478 0.709439 46.6641 0.511405 47.8141C0.0387626 46.5872 0.297526 45.3154 0.286964 44.0594Z" fill="#CAB37C"/>
<path d="M1.87853 19.4532C1.77027 19.3472 1.65937 19.2412 1.55111 19.1352C2.27988 17.0446 3.52089 15.1686 4.11236 13.0196C4.33944 12.9719 4.49258 12.6195 4.79096 12.85C5.09989 13.5496 4.51107 14.0795 4.44506 14.7101C4.19157 16.2443 3.33606 17.5109 2.62578 18.8384C2.46735 19.1326 2.30892 19.4717 1.87853 19.4532Z" fill="#CDB576"/>
<path d="M4.73072 12.8098C4.52476 12.8787 4.32145 12.9476 4.11549 13.0164C4.74656 10.8861 4.85746 8.66292 5.25353 6.49278C5.60999 6.27551 5.78427 6.51133 5.95062 6.76836C6.00078 8.12502 5.8846 9.46579 5.60207 10.7933C5.38291 11.4345 5.38291 12.1579 4.90763 12.7064C4.84954 12.7435 4.78881 12.778 4.73072 12.8098Z" fill="#BFB493"/>
<path d="M11.8515 6.89403C12.208 6.743 12.562 6.59423 12.9185 6.4432C13.0399 8.40666 13.4094 10.336 13.7315 12.2704C13.647 12.3604 13.5625 12.4505 13.478 12.538C13.3381 12.6228 13.2061 12.6069 13.0872 12.4956C12.5037 11.6185 12.4615 10.5904 12.3506 9.60207C12.2476 8.68261 12.0812 7.78435 11.8515 6.89403Z" fill="#C6B897"/>
<path d="M13.1985 2.73161C13.0296 2.73161 12.8632 2.73426 12.6942 2.73426C12.5675 2.69982 12.4592 2.62562 12.3325 2.59118C12.1925 2.57528 12.0526 2.58588 11.91 2.56733C11.646 2.50108 11.4004 2.41099 11.2604 2.14867C11.2446 2.03208 11.2816 1.93139 11.3661 1.8519C11.7331 1.71676 12.1292 1.61342 12.1635 1.11527C11.7093 0.903292 11.2525 0.691312 10.669 0.418389C11.0915 0.378643 11.3766 0.352145 11.6618 0.322998C13.1352 0.51113 13.4098 1.46504 13.1985 2.73161Z" fill="#66893E"/>
<path d="M4.98952 6.19983C4.51688 4.59939 4.73604 3.0016 5.01857 1.40646C5.17964 1.32166 5.3143 1.35346 5.41991 1.50185C5.84503 2.4743 5.61266 3.49445 5.65491 4.4987C5.63115 4.95976 5.68396 5.43141 5.51761 5.87922C5.40671 6.0912 5.28261 6.28463 4.98952 6.19983Z" fill="#5D7E3B"/>
<path d="M0.233868 32.1996C0.352689 31.8393 0.11505 31.41 0.566569 30.941C0.336849 32.8541 0.901907 34.6453 0.244432 36.3889C0.334208 34.9925 -0.019616 33.596 0.233868 32.1996Z" fill="#CDBC9B"/>
<path d="M10.2864 0.105219C9.1959 0.576873 8.00227 0.325015 6.88007 0.584689C6.78238 0.536994 6.75069 0.489299 6.77973 0.441603C6.81142 0.391258 6.84311 0.367411 6.8748 0.367411C7.98907 -0.0459489 9.12989 -0.0749636 10.2864 0.105219Z" fill="#577A30"/>
<path d="M0.22868 27.4142C0.751491 28.4582 0.680196 29.4995 0.233958 30.5462C0.233958 29.4995 0.231321 28.4582 0.22868 27.4142Z" fill="#CDBC9B"/>
<path d="M4.98952 6.19983C5.09778 6.10179 5.20611 6.00104 5.31173 5.903C5.98505 5.77581 6.54746 6.09908 7.12572 6.3561C7.21022 6.47004 7.2155 6.58398 7.13365 6.70057C7.04387 6.78801 6.95674 6.87545 6.86696 6.96289C6.41545 7.33386 6.09066 7.13513 5.81342 6.72707C5.62594 6.65022 5.43847 6.57338 5.251 6.49654C5.16386 6.39585 5.07665 6.29788 4.98952 6.19983Z" fill="#728E48"/>
<path d="M6.87743 0.365058C6.87215 0.439251 6.87479 0.510794 6.88272 0.584986C6.5685 0.85791 6.06153 0.765169 5.81332 1.16263C5.75259 1.24477 5.67867 1.30837 5.58625 1.35341C5.49119 1.38786 5.39349 1.40111 5.29315 1.38786C5.20338 1.39316 5.11096 1.40111 5.02119 1.40641C5.31164 0.473698 6.03248 0.306764 6.87743 0.365058Z" fill="#708F4C"/>
<path d="M17.6927 44.0562C17.7719 44.0562 17.8485 44.0562 17.9277 44.0562C17.933 45.1373 18.1283 46.2291 17.7164 47.281C17.7085 46.2079 17.7006 45.132 17.6927 44.0562Z" fill="#D0BA81"/>
<path d="M15.5881 49.6296C15.3716 50.088 14.9782 50.1807 14.524 50.1542C14.3313 49.8575 14.4844 49.5686 14.5504 49.2798C14.59 49.1632 14.6481 49.0572 14.7194 48.9592C14.8963 48.726 15.1076 48.5193 15.3188 48.257C15.0416 48.5114 14.8462 48.787 14.5927 49.0069C13.9431 49.6322 13.217 49.5527 12.4645 49.2507C12.1239 49.0016 11.8757 48.6412 11.5034 48.4266C11.1891 48.0874 10.6162 47.5707 11.1654 47.2846C11.8281 46.9401 12.3615 45.9994 13.3332 46.4605C13.6025 46.5877 13.8085 46.8421 14.1253 46.8633C14.2019 46.8818 14.2864 46.8871 14.3682 46.8818C14.3102 46.7016 14.1596 46.8368 14.0567 46.7917C13.5576 46.5161 13.5761 46.177 13.9299 45.7954C14.3867 45.4615 14.9095 45.2575 15.435 45.0588C15.8469 44.9554 16.2192 44.6454 16.6839 44.8256C17.3863 46.6672 16.8186 48.2252 15.5881 49.6296Z" fill="#E7CE8B"/>
<path d="M0.825238 44.3371C1.16322 44.5995 1.50119 44.8618 1.84181 45.1241C1.95535 45.352 1.94479 45.5958 1.92895 45.8369C1.51704 47.8401 2.72637 48.8496 4.25784 49.6552C4.54829 49.732 4.80441 49.6207 5.06317 49.5121C5.18199 49.4962 5.29817 49.5068 5.41172 49.5386C6.32531 50.0738 7.45543 49.6843 8.36903 50.2301C8.86543 50.6011 9.49387 50.5508 10.0431 50.7601C10.2438 50.927 10.5131 51.1867 10.0774 51.2794C9.54403 51.3934 8.96841 51.4437 8.42712 51.2185C6.4811 51.2238 4.55356 51.0277 2.89271 49.9387C1.6781 49.1438 0.825233 48.0256 1.01006 46.4145C0.804109 45.9932 1.0708 45.5004 0.814674 45.087C0.819954 44.8406 0.822597 44.5889 0.825238 44.3371Z" fill="#EDD89F"/>
<path d="M8.42958 51.2211C8.96031 51.184 9.49368 51.1495 10.0244 51.1124C10.0139 51.0806 10.0139 51.025 9.99537 51.017C9.91879 50.9826 9.83694 50.9614 9.75773 50.9349C9.87919 50.1188 10.9961 50.1029 11.0912 49.2656C11.1651 49.2179 11.2839 49.141 11.3235 49.1755C12.4352 50.1426 13.6313 49.353 14.7852 49.353C14.698 49.618 14.6083 49.8856 14.5211 50.1506C12.5883 51.0621 10.6212 51.7802 8.42958 51.2211Z" fill="#ECD79F"/>
<path d="M15.5879 49.6287C16.4777 48.1607 16.8685 46.5815 16.6441 44.8618C16.9055 44.5147 17.2091 44.3742 17.2646 44.9466C17.32 45.5242 17.3966 46.1284 17.188 46.7033C17.1853 47.9726 16.6889 48.9689 15.5879 49.6287Z" fill="#ECD79F"/>
<path d="M17.1909 46.7061C17.1829 46.1603 17.1882 45.6144 17.1671 45.0686C17.1513 44.6314 16.8791 44.7823 16.6441 44.8618C16.2876 45.0314 15.9314 45.2011 15.5723 45.3706C15.4218 45.1799 15.0706 45.3335 14.9861 45.0262C15.4746 44.2313 16.2403 43.9106 17.1143 43.7755C17.2199 43.7834 17.3283 43.7886 17.4339 43.7965C17.3046 44.7637 17.6899 45.7734 17.1909 46.7061Z" fill="#D0BA81"/>
<path d="M0.817422 45.089C1.17652 45.4891 1.02602 45.9634 1.01281 46.4165C0.643149 46.019 0.849108 45.5368 0.817422 45.089Z" fill="#CAB37C"/>
<path d="M12.9475 27.8936C12.8551 27.9837 12.7653 28.0711 12.6729 28.1612C10.6926 28.9323 8.68055 29.0303 6.63419 28.4713C6.60251 27.6896 7.22037 27.8883 7.6138 27.8804C8.0838 27.8724 8.54324 28.0711 8.90234 28.0579C7.88049 27.7028 6.45463 27.7611 6.0348 26.211C5.90278 26.4839 6.21699 27.1358 5.57272 27.1225C4.94165 27.1093 4.7885 26.5184 4.58255 26.0388C4.56407 25.9063 4.56407 25.7765 4.57991 25.6466C4.71722 24.9815 4.64856 24.3059 4.67761 23.6355C5.02879 22.0165 5.22154 20.3471 6.1589 18.9136C6.79525 18.6725 6.80582 19.1574 6.8243 19.5416C6.84543 19.9762 6.69228 20.3842 6.48104 20.8056C6.88767 20.3922 7.19133 19.8278 7.89633 20.0689C8.07852 20.1564 8.20262 20.2995 8.28448 20.4796C8.68319 21.2931 7.80127 21.5793 7.60588 22.149C7.43689 22.4219 7.19925 22.5782 6.81638 22.5888C7.30751 22.6233 7.52931 22.3583 7.6983 22.0112C7.98347 21.4998 8.73599 21.1606 8.3056 20.3789C8.1947 20.1484 8.20262 19.9073 8.24751 19.6662C8.35049 19.0779 8.70167 18.8156 9.27465 18.9825C9.89516 19.1627 9.86611 19.637 9.72353 20.1511C9.52285 20.8744 9.71824 21.4362 10.4074 21.8072C10.9883 22.1198 11.2629 22.6418 11.2788 23.1214C11.2392 22.875 11.1784 22.4616 10.9302 22.0933C9.94004 20.628 10.2595 19.07 10.7005 17.5437C10.9038 16.8468 11.3765 16.3063 12.2504 16.46C12.6122 16.6879 12.8102 17.0641 12.8393 17.443C12.9951 19.5893 14.1252 21.5369 14.0829 23.7176C14.0776 23.9402 14.1199 24.1522 14.3443 24.2741C15.2526 24.4489 15.0889 25.4903 15.6751 25.9275C15.889 26.0494 16.0923 26.1792 16.1557 26.4416C15.2764 27.3584 13.9615 27.2921 12.9475 27.8936Z" fill="#E6CA83"/>
<path d="M17.114 43.7776C16.4064 44.2122 15.6987 44.6467 14.9884 45.0839C13.5441 46.1067 11.9308 46.332 10.225 46.1147C9.62566 45.4178 10.5525 45.3171 10.6871 44.8799C10.4363 44.6838 10.1168 44.9117 9.8369 44.7898C9.62567 44.6971 9.43555 44.5964 9.42235 44.3447C9.40651 44.0876 9.5755 43.9048 9.79466 43.8677C11.5585 43.5656 12.752 42.4554 13.8055 41.112C13.9824 40.8841 14.2702 40.6854 14.6109 40.9027C15.0148 42.2911 14.9303 42.5932 13.9138 43.351C13.7421 43.3113 13.8768 43.5312 13.9217 43.4994C14.3098 43.2344 14.5818 43.5047 14.7534 43.8041C14.9092 44.0797 14.8538 44.1141 13.9507 44.5672C15.3792 44.0823 16.5384 42.5534 16.5516 41.1173C16.5648 39.5804 16.1872 37.9959 16.3377 36.5438C16.549 34.5247 16.4433 32.5268 16.5437 30.5236C16.5701 30.0149 16.6678 29.4637 16.2981 29.008C15.7911 28.6132 15.2815 28.8304 14.9303 29.1643C14.6637 29.416 15.168 29.2517 15.2129 29.4081C15.6512 30.2931 15.6538 31.2391 15.6116 32.193C15.5667 33.1893 15.2762 34.1511 15.2208 35.158C15.1891 35.741 14.8907 36.5703 13.9587 35.8443C13.8821 35.7463 13.8187 35.6376 13.7633 35.529C13.5864 35.1554 13.4702 34.7473 13.2273 34.4028C13.1296 34.2412 13.082 34.069 13.1137 33.8808C13.2695 33.2529 13.7369 32.7097 13.5996 31.8935C12.95 32.079 12.3321 31.7558 11.6879 31.7584C10.3333 31.7664 8.9101 31.6604 8.17077 33.1946C7.9965 33.5576 7.60571 33.3138 7.38391 33.5231C7.17268 33.5682 6.95352 33.4171 6.75284 33.5655C6.52048 34.1538 6.87167 34.8877 6.29605 35.3832C6.15874 35.3991 6.05048 35.3488 5.96862 35.2375C5.94486 34.7367 5.89469 34.2386 5.97655 33.8173C5.70722 34.6175 6.21155 35.4866 6.02672 36.3637C5.89733 36.6445 5.70194 36.8035 5.37452 36.732C4.85171 35.7039 5.50126 34.5141 4.9362 33.494C4.4266 32.9349 4.10711 32.336 4.57975 31.5888C4.93357 31.0271 5.40093 30.5952 5.98711 30.3037C5.70986 29.1802 5.99767 29.0239 7.75358 29.3286C7.90144 29.424 7.82223 29.0901 7.75886 29.257C7.72453 29.3418 7.69813 29.3551 7.6638 29.3418C7.20964 29.1723 7.24925 28.9735 7.62948 28.7509C9.40651 28.743 11.173 28.5787 12.9394 28.4462C14.2306 28.4118 15.4532 28.1362 16.5648 27.434C16.8236 27.2697 17.1299 26.8988 17.452 27.381C17.6131 29.053 17.6263 30.725 17.4414 32.397C17.4361 33.4595 17.4335 34.5221 17.4282 35.582C17.6289 38.0542 17.6447 40.529 17.4177 43.0013C17.1563 43.192 17.1959 43.51 17.114 43.7776Z" fill="#FAF4E2"/>
<path d="M14.2679 24.4596C13.9774 24.6663 13.6394 25.0001 13.679 24.2556C13.8269 21.5422 12.6308 19.0965 12.1423 16.5077C11.5429 15.9009 11.5007 15.159 11.63 14.3747C11.63 13.8712 12.3562 13.85 12.3245 13.3227C12.2796 13.2247 12.2585 13.1267 12.2558 13.0207C12.2822 12.7901 12.3984 12.6153 12.5912 12.4881C12.8209 12.39 13.0427 12.5596 13.2698 12.5093C13.3384 12.5172 13.4094 12.5274 13.478 12.538C13.6048 14.5332 14.722 16.158 15.4983 17.9068C16.3908 19.9153 17.1988 21.9397 17.1724 24.192C17.3678 24.6265 17.3334 25.0664 17.1935 25.5063C17.1988 25.6016 17.2067 25.697 17.212 25.7951C17.3493 26.1528 17.2727 26.4231 16.8925 26.5661C15.5855 27.0404 14.3893 27.8407 12.9424 27.8937C13.7926 26.9583 15.2131 27.1676 16.1003 26.3065C16.1109 26.2508 16.1215 26.1978 16.1294 26.1422C16.3353 25.8401 16.2984 25.5407 16.1241 25.2386C15.9921 24.6848 16.0159 24.1337 16.103 23.5799C16.3591 22.3531 15.9842 21.2057 15.53 20.122C15.1075 19.1098 14.6666 18.1082 14.3022 17.0721C13.9431 16.3328 13.6738 15.5247 12.7179 15.1564C12.9476 16.786 13.7926 18.132 14.3735 19.5655C14.5398 19.9736 14.8408 20.2995 14.6455 20.7738C14.1358 21.4495 14.3708 22.21 14.4025 22.9466C14.3524 23.3944 14.2916 23.8422 14.2863 24.2927C14.2863 24.3483 14.2758 24.404 14.2679 24.4596Z" fill="#EDD79D"/>
<path d="M12.9446 28.4441C11.1465 29.2098 9.25326 28.8892 7.39174 28.9396C7.28348 29.0429 7.15674 29.0959 7.00624 29.0932C5.36123 29.1091 3.77431 28.7991 2.25869 28.1632C1.75964 27.9539 1.12329 27.8585 1.05464 27.1271C1.05728 26.9417 1.05992 26.7588 1.06256 26.5733C1.31868 26.4276 1.53256 26.5707 1.75171 26.6767C2.36694 27.0715 3.03234 27.3232 3.76639 27.3842C4.07796 27.4504 4.38425 27.5352 4.69847 27.5908C5.32162 27.8161 6.05831 27.6624 6.59696 28.1632C8.08618 28.717 9.6018 28.3195 11.1042 28.2798C11.627 28.2665 12.1498 28.1976 12.6727 28.1552C12.7624 28.2559 12.8549 28.3487 12.9446 28.4441Z" fill="#CBB581"/>
<path d="M17.4203 42.9998C17.423 40.5276 17.4282 38.0527 17.4309 35.5805C18.0091 37.2737 17.5946 39.0146 17.6659 40.7342C17.6976 41.4788 17.9669 42.2976 17.4203 42.9998Z" fill="#C0AF8C"/>
<path d="M17.4467 32.3954C17.4493 30.7234 17.4519 29.0515 17.4572 27.3795C17.8401 29.0515 17.8586 30.7234 17.4467 32.3954Z" fill="#BDAD8A"/>
<path d="M16.8953 26.5653C17.0009 26.3083 17.1065 26.0512 17.2148 25.7942C17.3705 25.9638 17.5262 26.1307 17.682 26.3003C17.4892 26.5971 17.3468 27.0369 16.8953 26.5653Z" fill="#C7AF72"/>
<path d="M5.6626 1.16736C5.71277 1.17531 5.76295 1.17266 5.81048 1.15941C6.59997 1.69995 7.46604 1.98613 8.42717 1.95698C8.52486 2.10006 8.50374 2.22195 8.3638 2.32794C7.95981 2.56642 7.51885 2.54257 7.07525 2.50812C6.55244 2.42598 6.06132 2.2458 5.68638 1.87219C5.50154 1.68936 5.19788 1.41643 5.6626 1.16736Z" fill="#AFCC88"/>
<path d="M8.43261 2.18028C8.43789 2.10608 8.43524 2.03189 8.42732 1.96035C9.40165 1.83846 10.4156 2.13788 11.3609 1.69537C11.4533 1.75102 11.485 1.80931 11.4533 1.86496C11.4216 1.9206 11.3899 1.94975 11.3609 1.94975C11.3556 2.02659 11.3424 2.10343 11.3265 2.18028C11.1127 2.4638 10.8011 2.51944 10.4763 2.54859C9.77924 2.50089 9.02935 2.76322 8.43261 2.18028Z" fill="#95B764"/>
<path d="M11.3576 1.94613C11.355 1.86134 11.3576 1.77655 11.3603 1.69176C11.6296 1.50098 11.8963 1.30755 12.1656 1.11411C12.5696 1.72885 12.4798 1.82159 11.3576 1.94613Z" fill="#9EBA6E"/>
<path d="M1.05462 27.1297C2.48046 28.1234 4.11491 28.4838 5.79952 28.6984C6.26424 28.7567 6.76065 28.6321 7.18576 28.9316C7.13823 29.0084 7.08015 29.0693 7.00621 29.1117C6.54677 29.3688 5.82328 28.9528 5.56452 29.4642C5.24502 30.0974 6.43587 29.9093 6.34081 30.5453C5.58828 30.5611 5.3612 31.364 4.75918 31.6051C4.58755 31.4435 4.54794 31.2448 4.60867 31.0222C4.77502 30.4101 4.27069 30.1796 3.91687 29.9491C3.5208 29.6894 3.35181 30.1663 3.12209 30.3836C2.95838 30.5373 2.79732 30.6592 2.57024 30.5055C2.06591 30.3624 1.93125 29.9067 1.73849 29.3317C1.60119 30.2723 1.69097 31.0461 1.68305 31.8171C1.58271 33.3911 1.84147 34.9677 1.68305 36.5284C1.52198 38.0944 1.63816 39.6445 1.6672 41.2052C1.68569 42.2968 2.04478 42.946 3.04816 43.272C3.4944 43.3461 3.91687 43.8893 4.37631 43.4601C4.76446 43.0971 4.4476 42.6387 4.33406 42.228C4.07002 41.2687 4.26278 40.6673 5.42194 40.7547C6.04509 40.8024 6.5362 40.2459 7.18048 40.3069C7.2016 40.3095 7.09334 40.14 7.05638 40.0419C7.08278 38.9953 6.03716 38.6932 5.60941 37.9592C5.4721 37.7234 5.23182 37.8214 5.07339 38.0175C4.85424 38.2904 4.64828 38.5793 4.24957 38.6005C3.5921 38.407 3.18282 38.5157 3.11681 39.3291C3.064 39.981 2.96631 40.6196 3.01912 41.2793C3.05344 41.7272 3.26204 42.2412 2.77356 42.6069C2.20322 42.7261 1.89164 42.4611 1.96557 41.91C2.07383 41.0886 1.82827 40.3493 1.60383 39.5941C1.52989 39.345 1.37147 39.0562 1.47709 38.8257C2.59665 36.372 1.3609 33.8203 1.80978 31.3402C1.91276 30.9162 2.04215 30.5135 2.59136 30.5135C3.12738 30.7678 3.00063 31.205 2.88445 31.6263C2.71018 32.2676 2.69698 32.9035 2.89765 33.5395C2.94782 33.7514 3.00064 33.9687 2.97951 34.1833C2.85541 35.4817 3.32805 36.274 4.72485 36.3296C4.94137 36.3376 5.12884 36.4701 5.28463 36.6291C5.51171 36.6291 5.7071 36.5681 5.82328 36.3508C6.11373 36.0541 5.78632 35.601 6.08733 35.3042C6.17183 35.3042 6.25368 35.3042 6.33818 35.3042C6.81346 35.7149 6.56789 36.327 6.76064 36.8066C6.8557 36.8357 6.93756 36.8225 7.00885 36.7456C7.14087 36.3614 7.05638 35.9295 7.2993 35.5798C7.76666 35.3943 8.17594 35.1267 8.48223 34.7133C8.95751 34.7477 8.99711 35.1611 9.1529 35.4764C9.51728 36.4886 10.6052 35.7414 11.1544 36.3031C11.5636 36.9497 11.0197 37.2226 10.6738 37.5618C11.0593 37.7075 11.4158 37.4955 11.7854 37.5061C12.1234 37.5353 12.4271 37.6863 12.4192 38.0414C12.4112 38.4335 12.0204 38.4733 11.7273 38.5104C10.8428 38.627 10.1246 38.8522 10.5655 39.9969C10.959 40.4314 11.4211 40.2327 11.8699 40.1373C12.0336 40.0896 12.2026 40.0631 12.369 40.0207C12.5406 39.9783 12.3875 40.1055 12.4799 39.981C12.6066 39.8114 12.3769 39.9439 12.3373 39.8882C11.8303 39.8723 11.3154 39.9545 10.8692 39.6312C10.6527 38.9449 11.1861 38.8628 11.6165 38.7303C12.0495 38.5952 12.567 38.6959 12.8839 38.2533C13.3063 38.052 12.9288 37.2252 13.874 37.2835C15.255 37.3683 15.5349 38.052 15.3237 39.149C15.2075 39.7584 15.4187 40.5904 14.5342 40.8686C13.3724 41.6715 12.8627 43.1527 11.4079 43.7224C10.8402 43.945 10.1563 43.8681 9.58594 44.263C10.2091 44.9598 10.7926 44.0457 11.4184 44.4617C11.3947 45.307 10.3992 45.3388 10.0454 45.9111C9.61234 46.3059 9.14762 46.298 8.65914 46.025C6.59166 45.8184 4.50042 45.7574 2.56496 44.8274C1.88108 44.4988 1.28169 44.1093 0.81961 43.5131C0.814329 38.0361 0.806414 32.5591 0.801133 27.082C0.880347 27.1032 0.96748 27.1165 1.05462 27.1297Z" fill="#FBF6E8"/>
<path d="M17.1962 25.5051C17.1883 25.0679 17.1804 24.6281 17.1751 24.1908C17.5448 24.6228 17.521 25.0626 17.1962 25.5051Z" fill="#CDB98A"/>
<path d="M13.27 12.5118C13.093 12.8112 12.858 12.5833 12.6494 12.578C10.9094 12.329 9.12179 12.5754 7.40549 12.0772C6.67144 10.8001 7.31572 9.51759 7.38437 8.23512C8.58314 7.76346 9.84792 8.12913 11.081 7.95954C11.6989 7.87475 11.5616 8.63523 11.6381 9.07243C11.7966 9.67657 11.7358 10.3417 12.0421 10.8266C11.7834 10.1376 11.6857 9.33741 11.6223 8.52924C11.6091 8.17417 11.5695 7.68397 11.1153 7.82971C9.7423 8.27221 8.34021 7.81646 6.97509 8.07083C6.90908 8.28281 6.81139 8.47094 6.67144 8.64053C5.96116 9.37451 6.49189 10.5695 5.69711 11.2717C5.46739 11.2823 5.36706 11.1286 5.29049 10.9458C5.46476 9.53879 5.63903 8.13443 5.81594 6.72741C6.16184 6.82545 6.47605 7.06923 6.86948 6.96324C8.53825 7.51969 10.1965 7.25471 11.8547 6.89435C12.8158 7.23087 12.5148 8.16092 12.5914 8.78891C12.7445 10.0502 12.9663 11.285 13.27 12.5118Z" fill="#EDECE3"/>
<path d="M12.43 5.92925C12.0735 6.09884 11.7171 6.27107 11.3632 6.44065C10.3863 6.70298 9.39346 6.50955 8.4112 6.55724C8.28446 6.5175 8.18677 6.438 8.12868 6.31612C8.64357 5.81002 9.19543 5.33306 9.58885 4.71037C9.77897 4.67063 9.9506 4.69977 10.1011 4.82431C10.2067 5.46555 10.4496 5.86831 11.2101 5.56094C11.5269 5.4311 11.8808 5.36751 12.2319 5.4841C12.4089 5.58214 12.5382 5.70138 12.43 5.92925Z" fill="#7CA24C"/>
<path d="M12.4298 5.92856C12.3321 5.83052 12.2344 5.73248 12.1368 5.63444C11.6984 5.07534 11.9783 4.42351 11.9017 3.81672C11.9097 3.68953 11.9308 3.56499 11.9598 3.44045C12.076 3.01384 12.1632 2.57664 12.4246 2.20567C12.6358 2.31961 12.6754 2.52099 12.6965 2.73297C12.546 3.79552 12.9183 4.89781 12.4298 5.92856Z" fill="#79A04B"/>
<path d="M8.18932 6.17062C9.2059 6.72707 10.307 6.30046 11.3605 6.4409C9.97956 6.99469 8.54051 6.56543 7.13314 6.69792C7.13314 6.61578 7.1305 6.53364 7.13314 6.45149C7.41831 6.11233 7.76421 5.99309 8.18932 6.17062Z" fill="#6E953E"/>
<path d="M1.58029 26.8438C1.40866 26.7537 1.23439 26.6662 1.06276 26.5761C0.429053 24.6471 1.07332 22.8109 1.4826 20.9613C1.59349 20.4552 1.74651 19.9566 1.87853 19.4532C2.81325 17.9269 3.67417 16.364 4.20227 14.6417C4.42142 14.5331 4.30261 14.0879 4.6353 14.1383C4.99177 14.1886 4.98913 14.5331 5.03402 14.8139C4.92048 16.274 3.9171 17.3498 3.37052 18.6243C3.27283 18.8548 3.24378 18.8601 3.4603 18.876C3.91446 18.9078 3.98311 19.3079 3.84581 19.5252C3.38109 20.2671 3.5976 21.335 2.66024 21.8782C2.46748 21.9894 3.03783 22.5618 2.72889 22.9672C1.54333 24.043 1.87602 25.3387 2.19288 26.6344C2.07934 26.9551 1.87866 27.0478 1.58029 26.8438Z" fill="#EAD59A"/>
<path d="M11.1015 49.3644C11.5821 50.6867 10.0929 50.3157 9.75754 50.9357C9.16871 50.9622 8.59837 50.9304 8.1891 50.4137C8.59573 50.0587 9.07366 50.1117 9.55158 50.0878C8.51916 50.1435 7.48146 50.1753 6.48337 49.8255C6.24837 49.277 6.24837 49.277 5.86286 49.6983C5.7414 49.7407 5.62522 49.7328 5.50904 49.6798C5.19218 49.33 4.46078 49.5314 4.39741 48.8424C4.44493 48.5404 4.50566 48.2409 4.46605 47.9309C4.41588 47.5414 4.41589 47.0512 3.92741 47.0009C3.35971 46.9452 3.51549 47.5626 3.31217 47.8594C2.71807 48.7099 2.37217 48.2992 2.1002 47.6103C1.852 46.9797 2.02099 46.2377 1.59324 45.6495C1.67509 45.4746 1.75695 45.2971 1.8388 45.1222C3.21712 45.5886 4.57168 46.1424 6.05561 46.1874C6.69197 46.4524 7.35736 46.2404 8.00428 46.3119C9.04462 46.1265 9.53046 47.2314 10.4467 47.3771C10.7424 47.4248 10.9431 47.8196 10.848 48.1244C10.6553 48.747 10.0242 48.3734 9.54366 48.5536C9.87108 49.3167 10.7636 48.8186 11.1015 49.3644Z" fill="#E7CC84"/>
<path d="M8.18674 46.4544C7.4791 46.3404 6.71864 46.6823 6.05852 46.1921C6.91931 46.0834 7.80387 46.3563 8.65146 46.0331C9.11354 45.996 9.57562 45.9589 10.0351 45.9218C11.7434 45.9801 13.3593 45.492 14.9884 45.0839C15.2102 45.1237 15.4454 45.1401 15.5721 45.3733C15.0493 45.5561 14.5265 45.7416 14.0037 45.9244C12.1395 46.9393 10.1882 46.979 8.18674 46.4544Z" fill="#CCB67A"/>
<path d="M4.7598 14.9195C4.7202 14.7261 4.86542 14.4505 4.61457 14.3657C4.51952 14.3339 4.34525 14.5433 4.20531 14.6413C4.14194 13.963 4.72544 13.4696 4.73072 12.8098L4.82846 12.752C5.00009 12.6381 5.16643 12.654 5.3275 12.7706C5.45952 13.5708 6.14869 14.5221 4.7598 14.9195Z" fill="#E6D094"/>
<path d="M5.27938 12.7731C5.12887 12.7652 4.97897 12.76 4.82846 12.752C4.98425 12.1505 5.13679 11.5463 5.29258 10.9448C5.37971 11.0322 5.46685 11.1223 5.55399 11.2098C6.22202 11.223 6.01871 10.6904 6.07152 10.3459C6.16393 9.72325 6.12433 9.06612 6.59961 8.56002C6.61017 8.34009 6.6577 8.13606 6.87158 8.01947C7.15674 7.89228 7.29669 8.05127 7.39702 8.28974C8.10467 9.52982 7.10658 10.7725 7.41023 12.0126C7.39175 12.0656 7.37062 12.1186 7.35214 12.1716C7.28085 12.2617 7.19635 12.3306 7.09073 12.3783C6.76859 12.4631 6.43062 12.4763 6.10584 12.5638C5.8286 12.6274 5.57247 12.7758 5.27938 12.7731Z" fill="#F6F6EE"/>
<path d="M12.422 2.20602C12.3507 2.65118 12.5672 3.14668 12.1791 3.53354C12.0682 3.5097 11.8622 3.4461 11.8569 3.51235C11.8464 3.66073 12.0708 3.66338 12.1474 3.78792C12.3745 4.40531 12.1051 5.0174 12.1342 5.63479C11.754 5.73018 11.3579 5.78317 10.9988 5.92891C9.6944 6.45886 9.69439 5.82292 10.0271 4.86636C9.99804 4.65703 10.2093 4.33377 9.76304 4.32317C9.27984 4.46095 8.73326 4.19068 8.30551 4.58284C8.28703 4.74183 8.29759 4.90346 8.26591 5.05979C7.93321 5.40426 7.85135 6.5304 7.05657 5.4599C6.97472 5.34862 6.88495 5.24528 6.72388 5.25587C5.69938 6.24688 5.73635 4.9432 5.32179 4.61199C5.31123 3.53884 5.30067 2.4657 5.29274 1.3899C5.41685 1.31571 5.54095 1.24417 5.66505 1.16998C5.76539 2.05764 6.57073 1.9702 7.11995 2.22987C7.20972 2.29876 7.26517 2.38886 7.28365 2.50014C7.26781 2.59819 7.24141 2.69358 7.20444 2.77572C7.42624 2.73332 7.52129 2.4604 7.7695 2.4869C9.22967 2.43125 10.6872 2.49485 12.1447 2.4657C12.2372 2.37826 12.3296 2.29346 12.422 2.20602Z" fill="#6E953E"/>
<path d="M7.13611 2.70657C7.13611 2.61383 7.13347 2.52108 7.13347 2.42834C8.27943 2.15542 9.45708 2.51843 10.603 2.23226C10.8433 2.21371 11.0836 2.19517 11.3265 2.17397C11.6011 2.26936 11.8731 2.36475 12.1477 2.46279C11.0546 3.05103 9.88219 2.58998 8.75472 2.71981C8.28736 2.77281 7.81207 2.75956 7.34207 2.77546L7.21797 2.80991L7.13611 2.70657Z" fill="#567D2F"/>
<path d="M5.32173 4.61057C5.88679 4.57613 5.84718 5.20677 6.17723 5.40815C6.54954 5.3578 6.06634 4.34825 6.87432 4.81195C6.8796 4.96299 6.8083 5.15112 6.91656 5.25181C7.01162 5.33925 7.06971 5.12992 7.17533 5.10343C7.82224 6.30376 7.81432 4.77751 8.19455 4.857C8.29225 4.77751 8.40314 4.75101 8.52724 4.77221C8.97348 4.99479 9.27714 5.25446 8.66455 5.63072C8.43747 5.76851 8.2764 5.93014 8.18926 6.17657L8.19191 6.17392C7.86185 6.35145 7.51859 6.48394 7.13572 6.45744C6.45713 6.51309 5.8683 6.26136 5.31381 5.9063C5.31381 5.47174 5.31645 5.03983 5.32173 4.61057Z" fill="#7CA24C"/>
<path d="M8.18674 46.4544C10.146 46.4994 12.0946 46.4305 14.0037 45.9244C13.7766 46.2848 13.8477 46.5492 14.2491 46.7109C14.2993 46.7692 14.3151 46.8248 14.2966 46.8804C14.2781 46.9361 14.2597 46.9652 14.2438 46.9652C14.0801 47.005 13.8134 47.1295 13.7685 47.0739C12.7414 45.81 12.1473 47.5058 11.2786 47.4819C11.0277 47.474 11.5796 47.9562 11.6113 48.2716C11.7591 48.6611 12.1869 48.775 12.4113 49.0877C13.1243 49.0744 13.8768 49.3845 14.5211 48.8201C14.6716 48.8492 14.7613 48.9393 14.7904 49.0903C14.7904 49.1778 14.7877 49.2652 14.7904 49.35C14.4286 49.4878 14.0722 49.6388 13.7052 49.7607C12.9949 50.0018 12.2344 50.5583 11.7169 49.4401C11.6694 49.3394 11.3155 49.3844 11.1043 49.3606C10.6237 49.3553 10.1432 49.3421 9.66262 49.3447C8.87048 49.3447 9.25863 48.6266 9.15829 48.3113C9.05267 47.9801 9.51739 47.8635 9.89234 48.1364C10.1247 48.306 10.5128 48.4862 10.6026 48.0278C10.6686 47.6886 10.3359 47.5402 9.99531 47.4872C9.60981 47.4263 9.23223 47.3203 8.85464 47.2223C8.65661 47.1719 8.70413 47.0659 8.84143 47.005C8.95497 46.952 9.08964 46.944 9.25863 46.9069C8.98138 46.5015 8.40062 46.8942 8.18674 46.4544Z" fill="#E2C67B"/>
<path d="M14.7883 49.0935C14.6985 49.0034 14.6087 48.9133 14.5189 48.8232C14.9256 48.3648 15.0787 47.6812 15.8445 47.3129C15.7415 48.182 15.4378 48.7358 14.7883 49.0935Z" fill="#D6BB72"/>
<path d="M12.4085 49.0907C12.0547 48.9026 11.3075 49.1066 11.6085 48.2746C12.1022 48.3223 12.4085 48.5555 12.4085 49.0907Z" fill="#F6E3B0"/>
<path d="M14.2438 46.9652C14.2544 46.8804 14.257 46.7957 14.2491 46.7109C14.3547 46.5307 14.5427 46.2313 14.6933 46.4274C14.8834 46.6738 14.9309 47.1375 14.5956 47.3389C14.3236 47.5032 14.3072 47.1507 14.2438 46.9652Z" fill="#F3E3B0"/>
<path d="M1.59583 45.6521C2.42493 46.0443 2.24802 46.8737 2.37212 47.5467C2.50943 48.2833 2.7814 48.1773 3.18011 47.7666C3.72932 47.9813 4.21781 48.2701 4.49241 48.8265C4.84624 49.0889 5.20006 49.3485 5.55388 49.6108C5.46411 49.7301 5.3664 49.7407 5.26607 49.6267C5.17893 49.6347 5.08916 49.64 5.00202 49.6479C4.80663 49.9156 4.46865 49.7195 4.24158 49.8838C1.93381 49.0624 1.55094 48.4503 1.59583 45.6521Z" fill="#E2C67C"/>
<path d="M5.26416 49.627C5.35922 49.6217 5.45691 49.6164 5.55197 49.6111C5.63646 49.6111 5.7236 49.6111 5.80809 49.6084C5.98765 49.4759 6.1672 49.4547 6.34411 49.6164C7.42934 50.0456 8.57265 49.8257 9.78463 49.8999C9.30406 50.4457 8.73901 50.4086 8.18715 50.4166C7.59569 50.1198 6.94613 50.2602 6.32562 50.1728C5.88995 50.1119 5.4754 50.0933 5.26416 49.627Z" fill="#D6BA6D"/>
<path d="M4.23961 49.8802C4.41652 49.549 4.71226 49.6073 5.00007 49.6444C4.94726 50.3731 4.55383 50.0021 4.23961 49.8802Z" fill="#F6E9C2"/>
<path d="M11.8832 14.1228C11.7512 14.9416 12.0918 15.71 12.1446 16.5102C10.8746 17.223 10.1933 19.4409 10.7795 20.9671C11.5584 23.0048 11.5584 23.0048 11.1016 24.1256C11.1016 22.9147 10.8614 22.2416 9.80253 21.9131C9.17674 21.717 9.10016 20.7631 9.36685 20.0556C9.48831 19.7323 9.83686 19.4409 9.2982 19.2183C8.84932 19.0328 8.57472 19.2448 8.45062 19.6899C7.92517 19.8781 8.02286 19.1176 7.59775 19.099C7.5819 19.5309 8.3582 19.7032 7.91724 20.2225C6.99044 20.037 6.96403 21.2798 6.16926 21.3407C5.91841 20.4928 7.07757 19.7562 6.34088 18.895C5.92105 17.223 6.13757 15.665 7.17791 14.258C8.73843 13.9559 10.3042 13.8075 11.8832 14.1228Z" fill="#E8CE89"/>
<path d="M7.13842 14.3817C6.6737 15.8496 6.53375 17.3732 6.34364 18.8889C5.75482 20.439 5.31914 22.0315 5.00228 23.6558C4.74088 23.8624 5.06037 24.5222 4.61413 24.4268C4.0966 24.3156 4.01739 23.6849 3.86689 23.2106C3.86425 22.9032 4.20751 22.5932 4.03852 22.3415C3.51042 21.5492 3.84048 20.8417 4.14413 20.1131C4.33425 19.66 4.38442 19.1883 4.28672 18.7034C4.76728 16.9625 5.22672 15.2163 5.96869 13.5629C6.25122 13.3562 6.53904 13.3377 6.83213 13.5391C7.00376 13.7431 6.87437 14.0531 7.08033 14.2465C7.09881 14.2889 7.1173 14.3366 7.13842 14.3817Z" fill="#F4E7C3"/>
<path d="M14.5107 20.7381C14.4606 20.4837 14.487 20.1763 14.3497 19.9882C13.1747 18.348 12.6545 16.4826 12.2743 14.4529C13.5338 15.0067 14.3153 15.7804 14.5187 17.039C14.413 17.9532 14.7959 18.7455 15.1946 19.5139C15.8336 20.7381 16.1848 22.0391 16.3696 23.3984C16.3696 24.1059 16.3696 24.8107 16.367 25.5182C16.3696 25.8123 16.2904 26.0799 16.1029 26.3105H16.1003C15.8838 26.3078 15.6884 26.2628 15.5748 26.0508C15.3636 25.6957 15.324 25.2824 15.39 24.914C15.5854 23.8038 15.2289 22.8605 14.6692 21.9437C14.4553 21.578 14.186 21.1885 14.5107 20.7381Z" fill="#DFC47D"/>
<path d="M1.58029 26.8438C1.79681 26.8332 1.99765 26.7904 2.11383 26.5757C2.12439 25.9901 1.70191 25.2456 2.71849 25.023C2.85579 24.9938 2.60231 24.6944 2.59703 24.4983C2.58119 24.024 2.5363 23.5524 2.83467 23.1364C2.95349 23.0516 3.08287 23.0383 3.2149 23.0993C3.43405 23.3325 3.52911 23.6345 3.49214 23.9286C3.36804 24.9673 3.8222 25.6324 4.749 26.0272C4.83878 26.1226 4.92328 26.2207 5.01569 26.3108C5.21373 26.5042 5.15827 27.0023 5.58075 26.899C6.0085 26.7957 5.75502 26.385 5.80519 26.1147C5.84215 25.9186 5.81311 25.7093 5.9108 25.4337C6.30159 27.4634 8.10767 27.3839 9.65234 28.1629C8.50638 28.1629 7.55281 28.1632 6.59696 28.1632C5.86555 28.2162 5.15564 28.1073 4.46384 27.8635C4.34238 27.6409 4.24467 27.3866 4.01231 27.2647C3.47894 26.9838 3.84333 27.519 3.71395 27.6118C2.87692 27.7072 2.19024 27.3817 1.58029 26.8438Z" fill="#E7CF8E"/>
<path d="M14.5108 20.7395C14.6561 21.0946 14.7326 21.508 14.9597 21.7968C15.9869 23.1057 15.9208 24.5499 15.5802 26.047C15.332 26.0496 14.7722 26.5875 14.9412 25.8323C15.1102 25.0851 14.7828 24.7723 14.2679 24.4596L14.2441 24.4386C14.0857 24.0014 14.2442 23.5694 14.2574 23.1349C14.025 22.3002 13.5444 21.4417 14.5108 20.7395Z" fill="#E7CF8F"/>
<path d="M3.96755 23.1229C4.12862 23.3163 4.39003 23.4859 4.43755 23.7058C4.77289 25.2055 4.78081 23.2156 4.99733 23.6581C4.91548 24.3682 5.24553 25.1234 4.75969 25.7858C4.16559 25.7063 3.36288 25.7169 3.36024 24.9538C3.3576 24.2437 2.77142 23.2712 3.89098 22.8049C4.04676 22.8791 4.07053 22.9851 3.96755 23.1229Z" fill="#F0DDAF"/>
<path d="M3.95122 22.8716C2.97161 24.0746 3.21189 24.9993 4.61133 25.4577C4.68791 25.4816 4.71167 25.6723 4.7592 25.7863C4.75656 25.8684 4.75391 25.9479 4.74599 26.0301C3.55515 26.1519 3.09043 25.5637 3.15644 24.4217C3.18284 23.9924 3.15116 23.5579 3.14324 23.1259C2.81318 22.6728 2.88711 22.1879 3.03498 21.6977C3.63172 21.6765 3.87201 21.9839 3.95122 22.8716Z" fill="#F5E6BE"/>
<path d="M6.51296 24.5525C6.1961 24.3538 5.46469 24.5658 5.65481 24.0199C5.87924 23.3681 6.79021 23.7019 7.30774 23.3257C7.43976 23.2303 7.65892 23.5695 7.62459 23.7867C7.52162 24.4306 7.05689 24.5737 6.51296 24.5525Z" fill="#ECD28F"/>
<path d="M7.91762 20.2166C7.90442 19.9277 7.77504 19.7555 7.48459 19.6628C7.17301 19.5647 6.93273 19.3024 7.11228 18.9924C7.24694 18.7592 7.55852 18.5287 7.81992 18.4916C8.29784 18.42 8.15262 18.8678 8.18695 19.1302C8.21599 19.3527 8.26352 19.5488 8.45363 19.684C8.45363 19.9489 8.45627 20.2139 8.45627 20.4789C8.3665 20.5743 8.27936 20.569 8.18958 20.4815C8.09717 20.3941 8.00739 20.304 7.91762 20.2166Z" fill="#ECD699"/>
<path d="M7.92306 22.0682C7.53227 22.887 6.76917 22.94 5.93215 23.152C6.09057 22.1186 7.0649 22.5743 7.3976 22.0682C7.57187 21.9225 7.74879 21.9039 7.92306 22.0682Z" fill="#ECD28F"/>
<path d="M8.28966 26.8464C9.31944 26.3774 9.89506 26.9948 10.5525 26.9656C9.8977 27.0981 9.24551 27.212 8.28966 26.8464Z" fill="#EDD593"/>
<path d="M7.92296 22.0697C7.74869 22.0697 7.57178 22.0697 7.39751 22.0697C7.65627 21.5371 8.34016 21.2191 8.18701 20.4825C8.27678 20.4825 8.36392 20.4825 8.45369 20.4798C9.15077 21.3039 8.02594 21.5159 7.92296 22.0697Z" fill="#E8CE89"/>
<path d="M11.7307 20.166C11.5327 20.1395 11.4033 20.0202 11.4086 19.8295C11.4165 19.5751 11.5697 19.4373 11.8363 19.4876C12.0423 19.5274 12.1057 19.6811 12.0898 19.8719C12.0714 20.0865 11.9103 20.1421 11.7307 20.166Z" fill="#ECD398"/>
<path d="M12.1263 26.9574C11.915 27.1111 11.7988 27.2594 11.6589 27.2833C11.416 27.3257 11.2364 27.1773 11.2628 26.9176C11.2813 26.7321 11.4582 26.6103 11.6404 26.6526C11.7856 26.6844 11.9071 26.8143 12.1263 26.9574Z" fill="#EDD593"/>
<path d="M8.21091 24.6287C7.98647 24.5995 7.93629 24.43 7.98118 24.2577C8.00495 24.1623 8.13169 24.0325 8.22146 24.0246C8.40366 24.0087 8.56472 24.1411 8.55944 24.324C8.5568 24.5042 8.40102 24.6128 8.21091 24.6287Z" fill="#ECD49A"/>
<path d="M7.59563 26.4437C7.5085 26.5762 7.44512 26.7802 7.3131 26.8464C7.15467 26.9233 7.12827 26.7087 7.16788 26.6186C7.23389 26.4702 7.35799 26.3509 7.45833 26.2185C7.50058 26.2847 7.54018 26.3509 7.59563 26.4437Z" fill="#E7CF8E"/>
<path d="M14.5238 40.8803C14.9384 40.2841 14.9093 39.566 15.0255 38.8956C15.0968 38.4955 15.2315 37.9364 14.7958 37.6794C14.2756 37.3746 14.2254 38.1934 13.803 38.2464C13.7502 37.9602 13.6974 37.682 13.6313 37.3217C13.3462 37.743 13.6261 38.2305 13.2247 38.4955C12.863 38.2464 12.9475 37.7854 12.7336 37.4674C12.5171 37.1335 12.0233 37.1892 11.8253 36.8288C11.8015 36.7122 11.8173 36.6036 11.8754 36.5002C12.187 36.0948 12.694 36.1213 13.1006 35.9279C13.3594 35.8166 13.597 35.6603 13.8769 35.594C13.9324 35.594 13.9904 35.5914 14.0459 35.5914C14.669 36.2353 14.9859 35.5066 14.9674 35.2151C14.8433 33.2994 15.7173 31.3995 15.0493 29.4837C14.9621 29.1419 15.1919 29.1101 15.4321 29.0863C15.7992 29.2399 16.0051 28.9909 16.2216 28.7656C16.2692 28.7391 16.3193 28.7153 16.3695 28.6915C17.1035 28.8186 16.8844 29.4042 16.8897 29.8441C16.9108 31.471 17.0692 33.1218 16.8553 34.7223C16.5728 36.8368 17.0059 38.9088 16.9161 41.0074C16.8316 43.0371 15.5958 44.5025 13.465 44.8151C13.7422 44.3435 14.434 44.4892 14.6083 43.9672C14.1436 43.2094 13.6498 43.8639 13.0452 43.9116C14.2466 43.1935 14.7747 42.2104 14.5238 40.8803Z" fill="#F4EBD8"/>
<path d="M9.05579 35.618C8.83135 35.3504 8.60956 35.0854 8.38512 34.8178C7.18107 35.0297 7.01735 34.8337 7.34741 33.5512C8.63331 31.4685 10.5054 30.9677 12.7392 31.6301C13.2805 31.7891 13.4522 31.3837 13.8588 31.1373C14.1677 32.3164 13.9591 33.2571 13.1089 34.0414C12.6759 34.256 12.2613 34.0811 12.0501 33.7658C11.4322 32.849 11.0203 33.106 10.6057 33.9089C10.4658 34.1792 10.178 34.3514 9.90338 35.0165C10.8592 33.893 11.7121 33.7632 12.6521 34.3991C12.9003 34.566 13.1591 34.4415 13.3861 34.2852C13.8641 34.521 13.7954 35.0297 13.9486 35.4272C13.5974 35.6418 13.196 35.7081 12.8132 35.8326C12.5333 35.9068 12.2481 35.9306 11.9603 35.9386C10.9886 35.8512 9.96675 36.2354 9.05579 35.618Z" fill="#FAF7ED"/>
<path d="M2.6442 33.4604C2.18212 32.8297 2.31678 32.1673 2.57291 31.5181C2.70229 31.1895 2.85543 30.8901 2.6442 30.5457C3.20134 30.2966 3.04027 28.9903 3.93539 29.4354C4.6932 29.8117 5.18696 30.6145 4.75921 31.6082C4.67471 32.1673 4.54533 32.7343 4.95197 33.2351C4.22056 33.7121 3.43106 33.5876 2.6442 33.4604Z" fill="#FCF9EF"/>
<path d="M2.64487 33.461C3.35515 32.7985 4.19746 33.4795 4.94999 33.2357C5.75269 33.8743 5.88208 35.1753 5.28269 36.6406C5.06882 36.6301 4.8523 36.6221 4.63842 36.6062C2.7901 36.4552 2.75048 36.4075 2.70032 34.497C2.68975 34.1499 2.66335 33.8054 2.64487 33.461Z" fill="#564E42"/>
<path d="M13.3857 34.2874C13.3937 35.2837 12.8101 35.0081 12.3771 34.6875C11.6378 34.1417 11.0516 33.98 10.4944 34.918C10.2964 35.2493 9.88714 35.5169 9.49899 35.13C9.07124 34.7034 9.61518 34.5312 9.81057 34.3192C10.2594 33.8343 10.6502 33.3335 10.938 32.7241C11.2232 32.1146 11.7619 32.2365 11.8041 32.8036C11.8728 33.7204 12.5834 33.734 13.1089 34.0414C13.2013 34.1235 13.2933 34.2053 13.3857 34.2874Z" fill="#534A3F"/>
<path d="M7.34693 33.55C7.104 34.4589 7.42351 34.9014 8.38463 34.8166C8.71733 35.7864 8.20243 35.7997 7.50271 35.6036C6.97462 36.0673 7.45518 36.7403 7.16473 37.2544C7.02743 37.5035 6.83996 37.5459 6.6076 37.3842C6.39372 35.9004 6.39636 34.4192 6.6076 32.9353C7.18322 32.7366 7.09608 33.3487 7.34693 33.55Z" fill="#5C5548"/>
<path d="M6.33832 30.5477C6.17989 30.2854 5.88679 30.3384 5.65443 30.243C5.23196 30.0708 4.89134 29.7025 4.97847 29.2679C5.05769 28.8704 5.54353 28.9711 5.88151 28.9605C6.31455 28.9473 6.74758 28.942 7.18326 28.9314C7.25455 28.9128 7.3232 28.9155 7.39186 28.942C7.54236 29.2758 7.92258 29.1513 8.31073 29.4375C7.45522 29.4746 6.74494 29.5064 6.05578 29.5355C6.01882 30.296 7.07236 29.676 6.92449 30.402C6.90601 30.4868 6.54163 30.5 6.33832 30.5477Z" fill="#FCF9EF"/>
<path d="M15.5803 29.2226C15.3638 29.2279 15.1658 29.2729 15.0522 29.4876C14.7803 29.5617 14.4713 29.9354 14.2442 29.6253C14.0277 29.3312 14.3419 29.053 14.6192 28.9364C15.1737 28.6979 15.6939 28.0726 16.3725 28.6953C16.1295 28.8993 16.0794 29.3975 15.5803 29.2226Z" fill="#F2E8D2"/>
<path d="M6.6056 32.9354C6.6056 34.4193 6.6056 35.9005 6.6056 37.3843C6.14088 36.7431 6.55544 35.9879 6.33364 35.3149C6.61089 34.5438 5.9983 33.6694 6.6056 32.9354Z" fill="#60594D"/>
<path d="M6.08261 35.3144C6.0298 35.6721 6.20671 36.0881 5.81856 36.361C5.81856 35.4124 5.81856 34.4638 5.81856 33.5125C5.90569 33.5099 5.99283 33.5072 6.08261 33.5046C6.08261 34.1087 6.08261 34.7102 6.08261 35.3144Z" fill="#FFFFFD"/>
<path d="M12.8685 35.5383C13.2118 35.3236 13.5788 35.3554 13.9485 35.4296C13.9406 35.5118 13.9749 35.5674 14.0488 35.5966L13.9617 35.6072L13.8851 35.5595C13.5392 35.8933 13.1959 36.1451 12.8685 35.5383Z" fill="#544C40"/>
<path d="M16.3723 23.3943C15.662 21.5501 14.9649 19.7032 14.2308 17.8696C14.0671 17.4562 13.9879 17.1648 14.5187 17.0376C15.3082 18.9269 16.3907 20.7128 16.5228 22.8326C16.5386 23.0551 16.6125 23.2565 16.3723 23.3943Z" fill="#E7CF90"/>
<path d="M7.40794 12.0163C9.18497 11.9235 10.9648 11.7964 12.6494 12.578C12.5702 12.7397 12.4908 12.9039 12.4116 13.0656C12.1925 13.2643 11.939 13.304 11.6617 13.2192C10.7772 12.6893 9.81868 12.7449 8.85227 12.8642C8.35059 12.8748 7.84362 12.9304 7.39474 12.6204C7.22047 12.4164 7.23367 12.2203 7.42114 12.0322L7.40794 12.0163Z" fill="#E0C781"/>
<path d="M11.8832 14.1228C10.3121 14.4116 8.7253 14.4323 7.13575 14.382C6.99316 14.064 7.18592 13.8838 7.41036 13.7169C7.65856 13.6029 7.91732 13.6029 8.17872 13.648C8.72266 13.8123 9.2666 13.8176 9.80789 13.6294C10.1749 13.5393 10.5499 13.5261 10.9222 13.4837C11.4107 13.3857 11.8939 13.2479 12.4008 13.3115C12.5936 13.2717 12.7863 13.232 12.9817 13.1922C12.9474 13.3433 12.9632 13.5711 12.8708 13.6294C12.5645 13.8229 12.2159 13.9612 11.8832 14.1228Z" fill="#D7BB75"/>
<path d="M12.4034 13.309C11.9757 13.4707 11.5453 13.6296 11.1175 13.7913C10.8667 13.5608 10.872 13.3037 11.0383 13.0308C11.2363 12.9063 11.4317 12.9036 11.6271 13.0361C11.8885 13.0467 12.1526 13.0547 12.414 13.0653C12.4114 13.1474 12.4087 13.2269 12.4034 13.309Z" fill="#F4E3B1"/>
<path d="M14.2575 23.131C14.614 23.5708 14.3288 24.0028 14.2443 24.4373C13.8747 23.9975 13.8615 23.5629 14.2575 23.131Z" fill="#F4E4BB"/>
<path d="M16.1054 26.3057C16.1186 26.0168 16.0605 25.7042 16.3695 25.5134C17.1061 26.0539 16.285 26.0725 16.1054 26.3057Z" fill="#E6CA83"/>
<path d="M3.71367 27.6177C3.58956 27.3395 3.13012 27.3819 3.109 26.8148C3.78232 26.9552 4.77249 26.4094 4.46356 27.8694C4.21535 27.7846 3.96451 27.7025 3.71367 27.6177Z" fill="#F5E8C4"/>
<path d="M10.6004 2.23565C9.46504 2.69671 8.29004 2.39994 7.13088 2.43173C7.13352 2.36284 7.13088 2.2966 7.11767 2.23035C7.55599 2.21445 7.99429 2.19617 8.43261 2.18028C9.15609 2.19882 9.8796 2.2171 10.6004 2.23565Z" fill="#81A455"/>
<path d="M2.90833 42.4695C2.38552 41.2029 2.68126 39.8913 2.8476 38.6379C2.96642 37.745 3.68198 37.9808 4.22856 38.4445C4.27345 38.6962 3.99356 38.9188 4.15198 39.1838C6.00823 38.426 6.20891 38.4869 7.06442 40.045C7.19908 40.1006 7.52122 40.1721 7.39183 40.2675C6.8347 40.6756 6.21947 41.1737 5.52503 41.1102C4.12822 40.9803 4.36323 41.6719 4.76194 42.4562C5.03391 42.9888 5.09727 43.5055 4.62727 43.8818C4.06485 44.3322 3.57901 43.9904 3.17502 43.5294C2.83704 43.2379 2.84232 42.8616 2.90833 42.4695Z" fill="#FBF8EF"/>
<path d="M2.90862 42.4688C3.29149 42.747 3.1357 43.163 3.17531 43.5287C2.16401 43.5525 1.32963 42.8397 1.32699 41.9176C1.32171 38.4809 1.32435 35.0442 1.32699 31.6075C1.42204 31.6764 1.72305 31.5518 1.78642 31.4485C1.85772 31.3293 1.98182 31.2975 2.11648 31.3425C2.0848 33.0171 1.92373 34.7024 2.49143 36.3293C2.71587 36.9759 2.25379 37.421 1.98446 37.89C1.73362 38.3246 1.44845 38.7141 1.70457 39.2202C2.15873 40.1264 2.61289 40.9982 2.25115 42.0952C2.10592 42.5244 2.63665 42.4184 2.90862 42.4688Z" fill="#FAF2DD"/>
<path d="M12.8685 35.5383C13.2039 35.7953 13.5445 35.6867 13.8851 35.5595C13.959 36.1186 13.5812 36.1159 13.201 36.1132C12.8049 36.4073 12.1554 36.0258 11.8702 36.6193L11.8597 36.6405C11.8887 37.507 12.702 36.7492 12.9475 37.1705C13.4519 37.5282 13.1033 38.0634 13.2221 38.5006C12.9106 39.0438 12.3561 39.012 11.8465 39.0756C11.4768 39.1207 11.0332 38.9802 10.851 39.481C11.4372 39.8732 12.0577 39.693 12.6729 39.587C12.9581 39.5552 13.3674 39.436 13.473 39.7116C13.6235 40.1011 13.1139 40.064 12.9158 40.2389C12.6359 40.4879 12.29 40.4137 11.96 40.3846C11.4029 40.5224 10.8457 40.5648 10.2939 40.3555C9.64959 38.7338 9.80273 38.4847 11.5296 38.2675C11.7567 38.2383 12.1712 38.445 12.1343 37.9468C12.129 37.8673 11.8623 37.8091 11.7171 37.7402C11.1335 37.8779 10.5526 37.9018 9.97173 37.7322C9.49116 37.0883 10.0773 37.1042 10.4021 37.1281C10.9276 37.1652 11.1415 37.0141 11.0385 36.4842C10.9619 35.6283 11.7857 35.9118 12.1422 35.6018C12.3877 35.5753 12.6282 35.5568 12.8685 35.5383Z" fill="#4A4238"/>
<path d="M7.06697 40.0442C6.75803 39.8057 6.39101 39.6149 6.15073 39.3235C5.69657 38.7697 5.33219 38.7697 4.82786 39.2731C4.55061 39.5487 4.07005 39.9779 3.71094 39.5328C3.28055 39.0002 3.97235 38.775 4.23112 38.4411C5.08926 36.997 5.88932 37.1321 6.58904 38.555C6.81348 39.0214 8.24197 39.1247 7.06697 40.0442Z" fill="#585043"/>
<path d="M2.11644 31.3406C1.80223 31.5261 1.87617 31.8758 1.80751 32.2256C1.61476 31.9792 1.47217 31.791 1.32695 31.6055C1.33223 30.7841 1.32958 29.9601 1.34807 29.1386C1.35335 28.8684 1.47217 28.5875 1.7679 28.5716C2.14284 28.5504 2.13229 28.8975 2.10324 29.1333C2.03195 29.7136 2.36959 30.1137 2.6442 30.5457C2.29302 30.694 2.11908 30.9617 2.11644 31.3406Z" fill="#FAF1D7"/>
<path d="M12.1475 35.5926C11.8729 36.0033 11.2524 35.9821 11.0438 36.4749C10.521 36.4696 9.99815 36.4776 9.47798 36.4511C8.87596 36.4219 8.68056 36.1543 9.05551 35.6138C10.0853 35.6085 11.1151 35.6005 12.1475 35.5926Z" fill="#544C40"/>
<path d="M12.676 39.5832C12.0475 39.8985 11.4244 40.1158 10.854 39.4772C11.4455 39.7528 12.0739 39.4692 12.676 39.5832Z" fill="#58534A"/>
<path d="M9.97467 37.7259C10.5556 37.7285 11.1365 37.7312 11.72 37.7338C11.1365 37.9326 10.5556 38.0491 9.97467 37.7259Z" fill="#544C40"/>
<path d="M10.2966 40.3498C10.8511 40.3604 11.4056 40.371 11.9628 40.379C11.4056 40.53 10.8432 40.7976 10.2966 40.3498Z" fill="#58534A"/>
<path d="M7.16241 37.2539C7.24162 36.6975 6.82179 36.0351 7.50039 35.6031C7.11752 36.096 7.54 36.7584 7.16241 37.2539Z" fill="#60594D"/>
<path d="M7.39751 8.29261C7.22324 8.20252 7.04898 8.11243 6.87207 8.02234C6.89583 7.8395 6.35718 7.48974 6.77173 7.55333C8.3296 7.79446 9.84522 7.81566 11.4057 7.55863C12.0262 7.45529 11.8282 8.16542 11.881 8.56023C11.6249 8.76956 11.8705 9.14583 11.6143 9.35515C11.4216 8.3774 10.9463 8.01439 9.88483 8.25816C9.09533 8.43834 8.22926 8.29261 7.39751 8.29261Z" fill="#E1DFD3"/>
<path d="M11.6172 9.35519C11.6357 9.06637 11.5696 8.7484 11.8839 8.56027C11.765 9.66256 12.6073 10.6536 12.2562 12.0977C11.831 11.0272 11.2264 10.3223 11.6172 9.35519Z" fill="#D4D4C7"/>
<path d="M6.60014 8.56259C6.41531 9.5324 6.24104 10.5049 6.03772 11.472C5.99812 11.6548 5.88194 11.9384 5.61789 11.7105C5.52284 11.6283 5.57247 11.382 5.55399 11.2098C5.95798 10.4652 5.92419 9.61984 6.06413 8.81962C6.1407 8.38771 6.3361 8.46455 6.60014 8.56259Z" fill="#DCDCD2"/>
<path d="M8.18696 6.17514C7.99949 5.84923 8.09454 5.63725 8.44308 5.51801C9.05831 5.30338 8.60943 5.0808 8.44572 4.86087C8.80483 4.53496 9.16129 4.53496 9.51775 4.86352C9.57584 5.80948 9.01343 6.12745 8.18696 6.17514Z" fill="#6E953E"/>
<path d="M9.51779 4.86141C9.16132 4.86141 8.80222 4.85876 8.44576 4.85876L8.31902 4.85611L8.19228 4.85876C8.1025 4.76072 8.01009 4.66268 7.92031 4.56464C8.53026 4.05059 9.38312 4.57789 9.99571 4.07974C10.1515 3.87571 10.3786 3.75912 10.4921 4.04264C10.6558 4.4507 10.3548 4.68653 10.0274 4.86406C9.8584 4.86406 9.68678 4.86141 9.51779 4.86141Z" fill="#5D852E"/>
<path d="M12.1474 3.78792C11.8252 3.80912 11.5057 3.8307 11.1835 3.85189C11.466 3.50743 11.5505 2.43693 12.179 3.53657C12.1579 3.61872 12.1474 3.70313 12.1474 3.78792Z" fill="#4E712C"/>
<path d="M3.20438 21.5408C3.1859 22.0681 3.16742 22.5954 3.14629 23.1227C3.06708 23.1254 2.98787 23.128 2.90865 23.128C2.76079 23.0962 2.66837 23.0088 2.63933 22.8604C2.57068 22.6511 2.81095 22.2907 2.38056 22.2668C2.21421 22.2562 1.96865 22.6034 1.90792 22.2271C1.87095 22.0098 2.05842 21.5488 2.16404 21.5435C3.78 21.4401 2.71326 19.6754 3.79585 19.2567C3.17006 19.0501 3.08029 19.5456 2.64989 19.837C3.03276 17.9478 4.41371 16.6494 4.75697 14.9218C5.73394 14.4024 4.889 13.4406 5.27714 12.7755C5.43821 12.4628 5.68378 12.2853 6.04552 12.2959C6.77693 12.6986 6.11681 13.157 6.09833 13.5889C5.70226 15.3934 5.09495 17.1343 4.46124 18.8672C4.32394 19.89 4.14175 20.8943 3.20438 21.5408Z" fill="#E4CA85"/>
<path d="M2.63933 22.8604C2.7291 22.9505 2.81888 23.0406 2.90865 23.128C3.0882 24.3813 2.634 25.4867 2.11383 26.5757C1.13422 25.378 1.39039 23.5758 2.63933 22.8604Z" fill="#E2C780"/>
<path d="M4.49241 48.8265C3.9696 48.5801 3.42303 48.3628 3.18011 47.7666C3.28044 47.3427 2.88748 46.7251 3.51063 46.5317C3.90142 46.4098 4.59322 46.6298 4.61699 46.9504C4.66451 47.5545 5.42186 48.2833 4.49241 48.8265Z" fill="#F6E5B9"/>
<path d="M6.3463 49.6163C6.16675 49.6136 5.98984 49.611 5.81028 49.6083C5.84725 49.5315 5.86837 49.4387 5.92646 49.3831C6.14562 49.1685 5.93703 48.6147 6.4704 48.6677C6.62355 48.6836 6.85854 48.7843 6.89551 48.9008C7.0513 49.3725 6.42551 49.2904 6.3463 49.6163Z" fill="#E2C67C"/>
<path d="M6.09832 13.5876C5.55966 13.1769 6.54719 12.7053 6.0455 12.2946C6.4046 12.2416 6.75578 12.0216 7.12281 12.2575C7.36573 12.6178 7.47928 13.01 7.4027 13.4445C7.36574 13.5797 7.305 13.7042 7.22315 13.8182C7.11225 13.9427 6.99607 13.948 6.87197 13.8367C6.67921 13.5532 6.38084 13.5982 6.09832 13.5876Z" fill="#F4ECD0"/>
<path d="M7.14142 13.6025C7.13614 13.1521 7.12822 12.7042 7.12294 12.2538C7.22328 12.1796 7.32362 12.1054 7.42396 12.0312C7.41603 12.1981 7.40811 12.3624 7.40019 12.5267C7.63519 12.9639 7.83851 13.3932 7.14142 13.6025Z" fill="#F4E7C3"/>
<path d="M9.73438 3.02433C9.31983 3.57813 8.8155 3.8802 8.16595 3.69207C8.00224 3.64437 7.89926 3.40589 8.02336 3.26016C8.51449 2.69311 9.1614 3.18067 9.73438 3.02433Z" fill="#77A145"/>
<path d="M9.99818 4.07892C9.47273 4.96129 8.62515 4.44989 7.92278 4.56382C7.84357 4.30415 7.75379 4.04183 8.19211 4.05242C8.79413 4.06567 9.39616 4.07097 9.99818 4.07892Z" fill="#7FA74D"/>
<path d="M7.13611 2.70657C7.19948 2.74366 7.26515 2.76786 7.33908 2.77581C7.39717 3.12027 7.4711 3.48859 7.04071 3.64227C6.86116 3.70587 6.73178 3.54158 6.66841 3.37465C6.49942 2.92949 6.6978 2.73041 7.13611 2.70657Z" fill="#B0C897"/>
<path d="M7.17533 5.10343C7.13836 5.3949 7.09877 5.68594 7.04596 6.10725C6.51522 5.625 6.46241 5.24386 6.87432 4.81195C6.97202 4.90999 7.07499 5.00803 7.17533 5.10343Z" fill="#A5BE87"/>
<path d="M3.20453 21.5421C3.62437 20.6492 4.0442 19.7589 4.46404 18.8659C4.85218 19.1309 4.66735 19.4462 4.59342 19.796C4.42443 20.6174 3.48178 21.3858 4.45875 22.3238C4.66207 22.5199 4.32938 22.9677 3.97027 23.124C3.96499 23.0393 3.9597 22.9545 3.95442 22.8723C3.70358 22.4272 3.45274 21.9847 3.20453 21.5421Z" fill="#F8EED3"/>
<path d="M6.87197 13.8367C6.95646 13.8526 7.04087 13.858 7.12537 13.8527C7.2257 13.744 7.31812 13.7493 7.40525 13.8686C7.31548 14.0408 7.22835 14.213 7.13857 14.3826C6.88509 14.3667 6.59199 14.3588 6.52334 14.0673C6.47581 13.8633 6.7241 13.8712 6.87197 13.8367Z" fill="#E8CE89"/>
<path d="M12.9506 37.1643C12.6522 37.1855 12.3565 37.2173 12.0581 37.2279C11.324 37.257 11.6858 36.9125 11.8627 36.6343C11.9815 37.3179 12.7605 36.6343 12.9506 37.1643Z" fill="#544C40"/>
<path d="M15.5803 29.2226C15.8444 29.045 16.1084 28.8678 16.3725 28.693C16.3619 29.101 16.1744 29.4243 15.8048 29.5594C15.6173 29.6257 15.5988 29.3763 15.5803 29.2226Z" fill="#FAF4E2"/>
<path d="M11.8726 36.6155C12.0706 35.7994 12.7307 36.2048 13.2034 36.1094C12.8258 36.4565 12.2185 36.1836 11.8726 36.6155Z" fill="#544C40"/>
<path d="M4.74625 34.947C4.68816 35.2146 4.99182 35.7817 4.19968 35.7234C3.61878 35.681 3.47355 35.3815 3.49732 34.8754C3.5158 34.4568 3.36793 33.9984 4.09934 34.0169C4.74097 34.0355 4.80434 34.364 4.74625 34.947Z" fill="#DBD8D2"/>
<path d="M7.40508 13.866C7.31267 13.8607 7.22025 13.8554 7.1252 13.8501C7.13312 13.768 7.1384 13.6859 7.14104 13.6011C7.50014 13.3096 7.34964 12.8936 7.39981 12.5279C7.92526 12.5306 8.44807 12.5332 8.97352 12.5359C9.22964 12.9863 9.01049 13.1082 8.6461 13.1665C9.43296 13.5931 10.2594 12.7267 11.0964 13.0658C11.1017 13.3069 11.1097 13.5481 11.1149 13.7892C10.6687 13.813 10.2225 13.8395 9.77622 13.8634C9.24285 14.0542 8.70947 14.0436 8.1761 13.8713C7.91998 13.8713 7.66385 13.8687 7.40508 13.866Z" fill="#EDD79D"/>
<path d="M11.0991 13.0668C10.2489 13.3954 9.41184 13.8458 8.42959 13.4192C8.32133 12.9317 9.15043 13.0297 8.97616 12.5342C9.91089 12.4256 10.8852 12.1102 11.6272 13.0323C11.4503 13.0456 11.2734 13.0562 11.0991 13.0668Z" fill="#E8CE89"/>
<path d="M8.17908 13.8735C8.71245 13.8709 9.24583 13.8682 9.77921 13.8656C9.24848 14.2471 8.71509 14.2392 8.17908 13.8735Z" fill="#E8CE89"/>
</svg>
