<svg width="42" height="48" viewBox="0 0 42 48" fill="none" xmlns="http://www.w3.org/2000/svg">
<path d="M7.74426 44.9098C5.72403 44.5602 3.71077 44.1224 1.67655 43.8894C0.145649 43.7128 -0.284258 42.8902 0.173615 41.6156C2.40356 35.4014 2.07851 28.7388 3.56398 22.401C4.71041 17.5144 5.24167 12.4901 6.72365 7.6812C7.20948 6.11 7.01726 4.55645 6.93337 2.98172C6.80055 0.584322 7.65338 -0.347805 9.50235 0.114728C9.73653 0.30539 10.2888 0.192404 10.1909 0.672591C10.1175 1.03273 9.70158 1.08216 9.35905 1.09982C8.79283 1.0292 8.26853 1.05745 8.01338 1.70005C7.73027 2.46623 7.80019 3.21829 8.07281 3.97034C8.13573 4.13276 8.18466 4.29517 8.22661 4.46112C8.79283 6.4772 7.51009 8.19669 7.3528 10.0998C6.17491 15.3395 5.26615 20.6321 4.31196 25.9177C3.66185 29.7062 3.06767 33.5053 2.6762 37.3292C2.59232 38.1413 2.63425 38.9675 2.2288 39.7125C2.03307 40.0938 1.67656 40.3904 1.59617 40.8423C1.22568 41.891 1.2886 42.3994 2.6727 42.6571C4.5741 43.0067 6.47549 43.448 8.3664 43.8894C8.89767 44.013 9.57225 43.9812 9.54779 44.8321C8.9571 45.2276 8.35243 45.1499 7.74426 44.9098Z" fill="#CEC5D1"/>
<path d="M41.326 7.52719C40.2355 9.45853 40.8122 11.6088 40.6934 13.6284C40.1411 23.1121 38.3061 32.3663 36.1496 41.5745C35.835 42.9268 36.1741 44.2473 36.0692 45.582C36.0028 46.44 36.1461 47.4003 35.0451 47.7569C34.6781 47.9088 34.5837 47.6687 34.5103 47.3862C34.5138 46.9131 34.6397 46.4647 34.7445 46.0092C34.9123 38.2697 37.5547 30.9469 38.4809 23.3345C38.5893 22.4589 38.7081 21.5868 38.7361 20.7076C38.7535 20.4181 38.799 20.1321 38.8654 19.8496C39.1939 18.9352 39.0576 17.9854 39.0891 17.0462C39.0996 16.6613 39.1415 16.28 39.2254 15.9057C39.5574 14.8747 39.3897 13.8155 39.4071 12.7669C39.4631 10.8991 39.2254 8.98187 40.2879 7.2765C40.4452 7.01169 40.6549 6.80338 40.945 6.69039C41.5183 6.76101 41.5357 7.0929 41.326 7.52719Z" fill="#CCC1CD"/>
<path d="M41.326 7.52719C41.2946 7.23413 41.2457 6.94728 40.9556 6.78133C40.9136 6.7425 40.8472 6.71072 40.8333 6.66129C40.0678 4.17562 39.9734 4.11559 37.1493 3.96024C36.3489 3.91434 35.552 3.87197 34.7481 3.91787C34.1504 3.86491 33.6366 3.52242 33.0564 3.40237C32.5531 3.33882 32.0428 3.32117 31.5465 3.20465C27.8695 2.97515 24.2275 2.40669 20.554 2.15954C20.0787 2.12776 19.6278 2.07833 19.2258 1.80646C18.9078 1.53106 18.4429 1.34746 18.5897 0.779002C21.5921 1.01203 24.598 1.18504 27.5899 1.49575C30.5993 1.80999 33.5947 2.26899 36.597 2.65032C37.9252 2.8198 39.2534 2.99633 40.5886 3.08814C41.6197 3.15875 42.0985 3.69896 41.9832 4.6664C41.8643 5.64089 41.8049 6.64096 41.326 7.52719Z" fill="#D4CBD5"/>
<path d="M7.74426 44.9098C8.33146 44.818 8.99805 45.1393 9.49437 44.5638C9.88234 44.359 10.3228 44.3767 10.7317 44.2637C12.1228 44.1436 13.4544 44.6097 14.8246 44.6662C15.3943 44.8074 15.985 44.8251 16.5547 44.9663C17.5718 45.2629 18.6903 45.0758 19.655 45.623C20.0569 45.9196 20.7734 45.9125 20.6756 46.6928C17.3901 46.4845 14.136 46.0114 10.9099 45.39C9.85439 45.1852 8.69496 45.7007 7.74426 44.9098Z" fill="#D4CDD7"/>
<path d="M18.5863 0.787287C18.8205 1.01326 19.0512 1.23923 19.2854 1.46873C18.1564 2.77512 16.7164 1.89242 15.563 1.7406C13.8468 1.51463 12.1412 1.6029 10.439 1.45107C9.92869 1.40517 9.20868 1.72648 9.15276 0.780225C9.40441 0.730794 9.65608 0.681363 9.90424 0.628401C9.76793 0.458923 9.6316 0.292978 9.49878 0.1235C11.4281 0.151747 13.333 0.0881918 15.2659 0.568378C16.276 0.815533 17.4749 0.751979 18.5863 0.787287Z" fill="#D9D0DB"/>
<path d="M20.6766 46.6926C20.3306 46.4525 19.9846 46.2159 19.6351 45.9758C20.3725 44.6589 21.4421 46.1736 22.274 45.6545C24.2837 46.2371 26.4472 45.7605 28.4325 46.5619C28.803 46.7102 29.2399 46.6926 29.4881 47.088C29.3657 47.5929 29.0582 47.6071 28.6667 47.4129C27.7789 47.9178 26.8946 47.5047 26.0173 47.3811C24.2383 47.1375 22.4173 47.2293 20.6766 46.6926Z" fill="#CABFCC"/>
<path d="M28.6667 47.4129C28.9149 47.2928 29.1631 47.173 29.4112 47.0494C30.7499 46.2232 33.3223 46.3892 34.6645 47.3919C34.7903 47.512 34.9162 47.6355 35.042 47.7556C32.8889 48.1581 30.7638 48.0766 28.6667 47.4129Z" fill="#D2C9D4"/>
<path d="M34.6645 47.3955C32.9239 47.0989 31.1833 46.8129 29.4112 47.053C26.9856 46.5587 24.4725 46.6717 22.0818 45.9549C21.8895 45.7148 22.2391 45.4465 22.2216 45.45C20.2992 45.7219 18.4013 45.1111 16.4859 45.2664C15.8917 45.1817 15.2241 45.4818 14.7208 44.9239C13.3752 44.3378 12.0156 43.9071 10.558 44.532C10.212 44.7756 9.85549 44.758 9.49549 44.5673C6.80767 44.2884 4.28063 43.1268 1.54737 43.1232C0.925222 43.1232 0.708517 42.7913 0.802888 42.2229C0.886773 41.7074 1.01611 41.1954 1.12446 40.6835C1.6068 39.882 2.27438 40.1256 2.94546 40.3445C4.5917 40.8776 6.29738 41.086 8.00305 41.3049C12.5328 42.3217 17.1535 42.7525 21.7427 43.3457C26.0453 43.9 30.3584 44.3872 34.6925 44.6203C35.409 45.0758 35.2238 45.7113 35.0211 46.3468C35.0246 46.7387 35.049 47.1377 34.6645 47.3955Z" fill="#F4ECEA"/>
<path d="M3.90279 25.8445C4.7731 20.5059 5.57002 15.1497 7.03452 9.93123C7.2687 10.1678 7.24073 10.4503 7.20578 10.5809C7.25821 9.88886 7.42249 9.06972 7.71609 8.25057C8.17046 6.98302 8.8031 6.93006 9.72933 7.71036C10.4878 8.41299 10.6101 9.44045 11.0191 10.3231C9.55807 12.1874 9.32388 14.6025 8.25434 16.6468C7.19879 18.4122 6.51372 20.2623 6.8982 22.3737C6.98907 22.8186 6.8283 23.1999 6.59761 23.5601C5.84614 24.5028 6.08382 25.5514 6.27606 26.5965C6.31451 27.0238 6.31102 27.4369 5.86713 27.6805C5.73081 27.6946 5.63992 27.6487 5.59099 27.5463C5.57701 27.5181 5.54905 27.4969 5.52808 27.4722C5.16108 28.369 5.79022 29.6754 4.43407 30.1662C3.57076 28.8103 4.15095 27.2744 3.90279 25.8445Z" fill="#F6F1EE"/>
<path d="M9.15608 0.775431C9.64541 1.36507 10.1977 0.891947 10.7289 0.909601C12.882 0.990809 15.07 1.01199 17.1601 1.4604C17.9535 1.62988 18.5897 1.33683 19.2887 1.46393C21.1167 2.02886 23.0426 1.7817 24.8985 2.14184C26.2302 2.40312 27.6947 1.98649 28.918 2.67852C29.8233 3.19049 30.739 1.95471 31.522 2.88331C32.0987 3.19755 32.6754 3.16577 33.2591 2.90803C33.7275 3.14106 34.1923 3.37409 34.6607 3.60712C34.769 3.75894 34.762 3.9037 34.6432 4.04494C33.5457 4.42626 32.1651 3.66008 31.2668 4.88879C31.1655 5.03003 30.9627 5.01237 30.7985 4.93116C28.8237 3.97785 28.3972 3.86134 26.5273 3.86134C25.636 3.86134 24.8426 3.50826 24.0177 3.25757C20.7567 2.81975 17.4677 2.87625 14.1962 2.63615C13.3853 2.57613 13.2595 3.42705 12.7037 3.69186C12.543 3.7307 12.3857 3.71657 12.2389 3.64243C11.9523 2.98217 11.5748 3.3635 11.1763 3.52238C10.3794 3.83662 9.49162 3.52238 8.69121 3.85427C8.53393 4.01669 8.38363 4.18617 8.20887 4.33093C8.06557 4.41214 7.92926 4.40508 7.79994 4.29915C7.78246 4.18264 7.76498 4.06259 7.751 3.94607C7.48187 3.12693 7.51333 2.30426 7.73353 1.48159C7.89431 0.627138 8.40811 0.464722 9.15608 0.775431Z" fill="#FCF8F5"/>
<path d="M3.90279 25.8445C4.60533 27.1791 4.37456 28.6694 4.60175 30.0818C5.3008 30.8727 4.91284 31.6812 4.65419 32.4898C3.74893 34.2022 3.41338 35.9958 3.90621 37.9095C3.96563 38.7993 4.46544 39.2794 5.3043 39.4489C5.64683 39.5195 5.99286 39.5584 6.33539 39.6078C6.90511 39.6926 7.72998 39.7067 7.69153 40.4058C7.6426 41.2955 6.7758 41.0342 6.17112 41.0378C4.62624 41.0554 3.16174 40.7235 1.8021 39.968C2.27046 36.5148 2.73182 33.0582 3.20717 29.6051C3.38193 28.3411 3.45541 27.0555 3.90279 25.8445Z" fill="#FBF8F3"/>
<path d="M7.79665 4.30889C7.90849 4.30536 8.02035 4.30183 8.13219 4.29477C9.49183 3.48622 10.9319 3.82517 12.3579 4.00171C13.8329 5.06801 12.641 5.30457 11.8511 5.66824C11.4457 5.7777 11.0262 5.7777 10.6103 5.8236C10.2363 5.85537 9.92524 6.01779 9.6631 6.2826C9.2961 6.76985 9.82737 7.3489 9.50231 7.83261C8.61802 7.31359 8.23006 7.8997 7.95394 8.5882C7.68131 9.26964 7.48558 9.98639 7.25489 10.689C6.94382 10.516 7.09411 10.1912 7.03119 9.9299C7.02071 8.91656 7.30032 7.95266 7.64286 7.03113C7.98189 6.11665 8.07976 5.23396 7.79665 4.30889Z" fill="#FBF8F7"/>
<path d="M1.80202 39.9666C3.33642 40.0831 4.76594 40.8846 6.34927 40.6728C7.09026 41.3295 8.20523 40.1325 8.86233 41.1918C8.71554 41.8485 8.01999 41.3401 7.74736 41.7285C5.93334 41.5025 4.09486 41.3683 2.39968 40.6092C1.91385 40.3903 1.53288 40.4044 1.12044 40.6833C1.11345 40.2173 1.34414 39.9807 1.80202 39.9666Z" fill="#D9D2D8"/>
<path d="M7.72599 1.4915C7.73298 2.31418 7.73649 3.13332 7.74348 3.95599C7.19474 3.13685 7.21918 2.31771 7.72599 1.4915Z" fill="#D4CBD5"/>
<path d="M35.0211 46.3468C34.9512 45.8525 35.1785 45.2809 34.6542 44.9067C34.2873 44.4123 33.6756 44.6383 33.2177 44.4088C32.7913 44.1687 32.3614 43.9322 32.5781 43.3107C32.8682 42.3256 32.2076 41.6795 31.7392 40.9769C31.2604 40.2601 30.5299 39.6352 30.4425 38.7666C30.3516 37.8592 29.9392 38.9078 29.8239 38.5865C29.0759 37.2872 29.7505 36.4257 30.6977 35.6454C32.3649 36.1291 32.3719 36.1291 32.5571 34.3284C32.6725 33.195 32.246 31.8322 33.8259 31.3308C33.6197 30.7729 35.0107 29.8514 33.4379 29.6042C33.1862 27.5317 33.8434 25.6498 34.6123 23.789C35.1785 23.2488 35.7133 22.5497 36.5976 23.2912C36.304 28.0931 35.2869 32.7608 34.4131 36.8847C35.1366 35.3665 35.1925 33.0856 35.6189 30.9142C36.4403 26.7266 36.7514 22.4544 37.4679 18.2492C37.5797 17.5996 37.3945 17.1123 37.1498 16.5862C36.7514 15.0009 37.2652 13.4827 37.4889 11.9468C37.5483 11.5443 37.7755 11.1877 38.0866 10.9123C38.4431 10.5945 38.8485 10.3615 39.3378 10.5521C39.8272 10.7428 39.6978 11.2089 39.7258 11.6008C39.7538 11.9962 39.6314 12.4164 39.8971 12.7765C39.7887 13.8463 40.2116 14.9727 39.5685 15.986C39.1945 15.7141 39.1945 15.2834 39.0757 14.7785C38.8555 15.6859 39.2924 16.332 39.5545 17.017C39.4322 17.9632 39.8586 18.9766 39.2155 19.8628C38.9079 19.2237 39.0547 18.5847 39.0652 18.3057C39.0023 18.8106 38.9079 19.6757 39.198 20.5407C39.233 24.0115 38.1355 27.3057 37.6427 30.6952C37.0729 34.6074 36.3389 38.4983 35.1226 42.2727C34.9688 42.7458 35.1401 43.1801 35.2205 43.6391C35.3673 44.5465 35.5908 45.4818 35.0211 46.3468Z" fill="#F2ECE9"/>
<path d="M39.8928 12.7756C39.7845 12.5814 39.6657 12.3908 39.5748 12.1895C39.3721 11.7376 39.9592 10.8443 39.0085 10.8513C38.3095 10.8549 37.8796 11.5292 37.8656 12.186C37.8377 13.6936 37.2574 15.1412 37.4567 16.6595C37.4741 18.8415 37.6175 21.0447 36.4011 23.0184C36.0935 23.5657 35.4993 23.541 35.01 23.7246C33.9719 23.7987 33.7448 23.1243 33.7622 22.2911C33.7727 21.7085 33.9405 21.1365 34.1048 20.5786C35.0799 17.2456 36.0376 13.9125 36.1984 10.41C36.3906 9.71089 37.4182 9.65087 37.3972 8.79995C36.831 8.47512 36.1704 8.63047 35.5902 8.4045C31.3051 8.61282 27.1737 7.44766 22.969 7.06633C19.7953 6.77681 16.6252 6.34252 13.434 6.19776C12.7455 6.16598 11.8542 6.45198 11.5991 5.37156C11.8332 4.9055 13.074 5.46336 12.6441 4.32292C13.5459 3.52143 14.6259 3.83214 15.636 3.89569C20.3021 4.19228 24.9438 4.7572 29.5889 5.27623C33.196 5.67874 36.8031 6.16599 40.3682 6.90392C40.4451 6.97807 40.522 7.05221 40.5989 7.12636C39.9872 8.96237 39.7775 10.8478 39.8928 12.7756Z" fill="#F6F0EC"/>
<path d="M34.6576 3.95644C34.6576 3.83993 34.6576 3.72694 34.6576 3.61042C36.7652 2.93958 38.7714 3.88583 40.8301 4.02706C41.26 4.0553 41.2985 4.51431 41.1587 4.86738C40.914 5.49233 40.9451 6.1352 40.9556 6.78133C40.8367 6.89785 40.7148 7.01057 40.596 7.12709L40.6099 7.13768C38.7575 6.3715 36.6848 6.6928 34.8253 5.95133C34.2067 5.33698 34.5947 4.63082 34.6576 3.95644Z" fill="#F8F3F1"/>
<path d="M39.5502 17.0179C38.7743 16.4141 38.3339 15.662 38.5051 14.6346C38.5646 14.2674 38.3619 13.6919 38.949 13.6848C39.4209 13.6813 39.5258 14.1685 39.5432 14.5957C39.5607 15.0583 39.5607 15.5243 39.5677 15.9869C39.5607 16.3329 39.5572 16.6754 39.5502 17.0179Z" fill="#F6F0EC"/>
<path d="M39.1901 20.5449C38.4911 19.6622 39.0538 18.6877 38.921 17.7627C39.3823 18.4265 39.1062 19.1644 39.2076 19.8635C39.2041 20.0895 39.1971 20.3154 39.1901 20.5449Z" fill="#F6F0EC"/>
<path d="M33.2557 2.91272C32.6685 3.41056 32.0883 3.44234 31.5186 2.88801C32.0988 2.89507 32.679 2.90566 33.2557 2.91272Z" fill="#F5EFEA"/>
<path d="M16.4859 45.2664C16.416 44.9628 16.1399 44.5184 16.8354 44.7196C18.7753 45.274 20.8025 44.9315 22.7703 45.3622C22.7703 45.7789 22.1622 45.5877 22.0818 45.9549C21.2744 46.8447 20.446 45.1363 19.6386 45.9801C18.6599 45.4046 17.4401 45.9267 16.4859 45.2664Z" fill="#FAF6F3"/>
<path d="M10.5575 44.529C10.6065 44.0276 10.9106 43.8122 11.3719 43.8581C12.6127 43.9782 13.8535 44.1159 15.0908 44.2677C15.3005 44.2924 15.5837 44.4337 15.4788 44.6949C15.3495 45.0233 14.9825 44.8609 14.7203 44.9209C13.2943 45.1822 11.9521 44.582 10.5575 44.529Z" fill="#FCF8F5"/>
<path d="M33.2584 44.1912C33.7932 44.2935 34.5552 43.9369 34.653 44.9079C25.5899 44.6713 16.6561 43.3261 7.75034 41.7337C8.00199 41.3136 8.42493 41.3948 8.8094 41.3701C9.86845 40.7098 10.9869 41.1547 12.0355 41.3065C18.4807 42.2457 24.9328 43.0966 31.42 43.6933C32.0631 43.7533 32.6608 43.9652 33.2584 44.1912Z" fill="#D3C9D1"/>
<path d="M36.4012 10.3439C36.6354 13.2391 36.0762 15.9825 35.0206 18.673C34.5592 19.8523 34.381 21.1481 34.1049 22.398C33.9406 23.1359 34.5208 23.4113 35.0066 23.7256C34.3565 25.6816 33.8148 27.6624 33.612 29.7244C33.8392 29.9291 33.9581 30.1869 33.9441 30.4941C33.9266 30.9672 33.9231 31.5145 33.3394 31.5921C32.7173 31.6769 32.6299 31.1155 32.539 30.6635C32.4272 30.1092 32.511 29.5266 32.3118 28.9441C32.3817 30.5364 31.7106 31.8993 31.0081 33.1951C30.5293 34.0813 30.5363 34.8546 30.8124 35.7267C30.4034 36.6235 29.3863 37.3685 30.1098 38.5513C30.6166 39.0633 31.2598 39.5258 30.7914 40.405C27.775 39.6565 24.8845 41.0617 21.8996 40.9558C21.3299 40.9346 20.7532 41.1394 20.1764 40.9805C19.4145 40.8393 19.2292 40.0943 18.8238 39.5364C19.0195 40.8887 17.9675 40.9099 17.5061 40.5215C16.136 39.3705 14.5421 40.0801 13.1056 39.7059C12.5289 39.5541 11.7949 39.8012 11.5013 39.0033C11.7355 38.4242 12.1165 37.9122 12.0745 37.2132C12.0326 36.4858 12.092 35.8432 11.0574 35.822C10.5646 35.8114 9.93196 35.529 9.73273 35.0911C8.7366 32.8879 6.50314 31.917 5.07011 30.1586C5.18545 29.2901 5.12253 28.3791 5.6538 27.6059C6.05925 27.3446 5.98586 26.928 5.99635 26.5396C5.65731 25.9394 6.0907 25.385 6.0907 24.806C8.46745 22.5533 8.7226 19.5098 9.06164 16.5157C9.15251 15.7283 9.3168 15.0186 9.86205 14.4361C10.2745 13.9947 10.6415 13.6946 10.4492 12.8613C10.2395 11.9433 11.3265 11.6432 11.8928 11.961C13.2454 12.713 13.9654 12.0528 14.7064 11.0924C14.8812 10.8664 15.1328 10.697 15.3985 10.5663C16.7232 10.6299 16.9084 11.8162 17.4327 12.6919C18.8447 12.0281 19.9807 10.7888 21.5501 10.4992C22.2072 10.3792 23.3081 9.61301 23.4654 11.2513C23.5109 11.7138 24.2414 11.5408 24.5839 10.7499C24.9509 9.90607 25.3983 9.40469 26.4049 9.64126C25.4612 8.98453 24.5664 8.87861 23.7276 9.79308C23.385 10.1673 22.9726 10.3086 22.4833 10.2909C21.7807 10.2627 21.19 9.99434 21.0293 9.27759C20.8545 8.47963 21.8157 8.81152 22.0429 8.40548C22.0848 7.75582 20.3442 7.90058 21.4032 6.83782C23.5353 6.80251 25.636 7.13793 27.6912 7.604C29.3863 7.98885 31.0605 8.26425 32.7907 8.19717C34.0874 8.51494 35.503 8.14774 36.7333 8.87155C36.9849 9.92019 35.9993 9.99434 35.5134 10.4604C35.3526 10.531 35.1849 10.5699 35.0101 10.5804C34.5522 10.5699 34.0629 10.4569 33.647 10.7252C31.784 11.9292 29.7778 12.8048 27.6352 13.3451C28.6943 13.2956 29.7498 12.187 30.7495 13.5993C30.9033 13.8182 31.3576 13.391 31.6582 13.2321C33.0458 12.3352 34.4194 11.4137 35.7616 10.4463C35.9573 10.298 36.1566 10.1673 36.4012 10.3439Z" fill="#F9F6F1"/>
<path d="M15.4363 10.6659C15.1881 11.6439 13.9928 11.9405 13.8215 13.0456C13.7516 13.5046 13.1924 13.4834 12.9233 12.9856C12.4234 12.0641 11.5112 12.057 10.8681 12.4419C10.1865 12.8514 10.9974 13.2893 11.242 13.6882C11.4098 13.9601 11.3015 13.9989 11.0253 14.1119C9.72861 14.6415 9.40357 15.7149 9.48745 17.0248C9.61677 19.1115 8.4179 20.9122 8.20819 22.9495C8.11732 23.8392 7.11419 24.3053 6.35573 24.782C6.05514 24.4889 6.02718 24.1535 6.20194 23.7898C7.65595 21.8055 7.81673 19.4893 7.85867 17.1449C7.88314 16.9648 7.96004 16.8059 8.08587 16.6753C8.78841 14.4474 8.84434 11.9299 10.889 10.3022C11.0323 10.2175 11.1791 10.2104 11.3259 10.274C11.8887 10.2104 13.2448 9.73729 13.5489 9.50073C14.4507 8.79104 14.6604 9.90324 15.2021 10.1433C15.3944 10.2634 15.5691 10.3975 15.4363 10.6659Z" fill="#FCFAF7"/>
<path d="M8.09008 17.005C8.7332 18.894 7.74055 22.7284 6.35294 23.7277C6.24459 23.65 6.20964 23.5723 6.24459 23.4946C6.27955 23.4169 6.31449 23.3781 6.34945 23.3781C6.46479 23.0215 6.58015 22.6649 6.69549 22.3083C6.55918 20.3769 6.87025 18.5692 8.09008 17.005Z" fill="#F9F6F1"/>
<path d="M5.65764 27.6123C5.5423 28.5515 5.42696 29.4942 5.31161 30.4334C5.9093 31.2984 5.40598 32.1105 5.19977 32.9367C5.00403 33.2898 4.74188 33.7523 4.33993 33.5828C3.93798 33.4133 4.02536 32.9261 4.25255 32.5518C4.45528 31.7398 4.71043 30.9383 4.60557 30.0803C5.26617 29.24 4.57762 27.9971 5.44094 27.2204C5.45492 27.2062 5.55628 27.2486 5.57026 27.2839C5.6087 27.3863 5.62968 27.5028 5.65764 27.6123Z" fill="#EDE6E7"/>
<path d="M11.2431 10.3122C11.1242 10.3087 11.0089 10.3051 10.8901 10.3051C9.85899 9.80731 10.2363 8.49993 9.50231 7.83261C9.39396 7.2465 8.48536 6.66491 9.49547 6.07527C10.8027 6.97208 11.2431 8.38793 11.6555 9.81083C11.7394 10.0898 11.6765 10.3934 11.2431 10.3122Z" fill="#DCD4DB"/>
<path d="M8.09008 17.005C7.17433 18.6504 7.15259 20.5365 6.69471 22.3054C6.50947 22.1995 6.15294 22.0759 6.15993 21.9912C6.36965 20.1552 6.94635 18.411 7.48461 16.6562C7.49859 16.6068 7.87959 16.6668 8.0893 16.6774C8.0893 16.7868 8.09008 16.8956 8.09008 17.005Z" fill="#E2DADC"/>
<path d="M6.34868 23.3772C6.34868 23.4937 6.34869 23.6102 6.35218 23.7303C6.35218 24.0833 6.35568 24.4329 6.35568 24.786C6.23684 25.3721 6.11802 25.9617 5.99568 26.5478C5.50985 25.4215 5.21274 24.3199 6.34868 23.3772Z" fill="#EDE6E7"/>
<path d="M34.6643 5.71389C36.3979 5.9681 38.1316 6.21526 39.8652 6.4836C40.2252 6.54009 40.4489 6.81549 40.6132 7.13679C37.3556 7.09442 34.1925 6.2894 30.9699 5.95045C27.0028 5.53029 23.0427 4.97242 19.0652 4.7182C16.9261 4.5805 14.8042 4.08282 12.6441 4.32292C11.1412 4.31585 9.63859 4.3051 8.13564 4.29804C8.12516 4.06148 8.11466 3.82845 8.10418 3.59542C9.50226 3.35885 10.9039 3.32354 12.3054 3.57776C12.4208 3.58482 12.5361 3.58835 12.6515 3.58129C13.2631 3.21056 13.9202 3.04814 14.6332 3.12935C17.7754 3.49655 20.9456 3.53539 24.0878 3.86729C26.9434 4.08266 29.7151 4.9583 32.6057 4.94771C33.3396 4.94417 34.1051 5.10306 34.6643 5.71389Z" fill="#D4CBD5"/>
<path d="M24.1748 4.31284C20.3301 4.06922 16.4889 3.82559 12.6441 3.58197C12.9727 1.90838 13.9793 2.09198 15.3459 2.27911C17.5339 2.57922 19.7779 2.48389 21.9973 2.54392C22.7418 2.5651 23.5002 2.46977 24.1748 2.90053C24.5243 3.37012 24.5943 3.83971 24.1748 4.31284Z" fill="#F6F0ED"/>
<path d="M24.1748 4.31284C24.1748 3.84325 24.1748 3.37012 24.1748 2.90053C25.3143 3.25007 26.4189 3.75786 27.6667 3.28474C27.9394 3.18235 28.4566 3.26355 28.6384 3.46481C29.4318 4.35103 30.0714 4.19568 30.5013 3.14704C31.2493 3.68372 30.4839 4.31219 30.9697 4.68646C31.8959 2.89635 33.3569 3.83907 34.6537 3.95912C35.3178 4.54523 34.9053 5.13134 34.6572 5.71745C31.1724 5.21608 27.6316 5.08255 24.1748 4.31284Z" fill="#F5EFEA"/>
<path d="M12.2984 3.57496C10.8968 3.58202 9.4987 3.58555 8.09712 3.59261C8.60742 3.03475 9.28201 3.236 9.8762 3.26778C10.8618 3.32427 11.6797 3.23247 11.8056 1.78838C12.4731 2.45923 12.2215 3.05946 12.2984 3.57496Z" fill="#F6F0ED"/>
<path d="M19.9803 40.67C22.4549 40.1262 25.0868 40.7653 27.488 39.639C28.7463 39.0493 29.732 39.985 30.8225 40.3204C32.1961 40.9206 32.7448 42.0787 32.9196 43.4911C32.5386 43.9677 33.3039 43.8804 33.2584 44.1912C27.2851 44.0923 21.3994 43.1344 15.5029 42.2871C13.273 41.9658 11.0395 41.6727 8.80611 41.3655C8.13502 40.6029 7.01686 41.4495 6.34927 40.6728C6.72326 40.5986 7.14937 40.8288 7.57578 40.3769C6.25809 39.4624 3.41648 40.9277 3.55628 37.8489C3.68211 37.7571 3.82542 37.7218 3.97921 37.7465C4.59088 37.9689 4.98933 37.3828 5.52759 37.3263C6.30702 37.291 7.10394 37.1286 7.80298 37.6653C7.9358 37.7606 8.05463 37.8736 8.16647 37.9936C11.8015 40.271 15.6323 41.6339 19.9803 40.67Z" fill="#F0E9E6"/>
<path d="M7.75105 37.8445C7.05201 37.728 6.35297 37.6114 5.65392 37.4949C5.56305 37.3396 5.61897 37.1772 5.60849 37.0183C5.58052 36.6052 5.43723 37.0112 5.41975 37.0253C4.9479 37.3572 4.68926 38.074 3.91681 37.8515C3.79798 37.8515 3.67913 37.848 3.56029 37.848C2.90669 35.9661 3.11311 34.1972 4.25255 32.5518C4.30149 32.8096 4.11953 33.1662 4.4376 33.2862C4.54595 33.3286 4.77662 33.0391 4.95138 32.9014C6.22364 32.3541 6.61861 33.3004 6.90872 34.1831C7.27921 35.3129 7.64271 36.1744 9.06876 35.433C9.65945 35.1258 10.0789 35.5742 10.2327 36.1109C10.4004 36.6828 10.0998 37.1348 9.57207 37.3678C8.99186 37.6256 8.31378 37.5091 7.75105 37.8445Z" fill="#F6F1EC"/>
<path d="M11.2431 10.3122C11.3375 8.6139 10.0051 7.5202 9.49484 6.07964C9.62766 5.74069 9.85835 5.50412 10.1974 5.37701C11.1586 6.00902 12.2281 6.09023 13.3396 6.09729C14.0561 6.10083 14.86 5.8113 15.4682 6.48215C15.5346 6.90584 15.2969 6.95881 14.9649 6.89525C15.1746 7.04354 15.3843 6.91997 15.5905 6.89172C16.1043 6.81404 16.5797 6.89878 16.5901 7.51314C16.5971 8.01804 16.1253 8.13456 15.7093 8.15574C15.0767 8.18399 14.4441 8.16633 13.8324 8.12043C15.1921 8.74185 15.3214 8.97135 15.0837 10.313C14.4301 10.4472 14.528 9.51862 13.9128 9.52215C13.5108 9.91054 14.4056 10.5461 13.7975 10.8356C13.1683 11.1322 12.8572 10.3095 12.3365 10.2036C11.8017 10.5708 12.5916 11.1393 12.0778 11.4959C11.5291 11.3017 11.278 10.8877 11.2431 10.3122Z" fill="#F6F1EE"/>
<path d="M15.4442 6.77752C14.5179 6.08195 13.4554 6.58685 12.4662 6.42797C11.6134 6.29027 10.5928 6.5233 10.2013 5.37579C10.6662 5.37579 11.1276 5.37579 11.5924 5.37226C13.2806 6.1102 15.1051 5.73593 16.8597 6.01487C21.1274 6.68925 25.4964 6.57273 29.7291 7.70964C31.1447 8.09097 32.735 7.79791 34.2449 7.85087C34.8601 7.87206 35.5382 7.6249 36.0624 8.1863C35.0943 9.02309 33.9338 8.15099 32.9132 8.54291C29.7151 8.85009 26.7442 7.406 23.588 7.3036C22.7492 7.27536 21.8823 7.18356 21.0295 7.13766C19.1281 7.66374 17.2792 7.28948 15.4442 6.77752Z" fill="#EDE5E3"/>
<path d="M30.8159 35.7309C28.3867 34.5445 30.732 33.2169 30.9452 32.1436C31.106 31.335 31.7526 30.5865 31.6058 29.5238C31.5184 28.8882 31.9379 28.1997 32.8291 27.8113C32.8956 29.0224 32.955 30.1628 33.0249 31.4763C33.8707 30.876 33.5037 30.244 33.6156 29.7285C33.8498 29.3472 34.0805 28.9659 34.395 28.4539C35.0731 29.7497 34.1154 30.8654 34.2727 32.0059C34.2797 32.0553 34.2412 32.1577 34.2168 32.1612C31.7526 32.4013 33.5457 34.3856 32.941 35.406C32.6614 35.8756 32.7068 36.7054 32.1546 36.8537C31.4066 37.0549 31.5045 35.8403 30.8159 35.7309Z" fill="#F7F1ED"/>
<path d="M36.3977 23.0196C37.1177 20.9612 36.7961 18.7297 37.4532 16.6607C37.8342 16.8619 38.1907 17.1444 38.0928 17.6069C36.7367 24.1459 36.2963 30.8544 34.5487 37.3193C34.4928 37.5276 34.332 37.7112 34.1083 37.8736C34.9542 32.927 35.9083 28.0086 36.3977 23.0196Z" fill="#DAD0D7"/>
<path d="M32.9196 43.4911C32.4128 42.3047 31.6928 41.2596 30.8225 40.3204C30.5883 39.7308 30.3515 39.1441 30.1173 38.5545C30.1873 38.4168 30.2572 38.2791 30.3271 38.1378C31.2009 39.7267 32.5815 40.9943 33.2036 42.7455C33.305 43.0492 33.1747 43.3039 32.9196 43.4911Z" fill="#DED4D9"/>
<path d="M32.9163 8.54204C33.8985 7.83235 35.0209 8.35931 36.0624 8.1863C36.7545 8.31694 37.544 7.8959 38.1452 8.55616C37.7782 9.00457 37.4601 9.54831 36.7366 9.2376C35.5482 8.5385 34.1152 9.18817 32.9163 8.54204Z" fill="#E3DADE"/>
<path d="M36.7373 9.23859C37.2056 9.01262 37.6775 8.78312 38.1459 8.55715C38.0795 9.66581 37.1282 9.89195 36.4012 10.3439C36.2789 10.4463 36.1571 10.5485 36.0348 10.6509C35.6118 10.9263 35.3427 10.891 35.3462 10.3049C35.8145 9.94828 36.2759 9.5952 36.7373 9.23859Z" fill="#D3C9D4"/>
<path d="M15.4442 6.77752C17.3071 6.88344 19.2015 6.51624 21.0295 7.13766C21.2218 7.25064 21.4061 7.43752 21.6089 7.46577C22.3289 7.56463 22.986 8.03776 22.9161 8.63446C22.7937 9.6831 21.864 8.74038 21.0182 9.14995C22.0038 9.89848 22.6295 10.5835 23.5312 9.24175C24.0835 8.41908 26.5511 8.57797 27.0544 9.41476C27.2082 9.67251 27.0824 9.87023 26.8796 9.99734C26.7154 10.1033 26.6944 10.3539 26.3449 10.2975C25.174 10.1174 25.0796 10.1598 25.0936 11.0813C25.111 11.9958 24.6846 12.0982 24.0206 11.8757C23.6536 11.7521 22.563 12.536 23.0978 11.0778C23.3565 10.3787 22.4757 10.6611 22.1471 10.7212C20.5743 11.0001 19.3719 12.0452 18.0612 12.8608C17.4425 13.2457 16.6701 14.2837 16.8134 12.3559C16.8553 11.7839 16.1983 10.9824 15.4328 10.6576C15.3175 10.5411 15.2021 10.4246 15.0833 10.3045C15.0868 8.78628 14.1396 8.3414 12.4584 8.38377C13.846 7.39515 15.1427 7.82238 16.4219 7.73764C16.0025 6.91497 15.4712 7.22568 15.0693 7.11975C14.912 7.07738 14.4681 7.13388 14.926 6.81964C15.0553 6.74196 15.2694 6.78811 15.4442 6.77752Z" fill="#FBF9F5"/>
<path d="M13.6892 31.489C14.507 30.4192 15.9017 30.7793 16.9118 30.172C17.3522 29.9072 18.7153 30.225 17.5164 29.0669C17.6388 28.9504 17.7646 28.8339 17.8869 28.7174C17.859 28.0889 18.0792 27.5769 18.572 27.1885C19.0124 27.9618 19.4318 27.6263 19.9876 27.2627C20.4559 26.9555 20.8893 26.0057 21.6653 26.8602C21.9239 27.4251 22.4797 27.3439 22.948 27.4569C23.1787 27.5734 23.3115 27.7605 23.3639 28.0112C23.3814 28.276 23.315 28.509 23.0913 28.6715C22.8991 29.0598 22.8082 29.593 22.4971 29.8154C20.4804 31.2878 20.4629 31.2666 22.0008 33.2368C22.553 33.9429 23.1857 34.6809 21.5569 34.6667C20.9802 34.6632 20.8194 35.041 20.5468 35.4364C20.2602 35.8531 19.8023 36.2556 19.264 35.6942C18.911 35.327 18.5371 35.3729 18.1666 35.6024C16.9922 36.3333 16.2652 35.6659 16.0799 34.6491C15.9925 34.1795 16.7475 33.5404 17.5444 33.604C17.9114 33.0708 18.6174 33.3462 19.0683 32.9825C17.3487 32.1352 15.2201 32.9296 13.6892 31.489Z" fill="#FBF8F6"/>
<path d="M7.75105 37.8456C7.38755 36.8111 8.20893 37.1924 8.60738 37.15C9.11768 37.0971 9.66294 37.2101 9.92508 36.5816C10.0579 36.2638 9.96354 36.0167 9.73285 35.8119C9.07925 35.2363 9.07575 36.1861 8.70176 36.2709C7.3526 36.571 6.74093 35.6918 6.6116 34.6255C6.47529 33.4957 5.86363 33.1214 4.95138 32.899C5.07371 32.0763 5.19256 31.2536 5.31489 30.431C6.96813 31.0947 8.50603 32.0586 9.27148 33.6581C10.0544 35.2893 11.054 35.8295 13.0952 35.1551C12.2214 36.059 12.4346 36.8605 12.5011 37.602C12.5675 38.3823 12.4451 38.8589 11.5923 38.9048C10.1592 39.1167 8.97437 38.407 7.75105 37.8456Z" fill="#FCF9F6"/>
<path d="M7.75034 37.8466C9.18338 37.6418 10.3333 38.4786 11.5951 38.9058C12.9198 39.2483 14.2375 39.8309 15.6111 39.093C16.2507 38.7469 16.5758 39.1459 16.8449 39.6332C17.2608 40.3817 17.89 40.4135 18.6065 40.2263C18.6065 39.6649 17.6628 39.8733 17.855 39.2448C17.9005 39.0965 18.215 38.9835 18.4247 38.9411C18.9875 38.8281 19.3824 39.1742 19.4174 39.6614C19.4523 40.1451 19.7739 40.3534 19.9836 40.6747C18.5016 42.0729 16.6911 41.3279 15.0553 41.3138C12.5248 41.2926 10.5256 39.5061 8.20123 38.7328C7.84822 38.6128 7.77131 38.2103 7.75034 37.8466Z" fill="#F6F1EC"/>
<path d="M16.4152 20.6952C16.915 20.2433 18.03 20.5257 17.9007 19.2935C17.7958 18.2731 17.4149 17.8317 16.3523 17.7682C15.5309 17.7188 15.5274 17.175 16.1391 16.663C17.4463 17.2597 18.9003 16.7513 20.197 17.1997C20.5571 17.3233 21.6301 16.942 21.3015 17.8918C21.0778 18.5379 21.686 20.0173 20.0223 19.7066C19.879 19.6783 19.7042 19.8196 19.5434 19.8831C19.4525 19.9749 19.3477 20.0526 19.2393 20.1197C19.0716 20.2115 18.9038 20.3033 18.7675 20.441C18.5613 20.9141 18.6696 21.4261 18.5892 21.9133C18.2817 22.7713 18.5648 23.8729 17.5547 24.4308C16.7752 24.0494 16.541 24.4625 16.4781 25.1687C16.4641 25.3099 16.4886 25.7124 16.1601 25.3523C16.0936 25.2782 16.1041 25.1334 16.0797 25.0239C15.3457 23.5163 15.9294 22.111 16.4152 20.6952Z" fill="#FBF7F4"/>
<path d="M28.3412 27.2009C28.1734 28.1401 28.9633 28.1119 29.3583 27.9671C30.0608 27.7094 30.3579 28.465 30.309 28.5179C29.4037 29.503 29.935 31.1625 28.8305 31.9181C28.4879 32.1546 27.4044 33.6234 26.9256 31.6568C26.8207 31.219 25.545 31.5156 24.8075 31.5262C24.2727 31.5332 23.5737 32.4901 23.2486 31.4803C22.9306 30.481 24.2832 31.0601 24.5174 30.4528C25.0661 29.8526 25.7966 30.0573 26.4677 30.0256C27.0025 30.0009 27.5442 30.015 27.5407 29.2488C27.5582 28.9028 27.5582 28.5568 27.5897 28.2143C27.698 27.7588 27.7225 27.2539 28.3412 27.2009Z" fill="#F7F1ED"/>
<path d="M31.8675 13.4968C31.3712 14.0158 30.7526 14.2841 30.0815 14.436C29.5677 13.977 30.2947 13.7227 30.2003 13.3167C28.998 13.059 27.9774 14.0935 26.7435 13.9134C26.9043 12.9883 27.6069 12.7871 28.271 12.6635C30.1863 12.3034 31.8605 11.4242 33.4159 10.3049C34.0136 9.87419 34.4854 10.026 35.0132 10.3155C35.2229 11.17 34.4575 11.3077 34.0346 11.7208C33.36 12.3775 32.2031 12.4305 31.8675 13.4968Z" fill="#F4EEEB"/>
<path d="M16.4162 20.6964C16.7377 22.1722 15.9688 23.5634 16.0806 25.0251C16.0002 25.0887 15.9199 25.1522 15.8395 25.2158C15.2662 25.4665 14.6231 27.08 14.1583 25.1275C14.1757 24.9015 14.2596 24.6791 14.2596 24.4531C14.2631 23.7011 14.9447 22.9031 14.2142 22.2005C13.4802 21.4943 13.2111 23.0373 12.498 22.6171C11.9912 21.6814 11.4739 20.7423 12.9839 20.2303C14.1478 20.2409 15.3152 20.2126 16.4162 20.6964Z" fill="#E65F53"/>
<path d="M19.6519 20.9038C20.7144 20.7661 21.7874 20.6743 22.7976 20.2612C22.9269 20.5789 22.8115 20.8755 22.7277 21.1757C22.2488 22.0972 23.0842 22.7292 23.231 23.5166C23.0282 24.085 22.5074 24.0638 22.0566 24.1768C21.7525 24.2368 21.4694 24.3534 21.2037 24.5158C20.3404 24.7523 19.3687 25.4373 18.8969 23.972C18.834 23.4671 18.8375 22.9622 18.8654 22.4538C18.8829 22.1925 18.9319 21.9418 19.0157 21.6947C19.1451 21.3593 19.3163 21.0627 19.6519 20.9038Z" fill="#FBF7F4"/>
<path d="M19.3235 21.7068C19.299 21.9116 19.2745 22.1164 19.2535 22.3212C18.953 22.9426 19.1731 23.6064 19.1067 24.2455C19.3129 25.3153 19.5541 26.3887 18.6069 27.2608C18.3692 27.748 18.1281 28.2317 17.8904 28.719C16.9886 28.5954 17.062 27.9705 17.1634 27.3102C17.3067 26.3534 17.429 25.3965 17.5584 24.4361C17.789 23.4934 18.0162 22.5542 18.2469 21.6115C18.6629 21.1066 18.17 20.411 18.5964 19.9097C18.8236 19.9167 19.0508 19.9238 19.2745 19.9273C19.5786 20.5134 19.4877 21.1066 19.3235 21.7068Z" fill="#E05649"/>
<path d="M27.9642 28.1891C27.9642 28.6234 27.9677 29.0577 27.9677 29.492C26.2655 29.9581 24.6927 30.011 23.6581 28.1927C23.5847 28.062 23.34 28.0903 23.1758 28.0514C23.0429 27.9032 22.9136 27.7549 22.7808 27.6066C23.2666 25.6576 24.095 24.9761 25.8426 25.0926C26.0978 25.1421 26.3285 25.2409 26.5102 25.4387C26.7654 25.3363 27.0205 25.2374 27.2757 25.135C27.3141 25.1774 27.349 25.2198 27.3875 25.2621C26.3844 26.1201 27.0974 27.0946 27.1988 28.0303C27.0904 28.1821 26.9786 28.3304 26.7863 28.3833C26.9821 28.4645 26.9821 28.2245 27.1114 28.1786C27.4015 28.0091 27.6846 27.9985 27.9642 28.1891Z" fill="#FAF1ED"/>
<path d="M13.6892 31.489C15.5346 31.8174 17.3837 32.1357 19.2257 32.4888C19.6277 32.5665 20.3022 32.457 20.2184 33.1455C20.138 33.7846 19.5123 33.5798 19.0894 33.6045C18.5756 33.6328 18.0583 33.6081 17.541 33.6081C16.5134 33.0679 15.367 33.082 14.266 32.9196C13.3817 32.7889 12.6372 32.5382 12.1339 31.7191C12.6757 31.3342 13.1998 31.5632 13.6892 31.489Z" fill="#E7D5DC"/>
<path d="M23.175 28.0536C23.4791 27.7041 24.1082 26.7472 24.1537 27.8312C24.2201 29.4024 25.1289 29.0599 25.9397 29.194C26.6143 29.307 27.2924 29.3953 27.967 29.4942C28.0823 30.3204 27.7782 30.6734 26.9149 30.5675C26.125 30.4722 25.3211 30.4828 24.5242 30.4475C23.521 30.2851 22.8849 29.8225 23.0911 28.668C23.1156 28.4632 23.1471 28.2584 23.175 28.0536Z" fill="#E05F4F"/>
<path d="M27.0194 28.2849C26.8726 27.7271 27.1103 26.9079 26.0827 26.9644C25.6598 26.9892 25.2019 26.855 25.2439 26.336C25.2893 25.7781 25.8136 25.8805 26.1981 25.8593C26.7049 25.8311 27.2991 25.9652 27.2746 25.139C27.3899 24.6376 27.5053 24.1398 27.6206 23.6384C27.7395 23.6949 27.7919 23.7832 27.7814 23.8997C28.442 23.5996 28.442 23.5996 28.6622 24.4117C28.5538 25.3403 28.449 26.2689 28.3406 27.1975C28.2148 27.5258 28.089 27.8577 27.9597 28.1861C27.6381 28.2073 27.32 28.2285 26.9985 28.2496L27.0194 28.2849Z" fill="#E66959"/>
<path d="M12.9836 20.2326C11.7987 20.9458 12.7634 21.9168 12.69 22.7642C12.9346 23.0678 12.9241 23.3856 12.7389 23.7104C12.2601 23.9046 12.1517 23.6433 12.1552 23.2973C12.5362 23.6892 11.4457 24.9073 12.9521 24.7732C13.4799 24.7379 14.0112 24.6884 14.3956 25.1686C14.5075 25.8536 14.8046 25.8995 15.2659 25.4334C15.4162 25.2816 15.4652 24.8014 15.8392 25.2145C15.6085 26.6692 14.6228 26.3091 13.7071 26.1255C13.0744 25.5605 12.2601 26.3832 11.6239 25.8501C11.1416 24.9003 11.4177 20.9282 12.0294 20.3067C12.3055 20.0243 12.6515 20.1125 12.9836 20.2326Z" fill="#E15C51"/>
<path d="M23.0776 23.4394C22.1339 22.7791 21.5816 22.0235 22.4869 20.9219C23.3187 20.7736 23.3292 21.6281 23.7591 21.9706C24.1506 22.253 24.5351 22.1718 24.9195 21.9564C25.4368 21.734 25.4613 20.8831 26.1918 20.936C26.6462 22.2989 26.2722 23.2593 24.8741 23.7218C24.175 24.2691 23.5844 24.1279 23.0776 23.4394Z" fill="#DD594A"/>
<path d="M26.1918 20.936C25.8562 21.3915 25.5243 21.8427 25.1887 22.2982C24.5806 21.3802 23.9899 21.7086 23.4027 22.3229C22.9903 21.9275 23.1685 21.1401 22.4904 20.9247C22.5953 20.7023 22.6966 20.4834 22.8015 20.2609C24.0877 19.6819 25.318 19.3931 26.1918 20.936Z" fill="#E06457"/>
<path d="M28.6621 24.414C28.3125 23.9021 28.3055 23.895 28.0015 24.2339C27.9106 24.3363 27.8756 24.64 27.7219 24.3152C27.6275 24.1174 27.6485 23.8667 27.6205 23.6372C27.7358 22.8252 27.8337 22.0131 27.97 21.2045C28.0329 20.8338 28.2357 20.5266 28.6691 20.5902C29.1724 20.6608 29.3401 21.0174 29.2528 21.487C29.0675 22.465 28.8613 23.4395 28.6621 24.414Z" fill="#DE5D4F"/>
<path d="M31.8675 13.4968C30.7875 12.8118 31.9445 12.6425 32.1787 12.4836C33.1713 11.8199 34.3422 11.4068 35.0133 10.3122C35.1252 10.3087 35.2405 10.3087 35.3524 10.3052C35.4992 10.5841 35.7508 10.6582 36.0409 10.6512C34.7652 11.7775 33.325 12.6494 31.8675 13.4968Z" fill="#E3DADE"/>
<path d="M28.2433 17.4368C26.0798 17.7051 25.933 17.5286 26.4433 15.3995C27.034 16.0669 27.5757 16.6812 28.2433 17.4368Z" fill="#F1E5E1"/>
<path d="M16.1365 16.6666C15.752 16.6383 15.1823 16.7619 15.1718 16.2111C15.1544 15.3002 15.8918 15.0071 16.6678 14.6823C16.9684 15.5473 16.3462 16.0522 16.1365 16.6666Z" fill="#DFDAD9"/>
<path d="M18.9709 14.6589C19.8587 14.6201 20.5891 14.207 21.1833 14.9308C21.2288 14.9837 21.0191 15.3827 20.8618 15.4463C20.0928 15.7499 19.4742 15.5805 18.9709 14.6589Z" fill="#F1E6E4"/>
<path d="M23.0776 23.4394C23.6752 23.5347 24.2728 23.6296 24.8705 23.7214C25.3004 24.3746 26.2196 23.7073 26.639 24.3922C25.9575 25.109 25.1081 24.7983 24.3077 24.7842C23.4479 24.4064 22.242 24.9536 21.6793 23.7814C22.1302 23.6084 22.6931 23.8984 23.0776 23.4394Z" fill="#F4CFC5"/>
<path d="M29.7048 10.754C29.5021 11.5838 29.1735 12.0145 28.45 11.9933C28.3487 11.9898 28.1494 11.7426 28.1739 11.6685C28.3976 10.9835 28.9533 10.8741 29.7048 10.754Z" fill="#F4EEEB"/>
<path d="M24.1856 24.3153C25.0035 24.3436 25.8213 24.3718 26.6392 24.3965C26.5973 24.7461 26.5518 25.0921 26.5099 25.4416C26.2967 25.4028 26.087 25.3604 25.8738 25.3216C25.367 24.8873 24.231 25.5334 24.1856 24.3153Z" fill="#E67461"/>
<path d="M11.6202 25.8507C12.2039 25.8754 12.7492 25.7553 13.3084 25.5611C13.8222 25.3846 13.8816 25.713 13.7034 26.1261C12.9973 26.1367 12.2738 26.2638 11.6202 25.8507Z" fill="#E65F53"/>
<path d="M10.4454 31.5107C10.351 31.5743 10.2287 31.7261 10.1133 31.7226C9.87915 31.7155 9.67993 31.5531 9.70789 31.3024C9.72187 31.1859 9.9141 30.9988 10.0294 30.9988C10.2706 30.9917 10.3999 31.1894 10.4454 31.5107Z" fill="#E7DFDE"/>
<path d="M19.3231 21.7055C19.3056 21.1123 19.2881 20.5227 19.2742 19.9295C19.3615 19.9048 19.4524 19.8942 19.5468 19.8907C19.5817 20.2296 19.6202 20.5686 19.6551 20.9075C19.5433 21.1688 19.4315 21.4372 19.3231 21.7055Z" fill="#E06456"/>
<path d="M27.1385 41.581C28.7708 41.3551 30.0046 41.1503 31.7068 41.8706C29.9732 42.0859 28.7428 42.9898 27.1385 41.581Z" fill="#E4DADD"/>
<path d="M3.91337 37.8532C4.70679 37.1541 5.5002 36.4585 6.42644 35.6465C6.7445 36.681 5.78331 36.9034 5.65399 37.4966C5.03533 37.4224 4.79067 39.2126 3.91337 37.8532Z" fill="#DBD1D9"/>
<path d="M18.6029 27.2592C18.7253 26.2282 18.8511 25.1972 18.9734 24.1662C19.0084 24.0426 19.0922 23.972 19.2181 23.9614C19.8018 24.1909 20.3785 24.5758 21.0041 24.0709C21.2278 24.2474 21.448 24.431 21.7032 24.5546C22.2484 24.8088 23.0488 24.8865 22.9195 25.7304C22.7937 26.5495 22.3673 27.2309 21.3991 27.2945C20.9377 27.1109 20.8958 27.0579 20.1128 27.6652C19.3614 28.2549 18.9315 28.0536 18.6029 27.2592Z" fill="#F3EFEA"/>
<path d="M21.3991 27.2945C21.5913 27.0756 21.7844 26.8528 21.9766 26.6374C22.5638 25.9807 23.546 25.2569 21.6516 25.1156C21.0469 25.0697 20.9525 24.5896 20.9979 24.0741C21.2216 23.9787 21.4453 23.8834 21.6725 23.7881C22.5079 23.9646 23.3432 24.1411 24.1786 24.3141C24.4827 25.0909 25.5557 24.5578 25.8668 25.3204C24.1192 25.098 23.6089 26.5738 22.7735 27.6084C22.2283 27.9155 21.7172 28.0395 21.3991 27.2945Z" fill="#E67262"/>
<path d="M18.5936 19.9097C18.5097 20.4852 18.8068 21.1384 18.2441 21.6115C18.2371 21.0183 18.0518 20.3863 18.5936 19.9097Z" fill="#E06456"/>
<path d="M12.5633 23.7046C12.6053 23.3904 12.6472 23.0761 12.6892 22.7619C12.8464 21.7768 13.2484 21.2507 14.3844 21.5438C15.6671 21.8757 15.003 22.7407 14.9051 23.3621C14.8108 23.9659 14.9366 24.6826 14.3913 25.1699C13.8216 25.131 13.2519 25.0922 12.6822 25.0498C11.7944 24.6791 12.2628 24.1848 12.5633 23.7046Z" fill="#FBF2F0"/>
<path d="M19.2154 23.9633C19.1281 24.0268 19.0477 24.0939 18.9708 24.1681C18.9743 23.5396 18.7051 22.8652 19.2504 22.3179C19.2399 22.8687 19.2294 23.416 19.2154 23.9633Z" fill="#E06456"/>
<path d="M26.999 28.2529C26.992 28.5001 27.2926 28.8496 26.8801 28.9661C26.5271 29.065 26.223 28.8461 26.0588 28.5107C25.9294 28.2459 25.87 27.8539 26.2021 27.8222C26.4572 27.7975 26.7468 28.119 27.0194 28.2849L26.999 28.2529Z" fill="#F7F1ED"/>
<path d="M12.5633 23.7046C12.6367 24.1495 12.3362 24.6297 12.6822 25.0498C11.9167 25.7842 11.5923 25.4277 11.6518 24.5556C11.6937 23.92 11.9279 23.2986 12.0852 22.6172C12.2634 23.0268 12.413 23.3656 12.5633 23.7046Z" fill="#E65F53"/>
<path d="M23.3986 22.3241C23.3566 21.6108 23.5524 20.9753 24.3458 20.9506C25.2301 20.9259 25.293 21.6003 25.1846 22.2993C24.5939 22.6277 24.0033 22.9314 23.3986 22.3241Z" fill="#F8E9E4"/>
</svg>
