<svg width="46" height="41" viewBox="0 0 46 41" fill="none" xmlns="http://www.w3.org/2000/svg">
<path d="M40.9394 2.9624C43.0413 2.86577 44.6838 3.91109 43.8 6.48191C43.5675 7.15828 43.675 7.7761 43.8814 8.45248C44.9454 11.9427 45.9688 15.4798 45.9978 19.1398C46.0298 23.0195 45.7013 26.905 45.4368 30.7817C45.3902 31.4464 45.4687 31.9852 45.681 32.5913C46.242 34.1812 45.5996 34.9893 44.0907 35.7067C42.5412 36.4446 40.9743 37.1619 39.4364 37.932C38.6166 38.3419 37.7881 38.7489 36.9392 39.0915C36.2822 39.358 35.7269 39.5951 35.2065 40.213C34.1745 41.4398 32.6017 40.8425 31.2499 40.9303C30.5841 40.9742 29.9068 40.8073 29.2352 40.7371C28.7992 40.4677 28.3108 40.6668 27.8543 40.5819C27.5374 40.5233 27.3107 40.3974 27.584 40.0343C29.0346 39.5131 30.5376 39.8118 32.0145 39.7415C32.2063 39.7474 31.9621 39.7357 32.1569 39.7445C34.3896 39.8528 34.3896 39.8528 33.8285 37.7183C33.7907 37.4167 33.7907 37.1151 33.7849 36.8135C33.8314 36.0932 33.6599 35.3465 34.0495 34.6731C34.1657 34.5413 34.3082 34.4974 34.4768 34.5413C35.0757 35.1796 34.7152 36.0405 34.9797 36.7549C35.096 37.1531 35.096 37.5806 35.3112 37.9496C35.756 38.5323 36.2676 38.2658 36.7328 38.0257C38.6544 37.0331 40.6487 36.1898 42.55 35.1474C43.0936 34.9366 43.6227 34.6965 44.1111 34.3744C44.5472 34.0875 44.8728 33.6776 44.6635 33.1476C43.7506 30.8403 44.6431 28.5242 44.6605 26.2198C44.6722 24.8261 44.803 23.4118 44.803 22.0035C45.1373 17.5382 44.2565 13.2457 42.9541 9.02345C42.6285 7.96642 42.4947 6.95918 42.8872 5.90801C43.0849 5.38096 43.1139 4.8627 42.6343 4.44692C41.5208 3.7354 40.2475 3.73247 39.0061 3.68563C37.8462 3.64171 36.6892 3.64463 35.5583 3.3284C35.3053 3.24935 35.0815 3.13223 34.971 2.8687C35.6484 2.22746 36.4246 2.59347 37.1688 2.65203C37.7241 2.66667 38.2765 2.68131 38.8317 2.69888C39.5091 3.05317 40.2678 2.65203 40.9394 2.9624Z" fill="#D2B694"/>
<path d="M0.512456 31.0921C0.0298698 23.9828 1.12296 17.1253 3.7452 10.5138C4.37605 8.92094 5.32378 7.49792 6.2657 6.08367C6.61456 5.55955 6.81224 5.06764 6.53897 4.46446C6.61165 4.23022 6.75992 4.08967 7.01284 4.08382C7.15529 4.13945 7.26576 4.23608 7.34135 4.37077C7.57392 4.95345 7.53612 5.54198 7.35879 6.13052C6.73084 7.53012 5.73369 8.71598 5.09121 10.1097C2.57944 15.9541 1.66659 22.1235 1.44856 28.4305C1.42239 29.1625 1.27122 29.874 1.23634 30.6002C1.23924 30.7612 1.20436 30.9164 1.13459 31.0599C0.9369 31.2414 0.730492 31.2678 0.512456 31.0921Z" fill="#D5BB9A"/>
<path d="M0.512456 31.0921C0.689792 31.0921 0.867187 31.0921 1.04743 31.0921C1.51257 31.5343 1.53292 32.1433 1.65212 32.7172C1.6841 33.0569 1.63177 33.3877 1.53002 33.7127C0.995102 35.4315 1.00964 35.452 2.84986 35.7389C3.03883 35.7682 3.22779 35.7975 3.41675 35.8473C4.0447 36.0552 4.67264 36.2484 5.31221 36.4153C9.34152 37.4548 13.4348 38.178 17.528 38.8924C17.9089 38.9598 18.3043 38.992 18.5281 39.3785C18.4758 40.0168 17.8769 39.6479 17.6094 39.888C14.9552 39.7767 12.3766 39.1823 9.80376 38.5821C7.15826 37.9643 4.52147 37.2996 1.87597 36.6818C0.137493 36.2748 -0.481729 35.2529 0.396229 33.7596C0.960216 32.7992 0.183949 31.9588 0.512456 31.0921Z" fill="#D6BC99"/>
<path d="M12.3911 0.0784259C14.2692 -0.126537 16.1239 0.113562 17.9874 0.303885C21.287 0.64061 24.543 1.23793 27.8077 1.78547C27.6566 2.77222 26.7699 2.38279 26.2292 2.64632C22.351 1.85575 18.4206 1.41947 14.493 0.948054C13.8564 0.508848 12.7604 1.1823 12.3911 0.0784259Z" fill="#D6BB98"/>
<path d="M26.331 2.35932C26.706 1.86155 27.4676 2.37694 27.8077 1.78547C30.1189 2.07535 32.4331 2.3681 34.7443 2.65798C34.9216 2.69604 34.971 2.86001 35.0553 2.98592C35.2559 2.9947 35.4594 3.00056 35.66 3.00934C35.4245 3.84969 34.721 3.60959 34.1541 3.65351C33.5843 3.69743 33.0523 3.41341 32.4854 3.40755C32.0057 3.38706 31.5231 3.38706 31.0435 3.38706C30.5783 3.3812 30.1132 3.38999 29.648 3.32264C29.1422 3.2143 28.6422 3.07083 28.1334 2.95956C27.7235 2.80731 27.2874 2.78681 26.8601 2.71654C26.6479 2.6609 26.4531 2.56428 26.331 2.35932Z" fill="#DABF9C"/>
<path d="M17.6095 39.8914C17.8247 39.5254 18.1939 39.5957 18.5282 39.5576C18.6387 39.4639 18.7404 39.3175 18.8829 39.3204C21.1214 39.3527 23.3889 39.1623 25.5053 40.1666C24.6855 41.0099 23.7087 40.4975 22.7872 40.4858C21.0283 40.6 19.3102 40.3218 17.6095 39.8914Z" fill="#D4BA96"/>
<path d="M12.3911 0.0784259C12.9522 0.705027 13.8535 0.0109618 14.4204 0.61121C13.9378 1.17632 13.275 1.02406 12.6703 1.03285C11.554 1.04456 10.4638 1.14704 9.4579 1.69166C8.82415 1.9259 8.25725 2.39439 7.51593 2.26848C7.29208 2.17478 7.14091 2.01667 7.08277 1.77364C8.77182 0.953791 10.3416 -0.243659 12.3911 0.0784259Z" fill="#D6BE9B"/>
<path d="M22.7899 40.4848C23.6737 40.3092 24.6272 40.7513 25.4645 40.1715C25.947 39.6972 26.5227 39.7675 27.107 39.8904C27.2698 39.949 27.4006 40.0486 27.5024 40.1862C27.953 40.7747 28.7902 40.1423 29.2379 40.7425C27.0866 40.7074 24.9208 41.0148 22.7899 40.4848Z" fill="#D6BD9E"/>
<path d="M7.08277 1.77364C7.20196 1.88198 7.32098 1.99358 7.44017 2.10192C7.43435 2.26882 7.36168 2.4123 7.27737 2.54991C7.17271 2.73731 7.0855 2.93349 7.0477 3.14723C6.9663 3.46932 7.16399 3.83825 6.87909 4.12227C6.76571 4.23646 6.65235 4.35027 6.53897 4.46446C5.7366 3.07657 5.86176 2.46173 7.08277 1.77364Z" fill="#D3BB98"/>
<path d="M35.0583 2.98614C34.9536 2.8778 34.8519 2.76947 34.7472 2.6582C35.5583 2.30976 36.3694 2.3654 37.1805 2.66406C36.4828 2.83681 35.695 2.41517 35.0583 2.98614Z" fill="#D0B797"/>
<path d="M40.9394 2.9624C40.2388 2.89506 39.4856 3.24339 38.8402 2.71049C39.5525 2.68999 40.2795 2.53783 40.9394 2.9624Z" fill="#D0B797"/>
<path d="M45.2157 22.0212C45.2709 24.8409 44.986 27.6372 44.6895 30.4334C44.6139 31.1362 44.4308 31.9062 44.861 32.5738C45.582 33.6953 45.1372 34.3951 44.0819 34.8841C43.5179 35.1476 43.0034 35.5634 42.326 35.4872C42.3027 35.4228 42.2795 35.3613 42.2562 35.2969C42.4219 34.5298 43.1138 34.3629 43.6604 34.0086C44.1488 33.6924 44.6168 33.3029 43.6284 32.9984C42.8347 32.4333 42.3405 33.0745 41.7794 33.4581C41.2009 33.8534 40.6137 34.2604 40.2735 33.2004C40.2241 33.0013 40.198 32.7993 40.1776 32.5943C40.2096 31.7247 40.3259 30.8697 40.5003 30.331C39.5671 31.8213 38.6281 33.6543 37.4013 35.3116C37.285 35.4667 37.4449 35.2852 37.3112 35.4228C37.1426 35.5985 36.7762 35.8503 36.7443 35.7859C36.2501 34.7728 35.2907 36.2632 34.8023 35.3994C34.4331 33.095 34.8343 30.8229 35.0494 28.5478C35.6192 27.5962 36.5233 28.2081 37.2676 28.1203C37.5292 28.0881 37.5612 28.5654 37.4129 28.8523C37.1891 29.2856 36.7821 29.6224 36.6512 30.0909C36.5088 30.6033 35.5901 31.4231 37.1018 31.47C37.3693 31.4788 37.3809 32.0204 37.3548 32.3455C37.5583 32.0966 37.5292 31.7598 37.349 31.5666C36.689 30.8492 36.8693 30.167 37.3228 29.4496C37.5873 29.0309 37.6426 28.5419 37.7472 28.0647C37.8257 27.7016 37.9856 27.2097 38.4711 27.3297C38.8549 27.4263 38.7996 27.8597 38.7269 28.2081C38.695 28.3604 38.6833 28.5185 38.7182 28.6913C38.5874 27.5552 39.1485 26.8378 40.1049 26.3927C40.2997 26.302 40.384 26.4601 40.6137 27.2448C40.7794 27.0106 40.7358 26.7734 40.6747 26.5362C40.6079 26.2785 40.6835 26.0589 40.8375 25.854C41.1777 25.6871 41.2533 24.9463 41.8201 25.3211C42.2708 25.6197 42.2969 26.1292 42.1312 26.6182C41.98 27.0662 41.7068 27.4849 41.8899 27.968C41.8754 27.5405 41.8434 27.0721 42.5295 27.1833C42.8813 27.2829 42.8871 27.7074 43.1633 27.8978C43.0993 26.6504 43.8319 25.4909 43.4569 24.2377C43.0441 23.5906 42.6516 22.9172 41.419 23.1514C42.6458 23.8453 42.4597 24.469 41.573 25.0341C41.2358 25.2508 41.105 25.6432 40.8056 25.8862C40.2968 26.3693 39.7793 26.5011 39.3985 25.7808C39.0467 25.1161 39.1514 24.3812 39.666 23.8981C40.0933 23.4969 40.0817 24.0386 40.1253 24.3197C40.1863 24.0884 40.1689 23.7692 40.0061 23.6931C39.5235 23.4735 39.0409 23.3007 39.0031 22.6302C38.8927 23.4179 38.8868 24.1616 38.8258 24.9024C38.7909 25.3299 38.8461 25.9008 38.2618 25.9067C37.5932 25.9125 37.7501 25.2567 37.599 24.9492C37.535 25.3123 37.8519 25.7281 37.8345 26.1936C37.7908 26.3371 37.7065 26.4454 37.5786 26.5187C36.8925 26.6036 36.7355 26.0912 36.5553 25.6022C36.5175 25.4675 36.5611 25.3211 36.4972 25.1893C36.4826 25.4265 36.3983 25.6285 36.2152 25.7896C35.0116 25.1454 35.7413 24.0327 35.5785 23.1397C35.5989 22.9933 35.6396 22.8498 35.7006 22.7151C36.9303 22.3169 36.9827 21.3184 37.1106 20.2234C37.2414 19.0931 37.4333 17.9541 37.942 16.8795C38.445 15.8196 37.7618 14.5927 38.2269 13.4859C39.2619 13.3835 38.8985 14.3175 39.1688 14.7801C40.0119 14.2706 40.2736 14.9675 40.605 15.4946C40.6776 15.6117 40.6369 15.7669 40.5701 15.8986C40.3113 16.1124 40.0904 16.3701 39.8636 16.6072C39.5032 16.7653 39.5991 16.941 39.8549 17.1255C40.0439 17.6994 39.9276 18.285 39.9625 18.8677C39.7677 19.588 39.9828 20.3229 39.8898 21.0022C40.2328 19.6348 40.3811 18.2089 40.1398 16.7595C40.1573 16.4638 40.2736 16.2207 40.5207 16.0538C41.0788 15.6585 41.605 15.641 42.012 16.2588C42.2039 16.5516 42.3376 16.9791 41.8405 17.0581C40.8521 17.2192 41.1922 17.796 41.3608 18.3465C41.3143 17.389 42.0295 16.698 43.0063 17.105C43.9511 17.5003 43.6865 16.7888 43.8959 16.4755C44.0354 16.2207 44.1604 15.8957 44.4569 15.8518C44.768 15.8049 44.8174 16.1241 44.8203 16.3583C44.829 18.326 45.6808 20.402 44.1313 22.1793C44.4308 23.1865 44.6197 24.2084 44.5209 25.0049C44.5122 24.7355 44.4802 24.2026 44.5645 23.6726C44.6982 23.0958 44.2505 22.273 45.2157 22.0212Z" fill="#EAD4B6"/>
<path d="M34.2064 34.6494C34.1977 35.4136 34.1919 36.1807 34.1832 36.945C33.3488 37.8673 32.1685 37.7092 31.1161 37.8819C30.0434 38.0605 28.93 37.8439 27.8572 38.1923C27.1857 38.4119 27.0432 37.9346 27.0636 37.3783C27.6973 36.4794 28.3136 35.6391 29.6102 36.4735C30.087 36.781 31.4563 35.4019 31.3516 34.6289C31.1452 33.1239 31.244 31.6189 31.1975 30.1168C31.1801 29.578 30.8225 29.2413 30.619 28.8109C30.2905 28.114 30.2905 27.3673 30.6539 26.7027C31.0347 26.0029 31.6074 26.7466 32.0813 26.6148C33.375 26.6675 33.4506 26.7934 33.2442 28.7874C33.5 28.1638 33.8518 27.5489 34.3343 27.6279C34.9652 27.7304 34.7849 28.4771 34.8227 28.9865C34.8431 29.2764 34.8082 29.5692 34.7559 29.8591C34.7326 30.0114 34.6977 30.1578 34.6541 30.3042C34.3518 31.7448 34.971 33.2703 34.2064 34.6494Z" fill="#F7EEDD"/>
<path d="M27.1943 37.2527C27.4647 37.3699 27.017 38.2512 28.0054 37.7476C29.3456 37.0654 31.0172 37.7798 32.5028 37.2615C33.0348 37.0771 33.6191 37.0478 34.1831 36.9482C34.1802 37.244 34.1773 37.5397 34.1744 37.8384C33.8924 38.1604 34.1453 38.4796 34.1947 38.7929C34.2471 39.115 34.2151 39.4781 33.8343 39.3726C33.0551 39.1589 32.8982 39.8909 32.4476 40.1632C30.8021 40.172 29.1538 40.1779 27.5083 40.1866C27.4095 40.1749 27.3135 40.1632 27.2147 40.1515C27.4821 39.1853 28.2816 39.6479 28.8572 39.4546C27.267 39.5893 25.6826 38.9481 24.0721 39.4722C23.6389 39.6127 23.2261 39.4459 22.8743 39.1501C22.1185 37.5661 22.3307 37.2 24.043 37.1386C24.3773 37.1268 24.7145 37.1298 25.0489 37.1268C25.7582 37.2469 26.5024 36.8223 27.1943 37.2527Z" fill="#EDD8BA"/>
<path d="M43.7768 22.3113C43.7419 22.2205 43.6576 22.1093 43.6837 22.0419C44.7245 19.2369 44.7245 19.2369 44.6082 16.1946C44.2303 16.1888 44.3756 16.6924 44.0733 16.751C43.8204 16.6046 43.7041 16.3703 43.6547 16.0922C43.6547 15.9575 43.6779 15.8257 43.7157 15.6969C44.2448 14.634 43.5238 13.6765 43.4541 12.6663C43.0471 11.3165 43.1314 9.79101 42.0383 8.69299C41.858 8.65786 41.6865 8.59344 41.5179 8.52317C40.9481 8.29185 40.4772 8.9858 39.9015 8.70178C39.387 7.62719 40.6254 7.87607 40.8812 7.38123C41.2708 7.01815 42.0354 7.29925 42.2883 6.49404C41.8057 6.95081 41.2592 7.09428 40.8202 7.4193C40.1777 7.82922 39.512 8.1923 38.7648 8.36798C38.3171 8.47339 37.8171 8.70178 37.5962 8.01662C38.3869 6.91567 39.6719 6.55845 40.7737 5.94356C41.5644 5.50436 42.1866 5.00952 42.3523 4.07547C42.5587 4.01106 42.7564 4.00813 42.9337 4.15746C43.6023 4.49711 43.6692 5.17349 43.4017 5.66247C42.5703 7.19384 43.2302 8.5993 43.6547 9.9989C44.8408 13.9254 45.4833 17.9134 45.2245 22.0244C44.6315 22.4753 45.2681 23.3332 44.6547 23.7783C44.2768 23.3361 44.1838 22.7271 43.7768 22.3113Z" fill="#ECD8BC"/>
<path d="M35.0611 35.7747C35.5291 35.7044 35.6948 34.1057 36.4769 35.5053C36.6251 35.7688 36.8984 35.5199 37.0321 35.3033C37.7444 34.1467 38.3898 32.9345 39.1136 31.8043C39.6718 30.9317 40.4306 30.267 40.3521 29.1163C40.3405 28.9319 40.5847 28.8089 40.7969 28.9289C41.1079 29.1046 41.1108 29.3711 40.9975 29.6814C40.6515 30.6155 40.5294 31.5847 40.573 32.5773C39.9625 33.7163 39.2968 34.8143 38.3607 35.7249C38.3374 35.7454 38.3461 35.8303 38.3694 35.8625C38.3927 35.8947 38.4537 35.8977 38.5089 35.9094C39.3782 36.047 39.5642 36.4774 38.8607 37.0162C38.2909 37.4525 37.6077 37.7423 36.974 38.0937C36.0699 38.5944 36.0233 37.6047 35.6338 37.2651C35.2646 37.4788 35.3779 37.9385 35.0611 38.12C34.6453 37.8067 34.8198 37.3412 34.7616 36.9371C34.6134 36.779 34.6308 36.5916 34.6599 36.4013C34.75 36.1641 34.7994 35.9006 35.0611 35.7747Z" fill="#E4CCAB"/>
<path d="M42.9277 4.15432C42.7213 4.16018 42.5149 4.16603 42.3056 4.17189C41.5817 4.70479 40.7793 4.80727 39.9217 4.62866C38.2443 4.02256 36.5029 4.37392 34.7906 4.28023C33.1946 4.20702 31.6131 4.00792 30.0258 3.83516C29.6827 3.67412 29.456 3.44573 29.5345 3.02702C30.02 3.01824 30.5055 3.00946 30.9909 3.00067C31.4706 3.23491 31.9532 3.20856 32.4358 3.01531C33.5114 3.03288 34.59 3.67412 35.6656 3.01238C37.6163 3.19978 39.567 3.40474 41.5177 3.56871C42.0643 3.6097 42.5556 3.71511 42.9277 4.15432Z" fill="#F3E0C5"/>
<path d="M35.0551 38.1194C35.058 37.7827 34.9592 37.3962 35.09 37.118C35.2702 36.7227 35.8749 36.4943 35.9854 36.9775C36.3633 38.5908 37.0523 37.891 37.7849 37.3464C38.1948 37.0419 38.7966 37.0009 39.0408 36.4504C38.8896 36.0639 38.3518 36.509 38.2472 36.0639C38.1367 35.5896 38.4652 35.4461 38.8053 35.3114C39.6629 35.6042 40.5089 35.8824 41.3985 35.3436C41.6805 35.1738 42.0526 35.1855 42.323 35.4871L42.3288 35.4929C40.2996 36.8252 38.0844 37.7885 35.872 38.7548C35.2644 39.0125 35.1191 38.6025 35.0551 38.1194Z" fill="#ECD6B7"/>
<path d="M32.4445 40.1607C32.4329 39.7917 32.7469 39.5604 32.837 39.2588C33.1306 38.2779 33.4795 38.4712 33.901 39.2647C34.0725 38.7201 33.6423 38.1813 34.1743 37.8358C35.0232 40.2221 35.0232 40.2221 32.4445 40.1607Z" fill="#F4E4CC"/>
<path d="M34.2064 34.6494C34.3227 33.0799 33.8459 31.4725 34.4913 29.9324C35.1512 31.2002 34.5814 32.553 34.75 33.853C34.7325 34.1283 34.6802 34.3859 34.4389 34.5616C34.3604 34.585 34.282 34.6142 34.2064 34.6494Z" fill="#F5E9D6"/>
<path d="M34.4417 34.5616C34.4592 34.3859 34.4737 34.2102 34.4912 34.0316C35.3604 34.7139 34.8051 35.5718 34.7732 36.3653C34.7673 36.5556 34.7644 36.7459 34.7586 36.9333C34.1946 36.2042 34.6394 35.3405 34.4417 34.5616Z" fill="#BFA481"/>
<path d="M4.85301 9.73798C5.60886 8.55212 6.36181 7.36333 7.11767 6.17748C7.17872 6.17162 7.24268 6.16284 7.30373 6.15405C7.46944 6.05157 7.69619 5.93738 7.67584 5.74705C7.54793 4.46457 8.27181 4.71638 8.90557 5.10581C9.50735 5.47475 10.0684 5.79683 10.7952 5.59187C11.4813 5.5011 12.1412 5.58601 12.7459 5.93738C13.807 6.55519 14.9757 6.7543 16.1647 6.90656C18.9091 7.25792 21.3685 8.71902 24.139 8.97376C24.5838 9.35147 25.1478 9.56815 25.5374 10.022C25.1245 11.0175 24.0402 10.5813 23.3803 11.0556C23.0924 11.0849 22.857 11.0146 22.7407 10.7159C22.6854 10.5461 22.8192 10.2592 22.6825 10.224C22.5459 10.1889 22.6244 10.4671 22.5895 10.6017C22.5168 10.8682 22.479 11.1405 22.2203 11.3103C21.1243 11.445 20.3655 10.7482 19.537 10.2182C19.0283 9.57401 18.441 9.25485 17.5485 9.3017C16.3275 9.36611 15.1588 9.03817 14.2286 8.02214C14.2431 8.18904 14.339 8.16562 14.3507 8.20661C14.6501 9.21678 15.5949 10.0601 17.0892 10.549C17.5689 10.7072 17.8683 11.0058 17.9061 11.4538C17.9642 12.1097 17.4061 12.0248 16.9903 12.0833C16.0949 11.9867 15.3391 11.6149 14.7024 10.9678C13.9814 10.2328 13.0686 9.78775 12.1936 9.27827C11.4551 8.85078 10.644 8.44085 10.5685 7.40725C11.1731 6.80701 11.8709 7.43946 12.6006 7.16715C11.6848 7.09103 10.8824 6.5874 10.0161 7.07931C9.78934 7.38969 10.0684 7.60051 10.1731 7.84646C10.4376 8.30616 10.8097 8.69267 11.0307 9.17579C11.5918 10.4085 11.6441 11.2371 10.0248 11.4216C9.41432 11.5387 8.85033 11.3162 8.28053 11.161C7.05953 10.8799 5.77457 10.7511 4.85301 9.73798Z" fill="#F1DDBF"/>
<path d="M4.85301 9.73798C6.01005 10.1215 7.16413 10.5052 8.32117 10.8887C8.00429 11.2635 7.71939 11.6559 7.61474 12.1537C7.06238 13.1053 6.39955 13.9456 5.39658 14.4551C4.76864 13.3249 6.00127 12.6514 6.0943 11.612C4.94888 13.688 4.60875 15.9425 3.99825 18.1064C3.89359 18.4812 3.69881 18.9643 4.19012 19.2805C5.33844 19.9042 4.10872 20.5571 4.21628 21.1984C3.83254 22.5424 3.72207 23.9127 3.76858 25.3064C3.78893 25.9242 3.80347 26.5538 3.45461 27.113C2.90516 27.4937 2.61735 27.9709 2.9633 28.539C3.0854 28.296 2.52432 27.6869 3.29181 27.5259C3.84998 27.9709 3.7366 28.58 3.6959 29.1714C3.66974 29.3178 3.62032 29.4555 3.55345 29.5872C3.33251 29.9386 3.01854 30.208 2.81795 30.5945C2.3121 31.5695 1.86731 31.1332 1.48066 30.4569C1.49519 29.2593 1.47775 28.0617 1.48647 26.8641C1.46612 27.9914 1.48938 29.1187 1.47194 30.246C1.44868 30.5125 1.31786 30.6911 1.05912 30.7614C1.06203 29.1539 0.919578 27.5288 1.09982 25.9418C1.5388 22.0944 1.87021 18.2147 3.0854 14.5049C3.6116 12.8974 4.25995 11.325 4.85301 9.73798Z" fill="#F7EDDC"/>
<path d="M1.05901 30.7648C1.15204 30.6799 1.24216 30.595 1.33519 30.5072C1.46892 30.5687 1.39333 30.841 1.62881 30.8C1.9515 30.595 2.66666 31.0459 2.59398 30.1382C2.56782 29.7957 3.00389 29.6434 3.37019 29.6258C3.77138 30.0328 3.70742 30.516 3.4545 30.9259C3.01843 31.6315 2.92249 32.425 2.73353 33.198C2.06197 33.9447 1.66079 33.5933 1.35844 32.8496C1.25379 32.264 1.14913 31.6784 1.04447 31.0899C1.05029 30.9844 1.0561 30.8732 1.05901 30.7648Z" fill="#F6E9D3"/>
<path d="M6.88196 4.12219C6.92556 3.74154 6.38483 3.37261 6.8587 2.98318C7.04766 2.81335 7.25407 2.81043 7.47211 2.91876C7.69596 3.16765 7.71631 3.45752 7.62909 3.7679C7.57095 3.91137 7.47501 4.02556 7.3471 4.1134C7.27442 4.13683 7.20174 4.15733 7.13197 4.17782C7.04476 4.16904 6.96045 4.14854 6.88196 4.12219Z" fill="#F1DDBF"/>
<path d="M7.11767 6.17748C7.12058 5.50988 7.12641 4.84525 7.12931 4.17765L7.17001 4.1513C7.8154 4.85403 7.8154 5.41329 7.16129 6.21264L7.11767 6.17748Z" fill="#F1DDBF"/>
<path d="M23.1388 39.0005C23.3626 39.0825 23.6737 39.3021 23.7958 39.226C25.3773 38.21 27.0431 39.3519 28.6449 39.0123C29.0287 38.9303 29.52 39.0123 29.5549 39.4866C29.6043 40.1659 29.0141 39.7999 28.7089 39.8643C28.2118 39.9668 27.6449 39.6974 27.2088 40.1513C26.6274 40.16 26.043 40.1659 25.4616 40.1747C23.1504 39.9697 20.8363 39.7648 18.5252 39.5598C15.525 38.9859 12.519 38.4442 9.52753 37.8205C8.04198 37.5102 6.58549 37.0505 5.11448 36.6581C5.11739 35.8441 5.93139 36.1691 6.26571 35.8207C6.37909 35.7416 6.50119 35.686 6.63201 35.6391C6.76865 35.6128 6.90819 35.6099 7.04482 35.6245C7.87336 35.7241 8.67864 35.9524 9.51009 36.0227C10.9259 36.377 12.2835 37.0007 13.7807 36.9656C15.0453 36.9304 16.1587 37.5834 17.3855 37.7561C18.1647 37.8645 18.3275 37.4458 18.4467 36.8631C18.9089 36.5527 19.406 36.5732 19.9148 36.6874C20.0514 36.7342 20.1735 36.8104 20.2782 36.9099C20.3305 37.0417 20.3392 37.1793 20.3072 37.3169C20.0281 38.3242 20.6067 38.7868 21.4497 38.9039C22.0021 38.9771 22.569 39.1118 23.1388 39.0005Z" fill="#F2E0C5"/>
<path d="M6.56805 35.7827C6.56805 35.8794 6.56805 35.9731 6.56805 36.0697C5.49532 36.0667 4.42549 36.3713 3.35275 36.0814C3.01843 36.0755 2.6812 36.099 2.34978 36.0638C0.785739 35.8969 0.474673 35.3582 1.07645 33.9527C1.22472 33.6101 1.26832 33.2207 1.36135 32.8547C1.61718 33.2939 2.1114 33.2646 2.50096 33.4403C4.29757 33.247 5.90813 33.9849 7.56811 34.4768C7.75998 34.5325 7.8065 34.7491 7.74254 34.9541C7.196 35.3992 6.57096 35.3025 5.94883 35.2147C5.25693 35.244 4.67259 34.8604 4.12605 34.7521C4.79469 35.244 5.93139 34.9248 6.56805 35.7827Z" fill="#F3E2C7"/>
<path d="M3.35275 36.0814C4.42258 35.7798 5.49532 35.7739 6.56805 36.0697C6.22792 36.6289 5.45474 36.0988 5.1146 36.6552C4.47212 36.6405 3.87894 36.4679 3.35275 36.0814Z" fill="#F0DCBE"/>
<path d="M9.17876 1.51604C10.7544 0.201349 12.647 0.760605 14.4203 0.614202C18.4235 0.965568 22.4179 1.40185 26.3338 2.36224C26.5257 2.37688 26.7205 2.39445 26.9124 2.40909C26.5402 3.45733 25.6623 3.09718 24.9936 3.00641C23.575 2.81609 22.1708 2.50865 20.7289 2.45301C20.1009 2.42959 19.4904 2.41788 18.8828 2.5877C18.5514 2.64041 18.2491 2.57013 17.9787 2.37396C16.4699 1.60681 14.8012 1.84398 13.2081 1.62438C12.6092 1.53946 12.1208 1.88204 11.583 2.04602C11.4405 2.07237 11.2981 2.07822 11.1556 2.07237C10.7079 1.98745 10.2602 1.93475 9.79507 1.97867C9.50145 2.00502 9.10608 2.04309 9.17876 1.51604Z" fill="#F5E6D1"/>
<path d="M12.9611 1.23813C14.4466 1.33768 15.9351 1.43723 17.4206 1.53972C17.7956 1.56607 18.0398 1.78274 18.191 2.11654C18.0689 2.2483 17.9352 2.38885 18.1736 2.52061C18.3945 2.64359 18.6009 2.56453 18.7783 2.40349C20.2115 1.39331 21.7028 2.27465 23.1622 2.28637C24.4094 2.29515 25.6304 3.16478 26.9095 2.40934C27.3195 2.43277 27.7701 2.27758 28.084 2.69336C28.5056 3.29947 29.3283 3.10915 29.8225 3.5747C31.4854 3.38731 33.1134 3.86458 34.7647 3.86751C34.8664 3.97877 34.9391 4.10761 34.9769 4.25401C35.003 4.4824 34.9565 4.69322 34.8257 4.88354C34.4565 5.29639 33.9826 5.39595 33.5204 5.15585C32.6017 4.67565 31.8604 5.00652 31.1336 5.55992C30.1714 5.90835 29.2789 5.45744 28.3573 5.32567C24.9123 4.66394 21.415 4.34771 17.973 3.6684C17.2026 3.63912 16.4729 3.32289 15.6938 3.3551C15.1123 3.27019 14.5425 3.1355 13.9989 2.91297C13.8826 2.84269 13.7925 2.74607 13.7402 2.62309C13.7285 2.33907 13.7751 2.02284 13.371 1.94964C13.0919 1.79446 12.7983 1.64805 12.9611 1.23813Z" fill="#EFDBBF"/>
<path d="M29.8224 3.57168C29.1363 3.45748 28.4503 3.34915 27.77 3.22324C27.5926 3.19103 27.3543 3.02999 27.4676 2.8748C27.5723 2.73719 27.8717 2.74597 28.0869 2.69034C28.6043 2.64349 29.1014 2.69326 29.5346 3.02121C29.6305 3.20567 29.7265 3.39014 29.8224 3.57168Z" fill="#F8E7CE"/>
<path d="M32.4329 3.01245C31.9474 3.41067 31.4649 3.42238 30.9881 2.99781C31.4707 3.00074 31.9533 3.0066 32.4329 3.01245Z" fill="#EFDBBF"/>
<path d="M9.17876 1.51604C9.8067 1.99038 10.6235 1.1647 11.2224 1.82058C11.1991 2.5643 10.5625 2.44718 10.1293 2.61701C9.12053 2.78098 8.06814 3.51006 7.14948 2.40326C7.24542 2.30371 7.34426 2.20415 7.4402 2.1046C8.01872 1.90549 8.60023 1.70929 9.17876 1.51604Z" fill="#EFDCC6"/>
<path d="M7.14955 2.40034C8.11763 3.02987 9.08571 2.34178 10.0567 2.40034C10.4579 2.83077 11.0451 2.59359 11.5074 2.80734C12.6237 2.97424 13.7924 2.78684 14.8564 3.30218C15.1878 3.57156 15.9582 3.47201 15.7896 4.13374C15.6733 4.58173 15.0832 4.52025 14.6616 4.5466C14.3302 4.56709 13.9959 4.56124 13.6616 4.56124C13.2604 4.57588 12.8679 4.52903 12.4754 4.44704C11.8242 4.20987 11.1382 4.26551 10.4666 4.23037C10.3154 4.22451 10.1672 4.20402 10.0218 4.17181C9.17002 3.77945 8.07984 3.91707 7.46062 3.00645C7.26002 3.00059 7.05943 2.99181 6.85593 2.98595C6.87046 2.74585 6.90826 2.52332 7.14955 2.40034Z" fill="#F5E8D4"/>
<path d="M37.6717 26.4072C37.4915 25.6576 37.227 24.9168 37.4857 23.9857C37.7183 24.624 37.913 25.154 38.1078 25.681C38.2299 25.6781 38.352 25.6781 38.4741 25.6752C38.4741 24.624 38.5264 23.5699 38.4392 22.5275C38.416 22.2435 38.2212 21.9595 38.541 21.816C38.8695 21.6667 39.0672 21.9097 39.1399 22.2406C39.3492 23.1981 41.0121 23.567 40.1603 24.9139C39.8114 24.7558 40.1515 24.2902 39.8841 24.0501C39.2823 25.9006 39.3899 26.088 40.8725 25.8187C40.9248 26.5185 41.0993 27.227 40.7446 27.9034C40.1312 27.6428 40.5498 27.0309 40.294 26.5741C38.8346 27.1275 39.041 28.653 38.5323 29.7627C38.1892 28.9809 38.8811 28.2577 38.3607 27.4818C37.8055 28.4188 37.9712 29.6134 37.1892 30.4128C37.0293 30.5767 37.1397 30.8754 37.3461 31.054C38.2706 31.8475 37.7648 32.4331 37.0641 33.089C36.9566 32.5385 37.2473 32.0495 36.9769 31.6045C36.474 31.5928 36.567 32.2603 36.1368 32.3072C35.4623 32.1315 36.1339 29.8535 37.4305 28.2928C36.5874 28.6003 35.9478 28.5271 35.3577 28.164C34.9187 26.4775 35.2297 24.8056 35.4623 23.1336C35.4885 22.9433 35.7123 22.8672 35.9216 22.8818C35.942 23.7573 35.9653 24.6328 35.9914 25.5083C35.9914 25.5288 36.0583 25.5639 36.0932 25.5639C36.1368 25.5639 36.1804 25.5346 36.2211 25.5171C36.4042 25.3502 36.5903 25.3502 36.7822 25.4995C37.0031 25.8831 37.0903 26.3925 37.6717 26.4072C37.7502 26.5214 37.6979 26.6619 37.7473 26.7849C37.7473 26.6531 37.7677 26.5185 37.6717 26.4072Z" fill="#E6CFAF"/>
<path d="M38.2559 13.5272C39.0001 15.609 38.0175 17.5064 37.5872 19.4506C37.4593 20.0245 37.2645 20.6277 37.3692 21.1577C37.6337 22.4724 36.9913 22.7007 35.9389 22.61C35.5726 22.4811 35.3051 22.2381 35.1336 21.8867C34.9592 21.4446 34.9679 20.982 34.9679 20.5194C34.9795 20.1182 35.0028 19.7171 35.2731 19.3862C35.4185 19.2925 35.5639 19.2954 35.7092 19.3891C36.0639 19.8723 35.872 20.3729 35.7644 20.8004C35.7237 21.064 36.0784 20.7975 35.8982 20.8678C35.8604 20.8824 35.8488 20.8414 35.8517 20.7507C35.9592 18.5341 36.1511 16.3264 36.4156 14.1216C36.468 13.6912 36.4389 13.2402 36.8168 12.9269C37.0901 12.6605 37.157 13.6472 37.6163 13.0177C37.8634 12.681 38.3053 12.9943 38.2559 13.5272Z" fill="#E2CAAB"/>
<path d="M38.2559 13.5272C38.0873 13.2285 37.9333 12.8858 37.5263 13.2694C36.7559 13.9985 37.2733 12.9971 37.0873 12.9385C36.6018 12.3763 36.6657 11.7497 36.8663 11.1056C37.785 10.4321 37.9129 11.4833 38.3751 11.8054C38.9101 12.6603 39.5932 13.4041 40.2299 14.1829C41.2532 15.1199 42.4015 15.8197 43.7563 16.1506C44.0005 16.2735 44.0615 16.4961 44.0703 16.7479C43.7272 17.1637 44.1546 17.5326 44.1691 18.0714C43.4394 17.1461 42.5091 17.108 41.7329 17.5414C40.9451 17.9806 42.1632 18.5545 41.8172 19.2543C41.166 18.7272 40.8462 18.1153 40.8753 17.2925C40.9044 16.4932 41.6224 16.9968 41.9335 16.7333C41.7329 15.8812 41.1486 16.0334 40.5788 16.1594C40.3055 16.2413 40.2125 16.1359 40.2881 15.8665C40.5671 15.603 40.3142 15.3571 40.1543 15.319C39.1746 15.0789 38.7443 14.2768 38.2559 13.5272Z" fill="#EEDBC1"/>
<path d="M35.3576 22.0209C35.7472 22.0209 35.9187 22.2347 35.939 22.6065C35.9303 22.7002 35.9245 22.791 35.9216 22.8847C35.3373 24.6035 35.8489 26.4393 35.3576 28.1669C35.3867 30.7084 34.8605 33.2266 35.0582 35.7739C35.0407 36.0111 34.9942 36.2337 34.7704 36.3654C34.6279 35.5924 35.0495 34.7521 34.4884 34.0318C34.4884 32.6644 34.4913 31.2998 34.4913 29.9324L34.4855 29.9296C34.7384 28.0527 34.5407 26.1612 34.6919 24.2814C34.7006 24.1174 34.7297 23.9593 34.7675 23.8012C35.0378 23.2361 34.8256 22.5011 35.3576 22.0209Z" fill="#CEB595"/>
<path d="M40.8696 25.8219C40.9015 24.9347 41.8464 24.6799 42.169 23.9011C41.6574 23.9274 41.076 24.0885 40.9655 23.3418C40.9248 23.0695 41.1021 22.7094 41.2388 22.7709C41.7533 22.9992 42.39 22.0154 42.7999 22.9583C43.0034 23.4267 43.736 23.4443 43.7767 24.0709C43.6546 24.229 43.6546 24.4398 43.5499 24.6067C42.8726 25.327 43.0848 26.3255 42.7621 27.1571C42.7127 27.201 42.6662 27.2449 42.6167 27.2888C41.9714 27.2713 42.1254 27.8832 41.9045 28.2317C41.5585 27.6988 41.4045 27.1805 41.7824 26.6212C42.0324 26.2523 42.0353 25.8453 41.7184 25.5701C41.3928 25.289 41.2242 25.9566 40.8696 25.8219Z" fill="#E6CFAF"/>
<path d="M42.3231 35.484C42.0033 35.5484 41.6312 35.5308 41.3753 35.6977C40.4538 36.2892 39.6281 36.2013 38.8345 35.484C38.7008 35.0096 39.0525 34.8749 39.3636 34.711C41.0352 34.5851 42.2853 33.4285 43.7766 32.8604C44.236 32.3802 44.4714 32.7609 44.5848 33.1357C44.7389 33.6452 44.6023 34.1019 44.0237 34.2776C43.3202 34.4914 42.6748 34.7754 42.3231 35.484Z" fill="#E6CEAE"/>
<path d="M43.7738 32.8605C42.5353 34.0054 41.2184 34.9775 39.416 34.8985C39.509 34.1167 39.7503 33.4374 40.5672 33.1387C40.9597 34.3041 41.3085 33.2588 41.6428 33.1006C42.3348 32.7698 42.9191 31.6864 43.7738 32.8605Z" fill="#DDC2A1"/>
<path d="M40.2939 16.7505C41.2533 18.4692 40.1078 20.1704 40.2445 21.8833C40.259 22.0766 40.0526 22.2435 39.8433 22.1351C39.6892 22.0561 39.4654 21.8365 39.4915 21.734C39.7299 20.7619 39.1834 19.7371 39.7096 18.7942C40.102 18.1735 39.7619 17.3331 40.2939 16.7505Z" fill="#E3CBAC"/>
<path d="M43.4831 24.3606C43.579 24.261 43.6779 24.1644 43.7738 24.0648C44.3668 25.2097 43.5121 26.2638 43.5325 27.3882C43.5383 27.6868 43.5121 28.1026 43.3697 28.6092C43.0208 28.1436 42.6197 27.8508 42.6138 27.2857C43.1807 26.3956 42.6458 25.1716 43.4831 24.3606Z" fill="#E6CEAF"/>
<path d="M40.57 33.1389C40.1863 33.7245 39.8025 34.3131 39.4188 34.8987C39.224 35.0919 39.0292 35.2881 38.8345 35.4814C38.6397 35.6746 38.4449 35.8679 38.2501 36.0611C38.035 36.1109 37.8693 36.3715 37.4332 36.1138C38.817 35.1827 39.3113 33.564 40.573 32.5773C40.5672 32.7647 40.5671 32.9515 40.57 33.1389Z" fill="#D3B794"/>
<path d="M44.0935 31.2591C42.8521 30.0879 43.9307 29.1568 44.1923 28.1847C44.3348 29.1802 44.5325 30.1816 44.0935 31.2591Z" fill="#E6CEAF"/>
<path d="M43.7768 22.3113C44.5879 22.4841 44.4453 23.2332 44.6488 23.7749C44.6488 24.5684 44.6488 25.359 44.6488 26.1525C44.5035 26.17 44.3552 26.1847 44.2099 26.2022C44.4919 24.8202 44.303 23.5352 43.7768 22.3113Z" fill="#E6CEAF"/>
<path d="M40.2939 16.7505C40.2823 17.4854 40.384 18.2527 39.7067 18.7944C39.4625 18.2088 39.7241 17.6232 39.7038 17.0375C39.5235 16.8443 39.5439 16.651 39.7038 16.4578C39.8171 16.1767 40.009 15.9778 40.2881 15.8665C40.384 15.9632 40.4828 16.0627 40.5788 16.1594C40.4828 16.3585 40.3869 16.5543 40.2939 16.7505Z" fill="#F0DDC2"/>
<path d="M36.7849 25.5058C36.5988 25.5117 36.4099 25.5175 36.2238 25.5234C36.2645 25.1691 36.122 24.604 36.6279 24.6332C36.9506 24.6508 36.75 25.1954 36.7849 25.5058Z" fill="#D2B794"/>
<path d="M39.7038 16.4578C39.7038 16.651 39.7038 16.8443 39.7038 17.0375C39.4741 17.1781 39.2445 17.3214 38.9044 17.5322C38.9451 16.8998 39.3229 16.6803 39.7038 16.4578Z" fill="#E3CBAC"/>
<path d="M43.1922 21.6553C43.0731 21.7373 42.9597 21.8749 42.8841 21.8574C42.7911 21.834 42.6748 21.6846 42.6661 21.5821C42.6486 21.383 42.7678 21.2161 42.9887 21.2864C43.076 21.3157 43.1108 21.5031 43.1922 21.6553Z" fill="#DDC3A4"/>
<path d="M7.43721 12.0631C7.41396 11.4307 7.39942 10.8041 8.31808 10.889C8.89951 10.9856 9.48094 11.0822 10.0624 11.1789C10.67 10.9768 11.2688 11.2052 11.8735 11.2228C13.7341 11.5068 15.5133 12.1773 17.3913 12.3794C20.8682 12.9562 24.3713 13.2343 27.8861 13.3983C29.3309 13.4334 30.7758 13.3807 32.2177 13.4247C33.7672 13.4715 34.0928 13.8697 33.7905 15.4187C33.2236 18.3233 32.7294 21.2338 32.5608 24.194C32.5608 24.5424 32.5957 24.8909 32.555 25.2393C32.5288 25.7576 32.5666 26.2963 32.148 26.7033C31.709 27.7106 31.3427 27.1396 30.8659 26.1734C30.8688 27.5408 30.3019 28.4836 31.3863 29.2185C31.7119 29.4411 31.5404 29.9476 31.5665 30.3312C31.6654 31.7776 31.3776 33.2358 31.7991 34.6793C31.9939 35.3411 30.2961 37.1769 29.5693 37.2238C29.4763 37.2296 29.3629 37.2326 29.2873 37.1887C28.3309 36.6382 28.3338 36.6353 27.1884 37.256C26.5314 37.417 25.8743 37.6074 25.1854 37.5254C24.6824 37.215 24.0952 37.5166 23.5777 37.3028C22.4701 37.0627 21.2694 37.7684 20.2228 36.9544H20.2199C19.9816 36.688 20.7519 36.1931 20.031 36.0496C19.403 35.9267 18.3972 35.546 18.2024 36.0262C17.746 37.1564 16.9639 36.6792 16.336 36.6499C15.583 36.6148 14.8359 36.4186 14.0684 36.4566C13.5626 36.4274 13.0538 36.401 12.6875 35.9706C13.0364 35.0248 12.4084 34.7379 11.702 34.6295C10.8647 34.5007 10.1845 34.123 9.48385 33.6691C8.66984 33.1421 8.83846 32.7527 9.43733 32.2608C9.93155 31.561 10.4141 30.8553 10.9607 30.1965C11.3822 29.6899 11.8648 29.3327 12.5567 29.7251C14.2312 30.6181 15.7284 30.0325 17.1878 29.1541C17.839 29.2361 18.4175 29.078 18.8943 28.589C18.3884 28.8027 17.9175 29.16 17.3186 29.0165C16.7575 28.8906 16.243 28.6768 15.8389 28.2493C15.7836 28.1147 15.7953 27.9829 15.8621 27.857C16.5482 27.3592 17.4233 27.4119 18.1646 27.043C18.8594 26.6975 18.7983 26.3139 18.3972 25.8103C18.3913 25.579 18.5164 25.4326 18.7053 25.3272C19.8711 25.1632 20.8799 24.5249 21.9293 24.2116C21.5194 24.153 21.1299 23.9568 20.9991 23.4327C21.1473 22.8237 21.7317 22.8793 22.1416 22.6743C22.6125 22.6099 23.0195 22.3728 23.4614 22.1619C22.9875 22.2966 22.598 22.6685 22.0805 22.566C21.8683 22.5162 21.6968 22.4108 21.5921 22.2088C21.5689 22.0682 21.5892 21.9336 21.6444 21.8018C22.223 20.9292 22.8335 20.0801 23.6417 19.228C22.127 18.9323 20.9496 19.8371 19.6385 19.8781C19.4292 19.8078 19.2867 19.679 19.2519 19.4506C19.6792 18.742 20.3072 18.2559 21.0223 17.8665C20.2519 18.1944 19.7228 18.824 19.1472 19.392C18.9001 19.5648 18.6501 19.4769 18.4001 19.4037C18.0483 19.2632 17.7024 19.2515 17.3738 19.4799C16.7546 19.8986 16.3069 20.4403 16.0453 21.1576C15.9057 21.5412 15.8534 22.0507 15.272 22.08C15.022 21.9248 14.894 21.6817 14.7865 21.4211C14.6847 21.1547 14.6731 20.8795 14.7109 20.5984C14.7836 20.2382 14.8737 19.881 14.9871 19.4418C14.7371 19.8751 14.7807 20.3056 14.644 20.6833C14.2254 21.5178 13.3969 22.0946 13.173 23.0491C12.9085 23.5791 13.1759 24.3141 12.5596 24.7123C12.0479 24.8265 11.7194 23.0111 11.0741 24.5717C10.3909 25.7605 10.2513 26.9698 10.9025 28.2259C11.077 28.5597 11.1787 28.9345 11.045 29.3269C10.9025 29.6021 10.6729 29.7544 10.3792 29.8217C7.95759 29.7544 7.80352 29.8598 7.2279 31.274C6.99533 31.8479 7.09126 32.29 7.36453 32.7761C7.48082 32.984 7.54769 33.2504 7.35 33.4495C7.12034 33.6809 6.82671 33.6516 6.54472 33.5462C6.36448 33.4788 6.2104 33.3617 6.05923 33.2358C4.3818 31.8245 4.11435 28.8496 5.50396 27.1015C5.97201 26.9024 6.44006 26.6096 6.91974 27.0723C7.23953 26.2319 5.34407 25.8776 6.2918 25.1661C7.23081 24.4605 6.85578 22.9086 8.18726 22.5192C8.05644 22.077 7.15522 22.0243 7.30058 21.2894C7.42268 20.6657 7.96341 20.37 8.36459 19.9571C8.80357 19.5033 9.41989 19.187 9.7077 18.4433C8.77741 18.3321 8.82102 19.597 8.01864 19.4301C7.6756 19.2866 7.41686 18.9792 7.52152 18.66C7.75991 17.9309 7.52443 17.1784 7.7163 16.461C8.28901 16.4962 8.33261 15.8257 8.75706 15.6617C9.16987 15.2986 9.23674 14.7306 9.77165 14.2474C8.32971 14.0776 7.18429 13.7438 7.43721 12.0631Z" fill="#FAF4E8"/>
<path d="M32.1481 26.7C32.1481 26.214 32.1481 25.725 32.151 25.2389C33.3662 25.3326 33.3633 25.3297 33.6627 23.9799C33.7267 23.6958 33.7674 23.403 33.8837 23.1366C33.9767 22.9258 34.0494 22.6242 34.3401 22.6564C34.6977 22.6945 34.7965 23.0517 34.7616 23.3152C34.6424 24.2229 34.6046 25.1335 34.6105 25.9299C34.9797 25.4585 34.093 24.5069 35.0582 24.0648C35.064 26.0383 34.8692 27.9942 34.4855 29.9326C34.4855 29.2591 34.4855 28.5857 34.4855 27.9034C33.4447 28.1201 33.7587 29.3265 33.0784 29.8037C32.5202 29.4641 32.7935 29.0454 32.9127 28.6589C33.1772 27.7951 33.1627 27.0514 32.1481 26.7Z" fill="#F5E9D6"/>
<path d="M33.4651 36.1344C33.0726 35.3702 33.6977 34.0409 32.154 34.1668C32.1976 33.0688 31.9156 31.8009 32.968 30.4745C32.8342 32.5534 34.0872 34.1756 33.4651 36.1344Z" fill="#F3E6D1"/>
<path d="M23.7173 37.2323C24.2116 37.3113 24.7697 37.0683 25.1913 37.5221C24.7639 37.5251 24.3307 37.5661 23.9063 37.5251C22.4208 37.3816 22.5836 38.0814 23.1388 38.9979C21.7666 39.683 20.598 39.3902 19.6619 38.2073C19.0775 37.4694 19.9584 37.5134 20.2317 37.2381C21.3945 37.0039 22.5574 37.0185 23.7173 37.2323Z" fill="#F0DCBE"/>
<path d="M31.8778 38.6402C31.0028 38.6402 30.1277 38.6402 29.2527 38.6402C29.2527 38.5846 29.2498 38.5319 29.2498 38.4763C30.1277 38.4118 31.0086 38.3474 31.8865 38.283C31.8836 38.4031 31.8807 38.5231 31.8778 38.6402Z" fill="#DEC3A0"/>
<path d="M38.2094 12.0805C37.6716 11.8404 37.6716 11.0849 37.0844 10.8917C36.0727 10.5755 37.2297 9.90788 36.8547 9.48916C36.7733 9.18172 36.6308 8.9182 36.3343 8.76887C36.0291 8.62539 35.7064 8.64296 35.3808 8.6371C34.8313 8.57269 34.1801 8.77765 33.872 8.06906C34.308 7.41025 35.0639 7.7177 35.6366 7.46882C35.8808 7.36633 36.1308 7.27264 36.4012 7.27557C36.7006 7.35755 36.9361 7.57423 37.2326 7.66207C37.407 7.72356 37.564 7.80847 37.6716 7.96658C38.8664 8.47899 39.7851 7.46882 40.8695 7.38097L40.8666 7.37805C40.884 8.00172 39.7589 7.76162 39.9944 8.54926C39.9188 9.33105 39.0176 8.86549 38.9304 9.33105C39.788 9.09974 40.6863 8.48192 41.73 8.2506C41.8288 8.35016 41.9306 8.45264 42.0323 8.55219C42.0556 8.61661 42.0788 8.68102 42.1021 8.74544C41.8841 9.50673 41.3695 10.1333 40.7735 10.5169C39.8752 11.0937 40.8404 11.1406 40.9218 11.4246C40.6224 12.2415 41.0206 13.1434 40.6311 13.9544C39.4159 13.8637 39.1746 12.4963 38.2094 12.0805Z" fill="#E2CAAD"/>
<path d="M37.6718 7.96352C37.4741 7.95473 37.2764 7.94595 37.0788 7.93716C36.8927 7.38376 37.2939 6.89771 37.2503 6.36188C37.916 5.36049 38.9248 4.87443 40.0092 4.49964C40.7796 4.42058 41.5032 4.02841 42.3056 4.17189C42.6777 4.4969 43.0297 4.68996 42.3727 5.2258C40.9365 6.39116 39.2562 7.0851 37.6718 7.96352Z" fill="#C9AF90"/>
<path d="M43.7562 16.1533C42.669 16.7301 42.0177 15.7346 41.2067 15.3862C40.7531 15.1929 40.4072 14.7361 40.0147 14.3994C40.1543 14.1359 40.4101 14.0715 40.6688 14.01C41.916 14.13 42.5236 15.395 43.6603 15.7141C43.701 15.7668 43.7417 15.8195 43.7795 15.8693C43.7737 15.963 43.7649 16.0567 43.7562 16.1533Z" fill="#D5BA9B"/>
<path d="M42.0323 8.55219C42.2097 8.24767 42.3929 7.87562 42.6371 8.50222C43.1575 9.84326 43.6197 11.1989 43.768 12.6425C43.6459 12.7362 43.5209 12.7391 43.393 12.6483C42.9714 12.0012 42.7272 11.2663 42.39 10.5723C42.1807 9.91646 42.1021 9.23442 42.0323 8.55219Z" fill="#E2CAAD"/>
<path d="M43.4919 12.6427C43.5849 12.6456 43.675 12.6427 43.7681 12.6398C43.9367 13.2781 44.0995 13.9164 44.2739 14.5518C44.428 15.1169 44.3553 15.5854 43.7768 15.8665L43.7651 15.8752C43.1169 15.2574 42.9889 14.4581 42.986 13.6148C43.0616 13.2429 43.1634 12.8828 43.4919 12.6427Z" fill="#EAD4B6"/>
<path d="M40.8695 7.38097C41.2154 6.57869 42.1603 6.44666 42.6313 5.52725C42.6226 7.47733 42.4887 7.59765 40.8695 7.38097Z" fill="#E2CAAD"/>
<path d="M41.7328 8.25052C40.9188 9.06452 39.756 9.08794 38.7675 9.68233C38.8402 8.80685 39.692 9.00596 39.9973 8.54918C40.6194 8.71023 41.0031 7.46581 41.7328 8.25052Z" fill="#D2B696"/>
<path d="M40.0089 4.49685C39.317 5.42211 38.0698 5.5773 37.346 6.45864C37.2733 6.97105 36.9855 7.27556 36.4796 7.36926C36.2907 7.47174 36.1017 7.57715 35.9127 7.67963C35.7674 7.76455 35.6162 7.77626 35.4592 7.71477C34.7964 7.63279 34.1394 7.69428 33.4766 7.74405C32.9649 7.78212 32.4154 7.80554 32.0927 7.25214C32.3486 6.59333 32.9445 6.78658 33.43 6.71631C33.9824 6.63432 34.5784 6.87442 35.0755 6.47621C35.0464 5.7969 35.0202 5.1176 35.8372 4.857C35.9418 5.01512 35.779 4.70767 35.9563 4.78673C35.9593 4.78966 35.9912 4.72817 36.0087 4.69596C35.4709 4.8043 35.0987 4.52613 34.7615 4.16013C34.7615 4.0635 34.7615 3.96395 34.7615 3.86732C36.1511 3.86732 37.5407 3.86732 38.9304 3.86732C39.4129 3.86732 39.9333 3.79705 40.0089 4.49685Z" fill="#EEDABE"/>
<path d="M35.6278 8.27121C35.9389 8.26828 36.2674 8.19508 36.4883 8.51131C36.4709 9.14377 36.6046 9.76159 36.6744 10.3853C36.8517 11.4657 36.8197 12.5403 36.6337 13.612C36.5872 13.7437 36.4971 13.8433 36.3779 13.9077C35.9127 14.019 35.3662 13.691 34.9679 14.1771C34.7208 14.4669 34.8051 15.0321 34.2382 15.0496C33.8254 13.2752 32.4212 13.65 31.2206 13.6793C30.0752 13.7086 28.9181 13.4861 27.7843 13.8169C24.2783 13.5651 20.749 13.53 17.3099 12.6516C17.5018 12.4583 17.743 12.5169 17.9727 12.5198C18.1675 12.5198 17.8593 12.2153 17.964 12.3793C17.557 12.5432 17.1645 12.6428 16.9 12.1421C16.8854 11.9986 16.932 11.8756 17.0279 11.7702C17.2517 11.7204 17.6675 11.659 17.6675 11.6209C17.65 11.2754 17.2895 10.7893 17.1762 10.8508C16.0889 11.4511 15.6266 10.4321 15.2458 9.93434C14.676 9.18476 13.7283 9.47464 13.173 8.85975C13.4608 8.31513 13.955 9.16426 14.2457 8.62551C14.362 8.03111 13.6207 8.45861 13.4986 8.02233C13.6585 7.95791 13.8736 7.78809 13.9783 7.84079C15.3883 8.54352 16.7721 9.19647 18.4466 8.91538C19.0338 8.81876 19.4205 9.44243 19.6472 10.0105C19.717 10.4292 19.1588 11.3662 20.3566 10.8537C20.5659 10.7659 20.8799 10.886 20.9903 11.0938C21.3857 11.8346 21.8218 11.4218 22.2637 11.1846C22.2985 10.9065 22.2695 10.5961 22.3858 10.3589C22.4933 10.1422 21.8479 9.7733 22.4613 9.77915C22.8625 9.78208 23.3451 10.028 22.8422 10.599C22.7462 11.454 23.4643 11.1905 23.8481 11.3866C23.7172 11.2051 23.5137 11.1026 23.4265 10.8889C23.8481 9.9929 24.9499 10.6956 25.4615 10.0134C27.1215 10.0515 28.7757 10.3735 30.4386 10.0983C31.1479 10.1539 32.0782 9.44536 32.4445 10.6927C32.555 11.0704 32.7265 10.7454 32.8195 10.6898C33.1945 10.4702 33.5521 10.2242 34.087 9.97826C33.3777 9.92848 32.8573 9.74987 32.6858 9.09399C32.8777 8.36784 33.4794 8.60501 33.9649 8.50838C34.5173 8.40297 35.1162 8.62258 35.6278 8.27121Z" fill="#F3E0C3"/>
<path d="M35.6278 8.27121C34.8342 9.1467 33.5754 8.43827 32.7294 9.13515C32.6742 9.18785 32.6219 9.24348 32.5666 9.29619C32.1451 9.52165 31.6916 9.50408 31.2352 9.47187C29.2874 9.26691 27.3309 9.34596 25.3773 9.35475C24.9848 9.35768 24.6127 9.43966 24.2987 9.13515C22.2608 8.95946 20.1618 8.97703 18.4292 7.65356C17.7344 7.12358 16.9843 7.52179 16.2634 7.32269C15.0685 6.99475 13.7167 7.16457 12.6759 6.35936C12.0218 5.85281 11.3357 5.93187 10.6293 5.90552C10.5566 5.38432 10.9607 5.2672 11.3038 5.09152C12.1992 4.79872 12.9754 5.25549 13.7923 5.48388C15.9843 5.85281 18.089 6.64924 20.3246 6.81321C23.7027 7.4076 27.0983 7.7414 30.5345 7.55108C31.5956 7.49251 32.648 7.61842 33.6917 7.80289C33.7528 7.86438 33.8138 7.92294 33.8749 7.98443C34.4011 8.4617 35.0464 8.16873 35.6278 8.27121Z" fill="#F4E3CB"/>
<path d="M24.3047 9.13788C26.6275 8.71039 28.9503 8.92414 31.2731 9.13788C31.3458 9.19644 31.3807 9.26672 31.3778 9.34284C31.3778 9.42483 31.3661 9.46289 31.3487 9.46289C31.1772 9.77912 30.7731 9.91674 30.6975 10.3091C28.9212 10.7834 27.1651 10.886 25.4615 10.0134C25.04 9.7733 24.2465 10.028 24.3047 9.13788Z" fill="#EED6B3"/>
<path d="M17.034 11.7699C17.034 11.8666 17.034 11.9632 17.034 12.0627C16.0426 12.6542 15.281 11.9749 14.5745 11.4976C13.621 10.8505 12.6732 10.2825 11.5017 10.1976C11.022 9.28696 10.5627 8.3617 9.76609 7.67068C9.73993 7.47451 9.4434 7.27247 9.77191 7.07922C10.1993 6.78641 10.4522 6.98845 10.6324 7.38959C12.4901 9.25768 14.6646 10.6602 17.034 11.7699Z" fill="#F7E7CD"/>
<path d="M11.2311 5.30215C11.0334 5.50419 10.8358 5.70915 10.6381 5.91118C9.89384 6.39138 9.40835 5.87897 8.87925 5.46905C8.26584 4.99763 8.25421 5.01227 8.07397 5.81163C7.60592 5.5686 8.00436 7.32237 7.16129 6.21264C7.62644 5.52748 7.58283 4.83939 7.17001 4.1513C7.26304 4.05468 7.3559 3.95818 7.45184 3.85863C8.44317 3.6156 9.23682 4.23341 10.1177 4.47644C10.5014 4.72825 11.1701 4.60528 11.2311 5.30215Z" fill="#F7EADA"/>
<path d="M22.2668 11.1843C21.447 12.1417 21.4615 12.13 20.8307 11.2692C20.6563 11.032 20.3161 10.9032 20.1068 11.2223C19.6446 11.925 19.537 11.2311 19.3713 11.032C19.0079 10.5957 18.8713 10.1624 19.6504 10.016C20.5312 10.3849 21.2987 11.0086 22.2668 11.1843Z" fill="#F6E7CF"/>
<path d="M10.6324 7.38959C10.3446 7.28711 10.0597 7.18463 9.77191 7.07922C9.77191 6.90061 9.71361 6.59012 9.78047 6.56084C10.5712 6.20948 12.5074 6.69846 13.3621 7.43633C12.4405 7.87261 11.5395 7.44815 10.6324 7.38959Z" fill="#E9D0AD"/>
<path d="M9.76898 7.67067C10.7632 8.13916 11.4377 8.84774 11.5162 10.0102C12.2895 10.9647 12.2982 10.9999 11.7924 11.4918C11.2167 11.3864 10.6411 11.2839 10.0655 11.1785C11.3534 10.8827 11.0859 10.1068 10.6964 9.23132C10.4434 8.66913 9.75444 8.38218 9.76898 7.67067Z" fill="#ECD6B5"/>
<path d="M23.4295 10.8914C23.9121 10.9617 24.3569 11.0993 24.6621 11.5327C23.1242 11.9455 22.662 11.7025 22.848 10.6016C22.9731 10.8358 23.1882 10.8885 23.4295 10.8914Z" fill="#F6E7CF"/>
<path d="M8.27174 6.37078C9.03341 6.69579 9.01016 7.36924 9.24564 8.24765C8.42001 7.65912 8.5392 6.91832 8.27174 6.37078Z" fill="#DBC2A0"/>
<path d="M9.75729 32.5244C10.0625 32.8084 8.47233 32.6444 9.62937 33.3296C10.4637 33.8215 11.2603 34.1348 12.1673 34.3397C12.679 34.4569 13.0336 34.8697 13.3418 35.2914C13.118 35.4524 12.897 35.6134 12.6732 35.7774C10.8794 36.3337 9.31831 35.5724 7.74263 34.8902C5.99544 34.4042 4.24534 33.921 2.49814 33.435C1.9923 31.9797 3.43133 30.9784 3.37028 29.6285C3.37028 29.529 3.37319 29.4323 3.37319 29.3328C3.81508 28.431 3.71624 27.3007 4.59129 26.5658C4.91979 26.2906 4.97503 25.4883 5.57972 25.8074C6.18731 26.1295 6.10882 26.7532 5.696 27.2861C4.33255 29.3972 5.07387 32.5566 7.47518 33.5023C5.8559 31.9739 6.84723 30.7529 7.66705 29.8276C8.29208 29.122 9.45494 29.2186 10.4114 29.6519C10.7196 30.3254 10.141 30.6826 9.86776 31.1394C9.6003 31.5932 9.26598 32.0178 9.75729 32.5244Z" fill="#F9F2E3"/>
<path d="M5.69882 27.2857C5.66103 26.8407 5.80638 26.3575 5.35577 25.7309C5.05343 27.1862 3.55334 27.8362 3.89348 29.4408C3.99232 29.9034 3.58241 29.2856 3.37601 29.3324C3.28298 28.7439 3.60276 28.088 3.08529 27.5727C2.99226 27.5112 2.96029 27.4497 2.98936 27.3853C3.01843 27.3209 3.0475 27.2887 3.07657 27.2887C3.57951 26.3956 3.35275 25.4176 3.35856 24.4777C3.36729 23.2275 3.52718 22.0182 3.95162 20.844C4.72202 20.6244 4.72202 19.8046 5.13774 19.3068C5.27728 19.2805 5.39938 19.3185 5.50985 19.4064C6.1 20.9348 5.4052 22.0211 4.10279 22.9288C5.6087 22.6096 5.6087 21.5087 5.71335 20.4575C5.7715 19.8749 5.8558 19.2951 6.43433 18.9642C6.71923 18.8998 6.94889 19.0082 7.15239 19.1985C7.34426 19.4181 7.45764 19.8544 7.87336 19.4561C7.92279 19.4298 7.97511 19.4064 8.02454 19.3829C8.59143 19.2014 8.51875 18.5982 8.79202 18.2234C8.94029 18.0214 9.10309 17.632 9.44613 17.9189C9.69905 18.1297 10.1729 17.9277 10.2601 18.3903C10.3183 18.7095 10.1497 19.1253 9.9607 19.137C9.17867 19.178 9.12344 19.9949 8.58562 20.3082C7.74254 20.7943 6.84714 21.4267 8.44317 22.1939C8.73388 22.3344 9.06239 22.6214 8.76295 23.002C8.58271 23.2304 8.3356 23.5495 7.99837 23.0196C7.71638 22.5716 7.61754 23.1835 7.63207 23.2245C7.92569 24.1732 7.38496 24.6183 6.68725 25.0897C6.27153 25.3708 5.72789 25.9769 6.96924 25.7602C7.2367 25.7134 7.36171 26.1584 7.25996 26.4454C7.09425 26.9197 7.20181 27.3853 7.2396 27.9445C6.81225 27.3853 6.44886 26.8114 5.69882 27.2857Z" fill="#FBF7ED"/>
<path d="M7.1524 19.3832C6.95762 19.2866 6.76575 19.187 6.57097 19.0904C6.25991 18.3877 6.27153 17.6937 6.62039 17.0056C6.7047 16.8446 6.81808 16.6982 6.90529 16.5371C6.77738 16.6572 6.70761 16.8153 6.61167 16.9617C6.32677 17.3658 6.35584 17.8518 6.23374 18.2969C6.11164 18.742 6.1349 19.3773 5.4052 19.3803C5.30927 19.3803 5.21043 19.3803 5.11449 19.3803C4.80633 19.0436 4.49817 18.7039 4.03594 18.5751C4.10862 17.0554 4.4662 15.6324 5.40811 14.4055C6.08548 13.6237 6.75993 12.842 7.4373 12.0602C7.60301 12.0309 7.95187 11.9196 7.90535 12.0602C7.30939 13.9722 8.74261 13.6647 9.7543 13.817C9.98105 13.8521 10.2107 13.8785 10.9113 13.9693C9.63801 14.3733 9.75139 15.5211 8.89087 15.8666C8.30654 15.6119 8.44899 16.4844 8.0042 16.4493C8.50132 17.4243 7.50707 18.4052 8.01873 19.3803C7.73383 19.7931 7.44312 19.9073 7.1524 19.3832Z" fill="#FBF7EE"/>
<path d="M5.40807 14.4084C5.14352 15.8109 4.34696 17.0612 4.23358 18.5106C4.66675 19.023 4.1173 19.2982 3.96031 19.6671C3.50679 20.0536 3.36144 19.8194 3.42539 19.3597C3.81786 16.5839 4.75396 13.9604 5.70169 11.3427C5.84996 10.9328 6.1552 10.8186 6.49825 10.9591C7.00991 11.167 6.64942 11.5184 6.55058 11.8024C6.23661 12.6984 5.31213 13.325 5.40807 14.4084Z" fill="#F3E5CE"/>
<path d="M3.96031 19.6671C4.05043 19.2806 4.14346 18.8971 4.23358 18.5106C5.36446 17.9396 5.04779 18.859 5.11756 19.3802C5.0507 20.1269 5.42572 21.2278 3.9547 20.8442C3.94017 20.4694 4.22798 20.241 4.36171 19.9395C4.62626 19.3392 4.18707 19.6261 3.96031 19.6671Z" fill="#FAF4E8"/>
<path d="M1.62881 30.7991C1.57357 30.9074 1.51834 31.0187 1.46019 31.1271C1.41949 30.9192 1.37589 30.7113 1.33519 30.5063C1.33519 29.259 1.33519 28.0116 1.33519 26.7643C1.43403 26.7613 1.52997 26.7613 1.62881 26.7584C1.62881 28.1053 1.62881 29.4522 1.62881 30.7991Z" fill="#FEFAF0"/>
<path d="M3.07964 27.2891C3.08255 27.3828 3.08546 27.4794 3.08836 27.5731C3.08836 27.945 3.08836 28.3139 3.08836 28.759C2.55635 27.9509 2.55635 27.9509 3.07964 27.2891Z" fill="#F6E9D3"/>
<path d="M10.048 4.76907C9.18166 4.46748 8.31533 4.16297 7.449 3.86138C7.4519 3.57736 7.45481 3.29334 7.45772 3.00639C8.32405 3.29041 9.18747 3.57443 10.0538 3.85845C10.2893 4.16297 10.3184 4.46748 10.048 4.76907Z" fill="#D6BD9D"/>
<path d="M7.74263 34.8902C9.44622 34.8551 10.9696 35.8184 12.6732 35.7774C13.1209 36.0468 13.6123 36.0997 14.121 36.0733C15.2461 36.2636 16.3508 36.6062 17.5136 36.5184C17.9003 36.4891 18.3044 36.4803 18.4846 36.9488C18.5515 38.1844 17.9904 38.6236 16.7084 38.0585C15.7665 37.6427 14.7751 37.549 13.8245 37.2416C12.3506 37.0689 10.9755 36.3837 9.46957 36.3661C8.55382 36.3778 7.6904 36.1377 6.85023 35.7922C6.71069 35.1627 5.64376 35.7747 5.68156 34.908C6.37346 34.8992 7.05945 34.8961 7.74263 34.8902Z" fill="#F0DCBE"/>
<path d="M18.4875 36.9456C17.0921 36.3542 15.4728 36.8932 14.121 36.0733C15.3769 35.8859 16.5717 36.6236 17.8479 36.2985C17.8625 35.8359 17.156 36.2751 17.2432 35.7715C18.3886 35.3089 19.1707 35.3528 21.2464 36.0321C21.1272 36.5913 20.4382 36.5094 20.2231 36.9515C19.6474 36.9515 19.066 36.9486 18.4875 36.9456Z" fill="#F8EFDE"/>
<path d="M5.69006 34.9017C6.04182 35.3468 6.67268 35.0862 7.05061 35.4405C7.42272 35.7889 7.00409 35.7157 6.85582 35.786L6.71047 35.7772L6.56511 35.7802C5.43132 35.4844 4.28591 35.2297 3.04456 34.4508C4.15799 34.3103 4.8935 34.8139 5.69006 34.9017Z" fill="#D9C09F"/>
<path d="M9.4752 36.3629C11.0276 36.1462 12.4521 36.5796 13.8301 37.2384C12.2544 37.5751 10.9201 36.6967 9.4752 36.3629Z" fill="#E7D0AE"/>
<path d="M23.7173 37.2323C22.5545 37.2352 21.3946 37.2386 20.2318 37.2415C20.2289 37.1449 20.2289 37.0483 20.226 36.9546C21.3888 37.0893 22.5952 36.6408 23.7173 37.2323Z" fill="#F8EFDE"/>
<path d="M11.2195 2.98882C10.8939 2.66674 9.93169 3.62134 10.0567 2.40034C10.4463 2.20709 10.8357 2.01383 11.2224 1.82058C11.3183 1.81765 11.4172 1.81761 11.5132 1.82054C12.647 1.55408 12.647 1.55408 13.5947 2.00207C13.8127 2.04892 13.9494 2.14848 13.8418 2.40029C13.8418 2.49399 13.8447 2.59061 13.8447 2.68431C13.0394 3.39875 12.0801 2.77801 11.2195 2.98882Z" fill="#E8D2B5"/>
<path d="M13.5626 2.09298C12.8795 2.00221 12.1963 1.90851 11.5102 1.81774C11.9608 1.54543 12.3504 1.11501 12.958 1.23799C13.1527 1.43124 13.3475 1.62449 13.5423 1.82067C13.615 1.8763 13.6411 1.93486 13.6237 1.99928C13.6063 2.06077 13.5859 2.09298 13.5626 2.09298Z" fill="#DFC8AA"/>
<path d="M18.7783 2.40349C18.3189 3.29068 17.7433 2.5089 17.1124 2.6553C17.3508 1.89986 17.8509 2.20731 18.191 2.11654C18.3247 2.342 18.5399 2.3947 18.7783 2.40349Z" fill="#E4CDAD"/>
<path d="M17.9059 3.29348C19.1851 2.93626 20.3218 3.60971 21.4672 3.92008C23.7464 4.53497 26.2 3.94058 28.3891 5.02396C28.1391 5.38118 27.7495 5.48951 27.3658 5.60956C26.6477 5.77061 25.9297 5.75011 25.2116 5.62128C23.7318 5.43974 22.2986 5.00932 20.8276 4.76629C20.3072 4.68137 19.7781 4.58768 19.374 4.19532C19.1618 4.16604 19.7316 3.58922 19.0775 3.80296C18.6211 3.95229 18.0484 4.03135 17.9059 3.29348Z" fill="#DDC5A5"/>
<path d="M35.9215 5.0412C35.6947 5.375 34.7935 5.58875 35.7325 6.12751C35.6017 6.25341 35.4738 6.37932 35.343 6.50522C34.7906 6.91515 34.2237 6.87123 33.6423 6.57842C33.369 6.14215 32.9649 5.9811 32.462 5.94011C31.994 5.90205 31.5259 5.79371 31.2672 5.31351C31.709 4.2682 32.5347 4.24477 33.3371 4.70155C33.872 5.00606 34.2761 5.03827 34.7645 4.74254C35.2616 4.41167 35.5959 4.7074 35.9215 5.0412Z" fill="#E8D2B2"/>
<path d="M31.2701 5.31392C31.9358 5.51596 32.6016 5.66529 33.3109 5.63894C33.6917 5.62429 33.9854 5.78827 33.5958 6.22162C32.8458 6.8365 32.0143 6.42951 31.273 6.28896C30.0026 6.04593 28.5781 6.34167 27.4995 5.32856C27.7117 4.98013 28.0693 5.05616 28.3891 5.02396C29.3601 5.0181 30.2817 5.50717 31.2701 5.31392Z" fill="#D2BA99"/>
<path d="M11.2195 2.98882C12.0219 2.2451 13.0016 3.07356 13.8446 2.6812C14.4261 2.78369 15.0046 2.88617 15.586 2.98865C15.8128 3.17312 16.1326 3.33123 15.7895 3.68552C15.4261 3.69138 15.0482 3.81436 14.7081 3.57426C13.6092 3.00036 12.3097 3.62714 11.2195 2.98882Z" fill="#DFC8AA"/>
<path d="M15.8796 3.55989C15.7807 3.36956 15.6819 3.18217 15.583 2.99185C16.3912 2.82788 17.1209 3.26123 17.903 3.29343C18.3797 3.79706 19.0019 3.47205 19.5484 3.5921C19.5833 3.60088 19.6094 3.63894 19.6385 3.6653C19.5426 3.73557 19.4437 3.80584 19.3478 3.87319C18.121 4.58763 16.9756 4.33582 15.8796 3.55989Z" fill="#D5BB98"/>
<path d="M35.9215 5.0412C35.5349 4.94165 35.1511 4.84209 34.7645 4.74254C34.7645 4.54636 34.7645 4.3532 34.7645 4.15702C35.4419 4.29464 36.0902 4.60794 36.878 4.38541C36.6658 4.96516 36.2791 4.97971 35.9215 5.0412Z" fill="#F3E0C5"/>
<path d="M13.5626 2.09298C13.5539 2.00221 13.5482 1.9085 13.5424 1.81773C13.9058 1.51614 14.1761 1.78845 14.275 2.05197C14.3796 2.32721 14.0598 2.36527 13.8389 2.39748C13.7488 2.29793 13.6557 2.19546 13.5626 2.09298Z" fill="#F5E6D1"/>
<path d="M15.8796 3.55989C17.0366 3.65358 18.1706 4.0226 19.3509 3.8762C20.8742 4.54965 22.5371 4.64335 24.1302 5.03571C24.4878 5.12355 24.9006 4.98007 25.1884 5.32265C25.0373 5.69159 24.075 5.25824 24.4093 6.11615C23.9442 6.32404 23.4732 6.24792 22.9965 6.17179C19.9817 5.6828 16.9728 5.17625 13.9494 4.73412C13.7081 4.62285 13.4959 4.49109 13.5337 4.17193C14.1994 4.17193 14.8681 4.17193 15.7489 4.17193C15.2838 3.90841 14.996 3.74444 14.7111 3.5834C15.0977 3.57168 15.49 3.56574 15.8796 3.55989Z" fill="#F0DFC6"/>
<path d="M13.5335 4.16601C13.6352 4.25971 13.737 4.3534 13.8387 4.4471C14.1353 4.79554 14.5132 5.09713 14.4783 5.6271C14.2196 5.89063 13.8184 5.64174 13.5568 5.89355C12.8242 5.52462 12.0771 5.22017 11.2311 5.30215C10.9375 4.89515 10.3182 5.22596 10.0478 4.76626C10.0507 4.46174 10.0536 4.16015 10.0536 3.85564C10.1525 3.85856 10.2484 3.86149 10.3473 3.86442C10.9956 4.25092 11.7543 3.79415 12.4084 4.14258C12.7835 4.15137 13.1585 4.16015 13.5335 4.16601Z" fill="#D1B692"/>
<path d="M12.4084 4.14258C11.7194 4.05767 10.9723 4.42368 10.3473 3.86442C11.0363 3.95812 11.7747 3.65653 12.4084 4.14258Z" fill="#D6BD9D"/>
<path d="M37.6717 26.4072C37.7648 26.5594 37.9072 26.7059 37.9363 26.8699C37.9944 27.2037 37.9392 27.5346 37.5729 27.6898C37.5118 27.7161 37.3868 27.6576 37.3287 27.599C36.9798 27.2681 37.256 27.0222 37.4508 26.7616C37.5351 26.6532 37.5991 26.5272 37.6717 26.4072Z" fill="#EAD4B6"/>
<path d="M34.4738 14.9878C34.5174 14.5837 34.3372 14.124 34.7645 13.8166C35.2442 13.5999 35.7239 13.597 36.2007 13.8224L36.2443 13.8166C36.6193 14.695 36.2414 15.5207 36.0669 16.3581C35.4012 16.1239 35.4012 16.1239 35.5117 15.02C35.6047 17.0638 34.8721 18.9582 34.5872 20.9376C34.5262 20.2671 34.7907 19.6668 34.9477 19.0431C35.0087 18.806 35.1774 18.7298 35.3576 18.885C35.5204 19.0256 35.4942 19.2247 35.3518 19.3945C35.3402 19.7839 35.3314 20.1704 35.3198 20.5599C34.9709 21.6169 35.4186 22.7383 35.0611 23.7924C35.0727 23.8832 35.0698 23.974 35.0523 24.0647C34.4186 24.7411 35.0029 25.6605 34.5058 26.6912C34.5058 25.2506 34.5058 24.1116 34.5058 22.9755C34.1395 23.7309 33.8604 24.4776 33.8779 25.3062C33.8866 25.6547 34.0697 26.1905 33.5377 26.2695C33.1627 26.3252 32.8197 26.0499 32.7034 25.6107C32.6307 25.3326 32.3952 25.2682 32.1481 25.2389C32.1481 24.9461 32.1481 24.6503 32.151 24.3575C32.9359 23.5143 33.2819 22.5246 33.3953 21.3592C33.6075 19.213 33.875 17.0696 34.4738 14.9878Z" fill="#F7EEDD"/>
<path d="M35.9127 16.4434C35.9796 15.5621 35.8722 14.6569 36.2443 13.8166C36.7588 12.581 36.4186 11.2901 36.4971 10.0252C36.5639 9.68844 36.5814 9.30194 37.0989 9.42784C37.9506 9.92561 36.4855 10.3969 37.0844 10.8917C37.0844 11.5739 37.0872 12.2593 37.0872 12.9415C36.5756 14.7481 36.5494 16.622 36.3721 18.4726C36.2849 19.3803 36.1918 20.2675 35.6249 21.1166C35.6249 20.5339 35.6249 19.9542 35.6249 19.3715C35.2005 18.3408 35.2935 17.3658 35.9127 16.4434Z" fill="#D1B797"/>
<path d="M35.9127 16.4434C35.8168 17.4185 35.721 18.3935 35.625 19.3656C35.5349 19.3773 35.4448 19.3861 35.3547 19.3949C35.346 19.348 35.3547 19.2895 35.3285 19.2543C35.282 19.1899 35.2151 19.1431 35.157 19.0875C34.9157 19.8429 34.7151 20.6071 34.6104 21.4035C34.4244 18.9996 35.282 16.7187 35.2384 14.0249C35.9361 14.9618 35.2964 15.8608 35.9127 16.4434Z" fill="#F5E9D6"/>
<path d="M35.0668 23.7929C35.1859 22.7183 34.7586 21.5998 35.3255 20.5603C35.3371 21.0464 35.3487 21.5354 35.3604 22.0214C35.2208 22.607 35.529 23.2659 35.0668 23.7929Z" fill="#F5E9D6"/>
<path d="M40.5816 14.1097C40.4595 14.3439 40.2473 14.3966 40.0118 14.3966C39.3664 13.6587 38.6774 12.956 38.2094 12.0776C39.4246 12.0747 39.6194 13.4655 40.5642 13.8286C40.6572 13.8842 40.6892 13.9457 40.663 14.0101C40.6398 14.0775 40.6107 14.1097 40.5816 14.1097Z" fill="#CBAF8E"/>
<path d="M43.4831 24.3606C42.9075 25.2507 43.6895 26.5478 42.6138 27.2857C42.6662 26.2404 42.3435 25.0809 43.4831 24.3606Z" fill="#EAD4B6"/>
<path d="M30.8456 29.2038C31.0171 30.3721 31.0113 31.1978 30.831 32.0616C30.706 32.6559 30.3979 33.1947 30.8078 33.9648C31.238 34.7759 30.2816 35.4229 29.5955 35.5518C28.9908 35.666 28.5315 35.8827 28.0518 36.196C27.1797 36.7698 26.3046 37.1036 25.2086 36.6849C24.2318 36.3101 23.0748 36.7113 21.9788 36.0349C22.8742 35.6835 23.2201 34.3513 24.508 35.0218C24.758 35.1536 24.8568 34.7466 25.0458 34.6412C26.3191 33.9209 27.5314 32.9605 29.1594 33.6339C29.6653 33.8418 29.9967 33.5168 30.081 33.0073C30.1973 32.2987 30.2758 31.5843 30.3717 30.8493C30.2758 30.864 30.1798 30.8493 30.145 30.8903C29.8077 31.2944 29.9763 32.4363 29.3077 32.1143C28.6303 31.7863 29.6188 31.1363 29.7234 30.5712C29.8019 30.1583 30.3077 29.8304 30.8456 29.2038Z" fill="#F7EEDD"/>
<path d="M34.4738 14.9878C34.686 17.2365 33.8051 19.3623 33.7295 21.5642C33.6859 22.8642 33.5522 23.9213 32.1539 24.3575C32.1742 21.3007 32.7091 18.3023 33.3981 15.3509C33.7237 13.9571 33.3225 13.7522 32.1277 13.8049C30.6857 13.8722 29.2351 13.8195 27.7902 13.8166C29.7002 13.2163 31.6538 13.5853 33.5842 13.597C34.3807 13.6028 33.6133 14.8765 34.4738 14.9878Z" fill="#F5E9D6"/>
<path d="M9.75729 32.5244C8.8677 32.6298 8.69334 32.29 9.17011 31.555C9.58293 30.9197 9.99865 30.2843 10.4144 29.6489C10.5743 29.5405 10.7313 29.4322 10.8911 29.3268C11.4086 28.9198 10.6121 28.466 10.9348 28.0531C11.8389 27.4324 11.6993 26.4925 11.7429 25.573C11.7807 24.7795 11.1848 25.0519 10.8359 24.8996C10.7836 24.6888 10.7981 24.4867 10.9115 24.2993C11.0656 23.8396 11.2109 23.2658 11.8214 23.4034C12.3883 23.5293 12.3186 24.1588 12.4319 24.6126C13.0831 25.1807 12.993 25.9859 13.1006 26.7238C13.1413 27.0283 13.0512 27.3387 13.118 27.6432C13.1355 27.9418 13.2488 28.2141 13.3564 28.4923C13.3651 28.9667 13.0657 29.3034 12.836 29.6752C12.711 29.8304 12.5511 29.927 12.3593 29.9739C11.6674 29.5347 11.4348 30.1789 11.147 30.5449C10.6469 31.1773 10.2166 31.8626 9.75729 32.5244Z" fill="#E5B463"/>
<path d="M11.7924 11.4918C12.1383 10.9149 11.4028 10.5431 11.5162 10.0102C12.6209 9.773 13.4463 10.221 14.2952 10.9238C15.054 11.5533 15.9583 12.0832 17.034 12.0627C17.3043 12.5283 17.8477 12.215 18.2111 12.4727C17.9524 12.7889 17.6064 12.581 17.3157 12.6513C15.397 12.6337 13.6122 11.972 11.7924 11.4918Z" fill="#F1DDBF"/>
<path d="M18.5835 25.7896C19.6272 26.2639 19.6911 26.7412 18.6126 27.2682C17.7404 27.6957 16.8218 27.8597 15.8624 27.8597C15.7955 27.8656 15.7316 27.8714 15.6647 27.8802C14.8042 27.7806 14.2082 27.277 13.7431 26.5801C13.9553 25.7017 14.5774 25.242 15.3653 24.9434C15.7403 24.8585 16.1211 24.8526 16.502 24.8643C17.2898 24.9609 18.0631 25.0898 18.5835 25.7896Z" fill="#E2B467"/>
<path d="M15.3332 21.9418C15.9204 20.9434 16.0193 19.5935 17.3333 19.1192C17.5368 19.1895 17.6967 19.2978 17.6967 19.5438C16.9583 20.5305 16.1181 21.4909 16.8565 22.8583C16.8711 23.0018 16.8565 23.1394 16.7664 23.2595C16.9554 23.3414 17.0251 23.1453 17.1531 23.0867C17.3275 23.0106 17.5019 22.9432 17.6909 22.9169C18.0368 22.9022 18.3653 22.9344 18.5485 23.2946C18.5543 23.8714 17.813 23.6635 17.7083 24.1174C17.8159 24.3458 17.9787 24.5449 17.999 24.7996C17.9758 24.9343 17.9031 25.0338 17.7868 25.1012C17.5281 25.2066 17.2839 25.1041 17.0397 25.0426C16.6414 24.8025 16.1763 24.8494 15.746 24.7469C15.1617 24.5244 14.9553 24.0207 14.8041 23.4703C14.7605 23.2595 14.7634 23.0457 14.807 22.8349C14.9058 22.4982 14.9872 22.1409 15.3332 21.9418Z" fill="#E0B066"/>
<path d="M19.7142 19.7197C20.9352 18.9525 22.3655 18.9584 23.7086 18.6451C23.8685 18.607 24.136 18.6392 24.2086 18.7446C24.2871 18.853 24.2639 19.1897 24.1679 19.2512C23.1126 19.9685 22.7754 21.3359 21.6794 22.0035C21.5893 21.9011 21.5399 21.781 21.5283 21.6463C21.5515 21.3711 21.6881 21.1398 21.819 20.9085C22.0864 20.3668 22.1475 19.9246 21.3218 20.0652C20.8044 20.153 20.2869 20.2936 19.9206 20.724C19.6502 20.9846 19.5863 21.4736 19.095 21.4941C18.8362 21.3477 18.717 21.1076 18.656 20.8294C18.7025 20.1677 19.1211 19.8602 19.7142 19.7197Z" fill="#E1B061"/>
<path d="M21.6825 21.7168C21.6825 21.8134 21.6825 21.9101 21.6796 22.0067L21.7319 22.0799C21.2522 22.7446 20.569 22.8617 19.8306 22.7709C19.3073 22.7065 18.7928 22.6626 18.2811 22.8236C18.034 22.8939 17.7869 22.9671 17.6183 23.1867C17.2694 23.3887 16.9206 23.5937 16.563 23.7987C16.3188 23.4356 16.6705 23.1955 16.7432 22.8997C17.1328 21.752 17.9613 20.7154 17.6154 19.3832C17.5194 19.2953 17.4264 19.2075 17.3305 19.1196C17.7026 18.7127 18.0834 18.7566 18.473 19.0933C19.0864 19.5735 18.4904 20.3114 18.8422 20.8501C18.9207 21.0463 19.0021 21.2425 19.0806 21.4416C19.9062 21.9394 20.8685 21.1254 21.6825 21.7168Z" fill="#DEAD61"/>
<path d="M12.3562 29.974C12.4667 29.854 12.5772 29.7369 12.6876 29.6168C13.7458 29.1893 14.961 29.9447 15.9989 29.1044C15.8768 28.756 15.2576 28.7765 15.2314 28.2933C15.4145 27.9683 15.6704 27.9625 15.9669 28.1177C16.4117 28.3314 16.8594 28.5451 17.3042 28.7618C17.4932 28.9463 17.5048 29.1454 17.3507 29.3591C15.8099 30.5831 14.1761 31.034 12.3562 29.974Z" fill="#DDAC5C"/>
<path d="M21.1242 23.453C21.4992 23.737 21.8015 24.1323 22.4149 24.1879C21.1765 24.7911 20.1648 25.69 18.7665 25.4821C18.4728 25.3152 17.8536 25.6783 17.903 24.9463L17.9059 24.9404C18.1036 24.4837 18.5106 24.5686 18.8857 24.5334C19.4467 24.4837 20.0601 24.5071 20.3102 23.8161C20.3363 23.6902 20.3828 23.573 20.4468 23.4618C20.5456 23.3769 20.659 23.3242 20.7869 23.3037C20.9148 23.3154 21.0282 23.3652 21.1242 23.453Z" fill="#E5B567"/>
<path d="M21.1242 23.453L20.9816 23.4619H20.8392C20.0077 23.2452 19.1181 23.3916 18.3012 23.0519C18.0803 22.9612 17.8157 22.9612 17.9291 22.6098C19.1239 21.8924 20.5574 22.932 21.7319 22.0799C21.8191 22.1648 21.9061 22.2526 21.9933 22.3375C21.6822 22.7357 22.1212 22.7591 22.2811 22.9231C21.8974 23.0988 21.5108 23.2744 21.1242 23.453Z" fill="#F2E3C7"/>
<path d="M10.9492 28.135C11.0393 28.5391 11.5015 28.9608 10.891 29.3297C10.7224 28.1585 9.78924 27.1454 10.1846 25.857C10.3532 25.3036 10.455 24.718 10.9085 24.2993C10.9201 24.5218 10.9347 24.7444 10.9463 24.9669C11.2719 26.021 11.2515 27.078 10.9492 28.135Z" fill="#DFB167"/>
<path d="M12.9291 22.894C13.1122 21.9014 13.839 21.2748 14.467 20.5808C14.6269 20.3846 14.7897 20.3788 14.9525 20.5779C14.9728 20.856 14.9961 21.1342 15.0164 21.4124C14.9932 21.4622 14.9699 21.5119 14.9466 21.5646C14.8071 21.7403 14.6588 21.9072 14.5338 22.0975C14.2983 22.446 13.9902 22.7329 13.7547 23.0814C13.5774 23.3478 13.5018 23.6845 13.2024 23.8602C13.057 23.8749 12.9436 23.8222 12.8535 23.708C12.8244 23.4298 12.7779 23.1516 12.9291 22.894Z" fill="#E1B066"/>
<path d="M17.3507 29.3591C17.3362 29.16 17.3216 28.9609 17.3042 28.7618C18.1676 28.9609 18.8568 27.8505 19.79 28.4479C18.8713 28.4947 18.5833 30.1702 17.3507 29.3591Z" fill="#F4E1BC"/>
<path d="M19.0776 19.3827C19.6125 18.2174 20.694 17.7079 21.8161 17.2394C21.4004 18.3931 20.0544 18.5365 19.3596 19.3857C19.2666 19.4735 19.1735 19.4764 19.0776 19.3827Z" fill="#F0D6A8"/>
<path d="M12.9291 22.894C12.9523 23.1897 12.9725 23.4851 12.9958 23.7808C13.4639 24.3635 13.3737 25.1306 13.6383 25.7924C13.865 26.3487 13.5889 26.8084 12.9347 26.9168C12.487 26.2111 12.708 25.3561 12.4289 24.6153C12.9696 24.1498 12.3738 23.3507 12.9291 22.894Z" fill="#F4E5C2"/>
<path d="M22.2843 22.9232C22.0691 22.8705 21.8569 22.8178 21.6418 22.768C21.761 22.6245 21.8802 22.4811 21.9965 22.3405C22.8977 22.3551 23.5605 21.6407 24.828 21.4182C24.0547 22.5308 23.0488 22.5425 22.2843 22.9232Z" fill="#E6C797"/>
<path d="M15.9668 28.1202C15.7168 28.17 15.4493 28.1787 15.2981 28.4364C14.6266 28.9898 13.9492 28.9898 13.266 28.4628C12.5073 28.3925 12.798 27.9621 12.9637 27.5726C13.0771 27.4907 13.2021 27.4584 13.3416 27.4819C14.1905 27.6019 15.0714 27.5316 15.8883 27.8801L15.8621 27.8625C15.8883 27.9504 15.9261 28.0353 15.9668 28.1202Z" fill="#E2B467"/>
<path d="M14.9522 20.5748C14.7894 20.5748 14.6295 20.5777 14.4667 20.5777C14.5104 19.7081 14.5947 18.8619 15.7401 18.569C15.8796 19.4211 14.8738 19.8076 14.9522 20.5748Z" fill="#E8C790"/>
<path d="M12.6587 20.9492C12.6151 21.7339 12.2895 22.3254 11.6383 22.9022C11.2429 21.6988 12.1412 21.4206 12.6587 20.9492Z" fill="#E5C693"/>
<path d="M19.0776 19.3827C19.1706 19.3798 19.2666 19.3798 19.3596 19.3857C19.4759 19.4969 19.595 19.6117 19.7113 19.7229C19.441 20.1153 18.9613 20.3437 18.8421 20.8531C18.092 20.4022 18.8305 19.6322 18.4729 19.0963C18.6764 19.19 18.877 19.2861 19.0776 19.3827Z" fill="#F8EED4"/>
<path d="M19.973 26.7416C20.3335 26.2556 20.6998 26.0945 21.1504 26.2234C21.2231 26.2439 21.3219 26.5045 21.2812 26.5601C20.9585 26.9964 20.5544 27.1047 19.973 26.7416Z" fill="#EECD98"/>
<path d="M6.10589 31.3407C5.74541 30.4008 5.87913 29.8561 6.87338 29.3262C6.57685 30.105 6.37916 30.6233 6.10589 31.3407Z" fill="#F9F2E3"/>
<path d="M17.903 24.9463C18.1908 25.1249 18.4787 25.3035 18.7665 25.4821C18.7054 25.5846 18.6445 25.6871 18.5835 25.7896C17.8625 25.5934 17.1415 25.4003 16.4206 25.2041C16.499 24.7561 16.7258 24.7034 17.0718 24.9523C17.3479 24.9494 17.624 24.9492 17.903 24.9463Z" fill="#EFC375"/>
<path d="M18.6879 17.0524C18.6618 17.8283 18.2082 18.0304 17.7256 18.5399C17.7634 17.72 17.964 17.313 18.6879 17.0524Z" fill="#EBC793"/>
<path d="M8.00999 16.4522C8.29198 16.2384 8.16116 15.3805 8.89667 15.8695C8.5042 15.9134 8.65537 16.7977 8.00999 16.4522Z" fill="#F0E4D2"/>
<path d="M15.3332 21.9418C15.2576 22.2668 15.365 22.6564 15.0161 22.8877C14.551 22.4075 14.6557 21.9215 15.0045 21.4354L15.0161 21.4062C15.2545 21.5057 15.3361 21.6988 15.3332 21.9418Z" fill="#DCA956"/>
<path d="M40.5816 14.1097C40.5758 14.016 40.5729 13.9223 40.5642 13.8286C40.2095 12.9853 40.1078 12.1712 40.8665 11.4743C40.4275 10.7482 40.9625 10.1333 41.3666 9.8434C42.3753 9.11724 42.3492 10.1421 42.5352 10.7277C42.6486 11.6822 43.5149 12.4611 43.201 13.521C43.3899 14.3057 43.5789 15.0904 43.7679 15.8752C42.3288 15.9747 41.7677 14.4727 40.5816 14.1097Z" fill="#E0C7A8"/>
<path d="M42.3348 10.8944C42.3057 10.4698 42.3697 9.92519 41.8173 9.85785C41.3493 9.80221 41.3115 10.3527 41.1429 10.6689C41.0091 10.9149 40.9568 11.2047 40.8696 11.4771C40.2882 11.4009 39.8085 11.1667 39.3055 10.4815C41.0295 10.7392 41.2299 9.27542 42.0323 8.55219C42.5265 9.15244 42.6313 9.8637 42.6139 10.6104C42.7302 10.909 42.5819 10.95 42.3348 10.8944Z" fill="#ECD6B9"/>
<path d="M37.0989 9.42784C36.8983 9.62695 36.6977 9.82606 36.4971 10.0252C35.686 9.52447 36.2269 9.01782 36.4914 8.5142C37.0496 8.57569 37.1221 8.96814 37.0989 9.42784Z" fill="#C8AC8B"/>
<path d="M36.4796 7.36926C36.7674 7.06475 37.0582 6.76316 37.346 6.45864C37.971 7.08231 37.166 7.44232 37.0788 7.93716C36.6718 7.9723 36.5087 7.74112 36.4796 7.36926Z" fill="#B89B79"/>
<path d="M35.6542 7.65325C35.7414 7.65911 35.8255 7.66792 35.9127 7.67963C35.3051 8.26524 34.5466 7.82308 33.8779 7.98998L33.8983 7.9607C34.3518 7.08521 35.0524 7.65911 35.6542 7.65325Z" fill="#C3A57F"/>
<path d="M38.1251 6.81282C38.8257 5.60061 40.131 5.64746 41.1863 5.17897C40.4828 6.32969 39.1571 6.30627 38.1251 6.81282Z" fill="#D6BFA2"/>
<path d="M42.3348 10.8944C42.4278 10.7977 42.5207 10.7016 42.6137 10.6079C43.1573 11.1759 43.4771 11.8464 43.4945 12.6458C43.4742 12.9649 43.544 13.3134 43.2009 13.5242C43.1137 12.5784 42.2243 11.9016 42.3348 10.8944Z" fill="#EFDCC3"/>
<path d="M35.6542 7.65325C35.0728 7.78502 34.407 7.41901 33.8983 7.9607C29.5317 8.10417 25.1709 8.07201 20.8422 7.36342C20.6154 7.32536 20.4032 7.19652 20.1822 7.11161C20.4323 6.74268 20.8247 6.63727 21.223 6.53771C23.2784 6.6197 25.3105 6.93593 27.3571 7.13211C27.517 7.14675 27.5897 7.39856 27.5809 6.9535C27.5664 6.29469 28.363 6.47623 28.8514 6.39131C29.3194 6.37667 29.7846 6.40888 30.2439 6.50258C30.741 6.6724 31.273 6.68997 31.7789 6.82466C31.9242 6.8803 32.0405 6.97107 32.1306 7.09697C33.2208 7.83484 34.564 6.92417 35.6542 7.65325Z" fill="#D0B594"/>
<path d="M32.1306 7.09984C32.0405 7.09691 31.9503 7.09105 31.8573 7.08227C31.4183 6.73383 30.8398 7.12619 30.395 6.80411C29.9211 6.79532 29.4502 6.78654 28.9763 6.77775C27.514 6.49373 25.9209 6.88609 24.5923 5.91691C24.3947 5.75879 24.1941 5.60068 23.8423 5.32252C24.4034 5.32252 24.796 5.32265 25.1884 5.32265C25.9588 5.32558 26.7291 5.32837 27.4995 5.3313C29.5316 5.62996 31.5637 5.92862 33.5958 6.22728C34.1132 6.72798 34.7615 6.42053 35.3459 6.50837C35.5261 6.93001 35.4069 7.10569 34.936 7.09691C33.9999 7.07641 33.0638 7.09398 32.1306 7.09984Z" fill="#F5E7D2"/>
<path d="M30.7003 10.3118C30.1712 9.53876 30.8457 9.56219 31.2788 9.4275C31.712 9.07613 32.2992 9.50115 32.7294 9.13515C33.3428 9.70026 34.0261 9.89891 34.8866 9.44213C34.0435 10.6192 32.7877 10.9471 31.8341 11.8109C31.4853 11.0555 32.244 10.9413 32.1946 10.4406C31.7324 10.1507 31.1974 10.385 30.7003 10.3118Z" fill="#E8CFAB"/>
<path d="M27.0345 11.2079C27.8252 10.6692 28.5491 11.0322 29.2323 10.9327C28.5753 11.3368 27.9967 12.2562 27.0345 11.2079Z" fill="#F8EAD3"/>
<path d="M16.2722 9.17873C16.3798 9.31634 16.4554 9.4159 16.5339 9.51545C16.435 9.57108 16.3246 9.68528 16.2402 9.66771C16.1414 9.64721 16.0687 9.50959 15.9873 9.42468C16.0716 9.34855 16.1559 9.27535 16.2722 9.17873Z" fill="#F1DDBF"/>
<path d="M36.2007 13.8224C35.721 13.8195 35.2413 13.8195 34.7645 13.8166C35.2442 13.4008 35.7239 13.3686 36.2007 13.8224Z" fill="#F5E9D6"/>
<path d="M21.1009 6.80102C20.8799 7.15238 20.5107 7.06454 20.1851 7.11139C17.8856 7.19338 15.8098 6.05167 13.5568 5.89355C13.7719 5.56561 14.1121 5.63273 14.4232 5.61516C14.5918 5.42777 14.8098 5.34285 15.0511 5.30479C16.8477 5.39849 18.5135 6.12464 20.2753 6.39402C20.5921 6.44087 20.8916 6.52871 21.1009 6.80102Z" fill="#CAB191"/>
<path d="M32.7294 9.13515C32.3224 9.62413 31.7672 9.36015 31.2788 9.4275C31.2788 9.33087 31.276 9.23424 31.2731 9.14055C31.7586 9.13762 32.2439 9.13807 32.7294 9.13515Z" fill="#F3E0C3"/>
<path d="M6.85868 17.0316C6.47784 17.6758 6.9082 18.4374 6.57097 19.0904C5.63778 20.4432 6.11735 22.2201 5.22195 23.5992C4.68704 23.6695 4.93996 23.1102 4.64634 22.8321C4.56203 23.2156 4.49226 23.5377 4.41958 23.8686C3.88176 23.6988 3.76547 22.2494 4.29457 22.1001C5.9342 21.6374 5.16381 20.3315 5.4051 19.3858C6.13189 18.6596 5.74233 17.4386 6.55343 16.7476C6.73658 16.7535 6.76855 16.9233 6.85868 17.0316Z" fill="#FAF4E8"/>
<path d="M7.1524 19.3832C7.44312 19.5647 7.73382 19.5645 8.02454 19.3829C7.99256 19.7489 8.10011 20.2466 7.51287 20.2085C6.96342 20.1734 6.94599 19.8048 7.1524 19.3832Z" fill="#FAF4E8"/>
<path d="M6.85868 17.0316C6.75693 16.935 6.65816 16.8416 6.55641 16.745C6.78317 16.4171 6.81224 15.9398 7.30064 15.7582C7.42565 16.297 6.98659 16.6129 6.85868 17.0316Z" fill="#EFE4D2"/>
<path d="M21.1009 6.80102C20.8073 6.79223 20.5166 6.78354 20.223 6.77476C18.5805 5.95198 16.874 5.42493 15.0105 5.6094C14.8157 5.61232 14.618 5.61223 14.4232 5.61516C14.0889 5.296 13.7225 4.99464 13.8387 4.4471C16.9465 4.57593 19.9643 5.34587 23.0313 5.7558C23.5517 5.82607 24.0632 5.92569 24.5923 5.91691C26.0982 5.96961 27.5374 6.3824 28.9764 6.78061C28.177 6.4761 27.8194 7.42771 27.0345 7.42185C25.0314 7.39843 23.0719 7.06454 21.1009 6.80102Z" fill="#D8BF9F"/>
<path d="M13.266 28.4628C13.9434 28.454 14.6208 28.4452 15.2981 28.4364C15.8389 28.454 16.3332 28.5505 16.5599 29.1713C15.3622 30.1961 14.0424 30.035 12.6905 29.6163C12.6266 29.1039 13.1061 28.8639 13.266 28.4628Z" fill="#F1C982"/>
<path d="M10.9492 28.135C10.641 27.078 10.6207 26.0239 10.9463 24.9669C11.2515 24.8205 11.2369 24.232 11.6177 24.314C12.0364 24.4077 12.1323 24.9113 12.0654 25.2568C11.859 26.2758 12.8069 27.769 10.9492 28.135Z" fill="#F0C681"/>
<path d="M13.214 27.5671C13.1297 27.5701 13.0483 27.5701 12.964 27.5759C12.6558 27.368 12.9696 27.1364 12.9347 26.9168C13.2487 26.5215 13.7285 26.1998 13.2285 25.5819C12.8041 25.0578 12.9609 24.3986 12.9958 23.7808C13.0772 23.7808 13.1587 23.7812 13.2401 23.7841C13.4582 23.9276 13.5367 24.1706 13.6617 24.3785C13.7373 24.4605 13.8216 24.5337 13.9204 24.5864C14.6065 24.5425 14.5513 23.7519 15.0135 23.4884C15.342 23.8193 15.3885 24.3668 15.8624 24.5805C15.8944 24.9817 15.499 25.0198 15.3129 25.2335C14.7024 25.6259 14.1355 26.0592 13.8884 26.7883C14.0164 27.3534 13.8943 27.7048 13.214 27.5671Z" fill="#DCA956"/>
<path d="M17.909 26.1122C18.1125 26.2293 18.316 26.3464 18.9178 26.6919C17.4351 26.5133 16.3071 28.5425 15.2955 26.4021C16.1385 26.039 17.0572 26.3669 17.909 26.1122Z" fill="#ECC074"/>
<path d="M13.214 27.5671C13.5454 27.4003 13.7779 27.1478 13.8884 26.7847C14.7372 26.8111 15.1152 27.7071 15.8856 27.8798C15.0134 27.6192 14.0222 28.4016 13.214 27.5671Z" fill="#F8EED7"/>
<path d="M17.909 26.1114C17.1037 26.8112 16.1821 26.4452 15.2955 26.4013C16.092 25.6224 16.9816 25.6898 17.909 26.1114Z" fill="#F1CF91"/>
<path d="M15.3128 25.2301C15.4959 25.0134 15.6791 24.7967 15.8622 24.5771C16.3768 24.3282 16.8216 24.3165 17.0687 24.949C16.8536 25.0339 16.6355 25.1188 16.4175 25.2037C16.0512 25.2125 15.682 25.2213 15.3128 25.2301Z" fill="#FAF3E2"/>
<path d="M17.6181 19.3828C18.7694 19.6756 17.9118 20.4018 17.8681 20.8703C17.7926 21.6638 17.592 22.4895 16.746 22.8994C15.7779 21.7428 16.0454 20.6712 17.6181 19.3828Z" fill="#EEC176"/>
<path d="M20.5254 23.7692C20.9876 24.2377 20.5777 24.4076 20.2463 24.6096C19.5137 25.0576 18.6734 24.7472 17.9059 24.9404C17.7112 24.6506 17.5136 24.3578 17.3188 24.0679C18.3567 23.6141 19.4323 23.5936 20.5254 23.7692Z" fill="#EFC375"/>
<path d="M15.0133 23.4855C15.0017 24.1413 14.8476 24.7152 14.208 25.0461C13.772 25.2686 13.5946 25.0812 13.5452 24.6537C13.6092 24.074 13.3795 23.4415 14.1005 23.0199C14.5017 22.7857 14.5249 22.2205 14.429 21.7374C14.5453 21.4885 14.7662 21.4446 15.0075 21.4388C15.0104 21.9219 15.0133 22.4079 15.0191 22.8911C15.0133 23.0872 15.0133 23.2864 15.0133 23.4855Z" fill="#EDC37D"/>
<path d="M20.5254 23.7692C19.505 24.3958 18.3828 23.9157 17.3188 24.0679C17.47 23.4179 18.0107 23.5174 18.473 23.4617C19.1561 23.046 19.8335 23.1075 20.5109 23.4793C20.5109 23.5789 20.5167 23.6756 20.5254 23.7692Z" fill="#F3CF8D"/>
<path d="M20.5107 23.4825C19.8334 23.4767 19.1531 23.4708 18.4728 23.465C18.2664 23.1282 17.9263 23.2044 17.6152 23.1897C17.621 22.9438 17.682 22.724 17.9291 22.6098C18.7838 23.295 20.0688 22.4899 20.8421 23.462C20.7317 23.4679 20.6212 23.4767 20.5107 23.4825Z" fill="#E4B876"/>
<path d="M15.7693 24.0096C15.6879 23.8456 15.592 23.7431 15.5978 23.6465C15.6065 23.5264 15.6792 23.3332 15.7577 23.3127C15.9932 23.2571 16.0804 23.4386 16.0426 23.6377C16.0193 23.749 15.8972 23.8427 15.7693 24.0096Z" fill="#FBEFD6"/>
<path d="M21.6825 21.7168C21.2231 21.8105 20.7666 21.9657 20.3043 21.9833C19.8421 22.0008 19.1998 22.2673 19.0806 21.4416C19.2695 21.1459 19.4584 20.8472 19.6473 20.5515C20.4788 20.528 21.537 19.5852 21.9759 21.14C21.8771 21.3303 21.7813 21.5236 21.6825 21.7168Z" fill="#EBBC6B"/>
<path d="M21.976 21.137C21.4382 19.9804 20.3131 21.1926 19.6474 20.5484C20.1852 19.7051 21.1736 19.509 21.9033 19.6466C23.133 19.875 22.2987 20.6041 21.976 21.137Z" fill="#EFC87F"/>
<path d="M14.4261 21.7373C14.5772 22.4137 15.4349 23.254 13.9348 23.538C13.6673 23.5878 14.0016 24.3785 13.5452 24.6537C13.3272 24.0681 13.3272 23.4795 13.5452 22.8939C13.8388 22.5074 14.1324 22.1209 14.4261 21.7373Z" fill="#F1D094"/>
<path d="M13.5452 22.8939C13.5452 23.4795 13.5452 24.0681 13.5452 24.6537C13.208 24.4488 13.2692 24.1003 13.2401 23.7841C13.2721 23.462 13.1993 23.1047 13.5452 22.8939Z" fill="#EDC37D"/>
<path d="M30.395 6.80411C30.8892 6.85974 31.4416 6.605 31.8573 7.08227C31.3573 7.04713 30.8165 7.2521 30.395 6.80411Z" fill="#EEDABE"/>
<path d="M15.0105 5.6094C15.2227 5.30195 15.5192 5.17896 15.8826 5.20531C17.185 5.30487 18.3711 5.95196 19.6909 6.00174C20.063 6.01638 20.2055 6.40288 20.22 6.77474C18.4845 6.38824 16.749 5.99883 15.0105 5.6094Z" fill="#DFC6A7"/>
</svg>
