<svg width="48" height="46" viewBox="0 0 48 46" fill="none" xmlns="http://www.w3.org/2000/svg">
<path d="M2.6819 34.3703C-1.32068 26.5408 -0.684273 18.8912 3.53445 11.3765C4.75523 11.3151 3.85866 12.4517 4.34697 12.8565C5.37563 12.8156 5.56776 11.1025 6.74852 11.4787C7.20081 11.6218 7.23683 12.2351 7.10475 12.7216C7.72915 11.9284 7.72115 11.9325 7.21682 10.4606C7.04071 9.94139 7.34891 9.52027 7.6531 9.17274C8.54568 8.15879 9.65439 7.6191 11.0273 7.75402C11.5356 7.86033 11.9199 8.13017 12.124 8.62897C12.164 8.82113 12.156 9.01329 12.108 9.20545C11.4676 10.7795 10.7191 12.3332 11.0313 14.124C11.0833 14.3079 11.1073 14.496 11.1153 14.6841C11.1193 14.8722 11.1033 15.0602 11.0753 15.2442C11.9279 17.2231 10.0827 18.3883 9.70643 19.9951C9.69042 20.6411 9.43425 21.2257 9.24213 21.8267C9.5103 21.3361 9.59836 20.6819 10.3188 20.6084C11.0433 21.0908 11.7758 21.0908 12.5082 20.6533C12.8004 20.637 13.1486 20.6819 13.0886 20.1872C13.1807 19.9337 13.3728 19.7866 13.6089 19.6966C13.8571 19.6271 14.1053 19.623 14.3574 19.6762C14.7857 19.7784 15.0499 20.1259 15.3781 20.3794C15.7263 20.5716 16.0225 20.4285 16.3147 20.2404C17.3834 19.345 18.1519 20.0278 18.9164 20.7555C19.0845 20.9641 19.2206 21.1889 19.3446 21.4261C19.5608 21.8267 19.9891 22.2438 19.6528 22.6935C19.2166 23.2741 18.7122 22.7548 18.2319 22.6199C18.324 23.8833 19.853 24.3248 19.877 25.6209C19.877 25.809 19.841 25.9929 19.7689 26.1688C19.5648 26.4917 19.2726 26.6716 18.9084 26.7248C18.4521 26.6839 18.1879 26.9578 17.9838 27.334C16.5028 29.137 16.4908 29.1493 18.0398 30.6089C19.4087 31.9009 17.8397 31.9908 17.3273 32.5141C17.0992 32.9884 17.0992 32.9884 17.6956 32.7676C17.8157 32.7227 17.9357 32.6859 18.0558 32.645C18.9204 32.2361 19.7689 32.0808 20.7095 32.4773C22.0664 33.0457 23.4033 32.2279 24.7641 32.2934C25.8568 32.2893 26.9616 32.4651 28.0102 31.9785C28.2984 31.9172 28.5866 31.9172 28.8708 32.0072C29.155 32.1421 29.3391 32.3465 29.3191 32.6859C28.8388 33.6058 27.5099 33.5731 27.1777 34.6892C27.1056 34.9264 26.6854 35.0777 26.4852 34.9182C24.4719 33.3278 23.6754 36.4473 21.9743 36.1243C21.5421 36.0425 21.7342 36.431 21.8463 36.6476C22.5587 38.0337 21.3259 38.7369 20.7896 39.6609C20.5054 40.1515 19.7449 40.2128 19.7689 39.6364C19.841 37.9437 18.6482 38.8759 18.0478 38.6551C17.7356 38.5406 17.4394 38.0541 16.9511 38.4957C17.2633 39.5505 19.4247 38.3485 19.0204 40.1474C18.7763 41.2227 17.8837 41.3454 16.9551 41.2513C16.3147 41.1287 15.7944 40.7076 15.19 40.4868C15.0179 40.4173 14.8577 40.3314 14.7057 40.2292C14.4095 40.0125 14.1693 39.7345 13.9091 39.4769C13.5329 39.1948 13.1406 38.9822 12.6483 39.1008C10.7991 39.5423 9.68641 38.6101 8.92192 37.0156C8.71779 36.6926 8.54568 36.3533 8.44161 35.9853C8.30152 35.0981 8.05736 34.3417 7.21282 33.7979C6.20417 33.1479 5.52773 32.138 5.08345 30.9769C5.4837 32.0971 6.19216 32.9762 7.04071 33.753C7.34891 34.0351 7.92128 34.2722 7.45297 34.8814C5.38364 35.5805 5.04742 35.4252 4.391 33.4627C4.10281 32.6041 3.67454 31.815 3.36234 30.9687C3.85465 32.0971 4.35498 33.2215 4.59913 34.4398C4.76324 35.2453 4.6992 35.9444 3.62651 35.9281L3.6145 35.8994C3.26227 35.417 3.51844 34.5461 2.6819 34.3703Z" fill="#F5C463"/>
<path d="M16.7751 40.8578C17.2354 40.8087 17.7117 40.8251 18.148 40.6983C18.5523 40.5798 18.8244 40.2159 18.7124 39.7539C18.5603 39.1324 18.128 39.4227 17.7638 39.5086C17.2434 39.6353 16.627 39.8152 16.2628 39.3696C15.9226 38.9525 16.4069 38.4987 16.567 38.0735C16.7831 37.4888 17.0193 37.4193 17.5316 37.8813C18.3601 38.6254 19.1887 38.5396 19.8491 37.2803C20.0212 38.2534 19.613 39.0302 20.1653 39.6476C21.7743 37.452 21.7743 37.452 20.4055 35.2483C22.2026 35.927 23.5795 35.6326 24.4241 33.985C24.5962 33.6456 24.9644 33.6456 25.0885 33.7397C26.9057 35.1052 27.7462 32.6112 29.2151 32.6766C30.0197 31.7363 30.7641 32.2024 31.5046 32.7748C31.6407 32.9138 31.7208 33.0773 31.7488 33.2736C31.3205 34.5001 31.8889 35.6899 31.9049 36.9001C32.037 37.2926 32.117 37.6973 32.073 38.1021C31.9529 39.1365 32.101 39.8643 33.2738 40.2731C34.4986 40.6983 34.4665 41.5365 33.2578 42.5668C34.4465 41.6591 35.5793 41.1481 36.1156 39.942C36.2357 39.5004 36.3077 39.0506 36.4118 38.605C36.5719 38.0408 36.812 37.5461 37.4765 37.4766C37.6046 37.6074 37.7807 37.6278 37.9448 37.6687C37.8047 37.591 37.6206 37.6319 37.5005 37.4766C36.9521 36.3073 37.9488 35.7062 38.3851 34.9008C38.7853 34.3284 39.2216 33.7969 39.846 33.4616C40.3343 33.065 40.5625 32.5703 40.6745 31.9162C40.8426 30.9145 41.451 30.9799 42.1075 31.5359C42.2475 31.8262 42.1515 32.186 42.3676 32.4967C43.012 32.1329 42.88 31.1353 43.6444 30.9022C43.8366 30.8859 44.0087 30.9349 44.1528 31.0658C44.469 32.9342 43.7045 34.3652 42.4157 35.5836C43.5684 34.6228 44.1648 33.4003 44.2689 31.8589C44.3529 30.6119 44.9453 29.5244 45.6017 28.4859C45.6537 28.4082 45.8058 28.3346 45.6898 28.1997C44.7011 27.9462 43.6204 27.8685 43.1681 26.6624C43.7645 28.1547 43.2802 29.0501 41.8433 29.4263C40.9347 29.6634 41.443 30.661 40.9027 31.1189C40.5264 31.4378 40.6945 32.0102 40.5585 32.4518C40.4104 32.926 40.1142 33.3267 39.5578 33.2C38.9975 33.0732 39.2056 32.5744 39.2176 32.2024C39.2336 31.7894 39.1015 31.4051 39.0535 31.0249C39.0575 30.8695 38.9254 30.7632 38.9014 30.8204C38.7213 31.2824 38.9734 31.7036 39.0695 32.141C38.9454 33.1223 38.4011 33.5107 37.4605 33.3349C37.2763 33.2531 37.1523 33.1141 37.0722 32.926C37.0122 32.4395 37.1483 31.9693 37.1843 31.4869C37.2003 31.2988 37.2363 31.1148 37.2803 30.9308C37.6446 29.5285 38.7733 28.6903 39.6219 27.6477C40.0381 27.1285 39.89 26.5602 39.7499 25.9919C39.7099 25.718 39.7299 25.4522 39.79 25.1824C40.1422 23.78 40.9587 23.551 42.2075 24.0866C43.7805 24.7572 45.0654 24.475 45.7058 22.6597C46.2621 21.9279 46.3622 21.0775 46.3262 20.1862C46.3302 19.9613 46.3622 19.7487 46.4142 19.532C46.5183 19.1968 46.6664 18.8329 47.0146 18.7879C47.3028 18.7511 47.4389 19.0741 47.4149 19.3562C47.2708 20.9794 48.2194 22.5371 47.667 24.1807C47.1827 35.9556 38.5812 45.0853 26.8816 45.3674C24.4961 45.4247 22.1026 45.2243 19.717 45.1426C19.6049 44.5497 20.8658 44.4393 20.2213 43.6707C19.641 42.9756 19.1887 42.1089 18.0519 42.2111C17.3355 42.2765 16.4989 42.8407 15.9226 41.8758C15.9306 41.3034 16.4189 41.1399 16.7751 40.8578Z" fill="#F5C566"/>
<path d="M11.9994 8.96458C11.8474 8.57617 11.5792 8.30224 11.1989 8.14687C11.0508 7.01435 11.8233 6.69545 12.4998 6.38063C11.6072 6.12714 11.0949 5.58746 11.9914 4.58577C12.5998 3.90707 13.4164 3.63723 14.3049 3.58817C14.4891 3.5759 14.6732 3.57999 14.8573 3.59225C16.1901 3.719 17.487 3.80895 18.4556 2.54559C18.8519 2.03044 19.5723 1.83828 20.0767 2.15718C21.0693 2.79499 22.11 2.33708 23.1026 2.5088C23.2787 2.56195 23.4748 2.67234 23.5549 2.37796C23.3908 2.16536 23.0546 1.91596 23.2507 1.70336C23.719 1.19229 24.3154 1.37627 24.8798 1.57661C25.256 1.60932 25.6322 1.64203 26.0085 1.67474C26.6849 2.46382 26.0365 3.33468 26.1566 4.15647C26.0325 5.63243 26.0045 7.13701 25.1759 8.44125C24.3794 9.06679 23.743 8.40445 23.0346 8.18776C22.4822 8.02013 22.0779 7.18607 21.3535 7.77482C21.2254 8.26953 21.2734 8.80104 21.0133 9.25486C20.2888 9.61465 21.0613 10.968 20.0486 10.9843C19.124 10.9966 19 9.88041 18.4116 9.25078C17.547 9.48382 18.1034 11.5199 16.7585 10.8862C15.6178 10.3506 16.2862 9.08723 16.2862 7.97107C14.9093 8.86237 13.5845 9.59421 11.9994 8.96458Z" fill="#F5C566"/>
<path d="M30.8108 2.4351C35.4018 2.60681 39.2242 4.36079 42.0701 8.13041C41.3216 8.76414 40.7452 8.35528 40.1929 7.80742C39.5044 6.62584 38.5678 5.73454 37.323 5.27662C38.0555 5.70592 38.9721 5.97985 39.3363 6.94883C39.2643 7.43536 38.9801 7.57029 38.5398 7.4599C38.0075 6.9938 37.363 6.73214 37.0909 6.52362C37.367 6.60948 37.8594 7.04287 38.4197 7.34133C38.7599 7.78698 39.3043 8.21627 38.5078 8.73143C38.3797 8.75596 38.2516 8.73143 38.1275 8.73961C37.8273 8.76005 37.6953 8.33484 37.363 8.46159C37.5672 8.63739 37.6993 8.85 37.7153 9.1321C36.4224 10.514 34.8774 11.4299 33.0242 11.7692C32.3838 11.5811 32.1237 11.205 32.6 10.6285C32.9842 10.1624 33.3605 9.72494 33.3004 9.08304C32.2958 9.0258 33.1523 9.73312 32.9362 9.99069C31.5273 10.9556 30.6467 10.1706 29.8742 9.0258C29.9343 8.76005 30.0823 8.54336 30.2465 8.30622C29.7541 8.21627 29.4019 8.5638 28.9856 8.68237C28.5494 8.80502 28.1371 9.0258 27.6768 9.06669C27.0724 9.11984 26.6922 8.8132 26.472 8.26125C26.1878 6.78938 26.436 5.40337 27.1445 4.09913C27.929 3.6821 28.5173 4.85142 29.2818 4.38124C29.482 4.52433 29.1417 4.58157 29.3659 4.44665C29.49 4.37306 29.4299 4.26267 29.2578 4.25858C28.8496 3.79249 28.7975 3.2896 29.2058 2.84804C29.598 2.42692 30.0423 2.76627 30.4506 2.90119C30.8749 3.04429 31.1751 3.44496 31.6474 3.49402C32.0396 3.5758 32.4319 3.54718 32.8241 3.47358C32.4159 3.48994 32.0116 3.54309 31.6073 3.41634C31.1751 3.22009 30.6587 3.11379 30.8108 2.4351Z" fill="#F6C86F"/>
<path d="M9.21757 36.7585C10.0701 38.124 10.9227 39.3751 12.8639 38.4961C13.3963 38.2549 14.0007 38.7128 14.3969 39.2198C13.9846 39.784 14.3329 39.9434 14.8132 40.0334C14.9413 40.0334 15.0693 40.0334 15.1934 40.0334C15.6177 40.4422 15.8058 40.9451 15.7818 41.538C16.2141 42.8136 17.1307 42.646 18.1353 42.4211C19.204 42.184 19.6883 43.0712 20.0726 43.7989C20.5089 44.6289 19.6243 44.7229 19.16 45.0173C12.6638 44.3304 7.31234 41.6157 3.62596 35.9244C4.65463 35.4215 4.26237 34.6733 4.05424 33.8638C3.77806 32.7885 2.82145 31.8645 3.32577 30.5603C4.05824 31.1368 4.49052 32.0199 4.56257 32.7763C4.7667 34.9186 6.0115 35.0004 7.58852 34.7224C7.62854 34.8042 7.66457 34.8818 7.7086 34.9636C8.0248 35.72 8.30098 36.5173 9.21757 36.7585Z" fill="#F6C76B"/>
<path d="M14.4176 4.04706C14.0894 4.08795 13.7292 4.05524 13.437 4.18607C12.7885 4.47636 11.7679 4.71349 11.908 5.53937C12.0921 6.6351 13.1568 5.62932 13.9813 6.07088C12.7966 6.58195 11.7038 7.00307 11.1955 8.14377C9.53445 8.0947 8.24162 8.72025 7.4491 10.2943C9.07415 10.0531 9.31431 10.8422 8.09752 12.3304C7.64123 12.8905 7.18493 13.4548 6.72064 14.0272C6.27635 13.5774 6.79668 13.2626 6.77267 12.8987C6.74465 12.5103 6.76466 12.1178 6.76466 11.7049C5.98016 11.7907 5.78803 12.3222 5.52386 12.7802C5.15563 13.4098 4.72735 13.8391 3.91483 13.4875C2.81011 13.0132 3.90282 12.5144 3.8788 12.032C3.86279 11.7294 3.78274 11.5209 3.53458 11.3737C5.92412 7.54684 8.84601 4.34143 13.2048 2.84095C13.477 3.07808 13.8692 2.89818 14.1414 3.13532C14.3896 3.3929 14.6217 3.65047 14.4176 4.04706Z" fill="#F5C76D"/>
<path d="M47.6505 24.1777C47.6825 22.5014 46.9861 20.9028 47.2183 19.1325C47.0301 19.2837 46.89 19.3369 46.862 19.4268C46.806 19.619 46.814 19.8275 46.794 20.0279C45.5011 19.6967 46.2536 18.511 45.8133 17.9264C45.7253 18.1921 46.0215 18.6255 45.8093 19.0221C45.7013 19.2061 45.3811 19.3042 45.3651 19.2265C45.1129 17.9018 44.3924 18.5642 43.772 18.8217C42.2831 19.3246 40.8421 17.8896 41.1824 16.2092C41.2864 15.6899 41.5866 15.232 41.6386 14.676C41.8628 12.231 41.8748 12.231 43.9722 12.8525C43.716 12.276 43.1436 11.908 42.9995 11.307C42.8554 10.6978 42.5112 9.93328 43.5959 9.79836C46.6979 14.075 48.371 18.7727 47.6505 24.1777Z" fill="#F5C66C"/>
<path d="M43.5995 9.79294C42.8631 10.5739 43.2994 11.1871 43.8197 11.8495C44.0879 12.1929 44.8243 12.3483 44.4161 13.0556C43.2153 13.2069 42.683 11.4774 42.0946 11.645C41.0979 11.9312 40.4175 11.9762 39.685 11.2893C39.5569 11.1585 39.4689 11.0031 39.4048 10.8314C39.3648 9.94422 38.112 9.60078 38.4202 8.55412C38.8765 8.14526 38.2841 7.7405 38.4162 7.33165L38.4202 7.32756C38.7404 7.31938 39.0366 7.26214 39.2127 6.93915C39.7411 6.66522 40.0372 7.14358 40.4215 7.33165C40.7417 8.0962 41.3781 8.18615 42.0786 8.12891C42.811 8.46008 43.2553 9.08154 43.5995 9.79294Z" fill="#F6CB79"/>
<path d="M23.2266 3.22852C22.8984 3.25305 22.8144 2.39037 22.3341 2.97094C22.206 3.12222 21.9618 3.40433 21.9578 3.40024C19.3441 1.09431 17.3028 5.35047 14.7892 4.05031C14.8692 2.77061 16.1381 2.90962 16.7785 2.30451C16.9026 2.26363 17.0306 2.2391 17.1627 2.23501C17.1507 2.18595 17.1147 2.22274 17.0947 2.22274C16.6584 2.23501 16.1701 2.4885 15.8539 1.94063C18.8358 1.2047 21.8297 0.73043 24.8757 1.57676C24.4434 1.60538 24.0071 1.63808 23.4348 1.67488C24.2713 2.06738 24.3594 2.18595 24.3834 2.82376C23.863 2.558 23.5628 2.93824 23.2266 3.22852Z" fill="#F5C76D"/>
<path d="M19.1635 45.0105C19.2675 44.5525 20.4403 44.2459 19.4116 43.6531C19.0674 43.4527 18.6552 41.7519 18.0828 43.5263C17.2142 42.9662 15.8614 43.0684 15.6252 41.6456C15.7613 41.5352 15.8854 41.5516 15.9974 41.6824C16.3497 42.1485 16.7819 42.0667 17.2302 41.8623C19.2515 40.9546 20.1681 42.5655 20.9486 43.833C21.7732 45.1617 20.1321 44.6916 19.6958 45.1372C19.5197 45.0963 19.3396 45.0513 19.1635 45.0105Z" fill="#F5C463"/>
<path d="M25.6517 4.04962C25.7718 3.25644 25.8879 2.46327 26.008 1.67009C26.5763 1.22853 26.3882 0.100099 27.3008 0.0224173C28.4135 -0.0716188 29.4382 0.0673912 28.7257 1.68236C28.6697 2.17707 28.8178 2.76582 28.1373 2.96207C27.3408 3.39954 26.8325 4.53206 25.6517 4.04962Z" fill="#AA854F"/>
<path d="M28.0384 2.89345C28.2705 2.48869 28.4987 2.08392 28.7268 1.68325C29.2592 2.40283 30.1037 2.21884 30.8082 2.43554C31.0763 2.70538 31.3405 2.97522 31.6047 3.24098C31.7448 3.33092 31.7928 3.42087 31.7448 3.51082C31.6967 3.60077 31.6527 3.64574 31.6047 3.64574C31.2244 4.12819 30.9843 3.82972 30.6841 3.519C30.3679 3.19191 29.9116 2.76262 29.5033 3.04064C28.8909 3.45358 29.4553 3.98509 29.6034 4.45936L29.5994 4.46344C28.7028 5.71453 28.0904 5.30568 27.6141 4.10774C27.2018 3.50673 27.478 3.14694 28.0384 2.89345Z" fill="#F3C163"/>
<path d="M15.8578 1.93961C16.5743 1.98458 17.2868 2.02955 18.0473 2.07862C17.695 2.64692 17.1827 2.32802 16.7744 2.43841C15.9579 3.06804 15.0693 3.43192 14.0247 3.25202C13.6924 3.23976 13.3842 3.17434 13.2041 2.84317C14.0127 2.30348 14.8732 1.93143 15.8578 1.93961Z" fill="#F5C566"/>
<path d="M2.6819 34.3703C4.62315 33.8429 3.51844 35.2535 3.6145 35.8994C3.3023 35.3884 2.9941 34.8814 2.6819 34.3703Z" fill="#F6C76B"/>
<path d="M18.8167 26.5452C19.0809 26.4062 19.341 26.2713 19.6052 26.1322C20.1616 26.4757 20.6379 26.9213 21.1302 27.3547C21.4304 27.6205 21.7466 27.5264 21.9787 27.2443C22.2189 26.9459 22.5831 26.582 22.311 26.2099C22.1228 25.9523 21.7066 26.2385 21.3904 26.259C21.0181 26.1404 20.6379 25.9074 20.2897 26.3162C20.0335 26.3694 19.8013 26.3244 19.6092 26.1322C19.5772 25.4985 19.3531 24.6604 18.9128 24.5418C17.5479 24.1698 18.0522 22.935 17.4798 22.2032C18.2764 21.9047 18.6886 22.6243 19.4731 22.5262C19.241 21.9538 18.6126 21.5081 18.8087 20.8212C18.8647 20.7804 18.9248 20.7354 18.9808 20.6945C19.1289 20.6863 19.261 20.7231 19.3851 20.7967C19.6292 20.9562 19.9134 21.0298 20.1696 21.1647C20.3617 21.3078 20.4978 21.4918 20.5778 21.7248C20.6179 22.2236 20.902 22.6529 20.9541 23.1476C20.9901 23.4297 20.7139 23.949 21.1782 23.9244C21.8427 23.8917 22.395 23.5892 22.299 22.6652C22.1108 20.8499 22.9994 20.8008 24.2722 21.4959C24.5524 21.9251 24.9286 22.1378 25.473 22.0069C25.0647 21.8393 24.5284 22.0069 24.2842 21.4959C24.4844 19.3003 24.9166 19.055 27.1821 19.8155C28.571 20.2652 28.9833 19.0918 29.6117 18.2782C30.7604 18.6543 31.1487 19.6438 31.4809 20.6863C31.4929 20.9562 31.4448 21.2219 31.3728 21.4795C30.6804 23.949 30.6323 24.0348 28.503 22.8369C27.5383 22.2931 27.2942 23.0209 26.7898 23.3888C26.3416 23.5238 26.1935 23.8713 26.1775 24.3169C25.1528 25.8174 24.0201 27.2402 23.0795 28.798C22.9113 29.0719 22.343 29.3622 22.9834 29.7465C23.5397 30.0491 24.0681 29.7383 24.6084 29.6852C25.3529 30.6296 26.5057 31.5495 24.8086 32.6657C23.5317 33.095 22.1789 33.2422 20.9061 33.0091C19.8934 32.8252 18.9728 32.7352 18.0122 33.0705C17.648 32.9028 17.3518 32.6616 17.2157 32.2609C18.1283 31.5945 18.6206 31.1039 17.0356 30.5847C15.2264 29.9918 16.4952 28.7653 16.7874 27.874C16.9195 27.4651 17.5919 27.2402 18.0162 26.9336C18.2043 26.6638 18.4845 26.5493 18.8167 26.5452Z" fill="#F6C96E"/>
<path d="M26.4287 23.274C27.7015 21.8103 28.378 21.8716 30.4113 23.8014C30.3632 22.6157 30.6955 21.6795 31.2118 20.8168C32.4886 20.7064 32.4886 20.7064 32.1764 22.4522C32.8048 22.7711 33.8975 22.0515 34.1177 23.2004C34.2658 23.9731 33.4012 24.0181 32.9769 24.3697C32.5526 24.9462 32.9209 25.5881 32.8248 26.1932C32.7488 27.1867 32.2084 28.0289 33.169 29.1451C34.2978 30.4616 33.081 33.0374 31.608 33.0742C31.0477 30.2858 31.0477 30.2858 28.2379 31.3611C28.0217 31.6227 27.9497 31.9212 28.0057 32.2565C27.0491 33.3072 25.8964 32.7389 24.8037 32.6653C25.4921 31.5941 25.0958 30.6783 24.4114 29.8074C23.835 29.7625 23.2266 29.5908 22.8104 30.2081C22.7063 29.7911 21.2494 30.4453 22.0859 29.3414C23.4068 27.5996 24.3594 25.5758 26.0044 24.0917C25.7603 23.6215 26.0605 23.4293 26.4287 23.274Z" fill="#F5C566"/>
<path d="M11.9994 8.96458C13.2603 8.42489 14.9613 9.00062 15.8098 7.36929C15.9539 7.09536 16.3542 6.88685 16.6464 7.22211C17.0026 7.62687 17.3308 8.10932 16.8705 8.65309C16.2261 9.41765 16.3542 10.0841 17.0947 10.7955C17.8912 10.1658 16.7304 8.48955 18.1994 8.41596C19.6603 8.34236 18.8438 10.403 20.1046 10.7055C20.9091 10.6442 19.0119 8.89023 20.8011 9.37267C22.286 10.2272 22.8624 11.9362 24.0872 13.036C23.6949 13.4121 23.3107 13.7883 23.2987 14.3975C22.234 15.2315 21.0492 15.0598 20.1967 13.96C20.1286 13.8741 20.1446 13.498 20.0726 13.7065C19.6083 15.0803 17.9072 15.5504 17.8391 16.9692C18.8878 15.5545 18.8878 15.5545 20.8971 17.3903C21.1973 17.8482 21.9658 18.1712 21.4655 18.8785C21.1093 19.3814 20.5809 19.3282 20.0566 19.042C18.7397 18.3225 19.7604 19.3487 19.7764 19.4836C19.8805 20.2727 19.2801 20.4935 18.7998 20.8165C17.9992 20.841 17.1987 19.4345 16.3982 20.8165C15.998 20.4321 15.5977 20.6774 15.1974 20.8165C14.9293 20.5425 14.6651 20.2686 14.3969 19.9988C14.2488 19.6839 14.4129 19.4509 14.5931 19.2219C15.1934 18.6741 15.7298 17.7174 16.6344 18.854C16.3222 18.2448 15.6377 18.1303 15.1934 17.7051C15.3655 17.0836 14.6971 16.8465 14.589 16.3477C14.8132 15.714 14.6891 15.1784 14.1528 14.7573C14.0687 14.4997 14.0647 14.238 14.1167 13.9764C14.1968 13.6534 14.3489 13.3549 14.4089 13.0319C14.1207 12.3696 12.6078 12.574 13.2202 11.282C13.1121 10.8241 14.1488 10.6197 13.4763 10.0432C12.948 9.73655 11.6272 10.5468 11.9994 8.96458Z" fill="#F6C86B"/>
<path d="M12.793 20.819C11.9925 21.236 11.192 22.573 10.3954 20.819C10.2113 20.222 9.8471 19.8991 9.20268 20.0094C9.20268 19.065 9.3828 18.235 10.4475 17.9693C11.1279 17.7976 10.7557 17.266 10.7557 16.9103C10.7597 16.3052 10.0472 15.7001 10.7837 15.0991C11.4561 15.1073 11.8924 14.2773 12.6409 14.5554C13.3413 15.1482 12.9531 15.7369 12.6369 16.3298C12.2446 16.849 11.4361 17.2047 11.9965 18.0837C12.2086 18.2964 12.1766 18.6643 12.4528 18.836C12.4648 18.7134 12.4968 18.5907 12.5448 18.4558C12.9251 17.7853 13.1812 16.9921 14.1339 16.9921C15.1945 18.2268 14.326 19.1018 13.5975 20.0054C13.4614 20.1321 13.3253 20.2588 13.1852 20.3856C13.1652 20.6227 13.0291 20.7699 12.793 20.819Z" fill="#F5C66C"/>
<path d="M12.404 16.2998C12.2679 15.756 13.1484 15.1877 12.3599 14.6644C11.8036 13.3765 11.3553 15.2123 10.8269 14.7176C10.8149 14.5704 10.8069 14.4232 10.7949 14.276C10.1785 12.2644 11.7716 11.7166 12.9483 10.8948C13.3045 10.8825 13.4686 11.1278 13.6007 11.4099C13.2245 12.2931 13.7688 12.3094 14.3452 12.1868C15.486 11.9374 15.3779 12.3544 14.8295 13.0576C14.3612 13.1435 14.4013 13.5155 14.4053 13.8631C14.4053 14.137 14.4053 14.415 14.4053 14.6889C13.9169 15.2818 14.8535 15.9564 14.3092 16.5492C14.2171 16.7087 14.089 16.8272 13.9209 16.9008C13.2165 17.3138 12.6401 17.8044 12.8002 18.7611C12.5721 19.955 12.516 19.9877 12.0597 19.2108C11.8956 18.9328 11.7515 18.6425 11.5994 18.3604C11.4513 17.5059 11.6635 16.7945 12.404 16.2998Z" fill="#F7CC76"/>
<path d="M9.88603 28.436C9.33768 26.7842 8.93342 25.6844 10.2543 24.8585C10.6585 24.6051 10.2623 24.4538 10.1662 24.2657C9.94207 23.8446 10.0341 23.4684 10.3784 23.1782C10.7026 22.9042 11.1388 22.9942 11.1428 23.3744C11.1549 24.8953 14.2448 23.0146 13.3082 25.4677C13.2362 25.6558 13.1842 25.8929 13.0481 26.0156C12.5758 26.4326 13.1762 27.7818 12.1835 27.4875C11.1508 27.1808 11.7472 26.3141 12.1555 25.6722C12.3957 25.2919 12.1795 25.0221 11.8393 24.8749C11.1869 24.5928 11.319 25.1407 11.1829 25.4964C10.8667 26.3345 10.4704 27.1359 9.88603 28.436Z" fill="#F8CC73"/>
<path d="M27.6099 31.0399C28.4424 30.3613 29.6192 30.6107 30.4758 29.8379C31.1482 29.2246 31.4444 29.9974 31.7646 30.5289C32.3129 31.4406 31.6965 32.2338 31.6125 33.0801C30.808 32.9738 30.1195 32.152 29.2109 32.6713C29.0749 32.5323 28.9348 32.3932 28.7987 32.2501C28.5665 31.6778 27.9741 31.4733 27.6099 31.0399Z" fill="#F5C769"/>
<path d="M13.1716 10.9962C12.4111 12.1124 10.658 12.4804 10.794 14.2752C10.1816 13.5229 10.3377 12.926 10.682 11.9734C11.0622 10.9308 10.9348 9.70869 11.9994 8.96458C12.1275 10.0685 13.2396 9.15229 13.5998 9.78193C14.0521 10.4075 13.6559 10.7182 13.1716 10.9962Z" fill="#F5C566"/>
<path d="M7.59279 34.7135C6.11584 33.5074 4.68291 32.2686 4.68691 30.0403C5.4394 32.4771 8.56141 33.1272 8.79356 35.9483C7.86496 36.0832 7.929 35.2001 7.59679 34.7258L7.59279 34.7135Z" fill="#F6C76B"/>
<path d="M5.72629 16.7651C6.26264 17.7423 3.65696 19.6803 6.69492 19.4472C6.48278 20.4203 5.72629 20.4857 5.18595 20.8046C4.44147 21.238 4.00919 20.4816 4.16929 20.1423C4.67762 19.0792 4.59356 17.6891 5.72629 16.7651Z" fill="#F7CA71"/>
<path d="M14.2122 27.8482C14.5564 26.3232 14.7606 24.7777 15.8573 23.637C16.0894 23.3958 16.3256 22.852 16.7699 23.3181C17.0701 23.6288 17.1341 24.1481 16.7899 24.4097C15.6091 25.3174 15.1808 26.7729 14.2122 27.8482Z" fill="#F8CC75"/>
<path d="M5.59558 26.1315C7.59687 27.0841 5.19932 28.1675 5.64761 29.1979C5.68364 29.2837 5.19932 29.1651 4.97518 29.0548C4.27873 28.7113 4.25472 28.0326 4.48286 27.4889C4.699 26.9737 5.21133 26.5812 5.59558 26.1315Z" fill="#F7CA73"/>
<path d="M9.20242 20.0018C9.61468 19.6339 10.031 19.2618 10.4512 18.8898C11.1116 19.6421 10.3031 20.1981 10.3992 20.8114C9.34651 21.1425 9.81081 22.7452 8.47795 23.011C8.7021 21.9643 9.43857 21.0771 9.20242 20.0018Z" fill="#F8CE7C"/>
<path d="M13.6043 19.9956C13.5683 19.0184 14.657 18.1926 13.9806 17.1254C13.8565 17.0314 13.8164 16.9374 13.8645 16.8515C13.9125 16.7697 13.9565 16.7248 14.0006 16.7248L13.9966 16.7289C14.2207 16.504 14.3328 16.0624 14.7931 16.3118C15.1733 16.6389 16.5022 16.6389 15.2013 17.5466C15.4695 18.3111 15.1253 18.9489 14.7971 19.5867C14.665 19.7217 14.5289 19.8566 14.3968 19.9956C14.1327 19.9997 13.8685 19.9997 13.6043 19.9956Z" fill="#F7CC76"/>
<path d="M10.8219 14.7151C11.014 14.4453 11.1941 14.1673 11.4063 13.9138C11.6985 13.5622 12.0427 12.9734 12.491 13.2596C13.1154 13.6603 12.559 14.1959 12.3589 14.662C11.7305 14.4085 11.7105 16.4814 10.7859 15.0913C10.8059 14.9686 10.8219 14.8419 10.8219 14.7151Z" fill="#FAE0AF"/>
<path d="M7.60046 34.7235C8.00072 35.1324 8.39697 35.5412 8.79723 35.946C8.93732 36.2158 9.07741 36.4857 9.2215 36.7555C8.00072 36.8005 7.16818 35.7538 7.60046 34.7235Z" fill="#F9D489"/>
<path d="M12.7433 29.5744C12.6872 29.9546 12.4991 30.2122 12.0989 30.1264C11.5665 30.0078 11.4184 29.5376 11.3584 29.0756C11.3103 28.7199 11.6265 28.63 11.8827 28.6545C12.399 28.7076 12.6832 29.047 12.7433 29.5744Z" fill="#F8CC75"/>
<path d="M27.6086 31.0409C28.2971 31.1472 29.5899 30.6362 28.7934 32.2552C28.5292 32.2593 28.2691 32.2634 28.0049 32.2675C26.9562 32.1653 27.3845 31.5684 27.6086 31.0409Z" fill="#F6D183"/>
<path d="M5.59442 26.1334C5.46233 25.9944 5.27822 25.8758 5.20617 25.7082C5.01004 25.2584 4.56175 24.8005 5.06608 24.2935C5.17015 24.1872 5.45833 24.1464 5.58641 24.2199C6.1828 24.5634 5.98667 25.0949 5.83457 25.5978C5.77854 25.7859 5.67447 25.9576 5.59442 26.1334Z" fill="#F7CA73"/>
<path d="M15.9989 41.6852C15.8748 41.6647 15.7507 41.6525 15.6266 41.6484C15.3264 41.1537 15.0983 40.6344 15.1983 40.0293C15.8908 39.9721 16.235 40.6099 16.7754 40.8593C16.7874 41.4031 16.5072 41.6525 15.9989 41.6852Z" fill="#F8D899"/>
<path d="M8.67689 24.4072C8.71291 24.7179 8.57682 24.9592 8.30465 25.0287C7.87637 25.1391 7.74028 24.7915 7.66424 24.4604C7.60019 24.1824 7.67224 23.8962 7.98844 23.843C8.3807 23.7817 8.56081 24.072 8.67689 24.4072Z" fill="#ECB74E"/>
<path d="M17.2072 32.2716C17.5874 32.4269 17.8556 32.6927 18.0037 33.0811C17.4393 33.3101 16.7549 33.8784 16.3546 33.0484C16.1065 32.5251 17.1111 32.7745 17.2072 32.2716Z" fill="#EEB84F"/>
<path d="M7.36437 31.8031C6.57587 31.5414 6.1596 31.2143 6.14759 30.3639C7.0922 30.413 7.21228 30.9935 7.36437 31.8031Z" fill="#F7CA73"/>
<path d="M18.2311 34.8656C18.3472 35.0128 18.5833 35.1886 18.6354 35.4135C18.7034 35.7161 18.4513 35.8919 18.1631 35.8755C17.8749 35.8591 17.6788 35.6629 17.6668 35.3685C17.6507 35.0701 17.8108 34.8779 18.2311 34.8656Z" fill="#F8CF7D"/>
<path d="M14.8167 40.03C14.1042 40.7619 13.6439 40.075 13.5439 39.5925C13.4198 38.9833 14.0842 39.3186 14.4004 39.2164C14.5365 39.4903 14.6766 39.7602 14.8167 40.03Z" fill="#F8D899"/>
<path d="M15.1988 20.8213C15.2588 20.4001 15.3629 20.0117 15.8992 20.0771C16.3195 20.1303 16.3515 20.4901 16.4036 20.8213C16.0033 20.9357 15.603 21.4632 15.1988 20.8213Z" fill="#F8D282"/>
<path d="M13.8604 34.0918C13.9365 34.1817 14.1766 34.3412 14.2327 34.5579C14.3167 34.8645 14.0726 35.0689 13.7964 34.9422C13.6003 34.8523 13.4282 34.5947 13.3601 34.3739C13.3041 34.1858 13.4602 34.0141 13.8604 34.0918Z" fill="#F8CE81"/>
<path d="M9.45016 17.3837C9.33808 17.4859 9.17798 17.7394 8.96584 17.7966C8.66165 17.8784 8.46552 17.6167 8.5896 17.3387C8.67766 17.1384 8.93382 16.9626 9.14996 16.8931C9.34209 16.8317 9.49819 17.0075 9.45016 17.3837Z" fill="#DEA845"/>
<path d="M12.7917 20.8163C12.9238 20.6691 13.0599 20.5219 13.192 20.3748C13.4682 20.4647 13.9685 20.4892 13.7884 20.8817C13.5202 21.4664 13.1079 21.2047 12.7917 20.8163Z" fill="#E5B044"/>
<path d="M18.8149 26.5453C18.6388 26.8765 18.3386 26.946 18.0064 26.9501C17.9544 26.6843 17.6381 26.3613 18.0664 26.1855C18.3706 26.0628 18.6388 26.2591 18.8149 26.5453Z" fill="#E0AE4A"/>
<path d="M3.86658 25.9703C3.80254 25.8477 3.67846 25.7046 3.65044 25.541C3.61442 25.3407 3.71449 25.1281 3.95064 25.2303C4.09073 25.2916 4.22281 25.4879 4.26284 25.6473C4.31888 25.8763 4.15877 25.9867 3.86658 25.9703Z" fill="#F9D280"/>
<path d="M31.6086 33.0824C33.0576 32.3956 33.3297 30.3717 32.209 29.1615C31.2524 28.1271 32.4131 27.1459 32.4131 26.1278C33.1696 26.0379 33.798 26.8311 34.5665 26.4549C34.5465 26.4263 34.5185 26.4386 34.4985 26.4304C32.5052 26.8392 33.0896 24.8808 32.4091 24.0877C32.6533 23.4458 33.6179 23.9773 33.81 23.2045C32.9095 22.3173 32.2851 23.4866 31.3485 23.593C31.4805 22.7098 31.6166 21.9943 31.9248 21.2461C32.209 20.5593 31.4645 20.9681 31.2124 20.8209C30.676 20.0032 30.1437 19.1855 29.6073 18.3678C28.7748 18.1389 29.3432 17.8077 29.6113 17.685C30.3318 17.362 31.1003 17.1535 31.8048 16.7815C32.3611 16.577 32.9095 16.3522 33.5219 16.4176C34.0302 16.5075 34.3424 16.8796 34.6506 17.2516C35.255 18.0162 36.1956 18.5641 36.5718 19.4186C37.0441 20.4898 37.3443 19.2346 37.6765 19.484C38.413 19.762 39.3776 19.9378 39.5417 20.7882C39.6978 21.5855 40.1181 21.3811 40.5344 21.3851C41.3109 21.3974 42.0153 20.7473 42.8359 21.1071C43.2001 21.4383 43.4443 21.8594 43.2401 22.3378C42.8959 23.1391 43.6284 22.4359 43.6644 22.6771C44.7291 23.0737 44.7251 21.8921 45.2814 21.5364C46.142 21.6182 45.7497 22.4318 46.0219 22.857C45.0453 25.0934 44.0246 25.7026 42.0674 24.5865C40.7825 23.8505 40.5184 24.472 40.0581 25.3101C39.6538 25.5554 39.7499 25.8335 40.006 26.1237C40.5904 26.6593 40.5704 27.2072 40.0421 27.7714C39.5658 27.6038 38.8173 27.1745 38.6812 27.8C38.437 28.9326 37.3723 29.7666 37.6165 31.0382C37.6165 31.1731 37.6165 31.3121 37.6165 31.447C37.2283 31.77 37.2082 32.2157 37.2162 32.6736C37.2162 32.8085 37.2162 32.9434 37.2162 33.0783C37.4964 34.0432 38.9894 34.8119 37.6765 36.0262C36.5318 37.0892 35.335 37.8088 33.8541 36.5986C33.0656 35.9526 32.3611 36.7212 31.6126 36.7539C31.2724 35.5355 30.2998 34.309 31.6086 33.0824Z" fill="#F5C769"/>
<path d="M31.6087 36.7568C32.4413 35.7306 33.1938 34.9578 34.4306 36.4338C35.163 37.3047 37.4325 36.3438 37.7847 35.1827C37.9368 34.6757 37.8448 34.5613 37.3084 34.41C36.3518 34.1401 36.8281 33.5637 37.2164 33.0812C38.0809 33.118 38.7614 32.9136 38.8174 31.8546C38.3731 31.2495 38.7574 30.9265 39.2176 30.6281C40.0142 31.2577 39.3737 32.149 39.6859 33.3224C40.5025 31.8383 40.8187 30.5872 40.8427 29.238C40.8587 28.4039 41.1789 28.1709 41.5151 28.6901C42.2036 29.7491 42.3677 28.7106 42.6479 28.5143C43.1402 28.1668 43.2843 27.6843 42.804 27.1365C42.4397 26.7195 41.6472 26.2043 42.4277 25.6646C43.3243 25.0472 43.6805 26.2534 43.7526 26.6377C43.9767 27.7906 45.3736 27.2264 45.6178 28.1709C45.5978 29.4261 44.7932 30.2192 44.0127 31.0288C43.8807 31.0288 43.7486 31.0288 43.6165 31.0288C42.832 30.7875 42.88 32.2512 42.0154 31.8424C41.4191 31.2455 40.9908 31.3518 40.8347 32.194C40.7106 32.8522 40.5625 33.4696 39.9861 33.8785C39.0856 33.7763 38.8014 34.2873 38.8094 35.0968C38.4371 35.935 37.3805 36.4256 37.6126 37.5663C37.0883 37.7912 36.8161 38.1919 36.8161 38.7765C36.652 39.1813 36.0756 39.4389 36.3998 40.0113C35.7994 41.7121 34.7508 42.4644 32.4893 42.816C32.4693 42.1209 33.1417 42.1986 33.4699 41.9042C34.0543 41.385 33.9422 40.7554 33.2938 40.7431C30.7602 40.694 31.6648 38.8869 31.6087 37.5581C31.6007 37.3006 31.6087 37.0307 31.6087 36.7568Z" fill="#F5C25F"/>
<path d="M23.2063 40.4318C23.1783 39.2829 22.2537 39.8758 21.7214 39.6795C21.7494 38.5552 24.191 38.1831 22.1977 36.2901C24.4271 38.1177 24.331 35.8445 25.1035 35.1331C25.1836 36.7358 27.8333 38.1136 25.2036 39.6059C25.0755 40.023 24.6392 40.1334 24.4031 40.4441L24.4071 40.44C24.0028 40.7262 23.6026 40.8039 23.2063 40.4318Z" fill="#F5C463"/>
<path d="M44.012 31.0343C44.1441 29.8445 45.3729 29.2967 45.6171 28.1764C45.7051 27.5631 45.3929 26.8517 45.9533 26.2998C46.1294 26.4347 46.3175 26.5369 46.3055 26.5778C45.465 29.5665 44.7285 32.592 43.3116 35.3763C42.8153 36.3494 42.0988 36.5129 40.9581 36.1695C42.6552 34.7957 44.1361 33.377 44.012 31.0343Z" fill="#F6CA71"/>
<path d="M37.6116 31.0383C37.4836 31.0097 37.2674 31.0179 37.2434 30.9484C36.9192 30.0653 38.184 26.9335 38.9525 26.7372C39.8051 26.5164 39.926 27.1541 40.0421 27.7714C39.3216 28.9326 38.0319 29.6482 37.6116 31.0383Z" fill="#F6CD79"/>
<path d="M46.0173 22.8622C45.7491 22.4534 45.4849 22.0445 45.2167 21.6357C43.9519 20.3969 43.9879 20.1924 45.617 19.481C46.2614 19.432 46.2774 20.2497 46.7938 20.3723C46.8578 21.3086 46.9378 22.249 46.0173 22.8622Z" fill="#F5C66C"/>
<path d="M42.014 31.8526C42.5623 31.6768 42.4703 31.1289 42.6744 30.7568C43.0867 30.0086 43.4909 30.2539 43.615 31.0349C43.4749 31.4805 43.3028 31.918 43.2067 32.3759C43.0626 33.0505 42.7304 33.6638 42.034 33.3367C41.3495 33.0219 41.5136 32.3636 42.014 31.8526Z" fill="#F6CA71"/>
<path d="M46.7949 20.3711C46.1545 20.4937 46.0224 19.8273 45.6221 19.5779C45.5261 19.4921 45.494 19.4062 45.5261 19.3162C45.5541 19.2263 45.5861 19.1854 45.6181 19.1854C45.6181 18.5149 45.6181 17.8403 45.6181 16.5688C46.1424 18.102 46.4707 19.0668 46.7989 20.0276C46.7989 20.1421 46.7949 20.2566 46.7949 20.3711Z" fill="#F8D796"/>
<path d="M39.0241 36.5303C39.0641 37.3481 38.6239 37.6751 38.0595 37.855C37.9474 37.8918 37.7633 37.6792 37.6112 37.5811C38.1195 37.3399 38.1075 36.4608 39.0241 36.5303Z" fill="#F5C25F"/>
<path d="M38.8084 35.1129C38.5443 34.0457 38.4722 33.1708 39.9852 33.8945C39.4809 34.1848 39.0806 34.5895 38.8084 35.1129Z" fill="#E9AF41"/>
<path d="M39.2129 30.6299C39.0808 31.0387 38.9447 31.4476 38.8127 31.8564C37.76 31.7051 38.1162 31.1818 38.5445 30.7034C38.6926 30.5358 38.8887 29.5219 39.2129 30.6299Z" fill="#F6CD79"/>
<path d="M23.2068 40.4297C23.607 40.4338 24.0073 40.4338 24.4076 40.4379C24.1634 40.9489 23.8112 41.3782 23.2108 41.1697C22.7905 41.0225 22.8986 40.6832 23.2068 40.4297Z" fill="#FAD180"/>
<path d="M24.4033 40.4412C24.4153 39.9097 24.6955 39.6398 25.2038 39.603C25.44 39.6439 25.8162 39.6971 25.7082 39.971C25.476 40.5598 24.8876 40.4085 24.4033 40.4412Z" fill="#FAD180"/>
<path d="M37.2116 32.6715C36.5551 31.9928 36.7513 31.6085 37.6118 31.4449C37.6038 31.8987 37.6839 32.3771 37.2116 32.6715Z" fill="#F6CD79"/>
<path d="M39.9977 26.1257C39.4854 26.0766 39.0931 25.8599 39.3293 25.2753C39.5094 24.8337 39.8176 25.0586 40.0498 25.3121C40.0338 25.586 40.0177 25.8558 39.9977 26.1257Z" fill="#E5B04A"/>
<path d="M36.399 40.0242C35.3583 39.1983 36.5231 39.1493 36.8152 38.7895C36.6752 39.1983 36.5391 39.6113 36.399 40.0242Z" fill="#F8DA97"/>
<path d="M29.4629 34.89C29.647 35.1066 29.8232 35.2293 29.8512 35.3806C29.8712 35.4951 29.6991 35.6463 29.611 35.7813C29.4909 35.6627 29.3108 35.5564 29.2748 35.4133C29.2428 35.2906 29.3709 35.123 29.4629 34.89Z" fill="#E8B047"/>
<path d="M20.8056 17.5509C19.861 17.5673 19.5408 16.7046 18.8203 16.03C18.5842 16.9254 18.5801 18.2133 17.2673 17.4814C17.5955 15.1714 19.7489 14.1615 20.5974 11.9823C21.1538 12.935 19.885 13.814 20.6655 13.9857C21.45 14.1574 22.2825 15.2491 23.2111 14.276C23.5113 13.8958 23.5874 13.3602 24.0036 13.0576C22.3426 12.3708 21.6501 10.8008 20.8056 9.37387C20.8056 8.69108 20.8056 8.01239 20.8056 7.3296C22.4506 7.39502 23.5834 8.91595 25.2404 8.94048C25.4286 8.96501 25.6167 9.0059 25.8008 9.05496C27.2097 9.64371 28.6026 8.34764 30.0115 9.01816C30.9041 9.40248 31.6486 10.3796 32.8013 9.76228C32.7053 9.1122 32.9614 8.83009 33.6098 8.96092C34.2903 9.52105 33.6339 9.81543 33.3937 10.2202C33.1696 10.5963 32.4051 10.7149 32.8093 11.414C32.9054 11.5203 32.9374 11.6307 32.9094 11.7411C32.8814 11.8515 32.8534 11.9088 32.8213 11.9088C32.341 12.1868 31.8527 12.0559 31.5725 11.6675C30.9281 10.7681 30.1996 11.1687 29.4632 11.4018C28.7427 11.549 28.1103 11.0134 27.3258 11.2669C27.8341 11.1524 28.2584 11.2505 28.6707 11.4059C28.9108 11.4958 29.159 11.5653 29.4231 11.5612C30.9081 11.1115 31.8247 11.8433 32.5011 13.0903C32.245 13.581 31.8327 13.7609 31.3084 13.7118C30.8441 13.5973 30.4038 13.5483 30.0595 14.0143C29.8194 14.3332 29.4311 14.877 29.175 14.7421C27.658 13.9489 27.3698 15.4739 26.5973 16.0709C25.0283 17.6163 23.1871 18.111 21.0738 17.5509C20.9857 17.555 20.8936 17.5509 20.8056 17.5509Z" fill="#F5C463"/>
<path d="M25.5759 9.40248C25.4518 9.40248 25.3277 9.38204 25.2116 9.34115C24.9314 9.13264 24.5272 8.98545 24.7673 8.49074C25.4798 7.09655 25.4876 5.55419 25.6517 4.04962C26.3002 3.5222 27.401 3.6213 27.5892 2.39066C27.6332 2.10446 27.9503 2.63178 28.0384 2.89345C27.8983 3.29821 27.7573 3.70307 27.6172 4.10784C26.9247 5.49385 26.7566 6.97798 26.8407 8.503C27.1849 9.93399 26.3163 9.5742 25.5759 9.40248Z" fill="#A47D3A"/>
<path d="M24.7665 8.49518C24.9146 8.77728 25.0627 9.05939 25.2108 9.34559C23.5418 9.13299 22.1489 8.29075 20.804 7.33403C20.892 6.4918 21.2723 6.57766 21.8527 6.92518C22.8013 7.48531 23.7939 7.97184 24.7665 8.49518Z" fill="#BB8D35"/>
<path d="M18.1239 7.35488C18.7603 6.62712 19.5128 6.83154 20.1412 7.15045C20.6295 7.39985 19.877 8.40563 19.809 8.16032C19.5208 7.16271 18.5922 8.00086 18.1239 7.35488Z" fill="#F6C86B"/>
<path d="M14.0242 3.24871C14.9408 2.97887 15.8574 2.70903 16.774 2.4351C16.67 3.69027 15.1814 3.16719 14.7892 4.05031C14.6651 4.04623 14.5406 4.04598 14.4165 4.04598C14.2844 3.78022 14.1563 3.51447 14.0242 3.24871Z" fill="#F7D697"/>
<path d="M23.2279 3.22796C23.368 2.36119 23.7122 2.10361 24.3846 2.82319C24.0004 2.95811 23.6161 3.09304 23.2279 3.22796Z" fill="#F7DA9C"/>
<path d="M32.8074 11.8248C32.8074 11.6899 32.8074 11.5508 32.8074 11.4159C34.6166 11.052 36.0335 9.87864 37.6025 9.01187C38.6792 8.83607 38.8113 9.88682 39.3476 10.4142C39.3076 11.1911 38.1308 11.7267 38.8833 12.6752C38.6832 12.8714 38.431 12.945 38.1669 12.9777C36.886 13.403 35.8694 13.4479 36.2016 11.559C36.1896 11.2933 36.0615 11.1788 35.7973 11.2565C35.337 11.6612 35.6252 12.0987 35.7333 12.5157C35.8774 13.0881 35.8454 13.5583 35.1449 13.6851C34.9568 13.6728 34.7847 13.6115 34.6246 13.5133C34.0602 12.896 33.1316 12.6997 32.8074 11.8248Z" fill="#F6CB79"/>
<path d="M25.5769 9.40048C26.1733 9.3596 26.7937 9.35551 26.8417 8.5051C28.5348 9.06114 29.7556 7.32351 31.4287 7.40937C31.3326 8.41515 30.4681 8.52145 30.0118 9.02025C28.5508 9.32689 27.1139 10.0015 25.5769 9.40048Z" fill="#C2933D"/>
<path d="M39.2294 10.5879C38.6891 10.0605 38.1447 9.53713 37.6044 9.00971C37.096 8.59268 36.2475 8.52727 36.1234 7.57464C37.2041 7.32115 37.6764 8.25742 38.4169 8.5518C38.609 9.36133 39.8458 9.53304 39.6137 10.6002C39.4776 10.7473 39.3495 10.7351 39.2294 10.5879Z" fill="#F9DEA3"/>
<path d="M40.4141 7.33383C40.0098 7.203 39.6056 7.07217 39.2053 6.94133C38.3688 6.19722 37.4482 5.59212 36.4675 5.0647C38.1406 5.13421 39.5015 5.79655 40.4141 7.33383Z" fill="#FAD58C"/>
<path d="M33.6089 8.9632C33.3408 9.22895 33.0686 9.4988 32.8004 9.76455C31.9999 9.69505 31.9399 9.28619 32.4282 8.76695C32.7364 8.44396 32.7764 7.63034 33.5049 7.95742C34.0092 8.18638 33.733 8.6075 33.6089 8.9632Z" fill="#F8D78F"/>
<path d="M38.4121 7.33144C37.2994 7.42138 36.635 6.62821 35.5343 5.85957C36.9792 5.9536 37.8878 6.26024 38.4121 7.33144Z" fill="#F6CB79"/>
<path d="M31.6078 3.64817C31.6038 3.51325 31.6038 3.37424 31.6078 3.23931C32.4604 3.32108 33.397 2.98991 34.5937 4.0284C33.2729 3.86077 32.4404 3.75447 31.6078 3.64817Z" fill="#FAD58E"/>
<path d="M29.6027 4.46247C29.9629 4.51562 30.4152 4.33982 30.5953 4.82635C30.6234 4.90403 30.4152 5.17388 30.2871 5.19432C29.7548 5.28427 29.6627 4.87541 29.6027 4.46247Z" fill="#FAD68B"/>
<path d="M42.7953 21.224C40.3778 22.9657 38.9449 21.4489 37.612 19.5927C37.2918 18.9385 37.9682 18.4275 37.8602 17.806C37.8201 16.7144 38.0323 15.8599 39.4012 16.1379C39.5853 16.1747 39.7774 16.2769 39.7454 15.9621C39.7254 15.7618 39.6413 15.5696 39.5973 15.3693C39.5212 15.0217 39.4452 14.6783 39.3411 14.3389C39.217 13.9096 39.077 13.4844 39.0129 13.0388C39.0209 12.8548 39.0729 12.6872 39.173 12.5318C39.3291 12.4419 39.4972 12.3928 39.6653 12.3846C39.7894 12.3846 39.9135 12.4132 40.0296 12.4746C40.0816 12.217 39.8294 12.1761 39.7134 12.0371C39.5973 11.7018 38.6247 11.4484 39.6133 11.015C40.0696 11.2071 40.5859 11.0763 41.1943 10.7206C41.6106 10.4794 41.9388 10.7819 42.235 11.0477C42.9675 11.7141 43.6879 12.3887 44.4124 13.0633C44.5004 13.3127 44.7366 13.6562 44.6525 13.7952C44.3203 14.3349 44.0001 13.7993 43.6959 13.6766C43.1796 13.4681 42.8914 12.4868 42.251 12.9407C41.7587 13.2923 41.9628 14.0773 42.199 14.6456C42.4751 15.3038 41.9988 15.6187 41.7026 16.0561C40.8861 17.2459 42.267 17.8265 42.5352 18.7137C42.7233 19.3351 43.1916 18.3702 43.6119 18.3743C44.9047 18.8609 44.9127 18.9181 43.9681 20.4431C43.6559 20.8193 43.3157 21.1627 42.7953 21.224Z" fill="#F4C260"/>
<path d="M43.6116 20.4205C43.9078 19.7377 45.0125 19.0508 43.6156 18.3681C43.9478 17.8325 45.2367 18.4212 44.7324 16.7408C45.5089 17.7302 44.8684 18.6951 45.6169 19.1858C45.6249 19.3166 45.6249 19.4474 45.6249 19.5783C44.9925 20.1629 44.3481 20.7435 45.2167 21.6389C45.1726 22.3217 45.4208 23.1435 44.6043 23.5073C44.0919 23.7363 43.8238 23.2702 43.6116 22.8573C43.2194 22.0436 43.1033 21.23 43.6116 20.4205Z" fill="#F5C566"/>
<path d="M39.6133 11.0087C39.189 11.577 40.0495 11.4217 40.0215 11.7692C40.0215 12.1086 39.9255 12.4029 39.6573 12.6196C39.4972 12.6319 39.3331 12.6441 39.173 12.6564C39.0449 12.7791 38.9248 12.7709 38.8167 12.6319C37.9122 11.7324 38.5209 11.1521 39.2294 10.5879C39.3575 10.592 39.4852 10.5958 39.6133 10.604C39.6133 10.7389 39.6133 10.8738 39.6133 11.0087Z" fill="#F6C86F"/>
<path d="M18.8031 20.8175C18.7991 20.286 20.4242 19.6319 18.6751 19.1944C18.4869 19.1494 18.8512 18.8019 18.9993 18.6097C19.2955 18.2295 19.6237 18.1436 20.0239 18.4176C20.3802 18.6629 20.7284 19.2434 21.1687 18.7119C21.5289 18.2785 20.6203 18.0455 20.8004 17.5426H20.8044C22.5776 18.1682 24.6429 16.6595 26.276 18.3235C26.6562 18.8387 27.1725 19.2557 27.3607 19.9099C27.3927 20.1061 27.3326 20.2697 27.1966 20.4087C25.7516 19.5991 24.6069 19.4969 24.4028 21.6352C23.6983 21.8519 21.4569 20.5109 23.0339 23.058C23.3461 23.5609 23.0779 24.0924 22.4975 24.0434C21.621 23.9657 21.0326 25.4498 20.204 24.5994C19.5997 23.978 20.6163 23.4628 20.7924 22.8577C20.5443 22.4938 20.9205 21.9173 20.4002 21.6434C20.2641 21.5085 20.132 21.3695 19.9959 21.2346C19.7518 20.6581 20.2641 20.5886 20.5363 20.376C20.052 20.3678 19.7918 21.1242 19.1914 20.8216C19.0673 20.8175 18.9352 20.8175 18.8031 20.8175Z" fill="#F5C463"/>
<path d="M27.2006 20.408C27.2006 20.2731 27.2006 20.1382 27.1966 20.0033C27.6289 18.8544 27.7049 17.5706 28.4414 16.5362C29.1098 16.1232 30.0224 16.295 30.5708 15.5958C31.0351 15.2401 31.5514 15.0643 32.0077 15.51C32.524 16.0088 32.42 16.5934 32.0117 17.1413C31.3192 17.7587 30.5107 18.0367 29.5981 18.0448C29.5701 18.0448 29.5221 18.1471 29.5261 18.2002C29.5301 18.2575 29.5821 18.3147 29.6141 18.3719C29.6662 20.1096 28.7296 20.6206 27.2006 20.408Z" fill="#F9D17D"/>
<path d="M21.1886 26.1235C21.7289 25.6983 22.3133 24.762 22.9777 25.6451C23.7422 26.6632 22.4974 27.3746 22.0931 28.0819C21.5368 29.059 21.0365 28.0737 20.6482 27.5872C20.276 27.1211 19.9478 26.6182 19.5995 26.1276C19.8717 26.1235 20.1439 26.1194 20.4161 26.1153C20.6802 25.8782 20.9364 25.8945 21.1886 26.1235Z" fill="#F5C566"/>
<path d="M24.4025 21.6363C25.0789 21.7426 25.6433 21.3788 26.2197 21.0312C26.5519 22.0207 26.2557 22.4786 25.3751 22.4336C24.9188 22.4131 23.9902 22.8302 24.4025 21.6363Z" fill="#F5C463"/>
<path d="M19.1954 20.8186C19.9999 20.471 20.5843 19.3467 21.8891 20.0377C21.2447 20.6223 20.3881 20.5692 20.0039 21.2315C19.5636 21.4441 19.1753 21.5422 19.1954 20.8186Z" fill="#F9D282"/>
<path d="M22.8136 30.2172C23.0858 28.9947 23.5421 28.5531 24.4146 29.8165C24.0824 30.7896 23.382 30.2376 22.8136 30.2172Z" fill="#EFB850"/>
<path d="M20.4096 21.6403C20.7498 21.5749 21.1621 21.0638 21.4062 21.5422C21.6904 22.1023 20.9259 22.3722 20.8018 22.8546C19.7451 22.7606 20.1774 22.1677 20.4096 21.6403Z" fill="#F8D387"/>
<path d="M21.1886 26.1235C20.9324 26.1235 20.6763 26.1189 20.4161 26.1189C20.3561 25.845 20.0159 25.4607 20.5402 25.3666C21.0445 25.2726 21.1645 25.6983 21.1886 26.1235Z" fill="#F6D79A"/>
<path d="M26.4289 23.2719C26.2888 23.5458 26.1487 23.8238 26.0126 24.0977C25.6524 23.8279 25.4723 23.4763 25.8045 23.1001C26.0126 22.8589 26.2608 23.0388 26.4289 23.2719Z" fill="#F7D58E"/>
<path d="M34.8138 26.5463C33.8652 27.2864 33.1407 26.6853 32.4123 26.1293C32.6924 25.4465 31.6918 24.7678 32.4083 24.0891C32.7405 24.3058 33.3889 24.6043 33.3569 24.7228C33.0126 26.0721 34.1814 26.0761 34.8138 26.5463Z" fill="#F7CF7A"/>
<path d="M14.798 16.316C14.5338 16.455 14.2656 16.594 14.0014 16.733C13.8934 16.3037 14.5818 15.6741 13.6492 15.4329C13.2329 15.3266 13.2169 14.9627 13.5011 14.6561C13.7973 14.3372 14.1055 14.5906 14.4017 14.6888C14.7779 15.2162 15.3823 14.3208 15.7866 14.9709C15.4624 15.4083 15.1302 15.8622 14.798 16.316Z" fill="#F9D58C"/>
<path d="M14.802 19.5908C14.762 18.8753 14.818 18.1762 15.2062 17.5506C16.2909 17.567 16.6472 18.814 17.6638 19.0225C16.6672 19.182 15.5305 18.3029 14.802 19.5908Z" fill="#F5C463"/>
<path d="M13.1714 10.9976C13.3155 10.5929 13.4596 10.1881 13.6037 9.77926C13.9559 9.64843 14.06 8.94929 14.4923 9.17825C15.0846 9.49306 14.7004 9.96324 14.4442 10.3271C14.1841 10.7033 13.8839 11.0508 13.5997 11.4106C13.4556 11.2757 13.3115 11.1366 13.1714 10.9976Z" fill="#F8D99C"/>
<path d="M24.0033 13.0566C24.0233 13.6536 24.0193 14.2382 23.2108 14.275C23.0867 13.9234 22.4383 13.8212 22.6384 13.3878C22.9066 12.795 23.535 13.1425 24.0033 13.0566Z" fill="#F9D387"/>
<path d="M14.3969 13.8634C14.0567 13.5608 13.5924 13.2256 14.0207 12.7513C14.2448 12.5019 14.621 12.7472 14.8212 13.0579C14.7932 13.385 14.7131 13.6917 14.3969 13.8634Z" fill="#F8D99C"/>
<path d="M14.0004 16.7296C13.9964 16.8604 13.9886 16.9946 13.9806 17.1254C13.5843 17.6692 13.1879 18.2137 12.7956 18.7616C11.9511 17.3143 13.0077 17.0403 14.0004 16.7296Z" fill="#F8D896"/>
<path d="M12.4027 16.3013C12.1346 16.9882 11.8624 17.675 11.5942 18.3619C10.8537 17.2621 11.1379 16.5834 12.4027 16.3013Z" fill="#F8D694"/>
<path d="M28.406 16.7225C28.6141 17.4871 27.9337 18.1413 28.3699 19.0489C28.9263 20.2019 26.893 18.7382 27.1932 20.0015C26.7969 19.5927 26.4007 19.1798 26.0044 18.7709C26.2446 18.4929 26.5928 18.3007 26.2045 17.8183C25.6762 17.1641 25.7643 16.4895 26.4007 15.9171C26.921 15.079 27.4453 14.2367 27.9737 13.3822C28.7222 13.4108 28.1458 14.4779 28.8102 14.4943C29.5067 14.5147 29.5867 13.8442 29.8229 13.3986C30.3432 12.4173 30.7715 12.6708 31.2078 13.4476C31.1197 13.6684 31.0277 13.8933 31.2198 14.1059C31.6481 14.3594 32.0003 14.2449 32.3245 13.9096C33.069 13.5376 33.7574 13.7788 34.4379 14.1059C34.9942 14.6824 35.3584 15.3488 35.3344 16.187C35.2504 16.3628 35.1223 16.4977 34.9462 16.5835C34.5259 16.8411 34.0416 16.4445 33.6173 16.7185C33.077 16.8575 32.5406 16.9924 32.0003 17.1314C31.9162 16.5876 32.2765 15.8476 31.5 15.6023C31.0076 15.4469 30.8595 15.8967 30.8035 16.3178C29.951 16.3382 29.1184 15.864 28.2739 16.1951C28.1778 16.2483 28.1138 16.2769 28.1058 16.2769C28.3099 16.4486 27.9817 16.2524 28.2659 16.2565C28.402 16.3219 28.482 16.42 28.49 16.5508C28.498 16.6653 28.458 16.7225 28.406 16.7225Z" fill="#F6C96E"/>
<path d="M34.8018 16.3241C34.9379 16.3241 35.074 16.3241 35.2061 16.32C35.5543 16.549 35.7024 16.9374 35.9265 17.2645C36.3948 17.9391 36.7991 18.6954 37.6436 17.5834C37.8838 17.2685 38.2 17.706 38.4081 17.9554C38.4682 18.6668 37.8358 19.0266 37.6076 19.5908C37.2314 19.8607 36.9472 20.4985 36.3788 19.7789C35.7624 19.0021 35.066 18.2948 34.4056 17.5547C34.4096 17.1009 34.4256 16.6553 34.8018 16.3241Z" fill="#F6C86F"/>
<path d="M35.2629 25.1228C34.8466 24.3132 35.435 23.843 35.6272 23.2379C35.8233 22.6288 36.0434 22.0318 36.4877 21.5044C36.7439 22.9313 35.6151 23.9044 35.2629 25.1228Z" fill="#F7CF7B"/>
<path d="M43.6123 20.4196C43.6123 21.2333 43.6123 22.0428 43.6083 22.8564C43.152 23.0731 42.6236 23.4697 42.2674 22.8237C41.7471 21.8793 42.9679 22.652 42.9439 22.1736C42.9278 21.8547 42.8478 21.5399 42.7958 21.221C43.0679 20.9552 43.3401 20.6854 43.6123 20.4196Z" fill="#F6D183"/>
<path d="M37.384 22.6958C37.384 21.9722 37.504 21.4325 37.9563 21.0032C38.5887 21.224 38.3566 21.6532 38.2085 21.9967C38.0844 22.2788 38.0124 22.6713 37.384 22.6958Z" fill="#F8D17F"/>
<path d="M33.5622 17.8899C33.5342 18.4378 33.4061 18.6668 33.1099 18.7036C32.7977 18.7444 32.5936 18.5686 32.7297 18.2456C32.8217 18.0371 33.0299 17.8368 33.234 17.7427C33.3421 17.6978 33.5542 17.8858 33.5622 17.8899Z" fill="#F6C86F"/>
<path d="M34.8018 16.3241C34.7978 16.7779 34.8935 17.2641 34.4092 17.5544C34.1491 17.2764 33.8849 17.0024 33.6247 16.7244C33.9009 16.2461 34.3695 16.3364 34.8018 16.3241Z" fill="#F8D58E"/>
<path d="M34.8142 26.5504C35.1544 26.8325 35.4906 27.1146 35.9349 27.4866C34.8823 27.7483 34.9263 27.0655 34.8142 26.5504Z" fill="#E4AA42"/>
<path d="M36.5032 35.5155C36.5472 35.8344 36.3831 35.9366 36.191 35.8875C36.0389 35.8507 35.8427 35.7199 35.7947 35.585C35.7267 35.3806 35.8788 35.2007 36.1029 35.2497C36.259 35.2906 36.3911 35.4419 36.5032 35.5155Z" fill="#F8D793"/>
<path d="M34.3735 38.1768C34.1213 38.3649 33.9452 38.5938 33.7291 38.6347C33.3728 38.7001 33.2848 38.3894 33.4209 38.1441C33.5289 37.956 33.7851 37.8293 34.0012 37.7475C34.0533 37.723 34.2094 37.9805 34.3735 38.1768Z" fill="#E7AE41"/>
<path d="M26.4048 15.9198C26.3608 16.5044 25.9365 17.1913 26.5169 17.641C28.1739 18.9207 26.781 18.6836 26.0085 18.7736C25.4722 18.0622 25.0439 16.9542 24.0113 18.2788C23.591 18.8185 23.1827 18.3279 22.8145 18.1603C22.1661 17.8618 21.5577 17.4652 20.8012 17.5511C20.9733 17.3589 21.2415 16.9705 21.3095 17.0032C23.2948 17.9804 24.8078 16.7579 26.4048 15.9198Z" fill="#F9D17D"/>
<path d="M32.8076 11.8279C33.488 12.3553 34.6408 12.2858 34.8049 13.4674C33.8683 14.1542 33.0958 13.8558 32.4073 13.0503C31.4227 12.9522 30.9384 11.0797 29.6055 12.2326C29.2813 11.8279 29.2813 11.419 29.6055 11.0142C31.0545 9.71 31.6709 11.8401 32.8076 11.8279Z" fill="#F6C86F"/>
<path d="M32.4084 13.0489C33.2089 13.1879 34.0054 13.3269 34.8059 13.4659C34.946 13.5927 35.0101 13.7562 35.002 13.9443C34.902 14.2264 34.7499 14.4226 34.4177 14.3C33.7492 14.2918 33.0808 14.2836 32.4124 14.2755C31.88 14.5984 31.3477 14.5698 30.8113 14.2795C30.5872 14.2468 30.231 14.2591 30.307 13.9402C30.4071 13.5068 30.8514 13.5027 31.2156 13.4578C31.6119 13.3187 32.0081 13.1838 32.4084 13.0489Z" fill="#FAD78B"/>
<path d="M29.6067 11.0122C29.6067 11.4169 29.6067 11.8258 29.6067 12.2306C28.53 11.9076 27.5774 10.9222 26.2605 11.4537C27.3172 10.8241 28.49 11.0899 29.6067 11.0122Z" fill="#F9CF76"/>
<path d="M34.8098 13.8715C34.8098 13.7366 34.8059 13.6009 34.8059 13.4659C35.6224 13.3596 35.6223 12.968 35.178 12.3956C34.5816 11.6269 34.8138 11.0423 35.5983 10.6007C35.8745 10.8706 36.3468 10.9401 36.4108 11.4307C36.3428 12.6736 36.9712 12.9721 38.0359 12.6736C38.3521 13.0702 38.7163 13.3114 39.2326 13.0497C39.6849 13.3523 39.6049 13.8266 39.6209 14.2722C39.5649 14.5584 39.3927 14.7465 39.1326 14.8569C38.3601 14.861 37.6997 15.4497 36.8951 15.3189C36.4829 15.1799 36.1587 14.8896 35.7904 14.677C35.4062 14.4766 35.07 14.2231 34.8098 13.8715Z" fill="#F6C86F"/>
<path d="M39.2288 13.0492C39.1647 13.4581 39.0567 13.8833 38.5403 13.7892C37.9159 13.6748 38.06 13.1146 38.032 12.6731C38.2922 12.6608 38.5564 12.6444 38.8165 12.6281C38.9366 12.6444 39.0527 12.6526 39.1728 12.6526C39.1888 12.7835 39.2088 12.9184 39.2288 13.0492Z" fill="#F8DCA0"/>
<path d="M36.4064 11.4304C36.1382 11.1524 35.8665 10.8787 35.5983 10.6007C36.0666 10.6784 36.6866 10.3551 36.9627 10.9112C37.1789 11.3405 36.6785 11.3405 36.4064 11.4304Z" fill="#FBD68F"/>
<path d="M36.8315 15.0924C37.6561 15.166 38.2444 13.7964 39.2051 14.6877C39.3852 14.9984 39.7334 14.9493 39.9976 15.0802C39.9816 15.7916 40.682 16.4089 40.2657 17.2103C39.5733 17.2716 39.4332 15.8692 38.5366 16.4989C37.9202 16.9323 38.4846 17.4719 38.4125 17.9585C38.2885 17.9135 38.1164 17.7868 38.0443 17.8317C36.2832 18.9029 35.6708 18.5799 35.2065 16.3231C34.9423 15.6485 34.6781 14.9739 34.414 14.2992C34.5461 14.1561 34.6781 14.013 34.8102 13.8699C35.2225 14.013 35.6348 14.1561 36.043 14.2992C36.2632 14.6059 36.3432 15.0638 36.8315 15.0924Z" fill="#F5C769"/>
<path d="M39.657 12.6182C39.617 12.2625 39.689 11.9558 40.0212 11.7678C40.4855 12.1112 41.0659 12.3606 41.0699 13.1088C40.4495 13.3541 40.1253 12.7613 39.657 12.6182Z" fill="#F9E1AC"/>
<path d="M40.0018 15.0819C39.6495 15.225 39.5455 15.9283 39.1332 15.7157C38.6449 15.4663 39.1492 15.041 39.2092 14.6894C39.3453 14.5504 39.4814 14.4114 39.6215 14.2683C39.9297 14.4523 40.0018 14.7467 40.0018 15.0819Z" fill="#FAD585"/>
<path d="M28.0064 16.3231C28.939 14.9739 29.8756 15.3337 30.8082 16.3231C30.1078 17.0795 29.2032 16.5725 28.4067 16.7279C28.2746 16.5889 28.1425 16.4539 28.0064 16.3231Z" fill="#F5C463"/>
<path d="M30.8071 14.2761C31.3395 14.2761 31.8718 14.2721 32.4082 14.2721C31.8758 15.5272 31.3395 14.5378 30.8071 14.2761Z" fill="#F6C86F"/>
<path d="M28.2455 16.4104C27.8973 16.6761 27.7292 16.8846 27.6411 16.856C27.429 16.7824 27.2569 16.5984 27.0647 16.4553C27.1968 16.3449 27.3289 16.1364 27.461 16.1405C27.6811 16.1446 27.8933 16.2795 28.2455 16.4104Z" fill="#F5C463"/>
<path d="M36.8315 15.0924C35.5947 15.8324 36.1237 14.7442 36.0436 14.2945C36.3078 14.5603 36.5714 14.8267 36.8315 15.0924Z" fill="#D29D3F"/>
</svg>
