<svg width="44" height="48" viewBox="0 0 44 48" fill="none" xmlns="http://www.w3.org/2000/svg">
<path d="M2.6804 18.0202C2.70891 17.5117 2.95129 17.1257 3.3398 16.8228C3.5893 17.1329 3.92792 17.1979 4.29861 17.1834C5.46771 18.0491 5.46771 18.0491 5.04356 19.5965C5.44989 19.0049 5.51049 18.3449 5.4392 17.656C5.59959 17.472 5.82771 17.2953 6.03801 17.3566C7.65978 17.8507 8.30136 16.7398 8.92156 15.5856C8.98572 15.4305 9.07483 15.2934 9.19601 15.178C10.0051 14.8173 10.6788 14.2041 11.4879 13.8615C12.7283 13.3385 13.9758 12.7253 15.5013 13.6126C15.4693 12.04 15.9219 10.8641 17.1944 10.1536C17.2693 10.0021 17.3762 9.88306 17.5223 9.80011C19.0479 9.33481 20.5378 8.63147 22.1987 9.11479C22.5231 9.15447 22.8225 9.2771 23.1148 9.42138C23.5354 9.64501 24.013 9.66304 24.4585 9.81453C24.6902 9.91913 24.8542 10.0851 24.9255 10.3411C24.6973 11.4412 25.2712 12.7974 23.9239 13.5405C23.2181 14.049 22.8688 13.4828 22.4732 13.0499C22.0241 12.3213 21.4181 11.8849 20.4985 11.9354C20.3738 12.6965 21.1758 13.3926 20.5484 14.1068C19.4791 14.0454 18.3172 13.5693 17.5081 14.9904C18.1782 14.8065 18.8162 15.4666 19.4506 14.6586C19.6075 14.4602 20.053 14.9291 20.1778 15.2646C20.3667 15.7695 20.9655 15.9787 21.0154 16.5955C21.0332 16.83 20.2383 17.0211 21.0154 17.3169C21.5322 17.5117 21.7318 18.0744 21.7104 18.6587C21.2756 20.4405 21.3718 22.1393 22.4625 23.6867C22.4803 23.8454 22.4589 24.0005 22.3948 24.152C22.0811 24.5163 21.5607 24.4658 21.2078 24.7507C21.1045 24.8626 21.0118 24.9744 20.9298 25.1006C20.0352 26.3847 18.9374 27.5713 19.03 29.3099C18.7057 29.5119 18.31 29.4181 17.9964 29.8221C16.9342 31.1819 15.2126 31.2504 13.851 30.0962C12.9635 28.7797 11.5913 27.7986 11.2562 26.0961C11.1065 25.3459 10.5433 25.7715 10.1049 25.8148C8.79681 25.941 8.36552 25.3603 8.82532 24.1231C9.057 23.5027 9.43839 22.9581 9.73067 22.3702C10.0372 21.7462 11.1956 21.0501 9.50968 20.4657C9.01067 20.2926 9.42413 19.1384 9.777 18.5288C10.1014 17.9661 10.6253 17.5513 11.1279 17.151C9.82334 18.2186 8.72196 19.362 9.58453 21.2773C9.68433 21.4937 9.67007 21.8508 9.43839 21.9193C7.82018 22.3882 8.14097 23.8093 8.02691 24.9419C7.83444 26.8716 6.61187 28.5452 6.70097 30.5543C7.07879 30.3018 7.76315 30.2152 7.08592 29.5587C6.88632 29.364 6.82573 28.9708 7.13939 28.7724C7.40671 28.5993 7.75246 28.6678 7.94849 28.9167C8.47958 29.584 9.12829 29.8978 9.8768 29.7319C10.2119 29.7355 9.90532 29.4253 9.98017 29.6525C9.99799 29.7066 9.94096 29.7066 9.82334 29.7247C8.84314 29.8762 8.21226 29.4073 7.87721 28.5344C7.55285 27.6868 7.84156 26.886 8.23008 26.1214C8.28354 26.0168 8.37265 25.9158 8.48315 25.8761C9.22809 25.602 9.94096 26.6119 10.7786 25.9013C10.9318 25.7715 11.2419 26.6191 11.4558 27.0375C12.0083 28.0943 12.4182 29.162 12.5572 30.3847C12.8103 32.6246 12.8887 32.6138 14.9809 31.7986C16.5029 31.2612 16.5172 32.7689 16.9413 33.465C17.255 33.9772 17.4083 34.7924 17.3334 35.521C17.3227 35.7771 17.2728 36.0223 17.1694 36.2532C17.0839 36.4011 16.9592 36.4984 16.7988 36.5453C16.0823 36.5129 15.4657 36.1774 14.8419 35.8925C14.3322 35.8131 14.8205 36.3397 14.5461 36.4083C14.4106 36.5165 14.2645 36.5706 14.097 36.567C13.5908 36.466 13.1845 36.181 12.7889 35.8672C11.8087 34.8789 10.333 35.2649 9.23879 34.5651C8.79681 34.2838 9.03205 34.7779 8.98215 34.8934C8.81819 35.2757 8.42612 35.6039 8.23008 35.2324C7.5279 33.8834 5.72435 34.2441 5.01861 32.9853C4.94732 32.8374 4.89029 32.6823 4.85108 32.5236C4.66217 31.5281 4.69782 30.4605 3.93148 29.6633C3.86732 29.6742 3.85307 29.4145 3.79247 29.5984C3.75683 29.7102 3.93505 29.8978 3.96713 30.0745C3.97069 30.3198 3.9101 30.5434 3.72831 30.7166C2.91208 31.5065 1.75723 32.1233 2.62693 33.6273C2.85861 34.0277 2.81941 34.7707 2.1707 34.9691C1.73585 35.0845 1.87486 34.374 1.52199 34.2658C1.08714 33.8654 1.24397 33.3388 1.22971 32.8519C0.962385 32.2243 0.859019 31.4091 1.18694 30.969C2.18139 29.6489 1.85347 28.3288 1.52199 26.9582C1.52911 26.3738 1.36159 25.8328 1.12991 25.3026C1.06219 24.9635 1.1905 24.6642 1.30813 24.3648C1.49347 23.8923 1.12991 23.6795 0.866147 23.4198C0.855454 22.5036 0.837633 21.5875 1.52555 20.8553C1.8 20.6677 2.2705 20.6316 2.29901 20.8841C2.45228 22.3485 3.35049 23.6578 3.37544 25.1006C3.64277 24.9996 3.5501 24.4946 3.73901 24.1412C4.06693 23.5244 3.95643 23.4198 3.25782 23.326C2.71248 23.2539 2.42733 22.5505 2.71604 22.0167C3.32911 20.8913 3.11168 19.8922 2.53782 18.8571C2.40951 18.6298 2.45228 18.2691 2.6804 18.0202Z" fill="#F4A396"/>
<path d="M25.5884 7.64317C28.112 7.48808 30.6747 7.03361 32.9702 8.63147C33.3729 9.02101 33.6724 9.63419 34.403 9.28432C38.7515 11.8488 41.6672 15.5387 42.9753 20.4838C43.1606 20.8517 43.239 21.2484 42.9503 21.5731C42.6759 21.8832 42.3587 21.757 42.0949 21.5009C41.9024 21.4288 42.0236 20.9346 41.6208 21.1583C40.965 23.9825 40.965 23.9825 38.8086 22.5541C38.5484 24.3828 38.4985 24.4153 36.4062 24.2169C35.3868 23.2647 35.426 21.8328 34.8343 20.6858C34.0858 18.6875 32.8882 16.967 31.5836 15.3115C29.7837 13.2663 27.8625 11.3691 25.3746 10.1824C24.7223 9.87224 24.3373 9.42859 24.4692 8.65311C24.6332 8.08682 24.929 7.6576 25.5884 7.64317Z" fill="#F4A596"/>
<path d="M30.55 45.4832C27.2352 47.2615 23.735 48.2281 19.9532 47.954C18.6772 47.8602 17.4011 47.7772 16.1928 47.2903C15.5798 46.3742 16.0182 45.6852 16.6669 45.0432C19.0229 44.3435 21.4217 43.7483 23.4284 42.1793C23.6708 41.9882 24.1199 41.9341 24.455 41.9737C25.9948 42.1541 27.007 41.3317 27.8946 40.2316C28.7037 40.0368 29.5235 39.8601 30.0545 39.1675C30.3076 39.063 29.9262 38.8105 30.051 39.0125C30.1009 39.0918 30.0581 39.1171 29.994 39.1748C29.6945 39.4381 29.3738 39.5679 29.0565 39.2469C28.8213 39.0088 28.8641 38.6987 29.0031 38.4137C29.2454 37.916 29.6446 37.5661 30.0795 37.2379C30.493 36.9277 31.106 37.3172 31.4161 36.2748C31.6763 35.3983 32.7492 36.246 33.0629 37.1369C33.4514 38.457 31.9508 38.4462 31.4803 39.4597C32.0185 38.6987 32.6173 38.3416 33.1555 37.9809C33.7686 37.5661 33.0949 37.4074 33.1448 37.1369C33.1234 36.7545 33.3124 36.5057 33.6225 36.3253C34.0894 37.1152 34.7238 36.0079 35.2193 36.4696C35.4581 38.0747 34.4922 39.2649 33.8185 40.5418C32.9916 42.1108 31.744 43.3876 30.771 44.8593C30.6427 45.0432 30.5536 45.2488 30.55 45.4832Z" fill="#FAC8A5"/>
<path d="M1.52199 34.2658C1.78575 34.0746 2.07446 35.1639 2.30614 34.2549C2.35961 34.0385 2.35604 33.7536 2.26337 33.5588C1.44357 31.8816 2.02812 30.8464 3.67485 30.2477C3.73188 30.226 3.72475 30.0313 3.7497 29.9158C3.79247 29.7102 3.91366 29.5876 4.11683 29.5479C5.46058 30.1395 4.9295 31.4343 5.17544 32.4371C4.99366 32.5669 4.94019 32.6895 5.19682 32.7941C5.46058 33.0214 5.75999 33.4758 5.98454 33.4398C7.30691 33.2342 7.86295 34.1179 8.39404 35.1963C9.03918 34.5507 8.16592 34.0133 8.61859 33.3135C9.50968 35.2829 11.9905 33.9231 13.017 35.6797C12.9778 35.9033 12.8423 36.0584 12.6712 36.181C12.3576 36.6932 12.9493 36.686 13.099 36.9349C13.2879 37.0972 13.4269 37.292 13.4946 37.5372C13.32 38.356 14.1861 39.5318 12.821 39.9358C11.741 40.2568 10.6253 40.3218 9.99443 39.0305C9.98017 38.1576 9.2673 37.8907 8.65067 37.548C8.17661 38.4858 8.90018 39.0125 9.45978 39.5823C10.3758 40.5165 11.2384 41.476 11.3417 42.8827C10.8606 43.6978 10.2867 43.8529 9.43483 43.3407C8.42612 42.7384 7.3782 42.1829 6.25187 41.8114C3.90653 39.7843 2.43802 37.2018 1.52199 34.2658Z" fill="#F5AA9E"/>
<path d="M42.9717 32.08C41.5424 37.0178 39.1757 41.2379 34.4102 43.6473C33.626 43.6437 32.767 44.0188 32.1504 43.182C33.5226 41.0792 34.6347 38.8177 35.9642 36.6896C36.146 36.6968 36.1995 36.8591 36.31 36.9529C36.449 37.0719 36.4668 36.8158 36.4811 36.7257C36.5238 36.4407 36.5381 36.1486 36.6557 35.8781C36.9908 35.2793 37.4612 34.7311 38.1456 34.7599C39.8814 34.8284 40.1915 33.4614 40.7404 32.3072C40.9971 31.7626 40.744 30.85 41.6672 30.7959C42.4905 30.7454 42.5939 31.5858 42.9717 32.08Z" fill="#FAC6A3"/>
<path d="M42.9717 32.08C42.9147 32.098 42.8434 32.1449 42.8042 32.1269C42.0806 31.7337 41.4462 31.961 40.9971 32.841C40.3769 34.0602 39.9599 35.4741 38.1064 35.1747C37.5325 35.0809 37.2616 35.7085 36.8838 36.0476C36.563 36.1558 36.4276 35.961 36.3278 35.7013C36.2993 35.5318 36.2993 35.3587 36.3207 35.1891C36.4561 34.6012 36.4561 34.0061 36.4347 33.4073C36.424 33.0538 36.4205 32.6968 36.4205 32.3433C36.4597 31.6291 36.3242 30.8789 36.8553 30.2729C38.0458 29.364 38.8406 28.0186 40.1309 27.2143C41.2608 26.4965 42.5975 26.7021 43.8949 27.7841C43.6204 29.2233 43.7095 30.7418 42.9717 32.08Z" fill="#F8B89B"/>
<path d="M6.8685 8.67836C4.88673 8.72885 2.92277 7.93533 0.901791 8.66393C0.178229 8.92363 -0.2887 8.30324 0.20318 7.6035C2.25268 4.69272 4.15247 1.57996 7.94137 0.634951C8.09107 0.562813 8.24434 0.555599 8.40117 0.613309C8.81819 1.08942 9.18889 1.60882 9.65225 2.04525C9.28869 3.18143 10.914 3.10568 10.8534 4.05791C10.7144 4.16972 10.5647 4.24907 10.3972 4.30318C9.08908 4.41138 7.79523 4.62419 6.50137 4.81536C5.95603 4.80093 5.6994 4.44745 5.51405 3.97855C5.36078 3.59262 5.899 3.36899 5.85266 3.35456C5.13623 3.16339 4.7798 3.57458 4.63009 4.22382C4.56593 4.50877 4.68356 4.80454 4.64791 5.1003C4.45544 5.67019 3.96 5.81447 3.49663 6.0381C4.58376 5.4105 5.70296 4.87307 6.98256 4.837C7.51721 4.97767 8.46176 4.94521 8.31562 5.61248C8.0875 6.66209 7.03602 6.31583 6.25187 6.3014C5.11841 6.04892 4.49821 7.04082 3.6499 7.48447C4.53029 7.10574 5.14336 6.02728 6.30177 6.36272C7.28553 7.51332 7.81305 6.01285 8.59364 5.95875C8.94651 5.97678 9.23879 6.12827 9.49542 6.35911C9.59522 6.50339 9.65225 6.66209 9.67364 6.83523C9.66651 7.00475 9.62017 7.16706 9.53819 7.31495C8.68275 7.83073 8.34057 9.38531 6.8685 8.67836Z" fill="#72A049"/>
<path d="M43.8913 27.7841C43.1428 26.9582 41.7385 28.235 41.1432 26.9077C40.9115 27.07 40.6799 27.2287 40.4482 27.391C39.3575 27.831 39.3575 26.8355 39.1008 26.2837C38.3773 24.7327 38.3666 24.7111 36.8304 25.6705C36.3741 25.6164 36.2708 25.2773 36.2209 24.895C36.2244 24.5992 36.31 24.3359 36.5416 24.1412C37.7179 23.9753 38.609 23.6651 38.2561 22.0816C38.1028 21.3927 38.7658 21.5911 39.026 21.876C39.5393 22.4351 40.3127 22.7237 40.5337 23.6037C40.94 22.5 40.9329 21.4288 41.5032 20.5307C41.628 20.8805 41.7527 21.2304 42.209 20.8661C42.2945 21.1186 42.2695 21.5586 42.6794 21.4107C43.068 21.2701 42.9111 20.812 42.9753 20.4874C43.9911 22.8283 44.148 25.2773 43.8913 27.7841Z" fill="#F6AF9C"/>
<path d="M6.8685 8.67836C7.33899 8.47637 8.20513 9.02823 8.15523 7.81991C8.12671 7.10214 9.0677 7.56021 9.43126 7.1851C9.71641 6.99393 9.79839 8.0724 10.0978 7.34019C10.4542 6.47814 11.021 6.4024 11.773 6.6116C12.1794 6.84605 12.1544 7.43397 12.5928 7.64317C12.9813 7.80548 13.4661 8.1806 13.3128 7.26805C14.3002 6.69095 15.1164 5.70987 16.4352 5.93711C16.8415 5.92268 16.0538 6.86408 16.9948 6.57914C17.59 6.39879 18.6023 6.35911 18.6487 7.34741C18.6629 7.6576 18.973 8.0219 18.7235 8.36095C18.0855 9.02823 16.8772 8.27078 16.396 9.32399C16.2213 9.65222 15.9897 9.91913 15.6546 10.0851C13.4162 10.4349 11.2313 10.2979 9.12473 9.39252C8.37265 9.15086 7.62058 8.91281 6.8685 8.67836Z" fill="#84AA5E"/>
<path d="M6.24118 41.815C7.63127 41.1297 8.54018 42.3813 9.44195 42.9115C10.2511 43.3876 10.6467 42.9692 11.2277 42.8935C11.4808 42.8935 11.7089 42.9801 11.937 43.081C13.4447 44.1198 15.1057 44.6428 16.9342 44.6068C17.0447 44.7583 17.0483 44.9097 16.9306 45.0576C16.699 45.8043 15.9647 46.385 16.1928 47.2867C12.3612 46.421 8.87166 44.9206 6.24118 41.815Z" fill="#F8C1AA"/>
<path d="M10.8784 3.93888C10.3829 3.31488 9.63087 3.76575 9.04275 3.48802C8.77542 2.93255 10.08 2.8532 9.43839 2.18592C9.49542 1.73506 8.51879 1.38158 9.3172 0.862186C9.6772 0.772013 10.0265 0.851365 10.3651 0.948752C10.8998 1.10024 11.3738 1.19041 11.4986 0.436571C12.4681 0.0506316 13.4625 0.804475 14.4249 0.353612C16.5849 0.616916 18.449 1.43568 19.7714 3.2716C19.6609 4.13726 19.0051 3.64672 18.5952 3.76214C18.278 3.83428 18.2459 4.1084 18.1889 4.3681C18.0356 5.25901 17.6791 5.5187 17.0055 4.75043C16.4994 3.63229 15.8827 2.61154 14.7279 2.05968C14.4427 2.00558 14.1647 2.00558 13.9223 2.20756C13.516 2.74499 13.2558 3.41227 12.5857 3.70443C11.9263 3.09126 11.5378 4.5268 10.8784 3.93888Z" fill="#7BA753"/>
<path d="M6.23761 12.9634C7.06097 11.7983 8.16236 11.0012 9.45978 10.4602C10.3616 10.453 11.2419 10.4962 11.6412 11.535C11.7017 11.6721 11.7374 11.8164 11.7588 11.957C12.1473 12.4692 12.4859 11.8092 12.853 11.9029C13.213 11.8849 13.5516 11.939 13.819 12.2167C14.1291 13.1978 13.3307 13.2844 12.7604 13.5008C11.4487 13.9985 10.1263 14.4674 9.08908 15.4846C8.33344 15.9499 7.65622 15.1059 6.91484 15.3584C6.75444 15.3223 6.619 15.2465 6.50137 15.1347C6.10217 14.2438 7.11088 14.1861 7.34612 13.6703C6.58335 14.0635 6.32316 13.6487 6.23761 12.9634Z" fill="#F5A79C"/>
<path d="M6.23761 12.9634C6.76157 13.9553 7.44949 13.3168 8.13384 12.9814C7.99127 14.1176 6.67603 14.1428 6.60117 15.1275C6.81147 15.4521 6.51563 15.8092 6.72236 16.242C6.75444 15.802 6.64395 15.4052 6.95761 15.1311C7.82018 14.3376 8.39047 15.3259 9.09265 15.4882C8.77186 17.3854 7.95206 17.8832 5.53187 17.6523C5.05425 17.5333 4.66574 17.068 4.10257 17.2917C3.58574 17.573 3.36119 17.371 3.3398 16.8228C3.93861 15.2537 4.88316 13.9517 6.23761 12.9634Z" fill="#F49E92"/>
<path d="M2.6804 18.0202C2.74456 18.3665 2.69109 18.8679 2.89782 19.0338C3.96356 19.8994 4.11683 20.7435 3.14376 21.7931C2.81941 22.1393 2.66614 22.6984 3.22574 23.0302C3.96 23.4631 3.65703 22.5758 3.93148 22.3954C4.12752 22.2692 4.28079 22.0167 4.53742 22.1574C4.85821 22.3377 4.80475 22.6551 4.67999 22.9365C4.24871 23.9139 3.79604 24.8806 3.36832 25.8581C3.22218 26.1971 3.05465 26.6408 2.65545 26.4785C2.09228 26.2476 2.44159 25.7931 2.59129 25.4252C3.01901 24.3828 2.35604 21.5406 1.52199 20.8553C1.69307 19.8201 2.18139 18.9184 2.6804 18.0202Z" fill="#F6AEA2"/>
<path d="M1.9604 26.666C2.02456 27.1313 1.93545 27.7228 2.18495 28.0402C2.90139 28.9564 2.69109 29.6525 1.93545 30.3595C1.21189 31.0376 1.21189 31.9429 1.22615 32.8482C0.456248 30.2332 -0.0926608 27.6002 0.548921 24.8626C0.801989 24.4442 1.08714 24.1195 1.60753 24.5055C1.48991 24.7435 1.36872 24.9816 1.2511 25.2196C1.41506 25.739 1.09783 26.5001 1.9604 26.666Z" fill="#F5AA9E"/>
<path d="M17.2799 4.72158C18.1496 5.6233 17.59 4.11922 18.0178 4.27432C18.2851 4.19497 18.4847 4.32482 18.6736 4.48713C19.75 5.53674 21.1579 6.20762 22.0134 7.50611C22.1096 7.61071 22.2059 7.71531 22.3021 7.81991C22.5552 8.15896 22.5053 8.45473 22.1774 8.70721C22.0098 8.75049 21.8459 8.73607 21.689 8.66754C20.1742 7.41594 18.6201 6.24009 16.6098 5.91186C16.1394 5.72069 15.6403 5.60166 15.177 5.38886C14.3322 4.94881 13.1382 5.37082 12.5429 4.31039C12.5109 4.1084 12.5714 3.94609 12.7247 3.81264C13.7192 3.22471 14.7207 3.57458 15.7188 3.791C15.9897 3.82346 16.2605 3.87395 16.5207 3.96773C16.8736 4.11922 17.1053 4.39335 17.2799 4.72158Z" fill="#5C8A39"/>
<path d="M22.0134 7.50611C20.7302 6.64767 19.3829 5.87218 18.392 4.63862C18.7627 4.1589 18.0285 3.71164 18.3528 3.23192C18.8304 3.10208 19.2831 3.85592 19.775 3.2716C21.108 4.36089 21.7924 5.80726 22.0134 7.50611Z" fill="#7BA356"/>
<path d="M21.8993 8.70721C22.2237 8.49801 22.2558 8.15535 22.3057 7.81991C22.4162 7.83073 22.5053 7.87762 22.5801 7.96419C23.2181 8.47637 23.6352 8.05436 23.9916 7.58186C24.373 7.0805 24.8292 6.64406 25.1429 6.0922C27.032 6.09581 26.0732 6.93983 25.592 7.64678C25.3282 7.98222 25.0645 8.31406 24.8007 8.6495C24.594 8.81542 24.5405 9.07151 24.4371 9.29875C24.1057 10.0057 23.5746 10.0201 22.9579 9.73879C22.7227 9.62697 22.4874 9.51516 22.2522 9.40695C22.0063 9.23382 21.7924 9.05347 21.8993 8.70721Z" fill="#94915B"/>
<path d="M9.12116 9.38531C11.3596 9.68108 13.6051 9.80732 15.8613 9.71354C16.2962 9.41417 16.7489 9.28432 17.2407 9.58369C17.4047 9.74239 17.4261 9.91553 17.3049 10.1103C17.2871 10.2077 17.2693 10.3087 17.2514 10.4061C16.5065 10.8281 15.6974 10.9435 14.8633 10.9363C14.1469 10.9687 13.4305 10.9363 12.7247 10.7992C11.9049 10.4385 10.9033 10.7415 10.1691 10.0778C9.81621 9.8506 9.47047 9.61976 9.12116 9.38531Z" fill="#EDDBC9"/>
<path d="M32.2894 43.2614C32.9844 43.449 33.7722 43.1279 34.4102 43.6473C33.2767 44.5887 32.0862 45.4075 30.55 45.4832C30.4145 45.3282 30.2791 45.1694 30.1401 45.0144C31.0633 44.6897 31.245 43.4309 32.2894 43.2614Z" fill="#F8BDA4"/>
<path d="M14.4249 0.350005C13.4233 1.06778 12.272 0.515923 11.2134 0.735944C10.5184 1.0786 9.81977 1.42126 9.43483 0.339184C11.1029 -0.0575757 12.7639 -0.16939 14.4249 0.350005Z" fill="#64933D"/>
<path d="M9.43839 0.335577C9.9374 0.901862 10.6253 0.595275 11.217 0.732337C11.2099 0.974 12.0368 1.17238 11.3311 1.39962C10.579 1.64128 9.83403 1.19041 9.08552 1.06057C8.68275 1.29141 8.54731 0.829724 8.27285 0.739551C8.15523 0.735944 8.0483 0.699875 7.95206 0.638558C8.44037 0.537564 8.93938 0.436571 9.43839 0.335577Z" fill="#92BA6F"/>
<path d="M10.162 10.0814C11.0138 10.1752 11.9192 9.81453 12.7069 10.4097C11.9548 10.7271 11.7445 11.0048 11.5841 11.8813C11.1671 10.9579 10.1798 10.911 9.45621 10.4602C9.69146 10.3339 9.92671 10.2077 10.162 10.0814Z" fill="#F49E92"/>
<path d="M25.1429 6.0886C25.0253 6.93622 24.4621 7.54218 23.9488 8.14093C23.4926 8.67475 22.908 9.00298 22.5766 7.96058C23.8847 7.97501 24.0379 6.36272 25.1429 6.0886Z" fill="#AD8657"/>
<path d="M1.60753 24.5091C1.25466 24.6281 0.901791 24.7471 0.548921 24.8662C0.538228 24.3612 0.431298 23.831 0.862583 23.4234C1.19407 23.4198 1.67882 23.2791 1.82496 23.445C2.11723 23.7697 1.99604 24.2133 1.60753 24.5091Z" fill="#F6B3AA"/>
<path d="M34.3995 9.28792C34.3603 9.72436 34.2426 10.1355 33.6937 10.0057C32.9666 9.83978 32.9702 9.223 32.9702 8.63507C33.5761 8.56294 34.0787 8.71803 34.3995 9.28792Z" fill="#F7BDB0"/>
<path d="M21.5643 18.7344C21.215 18.2294 21.2114 17.4107 20.3382 17.3854C20.2027 17.3818 20.0744 17.2772 19.9389 17.2195C21.7033 16.1086 18.8447 15.8814 19.8605 14.8426C18.6344 15.2105 19.4685 16.3935 18.6059 16.646C17.9999 16.2745 18.695 15.6577 18.4704 15.3547C17.6471 14.6225 17.7219 16.4909 17.1267 15.6974C16.6098 15.0121 17.1302 14.4999 17.7397 13.948C18.7805 13.0103 19.5968 13.4467 20.4914 14.0418C20.6233 14.1464 20.7231 14.2799 20.7908 14.435C20.912 14.8281 20.9726 15.2646 21.4716 15.4521C21.4146 15.0265 20.937 14.7091 21.1793 14.2402C21.2471 14.0851 21.3326 13.9408 21.436 13.8074C21.7104 13.49 22.0063 13.1978 22.3912 13.0103C22.4732 12.9922 22.5552 12.9778 22.6371 12.9634C23.0364 12.9561 23.1682 13.7533 23.7029 13.3241C24.3302 13.0716 24.8185 13.2663 25.1964 13.7966C24.8364 14.4494 25.4031 14.6117 25.7702 14.8786C26.2942 15.3367 27.5453 15.38 26.7112 16.6352C26.6114 16.7867 28.7286 17.068 29.0316 16.6929C29.7338 15.8309 30.6534 15.6361 31.6656 15.6072C33.4621 17.0644 34.1215 19.2358 35.0803 21.216C35.2941 22.1682 35.8751 23.0519 35.6007 24.0907C34.2569 25.0465 33.5761 23.9716 32.8098 23.1601C33.4015 21.3747 31.8795 20.8625 30.9421 20.0004C30.6605 19.7804 30.4644 19.4702 30.1187 19.2394C30.2506 19.9391 30.4288 20.5739 30.8672 21.1222C31.3912 21.7786 31.7298 22.5253 31.9151 23.3621C32.1076 24.235 32.2894 24.9672 31.0597 25.2124C30.9385 25.2377 31.4732 26.3594 31.4197 27.0339C31.3734 27.391 31.1951 27.6687 30.8957 27.8635C29.8549 28.116 29.9904 27.2611 29.8371 26.6913C29.6161 25.8653 29.6553 24.913 28.7286 24.4478C28.2047 24.1087 27.5987 23.9933 27.0213 23.8202C26.7255 23.7588 26.5116 23.9067 26.3227 24.1195C26.1552 24.2854 25.9556 24.39 25.7274 24.4369C23.3536 23.7047 22.4946 22.262 23.0577 19.9824C23.1326 19.6794 23.2467 19.3909 23.5639 19.3187C24.1449 19.1889 24.2411 19.8165 24.6546 20.1086C24.152 19.1204 25.8451 18.4495 24.9005 17.4431C24.8078 18.4495 23.2288 19.986 22.3734 19.8453C21.8174 19.7588 21.3968 19.4305 21.5643 18.7344Z" fill="#F4A393"/>
<path d="M26.9108 23.4234C27.4633 23.7661 28.2973 23.4018 28.693 24.1448C28.7785 24.2386 28.8142 24.3396 28.7999 24.4442C28.7821 24.5524 28.7643 24.6065 28.7393 24.6065C28.6252 24.7327 28.4898 24.8373 28.3437 24.9239C27.752 25.3062 26.9393 24.978 26.394 25.5587C27.0427 25.2269 27.6272 25.2016 27.8696 26.0204C28.055 26.6552 27.8625 27.3477 27.2066 27.4704C25.3888 27.813 25.8664 29.061 26.1409 30.1395C26.312 30.8103 26.6043 31.3766 25.8486 31.8347C24.815 31.3622 23.7171 31.1061 22.3983 30.7598C23.0114 31.676 22.9259 33.2919 24.5476 31.9537C25.0074 31.5714 25.5492 31.8816 25.9306 32.3289C26.0589 33.3135 26.9821 34.2153 26.23 35.2937C25.8843 35.9935 25.535 36.6932 24.6011 36.6896C23.2538 36.9782 22.99 35.842 22.409 35.0593C22.2415 34.832 23.0257 34.1251 22.017 34.3451C21.3112 34.5002 21.0902 34.8357 21.3219 35.4416C21.5215 35.9682 21.8423 36.5381 21.1152 36.769C20.274 37.0323 19.4007 37.3857 18.5346 37.3533C18.0962 37.3388 17.975 36.6644 18.253 36.163C18.4847 35.86 18.7734 35.5679 18.3065 35.0845C18.5203 35.5138 18.6237 35.842 18.2887 36.1269C17.6898 36.4588 17.3298 36.044 16.952 35.6905C16.9734 34.4064 16.3461 33.3208 15.9041 32.1774C15.7366 31.7445 15.4265 32.0042 15.1663 32.08C13.851 31.8419 13.598 31.0664 14.1006 29.9158C15.2946 30.7851 16.8914 30.713 17.7397 29.5804C18.1782 28.9961 18.5845 29.1223 19.0835 29.1945C19.2439 28.9889 19.7108 28.8265 19.529 28.5957C18.8554 27.7445 19.276 27.1638 19.9247 26.6696C20.7124 26.0709 21.3112 26.5867 21.9172 27.2323C21.3718 26.3197 20.4237 25.6849 20.8657 24.5055C21.329 24.3323 21.9029 24.6209 22.2914 24.1448C22.8189 24.7075 24.2732 23.9933 24.1377 25.5226C24.127 25.638 24.2411 25.4144 24.2554 25.3675C24.5156 24.5884 25.3175 24.5488 25.8522 24.1484C25.9734 24.0257 26.091 23.9067 26.2122 23.7841C26.4403 23.6759 26.7183 23.6326 26.9108 23.4234Z" fill="#F5A697"/>
<path d="M18.3564 36.044C18.3813 36.4515 18.2459 37.0214 18.7021 37.1585C19.2439 37.3208 18.7128 36.5165 19.1298 36.4732C19.415 36.4443 19.7393 36.4299 19.9888 36.5381C20.5057 36.7654 21.0154 36.6932 21.2471 36.2676C21.4716 35.86 20.8372 35.8131 20.6625 35.5606C20.2776 35.0016 21.4645 34.3812 20.5841 33.8979C20.994 33.0827 22.0027 35.0629 22.1346 33.4217C22.655 33.5552 22.9152 33.8906 22.8688 34.4389C22.7548 35.8348 23.4391 36.4371 24.7686 36.4047C24.8399 36.4876 24.872 36.5778 24.8649 36.6752C24.8577 36.7726 24.8435 36.8231 24.8257 36.8231C24.6154 37.09 24.3053 37.3316 24.569 37.7392C25.2676 38.6987 25.1607 39.3371 23.9274 39.7014C23.2573 39.8998 22.6478 40.3145 21.9172 40.3398C21.1294 40.365 20.6411 40.9169 20.1243 41.4002C19.2475 42.2226 18.6344 42.2298 18.4277 40.7618C17.9358 41.7898 17.8324 43.0811 16.3069 42.825C16.0146 42.7745 15.6368 42.8322 15.48 42.5905C14.4855 41.0359 12.8067 41.274 11.3524 40.9241C10.4328 40.7654 9.85898 40.109 9.30295 39.4417C9.08909 39.182 8.85384 38.8105 9.22453 38.5436C9.65225 38.237 9.96235 38.5111 10.1548 38.9367C10.6431 39.5355 11.2063 39.7735 12.0118 39.604C12.7711 39.4417 13.8974 39.7447 12.9671 38.3271C12.6712 37.8763 13.2879 37.8005 13.3627 37.4903C13.9687 37.3785 13.1667 36.3145 14.0756 36.4083C14.1932 36.4083 14.3144 36.4083 14.432 36.4083C14.6708 36.2279 14.5318 35.8564 14.7885 35.6869C15.6118 35.5967 16.2356 36.1017 16.9271 36.4083C17.0269 37.209 16.2641 36.8591 15.8792 37.2379C16.5314 37.7356 17.0768 38.3524 18.139 38.0819C17.7896 37.4543 17.2657 36.9926 16.9271 36.4119C16.9271 36.1738 16.9306 35.9322 16.9306 35.6941C17.4083 35.8059 17.8823 35.9249 18.3564 36.044Z" fill="#F6B09D"/>
<path d="M14.0863 29.9122C14.0899 30.8103 14.3251 31.593 15.152 32.0764C14.4249 32.4551 13.2273 33.3099 13.0491 33.1296C12.3612 32.4407 12.1081 31.3694 12.133 30.3378C12.1687 28.7147 10.996 27.5786 10.6752 26.1322C9.95522 26.1863 10.358 26.8752 9.99086 27.0736C9.44908 26.8932 9.21027 25.5515 8.57226 26.3234C8.05899 26.9437 7.75246 28.0547 8.46889 28.9853C9.29938 30.0637 10.0301 29.4 10.8855 28.7111C10.0408 30.3054 9.45265 30.3162 7.12157 28.8554C7.39959 29.6886 8.3976 30.1755 7.89859 30.9546C7.77028 31.153 6.77939 30.19 6.80791 31.5714C5.7885 30.2513 6.28751 28.9816 6.70454 27.9068C7.23563 26.5362 7.74889 25.317 7.29622 23.7624C7.13939 23.2286 8.06968 22.565 7.9984 21.6308C7.96275 21.1907 8.77899 21.8219 9.22809 21.7245C8.4582 19.3187 9.2174 17.7786 12.2293 15.9318C11.6911 17.7137 9.48116 18.2908 9.63087 20.271C10.1762 20.8192 10.6752 19.3909 11.1101 20.1628C11.4309 20.7363 10.8606 21.2845 10.5968 21.7967C10.1905 22.583 9.64869 23.3044 9.29582 24.1123C9.14611 24.4514 8.47958 24.8409 9.1176 25.3278C9.54532 25.6561 10.0301 25.6885 10.4186 25.3206C11.2313 24.5524 11.5128 24.9347 11.6269 25.8256C11.8336 27.5605 13.4269 28.4478 14.0863 29.9122Z" fill="#F5AC9F"/>
<path d="M25.8379 24.1484C25.8629 24.354 26.1338 24.7255 25.8522 24.7363C24.6653 24.7796 24.4371 25.5587 24.43 26.5506C23.6423 26.1502 23.8312 25.4541 23.8597 24.8842C23.1754 24.5307 23.3892 25.9122 22.6585 25.3711C22.2023 25.0357 22.876 24.3937 22.2736 24.1448C22.2629 23.6218 21.8815 23.5208 21.4894 23.3368C21.0082 23.1132 19.8962 22.8679 21.272 22.2187C20.8158 21.4576 21.4395 20.5307 20.9583 19.8129C20.3809 18.9436 21.2328 19.0158 21.5607 18.7344C22.2237 20.5595 23.2502 19.0518 23.9132 18.8462C25.3532 18.4026 23.9274 17.3638 24.2268 16.1338C24.9255 17.2159 26.7397 17.371 25.1999 19.0482C25.0859 19.1745 24.9861 19.3656 24.9825 19.5315C24.9682 19.8814 25.0217 20.2313 25.0502 20.5812C24.9468 20.5523 24.8185 20.4657 24.7437 20.4982C23.7742 20.9671 24.2447 19.6902 23.7171 19.6361C23.0292 21.8183 23.767 23.3873 25.8379 24.1484Z" fill="#F6AC9A"/>
<path d="M25.1322 14.0274C24.6546 13.793 24.1769 13.5585 23.7029 13.3277C24.8613 12.6604 23.8348 11.1311 24.8292 10.3989C25.1358 10.1283 25.4958 10.0923 25.813 10.3051C27.613 11.5134 29.6446 12.4692 30.5749 14.655C29.0423 14.4278 27.6914 16.0761 26.0874 15.0987C25.6455 14.8534 25.2142 14.5973 25.1322 14.0274Z" fill="#F39B8A"/>
<path d="M14.7992 10.4782C15.6154 10.453 16.4316 10.4313 17.2479 10.4061C16.3104 11.2104 15.6974 12.1085 16.0716 13.4647C16.2498 14.114 15.7829 14.435 15.2661 14.0599C13.5303 12.8047 12.1509 14.0094 10.8035 14.7596C10.2368 15.0734 9.65582 15.2285 9.09265 15.4846C9.49186 13.728 11.274 14.1284 12.3291 13.389C12.8316 13.0391 13.6301 13.0968 13.7227 12.2384C13.8475 11.5098 14.7813 11.2789 14.7992 10.4782Z" fill="#F49E92"/>
<path d="M30.5215 14.7632C28.9532 12.8696 27.2779 11.113 24.8292 10.3952C24.6653 10.287 24.4977 10.1788 24.3302 10.0706C24.209 9.68829 24.1449 9.31317 24.4478 8.97412C24.5655 8.86231 24.6795 8.7541 24.7971 8.64229C24.6795 9.2771 24.9468 9.54401 25.5457 9.81814C28.1227 11.0012 30.1686 12.8804 31.9009 15.1239C31.8545 15.3764 31.7084 15.5315 31.4696 15.6072C30.9599 15.5495 30.5999 15.3151 30.5215 14.7632Z" fill="#FCE3D6"/>
<path d="M20.8514 24.5055C20.8871 25.9518 22.7084 26.6768 22.4162 28.2783C21.3504 28.2747 21.4395 25.703 19.8463 27.1818C18.9908 27.9753 19.7108 28.3721 20.5306 28.7724C19.9425 28.942 19.5077 29.0682 19.0728 29.1945C18.4704 28.116 18.6487 27.2034 19.529 26.327C20.0494 25.8004 20.413 25.115 20.8514 24.5055Z" fill="#F6AC9A"/>
<path d="M16.8095 24.7399C15.9611 25.2918 14.5283 25.4072 15.8685 26.4243C15.5726 26.6768 15.3053 26.9942 14.9667 27.1638C14.3928 27.4487 13.9901 26.9257 13.5231 26.7237C13.1275 26.5542 13.0134 26.244 13.2451 25.8581C13.6265 25.2124 13.8475 24.3756 14.931 24.7219C15.3481 24.8517 15.8328 24.7399 16.8095 24.7399Z" fill="#F39A8E"/>
<path d="M20.4985 14.4025C20.4985 14.2835 20.4985 14.1645 20.495 14.0454C20.5627 13.4178 20.2954 12.8912 20.0138 12.361C19.889 12.1266 19.5005 11.9246 19.7679 11.6108C19.996 11.3439 20.4059 11.0914 20.7017 11.3114C21.3789 11.8128 22.737 11.5314 22.6336 12.9634C22.1488 13.1942 21.796 13.5585 21.5607 14.0418C20.9976 13.526 21.0082 14.7524 20.4985 14.4025Z" fill="#F6B3A4"/>
<path d="M4.10257 17.2917C4.94376 15.9318 5.16831 17.0752 5.53187 17.6523C6.18771 18.8462 5.51049 19.766 4.9295 20.8372C4.26297 20.2529 4.25584 19.4666 4.6194 19.0663C5.53187 18.0491 4.53386 17.793 4.10257 17.2917Z" fill="#F6B0A3"/>
<path d="M17.3013 10.1139C17.2978 9.98406 17.2906 9.8506 17.2871 9.72075C17.6257 8.84788 18.5203 8.96691 19.1619 8.63507C20.078 8.37177 20.9976 7.92451 21.8958 8.67836V8.71082C22.0134 8.94166 22.1274 9.1725 22.2451 9.40695C20.5057 8.97773 18.9801 10.0742 17.3013 10.1139Z" fill="#EFDBCB"/>
<path d="M14.0792 36.4047C13.2023 36.3361 15.3481 38.3019 13.3663 37.4867C13.2487 37.3677 13.1275 37.2451 13.0099 37.126C12.7354 36.8195 12.3897 36.5345 12.6534 36.044C12.7711 35.9249 12.8922 35.8023 13.0099 35.6833C13.3663 35.9249 13.7227 36.163 14.0792 36.4047Z" fill="#F5A697"/>
<path d="M1.9604 26.666C1.73941 26.7995 1.51842 26.9329 1.29743 27.0664C0.980206 26.4568 0.570307 25.8545 1.2511 25.2196C1.89624 25.4974 1.99961 26.0492 1.9604 26.666Z" fill="#F6B3AA"/>
<path d="M9.86611 30.6552C10.3722 30.6697 10.5968 31.0232 10.6396 31.4452C10.6717 31.759 10.4079 32.0619 10.0942 31.8888C9.75918 31.7049 9.39205 31.3911 9.27087 31.052C9.15324 30.7166 9.57027 30.6589 9.86611 30.6552Z" fill="#F6B0A4"/>
<path d="M16.5992 12.7506C17.0946 12.0941 17.4902 11.7839 18.0784 12.04C18.1603 12.0761 18.2209 12.3863 18.1603 12.4873C17.8075 13.0607 17.3085 12.9922 16.5992 12.7506Z" fill="#F7B9AC"/>
<path d="M4.11326 29.5479C3.99208 29.6706 3.86732 29.7932 3.74614 29.9158C3.0796 29.5588 2.87644 29.043 3.24356 28.2639C3.9493 28.4262 4.0099 29.0033 4.11326 29.5479Z" fill="#F7BAAC"/>
<path d="M14.792 35.6833C14.7849 35.979 14.7243 36.2496 14.4356 36.4047C14.3643 36.1305 14.3002 35.8564 14.2182 35.5895C14.1255 35.2793 14.1718 34.9114 14.4748 34.9114C15.0059 34.9042 14.6958 35.4092 14.792 35.6833Z" fill="#F5A697"/>
<path d="M10.4792 33.1079C10.8926 33.3821 11.2241 33.4831 11.3204 33.6959C11.4237 33.9231 11.1457 34.089 10.9033 34.0241C10.6467 33.952 10.333 33.8762 10.3081 33.5336C10.301 33.3965 10.4186 33.2486 10.4792 33.1079Z" fill="#F5A697"/>
<path d="M22.2772 24.1448C21.9635 24.9167 21.4467 24.8698 20.8514 24.5055C21.2257 23.9753 21.7853 24.1953 22.2772 24.1448Z" fill="#F6AC9A"/>
<path d="M24.4478 8.97773C24.4086 9.34203 24.3694 9.70633 24.3302 10.0742C23.849 10.0598 23.3358 10.1644 22.9544 9.73879C23.6387 9.86142 24.0201 9.37088 24.4478 8.97773Z" fill="#9FA068"/>
<path d="M5.19326 32.7941C5.05781 32.9961 4.8796 33.1404 4.65148 32.9781C4.44831 32.8302 4.39128 32.5453 4.57663 32.401C4.69425 32.3072 4.96871 32.4226 5.17187 32.4407C5.17187 32.5561 5.179 32.6751 5.19326 32.7941Z" fill="#F8C1B6"/>
<path d="M35.8252 15.4882C35.3084 17.4828 37.5896 18.6587 37.2616 20.7254C35.647 20.0834 35.5971 18.4206 34.927 17.2231C34.6133 16.6641 34.542 16.0653 33.7686 15.7876C32.4498 15.3151 33.8434 14.049 33.1377 13.2519C32.906 13.5441 32.6708 13.8398 32.3001 14.3051C32.2324 13.3277 32.5674 12.5125 31.7191 11.5639C33.5904 12.2059 34.2034 13.7244 35.451 14.4169C35.0767 14.958 35.5793 15.178 35.8252 15.4882Z" fill="#F6AF9F"/>
<path d="M31.5337 15.5062C31.6549 15.38 31.7797 15.2537 31.9009 15.1275C33.2945 16.7254 34.4886 18.4495 35.1195 20.5162C35.3084 20.9238 35.4224 21.2953 34.7488 21.2593C33.7223 19.4342 33.1413 17.3421 31.5872 15.8309C31.4411 15.7804 31.384 15.7154 31.4161 15.6397C31.4518 15.5495 31.491 15.5062 31.5337 15.5062Z" fill="#FDECE0"/>
<path d="M34.7488 21.2593C35.0518 21.1042 35.0981 20.8192 35.1195 20.5198C35.5935 21.7281 36.064 22.9365 36.5381 24.1448C36.531 24.39 36.5274 24.6317 36.5203 24.877C36.1104 25.3026 36.7306 26.0204 36.0997 26.3811C35.0767 25.8653 35.369 24.978 35.4759 24.1412C35.2335 23.1817 34.9912 22.2187 34.7488 21.2593Z" fill="#FCDFCC"/>
<path d="M39.7389 19.0915C39.689 19.4161 39.8494 20.0149 39.4288 19.9644C38.8371 19.8958 38.6161 19.2646 38.3987 18.702C38.9975 18.5108 39.3147 18.9833 39.7424 19.0951L39.7389 19.0915Z" fill="#F8BCAD"/>
<path d="M41.1717 19.4594C41.2501 18.9328 40.6193 18.5 41.047 17.7606C41.3428 18.399 42.4691 18.7597 41.1646 19.4522L41.1717 19.4594Z" fill="#F8C3B5"/>
<path d="M41.1646 19.4486C40.3305 20.7904 40.2913 18.8895 39.7389 19.0915L39.7424 19.0987C40.5159 18.0094 40.6299 19.6001 41.1717 19.4594L41.1646 19.4486Z" fill="#F8BCAD"/>
<path d="M33.5975 10.7307C34.6205 11.0842 34.9876 11.4809 35.3333 12.1771C34.5314 12.0508 34.2426 11.5242 33.5975 10.7307Z" fill="#F9C2B3"/>
<path d="M29.306 10.9796C29.7801 10.8173 30.0617 11.1166 30.2934 11.416C30.4074 11.5639 30.2506 11.7731 30.0652 11.7442C29.6553 11.6829 29.3666 11.4521 29.306 10.9796Z" fill="#F8BCAB"/>
<path d="M35.8252 15.4882C35.3975 15.4593 34.9912 15.3367 34.8914 14.8714C34.8058 14.4602 35.1694 14.453 35.451 14.4206C35.5793 14.7776 35.704 15.1347 35.8252 15.4882Z" fill="#FAD0C2"/>
<path d="M42.2054 20.8661C42.0343 21.014 41.8632 21.1655 41.6921 21.3134C41.628 21.0537 41.5638 20.7904 41.4996 20.5307C41.9773 20.1231 42.0307 20.6244 42.2054 20.8661Z" fill="#FACFC2"/>
<path d="M24.7722 36.7654C24.7722 36.6463 24.7722 36.5237 24.7722 36.4047C25.9734 36.567 25.0823 35.1386 25.8415 34.9655C26.3476 35.0665 26.7682 35.7085 27.392 35.1026C27.8981 34.612 28.3579 35.1567 28.8213 35.3406C28.9639 35.4308 29.0886 35.5426 29.1991 35.6725C29.3452 35.9394 29.5056 36.3001 29.3524 36.5201C28.554 37.6887 28.8605 39.2469 27.9801 40.3723C27.4276 41.8872 26.4118 42.6446 24.7686 42.3525C23.3286 42.0964 22.5053 43.3732 21.4502 43.9179C19.9639 44.6825 18.5096 44.9675 16.9342 45.0612C16.9342 44.9422 16.9306 44.8232 16.9306 44.7042C17.0376 44.4589 17.23 44.2533 17.2586 43.9683C17.2372 43.5283 17.2621 42.9656 17.836 43.1135C19.3259 43.4922 19.8178 42.4066 20.413 41.4579C20.8015 40.8448 21.1936 40.2532 21.9207 40.0116C22.8867 40.1486 23.5211 39.3263 24.3837 39.0738C25.3674 38.7852 24.2268 38.2766 24.0629 37.8474C24.1912 37.4182 24.6118 37.1765 24.7722 36.7654Z" fill="#F8BCA0"/>
<path d="M27.9801 40.3723C27.449 39.9755 27.8304 39.6797 28.087 39.3659C28.3757 39.0052 28.9924 38.6229 27.8268 38.6987C27.2565 38.7347 27.5666 38.2875 27.8803 38.0638C28.693 37.4867 29.2241 36.7581 29.0494 35.6797C29.5805 34.6048 30.5179 35.2829 31.2486 35.1026C31.024 34.8934 30.5714 34.594 30.8173 34.2477C31.9757 32.6318 32.6993 30.63 34.5278 29.602C35.1622 29.2449 35.9963 28.9816 36.4953 29.9627C36.563 31.5065 36.6058 33.0466 36.2743 34.5651C36.1104 35.3226 35.9571 36.0945 35.0981 36.3974C34.6276 36.7365 34.1571 37.1369 33.683 36.3974C33.3444 36.4407 33.2197 36.7004 33.1128 36.9746C33.0593 37.0251 33.0094 37.0755 32.9559 37.126C32.5817 36.8591 32.407 36.3433 31.8831 36.2568C31.6122 36.2135 31.3947 36.3217 31.327 36.5598C31.213 36.9673 31.5124 36.8483 31.7405 36.8555C32.1432 36.87 32.0399 37.108 31.8688 37.2992C31.6763 37.5156 31.4375 37.851 31.1488 37.7031C29.6696 36.9493 29.748 38.4029 29.0779 38.962C29.969 39.4092 29.9476 38.374 30.4716 38.3704C30.4965 38.475 30.5785 38.6085 30.5393 38.677C29.9975 39.723 29.5484 40.9277 27.9801 40.3723Z" fill="#F9C4A1"/>
<path d="M35.0981 36.4047C36.2601 34.2513 36.2209 31.9032 36.1781 29.5551C36.0213 29.4037 35.9072 29.2233 35.8252 29.0177C35.6791 28.1557 35.5009 27.2828 36.2565 26.5867C37.5325 27.4415 36.9979 28.7147 36.8874 29.8184C36.7983 30.7021 36.5523 31.5534 36.8731 32.4298C36.866 32.7797 36.8624 33.1332 36.8553 33.4831C36.4775 34.0457 36.9373 34.7671 36.5238 35.3226C36.5096 35.4308 36.506 35.539 36.5131 35.6436C36.2636 35.9538 36.6022 36.4984 36.1032 36.7112C35.2193 39.1279 33.8434 41.2487 32.2858 43.2614C31.6335 43.9251 31.2165 44.8881 30.1365 45.0144C32.0149 42.2731 34.403 39.8384 35.0981 36.4047Z" fill="#FDEBD4"/>
<path d="M33.3266 37.1297C34.1856 37.8691 33.3266 38.1901 32.9417 38.54C32.2395 39.1784 32.0541 39.3695 31.8902 40.0945C30.8672 39.2505 30.8565 39.2325 31.8438 38.5977C32.4034 38.2406 32.931 37.8943 32.9559 37.1333L32.9631 37.126C33.0878 36.9601 33.209 36.9529 33.3266 37.1297Z" fill="#F9C4A1"/>
<path d="M33.3266 37.1297C33.2054 37.1297 33.0878 37.126 32.9666 37.126C33.0557 36.7329 32.7207 35.9105 33.683 36.4047C33.5654 36.6463 33.4442 36.888 33.3266 37.1297Z" fill="#F2AD84"/>
<path d="M10.1584 38.9295C9.90888 38.8285 9.65938 38.7311 9.15324 38.5255C9.8269 39.723 10.6396 40.3037 11.5841 40.7293C12.2114 41.4615 13.6229 40.87 13.933 42.1469C13.5766 43.4417 12.6142 43.4165 11.5841 43.2542C11.4665 43.1352 11.3453 43.0125 11.2277 42.8935C10.5255 41.5265 9.74492 40.2099 8.51166 39.2577C7.76671 38.6806 7.73107 38.1288 8.23364 37.3352C8.44394 37.007 8.46889 36.8231 8.76473 37.1549C9.26374 37.7212 10.9247 37.3569 10.1584 38.9295Z" fill="#F4A594"/>
<path d="M12.6534 36.044C12.7711 36.4047 12.8922 36.7654 13.0099 37.126C12.6998 36.989 12.3576 36.9024 12.0938 36.704C11.8372 36.5129 11.4879 36.1955 11.8621 35.8672C11.9869 35.759 12.3825 35.9754 12.6534 36.044Z" fill="#F6B09D"/>
<path d="M36.1104 36.7112C36.1959 36.3361 36.1317 35.8997 36.5203 35.6472C36.6414 35.7807 36.7662 35.9141 36.8874 36.0512C36.8624 36.4948 36.9801 37.0034 36.4347 37.2198C36.3955 37.2306 36.2209 36.888 36.1104 36.7112Z" fill="#F2A789"/>
<path d="M36.8553 25.6489C36.8054 24.6714 37.3543 24.5127 38.1919 24.4766C39.083 24.4369 39.1472 24.8373 39.3147 25.5839C39.4573 26.2224 39.4537 27.2034 40.4517 27.391C40.5052 28.3721 38.8406 27.8707 39.0795 29.0141C37.9674 28.9167 38.0102 29.5768 37.9995 30.428C37.9959 30.7851 37.4506 30.529 37.2224 30.2332C36.6735 28.74 36.5416 27.2143 36.8553 25.6489Z" fill="#F5A996"/>
<path d="M36.8553 25.6489C36.9801 27.1782 37.1012 28.7039 37.226 30.2332C36.7092 30.9005 37.0478 31.7049 36.8803 32.4262C36.1888 31.4127 36.6985 30.2657 36.5416 29.1945C36.4169 28.354 36.8482 27.4307 36.1888 26.666C36.1104 26.6011 36.0783 26.5289 36.0925 26.4532C36.1068 26.3738 36.1282 26.3342 36.1496 26.3342C36.2565 25.8436 35.9856 25.2521 36.5238 24.877C36.6343 25.1331 36.7448 25.3928 36.8553 25.6489Z" fill="#FFF6E9"/>
<path d="M36.531 35.3226C36.5844 34.6986 36.3456 34.0205 36.8624 33.4831C36.8125 34.1071 37.1298 34.7996 36.531 35.3226Z" fill="#FAC6A3"/>
<path d="M12.6534 4.314C13.5053 4.90914 14.6316 4.41499 15.4764 5.04259C15.5299 5.97678 14.6958 6.10663 14.1611 6.48896C13.6978 6.8208 13.0027 6.84965 12.8637 7.57825C12.7675 7.79827 12.657 8.00386 12.3612 7.93533C11.7695 7.74417 11.634 7.37266 11.9299 6.82801C11.0994 5.91546 10.2796 7.43758 9.44908 6.84244C9.44552 6.7162 9.44195 6.59356 9.43839 6.46732C10.1085 5.13637 11.021 4.17693 12.6534 4.314Z" fill="#7AAA51"/>
<path d="M6.98612 5.06784C5.46415 5.41771 4.0491 6.07417 2.4701 6.96868C2.83366 5.66659 3.97425 5.72791 4.45544 5.02816C4.95801 4.53402 5.51049 4.27793 6.20197 4.62058C7.60275 4.18054 9.0071 3.78017 10.5006 3.95331C10.4614 4.8911 9.59522 4.67108 9.10691 4.97767C8.40473 5.04259 7.70612 5.36361 6.98612 5.06784Z" fill="#598935"/>
<path d="M6.98612 5.06784C7.68473 4.92717 8.38691 4.79011 9.08552 4.64944C9.5774 4.44745 10.0586 4.35007 10.6218 4.84421C10.1014 5.47903 9.63087 6.08138 8.73978 6.12466C8.06968 6.69456 7.39602 7.26445 6.7081 7.84877C6.21266 7.47004 6.90414 6.73423 6.2483 6.47093C6.14494 6.39518 6.10929 6.31583 6.14137 6.23648C6.17345 6.15713 6.2091 6.11745 6.24118 6.11745C6.77583 5.71348 7.55998 6.3519 8.08394 5.58363C7.83087 5.21572 7.18216 5.54035 6.98612 5.06784Z" fill="#7CAC55"/>
<path d="M8.74334 6.12106C9.24235 5.71348 9.74492 5.3095 10.2618 4.8911C9.8875 4.48713 9.45265 4.75404 9.08908 4.64944C9.40988 4.10119 10.2012 4.53402 10.5077 3.95691C10.6324 3.95331 10.7572 3.94609 10.8819 3.94249C11.8621 3.93888 11.2633 3.20307 11.3774 2.78106C11.9905 2.78467 12.1509 3.46637 12.6534 3.59622C12.7354 3.66115 12.7675 3.72968 12.7461 3.80542C12.7247 3.87756 12.6998 3.91724 12.6748 3.91724C12.6712 4.05069 12.6641 4.18776 12.6606 4.32121C11.3988 4.75043 10.4899 5.71348 9.44552 6.47454C9.15324 6.46371 8.89305 6.406 8.74334 6.12106Z" fill="#66993B"/>
<path d="M6.20553 4.62058C5.62454 4.75765 5.03999 4.8911 4.459 5.02816C3.77109 4.29957 4.04198 3.7946 4.67643 3.13093C5.52118 2.25085 6.14494 3.41227 6.87563 3.21028C6.89345 3.20668 7.0681 3.52408 7.04315 3.67197C6.98969 3.99298 6.71523 3.92445 6.49424 3.87756C5.00791 3.57097 6.30533 4.37531 6.20553 4.62058Z" fill="#7EAC58"/>
<path d="M6.24118 6.11384C6.24118 6.23287 6.24474 6.3519 6.2483 6.46732C5.49623 6.48175 4.98296 6.94343 4.53742 7.46283C4.01703 8.06518 3.37544 7.90287 2.43446 7.85237C3.75683 6.96508 4.71207 5.94793 6.24118 6.11384Z" fill="#699641"/>
<path d="M9.45265 6.84244C10.1726 6.6152 10.8819 6.32305 11.6198 6.17516C12.2507 6.04531 12.0368 6.50339 11.9334 6.82801C11.0566 6.85687 9.8376 6.61881 10.9853 8.177C10.055 8.40423 9.54888 8.09764 9.43126 7.1851C9.43839 7.06967 9.44552 6.95786 9.45265 6.84244Z" fill="#8EB76C"/>
<path d="M8.26572 0.739551C8.53661 0.847758 8.8075 0.952359 9.07839 1.06057C9.0677 1.47897 9.89819 1.61964 9.43839 2.18592C8.82176 1.89015 8.29424 1.52225 8.26572 0.739551Z" fill="#9BBF79"/>
<path d="M21.8993 8.67475C20.9013 8.23831 20.0459 8.97773 19.1085 9.02462C18.7841 9.20496 18.6487 9.00659 18.5453 8.73967C18.5346 8.55572 18.5952 8.40062 18.7199 8.27078C18.5417 7.14903 17.8289 6.79194 16.7881 6.84605C15.79 6.90015 16.3104 6.46371 16.5778 6.11745C16.4851 6.03449 16.4566 5.95153 16.4851 5.86857C16.5136 5.78562 16.5457 5.74233 16.5742 5.74233C18.8732 5.73873 20.5734 6.86047 21.8993 8.67475Z" fill="#76A154"/>
<path d="M16.5706 5.74233C16.5706 5.86497 16.5742 5.99121 16.5742 6.11384C15.2732 6.02728 14.5853 7.43397 13.3413 7.48086C13.156 7.72974 12.9386 7.75499 12.6926 7.58186C12.2827 6.88572 12.739 6.64045 13.2772 6.45289C14.1219 6.15713 14.8419 5.66659 15.48 5.03899C15.8399 5.27704 16.2071 5.51149 16.5706 5.74233Z" fill="#67993E"/>
<path d="M18.7057 8.63868C18.8376 8.76492 18.973 8.89477 19.1049 9.02101C18.4989 9.25185 17.893 9.4863 17.2871 9.71715C16.813 9.71715 16.3354 9.71715 15.8613 9.71354C15.9825 9.47548 16.1001 9.23743 16.2213 8.99937C16.9592 8.23831 17.8574 8.62425 18.7057 8.63868Z" fill="#8CAD68"/>
<path d="M18.7057 8.63868C17.9251 9.09676 17.0233 8.7 16.2213 8.99937C15.8471 8.61343 16.0039 8.35013 16.453 8.31406C17.2051 8.25274 17.9607 8.27799 18.7164 8.26717C18.7128 8.39341 18.7092 8.51605 18.7057 8.63868Z" fill="#99BF77"/>
<path d="M12.6891 7.58546C12.9065 7.553 13.1239 7.51693 13.3378 7.48447C13.6051 7.56021 13.9687 7.55661 14.1112 7.73335C14.2681 7.92812 13.9794 8.14093 13.7619 8.1806C13.2736 8.27799 12.739 8.52687 12.3612 7.93533C12.4716 7.81991 12.5821 7.70449 12.6891 7.58546Z" fill="#BED4A7"/>
<path d="M11.5877 43.2542C12.3825 42.8971 13.5837 43.164 13.7227 41.815C14.8491 42.9404 16.6384 43.0125 17.6399 44.3399C17.4867 44.632 17.2194 44.6897 16.9271 44.7006C14.7992 45.5374 13.1952 44.394 11.5877 43.2542Z" fill="#F6B29B"/>
<path d="M12.6712 3.91002C12.6677 3.80542 12.6606 3.69722 12.6534 3.59262C13.0063 2.99026 13.3627 2.39152 13.7156 1.78916C14.7279 2.35905 15.79 2.88566 15.8364 4.29236C14.8063 3.94609 13.7406 3.91363 12.6712 3.91002Z" fill="#82AA5E"/>
<path d="M15.8364 4.29236C15.1306 3.45916 14.4213 2.62236 13.7156 1.78916C14.0756 1.21927 14.4463 1.69177 14.8134 1.77473C15.5584 2.50694 16.699 2.9578 16.5778 4.30678C16.3318 4.29957 16.0823 4.29596 15.8364 4.29236Z" fill="#6C9746"/>
<path d="M16.5778 4.30678C16.2641 3.26799 15.2875 2.6981 14.8134 1.77473C16.232 2.24724 16.9984 3.27521 17.2799 4.72158C17.0483 4.58091 16.813 4.44385 16.5778 4.30678Z" fill="#8DB46B"/>
<path d="M18.3492 3.22832C18.3029 3.70082 19.7251 4.13004 18.3885 4.63501C18.2637 4.51238 18.139 4.39335 18.0178 4.27071C17.7932 3.81624 17.4403 3.31488 18.3492 3.22832Z" fill="#99BE7E"/>
<path d="M14.7992 10.4782C15.9754 12.0256 13.8582 11.5134 13.7227 12.242C13.3663 12.2384 13.0134 12.2384 12.657 12.2348C12.3647 11.9174 11.8835 12.1771 11.5841 11.8777C11.4237 10.9687 11.4202 10.1824 12.7069 10.4061C13.4055 10.4313 14.1041 10.4566 14.7992 10.4782Z" fill="#F39788"/>
<path d="M6.95404 15.1275C6.95761 15.2429 6.99325 15.3692 6.95761 15.4738C6.77226 16.0617 7.94137 16.2998 7.33543 16.9779C7.16434 17.169 6.92553 17.2231 6.73305 17.0247C6.16632 16.4368 6.17345 15.7912 6.59761 15.1239C6.71523 15.1275 6.83642 15.1275 6.95404 15.1275Z" fill="#F4A396"/>
<path d="M11.5877 11.8813C12.0475 11.6829 12.5679 11.3042 12.6606 12.2384C12.4645 12.3718 12.2649 12.5017 12.076 12.6423C11.7837 12.8588 11.4273 13.1365 11.1635 12.7866C11.0709 12.664 11.4309 12.1915 11.5877 11.8813Z" fill="#F49E92"/>
<path d="M28.6894 35.6833C28.2296 35.878 27.8304 34.5976 27.1674 35.8023C26.7789 36.5093 26.3726 35.1639 25.8379 34.9655C26.7789 34.6301 26.0019 33.7824 25.9306 33.7103C25.4886 33.263 25.6027 32.8807 25.8415 32.4407C25.9876 32.3469 26.1266 32.3541 26.255 32.4767C26.4831 32.6679 26.754 32.7148 27.0391 32.7292C26.8003 32.5705 26.4724 32.6932 26.2478 32.4767C26.0197 32.2747 25.6348 32.1593 25.8415 31.7193C25.9449 31.3947 26.3369 30.9835 26.0055 30.7382C24.5405 29.6561 26.0767 28.354 25.7132 27.1926C25.6312 26.9365 26.0874 26.6732 26.3583 26.8788C26.7896 27.207 27.1496 27.4703 27.4847 26.8283C27.6557 26.5001 27.7021 26.0997 27.4241 25.8256C26.9714 25.3783 26.5544 25.8292 26.1338 25.9771C25.9235 26.0528 25.7203 26.1502 25.2142 26.363C26.0981 25.0249 27.1852 24.7147 28.333 24.5091C28.5326 24.7507 28.668 25.0429 28.8641 25.2882C28.7856 25.0357 28.4862 24.8301 28.6894 24.5091C28.6894 24.39 28.6894 24.2674 28.6894 24.1484C29.8336 23.9969 29.7872 24.9744 30.0688 25.638C30.3611 26.327 30.0332 27.2467 30.8244 27.7517C31.0597 28.0511 31.0953 28.4406 31.2736 28.7688C31.3163 28.9239 31.3235 29.0826 31.2985 29.2413C31.1238 29.9988 30.8031 30.6589 30.2934 31.2648C29.9155 31.7157 29.5555 32.2206 30.0973 32.9492C30.4965 33.4831 30.4466 34.2441 29.5876 34.5002C28.9746 34.6806 28.8284 35.1603 28.6894 35.6833Z" fill="#F6AC9A"/>
<path d="M36.146 26.3342C36.1496 26.446 36.1603 26.5578 36.1852 26.666C36.1816 27.5064 36.1745 28.3468 36.171 29.1872C34.0217 29.6237 32.6708 28.1737 31.188 27.0303C31.024 26.5867 30.8387 26.1466 30.7033 25.6957C30.3183 24.4045 30.3254 24.4045 31.6692 24.6678C31.9508 22.5289 30.0688 21.2845 29.527 19.4702C29.4343 19.16 28.8747 18.9256 29.3167 18.536C29.6446 18.2475 29.944 18.5433 30.1971 18.8282C30.5072 19.1745 30.853 19.4883 31.1844 19.8129C31.6157 20.9851 33.0308 21.6019 32.9631 23.0555C33.7864 23.445 34.3531 24.455 35.4759 24.1412C36.1282 24.7363 35.4937 25.7354 36.146 26.3342Z" fill="#F5AB98"/>
<path d="M31.188 27.0303C31.6763 26.9978 32.2751 27.0051 32.5139 27.391C33.3836 28.7833 35.0019 28.5019 36.171 29.1872C36.1745 29.3099 36.1745 29.4289 36.1781 29.5515C34.0894 29.3279 33.6011 31.6327 32.0042 32.2495C32.1326 32.8915 33.1876 32.2098 33.1056 32.9637C33.0272 33.6995 32.3286 33.2125 31.9793 33.4001C31.5409 33.6346 30.9242 33.9556 31.1096 34.5615C31.2985 35.1783 31.9044 34.713 32.5674 34.6228C31.5088 36.0981 30.0724 35.1278 29.0458 35.6761C28.9282 35.6761 28.807 35.6761 28.6894 35.6761C28.3722 35.0557 28.0692 34.4353 29.028 34.0962C29.3702 33.9772 29.9583 34.4822 29.9619 33.5444C29.9654 32.7004 29.3916 32.7112 28.8569 32.5489C29.8941 31.4055 30.4145 30.0349 31.1844 28.8229C31.3199 28.7183 31.4874 28.6787 31.6229 28.5741C31.4518 28.6101 31.3128 28.7075 31.1844 28.8229C30.2506 28.7364 30.6355 28.2062 30.8244 27.7373C30.9492 27.5064 31.0668 27.2684 31.188 27.0303Z" fill="#F7B79D"/>
<path d="M31.5337 15.5062C31.5551 15.6144 31.5694 15.7226 31.5836 15.8272C30.8137 16.2709 29.773 16.1122 29.3488 17.3421C29.1064 18.0383 26.533 17.2015 25.6419 16.1627C26.0197 15.5351 26.4154 16.6208 26.7967 16.1663C26.6898 15.3692 25.7773 15.6613 25.4851 15.1311C25.6419 14.8317 26.0161 14.9688 26.2157 14.756C26.6862 14.8786 27.2066 15.6108 27.6094 15.0518C28.5361 13.7605 29.5092 14.3737 30.5215 14.7596C30.8565 15.0121 31.1951 15.2574 31.5337 15.5062Z" fill="#F5AC9B"/>
<path d="M32.9666 23.0555C32.2609 21.9987 31.5516 20.9418 30.8458 19.8814C30.9599 19.8598 31.0739 19.8345 31.188 19.8129C31.7013 20.188 32.1896 20.61 32.7349 20.931C33.7793 21.5586 33.683 22.262 32.9666 23.0555Z" fill="#F7B8A5"/>
<path d="M20.4985 14.4025C20.8229 14.1861 21.0368 13.6415 21.5643 14.0454C21.4823 14.316 21.297 14.5684 21.5251 14.8714C21.7853 15.2141 22.5552 15.1311 22.3627 15.82C22.27 16.1447 21.9207 16.1771 21.6213 16.0545C21.1045 15.8381 20.413 15.7948 20.5021 14.9436C20.5164 14.7596 20.4985 14.5793 20.4985 14.4025Z" fill="#F4A396"/>
<path d="M26.2122 14.7596C26.0589 15.0626 25.7845 15.1275 25.4815 15.1347C25.2783 14.7921 24.0629 14.7776 25.1322 14.0274C25.4922 14.2691 25.8522 14.5143 26.2122 14.7596Z" fill="#F9C9B8"/>
<path d="M21.5643 14.0454C21.4859 13.2411 21.8494 12.8912 22.6371 12.967C22.3983 13.4503 22.0455 13.811 21.5643 14.0454Z" fill="#F4A396"/>
<path d="M26.9108 23.4234C26.9286 24.0618 26.5864 23.968 26.1979 23.7841C26.2656 23.3224 26.3441 22.8751 26.9108 23.4234Z" fill="#F6AC9A"/>
<path d="M25.8415 31.7157C25.9591 31.9573 26.0803 32.1954 26.1979 32.4371C26.0803 32.4371 25.9591 32.4371 25.8415 32.4371C25.093 31.9213 24.594 32.1341 24.0985 32.8807C23.5496 33.7139 23.0506 33.447 22.7405 32.6138C22.6977 32.502 22.63 32.3794 22.6443 32.2711C22.7476 31.4921 21.3219 31.1205 21.9884 30.3234C22.7191 29.4541 23.2253 30.9654 23.7421 30.7779C24.8506 30.3775 25.2676 31.1278 25.8415 31.7157Z" fill="#F6B09D"/>
<path d="M18.3314 36.1233C18.4384 35.5498 17.9037 35.3875 17.7718 34.9366C18.2673 34.8681 18.7378 34.8032 19.2653 34.7274C19.1869 35.4272 18.6593 35.6544 18.3314 36.1233Z" fill="#F6B09D"/>
<path d="M28.693 24.5055C28.9318 25.1223 29.7088 25.4974 29.413 26.6768C28.7928 25.9122 28.4542 25.281 28.3365 24.5055C28.4542 24.5055 28.5718 24.5055 28.693 24.5055Z" fill="#F4A393"/>
<path d="M17.6399 44.3435C16.3603 43.4634 14.2895 43.8385 13.7227 41.8186C12.9314 41.6203 11.937 41.8258 11.5841 40.7366C12.4788 40.751 13.4126 40.4769 14.1932 41.2163C14.4641 41.4724 14.7207 41.5301 15.0095 41.0576C15.3196 40.549 15.6902 41.0504 15.7009 41.3245C15.7152 41.7898 14.956 42.5544 16.1108 42.4571C16.5885 42.4174 17.811 42.9764 17.4795 41.4363C17.4118 41.1153 18.1995 40.6031 18.6344 40.1378C19.0585 40.5887 18.9374 41.1874 18.9766 41.7321C20.1564 41.3137 20.4344 39.6328 21.9136 40.0116C21.3219 40.8664 20.6304 41.6671 20.1671 42.5869C19.554 43.8096 18.8126 44.1234 17.7362 43.3011C17.1694 43.6654 18.2281 44.0333 17.6399 44.3435Z" fill="#F8BAA4"/>
<path d="M16.9306 36.4047C18.1247 36.4696 18.0855 37.7789 18.8589 38.2081C17.2051 39.7411 16.3639 37.8366 15.2126 37.3966C14.7314 37.2126 15.3196 36.8555 15.512 36.6319C15.9184 36.1738 16.5493 37.0683 16.9306 36.4047Z" fill="#F5A695"/>
<path d="M24.7722 36.7654C25.3674 37.6851 24.3231 37.5048 24.0593 37.8474C23.571 36.9998 23.9061 36.704 24.7722 36.7654Z" fill="#F5A697"/>
<path d="M27.6165 28.8302C28.1013 28.2819 28.1013 28.2819 29.053 29.5515C28.554 29.5515 28.0942 29.5515 27.6344 29.5515C27.4205 29.3171 27.4027 29.0754 27.6165 28.8302Z" fill="#F8C1AE"/>
<path d="M26.1979 32.4371C26.7789 32.5128 27.2851 32.2784 28.0692 31.5894C26.8965 33.3929 26.8965 33.3929 26.1979 32.4371Z" fill="#F5A697"/>
<path d="M27.6165 28.8302C27.6237 29.0718 27.6308 29.3099 27.6344 29.5515C27.4454 29.4217 27.2245 29.3207 27.0712 29.1548C26.8538 28.9203 26.4154 28.5993 26.8253 28.3144C27.171 28.0763 27.2993 28.7183 27.6165 28.8302Z" fill="#F5A697"/>
<path d="M27.5274 30.1395C27.6094 30.4857 27.6914 30.832 27.8019 31.3009C27.114 31.0051 27.0819 30.6336 27.5274 30.1395Z" fill="#F5A697"/>
<path d="M31.188 28.8302C31.2522 28.3432 31.3555 27.7842 31.9793 27.932C32.35 28.0222 32.6672 28.5596 32.4248 28.9239C32.0613 29.4758 31.6015 28.96 31.188 28.8302Z" fill="#F6AC9A"/>
</svg>
