<svg width="47" height="51" viewBox="0 0 47 51" fill="none" xmlns="http://www.w3.org/2000/svg">
<path d="M10.3213 47.4617C6.95232 45.2625 4.81711 42.1352 3.23855 38.5882C3.30917 37.9547 2.96853 37.418 2.74421 36.8732C2.41604 36.0783 2.4285 35.4447 3.2884 35.013C4.47647 34.4157 4.70079 33.4836 4.31862 32.3174C4.21476 32.0027 4.24384 31.6556 4.26046 31.3207C4.29785 30.5338 4.51386 29.6945 5.44438 29.755C6.26689 29.8075 6.00518 30.663 6.00518 31.2279C6.00103 32.733 6.71138 33.8952 7.80806 34.8838C8.47272 36.6674 6.50368 36.7158 5.88471 37.6399C5.92626 37.8941 5.58562 37.7045 5.84733 37.7933C5.9678 37.8336 6.02595 37.7892 6.08827 37.6238C6.13396 37.5068 6.24197 37.418 6.34997 37.3252C7.37188 36.9136 8.42287 36.4092 8.83828 38.0071C8.83828 38.0919 8.82998 38.1847 8.81336 38.2815C8.80921 38.0112 9.09584 38.2735 8.82998 38.2492C8.88813 37.874 9.00445 37.5471 9.23292 37.2646C9.41155 37.0709 9.62341 36.9257 9.88096 36.8409C10.2756 36.8409 10.6619 37.0387 11.069 36.8853C11.9996 37.2525 11.9289 38.1726 12.253 38.8787C12.3859 39.2177 12.523 39.5567 12.5437 39.9239C12.4731 40.3476 12.0951 40.7834 12.6351 41.2071C12.8221 40.8762 12.3319 40.279 12.9882 40.1741C13.7651 40.049 14.2095 40.5816 14.6457 41.086C14.787 41.2111 14.9448 41.3201 15.0279 41.5017C15.003 41.1788 14.6291 41.1102 14.5211 40.8439C14.0101 40.1458 13.9229 39.3105 13.7069 38.5156C13.4867 37.7004 12.8179 37.1274 12.4648 36.3849C12.1533 35.6747 12.0203 34.9121 11.7628 34.1817C11.6838 34.0243 11.6132 33.867 11.5468 33.7055C11.4429 33.2738 11.2767 32.8864 10.7824 32.7492C10.0762 32.2569 10.0097 31.7726 10.799 31.2965C11.4886 30.8082 12.145 30.2796 12.7639 29.7147C12.955 29.2183 13.4992 28.6897 12.6019 28.3225C12.2405 28.7018 12.3111 29.5694 11.4055 29.3031C10.9527 28.6413 10.8281 27.9028 10.8323 27.1321C11.0524 26.317 11.418 25.5745 12.39 25.5099C13.1295 25.4615 13.1212 24.7997 13.5075 24.4729C13.9437 24.2267 14.2179 23.46 14.7911 23.7465C15.4973 24.1016 15.2605 24.8118 15.0196 25.5301C15.5679 24.5818 15.0321 23.7062 15.1484 22.8547C16.3821 21.8621 17.483 20.3246 19.3565 22.0638C19.506 21.1034 19.4396 19.8323 20.5113 19.9655C21.5415 20.0946 22.5468 20.8855 23.2697 21.7531C23.5023 22.0315 23.3361 22.4996 23.0163 22.6247C20.9932 23.4439 21.8905 24.6423 22.5261 25.8247C22.5884 25.9417 22.6008 26.0829 22.6299 26.2121C22.6632 26.3937 22.6715 26.5752 22.6715 26.7609C22.5801 27.346 23.17 28.1046 22.2893 28.4839C21.6122 28.7745 20.8727 29.0246 20.4324 28.0925C20.4033 27.9149 20.3992 27.7334 20.4116 27.5558C20.4199 27.1321 20.3452 26.7568 19.7885 26.781C19.0408 26.8133 19.3939 27.4711 19.1945 27.8181C18.347 28.6937 19.1612 29.5533 19.2028 30.4168C19.2111 30.5944 19.128 30.6468 19.2609 30.5621C19.2028 30.2998 19.2277 30.0375 19.29 29.7752C19.7968 29.4847 20.0876 29.8075 20.0835 30.1949C20.0793 30.9333 20.3618 30.6186 20.665 30.4128C20.9517 30.4975 21.1677 30.671 21.3463 30.901C21.6412 31.353 22.0151 31.9583 21.7326 32.3618C20.5362 34.0566 21.9196 35.0654 22.6922 36.2478C23.8554 37.5915 24.7277 39.0523 24.7194 40.8762C24.977 41.3281 24.3539 42.1755 25.3882 42.2845C25.4713 44.2658 23.8803 46.7878 22.1564 47.4537C22.0816 47.4819 21.2466 47.1914 21.932 47.8128C22.9955 48.7813 22.2187 49.1606 21.284 49.3664C20.4324 49.552 19.5974 49.9394 18.6835 49.6731C18.1767 49.669 17.6741 49.6488 17.5037 49.0476C17.4373 48.6481 17.5785 48.3212 17.8942 48.067C18.4135 47.6151 17.9607 47.4335 17.6408 47.2035C17.0343 46.7757 16.2077 46.7636 15.6676 46.2189C15.7258 45.3634 16.5358 45.4885 17.0302 45.2222C16.702 44.5402 16.1204 44.6734 15.5513 44.7662C15.2855 44.742 15.0404 44.403 14.8659 44.4958C14.6 44.6411 14.8659 44.9236 14.9407 45.1294C15.0944 45.5611 15.4225 45.892 15.7092 46.2431C16.2451 46.8686 17.4497 46.7314 17.591 47.8088C17.026 49.2574 15.8296 48.5351 14.8493 48.5634C14.6623 48.5351 14.4796 48.4827 14.3051 48.4141C13.8274 48.1518 13.3206 47.946 12.847 47.6716C12.7058 47.5465 12.6144 47.3931 12.577 47.2237C12.739 46.3964 12.1325 46.8484 11.85 46.8524C10.8863 46.8686 10.8198 46.3803 11.0857 45.6701C10.8364 46.2027 10.7242 46.6789 11.5052 46.8847C11.9746 47.0098 12.282 47.2196 11.7877 47.6837C11.256 47.7967 10.7699 47.7482 10.3213 47.4617Z" fill="#EB5F48"/>
<path d="M7.79683 34.963C5.5453 34.9307 6.08949 32.9574 5.53699 31.7832C5.32098 31.3191 5.57023 30.6493 5.62839 29.814C4.24507 30.6331 4.62309 31.7953 4.92219 32.6064C5.37083 33.821 4.98865 34.7249 4.01659 35.1244C2.6125 35.6974 2.77867 36.3753 3.40178 37.3478C3.67596 37.7755 3.74242 38.2315 3.23562 38.5907C-0.170747 31.8598 -1.38375 24.9636 2.04755 17.91C4.97619 11.8934 12.491 8.72974 19.9933 10.1219C20.4585 10.2066 20.9404 10.2188 21.414 10.2672C22.4774 10.9733 22.5439 11.9458 22.1991 13.0273C21.1398 14.3186 19.4491 14.1612 18.0741 14.7342C17.5257 14.8351 16.9774 14.8875 16.4291 14.6293C17.0563 14.8754 17.6421 15.1055 18.0242 15.6664C18.1281 15.8399 18.2278 16.0134 18.2859 16.203C18.5061 16.9173 19.3992 17.7445 18.5477 18.3498C17.7044 18.947 17.1436 17.9301 16.5454 17.454C15.8973 17.2482 15.2036 17.1594 14.6054 16.8083C15.2078 17.2159 15.9721 17.2159 16.5952 17.575C16.7946 17.8817 16.3044 18.2287 16.3834 18.2287C17.3097 18.2207 17.6711 18.717 17.4427 19.4797C17.2474 20.1253 16.5454 20.2262 15.9098 20.2383C15.5027 20.2464 15.0914 20.2544 14.6843 20.2101C13.301 19.8428 13.139 20.7145 13.0892 21.695C13.0933 21.9694 13.0476 22.2277 12.8898 22.4577C12.5367 22.6837 12.2085 22.498 11.8762 22.4093C10.7504 22.8047 11.0827 23.9306 10.6756 24.6811C10.4222 25.1492 10.8127 26.0208 9.96527 26.0773C9.30062 26.1257 8.93505 25.5608 8.78966 24.9313C8.76058 24.4471 8.95583 24.0153 9.11784 23.5755C9.26738 21.9654 10.7878 20.7669 10.5468 19.0479C9.10122 18.7291 8.81874 20.5288 7.58497 20.5773C6.89123 20.3916 6.38028 21.344 5.48299 20.7346C4.94296 20.3674 5.45391 21.578 4.85988 21.691C4.10798 22.7765 4.68125 24.0234 4.40292 25.1654C4.67294 24.0274 4.13291 22.7845 4.85988 21.6991C5.90671 21.4327 6.20996 22.3245 6.75415 22.841C7.04494 23.3818 7.05324 23.9709 7.07402 24.5601C7.09063 25.1815 7.07817 25.8271 8.01284 25.7949C9.00152 25.9885 9.42939 26.6624 9.60802 27.5502C9.76588 28.0062 8.66504 28.1071 9.27154 28.6922C9.40862 29.8463 9.31723 31.0407 9.91958 32.11C10.7795 33.0785 10.9955 34.2729 11.1907 35.4795C11.2032 36.0283 11.1575 36.5609 10.7089 36.9685C10.443 37.4325 10.1688 37.029 9.89881 36.9766C9.43355 36.7587 9.26323 36.3309 9.0846 35.9112C8.80628 35.5037 8.92675 34.7047 8.02946 34.9105C7.95469 34.9307 7.87576 34.9468 7.79683 34.963Z" fill="#EB5B44"/>
<path d="M22.3351 36.1731C21.2634 35.9753 21.4212 34.6316 20.4658 34.2886C20.1833 34.1877 20.1916 33.76 20.4575 33.6308C21.8366 32.9691 21.2426 31.9038 21.0847 30.9272C21.1429 30.2211 20.6776 29.527 21.0266 28.8127C21.6663 28.6957 22.2728 28.3245 22.9666 28.5464C23.1286 27.8766 22.5179 27.4569 22.331 26.8879C22.331 26.7548 22.331 26.6176 22.331 26.4844C22.547 26.2423 22.8253 26.214 23.1244 26.2786C23.4027 26.3755 23.6354 26.5369 23.8472 26.7306C24.6407 27.122 24.4163 28.4375 25.5629 28.502C26.0406 28.2761 26.1486 27.699 26.6056 27.4609C26.9296 27.3278 27.2785 27.2511 27.6025 27.3802C28.9817 27.925 29.3099 27.2229 29.2849 26.0768C29.1603 25.0115 29.7419 23.9745 29.4303 22.9011C29.2849 22.4935 29.0357 22.1546 28.6868 21.8842C28.4001 21.6623 28.0927 21.4645 27.9182 21.1377C27.6233 19.8787 28.828 18.9869 28.7865 17.7884C28.9028 17.6351 29.0565 17.5302 29.2476 17.4777C29.7585 17.4898 30.1365 17.7561 30.4855 18.079C30.8178 18.5551 31.4077 18.5672 31.8771 18.8013C31.9768 18.9022 32.1056 19.0434 32.064 19.1443C31.3703 20.8552 31.4492 22.6106 31.7109 24.378C31.3246 25.1608 30.5104 25.8307 31.0089 26.8395C32.6872 26.3714 33.6634 26.7588 33.7382 27.925C33.8129 29.1275 32.6539 29.2122 31.6653 29.757C33.1566 29.987 34.4734 29.7409 35.4746 30.6448C35.6864 31.2299 35.5784 31.7464 35.1464 32.1943C34.9179 32.3154 34.5191 31.8352 34.3779 32.5171C34.2242 33.2475 34.7684 32.6947 34.8722 32.8763C35.1672 33.0498 35.4081 33.2959 35.9232 33.4412C35.8775 32.8359 34.9387 32.0853 35.6781 31.8109C36.6626 31.4437 37.643 31.8836 38.237 32.844C37.6887 33.8851 39.3587 34.797 38.4323 35.8623C37.9213 36.0318 37.5641 36.4273 37.1445 36.7259C36.7665 36.968 36.5172 37.2182 37.0697 37.545C37.2276 37.6298 37.3398 37.7508 37.4145 37.9042C37.6513 38.687 36.6834 39.5143 37.5225 40.2729C37.6596 40.402 37.751 40.5513 37.8216 40.7208C37.6513 41.6529 37.1154 42.2219 36.1226 42.343C35.7487 42.1896 35.5452 41.8749 35.3167 41.5763C34.9927 41.1324 34.7061 40.6603 34.4485 40.176C33.5263 39.252 34.9345 38.3723 34.5025 37.4684C34.407 37.658 34.3903 37.8517 34.3447 38.0495C33.95 38.7879 33.9126 39.6232 33.5928 40.3778C32.7661 41.2777 31.8646 40.7854 30.8427 40.4504C30.1947 41.8466 30.7181 43.3155 30.5478 44.7157C30.4439 45.5914 30.4439 46.4428 29.584 46.9876C29.4096 47.0965 29.1312 47.036 29.0232 47.1207C28.558 47.4799 29.1562 47.3911 29.206 47.3951C30.0036 47.4395 30.851 47.2418 31.4991 47.9076C31.8646 48.5492 32.8035 48.065 33.1732 48.7025C32.1222 49.3522 30.9591 49.2271 29.8042 49.1464C29.4843 49.098 30.1407 48.5653 29.5176 48.6339C28.5995 48.7348 27.6524 48.9245 26.8506 48.2506C26.8299 47.7381 26.4643 47.609 26.0198 47.5565C25.189 47.0884 24.757 46.3298 24.6157 45.4703C24.4953 44.7561 24.4786 43.9409 25.6293 43.953C25.945 43.8481 25.9824 44.4373 26.3438 44.2274C26.4062 44.0822 26.4809 43.949 26.5723 43.8158C26.8257 43.4486 26.8756 43.0128 27.0334 42.6254C27.0999 42.5326 27.1747 42.3954 27.1124 42.3188C26.9919 42.1735 26.8299 42.3349 26.6762 42.3268C26.186 42.1573 25.9783 41.7821 25.8661 41.3301C25.9243 40.5594 25.9575 39.7725 26.9877 39.603C27.2702 39.6636 27.3824 39.9541 27.6275 40.0711C27.5361 39.9097 27.3117 39.8734 27.2411 39.6837C26.9213 38.5095 28.504 38.0656 28.3337 36.9599C28.3004 36.8469 28.2921 36.7259 28.3087 36.6089C28.0595 36.6976 28.1176 36.968 27.9847 37.1334C26.0032 37.085 26.3397 39.26 25.1267 39.946C24.9231 39.942 24.757 39.8613 24.6199 39.716C24.3748 38.6346 23.8597 37.6015 24.0425 36.4434C24.084 36.1852 24.1006 35.8139 23.9054 35.6848C21.982 34.3814 23.2656 33.5784 24.354 32.735C24.5908 31.8715 24.8774 31.1532 25.7083 32.3476C25.6958 32.3396 25.8329 32.2629 25.8329 32.2629C25.8329 32.2629 25.675 32.2508 25.6626 32.2427C25.5629 32.1297 25.5213 31.9966 25.4382 31.8997C23.9885 30.1686 23.7849 30.1968 22.9042 32.2346C22.1482 33.0215 21.9322 33.8891 22.4016 34.906C22.5968 35.3095 22.7215 35.7695 22.3351 36.1731Z" fill="#EB5C45"/>
<path d="M35.2462 9.10454C36.0604 9.39508 36.8787 9.68561 37.6929 9.97615C37.855 10.3393 37.9214 10.7792 38.3618 10.9446C40.1688 11.6104 40.0192 12.8008 39.3006 14.1526C39.0472 15.0808 40.1023 14.8951 40.3931 15.3552C40.8584 15.799 41.3112 15.7506 41.8554 15.4238C42.3497 15.1251 42.7983 14.6207 43.4962 14.7983C47.1352 19.9069 46.9649 25.5644 46.0136 31.3307C45.8765 31.4599 45.7145 31.5043 45.5317 31.4437C44.9294 31.2057 45.0831 30.4309 44.5555 30.1444C43.9532 30.1121 44.082 30.6004 43.974 30.9192C43.9033 31.3025 43.7995 31.6657 43.4256 31.8836C41.6061 31.129 40.9872 29.4826 42.0589 28.0622C42.3829 27.6304 42.6446 27.1906 42.8897 26.7265C44.4724 25.1729 46.0053 23.5952 44.8006 21.2184C44.6012 21.5574 44.8879 22.0093 44.8256 22.4491C44.8256 22.8285 44.7674 23.1997 44.5721 23.5387C43.0891 24.0511 43.3758 25.3989 43.1016 26.4844C42.4577 27.3883 41.9551 27.6546 41.1616 26.4844C39.7658 24.4264 39.0763 22.1949 38.8935 19.7738C39.0223 19.4025 39.2175 19.0272 38.9059 18.6479C38.7024 18.4098 38.4739 18.2888 38.179 18.4986C37.9713 18.8093 38.2537 19.0434 38.3119 19.3137C37.5102 21.0328 36.7001 19.9231 35.8859 19.3258C35.5494 19.3622 35.4207 18.2404 35.0883 19.0515C34.7394 19.8989 33.8504 20.2661 33.5804 21.1014C33.4848 21.3637 33.3519 21.6058 33.1193 21.7753C31.8315 21.287 31.7401 20.8552 32.6083 19.3016C32.762 19.2129 32.8451 19.0272 33.0445 18.995C32.8326 18.9707 32.8036 19.2008 32.6416 19.2694C32.0475 19.2895 31.9229 18.422 31.2582 18.5995C30.3609 16.9329 30.5105 15.1615 31.4202 13.6886C32.4338 12.0462 32.9822 14.1042 33.8047 14.2697C34.1952 14.4916 34.594 14.7135 34.7186 15.222C34.6895 14.7176 34.3115 14.5521 33.9543 14.3746C33.1899 13.9468 32.8119 13.0187 31.844 12.8533C32.0184 11.7315 30.1616 11.1423 31.0048 9.84702C31.2499 9.68158 31.5283 9.62912 31.8232 9.62509C33.0694 10.1335 33.9543 8.34994 35.2462 9.10454Z" fill="#EB5C45"/>
<path d="M34.806 40.2125C35.0802 40.6119 35.3544 41.0155 35.6285 41.415C35.4831 41.8225 35.5828 42.1131 36.0439 42.2261C36.7543 41.8427 37.2943 41.2979 37.7056 40.6241C37.5893 40.2528 37.4439 40.4747 37.3068 40.6079C35.4499 39.6798 37.3982 38.7194 37.286 37.7752C37.0866 36.9156 37.4065 36.2619 38.1293 35.7696C38.4907 35.4993 38.7441 35.0635 38.2955 34.8214C37.1863 34.2282 37.689 33.6067 38.1168 32.9409C38.2082 32.9248 38.2996 32.9046 38.391 32.8844C39.1969 32.727 39.8699 32.9611 40.4431 33.518C40.9042 34.5066 40.1565 35.2854 39.9488 36.153C39.9073 36.496 39.899 36.843 39.9654 37.186C40.1814 37.8357 40.6592 38.4087 40.5844 39.1471C40.5636 39.47 40.4888 39.7888 40.5221 40.1156C40.6633 40.5676 41.0496 41.0155 40.547 41.4795C39.4919 42.7143 38.5655 44.0984 36.5258 43.7837C36.0356 43.707 35.8279 44.3163 35.6285 44.7239C35.5164 45.0265 35.3377 45.3574 35.6742 45.6036C36.1312 45.9345 36.3929 45.5551 36.6588 45.2686C37.8261 43.7635 39.7328 42.9806 40.7048 41.2858C41.6478 40.6241 41.9345 41.0639 41.9345 41.9799C39.9654 45.3816 37.1739 47.7745 33.1859 48.7026C31.7444 48.6583 31.7444 48.6583 31.4703 48.2749C31.84 47.8108 32.1391 47.3185 32.2471 46.7375C31.275 46.9554 30.3154 47.4638 29.3932 46.6608C30.681 45.6439 30.1451 44.1065 30.0662 42.9847C29.9789 41.762 30.2988 40.7612 30.5273 39.5789C31.4993 40.1156 32.3676 40.967 33.539 40.2125C33.9627 42.0687 34.3823 39.8049 34.806 40.2125Z" fill="#EA5840"/>
<path d="M43.1055 26.4926C43.0682 27.0777 43.2343 27.7152 42.7192 28.1874C40.9246 29.8257 42.7192 30.6691 43.5376 31.7303C44.0984 31.5608 44.0984 31.4761 43.5126 30.5076C43.4462 29.5109 43.8117 29.172 44.7713 29.7208C45.2034 30.1768 44.7007 31.0685 45.5648 31.3268C45.7143 31.3268 45.8641 31.3307 46.0136 31.3307C45.8558 32.4525 45.76 33.5906 45.2075 34.6196C44.925 34.4662 44.8004 34.0869 44.4141 34.091C44.0278 34.2443 43.82 34.5954 43.5126 34.8375C42.956 35.2208 42.4783 35.0675 42.0462 34.6317C41.4605 33.8932 40.9288 33.1225 41.3525 32.1379C41.7264 31.2622 40.8665 30.6933 40.8291 29.9387C40.8208 29.8297 40.8499 29.7006 40.8125 29.5916C40.7585 29.4181 40.6754 29.4222 40.6339 29.6038C40.5965 29.9145 40.5591 30.209 40.3971 30.4794C40.2808 30.6287 40.1354 30.7296 39.9567 30.7982C39.3461 30.9556 38.806 30.7498 38.2743 30.5036C37.5889 30.0315 36.6127 29.8539 38.0209 28.7886C38.6607 28.3044 39.4125 26.8638 38.9307 25.5846C38.8268 25.2497 38.7437 24.9067 38.7936 24.5556C38.8808 24.2288 39.2048 23.8696 38.6565 23.6195C36.1059 22.885 35.5534 22.0457 35.8899 19.4631C35.9397 19.3865 35.9937 19.3058 36.0436 19.2291C36.7331 18.9951 37.4393 20.823 38.1123 19.2089C37.7841 18.8861 37.5266 18.535 37.6678 18.0468C38.3657 17.6392 38.993 17.5222 39.3585 18.4463C39.1799 18.8377 39.0262 19.2291 39.3585 19.6205C39.8155 21.8641 40.1021 24.0956 41.4979 26.1294C42.1709 27.11 42.5157 26.6257 43.0972 26.4966L43.1055 26.4926Z" fill="#EC6149"/>
<path d="M28.1058 2.60631C31.0719 -0.000463724 34.5945 -0.40399 38.3125 0.318322C41.7978 0.996245 41.8601 1.30293 39.7415 4.17199C39.6626 4.27691 39.5504 4.36165 39.4507 4.45446C39.1807 4.43429 38.9439 4.31726 38.7113 4.20024C38.0632 3.85724 37.4193 4.20428 36.7754 4.20428C36.0069 4.07918 35.7328 3.73619 36.2437 3.05423C36.5428 2.83229 36.8004 2.54578 37.2075 2.5014C37.6686 2.45297 38.1795 2.67088 38.5659 2.27542C38.4288 2.03734 38.1878 2.11401 37.9843 2.07769C37.4318 2.16647 36.6591 1.73066 36.5013 2.69912C35.8906 3.18336 35.2426 3.53442 34.4242 3.23581C34.0711 2.92106 34.2581 2.49736 34.1334 2.12208C34.096 2.52157 34.229 2.92913 34.1417 3.33266C32.721 4.32533 31.3253 5.38257 29.4227 5.24134C28.945 4.72079 28.9907 4.20428 29.4227 3.7039C29.4019 3.56671 29.7882 3.60706 29.5972 3.39722C29.4144 3.1995 29.7425 3.40933 29.4684 3.51021C28.7123 3.61916 28.0435 3.6232 28.1058 2.60631Z" fill="#71A04F"/>
<path d="M36.7844 7.10201C36.2485 8.05029 34.9732 7.9373 34.3252 8.72418C33.4279 9.05104 32.622 9.66036 31.5835 9.5393C31.3675 9.54334 31.1515 9.55141 30.9396 9.57158C29.7806 9.76124 28.5801 9.56755 27.4377 9.93879C27.0015 10.0034 26.5695 9.97915 26.1416 9.89037C25.5351 9.70071 24.8621 9.65633 24.3678 9.19631C25.1654 7.8566 26.4739 7.12218 27.8406 6.4604C29.5355 5.63721 31.2387 4.82612 33.0499 4.26118C34.0843 4.20873 35.0771 4.6405 36.1198 4.53155C37.1749 5.25789 36.6307 5.8309 35.9328 6.38776C35.3803 6.00038 34.7115 6.09319 34.1299 5.98827C34.5412 6.14565 35.0189 6.06898 35.4759 6.16986C35.8497 6.56128 36.6681 6.35952 36.7844 7.10201Z" fill="#79A557"/>
<path d="M26.9015 47.8798C27.7074 48.6101 28.696 48.2268 29.5975 48.255C31.014 48.2954 29.7886 48.8442 29.8218 49.1468C26.9264 49.0137 24.0725 49.3123 21.2519 49.9418C20.5332 50.1839 19.7896 50.1072 19.0627 50.0467C18.4188 49.9942 18.3108 49.6068 18.5974 49.0823C19.6442 49.6875 20.6038 48.594 21.659 48.9289C21.8791 48.9975 22.1699 48.6828 22.0578 48.3721C21.7628 47.5448 20.9819 48.3277 20.0181 47.8475C23.2251 46.9194 24.6001 44.8573 25.244 42.2264C25.0072 41.8067 25.2689 41.5565 25.5721 41.3184C25.7591 41.2539 25.9252 41.2861 26.0748 41.4193C26.3531 41.6897 26.6273 41.96 26.9056 42.2264C27.0593 42.3555 27.1175 42.5209 27.0967 42.7146C26.9098 43.2311 26.9679 43.8364 26.4902 44.244L26.4944 44.2399C26.3573 44.4054 26.2202 44.4135 26.0831 44.244C25.3104 44.244 24.5669 44.3449 25.028 45.3577C25.3811 46.1325 25.5805 47.0445 26.4902 47.4722C26.7228 47.5166 26.8558 47.6538 26.9015 47.8798Z" fill="#EA5840"/>
<path d="M21.8788 13.1646C22.1032 12.1397 21.6919 11.2116 21.4177 10.2633C21.1062 9.37955 20.8652 8.46355 20.4623 7.62018C19.8475 6.33697 20.5661 5.6429 21.613 5.30798C22.8592 4.90445 23.0586 5.88098 23.2165 6.78488C23.3162 7.34982 23.1749 8.03985 23.9351 8.31828C24.2508 8.50794 24.2218 8.79848 24.1885 9.09709C24.1636 9.50465 24.1511 9.90817 24.1428 10.3198C24.1511 10.5417 24.1511 10.7596 24.1511 10.9856C24.1387 12.2446 24.2467 13.5076 24.1013 14.7586C23.9227 16.3041 23.4616 16.5099 21.775 15.9368C21.6296 15.7351 21.5257 15.5131 21.4676 15.271C21.3097 14.5124 21.3762 13.7982 21.8788 13.1646Z" fill="#9F7447"/>
<path d="M43.4973 14.7982C41.2375 16.6826 41.2375 16.6826 40.1948 15.6173C40.1408 14.8184 38.5955 15.0847 38.9569 13.9831C39.8459 12.4416 39.1937 11.6224 37.6276 11.0978C36.6306 10.7629 37.4531 10.3432 37.6982 9.97604C40.2696 10.8557 42.1306 12.5465 43.4973 14.7982Z" fill="#EC624B"/>
<path d="M24.0147 9.0914C23.9898 8.83314 23.9607 8.57488 23.9358 8.31663C24.0604 8.17539 24.1892 8.03416 24.3138 7.89292C25.7677 6.54918 27.3297 5.38703 29.415 5.14491C30.9354 4.47102 32.4558 3.80117 33.9762 3.12728C34.0676 2.92148 34.1923 2.90938 34.346 3.07079C35.1145 2.97798 35.8414 2.76007 36.4936 2.34041C36.9381 1.90863 37.4823 1.78758 38.0888 1.86021C38.3921 1.77951 38.741 1.56967 38.9819 1.65441C39.2976 1.76336 38.9736 2.06197 38.9404 2.27988C38.4294 2.56235 37.9974 3.13535 37.2912 2.69954C37.0129 2.84078 36.7346 2.97798 36.4562 3.11921C35.7957 3.438 35.4551 4.23294 34.6201 4.29751C34.0718 4.30154 33.5359 4.36611 33.079 4.697C30.5906 5.79459 27.8655 6.45637 25.8799 8.48611C25.5517 8.82103 24.9161 8.86542 24.4218 9.04701C24.3055 9.20438 24.1684 9.22052 24.0147 9.0914Z" fill="#578737"/>
<path d="M29.4148 5.13756C27.7158 6.05357 26.0126 6.96957 24.3136 7.88558C24.9741 5.71461 26.2494 3.9633 28.1104 2.60342C28.5341 3.22889 29.0783 3.4589 29.8011 3.07958C29.9341 3.15625 29.9839 3.24099 29.9465 3.32573C29.905 3.41451 29.8676 3.4589 29.8219 3.4589C29.5394 3.99155 29.3234 4.52824 29.4148 5.13756Z" fill="#78A459"/>
<path d="M41.9399 41.9807C41.7073 41.323 41.3168 41.0243 40.6106 41.4198C40.6812 40.7903 40.029 40.6289 39.7798 40.2092C41.0592 39.3981 40.9346 37.671 42.1393 36.8075C43.0989 36.182 43.8217 36.3999 44.3368 37.3805C43.7927 39.039 43.0366 40.5926 41.9399 41.9807Z" fill="#EC6149"/>
<path d="M18.598 49.0809C19.0715 50.5658 20.3925 49.5772 21.2524 49.9404C17.1939 50.8443 13.5839 49.8799 10.323 47.4587C10.8838 47.4506 11.4404 47.4466 12.0012 47.4385C12.2713 47.2206 12.5288 47.2327 12.7822 47.4627C13.2558 47.8905 13.962 47.8703 14.448 48.2738H14.4438C15.4201 49.0446 16.7743 48.3465 17.763 49.0728C18.0372 49.5328 18.3196 49.1172 18.598 49.0809Z" fill="#EA6347"/>
<path d="M34.3756 3.91299C35.0694 3.64666 35.7673 3.38033 36.461 3.11401C36.2242 3.56192 36.1702 3.92106 36.8764 3.90088C37.566 4.23984 38.2514 3.61438 38.941 3.89685C39.1113 4.08247 39.2858 4.27213 39.4561 4.45775C38.9451 5.70061 37.8194 6.35432 36.7892 7.10488C36.407 6.85469 36.029 6.60047 35.6468 6.35028L35.6592 6.33818C36.0248 5.85395 36.7725 5.44639 36.0165 4.72811C35.1815 5.00251 34.4753 5.03479 34.3756 3.91299Z" fill="#68964B"/>
<path d="M44.3366 37.3786C43.7343 36.8379 43.053 36.6845 42.2803 36.9791C41.9771 36.4384 42.2014 35.8169 42.0145 35.2601C42.002 34.9897 42.0602 34.7476 42.2803 34.562C42.6916 34.8081 43.0987 34.8202 43.51 34.562C43.8714 34.8485 43.6886 35.2318 43.7177 35.5224C43.8672 34.9615 43.8506 34.2835 44.3449 33.7711C44.5194 33.5975 44.7853 33.2384 44.86 33.2747C45.4956 33.5693 45.0387 34.1786 45.2131 34.6225C45.3627 35.6717 44.0998 36.3012 44.3366 37.3786Z" fill="#EB6347"/>
<path d="M31.5261 9.29858C32.4317 8.98787 33.3373 8.66101 34.326 8.72558C34.6334 8.85067 34.9408 8.97576 35.2482 9.10489C33.9812 8.90716 33.3124 10.9167 31.846 9.97247C31.6549 9.78685 31.4264 9.61333 31.5261 9.29858Z" fill="#F29687"/>
<path d="M23.1667 26.4896C22.8925 26.4896 22.6142 26.4896 22.34 26.4896C22.1863 26.1183 22.1323 25.6381 21.8581 25.396C20.2879 24.0159 20.5787 23.0878 22.502 22.4543C23.2082 22.2243 23.1957 21.7199 22.6432 21.4818C21.9287 21.1711 21.0273 21.3285 20.7324 20.2632C20.6659 20.021 19.9888 20.4568 19.9306 20.8523C19.8475 21.4293 19.9098 22.0225 19.9098 22.6036C19.4238 22.4906 18.7218 22.535 18.4601 22.2243C17.7456 21.389 17.2969 21.1832 16.7569 22.3332C16.4869 22.9103 15.71 22.4785 15.2863 22.8457C15.1409 22.7408 15.0329 22.6076 14.9623 22.4462C14.8294 21.7037 14.6715 20.9653 14.36 20.2632C14.389 20.1824 14.4181 20.1017 14.4514 20.0251C14.8335 19.904 15.2282 19.6579 15.5937 19.6942C16.2127 19.7547 16.9563 19.9767 17.1474 19.2584C17.326 18.5966 16.4744 18.6531 16.0881 18.3706C15.2365 17.7532 16.7486 18.0478 16.5118 17.5676C16.3789 17.4829 16.3373 17.4022 16.383 17.3214C16.4287 17.2407 16.4744 17.2044 16.5201 17.2044C17.3385 17.1278 17.5379 18.2818 18.5431 18.072C18.539 17.1923 17.434 16.587 17.7746 15.6307C18.0197 15.3643 18.3354 15.3038 18.6802 15.328C20.3419 15.6549 21.9329 16.357 23.6859 16.1714C23.7939 17.0188 23.7981 17.0349 23.1334 17.2004C22.2528 17.4183 20.7531 17.2165 20.8528 18.3222C20.9567 19.4319 22.5103 18.6289 23.3287 19.0526C23.8646 19.331 24.2509 19.1615 24.2634 18.4997C24.3257 18.2334 24.4627 18.0074 24.6372 17.8016C25.2977 17.1116 26.0122 16.6798 26.9511 17.3618C27.1712 17.4506 27.3997 17.503 27.6365 17.499C27.9522 17.4627 28.2554 17.3658 28.5795 17.3779C28.6584 17.3981 28.7373 17.4223 28.8163 17.4425C28.8744 17.495 28.9367 17.5515 28.9949 17.6039C29.8049 19.0526 28.0727 19.9565 28.1724 21.2558C28.3842 21.4899 28.5172 21.7562 28.5255 22.0709C28.4715 22.4825 28.3676 22.8538 27.8483 22.9103C27.1131 22.3655 27.2792 21.4778 26.9884 20.7635C26.6894 20.0372 26.5897 20.7474 26.3986 20.8241C26.2573 20.9491 26.0995 21.0379 25.925 21.1025C25.5719 21.2518 25.0069 21.2074 24.9862 21.6957C24.9695 22.0992 25.439 22.1113 25.7547 22.1032C26.6146 22.0831 27.3457 22.3292 27.9065 22.9789C28.0394 23.1322 28.135 23.3057 28.1973 23.4994C28.567 24.6212 28.7955 26.1102 27.8276 26.6308C26.9427 27.107 25.4223 27.1715 24.334 26.3039C25.1233 25.5453 23.8521 25.1297 24.01 24.476C24.5624 23.9191 25.2728 24.3347 26.3736 24.137C25.331 24.2944 24.7245 23.9352 24.1927 24.3388C23.3453 25.0369 25.0236 25.4444 24.4087 26.1183C24.0432 26.4331 23.5696 26.3564 23.1667 26.4896Z" fill="#EA5840"/>
<path d="M9.01757 24.8395C9.23773 25.2632 9.49114 25.6586 10.0852 25.8402C9.78192 24.44 10.7291 23.3585 10.9825 22.1036C11.0323 21.8534 11.5599 20.8002 11.9504 22.0552C12.1248 22.6241 11.3605 23.7661 12.8933 23.4957C13.3378 23.5361 13.4998 23.8468 13.612 24.2059C13.612 24.2947 13.612 24.3835 13.612 24.4723C12.9889 24.7749 14.4262 26.9943 12.2038 25.9008C12.0542 25.8281 11.4893 26.5424 11.1195 26.8934C10.8703 27.761 10.9285 28.5842 11.5391 29.3105C12.2079 28.9635 11.697 28.0475 12.3575 27.6964C13.9236 28.0838 12.8393 29.3307 13.1883 30.1136C12.4987 30.6543 11.805 31.195 11.1154 31.7357C10.3386 30.9892 9.71546 30.8439 9.46206 32.1393C8.76832 31.0013 8.67693 29.7988 9.02588 28.5438C9.3042 28.3219 9.55345 28.0879 9.44959 27.6843C8.93449 27.1194 8.78494 26.1994 7.80041 26.0904C7.22715 25.9129 7.04437 25.4811 7.00698 24.9484C7.00698 24.3714 7.17314 23.8065 7.80041 23.6935C8.6437 23.5401 8.56892 24.4884 9.01757 24.8395Z" fill="#EC6852"/>
<path d="M24.8238 32.9361C25.2724 34.6672 23.1455 33.0773 23.1621 34.2516C25.9578 35.4016 23.8392 38.0488 24.8279 39.8001C25.0564 40.0018 25.0979 40.252 25.0273 40.5304C24.9068 40.7968 24.7033 40.9622 24.4042 41.0106C24.3128 39.1544 22.9295 37.8187 22.3271 36.1683C22.0571 35.3572 21.6542 34.5583 21.5586 33.727C21.4755 33.0047 21.7788 32.2662 22.7425 32.1371C24.1549 30.6441 24.2048 32.4922 24.8238 32.9361Z" fill="#EC654E"/>
<path d="M10.7171 36.9665C10.7171 36.4298 10.7129 35.8971 10.7129 35.3604C11.282 34.9408 11.066 33.9521 11.9467 33.7584C12.5698 34.4565 12.5033 35.3766 12.7775 36.1877C12.628 37.2651 13.8659 37.6646 14.0237 38.5927C14.2979 39.2746 14.5721 39.9606 14.8421 40.6426C14.6136 40.8524 14.7756 41.2479 14.4558 41.4093C13.9864 41.1591 13.816 40.5014 12.9852 40.5175C13.006 41.1268 13.8867 41.3568 13.7288 41.9742C11.6061 41.4335 11.4108 41.1228 12.3704 39.8033C12.358 38.9195 12.358 38.9195 11.9301 39.0123C11.2613 38.4757 11.7722 37.2812 10.7171 36.9665Z" fill="#ED6F58"/>
<path d="M22.3364 26.8916C22.9304 27.1014 23.1007 27.6018 23.2544 28.1264C23.3292 28.3887 24.0645 28.2273 23.7405 28.7276C23.5743 28.9859 23.1797 29.2078 22.8432 28.9617C22.2367 28.5178 21.6551 29.0706 21.0694 28.9254C20.8534 29.4378 21.2896 30.1117 20.6498 30.5152C19.0837 31.8872 20.3092 29.3289 19.4493 29.7122C18.4855 29.2401 18.5188 28.546 18.9882 27.7551C19.0214 27.2184 18.5686 26.5446 19.4867 26.2621C19.9104 26.133 20.305 26.0482 20.6498 26.3509C21.1234 26.7746 21.2688 27.2386 20.6623 27.6906C20.575 27.5978 20.4837 27.513 20.384 27.4323C20.4795 27.513 20.575 27.5978 20.6664 27.6865C20.7703 28.7478 21.5679 28.2757 22.0539 28.195C23.0966 28.0174 21.3976 27.166 22.3364 26.8916Z" fill="#EA5840"/>
<path d="M16.5197 31.3346C17.3339 32.5976 17.7992 34.014 19.278 34.9179C20.7029 35.7895 18.4763 35.8541 18.6134 36.5643C18.335 36.8064 18.0401 36.3464 17.7618 36.5844C18.1024 34.6637 15.8135 33.328 16.5197 31.3346Z" fill="#ED715A"/>
<path d="M8.09504 42.1867C8.03273 41.1657 7.1936 40.8308 7.27668 40.0883C7.62147 39.818 7.77517 40.1489 7.84995 40.3506C8.18643 41.2586 9.81069 41.8517 8.99233 42.9614C8.02026 44.2769 7.49269 42.1382 6.45001 42.3561C5.82274 42.4893 5.46549 41.7105 5.66904 41.2505C5.87259 40.7945 6.51232 40.9842 6.92774 41.2464C7.26006 41.4603 7.555 41.7468 8.09504 42.1867Z" fill="#EE735B"/>
<path d="M11.9427 33.7591C11.4899 34.2635 11.7848 35.3127 10.7089 35.3611C10.4015 34.2474 10.2852 33.061 9.46265 32.1329C9.46265 31.3864 9.46265 30.6439 9.46265 29.8974C9.64128 29.857 9.8199 29.8207 10.0027 29.7804C9.84898 30.7892 11.0121 30.8981 11.116 31.7294C10.8875 31.7738 10.5095 31.6971 10.5759 32.0522C10.6133 32.2378 10.929 32.375 11.1201 32.5364C11.4483 32.9117 11.3528 33.5533 11.9427 33.7591Z" fill="#EF806C"/>
<path d="M9.45737 37.4108C9.17905 37.8062 8.89657 38.2057 8.61825 38.6012L8.6224 38.6092C8.43962 36.4746 7.14354 37.5359 6.12994 37.7901C5.85992 38.0362 5.58575 38.0201 5.31158 37.7941C5.7436 36.519 7.73758 36.5391 7.79989 34.9614C8.94227 34.7757 8.8758 35.7684 9.2289 36.3495C9.43245 36.6763 9.44491 37.0436 9.45737 37.4108Z" fill="#EB5B44"/>
<path d="M17.3602 45.443C17.0113 46.1089 16.0475 45.6045 15.6944 46.2622C13.5883 46.0322 14.5105 44.3898 14.0411 43.2761C15.225 43.2236 15.0214 44.3898 15.7027 44.64C16.3965 44.6279 17.1525 44.5028 17.3602 45.443Z" fill="#EA533B"/>
<path d="M15.2703 22.4648C15.2703 22.5939 15.2745 22.7271 15.2828 22.8562C16.0762 24.3896 15.6027 25.6244 14.5434 26.9439C13.9493 26.2176 14.4312 25.9714 14.6181 25.6648C14.9172 25.1725 14.9879 24.5954 14.7635 24.1475C14.6763 23.974 14.2152 24.999 13.617 24.4703C13.6918 23.4333 13.0936 21.8676 15.2703 22.4648Z" fill="#EC6852"/>
<path d="M12.7811 47.467C12.5194 47.459 12.2577 47.4509 12.0002 47.4428C10.3676 47.0474 10.5421 45.7561 10.4922 44.5576C11.9046 44.372 10.8786 47.6204 13.3544 45.978C13.0719 46.7124 12.9265 47.0918 12.7811 47.467Z" fill="#F08069"/>
<path d="M17.3551 47.8694C17.1973 46.9453 15.6893 47.3368 15.6935 46.2593C16.8192 46.3078 17.8495 46.6185 18.7343 47.3206C18.9794 47.5143 19.4529 47.6757 19.1331 48.0429C18.9628 48.2366 18.51 48.2003 18.1859 48.2649C17.9533 48.0429 17.5337 48.1963 17.3551 47.8694Z" fill="#EE725A"/>
<path d="M22.0992 38.6796C23.1875 38.6151 23.5282 39.067 23.5489 39.7288C23.5697 40.3543 23.8397 41.3954 23.1044 41.464C21.8582 41.581 22.7846 40.556 22.6267 40.0637C22.4938 39.64 22.3152 39.2325 22.0992 38.6796Z" fill="#EE715B"/>
<path d="M17.3543 47.8715C17.6908 47.8796 17.9982 47.9482 18.1809 48.267C17.8486 48.4405 17.778 48.7431 17.7614 49.074C16.6148 48.957 15.2232 49.8125 14.4423 48.2751C15.352 47.7182 16.511 48.8682 17.3543 47.8715Z" fill="#EE6F56"/>
<path d="M18.9835 27.7605C18.9461 28.4545 19.025 29.1244 19.4446 29.7176C19.4446 30.2422 19.4446 30.7667 19.4446 31.2913C19.7187 30.0646 16.4578 29.1728 18.9835 27.7605Z" fill="#F0927C"/>
<path d="M13.1928 30.1124C12.8397 30.0882 12.4451 29.9712 12.7026 29.5717C13.2094 28.801 12.7608 28.2683 12.3578 27.6953C13.1887 26.9932 13.5127 27.3806 13.6124 28.2481C13.6871 28.918 13.5376 29.5354 13.1928 30.1124Z" fill="#EF7964"/>
<path d="M11.5398 29.3135C11.436 29.8542 11.0538 30.1165 10.8835 29.4789C10.6674 28.6719 10.7921 27.7801 10.7796 26.9205C10.7796 26.8883 10.8751 26.8237 10.9292 26.8237C10.9915 26.8197 11.0579 26.8681 11.1202 26.8923C11.249 27.7034 11.6852 28.458 11.5398 29.3135Z" fill="#EF7864"/>
<path d="M16.5753 38.6642C18.1289 38.9466 17.51 40.2984 18.2951 40.7867C17.2275 40.5486 16.8453 39.8182 16.5753 38.6642Z" fill="#EE755D"/>
<path d="M17.3588 45.4409C16.8064 45.1746 16.2497 44.9042 15.6972 44.6379C16.7939 43.6169 17.5126 44.771 18.3808 45.0737C18.1814 45.57 17.7286 45.3884 17.3588 45.4409Z" fill="#EE725B"/>
<path d="M20.9567 43.2864C20.6244 42.6407 20.2879 41.9951 19.8642 41.1759C21.0149 41.7611 21.0149 41.7611 20.9567 43.2864Z" fill="#EF7860"/>
<path d="M14.0199 38.5911C13.4882 37.8486 11.9636 37.5863 12.7737 36.1861C13.2265 36.9729 14.2442 37.4773 14.0199 38.5911Z" fill="#F0846E"/>
<path d="M14.4558 41.4093C14.4558 41.0905 14.5103 40.8006 14.8426 40.6392C15.3203 41.2162 15.8022 41.7933 16.3547 42.455C15.2829 42.6003 14.9917 41.8128 14.4558 41.4093Z" fill="#F18A74"/>
<path d="M19.7981 40.6845C19.3951 39.829 19.2207 39.3004 19.8978 38.7072C20.3589 39.3326 20.3838 39.8532 19.7981 40.6845Z" fill="#EE7058"/>
<path d="M20.6497 30.5193C20.7328 29.9745 20.4835 29.3491 21.0693 28.9294C21.3974 29.5912 21.8793 30.253 21.09 30.9268C20.9446 30.7896 20.7951 30.6565 20.6497 30.5193Z" fill="#EE7A63"/>
<path d="M16.1754 23.889C16.7943 24.1029 17.2928 24.2602 17.4507 24.809C17.4715 24.8817 17.1848 25.144 17.0394 25.144C16.354 25.144 16.138 24.7162 16.1754 23.889Z" fill="#EE725A"/>
<path d="M17.762 36.58C18.0154 35.2282 18.3353 36.8221 18.6136 36.5598C18.8337 36.6688 19.0498 36.7818 19.2699 36.8907C19.1702 37.032 19.0955 37.262 18.9708 37.2943C18.3477 37.4436 18.0112 37.0602 17.762 36.58Z" fill="#F0846F"/>
<path d="M24.4129 41.0162C24.55 40.8831 24.6912 40.7499 24.8283 40.6167C25.0568 40.7095 25.2354 40.8669 25.4058 41.0364C25.5179 41.1494 25.6052 41.2826 25.6633 41.4319C25.5221 41.6982 25.385 41.9645 25.2437 42.2308C23.6984 42.6424 24.6954 41.4117 24.4129 41.0162Z" fill="#EB5C45"/>
<path d="M11.9295 39.0097C11.9877 38.7071 12.0666 38.0937 12.1456 38.1583C12.669 38.5981 13.1135 39.155 12.3699 39.7966C12.0292 39.6352 11.9669 39.3285 11.9295 39.0097Z" fill="#F18A72"/>
<path d="M9.45859 37.4116C9.11795 37.226 9.04318 36.9072 9.0141 36.5682C8.79808 36.1203 8.71085 35.741 9.45028 35.8015C9.60398 36.193 9.75353 36.5844 9.90723 36.9758C9.75768 37.1211 9.60814 37.2663 9.45859 37.4116Z" fill="#EF7D66"/>
<path d="M5.30877 37.7967C5.58294 37.7967 5.85296 37.7926 6.12713 37.7926C6.19775 38.1356 6.73778 38.6198 6.2019 38.7853C5.50401 38.9992 5.3877 38.3293 5.30877 37.7967Z" fill="#EE755B"/>
<path d="M21.2651 44.2675C21.4562 44.5258 21.6888 44.7114 21.7345 44.9293C21.8093 45.3046 21.4853 45.3812 21.236 45.24C21.0408 45.1311 20.912 44.8688 20.8248 44.6509C20.804 44.5984 21.0657 44.437 21.2651 44.2675Z" fill="#F0846F"/>
<path d="M19.3405 32.7301C19.0871 32.9117 18.925 33.1215 18.788 33.1054C18.3933 33.061 18.2438 32.7463 18.2147 32.3911C18.1981 32.1813 18.2853 31.9231 18.5387 32.0482C18.8212 32.1854 19.033 32.4597 19.3405 32.7301Z" fill="#EE826A"/>
<path d="M16.5365 37.0967C16.4078 37.2984 16.3371 37.5486 16.2084 37.5769C15.876 37.6616 15.7389 37.3993 15.7722 37.1289C15.7888 36.9917 15.9799 36.79 16.1087 36.7738C16.225 36.7617 16.3704 36.9635 16.5365 37.0967Z" fill="#EF7D66"/>
<path d="M17.2438 42.6348C17.7631 42.8325 18.004 42.9899 17.9292 43.2804C17.896 43.4176 17.6592 43.5104 17.5138 43.6194C17.3684 43.4257 17.1607 43.2522 17.0943 43.0342C17.0569 42.9011 17.2189 42.6993 17.2438 42.6348Z" fill="#F0836B"/>
<path d="M14.4472 48.2792C13.7369 48.3075 13.093 48.2147 12.7814 47.4681C13.496 47.4237 14.1274 47.5448 14.4472 48.2792Z" fill="#EE6F56"/>
<path d="M16.5245 31.3306C16.1008 30.9755 15.756 30.5922 15.9222 29.9506C16.9316 30.1079 16.3542 30.8706 16.5245 31.3306Z" fill="#ED715A"/>
<path d="M11.9456 33.7587C11.1107 33.7103 11.1148 33.1252 11.1231 32.5401C12.091 32.5037 11.551 33.4278 11.9456 33.7587Z" fill="#ED6F58"/>
<path d="M8.61948 38.6024C8.68594 38.9374 9.17198 39.2239 8.75241 39.6032C8.69841 39.6516 8.47824 39.6153 8.42424 39.5507C8.10852 39.1714 8.24561 38.8607 8.62363 38.6105C8.61948 38.6105 8.61948 38.6024 8.61948 38.6024Z" fill="#F18870"/>
<path d="M9.01757 24.8395C8.7434 24.9242 8.44019 25.2221 8.2491 24.7218C8.14109 24.4433 8.41526 23.8259 7.7423 24.0358C7.54706 24.0963 7.48474 24.5684 7.36012 24.8509C7.10257 25.1132 6.84501 25.1132 6.59577 24.8388C6.575 24.181 6.55422 23.5233 6.53345 22.8615C6.47114 21.9536 6.66639 21.1344 7.38505 20.4928C8.61882 19.827 9.09654 17.8497 11.078 18.4671C11.1404 18.5922 11.2027 18.7778 11.1237 18.8343C9.29178 20.0489 8.62712 21.6267 9.47872 23.6928C9.32501 24.0721 9.17127 24.4561 9.01757 24.8395Z" fill="#F29481"/>
<path d="M9.0674 14.775C8.29473 14.6499 7.02358 15.2108 6.85741 14.3916C6.66632 13.4474 7.9084 13.1044 8.74338 12.6242C9.83175 11.9987 10.7955 11.9503 11.7966 12.5395C12.4322 12.9147 12.5776 13.4918 11.9005 14.0043C11.5266 14.2867 11.0738 15.3399 10.7083 13.98C9.80683 13.5563 9.48281 14.2544 9.0674 14.775Z" fill="#EC614B"/>
<path d="M9.47974 23.689C8.06735 20.945 8.06735 20.945 11.0791 18.4633C11.7645 18.8386 11.4571 19.3228 11.2369 19.803C10.6512 21.0984 10.0696 22.3937 9.47974 23.689Z" fill="#F08370"/>
<path d="M7.38908 20.4905C7.34338 21.3621 7.1606 22.1853 6.53748 22.8592C5.62773 22.9116 5.62358 21.806 4.8883 21.6405L4.89661 21.6486C4.79691 21.1967 4.59752 20.7407 4.63075 20.2968C4.65152 20.0345 5.0337 19.7964 5.25387 19.5462C5.53219 20.7891 6.79919 19.9094 7.38908 20.4905Z" fill="#EE7560"/>
<path d="M21.8788 13.1646C21.883 13.8385 21.8912 14.5126 21.8953 15.1906C20.3791 15.6062 18.9044 15.8201 17.762 14.3956C19.1328 13.984 20.5038 13.5722 21.8788 13.1646Z" fill="#E65137"/>
<path d="M4.88935 21.6428C4.85196 23.1722 4.82288 24.7056 4.75642 26.2349C4.74811 26.3802 4.50717 26.5134 4.13745 26.6183C4.44901 24.9638 3.21524 23.156 4.89766 21.6509L4.88935 21.6428Z" fill="#EE705C"/>
<path d="M17.7622 14.3902C19.0624 15.0318 20.5454 14.7856 21.8955 15.1851C21.8914 15.3183 21.8914 15.4555 21.8872 15.5887C20.7947 16.5692 19.6565 15.2537 18.5556 15.6492C18.2939 15.6451 18.0322 15.6371 17.7664 15.633C17.0061 15.6088 16.6406 14.9753 16.0881 14.3861C16.6447 14.3902 17.2014 14.3902 17.7622 14.3902Z" fill="#C74229"/>
<path d="M13.1811 23.6442C12.5497 23.7894 11.9556 24.7982 11.2868 23.8621C10.726 23.0792 11.4488 22.5627 11.9515 22.0543C12.2256 22.1794 12.4998 22.3045 12.7698 22.4295C13.368 22.3246 13.4303 22.7201 13.4719 23.1357C13.4345 23.3375 13.3389 23.507 13.1811 23.6442Z" fill="#F08570"/>
<path d="M16.5123 17.211C16.5123 17.3321 16.5081 17.4531 16.5039 17.5782C15.4239 17.4612 14.3397 17.3442 12.7777 17.1787C14.4061 15.8955 15.453 16.7389 16.5123 17.211Z" fill="#EF7B66"/>
<path d="M3.85848 21.121C3.55523 22.0491 3.25614 22.9772 2.95289 23.9053C2.62887 22.7835 2.57902 21.7465 3.85848 21.121Z" fill="#EE7560"/>
<path d="M9.44635 35.8018C9.10987 35.9552 9.05171 36.2578 9.01017 36.5685C8.45352 36.1408 8.65258 35.1768 7.79683 34.963C7.83422 34.5756 7.90102 33.994 8.31228 34.0546C9.26772 34.1918 9.29265 35.0715 9.44635 35.8018Z" fill="#EB5F48"/>
<path d="M12.782 21.6469C12.1921 20.5614 13.0021 19.9723 13.7208 19.4679C14.2317 19.1087 14.3647 19.6333 14.4436 20.0328C14.1694 20.7188 13.8994 21.4088 13.0644 21.6429C12.973 21.6469 12.8775 21.6469 12.782 21.6469Z" fill="#EC6852"/>
<path d="M3.02671 30.9998C3.87415 31.9239 3.61244 33.0699 4.15663 33.8568C3.34243 33.195 2.64038 32.4767 3.02671 30.9998Z" fill="#ED6C54"/>
<path d="M1.24186 28.7789C1.24186 27.3585 1.24186 25.9341 1.24186 24.5137C1.31248 24.5137 1.3831 24.5137 1.45372 24.5137C1.45372 25.9623 1.45372 27.411 1.45372 28.8596C1.3831 28.8354 1.31248 28.8072 1.24186 28.7789Z" fill="#EE735D"/>
<path d="M9.06802 14.7763C9.08048 14.0338 9.48343 13.5294 10.1813 13.3438C10.6341 13.2228 10.6466 13.6787 10.7089 13.9854C10.1606 14.2477 9.61221 14.51 9.06802 14.7763Z" fill="#EF7B65"/>
<path d="M6.6002 24.8372C6.8536 24.8413 7.11115 24.8453 7.36455 24.8493C7.50994 25.2609 7.65534 25.6725 7.80073 26.0882C6.7539 26.4191 6.63758 26.294 6.6002 24.8372Z" fill="#EE7560"/>
<path d="M7.84736 17.2317C8.07168 17.1994 8.52863 16.9048 8.47048 17.2196C8.33754 17.9419 8.07999 18.7772 6.95007 18.3858C6.82129 17.6877 7.34471 17.4657 7.84736 17.2317Z" fill="#E64A2F"/>
<path d="M5.95602 15.2053C5.61954 16.0729 5.09196 16.4078 4.39407 16.8477C4.34423 15.7582 4.99642 15.512 5.95602 15.2053Z" fill="#EC614B"/>
<path d="M2.42619 32.451C2.30156 32.7415 2.41788 33.1531 1.99831 32.9837C1.81969 32.911 1.67429 32.6043 1.64106 32.3864C1.60367 32.1564 1.70337 31.8134 2.05647 31.9426C2.2351 32.0071 2.32649 32.3057 2.42619 32.451Z" fill="#EE735B"/>
<path d="M9.44957 27.6782C9.79021 27.8759 10.2804 28.0414 9.94806 28.5417C9.69882 28.9251 9.33741 28.578 9.02585 28.5337C8.54813 27.9647 9.18371 27.9082 9.44957 27.6782Z" fill="#F0826E"/>
<path d="M7.84708 17.2306C7.54799 17.618 7.24889 18.0013 6.94564 18.3847C6.65901 17.4485 6.84594 17.2064 7.84708 17.2306Z" fill="#EF7960"/>
<path d="M2.02175 20.5132C2.16299 20.7432 2.31669 20.8844 2.325 21.0337C2.34161 21.3081 2.17545 21.5422 1.85974 21.4453C1.74758 21.409 1.64788 21.1306 1.66449 20.9732C1.67696 20.836 1.85974 20.7149 2.02175 20.5132Z" fill="#EE6F58"/>
<path d="M13.2092 23.2642C13.1926 22.9252 13.1178 22.6105 12.773 22.4329C12.7772 22.1707 12.7813 21.9084 12.7855 21.6501C13.3463 21.3192 13.7576 21.525 13.8323 22.0859C13.8905 22.5379 14.0567 23.1956 13.2092 23.2642Z" fill="#EC6852"/>
<path d="M3.60833 19.0431C3.77034 19.1844 3.93235 19.2973 3.91989 19.3175C3.75788 19.5879 3.5751 19.8502 3.40063 20.1125C3.35493 19.9914 3.24693 19.8542 3.27601 19.7533C3.34663 19.5153 3.48371 19.2973 3.60833 19.0431Z" fill="#EE7560"/>
<path d="M32.721 19.2218C32.7501 20.041 31.7282 21.0054 33.0782 21.639C33.2652 21.7035 33.4729 21.752 33.4937 21.4816C33.5144 21.2193 33.3358 21.0256 33.1406 20.8561C33.394 19.7545 35.2093 19.5326 34.5031 17.6198C35.417 18.2534 35.982 18.4874 36.0401 19.2259C35.4793 21.0216 35.5001 22.9383 34.7897 24.6977C34.8147 25.0286 34.9268 25.3312 35.0888 25.6177C35.3007 26.0132 35.6413 26.1544 36.0858 26.0899C36.3517 26.0455 36.6134 26.0051 36.8793 25.9728C37.4941 25.8921 38.0341 25.9769 38.329 26.5943C37.9427 28.8015 37.681 28.9428 35.0514 28.398C35.2467 28.7249 35.6123 28.5998 35.8823 28.7087C36.4555 28.9468 36.7588 29.3503 36.7214 29.9677C36.5469 30.9927 36.2354 31.6706 35.2093 30.5286C34.1791 30.5448 33.2029 29.9637 32.0937 30.5488C31.2421 30.9967 31.4249 29.9395 31.2463 29.5763C31.0261 29.1365 31.1383 28.6159 31.9151 28.9307C32.6462 29.2253 33.1447 28.8177 33.3732 28.2608C33.6058 27.6878 33.0201 27.1915 32.6545 26.9453C32.0231 26.5136 31.8362 27.2964 31.4955 27.6313C30.9887 28.1277 30.8475 27.6152 30.6356 27.3206C30.4487 26.2472 30.7436 25.3111 31.4665 24.4919C30.2078 22.6034 31.2754 20.7189 31.4789 18.8345C31.3834 18.7497 31.346 18.6609 31.3751 18.5722C31.4041 18.4834 31.4332 18.435 31.4665 18.435C32.1186 18.3543 32.289 18.9878 32.721 19.2218Z" fill="#EC634A"/>
<path d="M24.4134 26.0841C25.2609 27.0727 26.6359 25.4545 27.4418 26.6611C27.853 26.0397 27.9818 25.3295 27.9735 24.6193C27.9652 24.0301 27.8239 23.445 27.7409 22.8558C28.0815 22.6783 28.1521 22.3716 28.1729 22.0326C28.6921 22.3837 28.7835 21.8672 29.0162 21.6372C29.282 21.9116 29.5479 22.186 29.8179 22.4604C29.6559 22.646 29.6351 22.9043 29.498 23.102C29.2073 23.4974 29.5188 23.8404 29.6019 24.2077C29.6434 24.6959 29.444 25.0551 28.9996 25.281C28.6132 25.6563 28.8874 26.1648 28.7337 26.5885C28.9082 26.193 28.6506 25.7209 28.9539 25.3456C29.7888 24.9784 29.4565 25.9146 29.8179 26.076C30.0755 29.2517 27.853 27.6417 26.4946 27.7022C26.1374 27.9685 26.0584 28.4931 25.5683 28.6384C24.6336 28.3559 24.5256 27.1816 23.5909 26.8951C23.4538 26.762 23.3126 26.6248 23.1755 26.4916C23.2627 25.4142 24.0022 26.2374 24.4134 26.0841Z" fill="#EB624A"/>
<path d="M31.4711 18.4219C31.4752 18.555 31.4794 18.6882 31.4835 18.8213C30.7815 19.5437 30.5447 18.8657 30.2248 18.4259C30.5115 17.9699 30.2664 17.5704 29.9714 17.292C29.8011 17.1306 29.61 17.526 29.394 17.6188C29.2569 17.6188 29.1198 17.6148 28.9827 17.6148C28.5424 17.2234 28.343 16.719 28.2475 16.1661C28.1312 15.4237 28.6961 14.8628 28.8 14.1808C29.124 13.6562 29.1946 13.063 29.3109 12.4779C30.2414 11.9574 31.0141 12.7483 31.8823 12.7644C33.1576 12.607 33.5564 13.4988 33.9635 14.3906C33.0247 14.6449 32.7298 13.7329 31.9654 13.2971C31.4004 15.0242 31.0266 16.6746 31.4711 18.4219Z" fill="#E7523B"/>
<path d="M35.2136 30.5292C35.8367 30.9852 36.2604 30.8722 36.464 30.1176C37.1619 29.4599 37.8515 30.6462 38.5452 30.1216C39.0562 30.4041 39.5962 30.5857 40.1944 30.5252C40.5309 30.8318 40.5475 31.195 40.3938 31.5905C39.4425 31.7357 39.214 33.019 38.1256 32.9504L38.1173 32.9463C37.4402 32.4096 36.6385 32.22 35.816 31.99C35.6996 33.0391 37.2076 32.797 36.9791 33.7292C36.9417 33.8785 36.5346 34.06 36.3228 34.0358C35.629 33.9511 34.7359 34.0439 34.7899 32.9423C34.5406 32.6719 34.549 32.4056 34.8023 32.1433C35.4047 31.7156 35.1513 31.0861 35.2136 30.5292Z" fill="#EA5840"/>
<path d="M25.6639 41.4278C25.5227 41.4238 25.3856 41.4238 25.2443 41.4197C24.7749 40.883 25.4396 40.3423 25.2443 39.8056C25.3897 39.3214 25.6847 38.8291 25.6598 38.3529C25.5684 36.6945 26.528 36.6864 27.741 36.9729C28.0193 36.7429 28.2935 36.7429 28.5635 36.981C29.0994 37.0939 29.6394 37.2755 28.8833 37.792C28.119 38.3126 27.687 39.0228 27.3172 39.8056C26.2455 39.8662 26.5321 40.9153 26.071 41.4197C25.9381 41.4197 25.801 41.4238 25.6639 41.4278Z" fill="#EC654E"/>
<path d="M30.8678 37.8097C31.0755 37.2286 31.333 36.5708 31.3123 36.5587C27.7605 35.0899 31.79 33.3668 31.1586 31.8052C31.0879 31.6317 31.466 31.3976 31.7775 31.5631C32.1057 31.7366 32.3882 32.1038 32.2345 32.3661C31.4701 33.6695 31.9935 34.9002 32.2552 36.1875C32.3965 36.9098 31.8149 37.39 30.8678 37.8097Z" fill="#EC6951"/>
<path d="M24.824 32.9351C24.5416 32.9996 24.0389 33.27 24.0555 32.814C24.1054 31.5631 23.2829 32.1643 22.747 32.1401C22.8758 31.3654 22.3274 30.3485 23.6817 30.0378C24.8739 29.7634 25.0317 30.6834 25.4347 31.325C25.6922 31.7366 25.9166 32.1442 26.494 32.1442C26.7017 32.58 26.4483 32.7938 26.0786 32.9472C25.659 33.5888 25.2602 30.8892 24.824 32.9351Z" fill="#EA5840"/>
<path d="M29.3976 46.6611C30.6397 46.536 31.8859 46.4069 33.128 46.2818C32.077 46.5965 33.0117 48.4649 31.4747 48.2752C30.8765 47.6175 30.0747 47.9241 29.3602 47.8878C28.6665 47.8515 28.0683 47.7264 28.1846 46.9153C28.3259 45.9307 29.1151 47.331 29.3976 46.6611Z" fill="#EC674F"/>
<path d="M34.8069 40.211C34.3831 41.0019 34.0093 41.8291 33.1328 42.4788C32.7672 41.5426 33.8971 40.9979 33.544 40.215C32.9707 39.2829 34.03 38.6251 33.9802 37.7818C34.3291 37.5154 34.2627 37.2532 33.976 36.9909C34.2253 36.6358 34.7238 36.2605 34.973 36.5308C35.5047 37.1119 35.4341 38.3669 35.0976 38.5364C34.0134 39.0771 34.9232 39.6783 34.8069 40.211Z" fill="#ED6B53"/>
<path d="M28.5972 30.7866C28.8921 32.1344 28.6429 33.4095 28.0655 34.6443C28.0779 33.3369 27.9201 32.0093 28.5972 30.7866Z" fill="#ED6D59"/>
<path d="M29.3933 17.6148C29.4722 17.1346 29.1731 16.5414 29.7464 16.2226C29.8752 16.15 30.3072 16.3276 30.3903 16.493C30.7267 17.1467 30.8687 17.8327 30.2248 18.4259C29.9507 18.1555 29.6716 17.8852 29.3933 17.6148Z" fill="#E2412B"/>
<path d="M29.3899 22.8615C29.5311 22.7283 29.6682 22.5951 29.8095 22.462C30.6818 23.6685 29.4688 24.871 29.8095 26.0776C29.5353 25.8072 29.2653 25.5409 28.9911 25.2705V25.2665C29.1199 24.863 29.2445 24.4635 29.3733 24.0599C29.0617 23.6564 29.0576 23.2569 29.3899 22.8615Z" fill="#EF785F"/>
<path d="M23.5823 26.8927C24.7205 26.8886 24.9864 27.9257 25.6303 28.5149C25.7424 28.5875 25.7881 28.6682 25.759 28.757C25.7299 28.8457 25.7009 28.8942 25.6676 28.8942C25.1151 29.1121 24.4588 29.4995 24.4173 28.4543C24.3882 27.7804 23.8024 27.4415 23.5823 26.8927Z" fill="#EA5840"/>
<path d="M31.471 24.4781C31.1927 25.4224 30.9144 26.3666 30.6402 27.3069C29.8924 26.0801 30.2455 25.1601 31.471 24.4781Z" fill="#ED755D"/>
<path d="M34.7984 32.1396C34.7942 32.4059 34.79 32.6723 34.7859 32.9386C34.5408 33.2937 34.2957 33.6488 33.8346 34.3186C33.7515 33.104 33.9468 32.3414 34.5533 31.6796C34.5616 31.6715 34.6862 31.7199 34.7028 31.7643C34.7527 31.8854 34.7693 32.0145 34.7984 32.1396Z" fill="#EC6951"/>
<path d="M27.55 29.5457C27.4378 30.1913 27.3257 30.837 27.2135 31.4826C27.0598 31.4665 26.9061 31.4463 26.7524 31.4302C26.8562 30.7805 26.9643 30.1308 27.0681 29.4811C27.2301 29.5013 27.3921 29.5215 27.55 29.5457Z" fill="#EE745E"/>
<path d="M38.1258 35.7695C37.8433 36.4394 37.565 37.1052 37.2825 37.7751C37.1496 37.7831 37.0125 37.7831 36.8796 37.7831C36.5223 37.3836 36.5182 36.9841 36.8837 36.5847C37.5069 36.6169 36.971 34.9746 38.1258 35.7695Z" fill="#EE745C"/>
<path d="M36.0439 42.2261C35.6368 42.3027 35.4876 43.2433 35.014 42.7268C34.4823 42.1457 35.1013 41.722 35.6247 41.4153C35.9653 41.5848 36.0356 41.8911 36.0439 42.2261Z" fill="#EE7056"/>
<path d="M26.9062 42.6294C26.9062 42.4963 26.902 42.3591 26.902 42.2259C26.9726 41.9152 27.0349 41.6004 27.1346 41.2978C27.1388 41.2816 27.5625 41.3139 27.6041 41.3987C27.8076 41.8547 27.7868 42.2985 27.3257 42.6294C27.1886 42.815 27.0474 42.8271 26.9062 42.6294Z" fill="#EC654E"/>
<path d="M36.8798 36.5841C36.8798 36.9836 36.8798 37.3831 36.8757 37.7826C36.4893 37.9117 36.0199 38.1175 36.0615 37.4315C36.0905 36.9957 35.9534 36.2653 36.8798 36.5841Z" fill="#EA5840"/>
<path d="M28.5633 36.9785C28.2892 36.9745 28.015 36.9745 27.7408 36.9705C27.7616 36.345 28.0399 35.8648 28.5218 35.4492C29.1657 36.0383 28.4429 36.4983 28.5633 36.9785Z" fill="#EF7965"/>
<path d="M25.2442 39.8072C26.6649 40.3479 24.7125 40.8806 25.2442 41.4213C24.9077 41.2478 24.8371 40.9492 24.8288 40.6143C24.8288 40.3439 24.833 40.0735 24.833 39.8032C24.9701 39.8072 25.1071 39.8072 25.2442 39.8072Z" fill="#EB5F48"/>
<path d="M37.3082 40.6089C37.3456 40.1126 37.4744 39.6728 38.0601 39.5598C38.1515 39.5436 38.3551 39.6526 38.3717 39.7292C38.4631 40.2296 38.0518 40.4112 37.7112 40.6291C37.5741 40.617 37.4411 40.613 37.3082 40.6089Z" fill="#EF826A"/>
<path d="M26.9053 42.631C27.0465 42.631 27.1836 42.631 27.3248 42.631C27.2542 43.2726 27.6032 44.12 26.4857 44.2451C26.4234 43.656 26.6103 43.1314 26.9053 42.631Z" fill="#ED6C53"/>
<path d="M26.9013 47.8779C26.7642 47.7407 26.623 47.6035 26.4859 47.4663C26.8141 47.091 27.2419 46.8327 27.5203 47.3977C27.7072 47.7891 27.1879 47.8052 26.9013 47.8779Z" fill="#EC674F"/>
<path d="M25.6676 28.8929C25.6635 28.7678 25.651 28.6427 25.6302 28.5177C25.6593 27.9931 25.921 27.6985 26.486 27.7025C26.4818 28.2755 26.5275 28.8768 25.6676 28.8929Z" fill="#EE806A"/>
<path d="M26.0781 44.2435C26.2152 44.2435 26.3523 44.2395 26.4894 44.2395C26.6265 44.6026 26.8882 45.0021 26.3565 45.2563C26.2277 45.3169 26.0034 45.2039 25.8247 45.1676C25.9078 44.8609 25.9951 44.5502 26.0781 44.2435Z" fill="#ED6C53"/>
<path d="M28.8382 44.4128C28.7634 44.4894 28.6637 44.6791 28.5142 44.7315C28.2691 44.8203 28.1611 44.6105 28.2109 44.4208C28.2483 44.2675 28.3771 44.0657 28.5142 44.0213C28.7136 43.9527 28.8756 44.0859 28.8382 44.4128Z" fill="#ED6C53"/>
<path d="M26.0828 32.9455C26.2199 32.6792 26.3612 32.4088 26.4982 32.1425C26.868 32.4008 27.0466 32.7397 26.7143 33.1069C26.4982 33.341 26.2448 33.1877 26.0828 32.9455Z" fill="#EE745E"/>
<path d="M33.0287 34.1152C32.8999 34.2282 32.7462 34.3855 32.7338 34.3734C32.5925 34.2604 32.4139 34.1394 32.3682 33.9901C32.31 33.7924 32.418 33.5543 32.6922 33.6753C32.8418 33.7439 32.9207 33.9618 33.0287 34.1152Z" fill="#EC6951"/>
<path d="M29.0072 21.6418C28.9989 22.3197 28.6375 22.2915 28.1639 22.0372C28.1639 21.779 28.1598 21.5207 28.1598 21.2625C28.5087 21.2504 28.8161 21.327 29.0072 21.6418Z" fill="#EE7661"/>
<path d="M33.9716 36.9865C34.3995 37.0228 34.8315 37.1399 34.7402 37.6483C34.6446 38.1769 34.2541 37.8339 33.9758 37.7774C33.9758 37.5111 33.9716 37.2488 33.9716 36.9865Z" fill="#F0846D"/>
<path d="M27.32 39.8044C27.6731 39.8931 28.0387 39.4735 28.3669 39.8286C28.3876 39.8488 28.1882 40.1312 28.047 40.216C27.5734 40.4944 27.3408 40.3088 27.32 39.8044Z" fill="#EC654E"/>
<path d="M43.1013 26.4885C43.1013 26.0244 43.0889 25.5806 42.7773 25.177C42.5613 24.8905 42.0503 24.7574 42.2082 24.2489C43.1553 24.8703 43.3049 22.7196 44.3475 23.6678C44.7214 23.3006 44.9 22.9294 44.3932 22.5299C44.4431 21.8076 43.7826 20.9319 44.8793 20.4477C46.4786 23.5185 45.868 25.6169 43.1096 26.4966C43.1055 26.4925 43.1013 26.4885 43.1013 26.4885Z" fill="#EC6149"/>
<path d="M31.8815 12.7592C31.0548 12.7713 30.2282 12.7834 29.4056 12.7955C29.5095 13.3685 29.0899 13.4008 28.687 13.4533C28.1553 12.9933 27.0461 13.0941 27.1707 11.9885C27.6692 11.3509 28.8739 11.1492 28.4834 9.96279C28.6164 9.80541 28.7742 9.69242 28.9695 9.61979C29.6964 9.59154 30.4566 9.34539 31.0673 9.96279C30.7599 11.0523 32.9242 11.4639 31.8815 12.7592Z" fill="#EA664F"/>
<path d="M41.0095 21.0537C42.1145 21.6993 41.9192 22.5427 41.6035 23.6604C40.6315 22.7848 41.3543 21.7921 41.0095 21.0537Z" fill="#ED6A51"/>
<path d="M33.9632 14.3867C35.9946 14.3544 34.8771 15.6659 35.0599 16.4245C34.0962 16.0008 34.524 14.9799 33.9632 14.3867Z" fill="#EE755D"/>
<path d="M38.9569 13.9831C38.9112 14.8547 40.5894 14.4965 40.1948 15.6143C39.7129 15.4246 39.1812 15.2995 38.7533 15.0251C38.0679 14.5934 37.9142 14.1485 38.9569 13.9831Z" fill="#EE8068"/>
<path d="M43.5138 30.506C43.9915 30.6997 44.3155 31.0185 44.3446 31.5391C44.3654 31.9426 44.9179 32.5358 44.1951 32.7052C43.4099 32.8909 43.9998 31.9143 43.5387 31.7247C43.5304 31.3212 43.5221 30.9136 43.5138 30.506Z" fill="#F08068"/>
<path d="M33.1456 20.8592C34.0304 20.9116 33.9598 21.5411 33.9515 22.1262C33.9473 22.4168 33.7978 22.6912 33.507 22.4652C33.2827 22.2917 33.2204 21.9204 33.0833 21.642C33.104 21.3797 33.1248 21.1174 33.1456 20.8592Z" fill="#EE7F69"/>
<path d="M31.0679 9.96462C30.237 9.96059 29.4021 9.95655 28.5712 9.95252C29.0863 8.6572 30.2412 9.70233 31.0055 9.32705C31.18 9.31898 31.3503 9.31091 31.5248 9.29881C31.6328 9.52478 31.7408 9.74672 31.8447 9.97269C31.5871 9.96866 31.3254 9.96462 31.0679 9.96462Z" fill="#EE7359"/>
<path d="M44.3946 22.5303C44.6812 22.4093 45.0384 22.1026 45.1672 22.6393C45.3126 23.2486 45.1132 23.6965 44.3489 23.6683C44.3613 23.2889 44.3779 22.9096 44.3946 22.5303Z" fill="#F39F86"/>
<path d="M45.5619 31.3265C43.9958 31.3951 45.1174 30.2169 44.7685 29.7205C45.8776 29.8618 44.9346 30.9593 45.5619 31.3265Z" fill="#EF7B62"/>
<path d="M33.0457 17.0768C32.676 16.4312 33.0873 16.0115 33.4196 15.4466C33.5276 16.1084 33.8184 16.6854 33.0457 17.0768Z" fill="#ED6F56"/>
<path d="M40.6564 18.3477C39.6428 18.1863 39.568 17.698 39.4974 17.0887C40.1786 17.1936 40.3656 17.6254 40.6564 18.3477Z" fill="#EF7B65"/>
<path d="M37.0786 11.8768C36.9083 11.9776 36.7089 12.1915 36.4929 12.2077C36.1398 12.2399 36.065 11.9211 36.1273 11.6629C36.1647 11.5176 36.36 11.3199 36.5012 11.3078C36.7878 11.2836 36.9831 11.4813 37.0786 11.8768Z" fill="#EC624B"/>
<path d="M32.726 19.2241C32.7468 18.6996 32.9296 18.2597 33.4073 17.8723C33.6524 18.639 33.5693 19.1313 32.726 19.2241Z" fill="#ED6F56"/>
<path d="M39.3602 19.6114C39.1318 19.5065 38.7496 19.446 38.7039 19.2886C38.5585 18.8003 38.9988 18.6228 39.3602 18.4372C39.6261 18.8326 39.6302 19.224 39.3602 19.6114Z" fill="#F0836C"/>
<path d="M46.0175 26.6094C45.8887 26.8112 45.8181 27.0574 45.6893 27.0896C45.3528 27.1744 45.224 26.9121 45.2573 26.6498C45.2739 26.5126 45.4608 26.3149 45.5938 26.2947C45.7101 26.2826 45.8555 26.4844 46.0175 26.6094Z" fill="#EF7D66"/>
<path d="M37.6688 18.0425C37.8184 18.4299 37.9638 18.8173 38.1133 19.2087C37.2451 19.0756 36.9585 18.7406 37.6688 18.0425Z" fill="#F2917F"/>
<path d="M35.3759 13.5756C35.2056 13.4263 35.081 13.3173 34.9563 13.2043C35.081 13.0712 35.1807 12.8734 35.3302 12.8331C35.4424 12.8048 35.6127 12.9824 35.7539 13.0712C35.6459 13.2205 35.5338 13.3698 35.3759 13.5756Z" fill="#F2937D"/>
<path d="M40.1902 31.7423C40.1902 31.3347 40.1944 30.9312 40.1944 30.5236C41.3243 30.0152 41.4198 30.9675 41.3451 31.5042C41.1997 32.5614 40.9546 33.4371 41.9183 34.3773C42.3503 34.797 41.7272 35.8825 41.7978 36.6814C41.3243 37.6217 41.424 38.8847 40.1944 39.4052C40.3605 38.5578 39.7416 38.0212 39.3552 37.3917C39.7997 37.0043 39.8496 36.6088 39.3802 36.2012C39.4674 35.2005 40.5308 34.4621 40.1902 33.3443C39.7582 32.8116 39.6917 32.279 40.1902 31.7423Z" fill="#EC6149"/>
<path d="M35.2219 44.6535C35.6332 43.7415 35.6332 42.2243 37.3862 43.4469C37.9636 43.8505 38.1921 42.8901 38.6865 42.7731C39.5256 42.5753 39.6668 41.4616 40.6098 41.4172C40.3439 43.6205 38.0384 44.0361 36.8753 45.4525C35.9074 46.0013 35.6456 45.166 35.2219 44.6535Z" fill="#EC654D"/>
<path d="M40.2022 39.4068C40.7547 38.519 41.2158 37.599 41.4401 36.578C41.4525 36.001 41.3612 35.3594 42.2667 35.3594C43.0394 35.8961 42.4786 36.4408 42.2792 36.9816C41.411 38.0307 41.5772 39.8385 39.7826 40.2098C39.9197 39.9434 40.0609 39.6731 40.2022 39.4068Z" fill="#ED6F57"/>
<path d="M40.1911 31.7439C40.1911 32.2806 40.1952 32.8132 40.1952 33.3499C39.4059 33.701 38.7944 33.1844 38.1256 32.9504C38.595 32.7365 38.8784 32.3935 38.949 31.877C39.1775 30.2589 39.7466 31.5219 40.1911 31.7439Z" fill="#E0462F"/>
<path d="M35.2217 44.6547C35.7742 44.921 36.3225 45.1873 36.875 45.4536C36.7628 46.1437 36.6424 46.7812 35.6495 46.2728C34.8603 45.8652 34.341 45.4496 35.2217 44.6547Z" fill="#EE725C"/>
<path d="M39.3839 36.2048C39.7287 36.233 40.0776 36.2774 40.1192 36.7011C40.1732 37.2297 39.791 37.3427 39.359 37.3911C39.3673 36.9957 39.3756 36.6002 39.3839 36.2048Z" fill="#EF836B"/>
<path d="M33.522 44.2207C33.4098 43.9746 33.2603 43.8051 33.2977 43.6921C33.3475 43.5468 33.5386 43.4459 33.6715 43.3249C33.7505 43.4621 33.9083 43.6074 33.8917 43.7365C33.8751 43.8737 33.7006 43.9988 33.522 44.2207Z" fill="#ED6B53"/>
<path d="M39.193 38.4496C38.977 38.6352 38.8524 38.8168 38.6987 38.845C38.5865 38.8652 38.4328 38.6877 38.2957 38.5989C38.4162 38.4778 38.52 38.2962 38.6613 38.2559C38.7859 38.2236 38.9562 38.3527 39.193 38.4496Z" fill="#EF7D62"/>
<path d="M34.384 24.8739C34.4339 23.1266 35.435 21.5448 35.2896 19.7572C35.2606 19.4021 35.6967 19.281 36.0415 19.2245C36.6397 19.8863 35.8878 20.649 36.1495 21.2543C36.6563 22.4124 37.6076 23.1508 38.9619 23.288C39.2859 23.6674 39.2859 24.0507 38.966 24.4341C39.099 24.7165 39.2277 24.995 39.3607 25.2774C39.2194 25.4066 39.0616 25.5195 38.8954 25.6124C38.0563 25.8424 37.2047 26.1047 36.6273 25.1443C36.4902 24.9183 36.4611 24.5713 36.0374 24.6681C35.5181 24.9748 34.9864 25.225 34.384 24.8739Z" fill="#EB5C45"/>
<path d="M38.9568 25.2883C39.0939 25.2883 39.231 25.2883 39.3639 25.2842C39.3889 25.9944 40.4025 26.6966 39.1147 27.4189C37.8809 28.1089 39.4263 28.4317 39.6049 28.9442C39.069 29.6383 38.2797 29.1016 37.6815 29.4284C37.7272 29.9369 38.2423 29.9127 38.5456 30.1306C37.8477 31.5712 37.1581 29.832 36.4644 30.1265C36.4519 29.5414 36.1694 29.1339 35.6086 28.9079C35.2431 28.6375 34.8152 28.5488 34.3666 28.5205C34.0799 27.1727 35.5588 27.3785 35.7291 27.5601C37.7771 29.7311 37.5984 27.3987 38.1219 26.4988C38.0679 25.8734 38.5124 25.5828 38.9568 25.2883Z" fill="#EE7157"/>
<path d="M42.2679 35.3566C41.9937 35.7641 41.7154 36.1677 41.4412 36.5752C42.0186 34.8037 40.0371 33.2704 40.9676 31.4303C41.2086 30.9581 40.7724 30.5788 40.195 30.5264C40.195 30.1228 40.195 29.7153 40.195 29.3118C40.6602 29.0898 41.0715 28.9688 41.0258 29.7193C41.5243 30.6878 42.6501 31.4827 41.6323 32.8305C41.4246 33.1049 42.0394 33.9684 42.2762 34.5576C42.272 34.8239 42.272 35.0903 42.2679 35.3566Z" fill="#EA5840"/>
<path d="M44.3413 33.7678C44.2707 34.1552 44.2416 34.5587 44.1045 34.9219C44.0463 35.0793 44.038 35.5716 43.6475 35.3053C43.4938 35.2004 43.5478 34.817 43.5063 34.5587C43.5312 34.0463 43.7929 33.7638 44.3413 33.7678Z" fill="#EE745B"/>
<path d="M41.0258 29.7211C40.843 29.4023 40.5356 29.3256 40.195 29.3135C40.2822 28.8212 40.3238 28.115 41.0632 28.4701C41.5908 28.7163 41.5949 29.3135 41.0258 29.7211Z" fill="#EE7157"/>
<path d="M38.9694 24.4384C38.9694 24.0551 38.9653 23.6717 38.9653 23.2924C39.4056 23.3206 39.7919 23.4215 39.7255 23.9663C39.6756 24.39 39.3142 24.4142 38.9694 24.4384Z" fill="#F0846E"/>
<path d="M34.3456 3.06244C34.2209 3.08262 34.0963 3.09876 33.9758 3.11894C33.1741 1.93257 33.5231 1.33535 34.9687 1.18201C35.1805 2.02538 34.25 2.37645 34.3456 3.06244Z" fill="#9EC284"/>
<path d="M38.9352 3.89107C38.2497 4.16143 37.5602 4.69005 36.8706 3.89511C37.5602 3.62071 38.2456 3.1163 38.9352 3.89107Z" fill="#87B266"/>
<path d="M38.0889 1.85284C37.5572 2.01425 37.0254 2.17162 36.4937 2.33303C36.797 1.44931 37.3121 1.24351 38.0889 1.85284Z" fill="#7FAE63"/>
<path d="M37.2942 2.69205C37.8425 2.55082 38.3909 2.41362 38.9434 2.27238C38.6069 3.2126 38.0544 3.32559 37.2942 2.69205Z" fill="#88B468"/>
<path d="M29.818 3.46681C29.818 3.33768 29.8097 3.21259 29.7972 3.08749C29.9301 2.87363 30.0506 2.65976 30.2043 2.46203C30.2209 2.44185 30.4992 2.54273 30.5117 2.61133C30.5865 3.10767 30.1794 3.27312 29.818 3.46681Z" fill="#9CC181"/>
<path d="M27.317 11.9687C27.2838 12.8 28.3556 12.57 28.5508 13.1793C27.9817 14.9346 26.3159 15.1122 24.862 15.4592C23.973 15.6731 23.8068 14.9265 23.7819 14.18C23.7445 12.9331 23.973 11.6701 23.6323 10.4353C23.6199 10.3021 23.6074 10.169 23.5991 10.0318C24.3427 9.21665 25.3605 9.68878 26.2328 9.49912C26.5942 9.52737 26.9556 9.55561 27.3129 9.57982C27.4624 9.68878 27.5954 9.81387 27.72 9.94703C28.1728 10.7743 28.0315 11.3957 27.0636 11.7266C27.0886 11.7831 27.0969 11.8557 27.1384 11.8961C27.1841 11.9364 27.2547 11.9445 27.317 11.9687Z" fill="#E95840"/>
<path d="M26.2377 9.49935C25.4401 10.0481 24.493 9.91901 23.604 10.032C23.4503 9.59619 23.6788 9.3218 24.0153 9.08775C24.1524 9.09986 24.2895 9.07968 24.4224 9.03529C25.0164 9.22898 25.7434 8.93845 26.2377 9.49935Z" fill="#F0E2D4"/>
<path d="M27.33 9.93647C27.3134 9.81945 27.3134 9.70242 27.3217 9.58137C28.514 9.02046 29.7602 9.16573 31.0064 9.32311C30.2919 9.88805 29.2202 9.14152 28.5721 9.94857L28.5712 9.95252C28.1517 10.3117 27.7413 10.2391 27.33 9.93647Z" fill="#F29687"/>
<path d="M35.6451 6.34521C34.7644 6.15959 33.7342 6.64382 32.8037 5.65922C33.9668 5.60676 34.943 5.35658 35.6617 6.33714C35.6575 6.33714 35.6451 6.34521 35.6451 6.34521Z" fill="#9AC284"/>
<path d="M34.3737 3.91091C34.6895 4.62515 35.3209 4.7341 36.0146 4.72603C35.0218 5.69046 34.0622 4.45567 33.0777 4.68971C33.356 4.19337 33.7714 3.90284 34.3737 3.91091Z" fill="#80B063"/>
<path d="M30.0036 6.35519C30.3609 6.73047 30.6725 6.9282 30.7763 7.19856C30.93 7.60208 30.5728 7.82402 30.2238 7.80385C30.0161 7.79174 29.6672 7.54156 29.6589 7.38015C29.6422 7.10575 29.8375 6.81521 30.0036 6.35519Z" fill="#A3C380"/>
<path d="M23.6364 10.4361C24.3177 11.5499 23.9064 12.7725 23.9853 13.9428C24.0601 15.0726 24.4631 15.4358 25.5182 14.8346C26.5193 14.2616 27.6909 13.9863 28.5508 13.1793C28.8374 13.0501 29.124 12.9218 29.4064 12.7927C30.4034 13.628 29.2569 13.8782 28.9536 14.3584C28.6005 14.9233 28.0397 15.2583 27.4831 15.5932C26.8974 15.8918 26.2659 16.0693 25.6511 16.2994C25.1069 16.4325 24.5711 16.7231 23.9936 16.4204C22.1534 16.3518 20.2425 16.7473 18.5559 15.6537C19.6443 14.536 20.7867 15.9927 21.8875 15.5932C22.926 16.3074 23.5533 16.1379 23.5865 14.8184C23.6239 13.3577 23.6198 11.8969 23.6364 10.4361Z" fill="#B84328"/>
<path d="M23.9897 16.4191C24.5048 16.1488 25.0365 15.9389 25.6347 15.9833C26.2204 15.6928 26.9183 15.9753 27.4957 15.6363C27.9112 15.5879 28.2642 15.713 28.5592 15.9995C28.8458 16.4999 29.0452 17.0244 28.9788 17.6136C28.8417 17.6136 28.7004 17.6136 28.5633 17.6136C28.285 17.4522 27.9693 17.3069 27.9693 16.9357C27.9693 16.75 28.0025 16.6895 27.9527 16.7581C27.8738 16.859 27.8031 16.9639 27.7408 17.0729C27.4833 17.3997 27.2091 17.7145 26.9142 18.009C26.2163 16.9518 25.5267 17.5288 24.8413 18.0211C24.5712 18.0332 24.4092 18.1503 24.4134 18.4327C24.6045 18.7999 25.265 18.9896 24.8163 19.5949C24.4466 20.0953 23.9814 20.1356 23.5909 19.7684C22.8805 19.1066 22.004 19.3084 21.2687 19.4173C20.5251 19.5263 20.2717 19.2842 20.0225 18.7515C19.7276 18.118 20.1596 17.8517 20.5459 17.4239C21.5138 16.3465 23.0176 17.2867 23.9897 16.4191Z" fill="#EB5F48"/>
<path d="M26.0744 20.8448C26.2862 20.3647 26.5022 19.8804 26.793 19.2227C27.4328 20.4776 27.9022 21.5833 27.736 22.8584C27.0672 22.7979 26.4441 22.5639 25.7337 22.58C25.1729 22.5921 23.9599 23.0884 24.0721 21.7972C24.1759 20.6068 25.1023 20.5704 26.0744 20.8448C26.1782 20.9861 26.2779 21.1313 26.3735 21.2807C26.2862 21.1273 26.1865 20.982 26.0744 20.8448Z" fill="#EC634C"/>
<path d="M13.2092 23.2642C13.7576 22.554 13.9695 21.9288 12.7814 21.6503C13.3339 21.1137 13.8906 20.5729 14.4431 20.0362C15.3861 20.6335 15.3119 21.5528 15.2703 22.4648C13.8621 22.4688 14.0734 23.7325 13.6123 24.475C13.2716 24.2975 13.2052 23.9827 13.1802 23.6478C13.1886 23.5187 13.1968 23.3893 13.2092 23.2642Z" fill="#EB5B44"/>
<path d="M23.9975 24.4728C24.4918 23.2461 25.8502 24.2145 26.6312 23.5568C26.7184 23.4801 26.922 24.4123 26.7143 25.07C25.871 24.4809 24.9446 24.4123 23.9975 24.4728Z" fill="#EB624A"/>
<path d="M24.4127 26.0904C24.3836 25.5254 23.1291 25.2591 23.9973 24.4763C25.4886 25.4084 25.4886 25.4084 24.4127 26.0904Z" fill="#EB624A"/>
<path d="M26.9185 18.0098C26.8936 17.4247 26.8728 16.8395 27.7286 16.8194C28.0526 17.2189 28.0443 17.6183 27.7286 18.0138C27.4544 18.0098 27.1885 18.0098 26.9185 18.0098Z" fill="#EE745C"/>
<path d="M24.4165 18.4281C24.1257 18.3514 23.6106 18.3232 23.8058 17.9358C24.0925 17.3749 24.5203 17.6251 24.8444 18.0165C24.699 18.1537 24.5577 18.2909 24.4165 18.4281Z" fill="#EF7C63"/>
<path d="M27.724 18.0125C27.724 17.6131 27.724 17.2136 27.724 16.8181C28.4842 16.6042 28.285 17.3513 28.5633 17.6136C28.285 17.7467 28.0065 17.8794 27.724 18.0125Z" fill="#EB5C45"/>
<path d="M20.6654 27.6876C20.2749 27.6432 19.8387 27.6674 19.7349 27.167C19.7224 27.1106 19.8844 26.9572 19.9758 26.9491C20.5283 26.9007 20.6114 27.2881 20.6654 27.6876Z" fill="#EE755E"/>
<path d="M38.9577 25.2844C38.6794 25.688 38.4052 26.0915 38.1269 26.495C37.7115 26.2448 37.2919 26.2408 36.8765 26.491C36.4777 26.1682 36.0415 25.9341 35.4973 25.9785C35.2315 25.9704 34.9905 25.8938 34.8119 25.692C34.4713 25.5185 34.3965 25.2158 34.384 24.8809C34.9532 24.6388 35.6594 24.6671 36.054 24.0779C36.3531 24.316 36.5899 24.6186 36.8724 24.8729C37.3501 26.031 38.2848 25.0464 38.9577 25.2844Z" fill="#EC6149"/>
<path d="M34.3663 28.5129C35.0392 27.8592 35.4463 28.0044 35.6084 28.9002C35.0392 29.2392 34.6114 29.1625 34.3663 28.5129Z" fill="#F08C75"/>
<path d="M34.8067 25.6881C35.0809 25.6841 35.3551 25.6801 35.6292 25.676C36.4185 25.6357 36.2731 26.0392 36.0405 26.4871C35.1391 26.935 34.8483 26.4912 34.8067 25.6881Z" fill="#EE765E"/>
<path d="M36.04 26.4893C36.0317 26.1584 35.9527 25.8598 35.6287 25.6782C36.688 25.0205 36.4762 26.1907 36.8708 26.4893C36.5966 26.4893 36.3183 26.4893 36.04 26.4893Z" fill="#EB5C45"/>
<path d="M29.3899 22.8615C29.3816 23.261 29.3769 23.6612 29.3686 24.0607C29.0362 24.0123 28.6873 23.9638 28.6416 23.5482C28.5834 23.0196 28.9703 22.9139 29.3899 22.8615Z" fill="#EB5C45"/>
<path d="M28.9905 25.2729C28.9905 25.7975 28.9905 26.3181 28.9905 27.1049C28.3673 26.2777 28.4837 25.7572 28.9905 25.2729Z" fill="#EB5C45"/>
<path d="M28.5631 16.0014C28.1477 16.0014 27.7323 15.9973 27.3169 15.9973C27.0635 15.7391 27.0967 15.4849 27.3294 15.2347C27.8736 14.9482 28.2308 14.3308 28.9536 14.363C29.88 15.1459 28.2183 15.3477 28.5631 16.0014Z" fill="#EB5C45"/>
<path d="M27.329 9.93676C27.7444 9.9408 28.1598 9.94887 28.5753 9.9529C30.5318 12.023 28.0643 11.4903 27.3166 11.9665C26.843 12.0916 26.4068 12.596 25.792 12.019C26.2033 11.2684 28.4132 11.6517 27.329 9.93676Z" fill="#EE7359"/>
<path d="M36.8716 24.8696C36.3316 24.8656 36.0574 24.5993 36.0533 24.0747C37.0793 23.6106 36.8384 24.3692 36.8716 24.8696Z" fill="#EE745A"/>
<path d="M27.3294 15.2334C27.3252 15.4876 27.3211 15.7418 27.3169 15.996C26.7561 16.3915 26.1994 16.0203 25.6386 15.9839C26.1994 15.7338 26.7644 15.4836 27.3294 15.2334Z" fill="#E7523B"/>
<path d="M26.075 20.8423C26.399 21.04 26.8684 21.0682 26.9722 21.5081C26.9847 21.5646 26.6399 21.7946 26.4821 21.7744C25.8423 21.6937 26.1663 21.1731 26.075 20.8423Z" fill="#EA5840"/>
</svg>
