<svg width="43" height="44" viewBox="0 0 43 44" fill="none" xmlns="http://www.w3.org/2000/svg">
<path d="M13.6529 14.0019C15.9964 11.3607 19.1768 9.88307 22.0736 8.01298C24.0777 6.79395 26.17 6.56307 28.3554 7.47273C29.0669 7.76825 29.8387 7.81442 30.5548 8.07762C31.1546 8.29926 31.6754 8.67328 32.2473 8.94571C33.0843 10.0862 35.0744 10.5665 34.3862 12.5936C33.0006 13.2492 32.4333 14.1266 33.5818 15.4749C35.3998 17.5943 34.3722 20.1016 34.5489 22.4427C34.4652 24.142 33.605 25.5596 32.6193 26.8109C29.5737 30.6804 26.1468 34.0696 20.8461 34.6284C20.5159 34.5129 20.2648 34.3005 20.0882 34.0096C19.9068 32.6844 21.2273 31.627 20.781 30.251C20.9716 29.6691 21.418 29.2905 21.8551 28.9026C21.3064 29.2536 20.967 29.8308 20.4229 30.1863C18.2561 30.4495 16.4288 30.999 15.4337 33.3539C14.7456 34.9931 13.6854 33.2108 12.6392 33.1C13.4483 34.0466 14.0993 34.7623 15.4523 33.9819C16.3544 33.4601 16.4706 34.5683 16.8705 35.0439C17.0333 35.3395 17.1495 35.6442 17.1169 35.9905C14.8479 37.8329 11.9697 38.6179 9.57503 40.2525C8.88686 40.7235 8.11035 41.079 7.38964 41.5131C7.09205 41.6608 6.77587 41.7532 6.45968 41.8317C5.59482 41.9564 5.0601 42.6998 4.29754 42.9907C3.21414 43.4063 2.0889 43.7895 1.46583 42.2888C1.37284 41.707 1.57277 41.2176 1.95871 40.7927C2.154 40.6727 2.34929 40.6773 2.53993 40.802C2.73057 40.9128 2.93051 41.0052 3.1072 41.1391C2.96771 40.8158 2.56783 40.9128 2.36789 40.6819C1.17754 39.7492 2.72127 39.3198 2.71662 38.7103C2.70732 37.6759 2.86541 36.7386 3.24204 35.8058C3.78606 35.104 4.52538 34.6284 5.24144 34.1251C6.78981 33.4278 8.41258 32.8275 9.29139 31.2114C10.0261 31.0267 10.4399 30.371 11.0723 29.9647C10.5003 30.2094 10.2399 30.7912 9.70057 31.0082C7.91041 30.9251 7.02695 29.8769 7.58493 28.4871C7.87321 28.3485 8.1801 28.2608 8.49163 28.1962C9.21699 27.9745 9.90516 27.8729 10.0168 26.8063C10.1423 25.6057 10.2911 25.6242 12.0115 25.0332C12.2254 24.9593 12.0394 24.7423 11.9883 24.6545C11.4861 23.8003 10.9095 23.4401 9.95166 24.1789C8.45443 25.3333 8.40329 24.4929 8.51023 23.1538C8.86826 18.6471 9.87726 17.3219 14.0528 16.1768C15.3826 16.5831 16.3869 15.618 17.5633 15.3641C16.4846 15.2071 15.6941 16.3245 14.5782 16.0198C13.8017 15.5672 13.6808 14.8053 13.6529 14.0019Z" fill="#DA9EA9"/>
<path d="M34.1816 12.6767C34.2885 10.9636 32.782 10.391 31.8381 9.42132C31.5312 8.91339 31.2011 8.43317 30.6385 8.16997C29.5504 7.87445 28.3694 7.77286 27.6115 6.76625C27.4255 6.02282 28.0114 5.64881 28.3926 5.18244C28.2764 4.82689 29.5923 5.13626 28.7321 4.4344C28.1927 4.19429 28.0765 3.7233 28.0207 3.21999C27.472 3.62171 26.9652 4.00497 26.6676 4.6976C25.8957 6.50766 24.6124 7.02021 23.4313 6.11979C25.6818 2.05638 29.3272 -0.132329 33.8096 0.00619616C36.26 0.084694 39.1801 0.740382 40.6541 3.45087C41.0075 4.64219 41.6631 5.72269 41.9002 6.9648C42.0025 7.50967 42.3094 7.44964 42.593 7.0433C43.6764 10.1047 42.3884 12.7644 41.1609 15.4379C40.6308 15.9228 40.1984 16.5646 39.3521 16.5462C38.478 16.4677 38.3757 15.618 37.9107 15.1424C36.9808 15.2163 37.2876 15.8905 37.2876 16.4122C37.4178 17.2295 36.7204 17.8206 36.6878 18.5963C35.7486 19.7923 35.5207 21.4592 34.1444 22.3642C34.0235 22.1056 33.7352 21.7917 33.8003 21.5977C34.5303 19.4552 34.0468 17.4419 33.2563 15.4426C32.8053 14.8977 32.5402 14.2605 32.889 13.6233C33.0982 13.2446 33.5353 13.4109 33.8282 13.6971C33.9631 14.0296 34.0468 14.3852 34.3443 15.0778C34.1072 14.4313 34.0514 14.1404 33.9584 13.8541C33.8654 13.4201 33.791 13.0045 34.1816 12.6767Z" fill="#D699A4"/>
<path d="M39.2685 16.2783C39.9287 16.0613 40.389 15.401 41.1609 15.4333C40.8587 16.8186 40.1938 18.0284 39.3335 19.1458C37.6131 20.291 38.7012 22.2765 37.9526 23.7495C37.5852 24.4744 37.6643 25.4164 36.6506 25.7027C36.2182 25.7673 36.539 24.8485 35.9206 25.1486C36.0555 25.2917 35.1953 25.3241 35.8648 25.458C36.2508 25.5365 36.5669 25.5873 36.7855 25.9243C36.8878 28.2331 35.3626 29.7615 34.0003 31.2668C30.3223 35.321 25.3796 37.228 20.2183 38.3639C16.1544 39.2597 11.9929 39.6892 8.1615 41.4531C7.78022 41.6285 7.41288 41.5731 7.09205 41.2868C10.0726 38.8765 13.6668 37.5559 17.0007 35.7643C17.9679 34.6145 19.1954 34.1297 20.6973 34.3375C27.2441 32.629 31.8614 28.7826 34.1491 22.3596C34.7582 20.8728 35.4045 19.409 36.5483 18.2269C37.1668 17.1834 37.9061 16.306 39.2685 16.2783Z" fill="#FDEBE4"/>
<path d="M3.52103 35.7319C3.28854 37.2003 3.59077 38.8211 2.27954 40.0032C2.19584 40.077 2.47018 40.5434 2.57713 40.8297C2.41903 40.8297 2.26559 40.8343 2.1075 40.8343C1.31704 41.0883 1.1264 41.5362 1.64717 42.2196C2.49808 43.2169 3.45128 43.0692 4.40448 42.4135C5.00895 41.9979 5.41813 41.2637 6.29229 41.2961C6.65962 42.2473 5.98541 42.6628 5.35769 43.1061C5.0136 43.2816 4.66952 43.4524 4.32544 43.6325C3.0793 44.2836 1.85176 44.0112 0.828812 43.2724C-0.189487 42.5336 -0.13834 41.1714 0.284789 40.2941C2.60502 35.478 2.50738 29.9693 4.99965 25.1901C7.23154 20.9143 9.90516 17.0725 13.6529 14.0019C14.3689 14.4359 14.2201 15.3271 14.6665 15.9043C14.7642 16.3153 14.6247 16.4815 14.1969 16.3568C12.1789 17.3681 9.94701 18.0607 9.22164 20.6465C8.87756 21.884 9.84006 23.1861 8.20334 24.6222C9.89121 24.0681 10.5003 21.9487 11.7837 23.357C12.6625 24.3221 12.881 25.8043 11.4442 26.8755C10.5654 26.0675 12.0813 25.6981 11.5465 24.9593C9.70522 25.6011 11.4349 28.9858 8.61252 28.8195C8.26379 28.5471 8.39398 28.1731 8.40328 27.8268C8.16615 28.1592 8.00805 28.5471 7.68722 28.8195C8.21264 29.5306 8.33354 30.6434 9.54713 30.6665C9.83076 30.9759 9.79822 31.2807 9.54713 31.59C8.36144 31.5947 9.37044 32.8968 8.69157 33.0676C8.09175 33.2154 8.29169 35.5611 6.91536 33.7049C6.75727 33.4925 6.17605 34.7299 5.38094 34.3559C3.65587 33.3262 4.28359 35.4641 3.52103 35.7319Z" fill="#D598A3"/>
<path d="M5.36234 43.1015C5.67387 42.4966 5.98541 41.8963 6.29694 41.2914C6.56198 41.2914 6.82701 41.2868 7.09205 41.2868C13.9691 38.2116 21.9248 38.7056 28.5833 34.8731C32.3542 32.7029 35.4928 30.0524 36.5297 25.5965L36.5204 25.615C37.6364 24.4236 37.7294 22.8814 37.8735 21.4038C37.9712 20.3741 38.3013 19.4552 38.9104 18.6933C39.1801 18.3562 39.2359 18.9334 39.3335 19.1504C38.4826 20.5265 38.7988 22.1287 38.4873 23.611C37.3853 28.8518 34.3583 32.592 29.7783 35.164C26.2026 37.1726 22.3991 38.5948 18.2887 39.1074C13.7412 39.6661 9.50528 41.2453 5.36234 43.1015Z" fill="#EDBEBC"/>
<path d="M28.6019 5.32096C28.6809 6.03206 27.9556 6.18906 27.6766 6.65081C26.1189 7.1495 24.5519 7.50967 22.9152 7.04791C23.0919 6.73854 23.2639 6.43378 23.4406 6.12441C24.6914 5.93509 26.091 6.27217 26.1282 4.0927C26.1515 2.78133 28.2252 3.12302 29.1971 1.51613C29.2714 2.89215 27.7556 3.61248 29.0669 4.29587C29.0622 4.70683 28.7042 4.95618 28.6019 5.32096Z" fill="#DCA4AF"/>
<path d="M22.9106 7.04791C24.5008 6.91401 26.0864 6.78472 27.6719 6.65081C28.7646 7.09871 29.862 7.54661 30.9547 7.9945C30.9407 8.30388 30.6617 8.36391 30.4757 8.50705C27.7138 7.71745 24.9425 7.06638 22.0783 8.00836C22.3526 7.68975 22.6316 7.37114 22.9106 7.04791Z" fill="#CD8E99"/>
<path d="M42.593 7.03868C42.5093 7.39885 42.5419 7.88369 42.3187 8.09147C42.0816 8.3085 41.7561 7.94371 41.691 7.66666C41.3701 6.2537 40.2821 5.02544 40.6541 3.45087C42.1095 4.21737 42.0397 5.79195 42.593 7.03868Z" fill="#D0929E"/>
<path d="M21.1762 30.2186C21.7109 31.6593 21.1111 32.8091 20.2369 33.8942C19.042 34.4667 18.0051 35.4549 16.5264 35.2933C16.0382 34.9516 15.8336 33.3909 14.9083 34.8869C14.527 35.5011 14.1318 35.6442 13.7273 35.0162C13.1553 34.1204 11.5326 34.005 11.7651 32.5782C11.8534 32.0287 12.4486 32.1765 12.9182 32.3565C13.6389 32.6244 13.8947 33.5894 14.9688 33.5525C14.899 31.3037 17.0379 30.7496 18.284 29.466C18.8978 28.8334 19.4 30.7543 20.2369 29.7569C20.4694 30.0755 20.8693 30.0524 21.1762 30.2186Z" fill="#DDA6AF"/>
<path d="M23.0361 17.285C23.9475 17.4743 24.6775 18.3331 23.8917 18.7857C22.2596 19.723 22.5246 22.1841 20.3997 22.5997C19.6511 22.7475 19.9068 23.828 19.3628 24.2897C18.7304 24.3821 18.7537 23.611 18.7769 23.5925C20.3904 22.4704 19.4604 19.4921 22.0969 19.1227C23.2174 18.9704 23.4499 18.2639 23.0361 17.285Z" fill="#D2939E"/>
<path d="M14.2015 16.3568C14.3596 16.2045 14.5131 16.0521 14.6712 15.9043C15.4151 15.5211 16.1684 15.147 16.9031 14.7453C17.4099 14.4683 17.9586 13.6833 18.4654 14.2789C19.1303 15.0639 17.8516 15.4841 17.7586 16.1906C16.5311 16.0013 15.5732 16.9294 14.4061 16.9663C14.341 16.9663 14.2666 16.5692 14.2015 16.3568Z" fill="#E8BBC2"/>
<path d="M11.7604 21.3715C11.6256 19.9123 12.3649 19.1643 12.7927 18.3147C13.2344 17.4327 13.6343 18.2962 14.0574 18.4024C14.899 18.6148 14.5084 19.0165 14.1876 19.3351C13.5087 20.0047 12.9601 20.8543 11.7604 21.3715Z" fill="#EAC0C6"/>
<path d="M28.3415 25.0285C28.4717 26.7463 28.6716 28.15 26.7327 28.6948C25.8492 26.9263 27.2395 26.2106 28.3415 25.0285Z" fill="#E2B0B6"/>
<path d="M3.52103 35.7319C3.56753 34.6376 3.0514 33.2293 5.03685 33.2616C5.34839 33.2662 5.63667 33.1138 5.65527 33.5202C5.66457 33.7972 5.48323 34.0789 5.39023 34.3605C4.95316 35.0716 4.48353 35.7366 3.52103 35.7319Z" fill="#E2B7BF"/>
<path d="M34.1816 12.6767C34.1863 13.1338 34.1862 13.5956 34.1909 14.0527C34.0375 14.2143 33.8794 14.2143 33.7306 14.0481C32.5542 14.1681 33.6283 15.0455 33.2609 15.4333C31.8707 15.1701 32.2752 14.0665 32.4286 13.3139C32.6053 12.4227 33.3679 12.2749 34.1816 12.6767Z" fill="#E0AEB6"/>
<path d="M26.9652 15.812C26.928 17.2157 26.0259 18.033 25.2633 18.9473C25.2029 17.5297 26.0166 16.6108 26.9652 15.812Z" fill="#E2B1B8"/>
<path d="M20.7066 14.9762C21.9155 15.3179 23.0268 15.7566 23.0361 17.2896C21.5528 17.2203 20.7763 16.4492 20.7066 14.9762Z" fill="#DFA9B1"/>
<path d="M16.5311 35.2933C17.8284 34.9839 18.8188 33.8757 20.2416 33.8942C20.395 34.0419 20.5438 34.1897 20.6973 34.3375C19.4651 34.8131 18.2329 35.2887 17.0007 35.7643C16.8426 35.6073 16.6845 35.4503 16.5311 35.2933Z" fill="#CE939A"/>
<path d="M9.55178 31.5946C9.55178 31.2853 9.55178 30.9805 9.55178 30.6711C10.584 30.4449 10.6631 28.9073 12.0906 28.8842C11.7604 30.4218 10.4213 30.7958 9.55178 31.5946Z" fill="#DDA6AF"/>
<path d="M7.69187 38.0638C6.76657 35.2148 8.78456 36.9602 9.79821 36.6047C9.36114 37.8652 8.25914 37.5466 7.69187 38.0638Z" fill="#DFADB4"/>
<path d="M7.68722 38.0592C6.38994 38.8395 6.26439 38.7472 5.55763 36.383C6.72937 36.4708 6.51083 38.2162 7.68722 38.0592Z" fill="#E2B8BF"/>
<path d="M7.69187 28.8241C7.96621 27.9837 7.87321 26.9263 9.031 26.4923C9.50063 27.4481 8.49628 28.0345 8.61717 28.8241C8.31029 28.8241 7.99875 28.8241 7.69187 28.8241Z" fill="#DEAFB7"/>
<path d="M1.65182 42.2149C0.512628 42.0441 0.535877 41.2591 0.935757 40.5526C1.47048 39.6107 1.69367 40.802 2.1075 40.8297C1.95406 41.2914 1.80526 41.7532 1.65182 42.2149Z" fill="#DDA9B4"/>
<path d="M21.1762 30.2186C20.6787 30.431 20.2137 30.5788 20.2462 29.7523C21.1251 29.3552 21.59 28.2885 22.9338 28.2146C22.2735 28.9673 21.7249 29.5906 21.1762 30.2186Z" fill="#E6BCC3"/>
<path d="M2.57713 40.8297C3.1165 40.608 3.68377 40.1555 4.0511 41.0698C4.31614 41.7301 3.76747 41.924 3.40013 42.0025C2.33999 42.2196 3.0514 41.0929 2.57713 40.8297Z" fill="#D598A3"/>
<path d="M20.7066 14.9762C20.3485 14.8608 19.6557 15.244 19.6976 14.5606C19.7255 14.0989 20.2462 13.5401 20.8089 13.8264C21.3668 14.1081 20.781 14.5837 20.7066 14.9762Z" fill="#DFA9B1"/>
<path d="M23.8824 10.0216C24.4124 9.91078 24.9518 9.69375 25.1936 10.3771C25.2401 10.5064 25.0402 10.862 24.9146 10.8851C24.2636 11.0051 24.1381 10.4556 23.8824 10.0216Z" fill="#E5BBC0"/>
<path d="M19.679 17.3958C19.3953 17.5158 19.2093 17.659 19.028 17.6544C18.6839 17.6497 18.4886 17.4142 18.67 17.1003C18.7397 16.9756 19.0559 16.9017 19.2279 16.9386C19.3814 16.9756 19.4883 17.1926 19.679 17.3958Z" fill="#DFA9B1"/>
<path d="M29.5876 10.4372C29.7457 10.705 29.9224 10.8712 29.9317 11.0421C29.9457 11.3607 29.7504 11.6285 29.4016 11.5223C29.2761 11.4854 29.1692 11.1575 29.1831 10.9728C29.1971 10.8158 29.4016 10.6727 29.5876 10.4372Z" fill="#EAC4C9"/>
<path d="M16.8101 18.4347C16.6799 18.3424 16.4427 18.2639 16.373 18.1115C16.2195 17.7606 16.4939 17.5435 16.7822 17.4743C16.9263 17.442 17.2285 17.5851 17.275 17.7144C17.3866 18.033 17.1681 18.2593 16.8101 18.4347Z" fill="#E6BAC0"/>
<path d="M28.5693 13.3093C28.746 13.9834 28.4949 14.4036 28.0067 14.7684C27.5743 13.9511 28.3182 13.7202 28.5693 13.3093Z" fill="#EAC1C8"/>
<path d="M30.4757 8.50705C30.6338 8.3362 30.7966 8.16535 30.9547 7.9945C31.5405 8.29003 31.866 8.74716 31.8381 9.4167C31.3871 9.11656 30.9314 8.81181 30.4757 8.50705Z" fill="#BA7583"/>
<path d="M30.8105 25.7165C30.7175 25.8412 30.6245 26.0582 30.4618 26.1506C30.1689 26.3122 30.0573 26.0536 30.0805 25.8412C30.1038 25.6565 30.22 25.4164 30.3734 25.3333C30.6152 25.204 30.7547 25.4026 30.8105 25.7165Z" fill="#E2B0B6"/>
<path d="M36.5297 3.88491C35.7858 4.34205 36.2229 5.16858 35.9299 5.78271C34.4885 5.56107 35.1767 3.11379 33.6469 3.36775C32.3961 3.57554 31.229 3.18305 29.9689 3.48319C31.5452 1.10978 31.5452 1.10978 33.6469 1.18366C33.8282 1.72391 33.3214 1.74238 33.0564 1.89476C32.7634 2.06099 32.424 2.14411 32.1869 2.48119C33.4051 1.83935 34.7954 2.76747 36.0555 1.79318C36.6971 1.29448 37.8456 1.95941 38.557 2.52736C39.129 2.9845 39.2545 3.4601 39.208 4.4621C39.1336 6.03668 39.8218 8.04068 41.1656 9.43517C40.8633 9.70761 40.5564 9.70761 40.2449 9.44441C39.9799 9.10733 39.8125 8.79795 39.4963 9.47673C39.1941 10.1417 38.5384 10.6126 37.8642 9.97542C36.8924 9.05192 38.3385 9.23662 38.5524 8.82566C38.8174 8.31773 38.7291 8.32697 38.3896 7.8883C37.5201 6.76163 36.3391 5.60725 36.9808 3.90338C37.1435 3.79718 37.1575 3.67712 36.9947 3.63095C36.7762 3.57554 36.646 3.73253 36.5297 3.88491Z" fill="#DAA0AA"/>
<path d="M39.2685 16.2783C38.3617 16.9294 37.455 17.5759 36.5437 18.2269C35.9206 17.4327 37.2737 17.1233 36.9947 16.4122C36.9761 15.7242 37.2783 15.244 37.92 14.9762C39.4405 14.3113 38.1711 16.5046 39.2685 16.2783Z" fill="#CD8F99"/>
<path d="M40.2449 9.44441C40.5518 9.43979 40.8587 9.43517 41.1656 9.43517C41.0493 10.1232 41.505 10.9312 40.7145 11.5361C39.9148 10.9451 40.3751 10.1278 40.2449 9.44441Z" fill="#E0B3BB"/>
<path d="M37.9154 14.9762C37.6085 15.4564 37.3016 15.932 36.9901 16.4122C36.009 15.6273 36.7901 15.1701 37.3155 14.6576C37.8596 14.1358 37.8549 14.616 37.9154 14.9762Z" fill="#EAC6C9"/>
<path d="M33.7306 14.0481C33.884 14.0527 34.0375 14.0527 34.1909 14.0527C35.0046 14.773 34.521 15.3456 33.9724 15.9828C33.5074 15.3364 33.8282 14.6668 33.7306 14.0481Z" fill="#DA9EA9"/>
<path d="M28.6019 5.32096C28.0439 4.66527 28.7786 4.58216 29.0622 4.29587C29.4016 4.22199 29.7411 4.14811 30.0852 4.07423C30.0294 5.01159 29.3086 5.15473 28.6019 5.32096Z" fill="#BD7B86"/>
<path d="M36.5297 3.88491C36.3995 3.50166 36.009 2.92909 36.8599 3.03067C37.4085 3.09993 38.0037 3.39084 38.0037 4.14349C37.6643 4.065 37.3202 3.9865 36.9808 3.908C36.8273 3.89415 36.6785 3.88491 36.5297 3.88491Z" fill="#E9C1C6"/>
<path d="M40.5518 13.3601C40.4076 13.4894 40.2217 13.7202 39.9799 13.8403C39.8869 13.8865 39.6683 13.6787 39.5102 13.5863C39.7009 13.3924 39.8729 13.1661 40.0961 13.0138C40.2914 12.8845 40.5006 12.9353 40.5518 13.3601Z" fill="#E0AFB6"/>
<path d="M36.5297 25.5919C35.8416 25.8227 35.1581 26.0582 34.2095 26.3769C34.6419 25.1163 35.5254 24.8946 36.2926 24.5483C36.367 24.9039 36.4414 25.2548 36.5204 25.6103L36.5297 25.5919Z" fill="#F6D5CD"/>
<path d="M31.5545 31.5946C31.5824 30.2971 32.4286 30.0986 32.9448 29.6184C33.0238 30.4911 32.3496 30.8605 31.5545 31.5946Z" fill="#F2CBC6"/>
<path d="M6.36669 28.0807C5.94821 26.6354 5.70642 25.6981 6.55268 24.8808C6.68287 24.7561 6.97116 24.793 7.18505 24.7561C7.0316 25.7165 7.13855 26.7416 6.36669 28.0807Z" fill="#DFB1B8"/>
<path d="M5.84126 30.1309C5.72502 30.5511 5.72502 30.9805 5.30189 30.8328C5.1159 30.7681 4.97641 30.3664 4.95781 30.1078C4.93456 29.8308 5.0136 29.4059 5.43673 29.5445C5.64132 29.6137 5.74362 29.9831 5.84126 30.1309Z" fill="#DEAFB7"/>
</svg>
