<svg width="29" height="61" viewBox="0 0 29 61" fill="none" xmlns="http://www.w3.org/2000/svg">
<path d="M4.52066 50.4134C5.33966 53.2071 4.5664 55.5518 2.45863 56.6868C1.75604 57.0651 1.04514 57.3311 0.392443 56.6161C-0.031604 56.1505 -0.310145 55.7597 0.633568 55.4687C2.69144 54.8284 3.57279 53.2237 2.90347 51.091C1.48582 46.5845 2.6374 42.8346 5.96741 39.621C7.02337 38.6024 7.66776 37.3136 8.19574 35.9625C8.02529 35.7796 8.02113 35.5967 8.18327 35.4096C8.54911 35.156 8.94821 35.1144 9.37226 35.2142C9.98754 35.368 9.88777 35.8544 9.88361 36.3034C10.3077 35.8087 10.5654 35.289 10.0873 34.6779C10.0915 34.3786 10.1996 34.1125 10.3368 33.8547C10.9188 32.9401 9.66327 31.2107 11.638 30.9072C12.8603 30.7201 13.9869 31.1774 15.1509 31.3895C16.3108 31.7927 17.7576 31.6929 18.2897 33.1896C18.1608 33.967 17.3211 34.3869 17.2712 35.2059C17.0425 36.9561 18.5683 38.3156 18.3479 40.0616C18.1899 40.7642 18.4311 41.3961 18.6431 42.0447C18.8343 42.6225 19.0755 43.242 18.3022 43.6245C18.1026 43.6577 17.9114 43.6328 17.7243 43.5621C16.6018 42.7265 16.8554 41.2257 16.1071 40.2071C15.3671 41.1342 16.0905 42.3565 15.4835 43.3085C15.3546 43.4706 15.1884 43.5413 14.9805 43.5205C14.0492 42.7057 15.0512 41.7578 14.6728 41.1508C13.9287 42.6059 15.3297 44.1691 15.1177 45.8361C14.9264 46.3683 14.6853 46.8505 14.0118 46.8713C13.6834 46.7424 13.4464 46.5138 13.2968 46.1978C12.8894 45.0338 13.1804 43.7949 12.8935 42.6184C13.0349 41.9948 12.9185 41.3338 13.0556 40.7393C12.694 41.1384 13.3799 42.0322 12.5027 42.2775C12.0038 42.0239 12.141 41.6248 12.245 41.288C11.796 41.7578 12.2865 42.926 11.2347 42.9884C10.7317 43.0175 10.6195 42.3357 10.4906 41.8742C10.3908 41.1592 10.8481 40.5522 10.8398 39.8579C10.9022 39.5877 10.5238 39.7041 10.7982 39.7207C10.8523 39.7249 10.8731 39.7956 10.8315 39.9244C10.5031 40.8681 10.5114 41.9532 9.68822 42.6974C9.0563 42.3066 8.01282 42.9011 7.65944 41.8451C8.12922 41.1758 8.63641 40.5231 8.89833 39.6792C8.53248 40.494 8.22484 41.288 7.41832 41.7204C7.2645 41.8202 7.10236 41.9116 6.93607 41.9906C6.46213 42.4188 6.02146 42.8761 5.73045 43.454L5.73876 43.4415C4.91561 44.1275 5.00291 45.3539 4.20471 46.0523C3.19032 46.7133 3.88459 47.7028 3.76403 48.5301C3.63931 49.3907 4.02594 50.2471 4.03842 51.0993C4.12988 50.8042 4.23381 50.5422 4.52066 50.4134Z" fill="#E6C0C6"/>
<path d="M13.6627 46.3388C13.7874 46.4802 13.908 46.6257 14.0327 46.767C15.018 49.0078 14.2281 52.6538 12.3407 54.587C10.9854 55.7011 10.5489 57.3017 10.0375 58.8773C9.9045 59.2847 9.91697 59.9998 9.23101 59.8584C8.69471 59.7462 8.61157 59.1725 8.6282 58.6694C8.67393 57.1603 8.70303 55.6595 7.75516 54.3541C6.76987 52.712 7.23965 51.0241 7.62213 49.357C7.9464 47.9477 8.28314 46.5384 9.07303 45.2953C10.4242 44.6343 10.0292 45.7568 10.1997 46.2349C10.5614 45.3785 10.3826 44.0066 11.8751 43.7488C12.3033 44.0565 12.2866 44.8297 13.0059 44.8422C13.405 45.7817 12.9643 46.8377 13.4507 47.9103C13.4798 48.035 13.8789 47.7357 13.6128 47.8147C13.5546 47.8313 13.5422 47.7897 13.5047 47.7357C13.1264 47.216 13.1722 46.7546 13.6627 46.3388Z" fill="#E2C0C4"/>
<path d="M18.1732 40.1115C17.8323 38.9558 17.799 37.7086 16.8137 36.7732C16.3481 36.3325 16.344 35.6507 16.8844 35.1227C17.4872 35.7754 18.0817 36.4406 19.1169 36.1953C19.4079 36.2993 19.6407 36.4365 19.4453 36.8023C18.2231 37.7793 18.1773 39.1346 18.7718 40.3069C21.4159 45.516 20.8505 50.3178 17.4332 54.9864C16.6474 56.0632 16.2234 57.618 18.3353 58.1668C18.7469 58.2749 18.8924 58.5825 18.618 58.9359C18.2106 59.4639 17.6826 59.8089 17.0133 59.4098C15.5208 58.516 15.1716 57.0984 15.288 55.4853C15.1134 54.0136 15.8118 52.7415 16.5061 51.6107C17.8697 49.3907 18.3062 47.1873 17.3126 44.7428C17.1588 44.3645 17.1048 43.9404 17.2295 43.5247C17.3708 43.3168 17.5454 43.2836 17.7533 43.4249C17.8946 43.4249 18.036 43.4249 18.1815 43.4249C20.123 45.6158 19.5451 48.0063 18.7303 50.4092C18.4476 51.2407 17.9695 51.9557 17.6868 52.3715C20.1188 49.3158 19.6989 45.7156 18.4185 42.0364C18.2023 41.4086 17.6951 40.8307 18.1732 40.1115Z" fill="#E0BDC2"/>
<path d="M7.78815 41.7615C8.00849 42.7052 9.3804 41.3832 9.45524 42.6096C9.68805 42.8258 9.80861 43.096 9.83771 43.4078C9.84602 43.6074 9.8294 43.8028 9.78782 43.9982C8.94388 45.262 8.64872 46.8044 7.75905 48.0432C6.94006 48.6585 7.86714 49.3902 7.62601 50.0471C7.49714 50.8619 7.62601 51.6851 7.53455 52.4999C7.43062 53.7554 6.88601 54.9818 7.31006 56.2664C7.05646 57.2517 6.45365 57.9959 5.63466 58.5613C5.18151 58.8731 4.71589 58.8523 4.32926 58.4241C4.02161 58.0832 3.86364 57.5303 4.27937 57.3432C6.71972 56.2415 5.92983 54.088 5.58893 52.4749C4.89465 49.2239 5.55567 46.3304 6.92343 43.4577C7.11051 43.0711 7.61354 42.6553 6.97331 42.2188C6.83612 42.1232 6.78623 42.0234 6.82781 41.9237C6.86938 41.8197 6.91095 41.7657 6.95253 41.7657L6.94837 41.7698C7.23107 41.537 7.50961 41.5287 7.78815 41.7615Z" fill="#E6C6CA"/>
<path d="M7.77595 25.9633C7.79674 25.8303 7.79258 25.6973 7.76764 25.5642C7.79674 25.1028 7.92977 24.6663 8.12517 24.2464C8.80281 24.105 9.06056 24.4501 9.23101 25.0612C9.37236 25.5684 9.4472 24.8034 9.62596 24.9864C9.81304 25.003 9.97517 25.0737 10.1082 25.2025C10.4075 26.6202 11.7171 27.9298 10.7609 29.4222C11.7711 29.3058 12.9144 29.2102 13.9995 28.3871C16.0033 26.8655 17.5373 27.4891 18.2981 29.9045C18.4603 30.4241 18.8386 30.8773 18.8095 31.4635C18.7721 31.6838 18.664 31.8584 18.4769 31.9831C17.7868 32.3448 17.2006 31.7877 16.5521 31.7753C14.1034 31.1101 11.609 30.9106 9.08135 30.9937C7.67202 30.6736 7.2355 29.7049 7.39348 28.3871C7.49741 27.5764 7.58471 26.7615 7.77595 25.9633Z" fill="#E5BEC5"/>
<path d="M14.4487 55.4854C13.8459 56.6162 12.8939 57.7346 14.4612 58.8737C14.9102 59.2021 14.7065 59.5804 14.3905 59.9171C13.9498 60.3869 13.5965 60.2331 13.1599 59.8631C11.5303 58.487 12.0084 56.7867 12.3784 55.0947C12.4823 54.945 12.6278 54.8785 12.8066 54.8743C13.8833 53.0326 15.1721 51.2491 14.4778 48.9086C14.4612 48.1561 14.3489 47.3994 14.6857 46.6802C15.567 45.7199 14.378 44.3895 15.2635 43.4334L15.2968 43.4167C15.9495 43.0301 15.3467 41.8162 16.4234 41.6998C17.5833 44.8967 17.284 48.0812 16.307 51.245C16.0659 52.0266 15.7167 52.7749 15.5837 53.5855C15.4506 54.3713 15.1887 55.0739 14.4487 55.4854Z" fill="#E7C6CB"/>
<path d="M27.7644 11.8039C28.3215 12.5148 28.3589 13.2257 27.7478 13.9283C26.9662 13.8243 26.6336 14.5643 26.0558 14.8304C25.3781 15.1464 24.6922 15.8198 23.9231 14.9634C23.711 14.6807 23.5281 14.3648 23.5364 14.028C23.5946 11.1636 23.075 8.34914 22.8879 5.50553C23.5531 4.57013 24.0104 5.49306 24.5467 5.69261C25.0206 6.01272 25.1245 6.51992 25.2368 7.02711C25.5278 8.59026 26.1597 10.0038 27.1284 11.2634C27.515 11.2385 27.2656 11.9619 27.7644 11.8039Z" fill="#EFD8D8"/>
<path d="M9.45577 25.1369C9.36015 25.2991 9.44745 26.0224 9.06498 25.3323C8.83632 24.9166 8.67003 24.5216 8.22104 24.3221C7.93003 23.025 8.82385 21.861 8.62846 20.5763C9.01925 17.9531 10.5533 15.704 11.0647 13.1223C11.1603 13.0765 11.26 13.0308 11.3557 12.9892C11.6924 13.0183 11.9709 13.1722 12.2162 13.405C12.5239 13.7417 12.6985 14.1366 12.7234 14.594C11.5344 18.0695 10.7736 21.6905 9.45577 25.1369Z" fill="#E4B9C0"/>
<path d="M23.9811 21.3912C23.8938 24.6879 23.1829 27.8766 22.2641 31.0237C22.0771 31.6639 21.8484 32.3499 21.1167 32.6367C21.046 32.5536 20.9754 32.4746 20.9047 32.3914C20.7841 32.0796 20.7883 31.7595 20.8631 31.4394C21.7653 28.521 21.9606 25.4279 22.8337 22.7797C23.1455 22.3058 22.6716 22.2517 22.9044 22.4056C22.9834 22.4596 22.9792 22.5053 22.9667 22.5635C22.7838 23.2578 22.4055 23.4615 21.7694 23.0499C21.1541 21.599 21.8733 20.223 22.0105 18.8136C23.0125 17.8907 23.1164 19.0672 23.5529 19.4705C23.8522 20.0691 23.5113 20.8216 23.9811 21.3912Z" fill="#E5C0C5"/>
<path d="M23.9811 21.3912C23.3991 20.9505 23.2202 20.41 23.5777 19.7407C23.2243 19.3582 23.1786 18.8676 23.1079 18.3854C22.8418 16.1279 23.1869 13.8331 22.7047 11.5923C22.5134 10.3243 22.688 9.01892 22.2931 7.77172C22.1975 6.49543 21.7817 5.25654 21.8067 3.96361C21.9439 3.41069 21.869 2.69979 22.7462 2.69979C22.7795 2.82867 22.8086 2.95339 22.8377 3.08226C23.2243 3.74328 23.5361 4.41676 23.1703 5.19418C24.1556 8.45352 23.6692 11.8916 24.4008 15.1801C24.6877 15.6498 24.1722 15.7787 24.0267 16.0697C24.2512 17.8408 24.1225 19.616 23.9811 21.3912Z" fill="#D7B0B8"/>
<path d="M22.7464 2.69517C22.2516 2.99034 22.3556 3.48922 22.3306 3.94237C21.5199 4.05462 21.5906 3.3645 21.4368 2.91967C21.2248 2.29607 21.1292 1.61843 20.3933 1.36067C19.5411 1.48539 19.2584 2.22955 18.8177 2.79495C18.4726 3.23562 18.0818 3.6181 17.5123 3.75945C17.3294 3.77608 17.1506 3.75113 16.9802 3.69709C15.8618 3.34787 15.2923 4.91934 14.1573 4.50777C14.0908 4.43709 14.0285 4.36642 13.9619 4.29574C15.5085 2.46652 17.7409 1.61011 19.6866 0.371229C21.1499 -0.551697 22.0562 0.254824 22.7464 2.69517Z" fill="#DFBFC5"/>
<path d="M7.77595 25.9633C7.78011 26.8239 7.84689 27.6885 7.7679 28.5407C7.67228 29.5925 8.09633 30.2286 9.05667 30.5653C9.49319 31.164 10.0711 30.6859 10.5741 30.769C10.9649 30.8314 11.6425 30.4863 11.5344 31.3677C10.969 31.4342 10.7154 31.6587 10.9275 32.2823C11.1603 32.9641 11.3557 33.6833 10.6988 34.282C10.1251 33.4422 9.44746 32.7105 8.54947 32.2033C6.8907 30.2993 6.40403 28.2457 7.77595 25.9633Z" fill="#DDB4BB"/>
<path d="M11.0605 13.1138C8.30004 10.0416 8.28757 9.38886 11.1561 6.59514C12.0208 5.7512 12.7068 4.66198 13.9665 4.30029L14.0205 4.3585C14.2367 5.56828 13.0976 5.94659 12.5779 6.70738C11.5968 7.87143 9.82162 8.63222 10.5783 10.6693C10.8526 11.2389 11.4097 11.6172 11.6508 12.2117C11.7215 12.644 11.497 12.906 11.1353 13.0806L11.0605 13.1138Z" fill="#DFBFC5"/>
<path d="M27.7644 11.8039C27.6397 11.9286 27.8722 12.6601 27.3318 12.0657C27.1613 11.8786 27.0532 11.6333 26.9202 11.4171C26.1636 10.0618 25.594 8.60676 24.8291 7.25147C24.8124 6.79832 24.8956 6.30776 24.4009 6.01675C23.6858 5.17281 22.7795 4.40786 23.1578 3.10246C25.4776 5.58854 26.6669 8.67341 27.7644 11.8039Z" fill="#E4C8CD"/>
<path d="M8.54872 32.204C10.1368 31.992 10.7147 32.8318 10.6981 34.2827C10.5525 34.4282 10.4112 34.5737 10.2657 34.7192C10.0994 34.8231 9.9331 34.8314 9.76681 34.7358C9.47164 34.636 9.2222 33.4429 8.87299 34.7067C8.7358 35.0559 8.44478 35.2763 8.20366 35.534C8.1995 35.6754 8.19534 35.8167 8.19119 35.9622C6.93983 34.5778 7.39714 33.3597 8.54872 32.204Z" fill="#E1CDCE"/>
<path d="M4.06319 51.7181C2.77857 49.7143 3.31071 47.4818 3.24419 45.32C3.23588 45.0539 3.43959 44.9749 3.63914 45.0581C4.00914 45.216 4.00498 45.586 4.05071 45.9228C4.49971 46.2304 4.05071 46.8249 4.44566 47.1492C4.4415 47.3072 4.43319 47.4652 4.42903 47.6273C3.48532 48.9161 4.74083 50.4044 4.06319 51.7181Z" fill="#F2D5DA"/>
<path d="M16.9136 31.3899C17.4748 31.5271 18.0361 31.6602 18.5973 31.7973C18.7345 31.6518 18.905 31.5978 19.1003 31.6186C19.8071 31.868 20.5429 32.0551 21.0834 32.6288H21.1166C20.7799 33.5642 20.0732 33.1069 19.4787 33.0695C19.2043 33.2566 18.9839 33.5268 18.6347 33.5975C18.456 33.6058 18.3105 33.5434 18.194 33.4104C17.5372 32.2754 16.2276 32.3586 15.2507 31.814C15.6747 31.1696 16.4397 31.8639 16.9136 31.3899Z" fill="#D7AEB5"/>
<path d="M8.62796 20.5721C9.2183 21.8983 8.5074 23.0873 8.22054 24.3178C8.19144 24.7793 8.27043 25.2782 7.77155 25.5692C7.42234 23.794 8.1374 22.2018 8.62796 20.5721Z" fill="#DDB4BB"/>
<path d="M18.5937 33.4763C18.7766 33.098 19.1003 33.0279 19.4787 33.0695C19.329 34.3125 20.4853 35.5633 19.4501 36.798C19.3171 36.6525 19.1882 36.507 19.0552 36.3615C18.8889 36.2534 18.7642 36.1121 18.681 35.9333C18.4856 35.2889 18.232 34.657 18.2985 33.9628C18.3568 33.7798 18.4565 33.6177 18.5937 33.4763Z" fill="#E6C0C6"/>
<path d="M24.0305 16.0652C24.1552 15.7701 24.2799 15.4749 24.4047 15.1756C25.5147 15.0633 26.2671 14.3566 27.0113 13.6207C27.4686 13.1676 27.7014 13.3505 27.7513 13.9284C26.6704 14.9261 25.4066 15.5913 24.0305 16.0652Z" fill="#E0BFC4"/>
<path d="M4.06319 51.7181C4.55791 50.3878 2.65375 48.8407 4.42477 47.6226C4.45802 48.5539 4.48713 49.481 4.52038 50.4122C4.42477 50.8654 4.56622 51.4063 4.06319 51.7181Z" fill="#D9B4B9"/>
<path d="M4.44208 47.1496C3.95983 46.8545 4.06376 46.3722 4.04713 45.9232C4.78298 45.2123 4.5664 43.8573 5.73876 43.4415C5.3064 44.6763 4.87444 45.9107 4.44208 47.1496Z" fill="#D9B4B9"/>
<path d="M23.1578 3.10246C23.2784 4.2 24.0142 5.03562 24.4009 6.01675C23.7606 6.07911 23.5984 5.43834 23.1744 5.1889C22.8002 4.52788 22.6298 3.83361 22.8418 3.07698C22.9457 3.08529 23.0497 3.09415 23.1578 3.10246Z" fill="#F7E8EA"/>
<path d="M7.3565 52.5924C7.39807 53.2825 7.43549 53.9726 7.47706 54.6669C7.42302 55.199 7.37313 55.7353 7.31908 56.2674C6.762 55.0369 6.71627 53.8105 7.3565 52.5924Z" fill="#D5B0B5"/>
<path d="M6.95665 41.766C6.96497 41.9157 6.96913 42.0695 6.97744 42.2192C6.56171 42.6307 6.14598 43.0423 5.73024 43.4581C5.71777 42.585 6.28732 42.1402 6.95665 41.766Z" fill="#DAB2BA"/>
<path d="M18.1732 40.1115C18.0734 41.2797 18.8426 42.1815 19.1586 43.225C20.4266 47.4114 19.9776 49.9765 17.0134 53.5185C18.8135 50.2924 19.9152 46.9957 18.1899 43.4287C19.0713 42.3187 16.8137 41.2257 18.1732 40.1115Z" fill="#EFD1D4"/>
<path d="M9.50094 45.1374C9.49262 44.7175 10.1495 44.2727 9.46352 43.8736C9.45937 43.7198 9.45936 43.5659 9.45521 43.4163C9.94577 42.9257 10.1245 42.1899 10.719 41.7783C11.9122 43.6616 11.5297 41.0549 12.2739 41.3335C12.2988 41.5704 12.3321 41.8822 12.3695 42.1899C12.8517 42.9049 12.5108 43.4038 11.9371 43.8403C10.7731 44.4556 11.1057 45.9606 10.0497 46.8294C9.6506 46.3472 10.1287 45.4949 9.50094 45.1374Z" fill="#EDCCD1"/>
<path d="M16.9136 31.3899C16.4812 32.0052 15.8161 31.7184 15.2507 31.814C14.0118 31.6643 12.7728 31.5142 11.538 31.3645C11.0225 30.8241 10.5112 30.8864 9.93331 31.298C8.7651 32.1295 9.18915 31.007 9.06443 30.5663C11.7168 30.4458 14.3194 30.8661 16.9136 31.3899Z" fill="#CD9FA8"/>
<path d="M9.92551 34.7099C10.0378 34.7099 10.1542 34.714 10.2664 34.7182C10.4036 35.109 11.8628 34.4355 10.9981 35.6203C10.7611 35.9488 10.4701 36.2356 10.2082 36.5433C9.85484 36.9631 9.66776 37.9817 8.92775 37.3747C8.11292 36.7095 9.18551 36.4393 9.51394 36.0277C9.6636 35.8407 9.63866 35.6619 9.44742 35.5122C9.30607 35.3958 9.2645 35.2545 9.31439 35.0799C9.45573 34.8595 9.64697 34.714 9.92551 34.7099Z" fill="#EDCFD2"/>
<path d="M14.8886 46.7125C14.8637 46.4631 14.8387 46.2137 14.8138 45.9684C14.3066 44.2098 14.0571 42.4388 14.5976 40.5597C15.2628 41.4494 14.3856 42.6633 15.2545 43.4366C15.0923 44.5216 15.6536 45.6898 14.8886 46.7125Z" fill="#D4A9B0"/>
<path d="M16.124 40.1145C16.1198 40.6591 16.1198 41.2079 16.1157 41.7525C15.9951 42.3844 16.4067 43.2824 15.2842 43.4154C15.2842 42.2472 15.2634 41.0832 15.2925 39.915C15.3008 39.599 15.4131 39.1375 15.8288 39.2248C16.2445 39.3121 16.0491 39.8027 16.124 40.1145Z" fill="#F0D8DA"/>
<path d="M13.2304 42.6385C12.773 43.2455 12.7897 43.9647 12.7606 44.6673C11.7212 45.1496 12.0039 44.3181 11.9333 43.8359C12.0788 43.2871 12.2201 42.7342 12.3656 42.1854C13.0142 41.8112 12.5652 41.0213 13.1056 40.3728C13.1514 41.2458 13.1929 41.9443 13.2304 42.6385Z" fill="#D3AAB1"/>
<path d="M10.7156 41.778C10.645 42.5969 10.1253 43.0667 9.45181 43.4159C9.45181 43.1457 9.45108 42.8798 9.45524 42.6096C10.1537 41.7241 9.89249 40.352 10.9609 39.6286C11.3268 40.406 11.0025 41.0878 10.7156 41.778Z" fill="#D5A9B2"/>
<path d="M18.5937 33.4763C18.5854 33.6551 18.5764 33.83 18.5723 34.0088C17.9362 34.7695 17.7616 35.4222 18.9755 35.7507C19.0005 35.9544 19.0302 36.1578 19.0552 36.3615C17.5253 37.3593 17.0424 36.5281 16.8885 35.1188C16.901 34.2249 17.1339 33.5019 18.194 33.4104C18.3229 33.4436 18.4565 33.4639 18.5937 33.4763Z" fill="#F5EBEB"/>
<path d="M7.78815 41.7615C7.50961 41.7657 7.23105 41.765 6.95251 41.7691C8.17892 41.0499 8.53645 39.6614 9.38454 38.6262C9.22241 39.8692 8.86905 41.0007 7.78815 41.7615Z" fill="#DAB2BA"/>
<path d="M9.45521 35.1388C9.45937 35.2677 9.45521 35.3924 9.45106 35.5213C9.03532 35.5255 8.61939 35.5299 8.20366 35.534C8.22029 35.1931 8.27453 34.8686 8.62791 34.6981C9.08937 34.4944 9.30555 34.7522 9.45521 35.1388Z" fill="#EEE1DF"/>
<path d="M11.9001 49.186C11.9168 48.6539 11.9376 48.1217 11.9542 47.5938C13.2263 48.6248 12.4822 49.7764 12.0872 51.5141C11.9916 50.3376 11.9459 49.7639 11.9001 49.186Z" fill="#D7ACB4"/>
<path d="M6.23381 52.9734C6.23381 51.8717 6.23381 50.7742 6.23381 49.6725C6.30033 49.6725 6.36269 49.6725 6.42921 49.6683C6.42921 50.7658 6.42921 51.8675 6.42921 52.9651C6.36685 52.9734 6.30033 52.9734 6.23381 52.9734Z" fill="#F4DCDF"/>
<path d="M7.41022 48.0304C7.37697 48.5542 7.33955 49.0781 7.30629 49.6019C6.98202 49.0573 6.46236 48.496 7.41022 48.0304Z" fill="#D6AFB4"/>
<path d="M22.7506 7.67992C23.4366 8.86476 23.0749 10.1702 23.1663 11.4215C22.0896 11.9578 21.254 14.1695 22.1561 14.8762C23.474 15.9114 22.8961 17.379 23.5696 18.4765C23.5737 18.8964 23.5737 19.3163 23.5779 19.7362C22.6674 19.8068 22.8795 18.7841 22.3515 18.4848C21.7362 18.8881 22.0355 19.6031 21.7986 20.1353C21.4826 20.8794 21.3288 21.6444 21.4826 22.4509C21.4826 22.9165 21.5533 23.3946 21.2706 23.8145C20.2271 24.3799 20.3934 25.7227 19.6077 26.4669C19.5869 26.4877 20.0483 26.5583 20.2479 26.7163C20.5555 27.2069 20.3144 27.6184 20.0733 28.0342C18.6182 29.4768 20.9297 29.0694 20.938 29.7927C20.9629 30.0006 20.938 30.2001 20.8798 30.3997C20.3352 31.2395 19.7698 32.0335 18.5891 31.3725C18.2939 30.9318 17.8574 30.6574 17.7285 30.0255C17.3087 27.9469 16.2236 27.5145 14.4692 28.6037C12.4529 29.8551 12.4529 29.8551 9.95435 29.5932C11.6755 28.1132 9.38896 26.6248 9.86289 25.149C10.1331 23.4279 9.86705 21.5446 11.3803 20.2059C11.5341 20.0687 11.6505 19.8567 11.6381 19.6572C11.4219 16.269 14.6022 14.0905 14.7768 10.8436C15.812 9.43015 17.475 8.66521 18.4602 7.14778C19.0007 6.31216 20.1606 6.64059 20.5722 7.33486C21.2623 8.51139 21.9773 7.9252 22.7506 7.67992Z" fill="#E4B9C0"/>
<path d="M15.2637 11.0057C14.6526 11.7291 14.7482 12.677 14.4489 13.5001C14.0415 14.6226 14.4905 16.2772 12.4867 16.4602C12.2289 16.4851 11.8381 17.6866 12.1416 18.518C12.4783 19.4534 12.5033 20.2766 11.2769 20.842C10.196 21.3367 10.8279 22.7336 10.3539 23.6399C10.117 24.0888 10.408 24.7582 9.86754 25.1448C9.73035 25.1406 9.59316 25.1365 9.45181 25.1282C9.66799 21.3242 11.1979 17.8778 12.3744 14.3358C12.6031 12.7892 13.4179 11.5046 14.2743 10.2533C14.4905 9.93316 14.8522 9.51327 15.2762 9.87496C15.613 10.166 15.5298 10.6316 15.2637 11.0057Z" fill="#F1D5D8"/>
<path d="M18.5927 31.3721C19.6279 31.5218 20.0685 30.6778 20.6755 30.1207C21.64 30.2621 21.2201 30.9106 21.1536 31.4261C20.5466 32.2618 19.7858 32.1786 18.9752 31.792L18.7839 31.7961C18.7839 31.7961 18.5927 31.792 18.5927 31.7961C18.5927 31.6548 18.5927 31.5134 18.5927 31.3721Z" fill="#E5C0C5"/>
<path d="M12.748 55.0452C13.3258 53.0705 14.756 51.4117 14.8807 49.2707C15.5084 51.1581 14.5689 53.6983 12.748 55.0452Z" fill="#DCB9BD"/>
<path d="M24.8291 7.25147C26.0804 8.36148 26.6666 9.80407 26.9202 11.4171C25.6107 10.3362 25.0785 8.86451 24.8291 7.25147Z" fill="#F7E8EA"/>
<path d="M15.2628 11.0063C15.2337 10.7444 15.3002 10.3744 15.1547 10.2372C14.7972 9.90873 14.7431 10.4118 14.6475 10.5656C13.8701 11.8128 13.1259 13.0808 12.3734 14.3446C12.2279 14.0619 12.0824 13.7792 11.9369 13.4965C11.6127 11.2557 13.3379 9.76738 13.9948 7.88412C14.0863 7.70951 14.1943 7.54737 14.3149 7.3894C15.4665 6.21287 16.0527 4.5832 17.3622 3.52724C17.7696 3.25286 18.1729 2.97432 18.5803 2.69993C19.0543 1.94746 19.7984 1.41532 20.2391 0.633745C22.3219 0.862398 21.4493 2.95708 22.3306 3.94237C22.472 5.18957 22.6092 6.43272 22.7506 7.67992C22.5136 8.01251 22.2679 8.33727 22.0351 8.67401C21.5362 9.38907 21.1121 10.0335 20.95 8.48277C20.871 7.72198 20.1767 7.33535 19.5074 7.15243C18.7134 6.93209 18.3558 7.60973 18.1771 8.16266C17.7031 9.65929 16.0277 9.85469 15.2628 11.0063Z" fill="#E6C4C9"/>
<path d="M14.4316 7.67121C13.6001 9.61268 12.7684 11.555 11.9369 13.4965C11.6709 13.3593 11.405 13.2171 11.139 13.0799C11.2678 12.8055 11.4009 12.5353 11.5298 12.2609C11.8208 10.3028 12.382 8.51514 14.4316 7.67121Z" fill="#D9AEB5"/>
<path d="M21.0882 31.3773C21.0715 30.92 21.1547 30.4294 20.6766 30.1218C20.6766 29.9846 20.6766 29.8516 20.6766 29.7144C20.9135 27.6565 21.8198 25.7109 21.7076 23.5906C21.7201 23.3828 21.8032 23.1999 21.9362 23.046C22.7843 23.071 22.7137 22.2645 23.0338 21.7614C22.7303 25.2078 22.4725 28.6085 21.0882 31.7889C20.9593 31.6974 20.9177 31.606 20.9593 31.5103C21.005 31.423 21.0466 31.3773 21.0882 31.3773Z" fill="#EDCED1"/>
<path d="M21.9357 23.0445C21.9315 23.19 21.9273 23.3397 21.9232 23.4852C21.9689 24.0007 21.7403 24.0257 21.3619 23.8012C21.2455 23.2482 21.3245 22.687 21.2913 22.1299C21.2497 21.4606 21.1749 20.783 21.4908 20.151C21.5864 19.4983 21.3619 18.6793 22.3472 18.484C22.5759 20.0388 21.9273 21.5105 21.9357 23.0445Z" fill="#F1D8DA"/>
<path d="M21.0877 31.3763C21.0877 31.5135 21.0877 31.6549 21.0877 31.7921C21.0836 32.0706 21.0836 32.3533 21.0794 32.6318C20.2521 32.6693 19.5329 32.4365 18.9758 31.7962C19.7158 31.8295 20.4392 31.7796 21.0877 31.3763Z" fill="#EFCFD4"/>
<path d="M23.5737 18.4761C22.7464 16.4348 20.8797 14.8301 21.441 12.2027C21.7528 10.7434 22.0853 10.5771 23.1704 11.4211C24.0185 13.7325 23.4032 16.1272 23.5737 18.4761Z" fill="#E7C3C8"/>
<path d="M14.4316 7.67121C13.0389 8.93087 12.4573 10.7058 11.5261 12.2606C10.9607 11.9946 10.5532 11.5705 10.2664 11.0218C9.86728 8.99714 11.3639 7.83309 12.3534 6.44039C12.9063 5.74611 13.4634 5.05184 14.0163 4.36173C15.0764 4.19959 15.7125 3.28498 16.6188 2.91082C17.4295 2.57408 16.968 3.24756 16.9472 3.53858C16.5606 5.19735 15.1803 6.24915 14.4237 7.68343L14.4316 7.67121Z" fill="#EFD6D8"/>
<path d="M14.4275 7.68455C14.7102 5.96342 16.1902 4.96982 16.951 3.5397C17.0882 3.53138 17.2254 3.52723 17.3667 3.52723C16.66 5.10701 15.8742 6.63275 14.4275 7.68455Z" fill="#D9AEB5"/>
<path d="M20.2391 0.633745C20.1476 1.69386 19.3577 2.18858 18.5803 2.69993C18.6967 1.6606 19.4617 1.14094 20.2391 0.633745Z" fill="#EFD8DB"/>
<path d="M12.3575 6.436C11.7339 7.99499 10.6156 9.33365 10.2705 11.0174C8.92355 8.56039 10.9939 7.65825 12.3575 6.436Z" fill="#F5E7E8"/>
<path d="M9.45521 35.1388C9.18083 34.9933 8.90229 34.8437 8.62791 34.6981C8.68611 34.1619 8.22053 33.3089 9.21829 33.2964C10.1869 33.2839 9.70517 34.2193 9.92551 34.7099C9.76753 34.8512 9.60903 34.9975 9.45521 35.1388Z" fill="#767176"/>
<path d="M18.9751 35.7542C18.4721 36.249 17.8776 36.5815 17.5492 35.6877C17.2374 34.8438 17.3372 34.0248 18.5677 34.0082C18.7049 34.5902 18.838 35.1722 18.9751 35.7542Z" fill="#968C8E"/>
<path d="M21.5034 23.8985C21.6447 23.7613 21.7861 23.6282 21.9232 23.4911C22.5676 25.7776 21.7195 27.7689 20.676 29.7187C19.936 29.1949 19.7989 30.4463 19.009 30.1802C19.3457 29.4942 18.8593 28.5547 19.8238 28.0475C21.3204 27.0414 20.5056 25.1041 21.5034 23.8985Z" fill="#E5C0C5"/>
<path d="M20.2519 26.8029C19.7821 27.0149 19.3165 27.2311 18.8467 27.4431C19.7488 26.329 19.1668 24.3002 21.0792 23.8886C21.4824 25.0527 21.3744 26.0712 20.2519 26.8029Z" fill="#E5C0C5"/>
<path d="M20.2519 26.8042C20.7342 25.8896 21.2497 24.9875 21.0834 23.89C21.0876 23.337 21.0917 22.7883 21.0959 22.2353C21.2248 22.0316 21.362 22.0358 21.5033 22.2229C21.5033 22.7799 21.5075 23.337 21.5075 23.8941C21.574 25.0041 21.5366 26.1141 21.0502 27.1285C20.8298 27.5941 20.755 28.4422 19.8279 28.0431C19.9693 27.6315 20.1106 27.22 20.2519 26.8042Z" fill="#EDCED1"/>
<path d="M13.0221 26.6292C13.3838 27.5729 12.9515 28.3004 12.5565 28.9531C12.4276 29.1693 11.8747 28.737 11.8373 28.4584C11.7167 27.5729 12.1865 26.9992 13.0221 26.6292Z" fill="#E5BEC5"/>
<path d="M17.2211 25.9969C16.7805 24.8495 17.3084 24.2882 18.0318 23.5607C18.1898 24.6125 17.878 25.2527 17.2211 25.9969Z" fill="#EBCACE"/>
<path d="M21.4995 22.2262C21.3623 22.2303 21.2293 22.2345 21.0921 22.2386C20.7304 21.4487 20.9383 20.7669 21.4912 20.1558C21.4954 20.8459 21.4995 21.5361 21.4995 22.2262Z" fill="#E5C0C5"/>
<path d="M18.8802 4.31219C18.4021 5.76725 17.3378 6.88557 16.972 8.35726C16.8805 8.72726 16.5438 8.9185 16.1696 8.68153C15.7996 8.44457 15.862 8.05378 16.0782 7.77524C16.9886 6.59871 17.3004 4.9732 18.8802 4.31219Z" fill="#F3E3E3"/>
</svg>
