<svg width="17" height="55" viewBox="0 0 17 55" fill="none" xmlns="http://www.w3.org/2000/svg">
<path d="M16.6871 20.5323C17.2256 24.0047 16.9056 27.4956 16.9056 30.9787C16.903 37.6949 16.812 44.4112 16.7652 51.1275C16.76 51.8023 16.7366 52.4559 16.1799 52.9367C15.7767 53.0244 15.7377 52.7109 15.6571 52.4426C15.6311 52.2274 15.6493 52.0149 15.6961 51.8023C15.8574 51.3135 15.8027 50.8087 15.8105 50.3066C15.8079 49.1509 15.8079 47.9978 15.8027 46.8448C15.8314 45.4739 15.7559 44.1004 15.8522 42.7321C15.9432 42.2194 16.1877 41.7226 16.0056 41.1806C15.9874 41.1168 15.9744 41.0531 15.9588 40.992C15.925 40.8644 15.9042 40.7343 15.8886 40.6014C15.8574 40.3331 15.8418 40.0621 15.8314 39.7911C15.8209 39.6503 15.8209 39.5095 15.8209 39.3687C15.8209 38.4946 15.8157 37.6232 15.8131 36.7518C15.8183 36.2922 15.8105 35.8326 15.8366 35.3729C15.847 35.1312 15.8808 34.8921 15.9484 34.6583C16.2111 32.5116 16.0056 30.3543 16.0629 28.205C16.1279 25.79 15.9484 23.3724 16.1617 20.9574C16.2579 20.7183 16.3672 20.4871 16.6871 20.5323Z" fill="#586929"/>
<path d="M0.317704 46.2966C0.22146 40.0851 0.101802 33.8736 0.0393733 27.6621C0.0133612 25.1117 -0.127103 22.5505 0.348918 20.0186C0.406144 20.0107 0.463372 20 0.520598 19.9815C0.736499 19.838 0.82754 19.9894 0.913379 20.1541C0.931588 20.2764 0.931589 20.3986 0.918583 20.5181C0.837945 21.0149 0.887368 21.5091 0.955 22.0032C0.973208 23.058 0.861357 24.1101 0.93159 25.1648C0.949798 25.7068 0.910778 26.2461 0.928986 26.7854C0.91598 30.3428 0.947197 33.8975 0.93159 37.4549C0.928989 38.0235 0.89257 38.6 1.10847 39.1446C1.47524 40.6776 1.10327 42.2212 1.15269 43.7594C0.98101 44.8328 1.42842 45.9486 0.947196 47.0007C0.164233 47.2982 0.598635 46.464 0.317704 46.2966Z" fill="#626E2F"/>
<path d="M0.83831 20.2715C0.73166 20.1732 0.627612 20.0775 0.520962 19.9792C0.835708 17.9468 2.07648 16.5068 3.51755 15.2316C4.55023 14.3177 5.03406 13.2603 4.75312 11.8761C4.65688 10.5823 5.00284 9.28312 4.6959 7.99459C4.53983 7.32775 4.72972 6.68215 4.77654 6.02859C4.79735 5.87716 4.85197 5.74166 4.94302 5.62211C6.50114 6.03656 8.16331 5.51584 9.69802 6.16674C9.31825 7.20553 8.32458 6.58651 7.69249 6.94252C7.56243 6.98237 7.42977 7.00893 7.29451 7.02488C5.85344 7.0727 5.85344 7.0727 5.84824 8.5286C5.84563 9.22998 5.84824 9.93137 5.85344 10.6354C5.85864 10.84 5.85864 11.0419 5.85604 11.2465C5.88205 12.2932 5.7728 13.3108 5.29938 14.2592C5.19013 14.493 5.06267 14.7188 4.94302 14.9447C4.83116 15.1652 4.71411 15.3857 4.57884 15.5929C3.78027 16.5706 2.7632 17.357 2.15712 18.5047C2.03226 18.7093 1.8996 18.9059 1.78515 19.1158C1.49381 19.5196 1.55104 20.229 0.83831 20.2715Z" fill="#5F702D"/>
<path d="M6.02223 0.356974C7.263 0.00362506 8.51158 -0.0654506 9.79918 0.0541034C11.966 0.258674 12.4056 0.705009 12.3354 2.89152C12.3198 3.36974 12.2911 3.84529 12.2677 4.32351C12.2417 4.51214 12.1325 4.64498 11.9868 4.75391C11.7865 4.88674 11.5732 4.99036 11.3287 5.00895C11.0608 4.97973 10.8709 4.8708 10.8917 4.55199C10.9671 4.2996 11.17 4.11628 11.2559 3.87452C11.3859 3.50523 11.5238 3.07484 11.3313 2.74274C11.0686 2.29375 10.6446 2.66304 10.2934 2.70023C9.99947 2.73211 9.71074 2.80119 9.4116 2.81713C8.51418 2.81713 7.61417 2.91277 6.72455 2.72149C6.29535 2.49035 5.69708 2.34157 6.1887 1.63753C6.30576 1.56048 6.43582 1.52063 6.57368 1.51532C7.21098 1.60034 7.85348 1.58971 8.49338 1.58971C9.31276 1.44624 10.2778 2.02807 10.9229 1.07164C10.655 0.856444 10.335 0.946774 10.0385 0.896295C9.85381 0.880355 9.67172 0.848474 9.49224 0.803309C8.36591 0.378228 7.21618 1.19651 6.09506 0.726263C5.9676 0.625306 5.94419 0.503095 6.02223 0.356974Z" fill="#506D40"/>
<path d="M12.021 5.94526C12.0262 7.39851 12.0314 8.85441 12.0392 10.3077C12.3253 11.3093 11.8961 12.372 12.2863 13.3656C12.1927 13.9952 12.8066 14.3433 12.869 14.9092C12.7858 15.0287 12.6739 15.1031 12.5334 15.135C11.584 15.1084 11.5398 14.3114 11.3239 13.6578C11.3005 13.5197 11.3005 13.3789 11.3161 13.2407C11.4331 12.3587 11.4773 11.4819 11.225 10.6132C10.9363 9.33262 11.4279 7.98034 10.8661 6.72635C10.749 6.55366 10.658 6.36768 10.6215 6.1578C10.8843 5.47236 11.4357 5.52284 11.995 5.59191C12.125 5.70084 12.1328 5.81774 12.021 5.94526Z" fill="#617429"/>
<path d="M15.8916 52.3831C15.9098 52.6089 15.9462 52.8268 16.1803 52.9357C15.4624 54.4872 13.9537 54.4633 12.6245 54.7529C12.0938 54.8671 11.5241 54.806 10.9727 54.822C10.7672 54.7502 10.6397 54.6174 10.6423 54.381C10.8608 53.9532 11.2666 53.9745 11.6464 53.932C12.7779 53.9081 13.8002 53.4989 14.7913 52.9941C14.8771 52.9224 14.9655 52.856 15.0566 52.7896C15.3297 52.6434 15.4988 52.2715 15.8916 52.3831Z" fill="#627331"/>
<path d="M0.317704 46.2966C0.478979 46.5623 0.640147 46.8282 0.801422 47.0939C1.44912 47.9387 1.12657 48.935 1.20201 49.8649C1.24102 50.3404 1.17339 50.824 1.1786 51.3022C1.1786 51.5307 1.189 51.7592 1.17339 51.9876C1.16039 52.2108 1.13178 52.434 1.06154 52.6492C1.00952 52.7926 0.921075 52.9069 0.798818 52.9919C0.406035 52.8431 0.499679 52.3994 0.299386 52.1338C0.304589 50.1917 0.312502 48.244 0.317704 46.2966Z" fill="#5B672B"/>
<path d="M0.796635 52.9947C0.809641 52.8831 0.825249 52.7715 0.838255 52.66C1.26485 52.5165 1.54318 52.8433 1.87874 52.9947C3.07009 53.5845 4.44353 53.4942 5.64789 54.0468C5.83257 54.1291 5.97824 54.2567 6.08229 54.4347C6.14212 54.5702 6.12391 54.6924 6.02767 54.804C4.13659 54.6366 2.20389 54.6127 0.796635 52.9947Z" fill="#617032"/>
<path d="M6.02479 54.8035C6.02219 54.7132 6.02219 54.6228 6.01959 54.5325C7.58032 53.956 9.14104 53.8497 10.7018 54.5219C10.7902 54.6228 10.8813 54.7211 10.9697 54.8221C9.32053 55.1409 7.67396 54.9656 6.02479 54.8035Z" fill="#516124"/>
<path d="M6.02217 0.355734C6.02217 0.438093 6.02217 0.520453 6.02217 0.602812C6.12362 1.01461 5.68401 1.3467 5.86349 1.76913C5.74644 2.15967 5.53314 2.52099 5.56956 2.95404C5.55135 3.36318 5.56436 3.78029 5.25481 4.10707C5.10654 4.15755 4.96868 4.14161 4.83602 4.05925C4.07647 3.3127 4.60191 2.47848 4.67474 1.67348C4.86723 0.961474 5.20279 0.400899 6.02217 0.355734Z" fill="#576F48"/>
<path d="M12.5176 14.9531C12.6346 14.9398 12.7517 14.9238 12.8687 14.9105C13.8858 15.5243 14.7962 16.2495 15.3607 17.3468C15.2462 17.5381 15.3373 17.8436 15.0511 17.9392C14.0237 17.2193 13.2277 16.2628 12.4473 15.2905C12.4109 15.1656 12.4369 15.054 12.5176 14.9531Z" fill="#60712F"/>
<path d="M15.1265 17.8643C15.1317 17.657 15.163 17.4637 15.3607 17.3468C15.9694 17.9818 16.0811 18.8659 16.4583 19.6151C16.5493 19.8967 16.6066 20.173 16.2918 20.3616C15.462 20.3324 15.4074 19.5858 15.1239 19.0518C15.038 18.656 14.7987 18.2575 15.1265 17.8643Z" fill="#586929"/>
<path d="M4.5164 4.68404C4.66727 4.47415 4.82074 4.26427 4.97161 4.05439C5.06005 4.05704 5.1511 4.05704 5.23954 4.0597C5.33578 3.96671 5.43723 3.9614 5.54388 4.04376C5.63752 4.29615 5.52567 4.514 5.43723 4.73717C5.29416 5.05333 5.26815 5.42793 4.98202 5.66969C4.98462 5.75737 4.98202 5.8477 4.97421 5.93537C4.55022 5.78659 4.71409 5.31369 4.50339 5.04801C4.50599 4.92846 4.5112 4.80625 4.5164 4.68404Z" fill="#4F673F"/>
<path d="M12.2864 13.3666C11.7168 12.389 12.0861 11.3316 12.0393 10.3087C12.3072 11.3103 12.211 12.3464 12.2864 13.3666Z" fill="#627239"/>
<path d="M12.021 5.94526C12.0106 5.84696 12.0002 5.75149 11.9898 5.65319C11.6932 5.31047 11.7323 4.96509 11.9794 4.61706C12.0756 4.51876 12.1719 4.42311 12.2681 4.32481C12.6583 4.93853 12.6791 5.49627 12.021 5.94526Z" fill="#405C2F"/>
<path d="M16.1568 20.2689C16.4039 20.1228 16.4195 19.8597 16.4637 19.6153C16.6406 19.8943 16.7369 20.1945 16.69 20.5292C16.6016 20.6169 16.5131 20.7046 16.4247 20.7923C16.2114 20.8852 16.1152 20.7577 16.0449 20.5824C16.0319 20.4602 16.0683 20.3565 16.1568 20.2689Z" fill="#60712F"/>
<path d="M16.123 50.5216C16.1126 50.9839 16.3181 51.478 15.9306 51.8845C15.8343 51.8845 15.8005 51.6587 15.7615 51.749C15.5872 52.1688 15.5664 52.6656 15.1294 52.9392H15.1346C13.9718 52.8091 14.4088 51.7145 14.0629 51.0901C13.9901 50.5375 13.9718 49.9849 14.0889 49.435C14.812 48.7097 15.2334 47.8941 14.747 46.9111C14.6378 47.012 14.6742 47.7931 14.1513 47.0997C13.899 46.2203 13.9588 45.3356 14.0915 44.4483C14.4661 43.9913 14.2242 43.3165 14.6013 42.8515C15.236 43.3298 15.236 43.3298 15.6574 45.6996C15.7849 45.9945 15.8733 46.2974 15.8681 46.6215C16.045 47.918 15.6548 49.249 16.123 50.5216Z" fill="#7B8C2B"/>
<path d="M15.3923 45.7655C14.9553 44.9313 15.4756 43.8633 14.7238 43.1087C14.2452 43.3 15.1348 44.0599 14.3649 44.1741C13.6495 42.7899 14.0189 41.3393 14.1151 39.9047C14.2244 39.7107 14.3466 39.5407 14.6042 39.6656C15.0828 40.1943 14.7915 40.8319 14.8669 41.4217C14.8357 40.8345 15.0152 40.258 14.9137 39.6629C14.8773 39.36 14.7837 39.0705 14.7498 38.7702C14.664 38.0157 14.9293 37.6836 15.6941 37.9918C16.1181 38.4647 15.6759 39.1953 16.1675 39.6496C16.1649 39.74 16.1649 39.8303 16.1623 39.9233C15.9516 40.1863 15.8892 40.4467 16.1623 40.7097C16.1649 40.8 16.1675 40.8903 16.1675 40.978C16.1259 41.0205 16.1025 41.0418 16.1025 41.0418C16.0817 41.063 16.1025 41.0418 16.1649 40.978C16.5473 41.419 16.5083 41.868 16.1857 42.3223C15.6264 43.0476 16.0322 43.8925 15.897 44.6709C15.8293 45.0747 16.1233 45.6725 15.3923 45.7655Z" fill="#75862A"/>
<path d="M16.1648 35.3989C16.1622 35.8425 16.1622 36.2862 16.1596 36.7299C15.5457 36.892 16.1153 37.5615 15.7147 37.8165C14.7107 38.1008 15.0827 37.2506 14.9318 36.8282C14.9916 36.3686 14.9292 35.9063 14.9578 35.4467C15.0488 35.0615 15.1191 34.6762 15.015 34.2777C14.9864 34.1608 14.9682 34.0439 14.9526 33.927C14.9136 33.4887 14.8303 33.0556 14.7913 32.6172C14.5598 30.9222 14.3725 29.2299 14.5988 27.5189C14.6404 27.3834 14.7081 27.2665 14.8017 27.1629C15.7382 27.2187 15.2699 28.3053 15.8396 28.6295C16.5029 29.4291 15.7199 30.2554 15.8838 31.0684C15.9671 32.4206 16.0945 33.7703 15.8838 35.1226C15.8474 35.3537 15.6731 35.7283 16.1648 35.3989Z" fill="#75862A"/>
<path d="M16.1648 20.5266C16.2506 20.6143 16.3365 20.7046 16.4223 20.7923C16.4223 25.0271 16.4249 29.2647 16.4145 33.4995C16.4119 33.9671 16.5706 34.4799 16.1778 34.8837C15.6211 33.6802 16.0347 32.3996 15.8994 31.1616C16.1232 29.339 15.6835 27.5271 15.8006 25.7046C15.7902 24.1238 15.8682 22.5431 15.7356 20.9623C15.7798 20.7205 15.8474 20.4947 16.1648 20.5266Z" fill="#72842C"/>
<path d="M16.1565 31.1427C16.1643 32.3914 16.1695 33.6374 16.1773 34.8861C16.1721 35.0588 16.1695 35.2288 16.1643 35.4015C15.9901 35.3989 15.6831 36.0923 15.6597 35.3431C15.6129 33.8632 15.6389 32.3808 15.6337 30.901C15.9172 30.7362 16.0187 30.978 16.1565 31.1427Z" fill="#86963E"/>
<path d="M15.3923 45.7655C15.9048 44.9259 15.5348 43.9988 15.6492 43.1194C15.6961 42.7607 15.4515 42.1975 16.1877 42.325C16.1695 43.8261 16.1539 45.3272 16.1357 46.8256C15.8573 46.9504 15.7455 46.7591 15.6388 46.5546C15.5582 46.2916 15.4756 46.0285 15.3923 45.7655Z" fill="#87983B"/>
<path d="M15.6415 46.5542C15.8079 46.6445 15.9718 46.7349 16.1383 46.8252C16.1331 48.0579 16.1279 49.2907 16.1253 50.5234C15.6311 50.4889 15.6545 50.1222 15.6545 49.7662C15.6493 48.6955 15.6441 47.6249 15.6415 46.5542Z" fill="#91A146"/>
<path d="M15.6445 37.792C15.6445 37.4466 15.6029 37.0959 15.6523 36.7585C15.759 36.0385 15.9879 36.7538 16.1596 36.7299C16.1622 37.7023 16.1649 38.6773 16.1675 39.6496C15.2259 39.3813 15.824 38.5864 15.6445 38.0577C15.5509 37.9992 15.5197 37.9381 15.5509 37.8797C15.5821 37.8212 15.6133 37.792 15.6445 37.792Z" fill="#81933A"/>
<path d="M15.1294 52.9417C15.3323 52.389 15.5352 51.8391 15.8213 51.0607C15.8759 51.4857 15.9019 51.685 15.928 51.8843C15.915 52.0516 15.9019 52.2164 15.8889 52.3837C15.6418 52.5724 15.543 52.9815 15.1294 52.9417Z" fill="#8E9E41"/>
<path d="M16.1619 40.7103C15.3451 40.4473 15.7561 40.1869 16.1619 39.9239C16.1619 40.1869 16.1619 40.45 16.1619 40.7103Z" fill="#81933A"/>
<path d="M0.859413 51.6295C0.841205 50.1178 0.822995 48.6061 0.804786 47.0944C0.81259 46.0238 0.822996 44.9504 0.8308 43.8798C0.968664 43.8107 1.08832 43.8346 1.18976 43.9515C1.54093 44.6874 1.42908 45.5376 1.72301 46.2868C1.73342 46.7677 1.76203 47.2485 1.58775 47.7135C1.77504 47.1927 1.74642 46.6561 1.72561 46.1168C1.73602 45.7794 1.65278 45.3436 2.23285 45.6226C2.29008 45.9706 2.19123 46.3266 2.22505 46.672C1.86868 40.2666 2.07938 33.8532 2.03256 27.4451C2.02996 26.935 1.94932 26.3558 2.5476 26.0609C2.79991 26.1725 2.88835 26.3983 2.95078 26.6454C3.07044 27.9685 2.9794 29.2942 3.01321 30.6199C3.01581 35.8776 3.02362 41.1353 3.05223 46.3931C3.05743 47.2273 2.97159 48.112 3.89502 48.5822C4.01208 48.6566 4.11612 48.7523 4.20196 48.8638C4.56093 49.4776 5.18262 49.3394 5.72887 49.3979C6.2257 49.4483 6.74074 49.35 7.21156 49.5891C7.15434 50.0328 7.45608 50.4552 7.2948 50.9069C6.90982 51.1832 6.4312 51.1487 6.01241 51.3107C5.46875 51.409 4.96152 51.6162 4.44648 51.8075C3.96786 51.9855 3.46842 52.1503 3.05223 51.6508C2.78951 51.1194 2.67766 50.5482 2.63864 49.9611C2.63084 49.7087 2.68286 49.4457 2.52159 49.2013C2.3447 49.4536 2.48777 49.714 2.45656 49.9611C2.46956 50.5456 2.45916 51.1274 2.48517 51.7119C2.47997 52.044 2.57361 52.4239 2.10279 52.5249C1.16896 52.3229 1.39786 51.5392 1.2756 50.9335C1.15595 51.1407 1.36925 51.6242 0.859413 51.6295Z" fill="#7B8C2B"/>
<path d="M0.83831 20.2715C1.28572 19.9367 1.20788 19.3076 1.56684 18.925C1.73852 19.0287 1.81916 19.196 1.86858 19.382C1.905 19.9399 2.14952 20.4022 2.52149 20.8034C2.82583 21.356 2.52409 22.1769 3.26544 22.5356C3.77787 23.0324 3.57238 23.6089 3.43972 24.1748C3.30966 24.6238 2.9819 24.9134 2.64635 25.1923C2.50848 25.3066 2.35761 25.3889 2.17293 25.3863C1.91541 25.2933 1.71511 25.0914 1.4706 24.9771C1.17406 24.754 0.900935 25.102 0.612201 25.0223C0.601796 23.9782 0.591392 22.9314 0.580987 21.8873C0.88793 21.3852 0.495147 20.7662 0.835905 20.2694L0.83831 20.2715Z" fill="#84952F"/>
<path d="M0.832896 39.395C0.635204 39.039 0.593585 38.6537 0.593585 38.2499C0.60399 34.3764 0.60399 30.5028 0.609192 26.6266C0.705437 26.4433 0.682026 26.1245 0.92654 26.1085C1.17105 26.0926 1.2647 26.3556 1.29071 26.5788C1.39476 27.4582 1.43898 28.3375 1.43898 29.2249C1.43638 30.0644 1.38175 30.904 1.50401 31.7408C1.53002 31.8763 1.53522 32.0145 1.52742 32.1526C1.40776 32.8036 1.35314 33.4545 1.56904 34.1001C1.63147 34.3657 1.65488 34.6367 1.63667 34.9104C1.59505 35.3939 1.39736 35.8508 1.44158 36.3477C1.44158 36.9295 1.45979 37.514 1.44158 38.0958C1.34793 38.5793 1.57944 39.2276 0.832896 39.395Z" fill="#8C9C35"/>
<path d="M0.832962 39.3941C1.24395 39.0248 1.02285 38.5227 1.09568 38.0817C1.72778 38.1003 1.35321 38.6024 1.45985 38.8761C1.62633 38.6343 1.16332 37.8532 2.01651 38.1986C2.27403 39.4419 1.9879 40.7119 2.18559 41.9552C2.27143 42.7257 2.33906 43.4988 2.07634 44.2507C1.49627 44.9042 1.42344 43.9637 1.06707 43.9159C0.986432 43.9053 0.905795 43.892 0.827759 43.8787C0.83036 42.383 0.830361 40.8872 0.832962 39.3941Z" fill="#9BA950"/>
<path d="M1.32188 31.9451C0.814644 30.2156 1.20742 28.4355 1.04615 26.6847C1.02274 26.443 1.03835 26.443 0.609148 26.6236C0.609148 26.0896 0.609146 25.5556 0.611747 25.0189C0.845856 24.5248 1.07736 24.0094 1.60801 24.7745C1.69645 24.8808 1.73807 25.0057 1.73807 25.1465C1.67304 25.6831 1.67825 26.2251 1.69125 26.7644C1.69385 27.1948 1.69905 27.6279 1.70165 28.0583C1.69905 28.7464 1.70166 29.4345 1.70686 30.1252C1.64443 30.7496 1.85253 31.4297 1.32188 31.9451Z" fill="#879537"/>
<path d="M0.833315 20.2693C0.770886 20.8112 0.978984 21.401 0.578398 21.8872C0.640827 21.3452 0.336484 20.7422 0.833315 20.2693Z" fill="#5F702D"/>
<path d="M12.5176 14.9531C12.5254 15.0381 12.5305 15.123 12.5357 15.208C13.0429 16.2627 14.3851 16.6878 14.5464 18.0002C14.4293 18.6883 13.8753 18.7043 13.3732 18.7999C13.1001 18.8079 12.8868 18.6883 12.7229 18.4705C12.2521 17.0252 12.0336 16.8631 10.8293 17.081C9.31015 18.3217 8.7613 18.3722 7.13034 16.9614C6.46703 16.3876 5.85055 15.8562 5.00515 15.6224C4.69041 15.5348 4.4511 15.3355 4.72422 14.9529C4.73723 14.7377 4.78145 14.5385 4.98434 14.4216C5.66326 14.3286 5.35371 13.5448 5.76471 13.2606C5.93899 13.1809 6.11327 13.1835 6.28495 13.2712C6.42281 13.4014 6.48264 13.5661 6.50085 13.7521C6.53466 13.9035 6.42542 14.1639 6.5971 14.1931C6.79739 14.225 6.86762 13.9115 7.05231 13.8132C7.16676 13.7786 7.28121 13.776 7.39566 13.8052C7.98094 14.0523 8.65725 14.2276 8.40493 15.1389C8.29048 15.5587 8.64165 15.378 8.77171 15.3939C9.23992 15.4524 9.69773 15.3647 10.1347 15.1867C10.3428 15.1017 10.5119 14.9476 10.7018 14.836C11.2142 14.6952 11.0712 14.2887 11.0504 13.9301C11.0608 13.869 11.0712 13.8105 11.0842 13.7521C11.1154 13.6989 11.144 13.6458 11.1752 13.5927C11.2897 13.5183 11.3963 13.5289 11.4952 13.6192C11.9322 13.9885 11.719 14.8734 12.5176 14.9531Z" fill="#7F912B"/>
<path d="M11.9794 4.61706C11.982 4.96244 11.9872 5.30782 11.9898 5.65319C11.6308 5.99591 11.0481 5.77018 10.7152 6.17932C10.3692 6.50344 10.0155 6.50876 9.65389 6.20854C8.09576 6.03054 6.4492 6.66019 4.98212 5.67454C5.02894 5.30259 4.86246 4.87751 5.23703 4.58527C5.63242 4.45509 5.87953 4.77655 6.18908 4.90673C6.37896 4.95456 6.4466 5.39823 6.73533 5.08474C6.25411 4.81109 5.62201 4.7553 5.47635 4.07251C5.39831 4.07251 5.31767 4.06986 5.23964 4.06454C5.25004 3.62618 5.26044 3.18516 5.27085 2.74679C5.39831 2.59536 5.62461 2.55285 5.70005 2.68037C6.2333 3.54382 6.30353 2.66443 6.54804 2.45986C7.58593 2.46783 8.62381 2.47846 9.66169 2.48643C9.74753 2.5741 9.81256 2.6724 9.85938 2.78664C9.9062 3.00184 9.94782 3.28611 9.78915 3.39504C9.08162 3.8892 9.71371 4.03532 9.98164 4.27974C10.0207 4.39929 10.0207 4.51885 9.97904 4.63575C9.95563 4.79515 9.50041 4.9705 9.8958 5.08474C10.4186 5.23351 11.0039 5.31056 11.4773 4.86423C11.5892 4.64637 11.7713 4.60112 11.9794 4.61706Z" fill="#64874E"/>
<path d="M4.72422 14.9529C4.76324 15.0725 4.79722 15.2957 4.84144 15.2957C6.49581 15.3674 7.30999 16.9242 8.65741 17.5459C9.63286 17.9949 10.0855 17.2324 10.7046 16.8073C10.7514 16.8445 10.8008 16.8791 10.8476 16.9163C11.1962 17.3068 10.8684 17.8594 11.1676 18.2606C11.3236 18.5077 11.5447 18.7229 11.5656 19.0417C11.2482 19.6368 10.9257 20.2213 10.3664 19.2383C10.1557 18.8663 9.72911 18.8265 9.45338 18.5794C9.41956 18.598 9.37274 18.505 9.33372 18.5874C9.40656 18.6139 9.45858 18.6671 9.495 18.7494C9.42217 19.2702 9.56003 19.8387 9.18286 20.2797C8.79528 20.734 8.36347 21.1963 7.83543 20.4604C7.49467 19.9848 6.97963 19.8918 6.50101 19.7112C6.25389 19.6182 5.97036 19.5544 5.93915 19.2409C5.90273 18.8477 6.22268 18.7282 6.50881 18.6299C6.89899 18.4944 7.28397 18.3084 7.71057 18.42C7.26576 17.6681 6.40477 18.4997 5.90273 17.9391C5.86371 17.7638 5.89753 17.5911 5.92874 17.4184C5.98077 17.1394 6.24869 16.7994 5.84811 16.6107C5.57758 16.4832 5.37469 16.7489 5.1822 16.9163C4.91947 17.1448 4.67236 17.3971 4.3264 17.4981C3.61106 17.5645 3.2573 17.9391 3.34054 18.691C3.30672 19.0018 3.18967 19.2861 3.08822 19.5757C2.88533 20.0061 2.95296 20.6092 2.35468 20.7898C1.51189 20.7181 1.61074 20.0672 1.59253 19.4907C1.77982 19.1958 1.79282 18.8105 2.03994 18.5449C2.55237 17.2776 3.73592 16.5629 4.45646 15.4657C4.46946 15.2531 4.52133 15.0619 4.72422 14.9529Z" fill="#78892B"/>
<path d="M6.23843 13.3506C6.08496 13.348 5.93149 13.348 5.77802 13.3453C5.39564 12.6864 5.85866 11.9186 5.5179 11.2544C5.5205 11.0605 5.5231 10.8692 5.5257 10.6753C5.9549 10.043 5.739 9.32564 5.75461 8.65083C5.79363 7.01161 5.77282 7.01161 7.29192 6.73531C7.39597 6.72202 7.50002 6.70608 7.60667 6.6928C8.43645 6.48026 9.28445 6.63169 10.122 6.53339C10.9362 6.88408 11.2562 7.53233 11.2275 8.41172C11.2067 9.06794 11.238 9.72416 11.2093 10.3777C11.1625 10.7444 11.0351 11.119 10.6605 11.188C10.2131 11.2704 10.1481 10.7895 9.99978 10.5052C9.53677 9.60726 9.23503 8.55253 7.83818 9.07059C7.33874 9.25657 7.38036 8.51533 7.0344 8.37187C6.31127 8.77835 6.73266 9.47176 6.63902 10.0244C6.45173 11.1243 6.99018 12.3171 6.23843 13.3506Z" fill="#73852B"/>
<path d="M7.29154 6.73454C6.15481 6.99491 5.9181 7.74677 5.98053 8.85729C6.01435 9.43912 6.50857 10.3026 5.52532 10.6772C5.52532 9.6676 5.58775 8.65272 5.50711 7.65112C5.43168 6.67344 5.74902 6.38651 6.64904 6.70001C6.84673 6.76643 7.07824 6.72657 7.29154 6.73454Z" fill="#8D9E39"/>
<path d="M5.51759 11.2563C6.01962 11.8993 5.65025 12.6538 5.77771 13.3472C5.7569 13.6899 5.82193 14.0698 5.69447 14.3647C5.57482 14.6437 5.27567 15.1697 4.98434 14.4232C5.29128 13.3897 5.59822 12.3562 5.51759 11.2563Z" fill="#8D9E39"/>
<path d="M4.46157 15.4646C4.02977 16.793 2.64593 17.4014 2.1387 18.6713C2.01644 18.6235 1.9306 18.5384 1.87858 18.4136C2.50547 17.218 3.42629 16.2908 4.46157 15.4646Z" fill="#90A145"/>
<path d="M10.1922 6.72495C9.32857 6.71432 8.46757 6.7037 7.60397 6.69307C8.18924 6.09796 9.06845 6.79403 9.65372 6.20688C10.0075 6.19626 10.3613 6.18829 10.715 6.17766C10.7957 6.26002 10.8763 6.34238 10.9569 6.42474C10.8113 6.81528 10.5772 6.96937 10.1922 6.72495Z" fill="#466128"/>
<path d="M1.87874 18.4164C1.96458 18.5014 2.05042 18.5864 2.13886 18.6741C1.95938 18.9451 1.77989 19.2188 1.59781 19.4897C1.5874 19.3011 1.577 19.1125 1.56659 18.9239C1.67064 18.7538 1.77469 18.5838 1.87874 18.4164Z" fill="#B8C47B"/>
<path d="M5.74701 1.67905C4.78196 1.03877 5.93689 0.964386 6.02273 0.605724C7.2479 0.738561 8.46527 -0.119571 9.69044 0.581813C9.58639 0.78904 9.36529 0.677456 9.21442 0.762472C9.53176 0.69074 9.89853 0.967042 10.1769 0.616351C10.541 0.632291 10.9416 0.49414 11.2121 0.882026C11.1315 1.59138 10.5957 1.63389 10.078 1.6578C9.56818 1.68171 9.07135 1.85706 8.55631 1.79595C7.90081 1.72953 7.2271 1.93942 6.5846 1.66843C6.48315 1.66577 6.3791 1.66577 6.27765 1.66311C6.10597 1.8172 5.92909 1.83315 5.74701 1.67905Z" fill="#6F8E57"/>
<path d="M9.67191 2.74013C9.66931 2.65246 9.66671 2.56744 9.6641 2.47977C9.79156 2.4718 9.92162 2.46914 10.0465 2.4532C10.5979 2.37881 11.4173 1.79433 11.6332 2.32834C11.9246 3.04832 11.9141 4.0632 10.9673 4.59455C10.6135 4.90805 10.265 4.89476 9.91902 4.57595C9.91902 4.49359 9.91902 4.41389 9.91902 4.33153C10.8581 3.63546 9.61468 3.29274 9.67191 2.74013Z" fill="#618051"/>
<path d="M9.9216 4.57761C10.2702 4.58293 10.6187 4.58824 10.9699 4.59621C11.0791 4.80875 11.2716 4.85126 11.4823 4.85657C11.563 5.11162 11.6826 5.3587 11.2378 5.39058C10.5199 5.44106 9.79674 5.59781 9.03198 5.13022C9.19846 4.70514 9.56263 4.64403 9.9216 4.57761Z" fill="#537342"/>
<path d="M5.74701 1.67905C5.92389 1.67374 6.10077 1.66843 6.27765 1.66311C5.98372 2.06163 6.37629 2.21889 6.54797 2.45268C6.49335 2.94684 6.68844 3.50741 6.21762 3.95906C5.65836 3.70667 6.07455 2.70773 5.27078 2.74227C5.12511 2.2428 5.47128 1.97661 5.74701 1.67905Z" fill="#60804C"/>
<path d="M8.62138 1.67387C9.47458 1.36834 10.5125 1.69512 11.2148 0.879495C11.6882 1.09469 11.696 1.27004 11.2252 1.54368C10.3928 2.02456 9.51099 1.95282 8.61878 1.905C8.53814 1.85187 8.50952 1.80139 8.53814 1.75091C8.56415 1.70043 8.59276 1.67387 8.62138 1.67387Z" fill="#809E69"/>
<path d="M10.1795 0.617336C9.73726 1.6641 9.12597 0.452617 8.91267 0.643903C8.9777 0.63859 9.33407 0.612022 9.69304 0.582798C9.85431 0.593425 10.0156 0.604052 10.1795 0.617336Z" fill="#7C9F62"/>
<path d="M8.62065 1.67348C8.62065 1.75052 8.62064 1.82757 8.61804 1.90462C7.93653 1.86742 7.21339 2.18092 6.5865 1.66816C7.26281 1.67082 7.94173 1.67082 8.62065 1.67348Z" fill="#8AA672"/>
<path d="M10.1922 6.72495C10.4471 6.62399 10.702 6.52569 10.9569 6.42474C11.5786 6.5071 11.4957 6.98498 11.4931 7.41803C11.4905 8.50996 11.4879 9.60454 11.4879 10.6965C11.6934 11.5812 11.6778 12.4685 11.4957 13.3559C11.4931 13.4436 11.4931 13.5286 11.4983 13.6162C11.4124 13.6162 11.324 13.6162 11.2382 13.6189C10.7335 13.0105 10.6321 12.2958 10.6919 11.5333C10.8116 11.265 10.8038 10.9542 10.9546 10.6965C10.8688 9.33886 11.3861 7.86204 10.1922 6.72495Z" fill="#859837"/>
<path d="M11.4956 13.3587C11.493 12.4713 11.4904 11.5866 11.4878 10.6993C11.8832 11.584 11.8728 12.4713 11.4956 13.3587Z" fill="#73852A"/>
<path d="M14.3358 51.068C14.8171 51.5967 14.289 52.5744 15.1344 52.941C14.2474 54.0329 12.9728 54.0701 11.7502 54.2481C11.4849 54.187 11.5812 53.6185 11.0167 53.8523C10.5095 54.0595 10.1921 53.7115 10.6083 53.1323C11.0453 52.8294 11.5733 52.7603 12.0468 52.5558C12.1534 52.5133 12.2653 52.4814 12.3771 52.4575C12.6008 52.415 12.8245 52.4336 13.043 52.4787C13.2719 52.5079 13.5165 52.6009 13.6569 52.3087C13.6413 52.1573 13.5295 52.0855 13.415 52.0164C13.3214 51.958 13.2615 51.8783 13.2303 51.7747C13.2563 51.4559 13.4592 51.2779 13.7037 51.1318C13.9066 51.0361 14.1095 50.9192 14.3358 51.068Z" fill="#869832"/>
<path d="M10.7074 53.2078C10.5331 53.6037 10.6501 53.8906 11.0611 53.6541C11.9403 53.1467 11.5996 53.9676 11.753 54.2519C11.3993 54.3183 10.9857 54.1563 10.7074 54.5229C9.14663 54.5256 7.58591 54.5282 6.02518 54.5335C5.93674 54.4458 5.8457 54.3582 5.75726 54.2705C5.86911 54.135 6.00698 54.042 6.17605 54.0048C6.90439 53.8534 7.92147 54.2997 8.10875 53.0271C8.31165 52.9235 8.52495 52.8784 8.74865 52.8598C9.41196 52.8943 10.1273 52.6525 10.7074 53.2078Z" fill="#788B2B"/>
<path d="M0.858883 51.6289C0.965533 51.3579 1.07218 51.0869 1.19704 50.7761C1.83433 51.1347 1.34531 52.1603 2.11266 52.418C2.31296 52.5163 2.50545 52.6703 2.35458 52.8962C2.12567 53.2416 1.83433 52.9812 1.57161 52.8988C1.24646 52.7075 0.96553 52.4764 0.892696 52.0699C0.87969 51.9238 0.869288 51.775 0.858883 51.6289Z" fill="#9CAF43"/>
<path d="M0.890157 52.0703C1.12166 52.2749 1.35577 52.4795 1.58728 52.6841C1.75116 52.8355 1.75636 53.0002 1.6289 53.1782C1.36618 53.0055 1.10098 52.8327 0.838255 52.66C0.856463 52.4634 0.87455 52.2669 0.890157 52.0703Z" fill="#728128"/>
<path d="M1.6289 53.1782C1.61589 53.0135 1.60289 52.8488 1.58728 52.6841C1.77977 52.7425 2.00614 52.8944 2.15441 52.836C2.3599 52.7563 2.1414 52.5623 2.11019 52.4189C2.40412 52.2409 2.1466 52.0469 2.12839 51.861C2.32348 51.6856 2.54719 51.5979 2.80991 51.6404C2.92697 51.6697 3.03621 51.7175 3.14026 51.7812C3.442 52.4242 4.08971 52.3312 4.61775 52.4879C5.75188 52.8679 7.03687 52.4826 8.09817 53.2106C7.84585 54.786 6.63629 54.1537 5.75188 54.2733C4.38104 53.896 2.89049 53.9885 1.6289 53.1782Z" fill="#859733"/>
<path d="M14.3463 17.8705C14.0758 17.1425 13.5061 16.659 13.0223 16.0957C12.8142 15.854 12.2341 15.7583 12.5385 15.2057C13.5009 15.9921 14.3385 16.9034 15.1293 17.8625C15.2073 18.2158 15.2828 18.5692 15.3608 18.9199C15.2567 19.0022 15.1449 19.0155 15.0226 18.9597C14.5934 18.7286 14.6168 18.2052 14.3463 17.8705Z" fill="#90A143"/>
<path d="M15.1395 18.916C15.2123 18.9239 15.2851 18.9239 15.3606 18.9213C15.6259 19.3703 15.8912 19.8193 16.1591 20.2682C16.1669 20.3533 16.1695 20.4383 16.1695 20.526C16.0837 20.611 15.9979 20.6986 15.912 20.7837C15.9068 22.4335 15.8574 24.086 16.0343 25.7332C15.9562 26.4851 16.2086 27.2582 15.873 27.9888C15.0536 27.7018 15.488 26.9287 15.2747 26.3947C15.0848 26.6232 15.1421 26.9819 14.8819 27.1678L14.8689 27.1705C14.6686 29.1312 14.536 31.0866 15.1291 33.01C15.1395 33.3634 15.384 33.7194 15.1317 34.0728C15.1629 34.9521 14.9132 35.8315 15.1239 36.7109C15.5192 36.9606 14.9522 37.6966 15.6493 37.7922C15.6493 37.8799 15.6493 37.9702 15.6493 38.0579C15.2799 38.0898 14.8091 37.9755 15.0302 38.6743C15.1239 38.9745 15.3944 39.2933 15.1369 39.6493C15.0172 39.8485 14.9054 40.0611 14.6166 39.9203C14.5334 39.8299 14.4501 39.737 14.3669 39.6466C13.6672 38.6822 14.1276 37.569 13.9871 36.5356C13.9871 36.0494 13.9897 35.5605 13.9871 35.0717C13.9195 32.0244 14.1484 28.9718 13.8311 25.9298C14.4918 24.6599 14.1588 23.3023 14.1562 21.9739C14.4918 21.4346 14.8429 21.3628 15.2097 21.9181C14.9626 20.9377 14.8871 19.9308 15.1395 18.916Z" fill="#7A8C2C"/>
<path d="M6.06126 5.18863C5.88958 4.83793 5.53061 4.75558 5.23407 4.58023C5.31471 4.4102 5.39535 4.23751 5.47339 4.06748C5.74131 4.81668 6.84422 4.2747 7.04712 5.12486C6.73757 5.43571 6.40202 5.32943 6.06126 5.18863Z" fill="#60804C"/>
<path d="M14.3276 36.4877C14.338 37.5424 14.3484 38.5945 14.3588 39.6492C14.3615 41.1583 14.3641 42.6647 14.3667 44.1737C14.3615 45.2337 14.3536 46.2964 14.3484 47.3565C14.2652 47.3485 14.182 47.3405 14.0961 47.3326C13.7294 47.0005 13.732 46.5462 13.7294 46.1078C13.7111 43.3235 13.7059 40.5366 13.7372 37.7523C13.7424 37.2714 13.5941 36.6444 14.3276 36.4877Z" fill="#5B6D27"/>
<path d="M14.3484 47.3565C14.8089 47.1094 14.4086 46.5148 14.8768 46.1243C14.9913 47.2773 15.9876 48.4357 14.3748 49.2221C14.1251 49.0919 14.0288 48.8581 13.9768 48.5977C13.9716 48.1434 14.0002 47.6971 14.3384 47.3437L14.3484 47.3565Z" fill="#80942B"/>
<path d="M14.0939 48.6901C14.3098 48.799 14.3462 49.0089 14.3722 49.2215C14.3592 49.8378 14.3488 50.4516 14.3358 51.068C14.1694 51.1583 14.0003 51.2486 13.8338 51.3362C13.3031 50.6136 13.6101 49.8192 13.6517 49.0488C13.7063 48.9213 13.7896 48.8203 13.9014 48.7433C13.9664 48.7247 14.0289 48.7061 14.0939 48.6901Z" fill="#9AAB43"/>
<path d="M14.6092 39.924C14.7834 39.8336 14.9551 39.7433 15.1294 39.653C15.4546 40.5164 15.1528 41.2869 14.9889 42.0786C14.8615 42.0733 14.7366 42.068 14.6092 42.0626C14.6092 41.348 14.6092 40.636 14.6092 39.924Z" fill="#879832"/>
<path d="M16.1675 40.978C16.1311 41.1773 16.0943 41.376 16.0579 41.5753C15.9616 41.5221 15.8081 41.4929 15.7769 41.4132C15.6339 41.0333 15.9282 41.0258 16.1675 40.978Z" fill="#81933A"/>
<path d="M15.6525 27.9767C16.1597 27.2275 15.7643 26.3721 15.923 25.5803C15.9959 25.4502 16.0687 25.4581 16.1389 25.5803C16.1441 27.4348 16.1493 29.2865 16.1545 31.1409C15.9802 31.0586 15.806 30.9762 15.6317 30.8965C15.1713 30.1819 16.3678 29.4778 15.6473 28.7605C15.4626 28.5001 15.4184 28.2371 15.6525 27.9767Z" fill="#97A64E"/>
<path d="M15.6517 27.9757C15.6517 28.236 15.6491 28.499 15.6491 28.7594C14.8453 28.5044 15.3759 27.5745 14.8791 27.1653C14.9806 26.5756 14.5358 25.5447 15.3187 25.5208C15.9742 25.4996 15.5112 26.5251 15.6335 27.0697C15.6985 27.3593 15.6491 27.6728 15.6517 27.9757Z" fill="#6B7C28"/>
<path d="M15.1244 33.01C14.9762 32.8613 14.6978 32.7151 14.6952 32.5664C14.6614 30.7651 14.3259 28.9532 14.8643 27.1705C14.8175 29.1232 14.8825 31.0706 15.1244 33.01Z" fill="#879A37"/>
<path d="M15.1191 36.7114C14.7263 35.8294 14.7107 34.95 15.1269 34.0732V34.0759C15.3246 34.5169 15.309 34.9579 15.1373 35.4016C15.1529 35.8373 15.5145 36.281 15.1191 36.7114Z" fill="#8E9D41"/>
<path d="M15.1368 35.399C15.1342 34.9579 15.1321 34.5143 15.1269 34.0732C15.5145 34.5143 15.5062 34.9553 15.1368 35.399Z" fill="#7A8C2C"/>
<path d="M16.1409 25.5824L16.0316 25.5798C16.0316 25.5798 15.9224 25.5798 15.9224 25.5824C15.618 23.9857 15.4073 22.3863 15.9068 20.787C16.4452 22.3598 16.068 23.983 16.1409 25.5824Z" fill="#91A23C"/>
<path d="M2.6562 26.6347C2.63539 26.462 2.61458 26.2893 2.59377 26.1166C2.05272 25.6517 2.50013 25.3515 2.76805 25.0194C3.32991 24.3977 4.06866 24.3924 4.8126 24.4137C5.80626 24.4429 6.80252 24.3446 7.79358 24.4987C9.36992 24.8998 10.9853 24.5359 12.5694 24.7325C12.6969 24.759 12.8191 24.8069 12.9336 24.8759C13.1443 25.3462 13.0948 25.8935 13.3368 26.3611C13.472 27.3813 13.3238 28.3961 13.3107 29.4137C13.3628 29.8892 13.4252 30.3675 13.1885 30.8191C13.1105 30.9227 13.009 30.9944 12.8972 31.0582C11.5211 31.8552 11.5211 31.8579 11.3754 30.1416C11.2636 29.5359 10.7954 29.6926 10.413 29.674C9.42194 30.5269 8.52192 30.2585 7.63751 29.4668C7.28115 29.148 6.82593 29.2968 6.40454 29.3446C5.75164 29.3818 5.12475 29.2941 4.55248 28.9461C4.1701 28.4785 3.54321 28.1145 4.00622 27.1236C3.44957 28.0587 3.87876 28.6618 4.13108 29.3021C4.40681 30.0035 4.98948 30.6703 4.44843 31.4992C4.24293 31.6639 3.80073 31.3505 3.75911 31.8605C3.7357 32.1554 3.59784 32.376 3.26748 32.2644C2.99175 32.1714 2.92412 31.9004 2.91112 31.6321C2.8825 31.0688 2.90071 30.5056 2.89551 29.9397C2.78105 28.8398 3.17124 27.7027 2.6562 26.6347Z" fill="#F8EEC3"/>
<path d="M4.25124 49.1711C4.19922 49.1206 4.1498 49.0648 4.10558 49.009C4.76368 48.0367 5.76775 48.3342 6.67557 48.2811C6.58973 48.2784 6.50129 48.2944 6.41805 48.2784C5.70272 48.1429 4.64923 48.7168 4.34489 47.7338C3.98592 46.5781 3.32521 45.3188 4.24864 44.0834C4.51137 43.7301 4.75327 43.3661 4.84692 42.9251C4.90675 42.6408 4.82351 42.2449 5.25791 42.2237C5.62728 42.2077 5.72613 42.5558 5.87179 42.8347C6.0955 42.7285 6.05648 42.484 6.11891 42.306C6.29839 41.8039 6.43626 41.1769 7.08136 41.2354C7.8097 41.3018 7.22962 42.0616 7.48454 42.3592C7.54437 41.9846 7.21922 41.4984 7.75767 41.1849C8.22589 41.4479 8.14005 41.9314 8.18687 42.3485C8.27531 43.1137 8.57445 43.6876 9.36522 43.8762C9.47707 43.924 9.57852 43.9957 9.66696 44.0781C9.7502 44.3199 9.65655 44.5882 10.1118 44.6759C11.2849 44.9017 12.2396 45.4809 12.4242 46.8544C12.5101 47.0138 12.5855 47.1759 12.6271 47.3512C12.6662 47.7922 12.2396 48.0553 12.2161 48.475C11.584 48.8204 10.8375 48.8363 10.2158 49.2136C8.82677 49.4554 7.40911 49.1339 6.02267 49.4368C5.41138 49.4766 4.7975 49.551 4.25124 49.1711Z" fill="#F8EDBF"/>
<path d="M7.79112 41.2462C7.38013 41.6155 7.7599 42.1973 7.38013 42.6941C7.33591 42.2212 7.30209 41.8439 7.26047 41.4029C6.15496 41.7084 6.64919 42.904 6.00669 43.4353C5.50726 43.3211 5.6113 42.7552 5.21332 42.2425C5.26534 43.1218 4.97401 43.6638 4.58903 44.2085C4.16503 44.8115 4.37833 45.5501 4.34712 46.2356C4.23266 48.879 6.05351 47.981 7.29689 48.2892C6.21219 48.515 5.02083 48.167 4.1026 49.0092C3.16617 48.9959 2.63813 48.5336 2.63813 47.556C2.63552 41.9104 2.64072 36.2647 2.64333 30.6191C2.86963 30.4969 2.65373 29.931 3.15576 30.0851C3.15576 30.7307 3.15576 31.3763 3.15576 32.0246C3.239 32.0299 3.32484 32.0325 3.40808 32.0378C3.42889 31.634 3.4497 31.2302 3.47051 30.8157C3.94913 30.845 3.98555 31.4932 4.45897 31.4162C5.33558 31.7908 4.64106 32.5347 4.83355 33.0713C4.82054 33.1112 4.81273 33.1829 4.78932 33.1882C3.09854 33.5602 3.48612 35.0506 3.27282 36.1107C3.48092 35.6829 3.226 35.0134 3.70982 34.5724C4.83875 34.7956 4.12341 35.8184 4.46677 36.3737C5.24974 35.9353 5.86623 35.1409 6.8781 35.2206C7.34891 35.3296 7.85354 35.2844 8.29315 35.5421C8.57928 36.0868 8.11367 36.0841 7.82753 36.201C7.57262 36.3046 7.17983 36.1585 7.13041 36.6208C6.61797 37.2185 5.86882 37.548 5.42142 38.2122C4.91938 38.956 4.45117 39.7185 5.20552 40.582C5.29136 40.6484 5.37719 40.7201 5.46824 40.7812C5.88443 41.0017 6.29282 40.9672 6.69081 40.7308C6.99255 40.5421 7.25787 40.2632 7.65846 40.3216C7.94459 40.4252 8.03043 40.6484 8.00962 40.9353C7.9784 41.0708 7.90297 41.1718 7.79112 41.2462Z" fill="#F6EEC7"/>
<path d="M8.09816 53.2079C6.87299 53.0963 5.62441 53.1627 4.44607 52.6978C4.05849 52.3391 4.17554 52.0788 4.55792 51.7892C5.00532 51.4491 5.6036 51.4518 6.0198 51.0665C6.38917 50.6335 6.8886 50.8779 7.3256 50.8035C7.42705 50.6919 7.54931 50.6096 7.68717 50.5538C8.47794 50.4289 9.26871 50.3359 10.0387 50.6601C10.1531 50.7424 10.2233 50.8593 10.2416 51.0028C10.0803 51.2631 9.86958 51.2897 9.83837 51.2738C10.5329 51.4039 11.5552 51.1011 12.398 51.7387C12.9624 52.1638 12.8896 52.4507 12.2679 52.6819L12.2757 52.6792C11.152 52.8652 10.0283 53.1122 8.88893 52.7855C8.50135 52.1717 8.1918 51.3694 7.30739 52.2913C7.1045 52.5012 6.73513 52.3365 6.20968 52.1771C7.15392 52.6606 8.04354 52.023 8.70424 52.6739C8.79008 52.8678 8.77187 53.0458 8.6236 53.2026C8.44932 53.2026 8.27244 53.2052 8.09816 53.2079Z" fill="#697C29"/>
<path d="M2.6906 25.4286C2.37585 25.6172 2.66921 25.8935 2.59377 26.1166C2.20619 26.5763 2.37845 27.1316 2.37845 27.6417C2.37065 33.6831 2.38366 39.7246 2.39146 45.7661C2.39146 46.3771 2.39146 46.9855 2.17295 47.6045C2.13654 46.8899 2.10272 46.1752 2.06631 45.4632C1.76197 45.1709 1.54346 44.8601 1.87122 44.4403C2.10012 43.6699 2.14174 42.8808 2.10012 42.0811C1.86081 40.8431 2.0585 39.5918 1.99347 38.3484C1.70994 37.3627 1.50965 36.3664 1.64751 35.3303C1.8348 34.6608 1.73855 33.9754 1.75416 33.2952C1.75416 31.1725 1.74376 29.0524 1.75936 26.9323C1.76457 26.3717 1.65531 25.7686 2.12093 25.3064C2.20937 25.2187 2.29521 25.1337 2.38365 25.046C2.65938 25.0301 2.84407 25.0885 2.6906 25.4286Z" fill="#63742E"/>
<path d="M4.25124 49.1711C4.84172 49.1817 5.43205 49.192 6.02252 49.2053C7.23208 49.0911 8.43644 49.0804 9.62259 49.4231C9.71884 49.5454 9.74225 49.6782 9.69023 49.827C8.87865 50.624 8.10349 50.1564 7.32573 49.7552C6.27224 49.6755 5.17713 49.9545 4.17827 49.3913C4.15746 49.3806 4.15745 49.3089 4.16786 49.2744C4.18607 49.2345 4.22523 49.2056 4.25124 49.1711Z" fill="#727F36"/>
<path d="M6.0198 51.0665C5.90795 51.7414 5.26287 51.7252 4.84668 51.8979C4.38627 52.0866 4.52413 52.408 4.4461 52.695C4.00649 52.4771 3.13769 52.9952 3.19492 51.9298C3.05445 51.7837 3.07786 51.6827 3.27035 51.6243C4.28222 51.9404 5.02093 50.8381 6.0198 51.0665Z" fill="#5A6A26"/>
<path d="M7.32844 49.7589C8.1062 49.5145 8.88916 50.3168 9.66432 49.7456C9.81519 49.6632 9.93225 49.7004 10.0181 49.8519C10.1039 50.5134 9.69034 50.6303 9.1805 50.6781C8.64725 50.7286 8.0958 50.5293 7.58336 50.8083H7.4533L7.32324 50.8056C7.08913 50.4549 6.77178 50.1043 7.32844 49.7589Z" fill="#84962C"/>
<path d="M3.1612 30.0888C2.98952 30.2668 2.81784 30.4448 2.64876 30.6228C2.54731 29.2944 2.5135 27.966 2.65917 26.6376C3.27565 26.7386 3.15599 27.2301 3.1612 27.6419C3.169 28.4549 3.1612 29.2732 3.1612 30.0888Z" fill="#FAF6D7"/>
<path d="M1.8709 44.4373C1.93593 44.7774 2.00096 45.1201 2.06599 45.4602C1.99315 45.7391 1.92032 46.0181 1.84748 46.2997C1.75124 46.4113 1.6654 46.406 1.58476 46.2838C0.950067 45.601 1.10874 44.7349 1.06712 43.9166C1.80066 43.3454 1.45991 44.4931 1.8709 44.4373Z" fill="#ACB76C"/>
<path d="M3.26791 51.626C3.2419 51.727 3.21588 51.8306 3.19247 51.9315C3.09623 51.9129 2.99738 51.8917 2.90114 51.8731C2.02973 51.3577 2.22222 50.5394 2.32107 49.7503C2.51356 49.6016 2.70605 49.583 2.89854 49.7503C3.0234 50.3747 3.14565 50.999 3.26791 51.626Z" fill="#C0CC8B"/>
<path d="M2.90112 49.7487C2.72944 49.7514 2.56036 49.754 2.38868 49.754C2.31325 49.8709 2.23521 49.8736 2.14937 49.7646C2.15718 49.3874 2.01931 48.9968 2.27683 48.5372C2.6462 48.8932 3.21066 49.05 2.90112 49.7487Z" fill="#94A440"/>
<path d="M1.58476 46.2838C1.6732 46.2891 1.76164 46.2944 1.84748 46.2997C1.8761 47.025 1.99074 47.7577 1.38726 48.4246C1.45489 47.7126 1.51973 46.9984 1.58476 46.2838Z" fill="#C1CD8A"/>
<path d="M2.14912 49.7672C2.22716 49.7539 2.30779 49.7486 2.38843 49.7565C2.21935 50.5482 2.5315 51.2177 2.90087 51.874C2.64335 51.8686 2.38591 51.8636 2.12839 51.861C2.1362 51.1622 2.14392 50.4659 2.14912 49.7672Z" fill="#ACB96B"/>
<path d="M2.6906 25.4286C2.58915 25.3011 2.4877 25.1735 2.38365 25.046C2.64377 24.7883 2.90088 24.5303 3.161 24.2726C3.32747 24.1079 3.51476 23.9803 3.74627 23.9352C3.89714 23.906 4.04801 23.8927 4.20148 23.8874C5.49948 23.8448 6.80009 23.8448 8.09809 23.8528C9.23482 23.8953 10.3767 23.7864 11.5135 23.906C12.0675 24.0388 12.6268 24.1557 13.1913 24.2301C13.545 24.3231 13.8233 24.5223 13.982 24.8677C14.0288 24.9979 14.0471 25.1334 14.0393 25.2689C13.9976 25.4628 13.956 25.6568 13.8884 25.8427C13.2329 25.9782 13.2355 25.407 13.0534 25.0324C11.7814 24.7508 10.4938 24.9873 9.21661 24.8996C8.7562 24.8677 8.27237 25.0404 7.83537 24.7588C6.56078 24.7614 5.28618 24.7827 4.01419 24.7535C3.43412 24.7455 3.07037 25.0779 2.6906 25.4286Z" fill="#6D7D30"/>
<path d="M2.12284 25.3056C2.12024 28.0553 2.11504 30.805 2.11244 33.5548C1.94076 33.6239 1.80809 33.5787 1.70925 33.4193C1.43352 32.0723 1.68844 30.7094 1.6026 29.3571C1.6026 28.5123 1.6026 27.6674 1.6026 26.8226C1.62601 26.2354 1.56618 25.6483 1.59479 25.0611C1.59739 24.9655 1.6026 24.8699 1.6052 24.7742C1.94596 24.7822 2.11764 24.9575 2.12284 25.3056Z" fill="#6D7D30"/>
<path d="M2.35995 20.7895C2.53943 20.3485 2.72152 19.9048 2.901 19.4638C3.19494 19.2194 3.47067 19.2167 3.72039 19.5276C3.7542 19.6577 3.7594 19.8012 3.68917 19.9075C3.17153 20.6753 3.23396 21.3846 3.88166 22.0409C3.87646 22.1684 3.84784 22.2932 3.79842 22.4101C3.63714 22.628 3.44726 22.7768 3.16112 22.6679C1.72005 22.5616 2.58626 21.4351 2.35995 20.7895Z" fill="#B7BE7D"/>
<path d="M3.15848 22.6687C3.32756 22.5704 3.49664 22.4747 3.66312 22.3764C4.16515 22.9954 4.13394 23.6171 3.66572 24.2388C3.49664 24.2494 3.33016 24.2601 3.16108 24.2733C3.04403 23.7393 3.6215 23.2027 3.15848 22.6687Z" fill="#9DA846"/>
<path d="M1.86562 35.4088C1.94105 36.2776 2.01909 37.1463 2.09452 38.0151C2.0451 38.1931 1.96706 38.209 1.86041 38.0576C1.45983 38.3047 1.70174 38.7696 1.48584 39.1628C1.1919 38.836 1.50665 38.2967 1.09306 38.0788C1.10086 37.4333 1.10606 36.7877 1.11387 36.1421C1.34277 35.7462 1.60029 35.3557 1.34017 34.8695C1.34017 34.6038 1.34017 34.3355 1.33757 34.0698C1.22832 33.9263 1.25173 33.8068 1.4 33.7085C1.63151 33.6341 1.8266 33.6633 1.95926 33.8945C1.95406 34.4019 2.10233 34.92 1.86562 35.4088Z" fill="#909E4A"/>
<path d="M1.82969 33.7696C1.67622 33.7696 1.52535 33.7696 1.37188 33.7723C1.10395 33.2649 1.16898 32.7468 1.32506 32.2234C1.32245 32.1304 1.31985 32.0374 1.31985 31.9444C1.34066 31.3121 1.36147 30.6798 1.38228 30.0502C1.55917 29.8164 1.40569 29.5082 1.54356 29.2664C1.6424 29.2027 1.73865 29.2053 1.82709 29.285C1.8453 30.6984 1.86611 32.1118 1.88431 33.5279C1.95715 33.6023 1.97276 33.6634 1.93114 33.7112C1.89992 33.751 1.86611 33.7696 1.82969 33.7696Z" fill="#B4BE73"/>
<path d="M1.34307 34.871C1.68123 35.3731 1.91014 35.854 1.11677 36.1462C1.19221 35.7212 1.26764 35.2961 1.34307 34.871Z" fill="#B5BE77"/>
<path d="M1.32701 32.2234C1.34261 32.7388 1.35822 33.2569 1.37123 33.7723C1.36082 33.8706 1.35042 33.9716 1.34001 34.0725C0.929022 33.4588 0.944629 32.8424 1.32701 32.2234Z" fill="#879537"/>
<path d="M1.86067 38.0606C1.94131 38.058 2.01934 38.042 2.09478 38.0181C2.09738 39.3704 2.09738 40.7253 2.09998 42.0803C1.57714 40.7678 2.03235 39.3943 1.86067 38.0606Z" fill="#6D7D30"/>
<path d="M1.82951 29.289C1.75407 29.2943 1.68124 29.297 1.6058 29.2997C1.30406 28.9065 1.62141 28.399 1.3821 27.9952C1.3795 27.5489 1.37429 27.1025 1.37169 26.6588C1.51736 26.4862 1.66303 26.4835 1.8087 26.6615C1.8165 27.5356 1.82171 28.4123 1.82951 29.289Z" fill="#B7C387"/>
<path d="M1.8087 26.6615C1.66303 26.6615 1.51736 26.6588 1.37169 26.6588C1.3951 26.1195 1.13467 25.5404 1.59508 25.0649C1.95145 25.5564 1.88153 26.1089 1.8087 26.6615Z" fill="#A4AF68"/>
<path d="M1.38207 27.994C1.76705 28.3739 1.53294 28.8627 1.60577 29.2984C1.57976 29.5641 1.6578 29.8643 1.38207 30.053C1.38467 29.3649 1.38207 28.6794 1.38207 27.994Z" fill="#CCD09B"/>
<path d="M10.9598 11.5046C11.0508 12.2086 11.1445 12.9149 11.2382 13.6189L11.2043 13.622C9.76842 13.7336 10.632 14.8202 10.4551 15.4658C9.66958 15.6943 8.87881 15.9546 8.08024 15.5721C7.82533 15.4499 7.26086 15.3011 8.07764 15.0062C8.59268 14.8202 8.10886 14.3606 7.88515 14.35C7.49497 14.3314 7.33109 14.2224 7.30248 13.8505C6.79264 13.1597 6.96693 12.3893 7.05277 11.6294C7.10479 11.3797 7.18543 11.1379 7.28687 10.9068C7.38312 10.6836 7.48196 10.3755 7.79411 10.4817C8.05163 10.5667 8.09585 10.8616 8.13487 11.114C8.15047 11.3027 8.11406 11.5524 8.44961 11.3983C9.15974 11.3399 9.76583 11.5604 10.2601 12.0651C10.3121 12.2325 10.3485 12.2485 10.3563 12.0333C10.476 11.7543 10.5046 11.3744 10.9598 11.5046Z" fill="#73852A"/>
<path d="M7.35932 11.485C7.34112 12.2741 7.32031 13.0631 7.3021 13.8495C7.23447 13.8814 7.16423 13.908 7.0914 13.9292C6.83908 13.7459 6.56596 13.9531 6.30844 13.884C6.28503 13.706 6.26185 13.5286 6.23843 13.3506C6.26965 11.73 6.26162 10.1061 6.35526 8.49083C6.38647 7.95151 6.48272 6.96851 7.33591 8.04715C7.69228 9.19221 7.64286 10.3373 7.35932 11.485Z" fill="#B2BC80"/>
<path d="M15.1396 18.9167C15.6078 20.1893 15.2047 21.4805 15.3971 22.8859C14.7052 22.6734 15.5038 21.3051 14.3541 21.8524C14.1069 21.7249 13.9821 21.5017 13.8806 21.2547C13.8416 20.3646 12.9442 19.6845 13.2824 18.7015C13.4801 18.2153 14.3541 18.6271 14.3489 17.8699C14.7989 18.0692 14.9003 18.5474 15.1396 18.9167Z" fill="#72842C"/>
<path d="M13.2797 18.7018C13.558 19.5812 14.1719 20.349 14.1251 21.3347C14.263 21.6216 14.2109 21.9298 14.2057 22.23C14.2005 22.4718 14.3124 22.8357 13.9976 22.8942C13.6439 22.9606 13.5606 22.5701 13.4176 22.3203C13.2095 21.2789 12.8635 20.3038 12.104 19.5307C11.9349 19.2199 11.797 18.9037 11.9011 18.5344C12.143 18.1731 12.4395 18.1094 12.7959 18.3671C12.9572 18.4813 13.1184 18.5929 13.2797 18.7018Z" fill="#ABB576"/>
<path d="M12.7959 18.3694C12.4968 18.3933 12.169 18.3322 11.9791 18.6669C11.8179 18.7626 11.641 18.8263 11.4849 18.9326C11.3106 18.7572 11.1389 18.5792 10.9647 18.4039C11.0037 17.8513 11.4953 17.2216 10.7045 16.8098C11.1624 15.9756 11.7034 16.9294 12.1898 16.7408C12.3875 17.2827 13.3344 17.5378 12.7959 18.3694Z" fill="#87992C"/>
<path d="M10.4549 15.4645C10.3534 15.2228 10.239 14.9837 10.1505 14.7366C10.0361 14.4178 9.50025 14.2159 9.93985 13.735C10.3534 13.286 10.7514 13.3232 11.2014 13.6181C11.2092 13.7031 11.2144 13.7908 11.2144 13.8785C11.0922 14.2584 11.0766 14.6888 10.7202 14.9544C10.702 15.1643 10.663 15.3609 10.4549 15.4645Z" fill="#606F26"/>
<path d="M6.30889 13.885C6.62624 13.7814 6.41554 13.1279 6.88896 13.266C7.00862 13.3005 7.02683 13.6991 7.08925 13.9302C6.99301 14.3314 6.99041 14.9398 6.44155 14.8335C5.9005 14.7299 6.14502 14.2437 6.30889 13.885Z" fill="#C2C996"/>
<path d="M10.7231 14.9572C10.7335 14.5241 10.8974 14.1655 11.2173 13.8812C11.3292 14.3727 12.0991 15.1803 10.7231 14.9572Z" fill="#73852A"/>
<path d="M9.67191 2.74013C10.1765 2.79327 10.27 4.25692 11.17 2.87275C11.2064 4.08954 10.5119 4.15861 9.92145 4.33396C9.48965 3.96999 8.92259 4.57838 8.44136 4.07891C8.81073 3.59538 9.85139 3.70453 9.67191 2.74013Z" fill="#517240"/>
<path d="M6.06183 5.18936C6.39219 5.1681 6.71994 5.14685 7.05029 5.12559C7.11272 5.3036 7.32342 5.54536 7.00607 5.62772C6.61589 5.73133 6.27773 5.5613 6.06183 5.18936Z" fill="#A9C29C"/>
<path d="M11.4849 18.9326C11.4693 18.4942 11.6852 18.5049 11.9791 18.6669C12.0832 18.9087 12.1872 19.1505 12.2887 19.3897C12.3589 19.5517 12.4734 19.7908 12.3511 19.8812C11.6748 20.3859 11.2872 21.1697 10.6681 21.7037C10.0906 22.2032 9.03456 22.1367 9.17502 23.4014C9.22445 23.8424 8.48571 23.9752 8.09292 24.2249C6.70908 24.2303 5.32523 24.2382 3.94399 24.2435C3.93359 23.2791 4.76858 23.1968 5.34085 23.0241C6.72209 22.6096 6.72469 21.3503 7.1773 20.3594C7.02122 20.6383 7.33337 21.1723 6.68307 21.2042C6.38133 20.9917 6.07699 21.2972 5.77004 21.2042C5.04951 20.9651 4.48505 20.6011 4.57869 19.6925C4.5969 19.3843 4.70355 19.1027 4.85442 18.8397C5.21598 18.4864 5.35905 17.854 6.01716 17.87C6.86255 17.599 7.63251 17.5671 8.12414 18.6537C7.36458 18.5103 6.79752 18.9407 6.05878 19.0629C6.7455 19.7138 7.93945 19.31 8.17096 20.471C8.21518 20.6915 8.4805 20.5932 8.60276 20.4922C8.89409 20.2451 9.3389 19.8732 9.16462 19.5703C8.88369 19.0762 9.39353 18.9646 9.39613 18.6511C9.30769 18.5926 9.27907 18.5368 9.31029 18.481C9.3415 18.4279 9.37012 18.4013 9.40133 18.4013C10.0334 18.5501 10.9074 18.3748 10.7097 19.666C11.0687 19.3312 11.2768 19.1318 11.4849 18.9326Z" fill="#7D9029"/>
<path d="M6.01957 17.8725C5.69182 18.2391 5.36407 18.6058 5.03892 18.9697C4.80481 18.9724 4.58631 18.9166 4.39121 18.7758C4.11028 18.5447 3.9308 18.2471 3.84756 17.8884C3.82935 17.6095 3.98022 17.4474 4.20913 17.3385C4.51867 17.0489 4.83602 16.7673 5.13776 16.4671C5.44991 16.1589 5.74124 15.8241 6.22507 16.1562C6.7297 16.5016 6.48779 16.8948 6.3005 17.288C6.20166 17.4846 6.11062 17.6785 6.01957 17.8725Z" fill="#B0BA7A"/>
<path d="M4.45379 18.672C4.6905 18.6879 4.9038 18.749 5.03646 18.9695C4.91941 19.2139 4.79975 19.4584 4.6827 19.7028C4.67749 19.91 4.57604 20.0455 4.39136 20.1252C4.048 20.189 3.79829 20.0747 3.67083 19.7293C3.48354 19.4318 3.1818 19.477 2.89827 19.4584C2.99451 19.2033 3.09076 18.9509 3.187 18.6959C3.27284 18.4514 3.4081 18.2681 3.68643 18.2469C4.00118 18.2814 4.21188 18.5072 4.45379 18.672Z" fill="#D6D8AF"/>
<path d="M10.7044 16.8088C12.1168 17.1143 11.4327 17.7759 10.9645 18.4029C10.2674 17.9751 10.9697 17.3083 10.7044 16.8088Z" fill="#7F912B"/>
<path d="M3.60864 18.3429C3.46818 18.4625 3.33031 18.582 3.18985 18.7016C2.76065 17.6495 3.17424 17.2537 4.20692 17.3413C4.11588 17.514 4.02744 17.6894 3.93639 17.8621C3.91819 18.0879 3.87397 18.2951 3.60864 18.3429Z" fill="#879936"/>
<path d="M9.40695 18.403C9.40695 18.4854 9.40435 18.5704 9.40175 18.6528C9.12082 18.6395 8.81908 18.7643 8.56936 18.5491C8.54335 18.5252 8.57456 18.3764 8.62138 18.3286C8.90752 18.0231 9.14943 18.3074 9.40695 18.403Z" fill="#97A353"/>
<path d="M7.35932 11.485C7.35152 10.3399 7.34389 9.19524 7.33348 8.05018C7.63262 8.19896 7.45054 9.18727 8.30894 8.53902C8.51443 8.38228 9.83064 8.60544 10.0101 9.73191C10.0413 9.93116 9.90087 11.1666 10.9518 10.699C10.9544 10.9673 10.957 11.2383 10.9596 11.5066C10.7905 11.759 10.6214 12.0087 10.4523 12.2611C10.3717 12.3727 10.2807 12.386 10.1818 12.2904C9.64596 11.8679 9.01907 11.666 8.37657 11.5066C8.20229 11.3392 8.02801 11.6474 7.85373 11.504C7.85373 11.2489 7.85373 10.9912 7.85373 10.4625C7.61181 10.962 7.48678 11.2246 7.35932 11.485Z" fill="#7E922A"/>
<path d="M10.1973 51.06C10.1921 50.975 10.1895 50.8927 10.1843 50.8077C10.2233 50.7625 10.2624 50.72 10.3014 50.6748C10.9387 49.6945 11.9662 49.381 12.9754 49.0329C13.2564 48.9267 13.5347 48.7646 13.8416 48.9559C13.839 49.7503 13.8338 50.5446 13.8312 51.339C13.5815 51.4346 13.4098 51.6126 13.3084 51.865C12.1821 51.966 11.2508 51.262 10.1973 51.06Z" fill="#7B8C2B"/>
<path d="M10.1973 51.06C11.3341 50.9299 12.2703 51.5999 13.3107 51.8656V51.8683C13.459 52.0968 14.0079 51.9347 13.857 52.4528C13.6333 52.6866 13.4122 52.9283 13.0558 52.6866C12.7931 52.6866 12.5304 52.6839 12.2651 52.6839C12.2729 52.4687 12.9128 52.3279 12.3119 52.025C11.7968 51.7673 11.2948 51.5628 10.7069 51.6026C10.2361 51.6345 9.74708 51.6504 9.3699 51.2466C9.59881 50.9411 9.92681 51.1291 10.1973 51.06Z" fill="#5F7127"/>
<path d="M8.88118 52.665C10.0127 52.758 11.1442 52.4339 12.2758 52.6783C11.8258 53.0795 11.2639 53.1379 10.7072 53.207C10.0127 53.2043 9.31818 53.2043 8.62366 53.2017C8.62366 53.0237 8.62366 52.8457 8.62366 52.6703C8.7069 52.5747 8.79274 52.5747 8.88118 52.665Z" fill="#5F7128"/>
<path d="M13.8129 52.3832C13.6464 52.2106 13.4772 52.0383 13.3107 51.8656C13.7243 51.8019 14.2083 51.6287 14.086 52.3886C13.9924 52.5134 13.9013 52.5055 13.8129 52.3832Z" fill="#7B8C2B"/>
<path d="M13.8129 52.3832C13.9039 52.3859 13.995 52.3886 14.086 52.3886C13.8363 52.8296 13.5579 53.1701 13.0559 52.6813C13.3082 52.583 13.5606 52.4842 13.8129 52.3832Z" fill="#93A542"/>
<path d="M14.3357 47.3436C14.3903 47.8165 14.315 48.2677 14.0939 48.6901L14.0782 48.68C13.7452 48.7145 13.6464 48.4674 13.5501 48.2204C13.3602 47.4366 13.4643 46.6396 13.4617 45.8479C13.4435 40.6885 13.4721 35.529 13.4487 30.3696C13.4461 29.5035 13.2744 28.6002 13.727 27.7793C14.5073 27.5588 14.1874 28.223 14.19 28.4727C14.2264 30.2607 14.2004 32.0513 14.216 33.842C14.2186 34.2697 14.1068 34.7161 14.3331 35.1252C14.3305 35.5795 14.3279 36.0338 14.3279 36.4908C14.0105 36.7591 14.0938 37.1364 14.0938 37.4791C14.0886 40.4414 14.086 43.401 14.0912 46.3633C14.0938 46.7034 14.0131 47.078 14.3357 47.3436Z" fill="#6D7D30"/>
<path d="M13.5762 22.1069C13.7062 22.2955 13.8363 22.4868 14.0522 22.803C14.0808 22.2185 14.1016 21.7775 14.1224 21.3365C14.1979 21.5091 14.2759 21.6818 14.3513 21.8545C14.3617 22.2026 14.2343 22.6675 14.406 22.8827C15.2332 23.9241 14.5907 24.7265 14.0964 25.5713C13.9352 25.5501 13.9143 25.388 13.8285 25.2924C13.8363 25.2047 13.8389 25.117 13.8415 25.0294C13.8909 24.6202 13.7323 24.4263 13.3161 24.5086C12.7802 24.5086 12.2366 24.575 11.7527 24.2456C11.6877 24.1181 11.7371 24.0065 11.7787 23.879C11.8386 23.693 12.5357 23.7647 11.9608 23.2759C11.7085 23.0607 12.1195 22.7392 12.4238 22.6781C12.8635 22.5851 13.2224 22.362 13.5762 22.1069Z" fill="#859730"/>
<path d="M13.8288 25.2904C13.9173 25.3834 14.0083 25.4764 14.0968 25.5694C14.6118 28.7415 14.2346 31.9403 14.3361 35.1231C13.8314 34.3659 14.1696 33.521 14.0968 32.7187C13.9485 31.0476 14.3491 29.3473 13.8496 27.6921C13.3528 27.1023 13.371 26.4992 13.8002 25.8829C13.8132 25.6863 13.821 25.4897 13.8288 25.2904Z" fill="#5B6D27"/>
<path d="M13.7716 48.3183C13.8731 48.4379 13.9745 48.5574 14.0759 48.677C13.9979 48.77 13.9199 48.8629 13.8418 48.9533C13.5713 49.0409 13.3008 49.1313 13.0329 49.2189C12.9418 49.3146 12.8456 49.3199 12.7415 49.2429C12.6687 48.8762 12.9522 48.7381 13.1603 48.5494C13.3424 48.4166 13.5297 48.2917 13.7716 48.3183Z" fill="#727F36"/>
<path d="M13.7716 48.3183C13.6181 48.4432 13.4646 48.5681 13.3111 48.6956C12.8923 48.6585 12.7258 48.1112 12.268 48.1563C11.9533 47.7552 12.5307 47.6542 12.5255 47.3566C13.2721 44.7211 12.8195 42.0219 12.9235 39.3518C13.0119 37.067 12.9443 34.7769 12.9391 32.4921C12.9443 31.9554 12.8091 31.4081 13.0458 30.8874C13.0458 30.3561 13.0458 29.8247 13.0458 29.2934C13.2357 28.2307 13.2851 27.1706 13.0458 26.1079C12.7648 25.7466 12.5333 25.3879 13.0562 25.0346C13.5322 25.109 13.5478 25.6084 13.8027 25.8874C13.8183 26.4905 13.8339 27.0936 13.8521 27.6966C13.8469 33.8231 13.8443 39.9496 13.8339 46.0761C13.8313 46.82 13.7924 47.5691 13.7716 48.3183Z" fill="#F4ECC4"/>
<path d="M13.0453 30.8851C13.295 31.2996 13.3366 31.7565 13.2976 32.2268C13.0193 34.0812 13.2482 35.9462 13.1753 37.8007C13.2586 38.1939 12.3325 37.8883 12.6993 38.5605C12.8632 38.8607 12.6317 39.2805 12.2337 39.3735C11.8539 39.4638 11.6744 39.1184 11.5964 38.8421C11.3857 38.1009 10.6652 37.8113 10.2958 37.2188C9.98365 36.1668 10.2802 35.3538 11.2114 34.7879C11.5522 34.5249 12.2493 35.1226 12.3455 34.3681C12.4184 33.8049 12.0984 33.3931 11.5158 33.2443C11.2244 33.1699 10.9747 33.0079 10.8342 32.7103C10.7952 32.5828 10.7822 32.4526 10.7874 32.3198C11.3103 31.5467 10.764 30.375 11.7004 29.756C11.7239 30.2794 11.7499 30.8028 11.7863 31.6476C12.0074 30.6088 12.5146 30.7124 13.0453 30.8851Z" fill="#F7EBBE"/>
<path d="M4.72191 33.0131C4.03259 32.5853 4.97162 31.8786 4.46178 31.419C4.41756 30.6113 4.13924 29.8834 3.72044 29.2059C3.1976 28.3637 3.33026 27.5348 3.79848 26.7298C3.86871 26.6076 4.07681 26.496 4.21467 26.5067C4.41236 26.5199 4.5008 26.7723 4.40196 26.9025C3.92594 27.5428 4.15744 28.1353 4.45658 28.7357C4.74011 29.4982 4.81295 30.3297 5.15891 31.0736C5.26816 31.4881 5.48666 31.8521 5.64534 32.2453C5.66875 32.3754 5.66614 32.503 5.64013 32.6331C5.43464 33.0131 5.20573 33.3345 4.72191 33.0131Z" fill="#F6F0CB"/>
<path d="M6.47534 29.0631C6.93316 28.9568 7.38577 28.7974 7.81757 29.164C8.5303 29.7698 9.24563 30.6757 10.0234 29.2331C10.1482 29.342 10.2757 29.4509 10.4006 29.5599C10.6399 30.1975 9.98177 30.4711 9.85951 30.9626C9.68783 31.2629 9.63321 31.6614 9.22482 31.765C8.62394 31.5923 8.48087 30.8909 7.96063 30.6279C7.77334 30.4951 7.59906 30.3489 7.44299 30.1789C7.19328 29.7352 6.54037 29.6661 6.47534 29.0631Z" fill="#F4ECC4"/>
<path d="M6.47534 29.0631C6.8239 29.4403 7.53645 29.3919 7.61449 30.0854C6.9954 30.3749 6.42054 29.6868 5.80145 30.0003C5.56994 30.1544 5.50231 30.4174 5.39306 30.6539C5.29682 30.8532 5.18496 31.0391 4.98467 31.1427C4.66212 30.3749 4.14188 29.6523 4.45923 28.7357C5.13034 28.8446 5.80163 28.9541 6.47534 29.0631Z" fill="#7F933A"/>
<path d="M9.64846 30.8604C9.70309 30.3078 10.2467 30.0501 10.3976 29.556C10.9022 29.1495 11.3392 29.1787 11.6982 29.7579C11.3887 30.6479 11.6696 31.7026 10.9699 32.4837C10.5043 31.963 10.5043 31.963 10.806 30.4433C10.4418 30.6452 10.3872 31.1181 10.0569 31.2961C9.48719 31.6017 9.5106 31.2722 9.64846 30.8604Z" fill="#7F9140"/>
<path d="M7.83814 24.7619C9.57835 24.8575 11.3368 24.552 13.0562 25.0355C11.7191 25.0382 10.3795 25.0515 9.0425 25.0382C8.62891 25.0329 8.1659 25.1843 7.83814 24.7619Z" fill="#F4ECC4"/>
<path d="M13.0458 26.1079C13.4594 27.1706 13.4594 28.2307 13.0458 29.2934C13.0458 28.2307 13.0458 27.168 13.0458 26.1079Z" fill="#F7EBBE"/>
<path d="M11.493 26.0579C12.0289 26.2598 12.5049 26.5148 12.4893 27.2959C11.8338 27.0781 11.7349 26.4962 11.493 26.0579Z" fill="#F7EBBE"/>
<path d="M7.98094 26.1236C7.96794 26.3361 7.78065 26.3521 7.61417 26.3521C7.50492 26.3521 7.39827 26.2803 7.28902 26.2405C7.42168 26.1422 7.54394 26.0226 7.68961 25.9562C7.80146 25.9031 7.93672 25.9297 7.98094 26.1236Z" fill="#FDFADF"/>
<path d="M10.4027 37.221C11.3834 37.5132 11.8568 38.2757 12.0961 39.3066C12.9727 38.6317 11.7788 37.7311 12.4733 37.128C12.9675 37.2715 12.6398 37.8932 13.0403 38.0605C13.264 38.9293 13.3369 39.7715 12.7022 40.5233C12.4135 40.8661 12.5019 41.254 12.6502 41.6392C13.3759 43.5175 12.6658 45.2922 12.2626 47.0882C11.9999 46.8996 11.8516 46.6392 11.8958 46.3124C11.927 46.0893 11.8802 45.6961 11.784 45.7439C10.8007 46.2301 10.6784 44.466 9.7056 44.9442C9.5053 45.0425 9.12552 44.9362 9.10992 44.644C9.10211 44.5138 9.46889 44.3597 9.66398 44.2189C9.94231 43.4856 10.8085 43.1774 10.9594 42.3512C11.4588 41.1052 10.949 40.1009 10.2284 39.1472C10.088 38.6211 10.0906 38.0924 10.1946 37.5637C10.2362 37.4309 10.3065 37.3166 10.4027 37.221Z" fill="#F9EFC9"/>
<path d="M12.263 47.0887C12.2318 45.8108 12.2266 44.5329 12.6818 43.3108C12.8769 42.7848 12.6532 42.4049 12.3983 41.9692C12.0003 41.2864 11.5945 40.6169 12.6766 40.0244C13.3971 39.6285 12.9393 38.7279 13.0434 38.0611C12.9627 36.4165 13.2307 34.7614 12.8821 33.1222C12.8067 32.7661 13.0096 32.4553 13.2983 32.2295C13.3009 36.7221 13.2957 41.2146 13.3139 45.7072C13.3165 46.4166 13.2307 47.025 12.5283 47.3571C12.4373 47.2667 12.3514 47.1791 12.263 47.0887Z" fill="#F0E5B3"/>
<path d="M11.2092 42.5723C10.9777 43.3986 10.4001 43.8868 9.66398 44.2189C9.57814 44.1897 9.48984 44.161 9.404 44.1318C7.87449 43.0983 7.64038 41.9958 8.70427 40.8587C9.55227 40.6913 9.03723 39.8704 9.34677 39.4426C9.97886 38.8635 10.356 39.4028 10.7696 39.78C10.9283 39.9899 10.1323 39.9501 10.6526 40.2928C10.8945 40.4522 11.0428 40.7604 11.1546 41.0553C11.3211 41.5548 11.1078 42.0702 11.2092 42.5723Z" fill="#969E3D"/>
<path d="M10.6763 39.9359C10.3069 39.5905 9.96358 39.1176 9.40432 39.6542C9.16501 40.074 9.26646 40.6479 8.82945 40.9773C7.89302 41.7584 8.26759 42.5634 8.79304 43.3631C8.97252 43.6367 9.40952 43.7005 9.40432 44.1335C8.2962 44.2956 8.0725 43.4321 7.8566 42.659C7.73174 42.218 7.80718 41.7185 7.79417 41.2483C7.84619 41.1792 7.87481 41.1022 7.87481 41.0172C8.00747 40.4858 7.95284 39.8907 8.39245 39.4656C8.89968 38.9608 9.52137 38.5464 9.45895 37.667C9.44074 37.4172 9.61762 37.1702 9.95838 37.2313C10.2627 37.5129 10.1301 37.9247 10.2549 38.2594C10.385 38.5251 10.1951 38.8678 10.4474 39.1043C11.5269 40.0714 11.8286 41.2191 11.2096 42.5767C10.7543 42.1038 11.0665 41.498 10.9468 40.9667C10.7778 40.6425 10.5931 40.3264 10.6763 39.9359Z" fill="#818636"/>
<path d="M12.2675 48.1534C13.0947 47.3696 13.282 47.8744 13.3106 48.6927C13.1051 48.8495 12.9022 49.0035 12.6967 49.1603C12.5953 49.3516 12.4106 49.4047 12.2233 49.4472C11.9684 49.4711 11.7134 49.4711 11.4611 49.418C11.11 49.2905 10.7016 49.2799 10.4467 48.9398C10.7848 48.0338 11.7967 48.7432 12.2675 48.1534Z" fill="#F0E5B3"/>
<path d="M10.4472 48.9437C10.7984 48.9889 11.1938 48.8481 11.4825 49.1828C10.9987 49.7168 10.3978 49.5202 9.81772 49.4671C9.75269 49.4591 9.68766 49.4512 9.62263 49.4432C8.42347 49.3661 7.22432 49.2864 6.02256 49.2094C7.47403 48.6621 8.97753 49.0872 10.4472 48.9437Z" fill="#FDFADF"/>
<path d="M5.90543 46.9794C5.88462 47.3061 5.69733 47.3221 5.53085 47.3327C5.30455 47.346 5.07824 47.2928 5.04443 47.0219C5.01061 46.7615 5.14067 46.5835 5.419 46.6871C5.60369 46.7535 5.76496 46.8917 5.90543 46.9794Z" fill="#F6EEC7"/>
<path d="M4.20402 36.7281C3.80863 36.0612 4.33668 35.2748 3.9439 34.6053C4.27425 33.5639 5.11705 33.1787 6.04047 32.8971C6.80523 32.9794 7.33588 33.6489 8.09283 33.7472C8.26451 33.7791 8.43359 33.8243 8.60006 33.8801C8.88359 33.9837 9.17233 34.0687 9.43245 34.2334C9.53129 34.3158 9.61453 34.4141 9.68477 34.523C9.91887 35.1367 10.2388 35.761 9.50268 36.2685C9.08649 36.1489 8.6859 35.9922 8.36856 35.6734C7.84831 35.5777 7.26044 35.8806 6.80523 35.4024C6.32921 35.1287 5.18728 35.8434 5.53584 34.3476C5.19248 35.3041 5.34595 36.3907 4.20402 36.7281Z" fill="#F2E9BA"/>
<path d="M5.26021 40.9358C4.32637 40.6144 4.34718 39.8944 4.57349 39.1266C4.95847 37.8062 5.94953 37.0623 7.08625 36.4751C7.65852 35.9916 8.10333 36.2573 8.51952 36.7222C8.64438 36.8923 8.73802 37.0782 8.80565 37.2775C8.88109 37.5511 8.87328 37.8221 8.78224 38.0905C8.66519 38.3747 8.50912 38.6431 8.32443 38.8848C7.98107 39.3312 7.76517 39.1452 7.62211 38.7068C7.64552 37.3731 7.64551 37.3731 6.52179 37.8965C6.21485 38.1409 5.93652 38.4119 5.68941 38.7201C5.4709 39.0044 5.32784 39.3232 5.255 39.6712C5.17437 40.006 5.34344 40.3115 5.37986 40.633C5.37206 40.7472 5.33044 40.8482 5.26021 40.9358Z" fill="#868A36"/>
<path d="M4.13147 43.8507C3.7725 42.4692 2.72422 41.433 3.23145 40.0329C4.8442 40.8592 5.09652 41.7518 4.13147 43.8507Z" fill="#F7E9BA"/>
<path d="M6.03307 32.9858C5.21109 33.3551 4.63882 34.0618 3.94429 34.6064C3.49689 35.2201 3.55411 35.9932 3.29399 36.777C3.29399 35.43 3.29399 34.192 3.29399 32.9539C3.82204 33.8944 4.27465 33.3684 4.72206 33.0124C5.13825 33.0044 5.39837 32.7786 5.54404 32.396C5.90301 32.4226 6.1111 32.5793 6.03307 32.9858Z" fill="#F8EEC3"/>
<path d="M7.84083 38.5452C7.92407 38.6142 7.78101 39.1323 8.08014 38.7205C8.25183 38.4841 8.33246 38.1865 8.6316 38.059C9.09982 38.5956 8.629 39.0393 8.49374 39.5175C8.28564 39.9293 7.96829 40.2269 7.56511 40.4315C7.31019 40.6227 7.05527 40.814 6.80035 41.008C6.28271 41.178 5.76247 41.1408 5.24223 41.0319L5.26304 40.9362C5.26304 40.8698 5.25784 40.8008 5.25263 40.7343C5.50235 40.6041 6.57665 39.3316 6.61827 39.1137C6.87579 38.8533 7.18273 38.6674 7.50528 38.5027C7.61973 38.4655 7.73158 38.4841 7.84083 38.5452Z" fill="#707529"/>
<path d="M4.20402 36.7281C5.26531 36.1356 4.77628 34.8652 5.39016 33.9779C5.79075 34.5331 6.08468 35.208 6.80002 35.4046C5.98064 35.7313 5.14825 35.9864 4.70864 36.9269C4.46413 37.4556 4.27685 37.0708 4.20402 36.7281Z" fill="#F8EEC3"/>
<path d="M8.38986 36.9239C8.06211 36.4457 7.56528 36.4829 7.08405 36.4749C6.56641 36.3527 6.60803 36.1667 7.04504 35.9834C7.46643 35.8054 8.00228 36.1216 8.36645 35.6726C8.78264 35.7071 9.31849 35.4919 9.40953 36.1986C9.3471 36.8495 8.99854 37.0753 8.38986 36.9239Z" fill="#F6F3DD"/>
<path d="M7.56247 40.4335C7.81479 40.1705 8.0671 39.9074 8.32202 39.6444C8.39746 39.5249 8.47549 39.5302 8.55353 39.6391C8.32722 40.0987 8.10092 40.5557 7.87201 41.0153C7.82519 40.7895 7.82779 40.5371 7.56247 40.4335Z" fill="#CCCB9B"/>
<path d="M5.23704 41.0317C5.75728 41.0237 6.27752 41.0158 6.79516 41.0078C6.28273 41.3877 5.76248 41.3585 5.23704 41.0317Z" fill="#F8EDBF"/>
<path d="M8.88118 52.665C8.79534 52.6677 8.70903 52.6678 8.62319 52.6678C7.84543 52.6652 7.06507 52.6732 6.28731 52.6572C6.04019 52.6519 5.66042 52.6147 5.74886 52.2879C5.81909 52.0249 6.03499 51.5679 6.4928 51.8416C6.9116 52.0913 7.30438 52.5244 7.46826 51.5919C7.48646 51.4882 8.2096 51.3767 8.52175 51.4936C9.01597 51.6795 8.86298 52.2346 8.88118 52.665Z" fill="#74872D"/>
<path d="M7.58322 50.8051C7.9682 50.3694 8.47544 50.574 8.93065 50.5527C9.4639 50.5262 9.87749 50.4066 9.9139 49.7637C10.2443 49.5883 10.533 49.7052 10.6683 50.0081C10.8685 50.4597 10.3587 50.5501 10.1844 50.8131L10.187 50.8104C9.31822 50.8078 8.44942 50.8051 7.58322 50.8051Z" fill="#7B8C2B"/>
<path d="M1.82892 33.7701C1.83673 33.6877 1.85494 33.6053 1.88615 33.5283C1.96159 33.5363 2.037 33.5468 2.11244 33.5548C2.02399 34.1712 2.34164 34.8456 1.86562 35.4088C1.85521 34.8642 1.84193 34.3173 1.82892 33.7701Z" fill="#879537"/>
<path d="M10.1815 50.8111C10.2777 50.4126 10.7486 49.9131 9.91356 49.7644C9.83032 49.7564 9.74756 49.7509 9.66432 49.7456C9.65132 49.6446 9.63783 49.5438 9.62483 49.4429L9.63523 49.4535C10.4962 49.1719 11.4093 49.5492 12.2677 49.2357C12.4133 49.2118 12.5564 49.1878 12.6995 49.1639C12.8113 49.1825 12.9232 49.2038 13.035 49.2224C12.7437 49.5917 12.3483 49.7059 11.9061 49.759C11.5419 49.8015 11.0711 49.597 11.2688 50.4524C11.4093 51.0582 10.5639 50.673 10.1815 50.8111Z" fill="#697C29"/>
<path d="M13.576 22.1076C13.6125 22.7346 13.3055 22.9631 12.715 22.9259C12.4965 22.9126 12.1168 22.8489 12.1896 23.2421C12.213 23.3749 12.5902 23.444 12.8191 23.5476C12.6552 24.0896 11.841 23.5928 11.7526 24.241C10.5326 24.2357 9.31266 24.2304 8.09529 24.2251C8.36321 23.5981 9.55977 23.3722 8.87045 22.3361C9.22681 22.1076 9.55717 21.7808 9.94735 21.6666C11.1361 21.3186 11.4508 20.0805 12.291 19.3898C13.2405 20.038 13.5604 20.9971 13.576 22.1076Z" fill="#748529"/>
<path d="M4.42519 19.9665C4.51103 19.8788 4.59687 19.7938 4.68271 19.7061C4.78936 20.3756 5.3044 20.7024 5.77262 21.0691C6.03794 21.5101 6.29806 21.0265 6.56078 21.0664C7.27091 20.7742 6.88073 20.3756 6.5998 20.0223C6.91455 19.7965 7.23969 19.9506 7.32553 20.0914C7.63768 20.5935 6.55818 22.7853 6.01453 23.0696C5.3148 23.4362 4.40441 23.4359 3.94399 24.2435C3.85035 24.2409 3.75936 24.2415 3.66572 24.2388C3.66572 23.6171 3.66572 22.9981 3.66312 22.3764C3.68133 22.2941 3.68905 22.2115 3.68384 22.1264C3.86853 21.3852 3.60321 20.4819 4.42519 19.9665Z" fill="#768729"/>
<path d="M13.316 24.5058C13.4539 24.28 13.6386 24.2561 13.8233 24.4208C14.0314 24.6041 14.1354 24.8168 13.8415 25.0294C13.6672 24.854 13.4903 24.6785 13.316 24.5058Z" fill="#9AAB44"/>
<path d="M4.42503 19.9657C4.17792 20.6856 3.93081 21.4056 3.68629 22.1256C2.58078 21.2861 2.57818 20.8796 3.67329 19.7319C3.923 19.8116 4.17532 19.8886 4.42503 19.9657Z" fill="#ACB271"/>
<path d="M7.85402 11.4991C8.0283 11.6213 8.20518 10.617 8.37686 11.5017C8.30662 11.7408 8.49651 12.1872 8.05171 12.1367C7.78378 12.1075 7.86702 11.7355 7.85402 11.4991Z" fill="#8C9B3D"/>
<path d="M10.1791 12.288C10.2702 12.2801 10.3612 12.2694 10.4497 12.2615C10.6291 12.4527 10.7618 12.66 10.5745 12.9177C10.5407 12.9655 10.408 12.9974 10.3638 12.9682C10.1141 12.8008 10.1973 12.5271 10.1791 12.288Z" fill="#99A55D"/>
<path d="M6.55821 21.0653C6.22266 21.323 5.8871 21.5834 5.50733 21.8756C5.29663 21.4479 5.72843 21.3257 5.77265 21.068C6.03537 21.1397 6.29549 20.7385 6.55821 21.0653Z" fill="#8F9E3E"/>
<path d="M3.60864 18.3429C3.71789 18.1835 3.82714 18.0215 3.93639 17.8621C4.24594 18.0401 4.30792 18.3858 4.45619 18.6727C4.17006 18.5638 3.88957 18.4545 3.60864 18.3429Z" fill="#C9CF93"/>
<path d="M8.4392 9.98477C8.55625 10.0778 8.68891 10.1309 8.72273 10.2212C8.79556 10.4178 8.6629 10.556 8.48342 10.556C8.40018 10.556 8.26491 10.4098 8.25191 10.3142C8.2389 10.2265 8.35596 10.1176 8.4392 9.98477Z" fill="#99A940"/>
<path d="M10.9751 32.7472C11.4329 33.2201 12.5514 32.6276 12.5904 33.8311C12.6034 34.2429 12.9832 34.7212 12.6295 35.0612C12.2263 35.4465 11.8335 34.9895 11.4563 34.8088C11.3366 34.761 11.2014 34.7424 11.0999 34.8195C9.97882 35.659 9.94761 35.6484 9.67448 34.2323C9.90599 33.5522 10.1089 32.8481 10.9751 32.7472Z" fill="#F5EDC7"/>
<path d="M10.975 32.7483C10.616 33.2823 9.90845 33.5693 9.88764 34.3424C9.74978 34.4248 9.63793 34.3955 9.55469 34.2547C9.33359 33.4072 8.96942 32.5863 9.1437 31.6724C9.55989 31.5634 9.34659 31.0427 9.64833 30.8594C9.72637 30.971 9.65353 31.4598 9.95267 31.0427C10.296 30.5645 10.4677 29.9455 11.157 29.7303C11.3625 30.692 10.5379 31.5501 10.9697 32.4827C10.9749 32.573 10.975 32.6607 10.975 32.7483Z" fill="#8DA54C"/>
<path d="M9.68005 34.3125C9.75028 34.3231 9.81791 34.3337 9.88815 34.3417C10.0312 34.6419 9.91676 35.051 10.2601 35.2689C11.1081 34.4294 11.1081 34.4294 11.4593 34.8093C10.8064 35.4761 10.2029 36.1642 10.4058 37.2216L10.4188 37.2269C10.3486 37.3385 10.2549 37.3624 10.1405 37.304C10.0728 37.1924 10.0286 37.0728 10.0208 36.94C10.0182 36.8656 10.078 36.7939 10.0312 36.7168C9.9896 36.7912 9.93237 36.8576 9.86474 36.9134C9.50577 37.1047 9.17802 37.3863 8.72801 37.2854C8.61616 37.1658 8.5043 37.0436 8.39245 36.924C8.78263 36.7593 9.1442 36.5468 9.41213 36.2014C10.0156 35.5797 9.45115 34.9899 9.3601 34.3895C9.44334 34.27 9.54999 34.246 9.68005 34.3125Z" fill="#85844D"/>
<path d="M6.03262 32.9863C5.86874 32.7897 5.70747 32.5931 5.54359 32.3965C5.53839 32.3328 5.52278 32.2743 5.49937 32.2159C5.59302 32.1309 5.70486 32.0857 5.82972 32.0751C6.68292 32.5188 7.46849 33.0687 8.20723 33.6904C8.22804 33.8206 8.19422 33.9348 8.10578 34.0304C7.23698 34.057 6.68813 33.4088 6.03262 32.9863Z" fill="#7C8B39"/>
<path d="M5.76731 32.2133C5.67886 32.2133 5.59042 32.2133 5.50198 32.2159C5.02856 32.0087 5.10172 31.528 4.98467 31.1427C4.99247 30.9275 5.03376 30.7281 5.24706 30.6219C5.67106 30.9354 5.84794 31.3844 5.92338 31.8918C5.90777 32.0167 5.85835 32.1256 5.76731 32.2133Z" fill="#7A893A"/>
<path d="M5.50752 29.8259C6.29829 29.1564 6.92778 29.8684 7.6145 30.0862C7.77838 30.1712 7.93965 30.2536 8.10353 30.3386C8.2492 30.6574 8.59776 30.8992 8.4781 31.3243C8.21018 31.6909 7.8252 31.5076 7.48704 31.5501C6.68067 31.2472 6.17604 30.5485 5.55695 30.0039C5.53874 29.9428 5.52313 29.8843 5.50752 29.8259Z" fill="#99AF4A"/>
<path d="M8.37397 31.4197C8.28293 31.0584 8.19448 30.6971 8.10344 30.3358C8.72773 30.5563 8.84478 31.1886 9.14652 31.6721C9.54971 32.5037 9.72687 33.3852 9.68005 34.3125C9.5734 34.3364 9.46675 34.3629 9.3601 34.3895L9.35202 34.382C8.81617 33.4654 8.63929 32.4266 8.37397 31.4197Z" fill="#7C913B"/>
<path d="M5.79071 31.9234C5.56701 31.5062 5.28607 31.1157 5.24445 30.6189C5.24966 30.3266 5.19503 30.0105 5.50458 29.8219L5.49938 29.8165C5.90256 30.409 6.72194 30.5976 6.93784 31.3681C6.75316 31.9818 6.27193 31.9499 5.79071 31.9234Z" fill="#98AC47"/>
<path d="M10.2207 37.3167C10.2832 37.2769 10.3486 37.2482 10.4188 37.2269C10.4292 37.8513 10.4392 38.4751 10.4496 39.0994C10.1141 38.932 10.2623 38.5734 10.1557 38.3183C10.0464 37.9756 9.945 37.6329 10.2207 37.3167Z" fill="#F7EBBE"/>
<path d="M8.82893 40.976C8.87836 40.4712 8.81853 39.916 9.4038 39.653C9.49224 40.2215 9.90063 40.9362 8.82893 40.976Z" fill="#AEB461"/>
<path d="M10.6758 39.9376C10.9047 40.2431 11.0087 40.5805 10.9463 40.9631C10.6186 40.6868 10.0749 40.4689 10.6758 39.9376Z" fill="#A4AD4B"/>
<path d="M8.72524 37.285C9.09981 37.0698 9.39115 36.6633 9.89839 36.7616C10.0753 36.9184 10.0883 37.0671 9.88538 37.2106C9.73451 38.1856 9.77613 39.2749 8.55356 39.6362L8.43651 39.6336L8.32205 39.6415C8.32465 39.0943 8.79027 38.6399 8.629 38.0581C8.66021 37.8031 8.69403 37.5454 8.72524 37.285Z" fill="#DBD7B4"/>
<path d="M9.88538 37.2106C9.89058 37.0618 9.89579 36.9104 9.89839 36.7616C10.4264 36.6899 10.0358 37.1757 10.2205 37.3139C10.1971 37.6487 10.1737 37.9807 10.1529 38.3155C9.8121 38.0126 9.99723 37.5746 9.88538 37.2106Z" fill="#6D6E32"/>
<path d="M12.2654 49.2322C11.4226 49.7317 10.5122 49.4075 9.63298 49.4501C10.213 49.0967 10.8764 49.3571 11.4824 49.1791C11.7426 49.1977 12.0053 49.2163 12.2654 49.2322Z" fill="#727F36"/>
<path d="M8.37397 31.4197C9.23497 32.2221 9.22976 33.3246 9.35202 34.382C9.0997 34.2917 8.84512 34.2011 8.5928 34.1134C8.5902 33.2898 8.00753 32.7558 7.63555 32.1155C7.54451 31.8897 7.43526 31.6665 7.58613 31.4221C7.84625 30.9917 8.10865 31.3506 8.37397 31.4197Z" fill="#8BA445"/>
<path d="M7.83826 31.9589C8.1348 32.6603 9.30794 33.0402 8.59001 34.1109C8.42874 34.0843 8.27006 34.0577 8.10879 34.0312C8.10879 33.9594 8.10879 33.8877 8.10619 33.8186C8.31688 33.1013 7.34403 32.8728 7.45849 32.1927C7.52352 32.0094 7.61196 31.8659 7.83826 31.9589Z" fill="#6B8130"/>
<path d="M6.80519 39.122C6.24072 40.0147 7.01068 39.7809 7.45289 39.8181C6.88842 40.6762 6.08985 40.7586 5.24966 40.7373C5.1222 40.384 4.64098 40.1183 4.99475 39.6507C6.1835 39.9722 5.05458 38.9653 5.44736 38.8298C5.81413 38.503 6.03003 37.969 6.6179 37.9424C6.91444 38.0434 7.01589 38.2772 7.0393 38.5668C7.03149 38.782 6.94305 38.9626 6.80519 39.122Z" fill="#959839"/>
<path d="M6.80518 38.6011C6.79737 38.3726 6.75055 38.1654 6.52685 38.0538C6.428 37.9662 6.26933 37.9343 6.26933 37.7563C6.6439 37.2063 7.23178 36.93 7.77803 37.1798C8.43614 37.4826 7.86647 38.0777 7.84306 38.5453C7.75982 38.5586 7.67659 38.5639 7.59335 38.5613C7.32282 38.4816 7.0731 38.7605 6.80518 38.6011Z" fill="#A3A744"/>
<path d="M5.50233 38.8526C5.97314 39.2697 5.55695 39.8754 5.91332 40.3377C5.28643 40.4121 5.32284 39.8037 4.99249 39.647C5.02891 39.2325 5.17718 38.8738 5.47632 38.5843C5.56996 38.6347 5.60637 38.6932 5.58296 38.7543C5.55955 38.8207 5.53094 38.8526 5.50233 38.8526Z" fill="#A3A841"/>
<path d="M5.50233 38.8526C5.49452 38.7623 5.48672 38.6746 5.47632 38.5843C5.73904 38.3079 6.00184 38.031 6.26457 37.7547C6.35041 37.853 6.43624 37.9513 6.52208 38.0523C6.16312 38.2914 5.98615 38.7755 5.50233 38.8526Z" fill="#E0E09E"/>
<path d="M6.80518 38.6011C7.0679 38.5905 7.28113 37.5807 7.59068 38.561C7.45021 38.925 7.19016 39.114 6.80519 39.122C6.80519 38.9493 6.80518 38.7738 6.80518 38.6011Z" fill="#868A36"/>
<path d="M7.56471 32.2321C7.81963 32.5616 8.09015 32.8777 8.32166 33.2258C8.50114 33.4941 8.59999 33.7863 8.10316 33.8182C7.24736 33.4011 6.4748 32.8538 5.76467 32.2162C5.77247 32.1206 5.78028 32.0249 5.79068 31.9266C5.97017 31.4298 6.55804 31.7858 6.79995 31.4218C7.30719 31.3342 7.22135 31.7167 7.14852 31.9585C6.94302 32.6439 7.48927 32.0515 7.56471 32.2321Z" fill="#8BA145"/>
<path d="M7.56471 32.2321C7.15372 32.264 7.63757 32.9466 7.20576 32.8244C6.98726 32.7633 6.52945 32.4976 6.74795 32.0513C6.8572 31.8254 7.13291 31.6689 6.79995 31.4218C6.56064 30.7231 5.64764 30.5953 5.49937 29.8196C6.37858 30.1012 6.83639 30.9593 7.58294 31.4216C7.66878 31.6023 7.75202 31.7803 7.83786 31.9609C7.74681 32.0486 7.65575 32.1418 7.56471 32.2321Z" fill="#7F933A"/>
</svg>
