<svg width="34" height="62" viewBox="0 0 34 62" fill="none" xmlns="http://www.w3.org/2000/svg">
<path d="M5.64829 5.19844C5.66242 3.79619 5.68008 2.39393 5.69421 0.991682C6.66201 0.28879 7.79229 0.154569 8.88019 0.394753C10.7381 0.811544 12.603 0.631406 14.4645 0.691452C15.5382 0.606681 16.5873 0.850397 17.6504 0.913975C20.2748 1.20008 22.931 0.878654 25.5447 1.38728C26.1099 1.49678 26.728 1.31664 27.2472 1.69811C27.7417 2.96261 27.6287 4.25183 27.3956 5.54459C26.5514 6.37817 25.52 6.22276 24.6052 5.86248C22.5036 5.03596 20.4444 4.77812 18.3004 5.66115C17.767 5.88014 17.1383 5.75299 16.5555 5.8095C14.6693 5.83422 12.7796 5.79184 10.8935 5.76005C10.6886 5.76005 10.4873 5.73886 10.286 5.70353C8.79188 5.08188 7.15651 5.73179 5.64829 5.19844Z" fill="#FDFAF1"/>
<path d="M27.1839 5.63658C27.1874 4.36502 27.1945 3.09345 27.198 1.82189C27.2333 1.65588 27.3322 1.60643 27.4912 1.67001C27.5936 1.88194 27.8232 2.11506 27.7843 2.29519C26.9225 6.43131 30.4264 8.14086 32.4679 10.6239C33.185 11.4964 33.5876 12.2805 33.5841 13.4249C33.5452 22.9899 33.5629 32.5549 33.5523 42.1234C33.5523 42.6886 33.7254 43.3102 33.2309 43.7906C32.5174 43.0665 32.7399 42.1411 32.7328 41.2863C32.6799 32.5549 32.7929 23.8235 32.6657 15.0991C32.2878 13.1141 32.2878 13.1176 30.497 14.0148C28.8864 14.8236 27.2828 15.6396 25.658 16.4166C25.0364 16.7133 24.4112 17.0983 23.6836 16.6886C23.4928 16.4767 23.461 16.233 23.5352 15.9645C23.6235 15.8162 23.7436 15.6961 23.8955 15.6148C26.3927 14.5799 28.5932 12.9657 31.0622 11.8743C31.3836 11.733 31.6838 11.5034 31.4436 11.0584C30.1297 9.77623 28.9252 8.37398 27.2439 7.5298C26.926 7.26842 26.8307 6.89049 26.7212 6.51961C26.6894 6.3748 26.6859 6.22645 26.7141 6.0781C26.8059 5.86617 27.0355 5.79553 27.1839 5.63658Z" fill="#E6DDD1"/>
<path d="M15.1888 60.0274C10.7277 59.8932 6.3726 58.9607 1.98923 58.2296C-0.228939 57.8587 0.488082 56.0926 0.357393 54.7328C0.0854197 54.2347 0.205512 53.6943 0.205512 53.1751C0.198448 41.1765 0.198448 29.1778 0.209044 17.1792C0.209044 16.6247 0.0324379 16.0172 0.470421 15.4661C1.42763 16.0949 1.2051 17.0485 1.20863 17.8786C1.23689 24.2329 1.21923 30.5872 1.2263 36.9379C1.2263 37.7009 1.16625 38.4673 1.37111 39.2197C1.43822 39.5482 1.44529 39.8767 1.40997 40.2051C1.04616 43.0591 1.19804 45.9236 1.31813 48.7847C1.35345 48.9789 1.36052 49.1767 1.34639 49.3745C1.14859 50.5119 1.09914 51.6457 1.44529 52.7689C1.54772 53.2316 1.56185 53.7014 1.57598 54.1712C1.66075 56.9651 1.66428 56.9615 4.50764 57.4313C7.69008 57.9576 10.8796 58.438 14.0868 58.7806C14.7791 58.8547 15.5137 58.883 15.9482 59.5824C15.9764 60.2181 15.6691 60.2747 15.1888 60.0274Z" fill="#E8DDCF"/>
<path d="M15.1888 60.0274C15.4819 60.0133 15.7536 59.957 15.9126 59.6673C16.8062 58.8761 17.7987 59.3989 18.7559 59.4413C20.0981 59.5013 21.4297 59.6815 22.7613 59.798C23.1499 59.798 23.4466 59.572 23.7503 59.3671C23.9164 59.2647 24.093 59.1799 24.2766 59.1093C26.4136 57.4527 28.5222 55.7643 30.5956 54.023C31.7082 53.087 32.012 51.9885 32.0084 50.611C31.9802 42.3811 31.9873 34.1513 31.9978 25.9214C31.9978 25.1055 31.8884 24.2613 32.3546 23.5161C32.5241 23.2476 32.7714 23.0957 33.0186 23.4737C33.0575 29.9692 33.0186 36.4613 33.0434 42.9533C33.0469 43.5821 32.8597 44.239 33.2235 44.8395C33.227 46.715 33.0398 48.6153 33.2765 50.4626C33.5838 52.8574 32.4005 54.2844 30.7086 55.5983C28.8649 57.0288 27.0493 58.5017 25.2798 60.0241C24.5733 60.6351 23.7751 61.1084 22.9238 61.0272C20.3383 60.7835 17.7672 60.3736 15.1888 60.0274Z" fill="#E8DFD2"/>
<path d="M1.06721 39.5445C0.509137 39.0147 0.735193 38.3295 0.735193 37.7078C0.721064 31.0145 0.724596 24.3211 0.724596 17.6242C0.724596 17.052 0.724596 16.4798 0.724596 15.904C0.600972 15.904 0.48088 15.904 0.357255 15.904C0.357255 28.8457 0.357255 41.7874 0.357255 54.7291C-0.15137 54.2523 0.0323 53.6306 0.0323 53.062C0.0217036 40.9574 0.0217036 28.8457 0.0111073 16.7376C0.0111073 16.0206 0.0534928 15.3283 0.442026 14.7031C1.13785 14.4382 1.79836 14.2545 1.86194 15.3636C1.47694 17.4652 1.65354 19.5845 1.64295 21.7003C1.61822 26.8112 1.64648 31.9258 1.62529 37.0403C1.62176 37.9056 1.7701 38.8275 1.06721 39.5445Z" fill="#F3ECE1"/>
<path d="M5.64829 5.19844C7.19183 4.77812 8.72824 4.89106 10.2612 5.26193C10.6427 5.92244 10.2117 6.07079 9.69251 6.12377C8.82008 6.21561 7.95118 6.13083 7.08581 6.00368C6.91273 5.97895 6.73613 5.98955 6.56305 6.00721C6.66195 6.19795 6.90214 6.0496 7.02576 6.20148C7.14938 6.31804 7.21649 6.45579 7.23062 6.6218C7.04342 7.64965 5.75066 8.31722 6.34406 9.63117C6.50654 9.98791 5.92021 10.0762 5.58819 10.0797C4.94181 10.0868 4.29896 10.0586 3.93515 10.7473C3.53249 11.429 3.24992 12.1708 2.75542 12.7924C2.43753 13.1492 2.18322 13.5518 1.87946 13.9192C1.61455 14.1346 1.34611 14.3254 0.992895 14.0958C0.957573 13.9298 0.96817 13.7673 1.02822 13.6048C2.30331 10.6625 4.18953 8.04886 5.64829 5.19844Z" fill="#5289B8"/>
<path d="M33.2238 44.8428C32.641 44.3236 32.8776 43.6348 32.8776 43.0167C32.86 36.4399 32.8635 29.8631 32.86 23.2898C32.4255 22.9048 32.3584 22.3785 32.3407 21.8522C32.2772 19.8707 32.2772 17.8856 32.3407 15.9041C32.3584 15.3778 32.4396 14.8551 32.867 14.4665C33.471 15.0493 33.2026 15.8017 33.2026 16.4728C33.2238 25.5786 33.2238 34.6844 33.2273 43.7937C33.2238 44.1434 33.2238 44.4931 33.2238 44.8428Z" fill="#E0D4C4"/>
<path d="M1.02466 13.6049C1.04585 13.778 1.07058 13.951 1.09177 14.1276C1.92182 14.2089 2.73068 13.8945 3.56073 13.9864C5.76477 13.7638 7.9229 14.767 10.1375 14.2053C10.413 14.1665 10.685 14.1842 10.9535 14.276C11.3844 14.7634 12.4511 14.5762 12.3734 15.6076C12.0025 15.929 11.5433 15.9502 11.0877 15.9961C10.1623 16.1268 9.25098 16.0244 8.35028 15.8089C7.50611 15.5546 6.64427 15.6535 5.78243 15.6818C4.46142 15.5299 3.03797 16.0986 1.84058 15.1202C1.37434 14.9789 0.908101 14.8411 0.44186 14.6998C0.501906 14.2654 0.674981 13.891 1.02466 13.6049Z" fill="#5C8DB5"/>
<path d="M14.5245 1.00217C12.5465 1.0163 10.565 1.1152 8.60111 0.769055C7.61564 0.595981 6.65844 0.875019 5.69417 0.995111C6.05445 0.285154 6.71495 -0.0503977 7.42844 0.00611625C10.512 0.242769 13.6167 0.143869 16.6791 0.652495C16.0256 1.15406 15.1991 0.613641 14.5245 1.00217Z" fill="#7B9FBD"/>
<path d="M27.4876 1.66946C27.3816 1.69772 27.2828 1.74772 27.198 1.82189C23.9944 1.58171 20.7907 1.34098 17.5906 1.10079C18.3747 0.556845 19.3249 1.14318 20.1302 0.726387C22.2212 0.546248 24.284 0.906525 26.3609 1.01249C26.8554 1.03721 27.2615 1.19263 27.4876 1.66946Z" fill="#789BBB"/>
<path d="M20.1264 0.726872C19.3564 1.36619 18.4136 0.83235 17.5906 1.10079C16.5698 1.069 15.5453 1.03396 14.5245 1.00217C15.1709 0.433503 15.9797 0.871689 16.6826 0.649166C17.8305 0.67389 18.9785 0.702147 20.1264 0.726872Z" fill="#578AB1"/>
<path d="M10.9643 14.467C10.7276 14.467 10.4945 14.467 10.2579 14.4705C10.0707 14.64 9.81635 14.6965 9.61502 14.6224C9.01456 14.3928 8.03969 15.0392 7.81717 14.0855C7.6123 13.2201 7.00478 12.1711 8.15625 11.4293C8.90859 10.299 9.92231 9.45487 11.0561 8.73785C11.3069 8.45881 11.3458 8.14092 11.3599 7.76652C11.3917 6.94353 11.4305 6.94706 12.4972 7.00711C12.091 6.19825 10.4875 6.71041 10.6181 5.30463C12.5891 5.30816 14.5635 5.31522 16.5344 5.31876C17.4457 5.61192 18.3535 5.48123 19.2612 5.28343C20.0101 5.12096 20.7483 5.07504 21.4441 5.4883C21.6666 5.70729 21.8114 5.98986 21.6066 6.2583C20.7765 7.33913 21.1686 7.65349 22.3342 8.18331C23.2243 8.58597 24.5453 9.084 24.5948 10.5145C24.404 10.6205 24.5206 10.3485 24.4923 10.5781C24.4747 10.7406 24.5559 10.7476 24.5912 10.571C24.7608 10.3838 24.9692 10.0483 24.8597 9.9529C23.5104 8.76964 24.6442 7.16252 24.1285 5.85211C24.4711 5.66137 24.8031 5.80266 25.1422 5.87683C25.7286 6.08523 26.4173 5.8733 26.9471 6.31128C27.4028 6.59738 27.1379 7.02124 27.1485 7.39211C27.258 8.05615 26.9012 8.61776 26.7352 9.22175C26.5021 9.73391 26.276 10.2461 26.1242 10.7865C25.7851 11.6307 25.6791 12.6055 24.8032 13.1424C23.8777 12.8846 23.4892 13.4956 23.0547 14.1491C22.6874 14.7036 22.7616 15.3994 22.366 15.9222C20.0807 16.1165 17.8095 15.9893 15.5455 15.6537C15.0404 15.2334 15.5631 14.4987 15.0545 13.9795C13.85 15.7844 12.3206 14.2374 10.9643 14.467Z" fill="#5289B8"/>
<path d="M8.50235 11.63C8.12794 12.0398 7.53101 12.4389 7.71821 13.0252C7.89129 13.5727 8.56592 12.7886 8.9262 13.2195C8.94386 13.827 8.21624 13.6257 7.87716 14.1979C8.76019 14.2968 9.509 14.3816 10.2578 14.4663C9.01097 15.1692 7.61225 14.9608 6.3972 14.6747C5.41174 14.4451 4.48632 14.4805 3.52912 14.4451C3.24655 14.4063 3.92825 13.9718 3.35604 14.0354C2.8015 14.099 2.2187 14.2579 1.77365 13.7317C1.79131 13.2336 2.02443 12.8875 2.48714 12.6967C3.06994 12.1069 3.73751 11.5594 3.55031 10.581C3.99536 9.1293 5.15389 9.74742 6.09344 9.71563C5.0338 8.25686 6.37954 7.58223 7.05771 6.6886C7.42151 6.73099 7.78532 6.56851 8.41051 6.7981C7.85243 6.46608 7.41798 6.71333 7.16367 6.37071C6.71862 6.37071 6.27357 6.37071 5.7049 6.37071C6.31243 5.26515 7.25904 5.73493 8.03964 5.66075C8.79198 5.59011 9.66441 6.20823 10.2578 5.26162C10.3779 5.27222 10.498 5.28635 10.6181 5.29694C11.0561 5.74905 11.4446 6.17997 12.2252 6.07048C12.7833 5.99277 12.7303 6.60383 12.7197 6.99943C12.6985 7.7553 12.3665 7.23608 12.1016 7.15484C11.8508 7.07713 11.4375 6.95704 11.7837 7.50099C12.2499 8.22507 11.7519 8.68778 11.3104 9.16109C9.92579 9.01274 9.26528 10.4644 8.03964 10.6481C7.92661 10.6658 7.82418 10.7717 7.88069 10.8318C7.9478 10.906 8.09968 10.7788 8.21624 10.8565C8.47762 11.0614 8.6401 11.291 8.50235 11.63Z" fill="#5D90BB"/>
<path d="M21.5924 5.93333C19.9641 5.26929 18.1557 6.07461 16.5344 5.31521C17.5834 5.30461 18.5654 5.05736 19.5826 4.77832C20.9354 4.40745 22.4119 4.24144 23.7859 5.09622C24.8066 5.732 26.0111 5.68608 27.1802 5.63663C27.0566 5.77438 26.933 5.91214 26.8129 6.04989C26.2477 6.22649 25.6791 6.21237 25.1104 6.06048C24.7537 6.04636 24.4004 6.03223 24.0437 6.0181C23.2066 6.62563 22.3871 6.62209 21.5924 5.93333Z" fill="#F6F8F7"/>
<path d="M32.8635 14.4665C32.86 17.4087 32.86 20.351 32.8565 23.2897C32.2595 23.876 32.5245 24.6249 32.5245 25.296C32.5033 33.5717 32.4644 41.851 32.5386 50.1268C32.5562 52.0377 32.3514 53.5741 30.5853 54.768C28.3318 56.2903 26.5092 58.4096 24.0403 59.667C23.5846 58.9288 23.5917 58.0847 23.5917 57.2758C23.5564 44.9381 23.5211 32.6004 23.5281 20.2627C23.5281 19.4538 23.7153 18.6061 23.2244 17.8573C22.8606 17.3451 21.8045 17.4652 21.9493 16.4833C22.5285 16.1018 23.0901 16.116 23.6341 16.5539C26.3468 16.063 28.5296 14.3782 30.9668 13.2691C32.8812 12.4002 32.8423 12.3154 32.8635 14.4665Z" fill="#F8F1E5"/>
<path d="M24.7111 13.0399C25.0891 12.2204 25.4635 11.401 25.8414 10.5815C26.3465 9.63491 27.1836 9.77267 27.9854 9.99166C29.1651 10.3166 30.3413 10.6592 31.5423 10.91C31.6306 10.9171 31.7189 10.9277 31.8072 10.9347C32.1674 11.1502 32.6902 11.5246 32.0721 11.7966C29.31 13.0152 26.9187 14.9684 23.9941 15.862C23.4749 14.7282 23.9517 13.8452 24.7111 13.0399Z" fill="#F4EDE0"/>
<path d="M26.4702 9.12232C26.5409 8.48301 26.7245 7.88961 27.1449 7.38452C27.7135 7.08075 28.0632 7.39864 28.4835 7.76245C29.6491 8.76204 30.8571 9.70865 31.8037 10.9308C29.8787 10.7577 28.0067 10.4327 26.4702 9.12232Z" fill="#F4EDE0"/>
<path d="M23.6341 16.5539C23.069 16.5857 22.5 16.6209 21.9349 16.6527C19.088 17.1154 16.2906 16.8823 13.539 16.0346C13.3589 15.8686 13.32 15.6778 13.4189 15.4553C14.143 15.0067 14.8565 14.9961 15.5523 15.5189C17.3078 15.0633 19.1057 15.9745 20.8788 15.3176C21.3203 15.1551 21.6841 15.9604 22.2704 15.8721C22.7614 15.6319 23.2736 14.8867 23.7115 15.9322C23.6868 16.137 23.6624 16.3456 23.6341 16.5539Z" fill="#5184AE"/>
<path d="M23.7115 15.9322C23.2488 15.4659 22.7437 16.0593 22.2704 15.8721C21.8289 14.6006 22.758 13.6932 23.2489 12.743C23.7011 11.8706 24.2733 12.6265 24.7148 13.0397C24.4746 13.9793 24.2343 14.9225 23.9941 15.862C23.8952 15.8762 23.8034 15.9004 23.7115 15.9322Z" fill="#5C8FBB"/>
<path d="M25.1105 6.0566C25.6792 6.05307 26.2443 6.04953 26.813 6.046C26.8483 6.13784 26.8907 6.22261 26.9401 6.30738C26.3256 6.28265 25.665 6.55109 25.1105 6.0566Z" fill="#598EBA"/>
<path d="M13.4438 15.865C16.2731 16.1264 19.1057 16.3913 21.9349 16.6527C22.281 17.1401 23.0477 16.7269 23.3444 17.3167C23.9943 20.0188 23.7117 22.7809 23.8 25.5113C23.966 30.6576 23.5386 35.8039 23.7965 40.9608C23.9095 43.2213 24.0261 45.5172 23.6128 47.7742C23.5563 47.8731 23.4185 48.025 23.3903 48.0003C22.1293 46.9654 21.1085 47.6329 20.1019 48.4453C19.1023 47.8413 19.4944 46.7499 19.2118 45.8987C19.0564 45.2947 18.7915 44.7578 18.3076 44.341C18.085 44.1255 17.9296 43.8677 17.8201 43.5816C17.5799 43.0341 17.1031 42.8787 16.5627 42.8328C15.6549 42.7869 14.7331 42.8151 13.8924 42.3842C12.8363 41.487 11.4729 41.7661 10.2684 41.4482C9.48785 41.2292 8.60129 41.208 8.17743 40.3285C7.66528 39.7457 6.90234 39.9011 6.29834 39.6751C5.23871 39.2759 6.03343 40.1978 5.75086 40.2685C5.51775 40.5475 4.95967 40.378 4.89609 40.7594C4.86077 40.9749 5.28816 41.3846 5.45417 41.3528C5.99811 41.2539 5.82857 40.6252 6.06169 40.2685C6.69747 39.23 7.38977 39.8128 8.07147 40.1943C7.91252 41.5718 7.18844 42.7233 6.59151 43.9277C6.25596 44.0584 5.92394 44.1044 5.46829 43.8006C5.97339 44.3022 6.56678 43.9984 6.96945 44.3127C7.5805 44.8072 7.60523 45.5667 7.83482 46.2307C8.23395 47.7813 9.40308 49.173 8.84501 50.9284C8.71432 51.483 8.44941 52.1046 9.12757 52.4684C9.77042 52.8146 10.4804 52.7969 11.1126 52.4154C12.5431 51.5571 14.0372 50.7907 15.3088 49.6886C16.047 49.9359 15.9093 50.5929 15.9976 51.1474C15.941 51.7938 16.3119 51.8786 16.8276 51.7761C17.5411 52.0764 18.1875 52.2494 18.3464 51.1545C18.4135 50.6882 18.5937 50.2538 19.0528 50.0101C20.501 49.9147 22.034 50.116 23.0865 48.7173C23.2455 48.5054 23.4645 48.8197 23.5916 49.0069C23.6411 49.2012 23.6658 49.3919 23.6658 49.5897C23.7082 52.5037 23.8177 55.4072 23.7188 58.3176C23.6941 59.024 23.5775 59.6987 23.3161 60.3486C20.8436 60.119 18.3747 59.8894 15.9022 59.6634C12.9317 58.8227 9.80927 59.0205 6.81403 58.2788C5.30229 57.9044 3.73402 57.7419 2.18342 57.5476C1.26507 57.4346 1.04961 56.9012 1.0602 56.103C1.07787 54.9374 1.06374 53.7682 1.0602 52.6026C0.798828 51.5395 0.80236 50.4798 1.05667 49.4167C1.05667 49.3036 1.05314 49.1871 1.05667 49.0741C0.791763 46.1283 0.784699 43.1825 1.0602 40.2367C1.0602 40.0071 1.0602 39.774 1.0602 39.5444C1.0708 32.028 1.06374 24.5117 1.09199 16.9953C1.09553 16.3136 0.696396 15.3847 1.8408 15.1233C3.2042 15.148 4.56407 15.1763 5.92747 15.201C6.75046 15.5719 7.66174 15.1303 8.48473 15.4836C9.27239 15.4341 10.0389 16.0346 10.8407 15.5613C11.6672 16.024 12.6314 15.2681 13.4438 15.865Z" fill="#FEFAF2"/>
<path d="M1.07076 40.2407C1.07076 43.1865 1.07076 46.1323 1.06723 49.078C0.505622 46.1323 0.509154 43.1865 1.07076 40.2407Z" fill="#F3ECE1"/>
<path d="M1.06733 49.4208C1.06733 50.4839 1.06733 51.5436 1.07086 52.6067C0.523379 51.5471 0.519847 50.4839 1.06733 49.4208Z" fill="#F3ECE1"/>
<path d="M23.3338 48.0184C23.6199 45.5 23.74 42.9781 23.4645 40.4456C23.3691 39.5767 23.3267 38.6936 23.3479 37.8177C23.4327 34.5116 23.634 31.2091 23.634 27.903C23.634 24.3709 23.4503 20.8423 23.3479 17.3102C24.4499 17.5292 24.019 18.4157 24.019 19.0197C24.0473 28.1714 23.9872 37.3232 24.0755 46.4714C24.1003 48.9085 23.9342 51.3422 24.2945 53.8041C24.5736 55.7043 24.1532 57.7071 24.0402 59.6639C23.9201 59.6639 23.8 59.6639 23.6799 59.6639C23.2949 56.824 23.6199 53.9701 23.4998 51.1232C23.4715 50.4344 23.6764 49.7245 23.3303 49.0604C23.3373 48.9439 23.3373 48.8273 23.3303 48.7107C23.1113 48.4812 23.1113 48.2516 23.3338 48.0184Z" fill="#E3D9CA"/>
<path d="M23.3301 49.0641C24.0118 50.0178 23.6339 51.1057 23.6586 52.1229C23.7222 54.6378 23.6798 57.1526 23.6798 59.6675C23.6657 59.9501 23.6162 60.2185 23.3231 60.3563C23.3266 56.591 23.3301 52.8293 23.3301 49.0641Z" fill="#FDF7EB"/>
<path d="M1.77729 13.7355C2.35303 13.7426 2.93936 13.6896 3.50097 13.7744C4.46877 13.9192 3.51863 14.2194 3.52923 14.4526C2.72037 14.3219 1.83381 14.7705 1.09206 14.1311C1.32165 13.9969 1.5477 13.8662 1.77729 13.7355Z" fill="#76A5C9"/>
<path d="M7.16711 6.37479C7.77816 6.44543 8.47399 6.08516 8.98968 6.57612C9.31464 6.88695 8.32211 7.63223 8.25147 7.35672C8.0572 6.57965 7.18123 7.34259 7.06114 6.68915C7.1 6.58672 7.13532 6.48075 7.16711 6.37479Z" fill="#ACC1D5"/>
<path d="M3.55031 10.581C4.06953 11.3828 3.72338 12.0716 2.48714 12.6967C2.84388 11.9938 3.1971 11.2874 3.55031 10.581Z" fill="#77A2C4"/>
<path d="M15.5559 15.5158C14.8494 15.5193 14.1395 15.5193 13.4331 15.5228C13.0798 15.7701 12.7302 15.7559 12.377 15.5228C12.0873 14.9259 10.9572 15.4559 10.9643 14.467C11.6848 14.1491 12.3911 13.9863 13.1893 14.2972C13.3483 14.3608 14.5421 15.4698 14.143 13.7638C14.03 13.2905 15.132 13.6119 15.6406 13.6826C16.1033 13.7462 16.3223 14.1276 15.8278 14.5444C15.517 14.8023 15.5735 15.1731 15.5559 15.5158Z" fill="#5D90BB"/>
<path d="M12.377 15.5228C12.7302 15.5228 13.0798 15.5228 13.4331 15.5228C13.4366 15.6359 13.4402 15.7488 13.4438 15.8618C12.5643 15.8759 11.6707 16.0134 10.8407 15.5613C11.3528 15.5507 11.8648 15.537 12.377 15.5228Z" fill="#6090B9"/>
<path d="M8.48115 15.4871C7.61931 15.4906 6.73982 15.6248 5.92389 15.2045C6.7822 15.2716 7.68642 14.8796 8.48115 15.4871Z" fill="#6090B9"/>
<path d="M21.5924 5.93333C22.4083 5.96159 23.2278 5.98585 24.0438 6.0141C25.114 6.96071 25.1105 6.96071 24.2769 8.13338C24.125 8.34884 24.0756 8.61021 24.3511 8.71264C26.1878 9.41907 25.1917 10.1749 24.4076 10.9379C24.3087 10.8637 24.2734 10.786 24.2981 10.7012C24.3263 10.6165 24.3546 10.5741 24.3864 10.5741C23.6022 9.81467 22.8746 8.22168 22.0552 8.43007C20.2114 8.90691 20.9991 7.24328 20.4622 6.75585C19.9818 6.32493 21.4758 6.62209 21.5924 5.93333Z" fill="#598EBA"/>
<path d="M26.4702 9.12232C28.2469 9.72631 30.0271 10.3303 31.8037 10.9308C30.6169 11.722 29.5961 10.7829 28.5258 10.5675C27.6075 10.3838 26.7386 9.97052 25.8414 10.578C25.8626 10.0129 26.0852 9.53205 26.4702 9.12232Z" fill="#E2DAD0"/>
<path d="M8.50235 11.63C8.38225 11.3899 8.25863 11.1535 8.13854 10.9133C7.98666 10.8286 7.79592 10.7791 7.77826 10.5566C8.739 9.97379 9.6962 9.38393 10.6605 8.81172C11.0525 8.5786 11.2927 8.6881 11.3174 9.16493C10.0494 9.61351 9.30414 10.6552 8.50235 11.63Z" fill="#759FC5"/>
<path d="M24.3864 10.5741C24.3934 10.6942 24.4006 10.8145 24.4076 10.9346C24.2381 11.2136 24.1039 11.5668 23.6906 11.5068C23.5988 11.4926 23.4469 11.2489 23.4752 11.1536C23.5988 10.712 23.9802 10.6094 24.3864 10.5741Z" fill="#81A4C1"/>
<path d="M14.6375 12.3721C14.8529 12.4251 15.0543 12.4745 14.9201 12.69C14.8459 12.8065 14.6728 12.909 14.5315 12.9231C14.3514 12.9408 14.203 12.7924 14.3019 12.6087C14.362 12.4886 14.5421 12.4321 14.6375 12.3721Z" fill="#5D90BB"/>
<path d="M7.77826 10.5566C7.89835 10.6767 8.01844 10.7932 8.13854 10.9133C7.77826 11.1394 7.41805 11.3652 6.96947 11.6478C6.9624 10.9308 7.44624 10.8074 7.77826 10.5566Z" fill="#9AB7D4"/>
<path d="M13.7935 31.064C13.9101 31.064 14.0266 31.064 14.1432 31.064C14.839 30.9298 15.5137 30.8733 15.9764 31.5055C15.7962 30.4282 15.556 29.2944 16.2589 28.2419C16.4108 27.3306 16.4391 26.1897 17.361 25.8436C18.3429 25.4797 21.868 27.3094 22.1399 28.0547C22.5037 29.0543 21.3593 29.9373 19.6745 29.962C19.4025 29.3721 19.8546 28.9942 20.0878 28.5527C18.1239 30.0892 18.1239 30.0892 17.4881 28.4679C17.0254 30.1916 17.1137 32 17.1985 33.812C17.1632 33.9816 17.0855 34.1228 16.9654 34.2429C14.9203 34.1017 12.8999 34.4019 10.876 34.6032C9.63974 34.7268 8.6119 34.3913 7.83483 33.3952C8.1174 32.0036 7.99024 30.5943 8.01497 29.192C8.05735 28.3125 7.8101 27.3836 8.44235 26.5994C9.22295 26.3416 9.22295 26.3416 9.82341 27.539C9.98236 27.6449 10.0636 27.7933 10.0742 27.9805C10.053 29.5028 9.8658 31.0322 10.1696 32.5475C10.3956 32.8442 10.6181 33.1445 11.0279 33.1939C11.7449 31.2406 11.0067 29.1779 11.6742 27.1999C11.6742 28.5739 11.6531 29.9443 11.6813 31.3183C11.7025 32.325 12.084 31.5303 12.3242 31.4243C12.7763 32.6429 13.3909 33.6354 15.1039 33.2963C14.1821 32.7453 12.8999 32.4733 13.7935 31.064Z" fill="#FCFCF9"/>
<path d="M18.0286 43.5111C18.1522 43.7301 18.2759 43.9491 18.3959 44.1681C18.2617 45.3725 17.9297 46.6017 18.8339 47.679C19.1942 48.6186 18.8516 49.5122 18.6326 50.4058C18.5019 50.9392 18.5973 51.7798 17.9085 51.8328C17.2092 51.8858 17.3222 50.978 17.0078 50.54C16.6511 49.6287 16.0259 49.2473 15.0263 49.4345C14.334 49.5652 13.6806 49.332 13.0624 49.0106C11.8933 48.3395 11.6708 47.3435 12.0664 46.1319C12.1582 45.9836 12.2818 45.867 12.4337 45.7787C12.6033 45.7505 12.7693 45.7681 12.9282 45.8317C13.9207 46.5558 14.6766 46.5735 15.2453 45.2666C15.6374 44.3694 16.4497 43.723 17.029 42.9283C17.5306 42.8329 17.8697 43.0201 18.0286 43.5111Z" fill="#FAF9F8"/>
<path d="M8.43878 26.5927C8.43878 27.4898 8.43878 28.387 8.43878 29.2841C7.96548 29.542 8.24805 30.5592 7.33676 30.3791C7.2096 29.3795 6.88818 30.3226 6.66212 30.312C6.26299 30.584 6.3301 31.4387 5.65194 31.2833C4.86074 31.0996 4.85721 30.2625 4.59583 29.655C3.75165 29.5985 4.14019 30.2413 4.08721 30.5946C3.97771 31.3328 4.23909 32.0992 3.92473 32.8233C3.27835 32.9893 2.87569 32.8127 2.90748 32.0745C2.97812 30.319 3.05936 28.5671 3.1406 26.8116C3.15826 26.4372 3.29248 26.0805 3.68101 25.9993C4.08367 25.9145 4.33092 26.2288 4.48634 26.5538C4.90666 27.4368 5.30226 28.334 5.7579 29.3371C6.22767 28.4717 6.61621 27.7583 7.00474 27.0448C7.47451 27.0624 7.58401 26.3313 8.12796 26.5079C8.23039 26.5326 8.33635 26.5573 8.43878 26.5927Z" fill="#5589B0"/>
<path d="M16.9546 33.9429C16.4424 31.9084 16.8804 29.8668 16.9193 27.8288C16.9263 27.5285 16.9934 27.2142 17.3643 27.1824C17.827 27.14 17.9506 27.472 17.9754 27.8535C18.0107 28.3727 18.0319 28.8919 18.0637 29.5595C18.9432 29.171 19.307 28.3868 19.9039 27.8782C20.2253 27.6062 20.5609 27.2742 20.953 27.6981C21.2885 28.0619 20.9318 28.3197 20.7022 28.574C20.3101 29.0014 19.7944 29.337 19.6708 29.9622C18.8125 31.0607 20.024 31.4668 20.4019 32.1521C20.9318 32.7737 22.0303 33.4519 21.0942 34.2466C20.349 34.8789 19.7026 33.8263 19.1374 33.2859C18.7242 32.8903 18.5264 32.3146 17.9612 31.7671C18.7489 33.4802 18.4593 33.9994 16.9546 33.9429Z" fill="#578AB2"/>
<path d="M10.5508 40.9755C10.7627 41.1521 10.9782 41.3287 11.1901 41.5053C12.3981 39.7534 12.9103 41.8832 13.7898 41.9715C13.2882 42.5649 12.6348 42.4166 11.9919 42.3495C11.8965 43.5433 12.7089 44.6277 12.4193 45.8463L12.3557 45.9134C10.7557 45.9876 10.1128 47.3863 9.09557 48.2658C7.77102 47.8878 7.47432 47.079 8.09244 45.8851C8.37148 45.3165 8.68584 44.7195 8.64345 44.0979C8.55162 42.5755 9.30749 41.6431 10.5508 40.9755Z" fill="#F7F5F2"/>
<path d="M10.5508 40.9755C10.5755 41.0885 10.6463 41.2863 10.618 41.3004C8.60472 42.3742 9.57958 44.7478 8.47403 46.2101C8.13495 46.5138 7.79233 46.5032 7.44618 46.2207C7.22366 45.6273 7.00467 45.0303 6.78214 44.437C6.53489 44.2921 6.15342 44.2286 6.41833 43.7941C6.70797 42.4696 7.05058 41.1768 8.17027 40.2655L8.14907 40.2902C8.9544 40.5198 9.75254 40.7494 10.5508 40.9755Z" fill="#35312C"/>
<path d="M15.1992 49.7911C15.4217 50.9108 14.3656 50.932 13.811 51.2746C12.5501 52.0552 11.3951 53.189 9.78795 53.1466C8.58703 53.1148 7.70047 52.6627 8.44928 51.1934C8.90845 51.1157 9.36057 51.1262 9.79502 51.317C10.0423 51.4265 10.2401 51.6419 10.5332 51.6455C10.8158 51.536 10.9218 51.2852 11.0348 51.0344C11.0772 50.8755 11.1266 50.7236 11.169 50.5682C11.2326 49.1765 11.7942 48.5089 13.2671 49.0706C13.864 49.3001 14.5175 49.2295 15.1462 49.3107C15.3087 49.4556 15.3263 49.6145 15.1992 49.7911Z" fill="#FEFDFA"/>
<path d="M23.3338 48.0184C23.3338 48.2516 23.3337 48.4848 23.3337 48.7179C22.3341 50.5193 21.3098 50.8619 19.0881 50.1343C18.3817 49.4632 19.1093 48.6261 18.8267 47.9091C18.7702 47.6406 18.7702 47.3722 18.8868 47.1179C19.2364 46.7258 19.4731 46.8671 19.5861 47.3051C19.6921 47.7219 19.5225 48.2835 20.1972 48.3647C20.508 47.4817 20.9071 46.9801 22.0515 46.8565C23.2489 46.7223 22.804 47.7818 23.3338 48.0184Z" fill="#FDF7EB"/>
<path d="M16.9546 33.9429C18.8301 34.0029 17.4844 32.2403 18.378 31.5621C18.8866 32.2191 19.3882 32.8938 19.9251 33.5401C20.2041 33.8792 20.5326 34.462 21.02 34.1159C21.5569 33.7344 20.9812 33.3105 20.794 32.9255C20.6668 32.6677 20.5361 32.4099 20.4054 32.152C20.8646 32.6288 22.0938 32.0955 22.009 32.9326C21.9136 33.9145 21.458 34.8682 20.2076 35.2921C18.1201 35.995 17.4596 35.889 16.9651 34.2466C16.9651 34.1406 16.9617 34.0418 16.9546 33.9429Z" fill="#FAFAF9"/>
<path d="M12.4265 45.8457C11.5965 44.7472 11.766 43.3838 11.547 42.0628C12.1969 41.7202 13.0234 42.1935 13.7934 41.9674C14.8248 42.1193 15.8562 42.2677 16.8876 42.4196C17.0183 42.4619 17.0818 42.5291 17.0712 42.6209C17.0607 42.7233 17.0395 42.7763 17.0077 42.7728C15.6019 43.8536 14.1325 44.8532 12.7197 45.927C12.6243 45.8881 12.5289 45.8598 12.4265 45.8457Z" fill="#3C3933"/>
<path d="M13.7935 31.064C13.4615 32.2402 14.1043 32.6043 15.1251 32.7138C15.5384 32.7597 16.2165 32.6926 16.0894 33.3849C15.9834 33.9571 15.383 33.8582 14.9202 33.8617C12.7162 33.8759 12.2429 33.4344 12.3206 31.4175C12.6102 29.8987 11.9603 28.2951 12.7233 26.8152C13.5074 28.0479 12.8151 29.4183 13.0941 30.4497C13.3025 29.4219 12.6915 28.0691 13.4332 26.8364C14.1114 28.1962 13.5215 29.6653 13.7935 31.064Z" fill="#719BBC"/>
<path d="M11.0241 33.1869C10.6391 33.6073 10.2541 33.4412 9.86914 33.1834C9.63249 31.4244 9.69253 29.6654 9.83029 27.9064C9.82675 27.7828 9.82322 27.6556 9.81969 27.532C9.93272 27.1152 9.81616 26.4759 10.5014 26.5395C11.1478 26.5995 11.0312 27.1894 11.0312 27.6344C11.0347 29.4853 11.0277 31.3361 11.0241 33.1869Z" fill="#5689B0"/>
<path d="M16.2625 28.2384C16.2625 29.4005 16.2625 30.5661 16.2625 32.0637C15.6303 31.1312 14.6801 31.7246 14.1468 31.0606C14.1468 29.902 14.1468 28.7399 14.1468 27.4719C14.8709 27.811 15.3265 28.7859 16.2625 28.2384Z" fill="#F9F6E9"/>
<path d="M9.90824 51.5753C9.42081 51.4517 8.83448 51.7131 8.45301 51.1974C9.057 49.3501 7.61942 47.9125 7.44988 46.2242C7.7925 46.2206 8.13511 46.2171 8.47773 46.2136C7.57704 47.252 8.24108 47.7006 9.17003 48.0467C10.9785 48.7214 11.254 50.0353 9.90824 51.5753Z" fill="#D1CBC0"/>
<path d="M19.1693 47.0155C19.1339 47.2203 19.1021 47.4217 19.0668 47.6265C18.8549 47.8844 18.6182 47.8526 18.3675 47.6901C17.5268 46.5104 17.1208 45.3337 18.3959 44.1681C19.4556 44.0656 19.1445 45.0551 19.4766 45.5285C19.7521 46.1007 19.6178 46.5916 19.1693 47.0155Z" fill="#3C3835"/>
<path d="M18.3711 47.69C18.6042 47.6688 18.8373 47.6476 19.0705 47.6264C19.0775 48.4635 19.081 49.2972 19.0881 50.1343C18.9786 50.5122 18.8479 50.8901 18.7667 51.2751C18.4311 52.8398 17.9578 52.9882 16.6474 51.9215C16.3966 51.872 16.2412 51.7201 16.1671 51.48C16.1847 51.2362 16.3225 51.0632 16.5026 50.9148C16.7958 50.7029 17.0289 50.4168 17.3079 50.1872C17.8766 50.5016 17.5057 51.1444 17.9437 51.9038C18.3852 50.3285 18.7137 49.0605 18.3711 47.69Z" fill="#D0C9BE"/>
<path d="M7.50642 30.3575C8.12807 30.2727 7.23444 28.8669 8.43536 29.2873C8.48128 30.2091 8.5272 31.1275 8.57665 32.0494C8.60844 32.6569 8.57665 33.222 7.83137 33.3916C7.69009 33.2009 7.54527 33.0066 7.40398 32.8159C7.2521 31.9893 7.06137 31.1593 7.50642 30.3575Z" fill="#5386AC"/>
<path d="M13.4332 26.8364C13.4332 28.6095 13.4331 30.3826 13.4331 32.1557C13.2742 32.1628 13.1152 32.1698 12.9563 32.1734C12.4653 30.425 12.8503 28.5953 12.7232 26.8116C12.9704 26.5361 13.2036 26.628 13.4332 26.8364Z" fill="#477CA8"/>
<path d="M6.29109 40.6535C6.24164 40.9325 6.24164 41.2327 6.13215 41.487C5.95907 41.8968 5.83898 42.4019 5.23145 42.3913C5.4893 41.3775 3.9281 41.3493 4.13296 40.4839C4.34136 39.615 5.0937 40.1802 5.61292 40.1519C6.05444 40.0283 6.18866 40.3214 6.29109 40.6535Z" fill="#555252"/>
<path d="M19.1693 47.0155C19.2717 46.521 19.3741 46.0229 19.4766 45.5285C20.1017 46.3762 19.4025 47.5588 20.1937 48.3641C20.1054 48.5584 20.0665 48.8339 19.9146 48.9328C19.6674 49.0917 19.5332 48.8763 19.4661 48.6361C19.3248 48.1027 19.6249 47.4888 19.1693 47.0155Z" fill="#BAB4A9"/>
<path d="M6.29109 40.6535C6.06504 40.4875 5.83898 40.3214 5.61292 40.1519C5.94494 40.0283 4.88187 38.8733 6.14284 39.4349C6.81041 39.7316 7.86298 39.117 8.15615 40.2932L8.17734 40.2684C7.55215 40.4203 6.6655 39.2795 6.29109 40.6535Z" fill="#B2ABA2"/>
<path d="M3.92102 32.8267C3.94574 31.714 3.80799 30.5696 4.04464 29.5029C4.23891 28.6305 4.48987 29.2523 4.59583 29.655C3.76225 30.584 4.77226 31.9048 3.92102 32.8267Z" fill="#EFF1F2"/>
<path d="M7.50642 30.3575C7.4711 31.1769 7.43931 31.9964 7.40398 32.8159C6.63398 32.1377 7.5593 30.9546 6.6586 30.3153C6.82815 29.9197 6.82815 29.4181 7.37562 29.178C7.42507 29.5912 7.46756 29.9725 7.50642 30.3575Z" fill="#EFF1F2"/>
<path d="M6.42177 43.794C6.54186 44.0095 6.66549 44.2214 6.78558 44.4369C5.87429 44.5675 5.10076 44.4015 4.62039 43.4549C5.3692 43.0982 5.80012 43.9282 6.42177 43.794Z" fill="#DFC1AD"/>
<path d="M8.12434 26.5184C7.70402 26.6031 7.69342 27.5356 7.00112 27.0552C7.19186 26.4901 7.3508 25.8614 8.12434 26.5184Z" fill="#5386AC"/>
<path d="M16.2765 51.561C16.4001 51.6811 16.5202 51.7977 16.6438 51.9178C16.5096 52.2569 16.2906 52.497 15.895 52.3663C15.4888 52.2357 15.4747 51.9072 15.57 51.554C15.6619 51.4374 15.782 51.3668 15.9303 51.342C16.0751 51.3632 16.1952 51.4339 16.2765 51.561Z" fill="#ABA197"/>
<path d="M15.9233 51.5292C15.8067 51.5363 15.6866 51.5469 15.57 51.554C15.4535 50.9641 15.7537 50.2894 15.2027 49.7914C15.1886 49.6855 15.1674 49.583 15.1391 49.4771C15.4076 49.191 15.7043 49.2298 16.0081 49.4135C16.5202 50.1411 16.3401 50.8405 15.9233 51.5292Z" fill="#D2C9BE"/>
<path d="M6.54202 32.2439C6.12876 32.1804 5.71903 32.1168 5.04086 32.0144C5.76848 31.6965 6.1888 31.7071 6.54202 32.2439Z" fill="#EFF1F2"/>
<path d="M16.8736 42.7201C16.8948 42.6212 16.9018 42.5223 16.8877 42.4234C17.3116 42.7413 18.3394 42.4232 18.0286 43.5111C17.7213 43.285 17.4246 43.0239 17.0007 43.0839C16.87 42.9956 16.8241 42.8755 16.8736 42.7201Z" fill="#BCB7AE"/>
<path d="M9.83029 27.9064C9.84442 29.6654 9.85501 31.4244 9.86914 33.1834C9.33226 31.4279 9.39584 29.6689 9.83029 27.9064Z" fill="#FEFAF2"/>
<path d="M9.90824 51.5753C10.4416 50.2331 10.6745 48.9579 9.16627 48.0466C9.73848 46.5984 10.4096 45.2986 12.3593 45.9167C12.1792 46.9552 12.1403 47.9583 13.0905 48.7C11.2255 48.6365 11.5363 50.1129 11.3138 51.2114L11.2997 51.2149C11.1937 51.6176 10.4661 51.6246 10.6604 52.2216C10.1835 52.2639 9.9365 52.0486 9.90824 51.5753Z" fill="#F8F3E9"/>
<path d="M16.8736 42.7201C16.916 42.8402 16.9581 42.9603 17.0005 43.0803C16.8344 44.419 15.8596 45.3762 15.1779 46.3935C14.4538 47.4778 13.3624 47.0752 12.716 45.9272C13.6449 44.2671 15.2135 43.4336 16.8736 42.7201Z" fill="#332F29"/>
<path d="M11.3138 51.2114C11.3103 50.9217 11.342 50.6284 11.2926 50.3459C11.0277 48.8412 11.5469 48.2161 13.0905 48.7C13.8357 48.8095 14.6728 49.1838 15.3121 48.9719C16.6296 48.5268 16.944 49.2898 17.3042 50.1869C17.3219 50.6744 17.3184 51.1512 16.6508 51.1936C16.008 50.7768 16.506 49.8902 15.9302 49.4452C15.6653 49.4558 15.404 49.4699 15.1391 49.4805C14.7929 49.477 14.4256 49.5476 14.1041 49.4558C12.5041 49.0037 11.4657 49.3888 11.3138 51.2114Z" fill="#C0B9AE"/>
<path d="M8.09605 43.0383C7.63335 42.4025 7.30839 42.0387 7.75697 41.6007C7.85234 41.5053 8.04307 41.5124 8.19142 41.47C8.16316 41.9009 8.13844 42.3283 8.09605 43.0383Z" fill="#524E45"/>
<path d="M10.6605 52.2183C9.84104 51.2258 11.1161 51.5649 11.2998 51.2117C11.3175 51.6956 11.0702 52.0099 10.6605 52.2183Z" fill="#A29B94"/>
<path d="M9.27937 50.4733C9.17694 50.0035 9.07451 49.5337 8.88377 48.6578C9.6679 49.3924 9.5796 49.9399 9.27937 50.4733Z" fill="#FBF7EE"/>
<path d="M15.9302 49.4414C17.0958 49.6428 16.4318 50.5965 16.6508 51.1898C16.5272 51.3135 16.4001 51.4374 16.2765 51.561C16.1599 51.5504 16.0398 51.5398 15.9233 51.5292C15.9268 50.8334 15.9267 50.1373 15.9302 49.4414Z" fill="#F1EEE3"/>
</svg>
