<svg width="48" height="40" viewBox="0 0 48 40" fill="none" xmlns="http://www.w3.org/2000/svg">
<path d="M22.4896 39.6121C16.3675 40.1312 10.9604 38.6332 6.58111 34.2565C5.9881 33.3191 5.47647 32.3329 4.71142 31.5086C4.43804 31.2145 4.06359 30.8931 4.45559 30.4515C4.75175 30.1185 5.17658 30.0126 5.6057 30.1351C6.57441 30.4113 7.56171 30.6568 8.32692 31.3583C8.42316 31.5066 8.41657 31.6897 8.47808 31.8485C8.48348 31.8616 8.61142 31.7552 8.63017 31.6017C8.74602 31.3238 8.92434 31.1122 9.17577 30.9549C9.76231 30.8246 10.3076 30.5846 10.8353 30.302C11.0826 30.2769 11.2955 30.3388 11.4468 30.5451C11.3959 30.9996 11.6083 31.43 11.5701 31.8869C11.3964 32.2424 11.0859 32.493 10.8498 32.8013C10.0133 33.6139 10.566 33.8658 11.3437 34.0289C11.4953 34.3117 11.502 34.6312 11.5662 34.9385C11.8477 35.5937 12.3524 36.203 13.0223 35.6968C13.5703 35.2832 13.9297 34.5635 13.2001 33.7399C12.4375 32.8839 11.6524 31.8876 12.2834 30.5573C13.9086 30.1526 15.5677 30.5127 17.1975 30.2711C18.0934 30.2282 18.9607 29.917 19.8621 29.9446C20.9933 29.9045 22.08 29.5951 23.1776 29.3693C25.6107 28.8505 27.8906 27.827 30.2838 27.2018C30.8992 27.2553 31.0035 27.5653 30.6195 28.0073C30.2641 28.4146 29.7483 28.5081 29.3802 28.5715C30.0995 28.5361 30.79 28.1558 31.449 27.6043C32.006 27.137 32.725 26.7027 33.3353 27.445C33.9778 28.2277 33.4529 28.7163 32.6995 29.0765C32.4713 29.1858 31.9864 29.3165 32.2787 29.6565C33.8134 31.449 32.042 31.1197 31.1665 31.373C31.0509 31.4052 30.9313 31.4276 30.8164 31.4519C30.2543 31.3382 29.6352 31.6738 29.1146 31.2629C29.0089 31.0916 29.3464 30.7262 28.7667 30.731C27.1519 30.7439 25.7937 31.5028 24.3832 32.0876C24.3022 32.052 24.2058 32.0456 24.1103 32.0696C24.1548 32.1587 24.2774 32.2003 24.2686 32.3305C24.2163 32.4786 24.1386 32.6027 24.0234 32.7116C22.2868 33.3386 20.5276 33.8254 18.6733 33.7874C21.9428 33.7259 24.9417 32.4484 28.032 31.5822C28.7369 31.4453 29.4562 31.571 30.1632 31.4678C30.7074 31.6043 31.2308 31.3964 31.7574 31.3291C33.6407 31.0866 33.6433 31.074 32.924 33.043C32.124 32.9582 31.3074 32.7766 30.6201 33.4204C29.824 33.6485 28.977 33.7058 28.2352 34.1226C27.7613 34.337 27.2631 34.4732 26.6835 34.5162C27.2926 34.649 27.7183 34.2895 28.1978 34.1457C28.9987 33.6163 30.0245 33.8038 30.8329 33.302C31.3529 32.9344 31.9434 32.9558 32.5354 32.9997C32.6472 33.0534 32.8353 33.1025 32.8659 33.0439C34.0382 30.5162 36.5924 30.9834 38.6495 30.4046C39.4897 30.1698 40.1232 29.9357 39.562 28.9238C39.5168 28.6624 39.5338 28.4098 39.688 28.1775C40.8211 27.9525 41.3245 29.2222 42.3993 29.282C42.6708 29.2968 42.3709 29.9997 42.0933 30.302C41.2752 31.1876 40.3204 31.8456 39.0759 31.9707C38.0482 31.9682 37.3605 32.5353 36.8041 33.317C36.6658 33.512 36.7412 33.316 36.8007 33.4603C36.9006 33.703 36.9901 33.3516 37.1211 33.3284C37.8328 32.7436 38.1897 33.1836 38.493 33.7684C35.9759 36.1019 32.911 37.4373 29.6846 38.3902C27.5923 39.0065 25.4929 39.691 23.2682 39.6827C23.0299 39.4548 22.7716 39.4154 22.4896 39.6121Z" fill="#FDCB34"/>
<path d="M39.9532 28.9162C41.0181 30.3075 39.7693 30.6876 38.8858 30.7983C37.479 30.9749 36.1601 31.2228 34.9477 31.9946C34.5669 32.2358 34.2159 31.7628 33.7719 31.6042C33.5479 32.2451 34.632 33.9009 32.6854 33.0607C32.8369 32.5187 32.9871 31.9735 33.1709 31.3108C32.103 31.6279 31.1965 32.0051 30.2167 31.7872C30.2568 31.4676 30.4781 31.3035 30.7451 31.1744C31.2074 31.0837 31.6711 30.9963 32.1301 30.907C32.376 30.8594 32.5942 30.7542 32.6064 30.4806C32.6219 30.1865 32.3409 30.1488 32.1525 30.0231C31.8829 29.8425 31.1874 30.4474 31.3042 29.6128C31.366 29.1846 31.7324 29.0221 32.1166 28.7987C32.5162 28.565 33.7765 28.7058 33.1109 27.687C32.6412 26.9636 32.056 27.5806 31.6525 27.9847C30.7676 28.8786 29.7005 28.9038 28.4919 28.8223C29.1688 28.0869 30.3252 28.2974 30.7298 27.3558C30.9083 26.396 31.7578 26.1458 32.4601 25.7184C35.4642 23.8941 38.4272 22.0176 40.6395 19.2188C41.904 18.1186 42.5361 16.573 43.5042 15.265C44.2474 14.8515 44.5226 13.9747 45.2422 13.5325C45.5855 13.4371 45.9179 13.4575 46.2282 13.6328C46.7975 14.6451 45.5939 15.2867 45.6505 16.1918C44.6518 17.8615 43.4768 19.435 43.3203 21.4906C43.2651 22.2193 42.8337 22.9916 41.7874 22.8586C41.2313 22.4278 41.6996 22.0201 41.8317 21.6204C41.8614 21.5314 41.9273 21.4544 42.0247 21.4066C41.9195 21.3502 41.8548 21.3922 41.8253 21.5386C42.0191 21.9806 40.5302 22.356 41.7659 22.8253C42.0906 24.2108 40.4627 25.2343 41.0202 26.6543C42.3536 26.3468 41.0177 25.0939 41.7712 24.5726C42.3283 24.2855 42.7352 23.8992 42.6534 23.2078C43.2785 22.536 44.0281 22.0623 43.5562 20.8218C43.2067 19.9069 43.842 18.6439 44.6512 18.1917C45.5905 17.6667 45.4205 16.9886 45.5694 16.2981C45.8152 15.9283 45.673 15.185 46.2763 15.2089C46.9564 15.2395 46.8078 15.9875 47.0002 16.4453C47.2832 17.1229 46.6355 17.9767 47.4015 18.5474C48.0057 19.6067 47.4169 20.6319 47.1569 21.6022C45.7899 26.6808 42.9519 30.7847 38.4929 33.7493C37.9759 34.0389 37.7581 32.8089 37.1633 33.5066C36.6905 33.6668 36.6359 33.3824 36.8105 33.0956C37.2581 32.3627 37.9874 31.9817 38.7739 31.6923C40.1118 31.2064 41.589 30.9164 42.4796 28.9842C40.7235 30.3598 40.7596 28.116 39.6869 28.2509C39.7348 28.4997 39.081 29.026 39.9532 28.9162Z" fill="#FCC92C"/>
<path d="M45.367 13.646C44.8393 14.2509 44.7827 15.2602 43.7745 15.4568C43.4205 15.0808 43.7332 14.7026 43.7845 14.3247C44.2639 12.8728 44.9085 11.4524 44.6271 9.86882C44.6415 8.52011 44.3842 7.26034 43.4524 6.22081C42.7368 4.90043 41.4955 4.1994 40.2183 3.54385C39.83 3.43523 39.4616 3.28007 39.1203 3.06767C38.3935 2.59208 37.5972 2.27941 36.7287 2.14224C33.9153 1.42505 31.0664 1.17135 28.1614 1.57761C27.9983 1.59874 27.8332 1.60537 27.6667 1.60873C26.1971 1.64242 24.7475 1.80984 23.3358 2.24938C22.6137 2.42022 21.9255 2.71135 21.185 2.80918C20.9243 2.82067 20.6793 2.75661 20.4541 2.62686C20.3139 2.52347 20.2078 2.3984 20.1249 2.24456C20.07 2.08299 20.0673 1.91531 20.1067 1.74561C20.2305 1.61022 20.3754 1.55438 20.5575 1.59832C20.6468 1.53084 20.747 1.50875 20.8554 1.52548C22.2917 1.20243 23.664 0.61032 25.1486 0.489879C30.7392 -0.324369 36.2448 -0.359325 41.3944 2.25757C44.2972 3.73208 46.1538 6.05954 46.755 9.29155C46.6747 9.2671 46.5977 9.24127 46.5174 9.21682C46.3242 8.92806 46.1899 8.61128 46.1416 8.26669C46.5098 10.1368 46.6125 11.9783 45.367 13.646Z" fill="#FECE3D"/>
<path d="M8.27662 31.6437C7.07253 31.2036 6.02386 30.193 4.34696 30.6996C5.48877 31.7562 6.57527 32.6975 6.57642 34.2546C3.1111 30.9785 0.596504 27.1956 0.140783 22.3077C0.632593 21.9095 0.964136 22.2026 1.28321 22.5507C1.36943 22.7032 1.43365 22.8686 1.47648 23.0389C1.55395 25.2552 2.49003 26.8454 4.48961 28.032C6.12387 29.0047 7.86208 29.8886 9.28044 31.1996C9.09942 31.4046 8.9184 31.6096 8.73738 31.8146C8.48277 32.0115 8.31287 31.9971 8.27662 31.6437Z" fill="#FCC829"/>
<path d="M1.08398 16.9587C1.9095 14.4894 3.39189 12.4017 5.25606 10.6249C6.75524 9.19405 8.48273 7.99526 10.1088 6.69245C10.5648 6.03659 11.5263 6.20065 11.9877 5.55791C12.9102 5.02063 13.9856 4.7503 14.76 3.96712C14.8691 3.83394 15.0126 3.75568 15.1823 3.7318C15.5259 3.71303 15.8774 3.65649 16.1341 3.95743C16.1977 4.13073 16.1716 4.29493 16.0753 4.44969C15.8458 4.73604 15.5363 4.91341 15.2106 5.07056C14.5626 5.36435 13.8855 5.59719 13.346 6.08799C10.5097 8.05425 7.77959 10.1456 5.51104 12.7604C4.24382 13.854 3.56815 15.3791 2.58733 16.6847C2.11435 16.9486 1.73516 17.7339 1.08398 16.9587Z" fill="#FDD13D"/>
<path d="M1.08398 16.9587C1.75756 17.3334 1.88436 16.4755 2.35544 16.3966C2.4024 16.4348 2.4922 16.4822 2.48362 16.5087C2.04494 18.5808 1.79031 20.6922 1.13882 22.7215C0.862187 22.4479 0.54058 22.2926 0.139432 22.3044C-0.241585 20.4127 0.18701 18.6479 1.08398 16.9587Z" fill="#FDD344"/>
<path d="M45.6533 16.2175C45.2849 15.2758 46.19 14.5731 46.1777 13.6996C45.9526 13.447 46.0836 13.2626 46.3062 13.1019C47.0394 12.8536 47.2042 13.7371 47.7776 13.8117C47.774 14.5613 47.5271 15.3267 47.8652 16.0622C47.5292 16.4691 47.4715 16.8881 47.8183 17.313C47.6816 17.7299 47.545 18.1468 47.4063 18.5684C47.136 18.6798 46.6754 19.6751 46.6526 18.5489C46.6302 17.4993 46.5698 16.4807 46.4044 15.3019C46.0863 15.6861 45.8681 15.9525 45.6533 16.2175Z" fill="#FDD03D"/>
<path d="M47.7762 13.8084C46.8339 14.7145 47.0226 13.0025 46.3716 13.2322C45.5857 12.2055 46.2135 11.7014 47.1218 11.3004C47.3401 11.3755 47.4183 11.5274 47.3537 11.7497C47.4957 12.4355 47.6343 13.1226 47.7762 13.8084Z" fill="#FCC92C"/>
<path d="M15.2799 3.88342C15.1082 3.91196 14.9351 3.93721 14.7634 3.96574C16.5358 2.79066 18.4709 2.00124 20.5594 1.59367C20.4375 1.68611 20.3122 1.77993 20.1888 1.8691C18.8365 3.23945 17.0855 3.62307 15.2799 3.88342Z" fill="#FEDD5C"/>
<path d="M25.1505 0.485224C23.7605 0.996393 22.3508 1.43128 20.8574 1.52083C22.244 0.991882 23.6135 0.374065 25.1505 0.485224Z" fill="#FEDD5C"/>
<path d="M47.8169 17.3097C47.2444 17.2655 46.9687 16.8995 47.0241 16.3895C47.0795 15.8794 47.5497 16.0924 47.8639 16.0589C48.0656 16.4822 48.0372 16.8967 47.8169 17.3097Z" fill="#FDCA46"/>
<path d="M22.4896 39.6121C22.5455 39.2362 22.5071 38.688 23.0759 38.799C23.5163 38.8823 23.2234 39.3751 23.2682 39.6827C23.0087 39.6592 22.7491 39.6357 22.4896 39.6121Z" fill="#FDDA6E"/>
<path d="M47.3571 11.7483C47.2777 11.6314 47.203 11.5163 47.1236 11.3994C46.3349 10.8304 46.0111 10.1581 46.6446 9.26032L46.7604 9.28553C47.0466 10.0846 47.453 10.8533 47.3571 11.7483Z" fill="#FECE3D"/>
<path d="M11.9877 5.55791C11.6159 6.35174 10.7459 6.33413 10.1088 6.69245C10.5089 5.94835 11.2503 5.75805 11.9877 5.55791Z" fill="#FEDD5C"/>
<path d="M17.2104 30.634C15.5638 31.0246 13.9009 30.712 12.2484 30.8134C11.9226 31.1125 11.6124 31.2787 11.3907 30.7216C11.2394 30.6574 11.088 30.5931 10.9386 30.5242C7.7011 30.7298 5.45961 28.9369 3.33349 26.9123C3.16962 26.5808 3.50074 25.6503 2.5392 26.2918C1.66847 25.7796 1.67798 24.855 1.4479 24.0405C2.02028 23.0796 3.14137 22.38 2.73891 20.9575C2.648 20.642 3.29732 20.8157 3.61273 20.9275C3.89556 21.0834 4.13976 21.2782 4.29942 21.5615C4.43262 21.9133 4.47165 22.2924 4.55208 22.6583C4.57608 22.8019 4.57871 22.9504 4.56059 23.096C4.53413 23.1644 4.50767 23.2329 4.48121 23.3013C4.38808 23.4164 4.28287 23.5211 4.17766 23.6258C3.82335 24.9266 4.51894 25.4495 5.67916 25.6315C6.60194 25.9573 7.56381 26.198 8.34936 26.8067C9.04082 27.4618 10.2072 26.5593 10.821 27.4997C12.2113 28.6764 13.9165 28.5418 15.5795 28.5321C16.5918 28.5256 17.5889 28.2453 18.601 28.1814C20.0101 27.5933 21.5511 28.0174 22.9775 27.5565C23.2103 27.4299 23.4533 27.3375 23.7079 27.2825C24.417 27.2129 25.0728 26.8431 25.7996 26.8544C26.0873 26.8894 26.3279 27.009 26.5087 27.2299C26.593 27.4062 26.5763 27.5742 26.4619 27.7326C25.5967 28.3805 24.4758 28.332 23.5095 28.7914C23.3036 28.7841 23.5005 29.1864 23.4855 28.9509C23.477 28.8546 23.5325 28.8471 23.6026 28.8183C23.9063 28.6932 24.1852 28.7164 24.3516 28.997C24.5105 29.2691 24.2651 29.4124 24.0588 29.5089C23.7452 29.6573 23.4296 29.8294 23.061 29.7779C22.0441 30.2851 20.9628 30.4274 19.8453 30.3966C19.2402 29.7711 18.6581 29.3625 18.0246 30.4214C17.8925 30.6408 17.5223 30.7089 17.2104 30.634Z" fill="#FDEFBD"/>
<path d="M23.0596 29.7747C23.4113 29.5953 23.7662 29.4146 24.2693 29.1575C23.7592 28.9993 23.405 28.8881 22.937 28.7471C24.1395 28.0178 25.2908 27.6663 26.5153 27.5494C27.2827 26.6924 28.5042 26.8146 29.3964 26.2131C30.2425 25.6421 31.1028 25.0959 31.7299 24.2774C32.2088 23.0137 33.4779 22.7019 34.4574 22.0376C35.3647 21.5296 36.2181 20.9479 36.9828 20.2454C37.1989 20.1065 37.4352 20.0169 37.6817 19.9614C38.5556 19.9505 39.129 19.3997 39.691 18.8307C39.9064 18.6806 40.1421 18.5988 40.4049 18.6018C40.7556 18.6952 41.0631 18.8256 41.0489 19.265C39.6122 21.8901 36.9933 23.2374 34.7042 24.9207C33.4543 25.8384 32.0591 26.555 30.7291 27.3637C28.242 28.3958 25.7644 29.4509 23.0596 29.7747Z" fill="#FEF0B4"/>
<path d="M11.3907 30.7216C11.6771 30.7533 11.962 30.7817 12.2484 30.8134C12.6398 32.1522 13.2524 33.3079 14.2578 34.3555C14.7178 34.8373 13.8272 35.9638 13.3006 36.1922C12.3761 36.5922 11.3567 36.3446 11.2321 34.9994C11.6463 34.7636 11.2179 34.472 11.295 34.2139C10.8389 33.8647 10.1116 34.7243 9.77321 33.9123C9.43481 33.1002 10.4525 33.0877 10.6215 32.5692C10.9947 32.4232 11.3517 32.257 11.4857 31.8335C11.5062 31.4567 10.5575 31.1723 11.3907 30.7216Z" fill="#FCC526"/>
<path d="M1.53594 23.6666C1.82332 24.5918 2.0213 25.5652 2.90244 26.1691C3.22961 26.2146 3.38633 26.434 3.48646 26.715C5.52596 28.8137 8.13075 29.8585 10.9352 30.5256C10.448 30.9066 9.89193 31.1203 9.28044 31.1996C6.48135 30.3844 4.38623 28.4161 2.14268 26.7698C1.14598 26.037 0.994078 24.4077 1.2256 23.008C1.495 23.1502 1.61357 23.3622 1.53594 23.6666Z" fill="#FDD344"/>
<path d="M28.2697 31.818C24.9761 33.167 21.5996 34.0207 18.0151 33.7439C20.1427 33.5734 22.2187 33.2017 24.1917 32.343C25.3914 31.7299 26.5755 31.0695 28.0024 31.368C28.204 31.45 28.2902 31.6024 28.2697 31.818Z" fill="#FED344"/>
<path d="M28.142 31.4985C26.8252 31.78 25.5071 32.0582 24.1904 32.3397C24.1424 32.2329 24.0965 32.1213 24.0486 32.0145L24.0499 32.0178C25.7642 30.5405 27.8879 30.3793 30.0133 30.1561C30.0903 30.8264 29.5094 30.8662 29.1286 31.0883C28.915 31.4986 28.5751 31.6117 28.142 31.4985Z" fill="#FCC92C"/>
<path d="M28.7778 37.7241C27.4436 37.1764 25.901 37.9998 24.613 37.1569L24.611 37.1615C25.3659 36.6626 26.2898 36.6312 27.0427 36.7814C28.5766 37.0934 29.6008 35.1254 31.165 35.985C30.7645 37.0976 29.4521 36.9821 28.7778 37.7241Z" fill="#FED64F"/>
<path d="M21.1222 34.8235C20.3204 34.9619 20.7186 36.9617 19.2007 36.0063C18.9627 35.8549 18.5614 35.8284 18.7778 35.4439C19.2849 34.5521 20.0515 34.2901 21.1222 34.8235Z" fill="#FED344"/>
<path d="M38.7739 31.7114C38.6154 32.6438 36.9475 32.2719 37.1634 33.5258C37.3911 34.2492 36.9969 34.3348 36.4162 34.2517C35.9311 34.183 36.0488 33.8621 36.1821 33.6077C36.726 32.5588 37.2981 31.5214 38.7739 31.7114Z" fill="#FED44D"/>
<path d="M28.7778 37.7241C29.413 36.9253 30.3449 36.5338 31.1637 35.9817C31.8703 35.7827 32.5435 35.9198 33.5238 36.0723C31.7343 36.6943 30.2568 37.2108 28.7778 37.7241Z" fill="#FEDE6C"/>
<path d="M17.2104 30.634C18.1306 30.1668 18.3906 28.7131 19.891 29.0196C20.247 29.4101 19.0217 29.9609 19.8453 30.3966C18.9467 30.2526 18.1135 30.8836 17.2104 30.634Z" fill="#FEF0B4"/>
<path d="M24.613 37.1569C24.0713 37.2918 23.5262 37.428 22.9859 37.5662C23.8485 36.6277 24.7963 35.8959 26.2826 35.5331C25.8699 36.6162 24.7627 36.3356 24.6124 37.1648C24.611 37.1615 24.613 37.1569 24.613 37.1569Z" fill="#FDD452"/>
<path d="M27.5178 29.1775C26.5077 30.3647 25.1701 30.463 23.4624 30.6293C24.8273 29.3842 26.3327 29.7692 27.5178 29.1775Z" fill="#FCC92C"/>
<path d="M21.6129 38.1663C20.6724 39.1905 19.6138 39.17 18.4924 38.5232C19.5331 38.4053 20.5737 38.2874 21.6129 38.1663Z" fill="#FED759"/>
<path d="M22.4098 35.7318C23.1213 34.7674 24.1473 35.1543 25.064 34.9915C24.3835 35.9931 23.355 35.6571 22.4098 35.7318Z" fill="#FDD753"/>
<path d="M28.2261 34.4985C27.5339 34.799 26.7892 35.3321 26.0862 34.9426C25.5916 34.6706 25.9267 34.053 26.4348 34.0355C26.9509 34.0186 27.4629 34.1338 27.9533 33.8743C28.224 34.0006 28.3138 34.2092 28.2261 34.4985Z" fill="#FFD64F"/>
<path d="M24.7276 34.0136C23.8429 34.6428 22.8672 34.615 21.8826 34.5371C22.7798 34.0141 23.7099 33.7039 24.7276 34.0136Z" fill="#FED344"/>
<path d="M28.2261 34.4985C28.1363 34.29 28.0431 34.0828 27.952 33.871C28.8083 33.3341 29.8344 33.437 30.7485 33.1066C30.8936 33.1274 30.9634 33.183 30.9598 33.2689C30.9541 33.3595 30.9323 33.4107 30.8922 33.4272C30.1767 34.2206 29.0322 33.944 28.2261 34.4985Z" fill="#FEE07A"/>
<path d="M28.142 31.4985C28.4711 31.3591 28.8015 31.223 29.1305 31.0837C29.6404 31.4875 30.2338 30.7673 30.7431 31.1791C30.7077 31.5006 30.4817 31.6627 30.2147 31.7919C29.5679 31.5672 28.9184 32.1608 28.2717 31.8134C28.2265 31.7131 28.1819 31.6049 28.142 31.4985Z" fill="#FED54F"/>
<path d="M16.9356 38.6388C15.8567 38.2277 15.4114 37.7628 14.8558 37.1246C15.8748 37.1345 16.3434 37.5707 16.9356 38.6388Z" fill="#FED450"/>
<path d="M17.2127 35.5016C15.8342 35.7279 15.3677 35.3063 14.8991 34.3675C15.6877 34.7563 16.2485 35.0278 17.2127 35.5016Z" fill="#FED74F"/>
<path d="M12.6889 37.2C13.3591 36.7513 13.8572 36.5768 14.3765 37.1647C13.8746 37.7091 13.3829 37.8042 12.6889 37.2Z" fill="#FED450"/>
<path d="M30.8889 33.4286C30.8376 33.3231 30.7897 33.2162 30.7438 33.1047C31.3855 32.568 32.0294 32.2452 32.6834 33.0654C32.0848 33.1853 31.4875 33.3086 30.8889 33.4286Z" fill="#FDD75A"/>
<path d="M39.9532 28.9162C39.3231 29.0261 39.3798 29.9695 38.5448 29.9988C38.6203 29.1774 39.3108 28.8163 39.6823 28.2681C39.7715 28.4846 39.8606 28.7011 39.9532 28.9162Z" fill="#FDD44B"/>
<path d="M19.1019 32.2028C19.6526 32.2791 20.2065 32.354 20.8655 32.447C20.117 33.0086 19.5735 32.8833 19.1019 32.2028Z" fill="#FDDE69"/>
<path d="M24.0519 32.0131C23.6738 31.9387 23.1812 31.9843 23.2643 31.3899C23.2779 31.2807 23.5219 31.115 23.649 31.1202C24.3392 31.1467 23.9863 31.6833 24.0519 32.0131Z" fill="#FDD85F"/>
<path d="M15.1712 32.6019C15.2651 32.8395 15.2488 33.0841 15.0099 33.2055C14.7744 33.3255 14.5218 33.2147 14.4253 32.9897C14.3793 32.8782 14.4612 32.6412 14.5672 32.5476C14.755 32.3782 14.991 32.3539 15.1712 32.6019Z" fill="#FDE67E"/>
<path d="M11.295 34.2139C11.5559 34.563 12.3716 34.5531 12.2139 35.0515C12.0133 35.6828 11.584 34.8966 11.2354 34.998C11.128 34.7277 11.0814 34.463 11.295 34.2139Z" fill="#FDD54E"/>
<path d="M11.4843 31.8302C11.6473 32.5956 11.391 32.8738 10.6201 32.566C10.6977 32.0813 11.1199 31.988 11.4843 31.8302Z" fill="#FDD344"/>
<path d="M8.27662 31.6437C8.42865 31.7 8.58067 31.7563 8.73269 31.8127C8.78197 32.0839 8.83323 32.3505 8.88251 32.6218C8.77419 32.6242 8.64331 32.6666 8.55955 32.6244C8.122 32.4056 7.99294 32.0828 8.27662 31.6437Z" fill="#FDDD67"/>
<path d="M8.32392 34.962C8.07916 34.9554 7.8375 34.8899 7.80563 34.623C7.79315 34.5169 8.00278 34.2771 8.05498 34.2901C8.20963 34.3338 8.3599 34.4522 8.46941 34.5759C8.62597 34.757 8.52688 34.886 8.32392 34.962Z" fill="#FEE276"/>
<path d="M42.0775 24.596C41.3206 25.4027 41.912 25.4737 42.5875 25.5024C41.997 26.2865 41.4151 27.0633 40.7435 27.9538C40.0604 25.9448 40.9004 24.3826 41.7311 22.8166L41.7324 22.8199C42.7675 22.5086 43.0675 21.6446 43.1694 20.7548C43.3494 19.1729 44.3994 17.9501 44.8728 16.4929C44.9843 16.1478 45.3645 16.2367 45.6533 16.2175C45.7412 17.0944 47.2029 18.3875 44.7554 18.4826C44.1677 18.5059 43.5056 20.225 43.8145 20.5581C45.4413 22.3088 43.4448 22.6555 42.7998 23.5158C42.7115 23.9742 42.7458 24.5125 42.0775 24.596Z" fill="#FDD03D"/>
<path d="M34.3998 27.7738C34.0267 27.7779 33.2989 27.859 33.9517 27.264C35.3026 26.0323 37.0689 25.3163 38.3228 23.9251C38.7035 23.5035 39.3594 23.4751 39.8232 23.7291C40.5094 24.1063 39.9226 24.6434 39.7914 25.0926C39.5145 26.0315 38.7488 26.6462 38.1426 27.3639C37.379 27.3677 36.4729 28.6271 35.984 27.6392C35.5477 26.76 36.957 26.5517 37.5104 26.0091C37.8114 25.7163 38.1945 25.547 38.1912 25.5484C37.5412 26.0271 36.3684 26.5064 35.6279 27.5518C35.3008 28.0088 34.8786 28.1022 34.3998 27.7738Z" fill="#FED54E"/>
<path d="M34.3998 27.7738C36.217 26.9064 37.5606 25.3823 39.4771 24.2821C38.8517 25.9861 37.0354 26.2777 36.0528 27.4651C36.8623 27.8759 37.4659 26.8868 38.146 27.3625C37.158 28.414 36.1705 29.542 34.7802 29.9957C33.7612 30.3272 35.5325 30.9596 34.5551 31.013C34.1126 31.038 33.5535 30.8655 33.3577 30.409C33.1571 29.9315 33.5717 29.6303 33.9757 29.4831C35.0179 29.1037 34.7169 28.4488 34.3998 27.7738Z" fill="#FECE3B"/>
<path d="M41.0489 19.265C40.8482 19.0906 40.6442 18.9176 40.4449 18.7465C40.0158 17.1738 41.4116 16.2881 41.9053 15.0604C42.5211 14.4231 43.188 13.995 44.0763 14.5498C43.9746 14.8526 43.8762 15.154 43.7745 15.4568C42.9073 16.7539 42.5156 18.3808 41.0489 19.265Z" fill="#FDF0AD"/>
<path d="M46.6412 9.2617C46.3598 10.0759 47.0089 10.6755 47.1203 11.4008C46.7194 11.9534 46.0211 12.3907 46.3697 13.2369C46.3041 13.3905 46.2399 13.5474 46.171 13.7024C45.8926 13.8132 45.6166 13.854 45.3637 13.6474C45.7367 11.7098 46.3746 9.78968 45.9962 7.70509C46.213 8.22195 46.4278 8.74346 46.6412 9.2617Z" fill="#FCC02A"/>
<path d="M46.2618 19.2777C45.9693 20.3113 45.7703 21.0224 45.5562 21.782C44.9745 20.1993 44.9745 20.1993 46.2618 19.2777Z" fill="#FED553"/>
<path d="M41.7311 22.8166C41.3476 22.9093 41.0262 23.2758 40.4863 23.0455C40.7365 22.2787 41.4174 21.8371 41.8622 21.2395C41.9787 21.2759 42.0398 21.339 42.0395 21.4235C42.0392 21.5081 42.0287 21.5584 41.9987 21.5708C41.9108 21.983 41.8209 22.3998 41.7311 22.8166Z" fill="#FDD54A"/>
<path d="M42.0775 24.596C42.316 24.2369 42.5579 23.8763 42.7965 23.5172C43.0862 24.3532 42.9453 24.5608 42.0775 24.596Z" fill="#F2AF0E"/>
<path d="M42.0006 21.5662C41.9547 21.4546 41.9101 21.3464 41.8642 21.2349C41.9189 20.8747 42.1371 20.6275 42.4635 20.4816C42.4935 20.4692 42.6519 20.6073 42.6556 20.6825C42.6849 21.1423 42.3723 21.3785 42.0006 21.5662Z" fill="#FDD74F"/>
<path d="M44.0749 14.5466C43.3767 14.6615 42.5953 14.5844 42.1679 15.3474C41.2676 14.4791 41.7751 13.683 42.3833 12.9607C42.8344 12.4257 43.1647 11.9482 42.6532 11.3034C42.3349 10.5022 42.6856 9.4677 41.7958 8.87126C41.1645 8.5328 40.8654 7.99614 40.8277 7.29808C40.7962 6.64351 40.5924 6.0254 40.446 5.39514C40.3672 4.62577 39.4623 3.9358 40.2438 3.08448C41.6886 3.68251 42.9424 4.5088 43.7145 5.90949C44.3077 7.20742 44.6972 8.57006 45.0186 9.95691C45.3893 11.615 44.7027 13.0757 44.0749 14.5466Z" fill="#FEF1BA"/>
<path d="M5.14128 12.6019C7.32447 9.72304 10.2226 7.66994 13.2329 5.74709C13.7493 5.16223 14.6631 5.25772 15.1647 4.63679C15.4764 4.49306 15.7867 4.34606 16.1003 4.19769C17.3623 3.12926 18.8006 2.49844 20.464 2.42331C20.622 2.48481 20.7821 2.54165 20.9401 2.60315C20.7029 3.28783 20.1127 3.66521 19.6004 4.11792C19.297 4.30048 18.9482 4.36357 18.617 4.46931C16.8219 4.85958 15.2966 5.64897 14.2374 7.22855C13.8068 7.87013 13.0922 8.24886 12.4924 8.72611C10.389 9.72297 8.67529 11.1923 7.25328 13.0095C6.85644 13.4108 6.5989 13.866 6.69094 14.4496C6.70668 14.6964 6.68292 14.9325 6.5414 15.1481C5.89836 15.3592 5.6516 14.8739 5.3431 14.4946C5.21563 14.2325 5.11311 13.8604 5.30565 13.6928C5.87859 13.1883 5.23904 12.953 5.14128 12.6019Z" fill="#FEF1C0"/>
<path d="M40.2484 3.08639C39.7919 3.93046 41.0899 4.42785 40.6628 5.26748C40.2277 5.48122 39.9054 5.17276 39.5431 5.04193C38.7331 4.65816 37.8928 4.39044 36.9756 4.4383C36.2526 4.37935 35.6057 4.79924 34.8915 4.79033C34.2859 4.83645 34.7647 4.03692 34.261 3.99885C34.0813 3.70459 33.9049 3.40896 33.5759 3.24523C32.6415 2.72083 31.62 2.7618 30.5952 2.82329C29.6924 2.79234 28.7806 2.85332 27.9107 2.55175C27.4036 2.17364 28.335 1.66725 27.8152 1.28671C30.9217 0.640115 33.9595 0.954154 36.9613 1.79707C37.2764 2.49592 36.652 2.6764 36.3062 2.98378C37.3028 3.03369 38.3167 2.92681 39.3201 2.70916C39.6295 2.8349 39.939 2.96065 40.2484 3.08639Z" fill="#FEF3C7"/>
<path d="M27.8152 1.28671C28.3342 1.63689 27.9968 2.04055 27.8734 2.43282C27.2394 3.51882 25.7286 3.60403 25.1658 4.76812C24.8633 5.03848 24.5615 4.97865 24.2558 4.78615C23.9587 4.56709 23.6509 4.3601 23.2582 4.32617C23.1084 4.32265 22.964 4.3131 22.8155 4.31287C22.2887 4.34186 21.7638 4.48904 21.233 4.36621C20.9399 4.31813 20.6469 4.27004 20.3478 4.23592C20.0521 4.20042 19.7571 4.15699 19.5215 3.95477C19.7399 3.24332 20.2846 2.86932 20.9388 2.59987C21.7428 2.35309 22.483 1.87555 23.3665 1.92596C23.7947 2.78544 24.4217 2.89547 25.2422 2.42324C26.056 1.95375 26.8023 1.32027 27.8112 1.29602L27.8152 1.28671Z" fill="#FEF2CF"/>
<path d="M27.8159 1.29792C26.929 1.8934 26.0321 2.47385 25.1581 3.09091C24.5374 3.52689 24.0217 3.17534 23.4785 2.96555C22.78 2.70082 23.491 2.26602 23.3679 1.92924C24.7921 1.27356 26.2888 1.18264 27.8159 1.29792Z" fill="#FEF3C7"/>
<path d="M39.3201 2.70916C38.3205 4.00711 37.0648 3.20462 35.6956 3.27366C36.212 2.66965 36.5873 2.235 36.9613 1.79707C37.8177 1.92386 38.645 2.13169 39.3201 2.70916Z" fill="#FEF1BA"/>
<path d="M45.0267 9.95744C44.2679 8.71238 43.8022 7.37343 43.7226 5.91002C44.8146 7.04469 45.1627 8.42055 45.0267 9.95744Z" fill="#FCF7D1"/>
<path d="M15.2799 3.88342C16.9167 3.21307 18.5534 2.54272 20.1888 1.8691C20.2426 1.94285 20.2864 2.02072 20.3235 2.10135C18.9851 2.95573 17.5379 3.53651 15.9954 3.89561C15.7553 3.89092 15.52 3.88812 15.2799 3.88342Z" fill="#FCCA15"/>
<path d="M15.9954 3.89561C17.4359 3.29844 18.8797 2.69989 20.3202 2.10272C20.3648 2.21096 20.4127 2.31782 20.464 2.42331C19.0094 3.01477 17.5549 3.60623 16.1003 4.19769C16.0665 4.09654 16.0326 3.99539 15.9954 3.89561Z" fill="#FEDD5C"/>
<path d="M5.14128 12.6019C6.49946 12.9517 5.30533 13.7774 5.45753 14.3554C5.80149 15.2188 5.31978 15.9544 5.05486 16.7233C4.18744 18.1242 3.89043 19.6967 3.58676 21.2719C3.39087 21.4409 2.70402 20.7685 2.99004 21.3681C3.78945 23.053 3.12631 23.5755 1.53594 23.6666C1.43271 23.4444 1.32749 23.2269 1.22425 23.0047C1.21448 22.9051 1.18666 22.8092 1.14216 22.7201C1.0039 20.5173 1.52475 18.4268 2.35743 16.3919C3.20379 15.0727 3.81676 13.5848 5.14128 12.6019Z" fill="#FEEDB4"/>
<path d="M15.166 4.64006C14.7318 5.36755 13.9143 5.43956 13.2342 5.75037C13.6408 4.96522 14.4994 4.96453 15.166 4.64006Z" fill="#FEDD5C"/>
<path d="M8.35063 26.9519C7.29237 26.8469 6.3738 26.4081 5.5188 25.8203C5.21881 25.7175 4.98732 25.5252 4.81638 25.2618C4.47807 24.63 4.1578 23.9946 4.44887 23.2417L4.45618 23.2311C4.88688 22.9309 5.13689 23.2346 5.2445 23.5432C5.40289 24.0035 5.64653 23.7421 5.88302 23.6907C6.30904 23.7109 6.74095 23.8591 7.16489 23.5425C6.93094 23.5621 6.74746 23.6569 6.54347 23.645C5.71995 23.5507 5.16129 23.3128 6.07212 22.5386C6.5172 22.1596 7.06575 21.8991 7.52824 21.5245C9.24573 20.4909 11.3032 20.1691 12.9135 18.9226C14.9861 17.9078 17.0973 16.996 19.3023 16.3026C19.7568 16.2688 20.1444 16.3662 20.3416 16.8259C20.2868 18.5979 18.6056 19.0372 17.6256 20.0509C15.2256 22.2518 12.7557 24.3778 10.3141 26.5345C9.684 26.8055 9.08802 27.2352 8.35063 26.9519Z" fill="#F1896C"/>
<path d="M25.9149 27.0678C25.1974 27.2214 24.5691 27.7718 23.7706 27.5866C23.6614 27.5395 23.5896 27.4693 23.5618 27.3734C23.5293 27.2755 23.5224 27.2208 23.5424 27.2126C23.6026 27.065 23.689 26.9335 23.7982 26.8195C24.1141 25.9374 23.4927 25.3954 23.1307 24.6966C22.1091 25.5241 23.0113 27.0131 21.8332 27.6596C20.9922 27.5417 20.8833 26.9267 20.8885 26.257C20.8931 25.273 21.0448 24.3051 21.2287 23.3393C21.3387 22.7914 21.3785 22.2341 21.4183 21.6767C21.431 21.518 21.4598 21.3604 21.4946 21.208C21.7455 20.1301 22.0092 19.0548 22.1343 17.9559C22.1911 17.6294 22.2452 17.2963 22.6662 17.2189C22.9021 17.1946 23.1417 17.2455 23.3782 17.1941C23.8311 17.0996 24.3715 16.8003 24.6673 17.3384C24.9759 17.898 24.8386 18.484 24.3041 18.9113C24.1248 19.0542 23.8562 19.1034 23.8508 19.3934C23.8479 19.5097 23.8341 19.7226 23.8468 19.725C24.1185 19.7781 23.8463 19.6101 23.9057 19.5741C25.0569 18.8813 26.138 19.3452 26.2725 20.6287C26.3045 20.934 26.3871 21.1915 26.5213 21.4508C26.6078 21.6799 26.5587 21.9112 26.5336 22.144C26.65 22.0193 26.6502 21.7354 26.7799 21.728C27.6215 21.6767 27.7709 20.7788 28.3941 20.4722C29.2273 20.4667 29.6358 20.9468 29.8241 21.6787C30.0138 22.1108 29.0813 22.1688 29.4732 22.6749C29.573 22.8794 29.6221 23.0932 29.6217 23.3197C29.5405 24.2125 29.2121 24.8273 28.1501 24.6279C28.1128 24.8313 28.1063 25.0334 28.061 25.2362C27.5492 25.6427 27.6217 26.3686 27.1689 26.8045C26.7902 27.0794 26.3536 27.0905 25.9149 27.0678Z" fill="#F18B70"/>
<path d="M18.7233 28.4878C16.7468 28.9873 14.7507 29.1075 12.7376 28.8356C11.8451 28.716 10.9763 28.5214 10.5346 27.61C9.73924 26.9017 10.5533 26.4897 10.8568 25.9849C13.0677 23.8273 15.5131 21.9262 17.7301 19.7738C18.5672 19.2947 19.1011 18.3919 20.0808 18.1073C21.3014 18.9856 19.4154 19.5247 19.8341 20.3612C20.4405 20.5065 20.9426 19.6782 21.6075 20.0604C21.9752 20.5266 21.7292 21.0193 21.661 21.5077L21.6643 21.4872C21.5352 21.9509 21.4757 22.4319 21.2347 22.8611C21.1243 22.991 20.9842 23.0679 20.8198 23.1049C19.9053 22.9982 18.9274 22.1119 18.1141 23.3408C17.8885 23.4568 17.6474 23.5254 17.3955 23.5486C17.2758 23.5519 17.1587 23.5425 17.0423 23.5253L12.4729 26.2975C11.8728 27.0395 12.3883 27.0305 12.9472 26.9845C13.3339 26.8904 13.5604 26.5209 13.9357 26.4085C14.562 26.3462 14.6425 26.8924 14.8934 27.2456C15.0753 27.4123 14.6456 27.9614 15.281 27.8455C15.8449 27.878 16.3938 27.8744 16.8132 27.4139C17.0559 27.1029 17.1801 26.741 17.303 26.3758C17.4323 25.9696 17.6543 25.6365 18.0271 25.4138C18.3866 25.1967 18.8128 24.9329 19.1789 25.1773C19.7287 25.5454 19.2258 26.002 19.1365 26.3917C18.991 26.6166 19.3067 26.6439 19.087 26.5464C19.462 26.0351 19.5465 24.8187 20.5902 25.931C20.9075 27.45 20.029 28.1226 18.7233 28.4878Z" fill="#F18767"/>
<path d="M3.58676 21.2719C2.95526 19.445 3.86591 17.988 4.80803 16.5411C5.4191 15.5605 6.4544 15.6098 7.41133 15.4688C9.29557 15.295 11.176 15.0077 13.0745 15.0582C13.7185 15.0768 14.3884 15.035 14.9557 15.4266C15.0716 16.5989 14.0704 16.2439 13.4951 16.4963C12.7462 16.8201 11.9875 16.8641 11.2092 16.7281C10.7435 16.6399 10.2556 16.6874 9.78989 16.6183C8.81236 16.4723 9.72911 17.1152 9.48698 17.2572C9.35872 17.4481 9.37438 17.6757 9.31105 17.8821C9.44948 17.7253 9.32424 17.516 9.42651 17.3473C10.2065 16.7958 10.9194 17.304 11.5984 17.5307C12.5037 17.8331 13.0824 17.5794 13.5197 16.793C14.5202 16.8145 14.9371 17.2297 14.5026 18.222C12.5905 19.2283 10.6168 20.095 8.61016 20.8908C7.16197 21.2418 5.91128 22.6125 4.23268 21.7502C4.01803 21.5892 3.80474 21.4315 3.58676 21.2719Z" fill="#F18B6D"/>
<path d="M18.7233 28.4878C19.6441 27.8515 20.471 27.1579 20.4056 25.8997C20.2928 24.8297 20.4088 23.8036 21.0288 22.873L21.1199 22.9046C21.3965 22.6947 21.5831 22.7023 21.6048 23.0961C21.5103 24.0136 21.3965 24.9314 21.3228 25.8518C21.2699 26.4721 21.1022 27.155 21.8693 27.5104C22.3089 27.5825 22.8667 27.2875 23.136 27.894C22.9641 28.0454 22.7508 28.352 22.6276 28.3183C21.3103 27.9823 20.0228 28.3822 18.7233 28.4878Z" fill="#FDE9CE"/>
<path d="M23.1374 27.8973C22.7149 27.7721 22.2945 27.6422 21.8707 27.5137C21.9661 26.826 22.0173 26.1258 22.1743 25.455C22.3116 24.869 22.2891 23.9614 23.0514 23.9735C23.4319 23.9779 24.1882 24.9516 24.0833 25.2749C23.7228 26.371 24.8227 25.8757 25.0384 26.3048C24.8058 26.9722 24.0975 26.911 23.6333 27.2058C23.5455 27.1537 23.4683 27.0896 23.3765 27.0468C23.4537 27.111 23.5382 27.1644 23.6333 27.2058C23.678 27.3332 23.7226 27.4606 23.7706 27.5866C23.5591 27.6891 23.3476 27.7915 23.1374 27.8973Z" fill="#F29478"/>
<path d="M32.2428 24.423C30.7397 26.2046 28.8862 27.344 26.514 27.5462C26.4694 27.4379 26.4262 27.333 26.3816 27.2247C27.4765 26.1867 28.9297 25.7531 30.1769 24.9709C30.6254 24.6097 31.0221 24.17 31.6159 24.029C31.9221 24.0141 32.1878 24.062 32.2428 24.423Z" fill="#FEF7D2"/>
<path d="M7.43456 21.9889C7.22042 22.7485 6.37274 22.6334 5.86925 23.1171C6.21597 23.2006 6.52589 23.2801 6.8378 23.355C6.63907 23.8013 6.29315 23.9092 5.84265 23.7917C5.6118 23.9137 5.55827 25.0253 5.11037 23.9284C4.98067 23.6135 4.85097 23.2986 4.45618 23.2311C4.41501 23.1406 4.37583 23.0455 4.34134 22.9523C4.37868 22.7681 4.46228 22.6109 4.58807 22.4708C4.94916 22.1533 5.40283 22.07 5.84498 21.9493C6.37376 21.9156 6.91452 21.712 7.43456 21.9889Z" fill="#F29274"/>
<path d="M5.23755 25.2418C5.33196 25.4331 5.42439 25.629 5.5188 25.8203C4.34771 26.3986 4.08695 25.2822 3.66203 24.7245C3.47241 24.4726 3.02093 23.4808 4.17614 23.4231C4.7325 23.9114 4.62715 24.7835 5.23755 25.2418Z" fill="#FDF1D0"/>
<path d="M11.0743 26.1907C10.808 26.6341 10.3629 27.0131 10.5392 27.6119C9.88864 27.1318 9.1686 27.4782 8.47915 27.463C7.86995 27.453 7.88115 27.2527 8.35397 26.9506C8.98072 26.6809 9.61216 26.4131 10.2389 26.1435C10.529 25.9473 10.8362 25.5368 11.0743 26.1907Z" fill="#FEF3D2"/>
<path d="M4.63743 22.7612C4.53603 22.8184 4.434 22.8834 4.34134 22.9523C4.17055 22.5661 3.92356 22.1844 4.23601 21.7488C5.72625 21.6989 6.98332 20.8934 8.36237 20.4788C8.54889 20.6283 8.57035 20.8037 8.43677 21.0006C7.40015 22.076 5.69494 21.7272 4.63743 22.7612Z" fill="#FDECD6"/>
<path d="M30.5927 25.118C29.4733 26.3809 27.7545 26.4635 26.3829 27.228C26.2276 27.1731 26.0702 27.1228 25.9149 27.0678C26.354 26.8639 26.7945 26.6633 27.2336 26.4594C28.1828 25.5889 29.1462 24.7432 30.5927 25.118Z" fill="#FCD3AC"/>
<path d="M3.48646 26.715C3.29113 26.5346 3.09444 26.3509 2.90244 26.1691C2.82782 25.9121 2.74985 25.6565 2.62977 25.2417C3.32424 25.6577 3.93511 25.9087 3.48646 26.715Z" fill="#FDFADE"/>
<path d="M5.23755 25.2418C4.49175 24.8622 4.42767 24.0907 4.17614 23.4231C4.25942 23.3505 4.3481 23.2909 4.44553 23.2431C4.71176 23.9084 4.97466 24.5751 5.23755 25.2418Z" fill="#F29274"/>
<path d="M37.2471 20.4511C36.6002 21.4772 35.5417 21.9593 34.5067 22.47C33.6621 22.9215 32.8324 22.8028 32.0045 22.4418C31.2366 22.056 30.6455 21.4363 29.9588 20.9442C28.5407 19.8518 27.3295 18.5321 25.9061 17.4458C25.4442 17.0068 24.9737 16.5753 25.0756 15.8466C25.24 15.4873 25.5502 15.3212 25.9142 15.2288C27.0378 15.1228 28.1064 15.3003 29.1307 15.7493C29.4897 15.9006 29.8461 16.0646 30.221 16.1787C30.6709 16.3041 31.1332 16.3554 31.5909 16.4431C32.3741 16.6384 33.2447 16.6481 33.7647 17.4084C33.1496 18.8434 32.2218 17.4915 31.5861 17.6919C32.5443 18.0185 33.9327 19.0388 34.5063 18.8485C36.3746 18.2286 36.2104 20.2183 37.2471 20.4511Z" fill="#F1896C"/>
<path d="M37.2471 20.4511C36.0989 20.5635 36.0053 19.2938 35.1403 18.8713C35.2526 19.343 35.3445 19.7271 35.4363 20.1113C34.1051 18.538 31.9749 18.418 30.3056 17.3792C31.506 16.7582 32.5253 18.2757 33.6229 17.3862C33.8436 17.069 34.2837 17.0949 34.5306 16.8129C35.3944 16.8062 36.3233 16.1895 37.0865 17.0568C37.1349 17.2786 36.6758 17.3487 36.8901 17.5751C36.9734 17.6635 37.2337 17.5563 37.4103 17.568C38.164 17.6066 39.2315 17.3549 39.4198 18.248C39.6101 19.1555 38.8769 19.8681 37.9321 20.1997C37.7078 20.2806 37.4782 20.3675 37.2471 20.4511Z" fill="#F39579"/>
<path d="M42.8675 11.2266C44.0007 11.6652 43.7795 12.3318 43.0309 12.8934C42.145 13.5575 41.901 14.3486 42.1693 15.3507C41.6505 16.5081 40.7231 17.4694 40.4436 18.7432C40.2246 18.8372 40.0057 18.9312 39.7868 19.0252C39.4397 18.3626 39.7728 17.7688 40.0003 17.1648C40.6113 16.165 41.4164 15.2004 40.6555 13.9409C40.6113 13.2647 41.263 13.0461 41.564 12.5922C41.9584 12.0998 42.1817 11.4477 42.8675 11.2266Z" fill="#FEF0C7"/>
<path d="M40.2518 17.3298C40.0983 17.8956 39.9416 18.4627 39.7881 19.0285C39.4008 19.775 39.0046 20.5098 37.9388 20.1969C38.3869 19.5788 38.8364 18.964 39.2918 18.3352C38.5483 17.7054 37.7191 18.185 37.0107 17.9627C36.7242 17.8736 36.2121 17.9004 36.4038 17.3802C36.4614 17.2261 36.8109 17.1742 37.0238 17.075C38.148 16.6388 39.2095 16.8844 40.2518 17.3298Z" fill="#FDECD2"/>
<path d="M32.1146 22.0742C32.8861 22.3549 33.6732 22.5409 34.51 22.4686C33.9614 23.3544 32.2975 22.9733 32.2461 24.4216C32.0659 24.3539 31.8905 24.288 31.7103 24.2203C31.3455 23.799 31.3481 23.303 31.4309 22.7932C31.5391 22.4493 31.8312 22.2676 32.1146 22.0742Z" fill="#FEEEC0"/>
<path d="M39.7737 4.84339C40.0691 4.98257 40.3693 5.12365 40.6647 5.26283C41.1888 5.85264 41.3414 6.54554 41.2169 7.31424C41.0145 8.95523 39.6664 9.40694 38.3998 9.68697C36.0242 10.2128 33.8864 11.3158 31.6446 12.1664C30.0054 12.8876 28.3322 13.4885 26.552 13.7538C25.9256 13.7778 25.5735 13.5391 25.6857 12.8637C25.9964 12.0068 26.622 11.4691 27.4726 11.1647C27.7013 11.1703 27.974 11.1309 28.0507 11.4215C28.1417 11.7562 27.8764 11.946 27.5868 12.2571C29.3638 11.0456 30.9016 9.89814 33.1984 9.892C34.5993 9.89046 36.2728 9.06301 37.0189 7.42445C37.2813 6.84832 37.6908 6.44944 38.3999 6.52182C38.9768 6.63334 39.5726 6.32653 40.144 6.5669C40.0413 5.99536 38.8082 5.65542 39.7737 4.84339Z" fill="#F1896A"/>
<path d="M42.8675 11.2266C42.55 11.7449 42.2359 12.2617 41.9185 12.78C41.24 13.3126 40.5539 13.7794 39.6815 13.1873C39.5759 12.5709 40.17 12.4873 40.4784 12.1839C40.6974 11.967 40.8796 11.7078 40.581 11.4664C40.3173 11.2527 39.9867 11.3314 39.871 11.6476C39.4823 12.7131 38.9645 12.1859 38.4427 11.81C38.1186 11.3834 37.6263 11.0222 37.9158 10.3697C38.9361 9.39697 40.3112 9.15283 41.5406 8.6119C41.7072 8.46657 41.8777 8.4539 42.06 8.57444C43.218 9.18701 42.8027 10.2827 42.8675 11.2266Z" fill="#F28D70"/>
<path d="M42.0627 8.581C41.9478 8.60531 41.8383 8.64274 41.7309 8.69467C40.8775 9.29555 39.8622 9.54113 38.9238 9.95452C37.77 10.0346 36.9173 10.969 35.7737 11.0832C34.3256 11.1311 33.1674 12.2335 31.7057 12.2294C31.4695 12.1963 31.3513 12.0608 31.349 11.8278C33.9275 10.6007 36.6102 9.64527 39.3389 8.82055C40.1924 8.56108 40.8211 8.10648 41.2163 7.32217C41.2268 7.91633 41.5674 8.29779 42.0627 8.581Z" fill="#FCD6BB"/>
<path d="M41.3707 4.58839C42.5053 5.03031 42.9345 5.65533 43.2264 6.70522C42.3016 6.20378 41.6231 5.78882 41.3707 4.58839Z" fill="#FEF0A8"/>
<path d="M6.81121 12.9883C8.21144 10.9191 9.98398 9.29896 12.3855 8.42869C13.7822 7.91477 14.5057 9.19738 15.5791 9.55708C16.5918 10.2909 17.6984 10.9208 18.3784 12.0218C18.2289 13.3839 17.2598 12.3675 16.7218 12.5967C16.4218 12.6551 16.1482 12.7678 15.9211 12.9841C15.4357 13.6444 14.6125 14.1101 14.1396 13.4264C13.4675 12.4487 12.6446 12.6687 11.7813 12.6483C11.1805 12.4124 10.817 10.5441 9.91469 12.4005C9.83777 12.555 10.0196 12.7026 10.1618 12.8013C10.5215 12.9639 10.8666 12.8256 11.2194 12.7532C11.4592 12.7004 11.6981 12.7401 11.9394 12.729C13.3393 12.4976 13.5264 13.1035 13.077 14.0597C15.2937 13.7451 17.693 14.092 19.9666 13.3472C20.214 13.5024 20.356 13.7239 20.4241 14.0028C20.4509 14.1913 20.4169 14.3741 20.3274 14.5452C18.7945 15.7521 17.0085 15.264 15.332 15.2409C12.9494 15.2095 10.5796 15.1805 8.21117 15.4961C7.62351 15.3584 6.86549 15.897 6.45351 15.0769C6.38572 14.8554 6.32126 14.6326 6.25482 14.4144C6.57331 13.984 7.15081 14.2487 7.53661 13.9248C7.6159 13.3781 6.67256 13.571 6.81121 12.9883Z" fill="#F08465"/>
<path d="M15.379 9.83899C14.3476 9.439 13.519 8.62166 12.3842 8.42541C14.2386 6.56816 15.8053 4.31538 18.7163 3.91431C18.8306 5.3481 17.2874 5.05148 16.7321 5.77895C16.369 6.08199 16.0186 6.40662 15.636 6.69082C14.7361 7.3684 14.5933 8.08325 15.4699 8.86546C15.5741 8.99519 15.6562 9.13782 15.7097 9.2961C15.7369 9.56113 15.7198 9.79452 15.379 9.83899Z" fill="#FEF1D1"/>
<path d="M6.44882 15.075C7.00803 15.1247 7.56922 15.1698 8.12843 15.2195C8.40579 15.8265 7.98915 15.8101 7.58593 15.8074C6.65951 16.0509 5.7331 16.2944 4.80334 16.5392C5.01828 15.81 5.2379 15.0827 5.45284 14.3535C5.79018 14.5943 6.1195 14.8346 6.44882 15.075Z" fill="#FDEDD3"/>
<path d="M6.81121 12.9883C6.97197 13.0563 7.14203 13.1091 7.29151 13.1971C7.66287 13.4163 8.59818 12.9006 8.37141 13.838C8.23267 14.4016 7.66926 14.7871 6.94611 14.5479C6.72447 14.4742 6.48234 14.455 6.25347 14.4112C6.03889 13.786 6.25964 13.3267 6.81121 12.9883Z" fill="#F39574"/>
<path d="M16.3164 5.65096C16.7586 4.58259 18.2889 4.99961 18.7176 3.91759C18.9892 3.93235 19.256 3.9452 19.5276 3.95996C19.8006 3.85516 20.0692 3.80591 20.3268 3.99523C19.2883 5.27466 17.9486 5.82265 16.3164 5.65096Z" fill="#FEE7BD"/>
<path d="M24.8656 4.78817C25.13 3.07948 26.738 3.05015 27.8734 2.43282C28.7876 2.44378 29.703 2.45802 30.6205 2.46761C30.8428 2.71363 30.7173 2.91113 30.5248 3.09783C30.0862 3.75803 28.0202 3.30081 29.1528 5.03642C29.3333 5.50302 29.1554 5.99061 29.237 6.46343C29.2503 7.24443 29.23 8.00088 28.1213 7.98184C27.7511 7.56652 27.3942 7.60994 27.0476 8.02894C26.7145 8.31961 26.3108 8.52425 26.012 8.85069C25.7684 9.13132 25.626 9.45853 25.5365 9.80997C25.221 10.7878 26.3571 10.8071 26.6057 11.4106C26.5337 12.0886 25.8372 12.3218 25.5573 12.8552C25.4227 12.9836 25.2741 13.087 25.1079 13.167C24.6526 13.3506 24.2109 13.406 23.8175 13.0386C23.5333 12.6991 23.4259 12.2868 23.4977 11.8736C23.9178 9.50995 23.7657 7.03669 24.8656 4.78817Z" fill="#F08368"/>
<path d="M28.0908 7.71819C29.122 7.5965 28.965 6.9783 28.7014 6.31955C29.0483 5.958 29.5859 5.63298 28.9737 5.07563C28.8506 4.73886 28.0306 5.32599 28.3211 4.74215C28.5286 4.32672 27.7346 3.76373 28.5364 3.62528C29.2206 3.50459 29.6162 2.63575 30.4312 2.93689C30.644 4.10758 31.9667 3.63184 32.5325 4.30418C32.802 4.6267 32.7948 4.19229 32.872 4.11444C33.2229 3.74358 33.3247 3.1377 33.9494 3.03381C34.3561 3.23458 34.4004 3.58849 34.3399 3.98172C34.3706 4.46395 34.126 4.81791 33.791 5.13238C32.567 6.49208 30.9884 7.48375 29.8061 8.88767C28.7305 9.76422 27.9528 11.0322 26.4759 11.3796C25.4187 11.2204 24.3222 11.0889 25.3646 9.61993C25.6966 9.38342 25.825 9.06965 25.7598 8.67449C25.9258 8.07285 26.5215 8.05 26.9558 7.8059C27.3309 7.81633 27.7005 7.61422 28.0908 7.71819Z" fill="#F28F76"/>
<path d="M39.7737 4.84339C39.4416 5.70526 40.754 5.98184 40.421 6.93618C39.7354 6.40908 39.0675 7.39393 38.3262 6.95886C38.3997 6.48352 39.0694 6.08109 38.5308 5.53179C38.2683 5.26397 37.9308 5.14595 37.5615 5.26353C36.7535 5.51962 36.9855 6.16831 37.008 6.73454C37.0498 7.78385 36.6085 8.7406 35.6042 8.90874C34.8598 9.03503 33.8143 8.79044 33.6891 7.61437C33.6869 7.58073 33.3592 7.56226 33.193 7.48108C32.4087 6.69539 33.1417 6.22854 33.6124 5.75074C34.5699 4.77705 35.9359 4.6057 37.1037 4.04793C38.1011 3.98623 39.0008 4.21798 39.7737 4.84339Z" fill="#F1896F"/>
<path d="M37.1071 4.04656C36.3167 5.17009 34.6958 4.99755 33.882 6.09241C33.5781 6.50147 32.7104 6.71693 33.4449 7.4387C33.3115 9.26612 32.5195 9.68441 30.207 9.14071C30.0788 9.00939 30.0253 8.85111 30.0432 8.66724C31.1734 7.1083 32.7764 6.0337 34.1618 4.73412C34.2944 4.61047 34.4546 4.56363 34.6346 4.59308C35.4507 4.35666 36.181 3.74127 37.1071 4.04656Z" fill="#F08565"/>
<path d="M33.9434 3.02863C33.7088 4.02298 32.9483 4.5933 32.1783 5.15981C31.3886 5.30862 33.0187 3.85452 31.5837 4.32284C30.2863 4.746 30.3798 3.75988 30.4232 2.93636C30.4874 2.77947 30.5516 2.62259 30.6138 2.47036C31.7939 2.28352 32.9511 2.22121 33.9434 3.02863Z" fill="#F39A7F"/>
<path d="M34.638 4.5917C34.5534 4.68024 34.4561 4.74719 34.3412 4.79065C34.077 5.08747 33.8146 5.34134 33.5909 4.76978C33.8412 4.50554 34.0882 4.24268 34.3385 3.97844C35.4646 3.67956 34.5215 4.39416 34.638 4.5917Z" fill="#FEF5E3"/>
<path d="M16.3164 5.65096C17.6547 5.09968 18.9897 4.54978 20.3268 3.99523C20.6203 3.99708 20.9125 3.99565 21.2061 3.99751C20.6148 5.07357 19.3935 5.00881 18.608 5.52802C20.2064 5.59857 21.3906 3.99056 23.0937 4.00261L23.0703 3.99309C23.43 4.15566 24.1239 4.43763 23.7915 4.73952C22.3101 6.09017 23.8947 7.17923 23.9231 8.37601C23.9117 8.86025 24.0664 9.38736 23.5597 9.74951C22.5082 9.822 22.1857 10.4037 22.3108 11.3804C22.3889 11.9965 22.3548 12.6244 22.5124 13.2347C22.3071 13.5418 22.0062 13.6926 21.6575 13.7749C21.1931 13.8511 20.7786 13.7264 20.4097 13.4563C19.8075 12.8757 18.9842 12.5165 18.6157 11.6977C18.8267 10.8167 17.3754 10.0986 18.377 9.13737C18.5004 9.0482 18.7603 9.00635 18.6216 8.78341C18.4271 8.47223 18.1284 8.53385 17.8362 8.67726C17.0758 9.12475 16.2206 8.98208 15.4066 9.09101C13.8207 7.99868 13.8053 7.52544 15.3044 6.39771C15.6377 6.14533 15.977 5.89815 16.3164 5.65096Z" fill="#F18C72"/>
<path d="M23.5113 9.68888C23.5463 9.25247 23.5826 8.81935 23.6142 8.38431C23.5789 6.9717 23.3649 5.53292 24.2555 4.24531C24.4589 4.42627 24.6623 4.60722 24.8656 4.78817C24.7272 7.50386 23.865 10.1494 23.9379 12.8854C23.604 13.1457 23.3114 13.0514 23.0368 12.7924C22.9019 11.7162 22.941 10.6642 23.5113 9.68888Z" fill="#FCD9C1"/>
<path d="M24.2555 4.24531C23.9891 5.61725 24.1536 7.04956 23.6142 8.38431C23.0158 7.75608 23.207 6.77961 22.4921 6.13411C22.0196 5.70724 22.6022 5.10282 23.0929 4.91988C24.1971 4.51107 23.1056 4.29694 23.0683 3.99774C23.534 3.7637 23.9191 3.89284 24.2555 4.24531Z" fill="#F08167"/>
<path d="M23.0904 4.00399C22.5139 4.29133 21.962 4.71432 21.3533 4.83841C20.3659 5.03798 19.9595 5.39719 20.6271 6.5724C19.7496 5.09616 18.3816 6.40007 17.4046 5.56335C18.7229 5.02032 19.9611 4.51029 21.2027 3.99888C21.8298 4.2892 22.4697 3.63432 23.0904 4.00399Z" fill="#F18666"/>
<path d="M8.4645 20.7552C8.43668 20.6592 8.40354 20.5693 8.36571 20.4774C10.4642 19.5824 12.5675 18.6892 14.666 17.7941C15.7098 16.5278 17.2177 16.2174 18.6993 15.8527C19.1782 15.878 19.5579 16.0323 19.6531 16.5571C17.4237 17.4946 15.1909 18.4334 12.9615 19.3709C12.5953 19.7519 12.1097 19.8714 11.6194 19.9889C10.5217 20.0536 9.66295 21.1247 8.4645 20.7552Z" fill="#FBD5BE"/>
<path d="M11.0743 26.1907C10.7947 26.1754 10.5151 26.1601 10.2369 26.1481C12.6232 24.0181 15.0141 21.89 17.4004 19.76C17.7048 19.485 17.8458 19.6187 17.906 19.9545C15.6272 22.0326 13.3484 24.1107 11.0743 26.1907Z" fill="#FCD9C0"/>
<path d="M19.6511 16.5617C19.4619 16.4056 19.2713 16.2463 19.0821 16.0902C19.0634 15.9406 19.0755 15.7898 19.1163 15.6426C19.1755 14.9238 20.0105 14.8944 20.2791 14.3618C20.2553 14.2565 20.2415 14.1471 20.2403 14.0402C20.3897 13.7676 19.793 13.2384 20.5503 13.172C20.902 13.3149 21.2536 13.4578 21.6019 13.6021C21.9791 13.627 22.4042 13.0951 22.7098 13.5908C22.8654 13.8451 22.5401 14.098 22.3156 14.3018C20.8562 15.6395 20.8575 15.6428 22.6206 16.8808C22.7141 17.0226 22.7482 17.1812 22.7316 17.3492C22.3771 17.4837 22.5274 17.7824 22.5003 18.0199C22.3153 18.2342 22.1277 18.1389 21.9394 18.0323C21.72 17.8695 21.5047 17.6973 21.2309 17.6297C20.8879 17.4794 20.3073 17.7378 20.2491 17.0942C20.1602 16.7932 19.9809 16.5947 19.6511 16.5617Z" fill="#FEF6D6"/>
<path d="M11.6288 19.8316C12.0701 19.6805 12.5148 19.528 12.9562 19.3769C11.3632 20.7697 9.24137 21.049 7.43257 21.9936C6.95967 22.1155 6.53612 22.5278 5.99661 22.2321C7.74048 21.1109 9.67953 20.4542 11.6288 19.8316Z" fill="#EF7754"/>
<path d="M20.2558 17.0915C20.68 17.1546 21.1088 17.2196 21.533 17.2828C21.3638 17.9049 20.8616 18.0696 20.3098 18.1703C19.5085 18.765 18.7073 19.3598 17.906 19.9545C17.7386 19.8892 17.5711 19.8239 17.4004 19.76C18.3528 18.8689 19.3019 17.9792 20.2558 17.0915Z" fill="#FACBB0"/>
<path d="M5.844 23.795C6.17506 23.651 6.50476 23.5036 6.83915 23.3582C7.05959 23.3058 7.30045 23.1797 7.5019 23.2234C7.8131 23.287 7.57661 23.4995 7.48936 23.5815C6.99111 24.0399 6.51123 24.7325 5.844 23.795Z" fill="#F5AA8B"/>
<path d="M29.6998 22.0215C29.4517 21.3717 29.0598 20.8656 28.3548 20.6611C27.5711 20.654 27.0387 21.2569 26.3509 21.4827C25.9099 21.3881 25.2398 21.3725 25.6695 20.6814C26.614 19.1645 24.4391 20.3289 24.6602 19.482C23.5742 19.3002 24.6029 20.319 24.164 20.4383C22.3677 19.2523 24.811 18.4455 24.4571 17.283C23.8628 17.3091 23.2754 18.3567 22.7382 17.3465L22.6408 17.2331C22.7525 16.9071 22.9023 16.6075 23.2024 16.4072C23.7881 16.0853 24.3614 16.1408 24.9263 16.4414C25.2595 16.8143 25.7805 16.9796 26.0604 17.4129C27.4548 18.5803 28.7427 19.8683 30.1956 20.9694C30.5454 21.3164 30.8812 21.6768 31.1858 22.0654C31.4334 22.7614 31.4589 23.2688 30.4518 22.9087C30.311 22.8324 30.1802 22.7328 30.0594 22.6291C29.8875 22.4582 29.7683 22.2541 29.6998 22.0215Z" fill="#F08368"/>
<path d="M30.3038 22.54C30.4606 22.2951 31.2195 23.4173 30.9726 22.2492C31.5399 21.9963 31.6275 22.3132 31.6059 22.7632C31.8085 23.2361 31.8533 23.724 31.7117 24.2236C31.3391 24.5228 30.9653 24.8188 30.5927 25.118C29.4726 25.5641 28.3524 26.0101 27.237 26.4581C27.1912 25.9014 27.3932 25.4537 27.8405 25.1084C28.0696 24.7454 27.8983 24.5475 27.5568 24.4196C27.7117 24.0565 28.0688 23.426 28.3243 23.762C29.5493 25.3713 28.8658 22.9251 29.4309 23.2832C30.5062 23.9413 30.0348 22.8157 30.3038 22.54Z" fill="#F39577"/>
<path d="M26.3496 21.4794C26.7847 20.6403 27.3036 20.0045 28.3535 20.6578C27.6914 20.8039 28.9929 22.9495 27.0407 21.8968C26.7498 21.7403 26.9929 22.6147 26.7107 22.9343C26.1902 22.5425 26.3424 21.9926 26.3496 21.4794Z" fill="#F39577"/>
<path d="M30.3038 22.54C30.347 22.6449 30.4063 22.751 30.4315 22.8595C30.5344 23.3274 31.1508 23.9329 30.5282 24.2315C29.8402 24.5609 29.7908 23.626 29.4263 23.2812C29.3404 23.0634 29.2546 22.8455 29.1674 22.6244C29.512 22.0489 29.9084 22.3384 30.3038 22.54Z" fill="#F5A686"/>
<path d="M24.5692 22.8151C25.2816 23.3695 25.5939 24.0235 25.2869 24.9556C24.1828 24.4551 24.41 23.6134 24.5692 22.8151Z" fill="#F29478"/>
<path d="M22.0923 17.835C22.231 17.8968 22.3683 17.9554 22.5037 18.0186C22.3408 19.2059 22.3205 20.4266 21.663 21.5031C21.6188 21.0072 21.5779 20.5099 21.5324 20.0108C21.4361 19.2179 21.2114 18.3974 22.0923 17.835Z" fill="#FCD7BD"/>
<path d="M30.3038 22.54C29.9254 22.5692 29.5504 22.5971 29.1721 22.6263C28.7345 22.5495 28.6068 22.2491 28.8389 21.9311C29.1168 21.5442 29.3959 22.0891 29.7045 22.0234C30.0249 22.0525 30.185 22.2705 30.3038 22.54Z" fill="#F39577"/>
<path d="M21.6062 23.0994C21.4434 23.036 21.284 22.9712 21.1212 22.9078C21.1304 22.3708 21.2433 21.8678 21.671 21.4844C21.8839 22.0298 21.8279 22.5669 21.6062 23.0994Z" fill="#FBCDB2"/>
<path d="M27.5521 24.4177C27.916 24.3061 28.3076 24.2523 28.4132 24.7075C28.5194 25.174 28.0829 25.0431 27.8358 25.1065C27.7412 24.8769 27.6466 24.6473 27.5521 24.4177Z" fill="#F8BB9C"/>
<path d="M26.3173 26.0734C26.1328 25.9384 25.94 25.8682 25.9235 25.7714C25.9036 25.6377 26.0179 25.4793 26.0748 25.3331C26.1968 25.4018 26.3835 25.4476 26.4194 25.5441C26.458 25.6663 26.3691 25.8296 26.3173 26.0734Z" fill="#F7B495"/>
<path d="M21.0302 22.8763C20.9743 23.916 20.8964 24.9494 20.4069 25.9029C19.5646 25.4596 19.5893 26.2589 19.3435 26.6479C19.0519 27.1056 19.0243 27.8536 18.1255 27.6714C18.032 26.7431 19.2698 26.4404 19.115 25.4107C18.3074 25.4403 17.8769 25.9591 17.5642 26.6404C17.1866 26.8611 17.1172 27.2043 17.1683 27.5937C16.6321 28.5665 15.8274 28.3379 15.0166 28.0849C15.0596 27.8101 15.0745 27.5431 14.749 27.4163C14.5004 27.135 14.2505 26.8505 14.0019 26.5692C13.296 26.6183 13.4316 27.2223 13.2775 27.6349C12.7211 27.1275 11.6086 27.9809 11.4249 27.2125C11.2547 26.4962 12.142 25.8353 12.7395 25.4664C13.2951 25.1186 13.6008 23.3967 14.8532 24.826C15.0796 25.0818 15.6513 24.1289 15.7213 23.7395C15.9901 22.3167 16.6245 22.7574 17.3489 23.2839C17.45 23.3305 17.5441 23.426 17.6451 23.4343C17.9868 23.4585 18.0178 24.3013 18.4544 23.826C18.8505 23.3943 17.8185 23.4856 17.9984 23.0125C18.7058 22.8439 18.2437 22.0444 18.7111 21.71C19.4678 22.154 20.1422 22.7203 21.0302 22.8763Z" fill="#F28D70"/>
<path d="M22.0923 17.835C21.704 18.5129 22.0473 19.3652 21.5357 20.0094C20.7665 20.1037 20.3245 21.5518 19.4655 20.7931C18.3319 19.7944 19.9498 19.4004 20.2136 18.6856C20.2751 18.5222 20.2784 18.3405 20.3084 18.167C20.5052 17.5834 21.1049 17.5512 21.5317 17.2795C21.7184 17.4673 21.907 17.6505 22.0923 17.835Z" fill="#F3957A"/>
<path d="M17.9984 23.0125C18.46 23.394 19.1792 22.998 19.6898 23.5934C19.1948 24.0121 18.0624 23.9261 18.2904 25.0483C17.9777 24.4597 17.6616 23.8725 17.3489 23.2839C17.5645 23.1913 17.7814 23.1019 17.9984 23.0125Z" fill="#F5A588"/>
<path d="M17.1683 27.5937C16.7026 27.0413 16.5356 26.6075 17.5608 26.6417C17.4304 26.9602 17.3 27.2786 17.1683 27.5937Z" fill="#F5A688"/>
<path d="M14.7457 27.4177C14.9543 27.4315 15.2777 27.3635 15.3483 27.4687C15.5663 27.7894 15.2386 27.932 15.0132 28.0862C14.5729 28.0029 14.7941 27.6586 14.7457 27.4177Z" fill="#F6AB8A"/>
<path d="M13.2728 27.633C13.2016 27.0715 12.8743 26.3432 13.9972 26.5673C13.7573 26.9232 13.5174 27.2791 13.2728 27.633Z" fill="#F6AF8F"/>
<path d="M19.3268 15.9165C19.2434 15.97 19.1614 16.0268 19.0854 16.0888C17.6134 16.6568 16.1394 17.2294 14.6674 17.7974C14.1985 17.768 14.2977 16.8716 13.6309 17.1386C12.7053 18.2372 11.7602 17.6866 10.874 17.1462C10.5401 16.9423 10.2777 16.5325 10.9615 16.3161C12.3466 16.3901 13.7208 16.4187 14.9247 15.5315C16.2032 14.9012 17.5645 15.1922 18.8924 15.1747C19.2541 15.1715 19.5175 15.4697 19.3268 15.9165Z" fill="#F28F74"/>
<path d="M19.3268 15.9165C18.8049 14.877 17.8976 15.5461 17.1679 15.4899C16.4234 15.4359 15.6702 15.5121 14.9167 15.5309C12.4658 15.3243 10.0337 15.7506 7.59062 15.8093C7.771 15.6122 7.95274 15.4184 8.13312 15.2214C11.1888 14.707 14.2717 14.9602 17.3397 14.836C18.3385 14.7967 19.3607 14.9089 20.2825 14.3604C19.9603 14.8768 19.6442 15.3983 19.3268 15.9165Z" fill="#FBD4BC"/>
<path d="M6.55744 20.4281C6.25038 20.5546 6.09161 20.643 5.91861 20.6874C5.3308 20.8336 4.51684 21.5871 4.20698 20.8822C3.92684 20.2495 4.93122 20.1005 5.50155 19.9308C6.26689 19.7038 6.05073 19.179 5.90823 18.6814C5.81866 18.3692 5.03028 18.8435 5.30959 18.318C5.62872 17.7185 6.39676 17.6592 7.05554 17.6947C7.37858 17.7113 7.90902 17.7575 7.86723 18.1584C7.76697 19.1281 8.17586 20.4904 6.55744 20.4281Z" fill="#F29276"/>
<path d="M10.9534 16.3155C11.4517 17.7906 12.5568 17.4122 13.6262 17.1367C13.5252 18.2563 12.7664 18.2812 11.9498 18.0804C11.095 17.8724 10.2613 17.5827 9.4184 17.3276C9.36419 16.997 8.75777 16.6905 9.09042 16.4461C9.61775 16.0677 10.3147 16.1106 10.9534 16.3155Z" fill="#F3987D"/>
<path d="M9.41975 17.3309C9.51378 17.9098 10.2287 18.4134 9.63897 19.0668C9.56443 19.1512 9.21136 19.147 9.17631 19.0809C8.84206 18.4589 8.97801 17.8696 9.41975 17.3309Z" fill="#F29276"/>
<path d="M7.44935 16.5657C7.62362 16.6666 7.74831 16.7418 7.87633 16.8157C7.79591 16.9332 7.72321 17.1358 7.62697 17.1486C7.49331 17.1653 7.34033 17.0403 7.19697 16.9766C7.2727 16.8572 7.34374 16.7358 7.44935 16.5657Z" fill="#F6AC8F"/>
<path d="M23.6333 27.2058C23.2392 27.2914 22.7574 27.5244 22.6304 26.913C22.5649 26.6023 22.8493 26.3356 23.1702 26.3185C23.929 26.2745 23.5523 26.867 23.6333 27.2058Z" fill="#F5A88C"/>
<path d="M11.6288 19.8316C9.75249 20.6313 7.87288 21.4324 5.99661 22.2321C5.54199 22.4078 5.08872 22.5869 4.63409 22.7626C5.63478 21.5716 7.22523 21.4997 8.46116 20.7566C9.54683 20.5396 10.429 19.6391 11.6288 19.8316Z" fill="#F7B296"/>
<path d="M40.2518 17.3298C39.1506 17.5187 38.0846 17.3094 37.0224 17.0717C36.111 17.0673 35.2009 17.0662 34.2862 17.0632C33.3847 17.0355 32.556 16.6632 31.6769 16.5381C31.1645 16.4883 30.6645 16.2032 30.1347 16.4713C29.8293 16.3554 29.5239 16.2395 29.2152 16.125C29.0828 15.8035 29.0266 15.4775 29.2064 15.1464C30.1035 13.9598 31.0622 13.7759 32.4102 14.5749C33.4995 15.2196 34.9413 14.9288 36.2975 15.6055C36.0545 15.0726 35.2978 14.8088 35.8271 14.4258C36.7264 13.7753 37.4815 14.2815 38.2104 14.9518C38.2473 14.4916 38.2619 13.9869 38.6529 13.6187C39.4731 13.231 40.1361 13.6561 40.8176 13.9931C42.3853 15.3729 40.8458 16.2794 40.2518 17.3298Z" fill="#F29072"/>
<path d="M24.833 16.6793C24.3091 16.4309 23.7793 16.5378 23.2523 16.6705C22.1456 16.6468 22.9756 16.0747 23.1284 15.9811C24.3349 15.2425 24.7545 14.0529 25.1165 12.8181C25.185 12.7285 25.2737 12.669 25.3812 12.6362C25.6761 12.3191 25.8012 12.4901 25.8747 12.8012C25.8912 13.0783 25.8176 13.3925 26.1979 13.5006C26.4817 13.5832 26.8075 13.6063 26.9013 13.9667C26.9236 14.3526 26.8074 14.7151 26.6959 15.0794C26.5911 15.2799 26.4931 15.4968 26.1938 15.4052C25.8808 15.5456 25.5644 15.6875 25.2514 15.8279C24.9192 16.0261 25.5317 16.66 24.833 16.6793Z" fill="#FEF6D6"/>
<path d="M30.0607 21.1631C28.5841 20.0142 27.093 18.8866 25.8694 17.4609C25.9194 17.26 26.0301 17.2067 26.2118 17.316C27.7648 18.1956 28.86 19.6128 30.2665 20.6678C30.2392 20.8478 30.2775 21.0546 30.0607 21.1631Z" fill="#FACBAD"/>
<path d="M26.1542 16.1811C27.6005 16.0151 28.4827 16.3845 29.6474 17.1554C28.2493 17.1635 27.2773 17.069 26.1542 16.1811Z" fill="#F39578"/>
<path d="M26.1918 15.4098C26.274 15.2302 26.3515 15.0487 26.4336 14.8691C27.4664 14.4667 28.3964 14.6015 29.2033 15.3664C29.3688 15.6166 29.4488 15.8676 29.2165 16.1282C28.2078 15.8877 27.2005 15.6504 26.1918 15.4098Z" fill="#FBD3B8"/>
<path d="M30.0607 21.1631C30.1288 20.9969 30.1984 20.834 30.2665 20.6678C30.881 21.1359 31.4968 21.6074 32.1146 22.0742C32.1201 22.4287 31.9103 22.6302 31.6046 22.76C31.3939 22.5897 31.1819 22.4161 30.9712 22.2459C30.6675 21.8876 30.3657 21.5247 30.0607 21.1631Z" fill="#FEEAD0"/>
<path d="M31.5796 16.302C32.5137 16.4467 33.5018 16.4194 34.2862 17.0632C34.2299 17.5045 33.8404 17.2698 33.6229 17.3862C32.8851 17.1684 32.144 16.9519 31.4062 16.734C31.4035 16.5663 31.4618 16.4234 31.5796 16.302Z" fill="#F7B49C"/>
<path d="M26.2118 17.316C26.0983 17.3627 25.9862 17.4128 25.8694 17.4609C25.5239 17.2003 25.1785 16.9398 24.8297 16.6806C24.9669 16.3978 25.1089 16.1168 25.2461 15.8339C25.5698 16.3259 25.8915 16.8226 26.2118 17.316Z" fill="#FCD5B7"/>
<path d="M31.5796 16.302C31.5214 16.4449 31.4645 16.5911 31.4096 16.7326C30.9839 16.6471 30.5603 16.5569 30.1347 16.4713C30.524 15.559 31.0866 16.2518 31.5796 16.302Z" fill="#FCE6D4"/>
<path d="M40.8176 13.9931C40.0567 14.3256 39.4609 13.6848 38.7575 13.683C38.6166 13.5876 38.5546 13.4558 38.5779 13.2851C38.7639 12.9783 39.0449 12.8549 39.3933 12.8572C39.4683 12.8876 39.5419 12.9148 39.617 12.9453C40.4145 13.3841 41.1635 13.0794 41.9138 12.7781C41.8188 13.4195 40.8373 13.2828 40.8176 13.9931Z" fill="#F39A7D"/>
<path d="M30.1422 8.84129C31.5123 9.00204 32.9621 9.3563 33.4483 7.43733C33.8303 7.34134 34.1545 6.98147 34.5952 7.16056C34.8362 7.69817 34.0948 7.74648 34.0972 8.15984C34.8532 7.62591 35.1473 9.03169 35.7807 8.579C36.3613 8.15951 36.8087 7.5302 36.6295 6.74462C36.4756 6.0676 36.0252 5.32471 36.9435 4.90042C37.6522 4.57395 38.4995 4.43213 39.0356 5.19344C39.6356 6.04353 39.135 6.59115 38.3255 6.96679C38.0185 6.77101 37.7412 6.82767 37.5914 7.14641C36.3971 9.68702 34.4447 10.6715 31.6389 10.3234C30.8401 10.2227 30.2458 11.2156 29.4194 11.5598C28.7733 11.8298 28.0977 12.2654 27.4231 12.5893C26.9095 12.0911 28.2077 11.8594 27.5958 11.3595C27.8835 9.96349 28.9367 9.32636 30.1422 8.84129Z" fill="#F29278"/>
<path d="M30.1422 8.84129C29.179 9.56413 28.2709 10.3449 27.5978 11.3549C27.0201 11.8384 26.4457 12.3205 25.8713 12.8026C25.7079 12.7472 25.5446 12.6917 25.3778 12.6376C25.7425 12.215 26.1052 11.7971 26.4698 11.3745C27.5024 10.4504 28.5336 9.52307 29.5628 8.60039C29.8752 8.30675 30.0049 8.4605 30.0705 8.79028L30.1422 8.84129Z" fill="#FCE4CF"/>
<path d="M26.7683 13.9946C26.5764 13.8319 26.3831 13.666 26.1912 13.5034C27.9093 12.9453 29.6261 12.3839 31.3476 11.8245C31.3888 11.9149 31.4252 12.0035 31.4664 12.094C31.6503 12.2561 31.6711 12.4393 31.5336 12.6456C30.0818 13.585 28.5153 14.1037 26.7683 13.9946Z" fill="#FCD9C2"/>
<path d="M38.7595 11.7639C38.979 11.8231 39.2006 11.8777 39.4202 11.9368C39.2614 9.94972 40.7236 11.3577 41.3213 10.8468C41.6032 12.3842 40.7947 12.8285 39.6216 12.9472C39.298 12.7775 38.8082 13.1711 38.5827 12.6616C38.5038 12.3373 38.5313 12.0344 38.7595 11.7639Z" fill="#F39A7D"/>
<path d="M38.7595 11.7639C38.8308 12.0223 38.8974 12.2788 38.6864 12.5153C38.3467 12.5248 38.0626 12.3656 37.7605 12.2483C37.5924 12.1909 37.421 12.1349 37.2609 12.0589C36.802 11.8452 36.037 11.8456 36.0864 11.1884C36.1331 10.5247 36.9237 10.7285 37.3661 10.5041C37.5386 10.5059 37.694 10.5608 37.8361 10.6596C38.3305 10.8741 38.595 11.2793 38.7595 11.7639Z" fill="#FACCB1"/>
<path d="M37.8328 10.6609C37.74 10.6915 37.6431 10.7122 37.5455 10.7217C37.4539 9.75048 38.2323 9.94392 38.7748 9.82024C39.7601 9.44505 40.7455 9.06986 41.7295 8.69139C40.6751 9.82778 39.0753 9.89594 37.8328 10.6609Z" fill="#EF7C5B"/>
<path d="M38.7748 9.82024C38.3534 10.1051 37.7074 10.0911 37.5455 10.7217C37.1642 10.8481 36.7863 10.9731 36.2508 11.1514C36.9335 11.4726 37.509 11.7419 38.0845 12.0113C38.4234 12.3129 38.6635 12.6398 38.4188 13.1166C37.9343 13.1819 37.3991 12.9726 36.7229 13.5773C37.2656 13.1888 37.5896 13.1129 37.938 13.1151C38.1696 13.1847 38.4337 13.1718 38.6237 13.3583C38.6683 13.4665 38.7129 13.5748 38.7575 13.683C38.6612 14.3403 38.2329 15.0347 39.3429 15.6824C37.7897 15.7121 37.375 13.9187 35.9777 14.6017C36.0878 15.3619 37.1643 14.8763 37.3916 15.6459C35.6137 16.1634 33.7556 15.8507 32.4102 15.0391C30.9877 14.1825 30.2119 14.6402 29.2006 15.3598C28.2778 15.1951 27.355 15.0305 26.4309 14.8625C26.3297 14.4937 26.5232 14.2337 26.7656 13.988C28.3715 13.4417 29.976 12.892 31.5818 12.3457C32.7718 11.491 34.3306 11.5319 35.5409 10.7264C36.6331 10.4684 37.5753 9.68512 38.7748 9.82024Z" fill="#F1866B"/>
<path d="M35.5449 10.7363C34.5867 12.163 32.8826 11.76 31.5859 12.3555C31.5427 12.2697 31.5029 12.1825 31.4678 12.0972C32.8347 11.6723 34.0175 10.6864 35.5449 10.7363Z" fill="#FDE8D9"/>
<path d="M11.7414 12.542C12.635 12.6074 13.7462 11.2865 14.388 13.1859C14.629 13.9038 15.3569 13.0362 15.6462 12.4874C16.1379 12.7145 16.4548 12.5456 16.628 12.0561C17.1763 11.8993 17.6452 12.7535 18.2252 12.1617C19.197 12.0568 19.6445 12.5937 19.848 13.4383C19.094 14.451 17.9502 14.2047 16.9422 14.2976C15.9503 14.3916 14.9442 14.2804 13.9489 14.3566C13.1775 14.4173 12.6377 14.5284 12.8991 13.4002C13.0857 12.6021 12.1009 13.2916 11.8765 12.87C11.76 12.8336 11.7036 12.7724 11.7025 12.6846C11.6995 12.6014 11.7114 12.5544 11.7414 12.542Z" fill="#F29275"/>
<path d="M13.9828 10.6289C14.0097 10.9785 15.0322 11.3285 13.9861 11.5752C13.3167 11.732 12.5536 11.8506 11.8819 11.4521C12.4356 10.8059 11.5743 9.67209 12.2598 9.39354C13.0675 9.06085 13.9427 9.51753 13.9828 10.6289Z" fill="#F29072"/>
<path d="M19.848 13.4383C19.3738 12.9316 18.9122 12.4081 18.2252 12.1617C17.2771 11.3859 16.3271 10.6148 15.379 9.83899C15.4359 9.69279 15.4928 9.54659 15.5483 9.39711C17.1277 9.38343 17.9932 10.4042 18.7676 11.5546C19.3636 12.0917 19.9563 12.6302 20.5523 13.1674C20.4485 13.4557 20.3448 13.7439 20.2423 14.0355C20.1098 13.8369 19.9806 13.6369 19.848 13.4383Z" fill="#FBD0B8"/>
<path d="M11.7414 12.542C11.786 12.6502 11.8306 12.7585 11.8765 12.87C11.6529 12.9621 11.4279 13.0509 11.2043 13.143C11.0757 13.0962 10.9604 13.0248 10.8558 12.9413C10.6808 12.8292 10.5102 12.8228 10.3423 12.9648C10.2585 13.0646 10.1659 13.1526 10.0686 13.2387C9.08745 12.8563 8.67095 12.3949 9.80985 11.6342C11.1348 10.747 11.1247 10.732 11.7414 12.542Z" fill="#F29072"/>
<path d="M16.628 12.0561C16.719 12.4099 16.7546 12.7521 16.2978 12.8942C15.9305 13.0071 15.7836 12.7453 15.6428 12.4887C15.9705 12.3461 16.2969 12.2001 16.628 12.0561Z" fill="#F5AA8C"/>
<path d="M10.0653 13.24C10.0241 13.1304 9.98146 13.0175 9.93688 12.9093C10.2816 12.353 10.6722 12.5335 11.0699 12.8262C11.1165 12.9298 11.1611 13.0381 11.201 13.1444C10.8325 13.2923 10.4684 13.5267 10.0653 13.24Z" fill="#F4A181"/>
<path d="M18.7676 11.5546C17.6954 10.8376 16.6219 10.1174 15.5483 9.39711C15.4951 9.29627 15.4499 9.19597 15.4033 9.09239C15.176 8.30362 15.6966 8.5534 16.0441 8.6673C16.6889 8.87743 17.2553 8.41393 17.8761 8.48048C18.4172 8.51465 18.7737 8.69775 18.6005 9.32922C18.1371 10.1186 19.4095 10.7531 18.7676 11.5546Z" fill="#F08165"/>
<path d="M25.1118 12.8162C25.2025 14.3633 24.8831 15.6919 23.1878 16.2866C23.1464 16.2998 23.0819 16.3801 23.0914 16.403C23.1292 16.4949 23.1917 16.5804 23.2463 16.6653C23.0424 16.8529 22.8386 17.0404 22.6328 17.2326C22.5892 17.193 22.5455 17.1535 22.4986 17.1153C21.8351 16.5944 20.5738 16.7073 20.5016 15.5937C20.4244 14.4017 21.7134 14.3465 22.4838 13.7529C22.1272 13.6926 21.8615 13.6448 21.5972 13.6002C21.9055 13.4387 22.2104 13.2786 22.5139 13.1152C22.6424 12.8014 22.866 12.7093 23.1807 12.829C23.4309 12.8487 23.6811 12.8684 23.9265 12.8863C24.3465 13.2044 24.7207 12.843 25.1118 12.8162Z" fill="#FEF5CA"/>
<path d="M26.624 6.02431C26.6331 5.32616 26.6389 4.62937 26.648 3.93122C27.8702 4.69001 27.2036 5.35588 26.624 6.02431Z" fill="#F39B7D"/>
<path d="M28.0908 7.71819C27.7333 8.11095 27.3858 8.62242 26.9477 7.80537C27.1151 7.36814 27.3543 6.85908 27.8372 6.87504C28.3253 6.88497 28.026 7.41877 28.0908 7.71819Z" fill="#F5A487"/>
<path d="M28.969 5.07373C29.3164 4.9882 29.7272 4.87656 29.688 5.42596C29.6482 5.98329 29.4013 6.42643 28.6968 6.31765C28.788 5.9041 28.8792 5.49056 28.969 5.07373Z" fill="#F6AE91"/>
<path d="M25.7504 8.67068C26.1017 8.73697 26.2658 8.94563 26.1562 9.28618C26.0261 9.6812 25.7694 9.86365 25.3552 9.61612C25.1869 9.17904 25.342 8.87342 25.7504 8.67068Z" fill="#F6AA8F"/>
<path d="M26.6207 6.02569C26.7462 6.4727 26.845 6.91157 26.2171 7.21626C26.0685 6.69433 26.3486 6.36027 26.6207 6.02569Z" fill="#F28F76"/>
<path d="M30.0705 8.79028C29.8997 8.72635 29.7336 8.66432 29.5628 8.60039C30.694 7.11012 32.31 6.11455 33.5876 4.77115C33.837 4.77966 34.0898 4.7868 34.3379 4.79203C32.9192 6.1245 31.4925 7.45644 30.0705 8.79028Z" fill="#FCD9BE"/>
<path d="M23.1888 12.8295C22.9665 12.9249 22.7442 13.0203 22.522 13.1157C21.227 12.2181 22.1281 10.861 21.9228 9.73705C21.894 9.57242 22.9451 9.40418 23.5066 9.68698C23.4033 10.7347 23.2954 11.7805 23.1888 12.8295Z" fill="#F08367"/>
<path d="M18.5972 9.33059C18.3552 9.04659 18.1147 8.76586 17.8728 8.48186C17.8168 8.21334 17.6917 7.86206 18.1829 7.95515C18.7296 8.05988 19.1409 8.40454 19.2088 8.9674C19.2688 9.40689 18.8483 9.277 18.5972 9.33059Z" fill="#F49F82"/>
<path d="M21.2917 6.89711C21.9942 7.47479 21.7517 8.1655 21.7658 9.13799C21.3068 8.26053 20.8091 7.7251 21.2917 6.89711Z" fill="#F5A588"/>
<path d="M21.0084 9.82977C20.596 10.1838 20.2318 10.0768 19.7643 9.88953C20.251 9.39364 20.6389 9.72877 21.0084 9.82977Z" fill="#F49F82"/>
<path d="M38.1515 13.1691C38.452 12.7615 38.1944 12.3919 38.0845 12.0113C38.2858 12.1777 38.4851 12.3488 38.6864 12.5153C38.9993 12.6588 39.3088 12.8037 39.6216 12.9472C39.2879 13.0847 38.9575 13.2208 38.6237 13.3583C38.4656 13.2968 38.3109 13.2339 38.1515 13.1691Z" fill="#F29072"/>
<path d="M38.2057 13.1775C37.4171 13.2722 37.0519 14.3664 35.933 13.8298C36.542 12.9958 37.1229 12.4726 38.2057 13.1775Z" fill="#F29072"/>
<path d="M11.0719 12.8216C10.6936 12.8508 10.3172 12.8754 9.93886 12.9046C9.97016 12.5541 9.97706 12.1254 10.483 12.2163C10.7486 12.2642 11.2981 12.2335 11.0719 12.8216Z" fill="#F08465"/>
<path d="M24.237 14.0666C23.7298 15.2423 23.2377 15.7443 22.3222 15.5497C21.9889 15.4799 21.8017 15.1771 21.9523 14.8888C22.3994 14.0217 23.2698 14.4573 24.237 14.0666Z" fill="#FEF6D6"/>
</svg>
