<svg width="46" height="45" viewBox="0 0 46 45" fill="none" xmlns="http://www.w3.org/2000/svg">
<path d="M27.2226 44.6944C25.0567 44.5064 22.8876 44.3375 20.7248 44.1239C18.8096 43.9327 16.8756 43.904 14.9887 43.4674C15.2864 42.422 16.1641 42.8299 16.8318 42.7024C17.3834 42.712 17.932 42.6833 18.4836 42.6897C20.0885 43.0403 21.731 42.9733 23.3515 43.12C24.295 43.4578 25.273 43.3112 26.2415 43.3399C26.6835 43.3399 27.1255 43.3399 27.5674 43.3367C29.4732 43.1008 31.3696 44.0442 33.2785 43.3972C34.1969 43.3176 35.131 43.2602 36.04 43.3749C37.4913 43.5566 38.4661 43.1933 38.6604 41.5678C39.1526 41.3096 39.3469 41.6953 39.5726 42.0013C39.676 42.1574 39.7952 42.4921 39.9644 42.3646C41.4533 41.23 43.428 40.7519 44.4373 38.9671C44.8009 37.928 43.9296 36.7743 44.732 35.7799C45.6849 35.8245 44.9295 36.7838 45.4059 37.0834C46.0077 39.2762 45.8322 39.8818 44.0863 41.1025C42.6381 42.116 41.19 43.1486 39.6666 44.0283C38.1151 44.9239 36.3503 44.4299 34.6765 44.5319C34.3725 44.551 34.0621 44.449 33.7957 44.6753C31.5984 44.9813 29.4105 45.2107 27.2226 44.6944Z" fill="#B1A492"/>
<path d="M11.8574 0.768161C17.512 0.876525 23.1667 0.965767 28.7869 1.73069C29.2947 2.07172 29.9122 1.70838 30.4293 1.99841C30.6111 2.00479 30.793 2.01435 30.9716 2.02072C31.4073 2.45737 32.1063 1.91236 32.5514 2.46693C32.4135 2.97688 31.9809 2.99919 31.5891 3.08206C30.9465 3.14899 30.3102 3.10755 29.6771 2.98644C27.7713 2.75059 25.8687 2.46374 23.9378 2.47968C20.8002 2.29801 17.6625 2.04941 14.5155 2.13865C13.9669 2.15459 13.3494 2.18964 13.0517 1.52352C13.7726 0.838279 14.7192 1.52352 15.5624 1.09644C15.6878 1.06138 15.4464 0.777723 15.5279 0.972141C15.5624 1.05501 15.5404 1.09644 15.4652 1.11556C14.4684 1.37054 13.4403 1.12831 12.4341 1.33229C12.1489 1.39285 11.8323 1.18568 11.8574 0.768161Z" fill="#BCAB92"/>
<path d="M45.3999 37.0862C44.8733 36.8248 45.2745 36.0918 44.7793 35.8145C44.2056 35.2631 44.2558 34.5205 44.3812 33.8735C44.7479 31.9771 44.563 30.0712 44.6069 28.1684C44.726 26.186 44.5254 24.194 44.7291 22.2116C45.215 21.249 44.5818 20.0188 45.4406 19.1455C45.9484 22.0044 46.0958 24.8856 45.9422 27.7828C45.7729 30.8871 45.5817 33.985 45.3999 37.0862Z" fill="#BCB19F"/>
<path d="M40.6887 2.3777C41.3031 2.34901 41.9174 2.30121 42.5318 2.29165C43.7731 2.27571 44.4156 3.07251 44.3247 4.1689C44.2119 5.56488 44.3028 7.0023 43.8452 8.36323C44.005 8.92099 44.1273 9.47874 43.7699 10.0142C43.2183 9.98232 43.2653 9.47237 43.118 9.11859C43.259 9.78471 43.0929 10.3106 42.5506 10.709C42.14 10.7026 42.0365 10.3998 41.9582 10.0747C41.9237 9.82933 41.9425 9.58711 41.9895 9.34807C42.4472 7.59831 43.2151 5.91229 43.049 4.03503C42.607 2.87809 41.6416 3.62708 40.9363 3.43266C38.9867 3.25417 36.9963 3.84062 35.0873 3.06932C35.0027 2.18647 35.6829 2.55937 36.0308 2.53387C37.5793 2.40957 39.1434 2.68686 40.6887 2.3777Z" fill="#AF9F89"/>
<path d="M0.551423 24.6434C0.777108 21.0833 1.05294 17.5328 2.11868 14.1002C2.58885 14.4858 2.60451 15.0755 2.77064 15.6013C2.59511 18.3837 2.09046 21.1247 1.77387 23.8912C1.58893 25.5007 1.97135 27.1612 1.32878 28.723C1.17832 28.876 1.00906 28.9015 0.820987 28.7995C0.38529 27.9485 0.595294 27.0433 0.636042 26.1605C0.661118 25.6473 0.908757 25.131 0.551423 24.6434Z" fill="#CABFAE"/>
<path d="M4.29085 5.78498C4.53221 4.47505 3.93664 3.20974 4.178 1.87112C4.43189 0.468762 5.03686 -0.190984 6.47873 0.0480544C8.05539 0.309403 9.6446 0.51657 11.2275 0.749235C11.494 0.978712 11.8419 1.18907 11.4124 1.5779C9.61951 2.06554 7.90494 1.26237 6.14648 1.23369C4.7861 1.97311 5.59794 3.2703 5.38793 4.30613C5.35032 5.07743 5.43182 5.86785 4.98045 6.56266C4.87701 6.70927 4.73908 6.81763 4.57295 6.88456C3.96799 6.65827 4.19995 6.20251 4.29085 5.78498Z" fill="#B1A18C"/>
<path d="M43.5442 10.0014C44.0364 9.52968 43.7323 8.90818 43.8483 8.36636C44.6037 11.9264 45.1366 15.5216 45.4375 19.1518C45.2275 20.1271 45.6851 21.1756 45.1146 22.1095C44.4094 21.2394 44.6507 20.0793 44.2338 19.1199C44.1837 18.9606 44.1555 18.7948 44.1367 18.6291C44.1273 16.3439 43.7104 14.1065 43.3123 11.8691C43.2088 11.289 43.0521 10.7312 43.3499 10.1703C43.4157 10.1129 43.4784 10.0556 43.5442 10.0014Z" fill="#BCAD9A"/>
<path d="M16.9228 43.1037C16.2865 43.2695 15.5466 42.865 14.9887 43.4674C11.6128 43.1359 8.24645 42.7595 4.95521 41.8862C4.92073 41.2042 5.463 41.2615 5.87362 41.1468C6.40335 41.1117 6.93308 41.1277 7.45654 41.2392C8.61945 41.5516 9.80116 41.7301 11.0048 41.7874C12.9043 42.1731 14.8634 42.1412 16.7472 42.6352C16.9134 42.75 16.9729 42.9061 16.9228 43.1037Z" fill="#BAAC99"/>
<path d="M0.551423 24.6434C1.26609 25.9916 0.692364 27.4513 0.91178 28.8441C1.13746 29.08 1.29107 29.3732 1.27539 29.6919C1.17195 31.9484 1.70794 34.1858 1.47912 36.4424C1.27538 36.7802 1.06224 37.0607 0.776998 36.5029C0.717443 36.385 0.78326 36.2416 0.711167 36.1268C0.714301 36.283 0.667287 36.4169 0.538773 36.5125C-0.0034973 35.2599 0.234725 33.9372 0.225322 32.6432C0.209649 29.9724 0.150206 27.2951 0.551423 24.6434Z" fill="#C4B9A7"/>
<path d="M0.538773 36.5125C0.573252 36.1683 0.607681 35.8213 0.654699 35.3815C1.06532 35.85 0.701721 36.4587 1.16876 36.7743C1.2816 36.8731 1.35684 36.9942 1.39132 37.144C1.09041 39.9869 1.0904 39.9869 4.08385 40.6594C4.65433 40.8794 5.30945 40.7455 5.85172 41.0961C5.98337 41.214 6.01785 41.3574 5.95516 41.5232C5.59469 41.5646 5.19348 41.4881 4.95839 41.8865C4.50389 41.8228 4.04311 41.7877 3.59801 41.6921C-0.248035 40.8666 -0.530095 40.3817 0.538773 36.5125Z" fill="#BBAF9D"/>
<path d="M4.29085 5.78498C4.36295 6.14195 4.24678 6.56572 4.64173 6.80795C5.16519 7.77366 4.39096 8.56409 4.30319 9.45012C3.58226 11.4039 3.59167 13.5966 2.44757 15.4133C1.98366 15.0659 2.21247 14.5432 2.12157 14.1002C2.50398 11.2349 3.37871 8.50684 4.29085 5.78498Z" fill="#C0B3A0"/>
<path d="M40.6887 2.3777C39.4255 2.97689 38.0868 2.53702 36.7923 2.67726C36.2061 2.741 35.5542 2.44778 35.0526 2.9896C35.1529 3.17765 35.1153 3.33063 34.9398 3.44856C33.7644 3.45493 32.4917 3.88839 31.5796 2.68682C31.8116 2.66132 32.0404 2.63583 32.382 2.59758C31.8837 2.17368 31.263 2.55296 30.9747 2.01751C34.2032 2.30755 37.4445 2.38089 40.6887 2.3777Z" fill="#BFB09C"/>
<path d="M11.5501 1.36461C11.4435 1.16063 11.3341 0.953214 11.2275 0.749235C11.4375 0.755609 11.6474 0.761787 11.8574 0.768161C13.0328 1.50121 14.3743 0.784545 15.5905 1.42836C14.7536 1.42836 13.9167 1.42836 13.0829 1.42836C12.5563 1.85225 12.0422 1.85225 11.5501 1.36461Z" fill="#AB987C"/>
<path d="M30.4293 1.99841C29.8714 1.98248 29.2696 2.23745 28.7869 1.73069C29.3573 1.67332 29.9184 1.66695 30.4293 1.99841Z" fill="#BFB09C"/>
<path d="M45.0645 28.1493C45.2713 30.715 44.8106 33.2584 44.7793 35.8145C44.4282 36.9842 45.3528 38.1538 44.773 39.3203C43.8953 39.2279 44.027 38.4375 43.8796 37.8989C43.4972 36.5188 44.3498 34.8392 42.8578 33.9627C42.7449 34.5969 42.7042 34.6161 43.0176 35.3587C43.2653 35.9419 43.3844 36.4583 42.9299 36.9778C42.5286 37.5036 42.118 38.02 41.4692 38.259C39.2437 38.5522 39.0525 38.361 39.0117 35.7858C39.0399 35.1898 38.9772 34.5619 39.5007 34.1189C40.0555 33.7428 40.3972 34.377 40.8736 34.4854C41.0617 33.8352 40.8172 33.15 41.2905 32.6209C41.4723 32.4201 41.5037 32.1332 41.3532 31.8783C40.1934 29.9054 41.1087 27.8943 41.2466 25.8991C41.2717 25.5453 41.3313 25.0258 41.745 25.0163C42.3124 25.0035 42.2716 25.59 42.2842 25.982C42.303 26.4505 42.234 26.9254 42.2622 27.3971C42.5224 24.8952 41.3031 22.7406 40.6668 20.4458C40.6197 20.0283 40.6354 19.6236 40.905 19.273C41.7544 19.1518 41.604 19.9455 41.8735 20.3566C42.1243 21.3064 43.2214 21.8833 43.002 23.0402C43.1179 22.5526 42.8515 22.1223 42.8264 21.657C42.4472 20.347 42.7857 19.3622 44.0834 18.8172C44.2276 18.7726 44.3561 18.8013 44.4689 18.9064H44.4564C44.8858 21.3446 44.9077 23.8115 44.9265 26.2784C44.9297 26.9031 44.7761 27.5469 45.0645 28.1493Z" fill="#E4D8C7"/>
<path d="M39.4318 35.8019C39.4474 37.8704 39.4474 37.8704 41.6228 38.0393C42.0835 38.7628 41.325 39.0114 41.1463 39.4895C41.5037 38.5142 43.1273 38.2592 42.5694 36.7613C42.7073 36.4712 43.2747 36.2513 42.8609 35.8593C41.5569 34.6322 42.8546 33.4689 42.8327 32.2578C43.2935 32.5351 43.0741 32.994 43.2214 33.3064C43.3812 33.6506 42.6101 34.8267 43.9768 34.2625C44.2338 34.1573 44.1178 34.6737 44.1272 34.8936C44.1868 36.3947 43.9266 37.9371 44.773 39.3203C43.936 40.6845 42.4377 41.166 41.2278 42.0265C40.6918 42.409 40.0775 42.6799 39.7076 43.2822C39.3252 42.8998 39.5415 42.5109 39.4474 42.1795C38.5478 40.9237 38.6826 39.4704 38.6857 38.0393C38.8738 37.2776 38.2689 36.2354 39.4318 35.8019Z" fill="#DFD2BE"/>
<path d="M38.8142 41.5513C38.7922 41.5991 38.7734 41.6501 38.7515 41.6947C38.4161 42.3736 39.3627 43.2724 38.8455 43.572C38.2061 43.9417 37.2501 43.7791 36.4288 43.7919C35.4477 43.8078 34.4666 43.7696 33.4855 43.7536C33.2692 43.5624 33.7143 43.3457 33.5796 43.3744C31.5014 43.8046 29.4075 43.5751 27.3199 43.5783C26.0755 43.2373 24.7402 43.7536 23.5272 43.1672C23.1761 42.9983 22.4207 43.0046 23.1009 42.2971C23.9065 41.9146 24.6023 42.2748 25.3421 42.5712C25.9784 42.8262 26.6899 42.6094 27.0786 42.6541C26.8435 42.6509 26.3232 42.67 25.8028 42.6477C25.4675 42.6349 25.1415 42.5266 25.0631 42.1823C24.944 41.666 25.3953 41.615 25.7276 41.4875C28.743 41.3346 31.7584 41.4429 34.7738 41.4238C35.3443 41.4206 35.9148 41.3983 36.4852 41.3569C37.5604 41.2772 38.065 40.7736 38.0556 39.6422C38.0494 38.941 37.8864 38.1219 38.6951 37.6629C38.8926 37.7426 38.9803 37.8892 38.9646 38.1028C38.8831 39.2533 39.1339 40.4135 38.8142 41.5513Z" fill="#DACDB9"/>
<path d="M25.6839 41.8351C25.1134 41.9626 25.0476 42.1953 25.6086 42.4311C26.2136 42.6829 26.922 42.2973 27.5646 42.6861C26.0381 43.161 24.6056 42.4502 23.1387 42.5044C21.6623 43.3777 20.0292 43.0016 18.4557 43.1068C17.9448 43.1068 17.4307 43.1068 16.9198 43.1068C16.8853 43.0208 16.8602 42.9283 16.8446 42.8359C16.9919 42.651 17.205 42.6765 17.4056 42.6574C17.2928 42.6319 17.1737 42.667 17.0671 42.6224C16.6753 42.4694 16.6157 42.0359 16.8696 41.9116C17.3022 41.7013 17.0452 41.2774 17.2896 41.0574C17.4965 40.9268 17.7254 40.8598 17.9636 40.828C18.6406 40.7833 19.3208 40.8025 19.9979 40.7897C20.5997 40.7993 21.2047 40.777 21.8002 40.9045C22.612 41.2009 23.4584 41.0957 24.2953 41.1212C24.7247 41.1308 25.1541 41.1467 25.5397 41.3794C25.7027 41.4973 25.7497 41.6503 25.6839 41.8351Z" fill="#E1D2BD"/>
<path d="M18.4587 43.1043C20.0134 42.8525 21.5524 42.4732 23.1416 42.5019C23.7967 43.0915 24.5991 43.1361 25.4173 43.1393C26.1351 43.1425 26.8717 43.0341 27.5299 43.458C27.6365 43.525 27.671 43.5919 27.6365 43.6588C27.602 43.7258 27.5675 43.7608 27.5299 43.7608C27.1068 43.7544 26.6867 43.7481 26.2636 43.7417C25.3389 43.3847 24.3421 43.8437 23.4174 43.4772C21.7499 43.5473 20.0949 43.4294 18.4587 43.1043Z" fill="#E0D2C0"/>
<path d="M27.5298 43.7635C27.5298 43.6615 27.5298 43.5595 27.5267 43.4607C28.6896 43.0782 29.8901 43.7921 31.006 43.4192C31.8711 43.1292 32.708 42.9348 33.5637 43.1674C34.1969 43.3396 33.4604 43.5433 33.4855 43.7536C31.5014 44.5377 29.514 43.5882 27.5298 43.7635Z" fill="#E3D6C3"/>
<path d="M38.8142 41.5513C38.8236 40.3848 38.8331 39.2187 38.8425 38.0522C38.9334 37.9024 39.0274 37.896 39.1277 38.0426C39.1277 39.4323 39.0933 40.8251 39.4475 42.186C39.2375 41.9724 39.0273 41.7616 38.8142 41.5513Z" fill="#BCB09C"/>
<path d="M23.4175 43.48C24.3673 43.5661 25.3578 43.1772 26.2637 43.7446C25.3108 43.6904 24.3266 44.0155 23.4175 43.48Z" fill="#DACDB9"/>
<path d="M24.0601 2.06524C25.9816 1.95368 27.8591 2.28196 29.7336 2.65805C28.6083 3.18394 27.7087 3.18075 26.201 2.76004C29.7054 3.19031 33.2317 3.4166 36.7517 3.69389C37.0746 3.86599 37.4194 4.02217 37.6764 4.28033C38.1591 4.77115 38.2187 5.15043 37.4037 5.39265C35.9775 5.81336 34.5513 6.09702 33.0561 5.96635C32.5327 5.91854 32.0155 6.00141 31.5108 6.17033C30.5705 6.32331 29.6427 6.36475 28.8089 5.77193C28.6114 5.61257 28.4547 5.41496 28.3105 5.2078C27.4579 4.47475 26.4831 4.10184 25.3672 3.95842C23.3643 3.70345 21.3644 3.63333 19.3489 3.7162C18.6782 3.74488 18.1735 3.99667 17.7347 4.47475C16.4715 4.73291 15.1926 5.08031 14.1363 3.92974C13.7727 3.2923 13.6943 2.69311 14.3525 2.18635C16.578 1.88994 18.8004 2.0238 21.0228 2.24372C22.0446 2.34252 23.0759 2.59749 24.0601 2.06524Z" fill="#CEBDA6"/>
<path d="M24.0601 2.06524C24.3266 3.19669 23.4207 2.63266 23.1198 2.64222C20.1984 2.71872 17.2958 2.16733 14.3682 2.36175C11.9515 2.51792 9.5348 2.86533 7.12123 2.34263C6.95823 2.29163 6.80465 2.21196 6.6636 2.11315C6.33448 1.71157 5.51009 1.59364 5.90817 0.768161C7.79828 0.870151 9.64118 1.44111 11.5501 1.36461C12.061 1.38374 12.5721 1.4056 13.0831 1.42472C13.6285 1.89005 14.2836 1.69882 14.8854 1.68607C17.9541 1.61914 21.0071 1.84851 24.0601 2.06524Z" fill="#E0D3C2"/>
<path d="M36.9303 3.94568C33.1313 3.94887 29.3573 3.61422 25.5991 3.10108C25.5959 2.95447 25.5928 2.80467 25.5897 2.65806C26.972 2.65806 28.3544 2.65805 29.7336 2.65805C30.3479 2.66761 30.9622 2.67718 31.5797 2.68993C32.6799 3.22219 33.9212 2.92897 35.0465 3.30187C36.4413 2.97678 37.855 3.22219 39.2593 3.1712C39.4693 3.23813 39.5539 3.38474 39.5131 3.60147C38.7421 4.43014 37.8581 4.3632 36.9303 3.94568Z" fill="#DCCEBB"/>
<path d="M45.0645 28.1493C44.9673 27.9166 44.7917 27.6839 44.7823 27.448C44.6601 24.6019 44.5629 21.7557 44.4595 18.9096C45.1428 19.8753 44.9861 21.0195 45.1177 22.1031C45.0989 24.1206 45.0801 26.135 45.0645 28.1493Z" fill="#ECE1D3"/>
<path d="M25.6839 41.8351C25.6557 41.7459 25.6367 41.6537 25.6273 41.5581C26.1665 40.9812 26.878 41.1852 27.5299 41.1278C28.1913 41.0704 28.8935 41.1342 29.3041 40.4266C30.2789 39.2697 31.5077 39.5629 32.7207 39.8147C31.9308 39.6426 31.9245 39.1836 32.3289 38.6163C32.6549 38.1573 33.2567 37.9024 33.3006 37.2362C34.1532 36.2164 34.8114 35.1359 34.8835 33.7176C34.9086 33.2108 35.2158 32.4459 35.9555 32.6244C36.6576 32.7933 36.4037 33.5168 36.4852 34.0395C36.2407 32.5798 36.1812 31.12 36.5166 29.6635C36.6138 29.2492 36.4884 28.8603 36.2564 28.4651C35.5982 27.34 35.8019 26.5114 36.877 25.67C36.9115 25.6445 37.0683 25.7337 37.0745 25.619C37.0808 25.5106 37.0244 25.4214 36.946 25.3449C35.9994 24.3951 36.4476 23.4134 36.8645 22.419C37.272 21.4469 37.6889 20.5258 37.178 19.3816C36.8551 18.6645 37.6293 17.8932 37.5071 17.0805C37.7077 15.8789 38.5885 14.8495 38.3785 13.5395C38.3283 13.1762 38.5227 12.7077 37.9647 12.5611C37.6168 12.3188 37.1968 12.2041 36.8708 11.9428C36.3473 11.5221 36.2721 10.977 36.9429 10.7125C38.1622 10.2312 38.8299 9.08067 39.8705 8.39224C40.4253 8.26475 40.9895 8.23288 41.5381 8.36036C42.0333 8.4751 42.5944 8.60578 42.2747 9.36752C42.2527 9.56193 42.2308 9.75635 42.212 9.94758C42.2151 12.6408 41.56 15.2415 41.0491 17.855C40.535 20.4908 40.2059 23.1457 39.8862 25.807C39.5289 29.7719 39.3126 33.7527 38.7891 37.7016C38.228 38.6354 38.5728 39.6617 38.5133 40.6433C38.4725 41.319 38.3534 41.5836 37.5447 41.6696C33.589 42.0903 29.6365 41.765 25.6839 41.8351Z" fill="#F3E9D9"/>
<path d="M42.2746 9.37042C41.5756 8.05093 40.3688 9.00071 39.4379 8.71386C38.7451 9.35449 37.8831 9.18557 37.0713 9.21107C35.4664 9.25887 33.8616 9.16007 32.2567 9.16644C32.0655 9.16963 31.8743 9.16007 31.6831 9.14732C31.401 9.13139 31.1189 9.09633 30.8462 9.01983C28.7022 8.73617 26.5331 8.83498 24.3797 8.59913C22.9973 8.44614 21.6056 8.39196 20.2359 8.12742C19.5807 7.90113 18.8974 7.87245 18.2141 7.84058C17.9727 7.80552 17.7471 7.72902 17.5527 7.57923C17.4211 6.54658 18.1765 6.74418 18.747 6.70275C19.0259 6.68363 19.0009 6.69956 19.0824 6.34897C19.2109 5.79759 19.6779 5.8709 20.0823 5.84221C20.496 5.87727 20.9035 6.02388 21.3235 5.90277C21.4614 5.86771 21.6025 5.84859 21.7436 5.83265C22.966 5.46294 24.0223 6.29479 25.2103 6.32985C26.4641 6.3681 27.6646 6.32348 28.8463 5.88683C29.6519 6.23742 30.6299 5.63823 31.3634 6.36491C31.2066 6.90354 30.5327 6.75056 30.2945 7.18402C31.1408 7.75771 38.6323 7.92982 40.6478 7.42624C39.3125 7.04378 37.9928 7.20314 36.6732 7.45174C36.3535 7.49317 36.0432 7.46768 35.7454 7.337C35.4664 7.16171 35.2721 6.93542 35.3348 6.57208C35.3693 6.53702 35.4006 6.49558 35.4414 6.4669C35.7172 6.26929 36.0463 6.39678 36.341 6.32029C36.0056 6.38722 35.6169 6.22149 35.3348 6.54339C35.1561 6.69956 34.9492 6.72506 34.7267 6.69319C33.7581 6.14499 32.5231 6.61351 31.6141 5.8454C31.8429 5.7466 32.0718 5.56811 32.3037 5.56174C34.1311 5.498 35.9867 5.77528 37.858 4.67252C38.0148 4.22631 36.7641 4.65658 36.9334 3.9554C37.8016 4.12113 38.5947 3.64624 39.441 3.63668C39.9049 3.51238 40.281 3.94584 40.9142 3.52194C41.563 3.08849 42.773 2.88132 43.4876 3.93309C43.5378 5.84221 43.1178 7.65572 42.2746 9.37042Z" fill="#D1C2AB"/>
<path d="M44.1398 18.9226C43.3624 19.5983 42.5756 20.2708 43.1931 21.4819C42.3719 21.6126 42.118 21.0006 41.8359 20.4206C41.8265 20.3982 41.7387 20.3951 41.7011 20.4142C41.6604 20.4333 41.6353 20.4875 41.6039 20.5257C41.1338 20.2293 41.5099 19.5377 41.0241 19.2477C40.7106 17.2461 41.5757 15.4039 41.7983 13.4725C41.9111 12.5036 42.0616 11.5092 42.5694 10.6327C42.7261 9.97616 42.8828 9.32279 43.0458 8.6471C43.7166 8.91801 43.3844 9.55517 43.5442 10.0014L43.4564 10.0144C43.1461 11.9586 43.9297 13.7976 43.9893 15.7099C44.0175 16.7808 44.5535 17.8262 44.1398 18.9226Z" fill="#E1D4C2"/>
<path d="M42.5663 10.6296C42.3092 13.549 41.5037 16.3665 41.0241 19.2413C41.0147 19.662 41.0084 20.0827 40.999 20.5035C40.8235 22.3807 41.0993 24.3185 40.2906 26.1129C39.6261 26.6324 39.6731 25.9408 39.4944 25.6284C40.1088 20.3505 40.9864 15.1172 42.212 9.94758C42.2684 10.2089 42.2936 10.4893 42.5663 10.6296Z" fill="#C0B4A3"/>
<path d="M43.4845 3.92361C42.4501 3.57302 41.4314 3.26705 40.4534 4.11802C39.8296 4.66303 39.9111 3.50927 39.4378 3.6272C39.4378 3.52521 39.4378 3.42003 39.4409 3.31804C40.0208 2.91327 40.7324 3.37541 41.3216 3.01845C42.0614 3.27661 43.3246 2.23759 43.4845 3.92361Z" fill="#E0D3BF"/>
<path d="M41.3216 3.01845C40.7606 3.54114 40.0647 3.20011 39.4409 3.31804C37.974 3.31167 36.5103 3.30857 35.0434 3.3022C35.0465 3.19702 35.0497 3.09503 35.0497 2.98985C37.1404 2.99941 39.2309 3.00888 41.3216 3.01845Z" fill="#D1C2AB"/>
<path d="M21.8784 41.2331C21.2546 41.2299 20.6309 41.2267 20.0071 41.2235C19.2799 40.959 18.5495 40.9781 17.8192 41.214C17.6092 41.2203 17.4023 41.2267 17.1923 41.2331C15.4276 41.6952 13.7036 41.0482 11.9577 41.0291C9.28707 40.4714 6.58826 40.022 3.94587 39.324C3.0494 39.0881 2.14353 38.8236 1.51663 38.0427C1.269 37.7686 1.34424 37.3957 1.23454 37.077C1.21886 36.9718 1.19692 36.8698 1.17184 36.7678C0.968098 34.1289 0.830181 31.4867 0.917947 28.8381C1.00571 28.8031 1.09661 28.7776 1.19065 28.7616C1.84889 29.3194 1.22512 30.078 1.46021 30.6134C1.66709 29.5521 1.25646 28.3378 1.84889 27.1362C2.61371 27.4517 2.50401 28.1401 2.4852 28.6214C2.46012 29.2812 3.47256 29.3608 3.18419 30.011C3.28449 29.4373 3.42242 28.9561 2.74223 28.3154C2.08712 27.6971 2.45698 26.5944 3.18419 25.9506C3.90513 25.3131 4.23426 23.5251 5.85793 24.9179C5.06804 24.0287 5.29684 23.3721 6.17764 22.7952C7.00829 22.2502 7.67282 22.0239 8.44704 22.9992C9.01439 23.7163 9.37797 24.6757 10.3309 25.039C10.4688 25.0996 10.5848 25.1888 10.6788 25.3099C10.7258 25.9633 10.2212 26.2246 9.79801 26.4956C8.41569 27.3848 7.62267 28.6979 7.09607 30.2214C6.84217 32.003 6.63215 33.7719 8.0082 35.2444C9.5159 36.9463 11.5941 37.4945 13.5093 36.8412C15.4338 36.1878 16.7441 36.736 18.1577 37.7431C18.9727 38.3296 20.0134 38.2371 20.8816 38.6706C21.4082 38.9638 21.963 38.9256 22.5272 38.8172C22.6808 38.8108 22.8313 38.8331 22.9755 38.8778C23.2482 39.0244 23.5616 39.1359 23.5115 39.5471C22.5178 40.5128 21.1136 39.7192 20.2422 40.3694C19.8378 40.3949 20.1576 40.7231 20.0573 40.5383C21.1167 40.2833 22.1448 40.3885 23.1416 40.8379C23.2419 40.9972 23.2356 41.1534 23.1322 41.3096C22.7028 41.3925 22.2796 41.4785 21.8784 41.2331Z" fill="#F6EDDC"/>
<path d="M10.29 25.2903C9.81985 25.5612 9.46878 25.4305 9.33086 24.9174C9.09577 24.0409 8.30589 23.6202 7.82944 22.9381C7.10223 21.8991 6.65714 23.1995 6.07099 23.3524C5.45035 23.515 5.51932 24.009 5.99576 24.4201C6.14935 24.554 6.25906 24.7452 6.36563 24.9269C6.52863 25.2074 7.02074 25.4847 6.53802 25.8321C6.25905 26.0297 5.92994 25.8161 5.74187 25.5357C4.80465 24.1206 4.31565 24.4393 3.94264 25.9309C3.82353 26.4026 3.06813 26.3803 2.8832 27.1452C2.57915 28.4201 3.08066 28.3946 4.06803 28.1013C3.68876 29.2615 3.12142 30.2463 3.25307 31.4479C2.96783 30.087 1.7579 29.0862 2.04941 27.5563C1.65759 28.9141 1.98045 30.3579 1.19055 31.6582C1.19055 30.6925 1.19055 29.73 1.19055 28.7643C1.03696 24.2576 1.79552 19.8402 2.45063 15.4132C2.82051 13.3542 3.23426 11.3081 4.01475 9.36071C4.22476 9.20772 4.1464 8.72965 4.42223 8.77108C5.10242 8.86988 4.74194 9.4372 4.78583 9.81329C4.95509 9.29059 4.89241 8.70415 5.10555 8.18464C5.3187 7.6715 5.5099 6.91933 6.24024 7.19342C6.98939 7.47708 6.68847 8.13364 6.41264 8.65953C5.84529 9.73998 5.51303 10.8874 5.3375 12.0985C5.25914 12.6308 5.36886 13.1503 5.31244 13.6698C5.27169 14.0395 5.19019 14.4092 4.75449 14.5208C4.13072 14.1096 4.42224 13.418 4.3282 12.8475C4.54135 13.8546 4.04295 14.7598 3.92384 15.8084C4.14952 15.2666 3.88937 14.5941 4.58209 14.3901C4.88301 14.5208 4.95197 15.2761 5.52245 14.6992C5.81709 14.4028 5.93619 14.2371 5.71051 13.8005C4.69179 11.8308 6.15874 10.2977 6.68534 8.60535C6.81385 8.19739 7.25269 8.17189 7.61316 8.38543C8.15229 8.70734 8.43754 9.18541 8.28395 9.84197C8.1617 10.3551 7.84824 10.7918 7.65077 11.2762C7.34045 12.0411 7.43762 12.8156 7.9987 13.2013C8.21811 13.3511 8.7071 13.5614 9.09891 13.673C10.7226 14.151 10.8448 14.5303 9.75717 15.7223C9.47193 16.0347 9.15533 16.3056 8.84188 16.5861C8.20557 17.3382 7.7072 18.186 7.19001 19.0274C7.74168 19.6394 8.41559 19.7063 9.13966 19.6043C9.29012 19.6139 9.43117 19.6489 9.56909 19.7095C9.6976 19.7955 9.77911 19.9135 9.81673 20.0601C9.53462 20.6975 9.28071 21.233 10.3715 21.37C11.0956 21.4593 11.6253 22.0584 12.0297 22.6991C12.0422 23.4544 13.4026 23.9484 12.4528 24.8982C12.3525 25.0066 12.2366 25.0895 12.1081 25.1596C11.8228 25.2616 11.5438 25.2648 11.2837 25.0926C11.0549 24.9556 11.3714 24.5317 11.0454 24.503C10.5283 24.4584 10.5251 25.0066 10.29 25.2903Z" fill="#F7EFE2"/>
<path d="M8.80434 14.1038C8.63194 13.6034 8.06774 13.6257 7.72921 13.409C5.96135 12.2903 7.36247 11.2544 7.73235 10.2505C7.90161 9.79151 8.23387 9.43454 7.83579 8.98515C7.6728 8.79711 7.41263 8.53894 7.2277 8.56125C6.63841 8.63137 6.92364 9.2465 6.7293 9.58434C6.49421 9.99549 6.2842 10.4258 6.11807 10.8688C5.63849 12.1468 5.31565 13.4153 7.03336 14.7061C5.50372 14.2854 5.6479 15.5762 4.97085 15.9428C4.42858 15.5157 4.74202 14.9452 4.64798 14.4639C5.25294 13.7755 4.89562 12.9468 4.95204 12.1851C5.05861 10.7349 5.40654 9.38036 6.2654 8.19792C6.48482 7.89513 6.54437 7.55729 6.20584 7.39475C5.8109 7.2067 5.69805 7.59235 5.59775 7.89513C5.2843 8.83535 4.96771 9.77557 4.61351 10.8305C4.13706 10.1644 4.8486 9.71501 4.63231 9.25287C4.35961 8.67281 4.24051 9.41861 4.01483 9.36761C4.22484 8.51663 4.43485 7.66566 4.64487 6.81786C4.67621 6.73818 4.70128 6.65851 4.71695 6.57564C5.51939 5.8649 6.36257 5.97326 7.2277 6.4354C8.57867 7.51905 12.5344 8.65368 14.6032 8.574C13.3901 8.70149 12.246 8.31265 11.1145 7.97163C10.7101 7.85051 10.218 7.47442 10.8104 6.91667C12.1583 6.47046 13.5249 6.71588 14.8884 6.79555C15.7159 7.20033 16.7535 6.75731 17.5089 7.4553C17.7064 7.46486 17.9038 7.47124 18.1013 7.4808C18.7 7.84095 19.4115 7.41068 20.0102 7.76446C23.4425 8.01943 26.8654 8.47839 30.3165 8.45289C30.5484 8.4497 30.7835 8.62819 31.0155 8.72061C30.7114 8.92778 30.4105 9.02021 30.2475 8.85766C30.6143 8.87997 31.1064 9.04571 31.6142 8.73336C31.7176 8.7238 31.8242 8.72699 31.9276 8.73655C32.4981 9.43773 33.6046 8.63456 34.1939 9.5684C33.639 10.0847 32.9275 9.66402 32.4981 9.99867C32.7144 10.0146 32.9965 9.84888 33.3037 9.86162C33.5732 9.87437 33.8334 9.90306 33.9055 10.2313C33.9744 10.5405 33.7926 10.7477 33.5513 10.8688C32.379 11.4552 30.9653 11.264 29.8494 12.048C29.7773 12.099 29.5799 12.0544 29.5642 11.9907C29.1348 10.327 28.0565 11.8823 27.3324 11.5285C26.4234 11.0855 25.436 11.0696 24.4236 11.1907C23.5553 11.2959 22.7247 12.2966 21.7467 11.299C21.5775 11.1269 21.0133 11.5668 20.9036 12.048C20.797 12.5165 20.6653 12.9755 20.2892 13.3102C19.9005 14.0942 20.2359 14.9739 19.9507 15.7738C19.7375 16.3699 19.562 16.9754 18.9382 17.2814C17.791 17.6001 16.6218 17.4121 15.462 17.4471C15.1925 17.4376 14.9261 17.3993 14.6753 17.2909C13.8164 16.8384 14.064 15.9109 13.7976 15.2002C13.6691 14.6456 13.6597 14.0815 13.7318 13.5205C13.7224 13.2623 13.7412 12.9787 13.4121 12.9054C13.1644 12.848 12.7883 13.0616 12.6755 12.8958C11.9451 11.8504 11.2211 11.6082 10.381 12.7556C10.3497 12.797 10.3183 13.0711 10.3779 13.138C10.1365 13.5428 9.68515 13.495 9.32782 13.6448C9.22125 13.6958 9.12406 13.7627 9.03943 13.8456C8.95166 13.9189 8.87644 14.0113 8.80434 14.1038Z" fill="#F6ECDC"/>
<path d="M7.16202 6.79227C6.38466 6.28232 5.53834 6.54367 4.71397 6.56917C4.99921 5.82656 4.98041 5.04569 4.98041 4.26802C5.41611 4.23296 5.46625 4.54849 5.51954 4.8704C5.54148 5.00745 5.41297 5.28792 5.50073 5.25286C7.21217 4.54849 8.86405 5.5429 10.5473 5.41222C12.7979 5.37716 14.7632 6.4863 16.9197 6.88151C16.2521 7.41058 15.6158 7.35003 14.9701 7.14924C13.5157 7.14286 12.0613 7.13649 10.6068 7.13011C10.4846 7.24804 10.3404 7.30222 10.1743 7.29903C9.46588 7.22254 8.75121 7.22573 8.04281 7.13011C7.70742 7.12374 7.39711 7.05999 7.16202 6.79227Z" fill="#D1C0A9"/>
<path d="M10.6038 5.85491C8.89858 5.93777 7.26864 5.14098 5.51332 5.48838C5.04314 5.58081 5.52587 4.52904 4.98047 4.26131C4.9742 3.48045 4.95537 2.69641 4.96164 1.91555C4.96791 1.28448 5.14335 0.768161 5.90817 0.768161C5.84235 1.45978 6.64488 1.28767 6.83295 1.73069C6.43487 2.31076 6.76399 2.81752 6.98654 3.33703C7.26238 3.6685 6.45368 4.28681 7.28432 4.47167C8.46603 4.5386 9.67282 4.50035 10.632 5.38958C10.7229 5.55212 10.7135 5.70829 10.6038 5.85491Z" fill="#DACBB6"/>
<path d="M44.1398 18.9226C43.8608 16.8573 43.5628 14.7949 43.3058 12.7264C43.193 11.8212 42.773 10.881 43.4531 10.0141C43.7729 11.987 44.1365 13.9535 44.3966 15.9359C44.522 16.9144 44.4531 17.9183 44.4719 18.9095C44.359 18.9127 44.2495 18.9162 44.1398 18.9226Z" fill="#E7DCC9"/>
<path d="M1.51356 37.7426C3.61995 39.2501 6.14951 39.3521 8.53801 39.9163C9.63822 40.1744 10.751 40.3657 11.8606 40.5888C12.033 41.4142 11.334 41.7043 10.9234 42.1696C9.72285 42.2206 8.55681 42.0644 7.45346 41.5577C7.65093 41.2389 8.06155 41.5513 8.23395 41.3377C7.47853 41.4142 6.69178 41.1146 5.89562 41.2389C5.26245 41.1529 4.56972 41.4429 4.01178 40.9202C3.42876 40.4007 2.60125 40.5824 1.97749 40.1935C1.61075 39.9641 1.21893 39.6358 1.47909 39.1896C1.77687 38.6733 2.07151 39.2246 2.36302 39.3426C3.56981 39.8238 4.87377 39.8908 5.98965 40.2923C4.75779 39.6836 3.16546 39.9609 1.91793 38.992C1.45402 38.6255 1.06533 38.3545 1.51356 37.7426Z" fill="#DDCFB9"/>
<path d="M10.9234 42.1696C10.8889 41.4302 11.6474 41.1752 11.8606 40.5888C13.641 40.78 15.4463 40.7582 17.1922 41.2363C17.3051 41.8195 17.6405 42.4506 16.8506 42.8331C14.8445 42.8745 12.8793 42.5584 10.9234 42.1696Z" fill="#E4D8C5"/>
<path d="M5.89247 41.2393C6.73879 40.2194 7.80138 41.8672 8.748 40.621C8.53172 41.8162 7.88287 41.4401 7.45031 41.5581C6.94879 41.5453 6.44727 41.5326 5.94889 41.5198C5.92381 41.4274 5.90501 41.335 5.89247 41.2393Z" fill="#E4D8C5"/>
<path d="M1.51356 37.7426C1.5073 38.8486 2.31924 39.1136 3.13422 39.3176C4.46952 39.6554 5.81734 39.9423 7.11816 40.4331C5.25313 40.3247 3.42572 40.057 1.57636 39.222C1.80204 39.9518 2.36312 40.0793 2.86777 40.2355C3.35989 40.3885 3.87083 40.4714 4.37235 40.5925C4.53535 40.6307 4.90208 40.6371 4.46638 40.8729C4.341 40.9399 4.16232 40.9048 4.0056 40.9176C3.74544 40.9016 3.48214 40.9176 3.22825 40.8697C0.626607 40.3534 0.303751 39.7351 1.22843 37.0834C1.3256 37.3033 1.41953 37.5227 1.51356 37.7426Z" fill="#E4D8C5"/>
<path d="M40.0523 26.2464C40.5852 24.3692 40.1244 22.3262 40.9958 20.5063C42.1117 21.9979 42.0176 23.9198 42.7135 25.5867C43.0928 26.4918 42.5568 27.7922 42.3938 29.3029C41.6258 27.8017 42.1681 26.5269 41.8515 25.3317C41.0804 27.091 41.0146 29.0989 41.2622 30.7371C41.4127 31.7347 42.0772 32.5538 41.3375 33.5929C41.2842 33.6662 41.5945 33.953 41.5725 34.1156C41.5067 34.5936 41.3218 35.0813 40.8077 35.2056C40.1777 35.3586 40.5037 34.6765 40.2717 34.4757C40.1244 34.3482 39.9175 34.294 39.7357 34.208C39.4411 33.9466 39.3126 33.5897 39.3251 33.2231C39.4223 30.8838 39.4035 28.5284 40.0523 26.2464Z" fill="#E1D4C2"/>
<path d="M40.0523 26.2464C39.9457 28.9013 39.8422 31.5568 39.7356 34.2149C39.2623 34.6707 39.5006 35.2699 39.4316 35.8053C38.8455 36.4842 39.25 37.3 39.1277 38.0426C39.0337 38.0426 38.9365 38.049 38.8425 38.0522C38.8237 37.9375 38.8047 37.8196 38.7859 37.7049C38.6793 33.6604 39.1056 29.6477 39.4912 25.635C39.6792 25.8358 39.8674 26.0392 40.0523 26.2464Z" fill="#C2B6A4"/>
<path d="M42.5695 36.7647C43.1588 36.9559 42.6729 38.0714 43.7825 38.03C41.8924 37.9726 41.6166 39.9232 40.1967 40.6785C40.2217 39.3463 41.6385 39.1009 41.6197 38.0395C41.9394 37.6156 42.256 37.1886 42.5695 36.7647Z" fill="#C0B4A3"/>
<path d="M41.6008 20.5191C41.6164 20.363 41.5945 20.1877 41.6509 20.0474C41.817 19.6459 41.8891 19.9072 41.9581 20.108C42.1775 20.7422 42.6602 21.1343 43.1931 21.4785C43.1931 22.1032 43.1931 22.7279 43.1931 23.3494C43.074 22.1542 41.7011 21.692 41.6008 20.5191Z" fill="#CABDAB"/>
<path d="M40.4159 37.1566C40.209 37.0546 40.0993 36.8729 40.1745 36.6594C40.2152 36.5382 40.397 36.3598 40.4785 36.3789C40.7293 36.4331 40.6823 36.6817 40.676 36.8761C40.6697 37.0386 40.6321 37.1916 40.4159 37.1566Z" fill="#DFD2BE"/>
<path d="M44.2807 31.716C44.0832 31.3782 44.0895 31.0563 44.2838 30.6356C44.5032 31.0435 44.5314 31.3654 44.2807 31.716Z" fill="#DFD2BE"/>
<path d="M20.0104 13.1859C20.4022 12.9182 20.5495 12.3827 20.4963 12.0767C20.2267 10.4863 21.6592 11.1397 22.2202 10.6744C22.3958 10.531 22.681 10.7317 22.5243 11.1174C22.2955 11.6847 22.797 11.6751 22.9318 11.4361C23.6872 10.0975 25.0946 10.5819 25.9001 10.7604C27.389 11.0919 28.6804 11.2513 30.0408 9.99869C30.2069 10.9325 29.3826 11.1429 29.6333 11.8728C30.6991 10.5501 32.3792 11.1875 33.8336 10.3142C32.7459 9.84252 31.7084 10.7732 30.7022 9.97638C31.7617 9.39313 32.8305 9.90626 33.7866 9.57798C33.2976 8.96604 32.1284 9.92539 31.9184 8.73019C34.426 8.72701 36.9336 8.72063 39.4381 8.71744C39.3879 9.95088 38.2564 10.2377 37.5605 10.8943C37.3379 11.1046 36.7079 10.8114 36.78 11.4042C36.8396 11.8951 37.3129 11.7357 37.6483 11.8281C37.8771 11.8919 38.0119 12.2967 38.1874 12.5516C38.4131 13.0871 38.0777 13.4185 37.7674 13.7596C37.2565 14.1165 37.3192 14.6807 37.2972 15.1938C37.2471 16.4846 36.5512 17.4854 35.8804 18.483C35.3758 19.232 34.7457 19.1587 34.5608 18.2949C34.3132 17.1444 33.9652 17.0264 33.2255 17.8933C32.6644 18.5531 32.4168 18.4065 32.329 17.581C32.3165 17.4663 32.3102 17.8232 32.1378 17.7818C31.9873 17.8232 31.84 17.8392 31.6864 17.8232C30.9247 17.6511 30.0847 17.9252 29.3826 17.4121C29.1663 15.9109 30.464 16.5165 31.0689 16.1531C31.5517 15.7547 31.7429 15.2671 31.5203 14.6552C31.5015 14.5946 31.4858 14.5277 31.467 14.4639C31.4576 14.3333 31.4796 14.2026 31.5297 14.0815C31.1598 13.2783 30.417 13.852 29.8935 13.6161C30.3323 13.9189 31.1661 13.1699 31.3416 14.1803C30.8715 14.6329 30.2602 14.4671 29.718 14.5691C29.7305 14.5723 29.6616 14.6615 29.6616 14.6615C29.6616 14.6615 29.765 14.7093 29.7775 14.7062C30.3073 14.8209 31.1693 14.6711 31.0345 15.4902C30.8903 16.3667 29.928 16.0002 29.3356 16.2105C29.2227 16.2711 29.1193 16.3444 29.0284 16.4368C28.7275 16.8989 28.8905 17.4886 28.6209 17.9603C28.4234 18.3236 28.041 18.4862 27.7809 18.7762C27.7401 18.9834 27.8529 19.0822 28.0316 19.1363C29.1569 19.181 30.0565 19.471 30.0878 20.8734C30.0972 21.2749 30.4891 21.0072 30.6803 21.0869C30.7022 21.122 30.7712 21.1825 30.7618 21.2016C30.6803 21.3578 30.8433 21.3578 30.837 21.3259C30.6019 20.3953 31.2257 20.1594 31.8714 20.1403C32.8493 20.1116 33.749 18.5977 34.7959 19.965C35.1407 18.9451 36.36 18.8782 36.849 17.9985C37.0809 17.581 37.1499 16.9276 37.8708 17.0073C37.3286 19.1268 38.3849 21.5044 36.8239 23.4964C36.6452 23.7259 36.4415 24.6948 37.2565 25.0613C37.7204 25.2717 37.5135 25.6828 37.3411 26.0143C36.9869 26.6932 36.9838 25.9442 36.8082 25.8772C36.5324 25.7721 36.3569 26.1195 36.407 26.1609C37.1091 26.7537 35.2253 28.0254 36.9555 28.3377C36.9869 28.3441 36.9587 28.717 36.9493 28.9178C36.849 30.7823 36.4007 32.6181 36.686 34.6866C36.0309 34.0396 36.6296 33.1855 35.9055 32.8508C35.7049 32.7584 35.4792 32.9496 35.4541 33.1631C35.3632 33.9504 34.3069 34.7026 35.3601 35.5503C35.5011 35.6619 35.5293 35.9137 35.708 36.3248C34.4793 35.9009 33.8931 36.5033 33.4856 37.4053C32.7177 38.9096 31.3949 39.5885 29.8465 39.9263C29.0879 40.057 28.2824 39.9391 27.4643 40.4235C27.9971 40.3343 28.4046 40.1463 28.8372 40.2514C29.066 40.2961 29.2541 40.4076 29.4077 40.5829C29.2791 41.4434 28.6679 41.5454 27.9721 41.5391C27.1916 41.5327 26.4079 41.5454 25.6274 41.5486C25.2168 41.5454 24.8031 41.5391 24.3925 41.5359C24.0382 41.1757 23.4991 41.5646 23.1386 41.2172C23.1386 41.112 23.1386 41.0068 23.1386 40.8984C23.6809 40.3056 24.4301 40.7486 25.0852 40.4235C23.9724 40.8474 23.5712 40.2706 23.4521 39.3048C23.1951 39.2985 22.96 39.2443 22.8252 38.9893C22.913 38.8714 23.0258 38.7853 23.1575 38.728C23.612 38.5718 24.1323 38.6451 24.5366 38.3073C25.082 37.9567 25.7089 37.7654 26.2637 37.4308C29.6898 35.5472 30.6709 31.8883 28.4986 29.0995C27.7213 28.1019 26.6148 27.6334 25.5083 27.1585C24.9379 26.827 24.0947 27.1649 23.6997 26.4031C23.7812 25.941 24.1699 26.129 24.3454 26.078C23.2233 25.788 22.3205 24.8159 20.9633 24.7585C20.1233 24.7235 20.4806 23.9681 20.9852 23.5474C21.3081 21.8295 22.192 20.5451 23.5117 19.3849C24.2138 18.7666 24.0476 17.5364 23.7373 16.5452C23.6746 16.0448 23.6527 15.5476 23.8063 15.0599C23.8721 14.891 23.9787 14.7572 24.1229 14.6552C24.3987 14.5723 24.6338 14.6297 24.8062 14.8751C25.3767 15.8599 25.0382 16.9372 25.1134 17.973C25.1071 18.2121 25.0726 18.4511 25.0162 18.6806C24.9128 19.1459 24.662 19.5953 24.872 20.0829C24.9849 20.0893 25.0852 20.0638 25.1667 19.9841C25.3109 19.608 25.2576 19.2128 25.3109 18.8336C25.361 18.4766 25.4958 18.1611 25.756 17.9125C25.9189 17.6957 26.3233 17.7308 26.3076 17.342C25.3234 16.8894 25.8845 15.6974 25.2388 15.095C25.1134 15.0504 24.9974 14.9898 24.8814 14.9229C24.7686 14.8432 24.6683 14.7508 24.5774 14.6488C22.6089 13.0966 22.4961 13.0807 21.0385 14.193C20.7188 14.3141 20.4618 14.1835 20.2204 13.9859C20.0386 13.7596 19.8662 13.5142 20.0104 13.1859Z" fill="#F7EEDF"/>
<path d="M23.1417 41.2262C23.5742 41.2708 24.0632 41.0796 24.3955 41.5449C23.5585 41.4174 22.6558 41.8482 21.8784 41.2331C22.2984 41.2331 22.7185 41.2293 23.1417 41.2262Z" fill="#F3E9D9"/>
<path d="M17.8161 41.2166C18.5465 40.7385 19.2768 40.7258 20.004 41.2262C19.2768 41.223 18.5465 41.2198 17.8161 41.2166Z" fill="#F3E9D9"/>
<path d="M6.89227 4.86367C5.22785 4.40471 7.17436 3.82464 6.84211 3.32107C6.62269 2.88443 6.513 2.44778 6.86093 2.01751C9.34973 2.46372 11.8951 1.59364 14.3682 2.36175C14.0704 2.78246 14.0891 3.20633 14.3649 3.63023C13.8383 4.85729 12.945 4.14018 12.1739 4.06687C11.6849 3.87245 11.2398 4.70431 10.732 4.14018C10.2963 3.85014 9.74467 4.02544 9.38107 3.85014C9.70392 4.08281 10.2869 3.82146 10.66 4.21986C10.707 4.36647 10.7007 4.50989 10.6317 4.64694C9.95155 5.16007 9.22433 4.69156 8.52847 4.75849C7.98307 4.80948 7.40633 4.40471 6.89227 4.86367Z" fill="#D4C3AD"/>
<path d="M17.8099 4.25802C17.7472 3.47079 18.1798 3.33374 18.8568 3.2923C21.3676 3.13294 23.8626 3.28274 26.3452 3.64289C27.2918 3.77994 27.9501 4.51618 28.7807 4.90183C27.7494 5.77193 26.527 5.2078 25.4644 5.17593C23.1919 5.10262 20.8974 4.99745 18.6312 4.65961C18.3146 4.6118 18.0199 4.52256 17.8099 4.25802Z" fill="#D3C3AD"/>
<path d="M17.8099 4.25802C20.2078 4.38551 22.5963 4.60887 24.9879 4.77141C26.2354 4.85428 27.5144 4.94964 28.7807 4.90183C28.7807 5.11219 28.7775 5.31961 28.7775 5.52996C28.5362 5.81362 28.2196 5.83275 27.8873 5.79769C27.3513 5.65426 26.7996 5.62239 26.248 5.63833C25.7653 5.63514 25.2825 5.64151 24.803 5.58414C24.64 5.56821 24.477 5.53315 24.3202 5.49172C23.7592 5.28136 23.173 5.34192 22.5931 5.33873C19.1734 5.33236 15.7505 5.48534 12.3621 4.85428C11.7477 4.35708 11.7195 4.21684 12.1772 3.94593C12.8762 3.60809 13.735 4.43038 14.3713 3.6304C15.3336 4.85428 16.669 4.00623 17.8099 4.25802Z" fill="#DACAB4"/>
<path d="M27.8403 5.52018C28.1537 5.52336 28.464 5.52655 28.7775 5.52655C29.699 5.85164 30.6457 5.9122 31.6079 5.83571C32.6455 6.04606 33.824 5.5648 34.7236 6.48271C33.5858 7.19345 32.448 7.20301 31.3102 6.47633C30.4074 5.89308 29.4075 6.28829 28.4578 6.18311C28.2603 6.35841 28.0315 6.32653 27.8027 6.27873C27.2635 6.21817 26.7181 6.3106 26.179 6.20542C25.5427 6.2596 24.9095 6.22136 24.2826 6.09387C24.129 6.02056 24.0319 5.90264 23.9817 5.73691C24.0068 5.26201 24.4895 5.45962 24.6901 5.23971C25.2135 5.23652 25.7339 5.23652 26.2573 5.23333C26.7401 5.59029 27.3544 5.18234 27.8403 5.52018Z" fill="#BCAC95"/>
<path d="M6.86093 2.01751C6.85153 2.45097 7.15556 2.8908 6.84211 3.32107C5.7513 2.79837 6.19015 2.26661 6.82959 1.73116C6.84212 1.82678 6.85153 1.9219 6.86093 2.01751Z" fill="#C3B29C"/>
<path d="M27.2166 18.6137C27.6492 18.3778 28.0786 18.1452 28.5112 17.9093C28.5801 17.9029 28.6491 17.8966 28.7181 17.887C29.4703 17.8806 30.2257 17.9348 30.978 17.8774C31.3698 17.7946 31.7742 17.8073 32.1691 17.7531C32.1786 17.7021 32.188 17.6511 32.2005 17.6001C33.0061 18.0017 33.0813 16.8862 33.6518 16.8671C34.2975 16.8448 35.3225 16.456 34.8115 17.8711C34.6987 18.1834 34.7457 18.5499 35.0842 18.6742C35.5011 18.8304 35.5231 18.4065 35.6798 18.1547C36.4289 16.9563 37.1373 15.758 36.943 14.244C36.8897 13.8138 37.1248 13.5556 37.5605 13.5078C37.8739 14.2345 38.1874 13.1763 38.4977 13.5078C39.4349 14.4353 38.2752 15.1875 38.2658 16.048C38.2626 16.3348 37.8645 16.6249 37.8677 17.0137C37.4633 18.7188 35.5826 19.1523 34.8648 20.628C34.3351 20.5164 34.2473 19.2097 33.7395 19.777C32.8901 20.7268 30.8777 19.8025 30.7116 21.7913C30.6771 21.5427 30.6395 21.2973 30.605 21.0487C29.9123 19.6941 31.0909 19.6973 31.7899 19.3499C31.8118 19.3404 31.8118 19.2511 31.7961 19.2065C31.7805 19.1619 31.7334 19.1268 31.6864 19.0918C30.2038 18.8017 28.6303 19.4774 27.2166 18.6137Z" fill="#F8F1E4"/>
<path d="M29.7242 39.6362C31.2476 39.3621 32.4606 38.5525 33.4856 37.4083C33.9401 37.794 33.6361 38.0458 33.3226 38.2657C32.9026 38.5557 32.3823 38.7438 32.3478 39.3876C32.843 39.8019 33.1972 39.0274 33.6893 39.3015C33.8649 39.7541 33.5734 39.9071 33.1533 39.9421C31.887 40.0441 30.5392 39.6648 29.4107 40.5923C29.2007 40.5923 28.9938 40.5923 28.7838 40.5923C28.3638 40.2832 28.1663 39.9836 28.8685 39.8146C29.1474 39.7413 29.4734 39.8784 29.7242 39.6362Z" fill="#EADECB"/>
<path d="M35.6108 41.4945C34.3852 41.4945 33.1596 41.4945 31.934 41.4945C33.1753 40.8985 34.3946 41.1503 35.6202 41.1057C35.6202 41.2363 35.6139 41.367 35.6108 41.4945Z" fill="#FDF6EC"/>
<path d="M38.4977 13.5045C38.015 13.7499 38.3002 14.7029 37.4727 14.6487C37.1311 14.2408 37.6451 13.8934 37.5605 13.5045C37.7674 13.1858 37.9774 12.8671 38.1843 12.5516C38.3661 12.5388 38.6638 12.4464 38.7109 12.5229C38.9491 12.8894 38.5949 13.1763 38.4977 13.5045Z" fill="#E6DBCB"/>
<path d="M24.0632 5.55234C24.0789 5.64795 24.0914 5.74357 24.1071 5.83918C23.3109 6.31407 22.3768 5.72445 21.5775 6.17384C21.4741 6.17384 21.3675 6.17703 21.2641 6.17703C20.9506 6.24396 20.6403 5.92843 20.3269 6.17065C20.0197 6.17065 19.7125 6.17065 19.3395 6.17065C19.5652 6.72522 20.3394 6.29176 20.3645 6.94514C19.4993 7.64632 18.3051 6.38738 17.5027 7.44552C16.6563 7.34991 15.7599 7.71325 14.97 7.14593C15.4778 7.14593 15.9887 7.14593 16.4965 7.14593C14.4089 7.26067 12.7007 5.53937 10.6038 5.85491C10.6006 5.74017 10.6005 5.62883 10.5974 5.51409C10.5347 5.2145 10.7039 5.03601 10.9139 4.87984C11.218 4.68224 11.5471 4.58981 11.9107 4.65036C13.3839 5.03283 14.8979 4.94359 16.3899 5.07426C16.8005 5.10932 17.3679 4.7906 17.5591 5.48859C17.045 5.89974 16.462 5.56827 16.2019 5.64158C15.7066 5.6352 16.0201 5.99217 15.9448 5.79456C17.2582 5.67026 18.559 5.43123 19.8661 5.23999C21.2704 5.36111 22.7091 4.88303 24.0632 5.55234Z" fill="#D7C7B1"/>
<path d="M31.3102 6.47956C32.4481 6.48275 33.5859 6.48275 34.7237 6.48594C34.94 6.48912 35.1531 6.49231 35.3694 6.49231H35.3663C35.4697 6.70585 35.5732 6.9162 35.6766 7.12975C35.5638 7.32735 35.3475 7.25405 35.1845 7.32098C35.2722 7.41978 35.3976 7.37516 35.4948 7.37835C36.0371 7.39747 36.5699 7.29229 37.1059 7.19349C38.6168 7.2158 40.1401 6.84609 41.6196 7.41978C41.1244 8.12734 40.3846 8.08909 39.6543 8.08909C36.7455 8.0859 33.8366 8.12415 30.9309 8.03809C30.6206 8.02853 29.7743 8.82533 29.6709 7.3401C29.5612 5.75926 30.5078 6.80465 30.8494 6.50506C30.9435 6.42219 31.1535 6.48275 31.3102 6.47956Z" fill="#D7C8B3"/>
<path d="M21.5775 6.17384C22.3517 5.53003 23.2733 6.01767 24.1071 5.83918C24.828 5.85193 25.5521 5.86131 26.2731 5.87406C26.7526 6.22784 27.3701 5.81669 27.8497 6.16728C28.0535 6.17366 28.2541 6.18003 28.4578 6.1864C26.9031 7.2318 25.2982 6.92264 23.7028 6.33301C22.9944 6.07167 22.2828 6.24396 21.5775 6.17384Z" fill="#DCCFB9"/>
<path d="M41.6227 7.41662C39.9552 7.42618 38.2907 7.43256 36.6232 7.44212C36.5166 7.37519 36.4821 7.30826 36.5198 7.24132C36.5574 7.17758 36.5918 7.14571 36.6295 7.14571C38.1152 6.50508 39.6762 6.91942 41.1996 6.84293C41.4817 6.83018 41.5788 7.14571 41.6227 7.41662Z" fill="#AB9B86"/>
<path d="M36.6295 7.14571C36.6263 7.24451 36.6232 7.34331 36.6232 7.44212C35.7863 7.73534 35.0027 7.62053 34.0874 7.21576C34.7425 6.71537 35.2064 7.31137 35.6766 7.12651C35.9932 7.13289 36.3097 7.13933 36.6295 7.14571Z" fill="#BCAC96"/>
<path d="M35.3694 6.49231C35.9367 5.94411 36.6638 6.11964 37.3377 6.07183C36.7798 6.67421 36.0402 6.43175 35.3694 6.49231Z" fill="#B5A289"/>
<path d="M20.0009 7.75161C19.3614 7.68786 18.6718 7.95877 18.0919 7.46795C18.7345 7.53488 19.4304 7.20341 20.0009 7.75161Z" fill="#D7C7B1"/>
<path d="M31.6049 8.72335C31.1348 9.22373 30.5831 9.05163 29.997 8.94964C30.301 8.57355 30.6865 8.79346 31.0063 8.7106C31.2069 8.71378 31.4043 8.71697 31.6049 8.72335Z" fill="#F7EEDF"/>
<path d="M20.3269 6.17065C20.6403 5.75632 20.9538 5.76907 21.2641 6.17703C20.9475 6.6806 20.6372 6.26308 20.3269 6.17065Z" fill="#DCCFB9"/>
<path d="M18.0638 38.09C16.5624 36.8789 15.0264 36.847 13.1395 37.3155C11.2023 37.7968 9.19939 37.2327 7.75438 35.5371C7.65094 35.2184 7.83902 35.0972 8.08978 35.0207C9.57867 35.6327 10.9453 36.6781 12.6975 36.3434C14.6096 36.098 14.5939 36.1012 14.5437 34.2654C14.5249 33.5865 14.481 32.8726 15.0139 32.318C15.5781 32.2606 15.553 32.726 15.6659 33.0702C15.8257 34.5777 16.3461 35.9004 17.5905 36.8374C17.9572 37.1052 18.3992 37.2964 18.534 37.8C18.4744 38.0613 18.3678 38.243 18.0638 38.09Z" fill="#B28C5E"/>
<path d="M23.455 39.3175C23.9095 40.6912 25.1884 39.9135 26.4266 40.194C25.1195 40.8665 24.1446 40.9621 23.1416 40.9111C21.9661 40.9494 20.797 40.9494 19.6874 40.4617C20.3237 39.7797 21.0916 39.5311 22.0163 39.6171C22.4959 39.6617 23.0538 39.802 23.455 39.3175Z" fill="#F3E9D9"/>
<path d="M18.0638 38.09C18.1892 37.9689 18.3145 37.8479 18.4399 37.7268C19.1577 37.2774 19.8661 37.7108 20.5776 37.7427C21.4177 38.0072 22.2577 38.0168 23.1041 37.7714C24.0538 37.7076 24.9377 37.2519 25.9063 37.2774C26.1508 37.373 26.3169 37.5387 26.3796 37.8033C25.8217 38.0869 25.2606 38.3706 24.7027 38.6542C24.2294 39.0781 23.5805 38.6256 23.0947 38.9825L22.9599 38.9698L22.8282 39.008C22.7216 39.0112 22.6151 39.0176 22.5085 39.0208C21.9913 39.2311 21.4741 39.2279 20.9538 39.024C20.0134 38.6319 18.9007 38.8007 18.0638 38.09Z" fill="#BF9A6F"/>
<path d="M11.2493 25.0867C11.522 25.0325 11.7916 24.9752 12.0643 24.921C12.3589 24.7712 12.4843 24.9465 12.5689 25.1951C12.4812 25.6381 12.1332 25.8198 11.7884 26.0014C9.58174 26.964 8.22764 28.7137 7.36878 30.932C7.25594 31.0531 7.11488 31.1041 6.95189 31.0946C6.55067 30.7758 6.67918 30.3902 6.81397 30.0014C7.31862 27.764 8.98932 26.5369 10.7102 25.3544C10.823 25.125 11.0079 25.0453 11.2493 25.0867Z" fill="#BB9367"/>
<path d="M6.814 29.9981C6.86729 30.3551 6.77326 30.7567 7.11178 31.0276C7.08671 32.4937 7.98944 33.7303 8.10228 35.1645C7.9863 35.2888 7.87036 35.4128 7.75438 35.5371C6.18399 33.9116 6.15889 32.0156 6.814 29.9981Z" fill="#BC976D"/>
<path d="M11.2493 25.0867C11.0706 25.176 10.8921 25.2617 10.7135 25.351C10.5724 25.3319 10.4345 25.3096 10.2934 25.2904C10.0207 24.7677 10.1304 24.2259 10.5003 23.8881C10.8294 23.5853 11.099 24.0984 11.3811 24.2642C12.0143 24.6371 11.1114 24.7808 11.2493 25.0867Z" fill="#F7F1E6"/>
<path d="M20.9537 39.0175C21.4709 39.0175 21.9912 39.0144 22.5084 39.0144C21.9912 39.4638 21.4709 39.4606 20.9537 39.0175Z" fill="#F3E9D9"/>
<path d="M20.0104 13.1859C20.1138 13.3994 20.217 13.6126 20.3204 13.823C20.2045 14.4508 20.2076 14.4508 21.2953 14.1449C22.2764 14.1226 23.3891 13.4947 24.0787 14.7791C24.0631 14.9226 24.0474 15.0628 24.0317 15.2062C23.2638 15.7289 22.4676 15.015 21.6934 15.2604C21.6526 15.2731 21.6119 15.3337 21.6056 15.3783C21.5993 15.4229 21.6338 15.4739 21.662 15.5186C22.0319 15.7672 22.5271 15.6684 22.8563 15.9998C22.919 16.1305 22.9315 16.2675 22.8876 16.4078C22.1573 17.0835 21.5492 17.8866 20.7624 18.5049C20.4239 18.7822 20.0289 18.9193 19.6026 18.9671C19.3174 19.0276 18.9695 19.0213 19.0604 19.493C18.5118 20.8252 17.5213 20.2197 16.6311 20.0699C16.4525 19.9583 16.3522 19.7671 16.139 19.5631C15.9415 20.2738 16.3396 20.5894 16.8129 20.8666C17.4022 21.2523 18.6529 20.8157 18.6372 21.622C18.6184 22.4953 17.3709 21.9248 16.8255 22.2881C15.2237 23.3527 13.459 22.1033 11.8542 22.7503C11.0517 22.2849 10.5094 21.3097 9.29325 21.6539C8.86069 21.7782 8.76353 21.2268 8.91712 20.7264C9.05191 20.293 9.78225 20.4842 9.66 19.885C9.78538 19.7926 9.92329 19.7543 10.0769 19.7639C10.7633 19.9296 11.4341 20.2133 12.1833 20.0667C11.8009 19.8436 11.3025 19.9742 10.9608 19.6619C10.5345 19.2762 10.5596 18.7408 10.4969 18.234C10.4593 17.7241 10.2587 17.4564 9.70387 17.6253C9.35594 17.7305 8.97666 17.8293 8.87949 17.2811C9.17414 16.1305 9.93896 15.9934 11.1771 16.4046C10.0393 15.407 11.757 13.9632 10.2869 13.176C10.0894 12.784 9.60984 13.0007 9.32147 12.7075C10.337 12.5162 10.9451 11.9425 11.0799 10.894C11.4529 10.8525 11.5752 11.2031 11.7946 11.3912C12.3431 11.866 12.5406 12.9784 13.6722 12.4238C13.7286 12.3983 14.4182 12.6915 14.0232 13.2047C13.2177 14.3712 12.246 15.5058 13.2835 16.9751C13.4998 16.4046 13.3054 15.5632 14.0264 15.1042C14.7254 15.5727 13.9981 16.5576 14.7003 17.0261C14.8695 17.2492 15.1078 17.3639 15.3554 17.4691C15.9447 17.654 16.6029 17.485 17.164 17.8261C17.4524 17.791 17.2706 18.6866 17.8097 18.1544C18.236 17.8962 18.7187 17.944 19.1701 17.8516C19.3143 17.8101 19.4491 17.7496 19.5211 17.5998C19.5211 17.4946 19.4835 17.4117 19.402 17.3448C19.2704 17.2396 19.145 17.1408 19.0666 16.991C19.7625 15.8213 19.681 14.505 19.7531 13.2174C19.7562 13.1887 19.8252 13.1473 19.8628 13.1441C19.913 13.1314 19.9634 13.1668 20.0104 13.1859Z" fill="#F7F1E6"/>
<path d="M16.6188 19.8787C17.2175 19.8787 17.8256 19.9456 18.4149 19.8628C19.2456 19.7448 18.3898 19.4516 18.4431 19.2413C18.6093 18.8014 19.1484 18.9353 19.3866 18.6102C19.8411 18.6548 20.2455 18.505 20.6341 18.2883C20.8755 18.3999 21.0416 18.6166 21.2642 18.7536C22.1356 19.0086 22.424 18.2501 22.8816 17.7943C23.2734 17.4023 23.3612 16.7106 24.0288 16.5895C24.7748 18.5943 24.242 20.0126 22.3958 20.9177C21.9099 21.1568 21.5055 21.2843 21.8911 22.0492C22.1701 22.6038 21.703 23.426 21.261 23.7065C20.9758 23.4229 20.6718 23.5982 20.3709 23.6683C19.7408 23.9774 19.2424 24.8348 18.3585 24.0858C18.1516 23.9105 18.0043 24.3726 17.8131 24.5224C17.5623 24.736 17.2771 24.8762 16.9574 24.94C15.3776 24.6053 13.7633 25.0228 12.1835 24.6914C12.1365 24.4396 12.848 24.2675 12.3403 24.038C11.6757 23.7352 11.9296 23.2093 11.8575 22.7504C12.1146 22.3456 12.149 21.7719 12.9483 21.9823C14.1175 22.2914 15.2961 22.7599 16.5217 21.858C16.9448 21.5456 17.7755 21.807 18.6782 21.807C17.8664 21.2205 17.0702 21.7878 16.5624 21.1791C16.8947 20.6755 17.4934 20.8827 17.9291 20.6564C17.462 20.4333 16.6753 20.7966 16.6188 19.8787Z" fill="#F6ECDC"/>
<path d="M5.55078 16.902C6.40336 19.3785 5.17151 21.3673 4.38789 23.8342C3.94592 23.1107 4.04621 22.7473 4.1998 22.3744C4.34399 22.0206 4.47251 21.5521 4.16219 21.3322C2.45702 20.1179 3.61679 19.4837 4.55401 18.6454C5.02105 18.2215 5.22479 17.4917 5.55078 16.902Z" fill="#F6EDDC"/>
<path d="M9.94213 19.8785C9.85122 19.8785 9.75719 19.8785 9.66629 19.8785C9.37164 19.4099 9.58166 18.8841 9.50956 18.3932C9.4406 18.8872 9.65061 19.4099 9.35284 19.8785C8.48144 20.4681 7.68841 19.7191 6.84523 19.7095C6.44401 19.7064 6.67597 19.3143 6.76687 19.1008C7.19003 18.1 7.84514 17.2554 8.50965 16.414C8.80116 16.6435 8.81371 17.0387 9.02999 17.3128C9.66003 17.5231 10.8104 16.2833 10.8981 18.0044C10.0612 18.355 10.6066 19.4354 9.94213 19.8785Z" fill="#F6EDDC"/>
<path d="M9.02999 17.3128C8.331 17.3287 8.24009 16.9781 8.50965 16.414C9.25253 15.9104 9.798 15.2381 10.3215 14.2692C9.75098 14.2055 9.27765 14.1548 8.80434 14.1038C8.77613 14.0113 8.76675 13.9154 8.77615 13.8198C9.40305 13.5393 10.0425 13.6732 10.6161 13.7242C10.0738 13.4788 9.3811 13.8708 8.78555 13.5106C9.1899 12.9529 9.81366 13.4023 10.2901 13.1664C11.2399 13.2589 12.0674 13.466 11.1803 14.6517C10.6161 15.4038 11.0988 15.7927 11.5721 16.2293C11.8103 16.4492 12.0486 16.6915 11.732 17.0134C11.5063 17.2428 11.1866 17.1759 11.0361 16.9719C10.1302 15.748 9.60047 16.6243 9.02999 17.3128Z" fill="#594D3E"/>
<path d="M12.1803 24.6885C13.8384 24.2837 15.4966 24.1498 17.1422 24.7426C18.2706 24.8096 19.0793 25.2781 19.2799 26.5052C19.2172 26.7538 19.0825 26.9291 18.8254 26.9832C18.2706 26.8717 17.9478 26.3936 17.4933 26.1195C16.0357 25.3323 14.4716 25.3036 12.8793 25.4502C12.7194 25.4343 12.5846 25.3705 12.4749 25.2526C12.337 25.141 12.1959 25.0327 12.058 24.9211C12.1082 24.8478 12.1489 24.7681 12.1803 24.6885Z" fill="#BE9669"/>
<path d="M4.64802 14.4606C4.09948 14.8462 4.53518 15.7354 3.77036 16.0988C3.66065 14.8239 4.15905 13.7116 4.21234 12.5228C4.35653 12.5323 4.5007 12.5419 4.64802 12.5515C4.64802 13.1857 4.64802 13.8231 4.64802 14.4606Z" fill="#FCF9F0"/>
<path d="M4.00872 19.0977C3.63258 18.2594 3.57302 17.7144 4.04947 17.2395C4.1247 17.163 4.41621 17.1567 4.44756 17.2109C4.85818 17.912 4.15604 18.3455 4.00872 19.0977Z" fill="#F6EDDC"/>
<path d="M9.75734 23.2542C9.76361 22.6391 10.1241 22.5116 10.4438 22.1547C10.541 22.8048 10.2181 23.0025 9.75734 23.2542Z" fill="#F7F1E6"/>
<path d="M9.34992 19.8789C9.34992 19.4678 9.34992 19.0534 9.34992 18.6423C9.43141 18.6359 9.51292 18.6327 9.59442 18.6263C9.61636 19.0439 9.63831 19.4614 9.66025 19.8789C9.55995 19.8789 9.45649 19.8789 9.34992 19.8789Z" fill="#F7F1E6"/>
<path d="M14.0296 15.0946C13.9261 15.9296 13.8352 16.7646 13.713 17.5997C13.6659 17.9184 13.528 18.2594 13.1488 18.2276C12.7068 18.1925 12.7946 17.7941 12.7946 17.4945C12.8008 16.6722 13.177 15.6778 11.7758 15.5854C11.5376 15.5694 11.5439 15.0276 11.8385 15.0149C13.0328 14.9671 13.1017 14.1958 13.1958 13.2524C13.2522 12.6978 13.7224 12.9623 14.0264 13.1886C14.0264 13.8292 14.0296 14.4603 14.0296 15.0946Z" fill="#5A4F41"/>
<path d="M7.16202 6.79227C7.47547 6.79865 7.78565 6.808 8.0991 6.81437C8.79809 7.23508 9.61621 6.73469 10.3183 7.11715C10.4155 7.10759 10.5095 7.11078 10.6036 7.12672C11.8511 8.63744 13.7663 7.76415 15.3053 8.58007C14.9668 8.7235 14.6063 9.03584 14.3148 8.97847C11.9169 8.50677 9.43126 8.35059 7.23711 7.08847C7.17442 7.0566 7.18396 6.89426 7.16202 6.79227Z" fill="#FAF2E5"/>
<path d="M18.7282 14.059C18.747 13.7148 18.5777 13.1953 19.0824 13.1698C19.6027 13.1443 19.4993 13.6638 19.4867 14.0112C19.3833 16.3124 19.2109 16.5514 17.5528 16.4622C17.0136 16.4335 16.1579 16.6948 16.0043 16.0988C15.7661 15.1841 15.6407 14.1515 16.1203 13.2176C16.1485 13.1634 16.4055 13.2336 16.5591 13.2431C16.8443 14.7092 17.7502 14.4861 18.7282 14.059Z" fill="#53483A"/>
<path d="M17.8852 18.2854C17.6438 18.636 18.1579 19.4837 17.4651 19.3881C16.8194 19.2989 17.299 18.4925 17.1642 18.024C16.4872 17.479 15.6409 18.0559 14.9419 17.6734C14.5751 17.5619 14.6911 17.2687 14.7036 17.0137C14.9042 17.0105 15.1048 17.0073 15.3055 17.0041C16.8226 17.4726 18.4149 16.8607 19.932 17.342C20.0135 17.4344 20.0198 17.53 19.9508 17.632C19.4963 18.0431 18.9196 17.9125 18.393 18.0017C18.208 18.0686 18.0074 18.1069 17.8852 18.2854Z" fill="#574939"/>
<path d="M15.3085 16.0511C15.2772 16.2519 15.1737 16.577 14.9951 16.4272C14.4653 15.9778 14.5562 13.8105 15.0766 13.3484C15.0954 13.3324 15.2302 13.4536 15.3116 13.5141C15.5467 14.3587 15.5499 15.2033 15.3085 16.0511Z" fill="#EBE2D2"/>
<path d="M19.932 17.345C18.393 17.1729 16.81 17.651 15.3055 17.0072C16.5593 16.9976 17.8162 16.9881 19.07 16.9817C19.3427 17.1315 19.7628 16.9275 19.932 17.345Z" fill="#726757"/>
<path d="M18.7282 14.059C17.2393 14.824 16.7753 14.6485 16.5559 13.2461C16.9979 14.2915 17.8129 14.3076 18.7282 14.059Z" fill="#605547"/>
<path d="M15.3085 16.0511C15.3085 15.2065 15.3085 14.3584 15.3085 13.5138C15.7662 14.3584 15.7693 15.2033 15.3085 16.0511Z" fill="#FDF8EB"/>
<path d="M8.78567 13.5076C9.39377 13.5745 10.0238 13.3673 10.9892 13.8167C10.0019 13.8167 9.39064 13.8167 8.77628 13.8167C8.77941 13.7147 8.78254 13.6127 8.78567 13.5076Z" fill="#4F4335"/>
<path d="M10.3183 7.11715C9.57859 7.02154 8.77302 7.41994 8.0991 6.81437C8.83884 6.90043 9.63501 6.57533 10.3183 7.11715Z" fill="#F6ECDC"/>
<path d="M10.8952 5.21117C10.7949 5.31316 10.6977 5.4121 10.5974 5.51409C9.41251 4.99458 8.15861 4.8796 6.89227 4.86367C6.73554 4.57363 6.5852 4.17533 7.12434 4.34107C8.2747 4.69166 9.44074 4.50361 10.5974 4.60879C10.8763 4.71715 11.0707 4.87014 10.8952 5.21117Z" fill="#AC9A82"/>
<path d="M19.1108 26.4857C18.7848 25.5231 17.8006 25.3223 17.1455 24.7423C17.2709 24.4395 17.5185 24.3503 17.8131 24.3407C18.9039 24.7168 19.6938 24.2674 20.3207 23.3845C20.7251 23.2092 21.1858 22.8682 21.2611 23.7033C21.0166 23.9391 20.4649 24.567 20.979 24.4618C22.728 24.1017 23.4552 25.6411 25.0099 26.151C24.3736 26.2275 24.0289 26.2658 23.6872 26.3072C22.5118 27.4195 21.0103 27.0657 19.628 27.2092C19.3302 27.2378 19.2017 26.7948 19.1108 26.4857Z" fill="#F7EFE1"/>
<path d="M26.3795 37.7971C26.2416 37.6664 26.1005 37.5358 25.9626 37.4083C26.1005 36.8282 26.6177 36.6242 27.0189 36.3087C29.9277 34.0235 29.6017 29.9885 26.3826 28.2132C25.7745 27.8786 24.9282 27.8818 24.6398 27.0436C24.9282 26.5687 25.3169 26.7216 25.7056 26.8619C28.3072 27.7384 29.9183 29.6092 30.0312 31.8913C30.1597 34.4856 28.8024 36.6848 26.3795 37.7971Z" fill="#BA9160"/>
<path d="M25.7056 26.8619C25.3576 26.9161 24.9596 26.8174 24.712 27.1871C24.5083 27.4675 24.2136 27.5122 23.9033 27.5217C23.7591 27.5154 23.6149 27.4962 23.4708 27.4612C22.9316 27.2699 22.3925 27.2508 21.8533 27.4707C20.2359 27.9106 18.7627 28.6309 17.5214 29.791C17.3773 29.9376 17.2299 30.0874 17.0983 30.2436C16.9353 30.4635 16.7974 30.7025 16.6532 30.9384C16.0576 31.5981 16.0952 32.5224 15.7034 33.265C15.5749 33.3606 15.4464 33.3638 15.3148 33.2746C15.2834 32.9272 15.3618 32.5479 15.0107 32.3057C14.9637 32.2515 14.9135 32.1941 14.8665 32.14C14.9543 30.3137 16.1987 29.2332 17.4211 28.1815C17.8976 27.7703 18.3678 27.3687 18.769 26.8843C18.8818 26.7504 18.9947 26.6166 19.1075 26.4859C19.4241 26.6867 19.5652 27.2859 20.0949 27.0118C21.2296 26.419 22.5241 26.7154 23.687 26.3042C24.3014 26.7154 25.1194 26.3456 25.7056 26.8619Z" fill="#C1996B"/>
<path d="M24.0289 16.5832C23.5336 17.431 23.1073 18.3202 22.355 18.9895C21.8504 19.4357 21.4147 19.6492 20.9915 18.9258C20.9884 17.6126 22.3112 17.2875 22.8346 16.3696C22.8221 16.2645 22.8127 16.1561 22.8001 16.0509C22.3394 15.6716 21.7438 16.07 21.2705 15.7736C20.7032 15.3242 20.5746 14.8748 21.468 14.8685C22.3237 14.8621 23.1794 15.082 24.0351 15.2031C24.032 15.6653 24.0289 16.1242 24.0289 16.5832Z" fill="#564B3D"/>
<path d="M32.5356 18.9414C33.219 20.1972 32.1093 19.8529 31.6893 19.7988C30.6299 19.6649 30.4543 20.1685 30.6079 21.045C30.3258 21.3509 30.5923 22.1892 29.8776 22.0139C29.3573 21.8864 29.5829 21.2999 29.6362 20.9111C29.9183 18.9446 28.3385 19.8816 27.5831 19.5374C27.2383 18.9605 27.58 18.7629 28.0564 18.7852C29.5516 18.849 31.0562 18.5494 32.5356 18.9414Z" fill="#584C40"/>
<path d="M24.0821 14.7793C23.0916 14.1291 21.9883 14.6072 20.9508 14.4574C20.841 14.3873 20.8066 14.3172 20.841 14.2471C20.8755 14.1769 20.9131 14.1419 20.9508 14.1419C21.2955 13.6893 21.2454 12.9499 22.192 12.9913C23.4834 13.0455 24.2953 13.565 24.7122 14.7793C24.499 14.7793 24.289 14.7793 24.0821 14.7793Z" fill="#F6ECDC"/>
<path d="M25.3294 20.459C25.1257 20.5833 24.925 20.7044 24.7213 20.8287C24.5207 20.6311 24.5552 20.392 24.6147 20.1498C24.7025 19.5028 24.8968 18.8717 24.8686 18.2088C24.8843 17.7849 24.8279 17.3546 24.9345 16.9371C25.1257 16.169 24.878 15.334 25.2824 14.6009C26.1851 14.1675 26.0911 14.9133 26.0064 15.3372C25.7902 16.4017 26.229 16.9977 27.1568 17.3451C26.7932 17.7307 26.182 17.5076 25.8215 17.8997C25.7714 18.2407 25.7181 18.5817 25.6679 18.9227C25.2448 19.3594 25.7149 20.0064 25.3294 20.459Z" fill="#574A3C"/>
<path d="M29.5737 17.2844C30.3479 17.4757 31.2381 16.8573 31.9246 17.6414C31.1503 18.2151 30.21 17.7912 29.3856 18.0748C29.1223 18.1131 28.8527 18.1673 28.6678 17.89C28.6302 17.2557 28.5487 16.6215 28.7305 15.9968L28.7274 16.0032C29.2665 15.8088 29.8276 15.8916 30.373 15.9107C31.1347 15.9394 31.1723 15.4837 31.1065 14.9163C31.1911 14.655 31.3635 14.4893 31.6331 14.4351C32.47 15.0948 31.9747 15.7323 31.608 16.3761C31.025 16.6916 30.3887 16.4207 29.7931 16.5482C29.3668 16.6342 28.9154 16.8191 29.5737 17.2844Z" fill="#605142"/>
<path d="M32.5356 18.9414C31.1941 18.8936 29.8528 18.8271 28.5112 18.8048C28.0567 18.7984 27.3514 18.5881 27.5834 19.5347C27.1164 19.3689 27.2135 18.9705 27.2166 18.6104C28.9908 18.7187 30.7991 18.2243 32.5356 18.9414Z" fill="#DBD6CB"/>
<path d="M29.7242 39.6362C29.6772 40.229 28.3511 39.5118 28.7805 40.5891C28.6238 40.5891 28.4294 40.6528 28.3229 40.5827C27.8339 40.248 27.3292 41.5261 27.0816 40.7102C26.8465 39.9357 27.7775 39.821 28.3323 39.6775C28.7711 39.5628 29.2571 39.6425 29.7242 39.6362Z" fill="#F3E9D9"/>
<path d="M31.2881 14.7794C31.285 17.0296 29.627 15.694 28.7274 16.0032C29.3574 15.3275 30.3478 16.1659 31.0719 15.4041C30.4293 14.6806 29.4137 15.4137 28.8338 14.7667C29.6551 14.3332 30.4732 14.2886 31.2881 14.7794Z" fill="#685B4C"/>
<path d="M31.2882 14.1293C30.6676 13.4696 29.7774 14.1006 28.9467 13.5779C30.0062 13.511 30.934 13.2783 31.7646 13.7819C32.2411 14.0719 31.6988 14.0751 31.5515 14.1707C31.4512 14.2441 31.3634 14.2345 31.2882 14.1293Z" fill="#FEFBF2"/>
<path d="M25.041 17.0072C25.0191 17.3832 24.9971 17.7593 24.9721 18.1354C24.9501 18.2661 24.8749 18.3458 24.7526 18.3776C24.737 17.1793 24.7213 15.9777 24.7056 14.7793C24.8216 14.7825 24.9376 14.7889 25.0536 14.7921C25.2322 15.5315 25.2542 16.2709 25.041 17.0072Z" fill="#F6ECDC"/>
<path d="M29.4074 17.9729C30.1785 17.3259 31.0906 17.7785 31.9275 17.6415C31.9996 17.6956 32.0811 17.7339 32.1689 17.7498C31.9119 17.9092 31.658 18.0685 31.4009 18.2279C30.7615 17.9506 30.0406 18.3203 29.4074 17.9729Z" fill="#3A2E24"/>
<path d="M29.5737 17.2844C28.9029 16.8063 29.0441 16.475 29.7838 16.3889C30.3825 16.3188 30.9968 16.373 31.6049 16.373C31.1473 16.9148 30.5612 16.5483 30.0346 16.5865C29.5393 16.6216 29.4138 16.835 29.5737 17.2844Z" fill="#685B4C"/>
<path d="M25.8186 17.8933C25.8751 16.7395 26.7433 17.6064 27.1539 17.3387C27.0066 18.2693 26.2449 17.6606 25.8186 17.8933Z" fill="#302317"/>
<path d="M31.2881 14.7794C30.47 14.7763 29.6488 14.7699 28.8307 14.7667C28.8056 14.7029 28.768 14.6392 28.7555 14.5723C28.7492 14.5436 28.7868 14.5022 28.8025 14.4671C29.7429 14.193 30.6864 14.2534 31.6331 14.4351L31.6298 14.4352C31.517 14.5468 31.4041 14.6647 31.2881 14.7794Z" fill="#413124"/>
<path d="M31.6331 14.4351C30.6896 14.4446 29.746 14.4575 28.8025 14.4671C29.5642 13.836 30.4764 14.3843 31.2882 14.1293C31.3697 14.1931 31.4543 14.209 31.5515 14.1707C31.5954 14.2536 31.6237 14.3395 31.6331 14.4351Z" fill="#605142"/>
<path d="M20.9477 14.142C20.9477 14.2471 20.9477 14.3523 20.9477 14.4575C20.2988 14.4352 20.4054 15.0535 20.1139 15.5539C19.9916 14.8463 19.8443 14.3077 20.3208 13.8201C20.5276 13.9284 20.7376 14.0368 20.9477 14.142Z" fill="#F5F0E5"/>
<path d="M25.041 17.0072C25.0442 16.2677 25.0504 15.5315 25.0536 14.7921C25.1351 14.7347 25.2104 14.6709 25.2793 14.5975C25.2574 15.4071 25.599 16.2518 25.041 17.0072Z" fill="#5E5243"/>
<path d="M28.7305 15.9968C28.7493 16.6247 28.7682 17.2527 28.787 17.8805C28.6929 18.1068 28.6052 18.1036 28.5174 17.8774L28.5112 17.9093C28.5394 17.2655 28.1851 16.5769 28.7305 15.9968Z" fill="#685B4C"/>
<path d="M24.7526 18.3776C24.8247 18.298 24.9 18.2151 24.9721 18.1354C24.9501 18.8302 25.2668 19.5726 24.7089 20.1973C24.4707 19.7766 24.4863 19.3495 24.6964 18.9224C24.7152 18.7408 24.7338 18.5593 24.7526 18.3776Z" fill="#5C5245"/>
<path d="M24.6995 18.9227C24.7026 19.3465 24.7089 19.7704 24.712 20.1975C24.7152 20.4079 24.7183 20.6182 24.7246 20.8254C24.2137 20.2007 24.2481 19.5633 24.6995 18.9227Z" fill="#F6ECDC"/>
<path d="M25.3294 20.459C25.4015 19.9363 25.1352 19.3371 25.6649 18.9195C25.6587 19.455 25.7933 20.0223 25.3294 20.459Z" fill="#5C5245"/>
<path d="M23.0916 38.9766C23.568 38.5687 24.1604 38.7439 24.6996 38.6483C24.2576 39.2348 23.6401 38.9256 23.0916 38.9766Z" fill="#F3E9D9"/>
<path d="M10.8952 5.21117C10.7949 5.01037 10.6976 4.80637 10.5973 4.60558C10.5973 4.49084 10.6004 4.37929 10.6004 4.26455C10.6161 4.07013 10.7948 4.03826 10.9107 3.94264C11.1866 4.01913 11.4938 4.21037 11.5502 3.68448C11.5721 3.45819 11.5439 3.07892 11.9044 3.16816C12.2742 3.2574 12.1301 3.66217 12.1708 3.94264C11.8197 4.153 12.1363 4.3506 12.1802 4.55139C12.0611 4.81912 11.7163 4.65976 11.5753 4.88605C11.3496 4.99441 11.1208 5.1028 10.8952 5.21117Z" fill="#D1C0A9"/>
<path d="M10.9141 3.94601C10.8106 4.05119 10.7072 4.15955 10.6037 4.26473C9.92667 4.2966 9.28723 4.18505 8.64465 3.74203C9.47843 3.53487 10.2119 3.5508 10.9141 3.94601Z" fill="#C9B79F"/>
<path d="M11.5753 4.88605C11.6975 4.6247 11.942 4.59306 12.1803 4.55481C15.7128 4.85122 19.2548 4.94046 22.7968 4.92133C23.2858 5.26236 23.897 4.87353 24.3892 5.20181C24.4895 5.21456 24.5898 5.22696 24.6901 5.23971C24.5522 5.49468 24.3108 5.52684 24.0632 5.55234C22.6025 5.55234 21.1418 5.5524 19.6811 5.54921C18.9633 5.74682 18.2455 5.82331 17.5371 5.51096C16.6689 4.98827 15.7128 5.23368 14.8038 5.23687C13.7068 5.24005 12.641 5.09322 11.5753 4.88605Z" fill="#B1A087"/>
<path d="M24.3891 5.19842C23.8468 5.16974 23.2669 5.36416 22.7968 4.91795C23.3359 4.96257 23.9283 4.69804 24.3891 5.19842Z" fill="#D3C3AD"/>
<path d="M27.8403 5.52018C27.3043 5.47237 26.7183 5.71781 26.2606 5.23017C26.7935 5.28436 27.3858 5.0166 27.8403 5.52018Z" fill="#D3C3AD"/>
<path d="M27.8497 6.16728C27.3168 6.1131 26.7244 6.37445 26.2731 5.87406C26.8091 5.91868 27.3952 5.67008 27.8497 6.16728Z" fill="#D1C2AB"/>
<path d="M28.5174 17.8774C28.6083 17.8869 28.6961 17.8869 28.787 17.8805C28.9938 17.9124 29.2006 17.9406 29.4043 17.9725C30.0688 18.0585 30.7333 18.1446 31.3979 18.2306C30.4293 18.2115 29.3919 18.7188 28.5174 17.8774Z" fill="#DBD6CB"/>
<path d="M17.5371 5.51096C18.2518 5.52371 18.9665 5.53646 19.6811 5.54921C18.3615 6.23127 16.9854 5.68307 15.3116 5.88705C16.2363 5.3516 16.9134 5.64801 17.5371 5.51096Z" fill="#E2D4BF"/>
<path d="M15.318 33.2746C15.4152 33.2651 15.5092 33.2555 15.6064 33.2491C16.1957 33.0866 16.716 33.3352 17.2457 33.5264C17.4996 33.7463 17.6125 34.285 18.1234 33.9216C18.5246 33.6443 18.882 33.2746 19.4148 33.281C19.6405 33.2874 19.8443 33.3543 20.0167 33.5073C20.1734 33.8834 19.9038 34.081 19.7001 34.3105C19.092 34.9925 19.8505 35.3559 20.1264 35.2443C21.3519 34.7567 22.0478 35.7319 22.9537 36.1112C23.2013 36.2706 23.4207 36.4554 23.5398 36.7391C23.6621 37.9375 22.9161 38.0873 22.0102 38.0363C20.4523 37.9662 19.0042 37.3733 17.4871 37.1024C15.9543 36.2993 15.55 34.8395 15.318 33.2746Z" fill="#D5AD7B"/>
<path d="M15.0137 32.3057C14.9698 32.9718 14.8539 33.6443 14.8946 34.3073C15.0294 36.4618 15.0514 36.4618 12.7945 36.7231C12.0328 36.1845 11.0987 36.5064 10.2681 36.159C9.2149 35.7192 8.31216 35.2156 7.93602 34.0523C7.96737 33.6889 8.11781 33.4276 8.51276 33.6125C8.93592 33.8101 9.16788 34.2467 9.50328 34.5463C9.34028 34.2085 8.75727 34.0427 9.05504 33.4913C9.24625 33.3607 9.45626 33.3256 9.67881 33.3607C10.312 33.6666 10.8135 34.2531 11.572 34.2945C12.1989 34.4794 12.8635 34.5909 13.3274 35.1264C13.6502 35.3686 13.9793 35.5726 14.0232 34.9192C14.0608 34.3614 13.9762 33.7941 14.1549 33.2459C14.3555 32.8762 14.3179 32.2834 14.9667 32.3248L15.0137 32.3057Z" fill="#D5AC7A"/>
<path d="M8.0992 33.896C8.82014 35.6872 10.3905 35.9294 11.9954 36.1461C12.2994 36.1876 13.1113 35.7159 12.7947 36.7198C10.983 36.9716 9.43137 36.417 8.10548 35.1613C7.41902 33.8705 6.40031 32.6625 7.11498 31.0243C7.14006 30.9255 7.162 30.8235 7.17454 30.7215C7.95503 30.6323 7.98637 31.1932 7.97697 31.7287C7.9613 32.4585 8.02711 33.1757 8.0992 33.896Z" fill="#DFB888"/>
<path d="M17.4871 37.1024C18.7002 36.4491 19.675 37.6631 20.8379 37.5388C21.2798 37.491 21.7469 37.6599 22.2014 37.73C22.3111 37.9021 22.2829 38.0455 22.1168 38.1603C21.6184 38.1635 21.1106 38.3292 20.6341 38.0423C19.8756 38.1443 19.164 37.8989 18.4431 37.7236C18.1203 37.5165 17.8037 37.3096 17.4871 37.1024Z" fill="#DCB688"/>
<path d="M22.2014 38.0394C22.2014 37.9374 22.2014 37.832 22.2014 37.73C23.054 37.9977 23.1355 37.2171 23.4646 36.774C23.4552 36.3087 23.6213 35.9103 24.0884 35.8147C24.5429 35.7223 24.5147 36.1239 24.5523 36.433C24.6212 37.0163 24.9566 36.7007 25.2105 36.6211C27.2166 35.9741 28.0473 34.3964 28.5112 32.2674C28.5112 32.2674 28.1507 32.4204 28.3325 32.5255C28.3545 32.5383 28.3231 32.5797 28.2635 32.6658C28.1726 32.7964 28.0629 32.9016 27.9313 32.9877C27.6868 33.0673 27.5113 32.9685 27.3733 32.7678C27.2699 32.5128 27.2386 32.2674 27.436 32.0379C27.2197 32.1717 27.0818 32.414 26.8279 32.4968C25.1196 32.3215 24.5335 31.2634 25.245 29.6507C25.3923 29.316 25.0977 29.2045 24.9034 29.0515C24.2953 28.7328 23.5994 28.685 22.9819 28.4141C22.6183 28.2547 22.098 28.0985 22.2484 27.5695C22.3644 27.1647 22.8252 27.2061 23.1919 27.2667C23.3894 27.2985 23.5869 27.391 23.7624 27.2061C24.079 27.1997 24.3956 27.1902 24.7121 27.1838C26.1352 27.5599 27.4235 28.1463 28.4109 29.3256C30.2508 31.5184 29.4829 36.0346 25.9597 37.4051C25.0601 37.7971 24.1542 38.1445 23.148 38.0489C22.8314 38.2529 22.5148 38.2593 22.2014 38.0394Z" fill="#DBB686"/>
<path d="M22.2014 38.0394C22.518 38.0425 22.8343 38.0459 23.1509 38.0523C22.3109 38.5144 21.4708 38.524 20.6308 38.0427C21.1542 38.0427 21.6779 38.0425 22.2014 38.0394Z" fill="#D5AD7B"/>
<path d="M8.0992 33.896C7.63843 33.2394 7.29995 32.5444 7.61027 31.7221C7.80774 31.2058 7.5852 30.9317 7.16831 30.7213C7.80462 28.2831 9.4471 26.7469 11.5754 25.6473C11.9234 25.9724 12.6443 25.4019 12.7665 26.0457C12.8762 26.6067 12.2932 26.7979 11.8607 26.9573C11.4532 27.1102 11.146 27.3684 10.8639 27.6807C10.4877 28.2576 9.50978 28.4042 9.70726 29.3763C10.8827 29.7492 10.8137 28.35 11.5127 28.0696C11.682 27.821 11.472 27.5915 11.4688 27.3493C12.1741 26.7724 13.0674 26.4632 13.6034 25.6378C13.8793 25.2139 14.431 25.2935 14.8949 25.3286C15.0265 25.3541 15.1519 25.4051 15.2648 25.4784C15.5092 25.7397 15.3086 26.0744 15.4089 26.3612C15.4716 26.4632 15.5312 26.5652 15.5907 26.664C15.6848 26.8298 15.7349 27.0051 15.7067 27.1963C15.6566 27.3174 15.597 27.429 15.528 27.5373C15.2804 28.0823 16.6189 28.3532 15.829 28.8887C15.224 29.2966 14.782 30.4759 13.7226 29.6345C12.3528 29.4719 12.87 30.8201 12.3873 31.3619C12.1271 31.9994 11.588 32.3755 10.9736 32.7452C11.519 33.0352 11.9735 33.2647 12.0331 33.8575C12.0111 34.1953 11.8669 34.4376 11.5315 34.5364C10.6507 34.7308 10.121 34.2049 9.64456 33.577C9.45336 33.3603 9.25589 33.2264 9.04588 33.5579C9.39381 34.0328 9.74487 34.5077 10.1242 35.0272C9.11484 35.1069 9.08344 33.6697 8.0992 33.896Z" fill="#DAB07E"/>
<path d="M15.3054 25.6154C14.4967 25.5325 13.7664 25.6186 13.3495 26.4727C12.9828 27.2281 12.0738 27.0401 11.5378 27.5118C11.5754 27.7572 12.0017 27.7763 11.8826 28.1141C11.0739 28.7197 10.9234 30.3962 9.33422 29.7396C9.08345 28.605 10.3655 28.3564 10.5912 27.499C11.0018 26.6959 12.1365 26.9062 12.522 26.0616C12.265 25.8003 11.7729 26.0616 11.5723 25.6505C11.8732 25.5166 12.174 25.3865 12.4749 25.2526C12.5721 25.2653 12.6725 25.2744 12.7696 25.2712C13.6348 25.2744 14.5782 24.6274 15.3054 25.6154Z" fill="#E2BC8F"/>
<path d="M9.94213 19.8785C9.94526 19.308 9.88888 18.7282 9.9641 18.1673C10.0895 17.2462 10.5345 17.7622 10.8981 18.0044C10.5659 19.5024 11.4185 19.6461 12.5501 19.5346C12.8761 19.5027 13.3807 19.3784 13.434 19.8852C13.503 20.5385 12.9294 20.4334 12.5595 20.4142C11.663 20.3696 10.6756 20.7326 9.94213 19.8785Z" fill="#675C4D"/>
<path d="M16.6188 19.8787C17.158 20.5066 17.8601 20.089 18.4838 20.175C18.7346 20.2101 19.0292 20.1782 19.0982 20.5065C19.186 20.924 18.8631 21.077 18.5622 21.1025C17.8977 21.163 17.23 21.1567 16.5624 21.1758C16.0828 20.975 15.575 20.771 15.622 20.1208C15.6596 19.5981 15.2804 18.7599 15.9762 18.6324C16.904 18.4667 16.3023 19.4962 16.6188 19.8787Z" fill="#625647"/>
<path d="M22.8314 16.3729C22.659 17.5554 21.4617 17.9697 20.9883 18.929C20.7156 18.8047 20.6435 18.5625 20.6341 18.2852C21.377 17.6637 21.6623 16.494 22.8314 16.3729Z" fill="#F5F0E5"/>
<path d="M14.9388 17.6764C15.6879 17.7465 16.5154 17.2971 17.1611 18.027C16.4433 17.7816 15.6284 18.1385 14.9388 17.6764Z" fill="#726757"/>
<path d="M18.114 17.9088C18.6688 17.4307 19.3427 17.759 19.9477 17.6347C19.8599 17.7622 19.769 17.8897 19.6812 18.0204C19.1515 18.1192 18.6155 18.2913 18.114 17.9088Z" fill="#726757"/>
<path d="M18.114 17.9088C18.6375 17.9439 19.1577 17.9825 19.6812 18.0176C19.1389 18.5052 18.4838 18.1929 17.882 18.2853C17.9603 18.161 18.0388 18.0363 18.114 17.9088Z" fill="#F5F0E5"/>
<path d="M21.2672 15.777C21.7844 15.8185 22.3548 15.5762 22.7968 16.0543C22.2827 15.9874 21.7123 16.2455 21.2672 15.777Z" fill="#F5F0E5"/>
<path d="M19.3835 18.6067C19.4086 19.3398 18.6908 18.9318 18.44 19.2378C18.4713 18.5908 18.9258 18.5972 19.3835 18.6067Z" fill="#F5F0E5"/>
<path d="M20.3207 23.3845C19.791 24.5319 19.1547 25.3956 17.8131 24.3407C17.8946 23.9582 17.5967 23.4163 18.1233 23.2315C18.4806 23.1072 18.5715 23.5311 18.747 23.7861C19.5777 24.9781 19.6154 22.8077 20.3207 23.3845Z" fill="#F7EEDF"/>
<path d="M13.7381 29.4368C14.7003 29.9022 14.9699 28.5731 16.0106 28.7994C15.5655 28.1938 14.6784 28.5572 14.7913 27.7827C14.8571 27.3333 15.227 27.2377 15.6125 27.2122C16.4118 27.2664 17.255 27.4385 17.1014 26.0935C17.0669 25.8003 17.5026 25.6951 17.8161 25.9277C18.2423 26.1349 18.537 26.4795 18.769 26.8843C19.1514 27.6651 18.5245 27.8783 18.0606 28.1779C16.5246 29.1691 15.4746 30.5332 14.9605 32.3149C14.7599 32.6304 14.5593 32.9459 14.3587 33.2615C14.2929 33.2296 14.2302 33.1977 14.1644 33.1658C13.7036 32.5985 14.0421 32.0631 14.249 31.5436C14.3932 31.1834 14.5311 30.8615 14.1832 30.5492C13.9449 30.2814 13.6942 30.0233 13.6534 29.6408C13.6879 29.5739 13.713 29.5038 13.7381 29.4368Z" fill="#DCB586"/>
<path d="M17.8192 25.9277C17.3428 26.4409 17.3428 26.4409 17.5622 27.7636C16.9228 27.4576 16.1172 27.9707 15.6157 27.2122L15.6314 27.1899C16.1517 26.6831 15.4214 26.8042 15.343 26.597L15.296 26.5524C15.1016 26.2369 15.5812 25.9277 15.3054 25.6122C14.5311 24.9652 13.6096 25.4592 12.7758 25.2712C14.5562 24.6943 16.2426 24.8823 17.8192 25.9277Z" fill="#DAB07E"/>
<path d="M16.9573 15.6906C16.2803 15.1966 16.5436 14.8428 17.183 14.8141C17.7159 14.7918 18.5403 14.387 18.7095 15.3751C18.8098 15.9615 18.3365 16.0731 17.8883 16.0316C17.6469 16.0093 17.4181 15.8627 17.183 15.7703C17.1768 15.6523 17.4463 15.595 17.2865 15.4802C17.2144 15.4292 17.0545 15.5918 16.9573 15.6906Z" fill="#605547"/>
<path d="M16.9573 15.6906C17.0921 14.2755 17.9227 15.3689 18.4869 15.0948C18.2486 16.0414 17.6031 15.6173 17.183 15.7703C17.1203 15.7033 17.0451 15.6778 16.9573 15.6906Z" fill="#E2DED6"/>
<path d="M25.3357 28.8029C25.2949 29.2523 26.4704 29.0452 25.8592 29.7878C25.5833 30.1193 24.6587 30.2021 24.9784 30.6292C25.4015 31.1965 25.458 32.1973 26.4202 32.2865C26.577 32.3025 26.7337 32.2993 26.8873 32.3057C27.1474 32.2961 27.3449 32.4236 27.5205 32.6053C27.627 32.7168 27.7367 32.8315 27.8433 32.9431C28.7931 33.2905 28.4107 33.7112 27.8652 34.0522C27.3731 34.3582 26.8089 34.4857 26.2228 34.457C26.0222 34.4634 25.8278 34.4315 25.6523 34.3359C24.5897 34.8745 24.0913 36.194 22.825 36.449C21.8752 36.3343 21.2891 34.7152 19.9851 35.8307C19.6873 36.0857 19.6999 35.053 19.1858 34.8937C18.8034 34.7725 18.9695 34.4825 19.1764 34.2881C19.4397 34.0395 19.7281 33.8164 20.0039 33.5837C19.772 32.6499 20.2453 32.2738 21.0759 32.1877C21.3643 32.1367 21.5931 33.1216 21.9755 32.1941C22.1291 31.8212 22.6212 31.5662 23.0538 31.3878C22.3861 31.5375 22.0727 32.312 21.3518 32.363C20.9599 32.0539 20.3675 31.9583 20.2484 31.2985C20.4898 32.2802 19.9569 32.9431 19.377 33.5837C18.957 33.7973 18.537 34.0108 18.1169 34.2212C17.7 34.1893 17.4775 33.8642 17.2142 33.5997C16.556 34.0714 16.1234 33.4658 15.6062 33.2554C15.5905 32.2833 15.6187 31.324 16.5215 30.6898C17.3458 30.7726 18.1796 30.8969 18.7877 30.1097C19.0322 29.8452 19.3143 29.6348 19.6591 29.4978C19.4115 29.4659 19.1983 29.6794 18.9538 29.5711C18.352 28.9272 18.9539 28.6468 19.3519 28.3886C19.96 27.9902 20.6277 27.6205 21.3706 28.0253C21.7749 28.2452 22.0884 28.6181 22.5209 28.8061C22.7968 28.94 23.035 29.2938 23.3923 28.9559C24.0224 28.6022 24.6743 28.6563 25.3357 28.8029Z" fill="#DBB280"/>
<path d="M19.0512 30.3674C18.2926 31.1515 17.4808 31.5276 16.5216 30.6862C16.6376 30.4822 16.7536 30.2782 16.8696 30.0774C17.2175 30.2176 17.1862 29.9722 17.183 29.7555C18.418 28.2862 20.0072 27.4798 21.8691 27.1962C22.402 26.9763 22.9317 26.9731 23.4646 27.1962C23.5649 27.193 23.6621 27.1994 23.7592 27.2089C23.4646 27.7125 22.8878 27.3747 22.4333 27.687C23.2702 28.4902 24.5209 28.0886 25.3296 28.8025C24.687 28.9173 24.0476 29.0288 23.405 29.1436C23.1072 29.3603 22.8314 28.8248 22.5336 29.1181C22.2014 28.9906 21.8064 28.9428 21.5431 28.726C20.4805 27.8623 19.6373 28.0854 19.0543 29.4336C19.3208 29.7459 18.744 30.0519 19.0512 30.3674Z" fill="#E2BE91"/>
<path d="M17.1862 29.756C17.4589 29.9823 17.8382 30.3265 17.4965 30.5942C17.0859 30.9129 16.9198 30.4699 16.8727 30.0779C16.9762 29.9695 17.0796 29.8611 17.1862 29.756Z" fill="#EDD3B3"/>
<path d="M23.4678 27.1964C22.9349 27.1964 22.4052 27.1964 21.8723 27.1964C22.4052 26.7439 22.9349 26.7439 23.4678 27.1964Z" fill="#DBB686"/>
<path d="M26.27 34.2403C26.7903 34.0586 27.3201 33.8993 27.8278 33.6889C28.3388 33.4754 28.1474 33.2013 27.8433 32.9431C28.0188 32.3598 28.1915 31.7766 28.3827 31.1392C29.6145 33.8005 27.342 36.9876 24.0664 37.3064C23.8031 36.8442 24.4394 36.4841 24.2326 35.9199C23.9348 36.2546 23.6997 36.5159 23.4646 36.7773C23.2515 36.6689 23.0383 36.5574 22.8283 36.449C23.7404 35.6426 24.7498 34.9287 25.2701 33.7526C25.3641 33.5423 25.5115 33.3797 25.6243 33.7431C25.6682 33.8865 25.6462 34.0491 25.6556 34.2052C25.828 34.747 26.0506 34.4506 26.27 34.2403Z" fill="#D3AA77"/>
<path d="M21.261 32.3057C20.515 32.3982 20.1013 32.8252 20.0072 33.5806C19.7972 33.5806 19.5904 33.5806 19.3803 33.5806C20.095 32.6786 19.5559 31.2572 20.678 30.4189C20.0041 31.407 21.0573 31.7002 21.261 32.3057Z" fill="#D6AB78"/>
<path d="M17.2175 33.5961C17.6782 33.561 17.9353 33.8351 18.1202 34.2176C18.0074 34.447 17.8538 34.7498 17.5905 34.6415C17.1328 34.463 17.1642 34.0136 17.2175 33.5961Z" fill="#AB804F"/>
<path d="M14.3652 33.2618C14.3808 33.7909 14.337 34.3327 14.4279 34.8458C14.5 35.2538 14.5219 35.5853 14.1614 35.8243C13.6944 36.1335 13.3935 35.8307 13.1239 35.4801C13.5596 34.8395 12.4375 34.6673 12.7102 34.0713C13.0361 33.3287 13.5784 33.0387 14.3652 33.2618Z" fill="#CCA06D"/>
<path d="M12.8073 34.2017C12.7383 34.6734 14.4999 34.6766 13.1207 35.4797C12.8762 34.667 11.9359 35.0622 11.5315 34.5331C11.6506 34.3323 11.7697 34.1347 11.8889 33.9339C12.3026 33.6439 12.6788 33.4877 12.8073 34.2017Z" fill="#C19462"/>
<path d="M9.0488 33.5549C8.98924 33.249 8.49086 32.8059 9.11149 32.688C9.72899 32.5669 9.62241 33.1757 9.64748 33.5772C9.44687 33.5677 9.24627 33.5613 9.0488 33.5549Z" fill="#B0895D"/>
<path d="M27.5205 32.6053C27.2572 32.6212 27.0315 32.5511 26.8873 32.3057C27.0033 32.0762 27.132 31.7573 27.4079 31.8879C27.5301 31.9453 27.486 32.3567 27.5205 32.6053Z" fill="#BC915C"/>
<path d="M12.8073 34.2017C12.5753 33.8511 12.2305 33.8899 11.8857 33.9345C11.5534 33.4118 11.2964 32.6947 10.4281 33.6827C10.3843 32.1592 11.7352 32.1337 12.1709 31.3465C12.7978 31.0437 13.6598 31.1808 13.989 30.3298C14.1269 30.2501 14.2523 30.2756 14.362 30.384C15.1989 30.5529 15.0077 30.9959 14.6723 31.5122C14.3275 32.0445 14.0609 32.6049 14.3587 33.2615C13.8102 33.5164 13.2022 33.6726 12.8073 34.2017Z" fill="#D5AC7A"/>
<path d="M14.0485 30.3935C14.0955 32.0763 13.0705 31.5823 12.174 31.3465C12.1897 30.5943 12.3715 29.8804 12.826 29.2908C13.1332 28.8924 13.5688 28.5317 13.7381 29.4368C13.4465 29.8894 14.0203 30.0493 14.0485 30.3935Z" fill="#DFB887"/>
<path d="M10.5944 27.4994C10.6257 28.5066 9.48477 28.8348 9.33744 29.74C8.92055 29.689 8.57576 29.5265 8.97071 29.0803C9.4691 28.5161 10.049 28.0221 10.5944 27.4994Z" fill="#EED3AF"/>
<path d="M15.3054 25.6154C16.0953 25.9373 15.578 26.2468 15.2959 26.556C14.3336 26.2309 15.412 25.9309 15.3054 25.6154Z" fill="#E7C69B"/>
<path d="M15.3431 26.6007C15.6973 26.5752 16.1863 26.4604 16.2709 26.8875C16.3744 27.4102 15.8635 27.1106 15.6284 27.1935C15.5343 26.9959 15.4403 26.7983 15.3431 26.6007Z" fill="#BE8F5B"/>
<path d="M11.8856 28.1144C11.9107 27.8307 11.2305 27.9646 11.5409 27.512C11.8198 27.5534 12.2116 27.3909 12.337 27.7351C12.4749 28.108 12.1207 28.0889 11.8856 28.1144Z" fill="#B5895A"/>
<path d="M14.0485 30.3935C13.7162 30.1513 13.177 29.9787 13.7381 29.4368C13.9481 29.7524 14.1582 30.0683 14.3682 30.3838C14.2616 30.387 14.1551 30.3903 14.0485 30.3935Z" fill="#DAB07E"/>
<path d="M21.261 32.3057C21.725 31.8914 22.1889 31.4802 22.6497 31.0626C22.891 30.8427 23.1637 30.6483 23.4771 30.8204C23.6182 30.9001 23.7154 31.1519 23.7405 31.3367C23.8 31.8339 23.427 31.7001 23.1355 31.767C22.1011 31.9997 21.9569 32.822 22.1293 33.912C21.3802 33.4371 21.6246 32.7137 21.261 32.3057Z" fill="#D6AB78"/>
<path d="M19.0512 30.3674C17.8914 30.0455 19.0448 29.746 19.0605 29.4337C19.4742 29.2297 19.8911 29.0289 20.4898 28.7357C20.3049 29.7333 19.2769 29.6918 19.0512 30.3674Z" fill="#F4DFBD"/>
<path d="M19.3458 32.1592C19.2987 32.4938 19.1702 32.7934 18.8004 32.7966C18.443 32.7998 18.4493 32.4683 18.4587 32.2197C18.4713 31.9042 18.5527 31.5536 18.9477 31.5759C19.2517 31.5887 19.3176 31.8914 19.3458 32.1592Z" fill="#D6AB78"/>
<path d="M26.27 34.2403C26.1352 34.6036 26.5708 35.3141 25.8624 35.279C25.5332 35.2631 25.1602 34.6862 25.6523 34.205C25.8592 34.2145 26.0631 34.2275 26.27 34.2403Z" fill="#C1935C"/>
<path d="M22.5366 29.1184C22.8438 28.5893 23.1227 29.0291 23.4111 29.1439C23.4268 29.4307 23.5835 29.8546 23.2356 29.9247C22.6839 30.0395 22.9096 29.2777 22.5366 29.1184Z" fill="#BD8B54"/>
</svg>
