<svg width="50" height="21" viewBox="0 0 50 21" fill="none" xmlns="http://www.w3.org/2000/svg">
<path d="M46.3667 5.13226C47.842 5.51021 49.8 6.21601 49.545 7.63671C49.2901 9.0392 47.2227 8.11939 45.9614 8.22412C45.4787 8.2651 44.9687 7.98278 44.4724 7.84617C44.4997 7.66859 44.7502 7.70957 44.7775 7.53198C43.8395 7.55475 42.906 7.57751 42.1273 6.90814C41.7858 6.36627 41.7448 5.78342 41.8769 5.17324C41.9452 4.93646 42.0636 4.727 42.2321 4.54941C42.8377 4.43557 43.0881 4.83173 43.0881 5.3053C43.0881 6.61216 43.4524 5.01387 43.548 5.3736C43.9305 5.10494 44.3722 5.04574 44.8276 4.98655C45.3603 4.91825 45.8294 5.36905 46.3667 5.13226Z" fill="#D7B377"/>
<path d="M42.7559 7.70518C41.5128 7.63232 40.3699 7.93286 39.4091 8.73428C36.7225 10.9837 34.0541 13.2559 31.3812 15.5191C30.7073 15.5691 30.1654 16.0974 29.4642 16.0518C29.1909 16.0199 28.9223 15.9881 28.6491 15.9562C28.3895 15.6921 28.3531 15.3779 28.4533 15.0364C29.5325 13.7159 31.1034 13.0647 32.4968 12.1995C34.4913 10.9519 36.3218 9.51749 38.0749 7.96473C39.2315 7.37277 40.3335 6.63054 41.7177 6.68974C42.0183 7.07679 42.8379 6.93108 42.7559 7.70518Z" fill="#D7B579"/>
<path d="M16.4822 2.70042C20.6441 3.71586 24.9336 2.00828 29.0864 3.27416C29.1046 4.0255 28.5127 4.07558 28.0072 4.23041C24.9063 4.48085 21.7916 4.16666 18.6952 4.46719C18.0168 4.63112 17.3337 4.80415 16.637 4.90433C15.8902 4.82237 15.1116 5.02272 14.383 4.70853C14.1144 4.49451 13.9277 4.23951 13.9687 3.87068C14.1599 3.51095 14.5333 3.4472 14.8475 3.26961C15.0387 3.16032 15.5214 3.94353 15.4668 3.03282C15.4303 2.36801 16.0633 2.59568 16.4822 2.70042Z" fill="#D0B57E"/>
<path d="M15.4713 19.5573C11.7784 19.8168 8.09002 20.0536 4.53371 18.6557C4.4563 18.2231 4.73406 18.0318 5.06647 17.8816C6.9653 18.0091 8.8277 17.3716 10.7356 17.581C11.2866 17.5993 10.1528 18.5145 11.2046 18.387C12.17 18.2686 13.1445 18.1684 14.128 18.1411C14.6972 18.1457 15.2619 18.1776 15.7718 18.4826C16.2591 19.0063 15.9176 19.2932 15.4713 19.5573Z" fill="#E1C284"/>
<path d="M14.0548 4.10703C14.2142 4.2664 14.369 4.42122 14.5284 4.5806C13.9455 5.50952 12.8526 5.53684 12.0148 6.01952C9.72436 7.00308 7.61152 8.26441 5.70359 9.88092C5.09341 10.3955 4.49234 11.0876 3.53155 10.5731C3.40405 10.359 3.42226 10.1587 3.56798 9.96288C5.31654 8.00031 7.525 6.67067 9.89285 5.66434C11.1496 5.13158 12.1468 4.47587 12.798 3.2965C13.5448 3.05516 13.6814 3.76096 14.0548 4.10703Z" fill="#CDAF71"/>
<path d="M3.5636 9.95838C3.58182 10.1451 3.59548 10.3318 3.61369 10.523C3.86414 10.7644 3.89146 11.0603 3.80949 11.3745C3.47709 12.226 2.62557 12.7178 2.2795 13.5511C2.22942 13.8835 2.38424 14.1067 2.65289 14.2751C3.31771 14.685 4.31949 14.9445 4.05083 15.9736C3.80949 16.9116 2.83048 16.8934 2.03817 17.03C1.62379 17.0756 1.20487 17.112 0.804157 16.9435C1.10469 16.1421 1.6329 15.4135 0.29416 14.8671C-0.329675 14.6121 0.184875 13.7879 0.499069 13.2734C1.29594 11.9574 2.32049 10.8554 3.5636 9.95838Z" fill="#DAB677"/>
<path d="M42.3052 4.59488C42.3007 4.7588 42.2961 4.91818 42.2916 5.0821C41.9956 5.31889 41.6723 5.50103 41.2943 5.57389C40.5567 5.67406 39.819 5.6513 39.0768 5.66496C37.5012 5.70594 35.9348 5.61031 34.3957 5.23237C34.0451 5.2096 33.6945 5.18228 33.3484 5.12764C32.8885 5.03657 32.4468 4.90907 32.1964 4.45372C32.1098 4.01202 32.4605 3.89363 32.7337 3.71149C35.6252 3.73881 38.4666 4.7588 41.39 4.12131C41.7633 4.15318 42.1003 4.2397 42.3052 4.59488Z" fill="#D2B987"/>
<path d="M47.7467 0.487127C47.8833 1.03355 47.8104 1.52989 47.3687 1.92605C46.4899 2.26301 45.7659 2.81399 45.1603 3.53345C44.9189 3.77934 44.6412 3.97514 44.3224 4.12085C43.5392 4.19826 42.4873 5.13174 42.2506 3.47425C43.5483 2.57265 44.5 1.22025 45.9845 0.546323C46.581 0.824089 47.1365 -0.0775127 47.7467 0.487127Z" fill="#DFBD81"/>
<path d="M23.2395 17.827C21.8689 18.9153 19.542 18.0911 18.6177 20.3861C18.3581 21.0236 16.687 20.3542 15.8218 19.6712C16.2407 19.1157 16.7507 18.7787 17.4929 18.8743C18.5266 19.0109 17.156 18.3734 17.666 18.3233C19.1413 17.3398 20.858 17.3443 22.5246 17.1258C22.898 17.2214 23.1348 17.4582 23.2395 17.827Z" fill="#E0C493"/>
<path d="M42.2506 3.47425C42.9017 4.68549 43.8262 3.29278 44.5594 3.71625C44.7779 3.8984 44.5457 4.28545 44.573 4.26723C45.5293 3.63429 45.6431 4.59964 46.0347 5.01857C46.1576 5.01857 46.2711 5.05485 46.3667 5.13226C45.4742 5.91092 44.2634 5.35553 43.2252 5.95204C42.5421 6.33909 43.0795 4.77268 42.3054 4.59964C41.9274 4.58598 41.5722 4.53134 41.3901 4.13063C41.677 3.9075 41.9637 3.69282 42.2506 3.47425Z" fill="#CDA869"/>
<path d="M14.0548 4.10703C13.3718 4.23908 13.208 3.57051 12.7891 3.29275C13.6861 1.03419 15.1387 2.21356 16.4774 2.70079C16.2452 4.15792 14.6786 3.31927 14.0548 4.10703Z" fill="#E6C98D"/>
<path d="M23.2395 17.827C23.071 17.6767 22.9024 17.5219 22.7339 17.3717C24.4369 15.91 26.3312 14.9492 28.6535 15.0721C28.6535 15.3681 28.6535 15.6641 28.6535 15.9601C26.7638 16.338 25.193 17.6449 23.2395 17.827Z" fill="#DDC18A"/>
<path d="M46.0347 5.01857C45.2834 4.00313 44.3769 4.64507 43.4525 4.71337C43.8214 4.38097 44.1905 4.04866 44.5594 3.71625C44.7233 3.55233 44.8869 3.38829 45.0508 3.21981C45.6291 2.48214 46.2074 2.09509 46.7994 3.20615C46.7083 3.88008 45.8435 4.22625 46.0347 5.01857Z" fill="#DAB77B"/>
<path d="M0.803985 16.9391C1.15916 16.7843 1.50978 16.634 1.86496 16.4792C2.87585 17.1258 4.53789 16.593 5.01601 18.2095C4.85664 18.3598 4.69308 18.5054 4.53371 18.6557C3.19041 18.3051 1.7921 18.0638 0.803985 16.9391Z" fill="#E2C590"/>
<path d="M46.7948 3.20622C46.2074 2.76908 45.6291 2.84194 45.0463 3.21988C45.4424 2.11793 46.1528 1.57605 47.364 1.92668C47.1773 2.35471 46.9861 2.77819 46.7948 3.20622Z" fill="#D2AF78"/>
<path d="M42.7559 7.70518C42.4554 7.43197 42.1593 7.16279 41.8588 6.88958L42 6.72109L42.2094 6.7894C43.2932 7.03529 44.3815 7.28573 45.7748 7.60448C45.151 7.72287 44.814 7.78207 44.4771 7.84582C43.8988 7.80028 43.3297 7.75527 42.7559 7.70518Z" fill="#CDA561"/>
<path d="M17.6797 18.6516C17.8072 18.7973 18.6542 18.729 17.912 19.1297C17.2972 19.4576 16.5277 19.4986 15.8264 19.6671C15.7035 19.6534 15.5851 19.617 15.4758 19.5532C15.6261 19.2891 15.7718 19.025 15.9221 18.7655C16.4685 18.178 17.0604 18.1735 17.6797 18.6516Z" fill="#D1AB71"/>
<path d="M29.4642 16.0518C29.8239 14.8679 30.5433 14.9726 31.3812 15.5191C30.9031 16.2658 30.3566 16.7758 29.4642 16.0518Z" fill="#E1C491"/>
<path d="M32.7337 3.71609C32.5789 3.8618 32.4286 4.00752 32.2738 4.15323C31.404 4.87269 30.5115 4.84537 29.5917 4.25341C29.4551 3.35181 29.9332 3.41556 30.5298 3.65234C31.2674 3.67055 32.0006 3.69332 32.7337 3.71609Z" fill="#D0B57E"/>
<path d="M30.5341 3.65191C30.1471 3.68378 29.7691 3.73387 29.5597 4.13003C28.9358 4.50342 28.3712 4.69012 28.1799 3.69744C28.5397 3.67923 28.8815 3.62023 29.0864 3.27416C29.6101 3.22863 30.1607 3.10548 30.5341 3.65191Z" fill="#D2B987"/>
<path d="M47.7467 0.487127C47.1502 0.309538 46.5993 1.29792 45.9846 0.551138C46.5537 0.15498 47.1228 -0.428135 47.7467 0.487127Z" fill="#CFA865"/>
<path d="M42.2051 6.79445C42.0867 6.81266 41.9683 6.84909 41.859 6.89463C40.6796 7.35454 39.5048 7.80989 38.3254 8.2698C38.1387 8.40185 37.9429 8.42462 37.7335 8.32899C37.7608 6.31633 39.7917 6.58954 40.7707 5.66062C40.9938 5.46482 41.2033 5.2508 41.4401 5.06866C41.7224 5.07321 42.0047 5.07776 42.287 5.08232C42.2597 5.65151 42.2324 6.2207 42.2051 6.79445Z" fill="#F3E4C4"/>
<path d="M37.7471 8.22407C37.9383 8.23773 38.1342 8.25158 38.3254 8.2698C35.6525 11.3252 32.0642 13.0736 28.6491 15.0726C26.6774 15.8376 24.7057 16.6071 22.7295 17.3721C21.0447 17.8002 19.3598 18.2282 17.675 18.6562C17.0876 18.6927 16.5002 18.7337 15.9128 18.7701C15.3026 18.7473 14.6879 18.7245 14.0777 18.7018C15.7717 17.4996 16.7325 15.5872 18.3353 14.3031C18.7406 13.9798 19.287 13.8523 19.8061 13.7156C20.9354 13.5107 22.0646 13.4743 23.1939 13.7202C25.0745 15.232 25.7348 15.1955 27.6245 13.3787C28.1664 12.855 28.7447 12.3906 29.3685 11.9762C30.4022 11.2431 31.6407 10.8515 32.6152 10.0182C34.1179 8.82514 35.6205 7.62756 37.7471 8.22407Z" fill="#F8EBD4"/>
<path d="M28.18 3.69291C28.5261 4.2029 29.0588 4.12094 29.5597 4.12549C30.4659 4.1346 31.372 4.13915 32.2782 4.14826C32.4785 4.49433 32.811 4.5854 33.1798 4.60362C33.2982 4.69469 33.3528 4.79942 33.3437 4.92236C33.3346 5.04986 33.3164 5.10906 33.2845 5.10906C32.861 5.50977 32.351 5.78298 31.8547 6.06986C31.1444 5.76022 30.8985 6.83941 30.2154 6.63905C30.0105 6.5753 29.8785 6.43869 29.8102 6.23834C29.0452 4.74478 27.6472 4.57629 25.7302 5.87861C26.8003 5.15004 27.9341 4.95879 29.1545 5.28209C29.7464 5.44147 29.7646 5.86495 29.7783 6.32485C28.2893 7.20369 30.5797 7.70458 29.9969 8.49689C28.5898 9.56242 26.8731 9.62162 25.243 9.94947C24.3049 9.62617 23.3123 10.2455 22.3833 9.78099C21.7823 9.28466 22.8433 8.04154 22.0555 8.11895C21.0719 8.21457 19.7423 8.04154 19.0638 9.22091C17.5703 9.42582 16.9282 8.86118 17.3608 7.33119C17.7387 6.78021 18.3261 6.47967 18.8498 6.09718C19.1139 5.91048 19.3962 5.76932 19.7241 5.742C20.3434 5.86039 20.9854 5.72379 21.6092 5.8012C20.9262 5.68736 20.2068 5.86495 19.5419 5.6145C19.5556 4.68103 18.695 4.55353 18.1668 4.11639C20.5528 3.1738 23.0391 3.88871 25.4752 3.67925C26.3677 3.61094 27.2784 3.68835 28.18 3.69291Z" fill="#DEC797"/>
<path d="M19.5603 5.93302C19.3781 6.10605 19.1914 6.27909 19.0093 6.45668C18.5995 6.73899 18.2625 6.57962 17.9483 6.28819C17.5704 5.64159 16.7598 5.80097 16.2544 5.38659C16.1087 5.09517 16.0859 4.82195 16.35 4.58062C16.9146 4.27098 17.5066 4.06607 18.1669 4.12526C18.7679 4.46222 20.9354 3.23277 19.5694 5.53231C19.7151 5.62338 19.7606 5.71445 19.7105 5.80096C19.6604 5.89204 19.6103 5.93302 19.5603 5.93302Z" fill="#E5D2AA"/>
<path d="M16.35 4.58062C16.3546 4.8857 16.3589 5.18625 16.3589 5.49134C16.3179 5.59607 16.2815 5.7008 16.2405 5.81009C16.0948 5.98768 15.9081 6.10151 15.6895 6.16526C14.6467 6.11062 13.6268 6.19258 12.5977 6.45214C12.0194 6.59785 11.2862 6.53865 11.8235 5.55509C12.7252 5.23179 13.6222 4.90849 14.5238 4.58518C15.134 4.58063 15.7444 4.14348 16.35 4.58062Z" fill="#E0C998"/>
<path d="M5.02061 18.2099C4.06436 17.4586 2.67549 17.4946 1.86496 16.4792C2.53888 16.3335 3.5999 16.6799 3.70008 15.7283C3.77294 15.0361 2.81214 14.7401 2.19286 14.6946C0.467065 14.5762 1.45063 13.8431 1.79215 13.2329C2.96696 12.2402 4.31026 13.8841 5.48962 12.9916C5.70364 12.7958 5.88123 12.5726 6.01328 12.3131C6.4231 11.4115 5.41221 9.8724 7.22452 9.59463C7.95309 9.64472 8.59514 9.52633 8.49951 10.7649C8.40844 11.9579 9.71986 12.8777 9.69709 14.1846C9.74263 14.895 9.91111 15.619 9.42388 16.2474C9.33737 16.3612 9.23263 16.4659 9.1188 16.5615C9.22353 16.5889 9.23719 16.475 9.31005 16.434C10.1251 15.4186 9.69709 14.3303 9.51495 13.2511C9.1279 12.0126 8.95487 10.8696 10.6943 10.5736C10.9448 10.5736 11.1861 10.6283 11.4138 10.7285C11.7416 10.9288 11.9875 11.202 12.1469 11.5527C12.6797 13.5562 12.3882 15.455 11.4001 17.2628C11.2726 17.4814 11.1041 17.6544 10.8856 17.7865C8.94121 18.0915 7.02872 18.8474 5.02061 18.2099Z" fill="#F7E5BD"/>
<path d="M10.8856 17.8041C10.8902 17.6811 10.8902 17.5582 10.8765 17.4353C12.4065 15.6412 12.4384 13.5602 12.0422 11.3927C13.0394 10.013 14.4601 10.5275 15.7715 10.5548C16.0903 10.6687 16.3498 10.8508 16.4637 11.1832C16.1495 12.2897 14.8426 12.1987 14.2825 13.0001C14.1915 13.5693 14.6195 13.8288 14.9565 14.1385C16.2679 14.9217 17.0602 13.3963 18.1986 13.4054C18.7678 13.4418 19.2459 13.6376 19.551 14.1521C18.6585 14.6576 17.2378 15.204 17.2514 16.0145C17.2833 18.4416 14.9883 17.6629 14.0913 18.6966C12.9666 18.7285 11.8054 19.1064 10.7262 18.692C9.84284 18.3596 10.9357 18.1319 10.8856 17.8041Z" fill="#F5E4C5"/>
<path d="M7.28384 9.9721C6.7192 10.0996 6.24107 10.2681 6.58714 11.0194C6.89223 11.6888 6.90589 12.3308 6.30938 12.8773C6.15911 12.7771 6.03161 12.6541 5.93143 12.5039C5.78117 12.2853 5.6309 12.0576 5.43965 11.8664C4.97064 11.4292 4.36957 11.6706 3.8368 11.5613C3.75484 11.5112 3.66832 11.4566 3.58636 11.4065C3.59547 11.1105 3.60002 10.8145 3.60913 10.5231C6.40955 8.96577 8.68633 6.54784 11.8283 5.55517C11.9512 6.57061 12.5432 6.02874 12.9257 5.84204C13.9548 5.3366 14.9292 5.41856 15.8991 5.96499C15.9948 6.90757 15.1706 6.86659 14.6424 7.1398C13.3355 6.93944 12.739 7.72265 12.3519 8.79729C11.6826 9.38925 10.7627 8.71533 10.0843 9.25264C9.88391 9.48032 9.679 9.69889 9.41034 9.84916C8.7182 10.1315 7.97142 9.55318 7.28384 9.9721Z" fill="#DCC089"/>
<path d="M5.95434 13.2194C5.54452 14.0435 4.94801 14.1164 4.12382 13.8068C3.38159 13.529 2.57562 13.4243 1.79696 13.2421C2.21133 12.4498 2.84883 11.8806 3.59105 11.4116L3.63204 11.4435C4.18302 12.3223 5.15747 12.6547 5.95434 13.2194Z" fill="#DCC089"/>
<path d="M33.1798 5.06343C33.1798 4.90861 33.1798 4.75834 33.1752 4.60352C33.4985 4.60807 33.8173 4.60807 34.1406 4.61263C35.6751 6.03333 37.3645 5.70092 39.0857 5.05887C39.8689 5.05887 40.6567 5.06343 41.4399 5.06343C41.4217 5.35485 41.3989 5.65083 41.3807 5.94226C39.2861 6.25646 37.5876 7.9185 35.3382 7.69993C34.2407 7.42216 33.4439 6.80288 33.0432 5.71458C32.984 5.4778 33.0295 5.25923 33.1798 5.06343Z" fill="#D5BB87"/>
<path d="M39.0905 5.064C37.2281 6.58943 34.8147 6.37086 34.1453 4.61775C35.7755 4.91373 37.4148 5.16873 39.0905 5.064Z" fill="#E0C899"/>
<path d="M35.024 7.30362C37.2371 7.28996 39.1631 5.9286 41.3807 5.94226C40.3015 6.91217 38.5439 6.80337 37.7471 8.22407C35.953 8.70675 34.1452 9.15691 32.7473 10.5139C32.4513 10.778 32.0597 10.7461 31.7136 10.8508C31.0397 11.0603 30.3385 11.5612 29.6827 10.8144C28.9269 9.95378 29.6827 9.55763 30.1927 9.02942C30.4022 8.8154 30.1062 8.4921 30.006 8.22799C29.6782 7.50853 28.7265 8.0413 28.3258 7.36737C28.6946 6.99398 29.4824 7.11693 29.5552 6.39747C29.7192 6.20622 29.8694 6.20622 30.006 6.42934L29.9969 6.42024C30.4113 6.88925 30.9851 7.09871 31.5224 7.36282C31.7045 7.44478 31.8821 7.54041 32.0506 7.64514C32.7609 8.04585 33.4394 8.17335 34.0268 7.42657C34.3228 7.06228 34.6552 7.02586 35.024 7.30362Z" fill="#F1DCB0"/>
<path d="M30.006 8.22799C30.598 8.26442 31.2675 8.16482 31.3495 9.0482C31.436 10.0044 30.7894 9.65838 30.3113 9.66293C30.0016 9.66749 29.6783 9.78132 29.7466 10.1775C29.8195 10.5827 30.1109 10.8514 30.539 10.815C31.2812 10.7467 32.0143 10.6192 32.752 10.5144C31.864 11.4343 30.6073 11.6938 29.56 12.3359C27.6019 12.9916 25.949 14.6491 23.6358 14.1573C22.2743 14.1573 20.9082 14.1573 19.5467 14.1573C19.0731 13.9979 18.595 13.8385 18.1215 13.6792C17.9803 13.1828 18.2398 12.8823 18.6315 12.6455C20.0522 12.5954 21.5776 13.538 22.8662 12.1993C23.0393 12.0854 23.2214 11.9943 23.4127 11.9124C24.2323 11.6255 25.0337 11.284 26.0036 11.1565C25.3707 10.7831 24.5283 10.9926 24.2232 10.305C23.8316 9.41704 24.2505 9.27588 25.0155 9.58552C26.6821 9.13017 28.344 8.67879 30.006 8.22799Z" fill="#F4E2BB"/>
<path d="M23.6358 14.1573C25.571 13.4196 27.4744 12.5909 29.56 12.3359C28.1984 13.2466 27.4379 14.9221 25.7167 15.3638C24.6421 15.637 23.6631 15.7055 23.6358 14.1573Z" fill="#F5E4C5"/>
<path d="M23.1801 12.3264C21.8778 14.3663 20.2659 13.483 18.6767 12.8045C18.5446 11.2654 17.0101 12.0076 16.3316 11.3564C16.1813 11.2198 16.0356 11.0832 15.8854 10.9421C16.318 9.48039 17.6385 10.2135 18.5219 9.86744C18.7222 9.8219 18.9226 9.79003 19.1229 9.76726C19.8333 9.7536 20.4753 9.46217 21.1402 9.26182C21.5682 9.20262 21.9689 9.23905 22.2694 9.59878C23.1847 9.91297 24.0957 8.59285 25.0155 9.58552C24.6103 10.4006 24.61 10.464 25.4068 10.4822C26.1126 10.5004 27.1053 10.0951 27.0825 11.2289C27.0552 12.3947 26.058 11.5113 25.5298 11.6889C24.7557 11.9484 24.0544 12.4538 23.1801 12.3264C23.0663 12.1488 23.1392 11.9302 23.0526 11.7435C23.0618 11.9439 23.0344 12.1533 23.1801 12.3264Z" fill="#F3DDA9"/>
<path d="M30.0059 6.42527C29.8556 6.42072 29.7053 6.41161 29.5551 6.39339C28.617 5.42804 27.5652 4.93171 26.6772 6.31143C26.3585 6.80777 26.3585 7.28133 25.6436 6.93527C25.1154 6.68027 24.7875 6.25223 24.8194 5.70126C24.8467 5.16394 25.129 4.63573 25.7665 4.63117C27.1007 4.62662 28.4668 4.5401 29.7645 4.78144C30.8164 4.97724 29.5869 5.91072 30.0059 6.42527Z" fill="#D5BB87"/>
<path d="M22.2694 9.59878C21.8186 9.60333 21.3725 9.60855 20.9217 9.61311C20.307 9.95007 19.7241 9.99105 19.2005 9.44463C19.164 9.34445 19.1231 9.24883 19.0866 9.14865C19.3007 8.39731 18.5812 6.4484 20.5665 7.93285C21.3452 8.5157 20.8489 6.53036 22.1375 7.41375C23.6174 8.42919 23.3987 8.78369 22.2694 9.59878Z" fill="#CFB786"/>
<path d="M31.3765 7.75898C30.4749 7.76354 30.0697 7.2672 30.0014 6.41569C30.7618 6.8756 30.8255 4.54874 31.8228 5.96489C32.2872 5.90114 32.7062 6.03774 33.0932 6.28364C33.8719 6.91202 34.0358 7.41747 32.8473 7.74077C32.3464 7.88193 31.8592 7.34916 31.3765 7.75898Z" fill="#D5BB87"/>
<path d="M17.7341 7.34065C17.1968 8.67939 18.1031 8.94374 19.0866 9.14865L19.0819 9.14385C19.3369 9.44438 19.3688 9.74492 19.0865 10.05L19.0819 10.0546C16.5046 10.4553 16.5001 10.4507 16.3043 8.09653C16.3589 7.82787 16.4727 7.58198 16.6367 7.35886C16.9964 7.06288 17.3607 7.04922 17.7341 7.34065Z" fill="#CDB37F"/>
<path d="M19.5603 5.93302C19.5603 5.80096 19.5648 5.66436 19.5694 5.53231C20.726 5.75543 22.2058 4.81286 23.1848 6.61606C21.8279 6.36106 20.6941 6.14703 19.5603 5.93302Z" fill="#C7AD7E"/>
<path d="M32.7336 6.46591C32.4285 6.30198 32.1234 6.1335 31.8183 5.96957C31.873 5.06797 32.4968 5.02244 33.1798 5.06797C33.1935 5.20913 33.2072 5.35484 33.2208 5.496C33.4849 6.03332 33.5305 6.46136 32.7336 6.46591Z" fill="#E7D4AE"/>
<path d="M17.7341 7.34065C17.4335 7.33154 17.1332 7.31757 16.8326 7.30846C16.7188 6.32489 17.1195 5.86954 18.1349 6.03347C18.4264 6.17463 18.7178 6.32034 19.0092 6.4615C18.5857 6.75293 18.1621 7.04467 17.7341 7.34065Z" fill="#BDA26E"/>
<path d="M18.135 6.02924C17.5522 6.30245 17.0832 6.69406 16.8327 7.30423C16.8236 7.45905 16.81 7.61843 16.8009 7.77325C16.4457 8.0328 16.6916 9.0027 15.8264 8.63387C15.3483 8.42896 15.2162 7.97816 15.3847 7.50003C15.6306 6.79879 16.1451 6.22504 16.3546 5.50558L16.3637 5.49192C17.0741 5.26425 17.9802 4.41273 18.135 6.02924Z" fill="#E0C998"/>
<path d="M16.3501 5.50533C16.4457 6.28854 16.086 6.94881 15.7718 7.61362C15.6215 7.92782 15.6625 8.32398 15.963 8.32398C16.2408 8.32398 16.5231 7.9688 16.8009 7.76844C16.5231 9.57165 17.2699 10.3457 19.0822 10.0498C18.217 11.0652 16.7645 9.96325 15.8856 10.9377C14.6562 10.9514 13.4358 11.006 12.2565 11.4158C12.0925 11.6708 11.9149 11.6754 11.7328 11.434C11.5962 11.2838 11.455 11.1335 11.3184 10.9832C11.1135 10.4732 10.4851 10.0816 10.8676 9.40317C11.9013 8.77933 13.6043 9.33031 14.0096 7.60907C14.1143 7.30854 14.3147 7.07631 14.5287 6.85318C14.984 6.55265 15.4348 6.25667 15.8902 5.95613C16.0496 5.81042 16.1998 5.66015 16.3501 5.50533Z" fill="#D8C08C"/>
<path d="M7.28384 9.9721C7.9441 9.33916 8.7729 9.69929 9.52423 9.59911C10.5488 9.43063 10.8265 10.0545 10.904 10.8923C9.31477 11.1746 9.41039 12.1445 9.93405 13.2829C9.64718 13.5152 9.8703 14.0024 9.4878 14.1891C8.87308 13.4013 9.1554 12.0853 7.8713 11.6528C7.293 11.457 7.57532 11.0471 7.89406 10.6146C8.6545 9.59001 7.425 10.259 7.28384 9.9721Z" fill="#EBCD8A"/>
<path d="M11.7371 11.4343C11.9101 11.4297 12.0832 11.4206 12.2608 11.416C12.9074 13.6746 13.0804 15.8279 10.8765 17.4353C11.6415 15.5045 12.1014 13.5289 11.7371 11.4343Z" fill="#D7B87C"/>
<path d="M5.95434 13.2194C4.64748 13.3195 3.43591 13.2967 3.63172 11.4388C4.47868 11.1474 5.43037 10.2731 5.93126 11.8623C5.74001 11.8714 5.6717 11.967 5.78554 12.0763C5.9176 12.2038 6.13161 12.1219 6.29099 12.2129C6.29554 12.4315 6.30465 12.6501 6.3092 12.8732C6.19081 12.9916 6.07274 13.1055 5.95434 13.2194Z" fill="#E6D9B8"/>
<path d="M9.48334 14.189C9.63361 13.8884 9.78387 13.5834 9.92959 13.2828C9.91137 14.576 10.5124 16.0149 9.07352 16.9803C8.94147 16.8574 8.89593 16.7344 8.94147 16.616C8.987 16.4931 9.02799 16.4339 9.07352 16.4339C9.50155 15.7417 9.58352 14.9813 9.48334 14.189Z" fill="#D8B776"/>
<path d="M10.904 10.8923C10.567 10.3322 10.1162 9.89054 9.52423 9.59911C9.52879 9.28947 9.5333 8.97964 9.53786 8.66544C10.3165 8.49696 10.6945 8.91133 10.8948 9.58981C10.8766 10.1044 11.9194 10.2911 11.3228 10.9832C11.1817 10.965 11.0406 10.9333 10.904 10.8923Z" fill="#D7B87C"/>
<path d="M9.07352 16.4339C9.07352 16.616 9.07352 16.7982 9.07352 16.9803C8.8504 17.3491 8.29469 17.8728 8.16263 17.5813C7.87121 16.9666 8.65915 16.7572 9.07352 16.4339Z" fill="#E1C68D"/>
<path d="M16.3316 11.3519C17.1558 11.7617 19.8242 9.19804 18.6767 12.7999C18.49 13.0913 18.3079 13.3827 18.1212 13.6742C17.0238 14.3026 16.1632 15.8234 14.5785 14.6168C15.1796 13.8427 16.318 13.7926 16.8781 12.8773C15.9719 12.7225 15.2069 13.2234 14.3782 13.3053C14.0184 13.3418 13.4219 13.5512 13.5813 12.7589C14.3463 11.9894 15.3435 11.6797 16.3316 11.3519Z" fill="#D6B471"/>
<path d="M13.5862 12.7549C14.9932 12.5272 16.4002 12.3041 17.9393 12.0582C17.4111 13.8432 16.2132 14.512 14.5785 14.6168C14.6924 13.7561 12.7437 14.0025 13.5862 12.7549Z" fill="#E2C281"/>
<path d="M10.8948 9.58981C10.444 9.28017 9.98866 8.97508 9.53786 8.66544C10.4486 7.65911 11.3685 9.03914 12.2792 8.65664C12.8211 7.81879 13.3493 6.95361 14.5378 7.7778C14.1462 10.0455 12.2108 9.1982 10.8948 9.58981Z" fill="#E5D1A4"/>
<path d="M14.5333 7.77797C13.577 7.55484 12.9896 8.2652 12.2747 8.6568C12.0516 6.83083 12.7392 6.15235 14.5333 6.8536C14.5333 7.16324 14.5333 7.47288 14.5333 7.77797Z" fill="#C9AD76"/>
<path d="M6.29102 12.2174C5.69451 12.0672 5.19817 13.2875 4.56978 12.3495C4.47871 12.2129 4.50148 11.8987 4.59711 11.753C5.08433 11.029 5.47139 11.9123 5.93129 11.8668C6.04969 11.9806 6.16808 12.099 6.29102 12.2174Z" fill="#5B5749"/>
<path d="M8.90029 8.84797C8.62252 8.9527 8.42672 9.09842 8.28556 9.05743C8.11708 9.00734 7.99869 8.79333 7.85753 8.64761C8.0169 8.54744 8.19904 8.33797 8.3311 8.3653C8.50869 8.40172 8.64984 8.62029 8.90029 8.84797Z" fill="#F1E7CD"/>
<path d="M32.7336 6.46591C33.1206 6.25645 33.198 5.89216 33.2208 5.496C33.8219 6.09707 34.423 6.70256 35.024 7.30362C34.7099 7.44934 34.4004 7.59562 34.0862 7.73678C33.344 8.16026 32.6018 8.33785 31.8368 7.78687C31.6819 7.77777 31.5271 7.76866 31.3723 7.75955C31.7093 7.25866 32.2466 7.39982 32.7293 7.3042C33.9405 7.06286 32.6789 6.74823 32.7336 6.46591Z" fill="#DEC797"/>
<path d="M31.841 7.78684C32.5923 7.77318 33.3391 7.75496 34.0905 7.73675C33.0705 8.85237 32.5832 8.86147 31.841 7.78684Z" fill="#F5E8C6"/>
<path d="M23.1801 12.3264C22.5199 11.6706 22.5747 11.038 23.2896 10.3186C23.959 11.079 23.4442 11.698 23.1801 12.3264Z" fill="#EDD291"/>
<path d="M19.0865 10.05C19.0865 9.74947 19.0865 9.44438 19.0819 9.14385C19.6557 9.45804 20.257 9.66283 20.9264 9.61274C20.4255 10.2411 19.8287 10.4507 19.0865 10.05Z" fill="#D8C08C"/>
</svg>
