<svg width="36" height="41" viewBox="0 0 36 41" fill="none" xmlns="http://www.w3.org/2000/svg">
<path d="M11.3889 21.3826C11.8681 21.0026 11.724 20.6537 11.3923 20.2426C10.3301 18.9195 10.4976 17.3304 11.4928 16.3459C12.8197 15.0297 12.6823 13.5649 12.7159 12.0207C12.7259 11.5682 12.7293 11.1122 12.7326 10.6596C12.6254 9.75451 12.8331 8.93923 13.386 8.22413C13.7814 7.73013 13.9758 7.14285 14.0897 6.52448C14.7364 5.7092 15.1653 4.71773 15.9795 4.04063C16.3247 3.93009 16.4755 4.127 16.5659 4.42409C16.6095 5.12537 16.0901 5.55374 15.7885 6.08575C14.5085 8.35195 13.7647 10.7563 13.825 13.406C13.8451 14.3111 13.9322 15.2577 13.1984 15.9728C11.5699 17.5584 11.4492 18.657 12.7695 19.9663C12.9035 20.0526 13.0208 20.1597 13.1179 20.2875C13.252 20.8714 12.87 21.203 12.5349 21.5588C12.2032 21.8214 11.8547 22.0252 11.4191 21.8179C11.3286 21.7315 11.2951 21.6383 11.3119 21.5415C11.342 21.4345 11.3621 21.3826 11.3889 21.3826Z" fill="#AE8569"/>
<path d="M3.67201 16.8779C3.70217 17.0748 3.72898 17.2717 3.75913 17.4686C3.05881 18.5153 2.5763 18.1906 2.40541 17.1542C2.19431 15.876 2.8075 14.9502 3.86301 14.3111C4.82134 13.7826 5.79307 13.5856 6.78826 14.204C8.32629 15.0435 8.45362 16.4737 8.28608 18.0248C7.51204 19.5344 8.5776 20.5432 9.22431 21.6625C8.82891 22.9165 8.14534 22.7852 7.40146 22.0183C6.76481 21.3619 6.68774 20.5294 6.77486 19.6312C6.85193 18.8193 7.27413 17.9557 6.58722 17.2026C6.32585 17.061 6.05109 16.9504 5.80313 16.788C5.53506 16.5255 5.23684 16.2871 5.17652 15.8795C5.0827 15.6929 5.59873 15.3613 5.03579 15.2784C4.58343 15.2128 4.4494 15.4684 4.43935 15.8691C4.36898 16.3597 3.40395 16.1179 3.67201 16.8779Z" fill="#D8B393"/>
<path d="M30.512 19.3133C33.0988 18.9541 34.4861 19.4999 35.3841 21.2306C36.3558 23.0996 36.1749 24.9616 34.8614 26.5887C34.5363 26.5541 34.2314 26.4781 34.0404 26.1707C33.9499 25.9289 33.96 25.694 34.084 25.466C35.1127 24.2119 35.2333 23.0374 34.4593 21.773C33.645 20.443 32.2879 19.9939 30.5589 20.4844C29.7882 20.8161 29.1884 21.4345 28.458 21.8283C27.5164 22.3396 26.5547 22.7541 25.4858 22.191C25.2814 21.9906 25.2278 21.7385 25.268 21.4621C25.4891 20.8368 25.9314 20.4914 26.5614 20.3912C26.7122 20.3877 26.863 20.4188 27.0037 20.4706C27.2383 20.5881 27.4896 21.0199 27.6973 20.4326C27.9084 20.0112 28.2871 19.8661 28.6992 19.7693C29.2756 19.493 29.9156 19.493 30.512 19.3133Z" fill="#B68B6A"/>
<path d="M29.1583 36.189C29.2119 36.1372 29.2789 36.1199 29.3493 36.1337C29.7179 36.0992 29.8083 35.9817 29.7078 35.5499C29.5503 34.859 29.862 34.2613 30.3579 33.7742C31.4067 33.598 30.1769 33.104 30.4751 32.8242C30.4483 32.1817 30.5355 31.5495 30.6661 30.9207C30.7868 30.6064 30.9342 30.3127 31.2626 30.178C32.6867 30.5131 32.5493 31.8224 32.8073 32.8622C32.938 33.3942 32.6498 34.0229 33.129 34.4893C32.995 35.0939 32.995 35.7502 32.5024 36.2201C32.2578 36.0162 32.2745 35.7502 32.3349 35.4739C32.1506 35.8504 32.1372 36.3064 31.8389 36.6312C31.6915 36.6899 31.5508 36.6761 31.4167 36.5932C31.1654 36.3133 31.4134 35.9541 31.2894 35.6708C31.3196 36.2822 31.028 36.7452 30.5924 37.139C29.8754 37.6364 29.3426 37.4914 29.0142 36.6519C28.9773 36.4722 29.0276 36.3168 29.1583 36.189Z" fill="#CEA986"/>
<path d="M3.67201 16.8779C3.52458 16.9228 3.33358 17.0471 3.23305 16.9919C2.96499 16.8502 3.11578 16.6119 3.26321 16.5013C3.60165 16.2491 3.97358 16.0488 4.32877 15.8277C4.67055 15.2922 5.00898 15.2404 5.34407 15.8346C5.55517 16.066 5.76292 16.3009 5.97402 16.5324C7.29759 17.5481 6.22198 19.0128 6.62072 20.1977C6.66764 21.2099 7.13675 22.0321 7.71979 22.8094C8.09844 23.3137 8.50053 23.825 7.91414 24.4572C7.7801 24.5574 7.62597 24.6092 7.45843 24.6127C7.03958 24.5125 6.77151 24.2119 6.51685 23.8872C6.04439 23.4692 6.06449 22.5641 5.22344 22.5054C4.76437 22.4363 4.95202 21.9112 4.68396 21.7108C4.71411 20.4188 4.51642 19.0853 5.33066 17.9281C5.70596 17.396 5.42784 16.9262 5.05925 16.5704C4.49631 16.0315 4.07746 16.4875 3.67201 16.8779Z" fill="#C49F7D"/>
<path d="M16.4286 4.45518C16.2811 4.31355 16.1337 4.17536 15.9862 4.03372C19.1863 0.430596 23.0498 -0.830327 27.6504 0.541142C28.1731 0.696599 28.7327 0.793327 29.0477 1.33915C28.8902 1.59479 28.6825 1.77097 28.3842 1.81934C27.9587 1.82625 27.5633 1.68115 27.1578 1.5637C26.8194 1.44624 26.4776 1.33915 26.1291 1.25279C25.9784 1.22169 25.8343 1.18369 25.6868 1.13878C22.7448 0.724235 20.3121 2.00934 17.9699 3.59499C17.4807 3.93009 17.1356 4.54155 16.4286 4.45518Z" fill="#B69379"/>
<path d="M20.7913 35.8642C20.7578 35.657 20.7276 35.4497 20.6941 35.2424C20.6941 34.4824 21.2805 34.7968 21.6391 34.6862C21.8602 34.6482 22.078 34.6102 22.3025 34.6033C22.4299 34.434 22.7649 34.9971 22.7113 34.548C22.6343 33.909 22.7013 33.3459 22.9894 32.7931C23.1101 32.6826 23.2542 32.6308 23.415 32.6411C24.122 32.6411 23.6227 33.8053 24.4102 33.7293C24.6883 33.9573 24.7654 34.2682 24.7788 34.6102C24.7754 35.1941 24.8357 35.7813 24.7118 36.3582C24.2527 37.1217 23.6328 37.7988 23.4887 38.7385C23.4284 39.0736 23.1469 39.3292 23.1637 39.6954C22.7214 39.9648 22.2791 40.2308 21.8368 40.5003C21.696 40.407 21.6156 40.2723 21.5821 40.103C21.5787 39.9406 21.6089 39.7817 21.6659 39.6297C22.0579 39.0217 22.1651 38.2928 22.4265 37.6295C22.5873 37.2219 22.2757 37.3808 22.1149 37.3532C21.9004 37.2772 21.7429 37.139 21.6056 36.9593C21.371 36.5655 21.1331 36.1752 20.7913 35.8642Z" fill="#C59B79"/>
<path d="M28.716 19.9732C28.4111 20.1943 28.1028 20.4154 27.7979 20.6364C27.6035 20.8679 27.3924 20.8783 27.1646 20.6952C27.0339 20.6848 26.8998 20.6744 26.7692 20.6641C26.9803 19.2132 28.6389 19.2235 29.1851 18.1146C29.8284 17.206 30.6226 16.3942 30.8705 15.2369C30.9175 15.0849 30.9778 14.9433 31.0448 14.7982C31.9998 13.0675 32.3349 11.1882 32.3047 9.22251C32.298 8.82523 32.2008 8.4245 32.5426 8.11359C32.7872 8.00649 33.0184 8.04104 33.2362 8.19304L33.2061 8.1965C33.4105 9.39869 33.4105 10.6009 33.2027 11.8031C32.7537 14.5287 31.6714 16.94 29.8452 18.9817C29.5235 19.379 29.2689 19.8557 28.716 19.9732Z" fill="#A98164"/>
<path d="M20.0541 34.5411C18.5764 33.5359 17.1959 32.458 16.8809 30.4785C16.8441 30.254 16.5994 30.1573 16.3615 30.3162C16.1739 30.4405 16.0131 30.3196 15.8455 30.2713C15.5774 30.2644 15.3529 30.4647 15.0815 30.4371C14.857 30.3438 14.7096 30.1815 14.6292 29.95C14.79 28.9793 15.4032 28.4403 16.261 28.1398C16.6631 28.3954 17.1121 28.3505 17.5578 28.3298C17.8024 28.6614 17.7722 29.1693 18.2011 29.38C18.3318 29.4353 18.4491 29.5078 18.563 29.5907C18.9651 29.988 18.8579 30.5166 18.9149 31.0036C18.888 31.3422 18.8009 31.6773 18.8646 32.0158C18.9651 32.5271 19.3438 32.2853 19.6252 32.3164C20.0273 32.4684 20.2217 32.8173 20.4127 33.1697C20.5299 33.6948 21.0192 34.32 20.0541 34.5411Z" fill="#C49D7C"/>
<path d="M33.1323 34.4928C32.0902 34.7899 32.5594 33.94 32.5258 33.5773C32.4052 32.3371 32.4622 31.0416 31.1956 30.3024C30.8337 30.3127 30.6058 30.0433 30.3344 29.8705C30.1602 29.7704 29.9792 29.684 29.7949 29.6045C29.5269 29.494 29.2856 29.3385 29.0511 29.1693C28.0592 28.3954 26.4843 29.1278 25.7103 27.7943C25.6969 27.4903 25.8879 27.3522 26.1258 27.252C26.93 27.4454 27.7375 27.6285 28.5384 27.8323C31.7954 28.6545 33.4909 31.1176 33.1323 34.4928Z" fill="#B38969"/>
<path d="M7.61592 37.6503C7.53215 37.4153 7.44503 37.177 7.35791 36.9421C7.19372 36.4481 7.05633 35.9541 7.32775 35.4497C7.45843 35.3737 7.59581 35.3357 7.7466 35.3426C7.9711 35.4013 8.12524 35.5291 8.15205 35.7813C8.24252 35.6224 8.10849 35.4842 8.10849 35.3322C8.10513 34.8762 8.09173 34.4099 8.73844 34.434C9.32483 35.4359 9.39185 36.8453 10.8997 37.1113C11.4895 37.215 11.9653 37.2253 12.4143 36.8073C12.689 36.8177 12.8465 36.9801 12.9337 37.2323C13.0174 37.8126 12.689 38.1581 12.2702 38.4483C11.5766 38.8835 10.8025 38.8939 10.0251 38.887C9.11708 38.7039 8.48713 37.9266 7.61592 37.6503Z" fill="#D3B191"/>
<path d="M31.5273 36.5897C31.6379 36.5759 31.7485 36.569 31.859 36.5586C31.9696 36.4481 32.0768 36.455 32.1807 36.569C30.5589 38.8283 28.277 39.2635 26.7692 37.5984C26.7457 37.2081 26.6988 36.8177 26.7088 36.4273C26.7222 35.9506 26.9166 35.5326 27.3522 35.3391C27.9118 35.0904 27.9319 35.6466 28.1162 35.9472C28.3842 36.3824 28.8031 36.1441 29.1583 36.1855C29.1482 36.303 29.1382 36.4239 29.1281 36.5413C29.0578 36.9248 28.7528 37.0595 28.4178 37.2219C29.1717 37.6192 29.872 37.6019 30.5656 37.1493C30.8571 36.9144 31.1018 36.5897 31.5273 36.5897Z" fill="#B69070"/>
<path d="M12.4076 36.9283C11.7374 38.4517 10.4809 36.5621 9.69677 37.4257C9.09697 36.5413 8.61446 35.6155 8.71833 34.4824C8.71498 34.054 8.88923 33.7604 9.31478 33.6602C9.67667 33.6706 10.0285 33.7466 10.377 33.8571C10.501 33.9297 10.6216 34.0126 10.7355 34.1024C10.0252 36.341 10.062 36.6623 11.9988 36.8799C12.1462 36.7659 12.2836 36.7832 12.4076 36.9283Z" fill="#BF9878"/>
<path d="M14.7364 29.9811C14.8503 30.102 14.9609 30.2195 15.0748 30.3404C15.1754 30.4233 15.2089 30.5304 15.182 30.6513C14.8939 31.014 15.7718 30.9967 15.4166 31.3871C14.8872 32.0193 14.1835 32.2991 13.4061 32.42C13.0576 32.6549 12.8365 32.2646 12.5383 32.2369C12.1998 32.2093 11.8614 32.3406 11.523 32.2369C11.3755 32.1678 11.2784 32.0538 11.218 31.9018C11.1376 31.432 11.3554 31.1004 11.6805 30.8171C12.6522 30.3473 13.5837 29.7324 14.7364 29.9811Z" fill="#B58A66"/>
<path d="M21.7731 40.0097C21.7932 40.1721 21.8167 40.3379 21.8368 40.5003C20.3926 41.3398 19.0288 41.0772 17.8258 40.0443C17.0015 39.3361 16.4721 38.4172 17.0552 37.2357C17.1925 37.1079 17.3366 37.101 17.4908 37.1977C18.057 39.0943 19.1628 40.1341 21.2135 39.7126C21.4246 39.6677 21.6156 39.8474 21.7731 40.0097Z" fill="#B89476"/>
<path d="M32.8308 23.4347C31.9462 23.3414 31.0649 23.2447 30.1803 23.1514C30.0328 22.1703 31.0716 22.2912 31.3966 21.7488C33.186 21.0925 34.0371 21.4621 34.9786 23.2999C34.8245 23.9079 34.6503 24.4952 33.8327 24.1463C33.5948 23.9183 33.7321 23.4485 33.3367 23.3172C33.1558 23.3068 32.9782 23.2896 32.8308 23.4347Z" fill="#C3A07F"/>
<path d="M1.9832 32.4408C-0.268543 30.7895 -0.623729 28.3367 1.02487 25.8563C1.3432 25.7872 1.45712 25.9945 1.52749 26.2571C1.49063 27.4558 0.776912 28.6062 1.27283 29.8464C1.41357 30.8758 2.46237 31.2938 2.77064 32.2127C2.5964 32.6204 2.31828 32.6377 1.9832 32.4408Z" fill="#B28C6E"/>
<path d="M28.4781 1.66734C28.592 1.41515 28.8064 1.35297 29.0477 1.33915C30.8504 2.29607 32.0735 3.73318 32.5292 5.80938C32.3617 5.96138 32.2846 6.21357 32.0433 6.28611C31.8858 6.2792 31.7485 6.22393 31.6312 6.11338C30.9912 4.317 29.4867 3.17699 28.4781 1.66734Z" fill="#B1886E"/>
<path d="M1.3432 26.2052C1.23597 26.0912 1.12875 25.9738 1.02152 25.8598C1.59451 24.8338 2.43222 24.2085 3.58825 24.0703C4.25841 23.787 5.03914 24.1843 5.6758 23.711C5.81988 23.6316 5.97402 23.5832 6.13821 23.559C6.30575 23.5625 6.45654 23.6178 6.59392 23.7145C6.94911 23.8492 7.20712 24.091 7.37131 24.4399C7.32775 24.7198 7.17026 24.9132 6.93235 25.0445C6.53696 25.2172 6.12146 25.2345 5.70261 25.2449C5.30051 25.2483 4.89841 25.2138 4.50302 25.1412C3.2096 24.7301 2.47577 26.105 1.3432 26.2052Z" fill="#BE9879"/>
<path d="M7.38471 35.5188C7.40817 35.9955 7.64943 36.4723 7.36126 36.9421C7.17696 36.8004 6.99267 36.6553 6.81172 36.5137C6.43643 34.396 6.37612 32.3475 7.99121 30.6547C8.27268 30.5062 8.41341 30.6789 8.53069 30.9035C8.56755 31.0589 8.56755 31.2178 8.53404 31.3733C8.39666 31.736 8.15205 32.04 8.01131 32.4028C7.61927 33.4046 7.66283 34.4962 7.38471 35.5188Z" fill="#B38B6C"/>
<path d="M23.1603 39.6954C22.7549 39.457 23.0799 39.1841 23.1235 38.9215C23.6998 38.2341 23.6596 37.1873 24.4135 36.6035C24.4336 35.8919 24.4537 35.1802 24.4739 34.4686C24.7151 34.2648 24.5107 33.8433 24.8324 33.6775C25.4054 34.707 25.211 35.7813 25.02 36.8592C24.5777 37.9301 24.2661 39.0908 23.1603 39.6954Z" fill="#B68C6C"/>
<path d="M32.8308 23.4347C32.9648 23.3103 33.0955 23.1859 33.2295 23.0581C33.6752 23.0823 34.0036 23.2101 33.836 23.7801C34.4124 24.4607 34.476 23.5176 34.8178 23.4485C35.2132 24.3398 35.1093 25.0618 34.1744 25.5109C34.1778 25.7389 34.1778 25.9669 34.1811 26.1983C34.2884 26.4885 34.1208 26.5783 33.8896 26.6232C33.5713 26.3952 33.2061 26.416 32.8475 26.4125C32.5459 26.2847 32.298 26.1258 32.5225 25.732C33.8126 25.1412 33.5512 24.319 32.8308 23.4347Z" fill="#BB9672"/>
<path d="M30.2305 23.4105C29.4967 25.1274 28.2301 26.1707 26.4609 26.5749C26.2766 26.3745 26.2498 26.1431 26.3302 25.8874C26.548 25.5178 26.9199 25.3692 27.2684 25.1896C28.0291 25.003 27.6102 23.8527 28.4077 23.7007C28.6825 23.4381 28.4379 24.6196 28.9204 23.8907C29.1214 23.5867 29.4666 23.3932 29.8251 23.2723C29.9826 23.2516 30.1166 23.2999 30.2305 23.4105Z" fill="#BD9778"/>
<path d="M4.01379 14.4286C3.05546 15.0124 2.66342 15.9106 2.67347 17.023C2.68352 18.0662 3.22635 17.7657 3.76248 17.4651C4.22154 17.8728 4.00374 18.1491 3.57484 18.3219C3.04206 18.5395 2.63661 18.3288 2.30153 17.8624C1.42362 16.636 2.26802 14.7498 4.01044 14.0658C4.09421 14.1453 4.12102 14.2247 4.09421 14.3042C4.06741 14.3906 4.0406 14.4286 4.01379 14.4286Z" fill="#B69275"/>
<path d="M17.4606 37.2564C17.3232 37.2495 17.1892 37.2426 17.0518 37.2323C17.3132 36.7037 17.6616 36.2062 18.2983 36.3859C18.9048 36.5586 18.4591 37.1528 18.5664 37.4844C19.0489 38.9837 19.7827 37.8506 20.4294 37.5777C20.5467 37.6917 20.6271 37.8299 20.6673 37.9888C20.6104 39.3292 19.5817 39.1046 18.7741 39.2325C17.6549 39.0597 17.9833 37.861 17.4606 37.2564Z" fill="#BD9A7C"/>
<path d="M3.65191 28.6027C3.15599 28.772 2.93819 29.1416 2.93819 29.6667C2.84772 29.7738 2.76394 29.8809 2.68017 29.9949C2.40541 30.2989 2.27808 30.8033 1.7386 30.7618C1.03828 30.1124 0.96791 29.4353 1.65483 28.7236C1.7587 28.5993 1.87263 28.4922 1.99326 28.3885C2.34174 28.1191 2.71033 27.8772 3.00855 27.5318C3.65191 26.7856 4.12103 26.9756 4.42595 27.86C4.50637 28.4853 3.91997 28.3678 3.65191 28.6027Z" fill="#C4A180"/>
<path d="M8.00126 18.2217C8.09509 16.7708 8.1554 15.3302 6.7112 14.4389C6.65759 14.0555 6.78827 13.8896 7.17026 14.0313C8.24922 14.3387 8.13194 15.4857 8.60776 16.2146C8.82556 17.1508 8.75519 18.0593 8.33299 18.9264C7.71644 18.9437 7.87728 18.5741 8.00126 18.2217Z" fill="#B58C6D"/>
<path d="M4.09087 30.6996C4.21485 29.9776 4.61024 30.0813 5.02909 30.3991C5.4714 30.7342 5.4513 31.2351 5.21674 31.6358C4.72752 32.4718 4.03725 33.0038 3.0052 32.762C2.89128 31.8811 3.89987 31.9087 4.11768 31.2973C4.15118 31.1004 4.16794 30.8966 4.09087 30.6996Z" fill="#B7926E"/>
<path d="M33.836 26.5403C33.9499 26.4263 34.0639 26.3123 34.1778 26.1983C34.4727 26.2052 34.724 26.2881 34.8614 26.5852C33.9332 27.5663 32.9615 28.1122 31.8088 26.9203C31.7351 26.8374 31.7049 26.7476 31.7116 26.6509C31.7183 26.5541 31.7351 26.5058 31.7518 26.5058C32.1103 26.2743 32.4588 26.5231 32.814 26.53C33.1525 26.6163 33.4976 26.3089 33.836 26.5403Z" fill="#B18967"/>
<path d="M20.4663 37.9474C20.4562 37.8264 20.4428 37.7055 20.4328 37.5846C20.7645 37.0595 20.7176 36.4481 20.7913 35.8642C21.4916 35.8193 21.877 36.0922 21.7597 36.8799C21.6357 37.3877 21.877 37.9819 21.4146 38.4068C20.9421 38.5934 20.664 38.3619 20.4663 37.9474Z" fill="#CEAB8C"/>
<path d="M12.7226 31.7291C12.9504 31.9606 13.1783 32.1886 13.4061 32.42C12.7594 33.4046 11.5833 33.332 10.7054 33.8606C10.4775 33.4391 10.6719 33.0902 10.8863 32.7448C11.084 32.4926 11.3755 32.4166 11.6536 32.3164C12.049 32.2024 12.4411 32.0746 12.7226 31.7291Z" fill="#C39974"/>
<path d="M7.61592 37.6503C8.72168 37.1977 9.15394 38.5243 10.0453 38.6348C10.1156 38.9526 10.052 39.1357 9.68672 38.9906C8.66807 39.0874 8.07163 38.4828 7.61592 37.6503Z" fill="#AC8261"/>
<path d="M7.17026 14.0313C7.01612 14.166 6.86199 14.3042 6.7112 14.4389C5.81318 13.862 4.91181 14.2489 4.01379 14.432C4.01379 14.3111 4.01045 14.1937 4.01045 14.0727C5.0492 12.8533 6.1114 13.5684 7.17026 14.0313Z" fill="#BA947B"/>
<path d="M9.69007 38.9906C9.8107 38.8732 9.92798 38.7523 10.0486 38.6348C10.7322 38.5312 11.4157 38.431 12.096 38.3274C12.2534 38.4172 12.4478 38.4655 12.4813 38.6935C11.6 39.2946 10.702 39.7368 9.69007 38.9906Z" fill="#B68E6D"/>
<path d="M4.34218 31.0071C5.02909 32.5098 3.16939 31.9502 3.0052 32.7655C2.63996 32.7413 2.26802 32.7309 1.97986 32.4442C2.20101 32.3268 2.42551 32.2127 2.64666 32.0953C2.66677 31.7637 2.76729 31.4735 3.03536 31.2696C3.4341 30.9795 3.94343 31.2869 4.34218 31.0071Z" fill="#D3B392"/>
<path d="M12.4076 36.9283C12.2702 36.9144 12.1328 36.8972 11.9954 36.8833C12.1127 36.4204 11.9016 35.4946 12.7728 35.8988C13.6876 36.3237 13.6239 37.1804 13.0878 37.9854C12.7963 37.8437 12.9772 37.4741 12.7695 37.291C12.6488 37.1701 12.5282 37.0492 12.4076 36.9283Z" fill="#B88D6A"/>
<path d="M30.2305 23.4105C30.0932 23.4208 29.9558 23.4277 29.8184 23.4381C28.8366 23.3241 28.9405 22.8439 29.4364 22.2325C30.1267 22.1772 30.7131 20.8714 31.5106 22.039C31.3631 22.7852 30.4215 22.5192 30.1836 23.1514C30.197 23.2377 30.2138 23.3241 30.2305 23.4105Z" fill="#B78963"/>
<path d="M32.1304 6.2032C32.2645 6.07193 32.3952 5.94065 32.5292 5.80938C32.8542 6.5763 33.4373 7.2603 33.2329 8.19304C32.9883 8.20686 32.7436 8.22413 32.499 8.23795C31.9361 7.64376 31.6647 6.9943 32.1304 6.2032Z" fill="#A88065"/>
<path d="M20.0541 34.5411C20.7544 34.1128 19.9637 33.6049 20.1245 33.1455C21.3945 33.2008 21.6793 34.1093 21.7831 35.1733C21.4246 35.2873 21.0292 34.745 20.6941 35.239C20.4797 35.0075 20.2686 34.7761 20.0541 34.5411Z" fill="#DFBC99"/>
<path d="M26.1258 27.2485C26.0152 27.3591 25.9046 27.4696 25.7941 27.5802C24.9664 27.7874 24.6816 27.0792 24.2527 26.6129C24.0047 26.1741 23.797 25.7285 23.8975 25.1965C24.7252 24.1567 24.8089 25.4141 25.2278 25.6525C25.5059 26.0221 25.6031 26.4816 25.8041 26.8927C25.9113 27.0101 26.0186 27.1311 26.1258 27.2485Z" fill="#A67C58"/>
<path d="M4.34218 31.0071C4.00375 31.5357 3.46762 31.3387 3.00185 31.394C2.92478 31.3595 2.84771 31.3215 2.77065 31.2869C2.26132 30.7687 2.27472 30.2264 2.70698 29.6667C2.78405 29.6667 2.86112 29.6667 2.93819 29.6633C3.12583 30.2402 3.1828 30.9726 4.09087 30.6996C4.17464 30.8033 4.25841 30.9035 4.34218 31.0071Z" fill="#B78E6B"/>
<path d="M15.4166 31.3871C15.2926 31.2973 15.182 31.1522 15.0447 31.1246C14.7766 31.0658 14.3376 31.5598 14.2572 31.0451C14.1902 30.5995 14.7297 30.7584 15.0179 30.6858C15.5037 30.6824 15.4602 29.7738 16.0901 30.0191C16.1806 30.1193 16.2711 30.216 16.3615 30.3162C16.1873 30.8102 15.879 31.1695 15.4166 31.3871Z" fill="#CBAA8E"/>
<path d="M33.1994 11.7996C33.1994 10.5974 33.1994 9.39524 33.2027 8.19304C33.7623 9.39524 33.4942 10.5974 33.1994 11.7996Z" fill="#A88065"/>
<path d="M32.8676 26.834C32.5191 26.7372 32.174 26.644 31.8255 26.5472C31.4335 25.9772 31.8289 25.618 32.1506 25.2414C32.4019 25.307 32.4957 25.4936 32.5158 25.7354C32.5862 26.1154 32.8576 26.2087 33.1759 26.2294C33.3434 26.5783 33.0687 26.6854 32.8676 26.834Z" fill="#D1A981"/>
<path d="M25.8041 26.8892C25.3384 26.7476 25.201 26.333 25.0502 25.9289C25.1239 25.7769 25.2345 25.6663 25.3853 25.6007C25.7974 25.497 26.1828 25.4901 26.4743 25.884C26.4709 26.1154 26.4642 26.3469 26.4609 26.5783C26.2397 26.682 26.0219 26.7856 25.8041 26.8892Z" fill="#C9A484"/>
<path d="M4.68396 21.7108C4.89841 21.9457 5.10951 22.1806 5.32396 22.4156C5.80983 22.7299 6.42638 22.9683 6.04103 23.7732L6.02763 23.7663C5.64229 24.0081 5.53842 23.6696 5.38428 23.4347C5.00899 22.9199 4.54657 22.4432 4.68396 21.7108Z" fill="#AB8669"/>
<path d="M10.9433 32.8311C11.1008 33.2319 10.7724 33.5151 10.7054 33.8606C10.7322 33.94 10.7422 34.023 10.7322 34.1059C10.6149 34.1162 10.4943 34.13 10.377 34.1439C9.96484 33.8779 9.69342 33.5359 10.005 33.0349C10.2296 32.6757 10.5412 32.4546 10.9433 32.8311Z" fill="#F9EEE1"/>
<path d="M28.716 19.9732C29.0913 19.6415 29.4666 19.3099 29.8418 18.9782C30.0664 19.0888 30.2875 19.2028 30.512 19.3133C29.9323 19.5932 29.4565 20.1701 28.716 19.9732Z" fill="#E9DACC"/>
<path d="M32.1506 25.2379C32.0433 25.6732 31.9328 26.1085 31.8255 26.5438C31.8188 26.6716 31.8155 26.796 31.8088 26.9238C31.3531 26.2398 30.7399 25.5212 32.1506 25.2379Z" fill="#B99574"/>
<path d="M5.38093 23.4347C5.59538 23.5452 5.80983 23.6558 6.02428 23.7663C5.2804 24.4434 4.40919 24.0288 3.58825 24.0703C4.06406 23.4934 4.94532 24.1325 5.38093 23.4347Z" fill="#D0A785"/>
<path d="M32.1807 36.569L32.0199 36.5586L31.859 36.5621C31.8557 36.1406 31.6747 35.5395 32.231 35.4635C32.6766 35.4013 32.4287 35.9541 32.5057 36.227C32.3985 36.3375 32.2913 36.455 32.1807 36.569Z" fill="#A57D5D"/>
<path d="M12.7695 37.291C12.8767 37.5224 12.9839 37.7539 13.0878 37.9854C12.994 38.3239 12.7963 38.5623 12.4779 38.6935C12.3506 38.5726 12.2233 38.4483 12.0926 38.3274C12.4578 38.0786 12.7427 37.7746 12.7695 37.291Z" fill="#A4764D"/>
<path d="M8.00126 18.2217C8.11184 18.4566 8.22241 18.6915 8.33299 18.9299C8.72169 20.9957 9.15729 21.3412 11.3889 21.3861C11.3856 21.5001 11.3856 21.6106 11.3822 21.7246C10.5914 23.0167 9.82411 22.4363 9.06012 21.6935C8.37321 20.6434 7.09989 19.7832 8.00126 18.2217Z" fill="#BE9777"/>
<path d="M24.829 33.6809C24.7855 33.9815 24.7721 34.2959 24.4705 34.472C24.3633 34.2371 24.256 34.0057 24.1455 33.7708C23.8472 33.5082 23.9746 33.0142 23.6428 32.7689C23.0967 32.2024 22.4935 31.6669 22.5404 30.7549C22.6007 30.5166 22.7247 30.3369 22.9626 30.2609C23.2843 30.5131 23.4552 30.9415 23.8405 31.0935C23.8238 31.0831 23.931 31.1246 23.931 31.1246C23.931 31.1246 23.8539 31.0555 23.8405 31.0486C23.4384 30.8862 23.2475 30.52 22.9961 30.216C23.0162 30.0467 23.0933 29.9224 23.2374 29.8395C24.3197 29.7047 25.1708 30.4855 26.1828 30.6236C26.4642 30.7238 26.7356 30.8447 26.8697 31.1453C26.9803 31.3146 26.5782 31.5737 26.9602 31.7049C27.1478 31.7084 27.3254 31.7326 27.5063 31.7706C27.8481 31.8604 28.1664 31.9986 28.4613 32.1989C28.6992 32.4028 28.8768 32.6342 28.783 32.9797C27.7107 32.7724 26.6653 32.4338 25.5495 32.4857C25.2546 32.4995 24.8961 32.1817 24.6481 32.4857C24.303 32.9071 24.5476 33.3182 24.829 33.6809Z" fill="#B18968"/>
<path d="M26.796 31.3906C26.6586 31.1038 26.4106 31.0416 26.1325 31.0347C26.3537 29.9811 27.131 30.4958 27.6739 30.5062C28.4982 30.5269 29.2856 30.7653 29.9122 31.3802C30.4349 31.6773 30.5656 32.2611 30.8303 32.7448C30.9141 33.0557 31.018 33.3631 31.0783 33.6775C31.1118 33.8468 31.2827 34.1404 30.9644 34.1577C30.8203 34.168 30.6628 33.902 30.5087 33.7639C30.254 33.7293 30.1166 33.56 30.0328 33.3459C29.872 33.3389 30.0295 33.4495 29.9893 33.4909C29.9089 33.7777 29.7648 33.9504 29.4532 33.8399C29.232 33.5566 29.0142 33.2699 28.793 32.9866C28.6825 32.7793 28.5685 32.5686 28.458 32.3613C28.2201 32.1402 27.9687 31.9606 27.6236 32.0297C27.3488 32.0435 27.0774 32.0573 26.8027 32.0677C26.6016 31.8431 26.6016 31.6151 26.796 31.3906Z" fill="#B38864"/>
<path d="M29.4498 33.8399C29.8117 33.7293 29.8385 33.4495 29.7882 33.1282C29.9022 32.9969 30.0261 32.99 30.1535 33.1075C30.2708 33.3251 30.388 33.5462 30.5053 33.7639C30.4148 34.5342 29.7279 35.1181 30.0462 36.0715C30.197 36.5241 29.6073 36.1544 29.3493 36.1302C29.3828 35.3702 29.4163 34.6033 29.4498 33.8399Z" fill="#D8B493"/>
<path d="M12.3808 21.355C12.6086 21.013 12.8331 20.671 13.061 20.329C12.6354 19.6312 14.1399 19.5759 13.5267 18.8159C13.3357 18.5913 13.3156 18.0041 12.9404 18.2113C12.488 18.4601 12.8566 19.0024 12.8465 19.4135C12.5517 19.6761 12.8532 20.0181 12.736 20.3083C10.9433 19.3859 10.95 17.3684 12.7527 15.8622C13.8216 15.8968 13.7915 15.2093 13.758 14.3871C13.701 13.0778 13.3592 11.7064 14.2639 10.5214C15.0045 10.5318 14.9542 11.1363 14.9743 11.6131C15.0011 12.2349 15.0581 12.8464 15.3027 13.5684C15.812 12.0414 16.7904 12.8636 17.6315 12.9535C18.0135 12.6218 18.2614 12.1831 18.563 11.7893C19.5582 11.6856 19.5582 11.6856 19.384 13.3335C19.3404 13.558 19.6252 13.3058 19.4074 13.3438C19.3136 12.532 19.7291 12.114 20.4361 11.9205C20.5869 11.9067 20.731 11.9274 20.8684 11.9827C21.7664 12.076 21.81 11.3643 21.8401 10.7771C21.877 10.0723 22.0747 9.46433 22.4567 8.89087C22.9827 8.09977 23.5088 7.98577 24.1254 8.78723C24.3365 9.0636 24.4068 9.01869 24.6447 8.51777C24.7654 8.42104 24.8961 8.35195 25.0435 8.30704C25.7706 8.13777 26.3034 8.60414 26.8898 8.90469C26.9803 9.0256 27.0473 9.16033 27.0942 9.30887C27.1511 9.52997 27.1746 9.75797 27.1813 9.98942C27.2785 10.2416 26.9937 10.708 27.5633 10.6803C28.0056 10.5007 28.3675 10.0171 28.9204 10.3314C29.0142 10.4592 29.0812 10.5974 29.1281 10.7494C29.2354 11.4542 29.3459 12.1554 29.48 12.8533C29.6274 13.6029 29.1348 14.2835 29.2488 15.0331C29.2789 15.1817 29.2722 15.3268 29.2353 15.4718C29.1516 15.5962 29.0444 15.6964 28.9204 15.7724C28.3172 16.0211 27.7375 16.3182 27.2383 16.757C25.8644 17.1197 25.5964 18.5395 24.7989 19.455C24.4604 19.4792 24.2024 19.3237 23.9746 19.0888C23.5122 18.3564 24.4135 16.8779 22.7884 16.7846C22.3595 16.7431 21.9976 16.8053 21.9239 17.3442C21.9406 17.7864 22.1048 18.2044 22.0814 18.6466C22.0043 19.3341 21.6056 19.7693 21.0326 20.0699C20.8181 20.1217 20.607 20.0664 20.4026 20.0215C19.9536 19.9421 19.6889 20.4223 19.2633 20.4223C19.0455 20.3497 18.8847 20.2184 18.7976 19.9455C18.7138 20.4879 19.0824 20.937 18.9517 21.4379C18.9081 21.6003 18.8143 21.7281 18.6836 21.8283C18.1911 21.9665 17.9398 21.697 17.7789 21.2686C17.6751 20.8195 17.5042 20.3946 17.3132 19.9766C17.3098 19.3721 17.7655 19.037 18.0637 18.6052C19.6118 17.6551 18.2748 16.7431 18.0369 15.8208C18.3251 16.7224 18.9048 17.6171 18.104 18.5533C17.8426 18.8539 17.5678 19.1233 17.1289 19.0439C16.9077 19.0853 16.9379 18.2562 16.5123 18.8815C16.328 19.1544 16.0197 18.9541 15.8254 18.7192C15.3328 18.0766 15.7215 17.251 15.3965 16.5704C15.1921 16.294 15.3328 15.9106 15.0346 15.496C14.8872 16.5531 15.5506 17.3097 15.5372 18.1871C15.6311 18.4082 15.6612 18.6362 15.621 18.8746C15.5339 19.2512 15.4133 19.6208 15.2625 19.9766C15.1619 20.1908 15.0346 20.3843 14.8872 20.5674C14.5689 21.1408 13.8417 21.0614 13.4396 21.583C13.1548 21.9734 12.6421 21.9112 12.3808 21.355Z" fill="#CBA080"/>
<path d="M12.3808 21.355C13.5267 21.8939 13.8317 20.3912 14.7297 20.3255C14.9844 20.3394 15.0648 20.1874 15.0715 19.9593C15.0849 19.5793 15.0246 19.1717 15.43 18.9368C15.5975 18.7295 15.7081 18.4221 16.0667 18.5844C16.2342 19.2235 17.0887 17.8037 17.0853 18.9472C17.3601 19.2373 17.2093 19.6692 17.417 19.9801C18.0973 20.0112 18.1006 20.5121 18.0872 21.0199C17.3165 21.6935 16.7435 22.4052 17.4237 23.5072C17.6382 23.8527 17.7019 24.2983 17.2696 24.5609C16.8038 24.8407 16.4185 24.6161 16.1102 24.2292C15.8623 23.9183 15.6847 23.559 15.5138 23.1997C14.9776 22.0597 14.3008 22.0114 13.4999 22.8992C13.4631 23.2757 13.758 23.5314 13.8317 23.863C13.6005 24.547 13.1548 25.0099 12.4913 25.2483C12.2702 25.1585 12.1697 24.9685 12.0926 24.7543C12.0457 24.6127 12.0055 24.471 11.9686 24.3259C11.8849 24.0427 11.7542 23.787 11.5833 23.559C10.3435 24.1048 9.31143 25.6249 7.71309 24.4399C8.18891 23.8112 7.68964 23.4519 7.35791 23.0305C6.7313 22.2359 6.22533 21.3861 6.36271 20.2944C6.34261 19.1406 6.46324 18.0006 6.72125 16.8744C7.26743 16.6153 7.42157 16.8779 7.37131 17.396C7.28083 18.353 7.16691 19.3099 7.09654 20.2703C7.03623 21.0855 7.44838 21.7074 8.04147 22.1599C8.55749 22.5537 8.82891 22.0977 9.06012 21.6866C9.83416 21.7765 10.5981 22.4846 11.3822 21.7177C11.7173 21.5968 12.049 21.4759 12.3808 21.355Z" fill="#D0A785"/>
<path d="M14.4047 10.6527C13.9858 11.8964 13.7747 13.1435 14.1835 14.4493C14.5052 15.4718 13.8685 16.0764 12.7561 15.8588C13.7211 15.3164 13.3894 14.3595 13.3793 13.5649C13.3324 10.138 14.3309 7.10485 16.4319 4.45173C18.8545 2.0957 21.6089 0.541142 25.0535 0.64478C25.4389 0.655144 25.8443 0.596416 26.1057 0.997147C26.0219 1.18369 25.7539 1.00406 25.6902 1.22169C25.8142 1.12151 25.9985 1.13533 26.109 1.00406C26.491 0.997147 26.8898 0.924601 27.1712 1.2977C27.1377 1.53606 27.0037 1.70879 26.8161 1.84352C26.4977 2.0197 26.1459 2.10952 25.8209 2.27189C25.5595 2.40316 25.3015 2.53098 25.0267 2.62426C24.189 2.91444 23.2877 2.51025 22.4567 2.88335C22.2422 2.93517 22.0311 2.92826 21.8301 2.83153C20.2786 2.52062 19.3203 3.68136 18.181 4.39646C16.3046 5.5261 15.6679 7.51249 14.9207 9.41596C14.7531 9.83397 14.7733 10.328 14.4047 10.6527Z" fill="#D3AE91"/>
<path d="M12.7393 20.3048C12.6857 20.0699 12.3506 19.8281 12.7594 19.607C13.0241 19.2512 13.3223 18.9575 13.7948 18.9541C14.0562 18.8642 14.5454 18.5948 14.2003 19.2304C13.959 19.6761 13.4497 19.9663 13.061 20.3255C12.9538 20.329 12.8465 20.3221 12.7393 20.3048Z" fill="#DAB697"/>
<path d="M6.72125 16.8779C6.58052 18.0144 6.96251 19.2097 6.36272 20.2979C5.81653 19.7866 5.97402 19.1648 6.20858 18.6155C6.54031 17.8451 6.14156 17.2164 5.97737 16.5359C6.22533 16.6464 6.47329 16.7604 6.72125 16.8779Z" fill="#DFC0A2"/>
<path d="M5.34742 15.8346C5.00899 15.6031 4.67056 15.6411 4.33212 15.8277C4.31202 15.5237 3.6251 15.4166 4.0272 15.04C4.50302 14.5909 5.0894 14.7671 5.55852 15.0988C6.07789 15.4684 5.35077 15.5617 5.34742 15.8346Z" fill="#C7A17F"/>
<path d="M24.7687 19.2995C25.0468 17.9142 25.6734 16.8399 27.1344 16.5255C27.8414 16.2526 28.5216 15.9244 29.1449 15.4822L29.1382 15.4926C29.6039 14.5633 30.0395 13.6202 30.1133 12.5527C30.3847 11.772 30.1702 10.8013 30.9744 10.2347C31.3832 10.2623 31.5173 10.5974 31.6781 10.9014C31.7384 11.0603 31.7719 11.2262 31.7887 11.392C31.7786 12.4422 31.2425 13.4095 31.3229 14.4735C31.3129 14.7118 31.3229 14.9571 31.1621 15.1575L31.1688 15.1506C30.636 16.2008 29.9223 17.1473 29.4766 18.2528C28.9572 19.5137 27.4963 19.6553 26.7625 20.6641C26.1962 20.6226 25.9248 21.1719 25.4724 21.3515C24.943 20.7781 24.5878 20.1355 24.7687 19.2995Z" fill="#C29878"/>
<path d="M31.5106 22.039C30.7097 21.4241 30.2372 22.7541 29.48 22.4017C29.2823 21.7868 29.6944 21.4414 30.0999 21.2375C30.6997 20.937 30.4618 20.4395 30.5187 20.0008C32.0969 19.4135 33.4004 19.9075 34.5229 21.089C35.689 22.3188 35.4176 23.7732 35.0859 25.2207C34.9552 25.7941 34.5564 25.6732 34.1744 25.5109C34.5899 24.889 35.0155 24.2707 34.8178 23.4485C34.017 22.2221 33.1256 21.2306 31.5106 22.039Z" fill="#D0AB88"/>
<path d="M30.5187 20.0008C31.142 20.4534 32.1204 20.8955 30.5388 21.3861C30.0261 21.545 29.7112 21.9285 29.48 22.4017C29.2085 22.8819 29.2957 23.2343 29.8184 23.4381C29.4498 23.8699 29.1683 24.6679 28.4747 23.787C27.7744 24.1463 29.031 22.8197 28.009 23.2481C27.1444 23.6108 26.3838 22.7852 25.5696 22.5123C25.4891 22.4259 25.4523 22.3326 25.459 22.229C25.4657 22.1254 25.4791 22.0701 25.5025 22.0701C27.6069 22.4985 28.8802 20.7815 30.5187 20.0008Z" fill="#C59B77"/>
<path d="M25.4992 22.0736C25.4791 22.1841 25.469 22.2946 25.4724 22.4052C25.402 22.4259 25.3283 22.4432 25.2579 22.4639C24.7118 22.1841 24.7855 21.5657 24.5543 21.1097C24.3733 20.6226 24.1287 20.1666 23.8707 19.7175C23.797 19.4032 23.415 18.9852 24.1153 18.9264C24.3331 19.0508 24.5476 19.1752 24.7654 19.2995C25.1641 19.9248 25.4791 20.5777 25.4724 21.3515C25.4824 21.5934 25.4925 21.8317 25.4992 22.0736Z" fill="#9B7355"/>
<path d="M27.1646 20.6952C27.3757 20.6744 27.5868 20.6572 27.7979 20.6364C27.9118 21.2928 27.4092 21.2928 27.0741 21.2203C26.8496 21.1719 27.1109 20.8783 27.1646 20.6952Z" fill="#CEAE8F"/>
<path d="M30.8136 37.2461C29.6274 38.1857 28.525 38.0959 27.1679 36.9317C28.0324 36.7417 28.6691 37.0215 29.1281 36.5448C29.5135 36.9041 29.8586 37.4292 30.4617 36.8937C30.6594 36.9248 30.7734 37.0457 30.8136 37.2461Z" fill="#D8B493"/>
<path d="M30.8303 32.7448C30.4953 32.3993 30.1635 32.0538 29.8284 31.7084C29.8351 31.2075 29.3995 30.9035 29.3124 30.444C29.2555 29.8602 29.6442 29.608 30.063 29.3834C30.2037 29.4733 30.3445 29.5596 30.4886 29.6495C30.7332 30.0778 30.9811 30.5062 30.8203 31.0382C31.1922 31.6047 30.7064 32.1782 30.8303 32.7448Z" fill="#C79D79"/>
<path d="M30.8136 37.2461C30.6963 37.1286 30.579 37.0112 30.4617 36.8903C30.7265 36.4101 31.2123 36.0819 31.4368 35.5015C31.467 35.8642 31.4971 36.227 31.5273 36.5897C31.2894 36.8073 31.0515 37.0284 30.8136 37.2461Z" fill="#E2C4A3"/>
<path d="M30.8169 31.0382C30.569 30.6098 30.4282 30.1538 30.4852 29.6495C30.7198 29.8671 30.9577 30.0847 31.1956 30.3024C31.152 30.5926 31.1152 30.8862 30.8169 31.0382Z" fill="#DDBFA1"/>
<path d="M7.71309 24.4399C9.2109 24.6921 10.3937 24.1359 11.3554 22.9648C11.4694 22.8267 11.6637 22.3672 11.9184 22.8163C11.9887 22.9372 11.791 23.2205 11.714 23.4312C11.7307 23.7594 11.7173 24.0807 11.5431 24.3708C11.4023 24.585 11.208 24.7336 10.9868 24.8476C10.0553 25.1965 9.15059 25.6801 8.10514 25.4383C7.70304 25.3105 7.29759 25.1896 7.03623 24.8061C7.1468 24.6852 7.25738 24.5609 7.37131 24.4399C7.48524 24.4399 7.59916 24.4399 7.71309 24.4399Z" fill="#AF8261"/>
<path d="M6.04103 23.7732C6.04439 23.1859 5.55852 22.8716 5.32396 22.4156C5.37757 22.2359 5.44459 21.8248 5.61884 22.0528C6.00418 22.5537 6.64419 22.9372 6.59392 23.7179C6.40963 23.7318 6.22533 23.7525 6.04103 23.7732Z" fill="#EAD5BD"/>
<path d="M26.7993 1.67425C26.9233 1.54988 27.0439 1.42552 27.1679 1.30115C27.6035 1.42206 28.0425 1.54643 28.4781 1.66734C30.1736 2.70717 31.4033 4.12009 31.8255 6.1652C31.9696 6.52448 31.7485 6.57975 31.4837 6.60048C31.1654 6.46575 30.9811 6.2032 30.827 5.90611C30.0597 4.29282 29.1147 2.86262 27.3421 2.26843C27.0707 2.17516 26.8797 1.96788 26.7993 1.67425Z" fill="#D7B59B"/>
<path d="M18.4189 29.6529C18.3117 29.6529 18.2078 29.6564 18.1006 29.6564C17.5846 29.0933 17.8158 28.1778 17.2126 27.6562C17.082 27.3487 17.0183 27.024 16.9781 26.6923C16.9178 26.2881 16.9211 25.8943 17.1691 25.5489C17.4103 25.2138 17.7186 24.9409 18.1442 25.0341C18.6166 25.1378 18.6669 25.5558 18.6669 25.9738C18.6702 26.4056 18.439 26.8892 19.0757 27.3038C19.2131 25.915 20.5501 25.1481 20.5568 23.7076C20.5568 23.5521 20.9287 23.5176 21.1532 23.5141C21.8837 23.6661 22.5605 23.9632 23.1871 24.3743C23.5021 24.7992 23.6562 25.2656 23.5423 25.801C23.3815 26.074 23.0699 25.953 22.8521 26.0774C23.0464 26.0014 23.2408 26.029 23.4049 26.1396C23.5993 26.2674 23.6261 26.4885 23.616 26.7096C23.5457 27.0101 23.3111 27.1932 23.1503 27.4282C22.8621 27.9291 23.2508 28.5854 22.8018 29.0484C22.6678 29.1209 22.5237 29.1485 22.3729 29.1382C22.1182 29.0933 21.9942 28.8791 21.82 28.6787C21.9674 29.1071 22.2891 29.4249 22.3025 29.8705C21.9339 31.0209 23.482 31.6047 23.1134 32.7551C23.0766 33.5773 23.0364 34.403 22.9995 35.2079C22.7113 35.0766 22.4265 34.9453 22.1383 34.814C22.0177 34.7035 21.9641 34.5619 21.9674 34.3995C22.3762 33.3597 22.1819 32.4718 21.3241 31.7602C20.9722 31.1833 20.7176 30.5442 20.3054 30.0053C19.9503 29.6322 19.3639 29.7116 19.0288 29.3316C18.4022 28.6131 18.7641 29.8429 18.4189 29.6529Z" fill="#CFA582"/>
<path d="M17.4606 37.2564C17.799 37.1114 18.104 37.0526 18.0805 37.595C18.0537 38.1926 18.1844 38.7005 18.7574 38.9803C19.6286 39.6228 20.7176 38.9423 21.6056 39.4777C21.6625 39.5399 21.7195 39.6021 21.7764 39.6643C21.7798 39.7783 21.7798 39.8923 21.7764 40.0063C21.2973 40.0788 20.8148 40.1583 20.3356 40.2239C18.6937 40.4554 17.5343 39.2566 17.4606 37.2564Z" fill="#D9B28E"/>
<path d="M22.1383 34.4548C22.1383 34.5757 22.1383 34.7001 22.1383 34.821C22.0211 34.9384 21.9004 35.0559 21.7831 35.1768C21.2336 34.4962 21.0393 33.5082 20.1245 33.1455C19.8832 32.9071 19.6386 32.6722 19.3974 32.4338C18.9752 32.6411 18.7172 32.3371 18.4323 32.1057C18.4256 31.7153 18.3452 31.3042 18.744 31.0416C19.4979 31.2282 20.0005 31.8293 20.6204 32.2404C21.1666 32.952 22.1484 33.3424 22.1383 34.4548Z" fill="#B48965"/>
<path d="M22.1082 37.2495C22.4902 37.1148 22.4433 36.4964 23.1402 36.4653C22.6711 37.595 22.8688 38.8801 21.7731 39.6677V39.6712C21.2738 39.2394 21.2169 38.7488 21.5989 38.2064C21.6223 37.8057 21.6424 37.3981 22.1082 37.2495Z" fill="#D2AE8C"/>
<path d="M23.1134 32.7586C23.1938 31.66 21.4481 31.3215 22.0445 30.0122C22.5103 30.0087 22.6175 30.3922 22.7683 30.7273C23.1067 31.4044 23.4451 32.0815 23.7836 32.7586C23.673 32.9071 23.5624 32.9071 23.4485 32.762L23.281 32.7586H23.1134Z" fill="#D8B492"/>
<path d="M24.4135 36.607C23.988 37.3808 24.1019 38.4759 23.1235 38.925C23.2776 37.9888 23.3011 36.9766 24.4135 36.607Z" fill="#E2BFA0"/>
<path d="M22.1082 37.2495C21.9909 37.5812 21.8736 37.9163 21.7597 38.2479C21.6726 38.3999 21.5754 38.4103 21.4615 38.2755C21.7865 37.861 20.6941 37.1217 21.7597 36.8764C21.877 37.0008 21.9909 37.1252 22.1082 37.2495Z" fill="#B78866"/>
<path d="M23.4485 32.762C23.5591 32.762 23.673 32.7586 23.7836 32.7586C24.1622 32.9969 24.1086 33.4046 24.1488 33.7742C23.4686 33.7639 23.8238 32.9935 23.4485 32.762Z" fill="#CFA582"/>
<path d="M31.4938 6.5003C31.6044 6.3863 31.7149 6.27575 31.8255 6.16175C31.9261 6.16866 32.0299 6.18248 32.1305 6.19975C32.2544 6.87685 32.3751 7.55394 32.499 8.2345C32.9313 10.7218 32.6733 13.064 31.1654 15.154C31.1621 14.9191 31.1554 14.6807 31.152 14.4458C30.9778 13.3749 31.9462 12.4318 31.4904 11.3263C31.4904 11.2227 31.4938 11.1156 31.4904 11.012C31.3196 10.6147 31.5273 10.2071 31.4603 9.80633C32.0366 8.71123 30.9275 7.5954 31.4938 6.5003Z" fill="#C8A387"/>
<path d="M29.48 18.2528C29.6073 16.9677 30.1468 15.9175 31.1721 15.1506C31.1721 16.5117 30.2004 17.3097 29.48 18.2528Z" fill="#C8A387"/>
<path d="M7.07979 29.2453C6.84188 29.1313 6.60397 29.0173 6.36606 28.8998C6.26889 28.3402 6.69109 28.1191 7.01277 27.8254C7.15686 27.7874 7.30094 27.7909 7.44168 27.8392C7.80021 28.088 8.20901 28.2227 8.60441 28.3885C8.69153 28.3194 8.81551 28.7271 8.85572 28.3851C8.89593 28.0569 9.01991 27.8703 9.33488 27.8185C9.72023 27.9187 9.96484 28.1813 10.1324 28.5336C10.2094 28.8618 10.0318 29.2107 10.1927 29.5354C10.3167 29.7738 10.4608 29.9984 10.6115 30.2195C10.7389 30.3956 10.8427 30.5787 10.9064 30.7895C10.9667 31.2489 10.9232 31.698 10.759 32.1333C10.5713 32.4028 10.3535 32.6031 9.99834 32.4788C9.75373 32.2818 9.613 32.0124 9.48902 31.7291C9.35834 31.0969 8.81216 31.1833 8.38996 31.0555C8.25592 30.9207 8.12524 30.786 7.99121 30.6547C8.23917 30.2955 8.48712 29.9362 8.79875 29.4802C8.1956 29.4007 7.63602 29.3213 7.07979 29.2453Z" fill="#C39974"/>
<path d="M10.7188 32.0642C10.3937 31.6117 10.6987 31.1522 10.7121 30.6996C10.9567 30.2195 10.6384 30.3093 10.3736 30.3473C10.1089 30.1918 10.0486 29.9396 10.0486 29.6529C10.2128 28.962 10.6886 28.6096 11.3085 28.4093C11.9686 27.8151 12.87 28.8825 13.4966 28.0638C13.7613 27.7805 14.1768 27.5525 13.8183 27.0516C13.5569 26.6474 13.7077 26.3434 14.0294 26.074C14.3745 25.8978 14.6694 25.6283 15.0179 25.466C15.4267 25.2725 15.9192 25.3554 15.7785 25.9047C15.4803 27.0792 16.3783 26.7511 16.8642 26.9549C17.0619 27.518 16.8742 27.9394 16.4185 28.2676C15.7282 28.7029 15.1821 29.2867 14.7397 29.9776C13.7379 30.33 12.7326 30.6824 11.7307 31.0347C11.1443 31.1522 11.3822 31.9226 10.9165 32.1333C10.8495 32.1126 10.7824 32.0884 10.7188 32.0642Z" fill="#D0A684"/>
<path d="M20.4328 32.4166C19.776 32.0815 19.1059 31.7637 18.744 31.0451C18.6367 30.5822 18.5295 30.1158 18.4189 29.6529C18.4457 29.2764 18.4692 28.8998 18.5295 27.9843C19.0422 29.4629 20.1379 29.0656 20.7578 29.6529C20.6137 29.8187 20.5467 30.0536 20.3356 30.1642C18.8612 31.0071 20.8416 31.3353 20.5936 31.9951C20.5936 32.1575 20.5366 32.2957 20.4328 32.4166Z" fill="#DBB490"/>
<path d="M16.4151 28.2711C16.5257 27.8116 16.6329 27.3522 16.7435 26.8927C16.7335 26.2985 17.0317 26.3192 17.4204 26.5334C17.4304 26.8892 17.4371 27.2451 17.4472 27.6009C17.6013 27.8289 17.6214 28.0465 17.3936 28.2434C17.0753 28.5543 16.7636 29.1693 16.4151 28.2711Z" fill="#A97F5E"/>
<path d="M17.3936 28.2434C17.4103 28.0293 17.4304 27.8151 17.4472 27.6009C18.0839 28.1433 18.104 28.8964 18.1006 29.6564C16.7536 29.7807 17.7555 28.6476 17.3936 28.2434Z" fill="#DBB490"/>
<path d="M18.4323 32.1091C18.754 32.2197 19.0757 32.3268 19.3974 32.4373C19.384 32.7137 19.4242 33.0833 19.0154 33.0004C18.5865 32.914 18.3988 32.5617 18.4323 32.1091Z" fill="#EED9BF"/>
<path d="M16.0901 30.0225C15.7316 30.2436 15.5473 30.7549 15.0212 30.6893C15.038 30.5753 15.0547 30.4578 15.0748 30.3438C15.4836 30.4751 15.3965 28.9171 16.0901 30.0225Z" fill="#EAD5BF"/>
<path d="M22.4164 28.9654C22.5404 28.962 22.6644 28.9585 22.7884 28.9551C23.2072 28.9102 23.5758 28.8238 23.358 28.2331C23.4686 28.012 23.6328 27.8669 23.864 27.8013C24.1522 27.8013 24.3934 27.936 24.638 28.0811C24.8223 28.1882 24.9698 28.3609 25.2311 28.4127C24.8726 27.9083 24.2795 27.5871 24.2661 26.8892C24.2896 26.7234 24.3599 26.5852 24.4805 26.4712C24.9195 26.8409 25.3551 27.2105 25.7941 27.5767C26.3268 28.2745 27.0975 28.2054 27.8448 28.3056C28.401 28.3816 29.0276 28.43 29.4062 28.9965C29.3694 29.4422 29.3526 29.8844 29.4733 30.3196C29.681 30.7584 30.6092 30.9967 29.8284 31.7049C28.6825 30.9795 27.4929 30.52 26.1359 31.0278C25.1239 30.6962 24.112 30.3611 23.0967 30.0295C22.3762 30.0087 22.1149 29.6771 22.4164 28.9654Z" fill="#D1AA86"/>
<path d="M29.4699 30.3265C29.2152 29.8982 28.5518 29.4871 29.4062 29.0034C29.624 29.1313 29.8452 29.2591 30.063 29.3869C29.8653 29.6978 29.6676 30.0122 29.4699 30.3265Z" fill="#DCBFA2"/>
<path d="M9.75708 31.7049C9.85761 31.9433 9.96148 32.1817 10.062 32.42C10.1525 33.0522 9.74368 33.4115 9.36169 33.7846C9.14724 34.0195 8.93279 34.251 8.72169 34.4859C7.9644 35.1422 8.62786 35.9299 8.5642 36.6588C7.89403 36.5552 8.18555 35.7433 7.70974 35.5257C6.91895 34.3788 8.13194 33.2457 7.73655 32.1022C7.93759 31.8535 8.13864 31.6013 8.33969 31.3526C8.83896 31.3318 9.28127 31.5909 9.75708 31.7049Z" fill="#CEA887"/>
<path d="M7.7332 32.0987C8.82891 33.2491 7.24398 34.3788 7.70639 35.5222C7.59916 35.5222 7.49194 35.5222 7.38471 35.5188C6.80167 34.3028 7.36461 33.2111 7.7332 32.0987Z" fill="#DAB89A"/>
<path d="M9.35834 33.7846C9.32148 33.18 9.85091 32.8898 10.0587 32.42C10.2765 32.3026 10.4976 32.1851 10.7154 32.0642C10.9366 32.2957 11.1611 32.0953 11.3856 32.0677C11.5196 32.0746 11.6536 32.0849 11.7877 32.0918C11.8614 32.1575 11.8849 32.2162 11.8513 32.268C11.8212 32.3164 11.791 32.3406 11.7609 32.3406C11.5933 32.6895 11.265 32.7517 10.9433 32.8242C9.96149 32.9002 10.0117 33.446 10.377 34.137C10.0017 34.1335 9.60295 34.1922 9.35834 33.7846Z" fill="#B7906C"/>
<path d="M11.3889 32.0711C11.1644 32.42 10.9399 32.4304 10.7188 32.0677C11.151 31.8258 10.9935 30.9691 11.724 31.0382C11.6134 31.3802 11.5029 31.7257 11.3889 32.0711Z" fill="#C39974"/>
<path d="M11.7609 32.344C11.7609 32.2611 11.7709 32.1748 11.7877 32.0918C12.0993 31.9709 12.4109 31.8466 12.7192 31.7257C12.7594 32.5237 12.3004 32.4995 11.7609 32.344Z" fill="#ECD8BC"/>
<path d="M33.836 23.7801C33.6316 23.5383 33.4306 23.2999 33.2262 23.0581C33.5177 22.5606 33.7757 22.8854 33.9801 23.1237C34.1879 23.3656 34.1912 23.635 33.836 23.7801Z" fill="#E7CEB0"/>
<path d="M2.02006 28.5958C2.02006 28.7133 2.01671 28.8307 2.01671 28.9447C1.44372 29.0794 1.16226 29.5044 0.974611 30.0329C0.240784 28.6684 0.894189 27.4454 1.3432 26.2018C2.21776 25.4452 2.94489 24.3398 4.35223 24.7992C4.55328 25.0238 4.78448 25.2276 4.81799 25.5592C4.77443 26.1707 4.28856 26.4436 3.92333 26.8132C3.09568 27.1863 2.66342 28.012 2.02006 28.5958Z" fill="#D2AF8D"/>
<path d="M0.974611 30.0329C0.931051 29.2764 1.23597 28.8687 2.01671 28.9447C1.28959 29.5251 1.30969 30.1089 2.00666 30.6996C2.59975 30.5131 2.5763 31.3111 3.0186 31.3664L3.0052 31.394C3.0052 31.6911 2.92478 31.9433 2.65002 32.0918C1.7453 31.7049 1.10194 31.0935 0.974611 30.0329Z" fill="#DCBD9C"/>
<path d="M3.69212 26.568C4.02385 26.2191 4.35893 25.8701 4.69066 25.5247C4.77443 24.9478 5.35412 25.1136 5.64564 24.8441C6.10806 24.8338 6.57382 24.8199 7.03623 24.8096C7.39476 24.8407 7.78681 24.7681 8.03812 25.1412C8.77865 25.7941 9.39855 26.7096 10.6048 25.846C10.9935 25.5661 11.523 26.0118 11.8212 26.4643C11.8815 26.6232 11.9016 26.7891 11.8916 26.9618C11.6805 27.9843 11.2046 28.7029 10.062 28.6545C9.73028 28.5163 9.49572 28.2849 9.38514 27.9325C8.47037 27.7667 7.5422 27.9187 6.62408 27.7736C5.6691 27.3142 4.52312 27.3452 3.69212 26.568Z" fill="#CDA581"/>
<path d="M5.64899 24.8441C5.33067 25.0721 5.01234 25.2967 4.69401 25.5247C4.42259 25.3658 4.35893 25.0998 4.35223 24.8027C4.78448 24.8165 5.21674 24.8303 5.64899 24.8441Z" fill="#E0C3A6"/>
<path d="M9.75708 31.7049C9.11373 32.3129 8.74849 31.7257 8.33634 31.3526C8.3531 31.2558 8.3732 31.1591 8.38996 31.0624C9.33489 30.1676 9.79729 30.3715 9.75708 31.7049Z" fill="#DFC0A0"/>
<path d="M32.8676 26.834C32.9715 26.6336 33.0754 26.4298 33.1793 26.2294C33.5344 26.0325 33.8595 25.8943 33.836 26.5403C33.5143 26.6371 33.1893 26.7372 32.8676 26.834Z" fill="#DEBB92"/>
<path d="M23.4485 25.8529C23.2173 25.421 23.0632 24.9685 23.1134 24.4641C23.6395 23.4692 24.685 23.0927 25.4422 22.3741L25.4757 22.4086C26.5413 21.9906 27.3153 23.3552 28.4446 22.913C28.6724 22.8232 28.3876 23.483 28.4781 23.7905C27.7442 24.1014 28.8869 25.6594 27.4226 25.4867C26.6485 25.5109 25.8879 25.6421 25.1407 25.846L25.0535 25.9323C24.5744 25.8978 24.7788 24.9305 24.0919 25.1758C23.8841 25.3796 24.0282 25.7216 23.8171 25.9254C23.6764 25.9772 23.5557 25.953 23.4485 25.8529Z" fill="#CDA684"/>
<path d="M25.1373 25.8425C25.8611 25.4694 26.5614 24.9478 27.4192 25.4832C27.1042 25.6145 26.7893 25.7492 26.4743 25.8805C26.0286 25.8701 25.583 25.8563 25.1373 25.8425Z" fill="#EED4B9"/>
<path d="M21.4615 38.279C21.562 38.2721 21.6592 38.2652 21.7597 38.2514C21.4749 38.7281 21.7463 39.1979 21.7764 39.6712C20.7712 39.4432 19.5448 40.2377 18.7607 38.9837C19.3773 38.7212 20.3892 39.1496 20.4696 37.9474C20.798 38.0579 21.1297 38.1684 21.4615 38.279Z" fill="#CEA885"/>
<path d="M3.69212 26.568C4.75433 26.7269 5.8601 26.7372 6.71455 27.5629C6.80838 27.6942 7.01277 27.7218 7.02952 27.9256C7.09989 28.4611 6.62408 28.6027 6.36606 28.8998C6.23203 28.8273 6.10135 28.7582 5.96732 28.6856C5.63224 27.9809 5.22679 27.4385 4.36563 27.9429H4.36898C4.01045 27.7632 3.70217 26.7269 3.27327 27.9291C3.08897 28.4403 2.52604 28.5371 2.02342 28.5923C2.01672 27.4247 3.12583 27.2347 3.69212 26.568Z" fill="#B2845D"/>
<path d="M3.01525 31.3664C2.49253 31.4424 2.34844 30.9104 2.00331 30.6996C2.01001 30.1918 2.21776 29.8291 2.70363 29.6667C2.59976 30.2747 2.71368 30.8413 3.01525 31.3664Z" fill="#C5A07E"/>
<path d="M23.7802 25.8632C23.7903 25.5903 23.8338 25.3312 24.0885 25.1758C24.2192 25.6076 24.3499 26.0429 24.4805 26.4747C24.4705 26.6129 24.4638 26.7511 24.4537 26.8927C23.7099 26.9065 23.4988 26.5576 23.7802 25.8632Z" fill="#CFA582"/>
<path d="M4.36563 27.9463C4.44605 27.0965 4.98218 27.1207 5.52836 27.3694C6.08125 27.6216 6.39622 28.0431 5.96732 28.6856C5.66575 28.6442 5.36082 28.6062 5.05925 28.5647C4.82805 28.3574 4.59684 28.1536 4.36563 27.9463Z" fill="#C4A180"/>
<path d="M22.4164 28.9654C22.4567 29.4456 22.6778 29.8084 23.0967 30.0329C23.1101 30.1435 23.1201 30.2505 23.1302 30.3611L23.1335 30.3576C23.0129 30.482 22.8923 30.6029 22.7716 30.7273C22.5304 30.4889 22.2891 30.2505 22.0479 30.0122C21.8971 29.2867 21.1767 28.6856 21.572 27.8254C22.2255 27.9325 21.9775 28.7167 22.4164 28.9654Z" fill="#9F7453"/>
<path d="M24.1388 30.976C24.4873 31.0796 25.1172 31.1902 24.9229 31.5564C24.6581 32.0538 24.179 31.6151 23.8338 31.3491C23.7065 31.0209 23.8104 30.9 24.1388 30.976Z" fill="#F8F5F2"/>
<path d="M26.796 31.3906C26.796 31.6151 26.796 31.8431 26.796 32.0677C26.4776 32.0297 25.9449 32.3268 25.9348 31.7602C25.9247 31.2178 26.4642 31.4251 26.796 31.3906Z" fill="#ECD8C2"/>
<path d="M27.6169 32.0297C27.694 31.7809 27.8749 31.6738 28.1128 31.7153C28.4747 31.7809 28.4747 32.0677 28.4513 32.3613C28.0994 32.4442 27.8414 32.2818 27.6169 32.0297Z" fill="#EFDECE"/>
<path d="M24.1388 30.976C24.0382 31.1004 23.9344 31.2247 23.8338 31.3491C23.3312 31.2213 23.1436 30.8586 23.1335 30.3611L23.1302 30.3645C23.4653 30.5649 23.8003 30.7687 24.1388 30.976Z" fill="#D4B69C"/>
<path d="M30.1535 33.1075C30.0328 33.1144 29.9089 33.1213 29.7882 33.1282C29.6508 32.9659 29.4397 32.8208 29.3962 32.6342C29.3459 32.4338 29.5838 32.3855 29.738 32.4373C30.0328 32.5409 30.1367 32.8035 30.1535 33.1075Z" fill="#E2C8AF"/>
<path d="M11.7207 26.8789C11.7173 26.7614 11.7173 26.644 11.714 26.5265C11.3152 25.7354 11.8882 25.4694 12.4009 25.1654C12.8432 24.699 13.2821 24.2292 13.7244 23.7628C13.567 23.3932 13.6038 22.8888 13.0878 22.761C13.7781 21.5277 14.8034 21.3205 15.4568 22.2946C15.6746 22.6194 15.8254 22.9959 16.0432 23.3241C16.3213 23.7525 16.4084 24.7094 17.0887 24.319C17.732 23.9494 16.8776 23.5037 16.7368 23.0788C16.2912 21.7385 16.8709 21.1685 18.0872 21.013C18.1006 21.4552 18.3184 21.6901 18.7507 21.7074C19.002 21.735 19.193 21.8663 19.3404 22.0701C19.4208 22.2705 19.585 22.495 19.4175 22.6885C19.0824 23.0788 19.0656 23.065 19.5817 23.3725C19.8899 22.8785 19.5415 22.4052 19.5348 21.9216C19.7593 21.127 19.8832 20.2875 20.4361 19.6312C20.5467 19.7452 20.6573 19.8626 20.7679 19.9766C20.9488 20.1321 21.2001 20.0734 21.3911 20.1977C21.4983 20.3186 21.5385 20.4603 21.5184 20.6226C20.9622 21.5139 21.314 22.3948 21.5553 23.2792C21.5151 23.5556 21.3006 23.6627 21.0962 23.7767C21.0627 25.1274 19.5616 25.8667 19.6219 27.1414C19.6721 28.1709 19.0489 27.5352 18.7875 27.6907C18.2749 27.9982 18.1006 27.6147 18.1006 27.1345C18.1006 26.9065 18.1274 26.6751 18.1643 26.4505C18.2346 26.0463 18.7205 25.421 18.0537 25.3312C17.4841 25.2552 17.0585 25.7976 17.4204 26.5265C17.1356 26.5231 16.891 26.6094 16.7435 26.8858C16.3079 27.2071 15.8589 27.4938 15.3596 27.0343C14.8302 26.5472 15.6746 26.1914 15.4836 25.694C14.8503 25.2967 14.79 26.8305 14.0729 26.188C13.9657 26.0049 13.8451 25.8425 13.6105 25.8391C12.88 26.0014 12.6622 27.1518 11.7207 26.8789Z" fill="#CB9D79"/>
<path d="M24.7922 8.59032C24.8022 9.87542 24.5677 10.1725 24.2192 9.61633C23.9444 9.18105 23.6764 8.80105 23.2441 8.47632C22.7884 9.22596 22.0378 9.7476 22.3059 10.8842C22.4835 11.6338 21.8636 12.3385 21.237 12.6805C20.5735 13.0398 20.8717 12.3074 20.7712 12.0311C20.9086 11.8756 20.9857 11.6856 21.0661 11.4991C20.9622 11.6753 20.9019 11.8722 20.7679 12.0276C20.0642 12.2867 19.6085 12.836 19.3337 13.6236C18.8679 12.9362 19.3102 12.3765 19.1394 11.8445C19.1327 11.8204 19.0254 11.7962 18.9953 11.8169C18.9082 11.8791 18.8344 11.962 18.7574 12.038C18.3385 12.2384 18.114 12.7185 17.6516 12.8602C17.4908 12.8498 17.3567 12.7773 17.2562 12.6495C16.9479 12.0656 17.0619 11.3954 16.8776 10.784C16.8441 10.6251 16.834 10.4662 16.8374 10.3038C16.8742 9.89615 17.0283 9.52996 17.2126 9.17069C17.7823 8.06868 18.8713 8.80796 19.6487 8.43486C20.5668 8.51777 20.6807 7.76467 20.9019 7.13248C20.9723 6.82503 21.113 6.56248 21.3475 6.3552C21.5788 6.16866 21.8267 6.00629 22.0512 5.80592C22.8253 4.66246 23.9243 5.17719 24.9296 5.19792C25.3317 5.31883 25.7304 5.34647 26.109 5.09774C26.6753 4.98028 26.9099 5.36374 27.1042 5.80247C27.4326 6.88375 27.7375 7.96504 26.7993 8.9185C26.1325 9.34687 25.7606 8.26559 25.1206 8.56959C24.7319 8.38304 25.0636 7.73013 24.5442 7.6334C24.2661 7.77504 24.303 7.9374 24.5174 8.10668C24.6648 8.24141 24.7721 8.38995 24.7922 8.59032Z" fill="#C79C7E"/>
<path d="M26.7993 8.92541C27.0741 7.88904 27.1009 6.85266 26.796 5.81629C27.0238 5.37756 26.863 4.96646 26.491 4.83864C25.6701 4.55537 25.2144 3.81954 24.5476 3.36008C23.9478 2.98008 23.1972 3.2599 22.594 2.89371C22.5404 2.83844 22.4902 2.77971 22.4366 2.72098C23.2139 1.6397 24.2627 2.7348 25.1273 2.36516C25.4054 2.36171 25.6801 2.34443 25.7974 2.01279C26.0387 1.60861 26.4341 1.68806 26.7993 1.6777C29.041 2.18207 30.3679 3.70208 31.1487 5.83011C29.8921 6.86303 29.7212 5.26356 29.0645 5.00792C29.6274 5.76102 30.6125 6.36557 30.6226 7.58158C30.6159 7.74049 30.5589 7.87522 30.4517 7.99268C30.2573 8.09286 30.0529 8.11013 29.8485 8.04449C29.1951 8.06522 29.6509 8.65596 29.4398 8.90123C29.3928 9.05323 29.3191 9.18796 29.2219 9.30887C29.0879 9.38833 28.9438 9.41596 28.7897 9.39869C28.1597 8.81141 27.4695 9.21905 26.7993 9.27087C26.7993 9.15687 26.7993 9.03941 26.7993 8.92541Z" fill="#CFA88A"/>
<path d="M17.0786 10.2969C17.082 10.4212 17.0887 10.5456 17.092 10.67C17.3802 11.3263 16.8843 12.114 17.4237 12.7289C17.5243 12.7324 17.6281 12.7358 17.7287 12.7358C17.8191 12.7945 17.8526 12.8602 17.8359 12.9327C17.8191 13.0087 17.7957 13.0467 17.7689 13.0467C17.7421 13.3956 17.6851 13.7998 17.3467 13.9069C16.6966 14.1107 17.0954 13.5062 16.9714 13.2955C16.6128 12.6702 16.2342 12.6598 15.8656 13.2506C15.6411 13.6098 15.7282 14.1729 15.1754 14.3249C14.4214 13.2126 14.8235 11.8376 14.4013 10.6527C14.7163 7.92013 15.5841 5.5192 18.0839 4.089C18.1911 4.203 18.2547 4.33773 18.2782 4.49318C18.2447 5.33265 17.5578 5.9752 17.6181 6.8423C17.608 6.99085 17.5712 7.13594 17.5209 7.27758C17.3366 7.59885 17.283 7.96849 17.1791 8.32432C17.0116 8.97378 16.7636 9.61978 17.0786 10.2969Z" fill="#CFA687"/>
<path d="M30.4886 7.89595C30.2641 6.31029 28.6255 5.56756 28.1463 3.975C29.6006 4.07518 29.5637 6.29993 31.1453 5.83011C31.2626 6.05466 31.3765 6.2792 31.4938 6.50375C31.6881 7.65413 32.4823 8.74923 31.8121 9.98597C31.6278 10.1863 31.41 10.3211 31.1319 10.3072C30.6326 11.0396 30.8303 11.9654 30.4819 12.7393C30.3847 12.8464 30.264 12.8947 30.1233 12.8913C29.7815 12.8533 29.5135 13.2678 29.1449 13.0709C28.9505 12.2764 28.7026 11.4922 28.8132 10.6527C30.3177 10.3452 30.7868 9.3676 30.4886 7.89595Z" fill="#C79C7E"/>
<path d="M24.1187 18.9264C23.7099 19.1648 24.0986 19.3963 24.122 19.6312C24.0516 20.0734 24.4504 20.4706 24.2527 20.9266C24.1589 21.0545 24.0382 21.1201 23.8808 21.1166C23.167 20.5294 22.2958 20.4568 21.4447 20.3186V20.3221C20.9924 19.6726 21.6458 19.5552 21.9172 19.2615C21.9373 19.1026 22.3226 19.1717 22.1417 18.8746C21.9976 18.809 21.8837 18.7157 21.7764 18.6086C21.6625 18.1457 21.5519 17.6828 21.438 17.2233C21.8535 16.9262 22.1417 16.3804 22.7716 16.522C24.5643 16.5255 24.504 17.631 24.1187 18.9264Z" fill="#C29878"/>
<path d="M18.0906 18.5982C18.1341 17.707 18.5999 16.6671 17.2596 16.2768C17.035 16.2111 17.0987 15.8899 17.1825 15.6722C17.4003 15.1298 17.8359 15.4511 18.1844 15.3993C18.496 15.3544 18.8478 15.3924 18.7038 15.7482C18.3151 16.7224 19.2734 16.985 19.5448 17.6551C19.2231 18.2148 18.5664 18.2701 18.0906 18.5982Z" fill="#D3AA8A"/>
<path d="M26.7993 9.27087C27.4695 8.24141 28.1396 7.90977 28.8098 9.27433C29.0745 9.61978 29.1047 9.96524 28.8098 10.3107C28.3541 10.4938 28.0793 11.0327 27.5164 11.0085C27.0741 10.8254 27.1813 10.2347 26.8127 9.99979C26.8094 9.75451 26.806 9.51269 26.7993 9.27087Z" fill="#C79C7E"/>
<path d="M28.8098 10.3072C28.8098 9.96179 28.8098 9.61633 28.8098 9.27087C28.9204 9.27087 29.0343 9.27433 29.1449 9.27433C29.8552 9.08778 29.9323 8.24486 30.4886 7.89595C31.1889 9.00832 30.7365 10.7011 29.5838 11.1605C29.175 11.3229 29.1147 10.7529 28.8132 10.6493C28.8132 10.5352 28.8131 10.4212 28.8098 10.3072Z" fill="#BF9374"/>
<path d="M13.7915 18.9575C13.4966 19.2615 13.2352 19.6208 12.7561 19.6104C12.7259 19.5655 12.6991 19.5137 12.6622 19.4757C12.1864 18.9921 11.9954 18.4704 12.431 17.8486C12.6254 17.5688 12.87 17.2475 13.2084 17.3857C13.9154 17.669 13.8082 18.3461 13.7915 18.9575Z" fill="#6F543E"/>
<path d="M15.3898 18.2562C15.1519 17.707 14.9341 17.1473 14.6694 16.6153C14.0629 15.3958 14.8805 15.2197 15.7818 14.9191C15.8556 15.534 15.2223 16.028 15.745 16.5048C15.7182 17.1093 15.7115 17.7173 15.3898 18.2562Z" fill="#D0A785"/>
<path d="M20.4395 19.6381C20.5567 20.5466 20.158 21.2963 19.7526 22.0459C19.5381 22.267 19.3136 22.2463 19.0891 22.0666C18.9752 21.9492 18.8646 21.8283 18.7507 21.7108C18.7574 21.5968 18.7607 21.4828 18.7607 21.3688C18.9919 21.0268 19.1896 20.6606 19.4309 20.3255C19.7459 20.0595 19.585 19.0577 20.4395 19.6381Z" fill="#D4AD8E"/>
<path d="M29.1449 13.0675C29.5503 13.1746 29.5001 11.6753 30.1803 12.7565C30.2406 13.748 29.8653 14.5322 29.1147 15.1368C28.0793 14.4286 29.5738 13.7653 29.1449 13.0675Z" fill="#CDAB90"/>
<path d="M19.4309 20.3255C19.7392 21.0372 19.327 21.2548 18.7607 21.3688C18.3888 20.709 18.3419 20.0043 18.4927 19.2546C19.0556 19.3928 18.9651 20.1217 19.4309 20.3255Z" fill="#CB9D79"/>
<path d="M29.1114 15.1368C29.4666 14.3422 29.8217 13.5511 30.1769 12.7565C30.2775 12.7427 30.378 12.7358 30.4819 12.7358C30.3646 13.824 30.2238 14.9053 29.1382 15.4891C29.1281 15.3717 29.1214 15.2542 29.1114 15.1368Z" fill="#AE8569"/>
<path d="M29.1449 15.4822C28.6925 16.2768 28.1095 16.8019 27.1344 16.5255C27.5733 15.7068 28.3172 15.5098 29.1449 15.4822Z" fill="#AE8569"/>
<path d="M24.7922 8.59032C24.6783 8.47286 24.561 8.35195 24.447 8.2345C24.2493 7.99959 24.2493 7.77158 24.4571 7.54358C24.6548 7.22921 24.6849 6.77666 25.2713 6.64539C25.2177 7.31903 25.1675 7.94777 25.1172 8.5765C25.01 8.57996 24.9028 8.58686 24.7922 8.59032Z" fill="#BC9173"/>
<path d="M24.8022 11.5025C25.2546 12.722 24.7419 13.1987 23.8774 14.0451C24.256 13.0018 24.4739 12.4007 24.8022 11.5025Z" fill="#DFBDA2"/>
<path d="M15.3898 18.2562C15.5104 17.6724 15.1686 16.9884 15.745 16.5048C16.5559 17.0817 15.3462 17.9868 16.0633 18.581C15.8522 18.6984 15.6378 18.8159 15.4267 18.9333C15.4166 18.7088 15.4032 18.4842 15.3898 18.2562Z" fill="#E0C0A3"/>
<path d="M17.417 19.9801C16.8809 19.7832 16.8239 19.417 17.0853 18.9472C17.4204 18.8332 17.7555 18.7157 18.0906 18.6017L18.0872 18.5982C18.2313 19.2477 17.7856 19.5932 17.417 19.9801Z" fill="#D3AA8A"/>
<path d="M26.8161 9.99633C27.5264 9.98252 27.4527 10.5456 27.5197 11.0051C27.4092 11.1813 27.322 11.4783 27.1813 11.506C26.806 11.5854 26.8127 11.2365 26.8027 10.9774C26.7926 10.6493 26.8094 10.3211 26.8161 9.99633Z" fill="#A87C60"/>
<path d="M21.7764 18.6121C22.001 18.6121 22.2255 18.6155 22.45 18.6155C22.6376 19.0024 22.2925 19.1026 22.1082 19.2892C21.9071 19.6519 21.3811 19.7901 21.4414 20.329C21.1666 20.3186 20.9153 20.2634 20.7712 19.987C21.123 19.5413 21.6994 19.2684 21.7764 18.6121Z" fill="#D4AD8E"/>
<path d="M27.2818 14.4113C27.2416 15.0608 26.9266 15.2991 26.3335 15.3717C26.4006 14.7464 26.6653 14.4562 27.2818 14.4113Z" fill="#E3C7AC"/>
<path d="M21.0527 14.9537C21.371 14.9398 21.4045 15.1886 21.4112 15.4131C21.4146 15.572 21.371 15.8346 21.2805 15.8691C21.0259 15.9659 20.8918 15.7378 20.8315 15.5202C20.7712 15.2957 20.8081 15.0746 21.0527 14.9537Z" fill="#D4B093"/>
<path d="M22.7716 16.522C22.3159 16.7328 22.011 17.251 21.438 17.2233C21.629 16.4771 21.944 15.9831 22.7716 16.522Z" fill="#D4B093"/>
<path d="M17.7689 13.0467C17.7588 12.9431 17.7454 12.8395 17.7287 12.7358C17.9331 12.2867 18.248 12.0173 18.754 12.0449C18.5027 12.4595 18.4591 13.0916 17.7689 13.0467Z" fill="#B6896A"/>
<path d="M15.0715 19.9559C15.3999 20.2323 15.5975 20.6019 15.1284 20.8368C14.7867 21.0061 14.7867 20.5708 14.7297 20.3255C14.8436 20.2012 14.9575 20.0803 15.0715 19.9559Z" fill="#E0C5AD"/>
<path d="M12.4009 25.1689C12.173 25.6214 11.9418 26.074 11.714 26.53C11.3621 26.3641 11.0103 26.2018 10.6652 26.0394C10.2094 26.4954 10.9734 26.7234 10.7824 27.1103C10.0185 27.6527 10.0185 25.9185 8.87582 26.5576C7.7332 27.1967 8.73174 25.4038 8.03812 25.1412C9.11373 25.2552 10.0352 24.6161 11.0572 24.4779C11.5029 24.8165 11.9351 24.2534 12.3808 24.4572C12.3875 24.6921 12.3942 24.9305 12.4009 25.1689Z" fill="#D6B091"/>
<path d="M12.3808 24.4572C11.9452 24.9201 11.5163 25.5178 11.0572 24.4779C11.1745 24.3639 11.2918 24.2499 11.4124 24.1359C11.7374 23.8319 12.0591 23.8699 12.3841 24.1394C12.3841 24.2465 12.3808 24.3536 12.3808 24.4572Z" fill="#E4C9AF"/>
<path d="M13.0844 22.761C14.083 22.5641 13.8417 23.2067 13.7211 23.7628C13.0442 23.7456 13.0543 23.2619 13.0844 22.761Z" fill="#DFBEA0"/>
<path d="M12.3808 24.1428C12.0557 24.1428 11.7341 24.1394 11.409 24.1394C11.4023 23.8561 11.4492 23.5936 11.714 23.4347C12.0423 23.5659 12.2769 23.7905 12.3808 24.1428Z" fill="#D6B091"/>
<path d="M18.0939 4.46555C18.0906 4.34118 18.0872 4.21336 18.0872 4.089C19.002 2.92826 20.3524 2.57589 21.6324 2.14752C22.0814 1.99898 21.7831 2.49644 21.7764 2.71062C22.0345 2.94208 22.1651 3.24954 22.2489 3.57427C22.5471 3.94045 22.5136 3.42572 22.6644 3.39808C22.775 3.30481 22.8956 3.25644 23.033 3.23917C23.3681 3.24953 23.7032 3.29099 24.0215 3.12517C24.2762 3.07681 24.5174 2.83844 24.7922 3.05608C25.5662 3.41881 25.9046 4.34464 26.8596 4.57264C27.3555 4.6901 27.5935 5.42938 26.7993 5.81629C26.6251 5.54683 26.538 5.03901 26.0856 5.53992C25.7505 5.4812 25.4221 5.26701 25.0669 5.46738C24.0885 5.72992 22.8856 4.96646 22.1149 6.16175C21.7463 6.09611 21.3878 5.98211 21.0091 5.99938C20.6338 5.95102 20.292 5.82665 20.0374 5.51574C19.9033 5.10465 20.1815 4.83864 20.3557 4.53809C20.4696 4.26864 20.406 4.07518 20.1278 3.96809C19.4108 3.99227 18.8713 4.74537 18.0939 4.46555Z" fill="#CAA183"/>
<path d="M26.1057 1.00406C25.7103 1.45661 25.2914 1.74334 24.5643 0.997147C25.2043 0.997147 25.6533 0.997147 26.1023 0.997147C26.1057 1.0006 26.1057 1.00406 26.1057 1.00406Z" fill="#DEC0A7"/>
<path d="M25.7974 2.00934C25.9851 2.15443 26.1358 2.36862 25.9415 2.55171C25.6299 2.84535 25.3484 2.66571 25.1273 2.36171C25.268 2.07843 25.5193 2.0197 25.7974 2.00934Z" fill="#DEC0A7"/>
<path d="M22.1048 3.74009C21.6592 3.51208 21.7597 3.09753 21.7764 2.71407C21.9976 2.71753 22.2188 2.71753 22.4366 2.72098L22.4366 2.71753C22.6242 2.88335 22.6711 3.08717 22.594 3.32554C22.4969 3.54663 22.3461 3.69863 22.1048 3.74009Z" fill="#E4CAB6"/>
<path d="M31.4904 11.3298C32.3047 12.4767 31.4167 13.4267 31.152 14.4493C30.4919 13.3196 31.4971 12.3834 31.4904 11.3298Z" fill="#B49078"/>
<path d="M31.1319 10.3038C31.2927 10.0482 31.5307 9.96524 31.8121 9.98252C31.7049 10.328 31.5977 10.67 31.4904 11.012C31.209 10.8669 31.152 10.594 31.1319 10.3038Z" fill="#A68069"/>
<path d="M21.4414 20.3221C22.5773 19.5621 23.3882 20.1252 24.1187 21.0165C24.2963 21.1892 24.246 21.431 24.2996 21.6417C24.2795 21.4206 24.303 21.1892 24.1187 21.0165C24.2493 20.557 23.5021 20.0941 24.122 19.6312C24.5476 19.9904 24.7386 20.4706 24.8156 21.013C25.1574 22.0977 25.0368 23.0892 23.998 23.6627C23.1469 24.1325 22.2087 24.3501 21.4481 23.3897C20.6338 22.3706 20.3457 21.3481 21.4414 20.3221Z" fill="#CFA885"/>
<path d="M21.4514 23.3897C23.8003 24.1048 24.7185 23.4588 24.8156 21.013C25.325 21.317 24.9095 22.077 25.4422 22.3706C25.0502 23.521 24.1991 24.1325 23.1134 24.4607C22.3327 24.5781 21.7463 24.0807 21.0996 23.7801C21.2169 23.6523 21.3341 23.521 21.4514 23.3897Z" fill="#AC8260"/>
<path d="M23.7802 25.8632C23.7903 26.3572 24.0215 26.6958 24.4537 26.8927C24.8424 27.7114 25.65 28.126 26.3604 28.7202C25.0971 29.3938 24.5476 28.3954 23.8171 27.9152C23.3279 27.7252 23.1302 27.4212 23.4351 26.91C23.3681 26.7165 23.3145 26.5161 23.234 26.3296C23.1536 26.143 22.641 26.3296 22.8621 25.9185C22.9157 25.8149 23.2475 25.8701 23.4519 25.8529C23.5591 25.8529 23.6697 25.8563 23.7802 25.8632Z" fill="#C49A76"/>
<path d="M20.4328 32.4166C20.4328 32.2991 20.4328 32.1851 20.4328 32.0677C20.6472 31.8086 20.9622 31.8569 21.237 31.7878C21.3006 31.7637 21.3676 31.7429 21.4347 31.7222C22.9827 32.2749 22.9727 33.2491 22.135 34.4513C21.572 33.7742 21.0024 33.0971 20.4328 32.4166Z" fill="#D9B798"/>
<path d="M23.4753 28.2262C23.73 28.6303 23.9846 29.0345 24.2661 29.4802C23.6361 29.6149 23.2709 29.1002 22.7884 28.9516C23.0095 28.3747 22.1819 27.8151 22.7616 27.2347C23.2106 27.4074 23.5256 27.6769 23.4753 28.2262Z" fill="#C49776"/>
<path d="M20.4093 30.0122C20.5266 29.8913 20.6439 29.7738 20.7612 29.6529C20.7813 30.4129 21.6491 30.8827 21.438 31.7222L21.4414 31.7187C19.9905 31.584 19.8397 31.3353 20.4093 30.0122Z" fill="#DBB795"/>
<path d="M23.4753 28.2262C23.2374 27.8945 22.9995 27.5663 22.7616 27.2347C22.899 26.9341 23.1469 26.8789 23.4351 26.9065C23.5624 27.2416 23.6898 27.5767 23.8171 27.9118C23.7032 28.0189 23.5892 28.1225 23.4753 28.2262Z" fill="#E3C9B0"/>
<path d="M11.7207 26.8789C12.5885 26.7269 12.6254 25.3001 13.7177 25.4936C13.5066 26.9825 12.8934 28.1536 11.3822 28.6096C10.9366 28.9585 10.4943 29.304 10.0486 29.6529C8.78535 29.3005 9.92798 28.9827 10.062 28.6545C10.9031 28.3471 11.3387 27.6389 11.7207 26.8789Z" fill="#B28563"/>
<path d="M7.02952 27.9256C6.92565 27.8047 6.81843 27.6838 6.71455 27.5629C7.83707 27.6112 8.96629 27.3107 10.0821 27.6803C9.93468 28.0292 9.6264 27.8807 9.38179 27.9291C8.92609 27.8496 9.34829 28.9516 8.63457 28.5198C8.21571 28.392 7.76336 28.3436 7.45173 27.974C7.311 27.9567 7.17026 27.9394 7.02952 27.9256Z" fill="#BD9371"/>
<path d="M10.3736 30.3473C10.5814 29.9224 10.8595 29.5907 11.3755 29.7427C11.4794 29.7738 11.6235 30.0156 11.5933 30.1124C11.466 30.5407 11.1108 30.6651 10.7121 30.6996C10.5981 30.5822 10.4842 30.4647 10.3736 30.3473Z" fill="#E2C4A4"/>
<path d="M7.45173 27.974C7.84713 28.1571 8.24252 28.3402 8.63457 28.5198C8.15205 28.544 7.46848 29.0242 7.45173 27.974Z" fill="#F2E2D0"/>
<path d="M11.3822 28.6096C12.5852 27.9083 12.9471 26.5403 13.7177 25.4936C14.2773 25.4901 14.2539 25.801 14.0729 26.1949C14.0361 26.4332 13.6976 26.6751 14.0863 26.9031C14.3477 27.4696 13.6809 27.7909 13.7378 28.3022C13.4296 28.6718 13.1247 29.0449 12.6488 29.6149C12.9471 27.9982 11.8379 28.9205 11.3822 28.6096Z" fill="#D8B08E"/>
<path d="M13.7412 28.3022C13.0409 27.6216 14.0294 27.3832 14.0897 26.9031C15.3999 27.746 13.9154 27.8531 13.7412 28.3022Z" fill="#EAD2B9"/>
<path d="M20.4093 30.0122C20.1647 30.9587 20.3792 31.6117 21.4414 31.7222C21.5184 32.3095 21.5184 32.3095 20.4361 32.0677C20.1379 31.7498 19.8564 31.4147 19.5381 31.1176C19.0924 30.6996 19.3639 30.2575 19.5649 29.9224C19.8028 29.5216 20.1245 29.9293 20.4093 30.0122Z" fill="#CFA582"/>
<path d="M26.9166 29.8533C26.7591 29.0311 27.0808 28.7444 27.8615 28.5889C27.8582 29.2625 27.4527 29.5113 26.9166 29.8533Z" fill="#DEC1A4"/>
<path d="M6.37947 25.991C6.66429 25.8149 6.82848 25.6525 7.01612 25.611C7.25403 25.5592 7.47183 25.725 7.48524 25.9738C7.50199 26.3089 7.27749 26.5092 6.96251 26.4436C6.78492 26.4021 6.64419 26.2018 6.37947 25.991Z" fill="#DDBDA0"/>
<path d="M19.0891 22.0666C19.3102 22.0597 19.5314 22.0528 19.7526 22.0459C20.1412 22.8128 20.6908 23.597 19.4376 24.2327C19.0489 23.9218 19.0087 22.5054 17.9733 23.5867C17.5276 22.3154 19.6152 23.331 19.0891 22.0666Z" fill="#CFA582"/>
<path d="M15.0849 25.1758C14.9776 24.9409 14.8369 24.7612 14.8771 24.6921C14.9776 24.5194 15.1418 24.3156 15.3127 24.2776C15.611 24.2119 15.6746 24.4745 15.5674 24.6921C15.487 24.8614 15.296 24.9719 15.0849 25.1758Z" fill="#DAB292"/>
<path d="M22.2657 6.98048C22.6879 7.01848 22.8252 7.30867 22.7147 7.45376C22.2355 8.06522 22.5538 9.20523 21.5218 9.40905C21.3174 9.45051 20.8684 9.26742 21.0326 8.94269C21.3945 8.23104 21.877 7.58849 22.2657 6.98048Z" fill="#D0A98A"/>
<path d="M19.7626 8.57996C19.126 9.29851 18.1207 8.71123 17.4371 9.27433C17.1456 9.03596 17.1255 8.7285 17.2193 8.38995C17.3299 8.09286 17.3902 7.76813 17.6348 7.53667C17.8526 7.39849 18.0771 7.45031 18.2983 7.52631C18.935 7.72667 19.7123 7.53667 20.1714 8.2345C20.1748 8.52814 20.0843 8.70432 19.7626 8.57996Z" fill="#CFA687"/>
<path d="M20.148 5.4881C20.4629 5.60211 20.7746 5.71611 21.0895 5.83011C21.4012 5.94065 21.5922 6.12375 21.4514 6.49684C21.3341 6.73175 21.2202 6.97012 21.1029 7.20503C20.8617 7.61958 20.6874 8.13086 20.0508 7.94777C20.1513 7.25685 19.5247 6.99085 19.26 6.51066C19.3102 5.9372 19.5817 5.57447 20.148 5.4881Z" fill="#BD9275"/>
<path d="M17.3969 8.26904C17.4103 8.60414 17.4237 8.93923 17.4371 9.27433C17.3165 9.61287 17.1959 9.95488 17.0753 10.2934C16.2644 9.60251 16.2443 8.91159 17.0786 8.22413C17.1992 8.1274 17.3065 8.14122 17.3969 8.26904Z" fill="#E3CDBA"/>
<path d="M20.1077 7.93395C20.4395 7.68867 20.7712 7.4434 21.1029 7.19812C20.8717 8.67323 20.5266 9.02905 19.7626 8.57996C19.8698 8.4625 19.9804 8.3485 20.0876 8.23104C20.0072 8.1585 19.9838 8.0894 20.0173 8.02722C20.0474 7.96504 20.0776 7.93395 20.1077 7.93395Z" fill="#D9B89D"/>
<path d="M20.7678 12.0345C20.7779 11.4093 20.8215 10.8013 21.5754 10.3694C21.6826 11.2054 21.3676 11.6856 20.7678 12.0345Z" fill="#CBA080"/>
<path d="M17.4204 12.7289C16.5961 12.1658 16.901 11.4058 17.0887 10.67C17.6784 11.2745 17.3199 12.0414 17.4204 12.7289Z" fill="#B6896A"/>
<path d="M21.4514 6.49339C21.3308 6.27229 21.2102 6.0512 21.0895 5.82665C21.6625 5.19101 21.8535 5.78174 22.1115 6.1652C21.9674 6.43466 21.7262 6.49684 21.4514 6.49339Z" fill="#D4B094"/>
<path d="M25.0636 5.46738C25.4489 4.75573 25.774 5.02174 26.0822 5.53647C25.7136 5.95447 25.3786 5.88884 25.0636 5.46738Z" fill="#A47052"/>
<path d="M24.4571 7.54358C24.4537 7.77504 24.4504 8.00304 24.447 8.2345C24.1522 8.33813 23.8305 8.53505 23.7869 7.96504C23.7434 7.36394 24.0315 7.34321 24.4571 7.54358Z" fill="#CBA080"/>
<path d="M30.4886 7.89595C30.4215 8.53159 30.1568 9.07396 29.7246 9.52306C29.3694 9.8927 29.1817 9.74415 29.1449 9.27433C29.1516 9.14651 29.1616 9.01869 29.1683 8.89087C29.5235 8.6525 29.4297 8.09977 29.8251 7.88904C30.0462 7.89249 30.2674 7.89249 30.4886 7.89595Z" fill="#C79C7E"/>
<path d="M29.8284 7.88904C29.7715 8.33813 29.9089 8.9185 29.1717 8.89087C29.1683 8.54886 29.1482 8.21032 29.1717 7.87177C29.1884 7.61958 29.0041 7.20503 29.356 7.16012C29.805 7.10485 29.7614 7.57467 29.8284 7.88904Z" fill="#A37D66"/>
<path d="M22.4232 3.36008C22.4265 3.1459 22.4332 2.93171 22.4366 2.71753C23.2206 2.83844 24.0818 2.39625 24.7922 3.05608C24.5777 3.17353 24.3633 3.29444 24.1522 3.4119C23.8003 3.39463 23.4485 3.39808 23.0967 3.40845C22.9961 3.40154 22.8923 3.39808 22.7917 3.39808C22.6544 3.51899 22.5337 3.50172 22.4232 3.36008Z" fill="#D3AE91"/>
<path d="M18.0939 4.46555C18.8679 4.11318 19.5314 3.50172 20.4194 3.41881C20.6472 3.66408 20.6472 3.99572 20.4328 4.16845C19.394 5.01828 18.7942 6.40011 17.4204 6.84575C16.8642 5.81974 17.9599 5.28774 18.0939 4.46555Z" fill="#E9D6C4"/>
<path d="M17.4237 6.84575C18.4223 5.70229 19.4208 4.56228 20.4194 3.41881C20.7712 3.7919 21.2839 4.127 20.7209 4.7281C19.6721 5.13574 19.0522 5.88193 18.9953 7.06685C18.8947 7.57467 18.754 8.03759 18.0906 7.84067C17.99 7.73358 17.8862 7.62304 17.7856 7.51594C17.5745 7.48831 17.4572 7.37085 17.4539 7.1463C17.4438 7.04612 17.4338 6.94594 17.4237 6.84575Z" fill="#DCC2AF"/>
<path d="M17.4539 7.1463C17.5645 7.27067 17.6751 7.39158 17.7856 7.51594C17.7555 7.8234 17.6818 8.10322 17.3936 8.26904C17.2864 8.26213 17.1825 8.24831 17.0786 8.22759C16.8072 7.72322 16.6598 7.2603 17.4539 7.1463Z" fill="#B98D70"/>
<path d="M15.869 10.8565C15.9661 10.936 16.1538 11.0085 16.1772 11.1225C16.2543 11.4749 16.1605 11.8031 15.7952 11.9344C15.7416 11.9551 15.5406 11.7409 15.5171 11.6131C15.4635 11.3229 15.5339 11.0465 15.869 10.8565Z" fill="#7B5137"/>
<path d="M22.1082 19.2857C22.2221 19.0612 22.336 18.8366 22.45 18.6121C22.7515 18.6224 23.281 18.5533 23.2441 18.8746C23.1637 19.5897 22.5002 19.1544 22.1082 19.2857Z" fill="#DFBEA2"/>
<path d="M18.7976 6.88376C18.687 5.73683 19.4644 4.86628 20.7243 4.73155C20.5333 4.98373 20.339 5.23592 20.148 5.49156C19.8933 5.81283 19.6386 6.13757 19.3806 6.45884C19.3002 6.76285 19.1628 6.98394 18.7976 6.88376Z" fill="#E9D5C2"/>
<path d="M22.4232 3.36008C22.5438 3.3739 22.6678 3.38426 22.7884 3.39808C22.7884 3.84372 22.8755 4.41027 22.2322 4.38609C21.7932 4.36882 22.078 3.97845 22.1048 3.74354C22.2121 3.61227 22.3159 3.48445 22.4232 3.36008Z" fill="#AF8062"/>
<path d="M23.0933 3.40845C23.4451 2.94553 23.797 2.94553 24.1488 3.4119C23.797 3.79881 23.4451 3.89209 23.0933 3.40845Z" fill="#E2C9B3"/>
<path d="M22.4164 20.6088C22.9961 20.6606 23.3748 21.0026 23.3547 21.5761C23.3346 22.2048 22.9023 22.6297 22.2992 22.6747C21.7228 22.7196 21.371 22.343 21.4045 21.7246C21.438 21.089 21.763 20.6779 22.4164 20.6088Z" fill="#6C543F"/>
<path d="M24.1187 21.0165C24.6715 21.5001 24.4403 21.9803 23.9679 22.4605C24.0181 21.9768 24.0684 21.4966 24.1187 21.0165Z" fill="#C29878"/>
<path d="M18.7976 6.88376C18.9919 6.74212 19.1863 6.59702 19.3806 6.45539C19.8062 7.2534 20.1681 6.08229 20.6405 6.45193C20.4663 6.93557 20.2853 7.43649 20.1077 7.93395C20.1111 8.03413 20.1044 8.13431 20.0876 8.23104C19.4644 7.86831 18.6937 8.32086 18.0906 7.84067C18.5496 7.69558 18.7373 7.33976 18.7976 6.88376Z" fill="#C79C7E"/>
</svg>
