<svg width="45" height="41" viewBox="0 0 45 41" fill="none" xmlns="http://www.w3.org/2000/svg">
<path d="M29.6291 0.691318C31.6793 1.12037 33.7295 1.55339 35.7797 1.98244C35.7757 2.6141 35.2751 2.66177 34.838 2.78095C31.7111 2.49094 28.6477 1.68052 25.4969 1.5375C23.5381 1.12037 21.5714 1.17201 19.6086 1.49777C18.0233 1.70435 16.4499 1.9586 14.8804 2.2645C11.082 2.68561 7.58558 4.07605 4.14873 5.64923C3.81498 5.56978 3.59248 5.36717 3.48918 5.03744C7.07701 2.2208 11.2767 1.12831 15.7109 0.695291C16.5492 0.349667 17.4829 0.774745 18.3133 0.369531C18.9014 0.222541 19.4894 0.123224 20.0854 0.30994C22.1952 0.035825 24.301 0.0636338 26.4108 0.29405C26.6253 0.313913 26.8439 0.333776 27.0584 0.349667C27.8729 0.802553 28.8066 0.321858 29.6291 0.691318Z" fill="#626160"/>
<path d="M26.6492 40.8035C25.8585 40.8234 25.0718 40.8472 24.2811 40.8671C23.8639 40.299 22.9183 41.0935 22.6163 40.2235C23.2441 39.286 24.2334 39.5362 25.1115 39.4965C26.0929 39.4568 27.0664 39.429 28.0319 39.2303C29.3947 39.1191 30.7297 38.849 32.0528 38.5391C33.4275 38.3484 34.6473 37.6572 35.9704 37.3076C37.6193 36.9421 38.9106 35.9052 40.2774 35.0113C41.4932 34.0579 42.4468 32.8939 43.0467 31.4598C43.3129 30.8281 43.1778 30.0852 43.5791 29.4893C43.8414 29.2589 44.0996 29.104 44.3142 29.541C44.3301 30.2084 44.3897 30.8758 44.191 31.5313C43.7063 33.8871 42.1408 35.4166 40.2098 36.6282C36.6895 38.845 32.8077 40.013 28.6994 40.4897C28.0557 40.8512 27.2928 40.4341 26.6492 40.8035Z" fill="#636364"/>
<path d="M44.0877 29.3105C43.9725 29.4456 43.8533 29.5807 43.7381 29.7118C43.4202 30.0495 43.3924 30.5302 43.15 30.9115C42.8163 31.2333 42.5103 31.6902 41.9779 31.1936C41.8428 30.9235 41.815 30.6414 41.8706 30.3514C43.011 28.8537 43.1063 27.062 43.154 25.31C43.2295 22.3583 43.301 19.4066 43.2136 16.3834C42.554 16.4867 42.2521 17.1303 41.664 17.2217C41.4693 17.2534 41.2826 17.2376 41.0959 17.174C40.5197 15.9623 41.8468 15.6008 42.1567 14.7824C42.3911 14.4606 42.6494 14.1667 43.0229 13.9998C43.6944 13.7694 44.1791 14.0316 44.5486 14.5878C44.4969 19.3272 44.787 24.0785 44.2148 28.806C44.346 29.0166 44.3062 29.1874 44.0877 29.3105Z" fill="#335A84"/>
<path d="M0.175498 29.3026C0.247016 29.0762 0.318534 28.8497 0.386079 28.6233C0.397999 28.5001 0.405945 28.3809 0.417865 28.2578C0.469517 24.4599 0.417865 20.662 0.445678 16.8681C0.449651 16.157 0.306614 15.422 0.695991 14.7546C1.14497 14.3891 1.33568 14.7546 1.55024 15.0566C2.11444 18.4373 1.6297 21.8379 1.78863 25.2266C1.7926 25.4491 1.78863 25.6755 1.78466 25.898C1.77671 26.3151 1.76876 26.7323 1.75685 27.1454C1.67738 28.2697 1.80452 29.3384 2.6389 30.2044C3.40971 31.2135 4.62949 31.6624 5.53937 32.4966C6.3658 33.0409 7.26375 33.4421 8.17759 33.8156C8.97224 34.1532 9.80265 34.3717 10.6331 34.5982C11.9402 34.9438 13.2554 35.2537 14.5745 35.5437C15.1506 35.6708 15.9413 35.5794 15.985 36.517C15.5638 36.9421 15.0195 36.9778 14.4712 37.0017C13.9388 37.0176 13.4103 36.9778 12.8899 36.8547C11.6343 36.5369 10.4026 36.1356 9.15104 35.8019C7.47036 35.3252 6.00821 34.3717 4.43083 33.6606C2.94087 32.8979 1.69725 31.8531 0.771483 30.4507C0.48541 30.113 0.429785 29.6601 0.175498 29.3026Z" fill="#3D6791"/>
<path d="M34.8897 2.38368C35.1877 2.24861 35.4856 2.11751 35.7836 1.98244C39.0377 2.91205 41.9819 4.34222 43.8811 7.30187C44.9539 8.97039 45.3949 10.7819 44.5764 12.7206C43.8374 12.1406 44.1473 11.207 43.8215 10.488C42.856 6.76555 40.0032 4.99374 36.7531 3.61521C36.0657 3.32521 35.136 3.35302 34.8897 2.38368Z" fill="#646361"/>
<path d="M0.175498 29.3026C0.656259 29.3662 0.839028 29.684 0.866841 30.1289C1.64162 32.8065 3.31038 34.765 5.72213 36.1197C6.25058 36.509 6.85451 36.7355 7.47433 36.9381C8.45572 37.5459 9.87019 37.4188 10.4503 38.698C10.0649 39.278 9.54836 39.0436 9.05171 38.9205C6.24263 38.0663 3.70373 36.7752 1.71314 34.5426C0.36224 33.025 -0.317184 31.3446 0.175498 29.3026Z" fill="#5D5C5D"/>
<path d="M9.05171 38.9165C9.49671 38.8291 10.0053 38.9562 10.3549 38.5431C11.6621 37.9591 12.8263 38.8053 14.0659 38.9086C16.1837 39.278 18.3332 39.3177 20.4668 39.5323C21.1979 39.6038 22.0919 39.3892 22.366 40.442C21.472 40.9823 20.4072 40.3189 19.5132 40.8472C15.9055 40.8472 12.4369 40.1083 9.05171 38.9165Z" fill="#686868"/>
<path d="M3.49315 5.03346C3.664 5.16059 3.83882 5.28772 4.00967 5.41484C3.98186 6.0902 3.42958 6.42788 3.06404 6.88871C2.71042 7.25419 2.44422 7.67927 2.22966 8.13613C1.76479 8.99423 1.52242 9.93973 1.14497 10.8336C0.807242 11.3222 1.03372 12.2359 0.0721934 12.2439C-0.31321 8.97039 0.846974 6.52322 3.49315 5.03346Z" fill="#5A5A59"/>
<path d="M1.23238 15.0804C1.10523 14.9612 0.978091 14.846 0.854921 14.7268C0.35032 16.0378 0.791349 17.4004 0.616527 18.7313C0.572821 18.9895 0.425811 19.0769 0.179471 18.9935C0.123845 17.1382 0.00464837 15.283 0.429785 13.4476C0.680098 13.1934 0.49733 12.6809 0.958225 12.5498C2.14225 13.1576 2.49189 14.3772 3.08391 15.422C3.17926 15.8114 3.17529 16.1888 2.92498 16.5264C1.586 16.9515 1.78466 15.577 1.23238 15.0804Z" fill="#5A6878"/>
<path d="M0.179471 18.9935C0.270855 18.9975 0.366213 19.0014 0.46157 19.0054C0.795322 22.1279 0.640366 25.2584 0.545008 28.3849C0.489383 28.4604 0.437731 28.5398 0.390052 28.6233C-0.126468 25.4253 0.223176 22.2034 0.179471 18.9935Z" fill="#4F617C"/>
<path d="M44.199 10.2933C44.8466 11.0203 44.3619 11.9261 44.5764 12.7246C44.5685 13.3483 44.5565 13.968 44.5486 14.5917C44.0559 14.3891 43.5712 14.1468 43.011 14.266C42.713 12.8438 43.7222 11.7552 43.9645 10.4681C44.044 10.4085 44.1195 10.3489 44.199 10.2933Z" fill="#4F5251"/>
<path d="M26.4147 0.290077C24.305 0.29405 22.1991 0.301995 20.0894 0.305968C22.1952 -0.0476014 24.305 -0.146919 26.4147 0.290077Z" fill="#696867"/>
<path d="M19.5132 40.8433C20.3556 40.0725 21.4005 40.6526 22.3263 40.4182C22.4415 40.2831 22.5488 40.291 22.6561 40.4301C23.2083 40.5374 23.8639 40.2672 24.2851 40.8671C22.6918 41.1094 21.1025 40.9704 19.5132 40.8433Z" fill="#565557"/>
<path d="M0.89068 12.6253C0.843001 12.959 0.787376 13.2887 0.433758 13.4516C0.171524 13.0901 -0.019191 12.7127 0.0761666 12.2479C0.684072 11.8863 0.21523 11.0402 0.783403 10.6628C1.42309 11.2825 1.41515 11.942 0.89068 12.6253Z" fill="#5A5B5C"/>
<path d="M18.3133 0.365558C17.5187 1.04886 16.585 0.627755 15.7108 0.691318C16.5413 0.278159 17.4352 0.381449 18.3133 0.365558Z" fill="#696867"/>
<path d="M29.6291 0.691318C28.7669 0.61981 27.8372 1.06078 27.0624 0.345695C27.9405 0.274186 28.8066 0.337749 29.6291 0.691318Z" fill="#646361"/>
<path d="M44.0877 29.3105C44.1274 29.1437 44.1711 28.9729 44.2109 28.806C44.6837 29.7197 44.632 30.6255 44.191 31.5352C44.1592 30.7924 44.1235 30.0534 44.0877 29.3105Z" fill="#6E6B69"/>
<path d="M34.8897 2.38368C36.4551 3.06698 38.0762 3.65097 39.5781 4.45742C41.9263 5.72074 43.6904 7.53228 44.199 10.2933L44.1155 10.2615C43.4361 10.4641 44.8386 12.5061 42.9196 11.6162C42.6534 11.1792 42.8163 10.7025 42.7884 10.2456C42.3593 7.61571 40.7263 6.04253 38.3186 5.14867C36.9875 4.60441 35.7717 3.76618 34.2937 3.58741C32.3309 2.90013 30.2807 2.69355 28.2345 2.47108C27.0425 2.44725 25.8426 2.47505 24.7897 1.77586C24.6109 1.62093 24.5394 1.43024 24.5751 1.19585C24.8374 0.90187 25.1393 0.925707 25.4532 1.08859C28.6477 1.16407 31.7508 1.89504 34.8897 2.38368Z" fill="#A2A2A2"/>
<path d="M2.80578 6.68213C3.20708 6.26102 3.60837 5.83992 4.00967 5.41881C7.30746 3.48412 10.8039 2.16121 14.65 1.87518C15.1546 1.73216 15.6711 1.51366 16.0327 2.12943C15.7426 3.31726 14.7175 2.9915 13.9308 3.13849C13.0885 3.2974 12.278 3.61521 11.4078 3.63905C10.8436 3.69467 10.2914 3.83769 9.73908 3.97276C7.33924 4.50112 5.56718 6.25308 3.39382 7.22241C3.07199 7.17474 2.88524 6.98405 2.80578 6.68213Z" fill="#A8A8A7"/>
<path d="M15.9254 2.29231C15.6075 1.81956 15.091 1.96258 14.646 1.87518C16.2274 1.33887 17.8922 1.30311 19.5252 1.0727C20.1966 0.866116 20.8721 0.866116 21.5436 1.08064C21.6588 1.29517 21.6866 1.52161 21.623 1.756C19.8231 2.95972 17.8643 2.5267 15.9254 2.29231Z" fill="#9F9E9F"/>
<path d="M21.5078 1.1601C20.8482 1.13229 20.1887 1.1005 19.5291 1.0727C21.5038 0.532411 23.4825 0.500629 25.4572 1.08461C25.1989 1.1005 24.9367 1.1164 24.6784 1.13229C23.6255 1.86723 22.5687 1.86326 21.5078 1.1601Z" fill="#696867"/>
<path d="M22.6561 40.4301C22.5448 40.4221 22.4375 40.4182 22.3263 40.4182C20.0536 39.8382 17.7014 39.9494 15.397 39.6435C14.8884 39.576 14.3321 39.719 13.907 39.2939C14.062 39.0516 14.1454 38.7576 13.7679 38.7338C11.4992 38.5828 9.40135 37.7009 7.19621 37.2758C6.56843 37.2043 6.03999 36.9222 5.5791 36.4971C5.42017 35.4682 4.32356 35.4881 3.77128 34.8882C3.55672 34.6578 3.1594 34.6181 2.98855 34.328C2.64685 33.748 1.63765 33.1601 2.14225 32.5761C2.81373 31.8054 3.25476 33.0488 3.86266 33.2514C3.98186 33.2912 4.08516 33.3825 4.19641 33.4501C5.8612 34.1771 7.15647 35.8099 9.24242 35.5119C10.2318 35.8973 11.2052 36.3303 12.2581 36.5369C13.5256 37.0771 14.9083 37.0613 16.2274 37.3552C20.0059 37.6969 23.7884 37.534 27.567 37.3989C28.0756 37.5221 28.3696 37.8757 28.5444 38.3444C28.6795 38.837 28.5682 39.278 28.2464 39.6673C27.1339 40.291 25.9181 39.9971 24.742 40.0805C24.0427 40.1282 23.2799 39.8819 22.6561 40.4301Z" fill="#8D8D8E"/>
<path d="M36.1929 37.6691C34.8936 38.1339 33.6937 38.9046 32.2475 38.8927C31.2979 39.1866 30.3641 39.0953 29.4106 38.996C29.5099 38.1657 30.0026 38.0385 30.4317 37.9511C32.0607 37.6174 33.5467 36.8865 35.0883 36.3064C35.3347 36.2111 35.0367 36.366 35.283 36.2667C35.1996 36.084 35.0645 36.3104 34.9572 36.227C34.5798 36.1356 34.2818 35.9608 34.1149 35.6073C35.0486 34.2128 36.614 34.2367 38.0047 33.8712C38.4934 33.9109 38.9543 34.0341 39.3397 34.3519C39.5622 35.4722 38.4497 35.6073 37.9491 36.1753C37.4484 36.7514 36.6657 37.0334 36.1929 37.6691Z" fill="#909192"/>
<path d="M34.9413 36.0522C35.4817 35.8257 36.022 35.5993 36.5664 35.3689C34.6433 37.0891 32.4104 38.1537 29.8754 38.8927C30.6661 38.8927 31.4568 38.8927 32.2475 38.8927C30.9562 39.3694 29.641 39.711 28.2504 39.6634C28.2504 39.2701 28.2464 38.8807 28.2464 38.4874C30.1257 36.6997 32.5335 36.378 34.9413 36.0522Z" fill="#808181"/>
<path d="M36.1929 37.6691C36.4869 35.8456 38.398 35.639 39.3715 34.4949C39.3953 34.2049 39.5344 33.9705 39.7211 33.76C39.8959 33.5693 40.0747 33.3746 40.3012 33.2554C40.7899 32.9932 41.3581 32.4609 41.8269 33.0965C42.2203 33.6368 41.5846 34.0023 41.2667 34.3757C41.0164 34.6697 40.6985 34.9081 40.5595 35.2855C39.2404 36.3303 37.9173 37.3671 36.1929 37.6691Z" fill="#848385"/>
<path d="M40.5595 35.2815C40.2694 34.2804 41.6442 34.1572 41.6084 33.2435C40.782 33.0766 40.4045 33.8275 39.8125 34.1175C39.447 34.0857 39.0894 34.0261 38.8669 33.6845C38.8192 33.5017 38.8391 33.3269 38.9066 33.1521C39.8483 32.302 40.8495 31.5511 42.1448 31.3247C42.4269 31.0267 42.709 30.7288 42.9951 30.4308C43.7937 30.6573 43.5513 31.1936 43.3765 31.71C42.848 33.2276 41.9263 34.4313 40.5595 35.2815Z" fill="#999895"/>
<path d="M43.3725 31.71C43.3407 31.2572 43.4321 30.7645 42.9911 30.4348C43.2414 30.1965 43.4877 29.9541 43.7381 29.7158C43.6546 30.3871 43.9884 31.134 43.3725 31.71Z" fill="#6E6B69"/>
<path d="M40.9767 17.0508C41.1157 17.0548 41.2548 17.0588 41.3938 17.0628C41.6362 17.1621 41.8508 17.2852 41.9263 17.5633C41.9342 17.7421 41.9064 17.9129 41.8388 18.0758C41.6322 18.5009 41.3303 18.8107 40.8336 18.8783C38.7675 19.1961 37.063 20.5269 35.0406 20.9639C34.8618 21.1626 34.6274 21.3135 34.5201 21.5718C34.7188 21.3413 34.8817 21.0791 35.14 20.9004C35.7638 20.6978 35.9743 21.0116 35.9863 21.5718C35.9863 21.7187 35.7995 21.7545 35.7916 21.8975C36.0896 21.8657 36.3876 21.8141 36.6856 21.9253C37.063 22.1081 37.2458 22.3901 37.1544 22.8192C36.7332 23.4032 35.7677 23.1608 35.4697 23.9355C35.3704 24.0904 35.2552 24.2335 35.132 24.3685C34.9254 24.5711 34.691 24.7181 34.393 24.738C34.2063 24.7102 34.0314 24.6426 33.8685 24.5394C33.3242 24.0467 32.6607 24.1461 32.0091 24.1619C31.1945 24.1858 30.1138 24.0348 29.8834 23.4191C29.1205 21.3731 27.5511 22.5848 26.3631 22.3266C25.6122 22.2908 24.8215 22.4179 24.2136 21.8061C24.4996 20.6263 25.4969 20.8845 26.2717 20.8765C27.9127 20.8567 29.5377 20.8448 31.1071 20.2965C33.7295 19.7443 36.2525 18.9339 38.6205 17.6428C39.3357 17.2495 40.0469 16.6337 40.9767 17.0508Z" fill="#3D6A9B"/>
<path d="M40.9767 17.0508C37.8974 18.4889 34.9612 20.3164 31.4528 20.6183C27.4994 21.1745 23.5302 21.5598 19.5331 21.536C18.6868 21.532 17.8008 21.6035 17.1611 20.8487C17.0141 20.6342 16.9823 20.4038 17.0697 20.1575C18.0511 19.3709 19.2232 19.6331 20.3158 19.6649C25.3579 19.8079 30.3403 19.5338 35.1638 17.9129C37.508 17.2097 39.6297 16.0775 41.5528 14.5679C41.9859 14.4249 42.3156 14.5441 42.5302 14.9572C42.3077 15.8789 41.2945 16.2047 40.9767 17.0508Z" fill="#807D78"/>
<path d="M42.1448 31.3247C41.2508 32.2146 40.1264 32.7509 39.0417 33.3468C38.7079 33.5852 38.3503 33.6884 37.953 33.5136C37.8855 32.2106 39.0616 32.147 39.7171 31.5829C38.7556 31.8848 38.1278 32.9257 37.0392 33.0925C36.1412 32.8979 35.2711 32.6834 36.177 31.5074C36.912 30.0892 35.4618 29.3384 35.1757 28.2339C35.0843 27.9638 35.0565 27.6897 35.1042 27.4076C35.1559 27.2249 35.2433 27.062 35.3704 26.919C35.5254 26.8157 35.6962 26.7561 35.879 26.7482C36.7452 27.3123 37.7742 26.8316 38.6762 27.1852C39.0178 27.2209 39.288 27.3798 39.4748 27.6619C40.1502 27.499 39.9516 26.0529 41.0839 26.5694C41.966 27.7334 40.6111 29.0523 41.3382 30.2203C41.4415 30.7725 41.9302 30.3037 42.1527 30.5222C42.1448 30.7884 42.1448 31.0585 42.1448 31.3247Z" fill="#4277AC"/>
<path d="M42.1488 30.5222C41.8865 30.558 41.6243 30.9632 41.3621 30.5222C40.9488 29.3384 41.5806 28.3412 41.9819 27.3321C42.7964 25.2783 42.554 23.1529 42.6534 21.0474C42.5024 20.7772 42.3395 21.2023 42.558 21.0513C42.6494 20.9878 42.701 21.0315 42.709 21.1785C42.7646 22.6126 42.709 24.0308 42.2044 25.3935C40.6071 24.7777 41.4495 23.3912 41.2349 22.3385C41.2468 20.956 42.2362 19.8675 42.3951 18.4969C42.4746 17.8374 42.3713 17.5435 41.7594 17.4124C41.6362 17.2932 41.517 17.174 41.3938 17.0588C42.0733 16.4629 42.7487 15.867 43.5672 15.1479C43.5672 18.918 43.5434 22.4894 43.5791 26.0609C43.595 27.7254 43.5156 29.3185 42.1488 30.5222Z" fill="#4A7CAF"/>
<path d="M42.5302 14.9612C42.2799 14.8619 42.0256 14.7626 41.7753 14.6633C41.6322 14.5202 41.5528 14.3494 41.525 14.1508C41.7316 13.0782 42.2243 12.1684 43.0348 11.4335C44.3738 11.9459 43.3447 10.2734 44.1155 10.2615C44.3936 11.7751 43.5791 12.9868 43.011 14.266C42.852 14.4964 42.6891 14.7268 42.5302 14.9612Z" fill="#94918F"/>
<path d="M7.97496 34.1294C6.95781 33.9189 6.11151 33.3349 5.22548 32.8502C5.10628 32.5125 5.32084 32.3536 5.57115 32.2106C5.82147 32.0954 6.08767 32.0239 6.35785 31.9643C6.82272 31.7776 7.66505 32.147 7.4942 31.0387C7.43063 30.6136 7.97099 30.3117 8.47956 30.2759C10.1126 30.7169 11.4952 31.7736 13.1481 32.1749C14.9599 32.9138 17.0419 32.9972 18.5517 34.475C18.949 34.8604 19.4219 34.5505 19.843 34.3678C20.0377 34.328 20.2244 34.3439 20.4112 34.4075C21.1065 35.202 22.5289 35.1583 22.7753 36.4693C22.6322 36.6521 22.4574 36.7832 22.2428 36.8666C20.1291 36.946 17.9835 37.5181 15.9413 36.4654C14.1374 35.7503 12.1071 35.8377 10.3629 34.9041C9.79867 33.9268 8.76961 34.3916 7.97496 34.1294Z" fill="#437AAF"/>
<path d="M5.61486 32.5046C5.48374 32.6198 5.3566 32.735 5.22548 32.8502C4.42686 31.9007 3.00841 31.71 2.39654 30.5341C2.96074 29.9343 3.65208 30.3355 4.28382 30.2878C4.6732 30.3117 5.04271 30.2441 5.35262 29.9819C5.47182 29.8707 5.59102 29.7714 5.71022 29.6641C6.32607 29.247 6.22276 28.1783 7.16442 28.0512C7.83987 28.5518 8.11402 29.3185 8.47161 30.0296C8.51929 30.2163 8.47559 30.3792 8.36036 30.5302C8.16568 30.6891 7.82398 30.8361 7.80411 31.0148C7.7167 31.8094 7.29554 32.3139 6.41348 32.5165C6.14727 32.2384 5.88504 32.1391 5.61486 32.5046Z" fill="#467AAE"/>
<path d="M1.23238 15.0804C2.08265 15.2115 1.98332 16.4112 2.85346 16.5185C2.93292 16.5701 3.01239 16.6218 3.09185 16.6734C3.54877 17.2097 3.31833 17.7302 3.05609 18.2506C2.96868 18.4095 2.86935 18.5605 2.76605 18.7114C2.56739 20.1734 2.06676 21.6353 2.96471 23.0695C3.11569 23.3118 2.80181 23.6654 2.63493 23.9434C2.53957 24.2017 2.42832 24.452 2.31707 24.7062C2.01908 25.1194 2.05881 25.8861 1.23635 25.759C1.23238 22.1994 1.23238 18.6399 1.23238 15.0804Z" fill="#467AAE"/>
<path d="M4.41891 30.5103C3.75538 31.2492 3.06801 30.2322 2.39654 30.5341C1.22046 29.7595 1.18073 28.5677 1.24032 27.3441C2.8773 25.8583 3.85471 26.0132 4.62155 27.8645C4.70101 28.2816 3.76333 27.928 4.08516 28.6471C4.3315 29.2033 4.74869 29.8111 4.41891 30.5103Z" fill="#437AAF"/>
<path d="M4.02159 33.7004C3.50904 33.3269 3.00047 32.9535 2.38462 32.5006C2.76605 34.0976 3.93418 34.6657 5.11423 35.2616C6.04397 35.7304 6.02013 35.7781 5.58307 36.4971C3.08391 35.063 0.815188 33.458 0.870814 30.1329C2.03497 31.2055 3.02431 32.4807 4.4507 33.2554C4.43083 33.5176 4.18449 33.5693 4.02159 33.7004Z" fill="#959699"/>
<path d="M4.41097 28.1465C3.87061 25.8344 2.43627 27.058 1.24032 27.3441C1.23635 26.9468 1.23635 26.5535 1.23238 26.1562C1.64559 25.902 1.98729 25.5285 2.48395 25.4094C2.78591 25.3538 3.08391 25.3696 3.3819 25.4451C4.852 25.8503 5.26124 27.1852 5.90888 28.3213C6.12343 28.9768 6.06781 29.5847 5.61088 30.1249L5.60691 30.1289C4.109 29.9978 3.83882 29.5489 4.41097 28.1465Z" fill="#467AAE"/>
<path d="M0.545008 28.3849C0.517196 25.2584 0.48541 22.1319 0.457597 19.0054C0.676125 17.5872 0.0443808 16.0894 0.850948 14.7268C0.846974 18.7948 0.846974 22.8549 0.827108 26.919C0.823135 27.4116 1.04961 27.9797 0.545008 28.3849Z" fill="#204573"/>
<path d="M4.02159 33.7004C4.16463 33.5494 4.30766 33.4024 4.4507 33.2514C6.03205 33.9506 7.61339 34.6538 9.19474 35.353C9.32586 35.4245 9.36559 35.496 9.32189 35.5675C9.27818 35.6351 9.23448 35.6708 9.19077 35.6708C6.79094 36.7792 5.71816 34.4194 4.02159 33.7004Z" fill="#B4B6B7"/>
<path d="M15.8459 37.7167C14.4712 37.82 13.2474 37.2718 11.9998 36.8269C11.9681 36.0522 12.4488 36.3343 12.8342 36.4216C13.311 36.4534 13.7838 36.4852 14.2606 36.517C15.8618 37.0295 17.7173 36.1595 19.1874 37.4148C18.1425 38.269 16.9783 37.8081 15.8459 37.7167Z" fill="#DFDEDE"/>
<path d="M19.0841 37.3354C17.4789 37.0652 15.8698 36.7911 14.2646 36.521C14.8208 36.5051 15.3771 36.4852 15.9333 36.4693C18.1822 36.4733 20.435 36.4812 22.6839 36.4852C22.8825 36.3462 23.0494 36.3779 23.1805 36.5845C23.2083 36.807 23.1289 36.9778 22.9421 37.101C22.1952 37.4784 21.3409 37.3632 20.5701 37.6254C20.0496 37.6651 19.5252 37.7048 19.0841 37.3354Z" fill="#5A7792"/>
<path d="M7.97496 34.1294C9.1272 33.3349 10.1722 34.193 11.2966 34.2009C11.1774 34.8683 10.7364 34.8326 10.3589 34.9041C9.50068 34.8405 8.67822 34.6657 7.97496 34.1294Z" fill="#5089BA"/>
<path d="M12.8382 36.4256C12.5601 36.5607 12.2819 36.6958 12.0038 36.8308C11.0661 36.4455 10.1245 36.0601 9.1868 35.6748C9.1868 35.5675 9.19077 35.4642 9.19474 35.357C10.4066 35.7105 11.6224 36.0681 12.8382 36.4256Z" fill="#BBC3CB"/>
<path d="M2.42038 25.759C2.02305 25.8901 1.62573 26.0251 1.2284 26.1562C1.2284 26.0251 1.2284 25.8901 1.2284 25.759C1.49858 25.3617 1.76876 24.9644 2.03894 24.5672C2.57931 24.8333 2.82962 25.1909 2.42038 25.759Z" fill="#437AAF"/>
<path d="M7.19621 37.2758C7.34719 37.1606 7.56174 36.9143 7.64121 36.954C10.0649 38.114 12.8422 37.7247 15.3413 38.6702C15.1188 39.6117 14.3679 39.1032 13.907 39.2979C12.723 39.0476 11.539 38.7973 10.3589 38.551C9.30202 38.122 8.24911 37.6969 7.19621 37.2758Z" fill="#9B9C9B"/>
<path d="M0.89068 12.6253C0.854921 11.9698 0.819162 11.3143 0.783403 10.6588C1.10921 9.68548 1.26416 8.63669 1.94359 7.8064C2.2535 7.85804 2.45216 8.04476 2.57136 8.33079C1.63765 10.6071 2.476 12.5418 3.75538 14.3891C3.47726 14.7387 3.85074 15.1916 3.57261 15.5452C3.29846 15.6723 3.04417 15.6604 2.8177 15.4459C2.17404 14.5043 1.53037 13.5668 0.89068 12.6253Z" fill="#979594"/>
<path d="M2.40846 8.26326C2.2535 8.11229 2.09854 7.95736 1.94359 7.8064C2.1343 7.35748 2.36475 6.94035 2.80578 6.67815C2.95279 6.83309 3.10377 6.98405 3.25078 7.13899C3.39382 7.47666 3.21105 7.72694 3.01636 7.97325C2.84949 8.14408 2.6548 8.25928 2.40846 8.26326Z" fill="#B8B6B5"/>
<path d="M2.8177 15.4419C3.07596 15.4538 3.33422 15.4657 3.59645 15.4777C5.30494 16.161 6.7512 17.4203 8.61068 17.7818C8.99608 17.901 9.33778 18.0917 9.62783 18.3698C11.3602 19.4305 13.3468 19.641 15.2738 20.0264C15.9175 20.1535 16.6048 20.082 17.1253 20.5865C20.5741 21.4049 24.0745 21.0116 27.5352 20.8249C28.8344 20.7534 30.1456 20.6302 31.4568 20.6143C29.9708 21.4645 28.3338 21.3493 26.7127 21.4128C25.8943 21.4446 25.0003 21.1109 24.2732 21.7823C23.3037 22.6205 22.1316 22.4577 21.0628 22.2471C19.4894 21.9372 17.916 21.9611 16.3386 21.8975C16.1161 21.8856 15.8976 21.8498 15.683 21.8022C12.8064 20.9679 9.78278 20.6858 7.01741 19.4146C5.46785 18.7035 3.9898 17.9129 2.82962 16.6297C2.82962 16.6297 2.85346 16.5185 2.85743 16.5145C2.84154 16.161 2.82962 15.8034 2.8177 15.4419Z" fill="#70737A"/>
<path d="M34.5599 3.15836C36.1094 3.21 37.2617 4.26276 38.6325 4.77127C39.6496 5.68896 40.8694 6.3802 41.7236 7.48064C42.3514 8.29107 43.1143 9.0856 42.5699 10.2655C42.403 10.3608 42.2282 10.3886 42.0375 10.3449C40.9608 9.75301 40.3092 8.65258 39.2642 8.01298C36.614 5.94321 33.4593 5.3195 30.2449 4.85469C29.6132 4.76332 28.8901 4.84277 28.5523 4.08399C28.7232 3.41658 29.2914 3.16233 29.8198 2.86835C31.4369 2.37971 32.9587 3.39274 34.5599 3.15836Z" fill="#8A8A89"/>
<path d="M15.9254 2.29231C17.7094 1.50572 19.7238 2.41546 21.4959 1.52558C22.5528 1.21969 23.6136 1.21969 24.6705 1.52558C25.8545 1.67257 27.0385 1.81956 28.2226 1.96655C27.5988 3.48412 26.224 2.58232 25.2267 2.9041C21.3449 3.51192 17.3597 3.06301 13.5136 4.02837C12.6594 3.98467 11.5548 4.57263 11.2251 3.15438C12.7905 2.86438 14.3599 2.57834 15.9254 2.29231Z" fill="#797878"/>
<path d="M43.0348 11.4295C43.0626 12.5657 42.1329 13.253 41.7435 14.1905C40.2456 16.2801 37.9212 17.0469 35.7042 17.9884C34.9294 18.1592 34.2182 18.5763 33.3997 18.5724C32.9666 18.5287 32.605 18.3976 32.5296 17.897C32.9626 17.1104 33.8089 17.027 34.5201 16.7211C36.3399 16.1808 38.0484 15.4419 39.6456 14.3653C41.0363 13.4277 41.7634 12.3273 41.5011 10.6429C41.6322 10.3648 41.7951 10.1423 42.1527 10.2695C42.5262 10.6469 42.9196 9.95562 43.2931 10.2933C43.2096 10.6707 43.1222 11.0521 43.0348 11.4295Z" fill="#676063"/>
<path d="M25.0638 2.32806C26.1128 2.15327 27.2412 2.68561 28.2265 1.96655C30.384 2.12148 32.5176 2.41149 34.5639 3.16233C32.9785 3.97276 31.4051 2.92397 29.8238 3.13452C29.0013 3.61521 28.1272 3.13849 27.2849 3.27356C26.4783 3.10671 25.3936 3.6033 25.0638 2.32806Z" fill="#7C7B7C"/>
<path d="M43.297 10.2933C42.9156 10.4006 42.5222 10.8971 42.1567 10.2695C43.0507 9.02999 41.8309 8.45792 41.3382 7.64749C40.6389 6.49541 39.0616 6.17362 38.6325 4.77524C41.1555 5.79225 42.8957 7.47666 43.297 10.2933Z" fill="#706D6D"/>
<path d="M24.6705 1.52558C23.6136 1.52558 22.5528 1.52558 21.4959 1.52558C21.4999 1.40243 21.5038 1.28325 21.5078 1.1601C22.5647 1.15215 23.6176 1.14023 24.6745 1.13229C24.6784 1.26338 24.6784 1.39448 24.6705 1.52558Z" fill="#B2B2B2"/>
<path d="M11.2251 3.15041C11.7297 3.9807 12.4687 3.59138 13.1481 3.52384C13.9229 3.82179 14.4394 4.18728 13.5335 4.94209C11.8131 5.60156 10.1126 6.33253 8.26898 6.59473C7.60545 6.43185 6.74326 6.97213 6.29428 6.04253C6.46513 5.20429 7.22004 5.04935 7.8359 4.75538C8.46367 4.44948 9.1868 4.29852 9.51657 3.57549C10.0847 3.43644 10.6529 3.29343 11.2251 3.15041Z" fill="#969797"/>
<path d="M9.5126 3.57549C10.1126 4.38194 9.42122 4.56469 8.9047 4.80702C8.08621 5.1884 7.2558 5.54991 6.43334 5.91937C5.67446 7.07542 4.64539 7.90174 3.35806 8.41422C3.06007 8.35066 2.8773 8.16791 2.80578 7.86996C2.95279 7.62763 3.10377 7.38132 3.25078 7.13899C5.09039 5.51813 7.16442 4.30249 9.5126 3.57549Z" fill="#6C6C6C"/>
<path d="M19.0841 37.3354C19.6285 37.2996 20.1768 37.2639 20.7211 37.2281C23.0494 37.1526 25.3579 36.1793 27.706 37.0771C27.9285 37.2599 27.9762 37.4784 27.8451 37.7366C23.8441 38.3683 19.843 38.3444 15.8459 37.7128C16.9108 37.4744 18.0749 38.0505 19.0841 37.3354Z" fill="#D2D4D6"/>
<path d="M27.8491 37.7406C27.8491 37.5698 27.8451 37.3989 27.8451 37.2281C27.7537 37.0374 27.7815 36.8626 27.9325 36.7117C28.2663 36.4852 28.6517 36.4097 29.0371 36.3462C29.8913 36.1674 30.7416 35.9688 31.576 35.7066C32.4541 35.6231 33.3242 34.9994 34.2102 35.6629C34.4923 35.7185 34.8102 35.7105 34.9413 36.0482C32.8434 37.2321 30.38 37.4029 28.2464 38.4874C28.1153 38.2372 27.9802 37.9909 27.8491 37.7406Z" fill="#C4C1BE"/>
<path d="M21.925 38.5709C20.3993 39.7706 19.0007 38.6901 17.5465 38.5709C19.0047 38.5709 20.4668 38.5709 21.925 38.5709Z" fill="#7F8183"/>
<path d="M34.2102 35.6629C33.3123 35.8297 32.4104 36.0005 31.5124 36.1674C30.7853 36.223 30.9164 35.8218 31.2343 35.5199C31.8819 34.912 32.7838 34.8524 33.5785 34.5585C34.985 34.1612 36.2843 33.3984 37.7822 33.323C38.1994 33.3309 38.6166 33.3388 39.0337 33.3428C39.002 33.4501 38.9861 33.5613 38.9821 33.6726C38.8828 34.0579 38.6324 34.2168 38.2431 34.1691C36.916 34.7055 35.4459 34.8723 34.2102 35.6629Z" fill="#41668F"/>
<path d="M38.247 34.1731C38.4934 34.0063 38.7397 33.8434 38.9861 33.6765C39.3317 33.6884 39.6377 33.7798 39.8085 34.1175C39.6615 34.2446 39.5185 34.3678 39.3715 34.4949C38.9741 34.4711 38.5212 34.6379 38.247 34.1731Z" fill="#B3B3B3"/>
<path d="M41.7594 17.4163C42.1845 17.4004 42.3792 16.5662 42.8957 17.027C43.1858 17.2852 43.0626 17.6984 43.0189 18.1076C42.8759 19.4464 42.1885 20.5667 41.7514 21.7863C41.1435 22.4537 41.5806 23.3118 41.3342 24.0467C41.227 24.7141 40.929 25.2663 40.3648 25.6596C38.9304 26.0807 37.6034 25.5484 36.2565 25.1829C36.1452 24.3367 36.3558 23.5978 36.9677 22.986C36.9756 22.6563 36.916 22.3623 36.5942 22.1875C36.5227 21.6592 36.034 21.965 35.7916 21.7863C35.7836 21.2619 35.5135 21.0037 34.993 20.9997L34.9969 21.0037C36.8564 19.8873 38.5808 18.4254 40.9647 18.6161C41.8269 18.9418 41.7197 18.3102 41.7514 17.8176C41.7554 17.6825 41.7554 17.5474 41.7594 17.4163Z" fill="#3E74AC"/>
<path d="M26.673 21.7982C27.2014 21.7942 27.7418 21.7148 28.2504 21.8061C28.8344 21.9134 29.8397 21.1626 29.8079 22.7795C29.7999 23.3317 31.3892 24.0587 32.5534 23.5978C33.5268 23.2125 34.0791 23.5104 34.1983 24.5632C32.8434 27.4553 32.2038 27.8327 29.5457 27.3163C29.2834 27.2169 29.0609 27.066 28.9497 26.7958C28.4769 25.6438 28.2504 25.6159 27.2134 26.5893C27.0425 26.6727 26.8637 26.6925 26.677 26.6568C26.4068 26.5535 26.2002 26.3787 26.0651 26.1205C26.0214 24.9048 25.7115 23.7091 25.7314 22.4815C25.787 21.8935 26.4068 22.0882 26.673 21.7982Z" fill="#4278AA"/>
<path d="M26.673 21.7982C26.4028 22.0564 26.1366 22.3186 25.8664 22.5768C24.3407 23.284 22.9819 24.452 21.1343 24.2652C20.2483 22.406 18.4285 22.5451 16.8075 22.259C16.5055 22.2153 16.2274 22.116 15.981 21.9333C15.8181 21.7664 15.7983 21.5876 15.9294 21.397C18.7106 21.5281 21.4879 21.6552 24.2692 21.7863C25.0718 21.7903 25.8704 21.7942 26.673 21.7982Z" fill="#4977A2"/>
<path d="M35.3982 26.9587C35.3506 27.1057 35.3068 27.2487 35.2592 27.3957C35.0883 27.9717 34.6552 28.0512 34.1467 27.9916C33.6063 27.8565 33.0302 27.8089 32.5812 27.4275C32.76 26.1443 33.6063 25.318 34.5639 24.5751C34.7069 24.4361 34.8539 24.301 34.9969 24.1619C35.136 24.2772 35.2274 24.4241 35.279 24.591C35.3585 25.2942 34.8062 26.0331 35.3943 26.7084C35.3982 26.7919 35.3982 26.8753 35.3982 26.9587Z" fill="#A3AEBA"/>
<path d="M34.5639 24.5711C33.8805 25.5007 33.1931 26.4264 32.5097 27.356C31.576 28.7146 30.531 28.226 29.4741 27.5387C29.3232 27.352 29.3112 27.1573 29.4344 26.9508C31.9813 28.0671 32.7997 25.7351 34.1943 24.5632C34.3215 24.5632 34.4447 24.5672 34.5639 24.5711Z" fill="#416890"/>
<path d="M36.9677 22.99C36.8405 23.7806 36.7173 24.5711 36.5902 25.3617C36.4511 25.4888 36.3002 25.5047 36.1333 25.4292C36.022 25.3101 35.9346 25.171 35.883 25.0121C35.8234 24.7857 35.8115 24.5513 35.7836 24.3248C35.6406 23.9991 35.2592 24.0348 35.0327 23.8402C35.4141 22.9503 35.9028 22.3107 36.9677 22.99Z" fill="#3C5F88"/>
<path d="M41.7514 17.8136C42.8083 18.0202 42.2044 18.5883 41.8826 18.8425C41.5726 19.0888 41.2866 19.7443 40.7104 19.2994C40.6548 19.2557 40.8734 18.8505 40.9647 18.6121C41.227 18.3459 41.4892 18.0798 41.7514 17.8136Z" fill="#4A7CAF"/>
<path d="M34.9969 20.9957C34.842 21.5876 34.9214 22.3464 34.0275 22.4219C33.9361 22.4299 33.7374 22.263 33.7454 22.2034C33.8685 21.5082 34.3135 21.1228 34.9969 20.9957Z" fill="#5181AC"/>
<path d="M35.7916 21.7863C36.2684 21.683 36.618 20.8606 37.0551 21.2222C37.6312 21.6949 36.626 21.7903 36.5982 22.1915C36.3439 22.0207 35.728 22.5808 35.7916 21.7863Z" fill="#5181AC"/>
<path d="M35.0367 23.8362C35.3069 24.3328 36.2366 22.4299 36.173 24.1461C35.9028 24.6069 35.6088 25.0042 35.0089 24.5711C35.0049 24.4321 35.0009 24.297 34.9969 24.158C35.0089 24.0507 35.0208 23.9434 35.0367 23.8362Z" fill="#B1B9BD"/>
<path d="M33.4712 18.2506C34.246 18.0798 35.0168 17.9129 35.7916 17.7421C35.8909 17.8414 35.9227 17.9407 35.8909 18.04C35.8591 18.1394 35.8273 18.191 35.7916 18.191C32.3905 19.494 28.8543 20.1336 25.2228 20.2131C22.5249 20.2727 19.8231 20.229 17.1253 20.233C15.7704 20.4395 14.4911 20.3323 13.4421 19.3153C13.4302 19.061 13.5375 18.8783 13.764 18.7591C14.7454 18.2943 15.7228 18.7511 16.6644 18.8783C20.3277 19.3669 23.9712 19.3669 27.6226 18.8505C29.5894 18.8306 31.4806 18.048 33.4712 18.2506Z" fill="#AAA8A2"/>
<path d="M13.5454 19.3749C14.7374 19.6609 15.9333 19.9469 17.1253 20.233C17.1253 20.3521 17.1253 20.4673 17.1213 20.5865C14.5705 20.7812 12.2184 19.8754 9.81854 19.2477C9.56425 19.1802 9.39738 18.7869 9.19077 18.5485C10.8079 17.9487 12.1707 18.6796 13.5454 19.3749Z" fill="#857A71"/>
<path d="M35.7916 18.191C35.7916 18.04 35.7916 17.893 35.7916 17.7421C37.9808 16.9038 39.9317 15.6683 41.7435 14.1905C41.7554 14.3454 41.7634 14.5043 41.7753 14.6593C40.2654 16.6615 38.0007 17.3766 35.7916 18.191Z" fill="#9C9A96"/>
<path d="M36.5982 31.722C35.5135 32.5165 36.912 32.4927 36.9875 32.9058C36.4432 34.0182 35.3068 33.9864 34.3374 34.2843C32.9229 34.0579 32.7203 32.4291 31.572 31.8928C31.3972 31.8332 31.2343 31.7577 31.0714 31.6743C30.0463 30.2243 31.4528 30.0693 32.1998 29.5569C33.2288 29.4973 33.9122 30.2402 34.7347 30.6573C35.2671 31.1618 36.1015 31.1459 36.5982 31.722Z" fill="#3D70A3"/>
<path d="M42.1448 25.3538C42.2958 23.9395 42.4428 22.5212 42.5938 21.107C43.3844 24.4122 42.7845 27.5268 41.3581 30.5222C40.623 30.5937 40.325 30.3871 40.5237 29.5529C40.7581 28.5716 41.1276 27.5904 40.9608 26.5456C40.6548 26.1205 40.7979 25.8225 41.219 25.6001C41.6958 25.5961 42.0057 25.7391 41.819 26.3032C42.1686 26.0728 41.7554 25.5762 42.1448 25.3538Z" fill="#3B6DA0"/>
<path d="M34.1943 27.7374C34.5519 27.6222 34.9095 27.5069 35.2631 27.3917C35.2949 27.6222 35.3307 27.8486 35.3625 28.079C35.6764 28.4882 35.7479 29.0086 35.9942 29.4615C36.2684 29.9621 37.0789 30.5063 36.4352 31.134C35.7638 31.7855 35.1479 31.1022 34.5678 30.7407C33.4633 30.1885 32.5335 29.247 31.1906 29.2152C30.4595 28.8934 29.4265 29.3264 28.9735 28.3213C30.6462 27.5348 32.458 27.9598 34.1943 27.7374Z" fill="#A6AFBA"/>
<path d="M36.2167 25.4094C36.3439 25.3935 36.467 25.3776 36.5942 25.3577C37.7861 24.4241 38.9781 25.9179 40.1701 25.3617C40.5714 25.902 40.2217 26.196 39.8125 26.4701C39.3397 26.6568 38.9543 26.9746 38.6007 27.3322C37.5716 27.8724 36.5823 28.1267 35.7916 26.9468C35.5254 26.3191 35.7201 25.8225 36.2167 25.4094Z" fill="#396EA5"/>
<path d="M34.2102 34.0976C35.136 33.7004 36.0618 33.3031 36.9875 32.9058C38.2311 32.6118 38.8748 31.0307 40.5476 31.2929C39.5503 32.0279 38.6682 32.6754 37.7861 33.3269C36.6458 34.3161 35.1519 34.4194 33.8129 34.912C33.6301 34.487 33.8407 34.2526 34.2102 34.0976Z" fill="#4A7CAF"/>
<path d="M39.3357 26.1682C39.8522 26.1483 40.1502 25.898 40.1661 25.3617C40.6787 24.9565 40.8972 24.4043 40.9608 23.7726C41.9819 24.2573 41.5369 25.032 41.3541 25.755C41.0363 25.9258 40.9687 26.2238 40.9608 26.5495C39.8443 27.0064 40.2893 28.512 39.2682 29.0642C38.6563 28.5716 39.3158 28.1505 39.3397 27.7056C39.0337 27.1931 38.9344 26.6806 39.3357 26.1682Z" fill="#376A9F"/>
<path d="M34.5996 30.5937C35.1598 30.6533 35.589 31.2055 36.3717 31.0069C36.3002 29.9422 35.1678 29.2033 35.3664 28.083C36.022 29.2152 37.6431 30.0177 36.6021 31.7259C35.8393 31.718 35.0208 31.8411 34.6076 30.9433C34.4645 30.8678 34.4168 30.7924 34.4606 30.7129C34.5043 30.6334 34.5519 30.5937 34.5996 30.5937Z" fill="#3B628E"/>
<path d="M39.3357 26.1682C39.3357 26.6806 39.3397 27.1931 39.3397 27.7096C39.0933 27.5824 38.847 27.4593 38.5967 27.3321C38.5609 26.7641 38.5689 26.2238 39.3357 26.1682Z" fill="#668EB4"/>
<path d="M36.2167 25.4094C36.2644 25.9735 36.0498 26.4661 35.7916 26.9468C35.6605 26.9508 35.5294 26.9547 35.4022 26.9587L35.3267 26.9468C35.1757 26.0927 35.0446 25.2465 36.1531 24.8969C36.173 25.0677 36.1929 25.2385 36.2167 25.4094Z" fill="#3B628E"/>
<path d="M41.3541 25.755C41.2667 25.0876 41.6203 24.3288 40.9608 23.7726C41.3978 23.1807 40.627 22.1041 41.7514 21.7863C41.9342 22.9701 41.3581 24.2374 42.1448 25.3538C42.1448 25.7629 42.1448 26.1681 42.1448 26.7958C41.7793 26.3112 41.5647 26.0331 41.3541 25.755Z" fill="#4277AC"/>
<path d="M34.2102 34.0976C34.0791 34.3678 33.948 34.6379 33.8129 34.9081C33.0024 35.2179 32.1918 35.5278 31.3853 35.8456C31.3654 35.8536 31.3694 35.9688 31.3932 36.0204C31.417 36.076 31.4727 36.1197 31.5164 36.1674C30.7297 36.5965 29.8794 36.7355 28.9973 36.7633C27.0346 36.5845 25.036 37.3433 23.1011 36.5369C22.962 36.517 22.8269 36.4971 22.6879 36.4812C22.6879 36.3501 22.6918 36.219 22.6918 36.0879C22.6879 35.6112 23.2004 35.3212 23.1368 34.6697C22.2428 34.4711 20.6456 35.2974 20.6496 33.3706C21.7978 32.5284 23.2322 32.6476 24.5076 32.2305C25.4612 32.2781 26.0333 33.021 26.7723 33.462C27.5829 34.2764 28.3974 34.3797 28.9735 33.2673C29.5894 32.0716 30.9204 32.0438 31.8144 31.3247C32.613 32.2503 33.4116 33.176 34.2102 34.0976Z" fill="#4477A9"/>
<path d="M20.6814 33.6884C21.337 33.76 21.7303 35.059 22.6521 33.9983C23.2958 33.2594 23.264 34.4472 23.7209 34.5704C24.448 34.765 23.7646 35.1464 23.5818 35.357C23.3355 35.643 22.9898 35.8496 22.6879 36.0879C21.7422 35.7582 20.5979 35.7185 20.2801 34.4552C20.0417 34.0063 20.0695 33.6964 20.6814 33.6884Z" fill="#4C82B5"/>
<path d="M20.6814 33.6884C20.3715 33.8513 20.3039 34.1413 20.2801 34.4552C20.1688 34.483 20.0576 34.4989 19.9423 34.5068C19.8033 34.6379 19.6444 34.6737 19.4616 34.6181C18.8934 34.1652 18.214 33.9586 17.5226 33.7838C17.1452 33.4382 16.7121 33.1045 17.3637 32.6198C18.9888 32.1232 20.733 32.584 22.3422 31.9921C23.0574 31.9246 23.7686 31.6028 24.4877 31.9564C24.6705 32.0954 24.7301 32.2781 24.6745 32.5006C23.4785 33.323 21.9369 33.025 20.6814 33.6884Z" fill="#4C6C8F"/>
<path d="M19.5887 34.4989C19.7079 34.4989 19.8231 34.5028 19.9423 34.5108C19.7675 35.4722 18.9173 35.5755 18.508 35.0948C17.0697 33.3945 14.8407 33.5573 13.1322 32.5602C12.9812 32.3775 12.9852 32.1987 13.1402 32.0199C13.6328 31.722 14.1414 31.9087 14.646 31.9603C15.5559 32.0875 16.5571 31.9802 17.1253 32.9575C17.3637 33.2077 17.6061 33.4541 17.8445 33.7043C18.4643 33.891 18.9451 34.3757 19.5887 34.4989Z" fill="#4A698B"/>
<path d="M13.1441 32.159C13.1481 32.2901 13.1441 32.4251 13.1362 32.5562C11.3403 32.3616 9.91787 31.2889 8.36036 30.5262C8.36831 30.3951 8.37626 30.26 8.3842 30.1289C8.45175 30.0733 8.52327 30.0177 8.59081 29.9621C9.05568 29.819 9.46095 30.0217 9.87019 30.1925C10.8039 30.6692 11.7654 31.0943 12.7349 31.4955C12.9733 31.6544 13.1282 31.865 13.1441 32.159Z" fill="#3A638D"/>
<path d="M5.61486 32.5046C5.55129 32.2384 5.20959 31.869 5.73803 31.7776C6.23468 31.6902 6.3658 32.0994 6.4095 32.5125C6.14727 32.5125 5.88106 32.5086 5.61486 32.5046Z" fill="#6893BA"/>
<path d="M15.9294 21.397C15.9294 21.5241 15.9334 21.6512 15.9373 21.7783C15.7228 22.0644 15.1983 22.0326 15.238 22.6245C15.4804 21.822 16.2472 22.1438 16.7081 21.8061C17.7849 21.9372 18.8735 22.0207 19.9384 22.2114C21.0111 22.406 21.0588 23.2959 21.0946 24.154C21.0191 24.1858 20.9396 24.2176 20.8641 24.2533C20.2642 24.1937 19.9662 23.5263 19.3464 23.5144C18.6749 23.4866 18.2776 23.86 18.0114 24.4202C17.9001 24.6625 17.761 24.8889 17.5505 25.0637C16.9346 25.2346 16.2909 25.2425 15.6751 25.4173C12.7389 26.0251 9.72318 26.3827 7.1525 28.1426C6.50884 28.7027 6.83861 30.0256 5.60691 30.1249C5.58704 29.4337 5.57115 28.7385 5.55129 28.0472C5.19767 27.6341 5.1778 27.1772 5.38838 26.6965C5.80955 26.1801 6.50089 26.1165 7.01741 25.7272C7.73657 25.1829 8.01469 24.6228 7.61737 23.7885C7.6134 23.5025 7.68491 23.2403 7.84782 23.0059C7.99483 22.8907 8.15773 22.8351 8.34447 22.8549C8.90867 23.2403 9.50068 23.5065 10.2039 23.2482C10.5695 23.2959 10.9231 23.5223 11.3085 23.3436C11.6105 23.2443 11.8568 23.0456 12.131 22.8986C12.2541 22.9026 12.3733 22.9304 12.4925 22.9662C12.5044 22.9701 12.5243 22.9225 12.5203 22.9225C12.274 22.8827 12.0356 22.8748 11.8369 23.0655C11.1694 23.2006 10.5536 23.0456 9.96952 22.7199C9.84238 22.5729 9.76292 22.3981 9.72716 22.2074C9.72318 22.0088 9.75894 21.8181 9.81854 21.6313C10.0609 20.8765 10.3947 20.4316 11.3641 20.6382C12.7468 20.9361 14.1653 21.0831 15.5519 21.3811C15.6791 21.3652 15.8062 21.3731 15.9294 21.397Z" fill="#437AAF"/>
<path d="M7.15647 28.1386C7.2121 27.3639 7.76041 27.0143 8.39215 26.776C10.8317 25.8424 13.3349 25.167 15.9492 24.9724C16.1837 25.2465 16.1678 25.5325 16.0049 25.8344C15.6036 26.192 15.095 26.2516 14.5944 26.3231C12.6952 26.6687 10.7681 26.919 9.07157 27.94C8.82126 28.0909 8.57094 28.2459 8.49545 28.5597C8.46367 28.8497 8.55108 29.1199 8.61862 29.394C8.65438 29.6244 8.63452 29.8429 8.47956 30.0336L8.3842 30.1289C7.54982 29.7277 7.37103 28.9212 7.15647 28.1386Z" fill="#3A638D"/>
<path d="M4.41097 28.1465C4.02556 29.2788 4.46262 29.9184 5.60691 30.1289C5.37646 30.7645 4.97119 30.8559 4.42289 30.5103C4.16463 29.9104 3.83485 29.3304 3.664 28.7067C3.4852 28.0671 3.80703 27.8645 4.41097 28.1465Z" fill="#578BB9"/>
<path d="M15.5559 21.3811C14.5189 21.4645 13.5256 21.2698 12.5124 21.0513C11.5946 20.8527 10.5854 20.7772 9.96158 21.7982C8.11402 22.3146 6.98562 20.7057 5.4599 20.2727C4.51427 19.6649 3.33422 19.3431 2.82167 18.191C2.84154 17.6745 3.20708 17.1581 2.82565 16.6377C6.69955 19.212 11.1496 20.233 15.5559 21.3811Z" fill="#4272A4"/>
<path d="M9.97747 22.1955C9.97747 22.3226 9.98144 22.4497 9.98144 22.5768C9.55631 23.1251 9.0676 23.431 8.38818 22.9821H7.99085C6.9896 23.721 6.30223 22.9185 5.50361 22.5173C5.01093 22.2709 4.72883 21.2539 3.91829 22.0167C3.68784 22.6682 4.18847 23.4866 3.44547 24.011C2.93292 24.2335 2.46805 24.1461 2.04292 23.7845C1.94756 23.3912 2.8773 23.5502 2.37667 22.6484C1.66546 21.3691 1.62176 19.6808 2.51176 18.2347C3.21105 19.1325 4.38315 19.3034 5.22151 19.9867C5.44798 20.1376 5.66651 20.2965 5.8453 20.5071C6.34196 21.4605 7.25183 21.5439 8.16965 21.6194C8.73782 21.9134 9.42916 21.826 9.97747 22.1955Z" fill="#4272A4"/>
<path d="M2.04292 23.7845C2.55547 23.7885 3.07199 23.7885 3.58453 23.7925C4.12489 23.8123 4.52222 24.154 4.96325 24.3924C5.32481 24.6426 5.6824 24.8969 5.98437 25.2266C6.27441 25.6835 6.28633 26.0768 5.73008 26.335C4.74075 26.8395 4.18847 25.4411 3.23886 25.759C2.96471 25.759 2.69453 25.759 2.42038 25.759C2.29323 25.3617 2.17006 24.9644 2.04292 24.5672C2.04292 24.305 2.04292 24.0467 2.04292 23.7845Z" fill="#3C6796"/>
<path d="M5.18972 20.221C4.38315 19.4424 2.68261 19.8714 2.51176 18.2387C2.61904 18.2347 2.72234 18.2188 2.82565 18.191C3.73949 18.7392 4.65731 19.2875 5.57115 19.8317C5.67843 20.1893 5.60691 20.372 5.18972 20.221Z" fill="#87A8CA"/>
<path d="M3.23886 25.759C3.12761 25.4729 3.01636 25.1909 2.76207 24.5394C3.83882 25.2942 4.56195 26.0092 5.55129 26.1999C5.69035 26.2397 5.75392 26.3112 5.74995 26.4025C5.742 26.5098 5.72214 26.5654 5.68638 26.5654C5.64267 27.058 5.59499 27.5546 5.55129 28.0472C4.46659 27.6023 4.49043 26.0371 3.23886 25.759Z" fill="#8DA5BF"/>
<path d="M27.9285 36.9381C27.8928 37.0334 27.865 37.1288 27.8411 37.2241C25.4691 37.2241 23.0931 37.2241 20.7211 37.2241C21.4244 36.5766 22.2866 36.9897 23.0693 36.8785C24.6943 36.6084 26.3154 36.4852 27.9285 36.9381Z" fill="#59748C"/>
<path d="M27.9285 36.9381C26.3075 36.9182 24.6904 36.8984 23.0693 36.8825C23.0812 36.7673 23.0891 36.6521 23.0971 36.5369C25.0638 36.6362 27.0505 36.0999 28.9934 36.7633C28.6398 36.8229 28.2861 36.8825 27.9285 36.9381Z" fill="#305679"/>
<path d="M2.80578 7.87393C2.94882 8.01695 3.09185 8.16394 3.23886 8.30696C3.7077 9.08163 2.72234 9.80863 3.16734 10.5833C3.37395 10.7422 3.47726 10.9528 3.52494 11.1991C3.25078 12.3353 3.61632 13.2251 4.56592 13.8886C4.96325 14.2263 5.40825 14.4885 5.84133 14.7745C6.79888 15.4022 7.85974 15.8272 8.87291 16.3477C9.20269 16.5384 9.52452 16.729 9.6755 17.1065C9.6318 17.4402 9.41724 17.615 9.12322 17.7222C6.85451 17.464 4.95133 16.5503 3.6044 14.6434C1.93564 12.7524 0.719831 10.7819 2.40448 8.25928C2.53957 8.13613 2.67069 8.00503 2.80578 7.87393Z" fill="#636467"/>
<path d="M3.6044 14.6474C5.36454 15.7478 6.9737 17.1541 9.14706 17.4362C9.29407 17.5276 9.34175 17.6547 9.28215 17.8215C9.07555 18.1076 8.67425 17.9209 8.44777 18.1552C6.58035 17.7143 4.83213 17.0588 3.59248 15.4816C3.61632 15.2035 3.16734 14.9175 3.6044 14.6474Z" fill="#A6A198"/>
<path d="M8.45175 18.1552C8.71398 18.0241 8.97621 17.8891 9.23448 17.758C10.935 17.2852 12.3098 17.9169 13.5454 19.0253C13.5534 19.1405 13.5534 19.2597 13.5454 19.3749C12.0078 19.5497 10.6609 18.7353 9.19077 18.5485C8.94443 18.4174 8.69809 18.2863 8.45175 18.1552Z" fill="#CEC4BA"/>
<path d="M28.6358 3.92111C30.233 4.7077 32.021 4.62428 33.7136 4.96195C36.026 5.42676 37.9729 6.45568 39.7807 7.87393C39.6973 8.1838 39.5105 8.37449 39.1847 8.42216C37.4723 7.88585 36.022 6.70199 34.2222 6.36829C32.7282 5.9154 31.1906 5.69293 29.6529 5.47443C29.2755 5.39498 28.9099 5.26388 28.5206 5.23607C28.0279 5.19634 27.5392 5.14867 27.0624 5.02949C26.4902 4.83086 25.8426 4.80305 25.3897 4.31838C25.3301 4.09194 25.3857 3.90125 25.5565 3.74234C26.375 3.28548 27.2372 3.34507 28.1113 3.53973C28.3219 3.61124 28.4967 3.74234 28.6358 3.92111Z" fill="#817874"/>
<path d="M39.3834 8.20367C39.5145 8.09243 39.6456 7.98517 39.7767 7.87393C40.7184 8.52148 41.5289 9.30013 42.1488 10.2695C42.0057 10.4204 41.8627 10.5754 41.7197 10.7263C41.5488 10.8058 41.3819 10.7939 41.223 10.6985C40.631 9.85233 39.6258 9.30807 39.3834 8.20367Z" fill="#706D6D"/>
<path d="M28.6358 3.92111C28.5086 3.91317 28.3815 3.90919 28.2544 3.90125C27.9246 3.55562 27.1538 3.50795 27.4677 2.72931C28.2981 2.59026 29.0411 2.95575 29.8198 3.12657C29.6172 3.67878 29.1881 3.8933 28.6358 3.92111Z" fill="#9A9A99"/>
<path d="M27.4716 2.73328C27.7339 3.1226 27.9961 3.51192 28.2583 3.90522C27.3206 3.91714 26.3869 3.93303 25.4492 3.94495C23.9553 4.96593 22.2071 4.12372 20.6416 4.60839C20.0456 4.78318 19.4139 4.80702 18.8259 5.02552C18.6312 5.09305 18.4325 5.1447 18.2339 5.18443C17.3319 5.33936 16.4419 5.67704 15.5003 5.44265C14.8407 5.19237 14.0302 5.3195 13.5295 4.66003C14.05 4.06413 13.3507 3.88138 13.1481 3.52782C17.0498 2.42738 21.1224 3.04712 25.0638 2.33204C25.7711 3.02726 26.669 2.58629 27.4716 2.73328Z" fill="#8A8A89"/>
<path d="M41.3859 10.6032C41.5011 10.6349 41.6124 10.6747 41.7236 10.7223C42.3792 12.0492 41.9422 13.0623 40.8853 13.9799C39.0536 15.5651 37.0074 16.6814 34.6076 17.1025C34.3771 16.2166 35.2512 15.6525 35.2631 14.8341C35.3863 14.5639 35.6048 14.3971 35.879 14.2978C36.2445 14.1865 36.618 14.1706 36.9955 14.2024C37.2696 14.2342 37.5279 14.3176 37.7464 14.4765C38.6563 15.2512 38.704 14.2183 38.8987 13.825C39.1688 13.2887 38.7914 12.4703 39.6138 12.1525C39.9079 12.2002 40.0867 12.6332 40.4641 12.4028C40.9727 12.0651 40.8614 11.4692 41.0521 11.0084C41.1197 10.8415 41.2349 10.7065 41.3859 10.6032Z" fill="#E9BAAA"/>
<path d="M35.3943 15.0287C35.8989 16.01 34.981 16.4549 34.6036 17.1025C33.944 17.3488 33.2884 17.5951 32.6289 17.8414C32.4104 18.048 32.1442 18.1115 31.8501 18.0917C31.4051 18.0281 30.9641 17.9367 30.5032 18.04C29.8715 18.1791 29.0848 18.4453 28.7192 17.7937C28.3537 17.1462 29.1007 16.6536 29.4106 16.1173C29.6529 15.9663 29.9191 15.9266 30.1973 15.9544C30.9879 16.2086 31.7588 15.9067 32.5415 15.8749C33.6778 16.2126 34.2698 14.7109 35.3943 15.0287Z" fill="#EAB1A0"/>
<path d="M31.8303 17.8295C32.0965 17.8335 32.3667 17.8374 32.6329 17.8414C32.8156 18.1711 33.1494 18.2029 33.4712 18.2546C31.6316 18.8505 29.7562 19.2438 27.8213 19.347C27.4597 19.0173 26.7763 19.4623 26.5419 18.8227C26.5697 18.6042 26.681 18.4413 26.8756 18.338C28.5166 18.0877 30.1695 17.9407 31.8303 17.8295Z" fill="#757171"/>
<path d="M13.5295 4.65606C14.197 4.7951 14.9679 4.42564 15.54 5.04935C15.1625 5.59361 14.5348 5.62539 13.9865 5.82006C12.6078 6.13787 11.2251 6.42788 9.89801 6.92446C9.47684 7.08734 9.05965 7.25419 8.65438 7.45283C8.41599 7.57995 8.17759 7.70311 7.9392 7.82626C6.07973 8.50559 4.92749 10.1821 3.27859 11.1554C3.13556 10.9925 2.98855 10.8296 2.84551 10.6667C3.43355 7.88585 5.64664 7.02775 7.99483 6.32459C9.83841 5.77238 11.682 5.21621 13.5295 4.65606Z" fill="#78716F"/>
<path d="M7.99085 6.32856C6.11549 7.58393 3.89047 8.43011 2.84154 10.6707C2.45216 10.039 2.45216 10.039 3.23489 8.30696C4.29177 7.50447 5.19369 6.48747 6.42937 5.92335C6.77902 6.72185 7.57764 5.78827 7.99085 6.32856Z" fill="#878786"/>
<path d="M21.0906 24.154C22.7872 23.9395 24.0189 22.3305 25.8664 22.5768C26.2558 23.1449 25.9896 24.3288 27.5829 24.011C25.3738 23.9871 26.5459 25.3974 26.2717 26.1086C25.4413 26.5019 25.3062 24.9406 24.4321 25.457C24.1937 25.5842 23.9474 25.6875 23.6812 25.747C23.0931 25.8503 22.513 25.8384 21.9488 25.6239C21.4085 25.2942 20.8999 24.9446 21.0946 24.1818L21.0906 24.154Z" fill="#3D6F9F"/>
<path d="M27.0703 26.478C27.4557 25.906 27.8411 25.3339 28.5881 24.2255C28.3457 25.5722 28.6 26.0529 29.4066 26.2953C29.6609 26.3708 29.1523 26.5058 29.0013 26.629C28.314 27.1057 27.6663 27.1335 27.0703 26.478Z" fill="#6094BD"/>
<path d="M24.3487 24.9366C25.8903 23.856 25.4214 26.0688 26.2757 26.1125C26.4028 26.2635 26.526 26.4145 26.6531 26.5654C26.5816 26.633 26.5141 26.6965 26.4426 26.7641C25.9737 26.9865 25.5168 26.9667 25.0678 26.7124C24.5275 26.2397 24.5235 25.5524 24.3487 24.9366Z" fill="#3C516A"/>
<path d="M27.0703 26.478C27.714 26.5297 28.3577 26.5773 28.9973 26.629C29.1444 26.7362 29.2874 26.8435 29.4344 26.9508C29.4265 27.0541 29.4145 27.1613 29.4066 27.2646C28.7748 27.9916 28.0557 27.5586 27.3564 27.4235C26.9909 27.2408 26.522 27.1335 26.6651 26.5456L26.6492 26.5654C26.7922 26.5376 26.9313 26.5058 27.0703 26.478Z" fill="#264364"/>
<path d="M16.7042 21.8061C16.434 22.0326 16.1598 22.2551 15.8896 22.4815C16.4658 23.1529 16.0168 23.4389 15.4248 23.5104C14.8963 23.574 14.5586 23.1251 14.4871 22.6762C14.3997 22.124 14.8447 21.8856 15.3413 21.8061C15.536 21.7744 15.7347 21.7863 15.9294 21.7783C16.1916 21.7863 16.4499 21.7982 16.7042 21.8061Z" fill="#5386B7"/>
<path d="M27.4279 27.0143C28.0875 27.0978 28.747 27.1772 29.4066 27.2606C30.4317 27.5983 31.4528 28.1148 32.5097 27.352C33.0779 27.4394 33.7414 27.1136 34.1904 27.7374C32.5494 28.5359 30.6582 27.6738 29.0212 28.512C28.8106 28.802 28.5007 28.9212 28.1669 28.9848C26.7922 28.8497 25.338 29.0325 24.2017 27.9678C24.4202 27.1931 25.1671 27.3083 25.7035 27.07C26.2717 26.8395 26.8637 27.3401 27.4279 27.0143Z" fill="#7C8EA3"/>
<path d="M36.1492 24.8969C35.875 25.5802 35.6009 26.2635 35.3227 26.9468C33.8964 26.331 34.8102 25.4014 35.0089 24.5711C35.3982 24.4281 35.7836 24.2891 36.173 24.1461C36.1651 24.3963 36.1571 24.6466 36.1492 24.8969Z" fill="#8E96A1"/>
<path d="M26.5578 18.9339C26.9909 19.0292 27.4955 18.9101 27.8213 19.3431C23.0415 20.1336 18.2895 19.6688 13.5454 19.0213C12.1071 18.6002 10.6728 18.1791 9.23448 17.754C9.20666 17.6467 9.17885 17.5395 9.15104 17.4282C9.29407 17.313 9.43314 17.1978 9.57617 17.0826C10.4066 16.4152 11.2449 17.0032 12.0793 17.0628C14.4195 17.7778 16.8631 17.8811 19.2669 18.2347C20.8761 18.6479 22.513 18.3579 24.1301 18.4532C24.9605 18.5048 25.8426 18.2983 26.5578 18.9339Z" fill="#63696C"/>
<path d="M31.8144 31.3287C30.9323 32.596 29.4463 33.1958 28.5047 34.475C27.8094 35.4205 27.0385 34.6419 26.669 33.7441C26.4068 33.3865 26.4982 32.9932 26.5578 32.6039C26.8041 31.3724 27.5511 30.701 28.8027 30.5977C29.7403 30.6176 30.2807 32.0557 31.429 31.3326C31.5601 31.3287 31.6872 31.3287 31.8144 31.3287Z" fill="#497FB2"/>
<path d="M31.4329 31.3287C30.4198 32.437 29.7086 31.7855 29.0331 30.9155C29.2556 29.5171 30.4198 29.4099 31.4647 29.1397C31.8144 29.2033 32.3468 29.0205 32.2316 29.7078C31.8779 30.0773 31.5283 30.4507 31.1667 30.8122C30.686 31.2889 31.1389 31.2651 31.4329 31.3287Z" fill="#4477A9"/>
<path d="M32.2316 29.7078C32.0528 29.3979 31.7548 29.3344 31.4329 29.3145C31.3932 29.247 31.3575 29.1834 31.3177 29.1159C31.3455 29.0444 31.3733 28.9729 31.3972 28.9014C32.8156 28.7941 33.5507 29.9859 34.5956 30.5897C34.5996 30.705 34.5996 30.8202 34.5996 30.9354C33.654 30.8321 33.0858 29.9978 32.2316 29.7078Z" fill="#3A5C84"/>
<path d="M28.2702 28.5677C28.5206 28.5478 28.7748 28.5319 29.0252 28.512C29.8039 28.7266 30.7098 28.1704 31.4012 28.9014L31.4528 28.9808C29.3033 30.0773 27.4041 31.6981 24.9248 32.0994C24.8294 32.0914 24.738 32.0835 24.6427 32.0755C23.9831 32.2066 23.3236 32.3338 22.668 32.4649C21.7581 32.0318 20.8602 32.5284 19.9543 32.5364C18.4921 32.5483 17.8127 32.0835 18.1703 30.558C18.1464 30.3673 18.1782 30.1885 18.2577 30.0137C18.6391 29.5807 19.096 29.2668 19.6444 29.0801C20.741 29.1715 21.8416 28.9212 22.9382 29.1119C23.7328 30.2004 24.8175 29.6443 26.1525 29.6681C25.5367 29.4258 24.8731 29.7038 25.04 28.9808C26.0055 27.9717 27.261 29.2271 28.2702 28.5677Z" fill="#C7CDD3"/>
<path d="M27.0505 32.9138C26.9233 33.1879 26.7962 33.466 26.669 33.7441C25.7353 33.7639 25.4214 32.7946 24.6824 32.5046C24.6705 32.3655 24.6546 32.2265 24.6427 32.0835L24.6506 32.0795C25.628 31.8491 26.4863 31.9603 27.0505 32.9138Z" fill="#465D78"/>
<path d="M28.7709 35.7026C29.204 34.769 29.7125 34.4552 30.5827 34.3439C30.2688 35.2696 29.6291 35.3927 28.7709 35.7026Z" fill="#618CB6"/>
<path d="M18.2895 30.5103C18.5358 32.3814 19.8708 32.2384 21.2257 32.1232C21.7224 32.0795 22.2746 32.0001 22.668 32.4688C20.8562 33.0171 18.9808 32.8979 17.1253 32.9535C16.2035 32.739 15.2857 32.5284 14.3639 32.3139C14.2964 32.1351 14.3242 31.9683 14.4394 31.8173C14.7096 31.5313 15.0513 31.4399 15.4288 31.4598C15.7228 31.432 15.981 31.6584 16.283 31.5829C16.0287 31.4042 15.7267 31.3009 15.5281 31.0426C15.3731 30.7407 15.4923 30.5262 15.7387 30.3434C15.9055 30.268 16.0764 30.2203 16.2592 30.2044C16.9267 30.3673 17.6697 30.0455 18.2895 30.5103Z" fill="#D3DAE0"/>
<path d="M19.5887 34.4989C18.5358 35.2696 18.3729 34.0857 17.8445 33.7043C18.5994 33.5891 19.402 33.3706 19.5887 34.4989Z" fill="#A3AEB6"/>
<path d="M14.3321 32.1709L14.3639 32.3139C13.9587 32.2622 13.5494 32.2106 13.1441 32.159C12.9812 32.0358 12.8144 31.9127 12.6515 31.7895C12.0952 30.8996 10.7761 31.2095 10.2596 30.26C10.3788 30.0018 10.5297 29.8627 10.788 30.117C10.7046 29.9422 10.5417 29.8906 10.3668 29.8627C9.86622 29.7873 9.42916 29.5569 8.98814 29.3304C8.62657 29.0881 8.26103 28.8418 8.01469 28.4683C8.03058 28.1863 7.98291 27.8724 8.36831 27.7811C9.19077 28.0909 9.89006 27.2527 10.7125 27.5348C11.0542 27.6698 11.3165 27.9201 11.5986 28.1465C12.6157 28.8219 13.9626 28.2657 14.948 29.0523C15.2102 29.5171 15.2221 30.0097 15.1347 30.5143C15.0155 31.138 14.6262 31.6306 14.3321 32.1709Z" fill="#C6CDD4"/>
<path d="M10.3668 30.1766C10.9748 30.9314 12.5005 30.3911 12.6515 31.7895C11.5509 31.5591 10.5774 31.0267 9.61193 30.4785C9.47684 30.1448 9.67948 30.0217 9.94568 29.9343C10.1285 29.9343 10.2675 30.0177 10.3668 30.1766Z" fill="#D2D8DF"/>
<path d="M10.0132 30.0773C9.87814 30.2123 9.74702 30.3434 9.61193 30.4785C9.23448 30.3315 8.85702 30.1806 8.47956 30.0336C8.45969 29.8071 8.4438 29.5847 8.42393 29.3622C8.61862 29.0881 8.88086 29.1278 9.15104 29.1993C9.41724 29.5092 10.0887 29.4297 10.0132 30.0773Z" fill="#A3B2C3"/>
<path d="M5.68638 26.5654C5.63472 26.4462 5.59102 26.3231 5.55129 26.1999C5.99231 25.898 6.00423 25.6001 5.53937 25.3101C5.24137 24.6983 5.03477 24.0785 5.42017 23.423C5.64664 23.1569 5.94066 23.0456 6.27839 23.0337C6.91808 23.129 7.51406 23.3197 7.99085 23.7845C8.65041 25.3259 7.68491 26.486 5.68638 26.5654Z" fill="#3971A3"/>
<path d="M15.9691 25.6994C15.9612 25.457 15.9572 25.2147 15.9492 24.9684C16.4578 24.6466 16.9743 24.5513 17.5107 24.9088C18.1941 24.3963 18.9371 24.4083 19.7119 24.6426C20.0417 24.7698 20.2801 25.0002 20.4231 25.3259C20.4668 25.5683 20.3953 25.7709 20.2165 25.9377C20.0258 26.0688 19.8152 26.1602 19.5887 26.2119C18.357 26.1999 17.0578 26.6925 15.9691 25.6994Z" fill="#3D5670"/>
<path d="M7.99483 23.7845C7.46241 23.6495 6.93397 23.5104 6.40156 23.3754C5.30495 23.141 4.20039 22.9225 3.62824 21.7823C3.5011 20.67 3.91431 20.7891 4.65731 21.2659C5.71022 21.9412 6.56446 23.0377 7.9988 22.9821C7.99483 23.2482 7.99483 23.5144 7.99483 23.7845Z" fill="#A3B3C9"/>
<path d="M8.39215 22.9781C8.92456 22.843 9.453 22.7079 9.98542 22.5729C10.6807 22.5371 11.3522 22.5967 11.9641 22.9741C11.9561 23.3038 11.8886 23.6018 11.5588 23.7647C11.2092 23.4945 10.6609 23.8243 10.3708 23.3714C9.49274 24.3328 8.81729 24.2772 8.39215 22.9781Z" fill="#396DA2"/>
<path d="M19.9344 25.0836C19.1239 25.024 18.3173 24.9684 17.5068 24.9088C17.5107 24.73 17.5147 24.5513 17.5187 24.3765C18.0829 23.8123 18.5358 23.0456 19.5331 23.2641C19.9423 23.8084 21.2217 24.1659 19.9344 25.0836Z" fill="#9DA8B6"/>
<path d="M5.18972 20.221C5.31686 20.0899 5.44401 19.9588 5.57115 19.8317C7.03728 20.4872 8.49943 21.1427 9.96555 21.7982C9.96952 21.9293 9.9735 22.0644 9.98144 22.1955C9.31394 22.0763 8.54711 22.4378 7.98291 21.7942C7.10879 21.5598 6.22276 21.3493 5.60294 20.6024C5.46387 20.4753 5.32481 20.3482 5.18972 20.221Z" fill="#6592BF"/>
<path d="M19.9344 25.0836C20.737 24.2732 19.5212 23.9355 19.5212 23.3158C19.5132 23.2284 19.5053 23.141 19.4973 23.0536C20.3913 22.9185 20.4032 24.0308 21.0946 24.1858C21.3687 24.5711 21.6389 24.9565 21.9131 25.3418C21.3846 25.8662 20.8443 25.7709 20.3039 25.3657C20.1807 25.2703 20.0576 25.179 19.9344 25.0836Z" fill="#355980"/>
<path d="M11.9601 22.9781C12.9018 22.1001 13.2157 22.994 13.8474 23.4945C12.8501 24.0269 12.5362 23.137 11.9601 22.9781Z" fill="#638FBA"/>
<path d="M19.5013 23.0536C19.5093 23.141 19.5132 23.2284 19.5252 23.3158C18.663 23.3038 18.2776 24.1858 17.5187 24.3765C17.8127 23.3833 18.4524 22.9145 19.5013 23.0536Z" fill="#32547B"/>
<path d="M10.3668 23.3754C10.8118 23.3595 11.2727 23.2959 11.5548 23.7687C11.0423 23.9991 10.4622 24.4202 10.3668 23.3754Z" fill="#618FB9"/>
<path d="M14.7136 28.9689C13.4699 29.3344 12.3058 29.0285 11.1575 28.5677C11.686 27.936 11.3403 27.7811 10.7244 27.7691C9.94171 27.8009 9.15898 28.5677 8.37228 27.7811C10.1563 26.5058 12.2899 26.2754 14.3401 25.7868C14.4752 25.9218 14.5944 26.0728 14.6977 26.2317C14.7811 26.4065 14.8447 26.5893 14.8924 26.776C15.0354 27.5228 15.4327 28.2896 14.7136 28.9689Z" fill="#8D9EAF"/>
<path d="M14.356 26.1602C14.352 26.0331 14.3441 25.9099 14.3361 25.7868C14.8804 25.759 15.4248 25.7312 15.9691 25.6994C17.2843 25.7351 18.6034 25.7669 19.9185 25.8027C20.8204 25.894 21.7184 25.6835 22.6203 25.759C23.1329 25.7629 23.6454 25.747 24.1579 25.7947C24.6188 25.8503 24.8294 26.2397 25.1234 26.5138C25.64 26.5217 26.1565 26.5336 26.673 26.5416C26.9273 26.7005 27.1816 26.8554 27.4319 27.0143C26.9869 27.5189 26.379 27.2845 25.8386 27.3639C23.7566 27.8208 21.7065 27.4513 19.6563 27.1216C19.4377 27.1176 19.2232 27.1137 19.0047 27.1057C18.0312 27.062 17.0578 27.1375 16.0883 27.0064C15.4208 26.8952 14.8487 26.6131 14.356 26.1602Z" fill="#7D92A6"/>
<path d="M9.17885 29.4218C8.92854 29.4019 8.67425 29.3781 8.42393 29.3582C8.06237 29.1636 7.99085 28.8378 8.01469 28.4683C8.39215 28.6431 8.76961 28.8219 9.14309 28.9967C9.27023 29.0801 9.31394 29.1755 9.28215 29.2708C9.25434 29.3741 9.21858 29.4218 9.17885 29.4218Z" fill="#345172"/>
<path d="M3.62824 21.7783C4.72883 22.0008 5.37249 23.0218 6.40156 23.3714C6.13932 23.3714 5.87312 23.3714 5.61088 23.3714C5.24932 23.725 5.47182 24.4917 4.74472 24.587C4.19641 24.5552 3.83087 24.2613 3.58453 23.7885C3.74744 23.1251 2.74618 22.4338 3.62824 21.7783Z" fill="#527BA5"/>
<path d="M5.60294 20.6024C6.51678 20.7613 7.33527 21.103 7.98291 21.7942C6.7075 22.3544 5.94861 21.8896 5.60294 20.6024Z" fill="#437AAF"/>
<path d="M4.74472 24.591C5.03476 24.1858 5.32084 23.7806 5.61088 23.3754C5.58704 24.0229 5.56321 24.6665 5.53937 25.314C5.27713 25.0717 5.01093 24.8294 4.74472 24.591Z" fill="#839FBC"/>
<path d="M11.8528 17.464C11.0939 17.3408 10.3351 17.2137 9.57617 17.0906C9.30997 16.9396 9.04773 16.7886 8.78153 16.6377C8.68617 16.5543 8.64246 16.4549 8.64644 16.3516C8.65041 16.2404 8.6663 16.1848 8.69014 16.1848C9.32983 15.7399 9.40532 15.1519 9.11925 14.4726C8.86099 13.384 9.41724 12.8477 10.4066 12.7762C11.2926 12.7127 12.2025 12.4505 13.0806 12.8398C13.7282 13.7297 14.4315 14.552 15.5956 14.7785C16.1241 15.0446 16.6803 15.287 16.8353 15.9504C16.6485 16.5622 16.1439 16.6178 15.6234 16.6536C15.0195 16.6456 14.4752 16.4192 13.9308 16.2047C13.0607 15.8431 12.0952 15.7399 11.3165 15.1281C10.9906 16.3159 12.5362 16.4907 12.3773 17.5037C12.1945 17.5752 12.0197 17.5593 11.8528 17.464Z" fill="#F6CCBD"/>
<path d="M3.27859 11.1593C4.47057 9.44314 5.93272 8.06859 7.97893 7.42502C7.98688 9.01409 6.45321 9.35177 5.60294 10.2099C4.54606 11.2746 3.83087 12.2518 4.63347 13.7456C4.6136 13.9363 4.54208 14.1071 4.41097 14.2501C3.12761 13.5509 2.63493 12.5657 3.27859 11.1593Z" fill="#E6C8BA"/>
<path d="M8.7855 16.2245C8.7855 16.3596 8.78153 16.4986 8.78153 16.6337C7.55777 16.4152 6.50884 15.8392 5.57512 15.0407C5.71022 14.8897 5.88106 14.7944 6.07575 14.7387C7.20813 14.8102 8.20541 15.132 8.7855 16.2245Z" fill="#E4C8BA"/>
<path d="M5.99629 15.0129C5.85325 15.0208 5.71419 15.0327 5.57115 15.0407C5.10628 14.8937 4.70101 14.6593 4.41494 14.2461C4.42289 14.1071 4.42686 13.9641 4.43481 13.825C4.59374 13.7376 4.76459 13.7098 4.94735 13.7416C5.50758 13.9919 6.187 14.1428 5.99629 15.0129Z" fill="#F6CCBD"/>
<path d="M40.5555 12.6451C40.3568 12.8001 40.1542 12.955 39.9555 13.1099C39.888 12.8199 39.8165 12.5299 39.7489 12.2399C39.5264 12.3511 39.5145 11.652 39.2284 12.0929C38.9424 12.5299 39.6297 13.4516 38.5331 13.4953C38.4099 12.5418 37.6312 13.1616 37.2021 12.9391C36.8842 12.4187 36.9001 11.8744 37.063 11.3143C37.8298 10.5595 37.1107 9.89206 36.9279 9.19684C37.369 8.0527 36.169 7.99709 35.9068 7.62763C36.181 7.94147 37.0114 8.1123 37.0829 8.94656C36.9319 9.16506 36.8485 9.43917 36.5942 9.57424C36.316 9.62191 36.0618 9.55041 35.8591 9.36766C35.6644 9.19287 35.4936 8.98629 35.3347 8.77573C35.3426 9.03793 35.6525 9.23259 35.5135 9.53452C34.9334 9.92781 35.2472 11.9459 33.6738 10.5515C33.5944 9.96357 33.4355 9.40342 33.0024 8.96245C32.6607 8.50956 32.0528 8.21956 32.1243 7.52434C31.8422 6.59473 31.0555 7.15488 30.5112 6.99597C30.3324 6.99994 30.1575 6.98008 29.9827 6.9483C28.4808 6.26897 26.9193 6.20143 25.3181 6.4676C24.6188 6.51925 23.9474 6.36034 23.2679 6.2213C22.3938 5.93526 21.476 6.14582 20.5979 5.97102C19.9384 5.83595 19.0364 5.75649 19.7715 4.68387C20.729 4.17536 21.7939 4.39386 22.8031 4.25879C22.9938 4.19523 23.1925 4.16742 23.3951 4.16742C23.8639 4.34222 24.3765 4.29057 24.8533 4.43756C26.081 4.77921 27.3206 5.04935 28.608 4.82688C28.9258 4.77127 29.2159 4.81497 29.4463 5.06525C31.1151 5.62142 32.8117 6.01472 34.5837 5.98294C36.2922 6.48747 37.8736 7.27803 39.3874 8.20764C40.1145 8.95848 41.08 9.51068 41.3899 10.6071C41.3779 10.7541 41.37 10.9011 41.3581 11.0441C40.7502 11.4096 41.1396 12.2717 40.5555 12.6451Z" fill="#F3C2B3"/>
<path d="M34.5837 5.97896C32.7123 6.555 31.0118 6.18157 29.4463 5.06127C31.2065 5.09703 32.9229 5.38306 34.5837 5.97896Z" fill="#F2D5C9"/>
<path d="M23.4507 4.36605L23.2838 4.34619L23.117 4.36605C22.1793 4.53291 21.2456 4.664 20.3238 4.29454C21.9806 3.43247 23.7447 4.09194 25.4492 3.94097C25.4532 4.03632 25.4532 4.12769 25.4453 4.22304C24.8135 4.75935 24.1262 4.48921 23.4507 4.36605Z" fill="#696766"/>
<path d="M28.608 4.82291C27.2928 5.24402 25.9856 5.34731 24.6904 4.75935C25.4731 4.3303 26.2757 4.46934 27.0822 4.66003C27.5908 4.71565 28.0994 4.76729 28.608 4.82291Z" fill="#F6D0C1"/>
<path d="M27.0822 4.66003C26.2836 4.69181 25.485 4.72359 24.6904 4.75935C24.2652 4.67195 23.7805 4.76332 23.4547 4.36605C24.1182 4.31838 24.7817 4.27071 25.4453 4.22304C25.9976 4.33824 26.6214 4.19523 27.0822 4.66003Z" fill="#B9A49D"/>
<path d="M19.9106 4.73154C19.6285 5.35922 19.9066 5.46649 20.5026 5.51813C21.4999 5.60553 22.5845 5.11292 23.4904 5.90348C23.6096 6.61856 23.0335 6.2213 22.7077 6.3802C24.154 6.35239 25.5764 6.21732 26.379 7.71503C26.3273 8.14408 26.0214 8.33874 25.6638 8.48573C24.738 8.52545 24.2334 9.60205 23.2163 9.41534C24.0308 9.68945 24.5831 9.02601 25.2903 8.92272C25.8347 9.14917 26.4068 9.31602 26.8677 9.71329C27.0822 10.1662 27.0743 10.6032 26.7922 11.0282C25.5843 11.1117 24.3566 10.9647 23.1607 11.2309C21.6429 11.5725 21.1502 12.7643 21.8535 14.2858C22.1713 14.6553 22.5726 14.997 22.2667 15.5651C21.778 15.9822 21.178 16.1292 20.5701 16.2642C19.7556 16.3238 18.9173 16.4947 18.2736 15.7756C18.1623 15.136 18.7265 15.1122 19.0682 14.8976C18.7901 13.9521 17.7968 13.543 17.4273 12.6769C17.3876 12.1525 17.8802 11.7513 17.769 11.207C18.0034 10.4443 18.5239 10.0271 19.6006 9.87617C16.9942 10.0708 15.3056 11.4732 13.5852 12.808C13.3984 12.8358 13.2196 12.8001 13.0567 12.7087C12.6634 12.1247 12.2104 11.7354 11.4198 11.9857C10.9827 12.1247 10.4622 12.1764 10.2635 11.5884C10.0887 11.0719 10.4225 10.7065 10.7801 10.4045C12.0038 9.37958 13.4858 8.7956 14.8844 8.06859C15.5638 7.59187 16.5571 7.65146 17.022 6.80925C17.2564 6.38815 17.614 6.16965 18.0868 6.12992C18.7822 6.47952 19.5609 6.67021 20.0854 7.08337C19.7318 6.5987 18.9172 6.63446 18.4166 6.16171C17.9955 5.76444 17.3597 5.3632 18.2895 4.82688C18.4285 4.78318 18.5716 4.73948 18.7106 4.69579C19.1199 4.45345 19.5212 4.41372 19.9106 4.73154Z" fill="#F6C9BC"/>
<path d="M18.2895 4.82291C17.8484 5.99883 18.8457 6.01074 19.4894 6.36431C20.2801 6.80131 21.3608 7.1072 20.8482 8.80751C20.1569 7.33365 19.0762 6.76158 17.908 6.3087C15.3135 7.11515 13.0567 8.63272 10.6211 9.77288C10.0887 10.0232 9.61591 10.4125 8.98019 10.3529C8.09018 9.44712 8.9643 9.01012 9.48479 8.49367C9.9735 8.009 10.8714 7.97722 11.0185 7.11118C11.0185 6.93638 11.0661 6.77747 11.1496 6.62651C11.9323 5.89156 13.1084 6.05842 13.9308 5.41484C14.4672 5.29169 14.9996 5.17251 15.536 5.04935C16.4578 4.97387 17.3756 4.89839 18.2895 4.82291Z" fill="#EAAD9E"/>
<path d="M19.9106 4.73154C19.5093 4.71565 19.1119 4.70373 18.7106 4.68784C19.1477 4.14755 19.7675 4.35016 20.3198 4.29057C21.2495 4.31441 22.1832 4.33824 23.113 4.36208C22.1078 5.03744 20.9754 4.59647 19.9106 4.73154Z" fill="#B9A49D"/>
<path d="M33.8129 10.2695C34.0394 10.6389 34.3135 11.1752 34.5758 10.3529C34.7228 9.88808 34.8022 9.50671 35.3664 9.48287C37.7583 10.778 37.9332 12.9113 35.7836 14.6354C35.6525 14.7665 35.5254 14.8976 35.3943 15.0287C34.389 15.2274 34.0513 16.9912 32.6249 16.2126C32.4302 15.7955 32.6448 15.4896 32.8951 15.2075C33.1454 15.2313 32.7759 15.1479 33.0342 15.1002C33.2368 15.0605 33.205 14.9731 33.0262 15.0446C30.3085 16.1173 27.5471 16.7132 24.6387 15.9226C23.9474 15.7359 23.2083 15.5929 22.9461 14.7626C23.1964 12.9947 24.8453 13.6264 25.8148 13.0901C25.9578 12.9908 26.1168 12.9153 26.2797 12.8557C26.6412 12.7683 26.9432 12.8676 27.2014 13.1258C27.9405 13.4079 28.8106 12.7127 29.4861 13.4277C29.7801 13.9283 29.641 14.3375 28.9497 14.7705C29.8715 14.4487 29.7801 13.7972 29.9668 13.3006C30.1734 12.9471 30.4674 12.7802 30.8807 12.8358C31.5998 12.816 31.3137 13.8608 31.9971 13.8767C32.9626 13.2768 34.7148 13.0503 33.1494 11.3262C31.8223 10.0827 30.0344 9.2167 29.7403 7.13899C29.8556 6.98405 30.0065 6.90063 30.2052 6.9046C31.5005 7.07145 32.1283 8.21558 33.0858 8.87505C33.3997 9.3041 33.8248 9.67356 33.8129 10.2695Z" fill="#F6CABD"/>
<path d="M35.7836 14.6354C37.4166 11.8824 37.4166 11.8824 35.3664 9.48287C35.2115 8.77573 34.3255 8.73998 33.9321 7.97722C35.3466 7.8064 35.6962 9.12533 36.5783 9.49082C37.2219 9.82055 37.6749 10.2456 37.3968 11.0561C37.4007 11.7195 37.4007 12.3829 37.4047 13.0464C37.9014 13.7376 37.4127 14.1746 36.9994 14.6354C36.5942 14.6354 36.1889 14.6354 35.7836 14.6354Z" fill="#E6A99A"/>
<path d="M38.5967 13.4675C39.5225 12.5498 38.5093 11.5367 38.6881 10.5356C39.6178 10.8018 39.2999 11.7552 39.745 12.2399C39.1331 13.3125 39.8443 15.2115 37.7861 15.3744C37.6034 15.3903 37.218 15.5333 37.4087 15.0764C37.4762 14.9135 37.667 14.8023 37.802 14.6672C37.8497 14.123 38.1239 13.7297 38.5967 13.4675Z" fill="#E2A694"/>
<path d="M38.5967 13.4675C38.5808 14.0316 38.2907 14.413 37.806 14.6633C37.5358 14.6553 37.2696 14.6434 36.9994 14.6315C37.1345 14.1031 37.2696 13.5747 37.4047 13.0424C37.6193 12.6054 37.8299 12.1644 38.0484 11.7155C38.8152 12.1406 38.4894 12.8716 38.5967 13.4675Z" fill="#F7CEC0"/>
<path d="M40.5555 12.6451C40.9767 12.1883 39.741 10.9011 41.3581 11.0402C41.08 11.5725 41.9779 12.6888 40.5555 12.6451Z" fill="#E9AA99"/>
<path d="M11.8528 17.464C12.0118 17.4441 12.1667 17.4282 12.3257 17.4084C12.4647 17.2773 12.6236 17.178 12.8104 17.1462C13.021 17.1104 13.903 17.4878 13.013 16.7966C12.8978 16.7052 12.9773 16.439 13.0488 16.2603C13.7679 15.8551 14.2725 16.3437 14.7096 16.7569C15.2301 17.2495 15.8142 17.313 16.4578 17.2813C17.2604 17.2217 17.6538 16.5225 18.2378 16.1292C19.0802 16.0736 19.9066 16.594 20.7608 16.1888C21.4442 15.8193 22.1872 15.7915 22.9382 15.7994C23.1329 15.8193 23.3196 15.863 23.5063 15.9146C24.3209 16.2325 25.187 16.4073 25.9538 16.8443C26.1962 17.0429 26.3671 17.2813 26.3631 17.607C25.3777 18.3976 24.2851 17.5037 23.2679 17.8096C23.0812 17.8096 22.8945 17.8096 22.7077 17.8096C22.1078 17.8215 21.4999 17.7858 20.9198 17.8255C22.1276 17.8017 23.3116 17.8176 24.4996 17.8176C25.2069 17.6626 26.1207 18.5605 26.6174 17.3885C27.0942 15.8988 28.1272 15.7994 29.3947 16.2682C30.0741 16.9793 28.7987 17.0985 28.9576 17.6587C29.8913 18.2347 30.9323 16.741 31.8223 17.8255C30.1734 18.4572 28.4371 18.5326 26.7048 18.6637C24.154 18.8822 21.6071 18.8743 19.0563 18.6717C16.6167 18.5207 14.1772 18.334 11.8528 17.464Z" fill="#F0C8B9"/>
<path d="M29.4026 16.2682C28.302 16.2841 27.0743 16.0974 27.0465 17.7818C26.6015 18.0678 26.4545 17.6745 26.2479 17.4282C26.1128 17.2971 25.9777 17.1621 25.8466 17.031C25.0797 16.6933 24.3566 16.2364 23.4825 16.2205C23.3554 16.2166 23.2322 16.2126 23.105 16.2126C22.8587 15.9266 22.4375 15.8233 22.2945 15.43C22.0362 15.1598 21.778 14.8857 21.5237 14.6156C21.4045 14.2461 21.6349 14.0952 21.925 13.9839C22.4773 13.9164 22.8945 14.0793 23.0733 14.6513C26.3273 16.6854 29.5973 15.7081 32.8752 14.7189C33.3997 14.56 33.797 13.98 34.4804 14.2263C34.3016 15.0446 33.5229 15.0724 33.0183 15.434C32.164 15.9027 31.3654 16.5662 30.2767 16.2484C29.9827 16.2563 29.6927 16.2603 29.4026 16.2682Z" fill="#E4A293"/>
<path d="M30.2728 16.2484C31.1866 15.9782 32.1004 15.7041 33.0143 15.434C32.8832 15.6922 32.756 15.9544 32.6249 16.2126C31.8422 16.1729 31.0714 17.1382 30.2728 16.2484Z" fill="#F0C8B9"/>
<path d="M19.0643 18.6757C21.6111 18.6717 24.1619 18.6717 26.7127 18.6677C26.669 18.7631 26.6174 18.8505 26.5578 18.9339C24.0586 18.918 21.5436 19.2716 19.0643 18.6757Z" fill="#AAA8A2"/>
<path d="M4.80432 13.8409C4.68115 13.8409 4.55798 13.833 4.43083 13.825C3.12364 12.5021 3.63221 11.3659 4.80034 10.3052C5.85722 9.34383 6.91808 8.38641 7.97496 7.42502C8.11005 7.32968 8.24911 7.2383 8.3842 7.14296C9.04773 7.30981 9.53644 6.7298 10.1602 6.72583C10.5456 6.70199 10.9032 6.76555 11.1655 7.08337L11.1615 7.08734C10.4145 8.70422 8.63054 9.10547 7.44652 10.2297C6.38566 11.2348 5.27316 12.1128 5.01092 13.6502C4.94735 13.7138 4.87584 13.7773 4.80432 13.8409Z" fill="#F0B7A7"/>
<path d="M11.1694 7.08734C10.7721 7.08734 10.3788 7.08734 9.98144 7.08734C9.83046 6.93638 9.57617 6.89268 9.50863 6.65035C10.9072 5.96704 12.3892 5.58567 13.9348 5.41881C13.3388 6.5113 11.8369 6.10609 11.1694 7.08734Z" fill="#EBC1B2"/>
<path d="M9.50863 6.64637C9.66756 6.79336 9.82251 6.93638 9.98144 7.08337C9.44108 6.83706 8.9643 8.33079 8.38818 7.14296C8.76166 6.98008 9.13514 6.81323 9.50863 6.64637Z" fill="#F4D8CA"/>
<path d="M24.2454 26.1324C23.7487 26.1245 23.2521 26.1165 22.7594 26.1086C21.9886 25.6795 21.0588 26.2675 20.3079 25.7232C20.3079 25.604 20.3079 25.4809 20.3079 25.3617C20.8443 25.3538 21.3807 25.3458 21.917 25.3379C22.5687 25.3577 23.2163 25.3816 23.8639 25.4014C24.1659 25.5564 24.4917 25.6954 24.2454 26.1324Z" fill="#3C5570"/>
<path d="M24.2454 26.1324C24.1182 25.8901 23.9911 25.6438 23.8639 25.4014C24.0229 25.2465 24.1858 25.0916 24.3447 24.9366C24.9804 25.2783 25.0519 25.898 25.1195 26.5177C24.8294 26.3866 24.5354 26.2595 24.2454 26.1324Z" fill="#6C7886"/>
<path d="M28.2702 28.5677C27.3405 29.4456 25.9697 28.4246 25.044 29.3105C24.4003 29.8985 23.7487 29.8588 23.0891 29.3384C21.925 29.4496 20.7608 29.9462 19.5927 29.3622C18.3054 28.8894 17.0141 29.5052 15.7228 29.3503C15.1625 28.8775 15.091 28.2816 15.2897 27.6182C16.573 26.2794 18.214 27.3123 19.6483 26.9587C21.178 27.2686 22.8229 26.911 24.2533 27.7731C25.5406 28.2657 26.9074 28.4087 28.2702 28.5677Z" fill="#9BABBA"/>
<path d="M24.2454 27.7691C22.668 27.6222 21.1144 27.1812 19.5093 27.3441C19.2748 27.0819 19.2748 26.8197 19.5132 26.5575C21.6191 26.8276 23.7288 27.0938 25.8347 27.3639C25.4214 27.9519 24.7817 27.6619 24.2454 27.7691Z" fill="#6B8198"/>
<path d="M27.0505 32.9138C26.2518 32.6357 25.4532 32.3576 24.6506 32.0795C26.9154 31.0506 29.1841 30.0177 31.4528 28.9888C31.4449 29.1 31.4369 29.2112 31.4329 29.3225C30.6343 29.8548 29.8357 30.3871 29.0331 30.9195C27.9484 31.1578 26.9273 31.4677 27.0505 32.9138Z" fill="#4D6F94"/>
<path d="M15.9771 29.2986C17.1929 28.5796 18.4087 28.1227 19.5887 29.3622C19.3623 29.8667 18.949 30.113 18.4285 30.2123C17.7213 30.0892 16.6843 30.1686 16.3346 30.3752C16.2035 30.3752 16.0724 30.3792 15.9413 30.3792C15.5519 30.0018 15.0553 29.6284 15.9771 29.2986Z" fill="#5B7289"/>
<path d="M23.0852 29.3384C23.7368 29.3304 24.3884 29.3225 25.04 29.3105C25.4294 29.3304 25.8188 29.3503 26.2717 29.3741C24.5036 30.7328 23.4587 30.705 23.0852 29.3384Z" fill="#D6DBDF"/>
<path d="M16.3346 30.3713C17.4432 29.0126 17.4869 29.0086 18.4285 30.2084C18.3809 30.3077 18.3332 30.407 18.2895 30.5063C17.6339 30.5063 16.9267 31.2691 16.3346 30.3713Z" fill="#6D88A0"/>
<path d="M15.9771 29.2986C15.4446 29.6403 16.0367 30.0217 15.9413 30.3792C15.7744 30.55 15.6075 30.7248 15.4446 30.8956C15.3175 31.0029 15.1824 31.0267 15.0275 30.9592C14.9281 30.84 14.8566 30.701 14.8208 30.55C14.7851 30.0217 14.7493 29.4933 14.7136 28.9689C14.9559 28.1028 14.4434 27.356 14.3361 26.5416C15.6513 26.0529 15.3175 27.1295 15.4764 27.7413C15.5162 28.3015 15.6075 28.8418 15.9771 29.2986Z" fill="#68798C"/>
<path d="M15.1824 30.983C15.2658 30.9354 15.3533 30.9036 15.4446 30.8917C16.1757 31.1102 16.9068 31.3287 17.6379 31.5591C17.6657 31.567 17.6617 31.6663 17.6975 31.8372C16.7836 32.3933 15.9135 32.0716 15.0433 31.6663C14.9003 31.4002 14.9122 31.1658 15.1824 30.983Z" fill="#C7CDD3"/>
<path d="M15.1824 30.983C15.1347 31.2095 15.0871 31.4399 15.0433 31.6663C14.8089 31.8332 14.5705 32.0001 14.3361 32.1669C14.3043 31.567 14.3957 31.0069 14.8248 30.546C14.94 30.693 15.0592 30.84 15.1824 30.983Z" fill="#5F6E82"/>
<path d="M10.7205 27.7652C11.229 27.3083 11.8807 26.8594 12.2144 27.7731C12.5323 28.6511 11.7217 28.5716 11.1535 28.5677C11.0105 28.3015 10.8675 28.0353 10.7205 27.7652Z" fill="#455871"/>
<path d="M9.17885 29.4218C9.16693 29.2788 9.15501 29.1397 9.14309 28.9967C9.65166 29.2231 10.2238 29.3622 10.6489 29.6919C11.1694 30.0971 10.5615 30.0654 10.3668 30.1726C10.2516 30.1249 10.1364 30.0932 10.0132 30.0773C9.7351 29.8588 9.45698 29.6403 9.17885 29.4218Z" fill="#6B798A"/>
<path d="M20.3039 25.7232C21.1144 25.902 22.0124 25.4968 22.7554 26.1086C21.8058 26.045 20.8006 26.478 19.9145 25.8027C20.0456 25.7709 20.1728 25.747 20.3039 25.7232Z" fill="#72889C"/>
<path d="M15.4725 27.7413C15.0275 27.4037 15.2221 26.4582 14.3321 26.5416C14.3361 26.4145 14.3441 26.2873 14.352 26.1602C14.9281 26.0847 15.4367 26.2834 15.9294 26.5495C16.9902 26.8872 18.0471 26.8832 19.108 26.5535C19.2431 26.5535 19.3742 26.5575 19.5093 26.5575C19.5093 26.8197 19.5093 27.0819 19.5053 27.3441C18.2021 27.8605 16.7399 26.8197 15.4725 27.7413Z" fill="#72889C"/>
<path d="M19.1119 26.5535C18.0511 27.1653 16.9942 27.1693 15.9333 26.5495C16.9902 26.5495 18.0511 26.5535 19.1119 26.5535Z" fill="#6B8198"/>
<path d="M15.1625 8.31093C13.7203 9.49876 11.674 9.79274 10.3986 11.4692C11.2886 12.1207 13.4819 9.74904 13.1561 12.6809C13.2514 12.7603 13.2792 12.8438 13.2474 12.9232C13.2157 13.0027 13.1839 13.0424 13.1521 13.0424C12.2422 12.8239 11.4158 13.4039 10.4463 13.2092C9.44108 13.0066 9.36559 13.8409 9.57617 14.6315C9.42122 14.7586 9.24639 14.7864 9.05965 14.7109C8.71795 14.4885 8.53519 14.1667 8.46367 13.7734C8.43188 13.4834 8.47559 13.2053 8.59081 12.9351C9.42916 9.85233 11.9601 8.72012 14.6063 7.72694C14.9162 7.81037 15.099 8.009 15.1625 8.31093Z" fill="#EDB1A2"/>
<path d="M13.16 16.2444C13.7083 17.2217 13.458 17.6269 12.3296 17.4044C11.0065 16.88 10.5337 15.8709 10.7284 14.405C11.8052 14.8738 12.8859 15.3426 13.9626 15.8153C13.7957 16.149 13.3746 16.002 13.16 16.2444Z" fill="#F1AC99"/>
<path d="M9.19077 14.6315C9.32189 14.6354 9.44903 14.6354 9.58015 14.6394C10.049 15.5372 10.2198 16.2841 8.7855 16.2285C7.85576 15.8233 6.92603 15.422 6.00026 15.0168C5.60294 14.6275 5.20561 14.2342 4.80829 13.8449L4.81226 13.8409C5.0745 13.5946 5.31289 13.3086 5.69035 13.2172C5.87312 13.1854 6.05589 13.1894 6.23866 13.2212C7.23991 13.6502 7.92331 14.7427 9.19077 14.6315Z" fill="#EFBCAD"/>
<path d="M20.6575 16.598C19.7596 17.2971 19.0881 16.5145 18.3372 16.2404C17.6538 16.6854 17.1571 16.3516 16.7002 15.8471C16.3148 15.573 15.9294 15.2989 15.544 15.0248C15.6195 14.9572 15.695 14.8857 15.7704 14.8182C16.7439 14.4964 17.5783 14.7109 18.2815 15.4538C19.0007 16.0855 19.8827 15.7399 20.6893 15.8431C20.9436 16.1053 20.9396 16.3556 20.6575 16.598Z" fill="#E09E8C"/>
<path d="M13.16 16.2444C13.319 15.8988 13.6328 15.8392 13.9626 15.8153C14.4831 15.9623 14.9996 16.1093 15.5201 16.2563C15.9572 16.741 16.9624 16.7847 16.7161 17.7977C15.0314 18.4214 14.3679 16.7052 13.16 16.2444Z" fill="#E99E8A"/>
<path d="M16.7121 17.8017C16.5413 17.1104 15.5241 17.0786 15.5162 16.2603C15.9373 16.2086 16.4221 16.3318 16.6962 15.8511C17.2405 15.9822 17.7889 16.1133 18.3332 16.2444C18.067 17.0469 17.5822 17.6189 16.7121 17.8017Z" fill="#EFB09E"/>
<path d="M13.1561 13.0464C13.164 12.9232 13.164 12.804 13.1561 12.6809C13.2832 12.661 13.4103 12.6451 13.5415 12.6372C13.6766 12.4902 13.8275 12.4703 13.9944 12.5776C13.9904 13.7178 15.5122 13.9084 15.5281 15.0367L15.544 15.0208C14.3083 14.8937 13.0488 14.7944 13.1561 13.0464Z" fill="#DD9888"/>
<path d="M26.2836 7.85407C24.9009 6.48747 23.0613 6.69802 21.2535 6.6424C21.8177 5.22415 22.8547 6.40007 23.4865 5.90745C24.1818 5.84389 24.8533 5.92732 25.4651 6.29678C26.6372 6.78542 28.1232 5.7406 29.1324 7.03967C28.9973 7.23036 29.1165 7.77064 29.3351 8.05668C29.5854 8.38641 29.5059 8.65655 29.1483 8.85121C28.2464 8.98231 27.4756 8.57313 26.677 8.25928C26.5141 8.15997 26.383 8.02092 26.2836 7.85407Z" fill="#E9AB9E"/>
<path d="M29.0371 7.09529C27.9564 6.33253 26.4267 7.59585 25.4651 6.29678C27.1379 5.46649 28.7232 5.67704 30.2449 6.69405C30.3721 6.77747 30.4158 6.86487 30.38 6.95227C30.3403 7.04364 30.3006 7.08734 30.2608 7.08734C30.1178 7.09132 29.9787 7.09926 29.8357 7.10323C29.5655 7.33365 29.2993 7.33365 29.0371 7.09529Z" fill="#FADBD0"/>
<path d="M36.9994 9.06177C36.3796 8.09243 35.2631 7.80242 33.948 6.87282C35.4539 6.68213 36.2604 7.19063 36.9081 7.89777C37.0908 8.09243 38.1477 8.61683 36.9994 9.06177Z" fill="#E7A898"/>
<path d="M30.2608 7.08734C30.2489 6.95624 30.2449 6.82515 30.2449 6.69405C30.38 6.69007 30.5112 6.6861 30.6462 6.68213C31.3376 6.62651 31.8819 6.85295 32.2077 7.49653C32.605 7.8938 33.0024 8.29504 33.3997 8.69231C33.2726 8.84724 33.2288 9.09355 32.9626 9.10149C32.0647 8.43408 31.1628 7.75873 30.2608 7.08734Z" fill="#E4A89C"/>
<path d="M37.3968 11.0561C37.1226 10.5356 36.8524 10.0112 36.5783 9.49082C36.7173 9.3478 36.8604 9.20478 36.9994 9.06177L36.9955 9.06574C37.2339 9.70931 39.3278 9.97946 37.3968 11.0561Z" fill="#F7CEC0"/>
<path d="M32.2117 7.49653C31.6912 7.22639 31.1707 6.95227 30.6502 6.68213C31.6356 6.12198 32.315 6.88076 33.1494 7.15885C32.8673 7.59187 32.5097 7.44488 32.2117 7.49653Z" fill="#FBDACD"/>
<path d="M32.9666 9.10547C33.1136 8.9704 33.2567 8.83135 33.4037 8.69628C33.5467 9.22067 34.6632 9.49082 33.8129 10.2695C33.5308 9.88014 33.2487 9.49479 32.9666 9.10547Z" fill="#CE897C"/>
<path d="M21.9488 14.1984C21.8058 14.3375 21.6628 14.4726 21.5197 14.6116C20.6456 13.6264 20.8363 11.4891 22.0521 11.0799C23.5063 10.5913 25.1274 9.88411 26.6571 11.0719C28.2027 11.934 28.4689 10.0947 29.4463 9.75699C30.2807 10.0947 30.6065 10.7621 30.6582 11.6122C30.6582 11.8069 30.6303 12.0016 30.5787 12.1883C30.5151 12.367 30.4118 12.5259 30.2767 12.669C30.1099 12.7643 29.9271 12.7961 29.7403 12.7643C28.5643 12.657 27.4319 13.1099 26.2558 13.0384L26.2598 13.0464C25.7711 13.5072 25.2029 13.4873 24.6109 13.3245C24.4917 13.2649 24.4043 13.1695 24.3129 13.0821C24.0109 12.7881 24.5553 12.5895 24.3963 12.3154C24.0626 12.5776 24.1421 12.8557 24.3646 13.1377C23.8441 14.119 22.5925 13.4714 21.9488 14.1984Z" fill="#ECB1A2"/>
<path d="M15.5281 15.0407C15.0473 14.2104 13.0408 14.3931 13.9428 12.6491C14.4712 11.8268 15.1586 11.1991 16.0247 10.7184C17.0141 10.1662 17.5743 10.4522 17.912 11.4494C18.6431 11.8625 18.6431 11.8625 17.5346 12.669C17.9438 13.6661 18.9172 14.1905 19.5053 15.0407C19.2073 15.5134 18.7186 15.4022 18.2776 15.4498C17.3637 15.3148 16.4459 15.1757 15.5281 15.0407Z" fill="#F7D1C6"/>
<path d="M14.7533 7.89777C13.8792 8.33079 12.9455 8.67642 12.1469 9.22465C11.0304 9.9874 9.53247 10.488 9.61193 12.3114C9.62385 12.5458 9.06363 12.808 8.76961 13.0583C8.40804 13.1616 8.23322 12.9431 8.09018 12.669C7.84782 11.8506 7.97496 11.1037 8.52724 10.4403C8.61068 10.3847 8.69412 10.333 8.77755 10.2814C10.8873 9.15314 13.0051 8.04476 15.099 6.89268C15.989 6.40404 16.8988 6.17362 17.9041 6.32061C17.6418 6.56692 17.3796 6.8172 17.1174 7.06351C16.3823 7.48064 15.6711 7.9812 14.7533 7.89777Z" fill="#F6D1C5"/>
<path d="M17.916 11.4533C17.0061 10.4045 16.132 10.7462 15.2619 11.5169C14.8288 11.9022 14.3838 12.2717 13.9467 12.6491C13.8116 12.6451 13.6766 12.6412 13.5415 12.6372C15.6354 10.0311 18.0511 9.07766 21.0509 9.81658C20.0059 10.5873 18.361 9.9874 17.916 11.4533Z" fill="#E9AC9E"/>
<path d="M29.4344 9.88014C28.8146 10.5396 29.1603 12.085 27.559 11.8585C27.0346 11.7831 26.7127 11.6241 26.6571 11.0759C26.6571 10.5396 26.6571 10.0073 26.6571 9.47095C26.7406 9.44314 26.82 9.41534 26.9035 9.38355C27.5273 9.58219 28.1272 9.57822 28.759 9.35177C29.1285 9.22067 29.5417 9.28026 29.4344 9.88014Z" fill="#F3BFB0"/>
<path d="M25.4214 9.04985C24.8413 9.45903 24.3288 9.99535 23.5063 9.87617C22.9382 9.79671 22.0799 9.91987 22.1276 9.173C22.1753 8.39038 22.9183 8.75587 23.3156 8.98629C24.3367 9.57424 24.3844 7.21844 25.5208 8.29901C25.7035 8.58107 25.6717 8.83135 25.4214 9.04985Z" fill="#EDB7A9"/>
<path d="M19.5093 15.0446C18.504 14.5441 17.3717 14.1508 17.5385 12.6729C18.659 13.0384 19.0166 14.2739 19.9781 14.8182C19.8231 14.8937 19.6642 14.9691 19.5093 15.0446Z" fill="#E4A494"/>
<path d="M20.6575 16.598C20.6694 16.3437 20.6774 16.0934 20.6893 15.8392C21.186 15.5531 21.7104 15.3664 22.2985 15.426C22.807 15.4379 23.0733 15.7041 23.109 16.2086C22.2667 16.2007 21.4283 16.1808 20.6575 16.598Z" fill="#F2BDAD"/>
<path d="M25.4214 9.04985C25.4532 8.79957 25.485 8.54929 25.5208 8.30298C25.7751 8.15599 26.0293 8.00503 26.2836 7.85804C26.4028 7.87791 26.522 7.89777 26.6412 7.92161C27.0743 8.43408 27.114 8.95053 26.6571 9.47095L26.6571 9.47493C26.085 9.8126 25.6717 9.66562 25.4214 9.04985Z" fill="#F8DED5"/>
<path d="M14.7533 7.89777C15.5042 7.51242 16.2234 7.02775 17.1213 7.05556C16.8353 8.04476 15.8817 7.99311 15.1625 8.31093C15.0275 8.17188 14.8884 8.03681 14.7533 7.89777Z" fill="#E5A090"/>
<path d="M20.0059 8.77573C19.4934 8.92272 19.3185 9.03396 19.1954 8.99423C19.0643 8.95053 18.9888 8.75984 18.8855 8.63272C19.0285 8.56518 19.1715 8.43408 19.3066 8.44203C19.4735 8.45395 19.6285 8.58504 20.0059 8.77573Z" fill="#EAAD9E"/>
<path d="M5.61088 13.4357C5.44003 13.7575 5.14204 13.833 4.80829 13.8369C4.45865 11.8387 5.88106 10.9051 7.17237 9.87617C8.4438 8.86313 10.0649 8.34668 11.1694 7.09131C12.3853 7.83023 11.1098 8.03284 10.8397 8.21161C10.0053 8.77176 8.88483 8.99423 8.78153 10.2734L8.78947 10.2615C8.4438 10.7541 7.9988 11.1951 7.94317 11.8466C7.68491 12.7484 8.45572 13.2291 8.77755 13.8926C8.91264 14.1389 9.05171 14.3852 9.1868 14.6275C9.22256 14.9453 9.25831 15.2631 9.32189 15.7994C8.12992 14.9533 7.06112 14.1984 5.98834 13.4397C5.88504 13.3721 5.88504 13.1814 5.87312 13.1775C5.6387 13.098 5.76584 13.4119 5.61088 13.4357Z" fill="#F6CCBD"/>
<path d="M30.237 12.2439C30.2449 12.1088 30.2529 11.9777 30.2608 11.8426C31.1628 11.1395 31.1469 10.5197 30.2132 9.79671C29.8039 9.4789 28.9775 9.53054 29.0411 8.69628C29.6688 8.15997 27.7537 7.63557 29.0331 7.09529C29.2993 7.09926 29.5655 7.09926 29.8317 7.10323C30.6502 8.76779 32.1283 9.83644 33.4156 11.0799C34.242 12.816 32.6766 13.3483 31.8223 14.2421C31.6157 14.3613 31.3495 14.6235 31.2104 14.5719C30.5747 14.3216 31.3455 14.1627 31.2859 13.9363C31.2065 13.6383 31.1111 13.3403 31.0237 13.0464C30.7654 12.7723 30.4595 12.5498 30.237 12.2439Z" fill="#F3C2B3"/>
<path d="M31.8263 14.2421C32.0885 13.0543 33.6222 12.5021 33.4196 11.0799C35.1519 12.8716 34.8936 13.3801 31.8263 14.2421Z" fill="#E7A396"/>
<path d="M21.9488 14.1984C22.1395 12.6292 23.6812 13.7813 24.2811 13.0384L24.2613 13.0503C24.9288 13.0464 25.5923 13.0424 26.2598 13.0384C26.1803 13.8926 25.5327 13.8926 24.9446 13.829C24.1341 13.7376 23.562 14.0753 23.0653 14.6474C22.6958 14.5004 22.3223 14.3494 21.9488 14.1984Z" fill="#FADDD3"/>
<path d="M26.2558 13.0345C27.269 12.6888 28.2703 12.3035 29.2953 12.0135C29.7245 11.8903 29.7682 12.3194 29.8158 12.6372C28.9974 13.249 28.0199 13.3205 27.0544 13.4436C26.8876 13.1219 26.5856 13.0543 26.2558 13.0345Z" fill="#F7CABB"/>
<path d="M30.2291 13.4357C30.3125 14.8937 29.4821 15.1638 28.0875 14.9493C28.7073 14.4885 29.5218 14.3295 29.4225 13.4635C29.4781 13.4039 29.5337 13.3483 29.5894 13.2887C29.8357 13.2053 30.0542 13.2132 30.2291 13.4357Z" fill="#EEB7A8"/>
<path d="M27.0584 13.4436C27.9484 13.0742 28.8305 12.665 29.8198 12.6372L29.8556 12.657C30.0741 13.0901 29.6807 13.2132 29.4662 13.4277C29.4662 13.4277 29.4265 13.4635 29.4225 13.4635C28.6278 13.5628 27.8372 13.6661 27.0425 13.7615C27.0227 13.7654 26.967 13.6621 26.967 13.6105C26.971 13.5509 27.0266 13.4993 27.0584 13.4436Z" fill="#EEB7A8"/>
<path d="M29.4662 13.4277C29.5973 13.1695 29.7245 12.9153 29.8556 12.657C29.9827 12.518 30.1099 12.3829 30.237 12.2439C30.7495 12.2638 31.0356 12.5061 31.0277 13.0424C30.6979 13.0503 30.4118 13.1377 30.2291 13.4397C29.9748 13.4317 29.7205 13.4317 29.4662 13.4277Z" fill="#DD9888"/>
<path d="M24.6387 18.187C22.9421 18.187 21.2456 18.191 19.549 18.191C19.5649 17.325 20.2324 17.6984 20.6456 17.6269C21.325 17.5117 22.0442 17.8096 22.6998 17.4282C22.8269 17.4282 22.9541 17.4243 23.0812 17.4203C23.4467 17.9844 24.5275 17.0985 24.6387 18.187Z" fill="#EDAB97"/>
<path d="M24.6387 18.187C24.301 17.5633 23.415 18.052 23.0812 17.4203C24.1381 17.1184 25.191 17.9169 26.2479 17.4282C26.5141 17.5474 26.7803 17.6666 27.0465 17.7818C26.3512 18.5565 25.4453 18.0758 24.6387 18.187Z" fill="#F2BDAD"/>
<path d="M22.6998 17.4282C21.8098 18.3459 20.435 17.2693 19.545 18.191C18.7782 18.0321 18.4961 17.6507 19.4576 17.4799C20.5065 17.2892 21.6151 17.4322 22.6998 17.4282Z" fill="#F2BDAD"/>
<path d="M23.4785 16.2205C24.5592 15.6366 25.1274 16.5463 25.8426 17.031C24.9844 16.9714 24.1579 16.8085 23.4785 16.2205Z" fill="#F2BDAD"/>
<path d="M8.78153 13.8926C8.31666 13.241 6.89821 13.1417 7.57366 11.8268C8.34844 11.6083 8.03853 12.4505 8.3842 12.6531C8.51532 12.7881 8.64644 12.9192 8.77358 13.0543C8.77358 13.3364 8.77755 13.6145 8.78153 13.8926Z" fill="#DD9685"/>
<path d="M5.61088 13.4357C5.70227 12.955 5.28111 12.2916 6.09562 12.0254C6.53267 12.5538 5.88901 12.9709 5.98834 13.4436C5.86517 13.4397 5.73803 13.4397 5.61088 13.4357Z" fill="#E2A392"/>
<path d="M29.045 8.69628C29.6728 9.01409 30.3363 9.28026 30.9164 9.66959C31.3296 9.94768 31.723 10.3847 31.4767 10.9726C31.2621 11.4851 31.0396 12.0731 30.2648 11.8426C30.388 11.0203 29.8357 10.48 29.4344 9.88014C28.5285 9.62192 27.3842 10.9528 26.6571 9.46698C26.6531 8.95053 26.6452 8.43408 26.6412 7.91763C27.4438 8.17586 28.2424 8.43408 29.045 8.69628Z" fill="#F7CBBF"/>
<path d="M24.2851 13.0424C23.256 12.5696 23.7288 12.1048 24.3089 11.6758C24.7182 11.3778 25.2466 11.3183 25.489 11.7791C25.9022 12.5538 25.1234 12.514 24.7102 12.7166C24.5434 12.7961 24.4122 12.9391 24.2613 13.0543C24.2652 13.0543 24.2851 13.0424 24.2851 13.0424Z" fill="#FADFD4"/>
<path d="M8.3842 12.6531C8.11402 12.379 7.84384 12.1048 7.57366 11.8268C7.6571 11.0561 8.14978 10.5992 8.79345 10.2615C8.65438 11.06 8.23322 11.8069 8.3842 12.6531Z" fill="#EAAD9E"/>
</svg>
