<svg width="54" height="49" viewBox="0 0 54 49" fill="none" xmlns="http://www.w3.org/2000/svg">
<path d="M6.79579 48.5847C6.13794 48.7192 5.54587 48.3986 4.93303 48.3331C3.79391 48.209 2.83136 47.6643 1.77533 47.3471C1.71994 47.3299 1.67839 47.2575 1.62991 47.2127C1.76841 46.8783 2.0177 46.8507 2.31547 46.9645C2.44704 47.0162 2.55783 47.1024 2.68594 47.161C2.84175 47.2299 2.99063 47.3575 3.17414 47.2541C3.24339 47.2161 3.27109 47.1334 3.21569 47.0782C3.08758 46.9438 2.99756 46.7576 2.7725 46.7473C2.24622 46.7266 1.79265 46.5094 1.39793 46.1785C1.03785 45.8786 0.712382 45.5201 0.823179 45.0236C0.937437 44.5031 1.2906 44.1411 1.8342 43.9998C2.13542 44.0412 2.41934 43.9584 2.70672 43.886C2.56822 43.9102 2.42973 43.9791 2.28431 43.9136C2.0177 43.7309 1.77533 43.5172 1.52604 43.3172C1.87228 42.9759 2.35009 42.9449 2.77943 42.8346C5.15462 42.2244 7.3013 41.1489 9.37873 39.8699C10.8953 38.9357 12.3045 37.8601 13.7344 36.8121C16.6532 34.6783 19.4404 32.3823 22.0718 29.8968C23.8861 28.1835 25.5862 26.3599 27.2897 24.5466C28.8062 22.9333 30.1288 21.151 31.3441 19.2964C31.6973 18.7586 32.0574 18.2277 32.4313 17.7037C33.0753 16.7936 33.4804 15.7456 34.1452 14.8493C34.8307 13.9254 35.4678 12.9602 36.3092 12.1673C37.2752 11.2538 38.3035 10.4195 39.5638 9.92312C39.7265 9.85762 39.9551 9.83004 39.9655 9.57494C40.0001 9.5577 40.0451 9.53702 40.0624 9.5577C40.6649 10.1679 41.4751 10.1851 42.2437 10.3299C42.8531 10.4437 42.9016 10.5643 42.5692 11.0814C42.448 11.2676 42.3718 11.4985 42.1329 11.5847C41.8178 11.3227 41.5685 11.4365 41.34 11.7157C41.1427 11.9536 40.9176 12.1363 40.5783 11.9846C40.1767 11.8053 40.1316 11.4985 40.2632 11.1262C40.4467 10.9745 40.6545 11.0573 40.8137 11.0538C40.6822 11.0056 40.4952 11.0504 40.3186 11.0194C39.7958 10.8298 39.3076 11.0297 38.9198 11.5951C39.4876 11.5675 39.6158 12.0708 39.8997 12.3879C39.8927 12.419 39.8096 12.4845 39.8997 12.4845C40.0693 12.4845 40.2355 12.4328 40.3948 12.3604C40.8864 12.2638 41.1946 12.4224 41.3366 12.8326C41.3885 12.9809 41.3504 13.0636 41.1946 13.0912C40.7099 12.9602 40.2667 13.1153 39.9551 13.5049C39.8477 13.6428 39.8096 13.7807 39.8754 13.9392C39.9585 14.1357 39.9551 14.3115 39.7612 14.446C39.685 14.5011 39.5984 14.546 39.5188 14.6011C39.2037 14.9803 38.9164 15.3837 38.5632 15.7284C38.4005 15.9042 38.307 16.1869 37.9746 16.0904C37.8118 15.7353 38.1581 15.5836 38.255 15.3595C38.0785 15.5043 38.0231 15.7904 37.7772 15.9214C36.9324 15.7629 36.9116 15.7904 37.1886 16.6661C37.2267 16.7833 37.2475 16.9039 37.2163 17.0246C37.1332 17.259 36.9705 17.4176 36.7385 17.5072C35.9976 17.4003 35.679 17.9485 35.3155 18.4242C35.1043 18.7 35.3536 18.762 35.5232 18.8758C35.9422 19.1516 35.9352 19.2791 35.5059 19.5618C35.3466 19.6549 35.1943 19.7583 35.0973 19.9272C34.9485 20.3099 34.7269 20.6477 34.3979 20.8856C33.9236 21.2269 33.6812 21.7302 33.4146 22.2128C33.238 22.5472 33.1099 22.8919 32.7187 22.8505C32.9645 22.7057 32.9853 23.047 33.1376 23.1953C33.4354 22.9333 33.6016 22.6023 33.8197 22.3196C33.9478 22.1507 34.0759 21.9887 34.2456 21.868C34.3495 21.7922 34.4706 21.6405 34.6022 21.775C34.7199 21.8956 34.5988 22.0335 34.533 22.1542C34.4741 22.261 34.3945 22.3541 34.3218 22.4541C33.9409 22.9712 33.9409 22.9712 34.5018 23.3469C34.7061 23.3297 34.9138 23.3607 35.1112 23.3125C35.3501 23.2539 35.5786 23.1746 35.5509 22.8574C35.7898 22.4575 36.2711 22.2817 36.6277 22.4679C36.1672 23.5021 35.5821 24.4294 34.526 24.9844C34.6784 25.243 34.9173 25.2395 35.0662 24.9706C35.3847 24.3846 35.9976 24.0467 36.3092 23.4642C36.5689 22.9746 36.9636 22.7161 37.611 22.7368C37.3202 22.5024 37.0259 22.5575 36.8216 22.3989C36.9151 21.9922 37.1194 21.6371 37.3271 21.282C37.9123 21.3441 38.3658 21.3199 38.7848 20.7098C39.2072 20.0927 39.6158 19.3653 40.3983 19.0516C40.6406 18.9551 40.6164 18.7517 40.561 18.5655C40.4744 18.2553 40.5298 17.9691 40.7029 17.7175C41.108 17.128 41.34 16.4454 41.8282 15.8973C42.1779 15.5043 41.6447 15.6801 41.5408 15.5698C41.5201 15.5422 41.4924 15.5043 41.5028 15.4767C41.7174 15.0217 41.5582 14.677 41.1773 14.3977C41.2604 14.1082 41.2812 13.7841 41.5893 13.6117C41.6413 13.5979 41.6932 13.5979 41.7451 13.6048C41.984 13.6945 42.2333 13.7703 42.3476 14.0358C42.358 14.084 42.358 14.1288 42.3545 14.1771C42.2887 14.5425 42.5068 14.2391 42.583 14.2702C42.8462 14.1633 43.0435 14.3012 43.2409 14.446C43.459 14.6046 43.6737 14.7976 43.9853 14.6873C44.3281 14.9321 44.0164 15.2733 44.1134 15.5526C43.9022 15.656 43.8226 15.9008 43.6148 16.0042C43.3759 15.949 43.3863 15.6629 43.1682 15.5457C42.905 15.8421 42.6246 16.0938 42.77 16.5799C42.8669 16.9005 42.5796 17.1314 42.3476 17.3107C42.1225 17.4865 41.984 17.683 41.9702 17.9622C41.9633 18.0829 41.8144 18.2656 42.0187 18.3139C42.2022 18.3552 42.351 18.2208 42.3822 18.0174C42.4064 17.8623 42.403 17.7037 42.4791 17.5589C42.538 17.452 42.5796 17.3348 42.6488 17.2349C42.8704 16.9005 43.2028 16.735 43.5871 16.7453C43.9403 16.7557 43.8987 17.1177 43.9888 17.3452C44.1376 17.714 44.0649 18.0553 43.7395 18.2759C43.4036 18.5035 43.1439 18.8827 42.8219 19.024C42.3614 19.224 41.8767 19.6514 41.2846 19.3274C41.1427 19.2515 40.9141 19.5308 41.0007 19.7307C41.1877 20.1616 41.0526 20.2823 40.6233 20.2133C40.4398 20.1823 40.329 20.2995 40.2321 20.4305C39.9412 20.8235 39.595 21.1751 39.3734 21.6198C39.2453 21.8749 39.0999 22.1059 38.8263 22.2335C38.7155 22.2852 38.6117 22.3783 38.5805 22.4989C38.3035 23.602 37.3791 24.2812 36.8112 25.1947C36.2953 26.0221 35.5405 26.6564 34.9277 27.4079C34.7476 27.6285 34.5988 27.8457 34.4949 28.1111C34.2075 28.8282 33.8647 29.5142 33.1896 29.9658C33.0234 30.0761 32.8779 30.2347 32.8849 30.4312C32.8987 30.7862 32.7291 31.1206 32.7291 31.4378C32.7256 32.2789 32.0504 32.5892 31.6038 33.0856C31.2576 33.0442 31.1502 33.3752 30.9459 33.5406C30.7555 33.6992 30.572 33.8406 30.3677 33.9061C30.5789 33.8716 30.7624 33.7302 30.9321 33.5613C31.0048 33.4855 31.0775 33.3959 31.1848 33.5165C31.3026 33.8233 31.2056 34.1336 30.9459 34.2405C30.1115 34.5817 29.5471 35.3332 28.7058 35.647C28.4946 35.7262 28.2868 35.8228 28.0514 35.7573C27.9891 35.74 27.9302 35.6366 27.8921 35.6642C27.7917 35.7366 27.8575 35.8503 27.8713 35.9503C28.0064 36.2675 27.9544 36.5639 27.7675 36.8432C27.6878 36.9604 27.6117 37.0983 27.4489 37.0707C27.2516 37.0397 27.3208 36.8535 27.2862 36.7294C27.2723 36.6777 27.2689 36.626 27.2031 36.5605C26.9434 36.657 26.6353 36.7984 26.5764 36.3157C26.5626 36.2123 26.4656 36.1778 26.3756 36.2399C26.2648 36.3123 26.2579 36.4295 26.3617 36.4984C26.611 36.6674 26.618 36.8535 26.4171 37.0879C26.6907 37.1121 27.0196 36.8845 27.1512 37.1948C27.2931 37.5292 26.9642 37.7602 26.8084 38.0118C26.8188 38.0911 26.8776 38.0773 26.9226 38.0808C27.1581 38.0911 27.4905 37.898 27.5493 38.3152C27.6013 38.6702 27.4974 38.9943 27.12 39.1149C26.8569 39.1977 26.5245 39.3563 26.4067 38.8943C26.379 38.7909 26.296 38.7151 26.2025 38.6633C25.832 38.4634 25.735 38.1463 25.742 37.7429C25.7489 37.2258 25.555 37.1224 25.091 37.3568C24.7794 37.5154 24.4332 37.6395 24.4367 38.0842C24.4367 38.1463 24.3847 38.2186 24.3293 38.26C23.7615 38.6978 23.4326 39.3769 22.8024 39.7458C22.5739 39.8803 22.4562 40.0733 22.38 40.3181C22.283 40.6352 22.1169 40.8352 21.7256 40.6904C21.4694 40.5938 21.2166 40.6214 21.0574 40.9248C20.9466 41.1351 20.7181 41.1454 20.4999 41.1316C19.6759 41.073 18.9384 41.3247 18.2875 41.8073C17.9343 42.0658 17.55 42.2692 17.1899 42.5174C16.7363 42.8312 16.1442 42.7484 15.6526 43.0139C15.3306 43.1897 14.9982 43.331 14.7039 43.5585C14.2953 43.8757 13.8314 44.0825 13.2947 43.9963C12.9692 43.9446 12.8238 44.2411 12.5607 44.3273C11.882 44.5548 11.148 44.5789 10.504 44.9133C10.4105 44.9616 10.2755 44.9685 10.2236 45.0478C9.76998 45.7441 9.14675 45.4373 8.58585 45.2994C8.20152 45.2063 7.87606 45.1753 7.54367 45.4201C7.329 45.5787 7.08317 45.5407 6.83734 45.4787C6.40801 45.3684 5.9856 45.3373 5.5528 45.5097C4.9815 45.7372 4.37905 45.4408 3.78698 45.5511C3.58963 45.589 3.37842 45.5442 3.18106 45.6476C2.98371 45.751 2.80713 45.6924 2.67209 45.5201C2.64439 45.4442 2.65824 45.3373 2.55437 45.327C2.53014 45.3236 2.58553 45.3718 2.59938 45.3959C2.61669 45.4235 2.63401 45.4511 2.63747 45.489C2.66171 45.9544 2.911 46.144 3.37149 46.1957C4.06397 46.2716 4.76337 46.3302 5.442 46.506C5.64974 46.5611 5.85749 46.5336 6.06523 46.4922C6.32491 46.4405 6.58805 46.4577 6.84773 46.4922C7.12126 46.5267 7.40171 46.6163 7.44326 46.9128C7.48827 47.2161 7.20089 47.2954 6.97238 47.3816C6.85119 47.4161 6.73347 47.4161 6.58459 47.2816C6.79233 47.5195 7.13165 47.3023 7.25283 47.5781C7.2459 47.6333 7.22167 47.6746 7.17319 47.7022C6.87543 47.8194 6.5742 47.9125 6.24874 47.816C6.20373 47.7953 6.1691 47.7608 6.14487 47.7194C6.13794 47.4299 5.78824 47.5436 5.70168 47.3471C5.51471 47.0644 5.33121 47.0058 5.15116 47.3506C5.07845 47.4195 4.98843 47.4643 4.89148 47.4885C4.54524 47.5126 4.27172 47.2609 3.93933 47.2472C4.08128 47.6195 4.34443 47.7505 4.76684 47.6229C4.98843 47.5574 5.19617 47.4781 5.42815 47.5471C5.49394 47.5643 5.58396 47.5712 5.61858 47.6195C5.91981 48.0607 6.40801 48.2469 6.83388 48.5227C6.81657 48.5399 6.80618 48.564 6.79579 48.5847Z" fill="#64A531"/>
<path d="M48.4933 20.8925C48.2406 21.5509 47.9913 22.2093 47.5792 22.7919C47.4027 22.8678 47.2469 22.9574 47.323 23.1953C47.2503 23.509 47.0322 23.7296 46.8244 23.9537C46.2809 23.6779 46.2878 23.6779 46.4782 23.116C46.6098 22.723 46.769 22.3438 47.0045 21.999C47.046 21.9404 47.1984 21.8508 47.008 21.775C46.8279 21.7888 46.7933 21.9439 46.7379 22.0645C46.5336 22.492 46.2462 22.8643 46.0004 23.2642C45.6992 23.7572 45.4464 24.2915 45.1937 24.8155C45.0205 25.3223 44.6431 25.698 44.335 26.1186C43.9022 26.7081 43.4278 27.2596 42.9881 27.8216C43.1301 27.8043 43.2824 27.7285 43.3447 27.5871C43.7429 26.7046 44.56 26.1496 45.0863 25.3671C45.2421 25.1361 45.4533 24.9534 45.5814 24.6914C45.8688 24.0985 45.9381 24.095 46.4159 24.5707C45.9589 25.4533 45.3252 26.2254 44.7055 26.9873C43.4382 28.5455 42.0844 30.0278 40.793 31.5653C39.6192 32.9649 38.4489 34.3783 37.1332 35.6435C35.3916 37.3154 33.6882 39.0357 31.7423 40.4835C31.3961 40.7421 30.9875 40.8834 30.6309 41.142C30.3227 41.366 30.1115 41.6832 29.7618 41.8797C28.6608 42.5002 27.7121 43.3482 26.6283 44.0067C24.9214 45.0409 23.1521 45.9337 21.279 46.6335C20.4618 46.9369 19.6586 47.2816 18.8241 47.5333C17.0618 48.0642 15.296 48.5778 13.4505 48.7881C12.2491 48.926 11.0511 48.9019 9.85308 48.9743C9.60379 48.8502 9.13983 49.1363 9.10867 48.5813C9.10521 48.5468 8.91478 48.5537 8.81437 48.5261C8.36772 48.4123 7.88298 48.4296 7.49173 48.1331C7.42249 47.9573 7.21128 47.8573 7.22167 47.6367L7.22513 47.6298C7.329 47.5195 7.4398 47.4195 7.58868 47.3713C7.84836 47.3506 8.14266 47.3816 8.11843 46.9748C8.10804 46.7783 8.25 46.7094 8.41965 46.6783C8.50621 46.6646 8.59277 46.6508 8.67933 46.6611C9.39951 46.7335 10.0781 46.7404 10.594 46.0751C10.7672 45.8544 11.0926 45.8269 11.4146 45.8441C11.889 45.8717 12.3425 45.7062 12.7546 45.458C12.9485 45.3408 13.1354 45.2029 13.3813 45.2132C13.6305 45.2236 13.8418 45.3167 13.8902 45.5752C13.9352 45.82 13.724 45.9199 13.5475 45.9682C13.0108 46.1164 12.4499 46.1785 11.9409 46.4301C11.837 46.4818 11.6985 46.4646 11.6154 46.6232C12.1279 46.6784 12.6334 46.6611 13.132 46.699C13.409 46.7197 13.6859 46.5887 13.9006 46.4026C14.3611 46.0027 14.9289 45.9062 15.5002 45.8338C15.6803 45.8096 15.9226 45.7889 15.978 46.0371C16.0265 46.2509 15.8915 46.3888 15.6872 46.4715C15.3202 46.6197 15.3202 46.8473 15.5695 47.1127C15.4518 47.4506 15.1159 47.2989 14.8943 47.3954C14.4511 47.585 13.9768 47.7125 13.7033 47.7194C14.6173 47.5298 15.7288 47.2299 16.854 47.0196C17.3249 46.9197 17.7681 46.7266 18.239 46.637C18.3082 46.6232 18.2528 46.5956 18.2424 46.6025C18.1109 46.6921 17.9516 46.6715 17.8027 46.7025C17.363 46.6852 16.9544 46.8093 16.5459 46.961C16.3416 47.0369 16.1235 47.1162 15.8915 47.0369C15.7149 46.6749 15.9226 46.4543 16.1858 46.2578C16.719 45.8613 17.3526 45.6442 17.962 45.4235C18.9418 45.0719 19.9009 44.641 20.9258 44.4066C21.2651 44.3273 21.5456 44.0894 21.8606 43.9412C23.1175 43.362 24.2947 42.6415 25.5065 41.9831C26.2198 41.5936 26.8846 41.2178 27.3624 40.5559C27.4628 40.418 27.6117 40.3112 27.7571 40.2146C28.1137 39.9733 28.5811 39.994 28.9239 39.7251C28.962 39.6975 29.0035 39.6734 29.0451 39.6493C29.3152 39.1425 29.9107 39.0701 30.2985 38.7254C30.984 38.0463 31.8323 37.6085 32.6633 37.1465C33.5704 36.5364 34.4672 35.9158 35.3536 35.2471C34.6299 35.4505 34.2075 36.0641 33.6051 36.4192C33.2069 36.6536 32.8191 36.8639 32.3551 36.9052C32.2132 36.9087 32.0989 36.8501 32.0227 36.7294C31.9223 36.4709 32.0712 36.295 32.2339 36.1296C32.5179 35.8434 32.8295 35.5815 33.1757 35.3815C33.515 35.185 33.8578 35.0264 33.9167 34.5748C33.934 34.4507 34.0517 34.3542 34.1763 34.3404C34.8065 34.2611 35.0073 33.7475 35.2185 33.2821C35.5509 32.5547 35.5613 32.5202 36.3507 32.5237C36.4407 32.5237 36.5273 32.5065 36.6035 32.4616C36.8632 32.3031 36.9913 32.4203 37.0571 32.6685C37.109 32.8719 37.2613 32.9856 37.4206 33.0959C37.5591 33.4993 37.1055 33.5096 37.0328 33.7096C37.1748 33.4889 37.6076 33.4303 37.5799 33.0063C37.5729 32.8477 37.6422 32.7029 37.6872 32.4996C37.4414 32.603 37.2025 32.6478 37.0155 32.441C36.9324 32.3513 36.8424 32.3203 36.7385 32.3823C36.3507 32.6202 36.2572 32.403 36.2434 32.0686C36.3265 31.6688 36.7524 31.5791 36.9566 31.2861C37.2717 30.8552 37.7565 30.6242 38.1442 30.2795C38.2481 30.1864 38.3901 30.1037 38.5113 30.2485C38.6082 30.3622 38.539 30.4932 38.4559 30.5794C38.1477 30.8931 37.9192 31.2654 37.656 31.6239C37.8153 31.4309 38.0196 31.3275 38.255 31.4205C38.5355 31.5309 38.719 31.4654 38.861 31.1999C38.9787 30.9758 39.2176 30.869 39.4322 30.6725C39.221 30.7552 39.1241 30.9103 38.9787 31.0069C38.8575 31.0862 38.7328 31.1758 38.6047 31.0448C38.4905 30.9241 38.5355 30.7793 38.6186 30.6587C38.8125 30.3864 39.0548 30.1554 39.3111 29.9451C39.9031 29.4625 40.3429 28.8075 41.0492 28.449C41.3123 28.3145 41.385 27.9698 41.5651 27.7319C41.6586 27.6078 41.7243 27.4355 41.8698 27.3837C42.0983 27.301 42.1814 27.2217 42.0256 26.9908C41.9425 26.8701 41.9875 26.7115 42.0741 26.5943C42.3961 26.1634 42.6176 25.6497 43.1335 25.3878C43.279 25.3154 43.4071 25.2154 43.4694 25.0672C43.8122 24.2674 44.4631 23.6779 44.9132 22.9505C45.2144 22.4644 45.7823 22.1921 45.99 21.6164C46.0662 21.4027 46.1666 21.2027 46.1735 20.9683C46.1804 20.6029 46.2947 20.2788 46.5855 20.0444C46.7517 19.91 46.7967 19.7342 46.8279 19.5411C46.8729 19.2826 46.9491 19.0206 47.1084 18.8137C47.3265 18.5276 47.4581 18.3001 47.1395 17.9726C46.9491 17.7795 47.1915 17.5141 47.2192 17.2762C47.2434 17.0694 47.4165 16.835 47.1014 16.6936C47.0114 16.5661 46.9941 16.4144 46.9733 16.2662C47.1084 15.7904 47.278 15.3251 47.4096 14.8459C47.6935 14.5011 47.9463 14.6321 48.1817 14.901C48.3098 15.0458 48.3825 15.2216 48.431 15.4078C48.566 15.7456 48.4587 16.1386 48.663 16.4592C48.8742 16.9901 48.5106 17.4624 48.5002 17.9347C48.5937 17.5348 48.6145 17.0694 49.0854 16.8246C49.217 16.7591 49.2239 16.5902 49.3139 16.4868C49.4108 16.4351 49.5078 16.3903 49.539 16.5592C49.4385 17.2314 49.3451 17.9071 49.2343 18.5793C49.1165 19.2757 48.9019 19.9479 48.6214 20.596C48.4968 20.527 48.4483 20.3754 48.3202 20.3202C48.1886 20.2616 48.0951 20.0444 47.9359 20.1582C47.8181 20.2409 47.7524 20.4167 47.7628 20.5719C47.7766 20.8063 47.9774 20.7442 48.1194 20.7649C48.2509 20.7856 48.3929 20.7718 48.4933 20.8925Z" fill="#61A432"/>
<path d="M49.5355 16.5626C49.487 16.4937 49.4143 16.504 49.3451 16.5144C48.895 16.5454 48.7114 16.2834 48.6526 15.887C49.0369 15.5939 48.985 15.2837 48.7149 14.9355C48.5245 14.6873 48.4275 14.3805 48.2786 14.1081C48.1332 13.8427 47.9532 13.5945 47.5896 13.9013C47.3403 14.1116 47.2365 13.9117 47.2469 13.691C47.2607 13.367 47.413 13.0877 47.6866 12.9016C47.8597 12.7809 47.967 12.6361 47.9463 12.4259C47.8978 11.8743 47.9012 11.3193 47.8839 10.7677C47.8805 10.6815 47.8666 10.5953 47.8285 10.5126C47.7628 10.3713 47.697 10.1782 47.5031 10.2644C47.3126 10.3506 47.4962 10.5023 47.51 10.6264C47.4996 11.0056 47.3265 11.3262 47.0807 11.5916C46.8521 11.8398 46.6098 11.7916 46.5128 11.4813C46.4817 11.3848 46.5163 11.3744 46.4055 11.3986C46.0281 11.4847 45.9415 11.2848 46.0039 10.9608C46.2047 10.5609 46.6548 10.3954 46.8868 10.0231C46.402 10.6264 45.6265 10.8435 45.0967 11.3848C44.9963 11.3089 44.889 11.4124 44.7851 11.3813C44.6293 11.2917 44.4908 11.1883 44.4666 10.9883C44.8647 10.4919 45.5018 10.3333 45.9692 9.90933C45.2352 10.13 44.4735 10.0403 43.7325 10.1575C43.0297 9.96448 42.3095 9.8852 41.5824 9.83349C41.437 9.82314 41.3089 9.79557 41.2154 9.67146C41.1877 9.60941 41.1842 9.54391 41.1842 9.47497C41.1842 9.42326 41.392 9.22676 41.1011 9.35086C40.9972 9.39568 40.8691 9.35431 40.7791 9.25778C40.7272 9.113 40.786 8.982 40.9245 8.99579C41.3158 9.03371 41.4993 8.73724 41.7001 8.59245C41.6447 8.64072 41.5443 8.61658 41.4474 8.52351C42.4203 8.34425 43.3828 8.04088 44.3731 8.03744C45.7892 8.03054 46.8625 7.36521 47.8632 6.46891C48.9192 5.52435 49.6844 4.37294 50.3769 3.16294C50.4461 3.04228 50.4773 2.98713 50.3665 2.86302C49.4351 1.83228 49.9925 0.753268 51.0035 0.229277C51.5541 -0.0120349 51.426 0.518851 51.5783 0.729137C51.4571 1.01526 51.1594 1.12558 50.9689 1.34621C50.7854 1.55994 50.6781 1.77022 50.8166 2.04256C50.9585 2.28387 51.1455 2.37006 51.4052 2.22182C51.4675 2.1908 51.3844 2.19424 51.4467 2.19424C51.8553 2.19769 52.0665 1.90812 52.3019 1.64612C52.5443 1.6151 52.7174 1.69783 52.7798 1.94259C52.8317 2.15288 52.6863 2.2494 52.527 2.34937C51.6337 2.91473 51.052 3.74553 50.5119 4.63149C50.1345 5.25201 49.7294 5.87253 49.1754 6.36549C48.7599 6.58957 48.6041 7.05495 48.244 7.34453C47.6173 7.84783 46.9179 8.23049 46.1943 8.63382C46.3674 8.90961 47.0079 8.85445 46.589 9.48876C47.0391 9.28536 47.3369 9.60596 47.6693 9.47152C47.8943 9.29226 47.9601 9.01992 48.0744 8.77516C48.2302 8.26151 48.5245 7.79957 48.753 7.32729C48.9504 6.91361 49.3555 6.48615 49.7779 6.19657C50.0098 6.038 50.1657 5.86218 50.2868 5.63121C50.4288 4.99691 50.8408 4.51428 51.2044 4.00408C51.3359 3.82137 51.4952 3.71796 51.7376 3.76277C51.8726 3.7869 52.0111 3.76277 52.1461 3.70072C52.6413 3.4732 52.6447 3.47664 52.6447 4.01442C52.6447 4.14887 52.7105 4.29366 52.5962 4.41431C52.347 5.10377 51.9245 5.69327 51.5575 6.31723C51.0555 7.16871 50.4703 7.98917 50.1068 8.89926C49.577 10.2368 49.4455 11.6364 49.8506 13.074C50.1137 14.0116 50.1968 14.9907 50.0652 15.9731C50.0375 16.2972 49.9752 16.6075 49.5355 16.5626Z" fill="#5B8531"/>
<path d="M45.0517 11.3572C45.3772 10.9435 45.7753 10.6126 46.2739 10.4333C46.5163 10.3437 46.6167 10.1575 46.7067 9.95414C46.7552 9.84038 46.8175 9.77143 46.9352 9.80591C47.0149 9.83004 47.1291 9.87141 47.1499 9.93346C47.188 10.0438 47.0703 10.1127 46.9941 10.1748C46.6929 10.4333 46.3847 10.685 46.0766 10.9366C45.4603 11.3951 45.7615 11.7985 46.1493 12.1983C46.177 12.2983 46.177 12.3948 46.1285 12.4914C46.0973 12.5293 46.0593 12.5603 46.0177 12.5844C45.8342 12.6258 45.6611 12.7016 45.4776 12.7534C45.4049 12.7465 45.3391 12.712 45.2802 12.6706C45.0967 12.5569 45.0655 12.3983 45.1763 12.2018C45.0032 12.3569 45.0933 12.6327 44.8509 12.7223C44.0303 13.0567 43.1682 13.0154 42.3303 12.8878C41.7174 12.7947 41.6343 12.2121 42.0775 11.5709C42.1606 11.4399 42.2437 11.3089 42.3268 11.1779C42.7388 10.5161 42.7388 10.5161 41.939 10.4126C41.2015 10.3161 40.4433 10.2678 39.9551 9.58183C39.6919 9.19229 40.0209 9.00958 40.2563 8.84755C40.606 8.6028 41.0249 8.54074 41.4474 8.52695C41.5512 8.52695 41.6551 8.52695 41.8559 8.52695C41.5512 8.86134 41.4335 9.29915 40.9038 9.09231C40.8968 9.08887 40.8414 9.19918 40.8103 9.25778C40.8865 9.44394 41.115 9.43015 41.2258 9.57149C41.6793 9.82314 42.2091 9.7542 42.6904 9.82659C43.0608 9.88175 43.4105 9.93001 43.7429 10.1024C43.9437 10.2989 43.8503 10.4954 43.7118 10.6574C43.4348 10.9918 43.2547 11.3882 42.9396 11.764C43.3932 11.4675 43.8918 11.371 44.2519 11.0263C44.3177 10.9642 44.4112 10.9642 44.4873 11.0366C44.6258 11.1021 44.7262 11.2055 44.8024 11.3331C44.6328 11.8226 44.238 11.895 43.8537 11.8777C44.3592 12.0398 44.6397 11.5399 45.0517 11.3572Z" fill="#4F782E"/>
<path d="M52.6101 4.42121C52.5582 4.173 52.3989 3.93514 52.6828 3.62833C51.2528 4.11095 51.2667 4.12129 50.6538 5.03138C50.5084 5.24856 50.5846 5.51056 50.408 5.69326C50.2314 5.53814 50.1068 5.59674 50.0202 5.78979C49.8887 6.08281 49.6359 6.26897 49.397 6.45857C49.2585 6.56888 49.0611 6.66885 49.1373 6.32068C49.9441 5.3244 50.64 4.25229 51.3186 3.16983C51.464 2.93886 51.7306 2.71479 51.9869 2.6355C52.2812 2.54587 52.3712 2.26319 52.6274 2.1253C52.9079 1.97362 52.5547 1.76678 52.3089 1.70817C52.1565 1.60131 52.108 1.46341 52.2327 1.31518C52.3573 1.16695 52.5235 1.1566 52.6863 1.23934C52.3816 0.935975 51.9142 0.970449 51.5575 0.753268C51.4744 0.618823 51.097 0.663638 51.329 0.318907C51.3913 0.222382 51.1247 0.274092 51.0174 0.232724C51.7687 -0.139585 52.4716 -0.0637447 53.036 0.449905C53.0671 0.511956 53.0879 0.580903 53.081 0.646401C53.0602 0.94287 53.2472 0.753268 53.351 0.76361C54.0124 1.41515 54.227 3.11468 53.7181 3.86619C53.4584 4.24539 53.0914 4.45568 52.6101 4.42121Z" fill="#638F33"/>
<path d="M1.85497 44.0618C1.39101 44.3238 0.930513 44.6065 0.916663 45.2098C0.906276 45.6442 1.56413 46.3405 2.11811 46.4508C2.36394 46.4991 2.55783 46.8266 2.89715 46.5956C2.95601 46.5542 3.35418 46.8817 3.47537 47.1058C3.555 47.2506 3.29879 47.4885 3.12913 47.4712C2.90061 47.4505 2.65132 47.3333 2.46781 47.1851C2.15966 46.9369 1.90344 46.9852 1.62991 47.2127C1.39101 47.123 1.13479 47.061 0.99976 46.8128C0.913201 46.4784 1.26983 46.5853 1.38755 46.4405C1.21789 46.1888 0.9409 46.1061 0.701995 45.9682C0.383456 45.7855 0.300358 45.5511 0.501177 45.2305C0.539263 45.1719 0.497714 45.2477 0.528876 45.1857C0.823179 44.6203 0.823179 44.6203 0.279584 44.2721C0.255347 43.9308 0.587736 43.8791 0.767781 43.724C0.978986 43.5413 1.26983 43.4517 1.52604 43.3207C1.91037 43.3069 2.08002 43.5965 2.27738 43.8447C2.20813 44.0618 2.02809 44.0549 1.85497 44.0618Z" fill="#54A034"/>
<path d="M47.0356 21.7336C47.1291 21.7026 47.1499 21.5164 47.2711 21.5854C47.3853 21.6474 47.33 21.7681 47.2676 21.8508C46.9352 22.2783 46.7206 22.7609 46.5578 23.2746C46.4886 23.4986 46.2947 23.7158 46.7379 23.7296C46.7691 23.7296 46.7967 23.8778 46.8279 23.9537C46.7725 24.2122 46.5994 24.3949 46.4159 24.5673C46.2012 24.5811 46.1008 24.3742 45.9173 24.2984C45.4499 25.274 44.747 26.0393 44.0164 26.7839C43.8953 26.908 43.781 27.0494 43.7118 27.2045C43.5248 27.6285 43.3205 28.0181 42.7077 28.0284C43.4936 26.908 44.4354 25.9393 45.1383 24.7948C45.4083 24.2536 45.7927 23.7813 46.0627 23.2366C46.2532 22.8505 46.5301 22.5058 46.7067 22.1059C46.769 21.9611 46.8314 21.7784 47.0356 21.7336Z" fill="#54A034"/>
<path d="M0.283046 44.2721C1.05862 44.3997 1.13826 44.5479 0.667371 45.227C0.435391 45.5614 0.431929 45.7097 0.826641 45.882C1.06901 45.9889 1.35292 46.0923 1.51566 46.3336C1.57798 46.4267 1.67839 46.537 1.58144 46.6646C1.48449 46.7956 1.40486 46.6784 1.31484 46.6335C1.13133 46.5474 1.06555 46.6818 0.99976 46.8093C-0.00779405 46.175 -0.267473 45.2477 0.283046 44.2721Z" fill="#64A531"/>
<path d="M7.54021 48.0469C7.93146 48.2779 8.38503 48.2676 8.80052 48.3917C8.97017 48.4434 9.35104 48.2814 9.28179 48.7743C9.25063 48.9915 9.69728 48.7778 9.85308 48.9708C9.38566 48.9743 8.91131 49.0673 8.45428 48.9019C8.23961 48.733 8.13574 48.7157 7.75141 48.7847C7.41556 48.8088 7.0901 48.7709 6.79926 48.5813L6.81311 48.5537C6.87889 48.3296 6.97584 48.1262 7.16973 47.978C7.3013 47.9297 7.42941 47.947 7.54021 48.0469Z" fill="#64A531"/>
<path d="M48.4933 20.8925C48.476 20.8925 48.4587 20.8925 48.4414 20.8925C47.368 20.8994 47.3646 20.889 47.9185 19.8962C48.1401 20.1547 48.611 20.1237 48.618 20.5994C48.618 20.7132 48.5903 20.8166 48.4933 20.8925Z" fill="#54A034"/>
<path d="M53.3476 0.76361C53.1641 0.860135 53.4376 1.06353 53.2299 1.17384C52.9494 0.99458 52.8732 0.756715 53.029 0.449905C53.1502 0.542982 53.3684 0.53264 53.3476 0.76361Z" fill="#97B573"/>
<path d="M7.74795 48.7881C8.06303 48.3331 8.31578 48.7536 8.59277 48.8502C8.54776 48.8674 8.49929 48.8846 8.45428 48.9053C8.21191 48.9088 7.95916 48.9674 7.74795 48.7881Z" fill="#61A432"/>
<path d="M47.3265 23.1953C47.1257 23.1677 47.1049 23.0505 47.1915 22.9022C47.2815 22.7437 47.4096 22.6885 47.5792 22.7919C47.5308 22.9471 47.4754 23.1022 47.3265 23.1953Z" fill="#54A034"/>
<path d="M15.5522 47.1093C15.3791 47.0955 15.1332 47.1127 15.1678 46.8748C15.2025 46.6301 15.3375 46.3371 15.6214 46.3302C15.8292 46.3233 15.8707 46.2474 15.8776 46.1061C15.888 45.8648 15.6803 45.9441 15.5799 45.9613C15.0259 46.0578 14.4823 46.1199 14.0045 46.5267C13.7275 46.7645 13.3189 46.9645 12.8377 46.8404C12.4395 46.7404 12.0032 46.8024 11.5843 46.7921C11.4562 46.7887 11.3142 46.7714 11.283 46.637C11.245 46.4543 11.4319 46.4646 11.5323 46.4405C12.1175 46.2854 12.6403 45.9199 13.2843 45.9372C13.4747 45.9441 13.6998 45.8441 13.8071 45.6441C13.8521 45.558 13.7552 45.4821 13.6894 45.4304C13.4817 45.2753 13.2635 45.2787 13.0627 45.4373C12.5953 45.8062 12.0136 46.0165 11.47 46.0096C11.0303 46.0027 10.7395 46.1095 10.4278 46.344C10.3136 46.4301 10.2062 46.4991 10.1647 46.6508C10.1024 46.8955 9.91194 46.9403 9.71112 46.8645C9.40297 46.7473 9.08443 46.7887 8.77282 46.8024C8.53738 46.8128 8.12189 46.5749 8.27077 47.2299C8.34348 47.554 7.85182 47.5643 7.53675 47.423C7.29092 47.5815 7.09356 47.4747 6.91005 47.3092C7.0347 47.1472 7.4398 47.2023 7.33939 46.899C7.26668 46.668 7.00008 46.5956 6.72309 46.6266C5.43854 46.7783 4.20247 46.3543 2.93523 46.2991C2.64093 46.2854 2.47127 45.8475 2.589 45.4442C2.61323 45.4063 2.64439 45.3959 2.6894 45.4097C2.80366 45.5511 2.9664 45.7097 3.1222 45.5511C3.33687 45.3339 3.57578 45.4787 3.77313 45.4235C4.45176 45.2339 5.15809 45.7062 5.83671 45.2684C6.09639 45.1029 6.50495 45.2443 6.83388 45.3442C6.96891 45.3856 7.1455 45.4925 7.23206 45.4166C7.93492 44.7789 8.67241 45.2546 9.39258 45.3304C9.64188 45.358 9.73882 45.3098 9.93964 45.0995C10.2859 44.7375 10.826 44.5789 11.3488 44.4824C11.9305 44.3721 12.5364 44.3238 12.9762 43.8516C13.0385 43.7861 13.1216 43.7343 13.2116 43.7723C13.8279 44.0343 14.2711 43.7102 14.7281 43.3655C15.2786 42.9552 15.9053 42.6691 16.5874 42.6105C17.1276 42.5657 17.4599 42.1831 17.8373 41.9314C18.696 41.3626 19.5339 40.8696 20.6142 41.0179C20.8046 41.0454 20.9673 40.9868 21.0089 40.7662C21.0712 40.4249 21.2686 40.4146 21.5421 40.5352C21.9714 40.7283 22.2519 40.6421 22.2934 40.1181C22.3038 39.9802 22.3661 39.8285 22.5012 39.7734C23.2075 39.4873 23.4914 38.7495 24.0766 38.3324C24.2497 38.2083 24.409 38.0601 24.3605 37.767C24.3224 37.5257 25.3473 36.9569 25.5758 37.0741C25.8078 37.1913 25.9428 37.3741 25.877 37.6705C25.7835 38.0911 25.8839 38.4289 26.334 38.5979C26.4241 38.6323 26.5591 38.7254 26.5591 38.7943C26.5626 39.4252 27.0231 39.0184 27.1408 38.9805C27.4385 38.884 27.5113 38.5392 27.4108 38.2773C27.3174 38.0325 27.0508 38.2359 26.8638 38.2359C26.7495 38.2359 26.6145 38.3565 26.5314 38.2221C26.4379 38.067 26.566 37.9739 26.6872 37.8877C26.7703 37.8291 26.8603 37.7567 26.9019 37.6705C26.9677 37.5223 27.1754 37.3672 27.03 37.212C26.9088 37.081 26.7011 37.1396 26.5487 37.2534C26.4275 37.343 26.289 37.4223 26.1782 37.2844C26.0363 37.1121 26.2406 37.05 26.334 36.9707C26.4656 36.857 26.6283 36.7122 26.3202 36.6777C26.0397 36.6432 26.0467 36.4915 26.0917 36.3192C26.1436 36.1192 26.296 35.9951 26.521 36.0089C26.8015 36.0262 26.7322 36.2158 26.708 36.3916C26.7011 36.4536 26.7322 36.5191 26.7495 36.5881C27.4074 36.3123 27.4212 36.3226 27.4524 37.0535C27.8367 36.6811 27.861 36.264 27.7328 35.8159C27.7882 35.7193 27.8748 35.6849 27.9787 35.6883C28.8547 35.6366 29.4537 35.0712 30.0838 34.5679C30.205 34.4714 30.2985 34.3439 30.4716 34.3232C30.9667 34.2646 31.1433 33.9474 31.1191 33.4855C31.1156 33.1856 31.358 33.1477 31.5622 33.0684C31.8358 32.7581 32.0331 32.3823 32.3967 32.1514C32.4521 32.1135 32.5421 32.0342 32.5317 32.0031C32.3586 31.5205 32.8572 31.1379 32.7187 30.6587C32.6217 30.3243 32.8087 30.0313 33.0441 29.8865C33.792 29.4246 34.1279 28.711 34.3979 27.9422C34.4326 27.8457 34.4568 27.7181 34.5295 27.663C35.1978 27.1562 35.5128 26.3461 36.2018 25.8256C36.6831 25.4601 36.9428 24.8121 37.3133 24.2984C37.7426 23.702 38.3381 23.2022 38.4282 22.4058C39.2453 21.8198 39.6192 20.8718 40.2701 20.1513C40.3983 20.0065 40.561 19.9789 40.7341 20.1272C40.7999 20.1823 40.9038 20.1892 40.9661 20.103C40.9903 20.0686 41.0007 19.9755 40.9834 19.9617C40.4156 19.548 41.0319 19.3963 41.1669 19.1412C41.205 19.0723 41.2915 19.0275 41.3712 18.9551C41.392 19.5204 41.3643 19.3584 41.8905 19.2584C42.5796 19.1274 42.9396 18.6138 43.4763 18.3208C43.9645 18.0519 44.0995 17.259 43.7014 16.8867C43.5698 16.7626 42.9085 16.9729 42.7908 17.2314C42.673 17.4865 42.4514 17.6968 42.5103 18.0415C42.5588 18.3414 42.1294 18.5965 41.8421 18.4862C41.8005 18.469 41.7313 18.4138 41.7347 18.4069C41.9217 18.0691 41.6966 17.6003 42.1017 17.3176C42.4376 17.0832 42.9189 16.8729 42.5207 16.3075C42.4653 16.2282 43.0747 15.3078 43.1751 15.2871C43.2963 15.263 43.3101 15.3526 43.3447 15.4354C43.4278 15.625 43.4832 15.8318 43.6494 15.9731C44.0164 16.18 44.2138 16.4799 44.193 16.9074C44.6016 16.8591 45.024 16.3248 45.391 16.9694C45.488 16.8694 45.5468 16.7591 45.623 16.6661C45.9104 16.311 46.2185 16.0697 46.6894 16.373C46.776 16.4282 46.8937 16.4041 46.9906 16.4489C47.053 16.4937 47.053 16.5523 47.0356 16.6178C47.0218 16.673 46.9976 16.7247 46.9976 16.7833C47.0495 16.7522 47.0876 16.6936 47.1603 16.704C47.3992 16.5557 47.5827 16.6385 47.465 16.8936C47.368 17.1073 47.3853 17.3383 47.278 17.5313C47.1395 17.7795 47.1084 17.9554 47.4096 18.1243C47.5896 18.2242 47.7212 18.4414 47.413 18.6034C47.2261 18.7034 47.1776 18.8999 47.098 19.0723C46.8833 19.5204 46.9422 20.0892 46.4367 20.4064C46.3085 20.4857 46.2843 20.7063 46.2808 20.889C46.2705 21.5923 45.8827 22.0852 45.4083 22.5782C44.7609 23.2539 44.2207 24.0295 43.7325 24.8293C43.5525 25.1223 43.4209 25.4015 43.0574 25.5739C42.5934 25.7911 42.4168 26.3358 42.1121 26.7322C42.0083 26.8667 42.0948 27.0045 42.2714 27.1011C42.4791 27.2148 42.3649 27.4527 42.2264 27.4424C41.662 27.3975 41.6447 27.9043 41.43 28.187C41.2708 28.3973 41.1254 28.5869 40.8864 28.7248C40.0139 29.2281 39.4461 30.0692 38.6982 30.7138C38.6186 30.7828 38.5632 30.9 38.6601 30.9896C38.7709 31.0862 38.8471 30.9655 38.9198 30.9035C39.0756 30.7656 39.221 30.6104 39.3838 30.4794C39.4738 30.407 39.5984 30.4243 39.6642 30.5174C39.7542 30.6449 39.6296 30.6897 39.5465 30.7483C39.2522 30.9586 38.951 31.1517 38.809 31.5171C38.7502 31.6619 38.5667 31.748 38.4108 31.6274C38.0923 31.3792 37.8811 31.4688 37.6872 31.786C37.611 31.9135 37.4587 31.9307 37.2821 31.8342C37.7461 31.3688 37.9988 30.7621 38.4593 30.2933C37.9503 30.6346 37.4102 30.9069 37.0224 31.3757C36.7662 31.3068 36.5169 31.2344 36.3542 31C36.2746 30.8862 36.1603 30.8138 36.0564 30.9483C35.9422 31.0931 36.1187 31.1068 36.1915 31.1551C36.375 31.2792 36.375 31.4378 36.2849 31.6102C36.1984 31.7756 36.0564 31.9135 35.866 31.8308C35.499 31.6722 35.3882 31.8859 35.2358 32.1548C34.9173 32.7167 34.5191 33.2235 33.9548 33.5717C33.7678 33.6854 33.6397 33.8475 33.515 34.0129C32.8918 34.8575 32.2097 35.6504 31.3718 36.2847C30.9113 36.6363 31.313 36.9225 31.3683 37.2396C31.2091 37.4189 31.0637 37.6085 30.9148 37.7946C30.4335 37.3741 30.4404 37.381 29.9661 37.898C29.7757 38.1049 29.6233 38.3359 29.464 38.5668C29.2875 38.8185 29.104 39.1081 28.6989 38.9047C28.453 38.7806 28.4046 38.984 28.3457 39.1529C28.0652 39.9837 28.0202 39.9768 27.1304 40.0216C26.6941 40.0423 26.1332 39.9802 25.9636 40.6042C25.7143 40.9179 25.4442 41.1868 25.0599 41.3626C24.5959 41.5729 24.267 41.9797 23.9034 42.3347C23.6611 42.6553 23.5018 43.0621 22.9755 43.0518C22.8059 43.0483 22.7816 43.3138 22.6743 43.4482C22.4596 43.7137 22.2761 43.7619 22.1238 43.3724C22.1342 43.6275 22.1238 43.8653 21.9749 44.0687C20.6592 44.7168 19.2188 45.0409 17.872 45.589C17.2972 45.8234 16.674 46.0234 16.1615 46.4095C15.9642 46.5577 15.985 46.8197 15.8672 47.0093C15.7911 47.1368 15.7011 47.2092 15.5522 47.1093Z" fill="#54A034"/>
<path d="M37.341 21.313C37.3202 21.7405 37.1194 22.0749 36.8147 22.361C36.7662 22.4403 36.6935 22.4713 36.6035 22.4644C36.1776 22.361 35.9283 22.6506 35.6548 22.885C35.1597 23.1573 35.1597 23.1573 34.9831 22.4644C34.9796 22.2335 35.0766 22.068 35.2982 21.9853C35.6028 22.0232 35.8106 21.8853 35.8972 21.6026C35.9318 21.4888 35.8002 21.5854 35.7587 21.5474C35.589 21.4509 35.6132 21.2855 35.6132 21.1338C35.6167 20.8304 35.5301 20.6029 35.1943 20.5098C34.9138 20.434 34.9485 20.2237 35.0385 20.0099C35.1458 19.8203 35.2843 19.6514 35.4505 19.5066C35.8175 19.186 35.8106 19.0999 35.2739 18.9103C34.9242 18.7862 34.9935 18.6241 35.1458 18.4173C35.2774 18.238 35.4263 18.0691 35.5648 17.8933C35.8625 17.5141 36.2157 17.2831 36.7212 17.4348C36.9636 17.3969 37.1263 17.2762 37.1298 17.0108C37.1505 16.8074 37.0709 16.6247 36.9601 16.473C36.7281 16.1627 36.8632 15.8973 37.0778 15.687C37.2925 15.4733 37.4379 15.756 37.611 15.8284C37.6595 15.849 37.7114 15.849 37.7634 15.8594C37.94 16.1283 37.5764 16.2972 37.6353 16.5247C37.7184 16.3627 37.6734 16.0972 37.9677 16.0662C38.2585 16.0731 38.3277 15.8008 38.4939 15.6491C38.9648 15.3837 39.2557 14.97 39.4703 14.4908C39.5361 14.4598 39.6019 14.4253 39.6677 14.3943C39.6781 14.4081 39.6989 14.4322 39.6989 14.4322C40.2009 14.0358 40.7168 14.1564 41.2361 14.3839C41.849 14.6632 41.9079 14.87 41.5547 15.5457C41.5824 15.9042 41.3954 16.1524 41.16 16.4075C40.8484 16.7453 40.4467 17.0004 40.6302 17.6382C40.7445 18.0346 40.3117 18.4242 39.9274 18.6517C39.5188 18.8965 39.221 19.2929 38.7398 19.448C38.5286 19.517 38.3728 19.7652 38.2689 19.9927C38.0404 20.4926 37.618 20.8511 37.341 21.313Z" fill="#6BAC30"/>
<path d="M45.3495 12.5948C45.3841 12.6327 45.4187 12.6741 45.4499 12.712C45.623 12.8844 45.5676 13.1291 45.6403 13.3325C45.6576 13.4394 45.6542 13.5462 45.6022 13.6428C45.4291 13.8048 45.1763 13.8496 45.0448 14.084C44.9582 14.2392 44.7505 14.3184 44.5843 14.2529C44.1134 14.0702 44.0095 14.3288 43.9749 14.7045C43.9403 14.9321 43.8156 14.9458 43.646 14.839C43.459 14.7218 43.2651 14.6115 43.0955 14.4736C42.9327 14.3426 42.7804 14.2702 42.583 14.3805C42.5103 14.2702 42.3268 14.3081 42.2887 14.1564C42.2922 14.1219 42.2922 14.0909 42.2956 14.0564C42.3441 13.9392 42.448 13.8875 42.5657 13.8668C42.3199 13.8737 42.126 13.8117 42.0221 13.5773C42.0325 13.4049 42.1191 13.1705 41.7763 13.3084C41.6655 13.3532 41.5408 13.3532 41.4231 13.3291C41.2846 13.2705 41.108 13.2463 41.1323 13.0326C41.2431 12.8154 40.9972 12.4259 40.7237 12.4155C40.6095 12.4121 40.4883 12.4707 40.374 12.5017C40.2113 12.4362 40.0139 12.512 39.8685 12.3845C39.7127 12.0225 39.453 12.1363 39.2107 12.2742C39.0826 12.0225 39.5084 11.9501 39.3457 11.7571C39.1137 11.4847 38.9371 11.9536 38.7017 11.8502C38.7536 11.1297 39.4011 11.0297 39.8651 10.7505C40.0555 10.6367 40.1697 10.847 40.3048 10.947C40.3325 11.0194 40.3013 11.0883 40.2875 11.1573C40.3013 11.2951 40.3048 11.433 40.3359 11.5675C40.4329 11.9501 40.8414 12.0639 41.115 11.7847C41.2604 11.6364 41.3746 11.4399 41.5478 11.34C41.7867 11.2021 42.0671 11.1331 42.081 11.5744C42.081 11.5916 42.081 11.6089 42.0775 11.6261C41.8455 12.7568 41.9217 12.8637 43.1197 12.812C43.7187 12.7844 44.3385 12.8602 44.9167 12.6086C45.0621 12.5224 45.204 12.5465 45.3495 12.5948Z" fill="#6AAD30"/>
<path d="M30.9009 27.8043C31.4445 27.7147 31.8392 28.0284 32.2062 28.3352C32.5317 28.6041 32.2824 28.9902 32.2339 29.3004C32.1959 29.5314 32.0331 29.852 31.6661 29.8003C31.0187 29.7107 30.4854 29.8934 30.0561 30.4001C29.7757 30.7311 29.2736 30.7862 29.0382 31.1861C28.1691 31.0931 27.7155 31.7618 27.1477 32.2169C27.1096 32.2479 27.0646 32.2755 27.0196 32.3031C26.8465 32.5202 26.8188 32.896 26.4102 32.8477C26.2336 32.7547 26.1159 32.6823 26.3479 32.4823C26.9192 31.9928 26.9088 31.979 26.4587 31.4033C26.4275 31.3619 26.4102 31.3137 26.386 31.2654C26.3583 31.1689 26.3929 31.1344 26.4899 31.162C27.0369 31.3826 27.5424 31.0551 28.0687 31.0103C28.3803 30.9827 28.4565 30.5139 28.6296 30.2416C28.7646 30.0278 28.8581 29.9037 29.1559 29.9865C29.4537 30.0692 29.7791 30.0416 30.0665 29.8589C30.2569 29.7383 30.4197 29.6142 30.3262 29.3625C30.2673 29.2074 30.3192 29.0971 30.4197 28.9833C30.4681 28.9281 30.6032 28.842 30.4889 28.7834C29.7653 28.3904 30.5201 28.2146 30.6032 27.9422C30.6482 27.7871 30.7347 27.7147 30.9009 27.8043Z" fill="#54A034"/>
<path d="M37.341 21.313C37.3617 21.0683 37.6145 20.9028 37.5626 20.6339C37.5556 20.6029 37.5729 20.5443 37.5903 20.5374C38.2447 20.3581 38.1373 19.4377 38.7225 19.2929C39.2314 19.1688 39.4115 18.6552 39.8962 18.5483C40.1663 18.4897 40.2251 18.1587 40.4121 17.976C40.6198 17.7761 40.5921 17.5555 40.4086 17.3348C40.2701 17.1694 40.4225 17.0659 40.516 16.9384C40.8588 16.4696 41.3539 16.1145 41.5547 15.5422C41.7486 15.4492 41.9702 15.3388 42.1191 15.5629C42.2991 15.8284 41.9944 15.887 41.8732 16.0352C41.3504 16.6661 41.0076 17.4107 40.6406 18.1346C40.6025 18.207 40.6579 18.3346 40.6822 18.4311C40.786 18.8448 40.7964 19.1964 40.2251 19.224C40.1628 19.2274 40.0728 19.2688 40.0486 19.3205C39.7023 20.0065 38.9198 20.3719 38.6809 21.1372C38.6775 21.1545 38.6671 21.1682 38.6567 21.182C38.4732 21.4716 37.6318 21.5509 37.341 21.313Z" fill="#54A034"/>
<path d="M18.4329 37.9049C18.2528 38.7875 17.7127 39.3976 17.183 40.0112C17.1379 40.063 17.1206 40.1491 17.041 40.1285C16.5978 40.0078 16.3485 40.194 16.21 40.6042C16.1754 40.7076 15.9746 40.7593 15.9573 40.6835C15.8118 39.9871 15.3029 40.5283 15.0017 40.3905C14.8216 40.3077 14.5135 40.6249 14.4581 40.3387C14.4027 40.0595 14.3438 39.6493 14.6935 39.4631C15.6283 38.9564 16.487 38.291 17.595 38.1463C17.8685 38.1118 18.1109 37.8808 18.4329 37.9049Z" fill="#8DBE52"/>
<path d="M12.0517 42.152C10.8399 43.5585 9.48607 44.4376 7.54713 43.8343C7.63369 43.4999 7.93492 43.4137 7.96954 43.1517C7.97301 43.1207 8.00763 43.0966 8.02841 43.069C8.43351 43.5103 8.47159 42.8829 8.69665 42.8036C9.01172 42.6967 9.35104 42.5726 9.64534 42.3795C9.92926 42.1934 10.279 42.1762 10.5698 41.9762C10.9056 41.7452 11.2103 41.8176 12.0517 42.152Z" fill="#8ABE51"/>
<path d="M35.1285 20.0513C35.087 20.172 34.9588 20.3823 35.1458 20.3926C35.8833 20.4374 35.731 20.9338 35.7136 21.3785C35.7102 21.4233 35.7483 21.4716 35.769 21.5199C35.7967 21.8301 35.5613 21.9301 35.3466 22.0473C35.1597 22.1266 35.1077 22.3059 35.035 22.4679C34.99 22.8574 34.6922 23.1022 34.4983 23.409C34.4291 23.3297 34.256 23.8227 34.2421 23.3504C34.2317 23.0332 33.9236 23.3159 33.7816 23.1953C33.7782 22.8885 33.9998 22.6885 34.1486 22.4679C34.2906 22.2576 34.4706 22.0714 34.6126 21.7405C34.0656 22.099 33.7886 22.5644 33.4943 23.0057C33.3869 23.1642 33.3177 23.3745 33.0995 23.3814C32.8433 23.3918 32.9853 23.1332 32.9057 23.0332C32.6598 22.7195 32.5906 23.2573 32.3344 23.1332C32.5248 22.9643 32.5317 22.6299 32.923 22.6954C33.0684 22.7195 33.148 22.5265 33.1896 22.4162C33.4562 21.706 33.8924 21.1234 34.4845 20.6546C34.758 20.4409 34.8619 20.1272 35.0108 19.8376C35.1112 19.8755 35.0662 19.9927 35.1285 20.0513Z" fill="#8EC056"/>
<path d="M47.0183 16.4937C46.9006 16.5144 46.769 16.5833 46.6686 16.5523C45.9485 16.3524 45.9138 16.3627 45.5434 17.1039C45.5018 17.1866 45.4672 17.2693 45.3737 17.2797C45.2941 17.29 45.256 17.2245 45.2456 17.1487C45.2214 16.9867 45.2248 16.6764 45.0413 16.7591C44.792 16.8729 44.4354 16.7764 44.2865 17.097C44.2588 17.159 44.2415 17.2314 44.0753 17.2349C44.2173 16.7212 43.923 16.3489 43.6633 15.9628C43.691 15.7112 43.7152 15.4561 44.0857 15.5422C44.4769 15.6284 44.2207 15.9352 44.29 16.1317C44.4562 15.6353 44.6224 15.5905 44.979 15.9766C45.0656 16.0697 45.1106 16.2076 45.2421 16.0524C45.4153 15.8525 45.1486 15.918 45.1002 15.8559C44.9374 15.6422 44.8751 15.4285 44.9686 15.1734C45.1521 15.132 45.121 14.9976 45.0967 14.8666C45.121 14.7321 45.1383 14.5942 45.0967 14.4598C45.0413 14.2736 44.9963 14.0599 45.1798 13.9427C45.3945 13.8048 45.5676 13.9634 45.7199 14.1116C45.9173 14.3391 45.945 14.6494 46.0835 14.9045C46.312 15.3216 46.5855 15.3837 46.9595 15.1079C47.1084 14.9976 47.233 14.8355 47.4581 14.9079C47.4927 15.4181 47.2469 15.8421 47.0391 16.28C47.091 16.3558 47.091 16.4282 47.0183 16.4937Z" fill="#6AAD30"/>
<path d="M28.3803 27.7836C28.6815 27.4492 28.9308 27.0804 29.142 26.677C29.4329 26.122 29.9695 25.7566 30.4647 25.4636C30.6932 25.3291 30.9044 25.2292 31.0671 25.0085C31.1814 24.85 31.403 24.8052 31.538 24.912C31.7146 25.0499 31.7977 25.3016 31.6834 25.5084C31.4895 25.8635 31.3476 26.2496 30.9702 26.5047C30.759 26.6495 30.6482 26.9459 30.4924 27.1735C30.2431 27.5802 30.0803 28.0939 29.4398 28.0112C29.0936 27.9077 28.7577 28.4248 28.408 28.0284C28.3007 27.9594 28.4149 27.8664 28.3803 27.7836Z" fill="#8BBE52"/>
<path d="M26.4933 31.1689C26.4587 31.2034 26.4241 31.2378 26.3894 31.2723C26.1021 31.7308 25.5412 31.7825 25.1499 32.0928C24.9526 32.2514 24.6756 32.3134 24.5578 32.5995C24.9629 32.7409 25.1603 32.3203 25.5065 32.2996C25.188 32.6512 24.9872 33.0477 24.4228 33.2028C23.8723 33.3545 23.256 33.351 22.7366 33.7061C23.1867 33.1821 23.3114 32.4685 23.8169 31.9997C24.2878 31.5619 24.7898 31.1586 25.2919 30.7552C25.5966 30.5105 26.0328 30.5829 26.2821 30.2519C26.3306 30.1864 26.4552 30.2209 26.5072 30.3071C26.5695 30.4036 26.5141 30.4691 26.4241 30.5105C26.3929 30.5242 26.3514 30.5242 26.3271 30.5449C26.1644 30.6587 25.8181 30.6794 25.9636 30.9793C26.1436 31.3482 26.3548 30.9862 26.5383 30.9138C26.6041 31.031 26.5106 31.0896 26.4933 31.1689Z" fill="#8ABE52"/>
<path d="M45.0275 15.132C45.069 15.4147 44.889 15.818 45.4499 15.8111C45.5711 15.8111 45.6161 16.0318 45.436 16.0938C45.3218 16.1317 45.2629 16.1593 45.2317 16.28C45.1556 16.5764 45.0032 16.4661 44.9513 16.2869C44.889 16.0766 44.8613 15.8559 44.6085 15.8318C44.2969 15.8008 44.4596 16.1834 44.2346 16.2765C44.0822 16.0628 44.3073 15.7456 44.0788 15.5457C43.7914 15.2975 44.1757 14.9665 43.9749 14.708C43.8468 14.4977 43.8226 14.284 43.9853 14.084C44.1653 13.8634 44.3281 14.0702 44.4908 14.1288C44.7228 14.215 44.9271 14.1599 45.0067 13.9427C45.1106 13.6566 45.3148 13.6566 45.5434 13.66C45.7338 13.8048 45.8134 13.9703 45.6507 14.1874C45.5018 14.1288 45.3841 13.8875 45.2075 14.0289C45.0448 14.1599 45.1556 14.3322 45.2594 14.4839C45.3876 14.6701 45.2594 14.8011 45.1348 14.9217C45.0413 14.9596 45.0829 15.07 45.0275 15.132Z" fill="#54A034"/>
<path d="M41.1323 13.0326C41.2396 13.1015 41.3435 13.1705 41.4508 13.2429C41.5512 13.367 41.7417 13.4463 41.662 13.6634C41.3573 13.8117 41.4958 14.2185 41.2361 14.3908C41.1115 14.4115 41.0284 14.6597 40.8864 14.5011C40.464 14.0151 40.1386 14.2874 39.8097 14.608C39.7646 14.6528 39.6885 14.7287 39.6435 14.6459C39.6123 14.5839 39.6573 14.4839 39.6677 14.4012C39.8304 14.3115 39.8962 14.2185 39.7716 14.0289C39.4288 13.5118 39.9481 13.3428 40.2113 13.1498C40.4537 12.9671 40.7687 12.5569 41.1323 13.0326Z" fill="#93C158"/>
<path d="M36.6035 22.4644C36.6485 22.3817 36.7281 22.361 36.8147 22.361C37.0744 22.3989 37.3306 22.4369 37.5903 22.4713C37.7011 22.4886 37.8049 22.5265 37.8188 22.6471C37.8326 22.7781 37.6941 22.8471 37.6145 22.8402C36.7593 22.785 36.5966 23.5434 36.1222 23.9709C35.6963 24.357 35.4782 24.8741 35.0419 25.2119C34.9346 25.2947 34.8169 25.4153 34.6715 25.2947C34.5157 25.1637 34.3668 25.0189 34.2352 24.8603C34.2006 24.8189 34.2837 24.7155 34.3564 24.7328C35.1112 24.9155 35.222 24.1674 35.6444 23.864C36.1361 23.5159 36.1153 22.8195 36.6035 22.4644Z" fill="#54A034"/>
<path d="M31.5969 31.6481C31.5242 31.9032 31.3753 32.048 31.1987 32.1652C31.1294 32.21 30.991 32.179 30.9529 32.2307C30.5478 32.8029 29.7791 32.9753 29.426 33.5993C29.2217 33.9612 28.7058 34.044 28.3838 33.7578C28.2626 33.651 28.3492 33.5406 28.4288 33.5062C28.7854 33.3373 28.9897 32.8994 29.4606 32.9374C29.6579 32.9546 29.741 32.8271 29.7583 32.6512C29.7791 32.4513 29.8588 32.2858 30.0423 32.1824C30.4023 31.979 30.8525 31.9445 31.1121 31.5309C31.1779 31.4205 31.5034 31.4102 31.5969 31.6481Z" fill="#54A034"/>
<path d="M27.3485 34.9506C27.4178 34.7851 27.4351 34.6852 27.2031 34.6093C26.8673 34.499 26.8499 34.1922 26.978 33.9233C27.1027 33.6647 27.3035 33.5993 27.5078 33.8888C27.539 33.9336 27.6497 33.9578 27.7051 33.9405C28.3422 33.713 28.0064 34.4749 28.3491 34.5886C28.4149 34.6128 27.8125 35.3401 27.5909 35.3264C27.3381 35.3126 27.3381 35.1333 27.3485 34.9506Z" fill="#54A034"/>
<path d="M33.4423 25.9255C33.0649 25.9462 32.6287 25.8428 32.8572 26.5323C32.9437 26.7943 32.5213 27.0252 32.2755 27.201C32.1335 27.3045 31.9916 27.1597 31.9639 26.9701C31.9362 26.9253 31.9466 26.8908 31.995 26.8701C32.2097 26.746 32.3309 26.6081 32.3621 26.3151C32.4036 25.9428 32.781 25.7428 33.0961 25.5946C33.3246 25.4946 33.4077 25.729 33.4423 25.9255Z" fill="#54A034"/>
<path d="M34.4983 23.409C34.4983 22.9953 34.8342 22.7712 35.035 22.4679C35.3778 22.5196 35.1458 22.754 35.1735 22.9126C35.3397 23.0126 35.4921 22.8367 35.6548 22.885C35.8348 23.4366 35.3016 23.3469 35.0662 23.4504C34.9623 23.4986 34.6715 23.5848 34.4983 23.409Z" fill="#54A034"/>
<path d="M5.43508 47.6264C5.14077 47.5712 4.90879 47.747 4.64912 47.816C4.23709 47.9194 3.86662 47.6195 3.73505 47.1334C4.18169 47.0196 4.51408 47.3609 4.91572 47.4161C5.10269 47.3437 5.28273 47.292 5.442 47.4747C5.46624 47.5264 5.46624 47.5781 5.43508 47.6264Z" fill="#54A034"/>
<path d="M18.0416 40.6697C17.7092 40.9455 17.4669 41.3178 16.9994 41.3316C16.8194 41.3385 16.5597 41.3936 16.5389 41.1282C16.5182 40.8662 16.7571 40.6869 16.9821 40.7283C17.3422 40.7938 17.6781 40.8214 18.0416 40.6697Z" fill="#54A034"/>
<path d="M7.54021 48.0469C7.40171 48.0469 7.25975 48.0504 7.12126 48.0504C6.89967 48.4606 6.55689 48.3882 6.2245 48.2469C5.96136 48.1331 5.9579 47.9745 6.17257 47.7332C6.53265 47.8022 6.86504 47.6091 7.22167 47.6367C7.33593 47.7677 7.56098 47.8125 7.54021 48.0469Z" fill="#54A034"/>
<path d="M33.4458 25.9255C33.6639 25.9428 33.6328 25.7015 33.7609 25.6222C33.9513 25.4981 34.1417 25.4739 34.3495 25.5946C34.5087 25.6877 34.5122 25.8083 34.4326 25.9462C34.3218 26.1358 34.256 26.3875 33.9374 26.2806C33.7332 26.2117 33.4562 26.2565 33.4458 25.9255Z" fill="#54A034"/>
<path d="M29.4398 28.0146C29.973 27.9594 30.1011 27.4044 30.4924 27.1769C30.5893 27.3355 30.617 27.5113 30.5997 27.694C30.5893 27.7664 30.5512 27.8078 30.4785 27.8112C30.3192 27.9422 30.1738 28.1008 29.9972 28.2042C29.7618 28.3352 29.5264 28.3593 29.4398 28.0146Z" fill="#54A034"/>
<path d="M33.4077 26.7667C33.5843 26.7839 33.8474 26.7253 33.8197 27.0149C33.7955 27.2838 33.5843 27.4561 33.3211 27.4699C33.0684 27.4803 33.0511 27.2424 33.0303 27.0563C33.0026 26.7736 33.1896 26.7494 33.4077 26.7667Z" fill="#54A034"/>
<path d="M6.67461 43.9515C7.01739 43.9308 7.39825 43.8102 7.53328 44.3066C7.55752 44.3997 7.66139 44.4755 7.57137 44.5789C7.49866 44.6617 7.41556 44.6065 7.33247 44.5996C6.9516 44.5824 6.79926 44.2687 6.58459 44.0377C6.58459 43.9825 6.61575 43.955 6.67461 43.9515Z" fill="#54A034"/>
<path d="M36.7004 14.2805C36.4546 14.6149 36.1845 14.9355 35.9733 15.2906C35.776 15.6181 35.6548 15.9973 35.2012 16.2869C35.6028 15.4457 36.0599 14.7873 36.5862 14.1805C36.6554 14.1737 36.6693 14.2357 36.7004 14.2805Z" fill="#93C163"/>
<path d="M6.17257 47.7332C5.9579 48.1641 6.27644 48.1986 6.56382 48.2572C6.79233 48.302 6.94468 48.1503 7.12126 48.0504C7.15588 48.302 6.95853 48.4158 6.80964 48.5571C6.52227 48.3365 5.99945 48.4572 5.8748 48.109C5.77785 47.8401 5.6082 47.7643 5.43854 47.6264C5.43854 47.5919 5.43854 47.554 5.43854 47.5195C5.70861 47.4437 5.96136 47.454 6.17603 47.6643C6.17257 47.6884 6.17257 47.7091 6.17257 47.7332Z" fill="#61A432"/>
<path d="M36.7004 14.2805C36.6623 14.246 36.6243 14.2116 36.5862 14.1771C37.0744 13.5531 37.6768 13.074 38.4074 12.7465C37.8707 13.2946 37.1678 13.6566 36.7004 14.2805Z" fill="#CBDFB4"/>
<path d="M25.4338 27.8767C25.877 27.4044 26.3202 26.9321 26.7634 26.4599C26.7945 26.4909 26.8292 26.5219 26.8603 26.5529C26.5141 27.1149 26.019 27.5492 25.4338 27.8767Z" fill="#C5DCAC"/>
<path d="M31.5692 33.058C31.4203 33.1959 31.2749 33.3373 31.126 33.4751C30.8905 33.8888 30.3954 33.9095 30.018 34.1508C30.0942 34.0577 30.1531 33.9198 30.25 33.8785C30.6897 33.7027 30.9806 33.3614 31.2887 33.0339C31.3718 32.9477 31.5034 32.7684 31.5692 33.058Z" fill="#BFDA9D"/>
<path d="M37.9677 16.0697C37.7288 16.2386 37.8188 16.5937 37.566 16.7833C37.3756 16.411 37.7495 16.1731 37.7634 15.8628C37.94 15.6353 38.1165 15.4078 38.352 15.1044C38.3935 15.5664 37.9434 15.7249 37.9677 16.0697Z" fill="#99C564"/>
<path d="M24.1181 34.6403C24.4851 34.3577 24.8487 34.0715 25.2192 33.7923C25.2815 33.744 25.375 33.6923 25.4546 33.7751C25.5169 33.8371 25.4927 33.9061 25.4269 33.9474C25.0183 34.2198 24.6098 34.4887 24.2012 34.761C24.1735 34.7196 24.1458 34.6817 24.1181 34.6403Z" fill="#A2CA72"/>
<path d="M28.6504 32.7098C28.4599 32.8926 28.5257 33.2752 28.176 33.3304C28.0514 33.351 27.899 33.2028 27.9337 33.1132C28.0271 32.8684 28.2349 32.6961 28.4634 32.5685C28.5465 32.5237 28.6227 32.603 28.6504 32.7098Z" fill="#54A034"/>
<path d="M6.67461 43.9515C6.64345 43.9826 6.61575 44.0136 6.58459 44.0412C6.03407 44.0791 5.54934 44.41 4.9815 44.3824C5.52856 44.179 6.02022 43.7723 6.67461 43.9515Z" fill="#9BC66F"/>
<path d="M4.62834 44.4204C4.17477 44.7203 3.69003 44.903 3.08065 44.7651C3.58963 44.4824 4.12976 44.541 4.62834 44.4204Z" fill="#BAD69B"/>
<path d="M39.4669 14.4943C39.3838 15.1079 38.9406 15.6319 38.4905 15.6525C38.8159 15.2664 39.1414 14.8803 39.4669 14.4943Z" fill="#A4CB73"/>
<path d="M6.17257 47.6677C5.93366 47.5919 5.66013 47.6712 5.43508 47.5229C5.27581 47.4092 5.0923 47.4195 4.91226 47.4161C4.94688 47.3161 5.04037 47.3265 5.12 47.3058C5.32774 47.1506 5.53895 47.1541 5.75015 47.2989C5.90942 47.3506 6.07908 47.385 6.2245 47.4609C6.42532 47.5678 6.31106 47.6264 6.17257 47.6677Z" fill="#AACC83"/>
<path d="M41.6586 13.66C41.5893 13.5187 41.5166 13.3808 41.4474 13.2394C41.5478 13.2256 41.6516 13.2222 41.7451 13.1912C41.894 13.1429 42.074 13.0671 42.1779 13.1774C42.2956 13.3049 42.0983 13.4394 42.074 13.5842C41.9806 13.6772 41.8628 13.6497 41.7486 13.6566C41.7209 13.66 41.6897 13.66 41.6586 13.66Z" fill="#54A034"/>
<path d="M20.7181 36.4123C20.5796 36.8087 20.171 36.8052 20.0152 37.0707C20.0083 37.081 19.8559 37.0328 19.8005 36.9811C19.7417 36.9259 19.7971 36.857 19.8559 36.8121C20.0983 36.6329 20.3545 36.4846 20.7181 36.4123Z" fill="#C5DDA7"/>
<path d="M41.752 13.66C41.8386 13.5462 41.9563 13.5635 42.0775 13.5842C42.2506 13.8013 42.5796 13.6807 42.77 13.8944C42.635 14.0461 42.4411 13.9772 42.2991 14.0599C42.1918 13.822 41.8905 13.8496 41.752 13.66Z" fill="#B4D282"/>
<path d="M15.5383 37.6498C15.3306 38.0773 14.9636 38.2945 14.6139 38.5358C14.5758 38.4875 14.5412 38.4427 14.5031 38.3945C14.8493 38.1497 15.1921 37.898 15.5383 37.6498Z" fill="#CADFAE"/>
<path d="M1.85497 44.0618C1.99347 43.9894 2.13542 43.9171 2.27392 43.8481C2.49205 43.8205 2.71018 43.7929 2.92831 43.7654C2.58207 43.9136 2.30854 44.3342 1.85497 44.0618Z" fill="#AACE8A"/>
<path d="M5.75015 47.2989C5.53895 47.3023 5.33121 47.3023 5.12 47.3058C5.12 47.1265 5.12692 46.93 5.35198 46.9162C5.59435 46.9024 5.71207 47.0713 5.75015 47.2989Z" fill="#54A034"/>
<path d="M21.3482 31.8101C21.6564 31.5171 21.968 31.2206 22.2761 30.9276C22.3142 30.9689 22.3558 31.0103 22.3938 31.0517C22.0788 31.3378 21.7672 31.6239 21.4521 31.9135C21.4175 31.879 21.3828 31.8446 21.3482 31.8101Z" fill="#B6D48D"/>
<path d="M31.4411 21.837C31.3718 22.3334 30.9148 22.5506 30.6551 22.9091C30.8213 22.4817 31.0567 22.1025 31.4445 21.8405L31.4411 21.837Z" fill="#9BC568"/>
<path d="M39.8685 12.381C40.0659 12.2983 40.239 12.319 40.374 12.4983C40.0901 12.6637 39.7958 12.6362 39.4842 12.5741C39.5465 12.3259 39.7508 12.45 39.8685 12.381Z" fill="#9EC76B"/>
<path d="M23.5953 35.1816C23.7615 34.8299 24.0973 35.0333 24.3293 34.8885C24.1839 35.3057 23.8411 35.0885 23.5953 35.1816Z" fill="#A2CA72"/>
<path d="M33.6812 19.1274C33.8024 18.7793 34.1002 18.5483 34.3702 18.2932C34.1833 18.6 33.9928 18.9103 33.8059 19.2171C33.7609 19.186 33.7228 19.155 33.6812 19.1274Z" fill="#9BC56A"/>
<path d="M31.4445 21.8405C31.4445 21.3923 31.8392 21.2131 32.0643 20.9235C31.8773 21.2406 31.8219 21.6543 31.4376 21.837C31.4411 21.837 31.4445 21.8405 31.4445 21.8405Z" fill="#96C162"/>
<path d="M6.91005 47.3058C7.1178 47.3437 7.329 47.3816 7.53675 47.4195C7.54367 47.6574 7.37748 47.6333 7.22167 47.6298C7.05201 47.4333 6.73347 47.616 6.58459 47.3713C6.67461 47.2713 6.80272 47.3402 6.91005 47.3058Z" fill="#9BC769"/>
<path d="M31.9985 26.8701C31.9881 26.9046 31.9777 26.939 31.9673 26.9701C31.6834 27.0769 31.5899 27.4768 31.2091 27.432C31.4895 27.27 31.5796 26.8494 31.9985 26.8701Z" fill="#A9CD78"/>
<path d="M30.4474 30.8345C30.3712 30.9483 30.43 31.1758 30.2396 31.1965C30.0907 31.2137 30.0769 31.0551 30.0838 30.9345C30.0907 30.7794 30.1669 30.6725 30.3262 30.6621C30.4266 30.6552 30.4785 30.7207 30.4474 30.8345Z" fill="#54A034"/>
<path d="M33.8543 24.9844C33.7435 24.7741 33.702 24.619 33.8717 24.4915C33.9409 24.4397 34.0794 24.4397 34.1036 24.5121C34.1729 24.7293 33.9755 24.8121 33.8543 24.9844Z" fill="#54A034"/>
<path d="M21.4175 36.819C21.3413 37.1569 21.0643 37.212 20.8323 37.3396C20.8011 37.2982 20.7665 37.2534 20.7354 37.212C20.9639 37.081 21.1889 36.95 21.4175 36.819Z" fill="#9DC76B"/>
<path d="M28.3803 27.7836C28.543 27.8491 28.4115 27.9457 28.4045 28.0318C28.2072 28.2145 28.0133 28.3973 27.8159 28.58C27.9233 28.2663 28.1102 27.9974 28.3803 27.7836Z" fill="#C1DAA7"/>
<path d="M37.1298 17.0142C37.3479 16.9384 37.4171 17.0211 37.2717 17.19C37.1021 17.3831 36.8839 17.5313 36.6831 17.7002C36.555 17.5934 36.7143 17.5279 36.7212 17.4417C36.8943 17.3314 37.0328 17.1935 37.1298 17.0142Z" fill="#9FC96F"/>
<path d="M26.4102 32.8546C26.7357 32.8098 26.7391 32.4065 27.0196 32.31C26.9919 32.6823 26.9053 32.9925 26.4102 32.8546Z" fill="#A5CC7C"/>
<path d="M20.5692 32.6237C20.7665 32.3996 20.9431 32.2031 21.1612 31.9583C21.0989 32.2789 21.0989 32.2789 20.5692 32.6237Z" fill="#A6CC7A"/>
<path d="M42.2887 14.1599C42.4307 14.1771 42.628 14.1254 42.583 14.3839C42.4064 14.3219 42.351 14.7045 42.1641 14.5149C42.0152 14.3633 42.2125 14.2667 42.2887 14.1599Z" fill="#B6D38F"/>
<path d="M40.2909 11.1538C40.1836 11.0745 40.2805 11.0125 40.3082 10.9435C40.5264 10.947 40.7618 10.8815 40.973 11.1228C40.7203 11.1366 40.5056 11.1435 40.2909 11.1538Z" fill="#A1C970"/>
<path d="M42.6834 15.0837C42.4791 15.2699 42.3164 15.2768 42.1537 15.1217C42.1294 15.0975 42.1225 15.001 42.1398 14.9872C42.3407 14.8597 42.4757 15.0286 42.6834 15.0837Z" fill="#6BAC30"/>
<path d="M2.69287 45.4063C2.65824 45.4166 2.62708 45.427 2.59246 45.4408C2.41934 45.427 2.24276 45.4201 2.20121 45.1271C2.41241 45.1926 2.66517 45.065 2.69287 45.4063Z" fill="#C2D9A0"/>
<path d="M31.5345 24.195C31.5519 24.557 31.3891 24.6431 31.2022 24.8017C31.1537 24.4846 31.3441 24.4018 31.5345 24.195Z" fill="#B4D48D"/>
<path d="M27.9856 35.678C27.9025 35.7193 27.8194 35.7607 27.7398 35.8055C27.6463 35.6745 27.7605 35.5918 27.8194 35.5022C27.861 35.4367 27.9406 35.347 28.0168 35.4125C28.1102 35.4884 27.9683 35.5815 27.9856 35.678Z" fill="#C2DBA2"/>
<path d="M19.3158 38.0945C19.1565 38.3565 19.0076 38.46 18.748 38.3634C18.8587 38.1497 19.0423 38.1187 19.3158 38.0945Z" fill="#ADCF7C"/>
<path d="M20.4895 35.6504C20.3026 35.9641 20.036 35.9503 19.8386 36.0503C19.9909 35.8676 20.1571 35.7125 20.4895 35.6504Z" fill="#A2C977"/>
<path d="M23.3529 35.2574C23.2352 35.5228 23.1383 35.6711 22.8751 35.6573C22.9409 35.4367 23.069 35.3264 23.3529 35.2574Z" fill="#A2CA72"/>
<path d="M12.6784 41.0385C12.5572 41.2695 12.4291 41.366 12.1867 41.3074C12.2664 41.0868 12.4083 41.0248 12.6784 41.0385Z" fill="#B8D595"/>
<path d="M30.4785 27.8112C30.5201 27.7733 30.5616 27.7319 30.5997 27.694C30.7347 27.6871 30.8351 27.5079 30.9667 27.594C31.0464 27.6457 30.9217 27.7319 30.9009 27.8078C30.8005 27.856 30.7036 27.9008 30.6032 27.9491C30.5616 27.9008 30.5201 27.856 30.4785 27.8112Z" fill="#A7CC7A"/>
<path d="M35.1285 20.0513C35.0281 20.0134 35.0108 19.9307 35.0108 19.841C35.1527 19.7273 35.2324 19.5308 35.447 19.5135C35.3778 19.7135 35.2947 19.9065 35.1285 20.0513Z" fill="#CEE2B1"/>
<path d="M25.8632 40.6007C25.8874 40.1836 26.1332 40.0561 26.5245 39.9492C26.9261 39.8423 27.3208 39.9837 27.7017 39.8665C28.0341 39.763 28.1622 39.5286 28.2072 39.1735C28.2418 38.8874 28.273 38.36 28.8339 38.8254C29.0693 39.0219 29.2424 38.7013 29.3013 38.5703C29.4952 38.1256 29.9003 37.8601 30.1461 37.4637C30.2292 37.3292 30.3435 37.1327 30.5478 37.1913C30.7243 37.2431 30.8074 37.4051 30.8213 37.5981C30.8248 37.6567 30.8836 37.7119 30.9182 37.7705C31.0325 37.5706 31.2818 37.5188 31.4134 37.3361C31.5034 37.2086 31.3441 37.2913 31.3407 37.2465C30.8248 36.5984 30.8248 36.5364 31.4272 36.071C32.2547 35.4332 32.9022 34.6265 33.5289 33.8095C33.8543 33.3855 34.3876 33.2097 34.6853 32.7409C34.8584 32.4685 35.1181 32.2376 35.2151 31.917C35.3189 31.5757 35.5128 31.4895 35.7967 31.6825C36.0564 31.8584 36.143 31.6929 36.2192 31.5067C36.3299 31.2413 36.1984 31.2034 35.9664 31.2551C35.8729 31.2758 35.7829 31.2344 35.7829 31.1241C35.7794 30.9207 35.9491 30.8311 36.0737 30.7173C36.1568 30.6415 36.323 30.6139 36.3403 30.7207C36.4061 31.1241 36.8562 31.0999 37.0224 31.3792C36.832 31.6791 36.4338 31.7722 36.2849 32.1135C36.2815 32.3996 36.0703 32.31 35.9595 32.2514C35.589 32.048 35.3882 32.2479 35.2566 32.5409C35.1181 32.8546 34.8896 33.0684 34.6542 33.3028C34.346 33.613 34.0794 34.0198 33.9201 34.3956C33.6501 35.0368 33.1411 35.3608 32.6494 35.7297C32.4209 35.9021 32.2374 36.102 32.0574 36.3123C31.9327 36.4605 31.9396 36.5915 32.0712 36.726C32.1785 36.7604 32.2824 36.7984 32.3898 36.8328C32.5594 36.8121 32.736 36.8018 32.8329 36.9707C32.9091 37.0983 32.8052 37.1845 32.7048 37.2534C31.905 37.7395 31.0394 38.1256 30.3885 38.8254C30.2881 38.9081 30.1669 38.9081 30.0457 38.9116C29.6302 38.9288 29.3082 39.0736 29.2044 39.5217C29.1801 39.6251 29.0936 39.6941 29.0209 39.7699C28.6435 39.963 28.1276 39.8561 27.861 40.2939C27.5667 40.5559 27.255 40.7834 27.0334 41.1351C26.8638 41.404 26.618 41.628 26.2648 41.7521C25.3126 42.0865 24.5301 42.7519 23.6334 43.2035C23.0759 43.4827 22.5081 43.7481 21.968 44.0653C21.9784 43.8964 22.0268 43.7171 21.9887 43.5585C21.9541 43.4137 21.8018 43.2827 22.0164 43.1724C22.0857 43.138 22.1965 43.1242 22.2657 43.1517C22.4839 43.2483 22.2034 43.4344 22.3281 43.5654C22.4943 43.5758 22.5531 43.4344 22.6016 43.3207C22.7193 43.0345 22.8163 42.7691 23.2352 42.8898C23.3598 42.9242 23.5122 42.7898 23.5607 42.6105C23.6022 42.4657 23.6542 42.3037 23.855 42.2934C23.9485 42.1382 24.1077 42.0555 24.2531 41.9693C24.8037 41.6453 25.3888 41.3764 25.7801 40.8386C25.8562 40.7352 25.9809 40.6421 26.1263 40.6214C26.2648 40.5973 26.3964 40.5628 26.4656 40.4146C26.386 40.487 26.296 40.5318 26.2094 40.5766C26.0986 40.5904 25.9878 40.6628 25.8632 40.6007Z" fill="#509734"/>
<path d="M45.6542 14.184C45.6195 14.0082 45.5814 13.8324 45.5468 13.6566C45.5468 13.5566 45.5434 13.4532 45.5434 13.3532C45.4706 13.167 45.4706 12.9947 45.7061 12.9499C45.9762 12.8981 45.9242 12.6775 45.9727 12.5086C46.0108 12.5052 46.0523 12.5052 46.0904 12.5017C46.1527 12.4465 46.2254 12.4293 46.3085 12.4465C46.4886 12.5224 46.5198 12.6741 46.4713 12.8361C46.3224 13.3566 46.5994 13.7944 46.6998 14.3184C46.8902 14.115 46.8798 13.9151 46.9387 13.7393C47.0114 13.5118 46.9733 13.3291 46.7067 13.2498C46.5717 13.2084 46.4297 13.1498 46.4609 12.9671C46.4955 12.7809 46.5267 12.5982 46.7621 12.5258C47.3092 12.3604 47.4858 11.9226 47.5238 11.4055C47.5412 11.1469 47.5135 10.8849 47.5862 10.6298C47.5966 10.5988 47.6208 10.5678 47.6 10.5298C47.5792 10.6091 47.5377 10.6471 47.4511 10.616C47.2088 10.4816 47.1603 10.2954 47.3784 10.1231C47.5792 9.96448 47.7281 10.0645 47.8839 10.2644C48.0848 10.5264 48.0813 10.847 48.0467 11.0918C47.9913 11.4813 48.0847 11.8433 48.0813 12.2156C48.0778 12.5534 48.1436 12.8671 47.69 13.0567C47.465 13.1532 47.2503 13.5221 47.3715 13.8565C47.6762 13.9875 47.5412 13.2567 47.9947 13.6324C48.2129 13.8117 48.386 13.953 48.4864 14.2219C48.5868 14.4943 48.7565 14.7459 48.9157 14.9941C49.1546 15.3664 49.2689 15.6939 48.7045 15.8663C48.6595 15.8904 48.6145 15.8904 48.5729 15.8594C48.4795 15.7215 48.4067 15.5733 48.2994 15.4492C48.0778 14.7459 47.9047 14.6321 47.4511 14.9079C47.3473 14.97 47.2295 15.0148 47.1361 15.0941C46.5163 15.6181 46.1597 15.5284 45.8792 14.7666C45.8065 14.5701 45.7269 14.3805 45.6542 14.184Z" fill="#507B2F"/>
<path d="M32.0747 36.726C31.7942 36.6501 31.7735 36.5398 31.9293 36.2778C32.272 35.7125 32.9022 35.4987 33.3419 35.054C33.4631 34.9299 33.6154 34.8472 33.6639 34.661C33.7401 34.3577 34.0898 34.0888 34.1175 33.9302C34.2248 33.2924 34.8931 33.1339 35.0766 32.5857C35.267 32.0273 35.4851 31.979 36.0634 32.1927C36.1568 32.2272 36.233 32.1893 36.2884 32.11C36.3022 32.1341 36.8181 32.2479 36.8493 32.2272C36.9116 32.1893 36.9774 32.1514 37.0155 32.241C37.2475 32.7478 37.5487 32.3617 37.8776 32.2755C37.7945 32.5616 37.7253 32.8029 37.656 33.0477C37.6249 33.1477 37.566 33.1994 37.4552 33.1649C37.2925 33.1683 37.0605 33.1511 37.0467 33.0029C36.967 32.1307 36.3023 32.6788 35.9456 32.5857C35.6306 32.5065 35.4367 32.958 35.3639 33.2752C35.2739 33.6854 34.9173 33.9164 34.7684 34.2853C34.713 34.4197 34.5364 34.4163 34.3945 34.4163C34.1383 34.4163 33.9721 34.4645 33.9928 34.8024C34.0102 35.1126 33.7332 35.2505 33.4735 35.3643C32.9714 35.5849 32.5836 35.9607 32.1993 36.3364C32.0885 36.4502 32.0712 36.5812 32.0747 36.726Z" fill="#54A034"/>
<path d="M15.5522 47.1093C15.656 47.0748 15.7565 47.0369 15.8603 47.0024C16.539 46.9162 17.1379 46.4439 17.865 46.5887C17.6954 47.0162 17.1933 46.8645 16.9267 47.1231C15.7391 47.4023 14.5585 47.716 13.3466 47.8677C13.3362 47.8229 13.3224 47.778 13.312 47.7332C14.0564 47.5229 14.8043 47.3161 15.5522 47.1093Z" fill="#90BF58"/>
<path d="M32.7083 37.25C32.9333 36.8639 32.5179 36.9569 32.3932 36.8328C33.2034 36.595 33.8717 36.1468 34.4845 35.5677C34.7511 35.316 35.1458 35.1954 35.4851 35.0126C35.4436 35.4263 33.7851 36.7639 32.7083 37.25Z" fill="#54A034"/>
<path d="M27.03 42.5278C25.6069 43.5965 24.0627 44.4583 22.3765 45.0685C23.9381 44.248 25.5135 43.4517 27.03 42.5278Z" fill="#9EC874"/>
<path d="M47.0356 21.7336C46.4505 22.785 45.9415 23.8813 45.1348 24.7948C45.0171 24.719 45.0448 24.6466 45.1106 24.5397C45.6542 23.6296 46.1943 22.7161 46.731 21.8025C46.8764 21.5543 46.8695 21.5509 47.0356 21.7336Z" fill="#96C365"/>
<path d="M48.6491 15.8732C48.6664 15.8697 48.6837 15.8697 48.7011 15.8697C48.8119 16.1869 49.0196 16.4075 49.3451 16.5144C49.3278 16.735 49.4351 16.997 49.0196 17.0108C48.8396 17.0177 48.7738 17.3142 48.708 17.5175C48.6283 17.7726 48.656 18.0657 48.4379 18.3139C48.2613 17.652 48.6941 17.0935 48.6041 16.4833C48.4899 16.2731 48.4241 16.0628 48.6491 15.8732Z" fill="#54A034"/>
<path d="M29.0209 39.7665C29.1039 38.8702 29.6475 38.684 30.3885 38.8219C29.9384 39.1425 29.4052 39.3459 29.0209 39.7665Z" fill="#54A034"/>
<path d="M47.922 15.587C48.1332 15.7698 48.1921 15.9731 48.2683 16.1628C48.3133 16.2731 48.3029 16.4041 48.2059 16.5006C48.1332 16.573 48.0501 16.5799 47.9739 16.5213C47.8632 16.4351 47.7524 16.3386 47.7835 16.18C47.8216 15.9973 47.8701 15.8146 47.922 15.587Z" fill="#54A034"/>
<path d="M16.9267 47.1196C16.9025 47.0817 16.6844 47.0576 16.8817 47.0162C17.2453 46.9369 17.55 46.7542 17.865 46.5853C18.142 46.6129 18.3879 46.4439 18.6752 46.4646C18.1247 46.7783 17.543 46.9955 16.9267 47.1196Z" fill="#ACCF8E"/>
<path d="M33.283 37.8774C32.9784 38.3048 32.5836 38.6254 32.1439 38.8978C32.4105 38.4324 32.871 38.1807 33.283 37.8774Z" fill="#BBD7A5"/>
<path d="M27.8644 40.2905C28.0548 39.6838 28.5638 39.7837 29.0243 39.7665C28.7162 40.1147 28.2314 40.0733 27.8644 40.2905Z" fill="#54A034"/>
<path d="M37.4587 33.1649C37.5245 33.127 37.5903 33.089 37.6595 33.0477C37.7668 33.1339 37.7495 33.2373 37.6595 33.3097C37.386 33.5337 37.0986 33.7475 36.7835 33.9267C36.9393 33.6096 37.296 33.4717 37.4587 33.1649Z" fill="#9BC66B"/>
<path d="M48.6491 15.8732C48.6353 16.0766 48.6214 16.2834 48.6076 16.4868C48.3652 16.4833 48.3894 16.3006 48.3998 16.1559C48.4206 15.9111 48.3479 15.6836 48.296 15.4492C48.4933 15.5284 48.5729 15.6974 48.6491 15.8732Z" fill="#99C46E"/>
<path d="M10.8295 46.4164C11.0026 46.3819 11.0511 46.5129 11.0684 46.6232C11.103 46.8197 10.9368 46.7852 10.8295 46.7852C10.7048 46.7852 10.5179 46.8335 10.5213 46.6232C10.5248 46.437 10.7291 46.4887 10.8295 46.4164Z" fill="#54A034"/>
<path d="M35.4921 33.8233C35.7102 33.5717 35.9283 33.32 36.1845 33.027C36.1014 33.4338 35.9318 33.651 35.4921 33.8233Z" fill="#98C567"/>
<path d="M48.1748 19.1274C48.2302 18.962 48.289 18.793 48.3444 18.6276C48.3894 18.6448 48.4379 18.6621 48.4829 18.6793C48.5037 19.0171 48.3237 19.2826 48.0917 19.5342C47.9428 19.3584 48.0951 19.2515 48.1748 19.1274Z" fill="#54A034"/>
<path d="M9.27833 47.9642C9.48953 47.816 9.70074 47.816 10.0054 47.9539C9.7042 48.1021 9.48953 48.0435 9.27833 47.9642Z" fill="#9AC777"/>
<path d="M47.0183 16.4937C47.0218 16.4213 47.0253 16.3524 47.0287 16.28C47.1776 16.3868 47.1153 16.5626 47.1672 16.7005C47.091 16.8281 47.0183 16.9556 46.9041 17.1487C46.8348 16.866 46.9352 16.6833 47.0183 16.4937Z" fill="#98C374"/>
<path d="M48.1748 19.1274C48.1471 19.2619 48.1194 19.3963 48.0917 19.5308C48.0467 19.5825 48.012 19.6549 47.9566 19.6756C47.8701 19.7066 47.8355 19.6273 47.8562 19.5618C47.922 19.3894 47.877 19.1309 48.1748 19.1274Z" fill="#A8CD8B"/>
<path d="M40.3983 30.3864C40.4156 30.6863 40.2528 30.8586 39.9758 30.9552C40.1143 30.7656 40.2563 30.576 40.3983 30.3864Z" fill="#A1CB80"/>
<path d="M47.2399 20.2547C47.3507 20.0892 47.4581 19.9238 47.6139 19.6893C47.7004 20.0789 47.4996 20.1961 47.2399 20.2547Z" fill="#AFD189"/>
<path d="M49.1339 6.32412C49.1719 6.58267 49.262 6.4172 49.3624 6.36204C49.7917 6.12763 49.861 5.56916 50.3214 5.3313C50.3491 5.4554 50.3769 5.57606 50.4045 5.69671C50.2245 5.93458 50.228 6.34481 49.7605 6.31723C49.6774 6.31378 49.577 6.5482 49.4939 6.6792C49.442 6.76538 49.4351 6.91706 49.3658 6.95153C48.5799 7.34797 48.6734 8.28909 48.1713 8.8579C47.9359 9.05095 47.8251 9.31294 47.7627 9.60252C47.3888 9.87141 47.0495 9.37499 46.6582 9.5577C46.5613 9.60252 46.5059 9.38533 46.6236 9.18539C46.7171 9.01992 46.5717 8.97166 46.4678 8.96132C46.2462 8.94063 46.0108 8.9165 46.0108 8.64761C46.0073 8.36838 46.3051 8.47524 46.454 8.37872C47.278 7.85128 48.2267 7.47897 48.7565 6.57233C48.8361 6.43099 48.9538 6.32068 49.1339 6.32412Z" fill="#76A138"/>
<path d="M47.4511 10.6229C47.4996 10.554 47.5481 10.485 47.645 10.3471C47.6381 11.0814 47.832 11.7743 47.3092 12.3604C47.1776 12.5086 47.091 12.7361 46.8175 12.6672C46.5509 12.6017 46.5959 12.843 46.5613 12.9602C46.5094 13.1498 46.6859 13.136 46.7967 13.1326C47.1949 13.1153 47.1984 13.4083 47.1084 13.6221C46.9768 13.9289 47.1084 14.4839 46.7656 14.5149C46.3362 14.5494 46.5682 13.9909 46.4124 13.7255C46.2635 13.4704 46.222 13.1705 46.3605 12.8706C46.4193 12.743 46.4193 12.5948 46.2739 12.4983C46.125 12.2638 46.2705 12.1225 46.4367 11.9846C46.3051 12.057 46.2151 12.2052 46.0385 12.1914C45.9588 12.0846 45.9242 11.9432 45.7823 11.8812C45.2975 11.6709 45.3772 11.4365 45.7546 11.1848C45.8688 11.109 45.9692 11.0194 46.0766 10.9366C46.1424 11.4434 46.1874 11.4537 46.7206 11.0918C46.8521 11.1607 46.7898 11.2503 46.7587 11.3503C46.7275 11.4468 46.4609 11.4434 46.6305 11.6088C46.7552 11.7295 46.8937 11.6468 46.9941 11.5365C47.233 11.2745 47.2953 10.9228 47.4511 10.6229Z" fill="#608F32"/>
<path d="M44.4977 11.0366C44.0753 11.4744 43.414 11.5227 42.9916 11.9501C42.9293 12.0156 42.86 12.0984 42.7769 12.0363C42.6696 11.957 42.7215 11.8536 42.7873 11.764C43.0608 11.3848 43.3205 10.9918 43.6114 10.6264C43.7498 10.4574 43.7879 10.2954 43.7498 10.0989C44.0788 9.91622 44.4562 9.91622 44.8024 9.91967C45.1417 9.92311 45.4499 9.91277 45.7476 9.75075C45.9 9.66801 46.0731 9.61631 46.1804 9.7542C46.3328 9.9438 46.1008 10.0403 45.9969 10.1058C45.5053 10.4333 44.9998 10.7298 44.4977 11.0366Z" fill="#6C9B35"/>
<path d="M51.5541 0.756715C52.1842 0.7119 52.6586 0.963554 53.074 1.55994C52.752 1.50823 52.6136 1.15316 52.3366 1.33242C52.1669 1.44273 52.3158 1.58407 52.3089 1.71162C52.2258 2.20114 51.7757 2.1908 51.4433 2.33903C51.1247 2.53553 51.0001 2.07014 50.7231 2.13219C50.4219 1.63923 50.7681 1.35999 51.0866 1.08076C51.2251 0.956659 51.3948 0.863582 51.5541 0.756715Z" fill="#7AA438"/>
<path d="M45.0517 11.3572C44.5046 11.9881 44.4631 12.0053 43.4694 11.9432C44.0199 11.7433 44.5289 11.7536 44.8128 11.3331C44.8924 11.3434 44.9825 11.2503 45.0517 11.3572Z" fill="#8EAA71"/>
<path d="M49.075 9.50254C49.1165 9.8852 49.0819 10.2541 48.8084 10.6505C48.6491 10.1506 48.8465 9.82314 49.075 9.50254Z" fill="#8FAC6E"/>
<path d="M49.442 14.7976C49.2308 14.808 49.2412 14.6459 49.2169 14.5115C49.1546 14.1564 49.0923 13.8048 49.0127 13.3256C49.4178 13.76 49.262 14.2323 49.4316 14.6046C49.5113 14.6666 49.5147 14.7287 49.442 14.7976Z" fill="#89A764"/>
<path d="M50.2314 7.09287C50.1483 7.47897 49.9302 7.79268 49.6601 8.07191C49.6948 7.66168 49.9821 7.38589 50.2314 7.09287Z" fill="#9EB780"/>
<path d="M50.7196 2.13219C50.872 2.09427 51.0832 1.70473 51.149 2.20803C51.1697 2.36661 51.3255 2.32869 51.4398 2.33903C51.1213 2.54242 50.8893 2.44245 50.7196 2.13219Z" fill="#A8C176"/>
<path d="M41.2327 9.57149C41.0734 9.49565 40.6683 9.74041 40.8172 9.25778C40.9038 9.25778 40.9938 9.27157 41.0769 9.26123C41.4439 9.20952 41.3469 9.38533 41.2327 9.57149Z" fill="#94AF70"/>
<path d="M49.442 14.7976C49.4385 14.7321 49.4351 14.6701 49.4316 14.6046C49.5944 14.8976 49.7709 15.1872 49.4109 15.5905C49.4212 15.263 49.3347 15.032 49.442 14.7976Z" fill="#507B2F"/>
<path d="M47.7662 9.59907C47.6381 9.20607 47.8251 8.98545 48.1748 8.85445C48.057 9.113 47.9947 9.40257 47.7662 9.59907Z" fill="#B0CA98"/>
<path d="M46.0558 8.24772C46.2047 7.86852 46.402 7.79612 46.6929 7.89265C46.5128 7.99262 46.3328 8.09259 46.0558 8.24772Z" fill="#8DAD6B"/>
<path d="M49.1304 9.17505C49.2273 8.94063 49.3243 8.70621 49.4212 8.47525C49.4559 8.48903 49.4939 8.50282 49.5286 8.52006C49.4316 8.75448 49.3312 8.98545 49.2343 9.21986C49.1996 9.20263 49.165 9.18884 49.1304 9.17505Z" fill="#8FAC6E"/>
<path d="M51.3429 5.17962C51.2805 5.45885 51.2009 5.62777 50.9585 5.76221C50.9758 5.49332 51.0936 5.34509 51.3429 5.17962Z" fill="#8DAB76"/>
<path d="M43.9749 8.85445C44.2588 8.85445 44.5427 8.85445 44.9686 8.85445C44.5497 9.02337 44.2623 8.93719 43.9749 8.85445Z" fill="#C2D7AA"/>
<path d="M45.9762 12.5086C46.267 12.8154 46.1216 13.0326 45.7857 13.0636C45.5295 13.0843 45.5641 13.2153 45.5434 13.3566C45.3737 13.1636 45.4706 12.9326 45.4499 12.7154C45.5814 12.5327 45.7615 12.4776 45.9762 12.5086Z" fill="#608F32"/>
<path d="M45.3495 12.5948C45.2075 12.5982 45.0621 12.6017 44.9201 12.6051C44.9409 12.3224 44.8855 11.9881 45.3495 12.0018C45.5018 12.1949 44.9963 12.4052 45.3495 12.5948Z" fill="#608F32"/>
<path d="M46.0385 12.1914C46.1112 12.0294 46.2739 12.0087 46.4574 11.926C46.4401 12.1535 46.2289 12.2914 46.2739 12.4983C46.2116 12.4983 46.1527 12.4983 46.0904 12.5017C46.0766 12.3983 46.0558 12.2949 46.0385 12.1914Z" fill="#A0BF7E"/>
<path d="M1.24213 44.0653C1.38062 43.855 1.55374 43.7757 1.64376 43.6275C1.73032 43.9205 1.57452 44.0136 1.24213 44.0653Z" fill="#64A531"/>
<path d="M26.1782 40.7076C26.0467 40.7111 25.9289 40.7731 25.8666 40.8765C25.3992 41.6349 24.5717 41.8797 23.855 42.2865C24.0939 41.8245 24.5128 41.5246 24.9352 41.2833C25.278 41.0868 25.5585 40.8352 25.8632 40.6042C25.967 40.5663 26.0744 40.5318 26.1782 40.4939C26.4552 40.5697 26.2198 40.6352 26.1782 40.7076Z" fill="#7DB347"/>
<path d="M25.6589 38.7116C25.3784 39.0874 25.0668 39.3838 24.6894 39.601C24.5336 39.6906 24.3259 39.732 24.222 39.5596C24.1043 39.3666 24.2047 39.1529 24.3259 38.9771C24.4297 38.8254 24.5405 38.8081 24.7171 38.9288C25.0703 39.1632 25.2676 38.6909 25.6589 38.7116Z" fill="#64A531"/>
<path d="M17.5153 43.5516C17.0237 43.6344 16.6497 43.662 16.3381 43.9136C16.2204 44.0067 16.0473 43.9963 15.9642 43.7861C15.8707 43.5447 16.0404 43.5068 16.1892 43.4896C16.584 43.4482 16.9856 43.2759 17.5153 43.5516Z" fill="#64A531"/>
<path d="M42.9396 24.7328C42.8946 24.9672 42.7873 25.1533 42.8081 25.3878C42.8254 25.5808 42.6627 25.6429 42.5138 25.6911C42.4064 25.7256 42.2991 25.6911 42.2472 25.5911C42.1606 25.4153 42.2783 25.3016 42.396 25.1981C42.5761 25.043 42.7596 24.8879 42.9396 24.7328Z" fill="#61A432"/>
<path d="M31.3372 37.25C31.4376 37.1948 31.5345 37.1396 31.7388 37.0259C31.5311 37.474 31.2922 37.6981 30.9182 37.7739C30.9079 37.4775 31.0325 37.2913 31.3372 37.25Z" fill="#61A432"/>
<path d="M23.4395 39.6975C23.2283 39.8768 23.0932 39.9975 22.8578 39.932C22.9894 39.7458 23.1383 39.6631 23.4395 39.6975Z" fill="#64A531"/>
<path d="M37.0328 19.9307C37.5764 19.286 38.12 18.6414 38.6601 17.9967C38.6982 18.0277 38.7328 18.0588 38.7709 18.0863C38.2689 18.7689 37.8326 19.5032 37.1367 20.0272C37.1021 19.9962 37.0674 19.9651 37.0328 19.9307Z" fill="#C7DEAB"/>
<path d="M37.7218 18.5931C37.8707 17.9347 38.2724 17.6313 38.6394 17.3038C38.5286 17.8071 38.1408 18.1174 37.7218 18.5931Z" fill="#C0D9A0"/>
<path d="M36.7939 20.3616C37.0536 20.7235 36.9809 20.9235 36.555 21.0235C36.4615 21.0441 36.3784 21.0579 36.3403 20.9614C36.3196 20.9097 36.3334 20.8235 36.368 20.7787C36.4719 20.6443 36.5931 20.5236 36.7108 20.396C36.7247 20.3512 36.7524 20.3409 36.7939 20.3616Z" fill="#54A034"/>
<path d="M35.3466 22.0508C35.4886 21.8749 35.6271 21.6991 35.769 21.5233C35.8798 21.4751 35.9006 21.2579 36.1603 21.3854C35.8729 21.6164 36.0668 22.3162 35.3466 22.0508Z" fill="#54A034"/>
<path d="M36.7939 20.3616C36.7627 20.3616 36.7351 20.3754 36.7108 20.396C36.5308 20.4064 36.3334 20.3305 36.1949 20.5374C36.1291 20.6339 36.0079 20.7442 35.9075 20.5925C35.8141 20.4547 35.9802 20.3995 36.053 20.3099C36.2572 20.0651 36.5689 20.1823 36.8216 20.0996C36.9636 20.0513 36.8112 20.2651 36.7939 20.3616Z" fill="#C7DEAB"/>
<path d="M45.0275 15.132C45.0275 15.0182 44.8093 14.9872 44.9097 14.8459C44.9236 14.8252 45.0552 14.8907 45.1348 14.9148C45.1521 14.9458 45.1729 14.9734 45.1867 15.0045C45.256 15.1286 45.5295 15.232 45.3876 15.3561C45.1867 15.5422 45.159 15.2044 45.0275 15.132Z" fill="#97C56D"/>
<path d="M26.1782 40.7076C26.1921 40.6352 26.2925 40.5663 26.1817 40.4939C26.3444 40.3732 26.4691 40.194 26.7738 40.2043C26.5937 40.4422 26.5314 40.7283 26.1782 40.7076Z" fill="#54A034"/>
</svg>
