<svg width="23" height="54" viewBox="0 0 23 54" fill="none" xmlns="http://www.w3.org/2000/svg">
<path d="M0.872624 27.8872C3.25156 22.2179 5.79852 16.6052 6.57461 10.3989C6.7133 9.2926 6.85732 8.18356 6.99867 7.07722C7.10268 6.89103 7.20936 6.70485 7.42005 6.6185C7.96945 6.50517 8.53218 6.35136 8.89755 6.98818C8.84421 7.19595 8.68153 7.2904 8.50284 7.35786C7.96412 7.42262 7.78809 7.795 7.74809 8.2834C7.65208 8.64229 7.58274 9.00387 7.58541 9.37625C7.50006 10.7929 7.11868 12.1637 6.948 13.5669C6.70797 14.2765 6.84932 15.0537 6.56395 15.7525C6.36126 16.3678 6.16657 16.9911 5.89187 17.5794C5.78519 17.8033 5.67052 18.0273 5.58251 18.2594C5.43316 18.6101 5.44382 18.9879 5.39848 19.3576C5.22246 20.4828 4.58506 21.4381 4.25436 22.5066C3.47027 24.0771 2.71818 25.661 2.10478 27.3098C1.57139 28.837 1.34735 30.421 1.198 32.0211C1.15266 32.5203 1.29935 33.1356 0.584603 33.3191C0.0805449 32.8307 0.459254 32.1399 0.200558 31.5948C0.157886 30.3077 0.483246 29.0934 0.872624 27.8872Z" fill="#BD3628"/>
<path d="M16.5598 8.72527C17.4185 14.6213 18.9841 20.3014 21.5684 25.6793C22.0537 26.6912 22.3391 27.7786 22.2458 28.9308C22.1284 29.0307 22.0004 29.0522 21.8564 28.9956C21.7871 28.9389 21.6937 28.8876 21.6724 28.8094C20.5602 24.867 18.3253 21.3618 17.3199 17.379C17.2105 16.556 17.1065 15.733 16.8238 14.9478C16.5385 12.9752 15.789 11.0675 16.0371 9.0221C16.1544 8.82511 16.3037 8.6767 16.5598 8.72527Z" fill="#B93526"/>
<path d="M6.71348 2.78864C6.39344 0.956429 7.8016 0.322307 9.6258 0.13342C11.418 -0.0527689 13.2556 -0.104038 15.0291 0.381672C15.9199 0.624527 16.8853 0.924048 16.5786 2.24356C16.3066 3.0099 16.4479 3.78704 16.5173 4.56418C16.5573 5.0229 16.7226 5.54639 16.1279 5.81083C15.2345 4.8664 15.9279 3.65482 15.5972 2.61594C15.5118 2.43245 15.4451 2.24086 15.3945 2.04658C15.3598 1.55817 15.0184 1.38008 14.6157 1.26674C12.4901 0.665003 10.3939 0.675796 8.20432 1.58785C8.83106 2.20848 9.71381 2.13293 10.2072 2.71848C10.2605 2.83991 10.2632 2.96133 10.2179 3.08546C9.1991 3.76545 8.32967 2.89927 7.38556 2.81022C7.16153 2.82641 6.9295 2.93975 6.71348 2.78864Z" fill="#D5CFC7"/>
<path d="M22.7098 31.3861C23.2032 35.6225 22.9925 39.8563 22.6325 44.0874C22.4751 44.6568 22.6805 45.2639 22.4618 45.8279C22.5605 46.1463 22.4911 46.4485 22.3711 46.7453C21.8511 46.6671 21.9071 46.2218 21.8217 45.8629C21.7897 45.1101 21.7657 44.3572 21.9017 43.6125C22.1604 42.8407 22.0831 42.0447 22.0458 41.2541C21.8644 40.6685 21.9364 40.0803 22.0244 39.492C22.0804 38.5827 22.0404 37.6706 22.0511 36.7613C22.0911 35.8438 22.0644 34.9264 22.0698 34.0089C22.0804 33.2776 22.0591 32.5437 22.1524 31.8124C22.1844 31.6694 22.2458 31.5372 22.3338 31.4185C22.4485 31.2997 22.5765 31.2916 22.7098 31.3861Z" fill="#B13728"/>
<path d="M0.635276 48.3625C0.624608 47.8282 0.613942 47.2912 0.603274 46.757C0.952647 46.1498 0.416579 45.4293 0.845961 44.833C1.52604 44.9436 1.44069 45.5211 1.45669 45.9663C1.49136 46.9 1.6834 47.7985 1.90476 48.6971C1.98477 49.1073 2.05143 49.5201 2.17945 49.9195C2.14211 50.6561 3.05154 51.1337 2.72617 51.9514C2.59549 52.008 2.46748 51.9972 2.3448 51.9244C2.02743 51.6302 1.71273 51.3334 1.39536 51.0393C1.13933 50.1488 0.885972 49.2557 0.635276 48.3625Z" fill="#C43B2D"/>
<path d="M16.5598 8.72527C16.4744 8.81702 16.3861 8.91185 16.3007 9.0036C16.0527 9.05757 15.7753 9.02788 15.594 9.26804C15.3593 9.44344 15.1326 9.63232 14.8579 9.74296C14.4312 9.85359 14.0098 10.029 13.5617 9.82931C13.311 9.57836 13.1884 9.28423 13.2444 8.92265C13.6711 8.18329 14.4872 8.41265 15.1033 8.15091C15.2579 8.10234 15.4153 8.06186 15.5326 7.93504C15.7753 7.56805 15.4686 7.17679 15.578 6.80441C15.6126 6.68298 15.674 6.57775 15.7593 6.4887C15.946 6.40775 16.1194 6.40775 16.2634 6.57505C16.6048 7.26044 16.5651 7.99401 16.5598 8.72527Z" fill="#C43C2D"/>
<path d="M22.155 45.9277C22.1844 46.211 22.1204 46.5213 22.3711 46.7453C22.2298 48.5613 22.211 50.4151 20.8429 51.8534C20.6642 51.6861 20.6188 51.4729 20.6242 51.2381C20.9816 49.7297 21.4296 48.2429 21.5896 46.6886C21.6216 46.3486 21.6723 45.9547 22.155 45.9277Z" fill="#B53728"/>
<path d="M6.71348 2.78864C6.88416 2.69959 7.05165 2.61359 7.22234 2.52455C7.48637 2.73772 7.59838 3.04534 7.56904 3.35565C7.45436 4.56993 7.80907 5.60881 8.63583 6.48848C8.26245 6.94991 7.67305 6.48578 7.27034 6.81499C7.17966 6.90134 7.09165 6.99038 7.00097 7.07673C6.68894 5.66277 6.60146 4.23228 6.71348 2.78864Z" fill="#C4BDB6"/>
<path d="M20.8238 51.3356C20.8292 51.5083 20.8345 51.681 20.8398 51.8537C20.8265 51.9346 20.8158 52.0156 20.8052 52.0992C19.8984 52.6389 18.981 53.1462 17.9035 53.2379C17.4928 52.8979 16.9061 53.4808 16.53 52.9708C16.818 52.029 17.7435 52.5121 18.2955 52.1586C19.2477 52.2314 19.8637 51.2384 20.8238 51.3356Z" fill="#C23F30"/>
<path d="M16.2634 6.5768C16.0954 6.5714 15.93 6.56331 15.762 6.55791C15.562 6.77109 15.33 6.79807 15.0713 6.69283C14.8739 6.56061 14.8979 6.40141 15.0179 6.23141C15.186 6.0749 15.3886 5.96697 15.5727 5.83205C15.7087 5.7376 15.85 5.64856 16.0234 5.7403C16.5541 5.13586 16.2181 4.4046 16.3087 3.7354C16.3781 3.2335 16.122 2.67493 16.5754 2.24319C16.3647 3.67873 17.3649 5.20602 16.2634 6.5768Z" fill="#C4B6AE"/>
<path d="M21.9228 28.9551C22.0295 28.947 22.1362 28.9389 22.2429 28.9308C22.3815 28.9308 22.4829 28.9767 22.4776 29.1413C22.6109 29.8941 22.6643 30.6443 22.4402 31.389L22.4456 31.3837C22.3282 31.4835 22.2055 31.4889 22.0802 31.3971C21.7148 31.0356 21.6241 30.5687 21.5921 30.0803C21.5788 29.8051 21.5948 29.5353 21.6775 29.2708C21.7255 29.1413 21.8082 29.0361 21.9228 28.9551Z" fill="#BC3C2B"/>
<path d="M22.4402 31.389C22.4536 30.6389 22.4642 29.8914 22.4776 29.1413C22.7043 29.8726 22.7978 30.6202 22.7124 31.3865C22.6218 31.3865 22.5309 31.389 22.4402 31.389Z" fill="#CB4839"/>
<path d="M22.4618 45.8279C22.5098 45.2477 22.2644 44.6352 22.6325 44.0874C22.6405 44.6756 22.6672 45.2639 22.4618 45.8279Z" fill="#B53728"/>
<path d="M16.5654 52.9566C17.0161 53.0348 17.5309 52.7839 17.9069 53.2345C14.3492 54.2248 10.7487 54.1601 7.15099 53.5745C5.4708 53.302 3.71326 53.1616 2.34244 51.9258C2.47045 51.9096 2.5958 51.8961 2.72381 51.8799C3.92395 51.3726 4.87073 52.3198 5.96152 52.4493C6.9483 52.6301 7.93774 52.7974 8.94052 52.8648C10.7887 53.0294 12.637 53.3505 14.4878 52.8945C14.9839 52.8621 15.4853 52.8999 15.976 52.7812C16.1947 52.7596 16.3974 52.8028 16.5654 52.9566Z" fill="#BF3A2A"/>
<path d="M5.90249 52.7044C4.84371 52.4291 3.78224 52.1566 2.72345 51.8814C2.51276 51.2284 1.74469 50.8263 1.90471 50.006C2.04072 49.5931 1.93403 49.2369 1.646 48.9293C0.944587 47.6557 1.34996 46.1689 0.872572 44.8521C0.27517 43.6162 0.501864 42.2481 0.373849 40.9556C0.152491 38.7078 0.301852 36.425 0.317853 34.1583C0.32052 33.8453 0.33119 33.5296 0.603222 33.3083C1.03794 31.7406 0.859253 30.0784 1.35531 28.5187C1.51533 28.0195 1.54733 27.4798 1.90204 27.0562C2.45143 26.8052 2.50476 26.2035 2.77679 25.7582C2.95548 25.4668 3.00616 25.0836 3.46755 25.1133C4.36098 25.6962 4.06227 26.3924 3.65956 27.102C2.91281 27.6336 3.36354 28.8101 2.52078 29.2904C2.33409 29.1987 2.31008 29.0341 2.33675 28.8506C2.12073 28.9127 2.31274 29.0584 2.32608 29.1016C2.46742 29.5981 2.27541 30.0676 2.25141 30.5479C2.06739 31.6569 1.82203 32.7552 1.80069 33.8858C1.53933 36.0499 1.86736 38.1546 2.45143 40.2324C2.55544 41.0554 2.60612 41.8784 2.4221 42.6987C1.76069 43.1035 1.61133 43.6863 1.74201 44.4419C1.85135 45.0598 2.24875 45.0436 2.6888 45.049C3.13951 45.2595 3.32085 45.6589 3.42487 46.1149C3.44087 46.2363 3.43555 46.3605 3.41954 46.4792C3.52356 46.7005 2.94748 47.1079 3.61156 47.1754C4.20096 47.1025 4.40366 47.6476 4.78503 47.9093C5.75581 48.8376 7.01995 48.9995 8.24676 49.2504C8.49479 49.3341 8.72415 49.4528 8.92151 49.6255C9.36156 50.1004 9.05218 50.4053 8.67881 50.6887C8.26809 51.0017 7.9534 51.4523 7.42 51.5872C7.30532 51.6331 7.1133 51.706 7.1373 51.8031C7.48934 53.1901 6.66258 52.896 5.90249 52.7044Z" fill="#D74F3E"/>
<path d="M0.602946 33.3074C0.522937 37.1607 0.58693 41.0086 0.872297 44.8511C0.720279 45.4771 1.083 46.1787 0.602946 46.7562C0.0695515 41.7318 -0.303836 36.7047 0.341572 31.6614C0.778955 32.1525 0.472264 32.765 0.602946 33.3074Z" fill="#B22D23"/>
<path d="M14.9486 6.54795C15.2207 6.55065 15.4927 6.55605 15.7647 6.55875C15.7621 6.65859 15.7594 6.75843 15.7567 6.85827C15.2527 7.3062 15.9701 7.73524 15.7754 8.17778C15.6794 8.26413 15.5834 8.35048 15.49 8.43682C15.0793 8.11572 14.6232 8.52048 14.2072 8.36127C11.8389 7.45191 11.4016 7.4681 8.97195 8.59333C8.88394 8.66619 8.78793 8.72825 8.68658 8.77952C8.49456 8.85777 8.27853 8.89555 8.11852 9.04666C8.03851 9.11682 7.95049 9.17349 7.85714 9.22206C7.66245 9.30301 7.46776 9.40555 7.25707 9.26523C7.1984 8.86587 7.33176 8.51238 7.51845 8.16968C7.85182 7.88096 8.08117 7.51128 8.29186 7.12811C8.48121 7.11731 8.67057 7.10652 8.85993 7.09573C9.48666 6.50208 10.3508 6.87446 11.0442 6.54256C12.3457 6.53986 13.6471 6.1378 14.9486 6.54795Z" fill="#CC4A3A"/>
<path d="M3.24324 25.178C3.16056 26.0523 2.54182 26.6675 2.18978 27.4122C2.1071 27.5849 2.0591 27.7954 1.93109 27.4527C1.88575 27.334 1.90976 27.1883 1.90176 27.0534C2.42448 25.4424 3.1099 23.9097 4.00333 22.4715C4.11801 22.3636 4.23536 22.3609 4.35271 22.4661C4.49939 23.5886 3.83797 24.3712 3.24324 25.178Z" fill="#D85547"/>
<path d="M4.30204 22.4812C4.20336 22.4785 4.10202 22.4785 4.00334 22.4758C4.37405 21.4018 4.74475 20.3252 5.11279 19.2512C5.39016 18.9382 5.20348 18.5038 5.3875 18.1665C5.4035 17.9587 5.39283 17.7401 5.61418 17.6187C5.7502 17.5189 5.87555 17.5297 5.99823 17.643C6.31293 18.1341 6.33427 18.7035 6.09958 19.1757C5.54218 20.2982 5.43017 21.6771 4.30204 22.4812Z" fill="#DC695C"/>
<path d="M7.25688 9.27067C7.42756 9.17893 7.60093 9.08448 7.77162 8.99274C7.96897 9.20591 8.06765 9.45686 8.07032 9.74829C8.07298 9.95336 8.04364 10.1584 7.9983 10.3581C7.81695 10.8654 7.86229 11.3997 7.81428 11.9232C7.77694 12.2605 7.65426 12.5681 7.49157 12.8622C7.25954 13.1375 7.24888 13.6717 6.69148 13.58C6.88083 12.1445 7.06752 10.7089 7.25688 9.27067Z" fill="#D8594D"/>
<path d="M6.6921 13.5822C6.87346 13.3096 7.05482 13.0371 7.23351 12.7673C7.91892 13.9842 7.20417 14.9745 6.72145 15.9999C6.46542 16.1295 6.32406 15.9864 6.21205 15.776C6.63877 15.1041 6.18271 14.2352 6.6921 13.5822Z" fill="#D25046"/>
<path d="M11.0015 6.93606C10.3081 7.25717 9.57469 7.0467 8.85995 7.10336C8.39322 6.64733 7.7984 6.92023 7.27034 6.81499C7.63838 6.34277 8.17988 6.81463 8.58792 6.56908C8.75861 6.40178 8.9693 6.35861 9.19866 6.3721C9.78806 6.59606 10.5588 6.22908 11.0015 6.93606Z" fill="#AB4436"/>
<path d="M8.29242 7.13613C8.60445 7.91866 8.26576 8.20199 7.519 8.17771C7.50567 7.62184 7.36964 6.97423 8.29242 7.13613Z" fill="#E05B4C"/>
<path d="M6.21416 15.7761C6.29684 15.8544 6.37685 15.9326 6.45952 16.0109C6.82223 16.7286 6.72622 17.3007 5.94213 17.6461C5.83278 17.6353 5.72344 17.6272 5.6141 17.6164C5.81412 17.0039 6.01414 16.3913 6.21416 15.7761Z" fill="#D97568"/>
<path d="M5.38786 18.1638C5.60922 18.6064 5.45986 18.9545 5.11315 19.2486C5.14782 18.8735 4.98514 18.4472 5.38786 18.1638Z" fill="#D13F30"/>
<path d="M17.1039 14.9321C17.4293 15.7092 17.656 16.508 17.6373 17.3634C17.5386 18.4616 18.112 19.371 18.4427 20.3505C18.7468 21.2517 19.3949 22.0559 19.2242 23.0974C18.3414 23.4698 18.0267 22.8627 17.7867 22.207C17.1333 20.4179 16.4638 18.637 15.9304 16.8075C15.9891 16.4621 16.0185 16.1491 15.5704 16.0061C15.253 15.9062 14.9383 15.7497 14.9063 15.3342C15.0157 15.0481 15.261 14.9618 15.5277 14.9024C15.8638 14.8538 16.1891 14.8781 16.5012 15.0265C16.8346 15.2019 16.8319 15.5959 17.0079 15.8792C16.8399 15.5365 16.8026 15.2181 17.1039 14.9321Z" fill="#CB4839"/>
<path d="M19.2267 23.0321C18.6747 21.4563 18.1253 19.8804 17.5652 18.3099C17.4479 17.9753 17.2479 17.6521 17.6373 17.3634C18.4907 19.9808 19.4268 22.5653 20.7309 24.9965C21.3923 26.2297 21.5148 27.6383 21.9228 28.9551C21.9122 29.0415 21.9044 29.1278 21.9017 29.2168C21.419 29.3194 21.2723 28.9254 21.171 28.6151C20.5976 26.8368 19.7255 25.18 19.1174 23.4153C19.1041 23.2723 19.1414 23.1454 19.2267 23.0321Z" fill="#D55B4A"/>
<path d="M17.1041 14.9312C17.1041 15.2874 17.1041 15.6409 17.1041 16.0348C16.624 15.8945 16.6427 15.5194 16.576 15.1956C16.488 15.1012 16.4053 15.0067 16.328 14.9042C15.9119 14.2242 16.0586 13.4282 15.8773 12.7023C15.8426 12.589 15.8213 12.4729 15.7999 12.3569C15.7546 11.9683 15.7199 11.5744 15.4639 11.2452C15.4132 11.1399 15.3865 11.0293 15.3812 10.9106C15.5279 10.2873 15.3172 9.63154 15.5306 9.01361C15.7839 8.80314 16.04 8.81123 16.2986 9.00282C16.144 11.0374 16.9521 12.9398 17.1041 14.9312Z" fill="#D65D4E"/>
<path d="M11.0015 6.93606C10.3721 6.7013 9.65985 6.94723 9.04911 6.59375C9.5105 6.24026 9.60917 5.77074 9.59584 5.19868C9.58517 4.76154 9.49982 4.17329 10.2066 4.09504C10.3773 4.56726 10.3053 5.05027 10.2973 5.53058C10.3106 5.03408 10.3186 4.53487 10.3079 4.03567C10.676 3.59583 10.812 3.88186 10.8253 4.24075C10.852 4.95043 10.8947 5.64391 11.2787 6.30232C11.6121 6.22676 11.5267 5.75455 11.8494 5.72217C11.9668 5.6655 12.0948 5.64661 12.2255 5.64121C12.1108 5.53598 11.9774 5.60613 11.8441 5.60344C11.3134 5.57375 10.8653 5.43074 10.8547 4.78313C10.8413 4.13281 10.668 3.40425 11.5347 3.11552C12.9402 2.77013 14.3804 2.60822 15.7805 2.24934C16.3646 3.37457 15.9192 4.57535 16.0312 5.73566C15.9432 5.8274 15.8552 5.91645 15.7672 6.00819C15.0018 5.52248 15.8205 4.77233 15.4925 4.30821C15.5645 4.92344 15.4685 5.60883 15.2418 6.27803C15.1458 6.36708 15.0498 6.45613 14.9565 6.54518C13.6576 6.92565 12.319 6.82543 11.0015 6.93606Z" fill="#F1EDE7"/>
<path d="M12.0414 5.75402C11.6894 6.00497 11.8441 6.83338 11.0173 6.57433C10.1879 6.31259 10.8519 5.76482 10.7239 5.37355C10.5692 4.89593 10.9213 4.30229 10.4199 3.88134C10.3612 3.99737 10.2732 4.08102 10.1559 4.13229C9.72382 4.58022 9.8465 5.16847 9.93718 5.64878C10.0945 6.49068 9.71048 6.6337 9.04907 6.59592C8.89439 6.58782 8.73971 6.57973 8.58769 6.57163C6.5928 5.75402 7.44089 3.95419 7.21953 2.52405C8.25165 2.4296 9.11309 3.30118 10.1719 3.06642C10.6519 2.97198 11.124 2.91801 11.5054 3.33356C10.5959 4.48848 10.7319 5.03625 12.0441 5.48418C12.1214 5.54355 12.1481 5.60291 12.1214 5.66228C12.0948 5.72434 12.0681 5.75402 12.0414 5.75402Z" fill="#F8F5F0"/>
<path d="M10.1695 2.76433C10.0388 2.74544 9.88682 2.76163 9.77748 2.69957C9.07606 2.3029 7.72925 2.49179 7.76658 1.54466C7.79325 0.843074 9.09474 0.891645 9.83616 0.721646C11.6764 0.300698 13.4979 0.484188 15.2901 1.12371C15.9142 1.34767 16.0022 1.54196 15.5088 1.9764C15.4155 2.06814 15.3061 2.12751 15.1808 2.15179C13.6206 1.31799 11.9511 1.26942 10.3109 1.43942C11.0576 1.54196 12.2711 0.905137 12.1778 2.57814C11.5777 3.43353 10.8469 2.8075 10.1695 2.76433Z" fill="#FAF8F5"/>
<path d="M10.1695 2.76433C10.7269 2.10052 11.4873 3.11476 12.0527 2.53191C13.0315 1.81954 14.1916 2.20271 15.2531 1.98414C15.3384 1.98414 15.4237 1.98144 15.5091 1.97874C15.5971 2.07049 15.6878 2.16223 15.7758 2.25398C14.525 3.30905 12.9568 3.08508 11.5033 3.33603C11.0579 3.25508 10.5538 3.47095 10.1698 3.06889C10.1698 2.96635 10.1695 2.86687 10.1695 2.76433Z" fill="#D4CDC5"/>
<path d="M22.1897 31.3723C22.275 31.3777 22.3604 31.3804 22.4457 31.3858C22.435 32.2061 22.4217 33.0237 22.411 33.844C22.067 34.8154 22.0537 35.7869 22.419 36.7583C22.4164 37.7594 22.411 38.7605 22.4084 39.7616C21.9897 40.0071 21.9923 40.3957 22.083 40.8005C22.163 41.1486 22.2084 41.4993 22.1177 41.842C22.011 42.2522 22.0457 42.8431 21.5683 42.9511C20.9495 43.0914 20.8535 42.4681 20.6615 42.0444C20.7255 40.4038 20.6962 38.7659 20.6162 37.1253C21.0295 35.4253 20.8909 33.7064 20.7522 31.9929C20.7015 31.3804 20.6028 30.8191 21.3149 30.5412C21.4376 30.5034 21.5549 30.5169 21.6643 30.5871C22.0323 31.1834 22.0697 31.858 22.0563 32.5407C22.0537 32.1386 21.9257 31.7393 22.1897 31.3723Z" fill="#CB4839"/>
<path d="M20.8585 41.9126C21.0292 42.2068 21.1999 42.5009 21.4425 42.9164C21.7759 42.1231 21.9413 41.4296 21.9119 40.6822C21.8986 40.2936 21.8213 39.8349 22.4053 39.7593C22.1413 40.2018 22.1066 40.6417 22.4267 41.0761C22.0906 41.8668 22.5173 42.7383 22.1706 43.5263C22.1653 44.325 22.16 45.1264 22.1546 45.9251C21.6132 47.7034 21.6719 49.6329 20.8238 51.3356C20.0931 51.8429 19.4157 52.4714 18.4369 52.4256C18.2529 52.3419 18.0955 52.234 18.1115 51.9938C18.2315 51.724 18.4769 51.6133 18.7276 51.527C20.3678 50.9603 21.3279 48.3483 20.6451 46.8156C20.5518 46.6078 20.5731 46.3785 20.6345 46.1572C20.6798 46.0466 20.7518 45.9521 20.8425 45.8793C21.3145 44.9753 20.1731 44.5948 20.1917 43.8393C20.1811 43.7152 20.2051 43.5964 20.2664 43.4858C20.4238 43.3779 20.5865 43.3536 20.7571 43.4453C20.7972 43.4777 20.8345 43.5182 20.8771 43.5505C20.8131 43.4939 20.7545 43.4318 20.7011 43.359C20.5171 43.0675 20.5171 42.7518 20.5571 42.428C20.5971 42.2202 20.6825 42.0395 20.8585 41.9126Z" fill="#D14E3E"/>
<path d="M22.419 36.7583C21.659 35.7896 21.6643 34.8181 22.411 33.844C22.4137 34.8154 22.4164 35.7869 22.419 36.7583Z" fill="#D15445"/>
<path d="M22.1738 43.5271C22.2752 42.7122 21.9418 41.8487 22.4299 41.0769C22.3365 41.8918 22.7046 42.758 22.1738 43.5271Z" fill="#B53728"/>
<path d="M1.646 48.9293C2.39542 49.1236 2.28075 49.5338 1.90471 50.006C1.72869 49.6687 1.606 49.3206 1.646 48.9293Z" fill="#DE6C56"/>
<path d="M8.04413 8.98886C8.02546 8.83775 7.81211 8.62727 8.03614 8.55711C8.20682 8.50315 8.43619 8.64886 8.63888 8.70552C9.01225 8.62997 9.38029 8.71902 9.751 8.7433C10.9431 9.03473 12.1913 8.52743 13.3728 8.98616C13.4634 9.256 13.5541 9.52584 13.6448 9.79298C13.0927 10.3219 12.3833 10.3381 11.6925 10.419C11.5059 10.4298 11.3192 10.4298 11.1352 10.4298C10.4604 10.3785 10.5138 10.8885 10.4711 11.323C10.1297 13.6948 10.1457 16.0937 9.88435 18.4683C9.38829 20.7889 8.79088 23.0825 7.92678 25.2952C7.69209 25.8943 7.76944 26.3854 8.17216 26.9116C9.08159 28.1016 9.01491 28.3741 7.7801 29.4103C7.66009 29.4588 7.5374 29.5101 7.40672 29.5209C5.83587 29.6369 5.54784 29.2915 5.84121 27.659C5.95055 26.8117 6.5293 26.129 6.65198 25.2871C7.39606 22.8424 8.39618 20.4705 8.59887 17.8801C8.82289 17.2459 8.71621 16.5794 8.78289 15.9291C9.11626 14.1994 9.23093 12.4455 9.34561 10.6942C9.31361 10.419 9.85768 9.97377 9.03892 9.9252C8.56953 9.89282 8.20148 9.48806 8.04413 8.98886Z" fill="#CD3A2B"/>
<path d="M13.3697 8.98453C12.1243 9.14913 10.8761 9.44595 9.63599 8.96294C9.36929 8.63643 8.89456 8.79294 8.60919 8.50961C10.2467 7.1847 12.1723 7.20089 14.0472 7.57866C14.3539 7.64073 15.0473 8.06977 15.4873 8.43945C14.7832 8.62834 14.0178 8.57707 13.3697 8.98453Z" fill="#D85645"/>
<path d="M11.5109 10.0741C12.2203 9.97964 12.9324 9.88789 13.6418 9.79345C14.0552 9.55329 14.5059 9.49933 14.9726 9.53171C15.9461 9.79885 15.266 10.6326 15.5114 11.148V11.1453C15.8101 11.4449 15.6127 11.9926 16.0368 12.2301C16.0421 12.3191 16.0448 12.4055 16.0474 12.4945C15.9754 13.3607 16.0181 14.1999 16.5702 14.9285C16.5728 15.0175 16.576 15.1066 16.576 15.1956C16.2213 15.1956 15.8661 15.1956 15.5087 15.1956C15.266 13.5172 14.0899 12.446 13.0337 11.3019C13.0604 11.0914 13.2018 10.7973 12.7537 10.9106C12.1937 10.8512 11.5029 10.9915 11.5109 10.0741Z" fill="#D14434"/>
<path d="M15.5112 11.1487C14.9404 10.7439 15.5405 9.93711 14.9724 9.53235C15.0791 9.27331 15.2578 9.08982 15.5298 9.01426C15.8739 9.72934 15.8819 10.439 15.5112 11.1487Z" fill="#D14E3E"/>
<path d="M15.773 8.17669C15.6397 7.73685 14.3995 7.3132 15.757 6.85717C15.7277 7.29701 16.3411 7.72875 15.773 8.17669Z" fill="#DE5D4B"/>
<path d="M18.1733 52.1582C18.2613 52.2473 18.352 52.339 18.44 52.4281C17.9013 52.9138 17.0985 52.4523 16.5651 52.9596C16.3891 52.965 16.2157 52.9704 16.0397 52.9758C15.6343 53.2781 15.1036 52.9192 14.7009 53.2295C12.7487 53.7395 10.7964 53.4534 8.8442 53.2295C8.62018 53.0028 8.21213 53.2187 7.97477 52.7762C9.24158 51.856 10.7004 52.1016 12.1033 52.0665C13.3754 52.509 14.6555 52.4766 15.9384 52.107C16.4558 52.1771 16.4931 51.5673 16.8665 51.4351C17.0451 51.4 17.2158 51.4189 17.3812 51.4944C17.6665 51.6887 17.9493 51.8884 18.1733 52.1582Z" fill="#D55442"/>
<path d="M15.2368 6.28054C15.2368 5.35769 15.2368 4.43754 15.2368 3.51469C16.1676 4.26214 15.4075 5.21467 15.7649 6.0107C15.6609 6.24816 15.4582 6.28323 15.2368 6.28054Z" fill="#E3DDD6"/>
<path d="M19.2431 23.2889C20.0965 24.8108 20.7632 26.4163 21.3153 28.0705C21.454 28.486 21.5233 28.9285 21.8994 29.2146C21.8994 29.4898 21.8994 29.765 21.902 30.0403C21.7207 30.2103 21.5713 30.4127 21.3793 30.5719L21.3686 30.5773C20.8112 30.669 20.6486 30.302 20.7446 29.8865C20.8619 29.3765 20.5525 29.0662 20.3845 28.6803C20.1925 28.0974 19.9365 27.5281 19.8938 26.9048C19.8778 26.5675 20.1392 26.1168 19.5311 26.0251C18.995 25.2749 18.5203 24.4978 18.5123 23.5291C18.6377 23.0784 18.9684 23.2673 19.2431 23.2889Z" fill="#CB4839"/>
<path d="M21.379 30.574C21.387 30.2286 21.555 30.0451 21.9017 30.0424C21.9977 30.485 22.0937 30.9298 22.1897 31.3723C22.1897 31.8121 22.1898 32.2551 22.1898 32.6976C21.8004 32.0041 21.9631 31.1622 21.379 30.574Z" fill="#D75B4B"/>
<path d="M12.3112 52.4263C11.1457 52.4586 9.96422 52.3048 8.82809 52.6961C8.6574 52.7555 8.33203 52.5396 8.34537 52.8796C8.34803 53.001 8.67074 53.1144 8.84676 53.2304C7.85998 53.082 6.84654 53.109 5.9051 52.7042C6.25447 52.7042 6.60383 52.7042 6.97454 52.7042C6.45714 51.4225 6.45982 51.4144 7.24924 51.355C8.67074 52.0728 10.2069 51.7004 11.6924 51.838C11.9031 51.8623 12.0978 51.9271 12.2712 52.0512C12.3832 52.1645 12.3965 52.2886 12.3112 52.4263Z" fill="#D44938"/>
<path d="M14.7012 53.2289C15.0852 52.8026 15.5866 53.0238 16.04 52.9753C15.6586 53.4124 15.1546 53.1776 14.7012 53.2289Z" fill="#C23F30"/>
<path d="M5.94213 17.6461C6.31284 17.1658 6.40618 16.5937 6.45952 16.0109C6.8409 14.9585 7.31335 13.9303 7.23334 12.7646C7.32936 12.4975 7.4227 12.2303 7.51871 11.9632C7.84142 11.4613 7.44669 10.8434 7.77473 10.3414C7.7774 10.1634 7.78274 9.98796 7.78541 9.80987C8.37481 9.47796 8.47614 9.90161 8.50815 10.3226C8.53482 10.7138 8.40681 11.1078 8.47882 11.5072C8.48415 11.6421 8.47082 11.7743 8.44948 11.9092C8.33747 12.5838 8.40147 13.2611 8.39614 13.9384C8.21479 16.7933 7.28134 19.4674 6.44125 22.1604C6.28123 22.6731 6.09987 23.1804 5.92652 23.6904C5.54514 24.4648 5.21178 25.2608 4.85441 26.0461C4.57971 26.4724 4.6117 27.0742 4.12365 27.3845C3.91562 27.46 3.74494 27.398 3.59292 27.2496C3.56358 27.1902 3.53691 27.1308 3.50758 27.0715C3.56892 26.4185 4.19566 25.6872 3.24355 25.1799C3.28088 24.1545 4.14735 23.4607 4.30204 22.4812C4.86744 20.8757 6.03547 19.481 5.94213 17.6461Z" fill="#D13F30"/>
<path d="M6.16911 27.6001C6.04376 29.2245 6.04377 29.2245 7.77196 29.2272C7.92131 29.3783 7.94798 29.5618 7.90264 29.7615C7.2519 30.7599 6.09709 31.0594 5.22499 31.7502C5.11298 31.7961 4.99296 31.8149 4.87295 31.8149C4.29955 31.7232 4.43558 31.0459 4.04886 30.795C3.96352 30.7248 3.88084 30.6492 3.7955 30.5818C3.09675 30.4523 3.16343 30.9677 3.20077 31.3643C3.25411 31.9418 3.20877 32.4788 2.92074 32.9887C2.65138 33.5122 2.22999 33.801 1.63793 33.8145C1.50458 33.4448 0.88584 33.0049 1.78728 32.7756C1.84862 32.7594 1.92861 32.4788 1.89128 32.4491C1.14452 31.8095 2.03529 31.1916 1.90728 30.5683C2.04063 30.4064 2.14997 30.2229 2.32599 30.0988C2.57936 29.6212 2.73671 29.0491 3.40878 29.0005C3.87817 29.041 3.98752 28.6821 4.11554 28.3421C4.46224 27.7053 5.30501 28.3178 5.66505 27.708C5.81973 27.6001 5.97709 27.5083 6.16911 27.6001Z" fill="#D54A3A"/>
<path d="M11.775 52.1592C10.8656 52.1592 9.95616 52.1673 9.04405 52.1592C8.33464 52.1538 7.68923 51.9811 7.24385 51.3551C7.86258 50.9045 8.69735 50.6751 8.8307 49.7388C9.90282 49.1397 10.9723 49.7846 12.0417 49.7361C12.5751 50.0788 13.1459 50.1543 13.7699 50.0383C14.1486 49.9681 14.626 49.9412 14.7674 50.408C14.9274 50.9369 14.4153 51.0178 14.0873 51.1905C13.9273 51.2742 13.8206 51.4064 13.7166 51.5494C13.4446 51.8408 13.1725 51.7734 12.9005 51.544C12.4978 50.9962 11.9511 51.2499 11.5643 51.258C11.8177 51.2094 12.1884 51.1743 12.5591 51.2796C12.7671 52.0027 11.9457 51.7815 11.775 52.1592Z" fill="#D04131"/>
<path d="M1.63793 33.8145C1.79795 33.2802 2.48633 33.4585 2.70769 33.0051C3.43577 33.2453 2.92372 33.8821 3.11574 34.2977C2.80904 35.6685 2.25697 37.0123 2.69436 38.4586C2.78237 38.9686 2.83837 39.4759 2.56101 39.9508C2.45166 40.083 2.32632 40.1073 2.17963 40.021C1.90227 39.206 1.02217 38.4721 1.86493 37.5007C1.92627 37.4278 1.81959 37.2065 1.79025 37.0554C1.66224 37.1957 1.53156 37.3361 1.19819 37.7003C1.5769 36.2324 1.08053 34.9802 1.63793 33.8145Z" fill="#D14232"/>
<path d="M12.3217 50.0217C11.1456 50.1135 9.99613 49.8517 8.83333 49.7384C8.62264 49.7222 8.42261 49.6871 8.31059 49.4686C8.60129 49.1259 9.00134 49.1178 9.39872 49.0935C10.7509 49.0206 12.1137 49.1987 13.4605 48.9667C14.402 48.8047 15.3594 48.7157 16.2742 48.4216C16.7009 48.319 17.0823 48.1194 17.437 47.8684C18.1144 47.5392 18.2797 46.646 19.0292 46.3951C19.1678 46.4059 19.2772 46.4679 19.3545 46.5867C19.4025 46.7216 19.4159 46.8592 19.3972 46.9995C18.9145 48.3055 17.9677 49.142 16.6902 49.5522C15.2767 50.0055 13.8366 50.413 12.3217 50.0217Z" fill="#BB3E30"/>
<path d="M2.17644 40.0211C2.25912 40.0157 2.34446 40.013 2.42714 40.013C3.2539 40.7658 2.99787 41.8479 3.22456 42.7788C3.46726 43.7772 3.66995 44.7891 3.68062 45.828C3.62728 46.0601 3.55527 46.2706 3.24857 46.222C3.06455 45.8685 2.87786 45.5123 2.69384 45.1588C1.96309 44.5733 1.75239 43.8582 2.17378 42.9893C2.17644 41.999 2.17644 41.0087 2.17644 40.0211Z" fill="#C33A29"/>
<path d="M2.17389 42.9875C2.34724 43.7107 2.5206 44.4338 2.69395 45.157C2.33391 45.1624 1.9392 45.9368 1.63517 45.1948C1.29913 44.3718 1.13377 43.4894 1.64049 42.6421C1.82185 42.7554 1.99787 42.8715 2.17389 42.9875Z" fill="#D24536"/>
<path d="M3.53425 29.2222C2.8115 29.233 2.72349 29.7592 2.65948 30.3124C2.65681 30.3367 2.58748 30.3691 2.55014 30.3664C2.51014 30.3637 2.47547 30.3259 2.43546 30.3016C2.17943 29.9427 2.23543 29.5892 2.46213 29.2411C3.05153 28.6367 2.26743 27.3523 3.50757 27.0689C3.68893 27.39 4.00363 27.641 4.02497 28.0511C4.0303 28.178 4.0223 28.3048 4.0063 28.4289C3.93962 28.7473 3.80628 29.0253 3.53425 29.2222Z" fill="#D0402F"/>
<path d="M9.44191 49.4247C9.06586 49.4382 8.68982 49.4543 8.31111 49.4678C6.90828 49.4624 5.60948 49.1575 4.56936 48.1159C4.46001 47.9972 4.46267 47.8812 4.58002 47.7705C5.73215 47.5142 6.50024 48.5909 7.56436 48.6421C8.12709 48.8607 8.76183 48.769 9.30856 49.0631C9.42857 49.1548 9.47124 49.2763 9.44191 49.4247Z" fill="#BD4936"/>
<path d="M4.5771 50.8067C4.63844 51.2223 5.24651 51.2411 5.24117 51.7188C3.62499 51.7242 3.15027 51.314 3.52631 50.1861C3.70233 49.6545 3.84103 50.3021 4.02238 50.2751C4.34508 50.3048 4.66244 50.3426 4.5771 50.8067Z" fill="#D34636"/>
<path d="M4.5771 50.8067C4.39308 50.6286 4.20907 50.4505 4.02238 50.2751C4.10506 49.8245 4.37437 49.4978 4.81976 49.657C5.25447 49.8135 5.67051 50.1022 6.00655 50.4287C6.2119 50.6284 5.94254 50.7768 5.72652 50.8578C5.3318 51.0089 4.95848 50.8634 4.5771 50.8067Z" fill="#E9917F"/>
<path d="M4.59594 47.7897C4.58794 47.8976 4.57994 48.0082 4.56927 48.1189C4.11322 47.9867 4.07855 47.3013 3.52116 47.304C3.17178 47.1502 3.0171 46.9208 3.22246 46.543C3.23046 46.4351 3.24057 46.3299 3.24857 46.222C3.34725 46.106 3.4438 45.9898 3.53981 45.8738C3.66516 45.8549 3.78252 45.8792 3.88386 45.9575C4.2439 46.3946 4.44926 46.9127 4.65195 47.4335C4.68129 47.5576 4.66261 47.6763 4.59594 47.7897Z" fill="#C54835"/>
<path d="M2.46218 29.2419C2.45418 29.5954 2.44352 29.9489 2.43552 30.3024C2.2595 30.3914 2.08347 30.4805 1.91011 30.5695C2.01946 29.9381 2.13147 29.3067 2.24349 28.6618C2.53152 28.7967 2.40617 29.053 2.46218 29.2419Z" fill="#DC5E4E"/>
<path d="M3.222 46.5411C3.32068 46.7948 3.42202 47.0484 3.5207 47.3021C3.47269 47.5045 3.48602 47.7824 3.36067 47.8876C3.21932 48.0037 3.05664 47.7932 3.0273 47.6259C2.96329 47.2454 2.83795 46.8434 3.222 46.5411Z" fill="#E37B66"/>
<path d="M8.31863 11.7019C8.12127 11.3403 7.97726 10.9868 8.18528 10.5605C8.38264 10.1584 8.28395 9.85892 7.78256 9.81305C7.7799 9.54051 7.77457 9.26797 7.7719 8.99543C7.86258 8.99543 7.95058 8.99274 8.04125 8.99274C8.64399 9.12766 8.91602 9.93987 9.72945 9.75638C9.97215 9.70241 9.85213 10.153 9.67344 10.3527C9.51075 10.3635 9.3614 10.4175 9.20672 10.4661C8.64665 10.6819 9.13206 11.6695 8.31863 11.7019Z" fill="#D64D3E"/>
<path d="M8.60691 8.50978C9.03896 8.45581 9.57503 8.15359 9.63371 8.96311C9.287 8.93343 8.90029 9.05486 8.63626 8.70406C8.63093 8.6393 8.62025 8.57454 8.60691 8.50978Z" fill="#EEB0A4"/>
<path d="M7.77473 10.3414C7.69206 10.8838 7.98277 11.4829 7.51871 11.9632C7.58272 11.4181 7.29734 10.8191 7.77473 10.3414Z" fill="#D64D3E"/>
<path d="M11.5108 10.0747C11.8521 10.8195 12.5269 10.5632 13.1003 10.6117C13.271 10.7709 13.2656 10.9409 13.127 11.119C14.2017 12.1363 15.5486 12.962 15.6259 14.689C15.6339 14.8563 15.5512 15.0263 15.5112 15.1963C15.2925 15.2044 15.0899 15.2503 14.9805 15.4742C15.0552 15.5363 15.0818 15.6011 15.0605 15.6685C15.0392 15.7387 15.0178 15.771 15.0018 15.7684C14.6898 15.7036 14.5378 15.7711 14.5485 16.1596C14.5591 16.559 14.5991 17.1202 13.8817 16.7964C13.7537 16.6696 13.6764 16.5023 13.5643 16.3674C13.4203 16.1947 13.4603 15.7603 13.047 15.941C12.9323 15.9923 12.7936 16.1218 12.8069 16.2406C12.8523 16.6588 13.231 16.3323 13.4257 16.4942C13.591 16.6318 13.7964 16.7371 13.9804 16.8612C14.5191 17.2012 14.5165 17.6977 14.3724 18.232C14.3191 18.348 14.2338 18.4344 14.1217 18.4937C13.9857 18.491 13.8817 18.4398 13.831 18.3021C13.711 18.4236 13.8524 18.5099 13.8871 18.599C13.9804 18.8445 14.0711 19.0874 14.1404 19.3437C14.2177 19.6567 14.2391 19.9751 14.2444 20.2963C14.2498 20.4932 14.2418 20.6875 14.2204 20.8845C13.9351 21.5996 14.4231 22.4685 13.791 23.1161C13.479 23.4669 12.9269 23.2699 12.6176 23.6638C12.2042 24.19 11.8575 24.2656 11.4014 23.6045C11.0574 23.1026 10.428 23.3805 9.91059 23.4615C9.60122 23.51 9.27585 23.5424 9.07316 23.2294C8.8678 22.911 9.05183 22.6277 9.21718 22.3632C9.40654 22.061 9.60123 21.7615 9.81992 21.4808C9.9746 21.2866 10.1293 20.9789 10.444 21.1867C10.6973 21.354 10.6574 21.6508 10.556 22.1123C10.7934 21.5537 10.7107 20.9223 11.4094 21.014C11.6468 21.0383 11.6788 21.3297 11.8842 21.3945C11.8095 21.2407 11.7028 21.1193 11.5535 21.0356C10.892 21.0869 10.8654 20.6309 10.868 20.1532C10.94 20.7118 10.644 20.9115 10.1399 20.9493C9.4972 20.9978 9.16117 20.7577 9.47587 20.1209C9.7559 19.5542 9.62789 18.9956 9.64656 18.4317C9.69457 15.995 9.82525 13.5665 10.1773 11.1514C10.444 10.7925 10.5 10.2798 10.9694 10.0721C11.1454 10.0747 11.3294 10.0747 11.5108 10.0747Z" fill="#D13C2F"/>
<path d="M19.2431 23.2889C19.067 23.5911 18.8855 23.316 18.7041 23.2917C18.5068 23.5103 18.5814 23.9771 18.1147 23.9501C17.5947 23.799 17.4826 23.3403 17.3466 22.9005C17.28 22.5955 17.2026 22.2933 17.1199 21.9911C17.0186 21.6295 16.8426 21.2868 16.4265 21.3732C16.1332 21.4352 15.9678 21.7536 15.8905 22.0613C15.8158 22.3554 15.9518 22.6738 15.8131 22.9652C15.3304 23.343 15.1117 23.0138 14.9917 22.609C14.8583 22.1584 14.7997 21.6835 14.909 21.2194C14.9037 21.106 15.133 21.1438 15.077 20.9819C15.0184 20.8119 15.1437 21.0494 14.9624 21.0116C14.7917 21.017 14.669 20.936 14.5703 20.8065C14.3116 20.2156 14.5143 19.6786 14.7543 19.147C14.8237 19.0391 14.917 18.9581 15.0317 18.9041C15.1837 18.8178 15.5731 19.4303 15.5278 18.7099C15.4797 17.9165 14.933 17.1448 15.4024 16.3218C15.6958 16.1572 16.0025 15.9548 16.0451 16.5403C16.9386 18.2862 17.384 20.2021 18.0614 22.0316C18.2854 22.636 18.4988 23.0974 19.2268 23.0273C19.2322 23.119 19.2404 23.2026 19.2431 23.2889Z" fill="#C93B2C"/>
<path d="M16.0421 16.5445C15.8607 16.2773 15.6821 16.2719 15.5034 16.5472C15.2047 16.6632 15.0153 16.5121 14.8579 16.2747C14.7939 16.075 14.8073 15.8915 14.9646 15.735C14.9673 15.6486 14.9726 15.5596 14.9753 15.4732C15.3113 15.5731 15.6741 15.6216 15.9728 15.7889C16.2875 15.9589 16.7462 16.2315 16.0421 16.5445Z" fill="#CD5347"/>
<path d="M16.5702 14.9285C16.0821 14.1864 15.1485 13.5421 16.0446 12.4951C16.5487 13.2345 16.1728 14.1675 16.5702 14.9285Z" fill="#D14E3E"/>
<path d="M16.0371 12.233C14.9543 12.3221 15.4767 11.6122 15.5114 11.148C16.2208 11.2452 15.9891 11.8094 16.0371 12.233Z" fill="#D14E3E"/>
<path d="M14.5143 3.64998C14.797 4.23284 14.725 4.83188 14.5143 5.43362C14.5143 4.83997 14.5143 4.24363 14.5143 3.64998Z" fill="#BEBAB3"/>
<path d="M12.0419 5.75447C12.0419 5.66543 12.0419 5.57638 12.0419 5.48733C12.2846 5.40098 12.33 4.97194 12.658 5.08257C12.842 5.14464 12.8367 5.3713 12.7807 5.5467C12.642 5.98114 12.3486 5.90019 12.0419 5.75447Z" fill="#E0DDD9"/>
<path d="M10.1592 4.13309C10.2472 4.04944 10.3352 3.96579 10.4232 3.88214C10.4232 4.49738 10.4232 5.11261 10.4232 5.72784C10.3352 5.73054 10.2472 5.73324 10.1592 5.73594C10.1592 5.19896 10.1592 4.66468 10.1592 4.13309Z" fill="#D3CEC7"/>
<path d="M8.57991 5.20712C8.61191 4.81855 8.47589 4.4084 8.74793 3.99284C9.31866 4.13856 9.00929 4.62696 9.10264 4.93998C8.95862 5.09109 8.88661 5.38521 8.57991 5.20712Z" fill="#E3DDD6"/>
<path d="M8.57991 5.20712C8.75326 5.11807 8.92662 5.02902 9.10264 4.93998C9.0813 5.18013 9.19106 5.50659 8.9057 5.60374C8.60433 5.70897 8.62524 5.39601 8.57991 5.20712Z" fill="#F1EDE7"/>
<path d="M15.2531 1.98414C14.2556 2.58588 13.1488 2.51842 12.0527 2.53191C11.914 2.00303 11.7535 1.57164 11.0307 1.69037C10.46 1.78481 9.86262 1.70925 9.28389 1.60402C10.9827 0.670374 14.0182 0.926368 15.2531 1.98414Z" fill="#F5F1EB"/>
<path d="M20.5816 28.6822C20.8616 29.0384 21.443 29.2597 20.955 29.9127C20.7416 30.2014 21.1043 30.4281 21.3657 30.5792C21.187 30.9948 20.9657 31.3105 21.0457 31.8879C21.2563 33.4287 21.2323 35.0046 21.2617 36.5669C21.2643 36.7262 20.987 36.8881 20.8376 37.05C19.9975 36.8395 20.1015 36.1514 20.0775 35.5254C20.3282 34.7995 20.1336 34.0736 20.0509 33.3505C20.2722 31.8124 19.8269 30.2419 20.2402 28.7092C20.3496 28.6067 20.4616 28.6013 20.5816 28.6822Z" fill="#C13E30"/>
<path d="M20.3204 35.4144C20.3204 36.0161 20.4537 36.5747 20.8431 37.0496C21.0484 38.6686 21.2271 40.2877 20.8618 41.9121C20.8538 42.0875 20.8458 42.2629 20.8378 42.441C20.5231 42.6002 20.9951 43.4664 20.1844 43.1803C19.9603 42.843 19.9577 42.4572 19.9443 42.074C19.9177 40.0529 20.0403 38.0264 19.747 36.0134C19.787 35.7706 19.875 35.5574 20.0857 35.4144C20.163 35.4144 20.2404 35.4144 20.3204 35.4144Z" fill="#BA3D30"/>
<path d="M19.2504 46.7723C19.2504 46.6806 19.2478 46.5888 19.2478 46.4971C19.5011 45.5526 19.4931 44.5057 20.3119 43.7906C20.6906 44.4922 21.5787 44.9509 21.328 45.9547C21.32 45.9817 21.256 46.0114 21.2213 46.0114C21.1813 46.0114 21.144 45.9736 21.104 45.952C21.0187 45.8333 20.9333 45.7361 20.848 45.952C20.6959 46.8479 21.44 47.5279 21.2 48.5829C20.7786 50.4259 19.8505 51.5431 18.1756 52.161C17.7863 52.1664 17.4022 52.1664 17.3782 51.6186C17.3169 51.4028 17.4369 51.2651 17.6103 51.222C19.8532 50.685 20.1679 48.9013 20.2239 47.0098C19.9199 47.2877 20.6186 48.0891 19.7625 48.1593C19.3385 47.7896 19.5171 47.196 19.2504 46.7723Z" fill="#CB4435"/>
<path d="M20.3091 43.7881C19.9037 44.6705 20.0638 45.7795 19.245 46.4946H18.989C18.5543 45.8335 19.1543 45.3127 19.221 44.7191C19.7037 43.9068 19.2583 42.7061 20.2798 42.1178C20.2878 42.4956 20.2985 42.8734 20.3065 43.2511C20.3998 43.3105 20.4318 43.3726 20.3998 43.4346C20.3705 43.4967 20.3384 43.5291 20.3091 43.5291C20.3091 43.6181 20.3091 43.7018 20.3091 43.7881Z" fill="#B74635"/>
<path d="M20.8403 43.5256C21.0857 43.5823 21.347 43.2801 21.5684 43.5337C21.6217 43.5931 21.5844 43.836 21.5177 43.8818C21.1097 44.149 21.0083 43.7658 20.8403 43.5256Z" fill="#CB4435"/>
<path d="M20.8453 45.9498C20.792 45.7528 20.736 45.5531 20.696 45.3534C20.6933 45.3426 20.848 45.259 20.896 45.2833C21.2 45.4236 21.0747 45.715 21.1014 45.9525H20.9734L20.8453 45.9498Z" fill="#D55E4E"/>
<path d="M20.3096 43.5324C20.3096 43.4406 20.3069 43.3489 20.3069 43.2544C20.483 42.9846 20.659 42.7121 20.835 42.4422C20.8377 42.8038 20.8377 43.1654 20.8403 43.527C20.6643 43.527 20.4883 43.5297 20.3096 43.5324Z" fill="#CB4435"/>
<path d="M14.7091 20.8595C14.8851 20.8595 15.0612 20.8595 15.2372 20.8595C15.3172 20.9189 15.3439 20.9782 15.3172 21.0403C15.2932 21.1023 15.2665 21.132 15.2399 21.132C15.2452 21.6258 15.2212 22.1196 15.2692 22.608C15.3039 22.9615 15.5172 23.0155 15.7706 22.7511C15.9599 22.6512 16.1253 22.716 16.28 22.8347C16.368 22.9265 16.4267 23.0344 16.4613 23.1558C16.4853 23.5039 16.3466 23.7576 16.0319 23.9033C15.7279 24.1353 15.7626 23.342 15.4185 23.6982C14.9465 23.8736 14.4158 24.0301 15.1625 24.5725C15.6132 25.3199 15.7653 26.2077 16.256 26.9336C16.3467 27.1737 16.4187 27.4193 16.424 27.6783C16.1893 28.4905 15.7039 28.7631 14.9358 28.3556C14.3198 28.0291 13.6317 28.3151 13.0023 28.0669C12.2315 27.7647 11.5968 27.4544 12.1408 26.4344C12.3889 25.9675 12.0715 25.3577 12.3462 25.042C12.1088 25.6033 11.3061 25.4683 10.7833 25.838C10.6527 25.9864 10.522 26.1402 10.394 26.2806C10.2926 26.4182 10.2686 26.1915 10.3486 26.3507C10.378 26.4101 10.4793 26.3993 10.562 26.3696C10.6713 26.3696 10.7673 26.3912 10.866 26.4317C11.2074 26.7555 11.5728 27.0577 11.8581 27.5056C11.3327 27.9455 10.394 27.7728 10.314 28.6821C10.1806 28.7604 10.2153 28.8197 10.5166 29.0275C10.5193 29.157 10.4766 29.265 10.3833 29.354C10.2179 29.462 10.0366 29.5186 9.84724 29.5483C9.13249 29.4269 8.51109 30.2148 7.767 29.7669C7.767 29.5888 7.76967 29.408 7.76967 29.2299C8.55376 28.4177 8.93514 27.6675 7.65232 26.9201C7.28962 26.7069 7.15094 26.2077 7.37229 25.722C8.42575 23.3906 8.86847 20.8622 9.63922 18.439C10.1539 19.0165 10.1139 19.6317 9.72455 20.2416C9.62854 20.3927 9.47652 20.4844 9.64187 20.6787C9.95924 21.0484 10.1379 20.4062 10.4153 20.5735C10.7007 20.7435 10.7407 20.5195 10.6607 20.3738C9.99658 19.1487 11.2767 20.1012 11.2687 19.6776C11.8421 19.9798 10.346 20.9701 11.7781 20.873C11.8448 21.1212 11.7461 21.1995 11.5114 21.1401C10.6367 21.2076 11.2101 22.4704 10.3353 22.5514C9.88191 22.1871 10.6713 21.7635 10.2953 21.3398C9.90857 21.9173 9.53254 22.4785 9.11649 23.0992C10.0659 23.5876 11.5354 21.9254 11.9515 24.1084C12.3435 23.2907 12.8076 22.7942 13.637 23.0263C14.5011 23.0155 14.3331 22.4488 14.2104 21.9227C14.0984 21.4208 13.9517 20.9269 14.7091 20.8595Z" fill="#D33F31"/>
<path d="M8.87053 17.9405C8.78786 20.5876 7.75039 22.9865 6.96097 25.4474C6.84896 25.5257 6.73962 25.523 6.63561 25.4366C6.36358 24.9995 6.51025 24.5543 6.6916 24.1603C6.91563 23.6773 6.74229 23.3211 6.48626 22.9514C6.40892 22.5602 6.39558 22.1851 6.75029 21.9098C6.97164 21.9827 7.15833 21.9773 7.21701 21.6913C7.93709 20.4446 7.76907 19.0307 7.96909 17.6869C8.06511 17.0446 8.03577 16.335 8.71851 15.9437C8.87586 15.968 8.95854 16.0597 8.96654 16.2189C8.9292 16.7964 9.07056 17.3792 8.87053 17.9405Z" fill="#E68C83"/>
<path d="M6.70254 25.4479C6.78788 25.4479 6.87563 25.4474 6.96097 25.4474C6.69694 26.1652 6.43584 26.8808 6.17181 27.5985C6.0838 27.6876 5.99578 27.7766 5.90777 27.863C4.51561 28.0735 4.31027 27.7874 4.55563 25.9903C4.89967 25.2455 5.24636 24.5035 5.5904 23.7587C5.79309 23.7938 5.91845 23.9206 6.00379 24.1014C6.0518 24.3146 6.04379 24.5332 5.96111 24.7274C5.5824 25.6395 6.11847 25.5639 6.70254 25.4479Z" fill="#E7887D"/>
<path d="M9.3696 10.0874C9.47095 10.1738 9.57228 10.2628 9.67629 10.3492C9.62295 12.2488 9.55095 14.1485 9.08423 16.0023C9.00689 16.1291 8.92421 16.1237 8.84153 16.0077C8.22813 15.3061 8.63085 14.3995 8.36682 13.6277C8.42816 12.3703 8.62285 11.1479 9.3696 10.0874Z" fill="#E2837A"/>
<path d="M10.9644 10.077C10.7484 10.4709 10.6604 10.962 10.1723 11.1563C10.151 10.5816 10.1136 9.99331 10.9644 10.077Z" fill="#D95142"/>
<path d="M8.83865 16.0075C8.91866 16.0075 9.00133 16.0048 9.08134 16.0021C9.06 16.6524 9.24136 17.327 8.87065 17.9396C8.85998 17.2973 8.84932 16.6524 8.83865 16.0075Z" fill="#DE7A71"/>
<path d="M13.127 11.119C13.119 10.949 13.111 10.7817 13.1003 10.6117C13.2816 10.5713 13.535 10.3628 13.6044 10.6974C13.6764 11.0428 13.415 11.1271 13.127 11.119Z" fill="#DF6A5B"/>
<path d="M19.7816 48.1168C20.2696 47.7336 19.8669 47.086 20.1923 46.6057C20.7844 49.5038 19.9469 50.9717 17.376 51.6166C17.1973 51.6166 17.0186 51.6193 16.8426 51.6193C16.3092 51.5006 15.8531 51.8136 15.3544 51.8973C14.349 52.1077 13.3649 52.5854 12.3061 52.1617C12.13 52.159 11.954 52.159 11.778 52.1563C11.7273 51.5627 12.3914 51.703 12.5808 51.3522C12.7541 51.193 12.9301 51.1957 13.1062 51.3468C13.2848 51.622 13.4635 51.622 13.6422 51.3468C14.1196 50.8881 14.7623 50.7639 15.3411 50.7666C17.3653 50.772 18.8775 49.9895 19.7816 48.1168Z" fill="#CA3B2C"/>
<path d="M12.3061 52.1617C13.3702 51.9809 14.4338 51.7972 15.4979 51.6164C15.8366 51.8134 16.3647 51.8161 16.298 52.4232C14.9699 52.6175 13.6393 53.1629 12.3112 52.4263C12.3085 52.3372 12.3061 52.2508 12.3061 52.1617Z" fill="#D04131"/>
<path d="M16.2985 52.4226C16.1118 52.0718 15.4504 52.204 15.4984 51.6158C15.9465 51.2218 16.3945 51.211 16.8399 51.6185C16.5999 51.8451 16.7972 52.374 16.2985 52.4226Z" fill="#D14E3E"/>
<path d="M20.5816 28.6822C20.4883 28.6876 20.3948 28.6904 20.3015 28.6958C20.1948 29.0385 20.3388 29.3974 20.2294 29.7482C20.1254 30.0801 20.1521 30.5496 19.7201 30.5766C19.2667 30.6036 19.2613 30.134 19.1707 29.8048C19.016 29.1626 18.8586 28.569 19.1227 27.8566C19.6107 26.5371 18.6239 25.8112 17.7705 25.08C17.5891 24.5592 17.7652 24.1598 18.1759 23.8387C18.3546 23.6579 18.5306 23.4798 18.7093 23.299C18.7466 24.3271 19.4027 25.1069 19.7681 26.0028C20.0508 26.1944 20.1388 26.4561 20.0588 26.7853C20.2668 27.4033 20.5816 27.9969 20.5816 28.6822Z" fill="#C43B2E"/>
<path d="M20.0536 26.7777C19.9576 26.516 19.8616 26.2569 19.7629 25.9952C19.7949 25.836 19.8483 25.5499 20.0136 25.6741C20.4297 25.9844 20.4403 26.3945 20.0536 26.7777Z" fill="#D95A49"/>
<path d="M9.3696 10.0874C9.10824 11.2558 8.84693 12.4218 8.58556 13.5902C8.9376 15.0311 8.24419 16.3425 8.0655 17.716C7.96416 18.4904 7.76414 19.2649 7.55612 20.0258C7.27875 20.6384 7.45476 21.3939 6.97737 21.9444C6.58533 22.2277 6.75068 22.6541 6.71067 23.0264C6.41997 23.3664 6.33731 23.8656 5.90526 24.1004C5.80125 23.9871 5.69455 23.8764 5.59054 23.7631C6.32663 21.0458 7.37209 18.4176 7.88148 15.6328C7.98816 15.0554 8.0975 14.4914 8.07883 13.9059C8.37753 13.1962 7.96948 12.4029 8.32686 11.6986L8.32419 11.704C8.92693 11.3343 8.02278 9.9633 9.3696 10.0874Z" fill="#E99188"/>
<path d="M4.55263 25.9927C4.53396 26.9641 4.54463 27.9166 5.90479 27.8654C5.58475 28.6857 4.87266 28.3052 4.31259 28.397C4.16324 28.575 3.99255 28.5831 3.80586 28.4698C3.79786 28.3619 3.7872 28.2566 3.7792 28.1487C4.04056 27.9328 3.7552 27.5416 4.03524 27.3311C4.20592 26.8859 4.37928 26.4379 4.55263 25.9927Z" fill="#D74F3E"/>
<path d="M8.32147 11.6941C8.26813 12.4335 8.45481 13.1998 8.07343 13.9014C8.1321 13.1647 7.77208 12.3768 8.32147 11.6941Z" fill="#D64D3E"/>
<path d="M4.9878 22.0721C5.15848 22.547 4.94513 22.9842 4.78777 22.9788C4.34772 22.9653 4.6811 22.6496 4.7211 22.4688C4.74777 22.3554 4.85712 22.261 4.9878 22.0721Z" fill="#E25E4E"/>
<path d="M4.03524 27.3311C4.03257 27.6306 4.08857 27.9463 3.7792 28.1487C3.68852 27.7898 3.59825 27.4305 3.50757 27.0689C3.68359 27.1553 3.85922 27.2447 4.03524 27.3311Z" fill="#D54A3A"/>
<path d="M2.95288 34.0655C2.43282 33.8146 3.03821 33.2992 2.71017 33.0051C2.80619 32.4195 3.06488 31.8825 2.83019 31.2268C2.67284 30.787 3.00088 30.2257 3.3876 29.999C3.69696 29.8183 4.01166 30.1502 4.04366 30.5738C3.90764 30.7087 3.7823 30.8517 3.64628 31.0919C3.80097 30.8679 3.90231 30.7033 4.04633 30.5738C4.92643 30.474 4.45972 31.3779 4.83576 31.6559C4.8971 32.5166 3.95299 32.6893 3.71296 33.3424C3.47293 33.5987 3.29158 33.9171 2.95288 34.0655Z" fill="#D85543"/>
<path d="M7.7694 29.7641C8.50549 29.6697 9.11623 29.0491 9.92165 29.2325C11.0204 29.2056 12.1166 29.1489 13.21 29.0356C13.354 29.0059 13.4981 29.0005 13.6447 29.0113C14.0181 29.0895 14.3728 29.1894 14.4955 29.6238C14.3141 30.0475 13.9301 30.0717 13.5567 30.1203C12.2499 30.239 10.9351 30.0232 9.63361 30.2391C8.48148 30.5116 7.36668 30.8786 6.35856 31.5262C5.95052 31.6989 5.60382 32.0605 5.1051 31.9714C5.03043 31.8986 5.00641 31.8284 5.03042 31.7555C5.05442 31.6827 5.0811 31.6476 5.1051 31.6476C5.78518 30.7194 6.92397 30.4549 7.7694 29.7641Z" fill="#C53B2C"/>
<path d="M5.10473 31.6506C5.11806 31.7747 5.13139 31.9016 5.14472 32.0257C5.01404 32.8028 4.66467 33.4019 3.86725 33.6366C3.66722 33.5908 3.54987 33.4666 3.50719 33.2643C3.66721 32.4898 4.46505 32.2522 4.83576 31.6559C4.92644 31.6532 5.01405 31.6506 5.10473 31.6506Z" fill="#C44634"/>
<path d="M3.80657 28.469C3.97459 28.4447 4.14528 28.4204 4.3133 28.3988C4.24396 28.8576 4.47065 29.6023 3.53455 29.2246C3.62522 28.9709 3.71589 28.72 3.80657 28.469Z" fill="#E89284"/>
<path d="M19.7816 48.1168C19.6376 49.8141 18.2296 51.0067 16.2321 51.0715C15.36 51.1012 14.485 51.05 13.6422 51.3468C13.5142 50.5454 14.3785 51.0094 14.5972 50.5264C14.1838 49.984 13.6398 50.4535 13.1864 50.4319C12.797 50.4131 12.3783 50.6829 12.3223 50.0191C14.1198 50.0407 15.8347 49.6008 17.4375 48.848C18.275 48.454 18.8644 47.6607 19.2484 46.7702C20.1072 46.9456 19.6509 47.65 19.7816 48.1168Z" fill="#D34E3E"/>
<path d="M13.1057 51.3497C12.9297 51.3524 12.7536 51.3524 12.5803 51.3551C11.8682 51.1069 11.1134 52.0135 10.1987 51.1716C11.3161 51.1231 12.2202 50.8236 13.1057 51.3497Z" fill="#D34E3E"/>
<path d="M3.83817 33.6418C4.27289 33.1021 4.71 32.5627 5.14472 32.0257C5.47009 31.7828 5.65437 31.3158 6.16109 31.3617C6.77183 31.3859 7.17721 31.9175 7.9933 31.7178C8.85207 31.5074 8.43069 32.4248 8.26267 32.924C8.19333 33.0293 8.10798 33.121 8.01197 33.202C7.01986 33.6985 6.40913 34.535 5.93441 35.5765C6.49447 36.0676 7.52392 35.331 7.85463 36.3159C7.77462 36.8151 7.35056 37.0445 7.02786 37.3278C5.56369 38.6257 5.04363 40.2421 5.35833 42.1606C5.35566 42.2982 5.33699 42.4331 5.30766 42.5654C5.1263 43.8606 5.20365 45.2772 3.76082 45.9842C3.68881 45.9411 3.61715 45.9062 3.53981 45.8738C2.92907 43.9661 2.71803 41.9825 2.42466 40.0154C2.42199 39.4784 2.42201 38.9387 2.41934 38.4017C2.35533 37.1497 2.53935 35.9327 3.00341 34.7724C3.18476 34.3326 3.29677 33.8172 3.83817 33.6418Z" fill="#F9F2EB"/>
<path d="M3.83796 33.6428C3.01654 35.1215 2.72584 36.7621 2.4218 38.4C1.7924 36.8538 2.45113 35.4696 2.94986 34.0664C2.96853 33.6805 3.18189 33.435 3.50459 33.265C3.61661 33.3918 3.72862 33.5159 3.83796 33.6428Z" fill="#BA3324"/>
<path d="M20.2826 42.1208C20.0159 43.0355 19.7466 43.9476 19.4799 44.8623C19.3678 45.1699 19.0878 44.0906 18.9545 44.9568C18.8105 45.8931 18.4131 46.8429 17.5783 47.3367C16.8502 47.7685 17.8583 47.8359 17.6317 48.0842C17.3383 48.3891 16.9969 48.5915 16.5729 48.6401C14.8393 48.4161 14.4233 47.4636 15.3807 45.9039C15.4527 45.7879 15.4447 45.6502 15.4394 45.5153C15.8208 44.8596 16.4395 44.409 16.8422 43.7614C18.2877 41.4542 18.1144 39.3549 16.2502 37.3311C15.9248 36.9722 15.5327 36.7051 15.0954 36.5054C14.8287 36.3651 14.5486 36.2356 14.3726 35.9711C14.5033 35.4368 14.2579 35.0699 13.8499 34.773C13.4258 34.3926 14.578 34.8405 14.0766 34.2738C12.6417 32.6548 12.6737 32.6251 14.4099 31.3164C14.802 31.0223 15.2474 30.8415 15.7034 30.6769C15.8981 30.6256 16.0955 30.6229 16.2928 30.6661C18.197 31.8696 19.7972 33.2997 20.0053 35.7687C20.4987 37.8708 20.3893 39.9944 20.2826 42.1208Z" fill="#F9F2EB"/>
<path d="M15.4844 45.6734C15.6418 45.7031 15.9351 45.7327 15.8311 45.9162C14.8683 47.6027 14.9057 47.7781 16.5699 48.6389C15.6791 49.0734 14.7483 49.3 13.7536 49.2218C13.2815 49.3378 12.8094 49.4053 12.308 49.1921C12.324 48.7199 13.0548 48.2665 12.3801 47.7943C12.092 47.5919 10.6679 48.2611 10.4572 48.7037C10.4038 48.8143 10.5585 48.736 10.6145 48.7495C10.7985 48.7954 10.9959 48.898 10.9666 49.0761C10.9186 49.354 10.6412 49.3216 10.4278 49.3162C10.0331 49.3081 9.63308 49.381 9.24904 49.2326C8.64097 49.2784 8.05156 49.2218 7.50749 48.9195C7.8542 48.2557 7.37416 47.4084 8.08891 46.7689C8.48362 46.4181 8.81698 46.1726 9.3237 46.1591C11.1692 46.5692 12.9695 46.437 14.719 45.7031C14.9644 45.6005 15.2257 45.552 15.4844 45.6734Z" fill="#F9F4EE"/>
<path d="M9.24969 49.2329C9.72975 49.2059 10.2098 49.179 10.7245 49.1493C10.4312 48.7014 9.9511 49.0926 9.55906 48.7472C10.2285 48.6501 10.6845 48.3371 11.0392 47.8082C11.3993 47.2766 12.0153 47.2334 12.5941 47.3171C13.2181 47.4088 12.8154 48.0483 13.0795 48.3883C13.5115 48.9442 12.7488 48.8686 12.3247 49.1385C12.9781 49.1763 13.3648 49.1979 13.7542 49.2194C12.3354 49.689 10.8792 49.3652 9.44171 49.4191C9.3777 49.3598 9.3137 49.2977 9.24969 49.2329Z" fill="#F7EEE6"/>
<path d="M17.632 48.087C17.2986 47.6175 16.9092 48.2894 16.3651 47.882C17.968 47.0913 18.5147 45.5991 19.0481 43.9828C19.2161 44.3255 19.3465 44.5925 19.4799 44.8623C19.3172 45.4074 19.1575 45.9526 18.9948 46.495C18.5361 47.0239 18.3387 47.7794 17.632 48.087Z" fill="#EDE4DC"/>
<path d="M9.11355 46.4892C8.40147 46.7644 8.10277 47.3823 8.28679 47.9112C8.51349 48.5588 7.68671 48.513 7.50803 48.9204C6.39056 48.9312 5.59072 48.1 4.59594 47.7897C4.58527 47.7195 4.57436 47.6495 4.56103 47.5793C5.47046 46.9128 5.46247 45.48 6.63594 45.032C6.76129 44.9996 6.8893 44.9996 7.01731 45.0158C7.72406 45.4962 8.72684 45.5447 9.11355 46.4892Z" fill="#F7F0E8"/>
<path d="M6.71865 45.1155C6.29193 45.6417 5.7292 46.0654 5.62252 46.8182C5.53985 47.4092 5.03044 47.4874 4.56106 47.5765C4.20368 47.0908 3.88365 46.5889 3.76097 45.9817C4.64107 44.9725 4.8731 43.7178 5.06779 42.4468C5.66786 43.3076 6.56929 43.9741 6.71865 45.1155Z" fill="#FBF6F2"/>
<path d="M14.7085 20.8598C14.079 21.2942 14.5484 21.7502 14.6658 22.2144C14.8018 22.7486 14.5671 23.1669 14.1057 23.4098C13.7457 23.5986 13.687 23.2856 13.639 23.0212C14.1404 22.352 13.4923 21.5371 13.911 20.8571C13.9777 20.795 14.0497 20.7357 14.0844 20.6547C14.1457 20.5198 14.3057 20.4145 14.2284 20.2311C14.1564 20.3741 14.047 20.3984 13.911 20.3282C13.9084 19.9666 13.9084 19.6023 13.9057 19.2407C13.639 18.8522 13.879 18.6336 14.1724 18.4339C14.6205 18.3395 14.6765 18.8387 14.9725 18.9736C14.8872 19.6023 14.7991 20.2311 14.7085 20.8598Z" fill="#D24638"/>
<path d="M14.9755 18.9738C14.3248 19.3758 14.5088 18.5124 14.1754 18.4341C14.1808 17.8782 14.2288 17.317 13.9087 16.8178C14.6742 16.7179 14.0741 16.1243 14.2528 15.7789C14.5462 15.2122 14.7195 15.5252 14.9675 15.7384C14.9702 15.9192 14.9755 16.1 14.9782 16.2808C15.0422 17.1767 15.7943 18.0779 14.9755 18.9738Z" fill="#CE392B"/>
<path d="M13.9059 13.5845C13.7992 14.0567 13.7512 14.707 13.1992 14.7232C12.7351 14.7367 12.5724 14.1673 12.5484 13.6897C12.5298 13.3065 12.0497 13.3875 11.8603 13.0178C12.5511 12.9638 12.9885 12.4053 13.6445 12.4997C13.8926 12.8235 13.9113 13.2013 13.9059 13.5845Z" fill="#CE392B"/>
<path d="M13.9087 16.8178C13.538 17.1875 13.1915 16.3827 12.7381 16.8199C12.5728 16.9791 12.4021 16.488 12.3621 16.264C12.2527 15.638 12.9408 15.7081 13.2155 15.3951C13.4715 15.101 13.4369 15.5786 13.5382 15.7081C13.7942 16.0347 13.9621 16.386 13.9087 16.8178Z" fill="#CE392B"/>
<path d="M11.039 12.5467C11.111 12.088 11.5991 11.864 11.4684 11.4161C11.3404 10.9762 11.5244 10.844 11.9191 10.9034C12.2578 10.9547 12.5405 11.122 12.3671 11.5078C12.3058 11.6427 12.8125 12.3821 11.9751 11.9558C11.6257 11.7777 11.6177 12.6331 11.039 12.5467Z" fill="#CE392B"/>
<path d="M14.1724 18.4339C14.0844 18.7038 13.9937 18.9736 13.9057 19.2407C13.5163 18.7685 13.6341 18.0781 13.0927 17.6275C13.9515 17.4116 13.7937 18.2396 14.1724 18.4339Z" fill="#CE392B"/>
<path d="M12.8257 18.1377C13.2764 18.6747 13.4631 19.047 13.2737 19.6407C12.7244 19.298 12.727 18.8609 12.8257 18.1377Z" fill="#D74C3E"/>
<path d="M11.5139 21.1323C11.6019 21.0433 11.6926 20.9542 11.7806 20.8652C12.386 21.1593 12.3406 21.5479 11.9406 22.0066C11.6019 21.8042 11.5485 21.4723 11.5139 21.1323Z" fill="#D64B3E"/>
<path d="M13.9059 13.5845C13.5325 13.293 13.6632 12.8775 13.6445 12.4997C14.0899 12.7749 14.4313 13.0745 13.9059 13.5845Z" fill="#D65546"/>
<path d="M13.9137 20.3312C14.0604 20.1396 14.2071 19.948 14.3964 19.6998C14.4044 20.2152 14.6685 20.7602 13.9137 20.8601C13.9111 20.682 13.9137 20.5066 13.9137 20.3312Z" fill="#DB5B4E"/>
<path d="M10.9403 15.6547C11.0096 15.7383 11.1323 15.8247 11.159 15.9326C11.2043 16.1215 11.1137 16.2942 10.9163 16.3319C10.863 16.3427 10.7296 16.1808 10.7163 16.0837C10.6923 15.9245 10.6763 15.7275 10.9403 15.6547Z" fill="#D75547"/>
<path d="M11.7433 15.954C11.9674 15.8703 12.018 16.0079 12.0047 16.1294C11.994 16.2373 11.9247 16.3803 11.8393 16.4262C11.698 16.5017 11.5913 16.3803 11.602 16.2427C11.6127 16.1347 11.7033 16.0322 11.7433 15.954Z" fill="#D65244"/>
<path d="M14.9724 18.9757C14.9751 18.0772 14.9751 17.1759 14.9778 16.2773C15.1538 16.3664 15.3298 16.4581 15.5058 16.5472C15.3912 17.64 16.1886 18.6735 15.6712 19.796C15.2658 19.7016 15.3405 19.1322 14.9724 18.9757Z" fill="#D24638"/>
<path d="M16.3064 23.0187C16.1277 22.9297 15.9517 22.8406 15.773 22.7516C14.9036 21.8611 16.1517 21.4644 16.2211 20.7898C16.7491 21.0246 17.4132 21.1217 17.3732 21.9394C17.3358 21.9771 17.2958 22.0176 17.2585 22.0554C17.2078 22.0716 17.1545 22.0851 17.1065 22.104C16.7118 22.1417 16.6344 22.4682 16.5224 22.7651C16.4717 22.8676 16.3997 22.954 16.3064 23.0187Z" fill="#CE4132"/>
<path d="M16.3064 23.0187C16.3091 22.9297 16.3085 22.8405 16.3059 22.7515C16.6873 22.5976 16.4445 21.8124 17.1086 21.9419H17.106C17.3167 22.1848 17.3593 22.5437 17.6287 22.7461C17.6794 23.1724 17.8234 23.5556 18.1674 23.8335C18.0794 24.2814 17.9941 24.7294 17.9061 25.1773C17.9674 25.4337 17.8447 25.5092 17.6154 25.4849C17.1646 24.7968 17.2793 23.8281 16.5566 23.2722C16.4739 23.1886 16.3885 23.1049 16.3059 23.0213L16.3064 23.0187Z" fill="#CB4839"/>
<path d="M17.6318 22.744C17.0824 22.7251 17.1064 22.3258 17.1091 21.9399C17.1971 21.9399 17.2851 21.9399 17.3758 21.9399C17.4611 22.2097 17.5465 22.4769 17.6318 22.744Z" fill="#D15244"/>
<path d="M15.2418 21.1331C15.2418 21.0413 15.2391 20.9523 15.2391 20.8605C15.3165 20.7229 15.3911 20.5826 15.4791 20.4504C15.4845 20.445 15.6578 20.5124 15.6658 20.5583C15.7112 20.8848 15.4738 21.0089 15.2418 21.1331Z" fill="#D24638"/>
<path d="M19.5065 29.4966C19.5305 29.7881 19.5518 30.0795 19.5785 30.4222C20.4186 30.0201 19.7038 29.0973 20.3012 28.6925C20.4292 30.2198 20.5866 31.7471 20.3065 33.2744C19.9972 33.4093 19.8132 33.2285 19.6398 33.0099C19.5465 32.8345 19.4985 32.6456 19.4718 32.4487C19.4798 31.7984 19.1837 31.229 18.9944 30.6327C18.9224 30.3142 18.8424 29.9985 18.8824 29.6666C19.0317 29.386 19.2264 29.2754 19.5065 29.4966Z" fill="#CB4839"/>
<path d="M19.7732 33.0005C19.9519 33.0923 20.1279 33.184 20.3066 33.2758C20.4026 33.9881 20.9093 34.7005 20.3199 35.4156L20.3146 35.4183C19.8318 34.8921 19.6078 34.2553 19.5145 33.5564C19.5331 33.3405 19.6025 33.1462 19.7732 33.0005Z" fill="#D65545"/>
<path d="M19.7602 33.5526C19.9443 34.1732 20.131 34.7966 20.315 35.4172C20.211 35.5332 20.1096 35.652 20.0056 35.768C19.3202 33.7091 18.0507 32.1063 16.2772 30.9001C16.1625 30.6546 16.3092 30.5385 16.4985 30.4468C18.2614 30.7571 18.9921 32.1737 19.7602 33.5526Z" fill="#C13E30"/>
<path d="M19.7602 33.5526C18.6561 32.6028 18.0238 31.1402 16.5756 30.5655C16.4903 30.4872 16.4423 30.3928 16.4289 30.2794C15.6742 29.4537 14.7301 29.1542 13.6473 29.2244C13.546 29.2325 13.4473 29.2406 13.3459 29.246C13.1939 29.3755 13.0232 29.3566 12.8472 29.3188C12.5725 29.2082 12.2685 29.2325 11.9911 29.1461C11.4124 28.8871 10.735 29.0085 10.1722 28.6793C10.0282 27.5757 10.5589 27.2869 11.8498 27.7133C11.279 27.1736 10.791 27.0198 10.7083 26.5287C10.4336 26.329 10.6496 25.9647 10.4523 25.7381C10.5536 25.5977 10.6843 25.3198 10.7536 25.3333C11.8791 25.5708 12.1751 24.629 12.7059 23.8033C13.2099 24.8206 12.7405 25.9863 12.4978 26.383C11.5884 27.8806 12.8952 27.546 13.4179 27.7888C14.042 28.0776 14.8048 27.6458 15.4528 28.253C15.7489 28.5309 16.0822 27.9507 16.3009 27.6269C16.4423 27.4569 16.6263 27.4111 16.8343 27.4326C17.5864 27.9265 18.4452 28.8574 18.4052 29.4079C18.3038 30.8056 19.4586 31.3993 19.7707 32.4597C19.7707 32.6405 19.7733 32.8186 19.7733 32.9994C19.768 33.1829 19.7629 33.3691 19.7602 33.5526Z" fill="#D64637"/>
<path d="M19.7707 32.4597C19.1013 31.6853 18.1307 31.2157 18.3094 29.7856C18.3974 29.0786 17.1252 28.5093 16.8425 27.6053C16.7572 27.5082 16.7119 27.3975 16.7065 27.268C16.9519 26.1158 15.7011 25.4385 15.7891 24.3348C15.8104 24.1325 15.8958 23.9625 16.0425 23.8275C16.1331 23.5577 16.2211 23.2906 16.3118 23.0207C16.4025 23.0207 16.4932 23.0207 16.5839 23.0234C17.2293 23.698 17.3199 24.6236 17.64 25.4439C17.7307 25.3548 17.8213 25.2658 17.9093 25.1767C19.2081 25.4844 19.9896 26.7715 19.4295 27.9507C19.1361 28.5713 19.3415 28.9923 19.5042 29.4969C19.2855 29.5023 19.0881 29.5481 18.9708 29.7586C18.9735 30.0608 19.0321 30.3469 19.2402 30.5816C19.5469 31.1699 19.88 31.7528 19.7707 32.4597Z" fill="#CE4132"/>
<path d="M16.0472 27.0714C15.3965 26.3941 15.2925 25.4658 14.9698 24.6401C14.8124 24.1895 14.5724 23.6876 15.4365 23.8765C15.5459 23.9466 15.6312 24.0411 15.6979 24.1544C15.7805 25.1555 16.5566 25.992 16.3753 27.0579C16.2713 27.1523 16.1593 27.1496 16.0472 27.0714Z" fill="#D65041"/>
<path d="M9.68182 24.5198C9.40446 25.8204 9.22044 26.1658 8.43368 27.0374C8.45235 25.8987 9.07909 25.2052 9.68182 24.5198Z" fill="#D85343"/>
<path d="M12.8417 29.2191C13.0097 29.2272 13.1779 29.2379 13.3459 29.246C12.2018 29.6372 11.0604 29.6319 9.92165 29.2325C10.095 29.2272 10.2681 29.2218 10.4387 29.2164C11.2415 28.6956 12.0416 29.1058 12.8417 29.2191Z" fill="#B9281A"/>
<path d="M15.5059 24.103C14.8498 23.7927 14.9965 24.3055 14.9698 24.6401C14.7484 24.4377 14.1351 24.4565 14.3858 24.0113C14.5645 23.6956 14.9485 23.2261 15.5086 23.5634C15.6499 23.7415 15.6793 23.9223 15.5059 24.103Z" fill="#CE4132"/>
<path d="M10.1722 28.6793C10.8203 28.5822 11.4687 28.4798 12.0368 28.952C11.5087 29.1706 10.9807 29.149 10.4473 28.9655C10.2552 28.925 10.0632 28.8845 9.8712 28.8441C9.97255 28.7901 10.0709 28.736 10.1722 28.6793Z" fill="#DB5345"/>
<path d="M10.4468 28.9689C10.9775 28.9635 11.5056 28.9581 12.0363 28.9554C12.327 28.977 12.6443 28.9122 12.8417 29.2226C12.0416 29.2226 11.2415 29.2226 10.4388 29.2226C10.4388 29.1362 10.4414 29.0526 10.4468 28.9689Z" fill="#C53B2C"/>
<path d="M10.4522 25.739C11.1776 25.7903 10.5829 26.2787 10.7082 26.5296C10.6175 26.535 10.5296 26.5404 10.4389 26.5485C10.1748 26.6187 10.0975 26.5134 10.1695 26.2598C10.2629 26.0871 10.3589 25.9117 10.4522 25.739Z" fill="#DC6050"/>
<path d="M14.1246 27.0389C13.9966 27.1469 13.9192 27.2656 13.8312 27.2737C13.7272 27.2845 13.5459 27.2251 13.5165 27.1523C13.4392 26.9526 13.5859 26.8392 13.7699 26.8446C13.8712 26.8473 13.9699 26.9472 14.1246 27.0389Z" fill="#D64F41"/>
<path d="M10.1693 26.2587C10.26 26.3531 10.3506 26.4503 10.4387 26.5474C10.2413 26.7525 9.99059 27.0844 9.74523 26.7849C9.60121 26.6041 9.94259 26.3774 10.1693 26.2587Z" fill="#D64637"/>
<path d="M15.5059 24.103C15.5059 23.9223 15.5058 23.7419 15.5058 23.5638C15.8659 23.2804 15.7992 23.8714 16.0392 23.8309C16.0392 24.0117 16.0392 24.1925 16.0365 24.3706C15.7325 24.5379 15.6552 24.2519 15.5111 24.1008C15.5138 24.1008 15.5059 24.103 15.5059 24.103Z" fill="#C93B2C"/>
<path d="M16.0479 27.0716C16.1359 27.0689 16.2239 27.0689 16.3146 27.0662C16.608 26.9313 16.744 27.0986 16.8373 27.3442C16.84 27.4305 16.8427 27.5196 16.8453 27.6059C16.664 27.6113 16.4853 27.6167 16.3039 27.6248C16.0959 27.498 16.0426 27.2983 16.0479 27.0716Z" fill="#D95749"/>
<path d="M7.22535 20.3292C7.6334 18.435 8.04411 16.5407 8.44416 14.641C8.51617 14.2956 8.53751 13.9421 8.58285 13.5913C9.10824 14.3496 8.71887 15.2077 8.83888 16.0091C8.19614 16.9185 8.28415 17.987 8.18547 19.0178C8.08679 20.0567 8.2228 21.1846 7.24402 21.9375C7.35337 21.3978 7.20935 20.8635 7.22535 20.3292Z" fill="#DE7A71"/>
<path d="M5.90207 24.0978C6.01142 23.6175 6.07008 23.0994 6.70749 23.0238C7.06486 23.1776 7.35023 23.3125 7.12887 23.836C6.91285 24.3406 6.83818 24.9073 6.70217 25.447C6.34212 25.6197 6.31546 26.3968 5.73672 26.1054C5.11798 25.7978 5.50202 25.2716 5.63004 24.8344C5.70205 24.5862 5.80873 24.3433 5.90207 24.0978Z" fill="#DE7A71"/>
<path d="M7.22482 20.3286C7.58753 20.8602 7.56886 21.3972 7.24616 21.9368C7.16081 22.1149 7.07013 22.1365 6.97412 21.9449C7.01413 21.3972 6.87811 20.8251 7.22482 20.3286Z" fill="#E88D81"/>
<path d="M4.04633 30.5738C4.049 31.0757 3.67816 31.3566 3.31279 31.8288C3.27278 31.1164 3.41692 30.7006 4.04633 30.5738Z" fill="#E3705F"/>
<path d="M9.34578 30.0204C10.7273 29.4727 12.1568 29.8315 13.5649 29.7992C13.9143 30.0906 14.517 29.6049 14.7677 30.2012C14.2664 30.5574 14.0717 31.1484 13.7196 31.6179C13.1329 32.4031 12.4208 33.0723 11.6127 33.6282C11.57 33.898 11.4607 34.1463 11.3887 34.4026C10.986 35.8247 10.8846 35.884 9.44713 35.5009C9.22044 35.3848 8.99641 35.2634 8.74572 35.2013C8.56703 35.1447 8.39902 35.0637 8.271 34.9207C8.12165 34.7777 8.6257 34.5456 8.1083 34.3648C7.23354 34.0572 7.26554 33.5014 8.04163 33.0022C8.88706 32.3626 9.12442 31.3049 9.72716 30.4953C10.1112 29.9827 9.25244 30.3685 9.34578 30.0204Z" fill="#F9F2EB"/>
<path d="M9.34578 30.0204C10.2152 29.9368 10.4443 30.3116 9.8629 30.9538C9.2495 31.6311 9.37218 32.9884 8.04136 33.0046C7.98002 32.6106 8.44941 32.2841 8.14537 31.7822C7.31594 32.4892 6.69982 32.0794 6.16109 31.3617C7.07586 30.5521 8.17765 30.2066 9.34578 30.0204Z" fill="#FBF5F1"/>
<path d="M14.6367 30.3098C14.2793 30.1398 13.9219 29.9698 13.5645 29.8025C13.8632 29.7323 14.218 29.8349 14.434 29.5138C15.4021 29.0766 15.9888 29.6892 16.5729 30.3071C16.5729 30.3934 16.5756 30.4825 16.5756 30.5688C16.4769 30.6822 16.3755 30.7928 16.2769 30.9061C16.1088 30.8845 15.9435 30.8657 15.7755 30.8441C15.2954 30.8845 14.778 31.006 14.6367 30.3098Z" fill="#CA4837"/>
<path d="M16.573 30.3044C15.8636 30.0292 15.2689 29.4355 14.4341 29.5111C14.1728 29.4166 13.9114 29.3195 13.6474 29.2251C14.5995 28.8662 16.3943 29.2979 16.8957 30.0589C17.0131 30.2397 16.7304 30.2801 16.573 30.3044Z" fill="#DB5345"/>
<path d="M8.04163 33.0022C7.53224 33.5823 7.59041 34.0221 8.36917 34.2406C9.60664 34.5887 8.10513 34.6535 8.30782 34.8909C8.59852 35.1635 8.82788 35.4684 8.79054 35.9028C8.77187 36.0351 8.72654 36.1565 8.65454 36.2671C8.49985 36.4074 8.31849 36.456 8.1158 36.4398C7.98779 36.4074 7.87844 36.34 7.7851 36.2482C7.21437 35.7032 6.53962 36.313 5.91021 36.0701C5.61418 35.9568 5.19014 35.9865 5.47017 35.6006C6.18759 34.6076 6.52679 33.1964 8.04163 33.0022Z" fill="#FBF7F2"/>
<path d="M7.78507 36.2462C7.87842 36.257 7.96909 36.265 8.06243 36.2758C8.15044 36.3865 8.18779 36.5106 8.16912 36.6509C8.07311 37.0179 7.79573 37.2365 7.5237 37.4577C6.3289 38.4319 5.74483 39.7028 5.69683 41.2436C5.68883 41.5539 5.66216 41.8615 5.47814 42.1287C5.37412 42.2447 5.25677 42.2609 5.12609 42.1745C4.5687 39.8323 5.41947 37.93 7.78507 36.2462Z" fill="#C74635"/>
<path d="M5.12875 42.1744C5.21676 42.1744 5.30744 42.1717 5.39545 42.1717C5.50213 42.0962 5.60881 42.0962 5.71549 42.169C6.05153 42.7222 6.26755 43.3455 6.66493 43.8663C6.84362 44.1766 7.08898 44.4573 7.12099 44.8378C7.10765 44.9619 7.05698 45.0698 6.96897 45.1589C6.88629 45.1454 6.80399 45.1317 6.71865 45.1155C6.17725 44.2197 5.2221 43.5884 5.07009 42.447C5.08875 42.3579 5.11008 42.2662 5.12875 42.1744Z" fill="#CB513E"/>
<path d="M15.1993 36.3107C15.6473 36.4403 16.066 36.6157 16.3487 37.0204C16.8475 38.0026 17.8609 38.7771 17.5702 40.0831C17.4235 40.5175 17.4849 41.0167 17.1782 41.4026C17.0101 41.524 16.8261 41.5456 16.6341 41.4809C16.3247 41.327 16.3861 40.9601 16.2074 40.7118C15.9913 41.0383 15.986 41.4512 15.738 41.748C15.5886 41.9207 15.3566 42.1393 15.1886 42.0097C14.1271 41.1948 13.9351 42.1231 13.5591 42.83C13.9644 42.8975 14.4098 42.2796 14.6712 42.8058C14.8739 43.2105 14.4525 43.5235 14.1858 43.8015C13.8471 44.1523 13.4444 44.4194 12.975 44.5705C12.1456 44.673 11.2975 44.727 10.6361 45.3476C10.0787 45.5446 9.51328 45.5203 8.94521 45.3989C7.48104 44.7999 7.40637 44.6542 8.01444 43.5262C8.5105 43.4075 8.50783 44.0686 8.89988 44.1172C9.07323 44.2872 9.26525 44.4329 9.49728 44.5651C9.28392 44.3978 9.06789 44.2818 8.89187 44.1118C8.65717 43.9337 8.49183 43.68 8.26514 43.4939C8.06245 42.7356 8.6225 42.9164 9.00655 42.8732C9.27858 42.9272 9.4306 43.1377 9.59595 43.3319C9.33992 42.9542 9.74263 42.4388 9.33992 42.0907C9.31058 41.6401 9.53461 41.3055 9.87331 41.0734C10.7908 40.4447 10.8841 39.8321 10.1667 38.9363C10.8894 37.5358 11.3855 37.3631 12.671 38.1807C13.3431 38.6098 13.319 38.3183 13.175 37.7814C13.1217 37.5196 13.1324 37.266 13.2444 37.0204C13.7431 36.3647 14.4818 36.3701 15.1993 36.3107Z" fill="#E1503F"/>
<path d="M17.3787 40.0109C17.4374 39.0826 17.0027 38.3433 16.4826 37.639C16.3466 37.4555 16.0213 37.3071 16.3493 37.0211C18.6322 39.0071 18.6909 42.5447 16.4693 44.7978C16.1626 45.1108 15.8159 45.3834 15.4879 45.6775C13.4743 46.8324 11.3301 46.943 9.11647 46.4924C8.39106 46.0661 7.52696 45.8691 6.96956 45.1621C6.96956 45.0461 6.96957 44.9327 6.97223 44.8167C7.86033 44.5523 8.38838 45.5318 9.21248 45.4805C10.4286 45.9284 11.6741 45.9743 12.9356 45.753C15.0132 45.413 16.3493 44.1934 17.0267 42.202C17.0614 42.0239 17.1094 41.8512 17.1734 41.6839C17.4908 41.2197 17.3441 40.6882 17.3787 40.1836C17.3787 40.1242 17.3787 40.0675 17.3787 40.0109Z" fill="#C33C2D"/>
<path d="M14.6367 30.3098C14.978 30.5715 15.4928 30.4528 15.7755 30.8441C15.4741 31.4161 14.7777 31.6211 14.3484 31.8342C12.9162 32.552 13.5616 33.143 14.159 33.9201C14.5804 34.4679 14.5164 34.5893 13.9083 34.8915C13.6443 35.5149 13.1456 35.7361 12.5375 35.5877C12.0068 35.4582 11.8654 34.9536 11.7401 34.476C11.6387 34.0928 11.6574 33.6907 11.5587 33.3076C12.3695 32.8812 12.9002 32.1581 13.4603 31.4673C13.5643 31.3404 13.783 31.1597 13.7536 31.0949C13.1296 29.7646 14.306 30.5203 14.6367 30.3098Z" fill="#F8F6F0"/>
<path d="M11.5593 33.308C11.81 33.4942 11.9647 33.729 12.0474 34.0447C12.4554 35.5882 12.4634 35.5855 13.9089 34.892C15.2264 34.614 14.7997 35.3156 14.4904 35.9498C14.333 36.3869 13.9863 36.4786 13.5809 36.4705C13.2049 36.4274 12.8235 36.3707 12.5995 36.797C12.4368 37.1937 13.2955 37.612 12.5781 37.9951C12.1221 37.9061 11.7727 37.4959 11.2687 37.5391C11.09 37.4716 10.9539 37.3583 10.8953 37.1667C10.9006 37.0426 10.9353 36.9266 10.9966 36.8159C11.274 36.3032 11.794 35.8931 11.65 35.232C11.5673 35.4883 11.7567 35.8661 11.3967 36.0631C10.7459 36.3896 10.1085 37.1101 9.41243 36.1278C9.27642 35.804 8.71635 35.4856 9.39109 35.1456C10.2472 35.5504 11.0366 35.8823 11.0793 34.3739C11.0926 34.0177 11.394 33.6642 11.5593 33.308Z" fill="#738F44"/>
<path d="M19.5092 42.1635C19.5092 41.1409 19.4985 40.1155 19.5119 39.0928C19.5252 38.0701 19.5332 37.0528 19.3572 36.0463C19.9359 38.0593 20.0853 40.0939 19.5092 42.1635Z" fill="#E5DFD2"/>
<path d="M13.386 36.2867C13.7541 36.1734 14.1223 36.0631 14.4904 35.9498C14.7277 36.0685 14.9622 36.1896 15.1996 36.3083C14.7275 36.8723 13.9594 36.6996 13.4021 37.0477C13.002 37.1826 12.9993 36.8939 12.9727 36.6321C13.0313 36.4216 13.17 36.3083 13.386 36.2867Z" fill="#995330"/>
<path d="M17.1086 21.9387C16.7539 22.1195 16.8953 22.8049 16.3059 22.7482C16.3432 22.2463 16.2205 21.5798 17.1086 21.9387Z" fill="#D15244"/>
<path d="M17.64 25.4439C17.0319 24.7504 16.8719 23.8599 16.5839 23.0234C17.6373 23.5172 17.6533 24.4752 17.64 25.4439Z" fill="#D15244"/>
<path d="M19.2424 30.5825C18.9624 30.3721 18.4957 30.2236 18.9731 29.7595C19.2958 29.9565 19.2371 30.2803 19.2424 30.5825Z" fill="#DC5C4C"/>
<path d="M16.8343 27.3435C16.661 27.2518 16.4849 27.1573 16.3116 27.0656C15.9969 26.0915 15.5542 25.1497 15.5142 24.1C15.6902 24.1891 15.8636 24.2808 16.0396 24.3699C16.1196 24.9689 16.3943 25.487 16.7783 25.9242C17.197 26.4045 17.2637 26.8524 16.8343 27.3435Z" fill="#C73628"/>
<path d="M17.9569 25.8712C19.021 26.6403 19.0317 27.3661 18.917 28.4536C18.4156 27.5712 18.1756 26.9209 17.9569 25.8712Z" fill="#DD6F61"/>
<path d="M6.60379 23.6988C6.75047 24.2384 6.53177 24.5326 6.13173 24.913C6.09172 24.3572 6.30775 24.063 6.60379 23.6988Z" fill="#EB8F84"/>
<path d="M9.39319 35.1476C9.00648 35.5659 9.6679 35.6657 9.63856 35.976C9.23052 36.2512 8.96914 36.0543 8.75845 35.6981C8.67311 35.4147 8.60644 35.1341 8.84913 34.8886C9.02782 34.9749 9.21184 35.0613 9.39319 35.1476Z" fill="#879857"/>
<path d="M8.84629 34.8886C8.85162 35.1476 8.85429 35.4094 8.85962 35.6684C8.9583 35.9436 8.82761 36.003 8.59025 35.9598C8.49691 35.6036 8.40116 35.2471 8.30782 34.8909C8.4865 34.8909 8.6676 34.8886 8.84629 34.8886Z" fill="#637D4D"/>
<path d="M8.59025 35.9598C8.68093 35.8627 8.76894 35.7655 8.85962 35.6684C9.11832 35.7709 9.37758 35.8731 9.63628 35.9757C9.97499 36.1133 10.3564 37.0712 10.6284 35.8839C10.6977 35.5844 11.0631 35.7409 11.2471 35.9784C11.3591 36.3885 11.2311 36.7366 10.9751 37.0496L10.9538 37.0523C10.7751 37.4895 10.6017 37.932 10.4764 38.3907C9.5856 38.8657 9.52959 38.2909 9.54026 37.6298C9.70294 36.7744 8.75883 36.7042 8.50814 36.143C8.50814 36.0674 8.53691 36.0084 8.59025 35.9598Z" fill="#757D35"/>
<path d="M8.51056 36.1432C9.25198 36.3293 10.0254 36.4858 9.88673 37.5544C9.77205 37.773 9.66003 37.9942 9.35066 37.9187C8.88928 37.4896 8.5719 36.9257 8.07851 36.5263C8.07051 36.4427 8.06518 36.3617 8.06518 36.2781C8.21186 36.2322 8.36121 36.1863 8.51056 36.1432Z" fill="#DB5834"/>
<path d="M8.07853 36.5249C8.97996 36.5033 9.16399 37.1941 9.38001 37.8579C9.51069 38.1737 9.36934 38.5919 9.74005 38.8051C9.86806 38.8294 9.79873 39.1936 10.0654 38.9967C10.0681 38.994 10.1534 38.9157 10.1534 38.9157C10.7695 38.8779 10.8949 39.6065 11.4203 39.7198C11.2922 40.1866 10.7428 40.1165 10.5321 40.5159C10.7428 40.7857 11.4202 40.7641 11.1162 41.4981C10.2308 40.8693 9.73738 41.3766 9.37467 42.1808C9.32933 42.205 9.28399 42.2266 9.24132 42.2509C9.0013 42.2293 8.9293 42.34 9.00398 42.5693C9.01464 42.7393 8.97731 42.885 8.83862 42.9903C8.72128 43.2277 8.17455 43.0362 8.30523 43.5273C7.26778 44.4771 8.20654 44.7577 8.84128 45.1436C8.89195 45.3514 9.28134 45.3945 9.10532 45.7103C8.24389 45.7777 7.71583 45.0276 6.96907 44.8171C6.80105 44.558 6.63303 44.299 6.46501 44.04C6.6437 43.4382 6.07296 43.0793 5.99562 42.5639C5.89961 41.9325 5.85694 41.4198 6.83306 41.633C7.90251 41.865 7.5158 40.8019 7.77983 40.3189C7.81183 39.8332 8.45991 39.2098 7.91318 38.9238C7.38512 38.6459 7.20377 39.4797 6.88907 39.844C6.5877 40.2136 6.05963 40.4106 6.41701 41.1392C6.57436 41.463 5.90761 41.8273 5.64091 42.1916C5.5609 42.1862 5.4809 42.1808 5.39822 42.1754C5.11019 39.7171 6.13964 37.9011 8.07853 36.5249Z" fill="#E35343"/>
<path d="M8.0465 40.3125C7.95049 41.2003 8.08917 42.285 6.58233 41.8209C6.15028 41.6887 6.06228 42.0907 6.36898 42.7572C6.55567 43.1647 7.29174 43.5479 6.46232 44.039C6.04893 43.4858 5.59556 42.9488 5.63556 42.1879C5.84892 41.605 6.25429 41.1112 5.93958 40.3665C5.70222 39.8025 6.63567 40.2181 6.70235 39.7485C7.08373 40.1047 7.53977 40.2693 8.0465 40.3125Z" fill="#E7614F"/>
<path d="M16.5812 41.3726C16.7519 41.3726 16.9226 41.3753 17.0932 41.3753C17.2799 41.5372 17.2319 41.7396 17.1893 41.9393C16.9092 43.3829 16.0691 44.4029 14.837 45.1234C14.4103 45.3717 13.9569 45.5336 13.4688 45.2799C13.1835 45.0263 13.3461 44.8401 13.5595 44.6647C13.6528 44.5999 13.7329 44.5028 13.8635 44.5082C13.6955 44.4677 13.6422 44.6539 13.5088 44.6971C13.2261 44.7375 13.0288 44.6836 13.1008 44.3274C13.5728 43.8417 14.2609 43.5664 14.5463 42.8298C13.8849 42.7785 13.7889 43.615 13.1888 43.5772C12.9461 42.9269 13.3275 42.4088 13.6448 41.9744C13.9809 41.513 14.4076 40.3365 15.0823 41.7882C15.1517 41.9366 15.4024 41.8179 15.5064 41.6425C15.8291 41.3996 16.2051 41.3915 16.5812 41.3726Z" fill="#D43E30"/>
<path d="M9.10785 45.7102C9.15852 45.4539 8.56646 45.5079 8.84382 45.1436C9.46256 45.1463 10.0813 45.149 10.7 45.149C11.4468 45.3837 12.2229 45.1409 12.975 45.2812C13.2417 45.4647 13.3217 45.6913 13.1163 45.9747C11.7482 46.3875 10.4013 46.4388 9.10785 45.7102Z" fill="#DF5D4D"/>
<path d="M9.6414 38.9261C8.82797 38.7534 9.21999 38.2762 9.38001 37.8579C9.54803 37.7554 9.71875 37.6552 9.88677 37.5526C10.0095 37.8279 9.3667 38.856 10.4735 38.1598C10.5242 37.6633 10.8576 37.4636 11.2896 37.3691C11.855 37.1776 12.1537 37.666 12.5617 37.8764C12.8818 38.0788 13.1431 37.8306 13.4258 37.7604C13.6525 38.0761 13.9859 38.3999 13.6205 38.7993C13.3592 39.0853 12.9911 38.9693 12.8098 38.7183C11.807 37.3502 10.9936 38.176 10.1615 38.9126V38.9153C9.98811 39.1015 9.81742 39.1042 9.6414 38.9261Z" fill="#765F32"/>
<path d="M12.8394 45.4103C12.1034 45.5047 11.3006 46.1577 10.6979 45.1485C11.1566 43.8479 12.2634 44.4982 13.1008 44.3282C13.2181 44.5495 13.4208 44.6007 13.6475 44.6007L13.6449 44.598C13.5568 44.7788 13.4662 44.9596 13.3782 45.1404C13.2608 45.3644 12.9888 45.2591 12.8394 45.4103Z" fill="#D54738"/>
<path d="M13.4231 37.7633C13.2418 38.6051 12.9191 38.3839 12.559 37.8793C13.0658 37.3801 11.8176 37.2641 12.3243 36.7649C12.543 36.468 12.7697 36.2036 13.1591 36.5355C13.1324 36.7594 13.1698 36.9537 13.4045 37.0509C13.4098 37.2883 13.4151 37.5258 13.4231 37.7633Z" fill="#7C8845"/>
<path d="M16.581 41.374C16.357 42.0162 15.8876 41.6439 15.5089 41.6412C15.9222 41.142 15.5435 40.1813 16.581 39.9223C16.581 40.4431 16.581 40.9099 16.581 41.374Z" fill="#DE5E4B"/>
<path d="M8.84169 42.9888C8.84435 42.808 8.84436 42.6272 8.84703 42.4491C8.95904 42.2306 9.23107 42.3331 9.37775 42.1793C9.5111 42.1847 9.64178 42.1901 9.77513 42.1955C9.39909 42.835 10.3459 43.2101 10.1085 43.8577C9.50043 43.8064 9.33774 43.1399 8.84169 42.9888Z" fill="#D83E30"/>
<path d="M17.0956 41.9042C17.0956 41.7288 17.0959 41.5534 17.0932 41.3753C17.1839 40.9193 16.9249 40.3877 17.3783 40.0099V40.0153C17.5783 40.5577 17.5649 41.1028 17.3863 41.6478C17.3703 41.8124 17.3516 41.977 17.3356 42.1443C17.1062 42.2172 16.9889 42.1794 17.0956 41.9042Z" fill="#E36454"/>
<path d="M8.83563 44.052C9.34235 44.0709 9.64904 44.4081 10.0731 44.8696C9.41168 44.7913 8.93697 44.7212 8.83029 44.0628L8.83563 44.052Z" fill="#D23929"/>
<path d="M14.4927 39.0712C14.5434 39.4247 14.3994 39.6406 14.066 39.7134C13.9327 39.7404 13.7833 39.6648 13.8447 39.5137C13.954 39.2439 14.114 38.9929 14.4927 39.0712Z" fill="#EC7361"/>
<path d="M8.83029 44.0628C8.16355 44.3731 8.33956 43.8445 8.30755 43.5261C8.64626 43.5369 8.83029 43.7042 8.83563 44.055C8.83563 44.0523 8.83029 44.0628 8.83029 44.0628Z" fill="#E35343"/>
<path d="M17.0956 41.9042C17.1756 41.9851 17.2585 42.0633 17.3385 42.1443C16.7518 44.3488 15.1969 45.7601 13.1167 45.9706C13.106 45.7439 13.0607 45.5334 12.842 45.4093C12.9593 45.1934 13.1594 45.1503 13.3781 45.1422C15.549 45.1611 16.3675 43.5853 17.0956 41.9042Z" fill="#E1503F"/>
<path d="M17.389 41.6486C17.3863 41.1035 17.3836 40.5611 17.381 40.0161C17.773 40.5584 17.7464 41.1035 17.389 41.6486Z" fill="#E1503F"/>
<path d="M10.9748 37.0505C10.9455 36.662 11.0469 36.3058 11.2469 35.9793C11.7056 35.6366 11.3509 35.0564 11.7616 34.4304C11.7323 35.5475 11.9963 36.4785 10.9748 37.0505Z" fill="#86A953"/>
<path d="M11.2874 37.3714C11.0153 37.6331 10.7433 37.8976 10.4713 38.1593C9.84988 37.4415 10.7166 37.3876 10.954 37.0503C11.066 37.1582 11.178 37.2661 11.2874 37.3714Z" fill="#7C8845"/>
<path d="M13.1571 36.5354C12.8797 36.6109 12.6023 36.6892 12.3223 36.7647C12.5036 36.2089 12.73 35.7632 13.386 36.2867C13.3114 36.3704 13.2344 36.4544 13.1571 36.5354Z" fill="#88A24C"/>
<path d="M8.0465 40.3125C7.17706 41.1517 6.92651 40.4824 6.70516 39.7484C6.81984 39.5136 6.87849 39.2141 7.05718 39.0549C7.36922 38.7797 7.40122 37.9621 8.07597 38.3425C8.70271 38.6987 8.65738 39.2681 8.28934 39.8374C8.19333 39.9859 8.12651 40.1533 8.0465 40.3125Z" fill="#EFA18E"/>
<path d="M9.37527 42.1795C9.26059 42.3927 9.06057 42.4386 8.84455 42.4494C8.61785 42.3199 8.25248 42.1013 8.43117 41.8935C8.83655 41.4213 9.0259 42.1633 9.37527 42.1795Z" fill="#E1503F"/>
<path d="M9.65712 40.3281C9.57978 40.4738 9.55045 40.6411 9.46511 40.6735C9.26775 40.7518 9.14241 40.6088 9.15307 40.4199C9.15841 40.3227 9.26774 40.1851 9.35842 40.1554C9.42509 40.1339 9.53977 40.2553 9.65712 40.3281Z" fill="#EA7B69"/>
<path d="M9.6414 38.9261C9.81209 38.9234 9.9858 38.921 10.1565 38.9183C10.1085 39.1558 10.4232 39.5416 10.1485 39.5956C9.83111 39.655 9.79875 39.1717 9.6414 38.9261Z" fill="#E1503F"/>
<path d="M13.6478 44.6023C13.8184 44.1895 14.1411 44.0248 14.6345 43.9628C14.5172 44.6293 14.0718 44.6023 13.6451 44.5996L13.6478 44.6023Z" fill="#DF5241"/>
</svg>
