<svg width="62" height="55" viewBox="0 0 62 55" fill="none" xmlns="http://www.w3.org/2000/svg">
<path d="M10.5148 19.9458C11.0106 20.811 11.5064 21.6763 12.0117 22.5609C12.6634 22.2352 12.7342 21.6179 12.8428 21.0249C13.0222 19.7465 14.1178 19.0806 14.7033 18.0696C14.8591 17.8897 15.015 17.7148 15.1708 17.5349C15.6808 16.9273 15.2888 16.1788 15.4588 15.5177C15.6477 15.0511 15.8177 14.5601 16.441 14.5796C18.2354 17.3308 18.1693 19.8389 16.2285 22.804C15.3455 24.4372 13.7872 25.8614 14.6891 28.0536C14.8922 28.4813 15.0811 28.909 15.1944 29.3708C15.355 30.5957 15.7611 31.7526 16.1247 32.924C16.5119 34.9509 16.9652 36.973 16.7291 39.068C16.7055 39.4374 16.6252 39.7922 16.4694 40.1276C15.7374 41.0463 15.0433 40.1033 14.3303 40.0742C12.8759 38.8007 12.0637 37.1043 11.3742 35.3252C11.294 33.9448 10.9587 32.5303 11.7945 31.2519C11.9975 31.0867 12.2148 31.0672 12.4414 31.1985C13.1261 32.1026 12.8475 33.1865 13.0034 34.3774C13.5511 32.2727 13.367 30.3916 12.6728 28.5348C11.2751 24.9378 14.198 22.7408 15.2227 20.1548C14.5664 21.3457 13.7683 22.697 12.9561 24.0434C12.0873 25.4822 11.4923 25.4288 10.7179 23.8587C10.2268 22.8574 9.70733 21.8415 9.7876 20.6555C9.90566 20.2812 10.1418 20.0382 10.5148 19.9458Z" fill="#E9D8B7"/>
<path d="M27.0044 49.6596C27.1083 49.7811 27.198 49.9075 27.3113 50.0144C28.1802 50.8164 30.3429 50.8164 29.3985 52.7802C28.5249 54.5932 26.8627 54.948 25.0447 54.0585C24.2325 53.378 23.6234 53.5968 23.1606 54.5009C22.2539 55.1279 21.4417 55.1862 20.8137 54.1023C19.6285 53.3197 19.6285 52.0559 19.5529 50.8213C19.7276 50.0436 19.7654 49.2075 20.4312 48.6437C21.1112 48.4638 21.2906 49.3728 21.8998 49.3533C22.0934 49.4214 22.2539 49.5332 22.3767 49.6839C22.2728 50.8213 23.5903 50.3644 23.8689 51.074C24.3883 51.8372 25.2005 52.124 25.8664 52.3719C25.3091 51.9976 24.3931 51.8955 23.9681 51.0546C23.7131 50.2185 24.1097 49.7665 24.8322 49.5137C25.5453 49.8102 26.2961 49.3874 27.0044 49.6596Z" fill="#EBDCBF"/>
<path d="M46.8041 41.931C44.9861 41.8532 43.4562 40.7255 41.6948 40.4436C37.7566 39.8166 35.6978 42.9809 33.1714 45.0759C31.2401 46.6751 29.7479 48.8818 27.0233 49.2026C26.9808 49.1006 26.9335 48.9936 26.8863 48.8916C29.2899 46.2862 31.9626 43.9871 34.6164 41.6636C35.2681 41.0949 36.0378 40.6672 36.6658 40.0547C37.5536 39.3451 38.1627 38.1639 39.5227 38.232C41.114 38.9756 42.9084 38.9416 44.5139 39.6075C45.4347 39.9915 46.5303 40.1325 47.0214 41.2359C47.045 41.5032 46.9741 41.7365 46.8041 41.931Z" fill="#E9D7B9"/>
<path d="M52.584 18.1571C51.9796 18.9688 51.0965 19.2702 50.2041 19.5813C49.2502 19.9118 48.8913 20.3298 48.9008 21.6374C48.9291 24.7531 49.4202 26.9356 53.1507 26.6974C54.5956 26.6051 55.4975 28.1216 56.7772 28.6611C56.2908 29.434 55.5778 29.5555 54.7656 29.4C52.9382 28.0244 50.8793 27.7473 48.7119 28.0973C47.9327 28.2237 47.1678 28.4619 46.4217 28.0098C46.1336 27.7425 46.0581 27.4119 46.1336 27.0377C48.1311 26.6974 46.2611 25.6864 46.4547 25.035C46.4783 24.8114 46.5539 24.6024 46.6672 24.408C48.1783 23.2706 47.9327 22.1235 46.6814 20.9715C46.6011 20.7527 46.5775 20.5291 46.62 20.3007C48.2066 18.9931 49.9066 17.9043 51.9135 17.4134C52.2676 17.5301 52.499 17.7731 52.584 18.1571Z" fill="#EBD9B7"/>
<path d="M45.4017 3.00615C45.4347 2.93324 45.4583 2.85547 45.5008 2.78742C46.9128 0.298716 48.9952 -0.624824 50.9124 0.429957C52.4943 1.30003 52.8626 2.67076 52.2629 4.33799C51.5026 6.45728 49.373 7.26902 46.7664 6.47672C46.2281 6.04898 45.2931 5.86427 45.8125 4.79976C47.3566 3.47764 49.1274 3.4582 50.9643 3.85192C51.0824 3.98316 51.1202 4.12412 51.0777 4.2748C51.0304 4.43035 50.936 4.55187 50.7896 4.62964C50.9549 4.61506 51.0163 4.46923 51.1249 4.35744C50.9832 2.71937 50.5677 1.39238 48.5324 1.8979C47.8241 2.16524 47.4558 2.79714 47.045 3.38043C46.6908 3.83248 46.3414 4.29911 45.6756 4.17759C45.1703 3.88595 45.0286 3.51167 45.4017 3.00615Z" fill="#F4C947"/>
<path d="M47.3094 35.0627C46.2469 35.1211 46.5822 32.6761 44.9814 33.6872C44.6273 33.6142 44.41 33.3858 44.2873 33.0455C44.4856 31.6748 43.8859 31.8838 43.1256 32.4282C42.5354 32.7393 41.6901 32.5935 41.3973 33.449C41.1518 33.9642 40.7882 34.3093 40.2074 34.3579C38.6869 34.1684 37.6858 35.4079 36.3825 35.8162C35.5892 36.0641 34.9658 36.8078 34.0356 36.6717C33.7145 36.4918 33.502 36.2293 33.4642 35.8405C36.0094 32.5254 39.8863 31.4998 43.3428 29.7597C44.1078 29.3757 44.9578 29.1375 45.8408 29.4C47.1866 29.8618 47.3614 31.0526 47.5219 32.2532C47.5833 32.8754 47.6352 33.5073 47.9044 34.0857C47.9988 34.601 47.6211 34.81 47.3094 35.0627Z" fill="#EAD9BD"/>
<path d="M16.0633 14.7157C16.0774 15.0608 16.0727 15.3962 15.7091 15.5809C15.3361 15.5663 14.9677 15.3865 14.5947 15.5614C13.6456 16.4169 12.6586 17.1801 11.3176 17.1752C10.3873 17.1704 9.37678 17.3405 8.85735 16.2371C8.30486 15.0705 8.62124 13.9963 9.40983 13.1165C11.0956 11.2402 13.0789 11.2159 15.185 12.3048C15.5627 12.4943 15.8697 12.7519 16.0255 13.17C16.1908 13.6803 16.1813 14.1956 16.0633 14.7157Z" fill="#F2CB59"/>
<path d="M33.0864 16.5871C34.3661 14.0449 36.3211 12.3679 39.0599 11.7555C39.8249 11.5854 40.6324 11.5756 41.0243 10.7347C41.1801 10.4042 41.0149 10.0396 40.7079 9.94729C39.9524 9.71884 39.1685 9.68967 38.4413 10.0737C37.9597 10.3264 37.5441 10.7979 37.0436 10.9146C35.8819 11.1868 36.1794 10.4528 36.4439 9.81119C38.2902 9.23762 40.1177 8.58628 42.0962 8.81474C42.4598 9.51954 42.2237 10.2924 42.3418 11.0312C41.8176 12.6304 41.6476 14.4483 39.8863 15.299C39.5321 15.2309 39.2913 15.0122 39.1307 14.6962C39.0552 14.3997 39.1543 13.9234 38.9371 13.8116C37.8227 13.2234 35.5467 15.0705 35.608 16.4753C35.4711 16.937 35.0933 17.1217 34.7061 17.287C34.4984 17.3453 34.2906 17.3551 34.0781 17.3259C33.6625 17.2044 33.2895 17.01 33.0864 16.5871Z" fill="#EDDFC5"/>
<path d="M36.9397 2.50549C37.3977 2.83602 37.8605 2.80686 38.3233 2.52008C38.6444 2.76797 39.0457 2.79228 39.4093 2.92838C39.9382 3.12767 40.4813 3.39987 40.401 4.07551C40.3207 4.7463 39.7116 5.01364 39.178 4.93101C36.4344 4.51784 34.4984 6.25799 32.3829 7.53636C31.7643 7.99813 31.1551 8.49393 30.6357 9.05291C29.3277 10.4577 28.7374 9.92785 28.4305 8.31894C29.5307 5.4025 32.2034 4.60047 34.6259 3.49222C35.3767 3.14711 36.2739 3.11309 36.9397 2.50549Z" fill="#FBF8EF"/>
<path d="M54.7845 29.1035C55.4503 28.9577 56.1114 28.807 56.7772 28.6611C58.7841 29.818 59.2799 31.6019 58.6755 33.7601C58.3355 34.9607 57.6792 36.0446 56.3192 36.0738C54.8553 36.1029 54.1848 34.9996 53.7267 33.7163C53.3537 32.6713 53.4907 31.6748 53.8968 30.6832C54.3878 30.2992 53.9109 29.677 54.232 29.2493C54.3878 29.1083 54.572 29.0549 54.7845 29.1035Z" fill="#F7CD51"/>
<path d="M16.1058 40.4339C16.1152 40.1082 16.1294 39.7825 16.1388 39.4569C16.4883 38.6354 16.8802 37.882 17.6593 39.0923C18.3015 40.0888 18.1504 41.2553 18.1929 42.3733C18.174 44.4731 18.1835 46.573 18.1788 48.6777C18.174 50.0387 17.7916 51.2539 16.8519 52.1969C15.8319 53.2176 14.7364 53.6356 13.7636 52.0802C13.4236 51.5018 12.8475 51.6427 12.3375 51.5844C12.6822 49.8054 14.4341 50.656 15.3125 49.8832C15.4541 49.504 15.5108 49.0909 15.7941 48.7846C16.8141 46.8306 15.7847 44.9301 15.6477 43.0052C15.5297 42.0914 15.388 41.1776 16.1058 40.4339Z" fill="#FAF3E1"/>
<path d="M2.00557 23.7664C0.834493 20.15 2.95472 17.3794 6.69462 17.637C7.43127 18.0064 7.70043 18.7112 7.91293 19.4549C7.9932 19.7806 7.9932 20.1062 7.92237 20.4319C7.83737 20.7479 7.70515 21.0492 7.56821 21.3409C7.07239 22.2741 6.80795 23.4018 5.68881 23.8442L5.72187 23.8296C4.47052 24.5101 3.21915 25.2246 2.00557 23.7664Z" fill="#F4CB56"/>
<path d="M12.3092 31.2033C11.4356 32.6032 12.0873 34.1587 11.87 35.6266C10.8265 35.8356 10.3826 34.8732 9.66482 34.4406C8.83846 33.8573 7.96959 33.3372 7.06767 32.9046C6.31213 32.5449 5.50465 32.0977 4.75856 32.9726C4.58856 33.1185 4.39968 33.2157 4.19191 33.2789C3.44582 33.0942 2.78 32.7831 2.36918 32.0588C3.00194 31.7963 3.65831 31.2568 4.26274 31.3151C7.43127 31.6262 7.37461 29.5653 7.181 27.339C7.36988 27.0474 7.46432 26.6342 7.93653 26.7071C8.66374 27.1495 8.63068 27.9077 8.69207 28.6271C8.76762 29.6965 8.47958 30.8485 9.33428 31.7477C9.67427 32.0637 9.97176 32.6372 10.4723 32.4185C11.0909 32.1463 10.7415 31.4318 10.8501 30.9117C10.8737 30.4013 10.9681 29.9055 11.209 29.4486C11.5442 29.0695 11.8984 28.3646 12.4273 28.9334C13.0695 29.6284 13.0175 30.4888 12.3092 31.2033Z" fill="#E6D1AC"/>
<path d="M46.0156 4.90184C45.7086 5.70872 46.568 5.9226 46.7617 6.47186C45.3639 7.06001 44.9909 7.98355 45.8692 9.32512C46.1242 9.79175 45.8408 10.1466 45.652 10.5257C45.2081 11.3472 45.8975 11.6631 46.3319 12.052C47.1016 12.7422 47.5172 13.5102 47.0355 14.5601C46.8892 14.74 46.705 14.8372 46.4783 14.8518C45.9825 14.808 45.8031 14.322 45.43 14.0352C45.7747 14.4581 45.8645 14.9052 45.8031 15.3913C45.6803 15.8774 45.482 16.2808 44.8964 16.242C43.5128 15.4253 44.0984 13.5783 43.069 12.5721C42.4787 9.60218 44.0984 7.32249 45.3309 4.91642C45.5622 4.80462 45.7889 4.7949 46.0156 4.90184Z" fill="#EBDAB2"/>
<path d="M13.7542 52.0753C16.3466 52.717 17.5035 51.6768 17.5366 48.6242C17.5602 46.539 17.546 44.4537 17.546 42.3684C18.0135 41.2262 17.7396 40.0888 17.6027 38.9319C17.5082 38.1347 17.2391 37.1286 18.5282 36.9779C19.6332 38.7618 19.2365 40.7061 18.9438 42.5677C18.6699 44.3273 18.599 46.0578 18.8163 47.8076C19.0099 48.4152 19.0665 49.052 19.1326 49.6839C20.0771 52.2358 17.801 52.1871 16.5969 53.0086C14.2169 54.3696 13.8486 54.2481 13.7542 52.0753Z" fill="#EDDCBF"/>
<path d="M15.7044 13.2915C15.5297 12.961 15.355 12.6353 15.1802 12.3047C15.7611 12.1784 16.4835 12.8589 16.9274 12.1298C18.4668 9.60218 19.8504 10.6035 21.234 12.2659C21.2292 13.5928 21.2293 13.5928 18.8776 14.9344C18.4904 15.1629 18.0985 15.367 17.631 15.3379C16.7338 14.9198 16.3324 13.9914 15.7044 13.2915Z" fill="#EECF7D"/>
<path d="M28.8554 8.35297C29.0821 8.85849 28.9216 9.98618 30.0076 9.04319C30.6971 8.44532 31.4479 7.92036 32.1751 7.36138C32.6284 7.22041 32.7606 7.41484 32.6473 7.85231C31.5423 8.98972 30.4326 10.132 29.3277 11.2694C28.6996 12.0374 29.7243 12.5867 29.5826 13.2866C29.5071 13.9331 29.3843 14.565 29.2238 15.1969C29.016 15.8482 28.9499 16.5482 28.6288 17.1704C28.4116 17.4863 28.133 17.7002 27.7552 17.7585C27.4908 17.7293 27.3066 17.5884 27.1933 17.3405C26.8816 16.0621 27.1885 14.7789 27.4388 13.5734C28.0669 10.5743 27.5474 7.91064 25.8144 5.45596C25.7389 5.04766 25.7955 4.67825 26.1308 4.40118C27.2027 4.57617 27.5191 5.51916 27.9771 6.32118C28.7799 6.76837 28.5013 7.71135 28.8554 8.35297Z" fill="#E8D2A8"/>
<path d="M32.6426 7.85717C32.4867 7.69191 32.3309 7.5315 32.1704 7.36624C34.385 5.33931 36.883 4.03663 40.0185 4.35258C39.8013 3.14225 38.191 3.76929 38.3185 2.52008C39.6454 1.87846 40.7835 2.24301 41.0101 3.68665C41.2085 4.95531 40.0988 6.10244 38.9891 5.76705C36.4108 4.98933 34.8478 6.50589 33.1195 7.86203C32.9684 7.86203 32.8031 7.85717 32.6426 7.85717Z" fill="#EDE0C7"/>
<path d="M10.9162 46.3008C9.68371 42.8205 7.97431 39.4763 8.04515 35.6217C8.10653 35.262 8.31902 35.0336 8.64013 34.8975C8.85734 34.8635 9.06984 34.8975 9.27289 34.985C10.2268 35.8502 11.4687 36.4869 11.5395 38.0472C11.3789 38.3583 11.1428 38.5722 10.8028 38.6354C9.31539 38.5868 10.2456 39.627 10.3354 40.0207C10.7367 41.7609 11.7945 43.3163 11.7 45.2071C11.5678 45.6737 11.3553 46.0723 10.9162 46.3008Z" fill="#E9D9BE"/>
<path d="M2.36918 32.0685C3.26166 31.9665 3.78581 32.5692 4.31941 33.1525C4.88606 34.1198 4.54607 35.1065 4.39024 36.0884C4.14941 36.5842 3.96998 37.1334 3.64887 37.566C3.05861 38.3632 2.30307 38.9562 1.25476 38.5673C0.220624 38.1833 -0.053258 37.3181 0.00812934 36.2536C0.102571 34.4357 0.97616 33.099 2.36918 32.0685Z" fill="#EFC857"/>
<path d="M26.1261 4.41091C26.1261 4.7706 26.1213 5.1303 26.1213 5.48513C26.3386 5.92746 26.5227 6.37951 26.3811 6.88988C26.2252 7.24472 26.0222 7.52178 25.5783 7.38568C24.2892 7.66274 23.1889 8.50851 21.829 8.62031C21.0026 8.68836 20.2801 8.74669 19.756 7.95439C19.8598 7.61413 20.0393 7.33221 20.332 7.13292C20.8893 6.82183 21.5315 6.84128 22.1123 6.63713C22.8442 6.38437 23.7603 6.18022 23.9208 5.33931C24.0956 4.45465 22.8537 4.58589 22.5609 3.92483C22.4381 3.57 22.4759 3.24433 22.7403 2.96726C24.2042 2.61729 25.1297 3.59916 26.1261 4.41091Z" fill="#F5CD55"/>
<path d="M61.4663 16.1302C62.3257 18.0647 62.184 19.8924 60.7721 21.4867C60.0166 22.3373 59.0391 22.5852 58.0191 21.9533C56.2011 20.8256 56.017 19.0417 56.272 17.1072C56.6261 16.8301 56.3475 16.169 56.9 16.0184C57.2636 16.0961 57.4667 16.3489 57.5989 16.6843C58.0805 17.8995 57.2447 20.1646 59.1241 20.1549C60.7155 20.15 60.1819 17.9967 60.5596 16.7815C60.6541 16.4753 60.588 16.8787 60.6446 16.5579C60.8288 16.2274 61.0507 15.9746 61.4663 16.1302Z" fill="#F0C045"/>
<path d="M16.1294 50.1942C16.0113 51.1664 15.4872 50.9185 14.8214 50.7775C13.9053 50.5831 13.0742 51.0206 12.3281 51.5796C10.9965 51.9879 9.78288 52.819 8.28597 52.6392C7.48794 52.542 6.60963 52.5663 6.31686 51.6622C6.00992 50.7143 6.01937 49.7228 7.181 49.2561C7.49266 49.5478 7.7996 49.8394 7.95071 50.2574C8.62125 51.4337 9.58927 50.9428 10.4393 50.6463C11.5489 50.2623 12.5736 49.6401 13.7164 49.3193C14.0469 49.2318 14.3822 49.2124 14.7175 49.2707C15.2794 49.4311 15.6808 49.8491 16.1294 50.1942Z" fill="#E6D3B0"/>
<path d="M46.8041 41.931C46.8089 41.7511 46.8136 41.5713 46.823 41.3914C46.8655 41.0123 47.7863 41.4741 47.385 41.0123C46.4405 39.9332 45.0759 39.5249 43.7253 39.1458C43.0501 38.9562 42.0868 39.1166 42.0159 37.9598C42.2993 37.5417 42.7006 37.3181 43.1634 37.1869C45.2364 37.0265 46.8325 38.0035 48.2349 39.4374C48.4049 39.5978 48.5655 39.7728 48.7449 39.9186C49.6044 40.6186 50.8085 41.4109 49.7932 42.5969C48.7166 43.8656 47.5644 43.3212 46.8041 41.931Z" fill="#E6D4B5"/>
<path d="M13.7825 49.6741C12.0731 50.5296 10.477 51.7059 8.43708 51.6282C7.36989 51.5893 6.93073 51.249 7.69099 50.2137C7.61543 49.7957 9.32011 50.0922 8.06876 49.2075C8.86679 49.0374 9.6601 48.8624 10.4581 48.6923C11.0956 49.4603 11.6906 48.386 12.3186 48.6388C12.9609 48.7506 13.8014 48.5805 13.7825 49.6741Z" fill="#F9F3E5"/>
<path d="M25.5736 7.38568C25.7436 7.21555 25.9183 7.04057 26.0883 6.87044C26.3197 6.89474 26.5747 6.90933 26.6974 7.1475C28.1471 9.89382 27.1272 17.3405 24.9833 19.7417C24.6197 19.8972 24.2514 19.9118 23.8784 19.7611C23.2173 17.9724 25.0919 16.7961 24.9314 15.1288C24.9786 14.6719 25.0589 14.2199 25.1722 13.7776C25.3847 12.6158 25.89 11.4347 24.9692 10.341C24.8794 10.132 24.9125 9.94729 25.0778 9.78689C25.5216 9.04805 25.6775 8.24603 25.5736 7.38568Z" fill="#E8D1A6"/>
<path d="M28.8554 8.35297C28.558 7.67732 28.2652 7.00654 27.9677 6.3309C28.8696 6.61282 29.389 5.98579 30.0029 5.47541C32.024 3.78873 34.2623 2.58813 36.9397 2.50549C36.798 3.84706 35.5844 3.56028 34.8289 3.94913C32.6048 5.09627 29.9935 5.65526 28.8554 8.35297Z" fill="#EBDBBC"/>
<path d="M47.3094 35.0627C47.4747 34.7662 47.64 34.4697 47.8052 34.1732C47.758 33.1865 48.6505 32.4428 48.4758 31.3686C48.0083 31.7623 47.9847 32.5449 47.2952 32.6615C46.4783 31.8595 47.0828 30.3235 45.8692 29.7208C45.9683 29.3174 46.2186 29.0452 46.5775 28.875C47.0639 28.6806 47.5691 28.6271 48.0838 28.6223C48.9102 28.7632 50.0057 28.4035 50.1805 29.7888C50.2796 32.1609 50.1568 34.3968 47.3094 35.0627Z" fill="#E5CC9B"/>
<path d="M25.0872 9.79175C25.0919 9.97159 25.1014 10.1563 25.1061 10.3362C25.7719 11.4444 24.8558 12.12 24.3836 12.8492C23.7036 13.9039 22.7828 14.7886 22.2445 15.9552C21.5834 17.01 20.7145 17.9043 20.0251 18.9445C19.7512 19.3577 19.416 19.9361 18.7596 19.4063C18.3441 18.7209 18.3724 18.0064 18.6415 17.2773C20.0629 15.9454 20.672 13.9088 22.3059 12.7568C23.4109 11.9451 23.7886 10.4091 25.0872 9.79175Z" fill="#EBDDC1"/>
<path d="M16.6063 53.0135C17.1966 52.6003 17.0077 51.2928 18.4999 51.7788C19.2224 52.017 18.6227 50.7338 18.514 50.1359C18.991 49.6596 18.8824 48.9936 19.0571 48.4201C19.2035 47.9486 19.3924 47.2729 20.1101 47.9048C20.2329 48.8235 20.2423 49.7325 19.9212 50.6171C20.2187 51.774 20.5209 52.9357 20.8184 54.0926C20.5115 54.3939 20.2093 54.6953 19.9023 54.9967C19.5104 54.7585 19.5671 54.0294 18.9296 54.0634C18.6415 53.7377 18.3535 53.4169 18.0654 53.0912C17.4374 53.344 17.4705 54.0877 17.0832 54.5154C16.4788 54.1606 16.6346 53.5579 16.6063 53.0135Z" fill="#F9F0DD"/>
<path d="M49.6421 16.1204C51.1532 15.1337 52.6218 14.0692 54.3312 13.4422C55.5164 13.0096 56.6214 13.0436 57.6886 13.7533C57.92 14.4143 57.6461 14.8761 57.1314 15.2406C56.9094 15.3087 56.6922 15.2892 56.4797 15.2066C55.4881 14.565 54.5956 15.017 53.6701 15.4253C52.4943 15.9454 51.4649 16.8593 50.0907 16.869C49.7508 16.7426 49.4958 16.5579 49.6421 16.1204Z" fill="#ECD6AB"/>
<path d="M45.397 10.2973C45.5575 9.97646 45.7181 9.65079 45.8786 9.32998C48.4758 9.75286 48.7969 10.2973 48.7355 14.2102C48.4333 14.4629 48.1074 14.4921 47.7533 14.3463C47.2622 12.8151 46.0297 11.7409 45.397 10.2973Z" fill="#F3D474"/>
<path d="M44.4384 35.0336C43.8576 35.5342 43.2862 36.0446 42.6912 36.5258C41.8554 37.1966 42.4882 37.357 43.017 37.566C42.6912 37.7264 42.3701 37.8868 42.0443 38.0472C41.3407 38.6062 40.6985 38.5771 40.1224 37.848C41.0054 35.7335 42.389 34.1003 44.4478 33.1233C44.6273 33.3129 44.8067 33.4976 44.9861 33.6872C44.802 34.1343 44.6178 34.5864 44.4384 35.0336Z" fill="#E5CFA9"/>
<path d="M56.8008 15.2406C57.0983 14.7448 57.3958 14.249 57.6886 13.7581C59.6577 13.3547 60.9044 14.1664 61.4616 16.135C61.2916 16.3051 61.1168 16.4753 60.9468 16.6454C59.9883 17.0051 59.7569 15.09 58.6661 15.8823C58.548 16.0427 58.4205 16.1933 58.2883 16.3392C57.9766 16.6016 57.665 16.8787 57.2211 16.6357C57.0747 16.4704 56.9283 16.31 56.782 16.1447C56.4608 15.8337 56.5033 15.5323 56.8008 15.2406Z" fill="#F4C951"/>
<path d="M22.7403 2.97699C22.7309 3.29293 22.7214 3.61374 22.7167 3.92969C22.3814 4.4984 21.7204 4.46923 21.2434 4.77546C21.0168 4.94073 20.8279 5.13515 20.6909 5.38791C20.3509 6.01495 20.7901 6.77323 20.3793 7.38568C20.1715 7.57525 19.959 7.76968 19.7512 7.95925C18.2543 5.88371 18.7029 4.15815 20.9884 3.4582C21.5645 3.28321 22.0556 2.72909 22.7403 2.97699Z" fill="#F1C341"/>
<path d="M50.1805 29.7937C49.5241 28.8993 48.5655 29.3805 47.7439 29.225C49.2455 27.5821 52.7209 27.6064 54.3926 29.2687C54.3642 29.7937 54.4256 30.3478 53.892 30.6881C53.0184 28.7972 51.4318 30.0319 50.1805 29.7937Z" fill="#EBD9B7"/>
<path d="M4.39024 36.0884C4.36663 35.1114 4.34302 34.1295 4.31941 33.1525C4.32413 32.9921 4.32885 32.8317 4.33357 32.6761C6.22714 32.5789 7.94126 32.8171 8.58346 35.0725C8.40403 35.2572 8.22458 35.437 8.04515 35.6217C7.85626 35.4808 7.65321 35.3592 7.48321 35.1988C5.98159 33.7795 4.86245 33.7358 4.39024 36.0884Z" fill="#E8D1A6"/>
<path d="M56.8008 15.2406C56.7961 15.542 56.7914 15.8385 56.7819 16.1399C56.6119 16.4607 56.4372 16.7815 56.2672 17.1072C56.1634 16.3975 55.9225 16.067 55.1953 16.5579C54.3453 17.1315 53.4529 17.6273 52.5793 18.1619C52.3904 17.9772 52.2015 17.7877 52.0173 17.5981C53.1129 15.8677 54.3831 14.4726 56.6733 15.0754L56.8008 15.2406Z" fill="#EED6A2"/>
<path d="M47.8194 14.0935C48.1216 14.1324 48.4286 14.1713 48.7308 14.2102C48.9999 14.8664 47.6872 16.3197 49.6421 16.1204C49.8074 16.2954 49.968 16.4655 50.1332 16.6405C50.2513 17.2724 49.8216 17.3356 49.3919 17.3988C48.7827 17.3162 48.1736 17.2919 47.555 17.3113C47.3425 17.2724 47.1678 17.1704 47.0166 17.0148C46.6105 16.2857 45.9825 15.6198 46.3555 14.6622C46.5067 14.6622 46.6625 14.6671 46.8136 14.6671C47.5455 15.2115 47.5361 14.3851 47.8194 14.0935Z" fill="#F1E4CD"/>
<path d="M45.4017 3.00615C45.4395 3.39501 45.4725 3.77901 45.8928 3.95886C46.0061 4.0901 46.0486 4.22134 46.0156 4.35744C45.9825 4.49354 45.9494 4.56159 45.9117 4.56159C44.3912 4.931 44.8209 7.11348 43.324 7.5072C42.762 7.25444 42.7384 6.851 43.0217 6.36006C43.2626 4.83379 44.2023 3.82762 45.4017 3.00615Z" fill="#EBD69E"/>
<path d="M43.017 6.36492C43.0548 6.76351 43.1115 7.15236 43.4987 7.3711C43.8292 8.85849 43.3854 10.0056 42.0726 10.7688C41.2274 10.1126 41.9026 9.46608 42.0868 8.8196C42.2993 7.95925 42.422 7.06973 43.017 6.36492Z" fill="#E7D6B3"/>
<path d="M10.9162 46.3008C10.9492 45.9071 10.9965 45.5182 11.3837 45.2995C12.5736 45.98 13.4047 46.923 13.5039 48.3958C12.4084 49.6207 12.2148 48.4444 11.8417 47.7347C11.5348 47.2584 11.2231 46.7771 10.9162 46.3008Z" fill="#E5D1AC"/>
<path d="M11.8417 47.7347C12.3753 47.7396 12.4698 49.2415 13.3103 48.1916C14.3539 48.0798 14.8166 48.5756 14.7316 49.6401C14.4153 49.6498 14.0989 49.6596 13.7825 49.6741C13.2725 48.9499 12.5028 49.2367 11.8323 49.1443C11.6056 48.8089 11.0673 49.0811 10.8926 48.6388C11.209 48.3374 11.5253 48.0361 11.8417 47.7347Z" fill="#F1E6CC"/>
<path d="M10.5148 19.9458C10.3448 20.1305 10.1748 20.3104 10.0048 20.4951C9.00845 20.3639 8.30014 19.6979 7.55877 19.0952C7.38877 18.5459 7.74765 18.3029 8.1207 18.0696C9.31539 18.1571 9.88676 19.0855 10.5148 19.9458Z" fill="#ECD7A2"/>
<path d="M27.0044 49.6596C26.3669 49.5089 25.8002 51.6282 25.1108 49.7228C25.5925 49.0082 26.1591 48.6096 26.9902 49.1783L27.0185 49.2075C27.028 49.3582 27.0233 49.5089 27.0044 49.6596Z" fill="#E9D7B9"/>
<path d="M18.9249 54.0634C18.991 53.7863 19.0476 53.31 19.3499 53.4266C20.044 53.694 19.8787 54.4036 19.8976 54.9967C19.2601 55.0404 19.0004 54.6515 18.9249 54.0634Z" fill="#EBD8B7"/>
<path d="M14.5947 15.5614C14.9725 15.0657 15.3455 15.0705 15.7091 15.5809C15.558 16.242 15.9027 17.0488 15.1755 17.5398C15.1425 16.8301 15.3738 16.0378 14.5947 15.5614Z" fill="#FBF9F2"/>
<path d="M8.1207 18.0647C7.97432 18.4001 7.82792 18.7355 7.68626 19.0709C7.79959 19.2459 7.78071 19.4014 7.61071 19.5327C7.30378 18.9008 7.00156 18.2689 6.69462 17.637C7.17156 17.7828 7.64377 17.9238 8.1207 18.0647Z" fill="#F5D062"/>
<path d="M8.06876 49.2026C8.26708 49.4311 8.66846 49.713 8.62596 49.8831C8.51263 50.3546 8.01681 50.1213 7.68626 50.2137C7.31321 50.0095 7.17156 49.6741 7.17628 49.261C7.47377 49.2415 7.77126 49.2221 8.06876 49.2026Z" fill="#DDCAA0"/>
<path d="M17.0785 54.5203C17.1824 53.8835 16.7338 52.8385 18.0607 53.0961C17.9852 53.7523 17.7113 54.2675 17.0785 54.5203Z" fill="#EDE0C8"/>
<path d="M10.8926 48.6388C11.2562 48.7069 11.6434 48.736 11.8323 49.1443C11.4828 48.6485 10.3684 50.5928 10.4629 48.6874C10.6045 48.6777 10.7509 48.6631 10.8926 48.6388Z" fill="#DFCDA5"/>
<path d="M11.4214 37.9889C10.6234 37.0314 9.82065 36.0786 9.02261 35.1211C8.7204 34.1684 8.87151 33.6726 9.96703 34.1246C10.6045 34.6253 11.2373 35.1259 11.8748 35.6266C12.8192 37.0702 13.7589 38.5139 14.7033 39.9575C15.9452 41.1873 15.6336 42.942 16.1199 44.4294C16.1341 45.3918 16.2569 46.3786 16.0822 47.3167C15.846 48.5853 15.1944 48.4201 14.5097 47.5986C13.4095 44.4245 12.7672 41.0852 11.4214 37.9889Z" fill="#FDFAF0"/>
<path d="M7.61071 19.5327C7.63432 19.3771 7.65793 19.2264 7.68626 19.0709C8.69679 19.139 9.47122 19.6104 10.0095 20.4902C10.562 21.8853 11.1145 23.2803 11.7614 24.9135C13.1497 22.7116 14.4011 20.7187 15.6572 18.7209C15.7374 22.2741 11.5489 24.4031 13.2536 28.316C12.6067 29.1472 14.1697 30.6784 12.4084 31.1547L12.3092 31.1985C12.2714 30.5277 12.5925 29.8229 12.1203 29.1958C11.8889 29.3854 11.6623 29.575 11.4309 29.7694C10.7651 29.1229 11.0578 28.4133 11.3837 27.7716C11.7709 27.0085 11.6151 26.5613 10.8123 26.3474C10.5242 26.0169 10.4156 25.6037 10.3023 25.1954C9.97176 24.2913 9.47594 23.4602 9.17845 22.5415C8.98956 21.6568 8.63541 20.884 7.82321 20.4173C7.75237 20.1257 7.68154 19.8292 7.61071 19.5327Z" fill="#F8F2E1"/>
<path d="M15.7044 13.2915C16.8141 13.3741 17.0313 14.424 17.5743 15.1191C19.6048 18.3418 18.6321 21.3943 17.0832 24.4129C15.983 24.5538 16.1908 23.3435 15.6336 22.9206C17.3855 20.2764 17.7349 17.5495 16.0633 14.7157C15.6052 14.3317 15.7374 13.7873 15.7044 13.2915Z" fill="#FBF6E7"/>
<path d="M15.6336 22.9206C17.3807 22.4151 16.2947 23.8879 16.6016 24.3886C16.7716 24.5878 16.833 24.8163 16.7858 25.0739C16.5591 25.9246 16.271 26.7655 15.8555 27.5383C15.5202 28.1654 15.1425 28.8799 14.2358 28.2917C12.9184 26.012 14.453 24.5149 15.6336 22.9206Z" fill="#FEFDFA"/>
<path d="M18.4432 37.0022C17.3052 38.6451 18.7501 40.745 17.5507 42.3733C17.4657 41.372 17.7066 40.3464 17.2627 39.3645C16.7527 38.232 16.5119 39.4423 16.1388 39.4569C16.4127 37.1529 15.6713 34.9267 15.6619 32.6421C15.7658 32.6178 15.8649 32.5984 15.9688 32.5741C16.7102 32.9969 16.6252 33.8476 16.9227 34.4989C17.1069 34.951 17.1966 35.4565 17.6688 35.7189C18.0277 35.8307 18.4479 35.8016 18.6793 36.1953C18.7549 36.5113 18.7171 36.7932 18.4432 37.0022Z" fill="#F7EBD2"/>
<path d="M12.4084 31.1644C13.3103 30.411 12.3328 29.0695 13.2536 28.3209C14.1036 30.3089 14.028 32.3845 13.7778 34.4746C13.7117 35.0287 13.7164 35.7821 12.9939 35.6995C12.3375 35.6266 12.3423 34.8829 12.347 34.3142C12.3564 33.2643 12.3848 32.2144 12.4084 31.1644Z" fill="#FBF9F0"/>
<path d="M14.2405 28.2917C16.0633 27.8883 15.3786 25.6912 16.578 24.8406C17.0124 25.0739 17.2013 25.4774 17.3005 25.944C17.2013 27.1689 16.8708 28.3598 16.7952 29.5944C15.9877 30.2652 15.4022 29.4972 14.7364 29.2639C14.5664 28.9382 14.4011 28.6174 14.2405 28.2917Z" fill="#F1E4CB"/>
<path d="M15.6949 44.2884C15.3644 42.8448 15.0339 41.4012 14.7033 39.9624C15.5391 38.9611 15.6194 40.3367 16.1058 40.4339C16.1294 41.3963 16.1483 42.3539 16.1719 43.3163C16.3608 43.8169 16.5969 44.3468 15.6949 44.2884Z" fill="#E0CAA7"/>
<path d="M14.7316 29.259C15.5486 28.6028 15.9972 29.4875 16.6016 29.7305C16.918 30.1145 16.866 30.4596 16.4977 30.7707C15.8224 31.2082 16.3702 32.2289 15.6525 32.6518L15.6619 32.647C14.8591 31.6602 14.6939 30.4888 14.7316 29.259Z" fill="#FAF2DF"/>
<path d="M29.3418 13.1943C29.0963 12.5575 28.5107 11.9208 29.3229 11.2743C29.4079 11.7749 29.5118 12.2707 30.1918 12.0082C30.8482 11.7555 31.4809 11.4395 32.1467 11.2159C33.2328 10.8465 34.5881 10.0883 35.2633 11.5173C36.0141 13.1019 34.0781 12.7762 33.4689 13.4179C32.4631 14.4726 31.1787 15.2552 29.899 16.2371C30.6782 16.5919 31.2118 16.835 31.7454 17.0829C29.7432 18.1474 29.4788 18.1474 28.4116 17.0974C28.4777 16.4315 28.2038 15.683 28.8413 15.1483C30.2249 14.6574 30.9284 13.1165 32.4159 12.7957C31.3912 13.0387 30.4893 13.9623 29.3418 13.1943Z" fill="#EADABA"/>
<path d="M28.4116 17.0926C29.526 17.7682 30.631 16.7572 31.7454 17.078C31.8918 17.0926 32.0381 17.112 32.1845 17.1363C32.8126 17.3745 33.0251 17.8509 32.9306 18.5071C32.8078 18.964 32.6001 19.3625 32.2176 19.6445C32.0051 19.6979 31.7973 19.6785 31.6037 19.5667C30.8623 18.7598 30.1115 17.428 29.4221 19.6153C29.016 20.4854 28.7846 21.8512 27.5191 20.3444C27.2499 19.3674 27.2452 18.439 27.9346 17.6175C28.0905 17.4426 28.251 17.2676 28.4116 17.0926Z" fill="#F0DA9F"/>
<path d="M32.6001 18.6432C32.4584 18.1425 32.3215 17.637 32.1798 17.1363C32.482 16.9516 32.7842 16.7718 33.0817 16.5871C33.4831 16.6162 33.8609 16.6891 34.0734 17.1023C33.9742 17.8363 33.6578 18.5071 33.4548 19.2119C33.3462 19.4112 33.1951 19.557 32.9873 19.6445C32.4065 19.5035 32.3545 19.1341 32.6001 18.6432Z" fill="#EAD9B6"/>
<path d="M26.9902 49.1735C26.3622 49.3533 25.7389 49.538 25.1108 49.7179C24.4497 49.9318 24.1428 50.4032 24.1711 51.1129C24.0106 51.3316 23.8453 51.3219 23.6753 51.1226C23.0803 50.7921 21.6967 51.2636 22.3153 49.6984C22.6601 48.9402 23.3353 48.5999 24.0153 48.2597C24.7047 48.0069 25.3847 47.725 26.008 47.3215C27.571 46.3591 28.7185 44.9155 29.9415 43.5885C31.6273 41.7657 33.5728 40.3512 35.7072 39.1749C35.9292 39.1506 36.1464 39.1749 36.3541 39.2478C36.7744 39.52 36.9019 39.9332 36.8877 40.4144C33.5917 43.3406 30.291 46.257 26.9902 49.1735Z" fill="#FBF7EA"/>
<path d="M24.1664 48.7069C23.5478 49.0374 22.9339 49.3679 22.3153 49.6984C22.1312 49.6839 21.947 49.6693 21.7629 49.6596C21.744 47.7785 24.0058 47.4188 24.2467 45.7078C24.6244 44.7794 25.0117 43.8607 25.583 43.0344C26.0552 42.3636 26.5322 41.6977 27.4388 41.6345C27.8119 41.6977 28.0574 41.9164 28.1802 42.281C28.2085 42.5143 28.1896 42.7476 28.1188 42.9712C26.4472 44.6287 26.2961 47.3896 24.1664 48.7069Z" fill="#E5D2B2"/>
<path d="M24.6528 45.7807C24.6528 47.8319 22.4995 48.1868 21.7676 49.6596C20.6012 50.1991 20.9176 49.2561 20.8562 48.6923C20.7712 46.7042 22.7403 46.4223 23.5903 45.212C24.1192 45.0613 24.4497 45.2898 24.6528 45.7807Z" fill="#F8F2E2"/>
<path d="M23.6706 45.2897C23.4203 47.025 21.3662 47.1806 20.8609 48.6923C20.0912 49.0957 20.6862 50.2088 19.9212 50.6171C19.9071 49.6498 19.8929 48.6825 19.8787 47.7201C19.3546 46.9764 19.7371 46.3834 20.1857 45.8098C20.5257 45.5765 20.8043 45.6932 21.0451 45.98C21.1584 46.189 21.2104 46.4126 21.2056 46.6556C21.3804 46.5924 21.3473 46.398 21.4276 46.2765C21.777 45.7418 22.1926 45.2946 22.7875 45.0419C23.1228 44.9738 23.425 45.0273 23.6706 45.2897Z" fill="#E3CDA9"/>
<path d="M23.68 51.1226C23.8453 51.1178 24.0106 51.1178 24.1758 51.1129C25.3233 51.7059 26.6644 51.8906 27.5474 53.0815C25.9089 53.276 24.615 52.6392 23.68 51.1226Z" fill="#FCF9EF"/>
<path d="M20.9506 50.6949C21.5362 51.8858 21.9234 52.6781 22.4334 53.7183C20.9743 52.8579 20.9743 52.8579 20.9506 50.6949Z" fill="#FBF5E3"/>
<path d="M36.8925 40.4193C36.5147 40.2054 36.4391 39.8409 36.4297 39.4423C36.1605 39 36.3683 38.6014 36.5336 38.2028C36.9963 37.2987 37.9266 36.9001 38.5735 36.1953C39.4943 34.9753 41.0762 34.4357 41.7137 32.924C41.9782 32.365 42.7006 32.5692 43.0217 32.1026C43.4751 31.2471 44.2589 31.0381 45.1042 30.7756C45.4206 31.8498 44.665 32.3942 44.4431 33.1136C43.0406 34.5864 41.9073 36.3314 40.2074 37.5028C40.0468 37.9841 39.7068 38.2757 39.2724 38.475C38.4744 39.1263 37.6858 39.7728 36.8925 40.4193Z" fill="#F9F6EC"/>
<path d="M39.2677 38.4799C39.5793 38.1542 39.891 37.8334 40.2026 37.5077C40.6701 38.2174 41.4068 37.9403 42.0395 38.0424C44.0606 38.7861 46.3414 38.8979 47.9422 40.6818C48.3105 41.0901 49.458 40.9734 49.033 41.8678C48.608 42.7719 47.9894 41.8192 47.4558 41.6879C47.2339 41.6345 47.0308 41.4887 46.8183 41.3866C45.1042 40.2686 43.2154 39.6173 41.2037 39.5201C40.3207 39.4812 39.8013 39.0534 39.2677 38.4799Z" fill="#F9F4E8"/>
<path d="M49.1652 17.0926C49.5571 17.0974 49.9113 17.0148 50.1332 16.6405C51.5074 15.9309 52.8484 15.1337 54.2698 14.5407C55.082 14.2004 56.1917 13.4276 56.6686 15.0754C54.7373 15.1775 53.5567 16.7475 52.0126 17.5981C50.2796 18.5605 48.5466 19.523 46.8136 20.4854C45.5481 21.7054 44.1456 22.663 42.3984 22.9838C41.2415 22.9158 40.3774 22.4977 40.3443 21.1221C40.434 20.5583 40.7929 20.2278 41.2793 20.0236C43.5459 19.5424 45.482 18.2106 47.6163 17.3842C48.1074 17.1412 48.5466 16.5968 49.1652 17.0926Z" fill="#F8F2E5"/>
<path d="M42.5684 22.4443C44.1078 22.0748 45.1939 20.6652 46.8136 20.4805C46.8136 20.6458 46.8136 20.8111 46.8183 20.9763C45.8219 22.4686 45.8219 22.4686 46.8608 24.3302C46.8419 24.5295 46.8278 24.7288 46.8089 24.9232C44.5092 25.2489 42.1057 24.2768 39.8721 25.4968C38.8994 25.6621 37.9502 26.1141 36.935 25.7496C36.5714 25.5794 36.3164 25.3315 36.3116 24.8892C38.0447 23.1248 40.3302 22.8428 42.5684 22.4443Z" fill="#E6D0AA"/>
<path d="M54.3926 29.2687C52.1826 28.4132 49.968 28.4862 47.7439 29.225C47.2811 29.2347 46.8183 29.2444 46.3508 29.2542C45.2128 29.5069 46.4547 28.248 45.7322 28.2237C45.6992 28.0195 45.7464 27.8397 45.8645 27.6793C46.0581 27.5821 46.2186 27.6258 46.3508 27.8008C48.5891 27.7036 50.8179 26.7169 53.0657 27.757C53.7456 28.073 54.6759 28.0244 54.7798 29.1083C54.6712 29.2007 54.539 29.2542 54.3926 29.2687Z" fill="#F9F3E1"/>
<path d="M39.7588 24.9232C42.1104 23.9462 44.462 23.8685 46.8136 24.9232C46.7239 25.7544 47.588 25.9877 47.9044 26.7363C47.333 26.7849 46.8325 26.8286 46.3319 26.8675C45.3261 27.1981 44.5706 26.4301 43.6828 26.2308C42.729 25.8614 41.7373 26.0947 40.7646 26.0266C40.1365 25.9926 39.2063 26.1336 39.7588 24.9232Z" fill="#FBF9F3"/>
<path d="M46.8608 24.3302C46.3744 23.0421 45.0664 23.6497 44.0795 23.0859C44.7264 21.9387 46.0344 21.7881 46.823 20.9763C49.2408 20.6944 47.9752 22.6047 48.1688 23.5282C48.3908 24.6122 47.8761 25.0642 46.8608 24.3302Z" fill="#FBF7EF"/>
<path d="M43.9756 25.7885C44.7595 26.1481 45.5434 26.5078 46.3319 26.8675C46.3367 27.1786 46.3461 27.4849 46.3555 27.7959C46.2186 27.8202 46.0769 27.8348 45.9353 27.8397C45.4583 28.1848 45.0145 28.0244 44.5753 27.7473C44.1456 27.4119 43.6498 27.1883 43.2153 26.8675C42.8706 26.6148 42.2851 26.3474 42.7006 25.8128C42.9981 25.4385 43.5412 25.5794 43.9756 25.7885Z" fill="#E5CEA3"/>
<path d="M45.8503 4.46923C45.8645 4.29911 45.8786 4.13384 45.8881 3.96372C46.1856 3.64291 46.483 3.32696 46.7805 3.00615C47.3614 2.63187 48.0366 2.35967 48.2349 1.57223C49.1699 0.71674 50.1191 0.891727 50.9171 1.70347C51.7151 2.51521 51.871 3.49222 51.0682 4.45951L51.0729 4.46437C49.3258 3.85678 47.6825 4.5227 46.0156 4.90184C45.9353 4.91156 45.855 4.93101 45.7747 4.95045C45.6283 4.76088 45.652 4.60047 45.8503 4.46923Z" fill="#FCDF6E"/>
<path d="M48.2397 1.57223C48.5608 2.77283 48.3813 2.94782 46.7853 3.00615C47.1347 2.37911 47.2528 1.50904 48.2397 1.57223Z" fill="#FCF7D9"/>
<path d="M51.0682 4.46437C50.7754 5.08169 50.3646 5.47541 49.5382 5.34417C49.9066 4.61506 50.4968 4.55187 51.0682 4.46437Z" fill="#FCDF6E"/>
<path d="M45.8739 28.2772C46.993 28.1022 45.855 29.1035 46.3555 29.2542C46.195 29.4097 46.0297 29.5701 45.8692 29.7257C41.2698 30.7902 37.275 33.0941 33.5964 36.0495C33.0487 37.7993 31.4384 38.4021 30.1871 39.3888C29.0396 39.9283 28.6099 41.3331 27.4246 41.8338C26.9619 42.3344 26.4991 42.8302 26.0316 43.3309C25.6208 43.5156 25.4366 43.2434 25.2808 42.9226C25.1911 42.5823 25.2147 42.2469 25.3375 41.9213C25.6633 41.2067 26.263 40.7061 26.7022 40.079C28.2652 37.6778 30.5932 35.9911 32.3073 33.726C32.9353 33.031 33.7003 32.5206 34.4795 32.0248C37.0577 30.6492 39.5935 29.1667 42.4362 28.4278C43.5648 28.1362 44.7075 27.7911 45.8739 28.2772Z" fill="#FCFAF2"/>
<path d="M29.8424 38.9854C31.0937 38.0084 32.3451 37.0265 33.5964 36.0495C33.757 36.2099 33.9128 36.3751 34.0734 36.5355C34.437 36.8709 34.7911 36.5404 35.15 36.5258C35.8064 36.4529 36.4864 36.5015 37.0625 36.0738C37.4213 35.8453 37.7944 35.7044 38.2241 35.821C38.5405 35.9571 38.7341 36.1904 38.7955 36.5404C38.1533 37.1577 37.5158 37.7799 36.8736 38.3972C34.4889 37.8625 32.5859 39.7825 30.3051 39.7679C29.9699 39.6221 29.7101 39.4277 29.8424 38.9854Z" fill="#E3CEAB"/>
<path d="M35.032 36.9827C34.6306 37.0168 34.2481 37.0168 34.0734 36.5404C35.5986 35.6801 37.1191 34.8148 38.6491 33.9642C39.211 33.6531 39.7871 33.4538 40.264 34.1246C40.2168 35.403 39.1874 35.646 38.3233 36.0689C37.9408 36.0981 37.5677 36.1516 37.3505 36.5404C36.6564 37.0945 35.7403 36.4724 35.032 36.9827Z" fill="#FAF8F1"/>
<path d="M47.2952 32.6615C47.9516 31.8838 47.3472 30.4693 48.5513 29.9881C48.6788 29.9395 49.0424 30.1534 49.0802 30.3041C49.3871 31.5533 49.0708 32.6858 48.3341 33.7017C48.1972 33.8913 47.9847 34.0177 47.8052 34.1732C46.6247 34.0323 46.9505 33.3518 47.2952 32.6615Z" fill="#F8F0DC"/>
<path d="M38.328 36.0689C38.6632 35.0919 39.8296 34.9947 40.264 34.1246C40.5663 33.8135 40.8685 33.5024 41.1707 33.1962C41.4635 32.8949 41.7704 32.8462 42.0962 33.1428C41.2415 34.5281 40.0468 35.5683 38.7907 36.5453C38.6396 36.3849 38.4838 36.2245 38.328 36.0689Z" fill="#DFC9A6"/>
<path d="M42.0962 33.1379C41.7893 33.1573 41.4823 33.1719 41.1707 33.1914C40.8496 31.1401 42.5259 32.6907 43.017 32.1074C42.7148 32.4525 42.4079 32.7928 42.0962 33.1379Z" fill="#FAF6E8"/>
<path d="M11.3789 13.0971C12.2384 12.5575 13.0978 12.5235 13.9667 13.0679C13.2206 13.8407 13.5181 15.2747 12.2195 15.7607C11.4592 16.0427 10.8642 16.9856 10.0331 15.926C9.27761 14.9636 9.79232 14.3317 10.5337 13.7435C11.1712 14.0303 11.4828 13.8553 11.3789 13.0971Z" fill="#FBE078"/>
<path d="M11.3789 13.0971C11.6245 13.2332 12.0967 13.4227 12.0778 13.5054C11.9598 14.0595 11.5631 14.4581 11.0248 14.531C10.4676 14.6087 10.5526 14.0984 10.529 13.7387C10.8123 13.5248 11.0956 13.3109 11.3789 13.0971Z" fill="#FCF5D2"/>
<path d="M45.8503 4.46923C45.8267 4.62964 45.7983 4.7949 45.7747 4.95531C44.8161 7.33221 43.2484 9.50982 43.5317 12.2902C43.9237 13.3109 43.7584 14.1664 42.814 14.7789C42.5543 14.5212 42.2048 14.4095 42.1482 14.5601C41.5343 16.135 40.5568 17.428 39.3055 18.5216C38.5924 18.9299 37.8086 19.2751 37.2797 18.3758C36.8452 17.6321 37.4261 17.0148 37.8888 16.4899C38.4035 15.9017 38.923 15.2844 39.7682 15.2018C40.996 13.9817 41.3029 12.2513 42.0726 10.7785C42.5448 9.64592 43.0217 8.51337 43.4987 7.38082C44.1362 6.27743 44.0653 4.57617 45.8503 4.46923Z" fill="#F8F2E4"/>
<path d="M35.5656 16.5579C35.5514 16.0718 33.4784 16.3586 35.1311 15.1969C36.1416 14.4872 36.8263 13.3158 38.158 13.0339C38.7624 12.9075 39.4707 12.47 39.9004 13.0339C40.401 13.6949 39.4046 14.0886 39.3055 14.6914C38.0258 17.3745 37.2608 17.7536 35.5656 16.5579Z" fill="#FDFCF9"/>
<path d="M35.5656 16.5579C37.6102 17.6273 38.2713 15.7705 39.3007 14.6914C39.4566 14.8566 39.6171 15.0268 39.7729 15.192C39.3102 15.7364 38.838 16.276 38.3799 16.8252C38.0399 17.2335 37.2844 17.6078 37.6197 18.1717C38.0777 18.9445 38.7152 18.2883 39.2535 18.0453C39.5416 18.2786 39.6502 18.5994 39.6785 18.9542C39.6738 19.1827 39.6313 19.4014 39.5557 19.6153C38.8427 20.5388 37.7472 19.6445 36.9491 20.1889C36.3825 20.0674 35.9433 19.7854 35.7592 19.1827C35.8394 18.1863 35.0697 17.7099 34.5456 17.0829C34.7675 16.6648 35.1736 16.626 35.5656 16.5579Z" fill="#EAD9B6"/>
<path d="M34.5503 17.0877C35.6647 17.253 37.0861 17.2092 35.8064 19.0223C34.9328 19.8486 34.0545 20.393 33.162 19.0466C32.9873 18.1571 33.2376 17.4814 34.0734 17.1023C34.2339 17.0974 34.3897 17.0926 34.5503 17.0877Z" fill="#FCF8F0"/>
<path d="M57.1219 30.761C57.5186 30.9603 57.665 31.3103 57.6744 31.7429C57.7028 32.9629 57.8916 34.3579 56.475 34.8392C55.5731 35.1454 55.0112 34.251 54.9214 33.4295C54.7562 31.9324 54.4776 30.2798 56.2908 29.5166C56.56 29.4048 56.7064 29.9006 56.7347 30.2312C56.5883 30.4305 56.5506 30.6298 56.7394 30.8193C56.8622 30.936 56.9992 30.9068 57.1219 30.761Z" fill="#FDDF6D"/>
<path d="M57.1219 30.761C57.1031 31.0721 57.1644 31.4172 57.0511 31.6797C56.9094 32.0005 56.6356 31.7817 56.5081 31.6068C56.1209 31.0818 56.0925 30.586 56.7394 30.2263C56.8622 30.4062 56.9944 30.586 57.1219 30.761Z" fill="#FDF8CF"/>
<path d="M14.7316 49.6401C14.3775 49.0325 13.9289 48.5221 13.3103 48.1916C12.6681 47.2292 12.0259 46.2619 11.3837 45.2995C10.9303 42.5726 9.22567 40.1811 9.32011 37.2841C10.3873 37.0994 10.3401 38.1785 10.869 38.5576C12.6397 40.3221 12.4225 42.9712 13.5653 45.0321C13.9336 45.6932 14.1178 46.5098 14.3586 47.2681C14.6702 47.9923 15.4116 48.4055 15.6619 49.1735C15.8177 49.5137 15.9736 49.854 16.1294 50.1942C15.6619 50.0095 15.1991 49.8248 14.7316 49.6401Z" fill="#FDFAF2"/>
<path d="M15.6572 49.1735C15.1661 48.702 14.6797 48.2305 14.1886 47.7542C14.2547 47.4382 14.4436 47.2438 14.7505 47.1806C15.0811 47.1417 15.3408 48.3569 15.6099 47.3799C15.8744 46.4174 15.6855 45.3189 15.6902 44.2836C15.8461 43.9579 16.0066 43.6322 16.1624 43.3114C17.0502 44.7891 16.4269 46.5341 16.9746 48.109C17.3099 49.0568 16.3938 49.1832 15.6572 49.1735Z" fill="#EAD8B9"/>
<path d="M6.12797 18.6383C6.72296 20.3444 5.5141 23.0859 3.95108 23.2706C2.70445 23.4164 2.31724 22.6436 2.865 21.4624C3.98414 20.5534 4.82939 19.3188 6.12797 18.6383Z" fill="#FCDE6D"/>
<path d="M6.12797 18.6383C5.31577 19.9167 4.47051 21.1513 2.865 21.4624C3.4411 19.8875 4.25802 18.6189 6.12797 18.6383Z" fill="#FCEFB0"/>
<path d="M7.82321 20.4222C9.37206 20.2035 9.16428 21.5985 9.56566 22.4345C9.75927 22.9498 10.0143 23.7129 9.37677 23.8199C8.43708 23.9803 9.1029 22.7796 8.59763 22.4394C8.47013 21.6471 8.20097 21.0055 7.24711 21.0978C7.43599 20.8742 7.6296 20.6458 7.82321 20.4222Z" fill="#E4CD98"/>
<path d="M9.03678 32.1901C7.56348 31.3832 8.30958 29.959 8.13958 28.7924C8.77707 27.6939 7.80431 26.4009 8.54568 25.2927C8.87151 24.8066 9.20206 24.2573 9.79232 24.3788C10.4487 24.5101 10.4062 25.2052 10.4345 25.7642C10.4345 26.0412 10.4109 26.3183 10.3684 26.5905C10.0615 27.7716 10.2645 28.9868 10.1323 30.1777C10.0473 30.9749 10.3117 32.0491 9.03678 32.1901Z" fill="#FBF7EB"/>
<path d="M9.03678 32.1901C9.9387 31.1693 9.36261 29.9249 9.51372 28.7875C9.62233 27.9515 9.25872 27.0328 9.94343 26.3037C10.5667 28.1459 10.0331 29.9784 10.2268 31.563C10.2929 30.8388 10.1512 29.7986 10.2551 28.7924C10.3306 28.0827 9.79233 27.1446 10.8359 26.712C11.9928 28.0681 10.562 29.7548 11.3742 31.1499C11.3081 31.8984 11.785 32.9629 11.039 33.308C10.2456 33.6823 9.50899 32.958 9.03678 32.1901Z" fill="#F5E9D1"/>
<path d="M9.96703 34.1246C9.32483 34.1295 9.06511 34.5135 9.02261 35.1211C8.87623 35.1016 8.72985 35.0871 8.58346 35.0725C7.56349 33.5316 5.77854 33.4198 4.33357 32.6713C4.77745 31.5922 5.52827 31.6748 6.43019 32.0102C7.73821 32.5011 8.91401 33.1914 9.96703 34.1246Z" fill="#FAF4E4"/>
<path d="M10.0095 25.8565C9.97648 25.5454 10.0568 25.1322 9.89149 24.9427C9.4665 24.4517 9.32011 25.0059 9.09817 25.2635C8.2293 26.2794 8.98011 27.7668 8.13014 28.7875C8.01208 28.107 8.33319 27.3099 7.61071 26.7946C7.53043 25.244 8.86679 24.0289 8.59291 22.4297C8.83846 22.7894 9.08401 23.1442 9.32955 23.5039C9.40511 23.1442 9.48538 22.7845 9.56093 22.4248C10.0095 23.2511 10.4581 24.0775 10.9067 24.9038C10.529 25.142 10.8926 26.1287 10.0095 25.8565Z" fill="#F1E2C2"/>
<path d="M11.3789 31.1499C10.4534 29.7888 11.1665 28.248 10.9256 26.8092C10.7887 26.6294 10.8217 26.4835 11.0012 26.3572C11.2892 26.1384 11.6953 25.6669 11.8464 25.7447C12.3989 26.0169 12.432 26.6342 12.295 27.1835C12.0778 28.0681 11.1665 28.7146 11.4356 29.7743C11.4167 30.2312 11.3978 30.6929 11.3789 31.1499Z" fill="#FCFAF4"/>
<path d="M39.2441 19.6104C39.2535 19.4306 39.263 19.2508 39.2771 19.066C40.4388 17.6418 40.944 15.6927 42.6204 14.6817C43.1917 13.9914 43.3051 13.1116 43.5365 12.2804C44.8775 13.2088 44.1078 14.9733 44.9625 16.0913C46.1383 17.3696 45.4442 18.298 44.3156 18.9202C42.9604 19.6688 41.4823 20.116 39.9004 19.9993C39.6407 19.9458 39.4235 19.8097 39.2441 19.6104Z" fill="#FBFAF7"/>
<path d="M39.6407 19.6396C40.9251 19.3626 42.2332 19.1584 43.4892 18.7841C44.7548 18.4098 45.4536 17.5641 44.9578 16.101C45.3403 15.9017 45.397 15.5323 45.4253 15.1483C46.7239 15.0948 46.1289 16.9468 47.2528 17.0731L47.3047 17.1072C47.4983 17.2433 47.758 17.3113 47.7816 17.6175C45.8597 18.9397 43.8528 20.0625 41.539 20.4659C41.0149 19.9264 39.8721 20.8888 39.6407 19.6396Z" fill="#F1E4CD"/>
<path d="M47.8194 14.0935C47.7675 14.4581 47.7155 14.8275 47.6636 15.192C47.3802 15.017 47.0969 14.8421 46.8089 14.6671C47.0875 13.3255 46.2989 12.6304 45.3356 11.9985C44.4714 11.4347 43.8481 10.8125 45.3875 10.3021C47.3472 10.7931 47.3897 12.5721 47.8194 14.0935Z" fill="#F9F5E4"/>
<path d="M47.2528 17.0683C44.8681 18.2106 46.5208 15.2941 45.4253 15.1434C45.3072 14.6476 45.1892 14.147 45.0617 13.5977C45.8692 13.5734 46.0344 14.215 46.3555 14.6622C46.6247 15.474 47.2811 16.1399 47.2528 17.0683Z" fill="#FAF6EA"/>
<path d="M18.4432 37.0022C18.4574 36.6862 18.4715 36.3703 18.4857 36.0543C18.3204 35.8648 18.2402 35.6412 18.2496 35.3836C18.4102 34.2948 18.3063 33.1914 18.4385 32.1026C18.5093 31.7283 18.6463 31.3929 18.9249 31.1304C20.0204 31.1207 19.501 32.0491 19.6993 32.5546C19.7796 32.0053 19.331 31.2033 20.3509 31.1061C21.6684 32.8171 20.0723 34.6593 20.5729 36.4043C20.8326 35.4176 20.8232 34.3191 21.692 33.5851C22.5609 33.4247 22.5562 34.0663 22.627 34.6496C22.5373 35.3058 22.4098 35.9668 22.5373 36.6376C22.542 36.8661 22.5089 37.0897 22.4476 37.3133C21.5031 39.87 19.8079 42.0914 19.3404 44.8571C18.9579 45.8536 19.2507 46.991 18.7265 47.9534C18.6415 48.0312 18.5518 48.109 18.4621 48.1868C17.5885 46.7723 17.8388 45.1439 18.1127 43.7392C18.5565 41.4789 18.4385 39.2478 18.4432 37.0022Z" fill="#E1C9A1"/>
<path d="M18.9249 44.7453C19.2649 41.8192 20.7854 39.4277 22.2634 37.0265C23.5336 36.4821 23.5006 37.4008 23.4534 38.2028C23.4061 38.9854 23.0567 39.6999 22.8489 40.4484C22.0698 42.2421 21.7912 44.2787 20.4218 45.7855C20.2423 46.4272 20.0629 47.0736 19.8787 47.7201C18.9438 48.2402 20.0676 49.9901 18.514 50.1359C18.4999 49.4846 18.481 48.8381 18.4668 48.1867L18.5093 48.2111C19.0901 47.1077 18.4102 45.8536 18.9249 44.7453Z" fill="#FBF9EF"/>
<path d="M17.0596 25.8273C16.6677 25.6183 16.6158 25.2343 16.578 24.8406C16.5921 24.6899 16.6016 24.5392 16.6063 24.3886C18.0229 21.4186 18.8776 18.3855 17.5791 15.1191C17.8813 14.9684 18.1835 14.8178 18.4857 14.6671C18.651 15.4691 18.8163 16.276 18.9815 17.078C18.991 17.914 19.0051 18.7501 19.0146 19.5861C19.7371 20.5632 19.0996 21.4867 18.9107 22.4297C18.3015 23.5671 18.4857 25.1663 17.0596 25.8273Z" fill="#E3D2B1"/>
<path d="M21.8101 33.6434C21.2198 35.0919 21.5881 36.8758 20.1809 38.2951C19.3404 35.7773 20.4596 33.4927 20.3887 31.1936C20.0062 30.5228 20.3226 29.8666 20.4123 29.2007C20.5493 28.6466 20.7712 28.1216 20.9743 27.5918C21.5551 25.6232 22.915 23.9657 23.137 21.8561C23.2975 20.8402 23.7272 20.0139 24.6669 19.5424C27.2594 15.5712 27.0422 11.2646 26.0883 6.8753C26.0977 6.41353 26.1072 5.95176 26.1166 5.48999C28.3266 7.09403 28.4116 9.54385 28.3124 11.9159C28.2321 13.797 27.7221 15.6635 27.4058 17.5349C27.4199 18.8959 26.9949 20.1354 26.4377 21.3457C25.1722 24.4615 23.9775 27.5966 23.1653 30.8776C22.9245 31.879 22.5703 32.8803 21.8101 33.6434Z" fill="#F9F4E5"/>
<path d="M29.3418 13.1943C30.7962 12.7519 32.2459 12.3145 34.385 11.6631C32.4679 13.5297 30.579 14.2296 29.2946 15.7316C29.0821 15.9795 28.9168 15.4205 28.8413 15.1386C28.9782 14.4824 28.7138 13.7144 29.3418 13.1943Z" fill="#F7F2E4"/>
<path d="M26.0316 20.986C26.6738 19.9118 26.4141 18.4536 27.4105 17.53C27.5852 17.5592 27.7552 17.5884 27.9299 17.6175C27.9252 18.5702 27.9252 19.523 27.9205 20.4757C27.2924 21.3798 28.8129 21.6568 28.4777 22.4831C28.3077 22.6484 28.1094 22.7553 27.8827 22.8234C27.5238 22.8817 27.1744 22.838 26.8391 22.7067C26.2063 22.313 25.5264 21.9436 26.0316 20.986Z" fill="#F0C45C"/>
<path d="M14.7552 47.1806C14.5664 47.3702 14.3822 47.5646 14.1933 47.7542C12.6775 44.8426 11.6528 41.7463 10.869 38.5576C11.0531 38.3681 11.2373 38.1785 11.4262 37.9889C13.8581 40.5457 13.9903 43.9871 14.7552 47.1806Z" fill="#E5D0AB"/>
<path d="M2.42584 33.5899C3.58276 33.7795 3.83304 33.9982 3.64887 34.9267C3.44582 35.9523 3.04444 36.905 2.14724 37.532C1.84503 37.741 1.50504 37.7848 1.34921 37.4737C0.86283 36.5112 0.749502 35.5197 1.44837 34.5815C2.10475 34.5961 2.27474 34.1003 2.42584 33.5899Z" fill="#F8DB78"/>
<path d="M2.42584 33.5899C2.85083 34.4017 2.3739 34.9412 1.78836 35.262C1.53337 35.403 1.49559 34.8586 1.44364 34.5767C1.77419 34.251 2.10002 33.9205 2.42584 33.5899Z" fill="#FCF9D6"/>
<path d="M20.8562 4.45951C21.3379 3.76929 22.0792 4.04149 22.7167 3.92969C23.6234 4.04149 24.7944 3.98802 24.9597 5.12543C25.1014 6.1073 23.9114 6.34062 23.2739 6.83642C22.4239 7.49748 21.3898 7.4197 20.384 7.38568C20.0204 6.5788 19.4868 5.76705 20.3745 4.95531C20.724 4.97961 21.064 5.00392 20.8562 4.45951Z" fill="#FCDE70"/>
<path d="M57.2258 16.6308C57.5564 16.4607 57.8869 16.2906 58.2127 16.1204C58.3827 15.9843 58.7227 16.2225 58.7511 15.9892C58.77 15.8385 58.4064 15.785 58.2033 15.7121C58.2505 14.6136 58.8266 14.4338 59.5727 15.0219C60.1158 15.4497 60.4982 16.0913 60.9516 16.6357C60.9374 17.4377 61.0602 18.2737 60.876 19.032C60.6352 20.0285 60.2149 21.3214 59.0627 21.2242C57.9389 21.1319 57.2589 20.0674 57.2211 18.7938C57.1928 18.0745 57.2211 17.3551 57.2258 16.6308Z" fill="#FCDD6A"/>
<path d="M21.8053 15.6538C22.4948 13.6123 24.6528 12.5332 25.1061 10.341C25.7955 9.9959 26.1544 10.1855 26.0458 10.9972C25.9277 11.911 26.3386 12.9269 25.5925 13.7289C24.5442 14.7546 23.8972 16.2322 22.3862 16.7426C21.8762 16.5579 22.0603 15.9843 21.8053 15.6538Z" fill="#F7F2E3"/>
<path d="M24.6717 19.5424C24.3458 20.3493 23.6989 21.0201 23.6847 21.963C23.4156 22.3762 23.137 22.7845 22.6176 22.9012C22.0131 23.0519 21.404 23.0567 20.7901 22.9644C20.2754 22.8574 19.8457 22.629 19.6332 22.0943C19.3876 20.6847 20.2896 19.9653 21.2293 19.2653C21.574 19.0903 21.9423 19.0077 22.3248 18.9883C22.8395 18.9883 23.3306 19.0758 23.6989 19.4987C24.02 19.5132 24.3458 19.5278 24.6717 19.5424Z" fill="#F4CE5A"/>
<path d="M22.2634 19.4889C21.9565 19.4987 21.6448 19.5132 21.3379 19.523C20.5682 18.1814 21.0734 17.287 22.287 16.6357C23.4061 15.6878 23.9728 14.0741 25.5925 13.7289C25.5783 14.2199 25.5641 14.7108 25.55 15.1969C24.275 16.485 23.595 18.2543 22.2634 19.4889Z" fill="#EEDAB9"/>
<path d="M22.2634 19.4889C22.8442 17.6418 23.68 16.0038 25.55 15.1969C25.2761 16.7864 24.87 18.3175 23.7036 19.4987C23.2173 19.4987 22.7403 19.4938 22.2634 19.4889Z" fill="#FCF8ED"/>
<path d="M22.287 16.6357C21.8998 17.5738 21.1867 18.3953 21.3379 19.523C20.8751 20.3298 19.841 20.7819 19.9023 21.9242C19.586 22.3422 19.4207 22.9109 18.8399 23.0664C18.4952 22.9838 18.2307 22.8526 18.4715 22.42C18.651 21.477 18.8351 20.5291 19.0146 19.5861C19.9448 18.2737 20.8798 16.9662 21.8101 15.6538C22.1973 15.8628 22.2587 16.242 22.287 16.6357Z" fill="#FDFBF7"/>
<path d="M58.1986 15.7121C59.3933 15.6927 59.3933 15.6927 59.2799 17.2238C58.5811 17.2044 58.6708 16.3781 58.208 16.1204C58.208 15.9843 58.2033 15.8482 58.1986 15.7121Z" fill="#FAF3CA"/>
<path d="M20.8562 4.45951C21.2245 4.52756 21.862 4.51298 21.9092 4.67825C22.0367 5.11085 21.5504 5.2907 21.2245 5.48513C20.6343 5.83024 20.3793 5.60179 20.3793 4.95531C20.5351 4.79004 20.6956 4.62478 20.8562 4.45951Z" fill="#FCF0C3"/>
<path d="M47.7816 17.6175C47.6211 17.4474 47.4652 17.2773 47.3047 17.1072C47.9233 16.8204 48.5419 16.2371 49.1699 17.0926C48.7024 17.2676 48.2397 17.4426 47.7816 17.6175Z" fill="#E7D0AA"/>
<path d="M10.9965 26.3572C10.9587 26.5078 10.9351 26.6585 10.9209 26.8092C9.90565 28.4716 10.869 30.4013 9.94343 32.122C9.94343 30.1826 9.94343 28.2431 9.94343 26.3085C9.97176 26.1579 9.99065 26.012 10.0095 25.8614C10.3118 25.5454 10.6092 25.2295 10.9115 24.9135C10.9398 25.3947 10.9681 25.8759 10.9965 26.3572Z" fill="#E3CEA8"/>
<path d="M18.5046 35.6023C18.5188 35.753 18.5093 35.9037 18.4857 36.0543C18.1835 36.2196 17.886 36.3849 17.5838 36.5501C17.3099 36.2342 17.1919 35.8502 17.121 35.4468C16.8755 33.4101 16.6866 31.3783 17.5932 29.4389C17.8529 28.9431 18.2449 28.6125 18.769 28.4473C19.2979 28.3695 19.7607 28.4424 20.0393 28.9868C20.0771 29.9055 19.6946 30.6249 19.0476 31.2276C19.0146 31.5436 18.9768 31.8595 18.9438 32.1755C18.3629 33.2594 19.076 34.5183 18.5046 35.6023Z" fill="#FBF7E9"/>
<path d="M18.0324 29.3174C17.4799 31.3686 17.5555 33.4733 17.5224 35.5683C16.7763 35.7189 16.8471 35.1308 16.8613 34.7128C16.8849 34.042 16.6771 34.5767 16.5591 34.6301C15.8508 34.1684 16.4269 33.0796 15.6477 32.647C15.9169 32.0199 15.0055 31.0575 16.1813 30.6929C17.4421 30.5957 16.6205 28.9285 17.6404 28.6466C17.9899 28.7438 18.2732 28.8702 18.0324 29.3174Z" fill="#EBD7B2"/>
<path d="M16.5638 34.635C16.6016 34.3191 16.6346 34.008 16.6819 33.6288C17.4657 34.1052 16.7291 35.1891 17.5271 35.5731C17.546 35.8988 17.5696 36.2245 17.5885 36.5501C16.6724 36.2342 16.5969 35.4468 16.5638 34.635Z" fill="#DCC49A"/>
<path d="M17.5602 28.7535C17.3855 29.5069 17.343 30.3332 16.9982 30.9894C16.5827 31.7866 16.3891 31.0235 16.1813 30.6978C16.5355 30.4742 16.5969 30.1145 16.5969 29.7305C16.0633 28.3452 16.4883 27.0765 17.0549 25.8273C17.5224 24.6899 17.9946 23.5525 18.4621 22.4151C18.6227 22.5852 18.7785 22.7553 18.939 22.9255C19.2176 23.1831 19.2885 23.5185 19.2601 23.8879C19.0476 24.9087 18.6746 25.8808 18.481 26.9064C18.2921 27.5821 18.1127 28.2674 17.5602 28.7535Z" fill="#FBF6E7"/>
<path d="M27.8874 22.488C28.0527 22.4588 28.2227 22.4248 28.388 22.3957C28.8554 21.7249 29.5213 21.7054 30.0076 21.7346C27.8921 20.8451 29.9085 19.8972 30.2249 18.9445C30.8434 18.614 31.2873 18.8084 31.5895 19.4257C31.7784 19.4549 31.9673 19.4889 32.1609 19.5181C32.5528 19.8195 32.6331 20.2472 32.6331 20.709C32.5717 21.3603 32.4112 22.0019 32.4017 22.663C32.2931 23.1296 32.0429 23.4893 31.6273 23.7226C31.2023 23.9219 30.749 23.9754 30.291 23.9803C29.5826 23.9657 28.9074 23.8296 28.3077 23.4067C28.0291 23.1685 27.8166 22.8963 27.8874 22.488Z" fill="#F4DD8F"/>
<path d="M30.2721 19.0903C31.1173 20.1792 29.2804 20.1451 29.5496 21.0346C30.0454 21.7735 30.4657 20.7284 30.9048 20.8937C31.5093 21.1221 31.2354 21.7103 31.2023 22.1332C31.1457 22.8574 30.7112 22.5901 30.409 22.3325C29.7007 21.7297 29.0679 22.5706 28.3927 22.3908C28.3218 21.7297 25.8852 21.686 27.9205 20.4757C28.8129 20.4805 28.8129 20.4805 28.8791 19.0758C29.3465 18.6577 29.8093 18.6286 30.2721 19.0903Z" fill="#F7D459"/>
<path d="M30.2721 19.0903C29.8046 19.0855 29.3418 19.0855 28.8743 19.0806C28.9546 18.0599 29.6488 17.6856 30.4704 17.7828C31.3062 17.88 31.9201 18.3758 31.5895 19.4306C31.1504 19.3139 30.7112 19.2021 30.2721 19.0903Z" fill="#FDFAEB"/>
<path d="M32.1845 21.0055C32.1798 20.5097 32.1704 20.0139 32.1656 19.5181C32.2034 19.1681 32.2365 18.8181 32.6048 18.6432C32.7701 18.9445 32.9401 19.2459 33.1053 19.5473C33.6389 20.1743 33.2801 20.6263 32.8267 21.0589C32.6001 21.1659 32.3876 21.1464 32.1845 21.0055Z" fill="#EDCA72"/>
<path d="M32.6567 20.986C32.9306 20.5486 33.2281 20.116 33.1053 19.5473C33.1242 19.382 33.1431 19.2167 33.162 19.0515C34.0545 19.8243 34.9281 18.9251 35.8111 19.0272C36.1747 19.348 36.543 19.6688 36.9113 19.9896C37.4969 21.5645 36.4911 21.9874 35.3342 22.313C34.7297 22.2596 34.1348 22.4491 33.5492 22.4734C32.6048 22.5026 32.109 22.0165 32.6567 20.986Z" fill="#F9F5EB"/>
<path d="M35.9244 39.4423C32.7748 41.44 30.2012 44.1329 27.6135 46.8063C27.1697 47.2632 26.7258 47.725 26.0411 47.7687C25.3658 46.5098 26.4897 45.9994 27.0327 45.2509C27.1933 45.1002 27.368 44.9689 27.5474 44.8426C28.6571 44.1475 29.4976 43.1462 30.376 42.1935C30.7207 41.7803 31.0418 41.3428 31.4526 40.9929C32.0523 40.5214 32.5765 39.9575 33.2139 39.5346C35.202 38.509 35.2019 38.509 35.9244 39.4423Z" fill="#E1CBA9"/>
<path d="M27.4671 45.2849C27.0988 46.1793 25.9797 46.6119 26.0363 47.7639C25.5452 48.352 24.8889 48.5999 24.1664 48.7069C25.7625 46.991 25.6444 44.1135 27.9157 42.8545C28.7752 42.1497 29.4977 40.6477 30.7537 42.3587C29.8329 43.5496 29.0727 44.9301 27.453 45.2898C27.2688 45.0273 27.5096 45.387 27.3349 45.1196C27.2971 45.0662 27.3396 45.1196 27.4671 45.2849Z" fill="#F0E2C7"/>
<path d="M35.9244 39.4423C34.8053 38.5285 34.1442 40.1665 33.1526 39.9721C32.1231 40.3998 31.0371 41.163 30.3382 39.5006C31.7831 38.9708 33.2706 38.5285 34.6636 37.8771C35.6317 37.4251 36.255 37.7216 36.8783 38.4069C36.7272 38.7569 36.5808 39.1069 36.4344 39.452C36.2597 39.4423 36.0897 39.4423 35.9244 39.4423Z" fill="#F7F0DC"/>
<path d="M30.3335 39.4957C31.1646 40.3415 32.2176 39.7534 33.1478 39.9672C32.7984 40.5894 32.3451 41.0901 31.6981 41.3914C30.3287 41.231 29.2143 42.0671 27.9677 42.3927C27.7883 42.208 27.6041 42.0233 27.4199 41.8386C28.0196 40.7012 28.6618 39.6075 29.8376 38.9902C30.0076 39.1555 30.1729 39.3256 30.3335 39.4957Z" fill="#F0E2C7"/>
<path d="M25.5311 42.8108C25.7011 42.9858 25.8664 43.1559 26.0363 43.3309C25.5736 44.1475 25.1155 44.9641 24.6575 45.7855C24.3317 45.6203 24.0011 45.4599 23.6753 45.2946C23.3636 45.3043 23.052 45.3189 22.7403 45.3286C22.5892 45.1391 22.5089 44.9252 22.5042 44.6822C23.0567 43.2823 24.19 42.8642 25.5311 42.8108Z" fill="#F7F0DC"/>
<path d="M27.9724 42.3927C29.1388 41.7511 30.1162 40.3658 31.7029 41.3914C31.3865 41.7122 31.0748 42.0379 30.7584 42.3587C29.6157 41.3428 28.9121 42.9517 27.9205 42.8545C27.9299 42.699 27.9488 42.5483 27.9724 42.3927Z" fill="#F8F0DD"/>
<path d="M25.5311 42.8108C24.785 43.7538 23.3259 43.6322 22.7309 44.7988C22.1784 45.3821 21.9848 46.4563 20.8562 46.2668C20.7098 46.1064 20.5682 45.9508 20.4218 45.7904C20.7051 43.885 21.6637 42.2226 22.2728 40.4339C23.085 40.1811 23.1606 39.4326 23.4109 38.7569C25.3658 33.4587 29.5118 30.1923 33.7664 27.0377C33.9459 26.9064 34.2197 26.9502 34.4559 26.9842C35.9197 28.1313 34.3803 28.6563 33.9884 29.4194C33.6059 29.818 33.2139 30.202 32.8409 30.6103C32.5859 30.902 32.312 31.1742 32.0806 31.4852C31.4715 32.3018 31.1315 33.2691 30.6735 34.1684C30.0785 35.3349 28.9641 33.3226 28.4163 34.5961C28.2935 34.7711 28.1566 34.9412 28.0291 35.1114C26.6124 36.973 25.4839 38.9805 24.8464 41.2748C24.6528 41.9699 24.8936 41.9115 25.3516 41.7852C25.4414 41.8289 25.5216 41.8775 25.6066 41.9213C25.5736 42.208 25.55 42.5094 25.5311 42.8108Z" fill="#E5CFAA"/>
<path d="M20.8562 46.2668C21.4795 45.7758 22.1028 45.2897 22.7309 44.7988C22.7356 44.9738 22.7356 45.1488 22.7403 45.3286C22.1312 45.6883 22.1312 47.3313 20.8562 46.2668Z" fill="#EBDCBF"/>
<path d="M34.5409 27.2758C29.9321 30.6298 25.2053 33.8962 23.6989 40.0158C23.3825 41.2991 23 41.2019 22.2728 40.4339C22.4853 39.6707 22.6553 38.8881 22.9292 38.1493C23.2031 37.4153 22.9717 37.0994 22.2681 37.0265C22.2917 36.8807 22.3059 36.7397 22.3153 36.5939C22.3153 36.2536 22.4145 35.9474 22.5798 35.6558C23.137 34.5767 24.0295 33.7747 24.7708 32.8414C25.9325 30.7999 27.9346 29.6187 29.4552 27.9369C30.4185 27.0425 31.3157 26.0607 32.482 25.4239C33.3887 25.0545 34.1725 24.4906 34.9281 23.8685C36.8122 22.8234 38.6019 21.579 40.6607 20.8937C40.7315 22.1575 41.4965 22.5123 42.5779 22.4443C40.5426 23.2657 38.5074 24.0872 36.4722 24.9087C36.3778 25.0739 36.1605 25.244 36.3683 25.4336C36.5383 25.594 36.7508 25.5211 36.9302 25.3801C37.8747 25.2246 38.8238 25.0739 39.7682 24.9184C40.1129 26.2648 41.0101 25.1274 41.6287 25.3218C42.3843 25.5649 43.2956 25.0739 43.9898 25.7836C43.6923 25.8225 43.3901 25.8565 42.8423 25.9294C43.6451 26.4544 44.2731 26.8627 44.8964 27.271C43.7962 28.8556 41.9782 28.5445 40.4718 29.0597C39.5321 28.7632 39.2818 27.83 38.7766 27.1349C38.0541 26.2308 37.3458 27.4654 36.6327 27.164C35.9291 27.1446 35.2256 27.0279 34.5409 27.2758Z" fill="#F9F2E2"/>
<path d="M40.6513 20.8937C39.3149 22.9838 36.7933 23.0616 35.0178 24.4031C34.3803 24.792 33.8939 24.5344 33.8561 23.8685C33.8089 23.0421 33.7948 22.0603 35.0131 21.9922C36.3164 21.9971 36.6563 21.0395 36.9066 19.9896C37.5394 18.9056 38.3421 18.9397 39.2441 19.6104C39.3763 19.6153 39.5085 19.6202 39.6407 19.6348C40.0752 20.3882 41.114 19.6785 41.539 20.4611C41.2415 20.6069 40.9487 20.7527 40.6513 20.8937Z" fill="#F2CD61"/>
<path d="M36.9208 25.385C36.4864 25.8759 35.9008 26.1384 35.4805 25.594C35.3294 25.3947 36.0755 25.0885 36.4627 24.9135C36.6138 25.0691 36.7697 25.2246 36.9208 25.385Z" fill="#EBDABD"/>
<path d="M40.1979 28.7486C41.7846 28.3403 43.4231 28.0973 44.887 27.2758C45.1089 27.7084 45.515 27.7911 45.9353 27.8494C45.9022 27.9904 45.8833 28.1362 45.8739 28.282C41.7798 28.875 38.1438 30.7124 34.5503 32.6664C33.3792 31.8401 33.672 31.1401 34.725 30.5034C36.7319 30.5228 38.1202 28.5007 40.1979 28.7486Z" fill="#EAD9B7"/>
<path d="M27.9346 34.601C28.0857 33.5948 28.7657 33.1865 29.644 33.1087C29.729 33.099 29.8707 33.7747 30.0218 34.2461C30.8671 32.8074 31.1032 31.0429 32.6567 30.2214C33.3651 31.2665 32.4584 32.2046 32.4679 33.2059C32.4773 33.4976 32.449 33.7941 32.6095 34.0614C30.7443 36.1904 28.8838 38.3194 27.0185 40.4484C26.145 39.4326 26.9052 38.5187 27.1933 37.5855C27.4955 36.6036 27.8402 35.6363 27.9346 34.601Z" fill="#F2E5CA"/>
<path d="M32.6095 34.0614C32.4631 33.9108 32.3167 33.7601 32.1751 33.6094C32.567 32.2144 32.8362 30.7659 33.8703 29.6673C34.1584 29.4291 34.6825 29.8472 34.8667 29.0938C35.0839 28.2042 35.4003 27.2175 36.4439 26.8675C37.0766 26.6002 37.6999 26.2891 38.3516 26.085C39.2866 25.7885 38.8946 26.3815 38.753 26.7849C37.3836 27.9612 37.0483 30.1728 35.0414 30.7124C34.012 31.1304 34.0781 31.8449 34.555 32.6615C33.9034 33.1282 33.2564 33.5948 32.6095 34.0614Z" fill="#E4D1AC"/>
<path d="M27.9346 34.601C28.9735 35.5828 28.0669 36.5501 27.8638 37.4883C27.6419 38.4896 26.858 39.3256 27.0185 40.4484C26.6738 41.0658 26.2536 41.6102 25.6019 41.9067L25.583 41.8824C24.6669 40.4825 25.5783 39.2916 26.0977 38.1347C26.6361 36.9196 27.3491 35.7821 27.9488 34.5913L27.9346 34.601Z" fill="#E1CBA6"/>
<path d="M35.032 36.9827C35.6978 36.2391 36.5714 36.6522 37.3552 36.5404C36.7036 37.3716 35.8111 36.8612 35.032 36.9827Z" fill="#F9F6EC"/>
<path d="M42.6156 14.6865C41.4021 16.067 41.0479 18.1425 39.2724 19.0709C39.2677 18.7307 39.263 18.3904 39.2582 18.0501C40.1082 16.8155 40.9299 15.5614 41.8176 14.356C42.3276 13.6658 42.5212 14.1324 42.6156 14.6865Z" fill="#EAD7B4"/>
<path d="M26.0316 20.986C25.9466 21.7686 26.6219 21.9922 27.0185 22.42C27.0138 24.3788 25.5075 25.9051 25.55 27.8786C25.5452 28.2188 25.4791 28.5494 25.3564 28.8653C24.3506 30.5811 23.5809 32.3991 23.2031 34.3822C23.0945 34.7176 22.9292 35.0093 22.5987 35.16C22.49 35.1308 22.3814 35.1016 22.2728 35.0725C22.2492 34.5524 22.3578 33.9837 21.8148 33.6385C22.8773 29.3028 24.072 25.0107 26.0316 20.986Z" fill="#EBD7B5"/>
<path d="M19.0476 31.2276C18.9957 30.4159 19.3499 29.784 19.8787 29.225C20.0157 29.0695 20.1857 28.982 20.3887 28.9625C20.5918 28.9965 20.7523 29.0986 20.8751 29.2687C20.9506 29.9736 20.7004 30.5909 20.3887 31.1936C19.8079 31.4998 20.011 32.156 19.7323 32.749C19.4821 32.19 19.2649 31.7088 19.0476 31.2276Z" fill="#E5C89B"/>
<path d="M18.9249 44.7453C18.8163 45.9022 19.3735 47.1466 18.5093 48.2062C18.5849 47.0445 18.1693 45.8196 18.9249 44.7453Z" fill="#F9F0DD"/>
<path d="M18.5046 35.6023C18.6557 34.46 18.0749 33.2205 18.9438 32.1755C18.8304 33.3226 19.2885 34.5475 18.5046 35.6023Z" fill="#F9F4E5"/>
<path d="M22.7214 36.0349C22.5845 36.2196 22.4476 36.4043 22.3106 36.5939C21.6212 36.1078 21.6542 35.6023 22.2728 35.0773L22.2681 35.0919C22.5751 35.3252 23.052 35.4711 22.7214 36.0349Z" fill="#D1B27C"/>
<path d="M22.6884 22.5074C23.0189 22.3276 23.3495 22.1429 23.6847 21.963C23.4959 24.1601 22.0745 25.8565 21.4181 27.864C21.0404 27.7862 20.8043 27.5335 20.6437 27.1883C20.7193 25.351 21.1773 23.6837 22.6884 22.5074Z" fill="#E9D1A1"/>
<path d="M20.7948 27.1883C21.0026 27.4119 21.2056 27.6355 21.4134 27.8591C21.234 28.3258 21.0545 28.7973 20.8798 29.2639C20.7145 29.2542 20.5445 29.2444 20.3793 29.2347C20.0723 28.9139 20.0157 28.5202 20.0534 28.0973C20.129 27.7862 20.2848 27.5286 20.5257 27.3196C20.6107 27.2758 20.7051 27.2321 20.7948 27.1883Z" fill="#DEBA77"/>
<path d="M25.1628 27.6841C25.0494 25.6572 26.0363 24.0386 27.0185 22.4248C27.3113 22.4491 27.5994 22.4686 27.8921 22.4929C28.0669 22.6435 28.2368 22.7894 28.4116 22.9401C28.5154 25.4045 26.9713 27.6598 25.1628 27.6841Z" fill="#FBF8EF"/>
<path d="M22.6884 22.5074C22.0556 24.0677 21.4276 25.6329 20.7948 27.1932L20.8562 27.2953C20.4737 27.4994 20.1998 27.2904 19.9401 27.0328C19.3121 26.2745 18.8399 25.4579 19.0665 24.4031C19.3499 23.4456 19.8173 22.6776 20.8704 22.4929C21.4795 22.4929 22.084 22.4977 22.6884 22.5074Z" fill="#FAF2DC"/>
<path d="M20.8704 22.488C20.2518 23.013 19.7276 23.6108 19.4112 24.3788C18.9815 24.4906 18.7643 24.3837 18.9249 23.883C18.9296 23.5671 18.939 23.2463 18.9438 22.9303C18.9768 22.3082 19.2885 21.9679 19.8976 21.9242C20.2234 22.1089 20.5493 22.2984 20.8704 22.488Z" fill="#E8CD97"/>
<path d="M22.9953 20.9374C23.0142 21.3652 22.6884 21.4429 22.4098 21.4332C22.1642 21.4235 21.9187 21.2534 21.6778 21.1562C21.8809 20.9715 22.0556 20.7187 22.2917 20.6118C22.5703 20.4902 22.8584 20.5972 22.9953 20.9374Z" fill="#FCEE7F"/>
<path d="M17.5602 28.7535C17.5177 28.0681 17.6074 27.4217 18.0654 26.8773C18.769 26.5953 18.8588 27.2515 19.1421 27.6161C19.2176 27.8105 19.2507 28.0098 19.2507 28.2188C19.2082 28.423 19.1043 28.5931 18.939 28.7195C18.6368 28.9188 18.3299 29.1181 18.0277 29.3173C17.8766 29.1278 17.716 28.9431 17.5602 28.7535Z" fill="#EAC977"/>
<path d="M18.9438 28.7195C18.9532 28.5542 18.9626 28.3938 18.9721 28.2285C19.3971 27.9029 19.7748 27.3779 20.4029 27.8494C20.3934 28.3112 20.3887 28.7729 20.3793 29.2396C20.214 29.2347 20.0487 29.2347 19.8834 29.2299C19.7135 28.7729 19.3121 28.7729 18.9438 28.7195Z" fill="#F7E19B"/>
<path d="M19.0051 27.8494C18.6935 27.5237 18.3771 27.1981 18.0654 26.8724C17.9993 25.769 18.2921 24.7726 18.9249 23.8782C19.0854 24.0434 19.2507 24.2087 19.4112 24.374C19.194 25.4093 20.0109 26.0558 20.3132 26.8918C19.8882 27.2272 19.7701 28.0098 19.0051 27.8494Z" fill="#F1DDAA"/>
<path d="M30.3193 23.4407C30.7585 23.4699 31.2023 23.5039 31.6415 23.5331C32.4726 24.3351 32.1279 25.1031 31.514 25.7787C30.8954 26.469 30.2579 27.1446 29.611 27.8105C28.1188 29.1667 27.0705 31.0721 25.0117 31.7186C24.8653 31.5241 24.7755 31.3054 24.733 31.0672C25.5736 28.5591 27.2594 26.537 28.473 24.2427C28.8979 23.4504 29.7763 23.8782 30.3193 23.4407Z" fill="#FBF7EB"/>
<path d="M30.3193 23.4407C29.2757 24.0191 28.4729 24.8212 27.911 25.9197C27.0044 27.6939 26.0175 29.4194 25.0636 31.1644C24.9219 31.4318 24.7897 31.7477 24.4261 31.6845C23.9256 31.597 23.8972 31.2082 24.0436 30.8193C24.3175 30.1048 24.6528 29.4146 25.0967 28.7827C25.1203 28.4133 25.1392 28.0438 25.1628 27.6744C27.1035 26.712 27.538 24.6608 28.4116 22.9255C29.0443 23.1053 29.6818 23.2754 30.3193 23.4407Z" fill="#EDDABB"/>
<path d="M35.0131 21.9922C34.6447 22.7991 33.2564 23.6011 35.0178 24.4031C34.3047 25.0156 33.6578 25.7398 32.652 25.8468C32.5009 25.7058 32.4254 25.5357 32.4301 25.3267C32.4867 24.8406 32.4867 24.3594 32.3404 23.8879C32.1184 23.4359 32.5198 22.9158 32.1845 22.4831C31.4243 21.9922 32.0287 21.4964 32.1845 21.0055C32.3404 21.0006 32.5009 20.9958 32.6567 20.9909C32.8314 21.6228 32.7087 22.731 33.8561 21.7054C34.2906 21.3166 34.7156 21.5159 35.0131 21.9922Z" fill="#F7E9C6"/>
<path d="M32.6709 25.3801C32.6615 25.5357 32.6567 25.6912 32.6567 25.8468C31.7029 26.6488 30.749 27.4508 29.7999 28.2528C29.3796 28.3403 29.1577 28.2237 29.304 27.7327C29.5496 26.012 32.194 25.7155 31.6462 23.5282C31.8256 23.1782 32.0098 22.8283 32.1892 22.4783C32.7937 22.7651 32.6378 23.3484 32.6992 23.849C32.6426 24.3594 32.652 24.8698 32.6709 25.3801Z" fill="#ECCD8F"/>
<path d="M27.4671 45.2849C27.0658 45.246 26.5794 45.2314 26.9808 44.6287C27.1224 44.4148 27.6513 44.1912 27.6749 44.2253C27.9771 44.6336 27.5191 44.9252 27.4577 45.2946L27.4671 45.2849Z" fill="#E1CBA9"/>
<path d="M27.9441 34.5913C27.7599 37.2306 25.5453 39.1749 25.583 41.8872C25.0919 42.2615 24.6008 42.6309 23.7792 43.2531C24.5442 39.7825 25.6066 36.8758 27.9441 34.5913Z" fill="#F2E5CA"/>
<path d="M36.4391 26.8724C35.5183 27.7133 36.0094 29.7888 34.0734 29.7402C33.8042 29.6868 33.6437 29.5215 33.5917 29.2444C33.6673 28.4667 35.0508 28.3549 34.5361 27.2758C35.1122 26.8384 35.5939 25.9391 36.4391 26.8724Z" fill="#F1E4CC"/>
<path d="M33.5964 29.2444C33.757 29.4097 33.9175 29.575 34.0781 29.7402C33.4453 31.0283 32.8078 32.3213 32.1751 33.6094C31.462 32.3456 32.6898 31.3783 32.6567 30.2214C32.9684 29.8958 33.2801 29.5701 33.5964 29.2444Z" fill="#F9F2DF"/>
<path d="M35.0367 30.7124C36.5619 29.6916 36.5619 27.1397 38.7482 26.7849C39.9571 26.8675 39.7021 28.1022 40.1979 28.7486C38.4177 29.2396 37.1569 31.1693 35.0367 30.7124Z" fill="#FCFBF5"/>
<path d="M29.2993 27.7376C29.4646 27.9126 29.6299 28.0827 29.7951 28.2577C28.4068 30.0659 26.3622 31.2033 25.0967 33.1379C24.6669 33.1428 24.2939 33.031 24.0483 32.6275C24.0389 31.8741 24.615 31.8838 25.1014 31.7817C26.4991 30.4305 27.9016 29.084 29.2993 27.7376Z" fill="#E9D3AB"/>
<path d="M24.1758 32.6664C24.5583 32.6713 24.9078 32.7393 25.0967 33.1379C24.3033 34.1052 23.51 35.0725 22.7167 36.0349C22.5656 35.7189 22.4145 35.4079 22.2634 35.0919C22.4239 34.9364 22.5798 34.776 22.7403 34.6204C23.1795 33.9399 23.0425 32.8074 24.1758 32.6664Z" fill="#E0C595"/>
<path d="M24.1758 32.6664C23.6989 33.3177 23.222 33.9691 22.745 34.6204C22.9198 32.4185 23.4722 30.377 25.0967 28.7973C24.8558 29.4486 24.5819 30.0902 24.3883 30.7561C24.1003 31.7186 24.6858 31.3054 25.0683 31.1742C25.0825 31.3734 25.0966 31.5776 25.1061 31.7769C24.7944 32.0734 24.4828 32.3699 24.1758 32.6664Z" fill="#F7ECD4"/>
<path d="M19.0051 27.8494C19.4301 27.5092 19.4915 26.6488 20.3132 26.8918C20.4926 27.0231 20.672 27.1543 20.8515 27.2856C20.7004 27.4703 20.5493 27.655 20.3982 27.8445C19.9212 27.9709 19.4443 28.0973 18.9721 28.2237C18.9815 28.1022 18.9957 27.9758 19.0051 27.8494Z" fill="#EAB341"/>
<path d="M32.6709 25.3801C32.0287 24.8601 32.0476 24.3497 32.6945 23.849C33.1903 24.3691 33.3226 24.8844 32.6709 25.3801Z" fill="#E8C16D"/>
</svg>
