<svg width="43" height="31" viewBox="0 0 43 31" fill="none" xmlns="http://www.w3.org/2000/svg">
<path d="M41.9806 18.335C41.407 19.6031 41.9402 21.1475 40.9547 22.3157C40.813 22.4222 40.6713 22.4189 40.5295 22.3157C40.3709 22.0728 40.3102 21.8165 40.4047 21.5336C40.1178 21.5702 40.1178 21.8631 39.966 22.0228C38.1268 23.9999 35.6261 24.8486 33.2301 25.8604C32.7239 26.0734 32.1536 26.14 31.6305 26.343C29.4471 26.9355 27.2334 27.2184 24.9656 27.1252C21.4897 26.9821 18.0003 27.265 14.5345 26.7491C10.3229 26.1233 6.23281 25.2313 3.04375 22.1327C3.4757 24.0098 4.11014 24.9185 5.61862 26.0435C8.44659 28.1536 11.7234 28.9857 15.1521 29.5282C17.6054 29.9143 20.0892 29.6347 22.5291 30.0574C22.7012 30.144 22.8193 30.2771 22.88 30.4569C22.907 30.6499 22.853 30.8163 22.7214 30.9561C18.2331 31.036 13.7684 30.8529 9.49611 29.3152C5.32164 27.8108 2.10221 25.3911 1.45765 20.6715C1.24505 19.9925 1.18093 19.3135 1.50152 18.6446C2.88176 18.7078 2.7704 20.3121 3.76592 20.768C6.25305 22.8383 8.98991 24.3959 12.3038 24.7521C18.331 25.7905 24.3683 25.7472 30.4123 24.9751C31.8668 24.7853 33.2268 24.2661 34.58 23.7369C34.9377 23.5539 35.3022 23.3841 35.6734 23.2277C38.093 22.146 39.7027 20.2122 41.1809 18.1386C41.8558 17.8324 41.8558 17.8324 41.9806 18.335Z" fill="#C9CDD3"/>
<path d="M41.9806 18.335C41.7579 17.9523 41.5251 18.2784 41.2956 18.3217C40.9075 17.8524 41.1505 17.3665 41.2888 16.9005C42.0718 14.3011 41.8389 11.7549 40.8805 9.24863C39.8951 6.32634 37.8028 4.44915 35.0187 3.24096C32.4202 2.10932 29.6395 1.76317 26.852 1.47694C25.8227 1.43034 24.7901 1.54018 23.7709 1.35379C22.087 1.00764 20.3997 1.03427 18.7157 1.33382C15.8439 1.73322 12.9248 1.86968 10.1305 2.73838C9.39487 2.8116 8.68619 3.08453 7.93364 3.03793C7.64679 3.00132 7.38694 2.90813 7.20133 2.67514C9.76946 1.35379 12.5772 0.781312 15.3883 0.441821C20.7979 -0.217192 26.2243 -0.230505 31.5698 1.03427C35.4878 1.95955 38.8726 3.70027 41.2551 7.11183C43.1652 9.8444 43.6545 15.6424 41.9806 18.335Z" fill="#D7D8DB"/>
<path d="M7.20133 2.67514C7.43081 2.67514 7.65691 2.67847 7.88639 2.67847C7.96401 3.7036 7.02585 3.84339 6.43529 4.25611C4.10677 5.88034 2.12584 7.76751 1.46103 10.6266C1.05944 12.3573 1.15393 14.1147 1.39691 15.8621C1.53864 16.4878 1.67026 17.1135 1.84574 17.7293C1.90986 18.0421 2.00097 18.3583 1.79174 18.6579C1.1978 19.2503 1.59264 20.0025 1.45765 20.6715C0.431753 17.5728 -0.371417 14.3943 0.178653 11.1491C0.759096 7.71759 2.86489 5.1714 5.86497 3.36078C6.29017 3.1045 6.75588 2.90147 7.20133 2.67514Z" fill="#D5D6DA"/>
<path d="M22.7316 30.6299C22.7316 30.5267 22.7316 30.4236 22.7316 30.3204C23.9093 29.4883 25.33 29.718 26.6293 29.5815C28.482 29.3851 30.3009 29.1122 32.0996 28.6595C35.5114 27.7709 38.309 26.0834 39.8884 22.8116C40.0233 22.5287 40.1752 22.1959 40.6173 22.3124C40.732 22.3124 40.8434 22.3124 40.9581 22.3124C39.7466 27.1518 35.7814 28.7261 31.5597 29.9276C30.2368 30.3037 28.8329 30.4136 27.4662 30.6466C25.8869 30.8796 24.3075 30.9062 22.7316 30.6299Z" fill="#CACED4"/>
<path d="M22.7316 30.6299C24.3075 30.6333 25.8869 30.6399 27.4628 30.6432C25.9206 31.2956 24.3008 30.8296 22.7214 30.9494C22.7282 30.8463 22.7316 30.7398 22.7316 30.6299Z" fill="#E4E5E8"/>
<path d="M32.5113 28.9558C29.3425 30.0508 26.0286 30.1407 22.7282 30.3171C18.2399 30.3836 13.7617 30.2405 9.50961 28.6362C5.85147 27.2583 2.66578 25.3345 2.18658 20.6582C5.7941 24.6922 10.3971 25.8105 15.3242 26.3497C19.3468 26.789 23.3626 26.6359 27.3785 26.606C28.8667 26.596 30.3482 26.1932 31.833 25.9669C32.7678 25.6074 33.1019 26.323 33.4664 26.8988C33.8477 27.5046 33.3685 27.904 33.0007 28.3034C32.8117 28.5064 32.6598 28.7294 32.5113 28.9558Z" fill="#E4E5E8"/>
<path d="M41.2888 9.00233C42.5746 12.1077 42.5408 15.213 41.299 18.3217C40.1617 20.7447 38.1707 22.319 35.8961 23.6104C35.3798 22.9681 36.1695 22.4056 36.0109 21.7832C36.0682 21.0942 36.6858 20.8246 37.0806 20.3919C39.2573 17.9389 38.8118 16.0551 35.6397 14.3244C34.6981 13.7053 33.4731 13.7752 32.5485 13.1128C32.2785 12.5903 32.7509 12.4572 33.031 12.2275C33.9422 11.4886 35.1267 11.1957 36.0109 10.3869C36.6048 9.8444 37.1515 10.317 37.6138 10.753C38.2078 11.3089 38.6465 11.7316 39.1831 10.57C39.5374 9.80446 40.5295 9.46164 41.2888 9.00233Z" fill="#F2F1F1"/>
<path d="M36.1526 21.9463C36.6824 22.5953 35.7611 23.0247 35.8927 23.6104C35.5587 23.7336 35.2246 23.8567 34.8905 23.9799C33.4967 24.2894 32.0524 24.4525 30.8341 25.2946C29.8757 25.9236 28.7351 25.7173 27.7193 25.7772C22.4278 26.0901 17.1161 26.3963 11.9022 24.995C12.1486 24.6322 12.5468 24.5324 12.9281 24.4026C14.0452 24.0997 15.1048 24.7487 16.2218 24.5624C15.314 23.6604 15.341 23.0147 16.7584 22.6918C17.6493 22.4888 18.2365 21.7732 18.9351 21.254C19.7045 21.4071 20.1263 22.1127 20.8249 22.379C23.2512 23.7835 25.9004 24.0365 28.6338 23.8434C30.8476 23.6304 32.9804 23.1511 34.9175 22.0095C35.3224 21.8631 35.724 21.6534 36.1526 21.9463Z" fill="#F1F1F1"/>
<path d="M32.5113 28.9558C32.4236 28.7028 32.211 28.4132 32.4843 28.2002C34.1109 26.9221 32.7712 26.5061 31.833 25.9669C33.8814 25.4244 35.67 24.2961 37.5835 23.4507C38.9468 22.8483 39.7264 21.5635 40.8096 20.5717C41.0762 21.2074 40.4384 21.7199 40.6139 22.3091C39.0751 25.9037 36.2707 27.9972 32.5113 28.9558Z" fill="#DFE2E5"/>
<path d="M12.945 24.6422C12.6953 25.045 12.2768 24.9518 11.9056 24.9917C8.54445 24.7953 5.91221 23.1112 3.5027 20.9777C3.02012 20.0291 2.28107 19.1871 2.24732 18.0521C2.31819 17.7992 2.45993 17.6094 2.74003 17.5595C3.88741 18.1386 4.19451 19.4367 5.08542 20.2388C6.44203 22.5387 8.75031 23.3009 11.1632 23.8967C11.7538 24.1397 12.4624 24.1297 12.945 24.6422Z" fill="#FAF9F9"/>
<path d="M30.8341 25.2946C31.8297 23.7868 33.3786 23.9399 34.8905 23.9799C33.6182 24.6589 32.265 25.0949 30.8341 25.2946Z" fill="#F2F1F1"/>
<path d="M2.48693 17.9855C2.58817 19.0606 3.60394 19.8361 3.49933 20.9811C2.5038 20.5118 2.30469 19.4733 1.79512 18.6612C1.69388 18.4349 1.59264 18.2052 1.4914 17.9789C1.72425 17.7925 1.56564 17.2433 2.06847 17.3265C2.40931 17.3831 2.30807 17.7858 2.48693 17.9855Z" fill="#EDEEF0"/>
<path d="M41.2888 9.00233C40.6544 9.24863 41.2922 11.0193 39.7635 10.2272C39.5678 10.124 39.4665 10.4269 39.4496 10.6732C39.345 12.3207 38.5891 12.324 37.6037 11.2989C36.9085 10.5766 36.5542 10.1173 35.6228 11.2356C34.9276 12.0711 33.5777 12.3739 32.5181 12.9131C32.3932 13.0496 32.238 13.1195 32.0558 13.1295C30.6789 13.1428 29.2919 12.9564 27.9218 13.2593C27.4021 13.3791 26.8824 13.4157 26.3593 13.3026C26.1906 13.2659 26.0286 13.206 25.8734 13.1295C25.3132 12.5603 23.5516 12.8199 24.4931 11.209C24.6011 11.1125 24.7935 11.1125 24.8542 10.9394C24.7564 10.9228 24.6585 10.8862 24.5539 10.8229C23.9296 10.1273 24.4054 9.78116 25.0972 9.34848C24.6281 9.36845 24.321 9.56815 23.9903 9.63804C23.5617 9.73124 23.2344 10.0974 22.7687 10.0807C22.4211 9.90098 22.3266 9.54818 22.1612 9.2453C21.2264 8.78266 19.8833 8.92578 19.5796 7.54118C19.4143 6.94541 19.7618 6.64919 20.241 6.42619C20.7607 6.18988 21.2399 6.57929 21.79 6.55932C21.5504 5.8637 21.3344 5.21467 20.8215 4.72207C19.9137 5.6174 19.2354 6.57596 19.7382 7.92394C19.3164 8.47645 18.7663 8.39324 18.2027 8.22682C17.9294 7.42802 16.9946 7.82409 16.5424 7.33816C16.2792 6.71575 16.4142 6.26643 17.1026 6.07006C16.9777 5.80712 16.5998 5.87035 16.4952 5.59743C16.2556 5.06489 16.5424 4.70543 16.9305 4.3726C16.1847 4.35596 16.4074 5.34448 15.7662 5.41437C15.3208 5.28124 15.1352 4.74537 14.629 4.71209C13.9169 4.43584 13.1407 4.46246 12.4219 4.22948C12.2633 4.16957 12.1014 4.11299 11.963 4.01979C11.504 3.70693 10.8561 3.37077 10.9776 2.80162C11.1159 2.13928 11.8685 2.10932 12.4827 2.0128C16.8394 1.3205 21.2096 0.834566 25.6371 1.17073C26.1197 1.20734 26.6462 1.3205 27.1085 1.02428C29.9263 1.35046 32.7341 1.75652 35.3528 2.90813C38.1605 4.14294 40.2494 6.08004 41.2888 9.00233Z" fill="#EDEEF0"/>
<path d="M1.12693 15.9985C-0.0744467 10.7431 1.53189 6.82226 6.59389 3.65368C7.05285 3.36411 7.65354 3.2576 7.88639 2.67847C8.56133 2.56863 9.23626 2.4588 9.91119 2.34896C10.7042 2.91478 9.66147 3.56048 9.99218 4.1496C9.97531 4.20285 9.96856 4.26609 9.93481 4.3027C7.99101 6.1932 8.12599 6.98868 10.5591 7.90397C10.0394 8.49309 10.4005 9.65469 9.26663 9.85771C6.66139 9.83774 6.05057 10.57 6.69851 12.9431C6.14169 13.9516 6.7525 14.6106 7.3397 15.3595C7.7784 15.9186 8.28798 16.4345 8.64907 17.0536C8.38584 17.8424 7.70753 17.8424 7.0461 17.8824C5.55787 17.7226 4.00215 17.8158 3.02012 16.2848C2.60166 15.6291 1.66688 16.7807 1.12693 15.9985Z" fill="#EDEEF0"/>
<path d="M9.19914 9.74122C9.94831 9.41837 9.73233 8.31003 10.5895 8.07705C10.603 7.74421 10.5895 7.41804 10.3263 7.16175C10.0496 5.82709 9.49611 7.34814 9.12152 7.04859C8.19686 6.0634 8.61195 5.32118 9.60747 4.75869C9.94831 4.56564 10.3836 4.54234 9.96519 4.03644C9.10127 3.50057 10.3971 2.89814 9.91119 2.34896C12.7628 1.46362 15.7055 1.16407 18.6718 1.00764C20.3659 0.754686 22.06 0.754686 23.7507 1.00764C24.8711 1.0143 25.9881 1.01762 27.1085 1.02428C26.8621 1.13079 26.6124 1.33715 26.3694 1.32716C22.9003 1.18404 19.4548 1.58677 16.0058 1.82974C14.4197 1.94291 12.8505 2.29904 10.9607 2.59193C11.6626 3.18771 12.1351 3.59044 12.6109 3.9965C12.5806 4.12963 12.5367 4.25611 12.4793 4.37926C12.2903 4.8419 12.3342 5.32451 12.3443 5.80379C12.4692 6.12997 11.8887 7.09519 13.0361 6.48277C13.4411 6.26643 13.8427 6.66583 14.2173 6.8622C13.9068 5.90697 14.5615 5.1947 14.845 4.39257C15.6616 4.31602 15.638 4.91512 15.7055 5.43767C16.2286 5.98352 15.935 6.76901 16.2893 7.36811C16.7044 7.92727 17.5042 7.44466 17.9328 7.96056C18.5301 7.92395 19.1949 8.25678 19.6842 7.64104L19.6707 7.65435C20.3693 8.43984 21.2906 8.67282 22.2962 8.69612C22.3367 8.69612 22.4076 8.7527 22.4042 8.77267C22.384 8.86587 22.3435 8.95573 22.3097 9.0456C21.6989 9.57813 20.7607 9.74788 20.4806 10.6465C20.0622 10.9061 19.5729 10.8895 19.1139 11.0093C18.5267 11.006 17.926 11.0226 17.8417 10.2272C17.8518 9.72791 18.52 9.85106 18.5976 9.43834C16.7449 8.48644 14.9462 8.38326 13.2015 9.65136C12.7594 9.85439 12.6885 10.337 12.4186 10.6665C11.774 11.4553 11.0687 11.5252 10.2959 10.7431C10.3668 11.5518 10.225 12.3506 10.5288 13.1128C10.6266 13.3358 10.6941 13.5622 10.7042 13.8051C10.6772 13.9716 10.5929 14.1047 10.4613 14.2112C9.23626 14.8569 8.03488 15.3462 7.12709 13.7519C7.33632 13.3092 7.82902 13.3259 8.17324 13.1195C8.17661 12.6202 7.59955 12.983 7.48481 12.6702C8.08887 11.8381 7.45443 11.2523 7.06297 10.6232C7.43419 9.52821 8.63557 10.3803 9.19914 9.74122Z" fill="#F1F1F5"/>
<path d="M23.7541 1.00764C22.06 1.00764 20.3659 1.00764 18.6752 1.00764C20.3659 0.478433 22.06 0.478433 23.7541 1.00764Z" fill="#EDEEF0"/>
<path d="M7.21146 13.662C8.21373 14.9867 9.43536 14.1247 10.5828 13.9915C12.7324 16.2814 13.5086 16.2581 15.3444 13.8417C14.4467 13.9782 14.4467 13.9782 13.9844 13.226C14.602 12.6668 15.7392 13.2193 16.1543 12.2342C16.3264 11.6517 16.0902 10.8895 16.9001 10.59C17.5616 10.9661 17.2815 11.7349 17.6122 12.2441C18.088 12.76 18.6853 12.527 19.2489 12.5004C19.6809 12.5237 20.1094 12.4838 20.538 12.4438C21.0645 12.5204 21.601 12.5637 22.0465 12.8998C21.5234 13.459 22.3198 13.8983 22.195 14.4242C21.7529 15.4527 20.4435 15.6291 19.9778 16.6309C19.2118 17.6327 18.8237 18.7777 18.6988 20.0158C18.6145 20.2721 18.5267 20.6615 18.2432 20.6083C17.4198 20.4552 17.7775 19.6564 17.5244 19.1338C17.1364 19.6131 17.1465 20.4052 16.3636 20.5217C15.7831 20.6083 15.4321 20.3154 15.1993 19.8294C15.1453 19.6863 15.1183 19.5332 15.1149 19.3801C15.0238 17.7359 14.224 19.6264 13.9 19.1471C12.5232 19.1005 11.1497 18.8509 9.77283 19.1172C9.55348 19.1904 9.78633 19.4467 9.70534 19.2403C9.69859 19.2237 9.74921 19.2237 9.8302 19.1871C10.252 18.9874 10.6772 18.9441 11.1159 19.1172C11.7234 19.7296 10.9607 20.5351 11.4095 21.1674C11.8145 21.8065 12.3207 21.1575 12.7628 21.2673C13.1475 21.2407 13.539 21.2307 13.8967 21.3904C14.359 21.5968 14.5244 21.9496 13.9608 22.1659C12.7493 22.6219 12.098 23.8168 10.927 24.3061C8.97978 23.5905 6.79975 23.3076 5.46338 21.437C5.21028 21.0809 4.83907 20.808 4.84582 20.3187C4.38686 19.2703 3.67818 18.4116 2.82439 17.656C2.71303 17.7659 2.59829 17.8757 2.48693 17.9889C2.15958 17.5595 1.82549 17.4896 1.4914 17.9822C1.34291 17.3265 1.02907 16.7041 1.13031 16.0052C2.41943 15.4959 3.58369 15.2663 4.17088 17.0003C4.19788 17.0836 5.14954 17.8857 5.88859 17.3299C6.29355 17.0236 6.60739 17.3432 6.87399 17.6427C6.793 17.7925 6.67489 17.9023 6.52303 17.9789C6.60402 18.1253 6.70863 18.0022 6.78963 17.9889C8.10575 17.7725 9.21939 16.8905 10.819 16.9038C9.90782 16.7341 9.27 17.3698 8.5647 16.9937C6.88749 16.2382 5.93921 14.4675 6.42854 13.003C6.63776 12.9531 6.80312 13.0429 6.95498 13.1694C7.09335 13.3026 7.19459 13.4623 7.21146 13.662Z" fill="#F0F0F1"/>
<path d="M36.1526 21.9463C35.832 22.0494 35.5114 22.1493 35.1908 22.2525C34.6745 22.1992 34.2763 22.542 33.8106 22.6652C33.4461 22.7617 33.0513 22.998 32.8049 22.552C32.5215 22.0428 32.9332 21.7832 33.2909 21.5302C33.841 21.2307 34.5868 21.1774 34.7757 20.4086C35.6835 19.653 36.5441 18.8376 37.5295 18.1753C38.2213 18.1686 38.5824 18.3583 38.2516 19.1438C37.9985 19.7496 37.4181 20.149 37.2696 20.8046C37.0773 21.3538 36.1695 21.224 36.1526 21.9463Z" fill="#E8B474"/>
<path d="M37.273 20.8013C37.1447 20.129 37.651 19.6996 37.9715 19.247C38.444 18.5846 37.8197 18.5214 37.5396 18.2518C37.354 18.0754 37.3067 17.8524 37.3034 17.6128C37.6577 16.1549 36.4293 15.4627 35.7578 14.4974C35.7375 14.3377 35.7814 14.1945 35.886 14.0714C39.3045 15.7289 39.8074 18.1619 37.273 20.8013Z" fill="#DAA76F"/>
<path d="M35.886 14.0681C35.886 14.1613 35.886 14.2545 35.886 14.3477C34.8601 14.9567 34.0164 14.1746 33.0918 14.0015C32.7948 13.8883 32.5113 13.7452 32.2616 13.5455C32.1435 13.4357 32.0794 13.3026 32.0693 13.1428C32.1064 13.0762 32.1435 13.0097 32.184 12.9398C32.2954 12.9431 32.4067 12.9331 32.5181 12.9098C33.6418 13.2892 34.9208 13.236 35.886 14.0681Z" fill="#D8A067"/>
<path d="M10.9236 24.3027C11.7031 23.2077 12.5873 22.2358 14.2375 21.7266C13.4985 21.6867 13.0496 21.6634 12.6008 21.6401C12.5164 21.1874 12.8674 21.0143 13.1745 21.001C14.1734 20.9544 14.737 20.2954 15.3208 19.6464C16.0058 20.2954 16.7044 20.9544 16.8495 19.3036C16.9001 18.7178 17.3186 18.4848 18.0171 18.0687C18.0171 18.8542 17.845 19.5465 18.0644 20.0824C18.2837 20.6116 18.2804 19.9692 18.3985 19.876C19.0937 20.0491 19.1072 20.5916 19.097 21.1408C19.043 21.1941 18.9857 21.2473 18.9283 21.3006C18.4525 22.775 17.2308 23.1744 15.8337 23.2643C15.9012 24.113 16.7415 24.2628 17.0115 24.8652C15.6043 25.2779 14.2881 24.6422 12.9383 24.6389C12.233 24.7554 11.5952 24.4226 10.9236 24.3027Z" fill="#ECECEE"/>
<path d="M33.5271 21.6434C33.3348 21.883 33.139 22.1227 32.9264 22.3889C33.7836 22.7617 34.4248 21.7366 35.1908 22.2525C33.2234 23.4107 31.1412 24.1829 28.8093 24.1496C28.6035 23.9599 28.6507 23.7436 28.7317 23.5306C28.7587 23.4973 28.7823 23.4307 28.8262 23.4141C28.9882 23.3508 28.9882 23.211 28.8734 23.2343C28.2188 23.3708 27.5674 23.2743 27.0478 23.2876C26.6867 23.2776 26.8554 23.5638 26.8216 23.3442C26.8183 23.3175 26.8756 23.2843 26.9769 23.3142C27.5067 23.4707 28.3436 22.9414 28.4786 23.9699C26.8621 24.2195 25.2558 24.376 23.7203 23.6138C23.5853 22.9914 24.0342 22.6253 24.3548 22.2026C24.6619 21.9895 25.0128 21.9196 25.3773 21.8897C25.6405 21.8631 25.9037 21.8597 26.167 21.8631C28.1344 22.0361 30.0343 21.3838 31.9883 21.3904C32.4776 21.2839 32.9602 21.1009 33.4731 21.224C33.5744 21.3039 33.6182 21.3904 33.6014 21.487C33.5811 21.5935 33.5575 21.6434 33.5271 21.6434Z" fill="#E2A964"/>
<path d="M24.4256 22.3357C24.429 22.8216 24.4121 23.2909 23.7372 23.3042C22.4582 23.7868 21.5403 22.6719 20.3963 22.572C19.7618 22.3124 19.394 21.7566 18.9317 21.3039L19.0835 21.3072C19.3434 19.906 20.295 21.001 20.8924 20.818C21.8238 21.1575 22.7349 21.5435 23.7136 21.7466C24.0105 21.8697 24.2839 22.0295 24.4256 22.3357Z" fill="#E7B57B"/>
<path d="M20.3963 22.572C21.6078 22.3856 22.5864 23.2277 23.7372 23.3042C25.2558 24.2362 26.8419 24.2362 28.4685 23.6404C28.5798 23.5605 28.6878 23.5638 28.8026 23.6371C28.806 23.8068 28.8093 23.9799 28.8093 24.1496C25.816 24.6156 22.9813 24.2395 20.3963 22.572Z" fill="#D4A267"/>
<path d="M2.82439 17.6527C3.75917 17.8025 5.19341 19.6963 4.84582 20.3154C3.81654 19.6897 3.38796 18.6246 2.82439 17.6527Z" fill="#EDEEF0"/>
<path d="M22.1005 14.3443C21.9183 13.8351 21.493 13.6054 20.8755 13.5023C21.3614 13.3225 21.7124 13.1927 22.0634 13.0662C22.303 12.3107 22.8294 11.5352 21.6753 10.9894C21.2467 10.7863 21.0408 10.3204 21.4222 9.87436C21.8778 9.34182 22.3063 9.60809 22.7046 9.98752C23.0859 9.80779 23.2378 9.25861 23.7811 9.34182C24.1759 9.67465 24.159 10.1606 24.0848 10.5567C23.7743 12.1576 24.6079 12.78 26.0455 12.9497L26.0961 12.9897C26.1771 13.642 25.627 13.5988 25.2457 13.7486C24.159 13.7286 23.2782 14.8036 22.1005 14.3443Z" fill="#F6F5F3"/>
<path d="M23.3592 4.22282C23.9836 3.56381 24.2535 4.22615 24.4695 4.58228C25.0128 5.47428 25.4077 5.31452 25.8464 4.51572C26.0286 4.18288 26.2682 3.76351 26.7204 3.88C27.1895 4.00315 27.1659 4.48909 27.1152 4.86187C26.9971 5.74055 27.4763 6.65917 27.0444 7.64769C26.1501 7.06523 26.717 6.19653 26.275 5.5475C25.6338 6.00016 24.9993 7.20502 24.2771 5.664C23.6022 6.19653 23.9869 6.81893 23.7946 7.30487C23.7035 7.53453 23.555 7.67432 23.2985 7.56115C23.0285 7.44133 23.1331 7.19171 23.1298 6.98535C23.4335 6.0867 23.0589 5.1248 23.3592 4.22282Z" fill="#588CB7"/>
<path d="M12.4051 4.03976C12.4827 4.06972 12.5502 4.05641 12.6109 3.99982C13.377 4.00648 14.1565 3.9499 14.8416 4.3959C14.8888 4.66549 15.0744 5.05491 14.9597 5.18804C14.2038 6.05009 14.3927 6.88883 15.179 7.87735C14.1262 7.78748 13.9372 6.91213 13.3534 6.74238C12.3207 6.44283 13.026 7.77417 12.2127 7.89732C11.6593 7.2849 12.152 6.46946 11.9697 5.77716C12.3477 5.25461 11.7673 4.49908 12.4051 4.03976Z" fill="#5284AD"/>
<path d="M22.7046 9.98752C22.2928 10.0241 21.7529 9.57148 21.493 10.104C21.2501 10.6033 21.8541 10.6931 22.1545 10.8695C23.5347 11.675 23.1163 12.3806 22.06 13.0696C21.4526 13.0696 20.8451 13.0696 20.3254 12.6835C20.214 12.5503 20.1567 12.2774 20.2444 12.2508C21.5437 11.8714 20.8586 11.2456 20.4705 10.6532C20.214 9.14545 21.2804 9.11549 22.3131 9.04893C22.6067 9.29189 22.8564 9.55816 22.7046 9.98752Z" fill="#648EB6"/>
<path d="M26.0488 12.9497C23.6225 12.9697 23.6225 12.9697 23.7844 9.34182C24.6011 9.01231 25.4178 8.77933 26.2345 9.25528C26.1467 10.2671 24.1354 9.02563 24.7564 10.6798C24.9555 10.8862 24.9588 11.0892 24.753 11.2922C24.3143 11.8048 24.348 12.2109 25.0904 12.2708C25.5933 12.314 25.924 12.4538 26.0488 12.9497Z" fill="#5C8BB8"/>
<path d="M15.9991 7.64436C15.368 6.97869 15.9012 6.15992 15.6987 5.43767C16.2151 3.80678 16.4715 3.69362 18.3141 4.31602C18.0576 5.11149 16.3906 4.15293 16.6707 5.58412C16.9946 6.13995 17.7033 5.57746 18.0543 6.05009C17.5852 6.43285 16.2927 5.95689 16.7314 7.2849C16.5863 7.60109 16.3028 7.64436 15.9991 7.64436Z" fill="#6392BF"/>
<path d="M21.0375 4.05308C21.7529 5.12148 22.3333 6.23647 22.4548 7.88068C21.6415 7.21501 21.2197 6.4861 20.3524 6.62589C19.8327 6.40289 19.6977 6.07671 20.0723 5.61407C20.3929 5.49425 20.5988 5.29122 20.538 4.91512C20.5616 4.54567 20.7675 4.28273 21.0375 4.05308Z" fill="#5689B4"/>
<path d="M20.3625 5.67398C19.853 5.98685 20.2478 6.30637 20.3524 6.62589C19.8833 6.81228 19.7213 7.19836 19.6674 7.65435L19.6775 7.64436C19.4784 7.61441 19.1274 7.63438 19.1004 7.55117C18.8372 6.71575 20.1297 4.42918 21.0375 4.05641C20.9261 4.37925 20.8181 4.70211 20.7068 5.02495C20.6933 5.29122 20.6224 5.53086 20.3625 5.67398Z" fill="#4A7DAB"/>
<path d="M27.7126 12.9231C29.2042 12.5038 30.6958 12.5071 32.184 12.9431L32.1671 13.0762C31.3909 13.6487 30.4224 13.2859 29.5922 13.5888C29.2345 13.6653 28.8802 13.6653 28.5225 13.5721C28.1715 13.4523 27.861 13.2859 27.7126 12.9231Z" fill="#E2BA87"/>
<path d="M27.7126 12.9231C27.9589 13.0429 28.2086 13.1628 28.455 13.2826C27.7598 14.108 26.8149 14.088 25.8565 14.0414C25.5022 13.9349 25.0871 13.8883 25.1208 13.3691C25.4448 13.236 25.8632 13.3392 26.0995 12.9897C26.636 12.9664 27.1726 12.9464 27.7126 12.9231Z" fill="#DCA461"/>
<path d="M15.9991 7.64436C16.2421 7.52454 16.485 7.40472 16.7314 7.2849C17.052 7.27492 17.3692 7.27824 17.6864 7.25495C17.9395 7.23831 18.2669 7.10184 18.2972 7.4846C18.3107 7.63105 18.0576 7.8008 17.926 7.96056C17.295 7.79747 16.5762 8.13696 15.9991 7.64436Z" fill="#3A78A7"/>
<path d="M23.3592 4.22282C23.3187 5.1481 23.6765 6.10667 23.1264 6.98868C23.0758 6.05674 22.9205 5.11482 23.3592 4.22282Z" fill="#6793BC"/>
<path d="M24.753 11.2922C24.753 11.0859 24.753 10.8828 24.7564 10.6765C25.1782 10.6765 25.6304 10.4668 26.0084 10.8795C25.7688 11.5652 25.1917 11.2357 24.753 11.2922Z" fill="#6292BB"/>
<path d="M18.0543 6.05009C17.5953 5.887 16.9777 6.18655 16.6707 5.58412C17.1026 5.82709 17.8484 5.15809 18.0543 6.05009Z" fill="#3F76A2"/>
<path d="M6.88074 13.3758C6.72888 13.2493 6.57702 13.1228 6.42179 12.9997C5.73335 11.9479 5.80085 10.9694 6.64114 10.0108C7.42406 9.11882 8.2981 9.3751 9.19914 9.74122C9.19239 10.3303 9.00341 10.6033 8.3251 10.3936C7.95726 10.2804 7.48143 10.1606 7.17434 10.6166C7.09335 11.3288 7.38694 11.9679 7.55905 12.6336C7.7649 12.6003 8.00113 12.6169 8.17324 12.5171C8.49383 12.334 8.93254 12.2475 9.08102 12.4904C9.34762 12.9264 8.8313 13.1128 8.55795 13.3492C8.00113 13.5755 7.44094 13.5355 6.88074 13.3758Z" fill="#5587B2"/>
<path d="M10.6637 7.05525C11.9124 7.4846 10.738 7.74421 10.5895 8.07705C9.5501 8.09702 8.48033 8.07039 8.20361 6.80562C7.88639 5.36777 8.68956 4.53236 9.96519 4.03644C10.4444 4.11632 11.0012 4.04309 11.2611 4.78199C10.3465 5.24795 7.92014 4.58228 9.29025 6.97537C9.73908 7.11516 10.2014 7.09852 10.6637 7.05525Z" fill="#4B7FA9"/>
<path d="M8.55795 16.987C9.47249 17.0336 10.4883 15.5425 11.504 17.3565C9.07765 16.9105 7.24521 18.5647 5.09217 18.6612C5.0483 18.5147 5.00443 18.365 4.96056 18.2185C5.59837 18.0255 6.23281 17.8324 6.87062 17.6361C7.47468 17.5196 8.0855 17.4264 8.55795 16.987Z" fill="#CFD2D7"/>
<path d="M13.9844 13.256C14.3759 13.9716 15.1183 13.4656 15.638 13.7419C15.2398 15.0999 14.467 16.4279 12.9214 16.145C12.0406 15.9852 10.4748 15.6224 10.5828 13.9915C11.1902 13.6154 10.7616 12.6269 11.5614 12.3806C11.6964 12.3373 11.7605 12.4006 11.7031 12.3473C11.6188 12.2708 11.5479 12.2907 11.5479 12.2907C10.738 11.8847 11.5209 14.0348 10.3398 13.0196C10.0597 11.7416 10.6064 11.2223 11.882 11.3655C12.2532 11.3921 12.3747 11.7682 12.6514 11.9046C12.4861 11.0426 12.4962 10.2072 12.8303 9.3984C14.0452 8.28341 15.6481 7.94724 17.0182 8.4465C17.8855 8.76269 18.9216 8.74272 19.6809 9.36845C19.1308 9.98419 18.1488 9.29522 17.6392 10.0308C17.4772 10.2804 17.3017 10.5201 17.0317 10.6665C16.3467 11.2456 16.8056 12.0478 16.6167 12.7267C15.9417 12.6835 14.9394 13.429 14.6661 12.6036C14.386 11.7615 14.3793 10.6865 14.71 9.73124C13.9203 10.7863 14.4906 12.1376 13.9844 13.256Z" fill="#EDEEF0"/>
<path d="M12.1925 11.675C10.8021 11.3954 10.4815 12.1742 10.5355 13.3159C10.4748 13.469 10.3836 13.4923 10.2554 13.3858C9.39487 12.2974 10.0361 11.1025 10.0226 9.95424C10.0226 9.86104 10.2419 9.70461 10.3701 9.6913C10.4748 9.68131 10.6806 9.83774 10.6907 9.93759C10.7414 10.4668 10.5895 11.0925 11.5142 10.976C12.314 10.8729 12.1655 10.2405 12.3308 9.75121C12.3848 9.59477 12.6582 9.51489 12.8303 9.3984C12.9619 10.6965 13.2589 12.0045 12.5907 13.256C12.1992 12.7933 12.756 12.0944 12.1925 11.675Z" fill="#5287B1"/>
<path d="M20.4705 10.6499C20.5144 10.6798 20.5718 10.7031 20.6055 10.7431C21.0307 11.2822 22.2861 11.1425 22.1275 11.9579C21.9453 12.8832 20.997 11.9812 20.4503 12.2375C20.3592 12.2808 20.3659 12.5304 20.3254 12.6835C20.0284 12.8566 19.7348 12.9364 19.4446 12.6668C19.1983 12.6602 18.9519 12.6602 18.7056 12.6469C18.007 12.5803 17.6628 12.2342 17.7944 11.5186C18.007 10.9993 18.5132 11.0559 18.9351 10.9527C19.0633 10.8895 19.1747 10.8063 19.2759 10.7031C19.664 10.4535 20.0656 10.4868 20.4705 10.6499Z" fill="#EDEEF0"/>
<path d="M19.0059 12.3972C19.2388 12.344 19.3535 12.4871 19.448 12.6602C18.7528 13.2693 18.0408 13.3292 17.3118 12.7201C17.0655 11.7782 17.1229 10.8362 17.2983 9.89433C17.8754 8.75603 18.8709 9.45166 19.6876 9.36179C19.4514 10.3769 18.5638 9.74122 18.0273 9.99751C17.6729 10.307 17.9631 10.6698 17.9496 11.006C17.9159 11.1491 17.8822 11.2922 17.845 11.4354C17.7337 12.344 18.0779 12.7168 19.0059 12.3972Z" fill="#5184AC"/>
<path d="M7.55905 12.6302C6.47916 12.1343 6.60064 11.4154 7.17434 10.6132C8.13274 11.1325 8.52758 11.7549 7.55905 12.6302Z" fill="#E4E6EB"/>
<path d="M10.2554 13.3858C10.3431 13.3425 10.4343 13.3192 10.5355 13.3159C10.8122 13.1727 10.9101 12.9298 10.9337 12.6402C10.9573 12.344 11.0687 12.081 11.4062 12.0644C11.7403 12.0478 11.9259 12.2808 11.909 12.5903C11.8381 13.8085 11.4905 12.2641 11.3589 12.6402C11.1868 13.1428 11.2577 13.7718 10.5861 13.9948C10.4748 13.7885 10.3668 13.5888 10.2554 13.3858Z" fill="#F0F0F1"/>
<path d="M10.6637 7.05525C10.1778 7.50457 9.71546 7.51789 9.29025 6.97537C9.77958 6.80229 9.297 6.02346 9.83695 5.99018C10.5254 5.94358 10.3128 6.74571 10.6637 7.05525Z" fill="#E1E4E9"/>
<path d="M17.6763 11.0193C17.6797 10.6432 17.5987 10.2371 18.0239 10.0008C17.9733 11.0526 18.7798 10.6132 19.2793 10.7031C19.3231 10.7996 19.3434 10.8995 19.34 11.0027C18.7866 11.2456 18.2331 11.2323 17.6763 11.0193Z" fill="#5C8EBC"/>
<path d="M12.4051 4.03976C12.26 4.6189 12.1149 5.19803 11.9697 5.77716C12.0406 5.18139 11.5985 4.45914 12.4051 4.03976Z" fill="#EDEEF0"/>
<path d="M6.88074 13.3758C7.43756 13.3658 7.99776 13.3591 8.55458 13.3492C8.19349 13.8118 7.67379 13.6154 7.21146 13.662C7.10009 13.5688 6.99211 13.4723 6.88074 13.3758Z" fill="#EDEEF0"/>
<path d="M11.2611 21.3139C10.3533 20.6515 10.9303 19.9925 11.2644 19.3335C12.0946 18.7078 13.0463 18.9774 13.9608 18.984C14.1295 18.8542 14.3084 18.7377 14.4636 18.5913C14.7707 18.3017 14.8551 17.463 15.4558 17.9256C15.854 18.2318 15.7797 18.9075 15.2803 19.3302C14.3455 20.7847 12.8843 21.2107 11.2611 21.3139Z" fill="#FBFAFA"/>
<path d="M13.9844 13.256C13.6166 12.5171 13.7921 11.7482 13.8494 10.986C13.9777 9.22866 14.5007 8.9524 16.2758 9.72791C15.9721 10.4235 14.7403 9.61807 14.7471 10.5167C14.7538 11.2789 15.7527 10.6266 16.1003 11.1158C16.0733 11.1924 16.0598 11.3055 15.9957 11.3754C15.6414 11.7882 14.5817 11.3621 14.6897 12.0877C14.8618 13.2227 16.1037 12.0544 16.6133 12.7201C15.8742 13.5389 14.8821 13.1661 13.9844 13.256Z" fill="#457FB1"/>
<path d="M20.6933 21.0376C20.2647 21.7632 19.4379 20.1689 19.0835 21.3072C18.8541 20.8313 18.628 20.3553 18.3985 19.8794C18.385 18.5347 18.7494 17.3265 19.718 16.3347C20.0183 16.2515 20.1364 16.4279 20.2073 16.6675C19.9272 17.9389 19.3738 19.227 20.4908 20.3953C20.6224 20.5916 20.7068 20.798 20.6933 21.0376Z" fill="#D79D5E"/>
<path d="M11.2611 21.3139C12.6177 20.6848 14.0755 20.2555 15.2837 19.3335C15.2938 19.44 15.3073 19.5432 15.3174 19.6497C15.3073 20.7514 14.7741 21.3339 13.6301 21.3205C13.2521 21.3172 12.864 21.2906 12.5974 21.6401C11.2341 21.9829 11.2341 21.9829 11.2611 21.3139Z" fill="#CED2D9"/>
<path d="M20.0588 16.6908C19.9441 16.571 19.8293 16.4512 19.718 16.3347C20.2377 15.3528 21.3344 15.0433 22.1005 14.3443C23.1331 14.098 24.0274 13.4324 25.1208 13.3658C25.3638 13.4856 25.6101 13.6021 25.8531 13.7186C25.8396 13.8318 25.8194 13.9849 25.735 14.0148C23.744 14.7038 21.9621 15.8221 20.0588 16.6908Z" fill="#E0B07E"/>
<path d="M13.9642 18.9874C13.0969 19.3535 12.1621 19.2004 11.2678 19.3368C10.2588 19.0639 9.64122 19.8561 8.84817 20.3154C8.98991 18.578 11.3522 18.0188 13.9642 18.9874Z" fill="#D2D5D9"/>
<path d="M17.295 9.89765C17.2983 10.8396 17.3051 11.7815 17.3085 12.7234C16.7854 12.0944 17.2106 11.3388 17.0317 10.6632C17.1195 10.4069 17.2072 10.1539 17.295 9.89765Z" fill="#5C8EBC"/>
<path d="M20.0588 16.6908C21.6247 15.01 23.7305 14.3543 25.8497 13.7219C26.717 13.5755 27.5843 13.429 28.4516 13.2826C28.8093 13.2793 29.1704 13.2759 29.5281 13.2726C30.4123 13.1195 31.2931 13.0796 32.1739 13.2992C32.4135 13.4157 32.6531 13.5289 32.8927 13.6454C32.1502 14.4175 31.3133 13.7852 30.5135 13.8118C30.9894 13.8284 31.3572 14.0048 31.6137 14.4242C31.7082 14.5773 31.725 14.9301 32.0018 14.8269C34.175 14.0115 34.0671 15.8787 34.6171 16.9704C35.9096 16.0152 36.6082 16.1782 37.5531 17.646C37.5497 17.8491 37.543 18.0488 37.5396 18.2518C37.0368 19.4733 35.8084 19.9027 34.8601 20.6349C34.7454 20.7381 34.6138 20.7714 34.4653 20.7348C34.0367 20.4984 33.625 20.2222 33.1525 20.0691C32.9298 19.8927 32.7746 19.6564 32.5822 19.45C32.1637 18.9807 31.4787 18.7577 31.2897 18.0787C31.2593 17.9389 31.2492 17.7958 31.2458 17.656C31.2087 16.6209 30.1626 16.6875 29.6159 16.2115C28.2964 15.3928 26.9465 15.5192 25.5865 16.0817C24.5842 15.7822 24.7631 16.2914 25.0432 16.8672C25.2389 18.092 26.0421 18.7644 27.1456 19.1971C27.6653 19.4001 28.185 19.6098 28.7317 19.6963C30.1659 19.9193 31.2998 20.6249 32.2414 21.6767C30.2166 22.0295 28.1918 22.3756 26.1197 22.2691C26.2682 21.4237 26.8621 21.9563 27.3616 21.8131C26.0252 22.0628 26.2581 21.1075 26.2682 20.3354C24.429 21.5469 23.1466 21.5469 21.6517 20.4252C21.8744 20.1323 22.195 20.1456 22.5156 20.1556C22.2186 20.1323 21.9216 20.099 21.6922 20.3553C21.3209 20.7614 20.8249 20.6149 20.3693 20.6515C18.8642 19.44 19.1207 18.092 20.0588 16.6908Z" fill="#FDF6E9"/>
<path d="M34.5496 20.6649C34.6542 20.6582 34.7589 20.6482 34.8601 20.6349C34.8027 21.4637 34.688 21.5469 33.5271 21.6434C33.5271 21.5602 33.5271 21.477 33.5271 21.3938C33.625 20.818 34.0367 20.6715 34.5496 20.6649Z" fill="#DBA565"/>
<path d="M37.5565 17.646C37.2325 17.0203 36.3247 17.3864 35.9636 16.6708C35.7746 16.2981 35.4102 16.5543 35.3866 16.997C35.3596 17.5129 35.0018 17.919 34.5665 17.8224C34.0536 17.7093 33.8038 17.1867 34.0569 16.6409C34.3033 16.1117 33.6081 15.9353 33.6688 15.4527C33.6857 15.3095 33.2301 15.1498 33.0951 14.9334C32.3898 13.8085 32.1739 16.6875 31.5428 15.1298C31.2053 14.311 30.7464 13.885 29.869 13.6454C30.878 13.6454 31.8836 13.6454 32.8927 13.6454C33.8916 13.8784 34.8871 14.1147 35.886 14.351C36.7702 15.2862 38.2888 15.912 37.5565 17.646Z" fill="#FDF8EE"/>
<path d="M32.1739 13.2992C31.2931 13.2892 30.4123 13.2826 29.5281 13.2726C30.3684 12.6935 31.283 13.0995 32.1637 13.0796C32.1739 13.1528 32.1772 13.226 32.1739 13.2992Z" fill="#D1944C"/>
<path d="M34.5496 20.6649C34.2088 20.9078 33.868 21.1508 33.5271 21.3938C33.0951 21.487 32.6666 21.5802 32.238 21.6767C30.4022 20.2721 28.0095 20.1922 26.0252 19.1305C24.9622 18.5613 24.726 17.6993 24.753 16.6475C24.672 16.1183 24.8711 15.872 25.4347 15.9919C26.4876 14.8769 28.1141 14.8802 29.8251 16.0018C29.0489 16.6276 28.0163 16.3813 27.1692 16.7607C26.6023 17.0137 25.7654 17.0869 26.2277 18.0654C27.3717 18.7544 28.5495 18.6312 29.761 18.2851C30.3279 18.122 30.8611 17.7026 31.5091 17.9855C31.9579 18.4282 32.4101 18.8709 32.8589 19.3135C32.8286 19.6031 32.9905 19.7995 33.1896 19.9792C33.9658 19.5765 34.2425 20.149 34.5496 20.6649Z" fill="#FEFBF5"/>
<path d="M21.7225 20.3121C23.0521 20.3686 24.5809 22.0395 25.6439 19.8294C25.762 19.5831 26.1602 19.653 26.3897 19.8394C26.6259 20.0291 27.0849 20.2355 26.7879 20.5916C25.9105 21.6467 27.0747 21.5103 27.5067 21.8131C27.0849 22.1526 26.4538 21.7732 26.1163 22.2691C25.8869 22.2758 25.6574 22.2824 25.4245 22.2924C24.8745 21.9496 24.213 22.3091 23.6528 22.0262C22.5662 21.9929 21.6179 21.5469 20.6899 21.041C20.5819 20.9145 20.4739 20.788 20.3625 20.6582C20.7202 20.1589 21.2534 20.3653 21.7225 20.3121Z" fill="#FEFAF6"/>
<path d="M28.8026 23.6371C28.6912 23.6371 28.5798 23.6404 28.4685 23.6404C27.5371 23.5073 26.5146 23.9566 25.3705 23.0646C27.041 22.6852 28.6001 23.4307 30.0715 22.3124C29.9263 23.3109 29.2413 23.3508 28.8026 23.6371Z" fill="#ECB978"/>
<path d="M23.6562 22.0228C24.2603 22.0328 24.9048 21.7599 25.4279 22.2891C25.0938 22.3057 24.7597 22.319 24.4256 22.3357C24.1692 22.2292 23.9127 22.126 23.6562 22.0228Z" fill="#FDF6E9"/>
<path d="M14.1903 5.16475C14.062 5.57746 13.7111 5.74388 13.3061 5.76718C12.9113 5.79047 12.9079 5.47761 12.9315 5.1947C12.9653 4.76867 13.2589 4.65218 13.6301 4.67881C13.9203 4.69878 14.1801 4.78199 14.1903 5.16475Z" fill="#E5E9EE"/>
<path d="M20.3625 5.67398C20.4773 5.45764 20.592 5.2413 20.7068 5.02495C20.9767 5.23464 21.186 5.50756 20.9531 5.8171C20.7371 6.10334 20.5076 5.94691 20.3625 5.67398Z" fill="#EBEEED"/>
<path d="M12.1925 11.675C12.8607 12.0677 12.5164 12.7134 12.5941 13.256C11.801 12.8932 12.4219 12.1776 12.1925 11.675Z" fill="#2B6C9A"/>
<path d="M19.0059 12.3972C17.6527 13.1262 17.6628 12.2208 17.6729 11.3155C17.8518 11.1691 17.9901 11.199 18.0948 11.4054C17.8079 12.2641 18.2939 12.4339 19.0059 12.3972Z" fill="#5C8EBC"/>
<path d="M18.0914 11.4087C17.9496 11.3788 17.8113 11.3488 17.6696 11.3189C17.6729 11.219 17.6729 11.1192 17.6729 11.0193C18.2264 11.0127 18.7832 11.0093 19.3366 11.0027C19.1207 11.7216 18.4997 11.249 18.0914 11.4087Z" fill="#266498"/>
<path d="M25.7485 18.345C24.9858 17.3698 25.5764 16.8306 26.4471 16.5211C27.527 16.1383 28.6473 15.872 29.8183 15.9952C30.419 16.5144 31.9781 16.0884 31.5124 17.6627C31.202 17.7958 30.8746 17.7825 30.5439 17.7659C29.2413 17.7159 27.9353 17.6427 26.7238 18.2651C26.3998 18.2984 26.086 18.4648 25.7485 18.345Z" fill="#EDDAC1"/>
<path d="M30.8038 17.3332C31.04 17.443 31.2762 17.5529 31.5124 17.6627C31.5057 17.7692 31.5023 17.8757 31.5023 17.9822C29.6395 18.9474 27.7531 19.5432 25.7485 18.345C25.9881 18.2285 26.2243 18.112 26.4639 17.9922C27.9218 17.8457 29.4404 18.0787 30.8038 17.3332Z" fill="#F0E4D3"/>
<path d="M25.4313 15.9885C25.2052 16.2082 24.9791 16.4245 24.753 16.6442C24.2738 16.5843 23.9296 16.3746 24.3953 15.9486C24.6247 15.7389 25.1377 14.9767 25.4313 15.9885Z" fill="#FBE6CA"/>
<path d="M21.7225 20.3121C22.1072 19.8694 22.5662 19.9126 23.1196 20.1157C22.6506 20.4785 22.1612 20.2422 21.7225 20.3121Z" fill="#F8E8D4"/>
<path d="M33.1863 19.9759C32.9298 19.9426 32.5147 19.9892 32.4472 19.8594C32.2987 19.5798 32.6328 19.44 32.8555 19.3102C33.1323 19.4533 33.1896 19.6996 33.1863 19.9759Z" fill="#F4E3C8"/>
<path d="M30.8038 17.3332C29.545 18.761 28.0264 18.5081 26.4639 17.9922C27.7969 17.0303 29.3256 17.3398 30.8038 17.3332Z" fill="#FDFBF9"/>
</svg>
