<svg width="54" height="46" viewBox="0 0 54 46" fill="none" xmlns="http://www.w3.org/2000/svg">
<path d="M0.747952 23.6766C-1.0998 17.176 0.524233 11.543 5.08562 6.64606C5.88521 6.27189 6.69308 5.92652 7.45538 5.46601C7.91939 5.18642 8.61541 4.91916 8.97999 5.392C9.49371 6.0622 8.7977 6.45692 8.24669 6.89687C9.00484 6.62961 9.69672 6.45692 10.3513 6.93387C10.7449 7.48484 9.68014 7.81788 10.2146 8.44696C10.4507 7.42727 11.184 6.84342 11.9712 6.30068C13.0691 5.54413 13.6864 6.22256 14.2747 7.02433C14.4404 7.06545 14.6061 7.11067 14.776 7.14357C15.7081 7.62874 16.5989 6.32946 17.5393 7.07778C17.705 8.71011 16.1307 8.58265 15.3311 9.24051C14.747 9.47899 14.2747 9.86137 13.8935 10.363C13.7485 10.474 13.6118 10.5891 13.4834 10.7166C13.0359 11.3991 12.5512 12.0364 11.6563 12.1557C12.7294 12.0981 13.0981 11.1195 13.7817 10.5521C14.7304 9.98472 15.7496 9.56122 16.7646 9.14183C18.169 8.56209 19.1923 8.82935 19.5776 10.437C19.3166 11.5472 18.0779 11.6335 17.4937 12.4065C17.3736 12.6244 17.3032 12.8423 17.4275 13.0808C17.6263 13.3316 17.9536 13.5125 17.908 13.899C17.473 14.6062 16.6983 14.302 16.0976 14.5034C15.9691 14.5446 15.8573 14.6227 15.762 14.7131C15.9401 14.8365 16.1183 14.6227 16.3006 14.7172C17.0256 14.9557 17.3902 15.445 17.3612 16.2057C17.0173 16.7402 16.7729 17.287 17.1747 17.9079C16.9013 19.8363 15.7413 19.7417 14.3492 19.1249C14.2208 19.0756 14.0302 19.0304 13.9971 18.9276C13.1768 16.4647 11.7433 17.1925 10.2436 18.1998C10.0737 18.315 9.86243 18.352 9.65943 18.3807C9.46471 18.3766 9.28242 18.3273 9.11256 18.2286C8.81841 17.2829 9.43157 16.7525 10.0779 16.2879C10.7656 15.7945 11.1675 15.1613 11.2876 14.3595C10.4507 14.3924 10.7532 15.1695 10.4714 15.5519C10.0033 16.0001 8.80598 15.6013 9.02556 16.8923C9.13742 17.542 8.70655 18.0559 7.94839 18.0477C7.34767 18.0395 6.90851 17.8832 7.04937 17.0856C7.10323 16.7895 6.46522 16.917 6.3575 16.5675C6.21664 16.4236 6.07992 16.2591 5.8562 16.4647C5.58277 16.8676 5.33834 17.3528 4.81218 17.3652C2.85671 17.4186 2.16484 18.463 1.96184 20.3132C1.82926 21.4645 1.67183 22.7473 0.747952 23.6766Z" fill="#C5974F"/>
<path d="M10.3637 7.05311C9.34871 6.99555 8.35026 6.98321 7.70396 8.23316C7.23166 6.78174 8.70655 6.54326 8.81013 5.63459C7.32281 5.10007 6.73865 7.81377 5.08562 6.65017C8.64855 2.6084 13.2389 0.754046 18.5502 0.429225C18.8651 0.264758 19.2048 0.26887 19.5445 0.281205C19.8055 0.29354 20.0914 0.252423 20.4228 0.758158C18.7822 1.94643 16.8516 2.31237 14.9624 2.76465C14.3617 2.33704 13.7361 2.22602 13.0774 2.64541C12.5263 2.94967 12.1618 3.48008 11.6729 3.83368C11.6853 3.82957 11.6812 4.00637 11.6812 4.00637C11.6812 4.00637 11.735 3.83779 11.7433 3.82546C12.2115 3.40607 12.6051 2.925 13.1644 2.63719C13.5869 2.49328 13.9888 2.17257 14.4611 2.5015C15.4098 3.09358 16.2674 2.49739 17.1209 2.25069C18.9438 1.7244 20.6714 0.749934 22.6476 0.967852C23.24 1.03364 23.0867 0.0262821 23.7289 0.396332C24.893 0.359327 25.9619 0.667701 26.9521 1.268C27.1758 2.26303 25.9909 1.79018 25.8086 2.35759C25.7009 2.60841 25.5269 2.86333 25.8542 3.09358C26.0489 3.2416 26.1774 3.42251 26.1649 3.67744C25.8998 4.17906 26.1194 4.87804 25.5269 5.24809C25.0836 5.43723 24.6403 5.44956 24.2012 5.23165C23.8117 4.98495 23.2939 5.07129 22.7304 4.60667C23.2152 5.10418 23.7372 4.98495 24.0437 5.30154C24.1597 5.4619 24.2053 5.6387 24.1846 5.83195C23.6709 6.62961 23.3974 7.60818 22.4487 8.06869C22.2416 8.07691 21.9391 8.07691 21.8853 7.92889C21.5041 6.93798 21.3633 7.7891 21.1437 8.01113C20.0541 8.29894 18.7366 7.72331 17.8749 8.87047C17.0132 8.99381 16.3544 9.67224 15.4678 9.72569C15.1654 9.61468 14.9831 9.40498 14.921 9.08838C15.53 8.1427 17.1789 8.43463 17.4026 7.03255C16.3089 6.25134 15.472 7.21347 14.5274 7.44372C14.3824 7.44783 14.2415 7.44783 14.0965 7.45194C13.4502 5.40433 13.3508 5.37966 11.4616 6.73651C11.1385 6.9791 10.8236 7.27514 10.3637 7.05311Z" fill="#C69A53"/>
<path d="M52.6839 34.2065C50.4136 40.6289 45.7859 44.313 39.1614 45.6698C36.9987 46.1139 34.8278 46.081 32.6528 45.7438C32.6776 45.6082 32.7398 45.4889 32.8351 45.3944C32.4415 45.0449 31.3892 45.4355 31.5756 44.5473C31.7289 43.8278 32.5782 44.1855 33.1955 44.0951C32.2178 43.9553 31.298 43.8525 30.8216 42.8986C30.6725 42.0598 31.1613 41.5541 31.7703 41.11C32.2095 40.9414 32.5575 41.1347 32.8889 41.3855C34.1525 42.2942 35.4617 42.8163 36.9366 41.8213C37.5207 41.4513 38.2168 41.4965 38.8506 41.2991C39.0453 41.258 39.2442 41.2416 39.4431 41.2416C39.5425 41.2498 39.6419 41.258 39.7414 41.2662C39.8408 41.2827 39.9361 41.3032 40.0355 41.3156C41.7383 41.957 43.2794 40.6166 44.9532 40.9168C45.4669 41.2087 45.4628 41.6363 45.0319 42.4545C45.6078 41.6404 45.6326 41.0648 45.8149 40.5426C46.6725 39.4407 48.1018 38.9555 48.8641 37.7508C49.0506 37.5452 49.266 37.3807 49.5229 37.2697C50.3514 36.9778 50.774 36.361 50.9356 35.5305C51.1593 34.8767 51.3458 34.1983 52.1371 33.9845C52.3525 33.9886 52.5306 34.0626 52.6839 34.2065Z" fill="#C79750"/>
<path d="M10.6165 33.0059C8.72727 32.7222 7.21509 31.6984 5.73192 30.6006C5.54134 30.0291 5.93906 29.9222 6.35336 29.8276C7.36838 30.0085 8.18454 30.9501 9.49371 30.654C8.72727 29.7577 7.60039 30.7198 6.97066 29.9427C6.23321 29.215 5.34662 29.7947 4.54289 29.6755C3.75159 29.3383 3.36629 28.627 2.93128 27.9609C2.76142 27.6155 2.99757 27.5045 3.25443 27.4058C3.59416 27.3688 3.95459 27.4182 4.20731 27.118C4.58846 26.6123 3.91731 25.6584 4.93647 25.4322C5.27619 25.3007 6.05507 26.3779 5.95978 25.0951C5.89763 24.2152 5.96392 23.4956 7.03694 23.3353C7.72882 23.508 8.30469 23.804 8.4124 24.5893C7.85311 25.6131 9.48543 25.3459 9.35285 26.1312C9.42742 26.8138 9.07527 27.2208 8.48698 27.484C8.2674 27.5785 8.01054 27.5374 7.79096 27.6484C8.07268 27.8869 8.30883 27.5909 8.56983 27.5826C9.94115 26.3532 11.039 27.3812 12.1866 28.0061C12.6962 28.3063 13.1436 28.6722 13.4419 29.1944C13.6615 29.6878 13.8977 30.1689 14.2125 30.617C14.805 31.464 14.5854 32.2329 13.5538 32.0438C12.5056 31.8547 12.9696 32.5989 12.7211 32.8908C12.0416 33.3102 11.329 33.1704 10.6165 33.0059Z" fill="#C4964C"/>
<path d="M20.9324 39.0295C20.8537 38.9267 20.7791 38.8157 20.7087 38.7047C20.1369 37.6644 19.4202 36.6941 19.2131 35.4894C19.3539 34.9548 20.3109 34.8849 19.7972 33.8899C19.1758 32.677 20.5222 31.6203 20.6382 30.3909C20.6631 30.1319 21.1312 29.9674 21.4958 29.9674C21.8853 30.136 22.167 30.432 22.4363 30.7445C23.1903 31.9245 23.5714 33.2238 23.7247 34.6012C23.7372 35.2344 23.7537 35.8717 23.4554 36.4597C23.2566 36.764 23.008 36.8051 22.7139 36.5913C22.5316 36.213 22.3286 35.8471 22.0468 35.4236C22.196 35.7566 22.3286 35.9951 22.4901 36.2212C22.6103 36.7475 22.9459 37.1587 23.2151 37.6069C23.6584 38.4004 24.7149 38.5608 25.1085 39.4037C25.7258 40.5426 26.6621 41.295 27.8677 41.7596C28.6424 42.0598 29.3633 42.4792 29.9682 43.0507C30.3907 43.4495 31.2525 43.6592 31.0246 44.387C30.8009 45.0983 29.9433 44.7776 29.3799 44.9544C26.6994 44.1115 24.284 42.841 22.399 40.7071C22.9583 39.2433 21.5745 39.4571 20.9324 39.0295Z" fill="#C4984E"/>
<path d="M0.747952 23.6766C0.607092 21.9826 1.73397 20.5394 1.60554 18.759C1.52683 17.6818 3.38287 16.5182 4.04159 16.7854C5.57448 17.4063 5.22233 15.996 5.79406 15.6876C6.13793 15.704 5.81478 17.0444 6.63922 16.1029C7.22338 16.3619 7.69153 16.6333 7.40152 17.4474C7.30209 17.7188 7.77439 17.7311 8.02711 17.7023C8.42069 17.6612 8.55326 17.4392 8.56983 17.0239C8.60298 16.2427 8.73555 15.4615 8.81427 14.7789C9.68843 14.265 9.40257 16.2427 10.3637 15.297C10.5129 14.6227 10.633 13.9237 11.6025 14.0388C12.0996 15.1325 11.4409 15.8027 10.6827 16.3989C10.053 16.8923 9.37771 17.3282 9.12085 18.1423C9.06699 18.5082 8.81013 18.759 8.60712 19.0427C8.23426 19.8363 8.17626 20.8148 7.27309 21.2959C6.79665 21.6248 6.32436 21.9497 5.72777 22.0237C5.52477 22.0072 5.35905 21.9209 5.22233 21.7729C4.86604 21.1602 5.16433 20.4448 4.90747 19.8075C4.71275 19.3264 4.39374 18.9975 3.87173 18.9852C3.27515 18.9728 3.097 19.4498 2.98514 19.9185C2.69928 21.1232 3.20058 22.3115 3.08872 23.5162C3.00171 23.767 2.71999 24.17 2.69928 24.1494C1.74226 23.2037 1.93283 25.0786 1.24511 24.7291C1.07939 24.3797 0.91367 24.026 0.747952 23.6766Z" fill="#C4964C"/>
<path d="M36.4436 9.52011C36.5347 9.58178 36.572 9.66402 36.5513 9.77092C35.6647 11.7198 35.1593 11.7445 32.8931 9.94772C34.1774 10.8687 33.4979 11.6171 32.7522 12.3695C32.3669 12.8012 31.8822 12.7765 31.3768 12.6738C29.2887 11.8473 29.2348 9.77503 28.5678 8.09336C28.4643 7.83022 28.8703 7.71098 29.1354 7.64519C30.399 8.29895 32.0065 7.09834 33.1665 8.36473C34.1525 9.04316 35.4866 8.76356 36.4436 9.52011Z" fill="#C39750"/>
<path d="M29.3799 44.9503C29.6036 44.3171 30.3576 44.646 30.6642 44.3007C29.3177 42.4422 26.7615 42.3599 25.3571 40.6166C25.1126 40.3123 24.3627 40.1725 24.864 39.5188C25.009 39.3872 25.1831 39.3379 25.3778 39.3708C25.9329 39.5311 26.3969 39.8477 26.8402 40.2095C27.9547 41.5541 29.9433 41.5006 31.0785 42.8163C31.9112 43.2398 32.7439 43.6633 33.9744 44.2924C33.0215 44.4158 32.4498 44.4898 31.8822 44.5679C31.8822 44.6501 31.8863 44.7283 31.8863 44.8105C32.4539 44.8516 33.0215 44.8927 34.0158 44.9667C33.3239 45.3656 32.9925 45.5547 32.6569 45.748C31.4472 45.9535 30.4653 45.2422 29.3799 44.9503Z" fill="#BF9148"/>
<path d="M14.5067 2.53028C16.3627 2.03277 18.2809 1.71206 20.2322 0.606026C19.4782 0.527905 19.0183 0.478565 18.5543 0.429225C20.2778 -0.138184 22.0013 -0.138184 23.7289 0.400443C23.1074 0.630696 24.2592 1.7244 23.3312 1.53937C20.2985 0.930848 17.8252 2.6413 15.095 3.25394C14.2995 3.43074 14.2664 3.11414 14.5067 2.53028Z" fill="#CFA666"/>
<path d="M1.24511 24.7291C1.4854 23.8863 2.43827 23.9932 2.93128 23.4833C3.42844 23.3024 3.91316 23.2448 4.38132 23.5697C4.7749 24.17 5.28448 24.7374 4.9779 25.5474C4.12031 26.0695 5.61177 27.118 4.51389 27.5909C4.11202 27.6608 3.68944 26.6287 3.30415 27.6073C3.17986 27.7265 3.05557 27.8417 2.93128 27.9609C2.08198 27.0317 1.36939 26.0325 1.24511 24.7291Z" fill="#C5974F"/>
<path d="M40.7605 12.756C44.1246 13.4591 46.9584 15.112 49.4317 17.4474C50.0366 18.0189 50.6415 18.5575 50.8486 19.3963C50.6995 19.5238 50.5296 19.5855 50.3349 19.5813C48.9387 18.9646 48.0231 17.7599 46.9128 16.7977C46.0096 16.1358 45.0195 15.6259 44.0376 15.0955C42.5461 14.228 40.7315 14.1663 39.2732 13.2124C39.2152 12.9821 39.2815 12.7971 39.4721 12.6532C39.9071 12.5833 40.3421 12.5874 40.7605 12.756Z" fill="#C4AC5F"/>
<path d="M32.7605 11.9994C34.2851 10.4863 31.7455 10.3095 31.7869 9.19529C33.4814 8.84168 34.6663 12.497 36.5513 9.77092C37.1147 10.3671 37.2556 11.136 37.4089 11.8966C37.2805 12.1063 37.1023 12.2544 36.8744 12.3489C35.4783 12.5216 34.0655 12.8876 32.7605 11.9994Z" fill="#C59D5B"/>
<path d="M50.5462 19.4004C50.6456 19.4045 50.745 19.4004 50.8445 19.3963C52.6342 21.3905 53.6451 23.7095 53.8274 26.3779C53.4379 27.3688 53.7404 28.405 53.6409 29.4164C53.5995 29.8564 53.8108 30.4197 53.1148 30.5677C52.3401 29.9756 52.4188 29.0998 52.4851 28.3186C52.7212 25.4076 51.8015 22.8254 50.3597 20.3708C50.2603 20.0131 50.2769 19.68 50.5462 19.4004Z" fill="#BEA457"/>
<path d="M32.3172 4.58611C32.9801 4.73825 33.2867 5.25632 33.5767 5.79083C33.7714 6.41992 33.9164 7.05311 33.7672 7.7192C33.6719 7.896 33.5352 8.01935 33.3447 8.08514C32.1349 7.99879 31.4099 7.24225 30.8009 6.3089C30.7263 6.01286 30.7429 5.72093 30.8547 5.43312C31.1282 4.7917 31.7869 4.79581 32.3172 4.58611Z" fill="#CCA260"/>
<path d="M53.1231 30.4855C53.9641 29.2191 52.8621 27.6238 53.8274 26.3779C54.1505 29.0875 54.1464 31.7519 52.6839 34.2065C52.4851 34.1901 52.2862 34.1777 52.0873 34.1613C51.5985 32.7017 52.1122 31.5257 53.1231 30.4855Z" fill="#B59241"/>
<path d="M36.4436 9.52011C35.3333 9.28574 34.0282 9.82026 33.1458 8.69778C33.1085 8.34006 33.3157 8.09747 33.5559 7.87133H33.5601C34.2602 7.75209 33.2908 6.59672 34.3141 6.67484C35.2421 7.46428 36.0417 8.34417 36.4436 9.52011Z" fill="#C59D5B"/>
<path d="M32.3172 4.58611C31.9029 4.85748 31.4886 5.12885 31.0743 5.40022C30.4612 5.66748 29.8812 5.78672 29.5041 5.03429C29.3426 4.17906 28.9034 3.43074 28.5388 2.65775C28.7957 2.22191 29.1437 2.32059 29.5041 2.48506C30.4404 3.18815 31.3809 3.88713 32.3172 4.58611Z" fill="#C69A53"/>
<path d="M29.5041 2.48917C29.1686 2.5344 28.8206 2.55907 28.63 2.90033C28.5968 2.97845 28.5637 3.05658 28.5347 3.13881C28.1825 3.50064 27.9008 3.99815 27.2545 3.80901C26.9148 3.54175 26.6952 3.16348 26.3886 2.86744C26.1318 2.64952 25.9246 2.38638 25.7092 2.12734C25.7423 1.3009 26.8402 1.98343 26.9521 1.268C27.8014 1.67506 28.6548 2.08211 29.5041 2.48917Z" fill="#CCA260"/>
<path d="M20.9324 39.0295C21.2514 38.8404 21.5497 38.976 21.8811 39.0254C22.5647 39.1364 23.2152 39.231 23.443 40.004C23.8242 41.295 21.9598 39.3091 22.399 40.7029C21.9101 40.1479 21.4213 39.5887 20.9324 39.0295Z" fill="#CCA663"/>
<path d="M40.7605 12.756C40.2882 12.7765 39.8159 12.7971 39.3436 12.8135C38.4405 13.5495 37.4006 13.3604 36.3773 13.2494C36.1577 13.1959 35.963 13.0931 35.7849 12.9575C35.5321 11.5307 36.8952 12.571 37.2266 12.0323C37.2887 11.9871 37.3509 11.9419 37.413 11.8966C38.5233 12.1845 39.6419 12.4682 40.7605 12.756Z" fill="#C3AC60"/>
<path d="M6.62265 30.0825C6.22907 30.0907 5.90178 30.2182 5.73606 30.6047C5.33834 30.2963 4.94061 29.988 4.54289 29.6796C5.37148 28.5777 6.20836 28.7503 7.05352 29.6631C7.0038 29.8934 6.86294 30.0373 6.62265 30.0825Z" fill="#CDA25D"/>
<path d="M14.0924 33.7912C13.5414 33.7789 12.9904 33.7707 12.4352 33.7584C11.8303 33.5075 11.2213 33.2567 10.6123 33.01C11.3788 32.9525 12.1618 32.9771 12.8454 32.5372C13.1022 32.2864 13.3922 32.2864 13.7029 32.4138C14.1131 32.7962 14.3741 33.2156 14.0924 33.7912Z" fill="#C89D54"/>
<path d="M34.3141 6.67484C34.0697 6.84342 34.0365 7.06133 34.136 7.3327C34.2312 7.59996 34.7325 7.79321 34.4094 8.10158C34.3017 8.20438 33.8542 7.95768 33.5601 7.87133C33.4814 7.18057 32.9842 6.4857 33.5725 5.79494C33.9164 6.00875 34.2478 6.23078 34.3141 6.67484Z" fill="#D0AB6D"/>
<path d="M8.29226 24.725C7.87796 24.3139 7.46367 23.9068 7.04937 23.4956C6.91266 23.0516 6.72622 22.6157 6.8008 22.1347C6.88366 21.7359 7.1198 21.448 7.45953 21.2383C7.86553 21.0903 8.55326 21.0862 8.55326 21.3822C8.55326 23.8657 10.6952 23.2859 12.0126 23.8492C12.5015 23.7382 12.8992 23.5162 13.0525 23.0146C12.5512 22.3896 11.271 23.5162 11.213 22.3855C11.1592 21.3411 12.2281 21.0286 13.1312 20.893C14.0717 20.7491 15.0784 20.856 15.733 19.9555C16.4124 19.3675 17.1209 18.7919 16.9883 17.7475C15.9319 17.3405 16.661 16.9293 16.9842 16.5182C17.212 16.2221 17.4026 15.8767 17.8583 15.9055C18.6206 16.0412 18.5709 16.9129 19.1053 17.2583C19.3415 17.4227 19.5611 17.5995 19.7226 17.8421C20.4808 19.6183 19.6771 20.6956 18.0986 21.4357C17.1043 21.4604 16.8433 21.9826 17.1084 22.8707C16.3917 23.7835 15.2483 24.0672 14.3617 24.7291C14.0054 24.9224 13.6615 25.1691 13.2845 25.2883C11.8096 25.7571 11.7268 26.7151 12.2653 27.928C12.2446 28.1254 12.1659 28.2898 12.0292 28.4296C10.9479 28.0719 9.99915 26.6164 8.69827 28.0267C8.39169 27.8458 8.08097 27.669 8.25911 27.2249C8.81013 26.9947 9.10842 26.5876 9.12085 25.9873C9.20785 25.3253 8.01468 25.5062 8.29226 24.725Z" fill="#C09246"/>
<path d="M16.1763 14.8653C15.9153 15.0421 15.588 15.4203 15.4098 15.3628C14.9541 15.2065 15.2524 14.8982 15.3891 14.5857C15.8904 13.418 17.2037 14.4335 17.821 13.6482C17.7962 13.0931 17.3363 13.3398 17.067 13.2412C16.5574 12.9862 16.9427 12.6614 17.0007 12.3654C17.4937 11.5595 18.517 11.8267 19.1509 11.3046C19.6688 11.0044 20.2654 10.8317 20.7087 10.4C20.9448 10.1286 21.1312 9.82437 21.384 9.56534C21.5373 9.44199 21.7071 9.36386 21.9018 9.32686C23.066 9.70102 22.7139 10.4452 22.3741 11.1936C21.6698 12.7395 19.9298 13.1384 18.8775 14.302C18.0696 14.9269 17.1789 15.1613 16.1763 14.8653Z" fill="#C1934B"/>
<path d="M9.531 18.1505C10.3264 17.6489 11.2047 17.2624 11.9919 16.7854C13.4917 15.8767 13.993 16.2673 13.8189 17.838C13.7444 18.4959 14.341 18.5575 14.5025 18.9646C14.5978 19.0715 14.631 19.1784 14.6103 19.2894C14.5854 19.4045 14.5605 19.4621 14.5357 19.4621C13.6367 19.791 12.7418 19.7581 11.851 19.421C11.1467 18.8947 10.2767 19.5896 9.56 19.1249C9.41914 18.9934 9.34042 18.833 9.30728 18.6439C9.31971 18.4506 9.39428 18.2903 9.531 18.1505Z" fill="#C2954B"/>
<path d="M10.3637 7.05311C10.6869 6.8023 11.0473 6.58438 11.3249 6.28834C11.9256 5.64281 12.6134 5.16586 13.5041 5.49068C14.4984 5.85251 13.935 6.78996 14.0965 7.46017C13.9308 7.5424 13.6325 7.72331 13.6118 7.69864C12.6009 6.33357 11.706 6.48159 10.7615 8.20026C10.5999 8.4963 10.4797 8.8129 10.3306 9.15006C9.40257 7.77676 9.40257 7.77676 10.3637 7.05311Z" fill="#BF9045"/>
<path d="M16.1763 14.8653C16.9924 14.5692 17.9163 14.5898 18.6496 14.0347C19.5404 13.5536 20.2198 13.8374 20.7377 14.6227C21.0857 15.1572 20.9987 15.6958 20.5098 16.0741C19.8386 16.5922 19.1592 16.6292 18.5212 15.9343C18.3016 15.6917 18.0282 15.9179 17.8169 16.0823C17.5435 16.2262 17.2659 16.366 16.9924 16.5099C17.1582 15.7493 16.6237 15.3299 16.1763 14.8653Z" fill="#CCA15C"/>
<path d="M15.3311 9.516C16.2509 9.516 16.8143 8.44285 17.821 8.69366C19.9464 8.29894 20.4187 8.78823 19.8262 10.7742C19.7061 10.7701 19.5901 10.7659 19.4699 10.7618C18.8278 9.05138 17.6802 9.16239 16.313 9.84904C15.4844 10.2643 14.6973 10.8523 13.6822 10.7495C13.5621 10.659 13.5248 10.5686 13.5621 10.474C13.6035 10.3836 13.6408 10.3383 13.6822 10.3383V10.3424C14.1711 9.95183 14.5108 9.26519 15.3311 9.516Z" fill="#C1934B"/>
<path d="M7.39738 11.9542C6.9458 11.0867 6.64336 10.6303 6.4735 10.1245C6.41136 9.93127 6.59365 9.49955 6.78008 9.41732C7.43881 9.11717 7.01623 9.82437 7.21095 9.9395C8.32954 10.5891 8.43726 8.94036 9.37771 9.03493C9.40257 10.4411 7.69153 10.5234 7.39738 11.9542Z" fill="#D0A666"/>
<path d="M13.6781 10.3383C13.6781 10.474 13.6781 10.6138 13.6781 10.7495C13.5289 12.4599 12.0126 12.2831 10.9313 12.6861C10.6206 12.8012 10.1897 12.8341 10.14 12.353C10.1027 11.9789 10.4424 11.6006 10.7573 11.724C12.2736 12.316 12.6714 10.7125 13.6781 10.3383Z" fill="#CCA059"/>
<path d="M14.5274 7.45194C15.3518 6.38291 16.1887 5.41256 17.4026 7.04078C16.429 7.09012 15.6543 8.46341 14.5274 7.45194Z" fill="#D2AD75"/>
<path d="M14.4818 19.3758C14.4901 19.2401 14.4984 19.1003 14.5025 18.9646C15.6211 19.1373 16.719 19.2689 16.9924 17.7434C17.6885 18.8906 16.458 19.3881 16.1556 20.1981C15.2856 20.5517 14.5564 20.6175 14.4818 19.3758Z" fill="#D0A969"/>
<path d="M4.93647 15.334C4.2736 14.1745 5.05247 13.3028 5.26376 12.316C5.74435 13.4139 5.33834 14.3801 4.93647 15.334Z" fill="#B7883D"/>
<path d="M19.5031 11.5677C18.8195 12.2996 17.734 11.7856 17.0007 12.3654C17.4275 11.2306 18.5253 11.1113 19.4699 10.7618C19.7351 11.0209 19.7019 11.2922 19.5031 11.5677Z" fill="#D4AF74"/>
<path d="M6.17935 7.74798C5.96806 8.9527 5.42948 9.31864 4.67132 9.7997C4.80804 8.85402 5.07733 8.26194 6.17935 7.74798Z" fill="#CDA564"/>
<path d="M11.6025 14.0388C10.9437 14.2197 10.8567 14.9516 10.3637 15.2929C9.74643 13.9977 10.8277 13.714 11.6273 13.3892C11.8303 13.3069 11.6398 13.8045 11.6025 14.0388Z" fill="#CFA96C"/>
<path d="M17.067 13.2412C17.5435 13.0973 17.8293 12.168 18.3596 12.6409C18.8775 13.1055 18.1483 13.3727 17.821 13.6441C17.5103 13.6235 17.2037 13.5865 17.067 13.2412Z" fill="#D3B383"/>
<path d="M15.3311 9.516C14.7594 9.75036 14.3948 10.3918 13.6781 10.3424C13.7071 9.54889 14.138 9.15006 14.9168 9.09661C15.0577 9.2364 15.1944 9.3762 15.3311 9.516Z" fill="#D1A664"/>
<path d="M9.531 18.1505C9.52686 18.2821 9.52686 18.4136 9.52271 18.5493C9.22028 18.9934 9.34457 19.9062 8.54498 19.7787C7.80339 19.6595 8.06854 19.0427 8.30054 18.5658C8.57398 18.426 8.84741 18.2862 9.1167 18.1423C9.25756 18.1464 9.39428 18.1505 9.531 18.1505Z" fill="#CFAB6F"/>
<path d="M6.63508 16.0988C6.42379 16.2591 6.15035 16.5881 6.01778 16.5428C5.64077 16.403 5.8562 15.9836 5.78992 15.6835C6.45279 15.0667 6.55636 15.556 6.63508 16.0988Z" fill="#B08134"/>
<path d="M29.4047 7.87544C29.2721 7.90834 29.1396 7.93712 29.007 7.97001C29.6326 9.553 29.9019 11.3292 31.4845 12.3818C31.2483 13.0973 30.6559 13.2042 30.0179 13.2329C28.6258 12.5381 26.9148 12.9903 25.5932 12.0282C25.4109 11.798 25.3446 11.5307 25.3446 11.2429C25.4441 10.6138 25.5186 9.98061 25.5352 9.34331C25.9909 8.36884 26.7905 8.61143 27.6688 8.80879C27.6688 8.20438 26.9769 7.84666 27.1551 7.27103C27.1551 7.13946 27.2214 7.04489 27.3581 7.01199C27.0142 6.88864 27.2297 7.21758 27.1302 7.29981C27.1344 7.67808 27.0142 7.94534 26.5875 7.97824C26.1359 7.76032 26.0075 7.3327 25.8791 6.90509C25.5021 6.14443 24.4746 6.47337 24.0355 5.81961C24.0355 5.68393 24.0313 5.54824 24.0313 5.40845C23.9277 5.31799 23.8904 5.22753 23.9277 5.13708C23.965 5.04662 23.9982 5.00139 24.0313 5.00139C24.5865 4.99728 25.1375 4.99317 25.6926 4.99317C27.0929 4.26129 28.137 5.0384 29.1893 5.79905C29.5787 6.45281 30.544 7.05722 29.4047 7.87544Z" fill="#C89E57"/>
<path d="M24.0355 5.81139C24.7729 5.95941 25.7962 5.429 26.0904 6.65017C25.9412 7.15179 25.4151 7.78499 26.5088 7.86722C26.8527 7.69864 26.9231 7.38616 26.9314 7.04489C27.0764 6.9092 27.209 6.9092 27.3374 7.06545C27.7227 7.69042 28.108 8.31128 28.514 8.97326C27.6688 9.81615 26.4052 8.29483 25.6802 9.49133C24.1722 10.0464 25.3819 10.5974 25.6843 11.1442C25.6885 11.4197 25.6885 11.6952 25.6926 11.9707C25.3653 12.7354 24.6942 12.5093 24.1017 12.5134C23.9402 12.4353 23.8076 12.3201 23.6999 12.1804C23.4264 11.4773 22.9127 11.1977 22.167 11.3128C22.0966 11.2593 22.0261 11.21 21.9598 11.1565C22.1836 10.5192 22.9044 9.75858 21.5455 9.51188C21.5165 9.42143 21.4917 9.33508 21.4627 9.24463C21.6118 8.68544 21.9391 8.24549 22.3741 7.86722C22.979 7.2258 23.0287 6.14032 24.0355 5.81139Z" fill="#C5974F"/>
<path d="M19.5031 11.5677C19.4906 11.3005 19.4824 11.0291 19.4699 10.7618C20.2902 8.99793 19.2711 8.67311 17.821 8.68955C18.7366 7.6493 18.7366 7.6493 21.1354 7.86722C21.6243 8.32773 20.9738 9.07605 21.5497 9.51188C21.5455 9.65579 21.5455 9.7997 21.5414 9.9395C21.297 10.1533 20.804 10.2479 21.1312 10.7495C20.5885 11.0209 20.0458 11.2963 19.5031 11.5677Z" fill="#C5974F"/>
<path d="M29.007 6.23489C28.0831 5.34677 26.9024 5.12885 25.6968 4.98906C25.8418 4.582 25.009 3.85424 26.1069 3.76789C26.1939 3.77612 26.2809 3.78434 26.3679 3.78845C26.9935 4.12972 27.6937 4.19139 28.3731 4.33941C28.891 4.49155 29.4461 4.56967 29.8314 5.0055C30.0593 5.70449 30.7802 4.91505 31.0702 5.41256C31.0702 5.69215 31.0743 5.96763 31.0743 6.24723C30.3866 6.88453 29.6947 6.61727 29.007 6.23489Z" fill="#C5974F"/>
<path d="M21.5497 9.516C19.2421 9.50777 21.4627 8.36884 21.1354 7.87133C21.5538 6.60905 21.964 8.01113 22.3783 7.87544C22.5481 8.64432 21.993 9.05138 21.5497 9.516Z" fill="#C1934B"/>
<path d="M24.0355 4.99317C24.0355 5.12885 24.0355 5.26454 24.0355 5.40433C23.2151 5.48246 22.5523 5.0754 21.5663 4.77525C22.6973 3.99404 23.356 4.56144 24.0355 4.99317Z" fill="#C5974F"/>
<path d="M21.0277 6.02108C19.8635 6.76941 19.2379 6.71595 18.488 6.45281C19.0929 5.55235 19.7806 5.84017 21.0277 6.02108Z" fill="#D4AF7A"/>
<path d="M25.7051 2.12734C25.9909 2.25891 26.2768 2.3946 26.5627 2.52617C26.7367 3.29505 25.9785 3.07713 25.6802 3.34028C25.3156 3.3115 24.7605 3.46363 24.6776 3.03191C24.545 2.33292 25.5352 2.63719 25.7051 2.12734Z" fill="#A97E3C"/>
<path d="M25.6843 3.34439C25.9785 3.07302 26.2726 2.80165 26.5668 2.53028C27.0432 2.77287 27.3374 3.13059 27.3332 3.68566C27.0142 4.13794 26.6207 4.03926 26.2105 3.8419L26.1069 3.76378C25.9661 3.62399 25.8252 3.48419 25.6843 3.34439Z" fill="#C5974F"/>
<path d="M11.213 3.77612C11.7599 3.34028 12.3109 2.90445 12.8578 2.46861C13.2555 2.40282 13.3881 2.57551 13.2887 2.94556C12.7418 3.38962 12.1949 3.83368 11.648 4.27774C11.2462 4.32708 11.1095 4.15439 11.213 3.77612Z" fill="#ECDCB9"/>
<path d="M17.1043 5.05073C16.9303 5.19464 16.719 5.47012 16.4414 5.56469C16.1763 5.65515 15.9277 5.40022 15.994 5.12063C16.0769 4.77936 16.4041 4.64368 16.748 4.61901C16.9552 4.60667 17.1292 4.66424 17.1043 5.05073Z" fill="#D1A967"/>
<path d="M11.213 3.77612C11.358 3.9447 11.503 4.10916 11.648 4.27774C11.3498 4.56556 11.0349 5.19875 10.6165 4.71358C10.2187 4.24896 10.8319 3.98581 11.213 3.77612Z" fill="#D8BA86"/>
<path d="M13.2887 2.94556C13.1436 2.78521 13.0028 2.62896 12.8578 2.46861C13.4295 1.96699 13.9805 1.94232 14.5067 2.53028H14.5108C14.1007 2.66597 13.6947 2.80577 13.2887 2.94556Z" fill="#CFA666"/>
<path d="M23.2359 34.5478C23.1199 33.2279 22.5854 32.0397 22.0468 30.8555C21.7195 30.6787 21.7734 30.3745 21.79 30.0825C21.8894 29.4205 21.7941 28.6558 22.6559 28.3721C23.9112 28.3515 24.139 30.1606 25.5062 29.9468C26.0075 29.9756 26.5171 30.1524 26.9935 29.8235C28.1784 29.6919 28.0624 28.4461 28.7087 27.8581C29.413 28.039 30.1049 28.2652 30.7553 28.5941C30.8465 29.1821 30.1339 29.4576 30.2043 30.0373C30.5813 30.8555 31.0412 31.5997 31.8615 32.0479C32.3462 32.3809 32.8061 32.0397 33.2742 31.9903C33.5477 32.0438 33.7217 32.2124 33.8542 32.4426C34.0324 32.8044 34.165 33.2033 34.5503 33.4212C34.8195 33.6103 35.0847 33.7995 35.3954 33.9228C35.731 34.0009 36.108 34.0051 36.2861 34.3833C36.543 35.0864 36.195 35.7237 36.0541 36.4392C36.5596 35.917 36.8206 35.3043 37.1064 34.7081C37.1976 34.5355 37.326 34.3998 37.4835 34.2888C37.732 34.1325 38.0013 34.0338 38.3038 34.0297C38.7222 34.1078 38.9915 34.3628 39.1489 34.7493C38.7139 36.4844 38.9583 38.4374 37.3757 39.8395C38.312 40.1602 39.4348 40.1684 39.3395 41.5047C39.2028 41.5458 39.0619 41.587 38.9252 41.6281C33.1044 42.508 28.4146 40.2836 24.3379 36.3898C23.6129 35.9828 23.5134 35.2139 23.2359 34.5478Z" fill="#C6D352"/>
<path d="M53.1231 30.4855C52.7792 31.7107 52.4354 32.936 52.0915 34.1613C51.7228 34.6259 51.412 35.1193 51.3458 35.7237C50.7989 36.2994 50.5006 37.1299 49.6471 37.4013C49.5229 37.5205 49.3986 37.6398 49.2743 37.759C46.6394 40.3206 43.5529 41.7802 39.7952 41.6281L39.8118 41.4842C39.2484 40.2918 40.2344 40.1314 40.9511 39.7902C41.7631 39.6997 42.5793 39.675 43.3499 39.3173C44.1246 38.9555 44.9905 38.5896 44.7295 37.5863C44.4975 36.6982 44.34 35.5593 42.9687 35.5593C41.9081 35.5099 41.3861 34.9055 41.2287 33.9187C41.237 33.4335 41.3323 32.9525 41.3571 32.4673C41.3903 32.0808 41.4524 31.7025 41.6803 31.3777C42.3928 30.7486 42.9149 32.0356 43.6109 31.5627C43.8139 31.3983 43.9962 31.2215 44.1826 31.0405C44.5182 30.7322 44.8372 30.3868 45.3302 30.3251C45.5291 30.358 45.6782 30.4567 45.7776 30.6335C45.7984 32.492 47.4638 33.0799 48.686 34.2846C48.8103 33.5857 48.6653 32.8538 49.1044 32.4262C49.8916 31.6573 49.44 31.3489 48.7233 31.0611C48.5451 30.3745 49.15 29.8523 49.1251 29.1985C49.2577 28.3556 48.9636 27.9527 48.0438 28.0431C47.3188 28.113 46.5731 28.1459 45.8978 27.7594C45.5829 27.484 45.3716 27.1674 45.5125 26.7274C47.1614 25.1979 48.9014 25.5885 50.8072 26.6575C51.093 24.9471 50.5669 23.5039 50.1484 22.0483C49.8336 21.4439 49.4193 20.9053 49.0423 20.342C48.7813 19.9555 48.4416 19.4457 48.9221 19.0756C49.4524 18.6686 49.7383 19.2894 50.0697 19.5731C50.2769 19.7458 50.3887 20.0131 50.5917 20.194C52.2241 22.0319 53.0609 24.17 53.0692 26.6287C53.0651 27.9157 53.1024 29.1985 53.1231 30.4855Z" fill="#C6D352"/>
<path d="M41.0174 39.9382C40.6652 40.4933 39.7165 40.5878 39.8077 41.4842C39.6502 41.4883 39.4969 41.4965 39.3395 41.5006C38.8216 40.4727 37.8646 40.2424 36.4477 40.337C38.4156 38.6101 37.8895 36.2952 38.9583 34.5807C39.0412 34.5437 39.1241 34.5026 39.2069 34.4656C39.3934 34.4943 39.5549 34.5725 39.6917 34.704C40.1101 35.514 40.628 36.2911 40.4664 37.2738C40.4042 37.4506 40.3131 37.611 40.1971 37.7549C38.5606 39.0377 40.2385 39.1899 40.8724 39.6997C40.918 39.7778 40.9677 39.8559 41.0174 39.9382Z" fill="#CDD861"/>
<path d="M24.4373 35.8841C27.4368 38.717 30.8796 40.6536 35.035 41.3444C36.3441 41.5623 37.6367 41.4472 38.9252 41.624C38.3369 42.253 37.5663 41.8871 36.8827 42.0022C35.4161 42.7218 34.0531 42.3846 32.7398 41.587C32.4581 41.4554 32.1805 41.3238 31.8988 41.1922C31.2649 41.6856 30.6683 41.2539 30.0593 41.1182C29.8853 41.0565 29.7237 40.9702 29.5663 40.8797C28.978 40.4562 28.3483 40.1068 27.6895 39.8066C27.3457 39.6421 27.0142 39.4694 26.6994 39.2598C25.8459 38.1989 24.0935 37.7302 24.4373 35.8841Z" fill="#B7983E"/>
<path d="M39.7911 41.6281C43.3084 41.2005 46.4364 39.8272 49.2701 37.759C48.7108 39.3379 47.1282 39.8025 45.9848 40.7482C45.8066 41.0689 45.6326 41.4019 45.1645 41.1717C43.3582 41.1429 41.6927 42.7917 39.7911 41.6281Z" fill="#B7983E"/>
<path d="M29.8356 40.7564C30.5233 40.9003 31.211 41.0483 31.8988 41.1922C31.6253 41.735 31.3519 42.2736 31.0743 42.8163C29.4751 42.142 27.5487 42.0516 26.5129 40.3493C27.7185 39.7079 28.659 41.184 29.8356 40.7564Z" fill="#CC9F53"/>
<path d="M32.7398 41.587C34.1111 41.7966 35.4741 42.1461 36.8827 42.0022C37.0277 42.216 37.3177 42.5943 37.2929 42.6149C36.543 43.2563 33.4275 42.5367 32.7398 41.587Z" fill="#CC9F53"/>
<path d="M45.1645 41.1717C45.4379 41.0319 45.7113 40.8921 45.9848 40.7482C46.2416 42.0968 45.2018 42.5285 44.0376 43.4578C44.3607 42.3312 45.2556 41.9693 45.1645 41.1717Z" fill="#D0A667"/>
<path d="M49.643 37.4013C50.1112 36.7434 50.2934 35.8018 51.3416 35.7237C51.151 36.6571 50.9936 37.6233 49.643 37.4013Z" fill="#B59241"/>
<path d="M39.3768 42.6601C39.5384 42.989 39.6585 43.1494 39.6999 43.3303C39.7704 43.6263 39.6544 43.8772 39.3478 43.9553C39.0909 44.0169 38.7429 44.0498 38.8382 43.6181C38.8879 43.3755 39.0785 43.1699 39.3768 42.6601Z" fill="#D3A868"/>
<path d="M13.6739 32.5454C13.4005 32.5413 13.1271 32.5372 12.8536 32.5331C12.5595 31.7519 12.5595 31.7519 14.1421 31.608C14.341 30.6458 12.4973 30.4156 13.2638 29.2602C13.3094 28.9477 13.4875 28.7216 13.7402 28.5489C14.8671 28.002 15.82 28.2528 16.6942 29.1327C16.5657 28.6106 15.6253 28.0102 16.3379 27.5539C17.2244 26.9864 17.9826 27.6402 18.5751 28.3597C18.8775 29.474 18.8609 30.5883 18.6041 31.7066C18.3016 32.5824 17.676 31.9616 17.1913 32.0109C16.9054 32.0191 16.6444 31.9328 16.4124 31.7724C16.1929 31.5751 16.0479 31.279 15.7744 31.168C15.5258 31.0652 15.4886 31.427 15.7123 31.2667C15.936 31.1063 15.9236 31.6573 15.8366 31.4065C16.197 31.756 16.6237 31.9986 16.9883 32.3152C17.0877 32.4673 17.1209 32.6359 17.096 32.8127C16.7977 33.339 16.2509 33.4253 15.7371 33.5774C15.5548 33.5939 15.3808 33.5651 15.211 33.5034C14.5813 33.3719 14.0137 33.1334 13.6739 32.5454Z" fill="#C09246"/>
<path d="M7.04937 22.2621C7.16123 22.6733 7.71225 23.0804 7.05352 23.4956C6.44036 23.804 6.00535 24.2645 6.3865 24.9388C6.7138 25.5145 7.09495 26.049 6.30364 26.4273C5.5082 26.8055 5.32591 25.9955 4.98204 25.5515C4.70447 24.8648 4.43103 24.1782 4.15345 23.4915C4.0996 22.587 4.70447 22.184 5.40877 21.851C5.54134 21.851 5.67806 21.851 5.81063 21.851C6.21664 22.0031 6.7138 21.8839 7.04937 22.2621Z" fill="#C89B53"/>
<path d="M6.62265 30.0825C6.76765 29.9427 6.90851 29.7988 7.05352 29.659C7.5631 29.9222 7.94011 29.9838 8.4994 29.5316C9.1167 29.0341 9.56828 29.8811 10.0406 30.1771C10.4922 30.4608 10.1566 30.909 9.94944 31.2461C9.48128 31.9944 8.97584 31.4106 8.54912 31.2091C7.87382 30.8925 7.26066 30.4649 6.62265 30.0825Z" fill="#D4AE6D"/>
<path d="M8.26326 27.2126C8.40826 27.4798 8.55741 27.7471 8.70241 28.0144C8.64027 28.039 8.57398 28.0596 8.52012 28.0925C7.81582 28.5365 7.25652 28.2405 6.77594 27.7265C6.68065 27.6238 6.75108 27.3688 6.74694 27.1838C7.25238 27.192 7.75782 27.2044 8.26326 27.2126Z" fill="#A87A33"/>
<path d="M3.30415 27.6114C3.22129 27.1098 2.45485 26.8837 2.79457 26.0819C3.44501 26.5465 4.17417 26.8179 4.51389 27.5909C4.11617 27.8951 3.71016 27.854 3.30415 27.6114Z" fill="#DABA82"/>
<path d="M8.29226 24.725C8.22183 25.3706 9.97429 24.8196 9.12499 25.975C8.91784 25.5104 7.42638 25.8927 8.29226 24.725Z" fill="#CFA660"/>
<path d="M13.6822 28.8367C13.5414 28.9765 13.4005 29.1204 13.2597 29.2602C12.8495 28.9806 12.4435 28.701 12.0333 28.4173C12.0251 28.2857 12.0209 28.1542 12.0209 28.0185C12.9199 27.5991 13.5165 27.7923 13.6822 28.8367Z" fill="#B18136"/>
<path d="M22.0427 30.0291C22.0427 30.3046 22.0468 30.58 22.0468 30.8596C21.6408 30.7486 21.558 30.4279 21.529 30.0743C21.2183 29.9345 20.9821 29.7248 20.775 29.4493C20.6962 29.3465 21.0401 28.3597 20.1411 29.1985C19.3664 29.9222 19.0266 28.59 18.7573 27.891C18.8485 25.0005 20.1618 22.5459 21.6243 20.1611C21.8894 19.7294 22.1628 19.1578 22.8837 19.384C23.2649 19.8527 23.2566 20.3831 23.1613 20.9341C22.1794 23.582 21.7444 26.3039 22.0676 29.1286C22.167 29.4288 22.1836 29.733 22.0427 30.0291Z" fill="#C09E4C"/>
<path d="M19.1095 28.0185C19.5901 28.1994 19.3001 29.0875 19.9422 29.0176C20.4601 28.9642 20.1618 28.3022 20.5139 27.9527C20.8578 28.6722 21.1975 29.3712 21.5331 30.0743C20.2778 31.1886 19.8884 32.6318 20.3441 34.1613C20.6548 35.1974 20.0044 35.2509 19.4244 35.5099C19.0598 34.6711 18.6413 34.0708 17.4896 34.1695C16.5036 34.2559 15.4803 33.968 14.4735 33.8447C14.4031 33.0635 14.8091 33.1046 15.3353 33.3554C15.472 33.3554 15.6087 33.3595 15.7454 33.3595C16.5284 33.2691 17.3405 33.4006 18.0862 33.047C18.9023 32.348 18.5502 31.3983 18.6538 30.543C18.7615 29.696 18.3223 28.7462 19.1095 28.0185Z" fill="#C89D54"/>
<path d="M24.4373 35.8841C24.719 37.3807 26.3431 37.8536 26.9397 39.1117C26.6124 40.1396 25.7423 39.0418 25.2783 39.5311C25.1416 39.5311 25.0049 39.527 24.8682 39.5229C24.3462 38.7705 23.153 38.8445 22.7967 37.8782C23.095 37.5329 22.7097 36.9654 23.1986 36.6817C23.211 35.9704 23.2276 35.2591 23.24 34.5478C23.6377 34.9918 24.0355 35.44 24.4373 35.8841Z" fill="#C9A055"/>
<path d="M22.3658 36.2377C21.9681 35.7155 21.5745 35.1933 21.0691 34.5272C22.5688 34.4368 22.3203 35.6621 22.7843 36.2459C22.6393 36.435 22.5026 36.4392 22.3658 36.2377Z" fill="#C9A055"/>
<path d="M22.3658 36.2377C22.5067 36.2418 22.6434 36.2459 22.7801 36.2459C22.9169 36.3898 23.0536 36.5378 23.1903 36.6817C23.1779 37.1217 23.2939 37.6028 22.7884 37.8782C22.4901 37.3725 22.3244 36.8298 22.3658 36.2377Z" fill="#D7B273"/>
<path d="M8.30469 18.5658C8.3544 18.8741 8.35026 19.421 8.45798 19.4457C9.13328 19.5896 9.04213 18.722 9.52686 18.5493C9.531 18.6932 9.53514 18.8412 9.53928 18.9852C9.87901 19.1126 9.68014 20.4448 10.5667 19.4004C10.8899 19.018 11.4326 18.7755 12.0209 18.9728C12.8412 19.1085 13.6657 19.2442 14.486 19.3758C14.8174 20.1035 15.4306 20.2721 16.1597 20.1981C15.559 20.9875 14.8133 21.4028 13.7651 21.3124C12.8205 21.2301 11.9629 21.4727 11.445 22.3444C12.1328 23.0927 13.6449 20.6709 13.7071 23.0927C12.8992 23.1667 12.5553 23.8739 12.0251 24.3221C11.2213 24.3303 10.5253 23.8904 9.67186 23.8657C8.92613 23.8451 7.78268 23.3929 8.30054 21.9949C8.61541 21.1479 7.7951 21.5673 7.47195 21.4398C7.08252 21.5508 6.9458 21.411 7.05766 21.0286C8.0934 20.5229 7.57967 19.2319 8.30469 18.5658Z" fill="#C89B53"/>
<path d="M5.40462 21.851C4.98619 22.3978 4.56775 22.9447 4.14931 23.4915C3.7433 23.7629 3.33729 23.7835 2.93128 23.4833C2.29741 22.4513 2.38027 21.2712 2.38856 20.1611C2.39684 19.31 2.74485 18.2738 3.85516 18.315C4.93647 18.3561 5.4792 19.2154 5.55377 20.2598C5.59106 20.7861 5.45848 21.3206 5.40462 21.851Z" fill="#A77C39"/>
<path d="M7.04937 21.0286C7.18609 21.1643 7.32695 21.3041 7.46367 21.4398C7.32281 21.7153 7.18609 21.9867 7.04523 22.2621C6.63922 22.11 5.89763 22.9406 5.80649 21.851C6.22078 21.5755 6.63508 21.3 7.04937 21.0286Z" fill="#C5974F"/>
<path d="M19.1095 28.0185C19.0888 29.4576 19.0763 30.8966 19.0391 32.3316C19.0225 32.9031 19.2711 33.6432 18.2975 33.7296C18.1276 33.6062 18.0075 33.4459 17.9205 33.2567C17.821 32.8291 17.879 32.4426 18.2063 32.126C18.2063 30.7568 18.2105 29.3835 18.2105 28.0144C17.9826 27.7841 17.9288 27.5004 17.9536 27.192C18.0696 26.6082 18.1525 26.0202 18.256 25.4363C19.1219 22.3937 20.3731 19.5402 22.4736 17.1143C24.4953 14.9516 26.7574 13.1959 29.8356 12.8135C30.4322 12.8547 30.9707 12.6779 31.4803 12.3818C31.9443 12.39 32.4249 12.4435 32.7522 11.9994C34.2395 12.0118 35.7268 12.02 37.2142 12.0323C36.862 12.6861 36.0044 12.1804 35.6067 12.7231C35.5487 12.8053 35.4866 12.8876 35.4286 12.9739C34.0117 13.4961 32.4705 13.4673 31.0412 13.9689C28.601 14.82 26.4632 16.0988 24.6818 17.9819C24.1473 18.5452 23.7993 19.4128 22.8133 19.421C20.8122 21.962 19.6274 24.8484 19.1095 28.0185Z" fill="#A27A31"/>
<path d="M29.007 6.23489C29.6989 6.23489 30.3866 6.239 31.0785 6.239C31.9112 6.77352 32.4456 7.7562 33.5559 7.87544C33.5518 8.21671 33.4855 8.52509 33.1458 8.70189C32.1018 7.53006 30.4529 9.05138 29.4089 7.88367C29.9557 7.16413 29.2349 6.75707 29.007 6.23489Z" fill="#D0AB6D"/>
<path d="M25.2742 39.5311C25.3156 37.3807 26.5544 39.9341 26.9355 39.1117C27.2752 39.1241 27.5818 39.194 27.76 39.5229C28.2033 40.3411 29.1727 40.2959 29.8356 40.7564H29.8314C29.8853 41.073 30.2747 41.6404 29.4627 41.3978C28.4643 41.1018 27.4948 40.7029 26.5088 40.3493C26.1028 40.078 25.6885 39.8025 25.2742 39.5311Z" fill="#C4984E"/>
<path d="M50.5835 20.194C50.1029 19.8692 49.6264 19.5443 48.7481 18.9523C49.5146 20.1899 50.0324 21.0204 50.5462 21.851C50.2603 22.809 49.8584 22.0031 49.469 21.962C49.0754 21.9209 49.4193 22.2868 49.3654 22.4677C49.1873 23.0516 48.7316 23.36 48.2468 23.5943C47.3851 24.0137 46.4529 24.2522 45.5249 24.4948C45.2432 24.5194 44.9739 24.4537 44.7129 24.3509C44.543 24.2892 44.3815 24.2152 44.224 24.133C43.9092 23.9726 43.6067 23.7917 43.3002 23.6149C42.7781 23.3024 42.2603 23.6313 41.7383 23.6354C41.1997 23.508 40.9635 23.1133 40.8434 22.624C40.8475 22.4307 40.8807 22.2498 41.0091 22.0977C40.7605 22.1388 40.7357 22.369 40.6652 22.5376C40.5617 22.7761 40.4415 22.994 40.2302 23.1544C39.4141 23.1914 39.0743 22.6445 38.8092 22.0113C38.9666 21.3535 39.2235 20.6956 38.8051 20.0377C38.9128 19.5279 39.0578 19.0263 39.2608 18.5452C38.8258 19.1825 38.9542 20.0254 38.4985 20.6504C38.1588 20.8148 37.6989 20.5435 37.4213 20.9464C37.1272 21.2137 36.9034 21.6701 36.3814 21.3576C36.0666 21.0122 36.0334 20.5599 35.9009 20.1446C35.5943 19.1661 34.9314 19.9062 34.4342 19.8445C33.2825 19.0386 33.5974 17.7517 33.3695 16.6415C33.4607 16.4688 33.5974 16.3578 33.7838 16.2961C34.9645 16.2221 36.2406 15.2065 37.326 17.1143C37.152 15.8068 35.847 15.7575 35.9589 14.7543C36.369 14.191 36.311 13.3234 37.1189 13.0191C37.877 13.0849 38.6642 12.8218 39.3975 13.1959C41.1955 13.3193 42.8734 13.8086 44.3649 14.8406C43.5984 15.9096 44.1163 16.5182 45.0692 17.1308C46.2872 17.912 47.0247 18.9153 45.8398 20.157C46.3701 19.4045 47.1407 18.6151 46.3742 17.3652C46.0842 16.8923 46.6849 16.5634 47.2235 16.5099C48.3338 17.4721 49.4441 18.4301 50.5503 19.3922C50.5586 19.6636 50.571 19.9267 50.5835 20.194Z" fill="#C6D357"/>
<path d="M47.2194 16.5182C47.0371 16.7854 46.6435 17.2171 46.7057 17.2953C48.6611 19.7499 45.3261 20.0871 44.9698 21.6002C44.92 21.4809 44.7875 21.3 44.8289 21.2507C46.3079 19.3675 46.1754 18.0477 43.8097 16.8759C42.5793 16.2673 42.8569 15.1901 44.3649 14.8529C45.4379 15.1942 46.3659 15.7945 47.2194 16.5182Z" fill="#CAD767"/>
<path d="M39.3934 13.2042C38.5523 13.2083 37.7113 13.2165 36.8703 13.2206C36.746 13.3563 36.5969 13.4262 36.4104 13.418C36.1411 13.3234 35.9547 13.1754 36.0541 12.8506C37.152 12.8382 38.2458 12.8259 39.3436 12.8094C39.3561 12.9451 39.3726 13.0726 39.3934 13.2042Z" fill="#C3D052"/>
<path d="M15.3353 33.3513C14.9665 33.3719 14.6351 33.4623 14.4735 33.8406L14.2788 33.8611L14.0965 33.7871C13.9557 33.3719 13.8148 32.9566 13.6739 32.5413C14.225 32.8127 14.7801 33.084 15.3353 33.3513Z" fill="#C4964C"/>
<path d="M29.8314 4.99728C29.2556 4.93972 28.5968 5.20286 28.1784 4.56556C28.0624 3.96936 28.1411 3.4184 28.572 2.9579L28.6258 2.90033C30.0386 3.02779 29.5166 4.24896 29.8314 4.99728Z" fill="#CCA260"/>
<path d="M28.572 2.9579C28.5388 3.51708 28.775 4.14205 28.1784 4.56556C27.4658 4.47099 26.6124 4.75058 26.2064 3.83779C26.5834 3.78434 26.9562 3.735 27.3291 3.68155C27.8138 3.5582 27.934 2.81399 28.572 2.9579Z" fill="#E9D8B6"/>
<path d="M36.05 12.8547C36.1867 12.978 36.3234 13.1014 36.4643 13.2206C36.6632 13.9401 36.166 14.2979 35.702 14.6761C34.8154 15.0873 34.2022 15.8151 33.5601 16.5058C32.5906 17.3487 31.8656 15.4656 31.1033 16.2838C32.5161 16.403 33.9081 18.1957 33.5021 19.6101C33.2452 20.5106 32.6445 20.5229 31.8988 20.268C31.2732 20.0583 30.8175 19.3716 30.0344 19.6266C29.355 20.0912 28.775 20.8724 27.7724 20.3543C27.5818 20.1446 27.4824 19.9103 27.5694 19.6266C27.2794 19.6142 27.3788 19.8692 27.3208 20.0007C26.7739 21.226 26.3224 22.4965 25.5766 23.6313C25.2825 23.8081 25.009 24.0096 24.7563 24.244C24.4083 24.5606 24.0562 24.9841 23.5134 24.6921C22.8589 24.3426 22.7553 23.7794 23.0163 23.1215C23.2359 22.7884 23.5673 22.5911 23.8822 22.369C24.8972 21.6084 25.0215 20.2885 25.7838 19.3716C25.7962 19.3552 25.7299 19.2524 25.6802 19.2195C25.6263 19.1866 25.5518 19.1907 25.4731 19.1825C24.2509 18.8495 24.5077 18.0724 25.1416 17.542C26.9479 16.0289 28.6424 14.2609 31.0992 13.7921C32.6196 13.5002 34.0904 13.0027 35.6316 12.8177L35.6108 12.7354C35.76 12.7683 35.905 12.8094 36.05 12.8547Z" fill="#C7D359"/>
<path d="M22.8174 17.361C20.8537 19.8034 19.6481 22.6281 18.6496 25.5515C17.3032 25.0252 15.878 25.1362 14.4777 25.0252C14.196 24.8731 13.9681 24.6921 14.0965 24.3221C15.0577 23.7793 16.0189 23.2366 16.98 22.6939C17.7506 22.3855 16.7853 21.2342 17.792 21.041C19.6191 20.5599 19.7019 19.2154 19.4741 17.7105C19.1882 16.9951 18.9272 17.5461 18.6579 17.727C17.966 17.3857 18.488 16.4318 17.8127 16.0823C18.4632 15.1901 18.4632 15.1901 18.9645 15.848C19.2835 16.2715 19.7061 16.0947 20.0458 15.9507C20.5471 15.7369 20.7791 15.3463 20.4145 14.8159C19.9878 14.1992 19.3829 13.9689 18.6455 14.0306C19.3415 12.608 21.2473 12.5586 21.9598 11.1565C22.4446 11.909 23.8904 11.0702 24.0313 12.39C24.0976 12.4106 24.1639 12.4271 24.226 12.4599C24.8806 12.7848 26.2644 12.02 26.1732 13.2494C26.0862 14.4006 24.8806 14.413 23.8739 14.1539C23.3519 13.6893 22.8257 13.6153 22.3203 14.1457C22.0676 14.1334 22.37 13.9237 22.2126 14.1416C22.1256 14.2609 22.2126 14.3143 22.3161 14.1786C22.6517 14.0265 22.95 13.7633 23.3477 13.9566C24.7108 15.3299 22.9831 16.2262 22.8174 17.361Z" fill="#C59953"/>
<path d="M14.0965 24.3221C14.2332 24.4578 14.37 24.5976 14.5067 24.7333C14.7428 25.2308 14.2581 25.5145 14.1628 25.9133C14.022 27.3565 14.9417 26.5259 15.472 26.5095C16.226 26.456 16.98 26.3738 17.7299 26.2998C18.3886 26.234 18.5958 26.6041 18.2353 27.2003C18.227 27.4716 18.2188 27.743 18.2105 28.0185C17.531 28.5859 17.2079 27.4387 16.6859 27.6279C16.3669 27.854 16.516 28.0185 16.5657 28.2035C16.7356 28.8573 18.0862 29.2849 17.3446 29.9551C16.3751 30.8391 16.661 29.215 16.0686 29.0053C15.2607 28.7216 14.4984 28.6188 13.6822 28.8367C13.2597 28.3063 12.6796 28.0801 12.0209 28.0226C10.8733 26.6246 10.778 25.5268 12.8454 24.9594C13.2887 24.836 13.6822 24.54 14.0965 24.3221Z" fill="#C4964C"/>
<path d="M17.792 21.0451C17.1292 21.9044 17.9495 22.2909 18.4135 22.7761C17.85 23.3929 17.4357 22.7638 16.98 22.6939C16.5657 22.4389 16.0769 22.1717 16.3544 21.5919C16.632 21.0081 17.2286 21.0122 17.792 21.0451Z" fill="#D1AA6A"/>
<path d="M12.0209 24.3221C12.2861 23.5162 12.3813 22.4718 13.7029 23.0927C13.3135 23.7341 12.8536 24.281 12.0209 24.3221Z" fill="#D0A96D"/>
<path d="M18.6621 17.7311C18.7118 16.9046 19.3001 16.7402 19.8635 17.028C20.1535 17.176 19.5445 17.4351 19.4782 17.7188C19.2048 17.7188 18.9313 17.727 18.6621 17.7311Z" fill="#D1AA67"/>
<path d="M21.1354 10.7495C20.8412 10.6755 20.3648 10.7002 20.5181 10.2355C20.6714 9.77503 21.1727 9.95594 21.5414 9.9395C21.4047 10.2068 21.268 10.4781 21.1354 10.7495Z" fill="#D5B27E"/>
<path d="M12.0168 18.9687C11.5983 19.199 11.184 19.4292 10.7656 19.6512C10.2187 19.9432 10.5004 21.337 9.51443 20.8395C8.8267 20.49 9.763 19.6266 9.53514 18.981C10.3679 19.2647 11.184 18.0477 12.0168 18.9687Z" fill="#CEA765"/>
<path d="M22.8174 17.361C22.0758 16.1563 24.3172 15.297 23.2069 14.047C23.095 13.6852 23.1779 13.5002 23.6004 13.6235C24.4787 14.1786 25.2038 13.825 25.9536 13.2864C25.5062 12.4353 24.429 13.1548 24.0355 12.3983C24.5906 12.2585 25.1458 12.1187 25.6968 11.9789C27.1592 11.8596 28.4891 12.3942 29.8439 12.8177C27.2877 14.0018 24.7439 15.2148 22.8174 17.361Z" fill="#C1934B"/>
<path d="M25.6885 11.1483C25.4979 11.0949 25.1623 11.0784 25.1416 10.9839C24.9552 10.2026 23.5673 10.8029 23.762 10.0094C23.9899 9.07605 25.0298 9.67224 25.6885 9.49133C26.4508 10.0464 25.9039 10.5974 25.6885 11.1483Z" fill="#D3AF76"/>
<path d="M26.5088 7.86722C25.9205 8.16737 25.3405 8.51275 24.4995 7.99057C25.067 7.50951 25.5808 7.07778 26.0904 6.65017C26.2312 7.05722 26.3679 7.46428 26.5088 7.86722Z" fill="#D6B179"/>
<path d="M27.3415 7.06956C27.2048 7.05311 27.0722 7.049 26.9355 7.049C27.0018 6.25545 27.412 6.21844 28.0003 6.57616C28.282 6.74474 28.6424 6.97088 28.2488 7.26692C28.0831 7.38204 27.6481 7.14357 27.3415 7.06956Z" fill="#D3AB6E"/>
<path d="M24.0355 12.3942C23.6046 11.5513 21.9888 12.6779 21.964 11.1607C23.3104 10.4822 24.0065 10.8852 24.0355 12.3942Z" fill="#C1934B"/>
<path d="M25.2783 23.4956C26.1939 21.7482 26.4881 19.6389 28.5554 18.1628C28.2115 19.0427 27.9878 19.6225 27.7641 20.1981C27.9008 20.3338 27.9837 20.5024 28.0127 20.6915C28.0003 21.1808 27.7724 21.5919 27.5445 21.999C27.3788 22.3567 27.1634 22.7185 27.7517 22.9118C28.2364 23.0721 28.7833 23.1091 29.1106 23.5779C29.3136 24.429 30.0676 24.7661 30.6807 25.2349C31.153 25.6995 32.2012 25.9421 31.3436 26.9207C30.8257 27.3729 29.9516 26.3738 29.5663 27.3565C29.4544 27.8869 28.862 27.7101 28.5968 28.0102C28.8454 29.3178 28.543 30.2018 26.9562 30.0784C26.5336 30.0003 26.1111 30.062 25.6885 30.0702C25.2493 30.1401 25.0505 32.0726 24.4249 30.3046C24.0976 29.3794 22.8506 29.4411 22.7926 28.4214C22.7843 28.3351 22.7801 28.2487 22.7719 28.1624C22.7594 27.7142 22.8091 27.2743 22.9997 26.859C23.1074 26.7027 23.2483 26.5876 23.4223 26.5095C23.8117 26.382 24.1639 26.4766 24.4912 26.6986C24.5658 26.8096 24.5989 26.933 24.6362 27.0563C24.6983 27.2537 24.5533 27.4757 24.7066 27.6608C24.6569 27.4716 24.661 27.2743 24.661 27.081C24.661 26.7932 24.4953 26.5999 24.3006 26.419C24.1805 26.1477 24.1805 25.8763 24.313 25.609C25.5766 25.3336 25.6968 24.5359 25.2783 23.4956Z" fill="#CAD761"/>
<path d="M28.5968 28.0144C28.8661 27.7677 29.1396 27.5251 29.4089 27.2784C29.7776 26.5999 30.4612 26.9659 30.9873 26.8179C31.9692 25.6872 30.1794 26.1641 30.2457 25.5597C30.4984 25.2431 30.7595 24.9306 31.153 24.7661C32.3296 24.4167 32.2468 25.3336 32.4208 25.9996C32.8599 28.516 34.3431 29.9468 36.891 30.3046C37.7776 30.4279 38.6766 30.321 39.5632 30.4197C40.5368 30.5718 41.0174 31.3366 41.5643 32.0191C41.4317 32.4097 41.1002 32.5619 40.744 32.677C40.2758 32.3686 39.9941 32.566 39.8159 33.0265C39.3726 32.9484 39.0743 33.2115 38.7802 33.4623C37.9102 33.1005 38.7139 34.2641 38.138 34.1736C37.9806 34.3052 37.8273 34.4409 37.6699 34.5725C37.3219 34.2312 37.442 33.5487 36.8123 33.4089C36.6134 33.1581 36.6217 32.8044 36.3814 32.5989C36.1411 32.5989 36.0417 32.7674 35.9506 32.9484C35.7683 33.4911 35.5611 34.0215 35.3084 34.5313C34.9894 34.2682 34.6704 34.0051 34.3472 33.7419C33.9702 33.4171 34.223 32.6852 33.5684 32.5372C33.4565 32.4015 33.3447 32.2658 33.2328 32.1301C32.5824 31.6655 32.3876 32.7428 31.8118 32.5413C30.5192 32.1589 30.2126 30.8802 29.4627 30.0003C30.1007 29.5398 30.892 29.3712 31.5466 28.9395C31.2028 29.1533 30.9127 29.104 30.6642 28.7832C29.9723 28.5242 29.2846 28.2693 28.5968 28.0144Z" fill="#C8CD53"/>
<path d="M29.4171 36.6488C29.4213 36.5049 29.4254 36.3651 29.4254 36.2212C29.9806 35.4729 30.3659 34.6424 30.66 33.7666C32.3255 33.746 32.6238 34.0832 32.8061 36.2212C33.4441 36.5954 33.6264 35.6127 34.1981 35.7278C34.5585 36.3487 34.4094 37.1916 33.8377 37.2163C32.5451 37.2738 31.6046 37.2738 31.7952 39.0048C31.8449 39.4736 30.892 39.305 30.5565 39.2392C29.6699 39.0706 28.8827 38.5978 29.0111 37.4588C29.442 37.2574 29.7486 37.5411 30.051 37.6768C29.9267 37.3355 29.1188 37.3232 29.4171 36.6488Z" fill="#CCD75C"/>
<path d="M36.5306 32.1342C37.5705 32.3069 36.6466 33.0676 36.9366 33.4705C37.2142 33.7954 37.5829 34.0996 37.2887 34.6012C37.7983 35.9375 36.3856 36.5132 36.0873 37.5329C36.0749 37.574 35.6357 37.5904 35.5777 37.5041C35.4493 37.2985 35.3333 36.9983 35.3871 36.7804C35.6108 35.8759 36.1536 35.0453 35.9754 34.0503C35.6813 33.7296 35.6813 33.3677 35.8387 32.9895C36.021 32.6646 36.108 32.2658 36.5306 32.1342Z" fill="#CAD55A"/>
<path d="M27.7558 33.7625C27.4824 34.0503 27.1799 34.3175 26.9397 34.6341C26.5999 35.0823 26.2809 35.5593 25.6471 35.107C25.2038 34.7904 24.8019 34.3874 24.9428 33.7707C25.0712 33.1909 25.2576 32.6276 25.4233 32.0397C26.1235 32.0068 26.3306 32.7921 26.9148 32.9442C27.3415 33.0676 27.4948 33.4664 27.7558 33.7625Z" fill="#CAD761"/>
<path d="M30.66 33.7666C31.153 35.033 30.515 35.7361 29.4254 36.2212C29.268 35.1234 29.6284 34.2805 30.66 33.7666Z" fill="#D6E081"/>
<path d="M29.4171 36.6488C29.8604 37.4177 31.2235 37.2491 31.356 38.4662C30.2499 38.7006 29.7569 37.7919 29.0111 37.463C29.0111 37.1258 29.0816 36.8215 29.4171 36.6488Z" fill="#D7DF73"/>
<path d="M30.6642 28.7832C30.9749 28.8614 31.2815 28.9436 31.5922 29.0217C31.4596 29.2191 31.3685 29.4987 31.182 29.5973C30.6559 29.8811 30.1049 30.1524 29.4627 29.9962C29.4503 29.1944 30.2416 29.1697 30.6642 28.7832Z" fill="#838735"/>
<path d="M31.8076 32.5413C32.1183 32.1918 32.4125 31.83 32.7439 31.5052C32.9138 31.3407 33.1624 30.9789 33.3612 31.2379C33.4897 31.4024 33.2825 31.8259 33.2245 32.1342C32.8061 32.4508 32.5906 33.4623 31.8076 32.5413Z" fill="#7E892F"/>
<path d="M25.6885 30.0743C26.1152 29.3959 26.5419 28.8161 26.9562 30.0825C26.5254 31.3242 26.1069 30.7157 25.6885 30.0743Z" fill="#D5DE86"/>
<path d="M35.2256 40.2178C34.8403 40.189 34.571 39.9628 34.571 39.6051C34.5751 39.1611 34.9728 39.1323 35.3084 39.1529C35.5777 39.1693 35.8801 39.2515 35.8636 39.5928C35.8553 39.9628 35.6108 40.1808 35.2256 40.2178Z" fill="#D4DD6F"/>
<path d="M33.5642 32.5372C33.9247 32.4015 34.1277 31.6491 34.455 31.9369C35.0433 32.4591 34.2105 33.1128 34.3431 33.7419C33.4648 33.7337 33.4855 33.1539 33.5642 32.5372Z" fill="#838A30"/>
<path d="M27.7558 33.7625C27.1965 33.7707 26.9521 33.4664 26.9189 32.9442C27.2255 32.6071 27.6191 32.1507 28.0334 32.5331C28.4353 32.9031 27.8843 33.3472 27.7558 33.7625Z" fill="#D5DF81"/>
<path d="M36.1204 32.9895C36.0707 33.3431 36.0251 33.6967 35.9754 34.0503C35.7517 34.2106 35.528 34.371 35.3001 34.5313C34.977 33.7954 35.296 33.1704 35.6357 32.5454C36.0376 32.4385 36.2157 32.5701 36.1204 32.9895Z" fill="#797F29"/>
<path d="M38.138 34.1736C38.138 33.6309 38.138 33.0882 38.138 32.3398C38.4778 32.7839 38.7015 33.0799 38.9252 33.3719C39.2898 33.7131 39.3105 34.0914 39.0453 34.5026L38.9583 34.5848C38.6849 34.445 38.4115 34.3093 38.138 34.1736Z" fill="#CDD861"/>
<path d="M22.0427 30.0291C22.0096 29.7824 21.9764 29.5357 21.9433 29.2849C21.6864 28.8614 21.7403 28.4091 21.8065 27.9568C21.8687 27.5456 22.2001 27.3935 22.5233 27.4963C22.9873 27.6443 23.0577 28.0144 22.7884 28.4255C22.1256 28.7709 22.6227 29.6467 22.0427 30.0291Z" fill="#CAD761"/>
<path d="M37.2887 34.5971C37.1727 34.2189 37.0526 33.8447 36.9366 33.4664C37.1686 33.3719 37.5787 33.1539 37.6077 33.1951C37.9019 33.6268 37.732 34.1078 37.6699 34.5725C37.5415 34.5725 37.413 34.5807 37.2887 34.5971Z" fill="#616E25"/>
<path d="M41.4027 32.1795C40.7067 31.9081 40.5575 30.9542 39.7248 30.8596C39.6502 30.2018 40.2137 29.9427 40.5617 29.5562C42.3141 27.5991 41.788 25.2595 39.3685 24.1124C38.399 23.6519 37.181 23.7547 36.4187 22.8337C36.1867 22.2663 36.514 21.9373 36.9283 21.6413C37.3923 21.3535 37.6285 20.7778 38.2043 20.6216C38.9418 19.5443 38.4985 17.9038 40.0562 17.176C39.7041 18.2204 39.3561 19.2647 39.0039 20.305C39.4306 20.8477 39.2856 21.3699 38.9418 21.8839C39.4058 22.2457 39.8698 22.6116 40.3297 22.9735C40.4871 22.7021 40.6197 22.3649 41.034 22.6651C41.3364 22.9241 41.6347 23.1873 41.9371 23.4463C42.4384 23.2325 42.9356 23.0721 43.4369 23.4463C43.7849 23.4833 44.1287 23.5285 44.3276 23.8739C44.1287 24.3385 43.5404 24.4907 43.4203 25.017C43.4244 25.6378 43.1966 26.2957 43.7973 26.7809C44.0583 27.0152 44.3276 27.2496 44.4685 27.5867C44.4975 27.7594 44.4768 27.9239 44.4105 28.0801C44.1329 28.664 44.6963 28.7175 44.9822 28.9477C45.3841 29.3835 46.7719 29.4534 45.5746 30.4896C45.3965 30.5019 45.2142 30.5184 45.036 30.5307C44.6839 30.6828 43.7517 30.3169 44.3317 31.3037C44.1619 31.4558 43.992 31.6038 43.8222 31.756C43.0433 32.2124 42.629 30.8596 41.8418 31.3613C41.8294 31.7889 41.817 32.2165 41.8046 32.64C41.5021 32.6318 41.3488 32.4961 41.4027 32.1795Z" fill="#D3D764"/>
<path d="M44.3317 28.002C44.3317 27.8869 44.3317 27.7759 44.3317 27.6608C44.8413 27.081 45.3882 27.2455 45.9434 27.5826C46.6311 27.5867 47.3685 27.7512 48.0024 27.5703C49.7217 27.0728 49.9247 27.9198 49.7134 29.2561C49.44 29.8029 48.5037 30.0209 48.8931 30.8925C49.6223 31.7889 49.8957 30.0332 50.716 30.7527C49.9123 32.0726 48.4084 33.3307 49.2991 35.3783C48.077 34.3751 46.8507 33.3677 45.6285 32.3645C44.891 31.756 45.6161 31.1104 45.5788 30.4855C46.1836 29.4781 44.9615 29.7659 44.7502 29.3383C45.065 28.7545 44.398 28.4708 44.3317 28.002Z" fill="#CCD75E"/>
<path d="M45.1603 24.318C45.4628 24.17 45.7528 23.9685 46.0718 23.878C47.8491 23.3723 49.9744 23.1133 48.1391 20.4489C49.5519 20.1858 49.2038 22.2827 50.542 21.8551C51.4369 23.3517 51.2008 25.1115 51.6648 26.7151C51.9216 27.6032 51.209 27.6484 50.7119 27.2414C49.0754 25.8969 47.3602 26.049 45.5663 26.7932C45.3716 27.0234 45.1272 27.0358 44.862 26.9453C44.3897 26.5342 44.8579 26.2135 44.9698 25.8598C45.0402 25.646 45.0816 25.424 45.0733 25.1979C45.0485 24.8977 44.9532 24.5893 45.1603 24.318Z" fill="#CBD760"/>
<path d="M43.0847 35.4154C43.1593 35.0946 43.1262 34.6177 43.325 34.4861C43.7642 34.1942 43.8263 34.6753 43.9547 34.9672C44.0915 35.2797 44.1702 35.6785 44.4146 35.8676C45.5083 36.7146 45.8108 38.0797 45.0402 38.8486C44.079 39.8107 42.6787 40.777 41.0174 39.9382C40.4747 39.1816 41.1044 38.7376 41.6678 38.1085C40.947 38.6471 40.3545 38.8075 39.8491 38.2688C39.5218 37.9194 39.9361 37.685 40.1888 37.4753C40.6528 36.9983 40.1847 36.3569 40.4829 35.8512C40.6362 35.7278 40.8102 35.6908 41.0008 35.7278C41.6098 36.2994 42.1526 37.9646 42.919 35.843C42.8941 35.662 42.9521 35.5264 43.0847 35.4154Z" fill="#CED95F"/>
<path d="M43.0847 35.4154C43.0847 35.551 43.0847 35.6826 43.0847 35.8183C42.4136 38.0509 41.7134 36.324 41.0215 35.8306C40.8807 35.8306 40.7398 35.8306 40.6031 35.8265C39.6999 35.2961 39.8781 34.3052 39.5881 33.5075C39.5715 33.3102 39.6336 33.1375 39.7538 32.9812C39.7621 32.4015 39.9858 32.2041 40.5244 32.5454C41.2453 32.6811 41.4027 33.2074 41.4275 33.8241C41.7507 34.5889 42.2851 35.1399 43.0847 35.4154Z" fill="#CBD65D"/>
<path d="M41.8377 31.3613C42.7077 30.4526 43.1469 31.6861 43.8222 31.756C43.8304 32.5331 43.4907 32.8003 42.8527 32.2823C42.5006 32.0027 42.368 31.4723 41.8377 31.3613Z" fill="#8B9434"/>
<path d="M44.3276 31.3037C43.8719 30.9501 43.2504 30.7404 43.1717 30.0085C43.9257 29.7865 44.4768 30.1648 45.0319 30.5307C44.9905 30.9624 44.6715 31.1474 44.3276 31.3037Z" fill="#828A32"/>
<path d="M48.889 30.8966C48.5948 30.983 48.2965 31.2543 47.9983 30.9501C47.7621 30.7075 47.8657 30.4197 48.1143 30.3004C48.6984 30.025 48.9511 29.2602 49.7093 29.2602C49.788 29.9756 49.0961 30.3169 48.889 30.8966Z" fill="#D6DE7C"/>
<path d="M44.7792 26.7356C45.0402 26.7521 45.3053 26.7726 45.5663 26.7891C45.6906 27.0522 45.8149 27.3195 45.9392 27.5826C45.4006 27.6073 44.8662 27.6361 44.3276 27.6608C44.0666 27.5004 43.8056 27.3359 43.5446 27.1756C43.6689 26.2422 44.2157 26.4643 44.7792 26.7356Z" fill="#808C2F"/>
<path d="M41.4275 33.8241C41.1251 33.3965 40.8268 32.973 40.5244 32.5454C40.6942 32.1301 41.0298 32.1137 41.4027 32.1795C41.5353 32.3316 41.672 32.4878 41.8046 32.64C41.875 33.0964 42.0117 33.5733 41.4275 33.8241Z" fill="#788232"/>
<path d="M45.5746 35.3578C45.4213 35.1275 45.2556 34.9918 45.2432 34.8397C45.2142 34.5642 45.3426 34.3011 45.6782 34.3957C45.7984 34.4286 45.9144 34.6999 45.9102 34.8603C45.9019 35.0042 45.7321 35.1399 45.5746 35.3578Z" fill="#D2DD78"/>
<path d="M40.1888 37.4712C40.2137 39.2926 41.527 37.2697 41.9413 38.1208C41.9164 38.8116 40.8848 39.1076 41.0174 39.9382C40.1764 39.7532 39.3354 39.5722 38.341 39.3543C38.9128 38.6307 39.1655 37.7179 40.1888 37.4712Z" fill="#C6D352"/>
<path d="M39.8532 33.3595C40.483 34.0667 40.0935 35.0823 40.6031 35.8265C40.541 36.3939 40.7978 37.0395 40.1888 37.4712C39.9112 36.5091 39.6378 35.5428 39.3602 34.5807C39.3934 34.1202 39.3229 33.6227 39.8532 33.3595Z" fill="#C6D352"/>
<path d="M39.8532 33.3595C39.8698 33.8365 39.9195 34.3299 39.3602 34.5766C39.2649 34.5149 39.1572 34.4902 39.0453 34.4943C39.0039 34.1161 38.9666 33.7419 38.9252 33.3636C39.0039 32.8168 39.2235 32.5701 39.7538 32.9771C39.7248 33.1252 39.7579 33.2526 39.8532 33.3595Z" fill="#556324"/>
<path d="M29.8356 40.7564C28.9241 40.7071 27.8014 41.0154 27.76 39.5229C28.6093 39.6791 29.3923 39.9341 29.8356 40.7564Z" fill="#C9A055"/>
<path d="M15.7454 31.7272C14.8588 31.6408 14.7635 31.0077 14.5398 30.1072C15.6543 30.4073 16.4911 30.5841 16.5781 31.719C16.3047 31.9533 16.0271 31.9492 15.7454 31.7272Z" fill="#C89D54"/>
<path d="M18.2478 33.3636C18.2519 33.487 18.2685 33.6103 18.2975 33.7337C17.4192 33.8036 16.5409 33.857 15.7496 33.3595C16.1639 33.0882 16.5781 32.8127 16.9924 32.5413C17.7506 32.3028 17.8169 33.1046 18.2478 33.3636Z" fill="#C4964C"/>
<path d="M18.2478 33.3636C17.5973 33.4335 17.4233 32.7921 16.9924 32.5372C16.748 32.0726 17.1664 31.941 17.4067 31.7149C17.9702 31.2872 17.8459 32.1754 18.2105 32.1301C18.2229 32.5413 18.2353 32.9525 18.2478 33.3636Z" fill="#C89D54"/>
<path d="M17.4067 31.7149C17.27 31.9903 17.1333 32.2617 16.9924 32.5372C16.5781 32.2658 16.1639 31.9944 15.7454 31.7272C16.023 31.7231 16.3006 31.719 16.5781 31.719C16.8557 31.7149 17.1292 31.7149 17.4067 31.7149Z" fill="#C4964C"/>
<path d="M24.0396 22.6692C23.8615 23.0022 23.5507 23.0763 23.2069 23.0845C23.0577 23.2243 22.9003 23.2284 22.7346 23.1133C22.5067 22.4143 23.066 21.7235 22.7677 21.0204C22.7843 20.4859 22.805 19.9555 22.8216 19.4251C26.0158 15.1695 30.1794 12.7601 35.6316 12.8094C34.165 13.2329 32.8226 13.9854 31.2193 14.1005C30.0966 14.1786 29.0153 14.5158 28.2903 15.8274C27.8014 16.7073 26.2022 16.769 25.4068 17.7722C24.8765 18.4424 24.8765 18.7426 25.6968 18.9769C25.5145 20.3708 24.6362 21.4604 24.0396 22.6692Z" fill="#C3D052"/>
<path d="M22.7677 21.0204C24.1307 21.6906 22.9086 22.3937 22.7926 23.0804C22.9624 24.4454 22.8133 25.8475 23.2069 27.192C23.1903 27.6443 23.2814 28.1295 22.7926 28.4255C22.6724 28.2158 22.4943 27.8129 22.4404 27.8252C21.6243 28.0719 22.109 28.7874 21.9474 29.2808C20.9117 26.4026 21.5 23.6766 22.7677 21.0204Z" fill="#C7D359"/>
<path d="M3.31244 21.0081C3.40772 20.3584 3.05143 19.3593 3.93802 19.2976C4.70032 19.2442 4.55532 20.1899 4.55532 20.7737C4.55532 21.4316 4.70032 22.4143 3.86759 22.4513C2.97686 22.4883 3.49058 21.5015 3.31244 21.0081Z" fill="#BE9147"/>
<path d="M18.2395 27.2003C18.198 26.8466 18.0696 26.4396 17.6512 26.711C16.864 27.2167 16.1183 26.9659 15.3436 26.7809C14.254 27.0892 14.2415 25.9585 13.6822 25.5597C13.9598 25.2842 14.2332 25.0087 14.5108 24.7333C15.9401 24.7703 17.5766 23.7629 18.6496 25.5515C18.5958 26.123 18.8071 26.7562 18.2395 27.2003Z" fill="#C09246"/>
<path d="M37.3343 21.8263C36.9159 21.9867 36.6217 22.2663 36.4643 22.6898C36.5223 22.8995 36.4891 23.1708 36.3069 23.2202C34.5544 23.6971 33.3322 24.9841 31.9319 26.0038C31.791 25.5967 32.2302 24.6634 31.1282 25.1362C30.399 24.7497 29.4834 24.6675 29.007 23.8616C28.5513 23.3147 27.8221 23.6848 27.3291 23.4052C26.5212 22.9447 25.8749 22.3526 27.3457 21.8551C28.1577 21.9743 28.7708 22.55 29.5249 22.8008C29.8356 22.7761 30.3327 23.5409 30.4197 22.5787C30.4612 22.4061 30.5399 22.2621 30.6642 22.1347C31.0867 21.9497 31.4555 22.0525 31.8159 22.3033C32.6652 22.9036 31.791 21.8551 32.1391 21.962C32.2261 21.8057 32.3545 21.703 32.5202 21.6454C32.9884 21.9003 33.2991 21.8345 33.3447 21.2342C33.5021 21.004 33.7092 20.8806 33.9951 20.9135C34.3224 21.0533 34.5295 21.3165 34.7077 21.6043C34.8775 21.8551 35.0557 22.0936 35.4161 22.036C35.7144 21.9003 35.9381 21.6618 36.2116 21.4974C36.2944 21.4727 36.3773 21.4521 36.456 21.4275C36.7253 21.1561 36.9946 20.8847 37.2639 20.6134C37.6657 21.004 37.5622 21.411 37.3343 21.8263Z" fill="#CBD368"/>
<path d="M33.9205 21.0328C33.7962 21.1726 33.6761 21.3123 33.5518 21.4563C33.2701 21.5837 32.8848 21.5056 32.7066 21.851C32.5492 21.8592 32.3876 21.8715 32.2302 21.8798C31.8656 22.1676 31.5922 22.0319 31.3519 21.7071C30.4694 21.2178 29.5994 20.712 29.732 19.4909C29.674 19.3017 29.7071 19.1291 29.8356 18.9728C30.7885 18.3807 31.1075 19.421 31.7289 19.6882C32.0893 19.8445 32.4622 20.2269 32.8558 19.9761C33.3322 19.6759 33.2162 19.1044 33.0961 18.6768C32.6155 17.0033 31.5963 16.1892 29.6947 16.8019C30.9583 15.5519 32.2509 15.8315 33.5725 16.5058C33.8542 17.5954 34.1318 18.685 34.4135 19.7746C34.3928 19.865 34.3762 19.9514 34.3555 20.0418C34.2271 20.379 34.2147 20.7655 33.9205 21.0328Z" fill="#C3D052"/>
<path d="M33.5601 16.5058C33.6222 15.1942 34.3141 14.5076 35.6357 14.45C36.0251 14.3349 36.137 14.4952 36.0459 14.857C36.2654 15.0051 36.5016 15.1366 36.7087 15.3011C37.3675 15.8356 38.6186 16.3989 37.9475 17.2706C37.2722 18.1505 36.6342 17.1514 36.137 16.4853C35.8387 16.0864 35.1966 15.8562 34.9563 16.4483C34.4632 17.6612 33.9992 16.1687 33.5601 16.5058Z" fill="#C3D052"/>
<path d="M44.7792 26.7356C44.3483 26.8302 43.8222 26.6575 43.5487 27.1797C42.0821 26.7603 43.4617 25.3706 42.6911 24.7127C43.3167 24.3385 44.1536 24.5071 44.7046 23.9397C44.8579 24.0672 45.0112 24.1905 45.1645 24.318C45.3053 24.5893 45.4421 24.8607 45.5829 25.1321C45.1313 25.3911 44.6715 25.6543 45.5663 25.9421C45.3012 26.2052 45.0402 26.4725 44.7792 26.7356Z" fill="#BDC44C"/>
<path d="M35.6191 22.6445C35.0143 22.6815 34.4301 22.6856 34.3887 21.8592C34.7823 21.1767 33.9827 20.5188 34.3555 19.8363L34.397 19.7746C35.122 18.6151 35.7931 18.7426 36.4311 19.8486C36.0044 20.1734 35.8014 20.6134 35.7434 21.1314C35.6398 21.6331 35.7849 22.1511 35.6191 22.6445Z" fill="#C3D052"/>
<path d="M41.034 22.6733C40.7978 22.7761 40.5658 22.8789 40.3297 22.9817C40.2965 22.0319 40.8475 21.3987 41.4068 20.5476C42.223 21.6618 41.2038 22.0607 41.034 22.6733Z" fill="#7E8A30"/>
<path d="M35.2753 20.8395C35.4078 20.2145 35.644 19.7088 36.4394 19.8527C36.4477 20.3831 36.4519 20.9094 36.4601 21.4398C35.7393 21.8715 35.4576 21.4521 35.2753 20.8395Z" fill="#7D882A"/>
<path d="M37.3343 21.8263C37.3136 21.4234 37.2887 21.0245 37.268 20.6216C37.3592 20.3338 37.3053 19.9021 37.7486 19.9021C38.196 19.9021 38.109 20.3461 38.2085 20.6257C38.0883 21.152 37.9019 21.6248 37.3343 21.8263Z" fill="#828F2B"/>
<path d="M44.7005 23.9356C44.4353 25.2349 43.4079 24.577 42.687 24.7086C43.064 24.1042 43.7062 24.0096 44.3235 23.878C44.4478 23.9027 44.5762 23.9233 44.7005 23.9356Z" fill="#98A236"/>
<path d="M42.7657 19.2113C42.6746 19.0592 42.4633 18.8536 42.4343 18.6274C42.3846 18.2615 42.7077 18.208 42.9894 18.2286C43.3209 18.2533 43.441 18.5041 43.4369 18.796C43.4369 19.1373 43.2132 19.2483 42.7657 19.2113Z" fill="#D5DE83"/>
<path d="M36.05 14.857C35.9133 14.7214 35.7766 14.5857 35.6357 14.45C35.9133 14.0388 36.1867 13.6318 36.4643 13.2206C36.5969 13.2206 36.7336 13.2206 36.8662 13.2206C36.804 13.8702 37.1645 14.7255 36.05 14.857Z" fill="#D3DC73"/>
<path d="M38.9376 21.8921C38.9583 21.3658 38.9791 20.8395 38.9998 20.3132C39.3354 20.2639 39.6834 20.2351 39.7331 20.6915C39.7994 21.2877 39.4514 21.6495 38.9376 21.8921Z" fill="#80912C"/>
<path d="M43.4369 23.4504C42.9356 23.4504 42.4343 23.4504 41.9371 23.4545C42.4343 23.2407 42.9314 21.8016 43.4369 23.4504Z" fill="#86902F"/>
<path d="M23.2069 27.192C21.9806 25.9297 22.2706 24.5153 22.7926 23.0804C22.9293 23.0804 23.066 23.0804 23.2069 23.0804C23.2359 26.493 24.7149 22.7144 25.2783 23.4915C25.4813 24.2152 26.3472 24.2399 26.7988 24.9553C26.0241 25.3212 25.3861 25.9297 24.4207 25.5679C24.0437 25.9832 23.6502 26.3779 23.2276 26.7521C23.2193 26.9001 23.211 27.044 23.2069 27.192Z" fill="#C6D352"/>
<path d="M24.0396 22.6692C24.0189 21.1849 24.9759 20.1323 25.6968 18.9769C26.0365 18.7837 26.3721 18.5904 26.7118 18.3931C25.6056 19.7088 25.7589 21.7811 24.0396 22.6692Z" fill="#D0DA6D"/>
<path d="M29.8273 18.9728C29.8314 19.1085 29.8356 19.2442 29.8356 19.384C30.1049 20.0994 30.3203 20.8601 29.4337 21.2671C28.746 21.5796 28.1163 21.3411 27.76 20.6175C27.76 20.4777 27.76 20.3379 27.76 20.1981C28.8413 20.4407 29.2514 19.5649 29.8273 18.9728Z" fill="#D2DC71"/>
<path d="M23.6004 13.6194C23.4679 13.7592 23.3394 13.9031 23.2069 14.0429C22.7926 14.1786 22.3783 14.3143 21.964 14.4541C21.8604 14.3636 21.8231 14.2732 21.8563 14.1827C21.8894 14.0923 21.9226 14.0429 21.9598 14.0429C22.4694 13.7592 22.7636 12.6573 23.6004 13.6194Z" fill="#D2AB6F"/>
<path d="M21.9598 14.0429C21.9598 14.1786 21.964 14.3184 21.964 14.4541C21.6325 14.894 21.1271 14.8612 21.065 14.413C20.9821 13.788 21.6367 14.1457 21.9598 14.0429Z" fill="#D4AF72"/>
<path d="M13.6781 25.5597C14.573 25.5104 14.602 26.6205 15.3394 26.7809C14.9334 27.2414 14.515 27.6279 13.8562 27.1591C13.1851 26.6822 13.6905 26.0983 13.6781 25.5597Z" fill="#CFA35D"/>
<path d="M27.76 20.6175C29.1313 21.3329 29.9847 21.1849 29.8356 19.384C30.3079 20.0994 30.3493 21.3206 31.7248 20.9793C31.733 21.041 31.7703 21.1232 31.7413 21.1602C31.6668 21.263 31.5673 21.3494 31.4762 21.4439C31.24 21.7441 30.9335 21.9661 30.6642 22.2293C30.66 22.3814 30.6517 22.5376 30.6476 22.6898C30.3369 23.0763 29.8977 23.0721 29.4627 23.0763C28.5886 22.9652 27.8055 22.6856 27.3457 21.851C27.4824 21.4398 27.6232 21.0286 27.76 20.6175Z" fill="#C7D359"/>
<path d="M29.007 23.8575C29.7569 24.2111 30.834 24.026 31.124 25.1321C30.9252 25.461 30.602 25.5474 30.2457 25.5556C30.0717 24.8196 28.3317 25.2102 29.007 23.8575Z" fill="#A1AB3D"/>
<path d="M30.9873 26.8138C30.6062 27.4593 29.9516 27.1838 29.4089 27.2743C29.0733 26.933 28.2571 26.5342 29.4876 26.345C30.0469 26.2628 30.5275 26.5301 30.9873 26.8138Z" fill="#878B35"/>
<path d="M25.8293 27.3565C25.5393 27.2578 25.3281 27.0399 25.4068 26.7603C25.4648 26.5424 25.7051 26.2217 25.8749 26.2135C26.2602 26.2011 26.4715 26.5218 26.4052 26.9001C26.3555 27.1674 26.1484 27.3606 25.8293 27.3565Z" fill="#D4DD84"/>
<path d="M23.2276 26.7521C23.2483 25.9832 23.6294 25.572 24.4207 25.5679C24.4332 25.8393 24.4415 26.1066 24.4539 26.3779C24.5699 26.4684 24.603 26.5547 24.5575 26.637C24.5119 26.7151 24.4705 26.7562 24.429 26.7562C24.0272 26.7521 23.6294 26.7521 23.2276 26.7521Z" fill="#DBE18D"/>
<path d="M24.429 26.7521C24.4332 26.6246 24.4456 26.5013 24.4539 26.3738C25.0049 26.8549 24.9386 27.4182 24.7066 28.0555C24.255 27.6649 24.5367 27.1674 24.429 26.7521Z" fill="#C6D352"/>
<path d="M31.9319 26.0038C32.5906 23.7506 34.6953 23.4463 36.4643 22.6898C37.1189 22.8748 37.761 23.0927 38.4239 23.2366C40.512 23.693 41.8501 24.9471 42.2023 27.0193C42.5254 28.9436 41.0961 29.9222 39.7248 30.8637C38.2085 30.9501 36.6963 31.0447 35.238 30.4567C33.2204 29.6385 31.8863 28.3227 31.9319 26.0038Z" fill="#FBF2C1"/>
<path d="M30.5316 31.279C31.0868 30.3046 31.6833 30.1689 32.5741 30.0537C32.1515 30.9748 31.6833 31.3489 30.5316 31.279Z" fill="#818C33"/>
<path d="M36.1204 32.9895C35.9589 32.8414 35.7973 32.6934 35.6357 32.5454C35.7103 31.9369 35.8718 31.5093 36.5306 32.1301C36.3939 32.4179 36.2571 32.7058 36.1204 32.9895Z" fill="#9DA337"/>
<path d="M44.3317 28.002C44.746 28.4132 45.7155 28.1213 45.7445 28.9148C45.7611 29.4205 45.1148 29.252 44.746 29.3383C44.5182 29.2109 44.2945 29.0793 44.0666 28.9518C43.7642 28.7874 43.1303 28.9148 43.296 28.3433C43.412 27.9321 43.9672 28.0884 44.3317 28.002Z" fill="#869132"/>
<path d="M45.5622 25.9421C44.9822 25.9421 44.4063 25.9421 43.6813 25.9421C44.2116 24.9265 44.9615 25.2308 45.5788 25.1321C45.5746 25.3993 45.5663 25.6707 45.5622 25.9421Z" fill="#818930"/>
<path d="M41.0215 35.8306C41.7051 35.3496 42.4053 37.3067 43.0847 35.8183C43.4244 36.4268 43.3043 36.8585 42.6663 37.208C42.107 37.5164 41.498 37.7138 41.1292 37.0025C40.9677 36.6776 41.0505 36.2253 41.0215 35.8306Z" fill="#D6DF78"/>
<path d="M34.3597 19.8363C34.6373 20.5065 35.2877 21.1684 34.3928 21.8592C34.2354 21.5837 34.078 21.3082 33.9205 21.0369C33.8584 20.5599 33.2328 19.8815 34.3597 19.8363Z" fill="#8B962D"/>
<path d="M30.6683 22.2293C30.6393 21.666 30.9542 21.448 31.4803 21.4398C31.7289 21.5837 31.9775 21.7276 32.2261 21.8756C32.0272 22.1388 33.2411 23.1914 31.7496 22.7227C31.3768 22.6116 31.0287 22.3978 30.6683 22.2293Z" fill="#8B9633"/>
<path d="M29.4669 23.0804C29.7279 22.5417 30.2043 22.6692 30.6517 22.6939C30.8755 23.0146 31.0992 23.3312 31.3809 23.7382C30.5274 23.8451 29.9889 23.4792 29.4669 23.0804Z" fill="#96A038"/>
<path d="M35.2753 20.8395C35.644 21.0862 35.9299 21.4974 36.4601 21.4357C36.2199 21.8633 36.1121 22.3855 35.6233 22.6445C35.2918 22.0812 35.1468 21.485 35.2753 20.8395Z" fill="#C6D357"/>
<path d="M32.7025 21.851C32.6279 21.4974 32.0769 21.0739 32.6155 20.8107C33.0464 20.5969 33.1996 21.2753 33.5477 21.4563C33.6388 22.369 33.1499 22.0607 32.7025 21.851Z" fill="#7A8229"/>
<path d="M37.0277 29.4699C37.2059 27.7101 34.223 29.7495 34.8403 27.6731C34.977 27.2167 35.5321 26.5465 36.0044 26.7439C37.0982 27.2003 37.0029 28.3556 37.0277 29.4699Z" fill="#FCF7D3"/>
<path d="M38.6725 30.5225C37.7113 29.3301 37.5622 28.2816 37.8439 26.9988C39.3975 27.8869 38.9749 29.0587 38.6725 30.5225Z" fill="#FCF5D0"/>
</svg>
