<svg width="52" height="42" viewBox="0 0 52 42" fill="none" xmlns="http://www.w3.org/2000/svg">
<path d="M2.93864 19.663C3.12875 19.4015 3.31433 19.1445 3.50445 18.883C3.87562 17.3539 4.82618 16.2548 6.17959 15.457C6.40591 15.4747 6.60055 15.5634 6.76351 15.7185C7.15731 17.1057 5.86274 17.7927 5.39199 18.8209C4.80807 20.0885 4.13363 21.3206 3.50898 22.5749C2.68063 24.4629 1.04205 26.1648 2.13746 28.4739C2.53126 29.0501 3.16044 28.9349 3.7353 29.0146C4.29658 29.09 4.99819 29.0634 4.87145 29.9587C4.65418 30.2645 4.27395 30.3886 3.95257 30.783C7.28858 32.445 10.946 33.0123 14.368 34.0361C14.5083 34.4129 14.7482 34.0051 14.4902 34.1602C14.4404 34.1913 14.4313 34.1026 14.3408 33.9962C14.0602 33.6594 14.0783 33.3359 14.3227 32.999C16.3325 33.5619 17.9937 34.825 19.8631 35.6671C19.9084 35.9153 19.8269 36.1192 19.6277 36.2788C18.727 36.7707 17.7809 36.6599 16.8259 36.5048C16.1831 36.3231 15.5358 36.1901 14.8614 36.1857C11.7698 35.8311 8.94074 34.5591 5.72243 33.655C6.59151 34.6478 7.56017 35.0998 8.43831 35.6583C9.30739 36.1945 10.2489 36.5979 11.1632 37.0499C11.7109 37.3557 12.2994 37.5995 12.8063 37.9762C12.9738 38.1269 13.0553 38.3131 13.0598 38.5347C12.7792 39.0399 12.3718 38.9557 11.9418 38.7651C8.93169 38.056 6.6096 36.0306 3.90278 34.7364C0.0733839 32.7287 0.172969 29.0944 0.000962842 25.5931C-0.0216695 25.1587 0.358552 24.8042 0.734249 24.5427L0.851941 24.4408L0.811205 24.2945C1.1009 23.4923 0.811203 22.4995 1.64407 21.8835C2.00166 21.3117 2.36378 20.74 2.72137 20.1683C2.67158 19.9555 2.744 19.7871 2.93864 19.663Z" fill="#333231"/>
<path d="M36.0407 41.3623C35.8913 41.3712 35.7374 41.38 35.5881 41.3889C35.2622 41.2382 34.9906 41.0565 35.0539 40.6399C35.407 40.0504 36.0271 40.0283 36.611 39.9263C39.6483 39.3989 42.5996 38.6144 45.3109 37.1208C45.9899 36.6998 46.8092 36.5713 47.4519 36.0704C46.8409 36.4738 46.1302 36.6732 45.4784 36.9923C45.1299 37.2139 44.7632 37.3602 44.3377 37.3336C43.7493 37.2006 43.1609 37.1386 42.5588 37.2848C40.9972 37.5951 39.4175 37.5374 37.8377 37.5153C37.3443 37.4843 36.8781 37.3868 36.4888 37.0632C36.3485 36.8372 36.353 36.6156 36.5024 36.394C37.4349 35.6982 38.6208 36.0749 39.6211 35.6716C42.2148 35.3347 44.7677 34.7984 47.2664 34.0228C48.1852 33.4068 49.2716 32.968 49.7107 31.8334C50.6024 30.1891 49.0679 28.9304 48.9864 27.4457C49.1675 27.1399 49.3802 26.9094 49.7785 27.1266C52.6031 29.7326 52.7389 32.3874 50.1588 35.1353C46.9857 38.5169 42.8983 40.1524 38.3945 40.9812C37.6612 41.4066 36.7695 40.8881 36.0407 41.3623Z" fill="#373636"/>
<path d="M45.6187 1.92153C47.7507 4.04891 47.891 6.19845 45.9175 8.96405C43.5999 12.1994 40.4495 14.5396 37.0546 16.5916C36.1041 17.1633 35.1762 17.7661 34.2346 18.3511C32.7952 19.5744 31.3649 20.8198 29.2963 20.8685C28.9568 20.7622 28.7169 20.5627 28.6716 20.1904C29.681 18.7013 31.392 18.1916 32.8496 17.3362C33.9495 16.6935 35.0042 15.9933 36.0769 15.3196C37.3262 14.4908 38.4805 13.5246 39.8203 12.8332C40.1553 12.6426 40.4676 12.421 40.7166 12.1241C41.1964 11.4859 41.8255 11.0205 42.4864 10.5862C43.0205 10.2006 43.4867 9.73522 43.9349 9.26099C44.2608 8.9153 44.5052 8.52528 44.6546 8.07321C46.2026 6.07435 45.5191 4.12425 44.5233 2.17859C44.7904 1.69106 45.1706 1.66447 45.6187 1.92153Z" fill="#3A3938"/>
<path d="M17.9348 5.93696C24.8015 2.07665 31.9488 -0.755429 40.1145 0.179733C40.3363 0.374743 40.6803 0.463383 40.7211 0.822379C40.6849 1.03068 40.5717 1.18137 40.3816 1.27888C39.5125 1.5581 38.4397 0.69385 37.7019 1.73981C37.3081 1.92596 36.9007 1.92153 36.4843 1.85061C35.6469 1.58469 34.8231 1.66447 34.0038 1.93482C31.5233 2.2495 29.1107 2.8301 26.7614 3.65446C24.9961 4.42563 23.3847 5.48489 21.6013 6.21175C20.7775 6.54415 19.9582 6.91201 19.0257 6.72143C18.5595 6.58847 18.1702 6.36687 17.9348 5.93696Z" fill="#434241"/>
<path d="M28.8119 20.1461C28.9794 20.2924 29.1469 20.4431 29.3144 20.5893C30.3736 20.5539 27.8795 21.5023 29.5543 21.3738C31.6319 21.2142 33.7096 21.2275 35.6016 22.2956C38.6117 23.0624 41.6264 23.8291 44.6365 24.6003C44.6999 25.0346 44.4192 25.2164 44.0707 25.3493C43.0884 25.5754 42.2103 25.1233 41.2914 24.9371C38.4126 24.4629 35.5564 23.8291 32.6051 24.033C32.2566 24.1216 31.9035 24.1704 31.5459 24.1837C30.8307 24.1926 30.1427 24.0419 29.4547 23.8779C27.0738 23.3549 24.6974 23.3239 22.33 23.9887C22.0901 23.9931 21.8638 23.9399 21.6511 23.838C21.4564 23.6873 21.3523 23.4923 21.3387 23.253C21.4112 22.597 21.9136 22.3178 22.4251 22.043C24.2583 21.099 26.2635 20.6026 28.2145 19.96C28.4363 19.9378 28.6354 19.9998 28.8119 20.1461Z" fill="#454442"/>
<path d="M34.6828 41.8011C29.0609 42.2576 23.4798 41.9163 17.9394 40.9014C17.1834 40.7463 16.4275 40.5867 15.6761 40.4316C15.4 40.1302 15.4317 39.8155 15.6444 39.4964C16.7353 38.8006 17.9303 39.3058 19.0755 39.1906C20.5783 39.5851 22.0811 40.0017 23.6427 40.1302C26.5351 40.7285 29.4502 40.3385 32.3516 40.3474C33.3022 40.3518 34.3252 40.1435 35.1128 40.9324C35.2712 41.0831 35.4251 41.2382 35.5835 41.3889C35.2893 41.5263 34.986 41.6637 34.6828 41.8011Z" fill="#353332"/>
<path d="M6.21581 15.7008C8.77327 11.9468 12.4578 9.40282 16.1107 6.81894C17.0069 7.09373 17.1789 5.93253 17.9394 5.93696C18.306 5.97242 18.6636 6.0256 18.8537 6.39346C18.0616 8.34356 15.744 8.60062 14.549 10.1031C13.8701 10.5064 13.2499 10.9851 12.7068 11.5568C11.4167 12.6515 9.9773 13.5512 8.68726 14.6459C8.03092 15.0581 7.65523 16.011 6.61414 15.6875C6.47835 15.6963 6.34708 15.7008 6.21581 15.7008Z" fill="#383939"/>
<path d="M44.0797 25.0524C44.2653 24.8973 44.4509 24.7466 44.6365 24.5914C46.6643 24.8308 48.2803 25.8767 49.7831 27.131C49.5703 27.3172 49.3576 27.5077 49.1448 27.6939C47.0898 27.4811 45.2792 26.8296 44.0797 25.0524Z" fill="#444445"/>
<path d="M40.5717 1.05285C40.5717 0.915452 40.5717 0.778058 40.5717 0.640665C41.1964 0.259509 41.8346 0.352582 42.4819 0.578616C43.6542 0.747034 44.6953 1.20354 45.6187 1.92153C45.2475 1.95698 44.8809 2.0013 44.6546 2.35143C44.4871 2.49769 44.2925 2.56861 44.0661 2.55088C42.8757 2.10767 41.5449 1.97471 40.5717 1.05285Z" fill="#404040"/>
<path d="M15.6761 39.6161C15.6761 39.8864 15.6761 40.1612 15.6761 40.4316C14.4314 39.8776 13.1866 39.3236 11.9463 38.7696C12.3447 38.7252 12.7385 38.6765 12.9602 38.2865C14.1552 38.1579 15.2642 38.2023 15.6761 39.6161Z" fill="#353533"/>
<path d="M42.4819 0.578616C41.8436 0.600777 41.2099 0.618504 40.5717 0.640665C40.4223 0.485543 40.2684 0.334854 40.1191 0.179732C40.9112 0.268373 41.7712 -0.00641385 42.4819 0.578616Z" fill="#4D4C4C"/>
<path d="M36.0407 41.3623C36.7333 40.6753 37.5888 40.9812 38.399 40.9856C37.6793 41.5086 36.8555 41.4199 36.0407 41.3623Z" fill="#4C4B4B"/>
<path d="M6.60961 15.6919C7.22068 15.2487 7.83176 14.8011 8.44736 14.3578C8.91811 14.9961 8.54241 15.4393 8.03091 15.9135C8.86378 15.4171 9.31192 14.6282 10.009 14.0919C10.6744 13.5822 11.3171 13.0371 12.1455 13.8482C12.9376 14.6238 12.3854 15.1645 11.8105 15.6697C11.385 16.042 11.1723 16.4586 11.2719 17.0126C11.0772 17.4071 10.783 17.6907 10.3802 17.8725C10.8645 17.6553 11.2719 17.3716 11.3534 16.7955C11.7064 15.2841 13.0055 14.544 14.0557 13.6C15.2371 13.2011 15.8889 11.8848 17.2604 11.8094C17.5953 11.8493 17.8715 11.9823 18.0435 12.2837C18.0842 12.492 18.0525 12.6914 17.9529 12.882C16.9164 14.0166 15.5494 14.8011 14.5264 15.9534C14.3137 16.1484 14.0647 16.308 13.8384 16.6138C14.5445 16.7157 15.0696 16.0021 15.744 16.2858C16.9797 17.2697 16.5543 18.0896 15.3185 18.4664C14.5581 18.6968 14.024 19.109 13.4536 19.5522C12.58 19.7915 11.6883 19.9865 10.9731 20.5893C9.23948 22.0076 7.61902 23.5632 5.80843 24.8662C4.79903 25.5931 3.14686 25.4646 2.81643 27.0823C2.8798 27.2906 2.98843 27.4767 3.15591 27.623C3.16497 27.6274 3.22834 27.5343 3.1876 27.4944C3.08802 27.3925 2.97033 27.3039 2.88885 27.1709C2.86169 26.5593 3.28718 26.0496 3.70814 25.9388C5.51873 25.4557 6.69108 24.0153 8.26177 23.1953C8.98148 22.8186 9.71929 22.2735 10.5838 22.6901C11.4394 23.1067 11.7969 22.371 12.3537 22.0873C13.5215 21.427 14.7889 20.9572 15.9115 20.2126C16.7398 19.7384 17.4731 19.0913 18.4237 18.8254C18.7587 18.7544 19.0936 18.7456 19.4331 18.7988C20.9223 19.3262 20.2433 20.0974 19.6775 20.8597C18.65 21.8569 17.4052 22.4774 16.0201 22.8541C15.1737 23.1156 14.282 23.2707 13.5668 23.8513C12.8063 24.3167 12.0006 24.7067 11.3262 25.3006C10.946 25.6906 10.2081 25.7128 10.0859 26.5726C11.6023 26.6701 12.5574 25.4468 13.8429 25.1499C14.1371 25.0391 14.4449 24.9726 14.7573 24.9283C15.2823 24.8707 15.7893 24.751 16.2691 24.5205C17.274 24.0862 18.3151 23.7361 19.3109 23.2884C20.0306 22.9649 20.782 22.5527 21.556 23.2086C21.556 23.3327 21.556 23.4568 21.556 23.5809C20.9449 24.9549 19.3878 25.2164 18.4056 26.156C18.2064 26.249 17.9937 26.3155 17.7809 26.3643C14.9428 26.7942 12.5121 28.5005 9.65593 28.8728C8.59221 28.5759 7.61448 29.0457 6.60508 29.2141C6.40592 29.2495 5.72695 29.0191 6.32897 29.6174C6.29729 29.8346 6.18864 29.9897 5.994 30.1005C5.55041 30.2423 5.14304 30.2201 4.81713 29.8479C3.99332 28.7709 2.38189 30.3841 1.65765 28.9659C1.15069 26.5681 2.57653 24.5516 3.00655 22.3355C4.20606 20.1195 5.4101 17.9079 6.60961 15.6919Z" fill="#3C3C3B"/>
<path d="M15.6761 39.6161C14.7708 39.1729 13.8655 38.7341 12.9602 38.2909C12.8154 38.2865 12.666 38.282 12.5212 38.282C12.1907 37.7989 11.8332 37.3602 11.1497 37.4089C10.1176 37.2095 9.18517 36.815 8.43378 36.0704C7.92229 35.45 7.017 35.2638 6.58246 34.5015C7.3248 33.6505 8.08071 34.1425 8.82305 34.4084C10.6563 35.0599 12.5483 35.5297 14.3997 36.1281C15.2597 36.4073 14.4947 35.6849 14.7663 35.6405C15.3955 35.6937 16.1061 35.4278 16.5814 36.0793C19.3833 36.9436 22.2893 37.143 25.1953 37.2183C28.563 37.3026 31.9352 37.2228 35.3029 37.2449C37.1542 37.7236 39.1006 37.0765 40.9429 37.6837C41.133 37.8743 41.1964 38.1048 41.133 38.3618C39.689 39.7446 37.7879 39.7889 35.9638 40.0593C34.8548 40.2233 33.7186 40.1922 32.6142 40.4094C32.157 40.5069 31.6953 40.4981 31.2336 40.4892C30.79 40.4449 30.2649 40.405 30.197 39.882C30.1382 39.461 30.5818 39.3413 30.9394 39.1995C31.392 39.0222 31.9669 39.1995 32.2973 38.7962C30.79 39.461 29.1605 39.0709 27.5128 39.133C27.9836 39.359 28.563 39.4743 28.4725 40.077C28.3548 40.8571 27.7301 40.6089 27.2413 40.5335C26.3541 40.4006 25.4533 40.7507 24.5752 40.4316C22.4704 40.0017 20.2841 39.8731 18.392 38.7119C17.0929 37.8654 15.572 38.579 14.8568 38.2067C15.5403 38.4327 16.9481 38.0471 18.2517 38.5878C18.5731 38.8626 19.0574 39.0355 18.8628 39.6028C17.799 40.0637 16.7353 39.39 15.6761 39.6161Z" fill="#403F3E"/>
<path d="M4.81261 29.8479C5.23809 29.8257 5.6681 29.808 6.09359 29.7858C6.32444 29.706 6.5553 29.7592 6.62319 29.9808C6.78162 30.4994 6.29729 30.7032 6.02118 31.0002C6.83142 30.783 7.65522 32.1392 8.56957 30.752C9.06295 29.9985 10.3983 29.9454 11.462 29.9852C12.1364 30.167 12.2586 30.5747 11.9282 31.1331C11.5797 31.7137 11.5344 32.352 12.15 32.6533C12.6162 32.8794 12.6389 31.8689 13.2364 31.9353C13.7071 31.9797 13.9923 32.2677 14.2186 32.64C14.2458 32.742 14.2684 32.8439 14.291 32.9459C14.5038 33.4644 14.7165 33.9829 14.961 34.5813C10.688 33.8057 6.59151 32.7996 2.71685 30.8096C3.32792 29.9941 4.19248 30.1936 4.81261 29.8479Z" fill="#999C9E"/>
<path d="M35.5835 37.8344C30.3238 37.7679 25.0595 38.1048 19.8133 37.4267C18.564 37.2627 17.4912 36.9081 16.5814 36.0749C17.6361 36.0749 18.6953 36.0793 19.75 36.0793C21.0672 35.6893 22.3798 35.9508 23.697 36.1059C24.2809 36.2743 24.8694 36.425 25.4624 36.5801C27.5491 37.0278 29.6674 36.6909 31.7677 36.7929C32.2656 36.7929 32.7681 36.7973 33.266 36.8017C34.0174 36.8328 34.7869 36.7707 35.4704 37.1917C35.6922 37.3735 35.7329 37.5862 35.5835 37.8344Z" fill="#555655"/>
<path d="M14.7663 35.6317C15.0605 35.8355 15.3547 36.035 16.0428 36.5092C12.6434 36.4294 10.0135 34.8827 6.89478 34.1514C7.31122 35.1397 8.52884 35.1264 8.43378 36.066C6.78162 35.6228 5.60021 34.5946 4.25133 32.9193C8.21199 33.4201 11.29 35.3126 14.7663 35.6317Z" fill="#545351"/>
<path d="M19.7364 35.6893C17.4958 35.5829 15.744 34.5458 14.291 32.9459L14.3272 32.9857C14.3861 31.9398 15.2144 32.0772 15.7576 32.2943C18.0073 33.1896 20.2252 34.1514 22.6514 34.5281C22.8642 34.5591 22.9411 34.8339 23.0135 35.0378C22.4975 35.8976 21.5379 35.6893 20.7639 35.9286C20.3972 35.9463 20.0532 35.8577 19.7364 35.6893Z" fill="#DF9A3E"/>
<path d="M3.00202 22.3355C3.26908 22.5128 3.45919 22.7787 3.29624 23.058C2.22799 24.8928 2.30948 27.0246 1.64861 28.9659C0.290671 26.3997 2.03788 24.4452 3.00202 22.3355Z" fill="#515151"/>
<path d="M19.7364 35.6893C20.0532 35.6494 20.3655 35.6139 20.6824 35.5741C21.1713 35.3303 21.6692 35.3968 22.1716 35.5209C23.1312 35.7026 24.0908 35.317 25.0414 35.5164C25.6842 35.6538 26.6573 35.4411 26.4989 36.62C25.58 37.0632 24.6929 36.7441 23.7966 36.5181C22.4387 36.4383 21.0355 36.7884 19.75 36.0793C19.7454 35.9508 19.7409 35.8178 19.7364 35.6893Z" fill="#5A452E"/>
<path d="M11.1497 37.4045C12.3311 36.6067 12.2994 37.635 12.5212 38.2776C12.064 37.9851 11.6068 37.6926 11.1497 37.4045Z" fill="#353533"/>
<path d="M24.7517 40.046C25.8833 40.5734 26.9923 39.6116 28.1284 40.2011C27.6079 39.1995 25.829 40.0061 26.0191 38.9779C26.2907 37.4931 27.6124 38.7829 28.4589 38.6942C29.9119 38.5435 31.3966 38.6543 33.5195 38.6543C32.1253 39.2128 31.3603 39.5186 30.5954 39.8244C30.6316 39.882 30.6587 39.9662 30.7085 39.9839C30.8443 40.0371 30.9937 40.0593 31.1385 40.0947C31.5776 40.2942 32.0257 40.5778 32.4105 40.0105C34.2709 39.0887 36.3983 40.0504 38.2904 39.195C39.1594 38.8006 40.1145 38.5878 41.0289 38.2909C41.8799 37.3735 43.1835 37.502 44.1974 36.9613C44.6501 36.9613 45.1027 36.9613 45.5554 36.9613L45.5508 36.9524C43.2287 39.7845 39.689 39.656 36.5477 40.4848C36.0633 40.6133 35.5021 40.467 35.1264 40.9324C31.8401 40.7374 28.5585 41.4022 25.2677 40.9501C24.6159 40.8615 23.8917 41.092 23.3575 40.5158C23.6925 40.015 24.2447 40.0859 24.7517 40.046Z" fill="#4C4B4B"/>
<path d="M44.0797 25.0524C45.7681 25.9344 47.4565 26.8119 49.1448 27.6939C50.3851 28.9659 51.2044 30.3221 50.0954 32.0816C49.7469 32.4938 49.4255 32.9724 48.7556 32.64C48.4296 32.2057 48.6877 31.8556 48.9095 31.4921C49.7966 30.0207 48.9638 29.2318 47.728 28.5626C45.7907 27.5122 43.7674 26.6302 41.7622 25.7039C41.5177 25.3405 40.4178 25.1632 41.477 24.5028C42.3461 24.6889 43.2106 24.8707 44.0797 25.0524Z" fill="#747779"/>
<path d="M47.8322 34.3109C45.243 35.4234 42.5362 36.0084 39.7071 36.0173C39.508 35.4987 39.8339 35.2151 40.2051 34.9491C40.5989 34.7497 41.0243 34.6876 41.4589 34.6611C43.0658 34.732 44.3875 33.9785 45.7274 33.265C46.1619 33.2073 46.5376 33.3713 46.9178 33.5397C47.2845 33.7215 47.6375 33.9253 47.8322 34.3109Z" fill="#6F7275"/>
<path d="M23.7966 36.5181C24.7472 36.4959 25.6977 36.4738 26.6483 36.4472C29.6674 35.3436 32.7635 36.0128 35.8325 36.0616C36.1086 36.1635 36.3349 36.3275 36.5115 36.558C36.5024 36.6909 36.4979 36.8239 36.4934 36.9613C35.5066 37.6084 34.3116 36.7707 33.3203 37.3956C32.8722 37.3956 32.4241 37.3912 31.9759 37.3912C29.7353 36.7973 27.4087 37.5507 25.1636 36.9746C24.6657 36.9436 24.1316 37.01 23.7966 36.5181Z" fill="#423427"/>
<path d="M35.5835 37.8344C35.5881 37.6926 35.5881 37.5507 35.5835 37.4089C36.2625 36.8726 37.1769 37.4976 37.8604 36.9657C39.517 36.9613 41.1783 36.9613 42.8349 36.9569C42.6222 38.0205 41.7803 37.8477 41.0244 37.8433C39.2092 37.8433 37.3941 37.8388 35.5835 37.8344Z" fill="#4C4B4B"/>
<path d="M45.5508 36.9613C46.2162 35.676 47.8276 35.8223 48.7239 34.8871C47.9453 36.004 47.4021 37.4843 45.5463 36.9524C45.5418 36.9524 45.5508 36.9613 45.5508 36.9613Z" fill="#4C4B4B"/>
<path d="M47.8322 34.3109C47.4474 34.2799 47.0944 34.1913 46.9269 33.7968C46.7956 33.4733 46.9902 33.2915 47.2256 33.1231C47.719 32.8971 48.1807 32.5691 48.7556 32.5558C49.2037 32.4007 49.6518 32.2412 50.0954 32.086C50.032 33.4999 48.6424 33.624 47.8322 34.3109Z" fill="#86898C"/>
<path d="M36.5115 36.558C36.3259 36.5269 36.1403 36.4959 35.9592 36.4649C36.1946 35.3392 37.2991 35.6139 38.0052 35.2372C38.6208 35.0954 39.2183 34.8073 39.8746 34.9979C39.9561 35.0644 40.0376 35.1308 40.1191 35.1973C39.9787 35.4721 39.8429 35.7425 39.7026 36.0173C38.7747 36.9657 37.5616 36.3009 36.5115 36.558Z" fill="#403F3E"/>
<path d="M41.0198 37.8433C41.6218 37.5463 42.2284 37.2494 42.8304 36.9569C43.2831 36.6821 43.7357 36.6865 44.1884 36.9569C43.4415 38.1136 42.1967 38.1269 41.0198 38.2865C41.0198 38.1402 41.0198 37.994 41.0198 37.8433Z" fill="#363636"/>
<path d="M37.8604 36.9657C37.2176 37.6837 36.3485 37.2981 35.5835 37.4089C34.8276 37.4045 34.0762 37.3956 33.3203 37.3912C34.2799 36.5624 35.4387 37.1253 36.4934 36.9569C36.946 36.9613 37.4032 36.9613 37.8604 36.9657Z" fill="#403F3E"/>
<path d="M40.9836 12.5053C40.8433 12.9086 40.5129 13.0105 40.1281 13.0238C38.5755 13.5113 37.4711 14.708 36.0814 15.4526C34.5515 16.0996 33.5195 17.7572 31.5867 17.5888C31.2155 15.6033 33.4787 16.1484 33.8092 15.2044C32.3878 16.0021 30.6859 16.8974 28.9568 17.7351C28.314 18.0276 27.6803 18.3334 27.0919 18.7278C26.3224 19.2686 25.3628 19.2331 24.5163 19.5345C24.0727 19.7295 23.6201 19.9112 23.3711 20.3544C23.2851 20.7001 23.5612 21.0192 23.4481 21.3649C23.1901 21.8391 22.7012 21.9677 22.2395 22.1361C20.8589 21.8923 20.7594 21.1034 21.3252 20.053C21.9046 18.9805 22.7736 18.1916 23.8781 17.6464C24.9871 17.0969 25.8471 16.2016 26.8565 15.5146C27.0511 15.4437 27.2548 15.4171 27.4631 15.4348C28.3412 15.9888 29.174 15.8071 29.9843 15.2886C30.2966 15.0005 30.9213 14.9252 30.6587 14.2781C30.3962 14.0166 30.0929 13.7994 29.8666 13.5113C29.5995 13.139 29.414 12.6958 29.6765 12.3058C30.36 11.2864 29.0473 11.9734 29.0428 11.5657C28.8165 11.3662 28.6263 11.1402 28.4317 10.9141C26.7795 10.0676 28.1013 9.03496 28.2461 8.07321C28.8119 7.35965 29.3144 6.57961 30.1699 6.14083C30.4822 6.05219 30.79 6.06549 31.0978 6.17629C31.6455 6.56631 32.3109 6.69484 32.9039 6.98292C33.4108 7.23112 33.4787 7.55466 32.9944 7.96241C32.7726 8.14412 32.2928 7.88263 32.2973 8.38345C32.75 8.27265 32.8948 9.03939 33.4335 8.74245C34.0129 8.41891 34.5922 8.0998 35.0902 7.66103C35.2486 7.52363 35.4206 7.41283 35.6062 7.31089C36.4526 7.15134 37.4303 7.35078 37.2538 5.83502C37.0954 4.49211 38.82 4.30597 39.4446 3.37524C40.789 1.54037 42.6086 2.78134 44.22 2.67054C46.18 4.41234 46.5285 5.31647 45.1842 7.08486C44.2381 8.32583 43.4415 9.69534 42.3234 10.8122C41.7757 11.3086 40.9112 11.5524 40.9836 12.5053Z" fill="#404040"/>
<path d="M41.9115 10.8078C42.8893 9.49146 43.4415 7.989 44.8809 6.8411C46.2388 5.75968 45.4512 4.02675 44.1748 2.84782C44.0661 2.74145 44.0299 2.63065 44.0707 2.52872C44.1114 2.42678 44.1476 2.37359 44.1884 2.37359C44.3423 2.36473 44.5007 2.3603 44.6546 2.35143C47.3388 4.25278 45.9763 6.42005 45.0755 8.5563C44.804 8.8887 44.2246 8.93746 44.1838 9.4826C43.8941 10.0809 43.437 10.5197 42.8349 10.8078C42.5226 11.0693 42.2193 11.0648 41.9115 10.8078Z" fill="#595958"/>
<path d="M31.5142 17.4913C33.3112 17.2963 34.3025 15.5456 36.0452 15.2487C36.525 15.0625 36.5884 15.2753 36.4707 15.6697C34.0717 17.416 31.4056 18.719 28.8119 20.1461C28.658 20.1461 28.4996 20.1417 28.3457 20.1417C28.1103 19.6985 28.3502 19.3661 28.6037 19.0337C29.4773 18.3467 30.3871 17.7262 31.5142 17.4913Z" fill="#5D5E5D"/>
<path d="M36.4707 15.6653C36.3304 15.5235 36.1856 15.3861 36.0452 15.2443C37.3126 14.3357 38.3809 13.0814 40.1326 13.0238C38.9105 13.9058 37.6883 14.7878 36.4707 15.6653Z" fill="#4E4F4D"/>
<path d="M41.9115 10.8078C42.2148 10.8078 42.5226 10.8122 42.8259 10.8122C42.2103 11.3795 41.5947 11.9424 40.9791 12.5097C40.2911 11.415 41.4046 11.2687 41.9115 10.8078Z" fill="#5A5A5A"/>
<path d="M44.1793 9.48703C43.8081 8.71142 43.8081 8.71142 45.071 8.56073C44.9352 9.01723 44.6229 9.30975 44.1793 9.48703Z" fill="#404040"/>
<path d="M31.0616 6.38903C30.7628 6.38903 30.4596 6.3846 30.1608 6.3846C29.6131 6.62393 29.1695 6.42449 28.7622 6.06549C28.7576 4.91316 27.7075 5.70649 27.291 5.31647C27.0104 5.14362 26.8384 4.91759 26.9199 4.57632C27.4766 4.0888 28.1239 4.03118 28.744 4.09323C28.4 3.72537 27.8885 4.30154 27.4449 4.0888C26.9968 3.96913 26.6573 3.73423 26.5306 3.2733C28.9749 2.17859 31.5188 1.47832 34.2301 1.51378C34.986 1.63344 35.742 1.31877 36.4979 1.50491C36.9505 1.50935 37.3986 1.50935 37.8513 1.51378C37.969 2.68384 37.023 2.77248 36.2444 3.03397C35.5745 3.04727 34.9091 3.15364 34.2392 3.10931C33.4923 3.27773 33.8046 4.28824 33.1076 4.49211C32.9672 4.65167 32.8179 4.82452 32.836 5.04612C32.8903 5.6799 34.1215 6.25607 33.1845 6.85439C32.6051 7.22225 31.6229 7.19123 31.0616 6.38903Z" fill="#525251"/>
<path d="M36.0407 2.83453C36.4979 2.20075 37.6159 2.43564 37.8513 1.50935C37.5752 0.897724 37.7019 0.525431 38.4578 0.636232C39.1685 0.738169 39.8656 0.91102 40.5672 1.05285C41.8844 1.1991 43.1563 1.46503 44.1838 2.37359C44.1793 2.53315 44.1748 2.68827 44.1703 2.84782C42.7987 3.80071 40.8705 1.98358 39.6528 3.71651C38.2542 4.20403 37.1361 3.55695 36.0407 2.83453Z" fill="#4D4C4C"/>
<path d="M26.5306 3.26887C26.8429 3.42842 27.1507 3.58798 27.4631 3.7431C27.5853 4.16414 27.3137 4.31926 26.9787 4.42563C25.8381 5.72422 24.0773 5.87048 22.6197 6.53972C20.008 7.73637 17.5365 9.20781 14.8523 10.2493C14.6215 10.2006 14.4314 10.0898 14.282 9.91251C15.3502 8.17514 17.446 7.71421 18.8492 6.39789C20.9133 6.26493 22.5654 5.09487 24.3353 4.24392C25.0595 3.89379 25.6932 3.37081 26.5306 3.26887Z" fill="#646564"/>
<path d="M36.4979 1.50048C35.742 1.81516 34.9906 2.35143 34.2301 1.50935C34.986 0.848971 35.742 0.857835 36.4979 1.50048Z" fill="#4D4C4C"/>
<path d="M29.6584 23.3948C30.2287 23.5012 30.7945 23.6075 31.3649 23.7095C33.3429 24.0818 35.2169 24.9017 37.2448 25.0612C37.9961 25.3227 38.7113 25.6729 39.4627 25.9432C40.961 26.8385 42.2012 27.8889 41.9161 29.8567C41.8663 30.0916 41.7803 30.3132 41.6626 30.526C39.431 33.0168 36.6744 34.1824 33.2705 33.7392C32.2023 32.8705 30.9167 33.296 29.8621 33.163C29.423 33.194 29.7625 33.6771 29.7037 33.3846C29.6946 33.3359 29.7218 33.3093 29.7851 33.296C30.704 33.1542 31.6229 33.0301 32.5237 33.4245C32.5734 33.6949 32.4874 33.9076 32.2656 34.076C29.9255 34.5635 27.5898 34.927 25.3401 33.7303C24.8558 31.9132 26.8837 32.6533 27.368 31.8201C27.9248 31.5763 28.5132 31.5276 29.1152 31.5631C32.4693 32.2545 35.7374 32.0107 38.6706 30.7963C37.1542 30.9647 35.5564 31.8423 33.773 31.9664C32.9039 31.8334 33.5285 31.0268 33.1483 30.6678C32.234 29.7193 31.0616 29.6573 29.8485 29.7016C29.0564 29.7326 28.2416 29.2052 28.7124 28.598C29.7218 27.2994 28.7667 26.4618 28.3684 25.4601C28.7214 25.1233 29.1469 25.2341 29.5588 25.2651C29.156 25.1543 28.735 25.243 28.3276 25.1632C27.4857 24.7599 26.7388 24.3211 28.1601 23.7095C28.6218 23.5145 29.1424 23.4302 29.6584 23.3948Z" fill="#F1A33B"/>
<path d="M29.6584 23.3948C29.2103 23.6164 28.7757 23.8956 28.305 24.0552C27.1009 24.4629 28.4815 24.6624 28.3638 24.977C28.2869 25.0524 28.2144 25.1322 28.1375 25.2075C27.1417 25.664 26.0417 25.6241 24.9916 25.828C24.2945 25.7748 23.5929 25.6507 22.8958 25.8634C21.9815 25.8634 21.1939 26.4352 20.275 26.4307C20.1075 26.3111 20.0034 26.1515 19.9582 25.9521C19.9536 24.5959 21.6239 24.6978 22.0132 23.6829C24.5163 22.433 27.0828 22.7566 29.6584 23.3948Z" fill="#F1A945"/>
<path d="M39.2409 26.2623C38.5257 26.1914 37.883 25.9432 37.3262 25.4956C35.8234 24.5693 33.773 25.0346 32.4558 23.6518C33.6553 22.628 34.8548 23.5942 36.0543 23.6386C37.9056 23.705 39.7343 23.869 41.4815 24.5117C40.9519 25.141 41.984 25.0347 41.9342 25.4335C41.4951 26.577 40.4812 26.0762 40.0512 25.7482C38.9558 24.9106 39.5895 26.2535 39.2409 26.2623Z" fill="#555A5B"/>
<path d="M21.556 23.2086C19.5825 23.3239 18.0752 24.7953 16.1288 24.9903C15.2687 25.3493 14.9021 25.0967 15.4498 24.2945C16.5814 22.6458 20.0396 21.5954 22.1942 22.145C22.2893 22.2114 22.3798 22.2735 22.4749 22.34C22.1671 22.628 21.8593 22.9206 21.556 23.2086Z" fill="#555553"/>
<path d="M28.8029 19.2331C28.649 19.5345 28.4996 19.8403 28.3457 20.1417C26.5668 21.3339 24.4575 21.6796 22.4704 22.3444L22.4613 22.3355C22.3074 22.2425 22.2531 22.1405 22.2984 22.0386C22.3481 21.9366 22.3934 21.8835 22.4432 21.8835C22.7555 21.591 23.0724 21.3029 23.3847 21.0104C25.0414 19.9733 26.6664 18.8652 28.8029 19.2331Z" fill="#565553"/>
<path d="M32.4512 23.6474C34.1124 24.1394 35.7737 24.6313 37.4349 25.1322C37.462 25.141 37.4756 25.2651 37.4575 25.3227C37.4349 25.3848 37.3715 25.4335 37.3217 25.4911C35.1354 25.5399 33.1664 24.8884 31.3649 23.7095C31.727 23.6917 32.0891 23.6696 32.4512 23.6474Z" fill="#504335"/>
<path d="M22.0177 23.6873C22.7963 25.5177 20.2026 24.6668 20.2026 25.8812C19.5282 26.2047 18.8492 26.4928 18.2155 25.8058C19.0121 24.6047 20.4018 24.2635 21.5605 23.5854C21.7099 23.6164 21.8638 23.6518 22.0177 23.6873Z" fill="#EBA13B"/>
<path d="M24.7517 40.046C24.4167 40.5778 23.86 40.4848 23.3485 40.5202C21.7371 40.7551 20.3203 40.0814 18.8582 39.6028C18.7043 39.3103 18.5459 39.0178 18.392 38.7297L18.3875 38.7341C20.5104 39.1684 22.6288 39.6072 24.7517 40.046Z" fill="#565654"/>
<path d="M14.3453 13.8925C13.508 14.9961 11.7924 15.3595 11.6068 17.0126C11.4394 17.1678 11.2809 17.1633 11.1316 16.9949C10.9731 16.6404 10.181 16.4365 11.0455 15.8692C11.5163 15.5589 12.9376 15.2044 11.7562 14.154C10.6789 13.2011 10.4616 14.5795 9.90941 14.9429C9.1716 15.4348 8.53789 16.0775 7.74576 16.7556C7.28406 15.6697 8.59673 15.2044 8.44736 14.3623C9.5835 13.0637 11.1089 12.2438 12.4759 11.2288C12.8697 11.2421 13.268 11.2244 13.6347 11.4194C13.8157 11.5213 13.938 11.6765 14.0013 11.8715C13.5034 12.6426 14.1779 13.2232 14.3453 13.8925Z" fill="#595A58"/>
<path d="M13.3812 11.6986C13.001 11.6853 12.666 11.5923 12.4759 11.2288C12.924 10.5862 13.4084 9.99672 14.2775 9.91251C14.4495 9.92137 14.626 9.93023 14.798 9.9391C15.0605 11.0914 14.0375 11.251 13.3812 11.6986Z" fill="#666766"/>
<path d="M28.8074 10.8122C28.9568 10.9585 29.1062 11.1092 29.251 11.2554C28.7848 12.7357 27.5083 12.8908 26.2228 13.0327C25.4442 13.3784 24.7064 13.7994 23.955 14.1894C23.3575 14.4908 22.8098 14.8631 22.2576 15.231C21.5062 15.6919 20.9495 16.3833 20.2298 16.8841C19.75 17.1944 19.2656 17.7085 18.736 17.6819C17.5048 17.6198 18.3875 18.5107 18.0978 18.8386C17.4596 19.5168 16.5859 19.8669 15.8391 20.3987C14.6848 20.966 13.5079 21.4934 12.5031 22.3134C11.548 23.4302 11.5525 23.4214 10.2987 22.9737C10.1267 22.9117 9.84604 22.9605 9.68309 23.0624C7.46965 24.4718 4.95292 25.4158 2.98391 27.2108C2.84359 27.357 2.69875 27.3615 2.5539 27.2152C3.01108 26.156 3.47278 25.0923 4.01143 23.8424C4.57271 25.8413 5.34673 24.813 6.04834 24.2059C7.60544 22.8541 9.14443 21.4846 10.6925 20.1239C11.7834 20.35 12.5167 19.5256 13.4265 19.2198C13.7207 18.4708 14.11 18.001 15.0967 18.0099C16.3008 18.0232 16.3325 17.3539 15.6354 16.5517C15.7712 15.4171 14.4178 16.401 14.291 15.6431C15.1465 14.2559 16.5905 13.5158 17.8307 12.5496C17.9394 12.6116 18.048 12.6737 18.1521 12.7402C18.2381 12.4831 17.8669 12.6958 17.8941 12.5008C17.7311 12.3679 17.5727 12.2349 17.4098 12.1064C18.1883 10.4887 19.501 9.57567 21.2889 9.29645C21.4926 9.33634 21.6646 9.42941 21.814 9.56681C22.0947 9.84602 22.4206 9.96126 22.8189 9.815C23.7151 9.58453 24.0773 8.47209 25.1093 8.48096C25.2903 8.57403 25.4442 8.70256 25.5755 8.85768C26.4672 9.81057 27.6894 10.2316 28.8074 10.8122Z" fill="#494949"/>
<path d="M11.6023 30.2955C10.8283 31.2262 8.41115 29.6395 8.66463 32.1348C8.32515 32.0683 7.97661 32.0329 7.65523 31.9265C6.83594 31.6561 6.0257 31.3503 5.22452 31.0667C5.28789 30.4506 6.82688 30.8849 6.09359 29.7858C6.12528 29.6661 6.16149 29.5509 6.1977 29.4357C7.20711 29.0235 8.09883 28.2479 9.31645 28.4916C12.2405 27.9775 14.7482 26.1161 17.7809 25.9432C18.0661 27.4324 16.7127 27.8978 15.9568 28.7398C15.7667 28.8108 15.572 28.8595 15.3729 28.8905C14.0466 29.1697 13.096 30.4417 11.6023 30.2955Z" fill="#7B7D81"/>
<path d="M15.7757 28.5404C16.4456 27.6761 17.1155 26.8075 17.7809 25.9432C17.9258 25.8989 18.0706 25.8501 18.211 25.8058C18.8673 25.9654 19.5553 25.4158 20.1981 25.8812C20.1981 26.0274 20.1936 26.1737 20.189 26.3155C20.3112 27.2994 20.3746 28.2656 19.3471 28.8772C19.8586 30.2999 21.2256 30.3088 22.3798 30.6633C24.0546 31.1819 25.9467 30.9692 27.445 32.0993C27.3046 33.5575 25.666 32.5115 25.1817 33.3979C23.8509 34.3419 22.6559 33.5796 21.4338 33.1187C19.5644 32.0417 17.3509 31.5852 15.7169 30.0827C15.3276 29.5509 15.1601 29.0324 15.7757 28.5404Z" fill="#F19C2C"/>
<path d="M22.4477 21.879C22.4522 22.0297 22.4568 22.1804 22.4613 22.3311C19.7228 21.6619 17.8171 23.3992 15.7123 24.5649C15.6625 24.5914 15.6309 24.6624 15.5947 24.7155C15.7712 24.8086 15.9522 24.9017 16.1288 24.9948C15.7983 25.5133 15.2642 25.4247 14.7618 25.4335C14.0375 25.0479 12.9557 24.9238 13.4129 23.6696C13.6392 22.2868 15.0696 22.987 15.7395 22.3799C17.4369 22.7743 18.4192 21.817 19.2566 20.5893C19.6458 20.1284 20.6281 19.6719 19.2656 19.2065C18.2426 17.7439 19.501 17.252 20.4108 16.6093C20.7186 16.3079 21.0128 15.9755 21.4926 15.9445C22.6016 15.7983 22.4251 17.642 23.6699 17.2919C24.0003 17.3805 24.1995 17.5888 24.2719 17.9124C23.2851 18.6215 22.3119 19.2996 21.6963 20.4209C21.1577 21.4137 21.6013 21.6885 22.4477 21.879Z" fill="#484847"/>
<path d="M21.5741 9.55351C19.9355 10.0056 18.7451 11.1623 17.4233 12.1108C16.0971 12.2127 15.7486 13.9235 14.3453 13.8925C14.0511 13.1701 13.2907 13.5867 12.7113 13.241C13.1187 12.7224 13.5125 12.2216 13.9063 11.7208C16.0654 9.45157 18.3377 7.4084 21.8502 7.63C22.3979 7.66546 23.1358 7.14248 23.3621 7.96684C23.5386 8.59619 22.9366 8.9995 22.4251 9.32304C22.1716 9.49146 21.8819 9.55351 21.5741 9.55351Z" fill="#939493"/>
<path d="M13.8701 25.4513C13.3676 26.444 12.1138 26.2579 11.3714 26.9892C10.9505 27.4014 9.91393 27.911 9.34812 26.772C8.70083 25.469 9.85961 25.5754 10.5205 25.2873C10.7242 25.1986 10.9143 25.0834 11.1089 24.9815C12.1364 24.5471 13.2952 23.3549 13.8701 25.4513Z" fill="#444443"/>
<path d="M14.3046 15.6476C15.0696 15.5368 15.8346 15.426 16.6176 15.3107C16.767 16.1395 15.8165 16.042 15.649 16.5561C15.4362 16.6049 15.219 16.6404 15.0153 16.7068C14.3272 16.924 13.7569 18.4885 12.9693 17.1412C12.3582 16.0952 13.8339 16.1484 14.3046 15.6476Z" fill="#6F7070"/>
<path d="M20.6734 16.5872C20.103 17.4071 18.899 17.9035 19.2656 19.2065C18.9714 19.2154 18.6817 19.2198 18.3875 19.2287C18.2155 19.0957 17.9529 19.0514 17.9258 18.7766C17.4867 16.8664 19.2294 17.1013 20.189 16.5694C20.361 16.3833 20.5195 16.3877 20.6734 16.5872Z" fill="#5B5C5B"/>
<path d="M12.5076 22.3178C13.1006 20.9394 14.4585 20.6203 15.6897 20.1372C15.8934 20.2259 16.0382 20.3677 16.1242 20.5671C15.0651 21.4314 13.8565 22.0031 12.5076 22.3178Z" fill="#5B5B5A"/>
<path d="M19.2611 20.5893C18.4735 22.5305 16.8847 23.3372 15.7395 22.3799C17.0974 22.1272 18.2155 21.4314 19.2611 20.5893Z" fill="#676968"/>
<path d="M13.8701 25.4513C13.182 23.9843 12.0368 25.0967 11.1089 24.9815C11.6068 24.0951 12.4759 23.8247 13.4129 23.6696C13.861 24.259 14.3137 24.8441 14.7618 25.4335C14.463 25.438 14.1688 25.4424 13.8701 25.4513Z" fill="#555553"/>
<path d="M13.4401 19.2198C12.5891 19.694 12.236 21.6131 10.7061 20.1239C11.4982 19.4813 12.3628 19.0425 13.4401 19.2198Z" fill="#5D5E5C"/>
<path d="M9.31645 28.4916C8.2482 28.7088 7.34743 29.4667 6.1977 29.4357C6.12528 29.4268 6.03475 29.4357 5.98043 29.4002C5.87179 29.3293 5.78579 29.2362 5.68621 29.152C6.88572 28.8684 7.92229 27.7382 9.31645 28.4916Z" fill="#333231"/>
<path d="M2.56748 27.2152C2.71233 27.2108 2.85264 27.2108 2.99749 27.2108C3.52256 27.3216 4.23322 26.9227 4.55008 27.5786C4.75377 27.9997 4.22417 28.1637 3.92542 28.2745C2.91149 28.6468 2.64896 28.0263 2.56748 27.2152Z" fill="#515250"/>
<path d="M16.1288 20.5627C15.9839 20.4209 15.8391 20.2746 15.6942 20.1328C16.4411 19.6807 17.1834 19.2287 17.9303 18.7766C18.0842 18.9273 18.2381 19.078 18.3875 19.2287C17.6361 19.6719 16.8802 20.1195 16.1288 20.5627Z" fill="#6A6B6B"/>
<path d="M11.1316 16.9905C11.29 16.9949 11.4484 17.0038 11.6068 17.0082C11.4303 18.1783 10.2942 18.2935 9.4477 19.171C9.58803 17.8104 10.5069 17.5223 11.1316 16.9905Z" fill="#787B7A"/>
<path d="M8.23461 26.8518C8.06713 27.1443 7.7865 27.2462 7.50586 27.1133C7.38365 27.0557 7.36553 26.7897 7.30216 26.6213C7.4968 26.5504 7.69596 26.4219 7.8906 26.4263C8.1124 26.4307 8.31609 26.5593 8.23461 26.8518Z" fill="#6E6E6B"/>
<path d="M18.392 38.7252C16.7851 38.743 15.1511 38.8937 13.8203 37.6394C15.2235 38.5524 17.2015 36.8106 18.3875 38.7341C18.3875 38.7297 18.392 38.7252 18.392 38.7252Z" fill="#5A5957"/>
<path d="M32.406 40.0061C32.5553 40.1302 33.18 40.1435 32.7273 40.4094C32.2747 40.6753 31.564 40.6798 31.1295 40.0947C31.555 40.0637 31.9805 40.0327 32.406 40.0061Z" fill="#716F6D"/>
<path d="M21.5243 32.6223C22.6876 33.1364 23.8962 33.4644 25.1862 33.3979C27.5219 34.1381 29.9255 33.7259 32.2973 33.7879C32.6051 33.717 32.922 33.7879 32.8722 34.1248C32.7998 34.6611 32.329 34.9004 31.8628 35.1043C29.8847 35.6361 27.8206 35.0777 25.8335 35.5253C25.2179 35.6494 24.5933 35.6184 23.9731 35.6006C23.5884 35.5741 23.2489 35.4544 23.0226 35.1176C20.3565 34.5901 17.6723 34.1425 15.3502 32.5869C15.0107 32.3608 14.4721 32.3697 14.3227 32.9813C13.7614 32.9459 13.6437 32.445 13.3586 32.1126C12.236 30.0163 14.0059 29.4445 15.2778 28.6157C15.4408 28.5891 15.6037 28.5626 15.7667 28.536C15.7033 29.0058 15.5856 29.4844 15.9568 29.901C17.4867 31.4611 19.5689 31.922 21.5243 32.6223Z" fill="#574632"/>
<path d="M15.2823 28.6202C14.3182 29.6129 13.0191 30.4329 13.3631 32.1171C12.2677 32.0506 13.4627 33.3935 12.6162 33.3359C11.9599 33.2916 11.299 32.968 10.9143 32.383C10.3394 31.5143 11.2085 31.275 11.6612 30.8539C11.8513 30.6766 11.806 30.4683 11.6023 30.2999C12.8833 29.8523 13.7524 28.5404 15.2823 28.6202Z" fill="#81868A"/>
<path d="M25.1636 36.9701C27.4268 37.1962 29.7535 36.456 31.9759 37.3868C29.7082 37.1962 27.3861 37.892 25.1636 36.9701Z" fill="#403F3E"/>
<path d="M23.0271 35.1176C23.2851 35.1486 23.5386 35.1796 23.7966 35.2151C23.43 36.3718 22.6062 35.7469 21.9272 35.676C21.5107 35.6405 21.0988 35.6095 20.6824 35.5741C21.3523 34.8649 22.2621 35.3657 23.0271 35.1176Z" fill="#F9B64F"/>
<path d="M21.9272 35.676C22.5428 35.4898 23.2987 35.8577 23.7966 35.2151C24.4122 35.1929 25.0278 35.1707 25.6434 35.1486C27.4404 34.6478 29.2284 35.2284 31.0209 35.184C32.7545 35.1397 34.47 34.9358 36.172 34.6212C36.5703 34.599 36.9686 34.6079 37.3624 34.6743C37.8558 34.8428 38.4397 34.9225 38.3175 35.6627C37.5299 35.9286 36.7423 36.199 35.9547 36.4649C32.8495 36.4605 29.7489 36.456 26.6438 36.4516C25.141 35.7912 23.4119 36.4516 21.9272 35.676Z" fill="#E09D41"/>
<path d="M39.2409 26.2623C39.4763 25.9565 38.2632 24.782 39.8927 25.2784C40.5219 25.469 41.2235 25.8236 41.9342 25.4335C44.3875 25.9432 46.4199 27.3969 48.6515 28.3986C50.0682 29.0324 50.1724 30.4506 49.1765 31.6517C48.3663 31.0002 48.8778 29.4844 47.5017 29.2052C46.8182 28.9659 46.2162 28.6157 45.7364 28.075C45.6776 28.0085 45.6323 27.9953 45.6323 27.9953C45.6097 28.1371 45.6413 28.27 45.7319 28.3986C45.8722 28.9348 46.4969 29.3426 46.1438 29.9941C45.5961 31.0135 45.3426 32.1481 44.8356 33.1807C44.297 34.2755 43.5501 35.0289 42.1605 34.4838C42.079 34.2888 42.0428 34.0893 42.0428 33.881C42.4095 32.4583 44.0571 30.9071 41.6218 29.7592C41.7893 27.9642 40.368 27.2108 39.2409 26.2623Z" fill="#65696C"/>
<path d="M47.8141 28.9659C49.1448 29.4268 49.1448 29.4268 49.172 31.6473C49.0317 31.9486 48.8914 32.25 48.751 32.5514C48.4206 33.0832 47.977 33.4378 47.3026 33.4289C47.0717 32.9857 47.4021 32.3298 46.7549 32.0417C46.5195 31.5675 46.6915 31.1597 46.9585 30.7653C47.1079 30.5525 47.2709 30.3487 47.4112 30.1271C47.633 29.7725 47.4972 29.2938 47.8141 28.9659Z" fill="#5C5E63"/>
<path d="M47.3569 30.752C47.2166 31.2262 47.0717 31.7004 46.9314 32.1747C47.031 32.9015 46.6281 33.2472 45.9627 33.3979C44.7632 34.7719 43.2106 35.2505 41.4136 35.1308C41.3865 34.4793 41.6445 34.1292 42.3642 34.2799C44.9624 34.5813 44.2019 32.1481 45.0348 31.0268C45.3426 30.6146 45.2204 29.9055 46.0125 29.8611C47.0219 29.347 47.212 30.0163 47.3569 30.752Z" fill="#5F6266"/>
<path d="M45.9627 33.3979C46.2841 32.9902 46.6055 32.5824 46.9314 32.1747C47.2618 32.0683 47.6783 31.5453 47.8729 31.8777C48.2124 32.4583 47.4746 32.8927 47.3071 33.4334C47.1804 33.5575 47.0536 33.6771 46.9269 33.7968C46.5331 33.8323 46.1619 33.8145 45.9627 33.3979Z" fill="#878C90"/>
<path d="M42.3687 34.2799C42.0519 34.5635 41.735 34.8472 41.4182 35.1308C40.9836 35.153 40.5536 35.1752 40.1191 35.1973H40.1236C39.9018 34.8871 40.0964 34.6744 40.2956 34.4572C40.7528 34.0938 41.1964 33.7082 41.8074 33.6151C42.0111 33.6195 42.1831 33.6993 42.3235 33.8411C42.337 33.9874 42.3506 34.1336 42.3687 34.2799Z" fill="#524639"/>
<path d="M40.5536 34.7231C40.4087 34.8827 40.2684 35.0378 40.1236 35.1973C39.5216 35.3525 38.9195 35.5076 38.3175 35.6583C38.0867 35.2284 37.6521 35.1707 37.2357 35.0732C37.8332 33.9165 38.8833 33.8278 40.0195 33.9431C40.368 34.0938 40.6532 34.2799 40.5536 34.7231Z" fill="#D59848"/>
<path d="M36.0407 2.83453C37.3896 2.55531 38.4171 3.56582 39.6574 3.71651C38.7113 4.6561 37.4122 5.17022 37.7065 7.08486C37.9509 8.65824 36.3621 7.59898 35.5881 7.70978C35.3798 7.59455 35.4025 7.36408 35.3165 7.19123C35.3074 7.41283 35.407 7.58568 35.5881 7.70978C35.1264 9.01723 33.61 8.91086 32.7771 9.72193C32.4195 8.55187 31.6319 9.07042 30.7719 9.43384C30.8715 7.94468 31.9714 7.82501 32.9627 7.5325C32.3471 7.00065 31.1069 7.62557 31.0571 6.3846C31.736 6.49097 32.415 6.60177 33.189 6.72143C33.1845 5.6932 30.1427 5.19681 32.8858 4.16414C33.5421 3.92924 34.4972 3.98243 34.2256 2.84782C34.8367 2.84339 35.4342 2.40905 36.0407 2.83453Z" fill="#474646"/>
<path d="M21.5741 9.55351C21.986 8.87097 23.0407 8.80449 23.2036 7.90036C17.8443 8.93302 17.8443 8.93302 13.9063 11.7252C13.7297 11.7163 13.5577 11.7075 13.3812 11.7031C13.852 11.118 14.3272 10.5286 14.798 9.94353C18.6319 7.55909 22.8098 5.87048 26.9878 4.17301C27.1417 4.25278 27.2005 4.33699 27.1552 4.43006C27.11 4.52314 27.0647 4.57189 27.0149 4.57189C27.1643 4.73588 27.3137 4.89986 27.4631 5.06385C27.7799 5.53808 28.4679 5.46273 28.7848 5.93696C29.242 6.08765 29.6991 6.23834 30.1563 6.39346C29.5995 7.03168 29.4094 8.03332 28.3412 8.16628C28.1873 8.3081 28.0062 8.35243 27.798 8.3081C26.7977 7.88706 26.3948 8.83552 25.7294 9.17679C25.5167 9.2477 25.3356 9.19452 25.1772 9.04826C25.1772 8.902 25.1772 8.75574 25.1772 8.60948C24.0501 8.37015 23.8962 9.72636 23.0045 9.87705C22.5292 10.0322 22.072 10.4311 21.5651 9.9524C21.5651 9.80614 21.5696 9.67761 21.5741 9.55351Z" fill="#474646"/>
<path d="M28.8029 19.2331C26.9018 19.5389 25.3582 20.8951 23.3938 21.0104C23.009 20.9926 22.6605 20.9173 22.5066 20.5095C23.1176 20.1062 23.9686 20.0131 24.2719 19.2065C25.0233 18.4531 26.2137 19.0337 26.9878 18.3467C27.7437 18.3511 28.2914 17.9434 28.8029 17.4647C30.9032 16.3079 33.0035 15.1512 35.4296 13.8216C34.5606 15.8603 32.3879 16.0066 31.5188 17.4957C30.9167 18.5328 29.7082 18.6569 28.8029 19.2331Z" fill="#484847"/>
<path d="M26.087 12.585C27.2322 12.3457 28.4317 12.226 29.2555 11.2554C29.7897 11.8803 30.2921 10.8122 30.8579 11.2598C30.609 11.9645 29.414 12.4432 30.2242 13.4404C30.1744 13.5246 30.1201 13.6088 30.0703 13.6975C29.6176 14.1052 29.0383 14.318 28.5404 14.6504C28.1873 14.8587 27.8206 15.036 27.3861 14.965C26.5759 14.7479 26.345 14.1229 26.2364 13.4138C26.1504 13.1435 26.0915 12.8687 26.087 12.585Z" fill="#50504E"/>
<path d="M27.8704 8.14855C28.0289 8.14855 28.1828 8.15298 28.3412 8.15298C28.5404 8.52971 28.735 8.90643 28.9342 9.28316C26.8565 9.62886 29.3144 10.338 28.8074 10.8078C27.2594 10.8787 26.0508 10.2892 25.1817 9.03053C25.3175 9.03053 25.4533 9.03053 25.5891 9.03496C26.4084 8.88871 26.5894 7.16907 27.8704 8.14855Z" fill="#50504E"/>
<path d="M30.1563 15.6919C29.2329 16.1573 28.3005 17.2963 27.3952 15.6653C27.3001 14.8365 28.1828 14.9739 28.5177 14.5706C29.1016 14.247 29.6267 13.8482 30.1699 13.4626L30.2197 13.436C30.5048 13.5955 30.7855 13.7595 31.0707 13.9191C31.3966 14.8232 30.3736 15.0581 30.1563 15.6919Z" fill="#4C4B4B"/>
<path d="M35.1173 10.7723C36.5024 9.54908 37.883 8.32583 39.2681 7.10259C38.3311 8.75131 37.1814 10.2095 35.5066 11.1978C35.312 11.1136 35.1807 10.9718 35.1173 10.7723Z" fill="#5D5D5D"/>
<path d="M24.2764 17.9123C24.1316 17.7661 23.9912 17.6198 23.8464 17.4736C24.2357 16.4897 25.2949 16.0863 25.8607 15.2531C26.0372 15.129 26.2364 15.0758 26.4536 15.0891C26.775 15.2044 26.9742 15.426 27.024 15.7628C26.3405 16.76 25.3899 17.4381 24.2764 17.9123Z" fill="#636362"/>
<path d="M24.2674 19.2021C24.4756 19.2951 25.064 19.2686 24.6838 19.6143C24.1089 20.1417 23.4526 20.7533 22.4975 20.5095C22.9004 19.827 23.3621 19.2242 24.2674 19.2021Z" fill="#727371"/>
<path d="M30.1563 15.6919C30.0794 14.9119 30.7945 14.5263 31.0707 13.9235C32.1479 14.6326 32.1117 14.7035 30.1563 15.6919Z" fill="#636362"/>
<path d="M39.2002 9.47373C39.2545 8.66267 39.7072 8.15298 40.7301 7.73637C40.5989 8.81779 40.2549 9.41168 39.2183 9.49146L39.2002 9.47373Z" fill="#5C5C5B"/>
<path d="M39.2183 9.49146C38.743 10.1873 38.2677 10.8831 36.9234 11.2776C37.6838 10.2449 38.1772 9.56681 39.2047 9.47373C39.2002 9.47373 39.2183 9.49146 39.2183 9.49146Z" fill="#5C5C5B"/>
<path d="M28.8029 17.4603C28.5041 18.36 28.1284 19.1046 26.9878 18.3423C27.4585 17.7838 28.0877 17.5401 28.8029 17.4603Z" fill="#696A68"/>
<path d="M27.024 15.7628C26.8746 15.5988 26.7252 15.4393 26.5759 15.2753C26.6573 14.8276 26.9425 14.6459 27.3906 14.6903C27.703 14.5662 28.0108 14.4465 28.3231 14.3224C28.7893 14.1495 28.8708 14.349 28.744 14.7434C28.2959 15.0492 27.8433 15.3595 27.3952 15.6653C27.2684 15.6742 27.1417 15.7052 27.024 15.7628Z" fill="#949593"/>
<path d="M35.1173 10.7723C35.2486 10.9141 35.3798 11.056 35.5066 11.1978C35.0358 11.4504 34.7869 12.1241 34.0536 11.9291C34.0355 11.1978 34.7009 11.0914 35.1173 10.7723Z" fill="#8A8B8D"/>
<path d="M34.2301 2.85226C34.556 3.08272 34.8864 3.31319 35.3029 3.60127C34.3931 3.6057 33.8906 4.77133 32.8903 4.16857C33.0623 3.94254 33.3384 3.7298 33.3746 3.48161C33.4335 3.08715 32.0393 3.28216 32.8767 2.54201C33.2615 2.20075 33.8725 2.34257 34.2301 2.85226Z" fill="#404040"/>
<path d="M28.7848 5.9281C28.1284 5.95469 27.4812 5.96355 27.4631 5.05498C27.9067 5.34307 29.2193 4.36802 28.7848 5.9281Z" fill="#727370"/>
<path d="M27.0149 4.56746C26.9968 4.4345 26.9878 4.30153 26.9878 4.16857C27.1462 4.02675 27.3001 3.88936 27.4585 3.74753C27.9021 3.74753 28.3457 3.74753 29.0021 3.74753C28.3865 4.52314 27.7573 4.67383 27.0149 4.56746Z" fill="#7B7C7C"/>
<path d="M28.3638 25.4557C28.907 25.8324 29.5045 26.1515 29.9707 26.5992C30.3328 26.9449 30.6723 27.521 29.9979 27.88C29.4728 28.1548 28.7486 28.2878 29.0926 29.0279C29.4275 29.7503 30.1518 29.1121 30.6225 29.0988C32.0665 29.0545 33.0487 29.5731 33.782 30.7165C32.9944 31.3813 31.8945 31.3149 31.039 31.829C30.4777 31.8511 29.9209 31.9885 29.3551 31.8644C28.7033 31.8334 28.0153 31.9575 27.4585 31.4744C26.9425 30.5082 25.9557 30.362 25.0142 30.1581C23.5522 29.8434 22.3708 29.183 21.814 27.7249C21.7823 27.5077 21.805 27.295 21.8819 27.0911C22.6242 26.1693 23.5974 25.6995 24.7924 25.6684C25.9014 25.5931 26.9878 25.336 28.0968 25.2563C28.1873 25.3227 28.2778 25.3892 28.3638 25.4557Z" fill="#F6A843"/>
<path d="M31.9714 34.732C31.8899 34.3552 33.0216 34.3774 32.2973 33.7879C32.3743 33.6816 32.4467 33.5708 32.5101 33.4555C32.7454 33.1364 33.0125 33.1763 33.2977 33.3802C36.4436 33.4245 39.1776 32.4317 41.4634 30.2911C41.8074 30.3797 42.0202 30.588 42.0835 30.9337C41.8572 32.055 40.8795 32.6578 40.2458 33.4999C39.0191 34.1868 37.6476 34.4262 36.2987 34.7453C34.8548 34.9624 33.4108 35.707 31.9714 34.732Z" fill="#5D4832"/>
<path d="M41.9251 30.7609C41.7712 30.6057 41.6173 30.4506 41.4634 30.2955C41.5132 30.1182 41.5675 29.9409 41.6173 29.7636C41.9251 29.5642 42.0926 28.9083 42.6403 29.4623C43.351 30.1803 43.7493 31.0622 43.4686 32.0107C43.2695 32.6755 42.7173 33.2339 42.3235 33.8411C42.165 33.8411 42.0111 33.8411 41.8572 33.8456C41.1873 33.6638 40.6849 34.3198 40.024 34.1957C39.0961 34.4926 38.1682 34.7851 37.2357 35.0821C36.9913 35.0777 36.7423 35.0732 36.4979 35.0688C36.2353 34.825 36.2354 34.5813 36.4888 34.3331C37.6793 33.8367 39.1504 34.0583 40.1145 32.9769C40.8071 32.3032 42.0111 32.0373 41.9251 30.7609Z" fill="#493A29"/>
<path d="M29.2465 31.6517C29.8576 31.6428 30.4641 31.6384 31.0752 31.6295C31.822 31.111 32.5689 31.0711 33.3203 31.6207C34.7959 31.634 36.0136 30.8406 37.3534 30.4284C38.1003 30.198 38.9467 30.1625 40.1236 30.6456C36.4662 32.5248 32.9537 32.906 29.2555 32.0816C29.1107 31.9885 29.0609 31.8955 29.1062 31.798C29.1514 31.7004 29.1967 31.6517 29.2465 31.6517Z" fill="#E5912D"/>
<path d="M29.2465 31.6517C29.251 31.7935 29.251 31.9353 29.251 32.0816C28.649 32.0905 28.047 32.0949 27.4495 32.1038C24.4665 31.5409 21.2935 31.6295 18.727 29.6262C18.1612 29.1875 17.6316 28.8595 18.7768 28.5448C19.4512 28.5094 20.008 28.8152 20.5557 29.1432C21.9589 29.9099 23.5839 29.9055 25.0686 30.3753C25.5755 30.5348 26.0961 30.6235 26.6211 30.7121C26.947 30.783 27.2231 30.947 27.454 31.1863C28.0108 31.4966 28.5947 31.696 29.2465 31.6517Z" fill="#DA8620"/>
<path d="M33.3203 31.6207C32.5734 31.6251 31.822 31.6251 31.0752 31.6295C31.5278 30.0384 32.8858 31.0268 33.7865 30.7165C34.2709 31.337 33.3113 31.2395 33.3203 31.6207Z" fill="#FAC675"/>
<path d="M33.5149 29.0855C34.3025 28.3631 34.9951 28.5049 36.0226 29.0501C35.0223 29.5509 34.3433 29.9719 33.5149 29.0855Z" fill="#F6BE72"/>
<path d="M33.3022 33.3802C33.0397 33.4068 32.7771 33.4289 32.5146 33.4555C31.4328 33.4555 30.3464 33.4555 29.2646 33.4555C30.6225 33.0434 31.994 32.6179 33.3022 33.3802Z" fill="#F9B652"/>
<path d="M28.3638 24.977C29.2329 25.1233 30.2966 24.6313 30.9982 25.8767C29.9798 26.1427 29.2465 25.1366 28.3638 25.4557L28.3457 25.4335C28.2009 25.336 28.1511 25.2385 28.1963 25.141C28.2461 25.0435 28.2914 24.9948 28.3412 24.9948L28.3638 24.977Z" fill="#F1A945"/>
<path d="M39.5125 28.1282C39.4808 28.9038 39.1866 28.9614 38.8788 28.9216C38.5439 28.8772 38.3628 28.6246 38.3673 28.3055C38.3718 27.9465 38.6299 27.7781 38.9603 27.8667C39.2409 27.9376 39.4899 28.1149 39.5125 28.1282Z" fill="#F7D699"/>
<path d="M37.8694 28.4961C37.6386 28.6556 37.4801 28.8506 37.3443 28.8373C37.1723 28.824 36.9279 28.6689 36.8736 28.5182C36.7197 28.1061 37.0727 28.0662 37.3398 28.1105C37.5028 28.1326 37.6386 28.3188 37.8694 28.4961Z" fill="#FAD89D"/>
<path d="M20.2026 29.4357C19.7273 29.1387 19.252 28.8418 18.7768 28.5448C20.2071 28.3853 18.9669 26.5992 20.1936 26.3155C21.0083 25.7438 21.8412 25.2297 22.9185 25.4424C23.2942 26.3643 21.9996 26.4884 22.0268 27.2418C22.0222 27.3792 22.0177 27.5122 22.0087 27.6496C21.7325 28.5581 21.1215 29.1476 20.2026 29.4357Z" fill="#F4B95E"/>
<path d="M22.0268 27.2418C21.04 26.0319 23.0724 26.2535 22.9185 25.4424C23.5205 24.946 24.118 25.0435 24.7064 25.469C24.8649 25.5532 24.9237 25.6418 24.8784 25.7393C24.8332 25.8413 24.7879 25.89 24.7381 25.89C23.8373 26.3421 22.9321 26.7942 22.0268 27.2418Z" fill="#FAD295"/>
<path d="M24.7381 25.8945C24.7291 25.7526 24.72 25.6108 24.7064 25.469C25.8833 25.0479 27.0964 24.915 28.3412 24.9992C28.3502 25.1455 28.3502 25.2917 28.3412 25.438C27.1688 25.7659 25.9829 26.0319 24.7381 25.8945Z" fill="#FAC578"/>
<path d="M22.8506 9.54908C23.7468 9.50919 23.8781 7.68319 25.1772 8.59619C24.3036 9.04383 23.9912 10.2139 22.8551 10.3247C22.6378 10.0676 22.6876 9.80614 22.8506 9.54908Z" fill="#5E5F5C"/>
<path d="M26.087 12.585C26.2319 12.7269 26.3812 12.8731 26.5261 13.0149C26.1187 13.9545 25.3266 14.3578 24.3488 14.4997C24.0275 14.3844 23.8238 14.1761 23.7695 13.8393C24.5435 13.4227 25.313 13.0061 26.087 12.585Z" fill="#6B6B6A"/>
<path d="M23.0814 12.8288C22.3753 13.826 21.7869 14.0786 20.7775 14.2869C21.3342 13.3296 21.891 12.9352 23.0814 12.8288Z" fill="#6B6E6B"/>
<path d="M23.7695 13.8393C23.9279 13.9989 24.0908 14.1628 24.2493 14.3224C24.2266 14.6415 24.0546 14.8764 23.8011 15.0625C23.3621 15.3329 22.9004 15.5412 22.3572 15.457C22.0585 15.3285 21.8276 15.1601 21.9951 14.7878C22.588 14.4775 23.1765 14.1584 23.7695 13.8393Z" fill="#838483"/>
<path d="M21.9951 14.7922C22.158 14.9562 22.3255 15.1157 22.4885 15.2797C22.5971 15.9888 22.0675 16.0509 21.5696 16.144C21.2708 16.2902 20.9721 16.4409 20.6734 16.5872C20.5149 16.5827 20.352 16.5783 20.1936 16.5739C20.6236 15.8116 21.2527 15.2487 21.9951 14.7922Z" fill="#626461"/>
<path d="M17.9077 12.5053C18.4101 12.2482 18.9125 11.9956 19.4195 11.7385C19.0936 12.4343 18.9669 13.5645 17.8443 12.554L17.9077 12.5053Z" fill="#888988"/>
<path d="M22.8506 9.54908C22.8551 9.81057 22.8551 10.0676 22.8596 10.3291C22.3165 10.5507 21.6601 11.1446 21.5651 9.9391C21.9906 9.80614 22.4206 9.67761 22.8506 9.54908Z" fill="#888987"/>
<path d="M21.5243 32.6223C19.3788 32.2899 17.1472 32.1259 15.9658 29.901C17.8217 30.8096 19.673 31.7137 21.5243 32.6223Z" fill="#EFAD4A"/>
<path d="M21.5696 16.144C21.8774 15.8559 22.1807 15.5678 22.4885 15.2797C22.9049 15.098 23.3168 14.9119 23.7332 14.7301C23.9505 14.6105 24.2312 14.6504 24.2538 14.8542C24.3307 15.5722 23.8147 15.5634 23.2987 15.519C24.2855 15.8869 25.1048 14.3667 26.1368 15.2576C25.9693 16.5827 24.8015 16.924 23.8464 17.4736C23.2534 17.7395 22.6559 18.001 21.6737 18.4398C22.244 17.4514 22.588 16.6492 21.5696 16.144Z" fill="#3B3939"/>
<path d="M19.3743 9.26099C18.3965 10.5064 17.188 11.4416 15.4272 12.1994C16.3234 10.3158 17.7855 9.70863 19.3743 9.26099Z" fill="#817F80"/>
<path d="M36.4888 34.3242C36.4934 34.5724 36.4934 34.8162 36.4979 35.0599C32.8858 36.1192 29.2601 35.3214 25.6434 35.1441C27.703 34.2932 29.8711 34.9447 31.9759 34.7275C33.4968 34.7896 35.0132 34.794 36.4888 34.3242Z" fill="#4B3620"/>
<path d="M21.633 33.6417C21.1622 33.9564 20.7005 33.9076 20.0759 33.655C20.6779 33.3314 21.1351 33.3137 21.633 33.6417Z" fill="#5C5547"/>
<path d="M47.8141 28.9659C47.9091 29.4002 48.5609 29.8213 47.8457 30.2733C46.8997 29.901 46.3384 29.0634 45.578 28.4695C45.1887 28.1637 44.7994 27.8623 44.048 27.2773C45.7952 27.5565 46.7775 28.3232 47.8141 28.9659Z" fill="#7E8284"/>
<path d="M45.578 28.4695C46.6372 28.7044 47.2709 29.4534 47.8457 30.2733C47.6828 30.4329 47.5198 30.588 47.3569 30.7476C46.8907 30.4772 46.7322 29.7636 46.017 29.8611C46.2524 29.285 45.1253 29.1166 45.578 28.4695Z" fill="#494B4E"/>
<path d="M40.024 34.1913C40.6079 33.9386 41.0787 33.1187 41.8572 33.8411C41.4227 34.1336 40.9881 34.4306 40.5581 34.7231C40.3771 34.5458 40.2005 34.3685 40.024 34.1913Z" fill="#B1854A"/>
<path d="M35.5881 7.70978C34.2528 7.16907 35.3617 6.73473 35.6107 6.05219C36.1539 6.76575 35.4477 7.22225 35.5881 7.70978Z" fill="#404040"/>
<path d="M27.8704 8.14855C26.7343 7.52807 26.7434 9.70863 25.5846 9.03939C26.8112 7.15577 26.9561 7.09816 27.8704 8.14855Z" fill="#676766"/>
<path d="M26.1368 15.2576C25.2179 15.5013 24.2945 15.7495 23.3802 15.9933C22.7238 15.3551 24.5254 15.4038 23.7332 14.7301C23.9052 14.5972 24.0773 14.4642 24.2493 14.3268C25.0052 13.8925 25.7656 13.4537 26.5261 13.0194C27.2232 13.3739 26.4582 14.4554 27.3952 14.6903C27.1236 14.8853 26.852 15.0803 26.5804 15.2753C26.431 15.262 26.2862 15.2576 26.1368 15.2576Z" fill="#454444"/>
<path d="M28.744 14.7434C28.6037 14.6016 28.4634 14.4642 28.3231 14.3224C28.8391 13.826 29.4321 13.498 30.1699 13.4626C29.9073 14.1141 29.4094 14.5174 28.744 14.7434Z" fill="#797979"/>
<path d="M20.2026 29.4357C20.6462 28.6867 21.2256 28.0706 22.0132 27.6496C23.0452 28.9614 24.4213 29.6262 26.078 29.8877C26.7434 29.9941 27.9293 29.8257 27.454 31.1908C27.1462 31.1908 26.8339 31.1908 26.5261 31.1863C26.1323 30.8451 25.657 30.7476 25.1455 30.7697C23.4662 30.4417 21.633 30.6545 20.2026 29.4357Z" fill="#EF9B2D"/>
<path d="M41.9251 30.7609C42.0564 32.0905 41.9206 32.2589 40.1145 32.9724C40.7165 32.2323 41.3231 31.4966 41.9251 30.7609Z" fill="#675842"/>
<path d="M25.1455 30.7697C25.9105 29.9454 26.1821 30.6722 26.5261 31.1863C26.0146 31.2041 25.5076 31.2218 25.1455 30.7697Z" fill="#F5B14D"/>
</svg>
